<?xml version="1.0" encoding="UTF-8" standalone="no"?>
<!DOCTYPE svg PUBLIC "-//W3C//DTD SVG 1.1//EN"
 "http://www.w3.org/Graphics/SVG/1.1/DTD/svg11.dtd">
<!-- Generated by graphviz version 2.43.0 (0)
 -->
<!-- Title: render_actor_banana Pages: 1 -->
<!--zoomable 251 -->

<svg id="main" version="1.1" xmlns="http://www.w3.org/2000/svg" xmlns:xlink="http://www.w3.org/1999/xlink" xml:space="preserve" onload="init(evt)">
<style type="text/css"><![CDATA[
.node, .edge {opacity: 0.7;}
.node.selected, .edge.selected {opacity: 1;}
.edge:hover path { stroke: red; }
.edge:hover polygon { stroke: red; fill: red; }
]]></style>

<defs>
  <circle id="rim" cx="0" cy="0" r="7"/>
  <circle id="rim2" cx="0" cy="0" r="3.5"/>
  <g id="zoomPlus">
    <use xlink:href="#rim" fill="#404040"><set attributeName="fill" to="#808080" begin="zoomplus.mouseover" end="zoomplus.mouseout"/></use>
    <path d="M-4,0h8M0,-4v8" fill="none" stroke="white" stroke-width="1.5" pointer-events="none"/>
  </g>
  <g id="zoomMin">
    <use xlink:href="#rim" fill="#404040"><set attributeName="fill" to="#808080" begin="zoomminus.mouseover" end="zoomminus.mouseout"/></use>
    <path d="M-4,0h8" fill="none" stroke="white" stroke-width="1.5" pointer-events="none"/>
  </g>
  <g id="arrowUp" transform="translate(30 24)">
    <use xlink:href="#rim"/>
    <path pointer-events="none" fill="none" stroke="white" stroke-width="1.5" d="M0,-3.0v7 M-2.5,-0.5L0,-3.0L2.5,-0.5"/>
  </g>
  <g id="arrowRight" transform="rotate(90) translate(36 -43)">
    <use xlink:href="#rim"/>
    <path pointer-events="none" fill="none" stroke="white" stroke-width="1.5" d="M0,-3.0v7 M-2.5,-0.5L0,-3.0L2.5,-0.5"/>
  </g>
  <g id="arrowDown" transform="rotate(180) translate(-30 -48)">
    <use xlink:href="#rim"/>
    <path pointer-events="none" fill="none" stroke="white" stroke-width="1.5" d="M0,-3.0v7 M-2.5,-0.5L0,-3.0L2.5,-0.5"/>
  </g>
  <g id="arrowLeft" transform="rotate(270) translate(-36 17)">
    <use xlink:href="#rim"/>
    <path pointer-events="none" fill="none" stroke="white" stroke-width="1.5" d="M0,-3.0v7 M-2.5,-0.5L0,-3.0L2.5,-0.5"/>
  </g>
  <g id="resetDef">
    <use xlink:href="#rim2" fill="#404040"><set attributeName="fill" to="#808080" begin="reset.mouseover" end="reset.mouseout"/></use>
  </g>
</defs>
<script type="application/ecmascript">
var viewWidth = 708;
var viewHeight = 251;
var sectionId = 'dynsection-119';
</script>
<script type="application/ecmascript" xlink:href="svg.min.js"/>
<svg id="graph" class="graph">
<g id="viewport">
<title>render_actor_banana</title>
<!-- Node1 -->
<g id="Node000001" class="node">
<title>Node1</title>
<g id="a_Node000001"><a xlink:title=" ">
<polygon fill="#999999" stroke="#666666" points="119,-169 0,-169 0,-150 119,-150 119,-169"/>
<text text-anchor="middle" x="59.5" y="-157" font-family="Helvetica,sans-Serif" font-size="10.00">render_actor_banana</text>
</a>
</g>
</g>
<!-- Node2 -->
<g id="Node000002" class="node">
<title>Node2</title>
<g id="a_Node000002"><a xlink:href="actors_8c.html#a492cfdf1c68b410aed6c567e6e5e19c3" target="_top" xlink:title=" ">
<polygon fill="white" stroke="#666666" points="272,-243 181,-243 181,-224 272,-224 272,-243"/>
<text text-anchor="middle" x="226.5" y="-231" font-family="Helvetica,sans-Serif" font-size="10.00">func_80297230</text>
</a>
</g>
</g>
<!-- Node1&#45;&gt;Node2 -->
<g id="edge1_Node000001_Node000002" class="edge">
<title>Node1&#45;&gt;Node2</title>
<g id="a_edge1_Node000001_Node000002"><a xlink:title=" ">
<path fill="none" stroke="#63b8ff" d="M73.94,-169.15C91.7,-181.5 124.34,-202.81 155,-215.5 160.11,-217.61 165.53,-219.53 171,-221.26"/>
<polygon fill="#63b8ff" stroke="#63b8ff" points="170.29,-224.69 180.87,-224.16 172.26,-217.98 170.29,-224.69"/>
</a>
</g>
</g>
<!-- Node3 -->
<g id="Node000003" class="node">
<title>Node3</title>
<g id="a_Node000003"><a xlink:href="actors_8c.html#ad2388e667a8959e306fbba3b49c3fec7" target="_top" xlink:title=" ">
<polygon fill="white" stroke="#666666" points="272.5,-206 180.5,-206 180.5,-187 272.5,-187 272.5,-206"/>
<text text-anchor="middle" x="226.5" y="-194" font-family="Helvetica,sans-Serif" font-size="10.00">func_802972B8</text>
</a>
</g>
</g>
<!-- Node1&#45;&gt;Node3 -->
<g id="edge2_Node000001_Node000003" class="edge">
<title>Node1&#45;&gt;Node3</title>
<g id="a_edge2_Node000001_Node000003"><a xlink:title=" ">
<path fill="none" stroke="#63b8ff" d="M102.99,-169.03C124.37,-173.82 150.47,-179.68 173.08,-184.75"/>
<polygon fill="#63b8ff" stroke="#63b8ff" points="172.34,-188.17 182.87,-186.94 173.87,-181.34 172.34,-188.17"/>
</a>
</g>
</g>
<!-- Node4 -->
<g id="Node000004" class="node">
<title>Node4</title>
<g id="a_Node000004"><a xlink:href="math__util_8c.html#a0449ff8d69f329470508b7d8ac45cdc6" target="_top" xlink:title=" ">
<polygon fill="white" stroke="#666666" points="272.5,-169 180.5,-169 180.5,-150 272.5,-150 272.5,-169"/>
<text text-anchor="middle" x="226.5" y="-157" font-family="Helvetica,sans-Serif" font-size="10.00">func_802B5F74</text>
</a>
</g>
</g>
<!-- Node1&#45;&gt;Node4 -->
<g id="edge3_Node000001_Node000004" class="edge">
<title>Node1&#45;&gt;Node4</title>
<g id="a_edge3_Node000001_Node000004"><a xlink:title=" ">
<path fill="none" stroke="#63b8ff" d="M119.14,-159.5C135.63,-159.5 153.51,-159.5 169.82,-159.5"/>
<polygon fill="#63b8ff" stroke="#63b8ff" points="170.28,-163 180.28,-159.5 170.28,-156 170.28,-163"/>
</a>
</g>
</g>
<!-- Node7 -->
<g id="Node000007" class="node">
<title>Node7</title>
<g id="a_Node000007"><a xlink:href="math__util_8c.html#a5e1d12b8745a8d5f8d73ab366328d3cd" target="_top" xlink:title=" ">
<polygon fill="white" stroke="#666666" points="298,-114 155,-114 155,-95 298,-95 298,-114"/>
<text text-anchor="middle" x="226.5" y="-102" font-family="Helvetica,sans-Serif" font-size="10.00">is_within_render_distance</text>
</a>
</g>
</g>
<!-- Node1&#45;&gt;Node7 -->
<g id="edge6_Node000001_Node000007" class="edge">
<title>Node1&#45;&gt;Node7</title>
<g id="a_edge6_Node000001_Node000007"><a xlink:title=" ">
<path fill="none" stroke="#63b8ff" d="M89.24,-149.92C116.37,-140.88 157.23,-127.26 187.13,-117.29"/>
<polygon fill="#63b8ff" stroke="#63b8ff" points="188.43,-120.55 196.81,-114.06 186.22,-113.9 188.43,-120.55"/>
</a>
</g>
</g>
<!-- Node14 -->
<g id="Node000014" class="node">
<title>Node14</title>
<g id="a_Node000014"><a xlink:href="math__util_8c.html#aa23f6384122bc45f13a81ef0fa86c099" target="_top" xlink:title=" ">
<polygon fill="white" stroke="#666666" points="283,-53 170,-53 170,-34 283,-34 283,-53"/>
<text text-anchor="middle" x="226.5" y="-41" font-family="Helvetica,sans-Serif" font-size="10.00">render_set_position</text>
</a>
</g>
</g>
<!-- Node1&#45;&gt;Node14 -->
<g id="edge14_Node000001_Node000014" class="edge">
<title>Node1&#45;&gt;Node14</title>
<g id="a_edge14_Node000001_Node000014"><a xlink:title=" ">
<path fill="none" stroke="#63b8ff" d="M72.12,-149.85C89.65,-135.46 124.09,-107.77 155,-86.5 169.49,-76.53 186.28,-66.24 199.85,-58.23"/>
<polygon fill="#63b8ff" stroke="#63b8ff" points="201.79,-61.15 208.65,-53.07 198.25,-55.1 201.79,-61.15"/>
</a>
</g>
</g>
<!-- Node5 -->
<g id="Node000005" class="node">
<title>Node5</title>
<g id="a_Node000005"><a xlink:href="math__util_8c.html#ae69cbf5c8d4b3b0dba2d7b4d4673689f" target="_top" xlink:title=" ">
<polygon fill="white" stroke="#666666" points="426.5,-216 388.5,-216 388.5,-197 426.5,-197 426.5,-216"/>
<text text-anchor="middle" x="407.5" y="-204" font-family="Helvetica,sans-Serif" font-size="10.00">coss</text>
</a>
</g>
</g>
<!-- Node4&#45;&gt;Node5 -->
<g id="edge4_Node000004_Node000005" class="edge">
<title>Node4&#45;&gt;Node5</title>
<g id="a_edge4_Node000004_Node000005"><a xlink:title=" ">
<path fill="none" stroke="#63b8ff" d="M263.02,-169.02C274.22,-172.03 286.63,-175.39 298,-178.5 314.02,-182.88 317.94,-184.28 334,-188.5 348.55,-192.33 364.8,-196.38 378.22,-199.67"/>
<polygon fill="#63b8ff" stroke="#63b8ff" points="377.75,-203.16 388.29,-202.13 379.4,-196.36 377.75,-203.16"/>
</a>
</g>
</g>
<!-- Node6 -->
<g id="Node000006" class="node">
<title>Node6</title>
<g id="a_Node000006"><a xlink:href="math__util_8c.html#a19ed3bd78fd2d3e2bd0a29f6caf48545" target="_top" xlink:title=" ">
<polygon fill="white" stroke="#666666" points="425.5,-179 389.5,-179 389.5,-160 425.5,-160 425.5,-179"/>
<text text-anchor="middle" x="407.5" y="-167" font-family="Helvetica,sans-Serif" font-size="10.00">sins</text>
</a>
</g>
</g>
<!-- Node4&#45;&gt;Node6 -->
<g id="edge5_Node000004_Node000006" class="edge">
<title>Node4&#45;&gt;Node6</title>
<g id="a_edge5_Node000004_Node000006"><a xlink:title=" ">
<path fill="none" stroke="#63b8ff" d="M272.67,-162.02C306.13,-163.89 350.66,-166.38 378.96,-167.96"/>
<polygon fill="#63b8ff" stroke="#63b8ff" points="379.13,-171.48 389.31,-168.54 379.52,-164.49 379.13,-171.48"/>
</a>
</g>
</g>
<!-- Node8 -->
<g id="Node000008" class="node">
<title>Node8</title>
<g id="a_Node000008"><a xlink:href="math__util_8c.html#a07a66adf3458c156c7961b983983627a" target="_top" xlink:title=" ">
<polygon fill="white" stroke="#666666" points="454,-105 361,-105 361,-86 454,-86 454,-105"/>
<text text-anchor="middle" x="407.5" y="-93" font-family="Helvetica,sans-Serif" font-size="10.00">func_802B7CA8</text>
</a>
</g>
</g>
<!-- Node7&#45;&gt;Node8 -->
<g id="edge7_Node000007_Node000008" class="edge">
<title>Node7&#45;&gt;Node8</title>
<g id="a_edge7_Node000007_Node000008"><a xlink:title=" ">
<path fill="none" stroke="#63b8ff" d="M298.25,-100.94C315.73,-100.06 334.2,-99.13 350.85,-98.3"/>
<polygon fill="#63b8ff" stroke="#63b8ff" points="351.14,-101.79 360.95,-97.79 350.79,-94.8 351.14,-101.79"/>
</a>
</g>
</g>
<!-- Node12 -->
<g id="Node000012" class="node">
<title>Node12</title>
<g id="a_Node000012"><a xlink:href="math__util_8c.html#a963f23fd2ffec93350816627af02b9da" target="_top" xlink:title=" ">
<polygon fill="white" stroke="#666666" points="481,-142 334,-142 334,-123 481,-123 481,-142"/>
<text text-anchor="middle" x="407.5" y="-130" font-family="Helvetica,sans-Serif" font-size="10.00">get_angle_between_points</text>
</a>
</g>
</g>
<!-- Node7&#45;&gt;Node12 -->
<g id="edge11_Node000007_Node000012" class="edge">
<title>Node7&#45;&gt;Node12</title>
<g id="a_edge11_Node000007_Node000012"><a xlink:title=" ">
<path fill="none" stroke="#63b8ff" d="M288.35,-114.02C303.48,-116.39 319.84,-118.94 335.41,-121.38"/>
<polygon fill="#63b8ff" stroke="#63b8ff" points="335.09,-124.87 345.51,-122.96 336.17,-117.96 335.09,-124.87"/>
</a>
</g>
</g>
<!-- Node13 -->
<g id="Node000013" class="node">
<title>Node13</title>
<g id="a_Node000013"><a xlink:href="math__util_8c.html#a3eb0db0895b2c11953df746ce49b782e" target="_top" xlink:title=" ">
<polygon fill="white" stroke="#666666" points="462.5,-67.5 352.5,-67.5 352.5,-37.5 462.5,-37.5 462.5,-67.5"/>
<text text-anchor="start" x="360.5" y="-55.5" font-family="Helvetica,sans-Serif" font-size="10.00">is_visible_between</text>
<text text-anchor="middle" x="407.5" y="-44.5" font-family="Helvetica,sans-Serif" font-size="10.00">_angle</text>
</a>
</g>
</g>
<!-- Node7&#45;&gt;Node13 -->
<g id="edge13_Node000007_Node000013" class="edge">
<title>Node7&#45;&gt;Node13</title>
<g id="a_edge13_Node000007_Node000013"><a xlink:title=" ">
<path fill="none" stroke="#63b8ff" d="M260.33,-94.96C283.9,-88.12 316.36,-78.69 344.71,-70.45"/>
<polygon fill="#63b8ff" stroke="#63b8ff" points="345.92,-73.74 354.55,-67.59 343.97,-67.02 345.92,-73.74"/>
</a>
</g>
</g>
<!-- Node9 -->
<g id="Node000009" class="node">
<title>Node9</title>
<g id="a_Node000009"><a xlink:href="math__util_8c.html#aaa39a297477f56051975259f4bddd829" target="_top" xlink:title=" ">
<polygon fill="white" stroke="#666666" points="574.5,-142 524.5,-142 524.5,-123 574.5,-123 574.5,-142"/>
<text text-anchor="middle" x="549.5" y="-130" font-family="Helvetica,sans-Serif" font-size="10.00">atan2s</text>
</a>
</g>
</g>
<!-- Node8&#45;&gt;Node9 -->
<g id="edge8_Node000008_Node000009" class="edge">
<title>Node8&#45;&gt;Node9</title>
<g id="a_edge8_Node000008_Node000009"><a xlink:title=" ">
<path fill="none" stroke="#63b8ff" d="M445.02,-105.04C456.53,-108.05 469.3,-111.41 481,-114.5 491.93,-117.39 503.85,-120.56 514.59,-123.43"/>
<polygon fill="#63b8ff" stroke="#63b8ff" points="513.89,-126.86 524.45,-126.06 515.69,-120.1 513.89,-126.86"/>
</a>
</g>
</g>
<!-- Node11 -->
<g id="Node000011" class="node">
<title>Node11</title>
<g id="a_Node000011"><a xlink:href="math_8h.html#a37bde043e94a6f074c78f10518fb5d99" target="_top" xlink:title=" ">
<polygon fill="white" stroke="#666666" points="569,-105 530,-105 530,-86 569,-86 569,-105"/>
<text text-anchor="middle" x="549.5" y="-93" font-family="Helvetica,sans-Serif" font-size="10.00">sqrtf</text>
</a>
</g>
</g>
<!-- Node8&#45;&gt;Node11 -->
<g id="edge10_Node000008_Node000011" class="edge">
<title>Node8&#45;&gt;Node11</title>
<g id="a_edge10_Node000008_Node000011"><a xlink:title=" ">
<path fill="none" stroke="#63b8ff" d="M454.34,-95.5C475.91,-95.5 500.96,-95.5 519.8,-95.5"/>
<polygon fill="#63b8ff" stroke="#63b8ff" points="519.83,-99 529.83,-95.5 519.83,-92 519.83,-99"/>
</a>
</g>
</g>
<!-- Node10 -->
<g id="Node000010" class="node">
<title>Node10</title>
<g id="a_Node000010"><a xlink:href="math__util_8c.html#a0273b0ea0783a06996c28669a7438ed9" target="_top" xlink:title=" ">
<polygon fill="white" stroke="#666666" points="700,-142 618,-142 618,-123 700,-123 700,-142"/>
<text text-anchor="middle" x="659" y="-130" font-family="Helvetica,sans-Serif" font-size="10.00">atan2_lookup</text>
</a>
</g>
</g>
<!-- Node9&#45;&gt;Node10 -->
<g id="edge9_Node000009_Node000010" class="edge">
<title>Node9&#45;&gt;Node10</title>
<g id="a_edge9_Node000009_Node000010"><a xlink:title=" ">
<path fill="none" stroke="#63b8ff" d="M574.63,-132.5C584.49,-132.5 596.29,-132.5 607.86,-132.5"/>
<polygon fill="#63b8ff" stroke="#63b8ff" points="607.92,-136 617.92,-132.5 607.92,-129 607.92,-136"/>
</a>
</g>
</g>
<!-- Node12&#45;&gt;Node9 -->
<g id="edge12_Node000012_Node000009" class="edge">
<title>Node12&#45;&gt;Node9</title>
<g id="a_edge12_Node000012_Node000009"><a xlink:title=" ">
<path fill="none" stroke="#63b8ff" d="M481.37,-132.5C492.79,-132.5 504.1,-132.5 514.1,-132.5"/>
<polygon fill="#63b8ff" stroke="#63b8ff" points="514.37,-136 524.37,-132.5 514.37,-129 514.37,-136"/>
</a>
</g>
</g>
<!-- Node15 -->
<g id="Node000015" class="node">
<title>Node15</title>
<g id="a_Node000015"><a xlink:href="math__util_8c.html#a32af0f217114736291c9ca6689138b81" target="_top" xlink:title=" ">
<polygon fill="white" stroke="#666666" points="447.5,-19 367.5,-19 367.5,0 447.5,0 447.5,-19"/>
<text text-anchor="middle" x="407.5" y="-7" font-family="Helvetica,sans-Serif" font-size="10.00">mtxf_to_mtx</text>
</a>
</g>
</g>
<!-- Node14&#45;&gt;Node15 -->
<g id="edge15_Node000014_Node000015" class="edge">
<title>Node14&#45;&gt;Node15</title>
<g id="a_edge15_Node000014_Node000015"><a xlink:title=" ">
<path fill="none" stroke="#63b8ff" d="M277.84,-33.94C302.74,-29.21 332.68,-23.52 357.41,-18.82"/>
<polygon fill="#63b8ff" stroke="#63b8ff" points="358.14,-22.25 367.31,-16.94 356.83,-15.37 358.14,-22.25"/>
</a>
</g>
</g>
<!-- Node16 -->
<g id="Node000016" class="node">
<title>Node16</title>
<g id="a_Node000016"><a xlink:href="guMtxF2L_8c.html#a40ab2d64c609839ff1e0ef0de2d0dcc4" target="_top" xlink:title=" ">
<polygon fill="white" stroke="#666666" points="582,-19 517,-19 517,0 582,0 582,-19"/>
<text text-anchor="middle" x="549.5" y="-7" font-family="Helvetica,sans-Serif" font-size="10.00">guMtxF2L</text>
</a>
</g>
</g>
<!-- Node15&#45;&gt;Node16 -->
<g id="edge16_Node000015_Node000016" class="edge">
<title>Node15&#45;&gt;Node16</title>
<g id="a_edge16_Node000015_Node000016"><a xlink:title=" ">
<path fill="none" stroke="#63b8ff" d="M447.87,-9.5C466.29,-9.5 488.25,-9.5 506.94,-9.5"/>
<polygon fill="#63b8ff" stroke="#63b8ff" points="506.94,-13 516.94,-9.5 506.94,-6 506.94,-13"/>
</a>
</g>
</g>
</g>
</svg>

<g id="navigator" transform="translate(0 0)" fill="#404254">
  <rect fill="#f2f5e9" fill-opacity="0.5" stroke="#606060" stroke-width=".5" x="0" y="0" width="60" height="60"/>
  <use id="zoomplus" xlink:href="#zoomPlus" x="17" y="9" onmousedown="handleZoom(evt,'in')"/>
  <use id="zoomminus" xlink:href="#zoomMin" x="42" y="9" onmousedown="handleZoom(evt,'out')"/>
  <use id="reset" xlink:href="#resetDef" x="30" y="36" onmousedown="handleReset()"/>
   <use id="arrowup" xlink:href="#arrowUp" x="0" y="0" onmousedown="handlePan(0,-1)"/>
  <use id="arrowright" xlink:href="#arrowRight" x="0" y="0" onmousedown="handlePan(1,0)"/>
  <use id="arrowdown" xlink:href="#arrowDown" x="0" y="0" onmousedown="handlePan(0,1)"/>
  <use id="arrowleft" xlink:href="#arrowLeft" x="0" y="0" onmousedown="handlePan(-1,0)"/>
</g>
<svg viewBox="0 0 15 15" width="100%" height="30px" preserveAspectRatio="xMaxYMin meet">
 <g id="arrow_out" transform="scale(0.3 0.3)">
  <a xlink:href="actors_8c_ac3081ff11d8481c9ce596f5ad4e35d64_cgraph_org.svg" target="_base">
   <rect id="button" ry="5" rx="5" y="6" x="6" height="38" width="38"
        fill="#f2f5e9" fill-opacity="0.5" stroke="#606060" stroke-width="1.0"/>
   <path id="arrow"
     d="M 11.500037,31.436501 C 11.940474,20.09759 22.043105,11.32322 32.158766,21.979434 L 37.068811,17.246167 C 37.068811,17.246167 37.088388,32 37.088388,32 L 22.160133,31.978069 C 22.160133,31.978069 26.997745,27.140456 26.997745,27.140456 C 18.528582,18.264221 13.291696,25.230495 11.500037,31.436501 z"
     style="fill:#404040;"/>
  </a>
 </g>
</svg>

<style type='text/css'>
<![CDATA[
[data-mouse-over-selected='false'] { opacity: 0.7; }
[data-mouse-over-selected='true']  { opacity: 1.0; }
]]>
</style>
<script type="application/ecmascript"><![CDATA[
document.addEventListener('DOMContentLoaded', (event) => {
  highlightEdges();
  highlightAdjacentNodes();
});
]]></script>
</svg>
