<?xml version="1.0" encoding="UTF-8" standalone="no"?>
<!DOCTYPE svg PUBLIC "-//W3C//DTD SVG 1.1//EN"
 "http://www.w3.org/Graphics/SVG/1.1/DTD/svg11.dtd">
<!-- Generated by graphviz version 2.43.0 (0)
 -->
<!-- Title: func_802A14BC Pages: 1 -->
<svg width="1846pt" height="142pt"
 viewBox="0.00 0.00 1846.00 142.00" xmlns="http://www.w3.org/2000/svg" xmlns:xlink="http://www.w3.org/1999/xlink">
<g id="graph0" class="graph" transform="scale(1 1) rotate(0) translate(4 138)">
<title>func_802A14BC</title>
<polygon fill="white" stroke="transparent" points="-4,4 -4,-138 1842,-138 1842,4 -4,4"/>
<!-- Node1 -->
<g id="node1" class="node">
<title>Node1</title>
<g id="a_node1"><a xlink:title=" ">
<polygon fill="#bfbfbf" stroke="black" points="1745,-19.5 1745,-38.5 1838,-38.5 1838,-19.5 1745,-19.5"/>
<text text-anchor="middle" x="1791.5" y="-26.5" font-family="Helvetica,sans-Serif" font-size="10.00">func_802A14BC</text>
</a>
</g>
</g>
<!-- Node2 -->
<g id="node2" class="node">
<title>Node2</title>
<g id="a_node2"><a xlink:href="code__80071F00_8c.html#a806e6af277fada5fa247a77e068fbf22" target="_top" xlink:title=" ">
<polygon fill="white" stroke="black" points="1604.5,-38.5 1604.5,-57.5 1697.5,-57.5 1697.5,-38.5 1604.5,-38.5"/>
<text text-anchor="middle" x="1651" y="-45.5" font-family="Helvetica,sans-Serif" font-size="10.00">func_800853DC</text>
</a>
</g>
</g>
<!-- Node1&#45;&gt;Node2 -->
<g id="edge1" class="edge">
<title>Node1&#45;&gt;Node2</title>
<path fill="none" stroke="midnightblue" d="M1734.63,-36.66C1722.36,-38.35 1709.5,-40.11 1697.69,-41.73"/>
<polygon fill="midnightblue" stroke="midnightblue" points="1735.33,-40.1 1744.77,-35.27 1734.38,-33.17 1735.33,-40.1"/>
</g>
<!-- Node17 -->
<g id="node17" class="node">
<title>Node17</title>
<g id="a_node17"><a xlink:href="actors_8c.html#a09880e8065960d2bbd0585409a4831a7" target="_top" xlink:title=" ">
<polygon fill="white" stroke="black" points="1593,-0.5 1593,-19.5 1709,-19.5 1709,-0.5 1593,-0.5"/>
<text text-anchor="middle" x="1651" y="-7.5" font-family="Helvetica,sans-Serif" font-size="10.00">place_course_actors</text>
</a>
</g>
</g>
<!-- Node1&#45;&gt;Node17 -->
<g id="edge19" class="edge">
<title>Node1&#45;&gt;Node17</title>
<path fill="none" stroke="midnightblue" d="M1734.72,-21.35C1726.35,-20.2 1717.7,-19.01 1709.3,-17.86"/>
<polygon fill="midnightblue" stroke="midnightblue" points="1734.38,-24.83 1744.77,-22.73 1735.33,-17.9 1734.38,-24.83"/>
</g>
<!-- Node3 -->
<g id="node3" class="node">
<title>Node3</title>
<g id="a_node3"><a xlink:href="code__80071F00_8c.html#a3ca574297b43f7a7b8c467d5030271f2" target="_top" xlink:title=" ">
<polygon fill="white" stroke="black" points="1466,-38.5 1466,-57.5 1557,-57.5 1557,-38.5 1466,-38.5"/>
<text text-anchor="middle" x="1511.5" y="-45.5" font-family="Helvetica,sans-Serif" font-size="10.00">func_80085768</text>
</a>
</g>
</g>
<!-- Node2&#45;&gt;Node3 -->
<g id="edge2" class="edge">
<title>Node2&#45;&gt;Node3</title>
<path fill="none" stroke="midnightblue" d="M1594.06,-48C1581.78,-48 1568.92,-48 1557.15,-48"/>
<polygon fill="midnightblue" stroke="midnightblue" points="1594.21,-51.5 1604.21,-48 1594.21,-44.5 1594.21,-51.5"/>
</g>
<!-- Node4 -->
<g id="node4" class="node">
<title>Node4</title>
<g id="a_node4"><a xlink:href="code__80071F00_8c.html#a380f5746fe84ee8e299633851cb82e65" target="_top" xlink:title=" ">
<polygon fill="white" stroke="black" points="1338,-38.5 1338,-57.5 1430,-57.5 1430,-38.5 1338,-38.5"/>
<text text-anchor="middle" x="1384" y="-45.5" font-family="Helvetica,sans-Serif" font-size="10.00">func_800857C0</text>
</a>
</g>
</g>
<!-- Node3&#45;&gt;Node4 -->
<g id="edge3" class="edge">
<title>Node3&#45;&gt;Node4</title>
<path fill="none" stroke="midnightblue" d="M1455.7,-48C1447.22,-48 1438.54,-48 1430.3,-48"/>
<polygon fill="midnightblue" stroke="midnightblue" points="1455.9,-51.5 1465.9,-48 1455.9,-44.5 1455.9,-51.5"/>
</g>
<!-- Node5 -->
<g id="node5" class="node">
<title>Node5</title>
<g id="a_node5"><a xlink:href="code__80057C60_8c.html#a3de7d81d0ab030980ab3b2ea5bcf901e" target="_top" xlink:title=" ">
<polygon fill="white" stroke="black" points="1210,-38.5 1210,-57.5 1302,-57.5 1302,-38.5 1210,-38.5"/>
<text text-anchor="middle" x="1256" y="-45.5" font-family="Helvetica,sans-Serif" font-size="10.00">func_8005A74C</text>
</a>
</g>
</g>
<!-- Node4&#45;&gt;Node5 -->
<g id="edge4" class="edge">
<title>Node4&#45;&gt;Node5</title>
<path fill="none" stroke="midnightblue" d="M1327.65,-48C1319.16,-48 1310.48,-48 1302.24,-48"/>
<polygon fill="midnightblue" stroke="midnightblue" points="1327.87,-51.5 1337.87,-48 1327.87,-44.5 1327.87,-51.5"/>
</g>
<!-- Node6 -->
<g id="node6" class="node">
<title>Node6</title>
<g id="a_node6"><a xlink:href="code__80057C60_8c.html#a48f7fc1ba7acccec2d7b6e0a59f65dc5" target="_top" xlink:title=" ">
<polygon fill="white" stroke="black" points="1074,-76.5 1074,-95.5 1166,-95.5 1166,-76.5 1074,-76.5"/>
<text text-anchor="middle" x="1120" y="-83.5" font-family="Helvetica,sans-Serif" font-size="10.00">func_80059D00</text>
</a>
</g>
</g>
<!-- Node5&#45;&gt;Node6 -->
<g id="edge5" class="edge">
<title>Node5&#45;&gt;Node6</title>
<path fill="none" stroke="midnightblue" d="M1211.56,-60.32C1193.15,-65.54 1172.02,-71.53 1154.8,-76.41"/>
<polygon fill="midnightblue" stroke="midnightblue" points="1212.52,-63.68 1221.19,-57.59 1210.61,-56.95 1212.52,-63.68"/>
</g>
<!-- Node7 -->
<g id="node7" class="node">
<title>Node7</title>
<g id="a_node7"><a xlink:href="code__80057C60_8c.html#a86b7dba9c0715c4d7fdf8ce61c0738bc" target="_top" xlink:title=" ">
<polygon fill="white" stroke="black" points="938,-76.5 938,-95.5 1030,-95.5 1030,-76.5 938,-76.5"/>
<text text-anchor="middle" x="984" y="-83.5" font-family="Helvetica,sans-Serif" font-size="10.00">func_8005A070</text>
</a>
</g>
</g>
<!-- Node5&#45;&gt;Node7 -->
<g id="edge18" class="edge">
<title>Node5&#45;&gt;Node7</title>
<path fill="none" stroke="midnightblue" d="M1199.43,-51.67C1161.64,-54.64 1110.6,-59.56 1066,-67 1051.18,-69.47 1035.04,-73.07 1021.09,-76.47"/>
<polygon fill="midnightblue" stroke="midnightblue" points="1200.01,-55.14 1209.72,-50.89 1199.48,-48.16 1200.01,-55.14"/>
</g>
<!-- Node6&#45;&gt;Node7 -->
<g id="edge6" class="edge">
<title>Node6&#45;&gt;Node7</title>
<path fill="none" stroke="midnightblue" d="M1063.62,-86C1052.53,-86 1041.01,-86 1030.32,-86"/>
<polygon fill="midnightblue" stroke="midnightblue" points="1063.63,-89.5 1073.63,-86 1063.63,-82.5 1063.63,-89.5"/>
</g>
<!-- Node8 -->
<g id="node8" class="node">
<title>Node8</title>
<g id="a_node8"><a xlink:href="code__80280000_8c.html#a4d9b0156b64d7a67e4cb21cde391ca43" target="_top" xlink:title=" ">
<polygon fill="white" stroke="black" points="810.5,-114.5 810.5,-133.5 901.5,-133.5 901.5,-114.5 810.5,-114.5"/>
<text text-anchor="middle" x="856" y="-121.5" font-family="Helvetica,sans-Serif" font-size="10.00">func_80280000</text>
</a>
</g>
</g>
<!-- Node7&#45;&gt;Node8 -->
<g id="edge7" class="edge">
<title>Node7&#45;&gt;Node8</title>
<path fill="none" stroke="midnightblue" d="M941.44,-98.54C924.29,-103.7 904.75,-109.6 888.78,-114.41"/>
<polygon fill="midnightblue" stroke="midnightblue" points="942.64,-101.83 951.2,-95.59 940.62,-95.13 942.64,-101.83"/>
</g>
<!-- Node15 -->
<g id="node15" class="node">
<title>Node15</title>
<g id="a_node15"><a xlink:href="podium__ceremony__actors_8c.html#a7ea229c65f264670fc828b95e8321154" target="_top" xlink:title=" ">
<polygon fill="white" stroke="black" points="640,-76.5 640,-95.5 774,-95.5 774,-76.5 640,-76.5"/>
<text text-anchor="middle" x="707" y="-83.5" font-family="Helvetica,sans-Serif" font-size="10.00">podium_ceremony_loop</text>
</a>
</g>
</g>
<!-- Node7&#45;&gt;Node15 -->
<g id="edge14" class="edge">
<title>Node7&#45;&gt;Node15</title>
<path fill="none" stroke="midnightblue" d="M927.89,-86C883.59,-86 821.22,-86 774.22,-86"/>
<polygon fill="midnightblue" stroke="midnightblue" points="927.9,-89.5 937.9,-86 927.9,-82.5 927.9,-89.5"/>
</g>
<!-- Node16 -->
<g id="node16" class="node">
<title>Node16</title>
<g id="a_node16"><a xlink:href="main_8c.html#afff87ffcbfee4f1f37d443110aa7b52a" target="_top" xlink:title=" ">
<polygon fill="white" stroke="black" points="810,-38.5 810,-57.5 902,-57.5 902,-38.5 810,-38.5"/>
<text text-anchor="middle" x="856" y="-45.5" font-family="Helvetica,sans-Serif" font-size="10.00">race_logic_loop</text>
</a>
</g>
</g>
<!-- Node7&#45;&gt;Node16 -->
<g id="edge16" class="edge">
<title>Node7&#45;&gt;Node16</title>
<path fill="none" stroke="midnightblue" d="M941.44,-73.46C924.29,-68.3 904.75,-62.4 888.78,-57.59"/>
<polygon fill="midnightblue" stroke="midnightblue" points="940.62,-76.87 951.2,-76.41 942.64,-70.17 940.62,-76.87"/>
</g>
<!-- Node9 -->
<g id="node9" class="node">
<title>Node9</title>
<g id="a_node9"><a xlink:href="code__80280000_8c.html#aa28a69be4eda3b8667366c6c7b556024" target="_top" xlink:title=" ">
<polygon fill="white" stroke="black" points="669,-114.5 669,-133.5 745,-133.5 745,-114.5 669,-114.5"/>
<text text-anchor="middle" x="707" y="-121.5" font-family="Helvetica,sans-Serif" font-size="10.00">credits_loop</text>
</a>
</g>
</g>
<!-- Node8&#45;&gt;Node9 -->
<g id="edge8" class="edge">
<title>Node8&#45;&gt;Node9</title>
<path fill="none" stroke="midnightblue" d="M800.26,-124C781.99,-124 762.06,-124 745.42,-124"/>
<polygon fill="midnightblue" stroke="midnightblue" points="800.5,-127.5 810.5,-124 800.5,-120.5 800.5,-127.5"/>
</g>
<!-- Node10 -->
<g id="node10" class="node">
<title>Node10</title>
<g id="a_node10"><a xlink:href="main_8c.html#ae04143ce8113cdafa007c642eb620bc8" target="_top" xlink:title=" ">
<polygon fill="white" stroke="black" points="488,-57.5 488,-76.5 604,-76.5 604,-57.5 488,-57.5"/>
<text text-anchor="middle" x="546" y="-64.5" font-family="Helvetica,sans-Serif" font-size="10.00">game_state_handler</text>
</a>
</g>
</g>
<!-- Node9&#45;&gt;Node10 -->
<g id="edge9" class="edge">
<title>Node9&#45;&gt;Node10</title>
<path fill="none" stroke="midnightblue" d="M660.28,-111.53C653.44,-109.47 646.51,-107.26 640,-105 615.12,-96.36 587.23,-84.69 568.54,-76.58"/>
<polygon fill="midnightblue" stroke="midnightblue" points="659.58,-114.97 670.16,-114.44 661.55,-108.26 659.58,-114.97"/>
</g>
<!-- Node11 -->
<g id="node11" class="node">
<title>Node11</title>
<g id="a_node11"><a xlink:href="main_8c.html#a633ed517e458daeb768f5361895dcac9" target="_top" xlink:title=" ">
<polygon fill="white" stroke="black" points="339,-19.5 339,-38.5 452,-38.5 452,-19.5 339,-19.5"/>
<text text-anchor="middle" x="395.5" y="-26.5" font-family="Helvetica,sans-Serif" font-size="10.00">thread5_game_loop</text>
</a>
</g>
</g>
<!-- Node10&#45;&gt;Node11 -->
<g id="edge10" class="edge">
<title>Node10&#45;&gt;Node11</title>
<path fill="none" stroke="midnightblue" d="M497.67,-54.89C476.99,-49.6 453.08,-43.48 433.7,-38.52"/>
<polygon fill="midnightblue" stroke="midnightblue" points="496.97,-58.32 507.53,-57.41 498.71,-51.54 496.97,-58.32"/>
</g>
<!-- Node12 -->
<g id="node12" class="node">
<title>Node12</title>
<g id="a_node12"><a xlink:href="main_8c.html#a023b8f272e4efbd33f371e91ffff6b30" target="_top" xlink:title=" ">
<polygon fill="white" stroke="black" points="217,-19.5 217,-38.5 303,-38.5 303,-19.5 217,-19.5"/>
<text text-anchor="middle" x="260" y="-26.5" font-family="Helvetica,sans-Serif" font-size="10.00">thread3_video</text>
</a>
</g>
</g>
<!-- Node11&#45;&gt;Node12 -->
<g id="edge11" class="edge">
<title>Node11&#45;&gt;Node12</title>
<path fill="none" stroke="midnightblue" d="M328.57,-29C319.94,-29 311.3,-29 303.21,-29"/>
<polygon fill="midnightblue" stroke="midnightblue" points="328.66,-32.5 338.66,-29 328.66,-25.5 328.66,-32.5"/>
</g>
<!-- Node13 -->
<g id="node13" class="node">
<title>Node13</title>
<g id="a_node13"><a xlink:href="main_8c.html#a1e35d2b842121e6aea373f09381616e5" target="_top" xlink:title=" ">
<polygon fill="white" stroke="black" points="104,-19.5 104,-38.5 181,-38.5 181,-19.5 104,-19.5"/>
<text text-anchor="middle" x="142.5" y="-26.5" font-family="Helvetica,sans-Serif" font-size="10.00">thread1_idle</text>
</a>
</g>
</g>
<!-- Node12&#45;&gt;Node13 -->
<g id="edge12" class="edge">
<title>Node12&#45;&gt;Node13</title>
<path fill="none" stroke="midnightblue" d="M206.9,-29C198.2,-29 189.33,-29 181.09,-29"/>
<polygon fill="midnightblue" stroke="midnightblue" points="206.98,-32.5 216.98,-29 206.98,-25.5 206.98,-32.5"/>
</g>
<!-- Node14 -->
<g id="node14" class="node">
<title>Node14</title>
<g id="a_node14"><a xlink:href="main_8c.html#a4f87d43525fe95f60ea92bc8a3b70e62" target="_top" xlink:title=" ">
<polygon fill="white" stroke="black" points="0,-19.5 0,-38.5 68,-38.5 68,-19.5 0,-19.5"/>
<text text-anchor="middle" x="34" y="-26.5" font-family="Helvetica,sans-Serif" font-size="10.00">main_func</text>
</a>
</g>
</g>
<!-- Node13&#45;&gt;Node14 -->
<g id="edge13" class="edge">
<title>Node13&#45;&gt;Node14</title>
<path fill="none" stroke="midnightblue" d="M93.95,-29C85.29,-29 76.44,-29 68.31,-29"/>
<polygon fill="midnightblue" stroke="midnightblue" points="93.95,-32.5 103.95,-29 93.95,-25.5 93.95,-32.5"/>
</g>
<!-- Node15&#45;&gt;Node10 -->
<g id="edge15" class="edge">
<title>Node15&#45;&gt;Node10</title>
<path fill="none" stroke="midnightblue" d="M629.87,-76.9C621.24,-75.87 612.56,-74.83 604.24,-73.84"/>
<polygon fill="midnightblue" stroke="midnightblue" points="629.61,-80.4 639.95,-78.11 630.44,-73.45 629.61,-80.4"/>
</g>
<!-- Node16&#45;&gt;Node10 -->
<g id="edge17" class="edge">
<title>Node16&#45;&gt;Node10</title>
<path fill="none" stroke="midnightblue" d="M799.58,-51.42C744.32,-54.83 659.85,-60.04 604.03,-63.48"/>
<polygon fill="midnightblue" stroke="midnightblue" points="800.12,-54.89 809.88,-50.78 799.69,-47.91 800.12,-54.89"/>
</g>
<!-- Node18 -->
<g id="node18" class="node">
<title>Node18</title>
<g id="a_node18"><a xlink:href="actors_8c.html#ad4c7671a474d355b39c737fdf54caffc" target="_top" xlink:title=" ">
<polygon fill="white" stroke="black" points="1466,-0.5 1466,-19.5 1557,-19.5 1557,-0.5 1466,-0.5"/>
<text text-anchor="middle" x="1511.5" y="-7.5" font-family="Helvetica,sans-Serif" font-size="10.00">func_8029E158</text>
</a>
</g>
</g>
<!-- Node17&#45;&gt;Node18 -->
<g id="edge20" class="edge">
<title>Node17&#45;&gt;Node18</title>
<path fill="none" stroke="midnightblue" d="M1582.72,-10C1574.01,-10 1565.28,-10 1557.08,-10"/>
<polygon fill="midnightblue" stroke="midnightblue" points="1582.88,-13.5 1592.88,-10 1582.88,-6.5 1582.88,-13.5"/>
</g>
<!-- Node19 -->
<g id="node19" class="node">
<title>Node19</title>
<g id="a_node19"><a xlink:href="code__800029B0_8c.html#aca6165112fc92e65ad6477e785a7098c" target="_top" xlink:title=" ">
<polygon fill="white" stroke="black" points="1349,-0.5 1349,-19.5 1419,-19.5 1419,-0.5 1349,-0.5"/>
<text text-anchor="middle" x="1384" y="-7.5" font-family="Helvetica,sans-Serif" font-size="10.00">setup_race</text>
</a>
</g>
</g>
<!-- Node18&#45;&gt;Node19 -->
<g id="edge21" class="edge">
<title>Node18&#45;&gt;Node19</title>
<path fill="none" stroke="midnightblue" d="M1455.64,-10C1443.25,-10 1430.45,-10 1419.2,-10"/>
<polygon fill="midnightblue" stroke="midnightblue" points="1455.9,-13.5 1465.9,-10 1455.9,-6.5 1455.9,-13.5"/>
</g>
<!-- Node20 -->
<g id="node20" class="node">
<title>Node20</title>
<g id="a_node20"><a xlink:href="main_8c.html#ad0625ed56ac663d3ec7ae8f1ba50c735" target="_top" xlink:title=" ">
<polygon fill="white" stroke="black" points="1066,-0.5 1066,-19.5 1174,-19.5 1174,-0.5 1066,-0.5"/>
<text text-anchor="middle" x="1120" y="-7.5" font-family="Helvetica,sans-Serif" font-size="10.00">update_gamestate</text>
</a>
</g>
</g>
<!-- Node19&#45;&gt;Node20 -->
<g id="edge22" class="edge">
<title>Node19&#45;&gt;Node20</title>
<path fill="none" stroke="midnightblue" d="M1338.62,-10C1293.24,-10 1222.72,-10 1174.34,-10"/>
<polygon fill="midnightblue" stroke="midnightblue" points="1338.75,-13.5 1348.75,-10 1338.75,-6.5 1338.75,-13.5"/>
</g>
<!-- Node20&#45;&gt;Node11 -->
<g id="edge23" class="edge">
<title>Node20&#45;&gt;Node11</title>
<path fill="none" stroke="midnightblue" d="M1055.54,-10C1002.48,-10 924.8,-10 857,-10 857,-10 857,-10 706,-10 617.04,-10 513.97,-17.92 452.07,-23.53"/>
<polygon fill="midnightblue" stroke="midnightblue" points="1055.81,-13.5 1065.81,-10 1055.81,-6.5 1055.81,-13.5"/>
</g>
</g>
</svg>
