<?xml version="1.0" encoding="UTF-8" standalone="no"?>
<!DOCTYPE svg PUBLIC "-//W3C//DTD SVG 1.1//EN"
 "http://www.w3.org/Graphics/SVG/1.1/DTD/svg11.dtd">
<!-- Generated by graphviz version 2.43.0 (0)
 -->
<!-- Title: render_actor_cow Pages: 1 -->
<svg width="692pt" height="154pt"
 viewBox="0.00 0.00 692.00 154.00" xmlns="http://www.w3.org/2000/svg" xmlns:xlink="http://www.w3.org/1999/xlink">
<g id="graph0" class="graph" transform="scale(1 1) rotate(0) translate(4 150)">
<title>render_actor_cow</title>
<polygon fill="white" stroke="transparent" points="-4,4 -4,-150 688,-150 688,4 -4,4"/>
<!-- Node1 -->
<g id="node1" class="node">
<title>Node1</title>
<g id="a_node1"><a xlink:title=" ">
<polygon fill="#bfbfbf" stroke="black" points="0,-44.5 0,-63.5 103,-63.5 103,-44.5 0,-44.5"/>
<text text-anchor="middle" x="51.5" y="-51.5" font-family="Helvetica,sans-Serif" font-size="10.00">render_actor_cow</text>
</a>
</g>
</g>
<!-- Node2 -->
<g id="node2" class="node">
<title>Node2</title>
<g id="a_node2"><a xlink:href="math__util_8c.html#a5e1d12b8745a8d5f8d73ab366328d3cd" target="_top" xlink:title=" ">
<polygon fill="white" stroke="black" points="139,-66.5 139,-85.5 282,-85.5 282,-66.5 139,-66.5"/>
<text text-anchor="middle" x="210.5" y="-73.5" font-family="Helvetica,sans-Serif" font-size="10.00">is_within_render_distance</text>
</a>
</g>
</g>
<!-- Node1&#45;&gt;Node2 -->
<g id="edge1" class="edge">
<title>Node1&#45;&gt;Node2</title>
<path fill="none" stroke="midnightblue" d="M103.04,-61.08C112.15,-62.36 121.85,-63.72 131.53,-65.07"/>
<polygon fill="midnightblue" stroke="midnightblue" points="131.2,-68.56 141.59,-66.48 132.17,-61.63 131.2,-68.56"/>
</g>
<!-- Node9 -->
<g id="node9" class="node">
<title>Node9</title>
<g id="a_node9"><a xlink:href="math__util_8c.html#aa23f6384122bc45f13a81ef0fa86c099" target="_top" xlink:title=" ">
<polygon fill="white" stroke="black" points="154,-25.5 154,-44.5 267,-44.5 267,-25.5 154,-25.5"/>
<text text-anchor="middle" x="210.5" y="-32.5" font-family="Helvetica,sans-Serif" font-size="10.00">render_set_position</text>
</a>
</g>
</g>
<!-- Node1&#45;&gt;Node9 -->
<g id="edge9" class="edge">
<title>Node1&#45;&gt;Node9</title>
<path fill="none" stroke="midnightblue" d="M103.04,-47.88C115.97,-46.32 130.06,-44.61 143.64,-42.97"/>
<polygon fill="midnightblue" stroke="midnightblue" points="144.38,-46.41 153.89,-41.73 143.54,-39.46 144.38,-46.41"/>
</g>
<!-- Node3 -->
<g id="node3" class="node">
<title>Node3</title>
<g id="a_node3"><a xlink:href="math__util_8c.html#a07a66adf3458c156c7961b983983627a" target="_top" xlink:title=" ">
<polygon fill="white" stroke="black" points="345,-88.5 345,-107.5 438,-107.5 438,-88.5 345,-88.5"/>
<text text-anchor="middle" x="391.5" y="-95.5" font-family="Helvetica,sans-Serif" font-size="10.00">func_802B7CA8</text>
</a>
</g>
</g>
<!-- Node2&#45;&gt;Node3 -->
<g id="edge2" class="edge">
<title>Node2&#45;&gt;Node3</title>
<path fill="none" stroke="midnightblue" d="M282.25,-84.69C299.73,-86.84 318.2,-89.11 334.85,-91.16"/>
<polygon fill="midnightblue" stroke="midnightblue" points="334.6,-94.66 344.95,-92.4 335.46,-87.71 334.6,-94.66"/>
</g>
<!-- Node7 -->
<g id="node7" class="node">
<title>Node7</title>
<g id="a_node7"><a xlink:href="math__util_8c.html#a4eb407fa2be7c74a12fb7ffe8307148a" target="_top" xlink:title=" ">
<polygon fill="white" stroke="black" points="318,-126.5 318,-145.5 465,-145.5 465,-126.5 318,-126.5"/>
<text text-anchor="middle" x="391.5" y="-133.5" font-family="Helvetica,sans-Serif" font-size="10.00">get_angle_between_points</text>
</a>
</g>
</g>
<!-- Node2&#45;&gt;Node7 -->
<g id="edge6" class="edge">
<title>Node2&#45;&gt;Node7</title>
<path fill="none" stroke="midnightblue" d="M234.09,-85.54C255.47,-94.37 288.58,-107.52 318,-117 325.4,-119.39 333.3,-121.69 341.06,-123.83"/>
<polygon fill="midnightblue" stroke="midnightblue" points="340.2,-127.22 350.76,-126.44 342.01,-120.46 340.2,-127.22"/>
</g>
<!-- Node8 -->
<g id="node8" class="node">
<title>Node8</title>
<g id="a_node8"><a xlink:href="math__util_8c.html#a3eb0db0895b2c11953df746ce49b782e" target="_top" xlink:title=" ">
<polygon fill="white" stroke="black" points="336.5,-39 336.5,-69 446.5,-69 446.5,-39 336.5,-39"/>
<text text-anchor="start" x="344.5" y="-57" font-family="Helvetica,sans-Serif" font-size="10.00">is_visible_between</text>
<text text-anchor="middle" x="391.5" y="-46" font-family="Helvetica,sans-Serif" font-size="10.00">_angle</text>
</a>
</g>
</g>
<!-- Node2&#45;&gt;Node8 -->
<g id="edge8" class="edge">
<title>Node2&#45;&gt;Node8</title>
<path fill="none" stroke="midnightblue" d="M282.25,-67.31C296.71,-65.53 311.87,-63.66 326.1,-61.92"/>
<polygon fill="midnightblue" stroke="midnightblue" points="326.78,-65.36 336.28,-60.66 325.93,-58.41 326.78,-65.36"/>
</g>
<!-- Node4 -->
<g id="node4" class="node">
<title>Node4</title>
<g id="a_node4"><a xlink:href="math__util_8c.html#aaa39a297477f56051975259f4bddd829" target="_top" xlink:title=" ">
<polygon fill="white" stroke="black" points="508.5,-126.5 508.5,-145.5 558.5,-145.5 558.5,-126.5 508.5,-126.5"/>
<text text-anchor="middle" x="533.5" y="-133.5" font-family="Helvetica,sans-Serif" font-size="10.00">atan2s</text>
</a>
</g>
</g>
<!-- Node3&#45;&gt;Node4 -->
<g id="edge3" class="edge">
<title>Node3&#45;&gt;Node4</title>
<path fill="none" stroke="midnightblue" d="M429.42,-107.54C440.84,-110.52 453.45,-113.86 465,-117 475.95,-119.98 487.88,-123.3 498.61,-126.33"/>
<polygon fill="midnightblue" stroke="midnightblue" points="497.9,-129.77 508.47,-129.12 499.81,-123.03 497.9,-129.77"/>
</g>
<!-- Node6 -->
<g id="node6" class="node">
<title>Node6</title>
<g id="a_node6"><a xlink:href="math_8h.html#a37bde043e94a6f074c78f10518fb5d99" target="_top" xlink:title=" ">
<polygon fill="white" stroke="black" points="514,-88.5 514,-107.5 553,-107.5 553,-88.5 514,-88.5"/>
<text text-anchor="middle" x="533.5" y="-95.5" font-family="Helvetica,sans-Serif" font-size="10.00">sqrtf</text>
</a>
</g>
</g>
<!-- Node3&#45;&gt;Node6 -->
<g id="edge5" class="edge">
<title>Node3&#45;&gt;Node6</title>
<path fill="none" stroke="midnightblue" d="M438.34,-98C459.91,-98 484.96,-98 503.8,-98"/>
<polygon fill="midnightblue" stroke="midnightblue" points="503.83,-101.5 513.83,-98 503.83,-94.5 503.83,-101.5"/>
</g>
<!-- Node5 -->
<g id="node5" class="node">
<title>Node5</title>
<g id="a_node5"><a xlink:href="math__util_8c.html#a0273b0ea0783a06996c28669a7438ed9" target="_top" xlink:title=" ">
<polygon fill="white" stroke="black" points="602,-126.5 602,-145.5 684,-145.5 684,-126.5 602,-126.5"/>
<text text-anchor="middle" x="643" y="-133.5" font-family="Helvetica,sans-Serif" font-size="10.00">atan2_lookup</text>
</a>
</g>
</g>
<!-- Node4&#45;&gt;Node5 -->
<g id="edge4" class="edge">
<title>Node4&#45;&gt;Node5</title>
<path fill="none" stroke="midnightblue" d="M558.63,-136C568.49,-136 580.29,-136 591.86,-136"/>
<polygon fill="midnightblue" stroke="midnightblue" points="591.92,-139.5 601.92,-136 591.92,-132.5 591.92,-139.5"/>
</g>
<!-- Node7&#45;&gt;Node4 -->
<g id="edge7" class="edge">
<title>Node7&#45;&gt;Node4</title>
<path fill="none" stroke="midnightblue" d="M465.37,-136C476.79,-136 488.1,-136 498.1,-136"/>
<polygon fill="midnightblue" stroke="midnightblue" points="498.37,-139.5 508.37,-136 498.37,-132.5 498.37,-139.5"/>
</g>
<!-- Node10 -->
<g id="node10" class="node">
<title>Node10</title>
<g id="a_node10"><a xlink:href="math__util_8c.html#a32af0f217114736291c9ca6689138b81" target="_top" xlink:title=" ">
<polygon fill="white" stroke="black" points="351.5,-0.5 351.5,-19.5 431.5,-19.5 431.5,-0.5 351.5,-0.5"/>
<text text-anchor="middle" x="391.5" y="-7.5" font-family="Helvetica,sans-Serif" font-size="10.00">mtxf_to_mtx</text>
</a>
</g>
</g>
<!-- Node9&#45;&gt;Node10 -->
<g id="edge10" class="edge">
<title>Node9&#45;&gt;Node10</title>
<path fill="none" stroke="midnightblue" d="M267.16,-27.23C290.83,-23.92 318.21,-20.1 341.15,-16.89"/>
<polygon fill="midnightblue" stroke="midnightblue" points="341.93,-20.32 351.35,-15.47 340.96,-13.39 341.93,-20.32"/>
</g>
<!-- Node11 -->
<g id="node11" class="node">
<title>Node11</title>
<g id="a_node11"><a xlink:href="guMtxF2L_8c.html#a40ab2d64c609839ff1e0ef0de2d0dcc4" target="_top" xlink:title=" ">
<polygon fill="white" stroke="black" points="501,-0.5 501,-19.5 566,-19.5 566,-0.5 501,-0.5"/>
<text text-anchor="middle" x="533.5" y="-7.5" font-family="Helvetica,sans-Serif" font-size="10.00">guMtxF2L</text>
</a>
</g>
</g>
<!-- Node10&#45;&gt;Node11 -->
<g id="edge11" class="edge">
<title>Node10&#45;&gt;Node11</title>
<path fill="none" stroke="midnightblue" d="M431.87,-10C450.29,-10 472.25,-10 490.94,-10"/>
<polygon fill="midnightblue" stroke="midnightblue" points="490.94,-13.5 500.94,-10 490.94,-6.5 490.94,-13.5"/>
</g>
</g>
</svg>
