<?xml version="1.0" encoding="UTF-8" standalone="no"?>
<!DOCTYPE svg PUBLIC "-//W3C//DTD SVG 1.1//EN"
 "http://www.w3.org/Graphics/SVG/1.1/DTD/svg11.dtd">
<!-- Generated by graphviz version 2.43.0 (0)
 -->
<!-- Title: func_802A0E44 Pages: 1 -->
<svg width="962pt" height="256pt"
 viewBox="0.00 0.00 962.00 256.00" xmlns="http://www.w3.org/2000/svg" xmlns:xlink="http://www.w3.org/1999/xlink">
<g id="graph0" class="graph" transform="scale(1 1) rotate(0) translate(4 252)">
<title>func_802A0E44</title>
<polygon fill="white" stroke="transparent" points="-4,4 -4,-252 958,-252 958,4 -4,4"/>
<!-- Node1 -->
<g id="node1" class="node">
<title>Node1</title>
<g id="a_node1"><a xlink:title=" ">
<polygon fill="#bfbfbf" stroke="black" points="0,-161.5 0,-180.5 92,-180.5 92,-161.5 0,-161.5"/>
<text text-anchor="middle" x="46" y="-168.5" font-family="Helvetica,sans-Serif" font-size="10.00">func_802A0E44</text>
</a>
</g>
</g>
<!-- Node2 -->
<g id="node2" class="node">
<title>Node2</title>
<g id="a_node2"><a xlink:href="actors_8c.html#a0fff2a94adce284fb6e2ef36de0ba5a6" target="_top" xlink:title=" ">
<polygon fill="white" stroke="black" points="128,-161.5 128,-180.5 220,-180.5 220,-161.5 128,-161.5"/>
<text text-anchor="middle" x="174" y="-168.5" font-family="Helvetica,sans-Serif" font-size="10.00">func_802A0350</text>
</a>
</g>
</g>
<!-- Node1&#45;&gt;Node2 -->
<g id="edge1" class="edge">
<title>Node1&#45;&gt;Node2</title>
<path fill="none" stroke="midnightblue" d="M92.13,-171C100.37,-171 109.04,-171 117.53,-171"/>
<polygon fill="midnightblue" stroke="midnightblue" points="117.76,-174.5 127.76,-171 117.76,-167.5 117.76,-174.5"/>
</g>
<!-- Node3 -->
<g id="node3" class="node">
<title>Node3</title>
<g id="a_node3"><a xlink:href="external_8c.html#acb60983213d09ee795e80ca3c8b5975e" target="_top" xlink:title=" ">
<polygon fill="white" stroke="black" points="385,-209.5 385,-228.5 477,-228.5 477,-209.5 385,-209.5"/>
<text text-anchor="middle" x="431" y="-216.5" font-family="Helvetica,sans-Serif" font-size="10.00">func_800C98B8</text>
</a>
</g>
</g>
<!-- Node2&#45;&gt;Node3 -->
<g id="edge2" class="edge">
<title>Node2&#45;&gt;Node3</title>
<path fill="none" stroke="midnightblue" d="M190.76,-180.62C206.61,-189.75 232.06,-202.94 256,-209 294.81,-218.83 339.98,-221.17 374.57,-221.14"/>
<polygon fill="midnightblue" stroke="midnightblue" points="374.98,-224.63 384.95,-221.05 374.92,-217.63 374.98,-224.63"/>
</g>
<!-- Node6 -->
<g id="node6" class="node">
<title>Node6</title>
<g id="a_node6"><a xlink:href="actors_8c.html#a1945c77000191c23d2ae3310049cfd99" target="_top" xlink:title=" ">
<polygon fill="white" stroke="black" points="256.5,-180.5 256.5,-199.5 348.5,-199.5 348.5,-180.5 256.5,-180.5"/>
<text text-anchor="middle" x="302.5" y="-187.5" font-family="Helvetica,sans-Serif" font-size="10.00">func_8029FCA4</text>
</a>
</g>
</g>
<!-- Node2&#45;&gt;Node6 -->
<g id="edge5" class="edge">
<title>Node2&#45;&gt;Node6</title>
<path fill="none" stroke="midnightblue" d="M220.31,-177.81C228.67,-179.06 237.48,-180.38 246.1,-181.68"/>
<polygon fill="midnightblue" stroke="midnightblue" points="245.67,-185.15 256.08,-183.18 246.71,-178.23 245.67,-185.15"/>
</g>
<!-- Node7 -->
<g id="node7" class="node">
<title>Node7</title>
<g id="a_node7"><a xlink:href="actors_8c.html#a67d1dea0325e8a4a27afa6c343669df7" target="_top" xlink:title=" ">
<polygon fill="white" stroke="black" points="256,-104.5 256,-123.5 349,-123.5 349,-104.5 256,-104.5"/>
<text text-anchor="middle" x="302.5" y="-111.5" font-family="Helvetica,sans-Serif" font-size="10.00">func_8029FDC8</text>
</a>
</g>
</g>
<!-- Node2&#45;&gt;Node7 -->
<g id="edge6" class="edge">
<title>Node2&#45;&gt;Node7</title>
<path fill="none" stroke="midnightblue" d="M194.86,-161.39C211.19,-153.56 234.98,-142.31 256,-133 259.96,-131.24 264.14,-129.44 268.28,-127.67"/>
<polygon fill="midnightblue" stroke="midnightblue" points="269.94,-130.77 277.8,-123.67 267.23,-124.32 269.94,-130.77"/>
</g>
<!-- Node20 -->
<g id="node20" class="node">
<title>Node20</title>
<g id="a_node20"><a xlink:href="actors_8c.html#acd2980ed4c1c875919300053577d6f2c" target="_top" xlink:title=" ">
<polygon fill="white" stroke="black" points="256.5,-142.5 256.5,-161.5 348.5,-161.5 348.5,-142.5 256.5,-142.5"/>
<text text-anchor="middle" x="302.5" y="-149.5" font-family="Helvetica,sans-Serif" font-size="10.00">func_802A00E8</text>
</a>
</g>
</g>
<!-- Node2&#45;&gt;Node20 -->
<g id="edge21" class="edge">
<title>Node2&#45;&gt;Node20</title>
<path fill="none" stroke="midnightblue" d="M220.31,-164.19C228.67,-162.94 237.48,-161.62 246.1,-160.32"/>
<polygon fill="midnightblue" stroke="midnightblue" points="246.71,-163.77 256.08,-158.82 245.67,-156.85 246.71,-163.77"/>
</g>
<!-- Node4 -->
<g id="node4" class="node">
<title>Node4</title>
<g id="a_node4"><a xlink:href="external_8h.html#ae064a1a7293d05787ee9c3e311b70b46" target="_top" xlink:title=" ">
<polygon fill="white" stroke="black" points="513,-228.5 513,-247.5 605,-247.5 605,-228.5 513,-228.5"/>
<text text-anchor="middle" x="559" y="-235.5" font-family="Helvetica,sans-Serif" font-size="10.00">func_800C1C88</text>
</a>
</g>
</g>
<!-- Node3&#45;&gt;Node4 -->
<g id="edge3" class="edge">
<title>Node3&#45;&gt;Node4</title>
<path fill="none" stroke="midnightblue" d="M477.13,-225.81C485.46,-227.06 494.23,-228.38 502.81,-229.68"/>
<polygon fill="midnightblue" stroke="midnightblue" points="502.35,-233.15 512.76,-231.18 503.39,-226.23 502.35,-233.15"/>
</g>
<!-- Node5 -->
<g id="node5" class="node">
<title>Node5</title>
<g id="a_node5"><a xlink:href="external_8c.html#a62e16f9600e7e9beda2c9d2df10f3561" target="_top" xlink:title=" ">
<polygon fill="white" stroke="black" points="651,-85.5 651,-104.5 723,-104.5 723,-85.5 651,-85.5"/>
<text text-anchor="middle" x="687" y="-92.5" font-family="Helvetica,sans-Serif" font-size="10.00">play_sound</text>
</a>
</g>
</g>
<!-- Node3&#45;&gt;Node5 -->
<g id="edge4" class="edge">
<title>Node3&#45;&gt;Node5</title>
<path fill="none" stroke="midnightblue" d="M477.25,-216.4C513.77,-212.64 565.41,-203.45 605,-181 634.73,-164.15 660.07,-132.8 674.14,-112.97"/>
<polygon fill="midnightblue" stroke="midnightblue" points="677.17,-114.74 679.95,-104.51 671.41,-110.77 677.17,-114.74"/>
</g>
<!-- Node8 -->
<g id="node8" class="node">
<title>Node8</title>
<g id="a_node8"><a xlink:href="code__80005FD0_8c.html#a6883471b988e3d7da2086c14cd7b6c79" target="_top" xlink:title=" ">
<polygon fill="white" stroke="black" points="385.5,-152.5 385.5,-171.5 476.5,-171.5 476.5,-152.5 385.5,-152.5"/>
<text text-anchor="middle" x="431" y="-159.5" font-family="Helvetica,sans-Serif" font-size="10.00">func_8000EE58</text>
</a>
</g>
</g>
<!-- Node7&#45;&gt;Node8 -->
<g id="edge7" class="edge">
<title>Node7&#45;&gt;Node8</title>
<path fill="none" stroke="midnightblue" d="M328.8,-123.6C347.84,-130.83 374.18,-140.82 395.21,-148.8"/>
<polygon fill="midnightblue" stroke="midnightblue" points="394.16,-152.14 404.75,-152.42 396.64,-145.6 394.16,-152.14"/>
</g>
<!-- Node9 -->
<g id="node9" class="node">
<title>Node9</title>
<g id="a_node9"><a xlink:href="external_8c.html#a918987fe2328feb05c38255ed39ddc94" target="_top" xlink:title=" ">
<polygon fill="white" stroke="black" points="385,-114.5 385,-133.5 477,-133.5 477,-114.5 385,-114.5"/>
<text text-anchor="middle" x="431" y="-121.5" font-family="Helvetica,sans-Serif" font-size="10.00">func_800C9EF4</text>
</a>
</g>
</g>
<!-- Node7&#45;&gt;Node9 -->
<g id="edge8" class="edge">
<title>Node7&#45;&gt;Node9</title>
<path fill="none" stroke="midnightblue" d="M349.17,-117.61C357.42,-118.26 366.11,-118.95 374.6,-119.62"/>
<polygon fill="midnightblue" stroke="midnightblue" points="374.58,-123.13 384.82,-120.43 375.13,-116.15 374.58,-123.13"/>
</g>
<!-- Node12 -->
<g id="node12" class="node">
<title>Node12</title>
<g id="a_node12"><a xlink:href="actors__extended_8c.html#a3eba7e1c414d7e2b66a26b6a18ab94bc" target="_top" xlink:title=" ">
<polygon fill="white" stroke="black" points="385,-76.5 385,-95.5 477,-95.5 477,-76.5 385,-76.5"/>
<text text-anchor="middle" x="431" y="-83.5" font-family="Helvetica,sans-Serif" font-size="10.00">func_802B02B4</text>
</a>
</g>
</g>
<!-- Node7&#45;&gt;Node12 -->
<g id="edge11" class="edge">
<title>Node7&#45;&gt;Node12</title>
<path fill="none" stroke="midnightblue" d="M346.68,-104.44C356.45,-102.28 366.93,-99.96 377.05,-97.72"/>
<polygon fill="midnightblue" stroke="midnightblue" points="378.01,-101.09 387.01,-95.51 376.49,-94.26 378.01,-101.09"/>
</g>
<!-- Node13 -->
<g id="node13" class="node">
<title>Node13</title>
<g id="a_node13"><a xlink:href="actors__extended_8c.html#a028c1815d125e1f99f700a6428fa2e61" target="_top" xlink:title=" ">
<polygon fill="white" stroke="black" points="385,-38.5 385,-57.5 477,-57.5 477,-38.5 385,-38.5"/>
<text text-anchor="middle" x="431" y="-45.5" font-family="Helvetica,sans-Serif" font-size="10.00">func_802B0570</text>
</a>
</g>
</g>
<!-- Node7&#45;&gt;Node13 -->
<g id="edge12" class="edge">
<title>Node7&#45;&gt;Node13</title>
<path fill="none" stroke="midnightblue" d="M318.81,-104.41C334.96,-94.47 361.31,-78.78 385,-67 388.76,-65.13 392.75,-63.28 396.73,-61.5"/>
<polygon fill="midnightblue" stroke="midnightblue" points="398.14,-64.7 405.93,-57.52 395.36,-58.28 398.14,-64.7"/>
</g>
<!-- Node10 -->
<g id="node10" class="node">
<title>Node10</title>
<g id="a_node10"><a xlink:href="external_8c.html#ad82a0575bb5b71ccfaf0d187f378f0b3" target="_top" xlink:title=" ">
<polygon fill="white" stroke="black" points="513,-152.5 513,-171.5 605,-171.5 605,-152.5 513,-152.5"/>
<text text-anchor="middle" x="559" y="-159.5" font-family="Helvetica,sans-Serif" font-size="10.00">func_800C21E8</text>
</a>
</g>
</g>
<!-- Node9&#45;&gt;Node10 -->
<g id="edge9" class="edge">
<title>Node9&#45;&gt;Node10</title>
<path fill="none" stroke="midnightblue" d="M463.8,-133.59C479.76,-138.4 499.31,-144.3 516.45,-149.47"/>
<polygon fill="midnightblue" stroke="midnightblue" points="515.63,-152.88 526.22,-152.41 517.65,-146.18 515.63,-152.88"/>
</g>
<!-- Node11 -->
<g id="node11" class="node">
<title>Node11</title>
<g id="a_node11"><a xlink:href="external_8h.html#a69165d21844ba08a94405ec729d386d4" target="_top" xlink:title=" ">
<polygon fill="white" stroke="black" points="513,-114.5 513,-133.5 605,-133.5 605,-114.5 513,-114.5"/>
<text text-anchor="middle" x="559" y="-121.5" font-family="Helvetica,sans-Serif" font-size="10.00">func_800C5578</text>
</a>
</g>
</g>
<!-- Node9&#45;&gt;Node11 -->
<g id="edge10" class="edge">
<title>Node9&#45;&gt;Node11</title>
<path fill="none" stroke="midnightblue" d="M477.13,-124C485.37,-124 494.04,-124 502.53,-124"/>
<polygon fill="midnightblue" stroke="midnightblue" points="502.76,-127.5 512.76,-124 502.76,-120.5 502.76,-127.5"/>
</g>
<!-- Node14 -->
<g id="node14" class="node">
<title>Node14</title>
<g id="a_node14"><a xlink:href="external_8c.html#a517352d45a01341217ab2c073b3b223f" target="_top" xlink:title=" ">
<polygon fill="white" stroke="black" points="513,-76.5 513,-95.5 605,-95.5 605,-76.5 513,-76.5"/>
<text text-anchor="middle" x="559" y="-83.5" font-family="Helvetica,sans-Serif" font-size="10.00">func_800C9060</text>
</a>
</g>
</g>
<!-- Node13&#45;&gt;Node14 -->
<g id="edge13" class="edge">
<title>Node13&#45;&gt;Node14</title>
<path fill="none" stroke="midnightblue" d="M463.8,-57.59C479.76,-62.4 499.31,-68.3 516.45,-73.47"/>
<polygon fill="midnightblue" stroke="midnightblue" points="515.63,-76.88 526.22,-76.41 517.65,-70.18 515.63,-76.88"/>
</g>
<!-- Node15 -->
<g id="node15" class="node">
<title>Node15</title>
<g id="a_node15"><a xlink:href="actors__extended_8c.html#ab349562338ca47f2b524137864704d0e" target="_top" xlink:title=" ">
<polygon fill="white" stroke="black" points="513,-38.5 513,-57.5 605,-57.5 605,-38.5 513,-38.5"/>
<text text-anchor="middle" x="559" y="-45.5" font-family="Helvetica,sans-Serif" font-size="10.00">func_802B0464</text>
</a>
</g>
</g>
<!-- Node13&#45;&gt;Node15 -->
<g id="edge15" class="edge">
<title>Node13&#45;&gt;Node15</title>
<path fill="none" stroke="midnightblue" d="M477.13,-48C485.37,-48 494.04,-48 502.53,-48"/>
<polygon fill="midnightblue" stroke="midnightblue" points="502.76,-51.5 512.76,-48 502.76,-44.5 502.76,-51.5"/>
</g>
<!-- Node19 -->
<g id="node19" class="node">
<title>Node19</title>
<g id="a_node19"><a xlink:href="actors__extended_8c.html#a2f342036a9e04bb583aa7cf9c08edae9" target="_top" xlink:title=" ">
<polygon fill="white" stroke="black" points="513,-0.5 513,-19.5 605,-19.5 605,-0.5 513,-0.5"/>
<text text-anchor="middle" x="559" y="-7.5" font-family="Helvetica,sans-Serif" font-size="10.00">func_802B04E8</text>
</a>
</g>
</g>
<!-- Node13&#45;&gt;Node19 -->
<g id="edge19" class="edge">
<title>Node13&#45;&gt;Node19</title>
<path fill="none" stroke="midnightblue" d="M463.8,-38.41C479.76,-33.6 499.31,-27.7 516.45,-22.53"/>
<polygon fill="midnightblue" stroke="midnightblue" points="517.65,-25.82 526.22,-19.59 515.63,-19.12 517.65,-25.82"/>
</g>
<!-- Node14&#45;&gt;Node5 -->
<g id="edge14" class="edge">
<title>Node14&#45;&gt;Node5</title>
<path fill="none" stroke="midnightblue" d="M605.13,-89.22C616.59,-90.04 628.92,-90.92 640.4,-91.74"/>
<polygon fill="midnightblue" stroke="midnightblue" points="640.44,-95.25 650.66,-92.48 640.94,-88.27 640.44,-95.25"/>
</g>
<!-- Node16 -->
<g id="node16" class="node">
<title>Node16</title>
<g id="a_node16"><a xlink:href="actors__extended_8c.html#a093f702b462b6657ba7ab789941ef800" target="_top" xlink:title=" ">
<polygon fill="white" stroke="black" points="641,-28.5 641,-47.5 733,-47.5 733,-28.5 641,-28.5"/>
<text text-anchor="middle" x="687" y="-35.5" font-family="Helvetica,sans-Serif" font-size="10.00">func_802B039C</text>
</a>
</g>
</g>
<!-- Node15&#45;&gt;Node16 -->
<g id="edge16" class="edge">
<title>Node15&#45;&gt;Node16</title>
<path fill="none" stroke="midnightblue" d="M605.13,-44.42C613.37,-43.76 622.04,-43.08 630.53,-42.4"/>
<polygon fill="midnightblue" stroke="midnightblue" points="631.07,-45.87 640.76,-41.59 630.51,-38.89 631.07,-45.87"/>
</g>
<!-- Node17 -->
<g id="node17" class="node">
<title>Node17</title>
<g id="a_node17"><a xlink:href="math__util_8c.html#a151b63b8adf9af7e4054b3b84bd226dc" target="_top" xlink:title=" ">
<polygon fill="white" stroke="black" points="769,-28.5 769,-47.5 841,-47.5 841,-28.5 769,-28.5"/>
<text text-anchor="middle" x="805" y="-35.5" font-family="Helvetica,sans-Serif" font-size="10.00">random_int</text>
</a>
</g>
</g>
<!-- Node16&#45;&gt;Node17 -->
<g id="edge17" class="edge">
<title>Node16&#45;&gt;Node17</title>
<path fill="none" stroke="midnightblue" d="M733.18,-38C741.59,-38 750.38,-38 758.8,-38"/>
<polygon fill="midnightblue" stroke="midnightblue" points="758.82,-41.5 768.82,-38 758.82,-34.5 758.82,-41.5"/>
</g>
<!-- Node18 -->
<g id="node18" class="node">
<title>Node18</title>
<g id="a_node18"><a xlink:href="math__util_8c.html#a062850863585005ad1d0a75d9ff70693" target="_top" xlink:title=" ">
<polygon fill="white" stroke="black" points="877,-28.5 877,-47.5 954,-47.5 954,-28.5 877,-28.5"/>
<text text-anchor="middle" x="915.5" y="-35.5" font-family="Helvetica,sans-Serif" font-size="10.00">random_u16</text>
</a>
</g>
</g>
<!-- Node17&#45;&gt;Node18 -->
<g id="edge18" class="edge">
<title>Node17&#45;&gt;Node18</title>
<path fill="none" stroke="midnightblue" d="M841.23,-38C849.32,-38 858.06,-38 866.59,-38"/>
<polygon fill="midnightblue" stroke="midnightblue" points="866.83,-41.5 876.83,-38 866.83,-34.5 866.83,-41.5"/>
</g>
<!-- Node19&#45;&gt;Node16 -->
<g id="edge20" class="edge">
<title>Node19&#45;&gt;Node16</title>
<path fill="none" stroke="midnightblue" d="M603.01,-19.56C612.74,-21.72 623.18,-24.04 633.26,-26.28"/>
<polygon fill="midnightblue" stroke="midnightblue" points="632.66,-29.73 643.18,-28.49 634.18,-22.9 632.66,-29.73"/>
</g>
<!-- Node20&#45;&gt;Node3 -->
<g id="edge22" class="edge">
<title>Node20&#45;&gt;Node3</title>
<path fill="none" stroke="midnightblue" d="M328.34,-161.64C335.13,-164.47 342.42,-167.7 349,-171 368.91,-180.99 390.57,-193.95 406.48,-203.88"/>
<polygon fill="midnightblue" stroke="midnightblue" points="404.8,-206.96 415.13,-209.33 408.53,-201.04 404.8,-206.96"/>
</g>
</g>
</svg>
