<?xml version="1.0" encoding="UTF-8" standalone="no"?>
<!DOCTYPE svg PUBLIC "-//W3C//DTD SVG 1.1//EN"
 "http://www.w3.org/Graphics/SVG/1.1/DTD/svg11.dtd">
<!-- Generated by graphviz version 2.43.0 (0)
 -->
<!-- Title: func_8029ABD4 Pages: 1 -->
<svg width="1294pt" height="317pt"
 viewBox="0.00 0.00 1294.00 317.02" xmlns="http://www.w3.org/2000/svg" xmlns:xlink="http://www.w3.org/1999/xlink">
<g id="graph0" class="graph" transform="scale(1 1) rotate(0) translate(4 313.02)">
<title>func_8029ABD4</title>
<!-- Node1 -->
<g id="Node000001" class="node">
<title>Node1</title>
<g id="a_Node000001"><a xlink:title=" ">
<polygon fill="#999999" stroke="#666666" points="94,-57 0,-57 0,-38 94,-38 94,-57"/>
<text text-anchor="middle" x="47" y="-45" font-family="Helvetica,sans-Serif" font-size="10.00">func_8029ABD4</text>
</a>
</g>
</g>
<!-- Node2 -->
<g id="Node000002" class="node">
<title>Node2</title>
<g id="a_Node000002"><a xlink:href="actors_8c.html#a0c94a79a0a33d35659222cacbc7d05ba" target="_top" xlink:title=" ">
<polygon fill="white" stroke="#666666" points="222,-57 130,-57 130,-38 222,-38 222,-57"/>
<text text-anchor="middle" x="176" y="-45" font-family="Helvetica,sans-Serif" font-size="10.00">func_8029ED38</text>
</a>
</g>
</g>
<!-- Node1&#45;&gt;Node2 -->
<g id="edge1_Node000001_Node000002" class="edge">
<title>Node1&#45;&gt;Node2</title>
<g id="a_edge1_Node000001_Node000002"><a xlink:title=" ">
<path fill="none" stroke="#63b8ff" d="M94.21,-47.5C102.48,-47.5 111.17,-47.5 119.67,-47.5"/>
<polygon fill="#63b8ff" stroke="#63b8ff" points="119.89,-51 129.89,-47.5 119.89,-44 119.89,-51"/>
</a>
</g>
</g>
<!-- Node3 -->
<g id="Node000003" class="node">
<title>Node3</title>
<g id="a_Node000003"><a xlink:href="actors_8c.html#a24d84b2c349ccb02fa767a4e49c4f2c5" target="_top" xlink:title=" ">
<polygon fill="white" stroke="#666666" points="379,-190 258,-190 258,-171 379,-171 379,-190"/>
<text text-anchor="middle" x="318.5" y="-178" font-family="Helvetica,sans-Serif" font-size="10.00">addActorToEmptySlot</text>
</a>
</g>
</g>
<!-- Node2&#45;&gt;Node3 -->
<g id="edge2_Node000002_Node000003" class="edge">
<title>Node2&#45;&gt;Node3</title>
<g id="a_edge2_Node000002_Node000003"><a xlink:title=" ">
<path fill="none" stroke="#63b8ff" d="M187.1,-57.07C210.68,-79.39 269.61,-135.16 299.5,-163.46"/>
<polygon fill="#63b8ff" stroke="#63b8ff" points="297.44,-166.33 307.11,-170.66 302.25,-161.25 297.44,-166.33"/>
</a>
</g>
</g>
<!-- Node13 -->
<g id="Node000013" class="node">
<title>Node13</title>
<g id="a_Node000013"><a xlink:href="math__util_8c.html#a79fd07a0971ec96a3ff0801963a2fa7f" target="_top" xlink:title=" ">
<polygon fill="white" stroke="#666666" points="886.5,-76 822.5,-76 822.5,-57 886.5,-57 886.5,-76"/>
<text text-anchor="middle" x="854.5" y="-64" font-family="Helvetica,sans-Serif" font-size="10.00">vec3f_set</text>
</a>
</g>
</g>
<!-- Node2&#45;&gt;Node13 -->
<g id="edge23_Node000002_Node000013" class="edge">
<title>Node2&#45;&gt;Node13</title>
<g id="a_edge23_Node000002_Node000013"><a xlink:title=" ">
<path fill="none" stroke="#63b8ff" d="M222.01,-47.5C277.76,-47.5 375.63,-47.5 459.5,-47.5 459.5,-47.5 459.5,-47.5 574,-47.5 658.76,-47.5 757.64,-56.3 812.14,-61.93"/>
<polygon fill="#63b8ff" stroke="#63b8ff" points="811.8,-65.41 822.11,-62.97 812.53,-58.45 811.8,-65.41"/>
</a>
</g>
</g>
<!-- Node21 -->
<g id="Node000021" class="node">
<title>Node21</title>
<g id="a_Node000021"><a xlink:href="math__util_8c.html#a9092c945c52b3a3481228b2724991e3c" target="_top" xlink:title=" ">
<polygon fill="white" stroke="#666666" points="351,-19 286,-19 286,0 351,0 351,-19"/>
<text text-anchor="middle" x="318.5" y="-7" font-family="Helvetica,sans-Serif" font-size="10.00">vec3s_set</text>
</a>
</g>
</g>
<!-- Node2&#45;&gt;Node21 -->
<g id="edge24_Node000002_Node000021" class="edge">
<title>Node2&#45;&gt;Node21</title>
<g id="a_edge24_Node000002_Node000021"><a xlink:title=" ">
<path fill="none" stroke="#63b8ff" d="M212.45,-37.91C231.79,-32.68 255.82,-26.18 276.02,-20.72"/>
<polygon fill="#63b8ff" stroke="#63b8ff" points="277.15,-24.04 285.89,-18.05 275.33,-17.28 277.15,-24.04"/>
</a>
</g>
</g>
<!-- Node4 -->
<g id="Node000004" class="node">
<title>Node4</title>
<g id="a_Node000004"><a xlink:href="actors_8c.html#a39c023177b5a7686cdd1fc65b8b953e1" target="_top" xlink:title=" ">
<polygon fill="white" stroke="#666666" points="604,-190 542,-190 542,-171 604,-171 604,-190"/>
<text text-anchor="middle" x="573" y="-178" font-family="Helvetica,sans-Serif" font-size="10.00">actor_init</text>
</a>
</g>
</g>
<!-- Node3&#45;&gt;Node4 -->
<g id="edge3_Node000003_Node000004" class="edge">
<title>Node3&#45;&gt;Node4</title>
<g id="a_edge3_Node000003_Node000004"><a xlink:title=" ">
<path fill="none" stroke="#63b8ff" d="M379.02,-180.5C426.1,-180.5 490.55,-180.5 531.74,-180.5"/>
<polygon fill="#63b8ff" stroke="#63b8ff" points="531.94,-184 541.94,-180.5 531.94,-177 531.94,-184"/>
</a>
</g>
</g>
<!-- Node20 -->
<g id="Node000020" class="node">
<title>Node20</title>
<g id="a_Node000020"><a xlink:href="actors_8c.html#a0c9d11d8956bf92c32a5e9bafd7036e6" target="_top" xlink:title=" ">
<polygon fill="white" stroke="#666666" points="506,-271 415,-271 415,-252 506,-252 506,-271"/>
<text text-anchor="middle" x="460.5" y="-259" font-family="Helvetica,sans-Serif" font-size="10.00">func_8029E890</text>
</a>
</g>
</g>
<!-- Node3&#45;&gt;Node20 -->
<g id="edge19_Node000003_Node000020" class="edge">
<title>Node3&#45;&gt;Node20</title>
<g id="a_edge19_Node000003_Node000020"><a xlink:title=" ">
<path fill="none" stroke="#63b8ff" d="M336.11,-190.11C360.32,-204.12 405.5,-230.26 433.96,-246.72"/>
<polygon fill="#63b8ff" stroke="#63b8ff" points="432.5,-249.92 442.91,-251.9 436.01,-243.87 432.5,-249.92"/>
</a>
</g>
</g>
<!-- Node5 -->
<g id="Node000005" class="node">
<title>Node5</title>
<g id="a_Node000005"><a xlink:href="actors_8c.html#a1a9bccb586242555a9123ebd4ab70f2a" target="_top" xlink:title=" ">
<polygon fill="white" stroke="#666666" points="772,-217.5 640,-217.5 640,-187.5 772,-187.5 772,-217.5"/>
<text text-anchor="start" x="648" y="-205.5" font-family="Helvetica,sans-Serif" font-size="10.00">cleanup_red_and_green</text>
<text text-anchor="middle" x="706" y="-194.5" font-family="Helvetica,sans-Serif" font-size="10.00">_shells</text>
</a>
</g>
</g>
<!-- Node4&#45;&gt;Node5 -->
<g id="edge4_Node000004_Node000005" class="edge">
<title>Node4&#45;&gt;Node5</title>
<g id="a_edge4_Node000004_Node000005"><a xlink:title=" ">
<path fill="none" stroke="#63b8ff" d="M604.05,-185.55C611.93,-186.87 620.79,-188.36 629.9,-189.89"/>
<polygon fill="#63b8ff" stroke="#63b8ff" points="629.4,-193.35 639.85,-191.56 630.56,-186.45 629.4,-193.35"/>
</a>
</g>
</g>
<!-- Node12 -->
<g id="Node000012" class="node">
<title>Node12</title>
<g id="a_Node000012"><a xlink:href="collision_8c.html#ad72fef3ffe32191d73b1822f512ebf3f" target="_top" xlink:title=" ">
<polygon fill="white" stroke="#666666" points="753.5,-132 658.5,-132 658.5,-113 753.5,-113 753.5,-132"/>
<text text-anchor="middle" x="706" y="-120" font-family="Helvetica,sans-Serif" font-size="10.00">func_802AAAAC</text>
</a>
</g>
</g>
<!-- Node4&#45;&gt;Node12 -->
<g id="edge11_Node000004_Node000012" class="edge">
<title>Node4&#45;&gt;Node12</title>
<g id="a_edge11_Node000004_Node000012"><a xlink:title=" ">
<path fill="none" stroke="#63b8ff" d="M587.56,-170.75C600.5,-161.83 620.81,-148.78 640,-140.5 644.47,-138.57 649.2,-136.79 653.99,-135.17"/>
<polygon fill="#63b8ff" stroke="#63b8ff" points="655.36,-138.41 663.84,-132.05 653.25,-131.73 655.36,-138.41"/>
</a>
</g>
</g>
<!-- Node14 -->
<g id="Node000014" class="node">
<title>Node14</title>
<g id="a_Node000014"><a xlink:href="collision_8c.html#a365367628b7140a7a880beeecce9c305" target="_top" xlink:title=" ">
<polygon fill="white" stroke="#666666" points="753.5,-169 658.5,-169 658.5,-150 753.5,-150 753.5,-169"/>
<text text-anchor="middle" x="706" y="-157" font-family="Helvetica,sans-Serif" font-size="10.00">func_802ADDC8</text>
</a>
</g>
</g>
<!-- Node4&#45;&gt;Node14 -->
<g id="edge13_Node000004_Node000014" class="edge">
<title>Node4&#45;&gt;Node14</title>
<g id="a_edge13_Node000004_Node000014"><a xlink:title=" ">
<path fill="none" stroke="#63b8ff" d="M604.05,-175.68C617.25,-173.57 633.2,-171.01 648.48,-168.56"/>
<polygon fill="#63b8ff" stroke="#63b8ff" points="649.07,-172.01 658.39,-166.97 647.96,-165.1 649.07,-172.01"/>
</a>
</g>
</g>
<!-- Node18 -->
<g id="Node000018" class="node">
<title>Node18</title>
<g id="a_Node000018"><a xlink:href="math__util_8c.html#af7b470ed76fce07b8042a47c96e5690b" target="_top" xlink:title=" ">
<polygon fill="white" stroke="#666666" points="759.5,-95 652.5,-95 652.5,-76 759.5,-76 759.5,-95"/>
<text text-anchor="middle" x="706" y="-83" font-family="Helvetica,sans-Serif" font-size="10.00">vec3f_copy_return</text>
</a>
</g>
</g>
<!-- Node4&#45;&gt;Node18 -->
<g id="edge17_Node000004_Node000018" class="edge">
<title>Node4&#45;&gt;Node18</title>
<g id="a_edge17_Node000004_Node000018"><a xlink:title=" ">
<path fill="none" stroke="#63b8ff" d="M579.58,-170.85C589.56,-154.46 612.06,-121.26 640,-103.5 642.58,-101.86 645.32,-100.36 648.15,-99"/>
<polygon fill="#63b8ff" stroke="#63b8ff" points="649.56,-102.2 657.42,-95.1 646.85,-95.75 649.56,-102.2"/>
</a>
</g>
</g>
<!-- Node19 -->
<g id="Node000019" class="node">
<title>Node19</title>
<g id="a_Node000019"><a xlink:href="math__util_8c.html#a0e270ee67600c8c9c2f140c647d008a1" target="_top" xlink:title=" ">
<polygon fill="white" stroke="#666666" points="743,-255 669,-255 669,-236 743,-236 743,-255"/>
<text text-anchor="middle" x="706" y="-243" font-family="Helvetica,sans-Serif" font-size="10.00">vec3s_copy</text>
</a>
</g>
</g>
<!-- Node4&#45;&gt;Node19 -->
<g id="edge18_Node000004_Node000019" class="edge">
<title>Node4&#45;&gt;Node19</title>
<g id="a_edge18_Node000004_Node000019"><a xlink:title=" ">
<path fill="none" stroke="#63b8ff" d="M585.44,-190.22C598.06,-200.51 619.34,-216.61 640,-226.5 646.06,-229.4 652.64,-231.95 659.23,-234.17"/>
<polygon fill="#63b8ff" stroke="#63b8ff" points="658.21,-237.52 668.8,-237.17 660.31,-230.84 658.21,-237.52"/>
</a>
</g>
</g>
<!-- Node6 -->
<g id="Node000006" class="node">
<title>Node6</title>
<g id="a_Node000006"><a xlink:href="actors_8c.html#a694ec6ef7548b8618aeb35c038d3a9b9" target="_top" xlink:title=" ">
<polygon fill="white" stroke="#666666" points="896,-247 813,-247 813,-228 896,-228 896,-247"/>
<text text-anchor="middle" x="854.5" y="-235" font-family="Helvetica,sans-Serif" font-size="10.00">destroy_actor</text>
</a>
</g>
</g>
<!-- Node5&#45;&gt;Node6 -->
<g id="edge5_Node000005_Node000006" class="edge">
<title>Node5&#45;&gt;Node6</title>
<g id="a_edge5_Node000005_Node000006"><a xlink:title=" ">
<path fill="none" stroke="#63b8ff" d="M769.98,-217.55C781.15,-220.21 792.64,-222.96 803.39,-225.53"/>
<polygon fill="#63b8ff" stroke="#63b8ff" points="802.89,-229.01 813.43,-227.93 804.52,-222.2 802.89,-229.01"/>
</a>
</g>
</g>
<!-- Node11 -->
<g id="Node000011" class="node">
<title>Node11</title>
<g id="a_Node000011"><a xlink:href="code__80005FD0_8c.html#a6883471b988e3d7da2086c14cd7b6c79" target="_top" xlink:title=" ">
<polygon fill="white" stroke="#666666" points="900,-290 809,-290 809,-271 900,-271 900,-290"/>
<text text-anchor="middle" x="854.5" y="-278" font-family="Helvetica,sans-Serif" font-size="10.00">func_8000EE58</text>
</a>
</g>
</g>
<!-- Node5&#45;&gt;Node11 -->
<g id="edge10_Node000005_Node000011" class="edge">
<title>Node5&#45;&gt;Node11</title>
<g id="a_edge10_Node000005_Node000011"><a xlink:title=" ">
<path fill="none" stroke="#63b8ff" d="M751.56,-217.51C758.57,-220.47 765.61,-223.82 772,-227.5 789.8,-237.76 790.83,-245.21 808,-256.5 813.07,-259.83 818.65,-263.09 824.11,-266.07"/>
<polygon fill="#63b8ff" stroke="#63b8ff" points="822.61,-269.23 833.09,-270.79 825.87,-263.04 822.61,-269.23"/>
</a>
</g>
</g>
<!-- Node7 -->
<g id="Node000007" class="node">
<title>Node7</title>
<g id="a_Node000007"><a xlink:href="actors_8c.html#a15517665ab054722a5c980c0f1008cd0" target="_top" xlink:title=" ">
<polygon fill="white" stroke="#666666" points="1030,-289 937,-289 937,-270 1030,-270 1030,-289"/>
<text text-anchor="middle" x="983.5" y="-277" font-family="Helvetica,sans-Serif" font-size="10.00">func_8029E7DC</text>
</a>
</g>
</g>
<!-- Node6&#45;&gt;Node7 -->
<g id="edge6_Node000006_Node000007" class="edge">
<title>Node6&#45;&gt;Node7</title>
<g id="a_edge6_Node000006_Node000007"><a xlink:title=" ">
<path fill="none" stroke="#63b8ff" d="M884.32,-247.03C901.89,-252.84 924.58,-260.35 943.72,-266.67"/>
<polygon fill="#63b8ff" stroke="#63b8ff" points="942.76,-270.04 953.36,-269.86 944.96,-263.4 942.76,-270.04"/>
</a>
</g>
</g>
<!-- Node8 -->
<g id="Node000008" class="node">
<title>Node8</title>
<g id="a_Node000008"><a xlink:href="external_8c.html#a7a3355f3444c31e7deb571c6d76db628" target="_top" xlink:title=" ">
<polygon fill="white" stroke="#666666" points="1158,-289 1066,-289 1066,-270 1158,-270 1158,-289"/>
<text text-anchor="middle" x="1112" y="-277" font-family="Helvetica,sans-Serif" font-size="10.00">func_800C99E0</text>
</a>
</g>
</g>
<!-- Node7&#45;&gt;Node8 -->
<g id="edge7_Node000007_Node000008" class="edge">
<title>Node7&#45;&gt;Node8</title>
<g id="a_edge7_Node000007_Node000008"><a xlink:title=" ">
<path fill="none" stroke="#63b8ff" d="M1030.17,-279.5C1038.42,-279.5 1047.11,-279.5 1055.6,-279.5"/>
<polygon fill="#63b8ff" stroke="#63b8ff" points="1055.82,-283 1065.82,-279.5 1055.82,-276 1055.82,-283"/>
</a>
</g>
</g>
<!-- Node9 -->
<g id="Node000009" class="node">
<title>Node9</title>
<g id="a_Node000009"><a xlink:href="external_8c.html#a1c8490eb4720c317dd29ed76a1c4ea32" target="_top" xlink:title=" ">
<polygon fill="white" stroke="#666666" points="1286,-308 1194,-308 1194,-289 1286,-289 1286,-308"/>
<text text-anchor="middle" x="1240" y="-296" font-family="Helvetica,sans-Serif" font-size="10.00">func_800C21E8</text>
</a>
</g>
</g>
<!-- Node8&#45;&gt;Node9 -->
<g id="edge8_Node000008_Node000009" class="edge">
<title>Node8&#45;&gt;Node9</title>
<g id="a_edge8_Node000008_Node000009"><a xlink:title=" ">
<path fill="none" stroke="#63b8ff" d="M1158.13,-286.31C1166.46,-287.56 1175.23,-288.88 1183.81,-290.18"/>
<polygon fill="#63b8ff" stroke="#63b8ff" points="1183.35,-293.65 1193.76,-291.68 1184.39,-286.73 1183.35,-293.65"/>
</a>
</g>
</g>
<!-- Node10 -->
<g id="Node000010" class="node">
<title>Node10</title>
<g id="a_Node000010"><a xlink:href="external_8h.html#a69165d21844ba08a94405ec729d386d4" target="_top" xlink:title=" ">
<polygon fill="white" stroke="#666666" points="1286,-271 1194,-271 1194,-252 1286,-252 1286,-271"/>
<text text-anchor="middle" x="1240" y="-259" font-family="Helvetica,sans-Serif" font-size="10.00">func_800C5578</text>
</a>
</g>
</g>
<!-- Node8&#45;&gt;Node10 -->
<g id="edge9_Node000008_Node000010" class="edge">
<title>Node8&#45;&gt;Node10</title>
<g id="a_edge9_Node000008_Node000010"><a xlink:title=" ">
<path fill="none" stroke="#63b8ff" d="M1158.13,-273.05C1166.46,-271.86 1175.23,-270.61 1183.81,-269.38"/>
<polygon fill="#63b8ff" stroke="#63b8ff" points="1184.35,-272.84 1193.76,-267.96 1183.36,-265.91 1184.35,-272.84"/>
</a>
</g>
</g>
<!-- Node12&#45;&gt;Node13 -->
<g id="edge12_Node000012_Node000013" class="edge">
<title>Node12&#45;&gt;Node13</title>
<g id="a_edge12_Node000012_Node000013"><a xlink:title=" ">
<path fill="none" stroke="#63b8ff" d="M743.06,-112.95C752.56,-110.16 762.74,-106.94 772,-103.5 790.1,-96.79 809.82,-87.88 825.33,-80.48"/>
<polygon fill="#63b8ff" stroke="#63b8ff" points="826.91,-83.61 834.39,-76.11 823.87,-77.3 826.91,-83.61"/>
</a>
</g>
</g>
<!-- Node15 -->
<g id="Node000015" class="node">
<title>Node15</title>
<g id="a_Node000015"><a xlink:href="collision_8c.html#afce45acb8da354da0a5b501003be1aef" target="_top" xlink:title=" ">
<polygon fill="white" stroke="#666666" points="901,-206 808,-206 808,-187 901,-187 901,-206"/>
<text text-anchor="middle" x="854.5" y="-194" font-family="Helvetica,sans-Serif" font-size="10.00">func_802AAE4C</text>
</a>
</g>
</g>
<!-- Node14&#45;&gt;Node15 -->
<g id="edge14_Node000014_Node000015" class="edge">
<title>Node14&#45;&gt;Node15</title>
<g id="a_edge14_Node000014_Node000015"><a xlink:title=" ">
<path fill="none" stroke="#63b8ff" d="M744.73,-169.03C763.37,-173.74 786.05,-179.47 805.88,-184.47"/>
<polygon fill="#63b8ff" stroke="#63b8ff" points="805.09,-187.88 815.65,-186.94 806.81,-181.1 805.09,-187.88"/>
</a>
</g>
</g>
<!-- Node16 -->
<g id="Node000016" class="node">
<title>Node16</title>
<g id="a_Node000016"><a xlink:href="collision_8c.html#adcc608ea0eae3bf9a27ab79ec64b4899" target="_top" xlink:title=" ">
<polygon fill="white" stroke="#666666" points="900.5,-169 808.5,-169 808.5,-150 900.5,-150 900.5,-169"/>
<text text-anchor="middle" x="854.5" y="-157" font-family="Helvetica,sans-Serif" font-size="10.00">func_802AB288</text>
</a>
</g>
</g>
<!-- Node14&#45;&gt;Node16 -->
<g id="edge15_Node000014_Node000016" class="edge">
<title>Node14&#45;&gt;Node16</title>
<g id="a_edge15_Node000014_Node000016"><a xlink:title=" ">
<path fill="none" stroke="#63b8ff" d="M753.76,-159.5C767.77,-159.5 783.28,-159.5 797.81,-159.5"/>
<polygon fill="#63b8ff" stroke="#63b8ff" points="798.19,-163 808.19,-159.5 798.19,-156 798.19,-163"/>
</a>
</g>
</g>
<!-- Node17 -->
<g id="Node000017" class="node">
<title>Node17</title>
<g id="a_Node000017"><a xlink:href="collision_8c.html#ab440aa3fc960b7b4b5ad8e4bcaa06b00" target="_top" xlink:title=" ">
<polygon fill="white" stroke="#666666" points="901,-132 808,-132 808,-113 901,-113 901,-132"/>
<text text-anchor="middle" x="854.5" y="-120" font-family="Helvetica,sans-Serif" font-size="10.00">func_802AB6C4</text>
</a>
</g>
</g>
<!-- Node14&#45;&gt;Node17 -->
<g id="edge16_Node000014_Node000017" class="edge">
<title>Node14&#45;&gt;Node17</title>
<g id="a_edge16_Node000014_Node000017"><a xlink:title=" ">
<path fill="none" stroke="#63b8ff" d="M744.73,-149.97C763.37,-145.26 786.05,-139.53 805.88,-134.53"/>
<polygon fill="#63b8ff" stroke="#63b8ff" points="806.81,-137.9 815.65,-132.06 805.09,-131.12 806.81,-137.9"/>
</a>
</g>
</g>
<!-- Node20&#45;&gt;Node4 -->
<g id="edge20_Node000020_Node000004" class="edge">
<title>Node20&#45;&gt;Node4</title>
<g id="a_edge20_Node000020_Node000004"><a xlink:title=" ">
<path fill="none" stroke="#63b8ff" d="M474.61,-251.89C493.38,-238.13 528.14,-212.65 550.66,-196.15"/>
<polygon fill="#63b8ff" stroke="#63b8ff" points="552.91,-198.83 558.91,-190.1 548.77,-193.19 552.91,-198.83"/>
</a>
</g>
</g>
<!-- Node20&#45;&gt;Node7 -->
<g id="edge22_Node000020_Node000007" class="edge">
<title>Node20&#45;&gt;Node7</title>
<g id="a_edge22_Node000020_Node000007"><a xlink:title=" ">
<path fill="none" stroke="#63b8ff" d="M496.53,-271.06C510.57,-274.55 526.95,-278.2 542,-280.5 699.95,-304.62 742.38,-318.68 901,-299.5 914.24,-297.9 928.43,-294.89 941.2,-291.68"/>
<polygon fill="#63b8ff" stroke="#63b8ff" points="942.3,-295 951.09,-289.08 940.53,-288.23 942.3,-295"/>
</a>
</g>
</g>
<!-- Node20&#45;&gt;Node11 -->
<g id="edge21_Node000020_Node000011" class="edge">
<title>Node20&#45;&gt;Node11</title>
<g id="a_edge21_Node000020_Node000011"><a xlink:title=" ">
<path fill="none" stroke="#63b8ff" d="M506.09,-263.66C578.3,-267.16 720.61,-274.06 798.82,-277.85"/>
<polygon fill="#63b8ff" stroke="#63b8ff" points="798.8,-281.35 808.96,-278.34 799.14,-274.36 798.8,-281.35"/>
</a>
</g>
</g>
</g>
</svg>
