<?xml version="1.0" encoding="UTF-8" standalone="no"?>
<!DOCTYPE svg PUBLIC "-//W3C//DTD SVG 1.1//EN"
 "http://www.w3.org/Graphics/SVG/1.1/DTD/svg11.dtd">
<!-- Generated by graphviz version 2.43.0 (0)
 -->
<!-- Title: courses/big_donut/course_textures.linkonly.c Pages: 1 -->
<svg width="860pt" height="214pt"
 viewBox="0.00 0.00 860.00 214.00" xmlns="http://www.w3.org/2000/svg" xmlns:xlink="http://www.w3.org/1999/xlink">
<g id="graph0" class="graph" transform="scale(1 1) rotate(0) translate(4 210)">
<title>courses/big_donut/course_textures.linkonly.c</title>
<!-- Node1 -->
<g id="Node000001" class="node">
<title>Node1</title>
<g id="a_Node000001"><a xlink:title=" ">
<polygon fill="#999999" stroke="#666666" points="487,-206 347,-206 347,-176 487,-176 487,-206"/>
<text text-anchor="start" x="355" y="-194" font-family="Helvetica,sans-Serif" font-size="10.00">courses/big_donut/course</text>
<text text-anchor="middle" x="417" y="-183" font-family="Helvetica,sans-Serif" font-size="10.00">_textures.linkonly.c</text>
</a>
</g>
</g>
<!-- Node2 -->
<g id="Node000002" class="node">
<title>Node2</title>
<g id="a_Node000002"><a xlink:href="big__donut_2course__textures_8linkonly_8h.html" target="_top" xlink:title=" ">
<polygon fill="white" stroke="#666666" points="140,-140 0,-140 0,-110 140,-110 140,-140"/>
<text text-anchor="start" x="8" y="-128" font-family="Helvetica,sans-Serif" font-size="10.00">courses/big_donut/course</text>
<text text-anchor="middle" x="70" y="-117" font-family="Helvetica,sans-Serif" font-size="10.00">_textures.linkonly.h</text>
</a>
</g>
</g>
<!-- Node1&#45;&gt;Node2 -->
<g id="edge1_Node000001_Node000002" class="edge">
<title>Node1&#45;&gt;Node2</title>
<g id="a_edge1_Node000001_Node000002"><a xlink:title=" ">
<path fill="none" stroke="#63b8ff" d="M346.78,-177.05C289.87,-166.55 209.65,-151.76 150.21,-140.79"/>
<polygon fill="#63b8ff" stroke="#63b8ff" points="150.59,-137.3 140.12,-138.93 149.32,-144.19 150.59,-137.3"/>
</a>
</g>
</g>
<!-- Node5 -->
<g id="Node000005" class="node">
<title>Node5</title>
<g id="a_Node000005"><a xlink:title=" ">
<polygon fill="#e0e0e0" stroke="#999999" points="319.5,-140 158.5,-140 158.5,-110 319.5,-110 319.5,-140"/>
<text text-anchor="start" x="166.5" y="-128" font-family="Helvetica,sans-Serif" font-size="10.00">textures/standalone</text>
<text text-anchor="middle" x="239" y="-117" font-family="Helvetica,sans-Serif" font-size="10.00">/texture_66ABA4.rgba16.inc.c</text>
</a>
</g>
</g>
<!-- Node1&#45;&gt;Node5 -->
<g id="edge5_Node000001_Node000005" class="edge">
<title>Node1&#45;&gt;Node5</title>
<g id="a_edge5_Node000001_Node000005"><a xlink:title=" ">
<path fill="none" stroke="#63b8ff" d="M377.94,-175.95C351.39,-166.41 316.08,-153.71 287.7,-143.51"/>
<polygon fill="#63b8ff" stroke="#63b8ff" points="288.57,-140.1 277.97,-140.01 286.2,-146.69 288.57,-140.1"/>
</a>
</g>
</g>
<!-- Node6 -->
<g id="Node000006" class="node">
<title>Node6</title>
<g id="a_Node000006"><a xlink:title=" ">
<polygon fill="#e0e0e0" stroke="#999999" points="496.5,-140 337.5,-140 337.5,-110 496.5,-110 496.5,-140"/>
<text text-anchor="start" x="345.5" y="-128" font-family="Helvetica,sans-Serif" font-size="10.00">textures/standalone</text>
<text text-anchor="middle" x="417" y="-117" font-family="Helvetica,sans-Serif" font-size="10.00">/texture_6747C4.rgba16.inc.c</text>
</a>
</g>
</g>
<!-- Node1&#45;&gt;Node6 -->
<g id="edge6_Node000001_Node000006" class="edge">
<title>Node1&#45;&gt;Node6</title>
<g id="a_edge6_Node000001_Node000006"><a xlink:title=" ">
<path fill="none" stroke="#63b8ff" d="M417,-175.8C417,-168.34 417,-158.99 417,-150.41"/>
<polygon fill="#63b8ff" stroke="#63b8ff" points="420.5,-150.16 417,-140.16 413.5,-150.16 420.5,-150.16"/>
</a>
</g>
</g>
<!-- Node7 -->
<g id="Node000007" class="node">
<title>Node7</title>
<g id="a_Node000007"><a xlink:title=" ">
<polygon fill="#e0e0e0" stroke="#999999" points="673.5,-140 514.5,-140 514.5,-110 673.5,-110 673.5,-140"/>
<text text-anchor="start" x="522.5" y="-128" font-family="Helvetica,sans-Serif" font-size="10.00">textures/standalone</text>
<text text-anchor="middle" x="594" y="-117" font-family="Helvetica,sans-Serif" font-size="10.00">/texture_67490C.rgba16.inc.c</text>
</a>
</g>
</g>
<!-- Node1&#45;&gt;Node7 -->
<g id="edge7_Node000001_Node000007" class="edge">
<title>Node1&#45;&gt;Node7</title>
<g id="a_edge7_Node000001_Node000007"><a xlink:title=" ">
<path fill="none" stroke="#63b8ff" d="M455.84,-175.95C482.24,-166.41 517.36,-153.71 545.58,-143.51"/>
<polygon fill="#63b8ff" stroke="#63b8ff" points="547.03,-146.7 555.25,-140.01 544.65,-140.12 547.03,-146.7"/>
</a>
</g>
</g>
<!-- Node8 -->
<g id="Node000008" class="node">
<title>Node8</title>
<g id="a_Node000008"><a xlink:title=" ">
<polygon fill="#e0e0e0" stroke="#999999" points="852,-140 692,-140 692,-110 852,-110 852,-140"/>
<text text-anchor="start" x="700" y="-128" font-family="Helvetica,sans-Serif" font-size="10.00">textures/standalone</text>
<text text-anchor="middle" x="772" y="-117" font-family="Helvetica,sans-Serif" font-size="10.00">/texture_64BA50.rgba16.inc.c</text>
</a>
</g>
</g>
<!-- Node1&#45;&gt;Node8 -->
<g id="edge8_Node000001_Node000008" class="edge">
<title>Node1&#45;&gt;Node8</title>
<g id="a_edge8_Node000001_Node000008"><a xlink:title=" ">
<path fill="none" stroke="#63b8ff" d="M487.14,-177.36C543.7,-167.16 623.56,-152.76 684.34,-141.8"/>
<polygon fill="#63b8ff" stroke="#63b8ff" points="685.08,-145.23 694.3,-140.01 683.84,-138.34 685.08,-145.23"/>
</a>
</g>
</g>
<!-- Node3 -->
<g id="Node000003" class="node">
<title>Node3</title>
<g id="a_Node000003"><a xlink:href="ultratypes_8h.html" target="_top" xlink:title=" ">
<polygon fill="white" stroke="#666666" points="115.5,-74 24.5,-74 24.5,-55 115.5,-55 115.5,-74"/>
<text text-anchor="middle" x="70" y="-62" font-family="Helvetica,sans-Serif" font-size="10.00">PR/ultratypes.h</text>
</a>
</g>
</g>
<!-- Node2&#45;&gt;Node3 -->
<g id="edge2_Node000002_Node000003" class="edge">
<title>Node2&#45;&gt;Node3</title>
<g id="a_edge2_Node000002_Node000003"><a xlink:title=" ">
<path fill="none" stroke="#63b8ff" d="M70,-109.84C70,-102.21 70,-92.7 70,-84.45"/>
<polygon fill="#63b8ff" stroke="#63b8ff" points="73.5,-84.27 70,-74.27 66.5,-84.27 73.5,-84.27"/>
</a>
</g>
</g>
<!-- Node4 -->
<g id="Node000004" class="node">
<title>Node4</title>
<g id="a_Node000004"><a xlink:href="stddef_8h.html" target="_top" xlink:title=" ">
<polygon fill="white" stroke="#666666" points="98,-19 42,-19 42,0 98,0 98,-19"/>
<text text-anchor="middle" x="70" y="-7" font-family="Helvetica,sans-Serif" font-size="10.00">stddef.h</text>
</a>
</g>
</g>
<!-- Node3&#45;&gt;Node4 -->
<g id="edge3_Node000003_Node000004" class="edge">
<title>Node3&#45;&gt;Node4</title>
<g id="a_edge3_Node000003_Node000004"><a xlink:title=" ">
<path fill="none" stroke="#63b8ff" d="M64.83,-54.75C63.34,-47.8 62.9,-37.85 63.52,-29.13"/>
<polygon fill="#63b8ff" stroke="#63b8ff" points="67.01,-29.47 64.87,-19.09 60.07,-28.53 67.01,-29.47"/>
</a>
</g>
</g>
<!-- Node4&#45;&gt;Node3 -->
<g id="edge4_Node000004_Node000003" class="edge">
<title>Node4&#45;&gt;Node3</title>
<g id="a_edge4_Node000004_Node000003"><a xlink:title=" ">
<path fill="none" stroke="#63b8ff" d="M75.13,-19.09C76.64,-25.99 77.09,-35.93 76.49,-44.66"/>
<polygon fill="#63b8ff" stroke="#63b8ff" points="73,-44.38 75.17,-54.75 79.94,-45.29 73,-44.38"/>
</a>
</g>
</g>
</g>
</svg>
