<?xml version="1.0" encoding="UTF-8" standalone="no"?>
<!DOCTYPE svg PUBLIC "-//W3C//DTD SVG 1.1//EN"
 "http://www.w3.org/Graphics/SVG/1.1/DTD/svg11.dtd">
<!-- Generated by graphviz version 2.43.0 (0)
 -->
<!-- Title: src/ending/ceremony_and_credits.h Pages: 1 -->
<svg width="926pt" height="214pt"
 viewBox="0.00 0.00 926.00 214.00" xmlns="http://www.w3.org/2000/svg" xmlns:xlink="http://www.w3.org/1999/xlink">
<g id="graph0" class="graph" transform="scale(1 1) rotate(0) translate(4 210)">
<title>src/ending/ceremony_and_credits.h</title>
<!-- Node1 -->
<g id="Node000001" class="node">
<title>Node1</title>
<g id="a_Node000001"><a xlink:title=" ">
<polygon fill="#999999" stroke="#666666" points="498,-206 379,-206 379,-176 498,-176 498,-206"/>
<text text-anchor="start" x="387" y="-194" font-family="Helvetica,sans-Serif" font-size="10.00">src/ending/ceremony</text>
<text text-anchor="middle" x="438.5" y="-183" font-family="Helvetica,sans-Serif" font-size="10.00">_and_credits.h</text>
</a>
</g>
</g>
<!-- Node2 -->
<g id="Node000002" class="node">
<title>Node2</title>
<g id="a_Node000002"><a xlink:href="code__80071F00_8c.html" target="_top" xlink:title=" ">
<polygon fill="white" stroke="#666666" points="119,-134.5 0,-134.5 0,-115.5 119,-115.5 119,-134.5"/>
<text text-anchor="middle" x="59.5" y="-122.5" font-family="Helvetica,sans-Serif" font-size="10.00">src/code_80071F00.c</text>
</a>
</g>
</g>
<!-- Node1&#45;&gt;Node2 -->
<g id="edge1_Node000001_Node000002" class="edge">
<title>Node1&#45;&gt;Node2</title>
<g id="a_edge1_Node000001_Node000002"><a xlink:title=" ">
<path fill="none" stroke="#63b8ff" d="M368.75,-179.57C305.83,-169.97 210.8,-154.98 128.5,-140 119.36,-138.34 109.57,-136.43 100.31,-134.56"/>
<polygon fill="#63b8ff" stroke="#63b8ff" points="368.54,-183.08 378.95,-181.12 369.59,-176.16 368.54,-183.08"/>
</a>
</g>
</g>
<!-- Node3 -->
<g id="Node000003" class="node">
<title>Node3</title>
<g id="a_Node000003"><a xlink:href="all__variables_8h.html" target="_top" xlink:title=" ">
<polygon fill="white" stroke="#666666" points="275.5,-134.5 137.5,-134.5 137.5,-115.5 275.5,-115.5 275.5,-134.5"/>
<text text-anchor="middle" x="206.5" y="-122.5" font-family="Helvetica,sans-Serif" font-size="10.00">src/debug/all_variables.h</text>
</a>
</g>
</g>
<!-- Node1&#45;&gt;Node3 -->
<g id="edge2_Node000001_Node000003" class="edge">
<title>Node1&#45;&gt;Node3</title>
<g id="a_edge2_Node000001_Node000003"><a xlink:title=" ">
<path fill="none" stroke="#63b8ff" d="M377.91,-173.29C332.81,-160.84 273.11,-144.37 237.38,-134.52"/>
<polygon fill="#63b8ff" stroke="#63b8ff" points="377.02,-176.67 387.59,-175.95 378.88,-169.92 377.02,-176.67"/>
</a>
</g>
</g>
<!-- Node6 -->
<g id="Node000006" class="node">
<title>Node6</title>
<g id="a_Node000006"><a xlink:href="camera__junk_8c.html" target="_top" xlink:title=" ">
<polygon fill="white" stroke="#666666" points="435,-134.5 294,-134.5 294,-115.5 435,-115.5 435,-134.5"/>
<text text-anchor="middle" x="364.5" y="-122.5" font-family="Helvetica,sans-Serif" font-size="10.00">src/ending/camera_junk.c</text>
</a>
</g>
</g>
<!-- Node1&#45;&gt;Node6 -->
<g id="edge5_Node000001_Node000006" class="edge">
<title>Node1&#45;&gt;Node6</title>
<g id="a_edge5_Node000001_Node000006"><a xlink:title=" ">
<path fill="none" stroke="#63b8ff" d="M414.14,-168.93C400.75,-157.35 384.86,-143.61 374.73,-134.84"/>
<polygon fill="#63b8ff" stroke="#63b8ff" points="412.22,-171.9 422.08,-175.8 416.8,-166.61 412.22,-171.9"/>
</a>
</g>
</g>
<!-- Node7 -->
<g id="Node000007" class="node">
<title>Node7</title>
<g id="a_Node000007"><a xlink:href="ceremony__and__credits_8c.html" target="_top" xlink:title=" ">
<polygon fill="white" stroke="#666666" points="572,-140 453,-140 453,-110 572,-110 572,-140"/>
<text text-anchor="start" x="461" y="-128" font-family="Helvetica,sans-Serif" font-size="10.00">src/ending/ceremony</text>
<text text-anchor="middle" x="512.5" y="-117" font-family="Helvetica,sans-Serif" font-size="10.00">_and_credits.c</text>
</a>
</g>
</g>
<!-- Node1&#45;&gt;Node7 -->
<g id="edge6_Node000001_Node000007" class="edge">
<title>Node1&#45;&gt;Node7</title>
<g id="a_edge6_Node000001_Node000007"><a xlink:title=" ">
<path fill="none" stroke="#63b8ff" d="M462.55,-169.2C473.53,-159.7 486.26,-148.69 496.12,-140.16"/>
<polygon fill="#63b8ff" stroke="#63b8ff" points="460.2,-166.61 454.92,-175.8 464.78,-171.9 460.2,-166.61"/>
</a>
</g>
</g>
<!-- Node8 -->
<g id="Node000008" class="node">
<title>Node8</title>
<g id="a_Node000008"><a xlink:href="code__80280000_8c.html" target="_top" xlink:title=" ">
<polygon fill="white" stroke="#666666" points="745,-134.5 590,-134.5 590,-115.5 745,-115.5 745,-134.5"/>
<text text-anchor="middle" x="667.5" y="-122.5" font-family="Helvetica,sans-Serif" font-size="10.00">src/ending/code_80280000.c</text>
</a>
</g>
</g>
<!-- Node1&#45;&gt;Node8 -->
<g id="edge7_Node000001_Node000008" class="edge">
<title>Node1&#45;&gt;Node8</title>
<g id="a_edge7_Node000001_Node000008"><a xlink:title=" ">
<path fill="none" stroke="#63b8ff" d="M498.59,-173.21C543.07,-160.78 601.83,-144.35 637.02,-134.52"/>
<polygon fill="#63b8ff" stroke="#63b8ff" points="497.44,-169.89 488.76,-175.95 499.33,-176.63 497.44,-169.89"/>
</a>
</g>
</g>
<!-- Node9 -->
<g id="Node000009" class="node">
<title>Node9</title>
<g id="a_Node000009"><a xlink:href="code__80281C40_8c.html" target="_top" xlink:title=" ">
<polygon fill="white" stroke="#666666" points="918,-134.5 763,-134.5 763,-115.5 918,-115.5 918,-134.5"/>
<text text-anchor="middle" x="840.5" y="-122.5" font-family="Helvetica,sans-Serif" font-size="10.00">src/ending/code_80281C40.c</text>
</a>
</g>
</g>
<!-- Node1&#45;&gt;Node9 -->
<g id="edge8_Node000001_Node000009" class="edge">
<title>Node1&#45;&gt;Node9</title>
<g id="a_edge8_Node000001_Node000009"><a xlink:title=" ">
<path fill="none" stroke="#63b8ff" d="M508.19,-179.06C572.23,-168.99 669.78,-153.6 754.5,-140 765.4,-138.25 777.08,-136.36 788.21,-134.55"/>
<polygon fill="#63b8ff" stroke="#63b8ff" points="507.55,-175.62 498.21,-180.63 508.63,-182.54 507.55,-175.62"/>
</a>
</g>
</g>
<!-- Node4 -->
<g id="Node000004" class="node">
<title>Node4</title>
<g id="a_Node000004"><a xlink:href="debug_8inc_8c.html" target="_top" xlink:title=" ">
<polygon fill="white" stroke="#666666" points="267.5,-74 145.5,-74 145.5,-55 267.5,-55 267.5,-74"/>
<text text-anchor="middle" x="206.5" y="-62" font-family="Helvetica,sans-Serif" font-size="10.00">src/debug/debug.inc.c</text>
</a>
</g>
</g>
<!-- Node3&#45;&gt;Node4 -->
<g id="edge3_Node000003_Node000004" class="edge">
<title>Node3&#45;&gt;Node4</title>
<g id="a_edge3_Node000003_Node000004"><a xlink:title=" ">
<path fill="none" stroke="#63b8ff" d="M206.5,-105.16C206.5,-94.74 206.5,-82.3 206.5,-74.17"/>
<polygon fill="#63b8ff" stroke="#63b8ff" points="203,-105.37 206.5,-115.37 210,-105.37 203,-105.37"/>
</a>
</g>
</g>
<!-- Node5 -->
<g id="Node000005" class="node">
<title>Node5</title>
<g id="a_Node000005"><a xlink:href="debug_8c.html" target="_top" xlink:title=" ">
<polygon fill="white" stroke="#666666" points="259,-19 154,-19 154,0 259,0 259,-19"/>
<text text-anchor="middle" x="206.5" y="-7" font-family="Helvetica,sans-Serif" font-size="10.00">src/debug/debug.c</text>
</a>
</g>
</g>
<!-- Node4&#45;&gt;Node5 -->
<g id="edge4_Node000004_Node000005" class="edge">
<title>Node4&#45;&gt;Node5</title>
<g id="a_edge4_Node000004_Node000005"><a xlink:title=" ">
<path fill="none" stroke="#63b8ff" d="M206.5,-44.66C206.5,-35.93 206.5,-25.99 206.5,-19.09"/>
<polygon fill="#63b8ff" stroke="#63b8ff" points="203,-44.75 206.5,-54.75 210,-44.75 203,-44.75"/>
</a>
</g>
</g>
</g>
</svg>
