<?xml version="1.0" encoding="UTF-8" standalone="no"?>
<!DOCTYPE svg PUBLIC "-//W3C//DTD SVG 1.1//EN"
 "http://www.w3.org/Graphics/SVG/1.1/DTD/svg11.dtd">
<!-- Generated by graphviz version 2.43.0 (0)
 -->
<!-- Title: func_80282D90 Pages: 1 -->
<!--zoomable 508 -->

<svg id="main" version="1.1" xmlns="http://www.w3.org/2000/svg" xmlns:xlink="http://www.w3.org/1999/xlink" xml:space="preserve" onload="init(evt)">
<style type="text/css"><![CDATA[
.node, .edge {opacity: 0.7;}
.node.selected, .edge.selected {opacity: 1;}
.edge:hover path { stroke: red; }
.edge:hover polygon { stroke: red; fill: red; }
]]></style>

<defs>
  <circle id="rim" cx="0" cy="0" r="7"/>
  <circle id="rim2" cx="0" cy="0" r="3.5"/>
  <g id="zoomPlus">
    <use xlink:href="#rim" fill="#404040"><set attributeName="fill" to="#808080" begin="zoomplus.mouseover" end="zoomplus.mouseout"/></use>
    <path d="M-4,0h8M0,-4v8" fill="none" stroke="white" stroke-width="1.5" pointer-events="none"/>
  </g>
  <g id="zoomMin">
    <use xlink:href="#rim" fill="#404040"><set attributeName="fill" to="#808080" begin="zoomminus.mouseover" end="zoomminus.mouseout"/></use>
    <path d="M-4,0h8" fill="none" stroke="white" stroke-width="1.5" pointer-events="none"/>
  </g>
  <g id="arrowUp" transform="translate(30 24)">
    <use xlink:href="#rim"/>
    <path pointer-events="none" fill="none" stroke="white" stroke-width="1.5" d="M0,-3.0v7 M-2.5,-0.5L0,-3.0L2.5,-0.5"/>
  </g>
  <g id="arrowRight" transform="rotate(90) translate(36 -43)">
    <use xlink:href="#rim"/>
    <path pointer-events="none" fill="none" stroke="white" stroke-width="1.5" d="M0,-3.0v7 M-2.5,-0.5L0,-3.0L2.5,-0.5"/>
  </g>
  <g id="arrowDown" transform="rotate(180) translate(-30 -48)">
    <use xlink:href="#rim"/>
    <path pointer-events="none" fill="none" stroke="white" stroke-width="1.5" d="M0,-3.0v7 M-2.5,-0.5L0,-3.0L2.5,-0.5"/>
  </g>
  <g id="arrowLeft" transform="rotate(270) translate(-36 17)">
    <use xlink:href="#rim"/>
    <path pointer-events="none" fill="none" stroke="white" stroke-width="1.5" d="M0,-3.0v7 M-2.5,-0.5L0,-3.0L2.5,-0.5"/>
  </g>
  <g id="resetDef">
    <use xlink:href="#rim2" fill="#404040"><set attributeName="fill" to="#808080" begin="reset.mouseover" end="reset.mouseout"/></use>
  </g>
</defs>
<script type="application/ecmascript">
var viewWidth = 357;
var viewHeight = 508;
var sectionId = 'dynsection-17';
</script>
<script type="application/ecmascript" xlink:href="svg.min.js"/>
<svg id="graph" class="graph">
<g id="viewport">
<title>func_80282D90</title>
<!-- Node1 -->
<g id="Node000001" class="node">
<title>Node1</title>
<g id="a_Node000001"><a xlink:title=" ">
<polygon fill="#999999" stroke="#666666" points="349,-259 257,-259 257,-240 349,-240 349,-259"/>
<text text-anchor="middle" x="303" y="-247" font-family="Helvetica,sans-Serif" font-size="10.00">func_80282D90</text>
</a>
</g>
</g>
<!-- Node2 -->
<g id="Node000002" class="node">
<title>Node2</title>
<g id="a_Node000002"><a xlink:href="ceremony__and__credits_8c.html#a8935b9d0429d95b9c52b0e53fb66622d" target="_top" xlink:title=" ">
<polygon fill="white" stroke="#666666" points="221,-500 128,-500 128,-481 221,-481 221,-500"/>
<text text-anchor="middle" x="174.5" y="-488" font-family="Helvetica,sans-Serif" font-size="10.00">func_80283D2C</text>
</a>
</g>
</g>
<!-- Node1&#45;&gt;Node2 -->
<g id="edge1_Node000001_Node000002" class="edge">
<title>Node1&#45;&gt;Node2</title>
<g id="a_edge1_Node000001_Node000002"><a xlink:title=" ">
<path fill="none" stroke="#63b8ff" d="M300.19,-269.47C295.26,-312.31 277.93,-413.94 221,-472.5 217.68,-475.91 213.64,-478.69 209.35,-480.95"/>
<polygon fill="#63b8ff" stroke="#63b8ff" points="303.67,-269.77 301.23,-259.46 296.71,-269.04 303.67,-269.77"/>
</a>
</g>
</g>
<!-- Node3 -->
<g id="Node000003" class="node">
<title>Node3</title>
<g id="a_Node000003"><a xlink:href="ceremony__and__credits_8c.html#a7a216126878b2029dc1e0472ec183146" target="_top" xlink:title=" ">
<polygon fill="white" stroke="#666666" points="220.5,-463 128.5,-463 128.5,-444 220.5,-444 220.5,-463"/>
<text text-anchor="middle" x="174.5" y="-451" font-family="Helvetica,sans-Serif" font-size="10.00">func_80283EA0</text>
</a>
</g>
</g>
<!-- Node1&#45;&gt;Node3 -->
<g id="edge2_Node000001_Node000003" class="edge">
<title>Node1&#45;&gt;Node3</title>
<g id="a_edge2_Node000001_Node000003"><a xlink:title=" ">
<path fill="none" stroke="#63b8ff" d="M298.58,-269.15C291.1,-306.5 269.88,-388.25 221,-435.5 217.46,-438.92 213.18,-441.72 208.69,-444"/>
<polygon fill="#63b8ff" stroke="#63b8ff" points="302.07,-269.54 300.48,-259.07 295.19,-268.25 302.07,-269.54"/>
</a>
</g>
</g>
<!-- Node5 -->
<g id="Node000005" class="node">
<title>Node5</title>
<g id="a_Node000005"><a xlink:href="ceremony__and__credits_8c.html#a3b072bd0bf28a23f5fc641b27e71205c" target="_top" xlink:title=" ">
<polygon fill="white" stroke="#666666" points="220,-426 129,-426 129,-407 220,-407 220,-426"/>
<text text-anchor="middle" x="174.5" y="-414" font-family="Helvetica,sans-Serif" font-size="10.00">func_80284154</text>
</a>
</g>
</g>
<!-- Node1&#45;&gt;Node5 -->
<g id="edge4_Node000001_Node000005" class="edge">
<title>Node1&#45;&gt;Node5</title>
<g id="a_edge4_Node000001_Node000005"><a xlink:title=" ">
<path fill="none" stroke="#63b8ff" d="M296.2,-269.11C285.96,-300.54 261.82,-362.35 221,-398.5 217.18,-401.88 212.66,-404.66 207.96,-406.95"/>
<polygon fill="#63b8ff" stroke="#63b8ff" points="299.61,-269.93 299.25,-259.35 292.93,-267.85 299.61,-269.93"/>
</a>
</g>
</g>
<!-- Node6 -->
<g id="Node000006" class="node">
<title>Node6</title>
<g id="a_Node000006"><a xlink:href="ceremony__and__credits_8c.html#a6f5a7286d158ca76a91f016bd162cbd5" target="_top" xlink:title=" ">
<polygon fill="white" stroke="#666666" points="220.5,-389 128.5,-389 128.5,-370 220.5,-370 220.5,-389"/>
<text text-anchor="middle" x="174.5" y="-377" font-family="Helvetica,sans-Serif" font-size="10.00">func_802842A8</text>
</a>
</g>
</g>
<!-- Node1&#45;&gt;Node6 -->
<g id="edge5_Node000001_Node000006" class="edge">
<title>Node1&#45;&gt;Node6</title>
<g id="a_edge5_Node000001_Node000006"><a xlink:title=" ">
<path fill="none" stroke="#63b8ff" d="M292.93,-267.97C280.06,-292.47 254.31,-335.61 221,-361.5 216.71,-364.84 211.72,-367.63 206.65,-369.94"/>
<polygon fill="#63b8ff" stroke="#63b8ff" points="296.08,-269.5 297.51,-259.01 289.85,-266.32 296.08,-269.5"/>
</a>
</g>
</g>
<!-- Node7 -->
<g id="Node000007" class="node">
<title>Node7</title>
<g id="a_Node000007"><a xlink:href="ceremony__and__credits_8c.html#a63b2dab452a9b3fccf3dcaf7f4227575" target="_top" xlink:title=" ">
<polygon fill="white" stroke="#666666" points="220.5,-352 128.5,-352 128.5,-333 220.5,-333 220.5,-352"/>
<text text-anchor="middle" x="174.5" y="-340" font-family="Helvetica,sans-Serif" font-size="10.00">func_802842D8</text>
</a>
</g>
</g>
<!-- Node1&#45;&gt;Node7 -->
<g id="edge6_Node000001_Node000007" class="edge">
<title>Node1&#45;&gt;Node7</title>
<g id="a_edge6_Node000001_Node000007"><a xlink:title=" ">
<path fill="none" stroke="#63b8ff" d="M286.36,-267.38C271.06,-283.99 246.41,-308.5 221,-324.5 215.97,-327.67 210.29,-330.45 204.68,-332.82"/>
<polygon fill="#63b8ff" stroke="#63b8ff" points="289.37,-269.27 293.46,-259.5 284.17,-264.59 289.37,-269.27"/>
</a>
</g>
</g>
<!-- Node8 -->
<g id="Node000008" class="node">
<title>Node8</title>
<g id="a_Node000008"><a xlink:href="ceremony__and__credits_8c.html#a68fa22f20a6d3dd42df1cd19a8ab1485" target="_top" xlink:title=" ">
<polygon fill="white" stroke="#666666" points="220,-315 129,-315 129,-296 220,-296 220,-315"/>
<text text-anchor="middle" x="174.5" y="-303" font-family="Helvetica,sans-Serif" font-size="10.00">func_80284308</text>
</a>
</g>
</g>
<!-- Node1&#45;&gt;Node8 -->
<g id="edge7_Node000001_Node000008" class="edge">
<title>Node1&#45;&gt;Node8</title>
<g id="a_edge7_Node000001_Node000008"><a xlink:title=" ">
<path fill="none" stroke="#63b8ff" d="M273.48,-263.41C258.05,-270.8 238.6,-279.9 221,-287.5 214.45,-290.33 207.3,-293.24 200.65,-295.87"/>
<polygon fill="#63b8ff" stroke="#63b8ff" points="275.02,-266.55 282.51,-259.06 271.98,-260.24 275.02,-266.55"/>
</a>
</g>
</g>
<!-- Node9 -->
<g id="Node000009" class="node">
<title>Node9</title>
<g id="a_Node000009"><a xlink:href="ceremony__and__credits_8c.html#ab6691db4ef21f0303d256890dab2934e" target="_top" xlink:title=" ">
<polygon fill="white" stroke="#666666" points="220,-278 129,-278 129,-259 220,-259 220,-278"/>
<text text-anchor="middle" x="174.5" y="-266" font-family="Helvetica,sans-Serif" font-size="10.00">func_80284418</text>
</a>
</g>
</g>
<!-- Node1&#45;&gt;Node9 -->
<g id="edge8_Node000001_Node000009" class="edge">
<title>Node1&#45;&gt;Node9</title>
<g id="a_edge8_Node000001_Node000009"><a xlink:title=" ">
<path fill="none" stroke="#63b8ff" d="M246.75,-257.8C237.83,-259.14 228.7,-260.51 220.07,-261.81"/>
<polygon fill="#63b8ff" stroke="#63b8ff" points="247.32,-261.25 256.69,-256.31 246.28,-254.33 247.32,-261.25"/>
</a>
</g>
</g>
<!-- Node10 -->
<g id="Node000010" class="node">
<title>Node10</title>
<g id="a_Node000010"><a xlink:href="ceremony__and__credits_8c.html#a693bf9a662aba46021ba1c1148f90730" target="_top" xlink:title=" ">
<polygon fill="white" stroke="#666666" points="220,-241 129,-241 129,-222 220,-222 220,-241"/>
<text text-anchor="middle" x="174.5" y="-229" font-family="Helvetica,sans-Serif" font-size="10.00">func_80284494</text>
</a>
</g>
</g>
<!-- Node1&#45;&gt;Node10 -->
<g id="edge9_Node000001_Node000010" class="edge">
<title>Node1&#45;&gt;Node10</title>
<g id="a_edge9_Node000001_Node000010"><a xlink:title=" ">
<path fill="none" stroke="#63b8ff" d="M246.75,-241.64C237.83,-240.37 228.7,-239.07 220.07,-237.84"/>
<polygon fill="#63b8ff" stroke="#63b8ff" points="246.29,-245.11 256.69,-243.05 247.28,-238.18 246.29,-245.11"/>
</a>
</g>
</g>
<!-- Node11 -->
<g id="Node000011" class="node">
<title>Node11</title>
<g id="a_Node000011"><a xlink:href="ceremony__and__credits_8c.html#a3c6c2cfa6b1007b94a3cddf722bb88c3" target="_top" xlink:title=" ">
<polygon fill="white" stroke="#666666" points="220.5,-204 128.5,-204 128.5,-185 220.5,-185 220.5,-204"/>
<text text-anchor="middle" x="174.5" y="-192" font-family="Helvetica,sans-Serif" font-size="10.00">func_802844FC</text>
</a>
</g>
</g>
<!-- Node1&#45;&gt;Node11 -->
<g id="edge10_Node000001_Node000011" class="edge">
<title>Node1&#45;&gt;Node11</title>
<g id="a_edge10_Node000001_Node000011"><a xlink:title=" ">
<path fill="none" stroke="#63b8ff" d="M271.35,-235.68C256.23,-228.91 237.69,-220.69 221,-213.5 213.77,-210.38 205.86,-207.05 198.69,-204.06"/>
<polygon fill="#63b8ff" stroke="#63b8ff" points="270.18,-238.99 280.74,-239.89 273.05,-232.61 270.18,-238.99"/>
</a>
</g>
</g>
<!-- Node12 -->
<g id="Node000012" class="node">
<title>Node12</title>
<g id="a_Node000012"><a xlink:href="ceremony__and__credits_8c.html#aa0abfaaaac858423f5d7c3ced671cb71" target="_top" xlink:title=" ">
<polygon fill="white" stroke="#666666" points="220.5,-167 128.5,-167 128.5,-148 220.5,-148 220.5,-167"/>
<text text-anchor="middle" x="174.5" y="-155" font-family="Helvetica,sans-Serif" font-size="10.00">func_8028454C</text>
</a>
</g>
</g>
<!-- Node1&#45;&gt;Node12 -->
<g id="edge11_Node000001_Node000012" class="edge">
<title>Node1&#45;&gt;Node12</title>
<g id="a_edge11_Node000001_Node000012"><a xlink:title=" ">
<path fill="none" stroke="#63b8ff" d="M286.2,-232.23C270.79,-216.16 246.06,-192.37 221,-176.5 215.36,-172.93 208.93,-169.77 202.72,-167.1"/>
<polygon fill="#63b8ff" stroke="#63b8ff" points="283.97,-234.96 293.37,-239.85 289.06,-230.17 283.97,-234.96"/>
</a>
</g>
</g>
<!-- Node13 -->
<g id="Node000013" class="node">
<title>Node13</title>
<g id="a_Node000013"><a xlink:href="ceremony__and__credits_8c.html#ac7ae2d8ec7d1d4098ba712b75bb0632b" target="_top" xlink:title=" ">
<polygon fill="white" stroke="#666666" points="220.5,-130 128.5,-130 128.5,-111 220.5,-111 220.5,-130"/>
<text text-anchor="middle" x="174.5" y="-118" font-family="Helvetica,sans-Serif" font-size="10.00">func_802845EC</text>
</a>
</g>
</g>
<!-- Node1&#45;&gt;Node13 -->
<g id="edge12_Node000001_Node000013" class="edge">
<title>Node1&#45;&gt;Node13</title>
<g id="a_edge12_Node000001_Node000013"><a xlink:title=" ">
<path fill="none" stroke="#63b8ff" d="M292.41,-230.77C279.25,-206.71 253.48,-165.01 221,-139.5 216.29,-135.8 210.75,-132.7 205.19,-130.15"/>
<polygon fill="#63b8ff" stroke="#63b8ff" points="289.48,-232.71 297.26,-239.9 295.66,-229.43 289.48,-232.71"/>
</a>
</g>
</g>
<!-- Node15 -->
<g id="Node000015" class="node">
<title>Node15</title>
<g id="a_Node000015"><a xlink:href="ceremony__and__credits_8c.html#a76ef7f5767dd2b3e68118897ed000b5f" target="_top" xlink:title=" ">
<polygon fill="white" stroke="#666666" points="220.5,-93 128.5,-93 128.5,-74 220.5,-74 220.5,-93"/>
<text text-anchor="middle" x="174.5" y="-81" font-family="Helvetica,sans-Serif" font-size="10.00">func_802846B4</text>
</a>
</g>
</g>
<!-- Node1&#45;&gt;Node15 -->
<g id="edge14_Node000001_Node000015" class="edge">
<title>Node1&#45;&gt;Node15</title>
<g id="a_edge14_Node000001_Node000015"><a xlink:title=" ">
<path fill="none" stroke="#63b8ff" d="M296.05,-230.24C285.6,-199.35 261.16,-138.54 221,-102.5 216.8,-98.73 211.73,-95.64 206.54,-93.13"/>
<polygon fill="#63b8ff" stroke="#63b8ff" points="292.75,-231.4 299.17,-239.83 299.41,-229.24 292.75,-231.4"/>
</a>
</g>
</g>
<!-- Node16 -->
<g id="Node000016" class="node">
<title>Node16</title>
<g id="a_Node000016"><a xlink:href="ceremony__and__credits_8c.html#a3ee3d3f58b120605ccfac876e92c60e4" target="_top" xlink:title=" ">
<polygon fill="white" stroke="#666666" points="220,-56 129,-56 129,-37 220,-37 220,-56"/>
<text text-anchor="middle" x="174.5" y="-44" font-family="Helvetica,sans-Serif" font-size="10.00">func_802846E4</text>
</a>
</g>
</g>
<!-- Node1&#45;&gt;Node16 -->
<g id="edge15_Node000001_Node000016" class="edge">
<title>Node1&#45;&gt;Node16</title>
<g id="a_edge15_Node000001_Node000016"><a xlink:title=" ">
<path fill="none" stroke="#63b8ff" d="M298.33,-229.62C290.51,-192.57 268.87,-112.46 221,-65.5 217.09,-61.66 212.29,-58.56 207.29,-56.06"/>
<polygon fill="#63b8ff" stroke="#63b8ff" points="294.94,-230.53 300.33,-239.65 301.81,-229.16 294.94,-230.53"/>
</a>
</g>
</g>
<!-- Node17 -->
<g id="Node000017" class="node">
<title>Node17</title>
<g id="a_Node000017"><a xlink:href="ceremony__and__credits_8c.html#a660fba86a90850e23820a49fb13f434b" target="_top" xlink:title=" ">
<polygon fill="white" stroke="#666666" points="220.5,-19 128.5,-19 128.5,0 220.5,0 220.5,-19"/>
<text text-anchor="middle" x="174.5" y="-7" font-family="Helvetica,sans-Serif" font-size="10.00">func_802847CC</text>
</a>
</g>
</g>
<!-- Node1&#45;&gt;Node17 -->
<g id="edge16_Node000001_Node000017" class="edge">
<title>Node1&#45;&gt;Node17</title>
<g id="a_edge16_Node000001_Node000017"><a xlink:title=" ">
<path fill="none" stroke="#63b8ff" d="M300.01,-229.52C294.77,-187.05 276.89,-86.92 221,-28.5 217.33,-24.66 212.77,-21.57 207.97,-19.09"/>
<polygon fill="#63b8ff" stroke="#63b8ff" points="296.56,-230.12 301.15,-239.67 303.51,-229.34 296.56,-230.12"/>
</a>
</g>
</g>
<!-- Node4 -->
<g id="Node000004" class="node">
<title>Node4</title>
<g id="a_Node000004"><a xlink:href="ceremony__and__credits_8c.html#acc03328fb9aab7ca6beb3033035f598c" target="_top" xlink:title=" ">
<polygon fill="white" stroke="#666666" points="92,-463 0,-463 0,-444 92,-444 92,-463"/>
<text text-anchor="middle" x="46" y="-451" font-family="Helvetica,sans-Serif" font-size="10.00">func_802840C8</text>
</a>
</g>
</g>
<!-- Node3&#45;&gt;Node4 -->
<g id="edge3_Node000003_Node000004" class="edge">
<title>Node3&#45;&gt;Node4</title>
<g id="a_edge3_Node000003_Node000004"><a xlink:title=" ">
<path fill="none" stroke="#63b8ff" d="M117.93,-453.5C109.4,-453.5 100.69,-453.5 92.42,-453.5"/>
<polygon fill="#63b8ff" stroke="#63b8ff" points="118.19,-457 128.19,-453.5 118.19,-450 118.19,-457"/>
</a>
</g>
</g>
<!-- Node14 -->
<g id="Node000014" class="node">
<title>Node14</title>
<g id="a_Node000014"><a xlink:href="ceremony__and__credits_8c.html#a988a9c78f6290f3213f9f9aa821f70ab" target="_top" xlink:title=" ">
<polygon fill="white" stroke="#666666" points="91.5,-130 0.5,-130 0.5,-111 91.5,-111 91.5,-130"/>
<text text-anchor="middle" x="46" y="-118" font-family="Helvetica,sans-Serif" font-size="10.00">func_80284648</text>
</a>
</g>
</g>
<!-- Node13&#45;&gt;Node14 -->
<g id="edge13_Node000013_Node000014" class="edge">
<title>Node13&#45;&gt;Node14</title>
<g id="a_edge13_Node000013_Node000014"><a xlink:title=" ">
<path fill="none" stroke="#63b8ff" d="M117.96,-120.5C109.13,-120.5 100.1,-120.5 91.57,-120.5"/>
<polygon fill="#63b8ff" stroke="#63b8ff" points="118.19,-124 128.19,-120.5 118.19,-117 118.19,-124"/>
</a>
</g>
</g>
</g>
</svg>

<g id="navigator" transform="translate(0 0)" fill="#404254">
  <rect fill="#f2f5e9" fill-opacity="0.5" stroke="#606060" stroke-width=".5" x="0" y="0" width="60" height="60"/>
  <use id="zoomplus" xlink:href="#zoomPlus" x="17" y="9" onmousedown="handleZoom(evt,'in')"/>
  <use id="zoomminus" xlink:href="#zoomMin" x="42" y="9" onmousedown="handleZoom(evt,'out')"/>
  <use id="reset" xlink:href="#resetDef" x="30" y="36" onmousedown="handleReset()"/>
   <use id="arrowup" xlink:href="#arrowUp" x="0" y="0" onmousedown="handlePan(0,-1)"/>
  <use id="arrowright" xlink:href="#arrowRight" x="0" y="0" onmousedown="handlePan(1,0)"/>
  <use id="arrowdown" xlink:href="#arrowDown" x="0" y="0" onmousedown="handlePan(0,1)"/>
  <use id="arrowleft" xlink:href="#arrowLeft" x="0" y="0" onmousedown="handlePan(-1,0)"/>
</g>
<svg viewBox="0 0 15 15" width="100%" height="30px" preserveAspectRatio="xMaxYMin meet">
 <g id="arrow_out" transform="scale(0.3 0.3)">
  <a xlink:href="ceremony__and__credits_8h_ae18e22cbc81270341ae4191c62fff685_icgraph_org.svg" target="_base">
   <rect id="button" ry="5" rx="5" y="6" x="6" height="38" width="38"
        fill="#f2f5e9" fill-opacity="0.5" stroke="#606060" stroke-width="1.0"/>
   <path id="arrow"
     d="M 11.500037,31.436501 C 11.940474,20.09759 22.043105,11.32322 32.158766,21.979434 L 37.068811,17.246167 C 37.068811,17.246167 37.088388,32 37.088388,32 L 22.160133,31.978069 C 22.160133,31.978069 26.997745,27.140456 26.997745,27.140456 C 18.528582,18.264221 13.291696,25.230495 11.500037,31.436501 z"
     style="fill:#404040;"/>
  </a>
 </g>
</svg>

<style type='text/css'>
<![CDATA[
[data-mouse-over-selected='false'] { opacity: 0.7; }
[data-mouse-over-selected='true']  { opacity: 1.0; }
]]>
</style>
<script type="application/ecmascript"><![CDATA[
document.addEventListener('DOMContentLoaded', (event) => {
  highlightEdges();
  highlightAdjacentNodes();
});
]]></script>
</svg>
