<?xml version="1.0" encoding="UTF-8" standalone="no"?>
<!DOCTYPE svg PUBLIC "-//W3C//DTD SVG 1.1//EN"
 "http://www.w3.org/Graphics/SVG/1.1/DTD/svg11.dtd">
<!-- Generated by graphviz version 2.43.0 (0)
 -->
<!-- Title: func_800A4B38 Pages: 1 -->
<!--zoomable 408 -->
<svg id="main" version="1.1" xmlns="http://www.w3.org/2000/svg" xmlns:xlink="http://www.w3.org/1999/xlink" xml:space="preserve" onload="init(evt)">
<style type="text/css"><![CDATA[
.edge:hover path { stroke: red; }
.edge:hover polygon { stroke: red; fill: red; }
]]></style>
<script type="text/javascript"><![CDATA[
var edges = document.getElementsByTagName('g');
if (edges && edges.length) {
  for (var i=0;i<edges.length;i++) {
    if (edges[i].id.substr(0,4)=='edge') {
      edges[i].setAttribute('class','edge');
    }
  }
}
]]></script>
        <defs>
                <circle id="rim" cx="0" cy="0" r="7"/>
                <circle id="rim2" cx="0" cy="0" r="3.5"/>
                <g id="zoomPlus">
                        <use xlink:href="#rim" fill="#404040">
                                <set attributeName="fill" to="#808080" begin="zoomplus.mouseover" end="zoomplus.mouseout"/>
                        </use>
                        <path d="M-4,0h8M0,-4v8" fill="none" stroke="white" stroke-width="1.5" pointer-events="none"/>
                </g>
                <g id="zoomMin">
                        <use xlink:href="#rim" fill="#404040">
                                <set attributeName="fill" to="#808080" begin="zoomminus.mouseover" end="zoomminus.mouseout"/>
                        </use>
                        <path d="M-4,0h8" fill="none" stroke="white" stroke-width="1.5" pointer-events="none"/>
                </g>
                <g id="dirArrow">
                        <path fill="none" stroke="white" stroke-width="1.5" d="M0,-3.0v7 M-2.5,-0.5L0,-3.0L2.5,-0.5"/>
                </g>
               <g id="resetDef">
                       <use xlink:href="#rim2" fill="#404040">
                               <set attributeName="fill" to="#808080" begin="reset.mouseover" end="reset.mouseout"/>
                       </use>
               </g>
        </defs>

<script type="text/javascript">
var viewWidth = 1049;
var viewHeight = 408;
var sectionId = 'dynsection-192';
</script>
<script xlink:href="svgpan.js"/>
<svg id="graph" class="graph">
<g id="viewport">
<title>func_800A4B38</title>
<polygon fill="white" stroke="transparent" points="-4,4 -4,-404 1045,-404 1045,4 -4,4"/>
<!-- Node1 -->
<g id="node1" class="node">
<title>Node1</title>
<g id="a_node1"><a xlink:title=" ">
<polygon fill="#bfbfbf" stroke="black" points="0,-133.5 0,-152.5 92,-152.5 92,-133.5 0,-133.5"/>
<text text-anchor="middle" x="46" y="-140.5" font-family="Helvetica,sans-Serif" font-size="10.00">func_800A4B38</text>
</a>
</g>
</g>
<!-- Node2 -->
<g id="node2" class="node">
<title>Node2</title>
<g id="a_node2"><a xlink:href="code__80091750_8c.html#a99b9a375542a58f4a3a5309e04013131" target="_top" xlink:title=" ">
<polygon fill="white" stroke="black" points="128,-190.5 128,-209.5 221,-209.5 221,-190.5 128,-190.5"/>
<text text-anchor="middle" x="174.5" y="-197.5" font-family="Helvetica,sans-Serif" font-size="10.00">func_800A4BC8</text>
</a>
</g>
</g>
<!-- Node1&#45;&gt;Node2 -->
<g id="edge1" class="edge">
<title>Node1&#45;&gt;Node2</title>
<path fill="none" stroke="midnightblue" d="M66.86,-152.61C83.19,-160.44 106.98,-171.69 128,-181 131.96,-182.76 136.14,-184.56 140.28,-186.33"/>
<polygon fill="midnightblue" stroke="midnightblue" points="139.23,-189.68 149.8,-190.33 141.94,-183.23 139.23,-189.68"/>
</g>
<!-- Node29 -->
<g id="node29" class="node">
<title>Node29</title>
<g id="a_node29"><a xlink:href="code__80091750_8h.html#abffe2f2efdc736a24e0e01cbe8ac3504" target="_top" xlink:title=" ">
<polygon fill="white" stroke="black" points="128.5,-152.5 128.5,-171.5 220.5,-171.5 220.5,-152.5 128.5,-152.5"/>
<text text-anchor="middle" x="174.5" y="-159.5" font-family="Helvetica,sans-Serif" font-size="10.00">func_800A4EF8</text>
</a>
</g>
</g>
<!-- Node1&#45;&gt;Node29 -->
<g id="edge39" class="edge">
<title>Node1&#45;&gt;Node29</title>
<path fill="none" stroke="midnightblue" d="M92.31,-149.81C100.67,-151.06 109.48,-152.38 118.1,-153.68"/>
<polygon fill="midnightblue" stroke="midnightblue" points="117.67,-157.15 128.08,-155.18 118.71,-150.23 117.67,-157.15"/>
</g>
<!-- Node30 -->
<g id="node30" class="node">
<title>Node30</title>
<g id="a_node30"><a xlink:href="code__80091750_8h.html#adf95bbeb382b088e6f5e8376c4af689d" target="_top" xlink:title=" ">
<polygon fill="white" stroke="black" points="128.5,-114.5 128.5,-133.5 220.5,-133.5 220.5,-114.5 128.5,-114.5"/>
<text text-anchor="middle" x="174.5" y="-121.5" font-family="Helvetica,sans-Serif" font-size="10.00">func_800A5084</text>
</a>
</g>
</g>
<!-- Node1&#45;&gt;Node30 -->
<g id="edge40" class="edge">
<title>Node1&#45;&gt;Node30</title>
<path fill="none" stroke="midnightblue" d="M92.31,-136.19C100.67,-134.94 109.48,-133.62 118.1,-132.32"/>
<polygon fill="midnightblue" stroke="midnightblue" points="118.71,-135.77 128.08,-130.82 117.67,-128.85 118.71,-135.77"/>
</g>
<!-- Node31 -->
<g id="node31" class="node">
<title>Node31</title>
<g id="a_node31"><a xlink:href="code__80091750_8h.html#a1c18d2281bd9bf9eb14334610b9eddb7" target="_top" xlink:title=" ">
<polygon fill="white" stroke="black" points="128.5,-76.5 128.5,-95.5 220.5,-95.5 220.5,-76.5 128.5,-76.5"/>
<text text-anchor="middle" x="174.5" y="-83.5" font-family="Helvetica,sans-Serif" font-size="10.00">func_800A5360</text>
</a>
</g>
</g>
<!-- Node1&#45;&gt;Node31 -->
<g id="edge41" class="edge">
<title>Node1&#45;&gt;Node31</title>
<path fill="none" stroke="midnightblue" d="M66.86,-133.39C83.19,-125.56 106.98,-114.31 128,-105 131.96,-103.24 136.14,-101.44 140.28,-99.67"/>
<polygon fill="midnightblue" stroke="midnightblue" points="141.94,-102.77 149.8,-95.67 139.23,-96.32 141.94,-102.77"/>
</g>
<!-- Node3 -->
<g id="node3" class="node">
<title>Node3</title>
<g id="a_node3"><a xlink:href="code__80091750_8c.html#ada31dcf86891836b6e6f9c6021915df4" target="_top" xlink:title=" ">
<polygon fill="white" stroke="black" points="307.5,-380.5 307.5,-399.5 371.5,-399.5 371.5,-380.5 307.5,-380.5"/>
<text text-anchor="middle" x="339.5" y="-387.5" font-family="Helvetica,sans-Serif" font-size="10.00">draw_box</text>
</a>
</g>
</g>
<!-- Node2&#45;&gt;Node3 -->
<g id="edge2" class="edge">
<title>Node2&#45;&gt;Node3</title>
<path fill="none" stroke="midnightblue" d="M177.08,-209.54C182.44,-238.71 202.68,-327.29 257,-371 268.39,-380.16 283.41,-385.06 297.45,-387.62"/>
<polygon fill="midnightblue" stroke="midnightblue" points="297.03,-391.1 307.43,-389.11 298.06,-384.18 297.03,-391.1"/>
</g>
<!-- Node5 -->
<g id="node5" class="node">
<title>Node5</title>
<g id="a_node5"><a xlink:href="code__80091750_8c.html#a56070e543b5a17f191bc4ae802bc5050" target="_top" xlink:title=" ">
<polygon fill="white" stroke="black" points="307,-342.5 307,-361.5 372,-361.5 372,-342.5 307,-342.5"/>
<text text-anchor="middle" x="339.5" y="-349.5" font-family="Helvetica,sans-Serif" font-size="10.00">draw_text</text>
</a>
</g>
</g>
<!-- Node2&#45;&gt;Node5 -->
<g id="edge4" class="edge">
<title>Node2&#45;&gt;Node5</title>
<path fill="none" stroke="midnightblue" d="M178.44,-209.5C186.56,-234.13 211.76,-300.36 257,-333 268.45,-341.26 282.96,-345.99 296.55,-348.68"/>
<polygon fill="midnightblue" stroke="midnightblue" points="296.26,-352.18 306.7,-350.36 297.41,-345.27 296.26,-352.18"/>
</g>
<!-- Node7 -->
<g id="node7" class="node">
<title>Node7</title>
<g id="a_node7"><a xlink:href="code__80091750_8c.html#ac8c529f4948a8b2e2a5c8a8e8dd69683" target="_top" xlink:title=" ">
<polygon fill="white" stroke="black" points="293.5,-304.5 293.5,-323.5 385.5,-323.5 385.5,-304.5 293.5,-304.5"/>
<text text-anchor="middle" x="339.5" y="-311.5" font-family="Helvetica,sans-Serif" font-size="10.00">func_800921C0</text>
</a>
</g>
</g>
<!-- Node2&#45;&gt;Node7 -->
<g id="edge6" class="edge">
<title>Node2&#45;&gt;Node7</title>
<path fill="none" stroke="midnightblue" d="M181.62,-209.74C193.72,-228.2 222.54,-268.37 257,-290 265.16,-295.12 274.46,-299.19 283.79,-302.42"/>
<polygon fill="midnightblue" stroke="midnightblue" points="282.88,-305.8 293.47,-305.48 284.99,-299.13 282.88,-305.8"/>
</g>
<!-- Node9 -->
<g id="node9" class="node">
<title>Node9</title>
<g id="a_node9"><a xlink:href="code__80091750_8c.html#a1a002f259a6c887d6672085b8cda7d4d" target="_top" xlink:title=" ">
<polygon fill="white" stroke="black" points="484.5,-266.5 484.5,-285.5 570.5,-285.5 570.5,-266.5 484.5,-266.5"/>
<text text-anchor="middle" x="527.5" y="-273.5" font-family="Helvetica,sans-Serif" font-size="10.00">set_text_color</text>
</a>
</g>
</g>
<!-- Node2&#45;&gt;Node9 -->
<g id="edge38" class="edge">
<title>Node2&#45;&gt;Node9</title>
<path fill="none" stroke="midnightblue" d="M185.52,-209.79C199.94,-223.19 228.03,-246.74 257,-257 329.07,-282.52 418.62,-283.25 474.17,-280.4"/>
<polygon fill="midnightblue" stroke="midnightblue" points="474.69,-283.88 484.47,-279.82 474.29,-276.89 474.69,-283.88"/>
</g>
<!-- Node10 -->
<g id="node10" class="node">
<title>Node10</title>
<g id="a_node10"><a xlink:href="code__80091750_8c.html#aff76c54297e1ff8ec5c41ec9b3591807" target="_top" xlink:title=" ">
<polygon fill="white" stroke="black" points="294,-190.5 294,-209.5 385,-209.5 385,-190.5 294,-190.5"/>
<text text-anchor="middle" x="339.5" y="-197.5" font-family="Helvetica,sans-Serif" font-size="10.00">func_80093324</text>
</a>
</g>
</g>
<!-- Node2&#45;&gt;Node10 -->
<g id="edge9" class="edge">
<title>Node2&#45;&gt;Node10</title>
<path fill="none" stroke="midnightblue" d="M221.34,-200C240.75,-200 263.53,-200 283.81,-200"/>
<polygon fill="midnightblue" stroke="midnightblue" points="283.85,-203.5 293.85,-200 283.85,-196.5 283.85,-203.5"/>
</g>
<!-- Node19 -->
<g id="node19" class="node">
<title>Node19</title>
<g id="a_node19"><a xlink:href="code__80091750_8c.html#a821a89b2ab543748ef6f3fc4387030c7" target="_top" xlink:title=" ">
<polygon fill="white" stroke="black" points="293.5,-228.5 293.5,-247.5 385.5,-247.5 385.5,-228.5 293.5,-228.5"/>
<text text-anchor="middle" x="339.5" y="-235.5" font-family="Helvetica,sans-Serif" font-size="10.00">func_800939C8</text>
</a>
</g>
</g>
<!-- Node2&#45;&gt;Node19 -->
<g id="edge19" class="edge">
<title>Node2&#45;&gt;Node19</title>
<path fill="none" stroke="midnightblue" d="M216.63,-209.59C238.24,-214.63 264.91,-220.84 287.79,-226.18"/>
<polygon fill="midnightblue" stroke="midnightblue" points="287.13,-229.62 297.66,-228.48 288.72,-222.8 287.13,-229.62"/>
</g>
<!-- Node21 -->
<g id="node21" class="node">
<title>Node21</title>
<g id="a_node21"><a xlink:href="code__800B45E0_8c.html#a590a89e6ed89945271c4289d6cadf64e" target="_top" xlink:title=" ">
<polygon fill="white" stroke="black" points="293.5,-114.5 293.5,-133.5 385.5,-133.5 385.5,-114.5 293.5,-114.5"/>
<text text-anchor="middle" x="339.5" y="-121.5" font-family="Helvetica,sans-Serif" font-size="10.00">func_800B4E24</text>
</a>
</g>
</g>
<!-- Node2&#45;&gt;Node21 -->
<g id="edge25" class="edge">
<title>Node2&#45;&gt;Node21</title>
<path fill="none" stroke="midnightblue" d="M203.89,-190.3C209.78,-187.7 215.79,-184.6 221,-181 240.15,-167.79 236.82,-154.57 257,-143 265.05,-138.38 274.16,-134.89 283.3,-132.24"/>
<polygon fill="midnightblue" stroke="midnightblue" points="284.37,-135.58 293.18,-129.69 282.62,-128.8 284.37,-135.58"/>
</g>
<!-- Node23 -->
<g id="node23" class="node">
<title>Node23</title>
<g id="a_node23"><a xlink:href="code__800B45E0_8c.html#aeb6bf308b677f5d69746807a3404ed49" target="_top" xlink:title=" ">
<polygon fill="white" stroke="black" points="293.5,-152.5 293.5,-171.5 385.5,-171.5 385.5,-152.5 293.5,-152.5"/>
<text text-anchor="middle" x="339.5" y="-159.5" font-family="Helvetica,sans-Serif" font-size="10.00">func_800B4F2C</text>
</a>
</g>
</g>
<!-- Node2&#45;&gt;Node23 -->
<g id="edge27" class="edge">
<title>Node2&#45;&gt;Node23</title>
<path fill="none" stroke="midnightblue" d="M216.63,-190.41C238.24,-185.37 264.91,-179.16 287.79,-173.82"/>
<polygon fill="midnightblue" stroke="midnightblue" points="288.72,-177.2 297.66,-171.52 287.13,-170.38 288.72,-177.2"/>
</g>
<!-- Node24 -->
<g id="node24" class="node">
<title>Node24</title>
<g id="a_node24"><a xlink:href="code__80091750_8c.html#ae4a4791eb4ac7787962d3583e77cd0c3" target="_top" xlink:title=" ">
<polygon fill="white" stroke="black" points="257,-76.5 257,-95.5 422,-95.5 422,-76.5 257,-76.5"/>
<text text-anchor="middle" x="339.5" y="-83.5" font-family="Helvetica,sans-Serif" font-size="10.00">get_time_record_centiseconds</text>
</a>
</g>
</g>
<!-- Node2&#45;&gt;Node24 -->
<g id="edge29" class="edge">
<title>Node2&#45;&gt;Node24</title>
<path fill="none" stroke="midnightblue" d="M207.2,-190.35C212.21,-187.86 217.04,-184.78 221,-181 248.04,-155.2 227.91,-128.46 257,-105 259.08,-103.32 261.28,-101.79 263.57,-100.39"/>
<polygon fill="midnightblue" stroke="midnightblue" points="265.55,-103.31 272.82,-95.6 262.33,-97.09 265.55,-103.31"/>
</g>
<!-- Node27 -->
<g id="node27" class="node">
<title>Node27</title>
<g id="a_node27"><a xlink:href="code__80091750_8c.html#a21c2fdc9386fe425d41630f96e3d3dd1" target="_top" xlink:title=" ">
<polygon fill="white" stroke="black" points="269,-38.5 269,-57.5 410,-57.5 410,-38.5 269,-38.5"/>
<text text-anchor="middle" x="339.5" y="-45.5" font-family="Helvetica,sans-Serif" font-size="10.00">get_time_record_minutes</text>
</a>
</g>
</g>
<!-- Node2&#45;&gt;Node27 -->
<g id="edge32" class="edge">
<title>Node2&#45;&gt;Node27</title>
<path fill="none" stroke="midnightblue" d="M208.58,-190.31C213.19,-187.85 217.53,-184.79 221,-181 256.85,-141.78 218.01,-103.1 257,-67 258.69,-65.44 260.48,-63.99 262.36,-62.66"/>
<polygon fill="midnightblue" stroke="midnightblue" points="264.24,-65.62 271.06,-57.51 260.67,-59.59 264.24,-65.62"/>
</g>
<!-- Node28 -->
<g id="node28" class="node">
<title>Node28</title>
<g id="a_node28"><a xlink:href="code__80091750_8c.html#a91e90cea3ae1beeae273c1da9fe7fcfd" target="_top" xlink:title=" ">
<polygon fill="white" stroke="black" points="269,-0.5 269,-19.5 410,-19.5 410,-0.5 269,-0.5"/>
<text text-anchor="middle" x="339.5" y="-7.5" font-family="Helvetica,sans-Serif" font-size="10.00">get_time_record_seconds</text>
</a>
</g>
</g>
<!-- Node2&#45;&gt;Node28 -->
<g id="edge35" class="edge">
<title>Node2&#45;&gt;Node28</title>
<path fill="none" stroke="midnightblue" d="M209.29,-190.28C213.69,-187.83 217.79,-184.78 221,-181 265.93,-128.08 207.82,-78 257,-29 258.43,-27.58 259.94,-26.25 261.52,-25.02"/>
<polygon fill="midnightblue" stroke="midnightblue" points="263.45,-27.94 269.98,-19.59 259.67,-22.05 263.45,-27.94"/>
</g>
<!-- Node4 -->
<g id="node4" class="node">
<title>Node4</title>
<g id="a_node4"><a xlink:href="code__80091750_8c.html#a2341569d8bfc9b8aac7d5dab7933c999" target="_top" xlink:title=" ">
<polygon fill="white" stroke="black" points="487.5,-380.5 487.5,-399.5 567.5,-399.5 567.5,-380.5 487.5,-380.5"/>
<text text-anchor="middle" x="527.5" y="-387.5" font-family="Helvetica,sans-Serif" font-size="10.00">swap_values</text>
</a>
</g>
</g>
<!-- Node3&#45;&gt;Node4 -->
<g id="edge3" class="edge">
<title>Node3&#45;&gt;Node4</title>
<path fill="none" stroke="midnightblue" d="M371.63,-390C400.4,-390 443.64,-390 477.12,-390"/>
<polygon fill="midnightblue" stroke="midnightblue" points="477.17,-393.5 487.17,-390 477.17,-386.5 477.17,-393.5"/>
</g>
<!-- Node6 -->
<g id="node6" class="node">
<title>Node6</title>
<g id="a_node6"><a xlink:href="code__80091750_8h.html#a8362cb3f939076909d2af4d03655d758" target="_top" xlink:title=" ">
<polygon fill="white" stroke="black" points="492.5,-342.5 492.5,-361.5 562.5,-361.5 562.5,-342.5 492.5,-342.5"/>
<text text-anchor="middle" x="527.5" y="-349.5" font-family="Helvetica,sans-Serif" font-size="10.00">print_text1</text>
</a>
</g>
</g>
<!-- Node5&#45;&gt;Node6 -->
<g id="edge5" class="edge">
<title>Node5&#45;&gt;Node6</title>
<path fill="none" stroke="midnightblue" d="M372.05,-352C402.3,-352 448.24,-352 482.16,-352"/>
<polygon fill="midnightblue" stroke="midnightblue" points="482.27,-355.5 492.27,-352 482.27,-348.5 482.27,-355.5"/>
</g>
<!-- Node8 -->
<g id="node8" class="node">
<title>Node8</title>
<g id="a_node8"><a xlink:href="menus_8c.html#a14ab660d89fba15b26612b62c5baca99" target="_top" xlink:title=" ">
<polygon fill="white" stroke="black" points="481.5,-304.5 481.5,-323.5 573.5,-323.5 573.5,-304.5 481.5,-304.5"/>
<text text-anchor="middle" x="527.5" y="-311.5" font-family="Helvetica,sans-Serif" font-size="10.00">func_800B4520</text>
</a>
</g>
</g>
<!-- Node7&#45;&gt;Node8 -->
<g id="edge7" class="edge">
<title>Node7&#45;&gt;Node8</title>
<path fill="none" stroke="midnightblue" d="M385.53,-314C411.27,-314 443.76,-314 471.06,-314"/>
<polygon fill="midnightblue" stroke="midnightblue" points="471.24,-317.5 481.24,-314 471.24,-310.5 471.24,-317.5"/>
</g>
<!-- Node7&#45;&gt;Node9 -->
<g id="edge8" class="edge">
<title>Node7&#45;&gt;Node9</title>
<path fill="none" stroke="midnightblue" d="M385.53,-304.8C412.34,-299.32 446.47,-292.35 474.44,-286.64"/>
<polygon fill="midnightblue" stroke="midnightblue" points="475.34,-290.02 484.44,-284.59 473.94,-283.17 475.34,-290.02"/>
</g>
<!-- Node11 -->
<g id="node11" class="node">
<title>Node11</title>
<g id="a_node11"><a xlink:href="code__80091750_8c.html#a6e766d348b53adefc5e40263eaecea97" target="_top" xlink:title=" ">
<polygon fill="white" stroke="black" points="492.5,-190.5 492.5,-209.5 562.5,-209.5 562.5,-190.5 492.5,-190.5"/>
<text text-anchor="middle" x="527.5" y="-197.5" font-family="Helvetica,sans-Serif" font-size="10.00">print_text0</text>
</a>
</g>
</g>
<!-- Node10&#45;&gt;Node11 -->
<g id="edge10" class="edge">
<title>Node10&#45;&gt;Node11</title>
<path fill="none" stroke="midnightblue" d="M385.05,-200C414.44,-200 452.78,-200 482.13,-200"/>
<polygon fill="midnightblue" stroke="midnightblue" points="482.5,-203.5 492.5,-200 482.5,-196.5 482.5,-203.5"/>
</g>
<!-- Node12 -->
<g id="node12" class="node">
<title>Node12</title>
<g id="a_node12"><a xlink:href="code__80091750_8c.html#ace62f40ce813c34904327e39643a0dbf" target="_top" xlink:title=" ">
<polygon fill="white" stroke="black" points="650.5,-190.5 650.5,-209.5 767.5,-209.5 767.5,-190.5 650.5,-190.5"/>
<text text-anchor="middle" x="709" y="-197.5" font-family="Helvetica,sans-Serif" font-size="10.00">char_to_glyph_index</text>
</a>
</g>
</g>
<!-- Node11&#45;&gt;Node12 -->
<g id="edge11" class="edge">
<title>Node11&#45;&gt;Node12</title>
<path fill="none" stroke="midnightblue" d="M562.69,-200C584.51,-200 613.55,-200 639.94,-200"/>
<polygon fill="midnightblue" stroke="midnightblue" points="640.28,-203.5 650.28,-200 640.28,-196.5 640.28,-203.5"/>
</g>
<!-- Node16 -->
<g id="node16" class="node">
<title>Node16</title>
<g id="a_node16"><a xlink:href="code__80091750_8h.html#a003bc23ca6b163f0a02de87a0cc9d034" target="_top" xlink:title=" ">
<polygon fill="white" stroke="black" points="663.5,-152.5 663.5,-171.5 754.5,-171.5 754.5,-152.5 663.5,-152.5"/>
<text text-anchor="middle" x="709" y="-159.5" font-family="Helvetica,sans-Serif" font-size="10.00">func_80099184</text>
</a>
</g>
</g>
<!-- Node11&#45;&gt;Node16 -->
<g id="edge16" class="edge">
<title>Node11&#45;&gt;Node16</title>
<path fill="none" stroke="midnightblue" d="M562.69,-192.76C588.25,-187.35 623.74,-179.84 653.25,-173.59"/>
<polygon fill="midnightblue" stroke="midnightblue" points="654.35,-176.94 663.41,-171.44 652.9,-170.09 654.35,-176.94"/>
</g>
<!-- Node17 -->
<g id="node17" class="node">
<title>Node17</title>
<g id="a_node17"><a xlink:href="code__80091750_8h.html#a997768c9db96f78ae1271e2962ddc983" target="_top" xlink:title=" ">
<polygon fill="white" stroke="black" points="663,-266.5 663,-285.5 755,-285.5 755,-266.5 663,-266.5"/>
<text text-anchor="middle" x="709" y="-273.5" font-family="Helvetica,sans-Serif" font-size="10.00">func_8009BEF0</text>
</a>
</g>
</g>
<!-- Node11&#45;&gt;Node17 -->
<g id="edge17" class="edge">
<title>Node11&#45;&gt;Node17</title>
<path fill="none" stroke="midnightblue" d="M562.73,-205.66C574.17,-208.52 586.64,-212.77 597,-219 616.94,-230.99 612.93,-245.23 633,-257 639.21,-260.64 646.12,-263.59 653.14,-265.98"/>
<polygon fill="midnightblue" stroke="midnightblue" points="652.17,-269.34 662.75,-268.9 654.2,-262.65 652.17,-269.34"/>
</g>
<!-- Node18 -->
<g id="node18" class="node">
<title>Node18</title>
<g id="a_node18"><a xlink:href="code__80091750_8c.html#a5dab056e30347ba6abeae7475a6b5b1b" target="_top" xlink:title=" ">
<polygon fill="white" stroke="black" points="633,-228.5 633,-247.5 785,-247.5 785,-228.5 633,-228.5"/>
<text text-anchor="middle" x="709" y="-235.5" font-family="Helvetica,sans-Serif" font-size="10.00">segmented_to_virtual_dupe</text>
</a>
</g>
</g>
<!-- Node11&#45;&gt;Node18 -->
<g id="edge18" class="edge">
<title>Node11&#45;&gt;Node18</title>
<path fill="none" stroke="midnightblue" d="M562.69,-207.24C588.16,-212.63 623.49,-220.11 652.93,-226.34"/>
<polygon fill="midnightblue" stroke="midnightblue" points="652.57,-229.84 663.07,-228.49 654.02,-222.99 652.57,-229.84"/>
</g>
<!-- Node13 -->
<g id="node13" class="node">
<title>Node13</title>
<g id="a_node13"><a xlink:href="code__80091750_8c.html#acd040d1eac6c147a7339fd7aa1bc8f50" target="_top" xlink:title=" ">
<polygon fill="white" stroke="black" points="821,-228.5 821,-247.5 913,-247.5 913,-228.5 821,-228.5"/>
<text text-anchor="middle" x="867" y="-235.5" font-family="Helvetica,sans-Serif" font-size="10.00">func_80092DF8</text>
</a>
</g>
</g>
<!-- Node12&#45;&gt;Node13 -->
<g id="edge12" class="edge">
<title>Node12&#45;&gt;Node13</title>
<path fill="none" stroke="midnightblue" d="M749.37,-209.59C769.95,-214.6 795.34,-220.79 817.17,-226.11"/>
<polygon fill="midnightblue" stroke="midnightblue" points="816.37,-229.51 826.92,-228.48 818.03,-222.71 816.37,-229.51"/>
</g>
<!-- Node14 -->
<g id="node14" class="node">
<title>Node14</title>
<g id="a_node14"><a xlink:href="code__80091750_8h.html#a2d89a973b210f8f1a246ab774a5b744c" target="_top" xlink:title=" ">
<polygon fill="white" stroke="black" points="949,-209.5 949,-228.5 1041,-228.5 1041,-209.5 949,-209.5"/>
<text text-anchor="middle" x="995" y="-216.5" font-family="Helvetica,sans-Serif" font-size="10.00">func_80092E1C</text>
</a>
</g>
</g>
<!-- Node12&#45;&gt;Node14 -->
<g id="edge14" class="edge">
<title>Node12&#45;&gt;Node14</title>
<path fill="none" stroke="midnightblue" d="M767.81,-203.87C817.78,-207.21 889.51,-212.01 938.72,-215.3"/>
<polygon fill="midnightblue" stroke="midnightblue" points="938.65,-218.81 948.87,-215.98 939.12,-211.82 938.65,-218.81"/>
</g>
<!-- Node15 -->
<g id="node15" class="node">
<title>Node15</title>
<g id="a_node15"><a xlink:href="code__80091750_8c.html#ab26c8dca1828cd1d5a6c341cb851f0b9" target="_top" xlink:title=" ">
<polygon fill="white" stroke="black" points="821.5,-152.5 821.5,-171.5 912.5,-171.5 912.5,-152.5 821.5,-152.5"/>
<text text-anchor="middle" x="867" y="-159.5" font-family="Helvetica,sans-Serif" font-size="10.00">func_80092EE4</text>
</a>
</g>
</g>
<!-- Node12&#45;&gt;Node15 -->
<g id="edge15" class="edge">
<title>Node12&#45;&gt;Node15</title>
<path fill="none" stroke="midnightblue" d="M749.37,-190.41C769.95,-185.4 795.34,-179.21 817.17,-173.89"/>
<polygon fill="midnightblue" stroke="midnightblue" points="818.03,-177.29 826.92,-171.52 816.37,-170.49 818.03,-177.29"/>
</g>
<!-- Node13&#45;&gt;Node14 -->
<g id="edge13" class="edge">
<title>Node13&#45;&gt;Node14</title>
<path fill="none" stroke="midnightblue" d="M913.13,-231.19C921.46,-229.94 930.23,-228.62 938.81,-227.32"/>
<polygon fill="midnightblue" stroke="midnightblue" points="939.39,-230.77 948.76,-225.82 938.35,-223.85 939.39,-230.77"/>
</g>
<!-- Node20 -->
<g id="node20" class="node">
<title>Node20</title>
<g id="a_node20"><a xlink:href="code__80091750_8c.html#abbfa58bdcdd0f112a593216c6811730a" target="_top" xlink:title=" ">
<polygon fill="white" stroke="black" points="492.5,-228.5 492.5,-247.5 562.5,-247.5 562.5,-228.5 492.5,-228.5"/>
<text text-anchor="middle" x="527.5" y="-235.5" font-family="Helvetica,sans-Serif" font-size="10.00">print_text2</text>
</a>
</g>
</g>
<!-- Node19&#45;&gt;Node20 -->
<g id="edge20" class="edge">
<title>Node19&#45;&gt;Node20</title>
<path fill="none" stroke="midnightblue" d="M385.53,-238C414.83,-238 452.88,-238 482.06,-238"/>
<polygon fill="midnightblue" stroke="midnightblue" points="482.38,-241.5 492.38,-238 482.38,-234.5 482.38,-241.5"/>
</g>
<!-- Node20&#45;&gt;Node12 -->
<g id="edge21" class="edge">
<title>Node20&#45;&gt;Node12</title>
<path fill="none" stroke="midnightblue" d="M562.69,-230.76C588.16,-225.37 623.49,-217.89 652.93,-211.66"/>
<polygon fill="midnightblue" stroke="midnightblue" points="654.02,-215.01 663.07,-209.51 652.57,-208.16 654.02,-215.01"/>
</g>
<!-- Node20&#45;&gt;Node16 -->
<g id="edge22" class="edge">
<title>Node20&#45;&gt;Node16</title>
<path fill="none" stroke="midnightblue" d="M562.73,-232.34C574.17,-229.48 586.64,-225.23 597,-219 616.94,-207.01 612.93,-192.77 633,-181 639.29,-177.31 646.29,-174.33 653.41,-171.93"/>
<polygon fill="midnightblue" stroke="midnightblue" points="654.58,-175.23 663.15,-168.99 652.56,-168.53 654.58,-175.23"/>
</g>
<!-- Node20&#45;&gt;Node17 -->
<g id="edge23" class="edge">
<title>Node20&#45;&gt;Node17</title>
<path fill="none" stroke="midnightblue" d="M562.69,-245.24C588.16,-250.63 623.49,-258.11 652.93,-264.34"/>
<polygon fill="midnightblue" stroke="midnightblue" points="652.57,-267.84 663.07,-266.49 654.02,-260.99 652.57,-267.84"/>
</g>
<!-- Node20&#45;&gt;Node18 -->
<g id="edge24" class="edge">
<title>Node20&#45;&gt;Node18</title>
<path fill="none" stroke="midnightblue" d="M562.69,-238C579.81,-238 601.38,-238 622.63,-238"/>
<polygon fill="midnightblue" stroke="midnightblue" points="622.68,-241.5 632.68,-238 622.68,-234.5 622.68,-241.5"/>
</g>
<!-- Node22 -->
<g id="node22" class="node">
<title>Node22</title>
<g id="a_node22"><a xlink:href="code__800B45E0_8c.html#a5b764da80aeb63b24b59906b4c9aa000" target="_top" xlink:title=" ">
<polygon fill="white" stroke="black" points="481,-133.5 481,-152.5 574,-152.5 574,-133.5 481,-133.5"/>
<text text-anchor="middle" x="527.5" y="-140.5" font-family="Helvetica,sans-Serif" font-size="10.00">func_800B4DF4</text>
</a>
</g>
</g>
<!-- Node21&#45;&gt;Node22 -->
<g id="edge26" class="edge">
<title>Node21&#45;&gt;Node22</title>
<path fill="none" stroke="midnightblue" d="M385.53,-128.6C411.17,-131.22 443.52,-134.52 470.76,-137.31"/>
<polygon fill="midnightblue" stroke="midnightblue" points="470.62,-140.81 480.92,-138.34 471.33,-133.85 470.62,-140.81"/>
</g>
<!-- Node23&#45;&gt;Node22 -->
<g id="edge28" class="edge">
<title>Node23&#45;&gt;Node22</title>
<path fill="none" stroke="midnightblue" d="M385.53,-157.4C411.17,-154.78 443.52,-151.48 470.76,-148.69"/>
<polygon fill="midnightblue" stroke="midnightblue" points="471.33,-152.15 480.92,-147.66 470.62,-145.19 471.33,-152.15"/>
</g>
<!-- Node25 -->
<g id="node25" class="node">
<title>Node25</title>
<g id="a_node25"><a xlink:href="code__80091750_8c.html#a87ff828f0134d42058cf8be2e012a8a3" target="_top" xlink:title=" ">
<polygon fill="white" stroke="black" points="458,-19.5 458,-38.5 597,-38.5 597,-19.5 458,-19.5"/>
<text text-anchor="middle" x="527.5" y="-26.5" font-family="Helvetica,sans-Serif" font-size="10.00">convert_number_to_ascii</text>
</a>
</g>
</g>
<!-- Node24&#45;&gt;Node25 -->
<g id="edge30" class="edge">
<title>Node24&#45;&gt;Node25</title>
<path fill="none" stroke="midnightblue" d="M390.67,-76.44C401.17,-73.85 412.06,-70.71 422,-67 438.95,-60.67 441.19,-54.68 458,-48 463.95,-45.64 470.29,-43.45 476.64,-41.47"/>
<polygon fill="midnightblue" stroke="midnightblue" points="477.95,-44.73 486.54,-38.53 475.96,-38.02 477.95,-44.73"/>
</g>
<!-- Node26 -->
<g id="node26" class="node">
<title>Node26</title>
<g id="a_node26"><a xlink:href="code__80091750_8c.html#a0a91d136dd3ef72cd4a4e1d1fed063f7" target="_top" xlink:title=" ">
<polygon fill="white" stroke="black" points="487,-57.5 487,-76.5 568,-76.5 568,-57.5 487,-57.5"/>
<text text-anchor="middle" x="527.5" y="-64.5" font-family="Helvetica,sans-Serif" font-size="10.00">write_dashes</text>
</a>
</g>
</g>
<!-- Node24&#45;&gt;Node26 -->
<g id="edge31" class="edge">
<title>Node24&#45;&gt;Node26</title>
<path fill="none" stroke="midnightblue" d="M422.08,-77.67C440.67,-75.77 459.88,-73.8 476.68,-72.09"/>
<polygon fill="midnightblue" stroke="midnightblue" points="477.2,-75.55 486.8,-71.06 476.49,-68.59 477.2,-75.55"/>
</g>
<!-- Node27&#45;&gt;Node25 -->
<g id="edge33" class="edge">
<title>Node27&#45;&gt;Node25</title>
<path fill="none" stroke="midnightblue" d="M410.02,-40.9C422.4,-39.63 435.37,-38.31 447.97,-37.02"/>
<polygon fill="midnightblue" stroke="midnightblue" points="448.39,-40.5 457.99,-36 447.68,-33.53 448.39,-40.5"/>
</g>
<!-- Node27&#45;&gt;Node26 -->
<g id="edge34" class="edge">
<title>Node27&#45;&gt;Node26</title>
<path fill="none" stroke="midnightblue" d="M410.02,-55.1C432.18,-57.37 456.24,-59.82 476.71,-61.91"/>
<polygon fill="midnightblue" stroke="midnightblue" points="476.44,-65.4 486.75,-62.94 477.15,-58.44 476.44,-65.4"/>
</g>
<!-- Node28&#45;&gt;Node25 -->
<g id="edge36" class="edge">
<title>Node28&#45;&gt;Node25</title>
<path fill="none" stroke="midnightblue" d="M410.02,-17.1C422.4,-18.37 435.37,-19.69 447.97,-20.98"/>
<polygon fill="midnightblue" stroke="midnightblue" points="447.68,-24.47 457.99,-22 448.39,-17.5 447.68,-24.47"/>
</g>
<!-- Node28&#45;&gt;Node26 -->
<g id="edge37" class="edge">
<title>Node28&#45;&gt;Node26</title>
<path fill="none" stroke="midnightblue" d="M390.67,-19.56C401.17,-22.15 412.06,-25.29 422,-29 438.95,-35.33 441.19,-41.32 458,-48 464.02,-50.39 470.45,-52.6 476.88,-54.6"/>
<polygon fill="midnightblue" stroke="midnightblue" points="476.32,-58.09 486.9,-57.57 478.31,-51.38 476.32,-58.09"/>
</g>
</g>
</svg>
        <g id="navigator" transform="translate(0 0)" fill="#404254">
                <rect fill="#f2f5e9" fill-opacity="0.5" stroke="#606060" stroke-width=".5" x="0" y="0" width="60" height="60"/>
                <use id="zoomplus" xlink:href="#zoomPlus" x="17" y="9" onmousedown="handleZoom(evt,'in')"/>
                <use id="zoomminus" xlink:href="#zoomMin" x="42" y="9" onmousedown="handleZoom(evt,'out')"/>
                <use id="reset" xlink:href="#resetDef" x="30" y="36" onmousedown="handleReset()"/>
                <g id="arrowUp" xlink:href="#dirArrow" transform="translate(30 24)" onmousedown="handlePan(0,-1)">
                  <use xlink:href="#rim" fill="#404040">
                        <set attributeName="fill" to="#808080" begin="arrowUp.mouseover" end="arrowUp.mouseout"/>
                  </use>
                  <path fill="none" stroke="white" stroke-width="1.5" d="M0,-3.0v7 M-2.5,-0.5L0,-3.0L2.5,-0.5"/>
                </g>
                <g id="arrowRight" xlink:href="#dirArrow" transform="rotate(90) translate(36 -43)" onmousedown="handlePan(1,0)">
                  <use xlink:href="#rim" fill="#404040">
                        <set attributeName="fill" to="#808080" begin="arrowRight.mouseover" end="arrowRight.mouseout"/>
                  </use>
                  <path fill="none" stroke="white" stroke-width="1.5" d="M0,-3.0v7 M-2.5,-0.5L0,-3.0L2.5,-0.5"/>
                </g>
                <g id="arrowDown" xlink:href="#dirArrow" transform="rotate(180) translate(-30 -48)" onmousedown="handlePan(0,1)">
                  <use xlink:href="#rim" fill="#404040">
                        <set attributeName="fill" to="#808080" begin="arrowDown.mouseover" end="arrowDown.mouseout"/>
                  </use>
                  <path fill="none" stroke="white" stroke-width="1.5" d="M0,-3.0v7 M-2.5,-0.5L0,-3.0L2.5,-0.5"/>
                </g>
                <g id="arrowLeft" xlink:href="#dirArrow" transform="rotate(270) translate(-36 17)" onmousedown="handlePan(-1,0)">
                  <use xlink:href="#rim" fill="#404040">
                        <set attributeName="fill" to="#808080" begin="arrowLeft.mouseover" end="arrowLeft.mouseout"/>
                  </use>
                  <path fill="none" stroke="white" stroke-width="1.5" d="M0,-3.0v7 M-2.5,-0.5L0,-3.0L2.5,-0.5"/>
                </g>
        </g>
        <svg viewBox="0 0 15 15" width="100%" height="30px" preserveAspectRatio="xMaxYMin meet">
         <g id="arrow_out" transform="scale(0.3 0.3)">
          <a xlink:href="code__80091750_8h_a37b70ee167ddf46e73599e643fe37d6f_cgraph_org.svg" target="_base">
           <rect id="button" ry="5" rx="5" y="6" x="6" height="38" width="38"
                fill="#f2f5e9" fill-opacity="0.5" stroke="#606060" stroke-width="1.0"/>
           <path id="arrow"
             d="M 11.500037,31.436501 C 11.940474,20.09759 22.043105,11.32322 32.158766,21.979434 L 37.068811,17.246167 C 37.068811,17.246167 37.088388,32 37.088388,32 L 22.160133,31.978069 C 22.160133,31.978069 26.997745,27.140456 26.997745,27.140456 C 18.528582,18.264221 13.291696,25.230495 11.500037,31.436501 z"
             style="fill:#404040;"/>
          </a>
         </g>
        </svg>
</svg>
