<?xml version="1.0" encoding="UTF-8" standalone="no"?>
<!DOCTYPE svg PUBLIC "-//W3C//DTD SVG 1.1//EN"
 "http://www.w3.org/Graphics/SVG/1.1/DTD/svg11.dtd">
<!-- Generated by graphviz version 2.43.0 (0)
 -->
<!-- Title: find_unused_obj_index Pages: 1 -->
<!--zoomable 826 -->
<svg id="main" version="1.1" xmlns="http://www.w3.org/2000/svg" xmlns:xlink="http://www.w3.org/1999/xlink" xml:space="preserve" onload="init(evt)">
<style type="text/css"><![CDATA[
.edge:hover path { stroke: red; }
.edge:hover polygon { stroke: red; fill: red; }
]]></style>
<script type="text/javascript"><![CDATA[
var edges = document.getElementsByTagName('g');
if (edges && edges.length) {
  for (var i=0;i<edges.length;i++) {
    if (edges[i].id.substr(0,4)=='edge') {
      edges[i].setAttribute('class','edge');
    }
  }
}
]]></script>
        <defs>
                <circle id="rim" cx="0" cy="0" r="7"/>
                <circle id="rim2" cx="0" cy="0" r="3.5"/>
                <g id="zoomPlus">
                        <use xlink:href="#rim" fill="#404040">
                                <set attributeName="fill" to="#808080" begin="zoomplus.mouseover" end="zoomplus.mouseout"/>
                        </use>
                        <path d="M-4,0h8M0,-4v8" fill="none" stroke="white" stroke-width="1.5" pointer-events="none"/>
                </g>
                <g id="zoomMin">
                        <use xlink:href="#rim" fill="#404040">
                                <set attributeName="fill" to="#808080" begin="zoomminus.mouseover" end="zoomminus.mouseout"/>
                        </use>
                        <path d="M-4,0h8" fill="none" stroke="white" stroke-width="1.5" pointer-events="none"/>
                </g>
                <g id="dirArrow">
                        <path fill="none" stroke="white" stroke-width="1.5" d="M0,-3.0v7 M-2.5,-0.5L0,-3.0L2.5,-0.5"/>
                </g>
               <g id="resetDef">
                       <use xlink:href="#rim2" fill="#404040">
                               <set attributeName="fill" to="#808080" begin="reset.mouseover" end="reset.mouseout"/>
                       </use>
               </g>
        </defs>

<script type="text/javascript">
var viewWidth = 1140;
var viewHeight = 826;
var sectionId = 'dynsection-7';
</script>
<script xlink:href="svgpan.js"/>
<svg id="graph" class="graph">
<g id="viewport">
<title>find_unused_obj_index</title>
<polygon fill="white" stroke="transparent" points="-4,4 -4,-822 1136,-822 1136,4 -4,4"/>
<!-- Node1 -->
<g id="node1" class="node">
<title>Node1</title>
<g id="a_node1"><a xlink:title=" ">
<polygon fill="#bfbfbf" stroke="black" points="1004,-646.5 1004,-665.5 1132,-665.5 1132,-646.5 1004,-646.5"/>
<text text-anchor="middle" x="1068" y="-653.5" font-family="Helvetica,sans-Serif" font-size="10.00">find_unused_obj_index</text>
</a>
</g>
</g>
<!-- Node2 -->
<g id="node2" class="node">
<title>Node2</title>
<g id="a_node2"><a xlink:href="code__8006E9C0_8c.html#a7ce8b772e14372f2078703a39e676d2a" target="_top" xlink:title=" ">
<polygon fill="white" stroke="black" points="876.5,-798.5 876.5,-817.5 967.5,-817.5 967.5,-798.5 876.5,-798.5"/>
<text text-anchor="middle" x="922" y="-805.5" font-family="Helvetica,sans-Serif" font-size="10.00">func_80070148</text>
</a>
</g>
</g>
<!-- Node1&#45;&gt;Node2 -->
<g id="edge1" class="edge">
<title>Node1&#45;&gt;Node2</title>
<path fill="none" stroke="midnightblue" d="M1056.19,-674.56C1039.85,-701.4 1006.62,-751.39 968,-784 961.23,-789.71 952.89,-794.62 945.23,-798.49"/>
<polygon fill="midnightblue" stroke="midnightblue" points="1059.31,-676.18 1061.43,-665.8 1053.3,-672.59 1059.31,-676.18"/>
</g>
<!-- Node12 -->
<g id="node9" class="node">
<title>Node12</title>
<g id="a_node9"><a xlink:href="code__8006E9C0_8c.html#a1047d0465079c92e24754191addf0a3f" target="_top" xlink:title=" ">
<polygon fill="white" stroke="black" points="748.5,-722.5 748.5,-741.5 839.5,-741.5 839.5,-722.5 748.5,-722.5"/>
<text text-anchor="middle" x="794" y="-729.5" font-family="Helvetica,sans-Serif" font-size="10.00">func_80070190</text>
</a>
</g>
</g>
<!-- Node1&#45;&gt;Node12 -->
<g id="edge10" class="edge">
<title>Node1&#45;&gt;Node12</title>
<path fill="none" stroke="midnightblue" d="M1044.14,-670.94C1024.7,-682.92 995.61,-699.13 968,-708 925.71,-721.58 875.16,-727.48 839.66,-730.04"/>
<polygon fill="midnightblue" stroke="midnightblue" points="1046.01,-673.9 1052.61,-665.62 1042.28,-667.97 1046.01,-673.9"/>
</g>
<!-- Node13 -->
<g id="node10" class="node">
<title>Node13</title>
<g id="a_node10"><a xlink:href="code__8006E9C0_8c.html#a36e7c29e21274b76d24f7c8864af5c3b" target="_top" xlink:title=" ">
<polygon fill="white" stroke="black" points="599,-734 599,-764 710,-764 710,-734 599,-734"/>
<text text-anchor="start" x="607" y="-752" font-family="Helvetica,sans-Serif" font-size="10.00">init_hud_three_four</text>
<text text-anchor="middle" x="654.5" y="-741" font-family="Helvetica,sans-Serif" font-size="10.00">_player</text>
</a>
</g>
</g>
<!-- Node1&#45;&gt;Node13 -->
<g id="edge63" class="edge">
<title>Node1&#45;&gt;Node13</title>
<path fill="none" stroke="midnightblue" d="M1050.36,-672.82C1031.93,-690.36 1000.5,-717.19 968,-731 883.59,-766.85 774.68,-763.26 710.24,-756.65"/>
<polygon fill="midnightblue" stroke="midnightblue" points="1052.94,-675.2 1057.65,-665.71 1048.05,-670.18 1052.94,-675.2"/>
</g>
<!-- Node14 -->
<g id="node11" class="node">
<title>Node14</title>
<g id="a_node11"><a xlink:href="code__8006E9C0_8c.html#ae0bbfee0194d6a21ab9c2133af28ae16" target="_top" xlink:title=" ">
<polygon fill="white" stroke="black" points="597,-685 597,-715 712,-715 712,-685 597,-685"/>
<text text-anchor="start" x="605" y="-703" font-family="Helvetica,sans-Serif" font-size="10.00">init_hud_two_player</text>
<text text-anchor="middle" x="654.5" y="-692" font-family="Helvetica,sans-Serif" font-size="10.00">_horizontal</text>
</a>
</g>
</g>
<!-- Node1&#45;&gt;Node14 -->
<g id="edge64" class="edge">
<title>Node1&#45;&gt;Node14</title>
<path fill="none" stroke="midnightblue" d="M993.76,-664.18C985.08,-665.14 976.34,-666.1 968,-667 878.64,-676.68 774.87,-687.57 712.25,-694.1"/>
<polygon fill="midnightblue" stroke="midnightblue" points="994.34,-667.64 1003.89,-663.06 993.57,-660.68 994.34,-667.64"/>
</g>
<!-- Node15 -->
<g id="node12" class="node">
<title>Node15</title>
<g id="a_node12"><a xlink:href="code__8006E9C0_8c.html#aa98fba14045af26e5c13a6a72442b8be" target="_top" xlink:title=" ">
<polygon fill="white" stroke="black" points="597,-636 597,-666 712,-666 712,-636 597,-636"/>
<text text-anchor="start" x="605" y="-654" font-family="Helvetica,sans-Serif" font-size="10.00">init_hud_two_player</text>
<text text-anchor="middle" x="654.5" y="-643" font-family="Helvetica,sans-Serif" font-size="10.00">_vertical</text>
</a>
</g>
</g>
<!-- Node1&#45;&gt;Node15 -->
<g id="edge65" class="edge">
<title>Node1&#45;&gt;Node15</title>
<path fill="none" stroke="midnightblue" d="M1054.88,-637.77C1038.38,-614.81 1006.46,-576.47 968,-561 861.4,-518.13 726.81,-600.29 676.09,-635.79"/>
<polygon fill="midnightblue" stroke="midnightblue" points="1052.22,-640.08 1060.8,-646.29 1057.96,-636.08 1052.22,-640.08"/>
</g>
<!-- Node16 -->
<g id="node13" class="node">
<title>Node16</title>
<g id="a_node13"><a xlink:href="code__8006E9C0_8c.html#a5945e5ad978f80b31110f73ae96fdd36" target="_top" xlink:title=" ">
<polygon fill="white" stroke="black" points="876.5,-608.5 876.5,-627.5 967.5,-627.5 967.5,-608.5 876.5,-608.5"/>
<text text-anchor="middle" x="922" y="-615.5" font-family="Helvetica,sans-Serif" font-size="10.00">func_80070328</text>
</a>
</g>
</g>
<!-- Node1&#45;&gt;Node16 -->
<g id="edge17" class="edge">
<title>Node1&#45;&gt;Node16</title>
<path fill="none" stroke="midnightblue" d="M1020.83,-643.82C1000.84,-638.54 977.78,-632.46 959.08,-627.52"/>
<polygon fill="midnightblue" stroke="midnightblue" points="1020.1,-647.24 1030.66,-646.41 1021.89,-640.48 1020.1,-647.24"/>
</g>
<!-- Node17 -->
<g id="node14" class="node">
<title>Node17</title>
<g id="a_node14"><a xlink:href="code__8006E9C0_8c.html#afef0314f6f435d008ed32c2aa1e2fed0" target="_top" xlink:title=" ">
<polygon fill="white" stroke="black" points="748,-641.5 748,-660.5 840,-660.5 840,-641.5 748,-641.5"/>
<text text-anchor="middle" x="794" y="-648.5" font-family="Helvetica,sans-Serif" font-size="10.00">func_8007055C</text>
</a>
</g>
</g>
<!-- Node1&#45;&gt;Node17 -->
<g id="edge23" class="edge">
<title>Node1&#45;&gt;Node17</title>
<path fill="none" stroke="midnightblue" d="M993.71,-654.65C944.82,-653.75 882.1,-652.6 840.34,-651.83"/>
<polygon fill="midnightblue" stroke="midnightblue" points="993.85,-658.16 1003.91,-654.84 993.98,-651.16 993.85,-658.16"/>
</g>
<!-- Node18 -->
<g id="node15" class="node">
<title>Node18</title>
<g id="a_node15"><a xlink:href="code__8006E9C0_8c.html#a077b9c8a1cdcf10353e8f23db63ec1d8" target="_top" xlink:title=" ">
<polygon fill="white" stroke="black" points="876,-570.5 876,-589.5 968,-589.5 968,-570.5 876,-570.5"/>
<text text-anchor="middle" x="922" y="-577.5" font-family="Helvetica,sans-Serif" font-size="10.00">func_800704A0</text>
</a>
</g>
</g>
<!-- Node1&#45;&gt;Node18 -->
<g id="edge21" class="edge">
<title>Node1&#45;&gt;Node18</title>
<path fill="none" stroke="midnightblue" d="M1042.89,-641C1023.12,-628.98 994.22,-612.02 968,-599 961.32,-595.68 953.91,-592.4 947.07,-589.52"/>
<polygon fill="midnightblue" stroke="midnightblue" points="1041.2,-644.07 1051.55,-646.31 1044.85,-638.1 1041.2,-644.07"/>
</g>
<!-- Node19 -->
<g id="node16" class="node">
<title>Node19</title>
<g id="a_node16"><a xlink:href="code__80071F00_8c.html#ad0d318d573b0eef80c19e6abde93957f" target="_top" xlink:title=" ">
<polygon fill="white" stroke="black" points="876.5,-266.5 876.5,-285.5 967.5,-285.5 967.5,-266.5 876.5,-266.5"/>
<text text-anchor="middle" x="922" y="-273.5" font-family="Helvetica,sans-Serif" font-size="10.00">func_80072044</text>
</a>
</g>
</g>
<!-- Node1&#45;&gt;Node19 -->
<g id="edge24" class="edge">
<title>Node1&#45;&gt;Node19</title>
<path fill="none" stroke="midnightblue" d="M1059.65,-636.62C1033.54,-567.71 945.76,-336.06 926.68,-285.71"/>
<polygon fill="midnightblue" stroke="midnightblue" points="1056.48,-638.11 1063.3,-646.22 1063.02,-635.63 1056.48,-638.11"/>
</g>
<!-- Node3 -->
<g id="node3" class="node">
<title>Node3</title>
<g id="a_node3"><a xlink:href="code__8006E9C0_8c.html#a5def87b038bc54365398158abfa0bbfb" target="_top" xlink:title=" ">
<polygon fill="white" stroke="black" points="471,-714.5 471,-733.5 559,-733.5 559,-714.5 471,-714.5"/>
<text text-anchor="middle" x="515" y="-721.5" font-family="Helvetica,sans-Serif" font-size="10.00">init_object_list</text>
</a>
</g>
</g>
<!-- Node2&#45;&gt;Node3 -->
<g id="edge2" class="edge">
<title>Node2&#45;&gt;Node3</title>
<path fill="none" stroke="midnightblue" d="M866.3,-809.58C800.58,-809.83 687.82,-804.99 597,-774 570.1,-764.82 542.78,-745.41 527.75,-733.65"/>
<polygon fill="midnightblue" stroke="midnightblue" points="866.46,-813.08 876.44,-809.5 866.41,-806.08 866.46,-813.08"/>
</g>
<!-- Node4 -->
<g id="node4" class="node">
<title>Node4</title>
<g id="a_node4"><a xlink:href="code__80281780_8c.html#af227cfd0f1fd3d6adbe9a29ad59b4dc8" target="_top" xlink:title=" ">
<polygon fill="white" stroke="black" points="293,-752.5 293,-771.5 433,-771.5 433,-752.5 293,-752.5"/>
<text text-anchor="middle" x="363" y="-759.5" font-family="Helvetica,sans-Serif" font-size="10.00">load_ceremony_cutscene</text>
</a>
</g>
</g>
<!-- Node3&#45;&gt;Node4 -->
<g id="edge3" class="edge">
<title>Node3&#45;&gt;Node4</title>
<path fill="none" stroke="midnightblue" d="M466.19,-736.11C445.3,-741.4 421.15,-747.52 401.58,-752.48"/>
<polygon fill="midnightblue" stroke="midnightblue" points="467.31,-739.44 476.15,-733.59 465.6,-732.65 467.31,-739.44"/>
</g>
<!-- Node10 -->
<g id="node7" class="node">
<title>Node10</title>
<g id="a_node7"><a xlink:href="code__80280000_8c.html#a9a346a82a8367a41c07f51e012e4cd92" target="_top" xlink:title=" ">
<polygon fill="white" stroke="black" points="325,-714.5 325,-733.5 401,-733.5 401,-714.5 325,-714.5"/>
<text text-anchor="middle" x="363" y="-721.5" font-family="Helvetica,sans-Serif" font-size="10.00">load_credits</text>
</a>
</g>
</g>
<!-- Node3&#45;&gt;Node10 -->
<g id="edge6" class="edge">
<title>Node3&#45;&gt;Node10</title>
<path fill="none" stroke="midnightblue" d="M460.57,-724C440.91,-724 419.1,-724 401.19,-724"/>
<polygon fill="midnightblue" stroke="midnightblue" points="460.61,-727.5 470.61,-724 460.61,-720.5 460.61,-727.5"/>
</g>
<!-- Node11 -->
<g id="node8" class="node">
<title>Node11</title>
<g id="a_node8"><a xlink:href="code__800029B0_8c.html#aca6165112fc92e65ad6477e785a7098c" target="_top" xlink:title=" ">
<polygon fill="white" stroke="black" points="328,-676.5 328,-695.5 398,-695.5 398,-676.5 328,-676.5"/>
<text text-anchor="middle" x="363" y="-683.5" font-family="Helvetica,sans-Serif" font-size="10.00">setup_race</text>
</a>
</g>
</g>
<!-- Node3&#45;&gt;Node11 -->
<g id="edge8" class="edge">
<title>Node3&#45;&gt;Node11</title>
<path fill="none" stroke="midnightblue" d="M466.28,-711.91C444.17,-706.31 418.39,-699.78 398.25,-694.68"/>
<polygon fill="midnightblue" stroke="midnightblue" points="465.6,-715.35 476.15,-714.41 467.31,-708.56 465.6,-715.35"/>
</g>
<!-- Node5 -->
<g id="node5" class="node">
<title>Node5</title>
<g id="a_node5"><a xlink:href="main_8c.html#ad0625ed56ac663d3ec7ae8f1ba50c735" target="_top" xlink:title=" ">
<polygon fill="white" stroke="black" points="149,-714.5 149,-733.5 257,-733.5 257,-714.5 149,-714.5"/>
<text text-anchor="middle" x="203" y="-721.5" font-family="Helvetica,sans-Serif" font-size="10.00">update_gamestate</text>
</a>
</g>
</g>
<!-- Node4&#45;&gt;Node5 -->
<g id="edge4" class="edge">
<title>Node4&#45;&gt;Node5</title>
<path fill="none" stroke="midnightblue" d="M312.24,-750.03C290.1,-744.71 264.39,-738.52 243.58,-733.52"/>
<polygon fill="midnightblue" stroke="midnightblue" points="311.59,-753.48 322.13,-752.41 313.23,-746.67 311.59,-753.48"/>
</g>
<!-- Node6 -->
<g id="node6" class="node">
<title>Node6</title>
<g id="a_node6"><a xlink:href="main_8c.html#a633ed517e458daeb768f5361895dcac9" target="_top" xlink:title=" ">
<polygon fill="white" stroke="red" points="0,-714.5 0,-733.5 113,-733.5 113,-714.5 0,-714.5"/>
<text text-anchor="middle" x="56.5" y="-721.5" font-family="Helvetica,sans-Serif" font-size="10.00">thread5_game_loop</text>
</a>
</g>
</g>
<!-- Node5&#45;&gt;Node6 -->
<g id="edge5" class="edge">
<title>Node5&#45;&gt;Node6</title>
<path fill="none" stroke="midnightblue" d="M138.42,-724C129.98,-724 121.39,-724 113.1,-724"/>
<polygon fill="midnightblue" stroke="midnightblue" points="138.6,-727.5 148.6,-724 138.6,-720.5 138.6,-727.5"/>
</g>
<!-- Node10&#45;&gt;Node5 -->
<g id="edge7" class="edge">
<title>Node10&#45;&gt;Node5</title>
<path fill="none" stroke="midnightblue" d="M314.91,-724C296.78,-724 275.95,-724 257.27,-724"/>
<polygon fill="midnightblue" stroke="midnightblue" points="314.96,-727.5 324.96,-724 314.96,-720.5 314.96,-727.5"/>
</g>
<!-- Node11&#45;&gt;Node5 -->
<g id="edge9" class="edge">
<title>Node11&#45;&gt;Node5</title>
<path fill="none" stroke="midnightblue" d="M317.73,-696.65C294.42,-702.25 266.07,-709.07 243.51,-714.5"/>
<polygon fill="midnightblue" stroke="midnightblue" points="318.81,-699.99 327.72,-694.25 317.18,-693.18 318.81,-699.99"/>
</g>
<!-- Node12&#45;&gt;Node13 -->
<g id="edge11" class="edge">
<title>Node12&#45;&gt;Node13</title>
<path fill="none" stroke="midnightblue" d="M738.4,-738.75C729.05,-739.91 719.35,-741.11 710.01,-742.26"/>
<polygon fill="midnightblue" stroke="midnightblue" points="738.86,-742.22 748.36,-737.52 738,-735.27 738.86,-742.22"/>
</g>
<!-- Node12&#45;&gt;Node14 -->
<g id="edge13" class="edge">
<title>Node12&#45;&gt;Node14</title>
<path fill="none" stroke="midnightblue" d="M742.12,-720.16C732.31,-717.88 721.98,-715.47 712,-713.15"/>
<polygon fill="midnightblue" stroke="midnightblue" points="741.58,-723.63 752.12,-722.49 743.17,-716.81 741.58,-723.63"/>
</g>
<!-- Node12&#45;&gt;Node15 -->
<g id="edge15" class="edge">
<title>Node12&#45;&gt;Node15</title>
<path fill="none" stroke="midnightblue" d="M772.48,-716.2C756.51,-704.31 733.52,-688.06 712,-676 705.73,-672.49 698.87,-669.1 692.16,-666.01"/>
<polygon fill="midnightblue" stroke="midnightblue" points="770.48,-719.08 780.58,-722.3 774.7,-713.49 770.48,-719.08"/>
</g>
<!-- Node13&#45;&gt;Node3 -->
<g id="edge12" class="edge">
<title>Node13&#45;&gt;Node3</title>
<path fill="none" stroke="midnightblue" d="M588.77,-737.23C578.71,-735.4 568.54,-733.55 559.12,-731.84"/>
<polygon fill="midnightblue" stroke="midnightblue" points="588.3,-740.7 598.76,-739.05 589.55,-733.82 588.3,-740.7"/>
</g>
<!-- Node14&#45;&gt;Node3 -->
<g id="edge14" class="edge">
<title>Node14&#45;&gt;Node3</title>
<path fill="none" stroke="midnightblue" d="M586.67,-711.66C577.31,-713.3 567.9,-714.94 559.14,-716.47"/>
<polygon fill="midnightblue" stroke="midnightblue" points="587.53,-715.07 596.78,-709.9 586.33,-708.17 587.53,-715.07"/>
</g>
<!-- Node15&#45;&gt;Node3 -->
<g id="edge16" class="edge">
<title>Node15&#45;&gt;Node3</title>
<path fill="none" stroke="midnightblue" d="M608.49,-670.33C604.58,-672.19 600.7,-674.09 597,-676 573.31,-688.2 546.95,-704.33 530.93,-714.43"/>
<polygon fill="midnightblue" stroke="midnightblue" points="610.03,-673.48 617.63,-666.1 607.09,-667.13 610.03,-673.48"/>
</g>
<!-- Node16&#45;&gt;Node17 -->
<g id="edge18" class="edge">
<title>Node16&#45;&gt;Node17</title>
<path fill="none" stroke="midnightblue" d="M874.87,-630.08C860.53,-633.84 844.94,-637.92 831.36,-641.48"/>
<polygon fill="midnightblue" stroke="midnightblue" points="875.77,-633.46 884.56,-627.54 874,-626.69 875.77,-633.46"/>
</g>
<!-- Node17&#45;&gt;Node14 -->
<g id="edge19" class="edge">
<title>Node17&#45;&gt;Node14</title>
<path fill="none" stroke="midnightblue" d="M756.55,-663.99C738.46,-670.43 716.51,-678.26 697.7,-684.96"/>
<polygon fill="midnightblue" stroke="midnightblue" points="757.92,-667.22 766.16,-660.56 755.57,-660.62 757.92,-667.22"/>
</g>
<!-- Node17&#45;&gt;Node15 -->
<g id="edge20" class="edge">
<title>Node17&#45;&gt;Node15</title>
<path fill="none" stroke="midnightblue" d="M737.85,-651C729.4,-651 720.66,-651 712.18,-651"/>
<polygon fill="midnightblue" stroke="midnightblue" points="737.98,-654.5 747.98,-651 737.98,-647.5 737.98,-654.5"/>
</g>
<!-- Node18&#45;&gt;Node17 -->
<g id="edge22" class="edge">
<title>Node18&#45;&gt;Node17</title>
<path fill="none" stroke="midnightblue" d="M887.05,-593.59C883.28,-595.32 879.53,-597.14 876,-599 851.16,-612.09 824.04,-630.39 808.33,-641.43"/>
<polygon fill="midnightblue" stroke="midnightblue" points="888.61,-596.73 896.36,-589.51 885.79,-590.32 888.61,-596.73"/>
</g>
<!-- Node20 -->
<g id="node17" class="node">
<title>Node20</title>
<g id="a_node17"><a xlink:href="code__80071F00_8c.html#a81fd7e53c48fff45cb7e21682c0284b8" target="_top" xlink:title=" ">
<polygon fill="white" stroke="black" points="748.5,-342.5 748.5,-361.5 839.5,-361.5 839.5,-342.5 748.5,-342.5"/>
<text text-anchor="middle" x="794" y="-349.5" font-family="Helvetica,sans-Serif" font-size="10.00">func_80075304</text>
</a>
</g>
</g>
<!-- Node19&#45;&gt;Node20 -->
<g id="edge25" class="edge">
<title>Node19&#45;&gt;Node20</title>
<path fill="none" stroke="midnightblue" d="M898.18,-291.35C882.12,-301.98 860,-316.27 840,-328 831.6,-332.93 822.11,-338.05 814.02,-342.29"/>
<polygon fill="midnightblue" stroke="midnightblue" points="900.49,-294.01 906.88,-285.56 896.61,-288.19 900.49,-294.01"/>
</g>
<!-- Node30 -->
<g id="node21" class="node">
<title>Node30</title>
<g id="a_node21"><a xlink:href="code__80071F00_8c.html#a831364f1ff3540df93cc13566e501de6" target="_top" xlink:title=" ">
<polygon fill="white" stroke="black" points="748,-266.5 748,-285.5 840,-285.5 840,-266.5 748,-266.5"/>
<text text-anchor="middle" x="794" y="-273.5" font-family="Helvetica,sans-Serif" font-size="10.00">func_800755FC</text>
</a>
</g>
</g>
<!-- Node19&#45;&gt;Node30 -->
<g id="edge29" class="edge">
<title>Node19&#45;&gt;Node30</title>
<path fill="none" stroke="midnightblue" d="M866.14,-276C857.43,-276 848.51,-276 840.06,-276"/>
<polygon fill="midnightblue" stroke="midnightblue" points="866.22,-279.5 876.22,-276 866.22,-272.5 866.22,-279.5"/>
</g>
<!-- Node34 -->
<g id="node25" class="node">
<title>Node34</title>
<g id="a_node25"><a xlink:href="code__80071F00_8c.html#afc264d8ad0e73b7c6ce419aa7d01f25d" target="_top" xlink:title=" ">
<polygon fill="white" stroke="black" points="748,-190.5 748,-209.5 840,-209.5 840,-190.5 748,-190.5"/>
<text text-anchor="middle" x="794" y="-197.5" font-family="Helvetica,sans-Serif" font-size="10.00">func_80075A6C</text>
</a>
</g>
</g>
<!-- Node19&#45;&gt;Node34 -->
<g id="edge33" class="edge">
<title>Node19&#45;&gt;Node34</title>
<path fill="none" stroke="midnightblue" d="M901.14,-260.21C885.2,-248 861.95,-231.17 840,-219 833.77,-215.55 826.78,-212.31 820.21,-209.53"/>
<polygon fill="midnightblue" stroke="midnightblue" points="899.14,-263.09 909.18,-266.46 903.43,-257.56 899.14,-263.09"/>
</g>
<!-- Node35 -->
<g id="node26" class="node">
<title>Node35</title>
<g id="a_node26"><a xlink:href="code__80071F00_8c.html#a2a11f519aaca0205f9674856a1443f1e" target="_top" xlink:title=" ">
<polygon fill="white" stroke="black" points="748.5,-152.5 748.5,-171.5 839.5,-171.5 839.5,-152.5 748.5,-152.5"/>
<text text-anchor="middle" x="794" y="-159.5" font-family="Helvetica,sans-Serif" font-size="10.00">func_80075F28</text>
</a>
</g>
</g>
<!-- Node19&#45;&gt;Node35 -->
<g id="edge34" class="edge">
<title>Node19&#45;&gt;Node35</title>
<path fill="none" stroke="midnightblue" d="M909.34,-257.76C895.15,-236.8 869.42,-202.55 840,-181 834.94,-177.29 829.04,-174.14 823.22,-171.53"/>
<polygon fill="midnightblue" stroke="midnightblue" points="906.59,-259.94 915.02,-266.35 912.43,-256.08 906.59,-259.94"/>
</g>
<!-- Node43 -->
<g id="node29" class="node">
<title>Node43</title>
<g id="a_node29"><a xlink:href="code__80071F00_8c.html#a8961519eebfc170539434d78a6fb1419" target="_top" xlink:title=" ">
<polygon fill="white" stroke="black" points="748.5,-114.5 748.5,-133.5 839.5,-133.5 839.5,-114.5 748.5,-114.5"/>
<text text-anchor="middle" x="794" y="-121.5" font-family="Helvetica,sans-Serif" font-size="10.00">func_80076278</text>
</a>
</g>
</g>
<!-- Node19&#45;&gt;Node43 -->
<g id="edge37" class="edge">
<title>Node19&#45;&gt;Node43</title>
<path fill="none" stroke="midnightblue" d="M913.74,-256.62C902.17,-228.15 877.03,-174.94 840,-143 835.63,-139.23 830.41,-136.13 825.1,-133.6"/>
<polygon fill="midnightblue" stroke="midnightblue" points="910.59,-258.19 917.5,-266.23 917.11,-255.64 910.59,-258.19"/>
</g>
<!-- Node46 -->
<g id="node32" class="node">
<title>Node46</title>
<g id="a_node32"><a xlink:href="code__80071F00_8c.html#af83d0d2485e0eb8c148a2d092d33e9e8" target="_top" xlink:title=" ">
<polygon fill="white" stroke="black" points="748.5,-76.5 748.5,-95.5 839.5,-95.5 839.5,-76.5 748.5,-76.5"/>
<text text-anchor="middle" x="794" y="-83.5" font-family="Helvetica,sans-Serif" font-size="10.00">func_80076828</text>
</a>
</g>
</g>
<!-- Node19&#45;&gt;Node46 -->
<g id="edge40" class="edge">
<title>Node19&#45;&gt;Node46</title>
<path fill="none" stroke="midnightblue" d="M916.67,-256.59C907.95,-221.76 885.16,-148.27 840,-105 836.08,-101.25 831.31,-98.18 826.36,-95.7"/>
<polygon fill="midnightblue" stroke="midnightblue" points="913.29,-257.53 919.01,-266.45 920.1,-255.91 913.29,-257.53"/>
</g>
<!-- Node48 -->
<g id="node34" class="node">
<title>Node48</title>
<g id="a_node34"><a xlink:href="code__80071F00_8c.html#aee2cd7c8ecc29d9d2971ed66b7a5acef" target="_top" xlink:title=" ">
<polygon fill="white" stroke="black" points="748,-228.5 748,-247.5 840,-247.5 840,-228.5 748,-228.5"/>
<text text-anchor="middle" x="794" y="-235.5" font-family="Helvetica,sans-Serif" font-size="10.00">func_80076D70</text>
</a>
</g>
</g>
<!-- Node19&#45;&gt;Node48 -->
<g id="edge42" class="edge">
<title>Node19&#45;&gt;Node48</title>
<path fill="none" stroke="midnightblue" d="M879.44,-263.46C862.29,-258.3 842.75,-252.4 826.78,-247.59"/>
<polygon fill="midnightblue" stroke="midnightblue" points="878.62,-266.87 889.2,-266.41 880.64,-260.17 878.62,-266.87"/>
</g>
<!-- Node50 -->
<g id="node36" class="node">
<title>Node50</title>
<g id="a_node36"><a xlink:href="code__80071F00_8c.html#aab9d1ace798878747e0b69aeb6da32d3" target="_top" xlink:title=" ">
<polygon fill="white" stroke="black" points="748.5,-38.5 748.5,-57.5 839.5,-57.5 839.5,-38.5 748.5,-38.5"/>
<text text-anchor="middle" x="794" y="-45.5" font-family="Helvetica,sans-Serif" font-size="10.00">func_800770F0</text>
</a>
</g>
</g>
<!-- Node19&#45;&gt;Node50 -->
<g id="edge45" class="edge">
<title>Node19&#45;&gt;Node50</title>
<path fill="none" stroke="midnightblue" d="M918.54,-256.28C912.49,-215.67 893.27,-121.88 840,-67 836.34,-63.23 831.81,-60.17 827.05,-57.7"/>
<polygon fill="midnightblue" stroke="midnightblue" points="915.08,-256.83 919.92,-266.25 922.02,-255.87 915.08,-256.83"/>
</g>
<!-- Node51 -->
<g id="node37" class="node">
<title>Node51</title>
<g id="a_node37"><a xlink:href="code__80071F00_8c.html#ac2a59961da8fbb6c838ebe653488ac1e" target="_top" xlink:title=" ">
<polygon fill="white" stroke="black" points="748,-0.5 748,-19.5 840,-19.5 840,-0.5 748,-0.5"/>
<text text-anchor="middle" x="794" y="-7.5" font-family="Helvetica,sans-Serif" font-size="10.00">func_800773D8</text>
</a>
</g>
</g>
<!-- Node19&#45;&gt;Node51 -->
<g id="edge46" class="edge">
<title>Node19&#45;&gt;Node51</title>
<path fill="none" stroke="midnightblue" d="M919.9,-255.92C916.33,-209.91 901.43,-95.73 840,-29 836.44,-25.13 831.96,-22.02 827.22,-19.53"/>
<polygon fill="midnightblue" stroke="midnightblue" points="916.42,-256.33 920.58,-266.07 923.4,-255.86 916.42,-256.33"/>
</g>
<!-- Node53 -->
<g id="node39" class="node">
<title>Node53</title>
<g id="a_node39"><a xlink:href="code__80071F00_8c.html#ae59e8278973af3a01fa65b157f2025cd" target="_top" xlink:title=" ">
<polygon fill="white" stroke="black" points="748,-494.5 748,-513.5 840,-513.5 840,-494.5 748,-494.5"/>
<text text-anchor="middle" x="794" y="-501.5" font-family="Helvetica,sans-Serif" font-size="10.00">func_80077A54</text>
</a>
</g>
</g>
<!-- Node19&#45;&gt;Node53 -->
<g id="edge48" class="edge">
<title>Node19&#45;&gt;Node53</title>
<path fill="none" stroke="midnightblue" d="M918.54,-295.72C912.49,-336.33 893.27,-430.12 840,-485 836.34,-488.77 831.81,-491.83 827.05,-494.3"/>
<polygon fill="midnightblue" stroke="midnightblue" points="922.02,-296.13 919.92,-285.75 915.08,-295.17 922.02,-296.13"/>
</g>
<!-- Node58 -->
<g id="node42" class="node">
<title>Node58</title>
<g id="a_node42"><a xlink:href="code__80071F00_8c.html#a281b6219991026ad20df7d33ae149504" target="_top" xlink:title=" ">
<polygon fill="white" stroke="black" points="748,-456.5 748,-475.5 840,-475.5 840,-456.5 748,-456.5"/>
<text text-anchor="middle" x="794" y="-463.5" font-family="Helvetica,sans-Serif" font-size="10.00">func_8007D714</text>
</a>
</g>
</g>
<!-- Node19&#45;&gt;Node58 -->
<g id="edge51" class="edge">
<title>Node19&#45;&gt;Node58</title>
<path fill="none" stroke="midnightblue" d="M916.67,-295.41C907.95,-330.24 885.16,-403.73 840,-447 836.08,-450.75 831.31,-453.82 826.36,-456.3"/>
<polygon fill="midnightblue" stroke="midnightblue" points="920.1,-296.09 919.01,-285.55 913.29,-294.47 920.1,-296.09"/>
</g>
<!-- Node61 -->
<g id="node46" class="node">
<title>Node61</title>
<g id="a_node46"><a xlink:href="code__80071F00_8c.html#a5ae771cf70f41b2d12c22870880a106e" target="_top" xlink:title=" ">
<polygon fill="white" stroke="black" points="608.5,-304.5 608.5,-323.5 700.5,-323.5 700.5,-304.5 608.5,-304.5"/>
<text text-anchor="middle" x="654.5" y="-311.5" font-family="Helvetica,sans-Serif" font-size="10.00">func_80080FEC</text>
</a>
</g>
</g>
<!-- Node19&#45;&gt;Node61 -->
<g id="edge55" class="edge">
<title>Node19&#45;&gt;Node61</title>
<path fill="none" stroke="midnightblue" d="M875.13,-287.83C863.71,-290.48 851.46,-293.07 840,-295 792.84,-302.93 738.31,-308.05 700.83,-310.96"/>
<polygon fill="midnightblue" stroke="midnightblue" points="875.99,-291.23 884.91,-285.51 874.37,-284.42 875.99,-291.23"/>
</g>
<!-- Node62 -->
<g id="node47" class="node">
<title>Node62</title>
<g id="a_node47"><a xlink:href="code__80071F00_8c.html#a6048ee8dd122e7ce8255fbc9f40f521e" target="_top" xlink:title=" ">
<polygon fill="white" stroke="black" points="748.5,-418.5 748.5,-437.5 839.5,-437.5 839.5,-418.5 748.5,-418.5"/>
<text text-anchor="middle" x="794" y="-425.5" font-family="Helvetica,sans-Serif" font-size="10.00">func_800836F0</text>
</a>
</g>
</g>
<!-- Node19&#45;&gt;Node62 -->
<g id="edge57" class="edge">
<title>Node19&#45;&gt;Node62</title>
<path fill="none" stroke="midnightblue" d="M913.74,-295.38C902.17,-323.85 877.03,-377.06 840,-409 835.63,-412.77 830.41,-415.87 825.1,-418.4"/>
<polygon fill="midnightblue" stroke="midnightblue" points="917.11,-296.36 917.5,-285.77 910.59,-293.81 917.11,-296.36"/>
</g>
<!-- Node64 -->
<g id="node49" class="node">
<title>Node64</title>
<g id="a_node49"><a xlink:href="code__80071F00_8c.html#a388e9b373338e8f9e1ec56d1a7295795" target="_top" xlink:title=" ">
<polygon fill="white" stroke="black" points="748,-380.5 748,-399.5 840,-399.5 840,-380.5 748,-380.5"/>
<text text-anchor="middle" x="794" y="-387.5" font-family="Helvetica,sans-Serif" font-size="10.00">func_8008421C</text>
</a>
</g>
</g>
<!-- Node19&#45;&gt;Node64 -->
<g id="edge60" class="edge">
<title>Node19&#45;&gt;Node64</title>
<path fill="none" stroke="midnightblue" d="M909.34,-294.24C895.15,-315.2 869.42,-349.45 840,-371 834.94,-374.71 829.04,-377.86 823.22,-380.47"/>
<polygon fill="midnightblue" stroke="midnightblue" points="912.43,-295.92 915.02,-285.65 906.59,-292.06 912.43,-295.92"/>
</g>
<!-- Node21 -->
<g id="node18" class="node">
<title>Node21</title>
<g id="a_node18"><a xlink:href="code__80071F00_8c.html#a9d70284cbdcf98a1af0f877fef63dd21" target="_top" xlink:title=" ">
<polygon fill="white" stroke="black" points="608.5,-342.5 608.5,-361.5 700.5,-361.5 700.5,-342.5 608.5,-342.5"/>
<text text-anchor="middle" x="654.5" y="-349.5" font-family="Helvetica,sans-Serif" font-size="10.00">func_80080B28</text>
</a>
</g>
</g>
<!-- Node20&#45;&gt;Node21 -->
<g id="edge26" class="edge">
<title>Node20&#45;&gt;Node21</title>
<path fill="none" stroke="midnightblue" d="M738.15,-352C725.78,-352 712.79,-352 700.86,-352"/>
<polygon fill="midnightblue" stroke="midnightblue" points="738.36,-355.5 748.36,-352 738.36,-348.5 738.36,-355.5"/>
</g>
<!-- Node22 -->
<g id="node19" class="node">
<title>Node22</title>
<g id="a_node19"><a xlink:href="code__80071F00_8c.html#a8afc56ea0d06d8d9d473e5883925c9a9" target="_top" xlink:title=" ">
<polygon fill="white" stroke="black" points="469.5,-314.5 469.5,-333.5 560.5,-333.5 560.5,-314.5 469.5,-314.5"/>
<text text-anchor="middle" x="515" y="-321.5" font-family="Helvetica,sans-Serif" font-size="10.00">func_80081210</text>
</a>
</g>
</g>
<!-- Node21&#45;&gt;Node22 -->
<g id="edge27" class="edge">
<title>Node21&#45;&gt;Node22</title>
<path fill="none" stroke="midnightblue" d="M598.56,-340.81C585.97,-338.25 572.74,-335.56 560.65,-333.09"/>
<polygon fill="midnightblue" stroke="midnightblue" points="597.98,-344.27 608.48,-342.83 599.38,-337.41 597.98,-344.27"/>
</g>
<!-- Node23 -->
<g id="node20" class="node">
<title>Node23</title>
<g id="a_node20"><a xlink:href="code__80057C60_8c.html#a8a7fdf4fc705765c9463a477e3ef1858" target="_top" xlink:title=" ">
<polygon fill="white" stroke="red" points="317,-314.5 317,-333.5 409,-333.5 409,-314.5 317,-314.5"/>
<text text-anchor="middle" x="363" y="-321.5" font-family="Helvetica,sans-Serif" font-size="10.00">func_8005A71C</text>
</a>
</g>
</g>
<!-- Node22&#45;&gt;Node23 -->
<g id="edge28" class="edge">
<title>Node22&#45;&gt;Node23</title>
<path fill="none" stroke="midnightblue" d="M459.36,-324C442.88,-324 424.99,-324 409.21,-324"/>
<polygon fill="midnightblue" stroke="midnightblue" points="459.4,-327.5 469.4,-324 459.4,-320.5 459.4,-327.5"/>
</g>
<!-- Node31 -->
<g id="node22" class="node">
<title>Node31</title>
<g id="a_node22"><a xlink:href="code__80005FD0_8c.html#aa196422871ac2034500952ad883d7cfa" target="_top" xlink:title=" ">
<polygon fill="white" stroke="black" points="608.5,-266.5 608.5,-285.5 700.5,-285.5 700.5,-266.5 608.5,-266.5"/>
<text text-anchor="middle" x="654.5" y="-273.5" font-family="Helvetica,sans-Serif" font-size="10.00">func_80012AC0</text>
</a>
</g>
</g>
<!-- Node30&#45;&gt;Node31 -->
<g id="edge30" class="edge">
<title>Node30&#45;&gt;Node31</title>
<path fill="none" stroke="midnightblue" d="M737.79,-276C725.45,-276 712.5,-276 700.62,-276"/>
<polygon fill="midnightblue" stroke="midnightblue" points="737.98,-279.5 747.98,-276 737.98,-272.5 737.98,-279.5"/>
</g>
<!-- Node32 -->
<g id="node23" class="node">
<title>Node32</title>
<g id="a_node23"><a xlink:href="code__80005FD0_8c.html#a0beffd50c650792fcea6415b153aa74f" target="_top" xlink:title=" ">
<polygon fill="white" stroke="red" points="469.5,-257.5 469.5,-276.5 560.5,-276.5 560.5,-257.5 469.5,-257.5"/>
<text text-anchor="middle" x="515" y="-264.5" font-family="Helvetica,sans-Serif" font-size="10.00">func_800097E0</text>
</a>
</g>
</g>
<!-- Node31&#45;&gt;Node32 -->
<g id="edge31" class="edge">
<title>Node31&#45;&gt;Node32</title>
<path fill="none" stroke="midnightblue" d="M598.18,-272.38C585.71,-271.56 572.62,-270.71 560.65,-269.92"/>
<polygon fill="midnightblue" stroke="midnightblue" points="598.27,-275.89 608.48,-273.05 598.73,-268.91 598.27,-275.89"/>
</g>
<!-- Node33 -->
<g id="node24" class="node">
<title>Node33</title>
<g id="a_node24"><a xlink:href="race__logic_8c.html#af3b28af56eee680540843d3bd6bd24ba" target="_top" xlink:title=" ">
<polygon fill="white" stroke="red" points="317.5,-257.5 317.5,-276.5 408.5,-276.5 408.5,-257.5 317.5,-257.5"/>
<text text-anchor="middle" x="363" y="-264.5" font-family="Helvetica,sans-Serif" font-size="10.00">func_8028F474</text>
</a>
</g>
</g>
<!-- Node32&#45;&gt;Node33 -->
<g id="edge32" class="edge">
<title>Node32&#45;&gt;Node33</title>
<path fill="none" stroke="midnightblue" d="M459.27,-267C442.64,-267 424.57,-267 408.69,-267"/>
<polygon fill="midnightblue" stroke="midnightblue" points="459.4,-270.5 469.4,-267 459.4,-263.5 459.4,-270.5"/>
</g>
<!-- Node36 -->
<g id="node27" class="node">
<title>Node36</title>
<g id="a_node27"><a xlink:href="code__80071F00_8c.html#a41a6c5fa88447f3b6d5c9c3cb65d7784" target="_top" xlink:title=" ">
<polygon fill="white" stroke="black" points="609,-152.5 609,-171.5 700,-171.5 700,-152.5 609,-152.5"/>
<text text-anchor="middle" x="654.5" y="-159.5" font-family="Helvetica,sans-Serif" font-size="10.00">func_80075F98</text>
</a>
</g>
</g>
<!-- Node35&#45;&gt;Node36 -->
<g id="edge35" class="edge">
<title>Node35&#45;&gt;Node36</title>
<path fill="none" stroke="midnightblue" d="M738.05,-162C725.55,-162 712.41,-162 700.39,-162"/>
<polygon fill="midnightblue" stroke="midnightblue" points="738.36,-165.5 748.36,-162 738.36,-158.5 738.36,-165.5"/>
</g>
<!-- Node37 -->
<g id="node28" class="node">
<title>Node37</title>
<g id="a_node28"><a xlink:href="code__80071F00_8c.html#a401992e1c9638d1a48190456bd7af9a3" target="_top" xlink:title=" ">
<polygon fill="white" stroke="red" points="469,-152.5 469,-171.5 561,-171.5 561,-152.5 469,-152.5"/>
<text text-anchor="middle" x="515" y="-159.5" font-family="Helvetica,sans-Serif" font-size="10.00">func_8007601C</text>
</a>
</g>
</g>
<!-- Node36&#45;&gt;Node37 -->
<g id="edge36" class="edge">
<title>Node36&#45;&gt;Node37</title>
<path fill="none" stroke="midnightblue" d="M598.65,-162C586.28,-162 573.29,-162 561.36,-162"/>
<polygon fill="midnightblue" stroke="midnightblue" points="598.86,-165.5 608.86,-162 598.86,-158.5 598.86,-165.5"/>
</g>
<!-- Node44 -->
<g id="node30" class="node">
<title>Node44</title>
<g id="a_node30"><a xlink:href="code__80071F00_8c.html#a26f43007c28b1d28cb27a42fc3ae99d6" target="_top" xlink:title=" ">
<polygon fill="white" stroke="black" points="608,-114.5 608,-133.5 701,-133.5 701,-114.5 608,-114.5"/>
<text text-anchor="middle" x="654.5" y="-121.5" font-family="Helvetica,sans-Serif" font-size="10.00">func_800762DC</text>
</a>
</g>
</g>
<!-- Node43&#45;&gt;Node44 -->
<g id="edge38" class="edge">
<title>Node43&#45;&gt;Node44</title>
<path fill="none" stroke="midnightblue" d="M738.26,-124C726.02,-124 713.17,-124 701.33,-124"/>
<polygon fill="midnightblue" stroke="midnightblue" points="738.36,-127.5 748.36,-124 738.36,-120.5 738.36,-127.5"/>
</g>
<!-- Node45 -->
<g id="node31" class="node">
<title>Node45</title>
<g id="a_node31"><a xlink:href="code__80071F00_8c.html#a269298ce38d852af33c677ae12781528" target="_top" xlink:title=" ">
<polygon fill="white" stroke="red" points="469,-114.5 469,-133.5 561,-133.5 561,-114.5 469,-114.5"/>
<text text-anchor="middle" x="515" y="-121.5" font-family="Helvetica,sans-Serif" font-size="10.00">func_8007661C</text>
</a>
</g>
</g>
<!-- Node44&#45;&gt;Node45 -->
<g id="edge39" class="edge">
<title>Node44&#45;&gt;Node45</title>
<path fill="none" stroke="midnightblue" d="M597.67,-124C585.51,-124 572.8,-124 561.12,-124"/>
<polygon fill="midnightblue" stroke="midnightblue" points="597.71,-127.5 607.71,-124 597.71,-120.5 597.71,-127.5"/>
</g>
<!-- Node47 -->
<g id="node33" class="node">
<title>Node47</title>
<g id="a_node33"><a xlink:href="code__80071F00_8c.html#a3adf8ea9e6bd7bba08eae49402cc7b3e" target="_top" xlink:title=" ">
<polygon fill="white" stroke="black" points="609,-76.5 609,-95.5 700,-95.5 700,-76.5 609,-76.5"/>
<text text-anchor="middle" x="654.5" y="-83.5" font-family="Helvetica,sans-Serif" font-size="10.00">func_80076884</text>
</a>
</g>
</g>
<!-- Node46&#45;&gt;Node47 -->
<g id="edge41" class="edge">
<title>Node46&#45;&gt;Node47</title>
<path fill="none" stroke="midnightblue" d="M738.05,-86C725.55,-86 712.41,-86 700.39,-86"/>
<polygon fill="midnightblue" stroke="midnightblue" points="738.36,-89.5 748.36,-86 738.36,-82.5 738.36,-89.5"/>
</g>
<!-- Node49 -->
<g id="node35" class="node">
<title>Node49</title>
<g id="a_node35"><a xlink:href="code__80005FD0_8c.html#a46b5d6ea5f0a9a093626752a399ed166" target="_top" xlink:title=" ">
<polygon fill="white" stroke="black" points="609,-228.5 609,-247.5 700,-247.5 700,-228.5 609,-228.5"/>
<text text-anchor="middle" x="654.5" y="-235.5" font-family="Helvetica,sans-Serif" font-size="10.00">func_8000EF20</text>
</a>
</g>
</g>
<!-- Node48&#45;&gt;Node49 -->
<g id="edge43" class="edge">
<title>Node48&#45;&gt;Node49</title>
<path fill="none" stroke="midnightblue" d="M737.68,-238C725.21,-238 712.12,-238 700.15,-238"/>
<polygon fill="midnightblue" stroke="midnightblue" points="737.98,-241.5 747.98,-238 737.98,-234.5 737.98,-241.5"/>
</g>
<!-- Node49&#45;&gt;Node32 -->
<g id="edge44" class="edge">
<title>Node49&#45;&gt;Node32</title>
<path fill="none" stroke="midnightblue" d="M598.92,-249.51C586.31,-252.17 573.03,-254.97 560.89,-257.53"/>
<polygon fill="midnightblue" stroke="midnightblue" points="599.8,-252.9 608.86,-247.42 598.35,-246.05 599.8,-252.9"/>
</g>
<!-- Node52 -->
<g id="node38" class="node">
<title>Node52</title>
<g id="a_node38"><a xlink:href="code__80071F00_8c.html#a4d6f93c9215ab413c6c9e5f799983872" target="_top" xlink:title=" ">
<polygon fill="white" stroke="black" points="608.5,-0.5 608.5,-19.5 700.5,-19.5 700.5,-0.5 608.5,-0.5"/>
<text text-anchor="middle" x="654.5" y="-7.5" font-family="Helvetica,sans-Serif" font-size="10.00">func_80086C6C</text>
</a>
</g>
</g>
<!-- Node51&#45;&gt;Node52 -->
<g id="edge47" class="edge">
<title>Node51&#45;&gt;Node52</title>
<path fill="none" stroke="midnightblue" d="M737.79,-10C725.45,-10 712.5,-10 700.62,-10"/>
<polygon fill="midnightblue" stroke="midnightblue" points="737.98,-13.5 747.98,-10 737.98,-6.5 737.98,-13.5"/>
</g>
<!-- Node54 -->
<g id="node40" class="node">
<title>Node54</title>
<g id="a_node40"><a xlink:href="code__80071F00_8c.html#add5228b07e0da54fc688397b56b625bd" target="_top" xlink:title=" ">
<polygon fill="white" stroke="black" points="608.5,-494.5 608.5,-513.5 700.5,-513.5 700.5,-494.5 608.5,-494.5"/>
<text text-anchor="middle" x="654.5" y="-501.5" font-family="Helvetica,sans-Serif" font-size="10.00">func_80077AB0</text>
</a>
</g>
</g>
<!-- Node53&#45;&gt;Node54 -->
<g id="edge49" class="edge">
<title>Node53&#45;&gt;Node54</title>
<path fill="none" stroke="midnightblue" d="M737.79,-504C725.45,-504 712.5,-504 700.62,-504"/>
<polygon fill="midnightblue" stroke="midnightblue" points="737.98,-507.5 747.98,-504 737.98,-500.5 737.98,-507.5"/>
</g>
<!-- Node55 -->
<g id="node41" class="node">
<title>Node55</title>
<g id="a_node41"><a xlink:href="actors_8c.html#a6c0c7ff521283f65486bac69b3e00e49" target="_top" xlink:title=" ">
<polygon fill="white" stroke="red" points="469,-494.5 469,-513.5 561,-513.5 561,-494.5 469,-494.5"/>
<text text-anchor="middle" x="515" y="-501.5" font-family="Helvetica,sans-Serif" font-size="10.00">func_8029F69C</text>
</a>
</g>
</g>
<!-- Node54&#45;&gt;Node55 -->
<g id="edge50" class="edge">
<title>Node54&#45;&gt;Node55</title>
<path fill="none" stroke="midnightblue" d="M598.29,-504C585.95,-504 573,-504 561.12,-504"/>
<polygon fill="midnightblue" stroke="midnightblue" points="598.48,-507.5 608.48,-504 598.48,-500.5 598.48,-507.5"/>
</g>
<!-- Node59 -->
<g id="node43" class="node">
<title>Node59</title>
<g id="a_node43"><a xlink:href="code__80071F00_8c.html#a7cccb4f6d5faf49ab0e338bab2e9f535" target="_top" xlink:title=" ">
<polygon fill="white" stroke="black" points="608.5,-456.5 608.5,-475.5 700.5,-475.5 700.5,-456.5 608.5,-456.5"/>
<text text-anchor="middle" x="654.5" y="-463.5" font-family="Helvetica,sans-Serif" font-size="10.00">func_8007E3EC</text>
</a>
</g>
</g>
<!-- Node58&#45;&gt;Node59 -->
<g id="edge52" class="edge">
<title>Node58&#45;&gt;Node59</title>
<path fill="none" stroke="midnightblue" d="M737.79,-466C725.45,-466 712.5,-466 700.62,-466"/>
<polygon fill="midnightblue" stroke="midnightblue" points="737.98,-469.5 747.98,-466 737.98,-462.5 737.98,-469.5"/>
</g>
<!-- Node60 -->
<g id="node44" class="node">
<title>Node60</title>
<g id="a_node44"><a xlink:href="code__80071F00_8c.html#ac8b268e6a216ed165f6d9ba102367fd7" target="_top" xlink:title=" ">
<polygon fill="white" stroke="black" points="469,-456.5 469,-475.5 561,-475.5 561,-456.5 469,-456.5"/>
<text text-anchor="middle" x="515" y="-463.5" font-family="Helvetica,sans-Serif" font-size="10.00">func_8007E4C4</text>
</a>
</g>
</g>
<!-- Node59&#45;&gt;Node60 -->
<g id="edge53" class="edge">
<title>Node59&#45;&gt;Node60</title>
<path fill="none" stroke="midnightblue" d="M598.29,-466C585.95,-466 573,-466 561.12,-466"/>
<polygon fill="midnightblue" stroke="midnightblue" points="598.48,-469.5 608.48,-466 598.48,-462.5 598.48,-469.5"/>
</g>
<!-- Node40 -->
<g id="node45" class="node">
<title>Node40</title>
<g id="a_node45"><a xlink:href="code__80057C60_8c.html#a3de7d81d0ab030980ab3b2ea5bcf901e" target="_top" xlink:title=" ">
<polygon fill="white" stroke="red" points="317,-418.5 317,-437.5 409,-437.5 409,-418.5 317,-418.5"/>
<text text-anchor="middle" x="363" y="-425.5" font-family="Helvetica,sans-Serif" font-size="10.00">func_8005A74C</text>
</a>
</g>
</g>
<!-- Node60&#45;&gt;Node40 -->
<g id="edge54" class="edge">
<title>Node60&#45;&gt;Node40</title>
<path fill="none" stroke="midnightblue" d="M466.19,-453.89C445.3,-448.6 421.15,-442.48 401.58,-437.52"/>
<polygon fill="midnightblue" stroke="midnightblue" points="465.6,-457.35 476.15,-456.41 467.31,-450.56 465.6,-457.35"/>
</g>
<!-- Node61&#45;&gt;Node22 -->
<g id="edge56" class="edge">
<title>Node61&#45;&gt;Node22</title>
<path fill="none" stroke="midnightblue" d="M598.18,-318.02C585.71,-318.93 572.62,-319.88 560.65,-320.75"/>
<polygon fill="midnightblue" stroke="midnightblue" points="598.76,-321.49 608.48,-317.27 598.25,-314.51 598.76,-321.49"/>
</g>
<!-- Node63 -->
<g id="node48" class="node">
<title>Node63</title>
<g id="a_node48"><a xlink:href="code__80071F00_8c.html#ac9e0c39c305dbc9c1ed1de532d868698" target="_top" xlink:title=" ">
<polygon fill="white" stroke="black" points="469,-418.5 469,-437.5 561,-437.5 561,-418.5 469,-418.5"/>
<text text-anchor="middle" x="515" y="-425.5" font-family="Helvetica,sans-Serif" font-size="10.00">func_80083D60</text>
</a>
</g>
</g>
<!-- Node62&#45;&gt;Node63 -->
<g id="edge58" class="edge">
<title>Node62&#45;&gt;Node63</title>
<path fill="none" stroke="midnightblue" d="M738.49,-428C686.73,-428 609.81,-428 561.31,-428"/>
<polygon fill="midnightblue" stroke="midnightblue" points="738.5,-431.5 748.5,-428 738.5,-424.5 738.5,-431.5"/>
</g>
<!-- Node63&#45;&gt;Node40 -->
<g id="edge59" class="edge">
<title>Node63&#45;&gt;Node40</title>
<path fill="none" stroke="midnightblue" d="M458.55,-428C442.31,-428 424.76,-428 409.23,-428"/>
<polygon fill="midnightblue" stroke="midnightblue" points="459,-431.5 469,-428 459,-424.5 459,-431.5"/>
</g>
<!-- Node65 -->
<g id="node50" class="node">
<title>Node65</title>
<g id="a_node50"><a xlink:href="code__80071F00_8c.html#a85427aaa2bb0c47fde015fa11c4771a3" target="_top" xlink:title=" ">
<polygon fill="white" stroke="black" points="469,-380.5 469,-399.5 561,-399.5 561,-380.5 469,-380.5"/>
<text text-anchor="middle" x="515" y="-387.5" font-family="Helvetica,sans-Serif" font-size="10.00">func_800842C8</text>
</a>
</g>
</g>
<!-- Node64&#45;&gt;Node65 -->
<g id="edge61" class="edge">
<title>Node64&#45;&gt;Node65</title>
<path fill="none" stroke="midnightblue" d="M737.86,-390C686.02,-390 609.38,-390 561.1,-390"/>
<polygon fill="midnightblue" stroke="midnightblue" points="737.88,-393.5 747.88,-390 737.88,-386.5 737.88,-393.5"/>
</g>
<!-- Node65&#45;&gt;Node40 -->
<g id="edge62" class="edge">
<title>Node65&#45;&gt;Node40</title>
<path fill="none" stroke="midnightblue" d="M466.19,-402.11C445.3,-407.4 421.15,-413.52 401.58,-418.48"/>
<polygon fill="midnightblue" stroke="midnightblue" points="467.31,-405.44 476.15,-399.59 465.6,-398.65 467.31,-405.44"/>
</g>
</g>
</svg>
        <g id="navigator" transform="translate(0 0)" fill="#404254">
                <rect fill="#f2f5e9" fill-opacity="0.5" stroke="#606060" stroke-width=".5" x="0" y="0" width="60" height="60"/>
                <use id="zoomplus" xlink:href="#zoomPlus" x="17" y="9" onmousedown="handleZoom(evt,'in')"/>
                <use id="zoomminus" xlink:href="#zoomMin" x="42" y="9" onmousedown="handleZoom(evt,'out')"/>
                <use id="reset" xlink:href="#resetDef" x="30" y="36" onmousedown="handleReset()"/>
                <g id="arrowUp" xlink:href="#dirArrow" transform="translate(30 24)" onmousedown="handlePan(0,-1)">
                  <use xlink:href="#rim" fill="#404040">
                        <set attributeName="fill" to="#808080" begin="arrowUp.mouseover" end="arrowUp.mouseout"/>
                  </use>
                  <path fill="none" stroke="white" stroke-width="1.5" d="M0,-3.0v7 M-2.5,-0.5L0,-3.0L2.5,-0.5"/>
                </g>
                <g id="arrowRight" xlink:href="#dirArrow" transform="rotate(90) translate(36 -43)" onmousedown="handlePan(1,0)">
                  <use xlink:href="#rim" fill="#404040">
                        <set attributeName="fill" to="#808080" begin="arrowRight.mouseover" end="arrowRight.mouseout"/>
                  </use>
                  <path fill="none" stroke="white" stroke-width="1.5" d="M0,-3.0v7 M-2.5,-0.5L0,-3.0L2.5,-0.5"/>
                </g>
                <g id="arrowDown" xlink:href="#dirArrow" transform="rotate(180) translate(-30 -48)" onmousedown="handlePan(0,1)">
                  <use xlink:href="#rim" fill="#404040">
                        <set attributeName="fill" to="#808080" begin="arrowDown.mouseover" end="arrowDown.mouseout"/>
                  </use>
                  <path fill="none" stroke="white" stroke-width="1.5" d="M0,-3.0v7 M-2.5,-0.5L0,-3.0L2.5,-0.5"/>
                </g>
                <g id="arrowLeft" xlink:href="#dirArrow" transform="rotate(270) translate(-36 17)" onmousedown="handlePan(-1,0)">
                  <use xlink:href="#rim" fill="#404040">
                        <set attributeName="fill" to="#808080" begin="arrowLeft.mouseover" end="arrowLeft.mouseout"/>
                  </use>
                  <path fill="none" stroke="white" stroke-width="1.5" d="M0,-3.0v7 M-2.5,-0.5L0,-3.0L2.5,-0.5"/>
                </g>
        </g>
        <svg viewBox="0 0 15 15" width="100%" height="30px" preserveAspectRatio="xMaxYMin meet">
         <g id="arrow_out" transform="scale(0.3 0.3)">
          <a xlink:href="code__80071F00_8c_a92856990c4ca5fba1b8e0c61ca832c27_icgraph_org.svg" target="_base">
           <rect id="button" ry="5" rx="5" y="6" x="6" height="38" width="38"
                fill="#f2f5e9" fill-opacity="0.5" stroke="#606060" stroke-width="1.0"/>
           <path id="arrow"
             d="M 11.500037,31.436501 C 11.940474,20.09759 22.043105,11.32322 32.158766,21.979434 L 37.068811,17.246167 C 37.068811,17.246167 37.088388,32 37.088388,32 L 22.160133,31.978069 C 22.160133,31.978069 26.997745,27.140456 26.997745,27.140456 C 18.528582,18.264221 13.291696,25.230495 11.500037,31.436501 z"
             style="fill:#404040;"/>
          </a>
         </g>
        </svg>
</svg>
