<?xml version="1.0" encoding="UTF-8" standalone="no"?>
<!DOCTYPE svg PUBLIC "-//W3C//DTD SVG 1.1//EN"
 "http://www.w3.org/Graphics/SVG/1.1/DTD/svg11.dtd">
<!-- Generated by graphviz version 2.43.0 (0)
 -->
<!-- Title: func_80082E18 Pages: 1 -->
<svg width="402pt" height="127pt"
 viewBox="0.00 0.00 402.00 126.50" xmlns="http://www.w3.org/2000/svg" xmlns:xlink="http://www.w3.org/1999/xlink">
<g id="graph0" class="graph" transform="scale(1 1) rotate(0) translate(4 122.5)">
<title>func_80082E18</title>
<polygon fill="white" stroke="transparent" points="-4,4 -4,-122.5 398,-122.5 398,4 -4,4"/>
<!-- Node1 -->
<g id="node1" class="node">
<title>Node1</title>
<g id="a_node1"><a xlink:title=" ">
<polygon fill="#bfbfbf" stroke="black" points="0,-55 0,-74 91,-74 91,-55 0,-55"/>
<text text-anchor="middle" x="45.5" y="-62" font-family="Helvetica,sans-Serif" font-size="10.00">func_80082E18</text>
</a>
</g>
</g>
<!-- Node2 -->
<g id="node2" class="node">
<title>Node2</title>
<g id="a_node2"><a xlink:href="code__80086E70_8c.html#ab4a9e5bfe7068ff4c104f2df0dda7d3a" target="_top" xlink:title=" ">
<polygon fill="white" stroke="black" points="127,-55 127,-74 218,-74 218,-55 127,-55"/>
<text text-anchor="middle" x="172.5" y="-62" font-family="Helvetica,sans-Serif" font-size="10.00">func_80089F24</text>
</a>
</g>
</g>
<!-- Node1&#45;&gt;Node2 -->
<g id="edge1" class="edge">
<title>Node1&#45;&gt;Node2</title>
<path fill="none" stroke="midnightblue" d="M91.27,-64.5C99.44,-64.5 108.05,-64.5 116.47,-64.5"/>
<polygon fill="midnightblue" stroke="midnightblue" points="116.62,-68 126.62,-64.5 116.62,-61 116.62,-68"/>
</g>
<!-- Node3 -->
<g id="node3" class="node">
<title>Node3</title>
<g id="a_node3"><a xlink:href="code__80071F00_8c.html#ae57757eefbb9b9d12420ed66ad408175" target="_top" xlink:title=" ">
<polygon fill="white" stroke="black" points="278.5,-99 278.5,-118 369.5,-118 369.5,-99 278.5,-99"/>
<text text-anchor="middle" x="324" y="-106" font-family="Helvetica,sans-Serif" font-size="10.00">func_80072180</text>
</a>
</g>
</g>
<!-- Node2&#45;&gt;Node3 -->
<g id="edge2" class="edge">
<title>Node2&#45;&gt;Node3</title>
<path fill="none" stroke="midnightblue" d="M203.63,-74.11C218.72,-78.86 237.29,-84.61 254,-89.5 261.63,-91.73 269.76,-94.04 277.65,-96.24"/>
<polygon fill="midnightblue" stroke="midnightblue" points="276.91,-99.66 287.48,-98.96 278.78,-92.92 276.91,-99.66"/>
</g>
<!-- Node4 -->
<g id="node4" class="node">
<title>Node4</title>
<g id="a_node4"><a xlink:href="code__80086E70_8c.html#a3c54cb4036c93218b440fc6eb1cf88a9" target="_top" xlink:title="Returns if the object collided with the player.">
<polygon fill="white" stroke="black" points="254,-49.5 254,-79.5 394,-79.5 394,-49.5 254,-49.5"/>
<text text-anchor="start" x="262" y="-67.5" font-family="Helvetica,sans-Serif" font-size="10.00">has_collided_horizontally</text>
<text text-anchor="middle" x="324" y="-56.5" font-family="Helvetica,sans-Serif" font-size="10.00">_with_player</text>
</a>
</g>
</g>
<!-- Node2&#45;&gt;Node4 -->
<g id="edge3" class="edge">
<title>Node2&#45;&gt;Node4</title>
<path fill="none" stroke="midnightblue" d="M218.35,-64.5C226.39,-64.5 234.98,-64.5 243.65,-64.5"/>
<polygon fill="midnightblue" stroke="midnightblue" points="243.84,-68 253.84,-64.5 243.84,-61 243.84,-68"/>
</g>
<!-- Node5 -->
<g id="node5" class="node">
<title>Node5</title>
<g id="a_node5"><a xlink:href="code__80071F00_8c.html#a5d62494ea345d5a576d4440772111136" target="_top" xlink:title=" ">
<polygon fill="white" stroke="black" points="262,-0.5 262,-30.5 386,-30.5 386,-0.5 262,-0.5"/>
<text text-anchor="start" x="270" y="-18.5" font-family="Helvetica,sans-Serif" font-size="10.00">is_obj_index_flag_unk</text>
<text text-anchor="middle" x="324" y="-7.5" font-family="Helvetica,sans-Serif" font-size="10.00">_054_active</text>
</a>
</g>
</g>
<!-- Node2&#45;&gt;Node5 -->
<g id="edge4" class="edge">
<title>Node2&#45;&gt;Node5</title>
<path fill="none" stroke="midnightblue" d="M202.68,-54.94C221.11,-48.89 245.52,-40.89 267.53,-33.68"/>
<polygon fill="midnightblue" stroke="midnightblue" points="268.71,-36.98 277.12,-30.54 266.53,-30.33 268.71,-36.98"/>
</g>
</g>
</svg>
