<?xml version="1.0" encoding="UTF-8" standalone="no"?>
<!DOCTYPE svg PUBLIC "-//W3C//DTD SVG 1.1//EN"
 "http://www.w3.org/Graphics/SVG/1.1/DTD/svg11.dtd">
<!-- Generated by graphviz version 2.43.0 (0)
 -->
<!-- Title: func_80012AC0 Pages: 1 -->
<!--zoomable 370 -->
<svg id="main" version="1.1" xmlns="http://www.w3.org/2000/svg" xmlns:xlink="http://www.w3.org/1999/xlink" xml:space="preserve" onload="init(evt)">
<style type="text/css"><![CDATA[
.edge:hover path { stroke: red; }
.edge:hover polygon { stroke: red; fill: red; }
]]></style>
<script type="text/javascript"><![CDATA[
var edges = document.getElementsByTagName('g');
if (edges && edges.length) {
  for (var i=0;i<edges.length;i++) {
    if (edges[i].id.substr(0,4)=='edge') {
      edges[i].setAttribute('class','edge');
    }
  }
}
]]></script>
        <defs>
                <circle id="rim" cx="0" cy="0" r="7"/>
                <circle id="rim2" cx="0" cy="0" r="3.5"/>
                <g id="zoomPlus">
                        <use xlink:href="#rim" fill="#404040">
                                <set attributeName="fill" to="#808080" begin="zoomplus.mouseover" end="zoomplus.mouseout"/>
                        </use>
                        <path d="M-4,0h8M0,-4v8" fill="none" stroke="white" stroke-width="1.5" pointer-events="none"/>
                </g>
                <g id="zoomMin">
                        <use xlink:href="#rim" fill="#404040">
                                <set attributeName="fill" to="#808080" begin="zoomminus.mouseover" end="zoomminus.mouseout"/>
                        </use>
                        <path d="M-4,0h8" fill="none" stroke="white" stroke-width="1.5" pointer-events="none"/>
                </g>
                <g id="dirArrow">
                        <path fill="none" stroke="white" stroke-width="1.5" d="M0,-3.0v7 M-2.5,-0.5L0,-3.0L2.5,-0.5"/>
                </g>
               <g id="resetDef">
                       <use xlink:href="#rim2" fill="#404040">
                               <set attributeName="fill" to="#808080" begin="reset.mouseover" end="reset.mouseout"/>
                       </use>
               </g>
        </defs>

<script type="text/javascript">
var viewWidth = 811;
var viewHeight = 370;
var sectionId = 'dynsection-103';
</script>
<script xlink:href="svgpan.js"/>
<svg id="graph" class="graph">
<g id="viewport">
<title>func_80012AC0</title>
<polygon fill="white" stroke="transparent" points="-4,4 -4,-366 807,-366 807,4 -4,4"/>
<!-- Node1 -->
<g id="node1" class="node">
<title>Node1</title>
<g id="a_node1"><a xlink:title=" ">
<polygon fill="#bfbfbf" stroke="black" points="0,-171.5 0,-190.5 92,-190.5 92,-171.5 0,-171.5"/>
<text text-anchor="middle" x="46" y="-178.5" font-family="Helvetica,sans-Serif" font-size="10.00">func_80012AC0</text>
</a>
</g>
</g>
<!-- Node2 -->
<g id="node2" class="node">
<title>Node2</title>
<g id="a_node2"><a xlink:href="code__80005FD0_8c.html#a4e2ffaf7380570c3c94e7083566d4e91" target="_top" xlink:title=" ">
<polygon fill="white" stroke="black" points="130,-304.5 130,-323.5 221,-323.5 221,-304.5 130,-304.5"/>
<text text-anchor="middle" x="175.5" y="-311.5" font-family="Helvetica,sans-Serif" font-size="10.00">func_80006114</text>
</a>
</g>
</g>
<!-- Node1&#45;&gt;Node2 -->
<g id="edge1" class="edge">
<title>Node1&#45;&gt;Node2</title>
<path fill="none" stroke="midnightblue" d="M54.29,-190.66C67.89,-208.41 98.42,-247.03 128,-276 135.85,-283.69 145.12,-291.49 153.31,-298"/>
<polygon fill="midnightblue" stroke="midnightblue" points="151.3,-300.88 161.34,-304.27 155.61,-295.36 151.3,-300.88"/>
</g>
<!-- Node5 -->
<g id="node5" class="node">
<title>Node5</title>
<g id="a_node5"><a xlink:href="code__80005FD0_8c.html#a850bf12e6ea0e5403e5e6eebc684921d" target="_top" xlink:title=" ">
<polygon fill="white" stroke="black" points="129,-247.5 129,-266.5 222,-266.5 222,-247.5 129,-247.5"/>
<text text-anchor="middle" x="175.5" y="-254.5" font-family="Helvetica,sans-Serif" font-size="10.00">func_800061DC</text>
</a>
</g>
</g>
<!-- Node1&#45;&gt;Node5 -->
<g id="edge4" class="edge">
<title>Node1&#45;&gt;Node5</title>
<path fill="none" stroke="midnightblue" d="M58.79,-190.59C74.09,-202.71 101.9,-223.72 128,-238 131.33,-239.82 134.88,-241.58 138.47,-243.23"/>
<polygon fill="midnightblue" stroke="midnightblue" points="137.39,-246.58 147.95,-247.36 140.18,-240.16 137.39,-246.58"/>
</g>
<!-- Node6 -->
<g id="node6" class="node">
<title>Node6</title>
<g id="a_node6"><a xlink:href="code__80005FD0_8c.html#a999bc47d5faecbe08adb45a4114cd52f" target="_top" xlink:title=" ">
<polygon fill="white" stroke="black" points="128,-209.5 128,-228.5 223,-228.5 223,-209.5 128,-209.5"/>
<text text-anchor="middle" x="175.5" y="-216.5" font-family="Helvetica,sans-Serif" font-size="10.00">func_8000DBAC</text>
</a>
</g>
</g>
<!-- Node1&#45;&gt;Node6 -->
<g id="edge5" class="edge">
<title>Node1&#45;&gt;Node6</title>
<path fill="none" stroke="midnightblue" d="M79.17,-190.59C95.33,-195.4 115.11,-201.3 132.45,-206.47"/>
<polygon fill="midnightblue" stroke="midnightblue" points="131.75,-209.91 142.34,-209.41 133.75,-203.2 131.75,-209.91"/>
</g>
<!-- Node13 -->
<g id="node13" class="node">
<title>Node13</title>
<g id="a_node13"><a xlink:href="code__80005FD0_8c.html#a99a73cdc9f0f779c1622d81f111c9499" target="_top" xlink:title=" ">
<polygon fill="white" stroke="black" points="129.5,-171.5 129.5,-190.5 221.5,-190.5 221.5,-171.5 129.5,-171.5"/>
<text text-anchor="middle" x="175.5" y="-178.5" font-family="Helvetica,sans-Serif" font-size="10.00">func_80012A48</text>
</a>
</g>
</g>
<!-- Node1&#45;&gt;Node13 -->
<g id="edge12" class="edge">
<title>Node1&#45;&gt;Node13</title>
<path fill="none" stroke="midnightblue" d="M92.31,-181C101.05,-181 110.29,-181 119.3,-181"/>
<polygon fill="midnightblue" stroke="midnightblue" points="119.34,-184.5 129.34,-181 119.34,-177.5 119.34,-184.5"/>
</g>
<!-- Node14 -->
<g id="node14" class="node">
<title>Node14</title>
<g id="a_node14"><a xlink:href="code__80071F00_8c.html#a831364f1ff3540df93cc13566e501de6" target="_top" xlink:title=" ">
<polygon fill="white" stroke="black" points="129.5,-133.5 129.5,-152.5 221.5,-152.5 221.5,-133.5 129.5,-133.5"/>
<text text-anchor="middle" x="175.5" y="-140.5" font-family="Helvetica,sans-Serif" font-size="10.00">func_800755FC</text>
</a>
</g>
</g>
<!-- Node1&#45;&gt;Node14 -->
<g id="edge13" class="edge">
<title>Node1&#45;&gt;Node14</title>
<path fill="none" stroke="midnightblue" d="M79.17,-171.41C95.33,-166.6 115.11,-160.7 132.45,-155.53"/>
<polygon fill="midnightblue" stroke="midnightblue" points="133.75,-158.8 142.34,-152.59 131.75,-152.09 133.75,-158.8"/>
</g>
<!-- Node20 -->
<g id="node20" class="node">
<title>Node20</title>
<g id="a_node20"><a xlink:href="math__util_8c.html#a151b63b8adf9af7e4054b3b84bd226dc" target="_top" xlink:title=" ">
<polygon fill="white" stroke="black" points="424.5,-76.5 424.5,-95.5 496.5,-95.5 496.5,-76.5 424.5,-76.5"/>
<text text-anchor="middle" x="460.5" y="-83.5" font-family="Helvetica,sans-Serif" font-size="10.00">random_int</text>
</a>
</g>
</g>
<!-- Node1&#45;&gt;Node20 -->
<g id="edge24" class="edge">
<title>Node1&#45;&gt;Node20</title>
<path fill="none" stroke="midnightblue" d="M57.55,-171.06C72.14,-157.93 99.88,-135.19 128,-124 224.57,-85.58 348.59,-82.35 414.16,-83.85"/>
<polygon fill="midnightblue" stroke="midnightblue" points="414.08,-87.35 424.17,-84.13 414.27,-80.35 414.08,-87.35"/>
</g>
<!-- Node22 -->
<g id="node22" class="node">
<title>Node22</title>
<g id="a_node22"><a xlink:href="external_8c.html#acb60983213d09ee795e80ca3c8b5975e" target="_top" xlink:title=" ">
<polygon fill="white" stroke="black" points="129.5,-38.5 129.5,-57.5 221.5,-57.5 221.5,-38.5 129.5,-38.5"/>
<text text-anchor="middle" x="175.5" y="-45.5" font-family="Helvetica,sans-Serif" font-size="10.00">func_800C98B8</text>
</a>
</g>
</g>
<!-- Node1&#45;&gt;Node22 -->
<g id="edge21" class="edge">
<title>Node1&#45;&gt;Node22</title>
<path fill="none" stroke="midnightblue" d="M52.11,-171.4C63.42,-150.9 92.42,-102.22 128,-72 132.24,-68.4 137.11,-65.15 142.08,-62.28"/>
<polygon fill="midnightblue" stroke="midnightblue" points="143.79,-65.34 150.98,-57.56 140.51,-59.15 143.79,-65.34"/>
</g>
<!-- Node3 -->
<g id="node3" class="node">
<title>Node3</title>
<g id="a_node3"><a xlink:href="math__util_8c.html#ae69cbf5c8d4b3b0dba2d7b4d4673689f" target="_top" xlink:title=" ">
<polygon fill="white" stroke="black" points="286,-342.5 286,-361.5 324,-361.5 324,-342.5 286,-342.5"/>
<text text-anchor="middle" x="305" y="-349.5" font-family="Helvetica,sans-Serif" font-size="10.00">coss</text>
</a>
</g>
</g>
<!-- Node2&#45;&gt;Node3 -->
<g id="edge2" class="edge">
<title>Node2&#45;&gt;Node3</title>
<path fill="none" stroke="midnightblue" d="M208.67,-323.59C229.4,-329.77 256.1,-337.72 275.96,-343.64"/>
<polygon fill="midnightblue" stroke="midnightblue" points="275.07,-347.03 285.66,-346.53 277.07,-340.32 275.07,-347.03"/>
</g>
<!-- Node4 -->
<g id="node4" class="node">
<title>Node4</title>
<g id="a_node4"><a xlink:href="math__util_8c.html#a19ed3bd78fd2d3e2bd0a29f6caf48545" target="_top" xlink:title=" ">
<polygon fill="white" stroke="black" points="287,-304.5 287,-323.5 323,-323.5 323,-304.5 287,-304.5"/>
<text text-anchor="middle" x="305" y="-311.5" font-family="Helvetica,sans-Serif" font-size="10.00">sins</text>
</a>
</g>
</g>
<!-- Node2&#45;&gt;Node4 -->
<g id="edge3" class="edge">
<title>Node2&#45;&gt;Node4</title>
<path fill="none" stroke="midnightblue" d="M221.09,-314C239.53,-314 260.33,-314 276.48,-314"/>
<polygon fill="midnightblue" stroke="midnightblue" points="276.83,-317.5 286.83,-314 276.83,-310.5 276.83,-317.5"/>
</g>
<!-- Node7 -->
<g id="node7" class="node">
<title>Node7</title>
<g id="a_node7"><a xlink:href="code__80005FD0_8c.html#ac0d96d9d8c5772c7fe5edbb8da736086" target="_top" xlink:title=" ">
<polygon fill="white" stroke="black" points="259,-266.5 259,-285.5 351,-285.5 351,-266.5 259,-266.5"/>
<text text-anchor="middle" x="305" y="-273.5" font-family="Helvetica,sans-Serif" font-size="10.00">func_80005FD0</text>
</a>
</g>
</g>
<!-- Node6&#45;&gt;Node7 -->
<g id="edge6" class="edge">
<title>Node6&#45;&gt;Node7</title>
<path fill="none" stroke="midnightblue" d="M201.31,-228.61C208.38,-231.49 216.05,-234.75 223,-238 239.39,-245.65 242.65,-249.25 259,-257 262.79,-258.8 266.8,-260.61 270.8,-262.37"/>
<polygon fill="midnightblue" stroke="midnightblue" points="269.44,-265.59 280.01,-266.32 272.2,-259.16 269.44,-265.59"/>
</g>
<!-- Node11 -->
<g id="node11" class="node">
<title>Node11</title>
<g id="a_node11"><a xlink:href="code__80005FD0_8c.html#a4047ab6e0dd92db5e168ed0cb8627f06" target="_top" xlink:title=" ">
<polygon fill="white" stroke="black" points="259,-228.5 259,-247.5 351,-247.5 351,-228.5 259,-228.5"/>
<text text-anchor="middle" x="305" y="-235.5" font-family="Helvetica,sans-Serif" font-size="10.00">func_8000D100</text>
</a>
</g>
</g>
<!-- Node6&#45;&gt;Node11 -->
<g id="edge10" class="edge">
<title>Node6&#45;&gt;Node11</title>
<path fill="none" stroke="midnightblue" d="M223.25,-225.97C231.63,-227.22 240.43,-228.53 249.01,-229.81"/>
<polygon fill="midnightblue" stroke="midnightblue" points="248.55,-233.27 258.95,-231.29 249.58,-226.35 248.55,-233.27"/>
</g>
<!-- Node12 -->
<g id="node12" class="node">
<title>Node12</title>
<g id="a_node12"><a xlink:href="math_8h.html#a37bde043e94a6f074c78f10518fb5d99" target="_top" xlink:title=" ">
<polygon fill="white" stroke="black" points="285.5,-190.5 285.5,-209.5 324.5,-209.5 324.5,-190.5 285.5,-190.5"/>
<text text-anchor="middle" x="305" y="-197.5" font-family="Helvetica,sans-Serif" font-size="10.00">sqrtf</text>
</a>
</g>
</g>
<!-- Node6&#45;&gt;Node12 -->
<g id="edge11" class="edge">
<title>Node6&#45;&gt;Node12</title>
<path fill="none" stroke="midnightblue" d="M223.25,-212.03C240.69,-209.43 259.96,-206.56 275.3,-204.28"/>
<polygon fill="midnightblue" stroke="midnightblue" points="275.85,-207.73 285.22,-202.8 274.82,-200.81 275.85,-207.73"/>
</g>
<!-- Node8 -->
<g id="node8" class="node">
<title>Node8</title>
<g id="a_node8"><a xlink:href="math__util_8c.html#a963f23fd2ffec93350816627af02b9da" target="_top" xlink:title=" ">
<polygon fill="white" stroke="black" points="387,-266.5 387,-285.5 534,-285.5 534,-266.5 387,-266.5"/>
<text text-anchor="middle" x="460.5" y="-273.5" font-family="Helvetica,sans-Serif" font-size="10.00">get_angle_between_points</text>
</a>
</g>
</g>
<!-- Node7&#45;&gt;Node8 -->
<g id="edge7" class="edge">
<title>Node7&#45;&gt;Node8</title>
<path fill="none" stroke="midnightblue" d="M351.22,-276C359.3,-276 367.93,-276 376.67,-276"/>
<polygon fill="midnightblue" stroke="midnightblue" points="376.96,-279.5 386.96,-276 376.96,-272.5 376.96,-279.5"/>
</g>
<!-- Node9 -->
<g id="node9" class="node">
<title>Node9</title>
<g id="a_node9"><a xlink:href="math__util_8c.html#aaa39a297477f56051975259f4bddd829" target="_top" xlink:title=" ">
<polygon fill="white" stroke="black" points="602.5,-266.5 602.5,-285.5 652.5,-285.5 652.5,-266.5 602.5,-266.5"/>
<text text-anchor="middle" x="627.5" y="-273.5" font-family="Helvetica,sans-Serif" font-size="10.00">atan2s</text>
</a>
</g>
</g>
<!-- Node8&#45;&gt;Node9 -->
<g id="edge8" class="edge">
<title>Node8&#45;&gt;Node9</title>
<path fill="none" stroke="midnightblue" d="M534.35,-276C554.32,-276 575.06,-276 591.79,-276"/>
<polygon fill="midnightblue" stroke="midnightblue" points="592.16,-279.5 602.16,-276 592.16,-272.5 592.16,-279.5"/>
</g>
<!-- Node10 -->
<g id="node10" class="node">
<title>Node10</title>
<g id="a_node10"><a xlink:href="math__util_8c.html#a0273b0ea0783a06996c28669a7438ed9" target="_top" xlink:title=" ">
<polygon fill="white" stroke="black" points="721,-266.5 721,-285.5 803,-285.5 803,-266.5 721,-266.5"/>
<text text-anchor="middle" x="762" y="-273.5" font-family="Helvetica,sans-Serif" font-size="10.00">atan2_lookup</text>
</a>
</g>
</g>
<!-- Node9&#45;&gt;Node10 -->
<g id="edge9" class="edge">
<title>Node9&#45;&gt;Node10</title>
<path fill="none" stroke="midnightblue" d="M652.8,-276C669.03,-276 690.95,-276 710.82,-276"/>
<polygon fill="midnightblue" stroke="midnightblue" points="710.98,-279.5 720.98,-276 710.98,-272.5 710.98,-279.5"/>
</g>
<!-- Node15 -->
<g id="node15" class="node">
<title>Node15</title>
<g id="a_node15"><a xlink:href="code__80071F00_8c.html#ad0d318d573b0eef80c19e6abde93957f" target="_top" xlink:title=" ">
<polygon fill="white" stroke="black" points="259.5,-152.5 259.5,-171.5 350.5,-171.5 350.5,-152.5 259.5,-152.5"/>
<text text-anchor="middle" x="305" y="-159.5" font-family="Helvetica,sans-Serif" font-size="10.00">func_80072044</text>
</a>
</g>
</g>
<!-- Node14&#45;&gt;Node15 -->
<g id="edge14" class="edge">
<title>Node14&#45;&gt;Node15</title>
<path fill="none" stroke="midnightblue" d="M221.81,-149.75C230.65,-151.07 240.01,-152.46 249.12,-153.82"/>
<polygon fill="midnightblue" stroke="midnightblue" points="248.86,-157.32 259.26,-155.33 249.89,-150.4 248.86,-157.32"/>
</g>
<!-- Node17 -->
<g id="node17" class="node">
<title>Node17</title>
<g id="a_node17"><a xlink:href="code__80071F00_8c.html#ab6456ac22b970e25edf3e4d6a4133031" target="_top" xlink:title=" ">
<polygon fill="white" stroke="black" points="259.5,-114.5 259.5,-133.5 350.5,-133.5 350.5,-114.5 259.5,-114.5"/>
<text text-anchor="middle" x="305" y="-121.5" font-family="Helvetica,sans-Serif" font-size="10.00">func_80075574</text>
</a>
</g>
</g>
<!-- Node14&#45;&gt;Node17 -->
<g id="edge16" class="edge">
<title>Node14&#45;&gt;Node17</title>
<path fill="none" stroke="midnightblue" d="M221.81,-136.25C230.65,-134.93 240.01,-133.54 249.12,-132.18"/>
<polygon fill="midnightblue" stroke="midnightblue" points="249.89,-135.6 259.26,-130.67 248.86,-128.68 249.89,-135.6"/>
</g>
<!-- Node16 -->
<g id="node16" class="node">
<title>Node16</title>
<g id="a_node16"><a xlink:href="code__80071F00_8c.html#a92856990c4ca5fba1b8e0c61ca832c27" target="_top" xlink:title=" ">
<polygon fill="white" stroke="black" points="396.5,-152.5 396.5,-171.5 524.5,-171.5 524.5,-152.5 396.5,-152.5"/>
<text text-anchor="middle" x="460.5" y="-159.5" font-family="Helvetica,sans-Serif" font-size="10.00">find_unused_obj_index</text>
</a>
</g>
</g>
<!-- Node15&#45;&gt;Node16 -->
<g id="edge15" class="edge">
<title>Node15&#45;&gt;Node16</title>
<path fill="none" stroke="midnightblue" d="M350.81,-162C361.94,-162 374.16,-162 386.27,-162"/>
<polygon fill="midnightblue" stroke="midnightblue" points="386.38,-165.5 396.38,-162 386.38,-158.5 386.38,-165.5"/>
</g>
<!-- Node18 -->
<g id="node18" class="node">
<title>Node18</title>
<g id="a_node18"><a xlink:href="code__80071F00_8c.html#abdebd086b5ff081f83af3d9205f39cd3" target="_top" xlink:title=" ">
<polygon fill="white" stroke="black" points="426.5,-114.5 426.5,-133.5 494.5,-133.5 494.5,-114.5 426.5,-114.5"/>
<text text-anchor="middle" x="460.5" y="-121.5" font-family="Helvetica,sans-Serif" font-size="10.00">init_object</text>
</a>
</g>
</g>
<!-- Node17&#45;&gt;Node18 -->
<g id="edge17" class="edge">
<title>Node17&#45;&gt;Node18</title>
<path fill="none" stroke="midnightblue" d="M350.81,-124C371.31,-124 395.5,-124 415.86,-124"/>
<polygon fill="midnightblue" stroke="midnightblue" points="416.11,-127.5 426.11,-124 416.11,-120.5 416.11,-127.5"/>
</g>
<!-- Node17&#45;&gt;Node20 -->
<g id="edge19" class="edge">
<title>Node17&#45;&gt;Node20</title>
<path fill="none" stroke="midnightblue" d="M344.73,-114.41C365.99,-109.15 392.45,-102.6 414.61,-97.11"/>
<polygon fill="midnightblue" stroke="midnightblue" points="415.59,-100.48 424.45,-94.68 413.9,-93.68 415.59,-100.48"/>
</g>
<!-- Node19 -->
<g id="node19" class="node">
<title>Node19</title>
<g id="a_node19"><a xlink:href="code__80071F00_8c.html#a4b4f00a7df0f9bc44914cd922c3cd51b" target="_top" xlink:title=" ">
<polygon fill="white" stroke="black" points="570,-114.5 570,-133.5 685,-133.5 685,-114.5 570,-114.5"/>
<text text-anchor="middle" x="627.5" y="-121.5" font-family="Helvetica,sans-Serif" font-size="10.00">set_object_unk_0CB</text>
</a>
</g>
</g>
<!-- Node18&#45;&gt;Node19 -->
<g id="edge18" class="edge">
<title>Node18&#45;&gt;Node19</title>
<path fill="none" stroke="midnightblue" d="M494.89,-124C513.51,-124 537.37,-124 559.66,-124"/>
<polygon fill="midnightblue" stroke="midnightblue" points="559.76,-127.5 569.76,-124 559.76,-120.5 559.76,-127.5"/>
</g>
<!-- Node21 -->
<g id="node21" class="node">
<title>Node21</title>
<g id="a_node21"><a xlink:href="math__util_8c.html#a062850863585005ad1d0a75d9ff70693" target="_top" xlink:title=" ">
<polygon fill="white" stroke="black" points="589,-76.5 589,-95.5 666,-95.5 666,-76.5 589,-76.5"/>
<text text-anchor="middle" x="627.5" y="-83.5" font-family="Helvetica,sans-Serif" font-size="10.00">random_u16</text>
</a>
</g>
</g>
<!-- Node20&#45;&gt;Node21 -->
<g id="edge20" class="edge">
<title>Node20&#45;&gt;Node21</title>
<path fill="none" stroke="midnightblue" d="M496.9,-86C520.8,-86 552.65,-86 578.79,-86"/>
<polygon fill="midnightblue" stroke="midnightblue" points="578.87,-89.5 588.87,-86 578.87,-82.5 578.87,-89.5"/>
</g>
<!-- Node23 -->
<g id="node23" class="node">
<title>Node23</title>
<g id="a_node23"><a xlink:href="external_8h.html#ae064a1a7293d05787ee9c3e311b70b46" target="_top" xlink:title=" ">
<polygon fill="white" stroke="black" points="259,-38.5 259,-57.5 351,-57.5 351,-38.5 259,-38.5"/>
<text text-anchor="middle" x="305" y="-45.5" font-family="Helvetica,sans-Serif" font-size="10.00">func_800C1C88</text>
</a>
</g>
</g>
<!-- Node22&#45;&gt;Node23 -->
<g id="edge22" class="edge">
<title>Node22&#45;&gt;Node23</title>
<path fill="none" stroke="midnightblue" d="M221.81,-48C230.55,-48 239.79,-48 248.8,-48"/>
<polygon fill="midnightblue" stroke="midnightblue" points="248.84,-51.5 258.84,-48 248.84,-44.5 248.84,-51.5"/>
</g>
<!-- Node24 -->
<g id="node24" class="node">
<title>Node24</title>
<g id="a_node24"><a xlink:href="external_8c.html#a62e16f9600e7e9beda2c9d2df10f3561" target="_top" xlink:title=" ">
<polygon fill="white" stroke="black" points="269,-0.5 269,-19.5 341,-19.5 341,-0.5 269,-0.5"/>
<text text-anchor="middle" x="305" y="-7.5" font-family="Helvetica,sans-Serif" font-size="10.00">play_sound</text>
</a>
</g>
</g>
<!-- Node22&#45;&gt;Node24 -->
<g id="edge23" class="edge">
<title>Node22&#45;&gt;Node24</title>
<path fill="none" stroke="midnightblue" d="M208.67,-38.41C224.83,-33.6 244.61,-27.7 261.95,-22.53"/>
<polygon fill="midnightblue" stroke="midnightblue" points="263.25,-25.8 271.84,-19.59 261.25,-19.09 263.25,-25.8"/>
</g>
</g>
</svg>
        <g id="navigator" transform="translate(0 0)" fill="#404254">
                <rect fill="#f2f5e9" fill-opacity="0.5" stroke="#606060" stroke-width=".5" x="0" y="0" width="60" height="60"/>
                <use id="zoomplus" xlink:href="#zoomPlus" x="17" y="9" onmousedown="handleZoom(evt,'in')"/>
                <use id="zoomminus" xlink:href="#zoomMin" x="42" y="9" onmousedown="handleZoom(evt,'out')"/>
                <use id="reset" xlink:href="#resetDef" x="30" y="36" onmousedown="handleReset()"/>
                <g id="arrowUp" xlink:href="#dirArrow" transform="translate(30 24)" onmousedown="handlePan(0,-1)">
                  <use xlink:href="#rim" fill="#404040">
                        <set attributeName="fill" to="#808080" begin="arrowUp.mouseover" end="arrowUp.mouseout"/>
                  </use>
                  <path fill="none" stroke="white" stroke-width="1.5" d="M0,-3.0v7 M-2.5,-0.5L0,-3.0L2.5,-0.5"/>
                </g>
                <g id="arrowRight" xlink:href="#dirArrow" transform="rotate(90) translate(36 -43)" onmousedown="handlePan(1,0)">
                  <use xlink:href="#rim" fill="#404040">
                        <set attributeName="fill" to="#808080" begin="arrowRight.mouseover" end="arrowRight.mouseout"/>
                  </use>
                  <path fill="none" stroke="white" stroke-width="1.5" d="M0,-3.0v7 M-2.5,-0.5L0,-3.0L2.5,-0.5"/>
                </g>
                <g id="arrowDown" xlink:href="#dirArrow" transform="rotate(180) translate(-30 -48)" onmousedown="handlePan(0,1)">
                  <use xlink:href="#rim" fill="#404040">
                        <set attributeName="fill" to="#808080" begin="arrowDown.mouseover" end="arrowDown.mouseout"/>
                  </use>
                  <path fill="none" stroke="white" stroke-width="1.5" d="M0,-3.0v7 M-2.5,-0.5L0,-3.0L2.5,-0.5"/>
                </g>
                <g id="arrowLeft" xlink:href="#dirArrow" transform="rotate(270) translate(-36 17)" onmousedown="handlePan(-1,0)">
                  <use xlink:href="#rim" fill="#404040">
                        <set attributeName="fill" to="#808080" begin="arrowLeft.mouseover" end="arrowLeft.mouseout"/>
                  </use>
                  <path fill="none" stroke="white" stroke-width="1.5" d="M0,-3.0v7 M-2.5,-0.5L0,-3.0L2.5,-0.5"/>
                </g>
        </g>
        <svg viewBox="0 0 15 15" width="100%" height="30px" preserveAspectRatio="xMaxYMin meet">
         <g id="arrow_out" transform="scale(0.3 0.3)">
          <a xlink:href="code__80005FD0_8c_aa196422871ac2034500952ad883d7cfa_cgraph_org.svg" target="_base">
           <rect id="button" ry="5" rx="5" y="6" x="6" height="38" width="38"
                fill="#f2f5e9" fill-opacity="0.5" stroke="#606060" stroke-width="1.0"/>
           <path id="arrow"
             d="M 11.500037,31.436501 C 11.940474,20.09759 22.043105,11.32322 32.158766,21.979434 L 37.068811,17.246167 C 37.068811,17.246167 37.088388,32 37.088388,32 L 22.160133,31.978069 C 22.160133,31.978069 26.997745,27.140456 26.997745,27.140456 C 18.528582,18.264221 13.291696,25.230495 11.500037,31.436501 z"
             style="fill:#404040;"/>
          </a>
         </g>
        </svg>
</svg>
