<?xml version="1.0" encoding="UTF-8" standalone="no"?>
<!DOCTYPE svg PUBLIC "-//W3C//DTD SVG 1.1//EN"
 "http://www.w3.org/Graphics/SVG/1.1/DTD/svg11.dtd">
<!-- Generated by graphviz version 2.43.0 (0)
 -->
<!-- Title: func_80057DD0 Pages: 1 -->
<svg width="488pt" height="64pt"
 viewBox="0.00 0.00 488.00 64.00" xmlns="http://www.w3.org/2000/svg" xmlns:xlink="http://www.w3.org/1999/xlink">
<g id="graph0" class="graph" transform="scale(1 1) rotate(0) translate(4 60)">
<title>func_80057DD0</title>
<!-- Node1 -->
<g id="Node000001" class="node">
<title>Node1</title>
<g id="a_Node000001"><a xlink:title=" ">
<polygon fill="#999999" stroke="#666666" points="94,-37 0,-37 0,-18 94,-18 94,-37"/>
<text text-anchor="middle" x="47" y="-25" font-family="Helvetica,sans-Serif" font-size="10.00">func_80057DD0</text>
</a>
</g>
</g>
<!-- Node2 -->
<g id="Node000002" class="node">
<title>Node2</title>
<g id="a_Node000002"><a xlink:href="render__objects_8c.html#aca52ec6f647b303e0bb33dbfe7d93e23" target="_top" xlink:title=" ">
<polygon fill="white" stroke="#666666" points="222,-56 130,-56 130,-37 222,-37 222,-56"/>
<text text-anchor="middle" x="176" y="-44" font-family="Helvetica,sans-Serif" font-size="10.00">func_8004C024</text>
</a>
</g>
</g>
<!-- Node1&#45;&gt;Node2 -->
<g id="edge1_Node000001_Node000002" class="edge">
<title>Node1&#45;&gt;Node2</title>
<g id="a_edge1_Node000001_Node000002"><a xlink:title=" ">
<path fill="none" stroke="#63b8ff" d="M94.21,-34.41C102.57,-35.66 111.36,-36.98 119.95,-38.26"/>
<polygon fill="#63b8ff" stroke="#63b8ff" points="119.48,-41.73 129.89,-39.75 120.51,-34.81 119.48,-41.73"/>
</a>
</g>
</g>
<!-- Node5 -->
<g id="Node000005" class="node">
<title>Node5</title>
<g id="a_Node000005"><a xlink:href="render__objects_8c.html#ae284f32d0a5c7f49c8655e3626463e1c" target="_top" xlink:title=" ">
<polygon fill="white" stroke="#666666" points="222,-19 130,-19 130,0 222,0 222,-19"/>
<text text-anchor="middle" x="176" y="-7" font-family="Helvetica,sans-Serif" font-size="10.00">func_8004C148</text>
</a>
</g>
</g>
<!-- Node1&#45;&gt;Node5 -->
<g id="edge4_Node000001_Node000005" class="edge">
<title>Node1&#45;&gt;Node5</title>
<g id="a_edge4_Node000001_Node000005"><a xlink:title=" ">
<path fill="none" stroke="#63b8ff" d="M94.21,-20.95C102.57,-19.77 111.36,-18.52 119.95,-17.3"/>
<polygon fill="#63b8ff" stroke="#63b8ff" points="120.48,-20.76 129.89,-15.89 119.49,-13.83 120.48,-20.76"/>
</a>
</g>
</g>
<!-- Node3 -->
<g id="Node000003" class="node">
<title>Node3</title>
<g id="a_Node000003"><a xlink:href="render__objects_8c.html#ac22e89e30eb787d96c44dd83f683930e" target="_top" xlink:title=" ">
<polygon fill="white" stroke="#666666" points="350,-37 258,-37 258,-18 350,-18 350,-37"/>
<text text-anchor="middle" x="304" y="-25" font-family="Helvetica,sans-Serif" font-size="10.00">func_8004B97C</text>
</a>
</g>
</g>
<!-- Node2&#45;&gt;Node3 -->
<g id="edge2_Node000002_Node000003" class="edge">
<title>Node2&#45;&gt;Node3</title>
<g id="a_edge2_Node000002_Node000003"><a xlink:title=" ">
<path fill="none" stroke="#63b8ff" d="M222.13,-39.69C230.46,-38.44 239.23,-37.12 247.81,-35.82"/>
<polygon fill="#63b8ff" stroke="#63b8ff" points="248.39,-39.27 257.76,-34.32 247.35,-32.35 248.39,-39.27"/>
</a>
</g>
</g>
<!-- Node4 -->
<g id="Node000004" class="node">
<title>Node4</title>
<g id="a_Node000004"><a xlink:href="render__objects_8c.html#acaa477cfbccd1a5fae43a67a655accdb" target="_top" xlink:title=" ">
<polygon fill="white" stroke="#666666" points="480,-37 386,-37 386,-18 480,-18 480,-37"/>
<text text-anchor="middle" x="433" y="-25" font-family="Helvetica,sans-Serif" font-size="10.00">func_8004B7DC</text>
</a>
</g>
</g>
<!-- Node3&#45;&gt;Node4 -->
<g id="edge3_Node000003_Node000004" class="edge">
<title>Node3&#45;&gt;Node4</title>
<g id="a_edge3_Node000003_Node000004"><a xlink:title=" ">
<path fill="none" stroke="#63b8ff" d="M350.13,-27.5C358.34,-27.5 367,-27.5 375.49,-27.5"/>
<polygon fill="#63b8ff" stroke="#63b8ff" points="375.73,-31 385.73,-27.5 375.73,-24 375.73,-31"/>
</a>
</g>
</g>
<!-- Node5&#45;&gt;Node3 -->
<g id="edge5_Node000005_Node000003" class="edge">
<title>Node5&#45;&gt;Node3</title>
<g id="a_edge5_Node000005_Node000003"><a xlink:title=" ">
<path fill="none" stroke="#63b8ff" d="M222.13,-15.95C230.46,-17.14 239.23,-18.39 247.81,-19.62"/>
<polygon fill="#63b8ff" stroke="#63b8ff" points="247.36,-23.09 257.76,-21.04 248.35,-16.16 247.36,-23.09"/>
</a>
</g>
</g>
</g>
</svg>
