<?xml version="1.0" encoding="UTF-8" standalone="no"?>
<!DOCTYPE svg PUBLIC "-//W3C//DTD SVG 1.1//EN"
 "http://www.w3.org/Graphics/SVG/1.1/DTD/svg11.dtd">
<!-- Generated by graphviz version 2.43.0 (0)
 -->
<!-- Title: func_80080408 Pages: 1 -->
<svg width="782pt" height="623pt"
 viewBox="0.00 0.00 782.00 623.00" xmlns="http://www.w3.org/2000/svg" xmlns:xlink="http://www.w3.org/1999/xlink">
<g id="graph0" class="graph" transform="scale(1 1) rotate(0) translate(4 619)">
<title>func_80080408</title>
<!-- Node1 -->
<g id="Node000001" class="node">
<title>Node1</title>
<g id="a_Node000001"><a xlink:title=" ">
<polygon fill="#999999" stroke="#666666" points="91,-328 0,-328 0,-309 91,-309 91,-328"/>
<text text-anchor="middle" x="45.5" y="-316" font-family="Helvetica,sans-Serif" font-size="10.00">func_80080408</text>
</a>
</g>
</g>
<!-- Node2 -->
<g id="Node000002" class="node">
<title>Node2</title>
<g id="a_Node000002"><a xlink:href="code__80071F00_8c.html#a91e6ccbfa10d972106998ad26b271c17" target="_top" xlink:title=" ">
<polygon fill="white" stroke="#666666" points="398.5,-501 307.5,-501 307.5,-482 398.5,-482 398.5,-501"/>
<text text-anchor="middle" x="353" y="-489" font-family="Helvetica,sans-Serif" font-size="10.00">func_80072488</text>
</a>
</g>
</g>
<!-- Node1&#45;&gt;Node2 -->
<g id="edge1_Node000001_Node000002" class="edge">
<title>Node1&#45;&gt;Node2</title>
<g id="a_edge1_Node000001_Node000002"><a xlink:title=" ">
<path fill="none" stroke="#63b8ff" d="M51.01,-328.24C61.32,-349.44 88.74,-400 127,-426.5 154.59,-445.61 240.17,-467.1 297.47,-479.96"/>
<polygon fill="#63b8ff" stroke="#63b8ff" points="296.94,-483.43 307.46,-482.18 298.46,-476.6 296.94,-483.43"/>
</a>
</g>
</g>
<!-- Node5 -->
<g id="Node000005" class="node">
<title>Node5</title>
<g id="a_Node000005"><a xlink:href="code__80071F00_8c.html#a6433786e30fbe8c3dc83f83c9f2c35f9" target="_top" xlink:title=" ">
<polygon fill="white" stroke="#666666" points="399,-615 307,-615 307,-596 399,-596 399,-615"/>
<text text-anchor="middle" x="353" y="-603" font-family="Helvetica,sans-Serif" font-size="10.00">func_800726CC</text>
</a>
</g>
</g>
<!-- Node1&#45;&gt;Node5 -->
<g id="edge4_Node000001_Node000005" class="edge">
<title>Node1&#45;&gt;Node5</title>
<g id="a_edge4_Node000001_Node000005"><a xlink:title=" ">
<path fill="none" stroke="#63b8ff" d="M47.95,-328.32C53.01,-359.27 72.63,-455.99 127,-510.5 173.5,-557.12 246.39,-582.14 296.53,-594.61"/>
<polygon fill="#63b8ff" stroke="#63b8ff" points="296.02,-598.08 306.56,-597.01 297.65,-591.28 296.02,-598.08"/>
</a>
</g>
</g>
<!-- Node6 -->
<g id="Node000006" class="node">
<title>Node6</title>
<g id="a_Node000006"><a xlink:href="code__80071F00_8c.html#a46d84a80361a6c7174b0398a5ded599b" target="_top" xlink:title=" ">
<polygon fill="white" stroke="#666666" points="235,-501 143,-501 143,-482 235,-482 235,-501"/>
<text text-anchor="middle" x="189" y="-489" font-family="Helvetica,sans-Serif" font-size="10.00">func_8007278C</text>
</a>
</g>
</g>
<!-- Node1&#45;&gt;Node6 -->
<g id="edge7_Node000001_Node000006" class="edge">
<title>Node1&#45;&gt;Node6</title>
<g id="a_edge7_Node000001_Node000006"><a xlink:title=" ">
<path fill="none" stroke="#63b8ff" d="M49.58,-328.22C58.05,-353.51 83.93,-422.18 127,-462.5 133.46,-468.55 141.41,-473.55 149.42,-477.6"/>
<polygon fill="#63b8ff" stroke="#63b8ff" points="148.2,-480.89 158.75,-481.92 151.14,-474.54 148.2,-480.89"/>
</a>
</g>
</g>
<!-- Node7 -->
<g id="Node000007" class="node">
<title>Node7</title>
<g id="a_Node000007"><a xlink:href="code__80071F00_8c.html#aeb63467994b1ba00fc0dfe6abc2b65cb" target="_top" xlink:title=" ">
<polygon fill="white" stroke="#666666" points="235,-417 143,-417 143,-398 235,-398 235,-417"/>
<text text-anchor="middle" x="189" y="-405" font-family="Helvetica,sans-Serif" font-size="10.00">func_800730BC</text>
</a>
</g>
</g>
<!-- Node1&#45;&gt;Node7 -->
<g id="edge10_Node000001_Node000007" class="edge">
<title>Node1&#45;&gt;Node7</title>
<g id="a_edge10_Node000001_Node000007"><a xlink:title=" ">
<path fill="none" stroke="#63b8ff" d="M61.64,-328.02C86.09,-343.4 134.46,-373.83 163.75,-392.25"/>
<polygon fill="#63b8ff" stroke="#63b8ff" points="162.21,-395.41 172.54,-397.77 165.94,-389.49 162.21,-395.41"/>
</a>
</g>
</g>
<!-- Node10 -->
<g id="Node000010" class="node">
<title>Node10</title>
<g id="a_Node000010"><a xlink:href="code__80071F00_8c.html#ab4348365b7e22b355e8aec1eb6f6dd9f" target="_top" xlink:title=" ">
<polygon fill="white" stroke="#666666" points="234.5,-347 143.5,-347 143.5,-328 234.5,-328 234.5,-347"/>
<text text-anchor="middle" x="189" y="-335" font-family="Helvetica,sans-Serif" font-size="10.00">func_80073514</text>
</a>
</g>
</g>
<!-- Node1&#45;&gt;Node10 -->
<g id="edge16_Node000001_Node000010" class="edge">
<title>Node1&#45;&gt;Node10</title>
<g id="a_edge16_Node000001_Node000010"><a xlink:title=" ">
<path fill="none" stroke="#63b8ff" d="M91.27,-324.51C104.43,-326.28 118.99,-328.23 132.73,-330.08"/>
<polygon fill="#63b8ff" stroke="#63b8ff" points="132.66,-333.6 143.03,-331.46 133.59,-326.66 132.66,-333.6"/>
</a>
</g>
</g>
<!-- Node11 -->
<g id="Node000011" class="node">
<title>Node11</title>
<g id="a_Node000011"><a xlink:href="code__80071F00_8c.html#a91f68e3db042f8e9f17f16ab8848b3e0" target="_top" xlink:title=" ">
<polygon fill="white" stroke="#666666" points="235,-310 143,-310 143,-291 235,-291 235,-310"/>
<text text-anchor="middle" x="189" y="-298" font-family="Helvetica,sans-Serif" font-size="10.00">func_800802C0</text>
</a>
</g>
</g>
<!-- Node1&#45;&gt;Node11 -->
<g id="edge17_Node000001_Node000011" class="edge">
<title>Node1&#45;&gt;Node11</title>
<g id="a_edge17_Node000001_Node000011"><a xlink:title=" ">
<path fill="none" stroke="#63b8ff" d="M91.27,-312.8C104.3,-311.15 118.7,-309.32 132.32,-307.58"/>
<polygon fill="#63b8ff" stroke="#63b8ff" points="133.07,-311.02 142.55,-306.28 132.19,-304.07 133.07,-311.02"/>
</a>
</g>
</g>
<!-- Node17 -->
<g id="Node000017" class="node">
<title>Node17</title>
<g id="a_Node000017"><a xlink:href="code__80086E70_8c.html#a6e45fa53e2d0e566e0275afa3bbbc1f9" target="_top" xlink:title=" ">
<polygon fill="white" stroke="#666666" points="236,-273 142,-273 142,-254 236,-254 236,-273"/>
<text text-anchor="middle" x="189" y="-261" font-family="Helvetica,sans-Serif" font-size="10.00">func_8008A6DC</text>
</a>
</g>
</g>
<!-- Node1&#45;&gt;Node17 -->
<g id="edge25_Node000001_Node000017" class="edge">
<title>Node1&#45;&gt;Node17</title>
<g id="a_edge25_Node000001_Node000017"><a xlink:title=" ">
<path fill="none" stroke="#63b8ff" d="M65.36,-308.89C81.47,-300.91 105.4,-289.6 127,-281.5 132.1,-279.59 137.51,-277.74 142.91,-276.01"/>
<polygon fill="#63b8ff" stroke="#63b8ff" points="144.04,-279.32 152.55,-273.02 141.97,-272.63 144.04,-279.32"/>
</a>
</g>
</g>
<!-- Node23 -->
<g id="Node000023" class="node">
<title>Node23</title>
<g id="a_Node000023"><a xlink:href="code__80086E70_8c.html#a3d8c496047c062a0738cc97ce52ca6ef" target="_top" xlink:title=" ">
<polygon fill="white" stroke="#666666" points="235,-236 143,-236 143,-217 235,-217 235,-236"/>
<text text-anchor="middle" x="189" y="-224" font-family="Helvetica,sans-Serif" font-size="10.00">func_8008BF18</text>
</a>
</g>
</g>
<!-- Node1&#45;&gt;Node23 -->
<g id="edge33_Node000001_Node000023" class="edge">
<title>Node1&#45;&gt;Node23</title>
<g id="a_edge33_Node000001_Node000023"><a xlink:title=" ">
<path fill="none" stroke="#63b8ff" d="M54.37,-308.83C67.7,-293.08 96.27,-261.9 127,-244.5 130.07,-242.76 133.33,-241.18 136.67,-239.73"/>
<polygon fill="#63b8ff" stroke="#63b8ff" points="138.19,-242.9 146.26,-236.03 135.67,-236.37 138.19,-242.9"/>
</a>
</g>
</g>
<!-- Node24 -->
<g id="Node000024" class="node">
<title>Node24</title>
<g id="a_Node000024"><a xlink:href="external_8c.html#acb60983213d09ee795e80ca3c8b5975e" target="_top" xlink:title=" ">
<polygon fill="white" stroke="#666666" points="235,-199 143,-199 143,-180 235,-180 235,-199"/>
<text text-anchor="middle" x="189" y="-187" font-family="Helvetica,sans-Serif" font-size="10.00">func_800C98B8</text>
</a>
</g>
</g>
<!-- Node1&#45;&gt;Node24 -->
<g id="edge34_Node000001_Node000024" class="edge">
<title>Node1&#45;&gt;Node24</title>
<g id="a_edge34_Node000001_Node000024"><a xlink:title=" ">
<path fill="none" stroke="#63b8ff" d="M50.79,-308.83C60.86,-287.27 88.12,-234.97 127,-207.5 129.21,-205.94 131.55,-204.52 133.98,-203.21"/>
<polygon fill="#63b8ff" stroke="#63b8ff" points="135.48,-206.38 143.09,-199.01 132.55,-200.02 135.48,-206.38"/>
</a>
</g>
</g>
<!-- Node26 -->
<g id="Node000026" class="node">
<title>Node26</title>
<g id="a_Node000026"><a xlink:href="code__80071F00_8c.html#a5d62494ea345d5a576d4440772111136" target="_top" xlink:title=" ">
<polygon fill="white" stroke="#666666" points="251,-161.5 127,-161.5 127,-131.5 251,-131.5 251,-161.5"/>
<text text-anchor="start" x="135" y="-149.5" font-family="Helvetica,sans-Serif" font-size="10.00">is_obj_index_flag_unk</text>
<text text-anchor="middle" x="189" y="-138.5" font-family="Helvetica,sans-Serif" font-size="10.00">_054_active</text>
</a>
</g>
</g>
<!-- Node1&#45;&gt;Node26 -->
<g id="edge36_Node000001_Node000026" class="edge">
<title>Node1&#45;&gt;Node26</title>
<g id="a_edge36_Node000001_Node000026"><a xlink:title=" ">
<path fill="none" stroke="#63b8ff" d="M49.23,-308.72C57,-282.61 81.63,-210.59 127,-170.5 128.32,-169.33 129.7,-168.22 131.13,-167.16"/>
<polygon fill="#63b8ff" stroke="#63b8ff" points="133.26,-169.95 139.81,-161.62 129.5,-164.05 133.26,-169.95"/>
</a>
</g>
</g>
<!-- Node3 -->
<g id="Node000003" class="node">
<title>Node3</title>
<g id="a_Node000003"><a xlink:href="code__80071F00_8c.html#a9d0d6fe8e02dc86bf4f9f8c8214ee326" target="_top" xlink:title=" ">
<polygon fill="white" stroke="#666666" points="569,-463.5 456,-463.5 456,-433.5 569,-433.5 569,-463.5"/>
<text text-anchor="start" x="464" y="-451.5" font-family="Helvetica,sans-Serif" font-size="10.00">set_object_flag_unk</text>
<text text-anchor="middle" x="512.5" y="-440.5" font-family="Helvetica,sans-Serif" font-size="10.00">_054_false</text>
</a>
</g>
</g>
<!-- Node2&#45;&gt;Node3 -->
<g id="edge2_Node000002_Node000003" class="edge">
<title>Node2&#45;&gt;Node3</title>
<g id="a_edge2_Node000002_Node000003"><a xlink:title=" ">
<path fill="none" stroke="#63b8ff" d="M388.95,-481.96C405.93,-477.32 426.89,-471.6 446.65,-466.21"/>
<polygon fill="#63b8ff" stroke="#63b8ff" points="447.81,-469.52 456.54,-463.51 445.97,-462.76 447.81,-469.52"/>
</a>
</g>
</g>
<!-- Node4 -->
<g id="Node000004" class="node">
<title>Node4</title>
<g id="a_Node000004"><a xlink:href="code__80071F00_8c.html#a4b4f00a7df0f9bc44914cd922c3cd51b" target="_top" xlink:title=" ">
<polygon fill="white" stroke="#666666" points="570,-558 455,-558 455,-539 570,-539 570,-558"/>
<text text-anchor="middle" x="512.5" y="-546" font-family="Helvetica,sans-Serif" font-size="10.00">set_object_unk_0CB</text>
</a>
</g>
</g>
<!-- Node2&#45;&gt;Node4 -->
<g id="edge3_Node000002_Node000004" class="edge">
<title>Node2&#45;&gt;Node4</title>
<g id="a_edge3_Node000002_Node000004"><a xlink:title=" ">
<path fill="none" stroke="#63b8ff" d="M380.36,-501.04C406.37,-510.45 446.33,-524.91 475.3,-535.4"/>
<polygon fill="#63b8ff" stroke="#63b8ff" points="474.46,-538.82 485.05,-538.93 476.84,-532.23 474.46,-538.82"/>
</a>
</g>
</g>
<!-- Node5&#45;&gt;Node3 -->
<g id="edge5_Node000005_Node000003" class="edge">
<title>Node5&#45;&gt;Node3</title>
<g id="a_edge5_Node000005_Node000003"><a xlink:title=" ">
<path fill="none" stroke="#63b8ff" d="M363.85,-595.68C388.65,-570.96 454.12,-505.69 488.96,-470.97"/>
<polygon fill="#63b8ff" stroke="#63b8ff" points="491.69,-473.19 496.3,-463.65 486.75,-468.23 491.69,-473.19"/>
</a>
</g>
</g>
<!-- Node5&#45;&gt;Node4 -->
<g id="edge6_Node000005_Node000004" class="edge">
<title>Node5&#45;&gt;Node4</title>
<g id="a_edge6_Node000005_Node000004"><a xlink:title=" ">
<path fill="none" stroke="#63b8ff" d="M380.36,-595.96C406.37,-586.55 446.33,-572.09 475.3,-561.6"/>
<polygon fill="#63b8ff" stroke="#63b8ff" points="476.84,-564.77 485.05,-558.07 474.46,-558.18 476.84,-564.77"/>
</a>
</g>
</g>
<!-- Node6&#45;&gt;Node2 -->
<g id="edge8_Node000006_Node000002" class="edge">
<title>Node6&#45;&gt;Node2</title>
<g id="a_edge8_Node000006_Node000002"><a xlink:title=" ">
<path fill="none" stroke="#63b8ff" d="M235.13,-491.5C254.43,-491.5 277.14,-491.5 297.38,-491.5"/>
<polygon fill="#63b8ff" stroke="#63b8ff" points="297.4,-495 307.4,-491.5 297.4,-488 297.4,-495"/>
</a>
</g>
</g>
<!-- Node6&#45;&gt;Node4 -->
<g id="edge9_Node000006_Node000004" class="edge">
<title>Node6&#45;&gt;Node4</title>
<g id="a_edge9_Node000006_Node000004"><a xlink:title=" ">
<path fill="none" stroke="#63b8ff" d="M202.97,-501.05C220.83,-513.58 254.48,-534.95 287,-543.5 338.7,-557.1 399.43,-557.56 444.68,-555.06"/>
<polygon fill="#63b8ff" stroke="#63b8ff" points="444.9,-558.56 454.67,-554.45 444.48,-551.57 444.9,-558.56"/>
</a>
</g>
</g>
<!-- Node7&#45;&gt;Node2 -->
<g id="edge11_Node000007_Node000002" class="edge">
<title>Node7&#45;&gt;Node2</title>
<g id="a_edge11_Node000007_Node000002"><a xlink:title=" ">
<path fill="none" stroke="#63b8ff" d="M217.65,-417.03C228.56,-421.47 240.88,-427.35 251,-434.5 270.01,-447.91 267.15,-460.37 287,-472.5 290.56,-474.67 294.37,-476.61 298.31,-478.33"/>
<polygon fill="#63b8ff" stroke="#63b8ff" points="297.06,-481.6 307.65,-481.97 299.6,-475.08 297.06,-481.6"/>
</a>
</g>
</g>
<!-- Node7&#45;&gt;Node3 -->
<g id="edge13_Node000007_Node000003" class="edge">
<title>Node7&#45;&gt;Node3</title>
<g id="a_edge13_Node000007_Node000003"><a xlink:title=" ">
<path fill="none" stroke="#63b8ff" d="M235.04,-408.46C281.43,-410 355.68,-414.02 419,-424.5 429.17,-426.18 439.85,-428.46 450.2,-430.95"/>
<polygon fill="#63b8ff" stroke="#63b8ff" points="449.44,-434.37 459.99,-433.39 451.13,-427.58 449.44,-434.37"/>
</a>
</g>
</g>
<!-- Node7&#45;&gt;Node4 -->
<g id="edge15_Node000007_Node000004" class="edge">
<title>Node7&#45;&gt;Node4</title>
<g id="a_edge15_Node000007_Node000004"><a xlink:title=" ">
<path fill="none" stroke="#63b8ff" d="M198.99,-417.21C222.51,-442.58 284.2,-509 287,-510.5 313.66,-524.77 388.62,-535.56 444.64,-541.92"/>
<polygon fill="#63b8ff" stroke="#63b8ff" points="444.54,-545.43 454.86,-543.06 445.31,-538.48 444.54,-545.43"/>
</a>
</g>
</g>
<!-- Node8 -->
<g id="Node000008" class="node">
<title>Node8</title>
<g id="a_Node000008"><a xlink:href="code__80071F00_8c.html#ae2e10a969a280fa69bd2db004aa5ae3b" target="_top" xlink:title=" ">
<polygon fill="white" stroke="#666666" points="415,-463.5 291,-463.5 291,-433.5 415,-433.5 415,-463.5"/>
<text text-anchor="start" x="299" y="-451.5" font-family="Helvetica,sans-Serif" font-size="10.00">is_obj_index_flag_unk</text>
<text text-anchor="middle" x="353" y="-440.5" font-family="Helvetica,sans-Serif" font-size="10.00">_054_inactive</text>
</a>
</g>
</g>
<!-- Node7&#45;&gt;Node8 -->
<g id="edge12_Node000007_Node000008" class="edge">
<title>Node7&#45;&gt;Node8</title>
<g id="a_edge12_Node000007_Node000008"><a xlink:title=" ">
<path fill="none" stroke="#63b8ff" d="M227.57,-417.01C243.97,-421.16 263.74,-426.16 282.64,-430.95"/>
<polygon fill="#63b8ff" stroke="#63b8ff" points="281.87,-434.36 292.42,-433.42 283.59,-427.58 281.87,-434.36"/>
</a>
</g>
</g>
<!-- Node9 -->
<g id="Node000009" class="node">
<title>Node9</title>
<g id="a_Node000009"><a xlink:href="code__80071F00_8c.html#a946b33c1ed166b19b04e4528c3641b9a" target="_top" xlink:title=" ">
<polygon fill="white" stroke="#666666" points="409.5,-377.5 296.5,-377.5 296.5,-347.5 409.5,-347.5 409.5,-377.5"/>
<text text-anchor="start" x="304.5" y="-365.5" font-family="Helvetica,sans-Serif" font-size="10.00">set_object_flag_unk</text>
<text text-anchor="middle" x="353" y="-354.5" font-family="Helvetica,sans-Serif" font-size="10.00">_054_true</text>
</a>
</g>
</g>
<!-- Node7&#45;&gt;Node9 -->
<g id="edge14_Node000007_Node000009" class="edge">
<title>Node7&#45;&gt;Node9</title>
<g id="a_edge14_Node000007_Node000009"><a xlink:title=" ">
<path fill="none" stroke="#63b8ff" d="M224.36,-397.96C242.88,-392.81 266.34,-386.29 288.09,-380.25"/>
<polygon fill="#63b8ff" stroke="#63b8ff" points="289.23,-383.57 297.93,-377.52 287.36,-376.82 289.23,-383.57"/>
</a>
</g>
</g>
<!-- Node11&#45;&gt;Node2 -->
<g id="edge18_Node000011_Node000002" class="edge">
<title>Node11&#45;&gt;Node2</title>
<g id="a_edge18_Node000011_Node000002"><a xlink:title=" ">
<path fill="none" stroke="#63b8ff" d="M235.16,-308.57C241.09,-311.24 246.61,-314.79 251,-319.5 298.62,-370.62 238.94,-421.81 287,-472.5 290.18,-475.85 293.92,-478.63 297.96,-480.92"/>
<polygon fill="#63b8ff" stroke="#63b8ff" points="296.68,-484.18 307.22,-485.2 299.61,-477.82 296.68,-484.18"/>
</a>
</g>
</g>
<!-- Node11&#45;&gt;Node9 -->
<g id="edge24_Node000011_Node000009" class="edge">
<title>Node11&#45;&gt;Node9</title>
<g id="a_edge24_Node000011_Node000009"><a xlink:title=" ">
<path fill="none" stroke="#63b8ff" d="M224.59,-310.06C233.32,-312.81 242.6,-316.01 251,-319.5 267.71,-326.44 270.48,-331.13 287,-338.5 290.89,-340.24 294.95,-341.95 299.06,-343.62"/>
<polygon fill="#63b8ff" stroke="#63b8ff" points="298.09,-347 308.67,-347.41 300.65,-340.49 298.09,-347"/>
</a>
</g>
</g>
<!-- Node12 -->
<g id="Node000012" class="node">
<title>Node12</title>
<g id="a_Node000012"><a xlink:href="code__80071F00_8c.html#af6a634e5a07f3b79f745c7146b89e971" target="_top" xlink:title=" ">
<polygon fill="white" stroke="#666666" points="399.5,-255 306.5,-255 306.5,-236 399.5,-236 399.5,-255"/>
<text text-anchor="middle" x="353" y="-243" font-family="Helvetica,sans-Serif" font-size="10.00">func_800724DC</text>
</a>
</g>
</g>
<!-- Node11&#45;&gt;Node12 -->
<g id="edge19_Node000011_Node000012" class="edge">
<title>Node11&#45;&gt;Node12</title>
<g id="a_edge19_Node000011_Node000012"><a xlink:title=" ">
<path fill="none" stroke="#63b8ff" d="M224.22,-290.91C233.05,-288.14 242.46,-284.94 251,-281.5 267.59,-274.82 270.3,-269.92 287,-263.5 292.12,-261.53 297.55,-259.68 303,-257.97"/>
<polygon fill="#63b8ff" stroke="#63b8ff" points="304.19,-261.27 312.76,-255.05 302.18,-254.56 304.19,-261.27"/>
</a>
</g>
</g>
<!-- Node13 -->
<g id="Node000013" class="node">
<title>Node13</title>
<g id="a_Node000013"><a xlink:href="code__80086E70_8c.html#aaec540b89607cbfe79478fa9a3be642e" target="_top" xlink:title=" ">
<polygon fill="white" stroke="#666666" points="399,-218 307,-218 307,-199 399,-199 399,-218"/>
<text text-anchor="middle" x="353" y="-206" font-family="Helvetica,sans-Serif" font-size="10.00">func_8008B80C</text>
</a>
</g>
</g>
<!-- Node11&#45;&gt;Node13 -->
<g id="edge20_Node000011_Node000013" class="edge">
<title>Node11&#45;&gt;Node13</title>
<g id="a_edge20_Node000011_Node000013"><a xlink:title=" ">
<path fill="none" stroke="#63b8ff" d="M233.81,-290.94C239.93,-288.47 245.87,-285.38 251,-281.5 274.32,-263.9 263.41,-243.73 287,-226.5 290.21,-224.16 293.7,-222.12 297.36,-220.35"/>
<polygon fill="#63b8ff" stroke="#63b8ff" points="298.8,-223.54 306.69,-216.47 296.11,-217.08 298.8,-223.54"/>
</a>
</g>
</g>
<!-- Node14 -->
<g id="Node000014" class="node">
<title>Node14</title>
<g id="a_Node000014"><a xlink:href="code__80071F00_8c.html#aaac380231c672b17a8fda8b451572c4c" target="_top" xlink:title=" ">
<polygon fill="white" stroke="#666666" points="407,-181 299,-181 299,-162 407,-162 407,-181"/>
<text text-anchor="middle" x="353" y="-169" font-family="Helvetica,sans-Serif" font-size="10.00">init_texture_object</text>
</a>
</g>
</g>
<!-- Node11&#45;&gt;Node14 -->
<g id="edge21_Node000011_Node000014" class="edge">
<title>Node11&#45;&gt;Node14</title>
<g id="a_edge21_Node000011_Node000014"><a xlink:title=" ">
<path fill="none" stroke="#63b8ff" d="M235.2,-291.58C240.98,-289.02 246.45,-285.73 251,-281.5 283.13,-251.57 254.4,-218.91 287,-189.5 288.17,-188.45 289.39,-187.45 290.67,-186.52"/>
<polygon fill="#63b8ff" stroke="#63b8ff" points="292.87,-189.28 299.65,-181.14 289.27,-183.27 292.87,-189.28"/>
</a>
</g>
</g>
<!-- Node15 -->
<g id="Node000015" class="node">
<title>Node15</title>
<g id="a_Node000015"><a xlink:href="code__80086E70_8c.html#af0e1570f9594db6104157d24386b80cb" target="_top" xlink:title=" ">
<polygon fill="white" stroke="#666666" points="419,-329 287,-329 287,-310 419,-310 419,-329"/>
<text text-anchor="middle" x="353" y="-317" font-family="Helvetica,sans-Serif" font-size="10.00">set_obj_direction_angle</text>
</a>
</g>
</g>
<!-- Node11&#45;&gt;Node15 -->
<g id="edge22_Node000011_Node000015" class="edge">
<title>Node11&#45;&gt;Node15</title>
<g id="a_edge22_Node000011_Node000015"><a xlink:title=" ">
<path fill="none" stroke="#63b8ff" d="M235.13,-305.79C248.01,-307.3 262.41,-308.99 276.58,-310.65"/>
<polygon fill="#63b8ff" stroke="#63b8ff" points="276.49,-314.17 286.83,-311.86 277.31,-307.22 276.49,-314.17"/>
</a>
</g>
</g>
<!-- Node16 -->
<g id="Node000016" class="node">
<title>Node16</title>
<g id="a_Node000016"><a xlink:href="code__80086E70_8c.html#ad745ffd7b6ecd50c57336a484979b258" target="_top" xlink:title=" ">
<polygon fill="white" stroke="#666666" points="408,-292 298,-292 298,-273 408,-273 408,-292"/>
<text text-anchor="middle" x="353" y="-280" font-family="Helvetica,sans-Serif" font-size="10.00">set_obj_orientation</text>
</a>
</g>
</g>
<!-- Node11&#45;&gt;Node16 -->
<g id="edge23_Node000011_Node000016" class="edge">
<title>Node11&#45;&gt;Node16</title>
<g id="a_edge23_Node000011_Node000016"><a xlink:title=" ">
<path fill="none" stroke="#63b8ff" d="M235.13,-295.49C251.4,-293.68 270.11,-291.6 287.71,-289.64"/>
<polygon fill="#63b8ff" stroke="#63b8ff" points="288.36,-293.09 297.92,-288.51 287.59,-286.14 288.36,-293.09"/>
</a>
</g>
</g>
<!-- Node17&#45;&gt;Node3 -->
<g id="edge31_Node000017_Node000003" class="edge">
<title>Node17&#45;&gt;Node3</title>
<g id="a_edge31_Node000017_Node000003"><a xlink:title=" ">
<path fill="none" stroke="#63b8ff" d="M236.12,-254.16C241.56,-251.67 246.7,-248.51 251,-244.5 283.13,-214.57 250.73,-177.25 287,-152.5 335.46,-119.43 371.73,-117.75 419,-152.5 463.79,-185.43 496.51,-357.84 507.49,-423.28"/>
<polygon fill="#63b8ff" stroke="#63b8ff" points="504.04,-423.87 509.12,-433.17 510.94,-422.73 504.04,-423.87"/>
</a>
</g>
</g>
<!-- Node17&#45;&gt;Node9 -->
<g id="edge32_Node000017_Node000009" class="edge">
<title>Node17&#45;&gt;Node9</title>
<g id="a_edge32_Node000017_Node000009"><a xlink:title=" ">
<path fill="none" stroke="#63b8ff" d="M236.06,-273.11C241.38,-275.35 246.51,-278.1 251,-281.5 274.9,-299.57 263.71,-319.65 287,-338.5 288.58,-339.78 290.23,-340.99 291.94,-342.14"/>
<polygon fill="#63b8ff" stroke="#63b8ff" points="290.5,-345.36 300.89,-347.41 294.05,-339.32 290.5,-345.36"/>
</a>
</g>
</g>
<!-- Node18 -->
<g id="Node000018" class="node">
<title>Node18</title>
<g id="a_Node000018"><a xlink:href="code__80086E70_8c.html#a8b9297822d5c76ed2210ab884878bc1b" target="_top" xlink:title=" ">
<polygon fill="white" stroke="#666666" points="399,-105 307,-105 307,-86 399,-86 399,-105"/>
<text text-anchor="middle" x="353" y="-93" font-family="Helvetica,sans-Serif" font-size="10.00">func_8008A140</text>
</a>
</g>
</g>
<!-- Node17&#45;&gt;Node18 -->
<g id="edge26_Node000017_Node000018" class="edge">
<title>Node17&#45;&gt;Node18</title>
<g id="a_edge26_Node000017_Node000018"><a xlink:title=" ">
<path fill="none" stroke="#63b8ff" d="M236.18,-254.68C241.67,-252.1 246.81,-248.78 251,-244.5 291.44,-203.18 247.64,-161.85 287,-119.5 290.59,-115.63 294.86,-112.39 299.47,-109.66"/>
<polygon fill="#63b8ff" stroke="#63b8ff" points="301.31,-112.66 308.67,-105.04 298.16,-106.4 301.31,-112.66"/>
</a>
</g>
</g>
<!-- Node22 -->
<g id="Node000022" class="node">
<title>Node22</title>
<g id="a_Node000022"><a xlink:href="code__80086E70_8c.html#a212c7d92f5bac3eedbd693abaee4f7f2" target="_top" xlink:title="Returns if the object is between the distance_min and distance_max to the camera.">
<polygon fill="white" stroke="#666666" points="413,-67.5 293,-67.5 293,-37.5 413,-37.5 413,-67.5"/>
<text text-anchor="start" x="301" y="-55.5" font-family="Helvetica,sans-Serif" font-size="10.00">is_within_horizontal</text>
<text text-anchor="middle" x="353" y="-44.5" font-family="Helvetica,sans-Serif" font-size="10.00">_distance_to_camera</text>
</a>
</g>
</g>
<!-- Node17&#45;&gt;Node22 -->
<g id="edge30_Node000017_Node000022" class="edge">
<title>Node17&#45;&gt;Node22</title>
<g id="a_edge30_Node000017_Node000022"><a xlink:title=" ">
<path fill="none" stroke="#63b8ff" d="M236.16,-255.09C241.72,-252.45 246.89,-249.01 251,-244.5 302.49,-188.11 236.99,-134.21 287,-76.5 287.75,-75.64 288.53,-74.8 289.34,-74"/>
<polygon fill="#63b8ff" stroke="#63b8ff" points="291.77,-76.54 297.38,-67.56 287.39,-71.08 291.77,-76.54"/>
</a>
</g>
</g>
<!-- Node19 -->
<g id="Node000019" class="node">
<title>Node19</title>
<g id="a_Node000019"><a xlink:href="math__util__2_8c.html#a10e63f3a453c537f806fbb5371bde67c" target="_top" xlink:title=" ">
<polygon fill="white" stroke="#666666" points="558,-105 467,-105 467,-86 558,-86 558,-105"/>
<text text-anchor="middle" x="512.5" y="-93" font-family="Helvetica,sans-Serif" font-size="10.00">func_80041770</text>
</a>
</g>
</g>
<!-- Node18&#45;&gt;Node19 -->
<g id="edge27_Node000018_Node000019" class="edge">
<title>Node18&#45;&gt;Node19</title>
<g id="a_edge27_Node000018_Node000019"><a xlink:title=" ">
<path fill="none" stroke="#63b8ff" d="M399.13,-95.5C417.08,-95.5 437.9,-95.5 456.7,-95.5"/>
<polygon fill="#63b8ff" stroke="#63b8ff" points="456.9,-99 466.9,-95.5 456.9,-92 456.9,-99"/>
</a>
</g>
</g>
<!-- Node20 -->
<g id="Node000020" class="node">
<title>Node20</title>
<g id="a_Node000020"><a xlink:href="math__util_8c.html#aaa39a297477f56051975259f4bddd829" target="_top" xlink:title=" ">
<polygon fill="white" stroke="#666666" points="656,-105 606,-105 606,-86 656,-86 656,-105"/>
<text text-anchor="middle" x="631" y="-93" font-family="Helvetica,sans-Serif" font-size="10.00">atan2s</text>
</a>
</g>
</g>
<!-- Node19&#45;&gt;Node20 -->
<g id="edge28_Node000019_Node000020" class="edge">
<title>Node19&#45;&gt;Node20</title>
<g id="a_edge28_Node000019_Node000020"><a xlink:title=" ">
<path fill="none" stroke="#63b8ff" d="M558.21,-95.5C570.59,-95.5 583.83,-95.5 595.53,-95.5"/>
<polygon fill="#63b8ff" stroke="#63b8ff" points="595.77,-99 605.77,-95.5 595.77,-92 595.77,-99"/>
</a>
</g>
</g>
<!-- Node21 -->
<g id="Node000021" class="node">
<title>Node21</title>
<g id="a_Node000021"><a xlink:href="math__util_8c.html#a0273b0ea0783a06996c28669a7438ed9" target="_top" xlink:title=" ">
<polygon fill="white" stroke="#666666" points="774,-105 692,-105 692,-86 774,-86 774,-105"/>
<text text-anchor="middle" x="733" y="-93" font-family="Helvetica,sans-Serif" font-size="10.00">atan2_lookup</text>
</a>
</g>
</g>
<!-- Node20&#45;&gt;Node21 -->
<g id="edge29_Node000020_Node000021" class="edge">
<title>Node20&#45;&gt;Node21</title>
<g id="a_edge29_Node000020_Node000021"><a xlink:title=" ">
<path fill="none" stroke="#63b8ff" d="M656.21,-95.5C663.85,-95.5 672.6,-95.5 681.38,-95.5"/>
<polygon fill="#63b8ff" stroke="#63b8ff" points="681.63,-99 691.63,-95.5 681.63,-92 681.63,-99"/>
</a>
</g>
</g>
<!-- Node25 -->
<g id="Node000025" class="node">
<title>Node25</title>
<g id="a_Node000025"><a xlink:href="external_8c.html#a4227847f3da303aee53cf69d2760a595" target="_top" xlink:title=" ">
<polygon fill="white" stroke="#666666" points="389,-19 317,-19 317,0 389,0 389,-19"/>
<text text-anchor="middle" x="353" y="-7" font-family="Helvetica,sans-Serif" font-size="10.00">play_sound</text>
</a>
</g>
</g>
<!-- Node24&#45;&gt;Node25 -->
<g id="edge35_Node000024_Node000025" class="edge">
<title>Node24&#45;&gt;Node25</title>
<g id="a_edge35_Node000024_Node000025"><a xlink:title=" ">
<path fill="none" stroke="#63b8ff" d="M235.08,-181.36C241.02,-178.7 246.57,-175.17 251,-170.5 295.79,-123.24 241.8,-75.36 287,-28.5 292.51,-22.79 299.63,-18.77 307.14,-15.94"/>
<polygon fill="#63b8ff" stroke="#63b8ff" points="308.23,-19.27 316.75,-12.97 306.16,-12.58 308.23,-19.27"/>
</a>
</g>
</g>
</g>
</svg>
