<?xml version="1.0" encoding="UTF-8" standalone="no"?>
<!DOCTYPE svg PUBLIC "-//W3C//DTD SVG 1.1//EN"
 "http://www.w3.org/Graphics/SVG/1.1/DTD/svg11.dtd">
<!-- Generated by graphviz version 2.43.0 (0)
 -->
<!-- Title: func_80015544 Pages: 1 -->
<svg width="446pt" height="91pt"
 viewBox="0.00 0.00 446.00 90.50" xmlns="http://www.w3.org/2000/svg" xmlns:xlink="http://www.w3.org/1999/xlink">

<svg id="main" version="1.1" xmlns="http://www.w3.org/2000/svg" xmlns:xlink="http://www.w3.org/1999/xlink" xml:space="preserve" onload="init(evt)">
<style type="text/css"><![CDATA[
.node, .edge {opacity: 0.7;}
.node.selected, .edge.selected {opacity: 1;}
.edge:hover path { stroke: red; }
.edge:hover polygon { stroke: red; fill: red; }
]]></style>
<script type="application/ecmascript" xlink:href="svg.min.js"/>
<svg id="graph" class="graph">
<g id="graph0" class="graph" transform="scale(1 1) rotate(0) translate(4 86.5)">
<title>func_80015544</title>
<!-- Node1 -->
<g id="Node000001" class="node">
<title>Node1</title>
<g id="a_Node000001"><a xlink:title=" ">
<polygon fill="#999999" stroke="#666666" points="91,-63.5 0,-63.5 0,-44.5 91,-44.5 91,-63.5"/>
<text text-anchor="middle" x="45.5" y="-51.5" font-family="Helvetica,sans-Serif" font-size="10.00">func_80015544</text>
</a>
</g>
</g>
<!-- Node2 -->
<g id="Node000002" class="node">
<title>Node2</title>
<g id="a_Node000002"><a xlink:href="code__80005FD0_8c.html#a74ddc182369789b289326b99494d7e65" target="_top" xlink:title=" ">
<polygon fill="white" stroke="#666666" points="242.5,-82.5 148.5,-82.5 148.5,-63.5 242.5,-63.5 242.5,-82.5"/>
<text text-anchor="middle" x="195.5" y="-70.5" font-family="Helvetica,sans-Serif" font-size="10.00">func_8000BBD8</text>
</a>
</g>
</g>
<!-- Node1&#45;&gt;Node2 -->
<g id="edge1_Node000001_Node000002" class="edge">
<title>Node1&#45;&gt;Node2</title>
<g id="a_edge1_Node000001_Node000002"><a xlink:title=" ">
<path fill="none" stroke="#63b8ff" d="M91.31,-59.75C106.1,-61.65 122.75,-63.79 138.29,-65.78"/>
<polygon fill="#63b8ff" stroke="#63b8ff" points="137.94,-69.27 148.31,-67.07 138.84,-62.33 137.94,-69.27"/>
</a>
</g>
</g>
<!-- Node3 -->
<g id="Node000003" class="node">
<title>Node3</title>
<g id="a_Node000003"><a xlink:href="collision_8c.html#ad95e9ed2051529d5edee26109fa07427" target="_top" xlink:title=" ">
<polygon fill="white" stroke="#666666" points="264,-45.5 127,-45.5 127,-26.5 264,-26.5 264,-45.5"/>
<text text-anchor="middle" x="195.5" y="-33.5" font-family="Helvetica,sans-Serif" font-size="10.00">spawn_actor_on_surface</text>
</a>
</g>
</g>
<!-- Node1&#45;&gt;Node3 -->
<g id="edge2_Node000001_Node000003" class="edge">
<title>Node1&#45;&gt;Node3</title>
<g id="a_edge2_Node000001_Node000003"><a xlink:title=" ">
<path fill="none" stroke="#63b8ff" d="M91.31,-48.55C99.38,-47.57 108,-46.52 116.7,-45.46"/>
<polygon fill="#63b8ff" stroke="#63b8ff" points="117.4,-48.9 126.91,-44.22 116.56,-41.95 117.4,-48.9"/>
</a>
</g>
</g>
<!-- Node4 -->
<g id="Node000004" class="node">
<title>Node4</title>
<g id="a_Node000004"><a xlink:href="collision_8c.html#a6527a2135a10909cdf9a1fd731be5628" target="_top" xlink:title=" ">
<polygon fill="white" stroke="#666666" points="438,-67.5 300,-67.5 300,-48.5 438,-48.5 438,-67.5"/>
<text text-anchor="middle" x="369" y="-55.5" font-family="Helvetica,sans-Serif" font-size="10.00">calculate_surface_height</text>
</a>
</g>
</g>
<!-- Node3&#45;&gt;Node4 -->
<g id="edge3_Node000003_Node000004" class="edge">
<title>Node3&#45;&gt;Node4</title>
<g id="a_edge3_Node000003_Node000004"><a xlink:title=" ">
<path fill="none" stroke="#63b8ff" d="M264.28,-44.69C272.69,-45.77 281.35,-46.88 289.9,-47.98"/>
<polygon fill="#63b8ff" stroke="#63b8ff" points="289.5,-51.46 299.87,-49.26 290.4,-44.52 289.5,-51.46"/>
</a>
</g>
</g>
<!-- Node5 -->
<g id="Node000005" class="node">
<title>Node5</title>
<g id="a_Node000005"><a xlink:href="collision_8c.html#a0fe340ccfe1d926a592ea9a0c84d7574" target="_top" xlink:title=" ">
<polygon fill="white" stroke="#666666" points="435,-30 303,-30 303,0 435,0 435,-30"/>
<text text-anchor="start" x="311" y="-18" font-family="Helvetica,sans-Serif" font-size="10.00">check_horizontally</text>
<text text-anchor="middle" x="369" y="-7" font-family="Helvetica,sans-Serif" font-size="10.00">_colliding_with_triangle</text>
</a>
</g>
</g>
<!-- Node3&#45;&gt;Node5 -->
<g id="edge4_Node000003_Node000005" class="edge">
<title>Node3&#45;&gt;Node5</title>
<g id="a_edge4_Node000003_Node000005"><a xlink:title=" ">
<path fill="none" stroke="#63b8ff" d="M264.28,-27.7C273.63,-26.56 283.28,-25.37 292.76,-24.21"/>
<polygon fill="#63b8ff" stroke="#63b8ff" points="293.45,-27.65 302.95,-22.97 292.6,-20.71 293.45,-27.65"/>
</a>
</g>
</g>
</g>
</svg>
</svg>

<style type='text/css'>
<![CDATA[
[data-mouse-over-selected='false'] { opacity: 0.7; }
[data-mouse-over-selected='true']  { opacity: 1.0; }
]]>
</style>
<script type="application/ecmascript"><![CDATA[
document.addEventListener('DOMContentLoaded', (event) => {
  highlightEdges();
  highlightAdjacentNodes();
});
]]></script>
</svg>
