<?xml version="1.0" encoding="UTF-8" standalone="no"?>
<!DOCTYPE svg PUBLIC "-//W3C//DTD SVG 1.1//EN"
 "http://www.w3.org/Graphics/SVG/1.1/DTD/svg11.dtd">
<!-- Generated by graphviz version 2.43.0 (0)
 -->
<!-- Title: func_80087E08 Pages: 1 -->
<!--zoomable 215 -->

<svg id="main" version="1.1" xmlns="http://www.w3.org/2000/svg" xmlns:xlink="http://www.w3.org/1999/xlink" xml:space="preserve" onload="init(evt)">
<style type="text/css"><![CDATA[
.node, .edge {opacity: 0.7;}
.node.selected, .edge.selected {opacity: 1;}
.edge:hover path { stroke: red; }
.edge:hover polygon { stroke: red; fill: red; }
]]></style>

<defs>
  <circle id="rim" cx="0" cy="0" r="7"/>
  <circle id="rim2" cx="0" cy="0" r="3.5"/>
  <g id="zoomPlus">
    <use xlink:href="#rim" fill="#404040"><set attributeName="fill" to="#808080" begin="zoomplus.mouseover" end="zoomplus.mouseout"/></use>
    <path d="M-4,0h8M0,-4v8" fill="none" stroke="white" stroke-width="1.5" pointer-events="none"/>
  </g>
  <g id="zoomMin">
    <use xlink:href="#rim" fill="#404040"><set attributeName="fill" to="#808080" begin="zoomminus.mouseover" end="zoomminus.mouseout"/></use>
    <path d="M-4,0h8" fill="none" stroke="white" stroke-width="1.5" pointer-events="none"/>
  </g>
  <g id="arrowUp" transform="translate(30 24)">
    <use xlink:href="#rim"/>
    <path pointer-events="none" fill="none" stroke="white" stroke-width="1.5" d="M0,-3.0v7 M-2.5,-0.5L0,-3.0L2.5,-0.5"/>
  </g>
  <g id="arrowRight" transform="rotate(90) translate(36 -43)">
    <use xlink:href="#rim"/>
    <path pointer-events="none" fill="none" stroke="white" stroke-width="1.5" d="M0,-3.0v7 M-2.5,-0.5L0,-3.0L2.5,-0.5"/>
  </g>
  <g id="arrowDown" transform="rotate(180) translate(-30 -48)">
    <use xlink:href="#rim"/>
    <path pointer-events="none" fill="none" stroke="white" stroke-width="1.5" d="M0,-3.0v7 M-2.5,-0.5L0,-3.0L2.5,-0.5"/>
  </g>
  <g id="arrowLeft" transform="rotate(270) translate(-36 17)">
    <use xlink:href="#rim"/>
    <path pointer-events="none" fill="none" stroke="white" stroke-width="1.5" d="M0,-3.0v7 M-2.5,-0.5L0,-3.0L2.5,-0.5"/>
  </g>
  <g id="resetDef">
    <use xlink:href="#rim2" fill="#404040"><set attributeName="fill" to="#808080" begin="reset.mouseover" end="reset.mouseout"/></use>
  </g>
</defs>
<script type="application/ecmascript">
var viewWidth = 1871;
var viewHeight = 215;
var sectionId = 'dynsection-55';
</script>
<script type="application/ecmascript" xlink:href="svg.min.js"/>
<svg id="graph" class="graph">
<g id="viewport">
<title>func_80087E08</title>
<!-- Node1 -->
<g id="Node000001" class="node">
<title>Node1</title>
<g id="a_Node000001"><a xlink:title=" ">
<polygon fill="#999999" stroke="#666666" points="1863,-112 1772,-112 1772,-93 1863,-93 1863,-112"/>
<text text-anchor="middle" x="1817.5" y="-100" font-family="Helvetica,sans-Serif" font-size="10.00">func_80087E08</text>
</a>
</g>
</g>
<!-- Node2 -->
<g id="Node000002" class="node">
<title>Node2</title>
<g id="a_Node000002"><a xlink:href="update__objects_8c.html#a972169b2e7b74c9ce9f1f7c98fae28e9" target="_top" xlink:title=" ">
<polygon fill="white" stroke="#666666" points="1735,-206 1643,-206 1643,-187 1735,-187 1735,-206"/>
<text text-anchor="middle" x="1689" y="-194" font-family="Helvetica,sans-Serif" font-size="10.00">func_80074FD8</text>
</a>
</g>
</g>
<!-- Node1&#45;&gt;Node2 -->
<g id="edge1_Node000001_Node000002" class="edge">
<title>Node1&#45;&gt;Node2</title>
<g id="a_edge1_Node000001_Node000002"><a xlink:title=" ">
<path fill="none" stroke="#63b8ff" d="M1801.53,-120.11C1786.43,-136.98 1761.71,-162.21 1736,-178.5 1730.93,-181.71 1725.19,-184.52 1719.53,-186.89"/>
<polygon fill="#63b8ff" stroke="#63b8ff" points="1804.55,-121.98 1808.51,-112.15 1799.29,-117.36 1804.55,-121.98"/>
</a>
</g>
</g>
<!-- Node16 -->
<g id="Node000016" class="node">
<title>Node16</title>
<g id="a_Node000016"><a xlink:href="update__objects_8c.html#ac1cfaf791e38d2d69655cfdcb24ef537" target="_top" xlink:title=" ">
<polygon fill="white" stroke="#666666" points="1735.5,-131 1642.5,-131 1642.5,-112 1735.5,-112 1735.5,-131"/>
<text text-anchor="middle" x="1689" y="-119" font-family="Helvetica,sans-Serif" font-size="10.00">func_80077BCC</text>
</a>
</g>
</g>
<!-- Node1&#45;&gt;Node16 -->
<g id="edge17_Node000001_Node000016" class="edge">
<title>Node1&#45;&gt;Node16</title>
<g id="a_edge17_Node000001_Node000016"><a xlink:title=" ">
<path fill="none" stroke="#63b8ff" d="M1761.88,-110.7C1753.22,-112 1744.34,-113.34 1735.91,-114.6"/>
<polygon fill="#63b8ff" stroke="#63b8ff" points="1762.53,-114.15 1771.9,-109.2 1761.49,-107.22 1762.53,-114.15"/>
</a>
</g>
</g>
<!-- Node21 -->
<g id="Node000021" class="node">
<title>Node21</title>
<g id="a_Node000021"><a xlink:href="update__objects_8c.html#ac3d84449a4807568abbc6b512d343125" target="_top" xlink:title=" ">
<polygon fill="white" stroke="#666666" points="1736,-19 1642,-19 1642,0 1736,0 1736,-19"/>
<text text-anchor="middle" x="1689" y="-7" font-family="Helvetica,sans-Serif" font-size="10.00">func_8007BBBC</text>
</a>
</g>
</g>
<!-- Node1&#45;&gt;Node21 -->
<g id="edge26_Node000001_Node000021" class="edge">
<title>Node1&#45;&gt;Node21</title>
<g id="a_edge26_Node000001_Node000021"><a xlink:title=" ">
<path fill="none" stroke="#63b8ff" d="M1801.48,-85.13C1786.34,-68.5 1761.61,-43.61 1736,-27.5 1730.92,-24.3 1725.18,-21.51 1719.52,-19.14"/>
<polygon fill="#63b8ff" stroke="#63b8ff" points="1799.22,-87.85 1808.48,-92.99 1804.44,-83.19 1799.22,-87.85"/>
</a>
</g>
</g>
<!-- Node24 -->
<g id="Node000024" class="node">
<title>Node24</title>
<g id="a_Node000024"><a xlink:href="update__objects_8c.html#a2f439ac3827df6d8e1b71dbc71d26d04" target="_top" xlink:title=" ">
<polygon fill="white" stroke="#666666" points="1734.5,-94 1643.5,-94 1643.5,-75 1734.5,-75 1734.5,-94"/>
<text text-anchor="middle" x="1689" y="-82" font-family="Helvetica,sans-Serif" font-size="10.00">func_80081790</text>
</a>
</g>
</g>
<!-- Node1&#45;&gt;Node24 -->
<g id="edge31_Node000001_Node000024" class="edge">
<title>Node1&#45;&gt;Node24</title>
<g id="a_edge31_Node000001_Node000024"><a xlink:title=" ">
<path fill="none" stroke="#63b8ff" d="M1761.8,-94.72C1752.72,-93.43 1743.41,-92.1 1734.62,-90.85"/>
<polygon fill="#63b8ff" stroke="#63b8ff" points="1761.51,-98.21 1771.9,-96.15 1762.49,-91.28 1761.51,-98.21"/>
</a>
</g>
</g>
<!-- Node26 -->
<g id="Node000026" class="node">
<title>Node26</title>
<g id="a_Node000026"><a xlink:href="update__objects_8c.html#a296914c7dbf26986e8fcb081bba6634d" target="_top" xlink:title=" ">
<polygon fill="white" stroke="#666666" points="1735,-56 1643,-56 1643,-37 1735,-37 1735,-56"/>
<text text-anchor="middle" x="1689" y="-44" font-family="Helvetica,sans-Serif" font-size="10.00">func_8008379C</text>
</a>
</g>
</g>
<!-- Node1&#45;&gt;Node26 -->
<g id="edge34_Node000001_Node000026" class="edge">
<title>Node1&#45;&gt;Node26</title>
<g id="a_edge34_Node000001_Node000026"><a xlink:title=" ">
<path fill="none" stroke="#63b8ff" d="M1786.72,-88.47C1771.59,-81.44 1752.89,-72.86 1736,-65.5 1728.87,-62.39 1721.07,-59.12 1713.95,-56.18"/>
<polygon fill="#63b8ff" stroke="#63b8ff" points="1785.54,-91.79 1796.09,-92.85 1788.51,-85.45 1785.54,-91.79"/>
</a>
</g>
</g>
<!-- Node28 -->
<g id="Node000028" class="node">
<title>Node28</title>
<g id="a_Node000028"><a xlink:href="update__objects_8c.html#a38a3d24a3dc0d88403828a4507991788" target="_top" xlink:title=" ">
<polygon fill="white" stroke="#666666" points="1734.5,-169 1643.5,-169 1643.5,-150 1734.5,-150 1734.5,-169"/>
<text text-anchor="middle" x="1689" y="-157" font-family="Helvetica,sans-Serif" font-size="10.00">func_80083F18</text>
</a>
</g>
</g>
<!-- Node1&#45;&gt;Node28 -->
<g id="edge37_Node000001_Node000028" class="edge">
<title>Node1&#45;&gt;Node28</title>
<g id="a_edge37_Node000001_Node000028"><a xlink:title=" ">
<path fill="none" stroke="#63b8ff" d="M1786.66,-116.39C1771.52,-123.4 1752.82,-131.98 1736,-139.5 1728.37,-142.91 1719.99,-146.58 1712.5,-149.83"/>
<polygon fill="#63b8ff" stroke="#63b8ff" points="1788.44,-119.43 1796.04,-112.05 1785.49,-113.08 1788.44,-119.43"/>
</a>
</g>
</g>
<!-- Node3 -->
<g id="Node000003" class="node">
<title>Node3</title>
<g id="a_Node000003"><a xlink:href="update__objects_8c.html#a9606be606aab5292822748fc93310271" target="_top" xlink:title=" ">
<polygon fill="white" stroke="#666666" points="1579,-207 1487,-207 1487,-188 1579,-188 1579,-207"/>
<text text-anchor="middle" x="1533" y="-195" font-family="Helvetica,sans-Serif" font-size="10.00">func_8007542C</text>
</a>
</g>
</g>
<!-- Node2&#45;&gt;Node3 -->
<g id="edge2_Node000002_Node000003" class="edge">
<title>Node2&#45;&gt;Node3</title>
<g id="a_edge2_Node000002_Node000003"><a xlink:title=" ">
<path fill="none" stroke="#63b8ff" d="M1632.51,-196.86C1614.95,-196.97 1595.78,-197.1 1579.05,-197.21"/>
<polygon fill="#63b8ff" stroke="#63b8ff" points="1632.65,-200.36 1642.63,-196.79 1632.61,-193.36 1632.65,-200.36"/>
</a>
</g>
</g>
<!-- Node4 -->
<g id="Node000004" class="node">
<title>Node4</title>
<g id="a_Node000004"><a xlink:href="update__objects_8c.html#a8afc56ea0d06d8d9d473e5883925c9a9" target="_top" xlink:title=" ">
<polygon fill="white" stroke="#666666" points="1269,-151 1178,-151 1178,-132 1269,-132 1269,-151"/>
<text text-anchor="middle" x="1223.5" y="-139" font-family="Helvetica,sans-Serif" font-size="10.00">func_80081210</text>
</a>
</g>
</g>
<!-- Node3&#45;&gt;Node4 -->
<g id="edge3_Node000003_Node000004" class="edge">
<title>Node3&#45;&gt;Node4</title>
<g id="a_edge3_Node000003_Node000004"><a xlink:title=" ">
<path fill="none" stroke="#63b8ff" d="M1476.82,-196.34C1430.38,-194.31 1362.52,-188.88 1305,-174.5 1283.17,-169.04 1259.48,-158.76 1243.49,-151.11"/>
<polygon fill="#63b8ff" stroke="#63b8ff" points="1476.85,-199.84 1486.98,-196.74 1477.13,-192.84 1476.85,-199.84"/>
</a>
</g>
</g>
<!-- Node5 -->
<g id="Node000005" class="node">
<title>Node5</title>
<g id="a_Node000005"><a xlink:href="code__80057C60_8c.html#a8a7fdf4fc705765c9463a477e3ef1858" target="_top" xlink:title=" ">
<polygon fill="white" stroke="#666666" points="1142,-142 1050,-142 1050,-123 1142,-123 1142,-142"/>
<text text-anchor="middle" x="1096" y="-130" font-family="Helvetica,sans-Serif" font-size="10.00">func_8005A71C</text>
</a>
</g>
</g>
<!-- Node4&#45;&gt;Node5 -->
<g id="edge4_Node000004_Node000005" class="edge">
<title>Node4&#45;&gt;Node5</title>
<g id="a_edge4_Node000004_Node000005"><a xlink:title=" ">
<path fill="none" stroke="#63b8ff" d="M1167.7,-137.57C1159.22,-136.96 1150.54,-136.34 1142.3,-135.75"/>
<polygon fill="#63b8ff" stroke="#63b8ff" points="1167.68,-141.08 1177.9,-138.3 1168.18,-134.1 1167.68,-141.08"/>
</a>
</g>
</g>
<!-- Node6 -->
<g id="Node000006" class="node">
<title>Node6</title>
<g id="a_Node000006"><a xlink:href="code__80057C60_8c.html#ae61bd9f49508d924387c00845cae4060" target="_top" xlink:title=" ">
<polygon fill="white" stroke="#666666" points="1014,-123 922,-123 922,-104 1014,-104 1014,-123"/>
<text text-anchor="middle" x="968" y="-111" font-family="Helvetica,sans-Serif" font-size="10.00">func_80059AC8</text>
</a>
</g>
</g>
<!-- Node5&#45;&gt;Node6 -->
<g id="edge5_Node000005_Node000006" class="edge">
<title>Node5&#45;&gt;Node6</title>
<g id="a_edge5_Node000005_Node000006"><a xlink:title=" ">
<path fill="none" stroke="#63b8ff" d="M1039.93,-124.2C1031.35,-122.9 1022.57,-121.58 1014.24,-120.32"/>
<polygon fill="#63b8ff" stroke="#63b8ff" points="1039.46,-127.66 1049.87,-125.69 1040.5,-120.74 1039.46,-127.66"/>
</a>
</g>
</g>
<!-- Node7 -->
<g id="Node000007" class="node">
<title>Node7</title>
<g id="a_Node000007"><a xlink:href="code__80280000_8c.html#a4d9b0156b64d7a67e4cb21cde391ca43" target="_top" xlink:title=" ">
<polygon fill="white" stroke="#666666" points="864.5,-142 773.5,-142 773.5,-123 864.5,-123 864.5,-142"/>
<text text-anchor="middle" x="819" y="-130" font-family="Helvetica,sans-Serif" font-size="10.00">func_80280000</text>
</a>
</g>
</g>
<!-- Node6&#45;&gt;Node7 -->
<g id="edge6_Node000006_Node000007" class="edge">
<title>Node6&#45;&gt;Node7</title>
<g id="a_edge6_Node000006_Node000007"><a xlink:title=" ">
<path fill="none" stroke="#63b8ff" d="M911.69,-120.65C896.16,-122.66 879.47,-124.81 864.65,-126.73"/>
<polygon fill="#63b8ff" stroke="#63b8ff" points="912.23,-124.11 921.7,-119.36 911.33,-117.17 912.23,-124.11"/>
</a>
</g>
</g>
<!-- Node14 -->
<g id="Node000014" class="node">
<title>Node14</title>
<g id="a_Node000014"><a xlink:href="podium__ceremony__actors_8c.html#a7ea229c65f264670fc828b95e8321154" target="_top" xlink:title=" ">
<polygon fill="white" stroke="#666666" points="886,-105 752,-105 752,-86 886,-86 886,-105"/>
<text text-anchor="middle" x="819" y="-93" font-family="Helvetica,sans-Serif" font-size="10.00">podium_ceremony_loop</text>
</a>
</g>
</g>
<!-- Node6&#45;&gt;Node14 -->
<g id="edge13_Node000006_Node000014" class="edge">
<title>Node6&#45;&gt;Node14</title>
<g id="a_edge13_Node000006_Node000014"><a xlink:title=" ">
<path fill="none" stroke="#63b8ff" d="M911.74,-106.73C903.41,-105.71 894.76,-104.65 886.23,-103.61"/>
<polygon fill="#63b8ff" stroke="#63b8ff" points="911.34,-110.21 921.7,-107.95 912.2,-103.26 911.34,-110.21"/>
</a>
</g>
</g>
<!-- Node15 -->
<g id="Node000015" class="node">
<title>Node15</title>
<g id="a_Node000015"><a xlink:href="main_8c.html#afff87ffcbfee4f1f37d443110aa7b52a" target="_top" xlink:title=" ">
<polygon fill="white" stroke="#666666" points="865,-68 773,-68 773,-49 865,-49 865,-68"/>
<text text-anchor="middle" x="819" y="-56" font-family="Helvetica,sans-Serif" font-size="10.00">race_logic_loop</text>
</a>
</g>
</g>
<!-- Node6&#45;&gt;Node15 -->
<g id="edge15_Node000006_Node000015" class="edge">
<title>Node6&#45;&gt;Node15</title>
<g id="a_edge15_Node000006_Node000015"><a xlink:title=" ">
<path fill="none" stroke="#63b8ff" d="M934.11,-99.9C930.02,-98.12 925.9,-96.3 922,-94.5 905.75,-87.02 902.71,-82.88 886,-76.5 877.68,-73.32 868.57,-70.46 859.85,-68"/>
<polygon fill="#63b8ff" stroke="#63b8ff" points="932.95,-103.21 943.52,-103.92 935.7,-96.77 932.95,-103.21"/>
</a>
</g>
</g>
<!-- Node8 -->
<g id="Node000008" class="node">
<title>Node8</title>
<g id="a_Node000008"><a xlink:href="code__80280000_8c.html#aa28a69be4eda3b8667366c6c7b556024" target="_top" xlink:title=" ">
<polygon fill="white" stroke="#666666" points="716,-143 640,-143 640,-124 716,-124 716,-143"/>
<text text-anchor="middle" x="678" y="-131" font-family="Helvetica,sans-Serif" font-size="10.00">credits_loop</text>
</a>
</g>
</g>
<!-- Node7&#45;&gt;Node8 -->
<g id="edge7_Node000007_Node000008" class="edge">
<title>Node7&#45;&gt;Node8</title>
<g id="a_edge7_Node000007_Node000008"><a xlink:title=" ">
<path fill="none" stroke="#63b8ff" d="M763.11,-132.89C747.38,-133.01 730.61,-133.13 716.22,-133.23"/>
<polygon fill="#63b8ff" stroke="#63b8ff" points="763.28,-136.39 773.25,-132.82 763.23,-129.39 763.28,-136.39"/>
</a>
</g>
</g>
<!-- Node9 -->
<g id="Node000009" class="node">
<title>Node9</title>
<g id="a_Node000009"><a xlink:href="main_8c.html#ae04143ce8113cdafa007c642eb620bc8" target="_top" xlink:title=" ">
<polygon fill="white" stroke="#666666" points="604,-105 488,-105 488,-86 604,-86 604,-105"/>
<text text-anchor="middle" x="546" y="-93" font-family="Helvetica,sans-Serif" font-size="10.00">game_state_handler</text>
</a>
</g>
</g>
<!-- Node8&#45;&gt;Node9 -->
<g id="edge8_Node000008_Node000009" class="edge">
<title>Node8&#45;&gt;Node9</title>
<g id="a_edge8_Node000008_Node000009"><a xlink:title=" ">
<path fill="none" stroke="#63b8ff" d="M634.12,-120.96C616.43,-115.8 596.27,-109.9 579.79,-105.09"/>
<polygon fill="#63b8ff" stroke="#63b8ff" points="633.62,-124.46 644.2,-123.91 635.58,-117.75 633.62,-124.46"/>
</a>
</g>
</g>
<!-- Node10 -->
<g id="Node000010" class="node">
<title>Node10</title>
<g id="a_Node000010"><a xlink:href="main_8c.html#a633ed517e458daeb768f5361895dcac9" target="_top" xlink:title=" ">
<polygon fill="white" stroke="#666666" points="452,-105 339,-105 339,-86 452,-86 452,-105"/>
<text text-anchor="middle" x="395.5" y="-93" font-family="Helvetica,sans-Serif" font-size="10.00">thread5_game_loop</text>
</a>
</g>
</g>
<!-- Node9&#45;&gt;Node10 -->
<g id="edge9_Node000009_Node000010" class="edge">
<title>Node9&#45;&gt;Node10</title>
<g id="a_edge9_Node000009_Node000010"><a xlink:title=" ">
<path fill="none" stroke="#63b8ff" d="M477.42,-95.5C469.02,-95.5 460.5,-95.5 452.3,-95.5"/>
<polygon fill="#63b8ff" stroke="#63b8ff" points="477.59,-99 487.59,-95.5 477.59,-92 477.59,-99"/>
</a>
</g>
</g>
<!-- Node11 -->
<g id="Node000011" class="node">
<title>Node11</title>
<g id="a_Node000011"><a xlink:href="main_8c.html#a023b8f272e4efbd33f371e91ffff6b30" target="_top" xlink:title=" ">
<polygon fill="white" stroke="#666666" points="303,-105 217,-105 217,-86 303,-86 303,-105"/>
<text text-anchor="middle" x="260" y="-93" font-family="Helvetica,sans-Serif" font-size="10.00">thread3_video</text>
</a>
</g>
</g>
<!-- Node10&#45;&gt;Node11 -->
<g id="edge10_Node000010_Node000011" class="edge">
<title>Node10&#45;&gt;Node11</title>
<g id="a_edge10_Node000010_Node000011"><a xlink:title=" ">
<path fill="none" stroke="#63b8ff" d="M328.57,-95.5C319.94,-95.5 311.3,-95.5 303.21,-95.5"/>
<polygon fill="#63b8ff" stroke="#63b8ff" points="328.66,-99 338.66,-95.5 328.66,-92 328.66,-99"/>
</a>
</g>
</g>
<!-- Node12 -->
<g id="Node000012" class="node">
<title>Node12</title>
<g id="a_Node000012"><a xlink:href="main_8c.html#a1e35d2b842121e6aea373f09381616e5" target="_top" xlink:title=" ">
<polygon fill="white" stroke="#666666" points="181,-105 104,-105 104,-86 181,-86 181,-105"/>
<text text-anchor="middle" x="142.5" y="-93" font-family="Helvetica,sans-Serif" font-size="10.00">thread1_idle</text>
</a>
</g>
</g>
<!-- Node11&#45;&gt;Node12 -->
<g id="edge11_Node000011_Node000012" class="edge">
<title>Node11&#45;&gt;Node12</title>
<g id="a_edge11_Node000011_Node000012"><a xlink:title=" ">
<path fill="none" stroke="#63b8ff" d="M206.9,-95.5C198.2,-95.5 189.33,-95.5 181.09,-95.5"/>
<polygon fill="#63b8ff" stroke="#63b8ff" points="206.98,-99 216.98,-95.5 206.98,-92 206.98,-99"/>
</a>
</g>
</g>
<!-- Node13 -->
<g id="Node000013" class="node">
<title>Node13</title>
<g id="a_Node000013"><a xlink:href="main_8c.html#a4f87d43525fe95f60ea92bc8a3b70e62" target="_top" xlink:title=" ">
<polygon fill="white" stroke="#666666" points="68,-105 0,-105 0,-86 68,-86 68,-105"/>
<text text-anchor="middle" x="34" y="-93" font-family="Helvetica,sans-Serif" font-size="10.00">main_func</text>
</a>
</g>
</g>
<!-- Node12&#45;&gt;Node13 -->
<g id="edge12_Node000012_Node000013" class="edge">
<title>Node12&#45;&gt;Node13</title>
<g id="a_edge12_Node000012_Node000013"><a xlink:title=" ">
<path fill="none" stroke="#63b8ff" d="M93.95,-95.5C85.29,-95.5 76.44,-95.5 68.31,-95.5"/>
<polygon fill="#63b8ff" stroke="#63b8ff" points="93.95,-99 103.95,-95.5 93.95,-92 93.95,-99"/>
</a>
</g>
</g>
<!-- Node14&#45;&gt;Node9 -->
<g id="edge14_Node000014_Node000009" class="edge">
<title>Node14&#45;&gt;Node9</title>
<g id="a_edge14_Node000014_Node000009"><a xlink:title=" ">
<path fill="none" stroke="#63b8ff" d="M741.44,-95.5C697.89,-95.5 644.25,-95.5 604.35,-95.5"/>
<polygon fill="#63b8ff" stroke="#63b8ff" points="741.71,-99 751.71,-95.5 741.71,-92 741.71,-99"/>
</a>
</g>
</g>
<!-- Node15&#45;&gt;Node9 -->
<g id="edge16_Node000015_Node000009" class="edge">
<title>Node15&#45;&gt;Node9</title>
<g id="a_edge16_Node000015_Node000009"><a xlink:title=" ">
<path fill="none" stroke="#63b8ff" d="M762.83,-66.03C716.72,-72.33 651.18,-81.28 604.44,-87.66"/>
<polygon fill="#63b8ff" stroke="#63b8ff" points="763.51,-69.47 772.95,-64.65 762.56,-62.54 763.51,-69.47"/>
</a>
</g>
</g>
<!-- Node17 -->
<g id="Node000017" class="node">
<title>Node17</title>
<g id="a_Node000017"><a xlink:href="update__objects_8c.html#aae52c57b6e3dba06e478c46c9d373689" target="_top" xlink:title=" ">
<polygon fill="white" stroke="#666666" points="1401.5,-132 1327.5,-132 1327.5,-113 1401.5,-113 1401.5,-132"/>
<text text-anchor="middle" x="1364.5" y="-120" font-family="Helvetica,sans-Serif" font-size="10.00">update_leaf</text>
</a>
</g>
</g>
<!-- Node16&#45;&gt;Node17 -->
<g id="edge18_Node000016_Node000017" class="edge">
<title>Node16&#45;&gt;Node17</title>
<g id="a_edge18_Node000016_Node000017"><a xlink:title=" ">
<path fill="none" stroke="#63b8ff" d="M1632.25,-121.67C1566.16,-121.88 1457.94,-122.21 1401.81,-122.39"/>
<polygon fill="#63b8ff" stroke="#63b8ff" points="1632.49,-125.17 1642.48,-121.64 1632.47,-118.17 1632.49,-125.17"/>
</a>
</g>
</g>
<!-- Node18 -->
<g id="Node000018" class="node">
<title>Node18</title>
<g id="a_Node000018"><a xlink:href="code__80057C60_8c.html#a22c0f603a5c87f883a26284082d099f8" target="_top" xlink:title=" ">
<polygon fill="white" stroke="#666666" points="1266.5,-95 1180.5,-95 1180.5,-76 1266.5,-76 1266.5,-95"/>
<text text-anchor="middle" x="1223.5" y="-83" font-family="Helvetica,sans-Serif" font-size="10.00">update_object</text>
</a>
</g>
</g>
<!-- Node17&#45;&gt;Node18 -->
<g id="edge19_Node000017_Node000018" class="edge">
<title>Node17&#45;&gt;Node18</title>
<g id="a_edge19_Node000017_Node000018"><a xlink:title=" ">
<path fill="none" stroke="#63b8ff" d="M1317.97,-110.38C1299.37,-105.43 1278.16,-99.78 1260.66,-95.12"/>
<polygon fill="#63b8ff" stroke="#63b8ff" points="1317.14,-113.78 1327.7,-112.97 1318.94,-107.02 1317.14,-113.78"/>
</a>
</g>
</g>
<!-- Node19 -->
<g id="Node000019" class="node">
<title>Node19</title>
<g id="a_Node000019"><a xlink:href="code__80057C60_8c.html#a48f7fc1ba7acccec2d7b6e0a59f65dc5" target="_top" xlink:title=" ">
<polygon fill="white" stroke="#666666" points="1142,-105 1050,-105 1050,-86 1142,-86 1142,-105"/>
<text text-anchor="middle" x="1096" y="-93" font-family="Helvetica,sans-Serif" font-size="10.00">func_80059D00</text>
</a>
</g>
</g>
<!-- Node18&#45;&gt;Node19 -->
<g id="edge20_Node000018_Node000019" class="edge">
<title>Node18&#45;&gt;Node19</title>
<g id="a_edge20_Node000018_Node000019"><a xlink:title=" ">
<path fill="none" stroke="#63b8ff" d="M1170.39,-89.65C1161.05,-90.4 1151.38,-91.17 1142.26,-91.89"/>
<polygon fill="#63b8ff" stroke="#63b8ff" points="1170.67,-93.14 1180.36,-88.86 1170.11,-86.16 1170.67,-93.14"/>
</a>
</g>
</g>
<!-- Node20 -->
<g id="Node000020" class="node">
<title>Node20</title>
<g id="a_Node000020"><a xlink:href="code__80057C60_8c.html#a86b7dba9c0715c4d7fdf8ce61c0738bc" target="_top" xlink:title=" ">
<polygon fill="white" stroke="#666666" points="1014,-86 922,-86 922,-67 1014,-67 1014,-86"/>
<text text-anchor="middle" x="968" y="-74" font-family="Helvetica,sans-Serif" font-size="10.00">func_8005A070</text>
</a>
</g>
</g>
<!-- Node18&#45;&gt;Node20 -->
<g id="edge25_Node000018_Node000020" class="edge">
<title>Node18&#45;&gt;Node20</title>
<g id="a_edge25_Node000018_Node000020"><a xlink:title=" ">
<path fill="none" stroke="#63b8ff" d="M1170.33,-78.81C1160.92,-77.85 1151.18,-77.01 1142,-76.5 1098.67,-74.09 1049.13,-74.4 1014.21,-75.13"/>
<polygon fill="#63b8ff" stroke="#63b8ff" points="1170.06,-82.3 1180.38,-79.9 1170.81,-75.34 1170.06,-82.3"/>
</a>
</g>
</g>
<!-- Node19&#45;&gt;Node20 -->
<g id="edge21_Node000019_Node000020" class="edge">
<title>Node19&#45;&gt;Node20</title>
<g id="a_edge21_Node000019_Node000020"><a xlink:title=" ">
<path fill="none" stroke="#63b8ff" d="M1039.93,-87.2C1031.35,-85.9 1022.57,-84.58 1014.24,-83.32"/>
<polygon fill="#63b8ff" stroke="#63b8ff" points="1039.46,-90.66 1049.87,-88.69 1040.5,-83.74 1039.46,-90.66"/>
</a>
</g>
</g>
<!-- Node20&#45;&gt;Node7 -->
<g id="edge22_Node000020_Node000007" class="edge">
<title>Node20&#45;&gt;Node7</title>
<g id="a_edge22_Node000020_Node000007"><a xlink:title=" ">
<path fill="none" stroke="#63b8ff" d="M932.03,-90.07C928.62,-91.52 925.23,-93.01 922,-94.5 905.58,-102.09 902.78,-106.74 886,-113.5 877.15,-117.06 867.39,-120.26 858.15,-122.96"/>
<polygon fill="#63b8ff" stroke="#63b8ff" points="933.66,-93.18 941.57,-86.13 930.99,-86.71 933.66,-93.18"/>
</a>
</g>
</g>
<!-- Node20&#45;&gt;Node14 -->
<g id="edge23_Node000020_Node000014" class="edge">
<title>Node20&#45;&gt;Node14</title>
<g id="a_edge23_Node000020_Node000014"><a xlink:title=" ">
<path fill="none" stroke="#63b8ff" d="M911.74,-83.64C903.41,-84.72 894.76,-85.84 886.23,-86.94"/>
<polygon fill="#63b8ff" stroke="#63b8ff" points="912.23,-87.11 921.7,-82.36 911.33,-80.17 912.23,-87.11"/>
</a>
</g>
</g>
<!-- Node20&#45;&gt;Node15 -->
<g id="edge24_Node000020_Node000015" class="edge">
<title>Node20&#45;&gt;Node15</title>
<g id="a_edge24_Node000020_Node000015"><a xlink:title=" ">
<path fill="none" stroke="#63b8ff" d="M911.34,-69.68C896.09,-67.82 879.74,-65.82 865.15,-64.03"/>
<polygon fill="#63b8ff" stroke="#63b8ff" points="911.34,-73.21 921.7,-70.95 912.2,-66.26 911.34,-73.21"/>
</a>
</g>
</g>
<!-- Node22 -->
<g id="Node000022" class="node">
<title>Node22</title>
<g id="a_Node000022"><a xlink:href="update__objects_8c.html#abd248feb63b445a2df7b828ed5f6fc21" target="_top" xlink:title=" ">
<polygon fill="white" stroke="#666666" points="1606,-19 1460,-19 1460,0 1606,0 1606,-19"/>
<text text-anchor="middle" x="1533" y="-7" font-family="Helvetica,sans-Serif" font-size="10.00">update_cheep_cheep_race</text>
</a>
</g>
</g>
<!-- Node21&#45;&gt;Node22 -->
<g id="edge27_Node000021_Node000022" class="edge">
<title>Node21&#45;&gt;Node22</title>
<g id="a_edge27_Node000021_Node000022"><a xlink:title=" ">
<path fill="none" stroke="#63b8ff" d="M1631.53,-9.5C1623.25,-9.5 1614.64,-9.5 1606.1,-9.5"/>
<polygon fill="#63b8ff" stroke="#63b8ff" points="1631.79,-13 1641.79,-9.5 1631.79,-6 1631.79,-13"/>
</a>
</g>
</g>
<!-- Node23 -->
<g id="Node000023" class="node">
<title>Node23</title>
<g id="a_Node000023"><a xlink:href="update__objects_8c.html#afe7f74bd946f2a208e57a00e5e7c7c0b" target="_top" xlink:title=" ">
<polygon fill="white" stroke="#666666" points="1424,-19 1305,-19 1305,0 1424,0 1424,-19"/>
<text text-anchor="middle" x="1364.5" y="-7" font-family="Helvetica,sans-Serif" font-size="10.00">update_cheep_cheep</text>
</a>
</g>
</g>
<!-- Node22&#45;&gt;Node23 -->
<g id="edge28_Node000022_Node000023" class="edge">
<title>Node22&#45;&gt;Node23</title>
<g id="a_edge28_Node000022_Node000023"><a xlink:title=" ">
<path fill="none" stroke="#63b8ff" d="M1449.8,-9.5C1441.14,-9.5 1432.47,-9.5 1424.15,-9.5"/>
<polygon fill="#63b8ff" stroke="#63b8ff" points="1449.94,-13 1459.94,-9.5 1449.94,-6 1449.94,-13"/>
</a>
</g>
</g>
<!-- Node23&#45;&gt;Node18 -->
<g id="edge30_Node000023_Node000018" class="edge">
<title>Node23&#45;&gt;Node18</title>
<g id="a_edge30_Node000023_Node000018"><a xlink:title=" ">
<path fill="none" stroke="#63b8ff" d="M1327.92,-22.87C1320.24,-26.09 1312.25,-29.71 1305,-33.5 1280.23,-46.44 1253.3,-64.79 1237.71,-75.88"/>
<polygon fill="#63b8ff" stroke="#63b8ff" points="1329.46,-26.02 1337.41,-19.01 1326.82,-19.54 1329.46,-26.02"/>
</a>
</g>
</g>
<!-- Node23&#45;&gt;Node20 -->
<g id="edge29_Node000023_Node000020" class="edge">
<title>Node23&#45;&gt;Node20</title>
<g id="a_edge29_Node000023_Node000020"><a xlink:title=" ">
<path fill="none" stroke="#63b8ff" d="M1297.39,-20.73C1217.06,-34.37 1083.66,-57.03 1014.19,-68.82"/>
<polygon fill="#63b8ff" stroke="#63b8ff" points="1298.12,-24.15 1307.4,-19.03 1296.95,-17.25 1298.12,-24.15"/>
</a>
</g>
</g>
<!-- Node25 -->
<g id="Node000025" class="node">
<title>Node25</title>
<g id="a_Node000025"><a xlink:href="update__objects_8c.html#ae088490369426b76520d5be36ff77c2d" target="_top" xlink:title=" ">
<polygon fill="white" stroke="#666666" points="1407.5,-95 1321.5,-95 1321.5,-76 1407.5,-76 1407.5,-95"/>
<text text-anchor="middle" x="1364.5" y="-83" font-family="Helvetica,sans-Serif" font-size="10.00">update_moles</text>
</a>
</g>
</g>
<!-- Node24&#45;&gt;Node25 -->
<g id="edge32_Node000024_Node000025" class="edge">
<title>Node24&#45;&gt;Node25</title>
<g id="a_edge32_Node000024_Node000025"><a xlink:title=" ">
<path fill="none" stroke="#63b8ff" d="M1633.22,-84.67C1569.38,-84.87 1465.28,-85.19 1407.5,-85.37"/>
<polygon fill="#63b8ff" stroke="#63b8ff" points="1633.51,-88.17 1643.5,-84.64 1633.49,-81.17 1633.51,-88.17"/>
</a>
</g>
</g>
<!-- Node25&#45;&gt;Node18 -->
<g id="edge33_Node000025_Node000018" class="edge">
<title>Node25&#45;&gt;Node18</title>
<g id="a_edge33_Node000025_Node000018"><a xlink:title=" ">
<path fill="none" stroke="#63b8ff" d="M1311.04,-85.5C1296.47,-85.5 1280.83,-85.5 1266.92,-85.5"/>
<polygon fill="#63b8ff" stroke="#63b8ff" points="1311.42,-89 1321.42,-85.5 1311.42,-82 1311.42,-89"/>
</a>
</g>
</g>
<!-- Node27 -->
<g id="Node000027" class="node">
<title>Node27</title>
<g id="a_Node000027"><a xlink:href="update__objects_8c.html#a7daf082dede03d6e5cff2ae18ed0d289" target="_top" xlink:title=" ">
<polygon fill="white" stroke="#666666" points="1584.5,-56 1481.5,-56 1481.5,-37 1584.5,-37 1584.5,-56"/>
<text text-anchor="middle" x="1533" y="-44" font-family="Helvetica,sans-Serif" font-size="10.00">update_snowmen</text>
</a>
</g>
</g>
<!-- Node26&#45;&gt;Node27 -->
<g id="edge35_Node000026_Node000027" class="edge">
<title>Node26&#45;&gt;Node27</title>
<g id="a_edge35_Node000026_Node000027"><a xlink:title=" ">
<path fill="none" stroke="#63b8ff" d="M1632.58,-46.5C1616.95,-46.5 1600.04,-46.5 1584.71,-46.5"/>
<polygon fill="#63b8ff" stroke="#63b8ff" points="1632.63,-50 1642.63,-46.5 1632.63,-43 1632.63,-50"/>
</a>
</g>
</g>
<!-- Node27&#45;&gt;Node18 -->
<g id="edge36_Node000027_Node000018" class="edge">
<title>Node27&#45;&gt;Node18</title>
<g id="a_edge36_Node000027_Node000018"><a xlink:title=" ">
<path fill="none" stroke="#63b8ff" d="M1471.17,-49.48C1425.29,-52.3 1360.92,-57.49 1305,-66.5 1290.11,-68.9 1273.9,-72.53 1259.95,-75.97"/>
<polygon fill="#63b8ff" stroke="#63b8ff" points="1471.48,-52.97 1481.25,-48.88 1471.06,-45.98 1471.48,-52.97"/>
</a>
</g>
</g>
<!-- Node29 -->
<g id="Node000029" class="node">
<title>Node29</title>
<g id="a_Node000029"><a xlink:href="update__objects_8c.html#a85427aaa2bb0c47fde015fa11c4771a3" target="_top" xlink:title=" ">
<polygon fill="white" stroke="#666666" points="1579,-170 1487,-170 1487,-151 1579,-151 1579,-170"/>
<text text-anchor="middle" x="1533" y="-158" font-family="Helvetica,sans-Serif" font-size="10.00">func_800842C8</text>
</a>
</g>
</g>
<!-- Node28&#45;&gt;Node29 -->
<g id="edge38_Node000028_Node000029" class="edge">
<title>Node28&#45;&gt;Node29</title>
<g id="a_edge38_Node000028_Node000029"><a xlink:title=" ">
<path fill="none" stroke="#63b8ff" d="M1633.27,-159.86C1615.58,-159.97 1596.17,-160.1 1579.24,-160.21"/>
<polygon fill="#63b8ff" stroke="#63b8ff" points="1633.48,-163.35 1643.46,-159.79 1633.43,-156.35 1633.48,-163.35"/>
</a>
</g>
</g>
<!-- Node29&#45;&gt;Node18 -->
<g id="edge39_Node000029_Node000018" class="edge">
<title>Node29&#45;&gt;Node18</title>
<g id="a_edge39_Node000029_Node000018"><a xlink:title=" ">
<path fill="none" stroke="#63b8ff" d="M1476.35,-163.33C1429.34,-163.93 1360.93,-160.51 1305,-140.5 1276.95,-130.46 1249.42,-108.23 1234.95,-95.32"/>
<polygon fill="#63b8ff" stroke="#63b8ff" points="1476.7,-166.83 1486.63,-163.14 1476.57,-159.83 1476.7,-166.83"/>
</a>
</g>
</g>
</g>
</svg>

<g id="navigator" transform="translate(0 0)" fill="#404254">
  <rect fill="#f2f5e9" fill-opacity="0.5" stroke="#606060" stroke-width=".5" x="0" y="0" width="60" height="60"/>
  <use id="zoomplus" xlink:href="#zoomPlus" x="17" y="9" onmousedown="handleZoom(evt,'in')"/>
  <use id="zoomminus" xlink:href="#zoomMin" x="42" y="9" onmousedown="handleZoom(evt,'out')"/>
  <use id="reset" xlink:href="#resetDef" x="30" y="36" onmousedown="handleReset()"/>
   <use id="arrowup" xlink:href="#arrowUp" x="0" y="0" onmousedown="handlePan(0,-1)"/>
  <use id="arrowright" xlink:href="#arrowRight" x="0" y="0" onmousedown="handlePan(1,0)"/>
  <use id="arrowdown" xlink:href="#arrowDown" x="0" y="0" onmousedown="handlePan(0,1)"/>
  <use id="arrowleft" xlink:href="#arrowLeft" x="0" y="0" onmousedown="handlePan(-1,0)"/>
</g>
<svg viewBox="0 0 15 15" width="100%" height="30px" preserveAspectRatio="xMaxYMin meet">
 <g id="arrow_out" transform="scale(0.3 0.3)">
  <a xlink:href="code__80086E70_8c_a989c71b5530f8701df950f1d39a9259b_icgraph_org.svg" target="_base">
   <rect id="button" ry="5" rx="5" y="6" x="6" height="38" width="38"
        fill="#f2f5e9" fill-opacity="0.5" stroke="#606060" stroke-width="1.0"/>
   <path id="arrow"
     d="M 11.500037,31.436501 C 11.940474,20.09759 22.043105,11.32322 32.158766,21.979434 L 37.068811,17.246167 C 37.068811,17.246167 37.088388,32 37.088388,32 L 22.160133,31.978069 C 22.160133,31.978069 26.997745,27.140456 26.997745,27.140456 C 18.528582,18.264221 13.291696,25.230495 11.500037,31.436501 z"
     style="fill:#404040;"/>
  </a>
 </g>
</svg>

<style type='text/css'>
<![CDATA[
[data-mouse-over-selected='false'] { opacity: 0.7; }
[data-mouse-over-selected='true']  { opacity: 1.0; }
]]>
</style>
<script type="application/ecmascript"><![CDATA[
document.addEventListener('DOMContentLoaded', (event) => {
  highlightEdges();
  highlightAdjacentNodes();
});
]]></script>
</svg>
