<?xml version="1.0" encoding="UTF-8" standalone="no"?>
<!DOCTYPE svg PUBLIC "-//W3C//DTD SVG 1.1//EN"
 "http://www.w3.org/Graphics/SVG/1.1/DTD/svg11.dtd">
<!-- Generated by graphviz version 2.43.0 (0)
 -->
<!-- Title: func_80060504 Pages: 1 -->
<svg width="366pt" height="205pt"
 viewBox="0.00 0.00 366.00 204.50" xmlns="http://www.w3.org/2000/svg" xmlns:xlink="http://www.w3.org/1999/xlink">
<g id="graph0" class="graph" transform="scale(1 1) rotate(0) translate(4 200.5)">
<title>func_80060504</title>
<!-- Node1 -->
<g id="Node000001" class="node">
<title>Node1</title>
<g id="a_Node000001"><a xlink:title=" ">
<polygon fill="#999999" stroke="#666666" points="91,-104.5 0,-104.5 0,-85.5 91,-85.5 91,-104.5"/>
<text text-anchor="middle" x="45.5" y="-92.5" font-family="Helvetica,sans-Serif" font-size="10.00">func_80060504</text>
</a>
</g>
</g>
<!-- Node2 -->
<g id="Node000002" class="node">
<title>Node2</title>
<g id="a_Node000002"><a xlink:href="code__80057C60_8c.html#a156481baa44e5305c016e2902a91bbb1" target="_top" xlink:title=" ">
<polygon fill="white" stroke="#666666" points="232,-178.5 140,-178.5 140,-159.5 232,-159.5 232,-178.5"/>
<text text-anchor="middle" x="186" y="-166.5" font-family="Helvetica,sans-Serif" font-size="10.00">func_80062B18</text>
</a>
</g>
</g>
<!-- Node1&#45;&gt;Node2 -->
<g id="edge1_Node000001_Node000002" class="edge">
<title>Node1&#45;&gt;Node2</title>
<g id="a_edge1_Node000001_Node000002"><a xlink:title=" ">
<path fill="none" stroke="#63b8ff" d="M57.79,-104.55C72.76,-116.8 100.38,-138 127,-151 130.73,-152.82 134.69,-154.51 138.71,-156.06"/>
<polygon fill="#63b8ff" stroke="#63b8ff" points="137.55,-159.36 148.14,-159.43 139.9,-152.77 137.55,-159.36"/>
</a>
</g>
</g>
<!-- Node5 -->
<g id="Node000005" class="node">
<title>Node5</title>
<g id="a_Node000005"><a xlink:href="code__80057C60_8c.html#a1272a6c50cfec9b141d07f72a0e2f2c5" target="_top" xlink:title=" ">
<polygon fill="white" stroke="#666666" points="241,-141.5 131,-141.5 131,-122.5 241,-122.5 241,-141.5"/>
<text text-anchor="middle" x="186" y="-129.5" font-family="Helvetica,sans-Serif" font-size="10.00">init_particle_player</text>
</a>
</g>
</g>
<!-- Node1&#45;&gt;Node5 -->
<g id="edge4_Node000001_Node000005" class="edge">
<title>Node1&#45;&gt;Node5</title>
<g id="a_edge4_Node000001_Node000005"><a xlink:title=" ">
<path fill="none" stroke="#63b8ff" d="M82.17,-104.53C99.56,-109.17 120.68,-114.82 139.25,-119.78"/>
<polygon fill="#63b8ff" stroke="#63b8ff" points="138.41,-123.18 148.97,-122.38 140.21,-116.41 138.41,-123.18"/>
</a>
</g>
</g>
<!-- Node6 -->
<g id="Node000006" class="node">
<title>Node6</title>
<g id="a_Node000006"><a xlink:href="math__util_8c.html#a151b63b8adf9af7e4054b3b84bd226dc" target="_top" xlink:title=" ">
<polygon fill="white" stroke="#666666" points="222,-104.5 150,-104.5 150,-85.5 222,-85.5 222,-104.5"/>
<text text-anchor="middle" x="186" y="-92.5" font-family="Helvetica,sans-Serif" font-size="10.00">random_int</text>
</a>
</g>
</g>
<!-- Node1&#45;&gt;Node6 -->
<g id="edge5_Node000001_Node000006" class="edge">
<title>Node1&#45;&gt;Node6</title>
<g id="a_edge5_Node000001_Node000006"><a xlink:title=" ">
<path fill="none" stroke="#63b8ff" d="M91.08,-95C106.5,-95 123.8,-95 139.31,-95"/>
<polygon fill="#63b8ff" stroke="#63b8ff" points="139.71,-98.5 149.71,-95 139.71,-91.5 139.71,-98.5"/>
</a>
</g>
</g>
<!-- Node8 -->
<g id="Node000008" class="node">
<title>Node8</title>
<g id="a_Node000008"><a xlink:href="code__80057C60_8c.html#a4ae339f479dc4885b0af81962c9963c8" target="_top" xlink:title=" ">
<polygon fill="white" stroke="#666666" points="240.5,-67.5 131.5,-67.5 131.5,-48.5 240.5,-48.5 240.5,-67.5"/>
<text text-anchor="middle" x="186" y="-55.5" font-family="Helvetica,sans-Serif" font-size="10.00">set_particle_colour</text>
</a>
</g>
</g>
<!-- Node1&#45;&gt;Node8 -->
<g id="edge7_Node000001_Node000008" class="edge">
<title>Node1&#45;&gt;Node8</title>
<g id="a_edge7_Node000001_Node000008"><a xlink:title=" ">
<path fill="none" stroke="#63b8ff" d="M82.17,-85.47C99.56,-80.83 120.68,-75.18 139.25,-70.22"/>
<polygon fill="#63b8ff" stroke="#63b8ff" points="140.21,-73.59 148.97,-67.62 138.41,-66.82 140.21,-73.59"/>
</a>
</g>
</g>
<!-- Node9 -->
<g id="Node000009" class="node">
<title>Node9</title>
<g id="a_Node000009"><a xlink:href="code__80057C60_8c.html#a35301423811a1f1a26d5cf4f2031696b" target="_top" xlink:title=" ">
<polygon fill="white" stroke="#666666" points="245,-30 127,-30 127,0 245,0 245,-30"/>
<text text-anchor="start" x="135" y="-18" font-family="Helvetica,sans-Serif" font-size="10.00">set_particle_position</text>
<text text-anchor="middle" x="186" y="-7" font-family="Helvetica,sans-Serif" font-size="10.00">_and_rotation</text>
</a>
</g>
</g>
<!-- Node1&#45;&gt;Node9 -->
<g id="edge8_Node000001_Node000009" class="edge">
<title>Node1&#45;&gt;Node9</title>
<g id="a_edge8_Node000001_Node000009"><a xlink:title=" ">
<path fill="none" stroke="#63b8ff" d="M58.51,-85.4C73.8,-73.49 101.3,-53.04 127,-39 130.01,-37.36 133.15,-35.75 136.35,-34.21"/>
<polygon fill="#63b8ff" stroke="#63b8ff" points="137.85,-37.38 145.46,-30.01 134.92,-31.02 137.85,-37.38"/>
</a>
</g>
</g>
<!-- Node3 -->
<g id="Node000003" class="node">
<title>Node3</title>
<g id="a_Node000003"><a xlink:href="math__util_8c.html#a5eb0d9752bc1557b7f4ae3809352a0eb" target="_top" xlink:title=" ">
<polygon fill="white" stroke="#666666" points="338.5,-196.5 300.5,-196.5 300.5,-177.5 338.5,-177.5 338.5,-196.5"/>
<text text-anchor="middle" x="319.5" y="-184.5" font-family="Helvetica,sans-Serif" font-size="10.00">coss</text>
</a>
</g>
</g>
<!-- Node2&#45;&gt;Node3 -->
<g id="edge2_Node000002_Node000003" class="edge">
<title>Node2&#45;&gt;Node3</title>
<g id="a_edge2_Node000002_Node000003"><a xlink:title=" ">
<path fill="none" stroke="#63b8ff" d="M232.25,-175.19C251.39,-177.81 273.1,-180.79 289.95,-183.09"/>
<polygon fill="#63b8ff" stroke="#63b8ff" points="289.87,-186.61 300.25,-184.5 290.81,-179.68 289.87,-186.61"/>
</a>
</g>
</g>
<!-- Node4 -->
<g id="Node000004" class="node">
<title>Node4</title>
<g id="a_Node000004"><a xlink:href="math__util_8c.html#adcf81d47666b5d86c4a1dbcb06e47faf" target="_top" xlink:title=" ">
<polygon fill="white" stroke="#666666" points="337.5,-159.5 301.5,-159.5 301.5,-140.5 337.5,-140.5 337.5,-159.5"/>
<text text-anchor="middle" x="319.5" y="-147.5" font-family="Helvetica,sans-Serif" font-size="10.00">sins</text>
</a>
</g>
</g>
<!-- Node2&#45;&gt;Node4 -->
<g id="edge3_Node000002_Node000004" class="edge">
<title>Node2&#45;&gt;Node4</title>
<g id="a_edge3_Node000002_Node000004"><a xlink:title=" ">
<path fill="none" stroke="#63b8ff" d="M232.25,-162.46C251.76,-159.64 273.93,-156.44 290.91,-153.99"/>
<polygon fill="#63b8ff" stroke="#63b8ff" points="291.84,-157.39 301.24,-152.49 290.84,-150.46 291.84,-157.39"/>
</a>
</g>
</g>
<!-- Node7 -->
<g id="Node000007" class="node">
<title>Node7</title>
<g id="a_Node000007"><a xlink:href="math__util_8c.html#a062850863585005ad1d0a75d9ff70693" target="_top" xlink:title=" ">
<polygon fill="white" stroke="#666666" points="358,-104.5 281,-104.5 281,-85.5 358,-85.5 358,-104.5"/>
<text text-anchor="middle" x="319.5" y="-92.5" font-family="Helvetica,sans-Serif" font-size="10.00">random_u16</text>
</a>
</g>
</g>
<!-- Node6&#45;&gt;Node7 -->
<g id="edge6_Node000006_Node000007" class="edge">
<title>Node6&#45;&gt;Node7</title>
<g id="a_edge6_Node000006_Node000007"><a xlink:title=" ">
<path fill="none" stroke="#63b8ff" d="M222.24,-95C237.09,-95 254.61,-95 270.61,-95"/>
<polygon fill="#63b8ff" stroke="#63b8ff" points="270.86,-98.5 280.86,-95 270.86,-91.5 270.86,-98.5"/>
</a>
</g>
</g>
</g>
</svg>
