<?xml version="1.0" encoding="UTF-8" standalone="no"?>
<!DOCTYPE svg PUBLIC "-//W3C//DTD SVG 1.1//EN"
 "http://www.w3.org/Graphics/SVG/1.1/DTD/svg11.dtd">
<!-- Generated by graphviz version 2.43.0 (0)
 -->
<!-- Title: func_80080524 Pages: 1 -->
<svg width="399pt" height="306pt"
 viewBox="0.00 0.00 399.00 305.50" xmlns="http://www.w3.org/2000/svg" xmlns:xlink="http://www.w3.org/1999/xlink">
<g id="graph0" class="graph" transform="scale(1 1) rotate(0) translate(4 301.5)">
<title>func_80080524</title>
<polygon fill="white" stroke="transparent" points="-4,4 -4,-301.5 395,-301.5 395,4 -4,4"/>
<!-- Node1 -->
<g id="node1" class="node">
<title>Node1</title>
<g id="a_node1"><a xlink:title=" ">
<polygon fill="#bfbfbf" stroke="black" points="0,-145 0,-164 91,-164 91,-145 0,-145"/>
<text text-anchor="middle" x="45.5" y="-152" font-family="Helvetica,sans-Serif" font-size="10.00">func_80080524</text>
</a>
</g>
</g>
<!-- Node2 -->
<g id="node2" class="node">
<title>Node2</title>
<g id="a_node2"><a xlink:href="code__80071F00_8c.html#a2c88cc32dff07c6af5fe74d00b9fa279" target="_top" xlink:title=" ">
<polygon fill="white" stroke="black" points="137.5,-278 137.5,-297 229.5,-297 229.5,-278 137.5,-278"/>
<text text-anchor="middle" x="183.5" y="-285" font-family="Helvetica,sans-Serif" font-size="10.00">func_800722A4</text>
</a>
</g>
</g>
<!-- Node1&#45;&gt;Node2 -->
<g id="edge1" class="edge">
<title>Node1&#45;&gt;Node2</title>
<path fill="none" stroke="midnightblue" d="M50.8,-164.31C60.9,-186.21 88.22,-239.45 127,-268.5 129.49,-270.36 132.17,-272.05 134.97,-273.58"/>
<polygon fill="midnightblue" stroke="midnightblue" points="133.65,-276.83 144.19,-277.94 136.64,-270.5 133.65,-276.83"/>
</g>
<!-- Node3 -->
<g id="node3" class="node">
<title>Node3</title>
<g id="a_node3"><a xlink:href="code__80071F00_8c.html#a91e6ccbfa10d972106998ad26b271c17" target="_top" xlink:title=" ">
<polygon fill="white" stroke="black" points="138,-202 138,-221 229,-221 229,-202 138,-202"/>
<text text-anchor="middle" x="183.5" y="-209" font-family="Helvetica,sans-Serif" font-size="10.00">func_80072488</text>
</a>
</g>
</g>
<!-- Node1&#45;&gt;Node3 -->
<g id="edge2" class="edge">
<title>Node1&#45;&gt;Node3</title>
<path fill="none" stroke="midnightblue" d="M65.1,-164.01C81.25,-172.08 105.38,-183.73 127,-192.5 132.13,-194.58 137.59,-196.64 143,-198.58"/>
<polygon fill="midnightblue" stroke="midnightblue" points="142.01,-201.95 152.61,-201.95 144.33,-195.34 142.01,-201.95"/>
</g>
<!-- Node6 -->
<g id="node6" class="node">
<title>Node6</title>
<g id="a_node6"><a xlink:href="code__80086E70_8c.html#ad844d2fe27c3f0bb5979715fae72559a" target="_top" xlink:title=" ">
<polygon fill="white" stroke="black" points="138,-240 138,-259 229,-259 229,-240 138,-240"/>
<text text-anchor="middle" x="183.5" y="-247" font-family="Helvetica,sans-Serif" font-size="10.00">func_80086E70</text>
</a>
</g>
</g>
<!-- Node1&#45;&gt;Node6 -->
<g id="edge5" class="edge">
<title>Node1&#45;&gt;Node6</title>
<path fill="none" stroke="midnightblue" d="M54.19,-164.04C67.46,-179.93 96.23,-211.92 127,-230.5 130.39,-232.54 134.02,-234.41 137.75,-236.09"/>
<polygon fill="midnightblue" stroke="midnightblue" points="136.56,-239.38 147.14,-239.93 139.21,-232.91 136.56,-239.38"/>
</g>
<!-- Node7 -->
<g id="node7" class="node">
<title>Node7</title>
<g id="a_node7"><a xlink:href="code__80086E70_8c.html#aaec540b89607cbfe79478fa9a3be642e" target="_top" xlink:title=" ">
<polygon fill="white" stroke="black" points="137.5,-164 137.5,-183 229.5,-183 229.5,-164 137.5,-164"/>
<text text-anchor="middle" x="183.5" y="-171" font-family="Helvetica,sans-Serif" font-size="10.00">func_8008B80C</text>
</a>
</g>
</g>
<!-- Node1&#45;&gt;Node7 -->
<g id="edge7" class="edge">
<title>Node1&#45;&gt;Node7</title>
<path fill="none" stroke="midnightblue" d="M91.03,-160.72C102.65,-162.34 115.31,-164.11 127.41,-165.8"/>
<polygon fill="midnightblue" stroke="midnightblue" points="127.01,-169.28 137.4,-167.2 127.98,-162.35 127.01,-169.28"/>
</g>
<!-- Node8 -->
<g id="node8" class="node">
<title>Node8</title>
<g id="a_node8"><a xlink:href="code__80086E70_8c.html#adeb6debba4f90a8bfdcba5d19d78bf6a" target="_top" xlink:title=" ">
<polygon fill="white" stroke="black" points="137.5,-126 137.5,-145 229.5,-145 229.5,-126 137.5,-126"/>
<text text-anchor="middle" x="183.5" y="-133" font-family="Helvetica,sans-Serif" font-size="10.00">func_8008B888</text>
</a>
</g>
</g>
<!-- Node1&#45;&gt;Node8 -->
<g id="edge8" class="edge">
<title>Node1&#45;&gt;Node8</title>
<path fill="none" stroke="midnightblue" d="M91.03,-148.28C102.65,-146.66 115.31,-144.89 127.41,-143.2"/>
<polygon fill="midnightblue" stroke="midnightblue" points="127.98,-146.65 137.4,-141.8 127.01,-139.72 127.98,-146.65"/>
</g>
<!-- Node9 -->
<g id="node9" class="node">
<title>Node9</title>
<g id="a_node9"><a xlink:href="code__80086E70_8c.html#af02c0c488214c8679a92743da1214311" target="_top" xlink:title=" ">
<polygon fill="white" stroke="black" points="137,-88 137,-107 230,-107 230,-88 137,-88"/>
<text text-anchor="middle" x="183.5" y="-95" font-family="Helvetica,sans-Serif" font-size="10.00">func_8008B8BC</text>
</a>
</g>
</g>
<!-- Node1&#45;&gt;Node9 -->
<g id="edge9" class="edge">
<title>Node1&#45;&gt;Node9</title>
<path fill="none" stroke="midnightblue" d="M65.1,-144.99C81.25,-136.92 105.38,-125.27 127,-116.5 132.13,-114.42 137.59,-112.36 143,-110.42"/>
<polygon fill="midnightblue" stroke="midnightblue" points="144.33,-113.66 152.61,-107.05 142.01,-107.05 144.33,-113.66"/>
</g>
<!-- Node10 -->
<g id="node10" class="node">
<title>Node10</title>
<g id="a_node10"><a xlink:href="code__80071F00_8c.html#aaac380231c672b17a8fda8b451572c4c" target="_top" xlink:title=" ">
<polygon fill="white" stroke="black" points="129.5,-50 129.5,-69 237.5,-69 237.5,-50 129.5,-50"/>
<text text-anchor="middle" x="183.5" y="-57" font-family="Helvetica,sans-Serif" font-size="10.00">init_texture_object</text>
</a>
</g>
</g>
<!-- Node1&#45;&gt;Node10 -->
<g id="edge10" class="edge">
<title>Node1&#45;&gt;Node10</title>
<path fill="none" stroke="midnightblue" d="M54.19,-144.96C67.46,-129.07 96.23,-97.08 127,-78.5 130.39,-76.46 134.02,-74.59 137.75,-72.91"/>
<polygon fill="midnightblue" stroke="midnightblue" points="139.21,-76.09 147.14,-69.07 136.56,-69.62 139.21,-76.09"/>
</g>
<!-- Node11 -->
<g id="node11" class="node">
<title>Node11</title>
<g id="a_node11"><a xlink:href="code__80071F00_8c.html#a946b33c1ed166b19b04e4528c3641b9a" target="_top" xlink:title=" ">
<polygon fill="white" stroke="black" points="127,-0.5 127,-30.5 240,-30.5 240,-0.5 127,-0.5"/>
<text text-anchor="start" x="135" y="-18.5" font-family="Helvetica,sans-Serif" font-size="10.00">set_object_flag_unk</text>
<text text-anchor="middle" x="183.5" y="-7.5" font-family="Helvetica,sans-Serif" font-size="10.00">_054_true</text>
</a>
</g>
</g>
<!-- Node1&#45;&gt;Node11 -->
<g id="edge11" class="edge">
<title>Node1&#45;&gt;Node11</title>
<path fill="none" stroke="midnightblue" d="M51,-144.95C61.51,-123.57 89.61,-71.33 127,-40.5 129,-38.85 131.12,-37.29 133.33,-35.82"/>
<polygon fill="midnightblue" stroke="midnightblue" points="135.37,-38.67 142.17,-30.54 131.79,-32.66 135.37,-38.67"/>
</g>
<!-- Node4 -->
<g id="node4" class="node">
<title>Node4</title>
<g id="a_node4"><a xlink:href="code__80071F00_8c.html#a9d0d6fe8e02dc86bf4f9f8c8214ee326" target="_top" xlink:title=" ">
<polygon fill="white" stroke="black" points="277,-234.5 277,-264.5 390,-264.5 390,-234.5 277,-234.5"/>
<text text-anchor="start" x="285" y="-252.5" font-family="Helvetica,sans-Serif" font-size="10.00">set_object_flag_unk</text>
<text text-anchor="middle" x="333.5" y="-241.5" font-family="Helvetica,sans-Serif" font-size="10.00">_054_false</text>
</a>
</g>
</g>
<!-- Node3&#45;&gt;Node4 -->
<g id="edge3" class="edge">
<title>Node3&#45;&gt;Node4</title>
<path fill="none" stroke="midnightblue" d="M221.85,-221.09C235.54,-224.61 251.48,-228.7 266.93,-232.66"/>
<polygon fill="midnightblue" stroke="midnightblue" points="266.42,-236.15 276.98,-235.24 268.16,-229.37 266.42,-236.15"/>
</g>
<!-- Node5 -->
<g id="node5" class="node">
<title>Node5</title>
<g id="a_node5"><a xlink:href="code__80071F00_8c.html#a4b4f00a7df0f9bc44914cd922c3cd51b" target="_top" xlink:title=" ">
<polygon fill="white" stroke="black" points="276,-196 276,-215 391,-215 391,-196 276,-196"/>
<text text-anchor="middle" x="333.5" y="-203" font-family="Helvetica,sans-Serif" font-size="10.00">set_object_unk_0CB</text>
</a>
</g>
</g>
<!-- Node3&#45;&gt;Node5 -->
<g id="edge4" class="edge">
<title>Node3&#45;&gt;Node5</title>
<path fill="none" stroke="midnightblue" d="M229.31,-209.68C240.74,-209.22 253.28,-208.71 265.56,-208.21"/>
<polygon fill="midnightblue" stroke="midnightblue" points="265.93,-211.7 275.78,-207.8 265.65,-204.71 265.93,-211.7"/>
</g>
<!-- Node6&#45;&gt;Node4 -->
<g id="edge6" class="edge">
<title>Node6&#45;&gt;Node4</title>
<path fill="none" stroke="midnightblue" d="M229.31,-249.5C241.12,-249.5 254.12,-249.5 266.79,-249.5"/>
<polygon fill="midnightblue" stroke="midnightblue" points="266.85,-253 276.85,-249.5 266.85,-246 266.85,-253"/>
</g>
</g>
</svg>
