<?xml version="1.0" encoding="UTF-8" standalone="no"?>
<!DOCTYPE svg PUBLIC "-//W3C//DTD SVG 1.1//EN"
 "http://www.w3.org/Graphics/SVG/1.1/DTD/svg11.dtd">
<!-- Generated by graphviz version 2.43.0 (0)
 -->
<!-- Title: func_80085534 Pages: 1 -->
<svg width="547pt" height="241pt"
 viewBox="0.00 0.00 547.00 241.00" xmlns="http://www.w3.org/2000/svg" xmlns:xlink="http://www.w3.org/1999/xlink">
<g id="graph0" class="graph" transform="scale(1 1) rotate(0) translate(4 237)">
<title>func_80085534</title>
<polygon fill="white" stroke="transparent" points="-4,4 -4,-237 543,-237 543,4 -4,4"/>
<!-- Node1 -->
<g id="node1" class="node">
<title>Node1</title>
<g id="a_node1"><a xlink:title=" ">
<polygon fill="#bfbfbf" stroke="black" points="0,-112.5 0,-131.5 91,-131.5 91,-112.5 0,-112.5"/>
<text text-anchor="middle" x="45.5" y="-119.5" font-family="Helvetica,sans-Serif" font-size="10.00">func_80085534</text>
</a>
</g>
</g>
<!-- Node2 -->
<g id="node2" class="node">
<title>Node2</title>
<g id="a_node2"><a xlink:href="code__80057C60_8c.html#afb9b5f8428228ee21731d66647fa02a2" target="_top" xlink:title=" ">
<polygon fill="white" stroke="black" points="127,-207.5 127,-226.5 230,-226.5 230,-207.5 127,-207.5"/>
<text text-anchor="middle" x="178.5" y="-214.5" font-family="Helvetica,sans-Serif" font-size="10.00">f32_step_towards</text>
</a>
</g>
</g>
<!-- Node1&#45;&gt;Node2 -->
<g id="edge1" class="edge">
<title>Node1&#45;&gt;Node2</title>
<path fill="none" stroke="midnightblue" d="M55.69,-131.69C69.95,-146.32 98.69,-174.32 127,-193 132.48,-196.61 138.58,-199.99 144.6,-203.01"/>
<polygon fill="midnightblue" stroke="midnightblue" points="143.36,-206.29 153.89,-207.43 146.37,-199.97 143.36,-206.29"/>
</g>
<!-- Node3 -->
<g id="node3" class="node">
<title>Node3</title>
<g id="a_node3"><a xlink:href="code__80086E70_8c.html#a6eea48094f49bb346ce1170842d955b2" target="_top" xlink:title=" ">
<polygon fill="white" stroke="black" points="282,-213.5 282,-232.5 374,-232.5 374,-213.5 282,-213.5"/>
<text text-anchor="middle" x="328" y="-220.5" font-family="Helvetica,sans-Serif" font-size="10.00">func_80086FD4</text>
</a>
</g>
</g>
<!-- Node1&#45;&gt;Node3 -->
<g id="edge2" class="edge">
<title>Node1&#45;&gt;Node3</title>
<path fill="none" stroke="midnightblue" d="M65.05,-131.64C81.17,-139.8 105.27,-151.49 127,-160 179.3,-180.47 241.2,-199.15 282.14,-210.76"/>
<polygon fill="midnightblue" stroke="midnightblue" points="281.24,-214.15 291.82,-213.49 283.14,-207.41 281.24,-214.15"/>
</g>
<!-- Node5 -->
<g id="node5" class="node">
<title>Node5</title>
<g id="a_node5"><a xlink:href="code__80086E70_8c.html#ae48e4fca508037771141413e29c2b764" target="_top" xlink:title=" ">
<polygon fill="white" stroke="black" points="282,-0.5 282,-19.5 374,-19.5 374,-0.5 282,-0.5"/>
<text text-anchor="middle" x="328" y="-7.5" font-family="Helvetica,sans-Serif" font-size="10.00">func_8008701C</text>
</a>
</g>
</g>
<!-- Node1&#45;&gt;Node5 -->
<g id="edge4" class="edge">
<title>Node1&#45;&gt;Node5</title>
<path fill="none" stroke="midnightblue" d="M65.48,-112.46C81.66,-104.47 105.62,-92.97 127,-84 171.99,-65.12 184.24,-62.93 230,-46 250.42,-38.44 273.25,-29.97 291.63,-23.15"/>
<polygon fill="midnightblue" stroke="midnightblue" points="292.91,-26.4 301.07,-19.64 290.47,-19.84 292.91,-26.4"/>
</g>
<!-- Node6 -->
<g id="node6" class="node">
<title>Node6</title>
<g id="a_node6"><a xlink:href="code__80086E70_8c.html#a64bb471d4676a52cdee8aa47e84880dd" target="_top" xlink:title=" ">
<polygon fill="white" stroke="black" points="133,-93.5 133,-112.5 224,-112.5 224,-93.5 133,-93.5"/>
<text text-anchor="middle" x="178.5" y="-100.5" font-family="Helvetica,sans-Serif" font-size="10.00">func_80087060</text>
</a>
</g>
</g>
<!-- Node1&#45;&gt;Node6 -->
<g id="edge6" class="edge">
<title>Node1&#45;&gt;Node6</title>
<path fill="none" stroke="midnightblue" d="M91.22,-115.51C101.44,-114.03 112.42,-112.44 123,-110.9"/>
<polygon fill="midnightblue" stroke="midnightblue" points="123.59,-114.36 132.99,-109.46 122.59,-107.43 123.59,-114.36"/>
</g>
<!-- Node9 -->
<g id="node9" class="node">
<title>Node9</title>
<g id="a_node9"><a xlink:href="code__80086E70_8c.html#a56f0505e98e37eda7af759554a41feee" target="_top" xlink:title=" ">
<polygon fill="white" stroke="black" points="132.5,-131.5 132.5,-150.5 224.5,-150.5 224.5,-131.5 132.5,-131.5"/>
<text text-anchor="middle" x="178.5" y="-138.5" font-family="Helvetica,sans-Serif" font-size="10.00">func_800871AC</text>
</a>
</g>
</g>
<!-- Node1&#45;&gt;Node9 -->
<g id="edge10" class="edge">
<title>Node1&#45;&gt;Node9</title>
<path fill="none" stroke="midnightblue" d="M91.22,-128.49C101.11,-129.92 111.71,-131.46 121.98,-132.95"/>
<polygon fill="midnightblue" stroke="midnightblue" points="121.7,-136.44 132.09,-134.41 122.7,-129.52 121.7,-136.44"/>
</g>
<!-- Node10 -->
<g id="node10" class="node">
<title>Node10</title>
<g id="a_node10"><a xlink:href="code__80086E70_8c.html#a7c51fd6f31d9ba0bc2b51acfee9bdcac" target="_top" xlink:title=" ">
<polygon fill="white" stroke="black" points="132.5,-17.5 132.5,-36.5 224.5,-36.5 224.5,-17.5 132.5,-17.5"/>
<text text-anchor="middle" x="178.5" y="-24.5" font-family="Helvetica,sans-Serif" font-size="10.00">func_800877C4</text>
</a>
</g>
</g>
<!-- Node1&#45;&gt;Node10 -->
<g id="edge15" class="edge">
<title>Node1&#45;&gt;Node10</title>
<path fill="none" stroke="midnightblue" d="M55.69,-112.31C69.95,-97.68 98.69,-69.68 127,-51 132.48,-47.39 138.58,-44.01 144.6,-40.99"/>
<polygon fill="midnightblue" stroke="midnightblue" points="146.37,-44.03 153.89,-36.57 143.36,-37.71 146.37,-44.03"/>
</g>
<!-- Node4 -->
<g id="node4" class="node">
<title>Node4</title>
<g id="a_node4"><a xlink:href="code__80071F00_8c.html#a9d0d6fe8e02dc86bf4f9f8c8214ee326" target="_top" xlink:title=" ">
<polygon fill="white" stroke="black" points="426,-101 426,-131 539,-131 539,-101 426,-101"/>
<text text-anchor="start" x="434" y="-119" font-family="Helvetica,sans-Serif" font-size="10.00">set_object_flag_unk</text>
<text text-anchor="middle" x="482.5" y="-108" font-family="Helvetica,sans-Serif" font-size="10.00">_054_false</text>
</a>
</g>
</g>
<!-- Node3&#45;&gt;Node4 -->
<g id="edge3" class="edge">
<title>Node3&#45;&gt;Node4</title>
<path fill="none" stroke="midnightblue" d="M359.51,-213.47C369.59,-209.68 380.62,-204.82 390,-199 417.1,-182.17 443.6,-156.87 461.05,-138.63"/>
<polygon fill="midnightblue" stroke="midnightblue" points="463.65,-140.98 467.95,-131.29 458.55,-136.18 463.65,-140.98"/>
</g>
<!-- Node5&#45;&gt;Node4 -->
<g id="edge5" class="edge">
<title>Node5&#45;&gt;Node4</title>
<path fill="none" stroke="midnightblue" d="M359.49,-19.57C369.57,-23.35 380.6,-28.2 390,-34 417,-50.66 443.52,-75.64 461,-93.65"/>
<polygon fill="midnightblue" stroke="midnightblue" points="458.47,-96.08 467.91,-100.9 463.54,-91.25 458.47,-96.08"/>
</g>
<!-- Node6&#45;&gt;Node4 -->
<g id="edge8" class="edge">
<title>Node6&#45;&gt;Node4</title>
<path fill="none" stroke="midnightblue" d="M199.92,-93.41C221.1,-83.65 252.92,-69.61 266,-67 320.04,-56.2 336.55,-53.59 390,-67 412.18,-72.56 434.85,-84.65 452.08,-95.43"/>
<polygon fill="midnightblue" stroke="midnightblue" points="450.26,-98.42 460.56,-100.9 454.05,-92.54 450.26,-98.42"/>
</g>
<!-- Node7 -->
<g id="node7" class="node">
<title>Node7</title>
<g id="a_node7"><a xlink:href="code__80071F00_8c.html#ae2e10a969a280fa69bd2db004aa5ae3b" target="_top" xlink:title=" ">
<polygon fill="white" stroke="black" points="266,-126 266,-156 390,-156 390,-126 266,-126"/>
<text text-anchor="start" x="274" y="-144" font-family="Helvetica,sans-Serif" font-size="10.00">is_obj_index_flag_unk</text>
<text text-anchor="middle" x="328" y="-133" font-family="Helvetica,sans-Serif" font-size="10.00">_054_inactive</text>
</a>
</g>
</g>
<!-- Node6&#45;&gt;Node7 -->
<g id="edge7" class="edge">
<title>Node6&#45;&gt;Node7</title>
<path fill="none" stroke="midnightblue" d="M216.72,-112.59C229.48,-115.88 244.19,-119.67 258.62,-123.38"/>
<polygon fill="midnightblue" stroke="midnightblue" points="257.99,-126.83 268.55,-125.94 259.73,-120.06 257.99,-126.83"/>
</g>
<!-- Node8 -->
<g id="node8" class="node">
<title>Node8</title>
<g id="a_node8"><a xlink:href="code__80071F00_8c.html#a946b33c1ed166b19b04e4528c3641b9a" target="_top" xlink:title=" ">
<polygon fill="white" stroke="black" points="271.5,-77 271.5,-107 384.5,-107 384.5,-77 271.5,-77"/>
<text text-anchor="start" x="279.5" y="-95" font-family="Helvetica,sans-Serif" font-size="10.00">set_object_flag_unk</text>
<text text-anchor="middle" x="328" y="-84" font-family="Helvetica,sans-Serif" font-size="10.00">_054_true</text>
</a>
</g>
</g>
<!-- Node6&#45;&gt;Node8 -->
<g id="edge9" class="edge">
<title>Node6&#45;&gt;Node8</title>
<path fill="none" stroke="midnightblue" d="M224.16,-99.67C235.86,-98.8 248.74,-97.84 261.3,-96.9"/>
<polygon fill="midnightblue" stroke="midnightblue" points="261.56,-100.39 271.27,-96.16 261.04,-93.41 261.56,-100.39"/>
</g>
<!-- Node9&#45;&gt;Node3 -->
<g id="edge11" class="edge">
<title>Node9&#45;&gt;Node3</title>
<path fill="none" stroke="midnightblue" d="M203.47,-150.53C212.15,-154.46 221.83,-159.41 230,-165 248.16,-177.43 247.42,-187.2 266,-199 272.34,-203.03 279.47,-206.57 286.55,-209.62"/>
<polygon fill="midnightblue" stroke="midnightblue" points="285.52,-212.98 296.11,-213.46 288.13,-206.48 285.52,-212.98"/>
</g>
<!-- Node9&#45;&gt;Node4 -->
<g id="edge13" class="edge">
<title>Node9&#45;&gt;Node4</title>
<path fill="none" stroke="midnightblue" d="M206.76,-150.61C223.59,-156.03 245.77,-162.25 266,-165 320.61,-172.44 336.55,-178.41 390,-165 412.18,-159.44 434.85,-147.35 452.08,-136.57"/>
<polygon fill="midnightblue" stroke="midnightblue" points="454.05,-139.46 460.56,-131.1 450.26,-133.58 454.05,-139.46"/>
</g>
<!-- Node9&#45;&gt;Node7 -->
<g id="edge12" class="edge">
<title>Node9&#45;&gt;Node7</title>
<path fill="none" stroke="midnightblue" d="M224.56,-141C234.44,-141 245.15,-141 255.78,-141"/>
<polygon fill="midnightblue" stroke="midnightblue" points="255.92,-144.5 265.92,-141 255.92,-137.5 255.92,-144.5"/>
</g>
<!-- Node9&#45;&gt;Node8 -->
<g id="edge14" class="edge">
<title>Node9&#45;&gt;Node8</title>
<path fill="none" stroke="midnightblue" d="M208.29,-131.44C226.39,-125.42 250.34,-117.47 271.98,-110.28"/>
<polygon fill="midnightblue" stroke="midnightblue" points="273.35,-113.51 281.74,-107.04 271.14,-106.87 273.35,-113.51"/>
</g>
</g>
</svg>
