<?xml version="1.0" encoding="UTF-8" standalone="no"?>
<!DOCTYPE svg PUBLIC "-//W3C//DTD SVG 1.1//EN"
 "http://www.w3.org/Graphics/SVG/1.1/DTD/svg11.dtd">
<!-- Generated by graphviz version 2.43.0 (0)
 -->
<!-- Title: func_80081AFC Pages: 1 -->
<svg width="539pt" height="698pt"
 viewBox="0.00 0.00 539.00 698.00" xmlns="http://www.w3.org/2000/svg" xmlns:xlink="http://www.w3.org/1999/xlink">
<g id="graph0" class="graph" transform="scale(1 1) rotate(0) translate(4 694)">
<title>func_80081AFC</title>
<polygon fill="white" stroke="transparent" points="-4,4 -4,-694 535,-694 535,4 -4,4"/>
<!-- Node1 -->
<g id="node1" class="node">
<title>Node1</title>
<g id="a_node1"><a xlink:title=" ">
<polygon fill="#bfbfbf" stroke="black" points="0,-383.5 0,-402.5 92,-402.5 92,-383.5 0,-383.5"/>
<text text-anchor="middle" x="46" y="-390.5" font-family="Helvetica,sans-Serif" font-size="10.00">func_80081AFC</text>
</a>
</g>
</g>
<!-- Node2 -->
<g id="node2" class="node">
<title>Node2</title>
<g id="a_node2"><a xlink:href="code__80071F00_8c.html#a5978ef1e35515c275f92eb79b8601d77" target="_top" xlink:title=" ">
<polygon fill="white" stroke="black" points="128.5,-480.5 128.5,-499.5 219.5,-499.5 219.5,-480.5 128.5,-480.5"/>
<text text-anchor="middle" x="174" y="-487.5" font-family="Helvetica,sans-Serif" font-size="10.00">func_80072428</text>
</a>
</g>
</g>
<!-- Node1&#45;&gt;Node2 -->
<g id="edge1" class="edge">
<title>Node1&#45;&gt;Node2</title>
<path fill="none" stroke="midnightblue" d="M59.54,-402.66C81.24,-419.36 125.99,-453.81 152.34,-474.09"/>
<polygon fill="midnightblue" stroke="midnightblue" points="150.45,-477.06 160.51,-480.38 154.72,-471.51 150.45,-477.06"/>
</g>
<!-- Node4 -->
<g id="node4" class="node">
<title>Node4</title>
<g id="a_node4"><a xlink:href="code__80071F00_8c.html#a9d0d6fe8e02dc86bf4f9f8c8214ee326" target="_top" xlink:title=" ">
<polygon fill="white" stroke="black" points="417,-570 417,-600 530,-600 530,-570 417,-570"/>
<text text-anchor="start" x="425" y="-588" font-family="Helvetica,sans-Serif" font-size="10.00">set_object_flag_unk</text>
<text text-anchor="middle" x="473.5" y="-577" font-family="Helvetica,sans-Serif" font-size="10.00">_054_false</text>
</a>
</g>
</g>
<!-- Node1&#45;&gt;Node4 -->
<g id="edge35" class="edge">
<title>Node1&#45;&gt;Node4</title>
<path fill="none" stroke="midnightblue" d="M49.75,-402.78C57.74,-429.65 83.25,-505.64 128,-552 173.18,-598.8 193.02,-606.7 256,-623 309.35,-636.81 325.93,-633.67 380,-623 398.65,-619.32 418.27,-611.83 434.62,-604.47"/>
<polygon fill="midnightblue" stroke="midnightblue" points="436.25,-607.58 443.84,-600.18 433.29,-601.23 436.25,-607.58"/>
</g>
<!-- Node6 -->
<g id="node6" class="node">
<title>Node6</title>
<g id="a_node6"><a xlink:href="code__80071F00_8c.html#a91e6ccbfa10d972106998ad26b271c17" target="_top" xlink:title=" ">
<polygon fill="white" stroke="black" points="272.5,-354.5 272.5,-373.5 363.5,-373.5 363.5,-354.5 272.5,-354.5"/>
<text text-anchor="middle" x="318" y="-361.5" font-family="Helvetica,sans-Serif" font-size="10.00">func_80072488</text>
</a>
</g>
</g>
<!-- Node1&#45;&gt;Node6 -->
<g id="edge5" class="edge">
<title>Node1&#45;&gt;Node6</title>
<path fill="none" stroke="midnightblue" d="M92.19,-388.15C138.96,-383.12 212.05,-375.27 262.11,-369.9"/>
<polygon fill="midnightblue" stroke="midnightblue" points="262.54,-373.37 272.11,-368.82 261.79,-366.41 262.54,-373.37"/>
</g>
<!-- Node7 -->
<g id="node7" class="node">
<title>Node7</title>
<g id="a_node7"><a xlink:href="code__80071F00_8c.html#a6433786e30fbe8c3dc83f83c9f2c35f9" target="_top" xlink:title=" ">
<polygon fill="white" stroke="black" points="272,-594.5 272,-613.5 364,-613.5 364,-594.5 272,-594.5"/>
<text text-anchor="middle" x="318" y="-601.5" font-family="Helvetica,sans-Serif" font-size="10.00">func_800726CC</text>
</a>
</g>
</g>
<!-- Node1&#45;&gt;Node7 -->
<g id="edge8" class="edge">
<title>Node1&#45;&gt;Node7</title>
<path fill="none" stroke="midnightblue" d="M51.93,-402.74C63.11,-424.09 92.19,-475.73 128,-509 176.48,-554.03 195.56,-558.09 256,-585 261,-587.23 266.35,-589.3 271.71,-591.2"/>
<polygon fill="midnightblue" stroke="midnightblue" points="270.73,-594.56 281.32,-594.42 272.95,-587.93 270.73,-594.56"/>
</g>
<!-- Node8 -->
<g id="node8" class="node">
<title>Node8</title>
<g id="a_node8"><a xlink:href="code__80071F00_8c.html#a5ac10bdf02fa5f66183ce0da2f55a41d" target="_top" xlink:title=" ">
<polygon fill="white" stroke="black" points="128.5,-421.5 128.5,-440.5 219.5,-440.5 219.5,-421.5 128.5,-421.5"/>
<text text-anchor="middle" x="174" y="-428.5" font-family="Helvetica,sans-Serif" font-size="10.00">func_80072E54</text>
</a>
</g>
</g>
<!-- Node1&#45;&gt;Node8 -->
<g id="edge11" class="edge">
<title>Node1&#45;&gt;Node8</title>
<path fill="none" stroke="midnightblue" d="M78.8,-402.59C94.76,-407.4 114.31,-413.3 131.45,-418.47"/>
<polygon fill="midnightblue" stroke="midnightblue" points="130.63,-421.88 141.22,-421.41 132.65,-415.18 130.63,-421.88"/>
</g>
<!-- Node10 -->
<g id="node10" class="node">
<title>Node10</title>
<g id="a_node10"><a xlink:href="code__80071F00_8c.html#a946b33c1ed166b19b04e4528c3641b9a" target="_top" xlink:title=" ">
<polygon fill="white" stroke="black" points="261.5,-305 261.5,-335 374.5,-335 374.5,-305 261.5,-305"/>
<text text-anchor="start" x="269.5" y="-323" font-family="Helvetica,sans-Serif" font-size="10.00">set_object_flag_unk</text>
<text text-anchor="middle" x="318" y="-312" font-family="Helvetica,sans-Serif" font-size="10.00">_054_true</text>
</a>
</g>
</g>
<!-- Node1&#45;&gt;Node10 -->
<g id="edge36" class="edge">
<title>Node1&#45;&gt;Node10</title>
<path fill="none" stroke="midnightblue" d="M56.97,-383.26C71.31,-369.93 99.24,-346.46 128,-336 167.18,-321.75 213.83,-317.68 250.98,-317.21"/>
<polygon fill="midnightblue" stroke="midnightblue" points="251.21,-320.71 261.19,-317.17 251.18,-313.71 251.21,-320.71"/>
</g>
<!-- Node11 -->
<g id="node11" class="node">
<title>Node11</title>
<g id="a_node11"><a xlink:href="code__80071F00_8c.html#ab4348365b7e22b355e8aec1eb6f6dd9f" target="_top" xlink:title=" ">
<polygon fill="white" stroke="black" points="128.5,-345.5 128.5,-364.5 219.5,-364.5 219.5,-345.5 128.5,-345.5"/>
<text text-anchor="middle" x="174" y="-352.5" font-family="Helvetica,sans-Serif" font-size="10.00">func_80073514</text>
</a>
</g>
</g>
<!-- Node1&#45;&gt;Node11 -->
<g id="edge17" class="edge">
<title>Node1&#45;&gt;Node11</title>
<path fill="none" stroke="midnightblue" d="M78.8,-383.41C94.76,-378.6 114.31,-372.7 131.45,-367.53"/>
<polygon fill="midnightblue" stroke="midnightblue" points="132.65,-370.82 141.22,-364.59 130.63,-364.12 132.65,-370.82"/>
</g>
<!-- Node12 -->
<g id="node12" class="node">
<title>Node12</title>
<g id="a_node12"><a xlink:href="code__80071F00_8c.html#adb8fa7d5ecadc9f55623553c7b6c0d53" target="_top" xlink:title=" ">
<polygon fill="white" stroke="black" points="128,-114.5 128,-133.5 220,-133.5 220,-114.5 128,-114.5"/>
<text text-anchor="middle" x="174" y="-121.5" font-family="Helvetica,sans-Serif" font-size="10.00">func_8008153C</text>
</a>
</g>
</g>
<!-- Node1&#45;&gt;Node12 -->
<g id="edge18" class="edge">
<title>Node1&#45;&gt;Node12</title>
<path fill="none" stroke="midnightblue" d="M51.48,-383.43C69.81,-344.29 139.25,-196.06 164.09,-143.02"/>
<polygon fill="midnightblue" stroke="midnightblue" points="167.37,-144.28 168.44,-133.74 161.03,-141.31 167.37,-144.28"/>
</g>
<!-- Node16 -->
<g id="node16" class="node">
<title>Node16</title>
<g id="a_node16"><a xlink:href="code__80071F00_8c.html#aacc9b0d60613f0a2c7502f857146f67a" target="_top" xlink:title=" ">
<polygon fill="white" stroke="black" points="128.5,-266.5 128.5,-285.5 219.5,-285.5 219.5,-266.5 128.5,-266.5"/>
<text text-anchor="middle" x="174" y="-273.5" font-family="Helvetica,sans-Serif" font-size="10.00">func_80081848</text>
</a>
</g>
</g>
<!-- Node1&#45;&gt;Node16 -->
<g id="edge23" class="edge">
<title>Node1&#45;&gt;Node16</title>
<path fill="none" stroke="midnightblue" d="M54.02,-383.48C67.18,-366.06 97.01,-328.53 128,-303 133.26,-298.67 139.29,-294.56 145.19,-290.92"/>
<polygon fill="midnightblue" stroke="midnightblue" points="147.37,-293.69 154.22,-285.61 143.83,-287.66 147.37,-293.69"/>
</g>
<!-- Node21 -->
<g id="node21" class="node">
<title>Node21</title>
<g id="a_node21"><a xlink:href="code__80086E70_8c.html#a7abe2cf99895b2c65aabbcf5fc465b67" target="_top" xlink:title=" ">
<polygon fill="white" stroke="black" points="128,-670.5 128,-689.5 220,-689.5 220,-670.5 128,-670.5"/>
<text text-anchor="middle" x="174" y="-677.5" font-family="Helvetica,sans-Serif" font-size="10.00">func_80086EAC</text>
</a>
</g>
</g>
<!-- Node1&#45;&gt;Node21 -->
<g id="edge30" class="edge">
<title>Node1&#45;&gt;Node21</title>
<path fill="none" stroke="midnightblue" d="M47.4,-402.58C49.42,-439.58 61.26,-575.11 128,-656 130.79,-659.38 134.18,-662.35 137.84,-664.94"/>
<polygon fill="midnightblue" stroke="midnightblue" points="136.34,-668.13 146.7,-670.32 139.97,-662.14 136.34,-668.13"/>
</g>
<!-- Node22 -->
<g id="node22" class="node">
<title>Node22</title>
<g id="a_node22"><a xlink:href="external_8c.html#acb60983213d09ee795e80ca3c8b5975e" target="_top" xlink:title=" ">
<polygon fill="white" stroke="black" points="128,-38.5 128,-57.5 220,-57.5 220,-38.5 128,-38.5"/>
<text text-anchor="middle" x="174" y="-45.5" font-family="Helvetica,sans-Serif" font-size="10.00">func_800C98B8</text>
</a>
</g>
</g>
<!-- Node1&#45;&gt;Node22 -->
<g id="edge32" class="edge">
<title>Node1&#45;&gt;Node22</title>
<path fill="none" stroke="midnightblue" d="M48.31,-383.3C53.69,-345.7 76.24,-206.58 128,-105 135.48,-90.32 147.05,-75.77 156.59,-65.05"/>
<polygon fill="midnightblue" stroke="midnightblue" points="159.19,-67.39 163.38,-57.66 154.04,-62.65 159.19,-67.39"/>
</g>
<!-- Node3 -->
<g id="node3" class="node">
<title>Node3</title>
<g id="a_node3"><a xlink:href="code__80086E70_8c.html#acd186a6f592769b3e3db3da72fcf765f" target="_top" xlink:title=" ">
<polygon fill="white" stroke="black" points="272.5,-556.5 272.5,-575.5 363.5,-575.5 363.5,-556.5 272.5,-556.5"/>
<text text-anchor="middle" x="318" y="-563.5" font-family="Helvetica,sans-Serif" font-size="10.00">func_80086F60</text>
</a>
</g>
</g>
<!-- Node2&#45;&gt;Node3 -->
<g id="edge2" class="edge">
<title>Node2&#45;&gt;Node3</title>
<path fill="none" stroke="midnightblue" d="M188.27,-499.68C203.93,-510.82 231.01,-529.22 256,-542 263.56,-545.87 271.9,-549.52 279.92,-552.76"/>
<polygon fill="midnightblue" stroke="midnightblue" points="278.88,-556.11 289.47,-556.48 281.43,-549.59 278.88,-556.11"/>
</g>
<!-- Node5 -->
<g id="node5" class="node">
<title>Node5</title>
<g id="a_node5"><a xlink:href="code__80071F00_8c.html#a4b4f00a7df0f9bc44914cd922c3cd51b" target="_top" xlink:title=" ">
<polygon fill="white" stroke="black" points="416,-392.5 416,-411.5 531,-411.5 531,-392.5 416,-392.5"/>
<text text-anchor="middle" x="473.5" y="-399.5" font-family="Helvetica,sans-Serif" font-size="10.00">set_object_unk_0CB</text>
</a>
</g>
</g>
<!-- Node2&#45;&gt;Node5 -->
<g id="edge4" class="edge">
<title>Node2&#45;&gt;Node5</title>
<path fill="none" stroke="midnightblue" d="M219.76,-492.7C262.38,-493.71 327.61,-491.12 380,-471 409.9,-459.52 438.52,-435.47 455.81,-419.03"/>
<polygon fill="midnightblue" stroke="midnightblue" points="458.64,-421.16 463.34,-411.66 453.74,-416.15 458.64,-421.16"/>
</g>
<!-- Node3&#45;&gt;Node4 -->
<g id="edge3" class="edge">
<title>Node3&#45;&gt;Node4</title>
<path fill="none" stroke="midnightblue" d="M363.81,-571.55C377.33,-573.22 392.45,-575.09 407.03,-576.9"/>
<polygon fill="midnightblue" stroke="midnightblue" points="406.64,-580.38 417,-578.13 407.5,-573.43 406.64,-580.38"/>
</g>
<!-- Node6&#45;&gt;Node4 -->
<g id="edge6" class="edge">
<title>Node6&#45;&gt;Node4</title>
<path fill="none" stroke="midnightblue" d="M331.25,-373.77C344.36,-384.62 365.24,-403.12 380,-422 415.23,-467.07 445.7,-527.12 461.33,-560.31"/>
<polygon fill="midnightblue" stroke="midnightblue" points="458.3,-562.11 465.69,-569.7 464.65,-559.16 458.3,-562.11"/>
</g>
<!-- Node6&#45;&gt;Node5 -->
<g id="edge7" class="edge">
<title>Node6&#45;&gt;Node5</title>
<path fill="none" stroke="midnightblue" d="M357.73,-373.59C377.9,-378.58 402.75,-384.73 424.16,-390.03"/>
<polygon fill="midnightblue" stroke="midnightblue" points="423.5,-393.47 434.04,-392.48 425.18,-386.68 423.5,-393.47"/>
</g>
<!-- Node7&#45;&gt;Node4 -->
<g id="edge9" class="edge">
<title>Node7&#45;&gt;Node4</title>
<path fill="none" stroke="midnightblue" d="M364.22,-598.4C377.53,-596.75 392.37,-594.92 406.69,-593.15"/>
<polygon fill="midnightblue" stroke="midnightblue" points="407.5,-596.57 416.99,-591.87 406.64,-589.63 407.5,-596.57"/>
</g>
<!-- Node7&#45;&gt;Node5 -->
<g id="edge10" class="edge">
<title>Node7&#45;&gt;Node5</title>
<path fill="none" stroke="midnightblue" d="M364.15,-594.54C369.87,-592.07 375.34,-588.94 380,-585 432.45,-540.61 458.4,-459.11 467.98,-421.71"/>
<polygon fill="midnightblue" stroke="midnightblue" points="471.48,-422.15 470.45,-411.61 464.68,-420.5 471.48,-422.15"/>
</g>
<!-- Node8&#45;&gt;Node4 -->
<g id="edge14" class="edge">
<title>Node8&#45;&gt;Node4</title>
<path fill="none" stroke="midnightblue" d="M193.61,-440.63C241.5,-465.42 369.76,-531.82 434.29,-565.22"/>
<polygon fill="midnightblue" stroke="midnightblue" points="432.85,-568.42 443.34,-569.9 436.07,-562.2 432.85,-568.42"/>
</g>
<!-- Node8&#45;&gt;Node5 -->
<g id="edge16" class="edge">
<title>Node8&#45;&gt;Node5</title>
<path fill="none" stroke="midnightblue" d="M219.55,-425.9C231.39,-424.59 244.18,-423.2 256,-422 306.24,-416.89 363.09,-411.66 405.93,-407.83"/>
<polygon fill="midnightblue" stroke="midnightblue" points="406.3,-411.31 415.95,-406.94 405.68,-404.34 406.3,-411.31"/>
</g>
<!-- Node8&#45;&gt;Node6 -->
<g id="edge12" class="edge">
<title>Node8&#45;&gt;Node6</title>
<path fill="none" stroke="midnightblue" d="M192.92,-421.45C216.29,-409.01 254.4,-388.74 256,-388 264.1,-384.27 272.95,-380.58 281.34,-377.25"/>
<polygon fill="midnightblue" stroke="midnightblue" points="282.86,-380.41 290.9,-373.52 280.32,-373.89 282.86,-380.41"/>
</g>
<!-- Node9 -->
<g id="node9" class="node">
<title>Node9</title>
<g id="a_node9"><a xlink:href="code__80071F00_8c.html#ae2e10a969a280fa69bd2db004aa5ae3b" target="_top" xlink:title=" ">
<polygon fill="white" stroke="black" points="256,-431 256,-461 380,-461 380,-431 256,-431"/>
<text text-anchor="start" x="264" y="-449" font-family="Helvetica,sans-Serif" font-size="10.00">is_obj_index_flag_unk</text>
<text text-anchor="middle" x="318" y="-438" font-family="Helvetica,sans-Serif" font-size="10.00">_054_inactive</text>
</a>
</g>
</g>
<!-- Node8&#45;&gt;Node9 -->
<g id="edge13" class="edge">
<title>Node8&#45;&gt;Node9</title>
<path fill="none" stroke="midnightblue" d="M219.54,-435.7C227.93,-436.59 236.9,-437.54 245.87,-438.49"/>
<polygon fill="midnightblue" stroke="midnightblue" points="245.65,-441.98 255.97,-439.55 246.39,-435.02 245.65,-441.98"/>
</g>
<!-- Node8&#45;&gt;Node10 -->
<g id="edge15" class="edge">
<title>Node8&#45;&gt;Node10</title>
<path fill="none" stroke="midnightblue" d="M181.77,-421.47C194.52,-404.14 223.72,-367.19 256,-345 258.69,-343.15 261.53,-341.41 264.47,-339.76"/>
<polygon fill="midnightblue" stroke="midnightblue" points="266.18,-342.82 273.47,-335.14 262.98,-336.59 266.18,-342.82"/>
</g>
<!-- Node13 -->
<g id="node13" class="node">
<title>Node13</title>
<g id="a_node13"><a xlink:href="code__80071F00_8c.html#abdebd086b5ff081f83af3d9205f39cd3" target="_top" xlink:title=" ">
<polygon fill="white" stroke="black" points="284,-114.5 284,-133.5 352,-133.5 352,-114.5 284,-114.5"/>
<text text-anchor="middle" x="318" y="-121.5" font-family="Helvetica,sans-Serif" font-size="10.00">init_object</text>
</a>
</g>
</g>
<!-- Node12&#45;&gt;Node13 -->
<g id="edge19" class="edge">
<title>Node12&#45;&gt;Node13</title>
<path fill="none" stroke="midnightblue" d="M220.32,-124C237.39,-124 256.76,-124 273.64,-124"/>
<polygon fill="midnightblue" stroke="midnightblue" points="273.8,-127.5 283.8,-124 273.8,-120.5 273.8,-127.5"/>
</g>
<!-- Node14 -->
<g id="node14" class="node">
<title>Node14</title>
<g id="a_node14"><a xlink:href="math__util_8c.html#a151b63b8adf9af7e4054b3b84bd226dc" target="_top" xlink:title=" ">
<polygon fill="white" stroke="black" points="282,-76.5 282,-95.5 354,-95.5 354,-76.5 282,-76.5"/>
<text text-anchor="middle" x="318" y="-83.5" font-family="Helvetica,sans-Serif" font-size="10.00">random_int</text>
</a>
</g>
</g>
<!-- Node12&#45;&gt;Node14 -->
<g id="edge21" class="edge">
<title>Node12&#45;&gt;Node14</title>
<path fill="none" stroke="midnightblue" d="M210.83,-114.41C229.39,-109.45 252.23,-103.33 271.97,-98.05"/>
<polygon fill="midnightblue" stroke="midnightblue" points="272.92,-101.42 281.67,-95.45 271.11,-94.66 272.92,-101.42"/>
</g>
<!-- Node13&#45;&gt;Node5 -->
<g id="edge20" class="edge">
<title>Node13&#45;&gt;Node5</title>
<path fill="none" stroke="midnightblue" d="M352.01,-128.43C362.04,-131.21 372.4,-135.7 380,-143 450.16,-210.34 467.23,-334.47 471.28,-382.4"/>
<polygon fill="midnightblue" stroke="midnightblue" points="467.79,-382.68 472.02,-392.39 474.77,-382.16 467.79,-382.68"/>
</g>
<!-- Node15 -->
<g id="node15" class="node">
<title>Node15</title>
<g id="a_node15"><a xlink:href="math__util_8c.html#a062850863585005ad1d0a75d9ff70693" target="_top" xlink:title=" ">
<polygon fill="white" stroke="black" points="435,-76.5 435,-95.5 512,-95.5 512,-76.5 435,-76.5"/>
<text text-anchor="middle" x="473.5" y="-83.5" font-family="Helvetica,sans-Serif" font-size="10.00">random_u16</text>
</a>
</g>
</g>
<!-- Node14&#45;&gt;Node15 -->
<g id="edge22" class="edge">
<title>Node14&#45;&gt;Node15</title>
<path fill="none" stroke="midnightblue" d="M354.22,-86C375.09,-86 401.84,-86 424.62,-86"/>
<polygon fill="midnightblue" stroke="midnightblue" points="424.77,-89.5 434.77,-86 424.77,-82.5 424.77,-89.5"/>
</g>
<!-- Node16&#45;&gt;Node6 -->
<g id="edge24" class="edge">
<title>Node16&#45;&gt;Node6</title>
<path fill="none" stroke="midnightblue" d="M184.07,-285.69C198.18,-300.24 226.8,-327.76 256,-344 260.57,-346.54 265.51,-348.82 270.54,-350.86"/>
<polygon fill="midnightblue" stroke="midnightblue" points="269.64,-354.26 280.24,-354.46 272.08,-347.69 269.64,-354.26"/>
</g>
<!-- Node16&#45;&gt;Node10 -->
<g id="edge29" class="edge">
<title>Node16&#45;&gt;Node10</title>
<path fill="none" stroke="midnightblue" d="M205.81,-285.55C221.3,-290.35 240.59,-296.32 258.74,-301.95"/>
<polygon fill="midnightblue" stroke="midnightblue" points="257.79,-305.32 268.38,-304.93 259.86,-298.63 257.79,-305.32"/>
</g>
<!-- Node17 -->
<g id="node17" class="node">
<title>Node17</title>
<g id="a_node17"><a xlink:href="code__80086E70_8c.html#aaec540b89607cbfe79478fa9a3be642e" target="_top" xlink:title=" ">
<polygon fill="white" stroke="black" points="272,-190.5 272,-209.5 364,-209.5 364,-190.5 272,-190.5"/>
<text text-anchor="middle" x="318" y="-197.5" font-family="Helvetica,sans-Serif" font-size="10.00">func_8008B80C</text>
</a>
</g>
</g>
<!-- Node16&#45;&gt;Node17 -->
<g id="edge25" class="edge">
<title>Node16&#45;&gt;Node17</title>
<path fill="none" stroke="midnightblue" d="M186.09,-266.48C201.07,-254.05 229,-232.29 256,-219 260.55,-216.76 265.42,-214.71 270.35,-212.87"/>
<polygon fill="midnightblue" stroke="midnightblue" points="271.55,-216.15 279.83,-209.55 269.24,-209.55 271.55,-216.15"/>
</g>
<!-- Node18 -->
<g id="node18" class="node">
<title>Node18</title>
<g id="a_node18"><a xlink:href="code__80086E70_8c.html#adeb6debba4f90a8bfdcba5d19d78bf6a" target="_top" xlink:title=" ">
<polygon fill="white" stroke="black" points="272,-152.5 272,-171.5 364,-171.5 364,-152.5 272,-152.5"/>
<text text-anchor="middle" x="318" y="-159.5" font-family="Helvetica,sans-Serif" font-size="10.00">func_8008B888</text>
</a>
</g>
</g>
<!-- Node16&#45;&gt;Node18 -->
<g id="edge26" class="edge">
<title>Node16&#45;&gt;Node18</title>
<path fill="none" stroke="midnightblue" d="M180.6,-266.35C192.19,-247.22 220.73,-204.28 256,-181 259.1,-178.96 262.43,-177.12 265.88,-175.48"/>
<polygon fill="midnightblue" stroke="midnightblue" points="267.35,-178.65 275.21,-171.55 264.63,-172.2 267.35,-178.65"/>
</g>
<!-- Node19 -->
<g id="node19" class="node">
<title>Node19</title>
<g id="a_node19"><a xlink:href="code__80086E70_8c.html#af02c0c488214c8679a92743da1214311" target="_top" xlink:title=" ">
<polygon fill="white" stroke="black" points="271.5,-266.5 271.5,-285.5 364.5,-285.5 364.5,-266.5 271.5,-266.5"/>
<text text-anchor="middle" x="318" y="-273.5" font-family="Helvetica,sans-Serif" font-size="10.00">func_8008B8BC</text>
</a>
</g>
</g>
<!-- Node16&#45;&gt;Node19 -->
<g id="edge27" class="edge">
<title>Node16&#45;&gt;Node19</title>
<path fill="none" stroke="midnightblue" d="M219.54,-276C232.63,-276 247.13,-276 260.85,-276"/>
<polygon fill="midnightblue" stroke="midnightblue" points="261.15,-279.5 271.15,-276 261.15,-272.5 261.15,-279.5"/>
</g>
<!-- Node20 -->
<g id="node20" class="node">
<title>Node20</title>
<g id="a_node20"><a xlink:href="code__80071F00_8c.html#aaac380231c672b17a8fda8b451572c4c" target="_top" xlink:title=" ">
<polygon fill="white" stroke="black" points="264,-228.5 264,-247.5 372,-247.5 372,-228.5 264,-228.5"/>
<text text-anchor="middle" x="318" y="-235.5" font-family="Helvetica,sans-Serif" font-size="10.00">init_texture_object</text>
</a>
</g>
</g>
<!-- Node16&#45;&gt;Node20 -->
<g id="edge28" class="edge">
<title>Node16&#45;&gt;Node20</title>
<path fill="none" stroke="midnightblue" d="M210.83,-266.41C229.16,-261.51 251.68,-255.48 271.25,-250.24"/>
<polygon fill="midnightblue" stroke="midnightblue" points="272.42,-253.55 281.18,-247.59 270.61,-246.79 272.42,-253.55"/>
</g>
<!-- Node21&#45;&gt;Node4 -->
<g id="edge31" class="edge">
<title>Node21&#45;&gt;Node4</title>
<path fill="none" stroke="midnightblue" d="M220.28,-681.5C262.99,-681.37 328.04,-677.09 380,-656 407.17,-644.97 433.2,-623.7 450.69,-607.3"/>
<polygon fill="midnightblue" stroke="midnightblue" points="453.32,-609.63 458.09,-600.17 448.46,-604.58 453.32,-609.63"/>
</g>
<!-- Node23 -->
<g id="node23" class="node">
<title>Node23</title>
<g id="a_node23"><a xlink:href="external_8h.html#ae064a1a7293d05787ee9c3e311b70b46" target="_top" xlink:title=" ">
<polygon fill="white" stroke="black" points="272,-38.5 272,-57.5 364,-57.5 364,-38.5 272,-38.5"/>
<text text-anchor="middle" x="318" y="-45.5" font-family="Helvetica,sans-Serif" font-size="10.00">func_800C1C88</text>
</a>
</g>
</g>
<!-- Node22&#45;&gt;Node23 -->
<g id="edge33" class="edge">
<title>Node22&#45;&gt;Node23</title>
<path fill="none" stroke="midnightblue" d="M220.32,-48C233.39,-48 247.79,-48 261.4,-48"/>
<polygon fill="midnightblue" stroke="midnightblue" points="261.62,-51.5 271.62,-48 261.62,-44.5 261.62,-51.5"/>
</g>
<!-- Node24 -->
<g id="node24" class="node">
<title>Node24</title>
<g id="a_node24"><a xlink:href="external_8c.html#a62e16f9600e7e9beda2c9d2df10f3561" target="_top" xlink:title=" ">
<polygon fill="white" stroke="black" points="282,-0.5 282,-19.5 354,-19.5 354,-0.5 282,-0.5"/>
<text text-anchor="middle" x="318" y="-7.5" font-family="Helvetica,sans-Serif" font-size="10.00">play_sound</text>
</a>
</g>
</g>
<!-- Node22&#45;&gt;Node24 -->
<g id="edge34" class="edge">
<title>Node22&#45;&gt;Node24</title>
<path fill="none" stroke="midnightblue" d="M210.83,-38.41C229.39,-33.45 252.23,-27.33 271.97,-22.05"/>
<polygon fill="midnightblue" stroke="midnightblue" points="272.92,-25.42 281.67,-19.45 271.11,-18.66 272.92,-25.42"/>
</g>
</g>
</svg>
