<?xml version="1.0" encoding="UTF-8" standalone="no"?>
<!DOCTYPE svg PUBLIC "-//W3C//DTD SVG 1.1//EN"
 "http://www.w3.org/Graphics/SVG/1.1/DTD/svg11.dtd">
<!-- Generated by graphviz version 2.43.0 (0)
 -->
<!-- Title: func_80093E40 Pages: 1 -->
<svg width="744pt" height="1509pt"
 viewBox="0.00 0.00 744.00 1509.00" xmlns="http://www.w3.org/2000/svg" xmlns:xlink="http://www.w3.org/1999/xlink">
<g id="graph0" class="graph" transform="scale(1 1) rotate(0) translate(4 1505)">
<title>func_80093E40</title>
<!-- Node1 -->
<g id="Node000001" class="node">
<title>Node1</title>
<g id="a_Node000001"><a xlink:title=" ">
<polygon fill="#999999" stroke="#666666" points="91,-777 0,-777 0,-758 91,-758 91,-777"/>
<text text-anchor="middle" x="45.5" y="-765" font-family="Helvetica,sans-Serif" font-size="10.00">func_80093E40</text>
</a>
</g>
</g>
<!-- Node2 -->
<g id="Node000002" class="node">
<title>Node2</title>
<g id="a_Node000002"><a xlink:href="code__80091750_8c.html#a15f3ebfeed90c432ebac841a94730a1a" target="_top" xlink:title=" ">
<polygon fill="white" stroke="#666666" points="219,-777 127,-777 127,-758 219,-758 219,-777"/>
<text text-anchor="middle" x="173" y="-765" font-family="Helvetica,sans-Serif" font-size="10.00">func_80093C98</text>
</a>
</g>
</g>
<!-- Node1&#45;&gt;Node2 -->
<g id="edge1_Node000001_Node000002" class="edge">
<title>Node1&#45;&gt;Node2</title>
<g id="a_edge1_Node000001_Node000002"><a xlink:title=" ">
<path fill="none" stroke="#63b8ff" d="M91.1,-767.5C99.31,-767.5 107.98,-767.5 116.47,-767.5"/>
<polygon fill="#63b8ff" stroke="#63b8ff" points="116.7,-771 126.7,-767.5 116.7,-764 116.7,-771"/>
</a>
</g>
</g>
<!-- Node3 -->
<g id="Node000003" class="node">
<title>Node3</title>
<g id="a_Node000003"><a xlink:href="code__80091750_8h.html#abbac07ef480bb0baba915df93924db18" target="_top" xlink:title=" ">
<polygon fill="white" stroke="#666666" points="348,-833 255,-833 255,-814 348,-814 348,-833"/>
<text text-anchor="middle" x="301.5" y="-821" font-family="Helvetica,sans-Serif" font-size="10.00">func_8009CA6C</text>
</a>
</g>
</g>
<!-- Node2&#45;&gt;Node3 -->
<g id="edge2_Node000002_Node000003" class="edge">
<title>Node2&#45;&gt;Node3</title>
<g id="a_edge2_Node000002_Node000003"><a xlink:title=" ">
<path fill="none" stroke="#63b8ff" d="M194.56,-777.12C210.88,-784.7 234.32,-795.46 255,-804.5 259.17,-806.32 263.57,-808.21 267.93,-810.05"/>
<polygon fill="#63b8ff" stroke="#63b8ff" points="266.71,-813.34 277.29,-813.98 269.42,-806.88 266.71,-813.34"/>
</a>
</g>
</g>
<!-- Node4 -->
<g id="Node000004" class="node">
<title>Node4</title>
<g id="a_Node000004"><a xlink:href="code__80091750_8h.html#a0e04aa139e43a0a18f663367145916ab" target="_top" xlink:title=" ">
<polygon fill="white" stroke="#666666" points="347.5,-796 255.5,-796 255.5,-777 347.5,-777 347.5,-796"/>
<text text-anchor="middle" x="301.5" y="-784" font-family="Helvetica,sans-Serif" font-size="10.00">func_800A54EC</text>
</a>
</g>
</g>
<!-- Node2&#45;&gt;Node4 -->
<g id="edge3_Node000002_Node000004" class="edge">
<title>Node2&#45;&gt;Node4</title>
<g id="a_edge3_Node000002_Node000004"><a xlink:title=" ">
<path fill="none" stroke="#63b8ff" d="M219.31,-774.31C227.67,-775.56 236.48,-776.88 245.1,-778.18"/>
<polygon fill="#63b8ff" stroke="#63b8ff" points="244.67,-781.65 255.08,-779.68 245.71,-774.73 244.67,-781.65"/>
</a>
</g>
</g>
<!-- Node5 -->
<g id="Node000005" class="node">
<title>Node5</title>
<g id="a_Node000005"><a xlink:href="code__80091750_8c.html#a2f1bf07b8dcaeb0230d31eeedd0cc476" target="_top" xlink:title=" ">
<polygon fill="white" stroke="#666666" points="347.5,-759 255.5,-759 255.5,-740 347.5,-740 347.5,-759"/>
<text text-anchor="middle" x="301.5" y="-747" font-family="Helvetica,sans-Serif" font-size="10.00">func_800A8250</text>
</a>
</g>
</g>
<!-- Node2&#45;&gt;Node5 -->
<g id="edge4_Node000002_Node000005" class="edge">
<title>Node2&#45;&gt;Node5</title>
<g id="a_edge4_Node000002_Node000005"><a xlink:title=" ">
<path fill="none" stroke="#63b8ff" d="M219.31,-761.05C227.67,-759.86 236.48,-758.61 245.1,-757.38"/>
<polygon fill="#63b8ff" stroke="#63b8ff" points="245.67,-760.84 255.08,-755.96 244.69,-753.91 245.67,-760.84"/>
</a>
</g>
</g>
<!-- Node180 -->
<g id="Node000180" class="node">
<title>Node180</title>
<g id="a_Node000180"><a xlink:href="guOrthoF_8c.html#ad7ee72136daaabbf7bfa2c6a5d791db1" target="_top" xlink:title=" ">
<polygon fill="white" stroke="#666666" points="329.5,-722 273.5,-722 273.5,-703 329.5,-703 329.5,-722"/>
<text text-anchor="middle" x="301.5" y="-710" font-family="Helvetica,sans-Serif" font-size="10.00">guOrtho</text>
</a>
</g>
</g>
<!-- Node2&#45;&gt;Node180 -->
<g id="edge49_Node000002_Node000180" class="edge">
<title>Node2&#45;&gt;Node180</title>
<g id="a_edge49_Node000002_Node000180"><a xlink:title=" ">
<path fill="none" stroke="#63b8ff" d="M194.18,-757.93C210.49,-750.28 234.09,-739.4 255,-730.5 258.49,-729.01 262.14,-727.5 265.8,-726.01"/>
<polygon fill="#63b8ff" stroke="#63b8ff" points="267.39,-729.14 275.37,-722.17 264.79,-722.65 267.39,-729.14"/>
</a>
</g>
</g>
<!-- Node6 -->
<g id="Node000006" class="node">
<title>Node6</title>
<g id="a_Node000006"><a xlink:href="code__80091750_8c.html#ad2cbd55b27186aa30b09414f27363091" target="_top" xlink:title=" ">
<polygon fill="#fff0f0" stroke="red" points="477,-759 384,-759 384,-740 477,-740 477,-759"/>
<text text-anchor="middle" x="430.5" y="-747" font-family="Helvetica,sans-Serif" font-size="10.00">func_800A7A4C</text>
</a>
</g>
</g>
<!-- Node5&#45;&gt;Node6 -->
<g id="edge5_Node000005_Node000006" class="edge">
<title>Node5&#45;&gt;Node6</title>
<g id="a_edge5_Node000005_Node000006"><a xlink:title=" ">
<path fill="none" stroke="#63b8ff" d="M347.63,-749.5C356.04,-749.5 364.91,-749.5 373.59,-749.5"/>
<polygon fill="#63b8ff" stroke="#63b8ff" points="373.66,-753 383.66,-749.5 373.66,-746 373.66,-753"/>
</a>
</g>
</g>
<!-- Node7 -->
<g id="Node000007" class="node">
<title>Node7</title>
<g id="a_Node000007"><a xlink:href="code__80091750_8c.html#a43bcabb788906b0fb7fda0edf5117bc0" target="_top" xlink:title=" ">
<polygon fill="#fff0f0" stroke="red" points="606,-1501 515,-1501 515,-1482 606,-1482 606,-1501"/>
<text text-anchor="middle" x="560.5" y="-1489" font-family="Helvetica,sans-Serif" font-size="10.00">func_8009E000</text>
</a>
</g>
</g>
<!-- Node6&#45;&gt;Node7 -->
<g id="edge6_Node000006_Node000007" class="edge">
<title>Node6&#45;&gt;Node7</title>
<g id="a_edge6_Node000006_Node000007"><a xlink:title=" ">
<path fill="none" stroke="#63b8ff" d="M431.28,-759.37C429.72,-837.3 422.89,-1353.37 513,-1472.5 513.92,-1473.72 514.93,-1474.86 516.02,-1475.92"/>
<polygon fill="#63b8ff" stroke="#63b8ff" points="513.99,-1478.78 524.1,-1481.96 518.18,-1473.17 513.99,-1478.78"/>
</a>
</g>
</g>
<!-- Node9 -->
<g id="Node000009" class="node">
<title>Node9</title>
<g id="a_Node000009"><a xlink:href="code__80091750_8h.html#a162ffc72e70be36215acffec8099a9b2" target="_top" xlink:title=" ">
<polygon fill="white" stroke="#666666" points="606,-1464 515,-1464 515,-1445 606,-1445 606,-1464"/>
<text text-anchor="middle" x="560.5" y="-1452" font-family="Helvetica,sans-Serif" font-size="10.00">func_8009F5E0</text>
</a>
</g>
</g>
<!-- Node6&#45;&gt;Node9 -->
<g id="edge7_Node000006_Node000009" class="edge">
<title>Node6&#45;&gt;Node9</title>
<g id="a_edge7_Node000006_Node000009"><a xlink:title=" ">
<path fill="none" stroke="#63b8ff" d="M431.35,-759.34C430.34,-834.9 427.29,-1322.88 513,-1435.5 513.92,-1436.71 514.94,-1437.85 516.03,-1438.92"/>
<polygon fill="#63b8ff" stroke="#63b8ff" points="514.01,-1441.78 524.12,-1444.95 518.19,-1436.16 514.01,-1441.78"/>
</a>
</g>
</g>
<!-- Node10 -->
<g id="Node000010" class="node">
<title>Node10</title>
<g id="a_Node000010"><a xlink:href="code__80091750_8c.html#ac5aec9b1d1b1fbfd64b5c87f6b37da9f" target="_top" xlink:title=" ">
<polygon fill="white" stroke="#666666" points="606.5,-1427 514.5,-1427 514.5,-1408 606.5,-1408 606.5,-1427"/>
<text text-anchor="middle" x="560.5" y="-1415" font-family="Helvetica,sans-Serif" font-size="10.00">func_800A954C</text>
</a>
</g>
</g>
<!-- Node6&#45;&gt;Node10 -->
<g id="edge8_Node000006_Node000010" class="edge">
<title>Node6&#45;&gt;Node10</title>
<g id="a_edge8_Node000006_Node000010"><a xlink:title=" ">
<path fill="none" stroke="#63b8ff" d="M431.42,-759.28C431,-832.28 431.66,-1292.37 513,-1398.5 513.93,-1399.71 514.95,-1400.85 516.04,-1401.91"/>
<polygon fill="#63b8ff" stroke="#63b8ff" points="514.03,-1404.77 524.14,-1407.93 518.2,-1399.15 514.03,-1404.77"/>
</a>
</g>
</g>
<!-- Node11 -->
<g id="Node000011" class="node">
<title>Node11</title>
<g id="a_Node000011"><a xlink:href="code__80091750_8c.html#a4246dda0ae044ad694856ecb3fee21cd" target="_top" xlink:title=" ">
<polygon fill="#fff0f0" stroke="red" points="606.5,-1390 514.5,-1390 514.5,-1371 606.5,-1371 606.5,-1390"/>
<text text-anchor="middle" x="560.5" y="-1378" font-family="Helvetica,sans-Serif" font-size="10.00">func_800A9710</text>
</a>
</g>
</g>
<!-- Node6&#45;&gt;Node11 -->
<g id="edge9_Node000006_Node000011" class="edge">
<title>Node6&#45;&gt;Node11</title>
<g id="a_edge9_Node000006_Node000011"><a xlink:title=" ">
<path fill="none" stroke="#63b8ff" d="M431.5,-759.17C431.69,-829.43 436.02,-1261.82 513,-1361.5 513.93,-1362.71 514.96,-1363.84 516.05,-1364.9"/>
<polygon fill="#63b8ff" stroke="#63b8ff" points="514.05,-1367.77 524.17,-1370.91 518.21,-1362.14 514.05,-1367.77"/>
</a>
</g>
</g>
<!-- Node16 -->
<g id="Node000016" class="node">
<title>Node16</title>
<g id="a_Node000016"><a xlink:href="code__80091750_8h.html#a9d824d35e3a5386728109364f80ef5ce" target="_top" xlink:title=" ">
<polygon fill="white" stroke="#666666" points="607,-1353 514,-1353 514,-1334 607,-1334 607,-1353"/>
<text text-anchor="middle" x="560.5" y="-1341" font-family="Helvetica,sans-Serif" font-size="10.00">func_800A97BC</text>
</a>
</g>
</g>
<!-- Node6&#45;&gt;Node16 -->
<g id="edge10_Node000006_Node000016" class="edge">
<title>Node6&#45;&gt;Node16</title>
<g id="a_edge10_Node000006_Node000016"><a xlink:title=" ">
<path fill="none" stroke="#63b8ff" d="M431.59,-759.01C432.41,-826.36 440.35,-1231.24 513,-1324.5 513.94,-1325.7 514.96,-1326.83 516.06,-1327.89"/>
<polygon fill="#63b8ff" stroke="#63b8ff" points="514.07,-1330.77 524.2,-1333.88 518.22,-1325.13 514.07,-1330.77"/>
</a>
</g>
</g>
<!-- Node17 -->
<g id="Node000017" class="node">
<title>Node17</title>
<g id="a_Node000017"><a xlink:href="code__80091750_8c.html#a0ff9ae5892236b8bd1e8068dd386b8af" target="_top" xlink:title=" ">
<polygon fill="white" stroke="#666666" points="606.5,-1316 514.5,-1316 514.5,-1297 606.5,-1297 606.5,-1316"/>
<text text-anchor="middle" x="560.5" y="-1304" font-family="Helvetica,sans-Serif" font-size="10.00">func_800A9A98</text>
</a>
</g>
</g>
<!-- Node6&#45;&gt;Node17 -->
<g id="edge11_Node000006_Node000017" class="edge">
<title>Node6&#45;&gt;Node17</title>
<g id="a_edge11_Node000006_Node000017"><a xlink:title=" ">
<path fill="none" stroke="#63b8ff" d="M431.7,-759.23C433.21,-824.68 444.8,-1200.82 513,-1287.5 513.94,-1288.7 514.98,-1289.82 516.08,-1290.88"/>
<polygon fill="#63b8ff" stroke="#63b8ff" points="514.1,-1293.76 524.23,-1296.86 518.24,-1288.12 514.1,-1293.76"/>
</a>
</g>
</g>
<!-- Node18 -->
<g id="Node000018" class="node">
<title>Node18</title>
<g id="a_Node000018"><a xlink:href="code__80091750_8c.html#a7ba5cbd041be73c6c2fe14f77e86093a" target="_top" xlink:title=" ">
<polygon fill="white" stroke="#666666" points="607,-1279 514,-1279 514,-1260 607,-1260 607,-1279"/>
<text text-anchor="middle" x="560.5" y="-1267" font-family="Helvetica,sans-Serif" font-size="10.00">func_800A9B9C</text>
</a>
</g>
</g>
<!-- Node6&#45;&gt;Node18 -->
<g id="edge12_Node000006_Node000018" class="edge">
<title>Node6&#45;&gt;Node18</title>
<g id="a_edge12_Node000006_Node000018"><a xlink:title=" ">
<path fill="none" stroke="#63b8ff" d="M431.93,-759.2C434.82,-821.32 453.35,-1163.44 513,-1245.5 515.52,-1248.97 518.7,-1251.98 522.2,-1254.58"/>
<polygon fill="#63b8ff" stroke="#63b8ff" points="520.47,-1257.62 530.81,-1259.92 524.16,-1251.67 520.47,-1257.62"/>
</a>
</g>
</g>
<!-- Node19 -->
<g id="Node000019" class="node">
<title>Node19</title>
<g id="a_Node000019"><a xlink:href="code__80091750_8c.html#a22606d8d68aaf5a8231346bc68d44508" target="_top" xlink:title=" ">
<polygon fill="#fff0f0" stroke="red" points="736,-1241 644,-1241 644,-1222 736,-1222 736,-1241"/>
<text text-anchor="middle" x="690" y="-1229" font-family="Helvetica,sans-Serif" font-size="10.00">func_800AA280</text>
</a>
</g>
</g>
<!-- Node6&#45;&gt;Node19 -->
<g id="edge18_Node000006_Node000019" class="edge">
<title>Node6&#45;&gt;Node19</title>
<g id="a_edge18_Node000006_Node000019"><a xlink:title=" ">
<path fill="none" stroke="#63b8ff" d="M431.7,-759.21C433.16,-819.93 444.17,-1146.78 513,-1211.5 544.67,-1241.28 595.03,-1244.27 633.79,-1240.98"/>
<polygon fill="#63b8ff" stroke="#63b8ff" points="634.28,-1244.44 643.87,-1239.96 633.57,-1237.48 634.28,-1244.44"/>
</a>
</g>
</g>
<!-- Node23 -->
<g id="Node000023" class="node">
<title>Node23</title>
<g id="a_Node000023"><a xlink:href="code__80091750_8c.html#a3d92aaabf8f7cfdc2817dd1821254b97" target="_top" xlink:title=" ">
<polygon fill="white" stroke="#666666" points="606.5,-1203 514.5,-1203 514.5,-1184 606.5,-1184 606.5,-1203"/>
<text text-anchor="middle" x="560.5" y="-1191" font-family="Helvetica,sans-Serif" font-size="10.00">func_800A9C40</text>
</a>
</g>
</g>
<!-- Node6&#45;&gt;Node23 -->
<g id="edge14_Node000006_Node000023" class="edge">
<title>Node6&#45;&gt;Node23</title>
<g id="a_edge14_Node000006_Node000023"><a xlink:title=" ">
<path fill="none" stroke="#63b8ff" d="M432.13,-759.32C436,-816.61 458.14,-1107.51 513,-1174.5 513.97,-1175.68 515.02,-1176.79 516.14,-1177.83"/>
<polygon fill="#63b8ff" stroke="#63b8ff" points="514.21,-1180.75 524.37,-1183.75 518.29,-1175.07 514.21,-1180.75"/>
</a>
</g>
</g>
<!-- Node24 -->
<g id="Node000024" class="node">
<title>Node24</title>
<g id="a_Node000024"><a xlink:href="code__80091750_8c.html#af1f1e62a5448b68a849212901c5c7e25" target="_top" xlink:title=" ">
<polygon fill="#fff0f0" stroke="red" points="607.5,-1166 513.5,-1166 513.5,-1147 607.5,-1147 607.5,-1166"/>
<text text-anchor="middle" x="560.5" y="-1154" font-family="Helvetica,sans-Serif" font-size="10.00">func_800A9D5C</text>
</a>
</g>
</g>
<!-- Node6&#45;&gt;Node24 -->
<g id="edge16_Node000006_Node000024" class="edge">
<title>Node6&#45;&gt;Node24</title>
<g id="a_edge16_Node000006_Node000024"><a xlink:title=" ">
<path fill="none" stroke="#63b8ff" d="M432.31,-759.16C437.03,-813.11 462.42,-1076.83 513,-1137.5 514.11,-1138.84 515.34,-1140.08 516.64,-1141.23"/>
<polygon fill="#63b8ff" stroke="#63b8ff" points="514.68,-1144.13 524.89,-1146.96 518.67,-1138.38 514.68,-1144.13"/>
</a>
</g>
</g>
<!-- Node25 -->
<g id="Node000025" class="node">
<title>Node25</title>
<g id="a_Node000025"><a xlink:href="code__80091750_8c.html#adcdd3bc2bdd1accc4e238ff670b399c2" target="_top" xlink:title=" ">
<polygon fill="#fff0f0" stroke="red" points="606.5,-1129 514.5,-1129 514.5,-1110 606.5,-1110 606.5,-1129"/>
<text text-anchor="middle" x="560.5" y="-1117" font-family="Helvetica,sans-Serif" font-size="10.00">func_800A9E58</text>
</a>
</g>
</g>
<!-- Node6&#45;&gt;Node25 -->
<g id="edge17_Node000006_Node000025" class="edge">
<title>Node6&#45;&gt;Node25</title>
<g id="a_edge17_Node000006_Node000025"><a xlink:title=" ">
<path fill="none" stroke="#63b8ff" d="M432.55,-759.23C438.24,-810.21 466.76,-1046.21 513,-1100.5 514.13,-1101.82 515.36,-1103.06 516.68,-1104.2"/>
<polygon fill="#63b8ff" stroke="#63b8ff" points="514.74,-1107.12 524.97,-1109.89 518.7,-1101.35 514.74,-1107.12"/>
</a>
</g>
</g>
<!-- Node28 -->
<g id="Node000028" class="node">
<title>Node28</title>
<g id="a_Node000028"><a xlink:href="code__80091750_8c.html#a371128898027c28b7fb4c815fc124aad" target="_top" xlink:title=" ">
<polygon fill="#fff0f0" stroke="red" points="607,-1092 514,-1092 514,-1073 607,-1073 607,-1092"/>
<text text-anchor="middle" x="560.5" y="-1080" font-family="Helvetica,sans-Serif" font-size="10.00">func_800AA2EC</text>
</a>
</g>
</g>
<!-- Node6&#45;&gt;Node28 -->
<g id="edge19_Node000006_Node000028" class="edge">
<title>Node6&#45;&gt;Node28</title>
<g id="a_edge19_Node000006_Node000028"><a xlink:title=" ">
<path fill="none" stroke="#63b8ff" d="M431.09,-759.09C429.85,-800.86 430.33,-968.95 513,-1063.5 514.14,-1064.81 515.39,-1066.03 516.72,-1067.17"/>
<polygon fill="#63b8ff" stroke="#63b8ff" points="514.81,-1070.1 525.05,-1072.82 518.74,-1064.31 514.81,-1070.1"/>
</a>
</g>
</g>
<!-- Node75 -->
<g id="Node000075" class="node">
<title>Node75</title>
<g id="a_Node000075"><a xlink:href="code__80091750_8c.html#a0d4c345eb42abcfcc601fbf0aa1d68aa" target="_top" xlink:title=" ">
<polygon fill="#fff0f0" stroke="red" points="607,-1055 514,-1055 514,-1036 607,-1036 607,-1055"/>
<text text-anchor="middle" x="560.5" y="-1043" font-family="Helvetica,sans-Serif" font-size="10.00">func_800AA69C</text>
</a>
</g>
</g>
<!-- Node6&#45;&gt;Node75 -->
<g id="edge20_Node000006_Node000075" class="edge">
<title>Node6&#45;&gt;Node75</title>
<g id="a_edge20_Node000006_Node000075"><a xlink:title=" ">
<path fill="none" stroke="#63b8ff" d="M431.49,-759.01C431.96,-797.58 438.75,-944.28 513,-1026.5 514.21,-1027.83 515.52,-1029.08 516.91,-1030.24"/>
<polygon fill="#63b8ff" stroke="#63b8ff" points="515.35,-1033.4 525.63,-1035.97 519.2,-1027.55 515.35,-1033.4"/>
</a>
</g>
</g>
<!-- Node79 -->
<g id="Node000079" class="node">
<title>Node79</title>
<g id="a_Node000079"><a xlink:href="code__80091750_8c.html#a863e6524c04f60dad968c717a7ee3523" target="_top" xlink:title=" ">
<polygon fill="#fff0f0" stroke="red" points="607.5,-1018 513.5,-1018 513.5,-999 607.5,-999 607.5,-1018"/>
<text text-anchor="middle" x="560.5" y="-1006" font-family="Helvetica,sans-Serif" font-size="10.00">func_800AAA9C</text>
</a>
</g>
</g>
<!-- Node6&#45;&gt;Node79 -->
<g id="edge21_Node000006_Node000079" class="edge">
<title>Node6&#45;&gt;Node79</title>
<g id="a_edge21_Node000006_Node000079"><a xlink:title=" ">
<path fill="none" stroke="#63b8ff" d="M432.01,-759.18C434.38,-794.72 447.25,-919.65 513,-989.5 514.23,-990.81 515.57,-992.03 516.98,-993.17"/>
<polygon fill="#63b8ff" stroke="#63b8ff" points="515.47,-996.36 525.77,-998.84 519.27,-990.48 515.47,-996.36"/>
</a>
</g>
</g>
<!-- Node80 -->
<g id="Node000080" class="node">
<title>Node80</title>
<g id="a_Node000080"><a xlink:href="code__80091750_8c.html#aefd6824117ec03c133ffcf2e2de7df1a" target="_top" xlink:title=" ">
<polygon fill="white" stroke="#666666" points="607,-981 514,-981 514,-962 607,-962 607,-981"/>
<text text-anchor="middle" x="560.5" y="-969" font-family="Helvetica,sans-Serif" font-size="10.00">func_800AAB90</text>
</a>
</g>
</g>
<!-- Node6&#45;&gt;Node80 -->
<g id="edge22_Node000006_Node000080" class="edge">
<title>Node6&#45;&gt;Node80</title>
<g id="a_edge22_Node000006_Node000080"><a xlink:title=" ">
<path fill="none" stroke="#63b8ff" d="M432.74,-759.44C437.25,-791.73 455.71,-894.86 513,-952.5 514.43,-953.94 515.98,-955.27 517.63,-956.51"/>
<polygon fill="#63b8ff" stroke="#63b8ff" points="516.07,-959.66 526.43,-961.91 519.74,-953.7 516.07,-959.66"/>
</a>
</g>
</g>
<!-- Node81 -->
<g id="Node000081" class="node">
<title>Node81</title>
<g id="a_Node000081"><a xlink:href="code__80091750_8h.html#af15ba4fa46c2f606e9b5b4757da63007" target="_top" xlink:title=" ">
<polygon fill="white" stroke="#666666" points="607,-944 514,-944 514,-925 607,-925 607,-944"/>
<text text-anchor="middle" x="560.5" y="-932" font-family="Helvetica,sans-Serif" font-size="10.00">func_800AAC18</text>
</a>
</g>
</g>
<!-- Node6&#45;&gt;Node81 -->
<g id="edge23_Node000006_Node000081" class="edge">
<title>Node6&#45;&gt;Node81</title>
<g id="a_edge23_Node000006_Node000081"><a xlink:title=" ">
<path fill="none" stroke="#63b8ff" d="M433.68,-759.2C440.45,-787.26 463.72,-869.49 513,-915.5 514.66,-917.05 516.46,-918.48 518.35,-919.8"/>
<polygon fill="#63b8ff" stroke="#63b8ff" points="516.74,-922.91 527.15,-924.9 520.26,-916.85 516.74,-922.91"/>
</a>
</g>
</g>
<!-- Node82 -->
<g id="Node000082" class="node">
<title>Node82</title>
<g id="a_Node000082"><a xlink:href="code__80091750_8c.html#af495d8cdf4f7743797a49c2711f518be" target="_top" xlink:title=" ">
<polygon fill="#fff0f0" stroke="red" points="608,-907 513,-907 513,-888 608,-888 608,-907"/>
<text text-anchor="middle" x="560.5" y="-895" font-family="Helvetica,sans-Serif" font-size="10.00">func_800AADD4</text>
</a>
</g>
</g>
<!-- Node6&#45;&gt;Node82 -->
<g id="edge24_Node000006_Node000082" class="edge">
<title>Node6&#45;&gt;Node82</title>
<g id="a_edge24_Node000006_Node000082"><a xlink:title=" ">
<path fill="none" stroke="#63b8ff" d="M435.1,-759.01C444.42,-782.48 471.58,-843.78 513,-878.5 514.99,-880.17 517.14,-881.7 519.4,-883.12"/>
<polygon fill="#63b8ff" stroke="#63b8ff" points="517.99,-886.33 528.45,-887.97 521.29,-880.16 517.99,-886.33"/>
</a>
</g>
</g>
<!-- Node85 -->
<g id="Node000085" class="node">
<title>Node85</title>
<g id="a_Node000085"><a xlink:href="code__80091750_8c.html#a53a331c4e6eb0bb9d34b3b5a8216c905" target="_top" xlink:title=" ">
<polygon fill="#fff0f0" stroke="red" points="606.5,-870 514.5,-870 514.5,-851 606.5,-851 606.5,-870"/>
<text text-anchor="middle" x="560.5" y="-858" font-family="Helvetica,sans-Serif" font-size="10.00">func_800AAE18</text>
</a>
</g>
</g>
<!-- Node6&#45;&gt;Node85 -->
<g id="edge25_Node000006_Node000085" class="edge">
<title>Node6&#45;&gt;Node85</title>
<g id="a_edge25_Node000006_Node000085"><a xlink:title=" ">
<path fill="none" stroke="#63b8ff" d="M437.77,-759.14C450.14,-777.48 479.41,-817.68 513,-841.5 515.48,-843.26 518.15,-844.89 520.91,-846.4"/>
<polygon fill="#63b8ff" stroke="#63b8ff" points="519.38,-849.55 529.9,-850.79 522.45,-843.26 519.38,-849.55"/>
</a>
</g>
</g>
<!-- Node86 -->
<g id="Node000086" class="node">
<title>Node86</title>
<g id="a_Node000086"><a xlink:href="code__80091750_8c.html#ab87a0942a3ad0cb5883774cf47cffc02" target="_top" xlink:title=" ">
<polygon fill="white" stroke="#666666" points="606.5,-833 514.5,-833 514.5,-814 606.5,-814 606.5,-833"/>
<text text-anchor="middle" x="560.5" y="-821" font-family="Helvetica,sans-Serif" font-size="10.00">func_800AB020</text>
</a>
</g>
</g>
<!-- Node6&#45;&gt;Node86 -->
<g id="edge26_Node000006_Node000086" class="edge">
<title>Node6&#45;&gt;Node86</title>
<g id="a_edge26_Node000006_Node000086"><a xlink:title=" ">
<path fill="none" stroke="#63b8ff" d="M443.97,-759.11C459.54,-770.82 487.26,-790.74 513,-804.5 516.53,-806.39 520.3,-808.21 524.09,-809.93"/>
<polygon fill="#63b8ff" stroke="#63b8ff" points="522.91,-813.23 533.48,-813.97 525.68,-806.8 522.91,-813.23"/>
</a>
</g>
</g>
<!-- Node87 -->
<g id="Node000087" class="node">
<title>Node87</title>
<g id="a_Node000087"><a xlink:href="code__80091750_8c.html#ad234c37426b39a259a4a5a4b8dd0f398" target="_top" xlink:title=" ">
<polygon fill="white" stroke="#666666" points="606.5,-796 514.5,-796 514.5,-777 606.5,-777 606.5,-796"/>
<text text-anchor="middle" x="560.5" y="-784" font-family="Helvetica,sans-Serif" font-size="10.00">func_800AB098</text>
</a>
</g>
</g>
<!-- Node6&#45;&gt;Node87 -->
<g id="edge27_Node000006_Node000087" class="edge">
<title>Node6&#45;&gt;Node87</title>
<g id="a_edge27_Node000006_Node000087"><a xlink:title=" ">
<path fill="none" stroke="#63b8ff" d="M464.46,-759.03C480.31,-763.61 499.52,-769.16 516.5,-774.07"/>
<polygon fill="#63b8ff" stroke="#63b8ff" points="515.62,-777.46 526.2,-776.88 517.57,-770.74 515.62,-777.46"/>
</a>
</g>
</g>
<!-- Node88 -->
<g id="Node000088" class="node">
<title>Node88</title>
<g id="a_Node000088"><a xlink:href="code__80091750_8c.html#a0fdec6817d558782872b0f4485a2a261" target="_top" xlink:title=" ">
<polygon fill="#fff0f0" stroke="red" points="606.5,-759 514.5,-759 514.5,-740 606.5,-740 606.5,-759"/>
<text text-anchor="middle" x="560.5" y="-747" font-family="Helvetica,sans-Serif" font-size="10.00">func_800AB164</text>
</a>
</g>
</g>
<!-- Node6&#45;&gt;Node88 -->
<g id="edge28_Node000006_Node000088" class="edge">
<title>Node6&#45;&gt;Node88</title>
<g id="a_edge28_Node000006_Node000088"><a xlink:title=" ">
<path fill="none" stroke="#63b8ff" d="M477.35,-749.5C486.11,-749.5 495.36,-749.5 504.37,-749.5"/>
<polygon fill="#63b8ff" stroke="#63b8ff" points="504.4,-753 514.4,-749.5 504.4,-746 504.4,-753"/>
</a>
</g>
</g>
<!-- Node89 -->
<g id="Node000089" class="node">
<title>Node89</title>
<g id="a_Node000089"><a xlink:href="code__80091750_8c.html#a8c16d9b7208e9bbb46b3a076438911bf" target="_top" xlink:title=" ">
<polygon fill="white" stroke="#666666" points="606.5,-722 514.5,-722 514.5,-703 606.5,-703 606.5,-722"/>
<text text-anchor="middle" x="560.5" y="-710" font-family="Helvetica,sans-Serif" font-size="10.00">func_800AB260</text>
</a>
</g>
</g>
<!-- Node6&#45;&gt;Node89 -->
<g id="edge29_Node000006_Node000089" class="edge">
<title>Node6&#45;&gt;Node89</title>
<g id="a_edge29_Node000006_Node000089"><a xlink:title=" ">
<path fill="none" stroke="#63b8ff" d="M464.46,-739.97C480.31,-735.39 499.52,-729.84 516.5,-724.93"/>
<polygon fill="#63b8ff" stroke="#63b8ff" points="517.57,-728.26 526.2,-722.12 515.62,-721.54 517.57,-728.26"/>
</a>
</g>
</g>
<!-- Node90 -->
<g id="Node000090" class="node">
<title>Node90</title>
<g id="a_Node000090"><a xlink:href="code__80091750_8c.html#ac4d8ba63e2ad4269eeeec67700aae8dd" target="_top" xlink:title=" ">
<polygon fill="#fff0f0" stroke="red" points="606.5,-685 514.5,-685 514.5,-666 606.5,-666 606.5,-685"/>
<text text-anchor="middle" x="560.5" y="-673" font-family="Helvetica,sans-Serif" font-size="10.00">func_800AB290</text>
</a>
</g>
</g>
<!-- Node6&#45;&gt;Node90 -->
<g id="edge30_Node000006_Node000090" class="edge">
<title>Node6&#45;&gt;Node90</title>
<g id="a_edge30_Node000006_Node000090"><a xlink:title=" ">
<path fill="none" stroke="#63b8ff" d="M459.37,-739.96C465.43,-737.32 471.62,-734.16 477,-730.5 495.97,-717.6 493.86,-706.15 513,-693.5 515.15,-692.08 517.43,-690.75 519.77,-689.5"/>
<polygon fill="#63b8ff" stroke="#63b8ff" points="521.5,-692.55 529.04,-685.11 518.51,-686.22 521.5,-692.55"/>
</a>
</g>
</g>
<!-- Node91 -->
<g id="Node000091" class="node">
<title>Node91</title>
<g id="a_Node000091"><a xlink:href="code__80091750_8h.html#a07e16ec0bfa38dd3c086b3c96b1d8da0" target="_top" xlink:title=" ">
<polygon fill="white" stroke="#666666" points="606.5,-648 514.5,-648 514.5,-629 606.5,-629 606.5,-648"/>
<text text-anchor="middle" x="560.5" y="-636" font-family="Helvetica,sans-Serif" font-size="10.00">func_800AB314</text>
</a>
</g>
</g>
<!-- Node6&#45;&gt;Node91 -->
<g id="edge31_Node000006_Node000091" class="edge">
<title>Node6&#45;&gt;Node91</title>
<g id="a_edge31_Node000006_Node000091"><a xlink:title=" ">
<path fill="none" stroke="#63b8ff" d="M463.17,-739.82C468.18,-737.33 473.02,-734.26 477,-730.5 503.59,-705.39 486.08,-681.26 513,-656.5 514.27,-655.33 515.62,-654.24 517.04,-653.21"/>
<polygon fill="#63b8ff" stroke="#63b8ff" points="518.91,-656.17 525.71,-648.05 515.33,-650.16 518.91,-656.17"/>
</a>
</g>
</g>
<!-- Node92 -->
<g id="Node000092" class="node">
<title>Node92</title>
<g id="a_Node000092"><a xlink:href="code__80091750_8c.html#a17f5fcd865f209e3730e8e12386035ff" target="_top" xlink:title=" ">
<polygon fill="#fff0f0" stroke="red" points="606.5,-611 514.5,-611 514.5,-592 606.5,-592 606.5,-611"/>
<text text-anchor="middle" x="560.5" y="-599" font-family="Helvetica,sans-Serif" font-size="10.00">func_800AB904</text>
</a>
</g>
</g>
<!-- Node6&#45;&gt;Node92 -->
<g id="edge32_Node000006_Node000092" class="edge">
<title>Node6&#45;&gt;Node92</title>
<g id="a_edge32_Node000006_Node000092"><a xlink:title=" ">
<path fill="none" stroke="#63b8ff" d="M464.55,-739.78C469.17,-737.33 473.52,-734.28 477,-730.5 512.14,-692.36 477.36,-657.18 513,-619.5 513.9,-618.54 514.86,-617.64 515.87,-616.78"/>
<polygon fill="#63b8ff" stroke="#63b8ff" points="517.99,-619.58 524.33,-611.09 514.08,-613.77 517.99,-619.58"/>
</a>
</g>
</g>
<!-- Node93 -->
<g id="Node000093" class="node">
<title>Node93</title>
<g id="a_Node000093"><a xlink:href="code__80091750_8c.html#a455695d24e3e713647e78e514aa2cb9e" target="_top" xlink:title=" ">
<polygon fill="#fff0f0" stroke="red" points="607,-574 514,-574 514,-555 607,-555 607,-574"/>
<text text-anchor="middle" x="560.5" y="-562" font-family="Helvetica,sans-Serif" font-size="10.00">func_800AB9B0</text>
</a>
</g>
</g>
<!-- Node6&#45;&gt;Node93 -->
<g id="edge33_Node000006_Node000093" class="edge">
<title>Node6&#45;&gt;Node93</title>
<g id="a_edge33_Node000006_Node000093"><a xlink:title=" ">
<path fill="none" stroke="#63b8ff" d="M465.26,-739.76C469.68,-737.32 473.78,-734.28 477,-730.5 520.97,-679.03 468.36,-633.39 513,-582.5 513.74,-581.65 514.53,-580.85 515.35,-580.08"/>
<polygon fill="#63b8ff" stroke="#63b8ff" points="517.56,-582.81 523.63,-574.13 513.47,-577.12 517.56,-582.81"/>
</a>
</g>
</g>
<!-- Node96 -->
<g id="Node000096" class="node">
<title>Node96</title>
<g id="a_Node000096"><a xlink:href="code__80091750_8c.html#aecd386ccd69ab942ce8cf5f4cfba7410" target="_top" xlink:title=" ">
<polygon fill="white" stroke="#666666" points="607,-537 514,-537 514,-518 607,-518 607,-537"/>
<text text-anchor="middle" x="560.5" y="-525" font-family="Helvetica,sans-Serif" font-size="10.00">func_800ABAE8</text>
</a>
</g>
</g>
<!-- Node6&#45;&gt;Node96 -->
<g id="edge34_Node000006_Node000096" class="edge">
<title>Node6&#45;&gt;Node96</title>
<g id="a_edge34_Node000006_Node000096"><a xlink:title=" ">
<path fill="none" stroke="#63b8ff" d="M465.42,-739.89C469.81,-737.43 473.86,-734.35 477,-730.5 529.91,-665.56 459.24,-609.74 513,-545.5 513.61,-544.77 514.25,-544.08 514.92,-543.41"/>
<polygon fill="#63b8ff" stroke="#63b8ff" points="517.17,-546.09 523.02,-537.26 512.94,-540.51 517.17,-546.09"/>
</a>
</g>
</g>
<!-- Node97 -->
<g id="Node000097" class="node">
<title>Node97</title>
<g id="a_Node000097"><a xlink:href="code__80091750_8c.html#abb8afb6442295d6a607f06c47df0c284" target="_top" xlink:title=" ">
<polygon fill="white" stroke="#666666" points="607,-500 514,-500 514,-481 607,-481 607,-500"/>
<text text-anchor="middle" x="560.5" y="-488" font-family="Helvetica,sans-Serif" font-size="10.00">func_800ABB24</text>
</a>
</g>
</g>
<!-- Node6&#45;&gt;Node97 -->
<g id="edge35_Node000006_Node000097" class="edge">
<title>Node6&#45;&gt;Node97</title>
<g id="a_edge35_Node000006_Node000097"><a xlink:title=" ">
<path fill="none" stroke="#63b8ff" d="M465.53,-739.98C469.91,-737.5 473.92,-734.4 477,-730.5 538.91,-652.03 450.06,-586.15 513,-508.5 513.6,-507.76 514.23,-507.06 514.89,-506.38"/>
<polygon fill="#63b8ff" stroke="#63b8ff" points="517.15,-509.06 522.92,-500.18 512.87,-503.52 517.15,-509.06"/>
</a>
</g>
</g>
<!-- Node98 -->
<g id="Node000098" class="node">
<title>Node98</title>
<g id="a_Node000098"><a xlink:href="code__80091750_8c.html#a9e7002d6705567ab4c88d00b733b2058" target="_top" xlink:title=" ">
<polygon fill="white" stroke="#666666" points="608,-463 513,-463 513,-444 608,-444 608,-463"/>
<text text-anchor="middle" x="560.5" y="-451" font-family="Helvetica,sans-Serif" font-size="10.00">func_800ABBCC</text>
</a>
</g>
</g>
<!-- Node6&#45;&gt;Node98 -->
<g id="edge36_Node000006_Node000098" class="edge">
<title>Node6&#45;&gt;Node98</title>
<g id="a_edge36_Node000006_Node000098"><a xlink:title=" ">
<path fill="none" stroke="#63b8ff" d="M466.06,-739.78C470.25,-737.34 474.07,-734.3 477,-730.5 547.95,-638.45 440.85,-562.61 513,-471.5 513.59,-470.76 514.21,-470.05 514.86,-469.36"/>
<polygon fill="#63b8ff" stroke="#63b8ff" points="517.13,-472.04 522.85,-463.12 512.82,-466.52 517.13,-472.04"/>
</a>
</g>
</g>
<!-- Node99 -->
<g id="Node000099" class="node">
<title>Node99</title>
<g id="a_Node000099"><a xlink:href="code__80091750_8c.html#a27c2fd73544e5512afbd4957acb44a3b" target="_top" xlink:title=" ">
<polygon fill="#fff0f0" stroke="red" points="607,-426 514,-426 514,-407 607,-407 607,-426"/>
<text text-anchor="middle" x="560.5" y="-414" font-family="Helvetica,sans-Serif" font-size="10.00">func_800ABC38</text>
</a>
</g>
</g>
<!-- Node6&#45;&gt;Node99 -->
<g id="edge37_Node000006_Node000099" class="edge">
<title>Node6&#45;&gt;Node99</title>
<g id="a_edge37_Node000006_Node000099"><a xlink:title=" ">
<path fill="none" stroke="#63b8ff" d="M466.12,-739.83C470.3,-737.38 474.11,-734.32 477,-730.5 557,-624.85 431.62,-539.09 513,-434.5 513.58,-433.75 514.2,-433.04 514.85,-432.35"/>
<polygon fill="#63b8ff" stroke="#63b8ff" points="517.11,-435.02 522.79,-426.07 512.78,-429.53 517.11,-435.02"/>
</a>
</g>
</g>
<!-- Node106 -->
<g id="Node000106" class="node">
<title>Node106</title>
<g id="a_Node000106"><a xlink:href="code__80091750_8c.html#a6760726bc9756621efc956080ca20af4" target="_top" xlink:title=" ">
<polygon fill="#fff0f0" stroke="red" points="607.5,-389 513.5,-389 513.5,-370 607.5,-370 607.5,-389"/>
<text text-anchor="middle" x="560.5" y="-377" font-family="Helvetica,sans-Serif" font-size="10.00">func_800ABEAC</text>
</a>
</g>
</g>
<!-- Node6&#45;&gt;Node106 -->
<g id="edge38_Node000006_Node000106" class="edge">
<title>Node6&#45;&gt;Node106</title>
<g id="a_edge38_Node000006_Node000106"><a xlink:title=" ">
<path fill="none" stroke="#63b8ff" d="M466.17,-739.86C470.34,-737.41 474.13,-734.34 477,-730.5 566.07,-611.23 422.37,-515.59 513,-397.5 513.58,-396.75 514.19,-396.03 514.83,-395.34"/>
<polygon fill="#63b8ff" stroke="#63b8ff" points="517.1,-398 522.75,-389.04 512.74,-392.53 517.1,-398"/>
</a>
</g>
</g>
<!-- Node108 -->
<g id="Node000108" class="node">
<title>Node108</title>
<g id="a_Node000108"><a xlink:href="code__80091750_8c.html#ada74b35092a24161832ed1e068f2b5ef" target="_top" xlink:title=" ">
<polygon fill="white" stroke="#666666" points="606.5,-352 514.5,-352 514.5,-333 606.5,-333 606.5,-352"/>
<text text-anchor="middle" x="560.5" y="-340" font-family="Helvetica,sans-Serif" font-size="10.00">func_800AC300</text>
</a>
</g>
</g>
<!-- Node6&#45;&gt;Node108 -->
<g id="edge39_Node000006_Node000108" class="edge">
<title>Node6&#45;&gt;Node108</title>
<g id="a_edge39_Node000006_Node000108"><a xlink:title=" ">
<path fill="none" stroke="#63b8ff" d="M466.21,-739.89C470.37,-737.43 474.15,-734.36 477,-730.5 575.15,-597.59 413.11,-492.11 513,-360.5 513.57,-359.75 514.18,-359.02 514.82,-358.33"/>
<polygon fill="#63b8ff" stroke="#63b8ff" points="517.09,-360.99 522.71,-352.01 512.72,-355.53 517.09,-360.99"/>
</a>
</g>
</g>
<!-- Node109 -->
<g id="Node000109" class="node">
<title>Node109</title>
<g id="a_Node000109"><a xlink:href="code__80091750_8c.html#a2955c6bc3037f78ba9c3147ecd8fe170" target="_top" xlink:title=" ">
<polygon fill="#fff0f0" stroke="red" points="606.5,-315 514.5,-315 514.5,-296 606.5,-296 606.5,-315"/>
<text text-anchor="middle" x="560.5" y="-303" font-family="Helvetica,sans-Serif" font-size="10.00">func_800AC324</text>
</a>
</g>
</g>
<!-- Node6&#45;&gt;Node109 -->
<g id="edge40_Node000006_Node000109" class="edge">
<title>Node6&#45;&gt;Node109</title>
<g id="a_edge40_Node000006_Node000109"><a xlink:title=" ">
<path fill="none" stroke="#63b8ff" d="M466.24,-739.91C470.4,-737.45 474.17,-734.37 477,-730.5 530.62,-657.23 458.42,-396.06 513,-323.5 513.47,-322.88 513.96,-322.28 514.48,-321.7"/>
<polygon fill="#63b8ff" stroke="#63b8ff" points="516.77,-324.34 522.24,-315.26 512.31,-318.95 516.77,-324.34"/>
</a>
</g>
</g>
<!-- Node112 -->
<g id="Node000112" class="node">
<title>Node112</title>
<g id="a_Node000112"><a xlink:href="code__80091750_8h.html#abd43c955fdd629554b2ba09e8a0a41cd" target="_top" xlink:title=" ">
<polygon fill="white" stroke="#666666" points="606.5,-278 514.5,-278 514.5,-259 606.5,-259 606.5,-278"/>
<text text-anchor="middle" x="560.5" y="-266" font-family="Helvetica,sans-Serif" font-size="10.00">func_800AC458</text>
</a>
</g>
</g>
<!-- Node6&#45;&gt;Node112 -->
<g id="edge41_Node000006_Node000112" class="edge">
<title>Node6&#45;&gt;Node112</title>
<g id="a_edge41_Node000006_Node000112"><a xlink:title=" ">
<path fill="none" stroke="#63b8ff" d="M466.26,-739.93C470.42,-737.47 474.18,-734.38 477,-730.5 535.16,-650.4 453.79,-365.83 513,-286.5 513.47,-285.88 513.96,-285.27 514.47,-284.69"/>
<polygon fill="#63b8ff" stroke="#63b8ff" points="516.77,-287.33 522.21,-278.24 512.29,-281.95 516.77,-287.33"/>
</a>
</g>
</g>
<!-- Node113 -->
<g id="Node000113" class="node">
<title>Node113</title>
<g id="a_Node000113"><a xlink:href="code__80091750_8c.html#a469ab5a6ea4b53a03f3b1fbf8afb713d" target="_top" xlink:title=" ">
<polygon fill="#fff0f0" stroke="red" points="606.5,-241 514.5,-241 514.5,-222 606.5,-222 606.5,-241"/>
<text text-anchor="middle" x="560.5" y="-229" font-family="Helvetica,sans-Serif" font-size="10.00">func_800AC978</text>
</a>
</g>
</g>
<!-- Node6&#45;&gt;Node113 -->
<g id="edge42_Node000006_Node000113" class="edge">
<title>Node6&#45;&gt;Node113</title>
<g id="a_edge42_Node000006_Node000113"><a xlink:title=" ">
<path fill="none" stroke="#63b8ff" d="M466.29,-739.95C470.44,-737.48 474.2,-734.39 477,-730.5 539.71,-643.57 449.15,-335.6 513,-249.5 513.46,-248.87 513.95,-248.27 514.46,-247.69"/>
<polygon fill="#63b8ff" stroke="#63b8ff" points="516.76,-250.33 522.19,-241.23 512.28,-244.96 516.76,-250.33"/>
</a>
</g>
</g>
<!-- Node114 -->
<g id="Node000114" class="node">
<title>Node114</title>
<g id="a_Node000114"><a xlink:href="code__80091750_8c.html#a6826562548bae179b92db89e98cff890" target="_top" xlink:title=" ">
<polygon fill="#fff0f0" stroke="red" points="607,-204 514,-204 514,-185 607,-185 607,-204"/>
<text text-anchor="middle" x="560.5" y="-192" font-family="Helvetica,sans-Serif" font-size="10.00">func_800ACA14</text>
</a>
</g>
</g>
<!-- Node6&#45;&gt;Node114 -->
<g id="edge43_Node000006_Node000114" class="edge">
<title>Node6&#45;&gt;Node114</title>
<g id="a_edge43_Node000006_Node000114"><a xlink:title=" ">
<path fill="none" stroke="#63b8ff" d="M466.3,-739.96C470.46,-737.5 474.21,-734.4 477,-730.5 544.26,-636.74 444.51,-305.37 513,-212.5 513.46,-211.87 513.95,-211.27 514.46,-210.68"/>
<polygon fill="#63b8ff" stroke="#63b8ff" points="516.76,-213.32 522.18,-204.22 512.26,-207.96 516.76,-213.32"/>
</a>
</g>
</g>
<!-- Node121 -->
<g id="Node000121" class="node">
<title>Node121</title>
<g id="a_Node000121"><a xlink:href="code__80091750_8c.html#a0dbb1191823c192a0f066690baab107c" target="_top" xlink:title=" ">
<polygon fill="#fff0f0" stroke="red" points="607,-167 514,-167 514,-148 607,-148 607,-167"/>
<text text-anchor="middle" x="560.5" y="-155" font-family="Helvetica,sans-Serif" font-size="10.00">func_800ACC50</text>
</a>
</g>
</g>
<!-- Node6&#45;&gt;Node121 -->
<g id="edge44_Node000006_Node000121" class="edge">
<title>Node6&#45;&gt;Node121</title>
<g id="a_edge44_Node000006_Node000121"><a xlink:title=" ">
<path fill="none" stroke="#63b8ff" d="M466.32,-739.97C470.47,-737.51 474.21,-734.4 477,-730.5 548.81,-629.91 439.88,-275.14 513,-175.5 513.46,-174.87 513.95,-174.27 514.46,-173.68"/>
<polygon fill="#63b8ff" stroke="#63b8ff" points="516.76,-176.32 522.16,-167.2 512.25,-170.96 516.76,-176.32"/>
</a>
</g>
</g>
<!-- Node123 -->
<g id="Node000123" class="node">
<title>Node123</title>
<g id="a_Node000123"><a xlink:href="code__80091750_8h.html#a0fc9b3c0cbd9feef77809042ef8c2f30" target="_top" xlink:title=" ">
<polygon fill="white" stroke="#666666" points="606.5,-130 514.5,-130 514.5,-111 606.5,-111 606.5,-130"/>
<text text-anchor="middle" x="560.5" y="-118" font-family="Helvetica,sans-Serif" font-size="10.00">func_800ACF40</text>
</a>
</g>
</g>
<!-- Node6&#45;&gt;Node123 -->
<g id="edge45_Node000006_Node000123" class="edge">
<title>Node6&#45;&gt;Node123</title>
<g id="a_edge45_Node000006_Node000123"><a xlink:title=" ">
<path fill="none" stroke="#63b8ff" d="M466.34,-739.98C470.48,-737.51 474.22,-734.41 477,-730.5 553.36,-623.08 435.23,-244.91 513,-138.5 513.46,-137.87 513.94,-137.26 514.45,-136.68"/>
<polygon fill="#63b8ff" stroke="#63b8ff" points="516.75,-139.31 522.15,-130.19 512.24,-133.96 516.75,-139.31"/>
</a>
</g>
</g>
<!-- Node124 -->
<g id="Node000124" class="node">
<title>Node124</title>
<g id="a_Node000124"><a xlink:href="code__80091750_8c.html#a3c54e0a77195cd5d608729cdcf59493f" target="_top" xlink:title=" ">
<polygon fill="#fff0f0" stroke="red" points="607.5,-93 513.5,-93 513.5,-74 607.5,-74 607.5,-93"/>
<text text-anchor="middle" x="560.5" y="-81" font-family="Helvetica,sans-Serif" font-size="10.00">func_800AD1A4</text>
</a>
</g>
</g>
<!-- Node6&#45;&gt;Node124 -->
<g id="edge46_Node000006_Node000124" class="edge">
<title>Node6&#45;&gt;Node124</title>
<g id="a_edge46_Node000006_Node000124"><a xlink:title=" ">
<path fill="none" stroke="#63b8ff" d="M466.35,-739.99C470.49,-737.52 474.23,-734.41 477,-730.5 557.91,-616.24 430.59,-214.69 513,-101.5 513.46,-100.87 513.94,-100.26 514.45,-99.68"/>
<polygon fill="#63b8ff" stroke="#63b8ff" points="516.75,-102.31 522.13,-93.19 512.24,-96.96 516.75,-102.31"/>
</a>
</g>
</g>
<!-- Node125 -->
<g id="Node000125" class="node">
<title>Node125</title>
<g id="a_Node000125"><a xlink:href="code__80091750_8c.html#a09a00ff1410bf5af3c09d3336c50a4ea" target="_top" xlink:title=" ">
<polygon fill="#fff0f0" stroke="red" points="607,-56 514,-56 514,-37 607,-37 607,-56"/>
<text text-anchor="middle" x="560.5" y="-44" font-family="Helvetica,sans-Serif" font-size="10.00">func_800AD2E8</text>
</a>
</g>
</g>
<!-- Node6&#45;&gt;Node125 -->
<g id="edge47_Node000006_Node000125" class="edge">
<title>Node6&#45;&gt;Node125</title>
<g id="a_edge47_Node000006_Node000125"><a xlink:title=" ">
<path fill="none" stroke="#63b8ff" d="M466.8,-739.73C470.77,-737.31 474.33,-734.28 477,-730.5 562.47,-609.41 425.95,-184.46 513,-64.5 513.46,-63.87 513.94,-63.26 514.45,-62.67"/>
<polygon fill="#63b8ff" stroke="#63b8ff" points="516.75,-65.31 522.12,-56.18 512.23,-59.96 516.75,-65.31"/>
</a>
</g>
</g>
<!-- Node150 -->
<g id="Node000150" class="node">
<title>Node150</title>
<g id="a_Node000150"><a xlink:href="code__80091750_8c.html#a47e4ce478584e457d7560a63d25c4678" target="_top" xlink:title=" ">
<polygon fill="#fff0f0" stroke="red" points="607,-19 514,-19 514,0 607,0 607,-19"/>
<text text-anchor="middle" x="560.5" y="-7" font-family="Helvetica,sans-Serif" font-size="10.00">func_800ADF48</text>
</a>
</g>
</g>
<!-- Node6&#45;&gt;Node150 -->
<g id="edge48_Node000006_Node000150" class="edge">
<title>Node6&#45;&gt;Node150</title>
<g id="a_edge48_Node000006_Node000150"><a xlink:title=" ">
<path fill="none" stroke="#63b8ff" d="M466.81,-739.74C470.78,-737.31 474.34,-734.28 477,-730.5 567.02,-602.57 421.31,-154.24 513,-27.5 513.46,-26.87 513.94,-26.26 514.44,-25.67"/>
<polygon fill="#63b8ff" stroke="#63b8ff" points="516.75,-28.31 522.11,-19.17 512.22,-22.97 516.75,-28.31"/>
</a>
</g>
</g>
<!-- Node18&#45;&gt;Node19 -->
<g id="edge13_Node000018_Node000019" class="edge">
<title>Node18&#45;&gt;Node19</title>
<g id="a_edge13_Node000018_Node000019"><a xlink:title=" ">
<path fill="none" stroke="#63b8ff" d="M593.67,-1259.91C609.83,-1255.1 629.61,-1249.2 646.95,-1244.03"/>
<polygon fill="#63b8ff" stroke="#63b8ff" points="648.25,-1247.3 656.84,-1241.09 646.25,-1240.59 648.25,-1247.3"/>
</a>
</g>
</g>
<!-- Node23&#45;&gt;Node19 -->
<g id="edge15_Node000023_Node000019" class="edge">
<title>Node23&#45;&gt;Node19</title>
<g id="a_edge15_Node000023_Node000019"><a xlink:title=" ">
<path fill="none" stroke="#63b8ff" d="M593.67,-1203.09C609.83,-1207.9 629.61,-1213.8 646.95,-1218.97"/>
<polygon fill="#63b8ff" stroke="#63b8ff" points="646.25,-1222.41 656.84,-1221.91 648.25,-1215.7 646.25,-1222.41"/>
</a>
</g>
</g>
<!-- Node181 -->
<g id="Node000181" class="node">
<title>Node181</title>
<g id="a_Node000181"><a xlink:href="guMtxF2L_8c.html#a40ab2d64c609839ff1e0ef0de2d0dcc4" target="_top" xlink:title=" ">
<polygon fill="white" stroke="#666666" points="463,-722 398,-722 398,-703 463,-703 463,-722"/>
<text text-anchor="middle" x="430.5" y="-710" font-family="Helvetica,sans-Serif" font-size="10.00">guMtxF2L</text>
</a>
</g>
</g>
<!-- Node180&#45;&gt;Node181 -->
<g id="edge50_Node000180_Node000181" class="edge">
<title>Node180&#45;&gt;Node181</title>
<g id="a_edge50_Node000180_Node000181"><a xlink:title=" ">
<path fill="none" stroke="#63b8ff" d="M329.74,-712.5C346.59,-712.5 368.57,-712.5 387.6,-712.5"/>
<polygon fill="#63b8ff" stroke="#63b8ff" points="387.82,-716 397.82,-712.5 387.82,-709 387.82,-716"/>
</a>
</g>
</g>
<!-- Node182 -->
<g id="Node000182" class="node">
<title>Node182</title>
<g id="a_Node000182"><a xlink:href="guOrthoF_8c.html#ae2f1eeb1f335f37cca279436f5f15f41" target="_top" xlink:title=" ">
<polygon fill="#fff0f0" stroke="red" points="461.5,-685 399.5,-685 399.5,-666 461.5,-666 461.5,-685"/>
<text text-anchor="middle" x="430.5" y="-673" font-family="Helvetica,sans-Serif" font-size="10.00">guOrthoF</text>
</a>
</g>
</g>
<!-- Node180&#45;&gt;Node182 -->
<g id="edge51_Node000180_Node000182" class="edge">
<title>Node180&#45;&gt;Node182</title>
<g id="a_edge51_Node000180_Node000182"><a xlink:title=" ">
<path fill="none" stroke="#63b8ff" d="M329.74,-704.56C347.12,-699.5 369.95,-692.85 389.38,-687.19"/>
<polygon fill="#63b8ff" stroke="#63b8ff" points="390.56,-690.49 399.19,-684.33 388.61,-683.77 390.56,-690.49"/>
</a>
</g>
</g>
</g>
</svg>
