<?xml version="1.0" encoding="UTF-8" standalone="no"?>
<!DOCTYPE svg PUBLIC "-//W3C//DTD SVG 1.1//EN"
 "http://www.w3.org/Graphics/SVG/1.1/DTD/svg11.dtd">
<!-- Generated by graphviz version 2.43.0 (0)
 -->
<!-- Title: text_rainbow_effect Pages: 1 -->
<svg width="249pt" height="64pt"
 viewBox="0.00 0.00 249.00 64.00" xmlns="http://www.w3.org/2000/svg" xmlns:xlink="http://www.w3.org/1999/xlink">
<g id="graph0" class="graph" transform="scale(1 1) rotate(0) translate(4 60)">
<title>text_rainbow_effect</title>
<!-- Node1 -->
<g id="Node000001" class="node">
<title>Node1</title>
<g id="a_Node000001"><a xlink:title=" ">
<polygon fill="#999999" stroke="#666666" points="113,-37 0,-37 0,-18 113,-18 113,-37"/>
<text text-anchor="middle" x="56.5" y="-25" font-family="Helvetica,sans-Serif" font-size="10.00">text_rainbow_effect</text>
</a>
</g>
</g>
<!-- Node2 -->
<g id="Node000002" class="node">
<title>Node2</title>
<g id="a_Node000002"><a xlink:href="menus_8c.html#aedd5438c1d912ced575b7f6255444285" target="_top" xlink:title=" ">
<polygon fill="white" stroke="#666666" points="241,-56 149,-56 149,-37 241,-37 241,-56"/>
<text text-anchor="middle" x="195" y="-44" font-family="Helvetica,sans-Serif" font-size="10.00">func_800B4520</text>
</a>
</g>
</g>
<!-- Node1&#45;&gt;Node2 -->
<g id="edge1_Node000001_Node000002" class="edge">
<title>Node1&#45;&gt;Node2</title>
<g id="a_edge1_Node000001_Node000002"><a xlink:title=" ">
<path fill="none" stroke="#63b8ff" d="M113.02,-35.23C121.61,-36.42 130.49,-37.66 139.07,-38.85"/>
<polygon fill="#63b8ff" stroke="#63b8ff" points="138.59,-42.32 148.97,-40.23 139.55,-35.39 138.59,-42.32"/>
</a>
</g>
</g>
<!-- Node3 -->
<g id="Node000003" class="node">
<title>Node3</title>
<g id="a_Node000003"><a xlink:href="code__80091750_8c.html#a1a002f259a6c887d6672085b8cda7d4d" target="_top" xlink:title=" ">
<polygon fill="white" stroke="#666666" points="238,-19 152,-19 152,0 238,0 238,-19"/>
<text text-anchor="middle" x="195" y="-7" font-family="Helvetica,sans-Serif" font-size="10.00">set_text_color</text>
</a>
</g>
</g>
<!-- Node1&#45;&gt;Node3 -->
<g id="edge2_Node000001_Node000003" class="edge">
<title>Node1&#45;&gt;Node3</title>
<g id="a_edge2_Node000001_Node000003"><a xlink:title=" ">
<path fill="none" stroke="#63b8ff" d="M113.02,-20.18C122.56,-18.92 132.44,-17.62 141.89,-16.37"/>
<polygon fill="#63b8ff" stroke="#63b8ff" points="142.48,-19.82 151.93,-15.05 141.56,-12.88 142.48,-19.82"/>
</a>
</g>
</g>
</g>
</svg>
