<?xml version="1.0" encoding="UTF-8" standalone="no"?>
<!DOCTYPE svg PUBLIC "-//W3C//DTD SVG 1.1//EN"
 "http://www.w3.org/Graphics/SVG/1.1/DTD/svg11.dtd">
<!-- Generated by graphviz version 2.43.0 (0)
 -->
<!-- Title: func_8008B888 Pages: 1 -->
<!--zoomable 560 -->
<svg id="main" version="1.1" xmlns="http://www.w3.org/2000/svg" xmlns:xlink="http://www.w3.org/1999/xlink" xml:space="preserve" onload="init(evt)">
<style type="text/css"><![CDATA[
.edge:hover path { stroke: red; }
.edge:hover polygon { stroke: red; fill: red; }
]]></style>
<script type="text/javascript"><![CDATA[
var edges = document.getElementsByTagName('g');
if (edges && edges.length) {
  for (var i=0;i<edges.length;i++) {
    if (edges[i].id.substr(0,4)=='edge') {
      edges[i].setAttribute('class','edge');
    }
  }
}
]]></script>
        <defs>
                <circle id="rim" cx="0" cy="0" r="7"/>
                <circle id="rim2" cx="0" cy="0" r="3.5"/>
                <g id="zoomPlus">
                        <use xlink:href="#rim" fill="#404040">
                                <set attributeName="fill" to="#808080" begin="zoomplus.mouseover" end="zoomplus.mouseout"/>
                        </use>
                        <path d="M-4,0h8M0,-4v8" fill="none" stroke="white" stroke-width="1.5" pointer-events="none"/>
                </g>
                <g id="zoomMin">
                        <use xlink:href="#rim" fill="#404040">
                                <set attributeName="fill" to="#808080" begin="zoomminus.mouseover" end="zoomminus.mouseout"/>
                        </use>
                        <path d="M-4,0h8" fill="none" stroke="white" stroke-width="1.5" pointer-events="none"/>
                </g>
                <g id="dirArrow">
                        <path fill="none" stroke="white" stroke-width="1.5" d="M0,-3.0v7 M-2.5,-0.5L0,-3.0L2.5,-0.5"/>
                </g>
               <g id="resetDef">
                       <use xlink:href="#rim2" fill="#404040">
                               <set attributeName="fill" to="#808080" begin="reset.mouseover" end="reset.mouseout"/>
                       </use>
               </g>
        </defs>

<script type="text/javascript">
var viewWidth = 1125;
var viewHeight = 560;
var sectionId = 'dynsection-167';
</script>
<script xlink:href="svgpan.js"/>
<svg id="graph" class="graph">
<g id="viewport">
<title>func_8008B888</title>
<polygon fill="white" stroke="transparent" points="-4,4 -4,-556 1121,-556 1121,4 -4,4"/>
<!-- Node1 -->
<g id="node1" class="node">
<title>Node1</title>
<g id="a_node1"><a xlink:title=" ">
<polygon fill="#bfbfbf" stroke="black" points="1025,-266.5 1025,-285.5 1117,-285.5 1117,-266.5 1025,-266.5"/>
<text text-anchor="middle" x="1071" y="-273.5" font-family="Helvetica,sans-Serif" font-size="10.00">func_8008B888</text>
</a>
</g>
</g>
<!-- Node2 -->
<g id="node2" class="node">
<title>Node2</title>
<g id="a_node2"><a xlink:href="code__80071F00_8c.html#a3f8b609a27613a323087685847c55199" target="_top" xlink:title=" ">
<polygon fill="white" stroke="black" points="897,-532.5 897,-551.5 988,-551.5 988,-532.5 897,-532.5"/>
<text text-anchor="middle" x="942.5" y="-539.5" font-family="Helvetica,sans-Serif" font-size="10.00">func_80077700</text>
</a>
</g>
</g>
<!-- Node1&#45;&gt;Node2 -->
<g id="edge1" class="edge">
<title>Node1&#45;&gt;Node2</title>
<path fill="none" stroke="midnightblue" d="M1068.91,-296.1C1065.38,-342.14 1050.56,-456.4 989,-523 985.51,-526.77 981.16,-529.82 976.54,-532.27"/>
<polygon fill="midnightblue" stroke="midnightblue" points="1072.42,-296.15 1069.59,-285.94 1065.43,-295.68 1072.42,-296.15"/>
</g>
<!-- Node14 -->
<g id="node7" class="node">
<title>Node14</title>
<g id="a_node7"><a xlink:href="code__80071F00_8c.html#a4ea03f4b97fbe001e6a01a00b0bc5593" target="_top" xlink:title=" ">
<polygon fill="white" stroke="black" points="896,-494.5 896,-513.5 989,-513.5 989,-494.5 896,-494.5"/>
<text text-anchor="middle" x="942.5" y="-501.5" font-family="Helvetica,sans-Serif" font-size="10.00">func_8007BDE0</text>
</a>
</g>
</g>
<!-- Node1&#45;&gt;Node14 -->
<g id="edge6" class="edge">
<title>Node1&#45;&gt;Node14</title>
<path fill="none" stroke="midnightblue" d="M1067.56,-295.73C1061.54,-336.38 1042.37,-430.23 989,-485 985.3,-488.8 980.72,-491.88 975.9,-494.35"/>
<polygon fill="midnightblue" stroke="midnightblue" points="1071.04,-296.14 1068.93,-285.75 1064.1,-295.19 1071.04,-296.14"/>
</g>
<!-- Node24 -->
<g id="node15" class="node">
<title>Node24</title>
<g id="a_node15"><a xlink:href="code__80071F00_8c.html#a3d784fefe578fc2a398127d231d3dbe7" target="_top" xlink:title=" ">
<polygon fill="white" stroke="black" points="896.5,-190.5 896.5,-209.5 988.5,-209.5 988.5,-190.5 896.5,-190.5"/>
<text text-anchor="middle" x="942.5" y="-197.5" font-family="Helvetica,sans-Serif" font-size="10.00">func_8007EC30</text>
</a>
</g>
</g>
<!-- Node1&#45;&gt;Node24 -->
<g id="edge16" class="edge">
<title>Node1&#45;&gt;Node24</title>
<path fill="none" stroke="midnightblue" d="M1050.15,-260.18C1034.22,-247.96 1010.97,-231.13 989,-219 982.85,-215.61 975.98,-212.44 969.47,-209.7"/>
<polygon fill="midnightblue" stroke="midnightblue" points="1048.15,-263.06 1058.19,-266.44 1052.45,-257.54 1048.15,-263.06"/>
</g>
<!-- Node29 -->
<g id="node20" class="node">
<title>Node29</title>
<g id="a_node20"><a xlink:href="code__80071F00_8c.html#af9de72653591af09cf67e86221eb8172" target="_top" xlink:title=" ">
<polygon fill="white" stroke="black" points="896.5,-152.5 896.5,-171.5 988.5,-171.5 988.5,-152.5 896.5,-152.5"/>
<text text-anchor="middle" x="942.5" y="-159.5" font-family="Helvetica,sans-Serif" font-size="10.00">func_8007EE5C</text>
</a>
</g>
</g>
<!-- Node1&#45;&gt;Node29 -->
<g id="edge22" class="edge">
<title>Node1&#45;&gt;Node29</title>
<path fill="none" stroke="midnightblue" d="M1058.35,-257.74C1044.18,-236.76 1018.46,-202.49 989,-181 984.02,-177.37 978.24,-174.28 972.51,-171.71"/>
<polygon fill="midnightblue" stroke="midnightblue" points="1055.6,-259.92 1064.03,-266.34 1061.45,-256.07 1055.6,-259.92"/>
</g>
<!-- Node31 -->
<g id="node22" class="node">
<title>Node31</title>
<g id="a_node22"><a xlink:href="code__80071F00_8c.html#abb7ef5cd18e8548851bc69e4fdd3971b" target="_top" xlink:title=" ">
<polygon fill="white" stroke="black" points="897.5,-114.5 897.5,-133.5 987.5,-133.5 987.5,-114.5 897.5,-114.5"/>
<text text-anchor="middle" x="942.5" y="-121.5" font-family="Helvetica,sans-Serif" font-size="10.00">func_8007FA08</text>
</a>
</g>
</g>
<!-- Node1&#45;&gt;Node31 -->
<g id="edge25" class="edge">
<title>Node1&#45;&gt;Node31</title>
<path fill="none" stroke="midnightblue" d="M1062.75,-256.6C1051.21,-228.1 1026.1,-174.87 989,-143 984.58,-139.21 979.3,-136.09 973.93,-133.55"/>
<polygon fill="midnightblue" stroke="midnightblue" points="1059.61,-258.17 1066.51,-266.21 1066.13,-255.63 1059.61,-258.17"/>
</g>
<!-- Node33 -->
<g id="node24" class="node">
<title>Node33</title>
<g id="a_node24"><a xlink:href="code__80071F00_8c.html#a08ee5d1755b2f87d1c50f0f241ea99b4" target="_top" xlink:title=" ">
<polygon fill="white" stroke="black" points="897,-76.5 897,-95.5 988,-95.5 988,-76.5 897,-76.5"/>
<text text-anchor="middle" x="942.5" y="-83.5" font-family="Helvetica,sans-Serif" font-size="10.00">func_80080078</text>
</a>
</g>
</g>
<!-- Node1&#45;&gt;Node33 -->
<g id="edge28" class="edge">
<title>Node1&#45;&gt;Node33</title>
<path fill="none" stroke="midnightblue" d="M1065.68,-256.57C1057,-221.72 1034.25,-148.18 989,-105 985.04,-101.22 980.21,-98.14 975.2,-95.65"/>
<polygon fill="midnightblue" stroke="midnightblue" points="1062.31,-257.52 1068.02,-266.44 1069.12,-255.9 1062.31,-257.52"/>
</g>
<!-- Node35 -->
<g id="node26" class="node">
<title>Node35</title>
<g id="a_node26"><a xlink:href="code__80071F00_8c.html#a91f68e3db042f8e9f17f16ab8848b3e0" target="_top" xlink:title=" ">
<polygon fill="white" stroke="black" points="896.5,-38.5 896.5,-57.5 988.5,-57.5 988.5,-38.5 896.5,-38.5"/>
<text text-anchor="middle" x="942.5" y="-45.5" font-family="Helvetica,sans-Serif" font-size="10.00">func_800802C0</text>
</a>
</g>
</g>
<!-- Node1&#45;&gt;Node35 -->
<g id="edge31" class="edge">
<title>Node1&#45;&gt;Node35</title>
<path fill="none" stroke="midnightblue" d="M1067.56,-256.27C1061.54,-215.62 1042.37,-121.77 989,-67 985.3,-63.2 980.72,-60.12 975.9,-57.65"/>
<polygon fill="midnightblue" stroke="midnightblue" points="1064.1,-256.81 1068.93,-266.25 1071.04,-255.86 1064.1,-256.81"/>
</g>
<!-- Node37 -->
<g id="node28" class="node">
<title>Node37</title>
<g id="a_node28"><a xlink:href="code__80071F00_8c.html#ace8beaefaad637fb53c79713c7888796" target="_top" xlink:title=" ">
<polygon fill="white" stroke="black" points="897,-0.5 897,-19.5 988,-19.5 988,-0.5 897,-0.5"/>
<text text-anchor="middle" x="942.5" y="-7.5" font-family="Helvetica,sans-Serif" font-size="10.00">func_80080524</text>
</a>
</g>
</g>
<!-- Node1&#45;&gt;Node37 -->
<g id="edge34" class="edge">
<title>Node1&#45;&gt;Node37</title>
<path fill="none" stroke="midnightblue" d="M1068.91,-255.9C1065.38,-209.86 1050.56,-95.6 989,-29 985.51,-25.23 981.16,-22.18 976.54,-19.73"/>
<polygon fill="midnightblue" stroke="midnightblue" points="1065.43,-256.32 1069.59,-266.06 1072.42,-255.85 1065.43,-256.32"/>
</g>
<!-- Node39 -->
<g id="node30" class="node">
<title>Node39</title>
<g id="a_node30"><a xlink:href="code__80071F00_8c.html#aacc9b0d60613f0a2c7502f857146f67a" target="_top" xlink:title=" ">
<polygon fill="white" stroke="black" points="897,-456.5 897,-475.5 988,-475.5 988,-456.5 897,-456.5"/>
<text text-anchor="middle" x="942.5" y="-463.5" font-family="Helvetica,sans-Serif" font-size="10.00">func_80081848</text>
</a>
</g>
</g>
<!-- Node1&#45;&gt;Node39 -->
<g id="edge37" class="edge">
<title>Node1&#45;&gt;Node39</title>
<path fill="none" stroke="midnightblue" d="M1065.68,-295.43C1057,-330.28 1034.25,-403.82 989,-447 985.04,-450.78 980.21,-453.86 975.2,-456.35"/>
<polygon fill="midnightblue" stroke="midnightblue" points="1069.12,-296.1 1068.02,-285.56 1062.31,-294.48 1069.12,-296.1"/>
</g>
<!-- Node43 -->
<g id="node34" class="node">
<title>Node43</title>
<g id="a_node34"><a xlink:href="code__80071F00_8c.html#aa7d8d4d4df94d4fde2848c9e5d558f83" target="_top" xlink:title=" ">
<polygon fill="white" stroke="black" points="896.5,-418.5 896.5,-437.5 988.5,-437.5 988.5,-418.5 896.5,-418.5"/>
<text text-anchor="middle" x="942.5" y="-425.5" font-family="Helvetica,sans-Serif" font-size="10.00">func_8008241C</text>
</a>
</g>
</g>
<!-- Node1&#45;&gt;Node43 -->
<g id="edge42" class="edge">
<title>Node1&#45;&gt;Node43</title>
<path fill="none" stroke="midnightblue" d="M1062.75,-295.4C1051.21,-323.9 1026.1,-377.13 989,-409 984.58,-412.79 979.3,-415.91 973.93,-418.45"/>
<polygon fill="midnightblue" stroke="midnightblue" points="1066.13,-296.37 1066.51,-285.79 1059.61,-293.83 1066.13,-296.37"/>
</g>
<!-- Node46 -->
<g id="node37" class="node">
<title>Node46</title>
<g id="a_node37"><a xlink:href="code__80071F00_8c.html#aadf7331a39f7238e8578a301449b42e5" target="_top" xlink:title=" ">
<polygon fill="white" stroke="black" points="897,-380.5 897,-399.5 988,-399.5 988,-380.5 897,-380.5"/>
<text text-anchor="middle" x="942.5" y="-387.5" font-family="Helvetica,sans-Serif" font-size="10.00">func_80084430</text>
</a>
</g>
</g>
<!-- Node1&#45;&gt;Node46 -->
<g id="edge46" class="edge">
<title>Node1&#45;&gt;Node46</title>
<path fill="none" stroke="midnightblue" d="M1058.35,-294.26C1044.18,-315.24 1018.46,-349.51 989,-371 984.02,-374.63 978.24,-377.72 972.51,-380.29"/>
<polygon fill="midnightblue" stroke="midnightblue" points="1061.45,-295.93 1064.03,-285.66 1055.6,-292.08 1061.45,-295.93"/>
</g>
<!-- Node49 -->
<g id="node40" class="node">
<title>Node49</title>
<g id="a_node40"><a xlink:href="code__80071F00_8c.html#a2413c440a46ef569b970d8902395b4de" target="_top" xlink:title=" ">
<polygon fill="white" stroke="black" points="896.5,-342.5 896.5,-361.5 988.5,-361.5 988.5,-342.5 896.5,-342.5"/>
<text text-anchor="middle" x="942.5" y="-349.5" font-family="Helvetica,sans-Serif" font-size="10.00">func_800845C8</text>
</a>
</g>
</g>
<!-- Node1&#45;&gt;Node49 -->
<g id="edge50" class="edge">
<title>Node1&#45;&gt;Node49</title>
<path fill="none" stroke="midnightblue" d="M1050.15,-291.82C1034.22,-304.04 1010.97,-320.87 989,-333 982.85,-336.39 975.98,-339.56 969.47,-342.3"/>
<polygon fill="midnightblue" stroke="midnightblue" points="1052.45,-294.46 1058.19,-285.56 1048.15,-288.94 1052.45,-294.46"/>
</g>
<!-- Node51 -->
<g id="node42" class="node">
<title>Node51</title>
<g id="a_node42"><a xlink:href="code__80071F00_8c.html#a5e84d12d9f2516125a40b3004e6162ab" target="_top" xlink:title=" ">
<polygon fill="white" stroke="black" points="897,-304.5 897,-323.5 988,-323.5 988,-304.5 897,-304.5"/>
<text text-anchor="middle" x="942.5" y="-311.5" font-family="Helvetica,sans-Serif" font-size="10.00">func_80085878</text>
</a>
</g>
</g>
<!-- Node1&#45;&gt;Node51 -->
<g id="edge53" class="edge">
<title>Node1&#45;&gt;Node51</title>
<path fill="none" stroke="midnightblue" d="M1028.27,-288.54C1011.06,-293.7 991.44,-299.6 975.41,-304.41"/>
<polygon fill="midnightblue" stroke="midnightblue" points="1029.51,-291.82 1038.08,-285.59 1027.49,-285.11 1029.51,-291.82"/>
</g>
<!-- Node54 -->
<g id="node45" class="node">
<title>Node54</title>
<g id="a_node45"><a xlink:href="code__80071F00_8c.html#a020bf503dac8a1755a3a5addd59ae0be" target="_top" xlink:title=" ">
<polygon fill="white" stroke="black" points="896.5,-266.5 896.5,-285.5 988.5,-285.5 988.5,-266.5 896.5,-266.5"/>
<text text-anchor="middle" x="942.5" y="-273.5" font-family="Helvetica,sans-Serif" font-size="10.00">func_8008629C</text>
</a>
</g>
</g>
<!-- Node1&#45;&gt;Node54 -->
<g id="edge57" class="edge">
<title>Node1&#45;&gt;Node54</title>
<path fill="none" stroke="midnightblue" d="M1014.43,-276C1005.9,-276 997.19,-276 988.92,-276"/>
<polygon fill="midnightblue" stroke="midnightblue" points="1014.69,-279.5 1024.69,-276 1014.69,-272.5 1014.69,-279.5"/>
</g>
<!-- Node57 -->
<g id="node48" class="node">
<title>Node57</title>
<g id="a_node48"><a xlink:href="code__80071F00_8c.html#a7d28f932aa7f913ec15a0b47cef0b0b4" target="_top" xlink:title=" ">
<polygon fill="white" stroke="black" points="897,-228.5 897,-247.5 988,-247.5 988,-228.5 897,-228.5"/>
<text text-anchor="middle" x="942.5" y="-235.5" font-family="Helvetica,sans-Serif" font-size="10.00">func_80086700</text>
</a>
</g>
</g>
<!-- Node1&#45;&gt;Node57 -->
<g id="edge61" class="edge">
<title>Node1&#45;&gt;Node57</title>
<path fill="none" stroke="midnightblue" d="M1028.27,-263.46C1011.06,-258.3 991.44,-252.4 975.41,-247.59"/>
<polygon fill="midnightblue" stroke="midnightblue" points="1027.49,-266.89 1038.08,-266.41 1029.51,-260.18 1027.49,-266.89"/>
</g>
<!-- Node3 -->
<g id="node3" class="node">
<title>Node3</title>
<g id="a_node3"><a xlink:href="code__80071F00_8c.html#ae59e8278973af3a01fa65b157f2025cd" target="_top" xlink:title=" ">
<polygon fill="white" stroke="black" points="767.5,-532.5 767.5,-551.5 859.5,-551.5 859.5,-532.5 767.5,-532.5"/>
<text text-anchor="middle" x="813.5" y="-539.5" font-family="Helvetica,sans-Serif" font-size="10.00">func_80077A54</text>
</a>
</g>
</g>
<!-- Node2&#45;&gt;Node3 -->
<g id="edge2" class="edge">
<title>Node2&#45;&gt;Node3</title>
<path fill="none" stroke="midnightblue" d="M886.7,-542C877.7,-542 868.46,-542 859.73,-542"/>
<polygon fill="midnightblue" stroke="midnightblue" points="886.72,-545.5 896.72,-542 886.72,-538.5 886.72,-545.5"/>
</g>
<!-- Node4 -->
<g id="node4" class="node">
<title>Node4</title>
<g id="a_node4"><a xlink:href="code__80071F00_8c.html#add5228b07e0da54fc688397b56b625bd" target="_top" xlink:title=" ">
<polygon fill="white" stroke="black" points="639,-532.5 639,-551.5 731,-551.5 731,-532.5 639,-532.5"/>
<text text-anchor="middle" x="685" y="-539.5" font-family="Helvetica,sans-Serif" font-size="10.00">func_80077AB0</text>
</a>
</g>
</g>
<!-- Node3&#45;&gt;Node4 -->
<g id="edge3" class="edge">
<title>Node3&#45;&gt;Node4</title>
<path fill="none" stroke="midnightblue" d="M756.93,-542C748.4,-542 739.69,-542 731.42,-542"/>
<polygon fill="midnightblue" stroke="midnightblue" points="757.19,-545.5 767.19,-542 757.19,-538.5 757.19,-545.5"/>
</g>
<!-- Node5 -->
<g id="node5" class="node">
<title>Node5</title>
<g id="a_node5"><a xlink:href="actors_8c.html#a6c0c7ff521283f65486bac69b3e00e49" target="_top" xlink:title=" ">
<polygon fill="white" stroke="black" points="511,-532.5 511,-551.5 603,-551.5 603,-532.5 511,-532.5"/>
<text text-anchor="middle" x="557" y="-539.5" font-family="Helvetica,sans-Serif" font-size="10.00">func_8029F69C</text>
</a>
</g>
</g>
<!-- Node4&#45;&gt;Node5 -->
<g id="edge4" class="edge">
<title>Node4&#45;&gt;Node5</title>
<path fill="none" stroke="midnightblue" d="M628.65,-542C620.16,-542 611.48,-542 603.24,-542"/>
<polygon fill="midnightblue" stroke="midnightblue" points="628.87,-545.5 638.87,-542 628.87,-538.5 628.87,-545.5"/>
</g>
<!-- Node6 -->
<g id="node6" class="node">
<title>Node6</title>
<g id="a_node6"><a xlink:href="actors_8c.html#a5d0cc071261caa5b76190cfee9c90189" target="_top" xlink:title=" ">
<polygon fill="white" stroke="red" points="383,-532.5 383,-551.5 475,-551.5 475,-532.5 383,-532.5"/>
<text text-anchor="middle" x="429" y="-539.5" font-family="Helvetica,sans-Serif" font-size="10.00">func_802A0450</text>
</a>
</g>
</g>
<!-- Node5&#45;&gt;Node6 -->
<g id="edge5" class="edge">
<title>Node5&#45;&gt;Node6</title>
<path fill="none" stroke="midnightblue" d="M500.65,-542C492.16,-542 483.48,-542 475.24,-542"/>
<polygon fill="midnightblue" stroke="midnightblue" points="500.87,-545.5 510.87,-542 500.87,-538.5 500.87,-545.5"/>
</g>
<!-- Node15 -->
<g id="node8" class="node">
<title>Node15</title>
<g id="a_node8"><a xlink:href="code__80071F00_8c.html#a9c71caae58f646ca1a6c90e33a61acdd" target="_top" xlink:title=" ">
<polygon fill="white" stroke="black" points="767.5,-494.5 767.5,-513.5 859.5,-513.5 859.5,-494.5 767.5,-494.5"/>
<text text-anchor="middle" x="813.5" y="-501.5" font-family="Helvetica,sans-Serif" font-size="10.00">func_8007BEC8</text>
</a>
</g>
</g>
<!-- Node14&#45;&gt;Node15 -->
<g id="edge7" class="edge">
<title>Node14&#45;&gt;Node15</title>
<path fill="none" stroke="midnightblue" d="M885.37,-504C876.84,-504 868.12,-504 859.86,-504"/>
<polygon fill="midnightblue" stroke="midnightblue" points="885.65,-507.5 895.65,-504 885.65,-500.5 885.65,-507.5"/>
</g>
<!-- Node16 -->
<g id="node9" class="node">
<title>Node16</title>
<g id="a_node9"><a xlink:href="code__80071F00_8c.html#ab93974a608cb1b351f9841dd19ca4b7e" target="_top" xlink:title=" ">
<polygon fill="white" stroke="black" points="639,-489.5 639,-508.5 731,-508.5 731,-489.5 639,-489.5"/>
<text text-anchor="middle" x="685" y="-496.5" font-family="Helvetica,sans-Serif" font-size="10.00">func_8007C280</text>
</a>
</g>
</g>
<!-- Node15&#45;&gt;Node16 -->
<g id="edge8" class="edge">
<title>Node15&#45;&gt;Node16</title>
<path fill="none" stroke="midnightblue" d="M756.93,-501.8C748.4,-501.47 739.69,-501.12 731.42,-500.8"/>
<polygon fill="midnightblue" stroke="midnightblue" points="757.06,-505.31 767.19,-502.21 757.33,-498.32 757.06,-505.31"/>
</g>
<!-- Node17 -->
<g id="node10" class="node">
<title>Node17</title>
<g id="a_node10"><a xlink:href="code__80071F00_8c.html#ab19d51fb1288d16e729e88ab4b9dcf9f" target="_top" xlink:title=" ">
<polygon fill="white" stroke="black" points="511,-456.5 511,-475.5 603,-475.5 603,-456.5 511,-456.5"/>
<text text-anchor="middle" x="557" y="-463.5" font-family="Helvetica,sans-Serif" font-size="10.00">func_8007C2F8</text>
</a>
</g>
</g>
<!-- Node16&#45;&gt;Node17 -->
<g id="edge9" class="edge">
<title>Node16&#45;&gt;Node17</title>
<path fill="none" stroke="midnightblue" d="M637.87,-486.92C623.53,-483.16 607.94,-479.08 594.36,-475.52"/>
<polygon fill="midnightblue" stroke="midnightblue" points="637,-490.31 647.56,-489.46 638.77,-483.54 637,-490.31"/>
</g>
<!-- Node18 -->
<g id="node11" class="node">
<title>Node18</title>
<g id="a_node11"><a xlink:href="code__80057C60_8c.html#a86b7dba9c0715c4d7fdf8ce61c0738bc" target="_top" xlink:title=" ">
<polygon fill="white" stroke="red" points="127,-285.5 127,-304.5 219,-304.5 219,-285.5 127,-285.5"/>
<text text-anchor="middle" x="173" y="-292.5" font-family="Helvetica,sans-Serif" font-size="10.00">func_8005A070</text>
</a>
</g>
</g>
<!-- Node17&#45;&gt;Node18 -->
<g id="edge10" class="edge">
<title>Node17&#45;&gt;Node18</title>
<path fill="none" stroke="midnightblue" d="M511.34,-453.57C451.09,-435.89 341.37,-400.39 255,-354 228.18,-339.59 200.18,-317.31 185.14,-304.66"/>
<polygon fill="midnightblue" stroke="midnightblue" points="510.71,-457.04 521.29,-456.46 512.66,-450.31 510.71,-457.04"/>
</g>
<!-- Node22 -->
<g id="node13" class="node">
<title>Node22</title>
<g id="a_node13"><a xlink:href="code__80057C60_8c.html#a3de7d81d0ab030980ab3b2ea5bcf901e" target="_top" xlink:title=" ">
<polygon fill="white" stroke="black" points="383,-342.5 383,-361.5 475,-361.5 475,-342.5 383,-342.5"/>
<text text-anchor="middle" x="429" y="-349.5" font-family="Helvetica,sans-Serif" font-size="10.00">func_8005A74C</text>
</a>
</g>
</g>
<!-- Node17&#45;&gt;Node22 -->
<g id="edge12" class="edge">
<title>Node17&#45;&gt;Node22</title>
<path fill="none" stroke="midnightblue" d="M518.58,-451.85C515.93,-450.35 513.37,-448.74 511,-447 477.08,-422.15 448.05,-380.41 435.98,-361.65"/>
<polygon fill="midnightblue" stroke="midnightblue" points="517.28,-455.11 527.78,-456.47 520.41,-448.86 517.28,-455.11"/>
</g>
<!-- Node19 -->
<g id="node12" class="node">
<title>Node19</title>
<g id="a_node12"><a xlink:href="code__80280000_8c.html#a4d9b0156b64d7a67e4cb21cde391ca43" target="_top" xlink:title=" ">
<polygon fill="white" stroke="red" points="0,-247.5 0,-266.5 91,-266.5 91,-247.5 0,-247.5"/>
<text text-anchor="middle" x="45.5" y="-254.5" font-family="Helvetica,sans-Serif" font-size="10.00">func_80280000</text>
</a>
</g>
</g>
<!-- Node18&#45;&gt;Node19 -->
<g id="edge11" class="edge">
<title>Node18&#45;&gt;Node19</title>
<path fill="none" stroke="midnightblue" d="M130.6,-282.46C113.53,-277.3 94.06,-271.4 78.16,-266.59"/>
<polygon fill="midnightblue" stroke="midnightblue" points="129.75,-285.86 140.33,-285.41 131.77,-279.16 129.75,-285.86"/>
</g>
<!-- Node22&#45;&gt;Node18 -->
<g id="edge15" class="edge">
<title>Node22&#45;&gt;Node18</title>
<path fill="none" stroke="midnightblue" d="M372.47,-350.54C338.1,-348.5 293.36,-343.78 255,-333 231.37,-326.36 206.06,-313.44 190.14,-304.52"/>
<polygon fill="midnightblue" stroke="midnightblue" points="372.61,-354.05 382.78,-351.09 372.99,-347.06 372.61,-354.05"/>
</g>
<!-- Node23 -->
<g id="node14" class="node">
<title>Node23</title>
<g id="a_node14"><a xlink:href="code__80057C60_8c.html#a48f7fc1ba7acccec2d7b6e0a59f65dc5" target="_top" xlink:title=" ">
<polygon fill="white" stroke="black" points="255,-304.5 255,-323.5 347,-323.5 347,-304.5 255,-304.5"/>
<text text-anchor="middle" x="301" y="-311.5" font-family="Helvetica,sans-Serif" font-size="10.00">func_80059D00</text>
</a>
</g>
</g>
<!-- Node22&#45;&gt;Node23 -->
<g id="edge13" class="edge">
<title>Node22&#45;&gt;Node23</title>
<path fill="none" stroke="midnightblue" d="M386.44,-339.46C369.29,-334.3 349.75,-328.4 333.78,-323.59"/>
<polygon fill="midnightblue" stroke="midnightblue" points="385.62,-342.87 396.2,-342.41 387.64,-336.17 385.62,-342.87"/>
</g>
<!-- Node23&#45;&gt;Node18 -->
<g id="edge14" class="edge">
<title>Node23&#45;&gt;Node18</title>
<path fill="none" stroke="midnightblue" d="M244.93,-305.7C236.35,-304.4 227.57,-303.08 219.24,-301.82"/>
<polygon fill="midnightblue" stroke="midnightblue" points="244.46,-309.16 254.87,-307.19 245.5,-302.24 244.46,-309.16"/>
</g>
<!-- Node25 -->
<g id="node16" class="node">
<title>Node25</title>
<g id="a_node16"><a xlink:href="code__80071F00_8c.html#a97a0db678a72fb74643c62b4dcf0f6a6" target="_top" xlink:title=" ">
<polygon fill="white" stroke="black" points="767,-190.5 767,-209.5 860,-209.5 860,-190.5 767,-190.5"/>
<text text-anchor="middle" x="813.5" y="-197.5" font-family="Helvetica,sans-Serif" font-size="10.00">func_8007ED6C</text>
</a>
</g>
</g>
<!-- Node24&#45;&gt;Node25 -->
<g id="edge17" class="edge">
<title>Node24&#45;&gt;Node25</title>
<path fill="none" stroke="midnightblue" d="M886.33,-200C877.66,-200 868.77,-200 860.34,-200"/>
<polygon fill="midnightblue" stroke="midnightblue" points="886.37,-203.5 896.37,-200 886.37,-196.5 886.37,-203.5"/>
</g>
<!-- Node26 -->
<g id="node17" class="node">
<title>Node26</title>
<g id="a_node17"><a xlink:href="code__80071F00_8c.html#a8afc56ea0d06d8d9d473e5883925c9a9" target="_top" xlink:title=" ">
<polygon fill="white" stroke="black" points="639.5,-114.5 639.5,-133.5 730.5,-133.5 730.5,-114.5 639.5,-114.5"/>
<text text-anchor="middle" x="685" y="-121.5" font-family="Helvetica,sans-Serif" font-size="10.00">func_80081210</text>
</a>
</g>
</g>
<!-- Node25&#45;&gt;Node26 -->
<g id="edge18" class="edge">
<title>Node25&#45;&gt;Node26</title>
<path fill="none" stroke="midnightblue" d="M777.25,-186.19C773.74,-184.54 770.26,-182.8 767,-181 740.96,-166.62 713.12,-145.65 697.81,-133.56"/>
<polygon fill="midnightblue" stroke="midnightblue" points="775.97,-189.45 786.53,-190.3 778.81,-183.05 775.97,-189.45"/>
</g>
<!-- Node27 -->
<g id="node18" class="node">
<title>Node27</title>
<g id="a_node18"><a xlink:href="code__80057C60_8c.html#a8a7fdf4fc705765c9463a477e3ef1858" target="_top" xlink:title=" ">
<polygon fill="white" stroke="black" points="511,-133.5 511,-152.5 603,-152.5 603,-133.5 511,-133.5"/>
<text text-anchor="middle" x="557" y="-140.5" font-family="Helvetica,sans-Serif" font-size="10.00">func_8005A71C</text>
</a>
</g>
</g>
<!-- Node26&#45;&gt;Node27 -->
<g id="edge19" class="edge">
<title>Node26&#45;&gt;Node27</title>
<path fill="none" stroke="midnightblue" d="M629.14,-132.27C620.43,-133.59 611.51,-134.93 603.06,-136.21"/>
<polygon fill="midnightblue" stroke="midnightblue" points="629.86,-135.7 639.22,-130.75 628.81,-128.78 629.86,-135.7"/>
</g>
<!-- Node28 -->
<g id="node19" class="node">
<title>Node28</title>
<g id="a_node19"><a xlink:href="code__80057C60_8c.html#ae61bd9f49508d924387c00845cae4060" target="_top" xlink:title=" ">
<polygon fill="white" stroke="red" points="127,-228.5 127,-247.5 219,-247.5 219,-228.5 127,-228.5"/>
<text text-anchor="middle" x="173" y="-235.5" font-family="Helvetica,sans-Serif" font-size="10.00">func_80059AC8</text>
</a>
</g>
</g>
<!-- Node27&#45;&gt;Node28 -->
<g id="edge20" class="edge">
<title>Node27&#45;&gt;Node28</title>
<path fill="none" stroke="midnightblue" d="M507.72,-155.01C430.91,-174.11 282.41,-211.04 212.35,-228.46"/>
<polygon fill="midnightblue" stroke="midnightblue" points="508.76,-158.35 517.62,-152.54 507.07,-151.56 508.76,-158.35"/>
</g>
<!-- Node28&#45;&gt;Node19 -->
<g id="edge21" class="edge">
<title>Node28&#45;&gt;Node19</title>
<path fill="none" stroke="midnightblue" d="M116.53,-246.4C108.1,-247.67 99.49,-248.98 91.32,-250.21"/>
<polygon fill="midnightblue" stroke="midnightblue" points="117.33,-249.82 126.69,-244.86 116.28,-242.9 117.33,-249.82"/>
</g>
<!-- Node30 -->
<g id="node21" class="node">
<title>Node30</title>
<g id="a_node21"><a xlink:href="code__80071F00_8c.html#a959f14e28be6bc4b2ef643c91933118d" target="_top" xlink:title=" ">
<polygon fill="white" stroke="black" points="767.5,-152.5 767.5,-171.5 859.5,-171.5 859.5,-152.5 767.5,-152.5"/>
<text text-anchor="middle" x="813.5" y="-159.5" font-family="Helvetica,sans-Serif" font-size="10.00">func_8007F5A8</text>
</a>
</g>
</g>
<!-- Node29&#45;&gt;Node30 -->
<g id="edge23" class="edge">
<title>Node29&#45;&gt;Node30</title>
<path fill="none" stroke="midnightblue" d="M886.2,-162C877.42,-162 868.43,-162 859.92,-162"/>
<polygon fill="midnightblue" stroke="midnightblue" points="886.37,-165.5 896.37,-162 886.37,-158.5 886.37,-165.5"/>
</g>
<!-- Node30&#45;&gt;Node26 -->
<g id="edge24" class="edge">
<title>Node30&#45;&gt;Node26</title>
<path fill="none" stroke="midnightblue" d="M770.77,-149.46C753.56,-144.3 733.94,-138.4 717.91,-133.59"/>
<polygon fill="midnightblue" stroke="midnightblue" points="769.99,-152.89 780.58,-152.41 772.01,-146.18 769.99,-152.89"/>
</g>
<!-- Node32 -->
<g id="node23" class="node">
<title>Node32</title>
<g id="a_node23"><a xlink:href="code__80071F00_8c.html#aaeded00d33e7ae72ce35e159985f53d6" target="_top" xlink:title=" ">
<polygon fill="white" stroke="black" points="767.5,-114.5 767.5,-133.5 859.5,-133.5 859.5,-114.5 767.5,-114.5"/>
<text text-anchor="middle" x="813.5" y="-121.5" font-family="Helvetica,sans-Serif" font-size="10.00">func_8007FFC0</text>
</a>
</g>
</g>
<!-- Node31&#45;&gt;Node32 -->
<g id="edge26" class="edge">
<title>Node31&#45;&gt;Node32</title>
<path fill="none" stroke="midnightblue" d="M887.25,-124C878.09,-124 868.68,-124 859.78,-124"/>
<polygon fill="midnightblue" stroke="midnightblue" points="887.44,-127.5 897.44,-124 887.44,-120.5 887.44,-127.5"/>
</g>
<!-- Node32&#45;&gt;Node26 -->
<g id="edge27" class="edge">
<title>Node32&#45;&gt;Node26</title>
<path fill="none" stroke="midnightblue" d="M756.96,-124C748.13,-124 739.1,-124 730.57,-124"/>
<polygon fill="midnightblue" stroke="midnightblue" points="757.19,-127.5 767.19,-124 757.19,-120.5 757.19,-127.5"/>
</g>
<!-- Node34 -->
<g id="node25" class="node">
<title>Node34</title>
<g id="a_node25"><a xlink:href="code__80071F00_8c.html#a06d77efdc67bfef1e59204e7fd69b34e" target="_top" xlink:title=" ">
<polygon fill="white" stroke="black" points="767.5,-76.5 767.5,-95.5 859.5,-95.5 859.5,-76.5 767.5,-76.5"/>
<text text-anchor="middle" x="813.5" y="-83.5" font-family="Helvetica,sans-Serif" font-size="10.00">func_800801FC</text>
</a>
</g>
</g>
<!-- Node33&#45;&gt;Node34 -->
<g id="edge29" class="edge">
<title>Node33&#45;&gt;Node34</title>
<path fill="none" stroke="midnightblue" d="M886.7,-86C877.7,-86 868.46,-86 859.73,-86"/>
<polygon fill="midnightblue" stroke="midnightblue" points="886.72,-89.5 896.72,-86 886.72,-82.5 886.72,-89.5"/>
</g>
<!-- Node34&#45;&gt;Node26 -->
<g id="edge30" class="edge">
<title>Node34&#45;&gt;Node26</title>
<path fill="none" stroke="midnightblue" d="M770.77,-98.54C753.56,-103.7 733.94,-109.6 717.91,-114.41"/>
<polygon fill="midnightblue" stroke="midnightblue" points="772.01,-101.82 780.58,-95.59 769.99,-95.11 772.01,-101.82"/>
</g>
<!-- Node36 -->
<g id="node27" class="node">
<title>Node36</title>
<g id="a_node27"><a xlink:href="code__80071F00_8c.html#a954cae767f5352e4be4a8bd9d77cc824" target="_top" xlink:title=" ">
<polygon fill="white" stroke="black" points="768,-38.5 768,-57.5 859,-57.5 859,-38.5 768,-38.5"/>
<text text-anchor="middle" x="813.5" y="-45.5" font-family="Helvetica,sans-Serif" font-size="10.00">func_80080408</text>
</a>
</g>
</g>
<!-- Node35&#45;&gt;Node36 -->
<g id="edge32" class="edge">
<title>Node35&#45;&gt;Node36</title>
<path fill="none" stroke="midnightblue" d="M886.25,-48C877.16,-48 867.84,-48 859.06,-48"/>
<polygon fill="midnightblue" stroke="midnightblue" points="886.37,-51.5 896.37,-48 886.37,-44.5 886.37,-51.5"/>
</g>
<!-- Node36&#45;&gt;Node26 -->
<g id="edge33" class="edge">
<title>Node36&#45;&gt;Node26</title>
<path fill="none" stroke="midnightblue" d="M777.25,-61.81C773.74,-63.46 770.26,-65.2 767,-67 740.96,-81.38 713.12,-102.35 697.81,-114.44"/>
<polygon fill="midnightblue" stroke="midnightblue" points="778.81,-64.95 786.53,-57.7 775.97,-58.55 778.81,-64.95"/>
</g>
<!-- Node38 -->
<g id="node29" class="node">
<title>Node38</title>
<g id="a_node29"><a xlink:href="code__80071F00_8c.html#ae2ff9989b0aaaaf8fb3b0a9d26aa9c2c" target="_top" xlink:title=" ">
<polygon fill="white" stroke="black" points="767.5,-0.5 767.5,-19.5 859.5,-19.5 859.5,-0.5 767.5,-0.5"/>
<text text-anchor="middle" x="813.5" y="-7.5" font-family="Helvetica,sans-Serif" font-size="10.00">func_800808CC</text>
</a>
</g>
</g>
<!-- Node37&#45;&gt;Node38 -->
<g id="edge35" class="edge">
<title>Node37&#45;&gt;Node38</title>
<path fill="none" stroke="midnightblue" d="M886.7,-10C877.7,-10 868.46,-10 859.73,-10"/>
<polygon fill="midnightblue" stroke="midnightblue" points="886.72,-13.5 896.72,-10 886.72,-6.5 886.72,-13.5"/>
</g>
<!-- Node38&#45;&gt;Node26 -->
<g id="edge36" class="edge">
<title>Node38&#45;&gt;Node26</title>
<path fill="none" stroke="midnightblue" d="M774.44,-24.25C771.84,-25.71 769.33,-27.3 767,-29 733.03,-53.78 704.03,-95.56 691.97,-114.34"/>
<polygon fill="midnightblue" stroke="midnightblue" points="776.12,-27.32 783.49,-19.71 772.98,-21.06 776.12,-27.32"/>
</g>
<!-- Node40 -->
<g id="node31" class="node">
<title>Node40</title>
<g id="a_node31"><a xlink:href="code__80071F00_8c.html#a76c986375d316888fd69967b818ae7f3" target="_top" xlink:title=" ">
<polygon fill="white" stroke="black" points="767.5,-456.5 767.5,-475.5 859.5,-475.5 859.5,-456.5 767.5,-456.5"/>
<text text-anchor="middle" x="813.5" y="-463.5" font-family="Helvetica,sans-Serif" font-size="10.00">func_80081AFC</text>
</a>
</g>
</g>
<!-- Node39&#45;&gt;Node40 -->
<g id="edge38" class="edge">
<title>Node39&#45;&gt;Node40</title>
<path fill="none" stroke="midnightblue" d="M886.7,-466C877.7,-466 868.46,-466 859.73,-466"/>
<polygon fill="midnightblue" stroke="midnightblue" points="886.72,-469.5 896.72,-466 886.72,-462.5 886.72,-469.5"/>
</g>
<!-- Node41 -->
<g id="node32" class="node">
<title>Node41</title>
<g id="a_node32"><a xlink:href="code__80071F00_8c.html#ae5e26a21ac6841ca7c3e4ff567c8b5c9" target="_top" xlink:title=" ">
<polygon fill="white" stroke="black" points="639,-446.5 639,-465.5 731,-465.5 731,-446.5 639,-446.5"/>
<text text-anchor="middle" x="685" y="-453.5" font-family="Helvetica,sans-Serif" font-size="10.00">func_800821AC</text>
</a>
</g>
</g>
<!-- Node40&#45;&gt;Node41 -->
<g id="edge39" class="edge">
<title>Node40&#45;&gt;Node41</title>
<path fill="none" stroke="midnightblue" d="M757.21,-461.63C748.59,-460.95 739.78,-460.25 731.42,-459.59"/>
<polygon fill="midnightblue" stroke="midnightblue" points="756.94,-465.12 767.19,-462.42 757.49,-458.14 756.94,-465.12"/>
</g>
<!-- Node42 -->
<g id="node33" class="node">
<title>Node42</title>
<g id="a_node33"><a xlink:href="code__80071F00_8c.html#abeb96b20ac8af613fd90648c078e54e7" target="_top" xlink:title=" ">
<polygon fill="white" stroke="black" points="511,-418.5 511,-437.5 603,-437.5 603,-418.5 511,-418.5"/>
<text text-anchor="middle" x="557" y="-425.5" font-family="Helvetica,sans-Serif" font-size="10.00">func_800821FC</text>
</a>
</g>
</g>
<!-- Node41&#45;&gt;Node42 -->
<g id="edge40" class="edge">
<title>Node41&#45;&gt;Node42</title>
<path fill="none" stroke="midnightblue" d="M631.06,-444.24C620.98,-441.99 610.54,-439.68 600.82,-437.51"/>
<polygon fill="midnightblue" stroke="midnightblue" points="630.47,-447.69 640.99,-446.44 631.99,-440.86 630.47,-447.69"/>
</g>
<!-- Node42&#45;&gt;Node22 -->
<g id="edge41" class="edge">
<title>Node42&#45;&gt;Node22</title>
<path fill="none" stroke="midnightblue" d="M521.39,-414.28C517.83,-412.61 514.31,-410.84 511,-409 484.98,-394.57 457.14,-373.61 441.82,-361.54"/>
<polygon fill="midnightblue" stroke="midnightblue" points="520.23,-417.6 530.79,-418.47 523.08,-411.21 520.23,-417.6"/>
</g>
<!-- Node44 -->
<g id="node35" class="node">
<title>Node44</title>
<g id="a_node35"><a xlink:href="code__80071F00_8c.html#abdd71bdd5ef5b8ff3e3793f69450002b" target="_top" xlink:title=" ">
<polygon fill="white" stroke="black" points="768,-418.5 768,-437.5 859,-437.5 859,-418.5 768,-418.5"/>
<text text-anchor="middle" x="813.5" y="-425.5" font-family="Helvetica,sans-Serif" font-size="10.00">func_80082714</text>
</a>
</g>
</g>
<!-- Node43&#45;&gt;Node44 -->
<g id="edge43" class="edge">
<title>Node43&#45;&gt;Node44</title>
<path fill="none" stroke="midnightblue" d="M886.25,-428C877.16,-428 867.84,-428 859.06,-428"/>
<polygon fill="midnightblue" stroke="midnightblue" points="886.37,-431.5 896.37,-428 886.37,-424.5 886.37,-431.5"/>
</g>
<!-- Node45 -->
<g id="node36" class="node">
<title>Node45</title>
<g id="a_node36"><a xlink:href="code__80071F00_8c.html#a083acc5eddd6095b3c9f21a9fdea7fca" target="_top" xlink:title=" ">
<polygon fill="white" stroke="black" points="511.5,-380.5 511.5,-399.5 602.5,-399.5 602.5,-380.5 511.5,-380.5"/>
<text text-anchor="middle" x="557" y="-387.5" font-family="Helvetica,sans-Serif" font-size="10.00">func_80082870</text>
</a>
</g>
</g>
<!-- Node44&#45;&gt;Node45 -->
<g id="edge44" class="edge">
<title>Node44&#45;&gt;Node45</title>
<path fill="none" stroke="midnightblue" d="M757.71,-419.82C711.35,-412.9 645.76,-403.1 602.57,-396.65"/>
<polygon fill="midnightblue" stroke="midnightblue" points="757.47,-423.32 767.88,-421.34 758.5,-416.4 757.47,-423.32"/>
</g>
<!-- Node45&#45;&gt;Node22 -->
<g id="edge45" class="edge">
<title>Node45&#45;&gt;Node22</title>
<path fill="none" stroke="midnightblue" d="M514.44,-377.46C497.29,-372.3 477.75,-366.4 461.78,-361.59"/>
<polygon fill="midnightblue" stroke="midnightblue" points="513.62,-380.87 524.2,-380.41 515.64,-374.17 513.62,-380.87"/>
</g>
<!-- Node47 -->
<g id="node38" class="node">
<title>Node47</title>
<g id="a_node38"><a xlink:href="code__80071F00_8c.html#a2d281611d4838c0be0657ab4b85fce02" target="_top" xlink:title=" ">
<polygon fill="white" stroke="black" points="767.5,-380.5 767.5,-399.5 859.5,-399.5 859.5,-380.5 767.5,-380.5"/>
<text text-anchor="middle" x="813.5" y="-387.5" font-family="Helvetica,sans-Serif" font-size="10.00">func_8008453C</text>
</a>
</g>
</g>
<!-- Node46&#45;&gt;Node47 -->
<g id="edge47" class="edge">
<title>Node46&#45;&gt;Node47</title>
<path fill="none" stroke="midnightblue" d="M886.7,-390C877.7,-390 868.46,-390 859.73,-390"/>
<polygon fill="midnightblue" stroke="midnightblue" points="886.72,-393.5 896.72,-390 886.72,-386.5 886.72,-393.5"/>
</g>
<!-- Node48 -->
<g id="node39" class="node">
<title>Node48</title>
<g id="a_node39"><a xlink:href="code__80071F00_8c.html#ae4511ccc379b63509142c6f7c57b11a9" target="_top" xlink:title=" ">
<polygon fill="white" stroke="black" points="639.5,-342.5 639.5,-361.5 730.5,-361.5 730.5,-342.5 639.5,-342.5"/>
<text text-anchor="middle" x="685" y="-349.5" font-family="Helvetica,sans-Serif" font-size="10.00">func_80085214</text>
</a>
</g>
</g>
<!-- Node47&#45;&gt;Node48 -->
<g id="edge48" class="edge">
<title>Node47&#45;&gt;Node48</title>
<path fill="none" stroke="midnightblue" d="M770.77,-377.46C753.56,-372.3 733.94,-366.4 717.91,-361.59"/>
<polygon fill="midnightblue" stroke="midnightblue" points="769.99,-380.89 780.58,-380.41 772.01,-374.18 769.99,-380.89"/>
</g>
<!-- Node48&#45;&gt;Node22 -->
<g id="edge49" class="edge">
<title>Node48&#45;&gt;Node22</title>
<path fill="none" stroke="midnightblue" d="M629.38,-352C583.42,-352 518.47,-352 475.34,-352"/>
<polygon fill="midnightblue" stroke="midnightblue" points="629.47,-355.5 639.47,-352 629.47,-348.5 629.47,-355.5"/>
</g>
<!-- Node50 -->
<g id="node41" class="node">
<title>Node50</title>
<g id="a_node41"><a xlink:href="code__80071F00_8c.html#a9f7d6039676ea5158b8258acce3880db" target="_top" xlink:title=" ">
<polygon fill="white" stroke="black" points="767.5,-342.5 767.5,-361.5 859.5,-361.5 859.5,-342.5 767.5,-342.5"/>
<text text-anchor="middle" x="813.5" y="-349.5" font-family="Helvetica,sans-Serif" font-size="10.00">func_80084B7C</text>
</a>
</g>
</g>
<!-- Node49&#45;&gt;Node50 -->
<g id="edge51" class="edge">
<title>Node49&#45;&gt;Node50</title>
<path fill="none" stroke="midnightblue" d="M886.2,-352C877.42,-352 868.43,-352 859.92,-352"/>
<polygon fill="midnightblue" stroke="midnightblue" points="886.37,-355.5 896.37,-352 886.37,-348.5 886.37,-355.5"/>
</g>
<!-- Node50&#45;&gt;Node48 -->
<g id="edge52" class="edge">
<title>Node50&#45;&gt;Node48</title>
<path fill="none" stroke="midnightblue" d="M756.96,-352C748.13,-352 739.1,-352 730.57,-352"/>
<polygon fill="midnightblue" stroke="midnightblue" points="757.19,-355.5 767.19,-352 757.19,-348.5 757.19,-355.5"/>
</g>
<!-- Node52 -->
<g id="node43" class="node">
<title>Node52</title>
<g id="a_node43"><a xlink:href="code__80071F00_8c.html#aec97ab2ca2e5e67501aeda33b6441c37" target="_top" xlink:title=" ">
<polygon fill="white" stroke="black" points="767.5,-304.5 767.5,-323.5 859.5,-323.5 859.5,-304.5 767.5,-304.5"/>
<text text-anchor="middle" x="813.5" y="-311.5" font-family="Helvetica,sans-Serif" font-size="10.00">func_800859C8</text>
</a>
</g>
</g>
<!-- Node51&#45;&gt;Node52 -->
<g id="edge54" class="edge">
<title>Node51&#45;&gt;Node52</title>
<path fill="none" stroke="midnightblue" d="M886.7,-314C877.7,-314 868.46,-314 859.73,-314"/>
<polygon fill="midnightblue" stroke="midnightblue" points="886.72,-317.5 896.72,-314 886.72,-310.5 886.72,-317.5"/>
</g>
<!-- Node53 -->
<g id="node44" class="node">
<title>Node53</title>
<g id="a_node44"><a xlink:href="code__80071F00_8c.html#ac4853090fde80beac1ebd5abbeeb26eb" target="_top" xlink:title=" ">
<polygon fill="white" stroke="black" points="511,-304.5 511,-323.5 603,-323.5 603,-304.5 511,-304.5"/>
<text text-anchor="middle" x="557" y="-311.5" font-family="Helvetica,sans-Serif" font-size="10.00">func_80085AA8</text>
</a>
</g>
</g>
<!-- Node52&#45;&gt;Node53 -->
<g id="edge55" class="edge">
<title>Node52&#45;&gt;Node53</title>
<path fill="none" stroke="midnightblue" d="M757.17,-314C711.08,-314 646.24,-314 603.21,-314"/>
<polygon fill="midnightblue" stroke="midnightblue" points="757.29,-317.5 767.29,-314 757.29,-310.5 757.29,-317.5"/>
</g>
<!-- Node53&#45;&gt;Node22 -->
<g id="edge56" class="edge">
<title>Node53&#45;&gt;Node22</title>
<path fill="none" stroke="midnightblue" d="M514.44,-326.54C497.29,-331.7 477.75,-337.6 461.78,-342.41"/>
<polygon fill="midnightblue" stroke="midnightblue" points="515.64,-329.83 524.2,-323.59 513.62,-323.13 515.64,-329.83"/>
</g>
<!-- Node55 -->
<g id="node46" class="node">
<title>Node55</title>
<g id="a_node46"><a xlink:href="code__80071F00_8c.html#a8cc2666bce7526b9450e49898bad2208" target="_top" xlink:title=" ">
<polygon fill="white" stroke="black" points="768,-266.5 768,-285.5 859,-285.5 859,-266.5 768,-266.5"/>
<text text-anchor="middle" x="813.5" y="-273.5" font-family="Helvetica,sans-Serif" font-size="10.00">func_80086528</text>
</a>
</g>
</g>
<!-- Node54&#45;&gt;Node55 -->
<g id="edge58" class="edge">
<title>Node54&#45;&gt;Node55</title>
<path fill="none" stroke="midnightblue" d="M886.25,-276C877.16,-276 867.84,-276 859.06,-276"/>
<polygon fill="midnightblue" stroke="midnightblue" points="886.37,-279.5 896.37,-276 886.37,-272.5 886.37,-279.5"/>
</g>
<!-- Node56 -->
<g id="node47" class="node">
<title>Node56</title>
<g id="a_node47"><a xlink:href="code__80071F00_8c.html#a2204b3133e4191e5d50b0b0bee4a53c9" target="_top" xlink:title=" ">
<polygon fill="white" stroke="black" points="255.5,-266.5 255.5,-285.5 346.5,-285.5 346.5,-266.5 255.5,-266.5"/>
<text text-anchor="middle" x="301" y="-273.5" font-family="Helvetica,sans-Serif" font-size="10.00">func_80086604</text>
</a>
</g>
</g>
<!-- Node55&#45;&gt;Node56 -->
<g id="edge59" class="edge">
<title>Node55&#45;&gt;Node56</title>
<path fill="none" stroke="midnightblue" d="M757.58,-276C655.84,-276 439.94,-276 346.57,-276"/>
<polygon fill="midnightblue" stroke="midnightblue" points="757.64,-279.5 767.64,-276 757.64,-272.5 757.64,-279.5"/>
</g>
<!-- Node56&#45;&gt;Node18 -->
<g id="edge60" class="edge">
<title>Node56&#45;&gt;Node18</title>
<path fill="none" stroke="midnightblue" d="M245.14,-284.27C236.43,-285.59 227.51,-286.93 219.06,-288.21"/>
<polygon fill="midnightblue" stroke="midnightblue" points="245.86,-287.7 255.22,-282.75 244.81,-280.78 245.86,-287.7"/>
</g>
<!-- Node58 -->
<g id="node49" class="node">
<title>Node58</title>
<g id="a_node49"><a xlink:href="code__80071F00_8c.html#aa67f7c8d35edafcb6589e2e4df2b54a7" target="_top" xlink:title=" ">
<polygon fill="white" stroke="black" points="767.5,-228.5 767.5,-247.5 859.5,-247.5 859.5,-228.5 767.5,-228.5"/>
<text text-anchor="middle" x="813.5" y="-235.5" font-family="Helvetica,sans-Serif" font-size="10.00">func_80086C14</text>
</a>
</g>
</g>
<!-- Node57&#45;&gt;Node58 -->
<g id="edge62" class="edge">
<title>Node57&#45;&gt;Node58</title>
<path fill="none" stroke="midnightblue" d="M886.7,-238C877.7,-238 868.46,-238 859.73,-238"/>
<polygon fill="midnightblue" stroke="midnightblue" points="886.72,-241.5 896.72,-238 886.72,-234.5 886.72,-241.5"/>
</g>
<!-- Node59 -->
<g id="node50" class="node">
<title>Node59</title>
<g id="a_node50"><a xlink:href="code__80071F00_8c.html#a50b71551bcbb85b27502982b2928517e" target="_top" xlink:title=" ">
<polygon fill="white" stroke="black" points="255,-228.5 255,-247.5 347,-247.5 347,-228.5 255,-228.5"/>
<text text-anchor="middle" x="301" y="-235.5" font-family="Helvetica,sans-Serif" font-size="10.00">func_80086D80</text>
</a>
</g>
</g>
<!-- Node58&#45;&gt;Node59 -->
<g id="edge63" class="edge">
<title>Node58&#45;&gt;Node59</title>
<path fill="none" stroke="midnightblue" d="M757.13,-238C655.43,-238 440.77,-238 347.2,-238"/>
<polygon fill="midnightblue" stroke="midnightblue" points="757.2,-241.5 767.2,-238 757.2,-234.5 757.2,-241.5"/>
</g>
<!-- Node59&#45;&gt;Node18 -->
<g id="edge64" class="edge">
<title>Node59&#45;&gt;Node18</title>
<path fill="none" stroke="midnightblue" d="M267.16,-251.69C263.05,-253.45 258.92,-255.25 255,-257 234,-266.35 210.21,-277.59 193.87,-285.41"/>
<polygon fill="midnightblue" stroke="midnightblue" points="268.74,-254.82 276.57,-247.69 266,-248.38 268.74,-254.82"/>
</g>
</g>
</svg>
        <g id="navigator" transform="translate(0 0)" fill="#404254">
                <rect fill="#f2f5e9" fill-opacity="0.5" stroke="#606060" stroke-width=".5" x="0" y="0" width="60" height="60"/>
                <use id="zoomplus" xlink:href="#zoomPlus" x="17" y="9" onmousedown="handleZoom(evt,'in')"/>
                <use id="zoomminus" xlink:href="#zoomMin" x="42" y="9" onmousedown="handleZoom(evt,'out')"/>
                <use id="reset" xlink:href="#resetDef" x="30" y="36" onmousedown="handleReset()"/>
                <g id="arrowUp" xlink:href="#dirArrow" transform="translate(30 24)" onmousedown="handlePan(0,-1)">
                  <use xlink:href="#rim" fill="#404040">
                        <set attributeName="fill" to="#808080" begin="arrowUp.mouseover" end="arrowUp.mouseout"/>
                  </use>
                  <path fill="none" stroke="white" stroke-width="1.5" d="M0,-3.0v7 M-2.5,-0.5L0,-3.0L2.5,-0.5"/>
                </g>
                <g id="arrowRight" xlink:href="#dirArrow" transform="rotate(90) translate(36 -43)" onmousedown="handlePan(1,0)">
                  <use xlink:href="#rim" fill="#404040">
                        <set attributeName="fill" to="#808080" begin="arrowRight.mouseover" end="arrowRight.mouseout"/>
                  </use>
                  <path fill="none" stroke="white" stroke-width="1.5" d="M0,-3.0v7 M-2.5,-0.5L0,-3.0L2.5,-0.5"/>
                </g>
                <g id="arrowDown" xlink:href="#dirArrow" transform="rotate(180) translate(-30 -48)" onmousedown="handlePan(0,1)">
                  <use xlink:href="#rim" fill="#404040">
                        <set attributeName="fill" to="#808080" begin="arrowDown.mouseover" end="arrowDown.mouseout"/>
                  </use>
                  <path fill="none" stroke="white" stroke-width="1.5" d="M0,-3.0v7 M-2.5,-0.5L0,-3.0L2.5,-0.5"/>
                </g>
                <g id="arrowLeft" xlink:href="#dirArrow" transform="rotate(270) translate(-36 17)" onmousedown="handlePan(-1,0)">
                  <use xlink:href="#rim" fill="#404040">
                        <set attributeName="fill" to="#808080" begin="arrowLeft.mouseover" end="arrowLeft.mouseout"/>
                  </use>
                  <path fill="none" stroke="white" stroke-width="1.5" d="M0,-3.0v7 M-2.5,-0.5L0,-3.0L2.5,-0.5"/>
                </g>
        </g>
        <svg viewBox="0 0 15 15" width="100%" height="30px" preserveAspectRatio="xMaxYMin meet">
         <g id="arrow_out" transform="scale(0.3 0.3)">
          <a xlink:href="code__80086E70_8h_a4c899cb4708e0ce9dcee4b03c0c8beb2_icgraph_org.svg" target="_base">
           <rect id="button" ry="5" rx="5" y="6" x="6" height="38" width="38"
                fill="#f2f5e9" fill-opacity="0.5" stroke="#606060" stroke-width="1.0"/>
           <path id="arrow"
             d="M 11.500037,31.436501 C 11.940474,20.09759 22.043105,11.32322 32.158766,21.979434 L 37.068811,17.246167 C 37.068811,17.246167 37.088388,32 37.088388,32 L 22.160133,31.978069 C 22.160133,31.978069 26.997745,27.140456 26.997745,27.140456 C 18.528582,18.264221 13.291696,25.230495 11.500037,31.436501 z"
             style="fill:#404040;"/>
          </a>
         </g>
        </svg>
</svg>
