<?xml version="1.0" encoding="UTF-8" standalone="no"?>
<!DOCTYPE svg PUBLIC "-//W3C//DTD SVG 1.1//EN"
 "http://www.w3.org/Graphics/SVG/1.1/DTD/svg11.dtd">
<!-- Generated by graphviz version 2.43.0 (0)
 -->
<!-- Title: func_8000BD94 Pages: 1 -->
<!--zoomable 438 -->

<svg id="main" version="1.1" xmlns="http://www.w3.org/2000/svg" xmlns:xlink="http://www.w3.org/1999/xlink" xml:space="preserve" onload="init(evt)">
<style type="text/css"><![CDATA[
.node, .edge {opacity: 0.7;}
.node.selected, .edge.selected {opacity: 1;}
.edge:hover path { stroke: red; }
.edge:hover polygon { stroke: red; fill: red; }
]]></style>

<defs>
  <circle id="rim" cx="0" cy="0" r="7"/>
  <circle id="rim2" cx="0" cy="0" r="3.5"/>
  <g id="zoomPlus">
    <use xlink:href="#rim" fill="#404040"><set attributeName="fill" to="#808080" begin="zoomplus.mouseover" end="zoomplus.mouseout"/></use>
    <path d="M-4,0h8M0,-4v8" fill="none" stroke="white" stroke-width="1.5" pointer-events="none"/>
  </g>
  <g id="zoomMin">
    <use xlink:href="#rim" fill="#404040"><set attributeName="fill" to="#808080" begin="zoomminus.mouseover" end="zoomminus.mouseout"/></use>
    <path d="M-4,0h8" fill="none" stroke="white" stroke-width="1.5" pointer-events="none"/>
  </g>
  <g id="arrowUp" transform="translate(30 24)">
    <use xlink:href="#rim"/>
    <path pointer-events="none" fill="none" stroke="white" stroke-width="1.5" d="M0,-3.0v7 M-2.5,-0.5L0,-3.0L2.5,-0.5"/>
  </g>
  <g id="arrowRight" transform="rotate(90) translate(36 -43)">
    <use xlink:href="#rim"/>
    <path pointer-events="none" fill="none" stroke="white" stroke-width="1.5" d="M0,-3.0v7 M-2.5,-0.5L0,-3.0L2.5,-0.5"/>
  </g>
  <g id="arrowDown" transform="rotate(180) translate(-30 -48)">
    <use xlink:href="#rim"/>
    <path pointer-events="none" fill="none" stroke="white" stroke-width="1.5" d="M0,-3.0v7 M-2.5,-0.5L0,-3.0L2.5,-0.5"/>
  </g>
  <g id="arrowLeft" transform="rotate(270) translate(-36 17)">
    <use xlink:href="#rim"/>
    <path pointer-events="none" fill="none" stroke="white" stroke-width="1.5" d="M0,-3.0v7 M-2.5,-0.5L0,-3.0L2.5,-0.5"/>
  </g>
  <g id="resetDef">
    <use xlink:href="#rim2" fill="#404040"><set attributeName="fill" to="#808080" begin="reset.mouseover" end="reset.mouseout"/></use>
  </g>
</defs>
<script type="application/ecmascript">
var viewWidth = 1640;
var viewHeight = 438;
var sectionId = 'dynsection-45';
</script>
<script type="application/ecmascript" xlink:href="svg.min.js"/>
<svg id="graph" class="graph">
<g id="viewport">
<title>func_8000BD94</title>
<!-- Node1 -->
<g id="Node000001" class="node">
<title>Node1</title>
<g id="a_Node000001"><a xlink:title=" ">
<polygon fill="#999999" stroke="#666666" points="1632,-207 1539,-207 1539,-188 1632,-188 1632,-207"/>
<text text-anchor="middle" x="1585.5" y="-195" font-family="Helvetica,sans-Serif" font-size="10.00">func_8000BD94</text>
</a>
</g>
</g>
<!-- Node2 -->
<g id="Node000002" class="node">
<title>Node2</title>
<g id="a_Node000002"><a xlink:href="code__80005FD0_8c.html#a3d324f572c792c0d1e5242d91e8e91f2" target="_top" xlink:title=" ">
<polygon fill="white" stroke="#666666" points="1503,-272 1410,-272 1410,-253 1503,-253 1503,-272"/>
<text text-anchor="middle" x="1456.5" y="-260" font-family="Helvetica,sans-Serif" font-size="10.00">func_8000CD24</text>
</a>
</g>
</g>
<!-- Node1&#45;&gt;Node2 -->
<g id="edge1_Node000001_Node000002" class="edge">
<title>Node1&#45;&gt;Node2</title>
<g id="a_edge1_Node000001_Node000002"><a xlink:title=" ">
<path fill="none" stroke="#63b8ff" d="M1556.66,-211.75C1532.29,-224.22 1497.55,-242 1476.32,-252.87"/>
<polygon fill="#63b8ff" stroke="#63b8ff" points="1558.45,-214.76 1565.76,-207.09 1555.26,-208.53 1558.45,-214.76"/>
</a>
</g>
</g>
<!-- Node4 -->
<g id="Node000004" class="node">
<title>Node4</title>
<g id="a_Node000004"><a xlink:href="code__80005FD0_8c.html#a8d21c866c74e866e873dfd2f67c3c8da" target="_top" xlink:title=" ">
<polygon fill="white" stroke="#666666" points="1502,-189 1411,-189 1411,-170 1502,-170 1502,-189"/>
<text text-anchor="middle" x="1456.5" y="-177" font-family="Helvetica,sans-Serif" font-size="10.00">func_80019890</text>
</a>
</g>
</g>
<!-- Node1&#45;&gt;Node4 -->
<g id="edge3_Node000001_Node000004" class="edge">
<title>Node1&#45;&gt;Node4</title>
<g id="a_edge3_Node000001_Node000004"><a xlink:title=" ">
<path fill="none" stroke="#63b8ff" d="M1528.69,-189.59C1519.76,-188.32 1510.63,-187.03 1502.01,-185.81"/>
<polygon fill="#63b8ff" stroke="#63b8ff" points="1528.26,-193.06 1538.65,-191 1529.24,-186.13 1528.26,-193.06"/>
</a>
</g>
</g>
<!-- Node3 -->
<g id="Node000003" class="node">
<title>Node3</title>
<g id="a_Node000003"><a xlink:href="code__80005FD0_8c.html#aebb583cea651e46979b4827eba66cbde" target="_top" xlink:title=" ">
<polygon fill="white" stroke="#666666" points="1373,-319 1282,-319 1282,-300 1373,-300 1373,-319"/>
<text text-anchor="middle" x="1327.5" y="-307" font-family="Helvetica,sans-Serif" font-size="10.00">func_800090F0</text>
</a>
</g>
</g>
<!-- Node2&#45;&gt;Node3 -->
<g id="edge2_Node000002_Node000003" class="edge">
<title>Node2&#45;&gt;Node3</title>
<g id="a_edge2_Node000002_Node000003"><a xlink:title=" ">
<path fill="none" stroke="#63b8ff" d="M1420.34,-275.51C1399.52,-283.22 1373.59,-292.81 1354.6,-299.84"/>
<polygon fill="#63b8ff" stroke="#63b8ff" points="1421.64,-278.76 1429.8,-272.01 1419.21,-272.2 1421.64,-278.76"/>
</a>
</g>
</g>
<!-- Node5 -->
<g id="Node000005" class="node">
<title>Node5</title>
<g id="a_Node000005"><a xlink:href="code__80005FD0_8c.html#a7eca821e375d293b4bc6ead44dd26463" target="_top" xlink:title=" ">
<polygon fill="white" stroke="#666666" points="1373,-282 1282,-282 1282,-263 1373,-263 1373,-282"/>
<text text-anchor="middle" x="1327.5" y="-270" font-family="Helvetica,sans-Serif" font-size="10.00">func_80019E58</text>
</a>
</g>
</g>
<!-- Node4&#45;&gt;Node5 -->
<g id="edge4_Node000004_Node000005" class="edge">
<title>Node4&#45;&gt;Node5</title>
<g id="a_edge4_Node000004_Node000005"><a xlink:title=" ">
<path fill="none" stroke="#63b8ff" d="M1440.16,-196.92C1424.79,-213.53 1399.76,-238.34 1374,-254.5 1368.96,-257.66 1363.28,-260.44 1357.68,-262.81"/>
<polygon fill="#63b8ff" stroke="#63b8ff" points="1442.77,-199.26 1446.9,-189.5 1437.59,-194.55 1442.77,-199.26"/>
</a>
</g>
</g>
<!-- Node14 -->
<g id="Node000014" class="node">
<title>Node14</title>
<g id="a_Node000014"><a xlink:href="code__80005FD0_8c.html#ade801375eb2285e6993ba1023fa00b1a" target="_top" xlink:title=" ">
<polygon fill="white" stroke="#666666" points="1373.5,-245 1281.5,-245 1281.5,-226 1373.5,-226 1373.5,-245"/>
<text text-anchor="middle" x="1327.5" y="-233" font-family="Helvetica,sans-Serif" font-size="10.00">func_8001A348</text>
</a>
</g>
</g>
<!-- Node4&#45;&gt;Node14 -->
<g id="edge13_Node000004_Node000014" class="edge">
<title>Node4&#45;&gt;Node14</title>
<g id="a_edge13_Node000004_Node000014"><a xlink:title=" ">
<path fill="none" stroke="#63b8ff" d="M1424.31,-193.25C1401.25,-203.42 1370.43,-217.01 1350.05,-226"/>
<polygon fill="#63b8ff" stroke="#63b8ff" points="1425.93,-196.36 1433.67,-189.13 1423.11,-189.96 1425.93,-196.36"/>
</a>
</g>
</g>
<!-- Node16 -->
<g id="Node000016" class="node">
<title>Node16</title>
<g id="a_Node000016"><a xlink:href="code__80005FD0_8c.html#adac9fce1255b48eabba9843067498e54" target="_top" xlink:title=" ">
<polygon fill="white" stroke="#666666" points="1117,-217 1025,-217 1025,-198 1117,-198 1117,-217"/>
<text text-anchor="middle" x="1071" y="-205" font-family="Helvetica,sans-Serif" font-size="10.00">func_8001A588</text>
</a>
</g>
</g>
<!-- Node4&#45;&gt;Node16 -->
<g id="edge38_Node000004_Node000016" class="edge">
<title>Node4&#45;&gt;Node16</title>
<g id="a_edge38_Node000004_Node000016"><a xlink:title=" ">
<path fill="none" stroke="#63b8ff" d="M1422.87,-166.39C1366.29,-145.66 1247.02,-110.84 1153,-143.5 1121.85,-154.32 1093.63,-182.65 1080.23,-197.73"/>
<polygon fill="#63b8ff" stroke="#63b8ff" points="1421.77,-169.72 1432.36,-169.95 1424.23,-163.16 1421.77,-169.72"/>
</a>
</g>
</g>
<!-- Node25 -->
<g id="Node000025" class="node">
<title>Node25</title>
<g id="a_Node000025"><a xlink:href="code__80005FD0_8c.html#aa97657992b3d5468d1944de0edff43c5" target="_top" xlink:title=" ">
<polygon fill="white" stroke="#666666" points="1374,-95 1281,-95 1281,-76 1374,-76 1374,-95"/>
<text text-anchor="middle" x="1327.5" y="-83" font-family="Helvetica,sans-Serif" font-size="10.00">func_8001A3D8</text>
</a>
</g>
</g>
<!-- Node4&#45;&gt;Node25 -->
<g id="edge32_Node000004_Node000025" class="edge">
<title>Node4&#45;&gt;Node25</title>
<g id="a_edge32_Node000004_Node000025"><a xlink:title=" ">
<path fill="none" stroke="#63b8ff" d="M1438.08,-162.5C1422.19,-147.5 1397.64,-125.58 1374,-109.5 1366.17,-104.17 1357.03,-99.14 1349,-95.08"/>
<polygon fill="#63b8ff" stroke="#63b8ff" points="1435.91,-165.27 1445.55,-169.65 1440.75,-160.21 1435.91,-165.27"/>
</a>
</g>
</g>
<!-- Node26 -->
<g id="Node000026" class="node">
<title>Node26</title>
<g id="a_Node000026"><a xlink:href="code__80005FD0_8c.html#a671c7774931a008442d74e61aff710c6" target="_top" xlink:title=" ">
<polygon fill="white" stroke="#666666" points="1373.5,-57 1281.5,-57 1281.5,-38 1373.5,-38 1373.5,-57"/>
<text text-anchor="middle" x="1327.5" y="-45" font-family="Helvetica,sans-Serif" font-size="10.00">func_8001A450</text>
</a>
</g>
</g>
<!-- Node4&#45;&gt;Node26 -->
<g id="edge34_Node000004_Node000026" class="edge">
<title>Node4&#45;&gt;Node26</title>
<g id="a_edge34_Node000004_Node000026"><a xlink:title=" ">
<path fill="none" stroke="#63b8ff" d="M1446.01,-160.84C1432.8,-136.49 1406.76,-93.88 1374,-67.5 1368.89,-63.39 1362.81,-59.95 1356.78,-57.16"/>
<polygon fill="#63b8ff" stroke="#63b8ff" points="1442.96,-162.57 1450.72,-169.78 1449.15,-159.3 1442.96,-162.57"/>
</a>
</g>
</g>
<!-- Node6 -->
<g id="Node000006" class="node">
<title>Node6</title>
<g id="a_Node000006"><a xlink:href="race__logic_8c.html#aeb498a031d0fc8f31b5947bf329344f4" target="_top" xlink:title=" ">
<polygon fill="white" stroke="#666666" points="1244.5,-430 1153.5,-430 1153.5,-411 1244.5,-411 1244.5,-430"/>
<text text-anchor="middle" x="1199" y="-418" font-family="Helvetica,sans-Serif" font-size="10.00">func_8028E678</text>
</a>
</g>
</g>
<!-- Node5&#45;&gt;Node6 -->
<g id="edge5_Node000005_Node000006" class="edge">
<title>Node5&#45;&gt;Node6</title>
<g id="a_edge5_Node000005_Node000006"><a xlink:title=" ">
<path fill="none" stroke="#63b8ff" d="M1284.87,-287.86C1283.5,-288.99 1282.2,-290.2 1281,-291.5 1245.86,-329.64 1280.43,-364.62 1245,-402.5 1241.9,-405.82 1238.1,-408.54 1234.04,-410.76"/>
<polygon fill="#63b8ff" stroke="#63b8ff" points="1287.02,-290.64 1293.45,-282.22 1283.17,-284.79 1287.02,-290.64"/>
</a>
</g>
</g>
<!-- Node7 -->
<g id="Node000007" class="node">
<title>Node7</title>
<g id="a_Node000007"><a xlink:href="race__logic_8c.html#a7f21a1ef55b61f5678170da62e5e51dc" target="_top" xlink:title=" ">
<polygon fill="white" stroke="#666666" points="989,-407 896,-407 896,-388 989,-388 989,-407"/>
<text text-anchor="middle" x="942.5" y="-395" font-family="Helvetica,sans-Serif" font-size="10.00">func_8028FCBC</text>
</a>
</g>
</g>
<!-- Node6&#45;&gt;Node7 -->
<g id="edge6_Node000006_Node000007" class="edge">
<title>Node6&#45;&gt;Node7</title>
<g id="a_edge6_Node000006_Node000007"><a xlink:title=" ">
<path fill="none" stroke="#63b8ff" d="M1143.31,-415.56C1097.4,-411.41 1032.59,-405.55 989.36,-401.64"/>
<polygon fill="#63b8ff" stroke="#63b8ff" points="1143.1,-419.05 1153.38,-416.47 1143.73,-412.08 1143.1,-419.05"/>
</a>
</g>
</g>
<!-- Node8 -->
<g id="Node000008" class="node">
<title>Node8</title>
<g id="a_Node000008"><a xlink:href="main_8c.html#afff87ffcbfee4f1f37d443110aa7b52a" target="_top" xlink:title=" ">
<polygon fill="white" stroke="#666666" points="732,-328 640,-328 640,-309 732,-309 732,-328"/>
<text text-anchor="middle" x="686" y="-316" font-family="Helvetica,sans-Serif" font-size="10.00">race_logic_loop</text>
</a>
</g>
</g>
<!-- Node7&#45;&gt;Node8 -->
<g id="edge7_Node000007_Node000008" class="edge">
<title>Node7&#45;&gt;Node8</title>
<g id="a_edge7_Node000007_Node000008"><a xlink:title=" ">
<path fill="none" stroke="#63b8ff" d="M901.11,-384.96C850.18,-369.15 763.73,-342.32 717.81,-328.06"/>
<polygon fill="#63b8ff" stroke="#63b8ff" points="900.21,-388.35 910.8,-387.97 902.29,-381.66 900.21,-388.35"/>
</a>
</g>
</g>
<!-- Node9 -->
<g id="Node000009" class="node">
<title>Node9</title>
<g id="a_Node000009"><a xlink:href="main_8c.html#ae04143ce8113cdafa007c642eb620bc8" target="_top" xlink:title=" ">
<polygon fill="white" stroke="#666666" points="604,-328 488,-328 488,-309 604,-309 604,-328"/>
<text text-anchor="middle" x="546" y="-316" font-family="Helvetica,sans-Serif" font-size="10.00">game_state_handler</text>
</a>
</g>
</g>
<!-- Node8&#45;&gt;Node9 -->
<g id="edge8_Node000008_Node000009" class="edge">
<title>Node8&#45;&gt;Node9</title>
<g id="a_edge8_Node000008_Node000009"><a xlink:title=" ">
<path fill="none" stroke="#63b8ff" d="M629.79,-318.5C621.43,-318.5 612.78,-318.5 604.38,-318.5"/>
<polygon fill="#63b8ff" stroke="#63b8ff" points="629.81,-322 639.81,-318.5 629.81,-315 629.81,-322"/>
</a>
</g>
</g>
<!-- Node10 -->
<g id="Node000010" class="node">
<title>Node10</title>
<g id="a_Node000010"><a xlink:href="main_8c.html#a633ed517e458daeb768f5361895dcac9" target="_top" xlink:title=" ">
<polygon fill="white" stroke="#666666" points="452,-328 339,-328 339,-309 452,-309 452,-328"/>
<text text-anchor="middle" x="395.5" y="-316" font-family="Helvetica,sans-Serif" font-size="10.00">thread5_game_loop</text>
</a>
</g>
</g>
<!-- Node9&#45;&gt;Node10 -->
<g id="edge9_Node000009_Node000010" class="edge">
<title>Node9&#45;&gt;Node10</title>
<g id="a_edge9_Node000009_Node000010"><a xlink:title=" ">
<path fill="none" stroke="#63b8ff" d="M477.42,-318.5C469.02,-318.5 460.5,-318.5 452.3,-318.5"/>
<polygon fill="#63b8ff" stroke="#63b8ff" points="477.59,-322 487.59,-318.5 477.59,-315 477.59,-322"/>
</a>
</g>
</g>
<!-- Node11 -->
<g id="Node000011" class="node">
<title>Node11</title>
<g id="a_Node000011"><a xlink:href="main_8c.html#a023b8f272e4efbd33f371e91ffff6b30" target="_top" xlink:title=" ">
<polygon fill="white" stroke="#666666" points="303,-328 217,-328 217,-309 303,-309 303,-328"/>
<text text-anchor="middle" x="260" y="-316" font-family="Helvetica,sans-Serif" font-size="10.00">thread3_video</text>
</a>
</g>
</g>
<!-- Node10&#45;&gt;Node11 -->
<g id="edge10_Node000010_Node000011" class="edge">
<title>Node10&#45;&gt;Node11</title>
<g id="a_edge10_Node000010_Node000011"><a xlink:title=" ">
<path fill="none" stroke="#63b8ff" d="M328.57,-318.5C319.94,-318.5 311.3,-318.5 303.21,-318.5"/>
<polygon fill="#63b8ff" stroke="#63b8ff" points="328.66,-322 338.66,-318.5 328.66,-315 328.66,-322"/>
</a>
</g>
</g>
<!-- Node12 -->
<g id="Node000012" class="node">
<title>Node12</title>
<g id="a_Node000012"><a xlink:href="main_8c.html#a1e35d2b842121e6aea373f09381616e5" target="_top" xlink:title=" ">
<polygon fill="white" stroke="#666666" points="181,-328 104,-328 104,-309 181,-309 181,-328"/>
<text text-anchor="middle" x="142.5" y="-316" font-family="Helvetica,sans-Serif" font-size="10.00">thread1_idle</text>
</a>
</g>
</g>
<!-- Node11&#45;&gt;Node12 -->
<g id="edge11_Node000011_Node000012" class="edge">
<title>Node11&#45;&gt;Node12</title>
<g id="a_edge11_Node000011_Node000012"><a xlink:title=" ">
<path fill="none" stroke="#63b8ff" d="M206.9,-318.5C198.2,-318.5 189.33,-318.5 181.09,-318.5"/>
<polygon fill="#63b8ff" stroke="#63b8ff" points="206.98,-322 216.98,-318.5 206.98,-315 206.98,-322"/>
</a>
</g>
</g>
<!-- Node13 -->
<g id="Node000013" class="node">
<title>Node13</title>
<g id="a_Node000013"><a xlink:href="main_8c.html#a4f87d43525fe95f60ea92bc8a3b70e62" target="_top" xlink:title=" ">
<polygon fill="white" stroke="#666666" points="68,-328 0,-328 0,-309 68,-309 68,-328"/>
<text text-anchor="middle" x="34" y="-316" font-family="Helvetica,sans-Serif" font-size="10.00">main_func</text>
</a>
</g>
</g>
<!-- Node12&#45;&gt;Node13 -->
<g id="edge12_Node000012_Node000013" class="edge">
<title>Node12&#45;&gt;Node13</title>
<g id="a_edge12_Node000012_Node000013"><a xlink:title=" ">
<path fill="none" stroke="#63b8ff" d="M93.95,-318.5C85.29,-318.5 76.44,-318.5 68.31,-318.5"/>
<polygon fill="#63b8ff" stroke="#63b8ff" points="93.95,-322 103.95,-318.5 93.95,-315 93.95,-322"/>
</a>
</g>
</g>
<!-- Node15 -->
<g id="Node000015" class="node">
<title>Node15</title>
<g id="a_Node000015"><a xlink:href="code__80005FD0_8c.html#a4653876884c97d13061b7b420a918c2e" target="_top" xlink:title=" ">
<polygon fill="white" stroke="#666666" points="1245,-393 1153,-393 1153,-374 1245,-374 1245,-393"/>
<text text-anchor="middle" x="1199" y="-381" font-family="Helvetica,sans-Serif" font-size="10.00">func_8001577C</text>
</a>
</g>
</g>
<!-- Node14&#45;&gt;Node15 -->
<g id="edge14_Node000014_Node000015" class="edge">
<title>Node14&#45;&gt;Node15</title>
<g id="a_edge14_Node000014_Node000015"><a xlink:title=" ">
<path fill="none" stroke="#63b8ff" d="M1284.87,-250.86C1283.5,-251.99 1282.2,-253.2 1281,-254.5 1245.86,-292.64 1280.43,-327.62 1245,-365.5 1241.9,-368.82 1238.1,-371.54 1234.04,-373.76"/>
<polygon fill="#63b8ff" stroke="#63b8ff" points="1287.02,-253.64 1293.45,-245.22 1283.17,-247.79 1287.02,-253.64"/>
</a>
</g>
</g>
<!-- Node19 -->
<g id="Node000019" class="node">
<title>Node19</title>
<g id="a_Node000019"><a xlink:href="code__80005FD0_8c.html#af78d8397fa3a12ca87ae281bdf990218" target="_top" xlink:title=" ">
<polygon fill="white" stroke="#666666" points="1245,-356 1153,-356 1153,-337 1245,-337 1245,-356"/>
<text text-anchor="middle" x="1199" y="-344" font-family="Helvetica,sans-Serif" font-size="10.00">func_80015C94</text>
</a>
</g>
</g>
<!-- Node14&#45;&gt;Node19 -->
<g id="edge20_Node000014_Node000019" class="edge">
<title>Node14&#45;&gt;Node19</title>
<g id="a_edge20_Node000014_Node000019"><a xlink:title=" ">
<path fill="none" stroke="#63b8ff" d="M1285.8,-250.55C1284.11,-251.78 1282.49,-253.09 1281,-254.5 1254.41,-279.61 1271.78,-303.59 1245,-328.5 1241.43,-331.82 1237.16,-334.57 1232.7,-336.82"/>
<polygon fill="#63b8ff" stroke="#63b8ff" points="1288.03,-253.31 1294.83,-245.18 1284.45,-247.29 1288.03,-253.31"/>
</a>
</g>
</g>
<!-- Node20 -->
<g id="Node000020" class="node">
<title>Node20</title>
<g id="a_Node000020"><a xlink:href="code__80005FD0_8c.html#acb51f46008c8a06197fc136c4f2802a9" target="_top" xlink:title=" ">
<polygon fill="white" stroke="#666666" points="1244.5,-319 1153.5,-319 1153.5,-300 1244.5,-300 1244.5,-319"/>
<text text-anchor="middle" x="1199" y="-307" font-family="Helvetica,sans-Serif" font-size="10.00">func_80016494</text>
</a>
</g>
</g>
<!-- Node14&#45;&gt;Node20 -->
<g id="edge22_Node000014_Node000020" class="edge">
<title>Node14&#45;&gt;Node20</title>
<g id="a_edge22_Node000014_Node000020"><a xlink:title=" ">
<path fill="none" stroke="#63b8ff" d="M1289.56,-249.39C1286.58,-250.97 1283.69,-252.67 1281,-254.5 1262.03,-267.4 1264.07,-278.74 1245,-291.5 1240.11,-294.78 1234.52,-297.61 1228.99,-299.99"/>
<polygon fill="#63b8ff" stroke="#63b8ff" points="1291.12,-252.52 1298.63,-245.04 1288.1,-246.21 1291.12,-252.52"/>
</a>
</g>
</g>
<!-- Node21 -->
<g id="Node000021" class="node">
<title>Node21</title>
<g id="a_Node000021"><a xlink:href="code__80005FD0_8c.html#aec654f7098be6c6ff382d5058263a76a" target="_top" xlink:title=" ">
<polygon fill="white" stroke="#666666" points="1244.5,-282 1153.5,-282 1153.5,-263 1244.5,-263 1244.5,-282"/>
<text text-anchor="middle" x="1199" y="-270" font-family="Helvetica,sans-Serif" font-size="10.00">func_800178F4</text>
</a>
</g>
</g>
<!-- Node14&#45;&gt;Node21 -->
<g id="edge24_Node000014_Node000021" class="edge">
<title>Node14&#45;&gt;Node21</title>
<g id="a_edge24_Node000014_Node000021"><a xlink:title=" ">
<path fill="none" stroke="#63b8ff" d="M1283.89,-247.96C1267.25,-252.83 1248.47,-258.32 1232.91,-262.88"/>
<polygon fill="#63b8ff" stroke="#63b8ff" points="1285.31,-251.2 1293.92,-245.03 1283.34,-244.48 1285.31,-251.2"/>
</a>
</g>
</g>
<!-- Node22 -->
<g id="Node000022" class="node">
<title>Node22</title>
<g id="a_Node000022"><a xlink:href="code__80005FD0_8c.html#a221c2d9c469606ad4ceb44b3feed0b2a" target="_top" xlink:title=" ">
<polygon fill="white" stroke="#666666" points="1244.5,-245 1153.5,-245 1153.5,-226 1244.5,-226 1244.5,-245"/>
<text text-anchor="middle" x="1199" y="-233" font-family="Helvetica,sans-Serif" font-size="10.00">func_800180F0</text>
</a>
</g>
</g>
<!-- Node14&#45;&gt;Node22 -->
<g id="edge26_Node000014_Node000022" class="edge">
<title>Node14&#45;&gt;Node22</title>
<g id="a_edge26_Node000014_Node000022"><a xlink:title=" ">
<path fill="none" stroke="#63b8ff" d="M1270.96,-235.5C1262.13,-235.5 1253.1,-235.5 1244.57,-235.5"/>
<polygon fill="#63b8ff" stroke="#63b8ff" points="1271.19,-239 1281.19,-235.5 1271.19,-232 1271.19,-239"/>
</a>
</g>
</g>
<!-- Node23 -->
<g id="Node000023" class="node">
<title>Node23</title>
<g id="a_Node000023"><a xlink:href="code__80005FD0_8c.html#a93d50445c0f98845ef112c4d057bc81a" target="_top" xlink:title=" ">
<polygon fill="white" stroke="#666666" points="1244.5,-208 1153.5,-208 1153.5,-189 1244.5,-189 1244.5,-208"/>
<text text-anchor="middle" x="1199" y="-196" font-family="Helvetica,sans-Serif" font-size="10.00">func_800188F4</text>
</a>
</g>
</g>
<!-- Node14&#45;&gt;Node23 -->
<g id="edge28_Node000014_Node000023" class="edge">
<title>Node14&#45;&gt;Node23</title>
<g id="a_edge28_Node000014_Node000023"><a xlink:title=" ">
<path fill="none" stroke="#63b8ff" d="M1283.89,-223.04C1267.25,-218.17 1248.47,-212.68 1232.91,-208.12"/>
<polygon fill="#63b8ff" stroke="#63b8ff" points="1283.34,-226.52 1293.92,-225.97 1285.31,-219.8 1283.34,-226.52"/>
</a>
</g>
</g>
<!-- Node24 -->
<g id="Node000024" class="node">
<title>Node24</title>
<g id="a_Node000024"><a xlink:href="code__80005FD0_8c.html#a81a2a6017420af697758903d74577445" target="_top" xlink:title=" ">
<polygon fill="white" stroke="#666666" points="1245,-171 1153,-171 1153,-152 1245,-152 1245,-171"/>
<text text-anchor="middle" x="1199" y="-159" font-family="Helvetica,sans-Serif" font-size="10.00">func_8001933C</text>
</a>
</g>
</g>
<!-- Node14&#45;&gt;Node24 -->
<g id="edge30_Node000014_Node000024" class="edge">
<title>Node14&#45;&gt;Node24</title>
<g id="a_edge30_Node000014_Node000024"><a xlink:title=" ">
<path fill="none" stroke="#63b8ff" d="M1305.85,-219.92C1289.79,-208.21 1266.65,-192.23 1245,-180.5 1238.74,-177.11 1231.74,-173.89 1225.16,-171.11"/>
<polygon fill="#63b8ff" stroke="#63b8ff" points="1303.88,-222.81 1314,-225.94 1308.03,-217.18 1303.88,-222.81"/>
</a>
</g>
</g>
<!-- Node15&#45;&gt;Node16 -->
<g id="edge15_Node000015_Node000016" class="edge">
<title>Node15&#45;&gt;Node16</title>
<g id="a_edge15_Node000015_Node000016"><a xlink:title=" ">
<path fill="none" stroke="#63b8ff" d="M1157.08,-368.8C1155.65,-367.77 1154.28,-366.67 1153,-365.5 1105.37,-322.12 1081.52,-244.26 1074.37,-217.13"/>
<polygon fill="#63b8ff" stroke="#63b8ff" points="1155.43,-371.89 1165.82,-373.98 1159.01,-365.87 1155.43,-371.89"/>
</a>
</g>
</g>
<!-- Node17 -->
<g id="Node000017" class="node">
<title>Node17</title>
<g id="a_Node000017"><a xlink:href="camera_8c.html#aa9c99b4c8605e42825107adeed2c382a" target="_top" xlink:title=" ">
<polygon fill="white" stroke="#666666" points="988,-290 897,-290 897,-271 988,-271 988,-290"/>
<text text-anchor="middle" x="942.5" y="-278" font-family="Helvetica,sans-Serif" font-size="10.00">func_8001EE98</text>
</a>
</g>
</g>
<!-- Node16&#45;&gt;Node17 -->
<g id="edge16_Node000016_Node000017" class="edge">
<title>Node16&#45;&gt;Node17</title>
<g id="a_edge16_Node000016_Node000017"><a xlink:title=" ">
<path fill="none" stroke="#63b8ff" d="M1044.49,-222.22C1019.3,-236.76 981.54,-258.55 960.04,-270.95"/>
<polygon fill="#63b8ff" stroke="#63b8ff" points="1046.55,-225.07 1053.46,-217.04 1043.05,-219.01 1046.55,-225.07"/>
</a>
</g>
</g>
<!-- Node17&#45;&gt;Node8 -->
<g id="edge19_Node000017_Node000008" class="edge">
<title>Node17&#45;&gt;Node8</title>
<g id="a_edge19_Node000017_Node000008"><a xlink:title=" ">
<path fill="none" stroke="#63b8ff" d="M895,-292.35C883.61,-294.97 871.41,-297.55 860,-299.5 816.81,-306.88 767.05,-311.99 732.01,-315.04"/>
<polygon fill="#63b8ff" stroke="#63b8ff" points="895.84,-295.75 904.77,-290.05 894.23,-288.94 895.84,-295.75"/>
</a>
</g>
</g>
<!-- Node18 -->
<g id="Node000018" class="node">
<title>Node18</title>
<g id="a_Node000018"><a xlink:href="race__logic_8c.html#a3189893b0ea5d4a7b1d679edc52d78ed" target="_top" xlink:title=" ">
<polygon fill="white" stroke="#666666" points="860,-290 768,-290 768,-271 860,-271 860,-290"/>
<text text-anchor="middle" x="814" y="-278" font-family="Helvetica,sans-Serif" font-size="10.00">func_80290B14</text>
</a>
</g>
</g>
<!-- Node17&#45;&gt;Node18 -->
<g id="edge17_Node000017_Node000018" class="edge">
<title>Node17&#45;&gt;Node18</title>
<g id="a_edge17_Node000017_Node000018"><a xlink:title=" ">
<path fill="none" stroke="#63b8ff" d="M886.63,-280.5C877.75,-280.5 868.66,-280.5 860.05,-280.5"/>
<polygon fill="#63b8ff" stroke="#63b8ff" points="886.9,-284 896.9,-280.5 886.9,-277 886.9,-284"/>
</a>
</g>
</g>
<!-- Node18&#45;&gt;Node8 -->
<g id="edge18_Node000018_Node000008" class="edge">
<title>Node18&#45;&gt;Node8</title>
<g id="a_edge18_Node000018_Node000008"><a xlink:title=" ">
<path fill="none" stroke="#63b8ff" d="M771.44,-293.04C754.29,-298.2 734.75,-304.1 718.78,-308.91"/>
<polygon fill="#63b8ff" stroke="#63b8ff" points="772.64,-296.33 781.2,-290.09 770.62,-289.63 772.64,-296.33"/>
</a>
</g>
</g>
<!-- Node19&#45;&gt;Node16 -->
<g id="edge21_Node000019_Node000016" class="edge">
<title>Node19&#45;&gt;Node16</title>
<g id="a_edge21_Node000019_Node000016"><a xlink:title=" ">
<path fill="none" stroke="#63b8ff" d="M1157.82,-331.97C1156.14,-330.89 1154.52,-329.73 1153,-328.5 1113.32,-296.36 1085.83,-239.61 1075.99,-217.09"/>
<polygon fill="#63b8ff" stroke="#63b8ff" points="1156.18,-335.06 1166.62,-336.81 1159.55,-328.93 1156.18,-335.06"/>
</a>
</g>
</g>
<!-- Node20&#45;&gt;Node16 -->
<g id="edge23_Node000020_Node000016" class="edge">
<title>Node20&#45;&gt;Node16</title>
<g id="a_edge23_Node000020_Node000016"><a xlink:title=" ">
<path fill="none" stroke="#63b8ff" d="M1159.06,-295.18C1156.97,-294.02 1154.93,-292.8 1153,-291.5 1121.06,-270.02 1091.91,-234.15 1079.01,-217.09"/>
<polygon fill="#63b8ff" stroke="#63b8ff" points="1158,-298.56 1168.52,-299.8 1161.07,-292.27 1158,-298.56"/>
</a>
</g>
</g>
<!-- Node21&#45;&gt;Node16 -->
<g id="edge25_Node000021_Node000016" class="edge">
<title>Node21&#45;&gt;Node16</title>
<g id="a_edge25_Node000021_Node000016"><a xlink:title=" ">
<path fill="none" stroke="#63b8ff" d="M1162.72,-258.96C1159.4,-257.52 1156.12,-256.02 1153,-254.5 1129.17,-242.9 1102.85,-227.02 1086.87,-217.01"/>
<polygon fill="#63b8ff" stroke="#63b8ff" points="1161.44,-262.22 1172.02,-262.85 1164.15,-255.76 1161.44,-262.22"/>
</a>
</g>
</g>
<!-- Node22&#45;&gt;Node16 -->
<g id="edge27_Node000022_Node000016" class="edge">
<title>Node22&#45;&gt;Node16</title>
<g id="a_edge27_Node000022_Node000016"><a xlink:title=" ">
<path fill="none" stroke="#63b8ff" d="M1145.06,-223.74C1134.98,-221.49 1124.54,-219.18 1114.82,-217.01"/>
<polygon fill="#63b8ff" stroke="#63b8ff" points="1144.47,-227.19 1154.99,-225.94 1145.99,-220.36 1144.47,-227.19"/>
</a>
</g>
</g>
<!-- Node23&#45;&gt;Node16 -->
<g id="edge29_Node000023_Node000016" class="edge">
<title>Node23&#45;&gt;Node16</title>
<g id="a_edge29_Node000023_Node000016"><a xlink:title=" ">
<path fill="none" stroke="#63b8ff" d="M1143.14,-202.42C1134.43,-203.04 1125.51,-203.68 1117.06,-204.28"/>
<polygon fill="#63b8ff" stroke="#63b8ff" points="1143.5,-205.9 1153.22,-201.7 1143,-198.92 1143.5,-205.9"/>
</a>
</g>
</g>
<!-- Node24&#45;&gt;Node16 -->
<g id="edge31_Node000024_Node000016" class="edge">
<title>Node24&#45;&gt;Node16</title>
<g id="a_edge31_Node000024_Node000016"><a xlink:title=" ">
<path fill="none" stroke="#63b8ff" d="M1162.29,-174.54C1141.84,-182 1116.65,-191.2 1098.07,-197.98"/>
<polygon fill="#63b8ff" stroke="#63b8ff" points="1163.7,-177.75 1171.89,-171.03 1161.3,-171.17 1163.7,-177.75"/>
</a>
</g>
</g>
<!-- Node25&#45;&gt;Node16 -->
<g id="edge33_Node000025_Node000016" class="edge">
<title>Node25&#45;&gt;Node16</title>
<g id="a_edge33_Node000025_Node000016"><a xlink:title=" ">
<path fill="none" stroke="#63b8ff" d="M1270.65,-83.12C1234.94,-83.95 1188.77,-89.55 1153,-109.5 1114.83,-130.79 1087.25,-177.77 1076.71,-197.97"/>
<polygon fill="#63b8ff" stroke="#63b8ff" points="1270.94,-86.62 1280.9,-83.01 1270.86,-79.62 1270.94,-86.62"/>
</a>
</g>
</g>
<!-- Node26&#45;&gt;Node16 -->
<g id="edge37_Node000026_Node000016" class="edge">
<title>Node26&#45;&gt;Node16</title>
<g id="a_edge37_Node000026_Node000016"><a xlink:title=" ">
<path fill="none" stroke="#63b8ff" d="M1271.05,-47.01C1234.69,-49.2 1187.65,-57.02 1153,-80.5 1108.62,-110.57 1083.38,-173.92 1075.08,-197.97"/>
<polygon fill="#63b8ff" stroke="#63b8ff" points="1271.66,-50.49 1281.48,-46.52 1271.32,-43.49 1271.66,-50.49"/>
</a>
</g>
</g>
<!-- Node27 -->
<g id="Node000027" class="node">
<title>Node27</title>
<g id="a_Node000027"><a xlink:href="code__80005FD0_8c.html#a1405615f7a8bf075a39f55ec610515b4" target="_top" xlink:title=" ">
<polygon fill="white" stroke="#666666" points="1245,-19 1153,-19 1153,0 1245,0 1245,-19"/>
<text text-anchor="middle" x="1199" y="-7" font-family="Helvetica,sans-Serif" font-size="10.00">func_8001A518</text>
</a>
</g>
</g>
<!-- Node26&#45;&gt;Node27 -->
<g id="edge35_Node000026_Node000027" class="edge">
<title>Node26&#45;&gt;Node27</title>
<g id="a_edge35_Node000026_Node000027"><a xlink:title=" ">
<path fill="none" stroke="#63b8ff" d="M1284.77,-34.96C1267.56,-29.8 1247.94,-23.9 1231.91,-19.09"/>
<polygon fill="#63b8ff" stroke="#63b8ff" points="1283.99,-38.39 1294.58,-37.91 1286.01,-31.68 1283.99,-38.39"/>
</a>
</g>
</g>
<!-- Node27&#45;&gt;Node16 -->
<g id="edge36_Node000027_Node000016" class="edge">
<title>Node27&#45;&gt;Node16</title>
<g id="a_edge36_Node000027_Node000016"><a xlink:title=" ">
<path fill="none" stroke="#63b8ff" d="M1164.45,-24.17C1160.28,-26.88 1156.33,-29.99 1153,-33.5 1104.65,-84.55 1080.98,-169.65 1074.15,-197.99"/>
<polygon fill="#63b8ff" stroke="#63b8ff" points="1166.24,-27.18 1173.15,-19.15 1162.74,-21.11 1166.24,-27.18"/>
</a>
</g>
</g>
</g>
</svg>

<g id="navigator" transform="translate(0 0)" fill="#404254">
  <rect fill="#f2f5e9" fill-opacity="0.5" stroke="#606060" stroke-width=".5" x="0" y="0" width="60" height="60"/>
  <use id="zoomplus" xlink:href="#zoomPlus" x="17" y="9" onmousedown="handleZoom(evt,'in')"/>
  <use id="zoomminus" xlink:href="#zoomMin" x="42" y="9" onmousedown="handleZoom(evt,'out')"/>
  <use id="reset" xlink:href="#resetDef" x="30" y="36" onmousedown="handleReset()"/>
   <use id="arrowup" xlink:href="#arrowUp" x="0" y="0" onmousedown="handlePan(0,-1)"/>
  <use id="arrowright" xlink:href="#arrowRight" x="0" y="0" onmousedown="handlePan(1,0)"/>
  <use id="arrowdown" xlink:href="#arrowDown" x="0" y="0" onmousedown="handlePan(0,1)"/>
  <use id="arrowleft" xlink:href="#arrowLeft" x="0" y="0" onmousedown="handlePan(-1,0)"/>
</g>
<svg viewBox="0 0 15 15" width="100%" height="30px" preserveAspectRatio="xMaxYMin meet">
 <g id="arrow_out" transform="scale(0.3 0.3)">
  <a xlink:href="code__80005FD0_8h_ad46c5181364a1a7b7023d01bf646a145_icgraph_org.svg" target="_base">
   <rect id="button" ry="5" rx="5" y="6" x="6" height="38" width="38"
        fill="#f2f5e9" fill-opacity="0.5" stroke="#606060" stroke-width="1.0"/>
   <path id="arrow"
     d="M 11.500037,31.436501 C 11.940474,20.09759 22.043105,11.32322 32.158766,21.979434 L 37.068811,17.246167 C 37.068811,17.246167 37.088388,32 37.088388,32 L 22.160133,31.978069 C 22.160133,31.978069 26.997745,27.140456 26.997745,27.140456 C 18.528582,18.264221 13.291696,25.230495 11.500037,31.436501 z"
     style="fill:#404040;"/>
  </a>
 </g>
</svg>

<style type='text/css'>
<![CDATA[
[data-mouse-over-selected='false'] { opacity: 0.7; }
[data-mouse-over-selected='true']  { opacity: 1.0; }
]]>
</style>
<script type="application/ecmascript"><![CDATA[
document.addEventListener('DOMContentLoaded', (event) => {
  highlightEdges();
  highlightAdjacentNodes();
});
]]></script>
</svg>
