<?xml version="1.0" encoding="UTF-8" standalone="no"?>
<!DOCTYPE svg PUBLIC "-//W3C//DTD SVG 1.1//EN"
 "http://www.w3.org/Graphics/SVG/1.1/DTD/svg11.dtd">
<!-- Generated by graphviz version 2.43.0 (0)
 -->
<!-- Title: func_800748F4 Pages: 1 -->
<!--zoomable 373 -->
<svg id="main" version="1.1" xmlns="http://www.w3.org/2000/svg" xmlns:xlink="http://www.w3.org/1999/xlink" xml:space="preserve" onload="init(evt)">
<style type="text/css"><![CDATA[
.edge:hover path { stroke: red; }
.edge:hover polygon { stroke: red; fill: red; }
]]></style>
<script type="text/javascript"><![CDATA[
var edges = document.getElementsByTagName('g');
if (edges && edges.length) {
  for (var i=0;i<edges.length;i++) {
    if (edges[i].id.substr(0,4)=='edge') {
      edges[i].setAttribute('class','edge');
    }
  }
}
]]></script>
        <defs>
                <circle id="rim" cx="0" cy="0" r="7"/>
                <circle id="rim2" cx="0" cy="0" r="3.5"/>
                <g id="zoomPlus">
                        <use xlink:href="#rim" fill="#404040">
                                <set attributeName="fill" to="#808080" begin="zoomplus.mouseover" end="zoomplus.mouseout"/>
                        </use>
                        <path d="M-4,0h8M0,-4v8" fill="none" stroke="white" stroke-width="1.5" pointer-events="none"/>
                </g>
                <g id="zoomMin">
                        <use xlink:href="#rim" fill="#404040">
                                <set attributeName="fill" to="#808080" begin="zoomminus.mouseover" end="zoomminus.mouseout"/>
                        </use>
                        <path d="M-4,0h8" fill="none" stroke="white" stroke-width="1.5" pointer-events="none"/>
                </g>
                <g id="dirArrow">
                        <path fill="none" stroke="white" stroke-width="1.5" d="M0,-3.0v7 M-2.5,-0.5L0,-3.0L2.5,-0.5"/>
                </g>
               <g id="resetDef">
                       <use xlink:href="#rim2" fill="#404040">
                               <set attributeName="fill" to="#808080" begin="reset.mouseover" end="reset.mouseout"/>
                       </use>
               </g>
        </defs>

<script type="text/javascript">
var viewWidth = 1033;
var viewHeight = 373;
var sectionId = 'dynsection-136';
</script>
<script xlink:href="svgpan.js"/>
<svg id="graph" class="graph">
<g id="viewport">
<title>func_800748F4</title>
<polygon fill="white" stroke="transparent" points="-4,4 -4,-368.93 1029,-368.93 1029,4 -4,4"/>
<!-- Node1 -->
<g id="node1" class="node">
<title>Node1</title>
<g id="a_node1"><a xlink:title=" ">
<polygon fill="#bfbfbf" stroke="black" points="0,-283.41 0,-302.41 91,-302.41 91,-283.41 0,-283.41"/>
<text text-anchor="middle" x="45.5" y="-290.41" font-family="Helvetica,sans-Serif" font-size="10.00">func_800748F4</text>
</a>
</g>
</g>
<!-- Node2 -->
<g id="node2" class="node">
<title>Node2</title>
<g id="a_node2"><a xlink:href="code__80071F00_8c.html#ae7e54f88bbb6270316a6d6fde77173fb" target="_top" xlink:title=" ">
<polygon fill="white" stroke="black" points="127,-311.41 127,-330.41 218,-330.41 218,-311.41 127,-311.41"/>
<text text-anchor="middle" x="172.5" y="-318.41" font-family="Helvetica,sans-Serif" font-size="10.00">func_80074704</text>
</a>
</g>
</g>
<!-- Node1&#45;&gt;Node2 -->
<g id="edge1" class="edge">
<title>Node1&#45;&gt;Node2</title>
<path fill="none" stroke="midnightblue" d="M89.17,-302.47C98.82,-304.63 109.18,-306.95 119.18,-309.19"/>
<polygon fill="midnightblue" stroke="midnightblue" points="118.5,-312.63 129.02,-311.4 120.03,-305.8 118.5,-312.63"/>
</g>
<!-- Node4 -->
<g id="node4" class="node">
<title>Node4</title>
<g id="a_node4"><a xlink:href="code__80071F00_8c.html#acb92c6daf2eb586d620729f62d6e58a7" target="_top" xlink:title=" ">
<polygon fill="white" stroke="black" points="127,-264.41 127,-283.41 218,-283.41 218,-264.41 127,-264.41"/>
<text text-anchor="middle" x="172.5" y="-271.41" font-family="Helvetica,sans-Serif" font-size="10.00">func_800747F0</text>
</a>
</g>
</g>
<!-- Node1&#45;&gt;Node4 -->
<g id="edge3" class="edge">
<title>Node1&#45;&gt;Node4</title>
<path fill="none" stroke="midnightblue" d="M91.27,-286.11C99.44,-284.87 108.05,-283.56 116.47,-282.28"/>
<polygon fill="midnightblue" stroke="midnightblue" points="117.26,-285.7 126.62,-280.73 116.21,-278.78 117.26,-285.7"/>
</g>
<!-- Node3 -->
<g id="node3" class="node">
<title>Node3</title>
<g id="a_node3"><a xlink:href="code__80071F00_8c.html#a74b3e5bf86dbf348bd01976b87c0732a" target="_top" xlink:title=" ">
<polygon fill="white" stroke="black" points="254,-321.41 254,-340.41 346,-340.41 346,-321.41 254,-321.41"/>
<text text-anchor="middle" x="300" y="-328.41" font-family="Helvetica,sans-Serif" font-size="10.00">func_800744A0</text>
</a>
</g>
</g>
<!-- Node2&#45;&gt;Node3 -->
<g id="edge2" class="edge">
<title>Node2&#45;&gt;Node3</title>
<path fill="none" stroke="midnightblue" d="M218.1,-324.47C226.31,-325.12 234.98,-325.81 243.47,-326.49"/>
<polygon fill="midnightblue" stroke="midnightblue" points="243.45,-330 253.7,-327.3 244.01,-323.02 243.45,-330"/>
</g>
<!-- Node5 -->
<g id="node5" class="node">
<title>Node5</title>
<g id="a_node5"><a xlink:href="code__80071F00_8c.html#af87b8dfb689f234578e9fa09294b6143" target="_top" xlink:title=" ">
<polygon fill="white" stroke="black" points="254.5,-245.41 254.5,-264.41 345.5,-264.41 345.5,-245.41 254.5,-245.41"/>
<text text-anchor="middle" x="300" y="-252.41" font-family="Helvetica,sans-Serif" font-size="10.00">func_80074478</text>
</a>
</g>
</g>
<!-- Node4&#45;&gt;Node5 -->
<g id="edge4" class="edge">
<title>Node4&#45;&gt;Node5</title>
<path fill="none" stroke="midnightblue" d="M218.1,-267.16C226.51,-265.89 235.39,-264.54 244.07,-263.23"/>
<polygon fill="midnightblue" stroke="midnightblue" points="244.76,-266.66 254.12,-261.71 243.71,-259.74 244.76,-266.66"/>
</g>
<!-- Node6 -->
<g id="node6" class="node">
<title>Node6</title>
<g id="a_node6"><a xlink:href="code__80071F00_8c.html#a7ce184a84c4acf9f997a2555c6ab6d8e" target="_top" xlink:title=" ">
<polygon fill="white" stroke="black" points="254.5,-207.41 254.5,-226.41 345.5,-226.41 345.5,-207.41 254.5,-207.41"/>
<text text-anchor="middle" x="300" y="-214.41" font-family="Helvetica,sans-Serif" font-size="10.00">func_80074574</text>
</a>
</g>
</g>
<!-- Node4&#45;&gt;Node6 -->
<g id="edge5" class="edge">
<title>Node4&#45;&gt;Node6</title>
<path fill="none" stroke="midnightblue" d="M193.24,-264.31C209.48,-256.49 233.12,-245.24 254,-235.91 257.92,-234.16 262.05,-232.36 266.15,-230.6"/>
<polygon fill="midnightblue" stroke="midnightblue" points="267.73,-233.73 275.56,-226.59 264.99,-227.28 267.73,-233.73"/>
</g>
<!-- Node21 -->
<g id="node21" class="node">
<title>Node21</title>
<g id="a_node21"><a xlink:href="code__80071F00_8c.html#a6b1eea97d9c7f4d20eb160ca6a28175b" target="_top" xlink:title=" ">
<polygon fill="white" stroke="black" points="254.5,-283.41 254.5,-302.41 345.5,-302.41 345.5,-283.41 254.5,-283.41"/>
<text text-anchor="middle" x="300" y="-290.41" font-family="Helvetica,sans-Serif" font-size="10.00">func_80074790</text>
</a>
</g>
</g>
<!-- Node4&#45;&gt;Node21 -->
<g id="edge34" class="edge">
<title>Node4&#45;&gt;Node21</title>
<path fill="none" stroke="midnightblue" d="M218.1,-280.66C226.51,-281.94 235.39,-283.28 244.07,-284.6"/>
<polygon fill="midnightblue" stroke="midnightblue" points="243.71,-288.08 254.12,-286.12 244.76,-281.16 243.71,-288.08"/>
</g>
<!-- Node7 -->
<g id="node7" class="node">
<title>Node7</title>
<g id="a_node7"><a xlink:href="code__80071F00_8c.html#ae1c75502e160df439fc83386eb9cb801" target="_top" xlink:title=" ">
<polygon fill="white" stroke="black" points="382,-207.41 382,-226.41 473,-226.41 473,-207.41 382,-207.41"/>
<text text-anchor="middle" x="427.5" y="-214.41" font-family="Helvetica,sans-Serif" font-size="10.00">func_80074510</text>
</a>
</g>
</g>
<!-- Node6&#45;&gt;Node7 -->
<g id="edge6" class="edge">
<title>Node6&#45;&gt;Node7</title>
<path fill="none" stroke="midnightblue" d="M345.6,-216.91C354.01,-216.91 362.89,-216.91 371.57,-216.91"/>
<polygon fill="midnightblue" stroke="midnightblue" points="371.62,-220.41 381.62,-216.91 371.62,-213.41 371.62,-220.41"/>
</g>
<!-- Node8 -->
<g id="node8" class="node">
<title>Node8</title>
<g id="a_node8"><a xlink:href="code__80071F00_8c.html#af4fa2f756053d4e6bfe36e378c24a3b6" target="_top" xlink:title=" ">
<polygon fill="white" stroke="black" points="509,-179.41 509,-198.41 601,-198.41 601,-179.41 509,-179.41"/>
<text text-anchor="middle" x="555" y="-186.41" font-family="Helvetica,sans-Serif" font-size="10.00">func_800744CC</text>
</a>
</g>
</g>
<!-- Node7&#45;&gt;Node8 -->
<g id="edge7" class="edge">
<title>Node7&#45;&gt;Node8</title>
<path fill="none" stroke="midnightblue" d="M471.34,-207.35C481.03,-205.19 491.43,-202.87 501.47,-200.63"/>
<polygon fill="midnightblue" stroke="midnightblue" points="502.36,-204.02 511.35,-198.43 500.83,-197.19 502.36,-204.02"/>
</g>
<!-- Node17 -->
<g id="node17" class="node">
<title>Node17</title>
<g id="a_node17"><a xlink:href="code__80071F00_8h.html#ae288a36d96a4db6977d95327e246ec12" target="_top" xlink:title=" ">
<polygon fill="white" stroke="black" points="513.5,-236.41 513.5,-255.41 596.5,-255.41 596.5,-236.41 513.5,-236.41"/>
<text text-anchor="middle" x="555" y="-243.41" font-family="Helvetica,sans-Serif" font-size="10.00">osPiStartDma</text>
</a>
</g>
</g>
<!-- Node7&#45;&gt;Node17 -->
<g id="edge20" class="edge">
<title>Node7&#45;&gt;Node17</title>
<path fill="none" stroke="midnightblue" d="M469.94,-226.49C480.66,-228.96 492.31,-231.66 503.43,-234.23"/>
<polygon fill="midnightblue" stroke="midnightblue" points="502.93,-237.7 513.46,-236.54 504.5,-230.88 502.93,-237.7"/>
</g>
<!-- Node9 -->
<g id="node9" class="node">
<title>Node9</title>
<g id="a_node9"><a xlink:href="code__80071F00_8h.html#a4283cbf896ea7ca31653640f6dd237af" target="_top" xlink:title=" ">
<polygon fill="white" stroke="black" points="652,-170.41 652,-189.41 730,-189.41 730,-170.41 652,-170.41"/>
<text text-anchor="middle" x="691" y="-177.41" font-family="Helvetica,sans-Serif" font-size="10.00">osRecvMesg</text>
</a>
</g>
</g>
<!-- Node8&#45;&gt;Node9 -->
<g id="edge8" class="edge">
<title>Node8&#45;&gt;Node9</title>
<path fill="none" stroke="midnightblue" d="M601.37,-185.87C614.31,-185 628.45,-184.05 641.57,-183.17"/>
<polygon fill="midnightblue" stroke="midnightblue" points="642.08,-186.64 651.83,-182.48 641.61,-179.65 642.08,-186.64"/>
</g>
<!-- Node10 -->
<g id="node10" class="node">
<title>Node10</title>
<g id="a_node10"><a xlink:href="libultra__internal_8h.html#a8ad9db8aa6bfc4437abdd0363b663b16" target="_top" xlink:title=" ">
<polygon fill="white" stroke="black" points="919.5,-325.41 919.5,-344.41 1007.5,-344.41 1007.5,-325.41 919.5,-325.41"/>
<text text-anchor="middle" x="963.5" y="-332.41" font-family="Helvetica,sans-Serif" font-size="10.00">__osDisableInt</text>
</a>
</g>
</g>
<!-- Node9&#45;&gt;Node10 -->
<g id="edge9" class="edge">
<title>Node9&#45;&gt;Node10</title>
<path fill="none" stroke="midnightblue" d="M729.52,-189.44C735.09,-191.93 740.47,-195.04 745,-198.91 770.39,-220.64 755.87,-242.89 781,-264.91 817.44,-296.86 870.07,-314.99 909.27,-324.75"/>
<polygon fill="midnightblue" stroke="midnightblue" points="908.65,-328.2 919.19,-327.11 910.27,-321.39 908.65,-328.2"/>
</g>
<!-- Node11 -->
<g id="node11" class="node">
<title>Node11</title>
<g id="a_node11"><a xlink:href="libultra__internal_8h.html#afe9c3abc4ca93d9fe18a87d9f108d5cb" target="_top" xlink:title=" ">
<polygon fill="white" stroke="black" points="902,-29.41 902,-48.41 1025,-48.41 1025,-29.41 902,-29.41"/>
<text text-anchor="middle" x="963.5" y="-36.41" font-family="Helvetica,sans-Serif" font-size="10.00">__osEnqueueAndYield</text>
</a>
</g>
</g>
<!-- Node9&#45;&gt;Node11 -->
<g id="edge10" class="edge">
<title>Node9&#45;&gt;Node11</title>
<path fill="none" stroke="midnightblue" d="M693.71,-170.04C699.52,-139.99 721.52,-49.51 781,-13.91 829.35,15.03 897.71,-8.06 935.22,-25.03"/>
<polygon fill="midnightblue" stroke="midnightblue" points="933.97,-28.3 944.5,-29.39 936.94,-21.97 933.97,-28.3"/>
</g>
<!-- Node12 -->
<g id="node12" class="node">
<title>Node12</title>
<g id="a_node12"><a xlink:href="libultra__internal_8h.html#a82b6b8e6a4311b516950168ef4078e33" target="_top" xlink:title=" ">
<polygon fill="white" stroke="black" points="918.5,-280.41 918.5,-299.41 1008.5,-299.41 1008.5,-280.41 918.5,-280.41"/>
<text text-anchor="middle" x="963.5" y="-287.41" font-family="Helvetica,sans-Serif" font-size="10.00">__osPopThread</text>
</a>
</g>
</g>
<!-- Node9&#45;&gt;Node12 -->
<g id="edge11" class="edge">
<title>Node9&#45;&gt;Node12</title>
<path fill="none" stroke="midnightblue" d="M726.21,-189.5C732.71,-192.06 739.27,-195.17 745,-198.91 764.48,-211.63 761.15,-224.79 781,-236.91 802.79,-250.22 865.14,-266.93 910.69,-277.99"/>
<polygon fill="midnightblue" stroke="midnightblue" points="909.88,-281.4 920.42,-280.33 911.52,-274.59 909.88,-281.4"/>
</g>
<!-- Node13 -->
<g id="node13" class="node">
<title>Node13</title>
<g id="a_node13"><a xlink:href="libultra__internal_8h.html#aecafa57b85fd739d6033705808194def" target="_top" xlink:title=" ">
<polygon fill="white" stroke="black" points="919,-124.41 919,-143.41 1008,-143.41 1008,-124.41 919,-124.41"/>
<text text-anchor="middle" x="963.5" y="-131.41" font-family="Helvetica,sans-Serif" font-size="10.00">__osRestoreInt</text>
</a>
</g>
</g>
<!-- Node9&#45;&gt;Node13 -->
<g id="edge12" class="edge">
<title>Node9&#45;&gt;Node13</title>
<path fill="none" stroke="midnightblue" d="M697.83,-170.13C710.2,-150.45 741.25,-106.51 781,-89.91 835.38,-67.21 904.03,-98.92 939.28,-119.23"/>
<polygon fill="midnightblue" stroke="midnightblue" points="937.51,-122.25 947.89,-124.35 941.09,-116.23 937.51,-122.25"/>
</g>
<!-- Node14 -->
<g id="node14" class="node">
<title>Node14</title>
<g id="a_node14"><a xlink:href="osStartThread_8c.html#a3b144e814933e16a2fbf2642ad098ed3" target="_top" xlink:title=" ">
<polygon fill="white" stroke="black" points="781,-208.41 781,-227.41 866,-227.41 866,-208.41 781,-208.41"/>
<text text-anchor="middle" x="823.5" y="-215.41" font-family="Helvetica,sans-Serif" font-size="10.00">osStartThread</text>
</a>
</g>
</g>
<!-- Node9&#45;&gt;Node14 -->
<g id="edge13" class="edge">
<title>Node9&#45;&gt;Node14</title>
<path fill="none" stroke="midnightblue" d="M724.93,-189.5C741.62,-194.36 762.09,-200.32 779.96,-205.53"/>
<polygon fill="midnightblue" stroke="midnightblue" points="779,-208.89 789.58,-208.33 780.96,-202.17 779,-208.89"/>
</g>
<!-- Node14&#45;&gt;Node10 -->
<g id="edge14" class="edge">
<title>Node14&#45;&gt;Node10</title>
<path fill="none" stroke="midnightblue" d="M830.42,-227.41C842.09,-245.49 869.77,-285.14 902,-308.91 908.53,-313.73 916.1,-317.88 923.62,-321.35"/>
<polygon fill="midnightblue" stroke="midnightblue" points="922.47,-324.67 933.04,-325.4 925.23,-318.24 922.47,-324.67"/>
</g>
<!-- Node14&#45;&gt;Node11 -->
<g id="edge16" class="edge">
<title>Node14&#45;&gt;Node11</title>
<path fill="none" stroke="midnightblue" d="M831.68,-208.19C845.26,-189.84 875.7,-148.89 902,-114.91 917.53,-94.85 935.71,-72.11 948.05,-56.78"/>
<polygon fill="midnightblue" stroke="midnightblue" points="951.03,-58.66 954.58,-48.68 945.58,-54.27 951.03,-58.66"/>
</g>
<!-- Node14&#45;&gt;Node12 -->
<g id="edge18" class="edge">
<title>Node14&#45;&gt;Node12</title>
<path fill="none" stroke="midnightblue" d="M842.83,-227.47C866.44,-239.79 907.69,-261.32 935.05,-275.59"/>
<polygon fill="midnightblue" stroke="midnightblue" points="933.61,-278.79 944.1,-280.31 936.85,-272.58 933.61,-278.79"/>
</g>
<!-- Node14&#45;&gt;Node13 -->
<g id="edge19" class="edge">
<title>Node14&#45;&gt;Node13</title>
<path fill="none" stroke="midnightblue" d="M841.53,-208.23C849.06,-203.9 858.01,-198.71 866,-193.91 891.12,-178.84 919.56,-161.07 939.03,-148.8"/>
<polygon fill="midnightblue" stroke="midnightblue" points="940.96,-151.72 947.55,-143.42 937.22,-145.8 940.96,-151.72"/>
</g>
<!-- Node15 -->
<g id="node15" class="node">
<title>Node15</title>
<g id="a_node15"><a xlink:href="libultra__internal_8h.html#a650b788ebd5efde9c8cbccc1ee832445" target="_top" xlink:title=" ">
<polygon fill="white" stroke="black" points="906,-190.41 906,-209.41 1021,-209.41 1021,-190.41 906,-190.41"/>
<text text-anchor="middle" x="963.5" y="-197.41" font-family="Helvetica,sans-Serif" font-size="10.00">__osDispatchThread</text>
</a>
</g>
</g>
<!-- Node14&#45;&gt;Node15 -->
<g id="edge15" class="edge">
<title>Node14&#45;&gt;Node15</title>
<path fill="none" stroke="midnightblue" d="M866.28,-212.46C875.62,-211.24 885.75,-209.92 895.82,-208.61"/>
<polygon fill="midnightblue" stroke="midnightblue" points="896.37,-212.07 905.84,-207.3 895.47,-205.13 896.37,-212.07"/>
</g>
<!-- Node16 -->
<g id="node16" class="node">
<title>Node16</title>
<g id="a_node16"><a xlink:href="libultra__internal_8h.html#ac9d6cfd19de5565e74f1d74a14e9092d" target="_top" xlink:title=" ">
<polygon fill="white" stroke="black" points="906.5,-228.41 906.5,-247.41 1020.5,-247.41 1020.5,-228.41 906.5,-228.41"/>
<text text-anchor="middle" x="963.5" y="-235.41" font-family="Helvetica,sans-Serif" font-size="10.00">__osEnqueueThread</text>
</a>
</g>
</g>
<!-- Node14&#45;&gt;Node16 -->
<g id="edge17" class="edge">
<title>Node14&#45;&gt;Node16</title>
<path fill="none" stroke="midnightblue" d="M866.28,-223.97C875.74,-225.34 886.01,-226.83 896.21,-228.3"/>
<polygon fill="midnightblue" stroke="midnightblue" points="895.94,-231.8 906.34,-229.77 896.95,-224.88 895.94,-231.8"/>
</g>
<!-- Node18 -->
<g id="node18" class="node">
<title>Node18</title>
<g id="a_node18"><a xlink:href="osJamMesg_8c.html#ac69f7738a5120910a2f6202d27fb44f4" target="_top" xlink:title=" ">
<polygon fill="white" stroke="black" points="654.5,-208.41 654.5,-227.41 727.5,-227.41 727.5,-208.41 654.5,-208.41"/>
<text text-anchor="middle" x="691" y="-215.41" font-family="Helvetica,sans-Serif" font-size="10.00">osJamMesg</text>
</a>
</g>
</g>
<!-- Node17&#45;&gt;Node18 -->
<g id="edge21" class="edge">
<title>Node17&#45;&gt;Node18</title>
<path fill="none" stroke="midnightblue" d="M596.57,-237.44C611.61,-234.29 628.76,-230.71 644.23,-227.48"/>
<polygon fill="midnightblue" stroke="midnightblue" points="645.04,-230.88 654.12,-225.41 643.61,-224.03 645.04,-230.88"/>
</g>
<!-- Node19 -->
<g id="node19" class="node">
<title>Node19</title>
<g id="a_node19"><a xlink:href="osPiGetCmdQueue_8c.html#a0fb5a57f9e199d8bb06e19ba556efac0" target="_top" xlink:title=" ">
<polygon fill="white" stroke="black" points="637,-246.41 637,-265.41 745,-265.41 745,-246.41 637,-246.41"/>
<text text-anchor="middle" x="691" y="-253.41" font-family="Helvetica,sans-Serif" font-size="10.00">osPiGetCmdQueue</text>
</a>
</g>
</g>
<!-- Node17&#45;&gt;Node19 -->
<g id="edge27" class="edge">
<title>Node17&#45;&gt;Node19</title>
<path fill="none" stroke="midnightblue" d="M596.57,-248.94C606.04,-249.65 616.36,-250.42 626.56,-251.18"/>
<polygon fill="midnightblue" stroke="midnightblue" points="626.46,-254.68 636.69,-251.93 626.98,-247.7 626.46,-254.68"/>
</g>
<!-- Node20 -->
<g id="node20" class="node">
<title>Node20</title>
<g id="a_node20"><a xlink:href="osSendMesg_8c.html#a413bd1b0a16c54dcc9e59c48b3d7f142" target="_top" xlink:title=" ">
<polygon fill="white" stroke="black" points="652,-284.41 652,-303.41 730,-303.41 730,-284.41 652,-284.41"/>
<text text-anchor="middle" x="691" y="-291.41" font-family="Helvetica,sans-Serif" font-size="10.00">osSendMesg</text>
</a>
</g>
</g>
<!-- Node17&#45;&gt;Node20 -->
<g id="edge28" class="edge">
<title>Node17&#45;&gt;Node20</title>
<path fill="none" stroke="midnightblue" d="M582.79,-255.51C603.15,-262.8 631.37,-272.91 653.75,-280.93"/>
<polygon fill="midnightblue" stroke="midnightblue" points="652.66,-284.25 663.25,-284.33 655.02,-277.66 652.66,-284.25"/>
</g>
<!-- Node18&#45;&gt;Node10 -->
<g id="edge22" class="edge">
<title>Node18&#45;&gt;Node10</title>
<path fill="none" stroke="midnightblue" d="M727.71,-225.67C734.1,-228.37 740.22,-232.01 745,-236.91 780.62,-273.44 739.65,-316.02 781,-345.91 825.01,-377.73 891.83,-361.82 930.93,-347.96"/>
<polygon fill="midnightblue" stroke="midnightblue" points="932.32,-351.17 940.48,-344.42 929.89,-344.61 932.32,-351.17"/>
</g>
<!-- Node18&#45;&gt;Node11 -->
<g id="edge23" class="edge">
<title>Node18&#45;&gt;Node11</title>
<path fill="none" stroke="midnightblue" d="M727.76,-208.96C733.92,-206.38 739.95,-203.09 745,-198.91 769.26,-178.85 758.37,-159.79 781,-137.91 823.35,-96.98 885.98,-67.84 925.49,-52.2"/>
<polygon fill="midnightblue" stroke="midnightblue" points="926.95,-55.39 935.01,-48.52 924.42,-48.86 926.95,-55.39"/>
</g>
<!-- Node18&#45;&gt;Node12 -->
<g id="edge24" class="edge">
<title>Node18&#45;&gt;Node12</title>
<path fill="none" stroke="midnightblue" d="M725.16,-227.51C731.96,-230.1 738.89,-233.23 745,-236.91 763.58,-248.13 761.23,-260.95 781,-269.91 820.98,-288.05 870.82,-292.41 908.15,-292.6"/>
<polygon fill="midnightblue" stroke="midnightblue" points="908.34,-296.1 918.32,-292.55 908.31,-289.1 908.34,-296.1"/>
</g>
<!-- Node18&#45;&gt;Node13 -->
<g id="edge25" class="edge">
<title>Node18&#45;&gt;Node13</title>
<path fill="none" stroke="midnightblue" d="M725.16,-208.32C731.96,-205.73 738.89,-202.6 745,-198.91 763.58,-187.7 761.53,-175.51 781,-165.91 821,-146.18 871.25,-138.45 908.73,-135.5"/>
<polygon fill="midnightblue" stroke="midnightblue" points="909.21,-138.98 918.95,-134.79 908.73,-131.99 909.21,-138.98"/>
</g>
<!-- Node18&#45;&gt;Node14 -->
<g id="edge26" class="edge">
<title>Node18&#45;&gt;Node14</title>
<path fill="none" stroke="midnightblue" d="M727.66,-217.91C740.9,-217.91 756.2,-217.91 770.59,-217.91"/>
<polygon fill="midnightblue" stroke="midnightblue" points="770.87,-221.41 780.87,-217.91 770.87,-214.41 770.87,-221.41"/>
</g>
<!-- Node20&#45;&gt;Node10 -->
<g id="edge29" class="edge">
<title>Node20&#45;&gt;Node10</title>
<path fill="none" stroke="midnightblue" d="M715.75,-303.44C733.44,-310.1 758.34,-318.54 781,-322.91 823.47,-331.1 872.46,-333.96 908.83,-334.85"/>
<polygon fill="midnightblue" stroke="midnightblue" points="909.14,-338.36 919.21,-335.06 909.28,-331.36 909.14,-338.36"/>
</g>
<!-- Node20&#45;&gt;Node11 -->
<g id="edge30" class="edge">
<title>Node20&#45;&gt;Node11</title>
<path fill="none" stroke="midnightblue" d="M730.23,-285.13C735.71,-282.55 740.88,-279.22 745,-274.91 782.34,-235.92 744.58,-198.76 781,-158.91 808.56,-128.76 831.31,-145.49 866,-123.91 897.38,-104.4 928.52,-74.59 946.61,-55.95"/>
<polygon fill="midnightblue" stroke="midnightblue" points="949.37,-58.13 953.75,-48.48 944.31,-53.3 949.37,-58.13"/>
</g>
<!-- Node20&#45;&gt;Node12 -->
<g id="edge31" class="edge">
<title>Node20&#45;&gt;Node12</title>
<path fill="none" stroke="midnightblue" d="M730.4,-301.29C746.03,-303.95 764.31,-306.61 781,-307.91 818.66,-310.86 828.38,-311.39 866,-307.91 880.47,-306.57 896.02,-304.13 910.31,-301.46"/>
<polygon fill="midnightblue" stroke="midnightblue" points="911.31,-304.84 920.46,-299.5 909.98,-297.96 911.31,-304.84"/>
</g>
<!-- Node20&#45;&gt;Node13 -->
<g id="edge32" class="edge">
<title>Node20&#45;&gt;Node13</title>
<path fill="none" stroke="midnightblue" d="M730.26,-284.36C735.61,-281.88 740.73,-278.79 745,-274.91 772.69,-249.81 753.3,-224.01 781,-198.91 801.16,-180.64 868.91,-159.37 915.68,-146.27"/>
<polygon fill="midnightblue" stroke="midnightblue" points="916.9,-149.56 925.61,-143.52 915.04,-142.81 916.9,-149.56"/>
</g>
<!-- Node20&#45;&gt;Node14 -->
<g id="edge33" class="edge">
<title>Node20&#45;&gt;Node14</title>
<path fill="none" stroke="midnightblue" d="M723.48,-284.33C730.72,-281.66 738.27,-278.5 745,-274.91 766.44,-263.5 788.54,-246.65 803.62,-234.23"/>
<polygon fill="midnightblue" stroke="midnightblue" points="806.23,-236.62 811.64,-227.51 801.73,-231.26 806.23,-236.62"/>
</g>
</g>
</svg>
        <g id="navigator" transform="translate(0 0)" fill="#404254">
                <rect fill="#f2f5e9" fill-opacity="0.5" stroke="#606060" stroke-width=".5" x="0" y="0" width="60" height="60"/>
                <use id="zoomplus" xlink:href="#zoomPlus" x="17" y="9" onmousedown="handleZoom(evt,'in')"/>
                <use id="zoomminus" xlink:href="#zoomMin" x="42" y="9" onmousedown="handleZoom(evt,'out')"/>
                <use id="reset" xlink:href="#resetDef" x="30" y="36" onmousedown="handleReset()"/>
                <g id="arrowUp" xlink:href="#dirArrow" transform="translate(30 24)" onmousedown="handlePan(0,-1)">
                  <use xlink:href="#rim" fill="#404040">
                        <set attributeName="fill" to="#808080" begin="arrowUp.mouseover" end="arrowUp.mouseout"/>
                  </use>
                  <path fill="none" stroke="white" stroke-width="1.5" d="M0,-3.0v7 M-2.5,-0.5L0,-3.0L2.5,-0.5"/>
                </g>
                <g id="arrowRight" xlink:href="#dirArrow" transform="rotate(90) translate(36 -43)" onmousedown="handlePan(1,0)">
                  <use xlink:href="#rim" fill="#404040">
                        <set attributeName="fill" to="#808080" begin="arrowRight.mouseover" end="arrowRight.mouseout"/>
                  </use>
                  <path fill="none" stroke="white" stroke-width="1.5" d="M0,-3.0v7 M-2.5,-0.5L0,-3.0L2.5,-0.5"/>
                </g>
                <g id="arrowDown" xlink:href="#dirArrow" transform="rotate(180) translate(-30 -48)" onmousedown="handlePan(0,1)">
                  <use xlink:href="#rim" fill="#404040">
                        <set attributeName="fill" to="#808080" begin="arrowDown.mouseover" end="arrowDown.mouseout"/>
                  </use>
                  <path fill="none" stroke="white" stroke-width="1.5" d="M0,-3.0v7 M-2.5,-0.5L0,-3.0L2.5,-0.5"/>
                </g>
                <g id="arrowLeft" xlink:href="#dirArrow" transform="rotate(270) translate(-36 17)" onmousedown="handlePan(-1,0)">
                  <use xlink:href="#rim" fill="#404040">
                        <set attributeName="fill" to="#808080" begin="arrowLeft.mouseover" end="arrowLeft.mouseout"/>
                  </use>
                  <path fill="none" stroke="white" stroke-width="1.5" d="M0,-3.0v7 M-2.5,-0.5L0,-3.0L2.5,-0.5"/>
                </g>
        </g>
        <svg viewBox="0 0 15 15" width="100%" height="30px" preserveAspectRatio="xMaxYMin meet">
         <g id="arrow_out" transform="scale(0.3 0.3)">
          <a xlink:href="code__80071F00_8h_ac00511eb0e6dfc2a5fd0576cfb2aaa42_cgraph_org.svg" target="_base">
           <rect id="button" ry="5" rx="5" y="6" x="6" height="38" width="38"
                fill="#f2f5e9" fill-opacity="0.5" stroke="#606060" stroke-width="1.0"/>
           <path id="arrow"
             d="M 11.500037,31.436501 C 11.940474,20.09759 22.043105,11.32322 32.158766,21.979434 L 37.068811,17.246167 C 37.068811,17.246167 37.088388,32 37.088388,32 L 22.160133,31.978069 C 22.160133,31.978069 26.997745,27.140456 26.997745,27.140456 C 18.528582,18.264221 13.291696,25.230495 11.500037,31.436501 z"
             style="fill:#404040;"/>
          </a>
         </g>
        </svg>
</svg>
