<?xml version="1.0" encoding="UTF-8" standalone="no"?>
<!DOCTYPE svg PUBLIC "-//W3C//DTD SVG 1.1//EN"
 "http://www.w3.org/Graphics/SVG/1.1/DTD/svg11.dtd">
<!-- Generated by graphviz version 2.43.0 (0)
 -->
<!-- Title: func_800730BC Pages: 1 -->
<svg width="411pt" height="200pt"
 viewBox="0.00 0.00 411.00 200.00" xmlns="http://www.w3.org/2000/svg" xmlns:xlink="http://www.w3.org/1999/xlink">
<g id="graph0" class="graph" transform="scale(1 1) rotate(0) translate(4 196)">
<title>func_800730BC</title>
<polygon fill="white" stroke="transparent" points="-4,4 -4,-196 407,-196 407,4 -4,4"/>
<!-- Node1 -->
<g id="node1" class="node">
<title>Node1</title>
<g id="a_node1"><a xlink:title=" ">
<polygon fill="#bfbfbf" stroke="black" points="0,-99 0,-118 92,-118 92,-99 0,-99"/>
<text text-anchor="middle" x="46" y="-106" font-family="Helvetica,sans-Serif" font-size="10.00">func_800730BC</text>
</a>
</g>
</g>
<!-- Node2 -->
<g id="node2" class="node">
<title>Node2</title>
<g id="a_node2"><a xlink:href="code__80071F00_8c.html#a91e6ccbfa10d972106998ad26b271c17" target="_top" xlink:title=" ">
<polygon fill="white" stroke="black" points="144.5,-137 144.5,-156 235.5,-156 235.5,-137 144.5,-137"/>
<text text-anchor="middle" x="190" y="-144" font-family="Helvetica,sans-Serif" font-size="10.00">func_80072488</text>
</a>
</g>
</g>
<!-- Node1&#45;&gt;Node2 -->
<g id="edge1" class="edge">
<title>Node1&#45;&gt;Node2</title>
<path fill="none" stroke="midnightblue" d="M82.83,-118.09C101.16,-122.99 123.68,-129.02 143.25,-134.26"/>
<polygon fill="midnightblue" stroke="midnightblue" points="142.61,-137.71 153.18,-136.91 144.42,-130.95 142.61,-137.71"/>
</g>
<!-- Node3 -->
<g id="node3" class="node">
<title>Node3</title>
<g id="a_node3"><a xlink:href="code__80071F00_8c.html#a9d0d6fe8e02dc86bf4f9f8c8214ee326" target="_top" xlink:title=" ">
<polygon fill="white" stroke="black" points="289,-161.5 289,-191.5 402,-191.5 402,-161.5 289,-161.5"/>
<text text-anchor="start" x="297" y="-179.5" font-family="Helvetica,sans-Serif" font-size="10.00">set_object_flag_unk</text>
<text text-anchor="middle" x="345.5" y="-168.5" font-family="Helvetica,sans-Serif" font-size="10.00">_054_false</text>
</a>
</g>
</g>
<!-- Node1&#45;&gt;Node3 -->
<g id="edge5" class="edge">
<title>Node1&#45;&gt;Node3</title>
<path fill="none" stroke="midnightblue" d="M56.92,-118.37C71.21,-131.86 99.06,-155.52 128,-165.5 176.42,-182.19 234.54,-184.25 278.37,-182.51"/>
<polygon fill="midnightblue" stroke="midnightblue" points="278.8,-185.99 288.62,-182.02 278.47,-179 278.8,-185.99"/>
</g>
<!-- Node4 -->
<g id="node4" class="node">
<title>Node4</title>
<g id="a_node4"><a xlink:href="code__80071F00_8c.html#a4b4f00a7df0f9bc44914cd922c3cd51b" target="_top" xlink:title=" ">
<polygon fill="white" stroke="black" points="288,-115 288,-134 403,-134 403,-115 288,-115"/>
<text text-anchor="middle" x="345.5" y="-122" font-family="Helvetica,sans-Serif" font-size="10.00">set_object_unk_0CB</text>
</a>
</g>
</g>
<!-- Node1&#45;&gt;Node4 -->
<g id="edge7" class="edge">
<title>Node1&#45;&gt;Node4</title>
<path fill="none" stroke="midnightblue" d="M92.18,-110.93C141.53,-113.58 221.08,-117.86 277.65,-120.9"/>
<polygon fill="midnightblue" stroke="midnightblue" points="277.76,-124.42 287.94,-121.46 278.14,-117.43 277.76,-124.42"/>
</g>
<!-- Node5 -->
<g id="node5" class="node">
<title>Node5</title>
<g id="a_node5"><a xlink:href="code__80071F00_8c.html#ae2e10a969a280fa69bd2db004aa5ae3b" target="_top" xlink:title=" ">
<polygon fill="white" stroke="black" points="128,-49.5 128,-79.5 252,-79.5 252,-49.5 128,-49.5"/>
<text text-anchor="start" x="136" y="-67.5" font-family="Helvetica,sans-Serif" font-size="10.00">is_obj_index_flag_unk</text>
<text text-anchor="middle" x="190" y="-56.5" font-family="Helvetica,sans-Serif" font-size="10.00">_054_inactive</text>
</a>
</g>
</g>
<!-- Node1&#45;&gt;Node5 -->
<g id="edge4" class="edge">
<title>Node1&#45;&gt;Node5</title>
<path fill="none" stroke="midnightblue" d="M77.81,-98.95C93.3,-94.15 112.59,-88.18 130.74,-82.55"/>
<polygon fill="midnightblue" stroke="midnightblue" points="131.86,-85.87 140.38,-79.57 129.79,-79.18 131.86,-85.87"/>
</g>
<!-- Node6 -->
<g id="node6" class="node">
<title>Node6</title>
<g id="a_node6"><a xlink:href="code__80071F00_8c.html#a946b33c1ed166b19b04e4528c3641b9a" target="_top" xlink:title=" ">
<polygon fill="white" stroke="black" points="133.5,-0.5 133.5,-30.5 246.5,-30.5 246.5,-0.5 133.5,-0.5"/>
<text text-anchor="start" x="141.5" y="-18.5" font-family="Helvetica,sans-Serif" font-size="10.00">set_object_flag_unk</text>
<text text-anchor="middle" x="190" y="-7.5" font-family="Helvetica,sans-Serif" font-size="10.00">_054_true</text>
</a>
</g>
</g>
<!-- Node1&#45;&gt;Node6 -->
<g id="edge6" class="edge">
<title>Node1&#45;&gt;Node6</title>
<path fill="none" stroke="midnightblue" d="M56.16,-98.87C70.39,-84.37 99.17,-56.79 128,-39.5 130.65,-37.91 133.42,-36.39 136.26,-34.94"/>
<polygon fill="midnightblue" stroke="midnightblue" points="137.96,-38.01 145.49,-30.56 134.95,-31.69 137.96,-38.01"/>
</g>
<!-- Node2&#45;&gt;Node3 -->
<g id="edge2" class="edge">
<title>Node2&#45;&gt;Node3</title>
<path fill="none" stroke="midnightblue" d="M235.81,-155.26C249.33,-157.9 264.45,-160.86 279.03,-163.7"/>
<polygon fill="midnightblue" stroke="midnightblue" points="278.51,-167.17 289,-165.65 279.86,-160.3 278.51,-167.17"/>
</g>
<!-- Node2&#45;&gt;Node4 -->
<g id="edge3" class="edge">
<title>Node2&#45;&gt;Node4</title>
<path fill="none" stroke="midnightblue" d="M235.81,-140.08C248.91,-138.2 263.53,-136.11 277.68,-134.08"/>
<polygon fill="midnightblue" stroke="midnightblue" points="278.48,-137.5 287.88,-132.61 277.49,-130.57 278.48,-137.5"/>
</g>
</g>
</svg>
