<?xml version="1.0" encoding="UTF-8" standalone="no"?>
<!DOCTYPE svg PUBLIC "-//W3C//DTD SVG 1.1//EN"
 "http://www.w3.org/Graphics/SVG/1.1/DTD/svg11.dtd">
<!-- Generated by graphviz version 2.43.0 (0)
 -->
<!-- Title: func_8009A594 Pages: 1 -->
<svg width="288pt" height="113pt"
 viewBox="0.00 0.00 288.00 112.50" xmlns="http://www.w3.org/2000/svg" xmlns:xlink="http://www.w3.org/1999/xlink">
<g id="graph0" class="graph" transform="scale(1 1) rotate(0) translate(4 108.5)">
<title>func_8009A594</title>
<!-- Node1 -->
<g id="Node000001" class="node">
<title>Node1</title>
<g id="a_Node000001"><a xlink:title=" ">
<polygon fill="#999999" stroke="#666666" points="92,-67.5 0,-67.5 0,-48.5 92,-48.5 92,-67.5"/>
<text text-anchor="middle" x="46" y="-55.5" font-family="Helvetica,sans-Serif" font-size="10.00">func_8009A594</text>
</a>
</g>
</g>
<!-- Node2 -->
<g id="Node000002" class="node">
<title>Node2</title>
<g id="a_Node000002"><a xlink:href="code__80091750_8h.html#aa09b5f20c263ee91bebe07d6d5865516" target="_top" xlink:title=" ">
<polygon fill="white" stroke="#666666" points="250,-104.5 158,-104.5 158,-85.5 250,-85.5 250,-104.5"/>
<text text-anchor="middle" x="204" y="-92.5" font-family="Helvetica,sans-Serif" font-size="10.00">func_80099A94</text>
</a>
</g>
</g>
<!-- Node1&#45;&gt;Node2 -->
<g id="edge1_Node000001_Node000002" class="edge">
<title>Node1&#45;&gt;Node2</title>
<g id="a_edge1_Node000001_Node000002"><a xlink:title=" ">
<path fill="none" stroke="#63b8ff" d="M87.17,-67.53C107.2,-72.28 131.62,-78.07 152.87,-83.11"/>
<polygon fill="#63b8ff" stroke="#63b8ff" points="152.15,-86.54 162.69,-85.44 153.77,-79.73 152.15,-86.54"/>
</a>
</g>
</g>
<!-- Node3 -->
<g id="Node000003" class="node">
<title>Node3</title>
<g id="a_Node000003"><a xlink:href="code__80091750_8c.html#a2d2758c3a87de891a40840727bef3306" target="_top" xlink:title=" ">
<polygon fill="white" stroke="#666666" points="280,-67.5 128,-67.5 128,-48.5 280,-48.5 280,-67.5"/>
<text text-anchor="middle" x="204" y="-55.5" font-family="Helvetica,sans-Serif" font-size="10.00">segmented_to_virtual_dupe</text>
</a>
</g>
</g>
<!-- Node1&#45;&gt;Node3 -->
<g id="edge2_Node000001_Node000003" class="edge">
<title>Node1&#45;&gt;Node3</title>
<g id="a_edge2_Node000001_Node000003"><a xlink:title=" ">
<path fill="none" stroke="#63b8ff" d="M92.12,-58C100.14,-58 108.73,-58 117.44,-58"/>
<polygon fill="#63b8ff" stroke="#63b8ff" points="117.71,-61.5 127.71,-58 117.71,-54.5 117.71,-61.5"/>
</a>
</g>
</g>
<!-- Node4 -->
<g id="Node000004" class="node">
<title>Node4</title>
<g id="a_Node000004"><a xlink:href="code__80091750_8c.html#a7f945b0137dc9c27332444441ca8ac67" target="_top" xlink:title=" ">
<polygon fill="white" stroke="#666666" points="265.5,-30 142.5,-30 142.5,0 265.5,0 265.5,-30"/>
<text text-anchor="start" x="150.5" y="-18" font-family="Helvetica,sans-Serif" font-size="10.00">segmented_to_virtual</text>
<text text-anchor="middle" x="204" y="-7" font-family="Helvetica,sans-Serif" font-size="10.00">_dupe_2</text>
</a>
</g>
</g>
<!-- Node1&#45;&gt;Node4 -->
<g id="edge3_Node000001_Node000004" class="edge">
<title>Node1&#45;&gt;Node4</title>
<g id="a_edge3_Node000001_Node000004"><a xlink:title=" ">
<path fill="none" stroke="#63b8ff" d="M81.62,-48.46C98.44,-43.82 119.2,-38.1 138.77,-32.71"/>
<polygon fill="#63b8ff" stroke="#63b8ff" points="139.85,-36.04 148.56,-30.01 137.99,-29.29 139.85,-36.04"/>
</a>
</g>
</g>
</g>
</svg>
