<?xml version="1.0" encoding="UTF-8" standalone="no"?>
<!DOCTYPE svg PUBLIC "-//W3C//DTD SVG 1.1//EN"
 "http://www.w3.org/Graphics/SVG/1.1/DTD/svg11.dtd">
<!-- Generated by graphviz version 2.43.0 (0)
 -->
<!-- Title: func_8007E59C Pages: 1 -->
<!--zoomable 180 -->
<svg id="main" version="1.1" xmlns="http://www.w3.org/2000/svg" xmlns:xlink="http://www.w3.org/1999/xlink" xml:space="preserve" onload="init(evt)">
<style type="text/css"><![CDATA[
.edge:hover path { stroke: red; }
.edge:hover polygon { stroke: red; fill: red; }
]]></style>
<script type="text/javascript"><![CDATA[
var edges = document.getElementsByTagName('g');
if (edges && edges.length) {
  for (var i=0;i<edges.length;i++) {
    if (edges[i].id.substr(0,4)=='edge') {
      edges[i].setAttribute('class','edge');
    }
  }
}
]]></script>
        <defs>
                <circle id="rim" cx="0" cy="0" r="7"/>
                <circle id="rim2" cx="0" cy="0" r="3.5"/>
                <g id="zoomPlus">
                        <use xlink:href="#rim" fill="#404040">
                                <set attributeName="fill" to="#808080" begin="zoomplus.mouseover" end="zoomplus.mouseout"/>
                        </use>
                        <path d="M-4,0h8M0,-4v8" fill="none" stroke="white" stroke-width="1.5" pointer-events="none"/>
                </g>
                <g id="zoomMin">
                        <use xlink:href="#rim" fill="#404040">
                                <set attributeName="fill" to="#808080" begin="zoomminus.mouseover" end="zoomminus.mouseout"/>
                        </use>
                        <path d="M-4,0h8" fill="none" stroke="white" stroke-width="1.5" pointer-events="none"/>
                </g>
                <g id="dirArrow">
                        <path fill="none" stroke="white" stroke-width="1.5" d="M0,-3.0v7 M-2.5,-0.5L0,-3.0L2.5,-0.5"/>
                </g>
               <g id="resetDef">
                       <use xlink:href="#rim2" fill="#404040">
                               <set attributeName="fill" to="#808080" begin="reset.mouseover" end="reset.mouseout"/>
                       </use>
               </g>
        </defs>

<script type="text/javascript">
var viewWidth = 560;
var viewHeight = 180;
var sectionId = 'dynsection-360';
</script>
<script xlink:href="svgpan.js"/>
<svg id="graph" class="graph">
<g id="viewport">
<title>func_8007E59C</title>
<polygon fill="white" stroke="transparent" points="-4,4 -4,-176 556,-176 556,4 -4,4"/>
<!-- Node1 -->
<g id="node1" class="node">
<title>Node1</title>
<g id="a_node1"><a xlink:title=" ">
<polygon fill="#bfbfbf" stroke="black" points="0,-76.5 0,-95.5 92,-95.5 92,-76.5 0,-76.5"/>
<text text-anchor="middle" x="46" y="-83.5" font-family="Helvetica,sans-Serif" font-size="10.00">func_8007E59C</text>
</a>
</g>
</g>
<!-- Node2 -->
<g id="node2" class="node">
<title>Node2</title>
<g id="a_node2"><a xlink:href="code__80071F00_8c.html#adc76c449a50df9946051e52c42cd3213" target="_top" xlink:title=" ">
<polygon fill="white" stroke="black" points="128,-76.5 128,-95.5 220,-95.5 220,-76.5 128,-76.5"/>
<text text-anchor="middle" x="174" y="-83.5" font-family="Helvetica,sans-Serif" font-size="10.00">func_8007E50C</text>
</a>
</g>
</g>
<!-- Node1&#45;&gt;Node2 -->
<g id="edge1" class="edge">
<title>Node1&#45;&gt;Node2</title>
<path fill="none" stroke="midnightblue" d="M92.13,-86C100.37,-86 109.04,-86 117.53,-86"/>
<polygon fill="midnightblue" stroke="midnightblue" points="117.76,-89.5 127.76,-86 117.76,-82.5 117.76,-89.5"/>
</g>
<!-- Node3 -->
<g id="node3" class="node">
<title>Node3</title>
<g id="a_node3"><a xlink:href="code__80071F00_8c.html#a2c88cc32dff07c6af5fe74d00b9fa279" target="_top" xlink:title=" ">
<polygon fill="white" stroke="black" points="256,-152.5 256,-171.5 348,-171.5 348,-152.5 256,-152.5"/>
<text text-anchor="middle" x="302" y="-159.5" font-family="Helvetica,sans-Serif" font-size="10.00">func_800722A4</text>
</a>
</g>
</g>
<!-- Node2&#45;&gt;Node3 -->
<g id="edge2" class="edge">
<title>Node2&#45;&gt;Node3</title>
<path fill="none" stroke="midnightblue" d="M186.82,-95.54C202.14,-107.61 229.98,-128.57 256,-143 259.31,-144.84 262.83,-146.61 266.39,-148.28"/>
<polygon fill="midnightblue" stroke="midnightblue" points="265.23,-151.6 275.79,-152.47 268.08,-145.21 265.23,-151.6"/>
</g>
<!-- Node4 -->
<g id="node4" class="node">
<title>Node4</title>
<g id="a_node4"><a xlink:href="code__80071F00_8c.html#ab7e91b1ebcbec57dfed6e185a2f67580" target="_top" xlink:title=" ">
<polygon fill="white" stroke="black" points="256.5,-114.5 256.5,-133.5 347.5,-133.5 347.5,-114.5 256.5,-114.5"/>
<text text-anchor="middle" x="302" y="-121.5" font-family="Helvetica,sans-Serif" font-size="10.00">func_80072354</text>
</a>
</g>
</g>
<!-- Node2&#45;&gt;Node4 -->
<g id="edge3" class="edge">
<title>Node2&#45;&gt;Node4</title>
<path fill="none" stroke="midnightblue" d="M206.8,-95.59C222.76,-100.4 242.31,-106.3 259.45,-111.47"/>
<polygon fill="midnightblue" stroke="midnightblue" points="258.63,-114.88 269.22,-114.41 260.65,-108.18 258.63,-114.88"/>
</g>
<!-- Node5 -->
<g id="node5" class="node">
<title>Node5</title>
<g id="a_node5"><a xlink:href="code__80086E70_8c.html#a4c41f5a46d57c405f0325301bba9f226" target="_top" xlink:title=" ">
<polygon fill="white" stroke="black" points="256,-76.5 256,-95.5 348,-95.5 348,-76.5 256,-76.5"/>
<text text-anchor="middle" x="302" y="-83.5" font-family="Helvetica,sans-Serif" font-size="10.00">func_80088A58</text>
</a>
</g>
</g>
<!-- Node2&#45;&gt;Node5 -->
<g id="edge4" class="edge">
<title>Node2&#45;&gt;Node5</title>
<path fill="none" stroke="midnightblue" d="M220.13,-86C228.37,-86 237.04,-86 245.53,-86"/>
<polygon fill="midnightblue" stroke="midnightblue" points="245.76,-89.5 255.76,-86 245.76,-82.5 245.76,-89.5"/>
</g>
<!-- Node6 -->
<g id="node6" class="node">
<title>Node6</title>
<g id="a_node6"><a xlink:href="code__80086E70_8c.html#a39e34425d938564c463dc28ab5b24380" target="_top" xlink:title=" ">
<polygon fill="white" stroke="black" points="256,-38.5 256,-57.5 348,-57.5 348,-38.5 256,-38.5"/>
<text text-anchor="middle" x="302" y="-45.5" font-family="Helvetica,sans-Serif" font-size="10.00">func_8008A060</text>
</a>
</g>
</g>
<!-- Node2&#45;&gt;Node6 -->
<g id="edge5" class="edge">
<title>Node2&#45;&gt;Node6</title>
<path fill="none" stroke="midnightblue" d="M206.8,-76.41C222.76,-71.6 242.31,-65.7 259.45,-60.53"/>
<polygon fill="midnightblue" stroke="midnightblue" points="260.65,-63.82 269.22,-57.59 258.63,-57.12 260.65,-63.82"/>
</g>
<!-- Node7 -->
<g id="node7" class="node">
<title>Node7</title>
<g id="a_node7"><a xlink:href="code__80086E70_8c.html#a745c878145de6fad0bef5ad1c44efc72" target="_top" xlink:title=" ">
<polygon fill="white" stroke="black" points="256,-0.5 256,-19.5 348,-19.5 348,-0.5 256,-0.5"/>
<text text-anchor="middle" x="302" y="-7.5" font-family="Helvetica,sans-Serif" font-size="10.00">func_8008A0B4</text>
</a>
</g>
</g>
<!-- Node2&#45;&gt;Node7 -->
<g id="edge6" class="edge">
<title>Node2&#45;&gt;Node7</title>
<path fill="none" stroke="midnightblue" d="M186.82,-76.46C202.14,-64.39 229.98,-43.43 256,-29 259.31,-27.16 262.83,-25.39 266.39,-23.72"/>
<polygon fill="midnightblue" stroke="midnightblue" points="268.08,-26.79 275.79,-19.53 265.23,-20.4 268.08,-26.79"/>
</g>
<!-- Node8 -->
<g id="node8" class="node">
<title>Node8</title>
<g id="a_node8"><a xlink:href="math__util_8c.html#aaa39a297477f56051975259f4bddd829" target="_top" xlink:title=" ">
<polygon fill="white" stroke="black" points="384,-0.5 384,-19.5 434,-19.5 434,-0.5 384,-0.5"/>
<text text-anchor="middle" x="409" y="-7.5" font-family="Helvetica,sans-Serif" font-size="10.00">atan2s</text>
</a>
</g>
</g>
<!-- Node7&#45;&gt;Node8 -->
<g id="edge7" class="edge">
<title>Node7&#45;&gt;Node8</title>
<path fill="none" stroke="midnightblue" d="M348.14,-10C356.64,-10 365.41,-10 373.52,-10"/>
<polygon fill="midnightblue" stroke="midnightblue" points="373.73,-13.5 383.73,-10 373.73,-6.5 373.73,-13.5"/>
</g>
<!-- Node9 -->
<g id="node9" class="node">
<title>Node9</title>
<g id="a_node9"><a xlink:href="math__util_8c.html#a0273b0ea0783a06996c28669a7438ed9" target="_top" xlink:title=" ">
<polygon fill="white" stroke="black" points="470,-0.5 470,-19.5 552,-19.5 552,-0.5 470,-0.5"/>
<text text-anchor="middle" x="511" y="-7.5" font-family="Helvetica,sans-Serif" font-size="10.00">atan2_lookup</text>
</a>
</g>
</g>
<!-- Node8&#45;&gt;Node9 -->
<g id="edge8" class="edge">
<title>Node8&#45;&gt;Node9</title>
<path fill="none" stroke="midnightblue" d="M434.21,-10C441.85,-10 450.6,-10 459.38,-10"/>
<polygon fill="midnightblue" stroke="midnightblue" points="459.63,-13.5 469.63,-10 459.63,-6.5 459.63,-13.5"/>
</g>
</g>
</svg>
        <g id="navigator" transform="translate(0 0)" fill="#404254">
                <rect fill="#f2f5e9" fill-opacity="0.5" stroke="#606060" stroke-width=".5" x="0" y="0" width="60" height="60"/>
                <use id="zoomplus" xlink:href="#zoomPlus" x="17" y="9" onmousedown="handleZoom(evt,'in')"/>
                <use id="zoomminus" xlink:href="#zoomMin" x="42" y="9" onmousedown="handleZoom(evt,'out')"/>
                <use id="reset" xlink:href="#resetDef" x="30" y="36" onmousedown="handleReset()"/>
                <g id="arrowUp" xlink:href="#dirArrow" transform="translate(30 24)" onmousedown="handlePan(0,-1)">
                  <use xlink:href="#rim" fill="#404040">
                        <set attributeName="fill" to="#808080" begin="arrowUp.mouseover" end="arrowUp.mouseout"/>
                  </use>
                  <path fill="none" stroke="white" stroke-width="1.5" d="M0,-3.0v7 M-2.5,-0.5L0,-3.0L2.5,-0.5"/>
                </g>
                <g id="arrowRight" xlink:href="#dirArrow" transform="rotate(90) translate(36 -43)" onmousedown="handlePan(1,0)">
                  <use xlink:href="#rim" fill="#404040">
                        <set attributeName="fill" to="#808080" begin="arrowRight.mouseover" end="arrowRight.mouseout"/>
                  </use>
                  <path fill="none" stroke="white" stroke-width="1.5" d="M0,-3.0v7 M-2.5,-0.5L0,-3.0L2.5,-0.5"/>
                </g>
                <g id="arrowDown" xlink:href="#dirArrow" transform="rotate(180) translate(-30 -48)" onmousedown="handlePan(0,1)">
                  <use xlink:href="#rim" fill="#404040">
                        <set attributeName="fill" to="#808080" begin="arrowDown.mouseover" end="arrowDown.mouseout"/>
                  </use>
                  <path fill="none" stroke="white" stroke-width="1.5" d="M0,-3.0v7 M-2.5,-0.5L0,-3.0L2.5,-0.5"/>
                </g>
                <g id="arrowLeft" xlink:href="#dirArrow" transform="rotate(270) translate(-36 17)" onmousedown="handlePan(-1,0)">
                  <use xlink:href="#rim" fill="#404040">
                        <set attributeName="fill" to="#808080" begin="arrowLeft.mouseover" end="arrowLeft.mouseout"/>
                  </use>
                  <path fill="none" stroke="white" stroke-width="1.5" d="M0,-3.0v7 M-2.5,-0.5L0,-3.0L2.5,-0.5"/>
                </g>
        </g>
        <svg viewBox="0 0 15 15" width="100%" height="30px" preserveAspectRatio="xMaxYMin meet">
         <g id="arrow_out" transform="scale(0.3 0.3)">
          <a xlink:href="code__80071F00_8h_a8c3e6b0153b5aaac15fcd48c90b32609_cgraph_org.svg" target="_base">
           <rect id="button" ry="5" rx="5" y="6" x="6" height="38" width="38"
                fill="#f2f5e9" fill-opacity="0.5" stroke="#606060" stroke-width="1.0"/>
           <path id="arrow"
             d="M 11.500037,31.436501 C 11.940474,20.09759 22.043105,11.32322 32.158766,21.979434 L 37.068811,17.246167 C 37.068811,17.246167 37.088388,32 37.088388,32 L 22.160133,31.978069 C 22.160133,31.978069 26.997745,27.140456 26.997745,27.140456 C 18.528582,18.264221 13.291696,25.230495 11.500037,31.436501 z"
             style="fill:#404040;"/>
          </a>
         </g>
        </svg>
</svg>
