<?xml version="1.0" encoding="UTF-8" standalone="no"?>
<!DOCTYPE svg PUBLIC "-//W3C//DTD SVG 1.1//EN"
 "http://www.w3.org/Graphics/SVG/1.1/DTD/svg11.dtd">
<!-- Generated by graphviz version 2.43.0 (0)
 -->
<!-- Title: func_80085F74 Pages: 1 -->
<!--zoomable 523 -->

<svg id="main" version="1.1" xmlns="http://www.w3.org/2000/svg" xmlns:xlink="http://www.w3.org/1999/xlink" xml:space="preserve" onload="init(evt)">
<style type="text/css"><![CDATA[
.node, .edge {opacity: 0.7;}
.node.selected, .edge.selected {opacity: 1;}
.edge:hover path { stroke: red; }
.edge:hover polygon { stroke: red; fill: red; }
]]></style>

<defs>
  <circle id="rim" cx="0" cy="0" r="7"/>
  <circle id="rim2" cx="0" cy="0" r="3.5"/>
  <g id="zoomPlus">
    <use xlink:href="#rim" fill="#404040"><set attributeName="fill" to="#808080" begin="zoomplus.mouseover" end="zoomplus.mouseout"/></use>
    <path d="M-4,0h8M0,-4v8" fill="none" stroke="white" stroke-width="1.5" pointer-events="none"/>
  </g>
  <g id="zoomMin">
    <use xlink:href="#rim" fill="#404040"><set attributeName="fill" to="#808080" begin="zoomminus.mouseover" end="zoomminus.mouseout"/></use>
    <path d="M-4,0h8" fill="none" stroke="white" stroke-width="1.5" pointer-events="none"/>
  </g>
  <g id="arrowUp" transform="translate(30 24)">
    <use xlink:href="#rim"/>
    <path pointer-events="none" fill="none" stroke="white" stroke-width="1.5" d="M0,-3.0v7 M-2.5,-0.5L0,-3.0L2.5,-0.5"/>
  </g>
  <g id="arrowRight" transform="rotate(90) translate(36 -43)">
    <use xlink:href="#rim"/>
    <path pointer-events="none" fill="none" stroke="white" stroke-width="1.5" d="M0,-3.0v7 M-2.5,-0.5L0,-3.0L2.5,-0.5"/>
  </g>
  <g id="arrowDown" transform="rotate(180) translate(-30 -48)">
    <use xlink:href="#rim"/>
    <path pointer-events="none" fill="none" stroke="white" stroke-width="1.5" d="M0,-3.0v7 M-2.5,-0.5L0,-3.0L2.5,-0.5"/>
  </g>
  <g id="arrowLeft" transform="rotate(270) translate(-36 17)">
    <use xlink:href="#rim"/>
    <path pointer-events="none" fill="none" stroke="white" stroke-width="1.5" d="M0,-3.0v7 M-2.5,-0.5L0,-3.0L2.5,-0.5"/>
  </g>
  <g id="resetDef">
    <use xlink:href="#rim2" fill="#404040"><set attributeName="fill" to="#808080" begin="reset.mouseover" end="reset.mouseout"/></use>
  </g>
</defs>
<script type="application/ecmascript">
var viewWidth = 681;
var viewHeight = 523;
var sectionId = 'dynsection-590';
</script>
<script type="application/ecmascript" xlink:href="svg.min.js"/>
<svg id="graph" class="graph">
<g id="viewport">
<title>func_80085F74</title>
<!-- Node1 -->
<g id="Node000001" class="node">
<title>Node1</title>
<g id="a_Node000001"><a xlink:title=" ">
<polygon fill="#999999" stroke="#666666" points="91,-277 0,-277 0,-258 91,-258 91,-277"/>
<text text-anchor="middle" x="45.5" y="-265" font-family="Helvetica,sans-Serif" font-size="10.00">func_80085F74</text>
</a>
</g>
</g>
<!-- Node2 -->
<g id="Node000002" class="node">
<title>Node2</title>
<g id="a_Node000002"><a xlink:href="code__80071F00_8c.html#a6433786e30fbe8c3dc83f83c9f2c35f9" target="_top" xlink:title=" ">
<polygon fill="white" stroke="#666666" points="506,-456 414,-456 414,-437 506,-437 506,-456"/>
<text text-anchor="middle" x="460" y="-444" font-family="Helvetica,sans-Serif" font-size="10.00">func_800726CC</text>
</a>
</g>
</g>
<!-- Node1&#45;&gt;Node2 -->
<g id="edge1_Node000001_Node000002" class="edge">
<title>Node1&#45;&gt;Node2</title>
<g id="a_edge1_Node000001_Node000002"><a xlink:title=" ">
<path fill="none" stroke="#63b8ff" d="M67.04,-277.13C83.12,-284.43 106.18,-294.4 127,-301.5 229.23,-336.38 266.33,-313.35 362,-363.5 394.66,-380.62 425.84,-410.55 443.67,-429.4"/>
<polygon fill="#63b8ff" stroke="#63b8ff" points="441.31,-432 450.67,-436.97 446.44,-427.25 441.31,-432"/>
</a>
</g>
</g>
<!-- Node5 -->
<g id="Node000005" class="node">
<title>Node5</title>
<g id="a_Node000005"><a xlink:href="code__80071F00_8c.html#a46d84a80361a6c7174b0398a5ded599b" target="_top" xlink:title=" ">
<polygon fill="white" stroke="#666666" points="354,-391 262,-391 262,-372 354,-372 354,-391"/>
<text text-anchor="middle" x="308" y="-379" font-family="Helvetica,sans-Serif" font-size="10.00">func_8007278C</text>
</a>
</g>
</g>
<!-- Node1&#45;&gt;Node5 -->
<g id="edge4_Node000001_Node000005" class="edge">
<title>Node1&#45;&gt;Node5</title>
<g id="a_edge4_Node000001_Node000005"><a xlink:title=" ">
<path fill="none" stroke="#63b8ff" d="M51.88,-277.14C63.07,-296.17 90.87,-338.38 127,-357.5 165.33,-377.79 214.44,-383.2 251.68,-383.87"/>
<polygon fill="#63b8ff" stroke="#63b8ff" points="251.83,-387.37 261.85,-383.94 251.88,-380.37 251.83,-387.37"/>
</a>
</g>
</g>
<!-- Node7 -->
<g id="Node000007" class="node">
<title>Node7</title>
<g id="a_Node000007"><a xlink:href="code__80071F00_8c.html#ab93c45055a8980a04bc16a5255c2bf79" target="_top" xlink:title=" ">
<polygon fill="white" stroke="#666666" points="354,-315 262,-315 262,-296 354,-296 354,-315"/>
<text text-anchor="middle" x="308" y="-303" font-family="Helvetica,sans-Serif" font-size="10.00">func_80072B48</text>
</a>
</g>
</g>
<!-- Node1&#45;&gt;Node7 -->
<g id="edge9_Node000001_Node000007" class="edge">
<title>Node1&#45;&gt;Node7</title>
<g id="a_edge9_Node000001_Node000007"><a xlink:title=" ">
<path fill="none" stroke="#63b8ff" d="M91.16,-275.59C102.81,-277.61 115.36,-279.71 127,-281.5 168.69,-287.9 215.97,-294.17 251.61,-298.69"/>
<polygon fill="#63b8ff" stroke="#63b8ff" points="251.45,-302.2 261.8,-299.98 252.32,-295.25 251.45,-302.2"/>
</a>
</g>
</g>
<!-- Node9 -->
<g id="Node000009" class="node">
<title>Node9</title>
<g id="a_Node000009"><a xlink:href="code__80071F00_8c.html#a3f1280e08506aa4958434f0bd5e1c56a" target="_top" xlink:title=" ">
<polygon fill="white" stroke="#666666" points="354,-201 262,-201 262,-182 354,-182 354,-201"/>
<text text-anchor="middle" x="308" y="-189" font-family="Helvetica,sans-Serif" font-size="10.00">func_80072C00</text>
</a>
</g>
</g>
<!-- Node1&#45;&gt;Node9 -->
<g id="edge14_Node000001_Node000009" class="edge">
<title>Node1&#45;&gt;Node9</title>
<g id="a_edge14_Node000001_Node000009"><a xlink:title=" ">
<path fill="none" stroke="#63b8ff" d="M71.32,-257.9C87.14,-251.95 108.13,-244.35 127,-238.5 170.28,-225.08 220.19,-212.25 256.46,-203.4"/>
<polygon fill="#63b8ff" stroke="#63b8ff" points="257.42,-206.77 266.31,-201.01 255.77,-199.97 257.42,-206.77"/>
</a>
</g>
</g>
<!-- Node11 -->
<g id="Node000011" class="node">
<title>Node11</title>
<g id="a_Node000011"><a xlink:href="code__80071F00_8c.html#a5ac10bdf02fa5f66183ce0da2f55a41d" target="_top" xlink:title=" ">
<polygon fill="white" stroke="#666666" points="353.5,-277 262.5,-277 262.5,-258 353.5,-258 353.5,-277"/>
<text text-anchor="middle" x="308" y="-265" font-family="Helvetica,sans-Serif" font-size="10.00">func_80072E54</text>
</a>
</g>
</g>
<!-- Node1&#45;&gt;Node11 -->
<g id="edge19_Node000001_Node000011" class="edge">
<title>Node1&#45;&gt;Node11</title>
<g id="a_edge19_Node000001_Node000011"><a xlink:title=" ">
<path fill="none" stroke="#63b8ff" d="M91.28,-267.5C135.87,-267.5 204.38,-267.5 252.19,-267.5"/>
<polygon fill="#63b8ff" stroke="#63b8ff" points="252.37,-271 262.37,-267.5 252.37,-264 252.37,-271"/>
</a>
</g>
</g>
<!-- Node12 -->
<g id="Node000012" class="node">
<title>Node12</title>
<g id="a_Node000012"><a xlink:href="code__80071F00_8c.html#acf82f78d6e5721b75562f93ec9b40a57" target="_top" xlink:title=" ">
<polygon fill="white" stroke="#666666" points="353.5,-239 262.5,-239 262.5,-220 353.5,-220 353.5,-239"/>
<text text-anchor="middle" x="308" y="-227" font-family="Helvetica,sans-Serif" font-size="10.00">func_80072F88</text>
</a>
</g>
</g>
<!-- Node1&#45;&gt;Node12 -->
<g id="edge25_Node000001_Node000012" class="edge">
<title>Node1&#45;&gt;Node12</title>
<g id="a_edge25_Node000001_Node000012"><a xlink:title=" ">
<path fill="none" stroke="#63b8ff" d="M91.28,-260.97C135.87,-254.46 204.38,-244.47 252.19,-237.49"/>
<polygon fill="#63b8ff" stroke="#63b8ff" points="252.98,-240.92 262.37,-236.01 251.97,-233.99 252.98,-240.92"/>
</a>
</g>
</g>
<!-- Node13 -->
<g id="Node000013" class="node">
<title>Node13</title>
<g id="a_Node000013"><a xlink:href="code__80071F00_8c.html#abef9e21ca75285520cc71d37b6ef71b5" target="_top" xlink:title=" ">
<polygon fill="white" stroke="#666666" points="218,-145 127,-145 127,-126 218,-126 218,-145"/>
<text text-anchor="middle" x="172.5" y="-133" font-family="Helvetica,sans-Serif" font-size="10.00">func_80085EF8</text>
</a>
</g>
</g>
<!-- Node1&#45;&gt;Node13 -->
<g id="edge31_Node000001_Node000013" class="edge">
<title>Node1&#45;&gt;Node13</title>
<g id="a_edge31_Node000001_Node000013"><a xlink:title=" ">
<path fill="none" stroke="#63b8ff" d="M54.7,-257.8C68.98,-241.04 99.51,-205.74 127,-177.5 135.34,-168.94 144.94,-159.79 153.09,-152.22"/>
<polygon fill="#63b8ff" stroke="#63b8ff" points="155.66,-154.61 160.65,-145.27 150.92,-149.46 155.66,-154.61"/>
</a>
</g>
</g>
<!-- Node3 -->
<g id="Node000003" class="node">
<title>Node3</title>
<g id="a_Node000003"><a xlink:href="code__80071F00_8c.html#a9d0d6fe8e02dc86bf4f9f8c8214ee326" target="_top" xlink:title=" ">
<polygon fill="white" stroke="#666666" points="672,-285.5 559,-285.5 559,-255.5 672,-255.5 672,-285.5"/>
<text text-anchor="start" x="567" y="-273.5" font-family="Helvetica,sans-Serif" font-size="10.00">set_object_flag_unk</text>
<text text-anchor="middle" x="615.5" y="-262.5" font-family="Helvetica,sans-Serif" font-size="10.00">_054_false</text>
</a>
</g>
</g>
<!-- Node2&#45;&gt;Node3 -->
<g id="edge2_Node000002_Node000003" class="edge">
<title>Node2&#45;&gt;Node3</title>
<g id="a_edge2_Node000002_Node000003"><a xlink:title=" ">
<path fill="none" stroke="#63b8ff" d="M471.23,-436.69C483.61,-424.7 504.89,-403.64 522,-384.5 549.23,-354.04 578.63,-317.02 596.8,-293.61"/>
<polygon fill="#63b8ff" stroke="#63b8ff" points="599.62,-295.69 602.97,-285.63 594.08,-291.41 599.62,-295.69"/>
</a>
</g>
</g>
<!-- Node4 -->
<g id="Node000004" class="node">
<title>Node4</title>
<g id="a_Node000004"><a xlink:href="code__80071F00_8c.html#a4b4f00a7df0f9bc44914cd922c3cd51b" target="_top" xlink:title=" ">
<polygon fill="white" stroke="#666666" points="673,-437 558,-437 558,-418 673,-418 673,-437"/>
<text text-anchor="middle" x="615.5" y="-425" font-family="Helvetica,sans-Serif" font-size="10.00">set_object_unk_0CB</text>
</a>
</g>
</g>
<!-- Node2&#45;&gt;Node4 -->
<g id="edge3_Node000002_Node000004" class="edge">
<title>Node2&#45;&gt;Node4</title>
<g id="a_edge3_Node000002_Node000004"><a xlink:title=" ">
<path fill="none" stroke="#63b8ff" d="M506.22,-440.9C519.25,-439.29 533.74,-437.5 547.77,-435.76"/>
<polygon fill="#63b8ff" stroke="#63b8ff" points="548.39,-439.21 557.88,-434.51 547.53,-432.26 548.39,-439.21"/>
</a>
</g>
</g>
<!-- Node5&#45;&gt;Node4 -->
<g id="edge8_Node000005_Node000004" class="edge">
<title>Node5&#45;&gt;Node4</title>
<g id="a_edge8_Node000005_Node000004"><a xlink:title=" ">
<path fill="none" stroke="#63b8ff" d="M312.75,-391.16C322.53,-414.81 351.35,-475.37 398,-498.5 447.38,-522.98 469.81,-516.22 522,-498.5 553.42,-487.83 582.52,-461.72 599.4,-444.31"/>
<polygon fill="#63b8ff" stroke="#63b8ff" points="601.96,-446.7 606.25,-437.02 596.86,-441.91 601.96,-446.7"/>
</a>
</g>
</g>
<!-- Node6 -->
<g id="Node000006" class="node">
<title>Node6</title>
<g id="a_Node000006"><a xlink:href="code__80071F00_8c.html#a91e6ccbfa10d972106998ad26b271c17" target="_top" xlink:title=" ">
<polygon fill="white" stroke="#666666" points="505.5,-218 414.5,-218 414.5,-199 505.5,-199 505.5,-218"/>
<text text-anchor="middle" x="460" y="-206" font-family="Helvetica,sans-Serif" font-size="10.00">func_80072488</text>
</a>
</g>
</g>
<!-- Node5&#45;&gt;Node6 -->
<g id="edge5_Node000005_Node000006" class="edge">
<title>Node5&#45;&gt;Node6</title>
<g id="a_edge5_Node000005_Node000006"><a xlink:title=" ">
<path fill="none" stroke="#63b8ff" d="M319.02,-371.95C330.19,-361.04 348.45,-342.38 362,-324.5 380.55,-300.02 378.6,-289.32 398,-265.5 410.32,-250.38 426.53,-235.41 439.15,-224.61"/>
<polygon fill="#63b8ff" stroke="#63b8ff" points="441.43,-227.26 446.84,-218.15 436.93,-221.9 441.43,-227.26"/>
</a>
</g>
</g>
<!-- Node6&#45;&gt;Node3 -->
<g id="edge6_Node000006_Node000003" class="edge">
<title>Node6&#45;&gt;Node3</title>
<g id="a_edge6_Node000006_Node000003"><a xlink:title=" ">
<path fill="none" stroke="#63b8ff" d="M485.67,-218.11C496.79,-222.46 510.07,-227.7 522,-232.5 537.2,-238.61 553.75,-245.38 568.6,-251.49"/>
<polygon fill="#63b8ff" stroke="#63b8ff" points="567.51,-254.82 578.09,-255.39 570.17,-248.35 567.51,-254.82"/>
</a>
</g>
</g>
<!-- Node6&#45;&gt;Node4 -->
<g id="edge7_Node000006_Node000004" class="edge">
<title>Node6&#45;&gt;Node4</title>
<g id="a_edge7_Node000006_Node000004"><a xlink:title=" ">
<path fill="none" stroke="#63b8ff" d="M498.42,-218.12C506.89,-221.61 515.35,-226.29 522,-232.5 536,-245.58 586.67,-362.23 606.48,-408.61"/>
<polygon fill="#63b8ff" stroke="#63b8ff" points="603.28,-410.02 610.42,-417.85 609.72,-407.28 603.28,-410.02"/>
</a>
</g>
</g>
<!-- Node7&#45;&gt;Node3 -->
<g id="edge11_Node000007_Node000003" class="edge">
<title>Node7&#45;&gt;Node3</title>
<g id="a_edge11_Node000007_Node000003"><a xlink:title=" ">
<path fill="none" stroke="#63b8ff" d="M333.51,-315.09C373.73,-329.4 455.85,-352.62 522,-332.5 547.75,-324.67 572.85,-307.02 590.39,-292.55"/>
<polygon fill="#63b8ff" stroke="#63b8ff" points="593.02,-294.9 598.36,-285.75 588.48,-289.57 593.02,-294.9"/>
</a>
</g>
</g>
<!-- Node7&#45;&gt;Node4 -->
<g id="edge13_Node000007_Node000004" class="edge">
<title>Node7&#45;&gt;Node4</title>
<g id="a_edge13_Node000007_Node000004"><a xlink:title=" ">
<path fill="none" stroke="#63b8ff" d="M320.16,-315.15C331.98,-325.9 350.5,-344.31 362,-363.5 386.71,-404.74 358.76,-437.73 398,-465.5 457.08,-507.3 547.45,-466.31 590.32,-442.26"/>
<polygon fill="#63b8ff" stroke="#63b8ff" points="592.29,-445.16 599.2,-437.13 588.79,-439.1 592.29,-445.16"/>
</a>
</g>
</g>
<!-- Node7&#45;&gt;Node6 -->
<g id="edge10_Node000007_Node000006" class="edge">
<title>Node7&#45;&gt;Node6</title>
<g id="a_edge10_Node000007_Node000006"><a xlink:title=" ">
<path fill="none" stroke="#63b8ff" d="M341.15,-295.92C348.22,-293.28 355.52,-290.13 362,-286.5 392.71,-269.29 423.61,-242.4 442.03,-225.12"/>
<polygon fill="#63b8ff" stroke="#63b8ff" points="444.52,-227.58 449.34,-218.14 439.69,-222.51 444.52,-227.58"/>
</a>
</g>
</g>
<!-- Node8 -->
<g id="Node000008" class="node">
<title>Node8</title>
<g id="a_Node000008"><a xlink:href="code__80071F00_8c.html#a946b33c1ed166b19b04e4528c3641b9a" target="_top" xlink:title=" ">
<polygon fill="white" stroke="#666666" points="516.5,-304.5 403.5,-304.5 403.5,-274.5 516.5,-274.5 516.5,-304.5"/>
<text text-anchor="start" x="411.5" y="-292.5" font-family="Helvetica,sans-Serif" font-size="10.00">set_object_flag_unk</text>
<text text-anchor="middle" x="460" y="-281.5" font-family="Helvetica,sans-Serif" font-size="10.00">_054_true</text>
</a>
</g>
</g>
<!-- Node7&#45;&gt;Node8 -->
<g id="edge12_Node000007_Node000008" class="edge">
<title>Node7&#45;&gt;Node8</title>
<g id="a_edge12_Node000007_Node000008"><a xlink:title=" ">
<path fill="none" stroke="#63b8ff" d="M354,-300.7C366.38,-299.38 380.07,-297.92 393.35,-296.5"/>
<polygon fill="#63b8ff" stroke="#63b8ff" points="393.83,-299.97 403.41,-295.43 393.09,-293.01 393.83,-299.97"/>
</a>
</g>
</g>
<!-- Node9&#45;&gt;Node3 -->
<g id="edge17_Node000009_Node000003" class="edge">
<title>Node9&#45;&gt;Node3</title>
<g id="a_edge17_Node000009_Node000003"><a xlink:title=" ">
<path fill="none" stroke="#63b8ff" d="M334.86,-181.9C344.16,-177.58 354.25,-171.78 362,-164.5 384.94,-142.94 370.66,-119.11 398,-103.5 445.86,-76.17 474.52,-75.52 522,-103.5 574.46,-134.41 599.27,-206.97 609.09,-245.48"/>
<polygon fill="#63b8ff" stroke="#63b8ff" points="605.73,-246.47 611.47,-255.37 612.53,-244.83 605.73,-246.47"/>
</a>
</g>
</g>
<!-- Node9&#45;&gt;Node6 -->
<g id="edge15_Node000009_Node000006" class="edge">
<title>Node9&#45;&gt;Node6</title>
<g id="a_edge15_Node000009_Node000006"><a xlink:title=" ">
<path fill="none" stroke="#63b8ff" d="M354,-196.6C369.8,-198.39 387.72,-200.42 404.22,-202.29"/>
<polygon fill="#63b8ff" stroke="#63b8ff" points="403.95,-205.78 414.29,-203.43 404.74,-198.83 403.95,-205.78"/>
</a>
</g>
</g>
<!-- Node9&#45;&gt;Node8 -->
<g id="edge18_Node000009_Node000008" class="edge">
<title>Node9&#45;&gt;Node8</title>
<g id="a_edge18_Node000009_Node000008"><a xlink:title=" ">
<path fill="none" stroke="#63b8ff" d="M339.19,-201.01C346.85,-203.92 354.91,-207.45 362,-211.5 389.42,-227.16 417.14,-250.36 435.88,-267.38"/>
<polygon fill="#63b8ff" stroke="#63b8ff" points="433.62,-270.06 443.34,-274.26 438.36,-264.91 433.62,-270.06"/>
</a>
</g>
</g>
<!-- Node10 -->
<g id="Node000010" class="node">
<title>Node10</title>
<g id="a_Node000010"><a xlink:href="code__80071F00_8c.html#ae2e10a969a280fa69bd2db004aa5ae3b" target="_top" xlink:title=" ">
<polygon fill="white" stroke="#666666" points="522,-142.5 398,-142.5 398,-112.5 522,-112.5 522,-142.5"/>
<text text-anchor="start" x="406" y="-130.5" font-family="Helvetica,sans-Serif" font-size="10.00">is_obj_index_flag_unk</text>
<text text-anchor="middle" x="460" y="-119.5" font-family="Helvetica,sans-Serif" font-size="10.00">_054_inactive</text>
</a>
</g>
</g>
<!-- Node9&#45;&gt;Node10 -->
<g id="edge16_Node000009_Node000010" class="edge">
<title>Node9&#45;&gt;Node10</title>
<g id="a_edge16_Node000009_Node000010"><a xlink:title=" ">
<path fill="none" stroke="#63b8ff" d="M331.46,-181.92C353.32,-172.59 387.14,-158.16 414.47,-146.5"/>
<polygon fill="#63b8ff" stroke="#63b8ff" points="416.01,-149.65 423.83,-142.5 413.26,-143.21 416.01,-149.65"/>
</a>
</g>
</g>
<!-- Node11&#45;&gt;Node3 -->
<g id="edge22_Node000011_Node000003" class="edge">
<title>Node11&#45;&gt;Node3</title>
<g id="a_edge22_Node000011_Node000003"><a xlink:title=" ">
<path fill="none" stroke="#63b8ff" d="M338.49,-277.05C346.32,-280.01 354.64,-283.54 362,-287.5 379.38,-296.84 379.22,-307.43 398,-313.5 450.44,-330.46 468.19,-325.4 522,-313.5 542.43,-308.98 563.7,-299.48 580.68,-290.55"/>
<polygon fill="#63b8ff" stroke="#63b8ff" points="582.53,-293.54 589.65,-285.69 579.19,-287.38 582.53,-293.54"/>
</a>
</g>
</g>
<!-- Node11&#45;&gt;Node4 -->
<g id="edge24_Node000011_Node000004" class="edge">
<title>Node11&#45;&gt;Node4</title>
<g id="a_edge24_Node000011_Node000004"><a xlink:title=" ">
<path fill="none" stroke="#63b8ff" d="M342.63,-277.08C349.39,-279.84 356.19,-283.28 362,-287.5 382.72,-302.56 377.68,-316.9 398,-332.5 450.78,-373.02 523.53,-400.32 569.79,-414.89"/>
<polygon fill="#63b8ff" stroke="#63b8ff" points="568.94,-418.29 579.53,-417.89 571,-411.6 568.94,-418.29"/>
</a>
</g>
</g>
<!-- Node11&#45;&gt;Node6 -->
<g id="edge20_Node000011_Node000006" class="edge">
<title>Node11&#45;&gt;Node6</title>
<g id="a_edge20_Node000011_Node000006"><a xlink:title=" ">
<path fill="none" stroke="#63b8ff" d="M336.33,-257.98C344.6,-255.02 353.7,-251.7 362,-248.5 384,-240.02 408.55,-229.89 427.45,-221.95"/>
<polygon fill="#63b8ff" stroke="#63b8ff" points="428.92,-225.13 436.77,-218.01 426.2,-218.68 428.92,-225.13"/>
</a>
</g>
</g>
<!-- Node11&#45;&gt;Node8 -->
<g id="edge23_Node000011_Node000008" class="edge">
<title>Node11&#45;&gt;Node8</title>
<g id="a_edge23_Node000011_Node000008"><a xlink:title=" ">
<path fill="none" stroke="#63b8ff" d="M353.6,-274.04C366.05,-275.87 379.86,-277.89 393.26,-279.86"/>
<polygon fill="#63b8ff" stroke="#63b8ff" points="393,-283.36 403.4,-281.35 394.01,-276.43 393,-283.36"/>
</a>
</g>
</g>
<!-- Node11&#45;&gt;Node10 -->
<g id="edge21_Node000011_Node000010" class="edge">
<title>Node11&#45;&gt;Node10</title>
<g id="a_edge21_Node000011_Node000010"><a xlink:title=" ">
<path fill="none" stroke="#63b8ff" d="M345.78,-257.99C351.57,-255.49 357.21,-252.37 362,-248.5 385.6,-229.43 379.34,-214.42 398,-190.5 409.21,-176.12 423.29,-161.41 435.09,-149.82"/>
<polygon fill="#63b8ff" stroke="#63b8ff" points="437.71,-152.16 442.46,-142.69 432.84,-147.12 437.71,-152.16"/>
</a>
</g>
</g>
<!-- Node12&#45;&gt;Node3 -->
<g id="edge28_Node000012_Node000003" class="edge">
<title>Node12&#45;&gt;Node3</title>
<g id="a_edge28_Node000012_Node000003"><a xlink:title=" ">
<path fill="none" stroke="#63b8ff" d="M338.22,-219.99C346.05,-217.18 354.43,-213.93 362,-210.5 378.67,-202.94 380.28,-195.09 398,-190.5 451.35,-176.68 470.35,-171.26 522,-190.5 552.47,-201.85 579.58,-228.24 596.45,-247.62"/>
<polygon fill="#63b8ff" stroke="#63b8ff" points="593.92,-250.04 603.04,-255.44 599.27,-245.53 593.92,-250.04"/>
</a>
</g>
</g>
<!-- Node12&#45;&gt;Node4 -->
<g id="edge30_Node000012_Node000004" class="edge">
<title>Node12&#45;&gt;Node4</title>
<g id="a_edge30_Node000012_Node000004"><a xlink:title=" ">
<path fill="none" stroke="#63b8ff" d="M353.92,-226.42C400.13,-225.53 472.19,-230.71 522,-265.5 572.55,-300.81 599.07,-373.21 609.35,-407.99"/>
<polygon fill="#63b8ff" stroke="#63b8ff" points="606.05,-409.19 612.12,-417.87 612.79,-407.3 606.05,-409.19"/>
</a>
</g>
</g>
<!-- Node12&#45;&gt;Node6 -->
<g id="edge26_Node000012_Node000006" class="edge">
<title>Node12&#45;&gt;Node6</title>
<g id="a_edge26_Node000012_Node000006"><a xlink:title=" ">
<path fill="none" stroke="#63b8ff" d="M353.6,-223.26C369.48,-221.03 387.54,-218.5 404.17,-216.18"/>
<polygon fill="#63b8ff" stroke="#63b8ff" points="404.9,-219.61 414.31,-214.76 403.93,-212.68 404.9,-219.61"/>
</a>
</g>
</g>
<!-- Node12&#45;&gt;Node8 -->
<g id="edge29_Node000012_Node000008" class="edge">
<title>Node12&#45;&gt;Node8</title>
<g id="a_edge29_Node000012_Node000008"><a xlink:title=" ">
<path fill="none" stroke="#63b8ff" d="M334.67,-239.01C343.37,-242.28 353.13,-246 362,-249.5 379,-256.21 397.57,-263.8 413.87,-270.56"/>
<polygon fill="#63b8ff" stroke="#63b8ff" points="412.6,-273.82 423.17,-274.42 415.28,-267.35 412.6,-273.82"/>
</a>
</g>
</g>
<!-- Node12&#45;&gt;Node10 -->
<g id="edge27_Node000012_Node000010" class="edge">
<title>Node12&#45;&gt;Node10</title>
<g id="a_edge27_Node000012_Node000010"><a xlink:title=" ">
<path fill="none" stroke="#63b8ff" d="M345.4,-219.97C351.29,-217.47 357.07,-214.35 362,-210.5 384.72,-192.74 376.19,-175.37 398,-156.5 401.84,-153.18 406.12,-150.15 410.59,-147.42"/>
<polygon fill="#63b8ff" stroke="#63b8ff" points="412.33,-150.45 419.34,-142.51 408.9,-144.35 412.33,-150.45"/>
</a>
</g>
</g>
<!-- Node14 -->
<g id="Node000014" class="node">
<title>Node14</title>
<g id="a_Node000014"><a xlink:href="code__80071F00_8c.html#ac47489d8761fe55d49915f2af1155799" target="_top" xlink:title=" ">
<polygon fill="white" stroke="#666666" points="354,-155 262,-155 262,-136 354,-136 354,-155"/>
<text text-anchor="middle" x="308" y="-143" font-family="Helvetica,sans-Serif" font-size="10.00">func_80085BB4</text>
</a>
</g>
</g>
<!-- Node13&#45;&gt;Node14 -->
<g id="edge32_Node000013_Node000014" class="edge">
<title>Node13&#45;&gt;Node14</title>
<g id="a_edge32_Node000013_Node000014"><a xlink:title=" ">
<path fill="none" stroke="#63b8ff" d="M218.32,-138.86C229,-139.66 240.51,-140.52 251.59,-141.35"/>
<polygon fill="#63b8ff" stroke="#63b8ff" points="251.38,-144.84 261.61,-142.1 251.9,-137.86 251.38,-144.84"/>
</a>
</g>
</g>
<!-- Node17 -->
<g id="Node000017" class="node">
<title>Node17</title>
<g id="a_Node000017"><a xlink:href="code__80071F00_8c.html#aaac380231c672b17a8fda8b451572c4c" target="_top" xlink:title=" ">
<polygon fill="white" stroke="#666666" points="362,-118 254,-118 254,-99 362,-99 362,-118"/>
<text text-anchor="middle" x="308" y="-106" font-family="Helvetica,sans-Serif" font-size="10.00">init_texture_object</text>
</a>
</g>
</g>
<!-- Node13&#45;&gt;Node17 -->
<g id="edge36_Node000013_Node000017" class="edge">
<title>Node13&#45;&gt;Node17</title>
<g id="a_edge36_Node000013_Node000017"><a xlink:title=" ">
<path fill="none" stroke="#63b8ff" d="M218.32,-126.43C228.43,-124.39 239.28,-122.2 249.82,-120.07"/>
<polygon fill="#63b8ff" stroke="#63b8ff" points="250.67,-123.46 259.78,-118.05 249.28,-116.6 250.67,-123.46"/>
</a>
</g>
</g>
<!-- Node18 -->
<g id="Node000018" class="node">
<title>Node18</title>
<g id="a_Node000018"><a xlink:href="code__80086E70_8c.html#a670bd4aa157a5ec3dd6a4f4335a13ea4" target="_top" xlink:title=" ">
<polygon fill="white" stroke="#666666" points="361.5,-81 254.5,-81 254.5,-62 361.5,-62 361.5,-81"/>
<text text-anchor="middle" x="308" y="-69" font-family="Helvetica,sans-Serif" font-size="10.00">set_obj_origin_pos</text>
</a>
</g>
</g>
<!-- Node13&#45;&gt;Node18 -->
<g id="edge37_Node000013_Node000018" class="edge">
<title>Node13&#45;&gt;Node18</title>
<g id="a_edge37_Node000013_Node000018"><a xlink:title=" ">
<path fill="none" stroke="#63b8ff" d="M188.84,-125.92C204.75,-116.22 230.54,-101.18 254,-90.5 258.49,-88.46 263.27,-86.48 268.05,-84.63"/>
<polygon fill="#63b8ff" stroke="#63b8ff" points="269.62,-87.77 277.77,-81 267.18,-81.21 269.62,-87.77"/>
</a>
</g>
</g>
<!-- Node14&#45;&gt;Node6 -->
<g id="edge33_Node000014_Node000006" class="edge">
<title>Node14&#45;&gt;Node6</title>
<g id="a_edge33_Node000014_Node000006"><a xlink:title=" ">
<path fill="none" stroke="#63b8ff" d="M331.78,-155.07C357,-165.66 397.86,-182.82 426.45,-194.83"/>
<polygon fill="#63b8ff" stroke="#63b8ff" points="425.43,-198.2 436,-198.84 428.14,-191.74 425.43,-198.2"/>
</a>
</g>
</g>
<!-- Node15 -->
<g id="Node000015" class="node">
<title>Node15</title>
<g id="a_Node000015"><a xlink:href="code__80086E70_8c.html#aaec540b89607cbfe79478fa9a3be642e" target="_top" xlink:title=" ">
<polygon fill="white" stroke="#666666" points="506,-56 414,-56 414,-37 506,-37 506,-56"/>
<text text-anchor="middle" x="460" y="-44" font-family="Helvetica,sans-Serif" font-size="10.00">func_8008B80C</text>
</a>
</g>
</g>
<!-- Node14&#45;&gt;Node15 -->
<g id="edge34_Node000014_Node000015" class="edge">
<title>Node14&#45;&gt;Node15</title>
<g id="a_edge34_Node000014_Node000015"><a xlink:title=" ">
<path fill="none" stroke="#63b8ff" d="M347.4,-135.99C352.61,-133.72 357.65,-130.93 362,-127.5 385.53,-108.95 374.91,-89.6 398,-70.5 402.89,-66.45 408.55,-63.03 414.4,-60.15"/>
<polygon fill="#63b8ff" stroke="#63b8ff" points="415.94,-63.3 423.69,-56.07 413.12,-56.89 415.94,-63.3"/>
</a>
</g>
</g>
<!-- Node16 -->
<g id="Node000016" class="node">
<title>Node16</title>
<g id="a_Node000016"><a xlink:href="code__80086E70_8c.html#ad745ffd7b6ecd50c57336a484979b258" target="_top" xlink:title=" ">
<polygon fill="white" stroke="#666666" points="515,-19 405,-19 405,0 515,0 515,-19"/>
<text text-anchor="middle" x="460" y="-7" font-family="Helvetica,sans-Serif" font-size="10.00">set_obj_orientation</text>
</a>
</g>
</g>
<!-- Node14&#45;&gt;Node16 -->
<g id="edge35_Node000014_Node000016" class="edge">
<title>Node14&#45;&gt;Node16</title>
<g id="a_edge35_Node000014_Node000016"><a xlink:title=" ">
<path fill="none" stroke="#63b8ff" d="M349.99,-135.9C354.4,-133.67 358.53,-130.9 362,-127.5 395.7,-94.4 363.63,-59.91 398,-27.5 399.13,-26.43 400.32,-25.43 401.56,-24.49"/>
<polygon fill="#63b8ff" stroke="#63b8ff" points="403.67,-27.3 410.36,-19.08 400.01,-21.33 403.67,-27.3"/>
</a>
</g>
</g>
</g>
</svg>

<g id="navigator" transform="translate(0 0)" fill="#404254">
  <rect fill="#f2f5e9" fill-opacity="0.5" stroke="#606060" stroke-width=".5" x="0" y="0" width="60" height="60"/>
  <use id="zoomplus" xlink:href="#zoomPlus" x="17" y="9" onmousedown="handleZoom(evt,'in')"/>
  <use id="zoomminus" xlink:href="#zoomMin" x="42" y="9" onmousedown="handleZoom(evt,'out')"/>
  <use id="reset" xlink:href="#resetDef" x="30" y="36" onmousedown="handleReset()"/>
   <use id="arrowup" xlink:href="#arrowUp" x="0" y="0" onmousedown="handlePan(0,-1)"/>
  <use id="arrowright" xlink:href="#arrowRight" x="0" y="0" onmousedown="handlePan(1,0)"/>
  <use id="arrowdown" xlink:href="#arrowDown" x="0" y="0" onmousedown="handlePan(0,1)"/>
  <use id="arrowleft" xlink:href="#arrowLeft" x="0" y="0" onmousedown="handlePan(-1,0)"/>
</g>
<svg viewBox="0 0 15 15" width="100%" height="30px" preserveAspectRatio="xMaxYMin meet">
 <g id="arrow_out" transform="scale(0.3 0.3)">
  <a xlink:href="code__80071F00_8c_a611ea98550b46aa887eb34b7472ef871_cgraph_org.svg" target="_base">
   <rect id="button" ry="5" rx="5" y="6" x="6" height="38" width="38"
        fill="#f2f5e9" fill-opacity="0.5" stroke="#606060" stroke-width="1.0"/>
   <path id="arrow"
     d="M 11.500037,31.436501 C 11.940474,20.09759 22.043105,11.32322 32.158766,21.979434 L 37.068811,17.246167 C 37.068811,17.246167 37.088388,32 37.088388,32 L 22.160133,31.978069 C 22.160133,31.978069 26.997745,27.140456 26.997745,27.140456 C 18.528582,18.264221 13.291696,25.230495 11.500037,31.436501 z"
     style="fill:#404040;"/>
  </a>
 </g>
</svg>

<style type='text/css'>
<![CDATA[
[data-mouse-over-selected='false'] { opacity: 0.7; }
[data-mouse-over-selected='true']  { opacity: 1.0; }
]]>
</style>
<script type="application/ecmascript"><![CDATA[
document.addEventListener('DOMContentLoaded', (event) => {
  highlightEdges();
  highlightAdjacentNodes();
});
]]></script>
</svg>
