<?xml version="1.0" encoding="UTF-8" standalone="no"?>
<!DOCTYPE svg PUBLIC "-//W3C//DTD SVG 1.1//EN"
 "http://www.w3.org/Graphics/SVG/1.1/DTD/svg11.dtd">
<!-- Generated by graphviz version 2.43.0 (0)
 -->
<!-- Title: func_80061A34 Pages: 1 -->
<svg width="385pt" height="224pt"
 viewBox="0.00 0.00 385.00 224.00" xmlns="http://www.w3.org/2000/svg" xmlns:xlink="http://www.w3.org/1999/xlink">

<svg id="main" version="1.1" xmlns="http://www.w3.org/2000/svg" xmlns:xlink="http://www.w3.org/1999/xlink" xml:space="preserve" onload="init(evt)">
<style type="text/css"><![CDATA[
.node, .edge {opacity: 0.7;}
.node.selected, .edge.selected {opacity: 1;}
.edge:hover path { stroke: red; }
.edge:hover polygon { stroke: red; fill: red; }
]]></style>
<script type="application/ecmascript" xlink:href="svg.min.js"/>
<svg id="graph" class="graph">
<g id="graph0" class="graph" transform="scale(1 1) rotate(0) translate(4 220)">
<title>func_80061A34</title>
<!-- Node1 -->
<g id="Node000001" class="node">
<title>Node1</title>
<g id="a_Node000001"><a xlink:title=" ">
<polygon fill="#999999" stroke="#666666" points="92,-123 0,-123 0,-104 92,-104 92,-123"/>
<text text-anchor="middle" x="46" y="-111" font-family="Helvetica,sans-Serif" font-size="10.00">func_80061A34</text>
</a>
</g>
</g>
<!-- Node2 -->
<g id="Node000002" class="node">
<title>Node2</title>
<g id="a_Node000002"><a xlink:href="math__util_8c.html#ae69cbf5c8d4b3b0dba2d7b4d4673689f" target="_top" xlink:title=" ">
<polygon fill="white" stroke="#666666" points="215,-216 177,-216 177,-197 215,-197 215,-216"/>
<text text-anchor="middle" x="196" y="-204" font-family="Helvetica,sans-Serif" font-size="10.00">coss</text>
</a>
</g>
</g>
<!-- Node1&#45;&gt;Node2 -->
<g id="edge1_Node000001_Node000002" class="edge">
<title>Node1&#45;&gt;Node2</title>
<g id="a_edge1_Node000001_Node000002"><a xlink:title=" ">
<path fill="none" stroke="#63b8ff" d="M54.64,-123.13C67.87,-139.14 96.63,-171.17 128,-188.5 139.94,-195.1 154.44,-199.38 166.88,-202.11"/>
<polygon fill="#63b8ff" stroke="#63b8ff" points="166.27,-205.55 176.76,-204.05 167.62,-198.68 166.27,-205.55"/>
</a>
</g>
</g>
<!-- Node3 -->
<g id="Node000003" class="node">
<title>Node3</title>
<g id="a_Node000003"><a xlink:href="code__80057C60_8c.html#ae0b1805b3d9ad1b1f504085a921c1d1a" target="_top" xlink:title=" ">
<polygon fill="white" stroke="#666666" points="264,-179 128,-179 128,-160 264,-160 264,-179"/>
<text text-anchor="middle" x="196" y="-167" font-family="Helvetica,sans-Serif" font-size="10.00">init_new_particle_player</text>
</a>
</g>
</g>
<!-- Node1&#45;&gt;Node3 -->
<g id="edge2_Node000001_Node000003" class="edge">
<title>Node1&#45;&gt;Node3</title>
<g id="a_edge2_Node000001_Node000003"><a xlink:title=" ">
<path fill="none" stroke="#63b8ff" d="M64.95,-123.04C81.11,-131.36 105.68,-143.34 128,-151.5 133.51,-153.51 139.34,-155.41 145.18,-157.17"/>
<polygon fill="#63b8ff" stroke="#63b8ff" points="144.38,-160.58 154.96,-159.98 146.32,-153.85 144.38,-160.58"/>
</a>
</g>
</g>
<!-- Node4 -->
<g id="Node000004" class="node">
<title>Node4</title>
<g id="a_Node000004"><a xlink:href="math__util_8c.html#a151b63b8adf9af7e4054b3b84bd226dc" target="_top" xlink:title=" ">
<polygon fill="white" stroke="#666666" points="232,-142 160,-142 160,-123 232,-123 232,-142"/>
<text text-anchor="middle" x="196" y="-130" font-family="Helvetica,sans-Serif" font-size="10.00">random_int</text>
</a>
</g>
</g>
<!-- Node1&#45;&gt;Node4 -->
<g id="edge3_Node000001_Node000004" class="edge">
<title>Node1&#45;&gt;Node4</title>
<g id="a_edge3_Node000001_Node000004"><a xlink:title=" ">
<path fill="none" stroke="#63b8ff" d="M92.21,-119.3C110.49,-121.65 131.54,-124.35 149.81,-126.7"/>
<polygon fill="#63b8ff" stroke="#63b8ff" points="149.56,-130.2 159.93,-128 150.45,-123.25 149.56,-130.2"/>
</a>
</g>
</g>
<!-- Node6 -->
<g id="Node000006" class="node">
<title>Node6</title>
<g id="a_Node000006"><a xlink:href="code__80057C60_8c.html#a2c0631778c7542aa73e1758e4562e364" target="_top" xlink:title=" ">
<polygon fill="white" stroke="#666666" points="250.5,-105 141.5,-105 141.5,-86 250.5,-86 250.5,-105"/>
<text text-anchor="middle" x="196" y="-93" font-family="Helvetica,sans-Serif" font-size="10.00">set_particle_colour</text>
</a>
</g>
</g>
<!-- Node1&#45;&gt;Node6 -->
<g id="edge5_Node000001_Node000006" class="edge">
<title>Node1&#45;&gt;Node6</title>
<g id="a_edge5_Node000001_Node000006"><a xlink:title=" ">
<path fill="none" stroke="#63b8ff" d="M92.21,-108C104.61,-106.49 118.28,-104.83 131.5,-103.22"/>
<polygon fill="#63b8ff" stroke="#63b8ff" points="131.98,-106.69 141.49,-102.01 131.14,-99.74 131.98,-106.69"/>
</a>
</g>
</g>
<!-- Node7 -->
<g id="Node000007" class="node">
<title>Node7</title>
<g id="a_Node000007"><a xlink:href="code__80057C60_8c.html#ae015ba1d74040fa6420645fc99e010a4" target="_top" xlink:title=" ">
<polygon fill="white" stroke="#666666" points="255,-67.5 137,-67.5 137,-37.5 255,-37.5 255,-67.5"/>
<text text-anchor="start" x="145" y="-55.5" font-family="Helvetica,sans-Serif" font-size="10.00">set_particle_position</text>
<text text-anchor="middle" x="196" y="-44.5" font-family="Helvetica,sans-Serif" font-size="10.00">_and_rotation</text>
</a>
</g>
</g>
<!-- Node1&#45;&gt;Node7 -->
<g id="edge6_Node000001_Node000007" class="edge">
<title>Node1&#45;&gt;Node7</title>
<g id="a_edge6_Node000001_Node000007"><a xlink:title=" ">
<path fill="none" stroke="#63b8ff" d="M67.49,-103.98C83.78,-96.51 107.2,-85.99 128,-77.5 133.1,-75.42 138.45,-73.31 143.8,-71.24"/>
<polygon fill="#63b8ff" stroke="#63b8ff" points="145.29,-74.41 153.39,-67.58 142.8,-67.87 145.29,-74.41"/>
</a>
</g>
</g>
<!-- Node8 -->
<g id="Node000008" class="node">
<title>Node8</title>
<g id="a_Node000008"><a xlink:href="math__util_8c.html#a19ed3bd78fd2d3e2bd0a29f6caf48545" target="_top" xlink:title=" ">
<polygon fill="white" stroke="#666666" points="214,-19 178,-19 178,0 214,0 214,-19"/>
<text text-anchor="middle" x="196" y="-7" font-family="Helvetica,sans-Serif" font-size="10.00">sins</text>
</a>
</g>
</g>
<!-- Node1&#45;&gt;Node8 -->
<g id="edge7_Node000001_Node000008" class="edge">
<title>Node1&#45;&gt;Node8</title>
<g id="a_edge7_Node000001_Node000008"><a xlink:title=" ">
<path fill="none" stroke="#63b8ff" d="M53.57,-103.73C65.98,-86.03 94.66,-48.61 128,-28.5 140.05,-21.23 155,-16.64 167.71,-13.8"/>
<polygon fill="#63b8ff" stroke="#63b8ff" points="168.63,-17.19 177.75,-11.81 167.26,-10.32 168.63,-17.19"/>
</a>
</g>
</g>
<!-- Node5 -->
<g id="Node000005" class="node">
<title>Node5</title>
<g id="a_Node000005"><a xlink:href="math__util_8c.html#a062850863585005ad1d0a75d9ff70693" target="_top" xlink:title=" ">
<polygon fill="white" stroke="#666666" points="377,-142 300,-142 300,-123 377,-123 377,-142"/>
<text text-anchor="middle" x="338.5" y="-130" font-family="Helvetica,sans-Serif" font-size="10.00">random_u16</text>
</a>
</g>
</g>
<!-- Node4&#45;&gt;Node5 -->
<g id="edge4_Node000004_Node000005" class="edge">
<title>Node4&#45;&gt;Node5</title>
<g id="a_edge4_Node000004_Node000005"><a xlink:title=" ">
<path fill="none" stroke="#63b8ff" d="M232.09,-132.5C249.51,-132.5 270.82,-132.5 289.7,-132.5"/>
<polygon fill="#63b8ff" stroke="#63b8ff" points="289.9,-136 299.9,-132.5 289.9,-129 289.9,-136"/>
</a>
</g>
</g>
</g>
</svg>
</svg>

<style type='text/css'>
<![CDATA[
[data-mouse-over-selected='false'] { opacity: 0.7; }
[data-mouse-over-selected='true']  { opacity: 1.0; }
]]>
</style>
<script type="application/ecmascript"><![CDATA[
document.addEventListener('DOMContentLoaded', (event) => {
  highlightEdges();
  highlightAdjacentNodes();
});
]]></script>
</svg>
