<?xml version="1.0" encoding="UTF-8" standalone="no"?>
<!DOCTYPE svg PUBLIC "-//W3C//DTD SVG 1.1//EN"
 "http://www.w3.org/Graphics/SVG/1.1/DTD/svg11.dtd">
<!-- Generated by graphviz version 2.43.0 (0)
 -->
<!-- Title: func_8008C73C Pages: 1 -->
<!--zoomable 584 -->
<svg id="main" version="1.1" xmlns="http://www.w3.org/2000/svg" xmlns:xlink="http://www.w3.org/1999/xlink" xml:space="preserve" onload="init(evt)">
<style type="text/css"><![CDATA[
.edge:hover path { stroke: red; }
.edge:hover polygon { stroke: red; fill: red; }
]]></style>
<script type="text/javascript"><![CDATA[
var edges = document.getElementsByTagName('g');
if (edges && edges.length) {
  for (var i=0;i<edges.length;i++) {
    if (edges[i].id.substr(0,4)=='edge') {
      edges[i].setAttribute('class','edge');
    }
  }
}
]]></script>
        <defs>
                <circle id="rim" cx="0" cy="0" r="7"/>
                <circle id="rim2" cx="0" cy="0" r="3.5"/>
                <g id="zoomPlus">
                        <use xlink:href="#rim" fill="#404040">
                                <set attributeName="fill" to="#808080" begin="zoomplus.mouseover" end="zoomplus.mouseout"/>
                        </use>
                        <path d="M-4,0h8M0,-4v8" fill="none" stroke="white" stroke-width="1.5" pointer-events="none"/>
                </g>
                <g id="zoomMin">
                        <use xlink:href="#rim" fill="#404040">
                                <set attributeName="fill" to="#808080" begin="zoomminus.mouseover" end="zoomminus.mouseout"/>
                        </use>
                        <path d="M-4,0h8" fill="none" stroke="white" stroke-width="1.5" pointer-events="none"/>
                </g>
                <g id="dirArrow">
                        <path fill="none" stroke="white" stroke-width="1.5" d="M0,-3.0v7 M-2.5,-0.5L0,-3.0L2.5,-0.5"/>
                </g>
               <g id="resetDef">
                       <use xlink:href="#rim2" fill="#404040">
                               <set attributeName="fill" to="#808080" begin="reset.mouseover" end="reset.mouseout"/>
                       </use>
               </g>
        </defs>

<script type="text/javascript">
var viewWidth = 722;
var viewHeight = 584;
var sectionId = 'dynsection-13';
</script>
<script xlink:href="svgpan.js"/>
<svg id="graph" class="graph">
<g id="viewport">
<title>func_8008C73C</title>
<polygon fill="white" stroke="transparent" points="-4,4 -4,-580.25 718,-580.25 718,4 -4,4"/>
<!-- Node1 -->
<g id="node1" class="node">
<title>Node1</title>
<g id="a_node1"><a xlink:title=" ">
<polygon fill="#bfbfbf" stroke="black" points="0,-271.75 0,-290.75 92,-290.75 92,-271.75 0,-271.75"/>
<text text-anchor="middle" x="46" y="-278.75" font-family="Helvetica,sans-Serif" font-size="10.00">func_8008C73C</text>
</a>
</g>
</g>
<!-- Node2 -->
<g id="node2" class="node">
<title>Node2</title>
<g id="a_node2"><a xlink:href="code__80005FD0_8c.html#a06783cccfdd317d1f883612230c6cf5c" target="_top" xlink:title=" ">
<polygon fill="white" stroke="black" points="128,-432.75 128,-451.75 220,-451.75 220,-432.75 128,-432.75"/>
<text text-anchor="middle" x="174" y="-439.75" font-family="Helvetica,sans-Serif" font-size="10.00">func_800098FC</text>
</a>
</g>
</g>
<!-- Node1&#45;&gt;Node2 -->
<g id="edge1" class="edge">
<title>Node1&#45;&gt;Node2</title>
<path fill="none" stroke="midnightblue" d="M54.5,-290.84C75.03,-317.06 132.33,-390.28 159.01,-424.37"/>
<polygon fill="midnightblue" stroke="midnightblue" points="156.46,-426.79 165.38,-432.51 161.97,-422.48 156.46,-426.79"/>
</g>
<!-- Node6 -->
<g id="node6" class="node">
<title>Node6</title>
<g id="a_node6"><a xlink:href="code__8008C1D0_8c.html#a5cdc06d2091fc6d20759448c40b17d54" target="_top" xlink:title=" ">
<polygon fill="white" stroke="black" points="128,-271.75 128,-290.75 220,-290.75 220,-271.75 128,-271.75"/>
<text text-anchor="middle" x="174" y="-278.75" font-family="Helvetica,sans-Serif" font-size="10.00">func_8008C354</text>
</a>
</g>
</g>
<!-- Node1&#45;&gt;Node6 -->
<g id="edge5" class="edge">
<title>Node1&#45;&gt;Node6</title>
<path fill="none" stroke="midnightblue" d="M92.13,-281.25C100.37,-281.25 109.04,-281.25 117.53,-281.25"/>
<polygon fill="midnightblue" stroke="midnightblue" points="117.76,-284.75 127.76,-281.25 117.76,-277.75 117.76,-284.75"/>
</g>
<!-- Node24 -->
<g id="node24" class="node">
<title>Node24</title>
<g id="a_node24"><a xlink:href="external_8c.html#a1a1bdc0f5d3b6fd4a86b9d62e93a076e" target="_top" xlink:title=" ">
<polygon fill="white" stroke="black" points="385,-5.75 385,-24.75 477,-24.75 477,-5.75 385,-5.75"/>
<text text-anchor="middle" x="431" y="-12.75" font-family="Helvetica,sans-Serif" font-size="10.00">func_800C90F4</text>
</a>
</g>
</g>
<!-- Node1&#45;&gt;Node24 -->
<g id="edge24" class="edge">
<title>Node1&#45;&gt;Node24</title>
<path fill="none" stroke="midnightblue" d="M50.76,-271.71C67.36,-231.14 138.47,-72.37 256,-15.25 294.33,3.38 343.25,1.48 379.46,-3.99"/>
<polygon fill="midnightblue" stroke="midnightblue" points="379.35,-7.52 389.78,-5.69 380.49,-0.61 379.35,-7.52"/>
</g>
<!-- Node3 -->
<g id="node3" class="node">
<title>Node3</title>
<g id="a_node3"><a xlink:href="external_8c.html#aad3025d980410fa157174acbf923f8c0" target="_top" xlink:title=" ">
<polygon fill="white" stroke="black" points="256,-556.75 256,-575.75 349,-575.75 349,-556.75 256,-556.75"/>
<text text-anchor="middle" x="302.5" y="-563.75" font-family="Helvetica,sans-Serif" font-size="10.00">func_800C92CC</text>
</a>
</g>
</g>
<!-- Node2&#45;&gt;Node3 -->
<g id="edge2" class="edge">
<title>Node2&#45;&gt;Node3</title>
<path fill="none" stroke="midnightblue" d="M180.19,-452.01C191.45,-472.34 220.02,-519.64 256,-547.25 258.29,-549.01 260.77,-550.64 263.35,-552.13"/>
<polygon fill="midnightblue" stroke="midnightblue" points="261.85,-555.3 272.35,-556.73 265.04,-549.07 261.85,-555.3"/>
</g>
<!-- Node4 -->
<g id="node4" class="node">
<title>Node4</title>
<g id="a_node4"><a xlink:href="external_8h.html#ae064a1a7293d05787ee9c3e311b70b46" target="_top" xlink:title=" ">
<polygon fill="white" stroke="black" points="385,-556.75 385,-575.75 477,-575.75 477,-556.75 385,-556.75"/>
<text text-anchor="middle" x="431" y="-563.75" font-family="Helvetica,sans-Serif" font-size="10.00">func_800C1C88</text>
</a>
</g>
</g>
<!-- Node3&#45;&gt;Node4 -->
<g id="edge3" class="edge">
<title>Node3&#45;&gt;Node4</title>
<path fill="none" stroke="midnightblue" d="M349.17,-566.25C357.42,-566.25 366.11,-566.25 374.6,-566.25"/>
<polygon fill="midnightblue" stroke="midnightblue" points="374.82,-569.75 384.82,-566.25 374.82,-562.75 374.82,-569.75"/>
</g>
<!-- Node5 -->
<g id="node5" class="node">
<title>Node5</title>
<g id="a_node5"><a xlink:href="external_8c.html#a62e16f9600e7e9beda2c9d2df10f3561" target="_top" xlink:title=" ">
<polygon fill="white" stroke="black" points="642,-62.75 642,-81.75 714,-81.75 714,-62.75 642,-62.75"/>
<text text-anchor="middle" x="678" y="-69.75" font-family="Helvetica,sans-Serif" font-size="10.00">play_sound</text>
</a>
</g>
</g>
<!-- Node3&#45;&gt;Node5 -->
<g id="edge4" class="edge">
<title>Node3&#45;&gt;Node5</title>
<path fill="none" stroke="midnightblue" d="M333.28,-556.71C338.83,-554.15 344.34,-551.02 349,-547.25 518.97,-409.52 637.56,-161.3 668.81,-91.17"/>
<polygon fill="midnightblue" stroke="midnightblue" points="672.1,-92.37 672.93,-81.81 665.7,-89.55 672.1,-92.37"/>
</g>
<!-- Node7 -->
<g id="node7" class="node">
<title>Node7</title>
<g id="a_node7"><a xlink:href="code__8008C1D0_8c.html#ad164a912d7ef76f24e7b5cfb9169c16f" target="_top" xlink:title=" ">
<polygon fill="white" stroke="black" points="256,-518.75 256,-537.75 349,-537.75 349,-518.75 256,-518.75"/>
<text text-anchor="middle" x="302.5" y="-525.75" font-family="Helvetica,sans-Serif" font-size="10.00">func_8008C6D0</text>
</a>
</g>
</g>
<!-- Node6&#45;&gt;Node7 -->
<g id="edge6" class="edge">
<title>Node6&#45;&gt;Node7</title>
<path fill="none" stroke="midnightblue" d="M177.89,-290.79C190.38,-331.86 239.9,-492.25 256,-509.25 257.37,-510.7 258.86,-512.04 260.45,-513.28"/>
<polygon fill="midnightblue" stroke="midnightblue" points="258.68,-516.3 269,-518.69 262.43,-510.38 258.68,-516.3"/>
</g>
<!-- Node8 -->
<g id="node8" class="node">
<title>Node8</title>
<g id="a_node8"><a xlink:href="code__8008C1D0_8c.html#a105203221e314be241a95e006b62ef80" target="_top" xlink:title=" ">
<polygon fill="white" stroke="black" points="256.5,-480.75 256.5,-499.75 348.5,-499.75 348.5,-480.75 256.5,-480.75"/>
<text text-anchor="middle" x="302.5" y="-487.75" font-family="Helvetica,sans-Serif" font-size="10.00">func_8008C8C4</text>
</a>
</g>
</g>
<!-- Node6&#45;&gt;Node8 -->
<g id="edge7" class="edge">
<title>Node6&#45;&gt;Node8</title>
<path fill="none" stroke="midnightblue" d="M176.5,-290.98C181.72,-321.64 201.79,-417.44 256,-471.25 257.46,-472.7 259.04,-474.04 260.72,-475.29"/>
<polygon fill="midnightblue" stroke="midnightblue" points="259.31,-478.53 269.67,-480.73 262.95,-472.55 259.31,-478.53"/>
</g>
<!-- Node9 -->
<g id="node9" class="node">
<title>Node9</title>
<g id="a_node9"><a xlink:href="code__8008C1D0_8c.html#acab450a6af6eca812ad3987a292a5165" target="_top" xlink:title=" ">
<polygon fill="white" stroke="black" points="256.5,-442.75 256.5,-461.75 348.5,-461.75 348.5,-442.75 256.5,-442.75"/>
<text text-anchor="middle" x="302.5" y="-449.75" font-family="Helvetica,sans-Serif" font-size="10.00">func_8008D0E4</text>
</a>
</g>
</g>
<!-- Node6&#45;&gt;Node9 -->
<g id="edge8" class="edge">
<title>Node6&#45;&gt;Node9</title>
<path fill="none" stroke="midnightblue" d="M177.62,-290.86C185.28,-317.21 210,-391.39 256,-433.25 257.7,-434.8 259.54,-436.23 261.47,-437.55"/>
<polygon fill="midnightblue" stroke="midnightblue" points="260,-440.74 270.42,-442.67 263.48,-434.66 260,-440.74"/>
</g>
<!-- Node10 -->
<g id="node10" class="node">
<title>Node10</title>
<g id="a_node10"><a xlink:href="code__8008C1D0_8c.html#a663cb8df8b606cf00e361977c9d6d834" target="_top" xlink:title=" ">
<polygon fill="white" stroke="black" points="256,-404.75 256,-423.75 349,-423.75 349,-404.75 256,-404.75"/>
<text text-anchor="middle" x="302.5" y="-411.75" font-family="Helvetica,sans-Serif" font-size="10.00">func_8008D3B0</text>
</a>
</g>
</g>
<!-- Node6&#45;&gt;Node10 -->
<g id="edge9" class="edge">
<title>Node6&#45;&gt;Node10</title>
<path fill="none" stroke="midnightblue" d="M179.49,-290.88C189.97,-312.41 218.07,-364.93 256,-395.25 258.05,-396.89 260.26,-398.41 262.56,-399.81"/>
<polygon fill="midnightblue" stroke="midnightblue" points="261.28,-403.09 271.76,-404.66 264.55,-396.9 261.28,-403.09"/>
</g>
<!-- Node11 -->
<g id="node11" class="node">
<title>Node11</title>
<g id="a_node11"><a xlink:href="code__8008C1D0_8c.html#ae7bb91110e710a8f32fcd4c56c56f934" target="_top" xlink:title=" ">
<polygon fill="white" stroke="black" points="256.5,-366.75 256.5,-385.75 348.5,-385.75 348.5,-366.75 256.5,-366.75"/>
<text text-anchor="middle" x="302.5" y="-373.75" font-family="Helvetica,sans-Serif" font-size="10.00">func_8008D554</text>
</a>
</g>
</g>
<!-- Node6&#45;&gt;Node11 -->
<g id="edge10" class="edge">
<title>Node6&#45;&gt;Node11</title>
<path fill="none" stroke="midnightblue" d="M183.1,-290.82C196.78,-306.47 225.89,-337.76 256,-357.25 258.8,-359.07 261.81,-360.77 264.89,-362.35"/>
<polygon fill="midnightblue" stroke="midnightblue" points="263.69,-365.65 274.23,-366.73 266.66,-359.32 263.69,-365.65"/>
</g>
<!-- Node12 -->
<g id="node12" class="node">
<title>Node12</title>
<g id="a_node12"><a xlink:href="code__8008C1D0_8c.html#a5f19eaaa048055d292d02c717e635786" target="_top" xlink:title=" ">
<polygon fill="white" stroke="black" points="256.5,-328.75 256.5,-347.75 348.5,-347.75 348.5,-328.75 256.5,-328.75"/>
<text text-anchor="middle" x="302.5" y="-335.75" font-family="Helvetica,sans-Serif" font-size="10.00">func_8008D760</text>
</a>
</g>
</g>
<!-- Node6&#45;&gt;Node12 -->
<g id="edge11" class="edge">
<title>Node6&#45;&gt;Node12</title>
<path fill="none" stroke="midnightblue" d="M194.86,-290.86C211.19,-298.69 234.98,-309.94 256,-319.25 259.96,-321.01 264.14,-322.81 268.28,-324.58"/>
<polygon fill="midnightblue" stroke="midnightblue" points="267.23,-327.93 277.8,-328.58 269.94,-321.48 267.23,-327.93"/>
</g>
<!-- Node13 -->
<g id="node13" class="node">
<title>Node13</title>
<g id="a_node13"><a xlink:href="code__8008C1D0_8c.html#a4ea2da0616ee3c475e4be217dc0bc71f" target="_top" xlink:title=" ">
<polygon fill="white" stroke="black" points="256,-290.75 256,-309.75 349,-309.75 349,-290.75 256,-290.75"/>
<text text-anchor="middle" x="302.5" y="-297.75" font-family="Helvetica,sans-Serif" font-size="10.00">func_8008D97C</text>
</a>
</g>
</g>
<!-- Node6&#45;&gt;Node13 -->
<g id="edge12" class="edge">
<title>Node6&#45;&gt;Node13</title>
<path fill="none" stroke="midnightblue" d="M220.31,-288.06C228.48,-289.28 237.08,-290.58 245.5,-291.84"/>
<polygon fill="midnightblue" stroke="midnightblue" points="245.24,-295.34 255.65,-293.37 246.28,-288.42 245.24,-295.34"/>
</g>
<!-- Node14 -->
<g id="node14" class="node">
<title>Node14</title>
<g id="a_node14"><a xlink:href="code__8008C1D0_8c.html#a4a437d6caeeaa794bcce43ec60c097e9" target="_top" xlink:title=" ">
<polygon fill="white" stroke="black" points="257,-252.75 257,-271.75 348,-271.75 348,-252.75 257,-252.75"/>
<text text-anchor="middle" x="302.5" y="-259.75" font-family="Helvetica,sans-Serif" font-size="10.00">func_8008E884</text>
</a>
</g>
</g>
<!-- Node6&#45;&gt;Node14 -->
<g id="edge13" class="edge">
<title>Node6&#45;&gt;Node14</title>
<path fill="none" stroke="midnightblue" d="M220.31,-274.45C228.97,-273.15 238.11,-271.77 247.01,-270.44"/>
<polygon fill="midnightblue" stroke="midnightblue" points="247.56,-273.89 256.93,-268.95 246.52,-266.97 247.56,-273.89"/>
</g>
<!-- Node15 -->
<g id="node15" class="node">
<title>Node15</title>
<g id="a_node15"><a xlink:href="code__8008C1D0_8c.html#a4e2c6d0ba50b7c13695f74f1c2bc7b18" target="_top" xlink:title=" ">
<polygon fill="white" stroke="black" points="256.5,-214.75 256.5,-233.75 348.5,-233.75 348.5,-214.75 256.5,-214.75"/>
<text text-anchor="middle" x="302.5" y="-221.75" font-family="Helvetica,sans-Serif" font-size="10.00">func_8008EC34</text>
</a>
</g>
</g>
<!-- Node6&#45;&gt;Node15 -->
<g id="edge14" class="edge">
<title>Node6&#45;&gt;Node15</title>
<path fill="none" stroke="midnightblue" d="M194.86,-271.64C211.19,-263.81 234.98,-252.56 256,-243.25 259.96,-241.5 264.14,-239.69 268.28,-237.93"/>
<polygon fill="midnightblue" stroke="midnightblue" points="269.94,-241.03 277.8,-233.92 267.23,-234.57 269.94,-241.03"/>
</g>
<!-- Node16 -->
<g id="node16" class="node">
<title>Node16</title>
<g id="a_node16"><a xlink:href="code__8008C1D0_8c.html#ae48f5d9507d1966754bc1aa1bddc4136" target="_top" xlink:title=" ">
<polygon fill="white" stroke="black" points="256.5,-176.75 256.5,-195.75 348.5,-195.75 348.5,-176.75 256.5,-176.75"/>
<text text-anchor="middle" x="302.5" y="-183.75" font-family="Helvetica,sans-Serif" font-size="10.00">func_8008EEC4</text>
</a>
</g>
</g>
<!-- Node6&#45;&gt;Node16 -->
<g id="edge15" class="edge">
<title>Node6&#45;&gt;Node16</title>
<path fill="none" stroke="midnightblue" d="M183.1,-271.68C196.78,-256.03 225.89,-224.74 256,-205.25 258.8,-203.44 261.81,-201.73 264.89,-200.15"/>
<polygon fill="midnightblue" stroke="midnightblue" points="266.66,-203.19 274.23,-195.77 263.69,-196.85 266.66,-203.19"/>
</g>
<!-- Node17 -->
<g id="node17" class="node">
<title>Node17</title>
<g id="a_node17"><a xlink:href="code__8008C1D0_8c.html#a77e26f2cff6381f9ba1575f8da060571" target="_top" xlink:title=" ">
<polygon fill="white" stroke="black" points="257,-138.75 257,-157.75 348,-157.75 348,-138.75 257,-138.75"/>
<text text-anchor="middle" x="302.5" y="-145.75" font-family="Helvetica,sans-Serif" font-size="10.00">func_8008F0E8</text>
</a>
</g>
</g>
<!-- Node6&#45;&gt;Node17 -->
<g id="edge16" class="edge">
<title>Node6&#45;&gt;Node17</title>
<path fill="none" stroke="midnightblue" d="M179.49,-271.62C189.97,-250.1 218.07,-197.57 256,-167.25 258.05,-165.61 260.26,-164.1 262.56,-162.69"/>
<polygon fill="midnightblue" stroke="midnightblue" points="264.55,-165.6 271.76,-157.84 261.28,-159.41 264.55,-165.6"/>
</g>
<!-- Node18 -->
<g id="node18" class="node">
<title>Node18</title>
<g id="a_node18"><a xlink:href="code__8008C1D0_8c.html#ae02351b6bbb678b552ec8864b47fc56c" target="_top" xlink:title=" ">
<polygon fill="white" stroke="black" points="257,-100.75 257,-119.75 348,-119.75 348,-100.75 257,-100.75"/>
<text text-anchor="middle" x="302.5" y="-107.75" font-family="Helvetica,sans-Serif" font-size="10.00">func_8008F3E0</text>
</a>
</g>
</g>
<!-- Node6&#45;&gt;Node18 -->
<g id="edge17" class="edge">
<title>Node6&#45;&gt;Node18</title>
<path fill="none" stroke="midnightblue" d="M177.62,-271.64C185.28,-245.29 210,-171.11 256,-129.25 257.7,-127.71 259.54,-126.28 261.47,-124.95"/>
<polygon fill="midnightblue" stroke="midnightblue" points="263.48,-127.84 270.42,-119.83 260,-121.76 263.48,-127.84"/>
</g>
<!-- Node19 -->
<g id="node19" class="node">
<title>Node19</title>
<g id="a_node19"><a xlink:href="code__8008C1D0_8c.html#afcf39ca15166fb7561402462930cd979" target="_top" xlink:title=" ">
<polygon fill="white" stroke="black" points="256.5,-62.75 256.5,-81.75 348.5,-81.75 348.5,-62.75 256.5,-62.75"/>
<text text-anchor="middle" x="302.5" y="-69.75" font-family="Helvetica,sans-Serif" font-size="10.00">func_8008F5A4</text>
</a>
</g>
</g>
<!-- Node6&#45;&gt;Node19 -->
<g id="edge18" class="edge">
<title>Node6&#45;&gt;Node19</title>
<path fill="none" stroke="midnightblue" d="M176.5,-271.52C181.72,-240.86 201.79,-145.06 256,-91.25 257.46,-89.8 259.04,-88.46 260.72,-87.22"/>
<polygon fill="midnightblue" stroke="midnightblue" points="262.95,-89.96 269.67,-81.77 259.31,-83.98 262.95,-89.96"/>
</g>
<!-- Node23 -->
<g id="node23" class="node">
<title>Node23</title>
<g id="a_node23"><a xlink:href="code__8008C1D0_8c.html#ab6d84742231847170dd64267f0519cdf" target="_top" xlink:title=" ">
<polygon fill="white" stroke="black" points="256,-24.75 256,-43.75 349,-43.75 349,-24.75 256,-24.75"/>
<text text-anchor="middle" x="302.5" y="-31.75" font-family="Helvetica,sans-Serif" font-size="10.00">func_8008FEDC</text>
</a>
</g>
</g>
<!-- Node6&#45;&gt;Node23 -->
<g id="edge23" class="edge">
<title>Node6&#45;&gt;Node23</title>
<path fill="none" stroke="midnightblue" d="M175.7,-271.6C178.7,-237.24 193.31,-119.43 256,-53.25 257.37,-51.81 258.86,-50.47 260.45,-49.23"/>
<polygon fill="midnightblue" stroke="midnightblue" points="262.43,-52.12 269,-43.81 258.68,-46.2 262.43,-52.12"/>
</g>
<!-- Node20 -->
<g id="node20" class="node">
<title>Node20</title>
<g id="a_node20"><a xlink:href="code__80057C60_8c.html#a0a55fae21abd30d3c618adef1a9f3ccd" target="_top" xlink:title=" ">
<polygon fill="white" stroke="black" points="385,-62.75 385,-81.75 477,-81.75 477,-62.75 385,-62.75"/>
<text text-anchor="middle" x="431" y="-69.75" font-family="Helvetica,sans-Serif" font-size="10.00">func_8006B8B4</text>
</a>
</g>
</g>
<!-- Node19&#45;&gt;Node20 -->
<g id="edge19" class="edge">
<title>Node19&#45;&gt;Node20</title>
<path fill="none" stroke="midnightblue" d="M348.81,-72.25C357.08,-72.25 365.79,-72.25 374.31,-72.25"/>
<polygon fill="midnightblue" stroke="midnightblue" points="374.58,-75.75 384.58,-72.25 374.58,-68.75 374.58,-75.75"/>
</g>
<!-- Node21 -->
<g id="node21" class="node">
<title>Node21</title>
<g id="a_node21"><a xlink:href="code__8008C1D0_8c.html#a1c7552c4a370cc015c2726e40f1fdb06" target="_top" xlink:title=" ">
<polygon fill="white" stroke="black" points="513,-100.75 513,-119.75 606,-119.75 606,-100.75 513,-100.75"/>
<text text-anchor="middle" x="559.5" y="-107.75" font-family="Helvetica,sans-Serif" font-size="10.00">func_8008FD4C</text>
</a>
</g>
</g>
<!-- Node20&#45;&gt;Node21 -->
<g id="edge20" class="edge">
<title>Node20&#45;&gt;Node21</title>
<path fill="none" stroke="midnightblue" d="M463.92,-81.84C479.95,-86.66 499.57,-92.55 516.78,-97.72"/>
<polygon fill="midnightblue" stroke="midnightblue" points="516,-101.14 526.59,-100.67 518.02,-94.44 516,-101.14"/>
</g>
<!-- Node22 -->
<g id="node22" class="node">
<title>Node22</title>
<g id="a_node22"><a xlink:href="external_8c.html#a517352d45a01341217ab2c073b3b223f" target="_top" xlink:title=" ">
<polygon fill="white" stroke="black" points="513.5,-62.75 513.5,-81.75 605.5,-81.75 605.5,-62.75 513.5,-62.75"/>
<text text-anchor="middle" x="559.5" y="-69.75" font-family="Helvetica,sans-Serif" font-size="10.00">func_800C9060</text>
</a>
</g>
</g>
<!-- Node20&#45;&gt;Node22 -->
<g id="edge21" class="edge">
<title>Node20&#45;&gt;Node22</title>
<path fill="none" stroke="midnightblue" d="M477.31,-72.25C485.58,-72.25 494.29,-72.25 502.81,-72.25"/>
<polygon fill="midnightblue" stroke="midnightblue" points="503.08,-75.75 513.08,-72.25 503.08,-68.75 503.08,-75.75"/>
</g>
<!-- Node22&#45;&gt;Node5 -->
<g id="edge22" class="edge">
<title>Node22&#45;&gt;Node5</title>
<path fill="none" stroke="midnightblue" d="M605.54,-72.25C614.1,-72.25 623.06,-72.25 631.63,-72.25"/>
<polygon fill="midnightblue" stroke="midnightblue" points="631.83,-75.75 641.83,-72.25 631.83,-68.75 631.83,-75.75"/>
</g>
<!-- Node24&#45;&gt;Node5 -->
<g id="edge25" class="edge">
<title>Node24&#45;&gt;Node5</title>
<path fill="none" stroke="midnightblue" d="M477.2,-24.52C512.4,-31.88 562.43,-42.67 606,-53.25 614.74,-55.37 624.05,-57.77 632.95,-60.12"/>
<polygon fill="midnightblue" stroke="midnightblue" points="632.21,-63.55 642.77,-62.75 634.02,-56.78 632.21,-63.55"/>
</g>
</g>
</svg>
        <g id="navigator" transform="translate(0 0)" fill="#404254">
                <rect fill="#f2f5e9" fill-opacity="0.5" stroke="#606060" stroke-width=".5" x="0" y="0" width="60" height="60"/>
                <use id="zoomplus" xlink:href="#zoomPlus" x="17" y="9" onmousedown="handleZoom(evt,'in')"/>
                <use id="zoomminus" xlink:href="#zoomMin" x="42" y="9" onmousedown="handleZoom(evt,'out')"/>
                <use id="reset" xlink:href="#resetDef" x="30" y="36" onmousedown="handleReset()"/>
                <g id="arrowUp" xlink:href="#dirArrow" transform="translate(30 24)" onmousedown="handlePan(0,-1)">
                  <use xlink:href="#rim" fill="#404040">
                        <set attributeName="fill" to="#808080" begin="arrowUp.mouseover" end="arrowUp.mouseout"/>
                  </use>
                  <path fill="none" stroke="white" stroke-width="1.5" d="M0,-3.0v7 M-2.5,-0.5L0,-3.0L2.5,-0.5"/>
                </g>
                <g id="arrowRight" xlink:href="#dirArrow" transform="rotate(90) translate(36 -43)" onmousedown="handlePan(1,0)">
                  <use xlink:href="#rim" fill="#404040">
                        <set attributeName="fill" to="#808080" begin="arrowRight.mouseover" end="arrowRight.mouseout"/>
                  </use>
                  <path fill="none" stroke="white" stroke-width="1.5" d="M0,-3.0v7 M-2.5,-0.5L0,-3.0L2.5,-0.5"/>
                </g>
                <g id="arrowDown" xlink:href="#dirArrow" transform="rotate(180) translate(-30 -48)" onmousedown="handlePan(0,1)">
                  <use xlink:href="#rim" fill="#404040">
                        <set attributeName="fill" to="#808080" begin="arrowDown.mouseover" end="arrowDown.mouseout"/>
                  </use>
                  <path fill="none" stroke="white" stroke-width="1.5" d="M0,-3.0v7 M-2.5,-0.5L0,-3.0L2.5,-0.5"/>
                </g>
                <g id="arrowLeft" xlink:href="#dirArrow" transform="rotate(270) translate(-36 17)" onmousedown="handlePan(-1,0)">
                  <use xlink:href="#rim" fill="#404040">
                        <set attributeName="fill" to="#808080" begin="arrowLeft.mouseover" end="arrowLeft.mouseout"/>
                  </use>
                  <path fill="none" stroke="white" stroke-width="1.5" d="M0,-3.0v7 M-2.5,-0.5L0,-3.0L2.5,-0.5"/>
                </g>
        </g>
        <svg viewBox="0 0 15 15" width="100%" height="30px" preserveAspectRatio="xMaxYMin meet">
         <g id="arrow_out" transform="scale(0.3 0.3)">
          <a xlink:href="code__8008C1D0_8h_a20abfe660afd31bd7c2fc8cea7786ea5_cgraph_org.svg" target="_base">
           <rect id="button" ry="5" rx="5" y="6" x="6" height="38" width="38"
                fill="#f2f5e9" fill-opacity="0.5" stroke="#606060" stroke-width="1.0"/>
           <path id="arrow"
             d="M 11.500037,31.436501 C 11.940474,20.09759 22.043105,11.32322 32.158766,21.979434 L 37.068811,17.246167 C 37.068811,17.246167 37.088388,32 37.088388,32 L 22.160133,31.978069 C 22.160133,31.978069 26.997745,27.140456 26.997745,27.140456 C 18.528582,18.264221 13.291696,25.230495 11.500037,31.436501 z"
             style="fill:#404040;"/>
          </a>
         </g>
        </svg>
</svg>
