<?xml version="1.0" encoding="UTF-8" standalone="no"?>
<!DOCTYPE svg PUBLIC "-//W3C//DTD SVG 1.1//EN"
 "http://www.w3.org/Graphics/SVG/1.1/DTD/svg11.dtd">
<!-- Generated by graphviz version 2.43.0 (0)
 -->
<!-- Title: init_course_vehicles Pages: 1 -->
<!--zoomable 322 -->
<svg id="main" version="1.1" xmlns="http://www.w3.org/2000/svg" xmlns:xlink="http://www.w3.org/1999/xlink" xml:space="preserve" onload="init(evt)">
<style type="text/css"><![CDATA[
.edge:hover path { stroke: red; }
.edge:hover polygon { stroke: red; fill: red; }
]]></style>
<script type="text/javascript"><![CDATA[
var edges = document.getElementsByTagName('g');
if (edges && edges.length) {
  for (var i=0;i<edges.length;i++) {
    if (edges[i].id.substr(0,4)=='edge') {
      edges[i].setAttribute('class','edge');
    }
  }
}
]]></script>
        <defs>
                <circle id="rim" cx="0" cy="0" r="7"/>
                <circle id="rim2" cx="0" cy="0" r="3.5"/>
                <g id="zoomPlus">
                        <use xlink:href="#rim" fill="#404040">
                                <set attributeName="fill" to="#808080" begin="zoomplus.mouseover" end="zoomplus.mouseout"/>
                        </use>
                        <path d="M-4,0h8M0,-4v8" fill="none" stroke="white" stroke-width="1.5" pointer-events="none"/>
                </g>
                <g id="zoomMin">
                        <use xlink:href="#rim" fill="#404040">
                                <set attributeName="fill" to="#808080" begin="zoomminus.mouseover" end="zoomminus.mouseout"/>
                        </use>
                        <path d="M-4,0h8" fill="none" stroke="white" stroke-width="1.5" pointer-events="none"/>
                </g>
                <g id="dirArrow">
                        <path fill="none" stroke="white" stroke-width="1.5" d="M0,-3.0v7 M-2.5,-0.5L0,-3.0L2.5,-0.5"/>
                </g>
               <g id="resetDef">
                       <use xlink:href="#rim2" fill="#404040">
                               <set attributeName="fill" to="#808080" begin="reset.mouseover" end="reset.mouseout"/>
                       </use>
               </g>
        </defs>

<script type="text/javascript">
var viewWidth = 1191;
var viewHeight = 322;
var sectionId = 'dynsection-170';
</script>
<script xlink:href="svgpan.js"/>
<svg id="graph" class="graph">
<g id="viewport">
<title>init_course_vehicles</title>
<polygon fill="white" stroke="transparent" points="-4,4 -4,-318 1187,-318 1187,4 -4,4"/>
<!-- Node1 -->
<g id="node1" class="node">
<title>Node1</title>
<g id="a_node1"><a xlink:title=" ">
<polygon fill="#bfbfbf" stroke="black" points="0,-57.5 0,-76.5 116,-76.5 116,-57.5 0,-57.5"/>
<text text-anchor="middle" x="58" y="-64.5" font-family="Helvetica,sans-Serif" font-size="10.00">init_course_vehicles</text>
</a>
</g>
</g>
<!-- Node2 -->
<g id="node2" class="node">
<title>Node2</title>
<g id="a_node2"><a xlink:href="actors_8c.html#a24d84b2c349ccb02fa767a4e49c4f2c5" target="_top" xlink:title=" ">
<polygon fill="white" stroke="black" points="152,-114.5 152,-133.5 273,-133.5 273,-114.5 152,-114.5"/>
<text text-anchor="middle" x="212.5" y="-121.5" font-family="Helvetica,sans-Serif" font-size="10.00">addActorToEmptySlot</text>
</a>
</g>
</g>
<!-- Node1&#45;&gt;Node2 -->
<g id="edge1" class="edge">
<title>Node1&#45;&gt;Node2</title>
<path fill="none" stroke="midnightblue" d="M80.98,-76.55C99.71,-84.56 127.41,-96.07 152,-105 157.95,-107.16 164.29,-109.33 170.52,-111.38"/>
<polygon fill="midnightblue" stroke="midnightblue" points="169.56,-114.75 180.15,-114.5 171.72,-108.09 169.56,-114.75"/>
</g>
<!-- Node20 -->
<g id="node20" class="node">
<title>Node20</title>
<g id="a_node20"><a xlink:href="code__80005FD0_8h.html#a526b083cb3d4f0d6ed2d1e410575cbc1" target="_top" xlink:title=" ">
<polygon fill="white" stroke="black" points="165,-76.5 165,-95.5 260,-95.5 260,-76.5 165,-76.5"/>
<text text-anchor="middle" x="212.5" y="-83.5" font-family="Helvetica,sans-Serif" font-size="10.00">func_8000DBAC</text>
</a>
</g>
</g>
<!-- Node1&#45;&gt;Node20 -->
<g id="edge22" class="edge">
<title>Node1&#45;&gt;Node20</title>
<path fill="none" stroke="midnightblue" d="M116.22,-74.13C128.89,-75.71 142.31,-77.38 154.95,-78.95"/>
<polygon fill="midnightblue" stroke="midnightblue" points="154.54,-82.43 164.9,-80.19 155.41,-75.48 154.54,-82.43"/>
</g>
<!-- Node21 -->
<g id="node21" class="node">
<title>Node21</title>
<g id="a_node21"><a xlink:href="code__80005FD0_8c.html#a93313abf66f75a07eec17a337f7d9ba2" target="_top" xlink:title=" ">
<polygon fill="white" stroke="black" points="167,-38.5 167,-57.5 258,-57.5 258,-38.5 167,-38.5"/>
<text text-anchor="middle" x="212.5" y="-45.5" font-family="Helvetica,sans-Serif" font-size="10.00">func_80012220</text>
</a>
</g>
</g>
<!-- Node1&#45;&gt;Node21 -->
<g id="edge23" class="edge">
<title>Node1&#45;&gt;Node21</title>
<path fill="none" stroke="midnightblue" d="M116.22,-59.87C129.42,-58.23 143.44,-56.48 156.55,-54.85"/>
<polygon fill="midnightblue" stroke="midnightblue" points="157.34,-58.28 166.83,-53.57 156.47,-51.33 157.34,-58.28"/>
</g>
<!-- Node24 -->
<g id="node24" class="node">
<title>Node24</title>
<g id="a_node24"><a xlink:href="math__util_8c.html#a9092c945c52b3a3481228b2724991e3c" target="_top" xlink:title=" ">
<polygon fill="white" stroke="black" points="180,-0.5 180,-19.5 245,-19.5 245,-0.5 180,-0.5"/>
<text text-anchor="middle" x="212.5" y="-7.5" font-family="Helvetica,sans-Serif" font-size="10.00">vec3s_set</text>
</a>
</g>
</g>
<!-- Node1&#45;&gt;Node24 -->
<g id="edge26" class="edge">
<title>Node1&#45;&gt;Node24</title>
<path fill="none" stroke="midnightblue" d="M80.98,-57.45C99.71,-49.44 127.41,-37.93 152,-29 157.95,-26.84 164.29,-24.67 170.52,-22.62"/>
<polygon fill="midnightblue" stroke="midnightblue" points="171.72,-25.91 180.15,-19.5 169.56,-19.25 171.72,-25.91"/>
</g>
<!-- Node3 -->
<g id="node3" class="node">
<title>Node3</title>
<g id="a_node3"><a xlink:href="actors_8c.html#a39c023177b5a7686cdd1fc65b8b953e1" target="_top" xlink:title=" ">
<polygon fill="white" stroke="black" points="439,-180.5 439,-199.5 501,-199.5 501,-180.5 439,-180.5"/>
<text text-anchor="middle" x="470" y="-187.5" font-family="Helvetica,sans-Serif" font-size="10.00">actor_init</text>
</a>
</g>
</g>
<!-- Node2&#45;&gt;Node3 -->
<g id="edge2" class="edge">
<title>Node2&#45;&gt;Node3</title>
<path fill="none" stroke="midnightblue" d="M250.38,-133.53C297.86,-145.79 380.06,-167.02 429,-179.67"/>
<polygon fill="midnightblue" stroke="midnightblue" points="428.36,-183.12 438.92,-182.23 430.11,-176.34 428.36,-183.12"/>
</g>
<!-- Node19 -->
<g id="node19" class="node">
<title>Node19</title>
<g id="a_node19"><a xlink:href="actors_8c.html#a0c9d11d8956bf92c32a5e9bafd7036e6" target="_top" xlink:title=" ">
<polygon fill="white" stroke="black" points="310.5,-105.5 310.5,-124.5 401.5,-124.5 401.5,-105.5 310.5,-105.5"/>
<text text-anchor="middle" x="356" y="-112.5" font-family="Helvetica,sans-Serif" font-size="10.00">func_8029E890</text>
</a>
</g>
</g>
<!-- Node2&#45;&gt;Node19 -->
<g id="edge18" class="edge">
<title>Node2&#45;&gt;Node19</title>
<path fill="none" stroke="midnightblue" d="M273.1,-120.21C282,-119.64 291.15,-119.06 299.95,-118.5"/>
<polygon fill="midnightblue" stroke="midnightblue" points="300.33,-121.98 310.09,-117.86 299.89,-115 300.33,-121.98"/>
</g>
<!-- Node4 -->
<g id="node4" class="node">
<title>Node4</title>
<g id="a_node4"><a xlink:href="actors_8c.html#a1a9bccb586242555a9123ebd4ab70f2a" target="_top" xlink:title=" ">
<polygon fill="white" stroke="black" points="537,-131 537,-161 669,-161 669,-131 537,-131"/>
<text text-anchor="start" x="545" y="-149" font-family="Helvetica,sans-Serif" font-size="10.00">cleanup_red_and_green</text>
<text text-anchor="middle" x="603" y="-138" font-family="Helvetica,sans-Serif" font-size="10.00">_shells</text>
</a>
</g>
</g>
<!-- Node3&#45;&gt;Node4 -->
<g id="edge3" class="edge">
<title>Node3&#45;&gt;Node4</title>
<path fill="none" stroke="midnightblue" d="M499.43,-180.45C513.52,-175.72 531.02,-169.84 547.56,-164.29"/>
<polygon fill="midnightblue" stroke="midnightblue" points="548.78,-167.57 557.15,-161.07 546.55,-160.93 548.78,-167.57"/>
</g>
<!-- Node11 -->
<g id="node11" class="node">
<title>Node11</title>
<g id="a_node11"><a xlink:href="collision_8c.html#ad72fef3ffe32191d73b1822f512ebf3f" target="_top" xlink:title=" ">
<polygon fill="white" stroke="black" points="555.5,-218.5 555.5,-237.5 650.5,-237.5 650.5,-218.5 555.5,-218.5"/>
<text text-anchor="middle" x="603" y="-225.5" font-family="Helvetica,sans-Serif" font-size="10.00">func_802AAAAC</text>
</a>
</g>
</g>
<!-- Node3&#45;&gt;Node11 -->
<g id="edge10" class="edge">
<title>Node3&#45;&gt;Node11</title>
<path fill="none" stroke="midnightblue" d="M501.05,-198.72C518.29,-203.72 540.22,-210.08 559.23,-215.59"/>
<polygon fill="midnightblue" stroke="midnightblue" points="558.29,-218.96 568.87,-218.39 560.24,-212.24 558.29,-218.96"/>
</g>
<!-- Node13 -->
<g id="node13" class="node">
<title>Node13</title>
<g id="a_node13"><a xlink:href="collision_8c.html#a365367628b7140a7a880beeecce9c305" target="_top" xlink:title=" ">
<polygon fill="white" stroke="black" points="555.5,-180.5 555.5,-199.5 650.5,-199.5 650.5,-180.5 555.5,-180.5"/>
<text text-anchor="middle" x="603" y="-187.5" font-family="Helvetica,sans-Serif" font-size="10.00">func_802ADDC8</text>
</a>
</g>
</g>
<!-- Node3&#45;&gt;Node13 -->
<g id="edge12" class="edge">
<title>Node3&#45;&gt;Node13</title>
<path fill="none" stroke="midnightblue" d="M501.05,-190C514.13,-190 529.9,-190 545.04,-190"/>
<polygon fill="midnightblue" stroke="midnightblue" points="545.39,-193.5 555.39,-190 545.39,-186.5 545.39,-193.5"/>
</g>
<!-- Node17 -->
<g id="node17" class="node">
<title>Node17</title>
<g id="a_node17"><a xlink:href="math__util_8c.html#afebc8c849e0f3dee86441844d3679294" target="_top" xlink:title=" ">
<polygon fill="white" stroke="black" points="549.5,-294.5 549.5,-313.5 656.5,-313.5 656.5,-294.5 549.5,-294.5"/>
<text text-anchor="middle" x="603" y="-301.5" font-family="Helvetica,sans-Serif" font-size="10.00">vec3f_copy_return</text>
</a>
</g>
</g>
<!-- Node3&#45;&gt;Node17 -->
<g id="edge16" class="edge">
<title>Node3&#45;&gt;Node17</title>
<path fill="none" stroke="midnightblue" d="M475.04,-199.71C483.56,-218.98 505.22,-262.12 537,-285 539.67,-286.92 542.54,-288.65 545.52,-290.21"/>
<polygon fill="midnightblue" stroke="midnightblue" points="544.2,-293.45 554.75,-294.37 547.08,-287.07 544.2,-293.45"/>
</g>
<!-- Node18 -->
<g id="node18" class="node">
<title>Node18</title>
<g id="a_node18"><a xlink:href="math__util_8c.html#a0e270ee67600c8c9c2f140c647d008a1" target="_top" xlink:title=" ">
<polygon fill="white" stroke="black" points="566,-256.5 566,-275.5 640,-275.5 640,-256.5 566,-256.5"/>
<text text-anchor="middle" x="603" y="-263.5" font-family="Helvetica,sans-Serif" font-size="10.00">vec3s_copy</text>
</a>
</g>
</g>
<!-- Node3&#45;&gt;Node18 -->
<g id="edge17" class="edge">
<title>Node3&#45;&gt;Node18</title>
<path fill="none" stroke="midnightblue" d="M479.85,-199.92C491.69,-212.6 513.86,-234.41 537,-247 542.97,-250.25 549.55,-253 556.17,-255.31"/>
<polygon fill="midnightblue" stroke="midnightblue" points="555.24,-258.68 565.83,-258.39 557.36,-252.01 555.24,-258.68"/>
</g>
<!-- Node5 -->
<g id="node5" class="node">
<title>Node5</title>
<g id="a_node5"><a xlink:href="actors_8c.html#a694ec6ef7548b8618aeb35c038d3a9b9" target="_top" xlink:title=" ">
<polygon fill="white" stroke="black" points="710,-130.5 710,-149.5 793,-149.5 793,-130.5 710,-130.5"/>
<text text-anchor="middle" x="751.5" y="-137.5" font-family="Helvetica,sans-Serif" font-size="10.00">destroy_actor</text>
</a>
</g>
</g>
<!-- Node4&#45;&gt;Node5 -->
<g id="edge4" class="edge">
<title>Node4&#45;&gt;Node5</title>
<path fill="none" stroke="midnightblue" d="M669.11,-143.33C679.43,-142.91 689.97,-142.48 699.9,-142.07"/>
<polygon fill="midnightblue" stroke="midnightblue" points="700.14,-145.57 709.98,-141.66 699.85,-138.57 700.14,-145.57"/>
</g>
<!-- Node10 -->
<g id="node10" class="node">
<title>Node10</title>
<g id="a_node10"><a xlink:href="code__80005FD0_8c.html#a6883471b988e3d7da2086c14cd7b6c79" target="_top" xlink:title=" ">
<polygon fill="white" stroke="black" points="706,-92.5 706,-111.5 797,-111.5 797,-92.5 706,-92.5"/>
<text text-anchor="middle" x="751.5" y="-99.5" font-family="Helvetica,sans-Serif" font-size="10.00">func_8000EE58</text>
</a>
</g>
</g>
<!-- Node4&#45;&gt;Node10 -->
<g id="edge9" class="edge">
<title>Node4&#45;&gt;Node10</title>
<path fill="none" stroke="midnightblue" d="M654.01,-130.98C671.88,-125.61 691.82,-119.62 708.91,-114.49"/>
<polygon fill="midnightblue" stroke="midnightblue" points="710.04,-117.81 718.61,-111.58 708.02,-111.1 710.04,-117.81"/>
</g>
<!-- Node6 -->
<g id="node6" class="node">
<title>Node6</title>
<g id="a_node6"><a xlink:href="actors_8c.html#a15517665ab054722a5c980c0f1008cd0" target="_top" xlink:title=" ">
<polygon fill="white" stroke="black" points="834,-92.5 834,-111.5 927,-111.5 927,-92.5 834,-92.5"/>
<text text-anchor="middle" x="880.5" y="-99.5" font-family="Helvetica,sans-Serif" font-size="10.00">func_8029E7DC</text>
</a>
</g>
</g>
<!-- Node5&#45;&gt;Node6 -->
<g id="edge5" class="edge">
<title>Node5&#45;&gt;Node6</title>
<path fill="none" stroke="midnightblue" d="M784.55,-130.41C800.64,-125.6 820.34,-119.7 837.62,-114.53"/>
<polygon fill="midnightblue" stroke="midnightblue" points="838.89,-117.81 847.46,-111.59 836.88,-111.1 838.89,-117.81"/>
</g>
<!-- Node7 -->
<g id="node7" class="node">
<title>Node7</title>
<g id="a_node7"><a xlink:href="external_8c.html#a7a3355f3444c31e7deb571c6d76db628" target="_top" xlink:title=" ">
<polygon fill="white" stroke="black" points="963,-92.5 963,-111.5 1055,-111.5 1055,-92.5 963,-92.5"/>
<text text-anchor="middle" x="1009" y="-99.5" font-family="Helvetica,sans-Serif" font-size="10.00">func_800C99E0</text>
</a>
</g>
</g>
<!-- Node6&#45;&gt;Node7 -->
<g id="edge6" class="edge">
<title>Node6&#45;&gt;Node7</title>
<path fill="none" stroke="midnightblue" d="M927.17,-102C935.42,-102 944.11,-102 952.6,-102"/>
<polygon fill="midnightblue" stroke="midnightblue" points="952.82,-105.5 962.82,-102 952.82,-98.5 952.82,-105.5"/>
</g>
<!-- Node8 -->
<g id="node8" class="node">
<title>Node8</title>
<g id="a_node8"><a xlink:href="external_8c.html#ad82a0575bb5b71ccfaf0d187f378f0b3" target="_top" xlink:title=" ">
<polygon fill="white" stroke="black" points="1091,-111.5 1091,-130.5 1183,-130.5 1183,-111.5 1091,-111.5"/>
<text text-anchor="middle" x="1137" y="-118.5" font-family="Helvetica,sans-Serif" font-size="10.00">func_800C21E8</text>
</a>
</g>
</g>
<!-- Node7&#45;&gt;Node8 -->
<g id="edge7" class="edge">
<title>Node7&#45;&gt;Node8</title>
<path fill="none" stroke="midnightblue" d="M1055.13,-108.81C1063.46,-110.06 1072.23,-111.38 1080.81,-112.68"/>
<polygon fill="midnightblue" stroke="midnightblue" points="1080.35,-116.15 1090.76,-114.18 1081.39,-109.23 1080.35,-116.15"/>
</g>
<!-- Node9 -->
<g id="node9" class="node">
<title>Node9</title>
<g id="a_node9"><a xlink:href="external_8h.html#a69165d21844ba08a94405ec729d386d4" target="_top" xlink:title=" ">
<polygon fill="white" stroke="black" points="1091,-73.5 1091,-92.5 1183,-92.5 1183,-73.5 1091,-73.5"/>
<text text-anchor="middle" x="1137" y="-80.5" font-family="Helvetica,sans-Serif" font-size="10.00">func_800C5578</text>
</a>
</g>
</g>
<!-- Node7&#45;&gt;Node9 -->
<g id="edge8" class="edge">
<title>Node7&#45;&gt;Node9</title>
<path fill="none" stroke="midnightblue" d="M1055.13,-95.19C1063.46,-93.94 1072.23,-92.62 1080.81,-91.32"/>
<polygon fill="midnightblue" stroke="midnightblue" points="1081.39,-94.77 1090.76,-89.82 1080.35,-87.85 1081.39,-94.77"/>
</g>
<!-- Node12 -->
<g id="node12" class="node">
<title>Node12</title>
<g id="a_node12"><a xlink:href="math__util_8c.html#a79fd07a0971ec96a3ff0801963a2fa7f" target="_top" xlink:title=" ">
<polygon fill="white" stroke="black" points="719.5,-282.5 719.5,-301.5 783.5,-301.5 783.5,-282.5 719.5,-282.5"/>
<text text-anchor="middle" x="751.5" y="-289.5" font-family="Helvetica,sans-Serif" font-size="10.00">vec3f_set</text>
</a>
</g>
</g>
<!-- Node11&#45;&gt;Node12 -->
<g id="edge11" class="edge">
<title>Node11&#45;&gt;Node12</title>
<path fill="none" stroke="midnightblue" d="M644.68,-237.57C652.93,-240.15 661.4,-243.28 669,-247 686.73,-255.67 687.78,-263.36 705,-273 708.25,-274.82 711.72,-276.57 715.23,-278.23"/>
<polygon fill="midnightblue" stroke="midnightblue" points="713.94,-281.49 724.5,-282.35 716.79,-275.09 713.94,-281.49"/>
</g>
<!-- Node14 -->
<g id="node14" class="node">
<title>Node14</title>
<g id="a_node14"><a xlink:href="collision_8c.html#afce45acb8da354da0a5b501003be1aef" target="_top" xlink:title=" ">
<polygon fill="white" stroke="black" points="705,-206.5 705,-225.5 798,-225.5 798,-206.5 705,-206.5"/>
<text text-anchor="middle" x="751.5" y="-213.5" font-family="Helvetica,sans-Serif" font-size="10.00">func_802AAE4C</text>
</a>
</g>
</g>
<!-- Node13&#45;&gt;Node14 -->
<g id="edge13" class="edge">
<title>Node13&#45;&gt;Node14</title>
<path fill="none" stroke="midnightblue" d="M650.76,-198.3C664.84,-200.8 680.43,-203.57 695.03,-206.15"/>
<polygon fill="midnightblue" stroke="midnightblue" points="694.48,-209.61 704.94,-207.91 695.7,-202.72 694.48,-209.61"/>
</g>
<!-- Node15 -->
<g id="node15" class="node">
<title>Node15</title>
<g id="a_node15"><a xlink:href="collision_8c.html#adcc608ea0eae3bf9a27ab79ec64b4899" target="_top" xlink:title=" ">
<polygon fill="white" stroke="black" points="705.5,-168.5 705.5,-187.5 797.5,-187.5 797.5,-168.5 705.5,-168.5"/>
<text text-anchor="middle" x="751.5" y="-175.5" font-family="Helvetica,sans-Serif" font-size="10.00">func_802AB288</text>
</a>
</g>
</g>
<!-- Node13&#45;&gt;Node15 -->
<g id="edge14" class="edge">
<title>Node13&#45;&gt;Node15</title>
<path fill="none" stroke="midnightblue" d="M650.76,-186.17C664.77,-185.02 680.28,-183.75 694.81,-182.56"/>
<polygon fill="midnightblue" stroke="midnightblue" points="695.51,-186.02 705.19,-181.71 694.93,-179.04 695.51,-186.02"/>
</g>
<!-- Node16 -->
<g id="node16" class="node">
<title>Node16</title>
<g id="a_node16"><a xlink:href="collision_8c.html#ab440aa3fc960b7b4b5ad8e4bcaa06b00" target="_top" xlink:title=" ">
<polygon fill="white" stroke="black" points="705,-244.5 705,-263.5 798,-263.5 798,-244.5 705,-244.5"/>
<text text-anchor="middle" x="751.5" y="-251.5" font-family="Helvetica,sans-Serif" font-size="10.00">func_802AB6C4</text>
</a>
</g>
</g>
<!-- Node13&#45;&gt;Node16 -->
<g id="edge15" class="edge">
<title>Node13&#45;&gt;Node16</title>
<path fill="none" stroke="midnightblue" d="M644.68,-199.57C652.93,-202.15 661.4,-205.28 669,-209 686.73,-217.67 687.78,-225.36 705,-235 708.25,-236.82 711.72,-238.57 715.23,-240.23"/>
<polygon fill="midnightblue" stroke="midnightblue" points="713.94,-243.49 724.5,-244.35 716.79,-237.09 713.94,-243.49"/>
</g>
<!-- Node19&#45;&gt;Node3 -->
<g id="edge19" class="edge">
<title>Node19&#45;&gt;Node3</title>
<path fill="none" stroke="midnightblue" d="M371.64,-124.8C390.61,-137.51 423.89,-159.79 446.18,-174.72"/>
<polygon fill="midnightblue" stroke="midnightblue" points="444.45,-177.77 454.71,-180.43 448.35,-171.96 444.45,-177.77"/>
</g>
<!-- Node19&#45;&gt;Node6 -->
<g id="edge21" class="edge">
<title>Node19&#45;&gt;Node6</title>
<path fill="none" stroke="midnightblue" d="M401.56,-106.28C481.28,-91.9 653.49,-66.38 798,-83 810.63,-84.45 824.15,-87.13 836.47,-90.03"/>
<polygon fill="midnightblue" stroke="midnightblue" points="835.95,-93.51 846.49,-92.49 837.62,-86.71 835.95,-93.51"/>
</g>
<!-- Node19&#45;&gt;Node10 -->
<g id="edge20" class="edge">
<title>Node19&#45;&gt;Node10</title>
<path fill="none" stroke="midnightblue" d="M401.76,-113.52C474.24,-111.13 617.1,-106.41 695.61,-103.81"/>
<polygon fill="midnightblue" stroke="midnightblue" points="695.91,-107.31 705.79,-103.48 695.68,-100.31 695.91,-107.31"/>
</g>
<!-- Node22 -->
<g id="node22" class="node">
<title>Node22</title>
<g id="a_node22"><a xlink:href="code__80005FD0_8h.html#a09cab32f89b37ef0154d0ecf1a93f790" target="_top" xlink:title=" ">
<polygon fill="white" stroke="black" points="309,-48.5 309,-67.5 403,-67.5 403,-48.5 309,-48.5"/>
<text text-anchor="middle" x="356" y="-55.5" font-family="Helvetica,sans-Serif" font-size="10.00">func_8000D6D0</text>
</a>
</g>
</g>
<!-- Node21&#45;&gt;Node22 -->
<g id="edge24" class="edge">
<title>Node21&#45;&gt;Node22</title>
<path fill="none" stroke="midnightblue" d="M258.27,-51.16C271.05,-52.07 285.13,-53.06 298.51,-54.01"/>
<polygon fill="midnightblue" stroke="midnightblue" points="298.35,-57.5 308.57,-54.72 298.84,-50.52 298.35,-57.5"/>
</g>
<!-- Node23 -->
<g id="node23" class="node">
<title>Node23</title>
<g id="a_node23"><a xlink:href="code__80005FD0_8h.html#a3971a606acd369f625b994899a19d132" target="_top" xlink:title=" ">
<polygon fill="white" stroke="black" points="310,-10.5 310,-29.5 402,-29.5 402,-10.5 310,-10.5"/>
<text text-anchor="middle" x="356" y="-17.5" font-family="Helvetica,sans-Serif" font-size="10.00">func_8000D940</text>
</a>
</g>
</g>
<!-- Node21&#45;&gt;Node23 -->
<g id="edge25" class="edge">
<title>Node21&#45;&gt;Node23</title>
<path fill="none" stroke="midnightblue" d="M258.27,-39.14C271.43,-36.54 285.99,-33.66 299.72,-30.94"/>
<polygon fill="midnightblue" stroke="midnightblue" points="300.42,-34.37 309.55,-28.99 299.06,-27.5 300.42,-34.37"/>
</g>
</g>
</svg>
        <g id="navigator" transform="translate(0 0)" fill="#404254">
                <rect fill="#f2f5e9" fill-opacity="0.5" stroke="#606060" stroke-width=".5" x="0" y="0" width="60" height="60"/>
                <use id="zoomplus" xlink:href="#zoomPlus" x="17" y="9" onmousedown="handleZoom(evt,'in')"/>
                <use id="zoomminus" xlink:href="#zoomMin" x="42" y="9" onmousedown="handleZoom(evt,'out')"/>
                <use id="reset" xlink:href="#resetDef" x="30" y="36" onmousedown="handleReset()"/>
                <g id="arrowUp" xlink:href="#dirArrow" transform="translate(30 24)" onmousedown="handlePan(0,-1)">
                  <use xlink:href="#rim" fill="#404040">
                        <set attributeName="fill" to="#808080" begin="arrowUp.mouseover" end="arrowUp.mouseout"/>
                  </use>
                  <path fill="none" stroke="white" stroke-width="1.5" d="M0,-3.0v7 M-2.5,-0.5L0,-3.0L2.5,-0.5"/>
                </g>
                <g id="arrowRight" xlink:href="#dirArrow" transform="rotate(90) translate(36 -43)" onmousedown="handlePan(1,0)">
                  <use xlink:href="#rim" fill="#404040">
                        <set attributeName="fill" to="#808080" begin="arrowRight.mouseover" end="arrowRight.mouseout"/>
                  </use>
                  <path fill="none" stroke="white" stroke-width="1.5" d="M0,-3.0v7 M-2.5,-0.5L0,-3.0L2.5,-0.5"/>
                </g>
                <g id="arrowDown" xlink:href="#dirArrow" transform="rotate(180) translate(-30 -48)" onmousedown="handlePan(0,1)">
                  <use xlink:href="#rim" fill="#404040">
                        <set attributeName="fill" to="#808080" begin="arrowDown.mouseover" end="arrowDown.mouseout"/>
                  </use>
                  <path fill="none" stroke="white" stroke-width="1.5" d="M0,-3.0v7 M-2.5,-0.5L0,-3.0L2.5,-0.5"/>
                </g>
                <g id="arrowLeft" xlink:href="#dirArrow" transform="rotate(270) translate(-36 17)" onmousedown="handlePan(-1,0)">
                  <use xlink:href="#rim" fill="#404040">
                        <set attributeName="fill" to="#808080" begin="arrowLeft.mouseover" end="arrowLeft.mouseout"/>
                  </use>
                  <path fill="none" stroke="white" stroke-width="1.5" d="M0,-3.0v7 M-2.5,-0.5L0,-3.0L2.5,-0.5"/>
                </g>
        </g>
        <svg viewBox="0 0 15 15" width="100%" height="30px" preserveAspectRatio="xMaxYMin meet">
         <g id="arrow_out" transform="scale(0.3 0.3)">
          <a xlink:href="code__80005FD0_8c_afd6fa1e9b8e8378fffcaa462fdc81ef6_cgraph_org.svg" target="_base">
           <rect id="button" ry="5" rx="5" y="6" x="6" height="38" width="38"
                fill="#f2f5e9" fill-opacity="0.5" stroke="#606060" stroke-width="1.0"/>
           <path id="arrow"
             d="M 11.500037,31.436501 C 11.940474,20.09759 22.043105,11.32322 32.158766,21.979434 L 37.068811,17.246167 C 37.068811,17.246167 37.088388,32 37.088388,32 L 22.160133,31.978069 C 22.160133,31.978069 26.997745,27.140456 26.997745,27.140456 C 18.528582,18.264221 13.291696,25.230495 11.500037,31.436501 z"
             style="fill:#404040;"/>
          </a>
         </g>
        </svg>
</svg>
