<?xml version="1.0" encoding="UTF-8" standalone="no"?>
<!DOCTYPE svg PUBLIC "-//W3C//DTD SVG 1.1//EN"
 "http://www.w3.org/Graphics/SVG/1.1/DTD/svg11.dtd">
<!-- Generated by graphviz version 2.43.0 (0)
 -->
<!-- Title: func_8005A070 Pages: 1 -->
<svg width="682pt" height="1123pt"
 viewBox="0.00 0.00 682.00 1123.00" xmlns="http://www.w3.org/2000/svg" xmlns:xlink="http://www.w3.org/1999/xlink">
<g id="graph0" class="graph" transform="scale(1 1) rotate(0) translate(4 1119)">
<title>func_8005A070</title>
<polygon fill="white" stroke="transparent" points="-4,4 -4,-1119 678,-1119 678,4 -4,4"/>
<!-- Node1 -->
<g id="node1" class="node">
<title>Node1</title>
<g id="a_node1"><a xlink:title=" ">
<polygon fill="#bfbfbf" stroke="black" points="0,-228.5 0,-247.5 92,-247.5 92,-228.5 0,-228.5"/>
<text text-anchor="middle" x="46" y="-235.5" font-family="Helvetica,sans-Serif" font-size="10.00">func_8005A070</text>
</a>
</g>
</g>
<!-- Node2 -->
<g id="node2" class="node">
<title>Node2</title>
<g id="a_node2"><a xlink:href="math__util__2_8c.html#ae43d750d31e45ae2a51b6ca6d87d1570" target="_top" xlink:title=" ">
<polygon fill="white" stroke="black" points="128.5,-798.5 128.5,-817.5 220.5,-817.5 220.5,-798.5 128.5,-798.5"/>
<text text-anchor="middle" x="174.5" y="-805.5" font-family="Helvetica,sans-Serif" font-size="10.00">func_80041D34</text>
</a>
</g>
</g>
<!-- Node1&#45;&gt;Node2 -->
<g id="edge1" class="edge">
<title>Node1&#45;&gt;Node2</title>
<path fill="none" stroke="midnightblue" d="M47.7,-247.56C52.44,-310.35 80.92,-664.09 128,-760 133.95,-772.12 144.03,-783.23 153.19,-791.7"/>
<polygon fill="midnightblue" stroke="midnightblue" points="151.05,-794.48 160.88,-798.43 155.66,-789.21 151.05,-794.48"/>
</g>
<!-- Node7 -->
<g id="node4" class="node">
<title>Node7</title>
<g id="a_node4"><a xlink:href="code__80057C60_8c.html#a3ddea993374238b2d2a8b009ae479f88" target="_top" xlink:title=" ">
<polygon fill="white" stroke="black" points="274,-772.5 274,-791.5 365,-791.5 365,-772.5 274,-772.5"/>
<text text-anchor="middle" x="319.5" y="-779.5" font-family="Helvetica,sans-Serif" font-size="10.00">func_80059820</text>
</a>
</g>
</g>
<!-- Node1&#45;&gt;Node7 -->
<g id="edge3" class="edge">
<title>Node1&#45;&gt;Node7</title>
<path fill="none" stroke="midnightblue" d="M46.96,-247.62C47.19,-293.71 52.61,-495.44 128,-635 166.39,-706.06 187.75,-721.43 257,-763 260.46,-765.08 264.16,-766.94 267.98,-768.62"/>
<polygon fill="midnightblue" stroke="midnightblue" points="267.02,-772.01 277.61,-772.41 269.58,-765.49 267.02,-772.01"/>
</g>
<!-- Node8 -->
<g id="node5" class="node">
<title>Node8</title>
<g id="a_node5"><a xlink:href="code__80057C60_8c.html#a48f7fc1ba7acccec2d7b6e0a59f65dc5" target="_top" xlink:title=" ">
<polygon fill="white" stroke="black" points="128.5,-518.5 128.5,-537.5 220.5,-537.5 220.5,-518.5 128.5,-518.5"/>
<text text-anchor="middle" x="174.5" y="-525.5" font-family="Helvetica,sans-Serif" font-size="10.00">func_80059D00</text>
</a>
</g>
</g>
<!-- Node1&#45;&gt;Node8 -->
<g id="edge4" class="edge">
<title>Node1&#45;&gt;Node8</title>
<path fill="none" stroke="midnightblue" d="M51.21,-247.65C69.29,-289.1 140.58,-452.54 165.14,-508.83"/>
<polygon fill="midnightblue" stroke="midnightblue" points="162.07,-510.55 169.28,-518.31 168.49,-507.75 162.07,-510.55"/>
</g>
<!-- Node24 -->
<g id="node8" class="node">
<title>Node24</title>
<g id="a_node8"><a xlink:href="code__80057C60_8c.html#a3de7d81d0ab030980ab3b2ea5bcf901e" target="_top" xlink:title=" ">
<polygon fill="white" stroke="black" points="273.5,-734.5 273.5,-753.5 365.5,-753.5 365.5,-734.5 273.5,-734.5"/>
<text text-anchor="middle" x="319.5" y="-741.5" font-family="Helvetica,sans-Serif" font-size="10.00">func_8005A74C</text>
</a>
</g>
</g>
<!-- Node1&#45;&gt;Node24 -->
<g id="edge48" class="edge">
<title>Node1&#45;&gt;Node24</title>
<path fill="none" stroke="midnightblue" d="M48.19,-247.54C53.31,-286.42 75.6,-436.2 128,-547 169.77,-635.32 177.58,-668.1 257,-725 259.68,-726.92 262.56,-728.65 265.56,-730.21"/>
<polygon fill="midnightblue" stroke="midnightblue" points="264.26,-733.46 274.82,-734.38 267.14,-727.08 264.26,-733.46"/>
</g>
<!-- Node119 -->
<g id="node17" class="node">
<title>Node119</title>
<g id="a_node17"><a xlink:href="code__80071F00_8c.html#ab19d51fb1288d16e729e88ab4b9dcf9f" target="_top" xlink:title=" ">
<polygon fill="white" stroke="red" points="418,-281.5 418,-300.5 510,-300.5 510,-281.5 418,-281.5"/>
<text text-anchor="middle" x="464" y="-288.5" font-family="Helvetica,sans-Serif" font-size="10.00">func_8007C2F8</text>
</a>
</g>
</g>
<!-- Node1&#45;&gt;Node119 -->
<g id="edge56" class="edge">
<title>Node1&#45;&gt;Node119</title>
<path fill="none" stroke="midnightblue" d="M83.09,-247.52C97.04,-250.92 113.18,-254.52 128,-257 225.69,-273.34 340.82,-282.95 407.5,-287.57"/>
<polygon fill="midnightblue" stroke="midnightblue" points="407.56,-291.09 417.78,-288.27 408.04,-284.1 407.56,-291.09"/>
</g>
<!-- Node338 -->
<g id="node38" class="node">
<title>Node338</title>
<g id="a_node38"><a xlink:href="code__80071F00_8c.html#a65833b533abd5f0cd07d07217d923e07" target="_top" xlink:title=" ">
<polygon fill="white" stroke="red" points="273.5,-304.5 273.5,-323.5 365.5,-323.5 365.5,-304.5 273.5,-304.5"/>
<text text-anchor="middle" x="319.5" y="-311.5" font-family="Helvetica,sans-Serif" font-size="10.00">func_80078C70</text>
</a>
</g>
</g>
<!-- Node1&#45;&gt;Node338 -->
<g id="edge55" class="edge">
<title>Node1&#45;&gt;Node338</title>
<path fill="none" stroke="midnightblue" d="M58.19,-247.54C73.07,-259.62 100.67,-280.08 128,-290 171.72,-305.86 224.38,-311.56 263.24,-313.47"/>
<polygon fill="midnightblue" stroke="midnightblue" points="263.17,-316.97 273.31,-313.89 263.46,-309.97 263.17,-316.97"/>
</g>
<!-- Node407 -->
<g id="node41" class="node">
<title>Node407</title>
<g id="a_node41"><a xlink:href="code__80057C60_8c.html#ac7241ba30ac3738bb047aad9cc4e8d8c" target="_top" xlink:title=" ">
<polygon fill="white" stroke="black" points="128.5,-228.5 128.5,-247.5 220.5,-247.5 220.5,-228.5 128.5,-228.5"/>
<text text-anchor="middle" x="174.5" y="-235.5" font-family="Helvetica,sans-Serif" font-size="10.00">func_8005C728</text>
</a>
</g>
</g>
<!-- Node1&#45;&gt;Node407 -->
<g id="edge49" class="edge">
<title>Node1&#45;&gt;Node407</title>
<path fill="none" stroke="midnightblue" d="M92.31,-238C100.58,-238 109.29,-238 117.81,-238"/>
<polygon fill="midnightblue" stroke="midnightblue" points="118.08,-241.5 128.08,-238 118.08,-234.5 118.08,-241.5"/>
</g>
<!-- Node410 -->
<g id="node44" class="node">
<title>Node410</title>
<g id="a_node44"><a xlink:href="code__80071F00_8c.html#a96f53f9eb78572049b82868d9ed9e893" target="_top" xlink:title=" ">
<polygon fill="white" stroke="red" points="129,-190.5 129,-209.5 220,-209.5 220,-190.5 129,-190.5"/>
<text text-anchor="middle" x="174.5" y="-197.5" font-family="Helvetica,sans-Serif" font-size="10.00">func_80077640</text>
</a>
</g>
</g>
<!-- Node1&#45;&gt;Node410 -->
<g id="edge52" class="edge">
<title>Node1&#45;&gt;Node410</title>
<path fill="none" stroke="midnightblue" d="M78.92,-228.41C94.95,-223.6 114.57,-217.7 131.78,-212.53"/>
<polygon fill="midnightblue" stroke="midnightblue" points="133.02,-215.81 141.59,-209.59 131,-209.11 133.02,-215.81"/>
</g>
<!-- Node415 -->
<g id="node46" class="node">
<title>Node415</title>
<g id="a_node46"><a xlink:href="code__80071F00_8c.html#a2204b3133e4191e5d50b0b0bee4a53c9" target="_top" xlink:title=" ">
<polygon fill="white" stroke="red" points="129,-152.5 129,-171.5 220,-171.5 220,-152.5 129,-152.5"/>
<text text-anchor="middle" x="174.5" y="-159.5" font-family="Helvetica,sans-Serif" font-size="10.00">func_80086604</text>
</a>
</g>
</g>
<!-- Node1&#45;&gt;Node415 -->
<g id="edge57" class="edge">
<title>Node1&#45;&gt;Node415</title>
<path fill="none" stroke="midnightblue" d="M58.81,-228.44C74.12,-216.35 101.96,-195.38 128,-181 131.26,-179.2 134.74,-177.46 138.25,-175.81"/>
<polygon fill="midnightblue" stroke="midnightblue" points="139.81,-178.95 147.53,-171.7 136.97,-172.55 139.81,-178.95"/>
</g>
<!-- Node420 -->
<g id="node47" class="node">
<title>Node420</title>
<g id="a_node47"><a xlink:href="code__80071F00_8c.html#a50b71551bcbb85b27502982b2928517e" target="_top" xlink:title=" ">
<polygon fill="white" stroke="red" points="128.5,-114.5 128.5,-133.5 220.5,-133.5 220.5,-114.5 128.5,-114.5"/>
<text text-anchor="middle" x="174.5" y="-121.5" font-family="Helvetica,sans-Serif" font-size="10.00">func_80086D80</text>
</a>
</g>
</g>
<!-- Node1&#45;&gt;Node420 -->
<g id="edge58" class="edge">
<title>Node1&#45;&gt;Node420</title>
<path fill="none" stroke="midnightblue" d="M52.97,-228.34C65.03,-209.56 94.03,-167.78 128,-143 130.33,-141.3 132.84,-139.71 135.44,-138.25"/>
<polygon fill="midnightblue" stroke="midnightblue" points="137.12,-141.32 144.49,-133.71 133.98,-135.06 137.12,-141.32"/>
</g>
<!-- Node427 -->
<g id="node48" class="node">
<title>Node427</title>
<g id="a_node48"><a xlink:href="code__8008C1D0_8c.html#aa49f6b2af30d5848ad5521aa986e4c68" target="_top" xlink:title=" ">
<polygon fill="white" stroke="black" points="128,-76.5 128,-95.5 221,-95.5 221,-76.5 128,-76.5"/>
<text text-anchor="middle" x="174.5" y="-83.5" font-family="Helvetica,sans-Serif" font-size="10.00">func_8008C1D8</text>
</a>
</g>
</g>
<!-- Node1&#45;&gt;Node427 -->
<g id="edge59" class="edge">
<title>Node1&#45;&gt;Node427</title>
<path fill="none" stroke="midnightblue" d="M50.49,-228.21C59.57,-204.06 86.16,-140.94 128,-105 129.93,-103.34 132.03,-101.81 134.23,-100.4"/>
<polygon fill="midnightblue" stroke="midnightblue" points="135.98,-103.43 143.07,-95.55 132.62,-97.29 135.98,-103.43"/>
</g>
<!-- Node428 -->
<g id="node49" class="node">
<title>Node428</title>
<g id="a_node49"><a xlink:href="code__8008C1D0_8c.html#aa9f387d9b3a1deca5df00a6a9353ddae" target="_top" xlink:title=" ">
<polygon fill="white" stroke="black" points="128.5,-38.5 128.5,-57.5 220.5,-57.5 220.5,-38.5 128.5,-38.5"/>
<text text-anchor="middle" x="174.5" y="-45.5" font-family="Helvetica,sans-Serif" font-size="10.00">func_8008C1E0</text>
</a>
</g>
</g>
<!-- Node1&#45;&gt;Node428 -->
<g id="edge60" class="edge">
<title>Node1&#45;&gt;Node428</title>
<path fill="none" stroke="midnightblue" d="M48.98,-228.44C55.34,-199.99 77.86,-114.85 128,-67 129.49,-65.58 131.09,-64.26 132.79,-63.04"/>
<polygon fill="midnightblue" stroke="midnightblue" points="135.01,-65.78 141.8,-57.65 131.42,-59.78 135.01,-65.78"/>
</g>
<!-- Node429 -->
<g id="node50" class="node">
<title>Node429</title>
<g id="a_node50"><a xlink:href="code__8008C1D0_8c.html#a05a53cb305ff1e50e984272b7880aa20" target="_top" xlink:title=" ">
<polygon fill="white" stroke="black" points="128.5,-0.5 128.5,-19.5 220.5,-19.5 220.5,-0.5 128.5,-0.5"/>
<text text-anchor="middle" x="174.5" y="-7.5" font-family="Helvetica,sans-Serif" font-size="10.00">func_8008C204</text>
</a>
</g>
</g>
<!-- Node1&#45;&gt;Node429 -->
<g id="edge61" class="edge">
<title>Node1&#45;&gt;Node429</title>
<path fill="none" stroke="midnightblue" d="M48.07,-228.25C52.16,-195.61 69.61,-88.92 128,-29 129.39,-27.57 130.9,-26.25 132.5,-25.02"/>
<polygon fill="midnightblue" stroke="midnightblue" points="134.47,-27.92 141.1,-19.65 130.76,-21.98 134.47,-27.92"/>
</g>
<!-- Node3 -->
<g id="node3" class="node">
<title>Node3</title>
<g id="a_node3"><a xlink:href="math__util__2_8c.html#ae90ab28177e8cb3819dde7504ed51cee" target="_top" xlink:title=" ">
<polygon fill="white" stroke="red" points="291.5,-810.5 291.5,-829.5 347.5,-829.5 347.5,-810.5 291.5,-810.5"/>
<text text-anchor="middle" x="319.5" y="-817.5" font-family="Helvetica,sans-Serif" font-size="10.00">guOrtho</text>
</a>
</g>
</g>
<!-- Node2&#45;&gt;Node3 -->
<g id="edge2" class="edge">
<title>Node2&#45;&gt;Node3</title>
<path fill="none" stroke="midnightblue" d="M220.75,-811.8C240.26,-813.43 262.81,-815.33 281.33,-816.88"/>
<polygon fill="midnightblue" stroke="midnightblue" points="281.18,-820.38 291.43,-817.73 281.76,-813.4 281.18,-820.38"/>
</g>
<!-- Node8&#45;&gt;Node7 -->
<g id="edge5" class="edge">
<title>Node8&#45;&gt;Node7</title>
<path fill="none" stroke="midnightblue" d="M175.88,-537.67C177.8,-573.17 189.31,-697.58 257,-763 259.37,-765.29 262.01,-767.31 264.83,-769.08"/>
<polygon fill="midnightblue" stroke="midnightblue" points="263.23,-772.19 273.72,-773.7 266.46,-765.98 263.23,-772.19"/>
</g>
<!-- Node9 -->
<g id="node6" class="node">
<title>Node9</title>
<g id="a_node6"><a xlink:href="code__80057C60_8c.html#ae344d1674557788ab398ca89c91551d9" target="_top" xlink:title=" ">
<polygon fill="white" stroke="red" points="273.5,-380.5 273.5,-399.5 365.5,-399.5 365.5,-380.5 273.5,-380.5"/>
<text text-anchor="middle" x="319.5" y="-387.5" font-family="Helvetica,sans-Serif" font-size="10.00">func_8005A380</text>
</a>
</g>
</g>
<!-- Node8&#45;&gt;Node9 -->
<g id="edge6" class="edge">
<title>Node8&#45;&gt;Node9</title>
<path fill="none" stroke="midnightblue" d="M179.47,-518.48C189.24,-496.15 216.67,-440.05 257,-410 260.2,-407.62 263.7,-405.51 267.35,-403.65"/>
<polygon fill="midnightblue" stroke="midnightblue" points="268.94,-406.77 276.65,-399.5 266.09,-400.37 268.94,-406.77"/>
</g>
<!-- Node20 -->
<g id="node7" class="node">
<title>Node20</title>
<g id="a_node7"><a xlink:href="code__80057C60_8c.html#a2cfb2838275962a1a830fe471f0f7eff" target="_top" xlink:title=" ">
<polygon fill="white" stroke="red" points="273.5,-342.5 273.5,-361.5 365.5,-361.5 365.5,-342.5 273.5,-342.5"/>
<text text-anchor="middle" x="319.5" y="-349.5" font-family="Helvetica,sans-Serif" font-size="10.00">func_8005A3C0</text>
</a>
</g>
</g>
<!-- Node8&#45;&gt;Node20 -->
<g id="edge7" class="edge">
<title>Node8&#45;&gt;Node20</title>
<path fill="none" stroke="midnightblue" d="M177.75,-518.23C184.59,-490.75 207.74,-412.14 257,-371 259.25,-369.12 261.69,-367.43 264.25,-365.9"/>
<polygon fill="midnightblue" stroke="midnightblue" points="265.98,-368.95 273.34,-361.33 262.83,-362.69 265.98,-368.95"/>
</g>
<!-- Node8&#45;&gt;Node24 -->
<g id="edge8" class="edge">
<title>Node8&#45;&gt;Node24</title>
<path fill="none" stroke="midnightblue" d="M179.23,-537.65C194.2,-576.3 249.44,-718.11 257,-725 259.28,-727.08 261.78,-728.93 264.44,-730.58"/>
<polygon fill="midnightblue" stroke="midnightblue" points="262.83,-733.69 273.32,-735.18 266.06,-727.48 262.83,-733.69"/>
</g>
<!-- Node315 -->
<g id="node32" class="node">
<title>Node315</title>
<g id="a_node32"><a xlink:href="code__80057C60_8c.html#a3685efdd6eaf1e041e7ca4a1fbb8456b" target="_top" xlink:title=" ">
<polygon fill="white" stroke="red" points="273.5,-696.5 273.5,-715.5 365.5,-715.5 365.5,-696.5 273.5,-696.5"/>
<text text-anchor="middle" x="319.5" y="-703.5" font-family="Helvetica,sans-Serif" font-size="10.00">func_8005A99C</text>
</a>
</g>
</g>
<!-- Node8&#45;&gt;Node315 -->
<g id="edge39" class="edge">
<title>Node8&#45;&gt;Node315</title>
<path fill="none" stroke="midnightblue" d="M177.71,-537.9C184.45,-565.72 207.35,-645.32 257,-687 259.25,-688.89 261.68,-690.59 264.24,-692.12"/>
<polygon fill="midnightblue" stroke="midnightblue" points="262.81,-695.32 273.32,-696.7 265.97,-689.07 262.81,-695.32"/>
</g>
<!-- Node317 -->
<g id="node33" class="node">
<title>Node317</title>
<g id="a_node33"><a xlink:href="code__80057C60_8c.html#ac7d2072332b0e70b5e5f60abecbbb56c" target="_top" xlink:title=" ">
<polygon fill="white" stroke="red" points="273.5,-658.5 273.5,-677.5 365.5,-677.5 365.5,-658.5 273.5,-658.5"/>
<text text-anchor="middle" x="319.5" y="-665.5" font-family="Helvetica,sans-Serif" font-size="10.00">func_8005B914</text>
</a>
</g>
</g>
<!-- Node8&#45;&gt;Node317 -->
<g id="edge40" class="edge">
<title>Node8&#45;&gt;Node317</title>
<path fill="none" stroke="midnightblue" d="M179.37,-537.81C188.93,-560.79 215.93,-618.49 257,-649 259.52,-650.87 262.23,-652.56 265.05,-654.09"/>
<polygon fill="midnightblue" stroke="midnightblue" points="263.83,-657.38 274.38,-658.42 266.78,-651.03 263.83,-657.38"/>
</g>
<!-- Node325 -->
<g id="node34" class="node">
<title>Node325</title>
<g id="a_node34"><a xlink:href="code__80057C60_8c.html#ad35a7618d6bfabbac583934ec81eaa2a" target="_top" xlink:title=" ">
<polygon fill="white" stroke="black" points="273.5,-620.5 273.5,-639.5 365.5,-639.5 365.5,-620.5 273.5,-620.5"/>
<text text-anchor="middle" x="319.5" y="-627.5" font-family="Helvetica,sans-Serif" font-size="10.00">func_8005C360</text>
</a>
</g>
</g>
<!-- Node8&#45;&gt;Node325 -->
<g id="edge41" class="edge">
<title>Node8&#45;&gt;Node325</title>
<path fill="none" stroke="midnightblue" d="M182.42,-537.73C195.21,-554.99 224.23,-591.04 257,-611 260.44,-613.1 264.14,-614.98 267.95,-616.67"/>
<polygon fill="midnightblue" stroke="midnightblue" points="266.98,-620.05 277.56,-620.48 269.55,-613.54 266.98,-620.05"/>
</g>
<!-- Node326 -->
<g id="node35" class="node">
<title>Node326</title>
<g id="a_node35"><a xlink:href="code__80057C60_8c.html#aa18f53a6e876c76902f2d5c954e67824" target="_top" xlink:title=" ">
<polygon fill="white" stroke="red" points="273,-582.5 273,-601.5 366,-601.5 366,-582.5 273,-582.5"/>
<text text-anchor="middle" x="319.5" y="-589.5" font-family="Helvetica,sans-Serif" font-size="10.00">func_8005D0FC</text>
</a>
</g>
</g>
<!-- Node8&#45;&gt;Node326 -->
<g id="edge42" class="edge">
<title>Node8&#45;&gt;Node326</title>
<path fill="none" stroke="midnightblue" d="M190.65,-537.6C206.67,-547.46 232.9,-562.75 257,-573 262.34,-575.27 268.04,-577.4 273.73,-579.35"/>
<polygon fill="midnightblue" stroke="midnightblue" points="272.66,-582.68 283.25,-582.47 274.84,-576.03 272.66,-582.68"/>
</g>
<!-- Node328 -->
<g id="node36" class="node">
<title>Node328</title>
<g id="a_node36"><a xlink:href="code__80057C60_8c.html#a70e29203d625213975ed93ed4a2e3bb6" target="_top" xlink:title=" ">
<polygon fill="white" stroke="black" points="273.5,-544.5 273.5,-563.5 365.5,-563.5 365.5,-544.5 273.5,-544.5"/>
<text text-anchor="middle" x="319.5" y="-551.5" font-family="Helvetica,sans-Serif" font-size="10.00">func_8005D1F4</text>
</a>
</g>
</g>
<!-- Node8&#45;&gt;Node328 -->
<g id="edge43" class="edge">
<title>Node8&#45;&gt;Node328</title>
<path fill="none" stroke="midnightblue" d="M220.75,-536.23C234.18,-538.67 249.05,-541.37 263.05,-543.92"/>
<polygon fill="midnightblue" stroke="midnightblue" points="262.59,-547.39 273.06,-545.74 263.84,-540.51 262.59,-547.39"/>
</g>
<!-- Node329 -->
<g id="node37" class="node">
<title>Node329</title>
<g id="a_node37"><a xlink:href="code__80071F00_8c.html#af4fa2f756053d4e6bfe36e378c24a3b6" target="_top" xlink:title=" ">
<polygon fill="white" stroke="red" points="273.5,-506.5 273.5,-525.5 365.5,-525.5 365.5,-506.5 273.5,-506.5"/>
<text text-anchor="middle" x="319.5" y="-513.5" font-family="Helvetica,sans-Serif" font-size="10.00">func_800744CC</text>
</a>
</g>
</g>
<!-- Node8&#45;&gt;Node329 -->
<g id="edge44" class="edge">
<title>Node8&#45;&gt;Node329</title>
<path fill="none" stroke="midnightblue" d="M220.75,-524.2C234.18,-523.08 249.05,-521.83 263.05,-520.65"/>
<polygon fill="midnightblue" stroke="midnightblue" points="263.39,-524.14 273.06,-519.81 262.8,-517.16 263.39,-524.14"/>
</g>
<!-- Node8&#45;&gt;Node338 -->
<g id="edge45" class="edge">
<title>Node8&#45;&gt;Node338</title>
<path fill="none" stroke="midnightblue" d="M176.67,-518.24C180.97,-486.59 198.87,-385.79 257,-333 259.28,-330.93 261.79,-329.08 264.45,-327.43"/>
<polygon fill="midnightblue" stroke="midnightblue" points="266.06,-330.54 273.34,-322.83 262.85,-324.32 266.06,-330.54"/>
</g>
<!-- Node350 -->
<g id="node39" class="node">
<title>Node350</title>
<g id="a_node39"><a xlink:href="code__80071F00_8c.html#ade67b778933121155720adcbf8c66b47" target="_top" xlink:title=" ">
<polygon fill="white" stroke="red" points="273.5,-468.5 273.5,-487.5 365.5,-487.5 365.5,-468.5 273.5,-468.5"/>
<text text-anchor="middle" x="319.5" y="-475.5" font-family="Helvetica,sans-Serif" font-size="10.00">func_8007AA44</text>
</a>
</g>
</g>
<!-- Node8&#45;&gt;Node350 -->
<g id="edge46" class="edge">
<title>Node8&#45;&gt;Node350</title>
<path fill="none" stroke="midnightblue" d="M199.6,-518.37C215.75,-512.03 237.53,-503.7 257,-497 263.17,-494.88 269.73,-492.73 276.17,-490.69"/>
<polygon fill="midnightblue" stroke="midnightblue" points="277.64,-493.9 286.14,-487.57 275.55,-487.22 277.64,-493.9"/>
</g>
<!-- Node406 -->
<g id="node40" class="node">
<title>Node406</title>
<g id="a_node40"><a xlink:href="code__80057C60_8c.html#a8f044ee045b3cbcaa18cf1544d36b971" target="_top" xlink:title=" ">
<polygon fill="white" stroke="black" points="257,-419 257,-449 382,-449 382,-419 257,-419"/>
<text text-anchor="start" x="265" y="-437" font-family="Helvetica,sans-Serif" font-size="10.00">randomize_seed_from</text>
<text text-anchor="middle" x="319.5" y="-426" font-family="Helvetica,sans-Serif" font-size="10.00">_controller</text>
</a>
</g>
</g>
<!-- Node8&#45;&gt;Node406 -->
<g id="edge47" class="edge">
<title>Node8&#45;&gt;Node406</title>
<path fill="none" stroke="midnightblue" d="M184.76,-518.42C199.12,-503.98 228.13,-476.47 257,-459 260.2,-457.07 263.57,-455.22 267.02,-453.47"/>
<polygon fill="midnightblue" stroke="midnightblue" points="268.75,-456.53 276.28,-449.08 265.75,-450.2 268.75,-456.53"/>
</g>
<!-- Node25 -->
<g id="node9" class="node">
<title>Node25</title>
<g id="a_node9"><a xlink:href="code__80071F00_8c.html#aa7ae387b802d319e5090d32a5b9b1f04" target="_top" xlink:title=" ">
<polygon fill="white" stroke="red" points="418.5,-943.5 418.5,-962.5 509.5,-962.5 509.5,-943.5 418.5,-943.5"/>
<text text-anchor="middle" x="464" y="-950.5" font-family="Helvetica,sans-Serif" font-size="10.00">func_80074EE8</text>
</a>
</g>
</g>
<!-- Node24&#45;&gt;Node25 -->
<g id="edge9" class="edge">
<title>Node24&#45;&gt;Node25</title>
<path fill="none" stroke="midnightblue" d="M365.5,-751.65C371.7,-754.37 377.48,-758.05 382,-763 434.33,-820.39 368.6,-874.07 418,-934 418.98,-935.19 420.04,-936.3 421.18,-937.34"/>
<polygon fill="midnightblue" stroke="midnightblue" points="419.33,-940.32 429.5,-943.3 423.4,-934.63 419.33,-940.32"/>
</g>
<!-- Node43 -->
<g id="node11" class="node">
<title>Node43</title>
<g id="a_node11"><a xlink:href="code__80071F00_8c.html#a356e1db2949ee9bdc6ab9197322b5fe2" target="_top" xlink:title=" ">
<polygon fill="white" stroke="red" points="418.5,-905.5 418.5,-924.5 509.5,-924.5 509.5,-905.5 418.5,-905.5"/>
<text text-anchor="middle" x="464" y="-912.5" font-family="Helvetica,sans-Serif" font-size="10.00">func_80075838</text>
</a>
</g>
</g>
<!-- Node24&#45;&gt;Node43 -->
<g id="edge11" class="edge">
<title>Node24&#45;&gt;Node43</title>
<path fill="none" stroke="midnightblue" d="M365.57,-752.01C371.69,-754.69 377.42,-758.26 382,-763 424.53,-807.06 377.72,-849.87 418,-896 419.15,-897.32 420.41,-898.55 421.75,-899.69"/>
<polygon fill="midnightblue" stroke="midnightblue" points="419.9,-902.67 430.14,-905.38 423.83,-896.87 419.9,-902.67"/>
</g>
<!-- Node55 -->
<g id="node12" class="node">
<title>Node55</title>
<g id="a_node12"><a xlink:href="code__80071F00_8c.html#a69e99f6fc399a5fc7944cc884060d507" target="_top" xlink:title=" ">
<polygon fill="white" stroke="red" points="418,-867.5 418,-886.5 510,-886.5 510,-867.5 418,-867.5"/>
<text text-anchor="middle" x="464" y="-874.5" font-family="Helvetica,sans-Serif" font-size="10.00">func_80075CA8</text>
</a>
</g>
</g>
<!-- Node24&#45;&gt;Node55 -->
<g id="edge13" class="edge">
<title>Node24&#45;&gt;Node55</title>
<path fill="none" stroke="midnightblue" d="M365.79,-752.69C371.73,-755.28 377.36,-758.64 382,-763 414.91,-793.91 386.67,-825.48 418,-858 419.37,-859.42 420.86,-860.74 422.44,-861.96"/>
<polygon fill="midnightblue" stroke="midnightblue" points="420.6,-864.94 430.92,-867.33 424.34,-859.03 420.6,-864.94"/>
</g>
<!-- Node58 -->
<g id="node13" class="node">
<title>Node58</title>
<g id="a_node13"><a xlink:href="code__80071F00_8c.html#ad1053670c5f6f091b5cd4baed1402a64" target="_top" xlink:title=" ">
<polygon fill="white" stroke="red" points="418,-829.5 418,-848.5 510,-848.5 510,-829.5 418,-829.5"/>
<text text-anchor="middle" x="464" y="-836.5" font-family="Helvetica,sans-Serif" font-size="10.00">func_80076B84</text>
</a>
</g>
</g>
<!-- Node24&#45;&gt;Node58 -->
<g id="edge15" class="edge">
<title>Node24&#45;&gt;Node58</title>
<path fill="none" stroke="midnightblue" d="M365.04,-753.57C371.09,-756.04 376.94,-759.13 382,-763 405.79,-781.22 395.15,-800.62 418,-820 419.79,-821.52 421.71,-822.93 423.72,-824.23"/>
<polygon fill="midnightblue" stroke="midnightblue" points="422.51,-827.56 432.95,-829.34 425.9,-821.44 422.51,-827.56"/>
</g>
<!-- Node101 -->
<g id="node14" class="node">
<title>Node101</title>
<g id="a_node14"><a xlink:href="code__80071F00_8c.html#a8d2c6eb19e31d24ddd0df7f981ff05d6" target="_top" xlink:title=" ">
<polygon fill="white" stroke="red" points="418,-791.5 418,-810.5 510,-810.5 510,-791.5 418,-791.5"/>
<text text-anchor="middle" x="464" y="-798.5" font-family="Helvetica,sans-Serif" font-size="10.00">func_80076F2C</text>
</a>
</g>
</g>
<!-- Node24&#45;&gt;Node101 -->
<g id="edge17" class="edge">
<title>Node24&#45;&gt;Node101</title>
<path fill="none" stroke="midnightblue" d="M355.38,-753.54C364.18,-756.28 373.53,-759.49 382,-763 398.71,-769.92 401.65,-774.25 418,-782 421.79,-783.8 425.8,-785.61 429.8,-787.37"/>
<polygon fill="midnightblue" stroke="midnightblue" points="428.44,-790.59 439.01,-791.32 431.2,-784.16 428.44,-790.59"/>
</g>
<!-- Node105 -->
<g id="node15" class="node">
<title>Node105</title>
<g id="a_node15"><a xlink:href="code__80071F00_8c.html#a4198936268f8da7ea00d73657b18b691" target="_top" xlink:title=" ">
<polygon fill="white" stroke="red" points="418,-753.5 418,-772.5 510,-772.5 510,-753.5 418,-753.5"/>
<text text-anchor="middle" x="464" y="-760.5" font-family="Helvetica,sans-Serif" font-size="10.00">func_80077C9C</text>
</a>
</g>
</g>
<!-- Node24&#45;&gt;Node105 -->
<g id="edge19" class="edge">
<title>Node24&#45;&gt;Node105</title>
<path fill="none" stroke="midnightblue" d="M365.59,-750.01C378.97,-751.8 393.79,-753.77 407.74,-755.63"/>
<polygon fill="midnightblue" stroke="midnightblue" points="407.34,-759.11 417.72,-756.96 408.27,-752.17 407.34,-759.11"/>
</g>
<!-- Node112 -->
<g id="node16" class="node">
<title>Node112</title>
<g id="a_node16"><a xlink:href="code__80071F00_8c.html#a50084315197d7528db75a51984120323" target="_top" xlink:title=" ">
<polygon fill="white" stroke="red" points="418.5,-715.5 418.5,-734.5 509.5,-734.5 509.5,-715.5 418.5,-715.5"/>
<text text-anchor="middle" x="464" y="-722.5" font-family="Helvetica,sans-Serif" font-size="10.00">func_80078838</text>
</a>
</g>
</g>
<!-- Node24&#45;&gt;Node112 -->
<g id="edge21" class="edge">
<title>Node24&#45;&gt;Node112</title>
<path fill="none" stroke="midnightblue" d="M365.59,-737.99C379.1,-736.19 394.08,-734.19 408.15,-732.31"/>
<polygon fill="midnightblue" stroke="midnightblue" points="408.76,-735.76 418.21,-730.97 407.83,-728.83 408.76,-735.76"/>
</g>
<!-- Node24&#45;&gt;Node119 -->
<g id="edge22" class="edge">
<title>Node24&#45;&gt;Node119</title>
<path fill="none" stroke="midnightblue" d="M365.72,-736.94C371.97,-734.15 377.71,-730.3 382,-725 438.02,-655.81 375.33,-404.13 418,-326 422.14,-318.43 428.67,-311.95 435.5,-306.71"/>
<polygon fill="midnightblue" stroke="midnightblue" points="437.91,-309.3 444.14,-300.73 433.92,-303.54 437.91,-309.3"/>
</g>
<!-- Node135 -->
<g id="node18" class="node">
<title>Node135</title>
<g id="a_node18"><a xlink:href="code__80071F00_8c.html#a1057ac2c733aa5e569df45fa4e28d3ef" target="_top" xlink:title=" ">
<polygon fill="white" stroke="red" points="418,-677.5 418,-696.5 510,-696.5 510,-677.5 418,-677.5"/>
<text text-anchor="middle" x="464" y="-684.5" font-family="Helvetica,sans-Serif" font-size="10.00">func_8007C340</text>
</a>
</g>
</g>
<!-- Node24&#45;&gt;Node135 -->
<g id="edge23" class="edge">
<title>Node24&#45;&gt;Node135</title>
<path fill="none" stroke="midnightblue" d="M355.38,-734.46C364.18,-731.72 373.53,-728.51 382,-725 398.71,-718.08 401.65,-713.75 418,-706 421.79,-704.2 425.8,-702.39 429.8,-700.63"/>
<polygon fill="midnightblue" stroke="midnightblue" points="431.2,-703.84 439.01,-696.68 428.44,-697.41 431.2,-703.84"/>
</g>
<!-- Node170 -->
<g id="node19" class="node">
<title>Node170</title>
<g id="a_node19"><a xlink:href="code__80071F00_8c.html#ae733a40e5e6dab7488643eb6d316b0c0" target="_top" xlink:title=" ">
<polygon fill="white" stroke="red" points="418,-639.5 418,-658.5 510,-658.5 510,-639.5 418,-639.5"/>
<text text-anchor="middle" x="464" y="-646.5" font-family="Helvetica,sans-Serif" font-size="10.00">func_8007E1AC</text>
</a>
</g>
</g>
<!-- Node24&#45;&gt;Node170 -->
<g id="edge24" class="edge">
<title>Node24&#45;&gt;Node170</title>
<path fill="none" stroke="midnightblue" d="M365.04,-734.43C371.09,-731.96 376.94,-728.87 382,-725 405.79,-706.78 395.15,-687.38 418,-668 419.79,-666.48 421.71,-665.07 423.72,-663.77"/>
<polygon fill="midnightblue" stroke="midnightblue" points="425.9,-666.56 432.95,-658.66 422.51,-660.44 425.9,-666.56"/>
</g>
<!-- Node180 -->
<g id="node20" class="node">
<title>Node180</title>
<g id="a_node20"><a xlink:href="code__80071F00_8c.html#ac8b268e6a216ed165f6d9ba102367fd7" target="_top" xlink:title=" ">
<polygon fill="white" stroke="red" points="418,-601.5 418,-620.5 510,-620.5 510,-601.5 418,-601.5"/>
<text text-anchor="middle" x="464" y="-608.5" font-family="Helvetica,sans-Serif" font-size="10.00">func_8007E4C4</text>
</a>
</g>
</g>
<!-- Node24&#45;&gt;Node180 -->
<g id="edge25" class="edge">
<title>Node24&#45;&gt;Node180</title>
<path fill="none" stroke="midnightblue" d="M365.79,-735.31C371.73,-732.72 377.36,-729.36 382,-725 414.91,-694.09 386.67,-662.52 418,-630 419.37,-628.58 420.86,-627.26 422.44,-626.04"/>
<polygon fill="midnightblue" stroke="midnightblue" points="424.34,-628.97 430.92,-620.67 420.6,-623.06 424.34,-628.97"/>
</g>
<!-- Node184 -->
<g id="node21" class="node">
<title>Node184</title>
<g id="a_node21"><a xlink:href="code__80071F00_8c.html#abe9a0641c98981ece62c0741069f7528" target="_top" xlink:title=" ">
<polygon fill="white" stroke="black" points="418.5,-563.5 418.5,-582.5 509.5,-582.5 509.5,-563.5 418.5,-563.5"/>
<text text-anchor="middle" x="464" y="-570.5" font-family="Helvetica,sans-Serif" font-size="10.00">func_80081208</text>
</a>
</g>
</g>
<!-- Node24&#45;&gt;Node184 -->
<g id="edge26" class="edge">
<title>Node24&#45;&gt;Node184</title>
<path fill="none" stroke="midnightblue" d="M365.57,-735.99C371.69,-733.31 377.42,-729.74 382,-725 424.53,-680.94 377.72,-638.13 418,-592 419.15,-590.68 420.41,-589.45 421.75,-588.31"/>
<polygon fill="midnightblue" stroke="midnightblue" points="423.83,-591.13 430.14,-582.62 419.9,-585.33 423.83,-591.13"/>
</g>
<!-- Node185 -->
<g id="node22" class="node">
<title>Node185</title>
<g id="a_node22"><a xlink:href="code__80071F00_8c.html#abeb96b20ac8af613fd90648c078e54e7" target="_top" xlink:title=" ">
<polygon fill="white" stroke="red" points="418,-525.5 418,-544.5 510,-544.5 510,-525.5 418,-525.5"/>
<text text-anchor="middle" x="464" y="-532.5" font-family="Helvetica,sans-Serif" font-size="10.00">func_800821FC</text>
</a>
</g>
</g>
<!-- Node24&#45;&gt;Node185 -->
<g id="edge27" class="edge">
<title>Node24&#45;&gt;Node185</title>
<path fill="none" stroke="midnightblue" d="M365.5,-736.35C371.7,-733.63 377.48,-729.95 382,-725 434.33,-667.61 368.6,-613.93 418,-554 418.98,-552.81 420.04,-551.7 421.18,-550.66"/>
<polygon fill="midnightblue" stroke="midnightblue" points="423.4,-553.37 429.5,-544.7 419.33,-547.68 423.4,-553.37"/>
</g>
<!-- Node202 -->
<g id="node23" class="node">
<title>Node202</title>
<g id="a_node23"><a xlink:href="code__80071F00_8c.html#abc5ed8f49b810b98a740d39af5bf2613" target="_top" xlink:title=" ">
<polygon fill="white" stroke="red" points="418,-487.5 418,-506.5 510,-506.5 510,-487.5 418,-487.5"/>
<text text-anchor="middle" x="464" y="-494.5" font-family="Helvetica,sans-Serif" font-size="10.00">func_80082E5C</text>
</a>
</g>
</g>
<!-- Node24&#45;&gt;Node202 -->
<g id="edge28" class="edge">
<title>Node24&#45;&gt;Node202</title>
<path fill="none" stroke="midnightblue" d="M365.67,-736.5C371.85,-733.76 377.57,-730.04 382,-725 444.21,-654.19 359.4,-589.83 418,-516 418.96,-514.8 420,-513.67 421.12,-512.61"/>
<polygon fill="midnightblue" stroke="midnightblue" points="423.35,-515.32 429.37,-506.6 419.23,-509.66 423.35,-515.32"/>
</g>
<!-- Node222 -->
<g id="node24" class="node">
<title>Node222</title>
<g id="a_node24"><a xlink:href="code__80071F00_8c.html#ab82627de27f26ffdc658c3374d9b3c2b" target="_top" xlink:title=" ">
<polygon fill="white" stroke="red" points="418.5,-449.5 418.5,-468.5 509.5,-468.5 509.5,-449.5 418.5,-449.5"/>
<text text-anchor="middle" x="464" y="-456.5" font-family="Helvetica,sans-Serif" font-size="10.00">func_80083080</text>
</a>
</g>
</g>
<!-- Node24&#45;&gt;Node222 -->
<g id="edge29" class="edge">
<title>Node24&#45;&gt;Node222</title>
<path fill="none" stroke="midnightblue" d="M365.78,-736.6C371.95,-733.84 377.64,-730.09 382,-725 454.14,-640.72 350.16,-565.78 418,-478 418.94,-476.78 419.97,-475.64 421.08,-474.58"/>
<polygon fill="midnightblue" stroke="midnightblue" points="423.31,-477.28 429.28,-468.53 419.15,-471.65 423.31,-477.28"/>
</g>
<!-- Node226 -->
<g id="node25" class="node">
<title>Node226</title>
<g id="a_node25"><a xlink:href="code__80071F00_8c.html#a87459e233eeb4e0cc4a20c59b1933a0f" target="_top" xlink:title=" ">
<polygon fill="white" stroke="red" points="418,-411.5 418,-430.5 510,-430.5 510,-411.5 418,-411.5"/>
<text text-anchor="middle" x="464" y="-418.5" font-family="Helvetica,sans-Serif" font-size="10.00">func_800834B8</text>
</a>
</g>
</g>
<!-- Node24&#45;&gt;Node226 -->
<g id="edge30" class="edge">
<title>Node24&#45;&gt;Node226</title>
<path fill="none" stroke="midnightblue" d="M365.56,-736.81C371.83,-734.03 377.62,-730.22 382,-725 464.09,-627.22 340.89,-541.76 418,-440 418.81,-438.94 419.68,-437.93 420.62,-436.98"/>
<polygon fill="midnightblue" stroke="midnightblue" points="422.96,-439.6 428.77,-430.74 418.7,-434.04 422.96,-439.6"/>
</g>
<!-- Node234 -->
<g id="node26" class="node">
<title>Node234</title>
<g id="a_node26"><a xlink:href="code__80071F00_8c.html#ac9e0c39c305dbc9c1ed1de532d868698" target="_top" xlink:title=" ">
<polygon fill="white" stroke="red" points="418,-373.5 418,-392.5 510,-392.5 510,-373.5 418,-373.5"/>
<text text-anchor="middle" x="464" y="-380.5" font-family="Helvetica,sans-Serif" font-size="10.00">func_80083D60</text>
</a>
</g>
</g>
<!-- Node24&#45;&gt;Node234 -->
<g id="edge31" class="edge">
<title>Node24&#45;&gt;Node234</title>
<path fill="none" stroke="midnightblue" d="M365.63,-736.87C371.89,-734.08 377.66,-730.25 382,-725 474.06,-613.7 331.61,-517.76 418,-402 418.8,-400.93 419.67,-399.92 420.6,-398.96"/>
<polygon fill="midnightblue" stroke="midnightblue" points="422.94,-401.58 428.72,-392.7 418.66,-396.04 422.94,-401.58"/>
</g>
<!-- Node249 -->
<g id="node27" class="node">
<title>Node249</title>
<g id="a_node27"><a xlink:href="code__80071F00_8c.html#a85427aaa2bb0c47fde015fa11c4771a3" target="_top" xlink:title=" ">
<polygon fill="white" stroke="red" points="418,-335.5 418,-354.5 510,-354.5 510,-335.5 418,-335.5"/>
<text text-anchor="middle" x="464" y="-342.5" font-family="Helvetica,sans-Serif" font-size="10.00">func_800842C8</text>
</a>
</g>
</g>
<!-- Node24&#45;&gt;Node249 -->
<g id="edge33" class="edge">
<title>Node24&#45;&gt;Node249</title>
<path fill="none" stroke="midnightblue" d="M365.68,-736.91C371.94,-734.12 377.69,-730.28 382,-725 484.05,-600.16 322.31,-493.78 418,-364 418.79,-362.92 419.66,-361.91 420.58,-360.95"/>
<polygon fill="midnightblue" stroke="midnightblue" points="422.92,-363.57 428.68,-354.67 418.63,-358.04 422.92,-363.57"/>
</g>
<!-- Node255 -->
<g id="node28" class="node">
<title>Node255</title>
<g id="a_node28"><a xlink:href="code__80071F00_8c.html#ae4511ccc379b63509142c6f7c57b11a9" target="_top" xlink:title=" ">
<polygon fill="white" stroke="red" points="418.5,-1095.5 418.5,-1114.5 509.5,-1114.5 509.5,-1095.5 418.5,-1095.5"/>
<text text-anchor="middle" x="464" y="-1102.5" font-family="Helvetica,sans-Serif" font-size="10.00">func_80085214</text>
</a>
</g>
</g>
<!-- Node24&#45;&gt;Node255 -->
<g id="edge35" class="edge">
<title>Node24&#45;&gt;Node255</title>
<path fill="none" stroke="midnightblue" d="M365.63,-751.13C371.89,-753.92 377.66,-757.75 382,-763 474.06,-874.3 331.61,-970.24 418,-1086 418.8,-1087.07 419.67,-1088.08 420.6,-1089.04"/>
<polygon fill="midnightblue" stroke="midnightblue" points="418.66,-1091.96 428.72,-1095.3 422.94,-1086.42 418.66,-1091.96"/>
</g>
<!-- Node272 -->
<g id="node29" class="node">
<title>Node272</title>
<g id="a_node29"><a xlink:href="code__80071F00_8c.html#a380f5746fe84ee8e299633851cb82e65" target="_top" xlink:title=" ">
<polygon fill="white" stroke="red" points="418,-1057.5 418,-1076.5 510,-1076.5 510,-1057.5 418,-1057.5"/>
<text text-anchor="middle" x="464" y="-1064.5" font-family="Helvetica,sans-Serif" font-size="10.00">func_800857C0</text>
</a>
</g>
</g>
<!-- Node24&#45;&gt;Node272 -->
<g id="edge36" class="edge">
<title>Node24&#45;&gt;Node272</title>
<path fill="none" stroke="midnightblue" d="M365.56,-751.19C371.83,-753.97 377.62,-757.78 382,-763 464.09,-860.78 340.89,-946.24 418,-1048 418.81,-1049.06 419.68,-1050.07 420.62,-1051.02"/>
<polygon fill="midnightblue" stroke="midnightblue" points="418.7,-1053.96 428.77,-1057.26 422.96,-1048.4 418.7,-1053.96"/>
</g>
<!-- Node292 -->
<g id="node30" class="node">
<title>Node292</title>
<g id="a_node30"><a xlink:href="code__80071F00_8c.html#ac4853090fde80beac1ebd5abbeeb26eb" target="_top" xlink:title=" ">
<polygon fill="white" stroke="red" points="418,-1019.5 418,-1038.5 510,-1038.5 510,-1019.5 418,-1019.5"/>
<text text-anchor="middle" x="464" y="-1026.5" font-family="Helvetica,sans-Serif" font-size="10.00">func_80085AA8</text>
</a>
</g>
</g>
<!-- Node24&#45;&gt;Node292 -->
<g id="edge37" class="edge">
<title>Node24&#45;&gt;Node292</title>
<path fill="none" stroke="midnightblue" d="M365.78,-751.4C371.95,-754.16 377.64,-757.91 382,-763 454.14,-847.28 350.16,-922.22 418,-1010 418.94,-1011.22 419.97,-1012.36 421.08,-1013.42"/>
<polygon fill="midnightblue" stroke="midnightblue" points="419.15,-1016.35 429.28,-1019.47 423.31,-1010.72 419.15,-1016.35"/>
</g>
<!-- Node300 -->
<g id="node31" class="node">
<title>Node300</title>
<g id="a_node31"><a xlink:href="code__80071F00_8c.html#a0b95966b57401dc8e8706986828f36b3" target="_top" xlink:title=" ">
<polygon fill="white" stroke="red" points="418.5,-981.5 418.5,-1000.5 509.5,-1000.5 509.5,-981.5 418.5,-981.5"/>
<text text-anchor="middle" x="464" y="-988.5" font-family="Helvetica,sans-Serif" font-size="10.00">func_800861E0</text>
</a>
</g>
</g>
<!-- Node24&#45;&gt;Node300 -->
<g id="edge38" class="edge">
<title>Node24&#45;&gt;Node300</title>
<path fill="none" stroke="midnightblue" d="M365.67,-751.5C371.85,-754.24 377.57,-757.96 382,-763 444.21,-833.81 359.4,-898.17 418,-972 418.96,-973.2 420,-974.33 421.12,-975.39"/>
<polygon fill="midnightblue" stroke="midnightblue" points="419.23,-978.34 429.37,-981.4 423.35,-972.68 419.23,-978.34"/>
</g>
<!-- Node26 -->
<g id="node10" class="node">
<title>Node26</title>
<g id="a_node10"><a xlink:href="code__80071F00_8c.html#ae781b7bfb9e837c1ed2d10a9b3b089b3" target="_top" xlink:title=" ">
<polygon fill="white" stroke="red" points="546,-791.5 546,-810.5 674,-810.5 674,-791.5 546,-791.5"/>
<text text-anchor="middle" x="610" y="-798.5" font-family="Helvetica,sans-Serif" font-size="10.00">delete_object_wrapper</text>
</a>
</g>
</g>
<!-- Node25&#45;&gt;Node26 -->
<g id="edge10" class="edge">
<title>Node25&#45;&gt;Node26</title>
<path fill="none" stroke="midnightblue" d="M494.35,-943.29C499.85,-940.74 505.33,-937.66 510,-934 551.33,-901.58 584.04,-847.8 599.42,-819.58"/>
<polygon fill="midnightblue" stroke="midnightblue" points="602.52,-821.22 604.12,-810.75 596.34,-817.93 602.52,-821.22"/>
</g>
<!-- Node43&#45;&gt;Node26 -->
<g id="edge12" class="edge">
<title>Node43&#45;&gt;Node26</title>
<path fill="none" stroke="midnightblue" d="M492,-905.49C498.14,-902.82 504.47,-899.64 510,-896 543.93,-873.67 576.58,-838.94 594.6,-818.24"/>
<polygon fill="midnightblue" stroke="midnightblue" points="597.34,-820.42 601.18,-810.55 592.02,-815.87 597.34,-820.42"/>
</g>
<!-- Node55&#45;&gt;Node26 -->
<g id="edge14" class="edge">
<title>Node55&#45;&gt;Node26</title>
<path fill="none" stroke="midnightblue" d="M489.07,-867.48C495.91,-864.6 503.32,-861.32 510,-858 536.22,-844.98 565.12,-828.02 584.89,-816"/>
<polygon fill="midnightblue" stroke="midnightblue" points="586.85,-818.9 593.55,-810.69 583.2,-812.93 586.85,-818.9"/>
</g>
<!-- Node58&#45;&gt;Node26 -->
<g id="edge16" class="edge">
<title>Node58&#45;&gt;Node26</title>
<path fill="none" stroke="midnightblue" d="M501.34,-829.41C520.08,-824.46 543.14,-818.38 563.11,-813.11"/>
<polygon fill="midnightblue" stroke="midnightblue" points="564.15,-816.46 572.92,-810.52 562.36,-809.69 564.15,-816.46"/>
</g>
<!-- Node101&#45;&gt;Node26 -->
<g id="edge18" class="edge">
<title>Node101&#45;&gt;Node26</title>
<path fill="none" stroke="midnightblue" d="M510.17,-801C518.29,-801 526.94,-801 535.62,-801"/>
<polygon fill="midnightblue" stroke="midnightblue" points="535.79,-804.5 545.79,-801 535.79,-797.5 535.79,-804.5"/>
</g>
<!-- Node105&#45;&gt;Node26 -->
<g id="edge20" class="edge">
<title>Node105&#45;&gt;Node26</title>
<path fill="none" stroke="midnightblue" d="M501.34,-772.59C520.08,-777.54 543.14,-783.62 563.11,-788.89"/>
<polygon fill="midnightblue" stroke="midnightblue" points="562.36,-792.31 572.92,-791.48 564.15,-785.54 562.36,-792.31"/>
</g>
<!-- Node234&#45;&gt;Node26 -->
<g id="edge32" class="edge">
<title>Node234&#45;&gt;Node26</title>
<path fill="none" stroke="midnightblue" d="M497.93,-392.56C502.47,-395.03 506.69,-398.13 510,-402 560.62,-461.22 596.9,-709.62 606.49,-781.46"/>
<polygon fill="midnightblue" stroke="midnightblue" points="603.02,-781.96 607.79,-791.42 609.96,-781.05 603.02,-781.96"/>
</g>
<!-- Node249&#45;&gt;Node26 -->
<g id="edge34" class="edge">
<title>Node249&#45;&gt;Node26</title>
<path fill="none" stroke="midnightblue" d="M498.45,-354.75C502.81,-357.19 506.84,-360.23 510,-364 564.86,-429.53 598.48,-704.49 606.9,-781.11"/>
<polygon fill="midnightblue" stroke="midnightblue" points="603.45,-781.72 608,-791.28 610.41,-780.96 603.45,-781.72"/>
</g>
<!-- Node408 -->
<g id="node42" class="node">
<title>Node408</title>
<g id="a_node42"><a xlink:href="code__80057C60_8c.html#aa09b6bb34463305d2a0af3f8dc1c9a64" target="_top" xlink:title=" ">
<polygon fill="white" stroke="black" points="273.5,-228.5 273.5,-247.5 365.5,-247.5 365.5,-228.5 273.5,-228.5"/>
<text text-anchor="middle" x="319.5" y="-235.5" font-family="Helvetica,sans-Serif" font-size="10.00">func_8005C674</text>
</a>
</g>
</g>
<!-- Node407&#45;&gt;Node408 -->
<g id="edge50" class="edge">
<title>Node407&#45;&gt;Node408</title>
<path fill="none" stroke="midnightblue" d="M220.75,-238C234.18,-238 249.05,-238 263.05,-238"/>
<polygon fill="midnightblue" stroke="midnightblue" points="263.06,-241.5 273.06,-238 263.06,-234.5 263.06,-241.5"/>
</g>
<!-- Node409 -->
<g id="node43" class="node">
<title>Node409</title>
<g id="a_node43"><a xlink:href="code__80057C60_8c.html#a4aaa3e03bf643ca2898edf80a0f9d8e7" target="_top" xlink:title=" ">
<polygon fill="white" stroke="black" points="273.5,-190.5 273.5,-209.5 365.5,-209.5 365.5,-190.5 273.5,-190.5"/>
<text text-anchor="middle" x="319.5" y="-197.5" font-family="Helvetica,sans-Serif" font-size="10.00">func_8005C980</text>
</a>
</g>
</g>
<!-- Node407&#45;&gt;Node409 -->
<g id="edge51" class="edge">
<title>Node407&#45;&gt;Node409</title>
<path fill="none" stroke="midnightblue" d="M211.58,-228.41C230.13,-223.48 252.93,-217.43 272.7,-212.17"/>
<polygon fill="midnightblue" stroke="midnightblue" points="273.66,-215.54 282.43,-209.59 271.86,-208.77 273.66,-215.54"/>
</g>
<!-- Node410&#45;&gt;Node26 -->
<g id="edge53" class="edge">
<title>Node410&#45;&gt;Node26</title>
<path fill="none" stroke="midnightblue" d="M203.99,-190.46C244.54,-178.4 320.78,-161.46 382,-181 448.49,-202.23 472.4,-213.19 510,-272 566.06,-359.68 599.52,-695.31 607.26,-781"/>
<polygon fill="midnightblue" stroke="midnightblue" points="603.8,-781.53 608.17,-791.18 610.77,-780.91 603.8,-781.53"/>
</g>
<!-- Node411 -->
<g id="node45" class="node">
<title>Node411</title>
<g id="a_node45"><a xlink:href="code__80071F00_8c.html#a486e75bf53218b495d50eb9d7c67ef63" target="_top" xlink:title=" ">
<polygon fill="white" stroke="red" points="274,-114.5 274,-133.5 365,-133.5 365,-114.5 274,-114.5"/>
<text text-anchor="middle" x="319.5" y="-121.5" font-family="Helvetica,sans-Serif" font-size="10.00">func_80077450</text>
</a>
</g>
</g>
<!-- Node410&#45;&gt;Node411 -->
<g id="edge54" class="edge">
<title>Node410&#45;&gt;Node411</title>
<path fill="none" stroke="midnightblue" d="M202.74,-190.43C208.95,-187.76 215.37,-184.6 221,-181 239.29,-169.31 238.58,-159.47 257,-148 263.42,-144 270.62,-140.47 277.77,-137.43"/>
<polygon fill="midnightblue" stroke="midnightblue" points="279.41,-140.54 287.4,-133.59 276.82,-134.04 279.41,-140.54"/>
</g>
</g>
</svg>
