<?xml version="1.0" encoding="UTF-8" standalone="no"?>
<!DOCTYPE svg PUBLIC "-//W3C//DTD SVG 1.1//EN"
 "http://www.w3.org/Graphics/SVG/1.1/DTD/svg11.dtd">
<!-- Generated by graphviz version 2.43.0 (0)
 -->
<!-- Title: func_8003E37C Pages: 1 -->
<!--zoomable 596 -->

<svg id="main" version="1.1" xmlns="http://www.w3.org/2000/svg" xmlns:xlink="http://www.w3.org/1999/xlink" xml:space="preserve" onload="init(evt)">
<style type="text/css"><![CDATA[
.node, .edge {opacity: 0.7;}
.node.selected, .edge.selected {opacity: 1;}
.edge:hover path { stroke: red; }
.edge:hover polygon { stroke: red; fill: red; }
]]></style>

<defs>
  <circle id="rim" cx="0" cy="0" r="7"/>
  <circle id="rim2" cx="0" cy="0" r="3.5"/>
  <g id="zoomPlus">
    <use xlink:href="#rim" fill="#404040"><set attributeName="fill" to="#808080" begin="zoomplus.mouseover" end="zoomplus.mouseout"/></use>
    <path d="M-4,0h8M0,-4v8" fill="none" stroke="white" stroke-width="1.5" pointer-events="none"/>
  </g>
  <g id="zoomMin">
    <use xlink:href="#rim" fill="#404040"><set attributeName="fill" to="#808080" begin="zoomminus.mouseover" end="zoomminus.mouseout"/></use>
    <path d="M-4,0h8" fill="none" stroke="white" stroke-width="1.5" pointer-events="none"/>
  </g>
  <g id="arrowUp" transform="translate(30 24)">
    <use xlink:href="#rim"/>
    <path pointer-events="none" fill="none" stroke="white" stroke-width="1.5" d="M0,-3.0v7 M-2.5,-0.5L0,-3.0L2.5,-0.5"/>
  </g>
  <g id="arrowRight" transform="rotate(90) translate(36 -43)">
    <use xlink:href="#rim"/>
    <path pointer-events="none" fill="none" stroke="white" stroke-width="1.5" d="M0,-3.0v7 M-2.5,-0.5L0,-3.0L2.5,-0.5"/>
  </g>
  <g id="arrowDown" transform="rotate(180) translate(-30 -48)">
    <use xlink:href="#rim"/>
    <path pointer-events="none" fill="none" stroke="white" stroke-width="1.5" d="M0,-3.0v7 M-2.5,-0.5L0,-3.0L2.5,-0.5"/>
  </g>
  <g id="arrowLeft" transform="rotate(270) translate(-36 17)">
    <use xlink:href="#rim"/>
    <path pointer-events="none" fill="none" stroke="white" stroke-width="1.5" d="M0,-3.0v7 M-2.5,-0.5L0,-3.0L2.5,-0.5"/>
  </g>
  <g id="resetDef">
    <use xlink:href="#rim2" fill="#404040"><set attributeName="fill" to="#808080" begin="reset.mouseover" end="reset.mouseout"/></use>
  </g>
</defs>
<script type="application/ecmascript">
var viewWidth = 1145;
var viewHeight = 596;
var sectionId = 'dynsection-7';
</script>
<script type="application/ecmascript" xlink:href="svg.min.js"/>
<svg id="graph" class="graph">
<g id="viewport">
<title>func_8003E37C</title>
<!-- Node1 -->
<g id="Node000001" class="node">
<title>Node1</title>
<g id="a_Node000001"><a xlink:title=" ">
<polygon fill="#999999" stroke="#666666" points="92,-333 0,-333 0,-314 92,-314 92,-333"/>
<text text-anchor="middle" x="46" y="-321" font-family="Helvetica,sans-Serif" font-size="10.00">func_8003E37C</text>
</a>
</g>
</g>
<!-- Node2 -->
<g id="Node000002" class="node">
<title>Node2</title>
<g id="a_Node000002"><a xlink:href="player__controller_8c.html#aaba04d0928ff8eaf7ef6c6cea1b93d7d" target="_top" xlink:title=" ">
<polygon fill="white" stroke="#666666" points="255.5,-389 163.5,-389 163.5,-370 255.5,-370 255.5,-389"/>
<text text-anchor="middle" x="209.5" y="-377" font-family="Helvetica,sans-Serif" font-size="10.00">func_8002A5F4</text>
</a>
</g>
</g>
<!-- Node1&#45;&gt;Node2 -->
<g id="edge1_Node000001_Node000002" class="edge">
<title>Node1&#45;&gt;Node2</title>
<g id="a_edge1_Node000001_Node000002"><a xlink:title=" ">
<path fill="none" stroke="#63b8ff" d="M64.55,-333.11C80.65,-341.58 105.36,-353.76 128,-361.5 136.08,-364.26 144.77,-366.72 153.34,-368.85"/>
<polygon fill="#63b8ff" stroke="#63b8ff" points="152.77,-372.31 163.31,-371.22 154.39,-365.5 152.77,-372.31"/>
</a>
</g>
</g>
<!-- Node3 -->
<g id="Node000003" class="node">
<title>Node3</title>
<g id="a_Node000003"><a xlink:href="math__util_8c.html#a2af320f247ee4c117aff9eff1b920da3" target="_top" xlink:title=" ">
<polygon fill="white" stroke="#666666" points="287.5,-352 131.5,-352 131.5,-333 287.5,-333 287.5,-352"/>
<text text-anchor="middle" x="209.5" y="-340" font-family="Helvetica,sans-Serif" font-size="10.00">mtxf_transform_vec3f_mat3</text>
</a>
</g>
</g>
<!-- Node1&#45;&gt;Node3 -->
<g id="edge2_Node000001_Node000003" class="edge">
<title>Node1&#45;&gt;Node3</title>
<g id="a_edge2_Node000001_Node000003"><a xlink:title=" ">
<path fill="none" stroke="#63b8ff" d="M92.42,-328.84C101.51,-329.91 111.35,-331.07 121.33,-332.24"/>
<polygon fill="#63b8ff" stroke="#63b8ff" points="120.98,-335.73 131.32,-333.42 121.8,-328.78 120.98,-335.73"/>
</a>
</g>
</g>
<!-- Node4 -->
<g id="Node000004" class="node">
<title>Node4</title>
<g id="a_Node000004"><a xlink:href="player__controller_8c.html#a837984168448122c63bd34b924c4276f" target="_top" xlink:title=" ">
<polygon fill="white" stroke="#666666" points="291,-315 128,-315 128,-296 291,-296 291,-315"/>
<text text-anchor="middle" x="209.5" y="-303" font-family="Helvetica,sans-Serif" font-size="10.00">player_decelerate_alternative</text>
</a>
</g>
</g>
<!-- Node1&#45;&gt;Node4 -->
<g id="edge3_Node000001_Node000004" class="edge">
<title>Node1&#45;&gt;Node4</title>
<g id="a_edge3_Node000001_Node000004"><a xlink:title=" ">
<path fill="none" stroke="#63b8ff" d="M92.42,-318.44C100.48,-317.54 109.14,-316.57 117.95,-315.59"/>
<polygon fill="#63b8ff" stroke="#63b8ff" points="118.39,-319.07 127.94,-314.48 117.61,-312.11 118.39,-319.07"/>
</a>
</g>
</g>
<!-- Node23 -->
<g id="Node000023" class="node">
<title>Node23</title>
<g id="a_Node000023"><a xlink:href="effects_8c.html#a9be2cc0ebbe72a9d5276a4fd2675eef3" target="_top" xlink:title=" ">
<polygon fill="white" stroke="#666666" points="745.5,-19 600.5,-19 600.5,0 745.5,0 745.5,-19"/>
<text text-anchor="middle" x="673" y="-7" font-family="Helvetica,sans-Serif" font-size="10.00">remove_mushroom_effect</text>
</a>
</g>
</g>
<!-- Node1&#45;&gt;Node23 -->
<g id="edge27_Node000001_Node000023" class="edge">
<title>Node1&#45;&gt;Node23</title>
<g id="a_edge27_Node000001_Node000023"><a xlink:title=" ">
<path fill="none" stroke="#63b8ff" d="M61.55,-313.82C123.26,-273.16 370.4,-114.39 594,-28.5 600.47,-26.02 607.37,-23.78 614.28,-21.79"/>
<polygon fill="#63b8ff" stroke="#63b8ff" points="615.65,-25.04 624.38,-19.05 613.82,-18.29 615.65,-25.04"/>
</a>
</g>
</g>
<!-- Node5 -->
<g id="Node000005" class="node">
<title>Node5</title>
<g id="a_Node000005"><a xlink:href="effects_8c.html#a772ef3ecce48b6fada93334a880392b1" target="_top" xlink:title=" ">
<polygon fill="white" stroke="#666666" points="432,-315 341,-315 341,-296 432,-296 432,-315"/>
<text text-anchor="middle" x="386.5" y="-303" font-family="Helvetica,sans-Serif" font-size="10.00">func_8008F104</text>
</a>
</g>
</g>
<!-- Node4&#45;&gt;Node5 -->
<g id="edge4_Node000004_Node000005" class="edge">
<title>Node4&#45;&gt;Node5</title>
<g id="a_edge4_Node000004_Node000005"><a xlink:title=" ">
<path fill="none" stroke="#63b8ff" d="M291.09,-305.5C304.4,-305.5 317.93,-305.5 330.43,-305.5"/>
<polygon fill="#63b8ff" stroke="#63b8ff" points="330.66,-309 340.66,-305.5 330.66,-302 330.66,-309"/>
</a>
</g>
</g>
<!-- Node26 -->
<g id="Node000026" class="node">
<title>Node26</title>
<g id="a_Node000026"><a xlink:href="player__controller_8c.html#aafeb0470c7da44e1440ffa4848f7d500" target="_top" xlink:title=" ">
<polygon fill="white" stroke="#666666" points="446,-363.5 327,-363.5 327,-333.5 446,-333.5 446,-363.5"/>
<text text-anchor="start" x="335" y="-351.5" font-family="Helvetica,sans-Serif" font-size="10.00">get_player_index_for</text>
<text text-anchor="middle" x="386.5" y="-340.5" font-family="Helvetica,sans-Serif" font-size="10.00">_player</text>
</a>
</g>
</g>
<!-- Node4&#45;&gt;Node26 -->
<g id="edge26_Node000004_Node000026" class="edge">
<title>Node4&#45;&gt;Node26</title>
<g id="a_edge26_Node000004_Node000026"><a xlink:title=" ">
<path fill="none" stroke="#63b8ff" d="M251.48,-315.03C264.16,-318.02 278.17,-321.36 291,-324.5 299.48,-326.58 308.38,-328.79 317.19,-331.01"/>
<polygon fill="#63b8ff" stroke="#63b8ff" points="316.51,-334.44 327.06,-333.49 318.22,-327.66 316.51,-334.44"/>
</a>
</g>
</g>
<!-- Node6 -->
<g id="Node000006" class="node">
<title>Node6</title>
<g id="a_Node000006"><a xlink:href="effects_8c.html#a6559cc02e5bb1a4e7fe6c97850cdd87e" target="_top" xlink:title=" ">
<polygon fill="white" stroke="#666666" points="558,-315 482,-315 482,-296 558,-296 558,-315"/>
<text text-anchor="middle" x="520" y="-303" font-family="Helvetica,sans-Serif" font-size="10.00">clean_effect</text>
</a>
</g>
</g>
<!-- Node5&#45;&gt;Node6 -->
<g id="edge5_Node000005_Node000006" class="edge">
<title>Node5&#45;&gt;Node6</title>
<g id="a_edge5_Node000005_Node000006"><a xlink:title=" ">
<path fill="none" stroke="#63b8ff" d="M432.02,-305.5C444.84,-305.5 458.86,-305.5 471.83,-305.5"/>
<polygon fill="#63b8ff" stroke="#63b8ff" points="471.97,-309 481.97,-305.5 471.97,-302 471.97,-309"/>
</a>
</g>
</g>
<!-- Node25 -->
<g id="Node000025" class="node">
<title>Node25</title>
<g id="a_Node000025"><a xlink:href="external_8c.html#a337fc3ab94ebb3293a85908229303ac8" target="_top" xlink:title=" ">
<polygon fill="white" stroke="#666666" points="890,-570 798,-570 798,-551 890,-551 890,-570"/>
<text text-anchor="middle" x="844" y="-558" font-family="Helvetica,sans-Serif" font-size="10.00">func_800C90F4</text>
</a>
</g>
</g>
<!-- Node5&#45;&gt;Node25 -->
<g id="edge24_Node000005_Node000025" class="edge">
<title>Node5&#45;&gt;Node25</title>
<g id="a_edge24_Node000005_Node000025"><a xlink:title=" ">
<path fill="none" stroke="#63b8ff" d="M429.32,-315.01C435.27,-317.49 441.05,-320.6 446,-324.5 544.75,-402.26 484.3,-504.13 594,-565.5 659.98,-602.41 751.98,-586.57 803.69,-572.82"/>
<polygon fill="#63b8ff" stroke="#63b8ff" points="804.76,-576.15 813.47,-570.11 802.9,-569.4 804.76,-576.15"/>
</a>
</g>
</g>
<!-- Node7 -->
<g id="Node000007" class="node">
<title>Node7</title>
<g id="a_Node000007"><a xlink:href="effects_8c.html#a7fef1af5ca366a9346478d94239c6142" target="_top" xlink:title=" ">
<polygon fill="white" stroke="#666666" points="719.5,-519 626.5,-519 626.5,-500 719.5,-500 719.5,-519"/>
<text text-anchor="middle" x="673" y="-507" font-family="Helvetica,sans-Serif" font-size="10.00">func_8008C6D0</text>
</a>
</g>
</g>
<!-- Node6&#45;&gt;Node7 -->
<g id="edge6_Node000006_Node000007" class="edge">
<title>Node6&#45;&gt;Node7</title>
<g id="a_edge6_Node000006_Node000007"><a xlink:title=" ">
<path fill="none" stroke="#63b8ff" d="M521.75,-315.4C524.67,-346.52 538.05,-443.24 594,-491.5 600.5,-497.11 608.42,-501.06 616.67,-503.83"/>
<polygon fill="#63b8ff" stroke="#63b8ff" points="615.89,-507.24 626.47,-506.56 617.77,-500.5 615.89,-507.24"/>
</a>
</g>
</g>
<!-- Node8 -->
<g id="Node000008" class="node">
<title>Node8</title>
<g id="a_Node000008"><a xlink:href="effects_8c.html#a5f19eaaa048055d292d02c717e635786" target="_top" xlink:title=" ">
<polygon fill="white" stroke="#666666" points="719,-482 627,-482 627,-463 719,-463 719,-482"/>
<text text-anchor="middle" x="673" y="-470" font-family="Helvetica,sans-Serif" font-size="10.00">func_8008D760</text>
</a>
</g>
</g>
<!-- Node6&#45;&gt;Node8 -->
<g id="edge7_Node000006_Node000008" class="edge">
<title>Node6&#45;&gt;Node8</title>
<g id="a_edge7_Node000006_Node000008"><a xlink:title=" ">
<path fill="none" stroke="#63b8ff" d="M522.79,-315.32C528.21,-342.17 547.07,-417.25 594,-454.5 600.73,-459.84 608.75,-463.65 617.06,-466.36"/>
<polygon fill="#63b8ff" stroke="#63b8ff" points="616.31,-469.78 626.88,-469.06 618.16,-463.03 616.31,-469.78"/>
</a>
</g>
</g>
<!-- Node9 -->
<g id="Node000009" class="node">
<title>Node9</title>
<g id="a_Node000009"><a xlink:href="effects_8c.html#a4ea2da0616ee3c475e4be217dc0bc71f" target="_top" xlink:title=" ">
<polygon fill="white" stroke="#666666" points="719.5,-445 626.5,-445 626.5,-426 719.5,-426 719.5,-445"/>
<text text-anchor="middle" x="673" y="-433" font-family="Helvetica,sans-Serif" font-size="10.00">func_8008D97C</text>
</a>
</g>
</g>
<!-- Node6&#45;&gt;Node9 -->
<g id="edge8_Node000006_Node000009" class="edge">
<title>Node6&#45;&gt;Node9</title>
<g id="a_edge8_Node000006_Node000009"><a xlink:title=" ">
<path fill="none" stroke="#63b8ff" d="M524.37,-315.09C532.57,-336.97 555.76,-390.78 594,-417.5 600.72,-422.2 608.49,-425.69 616.46,-428.27"/>
<polygon fill="#63b8ff" stroke="#63b8ff" points="615.66,-431.68 626.23,-431 617.54,-424.94 615.66,-431.68"/>
</a>
</g>
</g>
<!-- Node10 -->
<g id="Node000010" class="node">
<title>Node10</title>
<g id="a_Node000010"><a xlink:href="effects_8c.html#a13005f7c39388deade6ba0491d7c5918" target="_top" xlink:title=" ">
<polygon fill="white" stroke="#666666" points="718.5,-408 627.5,-408 627.5,-389 718.5,-389 718.5,-408"/>
<text text-anchor="middle" x="673" y="-396" font-family="Helvetica,sans-Serif" font-size="10.00">func_8008E884</text>
</a>
</g>
</g>
<!-- Node6&#45;&gt;Node10 -->
<g id="edge9_Node000006_Node000010" class="edge">
<title>Node6&#45;&gt;Node10</title>
<g id="a_edge9_Node000006_Node000010"><a xlink:title=" ">
<path fill="none" stroke="#63b8ff" d="M527.42,-315.02C538.82,-331.15 564.23,-363.74 594,-380.5 601.31,-384.62 609.51,-387.79 617.78,-390.24"/>
<polygon fill="#63b8ff" stroke="#63b8ff" points="616.9,-393.63 627.46,-392.8 618.68,-386.86 616.9,-393.63"/>
</a>
</g>
</g>
<!-- Node11 -->
<g id="Node000011" class="node">
<title>Node11</title>
<g id="a_Node000011"><a xlink:href="effects_8c.html#ae02351b6bbb678b552ec8864b47fc56c" target="_top" xlink:title=" ">
<polygon fill="white" stroke="#666666" points="718.5,-371 627.5,-371 627.5,-352 718.5,-352 718.5,-371"/>
<text text-anchor="middle" x="673" y="-359" font-family="Helvetica,sans-Serif" font-size="10.00">func_8008F3E0</text>
</a>
</g>
</g>
<!-- Node6&#45;&gt;Node11 -->
<g id="edge10_Node000006_Node000011" class="edge">
<title>Node6&#45;&gt;Node11</title>
<g id="a_edge10_Node000006_Node000011"><a xlink:title=" ">
<path fill="none" stroke="#63b8ff" d="M536.7,-315.16C551.13,-323.68 573.36,-335.89 594,-343.5 601.43,-346.24 609.41,-348.65 617.33,-350.74"/>
<polygon fill="#63b8ff" stroke="#63b8ff" points="616.74,-354.2 627.29,-353.23 618.43,-347.41 616.74,-354.2"/>
</a>
</g>
</g>
<!-- Node12 -->
<g id="Node000012" class="node">
<title>Node12</title>
<g id="a_Node000012"><a xlink:href="effects_8c.html#ab5125d5944958f891647b27b440d3d62" target="_top" xlink:title=" ">
<polygon fill="white" stroke="#666666" points="719,-334 627,-334 627,-315 719,-315 719,-334"/>
<text text-anchor="middle" x="673" y="-322" font-family="Helvetica,sans-Serif" font-size="10.00">func_8008F5A4</text>
</a>
</g>
</g>
<!-- Node6&#45;&gt;Node12 -->
<g id="edge11_Node000006_Node000012" class="edge">
<title>Node6&#45;&gt;Node12</title>
<g id="a_edge11_Node000006_Node000012"><a xlink:title=" ">
<path fill="none" stroke="#63b8ff" d="M558.33,-310.2C575.95,-312.41 597.34,-315.11 616.8,-317.55"/>
<polygon fill="#63b8ff" stroke="#63b8ff" points="616.4,-321.03 626.76,-318.81 617.28,-314.09 616.4,-321.03"/>
</a>
</g>
</g>
<!-- Node17 -->
<g id="Node000017" class="node">
<title>Node17</title>
<g id="a_Node000017"><a xlink:href="effects_8c.html#a2f183005a5e85816dd81508847c1904d" target="_top" xlink:title=" ">
<polygon fill="white" stroke="#666666" points="719.5,-297 626.5,-297 626.5,-278 719.5,-278 719.5,-297"/>
<text text-anchor="middle" x="673" y="-285" font-family="Helvetica,sans-Serif" font-size="10.00">func_8008FEDC</text>
</a>
</g>
</g>
<!-- Node6&#45;&gt;Node17 -->
<g id="edge16_Node000006_Node000017" class="edge">
<title>Node6&#45;&gt;Node17</title>
<g id="a_edge16_Node000006_Node000017"><a xlink:title=" ">
<path fill="none" stroke="#63b8ff" d="M558.33,-301.05C575.88,-298.96 597.16,-296.42 616.55,-294.11"/>
<polygon fill="#63b8ff" stroke="#63b8ff" points="616.97,-297.58 626.48,-292.93 616.14,-290.63 616.97,-297.58"/>
</a>
</g>
</g>
<!-- Node18 -->
<g id="Node000018" class="node">
<title>Node18</title>
<g id="a_Node000018"><a xlink:href="effects_8c.html#acbb1f27649a63227fcf0dd1f17dfa096" target="_top" xlink:title=" ">
<polygon fill="white" stroke="#666666" points="734,-259.5 612,-259.5 612,-229.5 734,-229.5 734,-259.5"/>
<text text-anchor="start" x="620" y="-247.5" font-family="Helvetica,sans-Serif" font-size="10.00">remove_banana_near</text>
<text text-anchor="middle" x="673" y="-236.5" font-family="Helvetica,sans-Serif" font-size="10.00">_spinout_effect</text>
</a>
</g>
</g>
<!-- Node6&#45;&gt;Node18 -->
<g id="edge17_Node000006_Node000018" class="edge">
<title>Node6&#45;&gt;Node18</title>
<g id="a_edge17_Node000006_Node000018"><a xlink:title=" ">
<path fill="none" stroke="#63b8ff" d="M538.66,-295.87C553.24,-288.15 574.61,-277.34 594,-269.5 599.71,-267.19 605.72,-264.95 611.77,-262.82"/>
<polygon fill="#63b8ff" stroke="#63b8ff" points="612.94,-266.11 621.26,-259.56 610.66,-259.49 612.94,-266.11"/>
</a>
</g>
</g>
<!-- Node19 -->
<g id="Node000019" class="node">
<title>Node19</title>
<g id="a_Node000019"><a xlink:href="effects_8c.html#a4768d56263e476d3bac47ee01bac3dc8" target="_top" xlink:title=" ">
<polygon fill="white" stroke="#666666" points="752,-211.5 594,-211.5 594,-181.5 752,-181.5 752,-211.5"/>
<text text-anchor="start" x="602" y="-199.5" font-family="Helvetica,sans-Serif" font-size="10.00">remove_boost_ramp_asphalt</text>
<text text-anchor="middle" x="673" y="-188.5" font-family="Helvetica,sans-Serif" font-size="10.00">_effect</text>
</a>
</g>
</g>
<!-- Node6&#45;&gt;Node19 -->
<g id="edge18_Node000006_Node000019" class="edge">
<title>Node6&#45;&gt;Node19</title>
<g id="a_edge18_Node000006_Node000019"><a xlink:title=" ">
<path fill="none" stroke="#63b8ff" d="M526.72,-295.78C537.58,-278.15 562.92,-240.86 594,-220.5 596.44,-218.9 599,-217.4 601.64,-216"/>
<polygon fill="#63b8ff" stroke="#63b8ff" points="603.34,-219.06 610.85,-211.59 600.32,-212.75 603.34,-219.06"/>
</a>
</g>
</g>
<!-- Node20 -->
<g id="Node000020" class="node">
<title>Node20</title>
<g id="a_Node000020"><a xlink:href="effects_8c.html#aafe14c45e9b91bb1d409ef2f2bfe5c53" target="_top" xlink:title=" ">
<polygon fill="white" stroke="#666666" points="747.5,-163.5 598.5,-163.5 598.5,-133.5 747.5,-133.5 747.5,-163.5"/>
<text text-anchor="start" x="606.5" y="-151.5" font-family="Helvetica,sans-Serif" font-size="10.00">remove_boost_ramp_wood</text>
<text text-anchor="middle" x="673" y="-140.5" font-family="Helvetica,sans-Serif" font-size="10.00">_effect</text>
</a>
</g>
</g>
<!-- Node6&#45;&gt;Node20 -->
<g id="edge19_Node000006_Node000020" class="edge">
<title>Node6&#45;&gt;Node20</title>
<g id="a_edge19_Node000006_Node000020"><a xlink:title=" ">
<path fill="none" stroke="#63b8ff" d="M523.55,-295.83C530.51,-271.38 552.14,-206.61 594,-172.5 595.57,-171.22 597.2,-170.02 598.89,-168.87"/>
<polygon fill="#63b8ff" stroke="#63b8ff" points="600.88,-171.76 607.73,-163.67 597.33,-165.73 600.88,-171.76"/>
</a>
</g>
</g>
<!-- Node21 -->
<g id="Node000021" class="node">
<title>Node21</title>
<g id="a_Node000021"><a xlink:href="effects_8c.html#a9ff5c732ea8ba59908ccf62ff441e7e4" target="_top" xlink:title=" ">
<polygon fill="white" stroke="#666666" points="733,-115.5 613,-115.5 613,-85.5 733,-85.5 733,-115.5"/>
<text text-anchor="start" x="621" y="-103.5" font-family="Helvetica,sans-Serif" font-size="10.00">remove_driving_near</text>
<text text-anchor="middle" x="673" y="-92.5" font-family="Helvetica,sans-Serif" font-size="10.00">_spinout_effect</text>
</a>
</g>
</g>
<!-- Node6&#45;&gt;Node21 -->
<g id="edge20_Node000006_Node000021" class="edge">
<title>Node6&#45;&gt;Node21</title>
<g id="a_edge20_Node000006_Node000021"><a xlink:title=" ">
<path fill="none" stroke="#63b8ff" d="M522.04,-295.6C525.75,-265.33 541.1,-173.09 594,-124.5 596.97,-121.77 600.24,-119.36 603.71,-117.22"/>
<polygon fill="#63b8ff" stroke="#63b8ff" points="605.5,-120.23 612.68,-112.44 602.21,-114.05 605.5,-120.23"/>
</a>
</g>
</g>
<!-- Node22 -->
<g id="Node000022" class="node">
<title>Node22</title>
<g id="a_Node000022"><a xlink:href="effects_8c.html#a5f1aead641683fd07375d6737dfafac2" target="_top" xlink:title=" ">
<polygon fill="white" stroke="#666666" points="729.5,-67.5 616.5,-67.5 616.5,-37.5 729.5,-37.5 729.5,-67.5"/>
<text text-anchor="start" x="624.5" y="-55.5" font-family="Helvetica,sans-Serif" font-size="10.00">remove_hit_by_star</text>
<text text-anchor="middle" x="673" y="-44.5" font-family="Helvetica,sans-Serif" font-size="10.00">_effect</text>
</a>
</g>
</g>
<!-- Node6&#45;&gt;Node22 -->
<g id="edge21_Node000006_Node000022" class="edge">
<title>Node6&#45;&gt;Node22</title>
<g id="a_edge21_Node000006_Node000022"><a xlink:title=" ">
<path fill="none" stroke="#63b8ff" d="M523.5,-295.88C534.34,-254.49 577.47,-92.87 594,-76.5 597.9,-72.64 602.41,-69.39 607.25,-66.67"/>
<polygon fill="#63b8ff" stroke="#63b8ff" points="608.79,-69.82 616.26,-62.31 605.74,-63.52 608.79,-69.82"/>
</a>
</g>
</g>
<!-- Node6&#45;&gt;Node23 -->
<g id="edge22_Node000006_Node000023" class="edge">
<title>Node6&#45;&gt;Node23</title>
<g id="a_edge22_Node000006_Node000023"><a xlink:title=" ">
<path fill="none" stroke="#63b8ff" d="M523.5,-295.74C536.03,-246.86 591.48,-30.97 594,-28.5 595.45,-27.07 597,-25.75 598.61,-24.51"/>
<polygon fill="#63b8ff" stroke="#63b8ff" points="600.63,-27.38 607.24,-19.1 596.91,-21.45 600.63,-27.38"/>
</a>
</g>
</g>
<!-- Node24 -->
<g id="Node000024" class="node">
<title>Node24</title>
<g id="a_Node000024"><a xlink:href="effects_8c.html#a85a7ba2f2c97859b0090c54a68e8f003" target="_top" xlink:title=" ">
<polygon fill="white" stroke="#666666" points="740,-556 606,-556 606,-537 740,-537 740,-556"/>
<text text-anchor="middle" x="673" y="-544" font-family="Helvetica,sans-Serif" font-size="10.00">remove_spinout_effects</text>
</a>
</g>
</g>
<!-- Node6&#45;&gt;Node24 -->
<g id="edge23_Node000006_Node000024" class="edge">
<title>Node6&#45;&gt;Node24</title>
<g id="a_edge23_Node000006_Node000024"><a xlink:title=" ">
<path fill="none" stroke="#63b8ff" d="M521.02,-315.3C521.67,-350.1 528.76,-468.85 594,-528.5 595.15,-529.55 596.36,-530.55 597.6,-531.49"/>
<polygon fill="#63b8ff" stroke="#63b8ff" points="596.03,-534.64 606.37,-536.95 599.73,-528.7 596.03,-534.64"/>
</a>
</g>
</g>
<!-- Node13 -->
<g id="Node000013" class="node">
<title>Node13</title>
<g id="a_Node000013"><a xlink:href="code__80057C60_8c.html#ae28b6eb556910087cea23f0cb7a322bd" target="_top" xlink:title=" ">
<polygon fill="white" stroke="#666666" points="900,-426 788,-426 788,-407 900,-407 900,-426"/>
<text text-anchor="middle" x="844" y="-414" font-family="Helvetica,sans-Serif" font-size="10.00">pop_player_balloon</text>
</a>
</g>
</g>
<!-- Node12&#45;&gt;Node13 -->
<g id="edge12_Node000012_Node000013" class="edge">
<title>Node12&#45;&gt;Node13</title>
<g id="a_edge12_Node000012_Node000013"><a xlink:title=" ">
<path fill="none" stroke="#63b8ff" d="M719.32,-332.01C730.34,-334.78 741.87,-338.51 752,-343.5 781.04,-357.8 809.3,-382.7 826.42,-399.39"/>
<polygon fill="#63b8ff" stroke="#63b8ff" points="824.34,-402.26 833.89,-406.84 829.28,-397.3 824.34,-402.26"/>
</a>
</g>
</g>
<!-- Node14 -->
<g id="Node000014" class="node">
<title>Node14</title>
<g id="a_Node000014"><a xlink:href="effects_8c.html#a1c7552c4a370cc015c2726e40f1fdb06" target="_top" xlink:title=" ">
<polygon fill="white" stroke="#666666" points="1029,-463 936,-463 936,-444 1029,-444 1029,-463"/>
<text text-anchor="middle" x="982.5" y="-451" font-family="Helvetica,sans-Serif" font-size="10.00">func_8008FD4C</text>
</a>
</g>
</g>
<!-- Node13&#45;&gt;Node14 -->
<g id="edge13_Node000013_Node000014" class="edge">
<title>Node13&#45;&gt;Node14</title>
<g id="a_edge13_Node000013_Node000014"><a xlink:title=" ">
<path fill="none" stroke="#63b8ff" d="M880.15,-426.03C897.21,-430.65 917.92,-436.27 936.15,-441.21"/>
<polygon fill="#63b8ff" stroke="#63b8ff" points="935.43,-444.64 945.99,-443.88 937.26,-437.88 935.43,-444.64"/>
</a>
</g>
</g>
<!-- Node15 -->
<g id="Node000015" class="node">
<title>Node15</title>
<g id="a_Node000015"><a xlink:href="external_8c.html#a2be9efc97a92e19d02aaee90d676acc1" target="_top" xlink:title=" ">
<polygon fill="white" stroke="#666666" points="1028.5,-426 936.5,-426 936.5,-407 1028.5,-407 1028.5,-426"/>
<text text-anchor="middle" x="982.5" y="-414" font-family="Helvetica,sans-Serif" font-size="10.00">func_800C9060</text>
</a>
</g>
</g>
<!-- Node13&#45;&gt;Node15 -->
<g id="edge14_Node000013_Node000015" class="edge">
<title>Node13&#45;&gt;Node15</title>
<g id="a_edge14_Node000013_Node000015"><a xlink:title=" ">
<path fill="none" stroke="#63b8ff" d="M900.13,-416.5C908.65,-416.5 917.45,-416.5 925.98,-416.5"/>
<polygon fill="#63b8ff" stroke="#63b8ff" points="926.21,-420 936.21,-416.5 926.21,-413 926.21,-420"/>
</a>
</g>
</g>
<!-- Node16 -->
<g id="Node000016" class="node">
<title>Node16</title>
<g id="a_Node000016"><a xlink:href="external_8c.html#a475cff796211891556f52877cd8e9b9e" target="_top" xlink:title=" ">
<polygon fill="white" stroke="#666666" points="1137,-463 1065,-463 1065,-444 1137,-444 1137,-463"/>
<text text-anchor="middle" x="1101" y="-451" font-family="Helvetica,sans-Serif" font-size="10.00">play_sound</text>
</a>
</g>
</g>
<!-- Node15&#45;&gt;Node16 -->
<g id="edge15_Node000015_Node000016" class="edge">
<title>Node15&#45;&gt;Node16</title>
<g id="a_edge15_Node000015_Node000016"><a xlink:title=" ">
<path fill="none" stroke="#63b8ff" d="M1013.5,-426.03C1027.66,-430.52 1044.75,-435.95 1060,-440.8"/>
<polygon fill="#63b8ff" stroke="#63b8ff" points="1059.1,-444.18 1069.7,-443.88 1061.22,-437.51 1059.1,-444.18"/>
</a>
</g>
</g>
<!-- Node25&#45;&gt;Node16 -->
<g id="edge25_Node000025_Node000016" class="edge">
<title>Node25&#45;&gt;Node16</title>
<g id="a_edge25_Node000025_Node000016"><a xlink:title=" ">
<path fill="none" stroke="#63b8ff" d="M868.08,-550.82C913.69,-531.68 1015.46,-488.97 1067.7,-467.05"/>
<polygon fill="#63b8ff" stroke="#63b8ff" points="1069.29,-470.18 1077.16,-463.09 1066.58,-463.73 1069.29,-470.18"/>
</a>
</g>
</g>
</g>
</svg>

<g id="navigator" transform="translate(0 0)" fill="#404254">
  <rect fill="#f2f5e9" fill-opacity="0.5" stroke="#606060" stroke-width=".5" x="0" y="0" width="60" height="60"/>
  <use id="zoomplus" xlink:href="#zoomPlus" x="17" y="9" onmousedown="handleZoom(evt,'in')"/>
  <use id="zoomminus" xlink:href="#zoomMin" x="42" y="9" onmousedown="handleZoom(evt,'out')"/>
  <use id="reset" xlink:href="#resetDef" x="30" y="36" onmousedown="handleReset()"/>
   <use id="arrowup" xlink:href="#arrowUp" x="0" y="0" onmousedown="handlePan(0,-1)"/>
  <use id="arrowright" xlink:href="#arrowRight" x="0" y="0" onmousedown="handlePan(1,0)"/>
  <use id="arrowdown" xlink:href="#arrowDown" x="0" y="0" onmousedown="handlePan(0,1)"/>
  <use id="arrowleft" xlink:href="#arrowLeft" x="0" y="0" onmousedown="handlePan(-1,0)"/>
</g>
<svg viewBox="0 0 15 15" width="100%" height="30px" preserveAspectRatio="xMaxYMin meet">
 <g id="arrow_out" transform="scale(0.3 0.3)">
  <a xlink:href="code__8003DC40_8h_a3ff966ee08fe48cfbac6f0956d467379_cgraph_org.svg" target="_base">
   <rect id="button" ry="5" rx="5" y="6" x="6" height="38" width="38"
        fill="#f2f5e9" fill-opacity="0.5" stroke="#606060" stroke-width="1.0"/>
   <path id="arrow"
     d="M 11.500037,31.436501 C 11.940474,20.09759 22.043105,11.32322 32.158766,21.979434 L 37.068811,17.246167 C 37.068811,17.246167 37.088388,32 37.088388,32 L 22.160133,31.978069 C 22.160133,31.978069 26.997745,27.140456 26.997745,27.140456 C 18.528582,18.264221 13.291696,25.230495 11.500037,31.436501 z"
     style="fill:#404040;"/>
  </a>
 </g>
</svg>

<style type='text/css'>
<![CDATA[
[data-mouse-over-selected='false'] { opacity: 0.7; }
[data-mouse-over-selected='true']  { opacity: 1.0; }
]]>
</style>
<script type="application/ecmascript"><![CDATA[
document.addEventListener('DOMContentLoaded', (event) => {
  highlightEdges();
  highlightAdjacentNodes();
});
]]></script>
</svg>
