<?xml version="1.0" encoding="UTF-8" standalone="no"?>
<!DOCTYPE svg PUBLIC "-//W3C//DTD SVG 1.1//EN"
 "http://www.w3.org/Graphics/SVG/1.1/DTD/svg11.dtd">
<!-- Generated by graphviz version 2.43.0 (0)
 -->
<!-- Title: draw_flash_select_case Pages: 1 -->
<svg width="462pt" height="180pt"
 viewBox="0.00 0.00 462.00 180.00" xmlns="http://www.w3.org/2000/svg" xmlns:xlink="http://www.w3.org/1999/xlink">
<g id="graph0" class="graph" transform="scale(1 1) rotate(0) translate(4 176)">
<title>draw_flash_select_case</title>
<polygon fill="white" stroke="transparent" points="-4,4 -4,-176 458,-176 458,4 -4,4"/>
<!-- Node1 -->
<g id="node1" class="node">
<title>Node1</title>
<g id="a_node1"><a xlink:title=" ">
<polygon fill="#bfbfbf" stroke="black" points="323,-95.5 323,-114.5 454,-114.5 454,-95.5 323,-95.5"/>
<text text-anchor="middle" x="388.5" y="-102.5" font-family="Helvetica,sans-Serif" font-size="10.00">draw_flash_select_case</text>
</a>
</g>
</g>
<!-- Node2 -->
<g id="node2" class="node">
<title>Node2</title>
<g id="a_node2"><a xlink:href="code__80091750_8c.html#abd40dd7d54a4d4538a800e77adbce1a8" target="_top" xlink:title=" ">
<polygon fill="white" stroke="black" points="130,-114.5 130,-133.5 285,-133.5 285,-114.5 130,-114.5"/>
<text text-anchor="middle" x="207.5" y="-121.5" font-family="Helvetica,sans-Serif" font-size="10.00">draw_flash_select_case_fast</text>
</a>
</g>
</g>
<!-- Node1&#45;&gt;Node2 -->
<g id="edge1" class="edge">
<title>Node1&#45;&gt;Node2</title>
<path fill="none" stroke="midnightblue" d="M312.72,-112.94C303.64,-113.9 294.34,-114.89 285.22,-115.86"/>
<polygon fill="midnightblue" stroke="midnightblue" points="313.3,-116.4 322.88,-111.86 312.56,-109.43 313.3,-116.4"/>
</g>
<!-- Node3 -->
<g id="node3" class="node">
<title>Node3</title>
<g id="a_node3"><a xlink:href="code__80091750_8c.html#aecc040fbf3314119e0e911fa5fda57c1" target="_top" xlink:title=" ">
<polygon fill="white" stroke="black" points="128,-76.5 128,-95.5 287,-95.5 287,-76.5 128,-76.5"/>
<text text-anchor="middle" x="207.5" y="-83.5" font-family="Helvetica,sans-Serif" font-size="10.00">draw_flash_select_case_slow</text>
</a>
</g>
</g>
<!-- Node1&#45;&gt;Node3 -->
<g id="edge2" class="edge">
<title>Node1&#45;&gt;Node3</title>
<path fill="none" stroke="midnightblue" d="M312.67,-97.06C304.22,-96.16 295.58,-95.24 287.08,-94.34"/>
<polygon fill="midnightblue" stroke="midnightblue" points="312.56,-100.57 322.88,-98.14 313.3,-93.6 312.56,-100.57"/>
</g>
<!-- Node4 -->
<g id="node4" class="node">
<title>Node4</title>
<g id="a_node4"><a xlink:href="code__80091750_8c.html#a052d92bf48a86317a047b5f3e6f16f55" target="_top" xlink:title=" ">
<polygon fill="white" stroke="black" points="0,-152.5 0,-171.5 92,-171.5 92,-152.5 0,-152.5"/>
<text text-anchor="middle" x="46" y="-159.5" font-family="Helvetica,sans-Serif" font-size="10.00">func_800A15EC</text>
</a>
</g>
</g>
<!-- Node3&#45;&gt;Node4 -->
<g id="edge3" class="edge">
<title>Node3&#45;&gt;Node4</title>
<path fill="none" stroke="midnightblue" d="M140.21,-99.05C135.97,-100.79 131.86,-102.77 128,-105 107.87,-116.66 111.12,-129.75 92,-143 86.7,-146.67 80.58,-149.84 74.6,-152.47"/>
<polygon fill="midnightblue" stroke="midnightblue" points="141.47,-102.32 149.66,-95.6 139.06,-95.75 141.47,-102.32"/>
</g>
<!-- Node5 -->
<g id="node5" class="node">
<title>Node5</title>
<g id="a_node5"><a xlink:href="code__80091750_8c.html#a7e459710ae9c0d013d2249ed42dabf83" target="_top" xlink:title=" ">
<polygon fill="white" stroke="black" points="0,-114.5 0,-133.5 92,-133.5 92,-114.5 0,-114.5"/>
<text text-anchor="middle" x="46" y="-121.5" font-family="Helvetica,sans-Serif" font-size="10.00">func_800A1924</text>
</a>
</g>
</g>
<!-- Node3&#45;&gt;Node5 -->
<g id="edge4" class="edge">
<title>Node3&#45;&gt;Node5</title>
<path fill="none" stroke="midnightblue" d="M156.27,-97.97C133.91,-103.29 107.96,-109.48 86.96,-114.48"/>
<polygon fill="midnightblue" stroke="midnightblue" points="157.33,-101.31 166.25,-95.59 155.71,-94.5 157.33,-101.31"/>
</g>
<!-- Node6 -->
<g id="node6" class="node">
<title>Node6</title>
<g id="a_node6"><a xlink:href="code__80091750_8c.html#a4e7df933a41660df5463f70ad4453699" target="_top" xlink:title=" ">
<polygon fill="white" stroke="black" points="0,-76.5 0,-95.5 92,-95.5 92,-76.5 0,-76.5"/>
<text text-anchor="middle" x="46" y="-83.5" font-family="Helvetica,sans-Serif" font-size="10.00">func_800A8270</text>
</a>
</g>
</g>
<!-- Node3&#45;&gt;Node6 -->
<g id="edge5" class="edge">
<title>Node3&#45;&gt;Node6</title>
<path fill="none" stroke="midnightblue" d="M117.66,-86C108.81,-86 100.12,-86 92.02,-86"/>
<polygon fill="midnightblue" stroke="midnightblue" points="117.68,-89.5 127.68,-86 117.68,-82.5 117.68,-89.5"/>
</g>
<!-- Node7 -->
<g id="node7" class="node">
<title>Node7</title>
<g id="a_node7"><a xlink:href="code__80091750_8c.html#abc25abe8d60dfd833e0bb0e0e37cd299" target="_top" xlink:title=" ">
<polygon fill="white" stroke="black" points="0,-38.5 0,-57.5 92,-57.5 92,-38.5 0,-38.5"/>
<text text-anchor="middle" x="46" y="-45.5" font-family="Helvetica,sans-Serif" font-size="10.00">func_800A890C</text>
</a>
</g>
</g>
<!-- Node3&#45;&gt;Node7 -->
<g id="edge6" class="edge">
<title>Node3&#45;&gt;Node7</title>
<path fill="none" stroke="midnightblue" d="M156.27,-74.03C133.91,-68.71 107.96,-62.52 86.96,-57.52"/>
<polygon fill="midnightblue" stroke="midnightblue" points="155.71,-77.5 166.25,-76.41 157.33,-70.69 155.71,-77.5"/>
</g>
<!-- Node8 -->
<g id="node8" class="node">
<title>Node8</title>
<g id="a_node8"><a xlink:href="code__80091750_8c.html#a03380c2117a86e09d085765ed0022f68" target="_top" xlink:title=" ">
<polygon fill="white" stroke="black" points="0,-0.5 0,-19.5 92,-19.5 92,-0.5 0,-0.5"/>
<text text-anchor="middle" x="46" y="-7.5" font-family="Helvetica,sans-Serif" font-size="10.00">func_800A8A98</text>
</a>
</g>
</g>
<!-- Node3&#45;&gt;Node8 -->
<g id="edge7" class="edge">
<title>Node3&#45;&gt;Node8</title>
<path fill="none" stroke="midnightblue" d="M178.85,-71.63C155.81,-59.8 122.01,-42.79 92,-29 85.06,-25.81 77.44,-22.52 70.48,-19.59"/>
<polygon fill="midnightblue" stroke="midnightblue" points="177.54,-74.89 188.03,-76.36 180.74,-68.67 177.54,-74.89"/>
</g>
</g>
</svg>
