<?xml version="1.0" encoding="UTF-8" standalone="no"?>
<!DOCTYPE svg PUBLIC "-//W3C//DTD SVG 1.1//EN"
 "http://www.w3.org/Graphics/SVG/1.1/DTD/svg11.dtd">
<!-- Generated by graphviz version 2.43.0 (0)
 -->
<!-- Title: text_draw Pages: 1 -->
<!--zoomable 400 -->

<svg id="main" version="1.1" xmlns="http://www.w3.org/2000/svg" xmlns:xlink="http://www.w3.org/1999/xlink" xml:space="preserve" onload="init(evt)">
<style type="text/css"><![CDATA[
.node, .edge {opacity: 0.7;}
.node.selected, .edge.selected {opacity: 1;}
.edge:hover path { stroke: red; }
.edge:hover polygon { stroke: red; fill: red; }
]]></style>

<defs>
  <circle id="rim" cx="0" cy="0" r="7"/>
  <circle id="rim2" cx="0" cy="0" r="3.5"/>
  <g id="zoomPlus">
    <use xlink:href="#rim" fill="#404040"><set attributeName="fill" to="#808080" begin="zoomplus.mouseover" end="zoomplus.mouseout"/></use>
    <path d="M-4,0h8M0,-4v8" fill="none" stroke="white" stroke-width="1.5" pointer-events="none"/>
  </g>
  <g id="zoomMin">
    <use xlink:href="#rim" fill="#404040"><set attributeName="fill" to="#808080" begin="zoomminus.mouseover" end="zoomminus.mouseout"/></use>
    <path d="M-4,0h8" fill="none" stroke="white" stroke-width="1.5" pointer-events="none"/>
  </g>
  <g id="arrowUp" transform="translate(30 24)">
    <use xlink:href="#rim"/>
    <path pointer-events="none" fill="none" stroke="white" stroke-width="1.5" d="M0,-3.0v7 M-2.5,-0.5L0,-3.0L2.5,-0.5"/>
  </g>
  <g id="arrowRight" transform="rotate(90) translate(36 -43)">
    <use xlink:href="#rim"/>
    <path pointer-events="none" fill="none" stroke="white" stroke-width="1.5" d="M0,-3.0v7 M-2.5,-0.5L0,-3.0L2.5,-0.5"/>
  </g>
  <g id="arrowDown" transform="rotate(180) translate(-30 -48)">
    <use xlink:href="#rim"/>
    <path pointer-events="none" fill="none" stroke="white" stroke-width="1.5" d="M0,-3.0v7 M-2.5,-0.5L0,-3.0L2.5,-0.5"/>
  </g>
  <g id="arrowLeft" transform="rotate(270) translate(-36 17)">
    <use xlink:href="#rim"/>
    <path pointer-events="none" fill="none" stroke="white" stroke-width="1.5" d="M0,-3.0v7 M-2.5,-0.5L0,-3.0L2.5,-0.5"/>
  </g>
  <g id="resetDef">
    <use xlink:href="#rim2" fill="#404040"><set attributeName="fill" to="#808080" begin="reset.mouseover" end="reset.mouseout"/></use>
  </g>
</defs>
<script type="application/ecmascript">
var viewWidth = 1664;
var viewHeight = 400;
var sectionId = 'dynsection-421';
</script>
<script type="application/ecmascript" xlink:href="svg.min.js"/>
<svg id="graph" class="graph">
<g id="viewport">
<title>text_draw</title>
<!-- Node1 -->
<g id="Node000001" class="node">
<title>Node1</title>
<g id="a_Node000001"><a xlink:title=" ">
<polygon fill="#999999" stroke="#666666" points="65,-166.35 0,-166.35 0,-147.35 65,-147.35 65,-166.35"/>
<text text-anchor="middle" x="32.5" y="-154.35" font-family="Helvetica,sans-Serif" font-size="10.00">text_draw</text>
</a>
</g>
</g>
<!-- Node2 -->
<g id="Node000002" class="node">
<title>Node2</title>
<g id="a_Node000002"><a xlink:href="code__80091750_8c.html#afa1d2583978658f8524340b7b94544b1" target="_top" xlink:title=" ">
<polygon fill="white" stroke="#666666" points="171,-166.35 101,-166.35 101,-147.35 171,-147.35 171,-166.35"/>
<text text-anchor="middle" x="136" y="-154.35" font-family="Helvetica,sans-Serif" font-size="10.00">print_text2</text>
</a>
</g>
</g>
<!-- Node1&#45;&gt;Node2 -->
<g id="edge1_Node000001_Node000002" class="edge">
<title>Node1&#45;&gt;Node2</title>
<g id="a_edge1_Node000001_Node000002"><a xlink:title=" ">
<path fill="none" stroke="#63b8ff" d="M65.06,-156.85C73.26,-156.85 82.24,-156.85 90.95,-156.85"/>
<polygon fill="#63b8ff" stroke="#63b8ff" points="90.99,-160.35 100.99,-156.85 90.99,-153.35 90.99,-160.35"/>
</a>
</g>
</g>
<!-- Node3 -->
<g id="Node000003" class="node">
<title>Node3</title>
<g id="a_Node000003"><a xlink:href="code__80091750_8c.html#ace62f40ce813c34904327e39643a0dbf" target="_top" xlink:title=" ">
<polygon fill="white" stroke="#666666" points="324,-240.35 207,-240.35 207,-221.35 324,-221.35 324,-240.35"/>
<text text-anchor="middle" x="265.5" y="-228.35" font-family="Helvetica,sans-Serif" font-size="10.00">char_to_glyph_index</text>
</a>
</g>
</g>
<!-- Node2&#45;&gt;Node3 -->
<g id="edge2_Node000002_Node000003" class="edge">
<title>Node2&#45;&gt;Node3</title>
<g id="a_edge2_Node000002_Node000003"><a xlink:title=" ">
<path fill="none" stroke="#63b8ff" d="M153.41,-166.37C175.09,-178.96 213.52,-201.26 239,-216.05"/>
<polygon fill="#63b8ff" stroke="#63b8ff" points="237.34,-219.14 247.75,-221.13 240.86,-213.08 237.34,-219.14"/>
</a>
</g>
</g>
<!-- Node7 -->
<g id="Node000007" class="node">
<title>Node7</title>
<g id="a_Node000007"><a xlink:href="code__80091750_8h.html#a003bc23ca6b163f0a02de87a0cc9d034" target="_top" xlink:title=" ">
<polygon fill="white" stroke="#666666" points="311,-185.35 220,-185.35 220,-166.35 311,-166.35 311,-185.35"/>
<text text-anchor="middle" x="265.5" y="-173.35" font-family="Helvetica,sans-Serif" font-size="10.00">func_80099184</text>
</a>
</g>
</g>
<!-- Node2&#45;&gt;Node7 -->
<g id="edge7_Node000002_Node000007" class="edge">
<title>Node2&#45;&gt;Node7</title>
<g id="a_edge7_Node000002_Node000007"><a xlink:title=" ">
<path fill="none" stroke="#63b8ff" d="M171.17,-161.94C182.92,-163.69 196.41,-165.7 209.4,-167.64"/>
<polygon fill="#63b8ff" stroke="#63b8ff" points="209.27,-171.16 219.67,-169.17 210.3,-164.23 209.27,-171.16"/>
</a>
</g>
</g>
<!-- Node8 -->
<g id="Node000008" class="node">
<title>Node8</title>
<g id="a_Node000008"><a xlink:href="code__80091750_8c.html#a282b6972049532b91a1cad60ae77460b" target="_top" xlink:title=" ">
<polygon fill="white" stroke="#666666" points="301,-148.35 230,-148.35 230,-129.35 301,-129.35 301,-148.35"/>
<text text-anchor="middle" x="265.5" y="-136.35" font-family="Helvetica,sans-Serif" font-size="10.00">print_letter</text>
</a>
</g>
</g>
<!-- Node2&#45;&gt;Node8 -->
<g id="edge8_Node000002_Node000008" class="edge">
<title>Node2&#45;&gt;Node8</title>
<g id="a_edge8_Node000002_Node000008"><a xlink:title=" ">
<path fill="none" stroke="#63b8ff" d="M171.17,-152.03C186.05,-149.92 203.7,-147.43 219.63,-145.18"/>
<polygon fill="#63b8ff" stroke="#63b8ff" points="220.38,-148.61 229.79,-143.75 219.4,-141.68 220.38,-148.61"/>
</a>
</g>
</g>
<!-- Node43 -->
<g id="Node000043" class="node">
<title>Node43</title>
<g id="a_Node000043"><a xlink:href="code__80091750_8c.html#a2d2758c3a87de891a40840727bef3306" target="_top" xlink:title=" ">
<polygon fill="white" stroke="#666666" points="512,-110.35 360,-110.35 360,-91.35 512,-91.35 512,-110.35"/>
<text text-anchor="middle" x="436" y="-98.35" font-family="Helvetica,sans-Serif" font-size="10.00">segmented_to_virtual_dupe</text>
</a>
</g>
</g>
<!-- Node2&#45;&gt;Node43 -->
<g id="edge58_Node000002_Node000043" class="edge">
<title>Node2&#45;&gt;Node43</title>
<g id="a_edge58_Node000002_Node000043"><a xlink:title=" ">
<path fill="none" stroke="#63b8ff" d="M151.02,-147.25C164.65,-138.45 186.29,-125.91 207,-119.85 252.97,-106.4 306.22,-101.4 349.69,-99.88"/>
<polygon fill="#63b8ff" stroke="#63b8ff" points="350.06,-103.37 359.95,-99.58 349.85,-96.38 350.06,-103.37"/>
</a>
</g>
</g>
<!-- Node4 -->
<g id="Node000004" class="node">
<title>Node4</title>
<g id="a_Node000004"><a xlink:href="code__80091750_8c.html#acd040d1eac6c147a7339fd7aa1bc8f50" target="_top" xlink:title=" ">
<polygon fill="white" stroke="#666666" points="482,-258.35 390,-258.35 390,-239.35 482,-239.35 482,-258.35"/>
<text text-anchor="middle" x="436" y="-246.35" font-family="Helvetica,sans-Serif" font-size="10.00">func_80092DF8</text>
</a>
</g>
</g>
<!-- Node3&#45;&gt;Node4 -->
<g id="edge3_Node000003_Node000004" class="edge">
<title>Node3&#45;&gt;Node4</title>
<g id="a_edge3_Node000003_Node000004"><a xlink:title=" ">
<path fill="none" stroke="#63b8ff" d="M324.02,-236.99C342.11,-238.93 362.04,-241.06 379.96,-242.97"/>
<polygon fill="#63b8ff" stroke="#63b8ff" points="379.65,-246.46 389.97,-244.04 380.4,-239.5 379.65,-246.46"/>
</a>
</g>
</g>
<!-- Node5 -->
<g id="Node000005" class="node">
<title>Node5</title>
<g id="a_Node000005"><a xlink:href="code__80091750_8c.html#acd5b29a8e8634aa4f3db4b9a7c5ba033" target="_top" xlink:title=" ">
<polygon fill="white" stroke="#666666" points="640,-277.35 548,-277.35 548,-258.35 640,-258.35 640,-277.35"/>
<text text-anchor="middle" x="594" y="-265.35" font-family="Helvetica,sans-Serif" font-size="10.00">func_80092E1C</text>
</a>
</g>
</g>
<!-- Node3&#45;&gt;Node5 -->
<g id="edge5_Node000003_Node000005" class="edge">
<title>Node3&#45;&gt;Node5</title>
<g id="a_edge5_Node000003_Node000005"><a xlink:title=" ">
<path fill="none" stroke="#63b8ff" d="M284.51,-240.35C302.9,-249.47 332.56,-262.62 360,-267.85 419.97,-279.28 490.21,-277.24 537.77,-273.63"/>
<polygon fill="#63b8ff" stroke="#63b8ff" points="538.18,-277.11 547.86,-272.81 537.61,-270.13 538.18,-277.11"/>
</a>
</g>
</g>
<!-- Node6 -->
<g id="Node000006" class="node">
<title>Node6</title>
<g id="a_Node000006"><a xlink:href="code__80091750_8c.html#ab26c8dca1828cd1d5a6c341cb851f0b9" target="_top" xlink:title=" ">
<polygon fill="white" stroke="#666666" points="481.5,-221.35 390.5,-221.35 390.5,-202.35 481.5,-202.35 481.5,-221.35"/>
<text text-anchor="middle" x="436" y="-209.35" font-family="Helvetica,sans-Serif" font-size="10.00">func_80092EE4</text>
</a>
</g>
</g>
<!-- Node3&#45;&gt;Node6 -->
<g id="edge6_Node000003_Node000006" class="edge">
<title>Node3&#45;&gt;Node6</title>
<g id="a_edge6_Node000003_Node000006"><a xlink:title=" ">
<path fill="none" stroke="#63b8ff" d="M324.02,-224.36C342.19,-222.31 362.22,-220.06 380.2,-218.03"/>
<polygon fill="#63b8ff" stroke="#63b8ff" points="380.69,-221.5 390.24,-216.9 379.91,-214.54 380.69,-221.5"/>
</a>
</g>
</g>
<!-- Node4&#45;&gt;Node5 -->
<g id="edge4_Node000004_Node000005" class="edge">
<title>Node4&#45;&gt;Node5</title>
<g id="a_edge4_Node000004_Node000005"><a xlink:title=" ">
<path fill="none" stroke="#63b8ff" d="M482.12,-254.34C499.58,-256.47 519.74,-258.93 538.04,-261.15"/>
<polygon fill="#63b8ff" stroke="#63b8ff" points="537.63,-264.63 547.98,-262.37 538.48,-257.68 537.63,-264.63"/>
</a>
</g>
</g>
<!-- Node9 -->
<g id="Node000009" class="node">
<title>Node9</title>
<g id="a_Node000009"><a xlink:href="code__80091750_8c.html#a37eb021a953285ba504198ac6ca73a9a" target="_top" xlink:title=" ">
<polygon fill="white" stroke="#666666" points="482.5,-184.35 389.5,-184.35 389.5,-165.35 482.5,-165.35 482.5,-184.35"/>
<text text-anchor="middle" x="436" y="-172.35" font-family="Helvetica,sans-Serif" font-size="10.00">func_80095BD0</text>
</a>
</g>
</g>
<!-- Node8&#45;&gt;Node9 -->
<g id="edge9_Node000008_Node000009" class="edge">
<title>Node8&#45;&gt;Node9</title>
<g id="a_edge9_Node000008_Node000009"><a xlink:title=" ">
<path fill="none" stroke="#63b8ff" d="M301.01,-146.22C323.79,-151.09 354.12,-157.57 380.17,-163.14"/>
<polygon fill="#63b8ff" stroke="#63b8ff" points="379.78,-166.63 390.29,-165.3 381.24,-159.78 379.78,-166.63"/>
</a>
</g>
</g>
<!-- Node42 -->
<g id="Node000042" class="node">
<title>Node42</title>
<g id="a_Node000042"><a xlink:href="code__80091750_8c.html#a6061a0dbb9b34a45fb1620c6c1d7f73c" target="_top" xlink:title=" ">
<polygon fill="white" stroke="#666666" points="482,-147.35 390,-147.35 390,-128.35 482,-128.35 482,-147.35"/>
<text text-anchor="middle" x="436" y="-135.35" font-family="Helvetica,sans-Serif" font-size="10.00">func_8009B8C4</text>
</a>
</g>
</g>
<!-- Node8&#45;&gt;Node42 -->
<g id="edge56_Node000008_Node000042" class="edge">
<title>Node8&#45;&gt;Node42</title>
<g id="a_edge56_Node000008_Node000042"><a xlink:title=" ">
<path fill="none" stroke="#63b8ff" d="M301.01,-138.64C323.7,-138.51 353.9,-138.33 379.88,-138.18"/>
<polygon fill="#63b8ff" stroke="#63b8ff" points="380,-141.68 389.98,-138.12 379.96,-134.68 380,-141.68"/>
</a>
</g>
</g>
<!-- Node8&#45;&gt;Node43 -->
<g id="edge57_Node000008_Node000043" class="edge">
<title>Node8&#45;&gt;Node43</title>
<g id="a_edge57_Node000008_Node000043"><a xlink:title=" ">
<path fill="none" stroke="#63b8ff" d="M301.01,-131.07C324.57,-125.75 356.22,-118.62 382.85,-112.61"/>
<polygon fill="#63b8ff" stroke="#63b8ff" points="383.79,-115.99 392.78,-110.37 382.25,-109.16 383.79,-115.99"/>
</a>
</g>
</g>
<!-- Node10 -->
<g id="Node000010" class="node">
<title>Node10</title>
<g id="a_Node000010"><a xlink:href="code__80091750_8c.html#ae0fd5923ba70cf6939cd3fa8d09c1191" target="_top" xlink:title=" ">
<polygon fill="white" stroke="#666666" points="639.5,-147.35 548.5,-147.35 548.5,-128.35 639.5,-128.35 639.5,-147.35"/>
<text text-anchor="middle" x="594" y="-135.35" font-family="Helvetica,sans-Serif" font-size="10.00">func_800959F8</text>
</a>
</g>
</g>
<!-- Node9&#45;&gt;Node10 -->
<g id="edge10_Node000009_Node000010" class="edge">
<title>Node9&#45;&gt;Node10</title>
<g id="a_edge10_Node000009_Node000010"><a xlink:title=" ">
<path fill="none" stroke="#63b8ff" d="M477.17,-165.32C497.2,-160.57 521.62,-154.78 542.87,-149.74"/>
<polygon fill="#63b8ff" stroke="#63b8ff" points="543.77,-153.12 552.69,-147.41 542.15,-146.31 543.77,-153.12"/>
</a>
</g>
</g>
<!-- Node11 -->
<g id="Node000011" class="node">
<title>Node11</title>
<g id="a_Node000011"><a xlink:href="code__80091750_8h.html#a9d4f5bccf624ab91bf0b7a450b8c0e73" target="_top" xlink:title=" ">
<polygon fill="white" stroke="#666666" points="640,-221.35 548,-221.35 548,-202.35 640,-202.35 640,-221.35"/>
<text text-anchor="middle" x="594" y="-209.35" font-family="Helvetica,sans-Serif" font-size="10.00">func_80095AE0</text>
</a>
</g>
</g>
<!-- Node9&#45;&gt;Node11 -->
<g id="edge11_Node000009_Node000011" class="edge">
<title>Node9&#45;&gt;Node11</title>
<g id="a_edge11_Node000009_Node000011"><a xlink:title=" ">
<path fill="none" stroke="#63b8ff" d="M477.17,-184.38C497.2,-189.13 521.62,-194.92 542.87,-199.96"/>
<polygon fill="#63b8ff" stroke="#63b8ff" points="542.15,-203.39 552.69,-202.29 543.77,-196.58 542.15,-203.39"/>
</a>
</g>
</g>
<!-- Node12 -->
<g id="Node000012" class="node">
<title>Node12</title>
<g id="a_Node000012"><a xlink:href="osSyncPrintf_8c.html#a8b417b868747c80d58f83d8a1e78ecf3" target="_top" xlink:title=" ">
<polygon fill="white" stroke="#666666" points="628,-184.35 560,-184.35 560,-165.35 628,-165.35 628,-184.35"/>
<text text-anchor="middle" x="594" y="-172.35" font-family="Helvetica,sans-Serif" font-size="10.00">rmonPrintf</text>
</a>
</g>
</g>
<!-- Node9&#45;&gt;Node12 -->
<g id="edge12_Node000009_Node000012" class="edge">
<title>Node9&#45;&gt;Node12</title>
<g id="a_edge12_Node000009_Node000012"><a xlink:title=" ">
<path fill="none" stroke="#63b8ff" d="M482.54,-174.85C503.62,-174.85 528.55,-174.85 549.39,-174.85"/>
<polygon fill="#63b8ff" stroke="#63b8ff" points="549.56,-178.35 559.56,-174.85 549.56,-171.35 549.56,-178.35"/>
</a>
</g>
</g>
<!-- Node13 -->
<g id="Node000013" class="node">
<title>Node13</title>
<g id="a_Node000013"><a xlink:href="__Printf_8c.html#a39bb05c90efce6c6790c5d58d271d72d" target="_top" xlink:title=" ">
<polygon fill="white" stroke="#666666" points="752.5,-203.35 704.5,-203.35 704.5,-184.35 752.5,-184.35 752.5,-203.35"/>
<text text-anchor="middle" x="728.5" y="-191.35" font-family="Helvetica,sans-Serif" font-size="10.00">_Printf</text>
</a>
</g>
</g>
<!-- Node12&#45;&gt;Node13 -->
<g id="edge13_Node000012_Node000013" class="edge">
<title>Node12&#45;&gt;Node13</title>
<g id="a_edge13_Node000012_Node000013"><a xlink:title=" ">
<path fill="none" stroke="#63b8ff" d="M628.09,-179.59C648.33,-182.5 674.12,-186.2 694.37,-189.1"/>
<polygon fill="#63b8ff" stroke="#63b8ff" points="693.99,-192.58 704.39,-190.53 694.98,-185.65 693.99,-192.58"/>
</a>
</g>
</g>
<!-- Node24 -->
<g id="Node000024" class="node">
<title>Node24</title>
<g id="a_Node000024"><a xlink:href="is__debug_8c.html#aaccfac8d9098530b6592eefe679d86b4" target="_top" xlink:title=" ">
<polygon fill="white" stroke="#666666" points="781,-166.35 676,-166.35 676,-147.35 781,-147.35 781,-166.35"/>
<text text-anchor="middle" x="728.5" y="-154.35" font-family="Helvetica,sans-Serif" font-size="10.00">is_proutSyncPrintf</text>
</a>
</g>
</g>
<!-- Node12&#45;&gt;Node24 -->
<g id="edge26_Node000012_Node000024" class="edge">
<title>Node12&#45;&gt;Node24</title>
<g id="a_edge26_Node000012_Node000024"><a xlink:title=" ">
<path fill="none" stroke="#63b8ff" d="M628.09,-170.35C639.46,-168.81 652.59,-167.03 665.5,-165.27"/>
<polygon fill="#63b8ff" stroke="#63b8ff" points="666.33,-168.69 675.77,-163.88 665.39,-161.75 666.33,-168.69"/>
</a>
</g>
</g>
<!-- Node14 -->
<g id="Node000014" class="node">
<title>Node14</title>
<g id="a_Node000014"><a xlink:href="__Printf_8c.html#ad73a5847f2d7c9de14cc2723da86bf45" target="_top" xlink:title=" ">
<polygon fill="white" stroke="#666666" points="881,-296.35 831,-296.35 831,-277.35 881,-277.35 881,-296.35"/>
<text text-anchor="middle" x="856" y="-284.35" font-family="Helvetica,sans-Serif" font-size="10.00">_Putfld</text>
</a>
</g>
</g>
<!-- Node13&#45;&gt;Node14 -->
<g id="edge14_Node000013_Node000014" class="edge">
<title>Node13&#45;&gt;Node14</title>
<g id="a_edge14_Node000013_Node000014"><a xlink:title=" ">
<path fill="none" stroke="#63b8ff" d="M742.46,-203.45C764.06,-219.46 807.65,-251.76 833.79,-271.13"/>
<polygon fill="#63b8ff" stroke="#63b8ff" points="831.81,-274.02 841.92,-277.16 835.97,-268.39 831.81,-274.02"/>
</a>
</g>
</g>
<!-- Node23 -->
<g id="Node000023" class="node">
<title>Node23</title>
<g id="a_Node000023"><a xlink:href="string_8c.html#a988b4defe51a1815ef3b9ddab10e7a89" target="_top" xlink:title=" ">
<polygon fill="white" stroke="#666666" points="878,-203.35 834,-203.35 834,-184.35 878,-184.35 878,-203.35"/>
<text text-anchor="middle" x="856" y="-191.35" font-family="Helvetica,sans-Serif" font-size="10.00">strchr</text>
</a>
</g>
</g>
<!-- Node13&#45;&gt;Node23 -->
<g id="edge25_Node000013_Node000023" class="edge">
<title>Node13&#45;&gt;Node23</title>
<g id="a_edge25_Node000013_Node000023"><a xlink:title=" ">
<path fill="none" stroke="#63b8ff" d="M752.52,-193.85C772.47,-193.85 801.51,-193.85 823.59,-193.85"/>
<polygon fill="#63b8ff" stroke="#63b8ff" points="823.8,-197.35 833.8,-193.85 823.8,-190.35 823.8,-197.35"/>
</a>
</g>
</g>
<!-- Node15 -->
<g id="Node000015" class="node">
<title>Node15</title>
<g id="a_Node000015"><a xlink:href="__Ldtob_8c.html#a7cc858157b66e15c831ad085113729ae" target="_top" xlink:title=" ">
<polygon fill="white" stroke="#666666" points="1010.5,-278.35 961.5,-278.35 961.5,-259.35 1010.5,-259.35 1010.5,-278.35"/>
<text text-anchor="middle" x="986" y="-266.35" font-family="Helvetica,sans-Serif" font-size="10.00">_Ldtob</text>
</a>
</g>
</g>
<!-- Node14&#45;&gt;Node15 -->
<g id="edge15_Node000014_Node000015" class="edge">
<title>Node14&#45;&gt;Node15</title>
<g id="a_edge15_Node000014_Node000015"><a xlink:title=" ">
<path fill="none" stroke="#63b8ff" d="M881.08,-283.46C900.96,-280.67 929.39,-276.67 951.5,-273.56"/>
<polygon fill="#63b8ff" stroke="#63b8ff" points="952.05,-277.02 961.46,-272.16 951.07,-270.09 952.05,-277.02"/>
</a>
</g>
</g>
<!-- Node20 -->
<g id="Node000020" class="node">
<title>Node20</title>
<g id="a_Node000020"><a xlink:href="__Litob_8c.html#aaaba3b0ab7920d422a61fe9e22600dd0" target="_top" xlink:title=" ">
<polygon fill="white" stroke="#666666" points="1009,-373.35 963,-373.35 963,-354.35 1009,-354.35 1009,-373.35"/>
<text text-anchor="middle" x="986" y="-361.35" font-family="Helvetica,sans-Serif" font-size="10.00">_Litob</text>
</a>
</g>
</g>
<!-- Node14&#45;&gt;Node20 -->
<g id="edge21_Node000014_Node000020" class="edge">
<title>Node14&#45;&gt;Node20</title>
<g id="a_edge21_Node000014_Node000020"><a xlink:title=" ">
<path fill="none" stroke="#63b8ff" d="M872.95,-296.45C894.8,-309.59 934.24,-333.32 960.02,-348.82"/>
<polygon fill="#63b8ff" stroke="#63b8ff" points="958.47,-351.98 968.85,-354.13 962.08,-345.98 958.47,-351.98"/>
</a>
</g>
</g>
<!-- Node22 -->
<g id="Node000022" class="node">
<title>Node22</title>
<g id="a_Node000022"><a xlink:href="string_8c.html#a008e171a518fe0e0352f31b245e03875" target="_top" xlink:title=" ">
<polygon fill="white" stroke="#666666" points="1008,-315.35 964,-315.35 964,-296.35 1008,-296.35 1008,-315.35"/>
<text text-anchor="middle" x="986" y="-303.35" font-family="Helvetica,sans-Serif" font-size="10.00">strlen</text>
</a>
</g>
</g>
<!-- Node14&#45;&gt;Node22 -->
<g id="edge24_Node000014_Node000022" class="edge">
<title>Node14&#45;&gt;Node22</title>
<g id="a_edge24_Node000014_Node000022"><a xlink:title=" ">
<path fill="none" stroke="#63b8ff" d="M881.08,-290.42C901.58,-293.47 931.19,-297.86 953.56,-301.18"/>
<polygon fill="#63b8ff" stroke="#63b8ff" points="953.18,-304.66 963.58,-302.67 954.21,-297.74 953.18,-304.66"/>
</a>
</g>
</g>
<!-- Node16 -->
<g id="Node000016" class="node">
<title>Node16</title>
<g id="a_Node000016"><a xlink:href="__Ldtob_8c.html#a2b6c5318b43bab1636bad9113ffb2761" target="_top" xlink:title=" ">
<polygon fill="white" stroke="#666666" points="1174.5,-297.35 1124.5,-297.35 1124.5,-278.35 1174.5,-278.35 1174.5,-297.35"/>
<text text-anchor="middle" x="1149.5" y="-285.35" font-family="Helvetica,sans-Serif" font-size="10.00">_Genld</text>
</a>
</g>
</g>
<!-- Node15&#45;&gt;Node16 -->
<g id="edge16_Node000015_Node000016" class="edge">
<title>Node15&#45;&gt;Node16</title>
<g id="a_edge16_Node000015_Node000016"><a xlink:title=" ">
<path fill="none" stroke="#63b8ff" d="M1010.83,-271.65C1038.18,-274.87 1083.27,-280.17 1114.35,-283.83"/>
<polygon fill="#63b8ff" stroke="#63b8ff" points="1113.97,-287.31 1124.31,-285 1114.79,-280.36 1113.97,-287.31"/>
</a>
</g>
</g>
<!-- Node17 -->
<g id="Node000017" class="node">
<title>Node17</title>
<g id="a_Node000017"><a xlink:href="string_8c.html#ad7f1ae1bbb49dece44bda378982a704d" target="_top" xlink:title=" ">
<polygon fill="white" stroke="#666666" points="1346.5,-335.35 1287.5,-335.35 1287.5,-316.35 1346.5,-316.35 1346.5,-335.35"/>
<text text-anchor="middle" x="1317" y="-323.35" font-family="Helvetica,sans-Serif" font-size="10.00">memcpy</text>
</a>
</g>
</g>
<!-- Node15&#45;&gt;Node17 -->
<g id="edge20_Node000015_Node000017" class="edge">
<title>Node15&#45;&gt;Node17</title>
<g id="a_edge20_Node000015_Node000017"><a xlink:title=" ">
<path fill="none" stroke="#63b8ff" d="M1010.68,-276.34C1020.22,-279.57 1031.26,-283.59 1041,-287.85 1057.58,-295.09 1059.63,-301.81 1077,-306.85 1145.38,-326.7 1229.09,-328.5 1277.11,-327.52"/>
<polygon fill="#63b8ff" stroke="#63b8ff" points="1277.47,-331.01 1287.37,-327.25 1277.29,-324.01 1277.47,-331.01"/>
</a>
</g>
</g>
<!-- Node18 -->
<g id="Node000018" class="node">
<title>Node18</title>
<g id="a_Node000018"><a xlink:href="__Ldtob_8c.html#ab7ade9ce60aaa8baa0244b503351d742" target="_top" xlink:title=" ">
<polygon fill="white" stroke="#666666" points="1185,-260.35 1114,-260.35 1114,-241.35 1185,-241.35 1185,-260.35"/>
<text text-anchor="middle" x="1149.5" y="-248.35" font-family="Helvetica,sans-Serif" font-size="10.00">_Ldunscale</text>
</a>
</g>
</g>
<!-- Node15&#45;&gt;Node18 -->
<g id="edge18_Node000015_Node000018" class="edge">
<title>Node15&#45;&gt;Node18</title>
<g id="a_edge18_Node000015_Node000018"><a xlink:title=" ">
<path fill="none" stroke="#63b8ff" d="M1010.83,-266.19C1035.16,-263.48 1073.52,-259.21 1103.58,-255.86"/>
<polygon fill="#63b8ff" stroke="#63b8ff" points="1104.27,-259.3 1113.82,-254.71 1103.5,-252.34 1104.27,-259.3"/>
</a>
</g>
</g>
<!-- Node19 -->
<g id="Node000019" class="node">
<title>Node19</title>
<g id="a_Node000019"><a xlink:href="ldiv_8c.html#a0302920caf64a5fbe1ce0862799d7784" target="_top" xlink:title=" ">
<polygon fill="white" stroke="#666666" points="1167,-223.35 1132,-223.35 1132,-204.35 1167,-204.35 1167,-223.35"/>
<text text-anchor="middle" x="1149.5" y="-211.35" font-family="Helvetica,sans-Serif" font-size="10.00">ldiv</text>
</a>
</g>
</g>
<!-- Node15&#45;&gt;Node19 -->
<g id="edge19_Node000015_Node000019" class="edge">
<title>Node15&#45;&gt;Node19</title>
<g id="a_edge19_Node000015_Node000019"><a xlink:title=" ">
<path fill="none" stroke="#63b8ff" d="M1008.92,-259.22C1026.97,-251.49 1053.36,-240.69 1077,-232.85 1091.62,-228 1108.24,-223.53 1121.77,-220.14"/>
<polygon fill="#63b8ff" stroke="#63b8ff" points="1122.98,-223.44 1131.86,-217.67 1121.32,-216.64 1122.98,-223.44"/>
</a>
</g>
</g>
<!-- Node16&#45;&gt;Node17 -->
<g id="edge17_Node000016_Node000017" class="edge">
<title>Node16&#45;&gt;Node17</title>
<g id="a_edge17_Node000016_Node000017"><a xlink:title=" ">
<path fill="none" stroke="#63b8ff" d="M1174.57,-293.37C1201.58,-299.58 1245.8,-309.73 1277.61,-317.03"/>
<polygon fill="#63b8ff" stroke="#63b8ff" points="1276.93,-320.47 1287.46,-319.3 1278.5,-313.65 1276.93,-320.47"/>
</a>
</g>
</g>
<!-- Node20&#45;&gt;Node17 -->
<g id="edge23_Node000020_Node000017" class="edge">
<title>Node20&#45;&gt;Node17</title>
<g id="a_edge23_Node000020_Node000017"><a xlink:title=" ">
<path fill="none" stroke="#63b8ff" d="M1009.2,-370.69C1051.48,-382.63 1146.11,-404.06 1222,-382.85 1250.43,-374.9 1278.83,-355.75 1296.85,-341.83"/>
<polygon fill="#63b8ff" stroke="#63b8ff" points="1299.17,-344.46 1304.81,-335.49 1294.81,-338.98 1299.17,-344.46"/>
</a>
</g>
</g>
<!-- Node21 -->
<g id="Node000021" class="node">
<title>Node21</title>
<g id="a_Node000021"><a xlink:href="ldiv_8c.html#a5b23c3639f11980dca762c5f1d74f339" target="_top" xlink:title=" ">
<polygon fill="white" stroke="#666666" points="1168.5,-373.35 1130.5,-373.35 1130.5,-354.35 1168.5,-354.35 1168.5,-373.35"/>
<text text-anchor="middle" x="1149.5" y="-361.35" font-family="Helvetica,sans-Serif" font-size="10.00">lldiv</text>
</a>
</g>
</g>
<!-- Node20&#45;&gt;Node21 -->
<g id="edge22_Node000020_Node000021" class="edge">
<title>Node20&#45;&gt;Node21</title>
<g id="a_edge22_Node000020_Node000021"><a xlink:title=" ">
<path fill="none" stroke="#63b8ff" d="M1009.12,-363.85C1037.86,-363.85 1088.12,-363.85 1119.78,-363.85"/>
<polygon fill="#63b8ff" stroke="#63b8ff" points="1120.14,-367.35 1130.14,-363.85 1120.14,-360.35 1120.14,-367.35"/>
</a>
</g>
</g>
<!-- Node25 -->
<g id="Node000025" class="node">
<title>Node25</title>
<g id="a_Node000025"><a xlink:href="is__debug_8c.html#ad34fb3f282468e860f91a71e933dbd27" target="_top" xlink:title=" ">
<polygon fill="white" stroke="#666666" points="894.5,-166.35 817.5,-166.35 817.5,-147.35 894.5,-147.35 894.5,-166.35"/>
<text text-anchor="middle" x="856" y="-154.35" font-family="Helvetica,sans-Serif" font-size="10.00">osEPiReadIo</text>
</a>
</g>
</g>
<!-- Node24&#45;&gt;Node25 -->
<g id="edge27_Node000024_Node000025" class="edge">
<title>Node24&#45;&gt;Node25</title>
<g id="a_edge27_Node000024_Node000025"><a xlink:title=" ">
<path fill="none" stroke="#63b8ff" d="M781.27,-156.85C789.81,-156.85 798.64,-156.85 807.08,-156.85"/>
<polygon fill="#63b8ff" stroke="#63b8ff" points="807.15,-160.35 817.15,-156.85 807.15,-153.35 807.15,-160.35"/>
</a>
</g>
</g>
<!-- Node40 -->
<g id="Node000040" class="node">
<title>Node40</title>
<g id="a_Node000040"><a xlink:href="is__debug_8c.html#a83116d80985dec6cd811d1167c49969f" target="_top" xlink:title=" ">
<polygon fill="white" stroke="#666666" points="895,-129.35 817,-129.35 817,-110.35 895,-110.35 895,-129.35"/>
<text text-anchor="middle" x="856" y="-117.35" font-family="Helvetica,sans-Serif" font-size="10.00">osEPiWriteIo</text>
</a>
</g>
</g>
<!-- Node24&#45;&gt;Node40 -->
<g id="edge52_Node000024_Node000040" class="edge">
<title>Node24&#45;&gt;Node40</title>
<g id="a_edge52_Node000024_Node000040"><a xlink:title=" ">
<path fill="none" stroke="#63b8ff" d="M761.82,-147.32C777.22,-142.78 795.84,-137.29 812.37,-132.42"/>
<polygon fill="#63b8ff" stroke="#63b8ff" points="813.75,-135.66 822.35,-129.47 811.77,-128.94 813.75,-135.66"/>
</a>
</g>
</g>
<!-- Node26 -->
<g id="Node000026" class="node">
<title>Node26</title>
<g id="a_Node000026"><a xlink:href="is__debug_8c.html#ac7f22425af62fbc8ea920010d08c96b9" target="_top" xlink:title=" ">
<polygon fill="white" stroke="#666666" points="1040,-203.35 932,-203.35 932,-184.35 1040,-184.35 1040,-203.35"/>
<text text-anchor="middle" x="986" y="-191.35" font-family="Helvetica,sans-Serif" font-size="10.00">__osEPiRawReadIo</text>
</a>
</g>
</g>
<!-- Node25&#45;&gt;Node26 -->
<g id="edge28_Node000025_Node000026" class="edge">
<title>Node25&#45;&gt;Node26</title>
<g id="a_edge28_Node000025_Node000026"><a xlink:title=" ">
<path fill="none" stroke="#63b8ff" d="M889.96,-166.38C905.81,-170.96 925.02,-176.51 942,-181.42"/>
<polygon fill="#63b8ff" stroke="#63b8ff" points="941.12,-184.81 951.7,-184.22 943.07,-178.09 941.12,-184.81"/>
</a>
</g>
</g>
<!-- Node27 -->
<g id="Node000027" class="node">
<title>Node27</title>
<g id="a_Node000027"><a xlink:href="____osPiCreateAccessQueue_8c.html#afd543b327be2093794db8fbef3a28149" target="_top" xlink:title=" ">
<polygon fill="white" stroke="#666666" points="1035,-166.35 937,-166.35 937,-147.35 1035,-147.35 1035,-166.35"/>
<text text-anchor="middle" x="986" y="-154.35" font-family="Helvetica,sans-Serif" font-size="10.00">__osPiGetAccess</text>
</a>
</g>
</g>
<!-- Node25&#45;&gt;Node27 -->
<g id="edge29_Node000025_Node000027" class="edge">
<title>Node25&#45;&gt;Node27</title>
<g id="a_edge29_Node000025_Node000027"><a xlink:title=" ">
<path fill="none" stroke="#63b8ff" d="M894.71,-156.85C904.66,-156.85 915.63,-156.85 926.4,-156.85"/>
<polygon fill="#63b8ff" stroke="#63b8ff" points="926.62,-160.35 936.62,-156.85 926.62,-153.35 926.62,-160.35"/>
</a>
</g>
</g>
<!-- Node39 -->
<g id="Node000039" class="node">
<title>Node39</title>
<g id="a_Node000039"><a xlink:href="____osPiCreateAccessQueue_8c.html#a063e76e89640a5d0e522c1c9fa92191d" target="_top" xlink:title=" ">
<polygon fill="white" stroke="#666666" points="1034.5,-129.35 937.5,-129.35 937.5,-110.35 1034.5,-110.35 1034.5,-129.35"/>
<text text-anchor="middle" x="986" y="-117.35" font-family="Helvetica,sans-Serif" font-size="10.00">__osPiRelAccess</text>
</a>
</g>
</g>
<!-- Node25&#45;&gt;Node39 -->
<g id="edge50_Node000025_Node000039" class="edge">
<title>Node25&#45;&gt;Node39</title>
<g id="a_edge50_Node000025_Node000039"><a xlink:title=" ">
<path fill="none" stroke="#63b8ff" d="M889.96,-147.32C905.81,-142.74 925.02,-137.19 942,-132.28"/>
<polygon fill="#63b8ff" stroke="#63b8ff" points="943.07,-135.61 951.7,-129.47 941.12,-128.89 943.07,-135.61"/>
</a>
</g>
</g>
<!-- Node28 -->
<g id="Node000028" class="node">
<title>Node28</title>
<g id="a_Node000028"><a xlink:href="____osPiCreateAccessQueue_8c.html#afc496f4056d156cbaf6043ff54bca313" target="_top" xlink:title=" ">
<polygon fill="white" stroke="#666666" points="1222,-147.35 1077,-147.35 1077,-128.35 1222,-128.35 1222,-147.35"/>
<text text-anchor="middle" x="1149.5" y="-135.35" font-family="Helvetica,sans-Serif" font-size="10.00">__osPiCreateAccessQueue</text>
</a>
</g>
</g>
<!-- Node27&#45;&gt;Node28 -->
<g id="edge30_Node000027_Node000028" class="edge">
<title>Node27&#45;&gt;Node28</title>
<g id="a_edge30_Node000027_Node000028"><a xlink:title=" ">
<path fill="none" stroke="#63b8ff" d="M1035.02,-151.2C1045.06,-150.02 1055.91,-148.74 1066.78,-147.46"/>
<polygon fill="#63b8ff" stroke="#63b8ff" points="1067.23,-150.94 1076.75,-146.29 1066.41,-143.98 1067.23,-150.94"/>
</a>
</g>
</g>
<!-- Node38 -->
<g id="Node000038" class="node">
<title>Node38</title>
<g id="a_Node000038"><a xlink:href="osRecvMesg_8c.html#aa254dc33e373f235a99e17f7717493dc" target="_top" xlink:title=" ">
<polygon fill="white" stroke="#666666" points="1356,-185.35 1278,-185.35 1278,-166.35 1356,-166.35 1356,-185.35"/>
<text text-anchor="middle" x="1317" y="-173.35" font-family="Helvetica,sans-Serif" font-size="10.00">osRecvMesg</text>
</a>
</g>
</g>
<!-- Node27&#45;&gt;Node38 -->
<g id="edge44_Node000027_Node000038" class="edge">
<title>Node27&#45;&gt;Node38</title>
<g id="a_edge44_Node000027_Node000038"><a xlink:title=" ">
<path fill="none" stroke="#63b8ff" d="M1035.19,-159.63C1097.45,-163.23 1205.22,-169.45 1267.58,-173.05"/>
<polygon fill="#63b8ff" stroke="#63b8ff" points="1267.75,-176.57 1277.93,-173.65 1268.15,-169.58 1267.75,-176.57"/>
</a>
</g>
</g>
<!-- Node29 -->
<g id="Node000029" class="node">
<title>Node29</title>
<g id="a_Node000029"><a xlink:href="osCreateMesgQueue_8c.html#aab783cab54141cb60618b45f534104b9" target="_top" xlink:title=" ">
<polygon fill="white" stroke="#666666" points="1376,-147.35 1258,-147.35 1258,-128.35 1376,-128.35 1376,-147.35"/>
<text text-anchor="middle" x="1317" y="-135.35" font-family="Helvetica,sans-Serif" font-size="10.00">osCreateMesgQueue</text>
</a>
</g>
</g>
<!-- Node28&#45;&gt;Node29 -->
<g id="edge31_Node000028_Node000029" class="edge">
<title>Node28&#45;&gt;Node29</title>
<g id="a_edge31_Node000028_Node000029"><a xlink:title=" ">
<path fill="none" stroke="#63b8ff" d="M1222.13,-137.85C1230.64,-137.85 1239.31,-137.85 1247.76,-137.85"/>
<polygon fill="#63b8ff" stroke="#63b8ff" points="1247.96,-141.35 1257.96,-137.85 1247.96,-134.35 1247.96,-141.35"/>
</a>
</g>
</g>
<!-- Node30 -->
<g id="Node000030" class="node">
<title>Node30</title>
<g id="a_Node000030"><a xlink:href="osSendMesg_8c.html#a413bd1b0a16c54dcc9e59c48b3d7f142" target="_top" xlink:title=" ">
<polygon fill="white" stroke="#666666" points="1356,-110.35 1278,-110.35 1278,-91.35 1356,-91.35 1356,-110.35"/>
<text text-anchor="middle" x="1317" y="-98.35" font-family="Helvetica,sans-Serif" font-size="10.00">osSendMesg</text>
</a>
</g>
</g>
<!-- Node28&#45;&gt;Node30 -->
<g id="edge32_Node000028_Node000030" class="edge">
<title>Node28&#45;&gt;Node30</title>
<g id="a_edge32_Node000028_Node000030"><a xlink:title=" ">
<path fill="none" stroke="#63b8ff" d="M1193.12,-128.32C1216,-123.21 1244.28,-116.88 1267.94,-111.59"/>
<polygon fill="#63b8ff" stroke="#63b8ff" points="1268.77,-115 1277.76,-109.4 1267.24,-108.16 1268.77,-115"/>
</a>
</g>
</g>
<!-- Node31 -->
<g id="Node000031" class="node">
<title>Node31</title>
<g id="a_Node000031"><a xlink:href="libultra__internal_8h.html#a8ad9db8aa6bfc4437abdd0363b663b16" target="_top" xlink:title=" ">
<polygon fill="white" stroke="#666666" points="1638.5,-262.35 1550.5,-262.35 1550.5,-243.35 1638.5,-243.35 1638.5,-262.35"/>
<text text-anchor="middle" x="1594.5" y="-250.35" font-family="Helvetica,sans-Serif" font-size="10.00">__osDisableInt</text>
</a>
</g>
</g>
<!-- Node30&#45;&gt;Node31 -->
<g id="edge33_Node000030_Node000031" class="edge">
<title>Node30&#45;&gt;Node31</title>
<g id="a_edge33_Node000030_Node000031"><a xlink:title=" ">
<path fill="none" stroke="#63b8ff" d="M1356.02,-108.03C1363.17,-110.61 1370.21,-114.11 1376,-118.85 1401.85,-140.02 1386.77,-162.94 1412,-184.85 1448.46,-216.51 1501.08,-234.04 1540.28,-243.34"/>
<polygon fill="#63b8ff" stroke="#63b8ff" points="1539.67,-246.79 1550.2,-245.58 1541.22,-239.96 1539.67,-246.79"/>
</a>
</g>
</g>
<!-- Node32 -->
<g id="Node000032" class="node">
<title>Node32</title>
<g id="a_Node000032"><a xlink:href="libultra__internal_8h.html#afe9c3abc4ca93d9fe18a87d9f108d5cb" target="_top" xlink:title=" ">
<polygon fill="white" stroke="#666666" points="1656,-203.35 1533,-203.35 1533,-184.35 1656,-184.35 1656,-203.35"/>
<text text-anchor="middle" x="1594.5" y="-191.35" font-family="Helvetica,sans-Serif" font-size="10.00">__osEnqueueAndYield</text>
</a>
</g>
</g>
<!-- Node30&#45;&gt;Node32 -->
<g id="edge34_Node000030_Node000032" class="edge">
<title>Node30&#45;&gt;Node32</title>
<g id="a_edge34_Node000030_Node000032"><a xlink:title=" ">
<path fill="none" stroke="#63b8ff" d="M1356.05,-109.59C1362.97,-112.02 1369.91,-115.06 1376,-118.85 1395.75,-131.14 1391.66,-145.56 1412,-156.85 1445.65,-175.53 1487.51,-184.83 1522.54,-189.44"/>
<polygon fill="#63b8ff" stroke="#63b8ff" points="1522.36,-192.94 1532.71,-190.67 1523.2,-185.99 1522.36,-192.94"/>
</a>
</g>
</g>
<!-- Node33 -->
<g id="Node000033" class="node">
<title>Node33</title>
<g id="a_Node000033"><a xlink:href="libultra__internal_8h.html#aaadded63bebce6cfdda5ecda193fc9ea" target="_top" xlink:title=" ">
<polygon fill="white" stroke="#666666" points="1639.5,-34.35 1549.5,-34.35 1549.5,-15.35 1639.5,-15.35 1639.5,-34.35"/>
<text text-anchor="middle" x="1594.5" y="-22.35" font-family="Helvetica,sans-Serif" font-size="10.00">__osPopThread</text>
</a>
</g>
</g>
<!-- Node30&#45;&gt;Node33 -->
<g id="edge35_Node000030_Node000033" class="edge">
<title>Node30&#45;&gt;Node33</title>
<g id="a_edge35_Node000030_Node000033"><a xlink:title=" ">
<path fill="none" stroke="#63b8ff" d="M1324.3,-91.05C1337.64,-71.34 1370.91,-27.35 1412,-10.85 1458.91,7.99 1518.06,-2.18 1555.84,-12.46"/>
<polygon fill="#63b8ff" stroke="#63b8ff" points="1555.32,-15.96 1565.9,-15.34 1557.25,-9.23 1555.32,-15.96"/>
</a>
</g>
</g>
<!-- Node34 -->
<g id="Node000034" class="node">
<title>Node34</title>
<g id="a_Node000034"><a xlink:href="libultra__internal_8h.html#aecafa57b85fd739d6033705808194def" target="_top" xlink:title=" ">
<polygon fill="white" stroke="#666666" points="1639,-92.35 1550,-92.35 1550,-73.35 1639,-73.35 1639,-92.35"/>
<text text-anchor="middle" x="1594.5" y="-80.35" font-family="Helvetica,sans-Serif" font-size="10.00">__osRestoreInt</text>
</a>
</g>
</g>
<!-- Node30&#45;&gt;Node34 -->
<g id="edge36_Node000030_Node000034" class="edge">
<title>Node30&#45;&gt;Node34</title>
<g id="a_edge36_Node000030_Node000034"><a xlink:title=" ">
<path fill="none" stroke="#63b8ff" d="M1356.29,-94.03C1373.29,-91.29 1393.59,-88.42 1412,-86.85 1454.73,-83.21 1503.31,-82.31 1539.45,-82.26"/>
<polygon fill="#63b8ff" stroke="#63b8ff" points="1539.77,-85.76 1549.78,-82.27 1539.78,-78.76 1539.77,-85.76"/>
</a>
</g>
</g>
<!-- Node35 -->
<g id="Node000035" class="node">
<title>Node35</title>
<g id="a_Node000035"><a xlink:href="osStartThread_8c.html#a3b144e814933e16a2fbf2642ad098ed3" target="_top" xlink:title=" ">
<polygon fill="white" stroke="#666666" points="1497,-148.35 1412,-148.35 1412,-129.35 1497,-129.35 1497,-148.35"/>
<text text-anchor="middle" x="1454.5" y="-136.35" font-family="Helvetica,sans-Serif" font-size="10.00">osStartThread</text>
</a>
</g>
</g>
<!-- Node30&#45;&gt;Node35 -->
<g id="edge37_Node000030_Node000035" class="edge">
<title>Node30&#45;&gt;Node35</title>
<g id="a_edge37_Node000030_Node000035"><a xlink:title=" ">
<path fill="none" stroke="#63b8ff" d="M1352.19,-110.44C1369.6,-115.32 1390.97,-121.31 1409.59,-126.53"/>
<polygon fill="#63b8ff" stroke="#63b8ff" points="1408.74,-129.93 1419.32,-129.26 1410.64,-123.19 1408.74,-129.93"/>
</a>
</g>
</g>
<!-- Node35&#45;&gt;Node31 -->
<g id="edge38_Node000035_Node000031" class="edge">
<title>Node35&#45;&gt;Node31</title>
<g id="a_edge38_Node000035_Node000031"><a xlink:title=" ">
<path fill="none" stroke="#63b8ff" d="M1464.55,-148.53C1478.53,-163.24 1506.53,-191.74 1533,-212.85 1544.26,-221.83 1557.54,-230.78 1568.79,-237.92"/>
<polygon fill="#63b8ff" stroke="#63b8ff" points="1566.96,-240.9 1577.29,-243.23 1570.66,-234.97 1566.96,-240.9"/>
</a>
</g>
</g>
<!-- Node35&#45;&gt;Node32 -->
<g id="edge40_Node000035_Node000032" class="edge">
<title>Node35&#45;&gt;Node32</title>
<g id="a_edge40_Node000035_Node000032"><a xlink:title=" ">
<path fill="none" stroke="#63b8ff" d="M1473.62,-148.5C1489.11,-156.5 1512.13,-167.82 1533,-175.85 1537.86,-177.72 1543,-179.52 1548.15,-181.2"/>
<polygon fill="#63b8ff" stroke="#63b8ff" points="1547.41,-184.64 1558,-184.3 1549.51,-177.96 1547.41,-184.64"/>
</a>
</g>
</g>
<!-- Node35&#45;&gt;Node33 -->
<g id="edge42_Node000035_Node000033" class="edge">
<title>Node35&#45;&gt;Node33</title>
<g id="a_edge42_Node000035_Node000033"><a xlink:title=" ">
<path fill="none" stroke="#63b8ff" d="M1464.49,-128.98C1478.4,-114 1506.31,-85.03 1533,-63.85 1543.94,-55.17 1556.85,-46.64 1567.93,-39.78"/>
<polygon fill="#63b8ff" stroke="#63b8ff" points="1569.99,-42.62 1576.73,-34.44 1566.36,-36.64 1569.99,-42.62"/>
</a>
</g>
</g>
<!-- Node35&#45;&gt;Node34 -->
<g id="edge43_Node000035_Node000034" class="edge">
<title>Node35&#45;&gt;Node34</title>
<g id="a_edge43_Node000035_Node000034"><a xlink:title=" ">
<path fill="none" stroke="#63b8ff" d="M1472.98,-129.24C1488.44,-120.98 1511.78,-109.14 1533,-100.85 1537.79,-98.98 1542.86,-97.19 1547.94,-95.51"/>
<polygon fill="#63b8ff" stroke="#63b8ff" points="1549.18,-98.79 1557.65,-92.44 1547.07,-92.12 1549.18,-98.79"/>
</a>
</g>
</g>
<!-- Node36 -->
<g id="Node000036" class="node">
<title>Node36</title>
<g id="a_Node000036"><a xlink:href="libultra__internal_8h.html#a650b788ebd5efde9c8cbccc1ee832445" target="_top" xlink:title=" ">
<polygon fill="white" stroke="#666666" points="1652,-166.35 1537,-166.35 1537,-147.35 1652,-147.35 1652,-166.35"/>
<text text-anchor="middle" x="1594.5" y="-154.35" font-family="Helvetica,sans-Serif" font-size="10.00">__osDispatchThread</text>
</a>
</g>
</g>
<!-- Node35&#45;&gt;Node36 -->
<g id="edge39_Node000035_Node000036" class="edge">
<title>Node35&#45;&gt;Node36</title>
<g id="a_edge39_Node000035_Node000036"><a xlink:title=" ">
<path fill="none" stroke="#63b8ff" d="M1497.28,-144.3C1506.62,-145.52 1516.75,-146.84 1526.82,-148.15"/>
<polygon fill="#63b8ff" stroke="#63b8ff" points="1526.47,-151.64 1536.84,-149.46 1527.37,-144.69 1526.47,-151.64"/>
</a>
</g>
</g>
<!-- Node37 -->
<g id="Node000037" class="node">
<title>Node37</title>
<g id="a_Node000037"><a xlink:href="libultra__internal_8h.html#ac9d6cfd19de5565e74f1d74a14e9092d" target="_top" xlink:title=" ">
<polygon fill="white" stroke="#666666" points="1651.5,-129.35 1537.5,-129.35 1537.5,-110.35 1651.5,-110.35 1651.5,-129.35"/>
<text text-anchor="middle" x="1594.5" y="-117.35" font-family="Helvetica,sans-Serif" font-size="10.00">__osEnqueueThread</text>
</a>
</g>
</g>
<!-- Node35&#45;&gt;Node37 -->
<g id="edge41_Node000035_Node000037" class="edge">
<title>Node35&#45;&gt;Node37</title>
<g id="a_edge41_Node000035_Node000037"><a xlink:title=" ">
<path fill="none" stroke="#63b8ff" d="M1497.28,-133.1C1506.74,-131.79 1517.01,-130.38 1527.21,-128.98"/>
<polygon fill="#63b8ff" stroke="#63b8ff" points="1527.91,-132.41 1537.34,-127.58 1526.96,-125.48 1527.91,-132.41"/>
</a>
</g>
</g>
<!-- Node38&#45;&gt;Node31 -->
<g id="edge45_Node000038_Node000031" class="edge">
<title>Node38&#45;&gt;Node31</title>
<g id="a_edge45_Node000038_Node000031"><a xlink:title=" ">
<path fill="none" stroke="#63b8ff" d="M1324.07,-185.45C1337.22,-205.22 1370.52,-250.06 1412,-266.85 1458.86,-285.82 1518.02,-275.61 1555.82,-265.29"/>
<polygon fill="#63b8ff" stroke="#63b8ff" points="1557.24,-268.52 1565.88,-262.4 1555.31,-261.8 1557.24,-268.52"/>
</a>
</g>
</g>
<!-- Node38&#45;&gt;Node32 -->
<g id="edge46_Node000038_Node000032" class="edge">
<title>Node38&#45;&gt;Node32</title>
<g id="a_edge46_Node000038_Node000032"><a xlink:title=" ">
<path fill="none" stroke="#63b8ff" d="M1356.26,-183.21C1373.26,-186.16 1393.56,-189.23 1412,-190.85 1448.42,-194.04 1489.1,-194.95 1522.7,-195"/>
<polygon fill="#63b8ff" stroke="#63b8ff" points="1522.89,-198.5 1532.89,-194.99 1522.88,-191.5 1522.89,-198.5"/>
</a>
</g>
</g>
<!-- Node38&#45;&gt;Node33 -->
<g id="edge47_Node000038_Node000033" class="edge">
<title>Node38&#45;&gt;Node33</title>
<g id="a_edge47_Node000038_Node000033"><a xlink:title=" ">
<path fill="none" stroke="#63b8ff" d="M1356.07,-167.29C1363.21,-164.47 1370.24,-160.75 1376,-155.85 1401.75,-133.95 1386.33,-110.84 1412,-88.85 1448.1,-57.92 1500.14,-41.6 1539.25,-33.21"/>
<polygon fill="#63b8ff" stroke="#63b8ff" points="1540.3,-36.56 1549.4,-31.14 1538.91,-29.7 1540.3,-36.56"/>
</a>
</g>
</g>
<!-- Node38&#45;&gt;Node34 -->
<g id="edge48_Node000038_Node000034" class="edge">
<title>Node38&#45;&gt;Node34</title>
<g id="a_edge48_Node000038_Node000034"><a xlink:title=" ">
<path fill="none" stroke="#63b8ff" d="M1353.82,-166.34C1361.44,-163.55 1369.23,-160.08 1376,-155.85 1395.19,-143.85 1392.07,-130.56 1412,-119.85 1451.48,-98.62 1501.78,-89.54 1539.41,-85.67"/>
<polygon fill="#63b8ff" stroke="#63b8ff" points="1540.04,-89.13 1549.67,-84.72 1539.39,-82.16 1540.04,-89.13"/>
</a>
</g>
</g>
<!-- Node38&#45;&gt;Node35 -->
<g id="edge49_Node000038_Node000035" class="edge">
<title>Node38&#45;&gt;Node35</title>
<g id="a_edge49_Node000038_Node000035"><a xlink:title=" ">
<path fill="none" stroke="#63b8ff" d="M1352.89,-166.32C1369.83,-161.7 1390.38,-156.08 1408.49,-151.14"/>
<polygon fill="#63b8ff" stroke="#63b8ff" points="1409.53,-154.48 1418.25,-148.47 1407.68,-147.73 1409.53,-154.48"/>
</a>
</g>
</g>
<!-- Node39&#45;&gt;Node30 -->
<g id="edge51_Node000039_Node000030" class="edge">
<title>Node39&#45;&gt;Node30</title>
<g id="a_edge51_Node000039_Node000030"><a xlink:title=" ">
<path fill="none" stroke="#63b8ff" d="M1034.84,-117.09C1097.13,-113.49 1205.41,-107.24 1267.86,-103.63"/>
<polygon fill="#63b8ff" stroke="#63b8ff" points="1268.06,-107.12 1277.84,-103.05 1267.66,-100.14 1268.06,-107.12"/>
</a>
</g>
</g>
<!-- Node40&#45;&gt;Node27 -->
<g id="edge54_Node000040_Node000027" class="edge">
<title>Node40&#45;&gt;Node27</title>
<g id="a_edge54_Node000040_Node000027"><a xlink:title=" ">
<path fill="none" stroke="#63b8ff" d="M889.96,-129.38C905.81,-133.96 925.02,-139.51 942,-144.42"/>
<polygon fill="#63b8ff" stroke="#63b8ff" points="941.12,-147.81 951.7,-147.22 943.07,-141.09 941.12,-147.81"/>
</a>
</g>
</g>
<!-- Node40&#45;&gt;Node39 -->
<g id="edge55_Node000040_Node000039" class="edge">
<title>Node40&#45;&gt;Node39</title>
<g id="a_edge55_Node000040_Node000039"><a xlink:title=" ">
<path fill="none" stroke="#63b8ff" d="M895.06,-119.85C905.11,-119.85 916.19,-119.85 927.04,-119.85"/>
<polygon fill="#63b8ff" stroke="#63b8ff" points="927.32,-123.35 937.32,-119.85 927.32,-116.35 927.32,-123.35"/>
</a>
</g>
</g>
<!-- Node41 -->
<g id="Node000041" class="node">
<title>Node41</title>
<g id="a_Node000041"><a xlink:href="____osEPiRawWriteIo_8c.html#a07ee1dfcab39279bfc470dd4f3303ea1" target="_top" xlink:title=" ">
<polygon fill="white" stroke="#666666" points="1041,-92.35 931,-92.35 931,-73.35 1041,-73.35 1041,-92.35"/>
<text text-anchor="middle" x="986" y="-80.35" font-family="Helvetica,sans-Serif" font-size="10.00">__osEPiRawWriteIo</text>
</a>
</g>
</g>
<!-- Node40&#45;&gt;Node41 -->
<g id="edge53_Node000040_Node000041" class="edge">
<title>Node40&#45;&gt;Node41</title>
<g id="a_edge53_Node000040_Node000041"><a xlink:title=" ">
<path fill="none" stroke="#63b8ff" d="M889.96,-110.32C905.81,-105.74 925.02,-100.19 942,-95.28"/>
<polygon fill="#63b8ff" stroke="#63b8ff" points="943.07,-98.61 951.7,-92.47 941.12,-91.89 943.07,-98.61"/>
</a>
</g>
</g>
</g>
</svg>

<g id="navigator" transform="translate(0 0)" fill="#404254">
  <rect fill="#f2f5e9" fill-opacity="0.5" stroke="#606060" stroke-width=".5" x="0" y="0" width="60" height="60"/>
  <use id="zoomplus" xlink:href="#zoomPlus" x="17" y="9" onmousedown="handleZoom(evt,'in')"/>
  <use id="zoomminus" xlink:href="#zoomMin" x="42" y="9" onmousedown="handleZoom(evt,'out')"/>
  <use id="reset" xlink:href="#resetDef" x="30" y="36" onmousedown="handleReset()"/>
   <use id="arrowup" xlink:href="#arrowUp" x="0" y="0" onmousedown="handlePan(0,-1)"/>
  <use id="arrowright" xlink:href="#arrowRight" x="0" y="0" onmousedown="handlePan(1,0)"/>
  <use id="arrowdown" xlink:href="#arrowDown" x="0" y="0" onmousedown="handlePan(0,1)"/>
  <use id="arrowleft" xlink:href="#arrowLeft" x="0" y="0" onmousedown="handlePan(-1,0)"/>
</g>
<svg viewBox="0 0 15 15" width="100%" height="30px" preserveAspectRatio="xMaxYMin meet">
 <g id="arrow_out" transform="scale(0.3 0.3)">
  <a xlink:href="code__80091750_8h_a54a4da908a31782d2dd58a320dea741e_cgraph_org.svg" target="_base">
   <rect id="button" ry="5" rx="5" y="6" x="6" height="38" width="38"
        fill="#f2f5e9" fill-opacity="0.5" stroke="#606060" stroke-width="1.0"/>
   <path id="arrow"
     d="M 11.500037,31.436501 C 11.940474,20.09759 22.043105,11.32322 32.158766,21.979434 L 37.068811,17.246167 C 37.068811,17.246167 37.088388,32 37.088388,32 L 22.160133,31.978069 C 22.160133,31.978069 26.997745,27.140456 26.997745,27.140456 C 18.528582,18.264221 13.291696,25.230495 11.500037,31.436501 z"
     style="fill:#404040;"/>
  </a>
 </g>
</svg>

<style type='text/css'>
<![CDATA[
[data-mouse-over-selected='false'] { opacity: 0.7; }
[data-mouse-over-selected='true']  { opacity: 1.0; }
]]>
</style>
<script type="application/ecmascript"><![CDATA[
document.addEventListener('DOMContentLoaded', (event) => {
  highlightEdges();
  highlightAdjacentNodes();
});
]]></script>
</svg>
