<?xml version="1.0" encoding="UTF-8" standalone="no"?>
<!DOCTYPE svg PUBLIC "-//W3C//DTD SVG 1.1//EN"
 "http://www.w3.org/Graphics/SVG/1.1/DTD/svg11.dtd">
<!-- Generated by graphviz version 2.43.0 (0)
 -->
<!-- Title: render_player_speech_bubble Pages: 1 -->
<svg width="524pt" height="227pt"
 viewBox="0.00 0.00 524.00 226.50" xmlns="http://www.w3.org/2000/svg" xmlns:xlink="http://www.w3.org/1999/xlink">
<g id="graph0" class="graph" transform="scale(1 1) rotate(0) translate(4 222.5)">
<title>render_player_speech_bubble</title>
<!-- Node1 -->
<g id="Node000001" class="node">
<title>Node1</title>
<g id="a_Node000001"><a xlink:title=" ">
<polygon fill="#999999" stroke="#666666" points="124,-81.5 0,-81.5 0,-51.5 124,-51.5 124,-81.5"/>
<text text-anchor="start" x="8" y="-69.5" font-family="Helvetica,sans-Serif" font-size="10.00">render_player_speech</text>
<text text-anchor="middle" x="62" y="-58.5" font-family="Helvetica,sans-Serif" font-size="10.00">_bubble</text>
</a>
</g>
</g>
<!-- Node2 -->
<g id="Node000002" class="node">
<title>Node2</title>
<g id="a_Node000002"><a xlink:href="math__util_8c.html#a5eb0d9752bc1557b7f4ae3809352a0eb" target="_top" xlink:title=" ">
<polygon fill="white" stroke="#666666" points="502.5,-114 464.5,-114 464.5,-95 502.5,-95 502.5,-114"/>
<text text-anchor="middle" x="483.5" y="-102" font-family="Helvetica,sans-Serif" font-size="10.00">coss</text>
</a>
</g>
</g>
<!-- Node1&#45;&gt;Node2 -->
<g id="edge1_Node000001_Node000002" class="edge">
<title>Node1&#45;&gt;Node2</title>
<g id="a_edge1_Node000001_Node000002"><a xlink:title=" ">
<path fill="none" stroke="#63b8ff" d="M124.45,-72.07C216.5,-80.4 386.57,-95.81 453.94,-101.91"/>
<polygon fill="#63b8ff" stroke="#63b8ff" points="453.93,-105.43 464.21,-102.84 454.56,-98.45 453.93,-105.43"/>
</a>
</g>
</g>
<!-- Node3 -->
<g id="Node000003" class="node">
<title>Node3</title>
<g id="a_Node000003"><a xlink:href="render__objects_8c.html#a9ea20c14c263ed864d8e02d082b6b18b" target="_top" xlink:title=" ">
<polygon fill="white" stroke="#666666" points="252,-19 160,-19 160,0 252,0 252,-19"/>
<text text-anchor="middle" x="206" y="-7" font-family="Helvetica,sans-Serif" font-size="10.00">func_8004B414</text>
</a>
</g>
</g>
<!-- Node1&#45;&gt;Node3 -->
<g id="edge2_Node000001_Node000003" class="edge">
<title>Node1&#45;&gt;Node3</title>
<g id="a_edge2_Node000001_Node000003"><a xlink:title=" ">
<path fill="none" stroke="#63b8ff" d="M100.68,-51.37C122.77,-42.51 150.42,-31.41 171.71,-22.86"/>
<polygon fill="#63b8ff" stroke="#63b8ff" points="173.02,-26.11 180.99,-19.14 170.41,-19.61 173.02,-26.11"/>
</a>
</g>
</g>
<!-- Node4 -->
<g id="Node000004" class="node">
<title>Node4</title>
<g id="a_Node000004"><a xlink:href="code__80057C60_8c.html#afe48d8fb3ea987ea8782c445f30eb8c3" target="_top" xlink:title=" ">
<polygon fill="white" stroke="#666666" points="252,-151 160,-151 160,-132 252,-132 252,-151"/>
<text text-anchor="middle" x="206" y="-139" font-family="Helvetica,sans-Serif" font-size="10.00">func_800652D4</text>
</a>
</g>
</g>
<!-- Node1&#45;&gt;Node4 -->
<g id="edge3_Node000001_Node000004" class="edge">
<title>Node1&#45;&gt;Node4</title>
<g id="a_edge3_Node000001_Node000004"><a xlink:title=" ">
<path fill="none" stroke="#63b8ff" d="M91.74,-81.68C116.78,-94.9 152.84,-113.95 177.51,-126.98"/>
<polygon fill="#63b8ff" stroke="#63b8ff" points="176.2,-130.25 186.68,-131.82 179.47,-124.06 176.2,-130.25"/>
</a>
</g>
</g>
<!-- Node9 -->
<g id="Node000009" class="node">
<title>Node9</title>
<g id="a_Node000009"><a xlink:href="math__util_8c.html#adcf81d47666b5d86c4a1dbcb06e47faf" target="_top" xlink:title=" ">
<polygon fill="white" stroke="#666666" points="501.5,-77 465.5,-77 465.5,-58 501.5,-58 501.5,-77"/>
<text text-anchor="middle" x="483.5" y="-65" font-family="Helvetica,sans-Serif" font-size="10.00">sins</text>
</a>
</g>
</g>
<!-- Node1&#45;&gt;Node9 -->
<g id="edge10_Node000001_Node000009" class="edge">
<title>Node1&#45;&gt;Node9</title>
<g id="a_edge10_Node000001_Node000009"><a xlink:title=" ">
<path fill="none" stroke="#63b8ff" d="M124.45,-66.65C217.15,-66.87 388.97,-67.28 455.35,-67.44"/>
<polygon fill="#63b8ff" stroke="#63b8ff" points="455.41,-70.94 465.42,-67.46 455.43,-63.94 455.41,-70.94"/>
</a>
</g>
</g>
<!-- Node5 -->
<g id="Node000005" class="node">
<title>Node5</title>
<g id="a_Node000005"><a xlink:href="render__player_8c.html#ab7bf9484e155990f138e03ae5339fc84" target="_top" xlink:title=" ">
<polygon fill="white" stroke="#666666" points="415,-218.5 288,-218.5 288,-188.5 415,-188.5 415,-218.5"/>
<text text-anchor="start" x="296" y="-206.5" font-family="Helvetica,sans-Serif" font-size="10.00">convert_to_fixed_point</text>
<text text-anchor="middle" x="351.5" y="-195.5" font-family="Helvetica,sans-Serif" font-size="10.00">_matrix</text>
</a>
</g>
</g>
<!-- Node4&#45;&gt;Node5 -->
<g id="edge4_Node000004_Node000005" class="edge">
<title>Node4&#45;&gt;Node5</title>
<g id="a_edge4_Node000004_Node000005"><a xlink:title=" ">
<path fill="none" stroke="#63b8ff" d="M227.19,-151.05C243.5,-158.68 267.11,-169.56 288,-178.5 292.71,-180.52 297.65,-182.58 302.59,-184.61"/>
<polygon fill="#63b8ff" stroke="#63b8ff" points="301.46,-187.93 312.04,-188.45 304.09,-181.44 301.46,-187.93"/>
</a>
</g>
</g>
<!-- Node7 -->
<g id="Node000007" class="node">
<title>Node7</title>
<g id="a_Node000007"><a xlink:href="render__player_8c.html#af0b657a736763c8b33412ed9d3111a61" target="_top" xlink:title=" ">
<polygon fill="white" stroke="#666666" points="390,-170 313,-170 313,-151 390,-151 390,-170"/>
<text text-anchor="middle" x="351.5" y="-158" font-family="Helvetica,sans-Serif" font-size="10.00">mtxf_scale2</text>
</a>
</g>
</g>
<!-- Node4&#45;&gt;Node7 -->
<g id="edge6_Node000004_Node000007" class="edge">
<title>Node4&#45;&gt;Node7</title>
<g id="a_edge6_Node000004_Node000007"><a xlink:title=" ">
<path fill="none" stroke="#63b8ff" d="M252.01,-147.46C268.21,-149.6 286.53,-152.03 302.94,-154.2"/>
<polygon fill="#63b8ff" stroke="#63b8ff" points="302.5,-157.68 312.88,-155.52 303.42,-150.74 302.5,-157.68"/>
</a>
</g>
</g>
<!-- Node8 -->
<g id="Node000008" class="node">
<title>Node8</title>
<g id="a_Node000008"><a xlink:href="render__player_8c.html#a565e21fd6aa0dacea58fb8a0e4304772" target="_top" xlink:title=" ">
<polygon fill="white" stroke="#666666" points="413,-133 290,-133 290,-114 413,-114 413,-133"/>
<text text-anchor="middle" x="351.5" y="-121" font-family="Helvetica,sans-Serif" font-size="10.00">mtxf_translate_rotate</text>
</a>
</g>
</g>
<!-- Node4&#45;&gt;Node8 -->
<g id="edge7_Node000004_Node000008" class="edge">
<title>Node4&#45;&gt;Node8</title>
<g id="a_edge7_Node000004_Node000008"><a xlink:title=" ">
<path fill="none" stroke="#63b8ff" d="M252.01,-135.85C260.82,-134.75 270.26,-133.56 279.68,-132.38"/>
<polygon fill="#63b8ff" stroke="#63b8ff" points="280.38,-135.82 289.87,-131.11 279.51,-128.88 280.38,-135.82"/>
</a>
</g>
</g>
<!-- Node6 -->
<g id="Node000006" class="node">
<title>Node6</title>
<g id="a_Node000006"><a xlink:href="guMtxF2L_8c.html#a40ab2d64c609839ff1e0ef0de2d0dcc4" target="_top" xlink:title=" ">
<polygon fill="white" stroke="#666666" points="516,-213 451,-213 451,-194 516,-194 516,-213"/>
<text text-anchor="middle" x="483.5" y="-201" font-family="Helvetica,sans-Serif" font-size="10.00">guMtxF2L</text>
</a>
</g>
</g>
<!-- Node5&#45;&gt;Node6 -->
<g id="edge5_Node000005_Node000006" class="edge">
<title>Node5&#45;&gt;Node6</title>
<g id="a_edge5_Node000005_Node000006"><a xlink:title=" ">
<path fill="none" stroke="#63b8ff" d="M415.22,-203.5C423.79,-203.5 432.42,-203.5 440.51,-203.5"/>
<polygon fill="#63b8ff" stroke="#63b8ff" points="440.77,-207 450.77,-203.5 440.77,-200 440.77,-207"/>
</a>
</g>
</g>
<!-- Node8&#45;&gt;Node2 -->
<g id="edge8_Node000008_Node000002" class="edge">
<title>Node8&#45;&gt;Node2</title>
<g id="a_edge8_Node000008_Node000002"><a xlink:title=" ">
<path fill="none" stroke="#63b8ff" d="M413.31,-114.61C427.73,-112.51 442.41,-110.36 454.53,-108.59"/>
<polygon fill="#63b8ff" stroke="#63b8ff" points="455.05,-112.05 464.44,-107.14 454.04,-105.12 455.05,-112.05"/>
</a>
</g>
</g>
<!-- Node8&#45;&gt;Node9 -->
<g id="edge9_Node000008_Node000009" class="edge">
<title>Node8&#45;&gt;Node9</title>
<g id="a_edge9_Node000008_Node000009"><a xlink:title=" ">
<path fill="none" stroke="#63b8ff" d="M374.85,-113.87C397.43,-104.14 432.32,-89.11 456.22,-78.82"/>
<polygon fill="#63b8ff" stroke="#63b8ff" points="457.61,-82.03 465.41,-74.86 454.85,-75.6 457.61,-82.03"/>
</a>
</g>
</g>
</g>
</svg>
