<?xml version="1.0" encoding="UTF-8" standalone="no"?>
<!DOCTYPE svg PUBLIC "-//W3C//DTD SVG 1.1//EN"
 "http://www.w3.org/Graphics/SVG/1.1/DTD/svg11.dtd">
<!-- Generated by graphviz version 2.43.0 (0)
 -->
<!-- Title: func_800A70E8 Pages: 1 -->
<svg width="1344pt" height="234pt"
 viewBox="0.00 0.00 1344.00 234.00" xmlns="http://www.w3.org/2000/svg" xmlns:xlink="http://www.w3.org/1999/xlink">
<g id="graph0" class="graph" transform="scale(1 1) rotate(0) translate(4 230)">
<title>func_800A70E8</title>
<!-- Node1 -->
<g id="Node000001" class="node">
<title>Node1</title>
<g id="a_Node000001"><a xlink:title=" ">
<polygon fill="#999999" stroke="#666666" points="92,-112 0,-112 0,-93 92,-93 92,-112"/>
<text text-anchor="middle" x="46" y="-100" font-family="Helvetica,sans-Serif" font-size="10.00">func_800A70E8</text>
</a>
</g>
</g>
<!-- Node2 -->
<g id="Node000002" class="node">
<title>Node2</title>
<g id="a_Node000002"><a xlink:href="code__80091750_8c.html#a4a3e73dfeae9dc0d77f213e77791181c" target="_top" xlink:title=" ">
<polygon fill="white" stroke="#666666" points="205.5,-169 141.5,-169 141.5,-150 205.5,-150 205.5,-169"/>
<text text-anchor="middle" x="173.5" y="-157" font-family="Helvetica,sans-Serif" font-size="10.00">draw_box</text>
</a>
</g>
</g>
<!-- Node1&#45;&gt;Node2 -->
<g id="edge1_Node000001_Node000002" class="edge">
<title>Node1&#45;&gt;Node2</title>
<g id="a_edge1_Node000001_Node000002"><a xlink:title=" ">
<path fill="none" stroke="#63b8ff" d="M68.01,-112.04C88.28,-121.25 119.18,-135.28 142.13,-145.71"/>
<polygon fill="#63b8ff" stroke="#63b8ff" points="140.87,-148.98 151.43,-149.93 143.77,-142.61 140.87,-148.98"/>
</a>
</g>
</g>
<!-- Node4 -->
<g id="Node000004" class="node">
<title>Node4</title>
<g id="a_Node000004"><a xlink:href="code__80091750_8c.html#a2b134c131148d0759dc80bd68f594cf3" target="_top" xlink:title=" ">
<polygon fill="white" stroke="#666666" points="219,-93 128,-93 128,-74 219,-74 219,-93"/>
<text text-anchor="middle" x="173.5" y="-81" font-family="Helvetica,sans-Serif" font-size="10.00">func_80093358</text>
</a>
</g>
</g>
<!-- Node1&#45;&gt;Node4 -->
<g id="edge3_Node000001_Node000004" class="edge">
<title>Node1&#45;&gt;Node4</title>
<g id="a_edge3_Node000001_Node000004"><a xlink:title=" ">
<path fill="none" stroke="#63b8ff" d="M92.31,-95.64C100.49,-94.4 109.11,-93.1 117.54,-91.82"/>
<polygon fill="#63b8ff" stroke="#63b8ff" points="118.32,-95.24 127.68,-90.29 117.27,-88.32 118.32,-95.24"/>
</a>
</g>
</g>
<!-- Node31 -->
<g id="Node000031" class="node">
<title>Node31</title>
<g id="a_Node000031"><a xlink:href="code__80091750_8c.html#a7d794365d2dcd6526ddb06e476bef1e3" target="_top" xlink:title=" ">
<polygon fill="white" stroke="#666666" points="353,-131 255,-131 255,-112 353,-112 353,-131"/>
<text text-anchor="middle" x="304" y="-119" font-family="Helvetica,sans-Serif" font-size="10.00">get_string_width</text>
</a>
</g>
</g>
<!-- Node1&#45;&gt;Node31 -->
<g id="edge34_Node000001_Node000031" class="edge">
<title>Node1&#45;&gt;Node31</title>
<g id="a_edge34_Node000001_Node000031"><a xlink:title=" ">
<path fill="none" stroke="#63b8ff" d="M92.18,-105.85C134.61,-109 198.34,-113.73 244.61,-117.17"/>
<polygon fill="#63b8ff" stroke="#63b8ff" points="244.56,-120.67 254.79,-117.92 245.08,-113.69 244.56,-120.67"/>
</a>
</g>
</g>
<!-- Node32 -->
<g id="Node000032" class="node">
<title>Node32</title>
<g id="a_Node000032"><a xlink:href="code__80091750_8c.html#a1a002f259a6c887d6672085b8cda7d4d" target="_top" xlink:title=" ">
<polygon fill="white" stroke="#666666" points="216.5,-56 130.5,-56 130.5,-37 216.5,-37 216.5,-56"/>
<text text-anchor="middle" x="173.5" y="-44" font-family="Helvetica,sans-Serif" font-size="10.00">set_text_color</text>
</a>
</g>
</g>
<!-- Node1&#45;&gt;Node32 -->
<g id="edge36_Node000001_Node000032" class="edge">
<title>Node1&#45;&gt;Node32</title>
<g id="a_edge36_Node000001_Node000032"><a xlink:title=" ">
<path fill="none" stroke="#63b8ff" d="M66.51,-92.99C82.83,-85.11 106.79,-73.76 128,-64.5 131.41,-63.01 134.98,-61.5 138.56,-60.01"/>
<polygon fill="#63b8ff" stroke="#63b8ff" points="140,-63.2 147.92,-56.17 137.34,-56.72 140,-63.2"/>
</a>
</g>
</g>
<!-- Node3 -->
<g id="Node000003" class="node">
<title>Node3</title>
<g id="a_Node000003"><a xlink:href="code__80091750_8c.html#a2341569d8bfc9b8aac7d5dab7933c999" target="_top" xlink:title=" ">
<polygon fill="white" stroke="#666666" points="344,-169 264,-169 264,-150 344,-150 344,-169"/>
<text text-anchor="middle" x="304" y="-157" font-family="Helvetica,sans-Serif" font-size="10.00">swap_values</text>
</a>
</g>
</g>
<!-- Node2&#45;&gt;Node3 -->
<g id="edge2_Node000002_Node000003" class="edge">
<title>Node2&#45;&gt;Node3</title>
<g id="a_edge2_Node000002_Node000003"><a xlink:title=" ">
<path fill="none" stroke="#63b8ff" d="M205.61,-159.5C219.99,-159.5 237.42,-159.5 253.53,-159.5"/>
<polygon fill="#63b8ff" stroke="#63b8ff" points="253.89,-163 263.89,-159.5 253.89,-156 253.89,-163"/>
</a>
</g>
</g>
<!-- Node5 -->
<g id="Node000005" class="node">
<title>Node5</title>
<g id="a_Node000005"><a xlink:href="code__80091750_8c.html#a07904969a6bc8374f305d668f432b26a" target="_top" xlink:title=" ">
<polygon fill="white" stroke="#666666" points="339,-93 269,-93 269,-74 339,-74 339,-93"/>
<text text-anchor="middle" x="304" y="-81" font-family="Helvetica,sans-Serif" font-size="10.00">print_text0</text>
</a>
</g>
</g>
<!-- Node4&#45;&gt;Node5 -->
<g id="edge4_Node000004_Node000005" class="edge">
<title>Node4&#45;&gt;Node5</title>
<g id="a_edge4_Node000004_Node000005"><a xlink:title=" ">
<path fill="none" stroke="#63b8ff" d="M219.08,-83.5C231.77,-83.5 245.59,-83.5 258.28,-83.5"/>
<polygon fill="#63b8ff" stroke="#63b8ff" points="258.63,-87 268.63,-83.5 258.63,-80 258.63,-87"/>
</a>
</g>
</g>
<!-- Node6 -->
<g id="Node000006" class="node">
<title>Node6</title>
<g id="a_Node000006"><a xlink:href="code__80091750_8c.html#ace62f40ce813c34904327e39643a0dbf" target="_top" xlink:title=" ">
<polygon fill="white" stroke="#666666" points="506,-131 389,-131 389,-112 506,-112 506,-131"/>
<text text-anchor="middle" x="447.5" y="-119" font-family="Helvetica,sans-Serif" font-size="10.00">char_to_glyph_index</text>
</a>
</g>
</g>
<!-- Node5&#45;&gt;Node6 -->
<g id="edge5_Node000005_Node000006" class="edge">
<title>Node5&#45;&gt;Node6</title>
<g id="a_edge5_Node000005_Node000006"><a xlink:title=" ">
<path fill="none" stroke="#63b8ff" d="M339.25,-92.7C357.87,-97.7 381.12,-103.94 401.21,-109.34"/>
<polygon fill="#63b8ff" stroke="#63b8ff" points="400.52,-112.78 411.08,-111.99 402.33,-106.02 400.52,-112.78"/>
</a>
</g>
</g>
<!-- Node10 -->
<g id="Node000010" class="node">
<title>Node10</title>
<g id="a_Node000010"><a xlink:href="code__80091750_8h.html#a003bc23ca6b163f0a02de87a0cc9d034" target="_top" xlink:title=" ">
<polygon fill="white" stroke="#666666" points="493,-94 402,-94 402,-75 493,-75 493,-94"/>
<text text-anchor="middle" x="447.5" y="-82" font-family="Helvetica,sans-Serif" font-size="10.00">func_80099184</text>
</a>
</g>
</g>
<!-- Node5&#45;&gt;Node10 -->
<g id="edge10_Node000005_Node000010" class="edge">
<title>Node5&#45;&gt;Node10</title>
<g id="a_edge10_Node000005_Node000010"><a xlink:title=" ">
<path fill="none" stroke="#63b8ff" d="M339.25,-83.74C354.98,-83.85 374.02,-83.99 391.66,-84.11"/>
<polygon fill="#63b8ff" stroke="#63b8ff" points="391.83,-87.61 401.86,-84.18 391.88,-80.61 391.83,-87.61"/>
</a>
</g>
</g>
<!-- Node11 -->
<g id="Node000011" class="node">
<title>Node11</title>
<g id="a_Node000011"><a xlink:href="code__80091750_8c.html#a282b6972049532b91a1cad60ae77460b" target="_top" xlink:title=" ">
<polygon fill="white" stroke="#666666" points="483,-57 412,-57 412,-38 483,-38 483,-57"/>
<text text-anchor="middle" x="447.5" y="-45" font-family="Helvetica,sans-Serif" font-size="10.00">print_letter</text>
</a>
</g>
</g>
<!-- Node5&#45;&gt;Node11 -->
<g id="edge11_Node000005_Node000011" class="edge">
<title>Node5&#45;&gt;Node11</title>
<g id="a_edge11_Node000005_Node000011"><a xlink:title=" ">
<path fill="none" stroke="#63b8ff" d="M339.25,-74.79C358.01,-70.01 381.47,-64.05 401.66,-58.91"/>
<polygon fill="#63b8ff" stroke="#63b8ff" points="402.75,-62.24 411.58,-56.38 401.02,-55.46 402.75,-62.24"/>
</a>
</g>
</g>
<!-- Node30 -->
<g id="Node000030" class="node">
<title>Node30</title>
<g id="a_Node000030"><a xlink:href="code__80091750_8c.html#a2d2758c3a87de891a40840727bef3306" target="_top" xlink:title=" ">
<polygon fill="white" stroke="#666666" points="694,-19 542,-19 542,0 694,0 694,-19"/>
<text text-anchor="middle" x="618" y="-7" font-family="Helvetica,sans-Serif" font-size="10.00">segmented_to_virtual_dupe</text>
</a>
</g>
</g>
<!-- Node5&#45;&gt;Node30 -->
<g id="edge33_Node000005_Node000030" class="edge">
<title>Node5&#45;&gt;Node30</title>
<g id="a_edge33_Node000005_Node000030"><a xlink:title=" ">
<path fill="none" stroke="#63b8ff" d="M315.73,-73.89C330.84,-60.99 359.83,-38.54 389,-28.5 434.56,-12.82 488.13,-7.74 531.9,-6.72"/>
<polygon fill="#63b8ff" stroke="#63b8ff" points="532,-10.22 541.94,-6.56 531.88,-3.22 532,-10.22"/>
</a>
</g>
</g>
<!-- Node7 -->
<g id="Node000007" class="node">
<title>Node7</title>
<g id="a_Node000007"><a xlink:href="code__80091750_8c.html#ae8ba1b567dba01ff15c64d416653a70b" target="_top" xlink:title=" ">
<polygon fill="white" stroke="#666666" points="664,-206 572,-206 572,-187 664,-187 664,-206"/>
<text text-anchor="middle" x="618" y="-194" font-family="Helvetica,sans-Serif" font-size="10.00">func_80092DF8</text>
</a>
</g>
</g>
<!-- Node6&#45;&gt;Node7 -->
<g id="edge6_Node000006_Node000007" class="edge">
<title>Node6&#45;&gt;Node7</title>
<g id="a_edge6_Node000006_Node000007"><a xlink:title=" ">
<path fill="none" stroke="#63b8ff" d="M463.93,-131.1C482.1,-142.13 513.44,-160.27 542,-172.5 551.81,-176.7 562.61,-180.57 572.88,-183.92"/>
<polygon fill="#63b8ff" stroke="#63b8ff" points="571.93,-187.29 582.52,-186.97 574.04,-180.62 571.93,-187.29"/>
</a>
</g>
</g>
<!-- Node8 -->
<g id="Node000008" class="node">
<title>Node8</title>
<g id="a_Node000008"><a xlink:href="code__80091750_8c.html#acd5b29a8e8634aa4f3db4b9a7c5ba033" target="_top" xlink:title=" ">
<polygon fill="white" stroke="#666666" points="822,-187 730,-187 730,-168 822,-168 822,-187"/>
<text text-anchor="middle" x="776" y="-175" font-family="Helvetica,sans-Serif" font-size="10.00">func_80092E1C</text>
</a>
</g>
</g>
<!-- Node6&#45;&gt;Node8 -->
<g id="edge8_Node000006_Node000008" class="edge">
<title>Node6&#45;&gt;Node8</title>
<g id="a_edge8_Node000006_Node000008"><a xlink:title=" ">
<path fill="none" stroke="#63b8ff" d="M500.41,-131.07C513.94,-133.53 528.51,-136.14 542,-138.5 602.79,-149.11 672.61,-160.72 719.84,-168.49"/>
<polygon fill="#63b8ff" stroke="#63b8ff" points="719.43,-171.97 729.87,-170.14 720.56,-165.06 719.43,-171.97"/>
</a>
</g>
</g>
<!-- Node9 -->
<g id="Node000009" class="node">
<title>Node9</title>
<g id="a_Node000009"><a xlink:href="code__80091750_8c.html#ab26c8dca1828cd1d5a6c341cb851f0b9" target="_top" xlink:title=" ">
<polygon fill="white" stroke="#666666" points="663.5,-130 572.5,-130 572.5,-111 663.5,-111 663.5,-130"/>
<text text-anchor="middle" x="618" y="-118" font-family="Helvetica,sans-Serif" font-size="10.00">func_80092EE4</text>
</a>
</g>
</g>
<!-- Node6&#45;&gt;Node9 -->
<g id="edge9_Node000006_Node000009" class="edge">
<title>Node6&#45;&gt;Node9</title>
<g id="a_edge9_Node000006_Node000009"><a xlink:title=" ">
<path fill="none" stroke="#63b8ff" d="M506.02,-121.16C524.19,-121.05 544.22,-120.93 562.2,-120.83"/>
<polygon fill="#63b8ff" stroke="#63b8ff" points="562.26,-124.33 572.24,-120.77 562.22,-117.33 562.26,-124.33"/>
</a>
</g>
</g>
<!-- Node7&#45;&gt;Node8 -->
<g id="edge7_Node000007_Node000008" class="edge">
<title>Node7&#45;&gt;Node8</title>
<g id="a_edge7_Node000007_Node000008"><a xlink:title=" ">
<path fill="none" stroke="#63b8ff" d="M664.12,-191C681.58,-188.88 701.74,-186.42 720.04,-184.19"/>
<polygon fill="#63b8ff" stroke="#63b8ff" points="720.48,-187.67 729.98,-182.98 719.63,-180.72 720.48,-187.67"/>
</a>
</g>
</g>
<!-- Node12 -->
<g id="Node000012" class="node">
<title>Node12</title>
<g id="a_Node000012"><a xlink:href="code__80091750_8c.html#a37eb021a953285ba504198ac6ca73a9a" target="_top" xlink:title=" ">
<polygon fill="white" stroke="#666666" points="664.5,-93 571.5,-93 571.5,-74 664.5,-74 664.5,-93"/>
<text text-anchor="middle" x="618" y="-81" font-family="Helvetica,sans-Serif" font-size="10.00">func_80095BD0</text>
</a>
</g>
</g>
<!-- Node11&#45;&gt;Node12 -->
<g id="edge12_Node000011_Node000012" class="edge">
<title>Node11&#45;&gt;Node12</title>
<g id="a_edge12_Node000011_Node000012"><a xlink:title=" ">
<path fill="none" stroke="#63b8ff" d="M483.01,-54.87C505.79,-59.74 536.12,-66.22 562.17,-71.79"/>
<polygon fill="#63b8ff" stroke="#63b8ff" points="561.78,-75.28 572.29,-73.95 563.24,-68.44 561.78,-75.28"/>
</a>
</g>
</g>
<!-- Node29 -->
<g id="Node000029" class="node">
<title>Node29</title>
<g id="a_Node000029"><a xlink:href="code__80091750_8c.html#a6061a0dbb9b34a45fb1620c6c1d7f73c" target="_top" xlink:title=" ">
<polygon fill="white" stroke="#666666" points="664,-56 572,-56 572,-37 664,-37 664,-56"/>
<text text-anchor="middle" x="618" y="-44" font-family="Helvetica,sans-Serif" font-size="10.00">func_8009B8C4</text>
</a>
</g>
</g>
<!-- Node11&#45;&gt;Node29 -->
<g id="edge31_Node000011_Node000029" class="edge">
<title>Node11&#45;&gt;Node29</title>
<g id="a_edge31_Node000011_Node000029"><a xlink:title=" ">
<path fill="none" stroke="#63b8ff" d="M483.01,-47.3C505.7,-47.16 535.9,-46.98 561.88,-46.83"/>
<polygon fill="#63b8ff" stroke="#63b8ff" points="562,-50.33 571.98,-46.77 561.96,-43.33 562,-50.33"/>
</a>
</g>
</g>
<!-- Node11&#45;&gt;Node30 -->
<g id="edge32_Node000011_Node000030" class="edge">
<title>Node11&#45;&gt;Node30</title>
<g id="a_edge32_Node000011_Node000030"><a xlink:title=" ">
<path fill="none" stroke="#63b8ff" d="M483.01,-39.72C506.57,-34.4 538.22,-27.27 564.85,-21.26"/>
<polygon fill="#63b8ff" stroke="#63b8ff" points="565.79,-24.64 574.78,-19.02 564.25,-17.81 565.79,-24.64"/>
</a>
</g>
</g>
<!-- Node13 -->
<g id="Node000013" class="node">
<title>Node13</title>
<g id="a_Node000013"><a xlink:href="code__80091750_8c.html#ae0fd5923ba70cf6939cd3fa8d09c1191" target="_top" xlink:title=" ">
<polygon fill="white" stroke="#666666" points="821.5,-130 730.5,-130 730.5,-111 821.5,-111 821.5,-130"/>
<text text-anchor="middle" x="776" y="-118" font-family="Helvetica,sans-Serif" font-size="10.00">func_800959F8</text>
</a>
</g>
</g>
<!-- Node12&#45;&gt;Node13 -->
<g id="edge13_Node000012_Node000013" class="edge">
<title>Node12&#45;&gt;Node13</title>
<g id="a_edge13_Node000012_Node000013"><a xlink:title=" ">
<path fill="none" stroke="#63b8ff" d="M659.17,-93.03C679.2,-97.78 703.62,-103.57 724.87,-108.61"/>
<polygon fill="#63b8ff" stroke="#63b8ff" points="724.15,-112.04 734.69,-110.94 725.77,-105.23 724.15,-112.04"/>
</a>
</g>
</g>
<!-- Node14 -->
<g id="Node000014" class="node">
<title>Node14</title>
<g id="a_Node000014"><a xlink:href="code__80091750_8c.html#a6c24b866d3618758d63cb5ec18cf1c88" target="_top" xlink:title=" ">
<polygon fill="white" stroke="#666666" points="822,-93 730,-93 730,-74 822,-74 822,-93"/>
<text text-anchor="middle" x="776" y="-81" font-family="Helvetica,sans-Serif" font-size="10.00">func_80095AE0</text>
</a>
</g>
</g>
<!-- Node12&#45;&gt;Node14 -->
<g id="edge14_Node000012_Node000014" class="edge">
<title>Node12&#45;&gt;Node14</title>
<g id="a_edge14_Node000012_Node000014"><a xlink:title=" ">
<path fill="none" stroke="#63b8ff" d="M664.54,-83.5C681.84,-83.5 701.73,-83.5 719.82,-83.5"/>
<polygon fill="#63b8ff" stroke="#63b8ff" points="719.94,-87 729.94,-83.5 719.94,-80 719.94,-87"/>
</a>
</g>
</g>
<!-- Node16 -->
<g id="Node000016" class="node">
<title>Node16</title>
<g id="a_Node000016"><a xlink:href="osSyncPrintf_8c.html#a8b417b868747c80d58f83d8a1e78ecf3" target="_top" xlink:title=" ">
<polygon fill="white" stroke="#666666" points="810,-56 742,-56 742,-37 810,-37 810,-56"/>
<text text-anchor="middle" x="776" y="-44" font-family="Helvetica,sans-Serif" font-size="10.00">rmonPrintf</text>
</a>
</g>
</g>
<!-- Node12&#45;&gt;Node16 -->
<g id="edge16_Node000012_Node000016" class="edge">
<title>Node12&#45;&gt;Node16</title>
<g id="a_edge16_Node000012_Node000016"><a xlink:title=" ">
<path fill="none" stroke="#63b8ff" d="M659.17,-73.97C681.51,-68.67 709.3,-62.08 732.06,-56.68"/>
<polygon fill="#63b8ff" stroke="#63b8ff" points="732.88,-60.09 741.8,-54.37 731.27,-53.28 732.88,-60.09"/>
</a>
</g>
</g>
<!-- Node15 -->
<g id="Node000015" class="node">
<title>Node15</title>
<g id="a_Node000015"><a xlink:href="guMtxF2L_8c.html#a40ab2d64c609839ff1e0ef0de2d0dcc4" target="_top" xlink:title=" ">
<polygon fill="white" stroke="#666666" points="943,-93 878,-93 878,-74 943,-74 943,-93"/>
<text text-anchor="middle" x="910.5" y="-81" font-family="Helvetica,sans-Serif" font-size="10.00">guMtxF2L</text>
</a>
</g>
</g>
<!-- Node14&#45;&gt;Node15 -->
<g id="edge15_Node000014_Node000015" class="edge">
<title>Node14&#45;&gt;Node15</title>
<g id="a_edge15_Node000014_Node000015"><a xlink:title=" ">
<path fill="none" stroke="#63b8ff" d="M822.23,-83.5C836.95,-83.5 853.21,-83.5 867.67,-83.5"/>
<polygon fill="#63b8ff" stroke="#63b8ff" points="867.83,-87 877.83,-83.5 867.83,-80 867.83,-87"/>
</a>
</g>
</g>
<!-- Node17 -->
<g id="Node000017" class="node">
<title>Node17</title>
<g id="a_Node000017"><a xlink:href="__Printf_8c.html#a39bb05c90efce6c6790c5d58d271d72d" target="_top" xlink:title=" ">
<polygon fill="white" stroke="#666666" points="934.5,-56 886.5,-56 886.5,-37 934.5,-37 934.5,-56"/>
<text text-anchor="middle" x="910.5" y="-44" font-family="Helvetica,sans-Serif" font-size="10.00">_Printf</text>
</a>
</g>
</g>
<!-- Node16&#45;&gt;Node17 -->
<g id="edge17_Node000016_Node000017" class="edge">
<title>Node16&#45;&gt;Node17</title>
<g id="a_edge17_Node000016_Node000017"><a xlink:title=" ">
<path fill="none" stroke="#63b8ff" d="M810.09,-46.5C830.33,-46.5 856.12,-46.5 876.37,-46.5"/>
<polygon fill="#63b8ff" stroke="#63b8ff" points="876.39,-50 886.39,-46.5 876.39,-43 876.39,-50"/>
</a>
</g>
</g>
<!-- Node28 -->
<g id="Node000028" class="node">
<title>Node28</title>
<g id="a_Node000028"><a xlink:href="is__debug_8c.html#aaccfac8d9098530b6592eefe679d86b4" target="_top" xlink:title=" ">
<polygon fill="white" stroke="#666666" points="963,-19 858,-19 858,0 963,0 963,-19"/>
<text text-anchor="middle" x="910.5" y="-7" font-family="Helvetica,sans-Serif" font-size="10.00">is_proutSyncPrintf</text>
</a>
</g>
</g>
<!-- Node16&#45;&gt;Node28 -->
<g id="edge30_Node000016_Node000028" class="edge">
<title>Node16&#45;&gt;Node28</title>
<g id="a_edge30_Node000016_Node000028"><a xlink:title=" ">
<path fill="none" stroke="#63b8ff" d="M810.09,-37.26C826.91,-32.56 847.56,-26.8 865.68,-21.74"/>
<polygon fill="#63b8ff" stroke="#63b8ff" points="866.76,-25.07 875.45,-19.01 864.87,-18.33 866.76,-25.07"/>
</a>
</g>
</g>
<!-- Node18 -->
<g id="Node000018" class="node">
<title>Node18</title>
<g id="a_Node000018"><a xlink:href="__Printf_8c.html#ad73a5847f2d7c9de14cc2723da86bf45" target="_top" xlink:title=" ">
<polygon fill="white" stroke="#666666" points="1049,-75 999,-75 999,-56 1049,-56 1049,-75"/>
<text text-anchor="middle" x="1024" y="-63" font-family="Helvetica,sans-Serif" font-size="10.00">_Putfld</text>
</a>
</g>
</g>
<!-- Node17&#45;&gt;Node18 -->
<g id="edge18_Node000017_Node000018" class="edge">
<title>Node17&#45;&gt;Node18</title>
<g id="a_edge18_Node000017_Node000018"><a xlink:title=" ">
<path fill="none" stroke="#63b8ff" d="M934.6,-50.44C950.28,-53.11 971.27,-56.69 988.87,-59.68"/>
<polygon fill="#63b8ff" stroke="#63b8ff" points="988.32,-63.14 998.77,-61.37 989.5,-56.24 988.32,-63.14"/>
</a>
</g>
</g>
<!-- Node27 -->
<g id="Node000027" class="node">
<title>Node27</title>
<g id="a_Node000027"><a xlink:href="string_8c.html#a988b4defe51a1815ef3b9ddab10e7a89" target="_top" xlink:title=" ">
<polygon fill="white" stroke="#666666" points="1046,-38 1002,-38 1002,-19 1046,-19 1046,-38"/>
<text text-anchor="middle" x="1024" y="-26" font-family="Helvetica,sans-Serif" font-size="10.00">strchr</text>
</a>
</g>
</g>
<!-- Node17&#45;&gt;Node27 -->
<g id="edge29_Node000017_Node000027" class="edge">
<title>Node17&#45;&gt;Node27</title>
<g id="a_edge29_Node000017_Node000027"><a xlink:title=" ">
<path fill="none" stroke="#63b8ff" d="M934.6,-42.77C951.13,-40.1 973.57,-36.48 991.71,-33.55"/>
<polygon fill="#63b8ff" stroke="#63b8ff" points="992.5,-36.97 1001.81,-31.92 991.38,-30.06 992.5,-36.97"/>
</a>
</g>
</g>
<!-- Node19 -->
<g id="Node000019" class="node">
<title>Node19</title>
<g id="a_Node000019"><a xlink:href="__Ldtob_8c.html#a7cc858157b66e15c831ad085113729ae" target="_top" xlink:title=" ">
<polygon fill="white" stroke="#666666" points="1134,-150 1085,-150 1085,-131 1134,-131 1134,-150"/>
<text text-anchor="middle" x="1109.5" y="-138" font-family="Helvetica,sans-Serif" font-size="10.00">_Ldtob</text>
</a>
</g>
</g>
<!-- Node18&#45;&gt;Node19 -->
<g id="edge19_Node000018_Node000019" class="edge">
<title>Node18&#45;&gt;Node19</title>
<g id="a_edge19_Node000018_Node000019"><a xlink:title=" ">
<path fill="none" stroke="#63b8ff" d="M1035.92,-75.3C1049.74,-87.73 1073.77,-109.3 1090.37,-124.22"/>
<polygon fill="#63b8ff" stroke="#63b8ff" points="1088.07,-126.85 1097.85,-130.93 1092.74,-121.64 1088.07,-126.85"/>
</a>
</g>
</g>
<!-- Node24 -->
<g id="Node000024" class="node">
<title>Node24</title>
<g id="a_Node000024"><a xlink:href="__Litob_8c.html#aaaba3b0ab7920d422a61fe9e22600dd0" target="_top" xlink:title=" ">
<polygon fill="white" stroke="#666666" points="1132.5,-75 1086.5,-75 1086.5,-56 1132.5,-56 1132.5,-75"/>
<text text-anchor="middle" x="1109.5" y="-63" font-family="Helvetica,sans-Serif" font-size="10.00">_Litob</text>
</a>
</g>
</g>
<!-- Node18&#45;&gt;Node24 -->
<g id="edge25_Node000018_Node000024" class="edge">
<title>Node18&#45;&gt;Node24</title>
<g id="a_edge25_Node000018_Node000024"><a xlink:title=" ">
<path fill="none" stroke="#63b8ff" d="M1049.15,-65.5C1057.6,-65.5 1067.22,-65.5 1076.23,-65.5"/>
<polygon fill="#63b8ff" stroke="#63b8ff" points="1076.4,-69 1086.4,-65.5 1076.4,-62 1076.4,-69"/>
</a>
</g>
</g>
<!-- Node26 -->
<g id="Node000026" class="node">
<title>Node26</title>
<g id="a_Node000026"><a xlink:href="string_8c.html#a008e171a518fe0e0352f31b245e03875" target="_top" xlink:title=" ">
<polygon fill="white" stroke="#666666" points="1131.5,-38 1087.5,-38 1087.5,-19 1131.5,-19 1131.5,-38"/>
<text text-anchor="middle" x="1109.5" y="-26" font-family="Helvetica,sans-Serif" font-size="10.00">strlen</text>
</a>
</g>
</g>
<!-- Node18&#45;&gt;Node26 -->
<g id="edge28_Node000018_Node000026" class="edge">
<title>Node18&#45;&gt;Node26</title>
<g id="a_edge28_Node000018_Node000026"><a xlink:title=" ">
<path fill="none" stroke="#63b8ff" d="M1046.5,-55.97C1056.12,-51.71 1067.63,-46.61 1078.11,-41.97"/>
<polygon fill="#63b8ff" stroke="#63b8ff" points="1079.63,-45.12 1087.36,-37.87 1076.8,-38.72 1079.63,-45.12"/>
</a>
</g>
</g>
<!-- Node20 -->
<g id="Node000020" class="node">
<title>Node20</title>
<g id="a_Node000020"><a xlink:href="__Ldtob_8c.html#a2b6c5318b43bab1636bad9113ffb2761" target="_top" xlink:title=" ">
<polygon fill="white" stroke="#666666" points="1230.5,-226 1180.5,-226 1180.5,-207 1230.5,-207 1230.5,-226"/>
<text text-anchor="middle" x="1205.5" y="-214" font-family="Helvetica,sans-Serif" font-size="10.00">_Genld</text>
</a>
</g>
</g>
<!-- Node19&#45;&gt;Node20 -->
<g id="edge20_Node000019_Node000020" class="edge">
<title>Node19&#45;&gt;Node20</title>
<g id="a_edge20_Node000019_Node000020"><a xlink:title=" ">
<path fill="none" stroke="#63b8ff" d="M1120.74,-150.06C1132.36,-160.78 1152.05,-178.48 1170,-192.5 1173.66,-195.36 1177.63,-198.27 1181.53,-201.05"/>
<polygon fill="#63b8ff" stroke="#63b8ff" points="1179.6,-203.97 1189.81,-206.81 1183.6,-198.22 1179.6,-203.97"/>
</a>
</g>
</g>
<!-- Node21 -->
<g id="Node000021" class="node">
<title>Node21</title>
<g id="a_Node000021"><a xlink:href="string_8c.html#ad7f1ae1bbb49dece44bda378982a704d" target="_top" xlink:title=" ">
<polygon fill="white" stroke="#666666" points="1336,-188 1277,-188 1277,-169 1336,-169 1336,-188"/>
<text text-anchor="middle" x="1306.5" y="-176" font-family="Helvetica,sans-Serif" font-size="10.00">memcpy</text>
</a>
</g>
</g>
<!-- Node19&#45;&gt;Node21 -->
<g id="edge24_Node000019_Node000021" class="edge">
<title>Node19&#45;&gt;Node21</title>
<g id="a_edge24_Node000019_Node000021"><a xlink:title=" ">
<path fill="none" stroke="#63b8ff" d="M1134.03,-148.49C1144.88,-151.95 1157.99,-155.81 1170,-158.5 1202.27,-165.72 1239.45,-171 1266.7,-174.31"/>
<polygon fill="#63b8ff" stroke="#63b8ff" points="1266.65,-177.83 1276.99,-175.53 1267.47,-170.88 1266.65,-177.83"/>
</a>
</g>
</g>
<!-- Node22 -->
<g id="Node000022" class="node">
<title>Node22</title>
<g id="a_Node000022"><a xlink:href="__Ldtob_8c.html#ab7ade9ce60aaa8baa0244b503351d742" target="_top" xlink:title=" ">
<polygon fill="white" stroke="#666666" points="1241,-150 1170,-150 1170,-131 1241,-131 1241,-150"/>
<text text-anchor="middle" x="1205.5" y="-138" font-family="Helvetica,sans-Serif" font-size="10.00">_Ldunscale</text>
</a>
</g>
</g>
<!-- Node19&#45;&gt;Node22 -->
<g id="edge22_Node000019_Node000022" class="edge">
<title>Node19&#45;&gt;Node22</title>
<g id="a_edge22_Node000019_Node000022"><a xlink:title=" ">
<path fill="none" stroke="#63b8ff" d="M1134.22,-140.5C1141.96,-140.5 1150.83,-140.5 1159.6,-140.5"/>
<polygon fill="#63b8ff" stroke="#63b8ff" points="1159.77,-144 1169.77,-140.5 1159.77,-137 1159.77,-144"/>
</a>
</g>
</g>
<!-- Node23 -->
<g id="Node000023" class="node">
<title>Node23</title>
<g id="a_Node000023"><a xlink:href="ldiv_8c.html#a0302920caf64a5fbe1ce0862799d7784" target="_top" xlink:title=" ">
<polygon fill="white" stroke="#666666" points="1223,-113 1188,-113 1188,-94 1223,-94 1223,-113"/>
<text text-anchor="middle" x="1205.5" y="-101" font-family="Helvetica,sans-Serif" font-size="10.00">ldiv</text>
</a>
</g>
</g>
<!-- Node19&#45;&gt;Node23 -->
<g id="edge23_Node000019_Node000023" class="edge">
<title>Node19&#45;&gt;Node23</title>
<g id="a_edge23_Node000019_Node000023"><a xlink:title=" ">
<path fill="none" stroke="#63b8ff" d="M1134.22,-131.16C1147.7,-125.86 1164.6,-119.21 1178.45,-113.76"/>
<polygon fill="#63b8ff" stroke="#63b8ff" points="1179.87,-116.95 1187.9,-110.03 1177.31,-110.44 1179.87,-116.95"/>
</a>
</g>
</g>
<!-- Node20&#45;&gt;Node21 -->
<g id="edge21_Node000020_Node000021" class="edge">
<title>Node20&#45;&gt;Node21</title>
<g id="a_edge21_Node000020_Node000021"><a xlink:title=" ">
<path fill="none" stroke="#63b8ff" d="M1230.72,-207.2C1242.88,-202.54 1257.82,-196.8 1271.15,-191.69"/>
<polygon fill="#63b8ff" stroke="#63b8ff" points="1272.42,-194.95 1280.5,-188.1 1269.91,-188.41 1272.42,-194.95"/>
</a>
</g>
</g>
<!-- Node24&#45;&gt;Node21 -->
<g id="edge27_Node000024_Node000021" class="edge">
<title>Node24&#45;&gt;Node21</title>
<g id="a_edge27_Node000024_Node000021"><a xlink:title=" ">
<path fill="none" stroke="#63b8ff" d="M1132.63,-63.57C1160.15,-62.26 1207.57,-63.68 1241,-84.5 1269.43,-102.2 1288.45,-137.57 1298.09,-159.52"/>
<polygon fill="#63b8ff" stroke="#63b8ff" points="1294.88,-160.92 1301.96,-168.81 1301.34,-158.23 1294.88,-160.92"/>
</a>
</g>
</g>
<!-- Node25 -->
<g id="Node000025" class="node">
<title>Node25</title>
<g id="a_Node000025"><a xlink:href="ldiv_8c.html#a5b23c3639f11980dca762c5f1d74f339" target="_top" xlink:title=" ">
<polygon fill="white" stroke="#666666" points="1224.5,-37 1186.5,-37 1186.5,-18 1224.5,-18 1224.5,-37"/>
<text text-anchor="middle" x="1205.5" y="-25" font-family="Helvetica,sans-Serif" font-size="10.00">lldiv</text>
</a>
</g>
</g>
<!-- Node24&#45;&gt;Node25 -->
<g id="edge26_Node000024_Node000025" class="edge">
<title>Node24&#45;&gt;Node25</title>
<g id="a_edge26_Node000024_Node000025"><a xlink:title=" ">
<path fill="none" stroke="#63b8ff" d="M1132.78,-56.49C1145.97,-51.16 1162.8,-44.36 1176.84,-38.68"/>
<polygon fill="#63b8ff" stroke="#63b8ff" points="1178.52,-41.78 1186.47,-34.79 1175.89,-35.29 1178.52,-41.78"/>
</a>
</g>
</g>
<!-- Node31&#45;&gt;Node6 -->
<g id="edge35_Node000031_Node000006" class="edge">
<title>Node31&#45;&gt;Node6</title>
<g id="a_edge35_Node000031_Node000006"><a xlink:title=" ">
<path fill="none" stroke="#63b8ff" d="M353.3,-121.5C361.38,-121.5 369.9,-121.5 378.37,-121.5"/>
<polygon fill="#63b8ff" stroke="#63b8ff" points="378.64,-125 388.64,-121.5 378.64,-118 378.64,-125"/>
</a>
</g>
</g>
</g>
</svg>
