<?xml version="1.0" encoding="UTF-8" standalone="no"?>
<!DOCTYPE svg PUBLIC "-//W3C//DTD SVG 1.1//EN"
 "http://www.w3.org/Graphics/SVG/1.1/DTD/svg11.dtd">
<!-- Generated by graphviz version 2.43.0 (0)
 -->
<!-- Title: func_8008775C Pages: 1 -->
<svg width="1922pt" height="256pt"
 viewBox="0.00 0.00 1922.00 256.00" xmlns="http://www.w3.org/2000/svg" xmlns:xlink="http://www.w3.org/1999/xlink">
<g id="graph0" class="graph" transform="scale(1 1) rotate(0) translate(4 252)">
<title>func_8008775C</title>
<polygon fill="white" stroke="transparent" points="-4,4 -4,-252 1918,-252 1918,4 -4,4"/>
<!-- Node1 -->
<g id="node1" class="node">
<title>Node1</title>
<g id="a_node1"><a xlink:title=" ">
<polygon fill="#bfbfbf" stroke="black" points="1822,-133.5 1822,-152.5 1914,-152.5 1914,-133.5 1822,-133.5"/>
<text text-anchor="middle" x="1868" y="-140.5" font-family="Helvetica,sans-Serif" font-size="10.00">func_8008775C</text>
</a>
</g>
</g>
<!-- Node2 -->
<g id="node2" class="node">
<title>Node2</title>
<g id="a_node2"><a xlink:href="code__80071F00_8c.html#a2d5b294abeee9f779184f0e1f7f97530" target="_top" xlink:title=" ">
<polygon fill="white" stroke="black" points="1694,-228.5 1694,-247.5 1786,-247.5 1786,-228.5 1694,-228.5"/>
<text text-anchor="middle" x="1740" y="-235.5" font-family="Helvetica,sans-Serif" font-size="10.00">func_8007FB48</text>
</a>
</g>
</g>
<!-- Node1&#45;&gt;Node2 -->
<g id="edge1" class="edge">
<title>Node1&#45;&gt;Node2</title>
<path fill="none" stroke="midnightblue" d="M1850.25,-159.74C1834.5,-174.97 1809.84,-197.52 1786,-214 1778.28,-219.34 1769.24,-224.37 1761.29,-228.43"/>
<polygon fill="midnightblue" stroke="midnightblue" points="1852.93,-162.02 1857.63,-152.52 1848.03,-157.02 1852.93,-162.02"/>
</g>
<!-- Node17 -->
<g id="node17" class="node">
<title>Node17</title>
<g id="a_node17"><a xlink:href="code__80071F00_8c.html#a95e90da6cff96c34db723145a8a3df38" target="_top" xlink:title=" ">
<polygon fill="white" stroke="black" points="1565.5,-190.5 1565.5,-209.5 1656.5,-209.5 1656.5,-190.5 1565.5,-190.5"/>
<text text-anchor="middle" x="1611" y="-197.5" font-family="Helvetica,sans-Serif" font-size="10.00">func_800810F4</text>
</a>
</g>
</g>
<!-- Node1&#45;&gt;Node17 -->
<g id="edge18" class="edge">
<title>Node1&#45;&gt;Node17</title>
<path fill="none" stroke="midnightblue" d="M1841.88,-157.43C1826.29,-165.7 1805.57,-175.51 1786,-181 1743.14,-193.03 1692.35,-197.52 1656.74,-199.15"/>
<polygon fill="midnightblue" stroke="midnightblue" points="1843.76,-160.39 1850.87,-152.53 1840.41,-154.24 1843.76,-160.39"/>
</g>
<!-- Node18 -->
<g id="node18" class="node">
<title>Node18</title>
<g id="a_node18"><a xlink:href="code__80086E70_8c.html#adcb9e38595a0827a9b9c10943bcb89b5" target="_top" xlink:title=" ">
<polygon fill="white" stroke="black" points="1694,-38.5 1694,-57.5 1786,-57.5 1786,-38.5 1694,-38.5"/>
<text text-anchor="middle" x="1740" y="-45.5" font-family="Helvetica,sans-Serif" font-size="10.00">func_8008781C</text>
</a>
</g>
</g>
<!-- Node1&#45;&gt;Node18 -->
<g id="edge20" class="edge">
<title>Node1&#45;&gt;Node18</title>
<path fill="none" stroke="midnightblue" d="M1851.82,-125.54C1836.53,-108.79 1811.61,-83.65 1786,-67 1780.45,-63.39 1774.11,-60.22 1767.97,-57.55"/>
<polygon fill="midnightblue" stroke="midnightblue" points="1849.61,-128.32 1858.89,-133.45 1854.83,-123.66 1849.61,-128.32"/>
</g>
<!-- Node28 -->
<g id="node28" class="node">
<title>Node28</title>
<g id="a_node28"><a xlink:href="code__80086E70_8c.html#a1dd1811f29939ae4e53cca903b5de49b" target="_top" xlink:title=" ">
<polygon fill="white" stroke="black" points="1694,-114.5 1694,-133.5 1786,-133.5 1786,-114.5 1694,-114.5"/>
<text text-anchor="middle" x="1740" y="-121.5" font-family="Helvetica,sans-Serif" font-size="10.00">func_8008789C</text>
</a>
</g>
</g>
<!-- Node1&#45;&gt;Node28 -->
<g id="edge35" class="edge">
<title>Node1&#45;&gt;Node28</title>
<path fill="none" stroke="midnightblue" d="M1811.93,-134.7C1803.35,-133.4 1794.57,-132.08 1786.24,-130.82"/>
<polygon fill="midnightblue" stroke="midnightblue" points="1811.46,-138.16 1821.87,-136.19 1812.5,-131.24 1811.46,-138.16"/>
</g>
<!-- Node31 -->
<g id="node31" class="node">
<title>Node31</title>
<g id="a_node31"><a xlink:href="code__80086E70_8c.html#a2cb9b248bd464f9a7677496cd5600877" target="_top" xlink:title=" ">
<polygon fill="white" stroke="black" points="1694.5,-152.5 1694.5,-171.5 1785.5,-171.5 1785.5,-152.5 1694.5,-152.5"/>
<text text-anchor="middle" x="1740" y="-159.5" font-family="Helvetica,sans-Serif" font-size="10.00">func_80087954</text>
</a>
</g>
</g>
<!-- Node1&#45;&gt;Node31 -->
<g id="edge39" class="edge">
<title>Node1&#45;&gt;Node31</title>
<path fill="none" stroke="midnightblue" d="M1811.8,-151.32C1803.12,-152.63 1794.23,-153.97 1785.82,-155.24"/>
<polygon fill="midnightblue" stroke="midnightblue" points="1812.5,-154.76 1821.87,-149.81 1811.46,-147.84 1812.5,-154.76"/>
</g>
<!-- Node32 -->
<g id="node32" class="node">
<title>Node32</title>
<g id="a_node32"><a xlink:href="code__80086E70_8c.html#a57281d11df278e3297deb216108761fe" target="_top" xlink:title=" ">
<polygon fill="white" stroke="black" points="1694,-76.5 1694,-95.5 1786,-95.5 1786,-76.5 1694,-76.5"/>
<text text-anchor="middle" x="1740" y="-83.5" font-family="Helvetica,sans-Serif" font-size="10.00">func_80087A0C</text>
</a>
</g>
</g>
<!-- Node1&#45;&gt;Node32 -->
<g id="edge41" class="edge">
<title>Node1&#45;&gt;Node32</title>
<path fill="none" stroke="midnightblue" d="M1838.1,-129.1C1822.7,-121.79 1803.39,-112.75 1786,-105 1779.03,-101.89 1771.4,-98.62 1764.43,-95.69"/>
<polygon fill="midnightblue" stroke="midnightblue" points="1836.59,-132.27 1847.13,-133.41 1839.61,-125.95 1836.59,-132.27"/>
</g>
<!-- Node3 -->
<g id="node3" class="node">
<title>Node3</title>
<g id="a_node3"><a xlink:href="code__80071F00_8c.html#af86bf38bc3404ee5d96b0eac8fd73c87" target="_top" xlink:title=" ">
<polygon fill="white" stroke="black" points="1565,-228.5 1565,-247.5 1657,-247.5 1657,-228.5 1565,-228.5"/>
<text text-anchor="middle" x="1611" y="-235.5" font-family="Helvetica,sans-Serif" font-size="10.00">func_8007FF5C</text>
</a>
</g>
</g>
<!-- Node2&#45;&gt;Node3 -->
<g id="edge2" class="edge">
<title>Node2&#45;&gt;Node3</title>
<path fill="none" stroke="midnightblue" d="M1683.7,-238C1674.92,-238 1665.93,-238 1657.42,-238"/>
<polygon fill="midnightblue" stroke="midnightblue" points="1683.87,-241.5 1693.87,-238 1683.87,-234.5 1683.87,-241.5"/>
</g>
<!-- Node4 -->
<g id="node4" class="node">
<title>Node4</title>
<g id="a_node4"><a xlink:href="code__80071F00_8c.html#aaeded00d33e7ae72ce35e159985f53d6" target="_top" xlink:title=" ">
<polygon fill="white" stroke="black" points="1435.5,-228.5 1435.5,-247.5 1527.5,-247.5 1527.5,-228.5 1435.5,-228.5"/>
<text text-anchor="middle" x="1481.5" y="-235.5" font-family="Helvetica,sans-Serif" font-size="10.00">func_8007FFC0</text>
</a>
</g>
</g>
<!-- Node3&#45;&gt;Node4 -->
<g id="edge3" class="edge">
<title>Node3&#45;&gt;Node4</title>
<path fill="none" stroke="midnightblue" d="M1554.65,-238C1545.64,-238 1536.4,-238 1527.66,-238"/>
<polygon fill="midnightblue" stroke="midnightblue" points="1554.69,-241.5 1564.69,-238 1554.69,-234.5 1554.69,-241.5"/>
</g>
<!-- Node5 -->
<g id="node5" class="node">
<title>Node5</title>
<g id="a_node5"><a xlink:href="code__80071F00_8c.html#a8afc56ea0d06d8d9d473e5883925c9a9" target="_top" xlink:title=" ">
<polygon fill="white" stroke="black" points="1307,-190.5 1307,-209.5 1398,-209.5 1398,-190.5 1307,-190.5"/>
<text text-anchor="middle" x="1352.5" y="-197.5" font-family="Helvetica,sans-Serif" font-size="10.00">func_80081210</text>
</a>
</g>
</g>
<!-- Node4&#45;&gt;Node5 -->
<g id="edge4" class="edge">
<title>Node4&#45;&gt;Node5</title>
<path fill="none" stroke="midnightblue" d="M1438.61,-225.46C1421.33,-220.3 1401.63,-214.4 1385.54,-209.59"/>
<polygon fill="midnightblue" stroke="midnightblue" points="1437.87,-228.9 1448.45,-228.41 1439.88,-222.19 1437.87,-228.9"/>
</g>
<!-- Node6 -->
<g id="node6" class="node">
<title>Node6</title>
<g id="a_node6"><a xlink:href="code__80057C60_8c.html#a8a7fdf4fc705765c9463a477e3ef1858" target="_top" xlink:title=" ">
<polygon fill="white" stroke="black" points="1178,-180.5 1178,-199.5 1270,-199.5 1270,-180.5 1178,-180.5"/>
<text text-anchor="middle" x="1224" y="-187.5" font-family="Helvetica,sans-Serif" font-size="10.00">func_8005A71C</text>
</a>
</g>
</g>
<!-- Node5&#45;&gt;Node6 -->
<g id="edge5" class="edge">
<title>Node5&#45;&gt;Node6</title>
<path fill="none" stroke="midnightblue" d="M1296.92,-195.69C1287.95,-194.98 1278.75,-194.25 1270.05,-193.56"/>
<polygon fill="midnightblue" stroke="midnightblue" points="1296.66,-199.18 1306.9,-196.47 1297.21,-192.2 1296.66,-199.18"/>
</g>
<!-- Node7 -->
<g id="node7" class="node">
<title>Node7</title>
<g id="a_node7"><a xlink:href="code__80057C60_8c.html#ae61bd9f49508d924387c00845cae4060" target="_top" xlink:title=" ">
<polygon fill="white" stroke="black" points="922,-152.5 922,-171.5 1014,-171.5 1014,-152.5 922,-152.5"/>
<text text-anchor="middle" x="968" y="-159.5" font-family="Helvetica,sans-Serif" font-size="10.00">func_80059AC8</text>
</a>
</g>
</g>
<!-- Node6&#45;&gt;Node7 -->
<g id="edge6" class="edge">
<title>Node6&#45;&gt;Node7</title>
<path fill="none" stroke="midnightblue" d="M1167.78,-183.91C1121.78,-178.84 1057.07,-171.71 1014.12,-166.97"/>
<polygon fill="midnightblue" stroke="midnightblue" points="1167.56,-187.41 1177.88,-185.03 1168.33,-180.45 1167.56,-187.41"/>
</g>
<!-- Node8 -->
<g id="node8" class="node">
<title>Node8</title>
<g id="a_node8"><a xlink:href="code__80280000_8c.html#a4d9b0156b64d7a67e4cb21cde391ca43" target="_top" xlink:title=" ">
<polygon fill="white" stroke="black" points="773.5,-171.5 773.5,-190.5 864.5,-190.5 864.5,-171.5 773.5,-171.5"/>
<text text-anchor="middle" x="819" y="-178.5" font-family="Helvetica,sans-Serif" font-size="10.00">func_80280000</text>
</a>
</g>
</g>
<!-- Node7&#45;&gt;Node8 -->
<g id="edge7" class="edge">
<title>Node7&#45;&gt;Node8</title>
<path fill="none" stroke="midnightblue" d="M911.69,-169.15C896.16,-171.16 879.47,-173.31 864.65,-175.23"/>
<polygon fill="midnightblue" stroke="midnightblue" points="912.23,-172.61 921.7,-167.86 911.33,-165.67 912.23,-172.61"/>
</g>
<!-- Node15 -->
<g id="node15" class="node">
<title>Node15</title>
<g id="a_node15"><a xlink:href="podium__ceremony__actors_8c.html#a7ea229c65f264670fc828b95e8321154" target="_top" xlink:title=" ">
<polygon fill="white" stroke="black" points="752,-133.5 752,-152.5 886,-152.5 886,-133.5 752,-133.5"/>
<text text-anchor="middle" x="819" y="-140.5" font-family="Helvetica,sans-Serif" font-size="10.00">podium_ceremony_loop</text>
</a>
</g>
</g>
<!-- Node7&#45;&gt;Node15 -->
<g id="edge14" class="edge">
<title>Node7&#45;&gt;Node15</title>
<path fill="none" stroke="midnightblue" d="M911.74,-154.86C903.41,-153.78 894.76,-152.66 886.23,-151.56"/>
<polygon fill="midnightblue" stroke="midnightblue" points="911.33,-158.33 921.7,-156.14 912.23,-151.39 911.33,-158.33"/>
</g>
<!-- Node16 -->
<g id="node16" class="node">
<title>Node16</title>
<g id="a_node16"><a xlink:href="main_8c.html#afff87ffcbfee4f1f37d443110aa7b52a" target="_top" xlink:title=" ">
<polygon fill="white" stroke="black" points="773,-95.5 773,-114.5 865,-114.5 865,-95.5 773,-95.5"/>
<text text-anchor="middle" x="819" y="-102.5" font-family="Helvetica,sans-Serif" font-size="10.00">race_logic_loop</text>
</a>
</g>
</g>
<!-- Node7&#45;&gt;Node16 -->
<g id="edge16" class="edge">
<title>Node7&#45;&gt;Node16</title>
<path fill="none" stroke="midnightblue" d="M933.8,-148.37C929.8,-146.61 925.79,-144.8 922,-143 905.65,-135.25 902.78,-130.76 886,-124 877.15,-120.44 867.39,-117.24 858.15,-114.54"/>
<polygon fill="midnightblue" stroke="midnightblue" points="932.44,-151.59 943.01,-152.32 935.2,-145.16 932.44,-151.59"/>
</g>
<!-- Node9 -->
<g id="node9" class="node">
<title>Node9</title>
<g id="a_node9"><a xlink:href="code__80280000_8c.html#aa28a69be4eda3b8667366c6c7b556024" target="_top" xlink:title=" ">
<polygon fill="white" stroke="black" points="640,-171.5 640,-190.5 716,-190.5 716,-171.5 640,-171.5"/>
<text text-anchor="middle" x="678" y="-178.5" font-family="Helvetica,sans-Serif" font-size="10.00">credits_loop</text>
</a>
</g>
</g>
<!-- Node8&#45;&gt;Node9 -->
<g id="edge8" class="edge">
<title>Node8&#45;&gt;Node9</title>
<path fill="none" stroke="midnightblue" d="M763.11,-181C747.38,-181 730.61,-181 716.22,-181"/>
<polygon fill="midnightblue" stroke="midnightblue" points="763.25,-184.5 773.25,-181 763.25,-177.5 763.25,-184.5"/>
</g>
<!-- Node10 -->
<g id="node10" class="node">
<title>Node10</title>
<g id="a_node10"><a xlink:href="main_8c.html#ae04143ce8113cdafa007c642eb620bc8" target="_top" xlink:title=" ">
<polygon fill="white" stroke="black" points="488,-133.5 488,-152.5 604,-152.5 604,-133.5 488,-133.5"/>
<text text-anchor="middle" x="546" y="-140.5" font-family="Helvetica,sans-Serif" font-size="10.00">game_state_handler</text>
</a>
</g>
</g>
<!-- Node9&#45;&gt;Node10 -->
<g id="edge9" class="edge">
<title>Node9&#45;&gt;Node10</title>
<path fill="none" stroke="midnightblue" d="M634.12,-168.46C616.43,-163.3 596.27,-157.4 579.79,-152.59"/>
<polygon fill="midnightblue" stroke="midnightblue" points="633.62,-171.96 644.2,-171.41 635.58,-165.25 633.62,-171.96"/>
</g>
<!-- Node11 -->
<g id="node11" class="node">
<title>Node11</title>
<g id="a_node11"><a xlink:href="main_8c.html#a633ed517e458daeb768f5361895dcac9" target="_top" xlink:title=" ">
<polygon fill="white" stroke="black" points="339,-133.5 339,-152.5 452,-152.5 452,-133.5 339,-133.5"/>
<text text-anchor="middle" x="395.5" y="-140.5" font-family="Helvetica,sans-Serif" font-size="10.00">thread5_game_loop</text>
</a>
</g>
</g>
<!-- Node10&#45;&gt;Node11 -->
<g id="edge10" class="edge">
<title>Node10&#45;&gt;Node11</title>
<path fill="none" stroke="midnightblue" d="M477.42,-143C469.02,-143 460.5,-143 452.3,-143"/>
<polygon fill="midnightblue" stroke="midnightblue" points="477.59,-146.5 487.59,-143 477.59,-139.5 477.59,-146.5"/>
</g>
<!-- Node12 -->
<g id="node12" class="node">
<title>Node12</title>
<g id="a_node12"><a xlink:href="main_8c.html#a023b8f272e4efbd33f371e91ffff6b30" target="_top" xlink:title=" ">
<polygon fill="white" stroke="black" points="217,-133.5 217,-152.5 303,-152.5 303,-133.5 217,-133.5"/>
<text text-anchor="middle" x="260" y="-140.5" font-family="Helvetica,sans-Serif" font-size="10.00">thread3_video</text>
</a>
</g>
</g>
<!-- Node11&#45;&gt;Node12 -->
<g id="edge11" class="edge">
<title>Node11&#45;&gt;Node12</title>
<path fill="none" stroke="midnightblue" d="M328.57,-143C319.94,-143 311.3,-143 303.21,-143"/>
<polygon fill="midnightblue" stroke="midnightblue" points="328.66,-146.5 338.66,-143 328.66,-139.5 328.66,-146.5"/>
</g>
<!-- Node13 -->
<g id="node13" class="node">
<title>Node13</title>
<g id="a_node13"><a xlink:href="main_8c.html#a1e35d2b842121e6aea373f09381616e5" target="_top" xlink:title=" ">
<polygon fill="white" stroke="black" points="104,-133.5 104,-152.5 181,-152.5 181,-133.5 104,-133.5"/>
<text text-anchor="middle" x="142.5" y="-140.5" font-family="Helvetica,sans-Serif" font-size="10.00">thread1_idle</text>
</a>
</g>
</g>
<!-- Node12&#45;&gt;Node13 -->
<g id="edge12" class="edge">
<title>Node12&#45;&gt;Node13</title>
<path fill="none" stroke="midnightblue" d="M206.9,-143C198.2,-143 189.33,-143 181.09,-143"/>
<polygon fill="midnightblue" stroke="midnightblue" points="206.98,-146.5 216.98,-143 206.98,-139.5 206.98,-146.5"/>
</g>
<!-- Node14 -->
<g id="node14" class="node">
<title>Node14</title>
<g id="a_node14"><a xlink:href="main_8c.html#a4f87d43525fe95f60ea92bc8a3b70e62" target="_top" xlink:title=" ">
<polygon fill="white" stroke="black" points="0,-133.5 0,-152.5 68,-152.5 68,-133.5 0,-133.5"/>
<text text-anchor="middle" x="34" y="-140.5" font-family="Helvetica,sans-Serif" font-size="10.00">main_func</text>
</a>
</g>
</g>
<!-- Node13&#45;&gt;Node14 -->
<g id="edge13" class="edge">
<title>Node13&#45;&gt;Node14</title>
<path fill="none" stroke="midnightblue" d="M93.95,-143C85.29,-143 76.44,-143 68.31,-143"/>
<polygon fill="midnightblue" stroke="midnightblue" points="93.95,-146.5 103.95,-143 93.95,-139.5 93.95,-146.5"/>
</g>
<!-- Node15&#45;&gt;Node10 -->
<g id="edge15" class="edge">
<title>Node15&#45;&gt;Node10</title>
<path fill="none" stroke="midnightblue" d="M741.44,-143C697.89,-143 644.25,-143 604.35,-143"/>
<polygon fill="midnightblue" stroke="midnightblue" points="741.71,-146.5 751.71,-143 741.71,-139.5 741.71,-146.5"/>
</g>
<!-- Node16&#45;&gt;Node10 -->
<g id="edge17" class="edge">
<title>Node16&#45;&gt;Node10</title>
<path fill="none" stroke="midnightblue" d="M762.83,-112.74C716.72,-119.2 651.18,-128.39 604.44,-134.95"/>
<polygon fill="midnightblue" stroke="midnightblue" points="763.53,-116.17 772.95,-111.32 762.56,-109.24 763.53,-116.17"/>
</g>
<!-- Node17&#45;&gt;Node5 -->
<g id="edge19" class="edge">
<title>Node17&#45;&gt;Node5</title>
<path fill="none" stroke="midnightblue" d="M1555.05,-200C1508.2,-200 1441.7,-200 1398.1,-200"/>
<polygon fill="midnightblue" stroke="midnightblue" points="1555.32,-203.5 1565.32,-200 1555.32,-196.5 1555.32,-203.5"/>
</g>
<!-- Node19 -->
<g id="node19" class="node">
<title>Node19</title>
<g id="a_node19"><a xlink:href="code__80071F00_8c.html#aad5d156271a33868b1cf6e9fdb8103be" target="_top" xlink:title=" ">
<polygon fill="white" stroke="black" points="1564,-0.5 1564,-19.5 1658,-19.5 1658,-0.5 1564,-0.5"/>
<text text-anchor="middle" x="1611" y="-7.5" font-family="Helvetica,sans-Serif" font-size="10.00">func_8007DA4C</text>
</a>
</g>
</g>
<!-- Node18&#45;&gt;Node19 -->
<g id="edge21" class="edge">
<title>Node18&#45;&gt;Node19</title>
<path fill="none" stroke="midnightblue" d="M1697.11,-35.46C1679.83,-30.3 1660.13,-24.4 1644.04,-19.59"/>
<polygon fill="midnightblue" stroke="midnightblue" points="1696.37,-38.9 1706.95,-38.41 1698.38,-32.19 1696.37,-38.9"/>
</g>
<!-- Node25 -->
<g id="node25" class="node">
<title>Node25</title>
<g id="a_node25"><a xlink:href="code__80071F00_8c.html#a8b0c1527833d536e03dd3c4854bfa03d" target="_top" xlink:title=" ">
<polygon fill="white" stroke="black" points="1564.5,-38.5 1564.5,-57.5 1657.5,-57.5 1657.5,-38.5 1564.5,-38.5"/>
<text text-anchor="middle" x="1611" y="-45.5" font-family="Helvetica,sans-Serif" font-size="10.00">func_80084D2C</text>
</a>
</g>
</g>
<!-- Node18&#45;&gt;Node25 -->
<g id="edge31" class="edge">
<title>Node18&#45;&gt;Node25</title>
<path fill="none" stroke="midnightblue" d="M1683.83,-48C1675.16,-48 1666.27,-48 1657.84,-48"/>
<polygon fill="midnightblue" stroke="midnightblue" points="1683.87,-51.5 1693.87,-48 1683.87,-44.5 1683.87,-51.5"/>
</g>
<!-- Node20 -->
<g id="node20" class="node">
<title>Node20</title>
<g id="a_node20"><a xlink:href="code__80071F00_8c.html#acc95d73dc6795994e1b3b40164e29bee" target="_top" xlink:title=" ">
<polygon fill="white" stroke="black" points="1435,-0.5 1435,-19.5 1528,-19.5 1528,-0.5 1435,-0.5"/>
<text text-anchor="middle" x="1481.5" y="-7.5" font-family="Helvetica,sans-Serif" font-size="10.00">func_8007DAF8</text>
</a>
</g>
</g>
<!-- Node19&#45;&gt;Node20 -->
<g id="edge22" class="edge">
<title>Node19&#45;&gt;Node20</title>
<path fill="none" stroke="midnightblue" d="M1553.93,-10C1545.28,-10 1536.43,-10 1528.04,-10"/>
<polygon fill="midnightblue" stroke="midnightblue" points="1553.97,-13.5 1563.97,-10 1553.97,-6.5 1553.97,-13.5"/>
</g>
<!-- Node21 -->
<g id="node21" class="node">
<title>Node21</title>
<g id="a_node21"><a xlink:href="code__80071F00_8c.html#ad528d342123354b27b4b671f931bf31b" target="_top" xlink:title=" ">
<polygon fill="white" stroke="black" points="1306,-0.5 1306,-19.5 1399,-19.5 1399,-0.5 1306,-0.5"/>
<text text-anchor="middle" x="1352.5" y="-7.5" font-family="Helvetica,sans-Serif" font-size="10.00">func_8007DB44</text>
</a>
</g>
</g>
<!-- Node20&#45;&gt;Node21 -->
<g id="edge23" class="edge">
<title>Node20&#45;&gt;Node21</title>
<path fill="none" stroke="midnightblue" d="M1424.5,-10C1416.07,-10 1407.46,-10 1399.28,-10"/>
<polygon fill="midnightblue" stroke="midnightblue" points="1424.65,-13.5 1434.65,-10 1424.65,-6.5 1424.65,-13.5"/>
</g>
<!-- Node22 -->
<g id="node22" class="node">
<title>Node22</title>
<g id="a_node22"><a xlink:href="code__80057C60_8c.html#acf88664f5c370a290d2480d0bef9f1b6" target="_top" xlink:title=" ">
<polygon fill="white" stroke="black" points="1188.5,-76.5 1188.5,-95.5 1259.5,-95.5 1259.5,-76.5 1188.5,-76.5"/>
<text text-anchor="middle" x="1224" y="-83.5" font-family="Helvetica,sans-Serif" font-size="10.00">update_obj</text>
</a>
</g>
</g>
<!-- Node21&#45;&gt;Node22 -->
<g id="edge24" class="edge">
<title>Node21&#45;&gt;Node22</title>
<path fill="none" stroke="midnightblue" d="M1316.25,-23.81C1312.74,-25.46 1309.26,-27.2 1306,-29 1279.96,-43.38 1252.12,-64.35 1236.81,-76.44"/>
<polygon fill="midnightblue" stroke="midnightblue" points="1317.81,-26.95 1325.53,-19.7 1314.97,-20.55 1317.81,-26.95"/>
</g>
<!-- Node23 -->
<g id="node23" class="node">
<title>Node23</title>
<g id="a_node23"><a xlink:href="code__80057C60_8c.html#a48f7fc1ba7acccec2d7b6e0a59f65dc5" target="_top" xlink:title=" ">
<polygon fill="white" stroke="black" points="1050,-76.5 1050,-95.5 1142,-95.5 1142,-76.5 1050,-76.5"/>
<text text-anchor="middle" x="1096" y="-83.5" font-family="Helvetica,sans-Serif" font-size="10.00">func_80059D00</text>
</a>
</g>
</g>
<!-- Node22&#45;&gt;Node23 -->
<g id="edge25" class="edge">
<title>Node22&#45;&gt;Node23</title>
<path fill="none" stroke="midnightblue" d="M1178.2,-86C1166.46,-86 1153.8,-86 1142.05,-86"/>
<polygon fill="midnightblue" stroke="midnightblue" points="1178.24,-89.5 1188.24,-86 1178.24,-82.5 1178.24,-89.5"/>
</g>
<!-- Node24 -->
<g id="node24" class="node">
<title>Node24</title>
<g id="a_node24"><a xlink:href="code__80057C60_8c.html#a86b7dba9c0715c4d7fdf8ce61c0738bc" target="_top" xlink:title=" ">
<polygon fill="white" stroke="black" points="922,-114.5 922,-133.5 1014,-133.5 1014,-114.5 922,-114.5"/>
<text text-anchor="middle" x="968" y="-121.5" font-family="Helvetica,sans-Serif" font-size="10.00">func_8005A070</text>
</a>
</g>
</g>
<!-- Node22&#45;&gt;Node24 -->
<g id="edge30" class="edge">
<title>Node22&#45;&gt;Node24</title>
<path fill="none" stroke="midnightblue" d="M1178.11,-97.55C1166.41,-100.28 1153.78,-102.98 1142,-105 1098.82,-112.41 1049.05,-117.52 1014.01,-120.56"/>
<polygon fill="midnightblue" stroke="midnightblue" points="1179.19,-100.89 1188.1,-95.16 1177.56,-94.08 1179.19,-100.89"/>
</g>
<!-- Node23&#45;&gt;Node24 -->
<g id="edge26" class="edge">
<title>Node23&#45;&gt;Node24</title>
<path fill="none" stroke="midnightblue" d="M1053.44,-98.54C1036.29,-103.7 1016.75,-109.6 1000.78,-114.41"/>
<polygon fill="midnightblue" stroke="midnightblue" points="1054.64,-101.83 1063.2,-95.59 1052.62,-95.13 1054.64,-101.83"/>
</g>
<!-- Node24&#45;&gt;Node8 -->
<g id="edge27" class="edge">
<title>Node24&#45;&gt;Node8</title>
<path fill="none" stroke="midnightblue" d="M933.8,-137.63C929.8,-139.39 925.79,-141.2 922,-143 905.65,-150.75 902.78,-155.24 886,-162 877.15,-165.56 867.39,-168.76 858.15,-171.46"/>
<polygon fill="midnightblue" stroke="midnightblue" points="935.2,-140.84 943.01,-133.68 932.44,-134.41 935.2,-140.84"/>
</g>
<!-- Node24&#45;&gt;Node15 -->
<g id="edge28" class="edge">
<title>Node24&#45;&gt;Node15</title>
<path fill="none" stroke="midnightblue" d="M911.74,-131.14C903.41,-132.22 894.76,-133.34 886.23,-134.44"/>
<polygon fill="midnightblue" stroke="midnightblue" points="912.23,-134.61 921.7,-129.86 911.33,-127.67 912.23,-134.61"/>
</g>
<!-- Node24&#45;&gt;Node16 -->
<g id="edge29" class="edge">
<title>Node24&#45;&gt;Node16</title>
<path fill="none" stroke="midnightblue" d="M911.34,-116.81C896.09,-114.83 879.74,-112.72 865.15,-110.84"/>
<polygon fill="midnightblue" stroke="midnightblue" points="911.33,-120.33 921.7,-118.14 912.23,-113.39 911.33,-120.33"/>
</g>
<!-- Node26 -->
<g id="node26" class="node">
<title>Node26</title>
<g id="a_node26"><a xlink:href="code__80071F00_8c.html#ad3b67fe7afad268ebd60dd5d178789b6" target="_top" xlink:title=" ">
<polygon fill="white" stroke="black" points="1435.5,-38.5 1435.5,-57.5 1527.5,-57.5 1527.5,-38.5 1435.5,-38.5"/>
<text text-anchor="middle" x="1481.5" y="-45.5" font-family="Helvetica,sans-Serif" font-size="10.00">func_800850B0</text>
</a>
</g>
</g>
<!-- Node25&#45;&gt;Node26 -->
<g id="edge32" class="edge">
<title>Node25&#45;&gt;Node26</title>
<path fill="none" stroke="midnightblue" d="M1554.15,-48C1545.36,-48 1536.37,-48 1527.85,-48"/>
<polygon fill="midnightblue" stroke="midnightblue" points="1554.33,-51.5 1564.33,-48 1554.33,-44.5 1554.33,-51.5"/>
</g>
<!-- Node27 -->
<g id="node27" class="node">
<title>Node27</title>
<g id="a_node27"><a xlink:href="code__80071F00_8c.html#ae4511ccc379b63509142c6f7c57b11a9" target="_top" xlink:title=" ">
<polygon fill="white" stroke="black" points="1307,-38.5 1307,-57.5 1398,-57.5 1398,-38.5 1307,-38.5"/>
<text text-anchor="middle" x="1352.5" y="-45.5" font-family="Helvetica,sans-Serif" font-size="10.00">func_80085214</text>
</a>
</g>
</g>
<!-- Node26&#45;&gt;Node27 -->
<g id="edge33" class="edge">
<title>Node26&#45;&gt;Node27</title>
<path fill="none" stroke="midnightblue" d="M1425.25,-48C1416.16,-48 1406.84,-48 1398.06,-48"/>
<polygon fill="midnightblue" stroke="midnightblue" points="1425.37,-51.5 1435.37,-48 1425.37,-44.5 1425.37,-51.5"/>
</g>
<!-- Node27&#45;&gt;Node22 -->
<g id="edge34" class="edge">
<title>Node27&#45;&gt;Node22</title>
<path fill="none" stroke="midnightblue" d="M1309.77,-60.54C1292.56,-65.7 1272.94,-71.6 1256.91,-76.41"/>
<polygon fill="midnightblue" stroke="midnightblue" points="1311.01,-63.82 1319.58,-57.59 1308.99,-57.11 1311.01,-63.82"/>
</g>
<!-- Node29 -->
<g id="node29" class="node">
<title>Node29</title>
<g id="a_node29"><a xlink:href="code__80071F00_8c.html#aba593db6e0f24e395fb2dfbc8986da52" target="_top" xlink:title=" ">
<polygon fill="white" stroke="black" points="1565,-114.5 1565,-133.5 1657,-133.5 1657,-114.5 1565,-114.5"/>
<text text-anchor="middle" x="1611" y="-121.5" font-family="Helvetica,sans-Serif" font-size="10.00">func_80082C30</text>
</a>
</g>
</g>
<!-- Node28&#45;&gt;Node29 -->
<g id="edge36" class="edge">
<title>Node28&#45;&gt;Node29</title>
<path fill="none" stroke="midnightblue" d="M1683.7,-124C1674.92,-124 1665.93,-124 1657.42,-124"/>
<polygon fill="midnightblue" stroke="midnightblue" points="1683.87,-127.5 1693.87,-124 1683.87,-120.5 1683.87,-127.5"/>
</g>
<!-- Node30 -->
<g id="node30" class="node">
<title>Node30</title>
<g id="a_node30"><a xlink:href="code__80071F00_8c.html#abc5ed8f49b810b98a740d39af5bf2613" target="_top" xlink:title=" ">
<polygon fill="white" stroke="black" points="1306.5,-114.5 1306.5,-133.5 1398.5,-133.5 1398.5,-114.5 1306.5,-114.5"/>
<text text-anchor="middle" x="1352.5" y="-121.5" font-family="Helvetica,sans-Serif" font-size="10.00">func_80082E5C</text>
</a>
</g>
</g>
<!-- Node29&#45;&gt;Node30 -->
<g id="edge37" class="edge">
<title>Node29&#45;&gt;Node30</title>
<path fill="none" stroke="midnightblue" d="M1554.51,-124C1507.92,-124 1442.19,-124 1398.74,-124"/>
<polygon fill="midnightblue" stroke="midnightblue" points="1554.73,-127.5 1564.73,-124 1554.73,-120.5 1554.73,-127.5"/>
</g>
<!-- Node30&#45;&gt;Node22 -->
<g id="edge38" class="edge">
<title>Node30&#45;&gt;Node22</title>
<path fill="none" stroke="midnightblue" d="M1309.77,-111.46C1292.56,-106.3 1272.94,-100.4 1256.91,-95.59"/>
<polygon fill="midnightblue" stroke="midnightblue" points="1308.99,-114.89 1319.58,-114.41 1311.01,-108.18 1308.99,-114.89"/>
</g>
<!-- Node31&#45;&gt;Node29 -->
<g id="edge40" class="edge">
<title>Node31&#45;&gt;Node29</title>
<path fill="none" stroke="midnightblue" d="M1697.11,-149.46C1679.83,-144.3 1660.13,-138.4 1644.04,-133.59"/>
<polygon fill="midnightblue" stroke="midnightblue" points="1696.37,-152.9 1706.95,-152.41 1698.38,-146.19 1696.37,-152.9"/>
</g>
<!-- Node32&#45;&gt;Node29 -->
<g id="edge42" class="edge">
<title>Node32&#45;&gt;Node29</title>
<path fill="none" stroke="midnightblue" d="M1697.11,-98.54C1679.83,-103.7 1660.13,-109.6 1644.04,-114.41"/>
<polygon fill="midnightblue" stroke="midnightblue" points="1698.38,-101.81 1706.95,-95.59 1696.37,-95.1 1698.38,-101.81"/>
</g>
<!-- Node33 -->
<g id="node33" class="node">
<title>Node33</title>
<g id="a_node33"><a xlink:href="code__80071F00_8c.html#a2d3590008f61bffbeaadcc88dfb65bf0" target="_top" xlink:title=" ">
<polygon fill="white" stroke="black" points="1565.5,-76.5 1565.5,-95.5 1656.5,-95.5 1656.5,-76.5 1565.5,-76.5"/>
<text text-anchor="middle" x="1611" y="-83.5" font-family="Helvetica,sans-Serif" font-size="10.00">func_80083248</text>
</a>
</g>
</g>
<!-- Node32&#45;&gt;Node33 -->
<g id="edge43" class="edge">
<title>Node32&#45;&gt;Node33</title>
<path fill="none" stroke="midnightblue" d="M1683.75,-86C1674.66,-86 1665.34,-86 1656.56,-86"/>
<polygon fill="midnightblue" stroke="midnightblue" points="1683.87,-89.5 1693.87,-86 1683.87,-82.5 1683.87,-89.5"/>
</g>
<!-- Node34 -->
<g id="node34" class="node">
<title>Node34</title>
<g id="a_node34"><a xlink:href="code__80071F00_8c.html#a87459e233eeb4e0cc4a20c59b1933a0f" target="_top" xlink:title=" ">
<polygon fill="white" stroke="black" points="1435.5,-76.5 1435.5,-95.5 1527.5,-95.5 1527.5,-76.5 1435.5,-76.5"/>
<text text-anchor="middle" x="1481.5" y="-83.5" font-family="Helvetica,sans-Serif" font-size="10.00">func_800834B8</text>
</a>
</g>
</g>
<!-- Node33&#45;&gt;Node34 -->
<g id="edge44" class="edge">
<title>Node33&#45;&gt;Node34</title>
<path fill="none" stroke="midnightblue" d="M1555.2,-86C1546.03,-86 1536.61,-86 1527.72,-86"/>
<polygon fill="midnightblue" stroke="midnightblue" points="1555.41,-89.5 1565.41,-86 1555.41,-82.5 1555.41,-89.5"/>
</g>
<!-- Node34&#45;&gt;Node22 -->
<g id="edge45" class="edge">
<title>Node34&#45;&gt;Node22</title>
<path fill="none" stroke="midnightblue" d="M1425.36,-86C1375.11,-86 1302.42,-86 1259.8,-86"/>
<polygon fill="midnightblue" stroke="midnightblue" points="1425.41,-89.5 1435.41,-86 1425.41,-82.5 1425.41,-89.5"/>
</g>
</g>
</svg>
