<?xml version="1.0" encoding="UTF-8" standalone="no"?>
<!DOCTYPE svg PUBLIC "-//W3C//DTD SVG 1.1//EN"
 "http://www.w3.org/Graphics/SVG/1.1/DTD/svg11.dtd">
<!-- Generated by graphviz version 2.43.0 (0)
 -->
<!-- Title: func_8006E058 Pages: 1 -->
<svg width="565pt" height="1605pt"
 viewBox="0.00 0.00 565.00 1604.50" xmlns="http://www.w3.org/2000/svg" xmlns:xlink="http://www.w3.org/1999/xlink">
<g id="graph0" class="graph" transform="scale(1 1) rotate(0) translate(4 1600.5)">
<title>func_8006E058</title>
<!-- Node1 -->
<g id="Node000001" class="node">
<title>Node1</title>
<g id="a_Node000001"><a xlink:title=" ">
<polygon fill="#999999" stroke="#666666" points="91,-308 0,-308 0,-289 91,-289 91,-308"/>
<text text-anchor="middle" x="45.5" y="-296" font-family="Helvetica,sans-Serif" font-size="10.00">func_8006E058</text>
</a>
</g>
</g>
<!-- Node2 -->
<g id="Node000002" class="node">
<title>Node2</title>
<g id="a_Node000002"><a xlink:href="code__80057C60_8c.html#a8f3b5c4f1d51d119184917e0c9d97bdc" target="_top" xlink:title=" ">
<polygon fill="white" stroke="#666666" points="218,-308 127,-308 127,-289 218,-289 218,-308"/>
<text text-anchor="middle" x="172.5" y="-296" font-family="Helvetica,sans-Serif" font-size="10.00">func_8006E420</text>
</a>
</g>
</g>
<!-- Node1&#45;&gt;Node2 -->
<g id="edge1_Node000001_Node000002" class="edge">
<title>Node1&#45;&gt;Node2</title>
<g id="a_edge1_Node000001_Node000002"><a xlink:title=" ">
<path fill="none" stroke="#63b8ff" d="M91.27,-298.5C99.44,-298.5 108.05,-298.5 116.47,-298.5"/>
<polygon fill="#63b8ff" stroke="#63b8ff" points="116.62,-302 126.62,-298.5 116.62,-295 116.62,-302"/>
</a>
</g>
</g>
<!-- Node3 -->
<g id="Node000003" class="node">
<title>Node3</title>
<g id="a_Node000003"><a xlink:href="code__80057C60_8c.html#ab9e2d2ca2569ae7be82aac38f6375a8b" target="_top" xlink:title=" ">
<polygon fill="white" stroke="#666666" points="367,-1344 274,-1344 274,-1325 367,-1325 367,-1344"/>
<text text-anchor="middle" x="320.5" y="-1332" font-family="Helvetica,sans-Serif" font-size="10.00">func_8006C6AC</text>
</a>
</g>
</g>
<!-- Node2&#45;&gt;Node3 -->
<g id="edge2_Node000002_Node000003" class="edge">
<title>Node2&#45;&gt;Node3</title>
<g id="a_edge2_Node000002_Node000003"><a xlink:title=" ">
<path fill="none" stroke="#63b8ff" d="M174.85,-308.09C188.29,-403.43 297.73,-1180.01 316.7,-1314.64"/>
<polygon fill="#63b8ff" stroke="#63b8ff" points="313.26,-1315.33 318.13,-1324.75 320.2,-1314.36 313.26,-1315.33"/>
</a>
</g>
</g>
<!-- Node28 -->
<g id="Node000028" class="node">
<title>Node28</title>
<g id="a_Node000028"><a xlink:href="code__80057C60_8c.html#a4c783ee1b5a137e1c5b3b90ac164041e" target="_top" xlink:title=" ">
<polygon fill="white" stroke="#666666" points="366.5,-789 274.5,-789 274.5,-770 366.5,-770 366.5,-789"/>
<text text-anchor="middle" x="320.5" y="-777" font-family="Helvetica,sans-Serif" font-size="10.00">func_8006C9B8</text>
</a>
</g>
</g>
<!-- Node2&#45;&gt;Node28 -->
<g id="edge16_Node000002_Node000028" class="edge">
<title>Node2&#45;&gt;Node28</title>
<g id="a_edge16_Node000002_Node000028"><a xlink:title=" ">
<path fill="none" stroke="#63b8ff" d="M176.42,-308.11C194.27,-366.91 288.8,-678.37 313.56,-759.94"/>
<polygon fill="#63b8ff" stroke="#63b8ff" points="310.32,-761.32 316.58,-769.87 317.02,-759.28 310.32,-761.32"/>
</a>
</g>
</g>
<!-- Node48 -->
<g id="Node000048" class="node">
<title>Node48</title>
<g id="a_Node000048"><a xlink:href="code__80057C60_8c.html#adc75b9262fe814b1acf3486dedfff3b7" target="_top" xlink:title=" ">
<polygon fill="white" stroke="#666666" points="366.5,-308 274.5,-308 274.5,-289 366.5,-289 366.5,-308"/>
<text text-anchor="middle" x="320.5" y="-296" font-family="Helvetica,sans-Serif" font-size="10.00">func_8006CEC0</text>
</a>
</g>
</g>
<!-- Node2&#45;&gt;Node48 -->
<g id="edge34_Node000002_Node000048" class="edge">
<title>Node2&#45;&gt;Node48</title>
<g id="a_edge34_Node000002_Node000048"><a xlink:title=" ">
<path fill="none" stroke="#63b8ff" d="M218.1,-298.5C232.61,-298.5 248.9,-298.5 264.1,-298.5"/>
<polygon fill="#63b8ff" stroke="#63b8ff" points="264.42,-302 274.42,-298.5 264.42,-295 264.42,-302"/>
</a>
</g>
</g>
<!-- Node61 -->
<g id="Node000061" class="node">
<title>Node61</title>
<g id="a_Node000061"><a xlink:href="code__80057C60_8c.html#afebfdba8c74341e76e8b386788ea2e1c" target="_top" xlink:title=" ">
<polygon fill="#fff0f0" stroke="red" points="366.5,-93 274.5,-93 274.5,-74 366.5,-74 366.5,-93"/>
<text text-anchor="middle" x="320.5" y="-81" font-family="Helvetica,sans-Serif" font-size="10.00">func_8006D194</text>
</a>
</g>
</g>
<!-- Node2&#45;&gt;Node61 -->
<g id="edge45_Node000002_Node000061" class="edge">
<title>Node2&#45;&gt;Node61</title>
<g id="a_edge45_Node000002_Node000061"><a xlink:title=" ">
<path fill="none" stroke="#63b8ff" d="M179.96,-288.98C202.43,-255.9 277.37,-145.55 307.15,-101.69"/>
<polygon fill="#63b8ff" stroke="#63b8ff" points="310.06,-103.64 312.78,-93.4 304.27,-99.7 310.06,-103.64"/>
</a>
</g>
</g>
<!-- Node74 -->
<g id="Node000074" class="node">
<title>Node74</title>
<g id="a_Node000074"><a xlink:href="code__80057C60_8c.html#abe65cfe6317ed47dfbc05637dacb3bda" target="_top" xlink:title=" ">
<polygon fill="#fff0f0" stroke="red" points="387,-55.5 254,-55.5 254,-25.5 387,-25.5 387,-55.5"/>
<text text-anchor="start" x="262" y="-43.5" font-family="Helvetica,sans-Serif" font-size="10.00">update_player_balloons</text>
<text text-anchor="middle" x="320.5" y="-32.5" font-family="Helvetica,sans-Serif" font-size="10.00">_position</text>
</a>
</g>
</g>
<!-- Node2&#45;&gt;Node74 -->
<g id="edge49_Node000002_Node000074" class="edge">
<title>Node2&#45;&gt;Node74</title>
<g id="a_edge49_Node000002_Node000074"><a xlink:title=" ">
<path fill="none" stroke="#63b8ff" d="M174.04,-288.57C176.47,-253.24 189.39,-132.21 254,-65.5 255.4,-64.06 256.89,-62.7 258.45,-61.41"/>
<polygon fill="#63b8ff" stroke="#63b8ff" points="260.58,-64.2 266.81,-55.62 256.59,-58.44 260.58,-64.2"/>
</a>
</g>
</g>
<!-- Node4 -->
<g id="Node000004" class="node">
<title>Node4</title>
<g id="a_Node000004"><a xlink:href="code__80057C60_8c.html#a4a360c9afb80ff0d79825e3a77d34024" target="_top" xlink:title=" ">
<polygon fill="#fff0f0" stroke="red" points="548.5,-1596.5 431.5,-1596.5 431.5,-1566.5 548.5,-1566.5 548.5,-1596.5"/>
<text text-anchor="start" x="439.5" y="-1584.5" font-family="Helvetica,sans-Serif" font-size="10.00">check_drift_particles</text>
<text text-anchor="middle" x="490" y="-1573.5" font-family="Helvetica,sans-Serif" font-size="10.00">_setup_valid</text>
</a>
</g>
</g>
<!-- Node3&#45;&gt;Node4 -->
<g id="edge3_Node000003_Node000004" class="edge">
<title>Node3&#45;&gt;Node4</title>
<g id="a_edge3_Node000003_Node000004"><a xlink:title=" ">
<path fill="none" stroke="#63b8ff" d="M323.13,-1344.09C329.42,-1378.18 355.22,-1494.84 423,-1557.5 424.15,-1558.56 425.34,-1559.57 426.58,-1560.55"/>
<polygon fill="#63b8ff" stroke="#63b8ff" points="425.04,-1563.72 435.3,-1566.33 428.91,-1557.89 425.04,-1563.72"/>
</a>
</g>
</g>
<!-- Node9 -->
<g id="Node000009" class="node">
<title>Node9</title>
<g id="a_Node000009"><a xlink:href="code__80057C60_8c.html#a0340925b0b34df93b0e6ba7f54b79c64" target="_top" xlink:title=" ">
<polygon fill="#fff0f0" stroke="red" points="536,-1548 444,-1548 444,-1529 536,-1529 536,-1548"/>
<text text-anchor="middle" x="490" y="-1536" font-family="Helvetica,sans-Serif" font-size="10.00">func_8005EA94</text>
</a>
</g>
</g>
<!-- Node3&#45;&gt;Node9 -->
<g id="edge4_Node000003_Node000009" class="edge">
<title>Node3&#45;&gt;Node9</title>
<g id="a_edge4_Node000003_Node000009"><a xlink:title=" ">
<path fill="none" stroke="#63b8ff" d="M323.93,-1344.37C332.08,-1375.42 361.52,-1471.92 423,-1520.5 426.41,-1523.19 430.19,-1525.48 434.16,-1527.43"/>
<polygon fill="#63b8ff" stroke="#63b8ff" points="433.14,-1530.8 443.72,-1531.39 435.82,-1524.33 433.14,-1530.8"/>
</a>
</g>
</g>
<!-- Node12 -->
<g id="Node000012" class="node">
<title>Node12</title>
<g id="a_Node000012"><a xlink:href="code__80057C60_8c.html#a6c5b5f3082b6f1ad8e98e2b040e24fcb" target="_top" xlink:title=" ">
<polygon fill="#fff0f0" stroke="red" points="536,-1511 444,-1511 444,-1492 536,-1492 536,-1511"/>
<text text-anchor="middle" x="490" y="-1499" font-family="Helvetica,sans-Serif" font-size="10.00">func_8005ED48</text>
</a>
</g>
</g>
<!-- Node3&#45;&gt;Node12 -->
<g id="edge5_Node000003_Node000012" class="edge">
<title>Node3&#45;&gt;Node12</title>
<g id="a_edge5_Node000003_Node000012"><a xlink:title=" ">
<path fill="none" stroke="#63b8ff" d="M325.28,-1344.26C336.12,-1370.96 370,-1445.7 423,-1483.5 426.48,-1485.98 430.29,-1488.12 434.26,-1489.97"/>
<polygon fill="#63b8ff" stroke="#63b8ff" points="433.17,-1493.3 443.76,-1493.76 435.77,-1486.8 433.17,-1493.3"/>
</a>
</g>
</g>
<!-- Node14 -->
<g id="Node000014" class="node">
<title>Node14</title>
<g id="a_Node000014"><a xlink:href="code__80057C60_8c.html#ae89db7f4166bb0bea2ab2e96f2dff0a7" target="_top" xlink:title=" ">
<polygon fill="#fff0f0" stroke="red" points="536,-1474 444,-1474 444,-1455 536,-1455 536,-1474"/>
<text text-anchor="middle" x="490" y="-1462" font-family="Helvetica,sans-Serif" font-size="10.00">func_8005F90C</text>
</a>
</g>
</g>
<!-- Node3&#45;&gt;Node14 -->
<g id="edge6_Node000003_Node000014" class="edge">
<title>Node3&#45;&gt;Node14</title>
<g id="a_edge6_Node000003_Node000014"><a xlink:title=" ">
<path fill="none" stroke="#63b8ff" d="M327.52,-1344.29C341.48,-1366.13 378.27,-1419.05 423,-1446.5 426.59,-1448.7 430.45,-1450.64 434.43,-1452.34"/>
<polygon fill="#63b8ff" stroke="#63b8ff" points="433.31,-1455.66 443.9,-1455.91 435.77,-1449.11 433.31,-1455.66"/>
</a>
</g>
</g>
<!-- Node15 -->
<g id="Node000015" class="node">
<title>Node15</title>
<g id="a_Node000015"><a xlink:href="code__80057C60_8c.html#aa757c13f270502997ae61fdd3c9ae6d5" target="_top" xlink:title=" ">
<polygon fill="#fff0f0" stroke="red" points="536.5,-1437 443.5,-1437 443.5,-1418 536.5,-1418 536.5,-1437"/>
<text text-anchor="middle" x="490" y="-1425" font-family="Helvetica,sans-Serif" font-size="10.00">func_80060BCC</text>
</a>
</g>
</g>
<!-- Node3&#45;&gt;Node15 -->
<g id="edge7_Node000003_Node000015" class="edge">
<title>Node3&#45;&gt;Node15</title>
<g id="a_edge7_Node000003_Node000015"><a xlink:title=" ">
<path fill="none" stroke="#63b8ff" d="M331.61,-1344.01C348.97,-1359.85 386.13,-1391.63 423,-1409.5 426.85,-1411.36 430.92,-1413.06 435.07,-1414.6"/>
<polygon fill="#63b8ff" stroke="#63b8ff" points="434.26,-1418.02 444.86,-1417.91 436.5,-1411.39 434.26,-1418.02"/>
</a>
</g>
</g>
<!-- Node18 -->
<g id="Node000018" class="node">
<title>Node18</title>
<g id="a_Node000018"><a xlink:href="code__80057C60_8c.html#a1ad9e91071cad5dfa994eb76e901ec70" target="_top" xlink:title=" ">
<polygon fill="white" stroke="#666666" points="535.5,-1400 444.5,-1400 444.5,-1381 535.5,-1381 535.5,-1400"/>
<text text-anchor="middle" x="490" y="-1388" font-family="Helvetica,sans-Serif" font-size="10.00">func_80062F98</text>
</a>
</g>
</g>
<!-- Node3&#45;&gt;Node18 -->
<g id="edge8_Node000003_Node000018" class="edge">
<title>Node3&#45;&gt;Node18</title>
<g id="a_edge8_Node000003_Node000018"><a xlink:title=" ">
<path fill="none" stroke="#63b8ff" d="M345.07,-1344.03C365.51,-1352.12 395.96,-1363.77 423,-1372.5 429.01,-1374.44 435.37,-1376.35 441.67,-1378.16"/>
<polygon fill="#63b8ff" stroke="#63b8ff" points="440.9,-1381.58 451.48,-1380.91 442.79,-1374.84 440.9,-1381.58"/>
</a>
</g>
</g>
<!-- Node19 -->
<g id="Node000019" class="node">
<title>Node19</title>
<g id="a_Node000019"><a xlink:href="code__80057C60_8c.html#a66134a56df50da767b3a0eed55af3b2d" target="_top" xlink:title=" ">
<polygon fill="#fff0f0" stroke="red" points="535.5,-1363 444.5,-1363 444.5,-1344 535.5,-1344 535.5,-1363"/>
<text text-anchor="middle" x="490" y="-1351" font-family="Helvetica,sans-Serif" font-size="10.00">func_80063408</text>
</a>
</g>
</g>
<!-- Node3&#45;&gt;Node19 -->
<g id="edge9_Node000003_Node000019" class="edge">
<title>Node3&#45;&gt;Node19</title>
<g id="a_edge9_Node000003_Node000019"><a xlink:title=" ">
<path fill="none" stroke="#63b8ff" d="M367.27,-1339.69C388.01,-1342.04 412.69,-1344.84 434.39,-1347.3"/>
<polygon fill="#63b8ff" stroke="#63b8ff" points="434.11,-1350.8 444.44,-1348.45 434.9,-1343.84 434.11,-1350.8"/>
</a>
</g>
</g>
<!-- Node20 -->
<g id="Node000020" class="node">
<title>Node20</title>
<g id="a_Node000020"><a xlink:href="code__80057C60_8c.html#af5e24bebf891b64e3ff1e4c53ff6b0f5" target="_top" xlink:title=" ">
<polygon fill="#fff0f0" stroke="red" points="536,-1326 444,-1326 444,-1307 536,-1307 536,-1326"/>
<text text-anchor="middle" x="490" y="-1314" font-family="Helvetica,sans-Serif" font-size="10.00">func_800635D4</text>
</a>
</g>
</g>
<!-- Node3&#45;&gt;Node20 -->
<g id="edge10_Node000003_Node000020" class="edge">
<title>Node3&#45;&gt;Node20</title>
<g id="a_edge10_Node000003_Node000020"><a xlink:title=" ">
<path fill="none" stroke="#63b8ff" d="M367.27,-1329.58C387.84,-1327.37 412.29,-1324.74 433.86,-1322.43"/>
<polygon fill="#63b8ff" stroke="#63b8ff" points="434.3,-1325.9 443.87,-1321.35 433.55,-1318.94 434.3,-1325.9"/>
</a>
</g>
</g>
<!-- Node22 -->
<g id="Node000022" class="node">
<title>Node22</title>
<g id="a_Node000022"><a xlink:href="code__80057C60_8c.html#a4b23c9df24a46d709353ae090b2b8a35" target="_top" xlink:title=" ">
<polygon fill="#fff0f0" stroke="red" points="536.5,-1289 443.5,-1289 443.5,-1270 536.5,-1270 536.5,-1289"/>
<text text-anchor="middle" x="490" y="-1277" font-family="Helvetica,sans-Serif" font-size="10.00">func_800639DC</text>
</a>
</g>
</g>
<!-- Node3&#45;&gt;Node22 -->
<g id="edge11_Node000003_Node000022" class="edge">
<title>Node3&#45;&gt;Node22</title>
<g id="a_edge11_Node000003_Node000022"><a xlink:title=" ">
<path fill="none" stroke="#63b8ff" d="M347.22,-1324.89C367.65,-1317.38 397.01,-1306.84 423,-1298.5 429.95,-1296.27 437.34,-1294.02 444.58,-1291.89"/>
<polygon fill="#63b8ff" stroke="#63b8ff" points="445.66,-1295.22 454.28,-1289.07 443.7,-1288.5 445.66,-1295.22"/>
</a>
</g>
</g>
<!-- Node23 -->
<g id="Node000023" class="node">
<title>Node23</title>
<g id="a_Node000023"><a xlink:href="code__80057C60_8c.html#adb90e44399343e5959093cf95667cf09" target="_top" xlink:title=" ">
<polygon fill="#fff0f0" stroke="red" points="536.5,-1252 443.5,-1252 443.5,-1233 536.5,-1233 536.5,-1252"/>
<text text-anchor="middle" x="490" y="-1240" font-family="Helvetica,sans-Serif" font-size="10.00">func_80063BD4</text>
</a>
</g>
</g>
<!-- Node3&#45;&gt;Node23 -->
<g id="edge12_Node000003_Node000023" class="edge">
<title>Node3&#45;&gt;Node23</title>
<g id="a_edge12_Node000003_Node000023"><a xlink:title=" ">
<path fill="none" stroke="#63b8ff" d="M332.26,-1324.82C349.96,-1309.35 386.88,-1279.04 423,-1261.5 427.71,-1259.22 432.74,-1257.16 437.85,-1255.31"/>
<polygon fill="#63b8ff" stroke="#63b8ff" points="439.32,-1258.51 447.7,-1252.03 437.1,-1251.87 439.32,-1258.51"/>
</a>
</g>
</g>
<!-- Node24 -->
<g id="Node000024" class="node">
<title>Node24</title>
<g id="a_Node000024"><a xlink:href="code__80057C60_8c.html#a5ed20eccdcb4a43d370babb17c71b9a3" target="_top" xlink:title=" ">
<polygon fill="#fff0f0" stroke="red" points="536,-1215 444,-1215 444,-1196 536,-1196 536,-1215"/>
<text text-anchor="middle" x="490" y="-1203" font-family="Helvetica,sans-Serif" font-size="10.00">func_80063D58</text>
</a>
</g>
</g>
<!-- Node3&#45;&gt;Node24 -->
<g id="edge13_Node000003_Node000024" class="edge">
<title>Node3&#45;&gt;Node24</title>
<g id="a_edge13_Node000003_Node000024"><a xlink:title=" ">
<path fill="none" stroke="#63b8ff" d="M327.6,-1324.93C341.7,-1303.58 378.77,-1251.79 423,-1224.5 426.6,-1222.28 430.46,-1220.31 434.45,-1218.57"/>
<polygon fill="#63b8ff" stroke="#63b8ff" points="435.87,-1221.77 443.92,-1214.89 433.34,-1215.25 435.87,-1221.77"/>
</a>
</g>
</g>
<!-- Node25 -->
<g id="Node000025" class="node">
<title>Node25</title>
<g id="a_Node000025"><a xlink:href="code__80057C60_8c.html#aa045ad3a2f47e9869e242df3606796f6" target="_top" xlink:title=" ">
<polygon fill="#fff0f0" stroke="red" points="536,-1178 444,-1178 444,-1159 536,-1159 536,-1178"/>
<text text-anchor="middle" x="490" y="-1166" font-family="Helvetica,sans-Serif" font-size="10.00">func_800643A8</text>
</a>
</g>
</g>
<!-- Node3&#45;&gt;Node25 -->
<g id="edge14_Node000003_Node000025" class="edge">
<title>Node3&#45;&gt;Node25</title>
<g id="a_edge14_Node000003_Node000025"><a xlink:title=" ">
<path fill="none" stroke="#63b8ff" d="M325.34,-1324.91C336.35,-1298.67 370.63,-1225.16 423,-1187.5 426.49,-1184.99 430.3,-1182.82 434.27,-1180.93"/>
<polygon fill="#63b8ff" stroke="#63b8ff" points="435.85,-1184.06 443.77,-1177.01 433.19,-1177.59 435.85,-1184.06"/>
</a>
</g>
</g>
<!-- Node26 -->
<g id="Node000026" class="node">
<title>Node26</title>
<g id="a_Node000026"><a xlink:href="code__80057C60_8c.html#ac85895b6c6b26b128fed3d19deee80d8" target="_top" xlink:title=" ">
<polygon fill="#fff0f0" stroke="red" points="548,-1141 432,-1141 432,-1122 548,-1122 548,-1141"/>
<text text-anchor="middle" x="490" y="-1129" font-family="Helvetica,sans-Serif" font-size="10.00">setup_tyre_particles</text>
</a>
</g>
</g>
<!-- Node3&#45;&gt;Node26 -->
<g id="edge15_Node000003_Node000026" class="edge">
<title>Node3&#45;&gt;Node26</title>
<g id="a_edge15_Node000003_Node000026"><a xlink:title=" ">
<path fill="none" stroke="#63b8ff" d="M323.99,-1324.77C332.33,-1294.16 362.26,-1198.97 423,-1150.5 425.27,-1148.69 427.71,-1147.05 430.26,-1145.56"/>
<polygon fill="#63b8ff" stroke="#63b8ff" points="431.88,-1148.67 439.3,-1141.1 428.78,-1142.39 431.88,-1148.67"/>
</a>
</g>
</g>
<!-- Node29 -->
<g id="Node000029" class="node">
<title>Node29</title>
<g id="a_Node000029"><a xlink:href="code__80057C60_8c.html#aa4950b4b4553c3908843127990dc190f" target="_top" xlink:title=" ">
<polygon fill="#fff0f0" stroke="red" points="535.5,-1104 444.5,-1104 444.5,-1085 535.5,-1085 535.5,-1104"/>
<text text-anchor="middle" x="490" y="-1092" font-family="Helvetica,sans-Serif" font-size="10.00">func_800612F8</text>
</a>
</g>
</g>
<!-- Node28&#45;&gt;Node29 -->
<g id="edge17_Node000028_Node000029" class="edge">
<title>Node28&#45;&gt;Node29</title>
<g id="a_edge17_Node000028_Node000029"><a xlink:title=" ">
<path fill="none" stroke="#63b8ff" d="M321.72,-789.16C323.19,-830.43 334.61,-993.51 423,-1076.5 426.55,-1079.83 430.65,-1082.56 435.04,-1084.78"/>
<polygon fill="#63b8ff" stroke="#63b8ff" points="433.79,-1088.06 444.36,-1088.7 436.5,-1081.6 433.79,-1088.06"/>
</a>
</g>
</g>
<!-- Node30 -->
<g id="Node000030" class="node">
<title>Node30</title>
<g id="a_Node000030"><a xlink:href="code__80057C60_8c.html#ae73006b9d4e7e073306579765e68c695" target="_top" xlink:title=" ">
<polygon fill="#fff0f0" stroke="red" points="535.5,-1067 444.5,-1067 444.5,-1048 535.5,-1048 535.5,-1067"/>
<text text-anchor="middle" x="490" y="-1055" font-family="Helvetica,sans-Serif" font-size="10.00">func_80061430</text>
</a>
</g>
</g>
<!-- Node28&#45;&gt;Node30 -->
<g id="edge18_Node000028_Node000030" class="edge">
<title>Node28&#45;&gt;Node30</title>
<g id="a_edge18_Node000028_Node000030"><a xlink:title=" ">
<path fill="none" stroke="#63b8ff" d="M322.25,-789.25C325.75,-827.43 343.73,-968.22 423,-1039.5 426.47,-1042.62 430.43,-1045.21 434.65,-1047.35"/>
<polygon fill="#63b8ff" stroke="#63b8ff" points="433.64,-1050.72 444.21,-1051.37 436.35,-1044.27 433.64,-1050.72"/>
</a>
</g>
</g>
<!-- Node31 -->
<g id="Node000031" class="node">
<title>Node31</title>
<g id="a_Node000031"><a xlink:href="code__80057C60_8c.html#a4d9896118ef88dc01f72a600d8b0b1c4" target="_top" xlink:title=" ">
<polygon fill="#fff0f0" stroke="red" points="536,-1030 444,-1030 444,-1011 536,-1011 536,-1030"/>
<text text-anchor="middle" x="490" y="-1018" font-family="Helvetica,sans-Serif" font-size="10.00">func_800615AC</text>
</a>
</g>
</g>
<!-- Node28&#45;&gt;Node31 -->
<g id="edge19_Node000028_Node000031" class="edge">
<title>Node28&#45;&gt;Node31</title>
<g id="a_edge19_Node000028_Node000031"><a xlink:title=" ">
<path fill="none" stroke="#63b8ff" d="M322.95,-789.29C328.65,-824.05 352.7,-942.69 423,-1002.5 426.45,-1005.44 430.34,-1007.9 434.46,-1009.96"/>
<polygon fill="#63b8ff" stroke="#63b8ff" points="433.19,-1013.22 443.76,-1013.87 435.9,-1006.77 433.19,-1013.22"/>
</a>
</g>
</g>
<!-- Node32 -->
<g id="Node000032" class="node">
<title>Node32</title>
<g id="a_Node000032"><a xlink:href="code__80057C60_8c.html#a79b10d5a56f7e9a332b4c66044039182" target="_top" xlink:title=" ">
<polygon fill="#fff0f0" stroke="red" points="536,-993 444,-993 444,-974 536,-974 536,-993"/>
<text text-anchor="middle" x="490" y="-981" font-family="Helvetica,sans-Serif" font-size="10.00">func_8006199C</text>
</a>
</g>
</g>
<!-- Node28&#45;&gt;Node32 -->
<g id="edge20_Node000028_Node000032" class="edge">
<title>Node28&#45;&gt;Node32</title>
<g id="a_edge20_Node000028_Node000032"><a xlink:title=" ">
<path fill="none" stroke="#63b8ff" d="M323.93,-789.37C332.08,-820.42 361.52,-916.92 423,-965.5 426.41,-968.19 430.19,-970.48 434.16,-972.43"/>
<polygon fill="#63b8ff" stroke="#63b8ff" points="433.14,-975.8 443.72,-976.39 435.82,-969.33 433.14,-975.8"/>
</a>
</g>
</g>
<!-- Node34 -->
<g id="Node000034" class="node">
<title>Node34</title>
<g id="a_Node000034"><a xlink:href="code__80057C60_8c.html#a7b43ccf8c4348fbd39c3612d425e8532" target="_top" xlink:title=" ">
<polygon fill="#fff0f0" stroke="red" points="536,-956 444,-956 444,-937 536,-937 536,-956"/>
<text text-anchor="middle" x="490" y="-944" font-family="Helvetica,sans-Serif" font-size="10.00">func_80061A34</text>
</a>
</g>
</g>
<!-- Node28&#45;&gt;Node34 -->
<g id="edge21_Node000028_Node000034" class="edge">
<title>Node28&#45;&gt;Node34</title>
<g id="a_edge21_Node000028_Node000034"><a xlink:title=" ">
<path fill="none" stroke="#63b8ff" d="M325.28,-789.26C336.12,-815.96 370,-890.7 423,-928.5 426.48,-930.98 430.29,-933.12 434.26,-934.97"/>
<polygon fill="#63b8ff" stroke="#63b8ff" points="433.17,-938.3 443.76,-938.76 435.77,-931.8 433.17,-938.3"/>
</a>
</g>
</g>
<!-- Node35 -->
<g id="Node000035" class="node">
<title>Node35</title>
<g id="a_Node000035"><a xlink:href="code__80057C60_8c.html#ad62a778845b216d787e23626957a87e3" target="_top" xlink:title=" ">
<polygon fill="#fff0f0" stroke="red" points="536.5,-919 443.5,-919 443.5,-900 536.5,-900 536.5,-919"/>
<text text-anchor="middle" x="490" y="-907" font-family="Helvetica,sans-Serif" font-size="10.00">func_80061D4C</text>
</a>
</g>
</g>
<!-- Node28&#45;&gt;Node35 -->
<g id="edge22_Node000028_Node000035" class="edge">
<title>Node28&#45;&gt;Node35</title>
<g id="a_edge22_Node000028_Node000035"><a xlink:title=" ">
<path fill="none" stroke="#63b8ff" d="M327.52,-789.29C341.48,-811.13 378.27,-864.05 423,-891.5 426.38,-893.57 429.99,-895.41 433.73,-897.04"/>
<polygon fill="#63b8ff" stroke="#63b8ff" points="432.61,-900.36 443.2,-900.67 435.12,-893.82 432.61,-900.36"/>
</a>
</g>
</g>
<!-- Node36 -->
<g id="Node000036" class="node">
<title>Node36</title>
<g id="a_Node000036"><a xlink:href="code__80057C60_8c.html#a5b4b239596decbae5f8339c9894166d1" target="_top" xlink:title=" ">
<polygon fill="#fff0f0" stroke="red" points="535.5,-882 444.5,-882 444.5,-863 535.5,-863 535.5,-882"/>
<text text-anchor="middle" x="490" y="-870" font-family="Helvetica,sans-Serif" font-size="10.00">func_80061EF4</text>
</a>
</g>
</g>
<!-- Node28&#45;&gt;Node36 -->
<g id="edge23_Node000028_Node000036" class="edge">
<title>Node28&#45;&gt;Node36</title>
<g id="a_edge23_Node000028_Node000036"><a xlink:title=" ">
<path fill="none" stroke="#63b8ff" d="M331.61,-789.01C348.97,-804.85 386.13,-836.63 423,-854.5 426.85,-856.36 430.92,-858.06 435.07,-859.6"/>
<polygon fill="#63b8ff" stroke="#63b8ff" points="434.26,-863.02 444.86,-862.91 436.5,-856.39 434.26,-863.02"/>
</a>
</g>
</g>
<!-- Node37 -->
<g id="Node000037" class="node">
<title>Node37</title>
<g id="a_Node000037"><a xlink:href="code__80057C60_8c.html#adb4cb5cc0adce585e30dd0f7d71e0d5c" target="_top" xlink:title=" ">
<polygon fill="#fff0f0" stroke="red" points="536,-845 444,-845 444,-826 536,-826 536,-845"/>
<text text-anchor="middle" x="490" y="-833" font-family="Helvetica,sans-Serif" font-size="10.00">func_800621BC</text>
</a>
</g>
</g>
<!-- Node28&#45;&gt;Node37 -->
<g id="edge24_Node000028_Node000037" class="edge">
<title>Node28&#45;&gt;Node37</title>
<g id="a_edge24_Node000028_Node000037"><a xlink:title=" ">
<path fill="none" stroke="#63b8ff" d="M345.07,-789.03C365.51,-797.12 395.96,-808.77 423,-817.5 429.01,-819.44 435.37,-821.35 441.67,-823.16"/>
<polygon fill="#63b8ff" stroke="#63b8ff" points="440.9,-826.58 451.48,-825.91 442.79,-819.84 440.9,-826.58"/>
</a>
</g>
</g>
<!-- Node38 -->
<g id="Node000038" class="node">
<title>Node38</title>
<g id="a_Node000038"><a xlink:href="code__80057C60_8c.html#aae35d92113c6e9b9fd8aa60e470eea65" target="_top" xlink:title=" ">
<polygon fill="#fff0f0" stroke="red" points="536,-808 444,-808 444,-789 536,-789 536,-808"/>
<text text-anchor="middle" x="490" y="-796" font-family="Helvetica,sans-Serif" font-size="10.00">func_800624D8</text>
</a>
</g>
</g>
<!-- Node28&#45;&gt;Node38 -->
<g id="edge25_Node000028_Node000038" class="edge">
<title>Node28&#45;&gt;Node38</title>
<g id="a_edge25_Node000028_Node000038"><a xlink:title=" ">
<path fill="none" stroke="#63b8ff" d="M366.83,-784.64C387.49,-786.99 412.13,-789.78 433.85,-792.24"/>
<polygon fill="#63b8ff" stroke="#63b8ff" points="433.6,-795.74 443.93,-793.39 434.38,-788.78 433.6,-795.74"/>
</a>
</g>
</g>
<!-- Node40 -->
<g id="Node000040" class="node">
<title>Node40</title>
<g id="a_Node000040"><a xlink:href="code__80057C60_8c.html#a6e0e92de82a14b0bdbb35d9ae8aac6e3" target="_top" xlink:title=" ">
<polygon fill="#fff0f0" stroke="red" points="535.5,-771 444.5,-771 444.5,-752 535.5,-752 535.5,-771"/>
<text text-anchor="middle" x="490" y="-759" font-family="Helvetica,sans-Serif" font-size="10.00">func_800644E8</text>
</a>
</g>
</g>
<!-- Node28&#45;&gt;Node40 -->
<g id="edge26_Node000028_Node000040" class="edge">
<title>Node28&#45;&gt;Node40</title>
<g id="a_edge26_Node000028_Node000040"><a xlink:title=" ">
<path fill="none" stroke="#63b8ff" d="M366.83,-774.63C387.57,-772.4 412.33,-769.74 434.12,-767.4"/>
<polygon fill="#63b8ff" stroke="#63b8ff" points="434.65,-770.86 444.22,-766.31 433.9,-763.9 434.65,-770.86"/>
</a>
</g>
</g>
<!-- Node41 -->
<g id="Node000041" class="node">
<title>Node41</title>
<g id="a_Node000041"><a xlink:href="code__80057C60_8c.html#a1c10e558326640b40386c0ef6d9504f4" target="_top" xlink:title=" ">
<polygon fill="#fff0f0" stroke="red" points="535.5,-734 444.5,-734 444.5,-715 535.5,-715 535.5,-734"/>
<text text-anchor="middle" x="490" y="-722" font-family="Helvetica,sans-Serif" font-size="10.00">func_80064664</text>
</a>
</g>
</g>
<!-- Node28&#45;&gt;Node41 -->
<g id="edge27_Node000028_Node000041" class="edge">
<title>Node28&#45;&gt;Node41</title>
<g id="a_edge27_Node000028_Node000041"><a xlink:title=" ">
<path fill="none" stroke="#63b8ff" d="M347.22,-769.89C367.65,-762.38 397.01,-751.84 423,-743.5 429.95,-741.27 437.34,-739.02 444.58,-736.89"/>
<polygon fill="#63b8ff" stroke="#63b8ff" points="445.66,-740.22 454.28,-734.07 443.7,-733.5 445.66,-740.22"/>
</a>
</g>
</g>
<!-- Node42 -->
<g id="Node000042" class="node">
<title>Node42</title>
<g id="a_Node000042"><a xlink:href="code__80057C60_8c.html#ae9496ed6b8b2d4a6b39ad6ab08d7b824" target="_top" xlink:title=" ">
<polygon fill="#fff0f0" stroke="red" points="536,-697 444,-697 444,-678 536,-678 536,-697"/>
<text text-anchor="middle" x="490" y="-685" font-family="Helvetica,sans-Serif" font-size="10.00">func_800647C8</text>
</a>
</g>
</g>
<!-- Node28&#45;&gt;Node42 -->
<g id="edge28_Node000028_Node000042" class="edge">
<title>Node28&#45;&gt;Node42</title>
<g id="a_edge28_Node000028_Node000042"><a xlink:title=" ">
<path fill="none" stroke="#63b8ff" d="M332.26,-769.82C349.96,-754.35 386.88,-724.04 423,-706.5 427.71,-704.22 432.74,-702.16 437.85,-700.31"/>
<polygon fill="#63b8ff" stroke="#63b8ff" points="439.32,-703.51 447.7,-697.03 437.1,-696.87 439.32,-703.51"/>
</a>
</g>
</g>
<!-- Node43 -->
<g id="Node000043" class="node">
<title>Node43</title>
<g id="a_Node000043"><a xlink:href="code__80057C60_8c.html#a2ed96aea8da4dc1f547b73cf2aecfec3" target="_top" xlink:title=" ">
<polygon fill="white" stroke="#666666" points="535.5,-660 444.5,-660 444.5,-641 535.5,-641 535.5,-660"/>
<text text-anchor="middle" x="490" y="-648" font-family="Helvetica,sans-Serif" font-size="10.00">func_800648E4</text>
</a>
</g>
</g>
<!-- Node28&#45;&gt;Node43 -->
<g id="edge29_Node000028_Node000043" class="edge">
<title>Node28&#45;&gt;Node43</title>
<g id="a_edge29_Node000028_Node000043"><a xlink:title=" ">
<path fill="none" stroke="#63b8ff" d="M327.6,-769.93C341.7,-748.58 378.77,-696.79 423,-669.5 426.65,-667.25 430.58,-665.25 434.64,-663.48"/>
<polygon fill="#63b8ff" stroke="#63b8ff" points="436.2,-666.63 444.27,-659.77 433.68,-660.1 436.2,-666.63"/>
</a>
</g>
</g>
<!-- Node44 -->
<g id="Node000044" class="node">
<title>Node44</title>
<g id="a_Node000044"><a xlink:href="code__80057C60_8c.html#aee21d92eb9658450f0d96a7ff20bac30" target="_top" xlink:title=" ">
<polygon fill="white" stroke="#666666" points="535.5,-623 444.5,-623 444.5,-604 535.5,-604 535.5,-623"/>
<text text-anchor="middle" x="490" y="-611" font-family="Helvetica,sans-Serif" font-size="10.00">func_80064988</text>
</a>
</g>
</g>
<!-- Node28&#45;&gt;Node44 -->
<g id="edge30_Node000028_Node000044" class="edge">
<title>Node28&#45;&gt;Node44</title>
<g id="a_edge30_Node000028_Node000044"><a xlink:title=" ">
<path fill="none" stroke="#63b8ff" d="M325.34,-769.91C336.35,-743.67 370.63,-670.16 423,-632.5 426.69,-629.84 430.75,-627.56 434.99,-625.59"/>
<polygon fill="#63b8ff" stroke="#63b8ff" points="436.49,-628.76 444.46,-621.77 433.87,-622.26 436.49,-628.76"/>
</a>
</g>
</g>
<!-- Node45 -->
<g id="Node000045" class="node">
<title>Node45</title>
<g id="a_Node000045"><a xlink:href="code__80057C60_8c.html#af273255d287b430b325e5a33a51cbeb8" target="_top" xlink:title=" ">
<polygon fill="#fff0f0" stroke="red" points="535.5,-586 444.5,-586 444.5,-567 535.5,-567 535.5,-586"/>
<text text-anchor="middle" x="490" y="-574" font-family="Helvetica,sans-Serif" font-size="10.00">func_800649F4</text>
</a>
</g>
</g>
<!-- Node28&#45;&gt;Node45 -->
<g id="edge31_Node000028_Node000045" class="edge">
<title>Node28&#45;&gt;Node45</title>
<g id="a_edge31_Node000028_Node000045"><a xlink:title=" ">
<path fill="none" stroke="#63b8ff" d="M323.99,-769.77C332.33,-739.16 362.26,-643.97 423,-595.5 426.61,-592.62 430.64,-590.18 434.88,-588.1"/>
<polygon fill="#63b8ff" stroke="#63b8ff" points="436.52,-591.21 444.41,-584.13 433.83,-584.75 436.52,-591.21"/>
</a>
</g>
</g>
<!-- Node46 -->
<g id="Node000046" class="node">
<title>Node46</title>
<g id="a_Node000046"><a xlink:href="code__80057C60_8c.html#ac0fbcc27babb884e4c676d53a064ecdf" target="_top" xlink:title=" ">
<polygon fill="#fff0f0" stroke="red" points="536,-549 444,-549 444,-530 536,-530 536,-549"/>
<text text-anchor="middle" x="490" y="-537" font-family="Helvetica,sans-Serif" font-size="10.00">func_80064B30</text>
</a>
</g>
</g>
<!-- Node28&#45;&gt;Node46 -->
<g id="edge32_Node000028_Node000046" class="edge">
<title>Node28&#45;&gt;Node46</title>
<g id="a_edge32_Node000028_Node000046"><a xlink:title=" ">
<path fill="none" stroke="#63b8ff" d="M323.01,-769.83C328.91,-735.5 353.54,-618.24 423,-558.5 426.45,-555.53 430.34,-553.03 434.45,-550.92"/>
<polygon fill="#63b8ff" stroke="#63b8ff" points="435.98,-554.07 443.76,-546.88 433.19,-547.65 435.98,-554.07"/>
</a>
</g>
</g>
<!-- Node47 -->
<g id="Node000047" class="node">
<title>Node47</title>
<g id="a_Node000047"><a xlink:href="code__80057C60_8c.html#a33ce24afbd6882aa8253aeb0f72c5a20" target="_top" xlink:title=" ">
<polygon fill="#fff0f0" stroke="red" points="536,-512 444,-512 444,-493 536,-493 536,-512"/>
<text text-anchor="middle" x="490" y="-500" font-family="Helvetica,sans-Serif" font-size="10.00">func_80064C74</text>
</a>
</g>
</g>
<!-- Node28&#45;&gt;Node47 -->
<g id="edge33_Node000028_Node000047" class="edge">
<title>Node28&#45;&gt;Node47</title>
<g id="a_edge33_Node000028_Node000047"><a xlink:title=" ">
<path fill="none" stroke="#63b8ff" d="M322.31,-769.86C326.01,-732.08 344.67,-592.76 423,-521.5 426.42,-518.39 430.31,-515.79 434.46,-513.61"/>
<polygon fill="#63b8ff" stroke="#63b8ff" points="436.11,-516.71 443.86,-509.49 433.3,-510.3 436.11,-516.71"/>
</a>
</g>
</g>
<!-- Node49 -->
<g id="Node000049" class="node">
<title>Node49</title>
<g id="a_Node000049"><a xlink:href="code__80057C60_8c.html#ad058651c431797dbc78b3298f8288832" target="_top" xlink:title=" ">
<polygon fill="#fff0f0" stroke="red" points="535.5,-475 444.5,-475 444.5,-456 535.5,-456 535.5,-475"/>
<text text-anchor="middle" x="490" y="-463" font-family="Helvetica,sans-Serif" font-size="10.00">func_80060504</text>
</a>
</g>
</g>
<!-- Node48&#45;&gt;Node49 -->
<g id="edge35_Node000048_Node000049" class="edge">
<title>Node48&#45;&gt;Node49</title>
<g id="a_edge35_Node000048_Node000049"><a xlink:title=" ">
<path fill="none" stroke="#63b8ff" d="M325.28,-308.26C336.12,-334.96 370,-409.7 423,-447.5 426.69,-450.13 430.75,-452.38 434.98,-454.3"/>
<polygon fill="#63b8ff" stroke="#63b8ff" points="433.86,-457.62 444.44,-457.99 436.4,-451.1 433.86,-457.62"/>
</a>
</g>
</g>
<!-- Node50 -->
<g id="Node000050" class="node">
<title>Node50</title>
<g id="a_Node000050"><a xlink:href="code__80057C60_8c.html#a1490de17555e1b9a2120d0057fb14b4d" target="_top" xlink:title=" ">
<polygon fill="#fff0f0" stroke="red" points="536,-438 444,-438 444,-419 536,-419 536,-438"/>
<text text-anchor="middle" x="490" y="-426" font-family="Helvetica,sans-Serif" font-size="10.00">func_80060B14</text>
</a>
</g>
</g>
<!-- Node48&#45;&gt;Node50 -->
<g id="edge36_Node000048_Node000050" class="edge">
<title>Node48&#45;&gt;Node50</title>
<g id="a_edge36_Node000048_Node000050"><a xlink:title=" ">
<path fill="none" stroke="#63b8ff" d="M327.52,-308.29C341.48,-330.13 378.27,-383.05 423,-410.5 426.59,-412.7 430.45,-414.64 434.43,-416.34"/>
<polygon fill="#63b8ff" stroke="#63b8ff" points="433.31,-419.66 443.9,-419.91 435.77,-413.11 433.31,-419.66"/>
</a>
</g>
</g>
<!-- Node52 -->
<g id="Node000052" class="node">
<title>Node52</title>
<g id="a_Node000052"><a xlink:href="code__80057C60_8c.html#a68b6c90102b7a6e83ebf8807b90cc6a8" target="_top" xlink:title=" ">
<polygon fill="#fff0f0" stroke="red" points="535.5,-401 444.5,-401 444.5,-382 535.5,-382 535.5,-401"/>
<text text-anchor="middle" x="490" y="-389" font-family="Helvetica,sans-Serif" font-size="10.00">func_80060F50</text>
</a>
</g>
</g>
<!-- Node48&#45;&gt;Node52 -->
<g id="edge37_Node000048_Node000052" class="edge">
<title>Node48&#45;&gt;Node52</title>
<g id="a_edge37_Node000048_Node000052"><a xlink:title=" ">
<path fill="none" stroke="#63b8ff" d="M331.61,-308.01C348.97,-323.85 386.13,-355.63 423,-373.5 426.85,-375.36 430.92,-377.06 435.07,-378.6"/>
<polygon fill="#63b8ff" stroke="#63b8ff" points="434.26,-382.02 444.86,-381.91 436.5,-375.39 434.26,-382.02"/>
</a>
</g>
</g>
<!-- Node53 -->
<g id="Node000053" class="node">
<title>Node53</title>
<g id="a_Node000053"><a xlink:href="code__80057C60_8c.html#afe948d4c87d7a47b21508d880b9bba8f" target="_top" xlink:title=" ">
<polygon fill="#fff0f0" stroke="red" points="535.5,-364 444.5,-364 444.5,-345 535.5,-345 535.5,-364"/>
<text text-anchor="middle" x="490" y="-352" font-family="Helvetica,sans-Serif" font-size="10.00">func_80061094</text>
</a>
</g>
</g>
<!-- Node48&#45;&gt;Node53 -->
<g id="edge38_Node000048_Node000053" class="edge">
<title>Node48&#45;&gt;Node53</title>
<g id="a_edge38_Node000048_Node000053"><a xlink:title=" ">
<path fill="none" stroke="#63b8ff" d="M345.07,-308.03C365.51,-316.12 395.96,-327.77 423,-336.5 429.01,-338.44 435.37,-340.35 441.67,-342.16"/>
<polygon fill="#63b8ff" stroke="#63b8ff" points="440.9,-345.58 451.48,-344.91 442.79,-338.84 440.9,-345.58"/>
</a>
</g>
</g>
<!-- Node54 -->
<g id="Node000054" class="node">
<title>Node54</title>
<g id="a_Node000054"><a xlink:href="code__80057C60_8c.html#a92c73facb86dcd8ef27c87b48484480b" target="_top" xlink:title=" ">
<polygon fill="#fff0f0" stroke="red" points="535.5,-327 444.5,-327 444.5,-308 535.5,-308 535.5,-327"/>
<text text-anchor="middle" x="490" y="-315" font-family="Helvetica,sans-Serif" font-size="10.00">func_80061224</text>
</a>
</g>
</g>
<!-- Node48&#45;&gt;Node54 -->
<g id="edge39_Node000048_Node000054" class="edge">
<title>Node48&#45;&gt;Node54</title>
<g id="a_edge39_Node000048_Node000054"><a xlink:title=" ">
<path fill="none" stroke="#63b8ff" d="M366.83,-303.64C387.57,-305.99 412.33,-308.8 434.12,-311.27"/>
<polygon fill="#63b8ff" stroke="#63b8ff" points="433.89,-314.77 444.22,-312.42 434.67,-307.82 433.89,-314.77"/>
</a>
</g>
</g>
<!-- Node56 -->
<g id="Node000056" class="node">
<title>Node56</title>
<g id="a_Node000056"><a xlink:href="code__80057C60_8c.html#aa9472e436a1a1bdffd935363571244c7" target="_top" xlink:title=" ">
<polygon fill="#fff0f0" stroke="red" points="536,-290 444,-290 444,-271 536,-271 536,-290"/>
<text text-anchor="middle" x="490" y="-278" font-family="Helvetica,sans-Serif" font-size="10.00">func_80062C74</text>
</a>
</g>
</g>
<!-- Node48&#45;&gt;Node56 -->
<g id="edge40_Node000048_Node000056" class="edge">
<title>Node48&#45;&gt;Node56</title>
<g id="a_edge40_Node000048_Node000056"><a xlink:title=" ">
<path fill="none" stroke="#63b8ff" d="M366.83,-293.63C387.49,-291.41 412.13,-288.76 433.85,-286.43"/>
<polygon fill="#63b8ff" stroke="#63b8ff" points="434.36,-289.89 443.93,-285.34 433.61,-282.93 434.36,-289.89"/>
</a>
</g>
</g>
<!-- Node57 -->
<g id="Node000057" class="node">
<title>Node57</title>
<g id="a_Node000057"><a xlink:href="code__80057C60_8c.html#ad6184716ecec0fb97634c456ae1189f8" target="_top" xlink:title=" ">
<polygon fill="white" stroke="#666666" points="536,-253 444,-253 444,-234 536,-234 536,-253"/>
<text text-anchor="middle" x="490" y="-241" font-family="Helvetica,sans-Serif" font-size="10.00">func_800631A8</text>
</a>
</g>
</g>
<!-- Node48&#45;&gt;Node57 -->
<g id="edge41_Node000048_Node000057" class="edge">
<title>Node48&#45;&gt;Node57</title>
<g id="a_edge41_Node000048_Node000057"><a xlink:title=" ">
<path fill="none" stroke="#63b8ff" d="M347.22,-288.89C367.65,-281.38 397.01,-270.84 423,-262.5 429.95,-260.27 437.34,-258.02 444.58,-255.89"/>
<polygon fill="#63b8ff" stroke="#63b8ff" points="445.66,-259.22 454.28,-253.07 443.7,-252.5 445.66,-259.22"/>
</a>
</g>
</g>
<!-- Node58 -->
<g id="Node000058" class="node">
<title>Node58</title>
<g id="a_Node000058"><a xlink:href="code__80057C60_8c.html#ab9d9cc582e70d0fae57f3c34da522f40" target="_top" xlink:title=" ">
<polygon fill="#fff0f0" stroke="red" points="535.5,-216 444.5,-216 444.5,-197 535.5,-197 535.5,-216"/>
<text text-anchor="middle" x="490" y="-204" font-family="Helvetica,sans-Serif" font-size="10.00">func_80063268</text>
</a>
</g>
</g>
<!-- Node48&#45;&gt;Node58 -->
<g id="edge42_Node000048_Node000058" class="edge">
<title>Node48&#45;&gt;Node58</title>
<g id="a_edge42_Node000048_Node000058"><a xlink:title=" ">
<path fill="none" stroke="#63b8ff" d="M332.26,-288.82C349.96,-273.35 386.88,-243.04 423,-225.5 427.71,-223.22 432.74,-221.16 437.85,-219.31"/>
<polygon fill="#63b8ff" stroke="#63b8ff" points="439.32,-222.51 447.7,-216.03 437.1,-215.87 439.32,-222.51"/>
</a>
</g>
</g>
<!-- Node59 -->
<g id="Node000059" class="node">
<title>Node59</title>
<g id="a_Node000059"><a xlink:href="code__80057C60_8c.html#ae6737d5fadf1adcca9b4e7cfe2fcd634" target="_top" xlink:title=" ">
<polygon fill="#fff0f0" stroke="red" points="535.5,-179 444.5,-179 444.5,-160 535.5,-160 535.5,-179"/>
<text text-anchor="middle" x="490" y="-167" font-family="Helvetica,sans-Serif" font-size="10.00">func_80064184</text>
</a>
</g>
</g>
<!-- Node48&#45;&gt;Node59 -->
<g id="edge43_Node000048_Node000059" class="edge">
<title>Node48&#45;&gt;Node59</title>
<g id="a_edge43_Node000048_Node000059"><a xlink:title=" ">
<path fill="none" stroke="#63b8ff" d="M327.6,-288.93C341.7,-267.58 378.77,-215.79 423,-188.5 426.65,-186.25 430.58,-184.25 434.64,-182.48"/>
<polygon fill="#63b8ff" stroke="#63b8ff" points="436.2,-185.63 444.27,-178.77 433.68,-179.1 436.2,-185.63"/>
</a>
</g>
</g>
<!-- Node60 -->
<g id="Node000060" class="node">
<title>Node60</title>
<g id="a_Node000060"><a xlink:href="code__80057C60_8c.html#abf002ce063e141f5bf2df4eb2cee2f1d" target="_top" xlink:title=" ">
<polygon fill="#fff0f0" stroke="red" points="557,-141.5 423,-141.5 423,-111.5 557,-111.5 557,-141.5"/>
<text text-anchor="start" x="431" y="-129.5" font-family="Helvetica,sans-Serif" font-size="10.00">set_oob_splash_particle</text>
<text text-anchor="middle" x="490" y="-118.5" font-family="Helvetica,sans-Serif" font-size="10.00">_position</text>
</a>
</g>
</g>
<!-- Node48&#45;&gt;Node60 -->
<g id="edge44_Node000048_Node000060" class="edge">
<title>Node48&#45;&gt;Node60</title>
<g id="a_edge44_Node000048_Node000060"><a xlink:title=" ">
<path fill="none" stroke="#63b8ff" d="M325.68,-288.75C337.29,-262.76 372.45,-191.08 423,-151.5 425.31,-149.69 427.76,-148.01 430.31,-146.43"/>
<polygon fill="#63b8ff" stroke="#63b8ff" points="432.2,-149.39 439.28,-141.51 428.83,-143.25 432.2,-149.39"/>
</a>
</g>
</g>
<!-- Node62 -->
<g id="Node000062" class="node">
<title>Node62</title>
<g id="a_Node000062"><a xlink:href="code__80057C60_8c.html#abfe5c820a686850db8d9ea0e7c21f58e" target="_top" xlink:title=" ">
<polygon fill="white" stroke="#666666" points="536,-93 444,-93 444,-74 536,-74 536,-93"/>
<text text-anchor="middle" x="490" y="-81" font-family="Helvetica,sans-Serif" font-size="10.00">func_800628C0</text>
</a>
</g>
</g>
<!-- Node61&#45;&gt;Node62 -->
<g id="edge46_Node000061_Node000062" class="edge">
<title>Node61&#45;&gt;Node62</title>
<g id="a_edge46_Node000061_Node000062"><a xlink:title=" ">
<path fill="none" stroke="#63b8ff" d="M366.83,-83.5C387.49,-83.5 412.13,-83.5 433.85,-83.5"/>
<polygon fill="#63b8ff" stroke="#63b8ff" points="433.93,-87 443.93,-83.5 433.93,-80 433.93,-87"/>
</a>
</g>
</g>
<!-- Node63 -->
<g id="Node000063" class="node">
<title>Node63</title>
<g id="a_Node000063"><a xlink:href="code__80057C60_8c.html#a924af73685d653f7bc53115f0cc13316" target="_top" xlink:title=" ">
<polygon fill="white" stroke="#666666" points="535.5,-56 444.5,-56 444.5,-37 535.5,-37 535.5,-56"/>
<text text-anchor="middle" x="490" y="-44" font-family="Helvetica,sans-Serif" font-size="10.00">func_80062914</text>
</a>
</g>
</g>
<!-- Node61&#45;&gt;Node63 -->
<g id="edge47_Node000061_Node000063" class="edge">
<title>Node61&#45;&gt;Node63</title>
<g id="a_edge47_Node000061_Node000063"><a xlink:title=" ">
<path fill="none" stroke="#63b8ff" d="M364.64,-73.97C386.34,-69.18 412.84,-63.32 435.79,-58.25"/>
<polygon fill="#63b8ff" stroke="#63b8ff" points="436.71,-61.64 445.72,-56.06 435.2,-54.8 436.71,-61.64"/>
</a>
</g>
</g>
<!-- Node64 -->
<g id="Node000064" class="node">
<title>Node64</title>
<g id="a_Node000064"><a xlink:href="code__80057C60_8c.html#a560858769c8ad173fcd84b3c81a8a493" target="_top" xlink:title=" ">
<polygon fill="white" stroke="#666666" points="535.5,-19 444.5,-19 444.5,0 535.5,0 535.5,-19"/>
<text text-anchor="middle" x="490" y="-7" font-family="Helvetica,sans-Serif" font-size="10.00">func_80062968</text>
</a>
</g>
</g>
<!-- Node61&#45;&gt;Node64 -->
<g id="edge48_Node000061_Node000064" class="edge">
<title>Node61&#45;&gt;Node64</title>
<g id="a_edge48_Node000061_Node000064"><a xlink:title=" ">
<path fill="none" stroke="#63b8ff" d="M366.15,-73.93C373.39,-71.44 380.6,-68.34 387,-64.5 406.67,-52.69 403.23,-39.15 423,-27.5 426.68,-25.33 430.64,-23.41 434.71,-21.72"/>
<polygon fill="#63b8ff" stroke="#63b8ff" points="436.18,-24.91 444.36,-18.17 433.77,-18.34 436.18,-24.91"/>
</a>
</g>
</g>
</g>
</svg>
