<?xml version="1.0" encoding="UTF-8" standalone="no"?>
<!DOCTYPE svg PUBLIC "-//W3C//DTD SVG 1.1//EN"
 "http://www.w3.org/Graphics/SVG/1.1/DTD/svg11.dtd">
<!-- Generated by graphviz version 2.43.0 (0)
 -->
<!-- Title: src/code_80091750.c Pages: 1 -->
<svg width="3845pt" height="364pt"
 viewBox="0.00 0.00 3845.00 364.00" xmlns="http://www.w3.org/2000/svg" xmlns:xlink="http://www.w3.org/1999/xlink">
<g id="graph0" class="graph" transform="scale(1 1) rotate(0) translate(4 360)">
<title>src/code_80091750.c</title>
<polygon fill="white" stroke="transparent" points="-4,4 -4,-360 3841,-360 3841,4 -4,4"/>
<!-- Node1 -->
<g id="node1" class="node">
<title>Node1</title>
<g id="a_node1"><a xlink:title=" ">
<polygon fill="#bfbfbf" stroke="black" points="1724.5,-336.5 1724.5,-355.5 1843.5,-355.5 1843.5,-336.5 1724.5,-336.5"/>
<text text-anchor="middle" x="1784" y="-343.5" font-family="Helvetica,sans-Serif" font-size="10.00">src/code_80091750.c</text>
</a>
</g>
</g>
<!-- Node2 -->
<g id="node2" class="node">
<title>Node2</title>
<g id="a_node2"><a xlink:href="ultra64_8h.html" target="_top" xlink:title=" ">
<polygon fill="white" stroke="red" points="513,-224.5 513,-243.5 573,-243.5 573,-224.5 513,-224.5"/>
<text text-anchor="middle" x="543" y="-231.5" font-family="Helvetica,sans-Serif" font-size="10.00">ultra64.h</text>
</a>
</g>
</g>
<!-- Node1&#45;&gt;Node2 -->
<g id="edge1" class="edge">
<title>Node1&#45;&gt;Node2</title>
<path fill="none" stroke="midnightblue" d="M1724.34,-344.35C1534.35,-341.97 944.9,-332.13 757,-300 690.35,-288.6 615.35,-262.64 574.2,-247.19"/>
<polygon fill="midnightblue" stroke="midnightblue" points="575.33,-243.88 564.74,-243.6 572.85,-250.42 575.33,-243.88"/>
</g>
<!-- Node4 -->
<g id="node4" class="node">
<title>Node4</title>
<g id="a_node4"><a xlink:href="ultratypes_8h.html" target="_top" xlink:title=" ">
<polygon fill="white" stroke="red" points="583.5,-0.5 583.5,-19.5 674.5,-19.5 674.5,-0.5 583.5,-0.5"/>
<text text-anchor="middle" x="629" y="-7.5" font-family="Helvetica,sans-Serif" font-size="10.00">PR/ultratypes.h</text>
</a>
</g>
</g>
<!-- Node1&#45;&gt;Node4 -->
<g id="edge35" class="edge">
<title>Node1&#45;&gt;Node4</title>
<path fill="none" stroke="midnightblue" d="M1724.39,-344.51C1414.32,-341.59 0,-323.41 0,-235 0,-235 0,-235 0,-121 0,-33.01 101.09,-75.03 187,-56 323.63,-25.73 488.61,-15.77 573.12,-12.53"/>
<polygon fill="midnightblue" stroke="midnightblue" points="573.4,-16.02 583.27,-12.15 573.15,-9.02 573.4,-16.02"/>
</g>
<!-- Node29 -->
<g id="node19" class="node">
<title>Node29</title>
<g id="a_node19"><a xlink:href="macros_8h.html" target="_top" xlink:title=" ">
<polygon fill="white" stroke="black" points="827,-224.5 827,-243.5 889,-243.5 889,-224.5 827,-224.5"/>
<text text-anchor="middle" x="858" y="-231.5" font-family="Helvetica,sans-Serif" font-size="10.00">macros.h</text>
</a>
</g>
</g>
<!-- Node1&#45;&gt;Node29 -->
<g id="edge33" class="edge">
<title>Node1&#45;&gt;Node29</title>
<path fill="none" stroke="midnightblue" d="M1724.4,-344.38C1541.26,-342.12 994.65,-332.67 922,-300 899.3,-289.79 880.35,-267.62 869.1,-252.02"/>
<polygon fill="midnightblue" stroke="midnightblue" points="871.95,-249.99 863.4,-243.74 866.19,-253.96 871.95,-249.99"/>
</g>
<!-- Node30 -->
<g id="node20" class="node">
<title>Node30</title>
<g id="a_node20"><a xlink:href="defines_8h.html" target="_top" xlink:title=" ">
<polygon fill="white" stroke="black" points="1494.5,-224.5 1494.5,-243.5 1555.5,-243.5 1555.5,-224.5 1494.5,-224.5"/>
<text text-anchor="middle" x="1525" y="-231.5" font-family="Helvetica,sans-Serif" font-size="10.00">defines.h</text>
</a>
</g>
</g>
<!-- Node1&#45;&gt;Node30 -->
<g id="edge34" class="edge">
<title>Node1&#45;&gt;Node30</title>
<path fill="none" stroke="midnightblue" d="M1724.17,-345.01C1644.74,-343.6 1510.89,-335.8 1480,-300 1466.05,-283.84 1485.67,-263.32 1503.21,-249.7"/>
<polygon fill="midnightblue" stroke="midnightblue" points="1505.5,-252.36 1511.5,-243.62 1501.36,-246.72 1505.5,-252.36"/>
</g>
<!-- Node31 -->
<g id="node21" class="node">
<title>Node31</title>
<g id="a_node21"><a xlink:href="config_8h.html" target="_top" xlink:title=" ">
<polygon fill="white" stroke="black" points="1387.5,-224.5 1387.5,-243.5 1442.5,-243.5 1442.5,-224.5 1387.5,-224.5"/>
<text text-anchor="middle" x="1415" y="-231.5" font-family="Helvetica,sans-Serif" font-size="10.00">config.h</text>
</a>
</g>
</g>
<!-- Node1&#45;&gt;Node31 -->
<g id="edge36" class="edge">
<title>Node1&#45;&gt;Node31</title>
<path fill="none" stroke="midnightblue" d="M1724.37,-341.32C1646.3,-335.66 1514.39,-323 1472,-300 1451.68,-288.98 1435.18,-267.69 1425.25,-252.48"/>
<polygon fill="midnightblue" stroke="midnightblue" points="1428.2,-250.58 1419.95,-243.94 1422.25,-254.28 1428.2,-250.58"/>
</g>
<!-- Node32 -->
<g id="node22" class="node">
<title>Node32</title>
<g id="a_node22"><a xlink:href="variables_8h.html" target="_top" xlink:title=" ">
<polygon fill="white" stroke="red" points="1489.5,-280.5 1489.5,-299.5 1560.5,-299.5 1560.5,-280.5 1489.5,-280.5"/>
<text text-anchor="middle" x="1525" y="-287.5" font-family="Helvetica,sans-Serif" font-size="10.00">variables.h</text>
</a>
</g>
</g>
<!-- Node1&#45;&gt;Node32 -->
<g id="edge37" class="edge">
<title>Node1&#45;&gt;Node32</title>
<path fill="none" stroke="midnightblue" d="M1742.96,-336.44C1696.09,-326.67 1619.59,-310.72 1570.81,-300.55"/>
<polygon fill="midnightblue" stroke="midnightblue" points="1571.35,-297.09 1560.84,-298.47 1569.92,-303.94 1571.35,-297.09"/>
</g>
<!-- Node36 -->
<g id="node23" class="node">
<title>Node36</title>
<g id="a_node23"><a xlink:href="sounds_8h.html" target="_top" xlink:title=" ">
<polygon fill="white" stroke="black" points="1656,-280.5 1656,-299.5 1716,-299.5 1716,-280.5 1656,-280.5"/>
<text text-anchor="middle" x="1686" y="-287.5" font-family="Helvetica,sans-Serif" font-size="10.00">sounds.h</text>
</a>
</g>
</g>
<!-- Node1&#45;&gt;Node36 -->
<g id="edge39" class="edge">
<title>Node1&#45;&gt;Node36</title>
<path fill="none" stroke="midnightblue" d="M1768.25,-336.32C1752.68,-327.74 1728.62,-314.49 1710.54,-304.52"/>
<polygon fill="midnightblue" stroke="midnightblue" points="1712.15,-301.42 1701.71,-299.65 1708.78,-307.55 1712.15,-301.42"/>
</g>
<!-- Node37 -->
<g id="node24" class="node">
<title>Node37</title>
<g id="a_node24"><a xlink:href="code__800029B0_8h.html" target="_top" xlink:title=" ">
<polygon fill="white" stroke="red" points="766.5,-280.5 766.5,-299.5 869.5,-299.5 869.5,-280.5 766.5,-280.5"/>
<text text-anchor="middle" x="818" y="-287.5" font-family="Helvetica,sans-Serif" font-size="10.00">code_800029B0.h</text>
</a>
</g>
</g>
<!-- Node1&#45;&gt;Node37 -->
<g id="edge40" class="edge">
<title>Node1&#45;&gt;Node37</title>
<path fill="none" stroke="midnightblue" d="M1724.37,-343.78C1579.92,-340.45 1199.83,-329.38 884,-300 882.7,-299.88 881.4,-299.75 880.08,-299.62"/>
<polygon fill="midnightblue" stroke="midnightblue" points="880.15,-296.11 869.83,-298.49 879.39,-303.06 880.15,-296.11"/>
</g>
<!-- Node41 -->
<g id="node25" class="node">
<title>Node41</title>
<g id="a_node25"><a xlink:href="code__80091750_8h.html" target="_top" xlink:title=" ">
<polygon fill="white" stroke="red" points="1002,-280.5 1002,-299.5 1104,-299.5 1104,-280.5 1002,-280.5"/>
<text text-anchor="middle" x="1053" y="-287.5" font-family="Helvetica,sans-Serif" font-size="10.00">code_80091750.h</text>
</a>
</g>
</g>
<!-- Node1&#45;&gt;Node41 -->
<g id="edge43" class="edge">
<title>Node1&#45;&gt;Node41</title>
<path fill="none" stroke="midnightblue" d="M1724.18,-342.37C1607.42,-336.92 1341.07,-322.95 1118,-300 1116.73,-299.87 1115.44,-299.73 1114.14,-299.59"/>
<polygon fill="midnightblue" stroke="midnightblue" points="1114.39,-296.1 1104.05,-298.41 1113.58,-303.05 1114.39,-296.1"/>
</g>
<!-- Node42 -->
<g id="node26" class="node">
<title>Node42</title>
<g id="a_node26"><a xlink:href="textures_8h.html" target="_top" xlink:title=" ">
<polygon fill="white" stroke="black" points="1020,-224.5 1020,-243.5 1086,-243.5 1086,-224.5 1020,-224.5"/>
<text text-anchor="middle" x="1053" y="-231.5" font-family="Helvetica,sans-Serif" font-size="10.00">textures.h</text>
</a>
</g>
</g>
<!-- Node1&#45;&gt;Node42 -->
<g id="edge65" class="edge">
<title>Node1&#45;&gt;Node42</title>
<path fill="none" stroke="midnightblue" d="M1724.47,-343.82C1544.69,-339.98 1018.05,-326.51 993,-300 976.33,-282.36 1003.11,-261.73 1026.04,-248.52"/>
<polygon fill="midnightblue" stroke="midnightblue" points="1027.78,-251.56 1034.86,-243.68 1024.41,-245.43 1027.78,-251.56"/>
</g>
<!-- Node43 -->
<g id="node27" class="node">
<title>Node43</title>
<g id="a_node27"><a xlink:href="main_8h.html" target="_top" xlink:title=" ">
<polygon fill="white" stroke="red" points="1160,-224.5 1160,-243.5 1210,-243.5 1210,-224.5 1160,-224.5"/>
<text text-anchor="middle" x="1185" y="-231.5" font-family="Helvetica,sans-Serif" font-size="10.00">main.h</text>
</a>
</g>
</g>
<!-- Node1&#45;&gt;Node43 -->
<g id="edge78" class="edge">
<title>Node1&#45;&gt;Node43</title>
<path fill="none" stroke="midnightblue" d="M1724.39,-344.84C1581.03,-343.84 1226.05,-337.57 1189,-300 1177.23,-288.07 1177.75,-268.16 1180.27,-253.52"/>
<polygon fill="midnightblue" stroke="midnightblue" points="1183.73,-254.08 1182.42,-243.56 1176.89,-252.6 1183.73,-254.08"/>
</g>
<!-- Node44 -->
<g id="node28" class="node">
<title>Node44</title>
<g id="a_node28"><a xlink:href="code__80005FD0_8h.html" target="_top" xlink:title=" ">
<polygon fill="white" stroke="red" points="1772,-280.5 1772,-299.5 1876,-299.5 1876,-280.5 1772,-280.5"/>
<text text-anchor="middle" x="1824" y="-287.5" font-family="Helvetica,sans-Serif" font-size="10.00">code_80005FD0.h</text>
</a>
</g>
</g>
<!-- Node1&#45;&gt;Node44 -->
<g id="edge47" class="edge">
<title>Node1&#45;&gt;Node44</title>
<path fill="none" stroke="midnightblue" d="M1790.61,-336.08C1796.26,-328.46 1804.54,-317.26 1811.45,-307.94"/>
<polygon fill="midnightblue" stroke="midnightblue" points="1814.38,-309.87 1817.52,-299.75 1808.75,-305.7 1814.38,-309.87"/>
</g>
<!-- Node47 -->
<g id="node29" class="node">
<title>Node47</title>
<g id="a_node29"><a xlink:href="common__textures_8h.html" target="_top" xlink:title=" ">
<polygon fill="white" stroke="red" points="1727,-224.5 1727,-243.5 1841,-243.5 1841,-224.5 1727,-224.5"/>
<text text-anchor="middle" x="1784" y="-231.5" font-family="Helvetica,sans-Serif" font-size="10.00">common_textures.h</text>
</a>
</g>
</g>
<!-- Node1&#45;&gt;Node47 -->
<g id="edge64" class="edge">
<title>Node1&#45;&gt;Node47</title>
<path fill="none" stroke="midnightblue" d="M1778.62,-336.44C1773.44,-327.68 1765.99,-313.47 1763,-300 1759.36,-283.58 1766.2,-265.4 1773.02,-252.45"/>
<polygon fill="midnightblue" stroke="midnightblue" points="1776.11,-254.1 1778.07,-243.69 1770.05,-250.61 1776.11,-254.1"/>
</g>
<!-- Node48 -->
<g id="node30" class="node">
<title>Node48</title>
<g id="a_node30"><a xlink:href="code__8006E9C0_8h.html" target="_top" xlink:title=" ">
<polygon fill="white" stroke="red" points="1894.5,-280.5 1894.5,-299.5 1997.5,-299.5 1997.5,-280.5 1894.5,-280.5"/>
<text text-anchor="middle" x="1946" y="-287.5" font-family="Helvetica,sans-Serif" font-size="10.00">code_8006E9C0.h</text>
</a>
</g>
</g>
<!-- Node1&#45;&gt;Node48 -->
<g id="edge49" class="edge">
<title>Node1&#45;&gt;Node48</title>
<path fill="none" stroke="midnightblue" d="M1809.67,-336.44C1836.92,-327.36 1880.18,-312.94 1910.65,-302.78"/>
<polygon fill="midnightblue" stroke="midnightblue" points="1912.07,-306 1920.45,-299.52 1909.86,-299.36 1912.07,-306"/>
</g>
<!-- Node51 -->
<g id="node31" class="node">
<title>Node51</title>
<g id="a_node31"><a xlink:href="menus_8h.html" target="_top" xlink:title=" ">
<polygon fill="white" stroke="red" points="1578.5,-280.5 1578.5,-299.5 1637.5,-299.5 1637.5,-280.5 1578.5,-280.5"/>
<text text-anchor="middle" x="1608" y="-287.5" font-family="Helvetica,sans-Serif" font-size="10.00">menus.h</text>
</a>
</g>
</g>
<!-- Node1&#45;&gt;Node51 -->
<g id="edge50" class="edge">
<title>Node1&#45;&gt;Node51</title>
<path fill="none" stroke="midnightblue" d="M1756.11,-336.44C1726.25,-327.28 1678.69,-312.69 1645.54,-302.52"/>
<polygon fill="midnightblue" stroke="midnightblue" points="1646.34,-299.1 1635.76,-299.52 1644.29,-305.8 1646.34,-299.1"/>
</g>
<!-- Node53 -->
<g id="node32" class="node">
<title>Node53</title>
<g id="a_node32"><a xlink:href="save_8h.html" target="_top" xlink:title=" ">
<polygon fill="white" stroke="red" points="2015.5,-280.5 2015.5,-299.5 2064.5,-299.5 2064.5,-280.5 2015.5,-280.5"/>
<text text-anchor="middle" x="2040" y="-287.5" font-family="Helvetica,sans-Serif" font-size="10.00">save.h</text>
</a>
</g>
</g>
<!-- Node1&#45;&gt;Node53 -->
<g id="edge52" class="edge">
<title>Node1&#45;&gt;Node53</title>
<path fill="none" stroke="midnightblue" d="M1831.19,-336.43C1874.25,-328.4 1939.87,-315.62 2005.13,-300.33"/>
<polygon fill="midnightblue" stroke="midnightblue" points="2006.25,-303.67 2015.18,-297.96 2004.64,-296.85 2006.25,-303.67"/>
</g>
<!-- Node54 -->
<g id="node33" class="node">
<title>Node54</title>
<g id="a_node33"><a xlink:href="code__80057C60_8h.html" target="_top" xlink:title=" ">
<polygon fill="white" stroke="red" points="2082.5,-280.5 2082.5,-299.5 2185.5,-299.5 2185.5,-280.5 2082.5,-280.5"/>
<text text-anchor="middle" x="2134" y="-287.5" font-family="Helvetica,sans-Serif" font-size="10.00">code_80057C60.h</text>
</a>
</g>
</g>
<!-- Node1&#45;&gt;Node54 -->
<g id="edge53" class="edge">
<title>Node1&#45;&gt;Node54</title>
<path fill="none" stroke="midnightblue" d="M1839.46,-336.44C1902.76,-326.68 2006.05,-310.74 2071.98,-300.57"/>
<polygon fill="midnightblue" stroke="midnightblue" points="2072.87,-303.97 2082.22,-298.99 2071.81,-297.05 2072.87,-303.97"/>
</g>
<!-- Node55 -->
<g id="node34" class="node">
<title>Node55</title>
<g id="a_node34"><a xlink:href="credits_8h.html" target="_top" xlink:title=" ">
<polygon fill="white" stroke="black" points="938.5,-112.5 938.5,-131.5 997.5,-131.5 997.5,-112.5 938.5,-112.5"/>
<text text-anchor="middle" x="968" y="-119.5" font-family="Helvetica,sans-Serif" font-size="10.00">credits.h</text>
</a>
</g>
</g>
<!-- Node1&#45;&gt;Node55 -->
<g id="edge54" class="edge">
<title>Node1&#45;&gt;Node55</title>
<path fill="none" stroke="midnightblue" d="M1724.43,-343.86C1543.22,-340.12 1009.37,-326.84 984,-300 943.44,-257.09 1016.54,-224.38 999,-168 995.77,-157.62 989.22,-147.52 982.98,-139.53"/>
<polygon fill="midnightblue" stroke="midnightblue" points="985.58,-137.19 976.48,-131.77 980.21,-141.68 985.58,-137.19"/>
</g>
<!-- Node56 -->
<g id="node35" class="node">
<title>Node56</title>
<g id="a_node35"><a xlink:href="data__segment2_8h.html" target="_top" xlink:title=" ">
<polygon fill="white" stroke="red" points="2203.5,-280.5 2203.5,-299.5 2304.5,-299.5 2304.5,-280.5 2203.5,-280.5"/>
<text text-anchor="middle" x="2254" y="-287.5" font-family="Helvetica,sans-Serif" font-size="10.00">data_segment2.h</text>
</a>
</g>
</g>
<!-- Node1&#45;&gt;Node56 -->
<g id="edge56" class="edge">
<title>Node1&#45;&gt;Node56</title>
<path fill="none" stroke="midnightblue" d="M1843.65,-339.27C1921.67,-331.59 2062.87,-317.09 2193.32,-300.18"/>
<polygon fill="midnightblue" stroke="midnightblue" points="2194.03,-303.61 2203.49,-298.85 2193.12,-296.67 2194.03,-303.61"/>
</g>
<!-- Node57 -->
<g id="node36" class="node">
<title>Node57</title>
<g id="a_node36"><a xlink:href="code__800AF9B0_8h.html" target="_top" xlink:title=" ">
<polygon fill="white" stroke="red" points="2323,-280.5 2323,-299.5 2427,-299.5 2427,-280.5 2323,-280.5"/>
<text text-anchor="middle" x="2375" y="-287.5" font-family="Helvetica,sans-Serif" font-size="10.00">code_800AF9B0.h</text>
</a>
</g>
</g>
<!-- Node1&#45;&gt;Node57 -->
<g id="edge57" class="edge">
<title>Node1&#45;&gt;Node57</title>
<path fill="none" stroke="midnightblue" d="M1843.73,-341.14C1940.18,-334.63 2136.39,-320.3 2312.8,-300.07"/>
<polygon fill="midnightblue" stroke="midnightblue" points="2313.25,-303.55 2322.78,-298.92 2312.45,-296.59 2313.25,-303.55"/>
</g>
<!-- Node58 -->
<g id="node37" class="node">
<title>Node58</title>
<g id="a_node37"><a xlink:href="code__80281780_8h.html" target="_top" xlink:title=" ">
<polygon fill="white" stroke="black" points="2445,-280.5 2445,-299.5 2547,-299.5 2547,-280.5 2445,-280.5"/>
<text text-anchor="middle" x="2496" y="-287.5" font-family="Helvetica,sans-Serif" font-size="10.00">code_80281780.h</text>
</a>
</g>
</g>
<!-- Node1&#45;&gt;Node58 -->
<g id="edge58" class="edge">
<title>Node1&#45;&gt;Node58</title>
<path fill="none" stroke="midnightblue" d="M1843.92,-342.47C1957.27,-337.33 2211.02,-324.16 2435,-300.02"/>
<polygon fill="midnightblue" stroke="midnightblue" points="2435.41,-303.5 2444.97,-298.94 2434.65,-296.54 2435.41,-303.5"/>
</g>
<!-- Node59 -->
<g id="node38" class="node">
<title>Node59</title>
<g id="a_node38"><a xlink:href="memory_8h.html" target="_top" xlink:title=" ">
<polygon fill="white" stroke="red" points="2565.5,-280.5 2565.5,-299.5 2630.5,-299.5 2630.5,-280.5 2565.5,-280.5"/>
<text text-anchor="middle" x="2598" y="-287.5" font-family="Helvetica,sans-Serif" font-size="10.00">memory.h</text>
</a>
</g>
</g>
<!-- Node1&#45;&gt;Node59 -->
<g id="edge59" class="edge">
<title>Node1&#45;&gt;Node59</title>
<path fill="none" stroke="midnightblue" d="M1843.87,-344.62C1972.43,-343.13 2284.51,-335.91 2555.06,-299.9"/>
<polygon fill="midnightblue" stroke="midnightblue" points="2555.63,-303.36 2565.07,-298.55 2554.69,-296.42 2555.63,-303.36"/>
</g>
<!-- Node60 -->
<g id="node39" class="node">
<title>Node60</title>
<g id="a_node39"><a xlink:href="external_8h.html" target="_top" xlink:title=" ">
<polygon fill="white" stroke="red" points="2649,-280.5 2649,-299.5 2745,-299.5 2745,-280.5 2649,-280.5"/>
<text text-anchor="middle" x="2697" y="-287.5" font-family="Helvetica,sans-Serif" font-size="10.00">audio/external.h</text>
</a>
</g>
</g>
<!-- Node1&#45;&gt;Node60 -->
<g id="edge60" class="edge">
<title>Node1&#45;&gt;Node60</title>
<path fill="none" stroke="midnightblue" d="M1843.58,-344C1981.57,-341.22 2333.93,-331.5 2638.49,-300.04"/>
<polygon fill="midnightblue" stroke="midnightblue" points="2639.26,-303.48 2648.84,-298.96 2638.54,-296.52 2639.26,-303.48"/>
</g>
<!-- Node61 -->
<g id="node40" class="node">
<title>Node61</title>
<g id="a_node40"><a xlink:href="hud__renderer_8h.html" target="_top" xlink:title=" ">
<polygon fill="white" stroke="red" points="1198.5,-280.5 1198.5,-299.5 1287.5,-299.5 1287.5,-280.5 1198.5,-280.5"/>
<text text-anchor="middle" x="1243" y="-287.5" font-family="Helvetica,sans-Serif" font-size="10.00">hud_renderer.h</text>
</a>
</g>
</g>
<!-- Node1&#45;&gt;Node61 -->
<g id="edge61" class="edge">
<title>Node1&#45;&gt;Node61</title>
<path fill="none" stroke="midnightblue" d="M1724.49,-340.98C1634.3,-334.57 1457.41,-320.72 1297.79,-300.15"/>
<polygon fill="midnightblue" stroke="midnightblue" points="1298.15,-296.67 1287.78,-298.85 1297.25,-303.61 1298.15,-296.67"/>
</g>
<!-- Node62 -->
<g id="node41" class="node">
<title>Node62</title>
<g id="a_node41"><a xlink:href="staff__ghosts_8h.html" target="_top" xlink:title=" ">
<polygon fill="white" stroke="red" points="2763.5,-280.5 2763.5,-299.5 2848.5,-299.5 2848.5,-280.5 2763.5,-280.5"/>
<text text-anchor="middle" x="2806" y="-287.5" font-family="Helvetica,sans-Serif" font-size="10.00">staff_ghosts.h</text>
</a>
</g>
</g>
<!-- Node1&#45;&gt;Node62 -->
<g id="edge63" class="edge">
<title>Node1&#45;&gt;Node62</title>
<path fill="none" stroke="midnightblue" d="M1843.53,-344.82C1994.16,-343.82 2402.78,-337.65 2753.4,-299.9"/>
<polygon fill="midnightblue" stroke="midnightblue" points="2753.93,-303.36 2763.49,-298.8 2753.17,-296.4 2753.93,-303.36"/>
</g>
<!-- Node63 -->
<g id="node42" class="node">
<title>Node63</title>
<g id="a_node42"><a xlink:href="math__util_8h.html" target="_top" xlink:title=" ">
<polygon fill="white" stroke="red" points="1089,-56.5 1089,-75.5 1161,-75.5 1161,-56.5 1089,-56.5"/>
<text text-anchor="middle" x="1125" y="-63.5" font-family="Helvetica,sans-Serif" font-size="10.00">math_util.h</text>
</a>
</g>
</g>
<!-- Node1&#45;&gt;Node63 -->
<g id="edge66" class="edge">
<title>Node1&#45;&gt;Node63</title>
<path fill="none" stroke="midnightblue" d="M1724.45,-343.52C1580.63,-339.55 1222.69,-327.03 1176,-300 1145.81,-282.52 1132,-269.89 1132,-235 1132,-235 1132,-235 1132,-177 1132,-144.88 1128.99,-107.6 1126.92,-85.73"/>
<polygon fill="midnightblue" stroke="midnightblue" points="1130.38,-85.15 1125.92,-75.55 1123.41,-85.84 1130.38,-85.15"/>
</g>
<!-- Node64 -->
<g id="node43" class="node">
<title>Node64</title>
<g id="a_node43"><a xlink:href="save__data_8h.html" target="_top" xlink:title=" ">
<polygon fill="white" stroke="red" points="2867,-280.5 2867,-299.5 2943,-299.5 2943,-280.5 2867,-280.5"/>
<text text-anchor="middle" x="2905" y="-287.5" font-family="Helvetica,sans-Serif" font-size="10.00">save_data.h</text>
</a>
</g>
</g>
<!-- Node1&#45;&gt;Node64 -->
<g id="edge68" class="edge">
<title>Node1&#45;&gt;Node64</title>
<path fill="none" stroke="midnightblue" d="M1843.62,-345.57C2005.25,-346.47 2465.39,-344.67 2856.75,-299.96"/>
<polygon fill="midnightblue" stroke="midnightblue" points="2857.32,-303.42 2866.85,-298.79 2856.52,-296.46 2857.32,-303.42"/>
</g>
<!-- Node65 -->
<g id="node44" class="node">
<title>Node65</title>
<g id="a_node44"><a xlink:href="podium__ceremony__actors_8h.html" target="_top" xlink:title=" ">
<polygon fill="white" stroke="red" points="2961,-280.5 2961,-299.5 3113,-299.5 3113,-280.5 2961,-280.5"/>
<text text-anchor="middle" x="3037" y="-287.5" font-family="Helvetica,sans-Serif" font-size="10.00">podium_ceremony_actors.h</text>
</a>
</g>
</g>
<!-- Node1&#45;&gt;Node65 -->
<g id="edge69" class="edge">
<title>Node1&#45;&gt;Node65</title>
<path fill="none" stroke="midnightblue" d="M1843.64,-344.11C2014.39,-341.27 2519.98,-330.75 2950.41,-300.07"/>
<polygon fill="midnightblue" stroke="midnightblue" points="2950.84,-303.54 2960.57,-299.34 2950.34,-296.56 2950.84,-303.54"/>
</g>
<!-- Node66 -->
<g id="node45" class="node">
<title>Node66</title>
<g id="a_node45"><a xlink:href="skybox__and__splitscreen_8h.html" target="_top" xlink:title=" ">
<polygon fill="white" stroke="red" points="3131,-280.5 3131,-299.5 3273,-299.5 3273,-280.5 3131,-280.5"/>
<text text-anchor="middle" x="3202" y="-287.5" font-family="Helvetica,sans-Serif" font-size="10.00">skybox_and_splitscreen.h</text>
</a>
</g>
</g>
<!-- Node1&#45;&gt;Node66 -->
<g id="edge70" class="edge">
<title>Node1&#45;&gt;Node66</title>
<path fill="none" stroke="midnightblue" d="M1843.77,-344.66C2030.69,-343.24 2620.98,-336.06 3120.62,-300.04"/>
<polygon fill="midnightblue" stroke="midnightblue" points="3121.21,-303.5 3130.93,-299.29 3120.7,-296.52 3121.21,-303.5"/>
</g>
<!-- Node67 -->
<g id="node46" class="node">
<title>Node67</title>
<g id="a_node46"><a xlink:href="startup__logo_8inc_8h.html" target="_top" xlink:title=" ">
<polygon fill="white" stroke="black" points="3291,-280.5 3291,-299.5 3437,-299.5 3437,-280.5 3291,-280.5"/>
<text text-anchor="middle" x="3364" y="-287.5" font-family="Helvetica,sans-Serif" font-size="10.00">src/data/startup_logo.inc.h</text>
</a>
</g>
</g>
<!-- Node1&#45;&gt;Node67 -->
<g id="edge71" class="edge">
<title>Node1&#45;&gt;Node67</title>
<path fill="none" stroke="midnightblue" d="M1843.67,-344.9C2044.68,-344.22 2715.71,-339.03 3280.73,-300.03"/>
<polygon fill="midnightblue" stroke="midnightblue" points="3280.97,-303.52 3290.71,-299.34 3280.49,-296.54 3280.97,-303.52"/>
</g>
<!-- Node68 -->
<g id="node47" class="node">
<title>Node68</title>
<g id="a_node47"><a xlink:href="framebuffers_8h.html" target="_top" xlink:title=" ">
<polygon fill="white" stroke="red" points="1305.5,-280.5 1305.5,-299.5 1394.5,-299.5 1394.5,-280.5 1305.5,-280.5"/>
<text text-anchor="middle" x="1350" y="-287.5" font-family="Helvetica,sans-Serif" font-size="10.00">framebuffers.h</text>
</a>
</g>
</g>
<!-- Node1&#45;&gt;Node68 -->
<g id="edge72" class="edge">
<title>Node1&#45;&gt;Node68</title>
<path fill="none" stroke="midnightblue" d="M1724.5,-338.45C1650.48,-330.17 1520.26,-315.16 1409,-300 1407.7,-299.82 1406.39,-299.64 1405.06,-299.46"/>
<polygon fill="midnightblue" stroke="midnightblue" points="1405.15,-295.93 1394.76,-297.98 1404.16,-302.86 1405.15,-295.93"/>
</g>
<!-- Node69 -->
<g id="node48" class="node">
<title>Node69</title>
<g id="a_node48"><a xlink:href="race__logic_8h.html" target="_top" xlink:title=" ">
<polygon fill="white" stroke="black" points="3455,-280.5 3455,-299.5 3563,-299.5 3563,-280.5 3455,-280.5"/>
<text text-anchor="middle" x="3509" y="-287.5" font-family="Helvetica,sans-Serif" font-size="10.00">racing/race_logic.h</text>
</a>
</g>
</g>
<!-- Node1&#45;&gt;Node69 -->
<g id="edge75" class="edge">
<title>Node1&#45;&gt;Node69</title>
<path fill="none" stroke="midnightblue" d="M1843.74,-344.3C2099.6,-341.18 3104.9,-327.44 3444.65,-299.99"/>
<polygon fill="midnightblue" stroke="midnightblue" points="3445.07,-303.47 3454.75,-299.15 3444.49,-296.49 3445.07,-303.47"/>
</g>
<!-- Node70 -->
<g id="node49" class="node">
<title>Node70</title>
<g id="a_node49"><a xlink:href="code__80281C40_8h.html" target="_top" xlink:title=" ">
<polygon fill="white" stroke="black" points="3581.5,-280.5 3581.5,-299.5 3720.5,-299.5 3720.5,-280.5 3581.5,-280.5"/>
<text text-anchor="middle" x="3651" y="-287.5" font-family="Helvetica,sans-Serif" font-size="10.00">ending/code_80281C40.h</text>
</a>
</g>
</g>
<!-- Node1&#45;&gt;Node70 -->
<g id="edge76" class="edge">
<title>Node1&#45;&gt;Node70</title>
<path fill="none" stroke="midnightblue" d="M1843.51,-345.41C2068.18,-346.54 2886.34,-347.03 3571.17,-299.98"/>
<polygon fill="midnightblue" stroke="midnightblue" points="3571.51,-303.47 3581.24,-299.28 3571.03,-296.48 3571.51,-303.47"/>
</g>
<!-- Node71 -->
<g id="node50" class="node">
<title>Node71</title>
<g id="a_node50"><a xlink:href="spawn__players_8h.html" target="_top" xlink:title=" ">
<polygon fill="white" stroke="red" points="3739,-280.5 3739,-299.5 3837,-299.5 3837,-280.5 3739,-280.5"/>
<text text-anchor="middle" x="3788" y="-287.5" font-family="Helvetica,sans-Serif" font-size="10.00">spawn_players.h</text>
</a>
</g>
</g>
<!-- Node1&#45;&gt;Node71 -->
<g id="edge77" class="edge">
<title>Node1&#45;&gt;Node71</title>
<path fill="none" stroke="midnightblue" d="M1843.65,-344.67C2125.85,-342.97 3329.44,-333.87 3728.55,-299.98"/>
<polygon fill="midnightblue" stroke="midnightblue" points="3729.03,-303.45 3738.69,-299.1 3728.43,-296.48 3729.03,-303.45"/>
</g>
<!-- Node3 -->
<g id="node3" class="node">
<title>Node3</title>
<g id="a_node3"><a xlink:href="math_8h.html" target="_top" xlink:title=" ">
<polygon fill="white" stroke="black" points="141.5,-168.5 141.5,-187.5 192.5,-187.5 192.5,-168.5 141.5,-168.5"/>
<text text-anchor="middle" x="167" y="-175.5" font-family="Helvetica,sans-Serif" font-size="10.00">math.h</text>
</a>
</g>
</g>
<!-- Node2&#45;&gt;Node3 -->
<g id="edge2" class="edge">
<title>Node2&#45;&gt;Node3</title>
<path fill="none" stroke="midnightblue" d="M512.74,-229.85C453.7,-223.51 319.1,-208.08 207,-188 205.55,-187.74 204.08,-187.47 202.6,-187.18"/>
<polygon fill="midnightblue" stroke="midnightblue" points="203.25,-183.74 192.75,-185.15 201.84,-190.59 203.25,-183.74"/>
</g>
<!-- Node2&#45;&gt;Node4 -->
<g id="edge3" class="edge">
<title>Node2&#45;&gt;Node4</title>
<path fill="none" stroke="midnightblue" d="M512.95,-232.07C459.39,-229.61 344.53,-220.62 254,-188 231.13,-179.76 172.01,-153.14 160,-132 155.61,-124.27 155.97,-119.92 160,-112 179.2,-74.29 197.57,-71.36 237,-56 296.98,-32.63 480.19,-19.32 573.35,-13.89"/>
<polygon fill="midnightblue" stroke="midnightblue" points="573.65,-17.38 583.44,-13.32 573.25,-10.39 573.65,-17.38"/>
</g>
<!-- Node6 -->
<g id="node5" class="node">
<title>Node6</title>
<g id="a_node5"><a xlink:href="os__exception_8h.html" target="_top" xlink:title=" ">
<polygon fill="white" stroke="black" points="169,-112.5 169,-131.5 275,-131.5 275,-112.5 169,-112.5"/>
<text text-anchor="middle" x="222" y="-119.5" font-family="Helvetica,sans-Serif" font-size="10.00">PR/os_exception.h</text>
</a>
</g>
</g>
<!-- Node2&#45;&gt;Node6 -->
<g id="edge4" class="edge">
<title>Node2&#45;&gt;Node6</title>
<path fill="none" stroke="midnightblue" d="M512.95,-233.81C462.38,-233.92 358.41,-228.64 283,-188 262.02,-176.69 244.2,-155.46 233.34,-140.34"/>
<polygon fill="midnightblue" stroke="midnightblue" points="236.05,-138.12 227.5,-131.86 230.29,-142.08 236.05,-138.12"/>
</g>
<!-- Node7 -->
<g id="node6" class="node">
<title>Node7</title>
<g id="a_node6"><a xlink:href="os__misc_8h.html" target="_top" xlink:title=" ">
<polygon fill="white" stroke="black" points="268.5,-56.5 268.5,-75.5 349.5,-75.5 349.5,-56.5 268.5,-56.5"/>
<text text-anchor="middle" x="309" y="-63.5" font-family="Helvetica,sans-Serif" font-size="10.00">PR/os_misc.h</text>
</a>
</g>
</g>
<!-- Node2&#45;&gt;Node7 -->
<g id="edge6" class="edge">
<title>Node2&#45;&gt;Node7</title>
<path fill="none" stroke="midnightblue" d="M512.69,-229.55C463.71,-223.41 370.09,-209.23 345,-188 314.84,-162.48 309.31,-112.91 308.67,-85.81"/>
<polygon fill="midnightblue" stroke="midnightblue" points="312.17,-85.7 308.64,-75.71 305.17,-85.72 312.17,-85.7"/>
</g>
<!-- Node8 -->
<g id="node7" class="node">
<title>Node8</title>
<g id="a_node7"><a xlink:href="os__rdp_8h.html" target="_top" xlink:title=" ">
<polygon fill="white" stroke="black" points="331,-112.5 331,-131.5 405,-131.5 405,-112.5 331,-112.5"/>
<text text-anchor="middle" x="368" y="-119.5" font-family="Helvetica,sans-Serif" font-size="10.00">PR/os_rdp.h</text>
</a>
</g>
</g>
<!-- Node2&#45;&gt;Node8 -->
<g id="edge8" class="edge">
<title>Node2&#45;&gt;Node8</title>
<path fill="none" stroke="midnightblue" d="M512.7,-230.27C464.4,-225.22 373.44,-212.62 354,-188 343.3,-174.46 349.87,-154.56 357.19,-140.36"/>
<polygon fill="midnightblue" stroke="midnightblue" points="360.28,-142 362.18,-131.58 354.2,-138.55 360.28,-142"/>
</g>
<!-- Node9 -->
<g id="node8" class="node">
<title>Node9</title>
<g id="a_node8"><a xlink:href="os__thread_8h.html" target="_top" xlink:title=" ">
<polygon fill="white" stroke="black" points="473.5,-56.5 473.5,-75.5 562.5,-75.5 562.5,-56.5 473.5,-56.5"/>
<text text-anchor="middle" x="518" y="-63.5" font-family="Helvetica,sans-Serif" font-size="10.00">PR/os_thread.h</text>
</a>
</g>
</g>
<!-- Node2&#45;&gt;Node9 -->
<g id="edge10" class="edge">
<title>Node2&#45;&gt;Node9</title>
<path fill="none" stroke="midnightblue" d="M536.61,-224.4C524.62,-207.67 499.15,-169.11 490,-132 487.87,-123.37 487.56,-120.55 490,-112 492.9,-101.84 498.83,-91.75 504.49,-83.7"/>
<polygon fill="midnightblue" stroke="midnightblue" points="507.38,-85.69 510.59,-75.59 501.78,-81.48 507.38,-85.69"/>
</g>
<!-- Node10 -->
<g id="node9" class="node">
<title>Node10</title>
<g id="a_node9"><a xlink:href="os__time_8h.html" target="_top" xlink:title=" ">
<polygon fill="white" stroke="black" points="363,-168.5 363,-187.5 443,-187.5 443,-168.5 363,-168.5"/>
<text text-anchor="middle" x="403" y="-175.5" font-family="Helvetica,sans-Serif" font-size="10.00">PR/os_time.h</text>
</a>
</g>
</g>
<!-- Node2&#45;&gt;Node10 -->
<g id="edge12" class="edge">
<title>Node2&#45;&gt;Node10</title>
<path fill="none" stroke="midnightblue" d="M520.82,-224.44C497.57,-215.48 460.85,-201.31 434.58,-191.18"/>
<polygon fill="midnightblue" stroke="midnightblue" points="435.67,-187.85 425.08,-187.52 433.15,-194.38 435.67,-187.85"/>
</g>
<!-- Node11 -->
<g id="node10" class="node">
<title>Node11</title>
<g id="a_node10"><a xlink:href="os__message_8h.html" target="_top" xlink:title=" ">
<polygon fill="white" stroke="black" points="499,-112.5 499,-131.5 601,-131.5 601,-112.5 499,-112.5"/>
<text text-anchor="middle" x="550" y="-119.5" font-family="Helvetica,sans-Serif" font-size="10.00">PR/os_message.h</text>
</a>
</g>
</g>
<!-- Node2&#45;&gt;Node11 -->
<g id="edge17" class="edge">
<title>Node2&#45;&gt;Node11</title>
<path fill="none" stroke="midnightblue" d="M538.38,-224.17C532.42,-211.66 523.35,-188.08 528,-168 530.23,-158.36 534.82,-148.41 539.24,-140.31"/>
<polygon fill="midnightblue" stroke="midnightblue" points="542.35,-141.92 544.36,-131.52 536.3,-138.4 542.35,-141.92"/>
</g>
<!-- Node12 -->
<g id="node11" class="node">
<title>Node12</title>
<g id="a_node11"><a xlink:href="os__cont_8h.html" target="_top" xlink:title=" ">
<polygon fill="white" stroke="black" points="537.5,-168.5 537.5,-187.5 616.5,-187.5 616.5,-168.5 537.5,-168.5"/>
<text text-anchor="middle" x="577" y="-175.5" font-family="Helvetica,sans-Serif" font-size="10.00">PR/os_cont.h</text>
</a>
</g>
</g>
<!-- Node2&#45;&gt;Node12 -->
<g id="edge18" class="edge">
<title>Node2&#45;&gt;Node12</title>
<path fill="none" stroke="midnightblue" d="M548.61,-224.08C553.37,-216.53 560.32,-205.49 566.15,-196.23"/>
<polygon fill="midnightblue" stroke="midnightblue" points="569.12,-198.08 571.49,-187.75 563.2,-194.35 569.12,-198.08"/>
</g>
<!-- Node13 -->
<g id="node12" class="node">
<title>Node13</title>
<g id="a_node12"><a xlink:href="os__tlb_8h.html" target="_top" xlink:title=" ">
<polygon fill="white" stroke="black" points="695.5,-56.5 695.5,-75.5 766.5,-75.5 766.5,-56.5 695.5,-56.5"/>
<text text-anchor="middle" x="731" y="-63.5" font-family="Helvetica,sans-Serif" font-size="10.00">PR/os_tlb.h</text>
</a>
</g>
</g>
<!-- Node2&#45;&gt;Node13 -->
<g id="edge21" class="edge">
<title>Node2&#45;&gt;Node13</title>
<path fill="none" stroke="midnightblue" d="M573.24,-228.79C616.2,-222.18 691.73,-208.02 710,-188 735.66,-159.88 735.74,-112.11 733.44,-85.79"/>
<polygon fill="midnightblue" stroke="midnightblue" points="736.9,-85.21 732.34,-75.65 729.94,-85.97 736.9,-85.21"/>
</g>
<!-- Node14 -->
<g id="node13" class="node">
<title>Node14</title>
<g id="a_node13"><a xlink:href="sptask_8h.html" target="_top" xlink:title=" ">
<polygon fill="white" stroke="black" points="758,-112.5 758,-131.5 832,-131.5 832,-112.5 758,-112.5"/>
<text text-anchor="middle" x="795" y="-119.5" font-family="Helvetica,sans-Serif" font-size="10.00">PR/sptask.h</text>
</a>
</g>
</g>
<!-- Node2&#45;&gt;Node14 -->
<g id="edge23" class="edge">
<title>Node2&#45;&gt;Node14</title>
<path fill="none" stroke="midnightblue" d="M573.32,-232.44C614.88,-230.36 690.47,-221.78 744,-188 762.51,-176.32 777.07,-155.47 785.82,-140.54"/>
<polygon fill="midnightblue" stroke="midnightblue" points="788.91,-142.17 790.71,-131.73 782.79,-138.77 788.91,-142.17"/>
</g>
<!-- Node15 -->
<g id="node14" class="node">
<title>Node15</title>
<g id="a_node14"><a xlink:href="ucode_8h.html" target="_top" xlink:title=" ">
<polygon fill="white" stroke="black" points="834.5,-168.5 834.5,-187.5 905.5,-187.5 905.5,-168.5 834.5,-168.5"/>
<text text-anchor="middle" x="870" y="-175.5" font-family="Helvetica,sans-Serif" font-size="10.00">PR/ucode.h</text>
</a>
</g>
</g>
<!-- Node2&#45;&gt;Node15 -->
<g id="edge25" class="edge">
<title>Node2&#45;&gt;Node15</title>
<path fill="none" stroke="midnightblue" d="M573.36,-228.24C624.36,-220.21 730.44,-203.33 820,-188 821.44,-187.75 822.9,-187.5 824.38,-187.24"/>
<polygon fill="midnightblue" stroke="midnightblue" points="824.99,-190.69 834.23,-185.51 823.78,-183.8 824.99,-190.69"/>
</g>
<!-- Node16 -->
<g id="node15" class="node">
<title>Node16</title>
<g id="a_node15"><a xlink:href="os__cache_8h.html" target="_top" xlink:title=" ">
<polygon fill="white" stroke="black" points="823,-56.5 823,-75.5 909,-75.5 909,-56.5 823,-56.5"/>
<text text-anchor="middle" x="866" y="-63.5" font-family="Helvetica,sans-Serif" font-size="10.00">PR/os_cache.h</text>
</a>
</g>
</g>
<!-- Node2&#45;&gt;Node16 -->
<g id="edge26" class="edge">
<title>Node2&#45;&gt;Node16</title>
<path fill="none" stroke="midnightblue" d="M573.24,-231.4C617.91,-228.08 703.33,-218.02 769,-188 805.87,-171.14 816.84,-164.55 841,-132 851.35,-118.06 857.95,-99.3 861.76,-85.52"/>
<polygon fill="midnightblue" stroke="midnightblue" points="865.18,-86.28 864.23,-75.72 858.39,-84.57 865.18,-86.28"/>
</g>
<!-- Node17 -->
<g id="node16" class="node">
<title>Node17</title>
<g id="a_node16"><a xlink:href="os__vi_8h.html" target="_top" xlink:title=" ">
<polygon fill="white" stroke="black" points="634.5,-168.5 634.5,-187.5 701.5,-187.5 701.5,-168.5 634.5,-168.5"/>
<text text-anchor="middle" x="668" y="-175.5" font-family="Helvetica,sans-Serif" font-size="10.00">PR/os_vi.h</text>
</a>
</g>
</g>
<!-- Node2&#45;&gt;Node17 -->
<g id="edge28" class="edge">
<title>Node2&#45;&gt;Node17</title>
<path fill="none" stroke="midnightblue" d="M562.81,-224.44C583.29,-215.6 615.48,-201.69 638.86,-191.59"/>
<polygon fill="midnightblue" stroke="midnightblue" points="640.49,-194.7 648.29,-187.52 637.72,-188.27 640.49,-194.7"/>
</g>
<!-- Node18 -->
<g id="node17" class="node">
<title>Node18</title>
<g id="a_node17"><a xlink:href="os__pi_8h.html" target="_top" xlink:title=" ">
<polygon fill="white" stroke="black" points="923.5,-168.5 923.5,-187.5 990.5,-187.5 990.5,-168.5 923.5,-168.5"/>
<text text-anchor="middle" x="957" y="-175.5" font-family="Helvetica,sans-Serif" font-size="10.00">PR/os_pi.h</text>
</a>
</g>
</g>
<!-- Node2&#45;&gt;Node18 -->
<g id="edge31" class="edge">
<title>Node2&#45;&gt;Node18</title>
<path fill="none" stroke="midnightblue" d="M573.42,-230.2C635.39,-224.31 780.87,-209.5 913.33,-187.98"/>
<polygon fill="midnightblue" stroke="midnightblue" points="913.95,-191.42 923.25,-186.35 912.82,-184.52 913.95,-191.42"/>
</g>
<!-- Node19 -->
<g id="node18" class="node">
<title>Node19</title>
<g id="a_node18"><a xlink:href="os__internal_8h.html" target="_top" xlink:title=" ">
<polygon fill="white" stroke="black" points="28.5,-168.5 28.5,-187.5 123.5,-187.5 123.5,-168.5 28.5,-168.5"/>
<text text-anchor="middle" x="76" y="-175.5" font-family="Helvetica,sans-Serif" font-size="10.00">PR/os_internal.h</text>
</a>
</g>
</g>
<!-- Node2&#45;&gt;Node19 -->
<g id="edge32" class="edge">
<title>Node2&#45;&gt;Node19</title>
<path fill="none" stroke="midnightblue" d="M512.77,-230.22C446.2,-223.97 281.7,-207.93 133.8,-188.19"/>
<polygon fill="midnightblue" stroke="midnightblue" points="134.01,-184.69 123.63,-186.82 133.08,-191.62 134.01,-184.69"/>
</g>
<!-- Node6&#45;&gt;Node4 -->
<g id="edge5" class="edge">
<title>Node6&#45;&gt;Node4</title>
<path fill="none" stroke="midnightblue" d="M224.28,-112.08C228.47,-97.63 238.89,-69.38 259,-56 309.25,-22.56 482.76,-13.96 573.19,-11.76"/>
<polygon fill="midnightblue" stroke="midnightblue" points="573.35,-15.25 583.26,-11.53 573.19,-8.25 573.35,-15.25"/>
</g>
<!-- Node7&#45;&gt;Node4 -->
<g id="edge7" class="edge">
<title>Node7&#45;&gt;Node4</title>
<path fill="none" stroke="midnightblue" d="M349.53,-58.16C406.28,-48.58 509.62,-31.15 573.49,-20.37"/>
<polygon fill="midnightblue" stroke="midnightblue" points="574.11,-23.81 583.39,-18.7 572.94,-16.91 574.11,-23.81"/>
</g>
<!-- Node8&#45;&gt;Node4 -->
<g id="edge9" class="edge">
<title>Node8&#45;&gt;Node4</title>
<path fill="none" stroke="midnightblue" d="M372.28,-112.25C379.7,-98.04 396.37,-70.13 419,-56 465.8,-26.77 528.66,-16.3 573.38,-12.66"/>
<polygon fill="midnightblue" stroke="midnightblue" points="573.76,-16.14 583.48,-11.93 573.25,-9.16 573.76,-16.14"/>
</g>
<!-- Node9&#45;&gt;Node4 -->
<g id="edge11" class="edge">
<title>Node9&#45;&gt;Node4</title>
<path fill="none" stroke="midnightblue" d="M535.83,-56.32C553.72,-47.62 581.48,-34.12 602.05,-24.11"/>
<polygon fill="midnightblue" stroke="midnightblue" points="603.75,-27.18 611.21,-19.65 600.69,-20.88 603.75,-27.18"/>
</g>
<!-- Node10&#45;&gt;Node4 -->
<g id="edge13" class="edge">
<title>Node10&#45;&gt;Node4</title>
<path fill="none" stroke="midnightblue" d="M404.78,-168.46C409.84,-146.33 426.47,-86.66 464,-56 494.87,-30.78 538.74,-19.64 573.48,-14.74"/>
<polygon fill="midnightblue" stroke="midnightblue" points="574.01,-18.2 583.48,-13.47 573.12,-11.26 574.01,-18.2"/>
</g>
<!-- Node10&#45;&gt;Node11 -->
<g id="edge14" class="edge">
<title>Node10&#45;&gt;Node11</title>
<path fill="none" stroke="midnightblue" d="M426.29,-168.44C450.81,-159.44 489.6,-145.19 517.2,-135.05"/>
<polygon fill="midnightblue" stroke="midnightblue" points="518.64,-138.25 526.82,-131.52 516.22,-131.68 518.64,-138.25"/>
</g>
<!-- Node11&#45;&gt;Node4 -->
<g id="edge15" class="edge">
<title>Node11&#45;&gt;Node4</title>
<path fill="none" stroke="midnightblue" d="M556.2,-112.37C569.24,-94.22 599.7,-51.8 616.8,-27.99"/>
<polygon fill="midnightblue" stroke="midnightblue" points="619.84,-29.76 622.83,-19.59 614.15,-25.67 619.84,-29.76"/>
</g>
<!-- Node11&#45;&gt;Node9 -->
<g id="edge16" class="edge">
<title>Node11&#45;&gt;Node9</title>
<path fill="none" stroke="midnightblue" d="M544.72,-112.08C540.29,-104.61 533.84,-93.72 528.38,-84.52"/>
<polygon fill="midnightblue" stroke="midnightblue" points="531.29,-82.57 523.19,-75.75 525.27,-86.14 531.29,-82.57"/>
</g>
<!-- Node12&#45;&gt;Node4 -->
<g id="edge19" class="edge">
<title>Node12&#45;&gt;Node4</title>
<path fill="none" stroke="midnightblue" d="M585.22,-168.48C592.93,-159.96 604.12,-146.13 610,-132 624.24,-97.76 627.9,-54.02 628.78,-29.61"/>
<polygon fill="midnightblue" stroke="midnightblue" points="632.28,-29.67 629.02,-19.59 625.28,-29.5 632.28,-29.67"/>
</g>
<!-- Node12&#45;&gt;Node11 -->
<g id="edge20" class="edge">
<title>Node12&#45;&gt;Node11</title>
<path fill="none" stroke="midnightblue" d="M572.54,-168.08C568.85,-160.69 563.48,-149.95 558.91,-140.81"/>
<polygon fill="midnightblue" stroke="midnightblue" points="561.98,-139.13 554.38,-131.75 555.72,-142.26 561.98,-139.13"/>
</g>
<!-- Node13&#45;&gt;Node4 -->
<g id="edge22" class="edge">
<title>Node13&#45;&gt;Node4</title>
<path fill="none" stroke="midnightblue" d="M714.61,-56.32C698.33,-47.7 673.13,-34.36 654.28,-24.39"/>
<polygon fill="midnightblue" stroke="midnightblue" points="655.82,-21.24 645.35,-19.65 652.55,-27.43 655.82,-21.24"/>
</g>
<!-- Node14&#45;&gt;Node4 -->
<g id="edge24" class="edge">
<title>Node14&#45;&gt;Node4</title>
<path fill="none" stroke="midnightblue" d="M794.79,-112.11C793.97,-98.22 790.36,-71.37 775,-56 751.16,-32.15 715,-20.89 684.62,-15.6"/>
<polygon fill="midnightblue" stroke="midnightblue" points="684.99,-12.11 674.57,-14.02 683.91,-19.03 684.99,-12.11"/>
</g>
<!-- Node16&#45;&gt;Node4 -->
<g id="edge27" class="edge">
<title>Node16&#45;&gt;Node4</title>
<path fill="none" stroke="midnightblue" d="M828.45,-56.44C787.19,-47.04 720.86,-31.93 676.13,-21.74"/>
<polygon fill="midnightblue" stroke="midnightblue" points="676.91,-18.33 666.38,-19.52 675.35,-25.15 676.91,-18.33"/>
</g>
<!-- Node17&#45;&gt;Node4 -->
<g id="edge29" class="edge">
<title>Node17&#45;&gt;Node4</title>
<path fill="none" stroke="midnightblue" d="M666.53,-168.43C663.04,-148.53 653.78,-97.75 643,-56 640.7,-47.08 637.71,-37.29 635.09,-29.14"/>
<polygon fill="midnightblue" stroke="midnightblue" points="638.38,-27.96 631.94,-19.56 631.73,-30.15 638.38,-27.96"/>
</g>
<!-- Node17&#45;&gt;Node11 -->
<g id="edge30" class="edge">
<title>Node17&#45;&gt;Node11</title>
<path fill="none" stroke="midnightblue" d="M649.3,-168.44C630.06,-159.64 599.85,-145.81 577.8,-135.72"/>
<polygon fill="midnightblue" stroke="midnightblue" points="579.16,-132.5 568.61,-131.52 576.25,-138.86 579.16,-132.5"/>
</g>
<!-- Node32&#45;&gt;Node30 -->
<g id="edge38" class="edge">
<title>Node32&#45;&gt;Node30</title>
<path fill="none" stroke="midnightblue" d="M1525,-280.08C1525,-273.01 1525,-262.86 1525,-253.99"/>
<polygon fill="midnightblue" stroke="midnightblue" points="1528.5,-253.75 1525,-243.75 1521.5,-253.75 1528.5,-253.75"/>
</g>
<!-- Node37&#45;&gt;Node2 -->
<g id="edge42" class="edge">
<title>Node37&#45;&gt;Node2</title>
<path fill="none" stroke="midnightblue" d="M774.43,-280.44C721.86,-270.12 634.21,-252.91 583.2,-242.89"/>
<polygon fill="midnightblue" stroke="midnightblue" points="583.69,-239.42 573.2,-240.93 582.34,-246.29 583.69,-239.42"/>
</g>
<!-- Node37&#45;&gt;Node29 -->
<g id="edge41" class="edge">
<title>Node37&#45;&gt;Node29</title>
<path fill="none" stroke="midnightblue" d="M824.61,-280.08C830.26,-272.46 838.54,-261.26 845.45,-251.94"/>
<polygon fill="midnightblue" stroke="midnightblue" points="848.38,-253.87 851.52,-243.75 842.75,-249.7 848.38,-253.87"/>
</g>
<!-- Node41&#45;&gt;Node42 -->
<g id="edge44" class="edge">
<title>Node41&#45;&gt;Node42</title>
<path fill="none" stroke="midnightblue" d="M1053,-280.08C1053,-273.01 1053,-262.86 1053,-253.99"/>
<polygon fill="midnightblue" stroke="midnightblue" points="1056.5,-253.75 1053,-243.75 1049.5,-253.75 1056.5,-253.75"/>
</g>
<!-- Node41&#45;&gt;Node43 -->
<g id="edge46" class="edge">
<title>Node41&#45;&gt;Node43</title>
<path fill="none" stroke="midnightblue" d="M1073.92,-280.44C1095.74,-271.52 1130.15,-257.44 1154.89,-247.32"/>
<polygon fill="midnightblue" stroke="midnightblue" points="1156.25,-250.54 1164.18,-243.52 1153.6,-244.06 1156.25,-250.54"/>
</g>
<!-- Node42&#45;&gt;Node4 -->
<g id="edge45" class="edge">
<title>Node42&#45;&gt;Node4</title>
<path fill="none" stroke="midnightblue" d="M1050.81,-224.45C1047.5,-211.88 1040.76,-187.78 1033,-168 1009.68,-108.55 1000.92,-82.88 943,-56 898.24,-35.23 762.28,-21.49 684.73,-15.11"/>
<polygon fill="midnightblue" stroke="midnightblue" points="684.91,-11.61 674.66,-14.3 684.34,-18.59 684.91,-11.61"/>
</g>
<!-- Node44&#45;&gt;Node47 -->
<g id="edge48" class="edge">
<title>Node44&#45;&gt;Node47</title>
<path fill="none" stroke="midnightblue" d="M1817.39,-280.08C1811.74,-272.46 1803.46,-261.26 1796.55,-251.94"/>
<polygon fill="midnightblue" stroke="midnightblue" points="1799.25,-249.7 1790.48,-243.75 1793.62,-253.87 1799.25,-249.7"/>
</g>
<!-- Node51&#45;&gt;Node30 -->
<g id="edge51" class="edge">
<title>Node51&#45;&gt;Node30</title>
<path fill="none" stroke="midnightblue" d="M1594.66,-280.32C1581.84,-271.98 1562.22,-259.21 1547.06,-249.35"/>
<polygon fill="midnightblue" stroke="midnightblue" points="1548.59,-246.17 1538.3,-243.65 1544.78,-252.04 1548.59,-246.17"/>
</g>
<!-- Node55&#45;&gt;Node4 -->
<g id="edge55" class="edge">
<title>Node55&#45;&gt;Node4</title>
<path fill="none" stroke="midnightblue" d="M963.94,-112.11C956.85,-97.69 940.78,-69.5 918,-56 879.59,-33.25 757.58,-20.52 684.95,-14.78"/>
<polygon fill="midnightblue" stroke="midnightblue" points="684.85,-11.26 674.61,-13.98 684.31,-18.24 684.85,-11.26"/>
</g>
<!-- Node61&#45;&gt;Node43 -->
<g id="edge62" class="edge">
<title>Node61&#45;&gt;Node43</title>
<path fill="none" stroke="midnightblue" d="M1233.68,-280.32C1225.11,-272.34 1212.19,-260.31 1201.81,-250.65"/>
<polygon fill="midnightblue" stroke="midnightblue" points="1204.19,-248.09 1194.49,-243.83 1199.42,-253.21 1204.19,-248.09"/>
</g>
<!-- Node63&#45;&gt;Node4 -->
<g id="edge67" class="edge">
<title>Node63&#45;&gt;Node4</title>
<path fill="none" stroke="midnightblue" d="M1088.74,-58.63C1082.82,-57.68 1076.75,-56.77 1071,-56 932.48,-37.42 768.62,-22.6 684.69,-15.52"/>
<polygon fill="midnightblue" stroke="midnightblue" points="684.86,-12.03 674.61,-14.68 684.28,-19 684.86,-12.03"/>
</g>
<!-- Node68&#45;&gt;Node4 -->
<g id="edge73" class="edge">
<title>Node68&#45;&gt;Node4</title>
<path fill="none" stroke="midnightblue" d="M1341.98,-280.36C1326.49,-262.74 1294,-220.79 1294,-179 1294,-179 1294,-179 1294,-121 1294,-58.78 1229.75,-73.37 1170,-56 1080.08,-29.86 803.8,-17.19 684.65,-12.83"/>
<polygon fill="midnightblue" stroke="midnightblue" points="684.76,-9.33 674.64,-12.46 684.51,-16.32 684.76,-9.33"/>
</g>
<!-- Node68&#45;&gt;Node31 -->
<g id="edge74" class="edge">
<title>Node68&#45;&gt;Node31</title>
<path fill="none" stroke="midnightblue" d="M1360.44,-280.32C1370.15,-272.26 1384.82,-260.08 1396.5,-250.37"/>
<polygon fill="midnightblue" stroke="midnightblue" points="1398.91,-252.92 1404.37,-243.83 1394.44,-247.53 1398.91,-252.92"/>
</g>
</g>
</svg>
