<?xml version="1.0" encoding="UTF-8" standalone="no"?>
<!DOCTYPE svg PUBLIC "-//W3C//DTD SVG 1.1//EN"
 "http://www.w3.org/Graphics/SVG/1.1/DTD/svg11.dtd">
<!-- Generated by graphviz version 2.43.0 (0)
 -->
<!-- Title: func_8006EEE8 Pages: 1 -->
<!--zoomable 373 -->
<svg id="main" version="1.1" xmlns="http://www.w3.org/2000/svg" xmlns:xlink="http://www.w3.org/1999/xlink" xml:space="preserve" onload="init(evt)">
<style type="text/css"><![CDATA[
.edge:hover path { stroke: red; }
.edge:hover polygon { stroke: red; fill: red; }
]]></style>
<script type="text/javascript"><![CDATA[
var edges = document.getElementsByTagName('g');
if (edges && edges.length) {
  for (var i=0;i<edges.length;i++) {
    if (edges[i].id.substr(0,4)=='edge') {
      edges[i].setAttribute('class','edge');
    }
  }
}
]]></script>
        <defs>
                <circle id="rim" cx="0" cy="0" r="7"/>
                <circle id="rim2" cx="0" cy="0" r="3.5"/>
                <g id="zoomPlus">
                        <use xlink:href="#rim" fill="#404040">
                                <set attributeName="fill" to="#808080" begin="zoomplus.mouseover" end="zoomplus.mouseout"/>
                        </use>
                        <path d="M-4,0h8M0,-4v8" fill="none" stroke="white" stroke-width="1.5" pointer-events="none"/>
                </g>
                <g id="zoomMin">
                        <use xlink:href="#rim" fill="#404040">
                                <set attributeName="fill" to="#808080" begin="zoomminus.mouseover" end="zoomminus.mouseout"/>
                        </use>
                        <path d="M-4,0h8" fill="none" stroke="white" stroke-width="1.5" pointer-events="none"/>
                </g>
                <g id="dirArrow">
                        <path fill="none" stroke="white" stroke-width="1.5" d="M0,-3.0v7 M-2.5,-0.5L0,-3.0L2.5,-0.5"/>
                </g>
               <g id="resetDef">
                       <use xlink:href="#rim2" fill="#404040">
                               <set attributeName="fill" to="#808080" begin="reset.mouseover" end="reset.mouseout"/>
                       </use>
               </g>
        </defs>

<script type="text/javascript">
var viewWidth = 762;
var viewHeight = 373;
var sectionId = 'dynsection-9';
</script>
<script xlink:href="svgpan.js"/>
<svg id="graph" class="graph">
<g id="viewport">
<title>func_8006EEE8</title>
<polygon fill="white" stroke="transparent" points="-4,4 -4,-368.93 758,-368.93 758,4 -4,4"/>
<!-- Node1 -->
<g id="node1" class="node">
<title>Node1</title>
<g id="a_node1"><a xlink:title=" ">
<polygon fill="#bfbfbf" stroke="black" points="0,-274.41 0,-293.41 91,-293.41 91,-274.41 0,-274.41"/>
<text text-anchor="middle" x="45.5" y="-281.41" font-family="Helvetica,sans-Serif" font-size="10.00">func_8006EEE8</text>
</a>
</g>
</g>
<!-- Node2 -->
<g id="node2" class="node">
<title>Node2</title>
<g id="a_node2"><a xlink:href="memory_8c.html#a1d30396665acd2f000e3927b11c9f264" target="_top" xlink:title=" ">
<polygon fill="white" stroke="black" points="127,-274.41 127,-293.41 211,-293.41 211,-274.41 127,-274.41"/>
<text text-anchor="middle" x="169" y="-281.41" font-family="Helvetica,sans-Serif" font-size="10.00">dma_textures</text>
</a>
</g>
</g>
<!-- Node1&#45;&gt;Node2 -->
<g id="edge1" class="edge">
<title>Node1&#45;&gt;Node2</title>
<path fill="none" stroke="midnightblue" d="M91.05,-283.91C99.33,-283.91 108.05,-283.91 116.52,-283.91"/>
<polygon fill="midnightblue" stroke="midnightblue" points="116.68,-287.41 126.68,-283.91 116.68,-280.41 116.68,-287.41"/>
</g>
<!-- Node3 -->
<g id="node3" class="node">
<title>Node3</title>
<g id="a_node3"><a xlink:href="functions_8h.html#ae4722e596a88d66404ccaaf6ea181b41" target="_top" xlink:title=" ">
<polygon fill="white" stroke="black" points="250,-312.41 250,-331.41 327,-331.41 327,-312.41 250,-312.41"/>
<text text-anchor="middle" x="288.5" y="-319.41" font-family="Helvetica,sans-Serif" font-size="10.00">mio0decode</text>
</a>
</g>
</g>
<!-- Node2&#45;&gt;Node3 -->
<g id="edge2" class="edge">
<title>Node2&#45;&gt;Node3</title>
<path fill="none" stroke="midnightblue" d="M199.65,-293.5C214.4,-298.27 232.43,-304.1 248.3,-309.24"/>
<polygon fill="midnightblue" stroke="midnightblue" points="247.27,-312.58 257.86,-312.33 249.42,-305.92 247.27,-312.58"/>
</g>
<!-- Node4 -->
<g id="node4" class="node">
<title>Node4</title>
<g id="a_node4"><a xlink:href="code__80071F00_8h.html#ae288a36d96a4db6977d95327e246ec12" target="_top" xlink:title=" ">
<polygon fill="white" stroke="black" points="247,-217.41 247,-236.41 330,-236.41 330,-217.41 247,-217.41"/>
<text text-anchor="middle" x="288.5" y="-224.41" font-family="Helvetica,sans-Serif" font-size="10.00">osPiStartDma</text>
</a>
</g>
</g>
<!-- Node2&#45;&gt;Node4 -->
<g id="edge3" class="edge">
<title>Node2&#45;&gt;Node4</title>
<path fill="none" stroke="midnightblue" d="M189.67,-274.37C208.48,-265.25 237.07,-251.38 258.49,-240.99"/>
<polygon fill="midnightblue" stroke="midnightblue" points="260.3,-244 267.77,-236.48 257.24,-237.7 260.3,-244"/>
</g>
<!-- Node15 -->
<g id="node15" class="node">
<title>Node15</title>
<g id="a_node15"><a xlink:href="code__80071F00_8h.html#a4283cbf896ea7ca31653640f6dd237af" target="_top" xlink:title=" ">
<polygon fill="white" stroke="black" points="381,-284.41 381,-303.41 459,-303.41 459,-284.41 381,-284.41"/>
<text text-anchor="middle" x="420" y="-291.41" font-family="Helvetica,sans-Serif" font-size="10.00">osRecvMesg</text>
</a>
</g>
</g>
<!-- Node2&#45;&gt;Node15 -->
<g id="edge23" class="edge">
<title>Node2&#45;&gt;Node15</title>
<path fill="none" stroke="midnightblue" d="M211.12,-285.56C254.91,-287.32 324.17,-290.1 370.57,-291.97"/>
<polygon fill="midnightblue" stroke="midnightblue" points="370.55,-295.47 380.69,-292.37 370.83,-288.48 370.55,-295.47"/>
</g>
<!-- Node5 -->
<g id="node5" class="node">
<title>Node5</title>
<g id="a_node5"><a xlink:href="osJamMesg_8c.html#ac69f7738a5120910a2f6202d27fb44f4" target="_top" xlink:title=" ">
<polygon fill="white" stroke="black" points="383.5,-208.41 383.5,-227.41 456.5,-227.41 456.5,-208.41 383.5,-208.41"/>
<text text-anchor="middle" x="420" y="-215.41" font-family="Helvetica,sans-Serif" font-size="10.00">osJamMesg</text>
</a>
</g>
</g>
<!-- Node4&#45;&gt;Node5 -->
<g id="edge4" class="edge">
<title>Node4&#45;&gt;Node5</title>
<path fill="none" stroke="midnightblue" d="M330.12,-224.09C343.85,-223.14 359.26,-222.06 373.36,-221.08"/>
<polygon fill="midnightblue" stroke="midnightblue" points="373.61,-224.58 383.34,-220.39 373.12,-217.59 373.61,-224.58"/>
</g>
<!-- Node13 -->
<g id="node13" class="node">
<title>Node13</title>
<g id="a_node13"><a xlink:href="osPiGetCmdQueue_8c.html#a0fb5a57f9e199d8bb06e19ba556efac0" target="_top" xlink:title=" ">
<polygon fill="white" stroke="black" points="366,-246.41 366,-265.41 474,-265.41 474,-246.41 366,-246.41"/>
<text text-anchor="middle" x="420" y="-253.41" font-family="Helvetica,sans-Serif" font-size="10.00">osPiGetCmdQueue</text>
</a>
</g>
</g>
<!-- Node4&#45;&gt;Node13 -->
<g id="edge16" class="edge">
<title>Node4&#45;&gt;Node13</title>
<path fill="none" stroke="midnightblue" d="M330.12,-236.01C341.59,-238.58 354.25,-241.41 366.32,-244.12"/>
<polygon fill="midnightblue" stroke="midnightblue" points="365.76,-247.58 376.29,-246.35 367.29,-240.75 365.76,-247.58"/>
</g>
<!-- Node14 -->
<g id="node14" class="node">
<title>Node14</title>
<g id="a_node14"><a xlink:href="osSendMesg_8c.html#a413bd1b0a16c54dcc9e59c48b3d7f142" target="_top" xlink:title=" ">
<polygon fill="white" stroke="black" points="381,-170.41 381,-189.41 459,-189.41 459,-170.41 381,-170.41"/>
<text text-anchor="middle" x="420" y="-177.41" font-family="Helvetica,sans-Serif" font-size="10.00">osSendMesg</text>
</a>
</g>
</g>
<!-- Node4&#45;&gt;Node14 -->
<g id="edge17" class="edge">
<title>Node4&#45;&gt;Node14</title>
<path fill="none" stroke="midnightblue" d="M315.33,-217.41C330.15,-211.97 349.11,-205.03 366,-198.91 371.34,-196.98 376.99,-194.94 382.53,-192.95"/>
<polygon fill="midnightblue" stroke="midnightblue" points="384.07,-196.12 392.3,-189.45 381.7,-189.53 384.07,-196.12"/>
</g>
<!-- Node6 -->
<g id="node6" class="node">
<title>Node6</title>
<g id="a_node6"><a xlink:href="libultra__internal_8h.html#a8ad9db8aa6bfc4437abdd0363b663b16" target="_top" xlink:title=" ">
<polygon fill="white" stroke="black" points="648.5,-325.41 648.5,-344.41 736.5,-344.41 736.5,-325.41 648.5,-325.41"/>
<text text-anchor="middle" x="692.5" y="-332.41" font-family="Helvetica,sans-Serif" font-size="10.00">__osDisableInt</text>
</a>
</g>
</g>
<!-- Node5&#45;&gt;Node6 -->
<g id="edge5" class="edge">
<title>Node5&#45;&gt;Node6</title>
<path fill="none" stroke="midnightblue" d="M456.71,-225.67C463.1,-228.37 469.22,-232.01 474,-236.91 509.62,-273.44 468.65,-316.02 510,-345.91 554.01,-377.73 620.83,-361.82 659.93,-347.96"/>
<polygon fill="midnightblue" stroke="midnightblue" points="661.32,-351.17 669.48,-344.42 658.89,-344.61 661.32,-351.17"/>
</g>
<!-- Node7 -->
<g id="node7" class="node">
<title>Node7</title>
<g id="a_node7"><a xlink:href="libultra__internal_8h.html#afe9c3abc4ca93d9fe18a87d9f108d5cb" target="_top" xlink:title=" ">
<polygon fill="white" stroke="black" points="631,-29.41 631,-48.41 754,-48.41 754,-29.41 631,-29.41"/>
<text text-anchor="middle" x="692.5" y="-36.41" font-family="Helvetica,sans-Serif" font-size="10.00">__osEnqueueAndYield</text>
</a>
</g>
</g>
<!-- Node5&#45;&gt;Node7 -->
<g id="edge6" class="edge">
<title>Node5&#45;&gt;Node7</title>
<path fill="none" stroke="midnightblue" d="M456.76,-208.96C462.92,-206.38 468.95,-203.09 474,-198.91 498.26,-178.85 487.37,-159.79 510,-137.91 552.35,-96.98 614.98,-67.84 654.49,-52.2"/>
<polygon fill="midnightblue" stroke="midnightblue" points="655.95,-55.39 664.01,-48.52 653.42,-48.86 655.95,-55.39"/>
</g>
<!-- Node8 -->
<g id="node8" class="node">
<title>Node8</title>
<g id="a_node8"><a xlink:href="libultra__internal_8h.html#a82b6b8e6a4311b516950168ef4078e33" target="_top" xlink:title=" ">
<polygon fill="white" stroke="black" points="647.5,-280.41 647.5,-299.41 737.5,-299.41 737.5,-280.41 647.5,-280.41"/>
<text text-anchor="middle" x="692.5" y="-287.41" font-family="Helvetica,sans-Serif" font-size="10.00">__osPopThread</text>
</a>
</g>
</g>
<!-- Node5&#45;&gt;Node8 -->
<g id="edge7" class="edge">
<title>Node5&#45;&gt;Node8</title>
<path fill="none" stroke="midnightblue" d="M454.16,-227.51C460.96,-230.1 467.89,-233.23 474,-236.91 492.58,-248.13 490.23,-260.95 510,-269.91 549.98,-288.05 599.82,-292.41 637.15,-292.6"/>
<polygon fill="midnightblue" stroke="midnightblue" points="637.34,-296.1 647.32,-292.55 637.31,-289.1 637.34,-296.1"/>
</g>
<!-- Node9 -->
<g id="node9" class="node">
<title>Node9</title>
<g id="a_node9"><a xlink:href="libultra__internal_8h.html#aecafa57b85fd739d6033705808194def" target="_top" xlink:title=" ">
<polygon fill="white" stroke="black" points="648,-124.41 648,-143.41 737,-143.41 737,-124.41 648,-124.41"/>
<text text-anchor="middle" x="692.5" y="-131.41" font-family="Helvetica,sans-Serif" font-size="10.00">__osRestoreInt</text>
</a>
</g>
</g>
<!-- Node5&#45;&gt;Node9 -->
<g id="edge8" class="edge">
<title>Node5&#45;&gt;Node9</title>
<path fill="none" stroke="midnightblue" d="M454.16,-208.32C460.96,-205.73 467.89,-202.6 474,-198.91 492.58,-187.7 490.53,-175.51 510,-165.91 550,-146.18 600.25,-138.45 637.73,-135.5"/>
<polygon fill="midnightblue" stroke="midnightblue" points="638.21,-138.98 647.95,-134.79 637.73,-131.99 638.21,-138.98"/>
</g>
<!-- Node10 -->
<g id="node10" class="node">
<title>Node10</title>
<g id="a_node10"><a xlink:href="osStartThread_8c.html#a3b144e814933e16a2fbf2642ad098ed3" target="_top" xlink:title=" ">
<polygon fill="white" stroke="black" points="510,-208.41 510,-227.41 595,-227.41 595,-208.41 510,-208.41"/>
<text text-anchor="middle" x="552.5" y="-215.41" font-family="Helvetica,sans-Serif" font-size="10.00">osStartThread</text>
</a>
</g>
</g>
<!-- Node5&#45;&gt;Node10 -->
<g id="edge9" class="edge">
<title>Node5&#45;&gt;Node10</title>
<path fill="none" stroke="midnightblue" d="M456.66,-217.91C469.9,-217.91 485.2,-217.91 499.59,-217.91"/>
<polygon fill="midnightblue" stroke="midnightblue" points="499.87,-221.41 509.87,-217.91 499.87,-214.41 499.87,-221.41"/>
</g>
<!-- Node10&#45;&gt;Node6 -->
<g id="edge10" class="edge">
<title>Node10&#45;&gt;Node6</title>
<path fill="none" stroke="midnightblue" d="M559.42,-227.41C571.09,-245.49 598.77,-285.14 631,-308.91 637.53,-313.73 645.1,-317.88 652.62,-321.35"/>
<polygon fill="midnightblue" stroke="midnightblue" points="651.47,-324.67 662.04,-325.4 654.23,-318.24 651.47,-324.67"/>
</g>
<!-- Node10&#45;&gt;Node7 -->
<g id="edge12" class="edge">
<title>Node10&#45;&gt;Node7</title>
<path fill="none" stroke="midnightblue" d="M560.68,-208.19C574.26,-189.84 604.7,-148.89 631,-114.91 646.53,-94.85 664.71,-72.11 677.05,-56.78"/>
<polygon fill="midnightblue" stroke="midnightblue" points="680.03,-58.66 683.58,-48.68 674.58,-54.27 680.03,-58.66"/>
</g>
<!-- Node10&#45;&gt;Node8 -->
<g id="edge14" class="edge">
<title>Node10&#45;&gt;Node8</title>
<path fill="none" stroke="midnightblue" d="M571.83,-227.47C595.44,-239.79 636.69,-261.32 664.05,-275.59"/>
<polygon fill="midnightblue" stroke="midnightblue" points="662.61,-278.79 673.1,-280.31 665.85,-272.58 662.61,-278.79"/>
</g>
<!-- Node10&#45;&gt;Node9 -->
<g id="edge15" class="edge">
<title>Node10&#45;&gt;Node9</title>
<path fill="none" stroke="midnightblue" d="M570.53,-208.23C578.06,-203.9 587.01,-198.71 595,-193.91 620.12,-178.84 648.56,-161.07 668.03,-148.8"/>
<polygon fill="midnightblue" stroke="midnightblue" points="669.96,-151.72 676.55,-143.42 666.22,-145.8 669.96,-151.72"/>
</g>
<!-- Node11 -->
<g id="node11" class="node">
<title>Node11</title>
<g id="a_node11"><a xlink:href="libultra__internal_8h.html#a650b788ebd5efde9c8cbccc1ee832445" target="_top" xlink:title=" ">
<polygon fill="white" stroke="black" points="635,-190.41 635,-209.41 750,-209.41 750,-190.41 635,-190.41"/>
<text text-anchor="middle" x="692.5" y="-197.41" font-family="Helvetica,sans-Serif" font-size="10.00">__osDispatchThread</text>
</a>
</g>
</g>
<!-- Node10&#45;&gt;Node11 -->
<g id="edge11" class="edge">
<title>Node10&#45;&gt;Node11</title>
<path fill="none" stroke="midnightblue" d="M595.28,-212.46C604.62,-211.24 614.75,-209.92 624.82,-208.61"/>
<polygon fill="midnightblue" stroke="midnightblue" points="625.37,-212.07 634.84,-207.3 624.47,-205.13 625.37,-212.07"/>
</g>
<!-- Node12 -->
<g id="node12" class="node">
<title>Node12</title>
<g id="a_node12"><a xlink:href="libultra__internal_8h.html#ac9d6cfd19de5565e74f1d74a14e9092d" target="_top" xlink:title=" ">
<polygon fill="white" stroke="black" points="635.5,-228.41 635.5,-247.41 749.5,-247.41 749.5,-228.41 635.5,-228.41"/>
<text text-anchor="middle" x="692.5" y="-235.41" font-family="Helvetica,sans-Serif" font-size="10.00">__osEnqueueThread</text>
</a>
</g>
</g>
<!-- Node10&#45;&gt;Node12 -->
<g id="edge13" class="edge">
<title>Node10&#45;&gt;Node12</title>
<path fill="none" stroke="midnightblue" d="M595.28,-223.97C604.74,-225.34 615.01,-226.83 625.21,-228.3"/>
<polygon fill="midnightblue" stroke="midnightblue" points="624.94,-231.8 635.34,-229.77 625.95,-224.88 624.94,-231.8"/>
</g>
<!-- Node14&#45;&gt;Node6 -->
<g id="edge18" class="edge">
<title>Node14&#45;&gt;Node6</title>
<path fill="none" stroke="midnightblue" d="M458.52,-189.44C464.09,-191.93 469.47,-195.04 474,-198.91 499.39,-220.64 484.87,-242.89 510,-264.91 546.44,-296.86 599.07,-314.99 638.27,-324.75"/>
<polygon fill="midnightblue" stroke="midnightblue" points="637.65,-328.2 648.19,-327.11 639.27,-321.39 637.65,-328.2"/>
</g>
<!-- Node14&#45;&gt;Node7 -->
<g id="edge19" class="edge">
<title>Node14&#45;&gt;Node7</title>
<path fill="none" stroke="midnightblue" d="M422.71,-170.04C428.52,-139.99 450.52,-49.51 510,-13.91 558.35,15.03 626.71,-8.06 664.22,-25.03"/>
<polygon fill="midnightblue" stroke="midnightblue" points="662.97,-28.3 673.5,-29.39 665.94,-21.97 662.97,-28.3"/>
</g>
<!-- Node14&#45;&gt;Node8 -->
<g id="edge20" class="edge">
<title>Node14&#45;&gt;Node8</title>
<path fill="none" stroke="midnightblue" d="M455.21,-189.5C461.71,-192.06 468.27,-195.17 474,-198.91 493.48,-211.63 490.15,-224.79 510,-236.91 531.79,-250.22 594.14,-266.93 639.69,-277.99"/>
<polygon fill="midnightblue" stroke="midnightblue" points="638.88,-281.4 649.42,-280.33 640.52,-274.59 638.88,-281.4"/>
</g>
<!-- Node14&#45;&gt;Node9 -->
<g id="edge21" class="edge">
<title>Node14&#45;&gt;Node9</title>
<path fill="none" stroke="midnightblue" d="M426.83,-170.13C439.2,-150.45 470.25,-106.51 510,-89.91 564.38,-67.21 633.03,-98.92 668.28,-119.23"/>
<polygon fill="midnightblue" stroke="midnightblue" points="666.51,-122.25 676.89,-124.35 670.09,-116.23 666.51,-122.25"/>
</g>
<!-- Node14&#45;&gt;Node10 -->
<g id="edge22" class="edge">
<title>Node14&#45;&gt;Node10</title>
<path fill="none" stroke="midnightblue" d="M453.93,-189.5C470.62,-194.36 491.09,-200.32 508.96,-205.53"/>
<polygon fill="midnightblue" stroke="midnightblue" points="508,-208.89 518.58,-208.33 509.96,-202.17 508,-208.89"/>
</g>
<!-- Node15&#45;&gt;Node6 -->
<g id="edge24" class="edge">
<title>Node15&#45;&gt;Node6</title>
<path fill="none" stroke="midnightblue" d="M444.75,-303.44C462.44,-310.1 487.34,-318.54 510,-322.91 552.47,-331.1 601.46,-333.96 637.83,-334.85"/>
<polygon fill="midnightblue" stroke="midnightblue" points="638.14,-338.36 648.21,-335.06 638.28,-331.36 638.14,-338.36"/>
</g>
<!-- Node15&#45;&gt;Node7 -->
<g id="edge25" class="edge">
<title>Node15&#45;&gt;Node7</title>
<path fill="none" stroke="midnightblue" d="M459.23,-285.13C464.71,-282.55 469.88,-279.22 474,-274.91 511.34,-235.92 473.58,-198.76 510,-158.91 537.56,-128.76 560.31,-145.49 595,-123.91 626.38,-104.4 657.52,-74.59 675.61,-55.95"/>
<polygon fill="midnightblue" stroke="midnightblue" points="678.37,-58.13 682.75,-48.48 673.31,-53.3 678.37,-58.13"/>
</g>
<!-- Node15&#45;&gt;Node8 -->
<g id="edge26" class="edge">
<title>Node15&#45;&gt;Node8</title>
<path fill="none" stroke="midnightblue" d="M459.4,-301.29C475.03,-303.95 493.31,-306.61 510,-307.91 547.66,-310.86 557.38,-311.39 595,-307.91 609.47,-306.57 625.02,-304.13 639.31,-301.46"/>
<polygon fill="midnightblue" stroke="midnightblue" points="640.31,-304.84 649.46,-299.5 638.98,-297.96 640.31,-304.84"/>
</g>
<!-- Node15&#45;&gt;Node9 -->
<g id="edge27" class="edge">
<title>Node15&#45;&gt;Node9</title>
<path fill="none" stroke="midnightblue" d="M459.26,-284.36C464.61,-281.88 469.73,-278.79 474,-274.91 501.69,-249.81 482.3,-224.01 510,-198.91 530.16,-180.64 597.91,-159.37 644.68,-146.27"/>
<polygon fill="midnightblue" stroke="midnightblue" points="645.9,-149.56 654.61,-143.52 644.04,-142.81 645.9,-149.56"/>
</g>
<!-- Node15&#45;&gt;Node10 -->
<g id="edge28" class="edge">
<title>Node15&#45;&gt;Node10</title>
<path fill="none" stroke="midnightblue" d="M452.48,-284.33C459.72,-281.66 467.27,-278.5 474,-274.91 495.44,-263.5 517.54,-246.65 532.62,-234.23"/>
<polygon fill="midnightblue" stroke="midnightblue" points="535.23,-236.62 540.64,-227.51 530.73,-231.26 535.23,-236.62"/>
</g>
</g>
</svg>
        <g id="navigator" transform="translate(0 0)" fill="#404254">
                <rect fill="#f2f5e9" fill-opacity="0.5" stroke="#606060" stroke-width=".5" x="0" y="0" width="60" height="60"/>
                <use id="zoomplus" xlink:href="#zoomPlus" x="17" y="9" onmousedown="handleZoom(evt,'in')"/>
                <use id="zoomminus" xlink:href="#zoomMin" x="42" y="9" onmousedown="handleZoom(evt,'out')"/>
                <use id="reset" xlink:href="#resetDef" x="30" y="36" onmousedown="handleReset()"/>
                <g id="arrowUp" xlink:href="#dirArrow" transform="translate(30 24)" onmousedown="handlePan(0,-1)">
                  <use xlink:href="#rim" fill="#404040">
                        <set attributeName="fill" to="#808080" begin="arrowUp.mouseover" end="arrowUp.mouseout"/>
                  </use>
                  <path fill="none" stroke="white" stroke-width="1.5" d="M0,-3.0v7 M-2.5,-0.5L0,-3.0L2.5,-0.5"/>
                </g>
                <g id="arrowRight" xlink:href="#dirArrow" transform="rotate(90) translate(36 -43)" onmousedown="handlePan(1,0)">
                  <use xlink:href="#rim" fill="#404040">
                        <set attributeName="fill" to="#808080" begin="arrowRight.mouseover" end="arrowRight.mouseout"/>
                  </use>
                  <path fill="none" stroke="white" stroke-width="1.5" d="M0,-3.0v7 M-2.5,-0.5L0,-3.0L2.5,-0.5"/>
                </g>
                <g id="arrowDown" xlink:href="#dirArrow" transform="rotate(180) translate(-30 -48)" onmousedown="handlePan(0,1)">
                  <use xlink:href="#rim" fill="#404040">
                        <set attributeName="fill" to="#808080" begin="arrowDown.mouseover" end="arrowDown.mouseout"/>
                  </use>
                  <path fill="none" stroke="white" stroke-width="1.5" d="M0,-3.0v7 M-2.5,-0.5L0,-3.0L2.5,-0.5"/>
                </g>
                <g id="arrowLeft" xlink:href="#dirArrow" transform="rotate(270) translate(-36 17)" onmousedown="handlePan(-1,0)">
                  <use xlink:href="#rim" fill="#404040">
                        <set attributeName="fill" to="#808080" begin="arrowLeft.mouseover" end="arrowLeft.mouseout"/>
                  </use>
                  <path fill="none" stroke="white" stroke-width="1.5" d="M0,-3.0v7 M-2.5,-0.5L0,-3.0L2.5,-0.5"/>
                </g>
        </g>
        <svg viewBox="0 0 15 15" width="100%" height="30px" preserveAspectRatio="xMaxYMin meet">
         <g id="arrow_out" transform="scale(0.3 0.3)">
          <a xlink:href="code__8006E9C0_8c_ac35f9951d9cd04d4e9bf188746bc9c58_cgraph_org.svg" target="_base">
           <rect id="button" ry="5" rx="5" y="6" x="6" height="38" width="38"
                fill="#f2f5e9" fill-opacity="0.5" stroke="#606060" stroke-width="1.0"/>
           <path id="arrow"
             d="M 11.500037,31.436501 C 11.940474,20.09759 22.043105,11.32322 32.158766,21.979434 L 37.068811,17.246167 C 37.068811,17.246167 37.088388,32 37.088388,32 L 22.160133,31.978069 C 22.160133,31.978069 26.997745,27.140456 26.997745,27.140456 C 18.528582,18.264221 13.291696,25.230495 11.500037,31.436501 z"
             style="fill:#404040;"/>
          </a>
         </g>
        </svg>
</svg>
