<?xml version="1.0" encoding="UTF-8" standalone="no"?>
<!DOCTYPE svg PUBLIC "-//W3C//DTD SVG 1.1//EN"
 "http://www.w3.org/Graphics/SVG/1.1/DTD/svg11.dtd">
<!-- Generated by graphviz version 2.43.0 (0)
 -->
<!-- Title: src/code_80091750.h Pages: 1 -->
<!--zoomable 207 -->
<svg id="main" version="1.1" xmlns="http://www.w3.org/2000/svg" xmlns:xlink="http://www.w3.org/1999/xlink" xml:space="preserve" onload="init(evt)">
<style type="text/css"><![CDATA[
.edge:hover path { stroke: red; }
.edge:hover polygon { stroke: red; fill: red; }
]]></style>
<script type="text/javascript"><![CDATA[
var edges = document.getElementsByTagName('g');
if (edges && edges.length) {
  for (var i=0;i<edges.length;i++) {
    if (edges[i].id.substr(0,4)=='edge') {
      edges[i].setAttribute('class','edge');
    }
  }
}
]]></script>
        <defs>
                <circle id="rim" cx="0" cy="0" r="7"/>
                <circle id="rim2" cx="0" cy="0" r="3.5"/>
                <g id="zoomPlus">
                        <use xlink:href="#rim" fill="#404040">
                                <set attributeName="fill" to="#808080" begin="zoomplus.mouseover" end="zoomplus.mouseout"/>
                        </use>
                        <path d="M-4,0h8M0,-4v8" fill="none" stroke="white" stroke-width="1.5" pointer-events="none"/>
                </g>
                <g id="zoomMin">
                        <use xlink:href="#rim" fill="#404040">
                                <set attributeName="fill" to="#808080" begin="zoomminus.mouseover" end="zoomminus.mouseout"/>
                        </use>
                        <path d="M-4,0h8" fill="none" stroke="white" stroke-width="1.5" pointer-events="none"/>
                </g>
                <g id="dirArrow">
                        <path fill="none" stroke="white" stroke-width="1.5" d="M0,-3.0v7 M-2.5,-0.5L0,-3.0L2.5,-0.5"/>
                </g>
               <g id="resetDef">
                       <use xlink:href="#rim2" fill="#404040">
                               <set attributeName="fill" to="#808080" begin="reset.mouseover" end="reset.mouseout"/>
                       </use>
               </g>
        </defs>

<script type="text/javascript">
var viewWidth = 2588;
var viewHeight = 207;
var sectionId = 'dynsection-1';
</script>
<script xlink:href="svgpan.js"/>
<svg id="graph" class="graph">
<g id="viewport">
<title>src/code_80091750.h</title>
<polygon fill="white" stroke="transparent" points="-4,4 -4,-203 2584,-203 2584,4 -4,4"/>
<!-- Node1 -->
<g id="node1" class="node">
<title>Node1</title>
<g id="a_node1"><a xlink:title=" ">
<polygon fill="#bfbfbf" stroke="black" points="1304,-179.5 1304,-198.5 1423,-198.5 1423,-179.5 1304,-179.5"/>
<text text-anchor="middle" x="1363.5" y="-186.5" font-family="Helvetica,sans-Serif" font-size="10.00">src/code_80091750.h</text>
</a>
</g>
</g>
<!-- Node2 -->
<g id="node2" class="node">
<title>Node2</title>
<g id="a_node2"><a xlink:href="external_8c.html" target="_top" xlink:title=" ">
<polygon fill="white" stroke="black" points="0,-118 0,-137 113,-137 113,-118 0,-118"/>
<text text-anchor="middle" x="56.5" y="-125" font-family="Helvetica,sans-Serif" font-size="10.00">src/audio/external.c</text>
</a>
</g>
</g>
<!-- Node1&#45;&gt;Node2 -->
<g id="edge1" class="edge">
<title>Node1&#45;&gt;Node2</title>
<path fill="none" stroke="midnightblue" d="M1293.78,-187.12C1067,-184.01 351.7,-172.09 122.5,-143 111.79,-141.64 100.26,-139.39 89.87,-137.05"/>
<polygon fill="midnightblue" stroke="midnightblue" points="1293.84,-190.62 1303.89,-187.26 1293.94,-183.63 1293.84,-190.62"/>
</g>
<!-- Node3 -->
<g id="node3" class="node">
<title>Node3</title>
<g id="a_node3"><a xlink:href="code__800029B0_8c.html" target="_top" xlink:title=" ">
<polygon fill="white" stroke="black" points="131,-118 131,-137 250,-137 250,-118 131,-118"/>
<text text-anchor="middle" x="190.5" y="-125" font-family="Helvetica,sans-Serif" font-size="10.00">src/code_800029B0.c</text>
</a>
</g>
</g>
<!-- Node1&#45;&gt;Node3 -->
<g id="edge2" class="edge">
<title>Node1&#45;&gt;Node3</title>
<path fill="none" stroke="midnightblue" d="M1293.43,-186.67C1083.34,-182.44 460.85,-168.08 259.5,-143 248.32,-141.61 236.27,-139.34 225.41,-137.01"/>
<polygon fill="midnightblue" stroke="midnightblue" points="1293.64,-190.17 1303.71,-186.88 1293.78,-183.18 1293.64,-190.17"/>
</g>
<!-- Node4 -->
<g id="node4" class="node">
<title>Node4</title>
<g id="a_node4"><a xlink:href="code__80005FD0_8c.html" target="_top" xlink:title=" ">
<polygon fill="white" stroke="black" points="268.5,-118 268.5,-137 388.5,-137 388.5,-118 268.5,-118"/>
<text text-anchor="middle" x="328.5" y="-125" font-family="Helvetica,sans-Serif" font-size="10.00">src/code_80005FD0.c</text>
</a>
</g>
</g>
<!-- Node1&#45;&gt;Node4 -->
<g id="edge3" class="edge">
<title>Node1&#45;&gt;Node4</title>
<path fill="none" stroke="midnightblue" d="M1293.79,-188.5C1134.5,-188.84 731.88,-185.04 398.5,-143 387.29,-141.59 375.21,-139.35 364.29,-137.05"/>
<polygon fill="midnightblue" stroke="midnightblue" points="1293.93,-192 1303.92,-188.48 1293.91,-185 1293.93,-192"/>
</g>
<!-- Node5 -->
<g id="node5" class="node">
<title>Node5</title>
<g id="a_node5"><a xlink:href="code__80071F00_8c.html" target="_top" xlink:title=" ">
<polygon fill="white" stroke="black" points="407,-118 407,-137 526,-137 526,-118 407,-118"/>
<text text-anchor="middle" x="466.5" y="-125" font-family="Helvetica,sans-Serif" font-size="10.00">src/code_80071F00.c</text>
</a>
</g>
</g>
<!-- Node1&#45;&gt;Node5 -->
<g id="edge4" class="edge">
<title>Node1&#45;&gt;Node5</title>
<path fill="none" stroke="midnightblue" d="M1293.61,-187.8C1150.64,-186.59 814.69,-179.7 535.5,-143 524.58,-141.56 512.81,-139.35 502.13,-137.07"/>
<polygon fill="midnightblue" stroke="midnightblue" points="1293.95,-191.3 1303.98,-187.88 1294,-184.3 1293.95,-191.3"/>
</g>
<!-- Node6 -->
<g id="node6" class="node">
<title>Node6</title>
<g id="a_node6"><a xlink:href="code__80091750_8c.html" target="_top" xlink:title=" ">
<polygon fill="white" stroke="black" points="544,-118 544,-137 663,-137 663,-118 544,-118"/>
<text text-anchor="middle" x="603.5" y="-125" font-family="Helvetica,sans-Serif" font-size="10.00">src/code_80091750.c</text>
</a>
</g>
</g>
<!-- Node1&#45;&gt;Node6 -->
<g id="edge5" class="edge">
<title>Node1&#45;&gt;Node6</title>
<path fill="none" stroke="midnightblue" d="M1293.38,-186.72C1168.18,-183.71 898.12,-173.89 672.5,-143 661.71,-141.52 650.08,-139.32 639.5,-137.07"/>
<polygon fill="midnightblue" stroke="midnightblue" points="1293.52,-190.22 1303.6,-186.96 1293.68,-183.23 1293.52,-190.22"/>
</g>
<!-- Node7 -->
<g id="node7" class="node">
<title>Node7</title>
<g id="a_node7"><a xlink:href="code__800AF9B0_8c.html" target="_top" xlink:title=" ">
<polygon fill="white" stroke="black" points="681.5,-118 681.5,-137 801.5,-137 801.5,-118 681.5,-118"/>
<text text-anchor="middle" x="741.5" y="-125" font-family="Helvetica,sans-Serif" font-size="10.00">src/code_800AF9B0.c</text>
</a>
</g>
</g>
<!-- Node1&#45;&gt;Node7 -->
<g id="edge6" class="edge">
<title>Node1&#45;&gt;Node7</title>
<path fill="none" stroke="midnightblue" d="M1293.72,-185.14C1188.53,-180.2 983.24,-168.08 810.5,-143 799.84,-141.45 788.36,-139.26 777.87,-137.04"/>
<polygon fill="midnightblue" stroke="midnightblue" points="1293.74,-188.65 1303.89,-185.61 1294.06,-181.66 1293.74,-188.65"/>
</g>
<!-- Node8 -->
<g id="node8" class="node">
<title>Node8</title>
<g id="a_node8"><a xlink:href="all__variables_8h.html" target="_top" xlink:title=" ">
<polygon fill="white" stroke="black" points="819.5,-118 819.5,-137 957.5,-137 957.5,-118 819.5,-118"/>
<text text-anchor="middle" x="888.5" y="-125" font-family="Helvetica,sans-Serif" font-size="10.00">src/debug/all_variables.h</text>
</a>
</g>
</g>
<!-- Node1&#45;&gt;Node8 -->
<g id="edge7" class="edge">
<title>Node1&#45;&gt;Node8</title>
<path fill="none" stroke="midnightblue" d="M1293.62,-181.52C1214.35,-173.82 1081.31,-159.89 967.5,-143 955.91,-141.28 943.43,-139.13 931.87,-137.01"/>
<polygon fill="midnightblue" stroke="midnightblue" points="1293.67,-185.04 1303.96,-182.51 1294.34,-178.07 1293.67,-185.04"/>
</g>
<!-- Node11 -->
<g id="node11" class="node">
<title>Node11</title>
<g id="a_node11"><a xlink:href="ceremony__and__credits_8c.html" target="_top" xlink:title=" ">
<polygon fill="white" stroke="black" points="976,-112.5 976,-142.5 1095,-142.5 1095,-112.5 976,-112.5"/>
<text text-anchor="start" x="984" y="-130.5" font-family="Helvetica,sans-Serif" font-size="10.00">src/ending/ceremony</text>
<text text-anchor="middle" x="1035.5" y="-119.5" font-family="Helvetica,sans-Serif" font-size="10.00">_and_credits.c</text>
</a>
</g>
</g>
<!-- Node1&#45;&gt;Node11 -->
<g id="edge10" class="edge">
<title>Node1&#45;&gt;Node11</title>
<path fill="none" stroke="midnightblue" d="M1301.14,-177.8C1248.61,-169.05 1171.52,-155.86 1104.5,-143 1101.49,-142.42 1098.42,-141.82 1095.31,-141.2"/>
<polygon fill="midnightblue" stroke="midnightblue" points="1300.88,-181.3 1311.31,-179.49 1302.02,-174.39 1300.88,-181.3"/>
</g>
<!-- Node12 -->
<g id="node12" class="node">
<title>Node12</title>
<g id="a_node12"><a xlink:href="code__80280000_8c.html" target="_top" xlink:title=" ">
<polygon fill="white" stroke="black" points="1113,-118 1113,-137 1268,-137 1268,-118 1113,-118"/>
<text text-anchor="middle" x="1190.5" y="-125" font-family="Helvetica,sans-Serif" font-size="10.00">src/ending/code_80280000.c</text>
</a>
</g>
</g>
<!-- Node1&#45;&gt;Node12 -->
<g id="edge11" class="edge">
<title>Node1&#45;&gt;Node12</title>
<path fill="none" stroke="midnightblue" d="M1328.85,-176.08C1295.22,-164.52 1245.02,-147.25 1215.24,-137.01"/>
<polygon fill="midnightblue" stroke="midnightblue" points="1328.12,-179.53 1338.71,-179.48 1330.4,-172.91 1328.12,-179.53"/>
</g>
<!-- Node13 -->
<g id="node13" class="node">
<title>Node13</title>
<g id="a_node13"><a xlink:href="code__80281780_8c.html" target="_top" xlink:title=" ">
<polygon fill="white" stroke="black" points="1286,-118 1286,-137 1441,-137 1441,-118 1286,-118"/>
<text text-anchor="middle" x="1363.5" y="-125" font-family="Helvetica,sans-Serif" font-size="10.00">src/ending/code_80281780.c</text>
</a>
</g>
</g>
<!-- Node1&#45;&gt;Node13 -->
<g id="edge12" class="edge">
<title>Node1&#45;&gt;Node13</title>
<path fill="none" stroke="midnightblue" d="M1363.5,-169.32C1363.5,-158.5 1363.5,-145.4 1363.5,-137.01"/>
<polygon fill="midnightblue" stroke="midnightblue" points="1360,-169.48 1363.5,-179.48 1367,-169.48 1360,-169.48"/>
</g>
<!-- Node14 -->
<g id="node14" class="node">
<title>Node14</title>
<g id="a_node14"><a xlink:href="code__80281C40_8c.html" target="_top" xlink:title=" ">
<polygon fill="white" stroke="black" points="1459,-118 1459,-137 1614,-137 1614,-118 1459,-118"/>
<text text-anchor="middle" x="1536.5" y="-125" font-family="Helvetica,sans-Serif" font-size="10.00">src/ending/code_80281C40.c</text>
</a>
</g>
</g>
<!-- Node1&#45;&gt;Node14 -->
<g id="edge13" class="edge">
<title>Node1&#45;&gt;Node14</title>
<path fill="none" stroke="midnightblue" d="M1398.15,-176.08C1431.78,-164.52 1481.98,-147.25 1511.76,-137.01"/>
<polygon fill="midnightblue" stroke="midnightblue" points="1396.6,-172.91 1388.29,-179.48 1398.88,-179.53 1396.6,-172.91"/>
</g>
<!-- Node15 -->
<g id="node15" class="node">
<title>Node15</title>
<g id="a_node15"><a xlink:href="hud__renderer_8c.html" target="_top" xlink:title=" ">
<polygon fill="white" stroke="black" points="1632.5,-118 1632.5,-137 1738.5,-137 1738.5,-118 1632.5,-118"/>
<text text-anchor="middle" x="1685.5" y="-125" font-family="Helvetica,sans-Serif" font-size="10.00">src/hud_renderer.c</text>
</a>
</g>
</g>
<!-- Node1&#45;&gt;Node15 -->
<g id="edge14" class="edge">
<title>Node1&#45;&gt;Node15</title>
<path fill="none" stroke="midnightblue" d="M1428.09,-177.9C1480.82,-169.39 1557.18,-156.48 1623.5,-143 1632.27,-141.22 1641.7,-139.11 1650.49,-137.06"/>
<polygon fill="midnightblue" stroke="midnightblue" points="1427.52,-174.44 1418.2,-179.48 1428.63,-181.35 1427.52,-174.44"/>
</g>
<!-- Node16 -->
<g id="node16" class="node">
<title>Node16</title>
<g id="a_node16"><a xlink:href="main_8c.html" target="_top" xlink:title=" ">
<polygon fill="white" stroke="black" points="1757,-118 1757,-137 1824,-137 1824,-118 1757,-118"/>
<text text-anchor="middle" x="1790.5" y="-125" font-family="Helvetica,sans-Serif" font-size="10.00">src/main.c</text>
</a>
</g>
</g>
<!-- Node1&#45;&gt;Node16 -->
<g id="edge15" class="edge">
<title>Node1&#45;&gt;Node16</title>
<path fill="none" stroke="midnightblue" d="M1433.15,-184.22C1510.65,-179 1639.23,-167.32 1747.5,-143 1754.26,-141.48 1761.46,-139.29 1767.99,-137.07"/>
<polygon fill="midnightblue" stroke="midnightblue" points="1432.77,-180.73 1423.02,-184.88 1433.23,-187.72 1432.77,-180.73"/>
</g>
<!-- Node17 -->
<g id="node17" class="node">
<title>Node17</title>
<g id="a_node17"><a xlink:href="menus_8c.html" target="_top" xlink:title=" ">
<polygon fill="white" stroke="black" points="1842,-118 1842,-137 1917,-137 1917,-118 1842,-118"/>
<text text-anchor="middle" x="1879.5" y="-125" font-family="Helvetica,sans-Serif" font-size="10.00">src/menus.c</text>
</a>
</g>
</g>
<!-- Node1&#45;&gt;Node17 -->
<g id="edge16" class="edge">
<title>Node1&#45;&gt;Node17</title>
<path fill="none" stroke="midnightblue" d="M1433.14,-185.89C1525.48,-182.06 1693.16,-171.51 1833.5,-143 1840.72,-141.53 1848.41,-139.36 1855.4,-137.14"/>
<polygon fill="midnightblue" stroke="midnightblue" points="1432.93,-182.4 1423.07,-186.3 1433.21,-189.39 1432.93,-182.4"/>
</g>
<!-- Node18 -->
<g id="node18" class="node">
<title>Node18</title>
<g id="a_node18"><a xlink:href="actors__extended_8c.html" target="_top" xlink:title=" ">
<polygon fill="white" stroke="black" points="1935.5,-118 1935.5,-137 2091.5,-137 2091.5,-118 1935.5,-118"/>
<text text-anchor="middle" x="2013.5" y="-125" font-family="Helvetica,sans-Serif" font-size="10.00">src/racing/actors_extended.c</text>
</a>
</g>
</g>
<!-- Node1&#45;&gt;Node18 -->
<g id="edge17" class="edge">
<title>Node1&#45;&gt;Node18</title>
<path fill="none" stroke="midnightblue" d="M1433.24,-184.35C1539.81,-178.33 1749.49,-164.78 1926.5,-143 1939.57,-141.39 1953.68,-139.23 1966.65,-137.06"/>
<polygon fill="midnightblue" stroke="midnightblue" points="1433.04,-180.85 1423.25,-184.91 1433.43,-187.84 1433.04,-180.85"/>
</g>
<!-- Node19 -->
<g id="node19" class="node">
<title>Node19</title>
<g id="a_node19"><a xlink:href="race__logic_8c.html" target="_top" xlink:title=" ">
<polygon fill="white" stroke="black" points="2110,-118 2110,-137 2235,-137 2235,-118 2110,-118"/>
<text text-anchor="middle" x="2172.5" y="-125" font-family="Helvetica,sans-Serif" font-size="10.00">src/racing/race_logic.c</text>
</a>
</g>
</g>
<!-- Node1&#45;&gt;Node19 -->
<g id="edge18" class="edge">
<title>Node1&#45;&gt;Node19</title>
<path fill="none" stroke="midnightblue" d="M1433.8,-186.93C1565.25,-184.21 1857,-174.8 2100.5,-143 2111.88,-141.51 2124.16,-139.28 2135.29,-137.01"/>
<polygon fill="midnightblue" stroke="midnightblue" points="1433.4,-183.43 1423.47,-187.13 1433.54,-190.43 1433.4,-183.43"/>
</g>
<!-- Node20 -->
<g id="node20" class="node">
<title>Node20</title>
<g id="a_node20"><a xlink:href="skybox__and__splitscreen_8c.html" target="_top" xlink:title=" ">
<polygon fill="white" stroke="black" points="2253,-112.5 2253,-142.5 2378,-142.5 2378,-112.5 2253,-112.5"/>
<text text-anchor="start" x="2261" y="-130.5" font-family="Helvetica,sans-Serif" font-size="10.00">src/racing/skybox_and</text>
<text text-anchor="middle" x="2315.5" y="-119.5" font-family="Helvetica,sans-Serif" font-size="10.00">_splitscreen.c</text>
</a>
</g>
</g>
<!-- Node1&#45;&gt;Node20 -->
<g id="edge19" class="edge">
<title>Node1&#45;&gt;Node20</title>
<path fill="none" stroke="midnightblue" d="M1433.46,-187.99C1582.96,-187.19 1944.42,-181.09 2244.5,-143 2247.25,-142.65 2250.04,-142.26 2252.87,-141.82"/>
<polygon fill="midnightblue" stroke="midnightblue" points="1433.05,-184.49 1423.07,-188.04 1433.08,-191.49 1433.05,-184.49"/>
</g>
<!-- Node21 -->
<g id="node21" class="node">
<title>Node21</title>
<g id="a_node21"><a xlink:href="save_8c.html" target="_top" xlink:title=" ">
<polygon fill="white" stroke="black" points="2396,-118 2396,-137 2461,-137 2461,-118 2396,-118"/>
<text text-anchor="middle" x="2428.5" y="-125" font-family="Helvetica,sans-Serif" font-size="10.00">src/save.c</text>
</a>
</g>
</g>
<!-- Node1&#45;&gt;Node21 -->
<g id="edge20" class="edge">
<title>Node1&#45;&gt;Node21</title>
<path fill="none" stroke="midnightblue" d="M1433.11,-187.62C1632.66,-186.09 2204.11,-178.64 2387.5,-143 2394.32,-141.68 2401.53,-139.43 2407.97,-137.1"/>
<polygon fill="midnightblue" stroke="midnightblue" points="1433.02,-184.12 1423.05,-187.69 1433.07,-191.12 1433.02,-184.12"/>
</g>
<!-- Node22 -->
<g id="node22" class="node">
<title>Node22</title>
<g id="a_node22"><a xlink:href="staff__ghosts_8c.html" target="_top" xlink:title=" ">
<polygon fill="white" stroke="black" points="2479,-118 2479,-137 2580,-137 2580,-118 2479,-118"/>
<text text-anchor="middle" x="2529.5" y="-125" font-family="Helvetica,sans-Serif" font-size="10.00">src/staff_ghosts.c</text>
</a>
</g>
</g>
<!-- Node1&#45;&gt;Node22 -->
<g id="edge21" class="edge">
<title>Node1&#45;&gt;Node22</title>
<path fill="none" stroke="midnightblue" d="M1433.44,-186.99C1643.85,-183.66 2268.94,-171.57 2470.5,-143 2480.11,-141.64 2490.43,-139.38 2499.71,-137.05"/>
<polygon fill="midnightblue" stroke="midnightblue" points="1433.08,-183.49 1423.14,-187.15 1433.19,-190.49 1433.08,-183.49"/>
</g>
<!-- Node9 -->
<g id="node9" class="node">
<title>Node9</title>
<g id="a_node9"><a xlink:href="debug_8inc_8c.html" target="_top" xlink:title=" ">
<polygon fill="white" stroke="black" points="827.5,-56.5 827.5,-75.5 949.5,-75.5 949.5,-56.5 827.5,-56.5"/>
<text text-anchor="middle" x="888.5" y="-63.5" font-family="Helvetica,sans-Serif" font-size="10.00">src/debug/debug.inc.c</text>
</a>
</g>
</g>
<!-- Node8&#45;&gt;Node9 -->
<g id="edge8" class="edge">
<title>Node8&#45;&gt;Node9</title>
<path fill="none" stroke="midnightblue" d="M888.5,-107.82C888.5,-97 888.5,-83.9 888.5,-75.51"/>
<polygon fill="midnightblue" stroke="midnightblue" points="885,-107.98 888.5,-117.98 892,-107.98 885,-107.98"/>
</g>
<!-- Node10 -->
<g id="node10" class="node">
<title>Node10</title>
<g id="a_node10"><a xlink:href="debug_8c.html" target="_top" xlink:title=" ">
<polygon fill="white" stroke="black" points="836,-0.5 836,-19.5 941,-19.5 941,-0.5 836,-0.5"/>
<text text-anchor="middle" x="888.5" y="-7.5" font-family="Helvetica,sans-Serif" font-size="10.00">src/debug/debug.c</text>
</a>
</g>
</g>
<!-- Node9&#45;&gt;Node10 -->
<g id="edge9" class="edge">
<title>Node9&#45;&gt;Node10</title>
<path fill="none" stroke="midnightblue" d="M888.5,-45.8C888.5,-36.91 888.5,-26.78 888.5,-19.75"/>
<polygon fill="midnightblue" stroke="midnightblue" points="885,-46.08 888.5,-56.08 892,-46.08 885,-46.08"/>
</g>
</g>
</svg>
        <g id="navigator" transform="translate(0 0)" fill="#404254">
                <rect fill="#f2f5e9" fill-opacity="0.5" stroke="#606060" stroke-width=".5" x="0" y="0" width="60" height="60"/>
                <use id="zoomplus" xlink:href="#zoomPlus" x="17" y="9" onmousedown="handleZoom(evt,'in')"/>
                <use id="zoomminus" xlink:href="#zoomMin" x="42" y="9" onmousedown="handleZoom(evt,'out')"/>
                <use id="reset" xlink:href="#resetDef" x="30" y="36" onmousedown="handleReset()"/>
                <g id="arrowUp" xlink:href="#dirArrow" transform="translate(30 24)" onmousedown="handlePan(0,-1)">
                  <use xlink:href="#rim" fill="#404040">
                        <set attributeName="fill" to="#808080" begin="arrowUp.mouseover" end="arrowUp.mouseout"/>
                  </use>
                  <path fill="none" stroke="white" stroke-width="1.5" d="M0,-3.0v7 M-2.5,-0.5L0,-3.0L2.5,-0.5"/>
                </g>
                <g id="arrowRight" xlink:href="#dirArrow" transform="rotate(90) translate(36 -43)" onmousedown="handlePan(1,0)">
                  <use xlink:href="#rim" fill="#404040">
                        <set attributeName="fill" to="#808080" begin="arrowRight.mouseover" end="arrowRight.mouseout"/>
                  </use>
                  <path fill="none" stroke="white" stroke-width="1.5" d="M0,-3.0v7 M-2.5,-0.5L0,-3.0L2.5,-0.5"/>
                </g>
                <g id="arrowDown" xlink:href="#dirArrow" transform="rotate(180) translate(-30 -48)" onmousedown="handlePan(0,1)">
                  <use xlink:href="#rim" fill="#404040">
                        <set attributeName="fill" to="#808080" begin="arrowDown.mouseover" end="arrowDown.mouseout"/>
                  </use>
                  <path fill="none" stroke="white" stroke-width="1.5" d="M0,-3.0v7 M-2.5,-0.5L0,-3.0L2.5,-0.5"/>
                </g>
                <g id="arrowLeft" xlink:href="#dirArrow" transform="rotate(270) translate(-36 17)" onmousedown="handlePan(-1,0)">
                  <use xlink:href="#rim" fill="#404040">
                        <set attributeName="fill" to="#808080" begin="arrowLeft.mouseover" end="arrowLeft.mouseout"/>
                  </use>
                  <path fill="none" stroke="white" stroke-width="1.5" d="M0,-3.0v7 M-2.5,-0.5L0,-3.0L2.5,-0.5"/>
                </g>
        </g>
        <svg viewBox="0 0 15 15" width="100%" height="30px" preserveAspectRatio="xMaxYMin meet">
         <g id="arrow_out" transform="scale(0.3 0.3)">
          <a xlink:href="code__80091750_8h__dep__incl_org.svg" target="_base">
           <rect id="button" ry="5" rx="5" y="6" x="6" height="38" width="38"
                fill="#f2f5e9" fill-opacity="0.5" stroke="#606060" stroke-width="1.0"/>
           <path id="arrow"
             d="M 11.500037,31.436501 C 11.940474,20.09759 22.043105,11.32322 32.158766,21.979434 L 37.068811,17.246167 C 37.068811,17.246167 37.088388,32 37.088388,32 L 22.160133,31.978069 C 22.160133,31.978069 26.997745,27.140456 26.997745,27.140456 C 18.528582,18.264221 13.291696,25.230495 11.500037,31.436501 z"
             style="fill:#404040;"/>
          </a>
         </g>
        </svg>
</svg>
