<?xml version="1.0" encoding="UTF-8" standalone="no"?>
<!DOCTYPE svg PUBLIC "-//W3C//DTD SVG 1.1//EN"
 "http://www.w3.org/Graphics/SVG/1.1/DTD/svg11.dtd">
<!-- Generated by graphviz version 2.43.0 (0)
 -->
<!-- Title: func_800139E4 Pages: 1 -->
<!--zoomable 186 -->

<svg id="main" version="1.1" xmlns="http://www.w3.org/2000/svg" xmlns:xlink="http://www.w3.org/1999/xlink" xml:space="preserve" onload="init(evt)">
<style type="text/css"><![CDATA[
.node, .edge {opacity: 0.7;}
.node.selected, .edge.selected {opacity: 1;}
.edge:hover path { stroke: red; }
.edge:hover polygon { stroke: red; fill: red; }
]]></style>

<defs>
  <circle id="rim" cx="0" cy="0" r="7"/>
  <circle id="rim2" cx="0" cy="0" r="3.5"/>
  <g id="zoomPlus">
    <use xlink:href="#rim" fill="#404040"><set attributeName="fill" to="#808080" begin="zoomplus.mouseover" end="zoomplus.mouseout"/></use>
    <path d="M-4,0h8M0,-4v8" fill="none" stroke="white" stroke-width="1.5" pointer-events="none"/>
  </g>
  <g id="zoomMin">
    <use xlink:href="#rim" fill="#404040"><set attributeName="fill" to="#808080" begin="zoomminus.mouseover" end="zoomminus.mouseout"/></use>
    <path d="M-4,0h8" fill="none" stroke="white" stroke-width="1.5" pointer-events="none"/>
  </g>
  <g id="arrowUp" transform="translate(30 24)">
    <use xlink:href="#rim"/>
    <path pointer-events="none" fill="none" stroke="white" stroke-width="1.5" d="M0,-3.0v7 M-2.5,-0.5L0,-3.0L2.5,-0.5"/>
  </g>
  <g id="arrowRight" transform="rotate(90) translate(36 -43)">
    <use xlink:href="#rim"/>
    <path pointer-events="none" fill="none" stroke="white" stroke-width="1.5" d="M0,-3.0v7 M-2.5,-0.5L0,-3.0L2.5,-0.5"/>
  </g>
  <g id="arrowDown" transform="rotate(180) translate(-30 -48)">
    <use xlink:href="#rim"/>
    <path pointer-events="none" fill="none" stroke="white" stroke-width="1.5" d="M0,-3.0v7 M-2.5,-0.5L0,-3.0L2.5,-0.5"/>
  </g>
  <g id="arrowLeft" transform="rotate(270) translate(-36 17)">
    <use xlink:href="#rim"/>
    <path pointer-events="none" fill="none" stroke="white" stroke-width="1.5" d="M0,-3.0v7 M-2.5,-0.5L0,-3.0L2.5,-0.5"/>
  </g>
  <g id="resetDef">
    <use xlink:href="#rim2" fill="#404040"><set attributeName="fill" to="#808080" begin="reset.mouseover" end="reset.mouseout"/></use>
  </g>
</defs>
<script type="application/ecmascript">
var viewWidth = 802;
var viewHeight = 186;
var sectionId = 'dynsection-121';
</script>
<script type="application/ecmascript" xlink:href="svg.min.js"/>
<svg id="graph" class="graph">
<g id="viewport">
<title>func_800139E4</title>
<!-- Node1 -->
<g id="Node000001" class="node">
<title>Node1</title>
<g id="a_Node000001"><a xlink:title=" ">
<polygon fill="#999999" stroke="#666666" points="91,-93 0,-93 0,-74 91,-74 91,-93"/>
<text text-anchor="middle" x="45.5" y="-81" font-family="Helvetica,sans-Serif" font-size="10.00">func_800139E4</text>
</a>
</g>
</g>
<!-- Node2 -->
<g id="Node000002" class="node">
<title>Node2</title>
<g id="a_Node000002"><a xlink:href="code__80005FD0_8c.html#aa39e2aaaacd04e16311cb002a50102f2" target="_top" xlink:title=" ">
<polygon fill="white" stroke="#666666" points="221,-93 127,-93 127,-74 221,-74 221,-93"/>
<text text-anchor="middle" x="174" y="-81" font-family="Helvetica,sans-Serif" font-size="10.00">func_8000D6D0</text>
</a>
</g>
</g>
<!-- Node1&#45;&gt;Node2 -->
<g id="edge1_Node000001_Node000002" class="edge">
<title>Node1&#45;&gt;Node2</title>
<g id="a_edge1_Node000001_Node000002"><a xlink:title=" ">
<path fill="none" stroke="#63b8ff" d="M91.1,-83.5C99.29,-83.5 107.94,-83.5 116.43,-83.5"/>
<polygon fill="#63b8ff" stroke="#63b8ff" points="116.66,-87 126.66,-83.5 116.66,-80 116.66,-87"/>
</a>
</g>
</g>
<!-- Node19 -->
<g id="Node000019" class="node">
<title>Node19</title>
<g id="a_Node000019"><a xlink:href="code__80005FD0_8c.html#a5a0e67ccde01cf1fb86f9fbd14161e4e" target="_top" xlink:title=" ">
<polygon fill="white" stroke="#666666" points="220,-130 128,-130 128,-111 220,-111 220,-130"/>
<text text-anchor="middle" x="174" y="-118" font-family="Helvetica,sans-Serif" font-size="10.00">func_8000D940</text>
</a>
</g>
</g>
<!-- Node1&#45;&gt;Node19 -->
<g id="edge18_Node000001_Node000019" class="edge">
<title>Node1&#45;&gt;Node19</title>
<g id="a_edge18_Node000001_Node000019"><a xlink:title=" ">
<path fill="none" stroke="#63b8ff" d="M79.08,-93.03C94.6,-97.57 113.37,-103.06 130.03,-107.93"/>
<polygon fill="#63b8ff" stroke="#63b8ff" points="129.51,-111.43 140.09,-110.88 131.48,-104.71 129.51,-111.43"/>
</a>
</g>
</g>
<!-- Node20 -->
<g id="Node000020" class="node">
<title>Node20</title>
<g id="a_Node000020"><a xlink:href="math__util_8c.html#a151b63b8adf9af7e4054b3b84bd226dc" target="_top" xlink:title=" ">
<polygon fill="white" stroke="#666666" points="210,-38 138,-38 138,-19 210,-19 210,-38"/>
<text text-anchor="middle" x="174" y="-26" font-family="Helvetica,sans-Serif" font-size="10.00">random_int</text>
</a>
</g>
</g>
<!-- Node1&#45;&gt;Node20 -->
<g id="edge23_Node000001_Node000020" class="edge">
<title>Node1&#45;&gt;Node20</title>
<g id="a_edge23_Node000001_Node000020"><a xlink:title=" ">
<path fill="none" stroke="#63b8ff" d="M68.53,-73.92C88.73,-65.14 118.84,-52.05 141.56,-42.17"/>
<polygon fill="#63b8ff" stroke="#63b8ff" points="143.02,-45.35 150.79,-38.16 140.23,-38.93 143.02,-45.35"/>
</a>
</g>
</g>
<!-- Node3 -->
<g id="Node000003" class="node">
<title>Node3</title>
<g id="a_Node000003"><a xlink:href="code__80005FD0_8c.html#ac0d96d9d8c5772c7fe5edbb8da736086" target="_top" xlink:title=" ">
<polygon fill="white" stroke="#666666" points="350,-56 258,-56 258,-37 350,-37 350,-56"/>
<text text-anchor="middle" x="304" y="-44" font-family="Helvetica,sans-Serif" font-size="10.00">func_80005FD0</text>
</a>
</g>
</g>
<!-- Node2&#45;&gt;Node3 -->
<g id="edge2_Node000002_Node000003" class="edge">
<title>Node2&#45;&gt;Node3</title>
<g id="a_edge2_Node000002_Node000003"><a xlink:title=" ">
<path fill="none" stroke="#63b8ff" d="M207.96,-73.97C223.81,-69.39 243.02,-63.84 260,-58.93"/>
<polygon fill="#63b8ff" stroke="#63b8ff" points="261.07,-62.26 269.7,-56.12 259.12,-55.54 261.07,-62.26"/>
</a>
</g>
</g>
<!-- Node7 -->
<g id="Node000007" class="node">
<title>Node7</title>
<g id="a_Node000007"><a xlink:href="code__80005FD0_8c.html#a74ddc182369789b289326b99494d7e65" target="_top" xlink:title=" ">
<polygon fill="white" stroke="#666666" points="351,-93 257,-93 257,-74 351,-74 351,-93"/>
<text text-anchor="middle" x="304" y="-81" font-family="Helvetica,sans-Serif" font-size="10.00">func_8000BBD8</text>
</a>
</g>
</g>
<!-- Node2&#45;&gt;Node7 -->
<g id="edge6_Node000002_Node000007" class="edge">
<title>Node2&#45;&gt;Node7</title>
<g id="a_edge6_Node000002_Node000007"><a xlink:title=" ">
<path fill="none" stroke="#63b8ff" d="M221.21,-83.5C229.46,-83.5 238.13,-83.5 246.63,-83.5"/>
<polygon fill="#63b8ff" stroke="#63b8ff" points="246.86,-87 256.86,-83.5 246.86,-80 246.86,-87"/>
</a>
</g>
</g>
<!-- Node8 -->
<g id="Node000008" class="node">
<title>Node8</title>
<g id="a_Node000008"><a xlink:href="code__80005FD0_8c.html#aff1ba4b22fc22c38fcf28007ccaaa752" target="_top" xlink:title=" ">
<polygon fill="white" stroke="#666666" points="350.5,-130 257.5,-130 257.5,-111 350.5,-111 350.5,-130"/>
<text text-anchor="middle" x="304" y="-118" font-family="Helvetica,sans-Serif" font-size="10.00">func_8000D2B4</text>
</a>
</g>
</g>
<!-- Node2&#45;&gt;Node8 -->
<g id="edge7_Node000002_Node000008" class="edge">
<title>Node2&#45;&gt;Node8</title>
<g id="a_edge7_Node000002_Node000008"><a xlink:title=" ">
<path fill="none" stroke="#63b8ff" d="M207.96,-93.03C223.81,-97.61 243.02,-103.16 260,-108.07"/>
<polygon fill="#63b8ff" stroke="#63b8ff" points="259.12,-111.46 269.7,-110.88 261.07,-104.74 259.12,-111.46"/>
</a>
</g>
</g>
<!-- Node18 -->
<g id="Node000018" class="node">
<title>Node18</title>
<g id="a_Node000018"><a xlink:href="math_8h.html#a37bde043e94a6f074c78f10518fb5d99" target="_top" xlink:title=" ">
<polygon fill="white" stroke="#666666" points="323.5,-167 284.5,-167 284.5,-148 323.5,-148 323.5,-167"/>
<text text-anchor="middle" x="304" y="-155" font-family="Helvetica,sans-Serif" font-size="10.00">sqrtf</text>
</a>
</g>
</g>
<!-- Node2&#45;&gt;Node18 -->
<g id="edge17_Node000002_Node000018" class="edge">
<title>Node2&#45;&gt;Node18</title>
<g id="a_edge17_Node000002_Node000018"><a xlink:title=" ">
<path fill="none" stroke="#63b8ff" d="M203.18,-93.01C209.3,-95.65 215.56,-98.82 221,-102.5 240,-115.37 237.88,-126.81 257,-139.5 262.44,-143.11 268.71,-146.17 274.84,-148.68"/>
<polygon fill="#63b8ff" stroke="#63b8ff" points="273.62,-151.96 284.21,-152.17 276.07,-145.4 273.62,-151.96"/>
</a>
</g>
</g>
<!-- Node4 -->
<g id="Node000004" class="node">
<title>Node4</title>
<g id="a_Node000004"><a xlink:href="math__util_8c.html#a963f23fd2ffec93350816627af02b9da" target="_top" xlink:title=" ">
<polygon fill="white" stroke="#666666" points="534,-38 387,-38 387,-19 534,-19 534,-38"/>
<text text-anchor="middle" x="460.5" y="-26" font-family="Helvetica,sans-Serif" font-size="10.00">get_angle_between_points</text>
</a>
</g>
</g>
<!-- Node3&#45;&gt;Node4 -->
<g id="edge3_Node000003_Node000004" class="edge">
<title>Node3&#45;&gt;Node4</title>
<g id="a_edge3_Node000003_Node000004"><a xlink:title=" ">
<path fill="none" stroke="#63b8ff" d="M350.1,-41.25C358.54,-40.26 367.6,-39.21 376.77,-38.14"/>
<polygon fill="#63b8ff" stroke="#63b8ff" points="377.2,-41.61 386.73,-36.98 376.39,-34.66 377.2,-41.61"/>
</a>
</g>
</g>
<!-- Node5 -->
<g id="Node000005" class="node">
<title>Node5</title>
<g id="a_Node000005"><a xlink:href="math__util_8c.html#aaa39a297477f56051975259f4bddd829" target="_top" xlink:title=" ">
<polygon fill="white" stroke="#666666" points="642.5,-29 592.5,-29 592.5,-10 642.5,-10 642.5,-29"/>
<text text-anchor="middle" x="617.5" y="-17" font-family="Helvetica,sans-Serif" font-size="10.00">atan2s</text>
</a>
</g>
</g>
<!-- Node4&#45;&gt;Node5 -->
<g id="edge4_Node000004_Node000005" class="edge">
<title>Node4&#45;&gt;Node5</title>
<g id="a_edge4_Node000004_Node000005"><a xlink:title=" ">
<path fill="none" stroke="#63b8ff" d="M534.01,-24.29C550.71,-23.32 567.72,-22.33 581.92,-21.51"/>
<polygon fill="#63b8ff" stroke="#63b8ff" points="582.4,-24.99 592.18,-20.91 582,-18 582.4,-24.99"/>
</a>
</g>
</g>
<!-- Node6 -->
<g id="Node000006" class="node">
<title>Node6</title>
<g id="a_Node000006"><a xlink:href="math__util_8c.html#a0273b0ea0783a06996c28669a7438ed9" target="_top" xlink:title=" ">
<polygon fill="white" stroke="#666666" points="788.5,-29 706.5,-29 706.5,-10 788.5,-10 788.5,-29"/>
<text text-anchor="middle" x="747.5" y="-17" font-family="Helvetica,sans-Serif" font-size="10.00">atan2_lookup</text>
</a>
</g>
</g>
<!-- Node5&#45;&gt;Node6 -->
<g id="edge5_Node000005_Node000006" class="edge">
<title>Node5&#45;&gt;Node6</title>
<g id="a_edge5_Node000005_Node000006"><a xlink:title=" ">
<path fill="none" stroke="#63b8ff" d="M642.58,-19.5C657.73,-19.5 677.86,-19.5 696.36,-19.5"/>
<polygon fill="#63b8ff" stroke="#63b8ff" points="696.43,-23 706.43,-19.5 696.43,-16 696.43,-23"/>
</a>
</g>
</g>
<!-- Node9 -->
<g id="Node000009" class="node">
<title>Node9</title>
<g id="a_Node000009"><a xlink:href="code__80005FD0_8c.html#a5e2697d9cd076588f22575cc1920497e" target="_top" xlink:title=" ">
<polygon fill="white" stroke="#666666" points="507.5,-178 413.5,-178 413.5,-159 507.5,-159 507.5,-178"/>
<text text-anchor="middle" x="460.5" y="-166" font-family="Helvetica,sans-Serif" font-size="10.00">func_8000C9DC</text>
</a>
</g>
</g>
<!-- Node8&#45;&gt;Node9 -->
<g id="edge8_Node000008_Node000009" class="edge">
<title>Node8&#45;&gt;Node9</title>
<g id="a_edge8_Node000008_Node000009"><a xlink:title=" ">
<path fill="none" stroke="#63b8ff" d="M329.17,-130.12C345.38,-136.38 367.29,-144.47 387,-150.5 393.67,-152.54 400.73,-154.52 407.73,-156.37"/>
<polygon fill="#63b8ff" stroke="#63b8ff" points="407.33,-159.88 417.88,-158.98 409.07,-153.1 407.33,-159.88"/>
</a>
</g>
</g>
<!-- Node10 -->
<g id="Node000010" class="node">
<title>Node10</title>
<g id="a_Node000010"><a xlink:href="code__80005FD0_8c.html#a7d3c0ba065700817ec51167b24bb795e" target="_top" xlink:title=" ">
<polygon fill="white" stroke="#666666" points="506.5,-141 414.5,-141 414.5,-122 506.5,-122 506.5,-141"/>
<text text-anchor="middle" x="460.5" y="-129" font-family="Helvetica,sans-Serif" font-size="10.00">func_8000CBF8</text>
</a>
</g>
</g>
<!-- Node8&#45;&gt;Node10 -->
<g id="edge9_Node000008_Node000010" class="edge">
<title>Node8&#45;&gt;Node10</title>
<g id="a_edge9_Node000008_Node000010"><a xlink:title=" ">
<path fill="none" stroke="#63b8ff" d="M350.52,-123.74C367.34,-124.94 386.58,-126.31 404.17,-127.56"/>
<polygon fill="#63b8ff" stroke="#63b8ff" points="404.08,-131.06 414.31,-128.28 404.58,-124.08 404.08,-131.06"/>
</a>
</g>
</g>
<!-- Node11 -->
<g id="Node000011" class="node">
<title>Node11</title>
<g id="a_Node000011"><a xlink:href="code__80005FD0_8c.html#aae3d2d6e27d79a30dfe68c64e771b5b1" target="_top" xlink:title=" ">
<polygon fill="white" stroke="#666666" points="507,-104 414,-104 414,-85 507,-85 507,-104"/>
<text text-anchor="middle" x="460.5" y="-92" font-family="Helvetica,sans-Serif" font-size="10.00">func_8000D24C</text>
</a>
</g>
</g>
<!-- Node8&#45;&gt;Node11 -->
<g id="edge10_Node000008_Node000011" class="edge">
<title>Node8&#45;&gt;Node11</title>
<g id="a_edge10_Node000008_Node000011"><a xlink:title=" ">
<path fill="none" stroke="#63b8ff" d="M350.52,-112.84C367.19,-110.03 386.24,-106.83 403.7,-103.89"/>
<polygon fill="#63b8ff" stroke="#63b8ff" points="404.49,-107.31 413.77,-102.2 403.33,-100.4 404.49,-107.31"/>
</a>
</g>
</g>
<!-- Node12 -->
<g id="Node000012" class="node">
<title>Node12</title>
<g id="a_Node000012"><a xlink:href="code__80005FD0_8c.html#a49d61a10af04072545a1a7d7ab83fd1f" target="_top" xlink:title=" ">
<polygon fill="white" stroke="#666666" points="664,-153 571,-153 571,-134 664,-134 664,-153"/>
<text text-anchor="middle" x="617.5" y="-141" font-family="Helvetica,sans-Serif" font-size="10.00">func_8000C0BC</text>
</a>
</g>
</g>
<!-- Node11&#45;&gt;Node12 -->
<g id="edge11_Node000011_Node000012" class="edge">
<title>Node11&#45;&gt;Node12</title>
<g id="a_edge11_Node000011_Node000012"><a xlink:title=" ">
<path fill="none" stroke="#63b8ff" d="M500.82,-104.1C511.63,-106.93 523.32,-110.17 534,-113.5 550.08,-118.52 567.64,-124.79 582.42,-130.31"/>
<polygon fill="#63b8ff" stroke="#63b8ff" points="581.56,-133.72 592.15,-133.98 584.03,-127.17 581.56,-133.72"/>
</a>
</g>
</g>
<!-- Node13 -->
<g id="Node000013" class="node">
<title>Node13</title>
<g id="a_Node000013"><a xlink:href="collision_8c.html#af3327ccb63774d1f6603c18d70097061" target="_top" xlink:title=" ">
<polygon fill="white" stroke="#666666" points="664.5,-116 570.5,-116 570.5,-97 664.5,-97 664.5,-116"/>
<text text-anchor="middle" x="617.5" y="-104" font-family="Helvetica,sans-Serif" font-size="10.00">func_802ABD40</text>
</a>
</g>
</g>
<!-- Node11&#45;&gt;Node13 -->
<g id="edge12_Node000011_Node000013" class="edge">
<title>Node11&#45;&gt;Node13</title>
<g id="a_edge12_Node000011_Node000013"><a xlink:title=" ">
<path fill="none" stroke="#63b8ff" d="M507.17,-98.04C523.81,-99.32 542.83,-100.8 560.29,-102.15"/>
<polygon fill="#63b8ff" stroke="#63b8ff" points="560.12,-105.65 570.36,-102.93 560.66,-98.67 560.12,-105.65"/>
</a>
</g>
</g>
<!-- Node14 -->
<g id="Node000014" class="node">
<title>Node14</title>
<g id="a_Node000014"><a xlink:href="collision_8c.html#a365367628b7140a7a880beeecce9c305" target="_top" xlink:title=" ">
<polygon fill="white" stroke="#666666" points="665,-79 570,-79 570,-60 665,-60 665,-79"/>
<text text-anchor="middle" x="617.5" y="-67" font-family="Helvetica,sans-Serif" font-size="10.00">func_802ADDC8</text>
</a>
</g>
</g>
<!-- Node11&#45;&gt;Node14 -->
<g id="edge13_Node000011_Node000014" class="edge">
<title>Node11&#45;&gt;Node14</title>
<g id="a_edge13_Node000011_Node000014"><a xlink:title=" ">
<path fill="none" stroke="#63b8ff" d="M507.17,-87.13C523.66,-84.47 542.49,-81.44 559.82,-78.64"/>
<polygon fill="#63b8ff" stroke="#63b8ff" points="560.5,-82.08 569.82,-77.03 559.39,-75.17 560.5,-82.08"/>
</a>
</g>
</g>
<!-- Node15 -->
<g id="Node000015" class="node">
<title>Node15</title>
<g id="a_Node000015"><a xlink:href="collision_8c.html#afce45acb8da354da0a5b501003be1aef" target="_top" xlink:title=" ">
<polygon fill="white" stroke="#666666" points="794,-140 701,-140 701,-121 794,-121 794,-140"/>
<text text-anchor="middle" x="747.5" y="-128" font-family="Helvetica,sans-Serif" font-size="10.00">func_802AAE4C</text>
</a>
</g>
</g>
<!-- Node14&#45;&gt;Node15 -->
<g id="edge14_Node000014_Node000015" class="edge">
<title>Node14&#45;&gt;Node15</title>
<g id="a_edge14_Node000014_Node000015"><a xlink:title=" ">
<path fill="none" stroke="#63b8ff" d="M644.5,-79.05C651.3,-81.84 658.53,-85.07 665,-88.5 681.99,-97.52 683.96,-103.58 701,-112.5 703.94,-114.04 707.03,-115.52 710.17,-116.94"/>
<polygon fill="#63b8ff" stroke="#63b8ff" points="709.04,-120.26 719.61,-120.95 711.78,-113.82 709.04,-120.26"/>
</a>
</g>
</g>
<!-- Node16 -->
<g id="Node000016" class="node">
<title>Node16</title>
<g id="a_Node000016"><a xlink:href="collision_8c.html#adcc608ea0eae3bf9a27ab79ec64b4899" target="_top" xlink:title=" ">
<polygon fill="white" stroke="#666666" points="793.5,-103 701.5,-103 701.5,-84 793.5,-84 793.5,-103"/>
<text text-anchor="middle" x="747.5" y="-91" font-family="Helvetica,sans-Serif" font-size="10.00">func_802AB288</text>
</a>
</g>
</g>
<!-- Node14&#45;&gt;Node16 -->
<g id="edge15_Node000014_Node000016" class="edge">
<title>Node14&#45;&gt;Node16</title>
<g id="a_edge15_Node000014_Node000016"><a xlink:title=" ">
<path fill="none" stroke="#63b8ff" d="M665.07,-78.23C673.69,-79.85 682.77,-81.55 691.61,-83.21"/>
<polygon fill="#63b8ff" stroke="#63b8ff" points="690.98,-86.65 701.46,-85.05 692.27,-79.77 690.98,-86.65"/>
</a>
</g>
</g>
<!-- Node17 -->
<g id="Node000017" class="node">
<title>Node17</title>
<g id="a_Node000017"><a xlink:href="collision_8c.html#ab440aa3fc960b7b4b5ad8e4bcaa06b00" target="_top" xlink:title=" ">
<polygon fill="white" stroke="#666666" points="794,-66 701,-66 701,-47 794,-47 794,-66"/>
<text text-anchor="middle" x="747.5" y="-54" font-family="Helvetica,sans-Serif" font-size="10.00">func_802AB6C4</text>
</a>
</g>
</g>
<!-- Node14&#45;&gt;Node17 -->
<g id="edge16_Node000014_Node000017" class="edge">
<title>Node14&#45;&gt;Node17</title>
<g id="a_edge16_Node000014_Node000017"><a xlink:title=" ">
<path fill="none" stroke="#63b8ff" d="M665.07,-64.77C673.31,-63.93 681.95,-63.06 690.42,-62.2"/>
<polygon fill="#63b8ff" stroke="#63b8ff" points="691.01,-65.65 700.6,-61.16 690.3,-58.69 691.01,-65.65"/>
</a>
</g>
</g>
<!-- Node19&#45;&gt;Node3 -->
<g id="edge19_Node000019_Node000003" class="edge">
<title>Node19&#45;&gt;Node3</title>
<g id="a_edge19_Node000019_Node000003"><a xlink:title=" ">
<path fill="none" stroke="#63b8ff" d="M205.13,-110.85C210.62,-108.51 216.14,-105.73 221,-102.5 240.12,-89.81 238,-78.37 257,-65.5 259.72,-63.66 262.64,-61.95 265.65,-60.36"/>
<polygon fill="#63b8ff" stroke="#63b8ff" points="267.29,-63.46 274.82,-56.01 264.28,-57.14 267.29,-63.46"/>
</a>
</g>
</g>
<!-- Node19&#45;&gt;Node7 -->
<g id="edge20_Node000019_Node000007" class="edge">
<title>Node19&#45;&gt;Node7</title>
<g id="a_edge20_Node000019_Node000007"><a xlink:title=" ">
<path fill="none" stroke="#63b8ff" d="M207.96,-110.97C223.81,-106.39 243.02,-100.84 260,-95.93"/>
<polygon fill="#63b8ff" stroke="#63b8ff" points="261.07,-99.26 269.7,-93.12 259.12,-92.54 261.07,-99.26"/>
</a>
</g>
</g>
<!-- Node19&#45;&gt;Node8 -->
<g id="edge21_Node000019_Node000008" class="edge">
<title>Node19&#45;&gt;Node8</title>
<g id="a_edge21_Node000019_Node000008"><a xlink:title=" ">
<path fill="none" stroke="#63b8ff" d="M220.13,-120.5C228.91,-120.5 238.22,-120.5 247.3,-120.5"/>
<polygon fill="#63b8ff" stroke="#63b8ff" points="247.42,-124 257.42,-120.5 247.42,-117 247.42,-124"/>
</a>
</g>
</g>
<!-- Node19&#45;&gt;Node18 -->
<g id="edge22_Node000019_Node000018" class="edge">
<title>Node19&#45;&gt;Node18</title>
<g id="a_edge22_Node000019_Node000018"><a xlink:title=" ">
<path fill="none" stroke="#63b8ff" d="M207.96,-130.03C228.65,-136.01 255.05,-143.64 274.77,-149.34"/>
<polygon fill="#63b8ff" stroke="#63b8ff" points="273.83,-152.71 284.41,-152.13 275.78,-145.99 273.83,-152.71"/>
</a>
</g>
</g>
<!-- Node21 -->
<g id="Node000021" class="node">
<title>Node21</title>
<g id="a_Node000021"><a xlink:href="math__util_8c.html#a062850863585005ad1d0a75d9ff70693" target="_top" xlink:title=" ">
<polygon fill="white" stroke="#666666" points="342.5,-19 265.5,-19 265.5,0 342.5,0 342.5,-19"/>
<text text-anchor="middle" x="304" y="-7" font-family="Helvetica,sans-Serif" font-size="10.00">random_u16</text>
</a>
</g>
</g>
<!-- Node20&#45;&gt;Node21 -->
<g id="edge24_Node000020_Node000021" class="edge">
<title>Node20&#45;&gt;Node21</title>
<g id="a_edge24_Node000020_Node000021"><a xlink:title=" ">
<path fill="none" stroke="#63b8ff" d="M210.32,-23.26C224.14,-21.21 240.23,-18.82 255.07,-16.61"/>
<polygon fill="#63b8ff" stroke="#63b8ff" points="255.73,-20.05 265.11,-15.12 254.71,-13.13 255.73,-20.05"/>
</a>
</g>
</g>
</g>
</svg>

<g id="navigator" transform="translate(0 0)" fill="#404254">
  <rect fill="#f2f5e9" fill-opacity="0.5" stroke="#606060" stroke-width=".5" x="0" y="0" width="60" height="60"/>
  <use id="zoomplus" xlink:href="#zoomPlus" x="17" y="9" onmousedown="handleZoom(evt,'in')"/>
  <use id="zoomminus" xlink:href="#zoomMin" x="42" y="9" onmousedown="handleZoom(evt,'out')"/>
  <use id="reset" xlink:href="#resetDef" x="30" y="36" onmousedown="handleReset()"/>
   <use id="arrowup" xlink:href="#arrowUp" x="0" y="0" onmousedown="handlePan(0,-1)"/>
  <use id="arrowright" xlink:href="#arrowRight" x="0" y="0" onmousedown="handlePan(1,0)"/>
  <use id="arrowdown" xlink:href="#arrowDown" x="0" y="0" onmousedown="handlePan(0,1)"/>
  <use id="arrowleft" xlink:href="#arrowLeft" x="0" y="0" onmousedown="handlePan(-1,0)"/>
</g>
<svg viewBox="0 0 15 15" width="100%" height="30px" preserveAspectRatio="xMaxYMin meet">
 <g id="arrow_out" transform="scale(0.3 0.3)">
  <a xlink:href="code__80005FD0_8h_af6c6225161e3d289cc18ecec9f9b58f6_cgraph_org.svg" target="_base">
   <rect id="button" ry="5" rx="5" y="6" x="6" height="38" width="38"
        fill="#f2f5e9" fill-opacity="0.5" stroke="#606060" stroke-width="1.0"/>
   <path id="arrow"
     d="M 11.500037,31.436501 C 11.940474,20.09759 22.043105,11.32322 32.158766,21.979434 L 37.068811,17.246167 C 37.068811,17.246167 37.088388,32 37.088388,32 L 22.160133,31.978069 C 22.160133,31.978069 26.997745,27.140456 26.997745,27.140456 C 18.528582,18.264221 13.291696,25.230495 11.500037,31.436501 z"
     style="fill:#404040;"/>
  </a>
 </g>
</svg>

<style type='text/css'>
<![CDATA[
[data-mouse-over-selected='false'] { opacity: 0.7; }
[data-mouse-over-selected='true']  { opacity: 1.0; }
]]>
</style>
<script type="application/ecmascript"><![CDATA[
document.addEventListener('DOMContentLoaded', (event) => {
  highlightEdges();
  highlightAdjacentNodes();
});
]]></script>
</svg>
