<?xml version="1.0" encoding="UTF-8" standalone="no"?>
<!DOCTYPE svg PUBLIC "-//W3C//DTD SVG 1.1//EN"
 "http://www.w3.org/Graphics/SVG/1.1/DTD/svg11.dtd">
<!-- Generated by graphviz version 2.43.0 (0)
 -->
<!-- Title: render_pause_grand_prix Pages: 1 -->
<!--zoomable 389 -->

<svg id="main" version="1.1" xmlns="http://www.w3.org/2000/svg" xmlns:xlink="http://www.w3.org/1999/xlink" xml:space="preserve" onload="init(evt)">
<style type="text/css"><![CDATA[
.node, .edge {opacity: 0.7;}
.node.selected, .edge.selected {opacity: 1;}
.edge:hover path { stroke: red; }
.edge:hover polygon { stroke: red; fill: red; }
]]></style>

<defs>
  <circle id="rim" cx="0" cy="0" r="7"/>
  <circle id="rim2" cx="0" cy="0" r="3.5"/>
  <g id="zoomPlus">
    <use xlink:href="#rim" fill="#404040"><set attributeName="fill" to="#808080" begin="zoomplus.mouseover" end="zoomplus.mouseout"/></use>
    <path d="M-4,0h8M0,-4v8" fill="none" stroke="white" stroke-width="1.5" pointer-events="none"/>
  </g>
  <g id="zoomMin">
    <use xlink:href="#rim" fill="#404040"><set attributeName="fill" to="#808080" begin="zoomminus.mouseover" end="zoomminus.mouseout"/></use>
    <path d="M-4,0h8" fill="none" stroke="white" stroke-width="1.5" pointer-events="none"/>
  </g>
  <g id="arrowUp" transform="translate(30 24)">
    <use xlink:href="#rim"/>
    <path pointer-events="none" fill="none" stroke="white" stroke-width="1.5" d="M0,-3.0v7 M-2.5,-0.5L0,-3.0L2.5,-0.5"/>
  </g>
  <g id="arrowRight" transform="rotate(90) translate(36 -43)">
    <use xlink:href="#rim"/>
    <path pointer-events="none" fill="none" stroke="white" stroke-width="1.5" d="M0,-3.0v7 M-2.5,-0.5L0,-3.0L2.5,-0.5"/>
  </g>
  <g id="arrowDown" transform="rotate(180) translate(-30 -48)">
    <use xlink:href="#rim"/>
    <path pointer-events="none" fill="none" stroke="white" stroke-width="1.5" d="M0,-3.0v7 M-2.5,-0.5L0,-3.0L2.5,-0.5"/>
  </g>
  <g id="arrowLeft" transform="rotate(270) translate(-36 17)">
    <use xlink:href="#rim"/>
    <path pointer-events="none" fill="none" stroke="white" stroke-width="1.5" d="M0,-3.0v7 M-2.5,-0.5L0,-3.0L2.5,-0.5"/>
  </g>
  <g id="resetDef">
    <use xlink:href="#rim2" fill="#404040"><set attributeName="fill" to="#808080" begin="reset.mouseover" end="reset.mouseout"/></use>
  </g>
</defs>
<script type="application/ecmascript">
var viewWidth = 1444;
var viewHeight = 389;
var sectionId = 'dynsection-421';
</script>
<script type="application/ecmascript" xlink:href="svg.min.js"/>
<svg id="graph" class="graph">
<g id="viewport">
<title>render_pause_grand_prix</title>
<!-- Node1 -->
<g id="Node000001" class="node">
<title>Node1</title>
<g id="a_Node000001"><a xlink:title=" ">
<polygon fill="#999999" stroke="#666666" points="140,-287 0,-287 0,-268 140,-268 140,-287"/>
<text text-anchor="middle" x="70" y="-275" font-family="Helvetica,sans-Serif" font-size="10.00">render_pause_grand_prix</text>
</a>
</g>
</g>
<!-- Node2 -->
<g id="Node000002" class="node">
<title>Node2</title>
<g id="a_Node000002"><a xlink:href="code__80091750_8c.html#a4a3e73dfeae9dc0d77f213e77791181c" target="_top" xlink:title=" ">
<polygon fill="white" stroke="#666666" points="264.5,-380 200.5,-380 200.5,-361 264.5,-361 264.5,-380"/>
<text text-anchor="middle" x="232.5" y="-368" font-family="Helvetica,sans-Serif" font-size="10.00">draw_box</text>
</a>
</g>
</g>
<!-- Node1&#45;&gt;Node2 -->
<g id="edge1_Node000001_Node000002" class="edge">
<title>Node1&#45;&gt;Node2</title>
<g id="a_edge1_Node000001_Node000002"><a xlink:title=" ">
<path fill="none" stroke="#63b8ff" d="M81.91,-287.05C100.22,-302.65 138.79,-333.74 176,-352.5 180.63,-354.83 185.63,-356.95 190.66,-358.85"/>
<polygon fill="#63b8ff" stroke="#63b8ff" points="189.7,-362.23 200.29,-362.23 192.01,-355.62 189.7,-362.23"/>
</a>
</g>
</g>
<!-- Node4 -->
<g id="Node000004" class="node">
<title>Node4</title>
<g id="a_Node000004"><a xlink:href="code__80091750_8c.html#abba22ec81d6a0f90015064095a61ca63" target="_top" xlink:title=" ">
<polygon fill="white" stroke="#666666" points="265,-269 200,-269 200,-250 265,-250 265,-269"/>
<text text-anchor="middle" x="232.5" y="-257" font-family="Helvetica,sans-Serif" font-size="10.00">draw_text</text>
</a>
</g>
</g>
<!-- Node1&#45;&gt;Node4 -->
<g id="edge3_Node000001_Node000004" class="edge">
<title>Node1&#45;&gt;Node4</title>
<g id="a_edge3_Node000001_Node000004"><a xlink:title=" ">
<path fill="none" stroke="#63b8ff" d="M140.46,-269.71C157.26,-267.83 174.7,-265.87 189.76,-264.18"/>
<polygon fill="#63b8ff" stroke="#63b8ff" points="190.23,-267.65 199.78,-263.06 189.45,-260.69 190.23,-267.65"/>
</a>
</g>
</g>
<!-- Node33 -->
<g id="Node000033" class="node">
<title>Node33</title>
<g id="a_Node000033"><a xlink:href="code__80091750_8c.html#ab73f931376f9797d088f76e98ef604dd" target="_top" xlink:title=" ">
<polygon fill="white" stroke="#666666" points="278,-306 187,-306 187,-287 278,-287 278,-306"/>
<text text-anchor="middle" x="232.5" y="-294" font-family="Helvetica,sans-Serif" font-size="10.00">func_80093324</text>
</a>
</g>
</g>
<!-- Node1&#45;&gt;Node33 -->
<g id="edge36_Node000001_Node000033" class="edge">
<title>Node1&#45;&gt;Node33</title>
<g id="a_edge36_Node000001_Node000033"><a xlink:title=" ">
<path fill="none" stroke="#63b8ff" d="M140.46,-285.72C152.65,-287.17 165.18,-288.65 176.89,-290.04"/>
<polygon fill="#63b8ff" stroke="#63b8ff" points="176.6,-293.53 186.94,-291.23 177.42,-286.57 176.6,-293.53"/>
</a>
</g>
</g>
<!-- Node35 -->
<g id="Node000035" class="node">
<title>Node35</title>
<g id="a_Node000035"><a xlink:href="code__80091750_8c.html#a7d794365d2dcd6526ddb06e476bef1e3" target="_top" xlink:title=" ">
<polygon fill="white" stroke="#666666" points="281.5,-343 183.5,-343 183.5,-324 281.5,-324 281.5,-343"/>
<text text-anchor="middle" x="232.5" y="-331" font-family="Helvetica,sans-Serif" font-size="10.00">get_string_width</text>
</a>
</g>
</g>
<!-- Node1&#45;&gt;Node35 -->
<g id="edge42_Node000001_Node000035" class="edge">
<title>Node1&#45;&gt;Node35</title>
<g id="a_edge42_Node000001_Node000035"><a xlink:title=" ">
<path fill="none" stroke="#63b8ff" d="M96.8,-287.11C118.01,-294.94 148.86,-306.19 176,-315.5 181.15,-317.27 186.58,-319.08 191.96,-320.86"/>
<polygon fill="#63b8ff" stroke="#63b8ff" points="190.89,-324.19 201.48,-323.97 193.07,-317.54 190.89,-324.19"/>
</a>
</g>
</g>
<!-- Node36 -->
<g id="Node000036" class="node">
<title>Node36</title>
<g id="a_Node000036"><a xlink:href="code__80091750_8c.html#a1a002f259a6c887d6672085b8cda7d4d" target="_top" xlink:title=" ">
<polygon fill="white" stroke="#666666" points="432,-231 346,-231 346,-212 432,-212 432,-231"/>
<text text-anchor="middle" x="389" y="-219" font-family="Helvetica,sans-Serif" font-size="10.00">set_text_color</text>
</a>
</g>
</g>
<!-- Node1&#45;&gt;Node36 -->
<g id="edge44_Node000001_Node000036" class="edge">
<title>Node1&#45;&gt;Node36</title>
<g id="a_edge44_Node000001_Node000036"><a xlink:title=" ">
<path fill="none" stroke="#63b8ff" d="M93.91,-267.89C114.88,-259.51 146.99,-247.75 176,-241.5 229.7,-229.93 292.48,-225.05 335.71,-223"/>
<polygon fill="#63b8ff" stroke="#63b8ff" points="335.88,-226.49 345.72,-222.56 335.58,-219.5 335.88,-226.49"/>
</a>
</g>
</g>
<!-- Node37 -->
<g id="Node000037" class="node">
<title>Node37</title>
<g id="a_Node000037"><a xlink:href="code__80091750_8c.html#a2dfffcd7164eccf00d21037a6f8274fc" target="_top" xlink:title=" ">
<polygon fill="white" stroke="#666666" points="289,-193 176,-193 176,-174 289,-174 289,-193"/>
<text text-anchor="middle" x="232.5" y="-181" font-family="Helvetica,sans-Serif" font-size="10.00">text_rainbow_effect</text>
</a>
</g>
</g>
<!-- Node1&#45;&gt;Node37 -->
<g id="edge45_Node000001_Node000037" class="edge">
<title>Node1&#45;&gt;Node37</title>
<g id="a_edge45_Node000001_Node000037"><a xlink:title=" ">
<path fill="none" stroke="#63b8ff" d="M83.79,-267.87C103.1,-253.59 141.16,-226.44 176,-207.5 182.72,-203.85 190.11,-200.33 197.25,-197.16"/>
<polygon fill="#63b8ff" stroke="#63b8ff" points="198.93,-200.25 206.73,-193.09 196.17,-193.82 198.93,-200.25"/>
</a>
</g>
</g>
<!-- Node3 -->
<g id="Node000003" class="node">
<title>Node3</title>
<g id="a_Node000003"><a xlink:href="code__80091750_8c.html#a2341569d8bfc9b8aac7d5dab7933c999" target="_top" xlink:title=" ">
<polygon fill="white" stroke="#666666" points="429,-381 349,-381 349,-362 429,-362 429,-381"/>
<text text-anchor="middle" x="389" y="-369" font-family="Helvetica,sans-Serif" font-size="10.00">swap_values</text>
</a>
</g>
</g>
<!-- Node2&#45;&gt;Node3 -->
<g id="edge2_Node000002_Node000003" class="edge">
<title>Node2&#45;&gt;Node3</title>
<g id="a_edge2_Node000002_Node000003"><a xlink:title=" ">
<path fill="none" stroke="#63b8ff" d="M264.77,-370.7C285.98,-370.84 314.48,-371.02 338.72,-371.18"/>
<polygon fill="#63b8ff" stroke="#63b8ff" points="338.79,-374.68 348.82,-371.25 338.84,-367.68 338.79,-374.68"/>
</a>
</g>
</g>
<!-- Node5 -->
<g id="Node000005" class="node">
<title>Node5</title>
<g id="a_Node000005"><a xlink:href="code__80091750_8c.html#ad2af1a6781c3f0bf246aba0d078ae773" target="_top" xlink:title=" ">
<polygon fill="white" stroke="#666666" points="424,-268 354,-268 354,-249 424,-249 424,-268"/>
<text text-anchor="middle" x="389" y="-256" font-family="Helvetica,sans-Serif" font-size="10.00">print_text1</text>
</a>
</g>
</g>
<!-- Node4&#45;&gt;Node5 -->
<g id="edge4_Node000004_Node000005" class="edge">
<title>Node4&#45;&gt;Node5</title>
<g id="a_edge4_Node000004_Node000005"><a xlink:title=" ">
<path fill="none" stroke="#63b8ff" d="M265.14,-259.3C287.87,-259.15 318.82,-258.95 343.97,-258.79"/>
<polygon fill="#63b8ff" stroke="#63b8ff" points="344.01,-262.28 353.99,-258.72 343.97,-255.29 344.01,-262.28"/>
</a>
</g>
</g>
<!-- Node6 -->
<g id="Node000006" class="node">
<title>Node6</title>
<g id="a_Node000006"><a xlink:href="code__80091750_8c.html#ace62f40ce813c34904327e39643a0dbf" target="_top" xlink:title=" ">
<polygon fill="white" stroke="#666666" points="606,-344 489,-344 489,-325 606,-325 606,-344"/>
<text text-anchor="middle" x="547.5" y="-332" font-family="Helvetica,sans-Serif" font-size="10.00">char_to_glyph_index</text>
</a>
</g>
</g>
<!-- Node5&#45;&gt;Node6 -->
<g id="edge5_Node000005_Node000006" class="edge">
<title>Node5&#45;&gt;Node6</title>
<g id="a_edge5_Node000005_Node000006"><a xlink:title=" ">
<path fill="none" stroke="#63b8ff" d="M424.25,-267.11C433.74,-269.95 443.93,-273.45 453,-277.5 478.95,-289.1 506.49,-306.59 524.9,-319.14"/>
<polygon fill="#63b8ff" stroke="#63b8ff" points="522.95,-322.04 533.16,-324.86 526.93,-316.29 522.95,-322.04"/>
</a>
</g>
</g>
<!-- Node10 -->
<g id="Node000010" class="node">
<title>Node10</title>
<g id="a_Node000010"><a xlink:href="code__80091750_8h.html#a003bc23ca6b163f0a02de87a0cc9d034" target="_top" xlink:title=" ">
<polygon fill="white" stroke="#666666" points="593,-268 502,-268 502,-249 593,-249 593,-268"/>
<text text-anchor="middle" x="547.5" y="-256" font-family="Helvetica,sans-Serif" font-size="10.00">func_80099184</text>
</a>
</g>
</g>
<!-- Node5&#45;&gt;Node10 -->
<g id="edge10_Node000005_Node000010" class="edge">
<title>Node5&#45;&gt;Node10</title>
<g id="a_edge10_Node000005_Node000010"><a xlink:title=" ">
<path fill="none" stroke="#63b8ff" d="M424.34,-258.5C444.09,-258.5 469.34,-258.5 491.75,-258.5"/>
<polygon fill="#63b8ff" stroke="#63b8ff" points="491.82,-262 501.82,-258.5 491.82,-255 491.82,-262"/>
</a>
</g>
</g>
<!-- Node11 -->
<g id="Node000011" class="node">
<title>Node11</title>
<g id="a_Node000011"><a xlink:href="code__80091750_8c.html#a282b6972049532b91a1cad60ae77460b" target="_top" xlink:title=" ">
<polygon fill="white" stroke="#666666" points="583,-192 512,-192 512,-173 583,-173 583,-192"/>
<text text-anchor="middle" x="547.5" y="-180" font-family="Helvetica,sans-Serif" font-size="10.00">print_letter</text>
</a>
</g>
</g>
<!-- Node5&#45;&gt;Node11 -->
<g id="edge11_Node000005_Node000011" class="edge">
<title>Node5&#45;&gt;Node11</title>
<g id="a_edge11_Node000005_Node000011"><a xlink:title=" ">
<path fill="none" stroke="#63b8ff" d="M424.22,-251.91C433.91,-249.21 444.2,-245.51 453,-240.5 472.13,-229.61 470.54,-218.49 489,-206.5 494.97,-202.62 501.68,-199.15 508.34,-196.13"/>
<polygon fill="#63b8ff" stroke="#63b8ff" points="510.15,-199.17 517.99,-192.04 507.41,-192.72 510.15,-199.17"/>
</a>
</g>
</g>
<!-- Node32 -->
<g id="Node000032" class="node">
<title>Node32</title>
<g id="a_Node000032"><a xlink:href="code__80091750_8c.html#a2d2758c3a87de891a40840727bef3306" target="_top" xlink:title=" ">
<polygon fill="white" stroke="#666666" points="794,-230 642,-230 642,-211 794,-211 794,-230"/>
<text text-anchor="middle" x="718" y="-218" font-family="Helvetica,sans-Serif" font-size="10.00">segmented_to_virtual_dupe</text>
</a>
</g>
</g>
<!-- Node5&#45;&gt;Node32 -->
<g id="edge35_Node000005_Node000032" class="edge">
<title>Node5&#45;&gt;Node32</title>
<g id="a_edge35_Node000005_Node000032"><a xlink:title=" ">
<path fill="none" stroke="#63b8ff" d="M424.24,-251.47C443.25,-247.77 467.36,-243.41 489,-240.5 536.03,-234.18 588.8,-229.4 631.72,-226.1"/>
<polygon fill="#63b8ff" stroke="#63b8ff" points="632.14,-229.58 641.84,-225.34 631.61,-222.6 632.14,-229.58"/>
</a>
</g>
</g>
<!-- Node7 -->
<g id="Node000007" class="node">
<title>Node7</title>
<g id="a_Node000007"><a xlink:href="code__80091750_8c.html#ae8ba1b567dba01ff15c64d416653a70b" target="_top" xlink:title=" ">
<polygon fill="white" stroke="#666666" points="764,-344 672,-344 672,-325 764,-325 764,-344"/>
<text text-anchor="middle" x="718" y="-332" font-family="Helvetica,sans-Serif" font-size="10.00">func_80092DF8</text>
</a>
</g>
</g>
<!-- Node6&#45;&gt;Node7 -->
<g id="edge6_Node000006_Node000007" class="edge">
<title>Node6&#45;&gt;Node7</title>
<g id="a_edge6_Node000006_Node000007"><a xlink:title=" ">
<path fill="none" stroke="#63b8ff" d="M606.02,-334.5C624.11,-334.5 644.04,-334.5 661.96,-334.5"/>
<polygon fill="#63b8ff" stroke="#63b8ff" points="661.97,-338 671.97,-334.5 661.97,-331 661.97,-338"/>
</a>
</g>
</g>
<!-- Node8 -->
<g id="Node000008" class="node">
<title>Node8</title>
<g id="a_Node000008"><a xlink:href="code__80091750_8c.html#acd5b29a8e8634aa4f3db4b9a7c5ba033" target="_top" xlink:title=" ">
<polygon fill="white" stroke="#666666" points="922,-363 830,-363 830,-344 922,-344 922,-363"/>
<text text-anchor="middle" x="876" y="-351" font-family="Helvetica,sans-Serif" font-size="10.00">func_80092E1C</text>
</a>
</g>
</g>
<!-- Node6&#45;&gt;Node8 -->
<g id="edge8_Node000006_Node000008" class="edge">
<title>Node6&#45;&gt;Node8</title>
<g id="a_edge8_Node000006_Node000008"><a xlink:title=" ">
<path fill="none" stroke="#63b8ff" d="M586.45,-344.01C603.34,-347.77 623.54,-351.64 642,-353.5 702.56,-359.59 772.42,-358.52 819.73,-356.61"/>
<polygon fill="#63b8ff" stroke="#63b8ff" points="819.92,-360.1 829.76,-356.17 819.62,-353.11 819.92,-360.1"/>
</a>
</g>
</g>
<!-- Node9 -->
<g id="Node000009" class="node">
<title>Node9</title>
<g id="a_Node000009"><a xlink:href="code__80091750_8c.html#ab26c8dca1828cd1d5a6c341cb851f0b9" target="_top" xlink:title=" ">
<polygon fill="white" stroke="#666666" points="763.5,-307 672.5,-307 672.5,-288 763.5,-288 763.5,-307"/>
<text text-anchor="middle" x="718" y="-295" font-family="Helvetica,sans-Serif" font-size="10.00">func_80092EE4</text>
</a>
</g>
</g>
<!-- Node6&#45;&gt;Node9 -->
<g id="edge9_Node000006_Node000009" class="edge">
<title>Node6&#45;&gt;Node9</title>
<g id="a_edge9_Node000006_Node000009"><a xlink:title=" ">
<path fill="none" stroke="#63b8ff" d="M591.89,-324.97C613.72,-320.18 640.38,-314.32 663.47,-309.25"/>
<polygon fill="#63b8ff" stroke="#63b8ff" points="664.44,-312.62 673.46,-307.06 662.94,-305.79 664.44,-312.62"/>
</a>
</g>
</g>
<!-- Node7&#45;&gt;Node8 -->
<g id="edge7_Node000007_Node000008" class="edge">
<title>Node7&#45;&gt;Node8</title>
<g id="a_edge7_Node000007_Node000008"><a xlink:title=" ">
<path fill="none" stroke="#63b8ff" d="M764.12,-340C781.58,-342.12 801.74,-344.58 820.04,-346.81"/>
<polygon fill="#63b8ff" stroke="#63b8ff" points="819.63,-350.28 829.98,-348.02 820.48,-343.33 819.63,-350.28"/>
</a>
</g>
</g>
<!-- Node12 -->
<g id="Node000012" class="node">
<title>Node12</title>
<g id="a_Node000012"><a xlink:href="code__80091750_8c.html#a37eb021a953285ba504198ac6ca73a9a" target="_top" xlink:title=" ">
<polygon fill="white" stroke="#666666" points="764.5,-193 671.5,-193 671.5,-174 764.5,-174 764.5,-193"/>
<text text-anchor="middle" x="718" y="-181" font-family="Helvetica,sans-Serif" font-size="10.00">func_80095BD0</text>
</a>
</g>
</g>
<!-- Node11&#45;&gt;Node12 -->
<g id="edge12_Node000011_Node000012" class="edge">
<title>Node11&#45;&gt;Node12</title>
<g id="a_edge12_Node000011_Node000012"><a xlink:title=" ">
<path fill="none" stroke="#63b8ff" d="M583.01,-182.7C605.53,-182.84 635.45,-183.02 661.3,-183.17"/>
<polygon fill="#63b8ff" stroke="#63b8ff" points="661.33,-186.67 671.35,-183.23 661.37,-179.67 661.33,-186.67"/>
</a>
</g>
</g>
<!-- Node31 -->
<g id="Node000031" class="node">
<title>Node31</title>
<g id="a_Node000031"><a xlink:href="code__80091750_8c.html#a6061a0dbb9b34a45fb1620c6c1d7f73c" target="_top" xlink:title=" ">
<polygon fill="white" stroke="#666666" points="764,-156 672,-156 672,-137 764,-137 764,-156"/>
<text text-anchor="middle" x="718" y="-144" font-family="Helvetica,sans-Serif" font-size="10.00">func_8009B8C4</text>
</a>
</g>
</g>
<!-- Node11&#45;&gt;Node31 -->
<g id="edge33_Node000011_Node000031" class="edge">
<title>Node11&#45;&gt;Node31</title>
<g id="a_edge33_Node000011_Node000031"><a xlink:title=" ">
<path fill="none" stroke="#63b8ff" d="M583.01,-175.13C605.79,-170.26 636.12,-163.78 662.17,-158.21"/>
<polygon fill="#63b8ff" stroke="#63b8ff" points="663.24,-161.56 672.29,-156.05 661.78,-154.72 663.24,-161.56"/>
</a>
</g>
</g>
<!-- Node11&#45;&gt;Node32 -->
<g id="edge34_Node000011_Node000032" class="edge">
<title>Node11&#45;&gt;Node32</title>
<g id="a_edge34_Node000011_Node000032"><a xlink:title=" ">
<path fill="none" stroke="#63b8ff" d="M583.01,-190.28C606.57,-195.6 638.22,-202.73 664.85,-208.74"/>
<polygon fill="#63b8ff" stroke="#63b8ff" points="664.25,-212.19 674.78,-210.98 665.79,-205.36 664.25,-212.19"/>
</a>
</g>
</g>
<!-- Node13 -->
<g id="Node000013" class="node">
<title>Node13</title>
<g id="a_Node000013"><a xlink:href="code__80091750_8c.html#ae0fd5923ba70cf6939cd3fa8d09c1191" target="_top" xlink:title=" ">
<polygon fill="white" stroke="#666666" points="921.5,-230 830.5,-230 830.5,-211 921.5,-211 921.5,-230"/>
<text text-anchor="middle" x="876" y="-218" font-family="Helvetica,sans-Serif" font-size="10.00">func_800959F8</text>
</a>
</g>
</g>
<!-- Node12&#45;&gt;Node13 -->
<g id="edge13_Node000012_Node000013" class="edge">
<title>Node12&#45;&gt;Node13</title>
<g id="a_edge13_Node000012_Node000013"><a xlink:title=" ">
<path fill="none" stroke="#63b8ff" d="M759.17,-193.03C779.2,-197.78 803.62,-203.57 824.87,-208.61"/>
<polygon fill="#63b8ff" stroke="#63b8ff" points="824.15,-212.04 834.69,-210.94 825.77,-205.23 824.15,-212.04"/>
</a>
</g>
</g>
<!-- Node14 -->
<g id="Node000014" class="node">
<title>Node14</title>
<g id="a_Node000014"><a xlink:href="code__80091750_8c.html#a6c24b866d3618758d63cb5ec18cf1c88" target="_top" xlink:title=" ">
<polygon fill="white" stroke="#666666" points="922,-193 830,-193 830,-174 922,-174 922,-193"/>
<text text-anchor="middle" x="876" y="-181" font-family="Helvetica,sans-Serif" font-size="10.00">func_80095AE0</text>
</a>
</g>
</g>
<!-- Node12&#45;&gt;Node14 -->
<g id="edge14_Node000012_Node000014" class="edge">
<title>Node12&#45;&gt;Node14</title>
<g id="a_edge14_Node000012_Node000014"><a xlink:title=" ">
<path fill="none" stroke="#63b8ff" d="M764.54,-183.5C781.84,-183.5 801.73,-183.5 819.82,-183.5"/>
<polygon fill="#63b8ff" stroke="#63b8ff" points="819.94,-187 829.94,-183.5 819.94,-180 819.94,-187"/>
</a>
</g>
</g>
<!-- Node16 -->
<g id="Node000016" class="node">
<title>Node16</title>
<g id="a_Node000016"><a xlink:href="osSyncPrintf_8c.html#a8b417b868747c80d58f83d8a1e78ecf3" target="_top" xlink:title=" ">
<polygon fill="white" stroke="#666666" points="910,-147 842,-147 842,-128 910,-128 910,-147"/>
<text text-anchor="middle" x="876" y="-135" font-family="Helvetica,sans-Serif" font-size="10.00">rmonPrintf</text>
</a>
</g>
</g>
<!-- Node12&#45;&gt;Node16 -->
<g id="edge16_Node000012_Node000016" class="edge">
<title>Node12&#45;&gt;Node16</title>
<g id="a_edge16_Node000012_Node000016"><a xlink:title=" ">
<path fill="none" stroke="#63b8ff" d="M758.85,-173.98C770.25,-171.11 782.66,-167.82 794,-164.5 808.54,-160.24 824.38,-155.08 838.16,-150.42"/>
<polygon fill="#63b8ff" stroke="#63b8ff" points="839.46,-153.67 847.79,-147.13 837.19,-147.05 839.46,-153.67"/>
</a>
</g>
</g>
<!-- Node15 -->
<g id="Node000015" class="node">
<title>Node15</title>
<g id="a_Node000015"><a xlink:href="guMtxF2L_8c.html#a40ab2d64c609839ff1e0ef0de2d0dcc4" target="_top" xlink:title=" ">
<polygon fill="white" stroke="#666666" points="1043,-203 978,-203 978,-184 1043,-184 1043,-203"/>
<text text-anchor="middle" x="1010.5" y="-191" font-family="Helvetica,sans-Serif" font-size="10.00">guMtxF2L</text>
</a>
</g>
</g>
<!-- Node14&#45;&gt;Node15 -->
<g id="edge15_Node000014_Node000015" class="edge">
<title>Node14&#45;&gt;Node15</title>
<g id="a_edge15_Node000014_Node000015"><a xlink:title=" ">
<path fill="none" stroke="#63b8ff" d="M922.23,-186.91C936.95,-188.02 953.21,-189.25 967.67,-190.34"/>
<polygon fill="#63b8ff" stroke="#63b8ff" points="967.6,-193.85 977.83,-191.11 968.13,-186.87 967.6,-193.85"/>
</a>
</g>
</g>
<!-- Node17 -->
<g id="Node000017" class="node">
<title>Node17</title>
<g id="a_Node000017"><a xlink:href="__Printf_8c.html#a39bb05c90efce6c6790c5d58d271d72d" target="_top" xlink:title=" ">
<polygon fill="white" stroke="#666666" points="1034.5,-92 986.5,-92 986.5,-73 1034.5,-73 1034.5,-92"/>
<text text-anchor="middle" x="1010.5" y="-80" font-family="Helvetica,sans-Serif" font-size="10.00">_Printf</text>
</a>
</g>
</g>
<!-- Node16&#45;&gt;Node17 -->
<g id="edge17_Node000016_Node000017" class="edge">
<title>Node16&#45;&gt;Node17</title>
<g id="a_edge17_Node000016_Node000017"><a xlink:title=" ">
<path fill="none" stroke="#63b8ff" d="M896.75,-127.86C913.02,-120.07 936.77,-109.04 958,-100.5 964,-98.09 970.46,-95.68 976.71,-93.45"/>
<polygon fill="#63b8ff" stroke="#63b8ff" points="977.97,-96.72 986.26,-90.11 975.66,-90.11 977.97,-96.72"/>
</a>
</g>
</g>
<!-- Node29 -->
<g id="Node000029" class="node">
<title>Node29</title>
<g id="a_Node000029"><a xlink:href="is__debug_8c.html#aaccfac8d9098530b6592eefe679d86b4" target="_top" xlink:title=" ">
<polygon fill="white" stroke="#666666" points="1063,-166 958,-166 958,-147 1063,-147 1063,-166"/>
<text text-anchor="middle" x="1010.5" y="-154" font-family="Helvetica,sans-Serif" font-size="10.00">is_proutSyncPrintf</text>
</a>
</g>
</g>
<!-- Node16&#45;&gt;Node29 -->
<g id="edge31_Node000016_Node000029" class="edge">
<title>Node16&#45;&gt;Node29</title>
<g id="a_edge31_Node000016_Node000029"><a xlink:title=" ">
<path fill="none" stroke="#63b8ff" d="M910.09,-142.25C921.46,-143.88 934.59,-145.76 947.5,-147.61"/>
<polygon fill="#63b8ff" stroke="#63b8ff" points="947.38,-151.13 957.77,-149.08 948.37,-144.2 947.38,-151.13"/>
</a>
</g>
</g>
<!-- Node30 -->
<g id="Node000030" class="node">
<title>Node30</title>
<g id="a_Node000030"><a xlink:href="osSyncPrintf_8c.html#af2956cd92becd74f149439d84cd55096" target="_top" xlink:title=" ">
<polygon fill="white" stroke="#666666" points="1049,-129 972,-129 972,-110 1049,-110 1049,-129"/>
<text text-anchor="middle" x="1010.5" y="-117" font-family="Helvetica,sans-Serif" font-size="10.00">osSyncPrintf</text>
</a>
</g>
</g>
<!-- Node16&#45;&gt;Node30 -->
<g id="edge32_Node000016_Node000030" class="edge">
<title>Node16&#45;&gt;Node30</title>
<g id="a_edge32_Node000016_Node000030"><a xlink:title=" ">
<path fill="none" stroke="#63b8ff" d="M910.09,-133C925.58,-130.9 944.33,-128.35 961.35,-126.04"/>
<polygon fill="#63b8ff" stroke="#63b8ff" points="962.24,-129.45 971.68,-124.64 961.3,-122.52 962.24,-129.45"/>
</a>
</g>
</g>
<!-- Node18 -->
<g id="Node000018" class="node">
<title>Node18</title>
<g id="a_Node000018"><a xlink:href="__Printf_8c.html#ad73a5847f2d7c9de14cc2723da86bf45" target="_top" xlink:title=" ">
<polygon fill="white" stroke="#666666" points="1149,-111 1099,-111 1099,-92 1149,-92 1149,-111"/>
<text text-anchor="middle" x="1124" y="-99" font-family="Helvetica,sans-Serif" font-size="10.00">_Putfld</text>
</a>
</g>
</g>
<!-- Node17&#45;&gt;Node18 -->
<g id="edge18_Node000017_Node000018" class="edge">
<title>Node17&#45;&gt;Node18</title>
<g id="a_edge18_Node000017_Node000018"><a xlink:title=" ">
<path fill="none" stroke="#63b8ff" d="M1034.6,-86.44C1050.28,-89.11 1071.27,-92.69 1088.87,-95.68"/>
<polygon fill="#63b8ff" stroke="#63b8ff" points="1088.32,-99.14 1098.77,-97.37 1089.5,-92.24 1088.32,-99.14"/>
</a>
</g>
</g>
<!-- Node28 -->
<g id="Node000028" class="node">
<title>Node28</title>
<g id="a_Node000028"><a xlink:href="string_8c.html#a988b4defe51a1815ef3b9ddab10e7a89" target="_top" xlink:title=" ">
<polygon fill="white" stroke="#666666" points="1146,-74 1102,-74 1102,-55 1146,-55 1146,-74"/>
<text text-anchor="middle" x="1124" y="-62" font-family="Helvetica,sans-Serif" font-size="10.00">strchr</text>
</a>
</g>
</g>
<!-- Node17&#45;&gt;Node28 -->
<g id="edge30_Node000017_Node000028" class="edge">
<title>Node17&#45;&gt;Node28</title>
<g id="a_edge30_Node000017_Node000028"><a xlink:title=" ">
<path fill="none" stroke="#63b8ff" d="M1034.6,-78.77C1051.13,-76.1 1073.57,-72.48 1091.71,-69.55"/>
<polygon fill="#63b8ff" stroke="#63b8ff" points="1092.5,-72.97 1101.81,-67.92 1091.38,-66.06 1092.5,-72.97"/>
</a>
</g>
</g>
<!-- Node19 -->
<g id="Node000019" class="node">
<title>Node19</title>
<g id="a_Node000019"><a xlink:href="__Ldtob_8c.html#a7cc858157b66e15c831ad085113729ae" target="_top" xlink:title=" ">
<polygon fill="white" stroke="#666666" points="1234,-111 1185,-111 1185,-92 1234,-92 1234,-111"/>
<text text-anchor="middle" x="1209.5" y="-99" font-family="Helvetica,sans-Serif" font-size="10.00">_Ldtob</text>
</a>
</g>
</g>
<!-- Node18&#45;&gt;Node19 -->
<g id="edge19_Node000018_Node000019" class="edge">
<title>Node18&#45;&gt;Node19</title>
<g id="a_edge19_Node000018_Node000019"><a xlink:title=" ">
<path fill="none" stroke="#63b8ff" d="M1149.15,-101.5C1157.16,-101.5 1166.24,-101.5 1174.83,-101.5"/>
<polygon fill="#63b8ff" stroke="#63b8ff" points="1174.98,-105 1184.98,-101.5 1174.98,-98 1174.98,-105"/>
</a>
</g>
</g>
<!-- Node25 -->
<g id="Node000025" class="node">
<title>Node25</title>
<g id="a_Node000025"><a xlink:href="__Litob_8c.html#aaaba3b0ab7920d422a61fe9e22600dd0" target="_top" xlink:title=" ">
<polygon fill="white" stroke="#666666" points="1232.5,-206 1186.5,-206 1186.5,-187 1232.5,-187 1232.5,-206"/>
<text text-anchor="middle" x="1209.5" y="-194" font-family="Helvetica,sans-Serif" font-size="10.00">_Litob</text>
</a>
</g>
</g>
<!-- Node18&#45;&gt;Node25 -->
<g id="edge26_Node000018_Node000025" class="edge">
<title>Node18&#45;&gt;Node25</title>
<g id="a_edge26_Node000018_Node000025"><a xlink:title=" ">
<path fill="none" stroke="#63b8ff" d="M1133.62,-111.31C1147.69,-127.32 1175.79,-159.28 1193.27,-179.18"/>
<polygon fill="#63b8ff" stroke="#63b8ff" points="1190.82,-181.69 1200.05,-186.89 1196.08,-177.06 1190.82,-181.69"/>
</a>
</g>
</g>
<!-- Node27 -->
<g id="Node000027" class="node">
<title>Node27</title>
<g id="a_Node000027"><a xlink:href="string_8c.html#a008e171a518fe0e0352f31b245e03875" target="_top" xlink:title=" ">
<polygon fill="white" stroke="#666666" points="1231.5,-74 1187.5,-74 1187.5,-55 1231.5,-55 1231.5,-74"/>
<text text-anchor="middle" x="1209.5" y="-62" font-family="Helvetica,sans-Serif" font-size="10.00">strlen</text>
</a>
</g>
</g>
<!-- Node18&#45;&gt;Node27 -->
<g id="edge29_Node000018_Node000027" class="edge">
<title>Node18&#45;&gt;Node27</title>
<g id="a_edge29_Node000018_Node000027"><a xlink:title=" ">
<path fill="none" stroke="#63b8ff" d="M1146.5,-91.97C1156.12,-87.71 1167.63,-82.61 1178.11,-77.97"/>
<polygon fill="#63b8ff" stroke="#63b8ff" points="1179.63,-81.12 1187.36,-73.87 1176.8,-74.72 1179.63,-81.12"/>
</a>
</g>
</g>
<!-- Node20 -->
<g id="Node000020" class="node">
<title>Node20</title>
<g id="a_Node000020"><a xlink:href="__Ldtob_8c.html#a2b6c5318b43bab1636bad9113ffb2761" target="_top" xlink:title=" ">
<polygon fill="white" stroke="#666666" points="1330.5,-19 1280.5,-19 1280.5,0 1330.5,0 1330.5,-19"/>
<text text-anchor="middle" x="1305.5" y="-7" font-family="Helvetica,sans-Serif" font-size="10.00">_Genld</text>
</a>
</g>
</g>
<!-- Node19&#45;&gt;Node20 -->
<g id="edge20_Node000019_Node000020" class="edge">
<title>Node19&#45;&gt;Node20</title>
<g id="a_edge20_Node000019_Node000020"><a xlink:title=" ">
<path fill="none" stroke="#63b8ff" d="M1224.07,-91.72C1227.5,-88.94 1231.04,-85.77 1234,-82.5 1253.6,-60.83 1248.35,-47.11 1270,-27.5 1271.1,-26.51 1272.26,-25.55 1273.46,-24.64"/>
<polygon fill="#63b8ff" stroke="#63b8ff" points="1275.4,-27.55 1281.88,-19.17 1271.59,-21.68 1275.4,-27.55"/>
</a>
</g>
</g>
<!-- Node21 -->
<g id="Node000021" class="node">
<title>Node21</title>
<g id="a_Node000021"><a xlink:href="string_8c.html#ad7f1ae1bbb49dece44bda378982a704d" target="_top" xlink:title=" ">
<polygon fill="white" stroke="#666666" points="1436,-168 1377,-168 1377,-149 1436,-149 1436,-168"/>
<text text-anchor="middle" x="1406.5" y="-156" font-family="Helvetica,sans-Serif" font-size="10.00">memcpy</text>
</a>
</g>
</g>
<!-- Node19&#45;&gt;Node21 -->
<g id="edge24_Node000019_Node000021" class="edge">
<title>Node19&#45;&gt;Node21</title>
<g id="a_edge24_Node000019_Node000021"><a xlink:title=" ">
<path fill="none" stroke="#63b8ff" d="M1222.49,-111.04C1233.99,-119.66 1252.18,-131.97 1270,-138.5 1301.38,-150 1339.14,-154.91 1366.82,-156.99"/>
<polygon fill="#63b8ff" stroke="#63b8ff" points="1366.7,-160.48 1376.91,-157.65 1367.16,-153.5 1366.7,-160.48"/>
</a>
</g>
</g>
<!-- Node22 -->
<g id="Node000022" class="node">
<title>Node22</title>
<g id="a_Node000022"><a xlink:href="__Ldtob_8c.html#ab7ade9ce60aaa8baa0244b503351d742" target="_top" xlink:title=" ">
<polygon fill="white" stroke="#666666" points="1341,-56 1270,-56 1270,-37 1341,-37 1341,-56"/>
<text text-anchor="middle" x="1305.5" y="-44" font-family="Helvetica,sans-Serif" font-size="10.00">_Ldunscale</text>
</a>
</g>
</g>
<!-- Node19&#45;&gt;Node22 -->
<g id="edge22_Node000019_Node000022" class="edge">
<title>Node19&#45;&gt;Node22</title>
<g id="a_edge22_Node000019_Node000022"><a xlink:title=" ">
<path fill="none" stroke="#63b8ff" d="M1225.47,-91.75C1237.39,-84.1 1254.58,-73.3 1270,-64.5 1272,-63.36 1274.08,-62.2 1276.19,-61.05"/>
<polygon fill="#63b8ff" stroke="#63b8ff" points="1278.2,-63.94 1285.38,-56.15 1274.91,-57.77 1278.2,-63.94"/>
</a>
</g>
</g>
<!-- Node23 -->
<g id="Node000023" class="node">
<title>Node23</title>
<g id="a_Node000023"><a xlink:href="ldiv_8c.html#a0302920caf64a5fbe1ce0862799d7784" target="_top" xlink:title=" ">
<polygon fill="white" stroke="#666666" points="1323,-130 1288,-130 1288,-111 1323,-111 1323,-130"/>
<text text-anchor="middle" x="1305.5" y="-118" font-family="Helvetica,sans-Serif" font-size="10.00">ldiv</text>
</a>
</g>
</g>
<!-- Node19&#45;&gt;Node23 -->
<g id="edge23_Node000019_Node000023" class="edge">
<title>Node19&#45;&gt;Node23</title>
<g id="a_edge23_Node000019_Node000023"><a xlink:title=" ">
<path fill="none" stroke="#63b8ff" d="M1234.22,-106.29C1247.57,-108.99 1264.27,-112.37 1278.04,-115.15"/>
<polygon fill="#63b8ff" stroke="#63b8ff" points="1277.4,-118.59 1287.9,-117.14 1278.79,-111.73 1277.4,-118.59"/>
</a>
</g>
</g>
<!-- Node24 -->
<g id="Node000024" class="node">
<title>Node24</title>
<g id="a_Node000024"><a xlink:href="alBnkfNew_8c.html#a96a0200a6b40350e524f536d232ecb53" target="_top" xlink:title=" ">
<polygon fill="white" stroke="#666666" points="1331.5,-93 1279.5,-93 1279.5,-74 1331.5,-74 1331.5,-93"/>
<text text-anchor="middle" x="1305.5" y="-81" font-family="Helvetica,sans-Serif" font-size="10.00">unused</text>
</a>
</g>
</g>
<!-- Node19&#45;&gt;Node24 -->
<g id="edge25_Node000019_Node000024" class="edge">
<title>Node19&#45;&gt;Node24</title>
<g id="a_edge25_Node000019_Node000024"><a xlink:title=" ">
<path fill="none" stroke="#63b8ff" d="M1234.22,-96.96C1244.9,-94.91 1257.74,-92.45 1269.5,-90.2"/>
<polygon fill="#63b8ff" stroke="#63b8ff" points="1270.31,-93.61 1279.47,-88.29 1268.99,-86.74 1270.31,-93.61"/>
</a>
</g>
</g>
<!-- Node20&#45;&gt;Node21 -->
<g id="edge21_Node000020_Node000021" class="edge">
<title>Node20&#45;&gt;Node21</title>
<g id="a_edge21_Node000020_Node000021"><a xlink:title=" ">
<path fill="none" stroke="#63b8ff" d="M1329.8,-19.05C1333.85,-21.4 1337.79,-24.21 1341,-27.5 1372.75,-60 1391.65,-111.19 1400.14,-138.98"/>
<polygon fill="#63b8ff" stroke="#63b8ff" points="1396.82,-140.09 1402.98,-148.71 1403.54,-138.13 1396.82,-140.09"/>
</a>
</g>
</g>
<!-- Node25&#45;&gt;Node21 -->
<g id="edge28_Node000025_Node000021" class="edge">
<title>Node25&#45;&gt;Node21</title>
<g id="a_edge28_Node000025_Node000021"><a xlink:title=" ">
<path fill="none" stroke="#63b8ff" d="M1232.71,-192.64C1258.71,-188.06 1303.05,-180.11 1341,-172.5 1349.48,-170.8 1358.56,-168.89 1367.16,-167.03"/>
<polygon fill="#63b8ff" stroke="#63b8ff" points="1367.94,-170.45 1376.96,-164.9 1366.45,-163.61 1367.94,-170.45"/>
</a>
</g>
</g>
<!-- Node26 -->
<g id="Node000026" class="node">
<title>Node26</title>
<g id="a_Node000026"><a xlink:href="ldiv_8c.html#a5b23c3639f11980dca762c5f1d74f339" target="_top" xlink:title=" ">
<polygon fill="white" stroke="#666666" points="1324.5,-244 1286.5,-244 1286.5,-225 1324.5,-225 1324.5,-244"/>
<text text-anchor="middle" x="1305.5" y="-232" font-family="Helvetica,sans-Serif" font-size="10.00">lldiv</text>
</a>
</g>
</g>
<!-- Node25&#45;&gt;Node26 -->
<g id="edge27_Node000025_Node000026" class="edge">
<title>Node25&#45;&gt;Node26</title>
<g id="a_edge27_Node000025_Node000026"><a xlink:title=" ">
<path fill="none" stroke="#63b8ff" d="M1232.78,-205.51C1245.97,-210.84 1262.8,-217.64 1276.84,-223.32"/>
<polygon fill="#63b8ff" stroke="#63b8ff" points="1275.89,-226.71 1286.47,-227.21 1278.52,-220.22 1275.89,-226.71"/>
</a>
</g>
</g>
<!-- Node34 -->
<g id="Node000034" class="node">
<title>Node34</title>
<g id="a_Node000034"><a xlink:href="code__80091750_8c.html#a07904969a6bc8374f305d668f432b26a" target="_top" xlink:title=" ">
<polygon fill="white" stroke="#666666" points="424,-305 354,-305 354,-286 424,-286 424,-305"/>
<text text-anchor="middle" x="389" y="-293" font-family="Helvetica,sans-Serif" font-size="10.00">print_text0</text>
</a>
</g>
</g>
<!-- Node33&#45;&gt;Node34 -->
<g id="edge37_Node000033_Node000034" class="edge">
<title>Node33&#45;&gt;Node34</title>
<g id="a_edge37_Node000033_Node000034"><a xlink:title=" ">
<path fill="none" stroke="#63b8ff" d="M278.19,-296.21C298.77,-296.08 323.13,-295.92 343.67,-295.79"/>
<polygon fill="#63b8ff" stroke="#63b8ff" points="343.74,-299.29 353.72,-295.72 343.7,-292.29 343.74,-299.29"/>
</a>
</g>
</g>
<!-- Node34&#45;&gt;Node6 -->
<g id="edge38_Node000034_Node000006" class="edge">
<title>Node34&#45;&gt;Node6</title>
<g id="a_edge38_Node000034_Node000006"><a xlink:title=" ">
<path fill="none" stroke="#63b8ff" d="M424.34,-304.06C446,-309.45 474.28,-316.5 498.17,-322.46"/>
<polygon fill="#63b8ff" stroke="#63b8ff" points="497.57,-325.91 508.11,-324.93 499.26,-319.12 497.57,-325.91"/>
</a>
</g>
</g>
<!-- Node34&#45;&gt;Node10 -->
<g id="edge39_Node000034_Node000010" class="edge">
<title>Node34&#45;&gt;Node10</title>
<g id="a_edge39_Node000034_Node000010"><a xlink:title=" ">
<path fill="none" stroke="#63b8ff" d="M424.34,-287.38C445.44,-282.39 472.84,-275.91 496.34,-270.36"/>
<polygon fill="#63b8ff" stroke="#63b8ff" points="497.22,-273.75 506.14,-268.04 495.61,-266.94 497.22,-273.75"/>
</a>
</g>
</g>
<!-- Node34&#45;&gt;Node11 -->
<g id="edge40_Node000034_Node000011" class="edge">
<title>Node34&#45;&gt;Node11</title>
<g id="a_edge40_Node000034_Node000011"><a xlink:title=" ">
<path fill="none" stroke="#63b8ff" d="M424.03,-289.24C433.82,-286.54 444.21,-282.75 453,-277.5 472.69,-265.73 472.92,-256.87 489,-240.5 502.56,-226.69 518.01,-211.12 529.47,-199.59"/>
<polygon fill="#63b8ff" stroke="#63b8ff" points="532.13,-201.88 536.7,-192.32 527.17,-196.94 532.13,-201.88"/>
</a>
</g>
</g>
<!-- Node34&#45;&gt;Node32 -->
<g id="edge41_Node000034_Node000032" class="edge">
<title>Node34&#45;&gt;Node32</title>
<g id="a_edge41_Node000034_Node000032"><a xlink:title=" ">
<path fill="none" stroke="#63b8ff" d="M424.03,-296.71C467.22,-297.32 543.59,-295.36 606,-277.5 638.44,-268.22 672.49,-249.13 694.19,-235.61"/>
<polygon fill="#63b8ff" stroke="#63b8ff" points="696.13,-238.52 702.69,-230.19 692.37,-232.61 696.13,-238.52"/>
</a>
</g>
</g>
<!-- Node35&#45;&gt;Node6 -->
<g id="edge43_Node000035_Node000006" class="edge">
<title>Node35&#45;&gt;Node6</title>
<g id="a_edge43_Node000035_Node000006"><a xlink:title=" ">
<path fill="none" stroke="#63b8ff" d="M281.72,-333.65C334.49,-333.82 419.46,-334.09 478.87,-334.28"/>
<polygon fill="#63b8ff" stroke="#63b8ff" points="478.91,-337.78 488.92,-334.32 478.93,-330.78 478.91,-337.78"/>
</a>
</g>
</g>
<!-- Node37&#45;&gt;Node36 -->
<g id="edge47_Node000037_Node000036" class="edge">
<title>Node37&#45;&gt;Node36</title>
<g id="a_edge47_Node000037_Node000036"><a xlink:title=" ">
<path fill="none" stroke="#63b8ff" d="M272.49,-193.09C292.78,-198.08 317.79,-204.23 339.35,-209.53"/>
<polygon fill="#63b8ff" stroke="#63b8ff" points="338.75,-212.99 349.29,-211.98 340.42,-206.19 338.75,-212.99"/>
</a>
</g>
</g>
<!-- Node38 -->
<g id="Node000038" class="node">
<title>Node38</title>
<g id="a_Node000038"><a xlink:href="menus_8c.html#a377e9f19431072ed8c7d9cba0409800a" target="_top" xlink:title=" ">
<polygon fill="white" stroke="#666666" points="453,-193 325,-193 325,-174 453,-174 453,-193"/>
<text text-anchor="middle" x="389" y="-181" font-family="Helvetica,sans-Serif" font-size="10.00">is_screen_being_faded</text>
</a>
</g>
</g>
<!-- Node37&#45;&gt;Node38 -->
<g id="edge46_Node000037_Node000038" class="edge">
<title>Node37&#45;&gt;Node38</title>
<g id="a_edge46_Node000037_Node000038"><a xlink:title=" ">
<path fill="none" stroke="#63b8ff" d="M289.28,-183.5C297.6,-183.5 306.29,-183.5 314.91,-183.5"/>
<polygon fill="#63b8ff" stroke="#63b8ff" points="314.96,-187 324.96,-183.5 314.96,-180 314.96,-187"/>
</a>
</g>
</g>
</g>
</svg>

<g id="navigator" transform="translate(0 0)" fill="#404254">
  <rect fill="#f2f5e9" fill-opacity="0.5" stroke="#606060" stroke-width=".5" x="0" y="0" width="60" height="60"/>
  <use id="zoomplus" xlink:href="#zoomPlus" x="17" y="9" onmousedown="handleZoom(evt,'in')"/>
  <use id="zoomminus" xlink:href="#zoomMin" x="42" y="9" onmousedown="handleZoom(evt,'out')"/>
  <use id="reset" xlink:href="#resetDef" x="30" y="36" onmousedown="handleReset()"/>
   <use id="arrowup" xlink:href="#arrowUp" x="0" y="0" onmousedown="handlePan(0,-1)"/>
  <use id="arrowright" xlink:href="#arrowRight" x="0" y="0" onmousedown="handlePan(1,0)"/>
  <use id="arrowdown" xlink:href="#arrowDown" x="0" y="0" onmousedown="handlePan(0,1)"/>
  <use id="arrowleft" xlink:href="#arrowLeft" x="0" y="0" onmousedown="handlePan(-1,0)"/>
</g>
<svg viewBox="0 0 15 15" width="100%" height="30px" preserveAspectRatio="xMaxYMin meet">
 <g id="arrow_out" transform="scale(0.3 0.3)">
  <a xlink:href="code__80091750_8c_a62f00c7e23d0beda73f08591f3dab4b2_cgraph_org.svg" target="_base">
   <rect id="button" ry="5" rx="5" y="6" x="6" height="38" width="38"
        fill="#f2f5e9" fill-opacity="0.5" stroke="#606060" stroke-width="1.0"/>
   <path id="arrow"
     d="M 11.500037,31.436501 C 11.940474,20.09759 22.043105,11.32322 32.158766,21.979434 L 37.068811,17.246167 C 37.068811,17.246167 37.088388,32 37.088388,32 L 22.160133,31.978069 C 22.160133,31.978069 26.997745,27.140456 26.997745,27.140456 C 18.528582,18.264221 13.291696,25.230495 11.500037,31.436501 z"
     style="fill:#404040;"/>
  </a>
 </g>
</svg>

<style type='text/css'>
<![CDATA[
[data-mouse-over-selected='false'] { opacity: 0.7; }
[data-mouse-over-selected='true']  { opacity: 1.0; }
]]>
</style>
<script type="application/ecmascript"><![CDATA[
document.addEventListener('DOMContentLoaded', (event) => {
  highlightEdges();
  highlightAdjacentNodes();
});
]]></script>
</svg>
