<?xml version="1.0" encoding="UTF-8" standalone="no"?>
<!DOCTYPE svg PUBLIC "-//W3C//DTD SVG 1.1//EN"
 "http://www.w3.org/Graphics/SVG/1.1/DTD/svg11.dtd">
<!-- Generated by graphviz version 2.43.0 (0)
 -->
<!-- Title: func_8009CA2C Pages: 1 -->
<svg width="760pt" height="270pt"
 viewBox="0.00 0.00 760.00 270.00" xmlns="http://www.w3.org/2000/svg" xmlns:xlink="http://www.w3.org/1999/xlink">
<g id="graph0" class="graph" transform="scale(1 1) rotate(0) translate(4 266)">
<title>func_8009CA2C</title>
<!-- Node1 -->
<g id="Node000001" class="node">
<title>Node1</title>
<g id="a_Node000001"><a xlink:title=" ">
<polygon fill="#999999" stroke="#666666" points="93,-130 0,-130 0,-111 93,-111 93,-130"/>
<text text-anchor="middle" x="46.5" y="-118" font-family="Helvetica,sans-Serif" font-size="10.00">func_8009CA2C</text>
</a>
</g>
</g>
<!-- Node2 -->
<g id="Node000002" class="node">
<title>Node2</title>
<g id="a_Node000002"><a xlink:href="code__80091750_8c.html#abad727451137a6166b04d9fdb8064eae" target="_top" xlink:title=" ">
<polygon fill="white" stroke="#666666" points="222,-130 129,-130 129,-111 222,-111 222,-130"/>
<text text-anchor="middle" x="175.5" y="-118" font-family="Helvetica,sans-Serif" font-size="10.00">func_8009CA6C</text>
</a>
</g>
</g>
<!-- Node1&#45;&gt;Node2 -->
<g id="edge1_Node000001_Node000002" class="edge">
<title>Node1&#45;&gt;Node2</title>
<g id="a_edge1_Node000001_Node000002"><a xlink:title=" ">
<path fill="none" stroke="#63b8ff" d="M93.35,-120.5C101.53,-120.5 110.14,-120.5 118.57,-120.5"/>
<polygon fill="#63b8ff" stroke="#63b8ff" points="118.72,-124 128.72,-120.5 118.72,-117 118.72,-124"/>
</a>
</g>
</g>
<!-- Node3 -->
<g id="Node000003" class="node">
<title>Node3</title>
<g id="a_Node000003"><a xlink:href="code__80091750_8c.html#a3d60e52f9fd4e679e74322f0904920b8" target="_top" xlink:title=" ">
<polygon fill="white" stroke="#666666" points="378,-262 258,-262 258,-243 378,-243 378,-262"/>
<text text-anchor="middle" x="318" y="-250" font-family="Helvetica,sans-Serif" font-size="10.00">find_8018D9E0_entry</text>
</a>
</g>
</g>
<!-- Node2&#45;&gt;Node3 -->
<g id="edge2_Node000002_Node000003" class="edge">
<title>Node2&#45;&gt;Node3</title>
<g id="a_edge2_Node000002_Node000003"><a xlink:title=" ">
<path fill="none" stroke="#63b8ff" d="M181.48,-130.25C192.54,-151.05 221.13,-200.16 258,-228.5 263.18,-232.48 269.11,-235.9 275.17,-238.81"/>
<polygon fill="#63b8ff" stroke="#63b8ff" points="274.14,-242.18 284.7,-242.96 276.93,-235.76 274.14,-242.18"/>
</a>
</g>
</g>
<!-- Node4 -->
<g id="Node000004" class="node">
<title>Node4</title>
<g id="a_Node000004"><a xlink:href="code__80091750_8c.html#a7012f3b29a8e4f4eb040dbdd604a704d" target="_top" xlink:title=" ">
<polygon fill="white" stroke="#666666" points="365.5,-186 270.5,-186 270.5,-167 365.5,-167 365.5,-186"/>
<text text-anchor="middle" x="318" y="-174" font-family="Helvetica,sans-Serif" font-size="10.00">func_8009CDDC</text>
</a>
</g>
</g>
<!-- Node2&#45;&gt;Node4 -->
<g id="edge3_Node000002_Node000004" class="edge">
<title>Node2&#45;&gt;Node4</title>
<g id="a_edge3_Node000002_Node000004"><a xlink:title=" ">
<path fill="none" stroke="#63b8ff" d="M195.99,-130.11C212.34,-137.99 236.4,-149.15 258,-157.5 263.53,-159.64 269.41,-161.74 275.24,-163.71"/>
<polygon fill="#63b8ff" stroke="#63b8ff" points="274.33,-167.1 284.92,-166.91 276.52,-160.45 274.33,-167.1"/>
</a>
</g>
</g>
<!-- Node8 -->
<g id="Node000008" class="node">
<title>Node8</title>
<g id="a_Node000008"><a xlink:href="code__80091750_8c.html#aeda5a476b70ec20d3f01e1c60b381939" target="_top" xlink:title=" ">
<polygon fill="white" stroke="#666666" points="365,-149 271,-149 271,-130 365,-130 365,-149"/>
<text text-anchor="middle" x="318" y="-137" font-family="Helvetica,sans-Serif" font-size="10.00">func_8009CDFC</text>
</a>
</g>
</g>
<!-- Node2&#45;&gt;Node8 -->
<g id="edge7_Node000002_Node000008" class="edge">
<title>Node2&#45;&gt;Node8</title>
<g id="a_edge7_Node000002_Node000008"><a xlink:title=" ">
<path fill="none" stroke="#63b8ff" d="M222.12,-126.67C234.38,-128.33 247.79,-130.14 260.57,-131.87"/>
<polygon fill="#63b8ff" stroke="#63b8ff" points="260.27,-135.36 270.65,-133.23 261.21,-128.42 260.27,-135.36"/>
</a>
</g>
</g>
<!-- Node9 -->
<g id="Node000009" class="node">
<title>Node9</title>
<g id="a_Node000009"><a xlink:href="code__80091750_8c.html#a3e1c80f37b6c05eef98a89c85236ae05" target="_top" xlink:title=" ">
<polygon fill="white" stroke="#666666" points="364,-112 272,-112 272,-93 364,-93 364,-112"/>
<text text-anchor="middle" x="318" y="-100" font-family="Helvetica,sans-Serif" font-size="10.00">func_8009D958</text>
</a>
</g>
</g>
<!-- Node2&#45;&gt;Node9 -->
<g id="edge9_Node000002_Node000009" class="edge">
<title>Node2&#45;&gt;Node9</title>
<g id="a_edge9_Node000002_Node000009"><a xlink:title=" ">
<path fill="none" stroke="#63b8ff" d="M222.12,-114.66C234.63,-113.05 248.35,-111.3 261.36,-109.63"/>
<polygon fill="#63b8ff" stroke="#63b8ff" points="262.14,-113.06 271.61,-108.31 261.25,-106.11 262.14,-113.06"/>
</a>
</g>
</g>
<!-- Node12 -->
<g id="Node000012" class="node">
<title>Node12</title>
<g id="a_Node000012"><a xlink:href="code__80091750_8c.html#a059a6679d134439f21e1d1dd4e71a7d2" target="_top" xlink:title=" ">
<polygon fill="white" stroke="#666666" points="364,-75 272,-75 272,-56 364,-56 364,-75"/>
<text text-anchor="middle" x="318" y="-63" font-family="Helvetica,sans-Serif" font-size="10.00">func_8009D978</text>
</a>
</g>
</g>
<!-- Node2&#45;&gt;Node12 -->
<g id="edge13_Node000002_Node000012" class="edge">
<title>Node2&#45;&gt;Node12</title>
<g id="a_edge13_Node000002_Node000012"><a xlink:title=" ">
<path fill="none" stroke="#63b8ff" d="M195.63,-110.96C211.96,-103.02 236.19,-91.74 258,-83.5 262.88,-81.66 268.05,-79.86 273.21,-78.16"/>
<polygon fill="#63b8ff" stroke="#63b8ff" points="274.58,-81.4 283.05,-75.03 272.46,-74.73 274.58,-81.4"/>
</a>
</g>
</g>
<!-- Node13 -->
<g id="Node000013" class="node">
<title>Node13</title>
<g id="a_Node000013"><a xlink:href="code__80091750_8c.html#a57eda320919df4cd8968b1d2c00e7862" target="_top" xlink:title=" ">
<polygon fill="white" stroke="#666666" points="507,-205 415,-205 415,-186 507,-186 507,-205"/>
<text text-anchor="middle" x="461" y="-193" font-family="Helvetica,sans-Serif" font-size="10.00">func_8009D998</text>
</a>
</g>
</g>
<!-- Node2&#45;&gt;Node13 -->
<g id="edge15_Node000002_Node000013" class="edge">
<title>Node2&#45;&gt;Node13</title>
<g id="a_edge15_Node000002_Node000013"><a xlink:title=" ">
<path fill="none" stroke="#63b8ff" d="M183.17,-130.24C195.56,-147.34 223.96,-182.22 258,-195.5 305.09,-213.87 363.17,-211.56 404.96,-206.03"/>
<polygon fill="#63b8ff" stroke="#63b8ff" points="405.54,-209.48 414.94,-204.6 404.55,-202.55 405.54,-209.48"/>
</a>
</g>
</g>
<!-- Node14 -->
<g id="Node000014" class="node">
<title>Node14</title>
<g id="a_Node000014"><a xlink:href="code__80091750_8c.html#a82e1ddafec68abcbafc1d172e65377c8" target="_top" xlink:title=" ">
<polygon fill="white" stroke="#666666" points="508,-56 414,-56 414,-37 508,-37 508,-56"/>
<text text-anchor="middle" x="461" y="-44" font-family="Helvetica,sans-Serif" font-size="10.00">func_8009DAA8</text>
</a>
</g>
</g>
<!-- Node2&#45;&gt;Node14 -->
<g id="edge17_Node000002_Node000014" class="edge">
<title>Node2&#45;&gt;Node14</title>
<g id="a_edge17_Node000002_Node000014"><a xlink:title=" ">
<path fill="none" stroke="#63b8ff" d="M183.2,-110.89C195.64,-94.01 224.13,-59.58 258,-46.5 304.69,-28.46 362.11,-30.54 403.78,-35.91"/>
<polygon fill="#63b8ff" stroke="#63b8ff" points="403.37,-39.38 413.75,-37.29 404.33,-32.45 403.37,-39.38"/>
</a>
</g>
</g>
<!-- Node15 -->
<g id="Node000015" class="node">
<title>Node15</title>
<g id="a_Node000015"><a xlink:href="code__80091750_8c.html#a0e3fcfca071cb718f40c5b91f8f6d56e" target="_top" xlink:title=" ">
<polygon fill="white" stroke="#666666" points="508,-19 414,-19 414,0 508,0 508,-19"/>
<text text-anchor="middle" x="461" y="-7" font-family="Helvetica,sans-Serif" font-size="10.00">func_8009DB8C</text>
</a>
</g>
</g>
<!-- Node2&#45;&gt;Node15 -->
<g id="edge20_Node000002_Node000015" class="edge">
<title>Node2&#45;&gt;Node15</title>
<g id="a_edge20_Node000002_Node000015"><a xlink:title=" ">
<path fill="none" stroke="#63b8ff" d="M181.69,-110.83C192.75,-91.3 220.71,-47.43 258,-28.5 303.12,-5.59 361.21,-2.41 403.5,-4.03"/>
<polygon fill="#63b8ff" stroke="#63b8ff" points="403.47,-7.53 413.63,-4.52 403.81,-0.54 403.47,-7.53"/>
</a>
</g>
</g>
<!-- Node5 -->
<g id="Node000005" class="node">
<title>Node5</title>
<g id="a_Node000005"><a xlink:href="code__80091750_8c.html#a642d421600345ce934fb9e23cb85d30e" target="_top" xlink:title=" ">
<polygon fill="white" stroke="#666666" points="507,-149 415,-149 415,-130 507,-130 507,-149"/>
<text text-anchor="middle" x="461" y="-137" font-family="Helvetica,sans-Serif" font-size="10.00">func_8009CBE4</text>
</a>
</g>
</g>
<!-- Node4&#45;&gt;Node5 -->
<g id="edge4_Node000004_Node000005" class="edge">
<title>Node4&#45;&gt;Node5</title>
<g id="a_edge4_Node000004_Node000005"><a xlink:title=" ">
<path fill="none" stroke="#63b8ff" d="M355.31,-166.97C373.02,-162.33 394.52,-156.68 413.42,-151.72"/>
<polygon fill="#63b8ff" stroke="#63b8ff" points="414.54,-155.05 423.32,-149.12 412.76,-148.28 414.54,-155.05"/>
</a>
</g>
</g>
<!-- Node6 -->
<g id="Node000006" class="node">
<title>Node6</title>
<g id="a_Node000006"><a xlink:href="code__80091750_8c.html#a69d3c27f64f73ce88101239bfdd0d901" target="_top" xlink:title=" ">
<polygon fill="white" stroke="#666666" points="622,-93 558,-93 558,-74 622,-74 622,-93"/>
<text text-anchor="middle" x="590" y="-81" font-family="Helvetica,sans-Serif" font-size="10.00">draw_box</text>
</a>
</g>
</g>
<!-- Node5&#45;&gt;Node6 -->
<g id="edge5_Node000005_Node000006" class="edge">
<title>Node5&#45;&gt;Node6</title>
<g id="a_edge5_Node000005_Node000006"><a xlink:title=" ">
<path fill="none" stroke="#63b8ff" d="M483.83,-129.87C504.31,-120.84 535.14,-107.25 558.13,-97.11"/>
<polygon fill="#63b8ff" stroke="#63b8ff" points="559.71,-100.24 567.45,-93 556.89,-93.83 559.71,-100.24"/>
</a>
</g>
</g>
<!-- Node7 -->
<g id="Node000007" class="node">
<title>Node7</title>
<g id="a_Node000007"><a xlink:href="code__80091750_8c.html#a2341569d8bfc9b8aac7d5dab7933c999" target="_top" xlink:title=" ">
<polygon fill="white" stroke="#666666" points="752,-93 672,-93 672,-74 752,-74 752,-93"/>
<text text-anchor="middle" x="712" y="-81" font-family="Helvetica,sans-Serif" font-size="10.00">swap_values</text>
</a>
</g>
</g>
<!-- Node6&#45;&gt;Node7 -->
<g id="edge6_Node000006_Node000007" class="edge">
<title>Node6&#45;&gt;Node7</title>
<g id="a_edge6_Node000006_Node000007"><a xlink:title=" ">
<path fill="none" stroke="#63b8ff" d="M622.22,-83.5C634.28,-83.5 648.38,-83.5 661.74,-83.5"/>
<polygon fill="#63b8ff" stroke="#63b8ff" points="661.77,-87 671.77,-83.5 661.77,-80 661.77,-87"/>
</a>
</g>
</g>
<!-- Node8&#45;&gt;Node5 -->
<g id="edge8_Node000008_Node000005" class="edge">
<title>Node8&#45;&gt;Node5</title>
<g id="a_edge8_Node000008_Node000005"><a xlink:title=" ">
<path fill="none" stroke="#63b8ff" d="M365.17,-139.5C377.72,-139.5 391.44,-139.5 404.45,-139.5"/>
<polygon fill="#63b8ff" stroke="#63b8ff" points="404.69,-143 414.69,-139.5 404.69,-136 404.69,-143"/>
</a>
</g>
</g>
<!-- Node10 -->
<g id="Node000010" class="node">
<title>Node10</title>
<g id="a_Node000010"><a xlink:href="code__80091750_8c.html#a8e60e8fa498c04884deba6d2e5bb4ffe" target="_top" xlink:title=" ">
<polygon fill="white" stroke="#666666" points="507.5,-93 414.5,-93 414.5,-74 507.5,-74 507.5,-93"/>
<text text-anchor="middle" x="461" y="-81" font-family="Helvetica,sans-Serif" font-size="10.00">func_8009D77C</text>
</a>
</g>
</g>
<!-- Node9&#45;&gt;Node10 -->
<g id="edge10_Node000009_Node000010" class="edge">
<title>Node9&#45;&gt;Node10</title>
<g id="a_edge10_Node000009_Node000010"><a xlink:title=" ">
<path fill="none" stroke="#63b8ff" d="M364,-96.44C376.85,-94.71 391,-92.8 404.39,-90.99"/>
<polygon fill="#63b8ff" stroke="#63b8ff" points="405.02,-94.44 414.46,-89.64 404.08,-87.5 405.02,-94.44"/>
</a>
</g>
</g>
<!-- Node10&#45;&gt;Node6 -->
<g id="edge11_Node000010_Node000006" class="edge">
<title>Node10&#45;&gt;Node6</title>
<g id="a_edge11_Node000010_Node000006"><a xlink:title=" ">
<path fill="none" stroke="#63b8ff" d="M507.85,-83.5C520.84,-83.5 534.9,-83.5 547.61,-83.5"/>
<polygon fill="#63b8ff" stroke="#63b8ff" points="547.91,-87 557.91,-83.5 547.91,-80 547.91,-87"/>
</a>
</g>
</g>
<!-- Node11 -->
<g id="Node000011" class="node">
<title>Node11</title>
<g id="a_Node000011"><a xlink:href="code__80091750_8h.html#aab8e06bbdb851a34f27ecf68c1a0119c" target="_top" xlink:title=" ">
<polygon fill="white" stroke="#666666" points="636,-56 544,-56 544,-37 636,-37 636,-56"/>
<text text-anchor="middle" x="590" y="-44" font-family="Helvetica,sans-Serif" font-size="10.00">func_8009CE64</text>
</a>
</g>
</g>
<!-- Node10&#45;&gt;Node11 -->
<g id="edge12_Node000010_Node000011" class="edge">
<title>Node10&#45;&gt;Node11</title>
<g id="a_edge12_Node000010_Node000011"><a xlink:title=" ">
<path fill="none" stroke="#63b8ff" d="M494.71,-73.97C510.43,-69.39 529.49,-63.84 546.34,-58.93"/>
<polygon fill="#63b8ff" stroke="#63b8ff" points="547.34,-62.28 555.96,-56.12 545.38,-55.56 547.34,-62.28"/>
</a>
</g>
</g>
<!-- Node12&#45;&gt;Node10 -->
<g id="edge14_Node000012_Node000010" class="edge">
<title>Node12&#45;&gt;Node10</title>
<g id="a_edge14_Node000012_Node000010"><a xlink:title=" ">
<path fill="none" stroke="#63b8ff" d="M364,-71.24C376.85,-72.88 391,-74.69 404.39,-76.4"/>
<polygon fill="#63b8ff" stroke="#63b8ff" points="404.1,-79.89 414.46,-77.69 404.98,-72.95 404.1,-79.89"/>
</a>
</g>
</g>
<!-- Node13&#45;&gt;Node6 -->
<g id="edge16_Node000013_Node000006" class="edge">
<title>Node13&#45;&gt;Node6</title>
<g id="a_edge16_Node000013_Node000006"><a xlink:title=" ">
<path fill="none" stroke="#63b8ff" d="M473.86,-185.98C483.23,-178.38 496.58,-167.42 508,-157.5 530.16,-138.24 555,-115.35 571.26,-100.18"/>
<polygon fill="#63b8ff" stroke="#63b8ff" points="574.01,-102.4 578.92,-93.01 569.22,-97.29 574.01,-102.4"/>
</a>
</g>
</g>
<!-- Node14&#45;&gt;Node6 -->
<g id="edge18_Node000014_Node000006" class="edge">
<title>Node14&#45;&gt;Node6</title>
<g id="a_edge18_Node000014_Node000006"><a xlink:title=" ">
<path fill="none" stroke="#63b8ff" d="M494.71,-56.03C510.92,-60.75 530.68,-66.51 547.91,-71.53"/>
<polygon fill="#63b8ff" stroke="#63b8ff" points="547.14,-74.95 557.72,-74.39 549.1,-68.23 547.14,-74.95"/>
</a>
</g>
</g>
<!-- Node14&#45;&gt;Node11 -->
<g id="edge19_Node000014_Node000011" class="edge">
<title>Node14&#45;&gt;Node11</title>
<g id="a_edge19_Node000014_Node000011"><a xlink:title=" ">
<path fill="none" stroke="#63b8ff" d="M508.21,-46.5C516.48,-46.5 525.17,-46.5 533.67,-46.5"/>
<polygon fill="#63b8ff" stroke="#63b8ff" points="533.89,-50 543.89,-46.5 533.89,-43 533.89,-50"/>
</a>
</g>
</g>
<!-- Node15&#45;&gt;Node6 -->
<g id="edge21_Node000015_Node000006" class="edge">
<title>Node15&#45;&gt;Node6</title>
<g id="a_edge21_Node000015_Node000006"><a xlink:title=" ">
<path fill="none" stroke="#63b8ff" d="M492.13,-19.15C497.62,-21.49 503.14,-24.27 508,-27.5 527.12,-40.19 525.05,-51.56 544,-64.5 546.58,-66.26 549.34,-67.91 552.19,-69.44"/>
<polygon fill="#63b8ff" stroke="#63b8ff" points="550.91,-72.71 561.44,-73.92 553.97,-66.41 550.91,-72.71"/>
</a>
</g>
</g>
<!-- Node15&#45;&gt;Node11 -->
<g id="edge22_Node000015_Node000011" class="edge">
<title>Node15&#45;&gt;Node11</title>
<g id="a_edge22_Node000015_Node000011"><a xlink:title=" ">
<path fill="none" stroke="#63b8ff" d="M494.71,-19.03C510.43,-23.61 529.49,-29.16 546.34,-34.07"/>
<polygon fill="#63b8ff" stroke="#63b8ff" points="545.38,-37.44 555.96,-36.88 547.34,-30.72 545.38,-37.44"/>
</a>
</g>
</g>
<!-- Node16 -->
<g id="Node000016" class="node">
<title>Node16</title>
<g id="a_Node000016"><a xlink:href="math__util_8c.html#a151b63b8adf9af7e4054b3b84bd226dc" target="_top" xlink:title=" ">
<polygon fill="white" stroke="#666666" points="626,-19 554,-19 554,0 626,0 626,-19"/>
<text text-anchor="middle" x="590" y="-7" font-family="Helvetica,sans-Serif" font-size="10.00">random_int</text>
</a>
</g>
</g>
<!-- Node15&#45;&gt;Node16 -->
<g id="edge23_Node000015_Node000016" class="edge">
<title>Node15&#45;&gt;Node16</title>
<g id="a_edge23_Node000015_Node000016"><a xlink:title=" ">
<path fill="none" stroke="#63b8ff" d="M508.21,-9.5C519.72,-9.5 532.05,-9.5 543.53,-9.5"/>
<polygon fill="#63b8ff" stroke="#63b8ff" points="543.78,-13 553.78,-9.5 543.78,-6 543.78,-13"/>
</a>
</g>
</g>
<!-- Node17 -->
<g id="Node000017" class="node">
<title>Node17</title>
<g id="a_Node000017"><a xlink:href="math__util_8c.html#a062850863585005ad1d0a75d9ff70693" target="_top" xlink:title=" ">
<polygon fill="white" stroke="#666666" points="750.5,-19 673.5,-19 673.5,0 750.5,0 750.5,-19"/>
<text text-anchor="middle" x="712" y="-7" font-family="Helvetica,sans-Serif" font-size="10.00">random_u16</text>
</a>
</g>
</g>
<!-- Node16&#45;&gt;Node17 -->
<g id="edge24_Node000016_Node000017" class="edge">
<title>Node16&#45;&gt;Node17</title>
<g id="a_edge24_Node000016_Node000017"><a xlink:title=" ">
<path fill="none" stroke="#63b8ff" d="M626.03,-9.5C637.6,-9.5 650.67,-9.5 663.03,-9.5"/>
<polygon fill="#63b8ff" stroke="#63b8ff" points="663.2,-13 673.2,-9.5 663.2,-6 663.2,-13"/>
</a>
</g>
</g>
</g>
</svg>
