<?xml version="1.0" encoding="UTF-8" standalone="no"?>
<!DOCTYPE svg PUBLIC "-//W3C//DTD SVG 1.1//EN"
 "http://www.w3.org/Graphics/SVG/1.1/DTD/svg11.dtd">
<!-- Generated by graphviz version 2.43.0 (0)
 -->
<!-- Title: func_8008B620 Pages: 1 -->
<svg width="548pt" height="261pt"
 viewBox="0.00 0.00 548.00 260.50" xmlns="http://www.w3.org/2000/svg" xmlns:xlink="http://www.w3.org/1999/xlink">
<g id="graph0" class="graph" transform="scale(1 1) rotate(0) translate(4 256.5)">
<title>func_8008B620</title>
<!-- Node1 -->
<g id="Node000001" class="node">
<title>Node1</title>
<g id="a_Node000001"><a xlink:title=" ">
<polygon fill="#999999" stroke="#666666" points="92,-140.5 0,-140.5 0,-121.5 92,-121.5 92,-140.5"/>
<text text-anchor="middle" x="46" y="-128.5" font-family="Helvetica,sans-Serif" font-size="10.00">func_8008B620</text>
</a>
</g>
</g>
<!-- Node2 -->
<g id="Node000002" class="node">
<title>Node2</title>
<g id="a_Node000002"><a xlink:href="code__80086E70_8c.html#a73c80773354a17350de1ea32bbeac1c3" target="_top" xlink:title=" ">
<polygon fill="white" stroke="#666666" points="220,-159.5 128,-159.5 128,-140.5 220,-140.5 220,-159.5"/>
<text text-anchor="middle" x="174" y="-147.5" font-family="Helvetica,sans-Serif" font-size="10.00">func_8008B44C</text>
</a>
</g>
</g>
<!-- Node1&#45;&gt;Node2 -->
<g id="edge1_Node000001_Node000002" class="edge">
<title>Node1&#45;&gt;Node2</title>
<g id="a_edge1_Node000001_Node000002"><a xlink:title=" ">
<path fill="none" stroke="#63b8ff" d="M92.13,-137.81C100.46,-139.06 109.23,-140.38 117.81,-141.68"/>
<polygon fill="#63b8ff" stroke="#63b8ff" points="117.35,-145.15 127.76,-143.18 118.39,-138.23 117.35,-145.15"/>
</a>
</g>
</g>
<!-- Node3 -->
<g id="Node000003" class="node">
<title>Node3</title>
<g id="a_Node000003"><a xlink:href="code__80086E70_8c.html#a9fcf41101a67c7115d1abda14b052744" target="_top" xlink:title=" ">
<polygon fill="white" stroke="#666666" points="220,-122.5 128,-122.5 128,-103.5 220,-103.5 220,-122.5"/>
<text text-anchor="middle" x="174" y="-110.5" font-family="Helvetica,sans-Serif" font-size="10.00">func_8008B478</text>
</a>
</g>
</g>
<!-- Node1&#45;&gt;Node3 -->
<g id="edge2_Node000001_Node000003" class="edge">
<title>Node1&#45;&gt;Node3</title>
<g id="a_edge2_Node000001_Node000003"><a xlink:title=" ">
<path fill="none" stroke="#63b8ff" d="M92.13,-124.55C100.46,-123.36 109.23,-122.11 117.81,-120.88"/>
<polygon fill="#63b8ff" stroke="#63b8ff" points="118.35,-124.34 127.76,-119.46 117.36,-117.41 118.35,-124.34"/>
</a>
</g>
</g>
<!-- Node4 -->
<g id="Node000004" class="node">
<title>Node4</title>
<g id="a_Node000004"><a xlink:href="code__80086E70_8c.html#a54a469d2e41eb5a0930aed0397c15f99" target="_top" xlink:title=" ">
<polygon fill="white" stroke="#666666" points="364,-215.5 272,-215.5 272,-196.5 364,-196.5 364,-215.5"/>
<text text-anchor="middle" x="318" y="-203.5" font-family="Helvetica,sans-Serif" font-size="10.00">func_8008AFE0</text>
</a>
</g>
</g>
<!-- Node3&#45;&gt;Node4 -->
<g id="edge3_Node000003_Node000004" class="edge">
<title>Node3&#45;&gt;Node4</title>
<g id="a_edge3_Node000003_Node000004"><a xlink:title=" ">
<path fill="none" stroke="#63b8ff" d="M205.02,-122.68C210.34,-125.21 215.59,-128.29 220,-132 242.64,-151.05 232.32,-170.25 256,-188 258.09,-189.56 260.31,-190.99 262.62,-192.3"/>
<polygon fill="#63b8ff" stroke="#63b8ff" points="261.38,-195.58 271.91,-196.74 264.4,-189.27 261.38,-195.58"/>
</a>
</g>
</g>
<!-- Node7 -->
<g id="Node000007" class="node">
<title>Node7</title>
<g id="a_Node000007"><a xlink:href="code__80086E70_8c.html#a138deec6cf098d944fb5e9162967bbee" target="_top" xlink:title=" ">
<polygon fill="white" stroke="#666666" points="364,-178.5 272,-178.5 272,-159.5 364,-159.5 364,-178.5"/>
<text text-anchor="middle" x="318" y="-166.5" font-family="Helvetica,sans-Serif" font-size="10.00">func_8008B17C</text>
</a>
</g>
</g>
<!-- Node3&#45;&gt;Node7 -->
<g id="edge6_Node000003_Node000007" class="edge">
<title>Node3&#45;&gt;Node7</title>
<g id="a_edge6_Node000003_Node000007"><a xlink:title=" ">
<path fill="none" stroke="#63b8ff" d="M198.99,-122.68C205.83,-125.56 213.26,-128.8 220,-132 236.35,-139.75 239.24,-144.18 256,-151 260.67,-152.9 265.62,-154.7 270.6,-156.37"/>
<polygon fill="#63b8ff" stroke="#63b8ff" points="269.55,-159.7 280.14,-159.41 271.68,-153.04 269.55,-159.7"/>
</a>
</g>
</g>
<!-- Node10 -->
<g id="Node000010" class="node">
<title>Node10</title>
<g id="a_Node000010"><a xlink:href="code__80086E70_8c.html#a4639e642c83156416e59a15e32bfdb22" target="_top" xlink:title=" ">
<polygon fill="white" stroke="#666666" points="364.5,-141.5 271.5,-141.5 271.5,-122.5 364.5,-122.5 364.5,-141.5"/>
<text text-anchor="middle" x="318" y="-129.5" font-family="Helvetica,sans-Serif" font-size="10.00">func_8008B1D4</text>
</a>
</g>
</g>
<!-- Node3&#45;&gt;Node10 -->
<g id="edge9_Node000003_Node000010" class="edge">
<title>Node3&#45;&gt;Node10</title>
<g id="a_edge9_Node000003_Node000010"><a xlink:title=" ">
<path fill="none" stroke="#63b8ff" d="M220.32,-119.06C233.26,-120.79 247.51,-122.7 261,-124.51"/>
<polygon fill="#63b8ff" stroke="#63b8ff" points="260.76,-128.01 271.14,-125.86 261.69,-121.07 260.76,-128.01"/>
</a>
</g>
</g>
<!-- Node11 -->
<g id="Node000011" class="node">
<title>Node11</title>
<g id="a_Node000011"><a xlink:href="code__80086E70_8c.html#ab55ff141af0b2e879cdb0d277298a36a" target="_top" xlink:title=" ">
<polygon fill="white" stroke="#666666" points="364,-104.5 272,-104.5 272,-85.5 364,-85.5 364,-104.5"/>
<text text-anchor="middle" x="318" y="-92.5" font-family="Helvetica,sans-Serif" font-size="10.00">func_8008B284</text>
</a>
</g>
</g>
<!-- Node3&#45;&gt;Node11 -->
<g id="edge10_Node000003_Node000011" class="edge">
<title>Node3&#45;&gt;Node11</title>
<g id="a_edge10_Node000003_Node000011"><a xlink:title=" ">
<path fill="none" stroke="#63b8ff" d="M220.32,-107.26C233.39,-105.6 247.79,-103.77 261.4,-102.05"/>
<polygon fill="#63b8ff" stroke="#63b8ff" points="262.14,-105.48 271.62,-100.75 261.26,-98.54 262.14,-105.48"/>
</a>
</g>
</g>
<!-- Node12 -->
<g id="Node000012" class="node">
<title>Node12</title>
<g id="a_Node000012"><a xlink:href="code__80086E70_8c.html#a2b7539ab221190abc7c302a31ca3f678" target="_top" xlink:title=" ">
<polygon fill="white" stroke="#666666" points="364,-67.5 272,-67.5 272,-48.5 364,-48.5 364,-67.5"/>
<text text-anchor="middle" x="318" y="-55.5" font-family="Helvetica,sans-Serif" font-size="10.00">func_8008B3E4</text>
</a>
</g>
</g>
<!-- Node3&#45;&gt;Node12 -->
<g id="edge11_Node000003_Node000012" class="edge">
<title>Node3&#45;&gt;Node12</title>
<g id="a_edge11_Node000003_Node000012"><a xlink:title=" ">
<path fill="none" stroke="#63b8ff" d="M194.7,-103.47C210.94,-95.8 234.69,-85.03 256,-77 261.86,-74.79 268.1,-72.64 274.27,-70.62"/>
<polygon fill="#63b8ff" stroke="#63b8ff" points="275.38,-73.94 283.84,-67.56 273.25,-67.27 275.38,-73.94"/>
</a>
</g>
</g>
<!-- Node15 -->
<g id="Node000015" class="node">
<title>Node15</title>
<g id="a_Node000015"><a xlink:href="code__80071F00_8c.html#a5d62494ea345d5a576d4440772111136" target="_top" xlink:title=" ">
<polygon fill="white" stroke="#666666" points="380,-30 256,-30 256,0 380,0 380,-30"/>
<text text-anchor="start" x="264" y="-18" font-family="Helvetica,sans-Serif" font-size="10.00">is_obj_index_flag_unk</text>
<text text-anchor="middle" x="318" y="-7" font-family="Helvetica,sans-Serif" font-size="10.00">_054_active</text>
</a>
</g>
</g>
<!-- Node3&#45;&gt;Node15 -->
<g id="edge14_Node000003_Node000015" class="edge">
<title>Node3&#45;&gt;Node15</title>
<g id="a_edge14_Node000003_Node000015"><a xlink:title=" ">
<path fill="none" stroke="#63b8ff" d="M183.62,-103.32C197.57,-88.14 226.51,-58.54 256,-40 259.09,-38.06 262.35,-36.21 265.7,-34.47"/>
<polygon fill="#63b8ff" stroke="#63b8ff" points="267.24,-37.61 274.71,-30.1 264.18,-31.32 267.24,-37.61"/>
</a>
</g>
</g>
<!-- Node5 -->
<g id="Node000005" class="node">
<title>Node5</title>
<g id="a_Node000005"><a xlink:href="code__80086E70_8c.html#a2584a23a79ad3d58379e9cf1c3dff043" target="_top" xlink:title=" ">
<polygon fill="white" stroke="#666666" points="525.5,-252.5 430.5,-252.5 430.5,-233.5 525.5,-233.5 525.5,-252.5"/>
<text text-anchor="middle" x="478" y="-240.5" font-family="Helvetica,sans-Serif" font-size="10.00">func_8008ADD0</text>
</a>
</g>
</g>
<!-- Node4&#45;&gt;Node5 -->
<g id="edge4_Node000004_Node000005" class="edge">
<title>Node4&#45;&gt;Node5</title>
<g id="a_edge4_Node000004_Node000005"><a xlink:title=" ">
<path fill="none" stroke="#63b8ff" d="M359.69,-215.53C379.97,-220.28 404.71,-226.07 426.22,-231.11"/>
<polygon fill="#63b8ff" stroke="#63b8ff" points="425.64,-234.57 436.17,-233.44 427.24,-227.75 425.64,-234.57"/>
</a>
</g>
</g>
<!-- Node6 -->
<g id="Node000006" class="node">
<title>Node6</title>
<g id="a_Node000006"><a xlink:href="code__80086E70_8c.html#a3426c647faeb603dbe03d7ac57ccc973" target="_top" xlink:title=" ">
<polygon fill="white" stroke="#666666" points="524,-215.5 432,-215.5 432,-196.5 524,-196.5 524,-215.5"/>
<text text-anchor="middle" x="478" y="-203.5" font-family="Helvetica,sans-Serif" font-size="10.00">func_8008AE9C</text>
</a>
</g>
</g>
<!-- Node4&#45;&gt;Node6 -->
<g id="edge5_Node000004_Node000006" class="edge">
<title>Node4&#45;&gt;Node6</title>
<g id="a_edge5_Node000004_Node000006"><a xlink:title=" ">
<path fill="none" stroke="#63b8ff" d="M364.28,-206C382.2,-206 402.98,-206 421.78,-206"/>
<polygon fill="#63b8ff" stroke="#63b8ff" points="421.99,-209.5 431.99,-206 421.99,-202.5 421.99,-209.5"/>
</a>
</g>
</g>
<!-- Node8 -->
<g id="Node000008" class="node">
<title>Node8</title>
<g id="a_Node000008"><a xlink:href="code__80086E70_8c.html#afbc0c88cb58d43fb16dbc5510c6eb4b3" target="_top" xlink:title=" ">
<polygon fill="white" stroke="#666666" points="524,-178.5 432,-178.5 432,-159.5 524,-159.5 524,-178.5"/>
<text text-anchor="middle" x="478" y="-166.5" font-family="Helvetica,sans-Serif" font-size="10.00">func_8008ACE0</text>
</a>
</g>
</g>
<!-- Node7&#45;&gt;Node8 -->
<g id="edge7_Node000007_Node000008" class="edge">
<title>Node7&#45;&gt;Node8</title>
<g id="a_edge7_Node000007_Node000008"><a xlink:title=" ">
<path fill="none" stroke="#63b8ff" d="M364.28,-169C382.2,-169 402.98,-169 421.78,-169"/>
<polygon fill="#63b8ff" stroke="#63b8ff" points="421.99,-172.5 431.99,-169 421.99,-165.5 421.99,-172.5"/>
</a>
</g>
</g>
<!-- Node9 -->
<g id="Node000009" class="node">
<title>Node9</title>
<g id="a_Node000009"><a xlink:href="code__80086E70_8c.html#af7a307c1a5c33e6cdb535c02ca4f356b" target="_top" xlink:title=" ">
<polygon fill="white" stroke="#666666" points="524,-141.5 432,-141.5 432,-122.5 524,-122.5 524,-141.5"/>
<text text-anchor="middle" x="478" y="-129.5" font-family="Helvetica,sans-Serif" font-size="10.00">func_8008B038</text>
</a>
</g>
</g>
<!-- Node7&#45;&gt;Node9 -->
<g id="edge8_Node000007_Node000009" class="edge">
<title>Node7&#45;&gt;Node9</title>
<g id="a_edge8_Node000007_Node000009"><a xlink:title=" ">
<path fill="none" stroke="#63b8ff" d="M359.69,-159.47C379.97,-154.72 404.71,-148.93 426.22,-143.89"/>
<polygon fill="#63b8ff" stroke="#63b8ff" points="427.24,-147.25 436.17,-141.56 425.64,-140.43 427.24,-147.25"/>
</a>
</g>
</g>
<!-- Node13 -->
<g id="Node000013" class="node">
<title>Node13</title>
<g id="a_Node000013"><a xlink:href="code__80071F00_8c.html#ae2e10a969a280fa69bd2db004aa5ae3b" target="_top" xlink:title=" ">
<polygon fill="white" stroke="#666666" points="540,-89 416,-89 416,-59 540,-59 540,-89"/>
<text text-anchor="start" x="424" y="-77" font-family="Helvetica,sans-Serif" font-size="10.00">is_obj_index_flag_unk</text>
<text text-anchor="middle" x="478" y="-66" font-family="Helvetica,sans-Serif" font-size="10.00">_054_inactive</text>
</a>
</g>
</g>
<!-- Node12&#45;&gt;Node13 -->
<g id="edge12_Node000012_Node000013" class="edge">
<title>Node12&#45;&gt;Node13</title>
<g id="a_edge12_Node000012_Node000013"><a xlink:title=" ">
<path fill="none" stroke="#63b8ff" d="M364.28,-62.58C377.19,-63.89 391.59,-65.35 405.65,-66.78"/>
<polygon fill="#63b8ff" stroke="#63b8ff" points="405.51,-70.28 415.81,-67.8 406.22,-63.31 405.51,-70.28"/>
</a>
</g>
</g>
<!-- Node14 -->
<g id="Node000014" class="node">
<title>Node14</title>
<g id="a_Node000014"><a xlink:href="code__80071F00_8c.html#a946b33c1ed166b19b04e4528c3641b9a" target="_top" xlink:title=" ">
<polygon fill="white" stroke="#666666" points="534.5,-41 421.5,-41 421.5,-11 534.5,-11 534.5,-41"/>
<text text-anchor="start" x="429.5" y="-29" font-family="Helvetica,sans-Serif" font-size="10.00">set_object_flag_unk</text>
<text text-anchor="middle" x="478" y="-18" font-family="Helvetica,sans-Serif" font-size="10.00">_054_true</text>
</a>
</g>
</g>
<!-- Node12&#45;&gt;Node14 -->
<g id="edge13_Node000012_Node000014" class="edge">
<title>Node12&#45;&gt;Node14</title>
<g id="a_edge13_Node000012_Node000014"><a xlink:title=" ">
<path fill="none" stroke="#63b8ff" d="M364.28,-48.83C378.86,-45.88 395.34,-42.54 411.1,-39.35"/>
<polygon fill="#63b8ff" stroke="#63b8ff" points="412.22,-42.69 421.32,-37.28 410.83,-35.83 412.22,-42.69"/>
</a>
</g>
</g>
</g>
</svg>
