<?xml version="1.0" encoding="UTF-8" standalone="no"?>
<!DOCTYPE svg PUBLIC "-//W3C//DTD SVG 1.1//EN"
 "http://www.w3.org/Graphics/SVG/1.1/DTD/svg11.dtd">
<!-- Generated by graphviz version 2.43.0 (0)
 -->
<!-- Title: func_8009D77C Pages: 1 -->
<svg width="626pt" height="286pt"
 viewBox="0.00 0.00 626.00 286.00" xmlns="http://www.w3.org/2000/svg" xmlns:xlink="http://www.w3.org/1999/xlink">
<g id="graph0" class="graph" transform="scale(1 1) rotate(0) translate(4 282)">
<title>func_8009D77C</title>
<!-- Node1 -->
<g id="Node000001" class="node">
<title>Node1</title>
<g id="a_Node000001"><a xlink:title=" ">
<polygon fill="#999999" stroke="#666666" points="93,-166 0,-166 0,-147 93,-147 93,-166"/>
<text text-anchor="middle" x="46.5" y="-154" font-family="Helvetica,sans-Serif" font-size="10.00">func_8009D77C</text>
</a>
</g>
</g>
<!-- Node2 -->
<g id="Node000002" class="node">
<title>Node2</title>
<g id="a_Node000002"><a xlink:href="code__80091750_8c.html#a69d3c27f64f73ce88101239bfdd0d901" target="_top" xlink:title=" ">
<polygon fill="white" stroke="#666666" points="207,-231 143,-231 143,-212 207,-212 207,-231"/>
<text text-anchor="middle" x="175" y="-219" font-family="Helvetica,sans-Serif" font-size="10.00">draw_box</text>
</a>
</g>
</g>
<!-- Node1&#45;&gt;Node2 -->
<g id="edge1_Node000001_Node000002" class="edge">
<title>Node1&#45;&gt;Node2</title>
<g id="a_edge1_Node000001_Node000002"><a xlink:title=" ">
<path fill="none" stroke="#63b8ff" d="M66.17,-166.09C87.28,-176.94 121.88,-194.72 146.18,-207.21"/>
<polygon fill="#63b8ff" stroke="#63b8ff" points="144.76,-210.41 155.26,-211.87 147.96,-204.19 144.76,-210.41"/>
</a>
</g>
</g>
<!-- Node4 -->
<g id="Node000004" class="node">
<title>Node4</title>
<g id="a_Node000004"><a xlink:href="code__80091750_8c.html#a56cfa922219f124d2b12c0f0f7e3cd9f" target="_top" xlink:title=" ">
<polygon fill="white" stroke="#666666" points="221,-148 129,-148 129,-129 221,-129 221,-148"/>
<text text-anchor="middle" x="175" y="-136" font-family="Helvetica,sans-Serif" font-size="10.00">func_8009CE64</text>
</a>
</g>
</g>
<!-- Node1&#45;&gt;Node4 -->
<g id="edge3_Node000001_Node000004" class="edge">
<title>Node1&#45;&gt;Node4</title>
<g id="a_edge3_Node000001_Node000004"><a xlink:title=" ">
<path fill="none" stroke="#63b8ff" d="M93.17,-150C101.51,-148.81 110.3,-147.56 118.88,-146.34"/>
<polygon fill="#63b8ff" stroke="#63b8ff" points="119.41,-149.8 128.82,-144.93 118.43,-142.87 119.41,-149.8"/>
</a>
</g>
</g>
<!-- Node3 -->
<g id="Node000003" class="node">
<title>Node3</title>
<g id="a_Node000003"><a xlink:href="code__80091750_8c.html#a2341569d8bfc9b8aac7d5dab7933c999" target="_top" xlink:title=" ">
<polygon fill="white" stroke="#666666" points="357,-278 277,-278 277,-259 357,-259 357,-278"/>
<text text-anchor="middle" x="317" y="-266" font-family="Helvetica,sans-Serif" font-size="10.00">swap_values</text>
</a>
</g>
</g>
<!-- Node2&#45;&gt;Node3 -->
<g id="edge2_Node000002_Node000003" class="edge">
<title>Node2&#45;&gt;Node3</title>
<g id="a_edge2_Node000002_Node000003"><a xlink:title=" ">
<path fill="none" stroke="#63b8ff" d="M201.79,-231.09C217.65,-236.9 238.43,-244.35 257,-250.5 262.54,-252.33 268.39,-254.2 274.17,-256.01"/>
<polygon fill="#63b8ff" stroke="#63b8ff" points="273.17,-259.36 283.76,-258.97 275.24,-252.67 273.17,-259.36"/>
</a>
</g>
</g>
<!-- Node5 -->
<g id="Node000005" class="node">
<title>Node5</title>
<g id="a_Node000005"><a xlink:href="code__80091750_8c.html#a3d60e52f9fd4e679e74322f0904920b8" target="_top" xlink:title=" ">
<polygon fill="white" stroke="#666666" points="377,-241 257,-241 257,-222 377,-222 377,-241"/>
<text text-anchor="middle" x="317" y="-229" font-family="Helvetica,sans-Serif" font-size="10.00">find_8018D9E0_entry</text>
</a>
</g>
</g>
<!-- Node4&#45;&gt;Node5 -->
<g id="edge4_Node000004_Node000005" class="edge">
<title>Node4&#45;&gt;Node5</title>
<g id="a_edge4_Node000004_Node000005"><a xlink:title=" ">
<path fill="none" stroke="#63b8ff" d="M183.71,-148.02C197.03,-163.86 225.93,-195.64 257,-213.5 260.02,-215.23 263.22,-216.82 266.51,-218.26"/>
<polygon fill="#63b8ff" stroke="#63b8ff" points="265.35,-221.56 275.94,-221.97 267.91,-215.05 265.35,-221.56"/>
</a>
</g>
</g>
<!-- Node6 -->
<g id="Node000006" class="node">
<title>Node6</title>
<g id="a_Node000006"><a xlink:href="code__80005FD0_8c.html#a7fc44af1268e58cc195aeab08726c3cd" target="_top" xlink:title=" ">
<polygon fill="white" stroke="#666666" points="362.5,-204 271.5,-204 271.5,-185 362.5,-185 362.5,-204"/>
<text text-anchor="middle" x="317" y="-192" font-family="Helvetica,sans-Serif" font-size="10.00">func_8000F124</text>
</a>
</g>
</g>
<!-- Node4&#45;&gt;Node6 -->
<g id="edge5_Node000004_Node000006" class="edge">
<title>Node4&#45;&gt;Node6</title>
<g id="a_edge5_Node000004_Node000006"><a xlink:title=" ">
<path fill="none" stroke="#63b8ff" d="M195.37,-148.12C211.61,-156 235.52,-167.17 257,-175.5 262.53,-177.64 268.41,-179.75 274.23,-181.72"/>
<polygon fill="#63b8ff" stroke="#63b8ff" points="273.32,-185.11 283.92,-184.92 275.52,-178.46 273.32,-185.11"/>
</a>
</g>
</g>
<!-- Node9 -->
<g id="Node000009" class="node">
<title>Node9</title>
<g id="a_Node000009"><a xlink:href="code__80091750_8c.html#a5a8e55be1315ed840571d9a15fb3d25d" target="_top" xlink:title=" ">
<polygon fill="white" stroke="#666666" points="363,-167 271,-167 271,-148 363,-148 363,-167"/>
<text text-anchor="middle" x="317" y="-155" font-family="Helvetica,sans-Serif" font-size="10.00">func_8009CE1C</text>
</a>
</g>
</g>
<!-- Node4&#45;&gt;Node9 -->
<g id="edge8_Node000004_Node000009" class="edge">
<title>Node4&#45;&gt;Node9</title>
<g id="a_edge8_Node000004_Node000009"><a xlink:title=" ">
<path fill="none" stroke="#63b8ff" d="M221.07,-144.62C233.56,-146.31 247.26,-148.17 260.28,-149.94"/>
<polygon fill="#63b8ff" stroke="#63b8ff" points="260.16,-153.45 270.54,-151.33 261.1,-146.52 260.16,-153.45"/>
</a>
</g>
</g>
<!-- Node11 -->
<g id="Node000011" class="node">
<title>Node11</title>
<g id="a_Node000011"><a xlink:href="race__logic_8c.html#a53decb718a29b1c4910cf1f5bada018f" target="_top" xlink:title=" ">
<polygon fill="white" stroke="#666666" points="362.5,-130 271.5,-130 271.5,-111 362.5,-111 362.5,-130"/>
<text text-anchor="middle" x="317" y="-118" font-family="Helvetica,sans-Serif" font-size="10.00">func_80290338</text>
</a>
</g>
</g>
<!-- Node4&#45;&gt;Node11 -->
<g id="edge10_Node000004_Node000011" class="edge">
<title>Node4&#45;&gt;Node11</title>
<g id="a_edge10_Node000004_Node000011"><a xlink:title=" ">
<path fill="none" stroke="#63b8ff" d="M221.07,-132.71C233.93,-131.05 248.09,-129.23 261.46,-127.51"/>
<polygon fill="#63b8ff" stroke="#63b8ff" points="262.02,-130.97 271.5,-126.22 261.13,-124.03 262.02,-130.97"/>
</a>
</g>
</g>
<!-- Node12 -->
<g id="Node000012" class="node">
<title>Node12</title>
<g id="a_Node000012"><a xlink:href="race__logic_8c.html#a356c21937c0221ceae8f34442bb2e820" target="_top" xlink:title=" ">
<polygon fill="white" stroke="#666666" points="362.5,-93 271.5,-93 271.5,-74 362.5,-74 362.5,-93"/>
<text text-anchor="middle" x="317" y="-81" font-family="Helvetica,sans-Serif" font-size="10.00">func_80290360</text>
</a>
</g>
</g>
<!-- Node4&#45;&gt;Node12 -->
<g id="edge11_Node000004_Node000012" class="edge">
<title>Node4&#45;&gt;Node12</title>
<g id="a_edge11_Node000004_Node000012"><a xlink:title=" ">
<path fill="none" stroke="#63b8ff" d="M195.01,-128.95C211.23,-121.01 235.32,-109.72 257,-101.5 261.88,-99.65 267.04,-97.85 272.2,-96.15"/>
<polygon fill="#63b8ff" stroke="#63b8ff" points="273.58,-99.39 282.04,-93.02 271.45,-92.72 273.58,-99.39"/>
</a>
</g>
</g>
<!-- Node13 -->
<g id="Node000013" class="node">
<title>Node13</title>
<g id="a_Node000013"><a xlink:href="race__logic_8c.html#ab653b6e6bb04ca0f7995cb58cbeba9af" target="_top" xlink:title=" ">
<polygon fill="white" stroke="#666666" points="362.5,-56 271.5,-56 271.5,-37 362.5,-37 362.5,-56"/>
<text text-anchor="middle" x="317" y="-44" font-family="Helvetica,sans-Serif" font-size="10.00">func_80290388</text>
</a>
</g>
</g>
<!-- Node4&#45;&gt;Node13 -->
<g id="edge12_Node000004_Node000013" class="edge">
<title>Node4&#45;&gt;Node13</title>
<g id="a_edge12_Node000004_Node000013"><a xlink:title=" ">
<path fill="none" stroke="#63b8ff" d="M183.95,-128.86C197.41,-113.16 226.22,-82.05 257,-64.5 260.02,-62.78 263.23,-61.2 266.52,-59.76"/>
<polygon fill="#63b8ff" stroke="#63b8ff" points="267.92,-62.97 275.95,-56.07 265.37,-56.46 267.92,-62.97"/>
</a>
</g>
</g>
<!-- Node14 -->
<g id="Node000014" class="node">
<title>Node14</title>
<g id="a_Node000014"><a xlink:href="race__logic_8c.html#af98d49ae0af39ccd86b3a2c269969d3c" target="_top" xlink:title=" ">
<polygon fill="white" stroke="#666666" points="363,-19 271,-19 271,0 363,0 363,-19"/>
<text text-anchor="middle" x="317" y="-7" font-family="Helvetica,sans-Serif" font-size="10.00">func_802903B0</text>
</a>
</g>
</g>
<!-- Node4&#45;&gt;Node14 -->
<g id="edge13_Node000004_Node000014" class="edge">
<title>Node4&#45;&gt;Node14</title>
<g id="a_edge13_Node000004_Node000014"><a xlink:title=" ">
<path fill="none" stroke="#63b8ff" d="M180.35,-128.86C190.55,-107.35 218.12,-55.15 257,-27.5 259.1,-26.01 261.33,-24.63 263.64,-23.37"/>
<polygon fill="#63b8ff" stroke="#63b8ff" points="265.3,-26.46 272.88,-19.05 262.34,-20.12 265.3,-26.46"/>
</a>
</g>
</g>
<!-- Node7 -->
<g id="Node000007" class="node">
<title>Node7</title>
<g id="a_Node000007"><a xlink:href="math__util_8c.html#a151b63b8adf9af7e4054b3b84bd226dc" target="_top" xlink:title=" ">
<polygon fill="white" stroke="#666666" points="495,-204 423,-204 423,-185 495,-185 495,-204"/>
<text text-anchor="middle" x="459" y="-192" font-family="Helvetica,sans-Serif" font-size="10.00">random_int</text>
</a>
</g>
</g>
<!-- Node6&#45;&gt;Node7 -->
<g id="edge6_Node000006_Node000007" class="edge">
<title>Node6&#45;&gt;Node7</title>
<g id="a_edge6_Node000006_Node000007"><a xlink:title=" ">
<path fill="none" stroke="#63b8ff" d="M362.68,-194.5C378.57,-194.5 396.46,-194.5 412.42,-194.5"/>
<polygon fill="#63b8ff" stroke="#63b8ff" points="412.59,-198 422.59,-194.5 412.59,-191 412.59,-198"/>
</a>
</g>
</g>
<!-- Node8 -->
<g id="Node000008" class="node">
<title>Node8</title>
<g id="a_Node000008"><a xlink:href="math__util_8c.html#a062850863585005ad1d0a75d9ff70693" target="_top" xlink:title=" ">
<polygon fill="white" stroke="#666666" points="618,-204 541,-204 541,-185 618,-185 618,-204"/>
<text text-anchor="middle" x="579.5" y="-192" font-family="Helvetica,sans-Serif" font-size="10.00">random_u16</text>
</a>
</g>
</g>
<!-- Node7&#45;&gt;Node8 -->
<g id="edge7_Node000007_Node000008" class="edge">
<title>Node7&#45;&gt;Node8</title>
<g id="a_edge7_Node000007_Node000008"><a xlink:title=" ">
<path fill="none" stroke="#63b8ff" d="M495.23,-194.5C506.31,-194.5 518.74,-194.5 530.55,-194.5"/>
<polygon fill="#63b8ff" stroke="#63b8ff" points="530.72,-198 540.72,-194.5 530.72,-191 530.72,-198"/>
</a>
</g>
</g>
<!-- Node10 -->
<g id="Node000010" class="node">
<title>Node10</title>
<g id="a_Node000010"><a xlink:href="external_8c.html#ac48b7cbfcaa7737f892877ead85e4ba7" target="_top" xlink:title=" ">
<polygon fill="white" stroke="#666666" points="505,-167 413,-167 413,-148 505,-148 505,-167"/>
<text text-anchor="middle" x="459" y="-155" font-family="Helvetica,sans-Serif" font-size="10.00">func_800C3448</text>
</a>
</g>
</g>
<!-- Node9&#45;&gt;Node10 -->
<g id="edge9_Node000009_Node000010" class="edge">
<title>Node9&#45;&gt;Node10</title>
<g id="a_edge9_Node000009_Node000010"><a xlink:title=" ">
<path fill="none" stroke="#63b8ff" d="M363.07,-157.5C375.56,-157.5 389.26,-157.5 402.28,-157.5"/>
<polygon fill="#63b8ff" stroke="#63b8ff" points="402.54,-161 412.54,-157.5 402.54,-154 402.54,-161"/>
</a>
</g>
</g>
</g>
</svg>
