<?xml version="1.0" encoding="UTF-8" standalone="no"?>
<!DOCTYPE svg PUBLIC "-//W3C//DTD SVG 1.1//EN"
 "http://www.w3.org/Graphics/SVG/1.1/DTD/svg11.dtd">
<!-- Generated by graphviz version 2.43.0 (0)
 -->
<!-- Title: func_80078170 Pages: 1 -->
<svg width="895pt" height="459pt"
 viewBox="0.00 0.00 895.00 459.00" xmlns="http://www.w3.org/2000/svg" xmlns:xlink="http://www.w3.org/1999/xlink">
<g id="graph0" class="graph" transform="scale(1 1) rotate(0) translate(4 455)">
<title>func_80078170</title>
<!-- Node1 -->
<g id="Node000001" class="node">
<title>Node1</title>
<g id="a_Node000001"><a xlink:title=" ">
<polygon fill="#999999" stroke="#666666" points="91,-57 0,-57 0,-38 91,-38 91,-57"/>
<text text-anchor="middle" x="45.5" y="-45" font-family="Helvetica,sans-Serif" font-size="10.00">func_80078170</text>
</a>
</g>
</g>
<!-- Node2 -->
<g id="Node000002" class="node">
<title>Node2</title>
<g id="a_Node000002"><a xlink:href="code__80071F00_8c.html#a1f79590ff9aa4440004e2f0aeb1599eb" target="_top" xlink:title=" ">
<polygon fill="white" stroke="#666666" points="220,-39 127,-39 127,-20 220,-20 220,-39"/>
<text text-anchor="middle" x="173.5" y="-27" font-family="Helvetica,sans-Serif" font-size="10.00">func_80077D5C</text>
</a>
</g>
</g>
<!-- Node1&#45;&gt;Node2 -->
<g id="edge1_Node000001_Node000002" class="edge">
<title>Node1&#45;&gt;Node2</title>
<g id="a_edge1_Node000001_Node000002"><a xlink:title=" ">
<path fill="none" stroke="#63b8ff" d="M91.28,-41.1C99.42,-39.94 108.02,-38.71 116.44,-37.51"/>
<polygon fill="#63b8ff" stroke="#63b8ff" points="117.19,-40.94 126.59,-36.06 116.2,-34.01 117.19,-40.94"/>
</a>
</g>
</g>
<!-- Node5 -->
<g id="Node000005" class="node">
<title>Node5</title>
<g id="a_Node000005"><a xlink:href="code__80071F00_8c.html#a8b4c61991cddbf212dac08c2de7d3224" target="_top" xlink:title=" ">
<polygon fill="white" stroke="#666666" points="219.5,-95 127.5,-95 127.5,-76 219.5,-76 219.5,-95"/>
<text text-anchor="middle" x="173.5" y="-83" font-family="Helvetica,sans-Serif" font-size="10.00">func_800780CC</text>
</a>
</g>
</g>
<!-- Node1&#45;&gt;Node5 -->
<g id="edge4_Node000001_Node000005" class="edge">
<title>Node1&#45;&gt;Node5</title>
<g id="a_edge4_Node000001_Node000005"><a xlink:title=" ">
<path fill="none" stroke="#63b8ff" d="M78.3,-57.09C94.26,-61.9 113.81,-67.8 130.95,-72.97"/>
<polygon fill="#63b8ff" stroke="#63b8ff" points="130.13,-76.38 140.72,-75.91 132.15,-69.68 130.13,-76.38"/>
</a>
</g>
</g>
<!-- Node3 -->
<g id="Node000003" class="node">
<title>Node3</title>
<g id="a_Node000003"><a xlink:href="code__80071F00_8c.html#abdebd086b5ff081f83af3d9205f39cd3" target="_top" xlink:title=" ">
<polygon fill="white" stroke="#666666" points="335.5,-19 267.5,-19 267.5,0 335.5,0 335.5,-19"/>
<text text-anchor="middle" x="301.5" y="-7" font-family="Helvetica,sans-Serif" font-size="10.00">init_object</text>
</a>
</g>
</g>
<!-- Node2&#45;&gt;Node3 -->
<g id="edge2_Node000002_Node000003" class="edge">
<title>Node2&#45;&gt;Node3</title>
<g id="a_edge2_Node000002_Node000003"><a xlink:title=" ">
<path fill="none" stroke="#63b8ff" d="M220.35,-22.22C232.32,-20.32 245.19,-18.28 257.03,-16.4"/>
<polygon fill="#63b8ff" stroke="#63b8ff" points="257.8,-19.82 267.13,-14.8 256.7,-12.91 257.8,-19.82"/>
</a>
</g>
</g>
<!-- Node4 -->
<g id="Node000004" class="node">
<title>Node4</title>
<g id="a_Node000004"><a xlink:href="code__80071F00_8c.html#a4b4f00a7df0f9bc44914cd922c3cd51b" target="_top" xlink:title=" ">
<polygon fill="white" stroke="#666666" points="625,-38 510,-38 510,-19 625,-19 625,-38"/>
<text text-anchor="middle" x="567.5" y="-26" font-family="Helvetica,sans-Serif" font-size="10.00">set_object_unk_0CB</text>
</a>
</g>
</g>
<!-- Node3&#45;&gt;Node4 -->
<g id="edge3_Node000003_Node000004" class="edge">
<title>Node3&#45;&gt;Node4</title>
<g id="a_edge3_Node000003_Node000004"><a xlink:title=" ">
<path fill="none" stroke="#63b8ff" d="M335.67,-11.89C376.63,-14.84 447.3,-19.92 499.69,-23.69"/>
<polygon fill="#63b8ff" stroke="#63b8ff" points="499.68,-27.2 509.9,-24.43 500.18,-20.22 499.68,-27.2"/>
</a>
</g>
</g>
<!-- Node6 -->
<g id="Node000006" class="node">
<title>Node6</title>
<g id="a_Node000006"><a xlink:href="code__80071F00_8c.html#a5978ef1e35515c275f92eb79b8601d77" target="_top" xlink:title=" ">
<polygon fill="white" stroke="#666666" points="474,-57 383,-57 383,-38 474,-38 474,-57"/>
<text text-anchor="middle" x="428.5" y="-45" font-family="Helvetica,sans-Serif" font-size="10.00">func_80072428</text>
</a>
</g>
</g>
<!-- Node5&#45;&gt;Node6 -->
<g id="edge5_Node000005_Node000006" class="edge">
<title>Node5&#45;&gt;Node6</title>
<g id="a_edge5_Node000005_Node000006"><a xlink:title=" ">
<path fill="none" stroke="#63b8ff" d="M219.73,-78.71C262.54,-72.28 326.89,-62.61 372.62,-55.74"/>
<polygon fill="#63b8ff" stroke="#63b8ff" points="373.29,-59.18 382.66,-54.23 372.25,-52.26 373.29,-59.18"/>
</a>
</g>
</g>
<!-- Node9 -->
<g id="Node000009" class="node">
<title>Node9</title>
<g id="a_Node000009"><a xlink:href="code__80071F00_8c.html#a91e6ccbfa10d972106998ad26b271c17" target="_top" xlink:title=" ">
<polygon fill="white" stroke="#666666" points="474,-95 383,-95 383,-76 474,-76 474,-95"/>
<text text-anchor="middle" x="428.5" y="-83" font-family="Helvetica,sans-Serif" font-size="10.00">func_80072488</text>
</a>
</g>
</g>
<!-- Node5&#45;&gt;Node9 -->
<g id="edge9_Node000005_Node000009" class="edge">
<title>Node5&#45;&gt;Node9</title>
<g id="a_edge9_Node000005_Node000009"><a xlink:title=" ">
<path fill="none" stroke="#63b8ff" d="M219.73,-85.5C262.54,-85.5 326.89,-85.5 372.62,-85.5"/>
<polygon fill="#63b8ff" stroke="#63b8ff" points="372.66,-89 382.66,-85.5 372.66,-82 372.66,-89"/>
</a>
</g>
</g>
<!-- Node10 -->
<g id="Node000010" class="node">
<title>Node10</title>
<g id="a_Node000010"><a xlink:href="code__80071F00_8c.html#aec77d54c5edbca021bb2c01c31af955a" target="_top" xlink:title=" ">
<polygon fill="white" stroke="#666666" points="347,-133 256,-133 256,-114 347,-114 347,-133"/>
<text text-anchor="middle" x="301.5" y="-121" font-family="Helvetica,sans-Serif" font-size="10.00">func_80077E20</text>
</a>
</g>
</g>
<!-- Node5&#45;&gt;Node10 -->
<g id="edge12_Node000005_Node000010" class="edge">
<title>Node5&#45;&gt;Node10</title>
<g id="a_edge12_Node000005_Node000010"><a xlink:title=" ">
<path fill="none" stroke="#63b8ff" d="M206.3,-95.09C222.26,-99.9 241.81,-105.8 258.95,-110.97"/>
<polygon fill="#63b8ff" stroke="#63b8ff" points="258.13,-114.38 268.72,-113.91 260.15,-107.68 258.13,-114.38"/>
</a>
</g>
</g>
<!-- Node14 -->
<g id="Node000014" class="node">
<title>Node14</title>
<g id="a_Node000014"><a xlink:href="code__80071F00_8c.html#a4e85b61ec3cf15a6827d0d67c2f07b1e" target="_top" xlink:title=" ">
<polygon fill="white" stroke="#666666" points="474,-301 383,-301 383,-282 474,-282 474,-301"/>
<text text-anchor="middle" x="428.5" y="-289" font-family="Helvetica,sans-Serif" font-size="10.00">func_80077F64</text>
</a>
</g>
</g>
<!-- Node5&#45;&gt;Node14 -->
<g id="edge18_Node000005_Node000014" class="edge">
<title>Node5&#45;&gt;Node14</title>
<g id="a_edge18_Node000005_Node000014"><a xlink:title=" ">
<path fill="none" stroke="#63b8ff" d="M186.36,-95.16C226.54,-127.87 357.72,-234.69 407.82,-275.47"/>
<polygon fill="#63b8ff" stroke="#63b8ff" points="405.7,-278.26 415.66,-281.86 410.12,-272.83 405.7,-278.26"/>
</a>
</g>
</g>
<!-- Node6&#45;&gt;Node4 -->
<g id="edge8_Node000006_Node000004" class="edge">
<title>Node6&#45;&gt;Node4</title>
<g id="a_edge8_Node000006_Node000004"><a xlink:title=" ">
<path fill="none" stroke="#63b8ff" d="M474.36,-41.28C482.44,-40.16 491.01,-38.97 499.56,-37.78"/>
<polygon fill="#63b8ff" stroke="#63b8ff" points="500.12,-41.24 509.54,-36.4 499.15,-34.31 500.12,-41.24"/>
</a>
</g>
</g>
<!-- Node7 -->
<g id="Node000007" class="node">
<title>Node7</title>
<g id="a_Node000007"><a xlink:href="code__80086E70_8c.html#acd186a6f592769b3e3db3da72fcf765f" target="_top" xlink:title=" ">
<polygon fill="white" stroke="#666666" points="613,-151 522,-151 522,-132 613,-132 613,-151"/>
<text text-anchor="middle" x="567.5" y="-139" font-family="Helvetica,sans-Serif" font-size="10.00">func_80086F60</text>
</a>
</g>
</g>
<!-- Node6&#45;&gt;Node7 -->
<g id="edge6_Node000006_Node000007" class="edge">
<title>Node6&#45;&gt;Node7</title>
<g id="a_edge6_Node000006_Node000007"><a xlink:title=" ">
<path fill="none" stroke="#63b8ff" d="M458.72,-57.01C464.15,-59.56 469.51,-62.71 474,-66.5 496.6,-85.6 486.66,-104.31 510,-122.5 512.41,-124.38 515.02,-126.08 517.75,-127.61"/>
<polygon fill="#63b8ff" stroke="#63b8ff" points="516.24,-130.77 526.76,-131.98 519.29,-124.47 516.24,-130.77"/>
</a>
</g>
</g>
<!-- Node8 -->
<g id="Node000008" class="node">
<title>Node8</title>
<g id="a_Node000008"><a xlink:href="code__80071F00_8c.html#a9d0d6fe8e02dc86bf4f9f8c8214ee326" target="_top" xlink:title=" ">
<polygon fill="white" stroke="#666666" points="774,-156.5 661,-156.5 661,-126.5 774,-126.5 774,-156.5"/>
<text text-anchor="start" x="669" y="-144.5" font-family="Helvetica,sans-Serif" font-size="10.00">set_object_flag_unk</text>
<text text-anchor="middle" x="717.5" y="-133.5" font-family="Helvetica,sans-Serif" font-size="10.00">_054_false</text>
</a>
</g>
</g>
<!-- Node7&#45;&gt;Node8 -->
<g id="edge7_Node000007_Node000008" class="edge">
<title>Node7&#45;&gt;Node8</title>
<g id="a_edge7_Node000007_Node000008"><a xlink:title=" ">
<path fill="none" stroke="#63b8ff" d="M613.31,-141.5C625.12,-141.5 638.12,-141.5 650.79,-141.5"/>
<polygon fill="#63b8ff" stroke="#63b8ff" points="650.85,-145 660.85,-141.5 650.85,-138 650.85,-145"/>
</a>
</g>
</g>
<!-- Node9&#45;&gt;Node4 -->
<g id="edge11_Node000009_Node000004" class="edge">
<title>Node9&#45;&gt;Node4</title>
<g id="a_edge11_Node000009_Node000004"><a xlink:title=" ">
<path fill="none" stroke="#63b8ff" d="M452.43,-75.96C474.76,-66.67 508.9,-52.46 534.02,-42.01"/>
<polygon fill="#63b8ff" stroke="#63b8ff" points="535.61,-45.14 543.49,-38.07 532.92,-38.68 535.61,-45.14"/>
</a>
</g>
</g>
<!-- Node9&#45;&gt;Node8 -->
<g id="edge10_Node000009_Node000008" class="edge">
<title>Node9&#45;&gt;Node8</title>
<g id="a_edge10_Node000009_Node000008"><a xlink:title=" ">
<path fill="none" stroke="#63b8ff" d="M474.31,-78.71C514.55,-74.19 574.85,-71.37 625,-85.5 649.19,-92.31 673.29,-107.5 690.69,-120.34"/>
<polygon fill="#63b8ff" stroke="#63b8ff" points="688.58,-123.14 698.66,-126.41 692.82,-117.57 688.58,-123.14"/>
</a>
</g>
</g>
<!-- Node10&#45;&gt;Node9 -->
<g id="edge13_Node000010_Node000009" class="edge">
<title>Node10&#45;&gt;Node9</title>
<g id="a_edge13_Node000010_Node000009"><a xlink:title=" ">
<path fill="none" stroke="#63b8ff" d="M334.04,-113.91C349.88,-109.1 369.27,-103.2 386.28,-98.03"/>
<polygon fill="#63b8ff" stroke="#63b8ff" points="387.42,-101.34 395.97,-95.09 385.38,-94.65 387.42,-101.34"/>
</a>
</g>
</g>
<!-- Node11 -->
<g id="Node000011" class="node">
<title>Node11</title>
<g id="a_Node000011"><a xlink:href="code__80086E70_8c.html#a79b65858840f21f273d4c8fe80b56fe5" target="_top" xlink:title=" ">
<polygon fill="white" stroke="#666666" points="474,-133 383,-133 383,-114 474,-114 474,-133"/>
<text text-anchor="middle" x="428.5" y="-121" font-family="Helvetica,sans-Serif" font-size="10.00">func_80086EF0</text>
</a>
</g>
</g>
<!-- Node10&#45;&gt;Node11 -->
<g id="edge14_Node000010_Node000011" class="edge">
<title>Node10&#45;&gt;Node11</title>
<g id="a_edge14_Node000010_Node000011"><a xlink:title=" ">
<path fill="none" stroke="#63b8ff" d="M347.27,-123.5C355.44,-123.5 364.05,-123.5 372.47,-123.5"/>
<polygon fill="#63b8ff" stroke="#63b8ff" points="372.62,-127 382.62,-123.5 372.62,-120 372.62,-127"/>
</a>
</g>
</g>
<!-- Node13 -->
<g id="Node000013" class="node">
<title>Node13</title>
<g id="a_Node000013"><a xlink:href="code__80071F00_8c.html#a946b33c1ed166b19b04e4528c3641b9a" target="_top" xlink:title=" ">
<polygon fill="white" stroke="#666666" points="774,-250.5 661,-250.5 661,-220.5 774,-220.5 774,-250.5"/>
<text text-anchor="start" x="669" y="-238.5" font-family="Helvetica,sans-Serif" font-size="10.00">set_object_flag_unk</text>
<text text-anchor="middle" x="717.5" y="-227.5" font-family="Helvetica,sans-Serif" font-size="10.00">_054_true</text>
</a>
</g>
</g>
<!-- Node10&#45;&gt;Node13 -->
<g id="edge17_Node000010_Node000013" class="edge">
<title>Node10&#45;&gt;Node13</title>
<g id="a_edge17_Node000010_Node000013"><a xlink:title=" ">
<path fill="none" stroke="#63b8ff" d="M325.78,-133C363.79,-148.21 441.77,-178.17 510,-196.5 556.45,-208.98 609.82,-218.95 650.67,-225.68"/>
<polygon fill="#63b8ff" stroke="#63b8ff" points="650.34,-229.18 660.77,-227.32 651.46,-222.27 650.34,-229.18"/>
</a>
</g>
</g>
<!-- Node12 -->
<g id="Node000012" class="node">
<title>Node12</title>
<g id="a_Node000012"><a xlink:href="code__80086E70_8c.html#ad844d2fe27c3f0bb5979715fae72559a" target="_top" xlink:title=" ">
<polygon fill="white" stroke="#666666" points="613,-114 522,-114 522,-95 613,-95 613,-114"/>
<text text-anchor="middle" x="567.5" y="-102" font-family="Helvetica,sans-Serif" font-size="10.00">func_80086E70</text>
</a>
</g>
</g>
<!-- Node11&#45;&gt;Node12 -->
<g id="edge15_Node000011_Node000012" class="edge">
<title>Node11&#45;&gt;Node12</title>
<g id="a_edge15_Node000011_Node000012"><a xlink:title=" ">
<path fill="none" stroke="#63b8ff" d="M474.36,-117.28C486.19,-115.64 499.09,-113.85 511.39,-112.14"/>
<polygon fill="#63b8ff" stroke="#63b8ff" points="512.12,-115.58 521.54,-110.74 511.15,-108.64 512.12,-115.58"/>
</a>
</g>
</g>
<!-- Node12&#45;&gt;Node8 -->
<g id="edge16_Node000012_Node000008" class="edge">
<title>Node12&#45;&gt;Node8</title>
<g id="a_edge16_Node000012_Node000008"><a xlink:title=" ">
<path fill="none" stroke="#63b8ff" d="M606.61,-114.03C620.17,-117.42 635.85,-121.34 651.05,-125.14"/>
<polygon fill="#63b8ff" stroke="#63b8ff" points="650.38,-128.58 660.93,-127.61 652.08,-121.79 650.38,-128.58"/>
</a>
</g>
</g>
<!-- Node14&#45;&gt;Node7 -->
<g id="edge22_Node000014_Node000007" class="edge">
<title>Node14&#45;&gt;Node7</title>
<g id="a_edge22_Node000014_Node000007"><a xlink:title=" ">
<path fill="none" stroke="#63b8ff" d="M432.66,-281.92C441.14,-257.69 466.73,-193.49 510,-159.5 511.78,-158.11 513.66,-156.82 515.63,-155.63"/>
<polygon fill="#63b8ff" stroke="#63b8ff" points="517.33,-158.69 524.65,-151.02 514.15,-152.45 517.33,-158.69"/>
</a>
</g>
</g>
<!-- Node15 -->
<g id="Node000015" class="node">
<title>Node15</title>
<g id="a_Node000015"><a xlink:href="code__80071F00_8c.html#ae8cec1ac1de28ceba5a6cd36b7a2e315" target="_top" xlink:title=" ">
<polygon fill="white" stroke="#666666" points="613.5,-264 521.5,-264 521.5,-245 613.5,-245 613.5,-264"/>
<text text-anchor="middle" x="567.5" y="-252" font-family="Helvetica,sans-Serif" font-size="10.00">func_80077EB8</text>
</a>
</g>
</g>
<!-- Node14&#45;&gt;Node15 -->
<g id="edge19_Node000014_Node000015" class="edge">
<title>Node14&#45;&gt;Node15</title>
<g id="a_edge19_Node000014_Node000015"><a xlink:title=" ">
<path fill="none" stroke="#63b8ff" d="M464.78,-281.97C481.91,-277.35 502.69,-271.73 520.99,-266.79"/>
<polygon fill="#63b8ff" stroke="#63b8ff" points="522.12,-270.11 530.86,-264.12 520.3,-263.35 522.12,-270.11"/>
</a>
</g>
</g>
<!-- Node16 -->
<g id="Node000016" class="node">
<title>Node16</title>
<g id="a_Node000016"><a xlink:href="code__80086E70_8c.html#a6eea48094f49bb346ce1170842d955b2" target="_top" xlink:title=" ">
<polygon fill="white" stroke="#666666" points="613.5,-188 521.5,-188 521.5,-169 613.5,-169 613.5,-188"/>
<text text-anchor="middle" x="567.5" y="-176" font-family="Helvetica,sans-Serif" font-size="10.00">func_80086FD4</text>
</a>
</g>
</g>
<!-- Node14&#45;&gt;Node16 -->
<g id="edge23_Node000014_Node000016" class="edge">
<title>Node14&#45;&gt;Node16</title>
<g id="a_edge23_Node000014_Node000016"><a xlink:title=" ">
<path fill="none" stroke="#63b8ff" d="M441.18,-281.87C464.74,-262.43 518.16,-218.37 547.06,-194.54"/>
<polygon fill="#63b8ff" stroke="#63b8ff" points="549.36,-197.17 554.85,-188.11 544.91,-191.77 549.36,-197.17"/>
</a>
</g>
</g>
<!-- Node17 -->
<g id="Node000017" class="node">
<title>Node17</title>
<g id="a_Node000017"><a xlink:href="code__80086E70_8c.html#a7c51fd6f31d9ba0bc2b51acfee9bdcac" target="_top" xlink:title=" ">
<polygon fill="white" stroke="#666666" points="613.5,-451 521.5,-451 521.5,-432 613.5,-432 613.5,-451"/>
<text text-anchor="middle" x="567.5" y="-439" font-family="Helvetica,sans-Serif" font-size="10.00">func_800877C4</text>
</a>
</g>
</g>
<!-- Node14&#45;&gt;Node17 -->
<g id="edge25_Node000014_Node000017" class="edge">
<title>Node14&#45;&gt;Node17</title>
<g id="a_edge25_Node000014_Node000017"><a xlink:title=" ">
<path fill="none" stroke="#63b8ff" d="M432.66,-301.08C441.14,-325.31 466.73,-389.51 510,-423.5 511.78,-424.89 513.66,-426.18 515.63,-427.37"/>
<polygon fill="#63b8ff" stroke="#63b8ff" points="514.15,-430.55 524.65,-431.98 517.33,-424.31 514.15,-430.55"/>
</a>
</g>
</g>
<!-- Node18 -->
<g id="Node000018" class="node">
<title>Node18</title>
<g id="a_Node000018"><a xlink:href="code__80086E70_8c.html#a6bf5303858675c3654da81438d5fae10" target="_top" xlink:title=" ">
<polygon fill="white" stroke="#666666" points="614,-338 521,-338 521,-319 614,-319 614,-338"/>
<text text-anchor="middle" x="567.5" y="-326" font-family="Helvetica,sans-Serif" font-size="10.00">func_8008BAB4</text>
</a>
</g>
</g>
<!-- Node14&#45;&gt;Node18 -->
<g id="edge26_Node000014_Node000018" class="edge">
<title>Node14&#45;&gt;Node18</title>
<g id="a_edge26_Node000014_Node000018"><a xlink:title=" ">
<path fill="none" stroke="#63b8ff" d="M464.78,-301.03C481.91,-305.65 502.69,-311.27 520.99,-316.21"/>
<polygon fill="#63b8ff" stroke="#63b8ff" points="520.3,-319.65 530.86,-318.88 522.12,-312.89 520.3,-319.65"/>
</a>
</g>
</g>
<!-- Node19 -->
<g id="Node000019" class="node">
<title>Node19</title>
<g id="a_Node000019"><a xlink:href="math__util_8c.html#a151b63b8adf9af7e4054b3b84bd226dc" target="_top" xlink:title=" ">
<polygon fill="white" stroke="#666666" points="753.5,-357 681.5,-357 681.5,-338 753.5,-338 753.5,-357"/>
<text text-anchor="middle" x="717.5" y="-345" font-family="Helvetica,sans-Serif" font-size="10.00">random_int</text>
</a>
</g>
</g>
<!-- Node14&#45;&gt;Node19 -->
<g id="edge31_Node000014_Node000019" class="edge">
<title>Node14&#45;&gt;Node19</title>
<g id="a_edge31_Node000014_Node000019"><a xlink:title=" ">
<path fill="none" stroke="#63b8ff" d="M439.31,-301.4C453.46,-314.9 481.08,-338.43 510,-347.5 563.41,-364.25 628.48,-360.57 671.12,-355.15"/>
<polygon fill="#63b8ff" stroke="#63b8ff" points="671.75,-358.59 681.19,-353.78 670.81,-351.66 671.75,-358.59"/>
</a>
</g>
</g>
<!-- Node21 -->
<g id="Node000021" class="node">
<title>Node21</title>
<g id="a_Node000021"><a xlink:href="code__80086E70_8c.html#a3d8c496047c062a0738cc97ce52ca6ef" target="_top" xlink:title=" ">
<polygon fill="white" stroke="#666666" points="613.5,-414 521.5,-414 521.5,-395 613.5,-395 613.5,-414"/>
<text text-anchor="middle" x="567.5" y="-402" font-family="Helvetica,sans-Serif" font-size="10.00">func_8008BF18</text>
</a>
</g>
</g>
<!-- Node14&#45;&gt;Node21 -->
<g id="edge29_Node000014_Node000021" class="edge">
<title>Node14&#45;&gt;Node21</title>
<g id="a_edge29_Node000014_Node000021"><a xlink:title=" ">
<path fill="none" stroke="#63b8ff" d="M435.97,-301.06C448.42,-318.84 477.41,-357.3 510,-380.5 515.54,-384.44 521.83,-387.91 528.15,-390.9"/>
<polygon fill="#63b8ff" stroke="#63b8ff" points="526.79,-394.12 537.35,-394.93 529.6,-387.71 526.79,-394.12"/>
</a>
</g>
</g>
<!-- Node22 -->
<g id="Node000022" class="node">
<title>Node22</title>
<g id="a_Node000022"><a xlink:href="code__80086E70_8c.html#a7549cff0047630ef72437942468b1d35" target="_top" xlink:title=" ">
<polygon fill="white" stroke="#666666" points="613.5,-301 521.5,-301 521.5,-282 613.5,-282 613.5,-301"/>
<text text-anchor="middle" x="567.5" y="-289" font-family="Helvetica,sans-Serif" font-size="10.00">func_8008BFC0</text>
</a>
</g>
</g>
<!-- Node14&#45;&gt;Node22 -->
<g id="edge30_Node000014_Node000022" class="edge">
<title>Node14&#45;&gt;Node22</title>
<g id="a_edge30_Node000014_Node000022"><a xlink:title=" ">
<path fill="none" stroke="#63b8ff" d="M474.36,-291.5C486.06,-291.5 498.82,-291.5 511.01,-291.5"/>
<polygon fill="#63b8ff" stroke="#63b8ff" points="511.07,-295 521.07,-291.5 511.07,-288 511.07,-295"/>
</a>
</g>
</g>
<!-- Node15&#45;&gt;Node8 -->
<g id="edge20_Node000015_Node000008" class="edge">
<title>Node15&#45;&gt;Node8</title>
<g id="a_edge20_Node000015_Node000008"><a xlink:title=" ">
<path fill="none" stroke="#63b8ff" d="M581.12,-244.87C604.73,-226.84 656.12,-187.6 688.35,-162.99"/>
<polygon fill="#63b8ff" stroke="#63b8ff" points="690.68,-165.62 696.5,-156.77 686.43,-160.06 690.68,-165.62"/>
</a>
</g>
</g>
<!-- Node15&#45;&gt;Node13 -->
<g id="edge21_Node000015_Node000013" class="edge">
<title>Node15&#45;&gt;Node13</title>
<g id="a_edge21_Node000015_Node000013"><a xlink:title=" ">
<path fill="none" stroke="#63b8ff" d="M613.71,-248.7C625.45,-247.19 638.33,-245.54 650.89,-243.92"/>
<polygon fill="#63b8ff" stroke="#63b8ff" points="651.39,-247.39 660.86,-242.64 650.5,-240.44 651.39,-247.39"/>
</a>
</g>
</g>
<!-- Node16&#45;&gt;Node8 -->
<g id="edge24_Node000016_Node000008" class="edge">
<title>Node16&#45;&gt;Node8</title>
<g id="a_edge24_Node000016_Node000008"><a xlink:title=" ">
<path fill="none" stroke="#63b8ff" d="M606.61,-168.97C620.17,-165.58 635.85,-161.66 651.05,-157.86"/>
<polygon fill="#63b8ff" stroke="#63b8ff" points="652.08,-161.21 660.93,-155.39 650.38,-154.42 652.08,-161.21"/>
</a>
</g>
</g>
<!-- Node18&#45;&gt;Node19 -->
<g id="edge27_Node000018_Node000019" class="edge">
<title>Node18&#45;&gt;Node19</title>
<g id="a_edge27_Node000018_Node000019"><a xlink:title=" ">
<path fill="none" stroke="#63b8ff" d="M614.11,-334.36C632.23,-336.68 653.02,-339.35 671.12,-341.67"/>
<polygon fill="#63b8ff" stroke="#63b8ff" points="670.78,-345.16 681.14,-342.96 671.67,-338.22 670.78,-345.16"/>
</a>
</g>
</g>
<!-- Node20 -->
<g id="Node000020" class="node">
<title>Node20</title>
<g id="a_Node000020"><a xlink:href="math__util_8c.html#a062850863585005ad1d0a75d9ff70693" target="_top" xlink:title=" ">
<polygon fill="white" stroke="#666666" points="887,-357 810,-357 810,-338 887,-338 887,-357"/>
<text text-anchor="middle" x="848.5" y="-345" font-family="Helvetica,sans-Serif" font-size="10.00">random_u16</text>
</a>
</g>
</g>
<!-- Node19&#45;&gt;Node20 -->
<g id="edge28_Node000019_Node000020" class="edge">
<title>Node19&#45;&gt;Node20</title>
<g id="a_edge28_Node000019_Node000020"><a xlink:title=" ">
<path fill="none" stroke="#63b8ff" d="M753.75,-347.5C767.81,-347.5 784.23,-347.5 799.36,-347.5"/>
<polygon fill="#63b8ff" stroke="#63b8ff" points="799.58,-351 809.58,-347.5 799.58,-344 799.58,-351"/>
</a>
</g>
</g>
</g>
</svg>
