<?xml version="1.0" encoding="UTF-8" standalone="no"?>
<!DOCTYPE svg PUBLIC "-//W3C//DTD SVG 1.1//EN"
 "http://www.w3.org/Graphics/SVG/1.1/DTD/svg11.dtd">
<!-- Generated by graphviz version 2.43.0 (0)
 -->
<!-- Title: func_8007A228 Pages: 1 -->
<svg width="544pt" height="197pt"
 viewBox="0.00 0.00 544.00 197.16" xmlns="http://www.w3.org/2000/svg" xmlns:xlink="http://www.w3.org/1999/xlink">
<g id="graph0" class="graph" transform="scale(1 1) rotate(0) translate(4 193.16)">
<title>func_8007A228</title>
<polygon fill="white" stroke="transparent" points="-4,4 -4,-193.16 540,-193.16 540,4 -4,4"/>
<!-- Node1 -->
<g id="node1" class="node">
<title>Node1</title>
<g id="a_node1"><a xlink:title=" ">
<polygon fill="#bfbfbf" stroke="black" points="0,-76.5 0,-95.5 92,-95.5 92,-76.5 0,-76.5"/>
<text text-anchor="middle" x="46" y="-83.5" font-family="Helvetica,sans-Serif" font-size="10.00">func_8007A228</text>
</a>
</g>
</g>
<!-- Node2 -->
<g id="node2" class="node">
<title>Node2</title>
<g id="a_node2"><a xlink:href="code__80071F00_8c.html#a91e6ccbfa10d972106998ad26b271c17" target="_top" xlink:title=" ">
<polygon fill="white" stroke="black" points="136.5,-152.5 136.5,-171.5 227.5,-171.5 227.5,-152.5 136.5,-152.5"/>
<text text-anchor="middle" x="182" y="-159.5" font-family="Helvetica,sans-Serif" font-size="10.00">func_80072488</text>
</a>
</g>
</g>
<!-- Node1&#45;&gt;Node2 -->
<g id="edge1" class="edge">
<title>Node1&#45;&gt;Node2</title>
<path fill="none" stroke="midnightblue" d="M60.67,-95.65C76.48,-106.6 103.48,-124.67 128,-138 134.59,-141.58 141.81,-145.11 148.75,-148.3"/>
<polygon fill="midnightblue" stroke="midnightblue" points="147.39,-151.53 157.95,-152.43 150.26,-145.14 147.39,-151.53"/>
</g>
<!-- Node3 -->
<g id="node3" class="node">
<title>Node3</title>
<g id="a_node3"><a xlink:href="code__80071F00_8c.html#a9d0d6fe8e02dc86bf4f9f8c8214ee326" target="_top" xlink:title=" ">
<polygon fill="white" stroke="black" points="423,-109 423,-139 536,-139 536,-109 423,-109"/>
<text text-anchor="start" x="431" y="-127" font-family="Helvetica,sans-Serif" font-size="10.00">set_object_flag_unk</text>
<text text-anchor="middle" x="479.5" y="-116" font-family="Helvetica,sans-Serif" font-size="10.00">_054_false</text>
</a>
</g>
</g>
<!-- Node1&#45;&gt;Node3 -->
<g id="edge12" class="edge">
<title>Node1&#45;&gt;Node3</title>
<path fill="none" stroke="midnightblue" d="M81.83,-95.59C96.04,-99.13 112.7,-102.81 128,-105 226.61,-119.13 342.19,-122.96 412.87,-123.88"/>
<polygon fill="midnightblue" stroke="midnightblue" points="412.92,-127.38 422.96,-124 413,-120.39 412.92,-127.38"/>
</g>
<!-- Node5 -->
<g id="node5" class="node">
<title>Node5</title>
<g id="a_node5"><a xlink:href="code__80071F00_8c.html#a494d2eda5e833a373c2f02eae59d972c" target="_top" xlink:title=" ">
<polygon fill="white" stroke="black" points="136.5,-38.5 136.5,-57.5 227.5,-57.5 227.5,-38.5 136.5,-38.5"/>
<text text-anchor="middle" x="182" y="-45.5" font-family="Helvetica,sans-Serif" font-size="10.00">func_800791F0</text>
</a>
</g>
</g>
<!-- Node1&#45;&gt;Node5 -->
<g id="edge4" class="edge">
<title>Node1&#45;&gt;Node5</title>
<path fill="none" stroke="midnightblue" d="M80.81,-76.41C98.03,-71.53 119.16,-65.54 137.57,-60.32"/>
<polygon fill="midnightblue" stroke="midnightblue" points="138.53,-63.68 147.2,-57.59 136.62,-56.95 138.53,-63.68"/>
</g>
<!-- Node9 -->
<g id="node9" class="node">
<title>Node9</title>
<g id="a_node9"><a xlink:href="code__80086E70_8c.html#aeb8eced61a2dde3cfd6375eb96c5d642" target="_top" xlink:title=" ">
<polygon fill="white" stroke="black" points="136.5,-76.5 136.5,-95.5 227.5,-95.5 227.5,-76.5 136.5,-76.5"/>
<text text-anchor="middle" x="182" y="-83.5" font-family="Helvetica,sans-Serif" font-size="10.00">func_80086F10</text>
</a>
</g>
</g>
<!-- Node1&#45;&gt;Node9 -->
<g id="edge8" class="edge">
<title>Node1&#45;&gt;Node9</title>
<path fill="none" stroke="midnightblue" d="M92.37,-86C103.18,-86 114.83,-86 126.02,-86"/>
<polygon fill="midnightblue" stroke="midnightblue" points="126.14,-89.5 136.14,-86 126.14,-82.5 126.14,-89.5"/>
</g>
<!-- Node11 -->
<g id="node11" class="node">
<title>Node11</title>
<g id="a_node11"><a xlink:href="code__80071F00_8c.html#aaac380231c672b17a8fda8b451572c4c" target="_top" xlink:title=" ">
<polygon fill="white" stroke="black" points="128,-0.5 128,-19.5 236,-19.5 236,-0.5 128,-0.5"/>
<text text-anchor="middle" x="182" y="-7.5" font-family="Helvetica,sans-Serif" font-size="10.00">init_texture_object</text>
</a>
</g>
</g>
<!-- Node1&#45;&gt;Node11 -->
<g id="edge11" class="edge">
<title>Node1&#45;&gt;Node11</title>
<path fill="none" stroke="midnightblue" d="M58.43,-76.44C73.57,-64.16 101.44,-42.78 128,-29 131.96,-26.94 136.2,-25.02 140.48,-23.24"/>
<polygon fill="midnightblue" stroke="midnightblue" points="141.81,-26.48 149.86,-19.59 139.27,-19.95 141.81,-26.48"/>
</g>
<!-- Node2&#45;&gt;Node3 -->
<g id="edge2" class="edge">
<title>Node2&#45;&gt;Node3</title>
<path fill="none" stroke="midnightblue" d="M213.02,-171.55C253.38,-182.87 326.98,-198.17 387,-181 411.43,-174.01 435.69,-158.4 453.08,-145.28"/>
<polygon fill="midnightblue" stroke="midnightblue" points="455.3,-147.99 461.04,-139.09 451,-142.47 455.3,-147.99"/>
</g>
<!-- Node4 -->
<g id="node4" class="node">
<title>Node4</title>
<g id="a_node4"><a xlink:href="code__80071F00_8c.html#a4b4f00a7df0f9bc44914cd922c3cd51b" target="_top" xlink:title=" ">
<polygon fill="white" stroke="black" points="272,-152.5 272,-171.5 387,-171.5 387,-152.5 272,-152.5"/>
<text text-anchor="middle" x="329.5" y="-159.5" font-family="Helvetica,sans-Serif" font-size="10.00">set_object_unk_0CB</text>
</a>
</g>
</g>
<!-- Node2&#45;&gt;Node4 -->
<g id="edge3" class="edge">
<title>Node2&#45;&gt;Node4</title>
<path fill="none" stroke="midnightblue" d="M227.84,-162C238.63,-162 250.38,-162 261.92,-162"/>
<polygon fill="midnightblue" stroke="midnightblue" points="261.98,-165.5 271.98,-162 261.98,-158.5 261.98,-165.5"/>
</g>
<!-- Node6 -->
<g id="node6" class="node">
<title>Node6</title>
<g id="a_node6"><a xlink:href="code__80071F00_8c.html#aaece45bd6baf5aaf797c872a6e105604" target="_top" xlink:title=" ">
<polygon fill="white" stroke="black" points="283.5,-38.5 283.5,-57.5 375.5,-57.5 375.5,-38.5 283.5,-38.5"/>
<text text-anchor="middle" x="329.5" y="-45.5" font-family="Helvetica,sans-Serif" font-size="10.00">func_800722CC</text>
</a>
</g>
</g>
<!-- Node5&#45;&gt;Node6 -->
<g id="edge5" class="edge">
<title>Node5&#45;&gt;Node6</title>
<path fill="none" stroke="midnightblue" d="M227.84,-48C242.16,-48 258.17,-48 273.14,-48"/>
<polygon fill="midnightblue" stroke="midnightblue" points="273.3,-51.5 283.3,-48 273.3,-44.5 273.3,-51.5"/>
</g>
<!-- Node7 -->
<g id="node7" class="node">
<title>Node7</title>
<g id="a_node7"><a xlink:href="external_8c.html#a77dd28bb660c9e64fef58443fb7a1f0e" target="_top" xlink:title=" ">
<polygon fill="white" stroke="black" points="283.5,-0.5 283.5,-19.5 375.5,-19.5 375.5,-0.5 283.5,-0.5"/>
<text text-anchor="middle" x="329.5" y="-7.5" font-family="Helvetica,sans-Serif" font-size="10.00">func_800C9018</text>
</a>
</g>
</g>
<!-- Node5&#45;&gt;Node7 -->
<g id="edge6" class="edge">
<title>Node5&#45;&gt;Node7</title>
<path fill="none" stroke="midnightblue" d="M219.72,-38.41C238.66,-33.46 261.96,-27.38 282.13,-22.11"/>
<polygon fill="midnightblue" stroke="midnightblue" points="283.26,-25.43 292.05,-19.52 281.49,-18.66 283.26,-25.43"/>
</g>
<!-- Node8 -->
<g id="node8" class="node">
<title>Node8</title>
<g id="a_node8"><a xlink:href="external_8h.html#a69165d21844ba08a94405ec729d386d4" target="_top" xlink:title=" ">
<polygon fill="white" stroke="black" points="433.5,-0.5 433.5,-19.5 525.5,-19.5 525.5,-0.5 433.5,-0.5"/>
<text text-anchor="middle" x="479.5" y="-7.5" font-family="Helvetica,sans-Serif" font-size="10.00">func_800C5578</text>
</a>
</g>
</g>
<!-- Node7&#45;&gt;Node8 -->
<g id="edge7" class="edge">
<title>Node7&#45;&gt;Node8</title>
<path fill="none" stroke="midnightblue" d="M375.71,-10C390.7,-10 407.56,-10 423.23,-10"/>
<polygon fill="midnightblue" stroke="midnightblue" points="423.31,-13.5 433.31,-10 423.31,-6.5 423.31,-13.5"/>
</g>
<!-- Node10 -->
<g id="node10" class="node">
<title>Node10</title>
<g id="a_node10"><a xlink:href="code__80086E70_8c.html#ad844d2fe27c3f0bb5979715fae72559a" target="_top" xlink:title=" ">
<polygon fill="white" stroke="black" points="284,-76.5 284,-95.5 375,-95.5 375,-76.5 284,-76.5"/>
<text text-anchor="middle" x="329.5" y="-83.5" font-family="Helvetica,sans-Serif" font-size="10.00">func_80086E70</text>
</a>
</g>
</g>
<!-- Node9&#45;&gt;Node10 -->
<g id="edge9" class="edge">
<title>Node9&#45;&gt;Node10</title>
<path fill="none" stroke="midnightblue" d="M227.84,-86C242.29,-86 258.47,-86 273.57,-86"/>
<polygon fill="midnightblue" stroke="midnightblue" points="273.81,-89.5 283.81,-86 273.81,-82.5 273.81,-89.5"/>
</g>
<!-- Node10&#45;&gt;Node3 -->
<g id="edge10" class="edge">
<title>Node10&#45;&gt;Node3</title>
<path fill="none" stroke="midnightblue" d="M367.85,-95.59C381.54,-99.11 397.48,-103.2 412.93,-107.16"/>
<polygon fill="midnightblue" stroke="midnightblue" points="412.42,-110.65 422.98,-109.74 414.16,-103.87 412.42,-110.65"/>
</g>
</g>
</svg>
