<?xml version="1.0" encoding="UTF-8" standalone="no"?>
<!DOCTYPE svg PUBLIC "-//W3C//DTD SVG 1.1//EN"
 "http://www.w3.org/Graphics/SVG/1.1/DTD/svg11.dtd">
<!-- Generated by graphviz version 2.43.0 (0)
 -->
<!-- Title: func_80059D00 Pages: 1 -->
<svg width="529pt" height="1358pt"
 viewBox="0.00 0.00 529.00 1358.00" xmlns="http://www.w3.org/2000/svg" xmlns:xlink="http://www.w3.org/1999/xlink">
<g id="graph0" class="graph" transform="scale(1 1) rotate(0) translate(4 1354)">
<title>func_80059D00</title>
<polygon fill="white" stroke="transparent" points="-4,4 -4,-1354 525,-1354 525,4 -4,4"/>
<!-- Node1 -->
<g id="node1" class="node">
<title>Node1</title>
<g id="a_node1"><a xlink:title=" ">
<polygon fill="#bfbfbf" stroke="black" points="0,-931.5 0,-950.5 92,-950.5 92,-931.5 0,-931.5"/>
<text text-anchor="middle" x="46" y="-938.5" font-family="Helvetica,sans-Serif" font-size="10.00">func_80059D00</text>
</a>
</g>
</g>
<!-- Node2 -->
<g id="node2" class="node">
<title>Node2</title>
<g id="a_node2"><a xlink:href="code__80057C60_8c.html#a3ddea993374238b2d2a8b009ae479f88" target="_top" xlink:title=" ">
<polygon fill="white" stroke="black" points="145,-1197.5 145,-1216.5 236,-1216.5 236,-1197.5 145,-1197.5"/>
<text text-anchor="middle" x="190.5" y="-1204.5" font-family="Helvetica,sans-Serif" font-size="10.00">func_80059820</text>
</a>
</g>
</g>
<!-- Node1&#45;&gt;Node2 -->
<g id="edge1" class="edge">
<title>Node1&#45;&gt;Node2</title>
<path fill="none" stroke="midnightblue" d="M47.17,-950.65C48.35,-987.21 57.52,-1118.72 128,-1188 130.39,-1190.35 133.07,-1192.41 135.93,-1194.22"/>
<polygon fill="midnightblue" stroke="midnightblue" points="134.47,-1197.41 144.96,-1198.91 137.7,-1191.19 134.47,-1197.41"/>
</g>
<!-- Node3 -->
<g id="node3" class="node">
<title>Node3</title>
<g id="a_node3"><a xlink:href="code__80057C60_8c.html#ae344d1674557788ab398ca89c91551d9" target="_top" xlink:title=" ">
<polygon fill="white" stroke="black" points="144.5,-1159.5 144.5,-1178.5 236.5,-1178.5 236.5,-1159.5 144.5,-1159.5"/>
<text text-anchor="middle" x="190.5" y="-1166.5" font-family="Helvetica,sans-Serif" font-size="10.00">func_8005A380</text>
</a>
</g>
</g>
<!-- Node1&#45;&gt;Node3 -->
<g id="edge2" class="edge">
<title>Node1&#45;&gt;Node3</title>
<path fill="none" stroke="midnightblue" d="M47.81,-950.52C51.12,-983.3 66.52,-1092.68 128,-1150 130.18,-1152.04 132.58,-1153.85 135.13,-1155.48"/>
<polygon fill="midnightblue" stroke="midnightblue" points="133.76,-1158.71 144.24,-1160.28 137.02,-1152.52 133.76,-1158.71"/>
</g>
<!-- Node14 -->
<g id="node6" class="node">
<title>Node14</title>
<g id="a_node6"><a xlink:href="code__80057C60_8c.html#a2cfb2838275962a1a830fe471f0f7eff" target="_top" xlink:title=" ">
<polygon fill="white" stroke="black" points="144.5,-1007.5 144.5,-1026.5 236.5,-1026.5 236.5,-1007.5 144.5,-1007.5"/>
<text text-anchor="middle" x="190.5" y="-1014.5" font-family="Helvetica,sans-Serif" font-size="10.00">func_8005A3C0</text>
</a>
</g>
</g>
<!-- Node1&#45;&gt;Node14 -->
<g id="edge5" class="edge">
<title>Node1&#45;&gt;Node14</title>
<path fill="none" stroke="midnightblue" d="M58.08,-950.52C73.06,-962.97 100.99,-984.74 128,-998 132.58,-1000.25 137.49,-1002.3 142.46,-1004.16"/>
<polygon fill="midnightblue" stroke="midnightblue" points="141.43,-1007.5 152.03,-1007.48 143.73,-1000.89 141.43,-1007.5"/>
</g>
<!-- Node18 -->
<g id="node8" class="node">
<title>Node18</title>
<g id="a_node8"><a xlink:href="code__80057C60_8c.html#a3685efdd6eaf1e041e7ca4a1fbb8456b" target="_top" xlink:title=" ">
<polygon fill="white" stroke="black" points="144.5,-969.5 144.5,-988.5 236.5,-988.5 236.5,-969.5 144.5,-969.5"/>
<text text-anchor="middle" x="190.5" y="-976.5" font-family="Helvetica,sans-Serif" font-size="10.00">func_8005A99C</text>
</a>
</g>
</g>
<!-- Node1&#45;&gt;Node18 -->
<g id="edge7" class="edge">
<title>Node1&#45;&gt;Node18</title>
<path fill="none" stroke="midnightblue" d="M82.96,-950.59C101.44,-955.52 124.16,-961.57 143.86,-966.83"/>
<polygon fill="midnightblue" stroke="midnightblue" points="142.99,-970.22 153.55,-969.41 144.79,-963.46 142.99,-970.22"/>
</g>
<!-- Node20 -->
<g id="node10" class="node">
<title>Node20</title>
<g id="a_node10"><a xlink:href="code__80057C60_8c.html#ac7d2072332b0e70b5e5f60abecbbb56c" target="_top" xlink:title=" ">
<polygon fill="white" stroke="black" points="144.5,-1083.5 144.5,-1102.5 236.5,-1102.5 236.5,-1083.5 144.5,-1083.5"/>
<text text-anchor="middle" x="190.5" y="-1090.5" font-family="Helvetica,sans-Serif" font-size="10.00">func_8005B914</text>
</a>
</g>
</g>
<!-- Node1&#45;&gt;Node20 -->
<g id="edge9" class="edge">
<title>Node1&#45;&gt;Node20</title>
<path fill="none" stroke="midnightblue" d="M54.69,-950.76C68.68,-968.35 99.49,-1006.28 128,-1036 141.72,-1050.3 158.25,-1065.52 170.71,-1076.63"/>
<polygon fill="midnightblue" stroke="midnightblue" points="168.43,-1079.29 178.24,-1083.28 173.07,-1074.04 168.43,-1079.29"/>
</g>
<!-- Node29 -->
<g id="node18" class="node">
<title>Node29</title>
<g id="a_node18"><a xlink:href="code__80057C60_8c.html#ad35a7618d6bfabbac583934ec81eaa2a" target="_top" xlink:title=" ">
<polygon fill="white" stroke="black" points="144.5,-931.5 144.5,-950.5 236.5,-950.5 236.5,-931.5 144.5,-931.5"/>
<text text-anchor="middle" x="190.5" y="-938.5" font-family="Helvetica,sans-Serif" font-size="10.00">func_8005C360</text>
</a>
</g>
</g>
<!-- Node1&#45;&gt;Node29 -->
<g id="edge21" class="edge">
<title>Node1&#45;&gt;Node29</title>
<path fill="none" stroke="midnightblue" d="M92.09,-941C105.34,-941 120,-941 133.84,-941"/>
<polygon fill="midnightblue" stroke="midnightblue" points="134.22,-944.5 144.22,-941 134.22,-937.5 134.22,-944.5"/>
</g>
<!-- Node30 -->
<g id="node19" class="node">
<title>Node30</title>
<g id="a_node19"><a xlink:href="code__80057C60_8c.html#a687831cf4cf1c90afe34fe18041e1725" target="_top" xlink:title=" ">
<polygon fill="white" stroke="black" points="144,-1121.5 144,-1140.5 237,-1140.5 237,-1121.5 144,-1121.5"/>
<text text-anchor="middle" x="190.5" y="-1128.5" font-family="Helvetica,sans-Serif" font-size="10.00">func_8005D0FC</text>
</a>
</g>
</g>
<!-- Node1&#45;&gt;Node30 -->
<g id="edge22" class="edge">
<title>Node1&#45;&gt;Node30</title>
<path fill="none" stroke="midnightblue" d="M48.77,-950.79C54.56,-979.88 75.62,-1066.61 128,-1112 130.03,-1113.76 132.23,-1115.36 134.53,-1116.81"/>
<polygon fill="midnightblue" stroke="midnightblue" points="133.4,-1120.17 143.89,-1121.7 136.65,-1113.96 133.4,-1120.17"/>
</g>
<!-- Node39 -->
<g id="node21" class="node">
<title>Node39</title>
<g id="a_node21"><a xlink:href="code__80057C60_8c.html#a70e29203d625213975ed93ed4a2e3bb6" target="_top" xlink:title=" ">
<polygon fill="white" stroke="black" points="144.5,-893.5 144.5,-912.5 236.5,-912.5 236.5,-893.5 144.5,-893.5"/>
<text text-anchor="middle" x="190.5" y="-900.5" font-family="Helvetica,sans-Serif" font-size="10.00">func_8005D1F4</text>
</a>
</g>
</g>
<!-- Node1&#45;&gt;Node39 -->
<g id="edge25" class="edge">
<title>Node1&#45;&gt;Node39</title>
<path fill="none" stroke="midnightblue" d="M82.96,-931.41C101.44,-926.48 124.16,-920.43 143.86,-915.17"/>
<polygon fill="midnightblue" stroke="midnightblue" points="144.79,-918.54 153.55,-912.59 142.99,-911.78 144.79,-918.54"/>
</g>
<!-- Node40 -->
<g id="node22" class="node">
<title>Node40</title>
<g id="a_node22"><a xlink:href="code__80071F00_8c.html#af4fa2f756053d4e6bfe36e378c24a3b6" target="_top" xlink:title=" ">
<polygon fill="white" stroke="black" points="144.5,-855.5 144.5,-874.5 236.5,-874.5 236.5,-855.5 144.5,-855.5"/>
<text text-anchor="middle" x="190.5" y="-862.5" font-family="Helvetica,sans-Serif" font-size="10.00">func_800744CC</text>
</a>
</g>
</g>
<!-- Node1&#45;&gt;Node40 -->
<g id="edge26" class="edge">
<title>Node1&#45;&gt;Node40</title>
<path fill="none" stroke="midnightblue" d="M58.08,-931.48C73.06,-919.03 100.99,-897.26 128,-884 132.58,-881.75 137.49,-879.7 142.46,-877.84"/>
<polygon fill="midnightblue" stroke="midnightblue" points="143.73,-881.11 152.03,-874.52 141.43,-874.5 143.73,-881.11"/>
</g>
<!-- Node49 -->
<g id="node24" class="node">
<title>Node49</title>
<g id="a_node24"><a xlink:href="code__80071F00_8c.html#a65833b533abd5f0cd07d07217d923e07" target="_top" xlink:title=" ">
<polygon fill="white" stroke="black" points="144.5,-817.5 144.5,-836.5 236.5,-836.5 236.5,-817.5 144.5,-817.5"/>
<text text-anchor="middle" x="190.5" y="-824.5" font-family="Helvetica,sans-Serif" font-size="10.00">func_80078C70</text>
</a>
</g>
</g>
<!-- Node1&#45;&gt;Node49 -->
<g id="edge28" class="edge">
<title>Node1&#45;&gt;Node49</title>
<path fill="none" stroke="midnightblue" d="M52.59,-931.35C64.18,-912.2 92.7,-869.24 128,-846 131.12,-843.94 134.48,-842.1 137.96,-840.45"/>
<polygon fill="midnightblue" stroke="midnightblue" points="139.49,-843.6 147.37,-836.51 136.79,-837.14 139.49,-843.6"/>
</g>
<!-- Node72 -->
<g id="node27" class="node">
<title>Node72</title>
<g id="a_node27"><a xlink:href="code__80071F00_8c.html#ade67b778933121155720adcbf8c66b47" target="_top" xlink:title=" ">
<polygon fill="white" stroke="black" points="144.5,-741.5 144.5,-760.5 236.5,-760.5 236.5,-741.5 144.5,-741.5"/>
<text text-anchor="middle" x="190.5" y="-748.5" font-family="Helvetica,sans-Serif" font-size="10.00">func_8007AA44</text>
</a>
</g>
</g>
<!-- Node1&#45;&gt;Node72 -->
<g id="edge31" class="edge">
<title>Node1&#45;&gt;Node72</title>
<path fill="none" stroke="midnightblue" d="M51.68,-931.39C62.99,-908.65 93.44,-850.29 128,-808 140.39,-792.84 156.75,-777.87 169.47,-767.08"/>
<polygon fill="midnightblue" stroke="midnightblue" points="171.78,-769.71 177.23,-760.63 167.31,-764.33 171.78,-769.71"/>
</g>
<!-- Node134 -->
<g id="node32" class="node">
<title>Node134</title>
<g id="a_node32"><a xlink:href="code__80057C60_8c.html#a8f044ee045b3cbcaa18cf1544d36b971" target="_top" xlink:title=" ">
<polygon fill="white" stroke="black" points="128,-692 128,-722 253,-722 253,-692 128,-692"/>
<text text-anchor="start" x="136" y="-710" font-family="Helvetica,sans-Serif" font-size="10.00">randomize_seed_from</text>
<text text-anchor="middle" x="190.5" y="-699" font-family="Helvetica,sans-Serif" font-size="10.00">_controller</text>
</a>
</g>
</g>
<!-- Node1&#45;&gt;Node134 -->
<g id="edge36" class="edge">
<title>Node1&#45;&gt;Node134</title>
<path fill="none" stroke="midnightblue" d="M48.05,-931.22C52.07,-898.52 69.33,-791.64 128,-732 129.42,-730.55 130.94,-729.18 132.54,-727.89"/>
<polygon fill="midnightblue" stroke="midnightblue" points="134.78,-730.6 141.05,-722.06 130.83,-724.83 134.78,-730.6"/>
</g>
<!-- Node135 -->
<g id="node33" class="node">
<title>Node135</title>
<g id="a_node33"><a xlink:href="code__80057C60_8c.html#acf88664f5c370a290d2480d0bef9f1b6" target="_top" xlink:title=" ">
<polygon fill="white" stroke="red" points="155,-323.5 155,-342.5 226,-342.5 226,-323.5 155,-323.5"/>
<text text-anchor="middle" x="190.5" y="-330.5" font-family="Helvetica,sans-Serif" font-size="10.00">update_obj</text>
</a>
</g>
</g>
<!-- Node1&#45;&gt;Node135 -->
<g id="edge37" class="edge">
<title>Node1&#45;&gt;Node135</title>
<path fill="none" stroke="midnightblue" d="M49.24,-931.45C65.26,-863.07 162.56,-447.94 184.92,-352.53"/>
<polygon fill="midnightblue" stroke="midnightblue" points="188.39,-353.06 187.27,-342.53 181.58,-351.47 188.39,-353.06"/>
</g>
<!-- Node4 -->
<g id="node4" class="node">
<title>Node4</title>
<g id="a_node4"><a xlink:href="code__80057C60_8c.html#ae63e5109911965ae4a90fbf6de218da5" target="_top" xlink:title=" ">
<polygon fill="white" stroke="red" points="289.5,-1330.5 289.5,-1349.5 381.5,-1349.5 381.5,-1330.5 289.5,-1330.5"/>
<text text-anchor="middle" x="335.5" y="-1337.5" font-family="Helvetica,sans-Serif" font-size="10.00">func_8005A14C</text>
</a>
</g>
</g>
<!-- Node3&#45;&gt;Node4 -->
<g id="edge3" class="edge">
<title>Node3&#45;&gt;Node4</title>
<path fill="none" stroke="midnightblue" d="M236.57,-1177.01C242.69,-1179.69 248.42,-1183.26 253,-1188 295.53,-1232.06 248.63,-1274.95 289,-1321 290.16,-1322.33 291.44,-1323.56 292.79,-1324.72"/>
<polygon fill="midnightblue" stroke="midnightblue" points="291.03,-1327.75 301.28,-1330.43 294.94,-1321.95 291.03,-1327.75"/>
</g>
<!-- Node5 -->
<g id="node5" class="node">
<title>Node5</title>
<g id="a_node5"><a xlink:href="math__util__2_8c.html#a1f3982f853bea1b49c3733f209dbb903" target="_top" xlink:title=" ">
<polygon fill="white" stroke="black" points="418,-1273.5 418,-1292.5 521,-1292.5 521,-1273.5 418,-1273.5"/>
<text text-anchor="middle" x="469.5" y="-1280.5" font-family="Helvetica,sans-Serif" font-size="10.00">f32_step_towards</text>
</a>
</g>
</g>
<!-- Node4&#45;&gt;Node5 -->
<g id="edge4" class="edge">
<title>Node4&#45;&gt;Node5</title>
<path fill="none" stroke="midnightblue" d="M359.68,-1330.42C366.85,-1327.43 374.76,-1324.1 382,-1321 400.53,-1313.06 421.2,-1303.99 437.69,-1296.7"/>
<polygon fill="midnightblue" stroke="midnightblue" points="439.14,-1299.89 446.86,-1292.64 436.3,-1293.49 439.14,-1299.89"/>
</g>
<!-- Node15 -->
<g id="node7" class="node">
<title>Node15</title>
<g id="a_node7"><a xlink:href="code__8006E9C0_8c.html#a29fb6001891ade9e060f510c2b9bb90a" target="_top" xlink:title=" ">
<polygon fill="white" stroke="red" points="290,-950.5 290,-969.5 381,-969.5 381,-950.5 290,-950.5"/>
<text text-anchor="middle" x="335.5" y="-957.5" font-family="Helvetica,sans-Serif" font-size="10.00">func_8006F824</text>
</a>
</g>
</g>
<!-- Node14&#45;&gt;Node15 -->
<g id="edge6" class="edge">
<title>Node14&#45;&gt;Node15</title>
<path fill="none" stroke="midnightblue" d="M226.38,-1007.46C235.18,-1004.72 244.53,-1001.51 253,-998 269.71,-991.08 272.64,-986.72 289,-979 292.83,-977.19 296.88,-975.37 300.93,-973.62"/>
<polygon fill="midnightblue" stroke="midnightblue" points="302.4,-976.79 310.24,-969.66 299.66,-970.35 302.4,-976.79"/>
</g>
<!-- Node19 -->
<g id="node9" class="node">
<title>Node19</title>
<g id="a_node9"><a xlink:href="code__80057C60_8c.html#a7dce9e777c9b25e00463709d96c12786" target="_top" xlink:title=" ">
<polygon fill="white" stroke="black" points="289.5,-912.5 289.5,-931.5 381.5,-931.5 381.5,-912.5 289.5,-912.5"/>
<text text-anchor="middle" x="335.5" y="-919.5" font-family="Helvetica,sans-Serif" font-size="10.00">func_8005AA34</text>
</a>
</g>
</g>
<!-- Node18&#45;&gt;Node19 -->
<g id="edge8" class="edge">
<title>Node18&#45;&gt;Node19</title>
<path fill="none" stroke="midnightblue" d="M226.38,-969.46C235.18,-966.72 244.53,-963.51 253,-960 269.71,-953.08 272.64,-948.72 289,-941 292.83,-939.19 296.88,-937.37 300.93,-935.62"/>
<polygon fill="midnightblue" stroke="midnightblue" points="302.4,-938.79 310.24,-931.66 299.66,-932.35 302.4,-938.79"/>
</g>
<!-- Node20&#45;&gt;Node5 -->
<g id="edge10" class="edge">
<title>Node20&#45;&gt;Node5</title>
<path fill="none" stroke="midnightblue" d="M236.57,-1101.01C242.69,-1103.69 248.42,-1107.26 253,-1112 295.53,-1156.06 244.51,-1202.92 289,-1245 306,-1261.08 362.59,-1271.21 407.74,-1276.94"/>
<polygon fill="midnightblue" stroke="midnightblue" points="407.41,-1280.42 417.76,-1278.16 408.26,-1273.47 407.41,-1280.42"/>
</g>
<!-- Node21 -->
<g id="node11" class="node">
<title>Node21</title>
<g id="a_node11"><a xlink:href="code__80057C60_8c.html#ad645b10d750d5debb510d7c309c74565" target="_top" xlink:title=" ">
<polygon fill="white" stroke="black" points="423,-1140.5 423,-1159.5 516,-1159.5 516,-1140.5 423,-1140.5"/>
<text text-anchor="middle" x="469.5" y="-1147.5" font-family="Helvetica,sans-Serif" font-size="10.00">func_8005AA4C</text>
</a>
</g>
</g>
<!-- Node20&#45;&gt;Node21 -->
<g id="edge11" class="edge">
<title>Node20&#45;&gt;Node21</title>
<path fill="none" stroke="midnightblue" d="M236.04,-1102.57C242.09,-1105.04 247.94,-1108.13 253,-1112 276.79,-1130.22 262.76,-1154.54 289,-1169 336.11,-1194.97 400.75,-1177.57 438.23,-1163.28"/>
<polygon fill="midnightblue" stroke="midnightblue" points="439.59,-1166.51 447.59,-1159.56 437.01,-1160 439.59,-1166.51"/>
</g>
<!-- Node22 -->
<g id="node12" class="node">
<title>Node22</title>
<g id="a_node12"><a xlink:href="code__80057C60_8c.html#ac0da3ee21ce0af10594fcf31552570c6" target="_top" xlink:title=" ">
<polygon fill="white" stroke="black" points="289,-1064.5 289,-1083.5 382,-1083.5 382,-1064.5 289,-1064.5"/>
<text text-anchor="middle" x="335.5" y="-1071.5" font-family="Helvetica,sans-Serif" font-size="10.00">func_8005AA6C</text>
</a>
</g>
</g>
<!-- Node20&#45;&gt;Node22 -->
<g id="edge12" class="edge">
<title>Node20&#45;&gt;Node22</title>
<path fill="none" stroke="midnightblue" d="M236.75,-1086.99C250.05,-1085.22 264.75,-1083.27 278.64,-1081.42"/>
<polygon fill="midnightblue" stroke="midnightblue" points="279.11,-1084.89 288.57,-1080.1 278.19,-1077.95 279.11,-1084.89"/>
</g>
<!-- Node23 -->
<g id="node13" class="node">
<title>Node23</title>
<g id="a_node13"><a xlink:href="code__80057C60_8c.html#ad5a898bfa1ca0eff0f7f4f836fdf2299" target="_top" xlink:title=" ">
<polygon fill="white" stroke="black" points="289.5,-1026.5 289.5,-1045.5 381.5,-1045.5 381.5,-1026.5 289.5,-1026.5"/>
<text text-anchor="middle" x="335.5" y="-1033.5" font-family="Helvetica,sans-Serif" font-size="10.00">func_8005AA80</text>
</a>
</g>
</g>
<!-- Node20&#45;&gt;Node23 -->
<g id="edge13" class="edge">
<title>Node20&#45;&gt;Node23</title>
<path fill="none" stroke="midnightblue" d="M215.43,-1083.46C238.84,-1074.13 274.69,-1059.84 300.94,-1049.38"/>
<polygon fill="midnightblue" stroke="midnightblue" points="302.49,-1052.53 310.49,-1045.57 299.9,-1046.02 302.49,-1052.53"/>
</g>
<!-- Node24 -->
<g id="node14" class="node">
<title>Node24</title>
<g id="a_node14"><a xlink:href="code__80057C60_8c.html#a09166dfe40fd134c26f86630266ab4f7" target="_top" xlink:title=" ">
<polygon fill="white" stroke="black" points="289.5,-1140.5 289.5,-1159.5 381.5,-1159.5 381.5,-1140.5 289.5,-1140.5"/>
<text text-anchor="middle" x="335.5" y="-1147.5" font-family="Helvetica,sans-Serif" font-size="10.00">func_8005AA94</text>
</a>
</g>
</g>
<!-- Node20&#45;&gt;Node24 -->
<g id="edge14" class="edge">
<title>Node20&#45;&gt;Node24</title>
<path fill="none" stroke="midnightblue" d="M226.38,-1102.54C235.18,-1105.28 244.53,-1108.49 253,-1112 269.71,-1118.92 272.64,-1123.28 289,-1131 292.83,-1132.81 296.88,-1134.63 300.93,-1136.38"/>
<polygon fill="midnightblue" stroke="midnightblue" points="299.66,-1139.65 310.24,-1140.34 302.4,-1133.21 299.66,-1139.65"/>
</g>
<!-- Node25 -->
<g id="node15" class="node">
<title>Node25</title>
<g id="a_node15"><a xlink:href="code__80057C60_8c.html#aa9608aa6416460f0ca3152af16e25d5c" target="_top" xlink:title=" ">
<polygon fill="white" stroke="black" points="289.5,-1102.5 289.5,-1121.5 381.5,-1121.5 381.5,-1102.5 289.5,-1102.5"/>
<text text-anchor="middle" x="335.5" y="-1109.5" font-family="Helvetica,sans-Serif" font-size="10.00">func_8005AAF0</text>
</a>
</g>
</g>
<!-- Node20&#45;&gt;Node25 -->
<g id="edge16" class="edge">
<title>Node20&#45;&gt;Node25</title>
<path fill="none" stroke="midnightblue" d="M236.75,-1099.01C250.18,-1100.8 265.05,-1102.77 279.05,-1104.63"/>
<polygon fill="midnightblue" stroke="midnightblue" points="278.68,-1108.11 289.06,-1105.96 279.61,-1101.18 278.68,-1108.11"/>
</g>
<!-- Node26 -->
<g id="node16" class="node">
<title>Node26</title>
<g id="a_node16"><a xlink:href="code__80057C60_8c.html#a4a52b93860f08383ab2a29e0f33cca8b" target="_top" xlink:title=" ">
<polygon fill="white" stroke="red" points="289.5,-988.5 289.5,-1007.5 381.5,-1007.5 381.5,-988.5 289.5,-988.5"/>
<text text-anchor="middle" x="335.5" y="-995.5" font-family="Helvetica,sans-Serif" font-size="10.00">func_8005AB60</text>
</a>
</g>
</g>
<!-- Node20&#45;&gt;Node26 -->
<g id="edge18" class="edge">
<title>Node20&#45;&gt;Node26</title>
<path fill="none" stroke="midnightblue" d="M201.93,-1083.33C219.07,-1067.8 254.72,-1037.03 289,-1017 292.05,-1015.22 295.3,-1013.52 298.6,-1011.92"/>
<polygon fill="midnightblue" stroke="midnightblue" points="300.27,-1015 307.94,-1007.69 297.38,-1008.63 300.27,-1015"/>
</g>
<!-- Node28 -->
<g id="node17" class="node">
<title>Node28</title>
<g id="a_node17"><a xlink:href="code__80057C60_8c.html#a27347fae5da528235bd9a4800950942b" target="_top" xlink:title=" ">
<polygon fill="white" stroke="red" points="289.5,-1216.5 289.5,-1235.5 381.5,-1235.5 381.5,-1216.5 289.5,-1216.5"/>
<text text-anchor="middle" x="335.5" y="-1223.5" font-family="Helvetica,sans-Serif" font-size="10.00">func_8005B7A0</text>
</a>
</g>
</g>
<!-- Node20&#45;&gt;Node28 -->
<g id="edge19" class="edge">
<title>Node20&#45;&gt;Node28</title>
<path fill="none" stroke="midnightblue" d="M236.72,-1101.77C242.67,-1104.34 248.32,-1107.68 253,-1112 284.67,-1141.21 260.18,-1169.98 289,-1202 292.11,-1205.45 295.83,-1208.49 299.8,-1211.15"/>
<polygon fill="midnightblue" stroke="midnightblue" points="298.3,-1214.33 308.7,-1216.35 301.83,-1208.28 298.3,-1214.33"/>
</g>
<!-- Node24&#45;&gt;Node21 -->
<g id="edge15" class="edge">
<title>Node24&#45;&gt;Node21</title>
<path fill="none" stroke="midnightblue" d="M381.56,-1150C391.53,-1150 402.21,-1150 412.55,-1150"/>
<polygon fill="midnightblue" stroke="midnightblue" points="412.75,-1153.5 422.75,-1150 412.75,-1146.5 412.75,-1153.5"/>
</g>
<!-- Node25&#45;&gt;Node21 -->
<g id="edge17" class="edge">
<title>Node25&#45;&gt;Node21</title>
<path fill="none" stroke="midnightblue" d="M369.81,-1121.59C386.69,-1126.45 407.39,-1132.41 425.47,-1137.61"/>
<polygon fill="midnightblue" stroke="midnightblue" points="424.62,-1141.01 435.2,-1140.41 426.56,-1134.28 424.62,-1141.01"/>
</g>
<!-- Node28&#45;&gt;Node5 -->
<g id="edge20" class="edge">
<title>Node28&#45;&gt;Node5</title>
<path fill="none" stroke="midnightblue" d="M358.59,-1235.54C380.01,-1244.79 412.71,-1258.91 436.88,-1269.35"/>
<polygon fill="midnightblue" stroke="midnightblue" points="435.77,-1272.68 446.33,-1273.43 438.54,-1266.25 435.77,-1272.68"/>
</g>
<!-- Node31 -->
<g id="node20" class="node">
<title>Node31</title>
<g id="a_node20"><a xlink:href="code__80057C60_8c.html#a759f15e9dcd29dd32dd97992b87015d6" target="_top" xlink:title=" ">
<polygon fill="white" stroke="red" points="289.5,-1292.5 289.5,-1311.5 381.5,-1311.5 381.5,-1292.5 289.5,-1292.5"/>
<text text-anchor="middle" x="335.5" y="-1299.5" font-family="Helvetica,sans-Serif" font-size="10.00">func_8005CB60</text>
</a>
</g>
</g>
<!-- Node30&#45;&gt;Node31 -->
<g id="edge23" class="edge">
<title>Node30&#45;&gt;Node31</title>
<path fill="none" stroke="midnightblue" d="M237.15,-1139.33C243.04,-1141.97 248.55,-1145.44 253,-1150 294.25,-1192.32 251.85,-1232.04 289,-1278 291.86,-1281.53 295.37,-1284.61 299.18,-1287.27"/>
<polygon fill="midnightblue" stroke="midnightblue" points="297.44,-1290.31 307.82,-1292.45 301.04,-1284.31 297.44,-1290.31"/>
</g>
<!-- Node31&#45;&gt;Node5 -->
<g id="edge24" class="edge">
<title>Node31&#45;&gt;Node5</title>
<path fill="none" stroke="midnightblue" d="M381.56,-1295.51C390.02,-1294.3 399,-1293 407.85,-1291.73"/>
<polygon fill="midnightblue" stroke="midnightblue" points="408.35,-1295.19 417.75,-1290.3 407.35,-1288.27 408.35,-1295.19"/>
</g>
<!-- Node41 -->
<g id="node23" class="node">
<title>Node41</title>
<g id="a_node23"><a xlink:href="crash__screen_8c.html#a4283cbf896ea7ca31653640f6dd237af" target="_top" xlink:title=" ">
<polygon fill="white" stroke="red" points="296.5,-874.5 296.5,-893.5 374.5,-893.5 374.5,-874.5 296.5,-874.5"/>
<text text-anchor="middle" x="335.5" y="-881.5" font-family="Helvetica,sans-Serif" font-size="10.00">osRecvMesg</text>
</a>
</g>
</g>
<!-- Node40&#45;&gt;Node41 -->
<g id="edge27" class="edge">
<title>Node40&#45;&gt;Node41</title>
<path fill="none" stroke="midnightblue" d="M236.75,-871.01C252.45,-873.1 270.12,-875.45 286.08,-877.57"/>
<polygon fill="midnightblue" stroke="midnightblue" points="285.9,-881.07 296.27,-878.92 286.82,-874.13 285.9,-881.07"/>
</g>
<!-- Node50 -->
<g id="node25" class="node">
<title>Node50</title>
<g id="a_node25"><a xlink:href="code__80071F00_8c.html#a90ac54e946bf51594f67bde370c6b2f9" target="_top" xlink:title=" ">
<polygon fill="white" stroke="red" points="290,-836.5 290,-855.5 381,-855.5 381,-836.5 290,-836.5"/>
<text text-anchor="middle" x="335.5" y="-843.5" font-family="Helvetica,sans-Serif" font-size="10.00">func_80078170</text>
</a>
</g>
</g>
<!-- Node49&#45;&gt;Node50 -->
<g id="edge29" class="edge">
<title>Node49&#45;&gt;Node50</title>
<path fill="none" stroke="midnightblue" d="M236.75,-833.01C250.31,-834.81 265.34,-836.81 279.46,-838.69"/>
<polygon fill="midnightblue" stroke="midnightblue" points="279.17,-842.18 289.55,-840.03 280.1,-835.24 279.17,-842.18"/>
</g>
<!-- Node66 -->
<g id="node26" class="node">
<title>Node66</title>
<g id="a_node26"><a xlink:href="code__80071F00_8c.html#a3c3337a85f0a74b8c73bfaf0ca6d6adb" target="_top" xlink:title=" ">
<polygon fill="white" stroke="red" points="289.5,-798.5 289.5,-817.5 381.5,-817.5 381.5,-798.5 289.5,-798.5"/>
<text text-anchor="middle" x="335.5" y="-805.5" font-family="Helvetica,sans-Serif" font-size="10.00">func_80078A44</text>
</a>
</g>
</g>
<!-- Node49&#45;&gt;Node66 -->
<g id="edge30" class="edge">
<title>Node49&#45;&gt;Node66</title>
<path fill="none" stroke="midnightblue" d="M236.75,-820.99C250.18,-819.2 265.05,-817.23 279.05,-815.37"/>
<polygon fill="midnightblue" stroke="midnightblue" points="279.61,-818.82 289.06,-814.04 278.68,-811.89 279.61,-818.82"/>
</g>
<!-- Node73 -->
<g id="node28" class="node">
<title>Node73</title>
<g id="a_node28"><a xlink:href="code__80071F00_8c.html#ab416e2f4e62a3b9330ae16d2cdbcf74a" target="_top" xlink:title=" ">
<polygon fill="white" stroke="red" points="290,-760.5 290,-779.5 381,-779.5 381,-760.5 290,-760.5"/>
<text text-anchor="middle" x="335.5" y="-767.5" font-family="Helvetica,sans-Serif" font-size="10.00">func_80079114</text>
</a>
</g>
</g>
<!-- Node72&#45;&gt;Node73 -->
<g id="edge32" class="edge">
<title>Node72&#45;&gt;Node73</title>
<path fill="none" stroke="midnightblue" d="M236.75,-757.01C250.31,-758.81 265.34,-760.81 279.46,-762.69"/>
<polygon fill="midnightblue" stroke="midnightblue" points="279.17,-766.18 289.55,-764.03 280.1,-759.24 279.17,-766.18"/>
</g>
<!-- Node90 -->
<g id="node29" class="node">
<title>Node90</title>
<g id="a_node29"><a xlink:href="code__80071F00_8c.html#aad99c12ec2393eceecb1aa12cc8aef81" target="_top" xlink:title=" ">
<polygon fill="white" stroke="red" points="289.5,-722.5 289.5,-741.5 381.5,-741.5 381.5,-722.5 289.5,-722.5"/>
<text text-anchor="middle" x="335.5" y="-729.5" font-family="Helvetica,sans-Serif" font-size="10.00">func_8007A66C</text>
</a>
</g>
</g>
<!-- Node72&#45;&gt;Node90 -->
<g id="edge33" class="edge">
<title>Node72&#45;&gt;Node90</title>
<path fill="none" stroke="midnightblue" d="M236.75,-744.99C250.18,-743.2 265.05,-741.23 279.05,-739.37"/>
<polygon fill="midnightblue" stroke="midnightblue" points="279.61,-742.82 289.06,-738.04 278.68,-735.89 279.61,-742.82"/>
</g>
<!-- Node93 -->
<g id="node30" class="node">
<title>Node93</title>
<g id="a_node30"><a xlink:href="code__80071F00_8c.html#a540f7109bb839a239b389e1994796a30" target="_top" xlink:title=" ">
<polygon fill="white" stroke="red" points="289.5,-684.5 289.5,-703.5 381.5,-703.5 381.5,-684.5 289.5,-684.5"/>
<text text-anchor="middle" x="335.5" y="-691.5" font-family="Helvetica,sans-Serif" font-size="10.00">func_8007A778</text>
</a>
</g>
</g>
<!-- Node72&#45;&gt;Node93 -->
<g id="edge34" class="edge">
<title>Node72&#45;&gt;Node93</title>
<path fill="none" stroke="midnightblue" d="M226.38,-741.46C235.18,-738.72 244.53,-735.51 253,-732 269.71,-725.08 272.64,-720.72 289,-713 292.83,-711.19 296.88,-709.37 300.93,-707.62"/>
<polygon fill="midnightblue" stroke="midnightblue" points="302.4,-710.79 310.24,-703.66 299.66,-704.35 302.4,-710.79"/>
</g>
<!-- Node94 -->
<g id="node31" class="node">
<title>Node94</title>
<g id="a_node31"><a xlink:href="code__80071F00_8c.html#ac2ef76567c814c21e149a422ac6606d6" target="_top" xlink:title=" ">
<polygon fill="white" stroke="red" points="289.5,-646.5 289.5,-665.5 381.5,-665.5 381.5,-646.5 289.5,-646.5"/>
<text text-anchor="middle" x="335.5" y="-653.5" font-family="Helvetica,sans-Serif" font-size="10.00">func_8007A910</text>
</a>
</g>
</g>
<!-- Node72&#45;&gt;Node94 -->
<g id="edge35" class="edge">
<title>Node72&#45;&gt;Node94</title>
<path fill="none" stroke="midnightblue" d="M236.04,-741.43C242.09,-738.96 247.94,-735.87 253,-732 276.79,-713.78 266.11,-694.34 289,-675 290.95,-673.36 293.05,-671.84 295.26,-670.44"/>
<polygon fill="midnightblue" stroke="midnightblue" points="297.01,-673.47 304.12,-665.61 293.66,-667.32 297.01,-673.47"/>
</g>
<!-- Node136 -->
<g id="node34" class="node">
<title>Node136</title>
<g id="a_node34"><a xlink:href="code__80071F00_8c.html#aa7ae387b802d319e5090d32a5b9b1f04" target="_top" xlink:title=" ">
<polygon fill="white" stroke="red" points="290,-608.5 290,-627.5 381,-627.5 381,-608.5 290,-608.5"/>
<text text-anchor="middle" x="335.5" y="-615.5" font-family="Helvetica,sans-Serif" font-size="10.00">func_80074EE8</text>
</a>
</g>
</g>
<!-- Node135&#45;&gt;Node136 -->
<g id="edge38" class="edge">
<title>Node135&#45;&gt;Node136</title>
<path fill="none" stroke="midnightblue" d="M192.3,-342.66C195.96,-380.56 214.2,-520.81 289,-599 290.38,-600.44 291.88,-601.77 293.47,-603.01"/>
<polygon fill="midnightblue" stroke="midnightblue" points="291.71,-606.04 302.03,-608.41 295.44,-600.12 291.71,-606.04"/>
</g>
<!-- Node146 -->
<g id="node35" class="node">
<title>Node146</title>
<g id="a_node35"><a xlink:href="code__80071F00_8c.html#a356e1db2949ee9bdc6ab9197322b5fe2" target="_top" xlink:title=" ">
<polygon fill="white" stroke="red" points="290,-570.5 290,-589.5 381,-589.5 381,-570.5 290,-570.5"/>
<text text-anchor="middle" x="335.5" y="-577.5" font-family="Helvetica,sans-Serif" font-size="10.00">func_80075838</text>
</a>
</g>
</g>
<!-- Node135&#45;&gt;Node146 -->
<g id="edge39" class="edge">
<title>Node135&#45;&gt;Node146</title>
<path fill="none" stroke="midnightblue" d="M192.98,-342.68C198.73,-377.14 222.66,-495.22 289,-561 290.46,-562.45 292.04,-563.79 293.72,-565.03"/>
<polygon fill="midnightblue" stroke="midnightblue" points="292.31,-568.27 302.67,-570.48 295.95,-562.29 292.31,-568.27"/>
</g>
<!-- Node156 -->
<g id="node36" class="node">
<title>Node156</title>
<g id="a_node36"><a xlink:href="code__80071F00_8c.html#a69e99f6fc399a5fc7944cc884060d507" target="_top" xlink:title=" ">
<polygon fill="white" stroke="red" points="289.5,-532.5 289.5,-551.5 381.5,-551.5 381.5,-532.5 289.5,-532.5"/>
<text text-anchor="middle" x="335.5" y="-539.5" font-family="Helvetica,sans-Serif" font-size="10.00">func_80075CA8</text>
</a>
</g>
</g>
<!-- Node135&#45;&gt;Node156 -->
<g id="edge40" class="edge">
<title>Node135&#45;&gt;Node156</title>
<path fill="none" stroke="midnightblue" d="M193.92,-342.74C202.02,-373.46 231.01,-469.39 289,-523 290.69,-524.56 292.52,-526 294.45,-527.33"/>
<polygon fill="midnightblue" stroke="midnightblue" points="292.96,-530.51 303.37,-532.48 296.46,-524.45 292.96,-530.51"/>
</g>
<!-- Node159 -->
<g id="node37" class="node">
<title>Node159</title>
<g id="a_node37"><a xlink:href="code__80071F00_8c.html#a8d2c6eb19e31d24ddd0df7f981ff05d6" target="_top" xlink:title=" ">
<polygon fill="white" stroke="red" points="289.5,-494.5 289.5,-513.5 381.5,-513.5 381.5,-494.5 289.5,-494.5"/>
<text text-anchor="middle" x="335.5" y="-501.5" font-family="Helvetica,sans-Serif" font-size="10.00">func_80076F2C</text>
</a>
</g>
</g>
<!-- Node135&#45;&gt;Node159 -->
<g id="edge41" class="edge">
<title>Node135&#45;&gt;Node159</title>
<path fill="none" stroke="midnightblue" d="M195.23,-342.61C205.9,-368.94 239.04,-443.09 289,-485 290.95,-486.64 293.06,-488.15 295.27,-489.55"/>
<polygon fill="midnightblue" stroke="midnightblue" points="293.68,-492.66 304.14,-494.36 297.02,-486.51 293.68,-492.66"/>
</g>
<!-- Node163 -->
<g id="node38" class="node">
<title>Node163</title>
<g id="a_node38"><a xlink:href="code__80071F00_8c.html#a4198936268f8da7ea00d73657b18b691" target="_top" xlink:title=" ">
<polygon fill="white" stroke="red" points="289.5,-456.5 289.5,-475.5 381.5,-475.5 381.5,-456.5 289.5,-456.5"/>
<text text-anchor="middle" x="335.5" y="-463.5" font-family="Helvetica,sans-Serif" font-size="10.00">func_80077C9C</text>
</a>
</g>
</g>
<!-- Node135&#45;&gt;Node163 -->
<g id="edge42" class="edge">
<title>Node135&#45;&gt;Node163</title>
<path fill="none" stroke="midnightblue" d="M197.41,-342.58C211.07,-364.01 246.9,-416.34 289,-447 291.48,-448.81 294.16,-450.48 296.93,-452.02"/>
<polygon fill="midnightblue" stroke="midnightblue" points="295.46,-455.2 305.97,-456.5 298.56,-448.92 295.46,-455.2"/>
</g>
<!-- Node171 -->
<g id="node39" class="node">
<title>Node171</title>
<g id="a_node39"><a xlink:href="code__80071F00_8c.html#a50084315197d7528db75a51984120323" target="_top" xlink:title=" ">
<polygon fill="white" stroke="red" points="290,-418.5 290,-437.5 381,-437.5 381,-418.5 290,-418.5"/>
<text text-anchor="middle" x="335.5" y="-425.5" font-family="Helvetica,sans-Serif" font-size="10.00">func_80078838</text>
</a>
</g>
</g>
<!-- Node135&#45;&gt;Node171 -->
<g id="edge43" class="edge">
<title>Node135&#45;&gt;Node171</title>
<path fill="none" stroke="midnightblue" d="M201.93,-342.67C219.07,-358.2 254.72,-388.97 289,-409 292.05,-410.78 295.3,-412.48 298.6,-414.08"/>
<polygon fill="midnightblue" stroke="midnightblue" points="297.38,-417.37 307.94,-418.31 300.27,-411 297.38,-417.37"/>
</g>
<!-- Node179 -->
<g id="node40" class="node">
<title>Node179</title>
<g id="a_node40"><a xlink:href="code__80071F00_8c.html#ab19d51fb1288d16e729e88ab4b9dcf9f" target="_top" xlink:title=" ">
<polygon fill="white" stroke="red" points="289.5,-380.5 289.5,-399.5 381.5,-399.5 381.5,-380.5 289.5,-380.5"/>
<text text-anchor="middle" x="335.5" y="-387.5" font-family="Helvetica,sans-Serif" font-size="10.00">func_8007C2F8</text>
</a>
</g>
</g>
<!-- Node135&#45;&gt;Node179 -->
<g id="edge44" class="edge">
<title>Node135&#45;&gt;Node179</title>
<path fill="none" stroke="midnightblue" d="M215.43,-342.54C238.84,-351.87 274.69,-366.16 300.94,-376.62"/>
<polygon fill="midnightblue" stroke="midnightblue" points="299.9,-379.98 310.49,-380.43 302.49,-373.47 299.9,-379.98"/>
</g>
<!-- Node196 -->
<g id="node41" class="node">
<title>Node196</title>
<g id="a_node41"><a xlink:href="code__80071F00_8c.html#a1057ac2c733aa5e569df45fa4e28d3ef" target="_top" xlink:title=" ">
<polygon fill="white" stroke="red" points="289.5,-342.5 289.5,-361.5 381.5,-361.5 381.5,-342.5 289.5,-342.5"/>
<text text-anchor="middle" x="335.5" y="-349.5" font-family="Helvetica,sans-Serif" font-size="10.00">func_8007C340</text>
</a>
</g>
</g>
<!-- Node135&#45;&gt;Node196 -->
<g id="edge45" class="edge">
<title>Node135&#45;&gt;Node196</title>
<path fill="none" stroke="midnightblue" d="M226.12,-337.6C242.08,-339.72 261.43,-342.29 279.33,-344.67"/>
<polygon fill="midnightblue" stroke="midnightblue" points="279.01,-348.16 289.38,-346.01 279.93,-341.22 279.01,-348.16"/>
</g>
<!-- Node228 -->
<g id="node42" class="node">
<title>Node228</title>
<g id="a_node42"><a xlink:href="code__80071F00_8c.html#ad528d342123354b27b4b671f931bf31b" target="_top" xlink:title=" ">
<polygon fill="white" stroke="red" points="289,-304.5 289,-323.5 382,-323.5 382,-304.5 289,-304.5"/>
<text text-anchor="middle" x="335.5" y="-311.5" font-family="Helvetica,sans-Serif" font-size="10.00">func_8007DB44</text>
</a>
</g>
</g>
<!-- Node135&#45;&gt;Node228 -->
<g id="edge46" class="edge">
<title>Node135&#45;&gt;Node228</title>
<path fill="none" stroke="midnightblue" d="M226.12,-328.4C241.87,-326.31 260.91,-323.78 278.62,-321.43"/>
<polygon fill="midnightblue" stroke="midnightblue" points="279.4,-324.85 288.85,-320.07 278.47,-317.91 279.4,-324.85"/>
</g>
<!-- Node247 -->
<g id="node43" class="node">
<title>Node247</title>
<g id="a_node43"><a xlink:href="code__80071F00_8c.html#ae733a40e5e6dab7488643eb6d316b0c0" target="_top" xlink:title=" ">
<polygon fill="white" stroke="red" points="289.5,-266.5 289.5,-285.5 381.5,-285.5 381.5,-266.5 289.5,-266.5"/>
<text text-anchor="middle" x="335.5" y="-273.5" font-family="Helvetica,sans-Serif" font-size="10.00">func_8007E1AC</text>
</a>
</g>
</g>
<!-- Node135&#45;&gt;Node247 -->
<g id="edge47" class="edge">
<title>Node135&#45;&gt;Node247</title>
<path fill="none" stroke="midnightblue" d="M215.43,-323.46C238.84,-314.13 274.69,-299.84 300.94,-289.38"/>
<polygon fill="midnightblue" stroke="midnightblue" points="302.49,-292.53 310.49,-285.57 299.9,-286.02 302.49,-292.53"/>
</g>
<!-- Node267 -->
<g id="node44" class="node">
<title>Node267</title>
<g id="a_node44"><a xlink:href="code__80071F00_8c.html#ac8b268e6a216ed165f6d9ba102367fd7" target="_top" xlink:title=" ">
<polygon fill="white" stroke="red" points="289.5,-228.5 289.5,-247.5 381.5,-247.5 381.5,-228.5 289.5,-228.5"/>
<text text-anchor="middle" x="335.5" y="-235.5" font-family="Helvetica,sans-Serif" font-size="10.00">func_8007E4C4</text>
</a>
</g>
</g>
<!-- Node135&#45;&gt;Node267 -->
<g id="edge48" class="edge">
<title>Node135&#45;&gt;Node267</title>
<path fill="none" stroke="midnightblue" d="M201.93,-323.33C219.07,-307.8 254.72,-277.03 289,-257 292.05,-255.22 295.3,-253.52 298.6,-251.92"/>
<polygon fill="midnightblue" stroke="midnightblue" points="300.27,-255 307.94,-247.69 297.38,-248.63 300.27,-255"/>
</g>
<!-- Node271 -->
<g id="node45" class="node">
<title>Node271</title>
<g id="a_node45"><a xlink:href="code__80071F00_8c.html#abe9a0641c98981ece62c0741069f7528" target="_top" xlink:title=" ">
<polygon fill="white" stroke="black" points="290,-190.5 290,-209.5 381,-209.5 381,-190.5 290,-190.5"/>
<text text-anchor="middle" x="335.5" y="-197.5" font-family="Helvetica,sans-Serif" font-size="10.00">func_80081208</text>
</a>
</g>
</g>
<!-- Node135&#45;&gt;Node271 -->
<g id="edge49" class="edge">
<title>Node135&#45;&gt;Node271</title>
<path fill="none" stroke="midnightblue" d="M197.41,-323.42C211.07,-301.99 246.9,-249.66 289,-219 291.48,-217.19 294.16,-215.52 296.93,-213.98"/>
<polygon fill="midnightblue" stroke="midnightblue" points="298.56,-217.08 305.97,-209.5 295.46,-210.8 298.56,-217.08"/>
</g>
<!-- Node272 -->
<g id="node46" class="node">
<title>Node272</title>
<g id="a_node46"><a xlink:href="code__80071F00_8c.html#abeb96b20ac8af613fd90648c078e54e7" target="_top" xlink:title=" ">
<polygon fill="white" stroke="red" points="289.5,-152.5 289.5,-171.5 381.5,-171.5 381.5,-152.5 289.5,-152.5"/>
<text text-anchor="middle" x="335.5" y="-159.5" font-family="Helvetica,sans-Serif" font-size="10.00">func_800821FC</text>
</a>
</g>
</g>
<!-- Node135&#45;&gt;Node272 -->
<g id="edge50" class="edge">
<title>Node135&#45;&gt;Node272</title>
<path fill="none" stroke="midnightblue" d="M195.23,-323.39C205.9,-297.06 239.04,-222.91 289,-181 290.95,-179.36 293.06,-177.85 295.27,-176.45"/>
<polygon fill="midnightblue" stroke="midnightblue" points="297.02,-179.49 304.14,-171.64 293.68,-173.34 297.02,-179.49"/>
</g>
<!-- Node285 -->
<g id="node47" class="node">
<title>Node285</title>
<g id="a_node47"><a xlink:href="code__80071F00_8c.html#a083acc5eddd6095b3c9f21a9fdea7fca" target="_top" xlink:title=" ">
<polygon fill="white" stroke="red" points="290,-114.5 290,-133.5 381,-133.5 381,-114.5 290,-114.5"/>
<text text-anchor="middle" x="335.5" y="-121.5" font-family="Helvetica,sans-Serif" font-size="10.00">func_80082870</text>
</a>
</g>
</g>
<!-- Node135&#45;&gt;Node285 -->
<g id="edge51" class="edge">
<title>Node135&#45;&gt;Node285</title>
<path fill="none" stroke="midnightblue" d="M193.92,-323.26C202.02,-292.54 231.01,-196.61 289,-143 290.69,-141.44 292.52,-140 294.45,-138.67"/>
<polygon fill="midnightblue" stroke="midnightblue" points="296.46,-141.55 303.37,-133.52 292.96,-135.49 296.46,-141.55"/>
</g>
<!-- Node308 -->
<g id="node48" class="node">
<title>Node308</title>
<g id="a_node48"><a xlink:href="code__80071F00_8c.html#abc5ed8f49b810b98a740d39af5bf2613" target="_top" xlink:title=" ">
<polygon fill="white" stroke="red" points="289.5,-76.5 289.5,-95.5 381.5,-95.5 381.5,-76.5 289.5,-76.5"/>
<text text-anchor="middle" x="335.5" y="-83.5" font-family="Helvetica,sans-Serif" font-size="10.00">func_80082E5C</text>
</a>
</g>
</g>
<!-- Node135&#45;&gt;Node308 -->
<g id="edge52" class="edge">
<title>Node135&#45;&gt;Node308</title>
<path fill="none" stroke="midnightblue" d="M192.98,-323.32C198.73,-288.86 222.66,-170.78 289,-105 290.46,-103.55 292.04,-102.21 293.72,-100.97"/>
<polygon fill="midnightblue" stroke="midnightblue" points="295.95,-103.71 302.67,-95.52 292.31,-97.73 295.95,-103.71"/>
</g>
<!-- Node322 -->
<g id="node49" class="node">
<title>Node322</title>
<g id="a_node49"><a xlink:href="code__80071F00_8c.html#ab82627de27f26ffdc658c3374d9b3c2b" target="_top" xlink:title=" ">
<polygon fill="white" stroke="red" points="290,-38.5 290,-57.5 381,-57.5 381,-38.5 290,-38.5"/>
<text text-anchor="middle" x="335.5" y="-45.5" font-family="Helvetica,sans-Serif" font-size="10.00">func_80083080</text>
</a>
</g>
</g>
<!-- Node135&#45;&gt;Node322 -->
<g id="edge53" class="edge">
<title>Node135&#45;&gt;Node322</title>
<path fill="none" stroke="midnightblue" d="M192.3,-323.34C195.96,-285.44 214.2,-145.19 289,-67 290.38,-65.56 291.88,-64.23 293.47,-62.99"/>
<polygon fill="midnightblue" stroke="midnightblue" points="295.44,-65.88 302.03,-57.59 291.71,-59.96 295.44,-65.88"/>
</g>
<!-- Node325 -->
<g id="node50" class="node">
<title>Node325</title>
<g id="a_node50"><a xlink:href="code__80071F00_8c.html#a87459e233eeb4e0cc4a20c59b1933a0f" target="_top" xlink:title=" ">
<polygon fill="white" stroke="red" points="289.5,-0.5 289.5,-19.5 381.5,-19.5 381.5,-0.5 289.5,-0.5"/>
<text text-anchor="middle" x="335.5" y="-7.5" font-family="Helvetica,sans-Serif" font-size="10.00">func_800834B8</text>
</a>
</g>
</g>
<!-- Node135&#45;&gt;Node325 -->
<g id="edge54" class="edge">
<title>Node135&#45;&gt;Node325</title>
<path fill="none" stroke="midnightblue" d="M191.79,-323.41C193.52,-282.42 205.59,-119.84 289,-29 290.19,-27.7 291.49,-26.49 292.87,-25.35"/>
<polygon fill="midnightblue" stroke="midnightblue" points="295.01,-28.13 301.44,-19.71 291.16,-22.29 295.01,-28.13"/>
</g>
</g>
</svg>
