<?xml version="1.0" encoding="UTF-8" standalone="no"?>
<!DOCTYPE svg PUBLIC "-//W3C//DTD SVG 1.1//EN"
 "http://www.w3.org/Graphics/SVG/1.1/DTD/svg11.dtd">
<!-- Generated by graphviz version 2.43.0 (0)
 -->
<!-- Title: add_8018D9E0_entry Pages: 1 -->
<svg width="1623pt" height="618pt"
 viewBox="0.00 0.00 1623.00 617.58" xmlns="http://www.w3.org/2000/svg" xmlns:xlink="http://www.w3.org/1999/xlink">
<g id="graph0" class="graph" transform="scale(1 1) rotate(0) translate(4 613.58)">
<title>add_8018D9E0_entry</title>
<polygon fill="white" stroke="transparent" points="-4,4 -4,-613.58 1619,-613.58 1619,4 -4,4"/>
<!-- Node1 -->
<g id="node1" class="node">
<title>Node1</title>
<g id="a_node1"><a xlink:title=" ">
<polygon fill="#bfbfbf" stroke="black" points="1495,-228.5 1495,-247.5 1615,-247.5 1615,-228.5 1495,-228.5"/>
<text text-anchor="middle" x="1555" y="-235.5" font-family="Helvetica,sans-Serif" font-size="10.00">add_8018D9E0_entry</text>
</a>
</g>
</g>
<!-- Node2 -->
<g id="node2" class="node">
<title>Node2</title>
<g id="a_node2"><a xlink:href="code__80091750_8c.html#a11daab0c2cb2700179b2325d2c619769" target="_top" xlink:title=" ">
<polygon fill="white" stroke="black" points="1367,-380.5 1367,-399.5 1457,-399.5 1457,-380.5 1367,-380.5"/>
<text text-anchor="middle" x="1412" y="-387.5" font-family="Helvetica,sans-Serif" font-size="10.00">func_80091FA4</text>
</a>
</g>
</g>
<!-- Node1&#45;&gt;Node2 -->
<g id="edge1" class="edge">
<title>Node1&#45;&gt;Node2</title>
<path fill="none" stroke="midnightblue" d="M1544.84,-257.01C1530.29,-285.39 1499.37,-338.94 1459,-371 1454.26,-374.76 1448.68,-377.89 1443.06,-380.44"/>
<polygon fill="midnightblue" stroke="midnightblue" points="1548.11,-258.29 1549.44,-247.78 1541.85,-255.16 1548.11,-258.29"/>
</g>
<!-- Node9 -->
<g id="node8" class="node">
<title>Node9</title>
<g id="a_node8"><a xlink:href="code__80091750_8c.html#a4d74ae0501e9b28765fdf3b30026fcbf" target="_top" xlink:title=" ">
<polygon fill="white" stroke="black" points="1366.5,-152.5 1366.5,-171.5 1457.5,-171.5 1457.5,-152.5 1366.5,-152.5"/>
<text text-anchor="middle" x="1412" y="-159.5" font-family="Helvetica,sans-Serif" font-size="10.00">func_80092500</text>
</a>
</g>
</g>
<!-- Node1&#45;&gt;Node9 -->
<g id="edge7" class="edge">
<title>Node1&#45;&gt;Node9</title>
<path fill="none" stroke="midnightblue" d="M1531.05,-222.91C1512.14,-210.8 1484.4,-193.78 1459,-181 1452.36,-177.66 1444.99,-174.42 1438.13,-171.59"/>
<polygon fill="midnightblue" stroke="midnightblue" points="1529.27,-225.93 1539.57,-228.42 1533.07,-220.05 1529.27,-225.93"/>
</g>
<!-- Node14 -->
<g id="node13" class="node">
<title>Node14</title>
<g id="a_node13"><a xlink:href="code__80091750_8c.html#aed4401e324fa9f60d4f68fa67cea6e31" target="_top" xlink:title=" ">
<polygon fill="white" stroke="black" points="1366.5,-114.5 1366.5,-133.5 1457.5,-133.5 1457.5,-114.5 1366.5,-114.5"/>
<text text-anchor="middle" x="1412" y="-121.5" font-family="Helvetica,sans-Serif" font-size="10.00">func_80092564</text>
</a>
</g>
</g>
<!-- Node1&#45;&gt;Node14 -->
<g id="edge13" class="edge">
<title>Node1&#45;&gt;Node14</title>
<path fill="none" stroke="midnightblue" d="M1540.13,-220.4C1522.96,-199.58 1491.93,-164.98 1459,-143 1453.54,-139.35 1447.26,-136.2 1441.14,-133.56"/>
<polygon fill="midnightblue" stroke="midnightblue" points="1537.59,-222.83 1546.61,-228.4 1543.04,-218.43 1537.59,-222.83"/>
</g>
<!-- Node16 -->
<g id="node15" class="node">
<title>Node16</title>
<g id="a_node15"><a xlink:href="code__80091750_8c.html#a2046c7c288a734a5e18c69bb15675d1f" target="_top" xlink:title=" ">
<polygon fill="white" stroke="black" points="1236.5,-38.5 1236.5,-57.5 1328.5,-57.5 1328.5,-38.5 1236.5,-38.5"/>
<text text-anchor="middle" x="1282.5" y="-45.5" font-family="Helvetica,sans-Serif" font-size="10.00">func_800925A0</text>
</a>
</g>
</g>
<!-- Node1&#45;&gt;Node16 -->
<g id="edge17" class="edge">
<title>Node1&#45;&gt;Node16</title>
<path fill="none" stroke="midnightblue" d="M1549.36,-218.11C1539.64,-181.31 1513.37,-103.07 1459,-67 1420.57,-41.5 1366.67,-39.42 1328.77,-42.03"/>
<polygon fill="midnightblue" stroke="midnightblue" points="1546.04,-219.26 1551.86,-228.11 1552.83,-217.56 1546.04,-219.26"/>
</g>
<!-- Node17 -->
<g id="node16" class="node">
<title>Node17</title>
<g id="a_node16"><a xlink:href="code__80091750_8c.html#a6903704cc0ac93eafd7bcac7e88f270d" target="_top" xlink:title=" ">
<polygon fill="white" stroke="black" points="1366.5,-76.5 1366.5,-95.5 1457.5,-95.5 1457.5,-76.5 1366.5,-76.5"/>
<text text-anchor="middle" x="1412" y="-83.5" font-family="Helvetica,sans-Serif" font-size="10.00">func_80092604</text>
</a>
</g>
</g>
<!-- Node1&#45;&gt;Node17 -->
<g id="edge19" class="edge">
<title>Node1&#45;&gt;Node17</title>
<path fill="none" stroke="midnightblue" d="M1544.84,-218.99C1530.29,-190.61 1499.37,-137.06 1459,-105 1454.26,-101.24 1448.68,-98.11 1443.06,-95.56"/>
<polygon fill="midnightblue" stroke="midnightblue" points="1541.85,-220.84 1549.44,-228.22 1548.11,-217.71 1541.85,-220.84"/>
</g>
<!-- Node18 -->
<g id="node17" class="node">
<title>Node18</title>
<g id="a_node17"><a xlink:href="code__80091750_8c.html#a44cfbfb12a620a96d843953207f5b7fe" target="_top" xlink:title=" ">
<polygon fill="white" stroke="black" points="1237,-0.5 1237,-19.5 1328,-19.5 1328,-0.5 1237,-0.5"/>
<text text-anchor="middle" x="1282.5" y="-7.5" font-family="Helvetica,sans-Serif" font-size="10.00">func_80092630</text>
</a>
</g>
</g>
<!-- Node1&#45;&gt;Node18 -->
<g id="edge21" class="edge">
<title>Node1&#45;&gt;Node18</title>
<path fill="none" stroke="midnightblue" d="M1550.79,-217.96C1543.08,-176.9 1519.47,-83.28 1459,-38 1421.46,-9.89 1366.63,-5.29 1328.27,-6.19"/>
<polygon fill="midnightblue" stroke="midnightblue" points="1547.39,-218.82 1552.56,-228.07 1554.28,-217.61 1547.39,-218.82"/>
</g>
<!-- Node19 -->
<g id="node18" class="node">
<title>Node19</title>
<g id="a_node18"><a xlink:href="code__80091750_8c.html#af2f3565f01d7414df24c82c0afc1ac07" target="_top" xlink:title=" ">
<polygon fill="white" stroke="black" points="1366,-228.5 1366,-247.5 1458,-247.5 1458,-228.5 1366,-228.5"/>
<text text-anchor="middle" x="1412" y="-235.5" font-family="Helvetica,sans-Serif" font-size="10.00">func_8009265C</text>
</a>
</g>
</g>
<!-- Node1&#45;&gt;Node19 -->
<g id="edge23" class="edge">
<title>Node1&#45;&gt;Node19</title>
<path fill="none" stroke="midnightblue" d="M1484.54,-238C1475.58,-238 1466.6,-238 1458.18,-238"/>
<polygon fill="midnightblue" stroke="midnightblue" points="1484.61,-241.5 1494.61,-238 1484.61,-234.5 1484.61,-241.5"/>
</g>
<!-- Node20 -->
<g id="node19" class="node">
<title>Node20</title>
<g id="a_node19"><a xlink:href="code__80091750_8c.html#aa40d66e966458f10df65454708783a95" target="_top" xlink:title=" ">
<polygon fill="white" stroke="black" points="1366.5,-513.5 1366.5,-532.5 1457.5,-532.5 1457.5,-513.5 1366.5,-513.5"/>
<text text-anchor="middle" x="1412" y="-520.5" font-family="Helvetica,sans-Serif" font-size="10.00">func_80092688</text>
</a>
</g>
</g>
<!-- Node1&#45;&gt;Node20 -->
<g id="edge24" class="edge">
<title>Node1&#45;&gt;Node20</title>
<path fill="none" stroke="midnightblue" d="M1546.08,-257.41C1530.64,-294.76 1494.89,-378.98 1459,-447 1446.05,-471.55 1428.57,-499.15 1419.33,-513.37"/>
<polygon fill="midnightblue" stroke="midnightblue" points="1549.48,-258.36 1550.04,-247.78 1543,-255.7 1549.48,-258.36"/>
</g>
<!-- Node22 -->
<g id="node21" class="node">
<title>Node22</title>
<g id="a_node21"><a xlink:href="code__80091750_8c.html#afbc00b3a80fed334c4f3d05f4502393e" target="_top" xlink:title=" ">
<polygon fill="white" stroke="black" points="1366,-418.5 1366,-437.5 1458,-437.5 1458,-418.5 1366,-418.5"/>
<text text-anchor="middle" x="1412" y="-425.5" font-family="Helvetica,sans-Serif" font-size="10.00">func_80094C60</text>
</a>
</g>
</g>
<!-- Node1&#45;&gt;Node22 -->
<g id="edge27" class="edge">
<title>Node1&#45;&gt;Node22</title>
<path fill="none" stroke="midnightblue" d="M1547.99,-257.46C1536.29,-292.37 1507.28,-365.99 1459,-409 1454.74,-412.79 1449.62,-415.89 1444.37,-418.41"/>
<polygon fill="midnightblue" stroke="midnightblue" points="1551.44,-258.17 1551.19,-247.58 1544.78,-256.02 1551.44,-258.17"/>
</g>
<!-- Node29 -->
<g id="node28" class="node">
<title>Node29</title>
<g id="a_node28"><a xlink:href="code__80091750_8c.html#a2955c6bc3037f78ba9c3147ecd8fe170" target="_top" xlink:title=" ">
<polygon fill="white" stroke="black" points="1366,-266.5 1366,-285.5 1458,-285.5 1458,-266.5 1366,-266.5"/>
<text text-anchor="middle" x="1412" y="-273.5" font-family="Helvetica,sans-Serif" font-size="10.00">func_800AC324</text>
</a>
</g>
</g>
<!-- Node1&#45;&gt;Node29 -->
<g id="edge39" class="edge">
<title>Node1&#45;&gt;Node29</title>
<path fill="none" stroke="midnightblue" d="M1508.56,-250.25C1489.13,-255.48 1466.77,-261.51 1448.57,-266.41"/>
<polygon fill="midnightblue" stroke="midnightblue" points="1509.68,-253.57 1518.42,-247.59 1507.85,-246.81 1509.68,-253.57"/>
</g>
<!-- Node54 -->
<g id="node48" class="node">
<title>Node54</title>
<g id="a_node48"><a xlink:href="code__80091750_8c.html#a0dbb1191823c192a0f066690baab107c" target="_top" xlink:title=" ">
<polygon fill="white" stroke="black" points="1365.5,-190.5 1365.5,-209.5 1458.5,-209.5 1458.5,-190.5 1365.5,-190.5"/>
<text text-anchor="middle" x="1412" y="-197.5" font-family="Helvetica,sans-Serif" font-size="10.00">func_800ACC50</text>
</a>
</g>
</g>
<!-- Node1&#45;&gt;Node54 -->
<g id="edge69" class="edge">
<title>Node1&#45;&gt;Node54</title>
<path fill="none" stroke="midnightblue" d="M1508.56,-225.75C1489.13,-220.52 1466.77,-214.49 1448.57,-209.59"/>
<polygon fill="midnightblue" stroke="midnightblue" points="1507.85,-229.19 1518.42,-228.41 1509.68,-222.43 1507.85,-229.19"/>
</g>
<!-- Node55 -->
<g id="node49" class="node">
<title>Node55</title>
<g id="a_node49"><a xlink:href="code__80091750_8c.html#a3c54e0a77195cd5d608729cdcf59493f" target="_top" xlink:title=" ">
<polygon fill="white" stroke="black" points="1365,-342.5 1365,-361.5 1459,-361.5 1459,-342.5 1365,-342.5"/>
<text text-anchor="middle" x="1412" y="-349.5" font-family="Helvetica,sans-Serif" font-size="10.00">func_800AD1A4</text>
</a>
</g>
</g>
<!-- Node1&#45;&gt;Node55 -->
<g id="edge71" class="edge">
<title>Node1&#45;&gt;Node55</title>
<path fill="none" stroke="midnightblue" d="M1540.13,-255.6C1522.96,-276.42 1491.93,-311.02 1459,-333 1453.54,-336.65 1447.26,-339.8 1441.14,-342.44"/>
<polygon fill="midnightblue" stroke="midnightblue" points="1543.04,-257.57 1546.61,-247.6 1537.59,-253.17 1543.04,-257.57"/>
</g>
<!-- Node56 -->
<g id="node50" class="node">
<title>Node56</title>
<g id="a_node50"><a xlink:href="code__80091750_8c.html#a39de3a57323c93db8b8e59285e818e78" target="_top" xlink:title=" ">
<polygon fill="white" stroke="black" points="1366,-304.5 1366,-323.5 1458,-323.5 1458,-304.5 1366,-304.5"/>
<text text-anchor="middle" x="1412" y="-311.5" font-family="Helvetica,sans-Serif" font-size="10.00">func_800AF004</text>
</a>
</g>
</g>
<!-- Node1&#45;&gt;Node56 -->
<g id="edge73" class="edge">
<title>Node1&#45;&gt;Node56</title>
<path fill="none" stroke="midnightblue" d="M1531.05,-253.09C1512.14,-265.2 1484.4,-282.22 1459,-295 1452.36,-298.34 1444.99,-301.58 1438.13,-304.41"/>
<polygon fill="midnightblue" stroke="midnightblue" points="1533.07,-255.95 1539.57,-247.58 1529.27,-250.07 1533.07,-255.95"/>
</g>
<!-- Node3 -->
<g id="node3" class="node">
<title>Node3</title>
<g id="a_node3"><a xlink:href="code__800029B0_8c.html#aca6165112fc92e65ad6477e785a7098c" target="_top" xlink:title=" ">
<polygon fill="white" stroke="black" points="1118.5,-380.5 1118.5,-399.5 1188.5,-399.5 1188.5,-380.5 1118.5,-380.5"/>
<text text-anchor="middle" x="1153.5" y="-387.5" font-family="Helvetica,sans-Serif" font-size="10.00">setup_race</text>
</a>
</g>
</g>
<!-- Node2&#45;&gt;Node3 -->
<g id="edge2" class="edge">
<title>Node2&#45;&gt;Node3</title>
<path fill="none" stroke="midnightblue" d="M1356.76,-390C1305.95,-390 1231.58,-390 1188.6,-390"/>
<polygon fill="midnightblue" stroke="midnightblue" points="1356.91,-393.5 1366.91,-390 1356.91,-386.5 1356.91,-393.5"/>
</g>
<!-- Node4 -->
<g id="node4" class="node">
<title>Node4</title>
<g id="a_node4"><a xlink:href="main_8c.html#ad0625ed56ac663d3ec7ae8f1ba50c735" target="_top" xlink:title=" ">
<polygon fill="white" stroke="black" points="963,-494.5 963,-513.5 1071,-513.5 1071,-494.5 963,-494.5"/>
<text text-anchor="middle" x="1017" y="-501.5" font-family="Helvetica,sans-Serif" font-size="10.00">update_gamestate</text>
</a>
</g>
</g>
<!-- Node3&#45;&gt;Node4 -->
<g id="edge3" class="edge">
<title>Node3&#45;&gt;Node4</title>
<path fill="none" stroke="midnightblue" d="M1133.38,-406.21C1104.98,-430.27 1052.54,-474.72 1029.44,-494.31"/>
<polygon fill="midnightblue" stroke="midnightblue" points="1135.67,-408.86 1141.03,-399.72 1131.14,-403.52 1135.67,-408.86"/>
</g>
<!-- Node5 -->
<g id="node5" class="node">
<title>Node5</title>
<g id="a_node5"><a xlink:href="main_8c.html#a633ed517e458daeb768f5361895dcac9" target="_top" xlink:title=" ">
<polygon fill="white" stroke="black" points="235,-399.5 235,-418.5 348,-418.5 348,-399.5 235,-399.5"/>
<text text-anchor="middle" x="291.5" y="-406.5" font-family="Helvetica,sans-Serif" font-size="10.00">thread5_game_loop</text>
</a>
</g>
</g>
<!-- Node4&#45;&gt;Node5 -->
<g id="edge4" class="edge">
<title>Node4&#45;&gt;Node5</title>
<path fill="none" stroke="midnightblue" d="M952.84,-496.86C899.73,-491.47 821.75,-485 753.5,-485 753.5,-485 753.5,-485 602,-485 491.9,-485 365.95,-439.08 315.32,-418.63"/>
<polygon fill="midnightblue" stroke="midnightblue" points="952.48,-500.34 962.79,-497.88 953.2,-493.38 952.48,-500.34"/>
</g>
<!-- Node6 -->
<g id="node6" class="node">
<title>Node6</title>
<g id="a_node6"><a xlink:href="main_8c.html#a023b8f272e4efbd33f371e91ffff6b30" target="_top" xlink:title=" ">
<polygon fill="white" stroke="black" points="113,-399.5 113,-418.5 199,-418.5 199,-399.5 113,-399.5"/>
<text text-anchor="middle" x="156" y="-406.5" font-family="Helvetica,sans-Serif" font-size="10.00">thread3_video</text>
</a>
</g>
</g>
<!-- Node5&#45;&gt;Node6 -->
<g id="edge5" class="edge">
<title>Node5&#45;&gt;Node6</title>
<path fill="none" stroke="midnightblue" d="M224.57,-409C215.94,-409 207.3,-409 199.21,-409"/>
<polygon fill="midnightblue" stroke="midnightblue" points="224.66,-412.5 234.66,-409 224.66,-405.5 224.66,-412.5"/>
</g>
<!-- Node7 -->
<g id="node7" class="node">
<title>Node7</title>
<g id="a_node7"><a xlink:href="main_8c.html#a1e35d2b842121e6aea373f09381616e5" target="_top" xlink:title=" ">
<polygon fill="white" stroke="red" points="0,-399.5 0,-418.5 77,-418.5 77,-399.5 0,-399.5"/>
<text text-anchor="middle" x="38.5" y="-406.5" font-family="Helvetica,sans-Serif" font-size="10.00">thread1_idle</text>
</a>
</g>
</g>
<!-- Node6&#45;&gt;Node7 -->
<g id="edge6" class="edge">
<title>Node6&#45;&gt;Node7</title>
<path fill="none" stroke="midnightblue" d="M102.9,-409C94.2,-409 85.33,-409 77.09,-409"/>
<polygon fill="midnightblue" stroke="midnightblue" points="102.98,-412.5 112.98,-409 102.98,-405.5 102.98,-412.5"/>
</g>
<!-- Node10 -->
<g id="node9" class="node">
<title>Node10</title>
<g id="a_node9"><a xlink:href="race__logic_8c.html#aeb498a031d0fc8f31b5947bf329344f4" target="_top" xlink:title=" ">
<polygon fill="white" stroke="black" points="1237,-152.5 1237,-171.5 1328,-171.5 1328,-152.5 1237,-152.5"/>
<text text-anchor="middle" x="1282.5" y="-159.5" font-family="Helvetica,sans-Serif" font-size="10.00">func_8028E678</text>
</a>
</g>
</g>
<!-- Node9&#45;&gt;Node10 -->
<g id="edge8" class="edge">
<title>Node9&#45;&gt;Node10</title>
<path fill="none" stroke="midnightblue" d="M1356.38,-162C1347.01,-162 1337.36,-162 1328.28,-162"/>
<polygon fill="midnightblue" stroke="midnightblue" points="1356.41,-165.5 1366.41,-162 1356.41,-158.5 1356.41,-165.5"/>
</g>
<!-- Node11 -->
<g id="node10" class="node">
<title>Node11</title>
<g id="a_node10"><a xlink:href="race__logic_8c.html#a7f21a1ef55b61f5678170da62e5e51dc" target="_top" xlink:title=" ">
<polygon fill="white" stroke="black" points="1107,-76.5 1107,-95.5 1200,-95.5 1200,-76.5 1107,-76.5"/>
<text text-anchor="middle" x="1153.5" y="-83.5" font-family="Helvetica,sans-Serif" font-size="10.00">func_8028FCBC</text>
</a>
</g>
</g>
<!-- Node10&#45;&gt;Node11 -->
<g id="edge9" class="edge">
<title>Node10&#45;&gt;Node11</title>
<path fill="none" stroke="midnightblue" d="M1253.02,-147.44C1247.33,-144.4 1241.44,-141.16 1236,-138 1211.91,-124 1184.8,-106.29 1168.71,-95.57"/>
<polygon fill="midnightblue" stroke="midnightblue" points="1251.79,-150.75 1262.27,-152.3 1255.05,-144.55 1251.79,-150.75"/>
</g>
<!-- Node12 -->
<g id="node11" class="node">
<title>Node12</title>
<g id="a_node11"><a xlink:href="main_8c.html#afff87ffcbfee4f1f37d443110aa7b52a" target="_top" xlink:title=" ">
<polygon fill="white" stroke="black" points="557,-190.5 557,-209.5 649,-209.5 649,-190.5 557,-190.5"/>
<text text-anchor="middle" x="603" y="-197.5" font-family="Helvetica,sans-Serif" font-size="10.00">race_logic_loop</text>
</a>
</g>
</g>
<!-- Node11&#45;&gt;Node12 -->
<g id="edge10" class="edge">
<title>Node11&#45;&gt;Node12</title>
<path fill="none" stroke="midnightblue" d="M1096.73,-83.03C1010.27,-80.31 839.92,-82.48 706,-131 668.61,-144.55 631.71,-174.83 614.32,-190.38"/>
<polygon fill="midnightblue" stroke="midnightblue" points="1096.73,-86.54 1106.85,-83.39 1096.98,-79.54 1096.73,-86.54"/>
</g>
<!-- Node13 -->
<g id="node12" class="node">
<title>Node13</title>
<g id="a_node12"><a xlink:href="main_8c.html#ae04143ce8113cdafa007c642eb620bc8" target="_top" xlink:title=" ">
<polygon fill="white" stroke="black" points="384,-342.5 384,-361.5 500,-361.5 500,-342.5 384,-342.5"/>
<text text-anchor="middle" x="442" y="-349.5" font-family="Helvetica,sans-Serif" font-size="10.00">game_state_handler</text>
</a>
</g>
</g>
<!-- Node12&#45;&gt;Node13 -->
<g id="edge11" class="edge">
<title>Node12&#45;&gt;Node13</title>
<path fill="none" stroke="midnightblue" d="M584.43,-216.79C551.01,-248.74 479.26,-317.33 452.94,-342.5"/>
<polygon fill="midnightblue" stroke="midnightblue" points="587.24,-218.95 592.05,-209.51 582.41,-213.89 587.24,-218.95"/>
</g>
<!-- Node13&#45;&gt;Node5 -->
<g id="edge12" class="edge">
<title>Node13&#45;&gt;Node5</title>
<path fill="none" stroke="midnightblue" d="M406.6,-365.2C379.34,-375.67 341.88,-390.05 317.44,-399.43"/>
<polygon fill="midnightblue" stroke="midnightblue" points="408.06,-368.39 416.14,-361.54 405.55,-361.86 408.06,-368.39"/>
</g>
<!-- Node14&#45;&gt;Node11 -->
<g id="edge16" class="edge">
<title>Node14&#45;&gt;Node11</title>
<path fill="none" stroke="midnightblue" d="M1355.84,-119.73C1321.27,-116.63 1275.86,-111.78 1236,-105 1221.25,-102.49 1205.17,-98.92 1191.23,-95.56"/>
<polygon fill="midnightblue" stroke="midnightblue" points="1355.93,-123.25 1366.2,-120.64 1356.54,-116.28 1355.93,-123.25"/>
</g>
<!-- Node15 -->
<g id="node14" class="node">
<title>Node15</title>
<g id="a_node14"><a xlink:href="race__logic_8c.html#ab3cce6260fc4d7f0c4610aeebce8de54" target="_top" xlink:title=" ">
<polygon fill="white" stroke="black" points="1237,-76.5 1237,-95.5 1328,-95.5 1328,-76.5 1237,-76.5"/>
<text text-anchor="middle" x="1282.5" y="-83.5" font-family="Helvetica,sans-Serif" font-size="10.00">func_8028E438</text>
</a>
</g>
</g>
<!-- Node14&#45;&gt;Node15 -->
<g id="edge14" class="edge">
<title>Node14&#45;&gt;Node15</title>
<path fill="none" stroke="midnightblue" d="M1368.94,-111.46C1351.6,-106.3 1331.82,-100.4 1315.66,-95.59"/>
<polygon fill="midnightblue" stroke="midnightblue" points="1368.24,-114.91 1378.83,-114.41 1370.24,-108.2 1368.24,-114.91"/>
</g>
<!-- Node15&#45;&gt;Node11 -->
<g id="edge15" class="edge">
<title>Node15&#45;&gt;Node11</title>
<path fill="none" stroke="midnightblue" d="M1226.54,-86C1217.74,-86 1208.71,-86 1200.16,-86"/>
<polygon fill="midnightblue" stroke="midnightblue" points="1226.72,-89.5 1236.72,-86 1226.72,-82.5 1226.72,-89.5"/>
</g>
<!-- Node16&#45;&gt;Node11 -->
<g id="edge18" class="edge">
<title>Node16&#45;&gt;Node11</title>
<path fill="none" stroke="midnightblue" d="M1239.61,-60.54C1222.33,-65.7 1202.63,-71.6 1186.54,-76.41"/>
<polygon fill="midnightblue" stroke="midnightblue" points="1240.88,-63.81 1249.45,-57.59 1238.87,-57.1 1240.88,-63.81"/>
</g>
<!-- Node17&#45;&gt;Node15 -->
<g id="edge20" class="edge">
<title>Node17&#45;&gt;Node15</title>
<path fill="none" stroke="midnightblue" d="M1356.38,-86C1347.01,-86 1337.36,-86 1328.28,-86"/>
<polygon fill="midnightblue" stroke="midnightblue" points="1356.41,-89.5 1366.41,-86 1356.41,-82.5 1356.41,-89.5"/>
</g>
<!-- Node18&#45;&gt;Node11 -->
<g id="edge22" class="edge">
<title>Node18&#45;&gt;Node11</title>
<path fill="none" stroke="midnightblue" d="M1246.83,-23.56C1243.12,-25.28 1239.45,-27.1 1236,-29 1209.83,-43.4 1181.81,-64.37 1166.39,-76.45"/>
<polygon fill="midnightblue" stroke="midnightblue" points="1248.27,-26.74 1256.01,-19.51 1245.45,-20.34 1248.27,-26.74"/>
</g>
<!-- Node21 -->
<g id="node20" class="node">
<title>Node21</title>
<g id="a_node20"><a xlink:href="code__80280000_8c.html#a9a346a82a8367a41c07f51e012e4cd92" target="_top" xlink:title=" ">
<polygon fill="white" stroke="black" points="1244.5,-570.5 1244.5,-589.5 1320.5,-589.5 1320.5,-570.5 1244.5,-570.5"/>
<text text-anchor="middle" x="1282.5" y="-577.5" font-family="Helvetica,sans-Serif" font-size="10.00">load_credits</text>
</a>
</g>
</g>
<!-- Node20&#45;&gt;Node21 -->
<g id="edge25" class="edge">
<title>Node20&#45;&gt;Node21</title>
<path fill="none" stroke="midnightblue" d="M1380.23,-536.76C1356.93,-547.17 1325.53,-561.21 1304.91,-570.43"/>
<polygon fill="midnightblue" stroke="midnightblue" points="1381.96,-539.82 1389.66,-532.54 1379.1,-533.43 1381.96,-539.82"/>
</g>
<!-- Node21&#45;&gt;Node4 -->
<g id="edge26" class="edge">
<title>Node21&#45;&gt;Node4</title>
<path fill="none" stroke="midnightblue" d="M1248.81,-592.98C1212.61,-605.25 1153.26,-619.05 1107,-599 1065.94,-581.2 1035.16,-534.11 1023.31,-513.68"/>
<polygon fill="midnightblue" stroke="midnightblue" points="1250.12,-596.23 1258.37,-589.59 1247.78,-589.63 1250.12,-596.23"/>
</g>
<!-- Node23 -->
<g id="node22" class="node">
<title>Node23</title>
<g id="a_node22"><a xlink:href="code__80091750_8c.html#a4c171632ff32db3cbe13719e6478d536" target="_top" xlink:title=" ">
<polygon fill="white" stroke="black" points="1236.5,-494.5 1236.5,-513.5 1328.5,-513.5 1328.5,-494.5 1236.5,-494.5"/>
<text text-anchor="middle" x="1282.5" y="-501.5" font-family="Helvetica,sans-Serif" font-size="10.00">func_80091B78</text>
</a>
</g>
</g>
<!-- Node22&#45;&gt;Node23 -->
<g id="edge28" class="edge">
<title>Node22&#45;&gt;Node23</title>
<path fill="none" stroke="midnightblue" d="M1386.08,-442.86C1360.45,-458.13 1321.29,-481.47 1299.52,-494.45"/>
<polygon fill="midnightblue" stroke="midnightblue" points="1388.05,-445.75 1394.85,-437.63 1384.47,-439.74 1388.05,-445.75"/>
</g>
<!-- Node28 -->
<g id="node27" class="node">
<title>Node28</title>
<g id="a_node27"><a xlink:href="code__80091750_8c.html#ac51ad7c4cba535e4821a618a8cfe1e3e" target="_top" xlink:title=" ">
<polygon fill="white" stroke="black" points="706.5,-380.5 706.5,-399.5 798.5,-399.5 798.5,-380.5 706.5,-380.5"/>
<text text-anchor="middle" x="752.5" y="-387.5" font-family="Helvetica,sans-Serif" font-size="10.00">func_80094A64</text>
</a>
</g>
</g>
<!-- Node22&#45;&gt;Node28 -->
<g id="edge37" class="edge">
<title>Node22&#45;&gt;Node28</title>
<path fill="none" stroke="midnightblue" d="M1355.59,-428C1303.64,-428 1223.8,-428 1154.5,-428 1154.5,-428 1154.5,-428 1016,-428 936.8,-428 845.53,-410.85 794.16,-399.59"/>
<polygon fill="midnightblue" stroke="midnightblue" points="1355.59,-431.5 1365.59,-428 1355.59,-424.5 1355.59,-431.5"/>
</g>
<!-- Node24 -->
<g id="node23" class="node">
<title>Node24</title>
<g id="a_node23"><a xlink:href="main_8c.html#a8ccd4f2ae1a9502071e1b43ab07a78d3" target="_top" xlink:title=" ">
<polygon fill="white" stroke="black" points="1107.5,-532.5 1107.5,-551.5 1199.5,-551.5 1199.5,-532.5 1107.5,-532.5"/>
<text text-anchor="middle" x="1153.5" y="-539.5" font-family="Helvetica,sans-Serif" font-size="10.00">func_800025D4</text>
</a>
</g>
</g>
<!-- Node23&#45;&gt;Node24 -->
<g id="edge29" class="edge">
<title>Node23&#45;&gt;Node24</title>
<path fill="none" stroke="midnightblue" d="M1239.61,-516.54C1222.33,-521.7 1202.63,-527.6 1186.54,-532.41"/>
<polygon fill="midnightblue" stroke="midnightblue" points="1240.88,-519.81 1249.45,-513.59 1238.87,-513.1 1240.88,-519.81"/>
</g>
<!-- Node25 -->
<g id="node24" class="node">
<title>Node25</title>
<g id="a_node24"><a xlink:href="main_8c.html#a1399390ccfb8062de2a77e48df769faf" target="_top" xlink:title=" ">
<polygon fill="white" stroke="black" points="1108,-494.5 1108,-513.5 1199,-513.5 1199,-494.5 1108,-494.5"/>
<text text-anchor="middle" x="1153.5" y="-501.5" font-family="Helvetica,sans-Serif" font-size="10.00">func_80002600</text>
</a>
</g>
</g>
<!-- Node23&#45;&gt;Node25 -->
<g id="edge31" class="edge">
<title>Node23&#45;&gt;Node25</title>
<path fill="none" stroke="midnightblue" d="M1226.25,-504C1217.16,-504 1207.84,-504 1199.06,-504"/>
<polygon fill="midnightblue" stroke="midnightblue" points="1226.37,-507.5 1236.37,-504 1226.37,-500.5 1226.37,-507.5"/>
</g>
<!-- Node26 -->
<g id="node25" class="node">
<title>Node26</title>
<g id="a_node25"><a xlink:href="main_8c.html#a26a29858c220d867684f0385abacfde8" target="_top" xlink:title=" ">
<polygon fill="white" stroke="black" points="1107.5,-456.5 1107.5,-475.5 1199.5,-475.5 1199.5,-456.5 1107.5,-456.5"/>
<text text-anchor="middle" x="1153.5" y="-463.5" font-family="Helvetica,sans-Serif" font-size="10.00">func_8000262C</text>
</a>
</g>
</g>
<!-- Node23&#45;&gt;Node26 -->
<g id="edge33" class="edge">
<title>Node23&#45;&gt;Node26</title>
<path fill="none" stroke="midnightblue" d="M1239.61,-491.46C1222.33,-486.3 1202.63,-480.4 1186.54,-475.59"/>
<polygon fill="midnightblue" stroke="midnightblue" points="1238.87,-494.9 1249.45,-494.41 1240.88,-488.19 1238.87,-494.9"/>
</g>
<!-- Node27 -->
<g id="node26" class="node">
<title>Node27</title>
<g id="a_node26"><a xlink:href="main_8c.html#a3a0697cf1e2b0c4ec6ddbf605926eac4" target="_top" xlink:title=" ">
<polygon fill="white" stroke="black" points="1108,-570.5 1108,-589.5 1199,-589.5 1199,-570.5 1108,-570.5"/>
<text text-anchor="middle" x="1153.5" y="-577.5" font-family="Helvetica,sans-Serif" font-size="10.00">func_80002658</text>
</a>
</g>
</g>
<!-- Node23&#45;&gt;Node27 -->
<g id="edge35" class="edge">
<title>Node23&#45;&gt;Node27</title>
<path fill="none" stroke="midnightblue" d="M1261.51,-519.81C1245.48,-532.03 1222.08,-548.85 1200,-561 1193.7,-564.47 1186.64,-567.7 1179.99,-570.49"/>
<polygon fill="midnightblue" stroke="midnightblue" points="1263.84,-522.43 1269.61,-513.55 1259.55,-516.9 1263.84,-522.43"/>
</g>
<!-- Node24&#45;&gt;Node4 -->
<g id="edge30" class="edge">
<title>Node24&#45;&gt;Node4</title>
<path fill="none" stroke="midnightblue" d="M1108.9,-529.68C1090.42,-524.46 1069.21,-518.47 1051.93,-513.59"/>
<polygon fill="midnightblue" stroke="midnightblue" points="1107.99,-533.06 1118.56,-532.41 1109.89,-526.32 1107.99,-533.06"/>
</g>
<!-- Node25&#45;&gt;Node4 -->
<g id="edge32" class="edge">
<title>Node25&#45;&gt;Node4</title>
<path fill="none" stroke="midnightblue" d="M1097.71,-504C1089.04,-504 1080.09,-504 1071.46,-504"/>
<polygon fill="midnightblue" stroke="midnightblue" points="1097.71,-507.5 1107.71,-504 1097.71,-500.5 1097.71,-507.5"/>
</g>
<!-- Node26&#45;&gt;Node4 -->
<g id="edge34" class="edge">
<title>Node26&#45;&gt;Node4</title>
<path fill="none" stroke="midnightblue" d="M1108.9,-478.32C1090.42,-483.54 1069.21,-489.53 1051.93,-494.41"/>
<polygon fill="midnightblue" stroke="midnightblue" points="1109.89,-481.68 1118.56,-475.59 1107.99,-474.94 1109.89,-481.68"/>
</g>
<!-- Node27&#45;&gt;Node4 -->
<g id="edge36" class="edge">
<title>Node27&#45;&gt;Node4</title>
<path fill="none" stroke="midnightblue" d="M1117.91,-566.3C1114.18,-564.61 1110.48,-562.82 1107,-561 1079.04,-546.35 1048.48,-525.66 1031.43,-513.65"/>
<polygon fill="midnightblue" stroke="midnightblue" points="1116.54,-569.53 1127.11,-570.31 1119.34,-563.11 1116.54,-569.53"/>
</g>
<!-- Node28&#45;&gt;Node13 -->
<g id="edge38" class="edge">
<title>Node28&#45;&gt;Node13</title>
<path fill="none" stroke="midnightblue" d="M696.21,-386.86C652.56,-383.96 590.19,-378.9 536,-371 519.04,-368.53 500.51,-364.93 484.49,-361.53"/>
<polygon fill="midnightblue" stroke="midnightblue" points="696.13,-390.36 706.34,-387.52 696.58,-383.38 696.13,-390.36"/>
</g>
<!-- Node30 -->
<g id="node29" class="node">
<title>Node30</title>
<g id="a_node29"><a xlink:href="code__80091750_8c.html#ad2cbd55b27186aa30b09414f27363091" target="_top" xlink:title=" ">
<polygon fill="white" stroke="black" points="1236,-285.5 1236,-304.5 1329,-304.5 1329,-285.5 1236,-285.5"/>
<text text-anchor="middle" x="1282.5" y="-292.5" font-family="Helvetica,sans-Serif" font-size="10.00">func_800A7A4C</text>
</a>
</g>
</g>
<!-- Node29&#45;&gt;Node30 -->
<g id="edge40" class="edge">
<title>Node29&#45;&gt;Node30</title>
<path fill="none" stroke="midnightblue" d="M1355.77,-284.23C1346.87,-285.56 1337.74,-286.92 1329.09,-288.21"/>
<polygon fill="midnightblue" stroke="midnightblue" points="1356.31,-287.69 1365.69,-282.75 1355.28,-280.76 1356.31,-287.69"/>
</g>
<!-- Node31 -->
<g id="node30" class="node">
<title>Node31</title>
<g id="a_node30"><a xlink:href="code__80091750_8c.html#a10393ac14c047963cc7f3ef70aa25570" target="_top" xlink:title=" ">
<polygon fill="white" stroke="black" points="1107.5,-304.5 1107.5,-323.5 1199.5,-323.5 1199.5,-304.5 1107.5,-304.5"/>
<text text-anchor="middle" x="1153.5" y="-311.5" font-family="Helvetica,sans-Serif" font-size="10.00">func_800A8230</text>
</a>
</g>
</g>
<!-- Node30&#45;&gt;Node31 -->
<g id="edge41" class="edge">
<title>Node30&#45;&gt;Node31</title>
<path fill="none" stroke="midnightblue" d="M1225.65,-303.36C1217.03,-304.65 1208.21,-305.96 1199.86,-307.21"/>
<polygon fill="midnightblue" stroke="midnightblue" points="1226.28,-306.8 1235.65,-301.86 1225.24,-299.88 1226.28,-306.8"/>
</g>
<!-- Node50 -->
<g id="node44" class="node">
<title>Node50</title>
<g id="a_node44"><a xlink:href="code__80091750_8c.html#a2f1bf07b8dcaeb0230d31eeedd0cc476" target="_top" xlink:title=" ">
<polygon fill="white" stroke="black" points="1107.5,-247.5 1107.5,-266.5 1199.5,-266.5 1199.5,-247.5 1107.5,-247.5"/>
<text text-anchor="middle" x="1153.5" y="-254.5" font-family="Helvetica,sans-Serif" font-size="10.00">func_800A8250</text>
</a>
</g>
</g>
<!-- Node30&#45;&gt;Node50 -->
<g id="edge63" class="edge">
<title>Node30&#45;&gt;Node50</title>
<path fill="none" stroke="midnightblue" d="M1239.61,-282.46C1222.33,-277.3 1202.63,-271.4 1186.54,-266.59"/>
<polygon fill="midnightblue" stroke="midnightblue" points="1238.87,-285.9 1249.45,-285.41 1240.88,-279.19 1238.87,-285.9"/>
</g>
<!-- Node31&#45;&gt;Node28 -->
<g id="edge60" class="edge">
<title>Node31&#45;&gt;Node28</title>
<path fill="none" stroke="midnightblue" d="M1097.27,-324.52C1017.63,-339.69 872.05,-367.42 798.53,-381.42"/>
<polygon fill="midnightblue" stroke="midnightblue" points="1097.95,-327.95 1107.12,-322.64 1096.64,-321.08 1097.95,-327.95"/>
</g>
<!-- Node32 -->
<g id="node31" class="node">
<title>Node32</title>
<g id="a_node31"><a xlink:href="code__80091750_8c.html#af21eb61f5e1a1ae1ffcc0cf89c398a2e" target="_top" xlink:title=" ">
<polygon fill="white" stroke="black" points="835.5,-228.5 835.5,-247.5 926.5,-247.5 926.5,-228.5 835.5,-228.5"/>
<text text-anchor="middle" x="881" y="-235.5" font-family="Helvetica,sans-Serif" font-size="10.00">func_80093F10</text>
</a>
</g>
</g>
<!-- Node31&#45;&gt;Node32 -->
<g id="edge42" class="edge">
<title>Node31&#45;&gt;Node32</title>
<path fill="none" stroke="midnightblue" d="M1097.01,-318.38C1057.67,-319.19 1004.69,-315.46 963,-295 942.11,-284.75 946.12,-270.25 927,-257 921.7,-253.33 915.58,-250.16 909.6,-247.53"/>
<polygon fill="midnightblue" stroke="midnightblue" points="1097.32,-321.88 1107.21,-318.07 1097.11,-314.88 1097.32,-321.88"/>
</g>
<!-- Node37 -->
<g id="node36" class="node">
<title>Node37</title>
<g id="a_node36"><a xlink:href="code__80091750_8c.html#acbc3378b91b763f79b8dacab57e75b59" target="_top" xlink:title=" ">
<polygon fill="white" stroke="black" points="971,-266.5 971,-285.5 1063,-285.5 1063,-266.5 971,-266.5"/>
<text text-anchor="middle" x="1017" y="-273.5" font-family="Helvetica,sans-Serif" font-size="10.00">func_800940EC</text>
</a>
</g>
</g>
<!-- Node31&#45;&gt;Node37 -->
<g id="edge49" class="edge">
<title>Node31&#45;&gt;Node37</title>
<path fill="none" stroke="midnightblue" d="M1108.9,-301.68C1090.42,-296.46 1069.21,-290.47 1051.93,-285.59"/>
<polygon fill="midnightblue" stroke="midnightblue" points="1107.99,-305.06 1118.56,-304.41 1109.89,-298.32 1107.99,-305.06"/>
</g>
<!-- Node49 -->
<g id="node43" class="node">
<title>Node49</title>
<g id="a_node43"><a xlink:href="code__80091750_8c.html#a01003958fcc81831bd82f619ae874ac1" target="_top" xlink:title=" ">
<polygon fill="white" stroke="black" points="971.5,-380.5 971.5,-399.5 1062.5,-399.5 1062.5,-380.5 971.5,-380.5"/>
<text text-anchor="middle" x="1017" y="-387.5" font-family="Helvetica,sans-Serif" font-size="10.00">func_80095574</text>
</a>
</g>
</g>
<!-- Node31&#45;&gt;Node49 -->
<g id="edge61" class="edge">
<title>Node31&#45;&gt;Node49</title>
<path fill="none" stroke="midnightblue" d="M1130.05,-329.55C1113.97,-340.39 1091.6,-354.84 1071,-366 1061.41,-371.2 1050.48,-376.28 1041.04,-380.42"/>
<polygon fill="midnightblue" stroke="midnightblue" points="1132.44,-332.16 1138.73,-323.64 1128.5,-326.38 1132.44,-332.16"/>
</g>
<!-- Node33 -->
<g id="node32" class="node">
<title>Node33</title>
<g id="a_node32"><a xlink:href="code__80280000_8c.html#aa9c130485d39c4a7276605b30db5150e" target="_top" xlink:title=" ">
<polygon fill="white" stroke="black" points="707,-304.5 707,-323.5 798,-323.5 798,-304.5 707,-304.5"/>
<text text-anchor="middle" x="752.5" y="-311.5" font-family="Helvetica,sans-Serif" font-size="10.00">func_80280038</text>
</a>
</g>
</g>
<!-- Node32&#45;&gt;Node33 -->
<g id="edge43" class="edge">
<title>Node32&#45;&gt;Node33</title>
<path fill="none" stroke="midnightblue" d="M843.17,-252.02C840.32,-253.56 837.57,-255.22 835,-257 815.88,-270.25 818.15,-281.79 799,-295 793.79,-298.6 787.78,-301.7 781.89,-304.3"/>
<polygon fill="midnightblue" stroke="midnightblue" points="844.94,-255.05 852.4,-247.53 841.88,-248.76 844.94,-255.05"/>
</g>
<!-- Node35 -->
<g id="node34" class="node">
<title>Node35</title>
<g id="a_node34"><a xlink:href="code__80281C40_8c.html#af6f6a1f0caec6d086a4ab98602a6670e" target="_top" xlink:title=" ">
<polygon fill="white" stroke="black" points="706.5,-342.5 706.5,-361.5 798.5,-361.5 798.5,-342.5 706.5,-342.5"/>
<text text-anchor="middle" x="752.5" y="-349.5" font-family="Helvetica,sans-Serif" font-size="10.00">func_80281D00</text>
</a>
</g>
</g>
<!-- Node32&#45;&gt;Node35 -->
<g id="edge46" class="edge">
<title>Node32&#45;&gt;Node35</title>
<path fill="none" stroke="midnightblue" d="M839.73,-253.06C838.06,-254.28 836.47,-255.59 835,-257 808.01,-282.86 826.04,-307.2 799,-333 795.04,-336.78 790.21,-339.86 785.2,-342.35"/>
<polygon fill="midnightblue" stroke="midnightblue" points="841.88,-255.85 848.64,-247.7 838.27,-249.86 841.88,-255.85"/>
</g>
<!-- Node34 -->
<g id="node33" class="node">
<title>Node34</title>
<g id="a_node33"><a xlink:href="code__80280000_8c.html#aa28a69be4eda3b8667366c6c7b556024" target="_top" xlink:title=" ">
<polygon fill="white" stroke="black" points="565,-304.5 565,-323.5 641,-323.5 641,-304.5 565,-304.5"/>
<text text-anchor="middle" x="603" y="-311.5" font-family="Helvetica,sans-Serif" font-size="10.00">credits_loop</text>
</a>
</g>
</g>
<!-- Node33&#45;&gt;Node34 -->
<g id="edge44" class="edge">
<title>Node33&#45;&gt;Node34</title>
<path fill="none" stroke="midnightblue" d="M696.75,-314C678.19,-314 657.91,-314 641.06,-314"/>
<polygon fill="midnightblue" stroke="midnightblue" points="696.84,-317.5 706.84,-314 696.84,-310.5 696.84,-317.5"/>
</g>
<!-- Node34&#45;&gt;Node13 -->
<g id="edge45" class="edge">
<title>Node34&#45;&gt;Node13</title>
<path fill="none" stroke="midnightblue" d="M554.86,-325.27C531.94,-330.74 504.69,-337.26 482.82,-342.48"/>
<polygon fill="midnightblue" stroke="midnightblue" points="555.81,-328.64 564.72,-322.91 554.18,-321.83 555.81,-328.64"/>
</g>
<!-- Node36 -->
<g id="node35" class="node">
<title>Node36</title>
<g id="a_node35"><a xlink:href="podium__ceremony__actors_8c.html#a7ea229c65f264670fc828b95e8321154" target="_top" xlink:title=" ">
<polygon fill="white" stroke="black" points="536,-342.5 536,-361.5 670,-361.5 670,-342.5 536,-342.5"/>
<text text-anchor="middle" x="603" y="-349.5" font-family="Helvetica,sans-Serif" font-size="10.00">podium_ceremony_loop</text>
</a>
</g>
</g>
<!-- Node35&#45;&gt;Node36 -->
<g id="edge47" class="edge">
<title>Node35&#45;&gt;Node36</title>
<path fill="none" stroke="midnightblue" d="M696.29,-352C687.79,-352 678.94,-352 670.23,-352"/>
<polygon fill="midnightblue" stroke="midnightblue" points="696.44,-355.5 706.44,-352 696.44,-348.5 696.44,-355.5"/>
</g>
<!-- Node36&#45;&gt;Node13 -->
<g id="edge48" class="edge">
<title>Node36&#45;&gt;Node13</title>
<path fill="none" stroke="midnightblue" d="M525.87,-352C517.24,-352 508.56,-352 500.24,-352"/>
<polygon fill="midnightblue" stroke="midnightblue" points="525.95,-355.5 535.95,-352 525.95,-348.5 525.95,-355.5"/>
</g>
<!-- Node38 -->
<g id="node37" class="node">
<title>Node38</title>
<g id="a_node37"><a xlink:href="code__80091750_8c.html#aa84b20fe3916cb4beb4b6dfb28584da3" target="_top" xlink:title=" ">
<polygon fill="white" stroke="red" points="835,-190.5 835,-209.5 927,-209.5 927,-190.5 835,-190.5"/>
<text text-anchor="middle" x="881" y="-197.5" font-family="Helvetica,sans-Serif" font-size="10.00">func_80093A5C</text>
</a>
</g>
</g>
<!-- Node37&#45;&gt;Node38 -->
<g id="edge50" class="edge">
<title>Node37&#45;&gt;Node38</title>
<path fill="none" stroke="midnightblue" d="M972.4,-262.3C969.13,-260.69 965.95,-258.93 963,-257 943.52,-244.28 946.12,-232.25 927,-219 921.7,-215.33 915.58,-212.16 909.6,-209.53"/>
<polygon fill="midnightblue" stroke="midnightblue" points="971.23,-265.6 981.79,-266.41 974.04,-259.19 971.23,-265.6"/>
</g>
<!-- Node48 -->
<g id="node42" class="node">
<title>Node48</title>
<g id="a_node42"><a xlink:href="code__80091750_8c.html#a0c1fd8dbbe86e87815a177f17801de52" target="_top" xlink:title=" ">
<polygon fill="white" stroke="black" points="835,-304.5 835,-323.5 927,-323.5 927,-304.5 835,-304.5"/>
<text text-anchor="middle" x="881" y="-311.5" font-family="Helvetica,sans-Serif" font-size="10.00">func_80093B70</text>
</a>
</g>
</g>
<!-- Node37&#45;&gt;Node48 -->
<g id="edge59" class="edge">
<title>Node37&#45;&gt;Node48</title>
<path fill="none" stroke="midnightblue" d="M972.56,-288.32C954.15,-293.54 933.02,-299.53 915.8,-304.41"/>
<polygon fill="midnightblue" stroke="midnightblue" points="973.52,-291.68 982.19,-285.59 971.61,-284.95 973.52,-291.68"/>
</g>
<!-- Node39 -->
<g id="node38" class="node">
<title>Node39</title>
<g id="a_node38"><a xlink:href="skybox__and__splitscreen_8c.html#a94c46fe3fe5eef642ce3520b68504133" target="_top" xlink:title=" ">
<polygon fill="white" stroke="black" points="706.5,-266.5 706.5,-285.5 798.5,-285.5 798.5,-266.5 706.5,-266.5"/>
<text text-anchor="middle" x="752.5" y="-273.5" font-family="Helvetica,sans-Serif" font-size="10.00">func_802A59A4</text>
</a>
</g>
</g>
<!-- Node38&#45;&gt;Node39 -->
<g id="edge51" class="edge">
<title>Node38&#45;&gt;Node39</title>
<path fill="none" stroke="midnightblue" d="M843.17,-214.02C840.32,-215.56 837.57,-217.22 835,-219 815.88,-232.25 818.15,-243.79 799,-257 793.79,-260.6 787.78,-263.7 781.89,-266.3"/>
<polygon fill="midnightblue" stroke="midnightblue" points="844.94,-217.05 852.4,-209.53 841.88,-210.76 844.94,-217.05"/>
</g>
<!-- Node40 -->
<g id="node39" class="node">
<title>Node40</title>
<g id="a_node39"><a xlink:href="skybox__and__splitscreen_8c.html#a9be31591c8a78c96ca86c1b87c3ec0a8" target="_top" xlink:title=" ">
<polygon fill="white" stroke="black" points="706,-228.5 706,-247.5 799,-247.5 799,-228.5 706,-228.5"/>
<text text-anchor="middle" x="752.5" y="-235.5" font-family="Helvetica,sans-Serif" font-size="10.00">func_802A5CB4</text>
</a>
</g>
</g>
<!-- Node38&#45;&gt;Node40 -->
<g id="edge53" class="edge">
<title>Node38&#45;&gt;Node40</title>
<path fill="none" stroke="midnightblue" d="M838.27,-212.54C821.06,-217.7 801.44,-223.6 785.41,-228.41"/>
<polygon fill="midnightblue" stroke="midnightblue" points="839.51,-215.82 848.08,-209.59 837.49,-209.11 839.51,-215.82"/>
</g>
<!-- Node41 -->
<g id="node40" class="node">
<title>Node41</title>
<g id="a_node40"><a xlink:href="skybox__and__splitscreen_8c.html#a3f9172888ae23d5920b6c6b352af2bd3" target="_top" xlink:title=" ">
<polygon fill="white" stroke="black" points="706.5,-190.5 706.5,-209.5 798.5,-209.5 798.5,-190.5 706.5,-190.5"/>
<text text-anchor="middle" x="752.5" y="-197.5" font-family="Helvetica,sans-Serif" font-size="10.00">func_802A5FAC</text>
</a>
</g>
</g>
<!-- Node38&#45;&gt;Node41 -->
<g id="edge55" class="edge">
<title>Node38&#45;&gt;Node41</title>
<path fill="none" stroke="midnightblue" d="M824.43,-200C815.9,-200 807.19,-200 798.92,-200"/>
<polygon fill="midnightblue" stroke="midnightblue" points="824.69,-203.5 834.69,-200 824.69,-196.5 824.69,-203.5"/>
</g>
<!-- Node42 -->
<g id="node41" class="node">
<title>Node42</title>
<g id="a_node41"><a xlink:href="skybox__and__splitscreen_8c.html#a897b8a8f9d54144b0916eb7173651af0" target="_top" xlink:title=" ">
<polygon fill="white" stroke="black" points="706.5,-152.5 706.5,-171.5 798.5,-171.5 798.5,-152.5 706.5,-152.5"/>
<text text-anchor="middle" x="752.5" y="-159.5" font-family="Helvetica,sans-Serif" font-size="10.00">func_802A62A4</text>
</a>
</g>
</g>
<!-- Node38&#45;&gt;Node42 -->
<g id="edge57" class="edge">
<title>Node38&#45;&gt;Node42</title>
<path fill="none" stroke="midnightblue" d="M838.27,-187.46C821.06,-182.3 801.44,-176.4 785.41,-171.59"/>
<polygon fill="midnightblue" stroke="midnightblue" points="837.49,-190.89 848.08,-190.41 839.51,-184.18 837.49,-190.89"/>
</g>
<!-- Node39&#45;&gt;Node12 -->
<g id="edge52" class="edge">
<title>Node39&#45;&gt;Node12</title>
<path fill="none" stroke="midnightblue" d="M717.88,-262.47C713.85,-260.7 709.81,-258.85 706,-257 674.8,-241.83 639.77,-221.49 619.95,-209.66"/>
<polygon fill="midnightblue" stroke="midnightblue" points="716.61,-265.74 727.19,-266.45 719.37,-259.3 716.61,-265.74"/>
</g>
<!-- Node40&#45;&gt;Node12 -->
<g id="edge54" class="edge">
<title>Node40&#45;&gt;Node12</title>
<path fill="none" stroke="midnightblue" d="M704.49,-225.89C683.94,-220.6 660.2,-214.48 640.95,-209.52"/>
<polygon fill="midnightblue" stroke="midnightblue" points="703.72,-229.31 714.28,-228.41 705.47,-222.53 703.72,-229.31"/>
</g>
<!-- Node41&#45;&gt;Node12 -->
<g id="edge56" class="edge">
<title>Node41&#45;&gt;Node12</title>
<path fill="none" stroke="midnightblue" d="M696.39,-200C680.78,-200 663.97,-200 649.03,-200"/>
<polygon fill="midnightblue" stroke="midnightblue" points="696.44,-203.5 706.44,-200 696.44,-196.5 696.44,-203.5"/>
</g>
<!-- Node42&#45;&gt;Node12 -->
<g id="edge58" class="edge">
<title>Node42&#45;&gt;Node12</title>
<path fill="none" stroke="midnightblue" d="M704.49,-174.11C683.94,-179.4 660.2,-185.52 640.95,-190.48"/>
<polygon fill="midnightblue" stroke="midnightblue" points="705.47,-177.47 714.28,-171.59 703.72,-170.69 705.47,-177.47"/>
</g>
<!-- Node49&#45;&gt;Node28 -->
<g id="edge62" class="edge">
<title>Node49&#45;&gt;Node28</title>
<path fill="none" stroke="midnightblue" d="M961.22,-390C913.05,-390 843.76,-390 798.69,-390"/>
<polygon fill="midnightblue" stroke="midnightblue" points="961.47,-393.5 971.47,-390 961.47,-386.5 961.47,-393.5"/>
</g>
<!-- Node51 -->
<g id="node45" class="node">
<title>Node51</title>
<g id="a_node45"><a xlink:href="code__80091750_8c.html#a15f3ebfeed90c432ebac841a94730a1a" target="_top" xlink:title=" ">
<polygon fill="white" stroke="black" points="971,-228.5 971,-247.5 1063,-247.5 1063,-228.5 971,-228.5"/>
<text text-anchor="middle" x="1017" y="-235.5" font-family="Helvetica,sans-Serif" font-size="10.00">func_80093C98</text>
</a>
</g>
</g>
<!-- Node50&#45;&gt;Node51 -->
<g id="edge64" class="edge">
<title>Node50&#45;&gt;Node51</title>
<path fill="none" stroke="midnightblue" d="M1097.15,-249.18C1085.88,-247.59 1074.14,-245.93 1063.27,-244.4"/>
<polygon fill="midnightblue" stroke="midnightblue" points="1096.95,-252.69 1107.34,-250.62 1097.93,-245.76 1096.95,-252.69"/>
</g>
<!-- Node52 -->
<g id="node46" class="node">
<title>Node52</title>
<g id="a_node46"><a xlink:href="code__80091750_8c.html#a67d42501ba0c65dedf05a039b9a2e49d" target="_top" xlink:title=" ">
<polygon fill="white" stroke="black" points="835.5,-133.5 835.5,-152.5 926.5,-152.5 926.5,-133.5 835.5,-133.5"/>
<text text-anchor="middle" x="881" y="-140.5" font-family="Helvetica,sans-Serif" font-size="10.00">func_80093E20</text>
</a>
</g>
</g>
<!-- Node51&#45;&gt;Node52 -->
<g id="edge65" class="edge">
<title>Node51&#45;&gt;Node52</title>
<path fill="none" stroke="midnightblue" d="M993.82,-222.27C965.86,-202.45 918.66,-168.99 895.56,-152.61"/>
<polygon fill="midnightblue" stroke="midnightblue" points="991.98,-225.26 1002.16,-228.19 996.03,-219.55 991.98,-225.26"/>
</g>
<!-- Node53 -->
<g id="node47" class="node">
<title>Node53</title>
<g id="a_node47"><a xlink:href="code__80091750_8c.html#a1f74ad8bb5f44589378d6c7d91ed55e6" target="_top" xlink:title=" ">
<polygon fill="white" stroke="black" points="835.5,-266.5 835.5,-285.5 926.5,-285.5 926.5,-266.5 835.5,-266.5"/>
<text text-anchor="middle" x="881" y="-273.5" font-family="Helvetica,sans-Serif" font-size="10.00">func_80093E40</text>
</a>
</g>
</g>
<!-- Node51&#45;&gt;Node53 -->
<g id="edge67" class="edge">
<title>Node51&#45;&gt;Node53</title>
<path fill="none" stroke="midnightblue" d="M972.56,-250.32C954.15,-255.54 933.02,-261.53 915.8,-266.41"/>
<polygon fill="midnightblue" stroke="midnightblue" points="973.52,-253.68 982.19,-247.59 971.61,-246.95 973.52,-253.68"/>
</g>
<!-- Node52&#45;&gt;Node12 -->
<g id="edge66" class="edge">
<title>Node52&#45;&gt;Node12</title>
<path fill="none" stroke="midnightblue" d="M824.84,-135.97C790.17,-133.27 744.81,-132.89 706,-143 670.66,-152.2 634.59,-176.64 616.29,-190.35"/>
<polygon fill="midnightblue" stroke="midnightblue" points="824.97,-139.5 835.24,-136.88 825.58,-132.52 824.97,-139.5"/>
</g>
<!-- Node53&#45;&gt;Node28 -->
<g id="edge68" class="edge">
<title>Node53&#45;&gt;Node28</title>
<path fill="none" stroke="midnightblue" d="M839.73,-291.06C838.06,-292.28 836.47,-293.59 835,-295 808.01,-320.86 826.04,-345.2 799,-371 795.04,-374.78 790.21,-377.86 785.2,-380.35"/>
<polygon fill="midnightblue" stroke="midnightblue" points="841.88,-293.85 848.64,-285.7 838.27,-287.86 841.88,-293.85"/>
</g>
<!-- Node54&#45;&gt;Node30 -->
<g id="edge70" class="edge">
<title>Node54&#45;&gt;Node30</title>
<path fill="none" stroke="midnightblue" d="M1373.75,-214.01C1370.72,-215.56 1367.76,-217.23 1365,-219 1334.73,-238.45 1305.42,-269.76 1291.66,-285.42"/>
<polygon fill="midnightblue" stroke="midnightblue" points="1375.37,-217.11 1382.95,-209.71 1372.41,-210.77 1375.37,-217.11"/>
</g>
<!-- Node55&#45;&gt;Node30 -->
<g id="edge72" class="edge">
<title>Node55&#45;&gt;Node30</title>
<path fill="none" stroke="midnightblue" d="M1377.77,-338.48C1373.46,-336.67 1369.12,-334.81 1365,-333 1343.85,-323.71 1319.91,-312.46 1303.48,-304.62"/>
<polygon fill="midnightblue" stroke="midnightblue" points="1376.46,-341.73 1387.04,-342.34 1379.15,-335.27 1376.46,-341.73"/>
</g>
<!-- Node56&#45;&gt;Node30 -->
<g id="edge74" class="edge">
<title>Node56&#45;&gt;Node30</title>
<path fill="none" stroke="midnightblue" d="M1355.77,-305.77C1346.87,-304.44 1337.74,-303.08 1329.09,-301.79"/>
<polygon fill="midnightblue" stroke="midnightblue" points="1355.28,-309.24 1365.69,-307.25 1356.31,-302.31 1355.28,-309.24"/>
</g>
</g>
</svg>
