<?xml version="1.0" encoding="UTF-8" standalone="no"?>
<!DOCTYPE svg PUBLIC "-//W3C//DTD SVG 1.1//EN"
 "http://www.w3.org/Graphics/SVG/1.1/DTD/svg11.dtd">
<!-- Generated by graphviz version 2.43.0 (0)
 -->
<!-- Title: render_kart_particle_on_screen_three Pages: 1 -->
<svg width="865pt" height="676pt"
 viewBox="0.00 0.00 865.00 676.01" xmlns="http://www.w3.org/2000/svg" xmlns:xlink="http://www.w3.org/1999/xlink">
<g id="graph0" class="graph" transform="scale(1 1) rotate(0) translate(4 672.01)">
<title>render_kart_particle_on_screen_three</title>
<!-- Node1 -->
<g id="Node000001" class="node">
<title>Node1</title>
<g id="a_Node000001"><a xlink:title=" ">
<polygon fill="#999999" stroke="#666666" points="114,-177.5 0,-177.5 0,-147.5 114,-147.5 114,-177.5"/>
<text text-anchor="start" x="8" y="-165.5" font-family="Helvetica,sans-Serif" font-size="10.00">render_kart_particle</text>
<text text-anchor="middle" x="57" y="-154.5" font-family="Helvetica,sans-Serif" font-size="10.00">_on_screen_three</text>
</a>
</g>
</g>
<!-- Node2 -->
<g id="Node000002" class="node">
<title>Node2</title>
<g id="a_Node000002"><a xlink:href="code__80057C60_8c.html#ab396ba35cb1268b74b0d6434cbbcf615" target="_top" xlink:title=" ">
<polygon fill="white" stroke="#666666" points="242.5,-308 150.5,-308 150.5,-289 242.5,-289 242.5,-308"/>
<text text-anchor="middle" x="196.5" y="-296" font-family="Helvetica,sans-Serif" font-size="10.00">func_8006D474</text>
</a>
</g>
</g>
<!-- Node1&#45;&gt;Node2 -->
<g id="edge1_Node000001_Node000002" class="edge">
<title>Node1&#45;&gt;Node2</title>
<g id="a_edge1_Node000001_Node000002"><a xlink:title=" ">
<path fill="none" stroke="#63b8ff" d="M73.24,-177.57C99.08,-203.13 151.3,-254.79 178.37,-281.56"/>
<polygon fill="#63b8ff" stroke="#63b8ff" points="176.03,-284.16 185.6,-288.71 180.95,-279.19 176.03,-284.16"/>
</a>
</g>
</g>
<!-- Node30 -->
<g id="Node000030" class="node">
<title>Node30</title>
<g id="a_Node000030"><a xlink:href="code__80057C60_8c.html#aaef5482fcbb2734b535a0ddcfef22cf6" target="_top" xlink:title=" ">
<polygon fill="white" stroke="#666666" points="243,-154 150,-154 150,-135 243,-135 243,-154"/>
<text text-anchor="middle" x="196.5" y="-142" font-family="Helvetica,sans-Serif" font-size="10.00">func_8006DC54</text>
</a>
</g>
</g>
<!-- Node1&#45;&gt;Node30 -->
<g id="edge61_Node000001_Node000030" class="edge">
<title>Node1&#45;&gt;Node30</title>
<g id="a_edge61_Node000001_Node000030"><a xlink:title=" ">
<path fill="none" stroke="#63b8ff" d="M114.32,-155.13C122.76,-154.02 131.45,-152.88 139.88,-151.78"/>
<polygon fill="#63b8ff" stroke="#63b8ff" points="140.52,-155.23 149.98,-150.46 139.61,-148.29 140.52,-155.23"/>
</a>
</g>
</g>
<!-- Node3 -->
<g id="Node000003" class="node">
<title>Node3</title>
<g id="a_Node000003"><a xlink:href="code__80057C60_8c.html#a9f91d88cce7d57a8fa593de4ad14bc38" target="_top" xlink:title=" ">
<polygon fill="white" stroke="#666666" points="402.5,-413 310.5,-413 310.5,-394 402.5,-394 402.5,-413"/>
<text text-anchor="middle" x="356.5" y="-401" font-family="Helvetica,sans-Serif" font-size="10.00">func_8006538C</text>
</a>
</g>
</g>
<!-- Node2&#45;&gt;Node3 -->
<g id="edge2_Node000002_Node000003" class="edge">
<title>Node2&#45;&gt;Node3</title>
<g id="a_edge2_Node000002_Node000003"><a xlink:title=" ">
<path fill="none" stroke="#63b8ff" d="M203.84,-308.21C216.1,-326.18 244.88,-364.61 279,-384.5 285.58,-388.33 292.91,-391.4 300.35,-393.85"/>
<polygon fill="#63b8ff" stroke="#63b8ff" points="299.57,-397.27 310.15,-396.73 301.54,-390.55 299.57,-397.27"/>
</a>
</g>
</g>
<!-- Node12 -->
<g id="Node000012" class="node">
<title>Node12</title>
<g id="a_Node000012"><a xlink:href="code__80057C60_8c.html#a3f1717119e5bfe3757ffd0acde390759" target="_top" xlink:title=" ">
<polygon fill="white" stroke="#666666" points="402,-290 311,-290 311,-271 402,-271 402,-290"/>
<text text-anchor="middle" x="356.5" y="-278" font-family="Helvetica,sans-Serif" font-size="10.00">func_800664E0</text>
</a>
</g>
</g>
<!-- Node2&#45;&gt;Node12 -->
<g id="edge11_Node000002_Node000012" class="edge">
<title>Node2&#45;&gt;Node12</title>
<g id="a_edge11_Node000002_Node000012"><a xlink:title=" ">
<path fill="none" stroke="#63b8ff" d="M242.78,-293.34C260.86,-291.28 281.85,-288.89 300.79,-286.73"/>
<polygon fill="#63b8ff" stroke="#63b8ff" points="301.22,-290.21 310.76,-285.6 300.43,-283.25 301.22,-290.21"/>
</a>
</g>
</g>
<!-- Node14 -->
<g id="Node000014" class="node">
<title>Node14</title>
<g id="a_Node000014"><a xlink:href="code__80057C60_8c.html#a089a0196c5a33042c0decbdfb994c6a1" target="_top" xlink:title=" ">
<polygon fill="white" stroke="#666666" points="403,-584 310,-584 310,-565 403,-565 403,-584"/>
<text text-anchor="middle" x="356.5" y="-572" font-family="Helvetica,sans-Serif" font-size="10.00">func_80066BAC</text>
</a>
</g>
</g>
<!-- Node2&#45;&gt;Node14 -->
<g id="edge14_Node000002_Node000014" class="edge">
<title>Node2&#45;&gt;Node14</title>
<g id="a_edge14_Node000002_Node000014"><a xlink:title=" ">
<path fill="none" stroke="#63b8ff" d="M197.39,-308.2C197.5,-346.19 203.24,-486.21 279,-556.5 284.97,-562.04 292.32,-565.98 300.08,-568.76"/>
<polygon fill="#63b8ff" stroke="#63b8ff" points="299.1,-572.11 309.68,-571.6 301.09,-565.4 299.1,-572.11"/>
</a>
</g>
</g>
<!-- Node15 -->
<g id="Node000015" class="node">
<title>Node15</title>
<g id="a_Node000015"><a xlink:href="code__80057C60_8c.html#a2f5245121d6e632508386ce076689ab0" target="_top" xlink:title=" ">
<polygon fill="white" stroke="#666666" points="402,-253 311,-253 311,-234 402,-234 402,-253"/>
<text text-anchor="middle" x="356.5" y="-241" font-family="Helvetica,sans-Serif" font-size="10.00">func_80067280</text>
</a>
</g>
</g>
<!-- Node2&#45;&gt;Node15 -->
<g id="edge18_Node000002_Node000015" class="edge">
<title>Node2&#45;&gt;Node15</title>
<g id="a_edge18_Node000002_Node000015"><a xlink:title=" ">
<path fill="none" stroke="#63b8ff" d="M215.85,-288.92C232.1,-280.74 256.64,-269.12 279,-261.5 286.09,-259.08 293.66,-256.87 301.18,-254.89"/>
<polygon fill="#63b8ff" stroke="#63b8ff" points="302.15,-258.26 310.99,-252.43 300.44,-251.47 302.15,-258.26"/>
</a>
</g>
</g>
<!-- Node16 -->
<g id="Node000016" class="node">
<title>Node16</title>
<g id="a_Node000016"><a xlink:href="code__80057C60_8c.html#a816ad699435bcfbaac32ffd5e1c873bf" target="_top" xlink:title=" ">
<polygon fill="white" stroke="#666666" points="402,-547 311,-547 311,-528 402,-528 402,-547"/>
<text text-anchor="middle" x="356.5" y="-535" font-family="Helvetica,sans-Serif" font-size="10.00">func_80069444</text>
</a>
</g>
</g>
<!-- Node2&#45;&gt;Node16 -->
<g id="edge21_Node000002_Node000016" class="edge">
<title>Node2&#45;&gt;Node16</title>
<g id="a_edge21_Node000002_Node000016"><a xlink:title=" ">
<path fill="none" stroke="#63b8ff" d="M198.01,-308.16C200.37,-342.47 213.12,-459.58 279,-518.5 285.3,-524.14 293.03,-528.16 301.11,-531.02"/>
<polygon fill="#63b8ff" stroke="#63b8ff" points="300.12,-534.38 310.7,-533.87 302.11,-527.67 300.12,-534.38"/>
</a>
</g>
</g>
<!-- Node17 -->
<g id="Node000017" class="node">
<title>Node17</title>
<g id="a_Node000017"><a xlink:href="code__80057C60_8c.html#a64a649414b0f4d317984a4440ce212cf" target="_top" xlink:title=" ">
<polygon fill="white" stroke="#666666" points="402,-167 311,-167 311,-148 402,-148 402,-167"/>
<text text-anchor="middle" x="356.5" y="-155" font-family="Helvetica,sans-Serif" font-size="10.00">func_80069938</text>
</a>
</g>
</g>
<!-- Node2&#45;&gt;Node17 -->
<g id="edge24_Node000002_Node000017" class="edge">
<title>Node2&#45;&gt;Node17</title>
<g id="a_edge24_Node000002_Node000017"><a xlink:title=" ">
<path fill="none" stroke="#63b8ff" d="M201.09,-288.8C210.24,-265.53 236.7,-206.23 279,-176.5 285.53,-171.91 293.06,-168.42 300.8,-165.78"/>
<polygon fill="#63b8ff" stroke="#63b8ff" points="302.05,-169.06 310.64,-162.86 300.06,-162.34 302.05,-169.06"/>
</a>
</g>
</g>
<!-- Node18 -->
<g id="Node000018" class="node">
<title>Node18</title>
<g id="a_Node000018"><a xlink:href="code__80057C60_8c.html#a1b816895add639d5bccf6c80120d317a" target="_top" xlink:title=" ">
<polygon fill="white" stroke="#666666" points="402.5,-130 310.5,-130 310.5,-111 402.5,-111 402.5,-130"/>
<text text-anchor="middle" x="356.5" y="-118" font-family="Helvetica,sans-Serif" font-size="10.00">func_80069BA8</text>
</a>
</g>
</g>
<!-- Node2&#45;&gt;Node18 -->
<g id="edge27_Node000002_Node000018" class="edge">
<title>Node2&#45;&gt;Node18</title>
<g id="a_edge27_Node000002_Node000018"><a xlink:title=" ">
<path fill="none" stroke="#63b8ff" d="M199.46,-288.77C205.65,-260.69 227.5,-178.92 279,-138.5 285.26,-133.58 292.65,-129.97 300.31,-127.33"/>
<polygon fill="#63b8ff" stroke="#63b8ff" points="301.5,-130.63 310.12,-124.47 299.54,-123.91 301.5,-130.63"/>
</a>
</g>
</g>
<!-- Node19 -->
<g id="Node000019" class="node">
<title>Node19</title>
<g id="a_Node000019"><a xlink:href="code__80057C60_8c.html#a96a550feb29af6f064c4f1f6fbf79c8e" target="_top" xlink:title=" ">
<polygon fill="white" stroke="#666666" points="403,-327 310,-327 310,-308 403,-308 403,-327"/>
<text text-anchor="middle" x="356.5" y="-315" font-family="Helvetica,sans-Serif" font-size="10.00">func_80069DB8</text>
</a>
</g>
</g>
<!-- Node2&#45;&gt;Node19 -->
<g id="edge30_Node000002_Node000019" class="edge">
<title>Node2&#45;&gt;Node19</title>
<g id="a_edge30_Node000002_Node000019"><a xlink:title=" ">
<path fill="none" stroke="#63b8ff" d="M242.78,-303.94C260.55,-306.08 281.13,-308.56 299.8,-310.8"/>
<polygon fill="#63b8ff" stroke="#63b8ff" points="299.6,-314.3 309.94,-312.02 300.43,-307.35 299.6,-314.3"/>
</a>
</g>
</g>
<!-- Node20 -->
<g id="Node000020" class="node">
<title>Node20</title>
<g id="a_Node000020"><a xlink:href="code__80057C60_8c.html#aa29e50ae3d2289c99bf8319eaf7c31bc" target="_top" xlink:title=" ">
<polygon fill="white" stroke="#666666" points="402.5,-93 310.5,-93 310.5,-74 402.5,-74 402.5,-93"/>
<text text-anchor="middle" x="356.5" y="-81" font-family="Helvetica,sans-Serif" font-size="10.00">func_8006A01C</text>
</a>
</g>
</g>
<!-- Node2&#45;&gt;Node20 -->
<g id="edge33_Node000002_Node000020" class="edge">
<title>Node2&#45;&gt;Node20</title>
<g id="a_edge33_Node000002_Node000020"><a xlink:title=" ">
<path fill="none" stroke="#63b8ff" d="M200.18,-288.99C210.43,-253.26 248.13,-127.76 279,-101.5 285.21,-96.22 292.68,-92.43 300.49,-89.71"/>
<polygon fill="#63b8ff" stroke="#63b8ff" points="301.5,-93.06 310.13,-86.9 299.55,-86.34 301.5,-93.06"/>
</a>
</g>
</g>
<!-- Node21 -->
<g id="Node000021" class="node">
<title>Node21</title>
<g id="a_Node000021"><a xlink:href="code__80057C60_8c.html#a67be094587bdbc36fe1e53f9bc593eb1" target="_top" xlink:title=" ">
<polygon fill="white" stroke="#666666" points="434,-56 279,-56 279,-37 434,-37 434,-56"/>
<text text-anchor="middle" x="356.5" y="-44" font-family="Helvetica,sans-Serif" font-size="10.00">render_actor_bonk_particles</text>
</a>
</g>
</g>
<!-- Node2&#45;&gt;Node21 -->
<g id="edge36_Node000002_Node000021" class="edge">
<title>Node2&#45;&gt;Node21</title>
<g id="a_edge36_Node000002_Node000021"><a xlink:title=" ">
<path fill="none" stroke="#63b8ff" d="M200.69,-288.93C215.22,-245.45 274.52,-68.54 279,-64.5 280.17,-63.44 281.39,-62.45 282.66,-61.5"/>
<polygon fill="#63b8ff" stroke="#63b8ff" points="284.86,-64.26 291.57,-56.06 281.21,-58.29 284.86,-64.26"/>
</a>
</g>
</g>
<!-- Node22 -->
<g id="Node000022" class="node">
<title>Node22</title>
<g id="a_Node000022"><a xlink:href="code__80057C60_8c.html#a859868ea70898b00453ccd132796ee5e" target="_top" xlink:title=" ">
<polygon fill="white" stroke="#666666" points="414.5,-509.5 298.5,-509.5 298.5,-479.5 414.5,-479.5 414.5,-509.5"/>
<text text-anchor="start" x="306.5" y="-497.5" font-family="Helvetica,sans-Serif" font-size="10.00">render_player_boost</text>
<text text-anchor="middle" x="356.5" y="-486.5" font-family="Helvetica,sans-Serif" font-size="10.00">_spark_particles</text>
</a>
</g>
</g>
<!-- Node2&#45;&gt;Node22 -->
<g id="edge39_Node000002_Node000022" class="edge">
<title>Node2&#45;&gt;Node22</title>
<g id="a_edge39_Node000002_Node000022"><a xlink:title=" ">
<path fill="none" stroke="#63b8ff" d="M199.29,-308.33C205.14,-337.56 226.41,-424.73 279,-470.5 282.19,-473.28 285.7,-475.73 289.41,-477.9"/>
<polygon fill="#63b8ff" stroke="#63b8ff" points="287.87,-481.05 298.37,-482.47 291.05,-474.81 287.87,-481.05"/>
</a>
</g>
</g>
<!-- Node23 -->
<g id="Node000023" class="node">
<title>Node23</title>
<g id="a_Node000023"><a xlink:href="code__80057C60_8c.html#a7ddb5a17b78811330b2e0c4cb061f063" target="_top" xlink:title=" ">
<polygon fill="white" stroke="#666666" points="411,-461.5 302,-461.5 302,-431.5 411,-431.5 411,-461.5"/>
<text text-anchor="start" x="310" y="-449.5" font-family="Helvetica,sans-Serif" font-size="10.00">render_player_drift</text>
<text text-anchor="middle" x="356.5" y="-438.5" font-family="Helvetica,sans-Serif" font-size="10.00">_particles</text>
</a>
</g>
</g>
<!-- Node2&#45;&gt;Node23 -->
<g id="edge42_Node000002_Node000023" class="edge">
<title>Node2&#45;&gt;Node23</title>
<g id="a_edge42_Node000002_Node000023"><a xlink:title=" ">
<path fill="none" stroke="#63b8ff" d="M201.17,-308.19C210.47,-331.48 237.26,-390.99 279,-422.5 283.13,-425.62 287.67,-428.34 292.42,-430.7"/>
<polygon fill="#63b8ff" stroke="#63b8ff" points="291.2,-433.99 301.76,-434.84 294.03,-427.59 291.2,-433.99"/>
</a>
</g>
</g>
<!-- Node24 -->
<g id="Node000024" class="node">
<title>Node24</title>
<g id="a_Node000024"><a xlink:href="code__80057C60_8c.html#a0983f21ff2586cbe730227a343cc4a68" target="_top" xlink:title=" ">
<polygon fill="white" stroke="#666666" points="418,-375.5 295,-375.5 295,-345.5 418,-345.5 418,-375.5"/>
<text text-anchor="start" x="303" y="-363.5" font-family="Helvetica,sans-Serif" font-size="10.00">render_player_ground</text>
<text text-anchor="middle" x="356.5" y="-352.5" font-family="Helvetica,sans-Serif" font-size="10.00">_particles</text>
</a>
</g>
</g>
<!-- Node2&#45;&gt;Node24 -->
<g id="edge45_Node000002_Node000024" class="edge">
<title>Node2&#45;&gt;Node24</title>
<g id="a_edge45_Node000002_Node000024"><a xlink:title=" ">
<path fill="none" stroke="#63b8ff" d="M217,-308.09C233.35,-315.95 257.42,-327.11 279,-335.5 284.81,-337.76 290.92,-339.99 297.05,-342.14"/>
<polygon fill="#63b8ff" stroke="#63b8ff" points="296.06,-345.5 306.65,-345.43 298.33,-338.88 296.06,-345.5"/>
</a>
</g>
</g>
<!-- Node25 -->
<g id="Node000025" class="node">
<title>Node25</title>
<g id="a_Node000025"><a xlink:href="code__80057C60_8c.html#ada8729fc488d41bbb3ee7a1e4e9ff32a" target="_top" xlink:title=" ">
<polygon fill="white" stroke="#666666" points="425,-632.5 288,-632.5 288,-602.5 425,-602.5 425,-632.5"/>
<text text-anchor="start" x="296" y="-620.5" font-family="Helvetica,sans-Serif" font-size="10.00">render_remaining_battle</text>
<text text-anchor="middle" x="356.5" y="-609.5" font-family="Helvetica,sans-Serif" font-size="10.00">_balloons</text>
</a>
</g>
</g>
<!-- Node2&#45;&gt;Node25 -->
<g id="edge49_Node000002_Node000025" class="edge">
<title>Node2&#45;&gt;Node25</title>
<g id="a_edge49_Node000002_Node000025"><a xlink:title=" ">
<path fill="none" stroke="#63b8ff" d="M197.09,-308.24C195.94,-349.12 197.04,-508.67 279,-593.5 279.92,-594.46 280.89,-595.38 281.88,-596.26"/>
<polygon fill="#63b8ff" stroke="#63b8ff" points="279.99,-599.21 290.11,-602.34 284.15,-593.58 279.99,-599.21"/>
</a>
</g>
</g>
<!-- Node29 -->
<g id="Node000029" class="node">
<title>Node29</title>
<g id="a_Node000029"><a xlink:href="code__80057C60_8c.html#acfa3e2dc72a4d48ff003d661cda4be26" target="_top" xlink:title=" ">
<polygon fill="white" stroke="#666666" points="420,-215.5 293,-215.5 293,-185.5 420,-185.5 420,-215.5"/>
<text text-anchor="start" x="301" y="-203.5" font-family="Helvetica,sans-Serif" font-size="10.00">render_wall_bonk_star</text>
<text text-anchor="middle" x="356.5" y="-192.5" font-family="Helvetica,sans-Serif" font-size="10.00">_particles</text>
</a>
</g>
</g>
<!-- Node2&#45;&gt;Node29 -->
<g id="edge58_Node000002_Node000029" class="edge">
<title>Node2&#45;&gt;Node29</title>
<g id="a_edge58_Node000002_Node000029"><a xlink:title=" ">
<path fill="none" stroke="#63b8ff" d="M205.53,-288.89C219.11,-273.23 248.16,-242.18 279,-224.5 282.05,-222.75 285.24,-221.11 288.52,-219.58"/>
<polygon fill="#63b8ff" stroke="#63b8ff" points="290.13,-222.7 297.94,-215.54 287.37,-216.27 290.13,-222.7"/>
</a>
</g>
</g>
<!-- Node4 -->
<g id="Node000004" class="node">
<title>Node4</title>
<g id="a_Node000004"><a xlink:href="render__objects_8c.html#ad3138ebb08ba7415e9170b0ec276f23b" target="_top" xlink:title=" ">
<polygon fill="white" stroke="#666666" points="577.5,-413 485.5,-413 485.5,-394 577.5,-394 577.5,-413"/>
<text text-anchor="middle" x="531.5" y="-401" font-family="Helvetica,sans-Serif" font-size="10.00">func_8004B72C</text>
</a>
</g>
</g>
<!-- Node3&#45;&gt;Node4 -->
<g id="edge3_Node000003_Node000004" class="edge">
<title>Node3&#45;&gt;Node4</title>
<g id="a_edge3_Node000003_Node000004"><a xlink:title=" ">
<path fill="none" stroke="#63b8ff" d="M402.5,-403.5C424.74,-403.5 451.78,-403.5 475.26,-403.5"/>
<polygon fill="#63b8ff" stroke="#63b8ff" points="475.42,-407 485.42,-403.5 475.42,-400 475.42,-407"/>
</a>
</g>
</g>
<!-- Node5 -->
<g id="Node000005" class="node">
<title>Node5</title>
<g id="a_Node000005"><a xlink:href="code__80057C60_8c.html#ac32c3f4acf06308534948902cfc12a09" target="_top" xlink:title=" ">
<polygon fill="white" stroke="#666666" points="577.5,-332 485.5,-332 485.5,-313 577.5,-313 577.5,-332"/>
<text text-anchor="middle" x="531.5" y="-320" font-family="Helvetica,sans-Serif" font-size="10.00">func_800652D4</text>
</a>
</g>
</g>
<!-- Node3&#45;&gt;Node5 -->
<g id="edge4_Node000003_Node000005" class="edge">
<title>Node3&#45;&gt;Node5</title>
<g id="a_edge4_Node000003_Node000005"><a xlink:title=" ">
<path fill="none" stroke="#63b8ff" d="M402.81,-394.85C413.27,-392.14 424.2,-388.73 434,-384.5 462.25,-372.31 491.56,-352.25 510.35,-338.26"/>
<polygon fill="#63b8ff" stroke="#63b8ff" points="512.59,-340.95 518.44,-332.12 508.36,-335.37 512.59,-340.95"/>
</a>
</g>
</g>
<!-- Node6 -->
<g id="Node000006" class="node">
<title>Node6</title>
<g id="a_Node000006"><a xlink:href="render__player_8c.html#ab7bf9484e155990f138e03ae5339fc84" target="_top" xlink:title=" ">
<polygon fill="white" stroke="#666666" points="756,-404.5 629,-404.5 629,-374.5 756,-374.5 756,-404.5"/>
<text text-anchor="start" x="637" y="-392.5" font-family="Helvetica,sans-Serif" font-size="10.00">convert_to_fixed_point</text>
<text text-anchor="middle" x="692.5" y="-381.5" font-family="Helvetica,sans-Serif" font-size="10.00">_matrix</text>
</a>
</g>
</g>
<!-- Node5&#45;&gt;Node6 -->
<g id="edge5_Node000005_Node000006" class="edge">
<title>Node5&#45;&gt;Node6</title>
<g id="a_edge5_Node000005_Node000006"><a xlink:title=" ">
<path fill="none" stroke="#63b8ff" d="M555.28,-332.1C578.99,-342.09 616.74,-358 646.5,-370.54"/>
<polygon fill="#63b8ff" stroke="#63b8ff" points="645.28,-373.82 655.85,-374.48 648,-367.37 645.28,-373.82"/>
</a>
</g>
</g>
<!-- Node8 -->
<g id="Node000008" class="node">
<title>Node8</title>
<g id="a_Node000008"><a xlink:href="render__player_8c.html#af0b657a736763c8b33412ed9d3111a61" target="_top" xlink:title=" ">
<polygon fill="white" stroke="#666666" points="731,-337 654,-337 654,-318 731,-318 731,-337"/>
<text text-anchor="middle" x="692.5" y="-325" font-family="Helvetica,sans-Serif" font-size="10.00">mtxf_scale2</text>
</a>
</g>
</g>
<!-- Node5&#45;&gt;Node8 -->
<g id="edge7_Node000005_Node000008" class="edge">
<title>Node5&#45;&gt;Node8</title>
<g id="a_edge7_Node000005_Node000008"><a xlink:title=" ">
<path fill="none" stroke="#63b8ff" d="M577.64,-323.92C598.22,-324.57 622.6,-325.33 643.51,-325.99"/>
<polygon fill="#63b8ff" stroke="#63b8ff" points="643.67,-329.5 653.78,-326.31 643.89,-322.5 643.67,-329.5"/>
</a>
</g>
</g>
<!-- Node9 -->
<g id="Node000009" class="node">
<title>Node9</title>
<g id="a_Node000009"><a xlink:href="render__player_8c.html#a565e21fd6aa0dacea58fb8a0e4304772" target="_top" xlink:title=" ">
<polygon fill="white" stroke="#666666" points="754,-489 631,-489 631,-470 754,-470 754,-489"/>
<text text-anchor="middle" x="692.5" y="-477" font-family="Helvetica,sans-Serif" font-size="10.00">mtxf_translate_rotate</text>
</a>
</g>
</g>
<!-- Node5&#45;&gt;Node9 -->
<g id="edge8_Node000005_Node000009" class="edge">
<title>Node5&#45;&gt;Node9</title>
<g id="a_edge8_Node000005_Node000009"><a xlink:title=" ">
<path fill="none" stroke="#63b8ff" d="M542.45,-332.32C568.88,-358.42 641.13,-429.76 674.36,-462.58"/>
<polygon fill="#63b8ff" stroke="#63b8ff" points="671.98,-465.15 681.56,-469.68 676.9,-460.17 671.98,-465.15"/>
</a>
</g>
</g>
<!-- Node7 -->
<g id="Node000007" class="node">
<title>Node7</title>
<g id="a_Node000007"><a xlink:href="guMtxF2L_8c.html#a40ab2d64c609839ff1e0ef0de2d0dcc4" target="_top" xlink:title=" ">
<polygon fill="white" stroke="#666666" points="857,-399 792,-399 792,-380 857,-380 857,-399"/>
<text text-anchor="middle" x="824.5" y="-387" font-family="Helvetica,sans-Serif" font-size="10.00">guMtxF2L</text>
</a>
</g>
</g>
<!-- Node6&#45;&gt;Node7 -->
<g id="edge6_Node000006_Node000007" class="edge">
<title>Node6&#45;&gt;Node7</title>
<g id="a_edge6_Node000006_Node000007"><a xlink:title=" ">
<path fill="none" stroke="#63b8ff" d="M756.22,-389.5C764.79,-389.5 773.42,-389.5 781.51,-389.5"/>
<polygon fill="#63b8ff" stroke="#63b8ff" points="781.77,-393 791.77,-389.5 781.77,-386 781.77,-393"/>
</a>
</g>
</g>
<!-- Node10 -->
<g id="Node000010" class="node">
<title>Node10</title>
<g id="a_Node000010"><a xlink:href="math__util_8c.html#a5eb0d9752bc1557b7f4ae3809352a0eb" target="_top" xlink:title=" ">
<polygon fill="white" stroke="#666666" points="843.5,-603 805.5,-603 805.5,-584 843.5,-584 843.5,-603"/>
<text text-anchor="middle" x="824.5" y="-591" font-family="Helvetica,sans-Serif" font-size="10.00">coss</text>
</a>
</g>
</g>
<!-- Node9&#45;&gt;Node10 -->
<g id="edge9_Node000009_Node000010" class="edge">
<title>Node9&#45;&gt;Node10</title>
<g id="a_edge9_Node000009_Node000010"><a xlink:title=" ">
<path fill="none" stroke="#63b8ff" d="M704.58,-489.22C726.84,-508.74 777.19,-552.89 804.7,-577.01"/>
<polygon fill="#63b8ff" stroke="#63b8ff" points="802.62,-579.84 812.44,-583.81 807.23,-574.58 802.62,-579.84"/>
</a>
</g>
</g>
<!-- Node11 -->
<g id="Node000011" class="node">
<title>Node11</title>
<g id="a_Node000011"><a xlink:href="math__util_8c.html#adcf81d47666b5d86c4a1dbcb06e47faf" target="_top" xlink:title=" ">
<polygon fill="white" stroke="#666666" points="842.5,-489 806.5,-489 806.5,-470 842.5,-470 842.5,-489"/>
<text text-anchor="middle" x="824.5" y="-477" font-family="Helvetica,sans-Serif" font-size="10.00">sins</text>
</a>
</g>
</g>
<!-- Node9&#45;&gt;Node11 -->
<g id="edge10_Node000009_Node000011" class="edge">
<title>Node9&#45;&gt;Node11</title>
<g id="a_edge10_Node000009_Node000011"><a xlink:title=" ">
<path fill="none" stroke="#63b8ff" d="M754.31,-479.5C768.88,-479.5 783.74,-479.5 795.93,-479.5"/>
<polygon fill="#63b8ff" stroke="#63b8ff" points="796.29,-483 806.29,-479.5 796.29,-476 796.29,-483"/>
</a>
</g>
</g>
<!-- Node12&#45;&gt;Node5 -->
<g id="edge13_Node000012_Node000005" class="edge">
<title>Node12&#45;&gt;Node5</title>
<g id="a_edge13_Node000012_Node000005"><a xlink:title=" ">
<path fill="none" stroke="#63b8ff" d="M398.42,-290.03C409.93,-292.73 422.46,-295.71 434,-298.5 449.83,-302.33 467.1,-306.6 482.59,-310.46"/>
<polygon fill="#63b8ff" stroke="#63b8ff" points="481.94,-313.9 492.49,-312.93 483.63,-307.11 481.94,-313.9"/>
</a>
</g>
</g>
<!-- Node13 -->
<g id="Node000013" class="node">
<title>Node13</title>
<g id="a_Node000013"><a xlink:href="render__objects_8c.html#a6b0955bb181f1c4da816f44baf21bc5d" target="_top" xlink:title=" ">
<polygon fill="white" stroke="#666666" points="577.5,-189 485.5,-189 485.5,-170 577.5,-170 577.5,-189"/>
<text text-anchor="middle" x="531.5" y="-177" font-family="Helvetica,sans-Serif" font-size="10.00">func_8004B35C</text>
</a>
</g>
</g>
<!-- Node12&#45;&gt;Node13 -->
<g id="edge12_Node000012_Node000013" class="edge">
<title>Node12&#45;&gt;Node13</title>
<g id="a_edge12_Node000012_Node000013"><a xlink:title=" ">
<path fill="none" stroke="#63b8ff" d="M402.04,-273.09C412.86,-270.32 424.14,-266.56 434,-261.5 466.38,-244.89 497.22,-215.49 514.99,-196.77"/>
<polygon fill="#63b8ff" stroke="#63b8ff" points="517.74,-198.95 521.98,-189.24 512.61,-194.19 517.74,-198.95"/>
</a>
</g>
</g>
<!-- Node14&#45;&gt;Node5 -->
<g id="edge16_Node000014_Node000005" class="edge">
<title>Node14&#45;&gt;Node5</title>
<g id="a_edge16_Node000014_Node000005"><a xlink:title=" ">
<path fill="none" stroke="#63b8ff" d="M403.05,-572.33C414.48,-569.68 425.8,-564.89 434,-556.5 488.27,-500.94 433.7,-454.16 470,-385.5 479.74,-367.07 496.47,-350.27 509.87,-338.66"/>
<polygon fill="#63b8ff" stroke="#63b8ff" points="512.25,-341.23 517.69,-332.13 507.77,-335.85 512.25,-341.23"/>
</a>
</g>
</g>
<!-- Node14&#45;&gt;Node10 -->
<g id="edge15_Node000014_Node000010" class="edge">
<title>Node14&#45;&gt;Node10</title>
<g id="a_edge15_Node000014_Node000010"><a xlink:title=" ">
<path fill="none" stroke="#63b8ff" d="M397.28,-584.05C409.13,-586.99 422.11,-590.29 434,-593.5 574.3,-631.41 619.51,-700.42 756,-650.5 777.47,-642.65 796.82,-624.61 809.25,-610.92"/>
<polygon fill="#63b8ff" stroke="#63b8ff" points="812.13,-612.93 816.04,-603.08 806.85,-608.34 812.13,-612.93"/>
</a>
</g>
</g>
<!-- Node14&#45;&gt;Node11 -->
<g id="edge17_Node000014_Node000011" class="edge">
<title>Node14&#45;&gt;Node11</title>
<g id="a_edge17_Node000014_Node000011"><a xlink:title=" ">
<path fill="none" stroke="#63b8ff" d="M403.24,-568.29C413.79,-565.64 424.66,-561.87 434,-556.5 454.17,-544.9 450.52,-531.22 470,-518.5 532.86,-477.47 555.04,-474.36 629,-461.5 684.61,-451.83 700.03,-454.17 756,-461.5 769.62,-463.29 784.41,-467.02 796.66,-470.62"/>
<polygon fill="#63b8ff" stroke="#63b8ff" points="795.68,-473.98 806.27,-473.57 797.74,-467.29 795.68,-473.98"/>
</a>
</g>
</g>
<!-- Node15&#45;&gt;Node5 -->
<g id="edge20_Node000015_Node000005" class="edge">
<title>Node15&#45;&gt;Node5</title>
<g id="a_edge20_Node000015_Node000005"><a xlink:title=" ">
<path fill="none" stroke="#63b8ff" d="M402.39,-251.43C412.97,-254.02 424.06,-257.33 434,-261.5 462.24,-273.35 491.55,-293.12 510.35,-306.93"/>
<polygon fill="#63b8ff" stroke="#63b8ff" points="508.34,-309.8 518.44,-312.99 512.53,-304.2 508.34,-309.8"/>
</a>
</g>
</g>
<!-- Node15&#45;&gt;Node13 -->
<g id="edge19_Node000015_Node000013" class="edge">
<title>Node15&#45;&gt;Node13</title>
<g id="a_edge19_Node000015_Node000013"><a xlink:title=" ">
<path fill="none" stroke="#63b8ff" d="M402.02,-233.98C412.62,-231.29 423.81,-228.1 434,-224.5 458.3,-215.91 484.76,-203.32 503.82,-193.65"/>
<polygon fill="#63b8ff" stroke="#63b8ff" points="505.51,-196.71 512.79,-189.02 502.3,-190.49 505.51,-196.71"/>
</a>
</g>
</g>
<!-- Node16&#45;&gt;Node4 -->
<g id="edge22_Node000016_Node000004" class="edge">
<title>Node16&#45;&gt;Node4</title>
<g id="a_edge22_Node000016_Node000004"><a xlink:title=" ">
<path fill="none" stroke="#63b8ff" d="M402.18,-533.74C413.6,-530.94 425.14,-526.25 434,-518.5 466.73,-489.86 439.26,-458.27 470,-427.5 473.89,-423.6 478.5,-420.32 483.4,-417.56"/>
<polygon fill="#63b8ff" stroke="#63b8ff" points="485.01,-420.67 492.46,-413.13 481.94,-414.38 485.01,-420.67"/>
</a>
</g>
</g>
<!-- Node16&#45;&gt;Node5 -->
<g id="edge23_Node000016_Node000005" class="edge">
<title>Node16&#45;&gt;Node5</title>
<g id="a_edge23_Node000016_Node000005"><a xlink:title=" ">
<path fill="none" stroke="#63b8ff" d="M402.38,-534.48C413.93,-531.69 425.49,-526.83 434,-518.5 477.75,-475.65 439.85,-438.8 470,-385.5 480.32,-367.25 497.15,-350.33 510.44,-338.63"/>
<polygon fill="#63b8ff" stroke="#63b8ff" points="512.82,-341.2 518.17,-332.06 508.28,-335.87 512.82,-341.2"/>
</a>
</g>
</g>
<!-- Node17&#45;&gt;Node5 -->
<g id="edge26_Node000017_Node000005" class="edge">
<title>Node17&#45;&gt;Node5</title>
<g id="a_edge26_Node000017_Node000005"><a xlink:title=" ">
<path fill="none" stroke="#63b8ff" d="M402.38,-162.82C413.42,-165.64 424.72,-169.95 434,-176.5 480.37,-209.26 510.47,-271.99 523.34,-303.48"/>
<polygon fill="#63b8ff" stroke="#63b8ff" points="520.11,-304.85 527.04,-312.87 526.63,-302.29 520.11,-304.85"/>
</a>
</g>
</g>
<!-- Node17&#45;&gt;Node13 -->
<g id="edge25_Node000017_Node000013" class="edge">
<title>Node17&#45;&gt;Node13</title>
<g id="a_edge25_Node000017_Node000013"><a xlink:title=" ">
<path fill="none" stroke="#63b8ff" d="M402.05,-163.17C424.38,-166 451.62,-169.47 475.27,-172.48"/>
<polygon fill="#63b8ff" stroke="#63b8ff" points="475.14,-175.99 485.5,-173.78 476.02,-169.04 475.14,-175.99"/>
</a>
</g>
</g>
<!-- Node18&#45;&gt;Node5 -->
<g id="edge29_Node000018_Node000005" class="edge">
<title>Node18&#45;&gt;Node5</title>
<g id="a_edge29_Node000018_Node000005"><a xlink:title=" ">
<path fill="none" stroke="#63b8ff" d="M402.83,-124.55C413.86,-127.23 425.05,-131.56 434,-138.5 448.48,-149.73 500.76,-259.03 521.72,-303.66"/>
<polygon fill="#63b8ff" stroke="#63b8ff" points="518.6,-305.27 526.01,-312.84 524.94,-302.3 518.6,-305.27"/>
</a>
</g>
</g>
<!-- Node18&#45;&gt;Node13 -->
<g id="edge28_Node000018_Node000013" class="edge">
<title>Node18&#45;&gt;Node13</title>
<g id="a_edge28_Node000018_Node000013"><a xlink:title=" ">
<path fill="none" stroke="#63b8ff" d="M402.76,-129.8C413.12,-132.3 424.02,-135.23 434,-138.5 457.13,-146.07 482.42,-156.92 501.31,-165.55"/>
<polygon fill="#63b8ff" stroke="#63b8ff" points="500.01,-168.81 510.55,-169.84 502.95,-162.46 500.01,-168.81"/>
</a>
</g>
</g>
<!-- Node19&#45;&gt;Node5 -->
<g id="edge32_Node000019_Node000005" class="edge">
<title>Node19&#45;&gt;Node5</title>
<g id="a_edge32_Node000019_Node000005"><a xlink:title=" ">
<path fill="none" stroke="#63b8ff" d="M403.41,-318.83C425.47,-319.46 452.08,-320.23 475.25,-320.9"/>
<polygon fill="#63b8ff" stroke="#63b8ff" points="475.18,-324.4 485.28,-321.19 475.38,-317.41 475.18,-324.4"/>
</a>
</g>
</g>
<!-- Node19&#45;&gt;Node13 -->
<g id="edge31_Node000019_Node000013" class="edge">
<title>Node19&#45;&gt;Node13</title>
<g id="a_edge31_Node000019_Node000013"><a xlink:title=" ">
<path fill="none" stroke="#63b8ff" d="M403.16,-311.24C413.83,-308.43 424.76,-304.37 434,-298.5 474.2,-272.93 505.39,-224.89 520.49,-198.33"/>
<polygon fill="#63b8ff" stroke="#63b8ff" points="523.71,-199.75 525.48,-189.3 517.58,-196.36 523.71,-199.75"/>
</a>
</g>
</g>
<!-- Node20&#45;&gt;Node5 -->
<g id="edge35_Node000020_Node000005" class="edge">
<title>Node20&#45;&gt;Node5</title>
<g id="a_edge35_Node000020_Node000005"><a xlink:title=" ">
<path fill="none" stroke="#63b8ff" d="M402.64,-86.61C413.93,-89.28 425.29,-93.84 434,-101.5 468.21,-131.6 452.06,-155.61 470,-197.5 486.45,-235.89 508.34,-279.57 520.78,-303.8"/>
<polygon fill="#63b8ff" stroke="#63b8ff" points="517.79,-305.63 525.49,-312.92 524.01,-302.42 517.79,-305.63"/>
</a>
</g>
</g>
<!-- Node20&#45;&gt;Node13 -->
<g id="edge34_Node000020_Node000013" class="edge">
<title>Node20&#45;&gt;Node13</title>
<g id="a_edge34_Node000020_Node000013"><a xlink:title=" ">
<path fill="none" stroke="#63b8ff" d="M402.76,-90.62C413.33,-93.23 424.32,-96.76 434,-101.5 465.71,-117.03 496.37,-144.65 514.33,-162.51"/>
<polygon fill="#63b8ff" stroke="#63b8ff" points="512.14,-165.27 521.64,-169.95 517.13,-160.36 512.14,-165.27"/>
</a>
</g>
</g>
<!-- Node21&#45;&gt;Node5 -->
<g id="edge38_Node000021_Node000005" class="edge">
<title>Node21&#45;&gt;Node5</title>
<g id="a_edge38_Node000021_Node000005"><a xlink:title=" ">
<path fill="none" stroke="#63b8ff" d="M422.43,-56.16C426.64,-58.43 430.57,-61.18 434,-64.5 478.02,-107.08 448.57,-140.13 470,-197.5 484.54,-236.43 506.93,-279.61 520.01,-303.66"/>
<polygon fill="#63b8ff" stroke="#63b8ff" points="517.11,-305.65 524.99,-312.73 523.24,-302.28 517.11,-305.65"/>
</a>
</g>
</g>
<!-- Node21&#45;&gt;Node13 -->
<g id="edge37_Node000021_Node000013" class="edge">
<title>Node21&#45;&gt;Node13</title>
<g id="a_edge37_Node000021_Node000013"><a xlink:title=" ">
<path fill="none" stroke="#63b8ff" d="M415.9,-56.04C422.25,-58.29 428.42,-61.07 434,-64.5 473.75,-88.98 505.12,-135.5 520.37,-161.24"/>
<polygon fill="#63b8ff" stroke="#63b8ff" points="517.39,-163.07 525.41,-169.99 523.46,-159.58 517.39,-163.07"/>
</a>
</g>
</g>
<!-- Node22&#45;&gt;Node4 -->
<g id="edge40_Node000022_Node000004" class="edge">
<title>Node22&#45;&gt;Node4</title>
<g id="a_edge40_Node000022_Node000004"><a xlink:title=" ">
<path fill="none" stroke="#63b8ff" d="M414.75,-480.56C421.51,-477.77 428.1,-474.44 434,-470.5 454.73,-456.66 449.8,-442.1 470,-427.5 475.6,-423.45 481.98,-419.97 488.44,-417.01"/>
<polygon fill="#63b8ff" stroke="#63b8ff" points="490.02,-420.15 497.89,-413.05 487.31,-413.69 490.02,-420.15"/>
</a>
</g>
</g>
<!-- Node22&#45;&gt;Node5 -->
<g id="edge41_Node000022_Node000005" class="edge">
<title>Node22&#45;&gt;Node5</title>
<g id="a_edge41_Node000022_Node000005"><a xlink:title=" ">
<path fill="none" stroke="#63b8ff" d="M414.83,-482.69C421.81,-479.54 428.43,-475.55 434,-470.5 464.38,-442.92 447.42,-419.75 470,-385.5 481.61,-367.89 498.47,-350.81 511.45,-338.89"/>
<polygon fill="#63b8ff" stroke="#63b8ff" points="513.83,-341.46 518.94,-332.18 509.16,-336.24 513.83,-341.46"/>
</a>
</g>
</g>
<!-- Node23&#45;&gt;Node4 -->
<g id="edge43_Node000023_Node000004" class="edge">
<title>Node23&#45;&gt;Node4</title>
<g id="a_edge43_Node000023_Node000004"><a xlink:title=" ">
<path fill="none" stroke="#63b8ff" d="M411.29,-433.13C434,-427.49 460.23,-420.97 482.3,-415.48"/>
<polygon fill="#63b8ff" stroke="#63b8ff" points="483.26,-418.85 492.12,-413.04 481.57,-412.06 483.26,-418.85"/>
</a>
</g>
</g>
<!-- Node23&#45;&gt;Node5 -->
<g id="edge44_Node000023_Node000005" class="edge">
<title>Node23&#45;&gt;Node5</title>
<g id="a_edge44_Node000023_Node000005"><a xlink:title=" ">
<path fill="none" stroke="#63b8ff" d="M411.27,-433.41C419.18,-430.42 427.01,-426.82 434,-422.5 435.21,-421.75 486.85,-368 514.08,-339.63"/>
<polygon fill="#63b8ff" stroke="#63b8ff" points="516.65,-342 521.05,-332.36 511.6,-337.15 516.65,-342"/>
</a>
</g>
</g>
<!-- Node24&#45;&gt;Node4 -->
<g id="edge47_Node000024_Node000004" class="edge">
<title>Node24&#45;&gt;Node4</title>
<g id="a_edge47_Node000024_Node000004"><a xlink:title=" ">
<path fill="none" stroke="#63b8ff" d="M418.01,-375.54C439.1,-380.78 462.46,-386.59 482.4,-391.54"/>
<polygon fill="#63b8ff" stroke="#63b8ff" points="481.64,-394.96 492.19,-393.98 483.33,-388.17 481.64,-394.96"/>
</a>
</g>
</g>
<!-- Node24&#45;&gt;Node5 -->
<g id="edge48_Node000024_Node000005" class="edge">
<title>Node24&#45;&gt;Node5</title>
<g id="a_edge48_Node000024_Node000005"><a xlink:title=" ">
<path fill="none" stroke="#63b8ff" d="M418.01,-347.21C437.33,-342.96 458.57,-338.3 477.33,-334.18"/>
<polygon fill="#63b8ff" stroke="#63b8ff" points="478.17,-337.58 487.19,-332.01 476.67,-330.74 478.17,-337.58"/>
</a>
</g>
</g>
<!-- Node24&#45;&gt;Node13 -->
<g id="edge46_Node000024_Node000013" class="edge">
<title>Node24&#45;&gt;Node13</title>
<g id="a_edge46_Node000024_Node000013"><a xlink:title=" ">
<path fill="none" stroke="#63b8ff" d="M417.67,-345.47C423.49,-342.68 429.06,-339.39 434,-335.5 481.01,-298.54 510.97,-231.87 523.61,-198.96"/>
<polygon fill="#63b8ff" stroke="#63b8ff" points="527.04,-199.78 527.23,-189.18 520.47,-197.35 527.04,-199.78"/>
</a>
</g>
</g>
<!-- Node26 -->
<g id="Node000026" class="node">
<title>Node26</title>
<g id="a_Node000026"><a xlink:href="code__80057C60_8c.html#af9610418853350fef19551005d5b547b" target="_top" xlink:title=" ">
<polygon fill="white" stroke="#666666" points="593,-546 470,-546 470,-527 593,-527 593,-546"/>
<text text-anchor="middle" x="531.5" y="-534" font-family="Helvetica,sans-Serif" font-size="10.00">render_battle_balloon</text>
</a>
</g>
</g>
<!-- Node25&#45;&gt;Node26 -->
<g id="edge50_Node000025_Node000026" class="edge">
<title>Node25&#45;&gt;Node26</title>
<g id="a_edge50_Node000025_Node000026"><a xlink:title=" ">
<path fill="none" stroke="#63b8ff" d="M411.17,-602.39C418.94,-599.71 426.75,-596.73 434,-593.5 460.58,-581.67 489.03,-564.21 508.1,-551.74"/>
<polygon fill="#63b8ff" stroke="#63b8ff" points="510.26,-554.51 516.66,-546.06 506.39,-548.67 510.26,-554.51"/>
</a>
</g>
</g>
<!-- Node26&#45;&gt;Node6 -->
<g id="edge51_Node000026_Node000006" class="edge">
<title>Node26&#45;&gt;Node6</title>
<g id="a_edge51_Node000026_Node000006"><a xlink:title=" ">
<path fill="none" stroke="#63b8ff" d="M542.93,-526.85C568.05,-503.64 632.39,-444.15 667.6,-411.6"/>
<polygon fill="#63b8ff" stroke="#63b8ff" points="670.09,-414.06 675.06,-404.7 665.34,-408.92 670.09,-414.06"/>
</a>
</g>
</g>
<!-- Node26&#45;&gt;Node8 -->
<g id="edge54_Node000026_Node000008" class="edge">
<title>Node26&#45;&gt;Node8</title>
<g id="a_edge54_Node000026_Node000008"><a xlink:title=" ">
<path fill="none" stroke="#63b8ff" d="M537.64,-526.73C555.74,-492.42 616.14,-378.79 629,-365.5 638.11,-356.09 650.02,-348.1 661,-341.9"/>
<polygon fill="#63b8ff" stroke="#63b8ff" points="662.75,-344.93 669.92,-337.13 659.45,-338.76 662.75,-344.93"/>
</a>
</g>
</g>
<!-- Node26&#45;&gt;Node9 -->
<g id="edge55_Node000026_Node000009" class="edge">
<title>Node26&#45;&gt;Node9</title>
<g id="a_edge55_Node000026_Node000009"><a xlink:title=" ">
<path fill="none" stroke="#63b8ff" d="M559.11,-526.96C585.48,-517.51 626.06,-502.96 655.34,-492.46"/>
<polygon fill="#63b8ff" stroke="#63b8ff" points="656.57,-495.74 664.8,-489.07 654.21,-489.15 656.57,-495.74"/>
</a>
</g>
</g>
<!-- Node26&#45;&gt;Node10 -->
<g id="edge52_Node000026_Node000010" class="edge">
<title>Node26&#45;&gt;Node10</title>
<g id="a_edge52_Node000026_Node000010"><a xlink:title=" ">
<path fill="none" stroke="#63b8ff" d="M551.94,-546.02C571.07,-554.93 601.34,-567.84 629,-574.5 686.79,-588.41 756.58,-592.18 794.88,-593.17"/>
<polygon fill="#63b8ff" stroke="#63b8ff" points="795.18,-596.68 805.26,-593.39 795.33,-589.68 795.18,-596.68"/>
</a>
</g>
</g>
<!-- Node26&#45;&gt;Node11 -->
<g id="edge56_Node000026_Node000011" class="edge">
<title>Node26&#45;&gt;Node11</title>
<g id="a_edge56_Node000026_Node000011"><a xlink:title=" ">
<path fill="none" stroke="#63b8ff" d="M593.08,-527.98C638.23,-521.2 701.28,-510.82 756,-498.5 769.55,-495.45 784.42,-491.35 796.75,-487.73"/>
<polygon fill="#63b8ff" stroke="#63b8ff" points="797.84,-491.06 806.43,-484.85 795.84,-484.35 797.84,-491.06"/>
</a>
</g>
</g>
<!-- Node27 -->
<g id="Node000027" class="node">
<title>Node27</title>
<g id="a_Node000027"><a xlink:href="render__objects_8c.html#a3412bd1100bae2a7228c53d260c4c5c5" target="_top" xlink:title=" ">
<polygon fill="white" stroke="#666666" points="738.5,-565 646.5,-565 646.5,-546 738.5,-546 738.5,-565"/>
<text text-anchor="middle" x="692.5" y="-553" font-family="Helvetica,sans-Serif" font-size="10.00">func_8004B614</text>
</a>
</g>
</g>
<!-- Node26&#45;&gt;Node27 -->
<g id="edge53_Node000026_Node000027" class="edge">
<title>Node26&#45;&gt;Node27</title>
<g id="a_edge53_Node000026_Node000027"><a xlink:title=" ">
<path fill="none" stroke="#63b8ff" d="M593.06,-543.74C607.33,-545.44 622.46,-547.25 636.46,-548.92"/>
<polygon fill="#63b8ff" stroke="#63b8ff" points="636.09,-552.4 646.44,-550.12 636.92,-545.45 636.09,-552.4"/>
</a>
</g>
</g>
<!-- Node28 -->
<g id="Node000028" class="node">
<title>Node28</title>
<g id="a_Node000028"><a xlink:href="math_8h.html#a37bde043e94a6f074c78f10518fb5d99" target="_top" xlink:title=" ">
<polygon fill="white" stroke="#666666" points="712,-641 673,-641 673,-622 712,-622 712,-641"/>
<text text-anchor="middle" x="692.5" y="-629" font-family="Helvetica,sans-Serif" font-size="10.00">sqrtf</text>
</a>
</g>
</g>
<!-- Node26&#45;&gt;Node28 -->
<g id="edge57_Node000026_Node000028" class="edge">
<title>Node26&#45;&gt;Node28</title>
<g id="a_edge57_Node000026_Node000028"><a xlink:title=" ">
<path fill="none" stroke="#63b8ff" d="M543.42,-546.07C560.64,-560.8 595.61,-589.24 629,-607.5 639.77,-613.39 652.3,-618.51 663.3,-622.49"/>
<polygon fill="#63b8ff" stroke="#63b8ff" points="662.28,-625.84 672.87,-625.81 664.57,-619.22 662.28,-625.84"/>
</a>
</g>
</g>
<!-- Node29&#45;&gt;Node5 -->
<g id="edge60_Node000029_Node000005" class="edge">
<title>Node29&#45;&gt;Node5</title>
<g id="a_edge60_Node000029_Node000005"><a xlink:title=" ">
<path fill="none" stroke="#63b8ff" d="M416.05,-215.55C422.31,-218.12 428.42,-221.09 434,-224.5 469.1,-245.95 500.66,-282.91 517.55,-304.79"/>
<polygon fill="#63b8ff" stroke="#63b8ff" points="514.85,-307.02 523.66,-312.9 520.43,-302.8 514.85,-307.02"/>
</a>
</g>
</g>
<!-- Node29&#45;&gt;Node13 -->
<g id="edge59_Node000029_Node000013" class="edge">
<title>Node29&#45;&gt;Node13</title>
<g id="a_edge59_Node000029_Node000013"><a xlink:title=" ">
<path fill="none" stroke="#63b8ff" d="M420.45,-192.86C438.46,-190.67 457.94,-188.31 475.44,-186.18"/>
<polygon fill="#63b8ff" stroke="#63b8ff" points="475.98,-189.64 485.48,-184.96 475.14,-182.69 475.98,-189.64"/>
</a>
</g>
</g>
<!-- Node31 -->
<g id="Node000031" class="node">
<title>Node31</title>
<g id="a_Node000031"><a xlink:href="code__80057C60_8c.html#a92470e9e39bb079bfdbb24bf90d0ce98" target="_top" xlink:title=" ">
<polygon fill="white" stroke="#666666" points="402.5,-19 310.5,-19 310.5,0 402.5,0 402.5,-19"/>
<text text-anchor="middle" x="356.5" y="-7" font-family="Helvetica,sans-Serif" font-size="10.00">func_800658A0</text>
</a>
</g>
</g>
<!-- Node30&#45;&gt;Node31 -->
<g id="edge62_Node000030_Node000031" class="edge">
<title>Node30&#45;&gt;Node31</title>
<g id="a_edge62_Node000030_Node000031"><a xlink:title=" ">
<path fill="none" stroke="#63b8ff" d="M201.33,-134.83C210.81,-112.2 237.64,-55.6 279,-27.5 285.51,-23.08 292.96,-19.74 300.61,-17.21"/>
<polygon fill="#63b8ff" stroke="#63b8ff" points="301.69,-20.54 310.34,-14.43 299.77,-13.81 301.69,-20.54"/>
</a>
</g>
</g>
<!-- Node31&#45;&gt;Node5 -->
<g id="edge64_Node000031_Node000005" class="edge">
<title>Node31&#45;&gt;Node5</title>
<g id="a_edge64_Node000031_Node000005"><a xlink:title=" ">
<path fill="none" stroke="#63b8ff" d="M402.65,-11.58C414.21,-14.22 425.7,-19.01 434,-27.5 488,-82.72 444.99,-124.43 470,-197.5 483.52,-237 506.42,-280.25 519.84,-304.11"/>
<polygon fill="#63b8ff" stroke="#63b8ff" points="516.8,-305.85 524.79,-312.8 522.88,-302.38 516.8,-305.85"/>
</a>
</g>
</g>
<!-- Node31&#45;&gt;Node13 -->
<g id="edge63_Node000031_Node000013" class="edge">
<title>Node31&#45;&gt;Node13</title>
<g id="a_edge63_Node000031_Node000013"><a xlink:title=" ">
<path fill="none" stroke="#63b8ff" d="M402.84,-14.16C413.76,-16.84 424.88,-21.02 434,-27.5 481.83,-61.51 511.41,-127.41 523.78,-160.11"/>
<polygon fill="#63b8ff" stroke="#63b8ff" points="520.61,-161.64 527.32,-169.84 527.19,-159.25 520.61,-161.64"/>
</a>
</g>
</g>
</g>
</svg>
