<?xml version="1.0" encoding="UTF-8" standalone="no"?>
<!DOCTYPE svg PUBLIC "-//W3C//DTD SVG 1.1//EN"
 "http://www.w3.org/Graphics/SVG/1.1/DTD/svg11.dtd">
<!-- Generated by graphviz version 2.43.0 (0)
 -->
<!-- Title: func_80086C6C Pages: 1 -->
<svg width="670pt" height="332pt"
 viewBox="0.00 0.00 670.00 332.00" xmlns="http://www.w3.org/2000/svg" xmlns:xlink="http://www.w3.org/1999/xlink">
<g id="graph0" class="graph" transform="scale(1 1) rotate(0) translate(4 328)">
<title>func_80086C6C</title>
<polygon fill="white" stroke="transparent" points="-4,4 -4,-328 666,-328 666,4 -4,4"/>
<!-- Node1 -->
<g id="node1" class="node">
<title>Node1</title>
<g id="a_node1"><a xlink:title=" ">
<polygon fill="#bfbfbf" stroke="black" points="0,-85.5 0,-104.5 92,-104.5 92,-85.5 0,-85.5"/>
<text text-anchor="middle" x="46" y="-92.5" font-family="Helvetica,sans-Serif" font-size="10.00">func_80086C6C</text>
</a>
</g>
</g>
<!-- Node2 -->
<g id="node2" class="node">
<title>Node2</title>
<g id="a_node2"><a xlink:href="code__80071F00_8c.html#ac2a59961da8fbb6c838ebe653488ac1e" target="_top" xlink:title=" ">
<polygon fill="white" stroke="black" points="128,-133.5 128,-152.5 220,-152.5 220,-133.5 128,-133.5"/>
<text text-anchor="middle" x="174" y="-140.5" font-family="Helvetica,sans-Serif" font-size="10.00">func_800773D8</text>
</a>
</g>
</g>
<!-- Node1&#45;&gt;Node2 -->
<g id="edge1" class="edge">
<title>Node1&#45;&gt;Node2</title>
<path fill="none" stroke="midnightblue" d="M72.2,-104.6C91.17,-111.83 117.4,-121.82 138.34,-129.8"/>
<polygon fill="midnightblue" stroke="midnightblue" points="137.26,-133.13 147.85,-133.42 139.75,-126.59 137.26,-133.13"/>
</g>
<!-- Node16 -->
<g id="node16" class="node">
<title>Node16</title>
<g id="a_node16"><a xlink:href="math__util_8c.html#a151b63b8adf9af7e4054b3b84bd226dc" target="_top" xlink:title=" ">
<polygon fill="white" stroke="black" points="411,-0.5 411,-19.5 483,-19.5 483,-0.5 411,-0.5"/>
<text text-anchor="middle" x="447" y="-7.5" font-family="Helvetica,sans-Serif" font-size="10.00">random_int</text>
</a>
</g>
</g>
<!-- Node1&#45;&gt;Node16 -->
<g id="edge17" class="edge">
<title>Node1&#45;&gt;Node16</title>
<path fill="none" stroke="midnightblue" d="M91.61,-85.5C168.29,-69.16 324.24,-35.94 401.11,-19.56"/>
<polygon fill="midnightblue" stroke="midnightblue" points="401.92,-22.97 410.97,-17.46 400.46,-16.12 401.92,-22.97"/>
</g>
<!-- Node3 -->
<g id="node3" class="node">
<title>Node3</title>
<g id="a_node3"><a xlink:href="code__80071F00_8c.html#ad0d318d573b0eef80c19e6abde93957f" target="_top" xlink:title=" ">
<polygon fill="white" stroke="black" points="256,-237.5 256,-256.5 347,-256.5 347,-237.5 256,-237.5"/>
<text text-anchor="middle" x="301.5" y="-244.5" font-family="Helvetica,sans-Serif" font-size="10.00">func_80072044</text>
</a>
</g>
</g>
<!-- Node2&#45;&gt;Node3 -->
<g id="edge2" class="edge">
<title>Node2&#45;&gt;Node3</title>
<path fill="none" stroke="midnightblue" d="M186.58,-152.6C208.16,-170.48 254.7,-209.04 281.13,-230.95"/>
<polygon fill="midnightblue" stroke="midnightblue" points="279.01,-233.74 288.95,-237.43 283.48,-228.35 279.01,-233.74"/>
</g>
<!-- Node5 -->
<g id="node5" class="node">
<title>Node5</title>
<g id="a_node5"><a xlink:href="code__80071F00_8c.html#a7a15227b6e14073ee36df181fef6c608" target="_top" xlink:title=" ">
<polygon fill="white" stroke="black" points="256,-133.5 256,-152.5 347,-152.5 347,-133.5 256,-133.5"/>
<text text-anchor="middle" x="301.5" y="-140.5" font-family="Helvetica,sans-Serif" font-size="10.00">func_80077138</text>
</a>
</g>
</g>
<!-- Node2&#45;&gt;Node5 -->
<g id="edge4" class="edge">
<title>Node2&#45;&gt;Node5</title>
<path fill="none" stroke="midnightblue" d="M220.31,-143C228.49,-143 237.11,-143 245.54,-143"/>
<polygon fill="midnightblue" stroke="midnightblue" points="245.68,-146.5 255.68,-143 245.68,-139.5 245.68,-146.5"/>
</g>
<!-- Node4 -->
<g id="node4" class="node">
<title>Node4</title>
<g id="a_node4"><a xlink:href="code__80071F00_8c.html#a92856990c4ca5fba1b8e0c61ca832c27" target="_top" xlink:title=" ">
<polygon fill="white" stroke="black" points="383,-304.5 383,-323.5 511,-323.5 511,-304.5 383,-304.5"/>
<text text-anchor="middle" x="447" y="-311.5" font-family="Helvetica,sans-Serif" font-size="10.00">find_unused_obj_index</text>
</a>
</g>
</g>
<!-- Node3&#45;&gt;Node4 -->
<g id="edge3" class="edge">
<title>Node3&#45;&gt;Node4</title>
<path fill="none" stroke="midnightblue" d="M316.19,-256.59C331.77,-267.15 358.29,-284.1 383,-295 388.1,-297.25 393.54,-299.33 399,-301.22"/>
<polygon fill="midnightblue" stroke="midnightblue" points="398.21,-304.65 408.81,-304.43 400.39,-297.99 398.21,-304.65"/>
</g>
<!-- Node6 -->
<g id="node6" class="node">
<title>Node6</title>
<g id="a_node6"><a xlink:href="code__80057C60_8c.html#aa09b6bb34463305d2a0af3f8dc1c9a64" target="_top" xlink:title=" ">
<polygon fill="white" stroke="black" points="401,-266.5 401,-285.5 493,-285.5 493,-266.5 401,-266.5"/>
<text text-anchor="middle" x="447" y="-273.5" font-family="Helvetica,sans-Serif" font-size="10.00">func_8005C674</text>
</a>
</g>
</g>
<!-- Node5&#45;&gt;Node6 -->
<g id="edge5" class="edge">
<title>Node5&#45;&gt;Node6</title>
<path fill="none" stroke="midnightblue" d="M306.58,-152.58C316.4,-174.49 343.49,-228.53 383,-257 385.69,-258.94 388.58,-260.68 391.58,-262.25"/>
<polygon fill="midnightblue" stroke="midnightblue" points="390.33,-265.52 400.88,-266.44 393.2,-259.14 390.33,-265.52"/>
</g>
<!-- Node7 -->
<g id="node7" class="node">
<title>Node7</title>
<g id="a_node7"><a xlink:href="code__80057C60_8c.html#a9f690948101d952541b82c26854f78dd" target="_top" xlink:title=" ">
<polygon fill="white" stroke="black" points="401,-228.5 401,-247.5 493,-247.5 493,-228.5 401,-228.5"/>
<text text-anchor="middle" x="447" y="-235.5" font-family="Helvetica,sans-Serif" font-size="10.00">func_8005C6B4</text>
</a>
</g>
</g>
<!-- Node5&#45;&gt;Node7 -->
<g id="edge6" class="edge">
<title>Node5&#45;&gt;Node7</title>
<path fill="none" stroke="midnightblue" d="M310.11,-152.66C323.28,-168.74 351.89,-200.99 383,-219 386.73,-221.16 390.72,-223.09 394.82,-224.82"/>
<polygon fill="midnightblue" stroke="midnightblue" points="393.93,-228.22 404.52,-228.49 396.41,-221.68 393.93,-228.22"/>
</g>
<!-- Node8 -->
<g id="node8" class="node">
<title>Node8</title>
<g id="a_node8"><a xlink:href="code__80086E70_8c.html#a1cd6a78cf091bd496e83739902c652a7" target="_top" xlink:title=" ">
<polygon fill="white" stroke="black" points="401,-190.5 401,-209.5 493,-209.5 493,-190.5 401,-190.5"/>
<text text-anchor="middle" x="447" y="-197.5" font-family="Helvetica,sans-Serif" font-size="10.00">func_8008751C</text>
</a>
</g>
</g>
<!-- Node5&#45;&gt;Node8 -->
<g id="edge7" class="edge">
<title>Node5&#45;&gt;Node8</title>
<path fill="none" stroke="midnightblue" d="M320.71,-152.55C336.81,-160.76 361.07,-172.57 383,-181 388.88,-183.26 395.15,-185.43 401.36,-187.44"/>
<polygon fill="midnightblue" stroke="midnightblue" points="400.44,-190.82 411.03,-190.46 402.53,-184.13 400.44,-190.82"/>
</g>
<!-- Node11 -->
<g id="node11" class="node">
<title>Node11</title>
<g id="a_node11"><a xlink:href="code__80086E70_8c.html#a925609e6a022913e4442f91da642e437" target="_top" xlink:title=" ">
<polygon fill="white" stroke="black" points="400.5,-152.5 400.5,-171.5 493.5,-171.5 493.5,-152.5 400.5,-152.5"/>
<text text-anchor="middle" x="447" y="-159.5" font-family="Helvetica,sans-Serif" font-size="10.00">func_8008B7D4</text>
</a>
</g>
</g>
<!-- Node5&#45;&gt;Node11 -->
<g id="edge10" class="edge">
<title>Node5&#45;&gt;Node11</title>
<path fill="none" stroke="midnightblue" d="M347.12,-148.91C360.76,-150.71 375.93,-152.72 390.21,-154.61"/>
<polygon fill="midnightblue" stroke="midnightblue" points="390.05,-158.12 400.42,-155.97 390.97,-151.18 390.05,-158.12"/>
</g>
<!-- Node12 -->
<g id="node12" class="node">
<title>Node12</title>
<g id="a_node12"><a xlink:href="code__80086E70_8c.html#aaec540b89607cbfe79478fa9a3be642e" target="_top" xlink:title=" ">
<polygon fill="white" stroke="black" points="401,-114.5 401,-133.5 493,-133.5 493,-114.5 401,-114.5"/>
<text text-anchor="middle" x="447" y="-121.5" font-family="Helvetica,sans-Serif" font-size="10.00">func_8008B80C</text>
</a>
</g>
</g>
<!-- Node5&#45;&gt;Node12 -->
<g id="edge11" class="edge">
<title>Node5&#45;&gt;Node12</title>
<path fill="none" stroke="midnightblue" d="M347.12,-137.09C360.89,-135.27 376.22,-133.24 390.63,-131.33"/>
<polygon fill="midnightblue" stroke="midnightblue" points="391.46,-134.75 400.92,-129.97 390.54,-127.81 391.46,-134.75"/>
</g>
<!-- Node13 -->
<g id="node13" class="node">
<title>Node13</title>
<g id="a_node13"><a xlink:href="code__80086E70_8c.html#af02c0c488214c8679a92743da1214311" target="_top" xlink:title=" ">
<polygon fill="white" stroke="black" points="400.5,-76.5 400.5,-95.5 493.5,-95.5 493.5,-76.5 400.5,-76.5"/>
<text text-anchor="middle" x="447" y="-83.5" font-family="Helvetica,sans-Serif" font-size="10.00">func_8008B8BC</text>
</a>
</g>
</g>
<!-- Node5&#45;&gt;Node13 -->
<g id="edge12" class="edge">
<title>Node5&#45;&gt;Node13</title>
<path fill="none" stroke="midnightblue" d="M320.71,-133.45C336.81,-125.24 361.07,-113.43 383,-105 388.88,-102.74 395.15,-100.57 401.36,-98.56"/>
<polygon fill="midnightblue" stroke="midnightblue" points="402.53,-101.87 411.03,-95.54 400.44,-95.18 402.53,-101.87"/>
</g>
<!-- Node14 -->
<g id="node14" class="node">
<title>Node14</title>
<g id="a_node14"><a xlink:href="code__80071F00_8c.html#abdebd086b5ff081f83af3d9205f39cd3" target="_top" xlink:title=" ">
<polygon fill="white" stroke="black" points="413,-38.5 413,-57.5 481,-57.5 481,-38.5 413,-38.5"/>
<text text-anchor="middle" x="447" y="-45.5" font-family="Helvetica,sans-Serif" font-size="10.00">init_object</text>
</a>
</g>
</g>
<!-- Node5&#45;&gt;Node14 -->
<g id="edge13" class="edge">
<title>Node5&#45;&gt;Node14</title>
<path fill="none" stroke="midnightblue" d="M310.11,-133.34C323.28,-117.26 351.89,-85.01 383,-67 389.11,-63.46 395.94,-60.52 402.79,-58.1"/>
<polygon fill="midnightblue" stroke="midnightblue" points="404.3,-61.3 412.76,-54.92 402.17,-54.63 404.3,-61.3"/>
</g>
<!-- Node5&#45;&gt;Node16 -->
<g id="edge15" class="edge">
<title>Node5&#45;&gt;Node16</title>
<path fill="none" stroke="midnightblue" d="M306.58,-133.42C316.4,-111.51 343.49,-57.47 383,-29 388.48,-25.05 394.79,-21.91 401.25,-19.42"/>
<polygon fill="midnightblue" stroke="midnightblue" points="402.4,-22.73 410.75,-16.21 400.16,-16.1 402.4,-22.73"/>
</g>
<!-- Node9 -->
<g id="node9" class="node">
<title>Node9</title>
<g id="a_node9"><a xlink:href="math__util_8c.html#ae69cbf5c8d4b3b0dba2d7b4d4673689f" target="_top" xlink:title=" ">
<polygon fill="white" stroke="black" points="585.5,-209.5 585.5,-228.5 623.5,-228.5 623.5,-209.5 585.5,-209.5"/>
<text text-anchor="middle" x="604.5" y="-216.5" font-family="Helvetica,sans-Serif" font-size="10.00">coss</text>
</a>
</g>
</g>
<!-- Node8&#45;&gt;Node9 -->
<g id="edge8" class="edge">
<title>Node8&#45;&gt;Node9</title>
<path fill="none" stroke="midnightblue" d="M493.4,-205.55C519.86,-208.78 552.42,-212.76 575.24,-215.55"/>
<polygon fill="midnightblue" stroke="midnightblue" points="574.93,-219.04 585.29,-216.77 575.78,-212.09 574.93,-219.04"/>
</g>
<!-- Node10 -->
<g id="node10" class="node">
<title>Node10</title>
<g id="a_node10"><a xlink:href="math__util_8c.html#a19ed3bd78fd2d3e2bd0a29f6caf48545" target="_top" xlink:title=" ">
<polygon fill="white" stroke="black" points="586.5,-171.5 586.5,-190.5 622.5,-190.5 622.5,-171.5 586.5,-171.5"/>
<text text-anchor="middle" x="604.5" y="-178.5" font-family="Helvetica,sans-Serif" font-size="10.00">sins</text>
</a>
</g>
</g>
<!-- Node8&#45;&gt;Node10 -->
<g id="edge9" class="edge">
<title>Node8&#45;&gt;Node10</title>
<path fill="none" stroke="midnightblue" d="M493.4,-194.45C520.33,-191.16 553.56,-187.1 576.43,-184.31"/>
<polygon fill="midnightblue" stroke="midnightblue" points="576.95,-187.77 586.45,-183.08 576.1,-180.82 576.95,-187.77"/>
</g>
<!-- Node15 -->
<g id="node15" class="node">
<title>Node15</title>
<g id="a_node15"><a xlink:href="code__80071F00_8c.html#a4b4f00a7df0f9bc44914cd922c3cd51b" target="_top" xlink:title=" ">
<polygon fill="white" stroke="black" points="547,-38.5 547,-57.5 662,-57.5 662,-38.5 547,-38.5"/>
<text text-anchor="middle" x="604.5" y="-45.5" font-family="Helvetica,sans-Serif" font-size="10.00">set_object_unk_0CB</text>
</a>
</g>
</g>
<!-- Node14&#45;&gt;Node15 -->
<g id="edge14" class="edge">
<title>Node14&#45;&gt;Node15</title>
<path fill="none" stroke="midnightblue" d="M481.36,-48C497.55,-48 517.6,-48 536.74,-48"/>
<polygon fill="midnightblue" stroke="midnightblue" points="536.94,-51.5 546.94,-48 536.94,-44.5 536.94,-51.5"/>
</g>
<!-- Node17 -->
<g id="node17" class="node">
<title>Node17</title>
<g id="a_node17"><a xlink:href="math__util_8c.html#a062850863585005ad1d0a75d9ff70693" target="_top" xlink:title=" ">
<polygon fill="white" stroke="black" points="566,-0.5 566,-19.5 643,-19.5 643,-0.5 566,-0.5"/>
<text text-anchor="middle" x="604.5" y="-7.5" font-family="Helvetica,sans-Serif" font-size="10.00">random_u16</text>
</a>
</g>
</g>
<!-- Node16&#45;&gt;Node17 -->
<g id="edge16" class="edge">
<title>Node16&#45;&gt;Node17</title>
<path fill="none" stroke="midnightblue" d="M483.29,-10C504.75,-10 532.45,-10 555.84,-10"/>
<polygon fill="midnightblue" stroke="midnightblue" points="555.91,-13.5 565.91,-10 555.91,-6.5 555.91,-13.5"/>
</g>
</g>
</svg>
