<?xml version="1.0" encoding="UTF-8" standalone="no"?>
<!DOCTYPE svg PUBLIC "-//W3C//DTD SVG 1.1//EN"
 "http://www.w3.org/Graphics/SVG/1.1/DTD/svg11.dtd">
<!-- Generated by graphviz version 2.43.0 (0)
 -->
<!-- Title: init_ktb_crab Pages: 1 -->
<svg width="388pt" height="235pt"
 viewBox="0.00 0.00 388.00 235.00" xmlns="http://www.w3.org/2000/svg" xmlns:xlink="http://www.w3.org/1999/xlink">
<g id="graph0" class="graph" transform="scale(1 1) rotate(0) translate(4 231)">
<title>init_ktb_crab</title>
<polygon fill="white" stroke="transparent" points="-4,4 -4,-231 384,-231 384,4 -4,4"/>
<!-- Node1 -->
<g id="node1" class="node">
<title>Node1</title>
<g id="a_node1"><a xlink:title=" ">
<polygon fill="#bfbfbf" stroke="black" points="0,-107 0,-126 80,-126 80,-107 0,-107"/>
<text text-anchor="middle" x="40" y="-114" font-family="Helvetica,sans-Serif" font-size="10.00">init_ktb_crab</text>
</a>
</g>
</g>
<!-- Node2 -->
<g id="node2" class="node">
<title>Node2</title>
<g id="a_node2"><a xlink:href="code__80071F00_8c.html#a91e6ccbfa10d972106998ad26b271c17" target="_top" xlink:title=" ">
<polygon fill="white" stroke="black" points="127,-164 127,-183 218,-183 218,-164 127,-164"/>
<text text-anchor="middle" x="172.5" y="-171" font-family="Helvetica,sans-Serif" font-size="10.00">func_80072488</text>
</a>
</g>
</g>
<!-- Node1&#45;&gt;Node2 -->
<g id="edge1" class="edge">
<title>Node1&#45;&gt;Node2</title>
<path fill="none" stroke="midnightblue" d="M58.25,-126.11C73.25,-134.25 95.69,-145.93 116,-154.5 121.04,-156.63 126.42,-158.7 131.76,-160.65"/>
<polygon fill="midnightblue" stroke="midnightblue" points="130.66,-163.97 141.26,-164 132.99,-157.37 130.66,-163.97"/>
</g>
<!-- Node5 -->
<g id="node5" class="node">
<title>Node5</title>
<g id="a_node5"><a xlink:href="code__80086E70_8c.html#a7abe2cf99895b2c65aabbcf5fc465b67" target="_top" xlink:title=" ">
<polygon fill="white" stroke="black" points="126.5,-202 126.5,-221 218.5,-221 218.5,-202 126.5,-202"/>
<text text-anchor="middle" x="172.5" y="-209" font-family="Helvetica,sans-Serif" font-size="10.00">func_80086EAC</text>
</a>
</g>
</g>
<!-- Node1&#45;&gt;Node5 -->
<g id="edge4" class="edge">
<title>Node1&#45;&gt;Node5</title>
<path fill="none" stroke="midnightblue" d="M48.01,-126.07C60.16,-142.01 86.65,-174.06 116,-192.5 119.21,-194.51 122.65,-196.35 126.2,-198"/>
<polygon fill="midnightblue" stroke="midnightblue" points="125.16,-201.36 135.74,-201.99 127.86,-194.9 125.16,-201.36"/>
</g>
<!-- Node6 -->
<g id="node6" class="node">
<title>Node6</title>
<g id="a_node6"><a xlink:href="code__80086E70_8c.html#aaec540b89607cbfe79478fa9a3be642e" target="_top" xlink:title=" ">
<polygon fill="white" stroke="black" points="126.5,-126 126.5,-145 218.5,-145 218.5,-126 126.5,-126"/>
<text text-anchor="middle" x="172.5" y="-133" font-family="Helvetica,sans-Serif" font-size="10.00">func_8008B80C</text>
</a>
</g>
</g>
<!-- Node1&#45;&gt;Node6 -->
<g id="edge6" class="edge">
<title>Node1&#45;&gt;Node6</title>
<path fill="none" stroke="midnightblue" d="M80.15,-122.2C91.53,-123.86 104.18,-125.7 116.35,-127.47"/>
<polygon fill="midnightblue" stroke="midnightblue" points="116.02,-130.96 126.42,-128.94 117.02,-124.03 116.02,-130.96"/>
</g>
<!-- Node7 -->
<g id="node7" class="node">
<title>Node7</title>
<g id="a_node7"><a xlink:href="code__80086E70_8c.html#af02c0c488214c8679a92743da1214311" target="_top" xlink:title=" ">
<polygon fill="white" stroke="black" points="126,-88 126,-107 219,-107 219,-88 126,-88"/>
<text text-anchor="middle" x="172.5" y="-95" font-family="Helvetica,sans-Serif" font-size="10.00">func_8008B8BC</text>
</a>
</g>
</g>
<!-- Node1&#45;&gt;Node7 -->
<g id="edge7" class="edge">
<title>Node1&#45;&gt;Node7</title>
<path fill="none" stroke="midnightblue" d="M80.15,-110.8C91.42,-109.16 103.92,-107.34 115.97,-105.58"/>
<polygon fill="midnightblue" stroke="midnightblue" points="116.56,-109.04 125.95,-104.13 115.55,-102.11 116.56,-109.04"/>
</g>
<!-- Node8 -->
<g id="node8" class="node">
<title>Node8</title>
<g id="a_node8"><a xlink:href="code__80071F00_8c.html#aaac380231c672b17a8fda8b451572c4c" target="_top" xlink:title=" ">
<polygon fill="white" stroke="black" points="118.5,-50 118.5,-69 226.5,-69 226.5,-50 118.5,-50"/>
<text text-anchor="middle" x="172.5" y="-57" font-family="Helvetica,sans-Serif" font-size="10.00">init_texture_object</text>
</a>
</g>
</g>
<!-- Node1&#45;&gt;Node8 -->
<g id="edge8" class="edge">
<title>Node1&#45;&gt;Node8</title>
<path fill="none" stroke="midnightblue" d="M58.25,-106.89C73.25,-98.75 95.69,-87.07 116,-78.5 121.04,-76.37 126.42,-74.3 131.76,-72.35"/>
<polygon fill="midnightblue" stroke="midnightblue" points="132.99,-75.63 141.26,-69 130.66,-69.03 132.99,-75.63"/>
</g>
<!-- Node9 -->
<g id="node9" class="node">
<title>Node9</title>
<g id="a_node9"><a xlink:href="code__80071F00_8c.html#a946b33c1ed166b19b04e4528c3641b9a" target="_top" xlink:title=" ">
<polygon fill="white" stroke="black" points="116,-0.5 116,-30.5 229,-30.5 229,-0.5 116,-0.5"/>
<text text-anchor="start" x="124" y="-18.5" font-family="Helvetica,sans-Serif" font-size="10.00">set_object_flag_unk</text>
<text text-anchor="middle" x="172.5" y="-7.5" font-family="Helvetica,sans-Serif" font-size="10.00">_054_true</text>
</a>
</g>
</g>
<!-- Node1&#45;&gt;Node9 -->
<g id="edge9" class="edge">
<title>Node1&#45;&gt;Node9</title>
<path fill="none" stroke="midnightblue" d="M48.41,-106.98C60.93,-91.39 87.69,-60.19 116,-40.5 118.65,-38.66 121.45,-36.9 124.34,-35.24"/>
<polygon fill="midnightblue" stroke="midnightblue" points="126,-38.32 133.16,-30.51 122.7,-32.14 126,-38.32"/>
</g>
<!-- Node3 -->
<g id="node3" class="node">
<title>Node3</title>
<g id="a_node3"><a xlink:href="code__80071F00_8c.html#a9d0d6fe8e02dc86bf4f9f8c8214ee326" target="_top" xlink:title=" ">
<polygon fill="white" stroke="black" points="266,-196.5 266,-226.5 379,-226.5 379,-196.5 266,-196.5"/>
<text text-anchor="start" x="274" y="-214.5" font-family="Helvetica,sans-Serif" font-size="10.00">set_object_flag_unk</text>
<text text-anchor="middle" x="322.5" y="-203.5" font-family="Helvetica,sans-Serif" font-size="10.00">_054_false</text>
</a>
</g>
</g>
<!-- Node2&#45;&gt;Node3 -->
<g id="edge2" class="edge">
<title>Node2&#45;&gt;Node3</title>
<path fill="none" stroke="midnightblue" d="M210.85,-183.09C224.54,-186.61 240.48,-190.7 255.93,-194.66"/>
<polygon fill="midnightblue" stroke="midnightblue" points="255.42,-198.15 265.98,-197.24 257.16,-191.37 255.42,-198.15"/>
</g>
<!-- Node4 -->
<g id="node4" class="node">
<title>Node4</title>
<g id="a_node4"><a xlink:href="code__80071F00_8c.html#a4b4f00a7df0f9bc44914cd922c3cd51b" target="_top" xlink:title=" ">
<polygon fill="white" stroke="black" points="265,-158 265,-177 380,-177 380,-158 265,-158"/>
<text text-anchor="middle" x="322.5" y="-165" font-family="Helvetica,sans-Serif" font-size="10.00">set_object_unk_0CB</text>
</a>
</g>
</g>
<!-- Node2&#45;&gt;Node4 -->
<g id="edge3" class="edge">
<title>Node2&#45;&gt;Node4</title>
<path fill="none" stroke="midnightblue" d="M218.31,-171.68C229.74,-171.22 242.28,-170.71 254.56,-170.21"/>
<polygon fill="midnightblue" stroke="midnightblue" points="254.93,-173.7 264.78,-169.8 254.65,-166.71 254.93,-173.7"/>
</g>
<!-- Node5&#45;&gt;Node3 -->
<g id="edge5" class="edge">
<title>Node5&#45;&gt;Node3</title>
<path fill="none" stroke="midnightblue" d="M218.71,-211.5C230.33,-211.5 243.08,-211.5 255.51,-211.5"/>
<polygon fill="midnightblue" stroke="midnightblue" points="255.86,-215 265.86,-211.5 255.86,-208 255.86,-215"/>
</g>
</g>
</svg>
