<?xml version="1.0" encoding="UTF-8" standalone="no"?>
<!DOCTYPE svg PUBLIC "-//W3C//DTD SVG 1.1//EN"
 "http://www.w3.org/Graphics/SVG/1.1/DTD/svg11.dtd">
<!-- Generated by graphviz version 2.43.0 (0)
 -->
<!-- Title: func_8007CC00 Pages: 1 -->
<!--zoomable 914 -->
<svg id="main" version="1.1" xmlns="http://www.w3.org/2000/svg" xmlns:xlink="http://www.w3.org/1999/xlink" xml:space="preserve" onload="init(evt)">
<style type="text/css"><![CDATA[
.edge:hover path { stroke: red; }
.edge:hover polygon { stroke: red; fill: red; }
]]></style>
<script type="text/javascript"><![CDATA[
var edges = document.getElementsByTagName('g');
if (edges && edges.length) {
  for (var i=0;i<edges.length;i++) {
    if (edges[i].id.substr(0,4)=='edge') {
      edges[i].setAttribute('class','edge');
    }
  }
}
]]></script>
        <defs>
                <circle id="rim" cx="0" cy="0" r="7"/>
                <circle id="rim2" cx="0" cy="0" r="3.5"/>
                <g id="zoomPlus">
                        <use xlink:href="#rim" fill="#404040">
                                <set attributeName="fill" to="#808080" begin="zoomplus.mouseover" end="zoomplus.mouseout"/>
                        </use>
                        <path d="M-4,0h8M0,-4v8" fill="none" stroke="white" stroke-width="1.5" pointer-events="none"/>
                </g>
                <g id="zoomMin">
                        <use xlink:href="#rim" fill="#404040">
                                <set attributeName="fill" to="#808080" begin="zoomminus.mouseover" end="zoomminus.mouseout"/>
                        </use>
                        <path d="M-4,0h8" fill="none" stroke="white" stroke-width="1.5" pointer-events="none"/>
                </g>
                <g id="dirArrow">
                        <path fill="none" stroke="white" stroke-width="1.5" d="M0,-3.0v7 M-2.5,-0.5L0,-3.0L2.5,-0.5"/>
                </g>
               <g id="resetDef">
                       <use xlink:href="#rim2" fill="#404040">
                               <set attributeName="fill" to="#808080" begin="reset.mouseover" end="reset.mouseout"/>
                       </use>
               </g>
        </defs>

<script type="text/javascript">
var viewWidth = 809;
var viewHeight = 914;
var sectionId = 'dynsection-356';
</script>
<script xlink:href="svgpan.js"/>
<svg id="graph" class="graph">
<g id="viewport">
<title>func_8007CC00</title>
<polygon fill="white" stroke="transparent" points="-4,4 -4,-909.5 805,-909.5 805,4 -4,4"/>
<!-- Node1 -->
<g id="node1" class="node">
<title>Node1</title>
<g id="a_node1"><a xlink:title=" ">
<polygon fill="#bfbfbf" stroke="black" points="0,-278 0,-297 92,-297 92,-278 0,-278"/>
<text text-anchor="middle" x="46" y="-285" font-family="Helvetica,sans-Serif" font-size="10.00">func_8007CC00</text>
</a>
</g>
</g>
<!-- Node2 -->
<g id="node2" class="node">
<title>Node2</title>
<g id="a_node2"><a xlink:href="math__util_8c.html#ae69cbf5c8d4b3b0dba2d7b4d4673689f" target="_top" xlink:title=" ">
<polygon fill="white" stroke="black" points="155,-810 155,-829 193,-829 193,-810 155,-810"/>
<text text-anchor="middle" x="174" y="-817" font-family="Helvetica,sans-Serif" font-size="10.00">coss</text>
</a>
</g>
</g>
<!-- Node1&#45;&gt;Node2 -->
<g id="edge1" class="edge">
<title>Node1&#45;&gt;Node2</title>
<path fill="none" stroke="midnightblue" d="M47.28,-297.18C49.27,-360.67 63.27,-717.77 128,-800.5 132.35,-806.06 138.64,-810.02 145.14,-812.82"/>
<polygon fill="midnightblue" stroke="midnightblue" points="144.02,-816.14 154.61,-816.16 146.34,-809.54 144.02,-816.14"/>
</g>
<!-- Node3 -->
<g id="node3" class="node">
<title>Node3</title>
<g id="a_node3"><a xlink:href="code__80071F00_8c.html#a500b6c0828d5bc695d2ed2363ec7cdd0" target="_top" xlink:title=" ">
<polygon fill="white" stroke="black" points="128,-772 128,-791 220,-791 220,-772 128,-772"/>
<text text-anchor="middle" x="174" y="-779" font-family="Helvetica,sans-Serif" font-size="10.00">func_8007C550</text>
</a>
</g>
</g>
<!-- Node1&#45;&gt;Node3 -->
<g id="edge2" class="edge">
<title>Node1&#45;&gt;Node3</title>
<path fill="none" stroke="midnightblue" d="M48.1,-297.3C53.37,-342.6 77.88,-535.94 128,-686.5 137.19,-714.09 152.37,-744.15 162.53,-762.9"/>
<polygon fill="midnightblue" stroke="midnightblue" points="159.56,-764.77 167.46,-771.84 165.69,-761.4 159.56,-764.77"/>
</g>
<!-- Node7 -->
<g id="node7" class="node">
<title>Node7</title>
<g id="a_node7"><a xlink:href="code__80071F00_8c.html#a1b59402d886732046698cf25a21d6bf0" target="_top" xlink:title=" ">
<polygon fill="white" stroke="black" points="128,-658 128,-677 220,-677 220,-658 128,-658"/>
<text text-anchor="middle" x="174" y="-665" font-family="Helvetica,sans-Serif" font-size="10.00">func_8007C684</text>
</a>
</g>
</g>
<!-- Node1&#45;&gt;Node7 -->
<g id="edge6" class="edge">
<title>Node1&#45;&gt;Node7</title>
<path fill="none" stroke="midnightblue" d="M50.24,-297.28C66.99,-347.78 143.8,-579.44 166.6,-648.2"/>
<polygon fill="midnightblue" stroke="midnightblue" points="163.31,-649.4 169.78,-657.79 169.95,-647.2 163.31,-649.4"/>
</g>
<!-- Node30 -->
<g id="node30" class="node">
<title>Node30</title>
<g id="a_node30"><a xlink:href="code__80071F00_8c.html#a68047d89388f0b2e1b2ad75068140258" target="_top" xlink:title=" ">
<polygon fill="white" stroke="black" points="128,-278 128,-297 220,-297 220,-278 128,-278"/>
<text text-anchor="middle" x="174" y="-285" font-family="Helvetica,sans-Serif" font-size="10.00">func_8007CA70</text>
</a>
</g>
</g>
<!-- Node1&#45;&gt;Node30 -->
<g id="edge38" class="edge">
<title>Node1&#45;&gt;Node30</title>
<path fill="none" stroke="midnightblue" d="M92.13,-287.5C100.37,-287.5 109.04,-287.5 117.53,-287.5"/>
<polygon fill="midnightblue" stroke="midnightblue" points="117.76,-291 127.76,-287.5 117.76,-284 117.76,-291"/>
</g>
<!-- Node39 -->
<g id="node39" class="node">
<title>Node39</title>
<g id="a_node39"><a xlink:href="code__80086E70_8c.html#a8acd68050219f24913a8a6f7c066c005" target="_top" xlink:title=" ">
<polygon fill="white" stroke="black" points="128,-221 128,-240 220,-240 220,-221 128,-221"/>
<text text-anchor="middle" x="174" y="-228" font-family="Helvetica,sans-Serif" font-size="10.00">func_8008B78C</text>
</a>
</g>
</g>
<!-- Node1&#45;&gt;Node39 -->
<g id="edge48" class="edge">
<title>Node1&#45;&gt;Node39</title>
<path fill="none" stroke="midnightblue" d="M68.09,-277.96C88.44,-268.75 119.47,-254.72 142.51,-244.29"/>
<polygon fill="midnightblue" stroke="midnightblue" points="144.17,-247.38 151.84,-240.07 141.29,-241 144.17,-247.38"/>
</g>
<!-- Node53 -->
<g id="node49" class="node">
<title>Node53</title>
<g id="a_node49"><a xlink:href="code__80071F00_8c.html#a5d62494ea345d5a576d4440772111136" target="_top" xlink:title=" ">
<polygon fill="white" stroke="black" points="528,-0.5 528,-30.5 652,-30.5 652,-0.5 528,-0.5"/>
<text text-anchor="start" x="536" y="-18.5" font-family="Helvetica,sans-Serif" font-size="10.00">is_obj_index_flag_unk</text>
<text text-anchor="middle" x="590" y="-7.5" font-family="Helvetica,sans-Serif" font-size="10.00">_054_active</text>
</a>
</g>
</g>
<!-- Node1&#45;&gt;Node53 -->
<g id="edge61" class="edge">
<title>Node1&#45;&gt;Node53</title>
<path fill="none" stroke="midnightblue" d="M55.12,-277.96C68.82,-262.35 97.97,-231.12 128,-211.5 260.24,-125.1 436.89,-62.63 528.37,-33.64"/>
<polygon fill="midnightblue" stroke="midnightblue" points="529.53,-36.94 538.02,-30.6 527.43,-30.26 529.53,-36.94"/>
</g>
<!-- Node54 -->
<g id="node50" class="node">
<title>Node54</title>
<g id="a_node50"><a xlink:href="math__util_8c.html#a19ed3bd78fd2d3e2bd0a29f6caf48545" target="_top" xlink:title=" ">
<polygon fill="white" stroke="black" points="156,-50 156,-69 192,-69 192,-50 156,-50"/>
<text text-anchor="middle" x="174" y="-57" font-family="Helvetica,sans-Serif" font-size="10.00">sins</text>
</a>
</g>
</g>
<!-- Node1&#45;&gt;Node54 -->
<g id="edge62" class="edge">
<title>Node1&#45;&gt;Node54</title>
<path fill="none" stroke="midnightblue" d="M48.44,-277.74C53.57,-246 73.65,-144.3 128,-83.5 133,-77.91 139.61,-73.39 146.22,-69.85"/>
<polygon fill="midnightblue" stroke="midnightblue" points="148.19,-72.79 155.72,-65.35 145.19,-66.47 148.19,-72.79"/>
</g>
<!-- Node4 -->
<g id="node4" class="node">
<title>Node4</title>
<g id="a_node4"><a xlink:href="math__util_8c.html#aaa39a297477f56051975259f4bddd829" target="_top" xlink:title=" ">
<polygon fill="white" stroke="black" points="277,-848 277,-867 327,-867 327,-848 277,-848"/>
<text text-anchor="middle" x="302" y="-855" font-family="Helvetica,sans-Serif" font-size="10.00">atan2s</text>
</a>
</g>
</g>
<!-- Node3&#45;&gt;Node4 -->
<g id="edge3" class="edge">
<title>Node3&#45;&gt;Node4</title>
<path fill="none" stroke="midnightblue" d="M202.6,-791.03C208.58,-793.66 214.7,-796.83 220,-800.5 239.12,-813.75 236.88,-825.25 256,-838.5 259.53,-840.95 263.42,-843.17 267.4,-845.16"/>
<polygon fill="midnightblue" stroke="midnightblue" points="266.14,-848.43 276.69,-849.38 269.03,-842.05 266.14,-848.43"/>
</g>
<!-- Node6 -->
<g id="node6" class="node">
<title>Node6</title>
<g id="a_node6"><a xlink:href="math__util__2_8c.html#a0477eb3c05bafb2dd984658abd1e56e9" target="_top" xlink:title=" ">
<polygon fill="white" stroke="black" points="256,-886 256,-905 348,-905 348,-886 256,-886"/>
<text text-anchor="middle" x="302" y="-893" font-family="Helvetica,sans-Serif" font-size="10.00">func_800417B4</text>
</a>
</g>
</g>
<!-- Node3&#45;&gt;Node6 -->
<g id="edge5" class="edge">
<title>Node3&#45;&gt;Node6</title>
<path fill="none" stroke="midnightblue" d="M206.36,-791.2C211.31,-793.68 216.08,-796.75 220,-800.5 246.99,-826.36 229.01,-850.64 256,-876.5 257.47,-877.91 259.06,-879.22 260.73,-880.44"/>
<polygon fill="midnightblue" stroke="midnightblue" points="259.27,-883.64 269.64,-885.8 262.88,-877.65 259.27,-883.64"/>
</g>
<!-- Node5 -->
<g id="node5" class="node">
<title>Node5</title>
<g id="a_node5"><a xlink:href="math__util_8c.html#a0273b0ea0783a06996c28669a7438ed9" target="_top" xlink:title=" ">
<polygon fill="white" stroke="black" points="397,-848 397,-867 479,-867 479,-848 397,-848"/>
<text text-anchor="middle" x="438" y="-855" font-family="Helvetica,sans-Serif" font-size="10.00">atan2_lookup</text>
</a>
</g>
</g>
<!-- Node4&#45;&gt;Node5 -->
<g id="edge4" class="edge">
<title>Node4&#45;&gt;Node5</title>
<path fill="none" stroke="midnightblue" d="M327.27,-857.5C343.85,-857.5 366.42,-857.5 386.79,-857.5"/>
<polygon fill="midnightblue" stroke="midnightblue" points="386.88,-861 396.88,-857.5 386.88,-854 386.88,-861"/>
</g>
<!-- Node8 -->
<g id="node8" class="node">
<title>Node8</title>
<g id="a_node8"><a xlink:href="code__80071F00_8c.html#a5978ef1e35515c275f92eb79b8601d77" target="_top" xlink:title=" ">
<polygon fill="white" stroke="black" points="256.5,-620 256.5,-639 347.5,-639 347.5,-620 256.5,-620"/>
<text text-anchor="middle" x="302" y="-627" font-family="Helvetica,sans-Serif" font-size="10.00">func_80072428</text>
</a>
</g>
</g>
<!-- Node7&#45;&gt;Node8 -->
<g id="edge7" class="edge">
<title>Node7&#45;&gt;Node8</title>
<path fill="none" stroke="midnightblue" d="M206.8,-657.91C222.76,-653.1 242.31,-647.2 259.45,-642.03"/>
<polygon fill="midnightblue" stroke="midnightblue" points="260.65,-645.32 269.22,-639.09 258.63,-638.62 260.65,-645.32"/>
</g>
<!-- Node9 -->
<g id="node9" class="node">
<title>Node9</title>
<g id="a_node9"><a xlink:href="code__80086E70_8c.html#acd186a6f592769b3e3db3da72fcf765f" target="_top" xlink:title=" ">
<polygon fill="white" stroke="black" points="392.5,-658 392.5,-677 483.5,-677 483.5,-658 392.5,-658"/>
<text text-anchor="middle" x="438" y="-665" font-family="Helvetica,sans-Serif" font-size="10.00">func_80086F60</text>
</a>
</g>
</g>
<!-- Node7&#45;&gt;Node9 -->
<g id="edge37" class="edge">
<title>Node7&#45;&gt;Node9</title>
<path fill="none" stroke="midnightblue" d="M220.04,-667.5C264.88,-667.5 333.79,-667.5 381.88,-667.5"/>
<polygon fill="midnightblue" stroke="midnightblue" points="382.11,-671 392.11,-667.5 382.11,-664 382.11,-671"/>
</g>
<!-- Node12 -->
<g id="node12" class="node">
<title>Node12</title>
<g id="a_node12"><a xlink:href="code__80071F00_8c.html#ab4348365b7e22b355e8aec1eb6f6dd9f" target="_top" xlink:title=" ">
<polygon fill="white" stroke="black" points="256.5,-487 256.5,-506 347.5,-506 347.5,-487 256.5,-487"/>
<text text-anchor="middle" x="302" y="-494" font-family="Helvetica,sans-Serif" font-size="10.00">func_80073514</text>
</a>
</g>
</g>
<!-- Node7&#45;&gt;Node12 -->
<g id="edge11" class="edge">
<title>Node7&#45;&gt;Node12</title>
<path fill="none" stroke="midnightblue" d="M177.63,-657.9C185.31,-631.58 210.08,-557.45 256,-515.5 257.68,-513.97 259.5,-512.55 261.41,-511.23"/>
<polygon fill="midnightblue" stroke="midnightblue" points="263.35,-514.15 270.26,-506.12 259.85,-508.09 263.35,-514.15"/>
</g>
<!-- Node13 -->
<g id="node13" class="node">
<title>Node13</title>
<g id="a_node13"><a xlink:href="code__80071F00_8c.html#aed54d391817f6974dee2ebb1ecd8261f" target="_top" xlink:title=" ">
<polygon fill="white" stroke="black" points="256.5,-810 256.5,-829 347.5,-829 347.5,-810 256.5,-810"/>
<text text-anchor="middle" x="302" y="-817" font-family="Helvetica,sans-Serif" font-size="10.00">func_80073884</text>
</a>
</g>
</g>
<!-- Node7&#45;&gt;Node13 -->
<g id="edge12" class="edge">
<title>Node7&#45;&gt;Node13</title>
<path fill="none" stroke="midnightblue" d="M178.95,-677.02C188.87,-699.97 216.88,-759.18 256,-795.5 259.8,-799.02 264.21,-802.19 268.75,-804.98"/>
<polygon fill="midnightblue" stroke="midnightblue" points="267.1,-808.06 277.54,-809.87 270.5,-801.95 267.1,-808.06"/>
</g>
<!-- Node14 -->
<g id="node14" class="node">
<title>Node14</title>
<g id="a_node14"><a xlink:href="code__80071F00_8c.html#a3424f0cd86ecd47a2234ff137e6f7099" target="_top" xlink:title=" ">
<polygon fill="white" stroke="black" points="256.5,-734 256.5,-753 347.5,-753 347.5,-734 256.5,-734"/>
<text text-anchor="middle" x="302" y="-741" font-family="Helvetica,sans-Serif" font-size="10.00">func_80073998</text>
</a>
</g>
</g>
<!-- Node7&#45;&gt;Node14 -->
<g id="edge13" class="edge">
<title>Node7&#45;&gt;Node14</title>
<path fill="none" stroke="midnightblue" d="M186.82,-677.04C202.14,-689.11 229.98,-710.07 256,-724.5 259.31,-726.34 262.83,-728.11 266.39,-729.78"/>
<polygon fill="midnightblue" stroke="midnightblue" points="265.23,-733.1 275.79,-733.97 268.08,-726.71 265.23,-733.1"/>
</g>
<!-- Node18 -->
<g id="node18" class="node">
<title>Node18</title>
<g id="a_node18"><a xlink:href="code__80071F00_8c.html#ac31769d6520eb620744212bb98a35c67" target="_top" xlink:title=" ">
<polygon fill="white" stroke="black" points="256,-696 256,-715 348,-715 348,-696 256,-696"/>
<text text-anchor="middle" x="302" y="-703" font-family="Helvetica,sans-Serif" font-size="10.00">func_80073CB0</text>
</a>
</g>
</g>
<!-- Node7&#45;&gt;Node18 -->
<g id="edge17" class="edge">
<title>Node7&#45;&gt;Node18</title>
<path fill="none" stroke="midnightblue" d="M206.8,-677.09C222.76,-681.9 242.31,-687.8 259.45,-692.97"/>
<polygon fill="midnightblue" stroke="midnightblue" points="258.63,-696.38 269.22,-695.91 260.65,-689.68 258.63,-696.38"/>
</g>
<!-- Node20 -->
<g id="node20" class="node">
<title>Node20</title>
<g id="a_node20"><a xlink:href="code__80071F00_8c.html#a5ff4e49864e7c44e4b717c33c585b0bd" target="_top" xlink:title=" ">
<polygon fill="white" stroke="black" points="391.5,-772 391.5,-791 484.5,-791 484.5,-772 391.5,-772"/>
<text text-anchor="middle" x="438" y="-779" font-family="Helvetica,sans-Serif" font-size="10.00">func_80073DC0</text>
</a>
</g>
</g>
<!-- Node7&#45;&gt;Node20 -->
<g id="edge21" class="edge">
<title>Node7&#45;&gt;Node20</title>
<path fill="none" stroke="midnightblue" d="M179.9,-677.14C190.62,-697.07 218.22,-742.61 256,-762.5 294.33,-782.68 343.52,-786.7 380.95,-786.07"/>
<polygon fill="midnightblue" stroke="midnightblue" points="381.27,-789.57 391.17,-785.78 381.08,-782.57 381.27,-789.57"/>
</g>
<!-- Node21 -->
<g id="node21" class="node">
<title>Node21</title>
<g id="a_node21"><a xlink:href="code__80071F00_8c.html#a7d5cdfe5aafefd0ce40cafa2dd23ab40" target="_top" xlink:title=" ">
<polygon fill="white" stroke="black" points="256,-525 256,-544 348,-544 348,-525 256,-525"/>
<text text-anchor="middle" x="302" y="-532" font-family="Helvetica,sans-Serif" font-size="10.00">func_8007C5B4</text>
</a>
</g>
</g>
<!-- Node7&#45;&gt;Node21 -->
<g id="edge24" class="edge">
<title>Node7&#45;&gt;Node21</title>
<path fill="none" stroke="midnightblue" d="M184.06,-657.93C205.12,-635.71 257.6,-580.31 284.51,-551.9"/>
<polygon fill="midnightblue" stroke="midnightblue" points="287.34,-554 291.68,-544.34 282.26,-549.19 287.34,-554"/>
</g>
<!-- Node8&#45;&gt;Node9 -->
<g id="edge8" class="edge">
<title>Node8&#45;&gt;Node9</title>
<path fill="none" stroke="midnightblue" d="M336.81,-639.09C354.03,-643.97 375.16,-649.96 393.57,-655.18"/>
<polygon fill="midnightblue" stroke="midnightblue" points="392.62,-658.55 403.2,-657.91 394.53,-651.82 392.62,-658.55"/>
</g>
<!-- Node11 -->
<g id="node11" class="node">
<title>Node11</title>
<g id="a_node11"><a xlink:href="code__80071F00_8c.html#a4b4f00a7df0f9bc44914cd922c3cd51b" target="_top" xlink:title=" ">
<polygon fill="white" stroke="black" points="532.5,-506 532.5,-525 647.5,-525 647.5,-506 532.5,-506"/>
<text text-anchor="middle" x="590" y="-513" font-family="Helvetica,sans-Serif" font-size="10.00">set_object_unk_0CB</text>
</a>
</g>
</g>
<!-- Node8&#45;&gt;Node11 -->
<g id="edge10" class="edge">
<title>Node8&#45;&gt;Node11</title>
<path fill="none" stroke="midnightblue" d="M347.58,-633.12C387.33,-634.51 446.15,-631.95 492,-610.5 528.97,-593.21 560.3,-555.85 576.71,-533.48"/>
<polygon fill="midnightblue" stroke="midnightblue" points="579.67,-535.35 582.62,-525.18 573.97,-531.29 579.67,-535.35"/>
</g>
<!-- Node10 -->
<g id="node10" class="node">
<title>Node10</title>
<g id="a_node10"><a xlink:href="code__80071F00_8c.html#a9d0d6fe8e02dc86bf4f9f8c8214ee326" target="_top" xlink:title=" ">
<polygon fill="white" stroke="black" points="688,-481.5 688,-511.5 801,-511.5 801,-481.5 688,-481.5"/>
<text text-anchor="start" x="696" y="-499.5" font-family="Helvetica,sans-Serif" font-size="10.00">set_object_flag_unk</text>
<text text-anchor="middle" x="744.5" y="-488.5" font-family="Helvetica,sans-Serif" font-size="10.00">_054_false</text>
</a>
</g>
</g>
<!-- Node9&#45;&gt;Node10 -->
<g id="edge9" class="edge">
<title>Node9&#45;&gt;Node10</title>
<path fill="none" stroke="midnightblue" d="M456.78,-657.98C493.46,-638.27 580.14,-591.43 652,-550.5 671.25,-539.54 692.57,-526.98 709.78,-516.73"/>
<polygon fill="midnightblue" stroke="midnightblue" points="711.58,-519.74 718.38,-511.61 708,-513.72 711.58,-519.74"/>
</g>
<!-- Node15 -->
<g id="node15" class="node">
<title>Node15</title>
<g id="a_node15"><a xlink:href="code__80071F00_8c.html#a0f4949805141ff89ea7116729e80a7ec" target="_top" xlink:title=" ">
<polygon fill="white" stroke="black" points="392,-734 392,-753 484,-753 484,-734 392,-734"/>
<text text-anchor="middle" x="438" y="-741" font-family="Helvetica,sans-Serif" font-size="10.00">func_800738A8</text>
</a>
</g>
</g>
<!-- Node14&#45;&gt;Node15 -->
<g id="edge14" class="edge">
<title>Node14&#45;&gt;Node15</title>
<path fill="none" stroke="midnightblue" d="M347.62,-743.5C358.46,-743.5 370.19,-743.5 381.47,-743.5"/>
<polygon fill="midnightblue" stroke="midnightblue" points="381.66,-747 391.66,-743.5 381.66,-740 381.66,-747"/>
</g>
<!-- Node16 -->
<g id="node16" class="node">
<title>Node16</title>
<g id="a_node16"><a xlink:href="code__80071F00_8c.html#a350ec2cc42f1fa42cda82e830e6dc1c6" target="_top" xlink:title=" ">
<polygon fill="white" stroke="black" points="544.5,-696 544.5,-715 635.5,-715 635.5,-696 544.5,-696"/>
<text text-anchor="middle" x="590" y="-703" font-family="Helvetica,sans-Serif" font-size="10.00">func_80073800</text>
</a>
</g>
</g>
<!-- Node15&#45;&gt;Node16 -->
<g id="edge15" class="edge">
<title>Node15&#45;&gt;Node16</title>
<path fill="none" stroke="midnightblue" d="M476.85,-733.91C496.47,-728.94 520.62,-722.82 541.48,-717.54"/>
<polygon fill="midnightblue" stroke="midnightblue" points="542.59,-720.87 551.42,-715.02 540.87,-714.08 542.59,-720.87"/>
</g>
<!-- Node17 -->
<g id="node17" class="node">
<title>Node17</title>
<g id="a_node17"><a xlink:href="code__80071F00_8c.html#a95b88653b438ce0326cfae9fc910bb68" target="_top" xlink:title=" ">
<polygon fill="white" stroke="black" points="544,-734 544,-753 636,-753 636,-734 544,-734"/>
<text text-anchor="middle" x="590" y="-741" font-family="Helvetica,sans-Serif" font-size="10.00">func_8007381C</text>
</a>
</g>
</g>
<!-- Node15&#45;&gt;Node17 -->
<g id="edge16" class="edge">
<title>Node15&#45;&gt;Node17</title>
<path fill="none" stroke="midnightblue" d="M484,-743.5C499.51,-743.5 517.06,-743.5 533.31,-743.5"/>
<polygon fill="midnightblue" stroke="midnightblue" points="533.77,-747 543.77,-743.5 533.77,-740 533.77,-747"/>
</g>
<!-- Node19 -->
<g id="node19" class="node">
<title>Node19</title>
<g id="a_node19"><a xlink:href="code__80071F00_8c.html#a394360d128db360e999e096566bffa94" target="_top" xlink:title=" ">
<polygon fill="white" stroke="black" points="392,-696 392,-715 484,-715 484,-696 392,-696"/>
<text text-anchor="middle" x="438" y="-703" font-family="Helvetica,sans-Serif" font-size="10.00">func_80073B78</text>
</a>
</g>
</g>
<!-- Node18&#45;&gt;Node19 -->
<g id="edge18" class="edge">
<title>Node18&#45;&gt;Node19</title>
<path fill="none" stroke="midnightblue" d="M348.37,-705.5C359.06,-705.5 370.58,-705.5 381.66,-705.5"/>
<polygon fill="midnightblue" stroke="midnightblue" points="381.68,-709 391.68,-705.5 381.68,-702 381.68,-709"/>
</g>
<!-- Node19&#45;&gt;Node16 -->
<g id="edge19" class="edge">
<title>Node19&#45;&gt;Node16</title>
<path fill="none" stroke="midnightblue" d="M484,-705.5C499.8,-705.5 517.72,-705.5 534.22,-705.5"/>
<polygon fill="midnightblue" stroke="midnightblue" points="534.29,-709 544.29,-705.5 534.29,-702 534.29,-709"/>
</g>
<!-- Node19&#45;&gt;Node17 -->
<g id="edge20" class="edge">
<title>Node19&#45;&gt;Node17</title>
<path fill="none" stroke="midnightblue" d="M476.85,-715.09C496.47,-720.06 520.62,-726.18 541.48,-731.46"/>
<polygon fill="midnightblue" stroke="midnightblue" points="540.87,-734.92 551.42,-733.98 542.59,-728.13 540.87,-734.92"/>
</g>
<!-- Node20&#45;&gt;Node16 -->
<g id="edge22" class="edge">
<title>Node20&#45;&gt;Node16</title>
<path fill="none" stroke="midnightblue" d="M473.21,-771.91C479.71,-769.36 486.27,-766.24 492,-762.5 511.48,-749.78 508.25,-736.8 528,-724.5 531.35,-722.42 534.94,-720.54 538.65,-718.86"/>
<polygon fill="midnightblue" stroke="midnightblue" points="540.06,-722.07 548.02,-715.08 537.44,-715.58 540.06,-722.07"/>
</g>
<!-- Node20&#45;&gt;Node17 -->
<g id="edge23" class="edge">
<title>Node20&#45;&gt;Node17</title>
<path fill="none" stroke="midnightblue" d="M476.85,-771.91C496.47,-766.94 520.62,-760.82 541.48,-755.54"/>
<polygon fill="midnightblue" stroke="midnightblue" points="542.59,-758.87 551.42,-753.02 540.87,-752.08 542.59,-758.87"/>
</g>
<!-- Node22 -->
<g id="node22" class="node">
<title>Node22</title>
<g id="a_node22"><a xlink:href="code__80071F00_8c.html#a91e6ccbfa10d972106998ad26b271c17" target="_top" xlink:title=" ">
<polygon fill="white" stroke="black" points="392.5,-506 392.5,-525 483.5,-525 483.5,-506 392.5,-506"/>
<text text-anchor="middle" x="438" y="-513" font-family="Helvetica,sans-Serif" font-size="10.00">func_80072488</text>
</a>
</g>
</g>
<!-- Node21&#45;&gt;Node22 -->
<g id="edge25" class="edge">
<title>Node21&#45;&gt;Node22</title>
<path fill="none" stroke="midnightblue" d="M348.37,-528.07C359.18,-526.53 370.83,-524.88 382.02,-523.29"/>
<polygon fill="midnightblue" stroke="midnightblue" points="382.73,-526.73 392.14,-521.86 381.74,-519.8 382.73,-526.73"/>
</g>
<!-- Node23 -->
<g id="node23" class="node">
<title>Node23</title>
<g id="a_node23"><a xlink:href="code__80071F00_8c.html#a0aaa4739dd54cd55d7a899ba26205257" target="_top" xlink:title=" ">
<polygon fill="white" stroke="black" points="392.5,-582 392.5,-601 483.5,-601 483.5,-582 392.5,-582"/>
<text text-anchor="middle" x="438" y="-589" font-family="Helvetica,sans-Serif" font-size="10.00">func_80073844</text>
</a>
</g>
</g>
<!-- Node21&#45;&gt;Node23 -->
<g id="edge28" class="edge">
<title>Node21&#45;&gt;Node23</title>
<path fill="none" stroke="midnightblue" d="M322.08,-544.08C338.36,-552.09 362.46,-563.61 384,-572.5 388.85,-574.5 393.99,-576.5 399.09,-578.4"/>
<polygon fill="midnightblue" stroke="midnightblue" points="398.16,-581.79 408.76,-581.93 400.56,-575.21 398.16,-581.79"/>
</g>
<!-- Node24 -->
<g id="node24" class="node">
<title>Node24</title>
<g id="a_node24"><a xlink:href="code__80071F00_8c.html#a366e3924d8c014db8aec3b3f128158f8" target="_top" xlink:title=" ">
<polygon fill="white" stroke="black" points="392,-468 392,-487 484,-487 484,-468 392,-468"/>
<text text-anchor="middle" x="438" y="-475" font-family="Helvetica,sans-Serif" font-size="10.00">func_80073FD4</text>
</a>
</g>
</g>
<!-- Node21&#45;&gt;Node24 -->
<g id="edge30" class="edge">
<title>Node21&#45;&gt;Node24</title>
<path fill="none" stroke="midnightblue" d="M326.99,-524.82C333.83,-521.94 341.26,-518.7 348,-515.5 364.35,-507.75 367.44,-503.79 384,-496.5 388.69,-494.43 393.68,-492.42 398.65,-490.52"/>
<polygon fill="midnightblue" stroke="midnightblue" points="399.94,-493.77 408.1,-487.02 397.51,-487.21 399.94,-493.77"/>
</g>
<!-- Node26 -->
<g id="node26" class="node">
<title>Node26</title>
<g id="a_node26"><a xlink:href="code__80086E70_8c.html#a79b65858840f21f273d4c8fe80b56fe5" target="_top" xlink:title=" ">
<polygon fill="white" stroke="black" points="392.5,-430 392.5,-449 483.5,-449 483.5,-430 392.5,-430"/>
<text text-anchor="middle" x="438" y="-437" font-family="Helvetica,sans-Serif" font-size="10.00">func_80086EF0</text>
</a>
</g>
</g>
<!-- Node21&#45;&gt;Node26 -->
<g id="edge32" class="edge">
<title>Node21&#45;&gt;Node26</title>
<path fill="none" stroke="midnightblue" d="M333.05,-524.84C338.37,-522.32 343.6,-519.23 348,-515.5 370.85,-496.12 360.62,-477.24 384,-458.5 386.25,-456.69 388.69,-455.05 391.24,-453.56"/>
<polygon fill="midnightblue" stroke="midnightblue" points="392.87,-456.66 400.24,-449.05 389.73,-450.4 392.87,-456.66"/>
</g>
<!-- Node28 -->
<g id="node28" class="node">
<title>Node28</title>
<g id="a_node28"><a xlink:href="code__80071F00_8c.html#aaac380231c672b17a8fda8b451572c4c" target="_top" xlink:title=" ">
<polygon fill="white" stroke="black" points="384,-544 384,-563 492,-563 492,-544 384,-544"/>
<text text-anchor="middle" x="438" y="-551" font-family="Helvetica,sans-Serif" font-size="10.00">init_texture_object</text>
</a>
</g>
</g>
<!-- Node21&#45;&gt;Node28 -->
<g id="edge35" class="edge">
<title>Node21&#45;&gt;Node28</title>
<path fill="none" stroke="midnightblue" d="M348.37,-540.93C356.55,-542.09 365.22,-543.32 373.81,-544.54"/>
<polygon fill="midnightblue" stroke="midnightblue" points="373.42,-548.02 383.81,-545.96 374.4,-541.09 373.42,-548.02"/>
</g>
<!-- Node29 -->
<g id="node29" class="node">
<title>Node29</title>
<g id="a_node29"><a xlink:href="code__80071F00_8c.html#a946b33c1ed166b19b04e4528c3641b9a" target="_top" xlink:title=" ">
<polygon fill="white" stroke="black" points="688,-234.5 688,-264.5 801,-264.5 801,-234.5 688,-234.5"/>
<text text-anchor="start" x="696" y="-252.5" font-family="Helvetica,sans-Serif" font-size="10.00">set_object_flag_unk</text>
<text text-anchor="middle" x="744.5" y="-241.5" font-family="Helvetica,sans-Serif" font-size="10.00">_054_true</text>
</a>
</g>
</g>
<!-- Node21&#45;&gt;Node29 -->
<g id="edge36" class="edge">
<title>Node21&#45;&gt;Node29</title>
<path fill="none" stroke="midnightblue" d="M335.86,-524.88C340.4,-522.41 344.65,-519.33 348,-515.5 388.28,-469.37 338.11,-423.05 384,-382.5 474.15,-302.84 544.88,-399.25 652,-344.5 684.4,-327.94 711.83,-295.33 727.98,-272.98"/>
<polygon fill="midnightblue" stroke="midnightblue" points="730.92,-274.88 733.8,-264.69 725.19,-270.86 730.92,-274.88"/>
</g>
<!-- Node22&#45;&gt;Node10 -->
<g id="edge26" class="edge">
<title>Node22&#45;&gt;Node10</title>
<path fill="none" stroke="midnightblue" d="M475.52,-525.02C518.22,-534.7 590.83,-546.7 652,-534.5 670.47,-530.82 689.88,-523.33 706.05,-515.97"/>
<polygon fill="midnightblue" stroke="midnightblue" points="707.61,-519.11 715.16,-511.68 704.63,-512.77 707.61,-519.11"/>
</g>
<!-- Node22&#45;&gt;Node11 -->
<g id="edge27" class="edge">
<title>Node22&#45;&gt;Node11</title>
<path fill="none" stroke="midnightblue" d="M483.6,-515.5C495.66,-515.5 508.98,-515.5 521.98,-515.5"/>
<polygon fill="midnightblue" stroke="midnightblue" points="522.31,-519 532.31,-515.5 522.31,-512 522.31,-519"/>
</g>
<!-- Node23&#45;&gt;Node16 -->
<g id="edge29" class="edge">
<title>Node23&#45;&gt;Node16</title>
<path fill="none" stroke="midnightblue" d="M451.53,-601.02C477.28,-620.59 536.35,-665.49 568.03,-689.56"/>
<polygon fill="midnightblue" stroke="midnightblue" points="566.11,-692.5 576.19,-695.76 570.34,-686.92 566.11,-692.5"/>
</g>
<!-- Node25 -->
<g id="node25" class="node">
<title>Node25</title>
<g id="a_node25"><a xlink:href="code__80071F00_8c.html#ac0f84fb76a5a0da9a3c5bfbc9d5e16b9" target="_top" xlink:title=" ">
<polygon fill="white" stroke="black" points="544.5,-468 544.5,-487 635.5,-487 635.5,-468 544.5,-468"/>
<text text-anchor="middle" x="590" y="-475" font-family="Helvetica,sans-Serif" font-size="10.00">func_80073F90</text>
</a>
</g>
</g>
<!-- Node24&#45;&gt;Node25 -->
<g id="edge31" class="edge">
<title>Node24&#45;&gt;Node25</title>
<path fill="none" stroke="midnightblue" d="M484,-477.5C499.8,-477.5 517.72,-477.5 534.22,-477.5"/>
<polygon fill="midnightblue" stroke="midnightblue" points="534.29,-481 544.29,-477.5 534.29,-474 534.29,-481"/>
</g>
<!-- Node27 -->
<g id="node27" class="node">
<title>Node27</title>
<g id="a_node27"><a xlink:href="code__80086E70_8c.html#ad844d2fe27c3f0bb5979715fae72559a" target="_top" xlink:title=" ">
<polygon fill="white" stroke="black" points="544.5,-430 544.5,-449 635.5,-449 635.5,-430 544.5,-430"/>
<text text-anchor="middle" x="590" y="-437" font-family="Helvetica,sans-Serif" font-size="10.00">func_80086E70</text>
</a>
</g>
</g>
<!-- Node26&#45;&gt;Node27 -->
<g id="edge33" class="edge">
<title>Node26&#45;&gt;Node27</title>
<path fill="none" stroke="midnightblue" d="M483.6,-439.5C499.48,-439.5 517.54,-439.5 534.17,-439.5"/>
<polygon fill="midnightblue" stroke="midnightblue" points="534.31,-443 544.31,-439.5 534.31,-436 534.31,-443"/>
</g>
<!-- Node27&#45;&gt;Node10 -->
<g id="edge34" class="edge">
<title>Node27&#45;&gt;Node10</title>
<path fill="none" stroke="midnightblue" d="M623.48,-449.01C632.75,-451.89 642.82,-455.17 652,-458.5 667.79,-464.22 684.84,-471.11 699.89,-477.43"/>
<polygon fill="midnightblue" stroke="midnightblue" points="698.89,-480.81 709.47,-481.49 701.63,-474.37 698.89,-480.81"/>
</g>
<!-- Node31 -->
<g id="node31" class="node">
<title>Node31</title>
<g id="a_node31"><a xlink:href="code__80071F00_8c.html#a54a9416764efd021995285edceda8194" target="_top" xlink:title=" ">
<polygon fill="white" stroke="black" points="256,-316 256,-335 348,-335 348,-316 256,-316"/>
<text text-anchor="middle" x="302" y="-323" font-family="Helvetica,sans-Serif" font-size="10.00">func_8007C7B4</text>
</a>
</g>
</g>
<!-- Node30&#45;&gt;Node31 -->
<g id="edge39" class="edge">
<title>Node30&#45;&gt;Node31</title>
<path fill="none" stroke="midnightblue" d="M206.8,-297.09C222.76,-301.9 242.31,-307.8 259.45,-312.97"/>
<polygon fill="midnightblue" stroke="midnightblue" points="258.63,-316.38 269.22,-315.91 260.65,-309.68 258.63,-316.38"/>
</g>
<!-- Node37 -->
<g id="node37" class="node">
<title>Node37</title>
<g id="a_node37"><a xlink:href="code__80071F00_8c.html#a9bfa18d329870f6d18d8d445325548cb" target="_top" xlink:title=" ">
<polygon fill="white" stroke="black" points="256,-278 256,-297 348,-297 348,-278 256,-278"/>
<text text-anchor="middle" x="302" y="-285" font-family="Helvetica,sans-Serif" font-size="10.00">func_8007C91C</text>
</a>
</g>
</g>
<!-- Node30&#45;&gt;Node37 -->
<g id="edge46" class="edge">
<title>Node30&#45;&gt;Node37</title>
<path fill="none" stroke="midnightblue" d="M220.13,-287.5C228.37,-287.5 237.04,-287.5 245.53,-287.5"/>
<polygon fill="midnightblue" stroke="midnightblue" points="245.76,-291 255.76,-287.5 245.76,-284 245.76,-291"/>
</g>
<!-- Node38 -->
<g id="node38" class="node">
<title>Node38</title>
<g id="a_node38"><a xlink:href="code__80071F00_8c.html#ae56b3e335f51f552085a9fdac9763172" target="_top" xlink:title=" ">
<polygon fill="white" stroke="black" points="256,-240 256,-259 348,-259 348,-240 256,-240"/>
<text text-anchor="middle" x="302" y="-247" font-family="Helvetica,sans-Serif" font-size="10.00">func_8007C9F8</text>
</a>
</g>
</g>
<!-- Node30&#45;&gt;Node38 -->
<g id="edge47" class="edge">
<title>Node30&#45;&gt;Node38</title>
<path fill="none" stroke="midnightblue" d="M206.8,-277.91C222.76,-273.1 242.31,-267.2 259.45,-262.03"/>
<polygon fill="midnightblue" stroke="midnightblue" points="260.65,-265.32 269.22,-259.09 258.63,-258.62 260.65,-265.32"/>
</g>
<!-- Node32 -->
<g id="node32" class="node">
<title>Node32</title>
<g id="a_node32"><a xlink:href="external_8c.html#add0040863c2fc7235a99395387d33600" target="_top" xlink:title=" ">
<polygon fill="white" stroke="black" points="392,-278 392,-297 484,-297 484,-278 392,-278"/>
<text text-anchor="middle" x="438" y="-285" font-family="Helvetica,sans-Serif" font-size="10.00">func_800C9060</text>
</a>
</g>
</g>
<!-- Node31&#45;&gt;Node32 -->
<g id="edge40" class="edge">
<title>Node31&#45;&gt;Node32</title>
<path fill="none" stroke="midnightblue" d="M336.81,-315.91C354.03,-311.03 375.16,-305.04 393.57,-299.82"/>
<polygon fill="midnightblue" stroke="midnightblue" points="394.53,-303.18 403.2,-297.09 392.62,-296.45 394.53,-303.18"/>
</g>
<!-- Node34 -->
<g id="node34" class="node">
<title>Node34</title>
<g id="a_node34"><a xlink:href="code__80071F00_8c.html#abdebd086b5ff081f83af3d9205f39cd3" target="_top" xlink:title=" ">
<polygon fill="white" stroke="black" points="404,-392 404,-411 472,-411 472,-392 404,-392"/>
<text text-anchor="middle" x="438" y="-399" font-family="Helvetica,sans-Serif" font-size="10.00">init_object</text>
</a>
</g>
</g>
<!-- Node31&#45;&gt;Node34 -->
<g id="edge42" class="edge">
<title>Node31&#45;&gt;Node34</title>
<path fill="none" stroke="midnightblue" d="M319.97,-335.13C343.03,-348.2 384.45,-371.7 411.32,-386.94"/>
<polygon fill="midnightblue" stroke="midnightblue" points="409.74,-390.06 420.17,-391.95 413.19,-383.97 409.74,-390.06"/>
</g>
<!-- Node35 -->
<g id="node35" class="node">
<title>Node35</title>
<g id="a_node35"><a xlink:href="math__util_8c.html#a151b63b8adf9af7e4054b3b84bd226dc" target="_top" xlink:title=" ">
<polygon fill="white" stroke="black" points="402,-316 402,-335 474,-335 474,-316 402,-316"/>
<text text-anchor="middle" x="438" y="-323" font-family="Helvetica,sans-Serif" font-size="10.00">random_int</text>
</a>
</g>
</g>
<!-- Node31&#45;&gt;Node35 -->
<g id="edge44" class="edge">
<title>Node31&#45;&gt;Node35</title>
<path fill="none" stroke="midnightblue" d="M348.37,-325.5C362.28,-325.5 377.59,-325.5 391.52,-325.5"/>
<polygon fill="midnightblue" stroke="midnightblue" points="391.85,-329 401.85,-325.5 391.85,-322 391.85,-329"/>
</g>
<!-- Node33 -->
<g id="node33" class="node">
<title>Node33</title>
<g id="a_node33"><a xlink:href="external_8c.html#a62e16f9600e7e9beda2c9d2df10f3561" target="_top" xlink:title=" ">
<polygon fill="white" stroke="black" points="554,-278 554,-297 626,-297 626,-278 554,-278"/>
<text text-anchor="middle" x="590" y="-285" font-family="Helvetica,sans-Serif" font-size="10.00">play_sound</text>
</a>
</g>
</g>
<!-- Node32&#45;&gt;Node33 -->
<g id="edge41" class="edge">
<title>Node32&#45;&gt;Node33</title>
<path fill="none" stroke="midnightblue" d="M484,-287.5C502.79,-287.5 524.58,-287.5 543.43,-287.5"/>
<polygon fill="midnightblue" stroke="midnightblue" points="543.56,-291 553.56,-287.5 543.56,-284 543.56,-291"/>
</g>
<!-- Node34&#45;&gt;Node11 -->
<g id="edge43" class="edge">
<title>Node34&#45;&gt;Node11</title>
<path fill="none" stroke="midnightblue" d="M472.04,-408.86C479.22,-411.62 486.35,-415.38 492,-420.5 519.69,-445.6 499.78,-471.99 528,-496.5 529.94,-498.19 532.03,-499.72 534.23,-501.12"/>
<polygon fill="midnightblue" stroke="midnightblue" points="532.66,-504.26 543.13,-505.88 535.96,-498.08 532.66,-504.26"/>
</g>
<!-- Node36 -->
<g id="node36" class="node">
<title>Node36</title>
<g id="a_node36"><a xlink:href="math__util_8c.html#a062850863585005ad1d0a75d9ff70693" target="_top" xlink:title=" ">
<polygon fill="white" stroke="black" points="551.5,-316 551.5,-335 628.5,-335 628.5,-316 551.5,-316"/>
<text text-anchor="middle" x="590" y="-323" font-family="Helvetica,sans-Serif" font-size="10.00">random_u16</text>
</a>
</g>
</g>
<!-- Node35&#45;&gt;Node36 -->
<g id="edge45" class="edge">
<title>Node35&#45;&gt;Node36</title>
<path fill="none" stroke="midnightblue" d="M474.17,-325.5C494.2,-325.5 519.58,-325.5 541.38,-325.5"/>
<polygon fill="midnightblue" stroke="midnightblue" points="541.43,-329 551.43,-325.5 541.43,-322 541.43,-329"/>
</g>
<!-- Node40 -->
<g id="node40" class="node">
<title>Node40</title>
<g id="a_node40"><a xlink:href="code__80086E70_8c.html#af4977ac8a73168c29072e9f7715e396d" target="_top" xlink:title=" ">
<polygon fill="white" stroke="black" points="256,-183 256,-202 348,-202 348,-183 256,-183"/>
<text text-anchor="middle" x="302" y="-190" font-family="Helvetica,sans-Serif" font-size="10.00">func_8008B6A4</text>
</a>
</g>
</g>
<!-- Node39&#45;&gt;Node40 -->
<g id="edge49" class="edge">
<title>Node39&#45;&gt;Node40</title>
<path fill="none" stroke="midnightblue" d="M206.8,-220.91C222.76,-216.1 242.31,-210.2 259.45,-205.03"/>
<polygon fill="midnightblue" stroke="midnightblue" points="260.65,-208.32 269.22,-202.09 258.63,-201.62 260.65,-208.32"/>
</g>
<!-- Node40&#45;&gt;Node10 -->
<g id="edge60" class="edge">
<title>Node40&#45;&gt;Node10</title>
<path fill="none" stroke="midnightblue" d="M348.04,-199.89C437.04,-214.84 628.82,-248.91 652,-268.5 714.86,-321.63 734.94,-424.21 741.02,-471.5"/>
<polygon fill="midnightblue" stroke="midnightblue" points="737.55,-471.98 742.2,-481.5 744.51,-471.16 737.55,-471.98"/>
</g>
<!-- Node41 -->
<g id="node41" class="node">
<title>Node41</title>
<g id="a_node41"><a xlink:href="code__80086E70_8c.html#a73c80773354a17350de1ea32bbeac1c3" target="_top" xlink:title=" ">
<polygon fill="white" stroke="black" points="392,-126 392,-145 484,-145 484,-126 392,-126"/>
<text text-anchor="middle" x="438" y="-133" font-family="Helvetica,sans-Serif" font-size="10.00">func_8008B44C</text>
</a>
</g>
</g>
<!-- Node40&#45;&gt;Node41 -->
<g id="edge50" class="edge">
<title>Node40&#45;&gt;Node41</title>
<path fill="none" stroke="midnightblue" d="M322.08,-182.92C338.36,-174.91 362.46,-163.39 384,-154.5 388.85,-152.5 393.99,-150.5 399.09,-148.6"/>
<polygon fill="midnightblue" stroke="midnightblue" points="400.56,-151.79 408.76,-145.07 398.16,-145.21 400.56,-151.79"/>
</g>
<!-- Node42 -->
<g id="node42" class="node">
<title>Node42</title>
<g id="a_node42"><a xlink:href="code__80086E70_8c.html#a9fcf41101a67c7115d1abda14b052744" target="_top" xlink:title=" ">
<polygon fill="white" stroke="black" points="392,-164 392,-183 484,-183 484,-164 392,-164"/>
<text text-anchor="middle" x="438" y="-171" font-family="Helvetica,sans-Serif" font-size="10.00">func_8008B478</text>
</a>
</g>
</g>
<!-- Node40&#45;&gt;Node42 -->
<g id="edge51" class="edge">
<title>Node40&#45;&gt;Node42</title>
<path fill="none" stroke="midnightblue" d="M348.37,-186.07C359.06,-184.55 370.58,-182.92 381.66,-181.35"/>
<polygon fill="midnightblue" stroke="midnightblue" points="382.27,-184.8 391.68,-179.93 381.29,-177.86 382.27,-184.8"/>
</g>
<!-- Node43 -->
<g id="node43" class="node">
<title>Node43</title>
<g id="a_node43"><a xlink:href="code__80086E70_8c.html#a54a469d2e41eb5a0930aed0397c15f99" target="_top" xlink:title=" ">
<polygon fill="white" stroke="red" points="544,-50 544,-69 636,-69 636,-50 544,-50"/>
<text text-anchor="middle" x="590" y="-57" font-family="Helvetica,sans-Serif" font-size="10.00">func_8008AFE0</text>
</a>
</g>
</g>
<!-- Node42&#45;&gt;Node43 -->
<g id="edge52" class="edge">
<title>Node42&#45;&gt;Node43</title>
<path fill="none" stroke="midnightblue" d="M477.26,-163.94C482.61,-161.47 487.73,-158.37 492,-154.5 519.69,-129.4 499.78,-103.01 528,-78.5 530.02,-76.75 532.19,-75.16 534.48,-73.72"/>
<polygon fill="midnightblue" stroke="midnightblue" points="536.53,-76.59 543.76,-68.85 533.27,-70.4 536.53,-76.59"/>
</g>
<!-- Node46 -->
<g id="node45" class="node">
<title>Node46</title>
<g id="a_node45"><a xlink:href="code__80086E70_8c.html#a138deec6cf098d944fb5e9162967bbee" target="_top" xlink:title=" ">
<polygon fill="white" stroke="red" points="544,-202 544,-221 636,-221 636,-202 544,-202"/>
<text text-anchor="middle" x="590" y="-209" font-family="Helvetica,sans-Serif" font-size="10.00">func_8008B17C</text>
</a>
</g>
</g>
<!-- Node42&#45;&gt;Node46 -->
<g id="edge54" class="edge">
<title>Node42&#45;&gt;Node46</title>
<path fill="none" stroke="midnightblue" d="M476.85,-183.09C496.47,-188.06 520.62,-194.18 541.48,-199.46"/>
<polygon fill="midnightblue" stroke="midnightblue" points="540.87,-202.92 551.42,-201.98 542.59,-196.13 540.87,-202.92"/>
</g>
<!-- Node49 -->
<g id="node46" class="node">
<title>Node49</title>
<g id="a_node46"><a xlink:href="code__80086E70_8c.html#a4639e642c83156416e59a15e32bfdb22" target="_top" xlink:title=" ">
<polygon fill="white" stroke="black" points="543.5,-164 543.5,-183 636.5,-183 636.5,-164 543.5,-164"/>
<text text-anchor="middle" x="590" y="-171" font-family="Helvetica,sans-Serif" font-size="10.00">func_8008B1D4</text>
</a>
</g>
</g>
<!-- Node42&#45;&gt;Node49 -->
<g id="edge55" class="edge">
<title>Node42&#45;&gt;Node49</title>
<path fill="none" stroke="midnightblue" d="M484,-173.5C499.37,-173.5 516.74,-173.5 532.86,-173.5"/>
<polygon fill="midnightblue" stroke="midnightblue" points="533.25,-177 543.25,-173.5 533.25,-170 533.25,-177"/>
</g>
<!-- Node50 -->
<g id="node47" class="node">
<title>Node50</title>
<g id="a_node47"><a xlink:href="code__80086E70_8c.html#ab55ff141af0b2e879cdb0d277298a36a" target="_top" xlink:title=" ">
<polygon fill="white" stroke="black" points="544,-88 544,-107 636,-107 636,-88 544,-88"/>
<text text-anchor="middle" x="590" y="-95" font-family="Helvetica,sans-Serif" font-size="10.00">func_8008B284</text>
</a>
</g>
</g>
<!-- Node42&#45;&gt;Node50 -->
<g id="edge56" class="edge">
<title>Node42&#45;&gt;Node50</title>
<path fill="none" stroke="midnightblue" d="M473.21,-163.91C479.71,-161.36 486.27,-158.24 492,-154.5 511.48,-141.78 508.25,-128.8 528,-116.5 531.35,-114.42 534.94,-112.54 538.65,-110.86"/>
<polygon fill="midnightblue" stroke="midnightblue" points="540.06,-114.07 548.02,-107.08 537.44,-107.58 540.06,-114.07"/>
</g>
<!-- Node51 -->
<g id="node48" class="node">
<title>Node51</title>
<g id="a_node48"><a xlink:href="code__80086E70_8c.html#a2b7539ab221190abc7c302a31ca3f678" target="_top" xlink:title=" ">
<polygon fill="white" stroke="red" points="544,-126 544,-145 636,-145 636,-126 544,-126"/>
<text text-anchor="middle" x="590" y="-133" font-family="Helvetica,sans-Serif" font-size="10.00">func_8008B3E4</text>
</a>
</g>
</g>
<!-- Node42&#45;&gt;Node51 -->
<g id="edge57" class="edge">
<title>Node42&#45;&gt;Node51</title>
<path fill="none" stroke="midnightblue" d="M476.85,-163.91C496.47,-158.94 520.62,-152.82 541.48,-147.54"/>
<polygon fill="midnightblue" stroke="midnightblue" points="542.59,-150.87 551.42,-145.02 540.87,-144.08 542.59,-150.87"/>
</g>
<!-- Node42&#45;&gt;Node53 -->
<g id="edge59" class="edge">
<title>Node42&#45;&gt;Node53</title>
<path fill="none" stroke="midnightblue" d="M478.82,-163.92C483.7,-161.46 488.27,-158.37 492,-154.5 528.84,-116.22 492.02,-79.6 528,-40.5 529.23,-39.17 530.53,-37.91 531.91,-36.71"/>
<polygon fill="midnightblue" stroke="midnightblue" points="534.36,-39.25 540.4,-30.55 530.25,-33.59 534.36,-39.25"/>
</g>
<!-- Node44 -->
<g id="node44" class="node">
<title>Node44</title>
<g id="a_node44"><a xlink:href="code__80086E70_8c.html#a2584a23a79ad3d58379e9cf1c3dff043" target="_top" xlink:title=" ">
<polygon fill="white" stroke="black" points="697,-50 697,-69 792,-69 792,-50 697,-50"/>
<text text-anchor="middle" x="744.5" y="-57" font-family="Helvetica,sans-Serif" font-size="10.00">func_8008ADD0</text>
</a>
</g>
</g>
<!-- Node43&#45;&gt;Node44 -->
<g id="edge53" class="edge">
<title>Node43&#45;&gt;Node44</title>
<path fill="none" stroke="midnightblue" d="M636.34,-59.5C652.12,-59.5 670.02,-59.5 686.62,-59.5"/>
<polygon fill="midnightblue" stroke="midnightblue" points="686.75,-63 696.75,-59.5 686.75,-56 686.75,-63"/>
</g>
<!-- Node51&#45;&gt;Node29 -->
<g id="edge58" class="edge">
<title>Node51&#45;&gt;Node29</title>
<path fill="none" stroke="midnightblue" d="M631.63,-145.01C638.7,-147.53 645.77,-150.65 652,-154.5 682.62,-173.4 710.12,-204.89 726.8,-226.4"/>
<polygon fill="midnightblue" stroke="midnightblue" points="724.02,-228.52 732.85,-234.38 729.6,-224.3 724.02,-228.52"/>
</g>
</g>
</svg>
        <g id="navigator" transform="translate(0 0)" fill="#404254">
                <rect fill="#f2f5e9" fill-opacity="0.5" stroke="#606060" stroke-width=".5" x="0" y="0" width="60" height="60"/>
                <use id="zoomplus" xlink:href="#zoomPlus" x="17" y="9" onmousedown="handleZoom(evt,'in')"/>
                <use id="zoomminus" xlink:href="#zoomMin" x="42" y="9" onmousedown="handleZoom(evt,'out')"/>
                <use id="reset" xlink:href="#resetDef" x="30" y="36" onmousedown="handleReset()"/>
                <g id="arrowUp" xlink:href="#dirArrow" transform="translate(30 24)" onmousedown="handlePan(0,-1)">
                  <use xlink:href="#rim" fill="#404040">
                        <set attributeName="fill" to="#808080" begin="arrowUp.mouseover" end="arrowUp.mouseout"/>
                  </use>
                  <path fill="none" stroke="white" stroke-width="1.5" d="M0,-3.0v7 M-2.5,-0.5L0,-3.0L2.5,-0.5"/>
                </g>
                <g id="arrowRight" xlink:href="#dirArrow" transform="rotate(90) translate(36 -43)" onmousedown="handlePan(1,0)">
                  <use xlink:href="#rim" fill="#404040">
                        <set attributeName="fill" to="#808080" begin="arrowRight.mouseover" end="arrowRight.mouseout"/>
                  </use>
                  <path fill="none" stroke="white" stroke-width="1.5" d="M0,-3.0v7 M-2.5,-0.5L0,-3.0L2.5,-0.5"/>
                </g>
                <g id="arrowDown" xlink:href="#dirArrow" transform="rotate(180) translate(-30 -48)" onmousedown="handlePan(0,1)">
                  <use xlink:href="#rim" fill="#404040">
                        <set attributeName="fill" to="#808080" begin="arrowDown.mouseover" end="arrowDown.mouseout"/>
                  </use>
                  <path fill="none" stroke="white" stroke-width="1.5" d="M0,-3.0v7 M-2.5,-0.5L0,-3.0L2.5,-0.5"/>
                </g>
                <g id="arrowLeft" xlink:href="#dirArrow" transform="rotate(270) translate(-36 17)" onmousedown="handlePan(-1,0)">
                  <use xlink:href="#rim" fill="#404040">
                        <set attributeName="fill" to="#808080" begin="arrowLeft.mouseover" end="arrowLeft.mouseout"/>
                  </use>
                  <path fill="none" stroke="white" stroke-width="1.5" d="M0,-3.0v7 M-2.5,-0.5L0,-3.0L2.5,-0.5"/>
                </g>
        </g>
        <svg viewBox="0 0 15 15" width="100%" height="30px" preserveAspectRatio="xMaxYMin meet">
         <g id="arrow_out" transform="scale(0.3 0.3)">
          <a xlink:href="code__80071F00_8c_ae9b0387ca14567f5ccf9c6640b181670_cgraph_org.svg" target="_base">
           <rect id="button" ry="5" rx="5" y="6" x="6" height="38" width="38"
                fill="#f2f5e9" fill-opacity="0.5" stroke="#606060" stroke-width="1.0"/>
           <path id="arrow"
             d="M 11.500037,31.436501 C 11.940474,20.09759 22.043105,11.32322 32.158766,21.979434 L 37.068811,17.246167 C 37.068811,17.246167 37.088388,32 37.088388,32 L 22.160133,31.978069 C 22.160133,31.978069 26.997745,27.140456 26.997745,27.140456 C 18.528582,18.264221 13.291696,25.230495 11.500037,31.436501 z"
             style="fill:#404040;"/>
          </a>
         </g>
        </svg>
</svg>
