<?xml version="1.0" encoding="UTF-8" standalone="no"?>
<!DOCTYPE svg PUBLIC "-//W3C//DTD SVG 1.1//EN"
 "http://www.w3.org/Graphics/SVG/1.1/DTD/svg11.dtd">
<!-- Generated by graphviz version 2.43.0 (0)
 -->
<!-- Title: func_800597E8 Pages: 1 -->
<svg width="887pt" height="192pt"
 viewBox="0.00 0.00 887.00 191.50" xmlns="http://www.w3.org/2000/svg" xmlns:xlink="http://www.w3.org/1999/xlink">
<g id="graph0" class="graph" transform="scale(1 1) rotate(0) translate(4 187.5)">
<title>func_800597E8</title>
<polygon fill="white" stroke="transparent" points="-4,4 -4,-187.5 883,-187.5 883,4 -4,4"/>
<!-- Node1 -->
<g id="node1" class="node">
<title>Node1</title>
<g id="a_node1"><a xlink:title=" ">
<polygon fill="#bfbfbf" stroke="black" points="0,-76.5 0,-95.5 91,-95.5 91,-76.5 0,-76.5"/>
<text text-anchor="middle" x="45.5" y="-83.5" font-family="Helvetica,sans-Serif" font-size="10.00">func_800597E8</text>
</a>
</g>
</g>
<!-- Node2 -->
<g id="node2" class="node">
<title>Node2</title>
<g id="a_node2"><a xlink:href="math__util__2_8c.html#a2ccd8e45e54434bd9b380706aca888de" target="_top" xlink:title=" ">
<polygon fill="white" stroke="black" points="127,-95.5 127,-114.5 218,-114.5 218,-95.5 127,-95.5"/>
<text text-anchor="middle" x="172.5" y="-102.5" font-family="Helvetica,sans-Serif" font-size="10.00">func_80041EF4</text>
</a>
</g>
</g>
<!-- Node1&#45;&gt;Node2 -->
<g id="edge1" class="edge">
<title>Node1&#45;&gt;Node2</title>
<path fill="none" stroke="midnightblue" d="M91.27,-92.81C99.44,-94.05 108.05,-95.36 116.47,-96.64"/>
<polygon fill="midnightblue" stroke="midnightblue" points="116.21,-100.14 126.62,-98.18 117.26,-93.21 116.21,-100.14"/>
</g>
<!-- Node3 -->
<g id="node3" class="node">
<title>Node3</title>
<g id="a_node3"><a xlink:href="code__80057C60_8c.html#a0b7aa27819393515d33469308b9f9b2e" target="_top" xlink:title=" ">
<polygon fill="white" stroke="black" points="127,-57.5 127,-76.5 218,-76.5 218,-57.5 127,-57.5"/>
<text text-anchor="middle" x="172.5" y="-64.5" font-family="Helvetica,sans-Serif" font-size="10.00">func_80059560</text>
</a>
</g>
</g>
<!-- Node1&#45;&gt;Node3 -->
<g id="edge2" class="edge">
<title>Node1&#45;&gt;Node3</title>
<path fill="none" stroke="midnightblue" d="M91.27,-79.19C99.44,-77.95 108.05,-76.64 116.47,-75.36"/>
<polygon fill="midnightblue" stroke="midnightblue" points="117.26,-78.79 126.62,-73.82 116.21,-71.86 117.26,-78.79"/>
</g>
<!-- Node4 -->
<g id="node4" class="node">
<title>Node4</title>
<g id="a_node4"><a xlink:href="hud__renderer_8c.html#ab3e49e29c773461d6b29a3c241629d96" target="_top" xlink:title=" ">
<polygon fill="white" stroke="black" points="382.5,-114.5 382.5,-133.5 473.5,-133.5 473.5,-114.5 382.5,-114.5"/>
<text text-anchor="middle" x="428" y="-121.5" font-family="Helvetica,sans-Serif" font-size="10.00">func_80047910</text>
</a>
</g>
</g>
<!-- Node3&#45;&gt;Node4 -->
<g id="edge3" class="edge">
<title>Node3&#45;&gt;Node4</title>
<path fill="none" stroke="midnightblue" d="M196.76,-76.5C203.65,-79.43 211.17,-82.75 218,-86 234.33,-93.78 236.7,-99.7 254,-105 292.35,-116.76 337.46,-121.43 371.99,-123.21"/>
<polygon fill="midnightblue" stroke="midnightblue" points="372.2,-126.72 382.35,-123.67 372.52,-119.73 372.2,-126.72"/>
</g>
<!-- Node12 -->
<g id="node12" class="node">
<title>Node12</title>
<g id="a_node12"><a xlink:href="hud__renderer_8c.html#ae0891c7b34b681491e19c137da292001" target="_top" xlink:title=" ">
<polygon fill="white" stroke="black" points="254,-38.5 254,-57.5 346,-57.5 346,-38.5 254,-38.5"/>
<text text-anchor="middle" x="300" y="-45.5" font-family="Helvetica,sans-Serif" font-size="10.00">func_8004CB60</text>
</a>
</g>
</g>
<!-- Node3&#45;&gt;Node12 -->
<g id="edge11" class="edge">
<title>Node3&#45;&gt;Node12</title>
<path fill="none" stroke="midnightblue" d="M218.1,-60.25C226.4,-58.99 235.17,-57.66 243.75,-56.36"/>
<polygon fill="midnightblue" stroke="midnightblue" points="244.33,-59.82 253.7,-54.86 243.29,-52.9 244.33,-59.82"/>
</g>
<!-- Node17 -->
<g id="node17" class="node">
<title>Node17</title>
<g id="a_node17"><a xlink:href="hud__renderer_8c.html#ac3aa31afb8462c8e823edd0cf61d1db9" target="_top" xlink:title=" ">
<polygon fill="white" stroke="black" points="254,-76.5 254,-95.5 346,-95.5 346,-76.5 254,-76.5"/>
<text text-anchor="middle" x="300" y="-83.5" font-family="Helvetica,sans-Serif" font-size="10.00">func_8004E6C4</text>
</a>
</g>
</g>
<!-- Node3&#45;&gt;Node17 -->
<g id="edge16" class="edge">
<title>Node3&#45;&gt;Node17</title>
<path fill="none" stroke="midnightblue" d="M218.1,-73.75C226.4,-75.01 235.17,-76.34 243.75,-77.64"/>
<polygon fill="midnightblue" stroke="midnightblue" points="243.29,-81.1 253.7,-79.14 244.33,-74.18 243.29,-81.1"/>
</g>
<!-- Node18 -->
<g id="node18" class="node">
<title>Node18</title>
<g id="a_node18"><a xlink:href="hud__renderer_8c.html#af3f73b0d1bdf3b3ece5da35466be5cf5" target="_top" xlink:title=" ">
<polygon fill="white" stroke="black" points="382,-0.5 382,-19.5 474,-19.5 474,-0.5 382,-0.5"/>
<text text-anchor="middle" x="428" y="-7.5" font-family="Helvetica,sans-Serif" font-size="10.00">func_8004FC78</text>
</a>
</g>
</g>
<!-- Node3&#45;&gt;Node18 -->
<g id="edge18" class="edge">
<title>Node3&#45;&gt;Node18</title>
<path fill="none" stroke="midnightblue" d="M189.53,-57.47C205.34,-48.56 230.5,-35.64 254,-29 292.34,-18.17 337.08,-13.46 371.46,-11.43"/>
<polygon fill="midnightblue" stroke="midnightblue" points="371.98,-14.91 381.78,-10.89 371.61,-7.92 371.98,-14.91"/>
</g>
<!-- Node5 -->
<g id="node5" class="node">
<title>Node5</title>
<g id="a_node5"><a xlink:href="hud__renderer_8c.html#ae26e654f6475a589c21479ac8d294084" target="_top" xlink:title=" ">
<polygon fill="white" stroke="black" points="510,-153 510,-183 642,-183 642,-153 510,-153"/>
<text text-anchor="start" x="518" y="-171" font-family="Helvetica,sans-Serif" font-size="10.00">draw_rectangle_texture</text>
<text text-anchor="middle" x="576" y="-160" font-family="Helvetica,sans-Serif" font-size="10.00">_overlap</text>
</a>
</g>
</g>
<!-- Node4&#45;&gt;Node5 -->
<g id="edge4" class="edge">
<title>Node4&#45;&gt;Node5</title>
<path fill="none" stroke="midnightblue" d="M460.68,-133.55C476.68,-138.37 496.62,-144.38 515.35,-150.02"/>
<polygon fill="midnightblue" stroke="midnightblue" points="514.43,-153.4 525.01,-152.93 516.45,-146.7 514.43,-153.4"/>
</g>
<!-- Node7 -->
<g id="node7" class="node">
<title>Node7</title>
<g id="a_node7"><a xlink:href="math__util__2_8c.html#a22aa509214eeed1ba3197762e76d7bed" target="_top" xlink:title=" ">
<polygon fill="white" stroke="black" points="530.5,-114.5 530.5,-133.5 621.5,-133.5 621.5,-114.5 530.5,-114.5"/>
<text text-anchor="middle" x="576" y="-121.5" font-family="Helvetica,sans-Serif" font-size="10.00">func_80042330</text>
</a>
</g>
</g>
<!-- Node4&#45;&gt;Node7 -->
<g id="edge6" class="edge">
<title>Node4&#45;&gt;Node7</title>
<path fill="none" stroke="midnightblue" d="M473.6,-124C488.25,-124 504.7,-124 520.03,-124"/>
<polygon fill="midnightblue" stroke="midnightblue" points="520.42,-127.5 530.42,-124 520.42,-120.5 520.42,-127.5"/>
</g>
<!-- Node6 -->
<g id="node6" class="node">
<title>Node6</title>
<g id="a_node6"><a xlink:href="hud__renderer_8c.html#a8a3e9d3da5a6ac97b84b553fdc5d7d59" target="_top" xlink:title=" ">
<polygon fill="white" stroke="black" points="692.5,-158.5 692.5,-177.5 790.5,-177.5 790.5,-158.5 692.5,-158.5"/>
<text text-anchor="middle" x="741.5" y="-165.5" font-family="Helvetica,sans-Serif" font-size="10.00">rsp_load_texture</text>
</a>
</g>
</g>
<!-- Node5&#45;&gt;Node6 -->
<g id="edge5" class="edge">
<title>Node5&#45;&gt;Node6</title>
<path fill="none" stroke="midnightblue" d="M642.09,-168C655.3,-168 669.12,-168 682.08,-168"/>
<polygon fill="midnightblue" stroke="midnightblue" points="682.26,-171.5 692.26,-168 682.26,-164.5 682.26,-171.5"/>
</g>
<!-- Node8 -->
<g id="node8" class="node">
<title>Node8</title>
<g id="a_node8"><a xlink:href="render__player_8c.html#af0bbe78d8dc64400663d3702812f9ad8" target="_top" xlink:title=" ">
<polygon fill="white" stroke="black" points="678,-109 678,-139 805,-139 805,-109 678,-109"/>
<text text-anchor="start" x="686" y="-127" font-family="Helvetica,sans-Serif" font-size="10.00">convert_to_fixed_point</text>
<text text-anchor="middle" x="741.5" y="-116" font-family="Helvetica,sans-Serif" font-size="10.00">_matrix</text>
</a>
</g>
</g>
<!-- Node7&#45;&gt;Node8 -->
<g id="edge7" class="edge">
<title>Node7&#45;&gt;Node8</title>
<path fill="none" stroke="midnightblue" d="M621.68,-124C635.87,-124 651.96,-124 667.6,-124"/>
<polygon fill="midnightblue" stroke="midnightblue" points="667.8,-127.5 677.8,-124 667.8,-120.5 667.8,-127.5"/>
</g>
<!-- Node9 -->
<g id="node9" class="node">
<title>Node9</title>
<g id="a_node9"><a xlink:href="math__util__2_8c.html#a54b1e79ca4e8d2f7f7256891f9c4e772" target="_top" xlink:title="arg1 and arg2 are s32&#39;s into floats?!?">
<polygon fill="white" stroke="black" points="678.5,-60 678.5,-90 804.5,-90 804.5,-60 678.5,-60"/>
<text text-anchor="start" x="686.5" y="-78" font-family="Helvetica,sans-Serif" font-size="10.00">mtxf_translation_x</text>
<text text-anchor="middle" x="741.5" y="-67" font-family="Helvetica,sans-Serif" font-size="10.00">_y_rotate_z_scale_x_y</text>
</a>
</g>
</g>
<!-- Node7&#45;&gt;Node9 -->
<g id="edge8" class="edge">
<title>Node7&#45;&gt;Node9</title>
<path fill="none" stroke="midnightblue" d="M610.09,-114.41C620.33,-111.42 631.64,-108.09 642,-105 654.83,-101.17 668.59,-97.01 681.63,-93.05"/>
<polygon fill="midnightblue" stroke="midnightblue" points="682.89,-96.32 691.43,-90.06 680.85,-89.63 682.89,-96.32"/>
</g>
<!-- Node10 -->
<g id="node10" class="node">
<title>Node10</title>
<g id="a_node10"><a xlink:href="math__util_8c.html#ae69cbf5c8d4b3b0dba2d7b4d4673689f" target="_top" xlink:title=" ">
<polygon fill="white" stroke="black" points="841,-84.5 841,-103.5 879,-103.5 879,-84.5 841,-84.5"/>
<text text-anchor="middle" x="860" y="-91.5" font-family="Helvetica,sans-Serif" font-size="10.00">coss</text>
</a>
</g>
</g>
<!-- Node9&#45;&gt;Node10 -->
<g id="edge9" class="edge">
<title>Node9&#45;&gt;Node10</title>
<path fill="none" stroke="midnightblue" d="M804.5,-85.11C813.72,-86.62 822.81,-88.1 830.85,-89.41"/>
<polygon fill="midnightblue" stroke="midnightblue" points="830.3,-92.87 840.73,-91.02 831.43,-85.96 830.3,-92.87"/>
</g>
<!-- Node11 -->
<g id="node11" class="node">
<title>Node11</title>
<g id="a_node11"><a xlink:href="math__util_8c.html#a19ed3bd78fd2d3e2bd0a29f6caf48545" target="_top" xlink:title=" ">
<polygon fill="white" stroke="black" points="842,-46.5 842,-65.5 878,-65.5 878,-46.5 842,-46.5"/>
<text text-anchor="middle" x="860" y="-53.5" font-family="Helvetica,sans-Serif" font-size="10.00">sins</text>
</a>
</g>
</g>
<!-- Node9&#45;&gt;Node11 -->
<g id="edge10" class="edge">
<title>Node9&#45;&gt;Node11</title>
<path fill="none" stroke="midnightblue" d="M804.5,-64.89C814.02,-63.34 823.41,-61.8 831.64,-60.46"/>
<polygon fill="midnightblue" stroke="midnightblue" points="832.4,-63.88 841.71,-58.82 831.27,-56.98 832.4,-63.88"/>
</g>
<!-- Node13 -->
<g id="node13" class="node">
<title>Node13</title>
<g id="a_node13"><a xlink:href="hud__renderer_8c.html#a78570750891ab2837a1afc7015739fce" target="_top" xlink:title=" ">
<polygon fill="white" stroke="black" points="382,-38.5 382,-57.5 474,-57.5 474,-38.5 382,-38.5"/>
<text text-anchor="middle" x="428" y="-45.5" font-family="Helvetica,sans-Serif" font-size="10.00">func_8004C364</text>
</a>
</g>
</g>
<!-- Node12&#45;&gt;Node13 -->
<g id="edge12" class="edge">
<title>Node12&#45;&gt;Node13</title>
<path fill="none" stroke="midnightblue" d="M346.13,-48C354.37,-48 363.04,-48 371.53,-48"/>
<polygon fill="midnightblue" stroke="midnightblue" points="371.76,-51.5 381.76,-48 371.76,-44.5 371.76,-51.5"/>
</g>
<!-- Node14 -->
<g id="node14" class="node">
<title>Node14</title>
<g id="a_node14"><a xlink:href="hud__renderer_8c.html#ad1c5daceb565b2768d02b2308bbf18d2" target="_top" xlink:title=" ">
<polygon fill="white" stroke="black" points="530,-38.5 530,-57.5 622,-57.5 622,-38.5 530,-38.5"/>
<text text-anchor="middle" x="576" y="-45.5" font-family="Helvetica,sans-Serif" font-size="10.00">func_80043D50</text>
</a>
</g>
</g>
<!-- Node13&#45;&gt;Node14 -->
<g id="edge13" class="edge">
<title>Node13&#45;&gt;Node14</title>
<path fill="none" stroke="midnightblue" d="M474.39,-48C488.75,-48 504.77,-48 519.73,-48"/>
<polygon fill="midnightblue" stroke="midnightblue" points="519.88,-51.5 529.88,-48 519.88,-44.5 519.88,-51.5"/>
</g>
<!-- Node15 -->
<g id="node15" class="node">
<title>Node15</title>
<g id="a_node15"><a xlink:href="hud__renderer_8c.html#ac22e89e30eb787d96c44dd83f683930e" target="_top" xlink:title=" ">
<polygon fill="white" stroke="black" points="530,-76.5 530,-95.5 622,-95.5 622,-76.5 530,-76.5"/>
<text text-anchor="middle" x="576" y="-83.5" font-family="Helvetica,sans-Serif" font-size="10.00">func_8004B97C</text>
</a>
</g>
</g>
<!-- Node13&#45;&gt;Node15 -->
<g id="edge14" class="edge">
<title>Node13&#45;&gt;Node15</title>
<path fill="none" stroke="midnightblue" d="M465.84,-57.59C484.85,-62.54 508.23,-68.62 528.47,-73.89"/>
<polygon fill="midnightblue" stroke="midnightblue" points="527.86,-77.35 538.42,-76.48 529.63,-70.57 527.86,-77.35"/>
</g>
<!-- Node16 -->
<g id="node16" class="node">
<title>Node16</title>
<g id="a_node16"><a xlink:href="hud__renderer_8c.html#acaa477cfbccd1a5fae43a67a655accdb" target="_top" xlink:title=" ">
<polygon fill="white" stroke="black" points="694.5,-11.5 694.5,-30.5 788.5,-30.5 788.5,-11.5 694.5,-11.5"/>
<text text-anchor="middle" x="741.5" y="-18.5" font-family="Helvetica,sans-Serif" font-size="10.00">func_8004B7DC</text>
</a>
</g>
</g>
<!-- Node15&#45;&gt;Node16 -->
<g id="edge15" class="edge">
<title>Node15&#45;&gt;Node16</title>
<path fill="none" stroke="midnightblue" d="M613.42,-76.41C622.83,-73.65 632.87,-70.44 642,-67 648.96,-64.38 684.7,-47.54 711.13,-34.99"/>
<polygon fill="midnightblue" stroke="midnightblue" points="712.85,-38.05 720.38,-30.6 709.85,-31.73 712.85,-38.05"/>
</g>
<!-- Node17&#45;&gt;Node4 -->
<g id="edge17" class="edge">
<title>Node17&#45;&gt;Node4</title>
<path fill="none" stroke="midnightblue" d="M332.8,-95.59C348.76,-100.4 368.31,-106.3 385.45,-111.47"/>
<polygon fill="midnightblue" stroke="midnightblue" points="384.63,-114.88 395.22,-114.41 386.65,-108.18 384.63,-114.88"/>
</g>
<!-- Node18&#45;&gt;Node14 -->
<g id="edge19" class="edge">
<title>Node18&#45;&gt;Node14</title>
<path fill="none" stroke="midnightblue" d="M465.84,-19.59C484.85,-24.54 508.23,-30.62 528.47,-35.89"/>
<polygon fill="midnightblue" stroke="midnightblue" points="527.86,-39.35 538.42,-38.48 529.63,-32.57 527.86,-39.35"/>
</g>
<!-- Node19 -->
<g id="node19" class="node">
<title>Node19</title>
<g id="a_node19"><a xlink:href="hud__renderer_8c.html#aff2039298737b1d02de7c19da0b1d49a" target="_top" xlink:title=" ">
<polygon fill="white" stroke="black" points="530,-0.5 530,-19.5 622,-19.5 622,-0.5 530,-0.5"/>
<text text-anchor="middle" x="576" y="-7.5" font-family="Helvetica,sans-Serif" font-size="10.00">func_8004BA98</text>
</a>
</g>
</g>
<!-- Node18&#45;&gt;Node19 -->
<g id="edge20" class="edge">
<title>Node18&#45;&gt;Node19</title>
<path fill="none" stroke="midnightblue" d="M474.39,-10C488.75,-10 504.77,-10 519.73,-10"/>
<polygon fill="midnightblue" stroke="midnightblue" points="519.88,-13.5 529.88,-10 519.88,-6.5 519.88,-13.5"/>
</g>
<!-- Node19&#45;&gt;Node16 -->
<g id="edge21" class="edge">
<title>Node19&#45;&gt;Node16</title>
<path fill="none" stroke="midnightblue" d="M622.11,-13.03C641.35,-14.33 664.02,-15.85 684.33,-17.22"/>
<polygon fill="midnightblue" stroke="midnightblue" points="684.19,-20.72 694.4,-17.9 684.66,-13.74 684.19,-20.72"/>
</g>
</g>
</svg>
