<?xml version="1.0" encoding="UTF-8" standalone="no"?>
<!DOCTYPE svg PUBLIC "-//W3C//DTD SVG 1.1//EN"
 "http://www.w3.org/Graphics/SVG/1.1/DTD/svg11.dtd">
<!-- Generated by graphviz version 2.43.0 (0)
 -->
<!-- Title: func_800939C8 Pages: 1 -->
<!--zoomable 400 -->

<svg id="main" version="1.1" xmlns="http://www.w3.org/2000/svg" xmlns:xlink="http://www.w3.org/1999/xlink" xml:space="preserve" onload="init(evt)">
<style type="text/css"><![CDATA[
.node, .edge {opacity: 0.7;}
.node.selected, .edge.selected {opacity: 1;}
.edge:hover path { stroke: red; }
.edge:hover polygon { stroke: red; fill: red; }
]]></style>

<defs>
  <circle id="rim" cx="0" cy="0" r="7"/>
  <circle id="rim2" cx="0" cy="0" r="3.5"/>
  <g id="zoomPlus">
    <use xlink:href="#rim" fill="#404040"><set attributeName="fill" to="#808080" begin="zoomplus.mouseover" end="zoomplus.mouseout"/></use>
    <path d="M-4,0h8M0,-4v8" fill="none" stroke="white" stroke-width="1.5" pointer-events="none"/>
  </g>
  <g id="zoomMin">
    <use xlink:href="#rim" fill="#404040"><set attributeName="fill" to="#808080" begin="zoomminus.mouseover" end="zoomminus.mouseout"/></use>
    <path d="M-4,0h8" fill="none" stroke="white" stroke-width="1.5" pointer-events="none"/>
  </g>
  <g id="arrowUp" transform="translate(30 24)">
    <use xlink:href="#rim"/>
    <path pointer-events="none" fill="none" stroke="white" stroke-width="1.5" d="M0,-3.0v7 M-2.5,-0.5L0,-3.0L2.5,-0.5"/>
  </g>
  <g id="arrowRight" transform="rotate(90) translate(36 -43)">
    <use xlink:href="#rim"/>
    <path pointer-events="none" fill="none" stroke="white" stroke-width="1.5" d="M0,-3.0v7 M-2.5,-0.5L0,-3.0L2.5,-0.5"/>
  </g>
  <g id="arrowDown" transform="rotate(180) translate(-30 -48)">
    <use xlink:href="#rim"/>
    <path pointer-events="none" fill="none" stroke="white" stroke-width="1.5" d="M0,-3.0v7 M-2.5,-0.5L0,-3.0L2.5,-0.5"/>
  </g>
  <g id="arrowLeft" transform="rotate(270) translate(-36 17)">
    <use xlink:href="#rim"/>
    <path pointer-events="none" fill="none" stroke="white" stroke-width="1.5" d="M0,-3.0v7 M-2.5,-0.5L0,-3.0L2.5,-0.5"/>
  </g>
  <g id="resetDef">
    <use xlink:href="#rim2" fill="#404040"><set attributeName="fill" to="#808080" begin="reset.mouseover" end="reset.mouseout"/></use>
  </g>
</defs>
<script type="application/ecmascript">
var viewWidth = 1691;
var viewHeight = 400;
var sectionId = 'dynsection-70';
</script>
<script type="application/ecmascript" xlink:href="svg.min.js"/>
<svg id="graph" class="graph">
<g id="viewport">
<title>func_800939C8</title>
<!-- Node1 -->
<g id="Node000001" class="node">
<title>Node1</title>
<g id="a_Node000001"><a xlink:title=" ">
<polygon fill="#999999" stroke="#666666" points="92,-166.35 0,-166.35 0,-147.35 92,-147.35 92,-166.35"/>
<text text-anchor="middle" x="46" y="-154.35" font-family="Helvetica,sans-Serif" font-size="10.00">func_800939C8</text>
</a>
</g>
</g>
<!-- Node2 -->
<g id="Node000002" class="node">
<title>Node2</title>
<g id="a_Node000002"><a xlink:href="code__80091750_8c.html#abbfa58bdcdd0f112a593216c6811730a" target="_top" xlink:title=" ">
<polygon fill="white" stroke="#666666" points="198,-166.35 128,-166.35 128,-147.35 198,-147.35 198,-166.35"/>
<text text-anchor="middle" x="163" y="-154.35" font-family="Helvetica,sans-Serif" font-size="10.00">print_text2</text>
</a>
</g>
</g>
<!-- Node1&#45;&gt;Node2 -->
<g id="edge1_Node000001_Node000002" class="edge">
<title>Node1&#45;&gt;Node2</title>
<g id="a_edge1_Node000001_Node000002"><a xlink:title=" ">
<path fill="none" stroke="#63b8ff" d="M92.12,-156.85C100.44,-156.85 109.12,-156.85 117.42,-156.85"/>
<polygon fill="#63b8ff" stroke="#63b8ff" points="117.68,-160.35 127.68,-156.85 117.68,-153.35 117.68,-160.35"/>
</a>
</g>
</g>
<!-- Node3 -->
<g id="Node000003" class="node">
<title>Node3</title>
<g id="a_Node000003"><a xlink:href="code__80091750_8c.html#ace62f40ce813c34904327e39643a0dbf" target="_top" xlink:title=" ">
<polygon fill="white" stroke="#666666" points="351,-240.35 234,-240.35 234,-221.35 351,-221.35 351,-240.35"/>
<text text-anchor="middle" x="292.5" y="-228.35" font-family="Helvetica,sans-Serif" font-size="10.00">char_to_glyph_index</text>
</a>
</g>
</g>
<!-- Node2&#45;&gt;Node3 -->
<g id="edge2_Node000002_Node000003" class="edge">
<title>Node2&#45;&gt;Node3</title>
<g id="a_edge2_Node000002_Node000003"><a xlink:title=" ">
<path fill="none" stroke="#63b8ff" d="M180.41,-166.37C202.09,-178.96 240.52,-201.26 266,-216.05"/>
<polygon fill="#63b8ff" stroke="#63b8ff" points="264.34,-219.14 274.75,-221.13 267.86,-213.08 264.34,-219.14"/>
</a>
</g>
</g>
<!-- Node7 -->
<g id="Node000007" class="node">
<title>Node7</title>
<g id="a_Node000007"><a xlink:href="code__80091750_8h.html#a003bc23ca6b163f0a02de87a0cc9d034" target="_top" xlink:title=" ">
<polygon fill="white" stroke="#666666" points="338,-185.35 247,-185.35 247,-166.35 338,-166.35 338,-185.35"/>
<text text-anchor="middle" x="292.5" y="-173.35" font-family="Helvetica,sans-Serif" font-size="10.00">func_80099184</text>
</a>
</g>
</g>
<!-- Node2&#45;&gt;Node7 -->
<g id="edge7_Node000002_Node000007" class="edge">
<title>Node2&#45;&gt;Node7</title>
<g id="a_edge7_Node000002_Node000007"><a xlink:title=" ">
<path fill="none" stroke="#63b8ff" d="M198.17,-161.94C209.92,-163.69 223.41,-165.7 236.4,-167.64"/>
<polygon fill="#63b8ff" stroke="#63b8ff" points="236.27,-171.16 246.67,-169.17 237.3,-164.23 236.27,-171.16"/>
</a>
</g>
</g>
<!-- Node8 -->
<g id="Node000008" class="node">
<title>Node8</title>
<g id="a_Node000008"><a xlink:href="code__80091750_8c.html#acfe0d37d2bcaf68ab55516b2adf7a81f" target="_top" xlink:title=" ">
<polygon fill="white" stroke="#666666" points="338.5,-148.35 246.5,-148.35 246.5,-129.35 338.5,-129.35 338.5,-148.35"/>
<text text-anchor="middle" x="292.5" y="-136.35" font-family="Helvetica,sans-Serif" font-size="10.00">func_8009BEF0</text>
</a>
</g>
</g>
<!-- Node2&#45;&gt;Node8 -->
<g id="edge8_Node000002_Node000008" class="edge">
<title>Node2&#45;&gt;Node8</title>
<g id="a_edge8_Node000002_Node000008"><a xlink:title=" ">
<path fill="none" stroke="#63b8ff" d="M198.17,-152.03C209.81,-150.38 223.14,-148.5 236.01,-146.68"/>
<polygon fill="#63b8ff" stroke="#63b8ff" points="236.79,-150.11 246.2,-145.24 235.81,-143.18 236.79,-150.11"/>
</a>
</g>
</g>
<!-- Node43 -->
<g id="Node000043" class="node">
<title>Node43</title>
<g id="a_Node000043"><a xlink:href="code__80091750_8c.html#a2d2758c3a87de891a40840727bef3306" target="_top" xlink:title=" ">
<polygon fill="white" stroke="#666666" points="539,-110.35 387,-110.35 387,-91.35 539,-91.35 539,-110.35"/>
<text text-anchor="middle" x="463" y="-98.35" font-family="Helvetica,sans-Serif" font-size="10.00">segmented_to_virtual_dupe</text>
</a>
</g>
</g>
<!-- Node2&#45;&gt;Node43 -->
<g id="edge58_Node000002_Node000043" class="edge">
<title>Node2&#45;&gt;Node43</title>
<g id="a_edge58_Node000002_Node000043"><a xlink:title=" ">
<path fill="none" stroke="#63b8ff" d="M178.02,-147.25C191.65,-138.45 213.29,-125.91 234,-119.85 279.97,-106.4 333.22,-101.4 376.69,-99.88"/>
<polygon fill="#63b8ff" stroke="#63b8ff" points="377.06,-103.37 386.95,-99.58 376.85,-96.38 377.06,-103.37"/>
</a>
</g>
</g>
<!-- Node4 -->
<g id="Node000004" class="node">
<title>Node4</title>
<g id="a_Node000004"><a xlink:href="code__80091750_8c.html#acd040d1eac6c147a7339fd7aa1bc8f50" target="_top" xlink:title=" ">
<polygon fill="white" stroke="#666666" points="509,-258.35 417,-258.35 417,-239.35 509,-239.35 509,-258.35"/>
<text text-anchor="middle" x="463" y="-246.35" font-family="Helvetica,sans-Serif" font-size="10.00">func_80092DF8</text>
</a>
</g>
</g>
<!-- Node3&#45;&gt;Node4 -->
<g id="edge3_Node000003_Node000004" class="edge">
<title>Node3&#45;&gt;Node4</title>
<g id="a_edge3_Node000003_Node000004"><a xlink:title=" ">
<path fill="none" stroke="#63b8ff" d="M351.02,-236.99C369.11,-238.93 389.04,-241.06 406.96,-242.97"/>
<polygon fill="#63b8ff" stroke="#63b8ff" points="406.65,-246.46 416.97,-244.04 407.4,-239.5 406.65,-246.46"/>
</a>
</g>
</g>
<!-- Node5 -->
<g id="Node000005" class="node">
<title>Node5</title>
<g id="a_Node000005"><a xlink:href="code__80091750_8c.html#acd5b29a8e8634aa4f3db4b9a7c5ba033" target="_top" xlink:title=" ">
<polygon fill="white" stroke="#666666" points="667,-277.35 575,-277.35 575,-258.35 667,-258.35 667,-277.35"/>
<text text-anchor="middle" x="621" y="-265.35" font-family="Helvetica,sans-Serif" font-size="10.00">func_80092E1C</text>
</a>
</g>
</g>
<!-- Node3&#45;&gt;Node5 -->
<g id="edge5_Node000003_Node000005" class="edge">
<title>Node3&#45;&gt;Node5</title>
<g id="a_edge5_Node000003_Node000005"><a xlink:title=" ">
<path fill="none" stroke="#63b8ff" d="M311.51,-240.35C329.9,-249.47 359.56,-262.62 387,-267.85 446.97,-279.28 517.21,-277.24 564.77,-273.63"/>
<polygon fill="#63b8ff" stroke="#63b8ff" points="565.18,-277.11 574.86,-272.81 564.61,-270.13 565.18,-277.11"/>
</a>
</g>
</g>
<!-- Node6 -->
<g id="Node000006" class="node">
<title>Node6</title>
<g id="a_Node000006"><a xlink:href="code__80091750_8c.html#ab26c8dca1828cd1d5a6c341cb851f0b9" target="_top" xlink:title=" ">
<polygon fill="white" stroke="#666666" points="508.5,-221.35 417.5,-221.35 417.5,-202.35 508.5,-202.35 508.5,-221.35"/>
<text text-anchor="middle" x="463" y="-209.35" font-family="Helvetica,sans-Serif" font-size="10.00">func_80092EE4</text>
</a>
</g>
</g>
<!-- Node3&#45;&gt;Node6 -->
<g id="edge6_Node000003_Node000006" class="edge">
<title>Node3&#45;&gt;Node6</title>
<g id="a_edge6_Node000003_Node000006"><a xlink:title=" ">
<path fill="none" stroke="#63b8ff" d="M351.02,-224.36C369.19,-222.31 389.22,-220.06 407.2,-218.03"/>
<polygon fill="#63b8ff" stroke="#63b8ff" points="407.69,-221.5 417.24,-216.9 406.91,-214.54 407.69,-221.5"/>
</a>
</g>
</g>
<!-- Node4&#45;&gt;Node5 -->
<g id="edge4_Node000004_Node000005" class="edge">
<title>Node4&#45;&gt;Node5</title>
<g id="a_edge4_Node000004_Node000005"><a xlink:title=" ">
<path fill="none" stroke="#63b8ff" d="M509.12,-254.34C526.58,-256.47 546.74,-258.93 565.04,-261.15"/>
<polygon fill="#63b8ff" stroke="#63b8ff" points="564.63,-264.63 574.98,-262.37 565.48,-257.68 564.63,-264.63"/>
</a>
</g>
</g>
<!-- Node9 -->
<g id="Node000009" class="node">
<title>Node9</title>
<g id="a_Node000009"><a xlink:href="code__80091750_8c.html#a37eb021a953285ba504198ac6ca73a9a" target="_top" xlink:title=" ">
<polygon fill="white" stroke="#666666" points="509.5,-184.35 416.5,-184.35 416.5,-165.35 509.5,-165.35 509.5,-184.35"/>
<text text-anchor="middle" x="463" y="-172.35" font-family="Helvetica,sans-Serif" font-size="10.00">func_80095BD0</text>
</a>
</g>
</g>
<!-- Node8&#45;&gt;Node9 -->
<g id="edge9_Node000008_Node000009" class="edge">
<title>Node8&#45;&gt;Node9</title>
<g id="a_edge9_Node000008_Node000009"><a xlink:title=" ">
<path fill="none" stroke="#63b8ff" d="M338.21,-148.4C359.43,-152.94 384.98,-158.39 407.35,-163.17"/>
<polygon fill="#63b8ff" stroke="#63b8ff" points="406.86,-166.65 417.37,-165.31 408.32,-159.8 406.86,-166.65"/>
</a>
</g>
</g>
<!-- Node42 -->
<g id="Node000042" class="node">
<title>Node42</title>
<g id="a_Node000042"><a xlink:href="code__80091750_8c.html#a6155ab0ab67ac7727ed32d9feaf9f0ea" target="_top" xlink:title=" ">
<polygon fill="white" stroke="#666666" points="509,-147.35 417,-147.35 417,-128.35 509,-128.35 509,-147.35"/>
<text text-anchor="middle" x="463" y="-135.35" font-family="Helvetica,sans-Serif" font-size="10.00">func_8009B8C4</text>
</a>
</g>
</g>
<!-- Node8&#45;&gt;Node42 -->
<g id="edge56_Node000008_Node000042" class="edge">
<title>Node8&#45;&gt;Node42</title>
<g id="a_edge56_Node000008_Node000042"><a xlink:title=" ">
<path fill="none" stroke="#63b8ff" d="M338.65,-138.58C359.53,-138.46 384.51,-138.31 406.52,-138.18"/>
<polygon fill="#63b8ff" stroke="#63b8ff" points="406.74,-141.68 416.72,-138.12 406.7,-134.68 406.74,-141.68"/>
</a>
</g>
</g>
<!-- Node8&#45;&gt;Node43 -->
<g id="edge57_Node000008_Node000043" class="edge">
<title>Node8&#45;&gt;Node43</title>
<g id="a_edge57_Node000008_Node000043"><a xlink:title=" ">
<path fill="none" stroke="#63b8ff" d="M336.02,-129.26C358.46,-124.2 386.17,-117.95 409.89,-112.6"/>
<polygon fill="#63b8ff" stroke="#63b8ff" points="410.8,-115.98 419.79,-110.37 409.26,-109.16 410.8,-115.98"/>
</a>
</g>
</g>
<!-- Node10 -->
<g id="Node000010" class="node">
<title>Node10</title>
<g id="a_Node000010"><a xlink:href="code__80091750_8c.html#ae0fd5923ba70cf6939cd3fa8d09c1191" target="_top" xlink:title=" ">
<polygon fill="white" stroke="#666666" points="666.5,-147.35 575.5,-147.35 575.5,-128.35 666.5,-128.35 666.5,-147.35"/>
<text text-anchor="middle" x="621" y="-135.35" font-family="Helvetica,sans-Serif" font-size="10.00">func_800959F8</text>
</a>
</g>
</g>
<!-- Node9&#45;&gt;Node10 -->
<g id="edge10_Node000009_Node000010" class="edge">
<title>Node9&#45;&gt;Node10</title>
<g id="a_edge10_Node000009_Node000010"><a xlink:title=" ">
<path fill="none" stroke="#63b8ff" d="M504.17,-165.32C524.2,-160.57 548.62,-154.78 569.87,-149.74"/>
<polygon fill="#63b8ff" stroke="#63b8ff" points="570.77,-153.12 579.69,-147.41 569.15,-146.31 570.77,-153.12"/>
</a>
</g>
</g>
<!-- Node11 -->
<g id="Node000011" class="node">
<title>Node11</title>
<g id="a_Node000011"><a xlink:href="code__80091750_8h.html#a9d4f5bccf624ab91bf0b7a450b8c0e73" target="_top" xlink:title=" ">
<polygon fill="white" stroke="#666666" points="667,-221.35 575,-221.35 575,-202.35 667,-202.35 667,-221.35"/>
<text text-anchor="middle" x="621" y="-209.35" font-family="Helvetica,sans-Serif" font-size="10.00">func_80095AE0</text>
</a>
</g>
</g>
<!-- Node9&#45;&gt;Node11 -->
<g id="edge11_Node000009_Node000011" class="edge">
<title>Node9&#45;&gt;Node11</title>
<g id="a_edge11_Node000009_Node000011"><a xlink:title=" ">
<path fill="none" stroke="#63b8ff" d="M504.17,-184.38C524.2,-189.13 548.62,-194.92 569.87,-199.96"/>
<polygon fill="#63b8ff" stroke="#63b8ff" points="569.15,-203.39 579.69,-202.29 570.77,-196.58 569.15,-203.39"/>
</a>
</g>
</g>
<!-- Node12 -->
<g id="Node000012" class="node">
<title>Node12</title>
<g id="a_Node000012"><a xlink:href="osSyncPrintf_8c.html#a8b417b868747c80d58f83d8a1e78ecf3" target="_top" xlink:title=" ">
<polygon fill="white" stroke="#666666" points="655,-184.35 587,-184.35 587,-165.35 655,-165.35 655,-184.35"/>
<text text-anchor="middle" x="621" y="-172.35" font-family="Helvetica,sans-Serif" font-size="10.00">rmonPrintf</text>
</a>
</g>
</g>
<!-- Node9&#45;&gt;Node12 -->
<g id="edge12_Node000009_Node000012" class="edge">
<title>Node9&#45;&gt;Node12</title>
<g id="a_edge12_Node000009_Node000012"><a xlink:title=" ">
<path fill="none" stroke="#63b8ff" d="M509.54,-174.85C530.62,-174.85 555.55,-174.85 576.39,-174.85"/>
<polygon fill="#63b8ff" stroke="#63b8ff" points="576.56,-178.35 586.56,-174.85 576.56,-171.35 576.56,-178.35"/>
</a>
</g>
</g>
<!-- Node13 -->
<g id="Node000013" class="node">
<title>Node13</title>
<g id="a_Node000013"><a xlink:href="__Printf_8c.html#a39bb05c90efce6c6790c5d58d271d72d" target="_top" xlink:title=" ">
<polygon fill="white" stroke="#666666" points="779.5,-203.35 731.5,-203.35 731.5,-184.35 779.5,-184.35 779.5,-203.35"/>
<text text-anchor="middle" x="755.5" y="-191.35" font-family="Helvetica,sans-Serif" font-size="10.00">_Printf</text>
</a>
</g>
</g>
<!-- Node12&#45;&gt;Node13 -->
<g id="edge13_Node000012_Node000013" class="edge">
<title>Node12&#45;&gt;Node13</title>
<g id="a_edge13_Node000012_Node000013"><a xlink:title=" ">
<path fill="none" stroke="#63b8ff" d="M655.09,-179.59C675.33,-182.5 701.12,-186.2 721.37,-189.1"/>
<polygon fill="#63b8ff" stroke="#63b8ff" points="720.99,-192.58 731.39,-190.53 721.98,-185.65 720.99,-192.58"/>
</a>
</g>
</g>
<!-- Node24 -->
<g id="Node000024" class="node">
<title>Node24</title>
<g id="a_Node000024"><a xlink:href="is__debug_8c.html#aaccfac8d9098530b6592eefe679d86b4" target="_top" xlink:title=" ">
<polygon fill="white" stroke="#666666" points="808,-166.35 703,-166.35 703,-147.35 808,-147.35 808,-166.35"/>
<text text-anchor="middle" x="755.5" y="-154.35" font-family="Helvetica,sans-Serif" font-size="10.00">is_proutSyncPrintf</text>
</a>
</g>
</g>
<!-- Node12&#45;&gt;Node24 -->
<g id="edge26_Node000012_Node000024" class="edge">
<title>Node12&#45;&gt;Node24</title>
<g id="a_edge26_Node000012_Node000024"><a xlink:title=" ">
<path fill="none" stroke="#63b8ff" d="M655.09,-170.35C666.46,-168.81 679.59,-167.03 692.5,-165.27"/>
<polygon fill="#63b8ff" stroke="#63b8ff" points="693.33,-168.69 702.77,-163.88 692.39,-161.75 693.33,-168.69"/>
</a>
</g>
</g>
<!-- Node14 -->
<g id="Node000014" class="node">
<title>Node14</title>
<g id="a_Node000014"><a xlink:href="__Printf_8c.html#ad73a5847f2d7c9de14cc2723da86bf45" target="_top" xlink:title=" ">
<polygon fill="white" stroke="#666666" points="908,-296.35 858,-296.35 858,-277.35 908,-277.35 908,-296.35"/>
<text text-anchor="middle" x="883" y="-284.35" font-family="Helvetica,sans-Serif" font-size="10.00">_Putfld</text>
</a>
</g>
</g>
<!-- Node13&#45;&gt;Node14 -->
<g id="edge14_Node000013_Node000014" class="edge">
<title>Node13&#45;&gt;Node14</title>
<g id="a_edge14_Node000013_Node000014"><a xlink:title=" ">
<path fill="none" stroke="#63b8ff" d="M769.46,-203.45C791.06,-219.46 834.65,-251.76 860.79,-271.13"/>
<polygon fill="#63b8ff" stroke="#63b8ff" points="858.81,-274.02 868.92,-277.16 862.97,-268.39 858.81,-274.02"/>
</a>
</g>
</g>
<!-- Node23 -->
<g id="Node000023" class="node">
<title>Node23</title>
<g id="a_Node000023"><a xlink:href="string_8c.html#a988b4defe51a1815ef3b9ddab10e7a89" target="_top" xlink:title=" ">
<polygon fill="white" stroke="#666666" points="905,-203.35 861,-203.35 861,-184.35 905,-184.35 905,-203.35"/>
<text text-anchor="middle" x="883" y="-191.35" font-family="Helvetica,sans-Serif" font-size="10.00">strchr</text>
</a>
</g>
</g>
<!-- Node13&#45;&gt;Node23 -->
<g id="edge25_Node000013_Node000023" class="edge">
<title>Node13&#45;&gt;Node23</title>
<g id="a_edge25_Node000013_Node000023"><a xlink:title=" ">
<path fill="none" stroke="#63b8ff" d="M779.52,-193.85C799.47,-193.85 828.51,-193.85 850.59,-193.85"/>
<polygon fill="#63b8ff" stroke="#63b8ff" points="850.8,-197.35 860.8,-193.85 850.8,-190.35 850.8,-197.35"/>
</a>
</g>
</g>
<!-- Node15 -->
<g id="Node000015" class="node">
<title>Node15</title>
<g id="a_Node000015"><a xlink:href="__Ldtob_8c.html#a7cc858157b66e15c831ad085113729ae" target="_top" xlink:title=" ">
<polygon fill="white" stroke="#666666" points="1037.5,-278.35 988.5,-278.35 988.5,-259.35 1037.5,-259.35 1037.5,-278.35"/>
<text text-anchor="middle" x="1013" y="-266.35" font-family="Helvetica,sans-Serif" font-size="10.00">_Ldtob</text>
</a>
</g>
</g>
<!-- Node14&#45;&gt;Node15 -->
<g id="edge15_Node000014_Node000015" class="edge">
<title>Node14&#45;&gt;Node15</title>
<g id="a_edge15_Node000014_Node000015"><a xlink:title=" ">
<path fill="none" stroke="#63b8ff" d="M908.08,-283.46C927.96,-280.67 956.39,-276.67 978.5,-273.56"/>
<polygon fill="#63b8ff" stroke="#63b8ff" points="979.05,-277.02 988.46,-272.16 978.07,-270.09 979.05,-277.02"/>
</a>
</g>
</g>
<!-- Node20 -->
<g id="Node000020" class="node">
<title>Node20</title>
<g id="a_Node000020"><a xlink:href="__Litob_8c.html#aaaba3b0ab7920d422a61fe9e22600dd0" target="_top" xlink:title=" ">
<polygon fill="white" stroke="#666666" points="1036,-373.35 990,-373.35 990,-354.35 1036,-354.35 1036,-373.35"/>
<text text-anchor="middle" x="1013" y="-361.35" font-family="Helvetica,sans-Serif" font-size="10.00">_Litob</text>
</a>
</g>
</g>
<!-- Node14&#45;&gt;Node20 -->
<g id="edge21_Node000014_Node000020" class="edge">
<title>Node14&#45;&gt;Node20</title>
<g id="a_edge21_Node000014_Node000020"><a xlink:title=" ">
<path fill="none" stroke="#63b8ff" d="M899.95,-296.45C921.8,-309.59 961.24,-333.32 987.02,-348.82"/>
<polygon fill="#63b8ff" stroke="#63b8ff" points="985.47,-351.98 995.85,-354.13 989.08,-345.98 985.47,-351.98"/>
</a>
</g>
</g>
<!-- Node22 -->
<g id="Node000022" class="node">
<title>Node22</title>
<g id="a_Node000022"><a xlink:href="string_8c.html#a008e171a518fe0e0352f31b245e03875" target="_top" xlink:title=" ">
<polygon fill="white" stroke="#666666" points="1035,-315.35 991,-315.35 991,-296.35 1035,-296.35 1035,-315.35"/>
<text text-anchor="middle" x="1013" y="-303.35" font-family="Helvetica,sans-Serif" font-size="10.00">strlen</text>
</a>
</g>
</g>
<!-- Node14&#45;&gt;Node22 -->
<g id="edge24_Node000014_Node000022" class="edge">
<title>Node14&#45;&gt;Node22</title>
<g id="a_edge24_Node000014_Node000022"><a xlink:title=" ">
<path fill="none" stroke="#63b8ff" d="M908.08,-290.42C928.58,-293.47 958.19,-297.86 980.56,-301.18"/>
<polygon fill="#63b8ff" stroke="#63b8ff" points="980.18,-304.66 990.58,-302.67 981.21,-297.74 980.18,-304.66"/>
</a>
</g>
</g>
<!-- Node16 -->
<g id="Node000016" class="node">
<title>Node16</title>
<g id="a_Node000016"><a xlink:href="__Ldtob_8c.html#a2b6c5318b43bab1636bad9113ffb2761" target="_top" xlink:title=" ">
<polygon fill="white" stroke="#666666" points="1201.5,-297.35 1151.5,-297.35 1151.5,-278.35 1201.5,-278.35 1201.5,-297.35"/>
<text text-anchor="middle" x="1176.5" y="-285.35" font-family="Helvetica,sans-Serif" font-size="10.00">_Genld</text>
</a>
</g>
</g>
<!-- Node15&#45;&gt;Node16 -->
<g id="edge16_Node000015_Node000016" class="edge">
<title>Node15&#45;&gt;Node16</title>
<g id="a_edge16_Node000015_Node000016"><a xlink:title=" ">
<path fill="none" stroke="#63b8ff" d="M1037.83,-271.65C1065.18,-274.87 1110.27,-280.17 1141.35,-283.83"/>
<polygon fill="#63b8ff" stroke="#63b8ff" points="1140.97,-287.31 1151.31,-285 1141.79,-280.36 1140.97,-287.31"/>
</a>
</g>
</g>
<!-- Node17 -->
<g id="Node000017" class="node">
<title>Node17</title>
<g id="a_Node000017"><a xlink:href="string_8c.html#ad7f1ae1bbb49dece44bda378982a704d" target="_top" xlink:title=" ">
<polygon fill="white" stroke="#666666" points="1373.5,-335.35 1314.5,-335.35 1314.5,-316.35 1373.5,-316.35 1373.5,-335.35"/>
<text text-anchor="middle" x="1344" y="-323.35" font-family="Helvetica,sans-Serif" font-size="10.00">memcpy</text>
</a>
</g>
</g>
<!-- Node15&#45;&gt;Node17 -->
<g id="edge20_Node000015_Node000017" class="edge">
<title>Node15&#45;&gt;Node17</title>
<g id="a_edge20_Node000015_Node000017"><a xlink:title=" ">
<path fill="none" stroke="#63b8ff" d="M1037.68,-276.34C1047.22,-279.57 1058.26,-283.59 1068,-287.85 1084.58,-295.09 1086.63,-301.81 1104,-306.85 1172.38,-326.7 1256.09,-328.5 1304.11,-327.52"/>
<polygon fill="#63b8ff" stroke="#63b8ff" points="1304.47,-331.01 1314.37,-327.25 1304.29,-324.01 1304.47,-331.01"/>
</a>
</g>
</g>
<!-- Node18 -->
<g id="Node000018" class="node">
<title>Node18</title>
<g id="a_Node000018"><a xlink:href="__Ldtob_8c.html#ab7ade9ce60aaa8baa0244b503351d742" target="_top" xlink:title=" ">
<polygon fill="white" stroke="#666666" points="1212,-260.35 1141,-260.35 1141,-241.35 1212,-241.35 1212,-260.35"/>
<text text-anchor="middle" x="1176.5" y="-248.35" font-family="Helvetica,sans-Serif" font-size="10.00">_Ldunscale</text>
</a>
</g>
</g>
<!-- Node15&#45;&gt;Node18 -->
<g id="edge18_Node000015_Node000018" class="edge">
<title>Node15&#45;&gt;Node18</title>
<g id="a_edge18_Node000015_Node000018"><a xlink:title=" ">
<path fill="none" stroke="#63b8ff" d="M1037.83,-266.19C1062.16,-263.48 1100.52,-259.21 1130.58,-255.86"/>
<polygon fill="#63b8ff" stroke="#63b8ff" points="1131.27,-259.3 1140.82,-254.71 1130.5,-252.34 1131.27,-259.3"/>
</a>
</g>
</g>
<!-- Node19 -->
<g id="Node000019" class="node">
<title>Node19</title>
<g id="a_Node000019"><a xlink:href="ldiv_8c.html#a0302920caf64a5fbe1ce0862799d7784" target="_top" xlink:title=" ">
<polygon fill="white" stroke="#666666" points="1194,-223.35 1159,-223.35 1159,-204.35 1194,-204.35 1194,-223.35"/>
<text text-anchor="middle" x="1176.5" y="-211.35" font-family="Helvetica,sans-Serif" font-size="10.00">ldiv</text>
</a>
</g>
</g>
<!-- Node15&#45;&gt;Node19 -->
<g id="edge19_Node000015_Node000019" class="edge">
<title>Node15&#45;&gt;Node19</title>
<g id="a_edge19_Node000015_Node000019"><a xlink:title=" ">
<path fill="none" stroke="#63b8ff" d="M1035.92,-259.22C1053.97,-251.49 1080.36,-240.69 1104,-232.85 1118.62,-228 1135.24,-223.53 1148.77,-220.14"/>
<polygon fill="#63b8ff" stroke="#63b8ff" points="1149.98,-223.44 1158.86,-217.67 1148.32,-216.64 1149.98,-223.44"/>
</a>
</g>
</g>
<!-- Node16&#45;&gt;Node17 -->
<g id="edge17_Node000016_Node000017" class="edge">
<title>Node16&#45;&gt;Node17</title>
<g id="a_edge17_Node000016_Node000017"><a xlink:title=" ">
<path fill="none" stroke="#63b8ff" d="M1201.57,-293.37C1228.58,-299.58 1272.8,-309.73 1304.61,-317.03"/>
<polygon fill="#63b8ff" stroke="#63b8ff" points="1303.93,-320.47 1314.46,-319.3 1305.5,-313.65 1303.93,-320.47"/>
</a>
</g>
</g>
<!-- Node20&#45;&gt;Node17 -->
<g id="edge23_Node000020_Node000017" class="edge">
<title>Node20&#45;&gt;Node17</title>
<g id="a_edge23_Node000020_Node000017"><a xlink:title=" ">
<path fill="none" stroke="#63b8ff" d="M1036.2,-370.69C1078.48,-382.63 1173.11,-404.06 1249,-382.85 1277.43,-374.9 1305.83,-355.75 1323.85,-341.83"/>
<polygon fill="#63b8ff" stroke="#63b8ff" points="1326.17,-344.46 1331.81,-335.49 1321.81,-338.98 1326.17,-344.46"/>
</a>
</g>
</g>
<!-- Node21 -->
<g id="Node000021" class="node">
<title>Node21</title>
<g id="a_Node000021"><a xlink:href="ldiv_8c.html#a5b23c3639f11980dca762c5f1d74f339" target="_top" xlink:title=" ">
<polygon fill="white" stroke="#666666" points="1195.5,-373.35 1157.5,-373.35 1157.5,-354.35 1195.5,-354.35 1195.5,-373.35"/>
<text text-anchor="middle" x="1176.5" y="-361.35" font-family="Helvetica,sans-Serif" font-size="10.00">lldiv</text>
</a>
</g>
</g>
<!-- Node20&#45;&gt;Node21 -->
<g id="edge22_Node000020_Node000021" class="edge">
<title>Node20&#45;&gt;Node21</title>
<g id="a_edge22_Node000020_Node000021"><a xlink:title=" ">
<path fill="none" stroke="#63b8ff" d="M1036.12,-363.85C1064.86,-363.85 1115.12,-363.85 1146.78,-363.85"/>
<polygon fill="#63b8ff" stroke="#63b8ff" points="1147.14,-367.35 1157.14,-363.85 1147.14,-360.35 1147.14,-367.35"/>
</a>
</g>
</g>
<!-- Node25 -->
<g id="Node000025" class="node">
<title>Node25</title>
<g id="a_Node000025"><a xlink:href="is__debug_8c.html#ad34fb3f282468e860f91a71e933dbd27" target="_top" xlink:title=" ">
<polygon fill="white" stroke="#666666" points="921.5,-166.35 844.5,-166.35 844.5,-147.35 921.5,-147.35 921.5,-166.35"/>
<text text-anchor="middle" x="883" y="-154.35" font-family="Helvetica,sans-Serif" font-size="10.00">osEPiReadIo</text>
</a>
</g>
</g>
<!-- Node24&#45;&gt;Node25 -->
<g id="edge27_Node000024_Node000025" class="edge">
<title>Node24&#45;&gt;Node25</title>
<g id="a_edge27_Node000024_Node000025"><a xlink:title=" ">
<path fill="none" stroke="#63b8ff" d="M808.27,-156.85C816.81,-156.85 825.64,-156.85 834.08,-156.85"/>
<polygon fill="#63b8ff" stroke="#63b8ff" points="834.15,-160.35 844.15,-156.85 834.15,-153.35 834.15,-160.35"/>
</a>
</g>
</g>
<!-- Node40 -->
<g id="Node000040" class="node">
<title>Node40</title>
<g id="a_Node000040"><a xlink:href="is__debug_8c.html#a83116d80985dec6cd811d1167c49969f" target="_top" xlink:title=" ">
<polygon fill="white" stroke="#666666" points="922,-129.35 844,-129.35 844,-110.35 922,-110.35 922,-129.35"/>
<text text-anchor="middle" x="883" y="-117.35" font-family="Helvetica,sans-Serif" font-size="10.00">osEPiWriteIo</text>
</a>
</g>
</g>
<!-- Node24&#45;&gt;Node40 -->
<g id="edge52_Node000024_Node000040" class="edge">
<title>Node24&#45;&gt;Node40</title>
<g id="a_edge52_Node000024_Node000040"><a xlink:title=" ">
<path fill="none" stroke="#63b8ff" d="M788.82,-147.32C804.22,-142.78 822.84,-137.29 839.37,-132.42"/>
<polygon fill="#63b8ff" stroke="#63b8ff" points="840.75,-135.66 849.35,-129.47 838.77,-128.94 840.75,-135.66"/>
</a>
</g>
</g>
<!-- Node26 -->
<g id="Node000026" class="node">
<title>Node26</title>
<g id="a_Node000026"><a xlink:href="is__debug_8c.html#ac7f22425af62fbc8ea920010d08c96b9" target="_top" xlink:title=" ">
<polygon fill="white" stroke="#666666" points="1067,-203.35 959,-203.35 959,-184.35 1067,-184.35 1067,-203.35"/>
<text text-anchor="middle" x="1013" y="-191.35" font-family="Helvetica,sans-Serif" font-size="10.00">__osEPiRawReadIo</text>
</a>
</g>
</g>
<!-- Node25&#45;&gt;Node26 -->
<g id="edge28_Node000025_Node000026" class="edge">
<title>Node25&#45;&gt;Node26</title>
<g id="a_edge28_Node000025_Node000026"><a xlink:title=" ">
<path fill="none" stroke="#63b8ff" d="M916.96,-166.38C932.81,-170.96 952.02,-176.51 969,-181.42"/>
<polygon fill="#63b8ff" stroke="#63b8ff" points="968.12,-184.81 978.7,-184.22 970.07,-178.09 968.12,-184.81"/>
</a>
</g>
</g>
<!-- Node27 -->
<g id="Node000027" class="node">
<title>Node27</title>
<g id="a_Node000027"><a xlink:href="____osPiCreateAccessQueue_8c.html#afd543b327be2093794db8fbef3a28149" target="_top" xlink:title=" ">
<polygon fill="white" stroke="#666666" points="1062,-166.35 964,-166.35 964,-147.35 1062,-147.35 1062,-166.35"/>
<text text-anchor="middle" x="1013" y="-154.35" font-family="Helvetica,sans-Serif" font-size="10.00">__osPiGetAccess</text>
</a>
</g>
</g>
<!-- Node25&#45;&gt;Node27 -->
<g id="edge29_Node000025_Node000027" class="edge">
<title>Node25&#45;&gt;Node27</title>
<g id="a_edge29_Node000025_Node000027"><a xlink:title=" ">
<path fill="none" stroke="#63b8ff" d="M921.71,-156.85C931.66,-156.85 942.63,-156.85 953.4,-156.85"/>
<polygon fill="#63b8ff" stroke="#63b8ff" points="953.62,-160.35 963.62,-156.85 953.62,-153.35 953.62,-160.35"/>
</a>
</g>
</g>
<!-- Node39 -->
<g id="Node000039" class="node">
<title>Node39</title>
<g id="a_Node000039"><a xlink:href="____osPiCreateAccessQueue_8c.html#a063e76e89640a5d0e522c1c9fa92191d" target="_top" xlink:title=" ">
<polygon fill="white" stroke="#666666" points="1061.5,-129.35 964.5,-129.35 964.5,-110.35 1061.5,-110.35 1061.5,-129.35"/>
<text text-anchor="middle" x="1013" y="-117.35" font-family="Helvetica,sans-Serif" font-size="10.00">__osPiRelAccess</text>
</a>
</g>
</g>
<!-- Node25&#45;&gt;Node39 -->
<g id="edge50_Node000025_Node000039" class="edge">
<title>Node25&#45;&gt;Node39</title>
<g id="a_edge50_Node000025_Node000039"><a xlink:title=" ">
<path fill="none" stroke="#63b8ff" d="M916.96,-147.32C932.81,-142.74 952.02,-137.19 969,-132.28"/>
<polygon fill="#63b8ff" stroke="#63b8ff" points="970.07,-135.61 978.7,-129.47 968.12,-128.89 970.07,-135.61"/>
</a>
</g>
</g>
<!-- Node28 -->
<g id="Node000028" class="node">
<title>Node28</title>
<g id="a_Node000028"><a xlink:href="____osPiCreateAccessQueue_8c.html#afc496f4056d156cbaf6043ff54bca313" target="_top" xlink:title=" ">
<polygon fill="white" stroke="#666666" points="1249,-147.35 1104,-147.35 1104,-128.35 1249,-128.35 1249,-147.35"/>
<text text-anchor="middle" x="1176.5" y="-135.35" font-family="Helvetica,sans-Serif" font-size="10.00">__osPiCreateAccessQueue</text>
</a>
</g>
</g>
<!-- Node27&#45;&gt;Node28 -->
<g id="edge30_Node000027_Node000028" class="edge">
<title>Node27&#45;&gt;Node28</title>
<g id="a_edge30_Node000027_Node000028"><a xlink:title=" ">
<path fill="none" stroke="#63b8ff" d="M1062.02,-151.2C1072.06,-150.02 1082.91,-148.74 1093.78,-147.46"/>
<polygon fill="#63b8ff" stroke="#63b8ff" points="1094.23,-150.94 1103.75,-146.29 1093.41,-143.98 1094.23,-150.94"/>
</a>
</g>
</g>
<!-- Node38 -->
<g id="Node000038" class="node">
<title>Node38</title>
<g id="a_Node000038"><a xlink:href="osRecvMesg_8c.html#aa254dc33e373f235a99e17f7717493dc" target="_top" xlink:title=" ">
<polygon fill="white" stroke="#666666" points="1383,-185.35 1305,-185.35 1305,-166.35 1383,-166.35 1383,-185.35"/>
<text text-anchor="middle" x="1344" y="-173.35" font-family="Helvetica,sans-Serif" font-size="10.00">osRecvMesg</text>
</a>
</g>
</g>
<!-- Node27&#45;&gt;Node38 -->
<g id="edge44_Node000027_Node000038" class="edge">
<title>Node27&#45;&gt;Node38</title>
<g id="a_edge44_Node000027_Node000038"><a xlink:title=" ">
<path fill="none" stroke="#63b8ff" d="M1062.19,-159.63C1124.45,-163.23 1232.22,-169.45 1294.58,-173.05"/>
<polygon fill="#63b8ff" stroke="#63b8ff" points="1294.75,-176.57 1304.93,-173.65 1295.15,-169.58 1294.75,-176.57"/>
</a>
</g>
</g>
<!-- Node29 -->
<g id="Node000029" class="node">
<title>Node29</title>
<g id="a_Node000029"><a xlink:href="osCreateMesgQueue_8c.html#aab783cab54141cb60618b45f534104b9" target="_top" xlink:title=" ">
<polygon fill="white" stroke="#666666" points="1403,-147.35 1285,-147.35 1285,-128.35 1403,-128.35 1403,-147.35"/>
<text text-anchor="middle" x="1344" y="-135.35" font-family="Helvetica,sans-Serif" font-size="10.00">osCreateMesgQueue</text>
</a>
</g>
</g>
<!-- Node28&#45;&gt;Node29 -->
<g id="edge31_Node000028_Node000029" class="edge">
<title>Node28&#45;&gt;Node29</title>
<g id="a_edge31_Node000028_Node000029"><a xlink:title=" ">
<path fill="none" stroke="#63b8ff" d="M1249.13,-137.85C1257.64,-137.85 1266.31,-137.85 1274.76,-137.85"/>
<polygon fill="#63b8ff" stroke="#63b8ff" points="1274.96,-141.35 1284.96,-137.85 1274.96,-134.35 1274.96,-141.35"/>
</a>
</g>
</g>
<!-- Node30 -->
<g id="Node000030" class="node">
<title>Node30</title>
<g id="a_Node000030"><a xlink:href="osSendMesg_8c.html#a413bd1b0a16c54dcc9e59c48b3d7f142" target="_top" xlink:title=" ">
<polygon fill="white" stroke="#666666" points="1383,-110.35 1305,-110.35 1305,-91.35 1383,-91.35 1383,-110.35"/>
<text text-anchor="middle" x="1344" y="-98.35" font-family="Helvetica,sans-Serif" font-size="10.00">osSendMesg</text>
</a>
</g>
</g>
<!-- Node28&#45;&gt;Node30 -->
<g id="edge32_Node000028_Node000030" class="edge">
<title>Node28&#45;&gt;Node30</title>
<g id="a_edge32_Node000028_Node000030"><a xlink:title=" ">
<path fill="none" stroke="#63b8ff" d="M1220.12,-128.32C1243,-123.21 1271.28,-116.88 1294.94,-111.59"/>
<polygon fill="#63b8ff" stroke="#63b8ff" points="1295.77,-115 1304.76,-109.4 1294.24,-108.16 1295.77,-115"/>
</a>
</g>
</g>
<!-- Node31 -->
<g id="Node000031" class="node">
<title>Node31</title>
<g id="a_Node000031"><a xlink:href="libultra__internal_8h.html#a8ad9db8aa6bfc4437abdd0363b663b16" target="_top" xlink:title=" ">
<polygon fill="white" stroke="#666666" points="1665.5,-262.35 1577.5,-262.35 1577.5,-243.35 1665.5,-243.35 1665.5,-262.35"/>
<text text-anchor="middle" x="1621.5" y="-250.35" font-family="Helvetica,sans-Serif" font-size="10.00">__osDisableInt</text>
</a>
</g>
</g>
<!-- Node30&#45;&gt;Node31 -->
<g id="edge33_Node000030_Node000031" class="edge">
<title>Node30&#45;&gt;Node31</title>
<g id="a_edge33_Node000030_Node000031"><a xlink:title=" ">
<path fill="none" stroke="#63b8ff" d="M1383.02,-108.03C1390.17,-110.61 1397.21,-114.11 1403,-118.85 1428.85,-140.02 1413.77,-162.94 1439,-184.85 1475.46,-216.51 1528.08,-234.04 1567.28,-243.34"/>
<polygon fill="#63b8ff" stroke="#63b8ff" points="1566.67,-246.79 1577.2,-245.58 1568.22,-239.96 1566.67,-246.79"/>
</a>
</g>
</g>
<!-- Node32 -->
<g id="Node000032" class="node">
<title>Node32</title>
<g id="a_Node000032"><a xlink:href="libultra__internal_8h.html#afe9c3abc4ca93d9fe18a87d9f108d5cb" target="_top" xlink:title=" ">
<polygon fill="white" stroke="#666666" points="1683,-203.35 1560,-203.35 1560,-184.35 1683,-184.35 1683,-203.35"/>
<text text-anchor="middle" x="1621.5" y="-191.35" font-family="Helvetica,sans-Serif" font-size="10.00">__osEnqueueAndYield</text>
</a>
</g>
</g>
<!-- Node30&#45;&gt;Node32 -->
<g id="edge34_Node000030_Node000032" class="edge">
<title>Node30&#45;&gt;Node32</title>
<g id="a_edge34_Node000030_Node000032"><a xlink:title=" ">
<path fill="none" stroke="#63b8ff" d="M1383.05,-109.59C1389.97,-112.02 1396.91,-115.06 1403,-118.85 1422.75,-131.14 1418.66,-145.56 1439,-156.85 1472.65,-175.53 1514.51,-184.83 1549.54,-189.44"/>
<polygon fill="#63b8ff" stroke="#63b8ff" points="1549.36,-192.94 1559.71,-190.67 1550.2,-185.99 1549.36,-192.94"/>
</a>
</g>
</g>
<!-- Node33 -->
<g id="Node000033" class="node">
<title>Node33</title>
<g id="a_Node000033"><a xlink:href="libultra__internal_8h.html#aaadded63bebce6cfdda5ecda193fc9ea" target="_top" xlink:title=" ">
<polygon fill="white" stroke="#666666" points="1666.5,-34.35 1576.5,-34.35 1576.5,-15.35 1666.5,-15.35 1666.5,-34.35"/>
<text text-anchor="middle" x="1621.5" y="-22.35" font-family="Helvetica,sans-Serif" font-size="10.00">__osPopThread</text>
</a>
</g>
</g>
<!-- Node30&#45;&gt;Node33 -->
<g id="edge35_Node000030_Node000033" class="edge">
<title>Node30&#45;&gt;Node33</title>
<g id="a_edge35_Node000030_Node000033"><a xlink:title=" ">
<path fill="none" stroke="#63b8ff" d="M1351.3,-91.05C1364.64,-71.34 1397.91,-27.35 1439,-10.85 1485.91,7.99 1545.06,-2.18 1582.84,-12.46"/>
<polygon fill="#63b8ff" stroke="#63b8ff" points="1582.32,-15.96 1592.9,-15.34 1584.25,-9.23 1582.32,-15.96"/>
</a>
</g>
</g>
<!-- Node34 -->
<g id="Node000034" class="node">
<title>Node34</title>
<g id="a_Node000034"><a xlink:href="libultra__internal_8h.html#aecafa57b85fd739d6033705808194def" target="_top" xlink:title=" ">
<polygon fill="white" stroke="#666666" points="1666,-92.35 1577,-92.35 1577,-73.35 1666,-73.35 1666,-92.35"/>
<text text-anchor="middle" x="1621.5" y="-80.35" font-family="Helvetica,sans-Serif" font-size="10.00">__osRestoreInt</text>
</a>
</g>
</g>
<!-- Node30&#45;&gt;Node34 -->
<g id="edge36_Node000030_Node000034" class="edge">
<title>Node30&#45;&gt;Node34</title>
<g id="a_edge36_Node000030_Node000034"><a xlink:title=" ">
<path fill="none" stroke="#63b8ff" d="M1383.29,-94.03C1400.29,-91.29 1420.59,-88.42 1439,-86.85 1481.73,-83.21 1530.31,-82.31 1566.45,-82.26"/>
<polygon fill="#63b8ff" stroke="#63b8ff" points="1566.77,-85.76 1576.78,-82.27 1566.78,-78.76 1566.77,-85.76"/>
</a>
</g>
</g>
<!-- Node35 -->
<g id="Node000035" class="node">
<title>Node35</title>
<g id="a_Node000035"><a xlink:href="osStartThread_8c.html#a3b144e814933e16a2fbf2642ad098ed3" target="_top" xlink:title=" ">
<polygon fill="white" stroke="#666666" points="1524,-148.35 1439,-148.35 1439,-129.35 1524,-129.35 1524,-148.35"/>
<text text-anchor="middle" x="1481.5" y="-136.35" font-family="Helvetica,sans-Serif" font-size="10.00">osStartThread</text>
</a>
</g>
</g>
<!-- Node30&#45;&gt;Node35 -->
<g id="edge37_Node000030_Node000035" class="edge">
<title>Node30&#45;&gt;Node35</title>
<g id="a_edge37_Node000030_Node000035"><a xlink:title=" ">
<path fill="none" stroke="#63b8ff" d="M1379.19,-110.44C1396.6,-115.32 1417.97,-121.31 1436.59,-126.53"/>
<polygon fill="#63b8ff" stroke="#63b8ff" points="1435.74,-129.93 1446.32,-129.26 1437.64,-123.19 1435.74,-129.93"/>
</a>
</g>
</g>
<!-- Node35&#45;&gt;Node31 -->
<g id="edge38_Node000035_Node000031" class="edge">
<title>Node35&#45;&gt;Node31</title>
<g id="a_edge38_Node000035_Node000031"><a xlink:title=" ">
<path fill="none" stroke="#63b8ff" d="M1491.55,-148.53C1505.53,-163.24 1533.53,-191.74 1560,-212.85 1571.26,-221.83 1584.54,-230.78 1595.79,-237.92"/>
<polygon fill="#63b8ff" stroke="#63b8ff" points="1593.96,-240.9 1604.29,-243.23 1597.66,-234.97 1593.96,-240.9"/>
</a>
</g>
</g>
<!-- Node35&#45;&gt;Node32 -->
<g id="edge40_Node000035_Node000032" class="edge">
<title>Node35&#45;&gt;Node32</title>
<g id="a_edge40_Node000035_Node000032"><a xlink:title=" ">
<path fill="none" stroke="#63b8ff" d="M1500.62,-148.5C1516.11,-156.5 1539.13,-167.82 1560,-175.85 1564.86,-177.72 1570,-179.52 1575.15,-181.2"/>
<polygon fill="#63b8ff" stroke="#63b8ff" points="1574.41,-184.64 1585,-184.3 1576.51,-177.96 1574.41,-184.64"/>
</a>
</g>
</g>
<!-- Node35&#45;&gt;Node33 -->
<g id="edge42_Node000035_Node000033" class="edge">
<title>Node35&#45;&gt;Node33</title>
<g id="a_edge42_Node000035_Node000033"><a xlink:title=" ">
<path fill="none" stroke="#63b8ff" d="M1491.49,-128.98C1505.4,-114 1533.31,-85.03 1560,-63.85 1570.94,-55.17 1583.85,-46.64 1594.93,-39.78"/>
<polygon fill="#63b8ff" stroke="#63b8ff" points="1596.99,-42.62 1603.73,-34.44 1593.36,-36.64 1596.99,-42.62"/>
</a>
</g>
</g>
<!-- Node35&#45;&gt;Node34 -->
<g id="edge43_Node000035_Node000034" class="edge">
<title>Node35&#45;&gt;Node34</title>
<g id="a_edge43_Node000035_Node000034"><a xlink:title=" ">
<path fill="none" stroke="#63b8ff" d="M1499.98,-129.24C1515.44,-120.98 1538.78,-109.14 1560,-100.85 1564.79,-98.98 1569.86,-97.19 1574.94,-95.51"/>
<polygon fill="#63b8ff" stroke="#63b8ff" points="1576.18,-98.79 1584.65,-92.44 1574.07,-92.12 1576.18,-98.79"/>
</a>
</g>
</g>
<!-- Node36 -->
<g id="Node000036" class="node">
<title>Node36</title>
<g id="a_Node000036"><a xlink:href="libultra__internal_8h.html#a650b788ebd5efde9c8cbccc1ee832445" target="_top" xlink:title=" ">
<polygon fill="white" stroke="#666666" points="1679,-166.35 1564,-166.35 1564,-147.35 1679,-147.35 1679,-166.35"/>
<text text-anchor="middle" x="1621.5" y="-154.35" font-family="Helvetica,sans-Serif" font-size="10.00">__osDispatchThread</text>
</a>
</g>
</g>
<!-- Node35&#45;&gt;Node36 -->
<g id="edge39_Node000035_Node000036" class="edge">
<title>Node35&#45;&gt;Node36</title>
<g id="a_edge39_Node000035_Node000036"><a xlink:title=" ">
<path fill="none" stroke="#63b8ff" d="M1524.28,-144.3C1533.62,-145.52 1543.75,-146.84 1553.82,-148.15"/>
<polygon fill="#63b8ff" stroke="#63b8ff" points="1553.47,-151.64 1563.84,-149.46 1554.37,-144.69 1553.47,-151.64"/>
</a>
</g>
</g>
<!-- Node37 -->
<g id="Node000037" class="node">
<title>Node37</title>
<g id="a_Node000037"><a xlink:href="libultra__internal_8h.html#ac9d6cfd19de5565e74f1d74a14e9092d" target="_top" xlink:title=" ">
<polygon fill="white" stroke="#666666" points="1678.5,-129.35 1564.5,-129.35 1564.5,-110.35 1678.5,-110.35 1678.5,-129.35"/>
<text text-anchor="middle" x="1621.5" y="-117.35" font-family="Helvetica,sans-Serif" font-size="10.00">__osEnqueueThread</text>
</a>
</g>
</g>
<!-- Node35&#45;&gt;Node37 -->
<g id="edge41_Node000035_Node000037" class="edge">
<title>Node35&#45;&gt;Node37</title>
<g id="a_edge41_Node000035_Node000037"><a xlink:title=" ">
<path fill="none" stroke="#63b8ff" d="M1524.28,-133.1C1533.74,-131.79 1544.01,-130.38 1554.21,-128.98"/>
<polygon fill="#63b8ff" stroke="#63b8ff" points="1554.91,-132.41 1564.34,-127.58 1553.96,-125.48 1554.91,-132.41"/>
</a>
</g>
</g>
<!-- Node38&#45;&gt;Node31 -->
<g id="edge45_Node000038_Node000031" class="edge">
<title>Node38&#45;&gt;Node31</title>
<g id="a_edge45_Node000038_Node000031"><a xlink:title=" ">
<path fill="none" stroke="#63b8ff" d="M1351.07,-185.45C1364.22,-205.22 1397.52,-250.06 1439,-266.85 1485.86,-285.82 1545.02,-275.61 1582.82,-265.29"/>
<polygon fill="#63b8ff" stroke="#63b8ff" points="1584.24,-268.52 1592.88,-262.4 1582.31,-261.8 1584.24,-268.52"/>
</a>
</g>
</g>
<!-- Node38&#45;&gt;Node32 -->
<g id="edge46_Node000038_Node000032" class="edge">
<title>Node38&#45;&gt;Node32</title>
<g id="a_edge46_Node000038_Node000032"><a xlink:title=" ">
<path fill="none" stroke="#63b8ff" d="M1383.26,-183.21C1400.26,-186.16 1420.56,-189.23 1439,-190.85 1475.42,-194.04 1516.1,-194.95 1549.7,-195"/>
<polygon fill="#63b8ff" stroke="#63b8ff" points="1549.89,-198.5 1559.89,-194.99 1549.88,-191.5 1549.89,-198.5"/>
</a>
</g>
</g>
<!-- Node38&#45;&gt;Node33 -->
<g id="edge47_Node000038_Node000033" class="edge">
<title>Node38&#45;&gt;Node33</title>
<g id="a_edge47_Node000038_Node000033"><a xlink:title=" ">
<path fill="none" stroke="#63b8ff" d="M1383.07,-167.29C1390.21,-164.47 1397.24,-160.75 1403,-155.85 1428.75,-133.95 1413.33,-110.84 1439,-88.85 1475.1,-57.92 1527.14,-41.6 1566.25,-33.21"/>
<polygon fill="#63b8ff" stroke="#63b8ff" points="1567.3,-36.56 1576.4,-31.14 1565.91,-29.7 1567.3,-36.56"/>
</a>
</g>
</g>
<!-- Node38&#45;&gt;Node34 -->
<g id="edge48_Node000038_Node000034" class="edge">
<title>Node38&#45;&gt;Node34</title>
<g id="a_edge48_Node000038_Node000034"><a xlink:title=" ">
<path fill="none" stroke="#63b8ff" d="M1380.82,-166.34C1388.44,-163.55 1396.23,-160.08 1403,-155.85 1422.19,-143.85 1419.07,-130.56 1439,-119.85 1478.48,-98.62 1528.78,-89.54 1566.41,-85.67"/>
<polygon fill="#63b8ff" stroke="#63b8ff" points="1567.04,-89.13 1576.67,-84.72 1566.39,-82.16 1567.04,-89.13"/>
</a>
</g>
</g>
<!-- Node38&#45;&gt;Node35 -->
<g id="edge49_Node000038_Node000035" class="edge">
<title>Node38&#45;&gt;Node35</title>
<g id="a_edge49_Node000038_Node000035"><a xlink:title=" ">
<path fill="none" stroke="#63b8ff" d="M1379.89,-166.32C1396.83,-161.7 1417.38,-156.08 1435.49,-151.14"/>
<polygon fill="#63b8ff" stroke="#63b8ff" points="1436.53,-154.48 1445.25,-148.47 1434.68,-147.73 1436.53,-154.48"/>
</a>
</g>
</g>
<!-- Node39&#45;&gt;Node30 -->
<g id="edge51_Node000039_Node000030" class="edge">
<title>Node39&#45;&gt;Node30</title>
<g id="a_edge51_Node000039_Node000030"><a xlink:title=" ">
<path fill="none" stroke="#63b8ff" d="M1061.84,-117.09C1124.13,-113.49 1232.41,-107.24 1294.86,-103.63"/>
<polygon fill="#63b8ff" stroke="#63b8ff" points="1295.06,-107.12 1304.84,-103.05 1294.66,-100.14 1295.06,-107.12"/>
</a>
</g>
</g>
<!-- Node40&#45;&gt;Node27 -->
<g id="edge54_Node000040_Node000027" class="edge">
<title>Node40&#45;&gt;Node27</title>
<g id="a_edge54_Node000040_Node000027"><a xlink:title=" ">
<path fill="none" stroke="#63b8ff" d="M916.96,-129.38C932.81,-133.96 952.02,-139.51 969,-144.42"/>
<polygon fill="#63b8ff" stroke="#63b8ff" points="968.12,-147.81 978.7,-147.22 970.07,-141.09 968.12,-147.81"/>
</a>
</g>
</g>
<!-- Node40&#45;&gt;Node39 -->
<g id="edge55_Node000040_Node000039" class="edge">
<title>Node40&#45;&gt;Node39</title>
<g id="a_edge55_Node000040_Node000039"><a xlink:title=" ">
<path fill="none" stroke="#63b8ff" d="M922.06,-119.85C932.11,-119.85 943.19,-119.85 954.04,-119.85"/>
<polygon fill="#63b8ff" stroke="#63b8ff" points="954.32,-123.35 964.32,-119.85 954.32,-116.35 954.32,-123.35"/>
</a>
</g>
</g>
<!-- Node41 -->
<g id="Node000041" class="node">
<title>Node41</title>
<g id="a_Node000041"><a xlink:href="____osEPiRawWriteIo_8c.html#a07ee1dfcab39279bfc470dd4f3303ea1" target="_top" xlink:title=" ">
<polygon fill="white" stroke="#666666" points="1068,-92.35 958,-92.35 958,-73.35 1068,-73.35 1068,-92.35"/>
<text text-anchor="middle" x="1013" y="-80.35" font-family="Helvetica,sans-Serif" font-size="10.00">__osEPiRawWriteIo</text>
</a>
</g>
</g>
<!-- Node40&#45;&gt;Node41 -->
<g id="edge53_Node000040_Node000041" class="edge">
<title>Node40&#45;&gt;Node41</title>
<g id="a_edge53_Node000040_Node000041"><a xlink:title=" ">
<path fill="none" stroke="#63b8ff" d="M916.96,-110.32C932.81,-105.74 952.02,-100.19 969,-95.28"/>
<polygon fill="#63b8ff" stroke="#63b8ff" points="970.07,-98.61 978.7,-92.47 968.12,-91.89 970.07,-98.61"/>
</a>
</g>
</g>
</g>
</svg>

<g id="navigator" transform="translate(0 0)" fill="#404254">
  <rect fill="#f2f5e9" fill-opacity="0.5" stroke="#606060" stroke-width=".5" x="0" y="0" width="60" height="60"/>
  <use id="zoomplus" xlink:href="#zoomPlus" x="17" y="9" onmousedown="handleZoom(evt,'in')"/>
  <use id="zoomminus" xlink:href="#zoomMin" x="42" y="9" onmousedown="handleZoom(evt,'out')"/>
  <use id="reset" xlink:href="#resetDef" x="30" y="36" onmousedown="handleReset()"/>
   <use id="arrowup" xlink:href="#arrowUp" x="0" y="0" onmousedown="handlePan(0,-1)"/>
  <use id="arrowright" xlink:href="#arrowRight" x="0" y="0" onmousedown="handlePan(1,0)"/>
  <use id="arrowdown" xlink:href="#arrowDown" x="0" y="0" onmousedown="handlePan(0,1)"/>
  <use id="arrowleft" xlink:href="#arrowLeft" x="0" y="0" onmousedown="handlePan(-1,0)"/>
</g>
<svg viewBox="0 0 15 15" width="100%" height="30px" preserveAspectRatio="xMaxYMin meet">
 <g id="arrow_out" transform="scale(0.3 0.3)">
  <a xlink:href="code__80091750_8h_a956e84601c3378e19ace2426c1217cec_cgraph_org.svg" target="_base">
   <rect id="button" ry="5" rx="5" y="6" x="6" height="38" width="38"
        fill="#f2f5e9" fill-opacity="0.5" stroke="#606060" stroke-width="1.0"/>
   <path id="arrow"
     d="M 11.500037,31.436501 C 11.940474,20.09759 22.043105,11.32322 32.158766,21.979434 L 37.068811,17.246167 C 37.068811,17.246167 37.088388,32 37.088388,32 L 22.160133,31.978069 C 22.160133,31.978069 26.997745,27.140456 26.997745,27.140456 C 18.528582,18.264221 13.291696,25.230495 11.500037,31.436501 z"
     style="fill:#404040;"/>
  </a>
 </g>
</svg>

<style type='text/css'>
<![CDATA[
[data-mouse-over-selected='false'] { opacity: 0.7; }
[data-mouse-over-selected='true']  { opacity: 1.0; }
]]>
</style>
<script type="application/ecmascript"><![CDATA[
document.addEventListener('DOMContentLoaded', (event) => {
  highlightEdges();
  highlightAdjacentNodes();
});
]]></script>
</svg>
