<?xml version="1.0" encoding="UTF-8" standalone="no"?>
<!DOCTYPE svg PUBLIC "-//W3C//DTD SVG 1.1//EN"
 "http://www.w3.org/Graphics/SVG/1.1/DTD/svg11.dtd">
<!-- Generated by graphviz version 2.43.0 (0)
 -->
<!-- Title: func_80081AFC Pages: 1 -->
<svg width="547pt" height="685pt"
 viewBox="0.00 0.00 547.00 685.00" xmlns="http://www.w3.org/2000/svg" xmlns:xlink="http://www.w3.org/1999/xlink">
<g id="graph0" class="graph" transform="scale(1 1) rotate(0) translate(4 681)">
<title>func_80081AFC</title>
<!-- Node1 -->
<g id="Node000001" class="node">
<title>Node1</title>
<g id="a_Node000001"><a xlink:title=" ">
<polygon fill="#999999" stroke="#666666" points="92,-394 0,-394 0,-375 92,-375 92,-394"/>
<text text-anchor="middle" x="46" y="-382" font-family="Helvetica,sans-Serif" font-size="10.00">func_80081AFC</text>
</a>
</g>
</g>
<!-- Node2 -->
<g id="Node000002" class="node">
<title>Node2</title>
<g id="a_Node000002"><a xlink:href="code__80071F00_8c.html#a5978ef1e35515c275f92eb79b8601d77" target="_top" xlink:title=" ">
<polygon fill="white" stroke="#666666" points="219.5,-488 128.5,-488 128.5,-469 219.5,-469 219.5,-488"/>
<text text-anchor="middle" x="174" y="-476" font-family="Helvetica,sans-Serif" font-size="10.00">func_80072428</text>
</a>
</g>
</g>
<!-- Node1&#45;&gt;Node2 -->
<g id="edge1_Node000001_Node000002" class="edge">
<title>Node1&#45;&gt;Node2</title>
<g id="a_edge1_Node000001_Node000002"><a xlink:title=" ">
<path fill="none" stroke="#63b8ff" d="M60.01,-394.21C81.82,-410.47 125.92,-443.38 152.11,-462.92"/>
<polygon fill="#63b8ff" stroke="#63b8ff" points="150.14,-465.81 160.25,-468.99 154.33,-460.2 150.14,-465.81"/>
</a>
</g>
</g>
<!-- Node4 -->
<g id="Node000004" class="node">
<title>Node4</title>
<g id="a_Node000004"><a xlink:href="code__80071F00_8c.html#a9d0d6fe8e02dc86bf4f9f8c8214ee326" target="_top" xlink:title=" ">
<polygon fill="white" stroke="#666666" points="538,-587.5 425,-587.5 425,-557.5 538,-557.5 538,-587.5"/>
<text text-anchor="start" x="433" y="-575.5" font-family="Helvetica,sans-Serif" font-size="10.00">set_object_flag_unk</text>
<text text-anchor="middle" x="481.5" y="-564.5" font-family="Helvetica,sans-Serif" font-size="10.00">_054_false</text>
</a>
</g>
</g>
<!-- Node1&#45;&gt;Node4 -->
<g id="edge35_Node000001_Node000004" class="edge">
<title>Node1&#45;&gt;Node4</title>
<g id="a_edge35_Node000001_Node000004"><a xlink:title=" ">
<path fill="none" stroke="#63b8ff" d="M49.76,-394.19C57.76,-420.79 83.3,-495.98 128,-541.5 173.28,-587.61 193.34,-594.69 256,-610.5 312.88,-624.86 330.44,-621.86 388,-610.5 406.65,-606.82 426.27,-599.33 442.62,-591.97"/>
<polygon fill="#63b8ff" stroke="#63b8ff" points="444.25,-595.08 451.84,-587.68 441.29,-588.73 444.25,-595.08"/>
</a>
</g>
</g>
<!-- Node6 -->
<g id="Node000006" class="node">
<title>Node6</title>
<g id="a_Node000006"><a xlink:href="code__80071F00_8c.html#a91e6ccbfa10d972106998ad26b271c17" target="_top" xlink:title=" ">
<polygon fill="white" stroke="#666666" points="367.5,-364 276.5,-364 276.5,-345 367.5,-345 367.5,-364"/>
<text text-anchor="middle" x="322" y="-352" font-family="Helvetica,sans-Serif" font-size="10.00">func_80072488</text>
</a>
</g>
</g>
<!-- Node1&#45;&gt;Node6 -->
<g id="edge5_Node000001_Node000006" class="edge">
<title>Node1&#45;&gt;Node6</title>
<g id="a_edge5_Node000001_Node000006"><a xlink:title=" ">
<path fill="none" stroke="#63b8ff" d="M92.25,-379.55C139.88,-374.33 214.91,-366.12 265.95,-360.53"/>
<polygon fill="#63b8ff" stroke="#63b8ff" points="266.58,-363.98 276.14,-359.41 265.82,-357.02 266.58,-363.98"/>
</a>
</g>
</g>
<!-- Node7 -->
<g id="Node000007" class="node">
<title>Node7</title>
<g id="a_Node000007"><a xlink:href="code__80071F00_8c.html#a6433786e30fbe8c3dc83f83c9f2c35f9" target="_top" xlink:title=" ">
<polygon fill="white" stroke="#666666" points="368,-601 276,-601 276,-582 368,-582 368,-601"/>
<text text-anchor="middle" x="322" y="-589" font-family="Helvetica,sans-Serif" font-size="10.00">func_800726CC</text>
</a>
</g>
</g>
<!-- Node1&#45;&gt;Node7 -->
<g id="edge8_Node000001_Node000007" class="edge">
<title>Node1&#45;&gt;Node7</title>
<g id="a_edge8_Node000001_Node000007"><a xlink:title=" ">
<path fill="none" stroke="#63b8ff" d="M52.17,-394.3C63.59,-415.26 92.78,-465.19 128,-497.5 176.75,-542.23 195.14,-547.55 256,-573.5 260.66,-575.49 265.6,-577.32 270.6,-578.98"/>
<polygon fill="#63b8ff" stroke="#63b8ff" points="269.62,-582.35 280.21,-581.99 271.71,-575.67 269.62,-582.35"/>
</a>
</g>
</g>
<!-- Node8 -->
<g id="Node000008" class="node">
<title>Node8</title>
<g id="a_Node000008"><a xlink:href="code__80071F00_8c.html#a5ac10bdf02fa5f66183ce0da2f55a41d" target="_top" xlink:title=" ">
<polygon fill="white" stroke="#666666" points="219.5,-432 128.5,-432 128.5,-413 219.5,-413 219.5,-432"/>
<text text-anchor="middle" x="174" y="-420" font-family="Helvetica,sans-Serif" font-size="10.00">func_80072E54</text>
</a>
</g>
</g>
<!-- Node1&#45;&gt;Node8 -->
<g id="edge11_Node000001_Node000008" class="edge">
<title>Node1&#45;&gt;Node8</title>
<g id="a_edge11_Node000001_Node000008"><a xlink:title=" ">
<path fill="none" stroke="#63b8ff" d="M78.8,-394.09C94.76,-398.9 114.31,-404.8 131.45,-409.97"/>
<polygon fill="#63b8ff" stroke="#63b8ff" points="130.63,-413.38 141.22,-412.91 132.65,-406.68 130.63,-413.38"/>
</a>
</g>
</g>
<!-- Node10 -->
<g id="Node000010" class="node">
<title>Node10</title>
<g id="a_Node000010"><a xlink:href="code__80071F00_8c.html#a946b33c1ed166b19b04e4528c3641b9a" target="_top" xlink:title=" ">
<polygon fill="white" stroke="#666666" points="378.5,-326.5 265.5,-326.5 265.5,-296.5 378.5,-296.5 378.5,-326.5"/>
<text text-anchor="start" x="273.5" y="-314.5" font-family="Helvetica,sans-Serif" font-size="10.00">set_object_flag_unk</text>
<text text-anchor="middle" x="322" y="-303.5" font-family="Helvetica,sans-Serif" font-size="10.00">_054_true</text>
</a>
</g>
</g>
<!-- Node1&#45;&gt;Node10 -->
<g id="edge36_Node000001_Node000010" class="edge">
<title>Node1&#45;&gt;Node10</title>
<g id="a_edge36_Node000001_Node000010"><a xlink:title=" ">
<path fill="none" stroke="#63b8ff" d="M56.96,-374.76C71.31,-361.42 99.23,-337.94 128,-327.5 168.45,-312.83 216.68,-308.83 254.81,-308.49"/>
<polygon fill="#63b8ff" stroke="#63b8ff" points="255.29,-311.99 265.29,-308.49 255.29,-304.99 255.29,-311.99"/>
</a>
</g>
</g>
<!-- Node11 -->
<g id="Node000011" class="node">
<title>Node11</title>
<g id="a_Node000011"><a xlink:href="code__80071F00_8c.html#ab4348365b7e22b355e8aec1eb6f6dd9f" target="_top" xlink:title=" ">
<polygon fill="white" stroke="#666666" points="219.5,-356 128.5,-356 128.5,-337 219.5,-337 219.5,-356"/>
<text text-anchor="middle" x="174" y="-344" font-family="Helvetica,sans-Serif" font-size="10.00">func_80073514</text>
</a>
</g>
</g>
<!-- Node1&#45;&gt;Node11 -->
<g id="edge17_Node000001_Node000011" class="edge">
<title>Node1&#45;&gt;Node11</title>
<g id="a_edge17_Node000001_Node000011"><a xlink:title=" ">
<path fill="none" stroke="#63b8ff" d="M78.8,-374.91C94.76,-370.1 114.31,-364.2 131.45,-359.03"/>
<polygon fill="#63b8ff" stroke="#63b8ff" points="132.65,-362.32 141.22,-356.09 130.63,-355.62 132.65,-362.32"/>
</a>
</g>
</g>
<!-- Node12 -->
<g id="Node000012" class="node">
<title>Node12</title>
<g id="a_Node000012"><a xlink:href="code__80071F00_8c.html#adb8fa7d5ecadc9f55623553c7b6c0d53" target="_top" xlink:title=" ">
<polygon fill="white" stroke="#666666" points="220,-130 128,-130 128,-111 220,-111 220,-130"/>
<text text-anchor="middle" x="174" y="-118" font-family="Helvetica,sans-Serif" font-size="10.00">func_8008153C</text>
</a>
</g>
</g>
<!-- Node1&#45;&gt;Node12 -->
<g id="edge18_Node000001_Node000012" class="edge">
<title>Node1&#45;&gt;Node12</title>
<g id="a_edge18_Node000001_Node000012"><a xlink:title=" ">
<path fill="none" stroke="#63b8ff" d="M51.63,-374.79C70.2,-335.89 139.38,-190.94 164.13,-139.09"/>
<polygon fill="#63b8ff" stroke="#63b8ff" points="167.31,-140.55 168.46,-130.02 160.99,-137.54 167.31,-140.55"/>
</a>
</g>
</g>
<!-- Node16 -->
<g id="Node000016" class="node">
<title>Node16</title>
<g id="a_Node000016"><a xlink:href="code__80071F00_8c.html#aacc9b0d60613f0a2c7502f857146f67a" target="_top" xlink:title=" ">
<polygon fill="white" stroke="#666666" points="219.5,-278 128.5,-278 128.5,-259 219.5,-259 219.5,-278"/>
<text text-anchor="middle" x="174" y="-266" font-family="Helvetica,sans-Serif" font-size="10.00">func_80081848</text>
</a>
</g>
</g>
<!-- Node1&#45;&gt;Node16 -->
<g id="edge23_Node000001_Node000016" class="edge">
<title>Node1&#45;&gt;Node16</title>
<g id="a_edge23_Node000001_Node000016"><a xlink:title=" ">
<path fill="none" stroke="#63b8ff" d="M53.98,-374.93C67.07,-357.43 96.8,-319.78 128,-294.5 133.06,-290.4 138.85,-286.54 144.54,-283.12"/>
<polygon fill="#63b8ff" stroke="#63b8ff" points="146.35,-286.12 153.31,-278.13 142.89,-280.04 146.35,-286.12"/>
</a>
</g>
</g>
<!-- Node21 -->
<g id="Node000021" class="node">
<title>Node21</title>
<g id="a_Node000021"><a xlink:href="code__80086E70_8c.html#a7abe2cf99895b2c65aabbcf5fc465b67" target="_top" xlink:title=" ">
<polygon fill="white" stroke="#666666" points="220,-677 128,-677 128,-658 220,-658 220,-677"/>
<text text-anchor="middle" x="174" y="-665" font-family="Helvetica,sans-Serif" font-size="10.00">func_80086EAC</text>
</a>
</g>
</g>
<!-- Node1&#45;&gt;Node21 -->
<g id="edge30_Node000001_Node000021" class="edge">
<title>Node1&#45;&gt;Node21</title>
<g id="a_edge30_Node000001_Node000021"><a xlink:title=" ">
<path fill="none" stroke="#63b8ff" d="M47.46,-394.19C49.69,-430.99 62.17,-564.05 128,-643.5 130.8,-646.87 134.19,-649.84 137.86,-652.43"/>
<polygon fill="#63b8ff" stroke="#63b8ff" points="136.35,-655.62 146.72,-657.81 139.98,-649.63 136.35,-655.62"/>
</a>
</g>
</g>
<!-- Node22 -->
<g id="Node000022" class="node">
<title>Node22</title>
<g id="a_Node000022"><a xlink:href="external_8c.html#acb60983213d09ee795e80ca3c8b5975e" target="_top" xlink:title=" ">
<polygon fill="white" stroke="#666666" points="220,-56 128,-56 128,-37 220,-37 220,-56"/>
<text text-anchor="middle" x="174" y="-44" font-family="Helvetica,sans-Serif" font-size="10.00">func_800C98B8</text>
</a>
</g>
</g>
<!-- Node1&#45;&gt;Node22 -->
<g id="edge32_Node000001_Node000022" class="edge">
<title>Node1&#45;&gt;Node22</title>
<g id="a_edge32_Node000001_Node000022"><a xlink:title=" ">
<path fill="none" stroke="#63b8ff" d="M48.3,-374.94C53.62,-337.89 75.98,-200.88 128,-101.5 135.31,-87.53 146.54,-73.8 155.95,-63.55"/>
<polygon fill="#63b8ff" stroke="#63b8ff" points="158.65,-65.8 163,-56.14 153.58,-60.97 158.65,-65.8"/>
</a>
</g>
</g>
<!-- Node3 -->
<g id="Node000003" class="node">
<title>Node3</title>
<g id="a_Node000003"><a xlink:href="code__80086E70_8c.html#acd186a6f592769b3e3db3da72fcf765f" target="_top" xlink:title=" ">
<polygon fill="white" stroke="#666666" points="367.5,-564 276.5,-564 276.5,-545 367.5,-545 367.5,-564"/>
<text text-anchor="middle" x="322" y="-552" font-family="Helvetica,sans-Serif" font-size="10.00">func_80086F60</text>
</a>
</g>
</g>
<!-- Node2&#45;&gt;Node3 -->
<g id="edge2_Node000002_Node000003" class="edge">
<title>Node2&#45;&gt;Node3</title>
<g id="a_edge2_Node000002_Node000003"><a xlink:title=" ">
<path fill="none" stroke="#63b8ff" d="M187.95,-488.07C203.52,-499.28 230.72,-517.91 256,-530.5 264.06,-534.51 272.96,-538.23 281.52,-541.48"/>
<polygon fill="#63b8ff" stroke="#63b8ff" points="280.39,-544.8 290.98,-544.95 282.8,-538.22 280.39,-544.8"/>
</a>
</g>
</g>
<!-- Node5 -->
<g id="Node000005" class="node">
<title>Node5</title>
<g id="a_Node000005"><a xlink:href="code__80071F00_8c.html#a4b4f00a7df0f9bc44914cd922c3cd51b" target="_top" xlink:title=" ">
<polygon fill="white" stroke="#666666" points="539,-402 424,-402 424,-383 539,-383 539,-402"/>
<text text-anchor="middle" x="481.5" y="-390" font-family="Helvetica,sans-Serif" font-size="10.00">set_object_unk_0CB</text>
</a>
</g>
</g>
<!-- Node2&#45;&gt;Node5 -->
<g id="edge4_Node000002_Node000005" class="edge">
<title>Node2&#45;&gt;Node5</title>
<g id="a_edge4_Node000002_Node000005"><a xlink:title=" ">
<path fill="none" stroke="#63b8ff" d="M219.75,-481.29C263.93,-482.5 332.71,-480.18 388,-459.5 417.37,-448.52 445.75,-425.54 463.15,-409.58"/>
<polygon fill="#63b8ff" stroke="#63b8ff" points="465.9,-411.79 470.77,-402.39 461.1,-406.7 465.9,-411.79"/>
</a>
</g>
</g>
<!-- Node3&#45;&gt;Node4 -->
<g id="edge3_Node000003_Node000004" class="edge">
<title>Node3&#45;&gt;Node4</title>
<g id="a_edge3_Node000003_Node000004"><a xlink:title=" ">
<path fill="none" stroke="#63b8ff" d="M367.71,-559.61C382.26,-561.27 398.73,-563.15 414.49,-564.96"/>
<polygon fill="#63b8ff" stroke="#63b8ff" points="414.39,-568.47 424.73,-566.13 415.19,-561.51 414.39,-568.47"/>
</a>
</g>
</g>
<!-- Node6&#45;&gt;Node4 -->
<g id="edge6_Node000006_Node000004" class="edge">
<title>Node6&#45;&gt;Node4</title>
<g id="a_edge6_Node000006_Node000004"><a xlink:title=" ">
<path fill="none" stroke="#63b8ff" d="M336.37,-364.11C350.39,-374.64 372.5,-392.57 388,-411.5 423.91,-455.35 454.12,-514.9 469.53,-547.91"/>
<polygon fill="#63b8ff" stroke="#63b8ff" points="466.47,-549.63 473.82,-557.26 472.83,-546.71 466.47,-549.63"/>
</a>
</g>
</g>
<!-- Node6&#45;&gt;Node5 -->
<g id="edge7_Node000006_Node000005" class="edge">
<title>Node6&#45;&gt;Node5</title>
<g id="a_edge7_Node000006_Node000005"><a xlink:title=" ">
<path fill="none" stroke="#63b8ff" d="M362.74,-364.09C383.53,-369.1 409.16,-375.29 431.2,-380.61"/>
<polygon fill="#63b8ff" stroke="#63b8ff" points="430.5,-384.04 441.04,-382.98 432.14,-377.23 430.5,-384.04"/>
</a>
</g>
</g>
<!-- Node7&#45;&gt;Node4 -->
<g id="edge9_Node000007_Node000004" class="edge">
<title>Node7&#45;&gt;Node4</title>
<g id="a_edge9_Node000007_Node000004"><a xlink:title=" ">
<path fill="none" stroke="#63b8ff" d="M368.13,-586.06C382.67,-584.3 399.1,-582.32 414.81,-580.42"/>
<polygon fill="#63b8ff" stroke="#63b8ff" points="415.49,-583.87 425,-579.2 414.65,-576.92 415.49,-583.87"/>
</a>
</g>
</g>
<!-- Node7&#45;&gt;Node5 -->
<g id="edge10_Node000007_Node000005" class="edge">
<title>Node7&#45;&gt;Node5</title>
<g id="a_edge10_Node000007_Node000005"><a xlink:title=" ">
<path fill="none" stroke="#63b8ff" d="M368.04,-584.31C375.23,-581.73 382.19,-578.24 388,-573.5 440.79,-530.44 466.56,-449.41 476.04,-412.15"/>
<polygon fill="#63b8ff" stroke="#63b8ff" points="479.53,-412.63 478.48,-402.08 472.73,-410.98 479.53,-412.63"/>
</a>
</g>
</g>
<!-- Node8&#45;&gt;Node4 -->
<g id="edge14_Node000008_Node000004" class="edge">
<title>Node8&#45;&gt;Node4</title>
<g id="a_edge14_Node000008_Node000004"><a xlink:title=" ">
<path fill="none" stroke="#63b8ff" d="M194.58,-432.11C243.9,-456.33 374.09,-520.25 440.42,-552.82"/>
<polygon fill="#63b8ff" stroke="#63b8ff" points="439.21,-556.13 449.73,-557.39 442.3,-549.84 439.21,-556.13"/>
</a>
</g>
</g>
<!-- Node8&#45;&gt;Node5 -->
<g id="edge16_Node000008_Node000005" class="edge">
<title>Node8&#45;&gt;Node5</title>
<g id="a_edge16_Node000008_Node000005"><a xlink:title=" ">
<path fill="none" stroke="#63b8ff" d="M219.51,-416.04C231.36,-414.44 244.15,-412.81 256,-411.5 308.84,-405.68 368.85,-400.68 413.53,-397.28"/>
<polygon fill="#63b8ff" stroke="#63b8ff" points="413.97,-400.75 423.68,-396.51 413.44,-393.77 413.97,-400.75"/>
</a>
</g>
</g>
<!-- Node8&#45;&gt;Node6 -->
<g id="edge12_Node000008_Node000006" class="edge">
<title>Node8&#45;&gt;Node6</title>
<g id="a_edge12_Node000008_Node000006"><a xlink:title=" ">
<path fill="none" stroke="#63b8ff" d="M192.99,-412.99C201.24,-408.61 211.13,-403.33 220,-398.5 236.08,-389.75 239.37,-386.14 256,-378.5 264.51,-374.59 273.85,-370.84 282.74,-367.52"/>
<polygon fill="#63b8ff" stroke="#63b8ff" points="283.95,-370.8 292.14,-364.08 281.55,-364.23 283.95,-370.8"/>
</a>
</g>
</g>
<!-- Node9 -->
<g id="Node000009" class="node">
<title>Node9</title>
<g id="a_Node000009"><a xlink:href="code__80071F00_8c.html#ae2e10a969a280fa69bd2db004aa5ae3b" target="_top" xlink:title=" ">
<polygon fill="white" stroke="#666666" points="384,-450.5 260,-450.5 260,-420.5 384,-420.5 384,-450.5"/>
<text text-anchor="start" x="268" y="-438.5" font-family="Helvetica,sans-Serif" font-size="10.00">is_obj_index_flag_unk</text>
<text text-anchor="middle" x="322" y="-427.5" font-family="Helvetica,sans-Serif" font-size="10.00">_054_inactive</text>
</a>
</g>
</g>
<!-- Node8&#45;&gt;Node9 -->
<g id="edge13_Node000008_Node000009" class="edge">
<title>Node8&#45;&gt;Node9</title>
<g id="a_edge13_Node000008_Node000009"><a xlink:title=" ">
<path fill="none" stroke="#63b8ff" d="M219.6,-426.47C229.1,-427.32 239.35,-428.23 249.57,-429.14"/>
<polygon fill="#63b8ff" stroke="#63b8ff" points="249.47,-432.64 259.74,-430.05 250.09,-425.67 249.47,-432.64"/>
</a>
</g>
</g>
<!-- Node8&#45;&gt;Node10 -->
<g id="edge15_Node000008_Node000010" class="edge">
<title>Node8&#45;&gt;Node10</title>
<g id="a_edge15_Node000008_Node000010"><a xlink:title=" ">
<path fill="none" stroke="#63b8ff" d="M181.67,-412.75C194.25,-395.02 223.19,-357.34 256,-335.5 258.27,-333.99 260.64,-332.56 263.09,-331.2"/>
<polygon fill="#63b8ff" stroke="#63b8ff" points="264.83,-334.25 272.2,-326.64 261.69,-327.99 264.83,-334.25"/>
</a>
</g>
</g>
<!-- Node13 -->
<g id="Node000013" class="node">
<title>Node13</title>
<g id="a_Node000013"><a xlink:href="code__80071F00_8c.html#abdebd086b5ff081f83af3d9205f39cd3" target="_top" xlink:title=" ">
<polygon fill="white" stroke="#666666" points="356,-130 288,-130 288,-111 356,-111 356,-130"/>
<text text-anchor="middle" x="322" y="-118" font-family="Helvetica,sans-Serif" font-size="10.00">init_object</text>
</a>
</g>
</g>
<!-- Node12&#45;&gt;Node13 -->
<g id="edge19_Node000012_Node000013" class="edge">
<title>Node12&#45;&gt;Node13</title>
<g id="a_edge19_Node000012_Node000013"><a xlink:title=" ">
<path fill="none" stroke="#63b8ff" d="M220.39,-120.5C238.59,-120.5 259.46,-120.5 277.47,-120.5"/>
<polygon fill="#63b8ff" stroke="#63b8ff" points="277.69,-124 287.69,-120.5 277.69,-117 277.69,-124"/>
</a>
</g>
</g>
<!-- Node14 -->
<g id="Node000014" class="node">
<title>Node14</title>
<g id="a_Node000014"><a xlink:href="math__util_8c.html#a151b63b8adf9af7e4054b3b84bd226dc" target="_top" xlink:title=" ">
<polygon fill="white" stroke="#666666" points="358,-93 286,-93 286,-74 358,-74 358,-93"/>
<text text-anchor="middle" x="322" y="-81" font-family="Helvetica,sans-Serif" font-size="10.00">random_int</text>
</a>
</g>
</g>
<!-- Node12&#45;&gt;Node14 -->
<g id="edge21_Node000012_Node000014" class="edge">
<title>Node12&#45;&gt;Node14</title>
<g id="a_edge21_Node000012_Node000014"><a xlink:title=" ">
<path fill="none" stroke="#63b8ff" d="M212.6,-110.97C231.82,-106.1 255.37,-100.13 275.6,-95"/>
<polygon fill="#63b8ff" stroke="#63b8ff" points="276.7,-98.34 285.54,-92.49 274.98,-91.55 276.7,-98.34"/>
</a>
</g>
</g>
<!-- Node13&#45;&gt;Node5 -->
<g id="edge20_Node000013_Node000005" class="edge">
<title>Node13&#45;&gt;Node5</title>
<g id="a_edge20_Node000013_Node000005"><a xlink:title=" ">
<path fill="none" stroke="#63b8ff" d="M356.08,-123.48C367.36,-125.98 379.31,-130.47 388,-138.5 457.9,-203.08 475.1,-324.72 479.23,-372.5"/>
<polygon fill="#63b8ff" stroke="#63b8ff" points="475.76,-373.04 480.01,-382.75 482.74,-372.51 475.76,-373.04"/>
</a>
</g>
</g>
<!-- Node15 -->
<g id="Node000015" class="node">
<title>Node15</title>
<g id="a_Node000015"><a xlink:href="math__util_8c.html#a062850863585005ad1d0a75d9ff70693" target="_top" xlink:title=" ">
<polygon fill="white" stroke="#666666" points="520,-93 443,-93 443,-74 520,-74 520,-93"/>
<text text-anchor="middle" x="481.5" y="-81" font-family="Helvetica,sans-Serif" font-size="10.00">random_u16</text>
</a>
</g>
</g>
<!-- Node14&#45;&gt;Node15 -->
<g id="edge22_Node000014_Node000015" class="edge">
<title>Node14&#45;&gt;Node15</title>
<g id="a_edge22_Node000014_Node000015"><a xlink:title=" ">
<path fill="none" stroke="#63b8ff" d="M358.35,-83.5C380.23,-83.5 408.62,-83.5 432.52,-83.5"/>
<polygon fill="#63b8ff" stroke="#63b8ff" points="432.8,-87 442.8,-83.5 432.8,-80 432.8,-87"/>
</a>
</g>
</g>
<!-- Node16&#45;&gt;Node6 -->
<g id="edge24_Node000016_Node000006" class="edge">
<title>Node16&#45;&gt;Node6</title>
<g id="a_edge24_Node000016_Node000006"><a xlink:title=" ">
<path fill="none" stroke="#63b8ff" d="M184.04,-278.16C198.1,-292.64 226.66,-319.93 256,-335.5 260.26,-337.76 264.81,-339.78 269.47,-341.58"/>
<polygon fill="#63b8ff" stroke="#63b8ff" points="268.5,-344.95 279.09,-344.98 270.83,-338.35 268.5,-344.95"/>
</a>
</g>
</g>
<!-- Node16&#45;&gt;Node10 -->
<g id="edge29_Node000016_Node000010" class="edge">
<title>Node16&#45;&gt;Node10</title>
<g id="a_edge29_Node000016_Node000010"><a xlink:title=" ">
<path fill="none" stroke="#63b8ff" d="M207.4,-278.04C223,-282.64 242.22,-288.3 260.38,-293.65"/>
<polygon fill="#63b8ff" stroke="#63b8ff" points="259.47,-297.03 270.05,-296.49 261.44,-290.31 259.47,-297.03"/>
</a>
</g>
</g>
<!-- Node17 -->
<g id="Node000017" class="node">
<title>Node17</title>
<g id="a_Node000017"><a xlink:href="code__80086E70_8c.html#aaec540b89607cbfe79478fa9a3be642e" target="_top" xlink:title=" ">
<polygon fill="white" stroke="#666666" points="368,-204 276,-204 276,-185 368,-185 368,-204"/>
<text text-anchor="middle" x="322" y="-192" font-family="Helvetica,sans-Serif" font-size="10.00">func_8008B80C</text>
</a>
</g>
</g>
<!-- Node16&#45;&gt;Node17 -->
<g id="edge25_Node000016_Node000017" class="edge">
<title>Node16&#45;&gt;Node17</title>
<g id="a_edge25_Node000016_Node000017"><a xlink:title=" ">
<path fill="none" stroke="#63b8ff" d="M186.31,-258.82C201.32,-246.44 229.05,-225.1 256,-212.5 260.11,-210.58 264.46,-208.83 268.89,-207.24"/>
<polygon fill="#63b8ff" stroke="#63b8ff" points="270.25,-210.47 278.65,-204.01 268.05,-203.83 270.25,-210.47"/>
</a>
</g>
</g>
<!-- Node18 -->
<g id="Node000018" class="node">
<title>Node18</title>
<g id="a_Node000018"><a xlink:href="code__80071F00_8c.html#aaac380231c672b17a8fda8b451572c4c" target="_top" xlink:title=" ">
<polygon fill="white" stroke="#666666" points="376,-167 268,-167 268,-148 376,-148 376,-167"/>
<text text-anchor="middle" x="322" y="-155" font-family="Helvetica,sans-Serif" font-size="10.00">init_texture_object</text>
</a>
</g>
</g>
<!-- Node16&#45;&gt;Node18 -->
<g id="edge26_Node000016_Node000018" class="edge">
<title>Node16&#45;&gt;Node18</title>
<g id="a_edge26_Node000016_Node000018"><a xlink:title=" ">
<path fill="none" stroke="#63b8ff" d="M180.59,-258.97C192.17,-240.07 220.67,-197.76 256,-175.5 258.64,-173.84 261.43,-172.33 264.32,-170.95"/>
<polygon fill="#63b8ff" stroke="#63b8ff" points="265.9,-174.09 273.79,-167.02 263.21,-167.62 265.9,-174.09"/>
</a>
</g>
</g>
<!-- Node19 -->
<g id="Node000019" class="node">
<title>Node19</title>
<g id="a_Node000019"><a xlink:href="code__80086E70_8c.html#af0e1570f9594db6104157d24386b80cb" target="_top" xlink:title=" ">
<polygon fill="white" stroke="#666666" points="388,-278 256,-278 256,-259 388,-259 388,-278"/>
<text text-anchor="middle" x="322" y="-266" font-family="Helvetica,sans-Serif" font-size="10.00">set_obj_direction_angle</text>
</a>
</g>
</g>
<!-- Node16&#45;&gt;Node19 -->
<g id="edge27_Node000016_Node000019" class="edge">
<title>Node16&#45;&gt;Node19</title>
<g id="a_edge27_Node000016_Node000019"><a xlink:title=" ">
<path fill="none" stroke="#63b8ff" d="M219.6,-268.5C227.95,-268.5 236.88,-268.5 245.86,-268.5"/>
<polygon fill="#63b8ff" stroke="#63b8ff" points="245.98,-272 255.98,-268.5 245.98,-265 245.98,-272"/>
</a>
</g>
</g>
<!-- Node20 -->
<g id="Node000020" class="node">
<title>Node20</title>
<g id="a_Node000020"><a xlink:href="code__80086E70_8c.html#ad745ffd7b6ecd50c57336a484979b258" target="_top" xlink:title=" ">
<polygon fill="white" stroke="#666666" points="377,-241 267,-241 267,-222 377,-222 377,-241"/>
<text text-anchor="middle" x="322" y="-229" font-family="Helvetica,sans-Serif" font-size="10.00">set_obj_orientation</text>
</a>
</g>
</g>
<!-- Node16&#45;&gt;Node20 -->
<g id="edge28_Node000016_Node000020" class="edge">
<title>Node16&#45;&gt;Node20</title>
<g id="a_edge28_Node000016_Node000020"><a xlink:title=" ">
<path fill="none" stroke="#63b8ff" d="M212.6,-258.97C231.17,-254.26 253.78,-248.53 273.54,-243.53"/>
<polygon fill="#63b8ff" stroke="#63b8ff" points="274.44,-246.91 283.28,-241.06 272.72,-240.12 274.44,-246.91"/>
</a>
</g>
</g>
<!-- Node21&#45;&gt;Node4 -->
<g id="edge31_Node000021_Node000004" class="edge">
<title>Node21&#45;&gt;Node4</title>
<g id="a_edge31_Node000021_Node000004"><a xlink:title=" ">
<path fill="none" stroke="#63b8ff" d="M220.35,-669.31C264.68,-669.51 333.3,-665.57 388,-643.5 415.19,-632.53 441.22,-611.25 458.7,-594.84"/>
<polygon fill="#63b8ff" stroke="#63b8ff" points="461.34,-597.15 466.1,-587.69 456.48,-592.12 461.34,-597.15"/>
</a>
</g>
</g>
<!-- Node23 -->
<g id="Node000023" class="node">
<title>Node23</title>
<g id="a_Node000023"><a xlink:href="external_8h.html#ae82eb9565bbd324f028121f490e7c9a7" target="_top" xlink:title=" ">
<polygon fill="white" stroke="#666666" points="368,-56 276,-56 276,-37 368,-37 368,-56"/>
<text text-anchor="middle" x="322" y="-44" font-family="Helvetica,sans-Serif" font-size="10.00">func_800C1C88</text>
</a>
</g>
</g>
<!-- Node22&#45;&gt;Node23 -->
<g id="edge33_Node000022_Node000023" class="edge">
<title>Node22&#45;&gt;Node23</title>
<g id="a_edge33_Node000022_Node000023"><a xlink:title=" ">
<path fill="none" stroke="#63b8ff" d="M220.39,-46.5C234.75,-46.5 250.77,-46.5 265.73,-46.5"/>
<polygon fill="#63b8ff" stroke="#63b8ff" points="265.88,-50 275.88,-46.5 265.88,-43 265.88,-50"/>
</a>
</g>
</g>
<!-- Node24 -->
<g id="Node000024" class="node">
<title>Node24</title>
<g id="a_Node000024"><a xlink:href="external_8c.html#a62e16f9600e7e9beda2c9d2df10f3561" target="_top" xlink:title=" ">
<polygon fill="white" stroke="#666666" points="358,-19 286,-19 286,0 358,0 358,-19"/>
<text text-anchor="middle" x="322" y="-7" font-family="Helvetica,sans-Serif" font-size="10.00">play_sound</text>
</a>
</g>
</g>
<!-- Node22&#45;&gt;Node24 -->
<g id="edge34_Node000022_Node000024" class="edge">
<title>Node22&#45;&gt;Node24</title>
<g id="a_edge34_Node000022_Node000024"><a xlink:title=" ">
<path fill="none" stroke="#63b8ff" d="M212.6,-36.97C231.82,-32.1 255.37,-26.13 275.6,-21"/>
<polygon fill="#63b8ff" stroke="#63b8ff" points="276.7,-24.34 285.54,-18.49 274.98,-17.55 276.7,-24.34"/>
</a>
</g>
</g>
</g>
</svg>
