<?xml version="1.0" encoding="UTF-8" standalone="no"?>
<!DOCTYPE svg PUBLIC "-//W3C//DTD SVG 1.1//EN"
 "http://www.w3.org/Graphics/SVG/1.1/DTD/svg11.dtd">
<!-- Generated by graphviz version 2.43.0 (0)
 -->
<!-- Title: func_80061224 Pages: 1 -->
<svg width="380pt" height="187pt"
 viewBox="0.00 0.00 380.00 187.00" xmlns="http://www.w3.org/2000/svg" xmlns:xlink="http://www.w3.org/1999/xlink">
<g id="graph0" class="graph" transform="scale(1 1) rotate(0) translate(4 183)">
<title>func_80061224</title>
<!-- Node1 -->
<g id="Node000001" class="node">
<title>Node1</title>
<g id="a_Node000001"><a xlink:title=" ">
<polygon fill="#999999" stroke="#666666" points="91,-105 0,-105 0,-86 91,-86 91,-105"/>
<text text-anchor="middle" x="45.5" y="-93" font-family="Helvetica,sans-Serif" font-size="10.00">func_80061224</text>
</a>
</g>
</g>
<!-- Node2 -->
<g id="Node000002" class="node">
<title>Node2</title>
<g id="a_Node000002"><a xlink:href="code__80057C60_8c.html#a77fdc4c732656b412870d821f27dc084" target="_top" xlink:title=" ">
<polygon fill="white" stroke="#666666" points="218,-105 127,-105 127,-86 218,-86 218,-105"/>
<text text-anchor="middle" x="172.5" y="-93" font-family="Helvetica,sans-Serif" font-size="10.00">func_80061130</text>
</a>
</g>
</g>
<!-- Node1&#45;&gt;Node2 -->
<g id="edge1_Node000001_Node000002" class="edge">
<title>Node1&#45;&gt;Node2</title>
<g id="a_edge1_Node000001_Node000002"><a xlink:title=" ">
<path fill="none" stroke="#63b8ff" d="M91.27,-95.5C99.44,-95.5 108.05,-95.5 116.47,-95.5"/>
<polygon fill="#63b8ff" stroke="#63b8ff" points="116.62,-99 126.62,-95.5 116.62,-92 116.62,-99"/>
</a>
</g>
</g>
<!-- Node3 -->
<g id="Node000003" class="node">
<title>Node3</title>
<g id="a_Node000003"><a xlink:href="math__util_8c.html#a5eb0d9752bc1557b7f4ae3809352a0eb" target="_top" xlink:title=" ">
<polygon fill="white" stroke="#666666" points="332,-179 294,-179 294,-160 332,-160 332,-179"/>
<text text-anchor="middle" x="313" y="-167" font-family="Helvetica,sans-Serif" font-size="10.00">coss</text>
</a>
</g>
</g>
<!-- Node2&#45;&gt;Node3 -->
<g id="edge2_Node000002_Node000003" class="edge">
<title>Node2&#45;&gt;Node3</title>
<g id="a_edge2_Node000002_Node000003"><a xlink:title=" ">
<path fill="none" stroke="#63b8ff" d="M184.79,-105.05C199.76,-117.3 227.38,-138.5 254,-151.5 263.49,-156.14 274.44,-159.9 284.25,-162.77"/>
<polygon fill="#63b8ff" stroke="#63b8ff" points="283.38,-166.16 293.95,-165.42 285.23,-159.41 283.38,-166.16"/>
</a>
</g>
</g>
<!-- Node4 -->
<g id="Node000004" class="node">
<title>Node4</title>
<g id="a_Node000004"><a xlink:href="code__80057C60_8c.html#a1272a6c50cfec9b141d07f72a0e2f2c5" target="_top" xlink:title=" ">
<polygon fill="white" stroke="#666666" points="368,-142 258,-142 258,-123 368,-123 368,-142"/>
<text text-anchor="middle" x="313" y="-130" font-family="Helvetica,sans-Serif" font-size="10.00">init_particle_player</text>
</a>
</g>
</g>
<!-- Node2&#45;&gt;Node4 -->
<g id="edge3_Node000002_Node000004" class="edge">
<title>Node2&#45;&gt;Node4</title>
<g id="a_edge3_Node000002_Node000004"><a xlink:title=" ">
<path fill="none" stroke="#63b8ff" d="M209.17,-105.03C226.56,-109.67 247.68,-115.32 266.25,-120.28"/>
<polygon fill="#63b8ff" stroke="#63b8ff" points="265.41,-123.68 275.97,-122.88 267.21,-116.91 265.41,-123.68"/>
</a>
</g>
</g>
<!-- Node5 -->
<g id="Node000005" class="node">
<title>Node5</title>
<g id="a_Node000005"><a xlink:href="code__80057C60_8c.html#a4ae339f479dc4885b0af81962c9963c8" target="_top" xlink:title=" ">
<polygon fill="white" stroke="#666666" points="367.5,-105 258.5,-105 258.5,-86 367.5,-86 367.5,-105"/>
<text text-anchor="middle" x="313" y="-93" font-family="Helvetica,sans-Serif" font-size="10.00">set_particle_colour</text>
</a>
</g>
</g>
<!-- Node2&#45;&gt;Node5 -->
<g id="edge4_Node000002_Node000005" class="edge">
<title>Node2&#45;&gt;Node5</title>
<g id="a_edge4_Node000002_Node000005"><a xlink:title=" ">
<path fill="none" stroke="#63b8ff" d="M218.08,-95.5C227.69,-95.5 238.03,-95.5 248.21,-95.5"/>
<polygon fill="#63b8ff" stroke="#63b8ff" points="248.3,-99 258.3,-95.5 248.3,-92 248.3,-99"/>
</a>
</g>
</g>
<!-- Node6 -->
<g id="Node000006" class="node">
<title>Node6</title>
<g id="a_Node000006"><a xlink:href="code__80057C60_8c.html#a35301423811a1f1a26d5cf4f2031696b" target="_top" xlink:title=" ">
<polygon fill="white" stroke="#666666" points="372,-67.5 254,-67.5 254,-37.5 372,-37.5 372,-67.5"/>
<text text-anchor="start" x="262" y="-55.5" font-family="Helvetica,sans-Serif" font-size="10.00">set_particle_position</text>
<text text-anchor="middle" x="313" y="-44.5" font-family="Helvetica,sans-Serif" font-size="10.00">_and_rotation</text>
</a>
</g>
</g>
<!-- Node2&#45;&gt;Node6 -->
<g id="edge5_Node000002_Node000006" class="edge">
<title>Node2&#45;&gt;Node6</title>
<g id="a_edge5_Node000002_Node000006"><a xlink:title=" ">
<path fill="none" stroke="#63b8ff" d="M204.24,-85.96C218.83,-81.43 236.76,-75.86 253.78,-70.57"/>
<polygon fill="#63b8ff" stroke="#63b8ff" points="255.15,-73.81 263.67,-67.51 253.08,-67.13 255.15,-73.81"/>
</a>
</g>
</g>
<!-- Node7 -->
<g id="Node000007" class="node">
<title>Node7</title>
<g id="a_Node000007"><a xlink:href="math__util_8c.html#adcf81d47666b5d86c4a1dbcb06e47faf" target="_top" xlink:title=" ">
<polygon fill="white" stroke="#666666" points="331,-19 295,-19 295,0 331,0 331,-19"/>
<text text-anchor="middle" x="313" y="-7" font-family="Helvetica,sans-Serif" font-size="10.00">sins</text>
</a>
</g>
</g>
<!-- Node2&#45;&gt;Node7 -->
<g id="edge6_Node000002_Node000007" class="edge">
<title>Node2&#45;&gt;Node7</title>
<g id="a_edge6_Node000002_Node000007"><a xlink:title=" ">
<path fill="none" stroke="#63b8ff" d="M182.53,-85.96C196.57,-71.63 225.04,-44.52 254,-28.5 263.56,-23.21 274.84,-19.1 284.89,-16.07"/>
<polygon fill="#63b8ff" stroke="#63b8ff" points="286.11,-19.37 294.8,-13.31 284.23,-12.62 286.11,-19.37"/>
</a>
</g>
</g>
</g>
</svg>
