<?xml version="1.0" encoding="UTF-8" standalone="no"?>
<!DOCTYPE svg PUBLIC "-//W3C//DTD SVG 1.1//EN"
 "http://www.w3.org/Graphics/SVG/1.1/DTD/svg11.dtd">
<!-- Generated by graphviz version 2.43.0 (0)
 -->
<!-- Title: func_800730BC Pages: 1 -->
<svg width="1679pt" height="216pt"
 viewBox="0.00 0.00 1679.00 216.13" xmlns="http://www.w3.org/2000/svg" xmlns:xlink="http://www.w3.org/1999/xlink">
<g id="graph0" class="graph" transform="scale(1 1) rotate(0) translate(4 212.13)">
<title>func_800730BC</title>
<polygon fill="white" stroke="transparent" points="-4,4 -4,-212.13 1675,-212.13 1675,4 -4,4"/>
<!-- Node1 -->
<g id="node1" class="node">
<title>Node1</title>
<g id="a_node1"><a xlink:title=" ">
<polygon fill="#bfbfbf" stroke="black" points="1579,-112.63 1579,-131.63 1671,-131.63 1671,-112.63 1579,-112.63"/>
<text text-anchor="middle" x="1625" y="-119.63" font-family="Helvetica,sans-Serif" font-size="10.00">func_800730BC</text>
</a>
</g>
</g>
<!-- Node2 -->
<g id="node2" class="node">
<title>Node2</title>
<g id="a_node2"><a xlink:href="code__80071F00_8c.html#ada887b1ac4f9c80e6ab309082efde4f4" target="_top" xlink:title=" ">
<polygon fill="white" stroke="black" points="1450.5,-188.63 1450.5,-207.63 1542.5,-207.63 1542.5,-188.63 1450.5,-188.63"/>
<text text-anchor="middle" x="1496.5" y="-195.63" font-family="Helvetica,sans-Serif" font-size="10.00">func_80079B40</text>
</a>
</g>
</g>
<!-- Node1&#45;&gt;Node2 -->
<g id="edge1" class="edge">
<title>Node1&#45;&gt;Node2</title>
<path fill="none" stroke="midnightblue" d="M1604.15,-137.94C1588.22,-150.17 1564.97,-167 1543,-179.13 1536.85,-182.52 1529.98,-185.69 1523.47,-188.43"/>
<polygon fill="midnightblue" stroke="midnightblue" points="1606.45,-140.59 1612.19,-131.68 1602.15,-135.06 1606.45,-140.59"/>
</g>
<!-- Node15 -->
<g id="node15" class="node">
<title>Node15</title>
<g id="a_node15"><a xlink:href="code__80071F00_8c.html#a428563759075ebf2fbdc25342159e60c" target="_top" xlink:title=" ">
<polygon fill="white" stroke="black" points="1450.5,-150.63 1450.5,-169.63 1542.5,-169.63 1542.5,-150.63 1450.5,-150.63"/>
<text text-anchor="middle" x="1496.5" y="-157.63" font-family="Helvetica,sans-Serif" font-size="10.00">func_80079D44</text>
</a>
</g>
</g>
<!-- Node1&#45;&gt;Node15 -->
<g id="edge16" class="edge">
<title>Node1&#45;&gt;Node15</title>
<path fill="none" stroke="midnightblue" d="M1582.27,-134.66C1565.06,-139.83 1545.44,-145.72 1529.41,-150.54"/>
<polygon fill="midnightblue" stroke="midnightblue" points="1583.51,-137.94 1592.08,-131.71 1581.49,-131.24 1583.51,-137.94"/>
</g>
<!-- Node16 -->
<g id="node16" class="node">
<title>Node16</title>
<g id="a_node16"><a xlink:href="code__80071F00_8c.html#a785f6c730f3d8184ae5e7b615d97c6a5" target="_top" xlink:title=" ">
<polygon fill="white" stroke="black" points="1450,-112.63 1450,-131.63 1543,-131.63 1543,-112.63 1450,-112.63"/>
<text text-anchor="middle" x="1496.5" y="-119.63" font-family="Helvetica,sans-Serif" font-size="10.00">func_8007A4D4</text>
</a>
</g>
</g>
<!-- Node1&#45;&gt;Node16 -->
<g id="edge18" class="edge">
<title>Node1&#45;&gt;Node16</title>
<path fill="none" stroke="midnightblue" d="M1568.55,-122.13C1560.14,-122.13 1551.53,-122.13 1543.35,-122.13"/>
<polygon fill="midnightblue" stroke="midnightblue" points="1568.69,-125.63 1578.69,-122.13 1568.69,-118.63 1568.69,-125.63"/>
</g>
<!-- Node17 -->
<g id="node17" class="node">
<title>Node17</title>
<g id="a_node17"><a xlink:href="code__80071F00_8c.html#a86fe7e1a5b390123168b404e8d2ffb47" target="_top" xlink:title=" ">
<polygon fill="white" stroke="black" points="1450.5,-74.63 1450.5,-93.63 1542.5,-93.63 1542.5,-74.63 1450.5,-74.63"/>
<text text-anchor="middle" x="1496.5" y="-81.63" font-family="Helvetica,sans-Serif" font-size="10.00">func_8007E63C</text>
</a>
</g>
</g>
<!-- Node1&#45;&gt;Node17 -->
<g id="edge20" class="edge">
<title>Node1&#45;&gt;Node17</title>
<path fill="none" stroke="midnightblue" d="M1582.27,-109.59C1565.06,-104.42 1545.44,-98.53 1529.41,-93.71"/>
<polygon fill="midnightblue" stroke="midnightblue" points="1581.49,-113.01 1592.08,-112.54 1583.51,-106.31 1581.49,-113.01"/>
</g>
<!-- Node24 -->
<g id="node24" class="node">
<title>Node24</title>
<g id="a_node24"><a xlink:href="code__80071F00_8c.html#a954cae767f5352e4be4a8bd9d77cc824" target="_top" xlink:title=" ">
<polygon fill="white" stroke="black" points="1451,-17.63 1451,-36.63 1542,-36.63 1542,-17.63 1451,-17.63"/>
<text text-anchor="middle" x="1496.5" y="-24.63" font-family="Helvetica,sans-Serif" font-size="10.00">func_80080408</text>
</a>
</g>
</g>
<!-- Node1&#45;&gt;Node24 -->
<g id="edge31" class="edge">
<title>Node1&#45;&gt;Node24</title>
<path fill="none" stroke="midnightblue" d="M1602.71,-106.14C1576.28,-86.29 1532.02,-53.05 1510.3,-36.74"/>
<polygon fill="midnightblue" stroke="midnightblue" points="1600.84,-109.11 1610.94,-112.32 1605.04,-103.51 1600.84,-109.11"/>
</g>
<!-- Node3 -->
<g id="node3" class="node">
<title>Node3</title>
<g id="a_node3"><a xlink:href="code__80071F00_8c.html#a489fce0d997febed9f58f02d9be05838" target="_top" xlink:title=" ">
<polygon fill="white" stroke="black" points="1321.5,-169.63 1321.5,-188.63 1413.5,-188.63 1413.5,-169.63 1321.5,-169.63"/>
<text text-anchor="middle" x="1367.5" y="-176.63" font-family="Helvetica,sans-Serif" font-size="10.00">func_8007A948</text>
</a>
</g>
</g>
<!-- Node2&#45;&gt;Node3 -->
<g id="edge2" class="edge">
<title>Node2&#45;&gt;Node3</title>
<path fill="none" stroke="midnightblue" d="M1440.2,-189.85C1431.42,-188.54 1422.43,-187.19 1413.92,-185.92"/>
<polygon fill="midnightblue" stroke="midnightblue" points="1439.96,-193.36 1450.37,-191.37 1440.99,-186.43 1439.96,-193.36"/>
</g>
<!-- Node4 -->
<g id="node4" class="node">
<title>Node4</title>
<g id="a_node4"><a xlink:href="code__80057C60_8c.html#ad9abd1f78c8153b6eb41db7e6378a78c" target="_top" xlink:title=" ">
<polygon fill="white" stroke="black" points="1066,-155.63 1066,-174.63 1158,-174.63 1158,-155.63 1066,-155.63"/>
<text text-anchor="middle" x="1112" y="-162.63" font-family="Helvetica,sans-Serif" font-size="10.00">func_80059A88</text>
</a>
</g>
</g>
<!-- Node3&#45;&gt;Node4 -->
<g id="edge3" class="edge">
<title>Node3&#45;&gt;Node4</title>
<path fill="none" stroke="midnightblue" d="M1311.39,-176.08C1265.48,-173.55 1200.89,-169.98 1158.04,-167.61"/>
<polygon fill="midnightblue" stroke="midnightblue" points="1311.29,-179.58 1321.47,-176.64 1311.68,-172.59 1311.29,-179.58"/>
</g>
<!-- Node5 -->
<g id="node5" class="node">
<title>Node5</title>
<g id="a_node5"><a xlink:href="code__80057C60_8c.html#ae61bd9f49508d924387c00845cae4060" target="_top" xlink:title=" ">
<polygon fill="white" stroke="black" points="938,-117.63 938,-136.63 1030,-136.63 1030,-117.63 938,-117.63"/>
<text text-anchor="middle" x="984" y="-124.63" font-family="Helvetica,sans-Serif" font-size="10.00">func_80059AC8</text>
</a>
</g>
</g>
<!-- Node4&#45;&gt;Node5 -->
<g id="edge4" class="edge">
<title>Node4&#45;&gt;Node5</title>
<path fill="none" stroke="midnightblue" d="M1069.44,-152.59C1052.29,-147.42 1032.75,-141.53 1016.78,-136.71"/>
<polygon fill="midnightblue" stroke="midnightblue" points="1068.62,-156 1079.2,-155.54 1070.64,-149.3 1068.62,-156"/>
</g>
<!-- Node6 -->
<g id="node6" class="node">
<title>Node6</title>
<g id="a_node6"><a xlink:href="code__80280000_8c.html#a4d9b0156b64d7a67e4cb21cde391ca43" target="_top" xlink:title=" ">
<polygon fill="white" stroke="black" points="810.5,-155.63 810.5,-174.63 901.5,-174.63 901.5,-155.63 810.5,-155.63"/>
<text text-anchor="middle" x="856" y="-162.63" font-family="Helvetica,sans-Serif" font-size="10.00">func_80280000</text>
</a>
</g>
</g>
<!-- Node5&#45;&gt;Node6 -->
<g id="edge5" class="edge">
<title>Node5&#45;&gt;Node6</title>
<path fill="none" stroke="midnightblue" d="M941.44,-139.66C924.29,-144.83 904.75,-150.72 888.78,-155.54"/>
<polygon fill="midnightblue" stroke="midnightblue" points="942.64,-142.95 951.2,-136.71 940.62,-136.25 942.64,-142.95"/>
</g>
<!-- Node13 -->
<g id="node13" class="node">
<title>Node13</title>
<g id="a_node13"><a xlink:href="podium__ceremony__actors_8c.html#a7ea229c65f264670fc828b95e8321154" target="_top" xlink:title=" ">
<polygon fill="white" stroke="black" points="640,-117.63 640,-136.63 774,-136.63 774,-117.63 640,-117.63"/>
<text text-anchor="middle" x="707" y="-124.63" font-family="Helvetica,sans-Serif" font-size="10.00">podium_ceremony_loop</text>
</a>
</g>
</g>
<!-- Node5&#45;&gt;Node13 -->
<g id="edge12" class="edge">
<title>Node5&#45;&gt;Node13</title>
<path fill="none" stroke="midnightblue" d="M927.89,-127.13C883.59,-127.13 821.22,-127.13 774.22,-127.13"/>
<polygon fill="midnightblue" stroke="midnightblue" points="927.9,-130.63 937.9,-127.13 927.9,-123.63 927.9,-130.63"/>
</g>
<!-- Node14 -->
<g id="node14" class="node">
<title>Node14</title>
<g id="a_node14"><a xlink:href="main_8c.html#afff87ffcbfee4f1f37d443110aa7b52a" target="_top" xlink:title=" ">
<polygon fill="white" stroke="black" points="810,-79.63 810,-98.63 902,-98.63 902,-79.63 810,-79.63"/>
<text text-anchor="middle" x="856" y="-86.63" font-family="Helvetica,sans-Serif" font-size="10.00">race_logic_loop</text>
</a>
</g>
</g>
<!-- Node5&#45;&gt;Node14 -->
<g id="edge14" class="edge">
<title>Node5&#45;&gt;Node14</title>
<path fill="none" stroke="midnightblue" d="M941.44,-114.59C924.29,-109.42 904.75,-103.53 888.78,-98.71"/>
<polygon fill="midnightblue" stroke="midnightblue" points="940.62,-118 951.2,-117.54 942.64,-111.3 940.62,-118"/>
</g>
<!-- Node7 -->
<g id="node7" class="node">
<title>Node7</title>
<g id="a_node7"><a xlink:href="code__80280000_8c.html#aa28a69be4eda3b8667366c6c7b556024" target="_top" xlink:title=" ">
<polygon fill="white" stroke="black" points="669,-155.63 669,-174.63 745,-174.63 745,-155.63 669,-155.63"/>
<text text-anchor="middle" x="707" y="-162.63" font-family="Helvetica,sans-Serif" font-size="10.00">credits_loop</text>
</a>
</g>
</g>
<!-- Node6&#45;&gt;Node7 -->
<g id="edge6" class="edge">
<title>Node6&#45;&gt;Node7</title>
<path fill="none" stroke="midnightblue" d="M800.26,-165.13C781.99,-165.13 762.06,-165.13 745.42,-165.13"/>
<polygon fill="midnightblue" stroke="midnightblue" points="800.5,-168.63 810.5,-165.13 800.5,-161.63 800.5,-168.63"/>
</g>
<!-- Node8 -->
<g id="node8" class="node">
<title>Node8</title>
<g id="a_node8"><a xlink:href="main_8c.html#ae04143ce8113cdafa007c642eb620bc8" target="_top" xlink:title=" ">
<polygon fill="white" stroke="black" points="488,-117.63 488,-136.63 604,-136.63 604,-117.63 488,-117.63"/>
<text text-anchor="middle" x="546" y="-124.63" font-family="Helvetica,sans-Serif" font-size="10.00">game_state_handler</text>
</a>
</g>
</g>
<!-- Node7&#45;&gt;Node8 -->
<g id="edge7" class="edge">
<title>Node7&#45;&gt;Node8</title>
<path fill="none" stroke="midnightblue" d="M658.86,-153.86C635.94,-148.38 608.69,-141.87 586.82,-136.64"/>
<polygon fill="midnightblue" stroke="midnightblue" points="658.18,-157.3 668.72,-156.22 659.81,-150.49 658.18,-157.3"/>
</g>
<!-- Node9 -->
<g id="node9" class="node">
<title>Node9</title>
<g id="a_node9"><a xlink:href="main_8c.html#a633ed517e458daeb768f5361895dcac9" target="_top" xlink:title=" ">
<polygon fill="white" stroke="black" points="339,-117.63 339,-136.63 452,-136.63 452,-117.63 339,-117.63"/>
<text text-anchor="middle" x="395.5" y="-124.63" font-family="Helvetica,sans-Serif" font-size="10.00">thread5_game_loop</text>
</a>
</g>
</g>
<!-- Node8&#45;&gt;Node9 -->
<g id="edge8" class="edge">
<title>Node8&#45;&gt;Node9</title>
<path fill="none" stroke="midnightblue" d="M477.42,-127.13C469.02,-127.13 460.5,-127.13 452.3,-127.13"/>
<polygon fill="midnightblue" stroke="midnightblue" points="477.59,-130.63 487.59,-127.13 477.59,-123.63 477.59,-130.63"/>
</g>
<!-- Node10 -->
<g id="node10" class="node">
<title>Node10</title>
<g id="a_node10"><a xlink:href="main_8c.html#a023b8f272e4efbd33f371e91ffff6b30" target="_top" xlink:title=" ">
<polygon fill="white" stroke="black" points="217,-117.63 217,-136.63 303,-136.63 303,-117.63 217,-117.63"/>
<text text-anchor="middle" x="260" y="-124.63" font-family="Helvetica,sans-Serif" font-size="10.00">thread3_video</text>
</a>
</g>
</g>
<!-- Node9&#45;&gt;Node10 -->
<g id="edge9" class="edge">
<title>Node9&#45;&gt;Node10</title>
<path fill="none" stroke="midnightblue" d="M328.57,-127.13C319.94,-127.13 311.3,-127.13 303.21,-127.13"/>
<polygon fill="midnightblue" stroke="midnightblue" points="328.66,-130.63 338.66,-127.13 328.66,-123.63 328.66,-130.63"/>
</g>
<!-- Node11 -->
<g id="node11" class="node">
<title>Node11</title>
<g id="a_node11"><a xlink:href="main_8c.html#a1e35d2b842121e6aea373f09381616e5" target="_top" xlink:title=" ">
<polygon fill="white" stroke="black" points="104,-117.63 104,-136.63 181,-136.63 181,-117.63 104,-117.63"/>
<text text-anchor="middle" x="142.5" y="-124.63" font-family="Helvetica,sans-Serif" font-size="10.00">thread1_idle</text>
</a>
</g>
</g>
<!-- Node10&#45;&gt;Node11 -->
<g id="edge10" class="edge">
<title>Node10&#45;&gt;Node11</title>
<path fill="none" stroke="midnightblue" d="M206.9,-127.13C198.2,-127.13 189.33,-127.13 181.09,-127.13"/>
<polygon fill="midnightblue" stroke="midnightblue" points="206.98,-130.63 216.98,-127.13 206.98,-123.63 206.98,-130.63"/>
</g>
<!-- Node12 -->
<g id="node12" class="node">
<title>Node12</title>
<g id="a_node12"><a xlink:href="main_8c.html#a4f87d43525fe95f60ea92bc8a3b70e62" target="_top" xlink:title=" ">
<polygon fill="white" stroke="black" points="0,-117.63 0,-136.63 68,-136.63 68,-117.63 0,-117.63"/>
<text text-anchor="middle" x="34" y="-124.63" font-family="Helvetica,sans-Serif" font-size="10.00">main_func</text>
</a>
</g>
</g>
<!-- Node11&#45;&gt;Node12 -->
<g id="edge11" class="edge">
<title>Node11&#45;&gt;Node12</title>
<path fill="none" stroke="midnightblue" d="M93.95,-127.13C85.29,-127.13 76.44,-127.13 68.31,-127.13"/>
<polygon fill="midnightblue" stroke="midnightblue" points="93.95,-130.63 103.95,-127.13 93.95,-123.63 93.95,-130.63"/>
</g>
<!-- Node13&#45;&gt;Node8 -->
<g id="edge13" class="edge">
<title>Node13&#45;&gt;Node8</title>
<path fill="none" stroke="midnightblue" d="M629.87,-127.13C621.24,-127.13 612.56,-127.13 604.24,-127.13"/>
<polygon fill="midnightblue" stroke="midnightblue" points="629.95,-130.63 639.95,-127.13 629.95,-123.63 629.95,-130.63"/>
</g>
<!-- Node14&#45;&gt;Node8 -->
<g id="edge15" class="edge">
<title>Node14&#45;&gt;Node8</title>
<path fill="none" stroke="midnightblue" d="M799.84,-92.27C756.29,-95.17 694.07,-100.24 640,-108.13 623.04,-110.6 604.51,-114.2 588.49,-117.6"/>
<polygon fill="midnightblue" stroke="midnightblue" points="800.19,-95.76 809.94,-91.62 799.74,-88.77 800.19,-95.76"/>
</g>
<!-- Node15&#45;&gt;Node3 -->
<g id="edge17" class="edge">
<title>Node15&#45;&gt;Node3</title>
<path fill="none" stroke="midnightblue" d="M1440.2,-168.4C1431.42,-169.71 1422.43,-171.06 1413.92,-172.33"/>
<polygon fill="midnightblue" stroke="midnightblue" points="1440.99,-171.82 1450.37,-166.88 1439.96,-164.9 1440.99,-171.82"/>
</g>
<!-- Node16&#45;&gt;Node3 -->
<g id="edge19" class="edge">
<title>Node16&#45;&gt;Node3</title>
<path fill="none" stroke="midnightblue" d="M1461.93,-135.74C1457.88,-137.5 1453.83,-139.32 1450,-141.13 1433.64,-148.84 1430.36,-152.41 1414,-160.13 1407.19,-163.34 1399.68,-166.59 1392.76,-169.47"/>
<polygon fill="midnightblue" stroke="midnightblue" points="1463.4,-138.92 1471.24,-131.78 1460.66,-132.48 1463.4,-138.92"/>
</g>
<!-- Node18 -->
<g id="node18" class="node">
<title>Node18</title>
<g id="a_node18"><a xlink:href="code__80071F00_8c.html#a97a0db678a72fb74643c62b4dcf0f6a6" target="_top" xlink:title=" ">
<polygon fill="white" stroke="black" points="1321,-131.63 1321,-150.63 1414,-150.63 1414,-131.63 1321,-131.63"/>
<text text-anchor="middle" x="1367.5" y="-138.63" font-family="Helvetica,sans-Serif" font-size="10.00">func_8007ED6C</text>
</a>
</g>
</g>
<!-- Node17&#45;&gt;Node18 -->
<g id="edge21" class="edge">
<title>Node17&#45;&gt;Node18</title>
<path fill="none" stroke="midnightblue" d="M1461.93,-97.74C1457.88,-99.5 1453.83,-101.32 1450,-103.13 1433.64,-110.84 1430.36,-114.41 1414,-122.13 1407.19,-125.34 1399.68,-128.59 1392.76,-131.47"/>
<polygon fill="midnightblue" stroke="midnightblue" points="1463.4,-100.92 1471.24,-93.78 1460.66,-94.48 1463.4,-100.92"/>
</g>
<!-- Node21 -->
<g id="node21" class="node">
<title>Node21</title>
<g id="a_node21"><a xlink:href="code__80071F00_8c.html#a959f14e28be6bc4b2ef643c91933118d" target="_top" xlink:title=" ">
<polygon fill="white" stroke="black" points="1321.5,-93.63 1321.5,-112.63 1413.5,-112.63 1413.5,-93.63 1321.5,-93.63"/>
<text text-anchor="middle" x="1367.5" y="-100.63" font-family="Helvetica,sans-Serif" font-size="10.00">func_8007F5A8</text>
</a>
</g>
</g>
<!-- Node17&#45;&gt;Node21 -->
<g id="edge25" class="edge">
<title>Node17&#45;&gt;Node21</title>
<path fill="none" stroke="midnightblue" d="M1440.2,-92.4C1431.42,-93.71 1422.43,-95.06 1413.92,-96.33"/>
<polygon fill="midnightblue" stroke="midnightblue" points="1440.99,-95.82 1450.37,-90.88 1439.96,-88.9 1440.99,-95.82"/>
</g>
<!-- Node22 -->
<g id="node22" class="node">
<title>Node22</title>
<g id="a_node22"><a xlink:href="code__80071F00_8c.html#aaeded00d33e7ae72ce35e159985f53d6" target="_top" xlink:title=" ">
<polygon fill="white" stroke="black" points="1321.5,-55.63 1321.5,-74.63 1413.5,-74.63 1413.5,-55.63 1321.5,-55.63"/>
<text text-anchor="middle" x="1367.5" y="-62.63" font-family="Helvetica,sans-Serif" font-size="10.00">func_8007FFC0</text>
</a>
</g>
</g>
<!-- Node17&#45;&gt;Node22 -->
<g id="edge27" class="edge">
<title>Node17&#45;&gt;Node22</title>
<path fill="none" stroke="midnightblue" d="M1440.2,-75.85C1431.42,-74.54 1422.43,-73.19 1413.92,-71.92"/>
<polygon fill="midnightblue" stroke="midnightblue" points="1439.96,-79.36 1450.37,-77.37 1440.99,-72.43 1439.96,-79.36"/>
</g>
<!-- Node23 -->
<g id="node23" class="node">
<title>Node23</title>
<g id="a_node23"><a xlink:href="code__80071F00_8c.html#a06d77efdc67bfef1e59204e7fd69b34e" target="_top" xlink:title=" ">
<polygon fill="white" stroke="black" points="1321.5,-17.63 1321.5,-36.63 1413.5,-36.63 1413.5,-17.63 1321.5,-17.63"/>
<text text-anchor="middle" x="1367.5" y="-24.63" font-family="Helvetica,sans-Serif" font-size="10.00">func_800801FC</text>
</a>
</g>
</g>
<!-- Node17&#45;&gt;Node23 -->
<g id="edge29" class="edge">
<title>Node17&#45;&gt;Node23</title>
<path fill="none" stroke="midnightblue" d="M1466.42,-70.22C1450.93,-62.9 1431.5,-53.86 1414,-46.13 1406.95,-43.01 1399.24,-39.74 1392.19,-36.81"/>
<polygon fill="midnightblue" stroke="midnightblue" points="1464.97,-73.4 1475.51,-74.53 1467.97,-67.08 1464.97,-73.4"/>
</g>
<!-- Node19 -->
<g id="node19" class="node">
<title>Node19</title>
<g id="a_node19"><a xlink:href="code__80071F00_8c.html#a8afc56ea0d06d8d9d473e5883925c9a9" target="_top" xlink:title=" ">
<polygon fill="white" stroke="black" points="1194,-60.63 1194,-79.63 1285,-79.63 1285,-60.63 1194,-60.63"/>
<text text-anchor="middle" x="1239.5" y="-67.63" font-family="Helvetica,sans-Serif" font-size="10.00">func_80081210</text>
</a>
</g>
</g>
<!-- Node18&#45;&gt;Node19 -->
<g id="edge22" class="edge">
<title>Node18&#45;&gt;Node19</title>
<path fill="none" stroke="midnightblue" d="M1331.9,-127.44C1328.18,-125.74 1324.48,-123.96 1321,-122.13 1296.27,-109.11 1269.33,-90.78 1253.73,-79.72"/>
<polygon fill="midnightblue" stroke="midnightblue" points="1330.53,-130.66 1341.1,-131.46 1333.33,-124.25 1330.53,-130.66"/>
</g>
<!-- Node20 -->
<g id="node20" class="node">
<title>Node20</title>
<g id="a_node20"><a xlink:href="code__80057C60_8c.html#a8a7fdf4fc705765c9463a477e3ef1858" target="_top" xlink:title=" ">
<polygon fill="white" stroke="black" points="1066,-98.63 1066,-117.63 1158,-117.63 1158,-98.63 1066,-98.63"/>
<text text-anchor="middle" x="1112" y="-105.63" font-family="Helvetica,sans-Serif" font-size="10.00">func_8005A71C</text>
</a>
</g>
</g>
<!-- Node19&#45;&gt;Node20 -->
<g id="edge23" class="edge">
<title>Node19&#45;&gt;Node20</title>
<path fill="none" stroke="midnightblue" d="M1197.1,-82.66C1180.03,-87.83 1160.56,-93.72 1144.66,-98.54"/>
<polygon fill="midnightblue" stroke="midnightblue" points="1198.27,-85.96 1206.83,-79.71 1196.25,-79.26 1198.27,-85.96"/>
</g>
<!-- Node20&#45;&gt;Node5 -->
<g id="edge24" class="edge">
<title>Node20&#45;&gt;Node5</title>
<path fill="none" stroke="midnightblue" d="M1055.93,-116.43C1047.35,-117.72 1038.57,-119.05 1030.24,-120.3"/>
<polygon fill="midnightblue" stroke="midnightblue" points="1056.5,-119.88 1065.87,-114.93 1055.46,-112.96 1056.5,-119.88"/>
</g>
<!-- Node21&#45;&gt;Node19 -->
<g id="edge26" class="edge">
<title>Node21&#45;&gt;Node19</title>
<path fill="none" stroke="midnightblue" d="M1320.37,-91.04C1306.03,-87.29 1290.44,-83.2 1276.86,-79.65"/>
<polygon fill="midnightblue" stroke="midnightblue" points="1319.5,-94.43 1330.06,-93.58 1321.27,-87.66 1319.5,-94.43"/>
</g>
<!-- Node22&#45;&gt;Node19 -->
<g id="edge28" class="edge">
<title>Node22&#45;&gt;Node19</title>
<path fill="none" stroke="midnightblue" d="M1311.3,-67.32C1302.62,-67.66 1293.73,-68.01 1285.32,-68.35"/>
<polygon fill="midnightblue" stroke="midnightblue" points="1311.51,-70.81 1321.37,-66.92 1311.24,-63.82 1311.51,-70.81"/>
</g>
<!-- Node23&#45;&gt;Node19 -->
<g id="edge30" class="edge">
<title>Node23&#45;&gt;Node19</title>
<path fill="none" stroke="midnightblue" d="M1329.06,-39.9C1309.6,-46.54 1286.23,-54.52 1268.39,-60.61"/>
<polygon fill="midnightblue" stroke="midnightblue" points="1330.2,-43.21 1338.54,-36.67 1327.94,-36.59 1330.2,-43.21"/>
</g>
<!-- Node24&#45;&gt;Node19 -->
<g id="edge32" class="edge">
<title>Node24&#45;&gt;Node19</title>
<path fill="none" stroke="midnightblue" d="M1460.04,-14.57C1424.08,-3.82 1367.28,7.63 1321,-8.13 1290.61,-18.47 1262.74,-45.44 1249.17,-60.17"/>
<polygon fill="midnightblue" stroke="midnightblue" points="1459.02,-17.92 1469.61,-17.56 1461.11,-11.23 1459.02,-17.92"/>
</g>
</g>
</svg>
