<?xml version="1.0" encoding="UTF-8" standalone="no"?>
<!DOCTYPE svg PUBLIC "-//W3C//DTD SVG 1.1//EN"
 "http://www.w3.org/Graphics/SVG/1.1/DTD/svg11.dtd">
<!-- Generated by graphviz version 2.43.0 (0)
 -->
<!-- Title: reset_save_data_grand_prix_points_and_sound_mode Pages: 1 -->
<svg width="1516pt" height="465pt"
 viewBox="0.00 0.00 1516.00 465.00" xmlns="http://www.w3.org/2000/svg" xmlns:xlink="http://www.w3.org/1999/xlink">
<g id="graph0" class="graph" transform="scale(1 1) rotate(0) translate(4 461)">
<title>reset_save_data_grand_prix_points_and_sound_mode</title>
<polygon fill="white" stroke="transparent" points="-4,4 -4,-461 1512,-461 1512,4 -4,4"/>
<!-- Node1 -->
<g id="node1" class="node">
<title>Node1</title>
<g id="a_node1"><a xlink:title=" ">
<polygon fill="#bfbfbf" stroke="black" points="0,-166 0,-196 167,-196 167,-166 0,-166"/>
<text text-anchor="start" x="8" y="-184" font-family="Helvetica,sans-Serif" font-size="10.00">reset_save_data_grand</text>
<text text-anchor="middle" x="83.5" y="-173" font-family="Helvetica,sans-Serif" font-size="10.00">_prix_points_and_sound_mode</text>
</a>
</g>
</g>
<!-- Node2 -->
<g id="node2" class="node">
<title>Node2</title>
<g id="a_node2"><a xlink:href="menus_8c.html#a6a7fe841b2312b5d5bfb88939ef86df9" target="_top" xlink:title=" ">
<polygon fill="white" stroke="black" points="240,-201.5 240,-220.5 333,-220.5 333,-201.5 240,-201.5"/>
<text text-anchor="middle" x="286.5" y="-208.5" font-family="Helvetica,sans-Serif" font-size="10.00">func_800B44BC</text>
</a>
</g>
</g>
<!-- Node1&#45;&gt;Node2 -->
<g id="edge1" class="edge">
<title>Node1&#45;&gt;Node2</title>
<path fill="none" stroke="midnightblue" d="M167.12,-193.33C188.33,-196.5 210.64,-199.83 230.1,-202.73"/>
<polygon fill="midnightblue" stroke="midnightblue" points="229.58,-206.19 239.99,-204.21 230.62,-199.27 229.58,-206.19"/>
</g>
<!-- Node4 -->
<g id="node4" class="node">
<title>Node4</title>
<g id="a_node4"><a xlink:href="code__800B45E0_8c.html#a2afb543114bf6836bf722730aed3fbc0" target="_top" xlink:title=" ">
<polygon fill="white" stroke="black" points="203,-144 203,-174 370,-174 370,-144 203,-144"/>
<text text-anchor="start" x="211" y="-162" font-family="Helvetica,sans-Serif" font-size="10.00">write_save_data_grand</text>
<text text-anchor="middle" x="286.5" y="-151" font-family="Helvetica,sans-Serif" font-size="10.00">_prix_points_and_sound_mode</text>
</a>
</g>
</g>
<!-- Node1&#45;&gt;Node4 -->
<g id="edge3" class="edge">
<title>Node1&#45;&gt;Node4</title>
<path fill="none" stroke="midnightblue" d="M167.12,-171.96C175.61,-171.03 184.27,-170.08 192.85,-169.14"/>
<polygon fill="midnightblue" stroke="midnightblue" points="193.31,-172.61 202.87,-168.04 192.55,-165.65 193.31,-172.61"/>
</g>
<!-- Node3 -->
<g id="node3" class="node">
<title>Node3</title>
<g id="a_node3"><a xlink:href="external_8c.html#ac48b7cbfcaa7737f892877ead85e4ba7" target="_top" xlink:title=" ">
<polygon fill="white" stroke="black" points="450.5,-209.5 450.5,-228.5 542.5,-228.5 542.5,-209.5 450.5,-209.5"/>
<text text-anchor="middle" x="496.5" y="-216.5" font-family="Helvetica,sans-Serif" font-size="10.00">func_800C3448</text>
</a>
</g>
</g>
<!-- Node2&#45;&gt;Node3 -->
<g id="edge2" class="edge">
<title>Node2&#45;&gt;Node3</title>
<path fill="none" stroke="midnightblue" d="M333.15,-212.76C364.68,-213.97 406.81,-215.59 440.24,-216.87"/>
<polygon fill="midnightblue" stroke="midnightblue" points="440.19,-220.38 450.32,-217.26 440.46,-213.38 440.19,-220.38"/>
</g>
<!-- Node5 -->
<g id="node5" class="node">
<title>Node5</title>
<g id="a_node5"><a xlink:href="code__800B45E0_8c.html#a59b4e93d2c2915660cfeef4972a1b478" target="_top" xlink:title=" ">
<polygon fill="white" stroke="black" points="406,-171.5 406,-190.5 587,-190.5 587,-171.5 406,-171.5"/>
<text text-anchor="middle" x="496.5" y="-178.5" font-family="Helvetica,sans-Serif" font-size="10.00">compute_save_data_checksum_1</text>
</a>
</g>
</g>
<!-- Node4&#45;&gt;Node5 -->
<g id="edge4" class="edge">
<title>Node4&#45;&gt;Node5</title>
<path fill="none" stroke="midnightblue" d="M370.01,-167.73C378.48,-168.62 387.16,-169.54 395.8,-170.45"/>
<polygon fill="midnightblue" stroke="midnightblue" points="395.59,-173.95 405.91,-171.52 396.33,-166.99 395.59,-173.95"/>
</g>
<!-- Node6 -->
<g id="node6" class="node">
<title>Node6</title>
<g id="a_node6"><a xlink:href="code__800B45E0_8c.html#aaed3029b4b74d9c3339416feb1134200" target="_top" xlink:title=" ">
<polygon fill="white" stroke="black" points="406,-133.5 406,-152.5 587,-152.5 587,-133.5 406,-133.5"/>
<text text-anchor="middle" x="496.5" y="-140.5" font-family="Helvetica,sans-Serif" font-size="10.00">compute_save_data_checksum_2</text>
</a>
</g>
</g>
<!-- Node4&#45;&gt;Node6 -->
<g id="edge5" class="edge">
<title>Node4&#45;&gt;Node6</title>
<path fill="none" stroke="midnightblue" d="M370.01,-152.65C378.48,-152 387.16,-151.33 395.8,-150.67"/>
<polygon fill="midnightblue" stroke="midnightblue" points="396.21,-154.15 405.91,-149.89 395.67,-147.17 396.21,-154.15"/>
</g>
<!-- Node7 -->
<g id="node7" class="node">
<title>Node7</title>
<g id="a_node7"><a xlink:href="osEepromLongWrite_8c.html#aa1669d76506610d1c5a9d248f6d45add" target="_top" xlink:title=" ">
<polygon fill="white" stroke="black" points="439,-95.5 439,-114.5 554,-114.5 554,-95.5 439,-95.5"/>
<text text-anchor="middle" x="496.5" y="-102.5" font-family="Helvetica,sans-Serif" font-size="10.00">osEepromLongWrite</text>
</a>
</g>
</g>
<!-- Node4&#45;&gt;Node7 -->
<g id="edge6" class="edge">
<title>Node4&#45;&gt;Node7</title>
<path fill="none" stroke="midnightblue" d="M335.41,-143.93C356.89,-137.41 382.61,-129.93 406,-124 416.04,-121.46 426.76,-118.98 437.18,-116.69"/>
<polygon fill="midnightblue" stroke="midnightblue" points="438,-120.1 447.03,-114.57 436.52,-113.25 438,-120.1"/>
</g>
<!-- Node8 -->
<g id="node8" class="node">
<title>Node8</title>
<g id="a_node8"><a xlink:href="osEepromWrite_8c.html#a821b8ce22af671850530fdbd8aa56e9d" target="_top" xlink:title=" ">
<polygon fill="white" stroke="black" points="623,-209.5 623,-228.5 715,-228.5 715,-209.5 623,-209.5"/>
<text text-anchor="middle" x="669" y="-216.5" font-family="Helvetica,sans-Serif" font-size="10.00">osEepromWrite</text>
</a>
</g>
</g>
<!-- Node7&#45;&gt;Node8 -->
<g id="edge7" class="edge">
<title>Node7&#45;&gt;Node8</title>
<path fill="none" stroke="midnightblue" d="M554.04,-111.15C565.48,-113.97 577.04,-118.07 587,-124 618.8,-142.93 644.21,-178.87 657.61,-200.7"/>
<polygon fill="midnightblue" stroke="midnightblue" points="654.64,-202.56 662.75,-209.37 660.66,-198.99 654.64,-202.56"/>
</g>
<!-- Node14 -->
<g id="node14" class="node">
<title>Node14</title>
<g id="a_node14"><a xlink:href="code__80071F00_8h.html#a4283cbf896ea7ca31653640f6dd237af" target="_top" xlink:title=" ">
<polygon fill="white" stroke="black" points="1116,-171.5 1116,-190.5 1194,-190.5 1194,-171.5 1116,-171.5"/>
<text text-anchor="middle" x="1155" y="-178.5" font-family="Helvetica,sans-Serif" font-size="10.00">osRecvMesg</text>
</a>
</g>
</g>
<!-- Node7&#45;&gt;Node14 -->
<g id="edge40" class="edge">
<title>Node7&#45;&gt;Node14</title>
<path fill="none" stroke="midnightblue" d="M554.01,-101.52C656.56,-96.7 879.39,-93.07 1060,-138 1084.62,-144.12 1110.71,-156.6 1129.14,-166.54"/>
<polygon fill="midnightblue" stroke="midnightblue" points="1127.59,-169.68 1138.03,-171.46 1130.98,-163.55 1127.59,-169.68"/>
</g>
<!-- Node28 -->
<g id="node28" class="node">
<title>Node28</title>
<g id="a_node28"><a xlink:href="osSetTimer_8c.html#ae185ba75a7718dbf19268876ea9b1b0e" target="_top" xlink:title=" ">
<polygon fill="white" stroke="black" points="1119,-57.5 1119,-76.5 1191,-76.5 1191,-57.5 1119,-57.5"/>
<text text-anchor="middle" x="1155" y="-64.5" font-family="Helvetica,sans-Serif" font-size="10.00">osSetTimer</text>
</a>
</g>
</g>
<!-- Node7&#45;&gt;Node28 -->
<g id="edge41" class="edge">
<title>Node7&#45;&gt;Node28</title>
<path fill="none" stroke="midnightblue" d="M554.28,-97.86C575.77,-95.37 600.49,-92.76 623,-91 802.61,-76.94 1017.09,-70.37 1108.8,-68.04"/>
<polygon fill="midnightblue" stroke="midnightblue" points="1108.94,-71.54 1118.85,-67.79 1108.76,-64.54 1108.94,-71.54"/>
</g>
<!-- Node9 -->
<g id="node9" class="node">
<title>Node9</title>
<g id="a_node9"><a xlink:href="osEepromWrite_8c.html#a60ddd985ce0b83b8c5ab75da236177ca" target="_top" xlink:title=" ">
<polygon fill="white" stroke="black" points="771.5,-209.5 771.5,-228.5 858.5,-228.5 858.5,-209.5 771.5,-209.5"/>
<text text-anchor="middle" x="815" y="-216.5" font-family="Helvetica,sans-Serif" font-size="10.00">__osEepStatus</text>
</a>
</g>
</g>
<!-- Node8&#45;&gt;Node9 -->
<g id="edge8" class="edge">
<title>Node8&#45;&gt;Node9</title>
<path fill="none" stroke="midnightblue" d="M715.17,-219C729.78,-219 746.11,-219 761.22,-219"/>
<polygon fill="midnightblue" stroke="midnightblue" points="761.45,-222.5 771.45,-219 761.45,-215.5 761.45,-222.5"/>
</g>
<!-- Node10 -->
<g id="node10" class="node">
<title>Node10</title>
<g id="a_node10"><a xlink:href="____osSiRawStartDma_8c.html#a469384eba4ccec319dbec8745f22bd2f" target="_top" xlink:title=" ">
<polygon fill="white" stroke="black" points="930,-323.5 930,-342.5 1045,-342.5 1045,-323.5 930,-323.5"/>
<text text-anchor="middle" x="987.5" y="-330.5" font-family="Helvetica,sans-Serif" font-size="10.00">__osSiRawStartDma</text>
</a>
</g>
</g>
<!-- Node8&#45;&gt;Node10 -->
<g id="edge36" class="edge">
<title>Node8&#45;&gt;Node10</title>
<path fill="none" stroke="midnightblue" d="M676.21,-228.59C688.25,-246.29 716.63,-283.83 751,-301 803.55,-327.25 870.49,-334.2 919.56,-335.2"/>
<polygon fill="midnightblue" stroke="midnightblue" points="919.7,-338.7 929.75,-335.33 919.79,-331.7 919.7,-338.7"/>
</g>
<!-- Node8&#45;&gt;Node14 -->
<g id="edge39" class="edge">
<title>Node8&#45;&gt;Node14</title>
<path fill="none" stroke="midnightblue" d="M679.38,-209.38C693.43,-195.73 721.49,-171.34 751,-162 875.84,-122.48 1033.28,-150.81 1109.11,-168.97"/>
<polygon fill="midnightblue" stroke="midnightblue" points="1108.72,-172.48 1119.26,-171.46 1110.38,-165.68 1108.72,-172.48"/>
</g>
<!-- Node22 -->
<g id="node22" class="node">
<title>Node22</title>
<g id="a_node22"><a xlink:href="osEepromWrite_8c.html#ac75a7c8520da3ebddcd82ad6ba91296f" target="_top" xlink:title=" ">
<polygon fill="white" stroke="black" points="751,-247.5 751,-266.5 879,-266.5 879,-247.5 751,-247.5"/>
<text text-anchor="middle" x="815" y="-254.5" font-family="Helvetica,sans-Serif" font-size="10.00">__osPackEepWriteData</text>
</a>
</g>
</g>
<!-- Node8&#45;&gt;Node22 -->
<g id="edge25" class="edge">
<title>Node8&#45;&gt;Node22</title>
<path fill="none" stroke="midnightblue" d="M706.34,-228.59C725.08,-233.54 748.14,-239.62 768.11,-244.89"/>
<polygon fill="midnightblue" stroke="midnightblue" points="767.36,-248.31 777.92,-247.48 769.15,-241.54 767.36,-248.31"/>
</g>
<!-- Node23 -->
<g id="node23" class="node">
<title>Node23</title>
<g id="a_node23"><a xlink:href="____osSiCreateAccessQueue_8c.html#ae0373fb01ccb4831c6c9783b23524a07" target="_top" xlink:title=" ">
<polygon fill="white" stroke="black" points="766,-171.5 766,-190.5 864,-190.5 864,-171.5 766,-171.5"/>
<text text-anchor="middle" x="815" y="-178.5" font-family="Helvetica,sans-Serif" font-size="10.00">__osSiGetAccess</text>
</a>
</g>
</g>
<!-- Node8&#45;&gt;Node23 -->
<g id="edge26" class="edge">
<title>Node8&#45;&gt;Node23</title>
<path fill="none" stroke="midnightblue" d="M706.34,-209.41C725.08,-204.46 748.14,-198.38 768.11,-193.11"/>
<polygon fill="midnightblue" stroke="midnightblue" points="769.15,-196.46 777.92,-190.52 767.36,-189.69 769.15,-196.46"/>
</g>
<!-- Node27 -->
<g id="node27" class="node">
<title>Node27</title>
<g id="a_node27"><a xlink:href="____osSiCreateAccessQueue_8c.html#aa6dbd69637149484f5fad08232892b50" target="_top" xlink:title=" ">
<polygon fill="white" stroke="black" points="939,-285.5 939,-304.5 1036,-304.5 1036,-285.5 939,-285.5"/>
<text text-anchor="middle" x="987.5" y="-292.5" font-family="Helvetica,sans-Serif" font-size="10.00">__osSiRelAccess</text>
</a>
</g>
</g>
<!-- Node8&#45;&gt;Node27 -->
<g id="edge37" class="edge">
<title>Node8&#45;&gt;Node27</title>
<path fill="none" stroke="midnightblue" d="M679.96,-228.75C694.3,-242.1 722.22,-265.6 751,-276 808.98,-296.96 880.06,-299.86 928.87,-298.68"/>
<polygon fill="midnightblue" stroke="midnightblue" points="929.05,-302.17 938.94,-298.37 928.83,-295.18 929.05,-302.17"/>
</g>
<!-- Node9&#45;&gt;Node10 -->
<g id="edge9" class="edge">
<title>Node9&#45;&gt;Node10</title>
<path fill="none" stroke="midnightblue" d="M858.5,-226.49C865.91,-229.22 873.11,-232.93 879,-238 907.33,-262.38 886.27,-290.09 915,-314 917.03,-315.69 919.2,-317.23 921.46,-318.63"/>
<polygon fill="midnightblue" stroke="midnightblue" points="920.14,-321.89 930.62,-323.41 923.37,-315.68 920.14,-321.89"/>
</g>
<!-- Node9&#45;&gt;Node14 -->
<g id="edge13" class="edge">
<title>Node9&#45;&gt;Node14</title>
<path fill="none" stroke="midnightblue" d="M858.83,-215.44C907.61,-211.23 989.66,-203.69 1060,-195 1074.76,-193.18 1090.78,-190.9 1105.34,-188.72"/>
<polygon fill="midnightblue" stroke="midnightblue" points="1106.28,-192.12 1115.64,-187.15 1105.23,-185.2 1106.28,-192.12"/>
</g>
<!-- Node11 -->
<g id="node11" class="node">
<title>Node11</title>
<g id="a_node11"><a xlink:href="____osSiDeviceBusy_8c.html#ad812ec86e9d0b5929797407de1b3ecbc" target="_top" xlink:title=" ">
<polygon fill="white" stroke="black" points="1102.5,-361.5 1102.5,-380.5 1207.5,-380.5 1207.5,-361.5 1102.5,-361.5"/>
<text text-anchor="middle" x="1155" y="-368.5" font-family="Helvetica,sans-Serif" font-size="10.00">__osSiDeviceBusy</text>
</a>
</g>
</g>
<!-- Node10&#45;&gt;Node11 -->
<g id="edge10" class="edge">
<title>Node10&#45;&gt;Node11</title>
<path fill="none" stroke="midnightblue" d="M1030.26,-342.59C1052.2,-347.63 1079.28,-353.84 1102.51,-359.18"/>
<polygon fill="midnightblue" stroke="midnightblue" points="1102.01,-362.65 1112.54,-361.48 1103.57,-355.83 1102.01,-362.65"/>
</g>
<!-- Node12 -->
<g id="node12" class="node">
<title>Node12</title>
<g id="a_node12"><a xlink:href="osVirtualToPhysical_8c.html#a87fb0b956b8effcecdf9585577895570" target="_top" xlink:title=" ">
<polygon fill="white" stroke="black" points="1099.5,-323.5 1099.5,-342.5 1210.5,-342.5 1210.5,-323.5 1099.5,-323.5"/>
<text text-anchor="middle" x="1155" y="-330.5" font-family="Helvetica,sans-Serif" font-size="10.00">osVirtualToPhysical</text>
</a>
</g>
</g>
<!-- Node10&#45;&gt;Node12 -->
<g id="edge11" class="edge">
<title>Node10&#45;&gt;Node12</title>
<path fill="none" stroke="midnightblue" d="M1045.46,-333C1059.53,-333 1074.7,-333 1089.12,-333"/>
<polygon fill="midnightblue" stroke="midnightblue" points="1089.45,-336.5 1099.45,-333 1089.45,-329.5 1089.45,-336.5"/>
</g>
<!-- Node13 -->
<g id="node13" class="node">
<title>Node13</title>
<g id="a_node13"><a xlink:href="libultra__internal_8h.html#a4f7c83166c9481713d4b56defd0888c7" target="_top" xlink:title=" ">
<polygon fill="white" stroke="black" points="1257.5,-437.5 1257.5,-456.5 1341.5,-456.5 1341.5,-437.5 1257.5,-437.5"/>
<text text-anchor="middle" x="1299.5" y="-444.5" font-family="Helvetica,sans-Serif" font-size="10.00">__osProbeTLB</text>
</a>
</g>
</g>
<!-- Node12&#45;&gt;Node13 -->
<g id="edge12" class="edge">
<title>Node12&#45;&gt;Node13</title>
<path fill="none" stroke="midnightblue" d="M1198.64,-342.6C1204.19,-345.05 1209.5,-348.14 1214,-352 1240.85,-375.04 1224.86,-398.1 1250,-423 1253.7,-426.67 1258.08,-429.87 1262.66,-432.64"/>
<polygon fill="midnightblue" stroke="midnightblue" points="1261.13,-435.79 1271.6,-437.44 1264.44,-429.63 1261.13,-435.79"/>
</g>
<!-- Node15 -->
<g id="node15" class="node">
<title>Node15</title>
<g id="a_node15"><a xlink:href="libultra__internal_8h.html#a8ad9db8aa6bfc4437abdd0363b663b16" target="_top" xlink:title=" ">
<polygon fill="white" stroke="black" points="1402.5,-162.5 1402.5,-181.5 1490.5,-181.5 1490.5,-162.5 1402.5,-162.5"/>
<text text-anchor="middle" x="1446.5" y="-169.5" font-family="Helvetica,sans-Serif" font-size="10.00">__osDisableInt</text>
</a>
</g>
</g>
<!-- Node14&#45;&gt;Node15 -->
<g id="edge14" class="edge">
<title>Node14&#45;&gt;Node15</title>
<path fill="none" stroke="midnightblue" d="M1194.14,-179.81C1244.73,-178.24 1334.31,-175.46 1391.74,-173.67"/>
<polygon fill="midnightblue" stroke="midnightblue" points="1392.19,-177.16 1402.07,-173.35 1391.97,-170.16 1392.19,-177.16"/>
</g>
<!-- Node16 -->
<g id="node16" class="node">
<title>Node16</title>
<g id="a_node16"><a xlink:href="libultra__internal_8h.html#afe9c3abc4ca93d9fe18a87d9f108d5cb" target="_top" xlink:title=" ">
<polygon fill="white" stroke="black" points="1385,-323.5 1385,-342.5 1508,-342.5 1508,-323.5 1385,-323.5"/>
<text text-anchor="middle" x="1446.5" y="-330.5" font-family="Helvetica,sans-Serif" font-size="10.00">__osEnqueueAndYield</text>
</a>
</g>
</g>
<!-- Node14&#45;&gt;Node16 -->
<g id="edge15" class="edge">
<title>Node14&#45;&gt;Node16</title>
<path fill="none" stroke="midnightblue" d="M1176.45,-190.54C1188.69,-197.1 1203.79,-206.82 1214,-219 1240.1,-250.12 1217.89,-278.13 1250,-303 1285.04,-330.14 1334.43,-337.54 1374.81,-338.21"/>
<polygon fill="midnightblue" stroke="midnightblue" points="1374.85,-341.71 1384.87,-338.24 1374.88,-334.71 1374.85,-341.71"/>
</g>
<!-- Node17 -->
<g id="node17" class="node">
<title>Node17</title>
<g id="a_node17"><a xlink:href="libultra__internal_8h.html#a82b6b8e6a4311b516950168ef4078e33" target="_top" xlink:title=" ">
<polygon fill="white" stroke="black" points="1401.5,-285.5 1401.5,-304.5 1491.5,-304.5 1491.5,-285.5 1401.5,-285.5"/>
<text text-anchor="middle" x="1446.5" y="-292.5" font-family="Helvetica,sans-Serif" font-size="10.00">__osPopThread</text>
</a>
</g>
</g>
<!-- Node14&#45;&gt;Node17 -->
<g id="edge16" class="edge">
<title>Node14&#45;&gt;Node17</title>
<path fill="none" stroke="midnightblue" d="M1174.72,-190.53C1186.87,-197.33 1202.52,-207.33 1214,-219 1235.01,-240.36 1224.49,-260.28 1250,-276 1292.15,-301.97 1349.38,-304.59 1391.02,-302"/>
<polygon fill="midnightblue" stroke="midnightblue" points="1391.54,-305.47 1401.25,-301.24 1391.02,-298.49 1391.54,-305.47"/>
</g>
<!-- Node18 -->
<g id="node18" class="node">
<title>Node18</title>
<g id="a_node18"><a xlink:href="libultra__internal_8h.html#aecafa57b85fd739d6033705808194def" target="_top" xlink:title=" ">
<polygon fill="white" stroke="black" points="1402,-105.5 1402,-124.5 1491,-124.5 1491,-105.5 1402,-105.5"/>
<text text-anchor="middle" x="1446.5" y="-112.5" font-family="Helvetica,sans-Serif" font-size="10.00">__osRestoreInt</text>
</a>
</g>
</g>
<!-- Node14&#45;&gt;Node18 -->
<g id="edge17" class="edge">
<title>Node14&#45;&gt;Node18</title>
<path fill="none" stroke="midnightblue" d="M1194.14,-172.3C1245.27,-160.65 1336.22,-139.91 1393.57,-126.84"/>
<polygon fill="midnightblue" stroke="midnightblue" points="1394.54,-130.21 1403.51,-124.57 1392.99,-123.38 1394.54,-130.21"/>
</g>
<!-- Node19 -->
<g id="node19" class="node">
<title>Node19</title>
<g id="a_node19"><a xlink:href="osStartThread_8c.html#a3b144e814933e16a2fbf2642ad098ed3" target="_top" xlink:title=" ">
<polygon fill="white" stroke="black" points="1257,-247.5 1257,-266.5 1342,-266.5 1342,-247.5 1257,-247.5"/>
<text text-anchor="middle" x="1299.5" y="-254.5" font-family="Helvetica,sans-Serif" font-size="10.00">osStartThread</text>
</a>
</g>
</g>
<!-- Node14&#45;&gt;Node19 -->
<g id="edge18" class="edge">
<title>Node14&#45;&gt;Node19</title>
<path fill="none" stroke="midnightblue" d="M1174.05,-190.63C1198.67,-203.76 1243,-227.4 1271.57,-242.64"/>
<polygon fill="midnightblue" stroke="midnightblue" points="1270.13,-245.84 1280.6,-247.45 1273.42,-239.66 1270.13,-245.84"/>
</g>
<!-- Node19&#45;&gt;Node15 -->
<g id="edge19" class="edge">
<title>Node19&#45;&gt;Node15</title>
<path fill="none" stroke="midnightblue" d="M1323.46,-247.27C1331.79,-243.33 1341.1,-238.42 1349,-233 1366.91,-220.73 1366.94,-212.03 1385,-200 1393.06,-194.63 1402.32,-189.77 1411.13,-185.68"/>
<polygon fill="midnightblue" stroke="midnightblue" points="1412.73,-188.8 1420.44,-181.54 1409.88,-182.4 1412.73,-188.8"/>
</g>
<!-- Node19&#45;&gt;Node16 -->
<g id="edge21" class="edge">
<title>Node19&#45;&gt;Node16</title>
<path fill="none" stroke="midnightblue" d="M1312.42,-266.69C1328.19,-279.11 1357.26,-300.64 1385,-314 1389.59,-316.21 1394.51,-318.25 1399.47,-320.09"/>
<polygon fill="midnightblue" stroke="midnightblue" points="1398.42,-323.43 1409.01,-323.41 1400.72,-316.82 1398.42,-323.43"/>
</g>
<!-- Node19&#45;&gt;Node17 -->
<g id="edge23" class="edge">
<title>Node19&#45;&gt;Node17</title>
<path fill="none" stroke="midnightblue" d="M1337.09,-266.59C1355.97,-271.54 1379.19,-277.62 1399.29,-282.89"/>
<polygon fill="midnightblue" stroke="midnightblue" points="1398.61,-286.33 1409.17,-285.48 1400.39,-279.56 1398.61,-286.33"/>
</g>
<!-- Node19&#45;&gt;Node18 -->
<g id="edge24" class="edge">
<title>Node19&#45;&gt;Node18</title>
<path fill="none" stroke="midnightblue" d="M1308.16,-247.2C1327.26,-222.84 1376.07,-160.9 1385,-153 1395.01,-144.14 1407.32,-136 1418.22,-129.55"/>
<polygon fill="midnightblue" stroke="midnightblue" points="1420.02,-132.55 1426.96,-124.55 1416.54,-126.48 1420.02,-132.55"/>
</g>
<!-- Node20 -->
<g id="node20" class="node">
<title>Node20</title>
<g id="a_node20"><a xlink:href="libultra__internal_8h.html#a650b788ebd5efde9c8cbccc1ee832445" target="_top" xlink:title=" ">
<polygon fill="white" stroke="black" points="1389,-247.5 1389,-266.5 1504,-266.5 1504,-247.5 1389,-247.5"/>
<text text-anchor="middle" x="1446.5" y="-254.5" font-family="Helvetica,sans-Serif" font-size="10.00">__osDispatchThread</text>
</a>
</g>
</g>
<!-- Node19&#45;&gt;Node20 -->
<g id="edge20" class="edge">
<title>Node19&#45;&gt;Node20</title>
<path fill="none" stroke="midnightblue" d="M1342.05,-257C1353.43,-257 1366.05,-257 1378.47,-257"/>
<polygon fill="midnightblue" stroke="midnightblue" points="1378.81,-260.5 1388.81,-257 1378.81,-253.5 1378.81,-260.5"/>
</g>
<!-- Node21 -->
<g id="node21" class="node">
<title>Node21</title>
<g id="a_node21"><a xlink:href="libultra__internal_8h.html#ac9d6cfd19de5565e74f1d74a14e9092d" target="_top" xlink:title=" ">
<polygon fill="white" stroke="black" points="1389.5,-209.5 1389.5,-228.5 1503.5,-228.5 1503.5,-209.5 1389.5,-209.5"/>
<text text-anchor="middle" x="1446.5" y="-216.5" font-family="Helvetica,sans-Serif" font-size="10.00">__osEnqueueThread</text>
</a>
</g>
</g>
<!-- Node19&#45;&gt;Node21 -->
<g id="edge22" class="edge">
<title>Node19&#45;&gt;Node21</title>
<path fill="none" stroke="midnightblue" d="M1337.09,-247.41C1355.97,-242.46 1379.19,-236.38 1399.29,-231.11"/>
<polygon fill="midnightblue" stroke="midnightblue" points="1400.39,-234.44 1409.17,-228.52 1398.61,-227.67 1400.39,-234.44"/>
</g>
<!-- Node23&#45;&gt;Node14 -->
<g id="edge35" class="edge">
<title>Node23&#45;&gt;Node14</title>
<path fill="none" stroke="midnightblue" d="M864.07,-181C928.21,-181 1041.14,-181 1105.5,-181"/>
<polygon fill="midnightblue" stroke="midnightblue" points="1105.78,-184.5 1115.78,-181 1105.78,-177.5 1105.78,-184.5"/>
</g>
<!-- Node24 -->
<g id="node24" class="node">
<title>Node24</title>
<g id="a_node24"><a xlink:href="____osSiCreateAccessQueue_8c.html#a7520cad725d80a88735d29f75a3de94a" target="_top" xlink:title=" ">
<polygon fill="white" stroke="black" points="915,-247.5 915,-266.5 1060,-266.5 1060,-247.5 915,-247.5"/>
<text text-anchor="middle" x="987.5" y="-254.5" font-family="Helvetica,sans-Serif" font-size="10.00">__osSiCreateAccessQueue</text>
</a>
</g>
</g>
<!-- Node23&#45;&gt;Node24 -->
<g id="edge27" class="edge">
<title>Node23&#45;&gt;Node24</title>
<path fill="none" stroke="midnightblue" d="M852.07,-190.56C860.99,-193.29 870.44,-196.48 879,-200 908.44,-212.11 940.47,-229.71 961.84,-242.15"/>
<polygon fill="midnightblue" stroke="midnightblue" points="960.19,-245.24 970.59,-247.29 963.74,-239.21 960.19,-245.24"/>
</g>
<!-- Node25 -->
<g id="node25" class="node">
<title>Node25</title>
<g id="a_node25"><a xlink:href="osCreateMesgQueue_8c.html#aab783cab54141cb60618b45f534104b9" target="_top" xlink:title=" ">
<polygon fill="white" stroke="black" points="1096,-228.5 1096,-247.5 1214,-247.5 1214,-228.5 1096,-228.5"/>
<text text-anchor="middle" x="1155" y="-235.5" font-family="Helvetica,sans-Serif" font-size="10.00">osCreateMesgQueue</text>
</a>
</g>
</g>
<!-- Node24&#45;&gt;Node25 -->
<g id="edge28" class="edge">
<title>Node24&#45;&gt;Node25</title>
<path fill="none" stroke="midnightblue" d="M1060.13,-248.78C1068.64,-247.8 1077.31,-246.8 1085.76,-245.83"/>
<polygon fill="midnightblue" stroke="midnightblue" points="1086.42,-249.28 1095.96,-244.66 1085.62,-242.33 1086.42,-249.28"/>
</g>
<!-- Node26 -->
<g id="node26" class="node">
<title>Node26</title>
<g id="a_node26"><a xlink:href="osSendMesg_8c.html#a413bd1b0a16c54dcc9e59c48b3d7f142" target="_top" xlink:title=" ">
<polygon fill="white" stroke="black" points="1116,-266.5 1116,-285.5 1194,-285.5 1194,-266.5 1116,-266.5"/>
<text text-anchor="middle" x="1155" y="-273.5" font-family="Helvetica,sans-Serif" font-size="10.00">osSendMesg</text>
</a>
</g>
</g>
<!-- Node24&#45;&gt;Node26 -->
<g id="edge29" class="edge">
<title>Node24&#45;&gt;Node26</title>
<path fill="none" stroke="midnightblue" d="M1060.13,-265.22C1075.59,-267 1091.59,-268.83 1105.89,-270.48"/>
<polygon fill="midnightblue" stroke="midnightblue" points="1105.65,-273.97 1115.98,-271.64 1106.45,-267.02 1105.65,-273.97"/>
</g>
<!-- Node26&#45;&gt;Node15 -->
<g id="edge30" class="edge">
<title>Node26&#45;&gt;Node15</title>
<path fill="none" stroke="midnightblue" d="M1188.57,-266.4C1196.96,-263.64 1205.9,-260.43 1214,-257 1230.66,-249.94 1233.38,-245.14 1250,-238 1301.13,-216.04 1362.19,-196.43 1402.31,-184.4"/>
<polygon fill="midnightblue" stroke="midnightblue" points="1403.45,-187.72 1412.03,-181.51 1401.45,-181.01 1403.45,-187.72"/>
</g>
<!-- Node26&#45;&gt;Node16 -->
<g id="edge31" class="edge">
<title>Node26&#45;&gt;Node16</title>
<path fill="none" stroke="midnightblue" d="M1169.53,-285.52C1187.12,-297.3 1219.24,-316.79 1250,-325 1290.2,-335.72 1336.69,-338.02 1374.24,-337.49"/>
<polygon fill="midnightblue" stroke="midnightblue" points="1374.66,-340.99 1384.58,-337.28 1374.51,-333.99 1374.66,-340.99"/>
</g>
<!-- Node26&#45;&gt;Node17 -->
<g id="edge32" class="edge">
<title>Node26&#45;&gt;Node17</title>
<path fill="none" stroke="midnightblue" d="M1176.74,-285.57C1195.43,-293.63 1223.91,-304.55 1250,-309 1297.37,-317.07 1351.96,-311.98 1391.4,-305.79"/>
<polygon fill="midnightblue" stroke="midnightblue" points="1392.04,-309.23 1401.34,-304.16 1390.9,-302.32 1392.04,-309.23"/>
</g>
<!-- Node26&#45;&gt;Node18 -->
<g id="edge33" class="edge">
<title>Node26&#45;&gt;Node18</title>
<path fill="none" stroke="midnightblue" d="M1194.15,-267.78C1201.21,-265.11 1208.19,-261.6 1214,-257 1238.08,-237.93 1226.23,-217.45 1250,-198 1286.23,-168.35 1305.9,-180.28 1349,-162 1372.78,-151.92 1399.09,-138.98 1418.23,-129.23"/>
<polygon fill="midnightblue" stroke="midnightblue" points="1419.97,-132.27 1427.26,-124.59 1416.77,-126.04 1419.97,-132.27"/>
</g>
<!-- Node26&#45;&gt;Node19 -->
<g id="edge34" class="edge">
<title>Node26&#45;&gt;Node19</title>
<path fill="none" stroke="midnightblue" d="M1194.19,-270.91C1210.38,-268.75 1229.51,-266.2 1246.93,-263.88"/>
<polygon fill="midnightblue" stroke="midnightblue" points="1247.5,-267.33 1256.95,-262.54 1246.58,-260.39 1247.5,-267.33"/>
</g>
<!-- Node27&#45;&gt;Node26 -->
<g id="edge38" class="edge">
<title>Node27&#45;&gt;Node26</title>
<path fill="none" stroke="midnightblue" d="M1036.37,-289.5C1058.21,-287 1084.02,-284.03 1105.89,-281.52"/>
<polygon fill="midnightblue" stroke="midnightblue" points="1106.41,-284.99 1115.95,-280.37 1105.61,-278.03 1106.41,-284.99"/>
</g>
<!-- Node29 -->
<g id="node29" class="node">
<title>Node29</title>
<g id="a_node29"><a xlink:href="osSetTimer_8c.html#a9886ad7553ac8a105022fe706777fb6f" target="_top" xlink:title=" ">
<polygon fill="white" stroke="black" points="1252,-57.5 1252,-76.5 1347,-76.5 1347,-57.5 1252,-57.5"/>
<text text-anchor="middle" x="1299.5" y="-64.5" font-family="Helvetica,sans-Serif" font-size="10.00">__osInsertTimer</text>
</a>
</g>
</g>
<!-- Node28&#45;&gt;Node29 -->
<g id="edge42" class="edge">
<title>Node28&#45;&gt;Node29</title>
<path fill="none" stroke="midnightblue" d="M1191.22,-67C1206.38,-67 1224.48,-67 1241.46,-67"/>
<polygon fill="midnightblue" stroke="midnightblue" points="1241.85,-70.5 1251.85,-67 1241.85,-63.5 1241.85,-70.5"/>
</g>
<!-- Node30 -->
<g id="node30" class="node">
<title>Node30</title>
<g id="a_node30"><a xlink:href="libultra__internal_8h.html#a48dd5f093b2a9727fdd916202a915978" target="_top" xlink:title=" ">
<polygon fill="white" stroke="black" points="1250,-19.5 1250,-38.5 1349,-38.5 1349,-19.5 1250,-19.5"/>
<text text-anchor="middle" x="1299.5" y="-26.5" font-family="Helvetica,sans-Serif" font-size="10.00">__osSetTimerIntr</text>
</a>
</g>
</g>
<!-- Node28&#45;&gt;Node30 -->
<g id="edge43" class="edge">
<title>Node28&#45;&gt;Node30</title>
<path fill="none" stroke="midnightblue" d="M1191.22,-57.61C1209.84,-52.64 1232.9,-46.49 1252.87,-41.17"/>
<polygon fill="midnightblue" stroke="midnightblue" points="1253.93,-44.51 1262.69,-38.55 1252.13,-37.74 1253.93,-44.51"/>
</g>
<!-- Node30&#45;&gt;Node15 -->
<g id="edge44" class="edge">
<title>Node30&#45;&gt;Node15</title>
<path fill="none" stroke="midnightblue" d="M1335.43,-38.69C1340.39,-41.15 1345.12,-44.21 1349,-48 1378.64,-76.96 1358.2,-102.39 1385,-134 1393.06,-143.51 1404.13,-151.41 1414.59,-157.5"/>
<polygon fill="midnightblue" stroke="midnightblue" points="1413.08,-160.67 1423.54,-162.38 1416.43,-154.52 1413.08,-160.67"/>
</g>
<!-- Node30&#45;&gt;Node18 -->
<g id="edge45" class="edge">
<title>Node30&#45;&gt;Node18</title>
<path fill="none" stroke="midnightblue" d="M1328.19,-38.56C1335.13,-41.31 1342.46,-44.51 1349,-48 1377.09,-62.99 1406.8,-84.61 1425.71,-99.2"/>
<polygon fill="midnightblue" stroke="midnightblue" points="1423.56,-101.96 1433.6,-105.36 1427.87,-96.45 1423.56,-101.96"/>
</g>
<!-- Node31 -->
<g id="node31" class="node">
<title>Node31</title>
<g id="a_node31"><a xlink:href="libultra__internal_8h.html#a690cad10244bbcfa0cc27e601a642c2f" target="_top" xlink:title=" ">
<polygon fill="white" stroke="black" points="1397.5,-38.5 1397.5,-57.5 1495.5,-57.5 1495.5,-38.5 1397.5,-38.5"/>
<text text-anchor="middle" x="1446.5" y="-45.5" font-family="Helvetica,sans-Serif" font-size="10.00">__osSetCompare</text>
</a>
</g>
</g>
<!-- Node30&#45;&gt;Node31 -->
<g id="edge46" class="edge">
<title>Node30&#45;&gt;Node31</title>
<path fill="none" stroke="midnightblue" d="M1349.19,-35.38C1361.39,-36.98 1374.61,-38.71 1387.23,-40.36"/>
<polygon fill="midnightblue" stroke="midnightblue" points="1386.82,-43.84 1397.19,-41.67 1387.73,-36.9 1386.82,-43.84"/>
</g>
<!-- Node32 -->
<g id="node32" class="node">
<title>Node32</title>
<g id="a_node32"><a xlink:href="os__misc_8h.html#ade84d2da5a97b7796811e6c1f7cb7bc1" target="_top" xlink:title=" ">
<polygon fill="white" stroke="black" points="1409.5,-0.5 1409.5,-19.5 1483.5,-19.5 1483.5,-0.5 1409.5,-0.5"/>
<text text-anchor="middle" x="1446.5" y="-7.5" font-family="Helvetica,sans-Serif" font-size="10.00">osGetCount</text>
</a>
</g>
</g>
<!-- Node30&#45;&gt;Node32 -->
<g id="edge47" class="edge">
<title>Node30&#45;&gt;Node32</title>
<path fill="none" stroke="midnightblue" d="M1349.19,-22.62C1365.25,-20.52 1383.07,-18.18 1398.96,-16.1"/>
<polygon fill="midnightblue" stroke="midnightblue" points="1399.64,-19.54 1409.1,-14.77 1398.73,-12.6 1399.64,-19.54"/>
</g>
</g>
</svg>
