<?xml version="1.0" encoding="UTF-8" standalone="no"?>
<!DOCTYPE svg PUBLIC "-//W3C//DTD SVG 1.1//EN"
 "http://www.w3.org/Graphics/SVG/1.1/DTD/svg11.dtd">
<!-- Generated by graphviz version 2.43.0 (0)
 -->
<!-- Title: func_80086FD4 Pages: 1 -->
<!--zoomable 1168 -->
<svg id="main" version="1.1" xmlns="http://www.w3.org/2000/svg" xmlns:xlink="http://www.w3.org/1999/xlink" xml:space="preserve" onload="init(evt)">
<style type="text/css"><![CDATA[
.edge:hover path { stroke: red; }
.edge:hover polygon { stroke: red; fill: red; }
]]></style>
<script type="text/javascript"><![CDATA[
var edges = document.getElementsByTagName('g');
if (edges && edges.length) {
  for (var i=0;i<edges.length;i++) {
    if (edges[i].id.substr(0,4)=='edge') {
      edges[i].setAttribute('class','edge');
    }
  }
}
]]></script>
        <defs>
                <circle id="rim" cx="0" cy="0" r="7"/>
                <circle id="rim2" cx="0" cy="0" r="3.5"/>
                <g id="zoomPlus">
                        <use xlink:href="#rim" fill="#404040">
                                <set attributeName="fill" to="#808080" begin="zoomplus.mouseover" end="zoomplus.mouseout"/>
                        </use>
                        <path d="M-4,0h8M0,-4v8" fill="none" stroke="white" stroke-width="1.5" pointer-events="none"/>
                </g>
                <g id="zoomMin">
                        <use xlink:href="#rim" fill="#404040">
                                <set attributeName="fill" to="#808080" begin="zoomminus.mouseover" end="zoomminus.mouseout"/>
                        </use>
                        <path d="M-4,0h8" fill="none" stroke="white" stroke-width="1.5" pointer-events="none"/>
                </g>
                <g id="dirArrow">
                        <path fill="none" stroke="white" stroke-width="1.5" d="M0,-3.0v7 M-2.5,-0.5L0,-3.0L2.5,-0.5"/>
                </g>
               <g id="resetDef">
                       <use xlink:href="#rim2" fill="#404040">
                               <set attributeName="fill" to="#808080" begin="reset.mouseover" end="reset.mouseout"/>
                       </use>
               </g>
        </defs>

<script type="text/javascript">
var viewWidth = 612;
var viewHeight = 1168;
var sectionId = 'dynsection-15';
</script>
<script xlink:href="svgpan.js"/>
<svg id="graph" class="graph">
<g id="viewport">
<title>func_80086FD4</title>
<polygon fill="white" stroke="transparent" points="-4,4 -4,-1164 608,-1164 608,4 -4,4"/>
<!-- Node1 -->
<g id="node1" class="node">
<title>Node1</title>
<g id="a_node1"><a xlink:title=" ">
<polygon fill="#bfbfbf" stroke="black" points="512,-570.5 512,-589.5 604,-589.5 604,-570.5 512,-570.5"/>
<text text-anchor="middle" x="558" y="-577.5" font-family="Helvetica,sans-Serif" font-size="10.00">func_80086FD4</text>
</a>
</g>
</g>
<!-- Node2 -->
<g id="node2" class="node">
<title>Node2</title>
<g id="a_node2"><a xlink:href="code__80071F00_8c.html#ac48a979478f2a7131c47f32dd3b76f7d" target="_top" xlink:title=" ">
<polygon fill="white" stroke="black" points="384,-1102.5 384,-1121.5 475,-1121.5 475,-1102.5 384,-1102.5"/>
<text text-anchor="middle" x="429.5" y="-1109.5" font-family="Helvetica,sans-Serif" font-size="10.00">func_80076538</text>
</a>
</g>
</g>
<!-- Node1&#45;&gt;Node2 -->
<g id="edge1" class="edge">
<title>Node1&#45;&gt;Node2</title>
<path fill="none" stroke="midnightblue" d="M556.4,-599.71C553.44,-684.06 538.04,-1014.03 476,-1093 472.93,-1096.9 468.92,-1100.01 464.55,-1102.49"/>
<polygon fill="midnightblue" stroke="midnightblue" points="559.89,-599.79 556.73,-589.68 552.9,-599.56 559.89,-599.79"/>
</g>
<!-- Node16 -->
<g id="node4" class="node">
<title>Node16</title>
<g id="a_node4"><a xlink:href="code__80071F00_8c.html#a2c0e14b26c2ae4a663564f8f64c4d17a" target="_top" xlink:title=" ">
<polygon fill="white" stroke="black" points="383.5,-1140.5 383.5,-1159.5 475.5,-1159.5 475.5,-1140.5 383.5,-1140.5"/>
<text text-anchor="middle" x="429.5" y="-1147.5" font-family="Helvetica,sans-Serif" font-size="10.00">func_80076AEC</text>
</a>
</g>
</g>
<!-- Node1&#45;&gt;Node16 -->
<g id="edge3" class="edge">
<title>Node1&#45;&gt;Node16</title>
<path fill="none" stroke="midnightblue" d="M556.63,-599.73C554.62,-687.94 542.43,-1045.51 476,-1131 473.06,-1134.79 469.23,-1137.82 465.03,-1140.26"/>
<polygon fill="midnightblue" stroke="midnightblue" points="560.14,-599.6 556.85,-589.53 553.14,-599.45 560.14,-599.6"/>
</g>
<!-- Node17 -->
<g id="node5" class="node">
<title>Node17</title>
<g id="a_node5"><a xlink:href="code__80071F00_8c.html#a227202c37721f87ab26a4209cb8e51cc" target="_top" xlink:title=" ">
<polygon fill="white" stroke="black" points="383.5,-1064.5 383.5,-1083.5 475.5,-1083.5 475.5,-1064.5 383.5,-1064.5"/>
<text text-anchor="middle" x="429.5" y="-1071.5" font-family="Helvetica,sans-Serif" font-size="10.00">func_80076ED8</text>
</a>
</g>
</g>
<!-- Node1&#45;&gt;Node17 -->
<g id="edge5" class="edge">
<title>Node1&#45;&gt;Node17</title>
<path fill="none" stroke="midnightblue" d="M556.11,-600.01C552.12,-680.88 533.59,-982.62 476,-1055 472.91,-1058.89 468.88,-1061.99 464.5,-1064.46"/>
<polygon fill="midnightblue" stroke="midnightblue" points="559.62,-599.89 556.59,-589.74 552.62,-599.56 559.62,-599.89"/>
</g>
<!-- Node19 -->
<g id="node7" class="node">
<title>Node19</title>
<g id="a_node7"><a xlink:href="code__80071F00_8c.html#a4e85b61ec3cf15a6827d0d67c2f07b1e" target="_top" xlink:title=" ">
<polygon fill="white" stroke="black" points="384,-1026.5 384,-1045.5 475,-1045.5 475,-1026.5 384,-1026.5"/>
<text text-anchor="middle" x="429.5" y="-1033.5" font-family="Helvetica,sans-Serif" font-size="10.00">func_80077F64</text>
</a>
</g>
</g>
<!-- Node1&#45;&gt;Node19 -->
<g id="edge7" class="edge">
<title>Node1&#45;&gt;Node19</title>
<path fill="none" stroke="midnightblue" d="M555.79,-599.87C550.76,-676.39 529.25,-951.05 476,-1017 472.88,-1020.86 468.84,-1023.95 464.45,-1026.42"/>
<polygon fill="midnightblue" stroke="midnightblue" points="559.29,-599.91 556.44,-589.7 552.31,-599.46 559.29,-599.91"/>
</g>
<!-- Node23 -->
<g id="node9" class="node">
<title>Node23</title>
<g id="a_node9"><a xlink:href="code__80071F00_8c.html#a3be1995862278cf310334b57e7ce3b62" target="_top" xlink:title=" ">
<polygon fill="white" stroke="black" points="384,-988.5 384,-1007.5 475,-1007.5 475,-988.5 384,-988.5"/>
<text text-anchor="middle" x="429.5" y="-995.5" font-family="Helvetica,sans-Serif" font-size="10.00">func_80078288</text>
</a>
</g>
</g>
<!-- Node1&#45;&gt;Node23 -->
<g id="edge9" class="edge">
<title>Node1&#45;&gt;Node23</title>
<path fill="none" stroke="midnightblue" d="M555.4,-599.96C549.23,-672.28 524.88,-919.5 476,-979 472.85,-982.84 468.79,-985.91 464.4,-988.37"/>
<polygon fill="midnightblue" stroke="midnightblue" points="558.92,-599.82 556.26,-589.57 551.94,-599.24 558.92,-599.82"/>
</g>
<!-- Node26 -->
<g id="node11" class="node">
<title>Node26</title>
<g id="a_node11"><a xlink:href="code__80071F00_8c.html#a1d6e48f2d3c6aaa4a934037fa53063ed" target="_top" xlink:title=" ">
<polygon fill="white" stroke="black" points="383.5,-950.5 383.5,-969.5 475.5,-969.5 475.5,-950.5 383.5,-950.5"/>
<text text-anchor="middle" x="429.5" y="-957.5" font-family="Helvetica,sans-Serif" font-size="10.00">func_80079A5C</text>
</a>
</g>
</g>
<!-- Node1&#45;&gt;Node26 -->
<g id="edge11" class="edge">
<title>Node1&#45;&gt;Node26</title>
<path fill="none" stroke="midnightblue" d="M554.69,-599.81C546.56,-666.52 517.59,-881.81 476,-936 471.32,-942.09 464.65,-946.8 457.86,-950.37"/>
<polygon fill="midnightblue" stroke="midnightblue" points="558.17,-600.13 555.88,-589.79 551.22,-599.3 558.17,-600.13"/>
</g>
<!-- Node32 -->
<g id="node14" class="node">
<title>Node32</title>
<g id="a_node14"><a xlink:href="code__80071F00_8c.html#a60952a2c4e05466b7178753f8344b675" target="_top" xlink:title=" ">
<polygon fill="white" stroke="black" points="255,-779.5 255,-798.5 347,-798.5 347,-779.5 255,-779.5"/>
<text text-anchor="middle" x="301" y="-786.5" font-family="Helvetica,sans-Serif" font-size="10.00">func_8007BFB0</text>
</a>
</g>
</g>
<!-- Node1&#45;&gt;Node32 -->
<g id="edge14" class="edge">
<title>Node1&#45;&gt;Node32</title>
<path fill="none" stroke="midnightblue" d="M556.25,-599.83C553.42,-643.02 539.95,-745.2 476,-789 433.26,-818.28 369.69,-808.33 332.39,-798.57"/>
<polygon fill="midnightblue" stroke="midnightblue" points="559.75,-599.92 556.78,-589.75 552.76,-599.55 559.75,-599.92"/>
</g>
<!-- Node35 -->
<g id="node16" class="node">
<title>Node35</title>
<g id="a_node16"><a xlink:href="code__80071F00_8c.html#af180c278fb774f68d11af771896034ca" target="_top" xlink:title=" ">
<polygon fill="white" stroke="black" points="383.5,-380.5 383.5,-399.5 475.5,-399.5 475.5,-380.5 383.5,-380.5"/>
<text text-anchor="middle" x="429.5" y="-387.5" font-family="Helvetica,sans-Serif" font-size="10.00">func_8007EFBC</text>
</a>
</g>
</g>
<!-- Node1&#45;&gt;Node35 -->
<g id="edge16" class="edge">
<title>Node1&#45;&gt;Node35</title>
<path fill="none" stroke="midnightblue" d="M552.68,-560.57C544,-525.72 521.25,-452.18 476,-409 472.04,-405.22 467.21,-402.14 462.2,-399.65"/>
<polygon fill="midnightblue" stroke="midnightblue" points="549.31,-561.52 555.02,-570.44 556.12,-559.9 549.31,-561.52"/>
</g>
<!-- Node37 -->
<g id="node18" class="node">
<title>Node37</title>
<g id="a_node18"><a xlink:href="code__80071F00_8c.html#a959f14e28be6bc4b2ef643c91933118d" target="_top" xlink:title=" ">
<polygon fill="white" stroke="black" points="127,-456.5 127,-475.5 219,-475.5 219,-456.5 127,-456.5"/>
<text text-anchor="middle" x="173" y="-463.5" font-family="Helvetica,sans-Serif" font-size="10.00">func_8007F5A8</text>
</a>
</g>
</g>
<!-- Node1&#45;&gt;Node37 -->
<g id="edge22" class="edge">
<title>Node1&#45;&gt;Node37</title>
<path fill="none" stroke="midnightblue" d="M547.24,-561.26C534.33,-538.66 509.26,-501.64 476,-485 392.96,-443.46 280.62,-450.22 219.03,-458.39"/>
<polygon fill="midnightblue" stroke="midnightblue" points="544.28,-563.15 552.16,-570.23 550.42,-559.78 544.28,-563.15"/>
</g>
<!-- Node40 -->
<g id="node20" class="node">
<title>Node40</title>
<g id="a_node20"><a xlink:href="code__80071F00_8c.html#a1977b15563fef2a0b91e20910c9e2ced" target="_top" xlink:title=" ">
<polygon fill="white" stroke="black" points="384,-418.5 384,-437.5 475,-437.5 475,-418.5 384,-418.5"/>
<text text-anchor="middle" x="429.5" y="-425.5" font-family="Helvetica,sans-Serif" font-size="10.00">func_8007F280</text>
</a>
</g>
</g>
<!-- Node1&#45;&gt;Node40 -->
<g id="edge20" class="edge">
<title>Node1&#45;&gt;Node40</title>
<path fill="none" stroke="midnightblue" d="M548.85,-560.99C536.46,-533.92 510.61,-483.99 476,-452 469.7,-446.18 461.73,-441.35 454.22,-437.59"/>
<polygon fill="midnightblue" stroke="midnightblue" points="545.8,-562.75 553.06,-570.47 552.2,-559.91 545.8,-562.75"/>
</g>
<!-- Node41 -->
<g id="node21" class="node">
<title>Node41</title>
<g id="a_node21"><a xlink:href="code__80071F00_8c.html#a2d5b294abeee9f779184f0e1f7f97530" target="_top" xlink:title=" ">
<polygon fill="white" stroke="black" points="383.5,-532.5 383.5,-551.5 475.5,-551.5 475.5,-532.5 383.5,-532.5"/>
<text text-anchor="middle" x="429.5" y="-539.5" font-family="Helvetica,sans-Serif" font-size="10.00">func_8007FB48</text>
</a>
</g>
</g>
<!-- Node1&#45;&gt;Node41 -->
<g id="edge23" class="edge">
<title>Node1&#45;&gt;Node41</title>
<path fill="none" stroke="midnightblue" d="M515.27,-567.46C498.06,-562.3 478.44,-556.4 462.41,-551.59"/>
<polygon fill="midnightblue" stroke="midnightblue" points="514.49,-570.89 525.08,-570.41 516.51,-564.18 514.49,-570.89"/>
</g>
<!-- Node43 -->
<g id="node23" class="node">
<title>Node43</title>
<g id="a_node23"><a xlink:href="code__80071F00_8c.html#aaeded00d33e7ae72ce35e159985f53d6" target="_top" xlink:title=" ">
<polygon fill="white" stroke="black" points="127,-513.5 127,-532.5 219,-532.5 219,-513.5 127,-513.5"/>
<text text-anchor="middle" x="173" y="-520.5" font-family="Helvetica,sans-Serif" font-size="10.00">func_8007FFC0</text>
</a>
</g>
</g>
<!-- Node1&#45;&gt;Node43 -->
<g id="edge29" class="edge">
<title>Node1&#45;&gt;Node43</title>
<path fill="none" stroke="midnightblue" d="M501.8,-575.19C441,-569.39 340.5,-558.34 255,-542 240.81,-539.29 225.35,-535.8 211.77,-532.55"/>
<polygon fill="midnightblue" stroke="midnightblue" points="501.66,-578.69 511.95,-576.14 502.32,-571.72 501.66,-578.69"/>
</g>
<!-- Node44 -->
<g id="node24" class="node">
<title>Node44</title>
<g id="a_node24"><a xlink:href="code__80071F00_8c.html#a182c383688529b4d89d9c38514e29a76" target="_top" xlink:title=" ">
<polygon fill="white" stroke="black" points="383.5,-494.5 383.5,-513.5 475.5,-513.5 475.5,-494.5 383.5,-494.5"/>
<text text-anchor="middle" x="429.5" y="-501.5" font-family="Helvetica,sans-Serif" font-size="10.00">func_8007FEA4</text>
</a>
</g>
</g>
<!-- Node1&#45;&gt;Node44 -->
<g id="edge27" class="edge">
<title>Node1&#45;&gt;Node44</title>
<path fill="none" stroke="midnightblue" d="M537.15,-564.18C521.22,-551.96 497.97,-535.13 476,-523 469.85,-519.61 462.98,-516.44 456.47,-513.7"/>
<polygon fill="midnightblue" stroke="midnightblue" points="535.15,-567.06 545.19,-570.44 539.45,-561.54 535.15,-567.06"/>
</g>
<!-- Node45 -->
<g id="node25" class="node">
<title>Node45</title>
<g id="a_node25"><a xlink:href="code__80071F00_8c.html#a9859386688e4c2e8653a73370ece256a" target="_top" xlink:title=" ">
<polygon fill="white" stroke="black" points="383.5,-304.5 383.5,-323.5 475.5,-323.5 475.5,-304.5 383.5,-304.5"/>
<text text-anchor="middle" x="429.5" y="-311.5" font-family="Helvetica,sans-Serif" font-size="10.00">func_800806BC</text>
</a>
</g>
</g>
<!-- Node1&#45;&gt;Node45 -->
<g id="edge30" class="edge">
<title>Node1&#45;&gt;Node45</title>
<path fill="none" stroke="midnightblue" d="M555.91,-559.9C552.38,-513.86 537.56,-399.6 476,-333 472.51,-329.23 468.16,-326.18 463.54,-323.73"/>
<polygon fill="midnightblue" stroke="midnightblue" points="552.43,-560.32 556.59,-570.06 559.42,-559.85 552.43,-560.32"/>
</g>
<!-- Node48 -->
<g id="node27" class="node">
<title>Node48</title>
<g id="a_node27"><a xlink:href="code__80071F00_8c.html#aa71473099bd69c455ec2d0d1ecc9938e" target="_top" xlink:title=" ">
<polygon fill="white" stroke="black" points="383.5,-342.5 383.5,-361.5 475.5,-361.5 475.5,-342.5 383.5,-342.5"/>
<text text-anchor="middle" x="429.5" y="-349.5" font-family="Helvetica,sans-Serif" font-size="10.00">func_8008078C</text>
</a>
</g>
</g>
<!-- Node1&#45;&gt;Node48 -->
<g id="edge32" class="edge">
<title>Node1&#45;&gt;Node48</title>
<path fill="none" stroke="midnightblue" d="M554.56,-560.27C548.54,-519.62 529.37,-425.77 476,-371 472.3,-367.2 467.72,-364.12 462.9,-361.65"/>
<polygon fill="midnightblue" stroke="midnightblue" points="551.1,-560.81 555.93,-570.25 558.04,-559.86 551.1,-560.81"/>
</g>
<!-- Node49 -->
<g id="node28" class="node">
<title>Node49</title>
<g id="a_node28"><a xlink:href="code__80071F00_8c.html#a460449cd8779a5cdf5f7b6afb5201c1d" target="_top" xlink:title=" ">
<polygon fill="white" stroke="black" points="255.5,-874.5 255.5,-893.5 346.5,-893.5 346.5,-874.5 255.5,-874.5"/>
<text text-anchor="middle" x="301" y="-881.5" font-family="Helvetica,sans-Serif" font-size="10.00">func_80081924</text>
</a>
</g>
</g>
<!-- Node1&#45;&gt;Node49 -->
<g id="edge34" class="edge">
<title>Node1&#45;&gt;Node49</title>
<path fill="none" stroke="midnightblue" d="M555.17,-599.6C548.74,-663.65 524.91,-864.84 476,-903 455.1,-919.31 381.84,-904.56 337.32,-893.51"/>
<polygon fill="midnightblue" stroke="midnightblue" points="558.66,-599.91 556.14,-589.61 551.69,-599.23 558.66,-599.91"/>
</g>
<!-- Node53 -->
<g id="node30" class="node">
<title>Node53</title>
<g id="a_node30"><a xlink:href="code__80071F00_8c.html#aba593db6e0f24e395fb2dfbc8986da52" target="_top" xlink:title=" ">
<polygon fill="white" stroke="black" points="383.5,-266.5 383.5,-285.5 475.5,-285.5 475.5,-266.5 383.5,-266.5"/>
<text text-anchor="middle" x="429.5" y="-273.5" font-family="Helvetica,sans-Serif" font-size="10.00">func_80082C30</text>
</a>
</g>
</g>
<!-- Node1&#45;&gt;Node53 -->
<g id="edge36" class="edge">
<title>Node1&#45;&gt;Node53</title>
<path fill="none" stroke="midnightblue" d="M556.97,-559.98C555.84,-509.21 546.02,-373.87 476,-295 472.59,-291.16 468.28,-288.08 463.68,-285.6"/>
<polygon fill="midnightblue" stroke="midnightblue" points="553.48,-560.29 557.1,-570.24 560.48,-560.2 553.48,-560.29"/>
</g>
<!-- Node55 -->
<g id="node32" class="node">
<title>Node55</title>
<g id="a_node32"><a xlink:href="code__80071F00_8c.html#a2d3590008f61bffbeaadcc88dfb65bf0" target="_top" xlink:title=" ">
<polygon fill="white" stroke="black" points="255.5,-665.5 255.5,-684.5 346.5,-684.5 346.5,-665.5 255.5,-665.5"/>
<text text-anchor="middle" x="301" y="-672.5" font-family="Helvetica,sans-Serif" font-size="10.00">func_80083248</text>
</a>
</g>
</g>
<!-- Node1&#45;&gt;Node55 -->
<g id="edge38" class="edge">
<title>Node1&#45;&gt;Node55</title>
<path fill="none" stroke="midnightblue" d="M529.27,-594.04C513.8,-601.61 494.06,-610.84 476,-618 427.84,-637.1 370.46,-654.99 335.14,-665.46"/>
<polygon fill="midnightblue" stroke="midnightblue" points="530.89,-597.14 538.3,-589.57 527.79,-590.87 530.89,-597.14"/>
</g>
<!-- Node57 -->
<g id="node34" class="node">
<title>Node57</title>
<g id="a_node34"><a xlink:href="code__80071F00_8c.html#a4cfbc27c8b36a59a1ab119007030e48b" target="_top" xlink:title=" ">
<polygon fill="white" stroke="black" points="255.5,-827.5 255.5,-846.5 346.5,-846.5 346.5,-827.5 255.5,-827.5"/>
<text text-anchor="middle" x="301" y="-834.5" font-family="Helvetica,sans-Serif" font-size="10.00">func_80083948</text>
</a>
</g>
</g>
<!-- Node1&#45;&gt;Node57 -->
<g id="edge40" class="edge">
<title>Node1&#45;&gt;Node57</title>
<path fill="none" stroke="midnightblue" d="M556.56,-600C554.38,-645.59 542.19,-757.5 476,-812 440.07,-841.58 385.2,-844.79 346.71,-842.55"/>
<polygon fill="midnightblue" stroke="midnightblue" points="560.06,-600.03 556.92,-589.91 553.06,-599.78 560.06,-600.03"/>
</g>
<!-- Node60 -->
<g id="node36" class="node">
<title>Node60</title>
<g id="a_node36"><a xlink:href="code__80071F00_8c.html#a8b0c1527833d536e03dd3c4854bfa03d" target="_top" xlink:title=" ">
<polygon fill="white" stroke="black" points="383,-228.5 383,-247.5 476,-247.5 476,-228.5 383,-228.5"/>
<text text-anchor="middle" x="429.5" y="-235.5" font-family="Helvetica,sans-Serif" font-size="10.00">func_80084D2C</text>
</a>
</g>
</g>
<!-- Node1&#45;&gt;Node60 -->
<g id="edge42" class="edge">
<title>Node1&#45;&gt;Node60</title>
<path fill="none" stroke="midnightblue" d="M557.79,-560.33C558.91,-505.4 554.67,-348.45 476,-257 472.65,-253.11 468.37,-249.99 463.78,-247.51"/>
<polygon fill="midnightblue" stroke="midnightblue" points="554.28,-560.34 557.49,-570.44 561.28,-560.55 554.28,-560.34"/>
</g>
<!-- Node63 -->
<g id="node38" class="node">
<title>Node63</title>
<g id="a_node38"><a xlink:href="code__80071F00_8c.html#a36da56e8801c8031a5e750e385bcc13a" target="_top" xlink:title=" ">
<polygon fill="white" stroke="black" points="255.5,-618.5 255.5,-637.5 346.5,-637.5 346.5,-618.5 255.5,-618.5"/>
<text text-anchor="middle" x="301" y="-625.5" font-family="Helvetica,sans-Serif" font-size="10.00">func_80085534</text>
</a>
</g>
</g>
<!-- Node1&#45;&gt;Node63 -->
<g id="edge44" class="edge">
<title>Node1&#45;&gt;Node63</title>
<path fill="none" stroke="midnightblue" d="M502.09,-590.34C455.61,-599.08 389.82,-611.47 346.55,-619.61"/>
<polygon fill="midnightblue" stroke="midnightblue" points="502.82,-593.76 512,-588.47 501.52,-586.88 502.82,-593.76"/>
</g>
<!-- Node65 -->
<g id="node40" class="node">
<title>Node65</title>
<g id="a_node40"><a xlink:href="code__80071F00_8c.html#a329b8a720ab29e32f0528f4a3774d4a6" target="_top" xlink:title=" ">
<polygon fill="white" stroke="black" points="384,-190.5 384,-209.5 475,-209.5 475,-190.5 384,-190.5"/>
<text text-anchor="middle" x="429.5" y="-197.5" font-family="Helvetica,sans-Serif" font-size="10.00">func_80086424</text>
</a>
</g>
</g>
<!-- Node1&#45;&gt;Node65 -->
<g id="edge46" class="edge">
<title>Node1&#45;&gt;Node65</title>
<path fill="none" stroke="midnightblue" d="M554.95,-560.21C547.6,-492.62 520.58,-272.15 476,-219 472.81,-215.2 468.73,-212.14 464.33,-209.69"/>
<polygon fill="midnightblue" stroke="midnightblue" points="551.49,-560.77 556.03,-570.34 558.45,-560.03 551.49,-560.77"/>
</g>
<!-- Node67 -->
<g id="node42" class="node">
<title>Node67</title>
<g id="a_node42"><a xlink:href="code__80071F00_8c.html#a58ec6f8831cc3520996202445c55a5ec" target="_top" xlink:title=" ">
<polygon fill="white" stroke="red" points="255.5,-722.5 255.5,-741.5 346.5,-741.5 346.5,-722.5 255.5,-722.5"/>
<text text-anchor="middle" x="301" y="-729.5" font-family="Helvetica,sans-Serif" font-size="10.00">func_80086940</text>
</a>
</g>
</g>
<!-- Node1&#45;&gt;Node67 -->
<g id="edge48" class="edge">
<title>Node1&#45;&gt;Node67</title>
<path fill="none" stroke="midnightblue" d="M539.7,-596.38C523.91,-610.81 499.51,-631.84 476,-647 425.42,-679.61 360.51,-708.18 326.03,-722.41"/>
<polygon fill="midnightblue" stroke="midnightblue" points="542.17,-598.87 547.12,-589.5 537.41,-593.73 542.17,-598.87"/>
</g>
<!-- Node69 -->
<g id="node43" class="node">
<title>Node69</title>
<g id="a_node43"><a xlink:href="code__80086E70_8c.html#a56f0505e98e37eda7af759554a41feee" target="_top" xlink:title=" ">
<polygon fill="white" stroke="black" points="383.5,-722.5 383.5,-741.5 475.5,-741.5 475.5,-722.5 383.5,-722.5"/>
<text text-anchor="middle" x="429.5" y="-729.5" font-family="Helvetica,sans-Serif" font-size="10.00">func_800871AC</text>
</a>
</g>
</g>
<!-- Node1&#45;&gt;Node69 -->
<g id="edge49" class="edge">
<title>Node1&#45;&gt;Node69</title>
<path fill="none" stroke="midnightblue" d="M548.85,-599.01C536.46,-626.08 510.61,-676.01 476,-708 469.7,-713.82 461.73,-718.65 454.22,-722.41"/>
<polygon fill="midnightblue" stroke="midnightblue" points="552.2,-600.09 553.06,-589.53 545.8,-597.25 552.2,-600.09"/>
</g>
<!-- Node70 -->
<g id="node44" class="node">
<title>Node70</title>
<g id="a_node44"><a xlink:href="code__80086E70_8c.html#ae0ef8b1b8fb4faf299a6a11421a191fd" target="_top" xlink:title=" ">
<polygon fill="white" stroke="red" points="383.5,-152.5 383.5,-171.5 475.5,-171.5 475.5,-152.5 383.5,-152.5"/>
<text text-anchor="middle" x="429.5" y="-159.5" font-family="Helvetica,sans-Serif" font-size="10.00">func_80087B84</text>
</a>
</g>
</g>
<!-- Node1&#45;&gt;Node70 -->
<g id="edge56" class="edge">
<title>Node1&#45;&gt;Node70</title>
<path fill="none" stroke="midnightblue" d="M555.4,-560.04C549.23,-487.72 524.88,-240.5 476,-181 472.85,-177.16 468.79,-174.09 464.4,-171.63"/>
<polygon fill="midnightblue" stroke="midnightblue" points="551.94,-560.76 556.26,-570.43 558.92,-560.18 551.94,-560.76"/>
</g>
<!-- Node73 -->
<g id="node45" class="node">
<title>Node73</title>
<g id="a_node45"><a xlink:href="code__80086E70_8c.html#a78aeff54a3f4ebd08b5abf8bb3d66047" target="_top" xlink:title=" ">
<polygon fill="white" stroke="black" points="383.5,-760.5 383.5,-779.5 475.5,-779.5 475.5,-760.5 383.5,-760.5"/>
<text text-anchor="middle" x="429.5" y="-767.5" font-family="Helvetica,sans-Serif" font-size="10.00">func_80087C48</text>
</a>
</g>
</g>
<!-- Node1&#45;&gt;Node73 -->
<g id="edge57" class="edge">
<title>Node1&#45;&gt;Node73</title>
<path fill="none" stroke="midnightblue" d="M552.68,-599.43C544,-634.28 521.25,-707.82 476,-751 472.04,-754.78 467.21,-757.86 462.2,-760.35"/>
<polygon fill="midnightblue" stroke="midnightblue" points="556.12,-600.1 555.02,-589.56 549.31,-598.48 556.12,-600.1"/>
</g>
<!-- Node74 -->
<g id="node46" class="node">
<title>Node74</title>
<g id="a_node46"><a xlink:href="code__80086E70_8c.html#ac4c0808f380085196c14ce1a71abb447" target="_top" xlink:title=" ">
<polygon fill="white" stroke="red" points="383.5,-874.5 383.5,-893.5 475.5,-893.5 475.5,-874.5 383.5,-874.5"/>
<text text-anchor="middle" x="429.5" y="-881.5" font-family="Helvetica,sans-Serif" font-size="10.00">func_80087D24</text>
</a>
</g>
</g>
<!-- Node1&#45;&gt;Node74 -->
<g id="edge60" class="edge">
<title>Node1&#45;&gt;Node74</title>
<path fill="none" stroke="midnightblue" d="M556.41,-599.96C553.94,-649.51 541.24,-779.9 476,-860 471.04,-866.09 464.11,-870.83 457.15,-874.43"/>
<polygon fill="midnightblue" stroke="midnightblue" points="559.92,-599.8 556.82,-589.67 552.92,-599.52 559.92,-599.8"/>
</g>
<!-- Node77 -->
<g id="node47" class="node">
<title>Node77</title>
<g id="a_node47"><a xlink:href="code__80086E70_8c.html#a989c71b5530f8701df950f1d39a9259b" target="_top" xlink:title=" ">
<polygon fill="white" stroke="red" points="384,-114.5 384,-133.5 475,-133.5 475,-114.5 384,-114.5"/>
<text text-anchor="middle" x="429.5" y="-121.5" font-family="Helvetica,sans-Serif" font-size="10.00">func_80087E08</text>
</a>
</g>
</g>
<!-- Node1&#45;&gt;Node77 -->
<g id="edge63" class="edge">
<title>Node1&#45;&gt;Node77</title>
<path fill="none" stroke="midnightblue" d="M555.79,-560.13C550.76,-483.61 529.25,-208.95 476,-143 472.88,-139.14 468.84,-136.05 464.45,-133.58"/>
<polygon fill="midnightblue" stroke="midnightblue" points="552.31,-560.54 556.44,-570.3 559.29,-560.09 552.31,-560.54"/>
</g>
<!-- Node86 -->
<g id="node48" class="node">
<title>Node86</title>
<g id="a_node48"><a xlink:href="code__80086E70_8c.html#aef633d1bb74e88f2b00ed28f8d23caa0" target="_top" xlink:title=" ">
<polygon fill="white" stroke="black" points="384,-76.5 384,-95.5 475,-95.5 475,-76.5 384,-76.5"/>
<text text-anchor="middle" x="429.5" y="-83.5" font-family="Helvetica,sans-Serif" font-size="10.00">func_80087F14</text>
</a>
</g>
</g>
<!-- Node1&#45;&gt;Node86 -->
<g id="edge64" class="edge">
<title>Node1&#45;&gt;Node86</title>
<path fill="none" stroke="midnightblue" d="M556.11,-559.99C552.12,-479.12 533.59,-177.38 476,-105 472.91,-101.11 468.88,-98.01 464.5,-95.54"/>
<polygon fill="midnightblue" stroke="midnightblue" points="552.62,-560.44 556.59,-570.26 559.62,-560.11 552.62,-560.44"/>
</g>
<!-- Node87 -->
<g id="node49" class="node">
<title>Node87</title>
<g id="a_node49"><a xlink:href="code__80086E70_8c.html#afcb63d7d61d5d8936db8de3e2f40706f" target="_top" xlink:title=" ">
<polygon fill="white" stroke="red" points="384,-38.5 384,-57.5 475,-57.5 475,-38.5 384,-38.5"/>
<text text-anchor="middle" x="429.5" y="-45.5" font-family="Helvetica,sans-Serif" font-size="10.00">func_80088228</text>
</a>
</g>
</g>
<!-- Node1&#45;&gt;Node87 -->
<g id="edge65" class="edge">
<title>Node1&#45;&gt;Node87</title>
<path fill="none" stroke="midnightblue" d="M556.4,-560.29C553.44,-475.94 538.04,-145.97 476,-67 472.93,-63.1 468.92,-59.99 464.55,-57.51"/>
<polygon fill="midnightblue" stroke="midnightblue" points="552.9,-560.44 556.73,-570.32 559.89,-560.21 552.9,-560.44"/>
</g>
<!-- Node90 -->
<g id="node50" class="node">
<title>Node90</title>
<g id="a_node50"><a xlink:href="code__80086E70_8c.html#a62bc693b660d4227096b9680c67d369f" target="_top" xlink:title=" ">
<polygon fill="white" stroke="red" points="383,-0.5 383,-19.5 476,-19.5 476,-0.5 383,-0.5"/>
<text text-anchor="middle" x="429.5" y="-7.5" font-family="Helvetica,sans-Serif" font-size="10.00">func_8008AA3C</text>
</a>
</g>
</g>
<!-- Node1&#45;&gt;Node90 -->
<g id="edge66" class="edge">
<title>Node1&#45;&gt;Node90</title>
<path fill="none" stroke="midnightblue" d="M556.63,-560.27C554.62,-472.06 542.43,-114.49 476,-29 473.06,-25.21 469.23,-22.18 465.03,-19.74"/>
<polygon fill="midnightblue" stroke="midnightblue" points="553.14,-560.55 556.85,-570.47 560.14,-560.4 553.14,-560.55"/>
</g>
<!-- Node3 -->
<g id="node3" class="node">
<title>Node3</title>
<g id="a_node3"><a xlink:href="code__80071F00_8c.html#ad1053670c5f6f091b5cd4baed1402a64" target="_top" xlink:title=" ">
<polygon fill="white" stroke="red" points="255,-1121.5 255,-1140.5 347,-1140.5 347,-1121.5 255,-1121.5"/>
<text text-anchor="middle" x="301" y="-1128.5" font-family="Helvetica,sans-Serif" font-size="10.00">func_80076B84</text>
</a>
</g>
</g>
<!-- Node2&#45;&gt;Node3 -->
<g id="edge2" class="edge">
<title>Node2&#45;&gt;Node3</title>
<path fill="none" stroke="midnightblue" d="M373.92,-1120.2C364.95,-1121.54 355.75,-1122.93 347.05,-1124.23"/>
<polygon fill="midnightblue" stroke="midnightblue" points="374.53,-1123.65 383.9,-1118.7 373.49,-1116.72 374.53,-1123.65"/>
</g>
<!-- Node16&#45;&gt;Node3 -->
<g id="edge4" class="edge">
<title>Node16&#45;&gt;Node3</title>
<path fill="none" stroke="midnightblue" d="M373.21,-1141.7C364.59,-1140.4 355.78,-1139.08 347.42,-1137.82"/>
<polygon fill="midnightblue" stroke="midnightblue" points="372.78,-1145.17 383.19,-1143.19 373.82,-1138.25 372.78,-1145.17"/>
</g>
<!-- Node18 -->
<g id="node6" class="node">
<title>Node18</title>
<g id="a_node6"><a xlink:href="code__80071F00_8c.html#a8d2c6eb19e31d24ddd0df7f981ff05d6" target="_top" xlink:title=" ">
<polygon fill="white" stroke="red" points="255,-1064.5 255,-1083.5 347,-1083.5 347,-1064.5 255,-1064.5"/>
<text text-anchor="middle" x="301" y="-1071.5" font-family="Helvetica,sans-Serif" font-size="10.00">func_80076F2C</text>
</a>
</g>
</g>
<!-- Node17&#45;&gt;Node18 -->
<g id="edge6" class="edge">
<title>Node17&#45;&gt;Node18</title>
<path fill="none" stroke="midnightblue" d="M372.93,-1074C364.4,-1074 355.69,-1074 347.42,-1074"/>
<polygon fill="midnightblue" stroke="midnightblue" points="373.19,-1077.5 383.19,-1074 373.19,-1070.5 373.19,-1077.5"/>
</g>
<!-- Node20 -->
<g id="node8" class="node">
<title>Node20</title>
<g id="a_node8"><a xlink:href="code__80071F00_8c.html#a8b4c61991cddbf212dac08c2de7d3224" target="_top" xlink:title=" ">
<polygon fill="white" stroke="red" points="255,-1026.5 255,-1045.5 347,-1045.5 347,-1026.5 255,-1026.5"/>
<text text-anchor="middle" x="301" y="-1033.5" font-family="Helvetica,sans-Serif" font-size="10.00">func_800780CC</text>
</a>
</g>
</g>
<!-- Node19&#45;&gt;Node20 -->
<g id="edge8" class="edge">
<title>Node19&#45;&gt;Node20</title>
<path fill="none" stroke="midnightblue" d="M373.63,-1036C364.75,-1036 355.66,-1036 347.05,-1036"/>
<polygon fill="midnightblue" stroke="midnightblue" points="373.9,-1039.5 383.9,-1036 373.9,-1032.5 373.9,-1039.5"/>
</g>
<!-- Node24 -->
<g id="node10" class="node">
<title>Node24</title>
<g id="a_node10"><a xlink:href="code__80071F00_8c.html#ab41f725550186878218b0d8b3b0fa5d4" target="_top" xlink:title=" ">
<polygon fill="white" stroke="red" points="255,-988.5 255,-1007.5 347,-1007.5 347,-988.5 255,-988.5"/>
<text text-anchor="middle" x="301" y="-995.5" font-family="Helvetica,sans-Serif" font-size="10.00">func_800786EC</text>
</a>
</g>
</g>
<!-- Node23&#45;&gt;Node24 -->
<g id="edge10" class="edge">
<title>Node23&#45;&gt;Node24</title>
<path fill="none" stroke="midnightblue" d="M373.63,-998C364.75,-998 355.66,-998 347.05,-998"/>
<polygon fill="midnightblue" stroke="midnightblue" points="373.9,-1001.5 383.9,-998 373.9,-994.5 373.9,-1001.5"/>
</g>
<!-- Node27 -->
<g id="node12" class="node">
<title>Node27</title>
<g id="a_node12"><a xlink:href="code__80071F00_8c.html#ada887b1ac4f9c80e6ab309082efde4f4" target="_top" xlink:title=" ">
<polygon fill="white" stroke="red" points="255,-950.5 255,-969.5 347,-969.5 347,-950.5 255,-950.5"/>
<text text-anchor="middle" x="301" y="-957.5" font-family="Helvetica,sans-Serif" font-size="10.00">func_80079B40</text>
</a>
</g>
</g>
<!-- Node26&#45;&gt;Node27 -->
<g id="edge12" class="edge">
<title>Node26&#45;&gt;Node27</title>
<path fill="none" stroke="midnightblue" d="M372.93,-960C364.4,-960 355.69,-960 347.42,-960"/>
<polygon fill="midnightblue" stroke="midnightblue" points="373.19,-963.5 383.19,-960 373.19,-956.5 373.19,-963.5"/>
</g>
<!-- Node31 -->
<g id="node13" class="node">
<title>Node31</title>
<g id="a_node13"><a xlink:href="code__80071F00_8c.html#a428563759075ebf2fbdc25342159e60c" target="_top" xlink:title=" ">
<polygon fill="white" stroke="red" points="255,-912.5 255,-931.5 347,-931.5 347,-912.5 255,-912.5"/>
<text text-anchor="middle" x="301" y="-919.5" font-family="Helvetica,sans-Serif" font-size="10.00">func_80079D44</text>
</a>
</g>
</g>
<!-- Node26&#45;&gt;Node31 -->
<g id="edge13" class="edge">
<title>Node26&#45;&gt;Node31</title>
<path fill="none" stroke="midnightblue" d="M386.77,-947.46C369.56,-942.3 349.94,-936.4 333.91,-931.59"/>
<polygon fill="midnightblue" stroke="midnightblue" points="385.99,-950.89 396.58,-950.41 388.01,-944.18 385.99,-950.89"/>
</g>
<!-- Node33 -->
<g id="node15" class="node">
<title>Node33</title>
<g id="a_node15"><a xlink:href="code__80071F00_8c.html#ab93974a608cb1b351f9841dd19ca4b7e" target="_top" xlink:title=" ">
<polygon fill="white" stroke="red" points="127,-779.5 127,-798.5 219,-798.5 219,-779.5 127,-779.5"/>
<text text-anchor="middle" x="173" y="-786.5" font-family="Helvetica,sans-Serif" font-size="10.00">func_8007C280</text>
</a>
</g>
</g>
<!-- Node32&#45;&gt;Node33 -->
<g id="edge15" class="edge">
<title>Node32&#45;&gt;Node33</title>
<path fill="none" stroke="midnightblue" d="M244.65,-789C236.16,-789 227.48,-789 219.24,-789"/>
<polygon fill="midnightblue" stroke="midnightblue" points="244.87,-792.5 254.87,-789 244.87,-785.5 244.87,-792.5"/>
</g>
<!-- Node36 -->
<g id="node17" class="node">
<title>Node36</title>
<g id="a_node17"><a xlink:href="code__80071F00_8c.html#aa9218a75dfc89d38537a1ab5e9ecf38b" target="_top" xlink:title=" ">
<polygon fill="white" stroke="black" points="255.5,-418.5 255.5,-437.5 346.5,-437.5 346.5,-418.5 255.5,-418.5"/>
<text text-anchor="middle" x="301" y="-425.5" font-family="Helvetica,sans-Serif" font-size="10.00">func_8007F544</text>
</a>
</g>
</g>
<!-- Node35&#45;&gt;Node36 -->
<g id="edge17" class="edge">
<title>Node35&#45;&gt;Node36</title>
<path fill="none" stroke="midnightblue" d="M386.77,-402.54C369.56,-407.7 349.94,-413.6 333.91,-418.41"/>
<polygon fill="midnightblue" stroke="midnightblue" points="388.01,-405.82 396.58,-399.59 385.99,-399.11 388.01,-405.82"/>
</g>
<!-- Node36&#45;&gt;Node37 -->
<g id="edge18" class="edge">
<title>Node36&#45;&gt;Node37</title>
<path fill="none" stroke="midnightblue" d="M258.44,-440.54C241.29,-445.7 221.75,-451.6 205.78,-456.41"/>
<polygon fill="midnightblue" stroke="midnightblue" points="259.64,-443.83 268.2,-437.59 257.62,-437.13 259.64,-443.83"/>
</g>
<!-- Node38 -->
<g id="node19" class="node">
<title>Node38</title>
<g id="a_node19"><a xlink:href="code__80071F00_8c.html#a8afc56ea0d06d8d9d473e5883925c9a9" target="_top" xlink:title=" ">
<polygon fill="white" stroke="red" points="0,-484.5 0,-503.5 91,-503.5 91,-484.5 0,-484.5"/>
<text text-anchor="middle" x="45.5" y="-491.5" font-family="Helvetica,sans-Serif" font-size="10.00">func_80081210</text>
</a>
</g>
</g>
<!-- Node37&#45;&gt;Node38 -->
<g id="edge19" class="edge">
<title>Node37&#45;&gt;Node38</title>
<path fill="none" stroke="midnightblue" d="M119.27,-477.76C109.23,-480.01 98.83,-482.32 89.15,-484.49"/>
<polygon fill="midnightblue" stroke="midnightblue" points="120.16,-481.15 129.16,-475.56 118.64,-474.32 120.16,-481.15"/>
</g>
<!-- Node40&#45;&gt;Node36 -->
<g id="edge21" class="edge">
<title>Node40&#45;&gt;Node36</title>
<path fill="none" stroke="midnightblue" d="M373.8,-428C364.72,-428 355.41,-428 346.62,-428"/>
<polygon fill="midnightblue" stroke="midnightblue" points="373.9,-431.5 383.9,-428 373.9,-424.5 373.9,-431.5"/>
</g>
<!-- Node42 -->
<g id="node22" class="node">
<title>Node42</title>
<g id="a_node22"><a xlink:href="code__80071F00_8c.html#af86bf38bc3404ee5d96b0eac8fd73c87" target="_top" xlink:title=" ">
<polygon fill="white" stroke="black" points="255,-513.5 255,-532.5 347,-532.5 347,-513.5 255,-513.5"/>
<text text-anchor="middle" x="301" y="-520.5" font-family="Helvetica,sans-Serif" font-size="10.00">func_8007FF5C</text>
</a>
</g>
</g>
<!-- Node41&#45;&gt;Node42 -->
<g id="edge24" class="edge">
<title>Node41&#45;&gt;Node42</title>
<path fill="none" stroke="midnightblue" d="M373.21,-533.7C364.59,-532.4 355.78,-531.08 347.42,-529.82"/>
<polygon fill="midnightblue" stroke="midnightblue" points="372.78,-537.17 383.19,-535.19 373.82,-530.25 372.78,-537.17"/>
</g>
<!-- Node42&#45;&gt;Node43 -->
<g id="edge25" class="edge">
<title>Node42&#45;&gt;Node43</title>
<path fill="none" stroke="midnightblue" d="M244.65,-523C236.16,-523 227.48,-523 219.24,-523"/>
<polygon fill="midnightblue" stroke="midnightblue" points="244.87,-526.5 254.87,-523 244.87,-519.5 244.87,-526.5"/>
</g>
<!-- Node43&#45;&gt;Node38 -->
<g id="edge26" class="edge">
<title>Node43&#45;&gt;Node38</title>
<path fill="none" stroke="midnightblue" d="M120.71,-511.15C109.79,-508.62 98.39,-505.99 87.9,-503.57"/>
<polygon fill="midnightblue" stroke="midnightblue" points="120.03,-514.58 130.56,-513.42 121.6,-507.76 120.03,-514.58"/>
</g>
<!-- Node44&#45;&gt;Node42 -->
<g id="edge28" class="edge">
<title>Node44&#45;&gt;Node42</title>
<path fill="none" stroke="midnightblue" d="M373.21,-512.3C364.59,-513.6 355.78,-514.92 347.42,-516.18"/>
<polygon fill="midnightblue" stroke="midnightblue" points="373.82,-515.75 383.19,-510.81 372.78,-508.83 373.82,-515.75"/>
</g>
<!-- Node46 -->
<g id="node26" class="node">
<title>Node46</title>
<g id="a_node26"><a xlink:href="code__80071F00_8c.html#ac62980eb8187cc9e73ab6d61c648310a" target="_top" xlink:title=" ">
<polygon fill="white" stroke="red" points="255,-323.5 255,-342.5 347,-342.5 347,-323.5 255,-323.5"/>
<text text-anchor="middle" x="301" y="-330.5" font-family="Helvetica,sans-Serif" font-size="10.00">func_8008085C</text>
</a>
</g>
</g>
<!-- Node45&#45;&gt;Node46 -->
<g id="edge31" class="edge">
<title>Node45&#45;&gt;Node46</title>
<path fill="none" stroke="midnightblue" d="M373.21,-322.3C364.59,-323.6 355.78,-324.92 347.42,-326.18"/>
<polygon fill="midnightblue" stroke="midnightblue" points="373.82,-325.75 383.19,-320.81 372.78,-318.83 373.82,-325.75"/>
</g>
<!-- Node48&#45;&gt;Node46 -->
<g id="edge33" class="edge">
<title>Node48&#45;&gt;Node46</title>
<path fill="none" stroke="midnightblue" d="M373.21,-343.7C364.59,-342.4 355.78,-341.08 347.42,-339.82"/>
<polygon fill="midnightblue" stroke="midnightblue" points="372.78,-347.17 383.19,-345.19 373.82,-340.25 372.78,-347.17"/>
</g>
<!-- Node50 -->
<g id="node29" class="node">
<title>Node50</title>
<g id="a_node29"><a xlink:href="code__80071F00_8c.html#ad3b4b014c53aeb436daf8996306eb167" target="_top" xlink:title=" ">
<polygon fill="white" stroke="red" points="127,-874.5 127,-893.5 219,-893.5 219,-874.5 127,-874.5"/>
<text text-anchor="middle" x="173" y="-881.5" font-family="Helvetica,sans-Serif" font-size="10.00">func_80081A88</text>
</a>
</g>
</g>
<!-- Node49&#45;&gt;Node50 -->
<g id="edge35" class="edge">
<title>Node49&#45;&gt;Node50</title>
<path fill="none" stroke="midnightblue" d="M245.14,-884C236.43,-884 227.51,-884 219.06,-884"/>
<polygon fill="midnightblue" stroke="midnightblue" points="245.22,-887.5 255.22,-884 245.22,-880.5 245.22,-887.5"/>
</g>
<!-- Node54 -->
<g id="node31" class="node">
<title>Node54</title>
<g id="a_node31"><a xlink:href="code__80071F00_8c.html#abc5ed8f49b810b98a740d39af5bf2613" target="_top" xlink:title=" ">
<polygon fill="white" stroke="red" points="255,-266.5 255,-285.5 347,-285.5 347,-266.5 255,-266.5"/>
<text text-anchor="middle" x="301" y="-273.5" font-family="Helvetica,sans-Serif" font-size="10.00">func_80082E5C</text>
</a>
</g>
</g>
<!-- Node53&#45;&gt;Node54 -->
<g id="edge37" class="edge">
<title>Node53&#45;&gt;Node54</title>
<path fill="none" stroke="midnightblue" d="M372.93,-276C364.4,-276 355.69,-276 347.42,-276"/>
<polygon fill="midnightblue" stroke="midnightblue" points="373.19,-279.5 383.19,-276 373.19,-272.5 373.19,-279.5"/>
</g>
<!-- Node56 -->
<g id="node33" class="node">
<title>Node56</title>
<g id="a_node33"><a xlink:href="code__80071F00_8c.html#a87459e233eeb4e0cc4a20c59b1933a0f" target="_top" xlink:title=" ">
<polygon fill="white" stroke="red" points="127,-665.5 127,-684.5 219,-684.5 219,-665.5 127,-665.5"/>
<text text-anchor="middle" x="173" y="-672.5" font-family="Helvetica,sans-Serif" font-size="10.00">func_800834B8</text>
</a>
</g>
</g>
<!-- Node55&#45;&gt;Node56 -->
<g id="edge39" class="edge">
<title>Node55&#45;&gt;Node56</title>
<path fill="none" stroke="midnightblue" d="M245.14,-675C236.43,-675 227.51,-675 219.06,-675"/>
<polygon fill="midnightblue" stroke="midnightblue" points="245.22,-678.5 255.22,-675 245.22,-671.5 245.22,-678.5"/>
</g>
<!-- Node58 -->
<g id="node35" class="node">
<title>Node58</title>
<g id="a_node35"><a xlink:href="code__80071F00_8c.html#a3b097e291d7be2ba221ba7c615c56a09" target="_top" xlink:title=" ">
<polygon fill="white" stroke="red" points="127,-827.5 127,-846.5 219,-846.5 219,-827.5 127,-827.5"/>
<text text-anchor="middle" x="173" y="-834.5" font-family="Helvetica,sans-Serif" font-size="10.00">func_80083A94</text>
</a>
</g>
</g>
<!-- Node57&#45;&gt;Node58 -->
<g id="edge41" class="edge">
<title>Node57&#45;&gt;Node58</title>
<path fill="none" stroke="midnightblue" d="M245.14,-837C236.43,-837 227.51,-837 219.06,-837"/>
<polygon fill="midnightblue" stroke="midnightblue" points="245.22,-840.5 255.22,-837 245.22,-833.5 245.22,-840.5"/>
</g>
<!-- Node61 -->
<g id="node37" class="node">
<title>Node61</title>
<g id="a_node37"><a xlink:href="code__80071F00_8c.html#ad3b67fe7afad268ebd60dd5d178789b6" target="_top" xlink:title=" ">
<polygon fill="white" stroke="red" points="255,-228.5 255,-247.5 347,-247.5 347,-228.5 255,-228.5"/>
<text text-anchor="middle" x="301" y="-235.5" font-family="Helvetica,sans-Serif" font-size="10.00">func_800850B0</text>
</a>
</g>
</g>
<!-- Node60&#45;&gt;Node61 -->
<g id="edge43" class="edge">
<title>Node60&#45;&gt;Node61</title>
<path fill="none" stroke="midnightblue" d="M372.59,-238C364.09,-238 355.41,-238 347.18,-238"/>
<polygon fill="midnightblue" stroke="midnightblue" points="372.83,-241.5 382.83,-238 372.83,-234.5 372.83,-241.5"/>
</g>
<!-- Node64 -->
<g id="node39" class="node">
<title>Node64</title>
<g id="a_node39"><a xlink:href="code__80071F00_8c.html#a380f5746fe84ee8e299633851cb82e65" target="_top" xlink:title=" ">
<polygon fill="white" stroke="red" points="127,-618.5 127,-637.5 219,-637.5 219,-618.5 127,-618.5"/>
<text text-anchor="middle" x="173" y="-625.5" font-family="Helvetica,sans-Serif" font-size="10.00">func_800857C0</text>
</a>
</g>
</g>
<!-- Node63&#45;&gt;Node64 -->
<g id="edge45" class="edge">
<title>Node63&#45;&gt;Node64</title>
<path fill="none" stroke="midnightblue" d="M245.14,-628C236.43,-628 227.51,-628 219.06,-628"/>
<polygon fill="midnightblue" stroke="midnightblue" points="245.22,-631.5 255.22,-628 245.22,-624.5 245.22,-631.5"/>
</g>
<!-- Node66 -->
<g id="node41" class="node">
<title>Node66</title>
<g id="a_node41"><a xlink:href="code__80071F00_8c.html#a2204b3133e4191e5d50b0b0bee4a53c9" target="_top" xlink:title=" ">
<polygon fill="white" stroke="red" points="255.5,-190.5 255.5,-209.5 346.5,-209.5 346.5,-190.5 255.5,-190.5"/>
<text text-anchor="middle" x="301" y="-197.5" font-family="Helvetica,sans-Serif" font-size="10.00">func_80086604</text>
</a>
</g>
</g>
<!-- Node65&#45;&gt;Node66 -->
<g id="edge47" class="edge">
<title>Node65&#45;&gt;Node66</title>
<path fill="none" stroke="midnightblue" d="M373.8,-200C364.72,-200 355.41,-200 346.62,-200"/>
<polygon fill="midnightblue" stroke="midnightblue" points="373.9,-203.5 383.9,-200 373.9,-196.5 373.9,-203.5"/>
</g>
<!-- Node69&#45;&gt;Node32 -->
<g id="edge50" class="edge">
<title>Node69&#45;&gt;Node32</title>
<path fill="none" stroke="midnightblue" d="M395.28,-745.67C391.14,-747.44 386.96,-749.24 383,-751 361.98,-760.31 338.19,-771.56 321.86,-779.39"/>
<polygon fill="midnightblue" stroke="midnightblue" points="396.94,-748.77 404.8,-741.67 394.23,-742.32 396.94,-748.77"/>
</g>
<!-- Node69&#45;&gt;Node49 -->
<g id="edge51" class="edge">
<title>Node69&#45;&gt;Node49</title>
<path fill="none" stroke="midnightblue" d="M387.43,-746.96C385.85,-748.2 384.36,-749.55 383,-751 349.27,-787 377.72,-817.4 347,-856 340.93,-863.63 332.17,-869.74 323.99,-874.29"/>
<polygon fill="midnightblue" stroke="midnightblue" points="389.41,-749.85 395.96,-741.52 385.65,-743.94 389.41,-749.85"/>
</g>
<!-- Node69&#45;&gt;Node55 -->
<g id="edge52" class="edge">
<title>Node69&#45;&gt;Node55</title>
<path fill="none" stroke="midnightblue" d="M397.97,-718.24C374.86,-707.83 343.7,-693.79 323.24,-684.57"/>
<polygon fill="midnightblue" stroke="midnightblue" points="396.77,-721.54 407.33,-722.46 399.65,-715.16 396.77,-721.54"/>
</g>
<!-- Node69&#45;&gt;Node57 -->
<g id="edge53" class="edge">
<title>Node69&#45;&gt;Node57</title>
<path fill="none" stroke="midnightblue" d="M389.26,-746.44C387.05,-747.84 384.95,-749.36 383,-751 360.11,-770.34 368.09,-786.72 347,-808 339.41,-815.66 329.46,-822.33 320.85,-827.34"/>
<polygon fill="midnightblue" stroke="midnightblue" points="391.01,-749.47 398.12,-741.61 387.66,-743.32 391.01,-749.47"/>
</g>
<!-- Node69&#45;&gt;Node63 -->
<g id="edge54" class="edge">
<title>Node69&#45;&gt;Node63</title>
<path fill="none" stroke="midnightblue" d="M412.09,-714.88C396.2,-698.77 371.07,-674.43 347,-656 338.23,-649.29 327.8,-642.71 319.18,-637.63"/>
<polygon fill="midnightblue" stroke="midnightblue" points="410.01,-717.76 419.49,-722.48 415.02,-712.88 410.01,-717.76"/>
</g>
<!-- Node69&#45;&gt;Node67 -->
<g id="edge55" class="edge">
<title>Node69&#45;&gt;Node67</title>
<path fill="none" stroke="midnightblue" d="M372.96,-732C364.13,-732 355.1,-732 346.57,-732"/>
<polygon fill="midnightblue" stroke="midnightblue" points="373.19,-735.5 383.19,-732 373.19,-728.5 373.19,-735.5"/>
</g>
<!-- Node73&#45;&gt;Node57 -->
<g id="edge58" class="edge">
<title>Node73&#45;&gt;Node57</title>
<path fill="none" stroke="midnightblue" d="M401.23,-784.44C376.69,-797.44 341.31,-816.18 320.09,-827.42"/>
<polygon fill="midnightblue" stroke="midnightblue" points="403.18,-787.37 410.38,-779.6 399.9,-781.19 403.18,-787.37"/>
</g>
<!-- Node73&#45;&gt;Node67 -->
<g id="edge59" class="edge">
<title>Node73&#45;&gt;Node67</title>
<path fill="none" stroke="midnightblue" d="M386.77,-757.46C369.56,-752.3 349.94,-746.4 333.91,-741.59"/>
<polygon fill="midnightblue" stroke="midnightblue" points="385.99,-760.89 396.58,-760.41 388.01,-754.18 385.99,-760.89"/>
</g>
<!-- Node74&#45;&gt;Node49 -->
<g id="edge61" class="edge">
<title>Node74&#45;&gt;Node49</title>
<path fill="none" stroke="midnightblue" d="M372.96,-884C364.13,-884 355.1,-884 346.57,-884"/>
<polygon fill="midnightblue" stroke="midnightblue" points="373.19,-887.5 383.19,-884 373.19,-880.5 373.19,-887.5"/>
</g>
<!-- Node74&#45;&gt;Node57 -->
<g id="edge62" class="edge">
<title>Node74&#45;&gt;Node57</title>
<path fill="none" stroke="midnightblue" d="M393.48,-870.99C372.74,-863.28 346.91,-853.69 328,-846.66"/>
<polygon fill="midnightblue" stroke="midnightblue" points="392.31,-874.29 402.9,-874.49 394.75,-867.73 392.31,-874.29"/>
</g>
</g>
</svg>
        <g id="navigator" transform="translate(0 0)" fill="#404254">
                <rect fill="#f2f5e9" fill-opacity="0.5" stroke="#606060" stroke-width=".5" x="0" y="0" width="60" height="60"/>
                <use id="zoomplus" xlink:href="#zoomPlus" x="17" y="9" onmousedown="handleZoom(evt,'in')"/>
                <use id="zoomminus" xlink:href="#zoomMin" x="42" y="9" onmousedown="handleZoom(evt,'out')"/>
                <use id="reset" xlink:href="#resetDef" x="30" y="36" onmousedown="handleReset()"/>
                <g id="arrowUp" xlink:href="#dirArrow" transform="translate(30 24)" onmousedown="handlePan(0,-1)">
                  <use xlink:href="#rim" fill="#404040">
                        <set attributeName="fill" to="#808080" begin="arrowUp.mouseover" end="arrowUp.mouseout"/>
                  </use>
                  <path fill="none" stroke="white" stroke-width="1.5" d="M0,-3.0v7 M-2.5,-0.5L0,-3.0L2.5,-0.5"/>
                </g>
                <g id="arrowRight" xlink:href="#dirArrow" transform="rotate(90) translate(36 -43)" onmousedown="handlePan(1,0)">
                  <use xlink:href="#rim" fill="#404040">
                        <set attributeName="fill" to="#808080" begin="arrowRight.mouseover" end="arrowRight.mouseout"/>
                  </use>
                  <path fill="none" stroke="white" stroke-width="1.5" d="M0,-3.0v7 M-2.5,-0.5L0,-3.0L2.5,-0.5"/>
                </g>
                <g id="arrowDown" xlink:href="#dirArrow" transform="rotate(180) translate(-30 -48)" onmousedown="handlePan(0,1)">
                  <use xlink:href="#rim" fill="#404040">
                        <set attributeName="fill" to="#808080" begin="arrowDown.mouseover" end="arrowDown.mouseout"/>
                  </use>
                  <path fill="none" stroke="white" stroke-width="1.5" d="M0,-3.0v7 M-2.5,-0.5L0,-3.0L2.5,-0.5"/>
                </g>
                <g id="arrowLeft" xlink:href="#dirArrow" transform="rotate(270) translate(-36 17)" onmousedown="handlePan(-1,0)">
                  <use xlink:href="#rim" fill="#404040">
                        <set attributeName="fill" to="#808080" begin="arrowLeft.mouseover" end="arrowLeft.mouseout"/>
                  </use>
                  <path fill="none" stroke="white" stroke-width="1.5" d="M0,-3.0v7 M-2.5,-0.5L0,-3.0L2.5,-0.5"/>
                </g>
        </g>
        <svg viewBox="0 0 15 15" width="100%" height="30px" preserveAspectRatio="xMaxYMin meet">
         <g id="arrow_out" transform="scale(0.3 0.3)">
          <a xlink:href="code__80086E70_8c_a6eea48094f49bb346ce1170842d955b2_icgraph_org.svg" target="_base">
           <rect id="button" ry="5" rx="5" y="6" x="6" height="38" width="38"
                fill="#f2f5e9" fill-opacity="0.5" stroke="#606060" stroke-width="1.0"/>
           <path id="arrow"
             d="M 11.500037,31.436501 C 11.940474,20.09759 22.043105,11.32322 32.158766,21.979434 L 37.068811,17.246167 C 37.068811,17.246167 37.088388,32 37.088388,32 L 22.160133,31.978069 C 22.160133,31.978069 26.997745,27.140456 26.997745,27.140456 C 18.528582,18.264221 13.291696,25.230495 11.500037,31.436501 z"
             style="fill:#404040;"/>
          </a>
         </g>
        </svg>
</svg>
