<?xml version="1.0" encoding="UTF-8" standalone="no"?>
<!DOCTYPE svg PUBLIC "-//W3C//DTD SVG 1.1//EN"
 "http://www.w3.org/Graphics/SVG/1.1/DTD/svg11.dtd">
<!-- Generated by graphviz version 2.43.0 (0)
 -->
<!-- Title: src/code_80091750.h Pages: 1 -->
<!--zoomable 207 -->
<svg id="main" version="1.1" xmlns="http://www.w3.org/2000/svg" xmlns:xlink="http://www.w3.org/1999/xlink" xml:space="preserve" onload="init(evt)">
<style type="text/css"><![CDATA[
.edge:hover path { stroke: red; }
.edge:hover polygon { stroke: red; fill: red; }
]]></style>
<script type="text/javascript"><![CDATA[
var edges = document.getElementsByTagName('g');
if (edges && edges.length) {
  for (var i=0;i<edges.length;i++) {
    if (edges[i].id.substr(0,4)=='edge') {
      edges[i].setAttribute('class','edge');
    }
  }
}
]]></script>
        <defs>
                <circle id="rim" cx="0" cy="0" r="7"/>
                <circle id="rim2" cx="0" cy="0" r="3.5"/>
                <g id="zoomPlus">
                        <use xlink:href="#rim" fill="#404040">
                                <set attributeName="fill" to="#808080" begin="zoomplus.mouseover" end="zoomplus.mouseout"/>
                        </use>
                        <path d="M-4,0h8M0,-4v8" fill="none" stroke="white" stroke-width="1.5" pointer-events="none"/>
                </g>
                <g id="zoomMin">
                        <use xlink:href="#rim" fill="#404040">
                                <set attributeName="fill" to="#808080" begin="zoomminus.mouseover" end="zoomminus.mouseout"/>
                        </use>
                        <path d="M-4,0h8" fill="none" stroke="white" stroke-width="1.5" pointer-events="none"/>
                </g>
                <g id="dirArrow">
                        <path fill="none" stroke="white" stroke-width="1.5" d="M0,-3.0v7 M-2.5,-0.5L0,-3.0L2.5,-0.5"/>
                </g>
               <g id="resetDef">
                       <use xlink:href="#rim2" fill="#404040">
                               <set attributeName="fill" to="#808080" begin="reset.mouseover" end="reset.mouseout"/>
                       </use>
               </g>
        </defs>

<script type="text/javascript">
var viewWidth = 2858;
var viewHeight = 207;
var sectionId = 'dynsection-1';
</script>
<script xlink:href="svgpan.js"/>
<svg id="graph" class="graph">
<g id="viewport">
<title>src/code_80091750.h</title>
<polygon fill="white" stroke="transparent" points="-4,4 -4,-203 2854,-203 2854,4 -4,4"/>
<!-- Node1 -->
<g id="node1" class="node">
<title>Node1</title>
<g id="a_node1"><a xlink:title=" ">
<polygon fill="#bfbfbf" stroke="black" points="1441,-179.5 1441,-198.5 1560,-198.5 1560,-179.5 1441,-179.5"/>
<text text-anchor="middle" x="1500.5" y="-186.5" font-family="Helvetica,sans-Serif" font-size="10.00">src/code_80091750.h</text>
</a>
</g>
</g>
<!-- Node2 -->
<g id="node2" class="node">
<title>Node2</title>
<g id="a_node2"><a xlink:href="external_8c.html" target="_top" xlink:title=" ">
<polygon fill="white" stroke="black" points="0,-118 0,-137 113,-137 113,-118 0,-118"/>
<text text-anchor="middle" x="56.5" y="-125" font-family="Helvetica,sans-Serif" font-size="10.00">src/audio/external.c</text>
</a>
</g>
</g>
<!-- Node1&#45;&gt;Node2 -->
<g id="edge1" class="edge">
<title>Node1&#45;&gt;Node2</title>
<path fill="none" stroke="midnightblue" d="M1430.62,-187.41C1187.52,-185.11 379.63,-175.17 122.5,-143 111.67,-141.65 100,-139.36 89.53,-137"/>
<polygon fill="midnightblue" stroke="midnightblue" points="1430.71,-190.92 1440.74,-187.51 1430.77,-183.92 1430.71,-190.92"/>
</g>
<!-- Node3 -->
<g id="node3" class="node">
<title>Node3</title>
<g id="a_node3"><a xlink:href="code__800029B0_8c.html" target="_top" xlink:title=" ">
<polygon fill="white" stroke="black" points="131,-118 131,-137 250,-137 250,-118 131,-118"/>
<text text-anchor="middle" x="190.5" y="-125" font-family="Helvetica,sans-Serif" font-size="10.00">src/code_800029B0.c</text>
</a>
</g>
</g>
<!-- Node1&#45;&gt;Node3 -->
<g id="edge2" class="edge">
<title>Node1&#45;&gt;Node3</title>
<path fill="none" stroke="midnightblue" d="M1430.79,-187.04C1204.04,-183.67 488.83,-171.05 259.5,-143 248.32,-141.63 236.27,-139.38 225.41,-137.04"/>
<polygon fill="midnightblue" stroke="midnightblue" points="1430.85,-190.54 1440.9,-187.19 1430.95,-183.54 1430.85,-190.54"/>
</g>
<!-- Node4 -->
<g id="node4" class="node">
<title>Node4</title>
<g id="a_node4"><a xlink:href="code__80005FD0_8c.html" target="_top" xlink:title=" ">
<polygon fill="white" stroke="black" points="268.5,-118 268.5,-137 388.5,-137 388.5,-118 268.5,-118"/>
<text text-anchor="middle" x="328.5" y="-125" font-family="Helvetica,sans-Serif" font-size="10.00">src/code_80005FD0.c</text>
</a>
</g>
</g>
<!-- Node1&#45;&gt;Node4 -->
<g id="edge3" class="edge">
<title>Node1&#45;&gt;Node4</title>
<path fill="none" stroke="midnightblue" d="M1430.56,-186.64C1220.86,-182.33 599.52,-167.76 398.5,-143 387.17,-141.6 374.94,-139.34 363.92,-137.01"/>
<polygon fill="midnightblue" stroke="midnightblue" points="1430.75,-190.14 1440.82,-186.85 1430.9,-183.15 1430.75,-190.14"/>
</g>
<!-- Node5 -->
<g id="node5" class="node">
<title>Node5</title>
<g id="a_node5"><a xlink:href="code__8006E9C0_8c.html" target="_top" xlink:title=" ">
<polygon fill="white" stroke="black" points="407,-118 407,-137 526,-137 526,-118 407,-118"/>
<text text-anchor="middle" x="466.5" y="-125" font-family="Helvetica,sans-Serif" font-size="10.00">src/code_8006E9C0.c</text>
</a>
</g>
</g>
<!-- Node1&#45;&gt;Node5 -->
<g id="edge4" class="edge">
<title>Node1&#45;&gt;Node5</title>
<path fill="none" stroke="midnightblue" d="M1430.78,-188.57C1271.47,-189.05 868.82,-185.52 535.5,-143 524.45,-141.59 512.54,-139.35 501.77,-137.05"/>
<polygon fill="midnightblue" stroke="midnightblue" points="1430.93,-192.07 1440.92,-188.54 1430.9,-185.07 1430.93,-192.07"/>
</g>
<!-- Node6 -->
<g id="node6" class="node">
<title>Node6</title>
<g id="a_node6"><a xlink:href="code__80071F00_8c.html" target="_top" xlink:title=" ">
<polygon fill="white" stroke="black" points="544,-118 544,-137 663,-137 663,-118 544,-118"/>
<text text-anchor="middle" x="603.5" y="-125" font-family="Helvetica,sans-Serif" font-size="10.00">src/code_80071F00.c</text>
</a>
</g>
</g>
<!-- Node1&#45;&gt;Node6 -->
<g id="edge5" class="edge">
<title>Node1&#45;&gt;Node6</title>
<path fill="none" stroke="midnightblue" d="M1430.61,-187.8C1287.64,-186.59 951.69,-179.7 672.5,-143 661.58,-141.56 649.81,-139.35 639.13,-137.07"/>
<polygon fill="midnightblue" stroke="midnightblue" points="1430.95,-191.3 1440.98,-187.88 1431,-184.3 1430.95,-191.3"/>
</g>
<!-- Node7 -->
<g id="node7" class="node">
<title>Node7</title>
<g id="a_node7"><a xlink:href="code__80091750_8c.html" target="_top" xlink:title=" ">
<polygon fill="white" stroke="black" points="681,-118 681,-137 800,-137 800,-118 681,-118"/>
<text text-anchor="middle" x="740.5" y="-125" font-family="Helvetica,sans-Serif" font-size="10.00">src/code_80091750.c</text>
</a>
</g>
</g>
<!-- Node1&#45;&gt;Node7 -->
<g id="edge6" class="edge">
<title>Node1&#45;&gt;Node7</title>
<path fill="none" stroke="midnightblue" d="M1430.38,-186.72C1305.18,-183.71 1035.12,-173.89 809.5,-143 798.71,-141.52 787.08,-139.32 776.5,-137.07"/>
<polygon fill="midnightblue" stroke="midnightblue" points="1430.52,-190.22 1440.6,-186.96 1430.68,-183.23 1430.52,-190.22"/>
</g>
<!-- Node8 -->
<g id="node8" class="node">
<title>Node8</title>
<g id="a_node8"><a xlink:href="code__800AF9B0_8c.html" target="_top" xlink:title=" ">
<polygon fill="white" stroke="black" points="818.5,-118 818.5,-137 938.5,-137 938.5,-118 818.5,-118"/>
<text text-anchor="middle" x="878.5" y="-125" font-family="Helvetica,sans-Serif" font-size="10.00">src/code_800AF9B0.c</text>
</a>
</g>
</g>
<!-- Node1&#45;&gt;Node8 -->
<g id="edge7" class="edge">
<title>Node1&#45;&gt;Node8</title>
<path fill="none" stroke="midnightblue" d="M1430.72,-185.14C1325.53,-180.2 1120.24,-168.08 947.5,-143 936.84,-141.45 925.36,-139.26 914.87,-137.04"/>
<polygon fill="midnightblue" stroke="midnightblue" points="1430.74,-188.65 1440.89,-185.61 1431.06,-181.66 1430.74,-188.65"/>
</g>
<!-- Node9 -->
<g id="node9" class="node">
<title>Node9</title>
<g id="a_node9"><a xlink:href="all__variables_8h.html" target="_top" xlink:title=" ">
<polygon fill="white" stroke="black" points="956.5,-118 956.5,-137 1094.5,-137 1094.5,-118 956.5,-118"/>
<text text-anchor="middle" x="1025.5" y="-125" font-family="Helvetica,sans-Serif" font-size="10.00">src/debug/all_variables.h</text>
</a>
</g>
</g>
<!-- Node1&#45;&gt;Node9 -->
<g id="edge8" class="edge">
<title>Node1&#45;&gt;Node9</title>
<path fill="none" stroke="midnightblue" d="M1430.62,-181.52C1351.35,-173.82 1218.31,-159.89 1104.5,-143 1092.91,-141.28 1080.43,-139.13 1068.87,-137.01"/>
<polygon fill="midnightblue" stroke="midnightblue" points="1430.67,-185.04 1440.96,-182.51 1431.34,-178.07 1430.67,-185.04"/>
</g>
<!-- Node12 -->
<g id="node12" class="node">
<title>Node12</title>
<g id="a_node12"><a xlink:href="ceremony__and__credits_8c.html" target="_top" xlink:title=" ">
<polygon fill="white" stroke="black" points="1113,-112.5 1113,-142.5 1232,-142.5 1232,-112.5 1113,-112.5"/>
<text text-anchor="start" x="1121" y="-130.5" font-family="Helvetica,sans-Serif" font-size="10.00">src/ending/ceremony</text>
<text text-anchor="middle" x="1172.5" y="-119.5" font-family="Helvetica,sans-Serif" font-size="10.00">_and_credits.c</text>
</a>
</g>
</g>
<!-- Node1&#45;&gt;Node12 -->
<g id="edge11" class="edge">
<title>Node1&#45;&gt;Node12</title>
<path fill="none" stroke="midnightblue" d="M1438.14,-177.8C1385.61,-169.05 1308.52,-155.86 1241.5,-143 1238.49,-142.42 1235.42,-141.82 1232.31,-141.2"/>
<polygon fill="midnightblue" stroke="midnightblue" points="1437.88,-181.3 1448.31,-179.49 1439.02,-174.39 1437.88,-181.3"/>
</g>
<!-- Node13 -->
<g id="node13" class="node">
<title>Node13</title>
<g id="a_node13"><a xlink:href="code__80280000_8c.html" target="_top" xlink:title=" ">
<polygon fill="white" stroke="black" points="1250,-118 1250,-137 1405,-137 1405,-118 1250,-118"/>
<text text-anchor="middle" x="1327.5" y="-125" font-family="Helvetica,sans-Serif" font-size="10.00">src/ending/code_80280000.c</text>
</a>
</g>
</g>
<!-- Node1&#45;&gt;Node13 -->
<g id="edge12" class="edge">
<title>Node1&#45;&gt;Node13</title>
<path fill="none" stroke="midnightblue" d="M1465.85,-176.08C1432.22,-164.52 1382.02,-147.25 1352.24,-137.01"/>
<polygon fill="midnightblue" stroke="midnightblue" points="1465.12,-179.53 1475.71,-179.48 1467.4,-172.91 1465.12,-179.53"/>
</g>
<!-- Node14 -->
<g id="node14" class="node">
<title>Node14</title>
<g id="a_node14"><a xlink:href="code__80281780_8c.html" target="_top" xlink:title=" ">
<polygon fill="white" stroke="black" points="1423,-118 1423,-137 1578,-137 1578,-118 1423,-118"/>
<text text-anchor="middle" x="1500.5" y="-125" font-family="Helvetica,sans-Serif" font-size="10.00">src/ending/code_80281780.c</text>
</a>
</g>
</g>
<!-- Node1&#45;&gt;Node14 -->
<g id="edge13" class="edge">
<title>Node1&#45;&gt;Node14</title>
<path fill="none" stroke="midnightblue" d="M1500.5,-169.32C1500.5,-158.5 1500.5,-145.4 1500.5,-137.01"/>
<polygon fill="midnightblue" stroke="midnightblue" points="1497,-169.48 1500.5,-179.48 1504,-169.48 1497,-169.48"/>
</g>
<!-- Node15 -->
<g id="node15" class="node">
<title>Node15</title>
<g id="a_node15"><a xlink:href="code__80281C40_8c.html" target="_top" xlink:title=" ">
<polygon fill="white" stroke="black" points="1596,-118 1596,-137 1751,-137 1751,-118 1596,-118"/>
<text text-anchor="middle" x="1673.5" y="-125" font-family="Helvetica,sans-Serif" font-size="10.00">src/ending/code_80281C40.c</text>
</a>
</g>
</g>
<!-- Node1&#45;&gt;Node15 -->
<g id="edge14" class="edge">
<title>Node1&#45;&gt;Node15</title>
<path fill="none" stroke="midnightblue" d="M1535.15,-176.08C1568.78,-164.52 1618.98,-147.25 1648.76,-137.01"/>
<polygon fill="midnightblue" stroke="midnightblue" points="1533.6,-172.91 1525.29,-179.48 1535.88,-179.53 1533.6,-172.91"/>
</g>
<!-- Node16 -->
<g id="node16" class="node">
<title>Node16</title>
<g id="a_node16"><a xlink:href="hud__renderer_8c.html" target="_top" xlink:title=" ">
<polygon fill="white" stroke="black" points="1769.5,-118 1769.5,-137 1875.5,-137 1875.5,-118 1769.5,-118"/>
<text text-anchor="middle" x="1822.5" y="-125" font-family="Helvetica,sans-Serif" font-size="10.00">src/hud_renderer.c</text>
</a>
</g>
</g>
<!-- Node1&#45;&gt;Node16 -->
<g id="edge15" class="edge">
<title>Node1&#45;&gt;Node16</title>
<path fill="none" stroke="midnightblue" d="M1565.09,-177.9C1617.82,-169.39 1694.18,-156.48 1760.5,-143 1769.27,-141.22 1778.7,-139.11 1787.49,-137.06"/>
<polygon fill="midnightblue" stroke="midnightblue" points="1564.52,-174.44 1555.2,-179.48 1565.63,-181.35 1564.52,-174.44"/>
</g>
<!-- Node17 -->
<g id="node17" class="node">
<title>Node17</title>
<g id="a_node17"><a xlink:href="main_8c.html" target="_top" xlink:title=" ">
<polygon fill="white" stroke="black" points="1894,-118 1894,-137 1961,-137 1961,-118 1894,-118"/>
<text text-anchor="middle" x="1927.5" y="-125" font-family="Helvetica,sans-Serif" font-size="10.00">src/main.c</text>
</a>
</g>
</g>
<!-- Node1&#45;&gt;Node17 -->
<g id="edge16" class="edge">
<title>Node1&#45;&gt;Node17</title>
<path fill="none" stroke="midnightblue" d="M1570.15,-184.22C1647.65,-179 1776.23,-167.32 1884.5,-143 1891.26,-141.48 1898.46,-139.29 1904.99,-137.07"/>
<polygon fill="midnightblue" stroke="midnightblue" points="1569.77,-180.73 1560.02,-184.88 1570.23,-187.72 1569.77,-180.73"/>
</g>
<!-- Node18 -->
<g id="node18" class="node">
<title>Node18</title>
<g id="a_node18"><a xlink:href="menus_8c.html" target="_top" xlink:title=" ">
<polygon fill="white" stroke="black" points="1979,-118 1979,-137 2054,-137 2054,-118 1979,-118"/>
<text text-anchor="middle" x="2016.5" y="-125" font-family="Helvetica,sans-Serif" font-size="10.00">src/menus.c</text>
</a>
</g>
</g>
<!-- Node1&#45;&gt;Node18 -->
<g id="edge17" class="edge">
<title>Node1&#45;&gt;Node18</title>
<path fill="none" stroke="midnightblue" d="M1570.14,-185.89C1662.48,-182.06 1830.16,-171.51 1970.5,-143 1977.72,-141.53 1985.41,-139.36 1992.4,-137.14"/>
<polygon fill="midnightblue" stroke="midnightblue" points="1569.93,-182.4 1560.07,-186.3 1570.21,-189.39 1569.93,-182.4"/>
</g>
<!-- Node19 -->
<g id="node19" class="node">
<title>Node19</title>
<g id="a_node19"><a xlink:href="actors__extended_8c.html" target="_top" xlink:title=" ">
<polygon fill="white" stroke="black" points="2072.5,-118 2072.5,-137 2228.5,-137 2228.5,-118 2072.5,-118"/>
<text text-anchor="middle" x="2150.5" y="-125" font-family="Helvetica,sans-Serif" font-size="10.00">src/racing/actors_extended.c</text>
</a>
</g>
</g>
<!-- Node1&#45;&gt;Node19 -->
<g id="edge18" class="edge">
<title>Node1&#45;&gt;Node19</title>
<path fill="none" stroke="midnightblue" d="M1570.24,-184.35C1676.81,-178.33 1886.49,-164.78 2063.5,-143 2076.57,-141.39 2090.68,-139.23 2103.65,-137.06"/>
<polygon fill="midnightblue" stroke="midnightblue" points="1570.04,-180.85 1560.25,-184.91 1570.43,-187.84 1570.04,-180.85"/>
</g>
<!-- Node20 -->
<g id="node20" class="node">
<title>Node20</title>
<g id="a_node20"><a xlink:href="race__logic_8c.html" target="_top" xlink:title=" ">
<polygon fill="white" stroke="black" points="2247,-118 2247,-137 2372,-137 2372,-118 2247,-118"/>
<text text-anchor="middle" x="2309.5" y="-125" font-family="Helvetica,sans-Serif" font-size="10.00">src/racing/race_logic.c</text>
</a>
</g>
</g>
<!-- Node1&#45;&gt;Node20 -->
<g id="edge19" class="edge">
<title>Node1&#45;&gt;Node20</title>
<path fill="none" stroke="midnightblue" d="M1570.8,-186.93C1702.25,-184.21 1994,-174.8 2237.5,-143 2248.88,-141.51 2261.16,-139.28 2272.29,-137.01"/>
<polygon fill="midnightblue" stroke="midnightblue" points="1570.4,-183.43 1560.47,-187.13 1570.54,-190.43 1570.4,-183.43"/>
</g>
<!-- Node21 -->
<g id="node21" class="node">
<title>Node21</title>
<g id="a_node21"><a xlink:href="skybox__and__splitscreen_8c.html" target="_top" xlink:title=" ">
<polygon fill="white" stroke="black" points="2390,-112.5 2390,-142.5 2515,-142.5 2515,-112.5 2390,-112.5"/>
<text text-anchor="start" x="2398" y="-130.5" font-family="Helvetica,sans-Serif" font-size="10.00">src/racing/skybox_and</text>
<text text-anchor="middle" x="2452.5" y="-119.5" font-family="Helvetica,sans-Serif" font-size="10.00">_splitscreen.c</text>
</a>
</g>
</g>
<!-- Node1&#45;&gt;Node21 -->
<g id="edge20" class="edge">
<title>Node1&#45;&gt;Node21</title>
<path fill="none" stroke="midnightblue" d="M1570.46,-187.99C1719.96,-187.19 2081.42,-181.09 2381.5,-143 2384.25,-142.65 2387.04,-142.26 2389.87,-141.82"/>
<polygon fill="midnightblue" stroke="midnightblue" points="1570.05,-184.49 1560.07,-188.04 1570.08,-191.49 1570.05,-184.49"/>
</g>
<!-- Node22 -->
<g id="node22" class="node">
<title>Node22</title>
<g id="a_node22"><a xlink:href="save_8c.html" target="_top" xlink:title=" ">
<polygon fill="white" stroke="black" points="2533,-118 2533,-137 2598,-137 2598,-118 2533,-118"/>
<text text-anchor="middle" x="2565.5" y="-125" font-family="Helvetica,sans-Serif" font-size="10.00">src/save.c</text>
</a>
</g>
</g>
<!-- Node1&#45;&gt;Node22 -->
<g id="edge21" class="edge">
<title>Node1&#45;&gt;Node22</title>
<path fill="none" stroke="midnightblue" d="M1570.11,-187.62C1769.66,-186.09 2341.11,-178.64 2524.5,-143 2531.32,-141.68 2538.53,-139.43 2544.97,-137.1"/>
<polygon fill="midnightblue" stroke="midnightblue" points="1570.02,-184.12 1560.05,-187.69 1570.07,-191.12 1570.02,-184.12"/>
</g>
<!-- Node23 -->
<g id="node23" class="node">
<title>Node23</title>
<g id="a_node23"><a xlink:href="spawn__players_8c.html" target="_top" xlink:title=" ">
<polygon fill="white" stroke="black" points="2616,-118 2616,-137 2731,-137 2731,-118 2616,-118"/>
<text text-anchor="middle" x="2673.5" y="-125" font-family="Helvetica,sans-Serif" font-size="10.00">src/spawn_players.c</text>
</a>
</g>
</g>
<!-- Node1&#45;&gt;Node23 -->
<g id="edge22" class="edge">
<title>Node1&#45;&gt;Node23</title>
<path fill="none" stroke="midnightblue" d="M1570.41,-186.77C1780.73,-182.8 2405.6,-169.08 2607.5,-143 2618.2,-141.62 2629.74,-139.36 2640.12,-137.03"/>
<polygon fill="midnightblue" stroke="midnightblue" points="1570.04,-183.27 1560.11,-186.96 1570.18,-190.27 1570.04,-183.27"/>
</g>
<!-- Node24 -->
<g id="node24" class="node">
<title>Node24</title>
<g id="a_node24"><a xlink:href="staff__ghosts_8c.html" target="_top" xlink:title=" ">
<polygon fill="white" stroke="black" points="2749,-118 2749,-137 2850,-137 2850,-118 2749,-118"/>
<text text-anchor="middle" x="2799.5" y="-125" font-family="Helvetica,sans-Serif" font-size="10.00">src/staff_ghosts.c</text>
</a>
</g>
</g>
<!-- Node1&#45;&gt;Node24 -->
<g id="edge23" class="edge">
<title>Node1&#45;&gt;Node24</title>
<path fill="none" stroke="midnightblue" d="M1570.19,-187.35C1796.89,-184.93 2511.86,-174.9 2740.5,-143 2750.22,-141.64 2760.66,-139.36 2770.02,-137"/>
<polygon fill="midnightblue" stroke="midnightblue" points="1570.05,-183.85 1560.09,-187.45 1570.12,-190.85 1570.05,-183.85"/>
</g>
<!-- Node10 -->
<g id="node10" class="node">
<title>Node10</title>
<g id="a_node10"><a xlink:href="debug_8inc_8c.html" target="_top" xlink:title=" ">
<polygon fill="white" stroke="black" points="964.5,-56.5 964.5,-75.5 1086.5,-75.5 1086.5,-56.5 964.5,-56.5"/>
<text text-anchor="middle" x="1025.5" y="-63.5" font-family="Helvetica,sans-Serif" font-size="10.00">src/debug/debug.inc.c</text>
</a>
</g>
</g>
<!-- Node9&#45;&gt;Node10 -->
<g id="edge9" class="edge">
<title>Node9&#45;&gt;Node10</title>
<path fill="none" stroke="midnightblue" d="M1025.5,-107.82C1025.5,-97 1025.5,-83.9 1025.5,-75.51"/>
<polygon fill="midnightblue" stroke="midnightblue" points="1022,-107.98 1025.5,-117.98 1029,-107.98 1022,-107.98"/>
</g>
<!-- Node11 -->
<g id="node11" class="node">
<title>Node11</title>
<g id="a_node11"><a xlink:href="debug_8c.html" target="_top" xlink:title=" ">
<polygon fill="white" stroke="black" points="973,-0.5 973,-19.5 1078,-19.5 1078,-0.5 973,-0.5"/>
<text text-anchor="middle" x="1025.5" y="-7.5" font-family="Helvetica,sans-Serif" font-size="10.00">src/debug/debug.c</text>
</a>
</g>
</g>
<!-- Node10&#45;&gt;Node11 -->
<g id="edge10" class="edge">
<title>Node10&#45;&gt;Node11</title>
<path fill="none" stroke="midnightblue" d="M1025.5,-45.8C1025.5,-36.91 1025.5,-26.78 1025.5,-19.75"/>
<polygon fill="midnightblue" stroke="midnightblue" points="1022,-46.08 1025.5,-56.08 1029,-46.08 1022,-46.08"/>
</g>
</g>
</svg>
        <g id="navigator" transform="translate(0 0)" fill="#404254">
                <rect fill="#f2f5e9" fill-opacity="0.5" stroke="#606060" stroke-width=".5" x="0" y="0" width="60" height="60"/>
                <use id="zoomplus" xlink:href="#zoomPlus" x="17" y="9" onmousedown="handleZoom(evt,'in')"/>
                <use id="zoomminus" xlink:href="#zoomMin" x="42" y="9" onmousedown="handleZoom(evt,'out')"/>
                <use id="reset" xlink:href="#resetDef" x="30" y="36" onmousedown="handleReset()"/>
                <g id="arrowUp" xlink:href="#dirArrow" transform="translate(30 24)" onmousedown="handlePan(0,-1)">
                  <use xlink:href="#rim" fill="#404040">
                        <set attributeName="fill" to="#808080" begin="arrowUp.mouseover" end="arrowUp.mouseout"/>
                  </use>
                  <path fill="none" stroke="white" stroke-width="1.5" d="M0,-3.0v7 M-2.5,-0.5L0,-3.0L2.5,-0.5"/>
                </g>
                <g id="arrowRight" xlink:href="#dirArrow" transform="rotate(90) translate(36 -43)" onmousedown="handlePan(1,0)">
                  <use xlink:href="#rim" fill="#404040">
                        <set attributeName="fill" to="#808080" begin="arrowRight.mouseover" end="arrowRight.mouseout"/>
                  </use>
                  <path fill="none" stroke="white" stroke-width="1.5" d="M0,-3.0v7 M-2.5,-0.5L0,-3.0L2.5,-0.5"/>
                </g>
                <g id="arrowDown" xlink:href="#dirArrow" transform="rotate(180) translate(-30 -48)" onmousedown="handlePan(0,1)">
                  <use xlink:href="#rim" fill="#404040">
                        <set attributeName="fill" to="#808080" begin="arrowDown.mouseover" end="arrowDown.mouseout"/>
                  </use>
                  <path fill="none" stroke="white" stroke-width="1.5" d="M0,-3.0v7 M-2.5,-0.5L0,-3.0L2.5,-0.5"/>
                </g>
                <g id="arrowLeft" xlink:href="#dirArrow" transform="rotate(270) translate(-36 17)" onmousedown="handlePan(-1,0)">
                  <use xlink:href="#rim" fill="#404040">
                        <set attributeName="fill" to="#808080" begin="arrowLeft.mouseover" end="arrowLeft.mouseout"/>
                  </use>
                  <path fill="none" stroke="white" stroke-width="1.5" d="M0,-3.0v7 M-2.5,-0.5L0,-3.0L2.5,-0.5"/>
                </g>
        </g>
        <svg viewBox="0 0 15 15" width="100%" height="30px" preserveAspectRatio="xMaxYMin meet">
         <g id="arrow_out" transform="scale(0.3 0.3)">
          <a xlink:href="code__80091750_8h__dep__incl_org.svg" target="_base">
           <rect id="button" ry="5" rx="5" y="6" x="6" height="38" width="38"
                fill="#f2f5e9" fill-opacity="0.5" stroke="#606060" stroke-width="1.0"/>
           <path id="arrow"
             d="M 11.500037,31.436501 C 11.940474,20.09759 22.043105,11.32322 32.158766,21.979434 L 37.068811,17.246167 C 37.068811,17.246167 37.088388,32 37.088388,32 L 22.160133,31.978069 C 22.160133,31.978069 26.997745,27.140456 26.997745,27.140456 C 18.528582,18.264221 13.291696,25.230495 11.500037,31.436501 z"
             style="fill:#404040;"/>
          </a>
         </g>
        </svg>
</svg>
