<?xml version="1.0" encoding="UTF-8" standalone="no"?>
<!DOCTYPE svg PUBLIC "-//W3C//DTD SVG 1.1//EN"
 "http://www.w3.org/Graphics/SVG/1.1/DTD/svg11.dtd">
<!-- Generated by graphviz version 2.43.0 (0)
 -->
<!-- Title: func_8005ED48 Pages: 1 -->
<svg width="367pt" height="187pt"
 viewBox="0.00 0.00 367.00 186.50" xmlns="http://www.w3.org/2000/svg" xmlns:xlink="http://www.w3.org/1999/xlink">

<svg id="main" version="1.1" xmlns="http://www.w3.org/2000/svg" xmlns:xlink="http://www.w3.org/1999/xlink" xml:space="preserve" onload="init(evt)">
<style type="text/css"><![CDATA[
.node, .edge {opacity: 0.7;}
.node.selected, .edge.selected {opacity: 1;}
.edge:hover path { stroke: red; }
.edge:hover polygon { stroke: red; fill: red; }
]]></style>
<script type="application/ecmascript" xlink:href="svg.min.js"/>
<svg id="graph" class="graph">
<g id="graph0" class="graph" transform="scale(1 1) rotate(0) translate(4 182.5)">
<title>func_8005ED48</title>
<!-- Node1 -->
<g id="Node000001" class="node">
<title>Node1</title>
<g id="a_Node000001"><a xlink:title=" ">
<polygon fill="#999999" stroke="#666666" points="92,-104.5 0,-104.5 0,-85.5 92,-85.5 92,-104.5"/>
<text text-anchor="middle" x="46" y="-92.5" font-family="Helvetica,sans-Serif" font-size="10.00">func_8005ED48</text>
</a>
</g>
</g>
<!-- Node2 -->
<g id="Node000002" class="node">
<title>Node2</title>
<g id="a_Node000002"><a xlink:href="code__80057C60_8c.html#a4dbd95415324d40d5bf6e7ea30dc9d11" target="_top" xlink:title=" ">
<polygon fill="white" stroke="#666666" points="234.5,-178.5 139.5,-178.5 139.5,-159.5 234.5,-159.5 234.5,-178.5"/>
<text text-anchor="middle" x="187" y="-166.5" font-family="Helvetica,sans-Serif" font-size="10.00">func_8005DAD8</text>
</a>
</g>
</g>
<!-- Node1&#45;&gt;Node2 -->
<g id="edge1_Node000001_Node000002" class="edge">
<title>Node1&#45;&gt;Node2</title>
<g id="a_edge1_Node000001_Node000002"><a xlink:title=" ">
<path fill="none" stroke="#63b8ff" d="M58.37,-104.55C73.44,-116.79 101.25,-137.98 128,-151 131.73,-152.82 135.69,-154.5 139.71,-156.05"/>
<polygon fill="#63b8ff" stroke="#63b8ff" points="138.55,-159.35 149.15,-159.42 140.91,-152.76 138.55,-159.35"/>
</a>
</g>
</g>
<!-- Node3 -->
<g id="Node000003" class="node">
<title>Node3</title>
<g id="a_Node000003"><a xlink:href="code__80057C60_8c.html#a1272a6c50cfec9b141d07f72a0e2f2c5" target="_top" xlink:title=" ">
<polygon fill="white" stroke="#666666" points="242,-141.5 132,-141.5 132,-122.5 242,-122.5 242,-141.5"/>
<text text-anchor="middle" x="187" y="-129.5" font-family="Helvetica,sans-Serif" font-size="10.00">init_particle_player</text>
</a>
</g>
</g>
<!-- Node1&#45;&gt;Node3 -->
<g id="edge2_Node000001_Node000003" class="edge">
<title>Node1&#45;&gt;Node3</title>
<g id="a_edge2_Node000001_Node000003"><a xlink:title=" ">
<path fill="none" stroke="#63b8ff" d="M82.8,-104.53C100.25,-109.17 121.45,-114.82 140.08,-119.78"/>
<polygon fill="#63b8ff" stroke="#63b8ff" points="139.28,-123.19 149.84,-122.38 141.08,-116.42 139.28,-123.19"/>
</a>
</g>
</g>
<!-- Node4 -->
<g id="Node000004" class="node">
<title>Node4</title>
<g id="a_Node000004"><a xlink:href="math__util_8c.html#a151b63b8adf9af7e4054b3b84bd226dc" target="_top" xlink:title=" ">
<polygon fill="white" stroke="#666666" points="223,-104.5 151,-104.5 151,-85.5 223,-85.5 223,-104.5"/>
<text text-anchor="middle" x="187" y="-92.5" font-family="Helvetica,sans-Serif" font-size="10.00">random_int</text>
</a>
</g>
</g>
<!-- Node1&#45;&gt;Node4 -->
<g id="edge3_Node000001_Node000004" class="edge">
<title>Node1&#45;&gt;Node4</title>
<g id="a_edge3_Node000001_Node000004"><a xlink:title=" ">
<path fill="none" stroke="#63b8ff" d="M92.13,-95C107.59,-95 124.89,-95 140.38,-95"/>
<polygon fill="#63b8ff" stroke="#63b8ff" points="140.78,-98.5 150.78,-95 140.78,-91.5 140.78,-98.5"/>
</a>
</g>
</g>
<!-- Node6 -->
<g id="Node000006" class="node">
<title>Node6</title>
<g id="a_Node000006"><a xlink:href="code__80057C60_8c.html#a4ae339f479dc4885b0af81962c9963c8" target="_top" xlink:title=" ">
<polygon fill="white" stroke="#666666" points="241.5,-67.5 132.5,-67.5 132.5,-48.5 241.5,-48.5 241.5,-67.5"/>
<text text-anchor="middle" x="187" y="-55.5" font-family="Helvetica,sans-Serif" font-size="10.00">set_particle_colour</text>
</a>
</g>
</g>
<!-- Node1&#45;&gt;Node6 -->
<g id="edge5_Node000001_Node000006" class="edge">
<title>Node1&#45;&gt;Node6</title>
<g id="a_edge5_Node000001_Node000006"><a xlink:title=" ">
<path fill="none" stroke="#63b8ff" d="M82.8,-85.47C100.25,-80.83 121.45,-75.18 140.08,-70.22"/>
<polygon fill="#63b8ff" stroke="#63b8ff" points="141.08,-73.58 149.84,-67.62 139.28,-66.81 141.08,-73.58"/>
</a>
</g>
</g>
<!-- Node7 -->
<g id="Node000007" class="node">
<title>Node7</title>
<g id="a_Node000007"><a xlink:href="code__80057C60_8c.html#a35301423811a1f1a26d5cf4f2031696b" target="_top" xlink:title=" ">
<polygon fill="white" stroke="#666666" points="246,-30 128,-30 128,0 246,0 246,-30"/>
<text text-anchor="start" x="136" y="-18" font-family="Helvetica,sans-Serif" font-size="10.00">set_particle_position</text>
<text text-anchor="middle" x="187" y="-7" font-family="Helvetica,sans-Serif" font-size="10.00">_and_rotation</text>
</a>
</g>
</g>
<!-- Node1&#45;&gt;Node7 -->
<g id="edge6_Node000001_Node000007" class="edge">
<title>Node1&#45;&gt;Node7</title>
<g id="a_edge6_Node000001_Node000007"><a xlink:title=" ">
<path fill="none" stroke="#63b8ff" d="M59.43,-85.46C74.94,-73.82 102.52,-53.98 128,-40 131.47,-38.1 135.11,-36.23 138.82,-34.44"/>
<polygon fill="#63b8ff" stroke="#63b8ff" points="140.48,-37.52 148.06,-30.12 137.52,-31.18 140.48,-37.52"/>
</a>
</g>
</g>
<!-- Node5 -->
<g id="Node000005" class="node">
<title>Node5</title>
<g id="a_Node000005"><a xlink:href="math__util_8c.html#a062850863585005ad1d0a75d9ff70693" target="_top" xlink:title=" ">
<polygon fill="white" stroke="#666666" points="359,-104.5 282,-104.5 282,-85.5 359,-85.5 359,-104.5"/>
<text text-anchor="middle" x="320.5" y="-92.5" font-family="Helvetica,sans-Serif" font-size="10.00">random_u16</text>
</a>
</g>
</g>
<!-- Node4&#45;&gt;Node5 -->
<g id="edge4_Node000004_Node000005" class="edge">
<title>Node4&#45;&gt;Node5</title>
<g id="a_edge4_Node000004_Node000005"><a xlink:title=" ">
<path fill="none" stroke="#63b8ff" d="M223.24,-95C238.09,-95 255.61,-95 271.61,-95"/>
<polygon fill="#63b8ff" stroke="#63b8ff" points="271.86,-98.5 281.86,-95 271.86,-91.5 271.86,-98.5"/>
</a>
</g>
</g>
</g>
</svg>
</svg>

<style type='text/css'>
<![CDATA[
[data-mouse-over-selected='false'] { opacity: 0.7; }
[data-mouse-over-selected='true']  { opacity: 1.0; }
]]>
</style>
<script type="application/ecmascript"><![CDATA[
document.addEventListener('DOMContentLoaded', (event) => {
  highlightEdges();
  highlightAdjacentNodes();
});
]]></script>
</svg>
