<?xml version="1.0" encoding="UTF-8" standalone="no"?>
<!DOCTYPE svg PUBLIC "-//W3C//DTD SVG 1.1//EN"
 "http://www.w3.org/Graphics/SVG/1.1/DTD/svg11.dtd">
<!-- Generated by graphviz version 2.43.0 (0)
 -->
<!-- Title: spawn_course_vehicles Pages: 1 -->
<svg width="1834pt" height="453pt"
 viewBox="0.00 0.00 1834.00 452.75" xmlns="http://www.w3.org/2000/svg" xmlns:xlink="http://www.w3.org/1999/xlink">
<g id="graph0" class="graph" transform="scale(1 1) rotate(0) translate(4 448.75)">
<title>spawn_course_vehicles</title>
<!-- Node1 -->
<g id="Node000001" class="node">
<title>Node1</title>
<g id="a_Node000001"><a xlink:title=" ">
<polygon fill="#999999" stroke="#666666" points="131,-106.5 0,-106.5 0,-87.5 131,-87.5 131,-106.5"/>
<text text-anchor="middle" x="65.5" y="-94.5" font-family="Helvetica,sans-Serif" font-size="10.00">spawn_course_vehicles</text>
</a>
</g>
</g>
<!-- Node2 -->
<g id="Node000002" class="node">
<title>Node2</title>
<g id="a_Node000002"><a xlink:href="actors_8c.html#a91fb2e4e37e7c72fea918fe2c1bb4eaf" target="_top" xlink:title=" ">
<polygon fill="white" stroke="#666666" points="307,-317.5 167,-317.5 167,-298.5 307,-298.5 307,-317.5"/>
<text text-anchor="middle" x="237" y="-305.5" font-family="Helvetica,sans-Serif" font-size="10.00">add_actor_to_empty_slot</text>
</a>
</g>
</g>
<!-- Node1&#45;&gt;Node2 -->
<g id="edge1_Node000001_Node000002" class="edge">
<title>Node1&#45;&gt;Node2</title>
<g id="a_edge1_Node000001_Node000002"><a xlink:title=" ">
<path fill="none" stroke="#63b8ff" d="M74.22,-106.61C100.64,-139.5 187.64,-247.81 221.93,-290.49"/>
<polygon fill="#63b8ff" stroke="#63b8ff" points="219.24,-292.72 228.23,-298.33 224.7,-288.34 219.24,-292.72"/>
</a>
</g>
</g>
<!-- Node25 -->
<g id="Node000025" class="node">
<title>Node25</title>
<g id="a_Node000025"><a xlink:href="code__80005FD0_8c.html#aa2f33bffcae3e2f30d3a8c958bd63653" target="_top" xlink:title=" ">
<polygon fill="white" stroke="#666666" points="303.5,-125.5 170.5,-125.5 170.5,-106.5 303.5,-106.5 303.5,-125.5"/>
<text text-anchor="middle" x="237" y="-113.5" font-family="Helvetica,sans-Serif" font-size="10.00">spawn_vehicle_on_road</text>
</a>
</g>
</g>
<!-- Node1&#45;&gt;Node25 -->
<g id="edge27_Node000001_Node000025" class="edge">
<title>Node1&#45;&gt;Node25</title>
<g id="a_edge27_Node000001_Node000025"><a xlink:title=" ">
<path fill="none" stroke="#63b8ff" d="M131.06,-104.24C140.65,-105.31 150.59,-106.43 160.38,-107.52"/>
<polygon fill="#63b8ff" stroke="#63b8ff" points="160.16,-111.02 170.49,-108.66 160.94,-104.06 160.16,-111.02"/>
</a>
</g>
</g>
<!-- Node40 -->
<g id="Node000040" class="node">
<title>Node40</title>
<g id="a_Node000040"><a xlink:href="code__80005FD0_8c.html#aa3767271cca472acdd13e4d8ad42839f" target="_top" xlink:title=" ">
<polygon fill="white" stroke="#666666" points="497,-70 356,-70 356,-40 497,-40 497,-70"/>
<text text-anchor="start" x="364" y="-58" font-family="Helvetica,sans-Serif" font-size="10.00">update_vehicle_following</text>
<text text-anchor="middle" x="426.5" y="-47" font-family="Helvetica,sans-Serif" font-size="10.00">_waypoint</text>
</a>
</g>
</g>
<!-- Node1&#45;&gt;Node40 -->
<g id="edge47_Node000001_Node000040" class="edge">
<title>Node1&#45;&gt;Node40</title>
<g id="a_edge47_Node000001_Node000040"><a xlink:title=" ">
<path fill="none" stroke="#63b8ff" d="M131.1,-89.44C191.27,-82.4 281.15,-71.89 345.76,-64.33"/>
<polygon fill="#63b8ff" stroke="#63b8ff" points="346.38,-67.78 355.91,-63.14 345.57,-60.83 346.38,-67.78"/>
</a>
</g>
</g>
<!-- Node42 -->
<g id="Node000042" class="node">
<title>Node42</title>
<g id="a_Node000042"><a xlink:href="math__util_8c.html#a9092c945c52b3a3481228b2724991e3c" target="_top" xlink:title=" ">
<polygon fill="white" stroke="#666666" points="269.5,-49.5 204.5,-49.5 204.5,-30.5 269.5,-30.5 269.5,-49.5"/>
<text text-anchor="middle" x="237" y="-37.5" font-family="Helvetica,sans-Serif" font-size="10.00">vec3s_set</text>
</a>
</g>
</g>
<!-- Node1&#45;&gt;Node42 -->
<g id="edge51_Node000001_Node000042" class="edge">
<title>Node1&#45;&gt;Node42</title>
<g id="a_edge51_Node000001_Node000042"><a xlink:title=" ">
<path fill="none" stroke="#63b8ff" d="M94.87,-87.46C123.1,-77.97 166.61,-63.33 197.86,-52.83"/>
<polygon fill="#63b8ff" stroke="#63b8ff" points="199.17,-56.08 207.54,-49.57 196.94,-49.44 199.17,-56.08"/>
</a>
</g>
</g>
<!-- Node3 -->
<g id="Node000003" class="node">
<title>Node3</title>
<g id="a_Node000003"><a xlink:href="actors_8c.html#a39c023177b5a7686cdd1fc65b8b953e1" target="_top" xlink:title=" ">
<polygon fill="white" stroke="#666666" points="660.5,-317.5 598.5,-317.5 598.5,-298.5 660.5,-298.5 660.5,-317.5"/>
<text text-anchor="middle" x="629.5" y="-305.5" font-family="Helvetica,sans-Serif" font-size="10.00">actor_init</text>
</a>
</g>
</g>
<!-- Node2&#45;&gt;Node3 -->
<g id="edge2_Node000002_Node000003" class="edge">
<title>Node2&#45;&gt;Node3</title>
<g id="a_edge2_Node000002_Node000003"><a xlink:title=" ">
<path fill="none" stroke="#63b8ff" d="M307.36,-308C389.12,-308 522.22,-308 588.44,-308"/>
<polygon fill="#63b8ff" stroke="#63b8ff" points="588.48,-311.5 598.48,-308 588.48,-304.5 588.48,-311.5"/>
</a>
</g>
</g>
<!-- Node24 -->
<g id="Node000024" class="node">
<title>Node24</title>
<g id="a_Node000024"><a xlink:href="actors_8c.html#adf454481afb7fd833f5ce3f01dea4bea" target="_top" xlink:title=" ">
<polygon fill="white" stroke="#666666" points="510,-397.5 343,-397.5 343,-378.5 510,-378.5 510,-397.5"/>
<text text-anchor="middle" x="426.5" y="-385.5" font-family="Helvetica,sans-Serif" font-size="10.00">try_remove_destructable_item</text>
</a>
</g>
</g>
<!-- Node2&#45;&gt;Node24 -->
<g id="edge23_Node000002_Node000024" class="edge">
<title>Node2&#45;&gt;Node24</title>
<g id="a_edge23_Node000002_Node000024"><a xlink:title=" ">
<path fill="none" stroke="#63b8ff" d="M260.62,-317.65C293.79,-331.8 355.78,-358.25 393.58,-374.38"/>
<polygon fill="#63b8ff" stroke="#63b8ff" points="392.52,-377.74 403.09,-378.44 395.27,-371.3 392.52,-377.74"/>
</a>
</g>
</g>
<!-- Node4 -->
<g id="Node000004" class="node">
<title>Node4</title>
<g id="a_Node000004"><a xlink:href="collision_8c.html#a37aa55b3768d001533ad75e7f1b8388a" target="_top" xlink:title=" ">
<polygon fill="white" stroke="#666666" points="1068.5,-225.5 927.5,-225.5 927.5,-206.5 1068.5,-206.5 1068.5,-225.5"/>
<text text-anchor="middle" x="998" y="-213.5" font-family="Helvetica,sans-Serif" font-size="10.00">check_bounding_collision</text>
</a>
</g>
</g>
<!-- Node3&#45;&gt;Node4 -->
<g id="edge3_Node000003_Node000004" class="edge">
<title>Node3&#45;&gt;Node4</title>
<g id="a_edge3_Node000003_Node000004"><a xlink:title=" ">
<path fill="none" stroke="#63b8ff" d="M641.65,-298.37C661.6,-281.78 705.42,-248.22 749,-234 803.33,-216.28 867.79,-212.07 917.37,-212.14"/>
<polygon fill="#63b8ff" stroke="#63b8ff" points="917.37,-215.64 927.4,-212.21 917.42,-208.64 917.37,-215.64"/>
</a>
</g>
</g>
<!-- Node8 -->
<g id="Node000008" class="node">
<title>Node8</title>
<g id="a_Node000008"><a xlink:href="actors_8c.html#a1a9bccb586242555a9123ebd4ab70f2a" target="_top" xlink:title=" ">
<polygon fill="white" stroke="#666666" points="885,-385 753,-385 753,-355 885,-355 885,-385"/>
<text text-anchor="start" x="761" y="-373" font-family="Helvetica,sans-Serif" font-size="10.00">cleanup_red_and_green</text>
<text text-anchor="middle" x="819" y="-362" font-family="Helvetica,sans-Serif" font-size="10.00">_shells</text>
</a>
</g>
</g>
<!-- Node3&#45;&gt;Node8 -->
<g id="edge7_Node000003_Node000008" class="edge">
<title>Node3&#45;&gt;Node8</title>
<g id="a_edge7_Node000003_Node000008"><a xlink:title=" ">
<path fill="none" stroke="#63b8ff" d="M659.39,-317.55C686.78,-326.61 728.67,-340.46 762.52,-351.65"/>
<polygon fill="#63b8ff" stroke="#63b8ff" points="761.69,-355.07 772.29,-354.88 763.89,-348.42 761.69,-355.07"/>
</a>
</g>
</g>
<!-- Node20 -->
<g id="Node000020" class="node">
<title>Node20</title>
<g id="a_Node000020"><a xlink:href="collision_8c.html#ad72fef3ffe32191d73b1822f512ebf3f" target="_top" xlink:title=" ">
<polygon fill="white" stroke="#666666" points="866.5,-262.5 771.5,-262.5 771.5,-243.5 866.5,-243.5 866.5,-262.5"/>
<text text-anchor="middle" x="819" y="-250.5" font-family="Helvetica,sans-Serif" font-size="10.00">func_802AAAAC</text>
</a>
</g>
</g>
<!-- Node3&#45;&gt;Node20 -->
<g id="edge19_Node000003_Node000020" class="edge">
<title>Node3&#45;&gt;Node20</title>
<g id="a_edge19_Node000003_Node000020"><a xlink:title=" ">
<path fill="none" stroke="#63b8ff" d="M660.63,-298.61C684.54,-291.21 718.85,-280.73 749,-272 756.64,-269.79 764.77,-267.5 772.67,-265.3"/>
<polygon fill="#63b8ff" stroke="#63b8ff" points="773.79,-268.62 782.49,-262.59 771.92,-261.88 773.79,-268.62"/>
</a>
</g>
</g>
<!-- Node22 -->
<g id="Node000022" class="node">
<title>Node22</title>
<g id="a_Node000022"><a xlink:href="math__util_8c.html#af7b470ed76fce07b8042a47c96e5690b" target="_top" xlink:title=" ">
<polygon fill="white" stroke="#666666" points="872.5,-336.5 765.5,-336.5 765.5,-317.5 872.5,-317.5 872.5,-336.5"/>
<text text-anchor="middle" x="819" y="-324.5" font-family="Helvetica,sans-Serif" font-size="10.00">vec3f_copy_return</text>
</a>
</g>
</g>
<!-- Node3&#45;&gt;Node22 -->
<g id="edge21_Node000003_Node000022" class="edge">
<title>Node3&#45;&gt;Node22</title>
<g id="a_edge21_Node000003_Node000022"><a xlink:title=" ">
<path fill="none" stroke="#63b8ff" d="M660.63,-311.05C686.03,-313.63 723.25,-317.4 755.11,-320.63"/>
<polygon fill="#63b8ff" stroke="#63b8ff" points="754.94,-324.13 765.24,-321.65 755.64,-317.16 754.94,-324.13"/>
</a>
</g>
</g>
<!-- Node23 -->
<g id="Node000023" class="node">
<title>Node23</title>
<g id="a_Node000023"><a xlink:href="math__util_8c.html#a0e270ee67600c8c9c2f140c647d008a1" target="_top" xlink:title=" ">
<polygon fill="white" stroke="#666666" points="856,-299.5 782,-299.5 782,-280.5 856,-280.5 856,-299.5"/>
<text text-anchor="middle" x="819" y="-287.5" font-family="Helvetica,sans-Serif" font-size="10.00">vec3s_copy</text>
</a>
</g>
</g>
<!-- Node3&#45;&gt;Node23 -->
<g id="edge22_Node000003_Node000023" class="edge">
<title>Node3&#45;&gt;Node23</title>
<g id="a_edge22_Node000003_Node000023"><a xlink:title=" ">
<path fill="none" stroke="#63b8ff" d="M660.63,-305.11C690.55,-302.24 736.86,-297.79 771.5,-294.46"/>
<polygon fill="#63b8ff" stroke="#63b8ff" points="772.23,-297.91 781.85,-293.47 771.56,-290.94 772.23,-297.91"/>
</a>
</g>
</g>
<!-- Node5 -->
<g id="Node000005" class="node">
<title>Node5</title>
<g id="a_Node000005"><a xlink:href="collision_8c.html#ac312bf382cb40752f6b790a99e7cdcb6" target="_top" xlink:title=" ">
<polygon fill="white" stroke="#666666" points="1240,-225.5 1132,-225.5 1132,-206.5 1240,-206.5 1240,-225.5"/>
<text text-anchor="middle" x="1186" y="-213.5" font-family="Helvetica,sans-Serif" font-size="10.00">check_collision_yx</text>
</a>
</g>
</g>
<!-- Node4&#45;&gt;Node5 -->
<g id="edge4_Node000004_Node000005" class="edge">
<title>Node4&#45;&gt;Node5</title>
<g id="a_edge4_Node000004_Node000005"><a xlink:title=" ">
<path fill="none" stroke="#63b8ff" d="M1068.52,-216C1085.87,-216 1104.38,-216 1121.43,-216"/>
<polygon fill="#63b8ff" stroke="#63b8ff" points="1121.82,-219.5 1131.82,-216 1121.82,-212.5 1121.82,-219.5"/>
</a>
</g>
</g>
<!-- Node6 -->
<g id="Node000006" class="node">
<title>Node6</title>
<g id="a_Node000006"><a xlink:href="collision_8c.html#a4b48832a90e984536a0635a016ec4f28" target="_top" xlink:title=" ">
<polygon fill="white" stroke="#666666" points="1239.5,-188.5 1132.5,-188.5 1132.5,-169.5 1239.5,-169.5 1239.5,-188.5"/>
<text text-anchor="middle" x="1186" y="-176.5" font-family="Helvetica,sans-Serif" font-size="10.00">check_collision_zx</text>
</a>
</g>
</g>
<!-- Node4&#45;&gt;Node6 -->
<g id="edge5_Node000004_Node000006" class="edge">
<title>Node4&#45;&gt;Node6</title>
<g id="a_edge5_Node000004_Node000006"><a xlink:title=" ">
<path fill="none" stroke="#63b8ff" d="M1046.9,-206.47C1071.32,-201.61 1101.22,-195.67 1126.94,-190.55"/>
<polygon fill="#63b8ff" stroke="#63b8ff" points="1127.81,-193.94 1136.94,-188.56 1126.45,-187.08 1127.81,-193.94"/>
</a>
</g>
</g>
<!-- Node7 -->
<g id="Node000007" class="node">
<title>Node7</title>
<g id="a_Node000007"><a xlink:href="collision_8c.html#a21fef964ab48191a1c0341954ef27a40" target="_top" xlink:title=" ">
<polygon fill="white" stroke="#666666" points="1239.5,-262.5 1132.5,-262.5 1132.5,-243.5 1239.5,-243.5 1239.5,-262.5"/>
<text text-anchor="middle" x="1186" y="-250.5" font-family="Helvetica,sans-Serif" font-size="10.00">check_collision_zy</text>
</a>
</g>
</g>
<!-- Node4&#45;&gt;Node7 -->
<g id="edge6_Node000004_Node000007" class="edge">
<title>Node4&#45;&gt;Node7</title>
<g id="a_edge6_Node000004_Node000007"><a xlink:title=" ">
<path fill="none" stroke="#63b8ff" d="M1046.9,-225.53C1071.32,-230.39 1101.22,-236.33 1126.94,-241.45"/>
<polygon fill="#63b8ff" stroke="#63b8ff" points="1126.45,-244.92 1136.94,-243.44 1127.81,-238.06 1126.45,-244.92"/>
</a>
</g>
</g>
<!-- Node9 -->
<g id="Node000009" class="node">
<title>Node9</title>
<g id="a_Node000009"><a xlink:href="code__80005FD0_8c.html#ad301b978cdd3c4cc190b10be050d51d8" target="_top" xlink:title=" ">
<polygon fill="white" stroke="#666666" points="1071,-425 925,-425 925,-395 1071,-395 1071,-425"/>
<text text-anchor="start" x="933" y="-413" font-family="Helvetica,sans-Serif" font-size="10.00">delete_actor_in_unexpired</text>
<text text-anchor="middle" x="998" y="-402" font-family="Helvetica,sans-Serif" font-size="10.00">_actor_list</text>
</a>
</g>
</g>
<!-- Node8&#45;&gt;Node9 -->
<g id="edge8_Node000008_Node000009" class="edge">
<title>Node8&#45;&gt;Node9</title>
<g id="a_edge8_Node000008_Node000009"><a xlink:title=" ">
<path fill="none" stroke="#63b8ff" d="M885.15,-384.72C896.71,-387.33 908.83,-390.07 920.66,-392.75"/>
<polygon fill="#63b8ff" stroke="#63b8ff" points="919.98,-396.18 930.5,-394.97 921.52,-389.35 919.98,-396.18"/>
</a>
</g>
</g>
<!-- Node10 -->
<g id="Node000010" class="node">
<title>Node10</title>
<g id="a_Node000010"><a xlink:href="actors_8c.html#a694ec6ef7548b8618aeb35c038d3a9b9" target="_top" xlink:title=" ">
<polygon fill="white" stroke="#666666" points="1039.5,-376.5 956.5,-376.5 956.5,-357.5 1039.5,-357.5 1039.5,-376.5"/>
<text text-anchor="middle" x="998" y="-364.5" font-family="Helvetica,sans-Serif" font-size="10.00">destroy_actor</text>
</a>
</g>
</g>
<!-- Node8&#45;&gt;Node10 -->
<g id="edge9_Node000008_Node000010" class="edge">
<title>Node8&#45;&gt;Node10</title>
<g id="a_edge9_Node000008_Node000010"><a xlink:title=" ">
<path fill="none" stroke="#63b8ff" d="M885.15,-368.9C905.28,-368.55 927.14,-368.18 946.16,-367.86"/>
<polygon fill="#63b8ff" stroke="#63b8ff" points="946.46,-371.36 956.4,-367.69 946.34,-364.36 946.46,-371.36"/>
</a>
</g>
</g>
<!-- Node11 -->
<g id="Node000011" class="node">
<title>Node11</title>
<g id="a_Node000011"><a xlink:href="actors_8c.html#a12dc3ccac4c7d8569eadac0af4fd6f9f" target="_top" xlink:title=" ">
<polygon fill="white" stroke="#666666" points="1265,-419.5 1107,-419.5 1107,-400.5 1265,-400.5 1265,-419.5"/>
<text text-anchor="middle" x="1186" y="-407.5" font-family="Helvetica,sans-Serif" font-size="10.00">play_sound_before_despawn</text>
</a>
</g>
</g>
<!-- Node10&#45;&gt;Node11 -->
<g id="edge10_Node000010_Node000011" class="edge">
<title>Node10&#45;&gt;Node11</title>
<g id="a_edge10_Node000010_Node000011"><a xlink:title=" ">
<path fill="none" stroke="#63b8ff" d="M1039.82,-376.44C1067.49,-382.83 1104.27,-391.34 1133.89,-398.18"/>
<polygon fill="#63b8ff" stroke="#63b8ff" points="1133.1,-401.59 1143.63,-400.44 1134.68,-394.77 1133.1,-401.59"/>
</a>
</g>
</g>
<!-- Node12 -->
<g id="Node000012" class="node">
<title>Node12</title>
<g id="a_Node000012"><a xlink:href="external_8c.html#ae72057869772019e4464c87d4e16c682" target="_top" xlink:title=" ">
<polygon fill="white" stroke="#666666" points="1393,-419.5 1301,-419.5 1301,-400.5 1393,-400.5 1393,-419.5"/>
<text text-anchor="middle" x="1347" y="-407.5" font-family="Helvetica,sans-Serif" font-size="10.00">func_800C99E0</text>
</a>
</g>
</g>
<!-- Node11&#45;&gt;Node12 -->
<g id="edge11_Node000011_Node000012" class="edge">
<title>Node11&#45;&gt;Node12</title>
<g id="a_edge11_Node000011_Node000012"><a xlink:title=" ">
<path fill="none" stroke="#63b8ff" d="M1265.1,-410C1273.72,-410 1282.35,-410 1290.61,-410"/>
<polygon fill="#63b8ff" stroke="#63b8ff" points="1290.83,-413.5 1300.83,-410 1290.83,-406.5 1290.83,-413.5"/>
</a>
</g>
</g>
<!-- Node13 -->
<g id="Node000013" class="node">
<title>Node13</title>
<g id="a_Node000013"><a xlink:href="external_8c.html#aeb87c527482a244173df36a1f3d4f446" target="_top" xlink:title=" ">
<polygon fill="white" stroke="#666666" points="1521,-438.5 1429,-438.5 1429,-419.5 1521,-419.5 1521,-438.5"/>
<text text-anchor="middle" x="1475" y="-426.5" font-family="Helvetica,sans-Serif" font-size="10.00">func_800C21E8</text>
</a>
</g>
</g>
<!-- Node12&#45;&gt;Node13 -->
<g id="edge12_Node000012_Node000013" class="edge">
<title>Node12&#45;&gt;Node13</title>
<g id="a_edge12_Node000012_Node000013"><a xlink:title=" ">
<path fill="none" stroke="#63b8ff" d="M1393.13,-416.81C1401.46,-418.06 1410.23,-419.38 1418.81,-420.68"/>
<polygon fill="#63b8ff" stroke="#63b8ff" points="1418.35,-424.15 1428.76,-422.18 1419.39,-417.23 1418.35,-424.15"/>
</a>
</g>
</g>
<!-- Node14 -->
<g id="Node000014" class="node">
<title>Node14</title>
<g id="a_Node000014"><a xlink:href="external_8c.html#a028d40421b90c38f68ebfd5acc626f2e" target="_top" xlink:title=" ">
<polygon fill="white" stroke="#666666" points="1521,-401.5 1429,-401.5 1429,-382.5 1521,-382.5 1521,-401.5"/>
<text text-anchor="middle" x="1475" y="-389.5" font-family="Helvetica,sans-Serif" font-size="10.00">func_800C5578</text>
</a>
</g>
</g>
<!-- Node12&#45;&gt;Node14 -->
<g id="edge13_Node000012_Node000014" class="edge">
<title>Node12&#45;&gt;Node14</title>
<g id="a_edge13_Node000012_Node000014"><a xlink:title=" ">
<path fill="none" stroke="#63b8ff" d="M1393.13,-403.55C1401.46,-402.36 1410.23,-401.11 1418.81,-399.88"/>
<polygon fill="#63b8ff" stroke="#63b8ff" points="1419.35,-403.34 1428.76,-398.46 1418.36,-396.41 1419.35,-403.34"/>
</a>
</g>
</g>
<!-- Node15 -->
<g id="Node000015" class="node">
<title>Node15</title>
<g id="a_Node000015"><a xlink:href="external_8c.html#ac0fb767de7e14a03f1bcfa53f0abd23b" target="_top" xlink:title=" ">
<polygon fill="white" stroke="#666666" points="1697,-438.5 1557,-438.5 1557,-419.5 1697,-419.5 1697,-438.5"/>
<text text-anchor="middle" x="1627" y="-426.5" font-family="Helvetica,sans-Serif" font-size="10.00">delete_sound_from_bank</text>
</a>
</g>
</g>
<!-- Node14&#45;&gt;Node15 -->
<g id="edge14_Node000014_Node000015" class="edge">
<title>Node14&#45;&gt;Node15</title>
<g id="a_edge14_Node000014_Node000015"><a xlink:title=" ">
<path fill="none" stroke="#63b8ff" d="M1514.63,-401.53C1533.8,-406.26 1557.16,-412.02 1577.52,-417.04"/>
<polygon fill="#63b8ff" stroke="#63b8ff" points="1576.69,-420.44 1587.24,-419.44 1578.37,-413.65 1576.69,-420.44"/>
</a>
</g>
</g>
<!-- Node17 -->
<g id="Node000017" class="node">
<title>Node17</title>
<g id="a_Node000017"><a xlink:href="external_8c.html#ab83bd36e63f0f1baddcb2482b5ad31b0" target="_top" xlink:title=" ">
<polygon fill="white" stroke="#666666" points="1673.5,-401.5 1580.5,-401.5 1580.5,-382.5 1673.5,-382.5 1673.5,-401.5"/>
<text text-anchor="middle" x="1627" y="-389.5" font-family="Helvetica,sans-Serif" font-size="10.00">func_800C41CC</text>
</a>
</g>
</g>
<!-- Node14&#45;&gt;Node17 -->
<g id="edge16_Node000014_Node000017" class="edge">
<title>Node14&#45;&gt;Node17</title>
<g id="a_edge16_Node000014_Node000017"><a xlink:title=" ">
<path fill="none" stroke="#63b8ff" d="M1521,-392C1536.37,-392 1553.74,-392 1569.86,-392"/>
<polygon fill="#63b8ff" stroke="#63b8ff" points="1570.25,-395.5 1580.25,-392 1570.25,-388.5 1570.25,-395.5"/>
</a>
</g>
</g>
<!-- Node18 -->
<g id="Node000018" class="node">
<title>Node18</title>
<g id="a_Node000018"><a xlink:href="port__eu_8c.html#aa89dfaecca46c6d071f08c1898d1f7c9" target="_top" xlink:title=" ">
<polygon fill="white" stroke="#666666" points="1673.5,-364.5 1580.5,-364.5 1580.5,-345.5 1673.5,-345.5 1673.5,-364.5"/>
<text text-anchor="middle" x="1627" y="-352.5" font-family="Helvetica,sans-Serif" font-size="10.00">func_800CBBE8</text>
</a>
</g>
</g>
<!-- Node14&#45;&gt;Node18 -->
<g id="edge17_Node000014_Node000018" class="edge">
<title>Node14&#45;&gt;Node18</title>
<g id="a_edge17_Node000014_Node000018"><a xlink:title=" ">
<path fill="none" stroke="#63b8ff" d="M1514.63,-382.47C1533.8,-377.74 1557.16,-371.98 1577.52,-366.96"/>
<polygon fill="#63b8ff" stroke="#63b8ff" points="1578.37,-370.35 1587.24,-364.56 1576.69,-363.56 1578.37,-370.35"/>
</a>
</g>
</g>
<!-- Node16 -->
<g id="Node000016" class="node">
<title>Node16</title>
<g id="a_Node000016"><a xlink:href="external_8c.html#a358ac55e8ab5262dcae8037334be06d7" target="_top" xlink:title=" ">
<polygon fill="white" stroke="#666666" points="1825.5,-438.5 1733.5,-438.5 1733.5,-419.5 1825.5,-419.5 1825.5,-438.5"/>
<text text-anchor="middle" x="1779.5" y="-426.5" font-family="Helvetica,sans-Serif" font-size="10.00">func_800C40F0</text>
</a>
</g>
</g>
<!-- Node15&#45;&gt;Node16 -->
<g id="edge15_Node000015_Node000016" class="edge">
<title>Node15&#45;&gt;Node16</title>
<g id="a_edge15_Node000015_Node000016"><a xlink:title=" ">
<path fill="none" stroke="#63b8ff" d="M1697.08,-429C1705.87,-429 1714.78,-429 1723.31,-429"/>
<polygon fill="#63b8ff" stroke="#63b8ff" points="1723.5,-432.5 1733.5,-429 1723.5,-425.5 1723.5,-432.5"/>
</a>
</g>
</g>
<!-- Node19 -->
<g id="Node000019" class="node">
<title>Node19</title>
<g id="a_Node000019"><a xlink:href="port__eu_8c.html#af361a20d2e08f30c53a237ca481ff734" target="_top" xlink:title=" ">
<polygon fill="white" stroke="#666666" points="1826,-364.5 1733,-364.5 1733,-345.5 1826,-345.5 1826,-364.5"/>
<text text-anchor="middle" x="1779.5" y="-352.5" font-family="Helvetica,sans-Serif" font-size="10.00">func_800CBB48</text>
</a>
</g>
</g>
<!-- Node18&#45;&gt;Node19 -->
<g id="edge18_Node000018_Node000019" class="edge">
<title>Node18&#45;&gt;Node19</title>
<g id="a_edge18_Node000018_Node000019"><a xlink:title=" ">
<path fill="none" stroke="#63b8ff" d="M1673.56,-355C1688.96,-355 1706.34,-355 1722.46,-355"/>
<polygon fill="#63b8ff" stroke="#63b8ff" points="1722.83,-358.5 1732.83,-355 1722.83,-351.5 1722.83,-358.5"/>
</a>
</g>
</g>
<!-- Node21 -->
<g id="Node000021" class="node">
<title>Node21</title>
<g id="a_Node000021"><a xlink:href="math__util_8c.html#a79fd07a0971ec96a3ff0801963a2fa7f" target="_top" xlink:title=" ">
<polygon fill="white" stroke="#666666" points="1030,-262.5 966,-262.5 966,-243.5 1030,-243.5 1030,-262.5"/>
<text text-anchor="middle" x="998" y="-250.5" font-family="Helvetica,sans-Serif" font-size="10.00">vec3f_set</text>
</a>
</g>
</g>
<!-- Node20&#45;&gt;Node21 -->
<g id="edge20_Node000020_Node000021" class="edge">
<title>Node20&#45;&gt;Node21</title>
<g id="a_edge20_Node000020_Node000021"><a xlink:title=" ">
<path fill="none" stroke="#63b8ff" d="M866.5,-253C894.17,-253 928.97,-253 955.68,-253"/>
<polygon fill="#63b8ff" stroke="#63b8ff" points="955.85,-256.5 965.85,-253 955.85,-249.5 955.85,-256.5"/>
</a>
</g>
</g>
<!-- Node24&#45;&gt;Node3 -->
<g id="edge24_Node000024_Node000003" class="edge">
<title>Node24&#45;&gt;Node3</title>
<g id="a_edge24_Node000024_Node000003"><a xlink:title=" ">
<path fill="none" stroke="#63b8ff" d="M451.75,-378.35C487.53,-364.11 554.61,-337.41 595.05,-321.31"/>
<polygon fill="#63b8ff" stroke="#63b8ff" points="596.48,-324.51 604.48,-317.56 593.9,-318.01 596.48,-324.51"/>
</a>
</g>
</g>
<!-- Node24&#45;&gt;Node9 -->
<g id="edge25_Node000024_Node000009" class="edge">
<title>Node24&#45;&gt;Node9</title>
<g id="a_edge25_Node000024_Node000009"><a xlink:title=" ">
<path fill="none" stroke="#63b8ff" d="M510.01,-391.19C618.11,-395.36 806.59,-402.64 914.63,-406.82"/>
<polygon fill="#63b8ff" stroke="#63b8ff" points="914.7,-410.32 924.83,-407.21 914.97,-403.33 914.7,-410.32"/>
</a>
</g>
</g>
<!-- Node24&#45;&gt;Node11 -->
<g id="edge26_Node000024_Node000011" class="edge">
<title>Node24&#45;&gt;Node11</title>
<g id="a_edge26_Node000024_Node000011"><a xlink:title=" ">
<path fill="none" stroke="#63b8ff" d="M474.32,-397.52C496.04,-401.62 522.25,-406.12 546,-409 777.9,-437.11 838.66,-458.19 1071,-434 1093.73,-431.63 1118.61,-426.68 1139.31,-421.88"/>
<polygon fill="#63b8ff" stroke="#63b8ff" points="1140.19,-425.27 1149.11,-419.55 1138.57,-418.46 1140.19,-425.27"/>
</a>
</g>
</g>
<!-- Node26 -->
<g id="Node000026" class="node">
<title>Node26</title>
<g id="a_Node000026"><a xlink:href="code__80005FD0_8c.html#a45fa364fbae557a3d2025ebdc0846cd2" target="_top" xlink:title=" ">
<polygon fill="white" stroke="#666666" points="473.5,-107.5 379.5,-107.5 379.5,-88.5 473.5,-88.5 473.5,-107.5"/>
<text text-anchor="middle" x="426.5" y="-95.5" font-family="Helvetica,sans-Serif" font-size="10.00">func_8000D6D0</text>
</a>
</g>
</g>
<!-- Node25&#45;&gt;Node26 -->
<g id="edge28_Node000025_Node000026" class="edge">
<title>Node25&#45;&gt;Node26</title>
<g id="a_edge28_Node000025_Node000026"><a xlink:title=" ">
<path fill="none" stroke="#63b8ff" d="M303.58,-109.7C324.99,-107.65 348.56,-105.39 369.23,-103.4"/>
<polygon fill="#63b8ff" stroke="#63b8ff" points="369.81,-106.86 379.43,-102.42 369.14,-99.89 369.81,-106.86"/>
</a>
</g>
</g>
<!-- Node39 -->
<g id="Node000039" class="node">
<title>Node39</title>
<g id="a_Node000039"><a xlink:href="code__80005FD0_8c.html#a124bae511133f507498b19842362feeb" target="_top" xlink:title=" ">
<polygon fill="white" stroke="#666666" points="472.5,-144.5 380.5,-144.5 380.5,-125.5 472.5,-125.5 472.5,-144.5"/>
<text text-anchor="middle" x="426.5" y="-132.5" font-family="Helvetica,sans-Serif" font-size="10.00">func_8000D940</text>
</a>
</g>
</g>
<!-- Node25&#45;&gt;Node39 -->
<g id="edge42_Node000025_Node000039" class="edge">
<title>Node25&#45;&gt;Node39</title>
<g id="a_edge42_Node000025_Node000039"><a xlink:title=" ">
<path fill="none" stroke="#63b8ff" d="M303.58,-122.65C325.36,-124.85 349.38,-127.29 370.29,-129.41"/>
<polygon fill="#63b8ff" stroke="#63b8ff" points="369.99,-132.89 380.29,-130.42 370.69,-125.93 369.99,-132.89"/>
</a>
</g>
</g>
<!-- Node27 -->
<g id="Node000027" class="node">
<title>Node27</title>
<g id="a_Node000027"><a xlink:href="code__80005FD0_8c.html#a74ddc182369789b289326b99494d7e65" target="_top" xlink:title=" ">
<polygon fill="white" stroke="#666666" points="676.5,-178.5 582.5,-178.5 582.5,-159.5 676.5,-159.5 676.5,-178.5"/>
<text text-anchor="middle" x="629.5" y="-166.5" font-family="Helvetica,sans-Serif" font-size="10.00">func_8000BBD8</text>
</a>
</g>
</g>
<!-- Node26&#45;&gt;Node27 -->
<g id="edge29_Node000026_Node000027" class="edge">
<title>Node26&#45;&gt;Node27</title>
<g id="a_edge29_Node000026_Node000027"><a xlink:title=" ">
<path fill="none" stroke="#63b8ff" d="M473.58,-103.48C485.88,-106.15 498.85,-110.11 510,-116 529.46,-126.28 526.6,-139.61 546,-150 554.18,-154.38 563.35,-157.76 572.52,-160.36"/>
<polygon fill="#63b8ff" stroke="#63b8ff" points="571.86,-163.8 582.42,-162.89 573.59,-157.02 571.86,-163.8"/>
</a>
</g>
</g>
<!-- Node28 -->
<g id="Node000028" class="node">
<title>Node28</title>
<g id="a_Node000028"><a xlink:href="code__80005FD0_8c.html#aff1ba4b22fc22c38fcf28007ccaaa752" target="_top" xlink:title=" ">
<polygon fill="white" stroke="#666666" points="676,-141.5 583,-141.5 583,-122.5 676,-122.5 676,-141.5"/>
<text text-anchor="middle" x="629.5" y="-129.5" font-family="Helvetica,sans-Serif" font-size="10.00">func_8000D2B4</text>
</a>
</g>
</g>
<!-- Node26&#45;&gt;Node28 -->
<g id="edge30_Node000026_Node000028" class="edge">
<title>Node26&#45;&gt;Node28</title>
<g id="a_edge30_Node000026_Node000028"><a xlink:title=" ">
<path fill="none" stroke="#63b8ff" d="M473.61,-105.8C503.21,-110.81 541.81,-117.34 573.08,-122.62"/>
<polygon fill="#63b8ff" stroke="#63b8ff" points="572.5,-126.08 582.95,-124.29 573.67,-119.18 572.5,-126.08"/>
</a>
</g>
</g>
<!-- Node34 -->
<g id="Node000034" class="node">
<title>Node34</title>
<g id="a_Node000034"><a xlink:href="code__80005FD0_8c.html#a536ed595f1c3b43500a1b60c19c885d8" target="_top" xlink:title=" ">
<polygon fill="white" stroke="#666666" points="713,-104.5 546,-104.5 546,-85.5 713,-85.5 713,-104.5"/>
<text text-anchor="middle" x="629.5" y="-92.5" font-family="Helvetica,sans-Serif" font-size="10.00">get_angle_between_waypoints</text>
</a>
</g>
</g>
<!-- Node26&#45;&gt;Node34 -->
<g id="edge37_Node000026_Node000034" class="edge">
<title>Node26&#45;&gt;Node34</title>
<g id="a_edge37_Node000026_Node000034"><a xlink:title=" ">
<path fill="none" stroke="#63b8ff" d="M473.61,-97.31C492.12,-97.04 514.16,-96.71 535.71,-96.38"/>
<polygon fill="#63b8ff" stroke="#63b8ff" points="535.96,-99.88 545.9,-96.23 535.85,-92.88 535.96,-99.88"/>
</a>
</g>
</g>
<!-- Node38 -->
<g id="Node000038" class="node">
<title>Node38</title>
<g id="a_Node000038"><a xlink:href="math_8h.html#a37bde043e94a6f074c78f10518fb5d99" target="_top" xlink:title=" ">
<polygon fill="white" stroke="#666666" points="649,-67.5 610,-67.5 610,-48.5 649,-48.5 649,-67.5"/>
<text text-anchor="middle" x="629.5" y="-55.5" font-family="Helvetica,sans-Serif" font-size="10.00">sqrtf</text>
</a>
</g>
</g>
<!-- Node26&#45;&gt;Node38 -->
<g id="edge41_Node000026_Node000038" class="edge">
<title>Node26&#45;&gt;Node38</title>
<g id="a_edge41_Node000026_Node000038"><a xlink:title=" ">
<path fill="none" stroke="#63b8ff" d="M473.61,-88.82C512.52,-81.08 566.98,-70.24 599.89,-63.69"/>
<polygon fill="#63b8ff" stroke="#63b8ff" points="600.64,-67.11 609.76,-61.73 599.27,-60.25 600.64,-67.11"/>
</a>
</g>
</g>
<!-- Node29 -->
<g id="Node000029" class="node">
<title>Node29</title>
<g id="a_Node000029"><a xlink:href="code__80005FD0_8c.html#a079fcee6a401af3fea6904384238b8b2" target="_top" xlink:title=" ">
<polygon fill="white" stroke="#666666" points="889,-147 749,-147 749,-117 889,-117 889,-147"/>
<text text-anchor="start" x="757" y="-135" font-family="Helvetica,sans-Serif" font-size="10.00">find_closest_waypoint</text>
<text text-anchor="middle" x="819" y="-124" font-family="Helvetica,sans-Serif" font-size="10.00">_with_previous_waypoint</text>
</a>
</g>
</g>
<!-- Node28&#45;&gt;Node29 -->
<g id="edge31_Node000028_Node000029" class="edge">
<title>Node28&#45;&gt;Node29</title>
<g id="a_edge31_Node000028_Node000029"><a xlink:title=" ">
<path fill="none" stroke="#63b8ff" d="M676.37,-132C695.18,-132 717.51,-132 738.81,-132"/>
<polygon fill="#63b8ff" stroke="#63b8ff" points="738.83,-135.5 748.83,-132 738.83,-128.5 738.83,-135.5"/>
</a>
</g>
</g>
<!-- Node30 -->
<g id="Node000030" class="node">
<title>Node30</title>
<g id="a_Node000030"><a xlink:href="code__80005FD0_8c.html#a7d3c0ba065700817ec51167b24bb795e" target="_top" xlink:title=" ">
<polygon fill="white" stroke="#666666" points="865,-98.5 773,-98.5 773,-79.5 865,-79.5 865,-98.5"/>
<text text-anchor="middle" x="819" y="-86.5" font-family="Helvetica,sans-Serif" font-size="10.00">func_8000CBF8</text>
</a>
</g>
</g>
<!-- Node28&#45;&gt;Node30 -->
<g id="edge32_Node000028_Node000030" class="edge">
<title>Node28&#45;&gt;Node30</title>
<g id="a_edge32_Node000028_Node000030"><a xlink:title=" ">
<path fill="none" stroke="#63b8ff" d="M672.11,-122.46C700.03,-116.05 736.99,-107.58 766.72,-100.76"/>
<polygon fill="#63b8ff" stroke="#63b8ff" points="767.54,-104.16 776.5,-98.52 765.97,-97.34 767.54,-104.16"/>
</a>
</g>
</g>
<!-- Node31 -->
<g id="Node000031" class="node">
<title>Node31</title>
<g id="a_Node000031"><a xlink:href="code__80005FD0_8c.html#aae3d2d6e27d79a30dfe68c64e771b5b1" target="_top" xlink:title=" ">
<polygon fill="white" stroke="#666666" points="865.5,-184.5 772.5,-184.5 772.5,-165.5 865.5,-165.5 865.5,-184.5"/>
<text text-anchor="middle" x="819" y="-172.5" font-family="Helvetica,sans-Serif" font-size="10.00">func_8000D24C</text>
</a>
</g>
</g>
<!-- Node28&#45;&gt;Node31 -->
<g id="edge33_Node000028_Node000031" class="edge">
<title>Node28&#45;&gt;Node31</title>
<g id="a_edge33_Node000028_Node000031"><a xlink:title=" ">
<path fill="none" stroke="#63b8ff" d="M675.06,-141.56C687.36,-144.24 700.71,-147.2 713,-150 731.17,-154.15 751.08,-158.84 768.62,-163.04"/>
<polygon fill="#63b8ff" stroke="#63b8ff" points="768.11,-166.52 778.65,-165.44 769.74,-159.71 768.11,-166.52"/>
</a>
</g>
</g>
<!-- Node31&#45;&gt;Node4 -->
<g id="edge34_Node000031_Node000004" class="edge">
<title>Node31&#45;&gt;Node4</title>
<g id="a_edge34_Node000031_Node000004"><a xlink:title=" ">
<path fill="none" stroke="#63b8ff" d="M861.05,-184.51C886.32,-190.36 918.91,-197.91 945.84,-204.15"/>
<polygon fill="#63b8ff" stroke="#63b8ff" points="945.33,-207.62 955.86,-206.47 946.91,-200.8 945.33,-207.62"/>
</a>
</g>
</g>
<!-- Node32 -->
<g id="Node000032" class="node">
<title>Node32</title>
<g id="a_Node000032"><a xlink:href="code__80005FD0_8c.html#aeb745494631ced12817eb677b0eac636" target="_top" xlink:title=" ">
<polygon fill="white" stroke="#666666" points="1060.5,-188 935.5,-188 935.5,-158 1060.5,-158 1060.5,-188"/>
<text text-anchor="start" x="943.5" y="-176" font-family="Helvetica,sans-Serif" font-size="10.00">find_closest_waypoint</text>
<text text-anchor="middle" x="998" y="-165" font-family="Helvetica,sans-Serif" font-size="10.00">_track_section</text>
</a>
</g>
</g>
<!-- Node31&#45;&gt;Node32 -->
<g id="edge35_Node000031_Node000032" class="edge">
<title>Node31&#45;&gt;Node32</title>
<g id="a_edge35_Node000031_Node000032"><a xlink:title=" ">
<path fill="none" stroke="#63b8ff" d="M865.58,-174.48C883.72,-174.28 905.03,-174.04 925.15,-173.81"/>
<polygon fill="#63b8ff" stroke="#63b8ff" points="925.27,-177.31 935.23,-173.7 925.19,-170.31 925.27,-177.31"/>
</a>
</g>
</g>
<!-- Node33 -->
<g id="Node000033" class="node">
<title>Node33</title>
<g id="a_Node000033"><a xlink:href="collision_8c.html#a053809031f467d0a6747788211e0ec69" target="_top" xlink:title=" ">
<polygon fill="white" stroke="#666666" points="1056.5,-139.5 939.5,-139.5 939.5,-120.5 1056.5,-120.5 1056.5,-139.5"/>
<text text-anchor="middle" x="998" y="-127.5" font-family="Helvetica,sans-Serif" font-size="10.00">get_track_section_id</text>
</a>
</g>
</g>
<!-- Node31&#45;&gt;Node33 -->
<g id="edge36_Node000031_Node000033" class="edge">
<title>Node31&#45;&gt;Node33</title>
<g id="a_edge36_Node000031_Node000033"><a xlink:title=" ">
<path fill="none" stroke="#63b8ff" d="M857.54,-165.46C884.41,-158.63 920.78,-149.38 949.65,-142.04"/>
<polygon fill="#63b8ff" stroke="#63b8ff" points="950.69,-145.39 959.52,-139.53 948.96,-138.6 950.69,-145.39"/>
</a>
</g>
</g>
<!-- Node35 -->
<g id="Node000035" class="node">
<title>Node35</title>
<g id="a_Node000035"><a xlink:href="math__util_8c.html#a84cf9d4ec33146a64c230ed4cec56632" target="_top" xlink:title=" ">
<polygon fill="white" stroke="#666666" points="886.5,-61 751.5,-61 751.5,-31 886.5,-31 886.5,-61"/>
<text text-anchor="start" x="759.5" y="-49" font-family="Helvetica,sans-Serif" font-size="10.00">get_angle_between_two</text>
<text text-anchor="middle" x="819" y="-38" font-family="Helvetica,sans-Serif" font-size="10.00">_vectors</text>
</a>
</g>
</g>
<!-- Node34&#45;&gt;Node35 -->
<g id="edge38_Node000034_Node000035" class="edge">
<title>Node34&#45;&gt;Node35</title>
<g id="a_edge38_Node000034_Node000035"><a xlink:title=" ">
<path fill="none" stroke="#63b8ff" d="M673.85,-85.46C686.5,-82.56 700.33,-79.27 713,-76 727.47,-72.27 742.98,-67.99 757.52,-63.86"/>
<polygon fill="#63b8ff" stroke="#63b8ff" points="758.76,-67.15 767.41,-61.03 756.83,-60.42 758.76,-67.15"/>
</a>
</g>
</g>
<!-- Node36 -->
<g id="Node000036" class="node">
<title>Node36</title>
<g id="a_Node000036"><a xlink:href="math__util_8c.html#aaa39a297477f56051975259f4bddd829" target="_top" xlink:title=" ">
<polygon fill="white" stroke="#666666" points="1023,-55.5 973,-55.5 973,-36.5 1023,-36.5 1023,-55.5"/>
<text text-anchor="middle" x="998" y="-43.5" font-family="Helvetica,sans-Serif" font-size="10.00">atan2s</text>
</a>
</g>
</g>
<!-- Node35&#45;&gt;Node36 -->
<g id="edge39_Node000035_Node000036" class="edge">
<title>Node35&#45;&gt;Node36</title>
<g id="a_edge39_Node000035_Node000036"><a xlink:title=" ">
<path fill="none" stroke="#63b8ff" d="M886.66,-46C912.48,-46 940.95,-46 962.5,-46"/>
<polygon fill="#63b8ff" stroke="#63b8ff" points="962.78,-49.5 972.78,-46 962.78,-42.5 962.78,-49.5"/>
</a>
</g>
</g>
<!-- Node37 -->
<g id="Node000037" class="node">
<title>Node37</title>
<g id="a_Node000037"><a xlink:href="math__util_8c.html#a0273b0ea0783a06996c28669a7438ed9" target="_top" xlink:title=" ">
<polygon fill="white" stroke="#666666" points="1227,-55.5 1145,-55.5 1145,-36.5 1227,-36.5 1227,-55.5"/>
<text text-anchor="middle" x="1186" y="-43.5" font-family="Helvetica,sans-Serif" font-size="10.00">atan2_lookup</text>
</a>
</g>
</g>
<!-- Node36&#45;&gt;Node37 -->
<g id="edge40_Node000036_Node000037" class="edge">
<title>Node36&#45;&gt;Node37</title>
<g id="a_edge40_Node000036_Node000037"><a xlink:title=" ">
<path fill="none" stroke="#63b8ff" d="M1023.32,-46C1051.37,-46 1098.26,-46 1134.34,-46"/>
<polygon fill="#63b8ff" stroke="#63b8ff" points="1134.68,-49.5 1144.68,-46 1134.68,-42.5 1134.68,-49.5"/>
</a>
</g>
</g>
<!-- Node39&#45;&gt;Node27 -->
<g id="edge43_Node000039_Node000027" class="edge">
<title>Node39&#45;&gt;Node27</title>
<g id="a_edge43_Node000039_Node000027"><a xlink:title=" ">
<path fill="none" stroke="#63b8ff" d="M472.61,-142.63C502.17,-147.63 541.02,-154.2 572.54,-159.53"/>
<polygon fill="#63b8ff" stroke="#63b8ff" points="572.05,-163 582.5,-161.22 573.22,-156.1 572.05,-163"/>
</a>
</g>
</g>
<!-- Node39&#45;&gt;Node28 -->
<g id="edge44_Node000039_Node000028" class="edge">
<title>Node39&#45;&gt;Node28</title>
<g id="a_edge44_Node000039_Node000028"><a xlink:title=" ">
<path fill="none" stroke="#63b8ff" d="M472.61,-134.33C502.14,-133.89 540.96,-133.31 572.46,-132.84"/>
<polygon fill="#63b8ff" stroke="#63b8ff" points="572.9,-136.33 582.85,-132.68 572.8,-129.33 572.9,-136.33"/>
</a>
</g>
</g>
<!-- Node39&#45;&gt;Node34 -->
<g id="edge45_Node000039_Node000034" class="edge">
<title>Node39&#45;&gt;Node34</title>
<g id="a_edge45_Node000039_Node000034"><a xlink:title=" ">
<path fill="none" stroke="#63b8ff" d="M472.61,-126.02C501.64,-120.25 539.65,-112.68 570.86,-106.47"/>
<polygon fill="#63b8ff" stroke="#63b8ff" points="571.62,-109.89 580.74,-104.5 570.25,-103.02 571.62,-109.89"/>
</a>
</g>
</g>
<!-- Node39&#45;&gt;Node38 -->
<g id="edge46_Node000039_Node000038" class="edge">
<title>Node39&#45;&gt;Node38</title>
<g id="a_edge46_Node000039_Node000038"><a xlink:title=" ">
<path fill="none" stroke="#63b8ff" d="M472.63,-129.77C485.32,-126.96 498.73,-122.64 510,-116 530.61,-103.86 525.32,-88.02 546,-76 562.32,-66.51 583.1,-62.02 599.72,-59.89"/>
<polygon fill="#63b8ff" stroke="#63b8ff" points="600.38,-63.34 609.96,-58.81 599.64,-56.38 600.38,-63.34"/>
</a>
</g>
</g>
<!-- Node40&#45;&gt;Node34 -->
<g id="edge49_Node000040_Node000034" class="edge">
<title>Node40&#45;&gt;Node34</title>
<g id="a_edge49_Node000040_Node000034"><a xlink:title=" ">
<path fill="none" stroke="#63b8ff" d="M497.24,-68.88C521.24,-73.65 547.83,-78.95 570.77,-83.51"/>
<polygon fill="#63b8ff" stroke="#63b8ff" points="570.2,-86.97 580.69,-85.49 571.57,-80.1 570.2,-86.97"/>
</a>
</g>
</g>
<!-- Node40&#45;&gt;Node38 -->
<g id="edge50_Node000040_Node000038" class="edge">
<title>Node40&#45;&gt;Node38</title>
<g id="a_edge50_Node000040_Node000038"><a xlink:title=" ">
<path fill="none" stroke="#63b8ff" d="M497.24,-56.04C532.31,-56.56 572.93,-57.17 599.58,-57.57"/>
<polygon fill="#63b8ff" stroke="#63b8ff" points="599.7,-61.07 609.75,-57.72 599.8,-54.07 599.7,-61.07"/>
</a>
</g>
</g>
<!-- Node41 -->
<g id="Node000041" class="node">
<title>Node41</title>
<g id="a_Node000041"><a xlink:href="code__80005FD0_8c.html#af86737b3cfb7e459773a5a4c3dfae843" target="_top" xlink:title=" ">
<polygon fill="white" stroke="#666666" points="689.5,-30 569.5,-30 569.5,0 689.5,0 689.5,-30"/>
<text text-anchor="start" x="577.5" y="-18" font-family="Helvetica,sans-Serif" font-size="10.00">find_closest_vehicles</text>
<text text-anchor="middle" x="629.5" y="-7" font-family="Helvetica,sans-Serif" font-size="10.00">_waypoint</text>
</a>
</g>
</g>
<!-- Node40&#45;&gt;Node41 -->
<g id="edge48_Node000040_Node000041" class="edge">
<title>Node40&#45;&gt;Node41</title>
<g id="a_edge48_Node000040_Node000041"><a xlink:title=" ">
<path fill="none" stroke="#63b8ff" d="M497.24,-41.12C517.31,-37.13 539.21,-32.77 559.26,-28.78"/>
<polygon fill="#63b8ff" stroke="#63b8ff" points="560.12,-32.18 569.24,-26.79 558.75,-25.31 560.12,-32.18"/>
</a>
</g>
</g>
</g>
</svg>
