<?xml version="1.0" encoding="UTF-8" standalone="no"?>
<!DOCTYPE svg PUBLIC "-//W3C//DTD SVG 1.1//EN"
 "http://www.w3.org/Graphics/SVG/1.1/DTD/svg11.dtd">
<!-- Generated by graphviz version 2.43.0 (0)
 -->
<!-- Title: func_8000C9DC Pages: 1 -->
<svg width="1987pt" height="484pt"
 viewBox="0.00 0.00 1987.00 484.00" xmlns="http://www.w3.org/2000/svg" xmlns:xlink="http://www.w3.org/1999/xlink">
<g id="graph0" class="graph" transform="scale(1 1) rotate(0) translate(4 480)">
<title>func_8000C9DC</title>
<polygon fill="white" stroke="transparent" points="-4,4 -4,-480 1983,-480 1983,4 -4,4"/>
<!-- Node1 -->
<g id="node1" class="node">
<title>Node1</title>
<g id="a_node1"><a xlink:title=" ">
<polygon fill="#bfbfbf" stroke="black" points="1885,-228.5 1885,-247.5 1979,-247.5 1979,-228.5 1885,-228.5"/>
<text text-anchor="middle" x="1932" y="-235.5" font-family="Helvetica,sans-Serif" font-size="10.00">func_8000C9DC</text>
</a>
</g>
</g>
<!-- Node2 -->
<g id="node2" class="node">
<title>Node2</title>
<g id="a_node2"><a xlink:href="code__80005FD0_8c.html#a3d324f572c792c0d1e5242d91e8e91f2" target="_top" xlink:title=" ">
<polygon fill="white" stroke="black" points="1756,-275.5 1756,-294.5 1849,-294.5 1849,-275.5 1756,-275.5"/>
<text text-anchor="middle" x="1802.5" y="-282.5" font-family="Helvetica,sans-Serif" font-size="10.00">func_8000CD24</text>
</a>
</g>
</g>
<!-- Node1&#45;&gt;Node2 -->
<g id="edge1" class="edge">
<title>Node1&#45;&gt;Node2</title>
<path fill="none" stroke="midnightblue" d="M1895.7,-251.01C1874.8,-258.72 1848.77,-268.31 1829.7,-275.34"/>
<polygon fill="midnightblue" stroke="midnightblue" points="1897.03,-254.25 1905.2,-247.51 1894.61,-247.69 1897.03,-254.25"/>
</g>
<!-- Node4 -->
<g id="node4" class="node">
<title>Node4</title>
<g id="a_node4"><a xlink:href="code__80005FD0_8c.html#aff1ba4b22fc22c38fcf28007ccaaa752" target="_top" xlink:title=" ">
<polygon fill="white" stroke="black" points="1756,-228.5 1756,-247.5 1849,-247.5 1849,-228.5 1756,-228.5"/>
<text text-anchor="middle" x="1802.5" y="-235.5" font-family="Helvetica,sans-Serif" font-size="10.00">func_8000D2B4</text>
</a>
</g>
</g>
<!-- Node1&#45;&gt;Node4 -->
<g id="edge3" class="edge">
<title>Node1&#45;&gt;Node4</title>
<path fill="none" stroke="midnightblue" d="M1874.93,-238C1866.28,-238 1857.43,-238 1849.04,-238"/>
<polygon fill="midnightblue" stroke="midnightblue" points="1874.97,-241.5 1884.97,-238 1874.97,-234.5 1874.97,-241.5"/>
</g>
<!-- Node44 -->
<g id="node44" class="node">
<title>Node44</title>
<g id="a_node44"><a xlink:href="code__80005FD0_8c.html#ac12bccf3deb2b9633f49acd4376e0465" target="_top" xlink:title=" ">
<polygon fill="white" stroke="black" points="1497,-38.5 1497,-57.5 1590,-57.5 1590,-38.5 1497,-38.5"/>
<text text-anchor="middle" x="1543.5" y="-45.5" font-family="Helvetica,sans-Serif" font-size="10.00">func_8000D33C</text>
</a>
</g>
</g>
<!-- Node1&#45;&gt;Node44 -->
<g id="edge62" class="edge">
<title>Node1&#45;&gt;Node44</title>
<path fill="none" stroke="midnightblue" d="M1902.26,-223.87C1827.39,-187.07 1627.73,-88.91 1564.2,-57.68"/>
<polygon fill="midnightblue" stroke="midnightblue" points="1901.05,-227.18 1911.57,-228.45 1904.14,-220.89 1901.05,-227.18"/>
</g>
<!-- Node3 -->
<g id="node3" class="node">
<title>Node3</title>
<g id="a_node3"><a xlink:href="code__80005FD0_8c.html#aebb583cea651e46979b4827eba66cbde" target="_top" xlink:title=" ">
<polygon fill="white" stroke="black" points="1627.5,-285.5 1627.5,-304.5 1718.5,-304.5 1718.5,-285.5 1627.5,-285.5"/>
<text text-anchor="middle" x="1673" y="-292.5" font-family="Helvetica,sans-Serif" font-size="10.00">func_800090F0</text>
</a>
</g>
</g>
<!-- Node2&#45;&gt;Node3 -->
<g id="edge2" class="edge">
<title>Node2&#45;&gt;Node3</title>
<path fill="none" stroke="midnightblue" d="M1745.81,-289.37C1736.82,-290.07 1727.62,-290.79 1718.92,-291.48"/>
<polygon fill="midnightblue" stroke="midnightblue" points="1746.13,-292.85 1755.83,-288.58 1745.59,-285.87 1746.13,-292.85"/>
</g>
<!-- Node5 -->
<g id="node5" class="node">
<title>Node5</title>
<g id="a_node5"><a xlink:href="code__80005FD0_8c.html#aa39e2aaaacd04e16311cb002a50102f2" target="_top" xlink:title=" ">
<polygon fill="white" stroke="black" points="1626,-247.5 1626,-266.5 1720,-266.5 1720,-247.5 1626,-247.5"/>
<text text-anchor="middle" x="1673" y="-254.5" font-family="Helvetica,sans-Serif" font-size="10.00">func_8000D6D0</text>
</a>
</g>
</g>
<!-- Node4&#45;&gt;Node5 -->
<g id="edge4" class="edge">
<title>Node4&#45;&gt;Node5</title>
<path fill="none" stroke="midnightblue" d="M1745.89,-246.29C1737.32,-247.56 1728.55,-248.87 1720.21,-250.11"/>
<polygon fill="midnightblue" stroke="midnightblue" points="1746.45,-249.74 1755.83,-244.81 1745.42,-242.82 1746.45,-249.74"/>
</g>
<!-- Node35 -->
<g id="node35" class="node">
<title>Node35</title>
<g id="a_node35"><a xlink:href="code__80005FD0_8c.html#a5a0e67ccde01cf1fb86f9fbd14161e4e" target="_top" xlink:title=" ">
<polygon fill="white" stroke="black" points="1627,-209.5 1627,-228.5 1719,-228.5 1719,-209.5 1627,-209.5"/>
<text text-anchor="middle" x="1673" y="-216.5" font-family="Helvetica,sans-Serif" font-size="10.00">func_8000D940</text>
</a>
</g>
</g>
<!-- Node4&#45;&gt;Node35 -->
<g id="edge45" class="edge">
<title>Node4&#45;&gt;Node35</title>
<path fill="none" stroke="midnightblue" d="M1745.93,-229.72C1737.05,-228.4 1727.96,-227.04 1719.35,-225.76"/>
<polygon fill="midnightblue" stroke="midnightblue" points="1745.42,-233.18 1755.83,-231.19 1746.45,-226.26 1745.42,-233.18"/>
</g>
<!-- Node6 -->
<g id="node6" class="node">
<title>Node6</title>
<g id="a_node6"><a xlink:href="code__80005FD0_8c.html#a93313abf66f75a07eec17a337f7d9ba2" target="_top" xlink:title=" ">
<polygon fill="white" stroke="black" points="1498,-247.5 1498,-266.5 1589,-266.5 1589,-247.5 1498,-247.5"/>
<text text-anchor="middle" x="1543.5" y="-254.5" font-family="Helvetica,sans-Serif" font-size="10.00">func_80012220</text>
</a>
</g>
</g>
<!-- Node5&#45;&gt;Node6 -->
<g id="edge5" class="edge">
<title>Node5&#45;&gt;Node6</title>
<path fill="none" stroke="midnightblue" d="M1615.69,-257C1606.81,-257 1597.74,-257 1589.18,-257"/>
<polygon fill="midnightblue" stroke="midnightblue" points="1615.97,-260.5 1625.97,-257 1615.97,-253.5 1615.97,-260.5"/>
</g>
<!-- Node15 -->
<g id="node15" class="node">
<title>Node15</title>
<g id="a_node15"><a xlink:href="code__80005FD0_8c.html#a81c4dea988ca9590da6176b35de2c37c" target="_top" xlink:title=" ">
<polygon fill="white" stroke="black" points="1498,-361.5 1498,-380.5 1589,-380.5 1589,-361.5 1498,-361.5"/>
<text text-anchor="middle" x="1543.5" y="-368.5" font-family="Helvetica,sans-Serif" font-size="10.00">func_800139E4</text>
</a>
</g>
</g>
<!-- Node5&#45;&gt;Node15 -->
<g id="edge14" class="edge">
<title>Node5&#45;&gt;Node15</title>
<path fill="none" stroke="midnightblue" d="M1633.53,-271.23C1630.9,-272.7 1628.36,-274.29 1626,-276 1591.85,-300.72 1562.66,-342.53 1550.52,-361.33"/>
<polygon fill="midnightblue" stroke="midnightblue" points="1635.28,-274.27 1642.68,-266.68 1632.17,-268 1635.28,-274.27"/>
</g>
<!-- Node25 -->
<g id="node25" class="node">
<title>Node25</title>
<g id="a_node25"><a xlink:href="code__80005FD0_8c.html#aca890afb34ef4a0ef9b2a0397ea8cce3" target="_top" xlink:title=" ">
<polygon fill="white" stroke="black" points="1497.5,-209.5 1497.5,-228.5 1589.5,-228.5 1589.5,-209.5 1497.5,-209.5"/>
<text text-anchor="middle" x="1543.5" y="-216.5" font-family="Helvetica,sans-Serif" font-size="10.00">func_80013D20</text>
</a>
</g>
</g>
<!-- Node5&#45;&gt;Node25 -->
<g id="edge30" class="edge">
<title>Node5&#45;&gt;Node25</title>
<path fill="none" stroke="midnightblue" d="M1629.94,-244.46C1612.6,-239.3 1592.82,-233.4 1576.66,-228.59"/>
<polygon fill="midnightblue" stroke="midnightblue" points="1629.24,-247.91 1639.83,-247.41 1631.24,-241.2 1629.24,-247.91"/>
</g>
<!-- Node7 -->
<g id="node7" class="node">
<title>Node7</title>
<g id="a_node7"><a xlink:href="code__80005FD0_8c.html#afd6fa1e9b8e8378fffcaa462fdc81ef6" target="_top" xlink:title=" ">
<polygon fill="white" stroke="black" points="1345,-304.5 1345,-323.5 1461,-323.5 1461,-304.5 1345,-304.5"/>
<text text-anchor="middle" x="1403" y="-311.5" font-family="Helvetica,sans-Serif" font-size="10.00">init_course_vehicles</text>
</a>
</g>
</g>
<!-- Node6&#45;&gt;Node7 -->
<g id="edge6" class="edge">
<title>Node6&#45;&gt;Node7</title>
<path fill="none" stroke="midnightblue" d="M1514.58,-270.99C1499,-278.54 1479.14,-287.78 1461,-295 1452.57,-298.36 1443.29,-301.63 1434.7,-304.48"/>
<polygon fill="midnightblue" stroke="midnightblue" points="1516.23,-274.08 1523.67,-266.53 1513.15,-267.79 1516.23,-274.08"/>
</g>
<!-- Node8 -->
<g id="node8" class="node">
<title>Node8</title>
<g id="a_node8"><a xlink:href="actors_8c.html#ad4c7671a474d355b39c737fdf54caffc" target="_top" xlink:title=" ">
<polygon fill="white" stroke="black" points="960.5,-304.5 960.5,-323.5 1051.5,-323.5 1051.5,-304.5 960.5,-304.5"/>
<text text-anchor="middle" x="1006" y="-311.5" font-family="Helvetica,sans-Serif" font-size="10.00">func_8029E158</text>
</a>
</g>
</g>
<!-- Node7&#45;&gt;Node8 -->
<g id="edge7" class="edge">
<title>Node7&#45;&gt;Node8</title>
<path fill="none" stroke="midnightblue" d="M1334.93,-314C1254.2,-314 1120.91,-314 1051.75,-314"/>
<polygon fill="midnightblue" stroke="midnightblue" points="1334.99,-317.5 1344.99,-314 1334.99,-310.5 1334.99,-317.5"/>
</g>
<!-- Node9 -->
<g id="node9" class="node">
<title>Node9</title>
<g id="a_node9"><a xlink:href="code__800029B0_8c.html#aca6165112fc92e65ad6477e785a7098c" target="_top" xlink:title=" ">
<polygon fill="white" stroke="black" points="819,-304.5 819,-323.5 889,-323.5 889,-304.5 819,-304.5"/>
<text text-anchor="middle" x="854" y="-311.5" font-family="Helvetica,sans-Serif" font-size="10.00">setup_race</text>
</a>
</g>
</g>
<!-- Node8&#45;&gt;Node9 -->
<g id="edge8" class="edge">
<title>Node8&#45;&gt;Node9</title>
<path fill="none" stroke="midnightblue" d="M950.27,-314C929.84,-314 907.24,-314 889.18,-314"/>
<polygon fill="midnightblue" stroke="midnightblue" points="950.4,-317.5 960.4,-314 950.4,-310.5 950.4,-317.5"/>
</g>
<!-- Node10 -->
<g id="node10" class="node">
<title>Node10</title>
<g id="a_node10"><a xlink:href="main_8c.html#ad0625ed56ac663d3ec7ae8f1ba50c735" target="_top" xlink:title=" ">
<polygon fill="white" stroke="black" points="640,-304.5 640,-323.5 748,-323.5 748,-304.5 640,-304.5"/>
<text text-anchor="middle" x="694" y="-311.5" font-family="Helvetica,sans-Serif" font-size="10.00">update_gamestate</text>
</a>
</g>
</g>
<!-- Node9&#45;&gt;Node10 -->
<g id="edge9" class="edge">
<title>Node9&#45;&gt;Node10</title>
<path fill="none" stroke="midnightblue" d="M808.65,-314C789.87,-314 767.82,-314 748.17,-314"/>
<polygon fill="midnightblue" stroke="midnightblue" points="808.72,-317.5 818.72,-314 808.72,-310.5 808.72,-317.5"/>
</g>
<!-- Node11 -->
<g id="node11" class="node">
<title>Node11</title>
<g id="a_node11"><a xlink:href="main_8c.html#a633ed517e458daeb768f5361895dcac9" target="_top" xlink:title=" ">
<polygon fill="white" stroke="black" points="339,-181.5 339,-200.5 452,-200.5 452,-181.5 339,-181.5"/>
<text text-anchor="middle" x="395.5" y="-188.5" font-family="Helvetica,sans-Serif" font-size="10.00">thread5_game_loop</text>
</a>
</g>
</g>
<!-- Node10&#45;&gt;Node11 -->
<g id="edge10" class="edge">
<title>Node10&#45;&gt;Node11</title>
<path fill="none" stroke="midnightblue" d="M660.29,-300.43C599.85,-275.36 472.06,-222.34 419.66,-200.61"/>
<polygon fill="midnightblue" stroke="midnightblue" points="659.16,-303.75 669.73,-304.35 661.84,-297.28 659.16,-303.75"/>
</g>
<!-- Node12 -->
<g id="node12" class="node">
<title>Node12</title>
<g id="a_node12"><a xlink:href="main_8c.html#a023b8f272e4efbd33f371e91ffff6b30" target="_top" xlink:title=" ">
<polygon fill="white" stroke="black" points="217,-181.5 217,-200.5 303,-200.5 303,-181.5 217,-181.5"/>
<text text-anchor="middle" x="260" y="-188.5" font-family="Helvetica,sans-Serif" font-size="10.00">thread3_video</text>
</a>
</g>
</g>
<!-- Node11&#45;&gt;Node12 -->
<g id="edge11" class="edge">
<title>Node11&#45;&gt;Node12</title>
<path fill="none" stroke="midnightblue" d="M328.57,-191C319.94,-191 311.3,-191 303.21,-191"/>
<polygon fill="midnightblue" stroke="midnightblue" points="328.66,-194.5 338.66,-191 328.66,-187.5 328.66,-194.5"/>
</g>
<!-- Node13 -->
<g id="node13" class="node">
<title>Node13</title>
<g id="a_node13"><a xlink:href="main_8c.html#a1e35d2b842121e6aea373f09381616e5" target="_top" xlink:title=" ">
<polygon fill="white" stroke="black" points="104,-181.5 104,-200.5 181,-200.5 181,-181.5 104,-181.5"/>
<text text-anchor="middle" x="142.5" y="-188.5" font-family="Helvetica,sans-Serif" font-size="10.00">thread1_idle</text>
</a>
</g>
</g>
<!-- Node12&#45;&gt;Node13 -->
<g id="edge12" class="edge">
<title>Node12&#45;&gt;Node13</title>
<path fill="none" stroke="midnightblue" d="M206.9,-191C198.2,-191 189.33,-191 181.09,-191"/>
<polygon fill="midnightblue" stroke="midnightblue" points="206.98,-194.5 216.98,-191 206.98,-187.5 206.98,-194.5"/>
</g>
<!-- Node14 -->
<g id="node14" class="node">
<title>Node14</title>
<g id="a_node14"><a xlink:href="main_8c.html#a4f87d43525fe95f60ea92bc8a3b70e62" target="_top" xlink:title=" ">
<polygon fill="white" stroke="black" points="0,-181.5 0,-200.5 68,-200.5 68,-181.5 0,-181.5"/>
<text text-anchor="middle" x="34" y="-188.5" font-family="Helvetica,sans-Serif" font-size="10.00">main_func</text>
</a>
</g>
</g>
<!-- Node13&#45;&gt;Node14 -->
<g id="edge13" class="edge">
<title>Node13&#45;&gt;Node14</title>
<path fill="none" stroke="midnightblue" d="M93.95,-191C85.29,-191 76.44,-191 68.31,-191"/>
<polygon fill="midnightblue" stroke="midnightblue" points="93.95,-194.5 103.95,-191 93.95,-187.5 93.95,-194.5"/>
</g>
<!-- Node16 -->
<g id="node16" class="node">
<title>Node16</title>
<g id="a_node16"><a xlink:href="code__80005FD0_8c.html#a38ce2545c5f2c06a99d94d735f024fc0" target="_top" xlink:title=" ">
<polygon fill="white" stroke="black" points="1357.5,-456.5 1357.5,-475.5 1448.5,-475.5 1448.5,-456.5 1357.5,-456.5"/>
<text text-anchor="middle" x="1403" y="-463.5" font-family="Helvetica,sans-Serif" font-size="10.00">func_800147E0</text>
</a>
</g>
</g>
<!-- Node15&#45;&gt;Node16 -->
<g id="edge15" class="edge">
<title>Node15&#45;&gt;Node16</title>
<path fill="none" stroke="midnightblue" d="M1528.14,-388.15C1513.02,-405.23 1487.73,-431.12 1461,-447 1454.72,-450.73 1447.62,-453.84 1440.6,-456.39"/>
<polygon fill="midnightblue" stroke="midnightblue" points="1530.81,-390.41 1534.71,-380.56 1525.52,-385.83 1530.81,-390.41"/>
</g>
<!-- Node22 -->
<g id="node22" class="node">
<title>Node22</title>
<g id="a_node22"><a xlink:href="code__80005FD0_8c.html#ad7ec44b95b034a1b04853213f1d928ca" target="_top" xlink:title=" ">
<polygon fill="white" stroke="black" points="1357.5,-418.5 1357.5,-437.5 1448.5,-437.5 1448.5,-418.5 1357.5,-418.5"/>
<text text-anchor="middle" x="1403" y="-425.5" font-family="Helvetica,sans-Serif" font-size="10.00">func_80014934</text>
</a>
</g>
</g>
<!-- Node15&#45;&gt;Node22 -->
<g id="edge24" class="edge">
<title>Node15&#45;&gt;Node22</title>
<path fill="none" stroke="midnightblue" d="M1514.58,-384.99C1499,-392.54 1479.14,-401.78 1461,-409 1452.57,-412.36 1443.29,-415.63 1434.7,-418.48"/>
<polygon fill="midnightblue" stroke="midnightblue" points="1516.23,-388.08 1523.67,-380.53 1513.15,-381.79 1516.23,-388.08"/>
</g>
<!-- Node23 -->
<g id="node23" class="node">
<title>Node23</title>
<g id="a_node23"><a xlink:href="code__80005FD0_8c.html#af3aae9dad721ce28a06e6cd071f20dd6" target="_top" xlink:title=" ">
<polygon fill="white" stroke="black" points="1357,-380.5 1357,-399.5 1449,-399.5 1449,-380.5 1357,-380.5"/>
<text text-anchor="middle" x="1403" y="-387.5" font-family="Helvetica,sans-Serif" font-size="10.00">func_80014A88</text>
</a>
</g>
</g>
<!-- Node15&#45;&gt;Node23 -->
<g id="edge26" class="edge">
<title>Node15&#45;&gt;Node23</title>
<path fill="none" stroke="midnightblue" d="M1487.89,-378.49C1475.16,-380.24 1461.74,-382.08 1449.45,-383.76"/>
<polygon fill="midnightblue" stroke="midnightblue" points="1488.48,-381.94 1497.92,-377.12 1487.53,-375.01 1488.48,-381.94"/>
</g>
<!-- Node24 -->
<g id="node24" class="node">
<title>Node24</title>
<g id="a_node24"><a xlink:href="code__80005FD0_8c.html#af8d770b76281ba995dc87bc9e27722d7" target="_top" xlink:title=" ">
<polygon fill="white" stroke="black" points="1356,-342.5 1356,-361.5 1450,-361.5 1450,-342.5 1356,-342.5"/>
<text text-anchor="middle" x="1403" y="-349.5" font-family="Helvetica,sans-Serif" font-size="10.00">func_80014BDC</text>
</a>
</g>
</g>
<!-- Node15&#45;&gt;Node24 -->
<g id="edge28" class="edge">
<title>Node15&#45;&gt;Node24</title>
<path fill="none" stroke="midnightblue" d="M1487.73,-363.49C1475.37,-361.79 1462.38,-360.01 1450.41,-358.37"/>
<polygon fill="midnightblue" stroke="midnightblue" points="1487.53,-366.99 1497.92,-364.88 1488.48,-360.06 1487.53,-366.99"/>
</g>
<!-- Node17 -->
<g id="node17" class="node">
<title>Node17</title>
<g id="a_node17"><a xlink:href="code__80005FD0_8c.html#a1b88258c47677456a6de78bbce674c21" target="_top" xlink:title=" ">
<polygon fill="white" stroke="black" points="1216,-380.5 1216,-399.5 1309,-399.5 1309,-380.5 1216,-380.5"/>
<text text-anchor="middle" x="1262.5" y="-387.5" font-family="Helvetica,sans-Serif" font-size="10.00">func_8000F2DC</text>
</a>
</g>
</g>
<!-- Node16&#45;&gt;Node17 -->
<g id="edge16" class="edge">
<title>Node16&#45;&gt;Node17</title>
<path fill="none" stroke="midnightblue" d="M1358.43,-452.94C1353.82,-451.13 1349.26,-449.14 1345,-447 1318.16,-433.5 1290.15,-412.02 1274.97,-399.64"/>
<polygon fill="midnightblue" stroke="midnightblue" points="1357.3,-456.25 1367.89,-456.42 1359.71,-449.68 1357.3,-456.25"/>
</g>
<!-- Node18 -->
<g id="node18" class="node">
<title>Node18</title>
<g id="a_node18"><a xlink:href="code__80005FD0_8c.html#a325ddded54aab32025174f6aedd5e391" target="_top" xlink:title=" ">
<polygon fill="white" stroke="black" points="1088,-380.5 1088,-399.5 1180,-399.5 1180,-380.5 1088,-380.5"/>
<text text-anchor="middle" x="1134" y="-387.5" font-family="Helvetica,sans-Serif" font-size="10.00">func_8001C05C</text>
</a>
</g>
</g>
<!-- Node17&#45;&gt;Node18 -->
<g id="edge17" class="edge">
<title>Node17&#45;&gt;Node18</title>
<path fill="none" stroke="midnightblue" d="M1205.59,-390C1197.09,-390 1188.41,-390 1180.18,-390"/>
<polygon fill="midnightblue" stroke="midnightblue" points="1205.83,-393.5 1215.83,-390 1205.83,-386.5 1205.83,-393.5"/>
</g>
<!-- Node20 -->
<g id="node20" class="node">
<title>Node20</title>
<g id="a_node20"><a xlink:href="spawn__players_8c.html#afb1c307e34d73d9c004936d2752c44ce" target="_top" xlink:title=" ">
<polygon fill="white" stroke="black" points="1088,-342.5 1088,-361.5 1180,-361.5 1180,-342.5 1088,-342.5"/>
<text text-anchor="middle" x="1134" y="-349.5" font-family="Helvetica,sans-Serif" font-size="10.00">func_8003C0F0</text>
</a>
</g>
</g>
<!-- Node17&#45;&gt;Node20 -->
<g id="edge20" class="edge">
<title>Node17&#45;&gt;Node20</title>
<path fill="none" stroke="midnightblue" d="M1219.77,-377.46C1202.56,-372.3 1182.94,-366.4 1166.91,-361.59"/>
<polygon fill="midnightblue" stroke="midnightblue" points="1218.99,-380.89 1229.58,-380.41 1221.01,-374.18 1218.99,-380.89"/>
</g>
<!-- Node19 -->
<g id="node19" class="node">
<title>Node19</title>
<g id="a_node19"><a xlink:href="code__80281780_8c.html#af227cfd0f1fd3d6adbe9a29ad59b4dc8" target="_top" xlink:title=" ">
<polygon fill="white" stroke="black" points="784,-342.5 784,-361.5 924,-361.5 924,-342.5 784,-342.5"/>
<text text-anchor="middle" x="854" y="-349.5" font-family="Helvetica,sans-Serif" font-size="10.00">load_ceremony_cutscene</text>
</a>
</g>
</g>
<!-- Node18&#45;&gt;Node19 -->
<g id="edge18" class="edge">
<title>Node18&#45;&gt;Node19</title>
<path fill="none" stroke="midnightblue" d="M1077.52,-384.9C1043.52,-381.53 999.16,-376.69 960,-371 941.48,-368.31 921.23,-364.79 903.5,-361.5"/>
<polygon fill="midnightblue" stroke="midnightblue" points="1077.43,-388.41 1087.72,-385.9 1078.11,-381.44 1077.43,-388.41"/>
</g>
<!-- Node19&#45;&gt;Node10 -->
<g id="edge19" class="edge">
<title>Node19&#45;&gt;Node10</title>
<path fill="none" stroke="midnightblue" d="M803.24,-340.03C781.1,-334.71 755.39,-328.52 734.58,-323.52"/>
<polygon fill="midnightblue" stroke="midnightblue" points="802.59,-343.48 813.13,-342.41 804.23,-336.67 802.59,-343.48"/>
</g>
<!-- Node21 -->
<g id="node21" class="node">
<title>Node21</title>
<g id="a_node21"><a xlink:href="spawn__players_8c.html#ac1a9412b931cfa517a2382c2fc605399" target="_top" xlink:title=" ">
<polygon fill="white" stroke="black" points="960,-342.5 960,-361.5 1052,-361.5 1052,-342.5 960,-342.5"/>
<text text-anchor="middle" x="1006" y="-349.5" font-family="Helvetica,sans-Serif" font-size="10.00">func_8003D080</text>
</a>
</g>
</g>
<!-- Node20&#45;&gt;Node21 -->
<g id="edge21" class="edge">
<title>Node20&#45;&gt;Node21</title>
<path fill="none" stroke="midnightblue" d="M1077.65,-352C1069.16,-352 1060.48,-352 1052.24,-352"/>
<polygon fill="midnightblue" stroke="midnightblue" points="1077.87,-355.5 1087.87,-352 1077.87,-348.5 1077.87,-355.5"/>
</g>
<!-- Node21&#45;&gt;Node9 -->
<g id="edge23" class="edge">
<title>Node21&#45;&gt;Node9</title>
<path fill="none" stroke="midnightblue" d="M957.28,-339.91C935.17,-334.31 909.39,-327.78 889.25,-322.68"/>
<polygon fill="midnightblue" stroke="midnightblue" points="956.6,-343.35 967.15,-342.41 958.31,-336.56 956.6,-343.35"/>
</g>
<!-- Node21&#45;&gt;Node19 -->
<g id="edge22" class="edge">
<title>Node21&#45;&gt;Node19</title>
<path fill="none" stroke="midnightblue" d="M949.95,-352C941.54,-352 932.77,-352 924.11,-352"/>
<polygon fill="midnightblue" stroke="midnightblue" points="950,-355.5 960,-352 950,-348.5 950,-355.5"/>
</g>
<!-- Node22&#45;&gt;Node17 -->
<g id="edge25" class="edge">
<title>Node22&#45;&gt;Node17</title>
<path fill="none" stroke="midnightblue" d="M1357.37,-415.75C1338.28,-410.52 1316.32,-404.49 1298.44,-399.59"/>
<polygon fill="midnightblue" stroke="midnightblue" points="1356.48,-419.14 1367.05,-418.41 1358.33,-412.39 1356.48,-419.14"/>
</g>
<!-- Node23&#45;&gt;Node17 -->
<g id="edge27" class="edge">
<title>Node23&#45;&gt;Node17</title>
<path fill="none" stroke="midnightblue" d="M1346.5,-390C1334.2,-390 1321.29,-390 1309.43,-390"/>
<polygon fill="midnightblue" stroke="midnightblue" points="1346.65,-393.5 1356.65,-390 1346.65,-386.5 1346.65,-393.5"/>
</g>
<!-- Node24&#45;&gt;Node17 -->
<g id="edge29" class="edge">
<title>Node24&#45;&gt;Node17</title>
<path fill="none" stroke="midnightblue" d="M1357.37,-364.25C1338.28,-369.48 1316.32,-375.51 1298.44,-380.41"/>
<polygon fill="midnightblue" stroke="midnightblue" points="1358.33,-367.61 1367.05,-361.59 1356.48,-360.86 1358.33,-367.61"/>
</g>
<!-- Node26 -->
<g id="node26" class="node">
<title>Node26</title>
<g id="a_node26"><a xlink:href="code__80005FD0_8c.html#a394feba900a9c8821d8f73a7830a6a57" target="_top" xlink:title=" ">
<polygon fill="white" stroke="black" points="1357,-190.5 1357,-209.5 1449,-209.5 1449,-190.5 1357,-190.5"/>
<text text-anchor="middle" x="1403" y="-197.5" font-family="Helvetica,sans-Serif" font-size="10.00">func_8001487C</text>
</a>
</g>
</g>
<!-- Node25&#45;&gt;Node26 -->
<g id="edge31" class="edge">
<title>Node25&#45;&gt;Node26</title>
<path fill="none" stroke="midnightblue" d="M1486.89,-211.37C1474.46,-209.67 1461.42,-207.88 1449.45,-206.24"/>
<polygon fill="midnightblue" stroke="midnightblue" points="1486.77,-214.89 1497.15,-212.78 1487.72,-207.95 1486.77,-214.89"/>
</g>
<!-- Node32 -->
<g id="node32" class="node">
<title>Node32</title>
<g id="a_node32"><a xlink:href="code__80005FD0_8c.html#a05d157370926e46f3be0d52c84ef4e93" target="_top" xlink:title=" ">
<polygon fill="white" stroke="black" points="1357,-152.5 1357,-171.5 1449,-171.5 1449,-152.5 1357,-152.5"/>
<text text-anchor="middle" x="1403" y="-159.5" font-family="Helvetica,sans-Serif" font-size="10.00">func_800149D0</text>
</a>
</g>
</g>
<!-- Node25&#45;&gt;Node32 -->
<g id="edge39" class="edge">
<title>Node25&#45;&gt;Node32</title>
<path fill="none" stroke="midnightblue" d="M1514.58,-205.01C1499,-197.46 1479.14,-188.22 1461,-181 1452.57,-177.64 1443.29,-174.37 1434.7,-171.52"/>
<polygon fill="midnightblue" stroke="midnightblue" points="1513.15,-208.21 1523.67,-209.47 1516.23,-201.92 1513.15,-208.21"/>
</g>
<!-- Node33 -->
<g id="node33" class="node">
<title>Node33</title>
<g id="a_node33"><a xlink:href="code__80005FD0_8c.html#a9a279fe9140cea9ff4c0284a5495a65e" target="_top" xlink:title=" ">
<polygon fill="white" stroke="black" points="1357,-266.5 1357,-285.5 1449,-285.5 1449,-266.5 1357,-266.5"/>
<text text-anchor="middle" x="1403" y="-273.5" font-family="Helvetica,sans-Serif" font-size="10.00">func_80014B24</text>
</a>
</g>
</g>
<!-- Node25&#45;&gt;Node33 -->
<g id="edge41" class="edge">
<title>Node25&#45;&gt;Node33</title>
<path fill="none" stroke="midnightblue" d="M1508.93,-232.62C1504.88,-234.37 1500.83,-236.19 1497,-238 1480.64,-245.72 1477.64,-249.89 1461,-257 1452.94,-260.44 1444.04,-263.67 1435.7,-266.46"/>
<polygon fill="midnightblue" stroke="midnightblue" points="1510.4,-235.79 1518.24,-228.66 1507.66,-229.35 1510.4,-235.79"/>
</g>
<!-- Node34 -->
<g id="node34" class="node">
<title>Node34</title>
<g id="a_node34"><a xlink:href="code__80005FD0_8c.html#aa067ddc50eb34e003eae0cb05aac50cc" target="_top" xlink:title=" ">
<polygon fill="white" stroke="black" points="1357,-228.5 1357,-247.5 1449,-247.5 1449,-228.5 1357,-228.5"/>
<text text-anchor="middle" x="1403" y="-235.5" font-family="Helvetica,sans-Serif" font-size="10.00">func_80014C78</text>
</a>
</g>
</g>
<!-- Node25&#45;&gt;Node34 -->
<g id="edge43" class="edge">
<title>Node25&#45;&gt;Node34</title>
<path fill="none" stroke="midnightblue" d="M1486.89,-226.63C1474.46,-228.33 1461.42,-230.12 1449.45,-231.76"/>
<polygon fill="midnightblue" stroke="midnightblue" points="1487.72,-230.05 1497.15,-225.22 1486.77,-223.11 1487.72,-230.05"/>
</g>
<!-- Node27 -->
<g id="node27" class="node">
<title>Node27</title>
<g id="a_node27"><a xlink:href="code__80005FD0_8c.html#a0beffd50c650792fcea6415b153aa74f" target="_top" xlink:title=" ">
<polygon fill="white" stroke="black" points="1217,-209.5 1217,-228.5 1308,-228.5 1308,-209.5 1217,-209.5"/>
<text text-anchor="middle" x="1262.5" y="-216.5" font-family="Helvetica,sans-Serif" font-size="10.00">func_800097E0</text>
</a>
</g>
</g>
<!-- Node26&#45;&gt;Node27 -->
<g id="edge32" class="edge">
<title>Node26&#45;&gt;Node27</title>
<path fill="none" stroke="midnightblue" d="M1346.55,-207.61C1333.74,-209.36 1320.28,-211.21 1308.01,-212.89"/>
<polygon fill="midnightblue" stroke="midnightblue" points="1347.22,-211.05 1356.65,-206.22 1346.27,-204.11 1347.22,-211.05"/>
</g>
<!-- Node28 -->
<g id="node28" class="node">
<title>Node28</title>
<g id="a_node28"><a xlink:href="race__logic_8c.html#af3b28af56eee680540843d3bd6bd24ba" target="_top" xlink:title=" ">
<polygon fill="white" stroke="black" points="960.5,-219.5 960.5,-238.5 1051.5,-238.5 1051.5,-219.5 960.5,-219.5"/>
<text text-anchor="middle" x="1006" y="-226.5" font-family="Helvetica,sans-Serif" font-size="10.00">func_8028F474</text>
</a>
</g>
</g>
<!-- Node27&#45;&gt;Node28 -->
<g id="edge33" class="edge">
<title>Node27&#45;&gt;Node28</title>
<path fill="none" stroke="midnightblue" d="M1206.71,-221.15C1160.35,-222.97 1094.76,-225.55 1051.57,-227.25"/>
<polygon fill="midnightblue" stroke="midnightblue" points="1207.02,-224.64 1216.88,-220.75 1206.75,-217.65 1207.02,-224.64"/>
</g>
<!-- Node31 -->
<g id="node31" class="node">
<title>Node31</title>
<g id="a_node31"><a xlink:href="podium__ceremony__actors_8c.html#a7ea229c65f264670fc828b95e8321154" target="_top" xlink:title=" ">
<polygon fill="white" stroke="black" points="787,-181.5 787,-200.5 921,-200.5 921,-181.5 787,-181.5"/>
<text text-anchor="middle" x="854" y="-188.5" font-family="Helvetica,sans-Serif" font-size="10.00">podium_ceremony_loop</text>
</a>
</g>
</g>
<!-- Node27&#45;&gt;Node31 -->
<g id="edge37" class="edge">
<title>Node27&#45;&gt;Node31</title>
<path fill="none" stroke="midnightblue" d="M1206.78,-215.23C1132.74,-210.13 1000.77,-201.04 921.22,-195.56"/>
<polygon fill="midnightblue" stroke="midnightblue" points="1206.62,-218.73 1216.83,-215.92 1207.1,-211.74 1206.62,-218.73"/>
</g>
<!-- Node29 -->
<g id="node29" class="node">
<title>Node29</title>
<g id="a_node29"><a xlink:href="main_8c.html#afff87ffcbfee4f1f37d443110aa7b52a" target="_top" xlink:title=" ">
<polygon fill="white" stroke="black" points="808,-105.5 808,-124.5 900,-124.5 900,-105.5 808,-105.5"/>
<text text-anchor="middle" x="854" y="-112.5" font-family="Helvetica,sans-Serif" font-size="10.00">race_logic_loop</text>
</a>
</g>
</g>
<!-- Node28&#45;&gt;Node29 -->
<g id="edge34" class="edge">
<title>Node28&#45;&gt;Node29</title>
<path fill="none" stroke="midnightblue" d="M990.83,-211.27C969.91,-185.27 932.34,-139.31 924,-134 916.77,-129.4 908.42,-125.9 900.09,-123.24"/>
<polygon fill="midnightblue" stroke="midnightblue" points="988.23,-213.62 997.22,-219.23 993.69,-209.24 988.23,-213.62"/>
</g>
<!-- Node30 -->
<g id="node30" class="node">
<title>Node30</title>
<g id="a_node30"><a xlink:href="main_8c.html#ae04143ce8113cdafa007c642eb620bc8" target="_top" xlink:title=" ">
<polygon fill="white" stroke="black" points="488,-162.5 488,-181.5 604,-181.5 604,-162.5 488,-162.5"/>
<text text-anchor="middle" x="546" y="-169.5" font-family="Helvetica,sans-Serif" font-size="10.00">game_state_handler</text>
</a>
</g>
</g>
<!-- Node29&#45;&gt;Node30 -->
<g id="edge35" class="edge">
<title>Node29&#45;&gt;Node30</title>
<path fill="none" stroke="midnightblue" d="M797.82,-115.42C754.38,-116.83 692.6,-121.21 640,-134 613.22,-140.51 584.07,-153.46 565.68,-162.42"/>
<polygon fill="midnightblue" stroke="midnightblue" points="798,-118.92 807.9,-115.14 797.81,-111.92 798,-118.92"/>
</g>
<!-- Node30&#45;&gt;Node11 -->
<g id="edge36" class="edge">
<title>Node30&#45;&gt;Node11</title>
<path fill="none" stroke="midnightblue" d="M477.42,-180.65C469.02,-181.72 460.5,-182.81 452.3,-183.86"/>
<polygon fill="midnightblue" stroke="midnightblue" points="478.11,-184.09 487.59,-179.35 477.22,-177.14 478.11,-184.09"/>
</g>
<!-- Node31&#45;&gt;Node30 -->
<g id="edge38" class="edge">
<title>Node31&#45;&gt;Node30</title>
<path fill="none" stroke="midnightblue" d="M776.85,-186.27C723.34,-182.95 652.89,-178.57 604.15,-175.55"/>
<polygon fill="midnightblue" stroke="midnightblue" points="776.78,-189.77 786.98,-186.9 777.22,-182.79 776.78,-189.77"/>
</g>
<!-- Node32&#45;&gt;Node27 -->
<g id="edge40" class="edge">
<title>Node32&#45;&gt;Node27</title>
<path fill="none" stroke="midnightblue" d="M1361.43,-174.89C1355.87,-176.84 1350.27,-178.9 1345,-181 1323.1,-189.72 1298.68,-201.38 1282.33,-209.47"/>
<polygon fill="midnightblue" stroke="midnightblue" points="1362.96,-178.06 1371.3,-171.52 1360.7,-171.44 1362.96,-178.06"/>
</g>
<!-- Node33&#45;&gt;Node27 -->
<g id="edge42" class="edge">
<title>Node33&#45;&gt;Node27</title>
<path fill="none" stroke="midnightblue" d="M1361.43,-263.11C1355.87,-261.16 1350.27,-259.1 1345,-257 1323.1,-248.28 1298.68,-236.62 1282.33,-228.53"/>
<polygon fill="midnightblue" stroke="midnightblue" points="1360.7,-266.56 1371.3,-266.48 1362.96,-259.94 1360.7,-266.56"/>
</g>
<!-- Node34&#45;&gt;Node27 -->
<g id="edge44" class="edge">
<title>Node34&#45;&gt;Node27</title>
<path fill="none" stroke="midnightblue" d="M1346.55,-230.39C1333.74,-228.64 1320.28,-226.79 1308.01,-225.11"/>
<polygon fill="midnightblue" stroke="midnightblue" points="1346.27,-233.89 1356.65,-231.78 1347.22,-226.95 1346.27,-233.89"/>
</g>
<!-- Node35&#45;&gt;Node6 -->
<g id="edge46" class="edge">
<title>Node35&#45;&gt;Node6</title>
<path fill="none" stroke="midnightblue" d="M1629.94,-231.54C1612.6,-236.7 1592.82,-242.6 1576.66,-247.41"/>
<polygon fill="midnightblue" stroke="midnightblue" points="1631.24,-234.8 1639.83,-228.59 1629.24,-228.09 1631.24,-234.8"/>
</g>
<!-- Node35&#45;&gt;Node15 -->
<g id="edge47" class="edge">
<title>Node35&#45;&gt;Node15</title>
<path fill="none" stroke="midnightblue" d="M1632.3,-233.38C1630.08,-234.79 1627.96,-236.33 1626,-238 1583.97,-273.86 1557.17,-337.02 1548.02,-361.21"/>
<polygon fill="midnightblue" stroke="midnightblue" points="1634.13,-236.37 1641.24,-228.52 1630.79,-230.22 1634.13,-236.37"/>
</g>
<!-- Node35&#45;&gt;Node25 -->
<g id="edge48" class="edge">
<title>Node35&#45;&gt;Node25</title>
<path fill="none" stroke="midnightblue" d="M1616.65,-219C1607.64,-219 1598.4,-219 1589.66,-219"/>
<polygon fill="midnightblue" stroke="midnightblue" points="1616.69,-222.5 1626.69,-219 1616.69,-215.5 1616.69,-222.5"/>
</g>
<!-- Node36 -->
<g id="node36" class="node">
<title>Node36</title>
<g id="a_node36"><a xlink:href="code__80071F00_8c.html#a51a16401cf202c55bdae59edc1f510ce" target="_top" xlink:title=" ">
<polygon fill="white" stroke="black" points="1497.5,-105.5 1497.5,-124.5 1589.5,-124.5 1589.5,-105.5 1497.5,-105.5"/>
<text text-anchor="middle" x="1543.5" y="-112.5" font-family="Helvetica,sans-Serif" font-size="10.00">func_8008275C</text>
</a>
</g>
</g>
<!-- Node35&#45;&gt;Node36 -->
<g id="edge49" class="edge">
<title>Node35&#45;&gt;Node36</title>
<path fill="none" stroke="midnightblue" d="M1652.28,-202.92C1625.41,-181 1578.13,-142.43 1556.24,-124.57"/>
<polygon fill="midnightblue" stroke="midnightblue" points="1650.27,-205.79 1660.23,-209.4 1654.7,-200.37 1650.27,-205.79"/>
</g>
<!-- Node43 -->
<g id="node43" class="node">
<title>Node43</title>
<g id="a_node43"><a xlink:href="code__80071F00_8c.html#ac4853090fde80beac1ebd5abbeeb26eb" target="_top" xlink:title=" ">
<polygon fill="white" stroke="black" points="1497.5,-162.5 1497.5,-181.5 1589.5,-181.5 1589.5,-162.5 1497.5,-162.5"/>
<text text-anchor="middle" x="1543.5" y="-169.5" font-family="Helvetica,sans-Serif" font-size="10.00">func_80085AA8</text>
</a>
</g>
</g>
<!-- Node35&#45;&gt;Node43 -->
<g id="edge60" class="edge">
<title>Node35&#45;&gt;Node43</title>
<path fill="none" stroke="midnightblue" d="M1636.7,-205.99C1615.8,-198.28 1589.77,-188.69 1570.7,-181.66"/>
<polygon fill="midnightblue" stroke="midnightblue" points="1635.61,-209.31 1646.2,-209.49 1638.03,-202.75 1635.61,-209.31"/>
</g>
<!-- Node37 -->
<g id="node37" class="node">
<title>Node37</title>
<g id="a_node37"><a xlink:href="code__80071F00_8c.html#a083acc5eddd6095b3c9f21a9fdea7fca" target="_top" xlink:title=" ">
<polygon fill="white" stroke="black" points="1357.5,-76.5 1357.5,-95.5 1448.5,-95.5 1448.5,-76.5 1357.5,-76.5"/>
<text text-anchor="middle" x="1403" y="-83.5" font-family="Helvetica,sans-Serif" font-size="10.00">func_80082870</text>
</a>
</g>
</g>
<!-- Node36&#45;&gt;Node37 -->
<g id="edge50" class="edge">
<title>Node36&#45;&gt;Node37</title>
<path fill="none" stroke="midnightblue" d="M1487.05,-103.39C1474.24,-100.71 1460.78,-97.89 1448.51,-95.32"/>
<polygon fill="midnightblue" stroke="midnightblue" points="1486.64,-106.88 1497.15,-105.5 1488.08,-100.03 1486.64,-106.88"/>
</g>
<!-- Node38 -->
<g id="node38" class="node">
<title>Node38</title>
<g id="a_node38"><a xlink:href="code__80057C60_8c.html#a3de7d81d0ab030980ab3b2ea5bcf901e" target="_top" xlink:title=" ">
<polygon fill="white" stroke="black" points="1216.5,-114.5 1216.5,-133.5 1308.5,-133.5 1308.5,-114.5 1216.5,-114.5"/>
<text text-anchor="middle" x="1262.5" y="-121.5" font-family="Helvetica,sans-Serif" font-size="10.00">func_8005A74C</text>
</a>
</g>
</g>
<!-- Node37&#45;&gt;Node38 -->
<g id="edge51" class="edge">
<title>Node37&#45;&gt;Node38</title>
<path fill="none" stroke="midnightblue" d="M1357.37,-98.25C1338.28,-103.48 1316.32,-109.51 1298.44,-114.41"/>
<polygon fill="midnightblue" stroke="midnightblue" points="1358.33,-101.61 1367.05,-95.59 1356.48,-94.86 1358.33,-101.61"/>
</g>
<!-- Node39 -->
<g id="node39" class="node">
<title>Node39</title>
<g id="a_node39"><a xlink:href="code__80057C60_8c.html#a48f7fc1ba7acccec2d7b6e0a59f65dc5" target="_top" xlink:title=" ">
<polygon fill="white" stroke="black" points="1088,-105.5 1088,-124.5 1180,-124.5 1180,-105.5 1088,-105.5"/>
<text text-anchor="middle" x="1134" y="-112.5" font-family="Helvetica,sans-Serif" font-size="10.00">func_80059D00</text>
</a>
</g>
</g>
<!-- Node38&#45;&gt;Node39 -->
<g id="edge52" class="edge">
<title>Node38&#45;&gt;Node39</title>
<path fill="none" stroke="midnightblue" d="M1206.21,-120.07C1197.59,-119.45 1188.78,-118.83 1180.42,-118.23"/>
<polygon fill="midnightblue" stroke="midnightblue" points="1205.96,-123.56 1216.19,-120.78 1206.46,-116.58 1205.96,-123.56"/>
</g>
<!-- Node40 -->
<g id="node40" class="node">
<title>Node40</title>
<g id="a_node40"><a xlink:href="code__80057C60_8c.html#a86b7dba9c0715c4d7fdf8ce61c0738bc" target="_top" xlink:title=" ">
<polygon fill="white" stroke="black" points="960,-143.5 960,-162.5 1052,-162.5 1052,-143.5 960,-143.5"/>
<text text-anchor="middle" x="1006" y="-150.5" font-family="Helvetica,sans-Serif" font-size="10.00">func_8005A070</text>
</a>
</g>
</g>
<!-- Node38&#45;&gt;Node40 -->
<g id="edge59" class="edge">
<title>Node38&#45;&gt;Node40</title>
<path fill="none" stroke="midnightblue" d="M1206.12,-130.89C1197.38,-131.95 1188.45,-133.02 1180,-134 1136.63,-139.04 1087.1,-144.45 1052.19,-148.2"/>
<polygon fill="midnightblue" stroke="midnightblue" points="1206.75,-134.34 1216.25,-129.66 1205.9,-127.39 1206.75,-134.34"/>
</g>
<!-- Node39&#45;&gt;Node40 -->
<g id="edge53" class="edge">
<title>Node39&#45;&gt;Node40</title>
<path fill="none" stroke="midnightblue" d="M1091.44,-127.54C1074.29,-132.7 1054.75,-138.6 1038.78,-143.41"/>
<polygon fill="midnightblue" stroke="midnightblue" points="1092.64,-130.83 1101.2,-124.59 1090.62,-124.13 1092.64,-130.83"/>
</g>
<!-- Node40&#45;&gt;Node29 -->
<g id="edge58" class="edge">
<title>Node40&#45;&gt;Node29</title>
<path fill="none" stroke="midnightblue" d="M957.19,-140.89C936.3,-135.6 912.15,-129.48 892.58,-124.52"/>
<polygon fill="midnightblue" stroke="midnightblue" points="956.6,-144.35 967.15,-143.41 958.31,-137.56 956.6,-144.35"/>
</g>
<!-- Node40&#45;&gt;Node31 -->
<g id="edge57" class="edge">
<title>Node40&#45;&gt;Node31</title>
<path fill="none" stroke="midnightblue" d="M957.19,-165.11C936.3,-170.4 912.15,-176.52 892.58,-181.48"/>
<polygon fill="midnightblue" stroke="midnightblue" points="958.31,-168.44 967.15,-162.59 956.6,-161.65 958.31,-168.44"/>
</g>
<!-- Node41 -->
<g id="node41" class="node">
<title>Node41</title>
<g id="a_node41"><a xlink:href="code__80280000_8c.html#a4d9b0156b64d7a67e4cb21cde391ca43" target="_top" xlink:title=" ">
<polygon fill="white" stroke="black" points="808.5,-143.5 808.5,-162.5 899.5,-162.5 899.5,-143.5 808.5,-143.5"/>
<text text-anchor="middle" x="854" y="-150.5" font-family="Helvetica,sans-Serif" font-size="10.00">func_80280000</text>
</a>
</g>
</g>
<!-- Node40&#45;&gt;Node41 -->
<g id="edge54" class="edge">
<title>Node40&#45;&gt;Node41</title>
<path fill="none" stroke="midnightblue" d="M949.92,-153C933.4,-153 915.48,-153 899.71,-153"/>
<polygon fill="midnightblue" stroke="midnightblue" points="950,-156.5 960,-153 950,-149.5 950,-156.5"/>
</g>
<!-- Node42 -->
<g id="node42" class="node">
<title>Node42</title>
<g id="a_node42"><a xlink:href="code__80280000_8c.html#aa28a69be4eda3b8667366c6c7b556024" target="_top" xlink:title=" ">
<polygon fill="white" stroke="black" points="656,-143.5 656,-162.5 732,-162.5 732,-143.5 656,-143.5"/>
<text text-anchor="middle" x="694" y="-150.5" font-family="Helvetica,sans-Serif" font-size="10.00">credits_loop</text>
</a>
</g>
</g>
<!-- Node41&#45;&gt;Node42 -->
<g id="edge55" class="edge">
<title>Node41&#45;&gt;Node42</title>
<path fill="none" stroke="midnightblue" d="M798.04,-153C776.29,-153 751.85,-153 732.23,-153"/>
<polygon fill="midnightblue" stroke="midnightblue" points="798.15,-156.5 808.15,-153 798.15,-149.5 798.15,-156.5"/>
</g>
<!-- Node42&#45;&gt;Node30 -->
<g id="edge56" class="edge">
<title>Node42&#45;&gt;Node30</title>
<path fill="none" stroke="midnightblue" d="M645.48,-159.18C632.25,-160.91 617.75,-162.79 604.03,-164.58"/>
<polygon fill="midnightblue" stroke="midnightblue" points="646.32,-162.6 655.78,-157.84 645.41,-155.66 646.32,-162.6"/>
</g>
<!-- Node43&#45;&gt;Node38 -->
<g id="edge61" class="edge">
<title>Node43&#45;&gt;Node38</title>
<path fill="none" stroke="midnightblue" d="M1510.74,-158.65C1495.88,-152.94 1477.79,-146.74 1461,-143 1409.55,-131.56 1349.06,-127 1308.7,-125.19"/>
<polygon fill="midnightblue" stroke="midnightblue" points="1509.86,-162.06 1520.45,-162.49 1512.44,-155.55 1509.86,-162.06"/>
</g>
<!-- Node45 -->
<g id="node45" class="node">
<title>Node45</title>
<g id="a_node45"><a xlink:href="code__80005FD0_8c.html#afb762a2aaf0ca27b42bc346b0ee6be4a" target="_top" xlink:title=" ">
<polygon fill="white" stroke="black" points="1357,-38.5 1357,-57.5 1449,-57.5 1449,-38.5 1357,-38.5"/>
<text text-anchor="middle" x="1403" y="-45.5" font-family="Helvetica,sans-Serif" font-size="10.00">func_8001577C</text>
</a>
</g>
</g>
<!-- Node44&#45;&gt;Node45 -->
<g id="edge63" class="edge">
<title>Node44&#45;&gt;Node45</title>
<path fill="none" stroke="midnightblue" d="M1486.52,-48C1474.12,-48 1461.12,-48 1449.21,-48"/>
<polygon fill="midnightblue" stroke="midnightblue" points="1486.77,-51.5 1496.77,-48 1486.77,-44.5 1486.77,-51.5"/>
</g>
<!-- Node49 -->
<g id="node49" class="node">
<title>Node49</title>
<g id="a_node49"><a xlink:href="code__80005FD0_8c.html#a05aed26eab2d4e00a5fe024e7af2eda1" target="_top" xlink:title=" ">
<polygon fill="white" stroke="black" points="1357,-0.5 1357,-19.5 1449,-19.5 1449,-0.5 1357,-0.5"/>
<text text-anchor="middle" x="1403" y="-7.5" font-family="Helvetica,sans-Serif" font-size="10.00">func_8001933C</text>
</a>
</g>
</g>
<!-- Node44&#45;&gt;Node49 -->
<g id="edge69" class="edge">
<title>Node44&#45;&gt;Node49</title>
<path fill="none" stroke="midnightblue" d="M1497.87,-35.75C1478.78,-30.52 1456.82,-24.49 1438.94,-19.59"/>
<polygon fill="midnightblue" stroke="midnightblue" points="1496.98,-39.14 1507.55,-38.41 1498.83,-32.39 1496.98,-39.14"/>
</g>
<!-- Node46 -->
<g id="node46" class="node">
<title>Node46</title>
<g id="a_node46"><a xlink:href="code__80005FD0_8c.html#ae88f0c7a86e0153973ae7265e8e873ca" target="_top" xlink:title=" ">
<polygon fill="white" stroke="black" points="1216.5,-38.5 1216.5,-57.5 1308.5,-57.5 1308.5,-38.5 1216.5,-38.5"/>
<text text-anchor="middle" x="1262.5" y="-45.5" font-family="Helvetica,sans-Serif" font-size="10.00">func_8001A588</text>
</a>
</g>
</g>
<!-- Node45&#45;&gt;Node46 -->
<g id="edge64" class="edge">
<title>Node45&#45;&gt;Node46</title>
<path fill="none" stroke="midnightblue" d="M1346.39,-48C1333.96,-48 1320.92,-48 1308.95,-48"/>
<polygon fill="midnightblue" stroke="midnightblue" points="1346.65,-51.5 1356.65,-48 1346.65,-44.5 1346.65,-51.5"/>
</g>
<!-- Node47 -->
<g id="node47" class="node">
<title>Node47</title>
<g id="a_node47"><a xlink:href="camera_8c.html#aa9c99b4c8605e42825107adeed2c382a" target="_top" xlink:title=" ">
<polygon fill="white" stroke="black" points="1088.5,-67.5 1088.5,-86.5 1179.5,-86.5 1179.5,-67.5 1088.5,-67.5"/>
<text text-anchor="middle" x="1134" y="-74.5" font-family="Helvetica,sans-Serif" font-size="10.00">func_8001EE98</text>
</a>
</g>
</g>
<!-- Node46&#45;&gt;Node47 -->
<g id="edge65" class="edge">
<title>Node46&#45;&gt;Node47</title>
<path fill="none" stroke="midnightblue" d="M1209.8,-59.85C1198.79,-62.38 1187.3,-65.01 1176.73,-67.43"/>
<polygon fill="midnightblue" stroke="midnightblue" points="1210.76,-63.22 1219.73,-57.58 1209.2,-56.4 1210.76,-63.22"/>
</g>
<!-- Node47&#45;&gt;Node29 -->
<g id="edge68" class="edge">
<title>Node47&#45;&gt;Node29</title>
<path fill="none" stroke="midnightblue" d="M1087.14,-88.89C1075.72,-91.53 1063.46,-94.11 1052,-96 1000.3,-104.52 940.29,-109.63 900.21,-112.37"/>
<polygon fill="midnightblue" stroke="midnightblue" points="1088,-92.28 1096.92,-86.56 1086.38,-85.47 1088,-92.28"/>
</g>
<!-- Node48 -->
<g id="node48" class="node">
<title>Node48</title>
<g id="a_node48"><a xlink:href="race__logic_8c.html#a3189893b0ea5d4a7b1d679edc52d78ed" target="_top" xlink:title=" ">
<polygon fill="white" stroke="black" points="960,-67.5 960,-86.5 1052,-86.5 1052,-67.5 960,-67.5"/>
<text text-anchor="middle" x="1006" y="-74.5" font-family="Helvetica,sans-Serif" font-size="10.00">func_80290B14</text>
</a>
</g>
</g>
<!-- Node47&#45;&gt;Node48 -->
<g id="edge66" class="edge">
<title>Node47&#45;&gt;Node48</title>
<path fill="none" stroke="midnightblue" d="M1078.14,-77C1069.43,-77 1060.51,-77 1052.06,-77"/>
<polygon fill="midnightblue" stroke="midnightblue" points="1078.22,-80.5 1088.22,-77 1078.22,-73.5 1078.22,-80.5"/>
</g>
<!-- Node48&#45;&gt;Node29 -->
<g id="edge67" class="edge">
<title>Node48&#45;&gt;Node29</title>
<path fill="none" stroke="midnightblue" d="M957.19,-89.11C936.3,-94.4 912.15,-100.52 892.58,-105.48"/>
<polygon fill="midnightblue" stroke="midnightblue" points="958.31,-92.44 967.15,-86.59 956.6,-85.65 958.31,-92.44"/>
</g>
<!-- Node49&#45;&gt;Node46 -->
<g id="edge70" class="edge">
<title>Node49&#45;&gt;Node46</title>
<path fill="none" stroke="midnightblue" d="M1357.37,-22.25C1338.28,-27.48 1316.32,-33.51 1298.44,-38.41"/>
<polygon fill="midnightblue" stroke="midnightblue" points="1358.33,-25.61 1367.05,-19.59 1356.48,-18.86 1358.33,-25.61"/>
</g>
</g>
</svg>
