<?xml version="1.0" encoding="UTF-8" standalone="no"?>
<!DOCTYPE svg PUBLIC "-//W3C//DTD SVG 1.1//EN"
 "http://www.w3.org/Graphics/SVG/1.1/DTD/svg11.dtd">
<!-- Generated by graphviz version 2.43.0 (0)
 -->
<!-- Title: func_80011014 Pages: 1 -->
<svg width="1419pt" height="66pt"
 viewBox="0.00 0.00 1419.00 66.00" xmlns="http://www.w3.org/2000/svg" xmlns:xlink="http://www.w3.org/1999/xlink">
<g id="graph0" class="graph" transform="scale(1 1) rotate(0) translate(4 62)">
<title>func_80011014</title>
<polygon fill="white" stroke="transparent" points="-4,4 -4,-62 1415,-62 1415,4 -4,4"/>
<!-- Node1 -->
<g id="node1" class="node">
<title>Node1</title>
<g id="a_node1"><a xlink:title=" ">
<polygon fill="#bfbfbf" stroke="black" points="1320,-19.5 1320,-38.5 1411,-38.5 1411,-19.5 1320,-19.5"/>
<text text-anchor="middle" x="1365.5" y="-26.5" font-family="Helvetica,sans-Serif" font-size="10.00">func_80011014</text>
</a>
</g>
</g>
<!-- Node2 -->
<g id="node2" class="node">
<title>Node2</title>
<g id="a_node2"><a xlink:href="code__80005FD0_8c.html#a33cf9dabdfde5e5d5141509747f34500" target="_top" xlink:title=" ">
<polygon fill="white" stroke="black" points="1193,-19.5 1193,-38.5 1284,-38.5 1284,-19.5 1193,-19.5"/>
<text text-anchor="middle" x="1238.5" y="-26.5" font-family="Helvetica,sans-Serif" font-size="10.00">func_800100F0</text>
</a>
</g>
</g>
<!-- Node1&#45;&gt;Node2 -->
<g id="edge1" class="edge">
<title>Node1&#45;&gt;Node2</title>
<path fill="none" stroke="midnightblue" d="M1309.59,-29C1301.16,-29 1292.55,-29 1284.38,-29"/>
<polygon fill="midnightblue" stroke="midnightblue" points="1309.73,-32.5 1319.73,-29 1309.73,-25.5 1309.73,-32.5"/>
</g>
<!-- Node3 -->
<g id="node3" class="node">
<title>Node3</title>
<g id="a_node3"><a xlink:href="code__80005FD0_8c.html#a1b88258c47677456a6de78bbce674c21" target="_top" xlink:title=" ">
<polygon fill="white" stroke="black" points="1064,-19.5 1064,-38.5 1157,-38.5 1157,-19.5 1064,-19.5"/>
<text text-anchor="middle" x="1110.5" y="-26.5" font-family="Helvetica,sans-Serif" font-size="10.00">func_8000F2DC</text>
</a>
</g>
</g>
<!-- Node2&#45;&gt;Node3 -->
<g id="edge2" class="edge">
<title>Node2&#45;&gt;Node3</title>
<path fill="none" stroke="midnightblue" d="M1182.61,-29C1174.2,-29 1165.6,-29 1157.41,-29"/>
<polygon fill="midnightblue" stroke="midnightblue" points="1182.72,-32.5 1192.72,-29 1182.72,-25.5 1182.72,-32.5"/>
</g>
<!-- Node4 -->
<g id="node4" class="node">
<title>Node4</title>
<g id="a_node4"><a xlink:href="code__80005FD0_8c.html#a325ddded54aab32025174f6aedd5e391" target="_top" xlink:title=" ">
<polygon fill="white" stroke="black" points="808,-38.5 808,-57.5 900,-57.5 900,-38.5 808,-38.5"/>
<text text-anchor="middle" x="854" y="-45.5" font-family="Helvetica,sans-Serif" font-size="10.00">func_8001C05C</text>
</a>
</g>
</g>
<!-- Node3&#45;&gt;Node4 -->
<g id="edge3" class="edge">
<title>Node3&#45;&gt;Node4</title>
<path fill="none" stroke="midnightblue" d="M1053.61,-33.17C1007.63,-36.61 943.28,-41.41 900.43,-44.61"/>
<polygon fill="midnightblue" stroke="midnightblue" points="1053.99,-36.65 1063.71,-32.42 1053.47,-29.67 1053.99,-36.65"/>
</g>
<!-- Node11 -->
<g id="node11" class="node">
<title>Node11</title>
<g id="a_node11"><a xlink:href="spawn__players_8c.html#afb1c307e34d73d9c004936d2752c44ce" target="_top" xlink:title=" ">
<polygon fill="white" stroke="black" points="936,-0.5 936,-19.5 1028,-19.5 1028,-0.5 936,-0.5"/>
<text text-anchor="middle" x="982" y="-7.5" font-family="Helvetica,sans-Serif" font-size="10.00">func_8003C0F0</text>
</a>
</g>
</g>
<!-- Node3&#45;&gt;Node11 -->
<g id="edge10" class="edge">
<title>Node3&#45;&gt;Node11</title>
<path fill="none" stroke="midnightblue" d="M1053.87,-20.64C1045.28,-19.35 1036.5,-18.04 1028.18,-16.79"/>
<polygon fill="midnightblue" stroke="midnightblue" points="1053.42,-24.12 1063.83,-22.14 1054.46,-17.19 1053.42,-24.12"/>
</g>
<!-- Node5 -->
<g id="node5" class="node">
<title>Node5</title>
<g id="a_node5"><a xlink:href="code__80281780_8c.html#af227cfd0f1fd3d6adbe9a29ad59b4dc8" target="_top" xlink:title=" ">
<polygon fill="white" stroke="black" points="632,-38.5 632,-57.5 772,-57.5 772,-38.5 632,-38.5"/>
<text text-anchor="middle" x="702" y="-45.5" font-family="Helvetica,sans-Serif" font-size="10.00">load_ceremony_cutscene</text>
</a>
</g>
</g>
<!-- Node4&#45;&gt;Node5 -->
<g id="edge4" class="edge">
<title>Node4&#45;&gt;Node5</title>
<path fill="none" stroke="midnightblue" d="M797.95,-48C789.54,-48 780.77,-48 772.11,-48"/>
<polygon fill="midnightblue" stroke="midnightblue" points="798,-51.5 808,-48 798,-44.5 798,-51.5"/>
</g>
<!-- Node6 -->
<g id="node6" class="node">
<title>Node6</title>
<g id="a_node6"><a xlink:href="main_8c.html#ad0625ed56ac663d3ec7ae8f1ba50c735" target="_top" xlink:title=" ">
<polygon fill="white" stroke="black" points="488,-19.5 488,-38.5 596,-38.5 596,-19.5 488,-19.5"/>
<text text-anchor="middle" x="542" y="-26.5" font-family="Helvetica,sans-Serif" font-size="10.00">update_gamestate</text>
</a>
</g>
</g>
<!-- Node5&#45;&gt;Node6 -->
<g id="edge5" class="edge">
<title>Node5&#45;&gt;Node6</title>
<path fill="none" stroke="midnightblue" d="M621.58,-38.45C612.94,-37.41 604.31,-36.37 596.09,-35.38"/>
<polygon fill="midnightblue" stroke="midnightblue" points="621.35,-41.95 631.7,-39.67 622.19,-35 621.35,-41.95"/>
</g>
<!-- Node7 -->
<g id="node7" class="node">
<title>Node7</title>
<g id="a_node7"><a xlink:href="main_8c.html#a633ed517e458daeb768f5361895dcac9" target="_top" xlink:title=" ">
<polygon fill="white" stroke="black" points="339,-19.5 339,-38.5 452,-38.5 452,-19.5 339,-19.5"/>
<text text-anchor="middle" x="395.5" y="-26.5" font-family="Helvetica,sans-Serif" font-size="10.00">thread5_game_loop</text>
</a>
</g>
</g>
<!-- Node6&#45;&gt;Node7 -->
<g id="edge6" class="edge">
<title>Node6&#45;&gt;Node7</title>
<path fill="none" stroke="midnightblue" d="M477.42,-29C468.98,-29 460.39,-29 452.1,-29"/>
<polygon fill="midnightblue" stroke="midnightblue" points="477.6,-32.5 487.6,-29 477.6,-25.5 477.6,-32.5"/>
</g>
<!-- Node8 -->
<g id="node8" class="node">
<title>Node8</title>
<g id="a_node8"><a xlink:href="main_8c.html#a023b8f272e4efbd33f371e91ffff6b30" target="_top" xlink:title=" ">
<polygon fill="white" stroke="black" points="217,-19.5 217,-38.5 303,-38.5 303,-19.5 217,-19.5"/>
<text text-anchor="middle" x="260" y="-26.5" font-family="Helvetica,sans-Serif" font-size="10.00">thread3_video</text>
</a>
</g>
</g>
<!-- Node7&#45;&gt;Node8 -->
<g id="edge7" class="edge">
<title>Node7&#45;&gt;Node8</title>
<path fill="none" stroke="midnightblue" d="M328.57,-29C319.94,-29 311.3,-29 303.21,-29"/>
<polygon fill="midnightblue" stroke="midnightblue" points="328.66,-32.5 338.66,-29 328.66,-25.5 328.66,-32.5"/>
</g>
<!-- Node9 -->
<g id="node9" class="node">
<title>Node9</title>
<g id="a_node9"><a xlink:href="main_8c.html#a1e35d2b842121e6aea373f09381616e5" target="_top" xlink:title=" ">
<polygon fill="white" stroke="black" points="104,-19.5 104,-38.5 181,-38.5 181,-19.5 104,-19.5"/>
<text text-anchor="middle" x="142.5" y="-26.5" font-family="Helvetica,sans-Serif" font-size="10.00">thread1_idle</text>
</a>
</g>
</g>
<!-- Node8&#45;&gt;Node9 -->
<g id="edge8" class="edge">
<title>Node8&#45;&gt;Node9</title>
<path fill="none" stroke="midnightblue" d="M206.9,-29C198.2,-29 189.33,-29 181.09,-29"/>
<polygon fill="midnightblue" stroke="midnightblue" points="206.98,-32.5 216.98,-29 206.98,-25.5 206.98,-32.5"/>
</g>
<!-- Node10 -->
<g id="node10" class="node">
<title>Node10</title>
<g id="a_node10"><a xlink:href="main_8c.html#a4f87d43525fe95f60ea92bc8a3b70e62" target="_top" xlink:title=" ">
<polygon fill="white" stroke="black" points="0,-19.5 0,-38.5 68,-38.5 68,-19.5 0,-19.5"/>
<text text-anchor="middle" x="34" y="-26.5" font-family="Helvetica,sans-Serif" font-size="10.00">main_func</text>
</a>
</g>
</g>
<!-- Node9&#45;&gt;Node10 -->
<g id="edge9" class="edge">
<title>Node9&#45;&gt;Node10</title>
<path fill="none" stroke="midnightblue" d="M93.95,-29C85.29,-29 76.44,-29 68.31,-29"/>
<polygon fill="midnightblue" stroke="midnightblue" points="93.95,-32.5 103.95,-29 93.95,-25.5 93.95,-32.5"/>
</g>
<!-- Node12 -->
<g id="node12" class="node">
<title>Node12</title>
<g id="a_node12"><a xlink:href="spawn__players_8c.html#ac1a9412b931cfa517a2382c2fc605399" target="_top" xlink:title=" ">
<polygon fill="white" stroke="black" points="808,-0.5 808,-19.5 900,-19.5 900,-0.5 808,-0.5"/>
<text text-anchor="middle" x="854" y="-7.5" font-family="Helvetica,sans-Serif" font-size="10.00">func_8003D080</text>
</a>
</g>
</g>
<!-- Node11&#45;&gt;Node12 -->
<g id="edge11" class="edge">
<title>Node11&#45;&gt;Node12</title>
<path fill="none" stroke="midnightblue" d="M925.65,-10C917.16,-10 908.48,-10 900.24,-10"/>
<polygon fill="midnightblue" stroke="midnightblue" points="925.87,-13.5 935.87,-10 925.87,-6.5 925.87,-13.5"/>
</g>
<!-- Node12&#45;&gt;Node5 -->
<g id="edge12" class="edge">
<title>Node12&#45;&gt;Node5</title>
<path fill="none" stroke="midnightblue" d="M805.19,-22.11C784.3,-27.4 760.15,-33.52 740.58,-38.48"/>
<polygon fill="midnightblue" stroke="midnightblue" points="806.31,-25.44 815.15,-19.59 804.6,-18.65 806.31,-25.44"/>
</g>
<!-- Node13 -->
<g id="node13" class="node">
<title>Node13</title>
<g id="a_node13"><a xlink:href="code__800029B0_8c.html#aca6165112fc92e65ad6477e785a7098c" target="_top" xlink:title=" ">
<polygon fill="white" stroke="black" points="667,-0.5 667,-19.5 737,-19.5 737,-0.5 667,-0.5"/>
<text text-anchor="middle" x="702" y="-7.5" font-family="Helvetica,sans-Serif" font-size="10.00">setup_race</text>
</a>
</g>
</g>
<!-- Node12&#45;&gt;Node13 -->
<g id="edge13" class="edge">
<title>Node12&#45;&gt;Node13</title>
<path fill="none" stroke="midnightblue" d="M797.87,-10C777.48,-10 754.97,-10 737,-10"/>
<polygon fill="midnightblue" stroke="midnightblue" points="798,-13.5 808,-10 798,-6.5 798,-13.5"/>
</g>
<!-- Node13&#45;&gt;Node6 -->
<g id="edge14" class="edge">
<title>Node13&#45;&gt;Node6</title>
<path fill="none" stroke="midnightblue" d="M656.65,-15.33C637.87,-17.59 615.82,-20.24 596.17,-22.61"/>
<polygon fill="midnightblue" stroke="midnightblue" points="657.21,-18.79 666.72,-14.12 656.37,-11.84 657.21,-18.79"/>
</g>
</g>
</svg>
