<?xml version="1.0" encoding="UTF-8" standalone="no"?>
<!DOCTYPE svg PUBLIC "-//W3C//DTD SVG 1.1//EN"
 "http://www.w3.org/Graphics/SVG/1.1/DTD/svg11.dtd">
<!-- Generated by graphviz version 2.43.0 (0)
 -->
<!-- Title: func_80061EF4 Pages: 1 -->
<svg width="366pt" height="224pt"
 viewBox="0.00 0.00 366.00 224.00" xmlns="http://www.w3.org/2000/svg" xmlns:xlink="http://www.w3.org/1999/xlink">
<g id="graph0" class="graph" transform="scale(1 1) rotate(0) translate(4 220)">
<title>func_80061EF4</title>
<!-- Node1 -->
<g id="Node000001" class="node">
<title>Node1</title>
<g id="a_Node000001"><a xlink:title=" ">
<polygon fill="#999999" stroke="#666666" points="91,-123 0,-123 0,-104 91,-104 91,-123"/>
<text text-anchor="middle" x="45.5" y="-111" font-family="Helvetica,sans-Serif" font-size="10.00">func_80061EF4</text>
</a>
</g>
</g>
<!-- Node2 -->
<g id="Node000002" class="node">
<title>Node2</title>
<g id="a_Node000002"><a xlink:href="math__util_8c.html#a5eb0d9752bc1557b7f4ae3809352a0eb" target="_top" xlink:title=" ">
<polygon fill="white" stroke="#666666" points="205,-216 167,-216 167,-197 205,-197 205,-216"/>
<text text-anchor="middle" x="186" y="-204" font-family="Helvetica,sans-Serif" font-size="10.00">coss</text>
</a>
</g>
</g>
<!-- Node1&#45;&gt;Node2 -->
<g id="edge1_Node000001_Node000002" class="edge">
<title>Node1&#45;&gt;Node2</title>
<g id="a_edge1_Node000001_Node000002"><a xlink:title=" ">
<path fill="none" stroke="#63b8ff" d="M54.16,-123C67.39,-138.82 96.1,-170.58 127,-188.5 136.21,-193.84 147.17,-197.77 157.07,-200.56"/>
<polygon fill="#63b8ff" stroke="#63b8ff" points="156.34,-203.99 166.89,-203.08 158.08,-197.21 156.34,-203.99"/>
</a>
</g>
</g>
<!-- Node3 -->
<g id="Node000003" class="node">
<title>Node3</title>
<g id="a_Node000003"><a xlink:href="code__80057C60_8c.html#a1272a6c50cfec9b141d07f72a0e2f2c5" target="_top" xlink:title=" ">
<polygon fill="white" stroke="#666666" points="241,-179 131,-179 131,-160 241,-160 241,-179"/>
<text text-anchor="middle" x="186" y="-167" font-family="Helvetica,sans-Serif" font-size="10.00">init_particle_player</text>
</a>
</g>
</g>
<!-- Node1&#45;&gt;Node3 -->
<g id="edge2_Node000001_Node000003" class="edge">
<title>Node1&#45;&gt;Node3</title>
<g id="a_edge2_Node000001_Node000003"><a xlink:title=" ">
<path fill="none" stroke="#63b8ff" d="M64.72,-123C80.83,-131.18 105.11,-142.98 127,-151.5 131.73,-153.34 136.73,-155.12 141.74,-156.81"/>
<polygon fill="#63b8ff" stroke="#63b8ff" points="140.7,-160.15 151.29,-159.91 142.86,-153.5 140.7,-160.15"/>
</a>
</g>
</g>
<!-- Node4 -->
<g id="Node000004" class="node">
<title>Node4</title>
<g id="a_Node000004"><a xlink:href="math__util_8c.html#a151b63b8adf9af7e4054b3b84bd226dc" target="_top" xlink:title=" ">
<polygon fill="white" stroke="#666666" points="222,-142 150,-142 150,-123 222,-123 222,-142"/>
<text text-anchor="middle" x="186" y="-130" font-family="Helvetica,sans-Serif" font-size="10.00">random_int</text>
</a>
</g>
</g>
<!-- Node1&#45;&gt;Node4 -->
<g id="edge3_Node000001_Node000004" class="edge">
<title>Node1&#45;&gt;Node4</title>
<g id="a_edge3_Node000001_Node000004"><a xlink:title=" ">
<path fill="none" stroke="#63b8ff" d="M91.08,-119.62C106.65,-121.75 124.13,-124.15 139.76,-126.29"/>
<polygon fill="#63b8ff" stroke="#63b8ff" points="139.33,-129.77 149.71,-127.66 140.28,-122.83 139.33,-129.77"/>
</a>
</g>
</g>
<!-- Node6 -->
<g id="Node000006" class="node">
<title>Node6</title>
<g id="a_Node000006"><a xlink:href="code__80057C60_8c.html#a4ae339f479dc4885b0af81962c9963c8" target="_top" xlink:title=" ">
<polygon fill="white" stroke="#666666" points="240.5,-105 131.5,-105 131.5,-86 240.5,-86 240.5,-105"/>
<text text-anchor="middle" x="186" y="-93" font-family="Helvetica,sans-Serif" font-size="10.00">set_particle_colour</text>
</a>
</g>
</g>
<!-- Node1&#45;&gt;Node6 -->
<g id="edge5_Node000001_Node000006" class="edge">
<title>Node1&#45;&gt;Node6</title>
<g id="a_edge5_Node000001_Node000006"><a xlink:title=" ">
<path fill="none" stroke="#63b8ff" d="M91.08,-107.71C100.69,-106.46 111.03,-105.11 121.21,-103.79"/>
<polygon fill="#63b8ff" stroke="#63b8ff" points="121.84,-107.24 131.3,-102.48 120.93,-100.3 121.84,-107.24"/>
</a>
</g>
</g>
<!-- Node7 -->
<g id="Node000007" class="node">
<title>Node7</title>
<g id="a_Node000007"><a xlink:href="code__80057C60_8c.html#a35301423811a1f1a26d5cf4f2031696b" target="_top" xlink:title=" ">
<polygon fill="white" stroke="#666666" points="245,-67.5 127,-67.5 127,-37.5 245,-37.5 245,-67.5"/>
<text text-anchor="start" x="135" y="-55.5" font-family="Helvetica,sans-Serif" font-size="10.00">set_particle_position</text>
<text text-anchor="middle" x="186" y="-44.5" font-family="Helvetica,sans-Serif" font-size="10.00">_and_rotation</text>
</a>
</g>
</g>
<!-- Node1&#45;&gt;Node7 -->
<g id="edge6_Node000001_Node000007" class="edge">
<title>Node1&#45;&gt;Node7</title>
<g id="a_edge6_Node000001_Node000007"><a xlink:title=" ">
<path fill="none" stroke="#63b8ff" d="M67.65,-103.95C83.87,-96.65 106.81,-86.36 127,-77.5 131.35,-75.59 135.89,-73.61 140.43,-71.64"/>
<polygon fill="#63b8ff" stroke="#63b8ff" points="141.91,-74.81 149.69,-67.63 139.13,-68.39 141.91,-74.81"/>
</a>
</g>
</g>
<!-- Node8 -->
<g id="Node000008" class="node">
<title>Node8</title>
<g id="a_Node000008"><a xlink:href="math__util_8c.html#adcf81d47666b5d86c4a1dbcb06e47faf" target="_top" xlink:title=" ">
<polygon fill="white" stroke="#666666" points="204,-19 168,-19 168,0 204,0 204,-19"/>
<text text-anchor="middle" x="186" y="-7" font-family="Helvetica,sans-Serif" font-size="10.00">sins</text>
</a>
</g>
</g>
<!-- Node1&#45;&gt;Node8 -->
<g id="edge7_Node000001_Node000008" class="edge">
<title>Node1&#45;&gt;Node8</title>
<g id="a_edge7_Node000001_Node000008"><a xlink:title=" ">
<path fill="none" stroke="#63b8ff" d="M53.09,-103.86C65.54,-86.36 94.2,-49.27 127,-28.5 136.4,-22.55 147.85,-18.28 158.08,-15.32"/>
<polygon fill="#63b8ff" stroke="#63b8ff" points="159,-18.7 167.79,-12.78 157.23,-11.93 159,-18.7"/>
</a>
</g>
</g>
<!-- Node5 -->
<g id="Node000005" class="node">
<title>Node5</title>
<g id="a_Node000005"><a xlink:href="math__util_8c.html#a062850863585005ad1d0a75d9ff70693" target="_top" xlink:title=" ">
<polygon fill="white" stroke="#666666" points="358,-142 281,-142 281,-123 358,-123 358,-142"/>
<text text-anchor="middle" x="319.5" y="-130" font-family="Helvetica,sans-Serif" font-size="10.00">random_u16</text>
</a>
</g>
</g>
<!-- Node4&#45;&gt;Node5 -->
<g id="edge4_Node000004_Node000005" class="edge">
<title>Node4&#45;&gt;Node5</title>
<g id="a_edge4_Node000004_Node000005"><a xlink:title=" ">
<path fill="none" stroke="#63b8ff" d="M222.24,-132.5C237.09,-132.5 254.61,-132.5 270.61,-132.5"/>
<polygon fill="#63b8ff" stroke="#63b8ff" points="270.86,-136 280.86,-132.5 270.86,-129 270.86,-136"/>
</a>
</g>
</g>
</g>
</svg>
