<?xml version="1.0" encoding="UTF-8" standalone="no"?>
<!DOCTYPE svg PUBLIC "-//W3C//DTD SVG 1.1//EN"
 "http://www.w3.org/Graphics/SVG/1.1/DTD/svg11.dtd">
<!-- Generated by graphviz version 2.43.0 (0)
 -->
<!-- Title: func_8007E00C Pages: 1 -->
<!--zoomable 323 -->

<svg id="main" version="1.1" xmlns="http://www.w3.org/2000/svg" xmlns:xlink="http://www.w3.org/1999/xlink" xml:space="preserve" onload="init(evt)">
<style type="text/css"><![CDATA[
.node, .edge {opacity: 0.7;}
.node.selected, .edge.selected {opacity: 1;}
.edge:hover path { stroke: red; }
.edge:hover polygon { stroke: red; fill: red; }
]]></style>

<defs>
  <circle id="rim" cx="0" cy="0" r="7"/>
  <circle id="rim2" cx="0" cy="0" r="3.5"/>
  <g id="zoomPlus">
    <use xlink:href="#rim" fill="#404040"><set attributeName="fill" to="#808080" begin="zoomplus.mouseover" end="zoomplus.mouseout"/></use>
    <path d="M-4,0h8M0,-4v8" fill="none" stroke="white" stroke-width="1.5" pointer-events="none"/>
  </g>
  <g id="zoomMin">
    <use xlink:href="#rim" fill="#404040"><set attributeName="fill" to="#808080" begin="zoomminus.mouseover" end="zoomminus.mouseout"/></use>
    <path d="M-4,0h8" fill="none" stroke="white" stroke-width="1.5" pointer-events="none"/>
  </g>
  <g id="arrowUp" transform="translate(30 24)">
    <use xlink:href="#rim"/>
    <path pointer-events="none" fill="none" stroke="white" stroke-width="1.5" d="M0,-3.0v7 M-2.5,-0.5L0,-3.0L2.5,-0.5"/>
  </g>
  <g id="arrowRight" transform="rotate(90) translate(36 -43)">
    <use xlink:href="#rim"/>
    <path pointer-events="none" fill="none" stroke="white" stroke-width="1.5" d="M0,-3.0v7 M-2.5,-0.5L0,-3.0L2.5,-0.5"/>
  </g>
  <g id="arrowDown" transform="rotate(180) translate(-30 -48)">
    <use xlink:href="#rim"/>
    <path pointer-events="none" fill="none" stroke="white" stroke-width="1.5" d="M0,-3.0v7 M-2.5,-0.5L0,-3.0L2.5,-0.5"/>
  </g>
  <g id="arrowLeft" transform="rotate(270) translate(-36 17)">
    <use xlink:href="#rim"/>
    <path pointer-events="none" fill="none" stroke="white" stroke-width="1.5" d="M0,-3.0v7 M-2.5,-0.5L0,-3.0L2.5,-0.5"/>
  </g>
  <g id="resetDef">
    <use xlink:href="#rim2" fill="#404040"><set attributeName="fill" to="#808080" begin="reset.mouseover" end="reset.mouseout"/></use>
  </g>
</defs>
<script type="application/ecmascript">
var viewWidth = 923;
var viewHeight = 323;
var sectionId = 'dynsection-387';
</script>
<script type="application/ecmascript" xlink:href="svg.min.js"/>
<svg id="graph" class="graph">
<g id="viewport">
<title>func_8007E00C</title>
<!-- Node1 -->
<g id="Node000001" class="node">
<title>Node1</title>
<g id="a_Node000001"><a xlink:title=" ">
<polygon fill="#999999" stroke="#666666" points="92,-202 0,-202 0,-183 92,-183 92,-202"/>
<text text-anchor="middle" x="46" y="-190" font-family="Helvetica,sans-Serif" font-size="10.00">func_8007E00C</text>
</a>
</g>
</g>
<!-- Node2 -->
<g id="Node000002" class="node">
<title>Node2</title>
<g id="a_Node000002"><a xlink:href="math__util__2_8c.html#a0477eb3c05bafb2dd984658abd1e56e9" target="_top" xlink:title=" ">
<polygon fill="white" stroke="#666666" points="224,-315 132,-315 132,-296 224,-296 224,-315"/>
<text text-anchor="middle" x="178" y="-303" font-family="Helvetica,sans-Serif" font-size="10.00">func_800417B4</text>
</a>
</g>
</g>
<!-- Node1&#45;&gt;Node2 -->
<g id="edge1_Node000001_Node000002" class="edge">
<title>Node1&#45;&gt;Node2</title>
<g id="a_edge1_Node000001_Node000002"><a xlink:title=" ">
<path fill="none" stroke="#63b8ff" d="M52.88,-202.29C64.77,-221.3 93.5,-263.47 128,-287.5 130.08,-288.95 132.3,-290.3 134.59,-291.55"/>
<polygon fill="#63b8ff" stroke="#63b8ff" points="133.16,-294.75 143.69,-295.91 136.18,-288.43 133.16,-294.75"/>
</a>
</g>
</g>
<!-- Node3 -->
<g id="Node000003" class="node">
<title>Node3</title>
<g id="a_Node000003"><a xlink:href="code__80071F00_8c.html#a91e6ccbfa10d972106998ad26b271c17" target="_top" xlink:title=" ">
<polygon fill="white" stroke="#666666" points="373.5,-278 282.5,-278 282.5,-259 373.5,-259 373.5,-278"/>
<text text-anchor="middle" x="328" y="-266" font-family="Helvetica,sans-Serif" font-size="10.00">func_80072488</text>
</a>
</g>
</g>
<!-- Node1&#45;&gt;Node3 -->
<g id="edge2_Node000001_Node000003" class="edge">
<title>Node1&#45;&gt;Node3</title>
<g id="a_edge2_Node000001_Node000003"><a xlink:title=" ">
<path fill="none" stroke="#63b8ff" d="M82.18,-202.05C132.79,-215.78 226.15,-241.13 281.81,-256.23"/>
<polygon fill="#63b8ff" stroke="#63b8ff" points="281.18,-259.69 291.74,-258.93 283.01,-252.93 281.18,-259.69"/>
</a>
</g>
</g>
<!-- Node6 -->
<g id="Node000006" class="node">
<title>Node6</title>
<g id="a_Node000006"><a xlink:href="code__80071F00_8c.html#a46d84a80361a6c7174b0398a5ded599b" target="_top" xlink:title=" ">
<polygon fill="white" stroke="#666666" points="224,-278 132,-278 132,-259 224,-259 224,-278"/>
<text text-anchor="middle" x="178" y="-266" font-family="Helvetica,sans-Serif" font-size="10.00">func_8007278C</text>
</a>
</g>
</g>
<!-- Node1&#45;&gt;Node6 -->
<g id="edge5_Node000001_Node000006" class="edge">
<title>Node1&#45;&gt;Node6</title>
<g id="a_edge5_Node000001_Node000006"><a xlink:title=" ">
<path fill="none" stroke="#63b8ff" d="M60.75,-202.02C76.62,-212.85 103.69,-230.8 128,-244.5 134.1,-247.94 140.76,-251.39 147.15,-254.56"/>
<polygon fill="#63b8ff" stroke="#63b8ff" points="145.7,-257.75 156.22,-258.98 148.76,-251.45 145.7,-257.75"/>
</a>
</g>
</g>
<!-- Node7 -->
<g id="Node000007" class="node">
<title>Node7</title>
<g id="a_Node000007"><a xlink:href="code__80071F00_8c.html#ac31769d6520eb620744212bb98a35c67" target="_top" xlink:title=" ">
<polygon fill="white" stroke="#666666" points="224,-101 132,-101 132,-82 224,-82 224,-101"/>
<text text-anchor="middle" x="178" y="-89" font-family="Helvetica,sans-Serif" font-size="10.00">func_80073CB0</text>
</a>
</g>
</g>
<!-- Node1&#45;&gt;Node7 -->
<g id="edge8_Node000001_Node000007" class="edge">
<title>Node1&#45;&gt;Node7</title>
<g id="a_edge8_Node000001_Node000007"><a xlink:title=" ">
<path fill="none" stroke="#63b8ff" d="M56.39,-182.79C70.92,-168.07 100.09,-139.7 128,-119.5 134.44,-114.84 141.72,-110.32 148.66,-106.32"/>
<polygon fill="#63b8ff" stroke="#63b8ff" points="150.77,-109.15 157.8,-101.23 147.36,-103.04 150.77,-109.15"/>
</a>
</g>
</g>
<!-- Node11 -->
<g id="Node000011" class="node">
<title>Node11</title>
<g id="a_Node000011"><a xlink:href="code__80071F00_8c.html#a281b6219991026ad20df7d33ae149504" target="_top" xlink:title=" ">
<polygon fill="white" stroke="#666666" points="224,-202 132,-202 132,-183 224,-183 224,-202"/>
<text text-anchor="middle" x="178" y="-190" font-family="Helvetica,sans-Serif" font-size="10.00">func_8007D714</text>
</a>
</g>
</g>
<!-- Node1&#45;&gt;Node11 -->
<g id="edge12_Node000001_Node000011" class="edge">
<title>Node1&#45;&gt;Node11</title>
<g id="a_edge12_Node000001_Node000011"><a xlink:title=" ">
<path fill="none" stroke="#63b8ff" d="M92.1,-192.5C101.68,-192.5 111.9,-192.5 121.81,-192.5"/>
<polygon fill="#63b8ff" stroke="#63b8ff" points="121.98,-196 131.98,-192.5 121.98,-189 121.98,-196"/>
</a>
</g>
</g>
<!-- Node24 -->
<g id="Node000024" class="node">
<title>Node24</title>
<g id="a_Node000024"><a xlink:href="external_8c.html#acb60983213d09ee795e80ca3c8b5975e" target="_top" xlink:title=" ">
<polygon fill="white" stroke="#666666" points="224,-46 132,-46 132,-27 224,-27 224,-46"/>
<text text-anchor="middle" x="178" y="-34" font-family="Helvetica,sans-Serif" font-size="10.00">func_800C98B8</text>
</a>
</g>
</g>
<!-- Node1&#45;&gt;Node24 -->
<g id="edge26_Node000001_Node000024" class="edge">
<title>Node1&#45;&gt;Node24</title>
<g id="a_edge26_Node000001_Node000024"><a xlink:title=" ">
<path fill="none" stroke="#63b8ff" d="M52.16,-182.79C63.78,-161.45 93.71,-109.52 128,-73.5 135.53,-65.59 144.88,-58.09 153.38,-51.93"/>
<polygon fill="#63b8ff" stroke="#63b8ff" points="155.63,-54.63 161.83,-46.05 151.63,-48.89 155.63,-54.63"/>
</a>
</g>
</g>
<!-- Node26 -->
<g id="Node000026" class="node">
<title>Node26</title>
<g id="a_Node000026"><a xlink:href="code__80071F00_8c.html#a4b602d870d1f406c46383eaab14ba1a0" target="_top" xlink:title=" ">
<polygon fill="white" stroke="#666666" points="228,-147 128,-147 128,-128 228,-128 228,-147"/>
<text text-anchor="middle" x="178" y="-135" font-family="Helvetica,sans-Serif" font-size="10.00">init_bb_trash_bin</text>
</a>
</g>
</g>
<!-- Node1&#45;&gt;Node26 -->
<g id="edge28_Node000001_Node000026" class="edge">
<title>Node1&#45;&gt;Node26</title>
<g id="a_edge28_Node000001_Node000026"><a xlink:title=" ">
<path fill="none" stroke="#63b8ff" d="M69.64,-182.92C90.4,-174.14 121.35,-161.05 144.69,-151.17"/>
<polygon fill="#63b8ff" stroke="#63b8ff" points="146.33,-154.27 154.18,-147.16 143.61,-147.83 146.33,-154.27"/>
</a>
</g>
</g>
<!-- Node4 -->
<g id="Node000004" class="node">
<title>Node4</title>
<g id="a_Node000004"><a xlink:href="code__80071F00_8c.html#a9d0d6fe8e02dc86bf4f9f8c8214ee326" target="_top" xlink:title=" ">
<polygon fill="white" stroke="#666666" points="548.5,-310.5 435.5,-310.5 435.5,-280.5 548.5,-280.5 548.5,-310.5"/>
<text text-anchor="start" x="443.5" y="-298.5" font-family="Helvetica,sans-Serif" font-size="10.00">set_object_flag_unk</text>
<text text-anchor="middle" x="492" y="-287.5" font-family="Helvetica,sans-Serif" font-size="10.00">_054_false</text>
</a>
</g>
</g>
<!-- Node3&#45;&gt;Node4 -->
<g id="edge3_Node000003_Node000004" class="edge">
<title>Node3&#45;&gt;Node4</title>
<g id="a_edge3_Node000003_Node000004"><a xlink:title=" ">
<path fill="none" stroke="#63b8ff" d="M373.7,-275.95C389.67,-278.61 408.01,-281.67 425.38,-284.56"/>
<polygon fill="#63b8ff" stroke="#63b8ff" points="425.03,-288.05 435.46,-286.24 426.18,-281.15 425.03,-288.05"/>
</a>
</g>
</g>
<!-- Node5 -->
<g id="Node000005" class="node">
<title>Node5</title>
<g id="a_Node000005"><a xlink:href="code__80071F00_8c.html#a4b4f00a7df0f9bc44914cd922c3cd51b" target="_top" xlink:title=" ">
<polygon fill="white" stroke="#666666" points="549.5,-262 434.5,-262 434.5,-243 549.5,-243 549.5,-262"/>
<text text-anchor="middle" x="492" y="-250" font-family="Helvetica,sans-Serif" font-size="10.00">set_object_unk_0CB</text>
</a>
</g>
</g>
<!-- Node3&#45;&gt;Node5 -->
<g id="edge4_Node000003_Node000005" class="edge">
<title>Node3&#45;&gt;Node5</title>
<g id="a_edge4_Node000003_Node000005"><a xlink:title=" ">
<path fill="none" stroke="#63b8ff" d="M373.7,-264.09C389.21,-262.55 406.96,-260.8 423.88,-259.13"/>
<polygon fill="#63b8ff" stroke="#63b8ff" points="424.67,-262.57 434.28,-258.1 423.98,-255.6 424.67,-262.57"/>
</a>
</g>
</g>
<!-- Node6&#45;&gt;Node3 -->
<g id="edge6_Node000006_Node000003" class="edge">
<title>Node6&#45;&gt;Node3</title>
<g id="a_edge6_Node000006_Node000003"><a xlink:title=" ">
<path fill="none" stroke="#63b8ff" d="M224.21,-268.5C239.34,-268.5 256.38,-268.5 272.16,-268.5"/>
<polygon fill="#63b8ff" stroke="#63b8ff" points="272.32,-272 282.32,-268.5 272.32,-265 272.32,-272"/>
</a>
</g>
</g>
<!-- Node6&#45;&gt;Node5 -->
<g id="edge7_Node000006_Node000005" class="edge">
<title>Node6&#45;&gt;Node5</title>
<g id="a_edge7_Node000006_Node000005"><a xlink:title=" ">
<path fill="none" stroke="#63b8ff" d="M214.44,-278.02C257.02,-288 330.44,-300.56 392,-287.5 409.13,-283.87 411.59,-277.6 428,-271.5 433.97,-269.28 440.34,-267.13 446.63,-265.12"/>
<polygon fill="#63b8ff" stroke="#63b8ff" points="447.9,-268.39 456.41,-262.08 445.82,-261.7 447.9,-268.39"/>
</a>
</g>
</g>
<!-- Node8 -->
<g id="Node000008" class="node">
<title>Node8</title>
<g id="a_Node000008"><a xlink:href="code__80071F00_8c.html#a394360d128db360e999e096566bffa94" target="_top" xlink:title=" ">
<polygon fill="white" stroke="#666666" points="374,-56 282,-56 282,-37 374,-37 374,-56"/>
<text text-anchor="middle" x="328" y="-44" font-family="Helvetica,sans-Serif" font-size="10.00">func_80073B78</text>
</a>
</g>
</g>
<!-- Node7&#45;&gt;Node8 -->
<g id="edge9_Node000007_Node000008" class="edge">
<title>Node7&#45;&gt;Node8</title>
<g id="a_edge9_Node000007_Node000008"><a xlink:title=" ">
<path fill="none" stroke="#63b8ff" d="M210.08,-81.96C226.17,-77.03 246.13,-70.93 264,-65.5 270.99,-63.38 278.42,-61.13 285.63,-58.95"/>
<polygon fill="#63b8ff" stroke="#63b8ff" points="286.7,-62.28 295.27,-56.04 284.68,-55.58 286.7,-62.28"/>
</a>
</g>
</g>
<!-- Node9 -->
<g id="Node000009" class="node">
<title>Node9</title>
<g id="a_Node000009"><a xlink:href="code__80071F00_8c.html#a350ec2cc42f1fa42cda82e830e6dc1c6" target="_top" xlink:title=" ">
<polygon fill="white" stroke="#666666" points="537.5,-35 446.5,-35 446.5,-16 537.5,-16 537.5,-35"/>
<text text-anchor="middle" x="492" y="-23" font-family="Helvetica,sans-Serif" font-size="10.00">func_80073800</text>
</a>
</g>
</g>
<!-- Node8&#45;&gt;Node9 -->
<g id="edge10_Node000008_Node000009" class="edge">
<title>Node8&#45;&gt;Node9</title>
<g id="a_edge10_Node000008_Node000009"><a xlink:title=" ">
<path fill="none" stroke="#63b8ff" d="M374.13,-40.65C393.43,-38.15 416.14,-35.2 436.38,-32.58"/>
<polygon fill="#63b8ff" stroke="#63b8ff" points="436.93,-36.04 446.4,-31.28 436.03,-29.1 436.93,-36.04"/>
</a>
</g>
</g>
<!-- Node10 -->
<g id="Node000010" class="node">
<title>Node10</title>
<g id="a_Node000010"><a xlink:href="code__80071F00_8c.html#a95b88653b438ce0326cfae9fc910bb68" target="_top" xlink:title=" ">
<polygon fill="white" stroke="#666666" points="538,-72 446,-72 446,-53 538,-53 538,-72"/>
<text text-anchor="middle" x="492" y="-60" font-family="Helvetica,sans-Serif" font-size="10.00">func_8007381C</text>
</a>
</g>
</g>
<!-- Node8&#45;&gt;Node10 -->
<g id="edge11_Node000008_Node000010" class="edge">
<title>Node8&#45;&gt;Node10</title>
<g id="a_edge11_Node000008_Node000010"><a xlink:title=" ">
<path fill="none" stroke="#63b8ff" d="M374.13,-50.96C393.27,-52.85 415.76,-55.07 435.87,-57.06"/>
<polygon fill="#63b8ff" stroke="#63b8ff" points="435.54,-60.54 445.84,-58.04 436.23,-53.57 435.54,-60.54"/>
</a>
</g>
</g>
<!-- Node12 -->
<g id="Node000012" class="node">
<title>Node12</title>
<g id="a_Node000012"><a xlink:href="code__80071F00_8c.html#a6e56a43ec98e81db05f2410893efa437" target="_top" xlink:title=" ">
<polygon fill="white" stroke="#666666" points="392,-204 264,-204 264,-185 392,-185 392,-204"/>
<text text-anchor="middle" x="328" y="-192" font-family="Helvetica,sans-Serif" font-size="10.00">add_unused_obj_index</text>
</a>
</g>
</g>
<!-- Node11&#45;&gt;Node12 -->
<g id="edge13_Node000011_Node000012" class="edge">
<title>Node11&#45;&gt;Node12</title>
<g id="a_edge13_Node000011_Node000012"><a xlink:title=" ">
<path fill="none" stroke="#63b8ff" d="M224.21,-193.11C233.58,-193.24 243.68,-193.37 253.77,-193.51"/>
<polygon fill="#63b8ff" stroke="#63b8ff" points="253.77,-197.01 263.82,-193.65 253.86,-190.01 253.77,-197.01"/>
</a>
</g>
</g>
<!-- Node14 -->
<g id="Node000014" class="node">
<title>Node14</title>
<g id="a_Node000014"><a xlink:href="code__80071F00_8c.html#ad44c53b9400e14a1222584ef55fa41db" target="_top" xlink:title=" ">
<polygon fill="white" stroke="#666666" points="374.5,-167 281.5,-167 281.5,-148 374.5,-148 374.5,-167"/>
<text text-anchor="middle" x="328" y="-155" font-family="Helvetica,sans-Serif" font-size="10.00">func_8007D6A8</text>
</a>
</g>
</g>
<!-- Node11&#45;&gt;Node14 -->
<g id="edge15_Node000011_Node000014" class="edge">
<title>Node11&#45;&gt;Node14</title>
<g id="a_edge15_Node000011_Node000014"><a xlink:title=" ">
<path fill="none" stroke="#63b8ff" d="M219.44,-182.94C237.14,-178.75 258.1,-173.8 276.78,-169.38"/>
<polygon fill="#63b8ff" stroke="#63b8ff" points="277.68,-172.76 286.61,-167.05 276.07,-165.95 277.68,-172.76"/>
</a>
</g>
</g>
<!-- Node23 -->
<g id="Node000023" class="node">
<title>Node23</title>
<g id="a_Node000023"><a xlink:href="code__80071F00_8c.html#abdebd086b5ff081f83af3d9205f39cd3" target="_top" xlink:title=" ">
<polygon fill="white" stroke="#666666" points="362,-241 294,-241 294,-222 362,-222 362,-241"/>
<text text-anchor="middle" x="328" y="-229" font-family="Helvetica,sans-Serif" font-size="10.00">init_object</text>
</a>
</g>
</g>
<!-- Node11&#45;&gt;Node23 -->
<g id="edge24_Node000011_Node000023" class="edge">
<title>Node11&#45;&gt;Node23</title>
<g id="a_edge24_Node000011_Node000023"><a xlink:title=" ">
<path fill="none" stroke="#63b8ff" d="M215.2,-202.04C235.98,-207.52 262.2,-214.42 284.02,-220.17"/>
<polygon fill="#63b8ff" stroke="#63b8ff" points="283.14,-223.56 293.7,-222.72 284.92,-216.79 283.14,-223.56"/>
</a>
</g>
</g>
<!-- Node13 -->
<g id="Node000013" class="node">
<title>Node13</title>
<g id="a_Node000013"><a xlink:href="code__80071F00_8c.html#a92856990c4ca5fba1b8e0c61ca832c27" target="_top" xlink:title=" ">
<polygon fill="white" stroke="#666666" points="556,-210 428,-210 428,-191 556,-191 556,-210"/>
<text text-anchor="middle" x="492" y="-198" font-family="Helvetica,sans-Serif" font-size="10.00">find_unused_obj_index</text>
</a>
</g>
</g>
<!-- Node12&#45;&gt;Node13 -->
<g id="edge14_Node000012_Node000013" class="edge">
<title>Node12&#45;&gt;Node13</title>
<g id="a_edge14_Node000012_Node000013"><a xlink:title=" ">
<path fill="none" stroke="#63b8ff" d="M392.1,-196.84C400.53,-197.15 409.23,-197.47 417.81,-197.79"/>
<polygon fill="#63b8ff" stroke="#63b8ff" points="417.69,-201.29 427.81,-198.16 417.94,-194.29 417.69,-201.29"/>
</a>
</g>
</g>
<!-- Node15 -->
<g id="Node000015" class="node">
<title>Node15</title>
<g id="a_Node000015"><a xlink:href="code__80071F00_8c.html#aa2925a041b2174084d6f3cc16d2cc705" target="_top" xlink:title=" ">
<polygon fill="white" stroke="#666666" points="538,-124 446,-124 446,-105 538,-105 538,-124"/>
<text text-anchor="middle" x="492" y="-112" font-family="Helvetica,sans-Serif" font-size="10.00">func_8007D360</text>
</a>
</g>
</g>
<!-- Node14&#45;&gt;Node15 -->
<g id="edge16_Node000014_Node000015" class="edge">
<title>Node14&#45;&gt;Node15</title>
<g id="a_edge16_Node000014_Node000015"><a xlink:title=" ">
<path fill="none" stroke="#63b8ff" d="M364.95,-147.96C388.65,-141.67 419.9,-133.37 445.35,-126.62"/>
<polygon fill="#63b8ff" stroke="#63b8ff" points="446.38,-129.96 455.15,-124.02 444.58,-123.2 446.38,-129.96"/>
</a>
</g>
</g>
<!-- Node22 -->
<g id="Node000022" class="node">
<title>Node22</title>
<g id="a_Node000022"><a xlink:href="code__80071F00_8c.html#a946b33c1ed166b19b04e4528c3641b9a" target="_top" xlink:title=" ">
<polygon fill="white" stroke="#666666" points="548.5,-172.5 435.5,-172.5 435.5,-142.5 548.5,-142.5 548.5,-172.5"/>
<text text-anchor="start" x="443.5" y="-160.5" font-family="Helvetica,sans-Serif" font-size="10.00">set_object_flag_unk</text>
<text text-anchor="middle" x="492" y="-149.5" font-family="Helvetica,sans-Serif" font-size="10.00">_054_true</text>
</a>
</g>
</g>
<!-- Node14&#45;&gt;Node22 -->
<g id="edge23_Node000014_Node000022" class="edge">
<title>Node14&#45;&gt;Node22</title>
<g id="a_edge23_Node000014_Node000022"><a xlink:title=" ">
<path fill="none" stroke="#63b8ff" d="M374.56,-157.5C390.21,-157.5 408.07,-157.5 425.01,-157.5"/>
<polygon fill="#63b8ff" stroke="#63b8ff" points="425.42,-161 435.42,-157.5 425.42,-154 425.42,-161"/>
</a>
</g>
</g>
<!-- Node16 -->
<g id="Node000016" class="node">
<title>Node16</title>
<g id="a_Node000016"><a xlink:href="math__util__2_8c.html#a10e63f3a453c537f806fbb5371bde67c" target="_top" xlink:title=" ">
<polygon fill="white" stroke="#666666" points="683.5,-161 592.5,-161 592.5,-142 683.5,-142 683.5,-161"/>
<text text-anchor="middle" x="638" y="-149" font-family="Helvetica,sans-Serif" font-size="10.00">func_80041770</text>
</a>
</g>
</g>
<!-- Node15&#45;&gt;Node16 -->
<g id="edge17_Node000015_Node000016" class="edge">
<title>Node15&#45;&gt;Node16</title>
<g id="a_edge17_Node000015_Node000016"><a xlink:title=" ">
<path fill="none" stroke="#63b8ff" d="M530.08,-124.03C548.25,-128.7 570.33,-134.37 589.7,-139.35"/>
<polygon fill="#63b8ff" stroke="#63b8ff" points="588.99,-142.78 599.54,-141.88 590.73,-136 588.99,-142.78"/>
</a>
</g>
</g>
<!-- Node19 -->
<g id="Node000019" class="node">
<title>Node19</title>
<g id="a_Node000019"><a xlink:href="code__80086E70_8c.html#aaec540b89607cbfe79478fa9a3be642e" target="_top" xlink:title=" ">
<polygon fill="white" stroke="#666666" points="684,-124 592,-124 592,-105 684,-105 684,-124"/>
<text text-anchor="middle" x="638" y="-112" font-family="Helvetica,sans-Serif" font-size="10.00">func_8008B80C</text>
</a>
</g>
</g>
<!-- Node15&#45;&gt;Node19 -->
<g id="edge20_Node000015_Node000019" class="edge">
<title>Node15&#45;&gt;Node19</title>
<g id="a_edge20_Node000015_Node000019"><a xlink:title=" ">
<path fill="none" stroke="#63b8ff" d="M538.17,-114.5C551.97,-114.5 567.31,-114.5 581.71,-114.5"/>
<polygon fill="#63b8ff" stroke="#63b8ff" points="581.99,-118 591.99,-114.5 581.99,-111 581.99,-118"/>
</a>
</g>
</g>
<!-- Node20 -->
<g id="Node000020" class="node">
<title>Node20</title>
<g id="a_Node000020"><a xlink:href="math__util_8c.html#a151b63b8adf9af7e4054b3b84bd226dc" target="_top" xlink:title=" ">
<polygon fill="white" stroke="#666666" points="674,-87 602,-87 602,-68 674,-68 674,-87"/>
<text text-anchor="middle" x="638" y="-75" font-family="Helvetica,sans-Serif" font-size="10.00">random_int</text>
</a>
</g>
</g>
<!-- Node15&#45;&gt;Node20 -->
<g id="edge21_Node000015_Node000020" class="edge">
<title>Node15&#45;&gt;Node20</title>
<g id="a_edge21_Node000015_Node000020"><a xlink:title=" ">
<path fill="none" stroke="#63b8ff" d="M530.08,-104.97C548.9,-100.14 571.92,-94.22 591.78,-89.12"/>
<polygon fill="#63b8ff" stroke="#63b8ff" points="592.72,-92.49 601.53,-86.61 590.98,-85.71 592.72,-92.49"/>
</a>
</g>
</g>
<!-- Node17 -->
<g id="Node000017" class="node">
<title>Node17</title>
<g id="a_Node000017"><a xlink:href="math__util_8c.html#aaa39a297477f56051975259f4bddd829" target="_top" xlink:title=" ">
<polygon fill="white" stroke="#666666" points="783.5,-161 733.5,-161 733.5,-142 783.5,-142 783.5,-161"/>
<text text-anchor="middle" x="758.5" y="-149" font-family="Helvetica,sans-Serif" font-size="10.00">atan2s</text>
</a>
</g>
</g>
<!-- Node16&#45;&gt;Node17 -->
<g id="edge18_Node000016_Node000017" class="edge">
<title>Node16&#45;&gt;Node17</title>
<g id="a_edge18_Node000016_Node000017"><a xlink:title=" ">
<path fill="none" stroke="#63b8ff" d="M683.8,-151.5C696.78,-151.5 710.74,-151.5 722.98,-151.5"/>
<polygon fill="#63b8ff" stroke="#63b8ff" points="723.23,-155 733.23,-151.5 723.23,-148 723.23,-155"/>
</a>
</g>
</g>
<!-- Node18 -->
<g id="Node000018" class="node">
<title>Node18</title>
<g id="a_Node000018"><a xlink:href="math__util_8c.html#a0273b0ea0783a06996c28669a7438ed9" target="_top" xlink:title=" ">
<polygon fill="white" stroke="#666666" points="915,-161 833,-161 833,-142 915,-142 915,-161"/>
<text text-anchor="middle" x="874" y="-149" font-family="Helvetica,sans-Serif" font-size="10.00">atan2_lookup</text>
</a>
</g>
</g>
<!-- Node17&#45;&gt;Node18 -->
<g id="edge19_Node000017_Node000018" class="edge">
<title>Node17&#45;&gt;Node18</title>
<g id="a_edge19_Node000017_Node000018"><a xlink:title=" ">
<path fill="none" stroke="#63b8ff" d="M783.57,-151.5C794.98,-151.5 809.06,-151.5 822.64,-151.5"/>
<polygon fill="#63b8ff" stroke="#63b8ff" points="822.88,-155 832.88,-151.5 822.88,-148 822.88,-155"/>
</a>
</g>
</g>
<!-- Node21 -->
<g id="Node000021" class="node">
<title>Node21</title>
<g id="a_Node000021"><a xlink:href="math__util_8c.html#a062850863585005ad1d0a75d9ff70693" target="_top" xlink:title=" ">
<polygon fill="white" stroke="#666666" points="797,-87 720,-87 720,-68 797,-68 797,-87"/>
<text text-anchor="middle" x="758.5" y="-75" font-family="Helvetica,sans-Serif" font-size="10.00">random_u16</text>
</a>
</g>
</g>
<!-- Node20&#45;&gt;Node21 -->
<g id="edge22_Node000020_Node000021" class="edge">
<title>Node20&#45;&gt;Node21</title>
<g id="a_edge22_Node000020_Node000021"><a xlink:title=" ">
<path fill="none" stroke="#63b8ff" d="M674.23,-77.5C685.31,-77.5 697.74,-77.5 709.55,-77.5"/>
<polygon fill="#63b8ff" stroke="#63b8ff" points="709.72,-81 719.72,-77.5 709.72,-74 709.72,-81"/>
</a>
</g>
</g>
<!-- Node23&#45;&gt;Node5 -->
<g id="edge25_Node000023_Node000005" class="edge">
<title>Node23&#45;&gt;Node5</title>
<g id="a_edge25_Node000023_Node000005"><a xlink:title=" ">
<path fill="none" stroke="#63b8ff" d="M362.17,-235.8C380.07,-238.12 402.83,-241.07 424.22,-243.84"/>
<polygon fill="#63b8ff" stroke="#63b8ff" points="423.89,-247.33 434.25,-245.14 424.79,-240.39 423.89,-247.33"/>
</a>
</g>
</g>
<!-- Node25 -->
<g id="Node000025" class="node">
<title>Node25</title>
<g id="a_Node000025"><a xlink:href="external_8c.html#a4227847f3da303aee53cf69d2760a595" target="_top" xlink:title=" ">
<polygon fill="white" stroke="#666666" points="364,-19 292,-19 292,0 364,0 364,-19"/>
<text text-anchor="middle" x="328" y="-7" font-family="Helvetica,sans-Serif" font-size="10.00">play_sound</text>
</a>
</g>
</g>
<!-- Node24&#45;&gt;Node25 -->
<g id="edge27_Node000024_Node000025" class="edge">
<title>Node24&#45;&gt;Node25</title>
<g id="a_edge27_Node000024_Node000025"><a xlink:title=" ">
<path fill="none" stroke="#63b8ff" d="M224.21,-28.25C242.57,-24.9 263.73,-21.04 282.07,-17.7"/>
<polygon fill="#63b8ff" stroke="#63b8ff" points="282.72,-21.14 291.93,-15.9 281.46,-14.25 282.72,-21.14"/>
</a>
</g>
</g>
<!-- Node26&#45;&gt;Node3 -->
<g id="edge29_Node000026_Node000003" class="edge">
<title>Node26&#45;&gt;Node3</title>
<g id="a_edge29_Node000026_Node000003"><a xlink:title=" ">
<path fill="none" stroke="#63b8ff" d="M195.63,-147.15C205.98,-153.8 218.98,-163.42 228,-174.5 251.59,-203.49 235.49,-226.33 264,-250.5 266.73,-252.81 269.74,-254.83 272.92,-256.59"/>
<polygon fill="#63b8ff" stroke="#63b8ff" points="271.69,-259.88 282.24,-260.89 274.62,-253.52 271.69,-259.88"/>
</a>
</g>
</g>
<!-- Node27 -->
<g id="Node000027" class="node">
<title>Node27</title>
<g id="a_Node000027"><a xlink:href="code__80086E70_8c.html#ad745ffd7b6ecd50c57336a484979b258" target="_top" xlink:title=" ">
<polygon fill="white" stroke="#666666" points="383,-93 273,-93 273,-74 383,-74 383,-93"/>
<text text-anchor="middle" x="328" y="-81" font-family="Helvetica,sans-Serif" font-size="10.00">set_obj_orientation</text>
</a>
</g>
</g>
<!-- Node26&#45;&gt;Node27 -->
<g id="edge30_Node000026_Node000027" class="edge">
<title>Node26&#45;&gt;Node27</title>
<g id="a_edge30_Node000026_Node000027"><a xlink:title=" ">
<path fill="none" stroke="#63b8ff" d="M200.43,-127.99C217.49,-120.59 242.05,-110.31 264,-102.5 270.15,-100.31 276.68,-98.16 283.13,-96.13"/>
<polygon fill="#63b8ff" stroke="#63b8ff" points="284.6,-99.34 293.13,-93.05 282.54,-92.65 284.6,-99.34"/>
</a>
</g>
</g>
<!-- Node28 -->
<g id="Node000028" class="node">
<title>Node28</title>
<g id="a_Node000028"><a xlink:href="code__80086E70_8c.html#a1ac4b1d79eb9303b677c9f65f341e139" target="_top" xlink:title=" ">
<polygon fill="white" stroke="#666666" points="376,-130 280,-130 280,-111 376,-111 376,-130"/>
<text text-anchor="middle" x="328" y="-118" font-family="Helvetica,sans-Serif" font-size="10.00">set_obj_velocity</text>
</a>
</g>
</g>
<!-- Node26&#45;&gt;Node28 -->
<g id="edge31_Node000026_Node000028" class="edge">
<title>Node26&#45;&gt;Node28</title>
<g id="a_edge31_Node000026_Node000028"><a xlink:title=" ">
<path fill="none" stroke="#63b8ff" d="M228.28,-131.84C241.55,-130.32 256.01,-128.65 269.68,-127.08"/>
<polygon fill="#63b8ff" stroke="#63b8ff" points="270.4,-130.52 279.94,-125.91 269.61,-123.57 270.4,-130.52"/>
</a>
</g>
</g>
</g>
</svg>

<g id="navigator" transform="translate(0 0)" fill="#404254">
  <rect fill="#f2f5e9" fill-opacity="0.5" stroke="#606060" stroke-width=".5" x="0" y="0" width="60" height="60"/>
  <use id="zoomplus" xlink:href="#zoomPlus" x="17" y="9" onmousedown="handleZoom(evt,'in')"/>
  <use id="zoomminus" xlink:href="#zoomMin" x="42" y="9" onmousedown="handleZoom(evt,'out')"/>
  <use id="reset" xlink:href="#resetDef" x="30" y="36" onmousedown="handleReset()"/>
   <use id="arrowup" xlink:href="#arrowUp" x="0" y="0" onmousedown="handlePan(0,-1)"/>
  <use id="arrowright" xlink:href="#arrowRight" x="0" y="0" onmousedown="handlePan(1,0)"/>
  <use id="arrowdown" xlink:href="#arrowDown" x="0" y="0" onmousedown="handlePan(0,1)"/>
  <use id="arrowleft" xlink:href="#arrowLeft" x="0" y="0" onmousedown="handlePan(-1,0)"/>
</g>
<svg viewBox="0 0 15 15" width="100%" height="30px" preserveAspectRatio="xMaxYMin meet">
 <g id="arrow_out" transform="scale(0.3 0.3)">
  <a xlink:href="code__80071F00_8c_a4cdabd48a6b2f27cbd4d420c93d54f09_cgraph_org.svg" target="_base">
   <rect id="button" ry="5" rx="5" y="6" x="6" height="38" width="38"
        fill="#f2f5e9" fill-opacity="0.5" stroke="#606060" stroke-width="1.0"/>
   <path id="arrow"
     d="M 11.500037,31.436501 C 11.940474,20.09759 22.043105,11.32322 32.158766,21.979434 L 37.068811,17.246167 C 37.068811,17.246167 37.088388,32 37.088388,32 L 22.160133,31.978069 C 22.160133,31.978069 26.997745,27.140456 26.997745,27.140456 C 18.528582,18.264221 13.291696,25.230495 11.500037,31.436501 z"
     style="fill:#404040;"/>
  </a>
 </g>
</svg>

<style type='text/css'>
<![CDATA[
[data-mouse-over-selected='false'] { opacity: 0.7; }
[data-mouse-over-selected='true']  { opacity: 1.0; }
]]>
</style>
<script type="application/ecmascript"><![CDATA[
document.addEventListener('DOMContentLoaded', (event) => {
  highlightEdges();
  highlightAdjacentNodes();
});
]]></script>
</svg>
