<?xml version="1.0" encoding="UTF-8" standalone="no"?>
<!DOCTYPE svg PUBLIC "-//W3C//DTD SVG 1.1//EN"
 "http://www.w3.org/Graphics/SVG/1.1/DTD/svg11.dtd">
<!-- Generated by graphviz version 2.43.0 (0)
 -->
<!-- Title: func_8006D474 Pages: 1 -->
<svg width="595pt" height="560pt"
 viewBox="0.00 0.00 595.00 560.00" xmlns="http://www.w3.org/2000/svg" xmlns:xlink="http://www.w3.org/1999/xlink">
<g id="graph0" class="graph" transform="scale(1 1) rotate(0) translate(4 556)">
<title>func_8006D474</title>
<polygon fill="white" stroke="transparent" points="-4,4 -4,-556 591,-556 591,4 -4,4"/>
<!-- Node1 -->
<g id="node1" class="node">
<title>Node1</title>
<g id="a_node1"><a xlink:title=" ">
<polygon fill="#bfbfbf" stroke="black" points="0,-266.5 0,-285.5 92,-285.5 92,-266.5 0,-266.5"/>
<text text-anchor="middle" x="46" y="-273.5" font-family="Helvetica,sans-Serif" font-size="10.00">func_8006D474</text>
</a>
</g>
</g>
<!-- Node2 -->
<g id="node2" class="node">
<title>Node2</title>
<g id="a_node2"><a xlink:href="code__80057C60_8c.html#a7d449221d1101f6984723f0b5e29dcd1" target="_top" xlink:title=" ">
<polygon fill="white" stroke="black" points="128.5,-532.5 128.5,-551.5 220.5,-551.5 220.5,-532.5 128.5,-532.5"/>
<text text-anchor="middle" x="174.5" y="-539.5" font-family="Helvetica,sans-Serif" font-size="10.00">func_8006538C</text>
</a>
</g>
</g>
<!-- Node1&#45;&gt;Node2 -->
<g id="edge1" class="edge">
<title>Node1&#45;&gt;Node2</title>
<path fill="none" stroke="midnightblue" d="M47.41,-285.94C49.44,-322.44 61.22,-450.75 128,-523 129.2,-524.3 130.5,-525.51 131.88,-526.64"/>
<polygon fill="midnightblue" stroke="midnightblue" points="130.18,-529.71 140.46,-532.27 134.02,-523.86 130.18,-529.71"/>
</g>
<!-- Node10 -->
<g id="node10" class="node">
<title>Node10</title>
<g id="a_node10"><a xlink:href="code__80057C60_8h.html#ae6d61fa511ace7244ce69ae3878969a8" target="_top" xlink:title=" ">
<polygon fill="white" stroke="black" points="128.5,-76.5 128.5,-95.5 220.5,-95.5 220.5,-76.5 128.5,-76.5"/>
<text text-anchor="middle" x="174.5" y="-83.5" font-family="Helvetica,sans-Serif" font-size="10.00">func_80065AB0</text>
</a>
</g>
</g>
<!-- Node1&#45;&gt;Node10 -->
<g id="edge9" class="edge">
<title>Node1&#45;&gt;Node10</title>
<path fill="none" stroke="midnightblue" d="M48.98,-266.44C55.34,-237.99 77.86,-152.85 128,-105 129.49,-103.58 131.09,-102.26 132.79,-101.04"/>
<polygon fill="midnightblue" stroke="midnightblue" points="135.01,-103.78 141.8,-95.65 131.42,-97.78 135.01,-103.78"/>
</g>
<!-- Node11 -->
<g id="node11" class="node">
<title>Node11</title>
<g id="a_node11"><a xlink:href="code__80057C60_8h.html#a8e7a04fa4361253e93c09e6efcb3b8f6" target="_top" xlink:title=" ">
<polygon fill="white" stroke="black" points="128.5,-38.5 128.5,-57.5 220.5,-57.5 220.5,-38.5 128.5,-38.5"/>
<text text-anchor="middle" x="174.5" y="-45.5" font-family="Helvetica,sans-Serif" font-size="10.00">func_80065F0C</text>
</a>
</g>
</g>
<!-- Node1&#45;&gt;Node11 -->
<g id="edge10" class="edge">
<title>Node1&#45;&gt;Node11</title>
<path fill="none" stroke="midnightblue" d="M48.07,-266.25C52.16,-233.61 69.61,-126.92 128,-67 129.39,-65.57 130.9,-64.25 132.5,-63.02"/>
<polygon fill="midnightblue" stroke="midnightblue" points="134.47,-65.92 141.1,-57.65 130.76,-59.98 134.47,-65.92"/>
</g>
<!-- Node12 -->
<g id="node12" class="node">
<title>Node12</title>
<g id="a_node12"><a xlink:href="code__80057C60_8c.html#aaa5c1b26b9e47deef7ee3b02f895d577" target="_top" xlink:title=" ">
<polygon fill="white" stroke="black" points="129,-266.5 129,-285.5 220,-285.5 220,-266.5 129,-266.5"/>
<text text-anchor="middle" x="174.5" y="-273.5" font-family="Helvetica,sans-Serif" font-size="10.00">func_800664E0</text>
</a>
</g>
</g>
<!-- Node1&#45;&gt;Node12 -->
<g id="edge11" class="edge">
<title>Node1&#45;&gt;Node12</title>
<path fill="none" stroke="midnightblue" d="M92.31,-276C100.87,-276 109.91,-276 118.73,-276"/>
<polygon fill="midnightblue" stroke="midnightblue" points="118.93,-279.5 128.93,-276 118.93,-272.5 118.93,-279.5"/>
</g>
<!-- Node14 -->
<g id="node14" class="node">
<title>Node14</title>
<g id="a_node14"><a xlink:href="code__80057C60_8c.html#a19ba634514c0a2bb16bde5427c01d2d8" target="_top" xlink:title=" ">
<polygon fill="white" stroke="black" points="128,-418.5 128,-437.5 221,-437.5 221,-418.5 128,-418.5"/>
<text text-anchor="middle" x="174.5" y="-425.5" font-family="Helvetica,sans-Serif" font-size="10.00">func_80066BAC</text>
</a>
</g>
</g>
<!-- Node1&#45;&gt;Node14 -->
<g id="edge14" class="edge">
<title>Node1&#45;&gt;Node14</title>
<path fill="none" stroke="midnightblue" d="M50.49,-285.79C59.57,-309.94 86.16,-373.06 128,-409 129.93,-410.66 132.03,-412.19 134.23,-413.6"/>
<polygon fill="midnightblue" stroke="midnightblue" points="132.62,-416.71 143.07,-418.45 135.98,-410.57 132.62,-416.71"/>
</g>
<!-- Node15 -->
<g id="node15" class="node">
<title>Node15</title>
<g id="a_node15"><a xlink:href="code__80057C60_8c.html#a1fa1d8ee41b194f41dedb366ed49d502" target="_top" xlink:title=" ">
<polygon fill="white" stroke="black" points="129,-228.5 129,-247.5 220,-247.5 220,-228.5 129,-228.5"/>
<text text-anchor="middle" x="174.5" y="-235.5" font-family="Helvetica,sans-Serif" font-size="10.00">func_80067280</text>
</a>
</g>
</g>
<!-- Node1&#45;&gt;Node15 -->
<g id="edge18" class="edge">
<title>Node1&#45;&gt;Node15</title>
<path fill="none" stroke="midnightblue" d="M78.92,-266.41C94.95,-261.6 114.57,-255.7 131.78,-250.53"/>
<polygon fill="midnightblue" stroke="midnightblue" points="133.02,-253.81 141.59,-247.59 131,-247.11 133.02,-253.81"/>
</g>
<!-- Node16 -->
<g id="node16" class="node">
<title>Node16</title>
<g id="a_node16"><a xlink:href="code__80057C60_8c.html#af56b49fbde2d80cd1b82697133fce3b5" target="_top" xlink:title=" ">
<polygon fill="white" stroke="black" points="129,-494.5 129,-513.5 220,-513.5 220,-494.5 129,-494.5"/>
<text text-anchor="middle" x="174.5" y="-501.5" font-family="Helvetica,sans-Serif" font-size="10.00">func_80067604</text>
</a>
</g>
</g>
<!-- Node1&#45;&gt;Node16 -->
<g id="edge21" class="edge">
<title>Node1&#45;&gt;Node16</title>
<path fill="none" stroke="midnightblue" d="M48.07,-285.75C52.16,-318.39 69.61,-425.08 128,-485 129.39,-486.43 130.9,-487.75 132.5,-488.98"/>
<polygon fill="midnightblue" stroke="midnightblue" points="130.76,-492.02 141.1,-494.35 134.47,-486.08 130.76,-492.02"/>
</g>
<!-- Node17 -->
<g id="node17" class="node">
<title>Node17</title>
<g id="a_node17"><a xlink:href="code__80057C60_8c.html#a1a21ddc01c4dacb94f25c908e4ada7ce" target="_top" xlink:title=" ">
<polygon fill="white" stroke="black" points="128.5,-190.5 128.5,-209.5 220.5,-209.5 220.5,-190.5 128.5,-190.5"/>
<text text-anchor="middle" x="174.5" y="-197.5" font-family="Helvetica,sans-Serif" font-size="10.00">func_800691B8</text>
</a>
</g>
</g>
<!-- Node1&#45;&gt;Node17 -->
<g id="edge24" class="edge">
<title>Node1&#45;&gt;Node17</title>
<path fill="none" stroke="midnightblue" d="M58.81,-266.44C74.12,-254.35 101.96,-233.38 128,-219 131.26,-217.2 134.74,-215.46 138.25,-213.81"/>
<polygon fill="midnightblue" stroke="midnightblue" points="139.81,-216.95 147.53,-209.7 136.97,-210.55 139.81,-216.95"/>
</g>
<!-- Node18 -->
<g id="node18" class="node">
<title>Node18</title>
<g id="a_node18"><a xlink:href="code__80057C60_8c.html#a5005e5619e7fe9e22c0517931f5e9288" target="_top" xlink:title=" ">
<polygon fill="white" stroke="black" points="129,-456.5 129,-475.5 220,-475.5 220,-456.5 129,-456.5"/>
<text text-anchor="middle" x="174.5" y="-463.5" font-family="Helvetica,sans-Serif" font-size="10.00">func_80069444</text>
</a>
</g>
</g>
<!-- Node1&#45;&gt;Node18 -->
<g id="edge27" class="edge">
<title>Node1&#45;&gt;Node18</title>
<path fill="none" stroke="midnightblue" d="M48.98,-285.56C55.34,-314.01 77.86,-399.15 128,-447 129.49,-448.42 131.09,-449.74 132.79,-450.96"/>
<polygon fill="midnightblue" stroke="midnightblue" points="131.42,-454.22 141.8,-456.35 135.01,-448.22 131.42,-454.22"/>
</g>
<!-- Node19 -->
<g id="node19" class="node">
<title>Node19</title>
<g id="a_node19"><a xlink:href="code__80057C60_8c.html#a6a3382868747ec8a868774731aa9d6f5" target="_top" xlink:title=" ">
<polygon fill="white" stroke="black" points="128.5,-152.5 128.5,-171.5 220.5,-171.5 220.5,-152.5 128.5,-152.5"/>
<text text-anchor="middle" x="174.5" y="-159.5" font-family="Helvetica,sans-Serif" font-size="10.00">func_800696CC</text>
</a>
</g>
</g>
<!-- Node1&#45;&gt;Node19 -->
<g id="edge30" class="edge">
<title>Node1&#45;&gt;Node19</title>
<path fill="none" stroke="midnightblue" d="M52.97,-266.34C65.03,-247.56 94.03,-205.78 128,-181 130.33,-179.3 132.84,-177.71 135.44,-176.25"/>
<polygon fill="midnightblue" stroke="midnightblue" points="137.12,-179.32 144.49,-171.71 133.98,-173.06 137.12,-179.32"/>
</g>
<!-- Node20 -->
<g id="node20" class="node">
<title>Node20</title>
<g id="a_node20"><a xlink:href="code__80057C60_8c.html#a5f80cd8115b361eace3a55877407699e" target="_top" xlink:title=" ">
<polygon fill="white" stroke="black" points="129,-114.5 129,-133.5 220,-133.5 220,-114.5 129,-114.5"/>
<text text-anchor="middle" x="174.5" y="-121.5" font-family="Helvetica,sans-Serif" font-size="10.00">func_80069938</text>
</a>
</g>
</g>
<!-- Node1&#45;&gt;Node20 -->
<g id="edge33" class="edge">
<title>Node1&#45;&gt;Node20</title>
<path fill="none" stroke="midnightblue" d="M50.49,-266.21C59.57,-242.06 86.16,-178.94 128,-143 129.93,-141.34 132.03,-139.81 134.23,-138.4"/>
<polygon fill="midnightblue" stroke="midnightblue" points="135.98,-141.43 143.07,-133.55 132.62,-135.29 135.98,-141.43"/>
</g>
<!-- Node21 -->
<g id="node21" class="node">
<title>Node21</title>
<g id="a_node21"><a xlink:href="code__80057C60_8c.html#abfd7a5788f8641593929df990194847d" target="_top" xlink:title=" ">
<polygon fill="white" stroke="black" points="128.5,-380.5 128.5,-399.5 220.5,-399.5 220.5,-380.5 128.5,-380.5"/>
<text text-anchor="middle" x="174.5" y="-387.5" font-family="Helvetica,sans-Serif" font-size="10.00">func_80069BA8</text>
</a>
</g>
</g>
<!-- Node1&#45;&gt;Node21 -->
<g id="edge36" class="edge">
<title>Node1&#45;&gt;Node21</title>
<path fill="none" stroke="midnightblue" d="M52.97,-285.66C65.03,-304.44 94.03,-346.22 128,-371 130.33,-372.7 132.84,-374.29 135.44,-375.75"/>
<polygon fill="midnightblue" stroke="midnightblue" points="133.98,-378.94 144.49,-380.29 137.12,-372.68 133.98,-378.94"/>
</g>
<!-- Node22 -->
<g id="node22" class="node">
<title>Node22</title>
<g id="a_node22"><a xlink:href="code__80057C60_8c.html#a057def5d91705b066e1d5f9156bb5460" target="_top" xlink:title=" ">
<polygon fill="white" stroke="black" points="128,-342.5 128,-361.5 221,-361.5 221,-342.5 128,-342.5"/>
<text text-anchor="middle" x="174.5" y="-349.5" font-family="Helvetica,sans-Serif" font-size="10.00">func_80069DB8</text>
</a>
</g>
</g>
<!-- Node1&#45;&gt;Node22 -->
<g id="edge39" class="edge">
<title>Node1&#45;&gt;Node22</title>
<path fill="none" stroke="midnightblue" d="M58.81,-285.56C74.12,-297.65 101.96,-318.62 128,-333 131.26,-334.8 134.74,-336.54 138.25,-338.19"/>
<polygon fill="midnightblue" stroke="midnightblue" points="136.97,-341.45 147.53,-342.3 139.81,-335.05 136.97,-341.45"/>
</g>
<!-- Node23 -->
<g id="node23" class="node">
<title>Node23</title>
<g id="a_node23"><a xlink:href="code__80057C60_8c.html#ac355685bf4102dd936af73a7ba37b454" target="_top" xlink:title=" ">
<polygon fill="white" stroke="black" points="128.5,-304.5 128.5,-323.5 220.5,-323.5 220.5,-304.5 128.5,-304.5"/>
<text text-anchor="middle" x="174.5" y="-311.5" font-family="Helvetica,sans-Serif" font-size="10.00">func_8006A01C</text>
</a>
</g>
</g>
<!-- Node1&#45;&gt;Node23 -->
<g id="edge42" class="edge">
<title>Node1&#45;&gt;Node23</title>
<path fill="none" stroke="midnightblue" d="M78.92,-285.59C94.95,-290.4 114.57,-296.3 131.78,-301.47"/>
<polygon fill="midnightblue" stroke="midnightblue" points="131,-304.89 141.59,-304.41 133.02,-298.19 131,-304.89"/>
</g>
<!-- Node24 -->
<g id="node24" class="node">
<title>Node24</title>
<g id="a_node24"><a xlink:href="code__80057C60_8c.html#a7ebe9a0a9083618fcced87cbbde5ef49" target="_top" xlink:title=" ">
<polygon fill="white" stroke="black" points="128.5,-0.5 128.5,-19.5 220.5,-19.5 220.5,-0.5 128.5,-0.5"/>
<text text-anchor="middle" x="174.5" y="-7.5" font-family="Helvetica,sans-Serif" font-size="10.00">func_8006BA94</text>
</a>
</g>
</g>
<!-- Node1&#45;&gt;Node24 -->
<g id="edge45" class="edge">
<title>Node1&#45;&gt;Node24</title>
<path fill="none" stroke="midnightblue" d="M47.41,-266.06C49.44,-229.56 61.22,-101.25 128,-29 129.2,-27.7 130.5,-26.49 131.88,-25.36"/>
<polygon fill="midnightblue" stroke="midnightblue" points="134.02,-28.14 140.46,-19.73 130.18,-22.29 134.02,-28.14"/>
</g>
<!-- Node3 -->
<g id="node3" class="node">
<title>Node3</title>
<g id="a_node3"><a xlink:href="hud__renderer_8c.html#a96e9d0f1c39751cc18e6a5adfbe393bf" target="_top" xlink:title=" ">
<polygon fill="white" stroke="black" points="257.5,-494.5 257.5,-513.5 349.5,-513.5 349.5,-494.5 257.5,-494.5"/>
<text text-anchor="middle" x="303.5" y="-501.5" font-family="Helvetica,sans-Serif" font-size="10.00">func_8004B72C</text>
</a>
</g>
</g>
<!-- Node2&#45;&gt;Node3 -->
<g id="edge2" class="edge">
<title>Node2&#45;&gt;Node3</title>
<path fill="none" stroke="midnightblue" d="M207.55,-532.41C223.64,-527.6 243.34,-521.7 260.62,-516.53"/>
<polygon fill="midnightblue" stroke="midnightblue" points="261.89,-519.81 270.46,-513.59 259.88,-513.1 261.89,-519.81"/>
</g>
<!-- Node4 -->
<g id="node4" class="node">
<title>Node4</title>
<g id="a_node4"><a xlink:href="code__80057C60_8c.html#afe48d8fb3ea987ea8782c445f30eb8c3" target="_top" xlink:title=" ">
<polygon fill="white" stroke="black" points="257.5,-320.5 257.5,-339.5 349.5,-339.5 349.5,-320.5 257.5,-320.5"/>
<text text-anchor="middle" x="303.5" y="-327.5" font-family="Helvetica,sans-Serif" font-size="10.00">func_800652D4</text>
</a>
</g>
</g>
<!-- Node2&#45;&gt;Node4 -->
<g id="edge3" class="edge">
<title>Node2&#45;&gt;Node4</title>
<path fill="none" stroke="midnightblue" d="M207.34,-532.49C212.33,-529.99 217.12,-526.87 221,-523 270.96,-473.24 291.99,-388.16 299.26,-349.8"/>
<polygon fill="midnightblue" stroke="midnightblue" points="302.71,-350.34 301.02,-339.88 295.82,-349.11 302.71,-350.34"/>
</g>
<!-- Node5 -->
<g id="node5" class="node">
<title>Node5</title>
<g id="a_node5"><a xlink:href="code__8001F980_8c.html#af0bbe78d8dc64400663d3702812f9ad8" target="_top" xlink:title=" ">
<polygon fill="white" stroke="black" points="386,-315 386,-345 513,-345 513,-315 386,-315"/>
<text text-anchor="start" x="394" y="-333" font-family="Helvetica,sans-Serif" font-size="10.00">convert_to_fixed_point</text>
<text text-anchor="middle" x="449.5" y="-322" font-family="Helvetica,sans-Serif" font-size="10.00">_matrix</text>
</a>
</g>
</g>
<!-- Node4&#45;&gt;Node5 -->
<g id="edge4" class="edge">
<title>Node4&#45;&gt;Node5</title>
<path fill="none" stroke="midnightblue" d="M349.67,-330C358,-330 366.89,-330 375.79,-330"/>
<polygon fill="midnightblue" stroke="midnightblue" points="375.82,-333.5 385.82,-330 375.82,-326.5 375.82,-333.5"/>
</g>
<!-- Node6 -->
<g id="node6" class="node">
<title>Node6</title>
<g id="a_node6"><a xlink:href="code__8001F980_8c.html#af0b657a736763c8b33412ed9d3111a61" target="_top" xlink:title=" ">
<polygon fill="white" stroke="black" points="411,-276.5 411,-295.5 488,-295.5 488,-276.5 411,-276.5"/>
<text text-anchor="middle" x="449.5" y="-283.5" font-family="Helvetica,sans-Serif" font-size="10.00">mtxf_scale2</text>
</a>
</g>
</g>
<!-- Node4&#45;&gt;Node6 -->
<g id="edge5" class="edge">
<title>Node4&#45;&gt;Node6</title>
<path fill="none" stroke="midnightblue" d="M335.75,-320.45C356.79,-314.02 384.75,-305.48 407.56,-298.51"/>
<polygon fill="midnightblue" stroke="midnightblue" points="408.77,-301.8 417.32,-295.53 406.73,-295.1 408.77,-301.8"/>
</g>
<!-- Node7 -->
<g id="node7" class="node">
<title>Node7</title>
<g id="a_node7"><a xlink:href="code__8001F980_8c.html#a565e21fd6aa0dacea58fb8a0e4304772" target="_top" xlink:title=" ">
<polygon fill="white" stroke="black" points="388,-364.5 388,-383.5 511,-383.5 511,-364.5 388,-364.5"/>
<text text-anchor="middle" x="449.5" y="-371.5" font-family="Helvetica,sans-Serif" font-size="10.00">mtxf_translate_rotate</text>
</a>
</g>
</g>
<!-- Node4&#45;&gt;Node7 -->
<g id="edge6" class="edge">
<title>Node4&#45;&gt;Node7</title>
<path fill="none" stroke="midnightblue" d="M335.45,-339.52C350.68,-344.19 369.3,-349.9 386,-355 392.78,-357.07 399.97,-359.26 406.97,-361.39"/>
<polygon fill="midnightblue" stroke="midnightblue" points="406.43,-364.89 417.02,-364.45 408.47,-358.19 406.43,-364.89"/>
</g>
<!-- Node8 -->
<g id="node8" class="node">
<title>Node8</title>
<g id="a_node8"><a xlink:href="math__util_8c.html#ae69cbf5c8d4b3b0dba2d7b4d4673689f" target="_top" xlink:title=" ">
<polygon fill="white" stroke="black" points="549,-430.5 549,-449.5 587,-449.5 587,-430.5 549,-430.5"/>
<text text-anchor="middle" x="568" y="-437.5" font-family="Helvetica,sans-Serif" font-size="10.00">coss</text>
</a>
</g>
</g>
<!-- Node7&#45;&gt;Node8 -->
<g id="edge7" class="edge">
<title>Node7&#45;&gt;Node8</title>
<path fill="none" stroke="midnightblue" d="M467.69,-383.74C487.07,-394.72 518.8,-412.69 541.17,-425.37"/>
<polygon fill="midnightblue" stroke="midnightblue" points="539.69,-428.55 550.12,-430.44 543.14,-422.46 539.69,-428.55"/>
</g>
<!-- Node9 -->
<g id="node9" class="node">
<title>Node9</title>
<g id="a_node9"><a xlink:href="math__util_8c.html#a19ed3bd78fd2d3e2bd0a29f6caf48545" target="_top" xlink:title=" ">
<polygon fill="white" stroke="black" points="550,-383.5 550,-402.5 586,-402.5 586,-383.5 550,-383.5"/>
<text text-anchor="middle" x="568" y="-390.5" font-family="Helvetica,sans-Serif" font-size="10.00">sins</text>
</a>
</g>
</g>
<!-- Node7&#45;&gt;Node9 -->
<g id="edge8" class="edge">
<title>Node7&#45;&gt;Node9</title>
<path fill="none" stroke="midnightblue" d="M509.09,-383.56C519.84,-385.31 530.58,-387.06 539.83,-388.57"/>
<polygon fill="midnightblue" stroke="midnightblue" points="539.5,-392.06 549.93,-390.22 540.63,-385.15 539.5,-392.06"/>
</g>
<!-- Node12&#45;&gt;Node4 -->
<g id="edge13" class="edge">
<title>Node12&#45;&gt;Node4</title>
<path fill="none" stroke="midnightblue" d="M198.67,-285.62C205.83,-288.61 213.75,-291.93 221,-295 237.52,-302 255.88,-309.87 270.98,-316.38"/>
<polygon fill="midnightblue" stroke="midnightblue" points="269.82,-319.69 280.39,-320.43 272.59,-313.26 269.82,-319.69"/>
</g>
<!-- Node13 -->
<g id="node13" class="node">
<title>Node13</title>
<g id="a_node13"><a xlink:href="hud__renderer_8c.html#a42d051e0c41afb54803bffd1a3a19e91" target="_top" xlink:title=" ">
<polygon fill="white" stroke="black" points="257.5,-247.5 257.5,-266.5 349.5,-266.5 349.5,-247.5 257.5,-247.5"/>
<text text-anchor="middle" x="303.5" y="-254.5" font-family="Helvetica,sans-Serif" font-size="10.00">func_8004B35C</text>
</a>
</g>
</g>
<!-- Node12&#45;&gt;Node13 -->
<g id="edge12" class="edge">
<title>Node12&#45;&gt;Node13</title>
<path fill="none" stroke="midnightblue" d="M220.28,-269.3C228.99,-268 238.23,-266.62 247.24,-265.27"/>
<polygon fill="midnightblue" stroke="midnightblue" points="247.9,-268.71 257.27,-263.77 246.86,-261.78 247.9,-268.71"/>
</g>
<!-- Node14&#45;&gt;Node4 -->
<g id="edge16" class="edge">
<title>Node14&#45;&gt;Node4</title>
<path fill="none" stroke="midnightblue" d="M203.29,-418.34C209.35,-415.71 215.57,-412.58 221,-409 247.44,-391.57 272.8,-364.9 288.02,-347.45"/>
<polygon fill="midnightblue" stroke="midnightblue" points="290.8,-349.58 294.64,-339.7 285.48,-345.03 290.8,-349.58"/>
</g>
<!-- Node14&#45;&gt;Node8 -->
<g id="edge15" class="edge">
<title>Node14&#45;&gt;Node8</title>
<path fill="none" stroke="midnightblue" d="M221.18,-429.4C302.76,-431.9 471.27,-437.07 538.45,-439.12"/>
<polygon fill="midnightblue" stroke="midnightblue" points="538.59,-442.63 548.69,-439.44 538.8,-435.63 538.59,-442.63"/>
</g>
<!-- Node14&#45;&gt;Node9 -->
<g id="edge17" class="edge">
<title>Node14&#45;&gt;Node9</title>
<path fill="none" stroke="midnightblue" d="M221.18,-423.92C303.34,-416.57 473.65,-401.35 539.85,-395.43"/>
<polygon fill="midnightblue" stroke="midnightblue" points="540.26,-398.9 549.9,-394.53 539.63,-391.93 540.26,-398.9"/>
</g>
<!-- Node15&#45;&gt;Node4 -->
<g id="edge20" class="edge">
<title>Node15&#45;&gt;Node4</title>
<path fill="none" stroke="midnightblue" d="M202.71,-247.61C208.92,-250.28 215.35,-253.44 221,-257 246.17,-272.89 271.06,-296.67 286.58,-312.74"/>
<polygon fill="midnightblue" stroke="midnightblue" points="284.38,-315.5 293.8,-320.35 289.46,-310.69 284.38,-315.5"/>
</g>
<!-- Node15&#45;&gt;Node13 -->
<g id="edge19" class="edge">
<title>Node15&#45;&gt;Node13</title>
<path fill="none" stroke="midnightblue" d="M220.28,-244.7C228.99,-246 238.23,-247.38 247.24,-248.73"/>
<polygon fill="midnightblue" stroke="midnightblue" points="246.86,-252.22 257.27,-250.23 247.9,-245.29 246.86,-252.22"/>
</g>
<!-- Node16&#45;&gt;Node3 -->
<g id="edge22" class="edge">
<title>Node16&#45;&gt;Node3</title>
<path fill="none" stroke="midnightblue" d="M220.28,-504C228.99,-504 238.23,-504 247.24,-504"/>
<polygon fill="midnightblue" stroke="midnightblue" points="247.27,-507.5 257.27,-504 247.27,-500.5 247.27,-507.5"/>
</g>
<!-- Node16&#45;&gt;Node4 -->
<g id="edge23" class="edge">
<title>Node16&#45;&gt;Node4</title>
<path fill="none" stroke="midnightblue" d="M206.6,-494.44C211.79,-491.92 216.83,-488.81 221,-485 262.91,-446.64 287.06,-381.69 297.05,-349.41"/>
<polygon fill="midnightblue" stroke="midnightblue" points="300.41,-350.38 299.9,-339.8 293.7,-348.39 300.41,-350.38"/>
</g>
<!-- Node17&#45;&gt;Node4 -->
<g id="edge26" class="edge">
<title>Node17&#45;&gt;Node4</title>
<path fill="none" stroke="midnightblue" d="M205.88,-209.61C211.26,-212.14 216.55,-215.24 221,-219 243.89,-238.34 239.31,-251.82 257,-276 266.37,-288.8 277.89,-302.46 287,-312.84"/>
<polygon fill="midnightblue" stroke="midnightblue" points="284.44,-315.22 293.69,-320.38 289.67,-310.58 284.44,-315.22"/>
</g>
<!-- Node17&#45;&gt;Node13 -->
<g id="edge25" class="edge">
<title>Node17&#45;&gt;Node13</title>
<path fill="none" stroke="midnightblue" d="M199.19,-209.68C206.24,-212.61 213.95,-215.89 221,-219 238.5,-226.73 257.93,-235.77 273.42,-243.09"/>
<polygon fill="midnightblue" stroke="midnightblue" points="271.97,-246.28 282.51,-247.4 274.97,-239.95 271.97,-246.28"/>
</g>
<!-- Node18&#45;&gt;Node3 -->
<g id="edge28" class="edge">
<title>Node18&#45;&gt;Node3</title>
<path fill="none" stroke="midnightblue" d="M207.55,-475.59C223.64,-480.4 243.34,-486.3 260.62,-491.47"/>
<polygon fill="midnightblue" stroke="midnightblue" points="259.88,-494.9 270.46,-494.41 261.89,-488.19 259.88,-494.9"/>
</g>
<!-- Node18&#45;&gt;Node4 -->
<g id="edge29" class="edge">
<title>Node18&#45;&gt;Node4</title>
<path fill="none" stroke="midnightblue" d="M205.27,-456.44C210.82,-453.89 216.34,-450.76 221,-447 255.03,-419.54 280.91,-374.26 293.67,-348.83"/>
<polygon fill="midnightblue" stroke="midnightblue" points="296.96,-350.08 298.19,-339.55 290.67,-347.01 296.96,-350.08"/>
</g>
<!-- Node19&#45;&gt;Node4 -->
<g id="edge32" class="edge">
<title>Node19&#45;&gt;Node4</title>
<path fill="none" stroke="midnightblue" d="M207.93,-171.62C212.74,-174.1 217.31,-177.19 221,-181 252.39,-213.46 234.13,-237.07 257,-276 264.94,-289.51 276.29,-302.99 285.67,-313.11"/>
<polygon fill="midnightblue" stroke="midnightblue" points="283.23,-315.62 292.67,-320.43 288.29,-310.78 283.23,-315.62"/>
</g>
<!-- Node19&#45;&gt;Node13 -->
<g id="edge31" class="edge">
<title>Node19&#45;&gt;Node13</title>
<path fill="none" stroke="midnightblue" d="M202.76,-171.53C208.97,-174.2 215.39,-177.38 221,-181 246.98,-197.77 272.29,-223.23 287.64,-239.98"/>
<polygon fill="midnightblue" stroke="midnightblue" points="285.05,-242.34 294.33,-247.44 290.26,-237.66 285.05,-242.34"/>
</g>
<!-- Node20&#45;&gt;Node4 -->
<g id="edge35" class="edge">
<title>Node20&#45;&gt;Node4</title>
<path fill="none" stroke="midnightblue" d="M208.72,-133.57C213.32,-136.04 217.61,-139.14 221,-143 261.37,-189.05 228.6,-221.75 257,-276 264.18,-289.71 275.34,-303.03 284.82,-313.01"/>
<polygon fill="midnightblue" stroke="midnightblue" points="282.43,-315.58 291.94,-320.25 287.42,-310.67 282.43,-315.58"/>
</g>
<!-- Node20&#45;&gt;Node13 -->
<g id="edge34" class="edge">
<title>Node20&#45;&gt;Node13</title>
<path fill="none" stroke="midnightblue" d="M205.23,-133.6C210.79,-136.15 216.31,-139.27 221,-143 254.45,-169.65 280.39,-213.45 293.36,-238.29"/>
<polygon fill="midnightblue" stroke="midnightblue" points="290.32,-240.04 297.97,-247.37 296.57,-236.87 290.32,-240.04"/>
</g>
<!-- Node21&#45;&gt;Node4 -->
<g id="edge38" class="edge">
<title>Node21&#45;&gt;Node4</title>
<path fill="none" stroke="midnightblue" d="M199.25,-380.45C206.3,-377.52 214,-374.22 221,-371 239.23,-362.62 259.38,-352.49 275.09,-344.4"/>
<polygon fill="midnightblue" stroke="midnightblue" points="276.96,-347.37 284.23,-339.66 273.74,-341.15 276.96,-347.37"/>
</g>
<!-- Node21&#45;&gt;Node13 -->
<g id="edge37" class="edge">
<title>Node21&#45;&gt;Node13</title>
<path fill="none" stroke="midnightblue" d="M205.95,-380.47C211.32,-377.93 216.6,-374.81 221,-371 244.52,-350.66 238.92,-336.3 257,-311 266.22,-298.09 277.75,-284.43 286.89,-274.09"/>
<polygon fill="midnightblue" stroke="midnightblue" points="289.56,-276.35 293.62,-266.57 284.34,-271.68 289.56,-276.35"/>
</g>
<!-- Node22&#45;&gt;Node4 -->
<g id="edge41" class="edge">
<title>Node22&#45;&gt;Node4</title>
<path fill="none" stroke="midnightblue" d="M221.35,-344.06C229.72,-342.61 238.54,-341.08 247.16,-339.59"/>
<polygon fill="midnightblue" stroke="midnightblue" points="247.89,-343.01 257.14,-337.86 246.69,-336.12 247.89,-343.01"/>
</g>
<!-- Node22&#45;&gt;Node13 -->
<g id="edge40" class="edge">
<title>Node22&#45;&gt;Node13</title>
<path fill="none" stroke="midnightblue" d="M202.76,-342.47C208.97,-339.8 215.39,-336.62 221,-333 246.98,-316.23 272.29,-290.77 287.64,-274.02"/>
<polygon fill="midnightblue" stroke="midnightblue" points="290.26,-276.34 294.33,-266.56 285.05,-271.66 290.26,-276.34"/>
</g>
<!-- Node23&#45;&gt;Node4 -->
<g id="edge44" class="edge">
<title>Node23&#45;&gt;Node4</title>
<path fill="none" stroke="midnightblue" d="M220.63,-319.69C229.14,-320.76 238.13,-321.89 246.91,-323"/>
<polygon fill="midnightblue" stroke="midnightblue" points="246.73,-326.5 257.08,-324.28 247.6,-319.56 246.73,-326.5"/>
</g>
<!-- Node23&#45;&gt;Node13 -->
<g id="edge43" class="edge">
<title>Node23&#45;&gt;Node13</title>
<path fill="none" stroke="midnightblue" d="M199.19,-304.32C206.24,-301.39 213.95,-298.11 221,-295 238.5,-287.27 257.93,-278.23 273.42,-270.91"/>
<polygon fill="midnightblue" stroke="midnightblue" points="274.97,-274.05 282.51,-266.6 271.97,-267.72 274.97,-274.05"/>
</g>
<!-- Node25 -->
<g id="node25" class="node">
<title>Node25</title>
<g id="a_node25"><a xlink:href="code__80057C60_8h.html#acd1cb3fd9bff6e213ba2a7cd09c66013" target="_top" xlink:title=" ">
<polygon fill="white" stroke="black" points="257,-0.5 257,-19.5 350,-19.5 350,-0.5 257,-0.5"/>
<text text-anchor="middle" x="303.5" y="-7.5" font-family="Helvetica,sans-Serif" font-size="10.00">func_8006AFD0</text>
</a>
</g>
</g>
<!-- Node24&#45;&gt;Node25 -->
<g id="edge46" class="edge">
<title>Node24&#45;&gt;Node25</title>
<path fill="none" stroke="midnightblue" d="M220.63,-10C229.04,-10 237.91,-10 246.59,-10"/>
<polygon fill="midnightblue" stroke="midnightblue" points="246.66,-13.5 256.66,-10 246.66,-6.5 246.66,-13.5"/>
</g>
</g>
</svg>
