<?xml version="1.0" encoding="UTF-8" standalone="no"?>
<!DOCTYPE svg PUBLIC "-//W3C//DTD SVG 1.1//EN"
 "http://www.w3.org/Graphics/SVG/1.1/DTD/svg11.dtd">
<!-- Generated by graphviz version 2.43.0 (0)
 -->
<!-- Title: func_8006D194 Pages: 1 -->
<svg width="229pt" height="434pt"
 viewBox="0.00 0.00 229.00 434.00" xmlns="http://www.w3.org/2000/svg" xmlns:xlink="http://www.w3.org/1999/xlink">

<svg id="main" version="1.1" xmlns="http://www.w3.org/2000/svg" xmlns:xlink="http://www.w3.org/1999/xlink" xml:space="preserve" onload="init(evt)">
<style type="text/css"><![CDATA[
.node, .edge {opacity: 0.7;}
.node.selected, .edge.selected {opacity: 1;}
.edge:hover path { stroke: red; }
.edge:hover polygon { stroke: red; fill: red; }
]]></style>
<script type="application/ecmascript" xlink:href="svg.min.js"/>
<svg id="graph" class="graph">
<g id="graph0" class="graph" transform="scale(1 1) rotate(0) translate(4 430)">
<title>func_8006D194</title>
<!-- Node1 -->
<g id="Node000001" class="node">
<title>Node1</title>
<g id="a_Node000001"><a xlink:title=" ">
<polygon fill="#999999" stroke="#666666" points="92,-222 0,-222 0,-203 92,-203 92,-222"/>
<text text-anchor="middle" x="46" y="-210" font-family="Helvetica,sans-Serif" font-size="10.00">func_8006D194</text>
</a>
</g>
</g>
<!-- Node2 -->
<g id="Node000002" class="node">
<title>Node2</title>
<g id="a_Node000002"><a xlink:href="code__80057C60_8c.html#a6357079a9b305afb133f79217aa5e0ff" target="_top" xlink:title=" ">
<polygon fill="white" stroke="#666666" points="220.5,-426 128.5,-426 128.5,-407 220.5,-407 220.5,-426"/>
<text text-anchor="middle" x="174.5" y="-414" font-family="Helvetica,sans-Serif" font-size="10.00">func_800628C0</text>
</a>
</g>
</g>
<!-- Node1&#45;&gt;Node2 -->
<g id="edge1_Node000001_Node000002" class="edge">
<title>Node1&#45;&gt;Node2</title>
<g id="a_edge1_Node000001_Node000002"><a xlink:title=" ">
<path fill="none" stroke="#63b8ff" d="M48.52,-222.07C53.8,-252.22 74.06,-346.36 128,-398.5 129.11,-399.57 130.29,-400.58 131.52,-401.53"/>
<polygon fill="#63b8ff" stroke="#63b8ff" points="129.97,-404.69 140.31,-407 133.67,-398.74 129.97,-404.69"/>
</a>
</g>
</g>
<!-- Node3 -->
<g id="Node000003" class="node">
<title>Node3</title>
<g id="a_Node000003"><a xlink:href="code__80057C60_8c.html#a7c0b1cd05a8918e8b486d6f70d5c280b" target="_top" xlink:title=" ">
<polygon fill="white" stroke="#666666" points="220,-389 129,-389 129,-370 220,-370 220,-389"/>
<text text-anchor="middle" x="174.5" y="-377" font-family="Helvetica,sans-Serif" font-size="10.00">func_80062914</text>
</a>
</g>
</g>
<!-- Node1&#45;&gt;Node3 -->
<g id="edge2_Node000001_Node000003" class="edge">
<title>Node1&#45;&gt;Node3</title>
<g id="a_edge2_Node000001_Node000003"><a xlink:title=" ">
<path fill="none" stroke="#63b8ff" d="M49.75,-222.35C57.57,-248.61 82.37,-321.09 128,-361.5 129.31,-362.66 130.71,-363.75 132.16,-364.78"/>
<polygon fill="#63b8ff" stroke="#63b8ff" points="130.63,-367.94 141.04,-369.95 134.16,-361.89 130.63,-367.94"/>
</a>
</g>
</g>
<!-- Node4 -->
<g id="Node000004" class="node">
<title>Node4</title>
<g id="a_Node000004"><a xlink:href="code__80057C60_8c.html#a3bf56afdcdc6b600b38c0a935a63af25" target="_top" xlink:title=" ">
<polygon fill="white" stroke="#666666" points="220,-352 129,-352 129,-333 220,-333 220,-352"/>
<text text-anchor="middle" x="174.5" y="-340" font-family="Helvetica,sans-Serif" font-size="10.00">func_80062968</text>
</a>
</g>
</g>
<!-- Node1&#45;&gt;Node4 -->
<g id="edge3_Node000001_Node000004" class="edge">
<title>Node1&#45;&gt;Node4</title>
<g id="a_edge3_Node000001_Node000004"><a xlink:title=" ">
<path fill="none" stroke="#63b8ff" d="M51.49,-222.01C61.98,-243.26 90.11,-295.05 128,-324.5 129.61,-325.75 131.32,-326.93 133.09,-328.03"/>
<polygon fill="#63b8ff" stroke="#63b8ff" points="131.88,-331.35 142.35,-332.94 135.16,-325.16 131.88,-331.35"/>
</a>
</g>
</g>
<!-- Node5 -->
<g id="Node000005" class="node">
<title>Node5</title>
<g id="a_Node000005"><a xlink:href="code__80057C60_8c.html#a5b410004f5674ddb18b1975e50cb2cdf" target="_top" xlink:title=" ">
<polygon fill="white" stroke="#666666" points="220.5,-315 128.5,-315 128.5,-296 220.5,-296 220.5,-315"/>
<text text-anchor="middle" x="174.5" y="-303" font-family="Helvetica,sans-Serif" font-size="10.00">func_800629BC</text>
</a>
</g>
</g>
<!-- Node1&#45;&gt;Node5 -->
<g id="edge4_Node000001_Node000005" class="edge">
<title>Node1&#45;&gt;Node5</title>
<g id="a_edge4_Node000001_Node000005"><a xlink:title=" ">
<path fill="none" stroke="#63b8ff" d="M55.54,-222.5C69.37,-238.19 98.16,-268.71 128,-287.5 130.28,-288.94 132.69,-290.29 135.17,-291.57"/>
<polygon fill="#63b8ff" stroke="#63b8ff" points="133.77,-294.77 144.32,-295.82 136.72,-288.43 133.77,-294.77"/>
</a>
</g>
</g>
<!-- Node6 -->
<g id="Node000006" class="node">
<title>Node6</title>
<g id="a_Node000006"><a xlink:href="code__80057C60_8c.html#a9ce830bafd34b02354a89d9de679c6bc" target="_top" xlink:title=" ">
<polygon fill="white" stroke="#666666" points="220.5,-278 128.5,-278 128.5,-259 220.5,-259 220.5,-278"/>
<text text-anchor="middle" x="174.5" y="-266" font-family="Helvetica,sans-Serif" font-size="10.00">func_80062A18</text>
</a>
</g>
</g>
<!-- Node1&#45;&gt;Node6 -->
<g id="edge5_Node000001_Node000006" class="edge">
<title>Node1&#45;&gt;Node6</title>
<g id="a_edge5_Node000001_Node000006"><a xlink:title=" ">
<path fill="none" stroke="#63b8ff" d="M66.49,-222.06C82.8,-229.96 106.75,-241.32 128,-250.5 131.48,-252 135.13,-253.53 138.78,-255.02"/>
<polygon fill="#63b8ff" stroke="#63b8ff" points="137.77,-258.39 148.35,-258.87 140.38,-251.89 137.77,-258.39"/>
</a>
</g>
</g>
<!-- Node7 -->
<g id="Node000007" class="node">
<title>Node7</title>
<g id="a_Node000007"><a xlink:href="code__80057C60_8c.html#ae2db368fe2d03450a267a275b493bf39" target="_top" xlink:title=" ">
<polygon fill="white" stroke="#666666" points="220.5,-241 128.5,-241 128.5,-222 220.5,-222 220.5,-241"/>
<text text-anchor="middle" x="174.5" y="-229" font-family="Helvetica,sans-Serif" font-size="10.00">func_80062AA8</text>
</a>
</g>
</g>
<!-- Node1&#45;&gt;Node7 -->
<g id="edge6_Node000001_Node000007" class="edge">
<title>Node1&#45;&gt;Node7</title>
<g id="a_edge6_Node000001_Node000007"><a xlink:title=" ">
<path fill="none" stroke="#63b8ff" d="M92.31,-219.31C100.67,-220.56 109.48,-221.88 118.1,-223.18"/>
<polygon fill="#63b8ff" stroke="#63b8ff" points="117.67,-226.65 128.08,-224.68 118.71,-219.73 117.67,-226.65"/>
</a>
</g>
</g>
<!-- Node8 -->
<g id="Node000008" class="node">
<title>Node8</title>
<g id="a_Node000008"><a xlink:href="code__80057C60_8c.html#a1cd9453a0b57d5a7f1f3f7e8cefbf4e1" target="_top" xlink:title=" ">
<polygon fill="white" stroke="#666666" points="221,-204 128,-204 128,-185 221,-185 221,-204"/>
<text text-anchor="middle" x="174.5" y="-192" font-family="Helvetica,sans-Serif" font-size="10.00">func_80064DEC</text>
</a>
</g>
</g>
<!-- Node1&#45;&gt;Node8 -->
<g id="edge7_Node000001_Node000008" class="edge">
<title>Node1&#45;&gt;Node8</title>
<g id="a_edge7_Node000001_Node000008"><a xlink:title=" ">
<path fill="none" stroke="#63b8ff" d="M92.31,-206.05C100.48,-204.89 109.08,-203.67 117.5,-202.47"/>
<polygon fill="#63b8ff" stroke="#63b8ff" points="118.25,-205.9 127.65,-201.02 117.26,-198.97 118.25,-205.9"/>
</a>
</g>
</g>
<!-- Node9 -->
<g id="Node000009" class="node">
<title>Node9</title>
<g id="a_Node000009"><a xlink:href="code__80057C60_8c.html#af8a5f2f1a8227c002ce13875c7664bfb" target="_top" xlink:title=" ">
<polygon fill="white" stroke="#666666" points="220.5,-167 128.5,-167 128.5,-148 220.5,-148 220.5,-167"/>
<text text-anchor="middle" x="174.5" y="-155" font-family="Helvetica,sans-Serif" font-size="10.00">func_80064EA4</text>
</a>
</g>
</g>
<!-- Node1&#45;&gt;Node9 -->
<g id="edge8_Node000001_Node000009" class="edge">
<title>Node1&#45;&gt;Node9</title>
<g id="a_edge8_Node000001_Node000009"><a xlink:title=" ">
<path fill="none" stroke="#63b8ff" d="M68.26,-202.89C84.56,-195.56 107.65,-185.27 128,-176.5 132.18,-174.7 136.59,-172.82 140.95,-170.99"/>
<polygon fill="#63b8ff" stroke="#63b8ff" points="142.44,-174.16 150.31,-167.06 139.73,-167.7 142.44,-174.16"/>
</a>
</g>
</g>
<!-- Node10 -->
<g id="Node000010" class="node">
<title>Node10</title>
<g id="a_Node000010"><a xlink:href="code__80057C60_8c.html#a10a74a9774b8934ac644f9aaefc2171e" target="_top" xlink:title=" ">
<polygon fill="white" stroke="#666666" points="220,-130 129,-130 129,-111 220,-111 220,-130"/>
<text text-anchor="middle" x="174.5" y="-118" font-family="Helvetica,sans-Serif" font-size="10.00">func_80064F88</text>
</a>
</g>
</g>
<!-- Node1&#45;&gt;Node10 -->
<g id="edge9_Node000001_Node000010" class="edge">
<title>Node1&#45;&gt;Node10</title>
<g id="a_edge9_Node000001_Node000010"><a xlink:title=" ">
<path fill="none" stroke="#63b8ff" d="M55.63,-202.85C69.6,-187.69 98.57,-158.14 128,-139.5 130.82,-137.71 133.84,-136.03 136.93,-134.46"/>
<polygon fill="#63b8ff" stroke="#63b8ff" points="138.69,-137.5 146.28,-130.1 135.74,-131.15 138.69,-137.5"/>
</a>
</g>
</g>
<!-- Node11 -->
<g id="Node000011" class="node">
<title>Node11</title>
<g id="a_Node000011"><a xlink:href="code__80057C60_8c.html#a4e5631e8208476ec060f101962733379" target="_top" xlink:title=" ">
<polygon fill="white" stroke="#666666" points="220,-93 129,-93 129,-74 220,-74 220,-93"/>
<text text-anchor="middle" x="174.5" y="-81" font-family="Helvetica,sans-Serif" font-size="10.00">func_80065030</text>
</a>
</g>
</g>
<!-- Node1&#45;&gt;Node11 -->
<g id="edge10_Node000001_Node000011" class="edge">
<title>Node1&#45;&gt;Node11</title>
<g id="a_edge10_Node000001_Node000011"><a xlink:title=" ">
<path fill="none" stroke="#63b8ff" d="M51.74,-202.9C62.53,-181.95 90.89,-131.65 128,-102.5 130.06,-100.88 132.28,-99.38 134.59,-97.98"/>
<polygon fill="#63b8ff" stroke="#63b8ff" points="136.58,-100.9 143.81,-93.15 133.33,-94.7 136.58,-100.9"/>
</a>
</g>
</g>
<!-- Node12 -->
<g id="Node000012" class="node">
<title>Node12</title>
<g id="a_Node000012"><a xlink:href="code__80057C60_8c.html#a50ade5de1475072a99cd77d18aa919c7" target="_top" xlink:title=" ">
<polygon fill="white" stroke="#666666" points="220.5,-56 128.5,-56 128.5,-37 220.5,-37 220.5,-56"/>
<text text-anchor="middle" x="174.5" y="-44" font-family="Helvetica,sans-Serif" font-size="10.00">func_800650FC</text>
</a>
</g>
</g>
<!-- Node1&#45;&gt;Node12 -->
<g id="edge11_Node000001_Node000012" class="edge">
<title>Node1&#45;&gt;Node12</title>
<g id="a_edge11_Node000001_Node000012"><a xlink:title=" ">
<path fill="none" stroke="#63b8ff" d="M49.83,-202.83C57.86,-177.03 83.11,-105.79 128,-65.5 129.71,-63.97 131.56,-62.55 133.5,-61.23"/>
<polygon fill="#63b8ff" stroke="#63b8ff" points="135.51,-64.12 142.46,-56.13 132.04,-58.04 135.51,-64.12"/>
</a>
</g>
</g>
<!-- Node13 -->
<g id="Node000013" class="node">
<title>Node13</title>
<g id="a_Node000013"><a xlink:href="code__80057C60_8c.html#a87517973934c5003e08a58f2c6bd12b7" target="_top" xlink:title=" ">
<polygon fill="white" stroke="#666666" points="220,-19 129,-19 129,0 220,0 220,-19"/>
<text text-anchor="middle" x="174.5" y="-7" font-family="Helvetica,sans-Serif" font-size="10.00">func_800651F4</text>
</a>
</g>
</g>
<!-- Node1&#45;&gt;Node13 -->
<g id="edge12_Node000001_Node000013" class="edge">
<title>Node1&#45;&gt;Node13</title>
<g id="a_edge12_Node000001_Node000013"><a xlink:title=" ">
<path fill="none" stroke="#63b8ff" d="M48.67,-202.65C54.29,-172.5 75.18,-80.32 128,-28.5 129.47,-27.06 131.06,-25.73 132.74,-24.49"/>
<polygon fill="#63b8ff" stroke="#63b8ff" points="134.97,-27.23 141.71,-19.06 131.34,-21.24 134.97,-27.23"/>
</a>
</g>
</g>
</g>
</svg>
</svg>

<style type='text/css'>
<![CDATA[
[data-mouse-over-selected='false'] { opacity: 0.7; }
[data-mouse-over-selected='true']  { opacity: 1.0; }
]]>
</style>
<script type="application/ecmascript"><![CDATA[
document.addEventListener('DOMContentLoaded', (event) => {
  highlightEdges();
  highlightAdjacentNodes();
});
]]></script>
</svg>
