<?xml version="1.0" encoding="UTF-8" standalone="no"?>
<!DOCTYPE svg PUBLIC "-//W3C//DTD SVG 1.1//EN"
 "http://www.w3.org/Graphics/SVG/1.1/DTD/svg11.dtd">
<!-- Generated by graphviz version 2.43.0 (0)
 -->
<!-- Title: func_8006CEC0 Pages: 1 -->
<svg width="638pt" height="415pt"
 viewBox="0.00 0.00 638.00 415.31" xmlns="http://www.w3.org/2000/svg" xmlns:xlink="http://www.w3.org/1999/xlink">
<g id="graph0" class="graph" transform="scale(1 1) rotate(0) translate(4 411.31)">
<title>func_8006CEC0</title>
<!-- Node1 -->
<g id="Node000001" class="node">
<title>Node1</title>
<g id="a_Node000001"><a xlink:title=" ">
<polygon fill="#999999" stroke="#666666" points="92,-236.31 0,-236.31 0,-217.31 92,-217.31 92,-236.31"/>
<text text-anchor="middle" x="46" y="-224.31" font-family="Helvetica,sans-Serif" font-size="10.00">func_8006CEC0</text>
</a>
</g>
</g>
<!-- Node2 -->
<g id="Node000002" class="node">
<title>Node2</title>
<g id="a_Node000002"><a xlink:href="code__80057C60_8c.html#ad058651c431797dbc78b3298f8288832" target="_top" xlink:title=" ">
<polygon fill="white" stroke="#666666" points="347,-292.31 256,-292.31 256,-273.31 347,-273.31 347,-292.31"/>
<text text-anchor="middle" x="301.5" y="-280.31" font-family="Helvetica,sans-Serif" font-size="10.00">func_80060504</text>
</a>
</g>
</g>
<!-- Node1&#45;&gt;Node2 -->
<g id="edge1_Node000001_Node000002" class="edge">
<title>Node1&#45;&gt;Node2</title>
<g id="a_edge1_Node000001_Node000002"><a xlink:title=" ">
<path fill="none" stroke="#63b8ff" d="M63.78,-236.4C79.76,-245.06 104.75,-257.4 128,-263.81 166.43,-274.41 211.21,-279.13 245.52,-281.22"/>
<polygon fill="#63b8ff" stroke="#63b8ff" points="245.63,-284.73 255.81,-281.78 246.02,-277.74 245.63,-284.73"/>
</a>
</g>
</g>
<!-- Node11 -->
<g id="Node000011" class="node">
<title>Node11</title>
<g id="a_Node000011"><a xlink:href="code__80057C60_8c.html#a1490de17555e1b9a2120d0057fb14b4d" target="_top" xlink:title=" ">
<polygon fill="white" stroke="#666666" points="220,-255.31 128,-255.31 128,-236.31 220,-236.31 220,-255.31"/>
<text text-anchor="middle" x="174" y="-243.31" font-family="Helvetica,sans-Serif" font-size="10.00">func_80060B14</text>
</a>
</g>
</g>
<!-- Node1&#45;&gt;Node11 -->
<g id="edge10_Node000001_Node000011" class="edge">
<title>Node1&#45;&gt;Node11</title>
<g id="a_edge10_Node000001_Node000011"><a xlink:title=" ">
<path fill="none" stroke="#63b8ff" d="M92.13,-233.62C100.46,-234.87 109.23,-236.2 117.81,-237.49"/>
<polygon fill="#63b8ff" stroke="#63b8ff" points="117.35,-240.96 127.76,-238.99 118.39,-234.04 117.35,-240.96"/>
</a>
</g>
</g>
<!-- Node13 -->
<g id="Node000013" class="node">
<title>Node13</title>
<g id="a_Node000013"><a xlink:href="code__80057C60_8c.html#a68b6c90102b7a6e83ebf8807b90cc6a8" target="_top" xlink:title=" ">
<polygon fill="white" stroke="#666666" points="347,-181.31 256,-181.31 256,-162.31 347,-162.31 347,-181.31"/>
<text text-anchor="middle" x="301.5" y="-169.31" font-family="Helvetica,sans-Serif" font-size="10.00">func_80060F50</text>
</a>
</g>
</g>
<!-- Node1&#45;&gt;Node13 -->
<g id="edge16_Node000001_Node000013" class="edge">
<title>Node1&#45;&gt;Node13</title>
<g id="a_edge16_Node000001_Node000013"><a xlink:title=" ">
<path fill="none" stroke="#63b8ff" d="M90.87,-217.3C134.04,-207.93 200.05,-193.61 246.44,-183.54"/>
<polygon fill="#63b8ff" stroke="#63b8ff" points="247.29,-186.94 256.32,-181.4 245.81,-180.1 247.29,-186.94"/>
</a>
</g>
</g>
<!-- Node14 -->
<g id="Node000014" class="node">
<title>Node14</title>
<g id="a_Node000014"><a xlink:href="code__80057C60_8c.html#afe948d4c87d7a47b21508d880b9bba8f" target="_top" xlink:title=" ">
<polygon fill="white" stroke="#666666" points="347,-218.31 256,-218.31 256,-199.31 347,-199.31 347,-218.31"/>
<text text-anchor="middle" x="301.5" y="-206.31" font-family="Helvetica,sans-Serif" font-size="10.00">func_80061094</text>
</a>
</g>
</g>
<!-- Node1&#45;&gt;Node14 -->
<g id="edge22_Node000001_Node000014" class="edge">
<title>Node1&#45;&gt;Node14</title>
<g id="a_edge22_Node000001_Node000014"><a xlink:title=" ">
<path fill="none" stroke="#63b8ff" d="M53.39,-217.22C65.52,-200 93.75,-164.36 128,-150.81 166.02,-135.77 182.54,-134.41 220,-150.81 241.61,-160.27 236.73,-176.21 256,-189.81 258.53,-191.6 261.25,-193.26 264.05,-194.8"/>
<polygon fill="#63b8ff" stroke="#63b8ff" points="262.66,-198.01 273.17,-199.3 265.76,-191.74 262.66,-198.01"/>
</a>
</g>
</g>
<!-- Node15 -->
<g id="Node000015" class="node">
<title>Node15</title>
<g id="a_Node000015"><a xlink:href="code__80057C60_8c.html#a92c73facb86dcd8ef27c87b48484480b" target="_top" xlink:title=" ">
<polygon fill="white" stroke="#666666" points="219.5,-103.31 128.5,-103.31 128.5,-84.31 219.5,-84.31 219.5,-103.31"/>
<text text-anchor="middle" x="174" y="-91.31" font-family="Helvetica,sans-Serif" font-size="10.00">func_80061224</text>
</a>
</g>
</g>
<!-- Node1&#45;&gt;Node15 -->
<g id="edge26_Node000001_Node000015" class="edge">
<title>Node1&#45;&gt;Node15</title>
<g id="a_edge26_Node000001_Node000015"><a xlink:title=" ">
<path fill="none" stroke="#63b8ff" d="M52.14,-217.25C63.52,-196.82 92.62,-148.27 128,-117.81 132.01,-114.36 136.59,-111.22 141.27,-108.42"/>
<polygon fill="#63b8ff" stroke="#63b8ff" points="143.17,-111.37 150.25,-103.48 139.8,-105.23 143.17,-111.37"/>
</a>
</g>
</g>
<!-- Node17 -->
<g id="Node000017" class="node">
<title>Node17</title>
<g id="a_Node000017"><a xlink:href="code__80057C60_8c.html#aa9472e436a1a1bdffd935363571244c7" target="_top" xlink:title=" ">
<polygon fill="white" stroke="#666666" points="220,-331.31 128,-331.31 128,-312.31 220,-312.31 220,-331.31"/>
<text text-anchor="middle" x="174" y="-319.31" font-family="Helvetica,sans-Serif" font-size="10.00">func_80062C74</text>
</a>
</g>
</g>
<!-- Node1&#45;&gt;Node17 -->
<g id="edge33_Node000001_Node000017" class="edge">
<title>Node1&#45;&gt;Node17</title>
<g id="a_edge33_Node000001_Node000017"><a xlink:title=" ">
<path fill="none" stroke="#63b8ff" d="M56.37,-236.33C70.87,-250.74 100,-278.46 128,-297.81 132.95,-301.23 138.43,-304.53 143.83,-307.52"/>
<polygon fill="#63b8ff" stroke="#63b8ff" points="142.24,-310.64 152.71,-312.25 145.53,-304.46 142.24,-310.64"/>
</a>
</g>
</g>
<!-- Node18 -->
<g id="Node000018" class="node">
<title>Node18</title>
<g id="a_Node000018"><a xlink:href="code__80057C60_8c.html#ad6184716ecec0fb97634c456ae1189f8" target="_top" xlink:title=" ">
<polygon fill="white" stroke="#666666" points="220,-179.31 128,-179.31 128,-160.31 220,-160.31 220,-179.31"/>
<text text-anchor="middle" x="174" y="-167.31" font-family="Helvetica,sans-Serif" font-size="10.00">func_800631A8</text>
</a>
</g>
</g>
<!-- Node1&#45;&gt;Node18 -->
<g id="edge35_Node000001_Node000018" class="edge">
<title>Node1&#45;&gt;Node18</title>
<g id="a_edge35_Node000001_Node000018"><a xlink:title=" ">
<path fill="none" stroke="#63b8ff" d="M68.09,-217.27C88.44,-208.07 119.47,-194.03 142.51,-183.61"/>
<polygon fill="#63b8ff" stroke="#63b8ff" points="144.17,-186.7 151.84,-179.38 141.29,-180.32 144.17,-186.7"/>
</a>
</g>
</g>
<!-- Node19 -->
<g id="Node000019" class="node">
<title>Node19</title>
<g id="a_Node000019"><a xlink:href="code__80057C60_8c.html#ab9d9cc582e70d0fae57f3c34da522f40" target="_top" xlink:title=" ">
<polygon fill="white" stroke="#666666" points="495.5,-370.31 404.5,-370.31 404.5,-351.31 495.5,-351.31 495.5,-370.31"/>
<text text-anchor="middle" x="450" y="-358.31" font-family="Helvetica,sans-Serif" font-size="10.00">func_80063268</text>
</a>
</g>
</g>
<!-- Node1&#45;&gt;Node19 -->
<g id="edge36_Node000001_Node000019" class="edge">
<title>Node1&#45;&gt;Node19</title>
<g id="a_edge36_Node000001_Node000019"><a xlink:title=" ">
<path fill="none" stroke="#63b8ff" d="M48.74,-236.52C54.31,-264.43 74.62,-344.97 128,-376.81 171.45,-402.73 314.44,-383.9 394.13,-370.71"/>
<polygon fill="#63b8ff" stroke="#63b8ff" points="395.18,-374.08 404.46,-368.97 394.02,-367.18 395.18,-374.08"/>
</a>
</g>
</g>
<!-- Node20 -->
<g id="Node000020" class="node">
<title>Node20</title>
<g id="a_Node000020"><a xlink:href="code__80057C60_8c.html#ae6737d5fadf1adcca9b4e7cfe2fcd634" target="_top" xlink:title=" ">
<polygon fill="white" stroke="#666666" points="219.5,-368.31 128.5,-368.31 128.5,-349.31 219.5,-349.31 219.5,-368.31"/>
<text text-anchor="middle" x="174" y="-356.31" font-family="Helvetica,sans-Serif" font-size="10.00">func_80064184</text>
</a>
</g>
</g>
<!-- Node1&#45;&gt;Node20 -->
<g id="edge39_Node000001_Node000020" class="edge">
<title>Node1&#45;&gt;Node20</title>
<g id="a_edge39_Node000001_Node000020"><a xlink:title=" ">
<path fill="none" stroke="#63b8ff" d="M51.52,-236.34C62.06,-257.66 90.29,-309.68 128,-339.81 130.03,-341.43 132.22,-342.94 134.5,-344.33"/>
<polygon fill="#63b8ff" stroke="#63b8ff" points="133.12,-347.57 143.6,-349.17 136.41,-341.39 133.12,-347.57"/>
</a>
</g>
</g>
<!-- Node21 -->
<g id="Node000021" class="node">
<title>Node21</title>
<g id="a_Node000021"><a xlink:href="code__80057C60_8c.html#abf002ce063e141f5bf2df4eb2cee2f1d" target="_top" xlink:title=" ">
<polygon fill="white" stroke="#666666" points="517,-58.81 383,-58.81 383,-28.81 517,-28.81 517,-58.81"/>
<text text-anchor="start" x="391" y="-46.81" font-family="Helvetica,sans-Serif" font-size="10.00">set_oob_splash_particle</text>
<text text-anchor="middle" x="450" y="-35.81" font-family="Helvetica,sans-Serif" font-size="10.00">_position</text>
</a>
</g>
</g>
<!-- Node1&#45;&gt;Node21 -->
<g id="edge41_Node000001_Node000021" class="edge">
<title>Node1&#45;&gt;Node21</title>
<g id="a_edge41_Node000001_Node000021"><a xlink:title=" ">
<path fill="none" stroke="#63b8ff" d="M48.85,-217.23C54.73,-189.63 75.78,-109.68 128,-74.81 200.34,-26.51 303.1,-25.42 372.72,-32.02"/>
<polygon fill="#63b8ff" stroke="#63b8ff" points="372.43,-35.51 382.74,-33.05 373.15,-28.55 372.43,-35.51"/>
</a>
</g>
</g>
<!-- Node3 -->
<g id="Node000003" class="node">
<title>Node3</title>
<g id="a_Node000003"><a xlink:href="code__80057C60_8c.html#a156481baa44e5305c016e2902a91bbb1" target="_top" xlink:title=" ">
<polygon fill="white" stroke="#666666" points="496,-333.31 404,-333.31 404,-314.31 496,-314.31 496,-333.31"/>
<text text-anchor="middle" x="450" y="-321.31" font-family="Helvetica,sans-Serif" font-size="10.00">func_80062B18</text>
</a>
</g>
</g>
<!-- Node2&#45;&gt;Node3 -->
<g id="edge2_Node000002_Node000003" class="edge">
<title>Node2&#45;&gt;Node3</title>
<g id="a_edge2_Node000002_Node000003"><a xlink:title=" ">
<path fill="none" stroke="#63b8ff" d="M336.48,-292.32C356.93,-298.05 383.18,-305.39 405.18,-311.55"/>
<polygon fill="#63b8ff" stroke="#63b8ff" points="404.38,-314.96 414.95,-314.28 406.27,-308.22 404.38,-314.96"/>
</a>
</g>
</g>
<!-- Node6 -->
<g id="Node000006" class="node">
<title>Node6</title>
<g id="a_Node000006"><a xlink:href="code__80057C60_8c.html#a1272a6c50cfec9b141d07f72a0e2f2c5" target="_top" xlink:title=" ">
<polygon fill="white" stroke="#666666" points="505,-247.31 395,-247.31 395,-228.31 505,-228.31 505,-247.31"/>
<text text-anchor="middle" x="450" y="-235.31" font-family="Helvetica,sans-Serif" font-size="10.00">init_particle_player</text>
</a>
</g>
</g>
<!-- Node2&#45;&gt;Node6 -->
<g id="edge5_Node000002_Node000006" class="edge">
<title>Node2&#45;&gt;Node6</title>
<g id="a_edge5_Node000002_Node000006"><a xlink:title=" ">
<path fill="none" stroke="#63b8ff" d="M331.49,-273.2C346.78,-268.2 365.86,-262.05 383,-256.81 390.22,-254.61 397.9,-252.34 405.37,-250.16"/>
<polygon fill="#63b8ff" stroke="#63b8ff" points="406.39,-253.51 415.02,-247.37 404.44,-246.78 406.39,-253.51"/>
</a>
</g>
</g>
<!-- Node7 -->
<g id="Node000007" class="node">
<title>Node7</title>
<g id="a_Node000007"><a xlink:href="math__util_8c.html#a151b63b8adf9af7e4054b3b84bd226dc" target="_top" xlink:title=" ">
<polygon fill="white" stroke="#666666" points="486,-407.31 414,-407.31 414,-388.31 486,-388.31 486,-407.31"/>
<text text-anchor="middle" x="450" y="-395.31" font-family="Helvetica,sans-Serif" font-size="10.00">random_int</text>
</a>
</g>
</g>
<!-- Node2&#45;&gt;Node7 -->
<g id="edge6_Node000002_Node000007" class="edge">
<title>Node2&#45;&gt;Node7</title>
<g id="a_edge6_Node000002_Node000007"><a xlink:title=" ">
<path fill="none" stroke="#63b8ff" d="M307.8,-292.33C319.06,-311.64 347.26,-355.57 383,-378.81 389.32,-382.93 396.55,-386.16 403.85,-388.71"/>
<polygon fill="#63b8ff" stroke="#63b8ff" points="403.18,-392.17 413.77,-391.77 405.24,-385.48 403.18,-392.17"/>
</a>
</g>
</g>
<!-- Node9 -->
<g id="Node000009" class="node">
<title>Node9</title>
<g id="a_Node000009"><a xlink:href="code__80057C60_8c.html#a4ae339f479dc4885b0af81962c9963c8" target="_top" xlink:title=" ">
<polygon fill="white" stroke="#666666" points="504.5,-210.31 395.5,-210.31 395.5,-191.31 504.5,-191.31 504.5,-210.31"/>
<text text-anchor="middle" x="450" y="-198.31" font-family="Helvetica,sans-Serif" font-size="10.00">set_particle_colour</text>
</a>
</g>
</g>
<!-- Node2&#45;&gt;Node9 -->
<g id="edge8_Node000002_Node000009" class="edge">
<title>Node2&#45;&gt;Node9</title>
<g id="a_edge8_Node000002_Node000009"><a xlink:title=" ">
<path fill="none" stroke="#63b8ff" d="M330.96,-273.15C336.56,-270.58 342.18,-267.47 347,-263.81 367.39,-248.32 361.59,-232.87 383,-218.81 385.42,-217.22 387.98,-215.77 390.62,-214.45"/>
<polygon fill="#63b8ff" stroke="#63b8ff" points="392.12,-217.62 399.9,-210.43 389.33,-211.2 392.12,-217.62"/>
</a>
</g>
</g>
<!-- Node10 -->
<g id="Node000010" class="node">
<title>Node10</title>
<g id="a_Node000010"><a xlink:href="code__80057C60_8c.html#a35301423811a1f1a26d5cf4f2031696b" target="_top" xlink:title=" ">
<polygon fill="white" stroke="#666666" points="509,-295.81 391,-295.81 391,-265.81 509,-265.81 509,-295.81"/>
<text text-anchor="start" x="399" y="-283.81" font-family="Helvetica,sans-Serif" font-size="10.00">set_particle_position</text>
<text text-anchor="middle" x="450" y="-272.81" font-family="Helvetica,sans-Serif" font-size="10.00">_and_rotation</text>
</a>
</g>
</g>
<!-- Node2&#45;&gt;Node10 -->
<g id="edge9_Node000002_Node000010" class="edge">
<title>Node2&#45;&gt;Node10</title>
<g id="a_edge9_Node000002_Node000010"><a xlink:title=" ">
<path fill="none" stroke="#63b8ff" d="M347.25,-282.2C357.75,-282.06 369.18,-281.9 380.46,-281.75"/>
<polygon fill="#63b8ff" stroke="#63b8ff" points="380.79,-285.24 390.74,-281.61 380.69,-278.25 380.79,-285.24"/>
</a>
</g>
</g>
<!-- Node4 -->
<g id="Node000004" class="node">
<title>Node4</title>
<g id="a_Node000004"><a xlink:href="math__util_8c.html#a5eb0d9752bc1557b7f4ae3809352a0eb" target="_top" xlink:title=" ">
<polygon fill="white" stroke="#666666" points="610.5,-172.31 572.5,-172.31 572.5,-153.31 610.5,-153.31 610.5,-172.31"/>
<text text-anchor="middle" x="591.5" y="-160.31" font-family="Helvetica,sans-Serif" font-size="10.00">coss</text>
</a>
</g>
</g>
<!-- Node3&#45;&gt;Node4 -->
<g id="edge3_Node000003_Node000004" class="edge">
<title>Node3&#45;&gt;Node4</title>
<g id="a_edge3_Node000003_Node000004"><a xlink:title=" ">
<path fill="none" stroke="#63b8ff" d="M496.04,-316.2C503.58,-313.48 510.91,-309.8 517,-304.81 556.58,-272.37 577.27,-213.01 585.75,-182.33"/>
<polygon fill="#63b8ff" stroke="#63b8ff" points="589.2,-182.98 588.34,-172.42 582.42,-181.22 589.2,-182.98"/>
</a>
</g>
</g>
<!-- Node5 -->
<g id="Node000005" class="node">
<title>Node5</title>
<g id="a_Node000005"><a xlink:href="math__util_8c.html#adcf81d47666b5d86c4a1dbcb06e47faf" target="_top" xlink:title=" ">
<polygon fill="white" stroke="#666666" points="609.5,-134.31 573.5,-134.31 573.5,-115.31 609.5,-115.31 609.5,-134.31"/>
<text text-anchor="middle" x="591.5" y="-122.31" font-family="Helvetica,sans-Serif" font-size="10.00">sins</text>
</a>
</g>
</g>
<!-- Node3&#45;&gt;Node5 -->
<g id="edge4_Node000003_Node000005" class="edge">
<title>Node3&#45;&gt;Node5</title>
<g id="a_edge4_Node000003_Node000005"><a xlink:title=" ">
<path fill="none" stroke="#63b8ff" d="M496.17,-317.8C503.97,-314.95 511.36,-310.8 517,-304.81 567.26,-251.43 507.99,-201.7 553,-143.81 556.03,-139.91 560.08,-136.75 564.4,-134.2"/>
<polygon fill="#63b8ff" stroke="#63b8ff" points="565.95,-137.34 573.4,-129.8 562.88,-131.05 565.95,-137.34"/>
</a>
</g>
</g>
<!-- Node8 -->
<g id="Node000008" class="node">
<title>Node8</title>
<g id="a_Node000008"><a xlink:href="math__util_8c.html#a062850863585005ad1d0a75d9ff70693" target="_top" xlink:title=" ">
<polygon fill="white" stroke="#666666" points="630,-407.31 553,-407.31 553,-388.31 630,-388.31 630,-407.31"/>
<text text-anchor="middle" x="591.5" y="-395.31" font-family="Helvetica,sans-Serif" font-size="10.00">random_u16</text>
</a>
</g>
</g>
<!-- Node7&#45;&gt;Node8 -->
<g id="edge7_Node000007_Node000008" class="edge">
<title>Node7&#45;&gt;Node8</title>
<g id="a_edge7_Node000007_Node000008"><a xlink:title=" ">
<path fill="none" stroke="#63b8ff" d="M486.2,-397.81C503.36,-397.81 524.26,-397.81 542.83,-397.81"/>
<polygon fill="#63b8ff" stroke="#63b8ff" points="542.86,-401.31 552.86,-397.81 542.86,-394.31 542.86,-401.31"/>
</a>
</g>
</g>
<!-- Node12 -->
<g id="Node000012" class="node">
<title>Node12</title>
<g id="a_Node000012"><a xlink:href="code__80057C60_8c.html#abde2a6c2de1d59c40ebc18988a57dbc5" target="_top" xlink:title=" ">
<polygon fill="white" stroke="#666666" points="347,-255.31 256,-255.31 256,-236.31 347,-236.31 347,-255.31"/>
<text text-anchor="middle" x="301.5" y="-243.31" font-family="Helvetica,sans-Serif" font-size="10.00">func_800608E0</text>
</a>
</g>
</g>
<!-- Node11&#45;&gt;Node12 -->
<g id="edge11_Node000011_Node000012" class="edge">
<title>Node11&#45;&gt;Node12</title>
<g id="a_edge11_Node000011_Node000012"><a xlink:title=" ">
<path fill="none" stroke="#63b8ff" d="M220.31,-245.81C228.49,-245.81 237.11,-245.81 245.54,-245.81"/>
<polygon fill="#63b8ff" stroke="#63b8ff" points="245.68,-249.31 255.68,-245.81 245.68,-242.31 245.68,-249.31"/>
</a>
</g>
</g>
<!-- Node12&#45;&gt;Node3 -->
<g id="edge12_Node000012_Node000003" class="edge">
<title>Node12&#45;&gt;Node3</title>
<g id="a_edge12_Node000012_Node000003"><a xlink:title=" ">
<path fill="none" stroke="#63b8ff" d="M331.77,-255.37C337.07,-257.73 342.38,-260.53 347,-263.81 366.77,-277.85 362.52,-291.82 383,-304.81 386.57,-307.08 390.41,-309.08 394.39,-310.84"/>
<polygon fill="#63b8ff" stroke="#63b8ff" points="393.25,-314.16 403.84,-314.56 395.81,-307.64 393.25,-314.16"/>
</a>
</g>
</g>
<!-- Node12&#45;&gt;Node6 -->
<g id="edge13_Node000012_Node000006" class="edge">
<title>Node12&#45;&gt;Node6</title>
<g id="a_edge13_Node000012_Node000006"><a xlink:title=" ">
<path fill="none" stroke="#63b8ff" d="M347.25,-243.37C359.14,-242.72 372.21,-242.01 384.9,-241.31"/>
<polygon fill="#63b8ff" stroke="#63b8ff" points="385.18,-244.8 394.98,-240.76 384.8,-237.81 385.18,-244.8"/>
</a>
</g>
</g>
<!-- Node12&#45;&gt;Node9 -->
<g id="edge14_Node000012_Node000009" class="edge">
<title>Node12&#45;&gt;Node9</title>
<g id="a_edge14_Node000012_Node000009"><a xlink:title=" ">
<path fill="none" stroke="#63b8ff" d="M329.58,-236.3C345.14,-230.94 365.09,-224.25 383,-218.81 389.41,-216.86 396.21,-214.9 402.9,-213.02"/>
<polygon fill="#63b8ff" stroke="#63b8ff" points="403.88,-216.38 412.58,-210.34 402.01,-209.64 403.88,-216.38"/>
</a>
</g>
</g>
<!-- Node12&#45;&gt;Node10 -->
<g id="edge15_Node000012_Node000010" class="edge">
<title>Node12&#45;&gt;Node10</title>
<g id="a_edge15_Node000012_Node000010"><a xlink:title=" ">
<path fill="none" stroke="#63b8ff" d="M342.53,-255.38C354.41,-258.22 367.77,-261.41 380.91,-264.55"/>
<polygon fill="#63b8ff" stroke="#63b8ff" points="380.35,-268.01 390.89,-266.93 381.98,-261.2 380.35,-268.01"/>
</a>
</g>
</g>
<!-- Node13&#45;&gt;Node4 -->
<g id="edge17_Node000013_Node000004" class="edge">
<title>Node13&#45;&gt;Node4</title>
<g id="a_edge17_Node000013_Node000004"><a xlink:title=" ">
<path fill="none" stroke="#63b8ff" d="M347.18,-170.42C407.24,-168.54 512.23,-165.26 562.34,-163.69"/>
<polygon fill="#63b8ff" stroke="#63b8ff" points="562.55,-167.19 572.44,-163.38 562.34,-160.19 562.55,-167.19"/>
</a>
</g>
</g>
<!-- Node13&#45;&gt;Node5 -->
<g id="edge21_Node000013_Node000005" class="edge">
<title>Node13&#45;&gt;Node5</title>
<g id="a_edge21_Node000013_Node000005"><a xlink:title=" ">
<path fill="none" stroke="#63b8ff" d="M347.18,-164.52C407.68,-154.65 513.78,-137.33 563.43,-129.23"/>
<polygon fill="#63b8ff" stroke="#63b8ff" points="564.11,-132.67 573.41,-127.6 562.98,-125.76 564.11,-132.67"/>
</a>
</g>
</g>
<!-- Node13&#45;&gt;Node6 -->
<g id="edge18_Node000013_Node000006" class="edge">
<title>Node13&#45;&gt;Node6</title>
<g id="a_edge18_Node000013_Node000006"><a xlink:title=" ">
<path fill="none" stroke="#63b8ff" d="M329.93,-181.43C335.72,-183.87 341.68,-186.69 347,-189.81 364.71,-200.22 364.77,-209.34 383,-218.81 387.33,-221.07 391.97,-223.08 396.7,-224.88"/>
<polygon fill="#63b8ff" stroke="#63b8ff" points="395.89,-228.31 406.49,-228.28 398.19,-221.69 395.89,-228.31"/>
</a>
</g>
</g>
<!-- Node13&#45;&gt;Node9 -->
<g id="edge19_Node000013_Node000009" class="edge">
<title>Node13&#45;&gt;Node9</title>
<g id="a_edge19_Node000013_Node000009"><a xlink:title=" ">
<path fill="none" stroke="#63b8ff" d="M347.25,-180.67C361.06,-183.41 376.47,-186.46 391.04,-189.34"/>
<polygon fill="#63b8ff" stroke="#63b8ff" points="390.47,-192.8 400.96,-191.3 391.83,-185.93 390.47,-192.8"/>
</a>
</g>
</g>
<!-- Node13&#45;&gt;Node10 -->
<g id="edge20_Node000013_Node000010" class="edge">
<title>Node13&#45;&gt;Node10</title>
<g id="a_edge20_Node000013_Node000010"><a xlink:title=" ">
<path fill="none" stroke="#63b8ff" d="M334.25,-181.46C338.84,-183.73 343.27,-186.49 347,-189.81 371.95,-212.04 357.81,-233.86 383,-255.81 384.94,-257.5 387.01,-259.08 389.16,-260.56"/>
<polygon fill="#63b8ff" stroke="#63b8ff" points="387.49,-263.64 397.87,-265.77 391.09,-257.64 387.49,-263.64"/>
</a>
</g>
</g>
<!-- Node14&#45;&gt;Node6 -->
<g id="edge23_Node000014_Node000006" class="edge">
<title>Node14&#45;&gt;Node6</title>
<g id="a_edge23_Node000014_Node000006"><a xlink:title=" ">
<path fill="none" stroke="#63b8ff" d="M347.25,-217.67C361.06,-220.41 376.47,-223.46 391.04,-226.34"/>
<polygon fill="#63b8ff" stroke="#63b8ff" points="390.47,-229.8 400.96,-228.3 391.83,-222.93 390.47,-229.8"/>
</a>
</g>
</g>
<!-- Node14&#45;&gt;Node9 -->
<g id="edge24_Node000014_Node000009" class="edge">
<title>Node14&#45;&gt;Node9</title>
<g id="a_edge24_Node000014_Node000009"><a xlink:title=" ">
<path fill="none" stroke="#63b8ff" d="M347.25,-206.37C359.2,-205.72 372.35,-205 385.12,-204.3"/>
<polygon fill="#63b8ff" stroke="#63b8ff" points="385.45,-207.79 395.24,-203.75 385.07,-200.8 385.45,-207.79"/>
</a>
</g>
</g>
<!-- Node14&#45;&gt;Node10 -->
<g id="edge25_Node000014_Node000010" class="edge">
<title>Node14&#45;&gt;Node10</title>
<g id="a_edge25_Node000014_Node000010"><a xlink:title=" ">
<path fill="none" stroke="#63b8ff" d="M329.93,-218.43C335.72,-220.87 341.68,-223.69 347,-226.81 364.71,-237.22 365.17,-245.6 383,-255.81 386.59,-257.87 390.38,-259.82 394.25,-261.65"/>
<polygon fill="#63b8ff" stroke="#63b8ff" points="392.84,-264.85 403.4,-265.71 395.68,-258.45 392.84,-264.85"/>
</a>
</g>
</g>
<!-- Node16 -->
<g id="Node000016" class="node">
<title>Node16</title>
<g id="a_Node000016"><a xlink:href="code__80057C60_8c.html#a77fdc4c732656b412870d821f27dc084" target="_top" xlink:title=" ">
<polygon fill="white" stroke="#666666" points="347,-123.31 256,-123.31 256,-104.31 347,-104.31 347,-123.31"/>
<text text-anchor="middle" x="301.5" y="-111.31" font-family="Helvetica,sans-Serif" font-size="10.00">func_80061130</text>
</a>
</g>
</g>
<!-- Node15&#45;&gt;Node16 -->
<g id="edge27_Node000015_Node000016" class="edge">
<title>Node15&#45;&gt;Node16</title>
<g id="a_edge27_Node000015_Node000016"><a xlink:title=" ">
<path fill="none" stroke="#63b8ff" d="M219.6,-100.92C228.01,-102.26 236.89,-103.68 245.57,-105.06"/>
<polygon fill="#63b8ff" stroke="#63b8ff" points="245.19,-108.54 255.62,-106.66 246.3,-101.63 245.19,-108.54"/>
</a>
</g>
</g>
<!-- Node16&#45;&gt;Node4 -->
<g id="edge28_Node000016_Node000004" class="edge">
<title>Node16&#45;&gt;Node4</title>
<g id="a_edge28_Node000016_Node000004"><a xlink:title=" ">
<path fill="none" stroke="#63b8ff" d="M347.18,-121.42C407.24,-131.63 512.23,-149.5 562.34,-158.02"/>
<polygon fill="#63b8ff" stroke="#63b8ff" points="561.99,-161.51 572.44,-159.74 563.17,-154.61 561.99,-161.51"/>
</a>
</g>
</g>
<!-- Node16&#45;&gt;Node5 -->
<g id="edge32_Node000016_Node000005" class="edge">
<title>Node16&#45;&gt;Node5</title>
<g id="a_edge32_Node000016_Node000005"><a xlink:title=" ">
<path fill="none" stroke="#63b8ff" d="M307.07,-104.26C317.33,-84.1 344.35,-37.6 383,-19.81 437.1,5.08 464.18,7.69 517,-19.81 551.71,-37.89 573.42,-80.68 583.61,-105.71"/>
<polygon fill="#63b8ff" stroke="#63b8ff" points="580.41,-107.14 587.27,-115.22 586.94,-104.63 580.41,-107.14"/>
</a>
</g>
</g>
<!-- Node16&#45;&gt;Node6 -->
<g id="edge29_Node000016_Node000006" class="edge">
<title>Node16&#45;&gt;Node6</title>
<g id="a_edge29_Node000016_Node000006"><a xlink:title=" ">
<path fill="none" stroke="#63b8ff" d="M315.69,-123.35C325.19,-130.67 337.88,-141.43 347,-152.81 367.89,-178.89 356.93,-197.91 383,-218.81 385.27,-220.63 387.7,-222.28 390.25,-223.76"/>
<polygon fill="#63b8ff" stroke="#63b8ff" points="388.76,-226.93 399.28,-228.24 391.87,-220.66 388.76,-226.93"/>
</a>
</g>
</g>
<!-- Node16&#45;&gt;Node9 -->
<g id="edge30_Node000016_Node000009" class="edge">
<title>Node16&#45;&gt;Node9</title>
<g id="a_edge30_Node000016_Node000009"><a xlink:title=" ">
<path fill="none" stroke="#63b8ff" d="M318.74,-123.46C344.26,-138.61 393.94,-168.12 424.03,-185.98"/>
<polygon fill="#63b8ff" stroke="#63b8ff" points="422.3,-189.03 432.69,-191.13 425.88,-183.01 422.3,-189.03"/>
</a>
</g>
</g>
<!-- Node16&#45;&gt;Node10 -->
<g id="edge31_Node000016_Node000010" class="edge">
<title>Node16&#45;&gt;Node10</title>
<g id="a_edge31_Node000016_Node000010"><a xlink:title=" ">
<path fill="none" stroke="#63b8ff" d="M317.09,-123.54C326.76,-130.65 339.07,-141.06 347,-152.81 374.13,-193.01 349.16,-221.08 383,-255.81 384.41,-257.26 385.91,-258.63 387.49,-259.91"/>
<polygon fill="#63b8ff" stroke="#63b8ff" points="385.7,-262.93 395.92,-265.72 389.67,-257.16 385.7,-262.93"/>
</a>
</g>
</g>
<!-- Node17&#45;&gt;Node3 -->
<g id="edge34_Node000017_Node000003" class="edge">
<title>Node17&#45;&gt;Node3</title>
<g id="a_edge34_Node000017_Node000003"><a xlink:title=" ">
<path fill="none" stroke="#63b8ff" d="M220.25,-322.14C267.74,-322.49 342.47,-323.04 393.49,-323.41"/>
<polygon fill="#63b8ff" stroke="#63b8ff" points="393.66,-326.91 403.69,-323.48 393.71,-319.91 393.66,-326.91"/>
</a>
</g>
</g>
<!-- Node19&#45;&gt;Node4 -->
<g id="edge37_Node000019_Node000004" class="edge">
<title>Node19&#45;&gt;Node4</title>
<g id="a_edge37_Node000019_Node000004"><a xlink:title=" ">
<path fill="none" stroke="#63b8ff" d="M495.73,-353.88C503.47,-351.1 510.96,-347.22 517,-341.81 565.06,-298.74 582.38,-219.5 588.03,-182.64"/>
<polygon fill="#63b8ff" stroke="#63b8ff" points="591.51,-183.04 589.43,-172.65 584.58,-182.06 591.51,-183.04"/>
</a>
</g>
</g>
<!-- Node19&#45;&gt;Node5 -->
<g id="edge38_Node000019_Node000005" class="edge">
<title>Node19&#45;&gt;Node5</title>
<g id="a_edge38_Node000019_Node000005"><a xlink:title=" ">
<path fill="none" stroke="#63b8ff" d="M495.69,-355.22C503.72,-352.35 511.32,-348.09 517,-341.81 576.99,-275.47 499.52,-215.51 553,-143.81 555.95,-139.85 559.97,-136.66 564.27,-134.1"/>
<polygon fill="#63b8ff" stroke="#63b8ff" points="565.82,-137.24 573.28,-129.71 562.76,-130.95 565.82,-137.24"/>
</a>
</g>
</g>
<!-- Node20&#45;&gt;Node3 -->
<g id="edge40_Node000020_Node000003" class="edge">
<title>Node20&#45;&gt;Node3</title>
<g id="a_edge40_Node000020_Node000003"><a xlink:title=" ">
<path fill="none" stroke="#63b8ff" d="M219.63,-353.11C267.16,-347.04 342.44,-337.42 393.7,-330.88"/>
<polygon fill="#63b8ff" stroke="#63b8ff" points="394.45,-334.31 403.93,-329.57 393.57,-327.37 394.45,-334.31"/>
</a>
</g>
</g>
<!-- Node21&#45;&gt;Node4 -->
<g id="edge42_Node000021_Node000004" class="edge">
<title>Node21&#45;&gt;Node4</title>
<g id="a_edge42_Node000021_Node000004"><a xlink:title=" ">
<path fill="none" stroke="#63b8ff" d="M496.5,-58.84C503.9,-62.63 511.07,-67.24 517,-72.81 542.48,-96.78 528.45,-117.89 553,-142.81 556.03,-145.89 559.63,-148.6 563.39,-150.96"/>
<polygon fill="#63b8ff" stroke="#63b8ff" points="561.78,-154.07 572.23,-155.82 565.15,-147.93 561.78,-154.07"/>
</a>
</g>
</g>
<!-- Node21&#45;&gt;Node5 -->
<g id="edge43_Node000021_Node000005" class="edge">
<title>Node21&#45;&gt;Node5</title>
<g id="a_edge43_Node000021_Node000005"><a xlink:title=" ">
<path fill="none" stroke="#63b8ff" d="M488.99,-58.94C498.33,-63.08 508.18,-67.82 517,-72.81 535.93,-83.52 555.99,-97.95 570.36,-108.89"/>
<polygon fill="#63b8ff" stroke="#63b8ff" points="568.46,-111.85 578.52,-115.19 572.74,-106.31 568.46,-111.85"/>
</a>
</g>
</g>
</g>
</svg>
