<?xml version="1.0" encoding="UTF-8" standalone="no"?>
<!DOCTYPE svg PUBLIC "-//W3C//DTD SVG 1.1//EN"
 "http://www.w3.org/Graphics/SVG/1.1/DTD/svg11.dtd">
<!-- Generated by graphviz version 2.43.0 (0)
 -->
<!-- Title: func_8008241C Pages: 1 -->
<!--zoomable 242 -->
<svg id="main" version="1.1" xmlns="http://www.w3.org/2000/svg" xmlns:xlink="http://www.w3.org/1999/xlink" xml:space="preserve" onload="init(evt)">
<style type="text/css"><![CDATA[
.edge:hover path { stroke: red; }
.edge:hover polygon { stroke: red; fill: red; }
]]></style>
<script type="text/javascript"><![CDATA[
var edges = document.getElementsByTagName('g');
if (edges && edges.length) {
  for (var i=0;i<edges.length;i++) {
    if (edges[i].id.substr(0,4)=='edge') {
      edges[i].setAttribute('class','edge');
    }
  }
}
]]></script>
        <defs>
                <circle id="rim" cx="0" cy="0" r="7"/>
                <circle id="rim2" cx="0" cy="0" r="3.5"/>
                <g id="zoomPlus">
                        <use xlink:href="#rim" fill="#404040">
                                <set attributeName="fill" to="#808080" begin="zoomplus.mouseover" end="zoomplus.mouseout"/>
                        </use>
                        <path d="M-4,0h8M0,-4v8" fill="none" stroke="white" stroke-width="1.5" pointer-events="none"/>
                </g>
                <g id="zoomMin">
                        <use xlink:href="#rim" fill="#404040">
                                <set attributeName="fill" to="#808080" begin="zoomminus.mouseover" end="zoomminus.mouseout"/>
                        </use>
                        <path d="M-4,0h8" fill="none" stroke="white" stroke-width="1.5" pointer-events="none"/>
                </g>
                <g id="dirArrow">
                        <path fill="none" stroke="white" stroke-width="1.5" d="M0,-3.0v7 M-2.5,-0.5L0,-3.0L2.5,-0.5"/>
                </g>
               <g id="resetDef">
                       <use xlink:href="#rim2" fill="#404040">
                               <set attributeName="fill" to="#808080" begin="reset.mouseover" end="reset.mouseout"/>
                       </use>
               </g>
        </defs>

<script type="text/javascript">
var viewWidth = 568;
var viewHeight = 242;
var sectionId = 'dynsection-489';
</script>
<script xlink:href="svgpan.js"/>
<svg id="graph" class="graph">
<g id="viewport">
<title>func_8008241C</title>
<polygon fill="white" stroke="transparent" points="-4,4 -4,-238.3 564,-238.3 564,4 -4,4"/>
<!-- Node1 -->
<g id="node1" class="node">
<title>Node1</title>
<g id="a_node1"><a xlink:title=" ">
<polygon fill="#bfbfbf" stroke="black" points="0,-107 0,-126 92,-126 92,-107 0,-107"/>
<text text-anchor="middle" x="46" y="-114" font-family="Helvetica,sans-Serif" font-size="10.00">func_8008241C</text>
</a>
</g>
</g>
<!-- Node2 -->
<g id="node2" class="node">
<title>Node2</title>
<g id="a_node2"><a xlink:href="code__80071F00_8c.html#a91e6ccbfa10d972106998ad26b271c17" target="_top" xlink:title=" ">
<polygon fill="white" stroke="black" points="148.5,-202 148.5,-221 239.5,-221 239.5,-202 148.5,-202"/>
<text text-anchor="middle" x="194" y="-209" font-family="Helvetica,sans-Serif" font-size="10.00">func_80072488</text>
</a>
</g>
</g>
<!-- Node1&#45;&gt;Node2 -->
<g id="edge1" class="edge">
<title>Node1&#45;&gt;Node2</title>
<path fill="none" stroke="midnightblue" d="M54.66,-126.19C67.9,-142.31 96.69,-174.61 128,-192.5 131.9,-194.73 136.07,-196.71 140.36,-198.47"/>
<polygon fill="midnightblue" stroke="midnightblue" points="139.27,-201.8 149.87,-202 141.71,-195.24 139.27,-201.8"/>
</g>
<!-- Node5 -->
<g id="node5" class="node">
<title>Node5</title>
<g id="a_node5"><a xlink:href="code__80086E70_8c.html#a79b65858840f21f273d4c8fe80b56fe5" target="_top" xlink:title=" ">
<polygon fill="white" stroke="black" points="148.5,-164 148.5,-183 239.5,-183 239.5,-164 148.5,-164"/>
<text text-anchor="middle" x="194" y="-171" font-family="Helvetica,sans-Serif" font-size="10.00">func_80086EF0</text>
</a>
</g>
</g>
<!-- Node1&#45;&gt;Node5 -->
<g id="edge4" class="edge">
<title>Node1&#45;&gt;Node5</title>
<path fill="none" stroke="midnightblue" d="M65.31,-126.08C81.5,-134.32 105.92,-146.15 128,-154.5 133.99,-156.77 140.37,-158.93 146.71,-160.93"/>
<polygon fill="midnightblue" stroke="midnightblue" points="145.99,-164.36 156.57,-163.93 148.02,-157.67 145.99,-164.36"/>
</g>
<!-- Node7 -->
<g id="node7" class="node">
<title>Node7</title>
<g id="a_node7"><a xlink:href="math__util_8c.html#a151b63b8adf9af7e4054b3b84bd226dc" target="_top" xlink:title=" ">
<polygon fill="white" stroke="black" points="158,-126 158,-145 230,-145 230,-126 158,-126"/>
<text text-anchor="middle" x="194" y="-133" font-family="Helvetica,sans-Serif" font-size="10.00">random_int</text>
</a>
</g>
</g>
<!-- Node1&#45;&gt;Node7 -->
<g id="edge7" class="edge">
<title>Node1&#45;&gt;Node7</title>
<path fill="none" stroke="midnightblue" d="M92.39,-122.41C110.03,-124.7 130.18,-127.33 147.8,-129.62"/>
<polygon fill="midnightblue" stroke="midnightblue" points="147.47,-133.1 157.84,-130.92 148.37,-126.16 147.47,-133.1"/>
</g>
<!-- Node9 -->
<g id="node9" class="node">
<title>Node9</title>
<g id="a_node9"><a xlink:href="code__80086E70_8c.html#af0e1570f9594db6104157d24386b80cb" target="_top" xlink:title=" ">
<polygon fill="white" stroke="black" points="128,-88 128,-107 260,-107 260,-88 128,-88"/>
<text text-anchor="middle" x="194" y="-95" font-family="Helvetica,sans-Serif" font-size="10.00">set_obj_direction_angle</text>
</a>
</g>
</g>
<!-- Node1&#45;&gt;Node9 -->
<g id="edge9" class="edge">
<title>Node1&#45;&gt;Node9</title>
<path fill="none" stroke="midnightblue" d="M92.39,-110.59C100.46,-109.54 109.05,-108.43 117.68,-107.3"/>
<polygon fill="midnightblue" stroke="midnightblue" points="118.34,-110.75 127.8,-105.98 117.43,-103.8 118.34,-110.75"/>
</g>
<!-- Node10 -->
<g id="node10" class="node">
<title>Node10</title>
<g id="a_node10"><a xlink:href="code__80086E70_8c.html#a670bd4aa157a5ec3dd6a4f4335a13ea4" target="_top" xlink:title=" ">
<polygon fill="white" stroke="black" points="140.5,-50 140.5,-69 247.5,-69 247.5,-50 140.5,-50"/>
<text text-anchor="middle" x="194" y="-57" font-family="Helvetica,sans-Serif" font-size="10.00">set_obj_origin_pos</text>
</a>
</g>
</g>
<!-- Node1&#45;&gt;Node10 -->
<g id="edge10" class="edge">
<title>Node1&#45;&gt;Node10</title>
<path fill="none" stroke="midnightblue" d="M65.31,-106.92C81.5,-98.68 105.92,-86.85 128,-78.5 133.99,-76.23 140.37,-74.07 146.71,-72.07"/>
<polygon fill="midnightblue" stroke="midnightblue" points="148.02,-75.33 156.57,-69.07 145.99,-68.64 148.02,-75.33"/>
</g>
<!-- Node11 -->
<g id="node11" class="node">
<title>Node11</title>
<g id="a_node11"><a xlink:href="code__80071F00_8c.html#a946b33c1ed166b19b04e4528c3641b9a" target="_top" xlink:title=" ">
<polygon fill="white" stroke="black" points="137.5,-0.5 137.5,-30.5 250.5,-30.5 250.5,-0.5 137.5,-0.5"/>
<text text-anchor="start" x="145.5" y="-18.5" font-family="Helvetica,sans-Serif" font-size="10.00">set_object_flag_unk</text>
<text text-anchor="middle" x="194" y="-7.5" font-family="Helvetica,sans-Serif" font-size="10.00">_054_true</text>
</a>
</g>
</g>
<!-- Node1&#45;&gt;Node11 -->
<g id="edge11" class="edge">
<title>Node1&#45;&gt;Node11</title>
<path fill="none" stroke="midnightblue" d="M55.04,-106.84C68.63,-91.05 97.62,-59.56 128,-40.5 131.16,-38.52 134.49,-36.65 137.92,-34.9"/>
<polygon fill="midnightblue" stroke="midnightblue" points="139.61,-37.98 147.16,-30.54 136.62,-31.65 139.61,-37.98"/>
</g>
<!-- Node3 -->
<g id="node3" class="node">
<title>Node3</title>
<g id="a_node3"><a xlink:href="code__80071F00_8c.html#a9d0d6fe8e02dc86bf4f9f8c8214ee326" target="_top" xlink:title=" ">
<polygon fill="white" stroke="black" points="447,-196.5 447,-226.5 560,-226.5 560,-196.5 447,-196.5"/>
<text text-anchor="start" x="455" y="-214.5" font-family="Helvetica,sans-Serif" font-size="10.00">set_object_flag_unk</text>
<text text-anchor="middle" x="503.5" y="-203.5" font-family="Helvetica,sans-Serif" font-size="10.00">_054_false</text>
</a>
</g>
</g>
<!-- Node2&#45;&gt;Node3 -->
<g id="edge2" class="edge">
<title>Node2&#45;&gt;Node3</title>
<path fill="none" stroke="midnightblue" d="M236.03,-221.01C254.28,-224.78 276.1,-228.64 296,-230.5 346.89,-235.25 360.16,-235.72 411,-230.5 419.35,-229.64 428.07,-228.35 436.66,-226.85"/>
<polygon fill="midnightblue" stroke="midnightblue" points="437.46,-230.26 446.65,-224.99 436.18,-223.37 437.46,-230.26"/>
</g>
<!-- Node4 -->
<g id="node4" class="node">
<title>Node4</title>
<g id="a_node4"><a xlink:href="code__80071F00_8c.html#a4b4f00a7df0f9bc44914cd922c3cd51b" target="_top" xlink:title=" ">
<polygon fill="white" stroke="black" points="296,-202 296,-221 411,-221 411,-202 296,-202"/>
<text text-anchor="middle" x="353.5" y="-209" font-family="Helvetica,sans-Serif" font-size="10.00">set_object_unk_0CB</text>
</a>
</g>
</g>
<!-- Node2&#45;&gt;Node4 -->
<g id="edge3" class="edge">
<title>Node2&#45;&gt;Node4</title>
<path fill="none" stroke="midnightblue" d="M239.71,-211.5C254.04,-211.5 270.22,-211.5 285.76,-211.5"/>
<polygon fill="midnightblue" stroke="midnightblue" points="285.86,-215 295.86,-211.5 285.86,-208 285.86,-215"/>
</g>
<!-- Node6 -->
<g id="node6" class="node">
<title>Node6</title>
<g id="a_node6"><a xlink:href="code__80086E70_8c.html#ad844d2fe27c3f0bb5979715fae72559a" target="_top" xlink:title=" ">
<polygon fill="white" stroke="black" points="308,-164 308,-183 399,-183 399,-164 308,-164"/>
<text text-anchor="middle" x="353.5" y="-171" font-family="Helvetica,sans-Serif" font-size="10.00">func_80086E70</text>
</a>
</g>
</g>
<!-- Node5&#45;&gt;Node6 -->
<g id="edge5" class="edge">
<title>Node5&#45;&gt;Node6</title>
<path fill="none" stroke="midnightblue" d="M239.71,-173.5C257.83,-173.5 278.92,-173.5 297.93,-173.5"/>
<polygon fill="midnightblue" stroke="midnightblue" points="297.95,-177 307.95,-173.5 297.95,-170 297.95,-177"/>
</g>
<!-- Node6&#45;&gt;Node3 -->
<g id="edge6" class="edge">
<title>Node6&#45;&gt;Node3</title>
<path fill="none" stroke="midnightblue" d="M391.85,-183.09C405.54,-186.61 421.48,-190.7 436.93,-194.66"/>
<polygon fill="midnightblue" stroke="midnightblue" points="436.42,-198.15 446.98,-197.24 438.16,-191.37 436.42,-198.15"/>
</g>
<!-- Node8 -->
<g id="node8" class="node">
<title>Node8</title>
<g id="a_node8"><a xlink:href="math__util_8c.html#a062850863585005ad1d0a75d9ff70693" target="_top" xlink:title=" ">
<polygon fill="white" stroke="black" points="315,-126 315,-145 392,-145 392,-126 315,-126"/>
<text text-anchor="middle" x="353.5" y="-133" font-family="Helvetica,sans-Serif" font-size="10.00">random_u16</text>
</a>
</g>
</g>
<!-- Node7&#45;&gt;Node8 -->
<g id="edge8" class="edge">
<title>Node7&#45;&gt;Node8</title>
<path fill="none" stroke="midnightblue" d="M230.35,-135.5C252.23,-135.5 280.62,-135.5 304.52,-135.5"/>
<polygon fill="midnightblue" stroke="midnightblue" points="304.8,-139 314.8,-135.5 304.8,-132 304.8,-139"/>
</g>
</g>
</svg>
        <g id="navigator" transform="translate(0 0)" fill="#404254">
                <rect fill="#f2f5e9" fill-opacity="0.5" stroke="#606060" stroke-width=".5" x="0" y="0" width="60" height="60"/>
                <use id="zoomplus" xlink:href="#zoomPlus" x="17" y="9" onmousedown="handleZoom(evt,'in')"/>
                <use id="zoomminus" xlink:href="#zoomMin" x="42" y="9" onmousedown="handleZoom(evt,'out')"/>
                <use id="reset" xlink:href="#resetDef" x="30" y="36" onmousedown="handleReset()"/>
                <g id="arrowUp" xlink:href="#dirArrow" transform="translate(30 24)" onmousedown="handlePan(0,-1)">
                  <use xlink:href="#rim" fill="#404040">
                        <set attributeName="fill" to="#808080" begin="arrowUp.mouseover" end="arrowUp.mouseout"/>
                  </use>
                  <path fill="none" stroke="white" stroke-width="1.5" d="M0,-3.0v7 M-2.5,-0.5L0,-3.0L2.5,-0.5"/>
                </g>
                <g id="arrowRight" xlink:href="#dirArrow" transform="rotate(90) translate(36 -43)" onmousedown="handlePan(1,0)">
                  <use xlink:href="#rim" fill="#404040">
                        <set attributeName="fill" to="#808080" begin="arrowRight.mouseover" end="arrowRight.mouseout"/>
                  </use>
                  <path fill="none" stroke="white" stroke-width="1.5" d="M0,-3.0v7 M-2.5,-0.5L0,-3.0L2.5,-0.5"/>
                </g>
                <g id="arrowDown" xlink:href="#dirArrow" transform="rotate(180) translate(-30 -48)" onmousedown="handlePan(0,1)">
                  <use xlink:href="#rim" fill="#404040">
                        <set attributeName="fill" to="#808080" begin="arrowDown.mouseover" end="arrowDown.mouseout"/>
                  </use>
                  <path fill="none" stroke="white" stroke-width="1.5" d="M0,-3.0v7 M-2.5,-0.5L0,-3.0L2.5,-0.5"/>
                </g>
                <g id="arrowLeft" xlink:href="#dirArrow" transform="rotate(270) translate(-36 17)" onmousedown="handlePan(-1,0)">
                  <use xlink:href="#rim" fill="#404040">
                        <set attributeName="fill" to="#808080" begin="arrowLeft.mouseover" end="arrowLeft.mouseout"/>
                  </use>
                  <path fill="none" stroke="white" stroke-width="1.5" d="M0,-3.0v7 M-2.5,-0.5L0,-3.0L2.5,-0.5"/>
                </g>
        </g>
        <svg viewBox="0 0 15 15" width="100%" height="30px" preserveAspectRatio="xMaxYMin meet">
         <g id="arrow_out" transform="scale(0.3 0.3)">
          <a xlink:href="code__80071F00_8c_aa7d8d4d4df94d4fde2848c9e5d558f83_cgraph_org.svg" target="_base">
           <rect id="button" ry="5" rx="5" y="6" x="6" height="38" width="38"
                fill="#f2f5e9" fill-opacity="0.5" stroke="#606060" stroke-width="1.0"/>
           <path id="arrow"
             d="M 11.500037,31.436501 C 11.940474,20.09759 22.043105,11.32322 32.158766,21.979434 L 37.068811,17.246167 C 37.068811,17.246167 37.088388,32 37.088388,32 L 22.160133,31.978069 C 22.160133,31.978069 26.997745,27.140456 26.997745,27.140456 C 18.528582,18.264221 13.291696,25.230495 11.500037,31.436501 z"
             style="fill:#404040;"/>
          </a>
         </g>
        </svg>
</svg>
