<?xml version="1.0" encoding="UTF-8" standalone="no"?>
<!DOCTYPE svg PUBLIC "-//W3C//DTD SVG 1.1//EN"
 "http://www.w3.org/Graphics/SVG/1.1/DTD/svg11.dtd">
<!-- Generated by graphviz version 2.43.0 (0)
 -->
<!-- Title: mtxf_translate_rotate2 Pages: 1 -->
<svg width="211pt" height="66pt"
 viewBox="0.00 0.00 211.00 66.00" xmlns="http://www.w3.org/2000/svg" xmlns:xlink="http://www.w3.org/1999/xlink">
<g id="graph0" class="graph" transform="scale(1 1) rotate(0) translate(4 62)">
<title>mtxf_translate_rotate2</title>
<polygon fill="white" stroke="transparent" points="-4,4 -4,-62 207,-62 207,4 -4,4"/>
<!-- Node1 -->
<g id="node1" class="node">
<title>Node1</title>
<g id="a_node1"><a xlink:title=" ">
<polygon fill="#bfbfbf" stroke="black" points="0,-19.5 0,-38.5 129,-38.5 129,-19.5 0,-19.5"/>
<text text-anchor="middle" x="64.5" y="-26.5" font-family="Helvetica,sans-Serif" font-size="10.00">mtxf_translate_rotate2</text>
</a>
</g>
</g>
<!-- Node2 -->
<g id="node2" class="node">
<title>Node2</title>
<g id="a_node2"><a xlink:href="math__util_8c.html#ae69cbf5c8d4b3b0dba2d7b4d4673689f" target="_top" xlink:title=" ">
<polygon fill="white" stroke="black" points="165,-38.5 165,-57.5 203,-57.5 203,-38.5 165,-38.5"/>
<text text-anchor="middle" x="184" y="-45.5" font-family="Helvetica,sans-Serif" font-size="10.00">coss</text>
</a>
</g>
</g>
<!-- Node1&#45;&gt;Node2 -->
<g id="edge1" class="edge">
<title>Node1&#45;&gt;Node2</title>
<path fill="none" stroke="midnightblue" d="M124.59,-38.56C135.11,-40.26 145.61,-41.95 154.75,-43.43"/>
<polygon fill="midnightblue" stroke="midnightblue" points="154.34,-46.91 164.77,-45.05 155.46,-40 154.34,-46.91"/>
</g>
<!-- Node3 -->
<g id="node3" class="node">
<title>Node3</title>
<g id="a_node3"><a xlink:href="math__util_8c.html#a19ed3bd78fd2d3e2bd0a29f6caf48545" target="_top" xlink:title=" ">
<polygon fill="white" stroke="black" points="166,-0.5 166,-19.5 202,-19.5 202,-0.5 166,-0.5"/>
<text text-anchor="middle" x="184" y="-7.5" font-family="Helvetica,sans-Serif" font-size="10.00">sins</text>
</a>
</g>
</g>
<!-- Node1&#45;&gt;Node3 -->
<g id="edge2" class="edge">
<title>Node1&#45;&gt;Node3</title>
<path fill="none" stroke="midnightblue" d="M124.59,-19.44C135.56,-17.67 146.5,-15.9 155.9,-14.38"/>
<polygon fill="midnightblue" stroke="midnightblue" points="156.47,-17.84 165.78,-12.78 155.35,-10.92 156.47,-17.84"/>
</g>
</g>
</svg>
