<?xml version="1.0" encoding="UTF-8" standalone="no"?>
<!DOCTYPE svg PUBLIC "-//W3C//DTD SVG 1.1//EN"
 "http://www.w3.org/Graphics/SVG/1.1/DTD/svg11.dtd">
<!-- Generated by graphviz version 2.43.0 (0)
 -->
<!-- Title: func_8006199C Pages: 1 -->
<svg width="494pt" height="224pt"
 viewBox="0.00 0.00 494.00 224.00" xmlns="http://www.w3.org/2000/svg" xmlns:xlink="http://www.w3.org/1999/xlink">
<g id="graph0" class="graph" transform="scale(1 1) rotate(0) translate(4 220)">
<title>func_8006199C</title>
<!-- Node1 -->
<g id="Node000001" class="node">
<title>Node1</title>
<g id="a_Node000001"><a xlink:title=" ">
<polygon fill="#999999" stroke="#666666" points="92,-123 0,-123 0,-104 92,-104 92,-123"/>
<text text-anchor="middle" x="46" y="-111" font-family="Helvetica,sans-Serif" font-size="10.00">func_8006199C</text>
</a>
</g>
</g>
<!-- Node2 -->
<g id="Node000002" class="node">
<title>Node2</title>
<g id="a_Node000002"><a xlink:href="code__80057C60_8c.html#a610c31fa275f90df73a77baf5c263cb7" target="_top" xlink:title=" ">
<polygon fill="white" stroke="#666666" points="219,-123 128,-123 128,-104 219,-104 219,-123"/>
<text text-anchor="middle" x="173.5" y="-111" font-family="Helvetica,sans-Serif" font-size="10.00">func_80061754</text>
</a>
</g>
</g>
<!-- Node1&#45;&gt;Node2 -->
<g id="edge1_Node000001_Node000002" class="edge">
<title>Node1&#45;&gt;Node2</title>
<g id="a_edge1_Node000001_Node000002"><a xlink:title=" ">
<path fill="none" stroke="#63b8ff" d="M92.31,-113.5C100.49,-113.5 109.11,-113.5 117.54,-113.5"/>
<polygon fill="#63b8ff" stroke="#63b8ff" points="117.68,-117 127.68,-113.5 117.68,-110 117.68,-117"/>
</a>
</g>
</g>
<!-- Node3 -->
<g id="Node000003" class="node">
<title>Node3</title>
<g id="a_Node000003"><a xlink:href="math__util_8c.html#a5eb0d9752bc1557b7f4ae3809352a0eb" target="_top" xlink:title=" ">
<polygon fill="white" stroke="#666666" points="333,-216 295,-216 295,-197 333,-197 333,-216"/>
<text text-anchor="middle" x="314" y="-204" font-family="Helvetica,sans-Serif" font-size="10.00">coss</text>
</a>
</g>
</g>
<!-- Node2&#45;&gt;Node3 -->
<g id="edge2_Node000002_Node000003" class="edge">
<title>Node2&#45;&gt;Node3</title>
<g id="a_edge2_Node000002_Node000003"><a xlink:title=" ">
<path fill="none" stroke="#63b8ff" d="M182.16,-123C195.39,-138.82 224.1,-170.58 255,-188.5 264.21,-193.84 275.17,-197.77 285.07,-200.56"/>
<polygon fill="#63b8ff" stroke="#63b8ff" points="284.34,-203.99 294.89,-203.08 286.08,-197.21 284.34,-203.99"/>
</a>
</g>
</g>
<!-- Node4 -->
<g id="Node000004" class="node">
<title>Node4</title>
<g id="a_Node000004"><a xlink:href="code__80057C60_8c.html#a1272a6c50cfec9b141d07f72a0e2f2c5" target="_top" xlink:title=" ">
<polygon fill="white" stroke="#666666" points="369,-179 259,-179 259,-160 369,-160 369,-179"/>
<text text-anchor="middle" x="314" y="-167" font-family="Helvetica,sans-Serif" font-size="10.00">init_particle_player</text>
</a>
</g>
</g>
<!-- Node2&#45;&gt;Node4 -->
<g id="edge3_Node000002_Node000004" class="edge">
<title>Node2&#45;&gt;Node4</title>
<g id="a_edge3_Node000002_Node000004"><a xlink:title=" ">
<path fill="none" stroke="#63b8ff" d="M192.72,-123C208.83,-131.18 233.11,-142.98 255,-151.5 259.73,-153.34 264.73,-155.12 269.74,-156.81"/>
<polygon fill="#63b8ff" stroke="#63b8ff" points="268.7,-160.15 279.29,-159.91 270.86,-153.5 268.7,-160.15"/>
</a>
</g>
</g>
<!-- Node5 -->
<g id="Node000005" class="node">
<title>Node5</title>
<g id="a_Node000005"><a xlink:href="math__util_8c.html#a151b63b8adf9af7e4054b3b84bd226dc" target="_top" xlink:title=" ">
<polygon fill="white" stroke="#666666" points="350,-142 278,-142 278,-123 350,-123 350,-142"/>
<text text-anchor="middle" x="314" y="-130" font-family="Helvetica,sans-Serif" font-size="10.00">random_int</text>
</a>
</g>
</g>
<!-- Node2&#45;&gt;Node5 -->
<g id="edge4_Node000002_Node000005" class="edge">
<title>Node2&#45;&gt;Node5</title>
<g id="a_edge4_Node000002_Node000005"><a xlink:title=" ">
<path fill="none" stroke="#63b8ff" d="M219.08,-119.62C234.65,-121.75 252.13,-124.15 267.76,-126.29"/>
<polygon fill="#63b8ff" stroke="#63b8ff" points="267.33,-129.77 277.71,-127.66 268.28,-122.83 267.33,-129.77"/>
</a>
</g>
</g>
<!-- Node7 -->
<g id="Node000007" class="node">
<title>Node7</title>
<g id="a_Node000007"><a xlink:href="code__80057C60_8c.html#a4ae339f479dc4885b0af81962c9963c8" target="_top" xlink:title=" ">
<polygon fill="white" stroke="#666666" points="368.5,-105 259.5,-105 259.5,-86 368.5,-86 368.5,-105"/>
<text text-anchor="middle" x="314" y="-93" font-family="Helvetica,sans-Serif" font-size="10.00">set_particle_colour</text>
</a>
</g>
</g>
<!-- Node2&#45;&gt;Node7 -->
<g id="edge6_Node000002_Node000007" class="edge">
<title>Node2&#45;&gt;Node7</title>
<g id="a_edge6_Node000002_Node000007"><a xlink:title=" ">
<path fill="none" stroke="#63b8ff" d="M219.08,-107.71C228.69,-106.46 239.03,-105.11 249.21,-103.79"/>
<polygon fill="#63b8ff" stroke="#63b8ff" points="249.84,-107.24 259.3,-102.48 248.93,-100.3 249.84,-107.24"/>
</a>
</g>
</g>
<!-- Node8 -->
<g id="Node000008" class="node">
<title>Node8</title>
<g id="a_Node000008"><a xlink:href="code__80057C60_8c.html#a35301423811a1f1a26d5cf4f2031696b" target="_top" xlink:title=" ">
<polygon fill="white" stroke="#666666" points="373,-67.5 255,-67.5 255,-37.5 373,-37.5 373,-67.5"/>
<text text-anchor="start" x="263" y="-55.5" font-family="Helvetica,sans-Serif" font-size="10.00">set_particle_position</text>
<text text-anchor="middle" x="314" y="-44.5" font-family="Helvetica,sans-Serif" font-size="10.00">_and_rotation</text>
</a>
</g>
</g>
<!-- Node2&#45;&gt;Node8 -->
<g id="edge7_Node000002_Node000008" class="edge">
<title>Node2&#45;&gt;Node8</title>
<g id="a_edge7_Node000002_Node000008"><a xlink:title=" ">
<path fill="none" stroke="#63b8ff" d="M195.65,-103.95C211.87,-96.65 234.81,-86.36 255,-77.5 259.35,-75.59 263.89,-73.61 268.43,-71.64"/>
<polygon fill="#63b8ff" stroke="#63b8ff" points="269.91,-74.81 277.69,-67.63 267.13,-68.39 269.91,-74.81"/>
</a>
</g>
</g>
<!-- Node9 -->
<g id="Node000009" class="node">
<title>Node9</title>
<g id="a_Node000009"><a xlink:href="math__util_8c.html#adcf81d47666b5d86c4a1dbcb06e47faf" target="_top" xlink:title=" ">
<polygon fill="white" stroke="#666666" points="332,-19 296,-19 296,0 332,0 332,-19"/>
<text text-anchor="middle" x="314" y="-7" font-family="Helvetica,sans-Serif" font-size="10.00">sins</text>
</a>
</g>
</g>
<!-- Node2&#45;&gt;Node9 -->
<g id="edge8_Node000002_Node000009" class="edge">
<title>Node2&#45;&gt;Node9</title>
<g id="a_edge8_Node000002_Node000009"><a xlink:title=" ">
<path fill="none" stroke="#63b8ff" d="M181.09,-103.86C193.54,-86.36 222.2,-49.27 255,-28.5 264.4,-22.55 275.85,-18.28 286.08,-15.32"/>
<polygon fill="#63b8ff" stroke="#63b8ff" points="287,-18.7 295.79,-12.78 285.23,-11.93 287,-18.7"/>
</a>
</g>
</g>
<!-- Node6 -->
<g id="Node000006" class="node">
<title>Node6</title>
<g id="a_Node000006"><a xlink:href="math__util_8c.html#a062850863585005ad1d0a75d9ff70693" target="_top" xlink:title=" ">
<polygon fill="white" stroke="#666666" points="486,-142 409,-142 409,-123 486,-123 486,-142"/>
<text text-anchor="middle" x="447.5" y="-130" font-family="Helvetica,sans-Serif" font-size="10.00">random_u16</text>
</a>
</g>
</g>
<!-- Node5&#45;&gt;Node6 -->
<g id="edge5_Node000005_Node000006" class="edge">
<title>Node5&#45;&gt;Node6</title>
<g id="a_edge5_Node000005_Node000006"><a xlink:title=" ">
<path fill="none" stroke="#63b8ff" d="M350.24,-132.5C365.09,-132.5 382.61,-132.5 398.61,-132.5"/>
<polygon fill="#63b8ff" stroke="#63b8ff" points="398.86,-136 408.86,-132.5 398.86,-129 398.86,-136"/>
</a>
</g>
</g>
</g>
</svg>
