<?xml version="1.0" encoding="UTF-8" standalone="no"?>
<!DOCTYPE svg PUBLIC "-//W3C//DTD SVG 1.1//EN"
 "http://www.w3.org/Graphics/SVG/1.1/DTD/svg11.dtd">
<!-- Generated by graphviz version 2.43.0 (0)
 -->
<!-- Title: src/code_80004740.h Pages: 1 -->
<svg width="1336pt" height="308pt"
 viewBox="0.00 0.00 1336.16 308.00" xmlns="http://www.w3.org/2000/svg" xmlns:xlink="http://www.w3.org/1999/xlink">
<g id="graph0" class="graph" transform="scale(1 1) rotate(0) translate(4 304)">
<title>src/code_80004740.h</title>
<polygon fill="white" stroke="transparent" points="-4,4 -4,-304 1332.16,-304 1332.16,4 -4,4"/>
<!-- Node1 -->
<g id="node1" class="node">
<title>Node1</title>
<g id="a_node1"><a xlink:title=" ">
<polygon fill="#bfbfbf" stroke="black" points="792.5,-280.5 792.5,-299.5 911.5,-299.5 911.5,-280.5 792.5,-280.5"/>
<text text-anchor="middle" x="852" y="-287.5" font-family="Helvetica,sans-Serif" font-size="10.00">src/code_80004740.h</text>
</a>
</g>
</g>
<!-- Node2 -->
<g id="node2" class="node">
<title>Node2</title>
<g id="a_node2"><a xlink:href="code__80004740_8c.html" target="_top" xlink:title=" ">
<polygon fill="white" stroke="black" points="490.5,-224.5 490.5,-243.5 609.5,-243.5 609.5,-224.5 490.5,-224.5"/>
<text text-anchor="middle" x="550" y="-231.5" font-family="Helvetica,sans-Serif" font-size="10.00">src/code_80004740.c</text>
</a>
</g>
</g>
<!-- Node1&#45;&gt;Node2 -->
<g id="edge1" class="edge">
<title>Node1&#45;&gt;Node2</title>
<path fill="none" stroke="midnightblue" d="M794.2,-278.66C737.12,-268.46 650.88,-253.04 597.63,-243.52"/>
<polygon fill="midnightblue" stroke="midnightblue" points="793.69,-282.13 804.15,-280.44 794.92,-275.24 793.69,-282.13"/>
</g>
<!-- Node3 -->
<g id="node3" class="node">
<title>Node3</title>
<g id="a_node3"><a xlink:href="code__80071F00_8h.html" target="_top" xlink:title=" ">
<polygon fill="white" stroke="black" points="627.5,-224.5 627.5,-243.5 746.5,-243.5 746.5,-224.5 627.5,-224.5"/>
<text text-anchor="middle" x="687" y="-231.5" font-family="Helvetica,sans-Serif" font-size="10.00">src/code_80071F00.h</text>
</a>
</g>
</g>
<!-- Node1&#45;&gt;Node3 -->
<g id="edge2" class="edge">
<title>Node1&#45;&gt;Node3</title>
<path fill="none" stroke="midnightblue" d="M816.26,-277.3C785.17,-267.13 740.85,-252.62 713.02,-243.52"/>
<polygon fill="midnightblue" stroke="midnightblue" points="815.26,-280.66 825.86,-280.44 817.44,-274.01 815.26,-280.66"/>
</g>
<!-- Node9 -->
<g id="node9" class="node">
<title>Node9</title>
<g id="a_node9"><a xlink:href="all__variables_8h.html" target="_top" xlink:title=" ">
<polygon fill="white" stroke="black" points="720,-112.5 720,-131.5 858,-131.5 858,-112.5 720,-112.5"/>
<text text-anchor="middle" x="789" y="-119.5" font-family="Helvetica,sans-Serif" font-size="10.00">src/debug/all_variables.h</text>
</a>
</g>
</g>
<!-- Node1&#45;&gt;Node9 -->
<g id="edge21" class="edge">
<title>Node1&#45;&gt;Node9</title>
<path fill="none" stroke="midnightblue" d="M921.73,-282.65C1065.59,-268.2 1377.36,-229.33 1321,-168 1290.29,-134.58 995.12,-125.96 858.17,-123.75"/>
<polygon fill="midnightblue" stroke="midnightblue" points="921.27,-279.17 911.67,-283.64 921.96,-286.14 921.27,-279.17"/>
</g>
<!-- Node16 -->
<g id="node16" class="node">
<title>Node16</title>
<g id="a_node16"><a xlink:href="hud__renderer_8c.html" target="_top" xlink:title=" ">
<polygon fill="white" stroke="black" points="1206,-168.5 1206,-187.5 1312,-187.5 1312,-168.5 1206,-168.5"/>
<text text-anchor="middle" x="1259" y="-175.5" font-family="Helvetica,sans-Serif" font-size="10.00">src/hud_renderer.c</text>
</a>
</g>
</g>
<!-- Node1&#45;&gt;Node16 -->
<g id="edge22" class="edge">
<title>Node1&#45;&gt;Node16</title>
<path fill="none" stroke="midnightblue" d="M893.51,-277.78C975.07,-255.74 1154.63,-207.21 1227.42,-187.53"/>
<polygon fill="midnightblue" stroke="midnightblue" points="892.34,-274.47 883.6,-280.46 894.16,-281.23 892.34,-274.47"/>
</g>
<!-- Node4 -->
<g id="node4" class="node">
<title>Node4</title>
<g id="a_node4"><a xlink:href="code__80005FD0_8c.html" target="_top" xlink:title=" ">
<polygon fill="white" stroke="black" points="0,-168.5 0,-187.5 120,-187.5 120,-168.5 0,-168.5"/>
<text text-anchor="middle" x="60" y="-175.5" font-family="Helvetica,sans-Serif" font-size="10.00">src/code_80005FD0.c</text>
</a>
</g>
</g>
<!-- Node3&#45;&gt;Node4 -->
<g id="edge3" class="edge">
<title>Node3&#45;&gt;Node4</title>
<path fill="none" stroke="midnightblue" d="M617.04,-223.96C399.49,-202.14 342.52,-209.77 129,-188 126.12,-187.71 123.17,-187.39 120.19,-187.05"/>
<polygon fill="midnightblue" stroke="midnightblue" points="616.88,-227.46 627.18,-224.99 617.59,-220.5 616.88,-227.46"/>
</g>
<!-- Node5 -->
<g id="node5" class="node">
<title>Node5</title>
<g id="a_node5"><a xlink:href="code__80057C60_8c.html" target="_top" xlink:title=" ">
<polygon fill="white" stroke="black" points="138.5,-168.5 138.5,-187.5 257.5,-187.5 257.5,-168.5 138.5,-168.5"/>
<text text-anchor="middle" x="198" y="-175.5" font-family="Helvetica,sans-Serif" font-size="10.00">src/code_80057C60.c</text>
</a>
</g>
</g>
<!-- Node3&#45;&gt;Node5 -->
<g id="edge4" class="edge">
<title>Node3&#45;&gt;Node5</title>
<path fill="none" stroke="midnightblue" d="M616.85,-223.89C462.72,-205.96 422.33,-204.96 272,-188 267.37,-187.48 262.58,-186.92 257.76,-186.36"/>
<polygon fill="midnightblue" stroke="midnightblue" points="616.83,-227.42 627.17,-225.1 617.65,-220.46 616.83,-227.42"/>
</g>
<!-- Node6 -->
<g id="node6" class="node">
<title>Node6</title>
<g id="a_node6"><a xlink:href="code__8006E9C0_8c.html" target="_top" xlink:title=" ">
<polygon fill="white" stroke="black" points="99.5,-112.5 99.5,-131.5 218.5,-131.5 218.5,-112.5 99.5,-112.5"/>
<text text-anchor="middle" x="159" y="-119.5" font-family="Helvetica,sans-Serif" font-size="10.00">src/code_8006E9C0.c</text>
</a>
</g>
</g>
<!-- Node3&#45;&gt;Node6 -->
<g id="edge5" class="edge">
<title>Node3&#45;&gt;Node6</title>
<path fill="none" stroke="midnightblue" d="M616.93,-223.92C477.09,-207.92 435.87,-227.65 305,-188 286.36,-182.35 283.66,-176.23 266,-168 236.96,-154.47 202.71,-140.39 180.93,-131.66"/>
<polygon fill="midnightblue" stroke="midnightblue" points="616.83,-227.44 627.17,-225.14 617.65,-220.49 616.83,-227.44"/>
</g>
<!-- Node7 -->
<g id="node7" class="node">
<title>Node7</title>
<g id="a_node7"><a xlink:href="code__8006E9C0_8h.html" target="_top" xlink:title=" ">
<polygon fill="white" stroke="black" points="314,-168.5 314,-187.5 434,-187.5 434,-168.5 314,-168.5"/>
<text text-anchor="middle" x="374" y="-175.5" font-family="Helvetica,sans-Serif" font-size="10.00">src/code_8006E9C0.h</text>
</a>
</g>
</g>
<!-- Node3&#45;&gt;Node7 -->
<g id="edge6" class="edge">
<title>Node3&#45;&gt;Node7</title>
<path fill="none" stroke="midnightblue" d="M627.46,-222.73C568.31,-212.52 478.67,-197.06 423.36,-187.52"/>
<polygon fill="midnightblue" stroke="midnightblue" points="626.95,-226.19 637.4,-224.44 628.14,-219.29 626.95,-226.19"/>
</g>
<!-- Node3&#45;&gt;Node9 -->
<g id="edge16" class="edge">
<title>Node3&#45;&gt;Node9</title>
<path fill="none" stroke="midnightblue" d="M621.24,-222.84C564.39,-213.38 489.95,-199.11 481,-188 475.43,-181.08 475.19,-174.72 481,-168 484.95,-163.43 633.96,-143.25 723.24,-131.52"/>
<polygon fill="midnightblue" stroke="midnightblue" points="620.83,-226.32 631.27,-224.49 621.97,-219.41 620.83,-226.32"/>
</g>
<!-- Node14 -->
<g id="node14" class="node">
<title>Node14</title>
<g id="a_node14"><a xlink:href="code__80071F00_8c.html" target="_top" xlink:title=" ">
<polygon fill="white" stroke="black" points="490.5,-168.5 490.5,-187.5 609.5,-187.5 609.5,-168.5 490.5,-168.5"/>
<text text-anchor="middle" x="550" y="-175.5" font-family="Helvetica,sans-Serif" font-size="10.00">src/code_80071F00.c</text>
</a>
</g>
</g>
<!-- Node3&#45;&gt;Node14 -->
<g id="edge14" class="edge">
<title>Node3&#45;&gt;Node14</title>
<path fill="none" stroke="midnightblue" d="M655.98,-220.77C630.24,-210.63 594.31,-196.47 571.61,-187.52"/>
<polygon fill="midnightblue" stroke="midnightblue" points="654.71,-224.03 665.29,-224.44 657.27,-217.52 654.71,-224.03"/>
</g>
<!-- Node15 -->
<g id="node15" class="node">
<title>Node15</title>
<g id="a_node15"><a xlink:href="code__80086E70_8c.html" target="_top" xlink:title=" ">
<polygon fill="white" stroke="black" points="627.5,-168.5 627.5,-187.5 746.5,-187.5 746.5,-168.5 627.5,-168.5"/>
<text text-anchor="middle" x="687" y="-175.5" font-family="Helvetica,sans-Serif" font-size="10.00">src/code_80086E70.c</text>
</a>
</g>
</g>
<!-- Node3&#45;&gt;Node15 -->
<g id="edge15" class="edge">
<title>Node3&#45;&gt;Node15</title>
<path fill="none" stroke="midnightblue" d="M687,-213.8C687,-204.91 687,-194.78 687,-187.75"/>
<polygon fill="midnightblue" stroke="midnightblue" points="683.5,-214.08 687,-224.08 690.5,-214.08 683.5,-214.08"/>
</g>
<!-- Node3&#45;&gt;Node16 -->
<g id="edge17" class="edge">
<title>Node3&#45;&gt;Node16</title>
<path fill="none" stroke="midnightblue" d="M756.75,-228.03C854.93,-220.75 1039.39,-206.1 1196,-188 1199.18,-187.63 1202.45,-187.23 1205.75,-186.81"/>
<polygon fill="midnightblue" stroke="midnightblue" points="756.38,-224.54 746.66,-228.77 756.89,-231.52 756.38,-224.54"/>
</g>
<!-- Node17 -->
<g id="node17" class="node">
<title>Node17</title>
<g id="a_node17"><a xlink:href="actors_8c.html" target="_top" xlink:title=" ">
<polygon fill="white" stroke="black" points="764.5,-168.5 764.5,-187.5 869.5,-187.5 869.5,-168.5 764.5,-168.5"/>
<text text-anchor="middle" x="817" y="-175.5" font-family="Helvetica,sans-Serif" font-size="10.00">src/racing/actors.c</text>
</a>
</g>
</g>
<!-- Node3&#45;&gt;Node17 -->
<g id="edge18" class="edge">
<title>Node3&#45;&gt;Node17</title>
<path fill="none" stroke="midnightblue" d="M717.09,-220.5C741.46,-210.38 775.14,-196.39 796.5,-187.52"/>
<polygon fill="midnightblue" stroke="midnightblue" points="715.49,-217.38 707.6,-224.44 718.18,-223.84 715.49,-217.38"/>
</g>
<!-- Node18 -->
<g id="node18" class="node">
<title>Node18</title>
<g id="a_node18"><a xlink:href="actors__extended_8c.html" target="_top" xlink:title=" ">
<polygon fill="white" stroke="black" points="888,-168.5 888,-187.5 1044,-187.5 1044,-168.5 888,-168.5"/>
<text text-anchor="middle" x="966" y="-175.5" font-family="Helvetica,sans-Serif" font-size="10.00">src/racing/actors_extended.c</text>
</a>
</g>
</g>
<!-- Node3&#45;&gt;Node18 -->
<g id="edge19" class="edge">
<title>Node3&#45;&gt;Node18</title>
<path fill="none" stroke="midnightblue" d="M741.06,-222.54C793.79,-212.33 873,-197 922,-187.52"/>
<polygon fill="midnightblue" stroke="midnightblue" points="740.36,-219.11 731.21,-224.44 741.69,-225.98 740.36,-219.11"/>
</g>
<!-- Node19 -->
<g id="node19" class="node">
<title>Node19</title>
<g id="a_node19"><a xlink:href="race__logic_8c.html" target="_top" xlink:title=" ">
<polygon fill="white" stroke="black" points="1062.5,-168.5 1062.5,-187.5 1187.5,-187.5 1187.5,-168.5 1062.5,-168.5"/>
<text text-anchor="middle" x="1125" y="-175.5" font-family="Helvetica,sans-Serif" font-size="10.00">src/racing/race_logic.c</text>
</a>
</g>
</g>
<!-- Node3&#45;&gt;Node19 -->
<g id="edge20" class="edge">
<title>Node3&#45;&gt;Node19</title>
<path fill="none" stroke="midnightblue" d="M756.67,-224.48C830.31,-215.46 949.84,-200.79 1053,-188 1056,-187.63 1059.07,-187.25 1062.17,-186.86"/>
<polygon fill="midnightblue" stroke="midnightblue" points="756.1,-221.02 746.59,-225.71 756.95,-227.97 756.1,-221.02"/>
</g>
<!-- Node7&#45;&gt;Node6 -->
<g id="edge8" class="edge">
<title>Node7&#45;&gt;Node6</title>
<path fill="none" stroke="midnightblue" d="M330.04,-165.96C289.43,-155.76 229.96,-140.82 192.91,-131.52"/>
<polygon fill="midnightblue" stroke="midnightblue" points="329.38,-169.4 339.93,-168.44 331.09,-162.61 329.38,-169.4"/>
</g>
<!-- Node8 -->
<g id="node8" class="node">
<title>Node8</title>
<g id="a_node8"><a xlink:href="code__800029B0_8c.html" target="_top" xlink:title=" ">
<polygon fill="white" stroke="black" points="236.5,-112.5 236.5,-131.5 355.5,-131.5 355.5,-112.5 236.5,-112.5"/>
<text text-anchor="middle" x="296" y="-119.5" font-family="Helvetica,sans-Serif" font-size="10.00">src/code_800029B0.c</text>
</a>
</g>
</g>
<!-- Node7&#45;&gt;Node8 -->
<g id="edge7" class="edge">
<title>Node7&#45;&gt;Node8</title>
<path fill="none" stroke="midnightblue" d="M353.23,-162.62C338.98,-152.76 320.54,-139.99 308.5,-131.65"/>
<polygon fill="midnightblue" stroke="midnightblue" points="351.25,-165.51 361.47,-168.32 355.24,-159.75 351.25,-165.51"/>
</g>
<!-- Node7&#45;&gt;Node9 -->
<g id="edge9" class="edge">
<title>Node7&#45;&gt;Node9</title>
<path fill="none" stroke="midnightblue" d="M444.57,-167.82C522.64,-157.66 647.44,-141.42 723.44,-131.53"/>
<polygon fill="midnightblue" stroke="midnightblue" points="443.81,-164.39 434.34,-169.15 444.71,-171.33 443.81,-164.39"/>
</g>
<!-- Node12 -->
<g id="node12" class="node">
<title>Node12</title>
<g id="a_node12"><a xlink:href="code__80280000_8c.html" target="_top" xlink:title=" ">
<polygon fill="white" stroke="black" points="373.5,-112.5 373.5,-131.5 528.5,-131.5 528.5,-112.5 373.5,-112.5"/>
<text text-anchor="middle" x="451" y="-119.5" font-family="Helvetica,sans-Serif" font-size="10.00">src/ending/code_80280000.c</text>
</a>
</g>
</g>
<!-- Node7&#45;&gt;Node12 -->
<g id="edge12" class="edge">
<title>Node7&#45;&gt;Node12</title>
<path fill="none" stroke="midnightblue" d="M394.9,-162.34C408.91,-152.52 426.88,-139.91 438.66,-131.65"/>
<polygon fill="midnightblue" stroke="midnightblue" points="392.55,-159.72 386.37,-168.32 396.57,-165.45 392.55,-159.72"/>
</g>
<!-- Node13 -->
<g id="node13" class="node">
<title>Node13</title>
<g id="a_node13"><a xlink:href="code__80281780_8c.html" target="_top" xlink:title=" ">
<polygon fill="white" stroke="black" points="546.5,-112.5 546.5,-131.5 701.5,-131.5 701.5,-112.5 546.5,-112.5"/>
<text text-anchor="middle" x="624" y="-119.5" font-family="Helvetica,sans-Serif" font-size="10.00">src/ending/code_80281780.c</text>
</a>
</g>
</g>
<!-- Node7&#45;&gt;Node13 -->
<g id="edge13" class="edge">
<title>Node7&#45;&gt;Node13</title>
<path fill="none" stroke="midnightblue" d="M423.62,-166.28C470.87,-156.08 541.04,-140.92 584.57,-131.52"/>
<polygon fill="midnightblue" stroke="midnightblue" points="422.65,-162.91 413.61,-168.44 424.13,-169.75 422.65,-162.91"/>
</g>
<!-- Node10 -->
<g id="node10" class="node">
<title>Node10</title>
<g id="a_node10"><a xlink:href="debug_8inc_8c.html" target="_top" xlink:title=" ">
<polygon fill="white" stroke="black" points="728,-56.5 728,-75.5 850,-75.5 850,-56.5 728,-56.5"/>
<text text-anchor="middle" x="789" y="-63.5" font-family="Helvetica,sans-Serif" font-size="10.00">src/debug/debug.inc.c</text>
</a>
</g>
</g>
<!-- Node9&#45;&gt;Node10 -->
<g id="edge10" class="edge">
<title>Node9&#45;&gt;Node10</title>
<path fill="none" stroke="midnightblue" d="M789,-101.8C789,-92.91 789,-82.78 789,-75.75"/>
<polygon fill="midnightblue" stroke="midnightblue" points="785.5,-102.08 789,-112.08 792.5,-102.08 785.5,-102.08"/>
</g>
<!-- Node11 -->
<g id="node11" class="node">
<title>Node11</title>
<g id="a_node11"><a xlink:href="debug_8c.html" target="_top" xlink:title=" ">
<polygon fill="white" stroke="black" points="736.5,-0.5 736.5,-19.5 841.5,-19.5 841.5,-0.5 736.5,-0.5"/>
<text text-anchor="middle" x="789" y="-7.5" font-family="Helvetica,sans-Serif" font-size="10.00">src/debug/debug.c</text>
</a>
</g>
</g>
<!-- Node10&#45;&gt;Node11 -->
<g id="edge11" class="edge">
<title>Node10&#45;&gt;Node11</title>
<path fill="none" stroke="midnightblue" d="M789,-45.8C789,-36.91 789,-26.78 789,-19.75"/>
<polygon fill="midnightblue" stroke="midnightblue" points="785.5,-46.08 789,-56.08 792.5,-46.08 785.5,-46.08"/>
</g>
</g>
</svg>
