<?xml version="1.0" encoding="UTF-8" standalone="no"?>
<!DOCTYPE svg PUBLIC "-//W3C//DTD SVG 1.1//EN"
 "http://www.w3.org/Graphics/SVG/1.1/DTD/svg11.dtd">
<!-- Generated by graphviz version 2.43.0 (0)
 -->
<!-- Title: func_802ABE30 Pages: 1 -->
<!--zoomable 1052 -->
<svg id="main" version="1.1" xmlns="http://www.w3.org/2000/svg" xmlns:xlink="http://www.w3.org/1999/xlink" xml:space="preserve" onload="init(evt)">
<style type="text/css"><![CDATA[
.edge:hover path { stroke: red; }
.edge:hover polygon { stroke: red; fill: red; }
]]></style>
<script type="text/javascript"><![CDATA[
var edges = document.getElementsByTagName('g');
if (edges && edges.length) {
  for (var i=0;i<edges.length;i++) {
    if (edges[i].id.substr(0,4)=='edge') {
      edges[i].setAttribute('class','edge');
    }
  }
}
]]></script>
        <defs>
                <circle id="rim" cx="0" cy="0" r="7"/>
                <circle id="rim2" cx="0" cy="0" r="3.5"/>
                <g id="zoomPlus">
                        <use xlink:href="#rim" fill="#404040">
                                <set attributeName="fill" to="#808080" begin="zoomplus.mouseover" end="zoomplus.mouseout"/>
                        </use>
                        <path d="M-4,0h8M0,-4v8" fill="none" stroke="white" stroke-width="1.5" pointer-events="none"/>
                </g>
                <g id="zoomMin">
                        <use xlink:href="#rim" fill="#404040">
                                <set attributeName="fill" to="#808080" begin="zoomminus.mouseover" end="zoomminus.mouseout"/>
                        </use>
                        <path d="M-4,0h8" fill="none" stroke="white" stroke-width="1.5" pointer-events="none"/>
                </g>
                <g id="dirArrow">
                        <path fill="none" stroke="white" stroke-width="1.5" d="M0,-3.0v7 M-2.5,-0.5L0,-3.0L2.5,-0.5"/>
                </g>
               <g id="resetDef">
                       <use xlink:href="#rim2" fill="#404040">
                               <set attributeName="fill" to="#808080" begin="reset.mouseover" end="reset.mouseout"/>
                       </use>
               </g>
        </defs>

<script type="text/javascript">
var viewWidth = 973;
var viewHeight = 1052;
var sectionId = 'dynsection-18';
</script>
<script xlink:href="svgpan.js"/>
<svg id="graph" class="graph">
<g id="viewport">
<title>func_802ABE30</title>
<polygon fill="white" stroke="transparent" points="-4,4 -4,-1048.28 969,-1048.28 969,4 -4,4"/>
<!-- Node1 -->
<g id="node1" class="node">
<title>Node1</title>
<g id="a_node1"><a xlink:title=" ">
<polygon fill="#bfbfbf" stroke="black" points="873,-645 873,-664 965,-664 965,-645 873,-645"/>
<text text-anchor="middle" x="919" y="-652" font-family="Helvetica,sans-Serif" font-size="10.00">func_802ABE30</text>
</a>
</g>
</g>
<!-- Node2 -->
<g id="node2" class="node">
<title>Node2</title>
<g id="a_node2"><a xlink:href="player__controller_8c.html#a9012e6e88cbe45c001f8e82e2da28089" target="_top" xlink:title=" ">
<polygon fill="white" stroke="black" points="552.5,-892 552.5,-911 644.5,-911 644.5,-892 552.5,-892"/>
<text text-anchor="middle" x="598.5" y="-899" font-family="Helvetica,sans-Serif" font-size="10.00">func_8002A194</text>
</a>
</g>
</g>
<!-- Node1&#45;&gt;Node2 -->
<g id="edge1" class="edge">
<title>Node1&#45;&gt;Node2</title>
<path fill="none" stroke="midnightblue" d="M917.42,-674.22C914.95,-718.67 902.18,-826.75 837,-877.5 782.06,-920.27 696.95,-917.24 644.92,-910.1"/>
<polygon fill="midnightblue" stroke="midnightblue" points="920.92,-674.28 917.86,-664.14 913.93,-673.97 920.92,-674.28"/>
</g>
<!-- Node3 -->
<g id="node3" class="node">
<title>Node3</title>
<g id="a_node3"><a xlink:href="player__controller_8c.html#aafe8b94ccd61104120a9bf0ee954a901" target="_top" xlink:title=" ">
<polygon fill="white" stroke="black" points="396,-892 396,-911 488,-911 488,-892 396,-892"/>
<text text-anchor="middle" x="442" y="-899" font-family="Helvetica,sans-Serif" font-size="10.00">func_8002D268</text>
</a>
</g>
</g>
<!-- Node1&#45;&gt;Node3 -->
<g id="edge18" class="edge">
<title>Node1&#45;&gt;Node3</title>
<path fill="none" stroke="midnightblue" d="M915.29,-674.64C909.03,-712.74 889.8,-795.15 837,-835.5 783.21,-876.6 602.63,-870.5 536,-882.5 520.11,-885.36 502.75,-888.82 487.39,-891.99"/>
<polygon fill="midnightblue" stroke="midnightblue" points="918.82,-674.75 916.84,-664.34 911.89,-673.7 918.82,-674.75"/>
</g>
<!-- Node23 -->
<g id="node11" class="node">
<title>Node23</title>
<g id="a_node11"><a xlink:href="player__controller_8c.html#a3cde716e9abdd31cd55ca140c68e6b30" target="_top" xlink:title=" ">
<polygon fill="white" stroke="black" points="396.5,-930 396.5,-949 487.5,-949 487.5,-930 396.5,-930"/>
<text text-anchor="middle" x="442" y="-937" font-family="Helvetica,sans-Serif" font-size="10.00">func_8002E594</text>
</a>
</g>
</g>
<!-- Node1&#45;&gt;Node23 -->
<g id="edge19" class="edge">
<title>Node1&#45;&gt;Node23</title>
<path fill="none" stroke="midnightblue" d="M915.84,-674.15C908.62,-735.74 883.17,-923.02 837,-958.5 722.15,-1046.75 528.14,-976.21 464.17,-949.02"/>
<polygon fill="midnightblue" stroke="midnightblue" points="919.32,-674.51 916.97,-664.18 912.37,-673.72 919.32,-674.51"/>
</g>
<!-- Node24 -->
<g id="node12" class="node">
<title>Node24</title>
<g id="a_node12"><a xlink:href="player__controller_8c.html#ada5a7a52b5a288db1b02df62b2d46541" target="_top" xlink:title=" ">
<polygon fill="white" stroke="black" points="396.5,-854 396.5,-873 487.5,-873 487.5,-854 396.5,-854"/>
<text text-anchor="middle" x="442" y="-861" font-family="Helvetica,sans-Serif" font-size="10.00">func_8002F730</text>
</a>
</g>
</g>
<!-- Node1&#45;&gt;Node24 -->
<g id="edge20" class="edge">
<title>Node1&#45;&gt;Node24</title>
<path fill="none" stroke="midnightblue" d="M913.6,-674.27C905.08,-707.54 882.97,-774.26 837,-806.5 781.68,-845.29 602.85,-839.69 536,-849.5 520.33,-851.8 503.18,-854.37 487.93,-856.67"/>
<polygon fill="midnightblue" stroke="midnightblue" points="917.05,-674.9 915.99,-664.36 910.24,-673.26 917.05,-674.9"/>
</g>
<!-- Node25 -->
<g id="node13" class="node">
<title>Node25</title>
<g id="a_node13"><a xlink:href="player__controller_8c.html#ae0f6e0f1235dc6879d78318ea5db353e" target="_top" xlink:title=" ">
<polygon fill="white" stroke="black" points="396,-987 396,-1006 488,-1006 488,-987 396,-987"/>
<text text-anchor="middle" x="442" y="-994" font-family="Helvetica,sans-Serif" font-size="10.00">func_80038C6C</text>
</a>
</g>
</g>
<!-- Node1&#45;&gt;Node25 -->
<g id="edge21" class="edge">
<title>Node1&#45;&gt;Node25</title>
<path fill="none" stroke="midnightblue" d="M916.3,-674.53C910.21,-740.95 887.15,-952.04 837,-993.5 727.87,-1083.72 537.62,-1030 468.78,-1006.13"/>
<polygon fill="midnightblue" stroke="midnightblue" points="919.82,-674.47 917.21,-664.2 912.84,-673.85 919.82,-674.47"/>
</g>
<!-- Node26 -->
<g id="node14" class="node">
<title>Node26</title>
<g id="a_node14"><a xlink:href="hud__renderer_8c.html#ae2e5b979255388934c7b7091f24997b6" target="_top" xlink:title=" ">
<polygon fill="white" stroke="black" points="721,-778 721,-797 813,-797 813,-778 721,-778"/>
<text text-anchor="middle" x="767" y="-785" font-family="Helvetica,sans-Serif" font-size="10.00">func_8004A630</text>
</a>
</g>
</g>
<!-- Node1&#45;&gt;Node26 -->
<g id="edge23" class="edge">
<title>Node1&#45;&gt;Node26</title>
<path fill="none" stroke="midnightblue" d="M909.61,-673.47C897.35,-698.96 872.13,-743.9 837,-768.5 829.88,-773.49 821.49,-777.17 813.06,-779.89"/>
<polygon fill="midnightblue" stroke="midnightblue" points="912.9,-674.69 913.93,-664.15 906.55,-671.75 912.9,-674.69"/>
</g>
<!-- Node48 -->
<g id="node17" class="node">
<title>Node48</title>
<g id="a_node17"><a xlink:href="code__80086E70_8c.html#a8f72183c80e41b62c933acbb2b6ce719" target="_top" xlink:title=" ">
<polygon fill="white" stroke="black" points="721,-740 721,-759 813,-759 813,-740 721,-740"/>
<text text-anchor="middle" x="767" y="-747" font-family="Helvetica,sans-Serif" font-size="10.00">func_8008847C</text>
</a>
</g>
</g>
<!-- Node1&#45;&gt;Node48 -->
<g id="edge26" class="edge">
<title>Node1&#45;&gt;Node48</title>
<path fill="none" stroke="midnightblue" d="M903.92,-671.95C889.04,-689.27 864.03,-715.34 837,-730.5 829.63,-734.63 821.31,-737.91 813.06,-740.5"/>
<polygon fill="midnightblue" stroke="midnightblue" points="906.64,-674.16 910.37,-664.24 901.27,-669.66 906.64,-674.16"/>
</g>
<!-- Node49 -->
<g id="node18" class="node">
<title>Node49</title>
<g id="a_node18"><a xlink:href="code__80086E70_8c.html#a23446b7a3b35559ba342261bdfc42a4d" target="_top" xlink:title=" ">
<polygon fill="white" stroke="black" points="721.5,-702 721.5,-721 812.5,-721 812.5,-702 721.5,-702"/>
<text text-anchor="middle" x="767" y="-709" font-family="Helvetica,sans-Serif" font-size="10.00">func_80088538</text>
</a>
</g>
</g>
<!-- Node1&#45;&gt;Node49 -->
<g id="edge27" class="edge">
<title>Node1&#45;&gt;Node49</title>
<path fill="none" stroke="midnightblue" d="M891.01,-668.57C875.49,-676.31 855.46,-685.68 837,-692.5 827.44,-696.03 816.93,-699.25 807.05,-701.99"/>
<polygon fill="midnightblue" stroke="midnightblue" points="892.7,-671.64 900.04,-664.01 889.54,-665.4 892.7,-671.64"/>
</g>
<!-- Node56 -->
<g id="node20" class="node">
<title>Node56</title>
<g id="a_node20"><a xlink:href="code__80086E70_8c.html#afabd30552a53d86dbb0c989133d40a7c" target="_top" xlink:title=" ">
<polygon fill="white" stroke="black" points="721,-664 721,-683 813,-683 813,-664 721,-664"/>
<text text-anchor="middle" x="767" y="-671" font-family="Helvetica,sans-Serif" font-size="10.00">func_8008861C</text>
</a>
</g>
</g>
<!-- Node1&#45;&gt;Node56 -->
<g id="edge29" class="edge">
<title>Node1&#45;&gt;Node56</title>
<path fill="none" stroke="midnightblue" d="M863.01,-661.47C846.64,-663.54 828.9,-665.79 813.23,-667.77"/>
<polygon fill="midnightblue" stroke="midnightblue" points="863.51,-664.93 873,-660.2 862.63,-657.99 863.51,-664.93"/>
</g>
<!-- Node59 -->
<g id="node22" class="node">
<title>Node59</title>
<g id="a_node22"><a xlink:href="code__80086E70_8c.html#ae0499dac45e7e9f8e247a851401d8716" target="_top" xlink:title=" ">
<polygon fill="white" stroke="black" points="721.5,-626 721.5,-645 812.5,-645 812.5,-626 721.5,-626"/>
<text text-anchor="middle" x="767" y="-633" font-family="Helvetica,sans-Serif" font-size="10.00">func_800886F4</text>
</a>
</g>
</g>
<!-- Node1&#45;&gt;Node59 -->
<g id="edge31" class="edge">
<title>Node1&#45;&gt;Node59</title>
<path fill="none" stroke="midnightblue" d="M862.92,-647.52C846.4,-645.43 828.48,-643.16 812.71,-641.16"/>
<polygon fill="midnightblue" stroke="midnightblue" points="862.63,-651.01 873,-648.8 863.51,-644.07 862.63,-651.01"/>
</g>
<!-- Node63 -->
<g id="node24" class="node">
<title>Node63</title>
<g id="a_node24"><a xlink:href="code__80086E70_8c.html#ae0563d6f8df9f849ee25be7a5c6e64ab" target="_top" xlink:title=" ">
<polygon fill="white" stroke="black" points="721,-588 721,-607 813,-607 813,-588 721,-588"/>
<text text-anchor="middle" x="767" y="-595" font-family="Helvetica,sans-Serif" font-size="10.00">func_800887C0</text>
</a>
</g>
</g>
<!-- Node1&#45;&gt;Node63 -->
<g id="edge33" class="edge">
<title>Node1&#45;&gt;Node63</title>
<path fill="none" stroke="midnightblue" d="M891.01,-640.43C875.49,-632.69 855.46,-623.32 837,-616.5 827.44,-612.97 816.93,-609.75 807.05,-607.01"/>
<polygon fill="midnightblue" stroke="midnightblue" points="889.54,-643.6 900.04,-644.99 892.7,-637.36 889.54,-643.6"/>
</g>
<!-- Node64 -->
<g id="node25" class="node">
<title>Node64</title>
<g id="a_node25"><a xlink:href="actors_8c.html#a83bcf2234f4c65898ed5d48a7301f86b" target="_top" xlink:title=" ">
<polygon fill="white" stroke="black" points="721.5,-550 721.5,-569 812.5,-569 812.5,-550 721.5,-550"/>
<text text-anchor="middle" x="767" y="-557" font-family="Helvetica,sans-Serif" font-size="10.00">func_80297760</text>
</a>
</g>
</g>
<!-- Node1&#45;&gt;Node64 -->
<g id="edge34" class="edge">
<title>Node1&#45;&gt;Node64</title>
<path fill="none" stroke="midnightblue" d="M903.92,-637.05C889.04,-619.73 864.03,-593.66 837,-578.5 829.52,-574.31 821.06,-570.99 812.69,-568.39"/>
<polygon fill="midnightblue" stroke="midnightblue" points="901.27,-639.34 910.37,-644.76 906.64,-634.84 901.27,-639.34"/>
</g>
<!-- Node71 -->
<g id="node27" class="node">
<title>Node71</title>
<g id="a_node27"><a xlink:href="collision_8c.html#a503b45bd1853c2a4915ce6122dfef91c" target="_top" xlink:title=" ">
<polygon fill="white" stroke="black" points="720,-512 720,-531 814,-531 814,-512 720,-512"/>
<text text-anchor="middle" x="767" y="-519" font-family="Helvetica,sans-Serif" font-size="10.00">func_802ABEAC</text>
</a>
</g>
</g>
<!-- Node1&#45;&gt;Node71 -->
<g id="edge36" class="edge">
<title>Node1&#45;&gt;Node71</title>
<path fill="none" stroke="midnightblue" d="M909.61,-635.53C897.35,-610.04 872.13,-565.1 837,-540.5 830.18,-535.73 822.2,-532.15 814.14,-529.47"/>
<polygon fill="midnightblue" stroke="midnightblue" points="906.55,-637.25 913.93,-644.85 912.9,-634.31 906.55,-637.25"/>
</g>
<!-- Node75 -->
<g id="node29" class="node">
<title>Node75</title>
<g id="a_node29"><a xlink:href="collision_8c.html#ab7c5dcfd639fdd01af6681cf3b05d7da" target="_top" xlink:title=" ">
<polygon fill="white" stroke="black" points="720.5,-474 720.5,-493 813.5,-493 813.5,-474 720.5,-474"/>
<text text-anchor="middle" x="767" y="-481" font-family="Helvetica,sans-Serif" font-size="10.00">func_802AC22C</text>
</a>
</g>
</g>
<!-- Node1&#45;&gt;Node75 -->
<g id="edge38" class="edge">
<title>Node1&#45;&gt;Node75</title>
<path fill="none" stroke="midnightblue" d="M913.03,-634.92C903.74,-602.41 880.65,-537.43 837,-502.5 830.21,-497.07 821.97,-493.18 813.59,-490.41"/>
<polygon fill="midnightblue" stroke="midnightblue" points="909.75,-636.22 915.75,-644.96 916.51,-634.39 909.75,-636.22"/>
</g>
<!-- Node76 -->
<g id="node30" class="node">
<title>Node76</title>
<g id="a_node30"><a xlink:href="collision_8c.html#a9a1bda13e8f2cefd24b255d6ff15252f" target="_top" xlink:title=" ">
<polygon fill="white" stroke="black" points="721,-360 721,-379 813,-379 813,-360 721,-360"/>
<text text-anchor="middle" x="767" y="-367" font-family="Helvetica,sans-Serif" font-size="10.00">func_802AE1C0</text>
</a>
</g>
</g>
<!-- Node1&#45;&gt;Node76 -->
<g id="edge39" class="edge">
<title>Node1&#45;&gt;Node76</title>
<path fill="none" stroke="midnightblue" d="M911.38,-635.12C899.03,-599.97 870.65,-523.87 837,-464.5 818.21,-431.34 790.05,-395.93 776.24,-379.26"/>
<polygon fill="midnightblue" stroke="midnightblue" points="908.11,-636.35 914.69,-644.65 914.72,-634.05 908.11,-636.35"/>
</g>
<!-- Node113 -->
<g id="node42" class="node">
<title>Node113</title>
<g id="a_node42"><a xlink:href="collision_8c.html#a11a5606371d96844c86ee27a97197697" target="_top" xlink:title=" ">
<polygon fill="white" stroke="black" points="717,-930 717,-949 817,-949 817,-930 717,-930"/>
<text text-anchor="middle" x="767" y="-937" font-family="Helvetica,sans-Serif" font-size="10.00">process_collision</text>
</a>
</g>
</g>
<!-- Node1&#45;&gt;Node113 -->
<g id="edge51" class="edge">
<title>Node1&#45;&gt;Node113</title>
<path fill="none" stroke="midnightblue" d="M917.64,-674.35C915.68,-722.42 904.02,-846.17 837,-915.5 830.92,-921.79 823.1,-926.44 814.93,-929.86"/>
<polygon fill="midnightblue" stroke="midnightblue" points="921.14,-674.18 917.95,-664.08 914.15,-673.97 921.14,-674.18"/>
</g>
<!-- Node115 -->
<g id="node44" class="node">
<title>Node115</title>
<g id="a_node44"><a xlink:href="actors_8c.html#a250e5910700e7f46f258578c256c1d94" target="_top" xlink:title=" ">
<polygon fill="white" stroke="black" points="697,-99 697,-118 837,-118 837,-99 697,-99"/>
<text text-anchor="middle" x="767" y="-106" font-family="Helvetica,sans-Serif" font-size="10.00">render_actor_falling_rock</text>
</a>
</g>
</g>
<!-- Node1&#45;&gt;Node115 -->
<g id="edge57" class="edge">
<title>Node1&#45;&gt;Node115</title>
<path fill="none" stroke="midnightblue" d="M917.74,-634.87C916.2,-548.7 905.77,-204.76 837,-127.5 833.61,-123.69 829.54,-120.62 825.09,-118.14"/>
<polygon fill="midnightblue" stroke="midnightblue" points="914.24,-634.93 917.9,-644.87 921.24,-634.82 914.24,-634.93"/>
</g>
<!-- Node116 -->
<g id="node46" class="node">
<title>Node116</title>
<g id="a_node46"><a xlink:href="actors_8c.html#ad1831a4f015705b4ebf00be95e8198b6" target="_top" xlink:title=" ">
<polygon fill="white" stroke="black" points="723.5,-137 723.5,-156 810.5,-156 810.5,-137 723.5,-137"/>
<text text-anchor="middle" x="767" y="-144" font-family="Helvetica,sans-Serif" font-size="10.00">spawn_foliage</text>
</a>
</g>
</g>
<!-- Node1&#45;&gt;Node116 -->
<g id="edge59" class="edge">
<title>Node1&#45;&gt;Node116</title>
<path fill="none" stroke="midnightblue" d="M913.34,-635.24C901.55,-587 869.23,-457.22 837,-350.5 814.19,-274.98 782.11,-185.37 771.53,-156.19"/>
<polygon fill="midnightblue" stroke="midnightblue" points="909.94,-636.09 915.71,-644.98 916.74,-634.44 909.94,-636.09"/>
</g>
<!-- Node119 -->
<g id="node48" class="node">
<title>Node119</title>
<g id="a_node48"><a xlink:href="actors__extended_8c.html#a4fd275676bf11ca2e15556db08264a90" target="_top" xlink:title=" ">
<polygon fill="white" stroke="black" points="710.5,-49.5 710.5,-79.5 823.5,-79.5 823.5,-49.5 710.5,-49.5"/>
<text text-anchor="start" x="718.5" y="-67.5" font-family="Helvetica,sans-Serif" font-size="10.00">update_actor_green</text>
<text text-anchor="middle" x="767" y="-56.5" font-family="Helvetica,sans-Serif" font-size="10.00">_shell</text>
</a>
</g>
</g>
<!-- Node1&#45;&gt;Node119 -->
<g id="edge62" class="edge">
<title>Node1&#45;&gt;Node119</title>
<path fill="none" stroke="midnightblue" d="M917.81,-634.47C916.54,-544.18 907.08,-175.67 837,-89.5 833.3,-84.95 828.71,-81.23 823.65,-78.19"/>
<polygon fill="midnightblue" stroke="midnightblue" points="914.31,-634.74 917.93,-644.69 921.31,-634.65 914.31,-634.74"/>
</g>
<!-- Node120 -->
<g id="node50" class="node">
<title>Node120</title>
<g id="a_node50"><a xlink:href="actors__extended_8c.html#a6e281ad692a9ccd329fa6840ad38afbc" target="_top" xlink:title=" ">
<polygon fill="white" stroke="black" points="703,-0.5 703,-30.5 831,-30.5 831,-0.5 703,-0.5"/>
<text text-anchor="start" x="711" y="-18.5" font-family="Helvetica,sans-Serif" font-size="10.00">update_actor_red_blue</text>
<text text-anchor="middle" x="767" y="-7.5" font-family="Helvetica,sans-Serif" font-size="10.00">_shell</text>
</a>
</g>
</g>
<!-- Node1&#45;&gt;Node120 -->
<g id="edge64" class="edge">
<title>Node1&#45;&gt;Node120</title>
<path fill="none" stroke="midnightblue" d="M918.06,-634.57C917.95,-539.75 912.99,-135.02 837,-40.5 833.89,-36.63 830.12,-33.35 825.97,-30.59"/>
<polygon fill="midnightblue" stroke="midnightblue" points="914.56,-634.77 918.05,-644.77 921.56,-634.77 914.56,-634.77"/>
</g>
<!-- Node2&#45;&gt;Node3 -->
<g id="edge2" class="edge">
<title>Node2&#45;&gt;Node3</title>
<path fill="none" stroke="midnightblue" d="M542.19,-901.5C524.47,-901.5 505.07,-901.5 488.16,-901.5"/>
<polygon fill="midnightblue" stroke="midnightblue" points="542.4,-905 552.4,-901.5 542.4,-898 542.4,-905"/>
</g>
<!-- Node2&#45;&gt;Node23 -->
<g id="edge12" class="edge">
<title>Node2&#45;&gt;Node23</title>
<path fill="none" stroke="midnightblue" d="M548.55,-913.54C526.96,-918.85 501.96,-925 481.71,-929.98"/>
<polygon fill="midnightblue" stroke="midnightblue" points="549.64,-916.88 558.51,-911.09 547.97,-910.08 549.64,-916.88"/>
</g>
<!-- Node2&#45;&gt;Node24 -->
<g id="edge16" class="edge">
<title>Node2&#45;&gt;Node24</title>
<path fill="none" stroke="midnightblue" d="M548.55,-889.46C526.96,-884.15 501.96,-878 481.71,-873.02"/>
<polygon fill="midnightblue" stroke="midnightblue" points="547.97,-892.92 558.51,-891.91 549.64,-886.12 547.97,-892.92"/>
</g>
<!-- Node4 -->
<g id="node4" class="node">
<title>Node4</title>
<g id="a_node4"><a xlink:href="player__controller_8c.html#a9f21890266acabb27e962652c5ef4cfc" target="_top" xlink:title=" ">
<polygon fill="white" stroke="black" points="256,-873 256,-892 347,-892 347,-873 256,-873"/>
<text text-anchor="middle" x="301.5" y="-880" font-family="Helvetica,sans-Serif" font-size="10.00">func_80028864</text>
</a>
</g>
</g>
<!-- Node3&#45;&gt;Node4 -->
<g id="edge3" class="edge">
<title>Node3&#45;&gt;Node4</title>
<path fill="none" stroke="midnightblue" d="M385.55,-893.89C372.74,-892.14 359.28,-890.29 347.01,-888.61"/>
<polygon fill="midnightblue" stroke="midnightblue" points="385.27,-897.39 395.65,-895.28 386.22,-890.45 385.27,-897.39"/>
</g>
<!-- Node16 -->
<g id="node7" class="node">
<title>Node16</title>
<g id="a_node7"><a xlink:href="player__controller_8c.html#a76e0206999fca6c9de4d4bef2c4620ce" target="_top" xlink:title=" ">
<polygon fill="white" stroke="black" points="255.5,-911 255.5,-930 347.5,-930 347.5,-911 255.5,-911"/>
<text text-anchor="middle" x="301.5" y="-918" font-family="Helvetica,sans-Serif" font-size="10.00">func_80028C44</text>
</a>
</g>
</g>
<!-- Node3&#45;&gt;Node16 -->
<g id="edge6" class="edge">
<title>Node3&#45;&gt;Node16</title>
<path fill="none" stroke="midnightblue" d="M385.39,-909.13C372.96,-910.83 359.92,-912.62 347.95,-914.26"/>
<polygon fill="midnightblue" stroke="midnightblue" points="386.22,-912.55 395.65,-907.72 385.27,-905.61 386.22,-912.55"/>
</g>
<!-- Node17 -->
<g id="node8" class="node">
<title>Node17</title>
<g id="a_node8"><a xlink:href="player__controller_8c.html#ae531f1b044d00354a79cb3f88b81fa12" target="_top" xlink:title=" ">
<polygon fill="white" stroke="black" points="255,-949 255,-968 348,-968 348,-949 255,-949"/>
<text text-anchor="middle" x="301.5" y="-956" font-family="Helvetica,sans-Serif" font-size="10.00">func_80028D3C</text>
</a>
</g>
</g>
<!-- Node3&#45;&gt;Node17 -->
<g id="edge8" class="edge">
<title>Node3&#45;&gt;Node17</title>
<path fill="none" stroke="midnightblue" d="M399.76,-914.35C394.4,-916.28 389.04,-918.35 384,-920.5 367.36,-927.61 364.36,-931.78 348,-939.5 341.19,-942.71 333.68,-945.96 326.76,-948.84"/>
<polygon fill="midnightblue" stroke="midnightblue" points="400.99,-917.63 409.3,-911.04 398.7,-911.01 400.99,-917.63"/>
</g>
<!-- Node18 -->
<g id="node9" class="node">
<title>Node18</title>
<g id="a_node9"><a xlink:href="spawn__players_8c.html#a786871d4fec99acdd5a14b48c1c38a7c" target="_top" xlink:title=" ">
<polygon fill="white" stroke="black" points="255,-835 255,-854 348,-854 348,-835 255,-835"/>
<text text-anchor="middle" x="301.5" y="-842" font-family="Helvetica,sans-Serif" font-size="10.00">func_8003CD98</text>
</a>
</g>
</g>
<!-- Node3&#45;&gt;Node18 -->
<g id="edge10" class="edge">
<title>Node3&#45;&gt;Node18</title>
<path fill="none" stroke="midnightblue" d="M399.76,-888.65C394.4,-886.72 389.04,-884.65 384,-882.5 367.36,-875.39 364.36,-871.22 348,-863.5 341.19,-860.29 333.68,-857.04 326.76,-854.16"/>
<polygon fill="midnightblue" stroke="midnightblue" points="398.7,-891.99 409.3,-891.96 400.99,-885.37 398.7,-891.99"/>
</g>
<!-- Node5 -->
<g id="node5" class="node">
<title>Node5</title>
<g id="a_node5"><a xlink:href="player__controller_8c.html#af9d8e2fa807dab2737045c3c2517a46e" target="_top" xlink:title=" ">
<polygon fill="white" stroke="red" points="127.5,-930 127.5,-949 218.5,-949 218.5,-930 127.5,-930"/>
<text text-anchor="middle" x="173" y="-937" font-family="Helvetica,sans-Serif" font-size="10.00">func_80028E70</text>
</a>
</g>
</g>
<!-- Node4&#45;&gt;Node5 -->
<g id="edge4" class="edge">
<title>Node4&#45;&gt;Node5</title>
<path fill="none" stroke="midnightblue" d="M267.28,-896.17C263.14,-897.94 258.96,-899.74 255,-901.5 233.98,-910.81 210.19,-922.06 193.86,-929.89"/>
<polygon fill="midnightblue" stroke="midnightblue" points="268.94,-899.27 276.8,-892.17 266.23,-892.82 268.94,-899.27"/>
</g>
<!-- Node6 -->
<g id="node6" class="node">
<title>Node6</title>
<g id="a_node6"><a xlink:href="player__controller_8c.html#a60b22a77aa4cf0b2be0942a3e115a1eb" target="_top" xlink:title=" ">
<polygon fill="white" stroke="red" points="0,-930 0,-949 91,-949 91,-930 0,-930"/>
<text text-anchor="middle" x="45.5" y="-937" font-family="Helvetica,sans-Serif" font-size="10.00">func_80028F70</text>
</a>
</g>
</g>
<!-- Node5&#45;&gt;Node6 -->
<g id="edge5" class="edge">
<title>Node5&#45;&gt;Node6</title>
<path fill="none" stroke="midnightblue" d="M117.35,-939.5C108.68,-939.5 99.8,-939.5 91.38,-939.5"/>
<polygon fill="midnightblue" stroke="midnightblue" points="117.4,-943 127.4,-939.5 117.4,-936 117.4,-943"/>
</g>
<!-- Node16&#45;&gt;Node5 -->
<g id="edge7" class="edge">
<title>Node16&#45;&gt;Node5</title>
<path fill="none" stroke="midnightblue" d="M245.25,-928.8C236.33,-930.14 227.2,-931.51 218.57,-932.81"/>
<polygon fill="midnightblue" stroke="midnightblue" points="245.82,-932.25 255.19,-927.31 244.78,-925.33 245.82,-932.25"/>
</g>
<!-- Node17&#45;&gt;Node5 -->
<g id="edge9" class="edge">
<title>Node17&#45;&gt;Node5</title>
<path fill="none" stroke="midnightblue" d="M244.75,-950.13C236.05,-948.82 227.16,-947.49 218.75,-946.22"/>
<polygon fill="midnightblue" stroke="midnightblue" points="244.42,-953.62 254.83,-951.64 245.46,-946.69 244.42,-953.62"/>
</g>
<!-- Node19 -->
<g id="node10" class="node">
<title>Node19</title>
<g id="a_node10"><a xlink:href="spawn__players_8c.html#ac1a9412b931cfa517a2382c2fc605399" target="_top" xlink:title=" ">
<polygon fill="white" stroke="red" points="127,-835 127,-854 219,-854 219,-835 127,-835"/>
<text text-anchor="middle" x="173" y="-842" font-family="Helvetica,sans-Serif" font-size="10.00">func_8003D080</text>
</a>
</g>
</g>
<!-- Node18&#45;&gt;Node19 -->
<g id="edge11" class="edge">
<title>Node18&#45;&gt;Node19</title>
<path fill="none" stroke="midnightblue" d="M244.59,-844.5C236.09,-844.5 227.41,-844.5 219.18,-844.5"/>
<polygon fill="midnightblue" stroke="midnightblue" points="244.83,-848 254.83,-844.5 244.83,-841 244.83,-848"/>
</g>
<!-- Node23&#45;&gt;Node4 -->
<g id="edge13" class="edge">
<title>Node23&#45;&gt;Node4</title>
<path fill="none" stroke="midnightblue" d="M399.76,-926.65C394.4,-924.72 389.04,-922.65 384,-920.5 367.36,-913.39 364.36,-909.22 348,-901.5 341.19,-898.29 333.68,-895.04 326.76,-892.16"/>
<polygon fill="midnightblue" stroke="midnightblue" points="398.7,-929.99 409.3,-929.96 400.99,-923.37 398.7,-929.99"/>
</g>
<!-- Node23&#45;&gt;Node16 -->
<g id="edge14" class="edge">
<title>Node23&#45;&gt;Node16</title>
<path fill="none" stroke="midnightblue" d="M386.39,-932.01C373.66,-930.26 360.24,-928.42 347.95,-926.74"/>
<polygon fill="midnightblue" stroke="midnightblue" points="386.03,-935.49 396.42,-933.38 386.98,-928.56 386.03,-935.49"/>
</g>
<!-- Node23&#45;&gt;Node17 -->
<g id="edge15" class="edge">
<title>Node23&#45;&gt;Node17</title>
<path fill="none" stroke="midnightblue" d="M386.49,-946.98C373.9,-948.71 360.62,-950.53 348.43,-952.2"/>
<polygon fill="midnightblue" stroke="midnightblue" points="386.98,-950.44 396.42,-945.62 386.03,-943.51 386.98,-950.44"/>
</g>
<!-- Node24&#45;&gt;Node4 -->
<g id="edge17" class="edge">
<title>Node24&#45;&gt;Node4</title>
<path fill="none" stroke="midnightblue" d="M386.18,-871.02C373.18,-872.8 359.48,-874.68 347,-876.4"/>
<polygon fill="midnightblue" stroke="midnightblue" points="386.98,-874.44 396.42,-869.62 386.03,-867.51 386.98,-874.44"/>
</g>
<!-- Node25&#45;&gt;Node5 -->
<g id="edge22" class="edge">
<title>Node25&#45;&gt;Node5</title>
<path fill="none" stroke="midnightblue" d="M385.66,-995.7C348.19,-993.99 297.89,-989.38 255,-977.5 231.35,-970.95 206.04,-958.01 190.12,-949.06"/>
<polygon fill="midnightblue" stroke="midnightblue" points="385.74,-999.21 395.87,-996.11 386.02,-992.21 385.74,-999.21"/>
</g>
<!-- Node27 -->
<g id="node15" class="node">
<title>Node27</title>
<g id="a_node15"><a xlink:href="hud__renderer_8c.html#a919b2af05d4e4d41b9c870be74106ac1" target="_top" xlink:title=" ">
<polygon fill="white" stroke="red" points="552.5,-740 552.5,-759 644.5,-759 644.5,-740 552.5,-740"/>
<text text-anchor="middle" x="598.5" y="-747" font-family="Helvetica,sans-Serif" font-size="10.00">func_800523B8</text>
</a>
</g>
</g>
<!-- Node26&#45;&gt;Node27 -->
<g id="edge24" class="edge">
<title>Node26&#45;&gt;Node27</title>
<path fill="none" stroke="midnightblue" d="M714.19,-775.68C690.72,-770.32 663.33,-764.07 641.21,-759.02"/>
<polygon fill="midnightblue" stroke="midnightblue" points="713.46,-779.1 723.99,-777.91 715.01,-772.27 713.46,-779.1"/>
</g>
<!-- Node47 -->
<g id="node16" class="node">
<title>Node47</title>
<g id="a_node16"><a xlink:href="hud__renderer_8c.html#a6a85e4a45bd274bcc9f1d6743801b594" target="_top" xlink:title=" ">
<polygon fill="white" stroke="red" points="552.5,-778 552.5,-797 644.5,-797 644.5,-778 552.5,-778"/>
<text text-anchor="middle" x="598.5" y="-785" font-family="Helvetica,sans-Serif" font-size="10.00">func_800532A4</text>
</a>
</g>
</g>
<!-- Node26&#45;&gt;Node47 -->
<g id="edge25" class="edge">
<title>Node26&#45;&gt;Node47</title>
<path fill="none" stroke="midnightblue" d="M710.66,-787.5C689.21,-787.5 664.96,-787.5 644.59,-787.5"/>
<polygon fill="midnightblue" stroke="midnightblue" points="710.94,-791 720.94,-787.5 710.94,-784 710.94,-791"/>
</g>
<!-- Node50 -->
<g id="node19" class="node">
<title>Node50</title>
<g id="a_node19"><a xlink:href="code__80071F00_8c.html#aba593db6e0f24e395fb2dfbc8986da52" target="_top" xlink:title=" ">
<polygon fill="white" stroke="red" points="552.5,-702 552.5,-721 644.5,-721 644.5,-702 552.5,-702"/>
<text text-anchor="middle" x="598.5" y="-709" font-family="Helvetica,sans-Serif" font-size="10.00">func_80082C30</text>
</a>
</g>
</g>
<!-- Node49&#45;&gt;Node50 -->
<g id="edge28" class="edge">
<title>Node49&#45;&gt;Node50</title>
<path fill="none" stroke="midnightblue" d="M711.35,-711.5C689.7,-711.5 665.12,-711.5 644.53,-711.5"/>
<polygon fill="midnightblue" stroke="midnightblue" points="711.38,-715 721.38,-711.5 711.38,-708 711.38,-715"/>
</g>
<!-- Node57 -->
<g id="node21" class="node">
<title>Node57</title>
<g id="a_node21"><a xlink:href="code__80071F00_8c.html#a2d3590008f61bffbeaadcc88dfb65bf0" target="_top" xlink:title=" ">
<polygon fill="white" stroke="red" points="553,-664 553,-683 644,-683 644,-664 553,-664"/>
<text text-anchor="middle" x="598.5" y="-671" font-family="Helvetica,sans-Serif" font-size="10.00">func_80083248</text>
</a>
</g>
</g>
<!-- Node56&#45;&gt;Node57 -->
<g id="edge30" class="edge">
<title>Node56&#45;&gt;Node57</title>
<path fill="none" stroke="midnightblue" d="M710.87,-673.5C689.16,-673.5 664.56,-673.5 644.02,-673.5"/>
<polygon fill="midnightblue" stroke="midnightblue" points="710.94,-677 720.94,-673.5 710.94,-670 710.94,-677"/>
</g>
<!-- Node60 -->
<g id="node23" class="node">
<title>Node60</title>
<g id="a_node23"><a xlink:href="code__80071F00_8c.html#a806e6af277fada5fa247a77e068fbf22" target="_top" xlink:title=" ">
<polygon fill="white" stroke="red" points="552,-626 552,-645 645,-645 645,-626 552,-626"/>
<text text-anchor="middle" x="598.5" y="-633" font-family="Helvetica,sans-Serif" font-size="10.00">func_800853DC</text>
</a>
</g>
</g>
<!-- Node59&#45;&gt;Node60 -->
<g id="edge32" class="edge">
<title>Node59&#45;&gt;Node60</title>
<path fill="none" stroke="midnightblue" d="M711.14,-635.5C689.75,-635.5 665.52,-635.5 645.11,-635.5"/>
<polygon fill="midnightblue" stroke="midnightblue" points="711.38,-639 721.38,-635.5 711.38,-632 711.38,-639"/>
</g>
<!-- Node65 -->
<g id="node26" class="node">
<title>Node65</title>
<g id="a_node26"><a xlink:href="actors_8c.html#a1e950a72a2fb31b55123e856e64e15c0" target="_top" xlink:title=" ">
<polygon fill="white" stroke="red" points="553,-588 553,-607 644,-607 644,-588 553,-588"/>
<text text-anchor="middle" x="598.5" y="-595" font-family="Helvetica,sans-Serif" font-size="10.00">func_802979F8</text>
</a>
</g>
</g>
<!-- Node64&#45;&gt;Node65 -->
<g id="edge35" class="edge">
<title>Node64&#45;&gt;Node65</title>
<path fill="none" stroke="midnightblue" d="M714.19,-571.32C690.72,-576.68 663.33,-582.93 641.21,-587.98"/>
<polygon fill="midnightblue" stroke="midnightblue" points="715.01,-574.73 723.99,-569.09 713.46,-567.9 715.01,-574.73"/>
</g>
<!-- Node72 -->
<g id="node28" class="node">
<title>Node72</title>
<g id="a_node28"><a xlink:href="actors_8c.html#aa69562a03d97fa7b0b040009f5351776" target="_top" xlink:title=" ">
<polygon fill="white" stroke="red" points="552.5,-550 552.5,-569 644.5,-569 644.5,-550 552.5,-550"/>
<text text-anchor="middle" x="598.5" y="-557" font-family="Helvetica,sans-Serif" font-size="10.00">func_802A1064</text>
</a>
</g>
</g>
<!-- Node71&#45;&gt;Node72 -->
<g id="edge37" class="edge">
<title>Node71&#45;&gt;Node72</title>
<path fill="none" stroke="midnightblue" d="M714.19,-533.32C690.72,-538.68 663.33,-544.93 641.21,-549.98"/>
<polygon fill="midnightblue" stroke="midnightblue" points="715.01,-536.73 723.99,-531.09 713.46,-529.9 715.01,-536.73"/>
</g>
<!-- Node77 -->
<g id="node31" class="node">
<title>Node77</title>
<g id="a_node31"><a xlink:href="code__80005FD0_8c.html#ad4d98d7b74e3375cac886830490fb1b4" target="_top" xlink:title=" ">
<polygon fill="white" stroke="black" points="553,-512 553,-531 644,-531 644,-512 553,-512"/>
<text text-anchor="middle" x="598.5" y="-519" font-family="Helvetica,sans-Serif" font-size="10.00">func_80010F40</text>
</a>
</g>
</g>
<!-- Node76&#45;&gt;Node77 -->
<g id="edge40" class="edge">
<title>Node76&#45;&gt;Node77</title>
<path fill="none" stroke="midnightblue" d="M752.82,-387.38C727.34,-421.76 672.8,-494.41 661,-502.5 655.38,-506.36 648.94,-509.45 642.4,-511.93"/>
<polygon fill="midnightblue" stroke="midnightblue" points="755.77,-389.28 758.9,-379.15 750.14,-385.11 755.77,-389.28"/>
</g>
<!-- Node78 -->
<g id="node32" class="node">
<title>Node78</title>
<g id="a_node32"><a xlink:href="code__80005FD0_8c.html#a7dd54837d11c33acfaac2e2c81eecf32" target="_top" xlink:title=" ">
<polygon fill="white" stroke="black" points="553.5,-474 553.5,-493 643.5,-493 643.5,-474 553.5,-474"/>
<text text-anchor="middle" x="598.5" y="-481" font-family="Helvetica,sans-Serif" font-size="10.00">func_80010FA0</text>
</a>
</g>
</g>
<!-- Node76&#45;&gt;Node78 -->
<g id="edge41" class="edge">
<title>Node76&#45;&gt;Node78</title>
<path fill="none" stroke="midnightblue" d="M751.42,-386.66C732.57,-407.83 697.78,-443.56 661,-464.5 654.4,-468.26 646.96,-471.36 639.6,-473.89"/>
<polygon fill="midnightblue" stroke="midnightblue" points="754.11,-388.91 758.05,-379.07 748.84,-384.3 754.11,-388.91"/>
</g>
<!-- Node79 -->
<g id="node33" class="node">
<title>Node79</title>
<g id="a_node33"><a xlink:href="code__80005FD0_8c.html#ae55b4aa41355fb896a91e3073d53a48d" target="_top" xlink:title=" ">
<polygon fill="white" stroke="red" points="552.5,-436 552.5,-455 644.5,-455 644.5,-436 552.5,-436"/>
<text text-anchor="middle" x="598.5" y="-443" font-family="Helvetica,sans-Serif" font-size="10.00">func_800120C8</text>
</a>
</g>
</g>
<!-- Node76&#45;&gt;Node79 -->
<g id="edge42" class="edge">
<title>Node76&#45;&gt;Node79</title>
<path fill="none" stroke="midnightblue" d="M741.66,-384.51C720.81,-396.93 689.68,-414.43 661,-426.5 652.66,-430.01 643.44,-433.2 634.73,-435.93"/>
<polygon fill="midnightblue" stroke="midnightblue" points="743.72,-387.36 750.47,-379.2 740.1,-381.36 743.72,-387.36"/>
</g>
<!-- Node83 -->
<g id="node34" class="node">
<title>Node83</title>
<g id="a_node34"><a xlink:href="code__80005FD0_8c.html#a550e359a856cfdf5ac5bf2562683de34" target="_top" xlink:title=" ">
<polygon fill="white" stroke="red" points="553,-398 553,-417 644,-417 644,-398 553,-398"/>
<text text-anchor="middle" x="598.5" y="-405" font-family="Helvetica,sans-Serif" font-size="10.00">func_80015544</text>
</a>
</g>
</g>
<!-- Node76&#45;&gt;Node83 -->
<g id="edge43" class="edge">
<title>Node76&#45;&gt;Node83</title>
<path fill="none" stroke="midnightblue" d="M714.19,-381.32C690.72,-386.68 663.33,-392.93 641.21,-397.98"/>
<polygon fill="midnightblue" stroke="midnightblue" points="715.01,-384.73 723.99,-379.09 713.46,-377.9 715.01,-384.73"/>
</g>
<!-- Node94 -->
<g id="node35" class="node">
<title>Node94</title>
<g id="a_node35"><a xlink:href="code__80005FD0_8c.html#ad2da2212a90af96f346c6d8c841d74d6" target="_top" xlink:title=" ">
<polygon fill="white" stroke="red" points="553,-360 553,-379 644,-379 644,-360 553,-360"/>
<text text-anchor="middle" x="598.5" y="-367" font-family="Helvetica,sans-Serif" font-size="10.00">func_80019118</text>
</a>
</g>
</g>
<!-- Node76&#45;&gt;Node94 -->
<g id="edge44" class="edge">
<title>Node76&#45;&gt;Node94</title>
<path fill="none" stroke="midnightblue" d="M710.87,-369.5C689.16,-369.5 664.56,-369.5 644.02,-369.5"/>
<polygon fill="midnightblue" stroke="midnightblue" points="710.94,-373 720.94,-369.5 710.94,-366 710.94,-373"/>
</g>
<!-- Node95 -->
<g id="node36" class="node">
<title>Node95</title>
<g id="a_node36"><a xlink:href="code__80005FD0_8c.html#a7808902aee426ba4433e92cde1feb8a1" target="_top" xlink:title=" ">
<polygon fill="white" stroke="red" points="552.5,-322 552.5,-341 644.5,-341 644.5,-322 552.5,-322"/>
<text text-anchor="middle" x="598.5" y="-329" font-family="Helvetica,sans-Serif" font-size="10.00">func_8001BE78</text>
</a>
</g>
</g>
<!-- Node76&#45;&gt;Node95 -->
<g id="edge45" class="edge">
<title>Node76&#45;&gt;Node95</title>
<path fill="none" stroke="midnightblue" d="M714.19,-357.68C690.72,-352.32 663.33,-346.07 641.21,-341.02"/>
<polygon fill="midnightblue" stroke="midnightblue" points="713.46,-361.1 723.99,-359.91 715.01,-354.27 713.46,-361.1"/>
</g>
<!-- Node96 -->
<g id="node37" class="node">
<title>Node96</title>
<g id="a_node37"><a xlink:href="player__controller_8c.html#a8dbe93afd801930176ea85ce8715329a" target="_top" xlink:title=" ">
<polygon fill="white" stroke="black" points="552.5,-284 552.5,-303 644.5,-303 644.5,-284 552.5,-284"/>
<text text-anchor="middle" x="598.5" y="-291" font-family="Helvetica,sans-Serif" font-size="10.00">func_8002E4C4</text>
</a>
</g>
</g>
<!-- Node76&#45;&gt;Node96 -->
<g id="edge46" class="edge">
<title>Node76&#45;&gt;Node96</title>
<path fill="none" stroke="midnightblue" d="M741.66,-354.49C720.81,-342.07 689.68,-324.57 661,-312.5 652.66,-308.99 643.44,-305.8 634.73,-303.07"/>
<polygon fill="midnightblue" stroke="midnightblue" points="740.1,-357.64 750.47,-359.8 743.72,-351.64 740.1,-357.64"/>
</g>
<!-- Node97 -->
<g id="node38" class="node">
<title>Node97</title>
<g id="a_node38"><a xlink:href="actors_8c.html#a040f5edff7bbda021cb0b3cde23e9674" target="_top" xlink:title=" ">
<polygon fill="white" stroke="black" points="537.5,-158 537.5,-177 659.5,-177 659.5,-158 537.5,-158"/>
<text text-anchor="middle" x="598.5" y="-165" font-family="Helvetica,sans-Serif" font-size="10.00">place_all_item_boxes</text>
</a>
</g>
</g>
<!-- Node76&#45;&gt;Node97 -->
<g id="edge47" class="edge">
<title>Node76&#45;&gt;Node97</title>
<path fill="none" stroke="midnightblue" d="M760.25,-350.23C748.13,-312.98 716.45,-230.86 661,-186.5 656.11,-182.59 650.42,-179.48 644.51,-177.01"/>
<polygon fill="midnightblue" stroke="midnightblue" points="756.94,-351.37 763.26,-359.87 763.62,-349.28 756.94,-351.37"/>
</g>
<!-- Node100 -->
<g id="node40" class="node">
<title>Node100</title>
<g id="a_node40"><a xlink:href="code__80005FD0_8c.html#ada59072ef0e7fec8eb6eeaabdc4ebe03" target="_top" xlink:title=" ">
<polygon fill="white" stroke="red" points="536,-234.5 536,-264.5 661,-264.5 661,-234.5 536,-234.5"/>
<text text-anchor="start" x="544" y="-252.5" font-family="Helvetica,sans-Serif" font-size="10.00">set_bomb_kart_spawn</text>
<text text-anchor="middle" x="598.5" y="-241.5" font-family="Helvetica,sans-Serif" font-size="10.00">_positions</text>
</a>
</g>
</g>
<!-- Node76&#45;&gt;Node100 -->
<g id="edge49" class="edge">
<title>Node76&#45;&gt;Node100</title>
<path fill="none" stroke="midnightblue" d="M750.82,-352.53C731.6,-331.84 696.65,-296.89 661,-274.5 655.14,-270.82 648.65,-267.5 642.15,-264.56"/>
<polygon fill="midnightblue" stroke="midnightblue" points="748.28,-354.93 757.61,-359.95 753.44,-350.21 748.28,-354.93"/>
</g>
<!-- Node101 -->
<g id="node41" class="node">
<title>Node101</title>
<g id="a_node41"><a xlink:href="spawn__players_8c.html#a43c7f2d844178603dc415f549283e97c" target="_top" xlink:title=" ">
<polygon fill="white" stroke="red" points="556.5,-196 556.5,-215 640.5,-215 640.5,-196 556.5,-196"/>
<text text-anchor="middle" x="598.5" y="-203" font-family="Helvetica,sans-Serif" font-size="10.00">spawn_player</text>
</a>
</g>
</g>
<!-- Node76&#45;&gt;Node101 -->
<g id="edge50" class="edge">
<title>Node76&#45;&gt;Node101</title>
<path fill="none" stroke="midnightblue" d="M757.18,-350.66C741.9,-319.98 707.58,-259.29 661,-225.5 654.91,-221.08 647.8,-217.61 640.61,-214.88"/>
<polygon fill="midnightblue" stroke="midnightblue" points="754.12,-352.35 761.63,-359.83 760.42,-349.3 754.12,-352.35"/>
</g>
<!-- Node98 -->
<g id="node39" class="node">
<title>Node98</title>
<g id="a_node39"><a xlink:href="actors_8c.html#a09880e8065960d2bbd0585409a4831a7" target="_top" xlink:title=" ">
<polygon fill="white" stroke="red" points="384,-139 384,-158 500,-158 500,-139 384,-139"/>
<text text-anchor="middle" x="442" y="-146" font-family="Helvetica,sans-Serif" font-size="10.00">place_course_actors</text>
</a>
</g>
</g>
<!-- Node97&#45;&gt;Node98 -->
<g id="edge48" class="edge">
<title>Node97&#45;&gt;Node98</title>
<path fill="none" stroke="midnightblue" d="M527.21,-158.86C518.18,-157.74 509.02,-156.62 500.23,-155.54"/>
<polygon fill="midnightblue" stroke="midnightblue" points="526.97,-162.35 537.32,-160.1 527.83,-155.41 526.97,-162.35"/>
</g>
<!-- Node114 -->
<g id="node43" class="node">
<title>Node114</title>
<g id="a_node43"><a xlink:href="player__controller_8c.html#a1a718b99b4523bbf99162b0917d97f3f" target="_top" xlink:title=" ">
<polygon fill="white" stroke="black" points="552.5,-930 552.5,-949 644.5,-949 644.5,-930 552.5,-930"/>
<text text-anchor="middle" x="598.5" y="-937" font-family="Helvetica,sans-Serif" font-size="10.00">func_80029B4C</text>
</a>
</g>
</g>
<!-- Node113&#45;&gt;Node114 -->
<g id="edge52" class="edge">
<title>Node113&#45;&gt;Node114</title>
<path fill="none" stroke="midnightblue" d="M706.77,-939.5C686.28,-939.5 663.67,-939.5 644.51,-939.5"/>
<polygon fill="midnightblue" stroke="midnightblue" points="706.95,-943 716.95,-939.5 706.95,-936 706.95,-943"/>
</g>
<!-- Node114&#45;&gt;Node3 -->
<g id="edge53" class="edge">
<title>Node114&#45;&gt;Node3</title>
<path fill="none" stroke="midnightblue" d="M548.55,-927.46C526.96,-922.15 501.96,-916 481.71,-911.02"/>
<polygon fill="midnightblue" stroke="midnightblue" points="547.97,-930.92 558.51,-929.91 549.64,-924.12 547.97,-930.92"/>
</g>
<!-- Node114&#45;&gt;Node23 -->
<g id="edge54" class="edge">
<title>Node114&#45;&gt;Node23</title>
<path fill="none" stroke="midnightblue" d="M542.35,-939.5C524.4,-939.5 504.71,-939.5 487.63,-939.5"/>
<polygon fill="midnightblue" stroke="midnightblue" points="542.4,-943 552.4,-939.5 542.4,-936 542.4,-943"/>
</g>
<!-- Node114&#45;&gt;Node24 -->
<g id="edge55" class="edge">
<title>Node114&#45;&gt;Node24</title>
<path fill="none" stroke="midnightblue" d="M546.73,-926.16C543,-924.48 539.37,-922.6 536,-920.5 516.24,-908.22 519.62,-895 500,-882.5 494.02,-878.69 487.19,-875.56 480.39,-873.03"/>
<polygon fill="midnightblue" stroke="midnightblue" points="545.6,-929.48 556.18,-929.96 548.21,-922.98 545.6,-929.48"/>
</g>
<!-- Node114&#45;&gt;Node25 -->
<g id="edge56" class="edge">
<title>Node114&#45;&gt;Node25</title>
<path fill="none" stroke="midnightblue" d="M562.09,-952.57C533.69,-963.04 494.49,-977.51 468.94,-986.93"/>
<polygon fill="midnightblue" stroke="midnightblue" points="563.47,-955.79 571.64,-949.04 561.05,-949.22 563.47,-955.79"/>
</g>
<!-- Node68 -->
<g id="node45" class="node">
<title>Node68</title>
<g id="a_node45"><a xlink:href="actors_8c.html#ab38aac73e6ef03aa38f4474b612234b0" target="_top" xlink:title=" ">
<polygon fill="white" stroke="red" points="538,-44 538,-63 659,-63 659,-44 538,-44"/>
<text text-anchor="middle" x="598.5" y="-51" font-family="Helvetica,sans-Serif" font-size="10.00">render_course_actors</text>
</a>
</g>
</g>
<!-- Node115&#45;&gt;Node68 -->
<g id="edge58" class="edge">
<title>Node115&#45;&gt;Node68</title>
<path fill="none" stroke="midnightblue" d="M716.82,-96.08C710.1,-94.06 703.34,-91.85 697,-89.5 680.41,-83.35 677.49,-78.91 661,-72.5 652.15,-69.06 642.39,-65.81 633.31,-63"/>
<polygon fill="midnightblue" stroke="midnightblue" points="716,-99.49 726.58,-98.91 717.95,-92.76 716,-99.49"/>
</g>
<!-- Node116&#45;&gt;Node98 -->
<g id="edge61" class="edge">
<title>Node116&#45;&gt;Node98</title>
<path fill="none" stroke="midnightblue" d="M713.29,-146.83C654.69,-147.19 560.39,-147.77 500.09,-148.15"/>
<polygon fill="midnightblue" stroke="midnightblue" points="713.46,-150.33 723.44,-146.76 713.42,-143.33 713.46,-150.33"/>
</g>
<!-- Node117 -->
<g id="node47" class="node">
<title>Node117</title>
<g id="a_node47"><a xlink:href="code__800029B0_8c.html#aed19d831d4870c51cb5be8739574abbe" target="_top" xlink:title=" ">
<polygon fill="white" stroke="red" points="553,-82 553,-101 644,-101 644,-82 553,-82"/>
<text text-anchor="middle" x="598.5" y="-89" font-family="Helvetica,sans-Serif" font-size="10.00">func_80003040</text>
</a>
</g>
</g>
<!-- Node116&#45;&gt;Node117 -->
<g id="edge60" class="edge">
<title>Node116&#45;&gt;Node117</title>
<path fill="none" stroke="midnightblue" d="M719.26,-134.21C711.78,-132.08 704.16,-129.8 697,-127.5 671.75,-119.38 643.35,-108.71 623.74,-101.1"/>
<polygon fill="midnightblue" stroke="midnightblue" points="718.37,-137.59 728.94,-136.92 720.26,-130.85 718.37,-137.59"/>
</g>
<!-- Node74 -->
<g id="node49" class="node">
<title>Node74</title>
<g id="a_node49"><a xlink:href="actors_8c.html#aa6387502059c64a81d32c944b39d78f9" target="_top" xlink:title=" ">
<polygon fill="white" stroke="red" points="537,-6 537,-25 660,-25 660,-6 537,-6"/>
<text text-anchor="middle" x="598.5" y="-13" font-family="Helvetica,sans-Serif" font-size="10.00">update_course_actors</text>
</a>
</g>
</g>
<!-- Node119&#45;&gt;Node74 -->
<g id="edge63" class="edge">
<title>Node119&#45;&gt;Node74</title>
<path fill="none" stroke="midnightblue" d="M705.02,-46.55C680.31,-39.28 652.78,-31.18 632.04,-25.08"/>
<polygon fill="midnightblue" stroke="midnightblue" points="704.1,-49.93 714.69,-49.4 706.08,-43.22 704.1,-49.93"/>
</g>
<!-- Node120&#45;&gt;Node74 -->
<g id="edge65" class="edge">
<title>Node120&#45;&gt;Node74</title>
<path fill="none" stroke="midnightblue" d="M692.31,-15.5C681.51,-15.5 670.5,-15.5 660,-15.5"/>
<polygon fill="midnightblue" stroke="midnightblue" points="692.58,-19 702.58,-15.5 692.58,-12 692.58,-19"/>
</g>
</g>
</svg>
        <g id="navigator" transform="translate(0 0)" fill="#404254">
                <rect fill="#f2f5e9" fill-opacity="0.5" stroke="#606060" stroke-width=".5" x="0" y="0" width="60" height="60"/>
                <use id="zoomplus" xlink:href="#zoomPlus" x="17" y="9" onmousedown="handleZoom(evt,'in')"/>
                <use id="zoomminus" xlink:href="#zoomMin" x="42" y="9" onmousedown="handleZoom(evt,'out')"/>
                <use id="reset" xlink:href="#resetDef" x="30" y="36" onmousedown="handleReset()"/>
                <g id="arrowUp" xlink:href="#dirArrow" transform="translate(30 24)" onmousedown="handlePan(0,-1)">
                  <use xlink:href="#rim" fill="#404040">
                        <set attributeName="fill" to="#808080" begin="arrowUp.mouseover" end="arrowUp.mouseout"/>
                  </use>
                  <path fill="none" stroke="white" stroke-width="1.5" d="M0,-3.0v7 M-2.5,-0.5L0,-3.0L2.5,-0.5"/>
                </g>
                <g id="arrowRight" xlink:href="#dirArrow" transform="rotate(90) translate(36 -43)" onmousedown="handlePan(1,0)">
                  <use xlink:href="#rim" fill="#404040">
                        <set attributeName="fill" to="#808080" begin="arrowRight.mouseover" end="arrowRight.mouseout"/>
                  </use>
                  <path fill="none" stroke="white" stroke-width="1.5" d="M0,-3.0v7 M-2.5,-0.5L0,-3.0L2.5,-0.5"/>
                </g>
                <g id="arrowDown" xlink:href="#dirArrow" transform="rotate(180) translate(-30 -48)" onmousedown="handlePan(0,1)">
                  <use xlink:href="#rim" fill="#404040">
                        <set attributeName="fill" to="#808080" begin="arrowDown.mouseover" end="arrowDown.mouseout"/>
                  </use>
                  <path fill="none" stroke="white" stroke-width="1.5" d="M0,-3.0v7 M-2.5,-0.5L0,-3.0L2.5,-0.5"/>
                </g>
                <g id="arrowLeft" xlink:href="#dirArrow" transform="rotate(270) translate(-36 17)" onmousedown="handlePan(-1,0)">
                  <use xlink:href="#rim" fill="#404040">
                        <set attributeName="fill" to="#808080" begin="arrowLeft.mouseover" end="arrowLeft.mouseout"/>
                  </use>
                  <path fill="none" stroke="white" stroke-width="1.5" d="M0,-3.0v7 M-2.5,-0.5L0,-3.0L2.5,-0.5"/>
                </g>
        </g>
        <svg viewBox="0 0 15 15" width="100%" height="30px" preserveAspectRatio="xMaxYMin meet">
         <g id="arrow_out" transform="scale(0.3 0.3)">
          <a xlink:href="collision_8h_afc5d78e10298bf568082ef6f97f000de_icgraph_org.svg" target="_base">
           <rect id="button" ry="5" rx="5" y="6" x="6" height="38" width="38"
                fill="#f2f5e9" fill-opacity="0.5" stroke="#606060" stroke-width="1.0"/>
           <path id="arrow"
             d="M 11.500037,31.436501 C 11.940474,20.09759 22.043105,11.32322 32.158766,21.979434 L 37.068811,17.246167 C 37.068811,17.246167 37.088388,32 37.088388,32 L 22.160133,31.978069 C 22.160133,31.978069 26.997745,27.140456 26.997745,27.140456 C 18.528582,18.264221 13.291696,25.230495 11.500037,31.436501 z"
             style="fill:#404040;"/>
          </a>
         </g>
        </svg>
</svg>
