<?xml version="1.0" encoding="UTF-8" standalone="no"?>
<!DOCTYPE svg PUBLIC "-//W3C//DTD SVG 1.1//EN"
 "http://www.w3.org/Graphics/SVG/1.1/DTD/svg11.dtd">
<!-- Generated by graphviz version 2.43.0 (0)
 -->
<!-- Title: src/racing/collision.c Pages: 1 -->
<!--zoomable 588 -->
<svg id="main" version="1.1" xmlns="http://www.w3.org/2000/svg" xmlns:xlink="http://www.w3.org/1999/xlink" xml:space="preserve" onload="init(evt)">
<style type="text/css"><![CDATA[
.edge:hover path { stroke: red; }
.edge:hover polygon { stroke: red; fill: red; }
]]></style>
<script type="text/javascript"><![CDATA[
var edges = document.getElementsByTagName('g');
if (edges && edges.length) {
  for (var i=0;i<edges.length;i++) {
    if (edges[i].id.substr(0,4)=='edge') {
      edges[i].setAttribute('class','edge');
    }
  }
}
]]></script>
        <defs>
                <circle id="rim" cx="0" cy="0" r="7"/>
                <circle id="rim2" cx="0" cy="0" r="3.5"/>
                <g id="zoomPlus">
                        <use xlink:href="#rim" fill="#404040">
                                <set attributeName="fill" to="#808080" begin="zoomplus.mouseover" end="zoomplus.mouseout"/>
                        </use>
                        <path d="M-4,0h8M0,-4v8" fill="none" stroke="white" stroke-width="1.5" pointer-events="none"/>
                </g>
                <g id="zoomMin">
                        <use xlink:href="#rim" fill="#404040">
                                <set attributeName="fill" to="#808080" begin="zoomminus.mouseover" end="zoomminus.mouseout"/>
                        </use>
                        <path d="M-4,0h8" fill="none" stroke="white" stroke-width="1.5" pointer-events="none"/>
                </g>
                <g id="dirArrow">
                        <path fill="none" stroke="white" stroke-width="1.5" d="M0,-3.0v7 M-2.5,-0.5L0,-3.0L2.5,-0.5"/>
                </g>
               <g id="resetDef">
                       <use xlink:href="#rim2" fill="#404040">
                               <set attributeName="fill" to="#808080" begin="reset.mouseover" end="reset.mouseout"/>
                       </use>
               </g>
        </defs>

<script type="text/javascript">
var viewWidth = 1619;
var viewHeight = 588;
var sectionId = 'dynsection-0';
</script>
<script xlink:href="svgpan.js"/>
<svg id="graph" class="graph">
<g id="viewport">
<title>src/racing/collision.c</title>
<polygon fill="white" stroke="transparent" points="-4,4 -4,-584 1615,-584 1615,4 -4,4"/>
<!-- Node1 -->
<g id="node1" class="node">
<title>Node1</title>
<g id="a_node1"><a xlink:title=" ">
<polygon fill="#bfbfbf" stroke="black" points="1253,-560.5 1253,-579.5 1369,-579.5 1369,-560.5 1253,-560.5"/>
<text text-anchor="middle" x="1311" y="-567.5" font-family="Helvetica,sans-Serif" font-size="10.00">src/racing/collision.c</text>
</a>
</g>
</g>
<!-- Node2 -->
<g id="node2" class="node">
<title>Node2</title>
<g id="a_node2"><a xlink:href="ultra64_8h.html" target="_top" xlink:title=" ">
<polygon fill="white" stroke="black" points="877,-280.5 877,-299.5 937,-299.5 937,-280.5 877,-280.5"/>
<text text-anchor="middle" x="907" y="-287.5" font-family="Helvetica,sans-Serif" font-size="10.00">ultra64.h</text>
</a>
</g>
</g>
<!-- Node1&#45;&gt;Node2 -->
<g id="edge1" class="edge">
<title>Node1&#45;&gt;Node2</title>
<path fill="none" stroke="midnightblue" d="M1252.67,-569.91C1156.35,-570.19 969.85,-565.2 921,-524 897.99,-504.6 902,-489.1 902,-459 902,-459 902,-459 902,-401 902,-368.91 904.15,-331.62 905.63,-309.74"/>
<polygon fill="midnightblue" stroke="midnightblue" points="909.14,-309.77 906.35,-299.55 902.15,-309.28 909.14,-309.77"/>
</g>
<!-- Node21 -->
<g id="node21" class="node">
<title>Node21</title>
<g id="a_node21"><a xlink:href="gbi_8h.html" target="_top" xlink:title=" ">
<polygon fill="white" stroke="black" points="1486,-112.5 1486,-131.5 1542,-131.5 1542,-112.5 1486,-112.5"/>
<text text-anchor="middle" x="1514" y="-119.5" font-family="Helvetica,sans-Serif" font-size="10.00">PR/gbi.h</text>
</a>
</g>
</g>
<!-- Node1&#45;&gt;Node21 -->
<g id="edge53" class="edge">
<title>Node1&#45;&gt;Node21</title>
<path fill="none" stroke="midnightblue" d="M1365.68,-560.46C1452.21,-545.38 1611,-510.66 1611,-459 1611,-459 1611,-459 1611,-233 1611,-189.35 1567.49,-154.83 1538.76,-136.79"/>
<polygon fill="midnightblue" stroke="midnightblue" points="1540.39,-133.68 1530.02,-131.52 1536.77,-139.68 1540.39,-133.68"/>
</g>
<!-- Node29 -->
<g id="node29" class="node">
<title>Node29</title>
<g id="a_node29"><a xlink:href="macros_8h.html" target="_top" xlink:title=" ">
<polygon fill="white" stroke="black" points="1327,-392.5 1327,-411.5 1389,-411.5 1389,-392.5 1327,-392.5"/>
<text text-anchor="middle" x="1358" y="-399.5" font-family="Helvetica,sans-Serif" font-size="10.00">macros.h</text>
</a>
</g>
</g>
<!-- Node1&#45;&gt;Node29 -->
<g id="edge52" class="edge">
<title>Node1&#45;&gt;Node29</title>
<path fill="none" stroke="midnightblue" d="M1330.3,-560.48C1344.43,-553.08 1362.56,-540.89 1371,-524 1387.63,-490.75 1375.25,-446.04 1365.89,-421.34"/>
<polygon fill="midnightblue" stroke="midnightblue" points="1369.03,-419.75 1362.04,-411.78 1362.54,-422.37 1369.03,-419.75"/>
</g>
<!-- Node30 -->
<g id="node30" class="node">
<title>Node30</title>
<g id="a_node30"><a xlink:href="mk64_8h.html" target="_top" xlink:title=" ">
<polygon fill="white" stroke="black" points="930.5,-504.5 930.5,-523.5 983.5,-523.5 983.5,-504.5 930.5,-504.5"/>
<text text-anchor="middle" x="957" y="-511.5" font-family="Helvetica,sans-Serif" font-size="10.00">mk64.h</text>
</a>
</g>
</g>
<!-- Node1&#45;&gt;Node30 -->
<g id="edge54" class="edge">
<title>Node1&#45;&gt;Node30</title>
<path fill="none" stroke="midnightblue" d="M1252.75,-562.76C1190.68,-555.67 1089.39,-542.83 993.54,-524.13"/>
<polygon fill="midnightblue" stroke="midnightblue" points="994.17,-520.69 983.68,-522.19 992.81,-527.56 994.17,-520.69"/>
</g>
<!-- Node32 -->
<g id="node32" class="node">
<title>Node32</title>
<g id="a_node32"><a xlink:href="common__structs_8h.html" target="_top" xlink:title=" ">
<polygon fill="white" stroke="black" points="1267.5,-336.5 1267.5,-355.5 1374.5,-355.5 1374.5,-336.5 1267.5,-336.5"/>
<text text-anchor="middle" x="1321" y="-343.5" font-family="Helvetica,sans-Serif" font-size="10.00">common_structs.h</text>
</a>
</g>
</g>
<!-- Node1&#45;&gt;Node32 -->
<g id="edge62" class="edge">
<title>Node1&#45;&gt;Node32</title>
<path fill="none" stroke="midnightblue" d="M1338.08,-560.48C1355.38,-553.54 1376.63,-541.91 1388,-524 1414.78,-481.8 1395.78,-461.93 1398,-412 1398.4,-403.12 1402.42,-399.71 1398,-392 1389.38,-376.99 1373.61,-366.5 1358.57,-359.46"/>
<polygon fill="midnightblue" stroke="midnightblue" points="1359.94,-356.24 1349.37,-355.51 1357.18,-362.67 1359.94,-356.24"/>
</g>
<!-- Node35 -->
<g id="node35" class="node">
<title>Node35</title>
<g id="a_node35"><a xlink:href="actor__types_8h.html" target="_top" xlink:title=" ">
<polygon fill="white" stroke="black" points="1246.5,-448.5 1246.5,-467.5 1329.5,-467.5 1329.5,-448.5 1246.5,-448.5"/>
<text text-anchor="middle" x="1288" y="-455.5" font-family="Helvetica,sans-Serif" font-size="10.00">actor_types.h</text>
</a>
</g>
</g>
<!-- Node1&#45;&gt;Node35 -->
<g id="edge63" class="edge">
<title>Node1&#45;&gt;Node35</title>
<path fill="none" stroke="midnightblue" d="M1324.5,-560.36C1341.59,-548.28 1367.5,-525.4 1356,-504 1348.38,-489.82 1334.1,-479.35 1320.59,-472.1"/>
<polygon fill="midnightblue" stroke="midnightblue" points="1321.97,-468.88 1311.45,-467.59 1318.87,-475.16 1321.97,-468.88"/>
</g>
<!-- Node36 -->
<g id="node36" class="node">
<title>Node36</title>
<g id="a_node36"><a xlink:href="main_8h.html" target="_top" xlink:title=" ">
<polygon fill="white" stroke="black" points="1085,-504.5 1085,-523.5 1135,-523.5 1135,-504.5 1085,-504.5"/>
<text text-anchor="middle" x="1110" y="-511.5" font-family="Helvetica,sans-Serif" font-size="10.00">main.h</text>
</a>
</g>
</g>
<!-- Node1&#45;&gt;Node36 -->
<g id="edge67" class="edge">
<title>Node1&#45;&gt;Node36</title>
<path fill="none" stroke="midnightblue" d="M1279.15,-560.44C1242.62,-550.63 1182.92,-534.59 1145.09,-524.43"/>
<polygon fill="midnightblue" stroke="midnightblue" points="1145.6,-520.94 1135.03,-521.73 1143.78,-527.7 1145.6,-520.94"/>
</g>
<!-- Node37 -->
<g id="node37" class="node">
<title>Node37</title>
<g id="a_node37"><a xlink:href="memory_8h.html" target="_top" xlink:title=" ">
<polygon fill="white" stroke="black" points="1001.5,-504.5 1001.5,-523.5 1066.5,-523.5 1066.5,-504.5 1001.5,-504.5"/>
<text text-anchor="middle" x="1034" y="-511.5" font-family="Helvetica,sans-Serif" font-size="10.00">memory.h</text>
</a>
</g>
</g>
<!-- Node1&#45;&gt;Node37 -->
<g id="edge69" class="edge">
<title>Node1&#45;&gt;Node37</title>
<path fill="none" stroke="midnightblue" d="M1264.57,-560.42C1219.25,-551.97 1148.09,-538.53 1076.63,-524.09"/>
<polygon fill="midnightblue" stroke="midnightblue" points="1077.04,-520.6 1066.54,-522.05 1075.65,-527.46 1077.04,-520.6"/>
</g>
<!-- Node38 -->
<g id="node38" class="node">
<title>Node38</title>
<g id="a_node38"><a xlink:href="collision_8h.html" target="_top" xlink:title=" ">
<polygon fill="white" stroke="black" points="1517,-392.5 1517,-411.5 1583,-411.5 1583,-392.5 1517,-392.5"/>
<text text-anchor="middle" x="1550" y="-399.5" font-family="Helvetica,sans-Serif" font-size="10.00">collision.h</text>
</a>
</g>
</g>
<!-- Node1&#45;&gt;Node38 -->
<g id="edge71" class="edge">
<title>Node1&#45;&gt;Node38</title>
<path fill="none" stroke="midnightblue" d="M1369.21,-561.48C1399.91,-555.29 1436.92,-544.11 1465,-524 1502.96,-496.82 1529.88,-447.19 1542.29,-420.73"/>
<polygon fill="midnightblue" stroke="midnightblue" points="1545.53,-422.07 1546.46,-411.52 1539.15,-419.19 1545.53,-422.07"/>
</g>
<!-- Node39 -->
<g id="node39" class="node">
<title>Node39</title>
<g id="a_node39"><a xlink:href="math__util_8h.html" target="_top" xlink:title=" ">
<polygon fill="white" stroke="black" points="1275,-504.5 1275,-523.5 1347,-523.5 1347,-504.5 1275,-504.5"/>
<text text-anchor="middle" x="1311" y="-511.5" font-family="Helvetica,sans-Serif" font-size="10.00">math_util.h</text>
</a>
</g>
</g>
<!-- Node1&#45;&gt;Node39 -->
<g id="edge73" class="edge">
<title>Node1&#45;&gt;Node39</title>
<path fill="none" stroke="midnightblue" d="M1311,-560.08C1311,-553.01 1311,-542.86 1311,-533.99"/>
<polygon fill="midnightblue" stroke="midnightblue" points="1314.5,-533.75 1311,-523.75 1307.5,-533.75 1314.5,-533.75"/>
</g>
<!-- Node40 -->
<g id="node40" class="node">
<title>Node40</title>
<g id="a_node40"><a xlink:href="code__800029B0_8h.html" target="_top" xlink:title=" ">
<polygon fill="white" stroke="black" points="1153.5,-504.5 1153.5,-523.5 1256.5,-523.5 1256.5,-504.5 1153.5,-504.5"/>
<text text-anchor="middle" x="1205" y="-511.5" font-family="Helvetica,sans-Serif" font-size="10.00">code_800029B0.h</text>
</a>
</g>
</g>
<!-- Node1&#45;&gt;Node40 -->
<g id="edge76" class="edge">
<title>Node1&#45;&gt;Node40</title>
<path fill="none" stroke="midnightblue" d="M1293.97,-560.32C1276.97,-551.66 1250.62,-538.24 1231.01,-528.25"/>
<polygon fill="midnightblue" stroke="midnightblue" points="1232.49,-525.08 1221.99,-523.65 1229.31,-531.31 1232.49,-525.08"/>
</g>
<!-- Node3 -->
<g id="node3" class="node">
<title>Node3</title>
<g id="a_node3"><a xlink:href="math_8h.html" target="_top" xlink:title=" ">
<polygon fill="white" stroke="black" points="884.5,-224.5 884.5,-243.5 935.5,-243.5 935.5,-224.5 884.5,-224.5"/>
<text text-anchor="middle" x="910" y="-231.5" font-family="Helvetica,sans-Serif" font-size="10.00">math.h</text>
</a>
</g>
</g>
<!-- Node2&#45;&gt;Node3 -->
<g id="edge2" class="edge">
<title>Node2&#45;&gt;Node3</title>
<path fill="none" stroke="midnightblue" d="M907.5,-280.08C907.89,-273.01 908.45,-262.86 908.95,-253.99"/>
<polygon fill="midnightblue" stroke="midnightblue" points="912.45,-253.93 909.51,-243.75 905.46,-253.54 912.45,-253.93"/>
</g>
<!-- Node4 -->
<g id="node4" class="node">
<title>Node4</title>
<g id="a_node4"><a xlink:href="ultratypes_8h.html" target="_top" xlink:title=" ">
<polygon fill="white" stroke="black" points="608.5,-56.5 608.5,-75.5 699.5,-75.5 699.5,-56.5 608.5,-56.5"/>
<text text-anchor="middle" x="654" y="-63.5" font-family="Helvetica,sans-Serif" font-size="10.00">PR/ultratypes.h</text>
</a>
</g>
</g>
<!-- Node2&#45;&gt;Node4 -->
<g id="edge3" class="edge">
<title>Node2&#45;&gt;Node4</title>
<path fill="none" stroke="midnightblue" d="M937.07,-289.03C1051.59,-288.82 1455.89,-285.15 1494,-244 1500.04,-237.48 1496.1,-232.64 1494,-224 1472.76,-136.81 1413.48,-132.01 1326,-112 1209.24,-85.29 848.98,-72.51 709.73,-68.47"/>
<polygon fill="midnightblue" stroke="midnightblue" points="709.8,-64.97 699.7,-68.18 709.6,-71.97 709.8,-64.97"/>
</g>
<!-- Node6 -->
<g id="node6" class="node">
<title>Node6</title>
<g id="a_node6"><a xlink:href="os__exception_8h.html" target="_top" xlink:title=" ">
<polygon fill="white" stroke="black" points="0,-168.5 0,-187.5 106,-187.5 106,-168.5 0,-168.5"/>
<text text-anchor="middle" x="53" y="-175.5" font-family="Helvetica,sans-Serif" font-size="10.00">PR/os_exception.h</text>
</a>
</g>
</g>
<!-- Node2&#45;&gt;Node6 -->
<g id="edge6" class="edge">
<title>Node2&#45;&gt;Node6</title>
<path fill="none" stroke="midnightblue" d="M876.78,-288.61C758.09,-286.84 323.85,-278.13 191,-244 148.05,-232.97 102.25,-208.56 75.7,-192.99"/>
<polygon fill="midnightblue" stroke="midnightblue" points="77.21,-189.82 66.83,-187.7 73.62,-195.83 77.21,-189.82"/>
</g>
<!-- Node7 -->
<g id="node7" class="node">
<title>Node7</title>
<g id="a_node7"><a xlink:href="os__misc_8h.html" target="_top" xlink:title=" ">
<polygon fill="white" stroke="black" points="124.5,-168.5 124.5,-187.5 205.5,-187.5 205.5,-168.5 124.5,-168.5"/>
<text text-anchor="middle" x="165" y="-175.5" font-family="Helvetica,sans-Serif" font-size="10.00">PR/os_misc.h</text>
</a>
</g>
</g>
<!-- Node2&#45;&gt;Node7 -->
<g id="edge8" class="edge">
<title>Node2&#45;&gt;Node7</title>
<path fill="none" stroke="midnightblue" d="M877,-288.41C752.37,-285.77 279.23,-273.86 220,-244 199.64,-233.74 183.85,-212.25 174.52,-196.79"/>
<polygon fill="midnightblue" stroke="midnightblue" points="177.32,-194.63 169.33,-187.67 171.23,-198.1 177.32,-194.63"/>
</g>
<!-- Node8 -->
<g id="node8" class="node">
<title>Node8</title>
<g id="a_node8"><a xlink:href="os__rdp_8h.html" target="_top" xlink:title=" ">
<polygon fill="white" stroke="black" points="196,-112.5 196,-131.5 270,-131.5 270,-112.5 196,-112.5"/>
<text text-anchor="middle" x="233" y="-119.5" font-family="Helvetica,sans-Serif" font-size="10.00">PR/os_rdp.h</text>
</a>
</g>
</g>
<!-- Node2&#45;&gt;Node8 -->
<g id="edge10" class="edge">
<title>Node2&#45;&gt;Node8</title>
<path fill="none" stroke="midnightblue" d="M876.85,-288.73C758.04,-287.42 326.3,-280.19 278,-244 245.51,-219.66 236.47,-169.19 233.96,-141.75"/>
<polygon fill="midnightblue" stroke="midnightblue" points="237.43,-141.27 233.23,-131.54 230.45,-141.77 237.43,-141.27"/>
</g>
<!-- Node9 -->
<g id="node9" class="node">
<title>Node9</title>
<g id="a_node9"><a xlink:href="os__thread_8h.html" target="_top" xlink:title=" ">
<polygon fill="white" stroke="black" points="288.5,-112.5 288.5,-131.5 377.5,-131.5 377.5,-112.5 288.5,-112.5"/>
<text text-anchor="middle" x="333" y="-119.5" font-family="Helvetica,sans-Serif" font-size="10.00">PR/os_thread.h</text>
</a>
</g>
</g>
<!-- Node2&#45;&gt;Node9 -->
<g id="edge12" class="edge">
<title>Node2&#45;&gt;Node9</title>
<path fill="none" stroke="midnightblue" d="M876.67,-289.14C758.19,-289.39 331.2,-287.24 291,-244 263.12,-214 297.09,-164.54 318.35,-139.14"/>
<polygon fill="midnightblue" stroke="midnightblue" points="321.06,-141.37 324.97,-131.52 315.77,-136.78 321.06,-141.37"/>
</g>
<!-- Node10 -->
<g id="node10" class="node">
<title>Node10</title>
<g id="a_node10"><a xlink:href="os__time_8h.html" target="_top" xlink:title=" ">
<polygon fill="white" stroke="black" points="300,-224.5 300,-243.5 380,-243.5 380,-224.5 300,-224.5"/>
<text text-anchor="middle" x="340" y="-231.5" font-family="Helvetica,sans-Serif" font-size="10.00">PR/os_time.h</text>
</a>
</g>
</g>
<!-- Node2&#45;&gt;Node10 -->
<g id="edge14" class="edge">
<title>Node2&#45;&gt;Node10</title>
<path fill="none" stroke="midnightblue" d="M876.85,-287.18C797.55,-282.2 576.71,-267.2 394,-244 392.73,-243.84 391.44,-243.67 390.14,-243.49"/>
<polygon fill="midnightblue" stroke="midnightblue" points="390.45,-240 380.05,-242.03 389.45,-246.93 390.45,-240"/>
</g>
<!-- Node11 -->
<g id="node11" class="node">
<title>Node11</title>
<g id="a_node11"><a xlink:href="os__message_8h.html" target="_top" xlink:title=" ">
<polygon fill="white" stroke="black" points="417,-168.5 417,-187.5 519,-187.5 519,-168.5 417,-168.5"/>
<text text-anchor="middle" x="468" y="-175.5" font-family="Helvetica,sans-Serif" font-size="10.00">PR/os_message.h</text>
</a>
</g>
</g>
<!-- Node2&#45;&gt;Node11 -->
<g id="edge19" class="edge">
<title>Node2&#45;&gt;Node11</title>
<path fill="none" stroke="midnightblue" d="M876.69,-288.47C776,-286.42 457.33,-277.3 427,-244 413.08,-228.71 431.04,-208.11 447.38,-194.23"/>
<polygon fill="midnightblue" stroke="midnightblue" points="449.98,-196.63 455.6,-187.65 445.61,-191.17 449.98,-196.63"/>
</g>
<!-- Node12 -->
<g id="node12" class="node">
<title>Node12</title>
<g id="a_node12"><a xlink:href="os__cont_8h.html" target="_top" xlink:title=" ">
<polygon fill="white" stroke="black" points="436.5,-224.5 436.5,-243.5 515.5,-243.5 515.5,-224.5 436.5,-224.5"/>
<text text-anchor="middle" x="476" y="-231.5" font-family="Helvetica,sans-Serif" font-size="10.00">PR/os_cont.h</text>
</a>
</g>
</g>
<!-- Node2&#45;&gt;Node12 -->
<g id="edge20" class="edge">
<title>Node2&#45;&gt;Node12</title>
<path fill="none" stroke="midnightblue" d="M876.62,-286.14C813.28,-280.04 662.33,-264.68 525.74,-244.18"/>
<polygon fill="midnightblue" stroke="midnightblue" points="525.93,-240.67 515.52,-242.63 524.88,-247.59 525.93,-240.67"/>
</g>
<!-- Node13 -->
<g id="node13" class="node">
<title>Node13</title>
<g id="a_node13"><a xlink:href="os__tlb_8h.html" target="_top" xlink:title=" ">
<polygon fill="white" stroke="black" points="651.5,-168.5 651.5,-187.5 722.5,-187.5 722.5,-168.5 651.5,-168.5"/>
<text text-anchor="middle" x="687" y="-175.5" font-family="Helvetica,sans-Serif" font-size="10.00">PR/os_tlb.h</text>
</a>
</g>
</g>
<!-- Node2&#45;&gt;Node13 -->
<g id="edge23" class="edge">
<title>Node2&#45;&gt;Node13</title>
<path fill="none" stroke="midnightblue" d="M876.79,-282.87C847.29,-276.09 801.77,-263.48 766,-244 741.78,-230.81 717.89,-209.71 702.82,-195.15"/>
<polygon fill="midnightblue" stroke="midnightblue" points="704.99,-192.37 695.42,-187.82 700.07,-197.35 704.99,-192.37"/>
</g>
<!-- Node14 -->
<g id="node14" class="node">
<title>Node14</title>
<g id="a_node14"><a xlink:href="sptask_8h.html" target="_top" xlink:title=" ">
<polygon fill="white" stroke="black" points="702,-112.5 702,-131.5 776,-131.5 776,-112.5 702,-112.5"/>
<text text-anchor="middle" x="739" y="-119.5" font-family="Helvetica,sans-Serif" font-size="10.00">PR/sptask.h</text>
</a>
</g>
</g>
<!-- Node2&#45;&gt;Node14 -->
<g id="edge25" class="edge">
<title>Node2&#45;&gt;Node14</title>
<path fill="none" stroke="midnightblue" d="M888.96,-280.36C872.41,-272.07 847.58,-258.67 828,-244 799.32,-222.52 790.94,-217.08 770,-188 759.51,-173.43 751.03,-154.75 745.61,-141.16"/>
<polygon fill="midnightblue" stroke="midnightblue" points="748.77,-139.62 741.94,-131.52 742.23,-142.12 748.77,-139.62"/>
</g>
<!-- Node15 -->
<g id="node15" class="node">
<title>Node15</title>
<g id="a_node15"><a xlink:href="ucode_8h.html" target="_top" xlink:title=" ">
<polygon fill="white" stroke="black" points="1102.5,-224.5 1102.5,-243.5 1173.5,-243.5 1173.5,-224.5 1102.5,-224.5"/>
<text text-anchor="middle" x="1138" y="-231.5" font-family="Helvetica,sans-Serif" font-size="10.00">PR/ucode.h</text>
</a>
</g>
</g>
<!-- Node2&#45;&gt;Node15 -->
<g id="edge27" class="edge">
<title>Node2&#45;&gt;Node15</title>
<path fill="none" stroke="midnightblue" d="M937.2,-281.94C976.77,-272.69 1046.51,-256.39 1092.49,-245.64"/>
<polygon fill="midnightblue" stroke="midnightblue" points="1093.55,-248.99 1102.49,-243.3 1091.96,-242.17 1093.55,-248.99"/>
</g>
<!-- Node16 -->
<g id="node16" class="node">
<title>Node16</title>
<g id="a_node16"><a xlink:href="os__cache_8h.html" target="_top" xlink:title=" ">
<polygon fill="white" stroke="black" points="779,-168.5 779,-187.5 865,-187.5 865,-168.5 779,-168.5"/>
<text text-anchor="middle" x="822" y="-175.5" font-family="Helvetica,sans-Serif" font-size="10.00">PR/os_cache.h</text>
</a>
</g>
</g>
<!-- Node2&#45;&gt;Node16 -->
<g id="edge28" class="edge">
<title>Node2&#45;&gt;Node16</title>
<path fill="none" stroke="midnightblue" d="M888.46,-280.48C873.85,-272.87 854,-260.39 842,-244 832.08,-230.45 827.01,-211.9 824.46,-198.09"/>
<polygon fill="midnightblue" stroke="midnightblue" points="827.86,-197.15 822.87,-187.81 820.94,-198.23 827.86,-197.15"/>
</g>
<!-- Node17 -->
<g id="node17" class="node">
<title>Node17</title>
<g id="a_node17"><a xlink:href="os__vi_8h.html" target="_top" xlink:title=" ">
<polygon fill="white" stroke="black" points="533.5,-224.5 533.5,-243.5 600.5,-243.5 600.5,-224.5 533.5,-224.5"/>
<text text-anchor="middle" x="567" y="-231.5" font-family="Helvetica,sans-Serif" font-size="10.00">PR/os_vi.h</text>
</a>
</g>
</g>
<!-- Node2&#45;&gt;Node17 -->
<g id="edge30" class="edge">
<title>Node2&#45;&gt;Node17</title>
<path fill="none" stroke="midnightblue" d="M876.87,-285.07C824.65,-278.13 713.76,-262.8 610.82,-244.25"/>
<polygon fill="midnightblue" stroke="midnightblue" points="611.36,-240.79 600.89,-242.45 610.1,-247.68 611.36,-240.79"/>
</g>
<!-- Node18 -->
<g id="node18" class="node">
<title>Node18</title>
<g id="a_node18"><a xlink:href="os__pi_8h.html" target="_top" xlink:title=" ">
<polygon fill="white" stroke="black" points="1191.5,-224.5 1191.5,-243.5 1258.5,-243.5 1258.5,-224.5 1191.5,-224.5"/>
<text text-anchor="middle" x="1225" y="-231.5" font-family="Helvetica,sans-Serif" font-size="10.00">PR/os_pi.h</text>
</a>
</g>
</g>
<!-- Node2&#45;&gt;Node18 -->
<g id="edge33" class="edge">
<title>Node2&#45;&gt;Node18</title>
<path fill="none" stroke="midnightblue" d="M937.31,-284.56C986.47,-277.25 1086.85,-261.87 1181.12,-244.29"/>
<polygon fill="midnightblue" stroke="midnightblue" points="1181.92,-247.7 1191.1,-242.41 1180.63,-240.82 1181.92,-247.7"/>
</g>
<!-- Node19 -->
<g id="node19" class="node">
<title>Node19</title>
<g id="a_node19"><a xlink:href="os__internal_8h.html" target="_top" xlink:title=" ">
<polygon fill="white" stroke="black" points="1276.5,-224.5 1276.5,-243.5 1371.5,-243.5 1371.5,-224.5 1276.5,-224.5"/>
<text text-anchor="middle" x="1324" y="-231.5" font-family="Helvetica,sans-Serif" font-size="10.00">PR/os_internal.h</text>
</a>
</g>
</g>
<!-- Node2&#45;&gt;Node19 -->
<g id="edge34" class="edge">
<title>Node2&#45;&gt;Node19</title>
<path fill="none" stroke="midnightblue" d="M937.48,-285.57C998.11,-278.66 1138.4,-262.3 1266.38,-244.19"/>
<polygon fill="midnightblue" stroke="midnightblue" points="1266.95,-247.65 1276.36,-242.77 1265.97,-240.72 1266.95,-247.65"/>
</g>
<!-- Node20 -->
<g id="node20" class="node">
<title>Node20</title>
<g id="a_node20"><a xlink:href="mbi_8h.html" target="_top" xlink:title=" ">
<polygon fill="white" stroke="black" points="1057,-168.5 1057,-187.5 1117,-187.5 1117,-168.5 1057,-168.5"/>
<text text-anchor="middle" x="1087" y="-175.5" font-family="Helvetica,sans-Serif" font-size="10.00">PR/mbi.h</text>
</a>
</g>
</g>
<!-- Node2&#45;&gt;Node20 -->
<g id="edge35" class="edge">
<title>Node2&#45;&gt;Node20</title>
<path fill="none" stroke="midnightblue" d="M937.03,-286.69C969.28,-282.78 1020.39,-272.25 1054,-244 1068.36,-231.93 1077.15,-212.05 1082.01,-197.44"/>
<polygon fill="midnightblue" stroke="midnightblue" points="1085.47,-198.11 1084.99,-187.52 1078.76,-196.1 1085.47,-198.11"/>
</g>
<!-- Node23 -->
<g id="node23" class="node">
<title>Node23</title>
<g id="a_node23"><a xlink:href="os__eeprom_8h.html" target="_top" xlink:title=" ">
<polygon fill="white" stroke="black" points="618.5,-224.5 618.5,-243.5 713.5,-243.5 713.5,-224.5 618.5,-224.5"/>
<text text-anchor="middle" x="666" y="-231.5" font-family="Helvetica,sans-Serif" font-size="10.00">PR/os_eeprom.h</text>
</a>
</g>
</g>
<!-- Node2&#45;&gt;Node23 -->
<g id="edge39" class="edge">
<title>Node2&#45;&gt;Node23</title>
<path fill="none" stroke="midnightblue" d="M876.96,-282.27C836.09,-273.11 762.48,-256.62 713.93,-245.74"/>
<polygon fill="midnightblue" stroke="midnightblue" points="714.49,-242.28 703.97,-243.51 712.96,-249.11 714.49,-242.28"/>
</g>
<!-- Node24 -->
<g id="node24" class="node">
<title>Node24</title>
<g id="a_node24"><a xlink:href="os__libc_8h.html" target="_top" xlink:title=" ">
<polygon fill="white" stroke="black" points="848.5,-112.5 848.5,-131.5 923.5,-131.5 923.5,-112.5 848.5,-112.5"/>
<text text-anchor="middle" x="886" y="-119.5" font-family="Helvetica,sans-Serif" font-size="10.00">PR/os_libc.h</text>
</a>
</g>
</g>
<!-- Node2&#45;&gt;Node24 -->
<g id="edge42" class="edge">
<title>Node2&#45;&gt;Node24</title>
<path fill="none" stroke="midnightblue" d="M898.25,-280.29C890.44,-271.84 879.55,-258.25 875,-244 869.08,-225.46 877.41,-170.79 882.52,-141.7"/>
<polygon fill="midnightblue" stroke="midnightblue" points="886.01,-142.08 884.35,-131.61 879.12,-140.83 886.01,-142.08"/>
</g>
<!-- Node25 -->
<g id="node25" class="node">
<title>Node25</title>
<g id="a_node25"><a xlink:href="gu_8h.html" target="_top" xlink:title=" ">
<polygon fill="white" stroke="black" points="992.5,-224.5 992.5,-243.5 1045.5,-243.5 1045.5,-224.5 992.5,-224.5"/>
<text text-anchor="middle" x="1019" y="-231.5" font-family="Helvetica,sans-Serif" font-size="10.00">PR/gu.h</text>
</a>
</g>
</g>
<!-- Node2&#45;&gt;Node25 -->
<g id="edge44" class="edge">
<title>Node2&#45;&gt;Node25</title>
<path fill="none" stroke="midnightblue" d="M924.99,-280.32C943.04,-271.62 971.05,-258.12 991.8,-248.11"/>
<polygon fill="midnightblue" stroke="midnightblue" points="993.56,-251.15 1001.05,-243.65 990.52,-244.84 993.56,-251.15"/>
</g>
<!-- Node26 -->
<g id="node26" class="node">
<title>Node26</title>
<g id="a_node26"><a xlink:href="os__ai_8h.html" target="_top" xlink:title=" ">
<polygon fill="white" stroke="black" points="1249.5,-112.5 1249.5,-131.5 1316.5,-131.5 1316.5,-112.5 1249.5,-112.5"/>
<text text-anchor="middle" x="1283" y="-119.5" font-family="Helvetica,sans-Serif" font-size="10.00">PR/os_ai.h</text>
</a>
</g>
</g>
<!-- Node2&#45;&gt;Node26 -->
<g id="edge47" class="edge">
<title>Node2&#45;&gt;Node26</title>
<path fill="none" stroke="midnightblue" d="M937.25,-288.94C1049.59,-288.42 1438.29,-283.73 1475,-244 1525.4,-189.45 1397.51,-149.64 1326.54,-132.43"/>
<polygon fill="midnightblue" stroke="midnightblue" points="1327.05,-128.95 1316.51,-130.05 1325.44,-135.76 1327.05,-128.95"/>
</g>
<!-- Node27 -->
<g id="node27" class="node">
<title>Node27</title>
<g id="a_node27"><a xlink:href="libaudio_8h.html" target="_top" xlink:title=" ">
<polygon fill="white" stroke="black" points="921,-168.5 921,-187.5 1001,-187.5 1001,-168.5 921,-168.5"/>
<text text-anchor="middle" x="961" y="-175.5" font-family="Helvetica,sans-Serif" font-size="10.00">PR/libaudio.h</text>
</a>
</g>
</g>
<!-- Node2&#45;&gt;Node27 -->
<g id="edge49" class="edge">
<title>Node2&#45;&gt;Node27</title>
<path fill="none" stroke="midnightblue" d="M916.24,-280.2C924.66,-271.69 936.83,-258.05 944,-244 951.46,-229.39 955.85,-211.22 958.3,-197.8"/>
<polygon fill="midnightblue" stroke="midnightblue" points="961.77,-198.27 959.92,-187.84 954.86,-197.15 961.77,-198.27"/>
</g>
<!-- Node28 -->
<g id="node28" class="node">
<title>Node28</title>
<g id="a_node28"><a xlink:href="libultra_8h.html" target="_top" xlink:title=" ">
<polygon fill="white" stroke="black" points="1390,-224.5 1390,-243.5 1466,-243.5 1466,-224.5 1390,-224.5"/>
<text text-anchor="middle" x="1428" y="-231.5" font-family="Helvetica,sans-Serif" font-size="10.00">PR/libultra.h</text>
</a>
</g>
</g>
<!-- Node2&#45;&gt;Node28 -->
<g id="edge51" class="edge">
<title>Node2&#45;&gt;Node28</title>
<path fill="none" stroke="midnightblue" d="M937.06,-287.14C1010.76,-282.36 1206.42,-268.4 1379.76,-244.05"/>
<polygon fill="midnightblue" stroke="midnightblue" points="1380.42,-247.49 1389.83,-242.62 1379.44,-240.56 1380.42,-247.49"/>
</g>
<!-- Node5 -->
<g id="node5" class="node">
<title>Node5</title>
<g id="a_node5"><a xlink:href="stddef_8h.html" target="_top" xlink:title=" ">
<polygon fill="white" stroke="black" points="626,-0.5 626,-19.5 682,-19.5 682,-0.5 626,-0.5"/>
<text text-anchor="middle" x="654" y="-7.5" font-family="Helvetica,sans-Serif" font-size="10.00">stddef.h</text>
</a>
</g>
</g>
<!-- Node4&#45;&gt;Node5 -->
<g id="edge4" class="edge">
<title>Node4&#45;&gt;Node5</title>
<path fill="none" stroke="midnightblue" d="M648.83,-56.08C647.32,-48.93 646.89,-38.64 647.54,-29.69"/>
<polygon fill="midnightblue" stroke="midnightblue" points="651.02,-30.13 648.87,-19.75 644.08,-29.2 651.02,-30.13"/>
</g>
<!-- Node5&#45;&gt;Node4 -->
<g id="edge5" class="edge">
<title>Node5&#45;&gt;Node4</title>
<path fill="none" stroke="midnightblue" d="M659.13,-19.75C660.66,-26.86 661.1,-37.14 660.47,-46.1"/>
<polygon fill="midnightblue" stroke="midnightblue" points="656.99,-45.71 659.17,-56.08 663.93,-46.62 656.99,-45.71"/>
</g>
<!-- Node6&#45;&gt;Node4 -->
<g id="edge7" class="edge">
<title>Node6&#45;&gt;Node4</title>
<path fill="none" stroke="midnightblue" d="M64.55,-168.41C84.73,-153.91 128.26,-124.91 170,-112 248.59,-87.7 488.19,-74.31 597.98,-69.31"/>
<polygon fill="midnightblue" stroke="midnightblue" points="598.35,-72.8 608.19,-68.85 598.04,-65.8 598.35,-72.8"/>
</g>
<!-- Node7&#45;&gt;Node4 -->
<g id="edge9" class="edge">
<title>Node7&#45;&gt;Node4</title>
<path fill="none" stroke="midnightblue" d="M165.14,-168.17C165.89,-153.84 169.63,-125.76 187,-112 218.64,-86.92 481.38,-73.7 598.28,-69.01"/>
<polygon fill="midnightblue" stroke="midnightblue" points="598.61,-72.5 608.46,-68.61 598.33,-65.5 598.61,-72.5"/>
</g>
<!-- Node8&#45;&gt;Node4 -->
<g id="edge11" class="edge">
<title>Node8&#45;&gt;Node4</title>
<path fill="none" stroke="midnightblue" d="M270.12,-113.49C273.12,-112.96 276.11,-112.46 279,-112 391.9,-94.21 524.9,-79.78 598.29,-72.39"/>
<polygon fill="midnightblue" stroke="midnightblue" points="598.65,-75.87 608.25,-71.39 597.95,-68.9 598.65,-75.87"/>
</g>
<!-- Node9&#45;&gt;Node4 -->
<g id="edge13" class="edge">
<title>Node9&#45;&gt;Node4</title>
<path fill="none" stroke="midnightblue" d="M377.63,-113.49C435.32,-103.79 535.76,-86.89 598.36,-76.36"/>
<polygon fill="midnightblue" stroke="midnightblue" points="599.17,-79.77 608.45,-74.66 598.01,-72.87 599.17,-79.77"/>
</g>
<!-- Node10&#45;&gt;Node4 -->
<g id="edge15" class="edge">
<title>Node10&#45;&gt;Node4</title>
<path fill="none" stroke="midnightblue" d="M347.79,-224.3C359.86,-211.13 384.18,-185.77 408,-168 448.21,-138 459.94,-131.87 506,-112 539.23,-97.67 578.49,-85.95 608.22,-78.07"/>
<polygon fill="midnightblue" stroke="midnightblue" points="609.12,-81.46 617.92,-75.55 607.36,-74.68 609.12,-81.46"/>
</g>
<!-- Node10&#45;&gt;Node11 -->
<g id="edge16" class="edge">
<title>Node10&#45;&gt;Node11</title>
<path fill="none" stroke="midnightblue" d="M360.28,-224.44C381.35,-215.56 414.52,-201.56 438.49,-191.45"/>
<polygon fill="midnightblue" stroke="midnightblue" points="439.96,-194.63 447.81,-187.52 437.24,-188.18 439.96,-194.63"/>
</g>
<!-- Node11&#45;&gt;Node4 -->
<g id="edge17" class="edge">
<title>Node11&#45;&gt;Node4</title>
<path fill="none" stroke="midnightblue" d="M474.67,-168.23C485.52,-154.5 508.29,-127.86 533,-112 556.52,-96.9 585.83,-85.84 609.71,-78.46"/>
<polygon fill="midnightblue" stroke="midnightblue" points="611,-81.73 619.59,-75.52 609,-75.02 611,-81.73"/>
</g>
<!-- Node11&#45;&gt;Node9 -->
<g id="edge18" class="edge">
<title>Node11&#45;&gt;Node9</title>
<path fill="none" stroke="midnightblue" d="M446.61,-168.44C424.29,-159.52 389.1,-145.44 363.79,-135.32"/>
<polygon fill="midnightblue" stroke="midnightblue" points="364.88,-131.98 354.29,-131.52 362.28,-138.48 364.88,-131.98"/>
</g>
<!-- Node12&#45;&gt;Node4 -->
<g id="edge21" class="edge">
<title>Node12&#45;&gt;Node4</title>
<path fill="none" stroke="midnightblue" d="M486.5,-224.19C497.1,-215.23 513.88,-200.87 528,-188 568.47,-151.1 614.54,-106.05 638.18,-82.71"/>
<polygon fill="midnightblue" stroke="midnightblue" points="640.64,-85.19 645.29,-75.67 635.72,-80.21 640.64,-85.19"/>
</g>
<!-- Node12&#45;&gt;Node11 -->
<g id="edge22" class="edge">
<title>Node12&#45;&gt;Node11</title>
<path fill="none" stroke="midnightblue" d="M474.68,-224.08C473.62,-216.93 472.09,-206.64 470.77,-197.69"/>
<polygon fill="midnightblue" stroke="midnightblue" points="474.22,-197.13 469.3,-187.75 467.3,-198.16 474.22,-197.13"/>
</g>
<!-- Node13&#45;&gt;Node4 -->
<g id="edge24" class="edge">
<title>Node13&#45;&gt;Node4</title>
<path fill="none" stroke="midnightblue" d="M684.41,-168.37C679.06,-150.54 666.69,-109.3 659.48,-85.27"/>
<polygon fill="midnightblue" stroke="midnightblue" points="662.8,-84.16 656.58,-75.59 656.1,-86.18 662.8,-84.16"/>
</g>
<!-- Node14&#45;&gt;Node4 -->
<g id="edge26" class="edge">
<title>Node14&#45;&gt;Node4</title>
<path fill="none" stroke="midnightblue" d="M725.34,-112.32C712.08,-103.9 691.73,-90.97 676.15,-81.07"/>
<polygon fill="midnightblue" stroke="midnightblue" points="677.94,-78.06 667.62,-75.65 674.19,-83.97 677.94,-78.06"/>
</g>
<!-- Node16&#45;&gt;Node4 -->
<g id="edge29" class="edge">
<title>Node16&#45;&gt;Node4</title>
<path fill="none" stroke="midnightblue" d="M819.23,-168.09C814.46,-154.16 803.39,-127.25 785,-112 763.51,-94.18 734.57,-83.27 709.36,-76.67"/>
<polygon fill="midnightblue" stroke="midnightblue" points="710.09,-73.24 699.54,-74.26 708.42,-80.04 710.09,-73.24"/>
</g>
<!-- Node17&#45;&gt;Node4 -->
<g id="edge31" class="edge">
<title>Node17&#45;&gt;Node4</title>
<path fill="none" stroke="midnightblue" d="M571.68,-224.08C585.49,-197.72 626.29,-119.88 644.74,-84.66"/>
<polygon fill="midnightblue" stroke="midnightblue" points="647.97,-86.05 649.51,-75.57 641.77,-82.8 647.97,-86.05"/>
</g>
<!-- Node17&#45;&gt;Node11 -->
<g id="edge32" class="edge">
<title>Node17&#45;&gt;Node11</title>
<path fill="none" stroke="midnightblue" d="M551.09,-224.32C535.36,-215.74 511.06,-202.49 492.79,-192.52"/>
<polygon fill="midnightblue" stroke="midnightblue" points="494.32,-189.37 483.87,-187.65 490.97,-195.52 494.32,-189.37"/>
</g>
<!-- Node20&#45;&gt;Node21 -->
<g id="edge36" class="edge">
<title>Node20&#45;&gt;Node21</title>
<path fill="none" stroke="midnightblue" d="M1117.03,-173.2C1192.85,-163.61 1391.96,-138.43 1475.86,-127.82"/>
<polygon fill="midnightblue" stroke="midnightblue" points="1476.49,-131.27 1485.97,-126.54 1475.61,-124.33 1476.49,-131.27"/>
</g>
<!-- Node22 -->
<g id="node22" class="node">
<title>Node22</title>
<g id="a_node22"><a xlink:href="abi_8h.html" target="_top" xlink:title=" ">
<polygon fill="white" stroke="black" points="1058,-112.5 1058,-131.5 1114,-131.5 1114,-112.5 1058,-112.5"/>
<text text-anchor="middle" x="1086" y="-119.5" font-family="Helvetica,sans-Serif" font-size="10.00">PR/abi.h</text>
</a>
</g>
</g>
<!-- Node20&#45;&gt;Node22 -->
<g id="edge38" class="edge">
<title>Node20&#45;&gt;Node22</title>
<path fill="none" stroke="midnightblue" d="M1086.83,-168.08C1086.7,-161.01 1086.52,-150.86 1086.35,-141.99"/>
<polygon fill="midnightblue" stroke="midnightblue" points="1089.85,-141.68 1086.16,-131.75 1082.85,-141.81 1089.85,-141.68"/>
</g>
<!-- Node21&#45;&gt;Node4 -->
<g id="edge37" class="edge">
<title>Node21&#45;&gt;Node4</title>
<path fill="none" stroke="midnightblue" d="M1485.64,-114.3C1481.1,-113.4 1476.43,-112.59 1472,-112 1187.54,-73.93 843.29,-67.92 710.25,-67.08"/>
<polygon fill="midnightblue" stroke="midnightblue" points="709.93,-63.58 699.91,-67.02 709.89,-70.58 709.93,-63.58"/>
</g>
<!-- Node23&#45;&gt;Node4 -->
<g id="edge40" class="edge">
<title>Node23&#45;&gt;Node4</title>
<path fill="none" stroke="midnightblue" d="M659.63,-224.23C653.74,-215.53 645.39,-201.57 642,-188 633.12,-152.46 641.79,-109.51 648.3,-85.52"/>
<polygon fill="midnightblue" stroke="midnightblue" points="651.74,-86.23 651.15,-75.66 645.01,-84.29 651.74,-86.23"/>
</g>
<!-- Node23&#45;&gt;Node11 -->
<g id="edge41" class="edge">
<title>Node23&#45;&gt;Node11</title>
<path fill="none" stroke="midnightblue" d="M634.63,-224.44C600.74,-215.2 546.6,-200.44 509.28,-190.26"/>
<polygon fill="midnightblue" stroke="midnightblue" points="509.8,-186.77 499.23,-187.52 507.95,-193.52 509.8,-186.77"/>
</g>
<!-- Node24&#45;&gt;Node4 -->
<g id="edge43" class="edge">
<title>Node24&#45;&gt;Node4</title>
<path fill="none" stroke="midnightblue" d="M849.24,-112.44C808.94,-103.06 744.19,-87.99 700.42,-77.8"/>
<polygon fill="midnightblue" stroke="midnightblue" points="701.12,-74.37 690.59,-75.52 699.54,-81.19 701.12,-74.37"/>
</g>
<!-- Node25&#45;&gt;Node4 -->
<g id="edge46" class="edge">
<title>Node25&#45;&gt;Node4</title>
<path fill="none" stroke="midnightblue" d="M1019.86,-224.3C1020.74,-211.12 1020.71,-185.75 1010,-168 987.95,-131.46 971.45,-128.29 932,-112 858.89,-81.81 767.15,-71.81 709.54,-68.53"/>
<polygon fill="midnightblue" stroke="midnightblue" points="709.71,-65.04 699.54,-68.01 709.34,-72.03 709.71,-65.04"/>
</g>
<!-- Node25&#45;&gt;Node20 -->
<g id="edge45" class="edge">
<title>Node25&#45;&gt;Node20</title>
<path fill="none" stroke="midnightblue" d="M1029.93,-224.32C1040.17,-216.18 1055.72,-203.84 1068,-194.09"/>
<polygon fill="midnightblue" stroke="midnightblue" points="1070.22,-196.79 1075.88,-187.83 1065.87,-191.31 1070.22,-196.79"/>
</g>
<!-- Node26&#45;&gt;Node4 -->
<g id="edge48" class="edge">
<title>Node26&#45;&gt;Node4</title>
<path fill="none" stroke="midnightblue" d="M1249.18,-118.1C1146.55,-109.29 837.9,-82.79 710.22,-71.83"/>
<polygon fill="midnightblue" stroke="midnightblue" points="710.16,-68.31 699.89,-70.94 709.56,-75.28 710.16,-68.31"/>
</g>
<!-- Node27&#45;&gt;Node22 -->
<g id="edge50" class="edge">
<title>Node27&#45;&gt;Node22</title>
<path fill="none" stroke="midnightblue" d="M980.81,-168.44C1001.29,-159.6 1033.48,-145.69 1056.86,-135.59"/>
<polygon fill="midnightblue" stroke="midnightblue" points="1058.49,-138.7 1066.29,-131.52 1055.72,-132.27 1058.49,-138.7"/>
</g>
<!-- Node31 -->
<g id="node31" class="node">
<title>Node31</title>
<g id="a_node31"><a xlink:href="types_8h.html" target="_top" xlink:title=" ">
<polygon fill="white" stroke="black" points="1080.5,-448.5 1080.5,-467.5 1133.5,-467.5 1133.5,-448.5 1080.5,-448.5"/>
<text text-anchor="middle" x="1107" y="-455.5" font-family="Helvetica,sans-Serif" font-size="10.00">types.h</text>
</a>
</g>
</g>
<!-- Node30&#45;&gt;Node31 -->
<g id="edge55" class="edge">
<title>Node30&#45;&gt;Node31</title>
<path fill="none" stroke="midnightblue" d="M980.77,-504.44C1005.89,-495.4 1045.71,-481.06 1073.9,-470.92"/>
<polygon fill="midnightblue" stroke="midnightblue" points="1075.12,-474.2 1083.34,-467.52 1072.75,-467.61 1075.12,-474.2"/>
</g>
<!-- Node34 -->
<g id="node34" class="node">
<title>Node34</title>
<g id="a_node34"><a xlink:href="config_8h.html" target="_top" xlink:title=" ">
<polygon fill="white" stroke="black" points="930.5,-448.5 930.5,-467.5 985.5,-467.5 985.5,-448.5 930.5,-448.5"/>
<text text-anchor="middle" x="958" y="-455.5" font-family="Helvetica,sans-Serif" font-size="10.00">config.h</text>
</a>
</g>
</g>
<!-- Node30&#45;&gt;Node34 -->
<g id="edge61" class="edge">
<title>Node30&#45;&gt;Node34</title>
<path fill="none" stroke="midnightblue" d="M957.17,-504.08C957.3,-497.01 957.48,-486.86 957.65,-477.99"/>
<polygon fill="midnightblue" stroke="midnightblue" points="961.15,-477.81 957.84,-467.75 954.15,-477.68 961.15,-477.81"/>
</g>
<!-- Node31&#45;&gt;Node2 -->
<g id="edge56" class="edge">
<title>Node31&#45;&gt;Node2</title>
<path fill="none" stroke="midnightblue" d="M1096.53,-448.31C1064.26,-421.53 966.08,-340.03 925.18,-306.09"/>
<polygon fill="midnightblue" stroke="midnightblue" points="927.3,-303.3 917.37,-299.61 922.83,-308.69 927.3,-303.3"/>
</g>
<!-- Node31&#45;&gt;Node32 -->
<g id="edge57" class="edge">
<title>Node31&#45;&gt;Node32</title>
<path fill="none" stroke="midnightblue" d="M1123.79,-448.37C1161.06,-429.21 1250.89,-383.04 1295.29,-360.22"/>
<polygon fill="midnightblue" stroke="midnightblue" points="1296.99,-363.28 1304.29,-355.59 1293.79,-357.05 1296.99,-363.28"/>
</g>
<!-- Node33 -->
<g id="node33" class="node">
<title>Node33</title>
<g id="a_node33"><a xlink:href="camera_8h.html" target="_top" xlink:title=" ">
<polygon fill="white" stroke="black" points="1073,-392.5 1073,-411.5 1135,-411.5 1135,-392.5 1073,-392.5"/>
<text text-anchor="middle" x="1104" y="-399.5" font-family="Helvetica,sans-Serif" font-size="10.00">camera.h</text>
</a>
</g>
</g>
<!-- Node31&#45;&gt;Node33 -->
<g id="edge59" class="edge">
<title>Node31&#45;&gt;Node33</title>
<path fill="none" stroke="midnightblue" d="M1106.5,-448.08C1106.11,-441.01 1105.55,-430.86 1105.05,-421.99"/>
<polygon fill="midnightblue" stroke="midnightblue" points="1108.54,-421.54 1104.49,-411.75 1101.55,-421.93 1108.54,-421.54"/>
</g>
<!-- Node32&#45;&gt;Node2 -->
<g id="edge58" class="edge">
<title>Node32&#45;&gt;Node2</title>
<path fill="none" stroke="midnightblue" d="M1267.18,-337.87C1262.38,-337.23 1257.6,-336.6 1253,-336 1142.34,-321.48 1011.75,-304.55 947.23,-296.2"/>
<polygon fill="midnightblue" stroke="midnightblue" points="947.45,-292.7 937.09,-294.89 946.55,-299.64 947.45,-292.7"/>
</g>
<!-- Node33&#45;&gt;Node32 -->
<g id="edge60" class="edge">
<title>Node33&#45;&gt;Node32</title>
<path fill="none" stroke="midnightblue" d="M1135.09,-393.26C1172.3,-384 1234.87,-368.43 1277.02,-357.94"/>
<polygon fill="midnightblue" stroke="midnightblue" points="1277.89,-361.34 1286.74,-355.52 1276.2,-354.54 1277.89,-361.34"/>
</g>
<!-- Node35&#45;&gt;Node2 -->
<g id="edge64" class="edge">
<title>Node35&#45;&gt;Node2</title>
<path fill="none" stroke="midnightblue" d="M1285.65,-448.49C1278.92,-425.87 1257.3,-364.11 1215,-336 1171.83,-307.31 1020.44,-296.35 947.23,-292.66"/>
<polygon fill="midnightblue" stroke="midnightblue" points="947.18,-289.15 937.02,-292.16 946.84,-296.14 947.18,-289.15"/>
</g>
<!-- Node35&#45;&gt;Node29 -->
<g id="edge65" class="edge">
<title>Node35&#45;&gt;Node29</title>
<path fill="none" stroke="midnightblue" d="M1299.25,-448.32C1309.8,-440.18 1325.8,-427.84 1338.44,-418.09"/>
<polygon fill="midnightblue" stroke="midnightblue" points="1340.77,-420.71 1346.55,-411.83 1336.49,-415.17 1340.77,-420.71"/>
</g>
<!-- Node35&#45;&gt;Node32 -->
<g id="edge66" class="edge">
<title>Node35&#45;&gt;Node32</title>
<path fill="none" stroke="midnightblue" d="M1290.59,-448.37C1295.94,-430.54 1308.31,-389.3 1315.52,-365.27"/>
<polygon fill="midnightblue" stroke="midnightblue" points="1318.9,-366.18 1318.42,-355.59 1312.2,-364.16 1318.9,-366.18"/>
</g>
<!-- Node36&#45;&gt;Node31 -->
<g id="edge68" class="edge">
<title>Node36&#45;&gt;Node31</title>
<path fill="none" stroke="midnightblue" d="M1109.5,-504.08C1109.11,-497.01 1108.55,-486.86 1108.05,-477.99"/>
<polygon fill="midnightblue" stroke="midnightblue" points="1111.54,-477.54 1107.49,-467.75 1104.55,-477.93 1111.54,-477.54"/>
</g>
<!-- Node37&#45;&gt;Node31 -->
<g id="edge70" class="edge">
<title>Node37&#45;&gt;Node31</title>
<path fill="none" stroke="midnightblue" d="M1045.73,-504.32C1056.84,-496.11 1073.74,-483.6 1086.98,-473.81"/>
<polygon fill="midnightblue" stroke="midnightblue" points="1089.1,-476.59 1095.06,-467.83 1084.94,-470.97 1089.1,-476.59"/>
</g>
<!-- Node38&#45;&gt;Node32 -->
<g id="edge72" class="edge">
<title>Node38&#45;&gt;Node32</title>
<path fill="none" stroke="midnightblue" d="M1516.7,-393.15C1477.34,-383.87 1411.61,-368.37 1367.31,-357.92"/>
<polygon fill="midnightblue" stroke="midnightblue" points="1367.9,-354.46 1357.37,-355.58 1366.3,-361.28 1367.9,-354.46"/>
</g>
<!-- Node39&#45;&gt;Node4 -->
<g id="edge74" class="edge">
<title>Node39&#45;&gt;Node4</title>
<path fill="none" stroke="midnightblue" d="M1323.56,-504.47C1388.52,-459.4 1678.49,-246.04 1551,-112 1521.93,-81.44 901.09,-70.39 709.68,-67.7"/>
<polygon fill="midnightblue" stroke="midnightblue" points="709.61,-64.2 699.56,-67.56 709.51,-71.2 709.61,-64.2"/>
</g>
<!-- Node39&#45;&gt;Node31 -->
<g id="edge75" class="edge">
<title>Node39&#45;&gt;Node31</title>
<path fill="none" stroke="midnightblue" d="M1278.68,-504.44C1241.86,-494.7 1181.84,-478.81 1143.4,-468.64"/>
<polygon fill="midnightblue" stroke="midnightblue" points="1144.21,-465.23 1133.65,-466.05 1142.42,-472 1144.21,-465.23"/>
</g>
<!-- Node40&#45;&gt;Node2 -->
<g id="edge78" class="edge">
<title>Node40&#45;&gt;Node2</title>
<path fill="none" stroke="midnightblue" d="M1202.89,-504.43C1197.13,-482.74 1179.18,-424.99 1144,-392 1087.38,-338.9 998.61,-311.38 947.3,-299.16"/>
<polygon fill="midnightblue" stroke="midnightblue" points="947.78,-295.68 937.25,-296.85 946.21,-302.5 947.78,-295.68"/>
</g>
<!-- Node40&#45;&gt;Node29 -->
<g id="edge77" class="edge">
<title>Node40&#45;&gt;Node29</title>
<path fill="none" stroke="midnightblue" d="M1242.64,-504.49C1277.37,-495.93 1325.52,-482.02 1339,-468 1350.83,-455.69 1355.35,-436.44 1357.05,-422.08"/>
<polygon fill="midnightblue" stroke="midnightblue" points="1360.56,-422.08 1357.89,-411.83 1353.59,-421.51 1360.56,-422.08"/>
</g>
<!-- Node40&#45;&gt;Node31 -->
<g id="edge79" class="edge">
<title>Node40&#45;&gt;Node31</title>
<path fill="none" stroke="midnightblue" d="M1189.25,-504.32C1173.68,-495.74 1149.62,-482.49 1131.54,-472.52"/>
<polygon fill="midnightblue" stroke="midnightblue" points="1133.15,-469.42 1122.71,-467.65 1129.78,-475.55 1133.15,-469.42"/>
</g>
<!-- Node40&#45;&gt;Node35 -->
<g id="edge80" class="edge">
<title>Node40&#45;&gt;Node35</title>
<path fill="none" stroke="midnightblue" d="M1218.34,-504.32C1231.16,-495.98 1250.78,-483.21 1265.94,-473.35"/>
<polygon fill="midnightblue" stroke="midnightblue" points="1268.22,-476.04 1274.7,-467.65 1264.41,-470.17 1268.22,-476.04"/>
</g>
</g>
</svg>
        <g id="navigator" transform="translate(0 0)" fill="#404254">
                <rect fill="#f2f5e9" fill-opacity="0.5" stroke="#606060" stroke-width=".5" x="0" y="0" width="60" height="60"/>
                <use id="zoomplus" xlink:href="#zoomPlus" x="17" y="9" onmousedown="handleZoom(evt,'in')"/>
                <use id="zoomminus" xlink:href="#zoomMin" x="42" y="9" onmousedown="handleZoom(evt,'out')"/>
                <use id="reset" xlink:href="#resetDef" x="30" y="36" onmousedown="handleReset()"/>
                <g id="arrowUp" xlink:href="#dirArrow" transform="translate(30 24)" onmousedown="handlePan(0,-1)">
                  <use xlink:href="#rim" fill="#404040">
                        <set attributeName="fill" to="#808080" begin="arrowUp.mouseover" end="arrowUp.mouseout"/>
                  </use>
                  <path fill="none" stroke="white" stroke-width="1.5" d="M0,-3.0v7 M-2.5,-0.5L0,-3.0L2.5,-0.5"/>
                </g>
                <g id="arrowRight" xlink:href="#dirArrow" transform="rotate(90) translate(36 -43)" onmousedown="handlePan(1,0)">
                  <use xlink:href="#rim" fill="#404040">
                        <set attributeName="fill" to="#808080" begin="arrowRight.mouseover" end="arrowRight.mouseout"/>
                  </use>
                  <path fill="none" stroke="white" stroke-width="1.5" d="M0,-3.0v7 M-2.5,-0.5L0,-3.0L2.5,-0.5"/>
                </g>
                <g id="arrowDown" xlink:href="#dirArrow" transform="rotate(180) translate(-30 -48)" onmousedown="handlePan(0,1)">
                  <use xlink:href="#rim" fill="#404040">
                        <set attributeName="fill" to="#808080" begin="arrowDown.mouseover" end="arrowDown.mouseout"/>
                  </use>
                  <path fill="none" stroke="white" stroke-width="1.5" d="M0,-3.0v7 M-2.5,-0.5L0,-3.0L2.5,-0.5"/>
                </g>
                <g id="arrowLeft" xlink:href="#dirArrow" transform="rotate(270) translate(-36 17)" onmousedown="handlePan(-1,0)">
                  <use xlink:href="#rim" fill="#404040">
                        <set attributeName="fill" to="#808080" begin="arrowLeft.mouseover" end="arrowLeft.mouseout"/>
                  </use>
                  <path fill="none" stroke="white" stroke-width="1.5" d="M0,-3.0v7 M-2.5,-0.5L0,-3.0L2.5,-0.5"/>
                </g>
        </g>
        <svg viewBox="0 0 15 15" width="100%" height="30px" preserveAspectRatio="xMaxYMin meet">
         <g id="arrow_out" transform="scale(0.3 0.3)">
          <a xlink:href="collision_8c__incl_org.svg" target="_base">
           <rect id="button" ry="5" rx="5" y="6" x="6" height="38" width="38"
                fill="#f2f5e9" fill-opacity="0.5" stroke="#606060" stroke-width="1.0"/>
           <path id="arrow"
             d="M 11.500037,31.436501 C 11.940474,20.09759 22.043105,11.32322 32.158766,21.979434 L 37.068811,17.246167 C 37.068811,17.246167 37.088388,32 37.088388,32 L 22.160133,31.978069 C 22.160133,31.978069 26.997745,27.140456 26.997745,27.140456 C 18.528582,18.264221 13.291696,25.230495 11.500037,31.436501 z"
             style="fill:#404040;"/>
          </a>
         </g>
        </svg>
</svg>
