<?xml version="1.0" encoding="UTF-8" standalone="no"?>
<!DOCTYPE svg PUBLIC "-//W3C//DTD SVG 1.1//EN"
 "http://www.w3.org/Graphics/SVG/1.1/DTD/svg11.dtd">
<!-- Generated by graphviz version 2.43.0 (0)
 -->
<!-- Title: src/course_skyscraper_offsets.c Pages: 1 -->
<svg width="156pt" height="207pt"
 viewBox="0.00 0.00 156.00 207.00" xmlns="http://www.w3.org/2000/svg" xmlns:xlink="http://www.w3.org/1999/xlink">
<g id="graph0" class="graph" transform="scale(1 1) rotate(0) translate(4 203)">
<title>src/course_skyscraper_offsets.c</title>
<polygon fill="white" stroke="transparent" points="-4,4 -4,-203 152,-203 152,4 -4,4"/>
<!-- Node1 -->
<g id="node1" class="node">
<title>Node1</title>
<g id="a_node1"><a xlink:title=" ">
<polygon fill="#bfbfbf" stroke="black" points="0,-168.5 0,-198.5 124,-198.5 124,-168.5 0,-168.5"/>
<text text-anchor="start" x="8" y="-186.5" font-family="Helvetica,sans-Serif" font-size="10.00">src/course_skyscraper</text>
<text text-anchor="middle" x="62" y="-175.5" font-family="Helvetica,sans-Serif" font-size="10.00">_offsets.c</text>
</a>
</g>
</g>
<!-- Node2 -->
<g id="node2" class="node">
<title>Node2</title>
<g id="a_node2"><a xlink:href="ultratypes_8h.html" target="_top" xlink:title=" ">
<polygon fill="white" stroke="black" points="16.5,-56.5 16.5,-75.5 107.5,-75.5 107.5,-56.5 16.5,-56.5"/>
<text text-anchor="middle" x="62" y="-63.5" font-family="Helvetica,sans-Serif" font-size="10.00">PR/ultratypes.h</text>
</a>
</g>
</g>
<!-- Node1&#45;&gt;Node2 -->
<g id="edge1" class="edge">
<title>Node1&#45;&gt;Node2</title>
<path fill="none" stroke="midnightblue" d="M54.16,-168.31C47.3,-154.17 39,-131.75 43,-112 44.89,-102.65 48.79,-92.83 52.57,-84.75"/>
<polygon fill="midnightblue" stroke="midnightblue" points="55.79,-86.14 57.12,-75.63 49.53,-83.01 55.79,-86.14"/>
</g>
<!-- Node4 -->
<g id="node4" class="node">
<title>Node4</title>
<g id="a_node4"><a xlink:href="course__offsets_8h.html" target="_top" xlink:title=" ">
<polygon fill="white" stroke="black" points="52,-112.5 52,-131.5 148,-131.5 148,-112.5 52,-112.5"/>
<text text-anchor="middle" x="100" y="-119.5" font-family="Helvetica,sans-Serif" font-size="10.00">course_offsets.h</text>
</a>
</g>
</g>
<!-- Node1&#45;&gt;Node4 -->
<g id="edge4" class="edge">
<title>Node1&#45;&gt;Node4</title>
<path fill="none" stroke="midnightblue" d="M71.01,-168.4C76.41,-159.93 83.33,-149.1 89.05,-140.14"/>
<polygon fill="midnightblue" stroke="midnightblue" points="92.04,-141.97 94.47,-131.66 86.14,-138.2 92.04,-141.97"/>
</g>
<!-- Node3 -->
<g id="node3" class="node">
<title>Node3</title>
<g id="a_node3"><a xlink:href="stddef_8h.html" target="_top" xlink:title=" ">
<polygon fill="white" stroke="black" points="34,-0.5 34,-19.5 90,-19.5 90,-0.5 34,-0.5"/>
<text text-anchor="middle" x="62" y="-7.5" font-family="Helvetica,sans-Serif" font-size="10.00">stddef.h</text>
</a>
</g>
</g>
<!-- Node2&#45;&gt;Node3 -->
<g id="edge2" class="edge">
<title>Node2&#45;&gt;Node3</title>
<path fill="none" stroke="midnightblue" d="M56.83,-56.08C55.32,-48.93 54.89,-38.64 55.54,-29.69"/>
<polygon fill="midnightblue" stroke="midnightblue" points="59.02,-30.13 56.87,-19.75 52.08,-29.2 59.02,-30.13"/>
</g>
<!-- Node3&#45;&gt;Node2 -->
<g id="edge3" class="edge">
<title>Node3&#45;&gt;Node2</title>
<path fill="none" stroke="midnightblue" d="M67.13,-19.75C68.66,-26.86 69.1,-37.14 68.47,-46.1"/>
<polygon fill="midnightblue" stroke="midnightblue" points="64.99,-45.71 67.17,-56.08 71.93,-46.62 64.99,-45.71"/>
</g>
<!-- Node4&#45;&gt;Node2 -->
<g id="edge5" class="edge">
<title>Node4&#45;&gt;Node2</title>
<path fill="none" stroke="midnightblue" d="M93.73,-112.08C88.36,-104.46 80.48,-93.26 73.92,-83.94"/>
<polygon fill="midnightblue" stroke="midnightblue" points="76.78,-81.91 68.16,-75.75 71.05,-85.94 76.78,-81.91"/>
</g>
</g>
</svg>
