<?xml version="1.0" encoding="UTF-8" standalone="no"?>
<!DOCTYPE svg PUBLIC "-//W3C//DTD SVG 1.1//EN"
 "http://www.w3.org/Graphics/SVG/1.1/DTD/svg11.dtd">
<!-- Generated by graphviz version 2.43.0 (0)
 -->
<!-- Title: src/course_wario_stadium_offsets.c Pages: 1 -->
<svg width="287pt" height="218pt"
 viewBox="0.00 0.00 287.00 218.00" xmlns="http://www.w3.org/2000/svg" xmlns:xlink="http://www.w3.org/1999/xlink">
<g id="graph0" class="graph" transform="scale(1 1) rotate(0) translate(4 214)">
<title>src/course_wario_stadium_offsets.c</title>
<polygon fill="white" stroke="transparent" points="-4,4 -4,-214 283,-214 283,4 -4,4"/>
<!-- Node1 -->
<g id="node1" class="node">
<title>Node1</title>
<g id="a_node1"><a xlink:title=" ">
<polygon fill="#bfbfbf" stroke="black" points="12,-179.5 12,-209.5 155,-209.5 155,-179.5 12,-179.5"/>
<text text-anchor="start" x="20" y="-197.5" font-family="Helvetica,sans-Serif" font-size="10.00">src/course_wario_stadium</text>
<text text-anchor="middle" x="83.5" y="-186.5" font-family="Helvetica,sans-Serif" font-size="10.00">_offsets.c</text>
</a>
</g>
</g>
<!-- Node2 -->
<g id="node2" class="node">
<title>Node2</title>
<g id="a_node2"><a xlink:href="ultratypes_8h.html" target="_top" xlink:title=" ">
<polygon fill="white" stroke="black" points="0,-56.5 0,-75.5 91,-75.5 91,-56.5 0,-56.5"/>
<text text-anchor="middle" x="45.5" y="-63.5" font-family="Helvetica,sans-Serif" font-size="10.00">PR/ultratypes.h</text>
</a>
</g>
</g>
<!-- Node1&#45;&gt;Node2 -->
<g id="edge1" class="edge">
<title>Node1&#45;&gt;Node2</title>
<path fill="none" stroke="midnightblue" d="M59.62,-179.41C47.25,-170.66 33.34,-158.19 26.5,-143 17.9,-123.9 26.53,-100.27 34.77,-84.48"/>
<polygon fill="midnightblue" stroke="midnightblue" points="37.82,-86.19 39.69,-75.77 31.72,-82.75 37.82,-86.19"/>
</g>
<!-- Node4 -->
<g id="node4" class="node">
<title>Node4</title>
<g id="a_node4"><a xlink:href="course__offsets_8h.html" target="_top" xlink:title=" ">
<polygon fill="white" stroke="black" points="35.5,-118 35.5,-137 131.5,-137 131.5,-118 35.5,-118"/>
<text text-anchor="middle" x="83.5" y="-125" font-family="Helvetica,sans-Serif" font-size="10.00">course_offsets.h</text>
</a>
</g>
</g>
<!-- Node1&#45;&gt;Node4 -->
<g id="edge4" class="edge">
<title>Node1&#45;&gt;Node4</title>
<path fill="none" stroke="midnightblue" d="M83.5,-179.4C83.5,-170.06 83.5,-157.71 83.5,-147.52"/>
<polygon fill="midnightblue" stroke="midnightblue" points="87,-147.19 83.5,-137.19 80,-147.19 87,-147.19"/>
</g>
<!-- Node5 -->
<g id="node5" class="node">
<title>Node5</title>
<g id="a_node5"><a xlink:title=" ">
<polygon fill="white" stroke="#bfbfbf" points="150,-112.5 150,-142.5 279,-142.5 279,-112.5 150,-112.5"/>
<text text-anchor="start" x="158" y="-130.5" font-family="Helvetica,sans-Serif" font-size="10.00">courses/wario_stadium</text>
<text text-anchor="middle" x="214.5" y="-119.5" font-family="Helvetica,sans-Serif" font-size="10.00">/course_data.inc.h</text>
</a>
</g>
</g>
<!-- Node1&#45;&gt;Node5 -->
<g id="edge6" class="edge">
<title>Node1&#45;&gt;Node5</title>
<path fill="none" stroke="midnightblue" d="M111.93,-179.4C130.98,-169.94 156.28,-157.39 176.98,-147.12"/>
<polygon fill="midnightblue" stroke="midnightblue" points="178.73,-150.16 186.13,-142.58 175.62,-143.89 178.73,-150.16"/>
</g>
<!-- Node3 -->
<g id="node3" class="node">
<title>Node3</title>
<g id="a_node3"><a xlink:href="stddef_8h.html" target="_top" xlink:title=" ">
<polygon fill="white" stroke="black" points="17.5,-0.5 17.5,-19.5 73.5,-19.5 73.5,-0.5 17.5,-0.5"/>
<text text-anchor="middle" x="45.5" y="-7.5" font-family="Helvetica,sans-Serif" font-size="10.00">stddef.h</text>
</a>
</g>
</g>
<!-- Node2&#45;&gt;Node3 -->
<g id="edge2" class="edge">
<title>Node2&#45;&gt;Node3</title>
<path fill="none" stroke="midnightblue" d="M40.33,-56.08C38.82,-48.93 38.39,-38.64 39.04,-29.69"/>
<polygon fill="midnightblue" stroke="midnightblue" points="42.52,-30.13 40.37,-19.75 35.58,-29.2 42.52,-30.13"/>
</g>
<!-- Node3&#45;&gt;Node2 -->
<g id="edge3" class="edge">
<title>Node3&#45;&gt;Node2</title>
<path fill="none" stroke="midnightblue" d="M50.63,-19.75C52.16,-26.86 52.6,-37.14 51.97,-46.1"/>
<polygon fill="midnightblue" stroke="midnightblue" points="48.49,-45.71 50.67,-56.08 55.43,-46.62 48.49,-45.71"/>
</g>
<!-- Node4&#45;&gt;Node2 -->
<g id="edge5" class="edge">
<title>Node4&#45;&gt;Node2</title>
<path fill="none" stroke="midnightblue" d="M78.06,-117.98C72.41,-109.14 63.44,-95.09 56.34,-83.98"/>
<polygon fill="midnightblue" stroke="midnightblue" points="59.27,-82.05 50.93,-75.51 53.37,-85.82 59.27,-82.05"/>
</g>
</g>
</svg>
