<?xml version="1.0" encoding="UTF-8" standalone="no"?>
<!DOCTYPE svg PUBLIC "-//W3C//DTD SVG 1.1//EN"
 "http://www.w3.org/Graphics/SVG/1.1/DTD/svg11.dtd">
<!-- Generated by graphviz version 2.43.0 (0)
 -->
<!-- Title: is_collide_with_vehicle Pages: 1 -->
<!--zoomable 242 -->

<svg id="main" version="1.1" xmlns="http://www.w3.org/2000/svg" xmlns:xlink="http://www.w3.org/1999/xlink" xml:space="preserve" onload="init(evt)">
<style type="text/css"><![CDATA[
.node, .edge {opacity: 0.7;}
.node.selected, .edge.selected {opacity: 1;}
.edge:hover path { stroke: red; }
.edge:hover polygon { stroke: red; fill: red; }
]]></style>

<defs>
  <circle id="rim" cx="0" cy="0" r="7"/>
  <circle id="rim2" cx="0" cy="0" r="3.5"/>
  <g id="zoomPlus">
    <use xlink:href="#rim" fill="#404040"><set attributeName="fill" to="#808080" begin="zoomplus.mouseover" end="zoomplus.mouseout"/></use>
    <path d="M-4,0h8M0,-4v8" fill="none" stroke="white" stroke-width="1.5" pointer-events="none"/>
  </g>
  <g id="zoomMin">
    <use xlink:href="#rim" fill="#404040"><set attributeName="fill" to="#808080" begin="zoomminus.mouseover" end="zoomminus.mouseout"/></use>
    <path d="M-4,0h8" fill="none" stroke="white" stroke-width="1.5" pointer-events="none"/>
  </g>
  <g id="arrowUp" transform="translate(30 24)">
    <use xlink:href="#rim"/>
    <path pointer-events="none" fill="none" stroke="white" stroke-width="1.5" d="M0,-3.0v7 M-2.5,-0.5L0,-3.0L2.5,-0.5"/>
  </g>
  <g id="arrowRight" transform="rotate(90) translate(36 -43)">
    <use xlink:href="#rim"/>
    <path pointer-events="none" fill="none" stroke="white" stroke-width="1.5" d="M0,-3.0v7 M-2.5,-0.5L0,-3.0L2.5,-0.5"/>
  </g>
  <g id="arrowDown" transform="rotate(180) translate(-30 -48)">
    <use xlink:href="#rim"/>
    <path pointer-events="none" fill="none" stroke="white" stroke-width="1.5" d="M0,-3.0v7 M-2.5,-0.5L0,-3.0L2.5,-0.5"/>
  </g>
  <g id="arrowLeft" transform="rotate(270) translate(-36 17)">
    <use xlink:href="#rim"/>
    <path pointer-events="none" fill="none" stroke="white" stroke-width="1.5" d="M0,-3.0v7 M-2.5,-0.5L0,-3.0L2.5,-0.5"/>
  </g>
  <g id="resetDef">
    <use xlink:href="#rim2" fill="#404040"><set attributeName="fill" to="#808080" begin="reset.mouseover" end="reset.mouseout"/></use>
  </g>
</defs>
<script type="application/ecmascript">
var viewWidth = 1593;
var viewHeight = 242;
var sectionId = 'dynsection-164';
</script>
<script type="application/ecmascript" xlink:href="svg.min.js"/>
<svg id="graph" class="graph">
<g id="viewport">
<title>is_collide_with_vehicle</title>
<!-- Node1 -->
<g id="Node000001" class="node">
<title>Node1</title>
<g id="a_Node000001"><a xlink:title=" ">
<polygon fill="#999999" stroke="#666666" points="1585,-185.5 1456,-185.5 1456,-166.5 1585,-166.5 1585,-185.5"/>
<text text-anchor="middle" x="1520.5" y="-173.5" font-family="Helvetica,sans-Serif" font-size="10.00">is_collide_with_vehicle</text>
</a>
</g>
</g>
<!-- Node2 -->
<g id="Node000002" class="node">
<title>Node2</title>
<g id="a_Node000002"><a xlink:href="vehicle__utils_8inc_8c.html#a893a5fe88b810d0d0cff466efeb8acc0" target="_top" xlink:title=" ">
<polygon fill="white" stroke="#666666" points="1403.5,-234 1283.5,-234 1283.5,-204 1403.5,-204 1403.5,-234"/>
<text text-anchor="start" x="1291.5" y="-222" font-family="Helvetica,sans-Serif" font-size="10.00">handle_paddle_boats</text>
<text text-anchor="middle" x="1343.5" y="-211" font-family="Helvetica,sans-Serif" font-size="10.00">_interactions</text>
</a>
</g>
</g>
<!-- Node1&#45;&gt;Node2 -->
<g id="edge1_Node000001_Node000002" class="edge">
<title>Node1&#45;&gt;Node2</title>
<g id="a_edge1_Node000001_Node000002"><a xlink:title=" ">
<path fill="none" stroke="#63b8ff" d="M1470.75,-187.98C1449.91,-193.1 1425.39,-199.12 1403.53,-204.5"/>
<polygon fill="#63b8ff" stroke="#63b8ff" points="1471.79,-191.33 1480.66,-185.54 1470.12,-184.53 1471.79,-191.33"/>
</a>
</g>
</g>
<!-- Node13 -->
<g id="Node000013" class="node">
<title>Node13</title>
<g id="a_Node000013"><a xlink:href="vehicle__utils_8inc_8c.html#a4e7184ebc3adb803a2970793d802b0ed" target="_top" xlink:title=" ">
<polygon fill="white" stroke="#666666" points="1416.5,-185.5 1270.5,-185.5 1270.5,-166.5 1416.5,-166.5 1416.5,-185.5"/>
<text text-anchor="middle" x="1343.5" y="-173.5" font-family="Helvetica,sans-Serif" font-size="10.00">handle_trains_interactions</text>
</a>
</g>
</g>
<!-- Node1&#45;&gt;Node13 -->
<g id="edge13_Node000001_Node000013" class="edge">
<title>Node1&#45;&gt;Node13</title>
<g id="a_edge13_Node000001_Node000013"><a xlink:title=" ">
<path fill="none" stroke="#63b8ff" d="M1445.57,-176C1436.02,-176 1426.25,-176 1416.72,-176"/>
<polygon fill="#63b8ff" stroke="#63b8ff" points="1445.83,-179.5 1455.83,-176 1445.83,-172.5 1445.83,-179.5"/>
</a>
</g>
</g>
<!-- Node14 -->
<g id="Node000014" class="node">
<title>Node14</title>
<g id="a_Node000014"><a xlink:href="vehicle__utils_8inc_8c.html#ac445f752c27e0b8245e0412bb6a76f4d" target="_top" xlink:title=" ">
<polygon fill="white" stroke="#666666" points="1420,-115.5 1267,-115.5 1267,-96.5 1420,-96.5 1420,-115.5"/>
<text text-anchor="middle" x="1343.5" y="-103.5" font-family="Helvetica,sans-Serif" font-size="10.00">handle_vehicle_interactions</text>
</a>
</g>
</g>
<!-- Node1&#45;&gt;Node14 -->
<g id="edge15_Node000001_Node000014" class="edge">
<title>Node1&#45;&gt;Node14</title>
<g id="a_edge15_Node000001_Node000014"><a xlink:title=" ">
<path fill="none" stroke="#63b8ff" d="M1485.92,-162.57C1451.51,-148.8 1398.87,-127.75 1368.46,-115.58"/>
<polygon fill="#63b8ff" stroke="#63b8ff" points="1484.95,-165.95 1495.53,-166.41 1487.55,-159.45 1484.95,-165.95"/>
</a>
</g>
</g>
<!-- Node3 -->
<g id="Node000003" class="node">
<title>Node3</title>
<g id="a_Node000003"><a xlink:href="cpu__vehicles__camera__path_8c.html#af0170dbecbb754e3e7c1ab190fa14c01" target="_top" xlink:title=" ">
<polygon fill="white" stroke="#666666" points="1024,-133.5 938,-133.5 938,-114.5 1024,-114.5 1024,-133.5"/>
<text text-anchor="middle" x="981" y="-121.5" font-family="Helvetica,sans-Serif" font-size="10.00">update_player</text>
</a>
</g>
</g>
<!-- Node2&#45;&gt;Node3 -->
<g id="edge2_Node000002_Node000003" class="edge">
<title>Node2&#45;&gt;Node3</title>
<g id="a_edge2_Node000002_Node000003"><a xlink:title=" ">
<path fill="none" stroke="#63b8ff" d="M1273.08,-220.9C1214.23,-220.14 1128.7,-213.38 1060,-185 1031.4,-173.19 1004.46,-147.83 990.98,-133.81"/>
<polygon fill="#63b8ff" stroke="#63b8ff" points="1273.36,-224.4 1283.38,-220.97 1273.41,-217.4 1273.36,-224.4"/>
</a>
</g>
</g>
<!-- Node4 -->
<g id="Node000004" class="node">
<title>Node4</title>
<g id="a_Node000004"><a xlink:href="cpu__vehicles__camera__path_8c.html#a0056485e80d615faffaf2715a906c294" target="_top" xlink:title=" ">
<polygon fill="white" stroke="#666666" points="902,-152.5 810,-152.5 810,-133.5 902,-133.5 902,-152.5"/>
<text text-anchor="middle" x="856" y="-140.5" font-family="Helvetica,sans-Serif" font-size="10.00">func_8001C14C</text>
</a>
</g>
</g>
<!-- Node3&#45;&gt;Node4 -->
<g id="edge3_Node000003_Node000004" class="edge">
<title>Node3&#45;&gt;Node4</title>
<g id="a_edge3_Node000003_Node000004"><a xlink:title=" ">
<path fill="none" stroke="#63b8ff" d="M927.59,-132.1C919.19,-133.39 910.56,-134.73 902.35,-136"/>
<polygon fill="#63b8ff" stroke="#63b8ff" points="928.32,-135.52 937.67,-130.54 927.25,-128.61 928.32,-135.52"/>
</a>
</g>
</g>
<!-- Node11 -->
<g id="Node000011" class="node">
<title>Node11</title>
<g id="a_Node000011"><a xlink:href="race__logic_8c.html#af3b28af56eee680540843d3bd6bd24ba" target="_top" xlink:title=" ">
<polygon fill="white" stroke="#666666" points="901.5,-115.5 810.5,-115.5 810.5,-96.5 901.5,-96.5 901.5,-115.5"/>
<text text-anchor="middle" x="856" y="-103.5" font-family="Helvetica,sans-Serif" font-size="10.00">func_8028F474</text>
</a>
</g>
</g>
<!-- Node3&#45;&gt;Node11 -->
<g id="edge10_Node000003_Node000011" class="edge">
<title>Node3&#45;&gt;Node11</title>
<g id="a_edge10_Node000003_Node000011"><a xlink:title=" ">
<path fill="none" stroke="#63b8ff" d="M927.62,-116.33C918.92,-115.06 909.98,-113.75 901.5,-112.51"/>
<polygon fill="#63b8ff" stroke="#63b8ff" points="927.27,-119.82 937.67,-117.81 928.28,-112.89 927.27,-119.82"/>
</a>
</g>
</g>
<!-- Node5 -->
<g id="Node000005" class="node">
<title>Node5</title>
<g id="a_Node000005"><a xlink:href="podium__ceremony__actors_8c.html#a7ea229c65f264670fc828b95e8321154" target="_top" xlink:title=" ">
<polygon fill="white" stroke="#666666" points="774,-152.5 640,-152.5 640,-133.5 774,-133.5 774,-152.5"/>
<text text-anchor="middle" x="707" y="-140.5" font-family="Helvetica,sans-Serif" font-size="10.00">podium_ceremony_loop</text>
</a>
</g>
</g>
<!-- Node4&#45;&gt;Node5 -->
<g id="edge4_Node000004_Node000005" class="edge">
<title>Node4&#45;&gt;Node5</title>
<g id="a_edge4_Node000004_Node000005"><a xlink:title=" ">
<path fill="none" stroke="#63b8ff" d="M799.46,-143C791.22,-143 782.66,-143 774.23,-143"/>
<polygon fill="#63b8ff" stroke="#63b8ff" points="799.7,-146.5 809.7,-143 799.7,-139.5 799.7,-146.5"/>
</a>
</g>
</g>
<!-- Node6 -->
<g id="Node000006" class="node">
<title>Node6</title>
<g id="a_Node000006"><a xlink:href="main_8c.html#ae04143ce8113cdafa007c642eb620bc8" target="_top" xlink:title=" ">
<polygon fill="white" stroke="#666666" points="604,-133.5 488,-133.5 488,-114.5 604,-114.5 604,-133.5"/>
<text text-anchor="middle" x="546" y="-121.5" font-family="Helvetica,sans-Serif" font-size="10.00">game_state_handler</text>
</a>
</g>
</g>
<!-- Node5&#45;&gt;Node6 -->
<g id="edge5_Node000005_Node000006" class="edge">
<title>Node5&#45;&gt;Node6</title>
<g id="a_edge5_Node000005_Node000006"><a xlink:title=" ">
<path fill="none" stroke="#63b8ff" d="M629.87,-133.9C621.24,-132.87 612.56,-131.83 604.24,-130.84"/>
<polygon fill="#63b8ff" stroke="#63b8ff" points="629.61,-137.4 639.95,-135.11 630.44,-130.45 629.61,-137.4"/>
</a>
</g>
</g>
<!-- Node7 -->
<g id="Node000007" class="node">
<title>Node7</title>
<g id="a_Node000007"><a xlink:href="main_8c.html#a633ed517e458daeb768f5361895dcac9" target="_top" xlink:title=" ">
<polygon fill="white" stroke="#666666" points="452,-133.5 339,-133.5 339,-114.5 452,-114.5 452,-133.5"/>
<text text-anchor="middle" x="395.5" y="-121.5" font-family="Helvetica,sans-Serif" font-size="10.00">thread5_game_loop</text>
</a>
</g>
</g>
<!-- Node6&#45;&gt;Node7 -->
<g id="edge6_Node000006_Node000007" class="edge">
<title>Node6&#45;&gt;Node7</title>
<g id="a_edge6_Node000006_Node000007"><a xlink:title=" ">
<path fill="none" stroke="#63b8ff" d="M477.42,-124C469.02,-124 460.5,-124 452.3,-124"/>
<polygon fill="#63b8ff" stroke="#63b8ff" points="477.59,-127.5 487.59,-124 477.59,-120.5 477.59,-127.5"/>
</a>
</g>
</g>
<!-- Node8 -->
<g id="Node000008" class="node">
<title>Node8</title>
<g id="a_Node000008"><a xlink:href="main_8c.html#a023b8f272e4efbd33f371e91ffff6b30" target="_top" xlink:title=" ">
<polygon fill="white" stroke="#666666" points="303,-133.5 217,-133.5 217,-114.5 303,-114.5 303,-133.5"/>
<text text-anchor="middle" x="260" y="-121.5" font-family="Helvetica,sans-Serif" font-size="10.00">thread3_video</text>
</a>
</g>
</g>
<!-- Node7&#45;&gt;Node8 -->
<g id="edge7_Node000007_Node000008" class="edge">
<title>Node7&#45;&gt;Node8</title>
<g id="a_edge7_Node000007_Node000008"><a xlink:title=" ">
<path fill="none" stroke="#63b8ff" d="M328.57,-124C319.94,-124 311.3,-124 303.21,-124"/>
<polygon fill="#63b8ff" stroke="#63b8ff" points="328.66,-127.5 338.66,-124 328.66,-120.5 328.66,-127.5"/>
</a>
</g>
</g>
<!-- Node9 -->
<g id="Node000009" class="node">
<title>Node9</title>
<g id="a_Node000009"><a xlink:href="main_8c.html#a1e35d2b842121e6aea373f09381616e5" target="_top" xlink:title=" ">
<polygon fill="white" stroke="#666666" points="181,-133.5 104,-133.5 104,-114.5 181,-114.5 181,-133.5"/>
<text text-anchor="middle" x="142.5" y="-121.5" font-family="Helvetica,sans-Serif" font-size="10.00">thread1_idle</text>
</a>
</g>
</g>
<!-- Node8&#45;&gt;Node9 -->
<g id="edge8_Node000008_Node000009" class="edge">
<title>Node8&#45;&gt;Node9</title>
<g id="a_edge8_Node000008_Node000009"><a xlink:title=" ">
<path fill="none" stroke="#63b8ff" d="M206.9,-124C198.2,-124 189.33,-124 181.09,-124"/>
<polygon fill="#63b8ff" stroke="#63b8ff" points="206.98,-127.5 216.98,-124 206.98,-120.5 206.98,-127.5"/>
</a>
</g>
</g>
<!-- Node10 -->
<g id="Node000010" class="node">
<title>Node10</title>
<g id="a_Node000010"><a xlink:href="main_8c.html#a4f87d43525fe95f60ea92bc8a3b70e62" target="_top" xlink:title=" ">
<polygon fill="white" stroke="#666666" points="68,-133.5 0,-133.5 0,-114.5 68,-114.5 68,-133.5"/>
<text text-anchor="middle" x="34" y="-121.5" font-family="Helvetica,sans-Serif" font-size="10.00">main_func</text>
</a>
</g>
</g>
<!-- Node9&#45;&gt;Node10 -->
<g id="edge9_Node000009_Node000010" class="edge">
<title>Node9&#45;&gt;Node10</title>
<g id="a_edge9_Node000009_Node000010"><a xlink:title=" ">
<path fill="none" stroke="#63b8ff" d="M93.95,-124C85.29,-124 76.44,-124 68.31,-124"/>
<polygon fill="#63b8ff" stroke="#63b8ff" points="93.95,-127.5 103.95,-124 93.95,-120.5 93.95,-127.5"/>
</a>
</g>
</g>
<!-- Node12 -->
<g id="Node000012" class="node">
<title>Node12</title>
<g id="a_Node000012"><a xlink:href="main_8c.html#afff87ffcbfee4f1f37d443110aa7b52a" target="_top" xlink:title=" ">
<polygon fill="white" stroke="#666666" points="753,-115.5 661,-115.5 661,-96.5 753,-96.5 753,-115.5"/>
<text text-anchor="middle" x="707" y="-103.5" font-family="Helvetica,sans-Serif" font-size="10.00">race_logic_loop</text>
</a>
</g>
</g>
<!-- Node11&#45;&gt;Node12 -->
<g id="edge11_Node000011_Node000012" class="edge">
<title>Node11&#45;&gt;Node12</title>
<g id="a_edge11_Node000011_Node000012"><a xlink:title=" ">
<path fill="none" stroke="#63b8ff" d="M800.46,-106C784.88,-106 768.07,-106 753.11,-106"/>
<polygon fill="#63b8ff" stroke="#63b8ff" points="800.5,-109.5 810.5,-106 800.5,-102.5 800.5,-109.5"/>
</a>
</g>
</g>
<!-- Node12&#45;&gt;Node6 -->
<g id="edge12_Node000012_Node000006" class="edge">
<title>Node12&#45;&gt;Node6</title>
<g id="a_edge12_Node000012_Node000006"><a xlink:title=" ">
<path fill="none" stroke="#63b8ff" d="M650.68,-112.26C635.64,-113.97 619.32,-115.81 604.18,-117.53"/>
<polygon fill="#63b8ff" stroke="#63b8ff" points="651.32,-115.71 660.86,-111.11 650.53,-108.76 651.32,-115.71"/>
</a>
</g>
</g>
<!-- Node13&#45;&gt;Node3 -->
<g id="edge14_Node000013_Node000003" class="edge">
<title>Node13&#45;&gt;Node3</title>
<g id="a_edge14_Node000013_Node000003"><a xlink:title=" ">
<path fill="none" stroke="#63b8ff" d="M1260.44,-180.55C1203.35,-181.64 1125.96,-178.94 1060,-162 1036.8,-156.04 1012.33,-142.83 997.12,-133.67"/>
<polygon fill="#63b8ff" stroke="#63b8ff" points="1260.58,-184.05 1270.49,-180.31 1260.41,-177.05 1260.58,-184.05"/>
</a>
</g>
</g>
<!-- Node15 -->
<g id="Node000015" class="node">
<title>Node15</title>
<g id="a_Node000015"><a xlink:href="vehicle__utils_8inc_8c.html#a3cb961a9e985cfab5a7398350163c445" target="_top" xlink:title=" ">
<polygon fill="white" stroke="#666666" points="1231,-152.5 1060,-152.5 1060,-133.5 1231,-133.5 1231,-152.5"/>
<text text-anchor="middle" x="1145.5" y="-140.5" font-family="Helvetica,sans-Serif" font-size="10.00">handle_box_trucks_interactions</text>
</a>
</g>
</g>
<!-- Node14&#45;&gt;Node15 -->
<g id="edge16_Node000014_Node000015" class="edge">
<title>Node14&#45;&gt;Node15</title>
<g id="a_edge16_Node000014_Node000015"><a xlink:title=" ">
<path fill="none" stroke="#63b8ff" d="M1281.86,-117.45C1254.69,-122.58 1223.02,-128.56 1197.14,-133.44"/>
<polygon fill="#63b8ff" stroke="#63b8ff" points="1282.85,-120.82 1292.03,-115.53 1281.55,-113.94 1282.85,-120.82"/>
</a>
</g>
</g>
<!-- Node16 -->
<g id="Node000016" class="node">
<title>Node16</title>
<g id="a_Node000016"><a xlink:href="vehicle__utils_8inc_8c.html#a55d7a838a39f7210a455929dad2e4d8d" target="_top" xlink:title=" ">
<polygon fill="white" stroke="#666666" points="1214.5,-115.5 1076.5,-115.5 1076.5,-96.5 1214.5,-96.5 1214.5,-115.5"/>
<text text-anchor="middle" x="1145.5" y="-103.5" font-family="Helvetica,sans-Serif" font-size="10.00">handle_cars_interactions</text>
</a>
</g>
</g>
<!-- Node14&#45;&gt;Node16 -->
<g id="edge18_Node000014_Node000016" class="edge">
<title>Node14&#45;&gt;Node16</title>
<g id="a_edge18_Node000014_Node000016"><a xlink:title=" ">
<path fill="none" stroke="#63b8ff" d="M1256.59,-106C1242.58,-106 1228.23,-106 1214.71,-106"/>
<polygon fill="#63b8ff" stroke="#63b8ff" points="1256.72,-109.5 1266.72,-106 1256.72,-102.5 1256.72,-109.5"/>
</a>
</g>
</g>
<!-- Node17 -->
<g id="Node000017" class="node">
<title>Node17</title>
<g id="a_Node000017"><a xlink:href="vehicle__utils_8inc_8c.html#a8b004015e3764ea00bdd870dcf2a8513" target="_top" xlink:title=" ">
<polygon fill="white" stroke="#666666" points="1205.5,-78 1085.5,-78 1085.5,-48 1205.5,-48 1205.5,-78"/>
<text text-anchor="start" x="1093.5" y="-66" font-family="Helvetica,sans-Serif" font-size="10.00">handle_school_buses</text>
<text text-anchor="middle" x="1145.5" y="-55" font-family="Helvetica,sans-Serif" font-size="10.00">_interactions</text>
</a>
</g>
</g>
<!-- Node14&#45;&gt;Node17 -->
<g id="edge20_Node000014_Node000017" class="edge">
<title>Node14&#45;&gt;Node17</title>
<g id="a_edge20_Node000014_Node000017"><a xlink:title=" ">
<path fill="none" stroke="#63b8ff" d="M1289.05,-94.27C1263.3,-88.62 1232.34,-81.83 1205.86,-76.02"/>
<polygon fill="#63b8ff" stroke="#63b8ff" points="1288.48,-97.73 1299,-96.46 1289.98,-90.9 1288.48,-97.73"/>
</a>
</g>
</g>
<!-- Node18 -->
<g id="Node000018" class="node">
<title>Node18</title>
<g id="a_Node000018"><a xlink:href="vehicle__utils_8inc_8c.html#a24b66f495465b4d4260c806c2321e575" target="_top" xlink:title=" ">
<polygon fill="white" stroke="#666666" points="1206,-30 1085,-30 1085,0 1206,0 1206,-30"/>
<text text-anchor="start" x="1093" y="-18" font-family="Helvetica,sans-Serif" font-size="10.00">handle_tanker_trucks</text>
<text text-anchor="middle" x="1145.5" y="-7" font-family="Helvetica,sans-Serif" font-size="10.00">_interactions</text>
</a>
</g>
</g>
<!-- Node14&#45;&gt;Node18 -->
<g id="edge22_Node000014_Node000018" class="edge">
<title>Node14&#45;&gt;Node18</title>
<g id="a_edge22_Node000014_Node000018"><a xlink:title=" ">
<path fill="none" stroke="#63b8ff" d="M1320.83,-90.6C1299.02,-75.69 1263.96,-53.28 1231,-39 1223.16,-35.6 1214.71,-32.55 1206.29,-29.84"/>
<polygon fill="#63b8ff" stroke="#63b8ff" points="1318.84,-93.48 1329.05,-96.3 1322.83,-87.73 1318.84,-93.48"/>
</a>
</g>
</g>
<!-- Node15&#45;&gt;Node3 -->
<g id="edge17_Node000015_Node000003" class="edge">
<title>Node15&#45;&gt;Node3</title>
<g id="a_edge17_Node000015_Node000003"><a xlink:title=" ">
<path fill="none" stroke="#63b8ff" d="M1052.84,-132.28C1042.96,-131.13 1033.28,-130 1024.41,-128.96"/>
<polygon fill="#63b8ff" stroke="#63b8ff" points="1052.44,-135.76 1062.77,-133.44 1053.25,-128.81 1052.44,-135.76"/>
</a>
</g>
</g>
<!-- Node16&#45;&gt;Node3 -->
<g id="edge19_Node000016_Node000003" class="edge">
<title>Node16&#45;&gt;Node3</title>
<g id="a_edge19_Node000016_Node000003"><a xlink:title=" ">
<path fill="none" stroke="#63b8ff" d="M1065.72,-114.73C1051.47,-116.3 1037.12,-117.89 1024.42,-119.3"/>
<polygon fill="#63b8ff" stroke="#63b8ff" points="1066.5,-118.16 1076.06,-113.58 1065.73,-111.2 1066.5,-118.16"/>
</a>
</g>
</g>
<!-- Node17&#45;&gt;Node3 -->
<g id="edge21_Node000017_Node000003" class="edge">
<title>Node17&#45;&gt;Node3</title>
<g id="a_edge21_Node000017_Node000003"><a xlink:title=" ">
<path fill="none" stroke="#63b8ff" d="M1079.44,-81.21C1072.83,-83.37 1066.25,-85.65 1060,-88 1039.2,-95.83 1016.19,-106.74 1000.59,-114.49"/>
<polygon fill="#63b8ff" stroke="#63b8ff" points="1080.65,-84.5 1089.12,-78.13 1078.53,-77.83 1080.65,-84.5"/>
</a>
</g>
</g>
<!-- Node18&#45;&gt;Node3 -->
<g id="edge23_Node000018_Node000003" class="edge">
<title>Node18&#45;&gt;Node3</title>
<g id="a_edge23_Node000018_Node000003"><a xlink:title=" ">
<path fill="none" stroke="#63b8ff" d="M1075.01,-31.28C1069.77,-33.54 1064.71,-36.1 1060,-39 1027.44,-59.08 1000.05,-96.51 988.23,-114.23"/>
<polygon fill="#63b8ff" stroke="#63b8ff" points="1076.53,-34.44 1084.56,-27.53 1073.97,-27.92 1076.53,-34.44"/>
</a>
</g>
</g>
</g>
</svg>

<g id="navigator" transform="translate(0 0)" fill="#404254">
  <rect fill="#f2f5e9" fill-opacity="0.5" stroke="#606060" stroke-width=".5" x="0" y="0" width="60" height="60"/>
  <use id="zoomplus" xlink:href="#zoomPlus" x="17" y="9" onmousedown="handleZoom(evt,'in')"/>
  <use id="zoomminus" xlink:href="#zoomMin" x="42" y="9" onmousedown="handleZoom(evt,'out')"/>
  <use id="reset" xlink:href="#resetDef" x="30" y="36" onmousedown="handleReset()"/>
   <use id="arrowup" xlink:href="#arrowUp" x="0" y="0" onmousedown="handlePan(0,-1)"/>
  <use id="arrowright" xlink:href="#arrowRight" x="0" y="0" onmousedown="handlePan(1,0)"/>
  <use id="arrowdown" xlink:href="#arrowDown" x="0" y="0" onmousedown="handlePan(0,1)"/>
  <use id="arrowleft" xlink:href="#arrowLeft" x="0" y="0" onmousedown="handlePan(-1,0)"/>
</g>
<svg viewBox="0 0 15 15" width="100%" height="30px" preserveAspectRatio="xMaxYMin meet">
 <g id="arrow_out" transform="scale(0.3 0.3)">
  <a xlink:href="cpu__vehicles__camera__path_8h_abc4f551b267723af9bc6d56ab11834ac_icgraph_org.svg" target="_base">
   <rect id="button" ry="5" rx="5" y="6" x="6" height="38" width="38"
        fill="#f2f5e9" fill-opacity="0.5" stroke="#606060" stroke-width="1.0"/>
   <path id="arrow"
     d="M 11.500037,31.436501 C 11.940474,20.09759 22.043105,11.32322 32.158766,21.979434 L 37.068811,17.246167 C 37.068811,17.246167 37.088388,32 37.088388,32 L 22.160133,31.978069 C 22.160133,31.978069 26.997745,27.140456 26.997745,27.140456 C 18.528582,18.264221 13.291696,25.230495 11.500037,31.436501 z"
     style="fill:#404040;"/>
  </a>
 </g>
</svg>

<style type='text/css'>
<![CDATA[
[data-mouse-over-selected='false'] { opacity: 0.7; }
[data-mouse-over-selected='true']  { opacity: 1.0; }
]]>
</style>
<script type="application/ecmascript"><![CDATA[
document.addEventListener('DOMContentLoaded', (event) => {
  highlightEdges();
  highlightAdjacentNodes();
});
]]></script>
</svg>
