<?xml version="1.0" encoding="UTF-8" standalone="no"?>
<!DOCTYPE svg PUBLIC "-//W3C//DTD SVG 1.1//EN"
 "http://www.w3.org/Graphics/SVG/1.1/DTD/svg11.dtd">
<!-- Generated by graphviz version 2.43.0 (0)
 -->
<!-- Title: func_80015314 Pages: 1 -->
<!--zoomable 466 -->

<svg id="main" version="1.1" xmlns="http://www.w3.org/2000/svg" xmlns:xlink="http://www.w3.org/1999/xlink" xml:space="preserve" onload="init(evt)">
<style type="text/css"><![CDATA[
.node, .edge {opacity: 0.7;}
.node.selected, .edge.selected {opacity: 1;}
.edge:hover path { stroke: red; }
.edge:hover polygon { stroke: red; fill: red; }
]]></style>

<defs>
  <circle id="rim" cx="0" cy="0" r="7"/>
  <circle id="rim2" cx="0" cy="0" r="3.5"/>
  <g id="zoomPlus">
    <use xlink:href="#rim" fill="#404040"><set attributeName="fill" to="#808080" begin="zoomplus.mouseover" end="zoomplus.mouseout"/></use>
    <path d="M-4,0h8M0,-4v8" fill="none" stroke="white" stroke-width="1.5" pointer-events="none"/>
  </g>
  <g id="zoomMin">
    <use xlink:href="#rim" fill="#404040"><set attributeName="fill" to="#808080" begin="zoomminus.mouseover" end="zoomminus.mouseout"/></use>
    <path d="M-4,0h8" fill="none" stroke="white" stroke-width="1.5" pointer-events="none"/>
  </g>
  <g id="arrowUp" transform="translate(30 24)">
    <use xlink:href="#rim"/>
    <path pointer-events="none" fill="none" stroke="white" stroke-width="1.5" d="M0,-3.0v7 M-2.5,-0.5L0,-3.0L2.5,-0.5"/>
  </g>
  <g id="arrowRight" transform="rotate(90) translate(36 -43)">
    <use xlink:href="#rim"/>
    <path pointer-events="none" fill="none" stroke="white" stroke-width="1.5" d="M0,-3.0v7 M-2.5,-0.5L0,-3.0L2.5,-0.5"/>
  </g>
  <g id="arrowDown" transform="rotate(180) translate(-30 -48)">
    <use xlink:href="#rim"/>
    <path pointer-events="none" fill="none" stroke="white" stroke-width="1.5" d="M0,-3.0v7 M-2.5,-0.5L0,-3.0L2.5,-0.5"/>
  </g>
  <g id="arrowLeft" transform="rotate(270) translate(-36 17)">
    <use xlink:href="#rim"/>
    <path pointer-events="none" fill="none" stroke="white" stroke-width="1.5" d="M0,-3.0v7 M-2.5,-0.5L0,-3.0L2.5,-0.5"/>
  </g>
  <g id="resetDef">
    <use xlink:href="#rim2" fill="#404040"><set attributeName="fill" to="#808080" begin="reset.mouseover" end="reset.mouseout"/></use>
  </g>
</defs>
<script type="application/ecmascript">
var viewWidth = 1706;
var viewHeight = 466;
var sectionId = 'dynsection-23';
</script>
<script type="application/ecmascript" xlink:href="svg.min.js"/>
<svg id="graph" class="graph">
<g id="viewport">
<title>func_80015314</title>
<!-- Node1 -->
<g id="Node000001" class="node">
<title>Node1</title>
<g id="a_Node000001"><a xlink:title=" ">
<polygon fill="#999999" stroke="#666666" points="1698,-85.02 1607,-85.02 1607,-66.02 1698,-66.02 1698,-85.02"/>
<text text-anchor="middle" x="1652.5" y="-73.02" font-family="Helvetica,sans-Serif" font-size="10.00">func_80015314</text>
</a>
</g>
</g>
<!-- Node2 -->
<g id="Node000002" class="node">
<title>Node2</title>
<g id="a_Node000002"><a xlink:href="cpu__vehicles__camera__path_8c.html#a04597eec92885142343602eb9cd67c8a" target="_top" xlink:title=" ">
<polygon fill="white" stroke="#666666" points="1571,-142.02 1410,-142.02 1410,-123.02 1571,-123.02 1571,-142.02"/>
<text text-anchor="middle" x="1490.5" y="-130.02" font-family="Helvetica,sans-Serif" font-size="10.00">camera_start_cinematic_shot</text>
</a>
</g>
</g>
<!-- Node1&#45;&gt;Node2 -->
<g id="edge1_Node000001_Node000002" class="edge">
<title>Node1&#45;&gt;Node2</title>
<g id="a_edge1_Node000001_Node000002"><a xlink:title=" ">
<path fill="none" stroke="#63b8ff" d="M1615.21,-88.44C1585.77,-98.93 1544.93,-113.48 1518.37,-122.94"/>
<polygon fill="#63b8ff" stroke="#63b8ff" points="1616.47,-91.71 1624.72,-85.06 1614.12,-85.12 1616.47,-91.71"/>
</a>
</g>
</g>
<!-- Node26 -->
<g id="Node000026" class="node">
<title>Node26</title>
<g id="a_Node000026"><a xlink:href="cpu__vehicles__camera__path_8c.html#a98f25cc327a8c3877ab8045b90d415b6" target="_top" xlink:title=" ">
<polygon fill="white" stroke="#666666" points="1536.5,-67.02 1444.5,-67.02 1444.5,-48.02 1536.5,-48.02 1536.5,-67.02"/>
<text text-anchor="middle" x="1490.5" y="-55.02" font-family="Helvetica,sans-Serif" font-size="10.00">func_80019ED0</text>
</a>
</g>
</g>
<!-- Node1&#45;&gt;Node26 -->
<g id="edge37_Node000001_Node000026" class="edge">
<title>Node1&#45;&gt;Node26</title>
<g id="a_edge37_Node000001_Node000026"><a xlink:title=" ">
<path fill="none" stroke="#63b8ff" d="M1596.91,-69.37C1577.29,-67.17 1555.39,-64.7 1536.66,-62.6"/>
<polygon fill="#63b8ff" stroke="#63b8ff" points="1596.6,-72.86 1606.93,-70.5 1597.39,-65.91 1596.6,-72.86"/>
</a>
</g>
</g>
<!-- Node3 -->
<g id="Node000003" class="node">
<title>Node3</title>
<g id="a_Node000003"><a xlink:href="cpu__vehicles__camera__path_8c.html#a7eca821e375d293b4bc6ead44dd26463" target="_top" xlink:title=" ">
<polygon fill="white" stroke="#666666" points="1373,-402.02 1282,-402.02 1282,-383.02 1373,-383.02 1373,-402.02"/>
<text text-anchor="middle" x="1327.5" y="-390.02" font-family="Helvetica,sans-Serif" font-size="10.00">func_80019E58</text>
</a>
</g>
</g>
<!-- Node2&#45;&gt;Node3 -->
<g id="edge2_Node000002_Node000003" class="edge">
<title>Node2&#45;&gt;Node3</title>
<g id="a_edge2_Node000002_Node000003"><a xlink:title=" ">
<path fill="none" stroke="#63b8ff" d="M1478.22,-150.73C1446.67,-201.68 1358.29,-344.41 1334.47,-382.87"/>
<polygon fill="#63b8ff" stroke="#63b8ff" points="1481.29,-152.42 1483.58,-142.08 1475.34,-148.74 1481.29,-152.42"/>
</a>
</g>
</g>
<!-- Node12 -->
<g id="Node000012" class="node">
<title>Node12</title>
<g id="a_Node000012"><a xlink:href="cpu__vehicles__camera__path_8c.html#ade801375eb2285e6993ba1023fa00b1a" target="_top" xlink:title=" ">
<polygon fill="white" stroke="#666666" points="1373.5,-291.02 1281.5,-291.02 1281.5,-272.02 1373.5,-272.02 1373.5,-291.02"/>
<text text-anchor="middle" x="1327.5" y="-279.02" font-family="Helvetica,sans-Serif" font-size="10.00">func_8001A348</text>
</a>
</g>
</g>
<!-- Node2&#45;&gt;Node12 -->
<g id="edge11_Node000002_Node000012" class="edge">
<title>Node2&#45;&gt;Node12</title>
<g id="a_edge11_Node000002_Node000012"><a xlink:title=" ">
<path fill="none" stroke="#63b8ff" d="M1471.17,-149.48C1437.24,-180.88 1365.66,-247.12 1338.89,-271.9"/>
<polygon fill="#63b8ff" stroke="#63b8ff" points="1473.97,-151.65 1478.94,-142.29 1469.22,-146.52 1473.97,-151.65"/>
</a>
</g>
</g>
<!-- Node14 -->
<g id="Node000014" class="node">
<title>Node14</title>
<g id="a_Node000014"><a xlink:href="cpu__vehicles__camera__path_8c.html#adac9fce1255b48eabba9843067498e54" target="_top" xlink:title=" ">
<polygon fill="white" stroke="#666666" points="1117,-236.02 1025,-236.02 1025,-217.02 1117,-217.02 1117,-236.02"/>
<text text-anchor="middle" x="1071" y="-224.02" font-family="Helvetica,sans-Serif" font-size="10.00">func_8001A588</text>
</a>
</g>
</g>
<!-- Node2&#45;&gt;Node14 -->
<g id="edge36_Node000002_Node000014" class="edge">
<title>Node2&#45;&gt;Node14</title>
<g id="a_edge36_Node000002_Node000014"><a xlink:title=" ">
<path fill="none" stroke="#63b8ff" d="M1399.73,-138.08C1315.71,-144.15 1196.77,-155.24 1153,-171.52 1124.96,-181.94 1097.19,-204.03 1082.57,-216.81"/>
<polygon fill="#63b8ff" stroke="#63b8ff" points="1400.07,-141.56 1409.79,-137.36 1399.57,-134.58 1400.07,-141.56"/>
</a>
</g>
</g>
<!-- Node23 -->
<g id="Node000023" class="node">
<title>Node23</title>
<g id="a_Node000023"><a xlink:href="cpu__vehicles__camera__path_8c.html#aa97657992b3d5468d1944de0edff43c5" target="_top" xlink:title=" ">
<polygon fill="white" stroke="#666666" points="1374,-123.02 1281,-123.02 1281,-104.02 1374,-104.02 1374,-123.02"/>
<text text-anchor="middle" x="1327.5" y="-111.02" font-family="Helvetica,sans-Serif" font-size="10.00">func_8001A3D8</text>
</a>
</g>
</g>
<!-- Node2&#45;&gt;Node23 -->
<g id="edge30_Node000002_Node000023" class="edge">
<title>Node2&#45;&gt;Node23</title>
<g id="a_edge30_Node000002_Node000023"><a xlink:title=" ">
<path fill="none" stroke="#63b8ff" d="M1399.95,-121.95C1391.14,-120.91 1382.47,-119.88 1374.38,-118.93"/>
<polygon fill="#63b8ff" stroke="#63b8ff" points="1399.6,-125.43 1409.94,-123.13 1400.42,-118.48 1399.6,-125.43"/>
</a>
</g>
</g>
<!-- Node24 -->
<g id="Node000024" class="node">
<title>Node24</title>
<g id="a_Node000024"><a xlink:href="cpu__vehicles__camera__path_8c.html#a671c7774931a008442d74e61aff710c6" target="_top" xlink:title=" ">
<polygon fill="white" stroke="#666666" points="1373.5,-85.02 1281.5,-85.02 1281.5,-66.02 1373.5,-66.02 1373.5,-85.02"/>
<text text-anchor="middle" x="1327.5" y="-73.02" font-family="Helvetica,sans-Serif" font-size="10.00">func_8001A450</text>
</a>
</g>
</g>
<!-- Node2&#45;&gt;Node24 -->
<g id="edge32_Node000002_Node000024" class="edge">
<title>Node2&#45;&gt;Node24</title>
<g id="a_edge32_Node000002_Node000024"><a xlink:title=" ">
<path fill="none" stroke="#63b8ff" d="M1452.98,-119.59C1423.36,-109.1 1382.27,-94.55 1355.54,-85.09"/>
<polygon fill="#63b8ff" stroke="#63b8ff" points="1451.96,-122.94 1462.55,-122.98 1454.29,-116.34 1451.96,-122.94"/>
</a>
</g>
</g>
<!-- Node4 -->
<g id="Node000004" class="node">
<title>Node4</title>
<g id="a_Node000004"><a xlink:href="race__logic_8c.html#aeb498a031d0fc8f31b5947bf329344f4" target="_top" xlink:title=" ">
<polygon fill="white" stroke="#666666" points="1244.5,-458.02 1153.5,-458.02 1153.5,-439.02 1244.5,-439.02 1244.5,-458.02"/>
<text text-anchor="middle" x="1199" y="-446.02" font-family="Helvetica,sans-Serif" font-size="10.00">func_8028E678</text>
</a>
</g>
</g>
<!-- Node3&#45;&gt;Node4 -->
<g id="edge3_Node000003_Node000004" class="edge">
<title>Node3&#45;&gt;Node4</title>
<g id="a_edge3_Node000003_Node000004"><a xlink:title=" ">
<path fill="none" stroke="#63b8ff" d="M1297.78,-406.38C1282.25,-413.76 1262.68,-422.87 1245,-430.52 1238.51,-433.32 1231.44,-436.23 1224.86,-438.86"/>
<polygon fill="#63b8ff" stroke="#63b8ff" points="1299.36,-409.51 1306.88,-402.04 1296.34,-403.19 1299.36,-409.51"/>
</a>
</g>
</g>
<!-- Node5 -->
<g id="Node000005" class="node">
<title>Node5</title>
<g id="a_Node000005"><a xlink:href="race__logic_8c.html#a7f21a1ef55b61f5678170da62e5e51dc" target="_top" xlink:title=" ">
<polygon fill="white" stroke="#666666" points="989,-366.02 896,-366.02 896,-347.02 989,-347.02 989,-366.02"/>
<text text-anchor="middle" x="942.5" y="-354.02" font-family="Helvetica,sans-Serif" font-size="10.00">func_8028FCBC</text>
</a>
</g>
</g>
<!-- Node4&#45;&gt;Node5 -->
<g id="edge4_Node000004_Node000005" class="edge">
<title>Node4&#45;&gt;Node5</title>
<g id="a_edge4_Node000004_Node000005"><a xlink:title=" ">
<path fill="none" stroke="#63b8ff" d="M1161.77,-435.42C1109.89,-416.67 1015.68,-382.61 969.9,-366.06"/>
<polygon fill="#63b8ff" stroke="#63b8ff" points="1160.65,-438.74 1171.25,-438.84 1163.03,-432.15 1160.65,-438.74"/>
</a>
</g>
</g>
<!-- Node6 -->
<g id="Node000006" class="node">
<title>Node6</title>
<g id="a_Node000006"><a xlink:href="main_8c.html#afff87ffcbfee4f1f37d443110aa7b52a" target="_top" xlink:title=" ">
<polygon fill="white" stroke="#666666" points="732,-274.02 640,-274.02 640,-255.02 732,-255.02 732,-274.02"/>
<text text-anchor="middle" x="686" y="-262.02" font-family="Helvetica,sans-Serif" font-size="10.00">race_logic_loop</text>
</a>
</g>
</g>
<!-- Node5&#45;&gt;Node6 -->
<g id="edge5_Node000005_Node000006" class="edge">
<title>Node5&#45;&gt;Node6</title>
<g id="a_edge5_Node000005_Node000006"><a xlink:title=" ">
<path fill="none" stroke="#63b8ff" d="M905.27,-343.42C853.39,-324.67 759.18,-290.61 713.4,-274.06"/>
<polygon fill="#63b8ff" stroke="#63b8ff" points="904.15,-346.74 914.75,-346.84 906.53,-340.15 904.15,-346.74"/>
</a>
</g>
</g>
<!-- Node7 -->
<g id="Node000007" class="node">
<title>Node7</title>
<g id="a_Node000007"><a xlink:href="main_8c.html#ae04143ce8113cdafa007c642eb620bc8" target="_top" xlink:title=" ">
<polygon fill="white" stroke="#666666" points="604,-274.02 488,-274.02 488,-255.02 604,-255.02 604,-274.02"/>
<text text-anchor="middle" x="546" y="-262.02" font-family="Helvetica,sans-Serif" font-size="10.00">game_state_handler</text>
</a>
</g>
</g>
<!-- Node6&#45;&gt;Node7 -->
<g id="edge6_Node000006_Node000007" class="edge">
<title>Node6&#45;&gt;Node7</title>
<g id="a_edge6_Node000006_Node000007"><a xlink:title=" ">
<path fill="none" stroke="#63b8ff" d="M629.79,-264.52C621.43,-264.52 612.78,-264.52 604.38,-264.52"/>
<polygon fill="#63b8ff" stroke="#63b8ff" points="629.81,-268.02 639.81,-264.52 629.81,-261.02 629.81,-268.02"/>
</a>
</g>
</g>
<!-- Node8 -->
<g id="Node000008" class="node">
<title>Node8</title>
<g id="a_Node000008"><a xlink:href="main_8c.html#a633ed517e458daeb768f5361895dcac9" target="_top" xlink:title=" ">
<polygon fill="white" stroke="#666666" points="452,-274.02 339,-274.02 339,-255.02 452,-255.02 452,-274.02"/>
<text text-anchor="middle" x="395.5" y="-262.02" font-family="Helvetica,sans-Serif" font-size="10.00">thread5_game_loop</text>
</a>
</g>
</g>
<!-- Node7&#45;&gt;Node8 -->
<g id="edge7_Node000007_Node000008" class="edge">
<title>Node7&#45;&gt;Node8</title>
<g id="a_edge7_Node000007_Node000008"><a xlink:title=" ">
<path fill="none" stroke="#63b8ff" d="M477.42,-264.52C469.02,-264.52 460.5,-264.52 452.3,-264.52"/>
<polygon fill="#63b8ff" stroke="#63b8ff" points="477.59,-268.02 487.59,-264.52 477.59,-261.02 477.59,-268.02"/>
</a>
</g>
</g>
<!-- Node9 -->
<g id="Node000009" class="node">
<title>Node9</title>
<g id="a_Node000009"><a xlink:href="main_8c.html#a023b8f272e4efbd33f371e91ffff6b30" target="_top" xlink:title=" ">
<polygon fill="white" stroke="#666666" points="303,-274.02 217,-274.02 217,-255.02 303,-255.02 303,-274.02"/>
<text text-anchor="middle" x="260" y="-262.02" font-family="Helvetica,sans-Serif" font-size="10.00">thread3_video</text>
</a>
</g>
</g>
<!-- Node8&#45;&gt;Node9 -->
<g id="edge8_Node000008_Node000009" class="edge">
<title>Node8&#45;&gt;Node9</title>
<g id="a_edge8_Node000008_Node000009"><a xlink:title=" ">
<path fill="none" stroke="#63b8ff" d="M328.57,-264.52C319.94,-264.52 311.3,-264.52 303.21,-264.52"/>
<polygon fill="#63b8ff" stroke="#63b8ff" points="328.66,-268.02 338.66,-264.52 328.66,-261.02 328.66,-268.02"/>
</a>
</g>
</g>
<!-- Node10 -->
<g id="Node000010" class="node">
<title>Node10</title>
<g id="a_Node000010"><a xlink:href="main_8c.html#a1e35d2b842121e6aea373f09381616e5" target="_top" xlink:title=" ">
<polygon fill="white" stroke="#666666" points="181,-274.02 104,-274.02 104,-255.02 181,-255.02 181,-274.02"/>
<text text-anchor="middle" x="142.5" y="-262.02" font-family="Helvetica,sans-Serif" font-size="10.00">thread1_idle</text>
</a>
</g>
</g>
<!-- Node9&#45;&gt;Node10 -->
<g id="edge9_Node000009_Node000010" class="edge">
<title>Node9&#45;&gt;Node10</title>
<g id="a_edge9_Node000009_Node000010"><a xlink:title=" ">
<path fill="none" stroke="#63b8ff" d="M206.9,-264.52C198.2,-264.52 189.33,-264.52 181.09,-264.52"/>
<polygon fill="#63b8ff" stroke="#63b8ff" points="206.98,-268.02 216.98,-264.52 206.98,-261.02 206.98,-268.02"/>
</a>
</g>
</g>
<!-- Node11 -->
<g id="Node000011" class="node">
<title>Node11</title>
<g id="a_Node000011"><a xlink:href="main_8c.html#a4f87d43525fe95f60ea92bc8a3b70e62" target="_top" xlink:title=" ">
<polygon fill="white" stroke="#666666" points="68,-274.02 0,-274.02 0,-255.02 68,-255.02 68,-274.02"/>
<text text-anchor="middle" x="34" y="-262.02" font-family="Helvetica,sans-Serif" font-size="10.00">main_func</text>
</a>
</g>
</g>
<!-- Node10&#45;&gt;Node11 -->
<g id="edge10_Node000010_Node000011" class="edge">
<title>Node10&#45;&gt;Node11</title>
<g id="a_edge10_Node000010_Node000011"><a xlink:title=" ">
<path fill="none" stroke="#63b8ff" d="M93.95,-264.52C85.29,-264.52 76.44,-264.52 68.31,-264.52"/>
<polygon fill="#63b8ff" stroke="#63b8ff" points="93.95,-268.02 103.95,-264.52 93.95,-261.02 93.95,-268.02"/>
</a>
</g>
</g>
<!-- Node13 -->
<g id="Node000013" class="node">
<title>Node13</title>
<g id="a_Node000013"><a xlink:href="cpu__vehicles__camera__path_8c.html#a4653876884c97d13061b7b420a918c2e" target="_top" xlink:title=" ">
<polygon fill="white" stroke="#666666" points="1245,-421.02 1153,-421.02 1153,-402.02 1245,-402.02 1245,-421.02"/>
<text text-anchor="middle" x="1199" y="-409.02" font-family="Helvetica,sans-Serif" font-size="10.00">func_8001577C</text>
</a>
</g>
</g>
<!-- Node12&#45;&gt;Node13 -->
<g id="edge12_Node000012_Node000013" class="edge">
<title>Node12&#45;&gt;Node13</title>
<g id="a_edge12_Node000012_Node000013"><a xlink:title=" ">
<path fill="none" stroke="#63b8ff" d="M1317.14,-300.34C1304.08,-324.87 1278.2,-367.69 1245,-393.52 1240.75,-396.82 1235.81,-399.6 1230.8,-401.91"/>
<polygon fill="#63b8ff" stroke="#63b8ff" points="1320.31,-301.82 1321.8,-291.33 1314.1,-298.61 1320.31,-301.82"/>
</a>
</g>
</g>
<!-- Node17 -->
<g id="Node000017" class="node">
<title>Node17</title>
<g id="a_Node000017"><a xlink:href="cpu__vehicles__camera__path_8c.html#af78d8397fa3a12ca87ae281bdf990218" target="_top" xlink:title=" ">
<polygon fill="white" stroke="#666666" points="1245,-384.02 1153,-384.02 1153,-365.02 1245,-365.02 1245,-384.02"/>
<text text-anchor="middle" x="1199" y="-372.02" font-family="Helvetica,sans-Serif" font-size="10.00">func_80015C94</text>
</a>
</g>
</g>
<!-- Node12&#45;&gt;Node17 -->
<g id="edge18_Node000012_Node000017" class="edge">
<title>Node12&#45;&gt;Node17</title>
<g id="a_edge18_Node000012_Node000017"><a xlink:title=" ">
<path fill="none" stroke="#63b8ff" d="M1311.15,-298.91C1295.77,-315.51 1270.73,-340.31 1245,-356.52 1239.87,-359.75 1234.07,-362.58 1228.38,-364.99"/>
<polygon fill="#63b8ff" stroke="#63b8ff" points="1313.75,-301.26 1317.89,-291.5 1308.57,-296.55 1313.75,-301.26"/>
</a>
</g>
</g>
<!-- Node18 -->
<g id="Node000018" class="node">
<title>Node18</title>
<g id="a_Node000018"><a xlink:href="cpu__vehicles__camera__path_8c.html#acb51f46008c8a06197fc136c4f2802a9" target="_top" xlink:title=" ">
<polygon fill="white" stroke="#666666" points="1244.5,-347.02 1153.5,-347.02 1153.5,-328.02 1244.5,-328.02 1244.5,-347.02"/>
<text text-anchor="middle" x="1199" y="-335.02" font-family="Helvetica,sans-Serif" font-size="10.00">func_80016494</text>
</a>
</g>
</g>
<!-- Node12&#45;&gt;Node18 -->
<g id="edge20_Node000012_Node000018" class="edge">
<title>Node12&#45;&gt;Node18</title>
<g id="a_edge20_Node000012_Node000018"><a xlink:title=" ">
<path fill="none" stroke="#63b8ff" d="M1297.78,-295.38C1282.25,-302.76 1262.68,-311.87 1245,-319.52 1238.51,-322.32 1231.44,-325.23 1224.86,-327.86"/>
<polygon fill="#63b8ff" stroke="#63b8ff" points="1299.36,-298.51 1306.88,-291.04 1296.34,-292.19 1299.36,-298.51"/>
</a>
</g>
</g>
<!-- Node19 -->
<g id="Node000019" class="node">
<title>Node19</title>
<g id="a_Node000019"><a xlink:href="cpu__vehicles__camera__path_8c.html#aec654f7098be6c6ff382d5058263a76a" target="_top" xlink:title=" ">
<polygon fill="white" stroke="#666666" points="1244.5,-310.02 1153.5,-310.02 1153.5,-291.02 1244.5,-291.02 1244.5,-310.02"/>
<text text-anchor="middle" x="1199" y="-298.02" font-family="Helvetica,sans-Serif" font-size="10.00">func_800178F4</text>
</a>
</g>
</g>
<!-- Node12&#45;&gt;Node19 -->
<g id="edge22_Node000012_Node000019" class="edge">
<title>Node12&#45;&gt;Node19</title>
<g id="a_edge22_Node000012_Node000019"><a xlink:title=" ">
<path fill="none" stroke="#63b8ff" d="M1271.25,-289.81C1262.33,-291.15 1253.2,-292.53 1244.57,-293.82"/>
<polygon fill="#63b8ff" stroke="#63b8ff" points="1271.82,-293.27 1281.19,-288.32 1270.78,-286.35 1271.82,-293.27"/>
</a>
</g>
</g>
<!-- Node20 -->
<g id="Node000020" class="node">
<title>Node20</title>
<g id="a_Node000020"><a xlink:href="cpu__vehicles__camera__path_8c.html#a221c2d9c469606ad4ceb44b3feed0b2a" target="_top" xlink:title=" ">
<polygon fill="white" stroke="#666666" points="1244.5,-273.02 1153.5,-273.02 1153.5,-254.02 1244.5,-254.02 1244.5,-273.02"/>
<text text-anchor="middle" x="1199" y="-261.02" font-family="Helvetica,sans-Serif" font-size="10.00">func_800180F0</text>
</a>
</g>
</g>
<!-- Node12&#45;&gt;Node20 -->
<g id="edge24_Node000012_Node000020" class="edge">
<title>Node12&#45;&gt;Node20</title>
<g id="a_edge24_Node000012_Node000020"><a xlink:title=" ">
<path fill="none" stroke="#63b8ff" d="M1271.25,-273.65C1262.33,-272.38 1253.2,-271.09 1244.57,-269.86"/>
<polygon fill="#63b8ff" stroke="#63b8ff" points="1270.79,-277.12 1281.19,-275.07 1271.78,-270.19 1270.79,-277.12"/>
</a>
</g>
</g>
<!-- Node21 -->
<g id="Node000021" class="node">
<title>Node21</title>
<g id="a_Node000021"><a xlink:href="cpu__vehicles__camera__path_8c.html#a93d50445c0f98845ef112c4d057bc81a" target="_top" xlink:title=" ">
<polygon fill="white" stroke="#666666" points="1244.5,-236.02 1153.5,-236.02 1153.5,-217.02 1244.5,-217.02 1244.5,-236.02"/>
<text text-anchor="middle" x="1199" y="-224.02" font-family="Helvetica,sans-Serif" font-size="10.00">func_800188F4</text>
</a>
</g>
</g>
<!-- Node12&#45;&gt;Node21 -->
<g id="edge26_Node000012_Node000021" class="edge">
<title>Node12&#45;&gt;Node21</title>
<g id="a_edge26_Node000012_Node000021"><a xlink:title=" ">
<path fill="none" stroke="#63b8ff" d="M1295.64,-267.74C1280.42,-260.98 1261.77,-252.76 1245,-245.52 1237.84,-242.42 1230.01,-239.1 1222.92,-236.11"/>
<polygon fill="#63b8ff" stroke="#63b8ff" points="1294.53,-271.08 1305.09,-271.94 1297.38,-264.68 1294.53,-271.08"/>
</a>
</g>
</g>
<!-- Node22 -->
<g id="Node000022" class="node">
<title>Node22</title>
<g id="a_Node000022"><a xlink:href="cpu__vehicles__camera__path_8c.html#a81a2a6017420af697758903d74577445" target="_top" xlink:title=" ">
<polygon fill="white" stroke="#666666" points="1245,-199.02 1153,-199.02 1153,-180.02 1245,-180.02 1245,-199.02"/>
<text text-anchor="middle" x="1199" y="-187.02" font-family="Helvetica,sans-Serif" font-size="10.00">func_8001933C</text>
</a>
</g>
</g>
<!-- Node12&#45;&gt;Node22 -->
<g id="edge28_Node000012_Node000022" class="edge">
<title>Node12&#45;&gt;Node22</title>
<g id="a_edge28_Node000012_Node000022"><a xlink:title=" ">
<path fill="none" stroke="#63b8ff" d="M1310.57,-264.28C1295.04,-248.23 1270.14,-224.45 1245,-208.52 1239.41,-204.97 1233.05,-201.83 1226.91,-199.16"/>
<polygon fill="#63b8ff" stroke="#63b8ff" points="1308.37,-267.04 1317.79,-271.88 1313.44,-262.22 1308.37,-267.04"/>
</a>
</g>
</g>
<!-- Node13&#45;&gt;Node14 -->
<g id="edge13_Node000013_Node000014" class="edge">
<title>Node13&#45;&gt;Node14</title>
<g id="a_edge13_Node000013_Node000014"><a xlink:title=" ">
<path fill="none" stroke="#63b8ff" d="M1156.54,-396.47C1155.3,-395.54 1154.12,-394.56 1153,-393.52 1103.48,-347.4 1080.7,-264.57 1074.11,-236.29"/>
<polygon fill="#63b8ff" stroke="#63b8ff" points="1154.94,-399.59 1165.29,-401.84 1158.6,-393.63 1154.94,-399.59"/>
</a>
</g>
</g>
<!-- Node15 -->
<g id="Node000015" class="node">
<title>Node15</title>
<g id="a_Node000015"><a xlink:href="camera_8c.html#aa9c99b4c8605e42825107adeed2c382a" target="_top" xlink:title=" ">
<polygon fill="white" stroke="#666666" points="988,-236.02 897,-236.02 897,-217.02 988,-217.02 988,-236.02"/>
<text text-anchor="middle" x="942.5" y="-224.02" font-family="Helvetica,sans-Serif" font-size="10.00">func_8001EE98</text>
</a>
</g>
</g>
<!-- Node14&#45;&gt;Node15 -->
<g id="edge14_Node000014_Node000015" class="edge">
<title>Node14&#45;&gt;Node15</title>
<g id="a_edge14_Node000014_Node000015"><a xlink:title=" ">
<path fill="none" stroke="#63b8ff" d="M1014.46,-226.52C1005.63,-226.52 996.6,-226.52 988.07,-226.52"/>
<polygon fill="#63b8ff" stroke="#63b8ff" points="1014.69,-230.02 1024.69,-226.52 1014.69,-223.02 1014.69,-230.02"/>
</a>
</g>
</g>
<!-- Node15&#45;&gt;Node6 -->
<g id="edge17_Node000015_Node000006" class="edge">
<title>Node15&#45;&gt;Node6</title>
<g id="a_edge17_Node000015_Node000006"><a xlink:title=" ">
<path fill="none" stroke="#63b8ff" d="M895,-238.37C883.61,-240.99 871.41,-243.57 860,-245.52 816.81,-252.89 767.05,-258.01 732.01,-261.06"/>
<polygon fill="#63b8ff" stroke="#63b8ff" points="895.84,-241.77 904.77,-236.06 894.23,-234.95 895.84,-241.77"/>
</a>
</g>
</g>
<!-- Node16 -->
<g id="Node000016" class="node">
<title>Node16</title>
<g id="a_Node000016"><a xlink:href="race__logic_8c.html#a3189893b0ea5d4a7b1d679edc52d78ed" target="_top" xlink:title=" ">
<polygon fill="white" stroke="#666666" points="860,-236.02 768,-236.02 768,-217.02 860,-217.02 860,-236.02"/>
<text text-anchor="middle" x="814" y="-224.02" font-family="Helvetica,sans-Serif" font-size="10.00">func_80290B14</text>
</a>
</g>
</g>
<!-- Node15&#45;&gt;Node16 -->
<g id="edge15_Node000015_Node000016" class="edge">
<title>Node15&#45;&gt;Node16</title>
<g id="a_edge15_Node000015_Node000016"><a xlink:title=" ">
<path fill="none" stroke="#63b8ff" d="M886.63,-226.52C877.75,-226.52 868.66,-226.52 860.05,-226.52"/>
<polygon fill="#63b8ff" stroke="#63b8ff" points="886.9,-230.02 896.9,-226.52 886.9,-223.02 886.9,-230.02"/>
</a>
</g>
</g>
<!-- Node16&#45;&gt;Node6 -->
<g id="edge16_Node000016_Node000006" class="edge">
<title>Node16&#45;&gt;Node6</title>
<g id="a_edge16_Node000016_Node000006"><a xlink:title=" ">
<path fill="none" stroke="#63b8ff" d="M771.44,-239.05C754.29,-244.22 734.75,-250.11 718.78,-254.93"/>
<polygon fill="#63b8ff" stroke="#63b8ff" points="772.64,-242.34 781.2,-236.1 770.62,-235.64 772.64,-242.34"/>
</a>
</g>
</g>
<!-- Node17&#45;&gt;Node14 -->
<g id="edge19_Node000017_Node000014" class="edge">
<title>Node17&#45;&gt;Node14</title>
<g id="a_edge19_Node000017_Node000014"><a xlink:title=" ">
<path fill="none" stroke="#63b8ff" d="M1157.77,-360.05C1156.1,-358.95 1154.5,-357.77 1153,-356.52 1111.41,-321.69 1084.67,-259.82 1075.52,-236.12"/>
<polygon fill="#63b8ff" stroke="#63b8ff" points="1156.09,-363.12 1166.53,-364.94 1159.51,-357.01 1156.09,-363.12"/>
</a>
</g>
</g>
<!-- Node18&#45;&gt;Node14 -->
<g id="edge21_Node000018_Node000014" class="edge">
<title>Node18&#45;&gt;Node14</title>
<g id="a_edge21_Node000018_Node000014"><a xlink:title=" ">
<path fill="none" stroke="#63b8ff" d="M1158.98,-323.31C1156.91,-322.13 1154.9,-320.86 1153,-319.52 1119.3,-295.59 1090.38,-254.88 1078.18,-236.29"/>
<polygon fill="#63b8ff" stroke="#63b8ff" points="1157.88,-326.67 1168.39,-328.01 1161.01,-320.41 1157.88,-326.67"/>
</a>
</g>
</g>
<!-- Node19&#45;&gt;Node14 -->
<g id="edge23_Node000019_Node000014" class="edge">
<title>Node19&#45;&gt;Node14</title>
<g id="a_edge23_Node000019_Node000014"><a xlink:title=" ">
<path fill="none" stroke="#63b8ff" d="M1162.05,-286.99C1158.95,-285.57 1155.89,-284.07 1153,-282.52 1127.09,-268.61 1099.43,-248.11 1084.07,-236.15"/>
<polygon fill="#63b8ff" stroke="#63b8ff" points="1160.81,-290.26 1171.37,-291.01 1163.58,-283.84 1160.81,-290.26"/>
</a>
</g>
</g>
<!-- Node20&#45;&gt;Node14 -->
<g id="edge25_Node000020_Node000014" class="edge">
<title>Node20&#45;&gt;Node14</title>
<g id="a_edge25_Node000020_Node000014"><a xlink:title=" ">
<path fill="none" stroke="#63b8ff" d="M1155.56,-251.05C1138.98,-246.19 1120.28,-240.69 1104.78,-236.14"/>
<polygon fill="#63b8ff" stroke="#63b8ff" points="1154.97,-254.53 1165.55,-253.99 1156.94,-247.81 1154.97,-254.53"/>
</a>
</g>
</g>
<!-- Node21&#45;&gt;Node14 -->
<g id="edge27_Node000021_Node000014" class="edge">
<title>Node21&#45;&gt;Node14</title>
<g id="a_edge27_Node000021_Node000014"><a xlink:title=" ">
<path fill="none" stroke="#63b8ff" d="M1143.14,-226.52C1134.43,-226.52 1125.51,-226.52 1117.06,-226.52"/>
<polygon fill="#63b8ff" stroke="#63b8ff" points="1143.22,-230.02 1153.22,-226.52 1143.22,-223.02 1143.22,-230.02"/>
</a>
</g>
</g>
<!-- Node22&#45;&gt;Node14 -->
<g id="edge29_Node000022_Node000014" class="edge">
<title>Node22&#45;&gt;Node14</title>
<g id="a_edge29_Node000022_Node000014"><a xlink:title=" ">
<path fill="none" stroke="#63b8ff" d="M1155.56,-201.98C1138.98,-206.85 1120.28,-212.34 1104.78,-216.89"/>
<polygon fill="#63b8ff" stroke="#63b8ff" points="1156.94,-205.22 1165.55,-199.04 1154.97,-198.5 1156.94,-205.22"/>
</a>
</g>
</g>
<!-- Node23&#45;&gt;Node14 -->
<g id="edge31_Node000023_Node000014" class="edge">
<title>Node23&#45;&gt;Node14</title>
<g id="a_edge31_Node000023_Node000014"><a xlink:title=" ">
<path fill="none" stroke="#63b8ff" d="M1270.6,-111.72C1235.07,-112.81 1189.12,-118.49 1153,-137.52 1116.96,-156.51 1088.83,-198.21 1077.47,-217"/>
<polygon fill="#63b8ff" stroke="#63b8ff" points="1270.87,-115.22 1280.8,-111.53 1270.74,-108.22 1270.87,-115.22"/>
</a>
</g>
</g>
<!-- Node24&#45;&gt;Node14 -->
<g id="edge35_Node000024_Node000014" class="edge">
<title>Node24&#45;&gt;Node14</title>
<g id="a_edge35_Node000024_Node000014"><a xlink:title=" ">
<path fill="none" stroke="#63b8ff" d="M1270.94,-75.44C1234.74,-77.82 1187.93,-85.7 1153,-108.52 1110.77,-136.1 1084.58,-194.14 1075.55,-216.98"/>
<polygon fill="#63b8ff" stroke="#63b8ff" points="1271.53,-78.91 1281.33,-74.88 1271.16,-71.92 1271.53,-78.91"/>
</a>
</g>
</g>
<!-- Node25 -->
<g id="Node000025" class="node">
<title>Node25</title>
<g id="a_Node000025"><a xlink:href="cpu__vehicles__camera__path_8c.html#a1405615f7a8bf075a39f55ec610515b4" target="_top" xlink:title=" ">
<polygon fill="white" stroke="#666666" points="1245,-47.02 1153,-47.02 1153,-28.02 1245,-28.02 1245,-47.02"/>
<text text-anchor="middle" x="1199" y="-35.02" font-family="Helvetica,sans-Serif" font-size="10.00">func_8001A518</text>
</a>
</g>
</g>
<!-- Node24&#45;&gt;Node25 -->
<g id="edge33_Node000024_Node000025" class="edge">
<title>Node24&#45;&gt;Node25</title>
<g id="a_edge33_Node000024_Node000025"><a xlink:title=" ">
<path fill="none" stroke="#63b8ff" d="M1284.77,-62.98C1267.56,-57.81 1247.94,-51.92 1231.91,-47.1"/>
<polygon fill="#63b8ff" stroke="#63b8ff" points="1283.99,-66.4 1294.58,-65.93 1286.01,-59.7 1283.99,-66.4"/>
</a>
</g>
</g>
<!-- Node25&#45;&gt;Node14 -->
<g id="edge34_Node000025_Node000014" class="edge">
<title>Node25&#45;&gt;Node14</title>
<g id="a_edge34_Node000025_Node000014"><a xlink:title=" ">
<path fill="none" stroke="#63b8ff" d="M1164.51,-52.25C1160.34,-54.95 1156.36,-58.04 1153,-61.52 1106.64,-109.46 1081.99,-189.1 1074.5,-216.72"/>
<polygon fill="#63b8ff" stroke="#63b8ff" points="1166.31,-55.26 1173.23,-47.23 1162.82,-49.19 1166.31,-55.26"/>
</a>
</g>
</g>
<!-- Node26&#45;&gt;Node15 -->
<g id="edge38_Node000026_Node000015" class="edge">
<title>Node26&#45;&gt;Node15</title>
<g id="a_edge38_Node000026_Node000015"><a xlink:title=" ">
<path fill="none" stroke="#63b8ff" d="M1458.14,-44C1396.93,-19.72 1258.33,24.89 1153,-18.52 1049.7,-61.09 970.41,-181.99 949.15,-216.94"/>
<polygon fill="#63b8ff" stroke="#63b8ff" points="1457.04,-47.34 1467.63,-47.85 1459.67,-40.85 1457.04,-47.34"/>
</a>
</g>
</g>
</g>
</svg>

<g id="navigator" transform="translate(0 0)" fill="#404254">
  <rect fill="#f2f5e9" fill-opacity="0.5" stroke="#606060" stroke-width=".5" x="0" y="0" width="60" height="60"/>
  <use id="zoomplus" xlink:href="#zoomPlus" x="17" y="9" onmousedown="handleZoom(evt,'in')"/>
  <use id="zoomminus" xlink:href="#zoomMin" x="42" y="9" onmousedown="handleZoom(evt,'out')"/>
  <use id="reset" xlink:href="#resetDef" x="30" y="36" onmousedown="handleReset()"/>
   <use id="arrowup" xlink:href="#arrowUp" x="0" y="0" onmousedown="handlePan(0,-1)"/>
  <use id="arrowright" xlink:href="#arrowRight" x="0" y="0" onmousedown="handlePan(1,0)"/>
  <use id="arrowdown" xlink:href="#arrowDown" x="0" y="0" onmousedown="handlePan(0,1)"/>
  <use id="arrowleft" xlink:href="#arrowLeft" x="0" y="0" onmousedown="handlePan(-1,0)"/>
</g>
<svg viewBox="0 0 15 15" width="100%" height="30px" preserveAspectRatio="xMaxYMin meet">
 <g id="arrow_out" transform="scale(0.3 0.3)">
  <a xlink:href="cpu__vehicles__camera__path_8c_afde1debe516fb907e5241d931719ba3e_icgraph_org.svg" target="_base">
   <rect id="button" ry="5" rx="5" y="6" x="6" height="38" width="38"
        fill="#f2f5e9" fill-opacity="0.5" stroke="#606060" stroke-width="1.0"/>
   <path id="arrow"
     d="M 11.500037,31.436501 C 11.940474,20.09759 22.043105,11.32322 32.158766,21.979434 L 37.068811,17.246167 C 37.068811,17.246167 37.088388,32 37.088388,32 L 22.160133,31.978069 C 22.160133,31.978069 26.997745,27.140456 26.997745,27.140456 C 18.528582,18.264221 13.291696,25.230495 11.500037,31.436501 z"
     style="fill:#404040;"/>
  </a>
 </g>
</svg>

<style type='text/css'>
<![CDATA[
[data-mouse-over-selected='false'] { opacity: 0.7; }
[data-mouse-over-selected='true']  { opacity: 1.0; }
]]>
</style>
<script type="application/ecmascript"><![CDATA[
document.addEventListener('DOMContentLoaded', (event) => {
  highlightEdges();
  highlightAdjacentNodes();
});
]]></script>
</svg>
