<?xml version="1.0" encoding="UTF-8" standalone="no"?>
<!DOCTYPE svg PUBLIC "-//W3C//DTD SVG 1.1//EN"
 "http://www.w3.org/Graphics/SVG/1.1/DTD/svg11.dtd">
<!-- Generated by graphviz version 2.43.0 (0)
 -->
<!-- Title: play_cpu_sound_effect Pages: 1 -->
<svg width="393pt" height="64pt"
 viewBox="0.00 0.00 393.00 64.00" xmlns="http://www.w3.org/2000/svg" xmlns:xlink="http://www.w3.org/1999/xlink">
<g id="graph0" class="graph" transform="scale(1 1) rotate(0) translate(4 60)">
<title>play_cpu_sound_effect</title>
<!-- Node1 -->
<g id="Node000001" class="node">
<title>Node1</title>
<g id="a_Node000001"><a xlink:title=" ">
<polygon fill="#999999" stroke="#666666" points="128,-37 0,-37 0,-18 128,-18 128,-37"/>
<text text-anchor="middle" x="64" y="-25" font-family="Helvetica,sans-Serif" font-size="10.00">play_cpu_sound_effect</text>
</a>
</g>
</g>
<!-- Node2 -->
<g id="Node000002" class="node">
<title>Node2</title>
<g id="a_Node000002"><a xlink:href="external_8c.html#aad3025d980410fa157174acbf923f8c0" target="_top" xlink:title=" ">
<polygon fill="white" stroke="#666666" points="257,-37 164,-37 164,-18 257,-18 257,-37"/>
<text text-anchor="middle" x="210.5" y="-25" font-family="Helvetica,sans-Serif" font-size="10.00">func_800C92CC</text>
</a>
</g>
</g>
<!-- Node1&#45;&gt;Node2 -->
<g id="edge1_Node000001_Node000002" class="edge">
<title>Node1&#45;&gt;Node2</title>
<g id="a_edge1_Node000001_Node000002"><a xlink:title=" ">
<path fill="none" stroke="#63b8ff" d="M128.38,-27.5C136.9,-27.5 145.58,-27.5 153.95,-27.5"/>
<polygon fill="#63b8ff" stroke="#63b8ff" points="153.97,-31 163.97,-27.5 153.97,-24 153.97,-31"/>
</a>
</g>
</g>
<!-- Node3 -->
<g id="Node000003" class="node">
<title>Node3</title>
<g id="a_Node000003"><a xlink:href="external_8c.html#a747de0be4005b4b29150d5c068564b7d" target="_top" xlink:title=" ">
<polygon fill="white" stroke="#666666" points="385,-56 293,-56 293,-37 385,-37 385,-56"/>
<text text-anchor="middle" x="339" y="-44" font-family="Helvetica,sans-Serif" font-size="10.00">func_800C1C88</text>
</a>
</g>
</g>
<!-- Node2&#45;&gt;Node3 -->
<g id="edge2_Node000002_Node000003" class="edge">
<title>Node2&#45;&gt;Node3</title>
<g id="a_edge2_Node000002_Node000003"><a xlink:title=" ">
<path fill="none" stroke="#63b8ff" d="M257.17,-34.36C265.51,-35.61 274.3,-36.93 282.88,-38.22"/>
<polygon fill="#63b8ff" stroke="#63b8ff" points="282.41,-41.69 292.82,-39.71 283.45,-34.77 282.41,-41.69"/>
</a>
</g>
</g>
<!-- Node4 -->
<g id="Node000004" class="node">
<title>Node4</title>
<g id="a_Node000004"><a xlink:href="external_8c.html#a475cff796211891556f52877cd8e9b9e" target="_top" xlink:title=" ">
<polygon fill="white" stroke="#666666" points="375,-19 303,-19 303,0 375,0 375,-19"/>
<text text-anchor="middle" x="339" y="-7" font-family="Helvetica,sans-Serif" font-size="10.00">play_sound</text>
</a>
</g>
</g>
<!-- Node2&#45;&gt;Node4 -->
<g id="edge3_Node000002_Node000004" class="edge">
<title>Node2&#45;&gt;Node4</title>
<g id="a_edge3_Node000002_Node000004"><a xlink:title=" ">
<path fill="none" stroke="#63b8ff" d="M257.17,-21C268.77,-19.35 281.24,-17.58 292.82,-15.93"/>
<polygon fill="#63b8ff" stroke="#63b8ff" points="293.31,-19.39 302.72,-14.52 292.33,-12.46 293.31,-19.39"/>
</a>
</g>
</g>
</g>
</svg>
