<?xml version="1.0" encoding="UTF-8" standalone="no"?>
<!DOCTYPE svg PUBLIC "-//W3C//DTD SVG 1.1//EN"
 "http://www.w3.org/Graphics/SVG/1.1/DTD/svg11.dtd">
<!-- Generated by graphviz version 2.43.0 (0)
 -->
<!-- Title: is_path_point_in_range Pages: 1 -->
<!--zoomable 477 -->

<svg id="main" version="1.1" xmlns="http://www.w3.org/2000/svg" xmlns:xlink="http://www.w3.org/1999/xlink" xml:space="preserve" onload="init(evt)">
<style type="text/css"><![CDATA[
.node, .edge {opacity: 0.7;}
.node.selected, .edge.selected {opacity: 1;}
.edge:hover path { stroke: red; }
.edge:hover polygon { stroke: red; fill: red; }
]]></style>

<defs>
  <circle id="rim" cx="0" cy="0" r="7"/>
  <circle id="rim2" cx="0" cy="0" r="3.5"/>
  <g id="zoomPlus">
    <use xlink:href="#rim" fill="#404040"><set attributeName="fill" to="#808080" begin="zoomplus.mouseover" end="zoomplus.mouseout"/></use>
    <path d="M-4,0h8M0,-4v8" fill="none" stroke="white" stroke-width="1.5" pointer-events="none"/>
  </g>
  <g id="zoomMin">
    <use xlink:href="#rim" fill="#404040"><set attributeName="fill" to="#808080" begin="zoomminus.mouseover" end="zoomminus.mouseout"/></use>
    <path d="M-4,0h8" fill="none" stroke="white" stroke-width="1.5" pointer-events="none"/>
  </g>
  <g id="arrowUp" transform="translate(30 24)">
    <use xlink:href="#rim"/>
    <path pointer-events="none" fill="none" stroke="white" stroke-width="1.5" d="M0,-3.0v7 M-2.5,-0.5L0,-3.0L2.5,-0.5"/>
  </g>
  <g id="arrowRight" transform="rotate(90) translate(36 -43)">
    <use xlink:href="#rim"/>
    <path pointer-events="none" fill="none" stroke="white" stroke-width="1.5" d="M0,-3.0v7 M-2.5,-0.5L0,-3.0L2.5,-0.5"/>
  </g>
  <g id="arrowDown" transform="rotate(180) translate(-30 -48)">
    <use xlink:href="#rim"/>
    <path pointer-events="none" fill="none" stroke="white" stroke-width="1.5" d="M0,-3.0v7 M-2.5,-0.5L0,-3.0L2.5,-0.5"/>
  </g>
  <g id="arrowLeft" transform="rotate(270) translate(-36 17)">
    <use xlink:href="#rim"/>
    <path pointer-events="none" fill="none" stroke="white" stroke-width="1.5" d="M0,-3.0v7 M-2.5,-0.5L0,-3.0L2.5,-0.5"/>
  </g>
  <g id="resetDef">
    <use xlink:href="#rim2" fill="#404040"><set attributeName="fill" to="#808080" begin="reset.mouseover" end="reset.mouseout"/></use>
  </g>
</defs>
<script type="application/ecmascript">
var viewWidth = 1598;
var viewHeight = 477;
var sectionId = 'dynsection-112';
</script>
<script type="application/ecmascript" xlink:href="svg.min.js"/>
<svg id="graph" class="graph">
<g id="viewport">
<title>is_path_point_in_range</title>
<!-- Node1 -->
<g id="Node000001" class="node">
<title>Node1</title>
<g id="a_Node000001"><a xlink:title=" ">
<polygon fill="#999999" stroke="#666666" points="1590,-301.5 1461,-301.5 1461,-282.5 1590,-282.5 1590,-301.5"/>
<text text-anchor="middle" x="1525.5" y="-289.5" font-family="Helvetica,sans-Serif" font-size="10.00">is_path_point_in_range</text>
</a>
</g>
</g>
<!-- Node2 -->
<g id="Node000002" class="node">
<title>Node2</title>
<g id="a_Node000002"><a xlink:href="cpu__vehicles__camera__path_8c.html#a124643c54f6424c7d94fcf3fc7b150ea" target="_top" xlink:title=" ">
<polygon fill="white" stroke="#666666" points="1215.5,-226.5 1085.5,-226.5 1085.5,-207.5 1215.5,-207.5 1215.5,-226.5"/>
<text text-anchor="middle" x="1150.5" y="-214.5" font-family="Helvetica,sans-Serif" font-size="10.00">cpu_use_item_strategy</text>
</a>
</g>
</g>
<!-- Node1&#45;&gt;Node2 -->
<g id="edge1_Node000001_Node000002" class="edge">
<title>Node1&#45;&gt;Node2</title>
<g id="a_edge1_Node000001_Node000002"><a xlink:title=" ">
<path fill="none" stroke="#63b8ff" d="M1508.36,-275.03C1490.1,-257.16 1458.51,-230.11 1425,-219 1353.11,-195.17 1264.63,-200.25 1208.14,-207.48"/>
<polygon fill="#63b8ff" stroke="#63b8ff" points="1506.25,-277.86 1515.77,-282.5 1511.22,-272.94 1506.25,-277.86"/>
</a>
</g>
</g>
<!-- Node13 -->
<g id="Node000013" class="node">
<title>Node13</title>
<g id="a_Node000013"><a xlink:href="cpu__vehicles__camera__path_8c.html#afea9758c9f344fdd388632dac92e2186" target="_top" xlink:title=" ">
<polygon fill="white" stroke="#666666" points="1196.5,-189.5 1104.5,-189.5 1104.5,-170.5 1196.5,-170.5 1196.5,-189.5"/>
<text text-anchor="middle" x="1150.5" y="-177.5" font-family="Helvetica,sans-Serif" font-size="10.00">func_8000B140</text>
</a>
</g>
</g>
<!-- Node1&#45;&gt;Node13 -->
<g id="edge13_Node000001_Node000013" class="edge">
<title>Node1&#45;&gt;Node13</title>
<g id="a_edge13_Node000001_Node000013"><a xlink:title=" ">
<path fill="none" stroke="#63b8ff" d="M1512.14,-274.14C1495.37,-251.56 1463.08,-213.65 1425,-197 1350.24,-164.32 1252.9,-167.79 1196.79,-173.65"/>
<polygon fill="#63b8ff" stroke="#63b8ff" points="1509.48,-276.43 1518.16,-282.5 1515.16,-272.34 1509.48,-276.43"/>
</a>
</g>
</g>
<!-- Node14 -->
<g id="Node000014" class="node">
<title>Node14</title>
<g id="a_Node000014"><a xlink:href="cpu__vehicles__camera__path_8c.html#a4653876884c97d13061b7b420a918c2e" target="_top" xlink:title=" ">
<polygon fill="white" stroke="#666666" points="1394.5,-357.5 1302.5,-357.5 1302.5,-338.5 1394.5,-338.5 1394.5,-357.5"/>
<text text-anchor="middle" x="1348.5" y="-345.5" font-family="Helvetica,sans-Serif" font-size="10.00">func_8001577C</text>
</a>
</g>
</g>
<!-- Node1&#45;&gt;Node14 -->
<g id="edge15_Node000001_Node000014" class="edge">
<title>Node1&#45;&gt;Node14</title>
<g id="a_edge15_Node000001_Node000014"><a xlink:title=" ">
<path fill="none" stroke="#63b8ff" d="M1492.36,-305.5C1473.05,-313.3 1447.87,-322.94 1425,-330 1414.96,-333.1 1404.03,-335.98 1393.68,-338.49"/>
<polygon fill="#63b8ff" stroke="#63b8ff" points="1493.94,-308.64 1501.88,-301.61 1491.29,-302.16 1493.94,-308.64"/>
</a>
</g>
</g>
<!-- Node18 -->
<g id="Node000018" class="node">
<title>Node18</title>
<g id="a_Node000018"><a xlink:href="cpu__vehicles__camera__path_8c.html#af78d8397fa3a12ca87ae281bdf990218" target="_top" xlink:title=" ">
<polygon fill="white" stroke="#666666" points="1394.5,-320.5 1302.5,-320.5 1302.5,-301.5 1394.5,-301.5 1394.5,-320.5"/>
<text text-anchor="middle" x="1348.5" y="-308.5" font-family="Helvetica,sans-Serif" font-size="10.00">func_80015C94</text>
</a>
</g>
</g>
<!-- Node1&#45;&gt;Node18 -->
<g id="edge21_Node000001_Node000018" class="edge">
<title>Node1&#45;&gt;Node18</title>
<g id="a_edge21_Node000001_Node000018"><a xlink:title=" ">
<path fill="none" stroke="#63b8ff" d="M1450.69,-300.01C1431.7,-302.08 1411.82,-304.23 1394.77,-306.09"/>
<polygon fill="#63b8ff" stroke="#63b8ff" points="1451.26,-303.47 1460.83,-298.91 1450.51,-296.51 1451.26,-303.47"/>
</a>
</g>
</g>
<!-- Node19 -->
<g id="Node000019" class="node">
<title>Node19</title>
<g id="a_Node000019"><a xlink:href="cpu__vehicles__camera__path_8c.html#acb51f46008c8a06197fc136c4f2802a9" target="_top" xlink:title=" ">
<polygon fill="white" stroke="#666666" points="1394,-283.5 1303,-283.5 1303,-264.5 1394,-264.5 1394,-283.5"/>
<text text-anchor="middle" x="1348.5" y="-271.5" font-family="Helvetica,sans-Serif" font-size="10.00">func_80016494</text>
</a>
</g>
</g>
<!-- Node1&#45;&gt;Node19 -->
<g id="edge23_Node000001_Node000019" class="edge">
<title>Node1&#45;&gt;Node19</title>
<g id="a_edge23_Node000001_Node000019"><a xlink:title=" ">
<path fill="none" stroke="#63b8ff" d="M1450.87,-284.43C1431.62,-282.45 1411.46,-280.37 1394.23,-278.6"/>
<polygon fill="#63b8ff" stroke="#63b8ff" points="1450.52,-287.91 1460.83,-285.45 1451.24,-280.95 1450.52,-287.91"/>
</a>
</g>
</g>
<!-- Node20 -->
<g id="Node000020" class="node">
<title>Node20</title>
<g id="a_Node000020"><a xlink:href="cpu__vehicles__camera__path_8c.html#aec654f7098be6c6ff382d5058263a76a" target="_top" xlink:title=" ">
<polygon fill="white" stroke="#666666" points="1394,-246.5 1303,-246.5 1303,-227.5 1394,-227.5 1394,-246.5"/>
<text text-anchor="middle" x="1348.5" y="-234.5" font-family="Helvetica,sans-Serif" font-size="10.00">func_800178F4</text>
</a>
</g>
</g>
<!-- Node1&#45;&gt;Node20 -->
<g id="edge25_Node000001_Node000020" class="edge">
<title>Node1&#45;&gt;Node20</title>
<g id="a_edge25_Node000001_Node000020"><a xlink:title=" ">
<path fill="none" stroke="#63b8ff" d="M1490.72,-278.82C1471.6,-271.6 1447.14,-262.77 1425,-256 1413.88,-252.6 1401.72,-249.34 1390.46,-246.51"/>
<polygon fill="#63b8ff" stroke="#63b8ff" points="1489.61,-282.14 1500.2,-282.43 1492.1,-275.6 1489.61,-282.14"/>
</a>
</g>
</g>
<!-- Node21 -->
<g id="Node000021" class="node">
<title>Node21</title>
<g id="a_Node000021"><a xlink:href="cpu__vehicles__camera__path_8c.html#a221c2d9c469606ad4ceb44b3feed0b2a" target="_top" xlink:title=" ">
<polygon fill="white" stroke="#666666" points="1394,-468.5 1303,-468.5 1303,-449.5 1394,-449.5 1394,-468.5"/>
<text text-anchor="middle" x="1348.5" y="-456.5" font-family="Helvetica,sans-Serif" font-size="10.00">func_800180F0</text>
</a>
</g>
</g>
<!-- Node1&#45;&gt;Node21 -->
<g id="edge27_Node000001_Node000021" class="edge">
<title>Node1&#45;&gt;Node21</title>
<g id="a_edge27_Node000001_Node000021"><a xlink:title=" ">
<path fill="none" stroke="#63b8ff" d="M1517.09,-311.46C1503.79,-343.67 1472.71,-407.79 1425,-441 1415.93,-447.31 1404.93,-451.43 1394.15,-454.11"/>
<polygon fill="#63b8ff" stroke="#63b8ff" points="1520.47,-312.44 1520.92,-301.85 1513.97,-309.85 1520.47,-312.44"/>
</a>
</g>
</g>
<!-- Node22 -->
<g id="Node000022" class="node">
<title>Node22</title>
<g id="a_Node000022"><a xlink:href="cpu__vehicles__camera__path_8c.html#a93d50445c0f98845ef112c4d057bc81a" target="_top" xlink:title=" ">
<polygon fill="white" stroke="#666666" points="1394,-431.5 1303,-431.5 1303,-412.5 1394,-412.5 1394,-431.5"/>
<text text-anchor="middle" x="1348.5" y="-419.5" font-family="Helvetica,sans-Serif" font-size="10.00">func_800188F4</text>
</a>
</g>
</g>
<!-- Node1&#45;&gt;Node22 -->
<g id="edge29_Node000001_Node000022" class="edge">
<title>Node1&#45;&gt;Node22</title>
<g id="a_edge29_Node000001_Node000022"><a xlink:title=" ">
<path fill="none" stroke="#63b8ff" d="M1513.54,-310.14C1497.4,-335.25 1464.78,-380.2 1425,-404 1415.75,-409.54 1404.91,-413.37 1394.37,-416.02"/>
<polygon fill="#63b8ff" stroke="#63b8ff" points="1516.57,-311.9 1518.91,-301.57 1510.63,-308.19 1516.57,-311.9"/>
</a>
</g>
</g>
<!-- Node23 -->
<g id="Node000023" class="node">
<title>Node23</title>
<g id="a_Node000023"><a xlink:href="cpu__vehicles__camera__path_8c.html#a81a2a6017420af697758903d74577445" target="_top" xlink:title=" ">
<polygon fill="white" stroke="#666666" points="1394.5,-394.5 1302.5,-394.5 1302.5,-375.5 1394.5,-375.5 1394.5,-394.5"/>
<text text-anchor="middle" x="1348.5" y="-382.5" font-family="Helvetica,sans-Serif" font-size="10.00">func_8001933C</text>
</a>
</g>
</g>
<!-- Node1&#45;&gt;Node23 -->
<g id="edge31_Node000001_Node000023" class="edge">
<title>Node1&#45;&gt;Node23</title>
<g id="a_edge31_Node000001_Node000023"><a xlink:title=" ">
<path fill="none" stroke="#63b8ff" d="M1507.24,-308.59C1488.48,-325.72 1456.88,-351.99 1425,-367 1415.61,-371.42 1405.04,-374.81 1394.85,-377.39"/>
<polygon fill="#63b8ff" stroke="#63b8ff" points="1509.76,-311.03 1514.69,-301.65 1504.98,-305.91 1509.76,-311.03"/>
</a>
</g>
</g>
<!-- Node24 -->
<g id="Node000024" class="node">
<title>Node24</title>
<g id="a_Node000024"><a xlink:href="vehicle__utils_8inc_8c.html#ac445f752c27e0b8245e0412bb6a76f4d" target="_top" xlink:title=" ">
<polygon fill="white" stroke="#666666" points="1425,-115.5 1272,-115.5 1272,-96.5 1425,-96.5 1425,-115.5"/>
<text text-anchor="middle" x="1348.5" y="-103.5" font-family="Helvetica,sans-Serif" font-size="10.00">handle_vehicle_interactions</text>
</a>
</g>
</g>
<!-- Node1&#45;&gt;Node24 -->
<g id="edge33_Node000001_Node000024" class="edge">
<title>Node1&#45;&gt;Node24</title>
<g id="a_edge33_Node000001_Node000024"><a xlink:title=" ">
<path fill="none" stroke="#63b8ff" d="M1515.29,-273.1C1499.97,-243.23 1466.79,-184.66 1425,-147 1409.93,-133.42 1389.56,-122.7 1373.78,-115.63"/>
<polygon fill="#63b8ff" stroke="#63b8ff" points="1512.33,-275.01 1519.94,-282.38 1518.59,-271.88 1512.33,-275.01"/>
</a>
</g>
</g>
<!-- Node3 -->
<g id="Node000003" class="node">
<title>Node3</title>
<g id="a_Node000003"><a xlink:href="cpu__vehicles__camera__path_8c.html#af0170dbecbb754e3e7c1ab190fa14c01" target="_top" xlink:title=" ">
<polygon fill="white" stroke="#666666" points="1026.5,-152.5 940.5,-152.5 940.5,-133.5 1026.5,-133.5 1026.5,-152.5"/>
<text text-anchor="middle" x="983.5" y="-140.5" font-family="Helvetica,sans-Serif" font-size="10.00">update_player</text>
</a>
</g>
</g>
<!-- Node2&#45;&gt;Node3 -->
<g id="edge2_Node000002_Node000003" class="edge">
<title>Node2&#45;&gt;Node3</title>
<g id="a_edge2_Node000002_Node000003"><a xlink:title=" ">
<path fill="none" stroke="#63b8ff" d="M1079.96,-204.55C1074.82,-202.91 1069.78,-201.07 1065,-199 1037.66,-187.16 1010.08,-165.34 995.37,-152.71"/>
<polygon fill="#63b8ff" stroke="#63b8ff" points="1079.34,-208.01 1089.92,-207.44 1081.3,-201.29 1079.34,-208.01"/>
</a>
</g>
</g>
<!-- Node4 -->
<g id="Node000004" class="node">
<title>Node4</title>
<g id="a_Node000004"><a xlink:href="cpu__vehicles__camera__path_8c.html#a0056485e80d615faffaf2715a906c294" target="_top" xlink:title=" ">
<polygon fill="white" stroke="#666666" points="902,-152.5 810,-152.5 810,-133.5 902,-133.5 902,-152.5"/>
<text text-anchor="middle" x="856" y="-140.5" font-family="Helvetica,sans-Serif" font-size="10.00">func_8001C14C</text>
</a>
</g>
</g>
<!-- Node3&#45;&gt;Node4 -->
<g id="edge3_Node000003_Node000004" class="edge">
<title>Node3&#45;&gt;Node4</title>
<g id="a_edge3_Node000003_Node000004"><a xlink:title=" ">
<path fill="none" stroke="#63b8ff" d="M930.09,-143C920.85,-143 911.29,-143 902.26,-143"/>
<polygon fill="#63b8ff" stroke="#63b8ff" points="930.36,-146.5 940.36,-143 930.36,-139.5 930.36,-146.5"/>
</a>
</g>
</g>
<!-- Node11 -->
<g id="Node000011" class="node">
<title>Node11</title>
<g id="a_Node000011"><a xlink:href="race__logic_8c.html#af3b28af56eee680540843d3bd6bd24ba" target="_top" xlink:title=" ">
<polygon fill="white" stroke="#666666" points="901.5,-189.5 810.5,-189.5 810.5,-170.5 901.5,-170.5 901.5,-189.5"/>
<text text-anchor="middle" x="856" y="-177.5" font-family="Helvetica,sans-Serif" font-size="10.00">func_8028F474</text>
</a>
</g>
</g>
<!-- Node3&#45;&gt;Node11 -->
<g id="edge10_Node000003_Node000011" class="edge">
<title>Node3&#45;&gt;Node11</title>
<g id="a_edge10_Node000003_Node000011"><a xlink:title=" ">
<path fill="none" stroke="#63b8ff" d="M940.22,-155.46C923.72,-160.33 905.09,-165.82 889.65,-170.38"/>
<polygon fill="#63b8ff" stroke="#63b8ff" points="941.58,-158.71 950.18,-152.53 939.6,-152 941.58,-158.71"/>
</a>
</g>
</g>
<!-- Node5 -->
<g id="Node000005" class="node">
<title>Node5</title>
<g id="a_Node000005"><a xlink:href="podium__ceremony__actors_8c.html#a7ea229c65f264670fc828b95e8321154" target="_top" xlink:title=" ">
<polygon fill="white" stroke="#666666" points="774,-170.5 640,-170.5 640,-151.5 774,-151.5 774,-170.5"/>
<text text-anchor="middle" x="707" y="-158.5" font-family="Helvetica,sans-Serif" font-size="10.00">podium_ceremony_loop</text>
</a>
</g>
</g>
<!-- Node4&#45;&gt;Node5 -->
<g id="edge4_Node000004_Node000005" class="edge">
<title>Node4&#45;&gt;Node5</title>
<g id="a_edge4_Node000004_Node000005"><a xlink:title=" ">
<path fill="none" stroke="#63b8ff" d="M799.74,-149.77C791.41,-150.79 782.76,-151.85 774.23,-152.89"/>
<polygon fill="#63b8ff" stroke="#63b8ff" points="800.2,-153.24 809.7,-148.55 799.34,-146.29 800.2,-153.24"/>
</a>
</g>
</g>
<!-- Node6 -->
<g id="Node000006" class="node">
<title>Node6</title>
<g id="a_Node000006"><a xlink:href="main_8c.html#ae04143ce8113cdafa007c642eb620bc8" target="_top" xlink:title=" ">
<polygon fill="white" stroke="#666666" points="604,-188.5 488,-188.5 488,-169.5 604,-169.5 604,-188.5"/>
<text text-anchor="middle" x="546" y="-176.5" font-family="Helvetica,sans-Serif" font-size="10.00">game_state_handler</text>
</a>
</g>
</g>
<!-- Node5&#45;&gt;Node6 -->
<g id="edge5_Node000005_Node000006" class="edge">
<title>Node5&#45;&gt;Node6</title>
<g id="a_edge5_Node000005_Node000006"><a xlink:title=" ">
<path fill="none" stroke="#63b8ff" d="M629.87,-169.62C621.24,-170.6 612.56,-171.58 604.24,-172.52"/>
<polygon fill="#63b8ff" stroke="#63b8ff" points="630.41,-173.08 639.95,-168.48 629.62,-166.12 630.41,-173.08"/>
</a>
</g>
</g>
<!-- Node7 -->
<g id="Node000007" class="node">
<title>Node7</title>
<g id="a_Node000007"><a xlink:href="main_8c.html#a633ed517e458daeb768f5361895dcac9" target="_top" xlink:title=" ">
<polygon fill="white" stroke="#666666" points="452,-188.5 339,-188.5 339,-169.5 452,-169.5 452,-188.5"/>
<text text-anchor="middle" x="395.5" y="-176.5" font-family="Helvetica,sans-Serif" font-size="10.00">thread5_game_loop</text>
</a>
</g>
</g>
<!-- Node6&#45;&gt;Node7 -->
<g id="edge6_Node000006_Node000007" class="edge">
<title>Node6&#45;&gt;Node7</title>
<g id="a_edge6_Node000006_Node000007"><a xlink:title=" ">
<path fill="none" stroke="#63b8ff" d="M477.42,-179C469.02,-179 460.5,-179 452.3,-179"/>
<polygon fill="#63b8ff" stroke="#63b8ff" points="477.59,-182.5 487.59,-179 477.59,-175.5 477.59,-182.5"/>
</a>
</g>
</g>
<!-- Node8 -->
<g id="Node000008" class="node">
<title>Node8</title>
<g id="a_Node000008"><a xlink:href="main_8c.html#a023b8f272e4efbd33f371e91ffff6b30" target="_top" xlink:title=" ">
<polygon fill="white" stroke="#666666" points="303,-188.5 217,-188.5 217,-169.5 303,-169.5 303,-188.5"/>
<text text-anchor="middle" x="260" y="-176.5" font-family="Helvetica,sans-Serif" font-size="10.00">thread3_video</text>
</a>
</g>
</g>
<!-- Node7&#45;&gt;Node8 -->
<g id="edge7_Node000007_Node000008" class="edge">
<title>Node7&#45;&gt;Node8</title>
<g id="a_edge7_Node000007_Node000008"><a xlink:title=" ">
<path fill="none" stroke="#63b8ff" d="M328.57,-179C319.94,-179 311.3,-179 303.21,-179"/>
<polygon fill="#63b8ff" stroke="#63b8ff" points="328.66,-182.5 338.66,-179 328.66,-175.5 328.66,-182.5"/>
</a>
</g>
</g>
<!-- Node9 -->
<g id="Node000009" class="node">
<title>Node9</title>
<g id="a_Node000009"><a xlink:href="main_8c.html#a1e35d2b842121e6aea373f09381616e5" target="_top" xlink:title=" ">
<polygon fill="white" stroke="#666666" points="181,-188.5 104,-188.5 104,-169.5 181,-169.5 181,-188.5"/>
<text text-anchor="middle" x="142.5" y="-176.5" font-family="Helvetica,sans-Serif" font-size="10.00">thread1_idle</text>
</a>
</g>
</g>
<!-- Node8&#45;&gt;Node9 -->
<g id="edge8_Node000008_Node000009" class="edge">
<title>Node8&#45;&gt;Node9</title>
<g id="a_edge8_Node000008_Node000009"><a xlink:title=" ">
<path fill="none" stroke="#63b8ff" d="M206.9,-179C198.2,-179 189.33,-179 181.09,-179"/>
<polygon fill="#63b8ff" stroke="#63b8ff" points="206.98,-182.5 216.98,-179 206.98,-175.5 206.98,-182.5"/>
</a>
</g>
</g>
<!-- Node10 -->
<g id="Node000010" class="node">
<title>Node10</title>
<g id="a_Node000010"><a xlink:href="main_8c.html#a4f87d43525fe95f60ea92bc8a3b70e62" target="_top" xlink:title=" ">
<polygon fill="white" stroke="#666666" points="68,-188.5 0,-188.5 0,-169.5 68,-169.5 68,-188.5"/>
<text text-anchor="middle" x="34" y="-176.5" font-family="Helvetica,sans-Serif" font-size="10.00">main_func</text>
</a>
</g>
</g>
<!-- Node9&#45;&gt;Node10 -->
<g id="edge9_Node000009_Node000010" class="edge">
<title>Node9&#45;&gt;Node10</title>
<g id="a_edge9_Node000009_Node000010"><a xlink:title=" ">
<path fill="none" stroke="#63b8ff" d="M93.95,-179C85.29,-179 76.44,-179 68.31,-179"/>
<polygon fill="#63b8ff" stroke="#63b8ff" points="93.95,-182.5 103.95,-179 93.95,-175.5 93.95,-182.5"/>
</a>
</g>
</g>
<!-- Node12 -->
<g id="Node000012" class="node">
<title>Node12</title>
<g id="a_Node000012"><a xlink:href="main_8c.html#afff87ffcbfee4f1f37d443110aa7b52a" target="_top" xlink:title=" ">
<polygon fill="white" stroke="#666666" points="753,-216.5 661,-216.5 661,-197.5 753,-197.5 753,-216.5"/>
<text text-anchor="middle" x="707" y="-204.5" font-family="Helvetica,sans-Serif" font-size="10.00">race_logic_loop</text>
</a>
</g>
</g>
<!-- Node11&#45;&gt;Node12 -->
<g id="edge11_Node000011_Node000012" class="edge">
<title>Node11&#45;&gt;Node12</title>
<g id="a_edge11_Node000011_Node000012"><a xlink:title=" ">
<path fill="none" stroke="#63b8ff" d="M800.46,-190.02C784.88,-192.88 768.07,-195.97 753.11,-198.71"/>
<polygon fill="#63b8ff" stroke="#63b8ff" points="801.29,-193.42 810.5,-188.17 800.03,-186.54 801.29,-193.42"/>
</a>
</g>
</g>
<!-- Node12&#45;&gt;Node6 -->
<g id="edge12_Node000012_Node000006" class="edge">
<title>Node12&#45;&gt;Node6</title>
<g id="a_edge12_Node000012_Node000006"><a xlink:title=" ">
<path fill="none" stroke="#63b8ff" d="M651,-197.32C634.81,-194.46 617.12,-191.35 600.99,-188.51"/>
<polygon fill="#63b8ff" stroke="#63b8ff" points="650.41,-200.76 660.86,-199.05 651.62,-193.87 650.41,-200.76"/>
</a>
</g>
</g>
<!-- Node13&#45;&gt;Node3 -->
<g id="edge14_Node000013_Node000003" class="edge">
<title>Node13&#45;&gt;Node3</title>
<g id="a_edge14_Node000013_Node000003"><a xlink:title=" ">
<path fill="none" stroke="#63b8ff" d="M1094.27,-168.42C1084.51,-166.32 1074.45,-164.12 1065,-162 1051.69,-159.01 1037.17,-155.63 1024.18,-152.55"/>
<polygon fill="#63b8ff" stroke="#63b8ff" points="1093.78,-171.89 1104.29,-170.56 1095.24,-165.05 1093.78,-171.89"/>
</a>
</g>
</g>
<!-- Node15 -->
<g id="Node000015" class="node">
<title>Node15</title>
<g id="a_Node000015"><a xlink:href="cpu__vehicles__camera__path_8c.html#adac9fce1255b48eabba9843067498e54" target="_top" xlink:title=" ">
<polygon fill="white" stroke="#666666" points="1196.5,-339.5 1104.5,-339.5 1104.5,-320.5 1196.5,-320.5 1196.5,-339.5"/>
<text text-anchor="middle" x="1150.5" y="-327.5" font-family="Helvetica,sans-Serif" font-size="10.00">func_8001A588</text>
</a>
</g>
</g>
<!-- Node14&#45;&gt;Node15 -->
<g id="edge16_Node000014_Node000015" class="edge">
<title>Node14&#45;&gt;Node15</title>
<g id="a_edge16_Node000014_Node000015"><a xlink:title=" ">
<path fill="none" stroke="#63b8ff" d="M1291.7,-342.88C1261.62,-340.11 1224.99,-336.75 1196.71,-334.15"/>
<polygon fill="#63b8ff" stroke="#63b8ff" points="1291.76,-346.4 1302.04,-343.83 1292.4,-339.43 1291.76,-346.4"/>
</a>
</g>
</g>
<!-- Node16 -->
<g id="Node000016" class="node">
<title>Node16</title>
<g id="a_Node000016"><a xlink:href="camera_8c.html#aa9c99b4c8605e42825107adeed2c382a" target="_top" xlink:title=" ">
<polygon fill="white" stroke="#666666" points="1029,-264.5 938,-264.5 938,-245.5 1029,-245.5 1029,-264.5"/>
<text text-anchor="middle" x="983.5" y="-252.5" font-family="Helvetica,sans-Serif" font-size="10.00">func_8001EE98</text>
</a>
</g>
</g>
<!-- Node15&#45;&gt;Node16 -->
<g id="edge17_Node000015_Node000016" class="edge">
<title>Node15&#45;&gt;Node16</title>
<g id="a_edge17_Node000015_Node000016"><a xlink:title=" ">
<path fill="none" stroke="#63b8ff" d="M1119.1,-316.18C1086.15,-301.21 1034.44,-277.7 1005.65,-264.61"/>
<polygon fill="#63b8ff" stroke="#63b8ff" points="1117.71,-319.4 1128.27,-320.35 1120.61,-313.02 1117.71,-319.4"/>
</a>
</g>
</g>
<!-- Node16&#45;&gt;Node12 -->
<g id="edge20_Node000016_Node000012" class="edge">
<title>Node16&#45;&gt;Node12</title>
<g id="a_edge20_Node000016_Node000012"><a xlink:title=" ">
<path fill="none" stroke="#63b8ff" d="M927.65,-251.31C893.58,-248.44 848.99,-243.63 810,-236 784.89,-231.08 756.97,-222.96 736.71,-216.55"/>
<polygon fill="#63b8ff" stroke="#63b8ff" points="927.62,-254.82 937.87,-252.14 928.19,-247.85 927.62,-254.82"/>
</a>
</g>
</g>
<!-- Node17 -->
<g id="Node000017" class="node">
<title>Node17</title>
<g id="a_Node000017"><a xlink:href="race__logic_8c.html#a3189893b0ea5d4a7b1d679edc52d78ed" target="_top" xlink:title=" ">
<polygon fill="white" stroke="#666666" points="902,-226.5 810,-226.5 810,-207.5 902,-207.5 902,-226.5"/>
<text text-anchor="middle" x="856" y="-214.5" font-family="Helvetica,sans-Serif" font-size="10.00">func_80290B14</text>
</a>
</g>
</g>
<!-- Node16&#45;&gt;Node17 -->
<g id="edge18_Node000016_Node000017" class="edge">
<title>Node16&#45;&gt;Node17</title>
<g id="a_edge18_Node000016_Node000017"><a xlink:title=" ">
<path fill="none" stroke="#63b8ff" d="M941.1,-242.46C924.03,-237.3 904.56,-231.4 888.66,-226.59"/>
<polygon fill="#63b8ff" stroke="#63b8ff" points="940.25,-245.86 950.83,-245.41 942.27,-239.16 940.25,-245.86"/>
</a>
</g>
</g>
<!-- Node17&#45;&gt;Node12 -->
<g id="edge19_Node000017_Node000012" class="edge">
<title>Node17&#45;&gt;Node12</title>
<g id="a_edge19_Node000017_Node000012"><a xlink:title=" ">
<path fill="none" stroke="#63b8ff" d="M799.34,-213.21C784.09,-212.18 767.74,-211.06 753.15,-210.07"/>
<polygon fill="#63b8ff" stroke="#63b8ff" points="799.48,-216.73 809.7,-213.92 799.96,-209.75 799.48,-216.73"/>
</a>
</g>
</g>
<!-- Node18&#45;&gt;Node15 -->
<g id="edge22_Node000018_Node000015" class="edge">
<title>Node18&#45;&gt;Node15</title>
<g id="a_edge22_Node000018_Node000015"><a xlink:title=" ">
<path fill="none" stroke="#63b8ff" d="M1291.7,-316.41C1261.62,-319.32 1224.99,-322.88 1196.71,-325.62"/>
<polygon fill="#63b8ff" stroke="#63b8ff" points="1292.43,-319.86 1302.04,-315.41 1291.75,-312.89 1292.43,-319.86"/>
</a>
</g>
</g>
<!-- Node19&#45;&gt;Node15 -->
<g id="edge24_Node000019_Node000015" class="edge">
<title>Node19&#45;&gt;Node15</title>
<g id="a_edge24_Node000019_Node000015"><a xlink:title=" ">
<path fill="none" stroke="#63b8ff" d="M1298.13,-286.04C1289.4,-288.27 1280.42,-290.65 1272,-293 1240.8,-301.71 1205.4,-312.71 1181.09,-320.45"/>
<polygon fill="#63b8ff" stroke="#63b8ff" points="1298.99,-289.43 1307.82,-283.58 1297.27,-282.64 1298.99,-289.43"/>
</a>
</g>
</g>
<!-- Node20&#45;&gt;Node15 -->
<g id="edge26_Node000020_Node000015" class="edge">
<title>Node20&#45;&gt;Node15</title>
<g id="a_edge26_Node000020_Node000015"><a xlink:title=" ">
<path fill="none" stroke="#63b8ff" d="M1293.07,-248.57C1285.87,-250.72 1278.68,-253.19 1272,-256 1229.92,-273.72 1185.37,-304.76 1164.16,-320.4"/>
<polygon fill="#63b8ff" stroke="#63b8ff" points="1294.16,-251.91 1302.85,-245.85 1292.28,-245.16 1294.16,-251.91"/>
</a>
</g>
</g>
<!-- Node21&#45;&gt;Node15 -->
<g id="edge28_Node000021_Node000015" class="edge">
<title>Node21&#45;&gt;Node15</title>
<g id="a_edge28_Node000021_Node000015"><a xlink:title=" ">
<path fill="none" stroke="#63b8ff" d="M1292.78,-449.49C1285.58,-447.23 1278.46,-444.44 1272,-441 1221.79,-414.27 1176.48,-361.56 1159.07,-339.77"/>
<polygon fill="#63b8ff" stroke="#63b8ff" points="1292.03,-452.92 1302.61,-452.26 1293.93,-446.18 1292.03,-452.92"/>
</a>
</g>
</g>
<!-- Node22&#45;&gt;Node15 -->
<g id="edge30_Node000022_Node000015" class="edge">
<title>Node22&#45;&gt;Node15</title>
<g id="a_edge30_Node000022_Node000015"><a xlink:title=" ">
<path fill="none" stroke="#63b8ff" d="M1293.07,-411.22C1285.87,-409.16 1278.68,-406.76 1272,-404 1229.81,-386.54 1185.31,-355.39 1164.14,-339.66"/>
<polygon fill="#63b8ff" stroke="#63b8ff" points="1292.28,-414.63 1302.84,-413.82 1294.08,-407.87 1292.28,-414.63"/>
</a>
</g>
</g>
<!-- Node23&#45;&gt;Node15 -->
<g id="edge32_Node000023_Node000015" class="edge">
<title>Node23&#45;&gt;Node15</title>
<g id="a_edge32_Node000023_Node000015"><a xlink:title=" ">
<path fill="none" stroke="#63b8ff" d="M1295.55,-373.08C1287.64,-371.13 1279.59,-369.07 1272,-367 1240.75,-358.49 1205.36,-347.45 1181.06,-339.65"/>
<polygon fill="#63b8ff" stroke="#63b8ff" points="1294.9,-376.52 1305.45,-375.48 1296.55,-369.72 1294.9,-376.52"/>
</a>
</g>
</g>
<!-- Node25 -->
<g id="Node000025" class="node">
<title>Node25</title>
<g id="a_Node000025"><a xlink:href="vehicle__utils_8inc_8c.html#a3cb961a9e985cfab5a7398350163c445" target="_top" xlink:title=" ">
<polygon fill="white" stroke="#666666" points="1236,-152.5 1065,-152.5 1065,-133.5 1236,-133.5 1236,-152.5"/>
<text text-anchor="middle" x="1150.5" y="-140.5" font-family="Helvetica,sans-Serif" font-size="10.00">handle_box_trucks_interactions</text>
</a>
</g>
</g>
<!-- Node24&#45;&gt;Node25 -->
<g id="edge34_Node000024_Node000025" class="edge">
<title>Node24&#45;&gt;Node25</title>
<g id="a_edge34_Node000024_Node000025"><a xlink:title=" ">
<path fill="none" stroke="#63b8ff" d="M1286.86,-117.45C1259.69,-122.58 1228.02,-128.56 1202.14,-133.44"/>
<polygon fill="#63b8ff" stroke="#63b8ff" points="1287.85,-120.82 1297.03,-115.53 1286.55,-113.94 1287.85,-120.82"/>
</a>
</g>
</g>
<!-- Node26 -->
<g id="Node000026" class="node">
<title>Node26</title>
<g id="a_Node000026"><a xlink:href="vehicle__utils_8inc_8c.html#a55d7a838a39f7210a455929dad2e4d8d" target="_top" xlink:title=" ">
<polygon fill="white" stroke="#666666" points="1219.5,-115.5 1081.5,-115.5 1081.5,-96.5 1219.5,-96.5 1219.5,-115.5"/>
<text text-anchor="middle" x="1150.5" y="-103.5" font-family="Helvetica,sans-Serif" font-size="10.00">handle_cars_interactions</text>
</a>
</g>
</g>
<!-- Node24&#45;&gt;Node26 -->
<g id="edge36_Node000024_Node000026" class="edge">
<title>Node24&#45;&gt;Node26</title>
<g id="a_edge36_Node000024_Node000026"><a xlink:title=" ">
<path fill="none" stroke="#63b8ff" d="M1261.59,-106C1247.58,-106 1233.23,-106 1219.71,-106"/>
<polygon fill="#63b8ff" stroke="#63b8ff" points="1261.72,-109.5 1271.72,-106 1261.72,-102.5 1261.72,-109.5"/>
</a>
</g>
</g>
<!-- Node27 -->
<g id="Node000027" class="node">
<title>Node27</title>
<g id="a_Node000027"><a xlink:href="vehicle__utils_8inc_8c.html#a8b004015e3764ea00bdd870dcf2a8513" target="_top" xlink:title=" ">
<polygon fill="white" stroke="#666666" points="1210.5,-78 1090.5,-78 1090.5,-48 1210.5,-48 1210.5,-78"/>
<text text-anchor="start" x="1098.5" y="-66" font-family="Helvetica,sans-Serif" font-size="10.00">handle_school_buses</text>
<text text-anchor="middle" x="1150.5" y="-55" font-family="Helvetica,sans-Serif" font-size="10.00">_interactions</text>
</a>
</g>
</g>
<!-- Node24&#45;&gt;Node27 -->
<g id="edge38_Node000024_Node000027" class="edge">
<title>Node24&#45;&gt;Node27</title>
<g id="a_edge38_Node000024_Node000027"><a xlink:title=" ">
<path fill="none" stroke="#63b8ff" d="M1294.05,-94.27C1268.3,-88.62 1237.34,-81.83 1210.86,-76.02"/>
<polygon fill="#63b8ff" stroke="#63b8ff" points="1293.48,-97.73 1304,-96.46 1294.98,-90.9 1293.48,-97.73"/>
</a>
</g>
</g>
<!-- Node28 -->
<g id="Node000028" class="node">
<title>Node28</title>
<g id="a_Node000028"><a xlink:href="vehicle__utils_8inc_8c.html#a24b66f495465b4d4260c806c2321e575" target="_top" xlink:title=" ">
<polygon fill="white" stroke="#666666" points="1211,-30 1090,-30 1090,0 1211,0 1211,-30"/>
<text text-anchor="start" x="1098" y="-18" font-family="Helvetica,sans-Serif" font-size="10.00">handle_tanker_trucks</text>
<text text-anchor="middle" x="1150.5" y="-7" font-family="Helvetica,sans-Serif" font-size="10.00">_interactions</text>
</a>
</g>
</g>
<!-- Node24&#45;&gt;Node28 -->
<g id="edge40_Node000024_Node000028" class="edge">
<title>Node24&#45;&gt;Node28</title>
<g id="a_edge40_Node000024_Node000028"><a xlink:title=" ">
<path fill="none" stroke="#63b8ff" d="M1325.83,-90.6C1304.02,-75.69 1268.96,-53.28 1236,-39 1228.16,-35.6 1219.71,-32.55 1211.29,-29.84"/>
<polygon fill="#63b8ff" stroke="#63b8ff" points="1323.84,-93.48 1334.05,-96.3 1327.83,-87.73 1323.84,-93.48"/>
</a>
</g>
</g>
<!-- Node25&#45;&gt;Node3 -->
<g id="edge35_Node000025_Node000003" class="edge">
<title>Node25&#45;&gt;Node3</title>
<g id="a_edge35_Node000025_Node000003"><a xlink:title=" ">
<path fill="none" stroke="#63b8ff" d="M1054.48,-143C1044.85,-143 1035.45,-143 1026.83,-143"/>
<polygon fill="#63b8ff" stroke="#63b8ff" points="1054.58,-146.5 1064.58,-143 1054.58,-139.5 1054.58,-146.5"/>
</a>
</g>
</g>
<!-- Node26&#45;&gt;Node3 -->
<g id="edge37_Node000026_Node000003" class="edge">
<title>Node26&#45;&gt;Node3</title>
<g id="a_edge37_Node000026_Node000003"><a xlink:title=" ">
<path fill="none" stroke="#63b8ff" d="M1097.16,-117.74C1074.38,-122.85 1048.04,-128.75 1026.56,-133.57"/>
<polygon fill="#63b8ff" stroke="#63b8ff" points="1098.02,-121.13 1107.01,-115.53 1096.48,-114.3 1098.02,-121.13"/>
</a>
</g>
</g>
<!-- Node27&#45;&gt;Node3 -->
<g id="edge39_Node000027_Node000003" class="edge">
<title>Node27&#45;&gt;Node3</title>
<g id="a_edge39_Node000027_Node000003"><a xlink:title=" ">
<path fill="none" stroke="#63b8ff" d="M1080.68,-81.38C1075.29,-83.41 1070.01,-85.62 1065,-88 1038.55,-100.57 1011.09,-121.27 996.06,-133.37"/>
<polygon fill="#63b8ff" stroke="#63b8ff" points="1082.19,-84.55 1090.43,-77.9 1079.84,-77.96 1082.19,-84.55"/>
</a>
</g>
</g>
<!-- Node28&#45;&gt;Node3 -->
<g id="edge41_Node000028_Node000003" class="edge">
<title>Node28&#45;&gt;Node3</title>
<g id="a_edge41_Node000028_Node000003"><a xlink:title=" ">
<path fill="none" stroke="#63b8ff" d="M1080,-30.73C1074.73,-33.11 1069.66,-35.85 1065,-39 1027.55,-64.32 999.87,-112.69 989.26,-133.3"/>
<polygon fill="#63b8ff" stroke="#63b8ff" points="1081.69,-33.82 1089.64,-26.81 1079.06,-27.33 1081.69,-33.82"/>
</a>
</g>
</g>
</g>
</svg>

<g id="navigator" transform="translate(0 0)" fill="#404254">
  <rect fill="#f2f5e9" fill-opacity="0.5" stroke="#606060" stroke-width=".5" x="0" y="0" width="60" height="60"/>
  <use id="zoomplus" xlink:href="#zoomPlus" x="17" y="9" onmousedown="handleZoom(evt,'in')"/>
  <use id="zoomminus" xlink:href="#zoomMin" x="42" y="9" onmousedown="handleZoom(evt,'out')"/>
  <use id="reset" xlink:href="#resetDef" x="30" y="36" onmousedown="handleReset()"/>
   <use id="arrowup" xlink:href="#arrowUp" x="0" y="0" onmousedown="handlePan(0,-1)"/>
  <use id="arrowright" xlink:href="#arrowRight" x="0" y="0" onmousedown="handlePan(1,0)"/>
  <use id="arrowdown" xlink:href="#arrowDown" x="0" y="0" onmousedown="handlePan(0,1)"/>
  <use id="arrowleft" xlink:href="#arrowLeft" x="0" y="0" onmousedown="handlePan(-1,0)"/>
</g>
<svg viewBox="0 0 15 15" width="100%" height="30px" preserveAspectRatio="xMaxYMin meet">
 <g id="arrow_out" transform="scale(0.3 0.3)">
  <a xlink:href="cpu__vehicles__camera__path_8c_ab8bc40fe4e009791986ce6c008160879_icgraph_org.svg" target="_base">
   <rect id="button" ry="5" rx="5" y="6" x="6" height="38" width="38"
        fill="#f2f5e9" fill-opacity="0.5" stroke="#606060" stroke-width="1.0"/>
   <path id="arrow"
     d="M 11.500037,31.436501 C 11.940474,20.09759 22.043105,11.32322 32.158766,21.979434 L 37.068811,17.246167 C 37.068811,17.246167 37.088388,32 37.088388,32 L 22.160133,31.978069 C 22.160133,31.978069 26.997745,27.140456 26.997745,27.140456 C 18.528582,18.264221 13.291696,25.230495 11.500037,31.436501 z"
     style="fill:#404040;"/>
  </a>
 </g>
</svg>

<style type='text/css'>
<![CDATA[
[data-mouse-over-selected='false'] { opacity: 0.7; }
[data-mouse-over-selected='true']  { opacity: 1.0; }
]]>
</style>
<script type="application/ecmascript"><![CDATA[
document.addEventListener('DOMContentLoaded', (event) => {
  highlightEdges();
  highlightAdjacentNodes();
});
]]></script>
</svg>
