<?xml version="1.0" encoding="UTF-8" standalone="no"?>
<!DOCTYPE svg PUBLIC "-//W3C//DTD SVG 1.1//EN"
 "http://www.w3.org/Graphics/SVG/1.1/DTD/svg11.dtd">
<!-- Generated by graphviz version 2.43.0 (0)
 -->
<!-- Title: handle_school_buses_interactions Pages: 1 -->
<svg width="915pt" height="212pt"
 viewBox="0.00 0.00 915.00 212.00" xmlns="http://www.w3.org/2000/svg" xmlns:xlink="http://www.w3.org/1999/xlink">
<g id="graph0" class="graph" transform="scale(1 1) rotate(0) translate(4 208)">
<title>handle_school_buses_interactions</title>
<!-- Node1 -->
<g id="Node000001" class="node">
<title>Node1</title>
<g id="a_Node000001"><a xlink:title=" ">
<polygon fill="#999999" stroke="#666666" points="120,-116.5 0,-116.5 0,-86.5 120,-86.5 120,-116.5"/>
<text text-anchor="start" x="8" y="-104.5" font-family="Helvetica,sans-Serif" font-size="10.00">handle_school_buses</text>
<text text-anchor="middle" x="60" y="-93.5" font-family="Helvetica,sans-Serif" font-size="10.00">_interactions</text>
</a>
</g>
</g>
<!-- Node2 -->
<g id="Node000002" class="node">
<title>Node2</title>
<g id="a_Node000002"><a xlink:href="vehicle__utils_8inc_8c.html#ac445f752c27e0b8245e0412bb6a76f4d" target="_top" xlink:title=" ">
<polygon fill="white" stroke="#666666" points="309,-111 156,-111 156,-92 309,-92 309,-111"/>
<text text-anchor="middle" x="232.5" y="-99" font-family="Helvetica,sans-Serif" font-size="10.00">handle_vehicle_interactions</text>
</a>
</g>
</g>
<!-- Node1&#45;&gt;Node2 -->
<g id="edge1_Node000001_Node000002" class="edge">
<title>Node1&#45;&gt;Node2</title>
<g id="a_edge1_Node000001_Node000002"><a xlink:title=" ">
<path fill="none" stroke="#63b8ff" d="M120.15,-101.5C128.45,-101.5 137.11,-101.5 145.78,-101.5"/>
<polygon fill="#63b8ff" stroke="#63b8ff" points="145.93,-105 155.93,-101.5 145.93,-98 145.93,-105"/>
</a>
</g>
</g>
<!-- Node3 -->
<g id="Node000003" class="node">
<title>Node3</title>
<g id="a_Node000003"><a xlink:href="external_8c.html#acb60983213d09ee795e80ca3c8b5975e" target="_top" xlink:title=" ">
<polygon fill="white" stroke="#666666" points="455.5,-204 363.5,-204 363.5,-185 455.5,-185 455.5,-204"/>
<text text-anchor="middle" x="409.5" y="-192" font-family="Helvetica,sans-Serif" font-size="10.00">func_800C98B8</text>
</a>
</g>
</g>
<!-- Node2&#45;&gt;Node3 -->
<g id="edge2_Node000002_Node000003" class="edge">
<title>Node2&#45;&gt;Node3</title>
<g id="a_edge2_Node000002_Node000003"><a xlink:title=" ">
<path fill="none" stroke="#63b8ff" d="M245.12,-111.16C264.61,-126.93 305.63,-158.25 345,-176.5 349.09,-178.39 353.42,-180.13 357.82,-181.72"/>
<polygon fill="#63b8ff" stroke="#63b8ff" points="356.9,-185.1 367.5,-184.94 359.12,-178.46 356.9,-185.1"/>
</a>
</g>
</g>
<!-- Node6 -->
<g id="Node000006" class="node">
<title>Node6</title>
<g id="a_Node000006"><a xlink:href="external_8c.html#a903d1c248a30cd68262a6833b9c0b112" target="_top" xlink:title=" ">
<polygon fill="white" stroke="#666666" points="456,-167 363,-167 363,-148 456,-148 456,-167"/>
<text text-anchor="middle" x="409.5" y="-155" font-family="Helvetica,sans-Serif" font-size="10.00">func_800C9D80</text>
</a>
</g>
</g>
<!-- Node2&#45;&gt;Node6 -->
<g id="edge5_Node000002_Node000006" class="edge">
<title>Node2&#45;&gt;Node6</title>
<g id="a_edge5_Node000002_Node000006"><a xlink:title=" ">
<path fill="none" stroke="#63b8ff" d="M260.41,-111.11C282.91,-119.04 315.91,-130.43 345,-139.5 351.03,-141.38 357.41,-143.29 363.7,-145.12"/>
<polygon fill="#63b8ff" stroke="#63b8ff" points="362.89,-148.53 373.47,-147.92 364.82,-141.8 362.89,-148.53"/>
</a>
</g>
</g>
<!-- Node7 -->
<g id="Node000007" class="node">
<title>Node7</title>
<g id="a_Node000007"><a xlink:href="external_8c.html#a73831bcbe259500206651a0b4702be9f" target="_top" xlink:title=" ">
<polygon fill="white" stroke="#666666" points="455.5,-130 363.5,-130 363.5,-111 455.5,-111 455.5,-130"/>
<text text-anchor="middle" x="409.5" y="-118" font-family="Helvetica,sans-Serif" font-size="10.00">func_800C9EF4</text>
</a>
</g>
</g>
<!-- Node2&#45;&gt;Node7 -->
<g id="edge8_Node000002_Node000007" class="edge">
<title>Node2&#45;&gt;Node7</title>
<g id="a_edge8_Node000002_Node000007"><a xlink:title=" ">
<path fill="none" stroke="#63b8ff" d="M309.24,-109.72C324.11,-111.34 339.43,-113 353.46,-114.52"/>
<polygon fill="#63b8ff" stroke="#63b8ff" points="353.11,-118.01 363.43,-115.61 353.86,-111.05 353.11,-118.01"/>
</a>
</g>
</g>
<!-- Node15 -->
<g id="Node000015" class="node">
<title>Node15</title>
<g id="a_Node000015"><a xlink:href="cpu__vehicles__camera__path_8c.html#a692e6c62c1044979174afaf6abc83b8e" target="_top" xlink:title=" ">
<polygon fill="white" stroke="#666666" points="474,-93 345,-93 345,-74 474,-74 474,-93"/>
<text text-anchor="middle" x="409.5" y="-81" font-family="Helvetica,sans-Serif" font-size="10.00">is_collide_with_vehicle</text>
</a>
</g>
</g>
<!-- Node2&#45;&gt;Node15 -->
<g id="edge16_Node000002_Node000015" class="edge">
<title>Node2&#45;&gt;Node15</title>
<g id="a_edge16_Node000002_Node000015"><a xlink:title=" ">
<path fill="none" stroke="#63b8ff" d="M309.24,-93.71C317.71,-92.84 326.33,-91.95 334.78,-91.08"/>
<polygon fill="#63b8ff" stroke="#63b8ff" points="335.38,-94.54 344.97,-90.03 334.67,-87.58 335.38,-94.54"/>
</a>
</g>
</g>
<!-- Node17 -->
<g id="Node000017" class="node">
<title>Node17</title>
<g id="a_Node000017"><a xlink:href="cpu__vehicles__camera__path_8c.html#ab8bc40fe4e009791986ce6c008160879" target="_top" xlink:title=" ">
<polygon fill="white" stroke="#666666" points="474,-56 345,-56 345,-37 474,-37 474,-56"/>
<text text-anchor="middle" x="409.5" y="-44" font-family="Helvetica,sans-Serif" font-size="10.00">is_path_point_in_range</text>
</a>
</g>
</g>
<!-- Node2&#45;&gt;Node17 -->
<g id="edge18_Node000002_Node000017" class="edge">
<title>Node2&#45;&gt;Node17</title>
<g id="a_edge18_Node000002_Node000017"><a xlink:title=" ">
<path fill="none" stroke="#63b8ff" d="M262.79,-91.85C285.25,-84.5 317.03,-74.2 345,-65.5 351.95,-63.34 359.34,-61.09 366.53,-58.92"/>
<polygon fill="#63b8ff" stroke="#63b8ff" points="367.58,-62.26 376.15,-56.03 365.57,-55.55 367.58,-62.26"/>
</a>
</g>
</g>
<!-- Node18 -->
<g id="Node000018" class="node">
<title>Node18</title>
<g id="a_Node000018"><a xlink:href="math__util_8c.html#a151b63b8adf9af7e4054b3b84bd226dc" target="_top" xlink:title=" ">
<polygon fill="white" stroke="#666666" points="445.5,-19 373.5,-19 373.5,0 445.5,0 445.5,-19"/>
<text text-anchor="middle" x="409.5" y="-7" font-family="Helvetica,sans-Serif" font-size="10.00">random_int</text>
</a>
</g>
</g>
<!-- Node2&#45;&gt;Node18 -->
<g id="edge19_Node000002_Node000018" class="edge">
<title>Node2&#45;&gt;Node18</title>
<g id="a_edge19_Node000002_Node000018"><a xlink:title=" ">
<path fill="none" stroke="#63b8ff" d="M245.52,-91.93C265.24,-76.63 306.19,-46.55 345,-28.5 350.82,-25.79 357.12,-23.36 363.41,-21.22"/>
<polygon fill="#63b8ff" stroke="#63b8ff" points="364.76,-24.46 373.22,-18.09 362.63,-17.8 364.76,-24.46"/>
</a>
</g>
</g>
<!-- Node4 -->
<g id="Node000004" class="node">
<title>Node4</title>
<g id="a_Node000004"><a xlink:href="external_8c.html#a747de0be4005b4b29150d5c068564b7d" target="_top" xlink:title=" ">
<polygon fill="white" stroke="#666666" points="602,-204 510,-204 510,-185 602,-185 602,-204"/>
<text text-anchor="middle" x="556" y="-192" font-family="Helvetica,sans-Serif" font-size="10.00">func_800C1C88</text>
</a>
</g>
</g>
<!-- Node3&#45;&gt;Node4 -->
<g id="edge3_Node000003_Node000004" class="edge">
<title>Node3&#45;&gt;Node4</title>
<g id="a_edge3_Node000003_Node000004"><a xlink:title=" ">
<path fill="none" stroke="#63b8ff" d="M455.82,-194.5C469.68,-194.5 485.07,-194.5 499.52,-194.5"/>
<polygon fill="#63b8ff" stroke="#63b8ff" points="499.84,-198 509.84,-194.5 499.84,-191 499.84,-198"/>
</a>
</g>
</g>
<!-- Node5 -->
<g id="Node000005" class="node">
<title>Node5</title>
<g id="a_Node000005"><a xlink:href="external_8c.html#a475cff796211891556f52877cd8e9b9e" target="_top" xlink:title=" ">
<polygon fill="white" stroke="#666666" points="592,-167 520,-167 520,-148 592,-148 592,-167"/>
<text text-anchor="middle" x="556" y="-155" font-family="Helvetica,sans-Serif" font-size="10.00">play_sound</text>
</a>
</g>
</g>
<!-- Node3&#45;&gt;Node5 -->
<g id="edge4_Node000003_Node000005" class="edge">
<title>Node3&#45;&gt;Node5</title>
<g id="a_edge4_Node000003_Node000005"><a xlink:title=" ">
<path fill="none" stroke="#63b8ff" d="M447.71,-184.97C466.74,-180.1 490.05,-174.13 510.07,-169"/>
<polygon fill="#63b8ff" stroke="#63b8ff" points="511.08,-172.36 519.9,-166.49 509.35,-165.58 511.08,-172.36"/>
</a>
</g>
</g>
<!-- Node6&#45;&gt;Node4 -->
<g id="edge6_Node000006_Node000004" class="edge">
<title>Node6&#45;&gt;Node4</title>
<g id="a_edge6_Node000006_Node000004"><a xlink:title=" ">
<path fill="none" stroke="#63b8ff" d="M447.71,-167.03C466.01,-171.71 488.27,-177.41 507.76,-182.4"/>
<polygon fill="#63b8ff" stroke="#63b8ff" points="507.11,-185.85 517.66,-184.94 508.84,-179.07 507.11,-185.85"/>
</a>
</g>
</g>
<!-- Node6&#45;&gt;Node5 -->
<g id="edge7_Node000006_Node000005" class="edge">
<title>Node6&#45;&gt;Node5</title>
<g id="a_edge7_Node000006_Node000005"><a xlink:title=" ">
<path fill="none" stroke="#63b8ff" d="M456.22,-157.5C473.2,-157.5 492.45,-157.5 509.42,-157.5"/>
<polygon fill="#63b8ff" stroke="#63b8ff" points="509.65,-161 519.65,-157.5 509.65,-154 509.65,-161"/>
</a>
</g>
</g>
<!-- Node8 -->
<g id="Node000008" class="node">
<title>Node8</title>
<g id="a_Node000008"><a xlink:href="external_8c.html#aeb87c527482a244173df36a1f3d4f446" target="_top" xlink:title=" ">
<polygon fill="white" stroke="#666666" points="602,-130 510,-130 510,-111 602,-111 602,-130"/>
<text text-anchor="middle" x="556" y="-118" font-family="Helvetica,sans-Serif" font-size="10.00">func_800C21E8</text>
</a>
</g>
</g>
<!-- Node7&#45;&gt;Node8 -->
<g id="edge9_Node000007_Node000008" class="edge">
<title>Node7&#45;&gt;Node8</title>
<g id="a_edge9_Node000007_Node000008"><a xlink:title=" ">
<path fill="none" stroke="#63b8ff" d="M455.82,-120.5C469.68,-120.5 485.07,-120.5 499.52,-120.5"/>
<polygon fill="#63b8ff" stroke="#63b8ff" points="499.84,-124 509.84,-120.5 499.84,-117 499.84,-124"/>
</a>
</g>
</g>
<!-- Node9 -->
<g id="Node000009" class="node">
<title>Node9</title>
<g id="a_Node000009"><a xlink:href="external_8c.html#a028d40421b90c38f68ebfd5acc626f2e" target="_top" xlink:title=" ">
<polygon fill="white" stroke="#666666" points="602,-93 510,-93 510,-74 602,-74 602,-93"/>
<text text-anchor="middle" x="556" y="-81" font-family="Helvetica,sans-Serif" font-size="10.00">func_800C5578</text>
</a>
</g>
</g>
<!-- Node7&#45;&gt;Node9 -->
<g id="edge10_Node000007_Node000009" class="edge">
<title>Node7&#45;&gt;Node9</title>
<g id="a_edge10_Node000007_Node000009"><a xlink:title=" ">
<path fill="none" stroke="#63b8ff" d="M447.71,-110.97C466.01,-106.29 488.27,-100.59 507.76,-95.6"/>
<polygon fill="#63b8ff" stroke="#63b8ff" points="508.84,-98.93 517.66,-93.06 507.11,-92.15 508.84,-98.93"/>
</a>
</g>
</g>
<!-- Node10 -->
<g id="Node000010" class="node">
<title>Node10</title>
<g id="a_Node000010"><a xlink:href="external_8c.html#ac0fb767de7e14a03f1bcfa53f0abd23b" target="_top" xlink:title=" ">
<polygon fill="white" stroke="#666666" points="778,-130 638,-130 638,-111 778,-111 778,-130"/>
<text text-anchor="middle" x="708" y="-118" font-family="Helvetica,sans-Serif" font-size="10.00">delete_sound_from_bank</text>
</a>
</g>
</g>
<!-- Node9&#45;&gt;Node10 -->
<g id="edge11_Node000009_Node000010" class="edge">
<title>Node9&#45;&gt;Node10</title>
<g id="a_edge11_Node000009_Node000010"><a xlink:title=" ">
<path fill="none" stroke="#63b8ff" d="M595.63,-93.03C614.8,-97.76 638.16,-103.52 658.52,-108.54"/>
<polygon fill="#63b8ff" stroke="#63b8ff" points="657.69,-111.94 668.24,-110.94 659.37,-105.15 657.69,-111.94"/>
</a>
</g>
</g>
<!-- Node12 -->
<g id="Node000012" class="node">
<title>Node12</title>
<g id="a_Node000012"><a xlink:href="external_8c.html#ab83bd36e63f0f1baddcb2482b5ad31b0" target="_top" xlink:title=" ">
<polygon fill="white" stroke="#666666" points="754.5,-93 661.5,-93 661.5,-74 754.5,-74 754.5,-93"/>
<text text-anchor="middle" x="708" y="-81" font-family="Helvetica,sans-Serif" font-size="10.00">func_800C41CC</text>
</a>
</g>
</g>
<!-- Node9&#45;&gt;Node12 -->
<g id="edge13_Node000009_Node000012" class="edge">
<title>Node9&#45;&gt;Node12</title>
<g id="a_edge13_Node000009_Node000012"><a xlink:title=" ">
<path fill="none" stroke="#63b8ff" d="M602,-83.5C617.37,-83.5 634.74,-83.5 650.86,-83.5"/>
<polygon fill="#63b8ff" stroke="#63b8ff" points="651.25,-87 661.25,-83.5 651.25,-80 651.25,-87"/>
</a>
</g>
</g>
<!-- Node13 -->
<g id="Node000013" class="node">
<title>Node13</title>
<g id="a_Node000013"><a xlink:href="port__eu_8c.html#aa89dfaecca46c6d071f08c1898d1f7c9" target="_top" xlink:title=" ">
<polygon fill="white" stroke="#666666" points="754.5,-56 661.5,-56 661.5,-37 754.5,-37 754.5,-56"/>
<text text-anchor="middle" x="708" y="-44" font-family="Helvetica,sans-Serif" font-size="10.00">func_800CBBE8</text>
</a>
</g>
</g>
<!-- Node9&#45;&gt;Node13 -->
<g id="edge14_Node000009_Node000013" class="edge">
<title>Node9&#45;&gt;Node13</title>
<g id="a_edge14_Node000009_Node000013"><a xlink:title=" ">
<path fill="none" stroke="#63b8ff" d="M595.63,-73.97C614.8,-69.24 638.16,-63.48 658.52,-58.46"/>
<polygon fill="#63b8ff" stroke="#63b8ff" points="659.37,-61.85 668.24,-56.06 657.69,-55.06 659.37,-61.85"/>
</a>
</g>
</g>
<!-- Node11 -->
<g id="Node000011" class="node">
<title>Node11</title>
<g id="a_Node000011"><a xlink:href="external_8c.html#a358ac55e8ab5262dcae8037334be06d7" target="_top" xlink:title=" ">
<polygon fill="white" stroke="#666666" points="906.5,-130 814.5,-130 814.5,-111 906.5,-111 906.5,-130"/>
<text text-anchor="middle" x="860.5" y="-118" font-family="Helvetica,sans-Serif" font-size="10.00">func_800C40F0</text>
</a>
</g>
</g>
<!-- Node10&#45;&gt;Node11 -->
<g id="edge12_Node000010_Node000011" class="edge">
<title>Node10&#45;&gt;Node11</title>
<g id="a_edge12_Node000010_Node000011"><a xlink:title=" ">
<path fill="none" stroke="#63b8ff" d="M778.08,-120.5C786.87,-120.5 795.78,-120.5 804.31,-120.5"/>
<polygon fill="#63b8ff" stroke="#63b8ff" points="804.5,-124 814.5,-120.5 804.5,-117 804.5,-124"/>
</a>
</g>
</g>
<!-- Node14 -->
<g id="Node000014" class="node">
<title>Node14</title>
<g id="a_Node000014"><a xlink:href="port__eu_8c.html#af361a20d2e08f30c53a237ca481ff734" target="_top" xlink:title=" ">
<polygon fill="white" stroke="#666666" points="907,-56 814,-56 814,-37 907,-37 907,-56"/>
<text text-anchor="middle" x="860.5" y="-44" font-family="Helvetica,sans-Serif" font-size="10.00">func_800CBB48</text>
</a>
</g>
</g>
<!-- Node13&#45;&gt;Node14 -->
<g id="edge15_Node000013_Node000014" class="edge">
<title>Node13&#45;&gt;Node14</title>
<g id="a_edge15_Node000013_Node000014"><a xlink:title=" ">
<path fill="none" stroke="#63b8ff" d="M754.56,-46.5C769.96,-46.5 787.34,-46.5 803.46,-46.5"/>
<polygon fill="#63b8ff" stroke="#63b8ff" points="803.83,-50 813.83,-46.5 803.83,-43 803.83,-50"/>
</a>
</g>
</g>
<!-- Node16 -->
<g id="Node000016" class="node">
<title>Node16</title>
<g id="a_Node000016"><a xlink:href="math_8h.html#a37bde043e94a6f074c78f10518fb5d99" target="_top" xlink:title=" ">
<polygon fill="white" stroke="#666666" points="575.5,-56 536.5,-56 536.5,-37 575.5,-37 575.5,-56"/>
<text text-anchor="middle" x="556" y="-44" font-family="Helvetica,sans-Serif" font-size="10.00">sqrtf</text>
</a>
</g>
</g>
<!-- Node15&#45;&gt;Node16 -->
<g id="edge17_Node000015_Node000016" class="edge">
<title>Node15&#45;&gt;Node16</title>
<g id="a_edge17_Node000015_Node000016"><a xlink:title=" ">
<path fill="none" stroke="#63b8ff" d="M447.71,-73.97C472.26,-67.69 503.92,-59.58 526.47,-53.8"/>
<polygon fill="#63b8ff" stroke="#63b8ff" points="527.62,-57.12 536.44,-51.25 525.88,-50.34 527.62,-57.12"/>
</a>
</g>
</g>
<!-- Node19 -->
<g id="Node000019" class="node">
<title>Node19</title>
<g id="a_Node000019"><a xlink:href="math__util_8c.html#a062850863585005ad1d0a75d9ff70693" target="_top" xlink:title=" ">
<polygon fill="white" stroke="#666666" points="594.5,-19 517.5,-19 517.5,0 594.5,0 594.5,-19"/>
<text text-anchor="middle" x="556" y="-7" font-family="Helvetica,sans-Serif" font-size="10.00">random_u16</text>
</a>
</g>
</g>
<!-- Node18&#45;&gt;Node19 -->
<g id="edge20_Node000018_Node000019" class="edge">
<title>Node18&#45;&gt;Node19</title>
<g id="a_edge20_Node000018_Node000019"><a xlink:title=" ">
<path fill="none" stroke="#63b8ff" d="M445.85,-9.5C464.35,-9.5 487.26,-9.5 507.31,-9.5"/>
<polygon fill="#63b8ff" stroke="#63b8ff" points="507.49,-13 517.49,-9.5 507.49,-6 507.49,-13"/>
</a>
</g>
</g>
</g>
</svg>
