<?xml version="1.0" encoding="UTF-8" standalone="no"?>
<!DOCTYPE svg PUBLIC "-//W3C//DTD SVG 1.1//EN"
 "http://www.w3.org/Graphics/SVG/1.1/DTD/svg11.dtd">
<!-- Generated by graphviz version 2.43.0 (0)
 -->
<!-- Title: update_vehicle_cars Pages: 1 -->
<!--zoomable 252 -->

<svg id="main" version="1.1" xmlns="http://www.w3.org/2000/svg" xmlns:xlink="http://www.w3.org/1999/xlink" xml:space="preserve" onload="init(evt)">
<style type="text/css"><![CDATA[
.node, .edge {opacity: 0.7;}
.node.selected, .edge.selected {opacity: 1;}
.edge:hover path { stroke: red; }
.edge:hover polygon { stroke: red; fill: red; }
]]></style>

<defs>
  <circle id="rim" cx="0" cy="0" r="7"/>
  <circle id="rim2" cx="0" cy="0" r="3.5"/>
  <g id="zoomPlus">
    <use xlink:href="#rim" fill="#404040"><set attributeName="fill" to="#808080" begin="zoomplus.mouseover" end="zoomplus.mouseout"/></use>
    <path d="M-4,0h8M0,-4v8" fill="none" stroke="white" stroke-width="1.5" pointer-events="none"/>
  </g>
  <g id="zoomMin">
    <use xlink:href="#rim" fill="#404040"><set attributeName="fill" to="#808080" begin="zoomminus.mouseover" end="zoomminus.mouseout"/></use>
    <path d="M-4,0h8" fill="none" stroke="white" stroke-width="1.5" pointer-events="none"/>
  </g>
  <g id="arrowUp" transform="translate(30 24)">
    <use xlink:href="#rim"/>
    <path pointer-events="none" fill="none" stroke="white" stroke-width="1.5" d="M0,-3.0v7 M-2.5,-0.5L0,-3.0L2.5,-0.5"/>
  </g>
  <g id="arrowRight" transform="rotate(90) translate(36 -43)">
    <use xlink:href="#rim"/>
    <path pointer-events="none" fill="none" stroke="white" stroke-width="1.5" d="M0,-3.0v7 M-2.5,-0.5L0,-3.0L2.5,-0.5"/>
  </g>
  <g id="arrowDown" transform="rotate(180) translate(-30 -48)">
    <use xlink:href="#rim"/>
    <path pointer-events="none" fill="none" stroke="white" stroke-width="1.5" d="M0,-3.0v7 M-2.5,-0.5L0,-3.0L2.5,-0.5"/>
  </g>
  <g id="arrowLeft" transform="rotate(270) translate(-36 17)">
    <use xlink:href="#rim"/>
    <path pointer-events="none" fill="none" stroke="white" stroke-width="1.5" d="M0,-3.0v7 M-2.5,-0.5L0,-3.0L2.5,-0.5"/>
  </g>
  <g id="resetDef">
    <use xlink:href="#rim2" fill="#404040"><set attributeName="fill" to="#808080" begin="reset.mouseover" end="reset.mouseout"/></use>
  </g>
</defs>
<script type="application/ecmascript">
var viewWidth = 1095;
var viewHeight = 252;
var sectionId = 'dynsection-222';
</script>
<script type="application/ecmascript" xlink:href="svg.min.js"/>
<svg id="graph" class="graph">
<g id="viewport">
<title>update_vehicle_cars</title>
<!-- Node1 -->
<g id="Node000001" class="node">
<title>Node1</title>
<g id="a_Node000001"><a xlink:title=" ">
<polygon fill="#999999" stroke="#666666" points="116,-113 0,-113 0,-94 116,-94 116,-113"/>
<text text-anchor="middle" x="58" y="-101" font-family="Helvetica,sans-Serif" font-size="10.00">update_vehicle_cars</text>
</a>
</g>
</g>
<!-- Node2 -->
<g id="Node000002" class="node">
<title>Node2</title>
<g id="a_Node000002"><a xlink:href="vehicle__utils_8inc_8c.html#a936e91c360ecd0a5b230df3f1f7868f0" target="_top" xlink:title=" ">
<polygon fill="white" stroke="#666666" points="278,-118.5 152,-118.5 152,-88.5 278,-88.5 278,-118.5"/>
<text text-anchor="start" x="160" y="-106.5" font-family="Helvetica,sans-Serif" font-size="10.00">update_vehicle_follow</text>
<text text-anchor="middle" x="215" y="-95.5" font-family="Helvetica,sans-Serif" font-size="10.00">_pathPoint</text>
</a>
</g>
</g>
<!-- Node1&#45;&gt;Node2 -->
<g id="edge1_Node000001_Node000002" class="edge">
<title>Node1&#45;&gt;Node2</title>
<g id="a_edge1_Node000001_Node000002"><a xlink:title=" ">
<path fill="none" stroke="#63b8ff" d="M116.28,-103.5C124.49,-103.5 133.03,-103.5 141.49,-103.5"/>
<polygon fill="#63b8ff" stroke="#63b8ff" points="141.75,-107 151.75,-103.5 141.75,-100 141.75,-107"/>
</a>
</g>
</g>
<!-- Node3 -->
<g id="Node000003" class="node">
<title>Node3</title>
<g id="a_Node000003"><a xlink:href="render__player_8c.html#af630bf89117f79abdb4e5edc8c67d00f" target="_top" xlink:title=" ">
<polygon fill="white" stroke="#666666" points="400.5,-244 321.5,-244 321.5,-225 400.5,-225 400.5,-244"/>
<text text-anchor="middle" x="361" y="-232" font-family="Helvetica,sans-Serif" font-size="10.00">adjust_angle</text>
</a>
</g>
</g>
<!-- Node2&#45;&gt;Node3 -->
<g id="edge2_Node000002_Node000003" class="edge">
<title>Node2&#45;&gt;Node3</title>
<g id="a_edge2_Node000002_Node000003"><a xlink:title=" ">
<path fill="none" stroke="#63b8ff" d="M227,-118.52C243.83,-140.74 277.84,-182.72 314,-210.5 318.55,-214 323.69,-217.24 328.84,-220.14"/>
<polygon fill="#63b8ff" stroke="#63b8ff" points="327.52,-223.4 338,-224.97 330.79,-217.21 327.52,-223.4"/>
</a>
</g>
</g>
<!-- Node4 -->
<g id="Node000004" class="node">
<title>Node4</title>
<g id="a_Node000004"><a xlink:href="path__utils_8inc_8c.html#a44c754d762164fef82f8e769dfda5b81" target="_top" xlink:title=" ">
<polygon fill="white" stroke="#666666" points="408,-132 314,-132 314,-113 408,-113 408,-132"/>
<text text-anchor="middle" x="361" y="-120" font-family="Helvetica,sans-Serif" font-size="10.00">func_8000D6D0</text>
</a>
</g>
</g>
<!-- Node2&#45;&gt;Node4 -->
<g id="edge3_Node000002_Node000004" class="edge">
<title>Node2&#45;&gt;Node4</title>
<g id="a_edge3_Node000002_Node000004"><a xlink:title=" ">
<path fill="none" stroke="#63b8ff" d="M278.32,-111.72C286.75,-112.84 295.36,-113.97 303.68,-115.07"/>
<polygon fill="#63b8ff" stroke="#63b8ff" points="303.28,-118.55 313.65,-116.38 304.19,-111.61 303.28,-118.55"/>
</a>
</g>
</g>
<!-- Node16 -->
<g id="Node000016" class="node">
<title>Node16</title>
<g id="a_Node000016"><a xlink:href="math__util_8c.html#a963f23fd2ffec93350816627af02b9da" target="_top" xlink:title=" ">
<polygon fill="white" stroke="#666666" points="766,-206 619,-206 619,-187 766,-187 766,-206"/>
<text text-anchor="middle" x="692.5" y="-194" font-family="Helvetica,sans-Serif" font-size="10.00">get_angle_between_points</text>
</a>
</g>
</g>
<!-- Node2&#45;&gt;Node16 -->
<g id="edge26_Node000002_Node000016" class="edge">
<title>Node2&#45;&gt;Node16</title>
<g id="a_edge26_Node000002_Node000016"><a xlink:title=" ">
<path fill="none" stroke="#63b8ff" d="M253.9,-118.66C271.97,-125.66 293.97,-133.88 314,-140.5 371.04,-159.35 384.87,-166.93 444,-177.5 498.46,-187.24 560.53,-191.99 608.89,-194.3"/>
<polygon fill="#63b8ff" stroke="#63b8ff" points="608.85,-197.8 619,-194.76 609.17,-190.81 608.85,-197.8"/>
</a>
</g>
</g>
<!-- Node20 -->
<g id="Node000020" class="node">
<title>Node20</title>
<g id="a_Node000020"><a xlink:href="math_8h.html#a37bde043e94a6f074c78f10518fb5d99" target="_top" xlink:title=" ">
<polygon fill="white" stroke="#666666" points="533,-57 494,-57 494,-38 533,-38 533,-57"/>
<text text-anchor="middle" x="513.5" y="-45" font-family="Helvetica,sans-Serif" font-size="10.00">sqrtf</text>
</a>
</g>
</g>
<!-- Node2&#45;&gt;Node20 -->
<g id="edge27_Node000002_Node000020" class="edge">
<title>Node2&#45;&gt;Node20</title>
<g id="a_edge27_Node000002_Node000020"><a xlink:title=" ">
<path fill="none" stroke="#63b8ff" d="M249.33,-88.39C267.97,-80.59 291.86,-71.64 314,-66.5 373.34,-52.72 444.88,-48.91 483.82,-47.87"/>
<polygon fill="#63b8ff" stroke="#63b8ff" points="483.98,-51.37 493.9,-47.64 483.83,-44.37 483.98,-51.37"/>
</a>
</g>
</g>
<!-- Node21 -->
<g id="Node000021" class="node">
<title>Node21</title>
<g id="a_Node000021"><a xlink:href="path__utils_8inc_8c.html#a6dec7a494db9036be46fe6fb9dc642d5" target="_top" xlink:title=" ">
<polygon fill="white" stroke="#666666" points="407,-95 315,-95 315,-76 407,-76 407,-95"/>
<text text-anchor="middle" x="361" y="-83" font-family="Helvetica,sans-Serif" font-size="10.00">func_8000D940</text>
</a>
</g>
</g>
<!-- Node2&#45;&gt;Node21 -->
<g id="edge20_Node000002_Node000021" class="edge">
<title>Node2&#45;&gt;Node21</title>
<g id="a_edge20_Node000002_Node000021"><a xlink:title=" ">
<path fill="none" stroke="#63b8ff" d="M278.32,-95.71C287.17,-94.6 296.22,-93.47 304.92,-92.38"/>
<polygon fill="#63b8ff" stroke="#63b8ff" points="305.45,-95.85 314.94,-91.13 304.59,-88.9 305.45,-95.85"/>
</a>
</g>
</g>
<!-- Node22 -->
<g id="Node000022" class="node">
<title>Node22</title>
<g id="a_Node000022"><a xlink:href="vehicle__utils_8inc_8c.html#a54e47778812e7c12c98091fd17a9f433" target="_top" xlink:title=" ">
<polygon fill="white" stroke="#666666" points="407,-19 315,-19 315,0 407,0 407,-19"/>
<text text-anchor="middle" x="361" y="-7" font-family="Helvetica,sans-Serif" font-size="10.00">func_80013C74</text>
</a>
</g>
</g>
<!-- Node2&#45;&gt;Node22 -->
<g id="edge25_Node000002_Node000022" class="edge">
<title>Node2&#45;&gt;Node22</title>
<g id="a_edge25_Node000002_Node000022"><a xlink:title=" ">
<path fill="none" stroke="#63b8ff" d="M235.34,-88.46C254.73,-73.68 285.67,-50.89 314,-33.5 319.31,-30.24 325.11,-26.99 330.75,-23.98"/>
<polygon fill="#63b8ff" stroke="#63b8ff" points="332.71,-26.91 339.97,-19.19 329.48,-20.69 332.71,-26.91"/>
</a>
</g>
</g>
<!-- Node5 -->
<g id="Node000005" class="node">
<title>Node5</title>
<g id="a_Node000005"><a xlink:href="path__utils_8inc_8c.html#a9fec4bf4c51e7206b461803a60d7e6e3" target="_top" xlink:title=" ">
<polygon fill="white" stroke="#666666" points="560,-94 467,-94 467,-75 560,-75 560,-94"/>
<text text-anchor="middle" x="513.5" y="-82" font-family="Helvetica,sans-Serif" font-size="10.00">func_8000D2B4</text>
</a>
</g>
</g>
<!-- Node4&#45;&gt;Node5 -->
<g id="edge4_Node000004_Node000005" class="edge">
<title>Node4&#45;&gt;Node5</title>
<g id="a_edge4_Node000004_Node000005"><a xlink:title=" ">
<path fill="none" stroke="#63b8ff" d="M399.98,-112.91C419.66,-107.94 443.89,-101.82 464.82,-96.54"/>
<polygon fill="#63b8ff" stroke="#63b8ff" points="465.96,-99.86 474.8,-94.02 464.24,-93.07 465.96,-99.86"/>
</a>
</g>
</g>
<!-- Node15 -->
<g id="Node000015" class="node">
<title>Node15</title>
<g id="a_Node000015"><a xlink:href="cpu__vehicles__camera__path_8c.html#a79cd9c001e0a06c9cab23fe2cf070abf" target="_top" xlink:title=" ">
<polygon fill="white" stroke="#666666" points="583,-168 444,-168 444,-149 583,-149 583,-168"/>
<text text-anchor="middle" x="513.5" y="-156" font-family="Helvetica,sans-Serif" font-size="10.00">get_angle_between_path</text>
</a>
</g>
</g>
<!-- Node4&#45;&gt;Node15 -->
<g id="edge14_Node000004_Node000015" class="edge">
<title>Node4&#45;&gt;Node15</title>
<g id="a_edge14_Node000004_Node000015"><a xlink:title=" ">
<path fill="none" stroke="#63b8ff" d="M401.94,-132.05C420.63,-136.53 443.1,-141.9 462.87,-146.63"/>
<polygon fill="#63b8ff" stroke="#63b8ff" points="462.1,-150.04 472.64,-148.97 463.73,-143.23 462.1,-150.04"/>
</a>
</g>
</g>
<!-- Node19 -->
<g id="Node000019" class="node">
<title>Node19</title>
<g id="a_Node000019"><a xlink:href="path__utils_8inc_8c.html#a98f90736f1191cd761bdbfc51966abc4" target="_top" xlink:title=" ">
<polygon fill="white" stroke="#666666" points="583,-131 444,-131 444,-112 583,-112 583,-131"/>
<text text-anchor="middle" x="513.5" y="-119" font-family="Helvetica,sans-Serif" font-size="10.00">set_track_offset_position</text>
</a>
</g>
</g>
<!-- Node4&#45;&gt;Node19 -->
<g id="edge18_Node000004_Node000019" class="edge">
<title>Node4&#45;&gt;Node19</title>
<g id="a_edge18_Node000004_Node000019"><a xlink:title=" ">
<path fill="none" stroke="#63b8ff" d="M408.38,-122.19C416.45,-122.14 425.05,-122.08 433.7,-122.02"/>
<polygon fill="#63b8ff" stroke="#63b8ff" points="433.88,-125.52 443.86,-121.96 433.84,-118.52 433.88,-125.52"/>
</a>
</g>
</g>
<!-- Node4&#45;&gt;Node20 -->
<g id="edge19_Node000004_Node000020" class="edge">
<title>Node4&#45;&gt;Node20</title>
<g id="a_edge19_Node000004_Node000020"><a xlink:title=" ">
<path fill="none" stroke="#63b8ff" d="M390.7,-112.84C396.66,-110.24 402.73,-107.12 408,-103.5 427.17,-90.32 423.98,-77.35 444,-65.5 456.07,-58.35 470.98,-54 483.81,-51.37"/>
<polygon fill="#63b8ff" stroke="#63b8ff" points="484.76,-54.76 493.98,-49.55 483.52,-47.87 484.76,-54.76"/>
</a>
</g>
</g>
<!-- Node6 -->
<g id="Node000006" class="node">
<title>Node6</title>
<g id="a_Node000006"><a xlink:href="path__utils_8inc_8c.html#affd5f9e715b41d88eaf26f157bfc9719" target="_top" xlink:title=" ">
<polygon fill="white" stroke="#666666" points="762.5,-54 622.5,-54 622.5,-35 762.5,-35 762.5,-54"/>
<text text-anchor="middle" x="692.5" y="-42" font-family="Helvetica,sans-Serif" font-size="10.00">adjust_path_at_start_line</text>
</a>
</g>
</g>
<!-- Node5&#45;&gt;Node6 -->
<g id="edge5_Node000005_Node000006" class="edge">
<title>Node5&#45;&gt;Node6</title>
<g id="a_edge5_Node000005_Node000006"><a xlink:title=" ">
<path fill="none" stroke="#63b8ff" d="M556.9,-74.92C581.74,-69.3 613.32,-62.17 639.64,-56.22"/>
<polygon fill="#63b8ff" stroke="#63b8ff" points="640.47,-59.62 649.45,-54 638.92,-52.79 640.47,-59.62"/>
</a>
</g>
</g>
<!-- Node7 -->
<g id="Node000007" class="node">
<title>Node7</title>
<g id="a_Node000007"><a xlink:href="path__utils_8inc_8c.html#aae3d2d6e27d79a30dfe68c64e771b5b1" target="_top" xlink:title=" ">
<polygon fill="white" stroke="#666666" points="739,-128 646,-128 646,-109 739,-109 739,-128"/>
<text text-anchor="middle" x="692.5" y="-116" font-family="Helvetica,sans-Serif" font-size="10.00">func_8000D24C</text>
</a>
</g>
</g>
<!-- Node5&#45;&gt;Node7 -->
<g id="edge6_Node000005_Node000007" class="edge">
<title>Node5&#45;&gt;Node7</title>
<g id="a_edge6_Node000005_Node000007"><a xlink:title=" ">
<path fill="none" stroke="#63b8ff" d="M560.08,-93.26C583.22,-97.7 611.52,-103.14 635.92,-107.82"/>
<polygon fill="#63b8ff" stroke="#63b8ff" points="635.28,-111.27 645.77,-109.71 636.61,-104.39 635.28,-111.27"/>
</a>
</g>
</g>
<!-- Node14 -->
<g id="Node000014" class="node">
<title>Node14</title>
<g id="a_Node000014"><a xlink:href="path__utils_8inc_8c.html#a7f6aaf7d61fc1cad057367e11c4aa66f" target="_top" xlink:title=" ">
<polygon fill="white" stroke="#666666" points="747.5,-91 637.5,-91 637.5,-72 747.5,-72 747.5,-91"/>
<text text-anchor="middle" x="692.5" y="-79" font-family="Helvetica,sans-Serif" font-size="10.00">update_path_index</text>
</a>
</g>
</g>
<!-- Node5&#45;&gt;Node14 -->
<g id="edge13_Node000005_Node000014" class="edge">
<title>Node5&#45;&gt;Node14</title>
<g id="a_edge13_Node000005_Node000014"><a xlink:title=" ">
<path fill="none" stroke="#63b8ff" d="M560.08,-83.73C580.51,-83.38 604.97,-82.97 627.21,-82.59"/>
<polygon fill="#63b8ff" stroke="#63b8ff" points="627.32,-86.09 637.26,-82.42 627.2,-79.09 627.32,-86.09"/>
</a>
</g>
</g>
<!-- Node8 -->
<g id="Node000008" class="node">
<title>Node8</title>
<g id="a_Node000008"><a xlink:href="collision_8c.html#a37aa55b3768d001533ad75e7f1b8388a" target="_top" xlink:title=" ">
<polygon fill="white" stroke="#666666" points="943,-88 802,-88 802,-69 943,-69 943,-88"/>
<text text-anchor="middle" x="872.5" y="-76" font-family="Helvetica,sans-Serif" font-size="10.00">check_bounding_collision</text>
</a>
</g>
</g>
<!-- Node7&#45;&gt;Node8 -->
<g id="edge7_Node000007_Node000008" class="edge">
<title>Node7&#45;&gt;Node8</title>
<g id="a_edge7_Node000007_Node000008"><a xlink:title=" ">
<path fill="none" stroke="#63b8ff" d="M736.14,-108.92C761.12,-103.3 792.88,-96.17 819.35,-90.22"/>
<polygon fill="#63b8ff" stroke="#63b8ff" points="820.22,-93.61 829.21,-88 818.69,-86.78 820.22,-93.61"/>
</a>
</g>
</g>
<!-- Node12 -->
<g id="Node000012" class="node">
<title>Node12</title>
<g id="a_Node000012"><a xlink:href="path__utils_8inc_8c.html#ab96cbd71b16b521d82bee529494f1351" target="_top" xlink:title=" ">
<polygon fill="white" stroke="#666666" points="935.5,-173.5 809.5,-173.5 809.5,-143.5 935.5,-143.5 935.5,-173.5"/>
<text text-anchor="start" x="817.5" y="-161.5" font-family="Helvetica,sans-Serif" font-size="10.00">find_closest_pathPoint</text>
<text text-anchor="middle" x="872.5" y="-150.5" font-family="Helvetica,sans-Serif" font-size="10.00">_track_section</text>
</a>
</g>
</g>
<!-- Node7&#45;&gt;Node12 -->
<g id="edge11_Node000007_Node000012" class="edge">
<title>Node7&#45;&gt;Node12</title>
<g id="a_edge11_Node000007_Node000012"><a xlink:title=" ">
<path fill="none" stroke="#63b8ff" d="M736.14,-128.08C755.13,-132.35 778.04,-137.5 799.57,-142.33"/>
<polygon fill="#63b8ff" stroke="#63b8ff" points="798.81,-145.75 809.34,-144.53 800.35,-138.92 798.81,-145.75"/>
</a>
</g>
</g>
<!-- Node13 -->
<g id="Node000013" class="node">
<title>Node13</title>
<g id="a_Node000013"><a xlink:href="collision_8c.html#a053809031f467d0a6747788211e0ec69" target="_top" xlink:title=" ">
<polygon fill="white" stroke="#666666" points="931,-125 814,-125 814,-106 931,-106 931,-125"/>
<text text-anchor="middle" x="872.5" y="-113" font-family="Helvetica,sans-Serif" font-size="10.00">get_track_section_id</text>
</a>
</g>
</g>
<!-- Node7&#45;&gt;Node13 -->
<g id="edge12_Node000007_Node000013" class="edge">
<title>Node7&#45;&gt;Node13</title>
<g id="a_edge12_Node000007_Node000013"><a xlink:title=" ">
<path fill="none" stroke="#63b8ff" d="M739.34,-117.73C758.9,-117.4 782.14,-117.01 803.63,-116.64"/>
<polygon fill="#63b8ff" stroke="#63b8ff" points="803.75,-120.14 813.69,-116.47 803.63,-113.14 803.75,-120.14"/>
</a>
</g>
</g>
<!-- Node9 -->
<g id="Node000009" class="node">
<title>Node9</title>
<g id="a_Node000009"><a xlink:href="collision_8c.html#ac312bf382cb40752f6b790a99e7cdcb6" target="_top" xlink:title=" ">
<polygon fill="white" stroke="#666666" points="1087,-51 979,-51 979,-32 1087,-32 1087,-51"/>
<text text-anchor="middle" x="1033" y="-39" font-family="Helvetica,sans-Serif" font-size="10.00">check_collision_yx</text>
</a>
</g>
</g>
<!-- Node8&#45;&gt;Node9 -->
<g id="edge8_Node000008_Node000009" class="edge">
<title>Node8&#45;&gt;Node9</title>
<g id="a_edge8_Node000008_Node000009"><a xlink:title=" ">
<path fill="none" stroke="#63b8ff" d="M914.32,-68.97C934.67,-64.22 959.48,-58.43 981.06,-53.39"/>
<polygon fill="#63b8ff" stroke="#63b8ff" points="982.1,-56.74 991.05,-51.06 980.51,-49.93 982.1,-56.74"/>
</a>
</g>
</g>
<!-- Node10 -->
<g id="Node000010" class="node">
<title>Node10</title>
<g id="a_Node000010"><a xlink:href="collision_8c.html#a4b48832a90e984536a0635a016ec4f28" target="_top" xlink:title=" ">
<polygon fill="white" stroke="#666666" points="1086.5,-125 979.5,-125 979.5,-106 1086.5,-106 1086.5,-125"/>
<text text-anchor="middle" x="1033" y="-113" font-family="Helvetica,sans-Serif" font-size="10.00">check_collision_zx</text>
</a>
</g>
</g>
<!-- Node8&#45;&gt;Node10 -->
<g id="edge9_Node000008_Node000010" class="edge">
<title>Node8&#45;&gt;Node10</title>
<g id="a_edge9_Node000008_Node000010"><a xlink:title=" ">
<path fill="none" stroke="#63b8ff" d="M914.32,-88.03C934.67,-92.78 959.48,-98.57 981.06,-103.61"/>
<polygon fill="#63b8ff" stroke="#63b8ff" points="980.51,-107.07 991.05,-105.94 982.1,-100.26 980.51,-107.07"/>
</a>
</g>
</g>
<!-- Node11 -->
<g id="Node000011" class="node">
<title>Node11</title>
<g id="a_Node000011"><a xlink:href="collision_8c.html#a21fef964ab48191a1c0341954ef27a40" target="_top" xlink:title=" ">
<polygon fill="white" stroke="#666666" points="1086.5,-88 979.5,-88 979.5,-69 1086.5,-69 1086.5,-88"/>
<text text-anchor="middle" x="1033" y="-76" font-family="Helvetica,sans-Serif" font-size="10.00">check_collision_zy</text>
</a>
</g>
</g>
<!-- Node8&#45;&gt;Node11 -->
<g id="edge10_Node000008_Node000011" class="edge">
<title>Node8&#45;&gt;Node11</title>
<g id="a_edge10_Node000008_Node000011"><a xlink:title=" ">
<path fill="none" stroke="#63b8ff" d="M943.02,-78.5C951.65,-78.5 960.44,-78.5 968.97,-78.5"/>
<polygon fill="#63b8ff" stroke="#63b8ff" points="969.22,-82 979.22,-78.5 969.22,-75 969.22,-82"/>
</a>
</g>
</g>
<!-- Node15&#45;&gt;Node16 -->
<g id="edge15_Node000015_Node000016" class="edge">
<title>Node15&#45;&gt;Node16</title>
<g id="a_edge15_Node000015_Node000016"><a xlink:title=" ">
<path fill="none" stroke="#63b8ff" d="M559.16,-168.09C582.84,-173.17 612.11,-179.46 637.1,-184.82"/>
<polygon fill="#63b8ff" stroke="#63b8ff" points="636.64,-188.3 647.16,-186.98 638.11,-181.46 636.64,-188.3"/>
</a>
</g>
</g>
<!-- Node17 -->
<g id="Node000017" class="node">
<title>Node17</title>
<g id="a_Node000017"><a xlink:href="math__util_8c.html#aaa39a297477f56051975259f4bddd829" target="_top" xlink:title=" ">
<polygon fill="white" stroke="#666666" points="897.5,-211 847.5,-211 847.5,-192 897.5,-192 897.5,-211"/>
<text text-anchor="middle" x="872.5" y="-199" font-family="Helvetica,sans-Serif" font-size="10.00">atan2s</text>
</a>
</g>
</g>
<!-- Node16&#45;&gt;Node17 -->
<g id="edge16_Node000016_Node000017" class="edge">
<title>Node16&#45;&gt;Node17</title>
<g id="a_edge16_Node000016_Node000017"><a xlink:title=" ">
<path fill="none" stroke="#63b8ff" d="M766.16,-198.54C790.6,-199.23 816.75,-199.96 836.88,-200.53"/>
<polygon fill="#63b8ff" stroke="#63b8ff" points="837.01,-204.03 847.11,-200.81 837.21,-197.04 837.01,-204.03"/>
</a>
</g>
</g>
<!-- Node18 -->
<g id="Node000018" class="node">
<title>Node18</title>
<g id="a_Node000018"><a xlink:href="math__util_8c.html#a0273b0ea0783a06996c28669a7438ed9" target="_top" xlink:title=" ">
<polygon fill="white" stroke="#666666" points="1074,-211 992,-211 992,-192 1074,-192 1074,-211"/>
<text text-anchor="middle" x="1033" y="-199" font-family="Helvetica,sans-Serif" font-size="10.00">atan2_lookup</text>
</a>
</g>
</g>
<!-- Node17&#45;&gt;Node18 -->
<g id="edge17_Node000017_Node000018" class="edge">
<title>Node17&#45;&gt;Node18</title>
<g id="a_edge17_Node000017_Node000018"><a xlink:title=" ">
<path fill="none" stroke="#63b8ff" d="M897.57,-201.5C919.86,-201.5 953.71,-201.5 981.87,-201.5"/>
<polygon fill="#63b8ff" stroke="#63b8ff" points="981.95,-205 991.95,-201.5 981.95,-198 981.95,-205"/>
</a>
</g>
</g>
<!-- Node21&#45;&gt;Node5 -->
<g id="edge21_Node000021_Node000005" class="edge">
<title>Node21&#45;&gt;Node5</title>
<g id="a_edge21_Node000021_Node000005"><a xlink:title=" ">
<path fill="none" stroke="#63b8ff" d="M407.15,-85.2C422.64,-85.1 440.16,-84.98 456.4,-84.87"/>
<polygon fill="#63b8ff" stroke="#63b8ff" points="456.88,-88.37 466.86,-84.8 456.83,-81.37 456.88,-88.37"/>
</a>
</g>
</g>
<!-- Node21&#45;&gt;Node15 -->
<g id="edge22_Node000021_Node000015" class="edge">
<title>Node21&#45;&gt;Node15</title>
<g id="a_edge22_Node000021_Node000015"><a xlink:title=" ">
<path fill="none" stroke="#63b8ff" d="M392.09,-95.2C397.59,-97.54 403.12,-100.31 408,-103.5 426.94,-115.89 424.45,-128.1 444,-139.5 447.72,-141.67 451.69,-143.6 455.79,-145.32"/>
<polygon fill="#63b8ff" stroke="#63b8ff" points="454.9,-148.72 465.49,-148.94 457.35,-142.16 454.9,-148.72"/>
</a>
</g>
</g>
<!-- Node21&#45;&gt;Node19 -->
<g id="edge23_Node000021_Node000019" class="edge">
<title>Node21&#45;&gt;Node19</title>
<g id="a_edge23_Node000021_Node000019"><a xlink:title=" ">
<path fill="none" stroke="#63b8ff" d="M401.94,-95.05C420.63,-99.53 443.1,-104.9 462.87,-109.63"/>
<polygon fill="#63b8ff" stroke="#63b8ff" points="462.1,-113.04 472.64,-111.97 463.73,-106.23 462.1,-113.04"/>
</a>
</g>
</g>
<!-- Node21&#45;&gt;Node20 -->
<g id="edge24_Node000021_Node000020" class="edge">
<title>Node21&#45;&gt;Node20</title>
<g id="a_edge24_Node000021_Node000020"><a xlink:title=" ">
<path fill="none" stroke="#63b8ff" d="M399.98,-75.91C426.07,-69.32 460.16,-60.71 483.96,-54.71"/>
<polygon fill="#63b8ff" stroke="#63b8ff" points="484.94,-58.07 493.78,-52.23 483.23,-51.28 484.94,-58.07"/>
</a>
</g>
</g>
</g>
</svg>

<g id="navigator" transform="translate(0 0)" fill="#404254">
  <rect fill="#f2f5e9" fill-opacity="0.5" stroke="#606060" stroke-width=".5" x="0" y="0" width="60" height="60"/>
  <use id="zoomplus" xlink:href="#zoomPlus" x="17" y="9" onmousedown="handleZoom(evt,'in')"/>
  <use id="zoomminus" xlink:href="#zoomMin" x="42" y="9" onmousedown="handleZoom(evt,'out')"/>
  <use id="reset" xlink:href="#resetDef" x="30" y="36" onmousedown="handleReset()"/>
   <use id="arrowup" xlink:href="#arrowUp" x="0" y="0" onmousedown="handlePan(0,-1)"/>
  <use id="arrowright" xlink:href="#arrowRight" x="0" y="0" onmousedown="handlePan(1,0)"/>
  <use id="arrowdown" xlink:href="#arrowDown" x="0" y="0" onmousedown="handlePan(0,1)"/>
  <use id="arrowleft" xlink:href="#arrowLeft" x="0" y="0" onmousedown="handlePan(-1,0)"/>
</g>
<svg viewBox="0 0 15 15" width="100%" height="30px" preserveAspectRatio="xMaxYMin meet">
 <g id="arrow_out" transform="scale(0.3 0.3)">
  <a xlink:href="cpu__vehicles__camera__path_8h_a94fbb4c25911b6d5620c4b560898833f_cgraph_org.svg" target="_base">
   <rect id="button" ry="5" rx="5" y="6" x="6" height="38" width="38"
        fill="#f2f5e9" fill-opacity="0.5" stroke="#606060" stroke-width="1.0"/>
   <path id="arrow"
     d="M 11.500037,31.436501 C 11.940474,20.09759 22.043105,11.32322 32.158766,21.979434 L 37.068811,17.246167 C 37.068811,17.246167 37.088388,32 37.088388,32 L 22.160133,31.978069 C 22.160133,31.978069 26.997745,27.140456 26.997745,27.140456 C 18.528582,18.264221 13.291696,25.230495 11.500037,31.436501 z"
     style="fill:#404040;"/>
  </a>
 </g>
</svg>

<style type='text/css'>
<![CDATA[
[data-mouse-over-selected='false'] { opacity: 0.7; }
[data-mouse-over-selected='true']  { opacity: 1.0; }
]]>
</style>
<script type="application/ecmascript"><![CDATA[
document.addEventListener('DOMContentLoaded', (event) => {
  highlightEdges();
  highlightAdjacentNodes();
});
]]></script>
</svg>
