<?xml version="1.0" encoding="UTF-8" standalone="no"?>
<!DOCTYPE svg PUBLIC "-//W3C//DTD SVG 1.1//EN"
 "http://www.w3.org/Graphics/SVG/1.1/DTD/svg11.dtd">
<!-- Generated by graphviz version 2.43.0 (0)
 -->
<!-- Title: courses/double_deck/course_textures.linkonly.c Pages: 1 -->
<svg width="516pt" height="214pt"
 viewBox="0.00 0.00 516.00 214.00" xmlns="http://www.w3.org/2000/svg" xmlns:xlink="http://www.w3.org/1999/xlink">
<g id="graph0" class="graph" transform="scale(1 1) rotate(0) translate(4 210)">
<title>courses/double_deck/course_textures.linkonly.c</title>
<!-- Node1 -->
<g id="Node000001" class="node">
<title>Node1</title>
<g id="a_Node000001"><a xlink:title=" ">
<polygon fill="#999999" stroke="#666666" points="321,-206 175,-206 175,-176 321,-176 321,-206"/>
<text text-anchor="start" x="183" y="-194" font-family="Helvetica,sans-Serif" font-size="10.00">courses/double_deck</text>
<text text-anchor="middle" x="248" y="-183" font-family="Helvetica,sans-Serif" font-size="10.00">/course_textures.linkonly.c</text>
</a>
</g>
</g>
<!-- Node2 -->
<g id="Node000002" class="node">
<title>Node2</title>
<g id="a_Node000002"><a xlink:href="double__deck_2course__textures_8linkonly_8h.html" target="_top" xlink:title=" ">
<polygon fill="white" stroke="#666666" points="146,-140 0,-140 0,-110 146,-110 146,-140"/>
<text text-anchor="start" x="8" y="-128" font-family="Helvetica,sans-Serif" font-size="10.00">courses/double_deck</text>
<text text-anchor="middle" x="73" y="-117" font-family="Helvetica,sans-Serif" font-size="10.00">/course_textures.linkonly.h</text>
</a>
</g>
</g>
<!-- Node1&#45;&gt;Node2 -->
<g id="edge1_Node000001_Node000002" class="edge">
<title>Node1&#45;&gt;Node2</title>
<g id="a_edge1_Node000001_Node000002"><a xlink:title=" ">
<path fill="none" stroke="#63b8ff" d="M209.6,-175.95C183.49,-166.41 148.78,-153.71 120.87,-143.51"/>
<polygon fill="#63b8ff" stroke="#63b8ff" points="121.91,-140.16 111.31,-140.01 119.5,-146.73 121.91,-140.16"/>
</a>
</g>
</g>
<!-- Node6 -->
<g id="Node000006" class="node">
<title>Node6</title>
<g id="a_Node000006"><a xlink:title=" ">
<polygon fill="#e0e0e0" stroke="#999999" points="332,-140 164,-140 164,-110 332,-110 332,-140"/>
<text text-anchor="start" x="172" y="-128" font-family="Helvetica,sans-Serif" font-size="10.00">textures/standalone</text>
<text text-anchor="middle" x="248" y="-117" font-family="Helvetica,sans-Serif" font-size="10.00">/gray_cobblestone.rgba16.inc.c</text>
</a>
</g>
</g>
<!-- Node1&#45;&gt;Node6 -->
<g id="edge6_Node000001_Node000006" class="edge">
<title>Node1&#45;&gt;Node6</title>
<g id="a_edge6_Node000001_Node000006"><a xlink:title=" ">
<path fill="none" stroke="#63b8ff" d="M248,-175.8C248,-168.34 248,-158.99 248,-150.41"/>
<polygon fill="#63b8ff" stroke="#63b8ff" points="251.5,-150.16 248,-140.16 244.5,-150.16 251.5,-150.16"/>
</a>
</g>
</g>
<!-- Node7 -->
<g id="Node000007" class="node">
<title>Node7</title>
<g id="a_Node000007"><a xlink:title=" ">
<polygon fill="#e0e0e0" stroke="#999999" points="508,-140 350,-140 350,-110 508,-110 508,-140"/>
<text text-anchor="start" x="358" y="-128" font-family="Helvetica,sans-Serif" font-size="10.00">textures/standalone</text>
<text text-anchor="middle" x="429" y="-117" font-family="Helvetica,sans-Serif" font-size="10.00">/texture_642978.rgba16.inc.c</text>
</a>
</g>
</g>
<!-- Node1&#45;&gt;Node7 -->
<g id="edge7_Node000001_Node000007" class="edge">
<title>Node1&#45;&gt;Node7</title>
<g id="a_edge7_Node000001_Node000007"><a xlink:title=" ">
<path fill="none" stroke="#63b8ff" d="M287.72,-175.95C314.83,-166.37 350.94,-153.6 379.86,-143.37"/>
<polygon fill="#63b8ff" stroke="#63b8ff" points="381.11,-146.65 389.37,-140.01 378.78,-140.05 381.11,-146.65"/>
</a>
</g>
</g>
<!-- Node3 -->
<g id="Node000003" class="node">
<title>Node3</title>
<g id="a_Node000003"><a xlink:href="ultratypes_8h.html" target="_top" xlink:title=" ">
<polygon fill="white" stroke="#666666" points="118.5,-74 27.5,-74 27.5,-55 118.5,-55 118.5,-74"/>
<text text-anchor="middle" x="73" y="-62" font-family="Helvetica,sans-Serif" font-size="10.00">PR/ultratypes.h</text>
</a>
</g>
</g>
<!-- Node2&#45;&gt;Node3 -->
<g id="edge2_Node000002_Node000003" class="edge">
<title>Node2&#45;&gt;Node3</title>
<g id="a_edge2_Node000002_Node000003"><a xlink:title=" ">
<path fill="none" stroke="#63b8ff" d="M73,-109.84C73,-102.21 73,-92.7 73,-84.45"/>
<polygon fill="#63b8ff" stroke="#63b8ff" points="76.5,-84.27 73,-74.27 69.5,-84.27 76.5,-84.27"/>
</a>
</g>
</g>
<!-- Node4 -->
<g id="Node000004" class="node">
<title>Node4</title>
<g id="a_Node000004"><a xlink:href="stddef_8h.html" target="_top" xlink:title=" ">
<polygon fill="white" stroke="#666666" points="101,-19 45,-19 45,0 101,0 101,-19"/>
<text text-anchor="middle" x="73" y="-7" font-family="Helvetica,sans-Serif" font-size="10.00">stddef.h</text>
</a>
</g>
</g>
<!-- Node3&#45;&gt;Node4 -->
<g id="edge3_Node000003_Node000004" class="edge">
<title>Node3&#45;&gt;Node4</title>
<g id="a_edge3_Node000003_Node000004"><a xlink:title=" ">
<path fill="none" stroke="#63b8ff" d="M67.83,-54.75C66.34,-47.8 65.9,-37.85 66.52,-29.13"/>
<polygon fill="#63b8ff" stroke="#63b8ff" points="70.01,-29.47 67.87,-19.09 63.07,-28.53 70.01,-29.47"/>
</a>
</g>
</g>
<!-- Node5 -->
<g id="Node000005" class="node">
<title>Node5</title>
<g id="a_Node000005"><a xlink:title=" ">
<polygon fill="#e0e0e0" stroke="#999999" points="172.5,-19 119.5,-19 119.5,0 172.5,0 172.5,-19"/>
<text text-anchor="middle" x="146" y="-7" font-family="Helvetica,sans-Serif" font-size="10.00">stdint.h</text>
</a>
</g>
</g>
<!-- Node3&#45;&gt;Node5 -->
<g id="edge5_Node000003_Node000005" class="edge">
<title>Node3&#45;&gt;Node5</title>
<g id="a_edge5_Node000003_Node000005"><a xlink:title=" ">
<path fill="none" stroke="#63b8ff" d="M84.73,-54.98C95.73,-47 112.42,-34.88 125.6,-25.31"/>
<polygon fill="#63b8ff" stroke="#63b8ff" points="128.02,-27.88 134.06,-19.17 123.91,-22.21 128.02,-27.88"/>
</a>
</g>
</g>
<!-- Node4&#45;&gt;Node3 -->
<g id="edge4_Node000004_Node000003" class="edge">
<title>Node4&#45;&gt;Node3</title>
<g id="a_edge4_Node000004_Node000003"><a xlink:title=" ">
<path fill="none" stroke="#63b8ff" d="M78.13,-19.09C79.64,-25.99 80.09,-35.93 79.49,-44.66"/>
<polygon fill="#63b8ff" stroke="#63b8ff" points="76,-44.38 78.17,-54.75 82.94,-45.29 76,-44.38"/>
</a>
</g>
</g>
</g>
</svg>
