<?xml version="1.0" encoding="UTF-8" standalone="no"?>
<!DOCTYPE svg PUBLIC "-//W3C//DTD SVG 1.1//EN"
 "http://www.w3.org/Graphics/SVG/1.1/DTD/svg11.dtd">
<!-- Generated by graphviz version 2.43.0 (0)
 -->
<!-- Title: add_spinout_effect Pages: 1 -->
<!--zoomable 659 -->

<svg id="main" version="1.1" xmlns="http://www.w3.org/2000/svg" xmlns:xlink="http://www.w3.org/1999/xlink" xml:space="preserve" onload="init(evt)">
<style type="text/css"><![CDATA[
.node, .edge {opacity: 0.7;}
.node.selected, .edge.selected {opacity: 1;}
.edge:hover path { stroke: red; }
.edge:hover polygon { stroke: red; fill: red; }
]]></style>

<defs>
  <circle id="rim" cx="0" cy="0" r="7"/>
  <circle id="rim2" cx="0" cy="0" r="3.5"/>
  <g id="zoomPlus">
    <use xlink:href="#rim" fill="#404040"><set attributeName="fill" to="#808080" begin="zoomplus.mouseover" end="zoomplus.mouseout"/></use>
    <path d="M-4,0h8M0,-4v8" fill="none" stroke="white" stroke-width="1.5" pointer-events="none"/>
  </g>
  <g id="zoomMin">
    <use xlink:href="#rim" fill="#404040"><set attributeName="fill" to="#808080" begin="zoomminus.mouseover" end="zoomminus.mouseout"/></use>
    <path d="M-4,0h8" fill="none" stroke="white" stroke-width="1.5" pointer-events="none"/>
  </g>
  <g id="arrowUp" transform="translate(30 24)">
    <use xlink:href="#rim"/>
    <path pointer-events="none" fill="none" stroke="white" stroke-width="1.5" d="M0,-3.0v7 M-2.5,-0.5L0,-3.0L2.5,-0.5"/>
  </g>
  <g id="arrowRight" transform="rotate(90) translate(36 -43)">
    <use xlink:href="#rim"/>
    <path pointer-events="none" fill="none" stroke="white" stroke-width="1.5" d="M0,-3.0v7 M-2.5,-0.5L0,-3.0L2.5,-0.5"/>
  </g>
  <g id="arrowDown" transform="rotate(180) translate(-30 -48)">
    <use xlink:href="#rim"/>
    <path pointer-events="none" fill="none" stroke="white" stroke-width="1.5" d="M0,-3.0v7 M-2.5,-0.5L0,-3.0L2.5,-0.5"/>
  </g>
  <g id="arrowLeft" transform="rotate(270) translate(-36 17)">
    <use xlink:href="#rim"/>
    <path pointer-events="none" fill="none" stroke="white" stroke-width="1.5" d="M0,-3.0v7 M-2.5,-0.5L0,-3.0L2.5,-0.5"/>
  </g>
  <g id="resetDef">
    <use xlink:href="#rim2" fill="#404040"><set attributeName="fill" to="#808080" begin="reset.mouseover" end="reset.mouseout"/></use>
  </g>
</defs>
<script type="application/ecmascript">
var viewWidth = 860;
var viewHeight = 659;
var sectionId = 'dynsection-2';
</script>
<script type="application/ecmascript" xlink:href="svg.min.js"/>
<svg id="graph" class="graph">
<g id="viewport">
<title>add_spinout_effect</title>
<!-- Node1 -->
<g id="Node000001" class="node">
<title>Node1</title>
<g id="a_Node000001"><a xlink:title=" ">
<polygon fill="#999999" stroke="#666666" points="109,-76 0,-76 0,-57 109,-57 109,-76"/>
<text text-anchor="middle" x="54.5" y="-64" font-family="Helvetica,sans-Serif" font-size="10.00">add_spinout_effect</text>
</a>
</g>
</g>
<!-- Node2 -->
<g id="Node000002" class="node">
<title>Node2</title>
<g id="a_Node000002"><a xlink:href="effects_8c.html#a6559cc02e5bb1a4e7fe6c97850cdd87e" target="_top" xlink:title=" ">
<polygon fill="white" stroke="#666666" points="247,-386 171,-386 171,-367 247,-367 247,-386"/>
<text text-anchor="middle" x="209" y="-374" font-family="Helvetica,sans-Serif" font-size="10.00">clean_effect</text>
</a>
</g>
</g>
<!-- Node1&#45;&gt;Node2 -->
<g id="edge1_Node000001_Node000002" class="edge">
<title>Node1&#45;&gt;Node2</title>
<g id="a_edge1_Node000001_Node000002"><a xlink:title=" ">
<path fill="none" stroke="#63b8ff" d="M60.23,-76.12C81.67,-119.69 169.89,-299.03 198.79,-357.77"/>
<polygon fill="#63b8ff" stroke="#63b8ff" points="195.77,-359.57 203.32,-366.99 202.05,-356.48 195.77,-359.57"/>
</a>
</g>
</g>
<!-- Node21 -->
<g id="Node000021" class="node">
<title>Node21</title>
<g id="a_Node000021"><a xlink:href="external_8c.html#a337fc3ab94ebb3293a85908229303ac8" target="_top" xlink:title=" ">
<polygon fill="white" stroke="#666666" points="605,-95 513,-95 513,-76 605,-76 605,-95"/>
<text text-anchor="middle" x="559" y="-83" font-family="Helvetica,sans-Serif" font-size="10.00">func_800C90F4</text>
</a>
</g>
</g>
<!-- Node1&#45;&gt;Node21 -->
<g id="edge20_Node000001_Node000021" class="edge">
<title>Node1&#45;&gt;Node21</title>
<g id="a_edge20_Node000001_Node000021"><a xlink:title=" ">
<path fill="none" stroke="#63b8ff" d="M109.28,-68.53C205.28,-72.16 405.2,-79.72 502.46,-83.4"/>
<polygon fill="#63b8ff" stroke="#63b8ff" points="502.55,-86.91 512.67,-83.79 502.81,-79.91 502.55,-86.91"/>
</a>
</g>
</g>
<!-- Node22 -->
<g id="Node000022" class="node">
<title>Node22</title>
<g id="a_Node000022"><a xlink:href="cpu__vehicles__camera__path_8c.html#adb9b8cd30f2be4e125706fa55ea2272d" target="_top" xlink:title=" ">
<polygon fill="white" stroke="#666666" points="273,-38 145,-38 145,-19 273,-19 273,-38"/>
<text text-anchor="middle" x="209" y="-26" font-family="Helvetica,sans-Serif" font-size="10.00">play_cpu_sound_effect</text>
</a>
</g>
</g>
<!-- Node1&#45;&gt;Node22 -->
<g id="edge22_Node000001_Node000022" class="edge">
<title>Node1&#45;&gt;Node22</title>
<g id="a_edge22_Node000001_Node000022"><a xlink:title=" ">
<path fill="none" stroke="#63b8ff" d="M93.98,-56.91C114.02,-51.92 138.7,-45.77 159.98,-40.47"/>
<polygon fill="#63b8ff" stroke="#63b8ff" points="160.94,-43.83 169.79,-38.02 159.24,-37.04 160.94,-43.83"/>
</a>
</g>
</g>
<!-- Node3 -->
<g id="Node000003" class="node">
<title>Node3</title>
<g id="a_Node000003"><a xlink:href="effects_8c.html#a7fef1af5ca366a9346478d94239c6142" target="_top" xlink:title=" ">
<polygon fill="white" stroke="#666666" points="434.5,-651 341.5,-651 341.5,-632 434.5,-632 434.5,-651"/>
<text text-anchor="middle" x="388" y="-639" font-family="Helvetica,sans-Serif" font-size="10.00">func_8008C6D0</text>
</a>
</g>
</g>
<!-- Node2&#45;&gt;Node3 -->
<g id="edge2_Node000002_Node000003" class="edge">
<title>Node2&#45;&gt;Node3</title>
<g id="a_edge2_Node000002_Node000003"><a xlink:title=" ">
<path fill="none" stroke="#63b8ff" d="M210.77,-386.11C214.25,-423.1 231.98,-557.54 309,-623.5 315.45,-629.02 323.26,-632.93 331.42,-635.69"/>
<polygon fill="#63b8ff" stroke="#63b8ff" points="330.52,-639.07 341.1,-638.42 332.42,-632.34 330.52,-639.07"/>
</a>
</g>
</g>
<!-- Node4 -->
<g id="Node000004" class="node">
<title>Node4</title>
<g id="a_Node000004"><a xlink:href="effects_8c.html#a5f19eaaa048055d292d02c717e635786" target="_top" xlink:title=" ">
<polygon fill="white" stroke="#666666" points="434,-614 342,-614 342,-595 434,-595 434,-614"/>
<text text-anchor="middle" x="388" y="-602" font-family="Helvetica,sans-Serif" font-size="10.00">func_8008D760</text>
</a>
</g>
</g>
<!-- Node2&#45;&gt;Node4 -->
<g id="edge3_Node000002_Node000004" class="edge">
<title>Node2&#45;&gt;Node4</title>
<g id="a_edge3_Node000002_Node000004"><a xlink:title=" ">
<path fill="none" stroke="#63b8ff" d="M211.53,-386.28C217.34,-419.92 241.22,-531.86 309,-586.5 315.69,-591.89 323.69,-595.73 331.99,-598.45"/>
<polygon fill="#63b8ff" stroke="#63b8ff" points="331.23,-601.87 341.8,-601.15 333.09,-595.12 331.23,-601.87"/>
</a>
</g>
</g>
<!-- Node5 -->
<g id="Node000005" class="node">
<title>Node5</title>
<g id="a_Node000005"><a xlink:href="effects_8c.html#a4ea2da0616ee3c475e4be217dc0bc71f" target="_top" xlink:title=" ">
<polygon fill="white" stroke="#666666" points="434.5,-577 341.5,-577 341.5,-558 434.5,-558 434.5,-577"/>
<text text-anchor="middle" x="388" y="-565" font-family="Helvetica,sans-Serif" font-size="10.00">func_8008D97C</text>
</a>
</g>
</g>
<!-- Node2&#45;&gt;Node5 -->
<g id="edge4_Node000002_Node000005" class="edge">
<title>Node2&#45;&gt;Node5</title>
<g id="a_edge4_Node000002_Node000005"><a xlink:title=" ">
<path fill="none" stroke="#63b8ff" d="M212.55,-386.2C220.86,-415.82 250.11,-505.75 309,-549.5 315.66,-554.45 323.46,-558.07 331.5,-560.71"/>
<polygon fill="#63b8ff" stroke="#63b8ff" points="330.8,-564.15 341.37,-563.47 332.69,-557.41 330.8,-564.15"/>
</a>
</g>
</g>
<!-- Node6 -->
<g id="Node000006" class="node">
<title>Node6</title>
<g id="a_Node000006"><a xlink:href="effects_8c.html#a13005f7c39388deade6ba0491d7c5918" target="_top" xlink:title=" ">
<polygon fill="white" stroke="#666666" points="433.5,-540 342.5,-540 342.5,-521 433.5,-521 433.5,-540"/>
<text text-anchor="middle" x="388" y="-528" font-family="Helvetica,sans-Serif" font-size="10.00">func_8008E884</text>
</a>
</g>
</g>
<!-- Node2&#45;&gt;Node6 -->
<g id="edge5_Node000002_Node000006" class="edge">
<title>Node2&#45;&gt;Node6</title>
<g id="a_edge5_Node000002_Node000006"><a xlink:title=" ">
<path fill="none" stroke="#63b8ff" d="M214.11,-386.24C225.29,-411.48 258.82,-479.32 309,-512.5 316.08,-517.18 324.23,-520.66 332.52,-523.23"/>
<polygon fill="#63b8ff" stroke="#63b8ff" points="331.71,-526.64 342.28,-525.86 333.53,-519.88 331.71,-526.64"/>
</a>
</g>
</g>
<!-- Node7 -->
<g id="Node000007" class="node">
<title>Node7</title>
<g id="a_Node000007"><a xlink:href="effects_8c.html#ae02351b6bbb678b552ec8864b47fc56c" target="_top" xlink:title=" ">
<polygon fill="white" stroke="#666666" points="433.5,-503 342.5,-503 342.5,-484 433.5,-484 433.5,-503"/>
<text text-anchor="middle" x="388" y="-491" font-family="Helvetica,sans-Serif" font-size="10.00">func_8008F3E0</text>
</a>
</g>
</g>
<!-- Node2&#45;&gt;Node7 -->
<g id="edge6_Node000002_Node000007" class="edge">
<title>Node2&#45;&gt;Node7</title>
<g id="a_edge6_Node000002_Node000007"><a xlink:title=" ">
<path fill="none" stroke="#63b8ff" d="M216.68,-386.15C231.07,-406.17 267.12,-452.29 309,-475.5 316.17,-479.48 324.18,-482.57 332.26,-484.99"/>
<polygon fill="#63b8ff" stroke="#63b8ff" points="331.54,-488.42 342.1,-487.61 333.34,-481.65 331.54,-488.42"/>
</a>
</g>
</g>
<!-- Node8 -->
<g id="Node000008" class="node">
<title>Node8</title>
<g id="a_Node000008"><a xlink:href="effects_8c.html#ab5125d5944958f891647b27b440d3d62" target="_top" xlink:title=" ">
<polygon fill="white" stroke="#666666" points="434,-466 342,-466 342,-447 434,-447 434,-466"/>
<text text-anchor="middle" x="388" y="-454" font-family="Helvetica,sans-Serif" font-size="10.00">func_8008F5A4</text>
</a>
</g>
</g>
<!-- Node2&#45;&gt;Node8 -->
<g id="edge7_Node000002_Node000008" class="edge">
<title>Node2&#45;&gt;Node8</title>
<g id="a_edge7_Node000002_Node000008"><a xlink:title=" ">
<path fill="none" stroke="#63b8ff" d="M222.38,-386.18C240.43,-399.82 275.47,-424.59 309,-438.5 316.22,-441.49 324.03,-444.04 331.83,-446.2"/>
<polygon fill="#63b8ff" stroke="#63b8ff" points="331.1,-449.62 341.65,-448.71 332.84,-442.84 331.1,-449.62"/>
</a>
</g>
</g>
<!-- Node13 -->
<g id="Node000013" class="node">
<title>Node13</title>
<g id="a_Node000013"><a xlink:href="effects_8c.html#a2f183005a5e85816dd81508847c1904d" target="_top" xlink:title=" ">
<polygon fill="white" stroke="#666666" points="434.5,-429 341.5,-429 341.5,-410 434.5,-410 434.5,-429"/>
<text text-anchor="middle" x="388" y="-417" font-family="Helvetica,sans-Serif" font-size="10.00">func_8008FEDC</text>
</a>
</g>
</g>
<!-- Node2&#45;&gt;Node13 -->
<g id="edge12_Node000002_Node000013" class="edge">
<title>Node2&#45;&gt;Node13</title>
<g id="a_edge12_Node000002_Node000013"><a xlink:title=" ">
<path fill="none" stroke="#63b8ff" d="M247.11,-385.51C273.49,-391.92 309.21,-400.6 337.95,-407.58"/>
<polygon fill="#63b8ff" stroke="#63b8ff" points="337.25,-411.02 347.8,-409.98 338.9,-404.21 337.25,-411.02"/>
</a>
</g>
</g>
<!-- Node14 -->
<g id="Node000014" class="node">
<title>Node14</title>
<g id="a_Node000014"><a xlink:href="effects_8c.html#acbb1f27649a63227fcf0dd1f17dfa096" target="_top" xlink:title=" ">
<polygon fill="white" stroke="#666666" points="449,-391.5 327,-391.5 327,-361.5 449,-361.5 449,-391.5"/>
<text text-anchor="start" x="335" y="-379.5" font-family="Helvetica,sans-Serif" font-size="10.00">remove_banana_near</text>
<text text-anchor="middle" x="388" y="-368.5" font-family="Helvetica,sans-Serif" font-size="10.00">_spinout_effect</text>
</a>
</g>
</g>
<!-- Node2&#45;&gt;Node14 -->
<g id="edge13_Node000002_Node000014" class="edge">
<title>Node2&#45;&gt;Node14</title>
<g id="a_edge13_Node000002_Node000014"><a xlink:title=" ">
<path fill="none" stroke="#63b8ff" d="M247.11,-376.5C267.33,-376.5 293.03,-376.5 316.87,-376.5"/>
<polygon fill="#63b8ff" stroke="#63b8ff" points="316.96,-380 326.96,-376.5 316.96,-373 316.96,-380"/>
</a>
</g>
</g>
<!-- Node15 -->
<g id="Node000015" class="node">
<title>Node15</title>
<g id="a_Node000015"><a xlink:href="effects_8c.html#a4768d56263e476d3bac47ee01bac3dc8" target="_top" xlink:title=" ">
<polygon fill="white" stroke="#666666" points="467,-343.5 309,-343.5 309,-313.5 467,-313.5 467,-343.5"/>
<text text-anchor="start" x="317" y="-331.5" font-family="Helvetica,sans-Serif" font-size="10.00">remove_boost_ramp_asphalt</text>
<text text-anchor="middle" x="388" y="-320.5" font-family="Helvetica,sans-Serif" font-size="10.00">_effect</text>
</a>
</g>
</g>
<!-- Node2&#45;&gt;Node15 -->
<g id="edge14_Node000002_Node000015" class="edge">
<title>Node2&#45;&gt;Node15</title>
<g id="a_edge14_Node000002_Node000015"><a xlink:title=" ">
<path fill="none" stroke="#63b8ff" d="M245.39,-366.9C267.22,-360.98 295.89,-353.21 321.72,-346.2"/>
<polygon fill="#63b8ff" stroke="#63b8ff" points="322.72,-349.56 331.46,-343.56 320.89,-342.8 322.72,-349.56"/>
</a>
</g>
</g>
<!-- Node16 -->
<g id="Node000016" class="node">
<title>Node16</title>
<g id="a_Node000016"><a xlink:href="effects_8c.html#aafe14c45e9b91bb1d409ef2f2bfe5c53" target="_top" xlink:title=" ">
<polygon fill="white" stroke="#666666" points="462.5,-295.5 313.5,-295.5 313.5,-265.5 462.5,-265.5 462.5,-295.5"/>
<text text-anchor="start" x="321.5" y="-283.5" font-family="Helvetica,sans-Serif" font-size="10.00">remove_boost_ramp_wood</text>
<text text-anchor="middle" x="388" y="-272.5" font-family="Helvetica,sans-Serif" font-size="10.00">_effect</text>
</a>
</g>
</g>
<!-- Node2&#45;&gt;Node16 -->
<g id="edge15_Node000002_Node000016" class="edge">
<title>Node2&#45;&gt;Node16</title>
<g id="a_edge15_Node000002_Node000016"><a xlink:title=" ">
<path fill="none" stroke="#63b8ff" d="M220.79,-366.77C238.18,-351.53 274.02,-321.99 309,-304.5 312.78,-302.61 316.73,-300.84 320.77,-299.18"/>
<polygon fill="#63b8ff" stroke="#63b8ff" points="322.24,-302.36 330.32,-295.5 319.73,-295.83 322.24,-302.36"/>
</a>
</g>
</g>
<!-- Node17 -->
<g id="Node000017" class="node">
<title>Node17</title>
<g id="a_Node000017"><a xlink:href="effects_8c.html#a9ff5c732ea8ba59908ccf62ff441e7e4" target="_top" xlink:title=" ">
<polygon fill="white" stroke="#666666" points="448,-247.5 328,-247.5 328,-217.5 448,-217.5 448,-247.5"/>
<text text-anchor="start" x="336" y="-235.5" font-family="Helvetica,sans-Serif" font-size="10.00">remove_driving_near</text>
<text text-anchor="middle" x="388" y="-224.5" font-family="Helvetica,sans-Serif" font-size="10.00">_spinout_effect</text>
</a>
</g>
</g>
<!-- Node2&#45;&gt;Node17 -->
<g id="edge16_Node000002_Node000017" class="edge">
<title>Node2&#45;&gt;Node17</title>
<g id="a_edge16_Node000002_Node000017"><a xlink:title=" ">
<path fill="none" stroke="#63b8ff" d="M215.3,-366.78C228.23,-344.01 263.66,-286.84 309,-256.5 312.07,-254.45 315.31,-252.57 318.68,-250.84"/>
<polygon fill="#63b8ff" stroke="#63b8ff" points="320.19,-254 327.8,-246.63 317.25,-247.64 320.19,-254"/>
</a>
</g>
</g>
<!-- Node18 -->
<g id="Node000018" class="node">
<title>Node18</title>
<g id="a_Node000018"><a xlink:href="effects_8c.html#a5f1aead641683fd07375d6737dfafac2" target="_top" xlink:title=" ">
<polygon fill="white" stroke="#666666" points="444.5,-199.5 331.5,-199.5 331.5,-169.5 444.5,-169.5 444.5,-199.5"/>
<text text-anchor="start" x="339.5" y="-187.5" font-family="Helvetica,sans-Serif" font-size="10.00">remove_hit_by_star</text>
<text text-anchor="middle" x="388" y="-176.5" font-family="Helvetica,sans-Serif" font-size="10.00">_effect</text>
</a>
</g>
</g>
<!-- Node2&#45;&gt;Node18 -->
<g id="edge17_Node000002_Node000018" class="edge">
<title>Node2&#45;&gt;Node18</title>
<g id="a_edge17_Node000002_Node000018"><a xlink:title=" ">
<path fill="none" stroke="#63b8ff" d="M212.9,-366.86C222.04,-338.19 252.94,-252.77 309,-208.5 313,-205.34 317.41,-202.6 322.04,-200.22"/>
<polygon fill="#63b8ff" stroke="#63b8ff" points="323.52,-203.39 331.17,-196.06 320.62,-197.02 323.52,-203.39"/>
</a>
</g>
</g>
<!-- Node19 -->
<g id="Node000019" class="node">
<title>Node19</title>
<g id="a_Node000019"><a xlink:href="effects_8c.html#a9be2cc0ebbe72a9d5276a4fd2675eef3" target="_top" xlink:title=" ">
<polygon fill="white" stroke="#666666" points="460.5,-151 315.5,-151 315.5,-132 460.5,-132 460.5,-151"/>
<text text-anchor="middle" x="388" y="-139" font-family="Helvetica,sans-Serif" font-size="10.00">remove_mushroom_effect</text>
</a>
</g>
</g>
<!-- Node2&#45;&gt;Node19 -->
<g id="edge18_Node000002_Node000019" class="edge">
<title>Node2&#45;&gt;Node19</title>
<g id="a_edge18_Node000002_Node000019"><a xlink:title=" ">
<path fill="none" stroke="#63b8ff" d="M211.39,-366.96C216.83,-333.06 239.96,-217.48 309,-160.5 311.02,-158.83 313.17,-157.3 315.41,-155.91"/>
<polygon fill="#63b8ff" stroke="#63b8ff" points="317.24,-158.9 324.46,-151.15 313.98,-152.71 317.24,-158.9"/>
</a>
</g>
</g>
<!-- Node20 -->
<g id="Node000020" class="node">
<title>Node20</title>
<g id="a_Node000020"><a xlink:href="effects_8c.html#a85a7ba2f2c97859b0090c54a68e8f003" target="_top" xlink:title=" ">
<polygon fill="white" stroke="#666666" points="455,-114 321,-114 321,-95 455,-95 455,-114"/>
<text text-anchor="middle" x="388" y="-102" font-family="Helvetica,sans-Serif" font-size="10.00">remove_spinout_effects</text>
</a>
</g>
</g>
<!-- Node2&#45;&gt;Node20 -->
<g id="edge19_Node000002_Node000020" class="edge">
<title>Node2&#45;&gt;Node20</title>
<g id="a_edge19_Node000002_Node000020"><a xlink:title=" ">
<path fill="none" stroke="#63b8ff" d="M210.69,-366.95C213.91,-329.55 230.88,-191.8 309,-123.5 310.79,-121.93 312.69,-120.49 314.67,-119.17"/>
<polygon fill="#63b8ff" stroke="#63b8ff" points="316.82,-121.98 323.85,-114.06 313.41,-115.86 316.82,-121.98"/>
</a>
</g>
</g>
<!-- Node9 -->
<g id="Node000009" class="node">
<title>Node9</title>
<g id="a_Node000009"><a xlink:href="code__80057C60_8c.html#ae28b6eb556910087cea23f0cb7a322bd" target="_top" xlink:title=" ">
<polygon fill="white" stroke="#666666" points="615,-392 503,-392 503,-373 615,-373 615,-392"/>
<text text-anchor="middle" x="559" y="-380" font-family="Helvetica,sans-Serif" font-size="10.00">pop_player_balloon</text>
</a>
</g>
</g>
<!-- Node8&#45;&gt;Node9 -->
<g id="edge8_Node000008_Node000009" class="edge">
<title>Node8&#45;&gt;Node9</title>
<g id="a_edge8_Node000008_Node000009"><a xlink:title=" ">
<path fill="none" stroke="#63b8ff" d="M434.32,-448.66C445.24,-446.06 456.71,-442.72 467,-438.5 492.58,-428.01 519.21,-410.76 537.01,-398.17"/>
<polygon fill="#63b8ff" stroke="#63b8ff" points="539.39,-400.76 545.45,-392.07 535.3,-395.09 539.39,-400.76"/>
</a>
</g>
</g>
<!-- Node10 -->
<g id="Node000010" class="node">
<title>Node10</title>
<g id="a_Node000010"><a xlink:href="effects_8c.html#a1c7552c4a370cc015c2726e40f1fdb06" target="_top" xlink:title=" ">
<polygon fill="white" stroke="#666666" points="744,-392 651,-392 651,-373 744,-373 744,-392"/>
<text text-anchor="middle" x="697.5" y="-380" font-family="Helvetica,sans-Serif" font-size="10.00">func_8008FD4C</text>
</a>
</g>
</g>
<!-- Node9&#45;&gt;Node10 -->
<g id="edge9_Node000009_Node000010" class="edge">
<title>Node9&#45;&gt;Node10</title>
<g id="a_edge9_Node000009_Node000010"><a xlink:title=" ">
<path fill="none" stroke="#63b8ff" d="M615.13,-382.5C623.54,-382.5 632.24,-382.5 640.67,-382.5"/>
<polygon fill="#63b8ff" stroke="#63b8ff" points="640.79,-386 650.79,-382.5 640.79,-379 640.79,-386"/>
</a>
</g>
</g>
<!-- Node11 -->
<g id="Node000011" class="node">
<title>Node11</title>
<g id="a_Node000011"><a xlink:href="external_8c.html#a2be9efc97a92e19d02aaee90d676acc1" target="_top" xlink:title=" ">
<polygon fill="white" stroke="#666666" points="743.5,-281 651.5,-281 651.5,-262 743.5,-262 743.5,-281"/>
<text text-anchor="middle" x="697.5" y="-269" font-family="Helvetica,sans-Serif" font-size="10.00">func_800C9060</text>
</a>
</g>
</g>
<!-- Node9&#45;&gt;Node11 -->
<g id="edge10_Node000009_Node000011" class="edge">
<title>Node9&#45;&gt;Node11</title>
<g id="a_edge10_Node000009_Node000011"><a xlink:title=" ">
<path fill="none" stroke="#63b8ff" d="M572.11,-372.65C595.65,-353.51 647.75,-311.14 676.5,-287.77"/>
<polygon fill="#63b8ff" stroke="#63b8ff" points="679.06,-290.19 684.61,-281.17 674.64,-284.76 679.06,-290.19"/>
</a>
</g>
</g>
<!-- Node12 -->
<g id="Node000012" class="node">
<title>Node12</title>
<g id="a_Node000012"><a xlink:href="external_8c.html#a475cff796211891556f52877cd8e9b9e" target="_top" xlink:title=" ">
<polygon fill="white" stroke="#666666" points="852,-95 780,-95 780,-76 852,-76 852,-95"/>
<text text-anchor="middle" x="816" y="-83" font-family="Helvetica,sans-Serif" font-size="10.00">play_sound</text>
</a>
</g>
</g>
<!-- Node11&#45;&gt;Node12 -->
<g id="edge11_Node000011_Node000012" class="edge">
<title>Node11&#45;&gt;Node12</title>
<g id="a_edge11_Node000011_Node000012"><a xlink:title=" ">
<path fill="none" stroke="#63b8ff" d="M704.6,-261.76C723.16,-232.13 779.16,-142.73 803.5,-103.87"/>
<polygon fill="#63b8ff" stroke="#63b8ff" points="806.62,-105.47 808.96,-95.14 800.69,-101.76 806.62,-105.47"/>
</a>
</g>
</g>
<!-- Node21&#45;&gt;Node12 -->
<g id="edge21_Node000021_Node000012" class="edge">
<title>Node21&#45;&gt;Node12</title>
<g id="a_edge21_Node000021_Node000012"><a xlink:title=" ">
<path fill="none" stroke="#63b8ff" d="M605,-85.5C651.39,-85.5 723.32,-85.5 769.79,-85.5"/>
<polygon fill="#63b8ff" stroke="#63b8ff" points="769.87,-89 779.87,-85.5 769.87,-82 769.87,-89"/>
</a>
</g>
</g>
<!-- Node23 -->
<g id="Node000023" class="node">
<title>Node23</title>
<g id="a_Node000023"><a xlink:href="external_8c.html#aad3025d980410fa157174acbf923f8c0" target="_top" xlink:title=" ">
<polygon fill="white" stroke="#666666" points="434.5,-38 341.5,-38 341.5,-19 434.5,-19 434.5,-38"/>
<text text-anchor="middle" x="388" y="-26" font-family="Helvetica,sans-Serif" font-size="10.00">func_800C92CC</text>
</a>
</g>
</g>
<!-- Node22&#45;&gt;Node23 -->
<g id="edge23_Node000022_Node000023" class="edge">
<title>Node22&#45;&gt;Node23</title>
<g id="a_edge23_Node000022_Node000023"><a xlink:title=" ">
<path fill="none" stroke="#63b8ff" d="M273.4,-28.5C292.23,-28.5 312.71,-28.5 331.03,-28.5"/>
<polygon fill="#63b8ff" stroke="#63b8ff" points="331.25,-32 341.25,-28.5 331.25,-25 331.25,-32"/>
</a>
</g>
</g>
<!-- Node23&#45;&gt;Node12 -->
<g id="edge25_Node000023_Node000012" class="edge">
<title>Node23&#45;&gt;Node12</title>
<g id="a_edge25_Node000023_Node000012"><a xlink:title=" ">
<path fill="none" stroke="#63b8ff" d="M434.59,-34.6C516.62,-45.58 688.12,-68.52 769.84,-79.46"/>
<polygon fill="#63b8ff" stroke="#63b8ff" points="769.44,-82.94 779.82,-80.79 770.37,-76 769.44,-82.94"/>
</a>
</g>
</g>
<!-- Node24 -->
<g id="Node000024" class="node">
<title>Node24</title>
<g id="a_Node000024"><a xlink:href="external_8c.html#a747de0be4005b4b29150d5c068564b7d" target="_top" xlink:title=" ">
<polygon fill="white" stroke="#666666" points="605,-19 513,-19 513,0 605,0 605,-19"/>
<text text-anchor="middle" x="559" y="-7" font-family="Helvetica,sans-Serif" font-size="10.00">func_800C1C88</text>
</a>
</g>
</g>
<!-- Node23&#45;&gt;Node24 -->
<g id="edge24_Node000023_Node000024" class="edge">
<title>Node23&#45;&gt;Node24</title>
<g id="a_edge24_Node000023_Node000024"><a xlink:title=" ">
<path fill="none" stroke="#63b8ff" d="M434.73,-23.36C455.66,-21.01 480.64,-18.2 502.62,-15.73"/>
<polygon fill="#63b8ff" stroke="#63b8ff" points="503.27,-19.18 512.82,-14.58 502.49,-12.22 503.27,-19.18"/>
</a>
</g>
</g>
</g>
</svg>

<g id="navigator" transform="translate(0 0)" fill="#404254">
  <rect fill="#f2f5e9" fill-opacity="0.5" stroke="#606060" stroke-width=".5" x="0" y="0" width="60" height="60"/>
  <use id="zoomplus" xlink:href="#zoomPlus" x="17" y="9" onmousedown="handleZoom(evt,'in')"/>
  <use id="zoomminus" xlink:href="#zoomMin" x="42" y="9" onmousedown="handleZoom(evt,'out')"/>
  <use id="reset" xlink:href="#resetDef" x="30" y="36" onmousedown="handleReset()"/>
   <use id="arrowup" xlink:href="#arrowUp" x="0" y="0" onmousedown="handlePan(0,-1)"/>
  <use id="arrowright" xlink:href="#arrowRight" x="0" y="0" onmousedown="handlePan(1,0)"/>
  <use id="arrowdown" xlink:href="#arrowDown" x="0" y="0" onmousedown="handlePan(0,1)"/>
  <use id="arrowleft" xlink:href="#arrowLeft" x="0" y="0" onmousedown="handlePan(-1,0)"/>
</g>
<svg viewBox="0 0 15 15" width="100%" height="30px" preserveAspectRatio="xMaxYMin meet">
 <g id="arrow_out" transform="scale(0.3 0.3)">
  <a xlink:href="effects_8h_a8183be4122a34554f4272b8398f649f4_cgraph_org.svg" target="_base">
   <rect id="button" ry="5" rx="5" y="6" x="6" height="38" width="38"
        fill="#f2f5e9" fill-opacity="0.5" stroke="#606060" stroke-width="1.0"/>
   <path id="arrow"
     d="M 11.500037,31.436501 C 11.940474,20.09759 22.043105,11.32322 32.158766,21.979434 L 37.068811,17.246167 C 37.068811,17.246167 37.088388,32 37.088388,32 L 22.160133,31.978069 C 22.160133,31.978069 26.997745,27.140456 26.997745,27.140456 C 18.528582,18.264221 13.291696,25.230495 11.500037,31.436501 z"
     style="fill:#404040;"/>
  </a>
 </g>
</svg>

<style type='text/css'>
<![CDATA[
[data-mouse-over-selected='false'] { opacity: 0.7; }
[data-mouse-over-selected='true']  { opacity: 1.0; }
]]>
</style>
<script type="application/ecmascript"><![CDATA[
document.addEventListener('DOMContentLoaded', (event) => {
  highlightEdges();
  highlightAdjacentNodes();
});
]]></script>
</svg>
