<?xml version="1.0" encoding="UTF-8" standalone="no"?>
<!DOCTYPE svg PUBLIC "-//W3C//DTD SVG 1.1//EN"
 "http://www.w3.org/Graphics/SVG/1.1/DTD/svg11.dtd">
<!-- Generated by graphviz version 2.43.0 (0)
 -->
<!-- Title: trigger_asphalt_ramp_boost Pages: 1 -->
<!--zoomable 640 -->

<svg id="main" version="1.1" xmlns="http://www.w3.org/2000/svg" xmlns:xlink="http://www.w3.org/1999/xlink" xml:space="preserve" onload="init(evt)">
<style type="text/css"><![CDATA[
.node, .edge {opacity: 0.7;}
.node.selected, .edge.selected {opacity: 1;}
.edge:hover path { stroke: red; }
.edge:hover polygon { stroke: red; fill: red; }
]]></style>

<defs>
  <circle id="rim" cx="0" cy="0" r="7"/>
  <circle id="rim2" cx="0" cy="0" r="3.5"/>
  <g id="zoomPlus">
    <use xlink:href="#rim" fill="#404040"><set attributeName="fill" to="#808080" begin="zoomplus.mouseover" end="zoomplus.mouseout"/></use>
    <path d="M-4,0h8M0,-4v8" fill="none" stroke="white" stroke-width="1.5" pointer-events="none"/>
  </g>
  <g id="zoomMin">
    <use xlink:href="#rim" fill="#404040"><set attributeName="fill" to="#808080" begin="zoomminus.mouseover" end="zoomminus.mouseout"/></use>
    <path d="M-4,0h8" fill="none" stroke="white" stroke-width="1.5" pointer-events="none"/>
  </g>
  <g id="arrowUp" transform="translate(30 24)">
    <use xlink:href="#rim"/>
    <path pointer-events="none" fill="none" stroke="white" stroke-width="1.5" d="M0,-3.0v7 M-2.5,-0.5L0,-3.0L2.5,-0.5"/>
  </g>
  <g id="arrowRight" transform="rotate(90) translate(36 -43)">
    <use xlink:href="#rim"/>
    <path pointer-events="none" fill="none" stroke="white" stroke-width="1.5" d="M0,-3.0v7 M-2.5,-0.5L0,-3.0L2.5,-0.5"/>
  </g>
  <g id="arrowDown" transform="rotate(180) translate(-30 -48)">
    <use xlink:href="#rim"/>
    <path pointer-events="none" fill="none" stroke="white" stroke-width="1.5" d="M0,-3.0v7 M-2.5,-0.5L0,-3.0L2.5,-0.5"/>
  </g>
  <g id="arrowLeft" transform="rotate(270) translate(-36 17)">
    <use xlink:href="#rim"/>
    <path pointer-events="none" fill="none" stroke="white" stroke-width="1.5" d="M0,-3.0v7 M-2.5,-0.5L0,-3.0L2.5,-0.5"/>
  </g>
  <g id="resetDef">
    <use xlink:href="#rim2" fill="#404040"><set attributeName="fill" to="#808080" begin="reset.mouseover" end="reset.mouseout"/></use>
  </g>
</defs>
<script type="application/ecmascript">
var viewWidth = 820;
var viewHeight = 640;
var sectionId = 'dynsection-98';
</script>
<script type="application/ecmascript" xlink:href="svg.min.js"/>
<svg id="graph" class="graph">
<g id="viewport">
<title>trigger_asphalt_ramp_boost</title>
<!-- Node1 -->
<g id="Node000001" class="node">
<title>Node1</title>
<g id="a_Node000001"><a xlink:title=" ">
<polygon fill="#999999" stroke="#666666" points="121,-62.5 0,-62.5 0,-32.5 121,-32.5 121,-62.5"/>
<text text-anchor="start" x="8" y="-50.5" font-family="Helvetica,sans-Serif" font-size="10.00">trigger_asphalt_ramp</text>
<text text-anchor="middle" x="60.5" y="-39.5" font-family="Helvetica,sans-Serif" font-size="10.00">_boost</text>
</a>
</g>
</g>
<!-- Node2 -->
<g id="Node000002" class="node">
<title>Node2</title>
<g id="a_Node000002"><a xlink:href="effects_8c.html#a6559cc02e5bb1a4e7fe6c97850cdd87e" target="_top" xlink:title=" ">
<polygon fill="white" stroke="#666666" points="233,-367 157,-367 157,-348 233,-348 233,-367"/>
<text text-anchor="middle" x="195" y="-355" font-family="Helvetica,sans-Serif" font-size="10.00">clean_effect</text>
</a>
</g>
</g>
<!-- Node1&#45;&gt;Node2 -->
<g id="edge1_Node000001_Node000002" class="edge">
<title>Node1&#45;&gt;Node2</title>
<g id="a_edge1_Node000001_Node000002"><a xlink:title=" ">
<path fill="none" stroke="#63b8ff" d="M68.07,-62.87C90.14,-114.51 161.6,-281.7 185.86,-338.45"/>
<polygon fill="#63b8ff" stroke="#63b8ff" points="182.67,-339.89 189.81,-347.71 189.1,-337.14 182.67,-339.89"/>
</a>
</g>
</g>
<!-- Node11 -->
<g id="Node000011" class="node">
<title>Node11</title>
<g id="a_Node000011"><a xlink:href="external_8c.html#a2be9efc97a92e19d02aaee90d676acc1" target="_top" xlink:title=" ">
<polygon fill="white" stroke="#666666" points="703.5,-57 611.5,-57 611.5,-38 703.5,-38 703.5,-57"/>
<text text-anchor="middle" x="657.5" y="-45" font-family="Helvetica,sans-Serif" font-size="10.00">func_800C9060</text>
</a>
</g>
</g>
<!-- Node1&#45;&gt;Node11 -->
<g id="edge20_Node000001_Node000011" class="edge">
<title>Node1&#45;&gt;Node11</title>
<g id="a_edge20_Node000001_Node000011"><a xlink:title=" ">
<path fill="none" stroke="#63b8ff" d="M121,-47.5C236.45,-47.5 489.31,-47.5 601.27,-47.5"/>
<polygon fill="#63b8ff" stroke="#63b8ff" points="601.34,-51 611.34,-47.5 601.34,-44 601.34,-51"/>
</a>
</g>
</g>
<!-- Node21 -->
<g id="Node000021" class="node">
<title>Node21</title>
<g id="a_Node000021"><a xlink:href="external_8c.html#a337fc3ab94ebb3293a85908229303ac8" target="_top" xlink:title=" ">
<polygon fill="white" stroke="#666666" points="565,-19 473,-19 473,0 565,0 565,-19"/>
<text text-anchor="middle" x="519" y="-7" font-family="Helvetica,sans-Serif" font-size="10.00">func_800C90F4</text>
</a>
</g>
</g>
<!-- Node1&#45;&gt;Node21 -->
<g id="edge21_Node000001_Node000021" class="edge">
<title>Node1&#45;&gt;Node21</title>
<g id="a_edge21_Node000001_Node000021"><a xlink:title=" ">
<path fill="none" stroke="#63b8ff" d="M121.01,-38.03C132.91,-36.35 145.34,-34.74 157,-33.5 265.05,-22.01 391.92,-15.09 462.83,-11.81"/>
<polygon fill="#63b8ff" stroke="#63b8ff" points="463.05,-15.3 472.88,-11.35 462.73,-8.31 463.05,-15.3"/>
</a>
</g>
</g>
<!-- Node3 -->
<g id="Node000003" class="node">
<title>Node3</title>
<g id="a_Node000003"><a xlink:href="effects_8c.html#a7fef1af5ca366a9346478d94239c6142" target="_top" xlink:title=" ">
<polygon fill="white" stroke="#666666" points="394.5,-632 301.5,-632 301.5,-613 394.5,-613 394.5,-632"/>
<text text-anchor="middle" x="348" y="-620" font-family="Helvetica,sans-Serif" font-size="10.00">func_8008C6D0</text>
</a>
</g>
</g>
<!-- Node2&#45;&gt;Node3 -->
<g id="edge2_Node000002_Node000003" class="edge">
<title>Node2&#45;&gt;Node3</title>
<g id="a_edge2_Node000002_Node000003"><a xlink:title=" ">
<path fill="none" stroke="#63b8ff" d="M195.67,-367.03C194.95,-403.73 197.53,-537.23 269,-604.5 275.33,-610.46 283.22,-614.58 291.53,-617.4"/>
<polygon fill="#63b8ff" stroke="#63b8ff" points="290.84,-620.84 301.41,-620.16 292.72,-614.1 290.84,-620.84"/>
</a>
</g>
</g>
<!-- Node4 -->
<g id="Node000004" class="node">
<title>Node4</title>
<g id="a_Node000004"><a xlink:href="effects_8c.html#a5f19eaaa048055d292d02c717e635786" target="_top" xlink:title=" ">
<polygon fill="white" stroke="#666666" points="394,-595 302,-595 302,-576 394,-576 394,-595"/>
<text text-anchor="middle" x="348" y="-583" font-family="Helvetica,sans-Serif" font-size="10.00">func_8008D760</text>
</a>
</g>
</g>
<!-- Node2&#45;&gt;Node4 -->
<g id="edge3_Node000002_Node000004" class="edge">
<title>Node2&#45;&gt;Node4</title>
<g id="a_edge3_Node000002_Node000004"><a xlink:title=" ">
<path fill="none" stroke="#63b8ff" d="M196.25,-367.2C197.64,-400.59 206.96,-511.81 269,-567.5 275.47,-573.31 283.43,-577.35 291.77,-580.14"/>
<polygon fill="#63b8ff" stroke="#63b8ff" points="291.09,-583.59 301.67,-582.88 292.96,-576.84 291.09,-583.59"/>
</a>
</g>
</g>
<!-- Node5 -->
<g id="Node000005" class="node">
<title>Node5</title>
<g id="a_Node000005"><a xlink:href="effects_8c.html#a4ea2da0616ee3c475e4be217dc0bc71f" target="_top" xlink:title=" ">
<polygon fill="white" stroke="#666666" points="394.5,-558 301.5,-558 301.5,-539 394.5,-539 394.5,-558"/>
<text text-anchor="middle" x="348" y="-546" font-family="Helvetica,sans-Serif" font-size="10.00">func_8008D97C</text>
</a>
</g>
</g>
<!-- Node2&#45;&gt;Node5 -->
<g id="edge4_Node000002_Node000005" class="edge">
<title>Node2&#45;&gt;Node5</title>
<g id="a_edge4_Node000002_Node000005"><a xlink:title=" ">
<path fill="none" stroke="#63b8ff" d="M197.04,-367.13C200.75,-396.57 216.1,-486.02 269,-530.5 275.5,-535.96 283.34,-539.85 291.51,-542.59"/>
<polygon fill="#63b8ff" stroke="#63b8ff" points="290.62,-545.97 301.19,-545.31 292.51,-539.23 290.62,-545.97"/>
</a>
</g>
</g>
<!-- Node6 -->
<g id="Node000006" class="node">
<title>Node6</title>
<g id="a_Node000006"><a xlink:href="effects_8c.html#a13005f7c39388deade6ba0491d7c5918" target="_top" xlink:title=" ">
<polygon fill="white" stroke="#666666" points="393.5,-521 302.5,-521 302.5,-502 393.5,-502 393.5,-521"/>
<text text-anchor="middle" x="348" y="-509" font-family="Helvetica,sans-Serif" font-size="10.00">func_8008E884</text>
</a>
</g>
</g>
<!-- Node2&#45;&gt;Node6 -->
<g id="edge5_Node000002_Node000006" class="edge">
<title>Node2&#45;&gt;Node6</title>
<g id="a_edge5_Node000002_Node000006"><a xlink:title=" ">
<path fill="none" stroke="#63b8ff" d="M198.25,-367.2C204.6,-392.34 225.14,-459.98 269,-493.5 275.98,-498.83 284.27,-502.63 292.79,-505.33"/>
<polygon fill="#63b8ff" stroke="#63b8ff" points="291.9,-508.71 302.46,-507.92 293.71,-501.95 291.9,-508.71"/>
</a>
</g>
</g>
<!-- Node7 -->
<g id="Node000007" class="node">
<title>Node7</title>
<g id="a_Node000007"><a xlink:href="effects_8c.html#ae02351b6bbb678b552ec8864b47fc56c" target="_top" xlink:title=" ">
<polygon fill="white" stroke="#666666" points="393.5,-484 302.5,-484 302.5,-465 393.5,-465 393.5,-484"/>
<text text-anchor="middle" x="348" y="-472" font-family="Helvetica,sans-Serif" font-size="10.00">func_8008F3E0</text>
</a>
</g>
</g>
<!-- Node2&#45;&gt;Node7 -->
<g id="edge6_Node000002_Node000007" class="edge">
<title>Node2&#45;&gt;Node7</title>
<g id="a_edge6_Node000002_Node000007"><a xlink:title=" ">
<path fill="none" stroke="#63b8ff" d="M200.24,-367.17C209.56,-387.23 233.84,-433.41 269,-456.5 276.1,-461.16 284.25,-464.62 292.55,-467.19"/>
<polygon fill="#63b8ff" stroke="#63b8ff" points="291.74,-470.6 302.3,-469.82 293.56,-463.84 291.74,-470.6"/>
</a>
</g>
</g>
<!-- Node8 -->
<g id="Node000008" class="node">
<title>Node8</title>
<g id="a_Node000008"><a xlink:href="effects_8c.html#ab5125d5944958f891647b27b440d3d62" target="_top" xlink:title=" ">
<polygon fill="white" stroke="#666666" points="394,-447 302,-447 302,-428 394,-428 394,-447"/>
<text text-anchor="middle" x="348" y="-435" font-family="Helvetica,sans-Serif" font-size="10.00">func_8008F5A4</text>
</a>
</g>
</g>
<!-- Node2&#45;&gt;Node8 -->
<g id="edge7_Node000002_Node000008" class="edge">
<title>Node2&#45;&gt;Node8</title>
<g id="a_edge7_Node000002_Node000008"><a xlink:title=" ">
<path fill="none" stroke="#63b8ff" d="M204.41,-367.1C217.03,-380.87 242.25,-406.07 269,-419.5 276.24,-423.14 284.23,-426.05 292.25,-428.38"/>
<polygon fill="#63b8ff" stroke="#63b8ff" points="291.43,-431.79 302,-430.95 293.21,-425.02 291.43,-431.79"/>
</a>
</g>
</g>
<!-- Node13 -->
<g id="Node000013" class="node">
<title>Node13</title>
<g id="a_Node000013"><a xlink:href="effects_8c.html#a2f183005a5e85816dd81508847c1904d" target="_top" xlink:title=" ">
<polygon fill="white" stroke="#666666" points="394.5,-410 301.5,-410 301.5,-391 394.5,-391 394.5,-410"/>
<text text-anchor="middle" x="348" y="-398" font-family="Helvetica,sans-Serif" font-size="10.00">func_8008FEDC</text>
</a>
</g>
</g>
<!-- Node2&#45;&gt;Node13 -->
<g id="edge12_Node000002_Node000013" class="edge">
<title>Node2&#45;&gt;Node13</title>
<g id="a_edge12_Node000002_Node000013"><a xlink:title=" ">
<path fill="none" stroke="#63b8ff" d="M223.23,-367.02C236.89,-371.65 253.74,-377.14 269,-381.5 277.47,-383.92 286.51,-386.3 295.33,-388.52"/>
<polygon fill="#63b8ff" stroke="#63b8ff" points="294.6,-391.95 305.15,-390.95 296.28,-385.15 294.6,-391.95"/>
</a>
</g>
</g>
<!-- Node14 -->
<g id="Node000014" class="node">
<title>Node14</title>
<g id="a_Node000014"><a xlink:href="effects_8c.html#acbb1f27649a63227fcf0dd1f17dfa096" target="_top" xlink:title=" ">
<polygon fill="white" stroke="#666666" points="409,-372.5 287,-372.5 287,-342.5 409,-342.5 409,-372.5"/>
<text text-anchor="start" x="295" y="-360.5" font-family="Helvetica,sans-Serif" font-size="10.00">remove_banana_near</text>
<text text-anchor="middle" x="348" y="-349.5" font-family="Helvetica,sans-Serif" font-size="10.00">_spinout_effect</text>
</a>
</g>
</g>
<!-- Node2&#45;&gt;Node14 -->
<g id="edge13_Node000002_Node000014" class="edge">
<title>Node2&#45;&gt;Node14</title>
<g id="a_edge13_Node000002_Node000014"><a xlink:title=" ">
<path fill="none" stroke="#63b8ff" d="M233.33,-357.5C246.45,-357.5 261.67,-357.5 276.62,-357.5"/>
<polygon fill="#63b8ff" stroke="#63b8ff" points="276.9,-361 286.9,-357.5 276.9,-354 276.9,-361"/>
</a>
</g>
</g>
<!-- Node15 -->
<g id="Node000015" class="node">
<title>Node15</title>
<g id="a_Node000015"><a xlink:href="effects_8c.html#a4768d56263e476d3bac47ee01bac3dc8" target="_top" xlink:title=" ">
<polygon fill="white" stroke="#666666" points="427,-324.5 269,-324.5 269,-294.5 427,-294.5 427,-324.5"/>
<text text-anchor="start" x="277" y="-312.5" font-family="Helvetica,sans-Serif" font-size="10.00">remove_boost_ramp_asphalt</text>
<text text-anchor="middle" x="348" y="-301.5" font-family="Helvetica,sans-Serif" font-size="10.00">_effect</text>
</a>
</g>
</g>
<!-- Node2&#45;&gt;Node15 -->
<g id="edge14_Node000002_Node000015" class="edge">
<title>Node2&#45;&gt;Node15</title>
<g id="a_edge14_Node000002_Node000015"><a xlink:title=" ">
<path fill="none" stroke="#63b8ff" d="M224.74,-347.91C238.16,-343.47 254.38,-338.15 269,-333.5 275.02,-331.58 281.32,-329.6 287.61,-327.65"/>
<polygon fill="#63b8ff" stroke="#63b8ff" points="288.93,-330.9 297.44,-324.59 286.85,-324.21 288.93,-330.9"/>
</a>
</g>
</g>
<!-- Node16 -->
<g id="Node000016" class="node">
<title>Node16</title>
<g id="a_Node000016"><a xlink:href="effects_8c.html#aafe14c45e9b91bb1d409ef2f2bfe5c53" target="_top" xlink:title=" ">
<polygon fill="white" stroke="#666666" points="422.5,-276.5 273.5,-276.5 273.5,-246.5 422.5,-246.5 422.5,-276.5"/>
<text text-anchor="start" x="281.5" y="-264.5" font-family="Helvetica,sans-Serif" font-size="10.00">remove_boost_ramp_wood</text>
<text text-anchor="middle" x="348" y="-253.5" font-family="Helvetica,sans-Serif" font-size="10.00">_effect</text>
</a>
</g>
</g>
<!-- Node2&#45;&gt;Node16 -->
<g id="edge15_Node000002_Node000016" class="edge">
<title>Node2&#45;&gt;Node16</title>
<g id="a_edge15_Node000002_Node000016"><a xlink:title=" ">
<path fill="none" stroke="#63b8ff" d="M203.4,-347.6C215.47,-332.14 240.88,-302.3 269,-285.5 271.86,-283.79 274.85,-282.2 277.92,-280.71"/>
<polygon fill="#63b8ff" stroke="#63b8ff" points="279.62,-283.78 287.35,-276.54 276.79,-277.38 279.62,-283.78"/>
</a>
</g>
</g>
<!-- Node17 -->
<g id="Node000017" class="node">
<title>Node17</title>
<g id="a_Node000017"><a xlink:href="effects_8c.html#a9ff5c732ea8ba59908ccf62ff441e7e4" target="_top" xlink:title=" ">
<polygon fill="white" stroke="#666666" points="408,-228.5 288,-228.5 288,-198.5 408,-198.5 408,-228.5"/>
<text text-anchor="start" x="296" y="-216.5" font-family="Helvetica,sans-Serif" font-size="10.00">remove_driving_near</text>
<text text-anchor="middle" x="348" y="-205.5" font-family="Helvetica,sans-Serif" font-size="10.00">_spinout_effect</text>
</a>
</g>
</g>
<!-- Node2&#45;&gt;Node17 -->
<g id="edge16_Node000002_Node000017" class="edge">
<title>Node2&#45;&gt;Node17</title>
<g id="a_edge16_Node000002_Node000017"><a xlink:title=" ">
<path fill="none" stroke="#63b8ff" d="M199.19,-347.77C207.15,-324.98 230.13,-267.76 269,-237.5 271.97,-235.19 275.16,-233.1 278.5,-231.21"/>
<polygon fill="#63b8ff" stroke="#63b8ff" points="280.24,-234.25 287.62,-226.66 277.11,-227.99 280.24,-234.25"/>
</a>
</g>
</g>
<!-- Node18 -->
<g id="Node000018" class="node">
<title>Node18</title>
<g id="a_Node000018"><a xlink:href="effects_8c.html#a5f1aead641683fd07375d6737dfafac2" target="_top" xlink:title=" ">
<polygon fill="white" stroke="#666666" points="404.5,-180.5 291.5,-180.5 291.5,-150.5 404.5,-150.5 404.5,-180.5"/>
<text text-anchor="start" x="299.5" y="-168.5" font-family="Helvetica,sans-Serif" font-size="10.00">remove_hit_by_star</text>
<text text-anchor="middle" x="348" y="-157.5" font-family="Helvetica,sans-Serif" font-size="10.00">_effect</text>
</a>
</g>
</g>
<!-- Node2&#45;&gt;Node18 -->
<g id="edge17_Node000002_Node000018" class="edge">
<title>Node2&#45;&gt;Node18</title>
<g id="a_edge17_Node000002_Node000018"><a xlink:title=" ">
<path fill="none" stroke="#63b8ff" d="M197.34,-347.9C201.82,-319.35 218.98,-234.23 269,-189.5 272.93,-185.99 277.36,-182.99 282.06,-180.43"/>
<polygon fill="#63b8ff" stroke="#63b8ff" points="283.84,-183.46 291.39,-176.03 280.85,-177.13 283.84,-183.46"/>
</a>
</g>
</g>
<!-- Node19 -->
<g id="Node000019" class="node">
<title>Node19</title>
<g id="a_Node000019"><a xlink:href="effects_8c.html#a9be2cc0ebbe72a9d5276a4fd2675eef3" target="_top" xlink:title=" ">
<polygon fill="white" stroke="#666666" points="420.5,-132 275.5,-132 275.5,-113 420.5,-113 420.5,-132"/>
<text text-anchor="middle" x="348" y="-120" font-family="Helvetica,sans-Serif" font-size="10.00">remove_mushroom_effect</text>
</a>
</g>
</g>
<!-- Node2&#45;&gt;Node19 -->
<g id="edge18_Node000002_Node000019" class="edge">
<title>Node2&#45;&gt;Node19</title>
<g id="a_edge18_Node000002_Node000019"><a xlink:title=" ">
<path fill="none" stroke="#63b8ff" d="M196.17,-347.56C197.33,-313.33 205.97,-199.27 269,-141.5 270.71,-139.93 272.53,-138.49 274.44,-137.16"/>
<polygon fill="#63b8ff" stroke="#63b8ff" points="276.38,-140.07 283.28,-132.02 272.87,-134.02 276.38,-140.07"/>
</a>
</g>
</g>
<!-- Node20 -->
<g id="Node000020" class="node">
<title>Node20</title>
<g id="a_Node000020"><a xlink:href="effects_8c.html#a85a7ba2f2c97859b0090c54a68e8f003" target="_top" xlink:title=" ">
<polygon fill="white" stroke="#666666" points="415,-95 281,-95 281,-76 415,-76 415,-95"/>
<text text-anchor="middle" x="348" y="-83" font-family="Helvetica,sans-Serif" font-size="10.00">remove_spinout_effects</text>
</a>
</g>
</g>
<!-- Node2&#45;&gt;Node20 -->
<g id="edge19_Node000002_Node000020" class="edge">
<title>Node2&#45;&gt;Node20</title>
<g id="a_edge19_Node000002_Node000020"><a xlink:title=" ">
<path fill="none" stroke="#63b8ff" d="M195.61,-347.77C194.68,-310.3 196.57,-173.95 269,-104.5 270.51,-103.05 272.11,-101.71 273.78,-100.46"/>
<polygon fill="#63b8ff" stroke="#63b8ff" points="276,-103.21 282.71,-95.01 272.35,-97.24 276,-103.21"/>
</a>
</g>
</g>
<!-- Node9 -->
<g id="Node000009" class="node">
<title>Node9</title>
<g id="a_Node000009"><a xlink:href="code__80057C60_8c.html#ae28b6eb556910087cea23f0cb7a322bd" target="_top" xlink:title=" ">
<polygon fill="white" stroke="#666666" points="575,-271 463,-271 463,-252 575,-252 575,-271"/>
<text text-anchor="middle" x="519" y="-259" font-family="Helvetica,sans-Serif" font-size="10.00">pop_player_balloon</text>
</a>
</g>
</g>
<!-- Node8&#45;&gt;Node9 -->
<g id="edge8_Node000008_Node000009" class="edge">
<title>Node8&#45;&gt;Node9</title>
<g id="a_edge8_Node000008_Node000009"><a xlink:title=" ">
<path fill="none" stroke="#63b8ff" d="M394.21,-433.55C405.72,-430.88 417.51,-426.53 427,-419.5 475.2,-383.8 501.9,-314.38 512.53,-280.72"/>
<polygon fill="#63b8ff" stroke="#63b8ff" points="515.88,-281.72 515.42,-271.14 509.18,-279.7 515.88,-281.72"/>
</a>
</g>
</g>
<!-- Node10 -->
<g id="Node000010" class="node">
<title>Node10</title>
<g id="a_Node000010"><a xlink:href="effects_8c.html#a1c7552c4a370cc015c2726e40f1fdb06" target="_top" xlink:title=" ">
<polygon fill="white" stroke="#666666" points="704,-271 611,-271 611,-252 704,-252 704,-271"/>
<text text-anchor="middle" x="657.5" y="-259" font-family="Helvetica,sans-Serif" font-size="10.00">func_8008FD4C</text>
</a>
</g>
</g>
<!-- Node9&#45;&gt;Node10 -->
<g id="edge9_Node000009_Node000010" class="edge">
<title>Node9&#45;&gt;Node10</title>
<g id="a_edge9_Node000009_Node000010"><a xlink:title=" ">
<path fill="none" stroke="#63b8ff" d="M575.13,-261.5C583.54,-261.5 592.24,-261.5 600.67,-261.5"/>
<polygon fill="#63b8ff" stroke="#63b8ff" points="600.79,-265 610.79,-261.5 600.79,-258 600.79,-265"/>
</a>
</g>
</g>
<!-- Node9&#45;&gt;Node11 -->
<g id="edge10_Node000009_Node000011" class="edge">
<title>Node9&#45;&gt;Node11</title>
<g id="a_edge10_Node000009_Node000011"><a xlink:title=" ">
<path fill="none" stroke="#63b8ff" d="M526.22,-251.75C547.4,-218.54 616.97,-109.47 644.82,-65.81"/>
<polygon fill="#63b8ff" stroke="#63b8ff" points="647.82,-67.62 650.24,-57.31 641.92,-63.86 647.82,-67.62"/>
</a>
</g>
</g>
<!-- Node12 -->
<g id="Node000012" class="node">
<title>Node12</title>
<g id="a_Node000012"><a xlink:href="external_8c.html#a475cff796211891556f52877cd8e9b9e" target="_top" xlink:title=" ">
<polygon fill="white" stroke="#666666" points="812,-38 740,-38 740,-19 812,-19 812,-38"/>
<text text-anchor="middle" x="776" y="-26" font-family="Helvetica,sans-Serif" font-size="10.00">play_sound</text>
</a>
</g>
</g>
<!-- Node11&#45;&gt;Node12 -->
<g id="edge11_Node000011_Node000012" class="edge">
<title>Node11&#45;&gt;Node12</title>
<g id="a_edge11_Node000011_Node000012"><a xlink:title=" ">
<path fill="none" stroke="#63b8ff" d="M703.54,-40.15C712.19,-38.74 721.26,-37.27 729.91,-35.85"/>
<polygon fill="#63b8ff" stroke="#63b8ff" points="730.53,-39.3 739.83,-34.24 729.4,-32.39 730.53,-39.3"/>
</a>
</g>
</g>
<!-- Node21&#45;&gt;Node12 -->
<g id="edge22_Node000021_Node000012" class="edge">
<title>Node21&#45;&gt;Node12</title>
<g id="a_edge22_Node000021_Node000012"><a xlink:title=" ">
<path fill="none" stroke="#63b8ff" d="M565,-12.85C611.39,-16.31 683.32,-21.67 729.79,-25.13"/>
<polygon fill="#63b8ff" stroke="#63b8ff" points="729.64,-28.63 739.87,-25.88 730.16,-21.65 729.64,-28.63"/>
</a>
</g>
</g>
</g>
</svg>

<g id="navigator" transform="translate(0 0)" fill="#404254">
  <rect fill="#f2f5e9" fill-opacity="0.5" stroke="#606060" stroke-width=".5" x="0" y="0" width="60" height="60"/>
  <use id="zoomplus" xlink:href="#zoomPlus" x="17" y="9" onmousedown="handleZoom(evt,'in')"/>
  <use id="zoomminus" xlink:href="#zoomMin" x="42" y="9" onmousedown="handleZoom(evt,'out')"/>
  <use id="reset" xlink:href="#resetDef" x="30" y="36" onmousedown="handleReset()"/>
   <use id="arrowup" xlink:href="#arrowUp" x="0" y="0" onmousedown="handlePan(0,-1)"/>
  <use id="arrowright" xlink:href="#arrowRight" x="0" y="0" onmousedown="handlePan(1,0)"/>
  <use id="arrowdown" xlink:href="#arrowDown" x="0" y="0" onmousedown="handlePan(0,1)"/>
  <use id="arrowleft" xlink:href="#arrowLeft" x="0" y="0" onmousedown="handlePan(-1,0)"/>
</g>
<svg viewBox="0 0 15 15" width="100%" height="30px" preserveAspectRatio="xMaxYMin meet">
 <g id="arrow_out" transform="scale(0.3 0.3)">
  <a xlink:href="effects_8h_adbee90b70b36ff24a91753b6b5b6176c_cgraph_org.svg" target="_base">
   <rect id="button" ry="5" rx="5" y="6" x="6" height="38" width="38"
        fill="#f2f5e9" fill-opacity="0.5" stroke="#606060" stroke-width="1.0"/>
   <path id="arrow"
     d="M 11.500037,31.436501 C 11.940474,20.09759 22.043105,11.32322 32.158766,21.979434 L 37.068811,17.246167 C 37.068811,17.246167 37.088388,32 37.088388,32 L 22.160133,31.978069 C 22.160133,31.978069 26.997745,27.140456 26.997745,27.140456 C 18.528582,18.264221 13.291696,25.230495 11.500037,31.436501 z"
     style="fill:#404040;"/>
  </a>
 </g>
</svg>

<style type='text/css'>
<![CDATA[
[data-mouse-over-selected='false'] { opacity: 0.7; }
[data-mouse-over-selected='true']  { opacity: 1.0; }
]]>
</style>
<script type="application/ecmascript"><![CDATA[
document.addEventListener('DOMContentLoaded', (event) => {
  highlightEdges();
  highlightAdjacentNodes();
});
]]></script>
</svg>
