<?xml version="1.0" encoding="UTF-8" standalone="no"?>
<!DOCTYPE svg PUBLIC "-//W3C//DTD SVG 1.1//EN"
 "http://www.w3.org/Graphics/SVG/1.1/DTD/svg11.dtd">
<!-- Generated by graphviz version 2.43.0 (0)
 -->
<!-- Title: apply_driving_near_spinout_effect Pages: 1 -->
<!--zoomable 636 -->

<svg id="main" version="1.1" xmlns="http://www.w3.org/2000/svg" xmlns:xlink="http://www.w3.org/1999/xlink" xml:space="preserve" onload="init(evt)">
<style type="text/css"><![CDATA[
.node, .edge {opacity: 0.7;}
.node.selected, .edge.selected {opacity: 1;}
.edge:hover path { stroke: red; }
.edge:hover polygon { stroke: red; fill: red; }
]]></style>

<defs>
  <circle id="rim" cx="0" cy="0" r="7"/>
  <circle id="rim2" cx="0" cy="0" r="3.5"/>
  <g id="zoomPlus">
    <use xlink:href="#rim" fill="#404040"><set attributeName="fill" to="#808080" begin="zoomplus.mouseover" end="zoomplus.mouseout"/></use>
    <path d="M-4,0h8M0,-4v8" fill="none" stroke="white" stroke-width="1.5" pointer-events="none"/>
  </g>
  <g id="zoomMin">
    <use xlink:href="#rim" fill="#404040"><set attributeName="fill" to="#808080" begin="zoomminus.mouseover" end="zoomminus.mouseout"/></use>
    <path d="M-4,0h8" fill="none" stroke="white" stroke-width="1.5" pointer-events="none"/>
  </g>
  <g id="arrowUp" transform="translate(30 24)">
    <use xlink:href="#rim"/>
    <path pointer-events="none" fill="none" stroke="white" stroke-width="1.5" d="M0,-3.0v7 M-2.5,-0.5L0,-3.0L2.5,-0.5"/>
  </g>
  <g id="arrowRight" transform="rotate(90) translate(36 -43)">
    <use xlink:href="#rim"/>
    <path pointer-events="none" fill="none" stroke="white" stroke-width="1.5" d="M0,-3.0v7 M-2.5,-0.5L0,-3.0L2.5,-0.5"/>
  </g>
  <g id="arrowDown" transform="rotate(180) translate(-30 -48)">
    <use xlink:href="#rim"/>
    <path pointer-events="none" fill="none" stroke="white" stroke-width="1.5" d="M0,-3.0v7 M-2.5,-0.5L0,-3.0L2.5,-0.5"/>
  </g>
  <g id="arrowLeft" transform="rotate(270) translate(-36 17)">
    <use xlink:href="#rim"/>
    <path pointer-events="none" fill="none" stroke="white" stroke-width="1.5" d="M0,-3.0v7 M-2.5,-0.5L0,-3.0L2.5,-0.5"/>
  </g>
  <g id="resetDef">
    <use xlink:href="#rim2" fill="#404040"><set attributeName="fill" to="#808080" begin="reset.mouseover" end="reset.mouseout"/></use>
  </g>
</defs>
<script type="application/ecmascript">
var viewWidth = 1006;
var viewHeight = 636;
var sectionId = 'dynsection-12';
</script>
<script type="application/ecmascript" xlink:href="svg.min.js"/>
<svg id="graph" class="graph">
<g id="viewport">
<title>apply_driving_near_spinout_effect</title>
<!-- Node1 -->
<g id="Node000001" class="node">
<title>Node1</title>
<g id="a_Node000001"><a xlink:title=" ">
<polygon fill="#999999" stroke="#666666" points="110,-336.73 0,-336.73 0,-306.73 110,-306.73 110,-336.73"/>
<text text-anchor="start" x="8" y="-324.73" font-family="Helvetica,sans-Serif" font-size="10.00">apply_driving_near</text>
<text text-anchor="middle" x="55" y="-313.73" font-family="Helvetica,sans-Serif" font-size="10.00">_spinout_effect</text>
</a>
</g>
</g>
<!-- Node2 -->
<g id="Node000002" class="node">
<title>Node2</title>
<g id="a_Node000002"><a xlink:href="effects_8c.html#a01c1b5efe5e2c25eeb0a923d8f461b39" target="_top" xlink:title=" ">
<polygon fill="white" stroke="#666666" points="255,-350.23 146,-350.23 146,-331.23 255,-331.23 255,-350.23"/>
<text text-anchor="middle" x="200.5" y="-338.23" font-family="Helvetica,sans-Serif" font-size="10.00">add_spinout_effect</text>
</a>
</g>
</g>
<!-- Node1&#45;&gt;Node2 -->
<g id="edge1_Node000001_Node000002" class="edge">
<title>Node1&#45;&gt;Node2</title>
<g id="a_edge1_Node000001_Node000002"><a xlink:title=" ">
<path fill="none" stroke="#63b8ff" d="M110.25,-328.92C118.49,-330.01 127.06,-331.14 135.48,-332.26"/>
<polygon fill="#63b8ff" stroke="#63b8ff" points="135.28,-335.76 145.65,-333.6 136.19,-328.82 135.28,-335.76"/>
</a>
</g>
</g>
<!-- Node22 -->
<g id="Node000022" class="node">
<title>Node22</title>
<g id="a_Node000022"><a xlink:href="external_8c.html#a337fc3ab94ebb3293a85908229303ac8" target="_top" xlink:title=" ">
<polygon fill="white" stroke="#666666" points="401,-312.23 309,-312.23 309,-293.23 401,-293.23 401,-312.23"/>
<text text-anchor="middle" x="355" y="-300.23" font-family="Helvetica,sans-Serif" font-size="10.00">func_800C90F4</text>
</a>
</g>
</g>
<!-- Node1&#45;&gt;Node22 -->
<g id="edge27_Node000001_Node000022" class="edge">
<title>Node1&#45;&gt;Node22</title>
<g id="a_edge27_Node000001_Node000022"><a xlink:title=" ">
<path fill="none" stroke="#63b8ff" d="M110.31,-318.27C163.78,-314.86 245.01,-309.68 298.79,-306.25"/>
<polygon fill="#63b8ff" stroke="#63b8ff" points="299.07,-309.74 308.83,-305.61 298.63,-302.76 299.07,-309.74"/>
</a>
</g>
</g>
<!-- Node3 -->
<g id="Node000003" class="node">
<title>Node3</title>
<g id="a_Node000003"><a xlink:href="effects_8c.html#a6559cc02e5bb1a4e7fe6c97850cdd87e" target="_top" xlink:title=" ">
<polygon fill="white" stroke="#666666" points="393,-350.23 317,-350.23 317,-331.23 393,-331.23 393,-350.23"/>
<text text-anchor="middle" x="355" y="-338.23" font-family="Helvetica,sans-Serif" font-size="10.00">clean_effect</text>
</a>
</g>
</g>
<!-- Node2&#45;&gt;Node3 -->
<g id="edge2_Node000002_Node000003" class="edge">
<title>Node2&#45;&gt;Node3</title>
<g id="a_edge2_Node000002_Node000003"><a xlink:title=" ">
<path fill="none" stroke="#63b8ff" d="M255.27,-340.73C272.01,-340.73 290.34,-340.73 306.61,-340.73"/>
<polygon fill="#63b8ff" stroke="#63b8ff" points="306.97,-344.23 316.97,-340.73 306.97,-337.23 306.97,-344.23"/>
</a>
</g>
</g>
<!-- Node2&#45;&gt;Node22 -->
<g id="edge21_Node000002_Node000022" class="edge">
<title>Node2&#45;&gt;Node22</title>
<g id="a_edge21_Node000002_Node000022"><a xlink:title=" ">
<path fill="none" stroke="#63b8ff" d="M239.98,-331.14C260.02,-326.15 284.7,-320 305.98,-314.7"/>
<polygon fill="#63b8ff" stroke="#63b8ff" points="306.94,-318.07 315.79,-312.25 305.24,-311.27 306.94,-318.07"/>
</a>
</g>
</g>
<!-- Node23 -->
<g id="Node000023" class="node">
<title>Node23</title>
<g id="a_Node000023"><a xlink:href="cpu__vehicles__camera__path_8c.html#adb9b8cd30f2be4e125706fa55ea2272d" target="_top" xlink:title=" ">
<polygon fill="white" stroke="#666666" points="419,-516.23 291,-516.23 291,-497.23 419,-497.23 419,-516.23"/>
<text text-anchor="middle" x="355" y="-504.23" font-family="Helvetica,sans-Serif" font-size="10.00">play_cpu_sound_effect</text>
</a>
</g>
</g>
<!-- Node2&#45;&gt;Node23 -->
<g id="edge23_Node000002_Node000023" class="edge">
<title>Node2&#45;&gt;Node23</title>
<g id="a_edge23_Node000002_Node000023"><a xlink:title=" ">
<path fill="none" stroke="#63b8ff" d="M210.58,-350.62C235.75,-378.02 306.63,-455.16 338.33,-489.67"/>
<polygon fill="#63b8ff" stroke="#63b8ff" points="335.81,-492.11 345.16,-497.1 340.97,-487.37 335.81,-492.11"/>
</a>
</g>
</g>
<!-- Node4 -->
<g id="Node000004" class="node">
<title>Node4</title>
<g id="a_Node000004"><a xlink:href="effects_8c.html#a7fef1af5ca366a9346478d94239c6142" target="_top" xlink:title=" ">
<polygon fill="white" stroke="#666666" points="580.5,-554.23 487.5,-554.23 487.5,-535.23 580.5,-535.23 580.5,-554.23"/>
<text text-anchor="middle" x="534" y="-542.23" font-family="Helvetica,sans-Serif" font-size="10.00">func_8008C6D0</text>
</a>
</g>
</g>
<!-- Node3&#45;&gt;Node4 -->
<g id="edge3_Node000003_Node000004" class="edge">
<title>Node3&#45;&gt;Node4</title>
<g id="a_edge3_Node000003_Node000004"><a xlink:title=" ">
<path fill="none" stroke="#63b8ff" d="M360,-350.69C374.27,-385.73 423.51,-502.58 455,-526.73 461.59,-531.78 469.34,-535.46 477.37,-538.12"/>
<polygon fill="#63b8ff" stroke="#63b8ff" points="476.65,-541.56 487.23,-540.9 478.55,-534.82 476.65,-541.56"/>
</a>
</g>
</g>
<!-- Node5 -->
<g id="Node000005" class="node">
<title>Node5</title>
<g id="a_Node000005"><a xlink:href="effects_8c.html#a5f19eaaa048055d292d02c717e635786" target="_top" xlink:title=" ">
<polygon fill="white" stroke="#666666" points="580,-517.23 488,-517.23 488,-498.23 580,-498.23 580,-517.23"/>
<text text-anchor="middle" x="534" y="-505.23" font-family="Helvetica,sans-Serif" font-size="10.00">func_8008D760</text>
</a>
</g>
</g>
<!-- Node3&#45;&gt;Node5 -->
<g id="edge4_Node000003_Node000005" class="edge">
<title>Node3&#45;&gt;Node5</title>
<g id="a_edge4_Node000003_Node000005"><a xlink:title=" ">
<path fill="none" stroke="#63b8ff" d="M359.58,-350.5C369.88,-377.21 402.3,-451.89 455,-488.73 461.9,-493.55 469.88,-497.16 478.05,-499.85"/>
<polygon fill="#63b8ff" stroke="#63b8ff" points="477.1,-503.22 487.68,-502.61 479.03,-496.49 477.1,-503.22"/>
</a>
</g>
</g>
<!-- Node6 -->
<g id="Node000006" class="node">
<title>Node6</title>
<g id="a_Node000006"><a xlink:href="effects_8c.html#a4ea2da0616ee3c475e4be217dc0bc71f" target="_top" xlink:title=" ">
<polygon fill="white" stroke="#666666" points="580.5,-480.23 487.5,-480.23 487.5,-461.23 580.5,-461.23 580.5,-480.23"/>
<text text-anchor="middle" x="534" y="-468.23" font-family="Helvetica,sans-Serif" font-size="10.00">func_8008D97C</text>
</a>
</g>
</g>
<!-- Node3&#45;&gt;Node6 -->
<g id="edge5_Node000003_Node000006" class="edge">
<title>Node3&#45;&gt;Node6</title>
<g id="a_edge5_Node000003_Node000006"><a xlink:title=" ">
<path fill="none" stroke="#63b8ff" d="M361.78,-350.53C375.2,-372.35 410.72,-425.15 455,-451.73 461.97,-455.91 469.8,-459.18 477.76,-461.72"/>
<polygon fill="#63b8ff" stroke="#63b8ff" points="476.89,-465.11 487.46,-464.48 478.8,-458.38 476.89,-465.11"/>
</a>
</g>
</g>
<!-- Node7 -->
<g id="Node000007" class="node">
<title>Node7</title>
<g id="a_Node000007"><a xlink:href="effects_8c.html#a13005f7c39388deade6ba0491d7c5918" target="_top" xlink:title=" ">
<polygon fill="white" stroke="#666666" points="579.5,-443.23 488.5,-443.23 488.5,-424.23 579.5,-424.23 579.5,-443.23"/>
<text text-anchor="middle" x="534" y="-431.23" font-family="Helvetica,sans-Serif" font-size="10.00">func_8008E884</text>
</a>
</g>
</g>
<!-- Node3&#45;&gt;Node7 -->
<g id="edge6_Node000003_Node000007" class="edge">
<title>Node3&#45;&gt;Node7</title>
<g id="a_edge6_Node000003_Node000007"><a xlink:title=" ">
<path fill="none" stroke="#63b8ff" d="M365.79,-350.23C382.61,-366.03 418.7,-397.63 455,-414.73 462.35,-418.2 470.4,-421.07 478.44,-423.44"/>
<polygon fill="#63b8ff" stroke="#63b8ff" points="477.64,-426.85 488.21,-426.08 479.47,-420.09 477.64,-426.85"/>
</a>
</g>
</g>
<!-- Node8 -->
<g id="Node000008" class="node">
<title>Node8</title>
<g id="a_Node000008"><a xlink:href="effects_8c.html#ae02351b6bbb678b552ec8864b47fc56c" target="_top" xlink:title=" ">
<polygon fill="white" stroke="#666666" points="579.5,-406.23 488.5,-406.23 488.5,-387.23 579.5,-387.23 579.5,-406.23"/>
<text text-anchor="middle" x="534" y="-394.23" font-family="Helvetica,sans-Serif" font-size="10.00">func_8008F3E0</text>
</a>
</g>
</g>
<!-- Node3&#45;&gt;Node8 -->
<g id="edge7_Node000003_Node000008" class="edge">
<title>Node3&#45;&gt;Node8</title>
<g id="a_edge7_Node000003_Node000008"><a xlink:title=" ">
<path fill="none" stroke="#63b8ff" d="M379.33,-350.35C399.23,-358.33 428.69,-369.64 455,-377.73 463.04,-380.21 471.63,-382.57 480.06,-384.74"/>
<polygon fill="#63b8ff" stroke="#63b8ff" points="479.29,-388.15 489.84,-387.19 480.99,-381.36 479.29,-388.15"/>
</a>
</g>
</g>
<!-- Node9 -->
<g id="Node000009" class="node">
<title>Node9</title>
<g id="a_Node000009"><a xlink:href="effects_8c.html#ab5125d5944958f891647b27b440d3d62" target="_top" xlink:title=" ">
<polygon fill="white" stroke="#666666" points="580,-369.23 488,-369.23 488,-350.23 580,-350.23 580,-369.23"/>
<text text-anchor="middle" x="534" y="-357.23" font-family="Helvetica,sans-Serif" font-size="10.00">func_8008F5A4</text>
</a>
</g>
</g>
<!-- Node3&#45;&gt;Node9 -->
<g id="edge8_Node000003_Node000009" class="edge">
<title>Node3&#45;&gt;Node9</title>
<g id="a_edge8_Node000003_Node000009"><a xlink:title=" ">
<path fill="none" stroke="#63b8ff" d="M393.11,-344.71C417.55,-347.34 450.01,-350.82 477.51,-353.78"/>
<polygon fill="#63b8ff" stroke="#63b8ff" points="477.46,-357.29 487.78,-354.88 478.21,-350.33 477.46,-357.29"/>
</a>
</g>
</g>
<!-- Node14 -->
<g id="Node000014" class="node">
<title>Node14</title>
<g id="a_Node000014"><a xlink:href="effects_8c.html#a2f183005a5e85816dd81508847c1904d" target="_top" xlink:title=" ">
<polygon fill="white" stroke="#666666" points="580.5,-332.23 487.5,-332.23 487.5,-313.23 580.5,-313.23 580.5,-332.23"/>
<text text-anchor="middle" x="534" y="-320.23" font-family="Helvetica,sans-Serif" font-size="10.00">func_8008FEDC</text>
</a>
</g>
</g>
<!-- Node3&#45;&gt;Node14 -->
<g id="edge13_Node000003_Node000014" class="edge">
<title>Node3&#45;&gt;Node14</title>
<g id="a_edge13_Node000003_Node000014"><a xlink:title=" ">
<path fill="none" stroke="#63b8ff" d="M393.11,-336.96C417.46,-334.48 449.77,-331.2 477.21,-328.41"/>
<polygon fill="#63b8ff" stroke="#63b8ff" points="477.86,-331.86 487.45,-327.36 477.15,-324.89 477.86,-331.86"/>
</a>
</g>
</g>
<!-- Node15 -->
<g id="Node000015" class="node">
<title>Node15</title>
<g id="a_Node000015"><a xlink:href="effects_8c.html#acbb1f27649a63227fcf0dd1f17dfa096" target="_top" xlink:title=" ">
<polygon fill="white" stroke="#666666" points="595,-294.73 473,-294.73 473,-264.73 595,-264.73 595,-294.73"/>
<text text-anchor="start" x="481" y="-282.73" font-family="Helvetica,sans-Serif" font-size="10.00">remove_banana_near</text>
<text text-anchor="middle" x="534" y="-271.73" font-family="Helvetica,sans-Serif" font-size="10.00">_spinout_effect</text>
</a>
</g>
</g>
<!-- Node3&#45;&gt;Node15 -->
<g id="edge14_Node000003_Node000015" class="edge">
<title>Node3&#45;&gt;Node15</title>
<g id="a_edge14_Node000003_Node000015"><a xlink:title=" ">
<path fill="none" stroke="#63b8ff" d="M388.99,-331.17C398.75,-328.1 409.39,-324.51 419,-320.73 435.47,-314.26 438.5,-310.13 455,-303.73 460.04,-301.78 465.3,-299.88 470.62,-298.05"/>
<polygon fill="#63b8ff" stroke="#63b8ff" points="471.82,-301.34 480.2,-294.86 469.61,-294.7 471.82,-301.34"/>
</a>
</g>
</g>
<!-- Node16 -->
<g id="Node000016" class="node">
<title>Node16</title>
<g id="a_Node000016"><a xlink:href="effects_8c.html#a4768d56263e476d3bac47ee01bac3dc8" target="_top" xlink:title=" ">
<polygon fill="white" stroke="#666666" points="613,-246.73 455,-246.73 455,-216.73 613,-216.73 613,-246.73"/>
<text text-anchor="start" x="463" y="-234.73" font-family="Helvetica,sans-Serif" font-size="10.00">remove_boost_ramp_asphalt</text>
<text text-anchor="middle" x="534" y="-223.73" font-family="Helvetica,sans-Serif" font-size="10.00">_effect</text>
</a>
</g>
</g>
<!-- Node3&#45;&gt;Node16 -->
<g id="edge15_Node000003_Node000016" class="edge">
<title>Node3&#45;&gt;Node16</title>
<g id="a_edge15_Node000003_Node000016"><a xlink:title=" ">
<path fill="none" stroke="#63b8ff" d="M393,-334.05C402.2,-331.09 411.54,-326.84 419,-320.73 444.55,-299.81 429.36,-276.54 455,-255.73 456.57,-254.46 458.2,-253.25 459.89,-252.11"/>
<polygon fill="#63b8ff" stroke="#63b8ff" points="461.89,-255 468.74,-246.92 458.34,-248.96 461.89,-255"/>
</a>
</g>
</g>
<!-- Node17 -->
<g id="Node000017" class="node">
<title>Node17</title>
<g id="a_Node000017"><a xlink:href="effects_8c.html#aafe14c45e9b91bb1d409ef2f2bfe5c53" target="_top" xlink:title=" ">
<polygon fill="white" stroke="#666666" points="608.5,-198.73 459.5,-198.73 459.5,-168.73 608.5,-168.73 608.5,-198.73"/>
<text text-anchor="start" x="467.5" y="-186.73" font-family="Helvetica,sans-Serif" font-size="10.00">remove_boost_ramp_wood</text>
<text text-anchor="middle" x="534" y="-175.73" font-family="Helvetica,sans-Serif" font-size="10.00">_effect</text>
</a>
</g>
</g>
<!-- Node3&#45;&gt;Node17 -->
<g id="edge16_Node000003_Node000017" class="edge">
<title>Node3&#45;&gt;Node17</title>
<g id="a_edge16_Node000003_Node000017"><a xlink:title=" ">
<path fill="none" stroke="#63b8ff" d="M393.21,-335.21C402.62,-332.25 412.02,-327.71 419,-320.73 456.29,-283.48 417.54,-244.82 455,-207.73 455.96,-206.78 456.96,-205.86 457.99,-204.98"/>
<polygon fill="#63b8ff" stroke="#63b8ff" points="460.38,-207.58 466.48,-198.93 456.31,-201.89 460.38,-207.58"/>
</a>
</g>
</g>
<!-- Node18 -->
<g id="Node000018" class="node">
<title>Node18</title>
<g id="a_Node000018"><a xlink:href="effects_8c.html#a9ff5c732ea8ba59908ccf62ff441e7e4" target="_top" xlink:title=" ">
<polygon fill="white" stroke="#666666" points="594,-150.73 474,-150.73 474,-120.73 594,-120.73 594,-150.73"/>
<text text-anchor="start" x="482" y="-138.73" font-family="Helvetica,sans-Serif" font-size="10.00">remove_driving_near</text>
<text text-anchor="middle" x="534" y="-127.73" font-family="Helvetica,sans-Serif" font-size="10.00">_spinout_effect</text>
</a>
</g>
</g>
<!-- Node3&#45;&gt;Node18 -->
<g id="edge17_Node000003_Node000018" class="edge">
<title>Node3&#45;&gt;Node18</title>
<g id="a_edge17_Node000003_Node000018"><a xlink:title=" ">
<path fill="none" stroke="#63b8ff" d="M393.3,-335.72C402.82,-332.76 412.26,-328.09 419,-320.73 468.53,-266.67 405.23,-213.57 455,-159.73 457.92,-156.57 461.25,-153.82 464.84,-151.43"/>
<polygon fill="#63b8ff" stroke="#63b8ff" points="466.65,-154.44 473.65,-146.49 463.22,-148.33 466.65,-154.44"/>
</a>
</g>
</g>
<!-- Node19 -->
<g id="Node000019" class="node">
<title>Node19</title>
<g id="a_Node000019"><a xlink:href="effects_8c.html#a5f1aead641683fd07375d6737dfafac2" target="_top" xlink:title=" ">
<polygon fill="white" stroke="#666666" points="590.5,-102.73 477.5,-102.73 477.5,-72.73 590.5,-72.73 590.5,-102.73"/>
<text text-anchor="start" x="485.5" y="-90.73" font-family="Helvetica,sans-Serif" font-size="10.00">remove_hit_by_star</text>
<text text-anchor="middle" x="534" y="-79.73" font-family="Helvetica,sans-Serif" font-size="10.00">_effect</text>
</a>
</g>
</g>
<!-- Node3&#45;&gt;Node19 -->
<g id="edge18_Node000003_Node000019" class="edge">
<title>Node3&#45;&gt;Node19</title>
<g id="a_edge18_Node000003_Node000019"><a xlink:title=" ">
<path fill="none" stroke="#63b8ff" d="M393.21,-336.03C402.85,-333.09 412.36,-328.34 419,-320.73 480.94,-249.68 392.75,-182.51 455,-111.73 458.74,-107.48 463.22,-103.97 468.11,-101.07"/>
<polygon fill="#63b8ff" stroke="#63b8ff" points="469.91,-104.09 477.29,-96.49 466.78,-97.82 469.91,-104.09"/>
</a>
</g>
</g>
<!-- Node20 -->
<g id="Node000020" class="node">
<title>Node20</title>
<g id="a_Node000020"><a xlink:href="effects_8c.html#a9be2cc0ebbe72a9d5276a4fd2675eef3" target="_top" xlink:title=" ">
<polygon fill="white" stroke="#666666" points="606.5,-54.23 461.5,-54.23 461.5,-35.23 606.5,-35.23 606.5,-54.23"/>
<text text-anchor="middle" x="534" y="-42.23" font-family="Helvetica,sans-Serif" font-size="10.00">remove_mushroom_effect</text>
</a>
</g>
</g>
<!-- Node3&#45;&gt;Node20 -->
<g id="edge19_Node000003_Node000020" class="edge">
<title>Node3&#45;&gt;Node20</title>
<g id="a_edge19_Node000003_Node000020"><a xlink:title=" ">
<path fill="none" stroke="#63b8ff" d="M393.04,-336.26C402.79,-333.33 412.41,-328.53 419,-320.73 493.42,-232.61 377.61,-149.25 455,-63.73 456.19,-62.42 457.45,-61.19 458.78,-60.03"/>
<polygon fill="#63b8ff" stroke="#63b8ff" points="460.84,-62.87 467.01,-54.26 456.82,-57.14 460.84,-62.87"/>
</a>
</g>
</g>
<!-- Node21 -->
<g id="Node000021" class="node">
<title>Node21</title>
<g id="a_Node000021"><a xlink:href="effects_8c.html#a85a7ba2f2c97859b0090c54a68e8f003" target="_top" xlink:title=" ">
<polygon fill="white" stroke="#666666" points="601,-591.23 467,-591.23 467,-572.23 601,-572.23 601,-591.23"/>
<text text-anchor="middle" x="534" y="-579.23" font-family="Helvetica,sans-Serif" font-size="10.00">remove_spinout_effects</text>
</a>
</g>
</g>
<!-- Node3&#45;&gt;Node21 -->
<g id="edge20_Node000003_Node000021" class="edge">
<title>Node3&#45;&gt;Node21</title>
<g id="a_edge20_Node000003_Node000021"><a xlink:title=" ">
<path fill="none" stroke="#63b8ff" d="M360.16,-350.42C378.38,-392.8 450.44,-559.97 455,-563.73 456.4,-564.89 457.86,-565.97 459.37,-566.99"/>
<polygon fill="#63b8ff" stroke="#63b8ff" points="458.07,-570.27 468.51,-572.12 461.5,-564.17 458.07,-570.27"/>
</a>
</g>
</g>
<!-- Node10 -->
<g id="Node000010" class="node">
<title>Node10</title>
<g id="a_Node000010"><a xlink:href="code__80057C60_8c.html#ae28b6eb556910087cea23f0cb7a322bd" target="_top" xlink:title=" ">
<polygon fill="white" stroke="#666666" points="761,-369.23 649,-369.23 649,-350.23 761,-350.23 761,-369.23"/>
<text text-anchor="middle" x="705" y="-357.23" font-family="Helvetica,sans-Serif" font-size="10.00">pop_player_balloon</text>
</a>
</g>
</g>
<!-- Node9&#45;&gt;Node10 -->
<g id="edge9_Node000009_Node000010" class="edge">
<title>Node9&#45;&gt;Node10</title>
<g id="a_edge9_Node000009_Node000010"><a xlink:title=" ">
<path fill="none" stroke="#63b8ff" d="M580.29,-359.73C598.27,-359.73 619.3,-359.73 638.87,-359.73"/>
<polygon fill="#63b8ff" stroke="#63b8ff" points="638.94,-363.23 648.94,-359.73 638.94,-356.23 638.94,-363.23"/>
</a>
</g>
</g>
<!-- Node11 -->
<g id="Node000011" class="node">
<title>Node11</title>
<g id="a_Node000011"><a xlink:href="effects_8c.html#a1c7552c4a370cc015c2726e40f1fdb06" target="_top" xlink:title=" ">
<polygon fill="white" stroke="#666666" points="890,-350.23 797,-350.23 797,-331.23 890,-331.23 890,-350.23"/>
<text text-anchor="middle" x="843.5" y="-338.23" font-family="Helvetica,sans-Serif" font-size="10.00">func_8008FD4C</text>
</a>
</g>
</g>
<!-- Node10&#45;&gt;Node11 -->
<g id="edge10_Node000010_Node000011" class="edge">
<title>Node10&#45;&gt;Node11</title>
<g id="a_edge10_Node000010_Node000011"><a xlink:title=" ">
<path fill="none" stroke="#63b8ff" d="M761.13,-352.06C769.54,-350.89 778.24,-349.68 786.67,-348.5"/>
<polygon fill="#63b8ff" stroke="#63b8ff" points="787.36,-351.94 796.79,-347.1 786.4,-345.01 787.36,-351.94"/>
</a>
</g>
</g>
<!-- Node12 -->
<g id="Node000012" class="node">
<title>Node12</title>
<g id="a_Node000012"><a xlink:href="external_8c.html#a2be9efc97a92e19d02aaee90d676acc1" target="_top" xlink:title=" ">
<polygon fill="white" stroke="#666666" points="889.5,-387.23 797.5,-387.23 797.5,-368.23 889.5,-368.23 889.5,-387.23"/>
<text text-anchor="middle" x="843.5" y="-375.23" font-family="Helvetica,sans-Serif" font-size="10.00">func_800C9060</text>
</a>
</g>
</g>
<!-- Node10&#45;&gt;Node12 -->
<g id="edge11_Node000010_Node000012" class="edge">
<title>Node10&#45;&gt;Node12</title>
<g id="a_edge11_Node000010_Node000012"><a xlink:title=" ">
<path fill="none" stroke="#63b8ff" d="M761.13,-367C769.74,-368.14 778.65,-369.31 787.26,-370.45"/>
<polygon fill="#63b8ff" stroke="#63b8ff" points="786.84,-373.92 797.21,-371.76 787.76,-366.98 786.84,-373.92"/>
</a>
</g>
</g>
<!-- Node13 -->
<g id="Node000013" class="node">
<title>Node13</title>
<g id="a_Node000013"><a xlink:href="external_8c.html#a475cff796211891556f52877cd8e9b9e" target="_top" xlink:title=" ">
<polygon fill="white" stroke="#666666" points="998,-387.23 926,-387.23 926,-368.23 998,-368.23 998,-387.23"/>
<text text-anchor="middle" x="962" y="-375.23" font-family="Helvetica,sans-Serif" font-size="10.00">play_sound</text>
</a>
</g>
</g>
<!-- Node12&#45;&gt;Node13 -->
<g id="edge12_Node000012_Node000013" class="edge">
<title>Node12&#45;&gt;Node13</title>
<g id="a_edge12_Node000012_Node000013"><a xlink:title=" ">
<path fill="none" stroke="#63b8ff" d="M889.54,-377.73C898.1,-377.73 907.06,-377.73 915.63,-377.73"/>
<polygon fill="#63b8ff" stroke="#63b8ff" points="915.83,-381.23 925.83,-377.73 915.83,-374.23 915.83,-381.23"/>
</a>
</g>
</g>
<!-- Node22&#45;&gt;Node13 -->
<g id="edge22_Node000022_Node000013" class="edge">
<title>Node22&#45;&gt;Node13</title>
<g id="a_edge22_Node000022_Node000013"><a xlink:title=" ">
<path fill="none" stroke="#63b8ff" d="M355.87,-293.11C355.9,-252.11 362.11,-91.18 455,-25.73 512.41,14.71 548.2,1.33 613,-25.73 783.87,-97.08 913.64,-297.69 950.44,-359.42"/>
<polygon fill="#63b8ff" stroke="#63b8ff" points="947.46,-361.25 955.54,-368.1 953.49,-357.7 947.46,-361.25"/>
</a>
</g>
</g>
<!-- Node24 -->
<g id="Node000024" class="node">
<title>Node24</title>
<g id="a_Node000024"><a xlink:href="external_8c.html#aad3025d980410fa157174acbf923f8c0" target="_top" xlink:title=" ">
<polygon fill="white" stroke="#666666" points="580.5,-628.23 487.5,-628.23 487.5,-609.23 580.5,-609.23 580.5,-628.23"/>
<text text-anchor="middle" x="534" y="-616.23" font-family="Helvetica,sans-Serif" font-size="10.00">func_800C92CC</text>
</a>
</g>
</g>
<!-- Node23&#45;&gt;Node24 -->
<g id="edge24_Node000023_Node000024" class="edge">
<title>Node23&#45;&gt;Node24</title>
<g id="a_edge24_Node000023_Node000024"><a xlink:title=" ">
<path fill="none" stroke="#63b8ff" d="M363.25,-516.47C378.16,-535.76 414.29,-578.85 455,-600.73 461.97,-604.48 469.7,-607.45 477.51,-609.8"/>
<polygon fill="#63b8ff" stroke="#63b8ff" points="476.82,-613.24 487.39,-612.47 478.64,-606.48 476.82,-613.24"/>
</a>
</g>
</g>
<!-- Node24&#45;&gt;Node13 -->
<g id="edge26_Node000024_Node000013" class="edge">
<title>Node24&#45;&gt;Node13</title>
<g id="a_edge26_Node000024_Node000013"><a xlink:title=" ">
<path fill="none" stroke="#63b8ff" d="M580.92,-624.4C628.54,-628.17 703.86,-628.09 761,-599.73 855.18,-552.99 925.59,-441.12 950.84,-396.53"/>
<polygon fill="#63b8ff" stroke="#63b8ff" points="953.99,-398.07 955.78,-387.63 947.87,-394.67 953.99,-398.07"/>
</a>
</g>
</g>
<!-- Node25 -->
<g id="Node000025" class="node">
<title>Node25</title>
<g id="a_Node000025"><a xlink:href="external_8c.html#a747de0be4005b4b29150d5c068564b7d" target="_top" xlink:title=" ">
<polygon fill="white" stroke="#666666" points="751,-590.23 659,-590.23 659,-571.23 751,-571.23 751,-590.23"/>
<text text-anchor="middle" x="705" y="-578.23" font-family="Helvetica,sans-Serif" font-size="10.00">func_800C1C88</text>
</a>
</g>
</g>
<!-- Node24&#45;&gt;Node25 -->
<g id="edge25_Node000024_Node000025" class="edge">
<title>Node24&#45;&gt;Node25</title>
<g id="a_edge25_Node000024_Node000025"><a xlink:title=" ">
<path fill="none" stroke="#63b8ff" d="M577.65,-609.14C600.15,-604.08 627.95,-597.83 651.74,-592.48"/>
<polygon fill="#63b8ff" stroke="#63b8ff" points="652.67,-595.86 661.66,-590.25 651.14,-589.03 652.67,-595.86"/>
</a>
</g>
</g>
</g>
</svg>

<g id="navigator" transform="translate(0 0)" fill="#404254">
  <rect fill="#f2f5e9" fill-opacity="0.5" stroke="#606060" stroke-width=".5" x="0" y="0" width="60" height="60"/>
  <use id="zoomplus" xlink:href="#zoomPlus" x="17" y="9" onmousedown="handleZoom(evt,'in')"/>
  <use id="zoomminus" xlink:href="#zoomMin" x="42" y="9" onmousedown="handleZoom(evt,'out')"/>
  <use id="reset" xlink:href="#resetDef" x="30" y="36" onmousedown="handleReset()"/>
   <use id="arrowup" xlink:href="#arrowUp" x="0" y="0" onmousedown="handlePan(0,-1)"/>
  <use id="arrowright" xlink:href="#arrowRight" x="0" y="0" onmousedown="handlePan(1,0)"/>
  <use id="arrowdown" xlink:href="#arrowDown" x="0" y="0" onmousedown="handlePan(0,1)"/>
  <use id="arrowleft" xlink:href="#arrowLeft" x="0" y="0" onmousedown="handlePan(-1,0)"/>
</g>
<svg viewBox="0 0 15 15" width="100%" height="30px" preserveAspectRatio="xMaxYMin meet">
 <g id="arrow_out" transform="scale(0.3 0.3)">
  <a xlink:href="effects_8h_a1acd3344c5b7b411c626bc5fa2b36653_cgraph_org.svg" target="_base">
   <rect id="button" ry="5" rx="5" y="6" x="6" height="38" width="38"
        fill="#f2f5e9" fill-opacity="0.5" stroke="#606060" stroke-width="1.0"/>
   <path id="arrow"
     d="M 11.500037,31.436501 C 11.940474,20.09759 22.043105,11.32322 32.158766,21.979434 L 37.068811,17.246167 C 37.068811,17.246167 37.088388,32 37.088388,32 L 22.160133,31.978069 C 22.160133,31.978069 26.997745,27.140456 26.997745,27.140456 C 18.528582,18.264221 13.291696,25.230495 11.500037,31.436501 z"
     style="fill:#404040;"/>
  </a>
 </g>
</svg>

<style type='text/css'>
<![CDATA[
[data-mouse-over-selected='false'] { opacity: 0.7; }
[data-mouse-over-selected='true']  { opacity: 1.0; }
]]>
</style>
<script type="application/ecmascript"><![CDATA[
document.addEventListener('DOMContentLoaded', (event) => {
  highlightEdges();
  highlightAdjacentNodes();
});
]]></script>
</svg>
