<?xml version="1.0" encoding="UTF-8" standalone="no"?>
<!DOCTYPE svg PUBLIC "-//W3C//DTD SVG 1.1//EN"
 "http://www.w3.org/Graphics/SVG/1.1/DTD/svg11.dtd">
<!-- Generated by graphviz version 2.43.0 (0)
 -->
<!-- Title: trigger_vertical_tumble Pages: 1 -->
<!--zoomable 753 -->

<svg id="main" version="1.1" xmlns="http://www.w3.org/2000/svg" xmlns:xlink="http://www.w3.org/1999/xlink" xml:space="preserve" onload="init(evt)">
<style type="text/css"><![CDATA[
.node, .edge {opacity: 0.7;}
.node.selected, .edge.selected {opacity: 1;}
.edge:hover path { stroke: red; }
.edge:hover polygon { stroke: red; fill: red; }
]]></style>

<defs>
  <circle id="rim" cx="0" cy="0" r="7"/>
  <circle id="rim2" cx="0" cy="0" r="3.5"/>
  <g id="zoomPlus">
    <use xlink:href="#rim" fill="#404040"><set attributeName="fill" to="#808080" begin="zoomplus.mouseover" end="zoomplus.mouseout"/></use>
    <path d="M-4,0h8M0,-4v8" fill="none" stroke="white" stroke-width="1.5" pointer-events="none"/>
  </g>
  <g id="zoomMin">
    <use xlink:href="#rim" fill="#404040"><set attributeName="fill" to="#808080" begin="zoomminus.mouseover" end="zoomminus.mouseout"/></use>
    <path d="M-4,0h8" fill="none" stroke="white" stroke-width="1.5" pointer-events="none"/>
  </g>
  <g id="arrowUp" transform="translate(30 24)">
    <use xlink:href="#rim"/>
    <path pointer-events="none" fill="none" stroke="white" stroke-width="1.5" d="M0,-3.0v7 M-2.5,-0.5L0,-3.0L2.5,-0.5"/>
  </g>
  <g id="arrowRight" transform="rotate(90) translate(36 -43)">
    <use xlink:href="#rim"/>
    <path pointer-events="none" fill="none" stroke="white" stroke-width="1.5" d="M0,-3.0v7 M-2.5,-0.5L0,-3.0L2.5,-0.5"/>
  </g>
  <g id="arrowDown" transform="rotate(180) translate(-30 -48)">
    <use xlink:href="#rim"/>
    <path pointer-events="none" fill="none" stroke="white" stroke-width="1.5" d="M0,-3.0v7 M-2.5,-0.5L0,-3.0L2.5,-0.5"/>
  </g>
  <g id="arrowLeft" transform="rotate(270) translate(-36 17)">
    <use xlink:href="#rim"/>
    <path pointer-events="none" fill="none" stroke="white" stroke-width="1.5" d="M0,-3.0v7 M-2.5,-0.5L0,-3.0L2.5,-0.5"/>
  </g>
  <g id="resetDef">
    <use xlink:href="#rim2" fill="#404040"><set attributeName="fill" to="#808080" begin="reset.mouseover" end="reset.mouseout"/></use>
  </g>
</defs>
<script type="application/ecmascript">
var viewWidth = 882;
var viewHeight = 753;
var sectionId = 'dynsection-116';
</script>
<script type="application/ecmascript" xlink:href="svg.min.js"/>
<svg id="graph" class="graph">
<g id="viewport">
<title>trigger_vertical_tumble</title>
<!-- Node1 -->
<g id="Node000001" class="node">
<title>Node1</title>
<g id="a_Node000001"><a xlink:title=" ">
<polygon fill="#999999" stroke="#666666" points="131,-113 0,-113 0,-94 131,-94 131,-113"/>
<text text-anchor="middle" x="65.5" y="-101" font-family="Helvetica,sans-Serif" font-size="10.00">trigger_vertical_tumble</text>
</a>
</g>
</g>
<!-- Node2 -->
<g id="Node000002" class="node">
<title>Node2</title>
<g id="a_Node000002"><a xlink:href="effects_8c.html#a6559cc02e5bb1a4e7fe6c97850cdd87e" target="_top" xlink:title=" ">
<polygon fill="white" stroke="#666666" points="269,-480 193,-480 193,-461 269,-461 269,-480"/>
<text text-anchor="middle" x="231" y="-468" font-family="Helvetica,sans-Serif" font-size="10.00">clean_effect</text>
</a>
</g>
</g>
<!-- Node1&#45;&gt;Node2 -->
<g id="edge1_Node000001_Node000002" class="edge">
<title>Node1&#45;&gt;Node2</title>
<g id="a_edge1_Node000001_Node000002"><a xlink:title=" ">
<path fill="none" stroke="#63b8ff" d="M70.87,-113.32C92.9,-162.76 191.83,-384.82 221.54,-451.51"/>
<polygon fill="#63b8ff" stroke="#63b8ff" points="218.42,-453.11 225.69,-460.82 224.82,-450.26 218.42,-453.11"/>
</a>
</g>
</g>
<!-- Node11 -->
<g id="Node000011" class="node">
<title>Node11</title>
<g id="a_Node000011"><a xlink:href="external_8c.html#a2be9efc97a92e19d02aaee90d676acc1" target="_top" xlink:title=" ">
<polygon fill="white" stroke="#666666" points="765.5,-170 673.5,-170 673.5,-151 765.5,-151 765.5,-170"/>
<text text-anchor="middle" x="719.5" y="-158" font-family="Helvetica,sans-Serif" font-size="10.00">func_800C9060</text>
</a>
</g>
</g>
<!-- Node1&#45;&gt;Node11 -->
<g id="edge21_Node000001_Node000011" class="edge">
<title>Node1&#45;&gt;Node11</title>
<g id="a_edge21_Node000001_Node000011"><a xlink:title=" ">
<path fill="none" stroke="#63b8ff" d="M86.74,-113.12C106.65,-122.06 138.18,-134.82 167,-140.5 345.63,-175.69 562.94,-169.66 663.09,-164.21"/>
<polygon fill="#63b8ff" stroke="#63b8ff" points="663.48,-167.69 673.27,-163.64 663.09,-160.71 663.48,-167.69"/>
</a>
</g>
</g>
<!-- Node21 -->
<g id="Node000021" class="node">
<title>Node21</title>
<g id="a_Node000021"><a xlink:href="effects_8c.html#a1698463639e133ec28807bb36a303efe" target="_top" xlink:title=" ">
<polygon fill="white" stroke="#666666" points="277,-132 185,-132 185,-113 277,-113 277,-132"/>
<text text-anchor="middle" x="231" y="-120" font-family="Helvetica,sans-Serif" font-size="10.00">func_8008C310</text>
</a>
</g>
</g>
<!-- Node1&#45;&gt;Node21 -->
<g id="edge20_Node000001_Node000021" class="edge">
<title>Node1&#45;&gt;Node21</title>
<g id="a_edge20_Node000001_Node000021"><a xlink:title=" ">
<path fill="none" stroke="#63b8ff" d="M131.12,-111.01C145.63,-112.7 160.89,-114.47 174.97,-116.1"/>
<polygon fill="#63b8ff" stroke="#63b8ff" points="174.64,-119.59 184.98,-117.27 175.45,-112.64 174.64,-119.59"/>
</a>
</g>
</g>
<!-- Node22 -->
<g id="Node000022" class="node">
<title>Node22</title>
<g id="a_Node000022"><a xlink:href="external_8c.html#a337fc3ab94ebb3293a85908229303ac8" target="_top" xlink:title=" ">
<polygon fill="white" stroke="#666666" points="627,-95 535,-95 535,-76 627,-76 627,-95"/>
<text text-anchor="middle" x="581" y="-83" font-family="Helvetica,sans-Serif" font-size="10.00">func_800C90F4</text>
</a>
</g>
</g>
<!-- Node1&#45;&gt;Node22 -->
<g id="edge22_Node000001_Node000022" class="edge">
<title>Node1&#45;&gt;Node22</title>
<g id="a_edge22_Node000001_Node000022"><a xlink:title=" ">
<path fill="none" stroke="#63b8ff" d="M131.02,-101.24C232.89,-97.67 429.26,-90.78 524.93,-87.43"/>
<polygon fill="#63b8ff" stroke="#63b8ff" points="525.1,-90.93 534.97,-87.08 524.86,-83.93 525.1,-90.93"/>
</a>
</g>
</g>
<!-- Node23 -->
<g id="Node000023" class="node">
<title>Node23</title>
<g id="a_Node000023"><a xlink:href="external_8c.html#a55fc3c32711b7abc0cafe3ca610110c9" target="_top" xlink:title=" ">
<polygon fill="white" stroke="#666666" points="277.5,-56 184.5,-56 184.5,-37 277.5,-37 277.5,-56"/>
<text text-anchor="middle" x="231" y="-44" font-family="Helvetica,sans-Serif" font-size="10.00">func_800CA24C</text>
</a>
</g>
</g>
<!-- Node1&#45;&gt;Node23 -->
<g id="edge24_Node000001_Node000023" class="edge">
<title>Node1&#45;&gt;Node23</title>
<g id="a_edge24_Node000001_Node000023"><a xlink:title=" ">
<path fill="none" stroke="#63b8ff" d="M93.87,-93.96C120.98,-84.51 162.71,-69.96 192.82,-59.46"/>
<polygon fill="#63b8ff" stroke="#63b8ff" points="194.25,-62.67 202.54,-56.07 191.95,-56.06 194.25,-62.67"/>
</a>
</g>
</g>
<!-- Node24 -->
<g id="Node000024" class="node">
<title>Node24</title>
<g id="a_Node000024"><a xlink:href="cpu__vehicles__camera__path_8c.html#adb9b8cd30f2be4e125706fa55ea2272d" target="_top" xlink:title=" ">
<polygon fill="white" stroke="#666666" points="295,-19 167,-19 167,0 295,0 295,-19"/>
<text text-anchor="middle" x="231" y="-7" font-family="Helvetica,sans-Serif" font-size="10.00">play_cpu_sound_effect</text>
</a>
</g>
</g>
<!-- Node1&#45;&gt;Node24 -->
<g id="edge25_Node000001_Node000024" class="edge">
<title>Node1&#45;&gt;Node24</title>
<g id="a_edge25_Node000001_Node000024"><a xlink:title=" ">
<path fill="none" stroke="#63b8ff" d="M76.49,-93.89C93.64,-77.9 130.4,-45.77 167,-27.5 170.72,-25.64 174.66,-23.95 178.69,-22.41"/>
<polygon fill="#63b8ff" stroke="#63b8ff" points="179.89,-25.7 188.17,-19.09 177.58,-19.09 179.89,-25.7"/>
</a>
</g>
</g>
<!-- Node3 -->
<g id="Node000003" class="node">
<title>Node3</title>
<g id="a_Node000003"><a xlink:href="effects_8c.html#a7fef1af5ca366a9346478d94239c6142" target="_top" xlink:title=" ">
<polygon fill="white" stroke="#666666" points="456.5,-745 363.5,-745 363.5,-726 456.5,-726 456.5,-745"/>
<text text-anchor="middle" x="410" y="-733" font-family="Helvetica,sans-Serif" font-size="10.00">func_8008C6D0</text>
</a>
</g>
</g>
<!-- Node2&#45;&gt;Node3 -->
<g id="edge2_Node000002_Node000003" class="edge">
<title>Node2&#45;&gt;Node3</title>
<g id="a_edge2_Node000002_Node000003"><a xlink:title=" ">
<path fill="none" stroke="#63b8ff" d="M232.77,-480.11C236.25,-517.1 253.98,-651.54 331,-717.5 337.45,-723.02 345.26,-726.93 353.42,-729.69"/>
<polygon fill="#63b8ff" stroke="#63b8ff" points="352.52,-733.07 363.1,-732.42 354.42,-726.34 352.52,-733.07"/>
</a>
</g>
</g>
<!-- Node4 -->
<g id="Node000004" class="node">
<title>Node4</title>
<g id="a_Node000004"><a xlink:href="effects_8c.html#a5f19eaaa048055d292d02c717e635786" target="_top" xlink:title=" ">
<polygon fill="white" stroke="#666666" points="456,-708 364,-708 364,-689 456,-689 456,-708"/>
<text text-anchor="middle" x="410" y="-696" font-family="Helvetica,sans-Serif" font-size="10.00">func_8008D760</text>
</a>
</g>
</g>
<!-- Node2&#45;&gt;Node4 -->
<g id="edge3_Node000002_Node000004" class="edge">
<title>Node2&#45;&gt;Node4</title>
<g id="a_edge3_Node000002_Node000004"><a xlink:title=" ">
<path fill="none" stroke="#63b8ff" d="M233.53,-480.28C239.34,-513.92 263.22,-625.86 331,-680.5 337.69,-685.89 345.69,-689.73 353.99,-692.45"/>
<polygon fill="#63b8ff" stroke="#63b8ff" points="353.23,-695.87 363.8,-695.15 355.09,-689.12 353.23,-695.87"/>
</a>
</g>
</g>
<!-- Node5 -->
<g id="Node000005" class="node">
<title>Node5</title>
<g id="a_Node000005"><a xlink:href="effects_8c.html#a4ea2da0616ee3c475e4be217dc0bc71f" target="_top" xlink:title=" ">
<polygon fill="white" stroke="#666666" points="456.5,-671 363.5,-671 363.5,-652 456.5,-652 456.5,-671"/>
<text text-anchor="middle" x="410" y="-659" font-family="Helvetica,sans-Serif" font-size="10.00">func_8008D97C</text>
</a>
</g>
</g>
<!-- Node2&#45;&gt;Node5 -->
<g id="edge4_Node000002_Node000005" class="edge">
<title>Node2&#45;&gt;Node5</title>
<g id="a_edge4_Node000002_Node000005"><a xlink:title=" ">
<path fill="none" stroke="#63b8ff" d="M234.55,-480.2C242.86,-509.82 272.11,-599.75 331,-643.5 337.66,-648.45 345.46,-652.07 353.5,-654.71"/>
<polygon fill="#63b8ff" stroke="#63b8ff" points="352.8,-658.15 363.37,-657.47 354.69,-651.41 352.8,-658.15"/>
</a>
</g>
</g>
<!-- Node6 -->
<g id="Node000006" class="node">
<title>Node6</title>
<g id="a_Node000006"><a xlink:href="effects_8c.html#a13005f7c39388deade6ba0491d7c5918" target="_top" xlink:title=" ">
<polygon fill="white" stroke="#666666" points="455.5,-634 364.5,-634 364.5,-615 455.5,-615 455.5,-634"/>
<text text-anchor="middle" x="410" y="-622" font-family="Helvetica,sans-Serif" font-size="10.00">func_8008E884</text>
</a>
</g>
</g>
<!-- Node2&#45;&gt;Node6 -->
<g id="edge5_Node000002_Node000006" class="edge">
<title>Node2&#45;&gt;Node6</title>
<g id="a_edge5_Node000002_Node000006"><a xlink:title=" ">
<path fill="none" stroke="#63b8ff" d="M236.11,-480.24C247.29,-505.48 280.82,-573.32 331,-606.5 338.08,-611.18 346.23,-614.66 354.52,-617.23"/>
<polygon fill="#63b8ff" stroke="#63b8ff" points="353.71,-620.64 364.28,-619.86 355.53,-613.88 353.71,-620.64"/>
</a>
</g>
</g>
<!-- Node7 -->
<g id="Node000007" class="node">
<title>Node7</title>
<g id="a_Node000007"><a xlink:href="effects_8c.html#ae02351b6bbb678b552ec8864b47fc56c" target="_top" xlink:title=" ">
<polygon fill="white" stroke="#666666" points="455.5,-597 364.5,-597 364.5,-578 455.5,-578 455.5,-597"/>
<text text-anchor="middle" x="410" y="-585" font-family="Helvetica,sans-Serif" font-size="10.00">func_8008F3E0</text>
</a>
</g>
</g>
<!-- Node2&#45;&gt;Node7 -->
<g id="edge6_Node000002_Node000007" class="edge">
<title>Node2&#45;&gt;Node7</title>
<g id="a_edge6_Node000002_Node000007"><a xlink:title=" ">
<path fill="none" stroke="#63b8ff" d="M238.68,-480.15C253.07,-500.17 289.12,-546.29 331,-569.5 338.17,-573.48 346.18,-576.57 354.26,-578.99"/>
<polygon fill="#63b8ff" stroke="#63b8ff" points="353.54,-582.42 364.1,-581.61 355.34,-575.65 353.54,-582.42"/>
</a>
</g>
</g>
<!-- Node8 -->
<g id="Node000008" class="node">
<title>Node8</title>
<g id="a_Node000008"><a xlink:href="effects_8c.html#ab5125d5944958f891647b27b440d3d62" target="_top" xlink:title=" ">
<polygon fill="white" stroke="#666666" points="456,-560 364,-560 364,-541 456,-541 456,-560"/>
<text text-anchor="middle" x="410" y="-548" font-family="Helvetica,sans-Serif" font-size="10.00">func_8008F5A4</text>
</a>
</g>
</g>
<!-- Node2&#45;&gt;Node8 -->
<g id="edge7_Node000002_Node000008" class="edge">
<title>Node2&#45;&gt;Node8</title>
<g id="a_edge7_Node000002_Node000008"><a xlink:title=" ">
<path fill="none" stroke="#63b8ff" d="M244.38,-480.18C262.43,-493.82 297.47,-518.59 331,-532.5 338.22,-535.49 346.03,-538.04 353.83,-540.2"/>
<polygon fill="#63b8ff" stroke="#63b8ff" points="353.1,-543.62 363.65,-542.71 354.84,-536.84 353.1,-543.62"/>
</a>
</g>
</g>
<!-- Node13 -->
<g id="Node000013" class="node">
<title>Node13</title>
<g id="a_Node000013"><a xlink:href="effects_8c.html#a2f183005a5e85816dd81508847c1904d" target="_top" xlink:title=" ">
<polygon fill="white" stroke="#666666" points="456.5,-523 363.5,-523 363.5,-504 456.5,-504 456.5,-523"/>
<text text-anchor="middle" x="410" y="-511" font-family="Helvetica,sans-Serif" font-size="10.00">func_8008FEDC</text>
</a>
</g>
</g>
<!-- Node2&#45;&gt;Node13 -->
<g id="edge12_Node000002_Node000013" class="edge">
<title>Node2&#45;&gt;Node13</title>
<g id="a_edge12_Node000002_Node000013"><a xlink:title=" ">
<path fill="none" stroke="#63b8ff" d="M269.11,-479.51C295.49,-485.92 331.21,-494.6 359.95,-501.58"/>
<polygon fill="#63b8ff" stroke="#63b8ff" points="359.25,-505.02 369.8,-503.98 360.9,-498.21 359.25,-505.02"/>
</a>
</g>
</g>
<!-- Node14 -->
<g id="Node000014" class="node">
<title>Node14</title>
<g id="a_Node000014"><a xlink:href="effects_8c.html#acbb1f27649a63227fcf0dd1f17dfa096" target="_top" xlink:title=" ">
<polygon fill="white" stroke="#666666" points="471,-485.5 349,-485.5 349,-455.5 471,-455.5 471,-485.5"/>
<text text-anchor="start" x="357" y="-473.5" font-family="Helvetica,sans-Serif" font-size="10.00">remove_banana_near</text>
<text text-anchor="middle" x="410" y="-462.5" font-family="Helvetica,sans-Serif" font-size="10.00">_spinout_effect</text>
</a>
</g>
</g>
<!-- Node2&#45;&gt;Node14 -->
<g id="edge13_Node000002_Node000014" class="edge">
<title>Node2&#45;&gt;Node14</title>
<g id="a_edge13_Node000002_Node000014"><a xlink:title=" ">
<path fill="none" stroke="#63b8ff" d="M269.11,-470.5C289.33,-470.5 315.03,-470.5 338.87,-470.5"/>
<polygon fill="#63b8ff" stroke="#63b8ff" points="338.96,-474 348.96,-470.5 338.96,-467 338.96,-474"/>
</a>
</g>
</g>
<!-- Node15 -->
<g id="Node000015" class="node">
<title>Node15</title>
<g id="a_Node000015"><a xlink:href="effects_8c.html#a4768d56263e476d3bac47ee01bac3dc8" target="_top" xlink:title=" ">
<polygon fill="white" stroke="#666666" points="489,-437.5 331,-437.5 331,-407.5 489,-407.5 489,-437.5"/>
<text text-anchor="start" x="339" y="-425.5" font-family="Helvetica,sans-Serif" font-size="10.00">remove_boost_ramp_asphalt</text>
<text text-anchor="middle" x="410" y="-414.5" font-family="Helvetica,sans-Serif" font-size="10.00">_effect</text>
</a>
</g>
</g>
<!-- Node2&#45;&gt;Node15 -->
<g id="edge14_Node000002_Node000015" class="edge">
<title>Node2&#45;&gt;Node15</title>
<g id="a_edge14_Node000002_Node000015"><a xlink:title=" ">
<path fill="none" stroke="#63b8ff" d="M267.39,-460.9C289.22,-454.98 317.89,-447.21 343.72,-440.2"/>
<polygon fill="#63b8ff" stroke="#63b8ff" points="344.72,-443.56 353.46,-437.56 342.89,-436.8 344.72,-443.56"/>
</a>
</g>
</g>
<!-- Node16 -->
<g id="Node000016" class="node">
<title>Node16</title>
<g id="a_Node000016"><a xlink:href="effects_8c.html#aafe14c45e9b91bb1d409ef2f2bfe5c53" target="_top" xlink:title=" ">
<polygon fill="white" stroke="#666666" points="484.5,-389.5 335.5,-389.5 335.5,-359.5 484.5,-359.5 484.5,-389.5"/>
<text text-anchor="start" x="343.5" y="-377.5" font-family="Helvetica,sans-Serif" font-size="10.00">remove_boost_ramp_wood</text>
<text text-anchor="middle" x="410" y="-366.5" font-family="Helvetica,sans-Serif" font-size="10.00">_effect</text>
</a>
</g>
</g>
<!-- Node2&#45;&gt;Node16 -->
<g id="edge15_Node000002_Node000016" class="edge">
<title>Node2&#45;&gt;Node16</title>
<g id="a_edge15_Node000002_Node000016"><a xlink:title=" ">
<path fill="none" stroke="#63b8ff" d="M242.79,-460.77C260.18,-445.53 296.02,-415.99 331,-398.5 334.78,-396.61 338.73,-394.84 342.77,-393.18"/>
<polygon fill="#63b8ff" stroke="#63b8ff" points="344.24,-396.36 352.32,-389.5 341.73,-389.83 344.24,-396.36"/>
</a>
</g>
</g>
<!-- Node17 -->
<g id="Node000017" class="node">
<title>Node17</title>
<g id="a_Node000017"><a xlink:href="effects_8c.html#a9ff5c732ea8ba59908ccf62ff441e7e4" target="_top" xlink:title=" ">
<polygon fill="white" stroke="#666666" points="470,-341.5 350,-341.5 350,-311.5 470,-311.5 470,-341.5"/>
<text text-anchor="start" x="358" y="-329.5" font-family="Helvetica,sans-Serif" font-size="10.00">remove_driving_near</text>
<text text-anchor="middle" x="410" y="-318.5" font-family="Helvetica,sans-Serif" font-size="10.00">_spinout_effect</text>
</a>
</g>
</g>
<!-- Node2&#45;&gt;Node17 -->
<g id="edge16_Node000002_Node000017" class="edge">
<title>Node2&#45;&gt;Node17</title>
<g id="a_edge16_Node000002_Node000017"><a xlink:title=" ">
<path fill="none" stroke="#63b8ff" d="M237.3,-460.78C250.23,-438.01 285.66,-380.84 331,-350.5 334.07,-348.45 337.31,-346.57 340.68,-344.84"/>
<polygon fill="#63b8ff" stroke="#63b8ff" points="342.19,-348 349.8,-340.63 339.25,-341.64 342.19,-348"/>
</a>
</g>
</g>
<!-- Node18 -->
<g id="Node000018" class="node">
<title>Node18</title>
<g id="a_Node000018"><a xlink:href="effects_8c.html#a5f1aead641683fd07375d6737dfafac2" target="_top" xlink:title=" ">
<polygon fill="white" stroke="#666666" points="466.5,-293.5 353.5,-293.5 353.5,-263.5 466.5,-263.5 466.5,-293.5"/>
<text text-anchor="start" x="361.5" y="-281.5" font-family="Helvetica,sans-Serif" font-size="10.00">remove_hit_by_star</text>
<text text-anchor="middle" x="410" y="-270.5" font-family="Helvetica,sans-Serif" font-size="10.00">_effect</text>
</a>
</g>
</g>
<!-- Node2&#45;&gt;Node18 -->
<g id="edge17_Node000002_Node000018" class="edge">
<title>Node2&#45;&gt;Node18</title>
<g id="a_edge17_Node000002_Node000018"><a xlink:title=" ">
<path fill="none" stroke="#63b8ff" d="M234.9,-460.86C244.04,-432.19 274.94,-346.77 331,-302.5 335,-299.34 339.41,-296.6 344.04,-294.22"/>
<polygon fill="#63b8ff" stroke="#63b8ff" points="345.52,-297.39 353.17,-290.06 342.62,-291.02 345.52,-297.39"/>
</a>
</g>
</g>
<!-- Node19 -->
<g id="Node000019" class="node">
<title>Node19</title>
<g id="a_Node000019"><a xlink:href="effects_8c.html#a9be2cc0ebbe72a9d5276a4fd2675eef3" target="_top" xlink:title=" ">
<polygon fill="white" stroke="#666666" points="482.5,-245 337.5,-245 337.5,-226 482.5,-226 482.5,-245"/>
<text text-anchor="middle" x="410" y="-233" font-family="Helvetica,sans-Serif" font-size="10.00">remove_mushroom_effect</text>
</a>
</g>
</g>
<!-- Node2&#45;&gt;Node19 -->
<g id="edge18_Node000002_Node000019" class="edge">
<title>Node2&#45;&gt;Node19</title>
<g id="a_edge18_Node000002_Node000019"><a xlink:title=" ">
<path fill="none" stroke="#63b8ff" d="M233.39,-460.96C238.83,-427.06 261.96,-311.48 331,-254.5 333.02,-252.83 335.17,-251.3 337.41,-249.91"/>
<polygon fill="#63b8ff" stroke="#63b8ff" points="339.24,-252.9 346.46,-245.15 335.98,-246.71 339.24,-252.9"/>
</a>
</g>
</g>
<!-- Node20 -->
<g id="Node000020" class="node">
<title>Node20</title>
<g id="a_Node000020"><a xlink:href="effects_8c.html#a85a7ba2f2c97859b0090c54a68e8f003" target="_top" xlink:title=" ">
<polygon fill="white" stroke="#666666" points="477,-208 343,-208 343,-189 477,-189 477,-208"/>
<text text-anchor="middle" x="410" y="-196" font-family="Helvetica,sans-Serif" font-size="10.00">remove_spinout_effects</text>
</a>
</g>
</g>
<!-- Node2&#45;&gt;Node20 -->
<g id="edge19_Node000002_Node000020" class="edge">
<title>Node2&#45;&gt;Node20</title>
<g id="a_edge19_Node000002_Node000020"><a xlink:title=" ">
<path fill="none" stroke="#63b8ff" d="M232.69,-460.95C235.91,-423.55 252.88,-285.8 331,-217.5 332.79,-215.93 334.69,-214.49 336.67,-213.17"/>
<polygon fill="#63b8ff" stroke="#63b8ff" points="338.82,-215.98 345.85,-208.06 335.41,-209.86 338.82,-215.98"/>
</a>
</g>
</g>
<!-- Node9 -->
<g id="Node000009" class="node">
<title>Node9</title>
<g id="a_Node000009"><a xlink:href="code__80057C60_8c.html#ae28b6eb556910087cea23f0cb7a322bd" target="_top" xlink:title=" ">
<polygon fill="white" stroke="#666666" points="637,-384 525,-384 525,-365 637,-365 637,-384"/>
<text text-anchor="middle" x="581" y="-372" font-family="Helvetica,sans-Serif" font-size="10.00">pop_player_balloon</text>
</a>
</g>
</g>
<!-- Node8&#45;&gt;Node9 -->
<g id="edge8_Node000008_Node000009" class="edge">
<title>Node8&#45;&gt;Node9</title>
<g id="a_edge8_Node000008_Node000009"><a xlink:title=" ">
<path fill="none" stroke="#63b8ff" d="M456.21,-546.55C467.72,-543.88 479.51,-539.53 489,-532.5 537.2,-496.8 563.9,-427.38 574.53,-393.72"/>
<polygon fill="#63b8ff" stroke="#63b8ff" points="577.88,-394.72 577.42,-384.14 571.18,-392.7 577.88,-394.72"/>
</a>
</g>
</g>
<!-- Node10 -->
<g id="Node000010" class="node">
<title>Node10</title>
<g id="a_Node000010"><a xlink:href="effects_8c.html#a1c7552c4a370cc015c2726e40f1fdb06" target="_top" xlink:title=" ">
<polygon fill="white" stroke="#666666" points="766,-384 673,-384 673,-365 766,-365 766,-384"/>
<text text-anchor="middle" x="719.5" y="-372" font-family="Helvetica,sans-Serif" font-size="10.00">func_8008FD4C</text>
</a>
</g>
</g>
<!-- Node9&#45;&gt;Node10 -->
<g id="edge9_Node000009_Node000010" class="edge">
<title>Node9&#45;&gt;Node10</title>
<g id="a_edge9_Node000009_Node000010"><a xlink:title=" ">
<path fill="none" stroke="#63b8ff" d="M637.13,-374.5C645.54,-374.5 654.24,-374.5 662.67,-374.5"/>
<polygon fill="#63b8ff" stroke="#63b8ff" points="662.79,-378 672.79,-374.5 662.79,-371 662.79,-378"/>
</a>
</g>
</g>
<!-- Node9&#45;&gt;Node11 -->
<g id="edge10_Node000009_Node000011" class="edge">
<title>Node9&#45;&gt;Node11</title>
<g id="a_edge10_Node000009_Node000011"><a xlink:title=" ">
<path fill="none" stroke="#63b8ff" d="M588.22,-364.75C609.4,-331.54 678.97,-222.47 706.82,-178.81"/>
<polygon fill="#63b8ff" stroke="#63b8ff" points="709.82,-180.62 712.24,-170.31 703.92,-176.86 709.82,-180.62"/>
</a>
</g>
</g>
<!-- Node12 -->
<g id="Node000012" class="node">
<title>Node12</title>
<g id="a_Node000012"><a xlink:href="external_8c.html#a475cff796211891556f52877cd8e9b9e" target="_top" xlink:title=" ">
<polygon fill="white" stroke="#666666" points="874,-95 802,-95 802,-76 874,-76 874,-95"/>
<text text-anchor="middle" x="838" y="-83" font-family="Helvetica,sans-Serif" font-size="10.00">play_sound</text>
</a>
</g>
</g>
<!-- Node11&#45;&gt;Node12 -->
<g id="edge11_Node000011_Node000012" class="edge">
<title>Node11&#45;&gt;Node12</title>
<g id="a_edge11_Node000011_Node000012"><a xlink:title=" ">
<path fill="none" stroke="#63b8ff" d="M735.73,-150.7C755.55,-137.94 790.38,-115.51 813.58,-100.58"/>
<polygon fill="#63b8ff" stroke="#63b8ff" points="815.62,-103.43 822.13,-95.07 811.83,-97.54 815.62,-103.43"/>
</a>
</g>
</g>
<!-- Node22&#45;&gt;Node12 -->
<g id="edge23_Node000022_Node000012" class="edge">
<title>Node22&#45;&gt;Node12</title>
<g id="a_edge23_Node000022_Node000012"><a xlink:title=" ">
<path fill="none" stroke="#63b8ff" d="M627,-85.5C673.39,-85.5 745.32,-85.5 791.79,-85.5"/>
<polygon fill="#63b8ff" stroke="#63b8ff" points="791.87,-89 801.87,-85.5 791.87,-82 791.87,-89"/>
</a>
</g>
</g>
<!-- Node25 -->
<g id="Node000025" class="node">
<title>Node25</title>
<g id="a_Node000025"><a xlink:href="external_8c.html#aad3025d980410fa157174acbf923f8c0" target="_top" xlink:title=" ">
<polygon fill="white" stroke="#666666" points="456.5,-19 363.5,-19 363.5,0 456.5,0 456.5,-19"/>
<text text-anchor="middle" x="410" y="-7" font-family="Helvetica,sans-Serif" font-size="10.00">func_800C92CC</text>
</a>
</g>
</g>
<!-- Node24&#45;&gt;Node25 -->
<g id="edge26_Node000024_Node000025" class="edge">
<title>Node24&#45;&gt;Node25</title>
<g id="a_edge26_Node000024_Node000025"><a xlink:title=" ">
<path fill="none" stroke="#63b8ff" d="M295.4,-9.5C314.23,-9.5 334.71,-9.5 353.03,-9.5"/>
<polygon fill="#63b8ff" stroke="#63b8ff" points="353.25,-13 363.25,-9.5 353.25,-6 353.25,-13"/>
</a>
</g>
</g>
<!-- Node25&#45;&gt;Node12 -->
<g id="edge28_Node000025_Node000012" class="edge">
<title>Node25&#45;&gt;Node12</title>
<g id="a_edge28_Node000025_Node000012"><a xlink:title=" ">
<path fill="none" stroke="#63b8ff" d="M456.59,-17.63C538.62,-32.27 710.12,-62.86 791.84,-77.44"/>
<polygon fill="#63b8ff" stroke="#63b8ff" points="791.36,-80.91 801.82,-79.22 792.59,-74.02 791.36,-80.91"/>
</a>
</g>
</g>
<!-- Node26 -->
<g id="Node000026" class="node">
<title>Node26</title>
<g id="a_Node000026"><a xlink:href="external_8c.html#a747de0be4005b4b29150d5c068564b7d" target="_top" xlink:title=" ">
<polygon fill="white" stroke="#666666" points="627,-19 535,-19 535,0 627,0 627,-19"/>
<text text-anchor="middle" x="581" y="-7" font-family="Helvetica,sans-Serif" font-size="10.00">func_800C1C88</text>
</a>
</g>
</g>
<!-- Node25&#45;&gt;Node26 -->
<g id="edge27_Node000025_Node000026" class="edge">
<title>Node25&#45;&gt;Node26</title>
<g id="a_edge27_Node000025_Node000026"><a xlink:title=" ">
<path fill="none" stroke="#63b8ff" d="M456.73,-9.5C477.66,-9.5 502.64,-9.5 524.62,-9.5"/>
<polygon fill="#63b8ff" stroke="#63b8ff" points="524.82,-13 534.82,-9.5 524.82,-6 524.82,-13"/>
</a>
</g>
</g>
</g>
</svg>

<g id="navigator" transform="translate(0 0)" fill="#404254">
  <rect fill="#f2f5e9" fill-opacity="0.5" stroke="#606060" stroke-width=".5" x="0" y="0" width="60" height="60"/>
  <use id="zoomplus" xlink:href="#zoomPlus" x="17" y="9" onmousedown="handleZoom(evt,'in')"/>
  <use id="zoomminus" xlink:href="#zoomMin" x="42" y="9" onmousedown="handleZoom(evt,'out')"/>
  <use id="reset" xlink:href="#resetDef" x="30" y="36" onmousedown="handleReset()"/>
   <use id="arrowup" xlink:href="#arrowUp" x="0" y="0" onmousedown="handlePan(0,-1)"/>
  <use id="arrowright" xlink:href="#arrowRight" x="0" y="0" onmousedown="handlePan(1,0)"/>
  <use id="arrowdown" xlink:href="#arrowDown" x="0" y="0" onmousedown="handlePan(0,1)"/>
  <use id="arrowleft" xlink:href="#arrowLeft" x="0" y="0" onmousedown="handlePan(-1,0)"/>
</g>
<svg viewBox="0 0 15 15" width="100%" height="30px" preserveAspectRatio="xMaxYMin meet">
 <g id="arrow_out" transform="scale(0.3 0.3)">
  <a xlink:href="effects_8h_a098d7b05c5346f5f1ac30b2327fde4f4_cgraph_org.svg" target="_base">
   <rect id="button" ry="5" rx="5" y="6" x="6" height="38" width="38"
        fill="#f2f5e9" fill-opacity="0.5" stroke="#606060" stroke-width="1.0"/>
   <path id="arrow"
     d="M 11.500037,31.436501 C 11.940474,20.09759 22.043105,11.32322 32.158766,21.979434 L 37.068811,17.246167 C 37.068811,17.246167 37.088388,32 37.088388,32 L 22.160133,31.978069 C 22.160133,31.978069 26.997745,27.140456 26.997745,27.140456 C 18.528582,18.264221 13.291696,25.230495 11.500037,31.436501 z"
     style="fill:#404040;"/>
  </a>
 </g>
</svg>

<style type='text/css'>
<![CDATA[
[data-mouse-over-selected='false'] { opacity: 0.7; }
[data-mouse-over-selected='true']  { opacity: 1.0; }
]]>
</style>
<script type="application/ecmascript"><![CDATA[
document.addEventListener('DOMContentLoaded', (event) => {
  highlightEdges();
  highlightAdjacentNodes();
});
]]></script>
</svg>
