<?xml version="1.0" encoding="UTF-8" standalone="no"?>
<!DOCTYPE svg PUBLIC "-//W3C//DTD SVG 1.1//EN"
 "http://www.w3.org/Graphics/SVG/1.1/DTD/svg11.dtd">
<!-- Generated by graphviz version 2.43.0 (0)
 -->
<!-- Title: trigger_high_tumble Pages: 1 -->
<!--zoomable 735 -->

<svg id="main" version="1.1" xmlns="http://www.w3.org/2000/svg" xmlns:xlink="http://www.w3.org/1999/xlink" xml:space="preserve" onload="init(evt)">
<style type="text/css"><![CDATA[
.node, .edge {opacity: 0.7;}
.node.selected, .edge.selected {opacity: 1;}
.edge:hover path { stroke: red; }
.edge:hover polygon { stroke: red; fill: red; }
]]></style>

<defs>
  <circle id="rim" cx="0" cy="0" r="7"/>
  <circle id="rim2" cx="0" cy="0" r="3.5"/>
  <g id="zoomPlus">
    <use xlink:href="#rim" fill="#404040"><set attributeName="fill" to="#808080" begin="zoomplus.mouseover" end="zoomplus.mouseout"/></use>
    <path d="M-4,0h8M0,-4v8" fill="none" stroke="white" stroke-width="1.5" pointer-events="none"/>
  </g>
  <g id="zoomMin">
    <use xlink:href="#rim" fill="#404040"><set attributeName="fill" to="#808080" begin="zoomminus.mouseover" end="zoomminus.mouseout"/></use>
    <path d="M-4,0h8" fill="none" stroke="white" stroke-width="1.5" pointer-events="none"/>
  </g>
  <g id="arrowUp" transform="translate(30 24)">
    <use xlink:href="#rim"/>
    <path pointer-events="none" fill="none" stroke="white" stroke-width="1.5" d="M0,-3.0v7 M-2.5,-0.5L0,-3.0L2.5,-0.5"/>
  </g>
  <g id="arrowRight" transform="rotate(90) translate(36 -43)">
    <use xlink:href="#rim"/>
    <path pointer-events="none" fill="none" stroke="white" stroke-width="1.5" d="M0,-3.0v7 M-2.5,-0.5L0,-3.0L2.5,-0.5"/>
  </g>
  <g id="arrowDown" transform="rotate(180) translate(-30 -48)">
    <use xlink:href="#rim"/>
    <path pointer-events="none" fill="none" stroke="white" stroke-width="1.5" d="M0,-3.0v7 M-2.5,-0.5L0,-3.0L2.5,-0.5"/>
  </g>
  <g id="arrowLeft" transform="rotate(270) translate(-36 17)">
    <use xlink:href="#rim"/>
    <path pointer-events="none" fill="none" stroke="white" stroke-width="1.5" d="M0,-3.0v7 M-2.5,-0.5L0,-3.0L2.5,-0.5"/>
  </g>
  <g id="resetDef">
    <use xlink:href="#rim2" fill="#404040"><set attributeName="fill" to="#808080" begin="reset.mouseover" end="reset.mouseout"/></use>
  </g>
</defs>
<script type="application/ecmascript">
var viewWidth = 866;
var viewHeight = 735;
var sectionId = 'dynsection-104';
</script>
<script type="application/ecmascript" xlink:href="svg.min.js"/>
<svg id="graph" class="graph">
<g id="viewport">
<title>trigger_high_tumble</title>
<!-- Node1 -->
<g id="Node000001" class="node">
<title>Node1</title>
<g id="a_Node000001"><a xlink:title=" ">
<polygon fill="#999999" stroke="#666666" points="115,-114 0,-114 0,-95 115,-95 115,-114"/>
<text text-anchor="middle" x="57.5" y="-102" font-family="Helvetica,sans-Serif" font-size="10.00">trigger_high_tumble</text>
</a>
</g>
</g>
<!-- Node2 -->
<g id="Node000002" class="node">
<title>Node2</title>
<g id="a_Node000002"><a xlink:href="effects_8c.html#a6559cc02e5bb1a4e7fe6c97850cdd87e" target="_top" xlink:title=" ">
<polygon fill="white" stroke="#666666" points="253,-462 177,-462 177,-443 253,-443 253,-462"/>
<text text-anchor="middle" x="215" y="-450" font-family="Helvetica,sans-Serif" font-size="10.00">clean_effect</text>
</a>
</g>
</g>
<!-- Node1&#45;&gt;Node2 -->
<g id="edge1_Node000001_Node000002" class="edge">
<title>Node1&#45;&gt;Node2</title>
<g id="a_edge1_Node000001_Node000002"><a xlink:title=" ">
<path fill="none" stroke="#63b8ff" d="M62.82,-114.17C83.96,-161.48 176.64,-368.89 205.43,-433.33"/>
<polygon fill="#63b8ff" stroke="#63b8ff" points="202.35,-435.01 209.63,-442.71 208.74,-432.15 202.35,-435.01"/>
</a>
</g>
</g>
<!-- Node11 -->
<g id="Node000011" class="node">
<title>Node11</title>
<g id="a_Node000011"><a xlink:href="external_8c.html#a2be9efc97a92e19d02aaee90d676acc1" target="_top" xlink:title=" ">
<polygon fill="white" stroke="#666666" points="749.5,-152 657.5,-152 657.5,-133 749.5,-133 749.5,-152"/>
<text text-anchor="middle" x="703.5" y="-140" font-family="Helvetica,sans-Serif" font-size="10.00">func_800C9060</text>
</a>
</g>
</g>
<!-- Node1&#45;&gt;Node11 -->
<g id="edge21_Node000001_Node000011" class="edge">
<title>Node1&#45;&gt;Node11</title>
<g id="a_edge21_Node000001_Node000011"><a xlink:title=" ">
<path fill="none" stroke="#63b8ff" d="M100.19,-114.05C116.02,-117.29 134.26,-120.58 151,-122.5 331.65,-143.22 547.55,-144.21 647.15,-143.34"/>
<polygon fill="#63b8ff" stroke="#63b8ff" points="647.32,-146.84 657.28,-143.24 647.25,-139.84 647.32,-146.84"/>
</a>
</g>
</g>
<!-- Node21 -->
<g id="Node000021" class="node">
<title>Node21</title>
<g id="a_Node000021"><a xlink:href="effects_8c.html#a1698463639e133ec28807bb36a303efe" target="_top" xlink:title=" ">
<polygon fill="white" stroke="#666666" points="261,-114 169,-114 169,-95 261,-95 261,-114"/>
<text text-anchor="middle" x="215" y="-102" font-family="Helvetica,sans-Serif" font-size="10.00">func_8008C310</text>
</a>
</g>
</g>
<!-- Node1&#45;&gt;Node21 -->
<g id="edge20_Node000001_Node000021" class="edge">
<title>Node1&#45;&gt;Node21</title>
<g id="a_edge20_Node000001_Node000021"><a xlink:title=" ">
<path fill="none" stroke="#63b8ff" d="M115.08,-104.5C129.33,-104.5 144.62,-104.5 158.8,-104.5"/>
<polygon fill="#63b8ff" stroke="#63b8ff" points="158.91,-108 168.91,-104.5 158.91,-101 158.91,-108"/>
</a>
</g>
</g>
<!-- Node22 -->
<g id="Node000022" class="node">
<title>Node22</title>
<g id="a_Node000022"><a xlink:href="external_8c.html#a337fc3ab94ebb3293a85908229303ac8" target="_top" xlink:title=" ">
<polygon fill="white" stroke="#666666" points="611,-95 519,-95 519,-76 611,-76 611,-95"/>
<text text-anchor="middle" x="565" y="-83" font-family="Helvetica,sans-Serif" font-size="10.00">func_800C90F4</text>
</a>
</g>
</g>
<!-- Node1&#45;&gt;Node22 -->
<g id="edge22_Node000001_Node000022" class="edge">
<title>Node1&#45;&gt;Node22</title>
<g id="a_edge22_Node000001_Node000022"><a xlink:title=" ">
<path fill="none" stroke="#63b8ff" d="M96.04,-94.99C112.74,-91.23 132.73,-87.36 151,-85.5 278.49,-72.54 429.27,-77.68 508.68,-81.96"/>
<polygon fill="#63b8ff" stroke="#63b8ff" points="508.75,-85.47 518.93,-82.53 509.14,-78.48 508.75,-85.47"/>
</a>
</g>
</g>
<!-- Node23 -->
<g id="Node000023" class="node">
<title>Node23</title>
<g id="a_Node000023"><a xlink:href="cpu__vehicles__camera__path_8c.html#adb9b8cd30f2be4e125706fa55ea2272d" target="_top" xlink:title=" ">
<polygon fill="white" stroke="#666666" points="279,-38 151,-38 151,-19 279,-19 279,-38"/>
<text text-anchor="middle" x="215" y="-26" font-family="Helvetica,sans-Serif" font-size="10.00">play_cpu_sound_effect</text>
</a>
</g>
</g>
<!-- Node1&#45;&gt;Node23 -->
<g id="edge24_Node000001_Node000023" class="edge">
<title>Node1&#45;&gt;Node23</title>
<g id="a_edge24_Node000001_Node000023"><a xlink:title=" ">
<path fill="none" stroke="#63b8ff" d="M73.84,-94.94C91.89,-83.92 122.97,-65.63 151,-52.5 159.24,-48.64 168.29,-44.91 176.89,-41.59"/>
<polygon fill="#63b8ff" stroke="#63b8ff" points="178.22,-44.83 186.34,-38.03 175.75,-38.28 178.22,-44.83"/>
</a>
</g>
</g>
<!-- Node3 -->
<g id="Node000003" class="node">
<title>Node3</title>
<g id="a_Node000003"><a xlink:href="effects_8c.html#a7fef1af5ca366a9346478d94239c6142" target="_top" xlink:title=" ">
<polygon fill="white" stroke="#666666" points="440.5,-727 347.5,-727 347.5,-708 440.5,-708 440.5,-727"/>
<text text-anchor="middle" x="394" y="-715" font-family="Helvetica,sans-Serif" font-size="10.00">func_8008C6D0</text>
</a>
</g>
</g>
<!-- Node2&#45;&gt;Node3 -->
<g id="edge2_Node000002_Node000003" class="edge">
<title>Node2&#45;&gt;Node3</title>
<g id="a_edge2_Node000002_Node000003"><a xlink:title=" ">
<path fill="none" stroke="#63b8ff" d="M216.77,-462.11C220.25,-499.1 237.98,-633.54 315,-699.5 321.45,-705.02 329.26,-708.93 337.42,-711.69"/>
<polygon fill="#63b8ff" stroke="#63b8ff" points="336.52,-715.07 347.1,-714.42 338.42,-708.34 336.52,-715.07"/>
</a>
</g>
</g>
<!-- Node4 -->
<g id="Node000004" class="node">
<title>Node4</title>
<g id="a_Node000004"><a xlink:href="effects_8c.html#a5f19eaaa048055d292d02c717e635786" target="_top" xlink:title=" ">
<polygon fill="white" stroke="#666666" points="440,-690 348,-690 348,-671 440,-671 440,-690"/>
<text text-anchor="middle" x="394" y="-678" font-family="Helvetica,sans-Serif" font-size="10.00">func_8008D760</text>
</a>
</g>
</g>
<!-- Node2&#45;&gt;Node4 -->
<g id="edge3_Node000002_Node000004" class="edge">
<title>Node2&#45;&gt;Node4</title>
<g id="a_edge3_Node000002_Node000004"><a xlink:title=" ">
<path fill="none" stroke="#63b8ff" d="M217.53,-462.28C223.34,-495.92 247.22,-607.86 315,-662.5 321.69,-667.89 329.69,-671.73 337.99,-674.45"/>
<polygon fill="#63b8ff" stroke="#63b8ff" points="337.23,-677.87 347.8,-677.15 339.09,-671.12 337.23,-677.87"/>
</a>
</g>
</g>
<!-- Node5 -->
<g id="Node000005" class="node">
<title>Node5</title>
<g id="a_Node000005"><a xlink:href="effects_8c.html#a4ea2da0616ee3c475e4be217dc0bc71f" target="_top" xlink:title=" ">
<polygon fill="white" stroke="#666666" points="440.5,-653 347.5,-653 347.5,-634 440.5,-634 440.5,-653"/>
<text text-anchor="middle" x="394" y="-641" font-family="Helvetica,sans-Serif" font-size="10.00">func_8008D97C</text>
</a>
</g>
</g>
<!-- Node2&#45;&gt;Node5 -->
<g id="edge4_Node000002_Node000005" class="edge">
<title>Node2&#45;&gt;Node5</title>
<g id="a_edge4_Node000002_Node000005"><a xlink:title=" ">
<path fill="none" stroke="#63b8ff" d="M218.55,-462.2C226.86,-491.82 256.11,-581.75 315,-625.5 321.66,-630.45 329.46,-634.07 337.5,-636.71"/>
<polygon fill="#63b8ff" stroke="#63b8ff" points="336.8,-640.15 347.37,-639.47 338.69,-633.41 336.8,-640.15"/>
</a>
</g>
</g>
<!-- Node6 -->
<g id="Node000006" class="node">
<title>Node6</title>
<g id="a_Node000006"><a xlink:href="effects_8c.html#a13005f7c39388deade6ba0491d7c5918" target="_top" xlink:title=" ">
<polygon fill="white" stroke="#666666" points="439.5,-616 348.5,-616 348.5,-597 439.5,-597 439.5,-616"/>
<text text-anchor="middle" x="394" y="-604" font-family="Helvetica,sans-Serif" font-size="10.00">func_8008E884</text>
</a>
</g>
</g>
<!-- Node2&#45;&gt;Node6 -->
<g id="edge5_Node000002_Node000006" class="edge">
<title>Node2&#45;&gt;Node6</title>
<g id="a_edge5_Node000002_Node000006"><a xlink:title=" ">
<path fill="none" stroke="#63b8ff" d="M220.11,-462.24C231.29,-487.48 264.82,-555.32 315,-588.5 322.08,-593.18 330.23,-596.66 338.52,-599.23"/>
<polygon fill="#63b8ff" stroke="#63b8ff" points="337.71,-602.64 348.28,-601.86 339.53,-595.88 337.71,-602.64"/>
</a>
</g>
</g>
<!-- Node7 -->
<g id="Node000007" class="node">
<title>Node7</title>
<g id="a_Node000007"><a xlink:href="effects_8c.html#ae02351b6bbb678b552ec8864b47fc56c" target="_top" xlink:title=" ">
<polygon fill="white" stroke="#666666" points="439.5,-579 348.5,-579 348.5,-560 439.5,-560 439.5,-579"/>
<text text-anchor="middle" x="394" y="-567" font-family="Helvetica,sans-Serif" font-size="10.00">func_8008F3E0</text>
</a>
</g>
</g>
<!-- Node2&#45;&gt;Node7 -->
<g id="edge6_Node000002_Node000007" class="edge">
<title>Node2&#45;&gt;Node7</title>
<g id="a_edge6_Node000002_Node000007"><a xlink:title=" ">
<path fill="none" stroke="#63b8ff" d="M222.68,-462.15C237.07,-482.17 273.12,-528.29 315,-551.5 322.17,-555.48 330.18,-558.57 338.26,-560.99"/>
<polygon fill="#63b8ff" stroke="#63b8ff" points="337.54,-564.42 348.1,-563.61 339.34,-557.65 337.54,-564.42"/>
</a>
</g>
</g>
<!-- Node8 -->
<g id="Node000008" class="node">
<title>Node8</title>
<g id="a_Node000008"><a xlink:href="effects_8c.html#ab5125d5944958f891647b27b440d3d62" target="_top" xlink:title=" ">
<polygon fill="white" stroke="#666666" points="440,-542 348,-542 348,-523 440,-523 440,-542"/>
<text text-anchor="middle" x="394" y="-530" font-family="Helvetica,sans-Serif" font-size="10.00">func_8008F5A4</text>
</a>
</g>
</g>
<!-- Node2&#45;&gt;Node8 -->
<g id="edge7_Node000002_Node000008" class="edge">
<title>Node2&#45;&gt;Node8</title>
<g id="a_edge7_Node000002_Node000008"><a xlink:title=" ">
<path fill="none" stroke="#63b8ff" d="M228.38,-462.18C246.43,-475.82 281.47,-500.59 315,-514.5 322.22,-517.49 330.03,-520.04 337.83,-522.2"/>
<polygon fill="#63b8ff" stroke="#63b8ff" points="337.1,-525.62 347.65,-524.71 338.84,-518.84 337.1,-525.62"/>
</a>
</g>
</g>
<!-- Node13 -->
<g id="Node000013" class="node">
<title>Node13</title>
<g id="a_Node000013"><a xlink:href="effects_8c.html#a2f183005a5e85816dd81508847c1904d" target="_top" xlink:title=" ">
<polygon fill="white" stroke="#666666" points="440.5,-505 347.5,-505 347.5,-486 440.5,-486 440.5,-505"/>
<text text-anchor="middle" x="394" y="-493" font-family="Helvetica,sans-Serif" font-size="10.00">func_8008FEDC</text>
</a>
</g>
</g>
<!-- Node2&#45;&gt;Node13 -->
<g id="edge12_Node000002_Node000013" class="edge">
<title>Node2&#45;&gt;Node13</title>
<g id="a_edge12_Node000002_Node000013"><a xlink:title=" ">
<path fill="none" stroke="#63b8ff" d="M253.11,-461.51C279.49,-467.92 315.21,-476.6 343.95,-483.58"/>
<polygon fill="#63b8ff" stroke="#63b8ff" points="343.25,-487.02 353.8,-485.98 344.9,-480.21 343.25,-487.02"/>
</a>
</g>
</g>
<!-- Node14 -->
<g id="Node000014" class="node">
<title>Node14</title>
<g id="a_Node000014"><a xlink:href="effects_8c.html#acbb1f27649a63227fcf0dd1f17dfa096" target="_top" xlink:title=" ">
<polygon fill="white" stroke="#666666" points="455,-467.5 333,-467.5 333,-437.5 455,-437.5 455,-467.5"/>
<text text-anchor="start" x="341" y="-455.5" font-family="Helvetica,sans-Serif" font-size="10.00">remove_banana_near</text>
<text text-anchor="middle" x="394" y="-444.5" font-family="Helvetica,sans-Serif" font-size="10.00">_spinout_effect</text>
</a>
</g>
</g>
<!-- Node2&#45;&gt;Node14 -->
<g id="edge13_Node000002_Node000014" class="edge">
<title>Node2&#45;&gt;Node14</title>
<g id="a_edge13_Node000002_Node000014"><a xlink:title=" ">
<path fill="none" stroke="#63b8ff" d="M253.11,-452.5C273.33,-452.5 299.03,-452.5 322.87,-452.5"/>
<polygon fill="#63b8ff" stroke="#63b8ff" points="322.96,-456 332.96,-452.5 322.96,-449 322.96,-456"/>
</a>
</g>
</g>
<!-- Node15 -->
<g id="Node000015" class="node">
<title>Node15</title>
<g id="a_Node000015"><a xlink:href="effects_8c.html#a4768d56263e476d3bac47ee01bac3dc8" target="_top" xlink:title=" ">
<polygon fill="white" stroke="#666666" points="473,-419.5 315,-419.5 315,-389.5 473,-389.5 473,-419.5"/>
<text text-anchor="start" x="323" y="-407.5" font-family="Helvetica,sans-Serif" font-size="10.00">remove_boost_ramp_asphalt</text>
<text text-anchor="middle" x="394" y="-396.5" font-family="Helvetica,sans-Serif" font-size="10.00">_effect</text>
</a>
</g>
</g>
<!-- Node2&#45;&gt;Node15 -->
<g id="edge14_Node000002_Node000015" class="edge">
<title>Node2&#45;&gt;Node15</title>
<g id="a_edge14_Node000002_Node000015"><a xlink:title=" ">
<path fill="none" stroke="#63b8ff" d="M251.39,-442.9C273.22,-436.98 301.89,-429.21 327.72,-422.2"/>
<polygon fill="#63b8ff" stroke="#63b8ff" points="328.72,-425.56 337.46,-419.56 326.89,-418.8 328.72,-425.56"/>
</a>
</g>
</g>
<!-- Node16 -->
<g id="Node000016" class="node">
<title>Node16</title>
<g id="a_Node000016"><a xlink:href="effects_8c.html#aafe14c45e9b91bb1d409ef2f2bfe5c53" target="_top" xlink:title=" ">
<polygon fill="white" stroke="#666666" points="468.5,-371.5 319.5,-371.5 319.5,-341.5 468.5,-341.5 468.5,-371.5"/>
<text text-anchor="start" x="327.5" y="-359.5" font-family="Helvetica,sans-Serif" font-size="10.00">remove_boost_ramp_wood</text>
<text text-anchor="middle" x="394" y="-348.5" font-family="Helvetica,sans-Serif" font-size="10.00">_effect</text>
</a>
</g>
</g>
<!-- Node2&#45;&gt;Node16 -->
<g id="edge15_Node000002_Node000016" class="edge">
<title>Node2&#45;&gt;Node16</title>
<g id="a_edge15_Node000002_Node000016"><a xlink:title=" ">
<path fill="none" stroke="#63b8ff" d="M226.79,-442.77C244.18,-427.53 280.02,-397.99 315,-380.5 318.78,-378.61 322.73,-376.84 326.77,-375.18"/>
<polygon fill="#63b8ff" stroke="#63b8ff" points="328.24,-378.36 336.32,-371.5 325.73,-371.83 328.24,-378.36"/>
</a>
</g>
</g>
<!-- Node17 -->
<g id="Node000017" class="node">
<title>Node17</title>
<g id="a_Node000017"><a xlink:href="effects_8c.html#a9ff5c732ea8ba59908ccf62ff441e7e4" target="_top" xlink:title=" ">
<polygon fill="white" stroke="#666666" points="454,-323.5 334,-323.5 334,-293.5 454,-293.5 454,-323.5"/>
<text text-anchor="start" x="342" y="-311.5" font-family="Helvetica,sans-Serif" font-size="10.00">remove_driving_near</text>
<text text-anchor="middle" x="394" y="-300.5" font-family="Helvetica,sans-Serif" font-size="10.00">_spinout_effect</text>
</a>
</g>
</g>
<!-- Node2&#45;&gt;Node17 -->
<g id="edge16_Node000002_Node000017" class="edge">
<title>Node2&#45;&gt;Node17</title>
<g id="a_edge16_Node000002_Node000017"><a xlink:title=" ">
<path fill="none" stroke="#63b8ff" d="M221.3,-442.78C234.23,-420.01 269.66,-362.84 315,-332.5 318.07,-330.45 321.31,-328.57 324.68,-326.84"/>
<polygon fill="#63b8ff" stroke="#63b8ff" points="326.19,-330 333.8,-322.63 323.25,-323.64 326.19,-330"/>
</a>
</g>
</g>
<!-- Node18 -->
<g id="Node000018" class="node">
<title>Node18</title>
<g id="a_Node000018"><a xlink:href="effects_8c.html#a5f1aead641683fd07375d6737dfafac2" target="_top" xlink:title=" ">
<polygon fill="white" stroke="#666666" points="450.5,-275.5 337.5,-275.5 337.5,-245.5 450.5,-245.5 450.5,-275.5"/>
<text text-anchor="start" x="345.5" y="-263.5" font-family="Helvetica,sans-Serif" font-size="10.00">remove_hit_by_star</text>
<text text-anchor="middle" x="394" y="-252.5" font-family="Helvetica,sans-Serif" font-size="10.00">_effect</text>
</a>
</g>
</g>
<!-- Node2&#45;&gt;Node18 -->
<g id="edge17_Node000002_Node000018" class="edge">
<title>Node2&#45;&gt;Node18</title>
<g id="a_edge17_Node000002_Node000018"><a xlink:title=" ">
<path fill="none" stroke="#63b8ff" d="M218.9,-442.86C228.04,-414.19 258.94,-328.77 315,-284.5 319,-281.34 323.41,-278.6 328.04,-276.22"/>
<polygon fill="#63b8ff" stroke="#63b8ff" points="329.52,-279.39 337.17,-272.06 326.62,-273.02 329.52,-279.39"/>
</a>
</g>
</g>
<!-- Node19 -->
<g id="Node000019" class="node">
<title>Node19</title>
<g id="a_Node000019"><a xlink:href="effects_8c.html#a9be2cc0ebbe72a9d5276a4fd2675eef3" target="_top" xlink:title=" ">
<polygon fill="white" stroke="#666666" points="466.5,-227 321.5,-227 321.5,-208 466.5,-208 466.5,-227"/>
<text text-anchor="middle" x="394" y="-215" font-family="Helvetica,sans-Serif" font-size="10.00">remove_mushroom_effect</text>
</a>
</g>
</g>
<!-- Node2&#45;&gt;Node19 -->
<g id="edge18_Node000002_Node000019" class="edge">
<title>Node2&#45;&gt;Node19</title>
<g id="a_edge18_Node000002_Node000019"><a xlink:title=" ">
<path fill="none" stroke="#63b8ff" d="M217.39,-442.96C222.83,-409.06 245.96,-293.48 315,-236.5 317.02,-234.83 319.17,-233.3 321.41,-231.91"/>
<polygon fill="#63b8ff" stroke="#63b8ff" points="323.24,-234.9 330.46,-227.15 319.98,-228.71 323.24,-234.9"/>
</a>
</g>
</g>
<!-- Node20 -->
<g id="Node000020" class="node">
<title>Node20</title>
<g id="a_Node000020"><a xlink:href="effects_8c.html#a85a7ba2f2c97859b0090c54a68e8f003" target="_top" xlink:title=" ">
<polygon fill="white" stroke="#666666" points="461,-190 327,-190 327,-171 461,-171 461,-190"/>
<text text-anchor="middle" x="394" y="-178" font-family="Helvetica,sans-Serif" font-size="10.00">remove_spinout_effects</text>
</a>
</g>
</g>
<!-- Node2&#45;&gt;Node20 -->
<g id="edge19_Node000002_Node000020" class="edge">
<title>Node2&#45;&gt;Node20</title>
<g id="a_edge19_Node000002_Node000020"><a xlink:title=" ">
<path fill="none" stroke="#63b8ff" d="M216.69,-442.95C219.91,-405.55 236.88,-267.8 315,-199.5 316.79,-197.93 318.69,-196.49 320.67,-195.17"/>
<polygon fill="#63b8ff" stroke="#63b8ff" points="322.82,-197.98 329.85,-190.06 319.41,-191.86 322.82,-197.98"/>
</a>
</g>
</g>
<!-- Node9 -->
<g id="Node000009" class="node">
<title>Node9</title>
<g id="a_Node000009"><a xlink:href="code__80057C60_8c.html#ae28b6eb556910087cea23f0cb7a322bd" target="_top" xlink:title=" ">
<polygon fill="white" stroke="#666666" points="621,-366 509,-366 509,-347 621,-347 621,-366"/>
<text text-anchor="middle" x="565" y="-354" font-family="Helvetica,sans-Serif" font-size="10.00">pop_player_balloon</text>
</a>
</g>
</g>
<!-- Node8&#45;&gt;Node9 -->
<g id="edge8_Node000008_Node000009" class="edge">
<title>Node8&#45;&gt;Node9</title>
<g id="a_edge8_Node000008_Node000009"><a xlink:title=" ">
<path fill="none" stroke="#63b8ff" d="M440.21,-528.55C451.72,-525.88 463.51,-521.53 473,-514.5 521.2,-478.8 547.9,-409.38 558.53,-375.72"/>
<polygon fill="#63b8ff" stroke="#63b8ff" points="561.88,-376.72 561.42,-366.14 555.18,-374.7 561.88,-376.72"/>
</a>
</g>
</g>
<!-- Node10 -->
<g id="Node000010" class="node">
<title>Node10</title>
<g id="a_Node000010"><a xlink:href="effects_8c.html#a1c7552c4a370cc015c2726e40f1fdb06" target="_top" xlink:title=" ">
<polygon fill="white" stroke="#666666" points="750,-366 657,-366 657,-347 750,-347 750,-366"/>
<text text-anchor="middle" x="703.5" y="-354" font-family="Helvetica,sans-Serif" font-size="10.00">func_8008FD4C</text>
</a>
</g>
</g>
<!-- Node9&#45;&gt;Node10 -->
<g id="edge9_Node000009_Node000010" class="edge">
<title>Node9&#45;&gt;Node10</title>
<g id="a_edge9_Node000009_Node000010"><a xlink:title=" ">
<path fill="none" stroke="#63b8ff" d="M621.13,-356.5C629.54,-356.5 638.24,-356.5 646.67,-356.5"/>
<polygon fill="#63b8ff" stroke="#63b8ff" points="646.79,-360 656.79,-356.5 646.79,-353 646.79,-360"/>
</a>
</g>
</g>
<!-- Node9&#45;&gt;Node11 -->
<g id="edge10_Node000009_Node000011" class="edge">
<title>Node9&#45;&gt;Node11</title>
<g id="a_edge10_Node000009_Node000011"><a xlink:title=" ">
<path fill="none" stroke="#63b8ff" d="M572.22,-346.75C593.4,-313.54 662.97,-204.47 690.82,-160.81"/>
<polygon fill="#63b8ff" stroke="#63b8ff" points="693.82,-162.62 696.24,-152.31 687.92,-158.86 693.82,-162.62"/>
</a>
</g>
</g>
<!-- Node12 -->
<g id="Node000012" class="node">
<title>Node12</title>
<g id="a_Node000012"><a xlink:href="external_8c.html#a475cff796211891556f52877cd8e9b9e" target="_top" xlink:title=" ">
<polygon fill="white" stroke="#666666" points="858,-95 786,-95 786,-76 858,-76 858,-95"/>
<text text-anchor="middle" x="822" y="-83" font-family="Helvetica,sans-Serif" font-size="10.00">play_sound</text>
</a>
</g>
</g>
<!-- Node11&#45;&gt;Node12 -->
<g id="edge11_Node000011_Node000012" class="edge">
<title>Node11&#45;&gt;Node12</title>
<g id="a_edge11_Node000011_Node000012"><a xlink:title=" ">
<path fill="none" stroke="#63b8ff" d="M724,-132.96C742.65,-123.84 771,-109.97 792.24,-99.57"/>
<polygon fill="#63b8ff" stroke="#63b8ff" points="793.99,-102.61 801.44,-95.07 790.92,-96.32 793.99,-102.61"/>
</a>
</g>
</g>
<!-- Node22&#45;&gt;Node12 -->
<g id="edge23_Node000022_Node000012" class="edge">
<title>Node22&#45;&gt;Node12</title>
<g id="a_edge23_Node000022_Node000012"><a xlink:title=" ">
<path fill="none" stroke="#63b8ff" d="M611,-85.5C657.39,-85.5 729.32,-85.5 775.79,-85.5"/>
<polygon fill="#63b8ff" stroke="#63b8ff" points="775.87,-89 785.87,-85.5 775.87,-82 775.87,-89"/>
</a>
</g>
</g>
<!-- Node24 -->
<g id="Node000024" class="node">
<title>Node24</title>
<g id="a_Node000024"><a xlink:href="external_8c.html#aad3025d980410fa157174acbf923f8c0" target="_top" xlink:title=" ">
<polygon fill="white" stroke="#666666" points="440.5,-38 347.5,-38 347.5,-19 440.5,-19 440.5,-38"/>
<text text-anchor="middle" x="394" y="-26" font-family="Helvetica,sans-Serif" font-size="10.00">func_800C92CC</text>
</a>
</g>
</g>
<!-- Node23&#45;&gt;Node24 -->
<g id="edge25_Node000023_Node000024" class="edge">
<title>Node23&#45;&gt;Node24</title>
<g id="a_edge25_Node000023_Node000024"><a xlink:title=" ">
<path fill="none" stroke="#63b8ff" d="M279.4,-28.5C298.23,-28.5 318.71,-28.5 337.03,-28.5"/>
<polygon fill="#63b8ff" stroke="#63b8ff" points="337.25,-32 347.25,-28.5 337.25,-25 337.25,-32"/>
</a>
</g>
</g>
<!-- Node24&#45;&gt;Node12 -->
<g id="edge27_Node000024_Node000012" class="edge">
<title>Node24&#45;&gt;Node12</title>
<g id="a_edge27_Node000024_Node000012"><a xlink:title=" ">
<path fill="none" stroke="#63b8ff" d="M440.59,-34.6C522.62,-45.58 694.12,-68.52 775.84,-79.46"/>
<polygon fill="#63b8ff" stroke="#63b8ff" points="775.44,-82.94 785.82,-80.79 776.37,-76 775.44,-82.94"/>
</a>
</g>
</g>
<!-- Node25 -->
<g id="Node000025" class="node">
<title>Node25</title>
<g id="a_Node000025"><a xlink:href="external_8c.html#a747de0be4005b4b29150d5c068564b7d" target="_top" xlink:title=" ">
<polygon fill="white" stroke="#666666" points="611,-19 519,-19 519,0 611,0 611,-19"/>
<text text-anchor="middle" x="565" y="-7" font-family="Helvetica,sans-Serif" font-size="10.00">func_800C1C88</text>
</a>
</g>
</g>
<!-- Node24&#45;&gt;Node25 -->
<g id="edge26_Node000024_Node000025" class="edge">
<title>Node24&#45;&gt;Node25</title>
<g id="a_edge26_Node000024_Node000025"><a xlink:title=" ">
<path fill="none" stroke="#63b8ff" d="M440.73,-23.36C461.66,-21.01 486.64,-18.2 508.62,-15.73"/>
<polygon fill="#63b8ff" stroke="#63b8ff" points="509.27,-19.18 518.82,-14.58 508.49,-12.22 509.27,-19.18"/>
</a>
</g>
</g>
</g>
</svg>

<g id="navigator" transform="translate(0 0)" fill="#404254">
  <rect fill="#f2f5e9" fill-opacity="0.5" stroke="#606060" stroke-width=".5" x="0" y="0" width="60" height="60"/>
  <use id="zoomplus" xlink:href="#zoomPlus" x="17" y="9" onmousedown="handleZoom(evt,'in')"/>
  <use id="zoomminus" xlink:href="#zoomMin" x="42" y="9" onmousedown="handleZoom(evt,'out')"/>
  <use id="reset" xlink:href="#resetDef" x="30" y="36" onmousedown="handleReset()"/>
   <use id="arrowup" xlink:href="#arrowUp" x="0" y="0" onmousedown="handlePan(0,-1)"/>
  <use id="arrowright" xlink:href="#arrowRight" x="0" y="0" onmousedown="handlePan(1,0)"/>
  <use id="arrowdown" xlink:href="#arrowDown" x="0" y="0" onmousedown="handlePan(0,1)"/>
  <use id="arrowleft" xlink:href="#arrowLeft" x="0" y="0" onmousedown="handlePan(-1,0)"/>
</g>
<svg viewBox="0 0 15 15" width="100%" height="30px" preserveAspectRatio="xMaxYMin meet">
 <g id="arrow_out" transform="scale(0.3 0.3)">
  <a xlink:href="effects_8h_affde62d7b7403d0281fb6fa0ab618b9d_cgraph_org.svg" target="_base">
   <rect id="button" ry="5" rx="5" y="6" x="6" height="38" width="38"
        fill="#f2f5e9" fill-opacity="0.5" stroke="#606060" stroke-width="1.0"/>
   <path id="arrow"
     d="M 11.500037,31.436501 C 11.940474,20.09759 22.043105,11.32322 32.158766,21.979434 L 37.068811,17.246167 C 37.068811,17.246167 37.088388,32 37.088388,32 L 22.160133,31.978069 C 22.160133,31.978069 26.997745,27.140456 26.997745,27.140456 C 18.528582,18.264221 13.291696,25.230495 11.500037,31.436501 z"
     style="fill:#404040;"/>
  </a>
 </g>
</svg>

<style type='text/css'>
<![CDATA[
[data-mouse-over-selected='false'] { opacity: 0.7; }
[data-mouse-over-selected='true']  { opacity: 1.0; }
]]>
</style>
<script type="application/ecmascript"><![CDATA[
document.addEventListener('DOMContentLoaded', (event) => {
  highlightEdges();
  highlightAdjacentNodes();
});
]]></script>
</svg>
