<?xml version="1.0" encoding="UTF-8" standalone="no"?>
<!DOCTYPE svg PUBLIC "-//W3C//DTD SVG 1.1//EN"
 "http://www.w3.org/Graphics/SVG/1.1/DTD/svg11.dtd">
<!-- Generated by graphviz version 2.43.0 (0)
 -->
<!-- Title: func_80090778 Pages: 1 -->
<!--zoomable 732 -->

<svg id="main" version="1.1" xmlns="http://www.w3.org/2000/svg" xmlns:xlink="http://www.w3.org/1999/xlink" xml:space="preserve" onload="init(evt)">
<style type="text/css"><![CDATA[
.node, .edge {opacity: 0.7;}
.node.selected, .edge.selected {opacity: 1;}
.edge:hover path { stroke: red; }
.edge:hover polygon { stroke: red; fill: red; }
]]></style>

<defs>
  <circle id="rim" cx="0" cy="0" r="7"/>
  <circle id="rim2" cx="0" cy="0" r="3.5"/>
  <g id="zoomPlus">
    <use xlink:href="#rim" fill="#404040"><set attributeName="fill" to="#808080" begin="zoomplus.mouseover" end="zoomplus.mouseout"/></use>
    <path d="M-4,0h8M0,-4v8" fill="none" stroke="white" stroke-width="1.5" pointer-events="none"/>
  </g>
  <g id="zoomMin">
    <use xlink:href="#rim" fill="#404040"><set attributeName="fill" to="#808080" begin="zoomminus.mouseover" end="zoomminus.mouseout"/></use>
    <path d="M-4,0h8" fill="none" stroke="white" stroke-width="1.5" pointer-events="none"/>
  </g>
  <g id="arrowUp" transform="translate(30 24)">
    <use xlink:href="#rim"/>
    <path pointer-events="none" fill="none" stroke="white" stroke-width="1.5" d="M0,-3.0v7 M-2.5,-0.5L0,-3.0L2.5,-0.5"/>
  </g>
  <g id="arrowRight" transform="rotate(90) translate(36 -43)">
    <use xlink:href="#rim"/>
    <path pointer-events="none" fill="none" stroke="white" stroke-width="1.5" d="M0,-3.0v7 M-2.5,-0.5L0,-3.0L2.5,-0.5"/>
  </g>
  <g id="arrowDown" transform="rotate(180) translate(-30 -48)">
    <use xlink:href="#rim"/>
    <path pointer-events="none" fill="none" stroke="white" stroke-width="1.5" d="M0,-3.0v7 M-2.5,-0.5L0,-3.0L2.5,-0.5"/>
  </g>
  <g id="arrowLeft" transform="rotate(270) translate(-36 17)">
    <use xlink:href="#rim"/>
    <path pointer-events="none" fill="none" stroke="white" stroke-width="1.5" d="M0,-3.0v7 M-2.5,-0.5L0,-3.0L2.5,-0.5"/>
  </g>
  <g id="resetDef">
    <use xlink:href="#rim2" fill="#404040"><set attributeName="fill" to="#808080" begin="reset.mouseover" end="reset.mouseout"/></use>
  </g>
</defs>
<script type="application/ecmascript">
var viewWidth = 1046;
var viewHeight = 732;
var sectionId = 'dynsection-72';
</script>
<script type="application/ecmascript" xlink:href="svg.min.js"/>
<svg id="graph" class="graph">
<g id="viewport">
<title>func_80090778</title>
<!-- Node1 -->
<g id="Node000001" class="node">
<title>Node1</title>
<g id="a_Node000001"><a xlink:title=" ">
<polygon fill="#999999" stroke="#666666" points="91,-116 0,-116 0,-97 91,-97 91,-116"/>
<text text-anchor="middle" x="45.5" y="-104" font-family="Helvetica,sans-Serif" font-size="10.00">func_80090778</text>
</a>
</g>
</g>
<!-- Node2 -->
<g id="Node000002" class="node">
<title>Node2</title>
<g id="a_Node000002"><a xlink:href="effects_8c.html#a6559cc02e5bb1a4e7fe6c97850cdd87e" target="_top" xlink:title=" ">
<polygon fill="white" stroke="#666666" points="232.5,-459 156.5,-459 156.5,-440 232.5,-440 232.5,-459"/>
<text text-anchor="middle" x="194.5" y="-447" font-family="Helvetica,sans-Serif" font-size="10.00">clean_effect</text>
</a>
</g>
</g>
<!-- Node1&#45;&gt;Node2 -->
<g id="edge1_Node000001_Node000002" class="edge">
<title>Node1&#45;&gt;Node2</title>
<g id="a_edge1_Node000001_Node000002"><a xlink:title=" ">
<path fill="none" stroke="#63b8ff" d="M50.59,-116.03C70.57,-162.67 158.18,-367.1 185.4,-430.61"/>
<polygon fill="#63b8ff" stroke="#63b8ff" points="182.21,-432.04 189.37,-439.85 188.64,-429.28 182.21,-432.04"/>
</a>
</g>
</g>
<!-- Node21 -->
<g id="Node000021" class="node">
<title>Node21</title>
<g id="a_Node000021"><a xlink:href="effects_8c.html#a3cf7b9adc690e4f6e8d23b97621e5eba" target="_top" xlink:title=" ">
<polygon fill="white" stroke="#666666" points="240.5,-138 148.5,-138 148.5,-119 240.5,-119 240.5,-138"/>
<text text-anchor="middle" x="194.5" y="-126" font-family="Helvetica,sans-Serif" font-size="10.00">func_8008F86C</text>
</a>
</g>
</g>
<!-- Node1&#45;&gt;Node21 -->
<g id="edge20_Node000001_Node000021" class="edge">
<title>Node1&#45;&gt;Node21</title>
<g id="a_edge20_Node000001_Node000021"><a xlink:title=" ">
<path fill="none" stroke="#63b8ff" d="M91,-113.16C105.91,-115.39 122.71,-117.9 138.32,-120.24"/>
<polygon fill="#63b8ff" stroke="#63b8ff" points="137.98,-123.73 148.39,-121.75 139.01,-116.81 137.98,-123.73"/>
</a>
</g>
</g>
<!-- Node37 -->
<g id="Node000037" class="node">
<title>Node37</title>
<g id="a_Node000037"><a xlink:href="player__controller_8c.html#aafeb0470c7da44e1440ffa4848f7d500" target="_top" xlink:title=" ">
<polygon fill="white" stroke="#666666" points="254,-100.5 135,-100.5 135,-70.5 254,-70.5 254,-100.5"/>
<text text-anchor="start" x="143" y="-88.5" font-family="Helvetica,sans-Serif" font-size="10.00">get_player_index_for</text>
<text text-anchor="middle" x="194.5" y="-77.5" font-family="Helvetica,sans-Serif" font-size="10.00">_player</text>
</a>
</g>
</g>
<!-- Node1&#45;&gt;Node37 -->
<g id="edge39_Node000001_Node000037" class="edge">
<title>Node1&#45;&gt;Node37</title>
<g id="a_edge39_Node000001_Node000037"><a xlink:title=" ">
<path fill="none" stroke="#63b8ff" d="M91,-100.14C101.66,-98.62 113.28,-96.96 124.75,-95.32"/>
<polygon fill="#63b8ff" stroke="#63b8ff" points="125.35,-98.77 134.75,-93.89 124.36,-91.84 125.35,-98.77"/>
</a>
</g>
</g>
<!-- Node38 -->
<g id="Node000038" class="node">
<title>Node38</title>
<g id="a_Node000038"><a xlink:href="effects_8c.html#ab364883933845be8e31e414b3c4d69e8" target="_top" xlink:title=" ">
<polygon fill="white" stroke="#666666" points="262,-39 127,-39 127,-20 262,-20 262,-39"/>
<text text-anchor="middle" x="194.5" y="-27" font-family="Helvetica,sans-Serif" font-size="10.00">remove_lightning_effect</text>
</a>
</g>
</g>
<!-- Node1&#45;&gt;Node38 -->
<g id="edge40_Node000001_Node000038" class="edge">
<title>Node1&#45;&gt;Node38</title>
<g id="a_edge40_Node000001_Node000038"><a xlink:title=" ">
<path fill="none" stroke="#63b8ff" d="M62.99,-96.89C79.15,-87.57 104.55,-73.16 127,-61.5 138.81,-55.36 151.99,-48.94 163.48,-43.47"/>
<polygon fill="#63b8ff" stroke="#63b8ff" points="165.12,-46.56 172.67,-39.12 162.13,-40.23 165.12,-46.56"/>
</a>
</g>
</g>
<!-- Node3 -->
<g id="Node000003" class="node">
<title>Node3</title>
<g id="a_Node000003"><a xlink:href="effects_8c.html#a7fef1af5ca366a9346478d94239c6142" target="_top" xlink:title=" ">
<polygon fill="white" stroke="#666666" points="423.5,-724 330.5,-724 330.5,-705 423.5,-705 423.5,-724"/>
<text text-anchor="middle" x="377" y="-712" font-family="Helvetica,sans-Serif" font-size="10.00">func_8008C6D0</text>
</a>
</g>
</g>
<!-- Node2&#45;&gt;Node3 -->
<g id="edge2_Node000002_Node000003" class="edge">
<title>Node2&#45;&gt;Node3</title>
<g id="a_edge2_Node000002_Node000003"><a xlink:title=" ">
<path fill="none" stroke="#63b8ff" d="M196.41,-459.12C200.46,-496.14 220.2,-630.68 298,-696.5 304.48,-701.98 312.31,-705.87 320.48,-708.62"/>
<polygon fill="#63b8ff" stroke="#63b8ff" points="319.58,-712.01 330.16,-711.35 321.48,-705.27 319.58,-712.01"/>
</a>
</g>
</g>
<!-- Node4 -->
<g id="Node000004" class="node">
<title>Node4</title>
<g id="a_Node000004"><a xlink:href="effects_8c.html#a5f19eaaa048055d292d02c717e635786" target="_top" xlink:title=" ">
<polygon fill="white" stroke="#666666" points="423,-687 331,-687 331,-668 423,-668 423,-687"/>
<text text-anchor="middle" x="377" y="-675" font-family="Helvetica,sans-Serif" font-size="10.00">func_8008D760</text>
</a>
</g>
</g>
<!-- Node2&#45;&gt;Node4 -->
<g id="edge3_Node000002_Node000004" class="edge">
<title>Node2&#45;&gt;Node4</title>
<g id="a_edge3_Node000002_Node000004"><a xlink:title=" ">
<path fill="none" stroke="#63b8ff" d="M197.2,-459.28C203.59,-492.96 229.41,-604.96 298,-659.5 304.72,-664.85 312.75,-668.66 321.05,-671.37"/>
<polygon fill="#63b8ff" stroke="#63b8ff" points="320.3,-674.79 330.87,-674.07 322.16,-668.04 320.3,-674.79"/>
</a>
</g>
</g>
<!-- Node5 -->
<g id="Node000005" class="node">
<title>Node5</title>
<g id="a_Node000005"><a xlink:href="effects_8c.html#a4ea2da0616ee3c475e4be217dc0bc71f" target="_top" xlink:title=" ">
<polygon fill="white" stroke="#666666" points="423.5,-650 330.5,-650 330.5,-631 423.5,-631 423.5,-650"/>
<text text-anchor="middle" x="377" y="-638" font-family="Helvetica,sans-Serif" font-size="10.00">func_8008D97C</text>
</a>
</g>
</g>
<!-- Node2&#45;&gt;Node5 -->
<g id="edge4_Node000002_Node000005" class="edge">
<title>Node2&#45;&gt;Node5</title>
<g id="a_edge4_Node000002_Node000005"><a xlink:title=" ">
<path fill="none" stroke="#63b8ff" d="M198.25,-459.2C207.17,-488.84 238.26,-578.82 298,-622.5 304.7,-627.4 312.52,-630.99 320.57,-633.62"/>
<polygon fill="#63b8ff" stroke="#63b8ff" points="319.87,-637.06 330.44,-636.37 321.75,-630.32 319.87,-637.06"/>
</a>
</g>
</g>
<!-- Node6 -->
<g id="Node000006" class="node">
<title>Node6</title>
<g id="a_Node000006"><a xlink:href="effects_8c.html#a13005f7c39388deade6ba0491d7c5918" target="_top" xlink:title=" ">
<polygon fill="white" stroke="#666666" points="422.5,-613 331.5,-613 331.5,-594 422.5,-594 422.5,-613"/>
<text text-anchor="middle" x="377" y="-601" font-family="Helvetica,sans-Serif" font-size="10.00">func_8008E884</text>
</a>
</g>
</g>
<!-- Node2&#45;&gt;Node6 -->
<g id="edge5_Node000002_Node000006" class="edge">
<title>Node2&#45;&gt;Node6</title>
<g id="a_edge5_Node000002_Node000006"><a xlink:title=" ">
<path fill="none" stroke="#63b8ff" d="M199.86,-459.24C211.67,-484.48 246.92,-552.33 298,-585.5 305.12,-590.12 313.29,-593.57 321.59,-596.13"/>
<polygon fill="#63b8ff" stroke="#63b8ff" points="320.78,-599.53 331.35,-598.75 322.6,-592.77 320.78,-599.53"/>
</a>
</g>
</g>
<!-- Node7 -->
<g id="Node000007" class="node">
<title>Node7</title>
<g id="a_Node000007"><a xlink:href="effects_8c.html#ae02351b6bbb678b552ec8864b47fc56c" target="_top" xlink:title=" ">
<polygon fill="white" stroke="#666666" points="422.5,-576 331.5,-576 331.5,-557 422.5,-557 422.5,-576"/>
<text text-anchor="middle" x="377" y="-564" font-family="Helvetica,sans-Serif" font-size="10.00">func_8008F3E0</text>
</a>
</g>
</g>
<!-- Node2&#45;&gt;Node7 -->
<g id="edge6_Node000002_Node000007" class="edge">
<title>Node2&#45;&gt;Node7</title>
<g id="a_edge6_Node000002_Node000007"><a xlink:title=" ">
<path fill="none" stroke="#63b8ff" d="M202.5,-459.15C217.56,-479.15 255.17,-525.24 298,-548.5 305.21,-552.41 313.24,-555.48 321.32,-557.88"/>
<polygon fill="#63b8ff" stroke="#63b8ff" points="320.61,-561.31 331.17,-560.49 322.4,-554.54 320.61,-561.31"/>
</a>
</g>
</g>
<!-- Node8 -->
<g id="Node000008" class="node">
<title>Node8</title>
<g id="a_Node000008"><a xlink:href="effects_8c.html#ab5125d5944958f891647b27b440d3d62" target="_top" xlink:title=" ">
<polygon fill="white" stroke="#666666" points="423,-539 331,-539 331,-520 423,-520 423,-539"/>
<text text-anchor="middle" x="377" y="-527" font-family="Helvetica,sans-Serif" font-size="10.00">func_8008F5A4</text>
</a>
</g>
</g>
<!-- Node2&#45;&gt;Node8 -->
<g id="edge7_Node000002_Node000008" class="edge">
<title>Node2&#45;&gt;Node8</title>
<g id="a_edge7_Node000002_Node000008"><a xlink:title=" ">
<path fill="none" stroke="#63b8ff" d="M208.38,-459.15C227.14,-472.77 263.5,-497.51 298,-511.5 305.24,-514.44 313.07,-516.96 320.87,-519.09"/>
<polygon fill="#63b8ff" stroke="#63b8ff" points="320.14,-522.52 330.7,-521.6 321.88,-515.74 320.14,-522.52"/>
</a>
</g>
</g>
<!-- Node13 -->
<g id="Node000013" class="node">
<title>Node13</title>
<g id="a_Node000013"><a xlink:href="effects_8c.html#a2f183005a5e85816dd81508847c1904d" target="_top" xlink:title=" ">
<polygon fill="white" stroke="#666666" points="423.5,-502 330.5,-502 330.5,-483 423.5,-483 423.5,-502"/>
<text text-anchor="middle" x="377" y="-490" font-family="Helvetica,sans-Serif" font-size="10.00">func_8008FEDC</text>
</a>
</g>
</g>
<!-- Node2&#45;&gt;Node13 -->
<g id="edge12_Node000002_Node000013" class="edge">
<title>Node2&#45;&gt;Node13</title>
<g id="a_edge12_Node000002_Node000013"><a xlink:title=" ">
<path fill="none" stroke="#63b8ff" d="M232.9,-458.41C259.78,-464.81 296.32,-473.52 325.74,-480.53"/>
<polygon fill="#63b8ff" stroke="#63b8ff" points="325.29,-484.02 335.83,-482.93 326.91,-477.21 325.29,-484.02"/>
</a>
</g>
</g>
<!-- Node14 -->
<g id="Node000014" class="node">
<title>Node14</title>
<g id="a_Node000014"><a xlink:href="effects_8c.html#acbb1f27649a63227fcf0dd1f17dfa096" target="_top" xlink:title=" ">
<polygon fill="white" stroke="#666666" points="438,-464.5 316,-464.5 316,-434.5 438,-434.5 438,-464.5"/>
<text text-anchor="start" x="324" y="-452.5" font-family="Helvetica,sans-Serif" font-size="10.00">remove_banana_near</text>
<text text-anchor="middle" x="377" y="-441.5" font-family="Helvetica,sans-Serif" font-size="10.00">_spinout_effect</text>
</a>
</g>
</g>
<!-- Node2&#45;&gt;Node14 -->
<g id="edge13_Node000002_Node000014" class="edge">
<title>Node2&#45;&gt;Node14</title>
<g id="a_edge13_Node000002_Node000014"><a xlink:title=" ">
<path fill="none" stroke="#63b8ff" d="M232.9,-449.5C253.96,-449.5 280.94,-449.5 305.78,-449.5"/>
<polygon fill="#63b8ff" stroke="#63b8ff" points="305.91,-453 315.91,-449.5 305.91,-446 305.91,-453"/>
</a>
</g>
</g>
<!-- Node15 -->
<g id="Node000015" class="node">
<title>Node15</title>
<g id="a_Node000015"><a xlink:href="effects_8c.html#a4768d56263e476d3bac47ee01bac3dc8" target="_top" xlink:title=" ">
<polygon fill="white" stroke="#666666" points="456,-416.5 298,-416.5 298,-386.5 456,-386.5 456,-416.5"/>
<text text-anchor="start" x="306" y="-404.5" font-family="Helvetica,sans-Serif" font-size="10.00">remove_boost_ramp_asphalt</text>
<text text-anchor="middle" x="377" y="-393.5" font-family="Helvetica,sans-Serif" font-size="10.00">_effect</text>
</a>
</g>
</g>
<!-- Node2&#45;&gt;Node15 -->
<g id="edge14_Node000002_Node000015" class="edge">
<title>Node2&#45;&gt;Node15</title>
<g id="a_edge14_Node000002_Node000015"><a xlink:title=" ">
<path fill="none" stroke="#63b8ff" d="M231.59,-439.9C253.85,-433.98 283.09,-426.21 309.42,-419.2"/>
<polygon fill="#63b8ff" stroke="#63b8ff" points="310.59,-422.52 319.36,-416.56 308.79,-415.75 310.59,-422.52"/>
</a>
</g>
</g>
<!-- Node16 -->
<g id="Node000016" class="node">
<title>Node16</title>
<g id="a_Node000016"><a xlink:href="effects_8c.html#aafe14c45e9b91bb1d409ef2f2bfe5c53" target="_top" xlink:title=" ">
<polygon fill="white" stroke="#666666" points="451.5,-368.5 302.5,-368.5 302.5,-338.5 451.5,-338.5 451.5,-368.5"/>
<text text-anchor="start" x="310.5" y="-356.5" font-family="Helvetica,sans-Serif" font-size="10.00">remove_boost_ramp_wood</text>
<text text-anchor="middle" x="377" y="-345.5" font-family="Helvetica,sans-Serif" font-size="10.00">_effect</text>
</a>
</g>
</g>
<!-- Node2&#45;&gt;Node16 -->
<g id="edge15_Node000002_Node000016" class="edge">
<title>Node2&#45;&gt;Node16</title>
<g id="a_edge15_Node000002_Node000016"><a xlink:title=" ">
<path fill="none" stroke="#63b8ff" d="M206.74,-439.79C224.83,-424.6 262.06,-395.1 298,-377.5 301.79,-375.64 305.76,-373.89 309.81,-372.25"/>
<polygon fill="#63b8ff" stroke="#63b8ff" points="311.27,-375.44 319.37,-368.61 308.78,-368.9 311.27,-375.44"/>
</a>
</g>
</g>
<!-- Node17 -->
<g id="Node000017" class="node">
<title>Node17</title>
<g id="a_Node000017"><a xlink:href="effects_8c.html#a9ff5c732ea8ba59908ccf62ff441e7e4" target="_top" xlink:title=" ">
<polygon fill="white" stroke="#666666" points="437,-320.5 317,-320.5 317,-290.5 437,-290.5 437,-320.5"/>
<text text-anchor="start" x="325" y="-308.5" font-family="Helvetica,sans-Serif" font-size="10.00">remove_driving_near</text>
<text text-anchor="middle" x="377" y="-297.5" font-family="Helvetica,sans-Serif" font-size="10.00">_spinout_effect</text>
</a>
</g>
</g>
<!-- Node2&#45;&gt;Node17 -->
<g id="edge16_Node000002_Node000017" class="edge">
<title>Node2&#45;&gt;Node17</title>
<g id="a_edge16_Node000002_Node000017"><a xlink:title=" ">
<path fill="none" stroke="#63b8ff" d="M201.08,-439.79C214.67,-417.03 251.74,-359.89 298,-329.5 301.08,-327.48 304.34,-325.61 307.72,-323.9"/>
<polygon fill="#63b8ff" stroke="#63b8ff" points="309.22,-327.06 316.86,-319.72 306.31,-320.7 309.22,-327.06"/>
</a>
</g>
</g>
<!-- Node18 -->
<g id="Node000018" class="node">
<title>Node18</title>
<g id="a_Node000018"><a xlink:href="effects_8c.html#a5f1aead641683fd07375d6737dfafac2" target="_top" xlink:title=" ">
<polygon fill="white" stroke="#666666" points="433.5,-272.5 320.5,-272.5 320.5,-242.5 433.5,-242.5 433.5,-272.5"/>
<text text-anchor="start" x="328.5" y="-260.5" font-family="Helvetica,sans-Serif" font-size="10.00">remove_hit_by_star</text>
<text text-anchor="middle" x="377" y="-249.5" font-family="Helvetica,sans-Serif" font-size="10.00">_effect</text>
</a>
</g>
</g>
<!-- Node2&#45;&gt;Node18 -->
<g id="edge17_Node000002_Node000018" class="edge">
<title>Node2&#45;&gt;Node18</title>
<g id="a_edge17_Node000002_Node000018"><a xlink:title=" ">
<path fill="none" stroke="#63b8ff" d="M198.61,-439.85C208.36,-411.18 241.08,-325.74 298,-281.5 302.02,-278.37 306.45,-275.65 311.1,-273.28"/>
<polygon fill="#63b8ff" stroke="#63b8ff" points="312.57,-276.46 320.24,-269.15 309.69,-270.08 312.57,-276.46"/>
</a>
</g>
</g>
<!-- Node19 -->
<g id="Node000019" class="node">
<title>Node19</title>
<g id="a_Node000019"><a xlink:href="effects_8c.html#a9be2cc0ebbe72a9d5276a4fd2675eef3" target="_top" xlink:title=" ">
<polygon fill="white" stroke="#666666" points="449.5,-224 304.5,-224 304.5,-205 449.5,-205 449.5,-224"/>
<text text-anchor="middle" x="377" y="-212" font-family="Helvetica,sans-Serif" font-size="10.00">remove_mushroom_effect</text>
</a>
</g>
</g>
<!-- Node2&#45;&gt;Node19 -->
<g id="edge18_Node000002_Node000019" class="edge">
<title>Node2&#45;&gt;Node19</title>
<g id="a_edge18_Node000002_Node000019"><a xlink:title=" ">
<path fill="none" stroke="#63b8ff" d="M197.05,-439.95C203.07,-406.03 228.15,-290.37 298,-233.5 300.08,-231.81 302.29,-230.26 304.6,-228.85"/>
<polygon fill="#63b8ff" stroke="#63b8ff" points="306.62,-231.74 313.9,-224.04 303.41,-225.52 306.62,-231.74"/>
</a>
</g>
</g>
<!-- Node20 -->
<g id="Node000020" class="node">
<title>Node20</title>
<g id="a_Node000020"><a xlink:href="effects_8c.html#a85a7ba2f2c97859b0090c54a68e8f003" target="_top" xlink:title=" ">
<polygon fill="white" stroke="#666666" points="444,-187 310,-187 310,-168 444,-168 444,-187"/>
<text text-anchor="middle" x="377" y="-175" font-family="Helvetica,sans-Serif" font-size="10.00">remove_spinout_effects</text>
</a>
</g>
</g>
<!-- Node2&#45;&gt;Node20 -->
<g id="edge19_Node000002_Node000020" class="edge">
<title>Node2&#45;&gt;Node20</title>
<g id="a_edge19_Node000002_Node000020"><a xlink:title=" ">
<path fill="none" stroke="#63b8ff" d="M196.33,-439.94C200.11,-402.51 219.1,-264.65 298,-196.5 299.8,-194.95 301.71,-193.51 303.7,-192.2"/>
<polygon fill="#63b8ff" stroke="#63b8ff" points="305.84,-195.01 312.9,-187.11 302.45,-188.89 305.84,-195.01"/>
</a>
</g>
</g>
<!-- Node9 -->
<g id="Node000009" class="node">
<title>Node9</title>
<g id="a_Node000009"><a xlink:href="code__80057C60_8c.html#ae28b6eb556910087cea23f0cb7a322bd" target="_top" xlink:title=" ">
<polygon fill="white" stroke="#666666" points="604,-505 492,-505 492,-486 604,-486 604,-505"/>
<text text-anchor="middle" x="548" y="-493" font-family="Helvetica,sans-Serif" font-size="10.00">pop_player_balloon</text>
</a>
</g>
</g>
<!-- Node8&#45;&gt;Node9 -->
<g id="edge8_Node000008_Node000009" class="edge">
<title>Node8&#45;&gt;Node9</title>
<g id="a_edge8_Node000008_Node000009"><a xlink:title=" ">
<path fill="none" stroke="#63b8ff" d="M423.29,-520.39C443.63,-516.3 467.87,-511.42 489.48,-507.07"/>
<polygon fill="#63b8ff" stroke="#63b8ff" points="490.41,-510.46 499.52,-505.05 489.02,-503.59 490.41,-510.46"/>
</a>
</g>
</g>
<!-- Node10 -->
<g id="Node000010" class="node">
<title>Node10</title>
<g id="a_Node000010"><a xlink:href="effects_8c.html#a1c7552c4a370cc015c2726e40f1fdb06" target="_top" xlink:title=" ">
<polygon fill="white" stroke="#666666" points="733,-505 640,-505 640,-486 733,-486 733,-505"/>
<text text-anchor="middle" x="686.5" y="-493" font-family="Helvetica,sans-Serif" font-size="10.00">func_8008FD4C</text>
</a>
</g>
</g>
<!-- Node9&#45;&gt;Node10 -->
<g id="edge9_Node000009_Node000010" class="edge">
<title>Node9&#45;&gt;Node10</title>
<g id="a_edge9_Node000009_Node000010"><a xlink:title=" ">
<path fill="none" stroke="#63b8ff" d="M604.13,-495.5C612.54,-495.5 621.24,-495.5 629.67,-495.5"/>
<polygon fill="#63b8ff" stroke="#63b8ff" points="629.79,-499 639.79,-495.5 629.79,-492 629.79,-499"/>
</a>
</g>
</g>
<!-- Node11 -->
<g id="Node000011" class="node">
<title>Node11</title>
<g id="a_Node000011"><a xlink:href="external_8c.html#a2be9efc97a92e19d02aaee90d676acc1" target="_top" xlink:title=" ">
<polygon fill="white" stroke="#666666" points="732.5,-452 640.5,-452 640.5,-433 732.5,-433 732.5,-452"/>
<text text-anchor="middle" x="686.5" y="-440" font-family="Helvetica,sans-Serif" font-size="10.00">func_800C9060</text>
</a>
</g>
</g>
<!-- Node9&#45;&gt;Node11 -->
<g id="edge10_Node000009_Node000011" class="edge">
<title>Node9&#45;&gt;Node11</title>
<g id="a_edge10_Node000009_Node000011"><a xlink:title=" ">
<path fill="none" stroke="#63b8ff" d="M573.72,-485.9C595.46,-477.46 627.32,-465.09 651.47,-455.71"/>
<polygon fill="#63b8ff" stroke="#63b8ff" points="652.91,-458.91 660.96,-452.03 650.38,-452.38 652.91,-458.91"/>
</a>
</g>
</g>
<!-- Node12 -->
<g id="Node000012" class="node">
<title>Node12</title>
<g id="a_Node000012"><a xlink:href="external_8c.html#a475cff796211891556f52877cd8e9b9e" target="_top" xlink:title=" ">
<polygon fill="white" stroke="#666666" points="875,-401 803,-401 803,-382 875,-382 875,-401"/>
<text text-anchor="middle" x="839" y="-389" font-family="Helvetica,sans-Serif" font-size="10.00">play_sound</text>
</a>
</g>
</g>
<!-- Node11&#45;&gt;Node12 -->
<g id="edge11_Node000011_Node000012" class="edge">
<title>Node11&#45;&gt;Node12</title>
<g id="a_edge11_Node000011_Node000012"><a xlink:title=" ">
<path fill="none" stroke="#63b8ff" d="M715.81,-432.91C739.67,-424.82 774.01,-413.18 800.21,-404.3"/>
<polygon fill="#63b8ff" stroke="#63b8ff" points="801.47,-407.57 809.82,-401.05 799.22,-400.94 801.47,-407.57"/>
</a>
</g>
</g>
<!-- Node22 -->
<g id="Node000022" class="node">
<title>Node22</title>
<g id="a_Node000022"><a xlink:href="external_8c.html#adbb3c68f56a5870effc0f84c03a5347c" target="_top" xlink:title=" ">
<polygon fill="white" stroke="#666666" points="423,-150 331,-150 331,-131 423,-131 423,-150"/>
<text text-anchor="middle" x="377" y="-138" font-family="Helvetica,sans-Serif" font-size="10.00">func_800CA730</text>
</a>
</g>
</g>
<!-- Node21&#45;&gt;Node22 -->
<g id="edge21_Node000021_Node000022" class="edge">
<title>Node21&#45;&gt;Node22</title>
<g id="a_edge21_Node000021_Node000022"><a xlink:title=" ">
<path fill="none" stroke="#63b8ff" d="M240.58,-131.5C264.92,-133.12 295.16,-135.13 320.88,-136.84"/>
<polygon fill="#63b8ff" stroke="#63b8ff" points="320.66,-140.33 330.87,-137.5 321.12,-133.34 320.66,-140.33"/>
</a>
</g>
</g>
<!-- Node35 -->
<g id="Node000035" class="node">
<title>Node35</title>
<g id="a_Node000035"><a xlink:href="external_8c.html#a3138069310bbed5109964d607d51811f" target="_top" xlink:title=" ">
<polygon fill="white" stroke="#666666" points="424.5,-63 329.5,-63 329.5,-44 424.5,-44 424.5,-63"/>
<text text-anchor="middle" x="377" y="-51" font-family="Helvetica,sans-Serif" font-size="10.00">func_800CAACC</text>
</a>
</g>
</g>
<!-- Node21&#45;&gt;Node35 -->
<g id="edge36_Node000021_Node000035" class="edge">
<title>Node21&#45;&gt;Node35</title>
<g id="a_edge36_Node000021_Node000035"><a xlink:title=" ">
<path fill="none" stroke="#63b8ff" d="M233.52,-118.9C242.93,-116.18 252.92,-112.99 262,-109.5 293.15,-97.51 327.32,-80.12 350.05,-67.91"/>
<polygon fill="#63b8ff" stroke="#63b8ff" points="351.93,-70.87 359.05,-63.02 348.59,-64.72 351.93,-70.87"/>
</a>
</g>
</g>
<!-- Node22&#45;&gt;Node12 -->
<g id="edge35_Node000022_Node000012" class="edge">
<title>Node22&#45;&gt;Node12</title>
<g id="a_edge35_Node000022_Node000012"><a xlink:title=" ">
<path fill="none" stroke="#63b8ff" d="M423.14,-143.46C435.05,-146.23 447.06,-151.1 456,-159.5 495.33,-196.47 454.26,-236.9 492,-275.5 574.21,-359.59 719.11,-382.72 792.57,-389.09"/>
<polygon fill="#63b8ff" stroke="#63b8ff" points="792.62,-392.6 802.87,-389.91 793.18,-385.62 792.62,-392.6"/>
</a>
</g>
</g>
<!-- Node23 -->
<g id="Node000023" class="node">
<title>Node23</title>
<g id="a_Node000023"><a xlink:href="external_8c.html#ac48b7cbfcaa7737f892877ead85e4ba7" target="_top" xlink:title=" ">
<polygon fill="white" stroke="#666666" points="732.5,-141 640.5,-141 640.5,-122 732.5,-122 732.5,-141"/>
<text text-anchor="middle" x="686.5" y="-129" font-family="Helvetica,sans-Serif" font-size="10.00">func_800C3448</text>
</a>
</g>
</g>
<!-- Node22&#45;&gt;Node23 -->
<g id="edge22_Node000022_Node000023" class="edge">
<title>Node22&#45;&gt;Node23</title>
<g id="a_edge22_Node000022_Node000023"><a xlink:title=" ">
<path fill="none" stroke="#63b8ff" d="M423.18,-143.95C434.96,-146.75 446.89,-151.5 456,-159.5 489.32,-188.73 455.44,-227.45 492,-252.5 533.06,-280.64 560.06,-275.88 604,-252.5 644.64,-230.87 668.66,-178.95 679.17,-150.66"/>
<polygon fill="#63b8ff" stroke="#63b8ff" points="682.52,-151.68 682.54,-141.09 675.92,-149.36 682.52,-151.68"/>
</a>
</g>
</g>
<!-- Node24 -->
<g id="Node000024" class="node">
<title>Node24</title>
<g id="a_Node000024"><a xlink:href="external_8c.html#ab2ecda68e1fb6f957aafd4c5742e2f63" target="_top" xlink:title=" ">
<polygon fill="white" stroke="#666666" points="594,-243 502,-243 502,-224 594,-224 594,-243"/>
<text text-anchor="middle" x="548" y="-231" font-family="Helvetica,sans-Serif" font-size="10.00">func_800C3508</text>
</a>
</g>
</g>
<!-- Node22&#45;&gt;Node24 -->
<g id="edge23_Node000022_Node000024" class="edge">
<title>Node22&#45;&gt;Node24</title>
<g id="a_edge23_Node000022_Node000024"><a xlink:title=" ">
<path fill="none" stroke="#63b8ff" d="M423.41,-145.5C434.79,-148.32 446.47,-152.71 456,-159.5 480.09,-176.67 468.59,-197.41 492,-215.5 493.78,-216.87 495.66,-218.14 497.62,-219.32"/>
<polygon fill="#63b8ff" stroke="#63b8ff" points="496.11,-222.48 506.61,-223.88 499.28,-216.23 496.11,-222.48"/>
</a>
</g>
</g>
<!-- Node25 -->
<g id="Node000025" class="node">
<title>Node25</title>
<g id="a_Node000025"><a xlink:href="external_8c.html#a2aea7abf056e029f247b18edb62aa218" target="_top" xlink:title=" ">
<polygon fill="white" stroke="#666666" points="594,-206 502,-206 502,-187 594,-187 594,-206"/>
<text text-anchor="middle" x="548" y="-194" font-family="Helvetica,sans-Serif" font-size="10.00">func_800C357C</text>
</a>
</g>
</g>
<!-- Node22&#45;&gt;Node25 -->
<g id="edge24_Node000022_Node000025" class="edge">
<title>Node22&#45;&gt;Node25</title>
<g id="a_edge24_Node000022_Node000025"><a xlink:title=" ">
<path fill="none" stroke="#63b8ff" d="M423.12,-149.49C434.05,-152.21 445.57,-155.55 456,-159.5 472.92,-165.91 475.34,-171.44 492,-178.5 496.17,-180.27 500.58,-181.97 505.01,-183.58"/>
<polygon fill="#63b8ff" stroke="#63b8ff" points="504.08,-186.96 514.67,-186.93 506.37,-180.35 504.08,-186.96"/>
</a>
</g>
</g>
<!-- Node26 -->
<g id="Node000026" class="node">
<title>Node26</title>
<g id="a_Node000026"><a xlink:href="external_8c.html#aea29af4ab009f59caa57f45987b0ea86" target="_top" xlink:title=" ">
<polygon fill="white" stroke="#666666" points="594,-169 502,-169 502,-150 594,-150 594,-169"/>
<text text-anchor="middle" x="548" y="-157" font-family="Helvetica,sans-Serif" font-size="10.00">func_800C3608</text>
</a>
</g>
</g>
<!-- Node22&#45;&gt;Node26 -->
<g id="edge25_Node000022_Node000026" class="edge">
<title>Node22&#45;&gt;Node26</title>
<g id="a_edge25_Node000022_Node000026"><a xlink:title=" ">
<path fill="none" stroke="#63b8ff" d="M423.29,-145.59C444.4,-147.97 469.71,-150.81 491.92,-153.31"/>
<polygon fill="#63b8ff" stroke="#63b8ff" points="491.55,-156.79 501.88,-154.43 492.33,-149.83 491.55,-156.79"/>
</a>
</g>
</g>
<!-- Node27 -->
<g id="Node000027" class="node">
<title>Node27</title>
<g id="a_Node000027"><a xlink:href="external_8c.html#a06bdcb8baeee497fe4ccb7083644593d" target="_top" xlink:title=" ">
<polygon fill="white" stroke="#666666" points="594,-95 502,-95 502,-76 594,-76 594,-95"/>
<text text-anchor="middle" x="548" y="-83" font-family="Helvetica,sans-Serif" font-size="10.00">func_800C9018</text>
</a>
</g>
</g>
<!-- Node22&#45;&gt;Node27 -->
<g id="edge26_Node000022_Node000027" class="edge">
<title>Node22&#45;&gt;Node27</title>
<g id="a_edge26_Node000022_Node000027"><a xlink:title=" ">
<path fill="none" stroke="#63b8ff" d="M407.44,-130.92C435.34,-121.84 477.44,-108.14 508.1,-98.16"/>
<polygon fill="#63b8ff" stroke="#63b8ff" points="509.19,-101.49 517.62,-95.06 507.02,-94.83 509.19,-101.49"/>
</a>
</g>
</g>
<!-- Node34 -->
<g id="Node000034" class="node">
<title>Node34</title>
<g id="a_Node000034"><a xlink:href="external_8c.html#ad99507ba223474857829e7c56bd45fd1" target="_top" xlink:title=" ">
<polygon fill="white" stroke="#666666" points="592.5,-132 503.5,-132 503.5,-113 592.5,-113 592.5,-132"/>
<text text-anchor="middle" x="548" y="-120" font-family="Helvetica,sans-Serif" font-size="10.00">play_sequence</text>
</a>
</g>
</g>
<!-- Node22&#45;&gt;Node34 -->
<g id="edge33_Node000022_Node000034" class="edge">
<title>Node22&#45;&gt;Node34</title>
<g id="a_edge33_Node000022_Node000034"><a xlink:title=" ">
<path fill="none" stroke="#63b8ff" d="M423.29,-135.68C444.82,-133.38 470.73,-130.62 493.25,-128.22"/>
<polygon fill="#63b8ff" stroke="#63b8ff" points="493.76,-131.69 503.34,-127.15 493.02,-124.73 493.76,-131.69"/>
</a>
</g>
</g>
<!-- Node28 -->
<g id="Node000028" class="node">
<title>Node28</title>
<g id="a_Node000028"><a xlink:href="external_8c.html#a028d40421b90c38f68ebfd5acc626f2e" target="_top" xlink:title=" ">
<polygon fill="white" stroke="#666666" points="732.5,-85 640.5,-85 640.5,-66 732.5,-66 732.5,-85"/>
<text text-anchor="middle" x="686.5" y="-73" font-family="Helvetica,sans-Serif" font-size="10.00">func_800C5578</text>
</a>
</g>
</g>
<!-- Node27&#45;&gt;Node28 -->
<g id="edge27_Node000027_Node000028" class="edge">
<title>Node27&#45;&gt;Node28</title>
<g id="a_edge27_Node000027_Node000028"><a xlink:title=" ">
<path fill="none" stroke="#63b8ff" d="M594.07,-82.2C605.72,-81.34 618.39,-80.42 630.49,-79.53"/>
<polygon fill="#63b8ff" stroke="#63b8ff" points="630.76,-83.02 640.47,-78.8 630.24,-76.04 630.76,-83.02"/>
</a>
</g>
</g>
<!-- Node29 -->
<g id="Node000029" class="node">
<title>Node29</title>
<g id="a_Node000029"><a xlink:href="external_8c.html#ac0fb767de7e14a03f1bcfa53f0abd23b" target="_top" xlink:title=" ">
<polygon fill="white" stroke="#666666" points="909,-122 769,-122 769,-103 909,-103 909,-122"/>
<text text-anchor="middle" x="839" y="-110" font-family="Helvetica,sans-Serif" font-size="10.00">delete_sound_from_bank</text>
</a>
</g>
</g>
<!-- Node28&#45;&gt;Node29 -->
<g id="edge28_Node000028_Node000029" class="edge">
<title>Node28&#45;&gt;Node29</title>
<g id="a_edge28_Node000028_Node000029"><a xlink:title=" ">
<path fill="none" stroke="#63b8ff" d="M726.26,-85.03C745.49,-89.76 768.93,-95.52 789.36,-100.54"/>
<polygon fill="#63b8ff" stroke="#63b8ff" points="788.57,-103.95 799.11,-102.94 790.24,-97.15 788.57,-103.95"/>
</a>
</g>
</g>
<!-- Node31 -->
<g id="Node000031" class="node">
<title>Node31</title>
<g id="a_Node000031"><a xlink:href="external_8c.html#ab83bd36e63f0f1baddcb2482b5ad31b0" target="_top" xlink:title=" ">
<polygon fill="white" stroke="#666666" points="885.5,-85 792.5,-85 792.5,-66 885.5,-66 885.5,-85"/>
<text text-anchor="middle" x="839" y="-73" font-family="Helvetica,sans-Serif" font-size="10.00">func_800C41CC</text>
</a>
</g>
</g>
<!-- Node28&#45;&gt;Node31 -->
<g id="edge30_Node000028_Node000031" class="edge">
<title>Node28&#45;&gt;Node31</title>
<g id="a_edge30_Node000028_Node000031"><a xlink:title=" ">
<path fill="none" stroke="#63b8ff" d="M732.65,-75.5C748.14,-75.5 765.66,-75.5 781.9,-75.5"/>
<polygon fill="#63b8ff" stroke="#63b8ff" points="782.36,-79 792.36,-75.5 782.36,-72 782.36,-79"/>
</a>
</g>
</g>
<!-- Node32 -->
<g id="Node000032" class="node">
<title>Node32</title>
<g id="a_Node000032"><a xlink:href="port__eu_8c.html#aa89dfaecca46c6d071f08c1898d1f7c9" target="_top" xlink:title=" ">
<polygon fill="white" stroke="#666666" points="885.5,-48 792.5,-48 792.5,-29 885.5,-29 885.5,-48"/>
<text text-anchor="middle" x="839" y="-36" font-family="Helvetica,sans-Serif" font-size="10.00">func_800CBBE8</text>
</a>
</g>
</g>
<!-- Node28&#45;&gt;Node32 -->
<g id="edge31_Node000028_Node000032" class="edge">
<title>Node28&#45;&gt;Node32</title>
<g id="a_edge31_Node000028_Node000032"><a xlink:title=" ">
<path fill="none" stroke="#63b8ff" d="M726.26,-65.97C745.49,-61.24 768.93,-55.48 789.36,-50.46"/>
<polygon fill="#63b8ff" stroke="#63b8ff" points="790.24,-53.85 799.11,-48.06 788.57,-47.05 790.24,-53.85"/>
</a>
</g>
</g>
<!-- Node30 -->
<g id="Node000030" class="node">
<title>Node30</title>
<g id="a_Node000030"><a xlink:href="external_8c.html#a358ac55e8ab5262dcae8037334be06d7" target="_top" xlink:title=" ">
<polygon fill="white" stroke="#666666" points="1037.5,-122 945.5,-122 945.5,-103 1037.5,-103 1037.5,-122"/>
<text text-anchor="middle" x="991.5" y="-110" font-family="Helvetica,sans-Serif" font-size="10.00">func_800C40F0</text>
</a>
</g>
</g>
<!-- Node29&#45;&gt;Node30 -->
<g id="edge29_Node000029_Node000030" class="edge">
<title>Node29&#45;&gt;Node30</title>
<g id="a_edge29_Node000029_Node000030"><a xlink:title=" ">
<path fill="none" stroke="#63b8ff" d="M909.08,-112.5C917.87,-112.5 926.78,-112.5 935.31,-112.5"/>
<polygon fill="#63b8ff" stroke="#63b8ff" points="935.5,-116 945.5,-112.5 935.5,-109 935.5,-116"/>
</a>
</g>
</g>
<!-- Node33 -->
<g id="Node000033" class="node">
<title>Node33</title>
<g id="a_Node000033"><a xlink:href="port__eu_8c.html#af361a20d2e08f30c53a237ca481ff734" target="_top" xlink:title=" ">
<polygon fill="white" stroke="#666666" points="1038,-48 945,-48 945,-29 1038,-29 1038,-48"/>
<text text-anchor="middle" x="991.5" y="-36" font-family="Helvetica,sans-Serif" font-size="10.00">func_800CBB48</text>
</a>
</g>
</g>
<!-- Node32&#45;&gt;Node33 -->
<g id="edge32_Node000032_Node000033" class="edge">
<title>Node32&#45;&gt;Node33</title>
<g id="a_edge32_Node000032_Node000033"><a xlink:title=" ">
<path fill="none" stroke="#63b8ff" d="M885.56,-38.5C900.96,-38.5 918.34,-38.5 934.46,-38.5"/>
<polygon fill="#63b8ff" stroke="#63b8ff" points="934.83,-42 944.83,-38.5 934.83,-35 934.83,-42"/>
</a>
</g>
</g>
<!-- Node34&#45;&gt;Node23 -->
<g id="edge34_Node000034_Node000023" class="edge">
<title>Node34&#45;&gt;Node23</title>
<g id="a_edge34_Node000034_Node000023"><a xlink:title=" ">
<path fill="none" stroke="#63b8ff" d="M592.56,-125.37C604.51,-126.16 617.63,-127.02 630.14,-127.85"/>
<polygon fill="#63b8ff" stroke="#63b8ff" points="630.26,-131.37 640.47,-128.53 630.72,-124.38 630.26,-131.37"/>
</a>
</g>
</g>
<!-- Node35&#45;&gt;Node28 -->
<g id="edge38_Node000035_Node000028" class="edge">
<title>Node35&#45;&gt;Node28</title>
<g id="a_edge38_Node000035_Node000028"><a xlink:title=" ">
<path fill="none" stroke="#63b8ff" d="M424.78,-55.91C470.51,-58.37 542.09,-62.55 604,-67.5 612.45,-68.18 621.39,-68.97 630.13,-69.79"/>
<polygon fill="#63b8ff" stroke="#63b8ff" points="629.97,-73.3 640.26,-70.77 630.64,-66.33 629.97,-73.3"/>
</a>
</g>
</g>
<!-- Node36 -->
<g id="Node000036" class="node">
<title>Node36</title>
<g id="a_Node000036"><a xlink:href="external_8c.html#aeb87c527482a244173df36a1f3d4f446" target="_top" xlink:title=" ">
<polygon fill="white" stroke="#666666" points="594,-19 502,-19 502,0 594,0 594,-19"/>
<text text-anchor="middle" x="548" y="-7" font-family="Helvetica,sans-Serif" font-size="10.00">func_800C21E8</text>
</a>
</g>
</g>
<!-- Node35&#45;&gt;Node36 -->
<g id="edge37_Node000035_Node000036" class="edge">
<title>Node35&#45;&gt;Node36</title>
<g id="a_edge37_Node000035_Node000036"><a xlink:title=" ">
<path fill="none" stroke="#63b8ff" d="M418.14,-43.96C430.32,-41 443.72,-37.68 456,-34.5 471.33,-30.53 488.07,-25.99 502.95,-21.88"/>
<polygon fill="#63b8ff" stroke="#63b8ff" points="504.22,-25.16 512.92,-19.11 502.35,-18.41 504.22,-25.16"/>
</a>
</g>
</g>
<!-- Node39 -->
<g id="Node000039" class="node">
<title>Node39</title>
<g id="a_Node000039"><a xlink:href="render__player_8c.html#a35eebbf671cc37666be29a2a9b6f3c8c" target="_top" xlink:title=" ">
<polygon fill="white" stroke="#666666" points="432,-26 322,-26 322,-7 432,-7 432,-26"/>
<text text-anchor="middle" x="377" y="-14" font-family="Helvetica,sans-Serif" font-size="10.00">move_f32_towards</text>
</a>
</g>
</g>
<!-- Node38&#45;&gt;Node39 -->
<g id="edge41_Node000038_Node000039" class="edge">
<title>Node38&#45;&gt;Node39</title>
<g id="a_edge41_Node000038_Node000039"><a xlink:title=" ">
<path fill="none" stroke="#63b8ff" d="M262.2,-24.7C278.35,-23.53 295.57,-22.29 311.61,-21.14"/>
<polygon fill="#63b8ff" stroke="#63b8ff" points="312.23,-24.6 321.95,-20.39 311.73,-17.62 312.23,-24.6"/>
</a>
</g>
</g>
</g>
</svg>

<g id="navigator" transform="translate(0 0)" fill="#404254">
  <rect fill="#f2f5e9" fill-opacity="0.5" stroke="#606060" stroke-width=".5" x="0" y="0" width="60" height="60"/>
  <use id="zoomplus" xlink:href="#zoomPlus" x="17" y="9" onmousedown="handleZoom(evt,'in')"/>
  <use id="zoomminus" xlink:href="#zoomMin" x="42" y="9" onmousedown="handleZoom(evt,'out')"/>
  <use id="reset" xlink:href="#resetDef" x="30" y="36" onmousedown="handleReset()"/>
   <use id="arrowup" xlink:href="#arrowUp" x="0" y="0" onmousedown="handlePan(0,-1)"/>
  <use id="arrowright" xlink:href="#arrowRight" x="0" y="0" onmousedown="handlePan(1,0)"/>
  <use id="arrowdown" xlink:href="#arrowDown" x="0" y="0" onmousedown="handlePan(0,1)"/>
  <use id="arrowleft" xlink:href="#arrowLeft" x="0" y="0" onmousedown="handlePan(-1,0)"/>
</g>
<svg viewBox="0 0 15 15" width="100%" height="30px" preserveAspectRatio="xMaxYMin meet">
 <g id="arrow_out" transform="scale(0.3 0.3)">
  <a xlink:href="effects_8h_ae2dfa7544a684fd6e9b0517978d3d523_cgraph_org.svg" target="_base">
   <rect id="button" ry="5" rx="5" y="6" x="6" height="38" width="38"
        fill="#f2f5e9" fill-opacity="0.5" stroke="#606060" stroke-width="1.0"/>
   <path id="arrow"
     d="M 11.500037,31.436501 C 11.940474,20.09759 22.043105,11.32322 32.158766,21.979434 L 37.068811,17.246167 C 37.068811,17.246167 37.088388,32 37.088388,32 L 22.160133,31.978069 C 22.160133,31.978069 26.997745,27.140456 26.997745,27.140456 C 18.528582,18.264221 13.291696,25.230495 11.500037,31.436501 z"
     style="fill:#404040;"/>
  </a>
 </g>
</svg>

<style type='text/css'>
<![CDATA[
[data-mouse-over-selected='false'] { opacity: 0.7; }
[data-mouse-over-selected='true']  { opacity: 1.0; }
]]>
</style>
<script type="application/ecmascript"><![CDATA[
document.addEventListener('DOMContentLoaded', (event) => {
  highlightEdges();
  highlightAdjacentNodes();
});
]]></script>
</svg>
