<?xml version="1.0" encoding="UTF-8" standalone="no"?>
<!DOCTYPE svg PUBLIC "-//W3C//DTD SVG 1.1//EN"
 "http://www.w3.org/Graphics/SVG/1.1/DTD/svg11.dtd">
<!-- Generated by graphviz version 2.43.0 (0)
 -->
<!-- Title: trigger_shroom Pages: 1 -->
<svg width="806pt" height="640pt"
 viewBox="0.00 0.00 806.00 640.00" xmlns="http://www.w3.org/2000/svg" xmlns:xlink="http://www.w3.org/1999/xlink">
<g id="graph0" class="graph" transform="scale(1 1) rotate(0) translate(4 636)">
<title>trigger_shroom</title>
<!-- Node1 -->
<g id="Node000001" class="node">
<title>Node1</title>
<g id="a_Node000001"><a xlink:title=" ">
<polygon fill="#999999" stroke="#666666" points="91,-57 0,-57 0,-38 91,-38 91,-57"/>
<text text-anchor="middle" x="45.5" y="-45" font-family="Helvetica,sans-Serif" font-size="10.00">trigger_shroom</text>
</a>
</g>
</g>
<!-- Node2 -->
<g id="Node000002" class="node">
<title>Node2</title>
<g id="a_Node000002"><a xlink:href="effects_8c.html#a6559cc02e5bb1a4e7fe6c97850cdd87e" target="_top" xlink:title=" ">
<polygon fill="white" stroke="#666666" points="211,-367 135,-367 135,-348 211,-348 211,-367"/>
<text text-anchor="middle" x="173" y="-355" font-family="Helvetica,sans-Serif" font-size="10.00">clean_effect</text>
</a>
</g>
</g>
<!-- Node1&#45;&gt;Node2 -->
<g id="edge1_Node000001_Node000002" class="edge">
<title>Node1&#45;&gt;Node2</title>
<g id="a_edge1_Node000001_Node000002"><a xlink:title=" ">
<path fill="none" stroke="#63b8ff" d="M50.39,-57.12C68,-100.6 140.33,-279.28 164.27,-338.41"/>
<polygon fill="#63b8ff" stroke="#63b8ff" points="161.15,-340.04 168.15,-347.99 167.64,-337.41 161.15,-340.04"/>
</a>
</g>
</g>
<!-- Node11 -->
<g id="Node000011" class="node">
<title>Node11</title>
<g id="a_Node000011"><a xlink:href="external_8c.html#a2be9efc97a92e19d02aaee90d676acc1" target="_top" xlink:title=" ">
<polygon fill="white" stroke="#666666" points="689.5,-57 597.5,-57 597.5,-38 689.5,-38 689.5,-57"/>
<text text-anchor="middle" x="643.5" y="-45" font-family="Helvetica,sans-Serif" font-size="10.00">func_800C9060</text>
</a>
</g>
</g>
<!-- Node1&#45;&gt;Node11 -->
<g id="edge20_Node000001_Node000011" class="edge">
<title>Node1&#45;&gt;Node11</title>
<g id="a_edge20_Node000001_Node000011"><a xlink:title=" ">
<path fill="none" stroke="#63b8ff" d="M91.3,-47.5C198.51,-47.5 469.67,-47.5 586.99,-47.5"/>
<polygon fill="#63b8ff" stroke="#63b8ff" points="587.18,-51 597.18,-47.5 587.18,-44 587.18,-51"/>
</a>
</g>
</g>
<!-- Node21 -->
<g id="Node000021" class="node">
<title>Node21</title>
<g id="a_Node000021"><a xlink:href="external_8c.html#aaaeb695e16103d46b9a5ecfcb6a5f08f" target="_top" xlink:title=" ">
<polygon fill="white" stroke="#666666" points="219,-19 127,-19 127,0 219,0 219,-19"/>
<text text-anchor="middle" x="173" y="-7" font-family="Helvetica,sans-Serif" font-size="10.00">func_800C9250</text>
</a>
</g>
</g>
<!-- Node1&#45;&gt;Node21 -->
<g id="edge21_Node000001_Node000021" class="edge">
<title>Node1&#45;&gt;Node21</title>
<g id="a_edge21_Node000001_Node000021"><a xlink:title=" ">
<path fill="none" stroke="#63b8ff" d="M78.17,-37.91C94.07,-33.1 113.54,-27.2 130.61,-22.03"/>
<polygon fill="#63b8ff" stroke="#63b8ff" points="131.78,-25.33 140.34,-19.09 129.76,-18.63 131.78,-25.33"/>
</a>
</g>
</g>
<!-- Node3 -->
<g id="Node000003" class="node">
<title>Node3</title>
<g id="a_Node000003"><a xlink:href="effects_8c.html#a7fef1af5ca366a9346478d94239c6142" target="_top" xlink:title=" ">
<polygon fill="white" stroke="#666666" points="380.5,-632 287.5,-632 287.5,-613 380.5,-613 380.5,-632"/>
<text text-anchor="middle" x="334" y="-620" font-family="Helvetica,sans-Serif" font-size="10.00">func_8008C6D0</text>
</a>
</g>
</g>
<!-- Node2&#45;&gt;Node3 -->
<g id="edge2_Node000002_Node000003" class="edge">
<title>Node2&#45;&gt;Node3</title>
<g id="a_edge2_Node000002_Node000003"><a xlink:title=" ">
<path fill="none" stroke="#63b8ff" d="M174.01,-367.06C174.6,-403.86 181.87,-537.68 255,-604.5 261.34,-610.29 269.17,-614.34 277.39,-617.14"/>
<polygon fill="#63b8ff" stroke="#63b8ff" points="276.59,-620.55 287.17,-619.9 278.49,-613.82 276.59,-620.55"/>
</a>
</g>
</g>
<!-- Node4 -->
<g id="Node000004" class="node">
<title>Node4</title>
<g id="a_Node000004"><a xlink:href="effects_8c.html#a5f19eaaa048055d292d02c717e635786" target="_top" xlink:title=" ">
<polygon fill="white" stroke="#666666" points="380,-595 288,-595 288,-576 380,-576 380,-595"/>
<text text-anchor="middle" x="334" y="-583" font-family="Helvetica,sans-Serif" font-size="10.00">func_8008D760</text>
</a>
</g>
</g>
<!-- Node2&#45;&gt;Node4 -->
<g id="edge3_Node000002_Node000004" class="edge">
<title>Node2&#45;&gt;Node4</title>
<g id="a_edge3_Node000002_Node000004"><a xlink:title=" ">
<path fill="none" stroke="#63b8ff" d="M174.65,-367.23C177.41,-400.71 191.25,-512.18 255,-567.5 261.56,-573.2 269.57,-577.18 277.93,-579.96"/>
<polygon fill="#63b8ff" stroke="#63b8ff" points="277.27,-583.4 287.84,-582.68 279.13,-576.66 277.27,-583.4"/>
</a>
</g>
</g>
<!-- Node5 -->
<g id="Node000005" class="node">
<title>Node5</title>
<g id="a_Node000005"><a xlink:href="effects_8c.html#a4ea2da0616ee3c475e4be217dc0bc71f" target="_top" xlink:title=" ">
<polygon fill="white" stroke="#666666" points="380.5,-558 287.5,-558 287.5,-539 380.5,-539 380.5,-558"/>
<text text-anchor="middle" x="334" y="-546" font-family="Helvetica,sans-Serif" font-size="10.00">func_8008D97C</text>
</a>
</g>
</g>
<!-- Node2&#45;&gt;Node5 -->
<g id="edge4_Node000002_Node000005" class="edge">
<title>Node2&#45;&gt;Node5</title>
<g id="a_edge4_Node000002_Node000005"><a xlink:title=" ">
<path fill="none" stroke="#63b8ff" d="M175.51,-367.16C180.66,-396.66 200.32,-486.3 255,-530.5 261.6,-535.84 269.5,-539.65 277.69,-542.37"/>
<polygon fill="#63b8ff" stroke="#63b8ff" points="276.81,-545.76 287.38,-545.08 278.69,-539.02 276.81,-545.76"/>
</a>
</g>
</g>
<!-- Node6 -->
<g id="Node000006" class="node">
<title>Node6</title>
<g id="a_Node000006"><a xlink:href="effects_8c.html#a13005f7c39388deade6ba0491d7c5918" target="_top" xlink:title=" ">
<polygon fill="white" stroke="#666666" points="379.5,-521 288.5,-521 288.5,-502 379.5,-502 379.5,-521"/>
<text text-anchor="middle" x="334" y="-509" font-family="Helvetica,sans-Serif" font-size="10.00">func_8008E884</text>
</a>
</g>
</g>
<!-- Node2&#45;&gt;Node6 -->
<g id="edge5_Node000002_Node000006" class="edge">
<title>Node2&#45;&gt;Node6</title>
<g id="a_edge5_Node000002_Node000006"><a xlink:title=" ">
<path fill="none" stroke="#63b8ff" d="M176.83,-367.22C184.68,-392.4 209.26,-460.14 255,-493.5 261.94,-498.56 270.08,-502.23 278.43,-504.88"/>
<polygon fill="#63b8ff" stroke="#63b8ff" points="277.7,-508.31 288.27,-507.55 279.53,-501.55 277.7,-508.31"/>
</a>
</g>
</g>
<!-- Node7 -->
<g id="Node000007" class="node">
<title>Node7</title>
<g id="a_Node000007"><a xlink:href="effects_8c.html#ae02351b6bbb678b552ec8864b47fc56c" target="_top" xlink:title=" ">
<polygon fill="white" stroke="#666666" points="379.5,-484 288.5,-484 288.5,-465 379.5,-465 379.5,-484"/>
<text text-anchor="middle" x="334" y="-472" font-family="Helvetica,sans-Serif" font-size="10.00">func_8008F3E0</text>
</a>
</g>
</g>
<!-- Node2&#45;&gt;Node7 -->
<g id="edge6_Node000002_Node000007" class="edge">
<title>Node2&#45;&gt;Node7</title>
<g id="a_edge6_Node000002_Node000007"><a xlink:title=" ">
<path fill="none" stroke="#63b8ff" d="M179,-367.17C189.91,-387.23 217.84,-433.41 255,-456.5 262.13,-460.93 270.23,-464.27 278.45,-466.79"/>
<polygon fill="#63b8ff" stroke="#63b8ff" points="277.55,-470.17 288.11,-469.39 279.36,-463.41 277.55,-470.17"/>
</a>
</g>
</g>
<!-- Node8 -->
<g id="Node000008" class="node">
<title>Node8</title>
<g id="a_Node000008"><a xlink:href="effects_8c.html#ab5125d5944958f891647b27b440d3d62" target="_top" xlink:title=" ">
<polygon fill="white" stroke="#666666" points="380,-447 288,-447 288,-428 380,-428 380,-447"/>
<text text-anchor="middle" x="334" y="-435" font-family="Helvetica,sans-Serif" font-size="10.00">func_8008F5A4</text>
</a>
</g>
</g>
<!-- Node2&#45;&gt;Node8 -->
<g id="edge7_Node000002_Node000008" class="edge">
<title>Node2&#45;&gt;Node8</title>
<g id="a_edge7_Node000002_Node000008"><a xlink:title=" ">
<path fill="none" stroke="#63b8ff" d="M183.55,-367.06C197.83,-380.79 226.16,-405.92 255,-419.5 262.16,-422.87 270,-425.63 277.85,-427.89"/>
<polygon fill="#63b8ff" stroke="#63b8ff" points="277.2,-431.34 287.76,-430.49 278.98,-424.57 277.2,-431.34"/>
</a>
</g>
</g>
<!-- Node13 -->
<g id="Node000013" class="node">
<title>Node13</title>
<g id="a_Node000013"><a xlink:href="effects_8c.html#a2f183005a5e85816dd81508847c1904d" target="_top" xlink:title=" ">
<polygon fill="white" stroke="#666666" points="380.5,-410 287.5,-410 287.5,-391 380.5,-391 380.5,-410"/>
<text text-anchor="middle" x="334" y="-398" font-family="Helvetica,sans-Serif" font-size="10.00">func_8008FEDC</text>
</a>
</g>
</g>
<!-- Node2&#45;&gt;Node13 -->
<g id="edge12_Node000002_Node000013" class="edge">
<title>Node2&#45;&gt;Node13</title>
<g id="a_edge12_Node000002_Node000013"><a xlink:title=" ">
<path fill="none" stroke="#63b8ff" d="M205.05,-367.09C220.09,-371.63 238.43,-377.03 255,-381.5 263.8,-383.87 273.18,-386.27 282.29,-388.53"/>
<polygon fill="#63b8ff" stroke="#63b8ff" points="281.47,-391.93 292.02,-390.92 283.14,-385.14 281.47,-391.93"/>
</a>
</g>
</g>
<!-- Node14 -->
<g id="Node000014" class="node">
<title>Node14</title>
<g id="a_Node000014"><a xlink:href="effects_8c.html#acbb1f27649a63227fcf0dd1f17dfa096" target="_top" xlink:title=" ">
<polygon fill="white" stroke="#666666" points="395,-372.5 273,-372.5 273,-342.5 395,-342.5 395,-372.5"/>
<text text-anchor="start" x="281" y="-360.5" font-family="Helvetica,sans-Serif" font-size="10.00">remove_banana_near</text>
<text text-anchor="middle" x="334" y="-349.5" font-family="Helvetica,sans-Serif" font-size="10.00">_spinout_effect</text>
</a>
</g>
</g>
<!-- Node2&#45;&gt;Node14 -->
<g id="edge13_Node000002_Node000014" class="edge">
<title>Node2&#45;&gt;Node14</title>
<g id="a_edge13_Node000002_Node000014"><a xlink:title=" ">
<path fill="none" stroke="#63b8ff" d="M211.28,-357.5C226.62,-357.5 244.93,-357.5 262.62,-357.5"/>
<polygon fill="#63b8ff" stroke="#63b8ff" points="262.94,-361 272.94,-357.5 262.94,-354 262.94,-361"/>
</a>
</g>
</g>
<!-- Node15 -->
<g id="Node000015" class="node">
<title>Node15</title>
<g id="a_Node000015"><a xlink:href="effects_8c.html#a4768d56263e476d3bac47ee01bac3dc8" target="_top" xlink:title=" ">
<polygon fill="white" stroke="#666666" points="413,-324.5 255,-324.5 255,-294.5 413,-294.5 413,-324.5"/>
<text text-anchor="start" x="263" y="-312.5" font-family="Helvetica,sans-Serif" font-size="10.00">remove_boost_ramp_asphalt</text>
<text text-anchor="middle" x="334" y="-301.5" font-family="Helvetica,sans-Serif" font-size="10.00">_effect</text>
</a>
</g>
</g>
<!-- Node2&#45;&gt;Node15 -->
<g id="edge14_Node000002_Node000015" class="edge">
<title>Node2&#45;&gt;Node15</title>
<g id="a_edge14_Node000002_Node000015"><a xlink:title=" ">
<path fill="none" stroke="#63b8ff" d="M205.79,-347.9C225.14,-342.06 250.47,-334.41 273.43,-327.48"/>
<polygon fill="#63b8ff" stroke="#63b8ff" points="274.54,-330.8 283.1,-324.56 272.52,-324.1 274.54,-330.8"/>
</a>
</g>
</g>
<!-- Node16 -->
<g id="Node000016" class="node">
<title>Node16</title>
<g id="a_Node000016"><a xlink:href="effects_8c.html#aafe14c45e9b91bb1d409ef2f2bfe5c53" target="_top" xlink:title=" ">
<polygon fill="white" stroke="#666666" points="408.5,-276.5 259.5,-276.5 259.5,-246.5 408.5,-246.5 408.5,-276.5"/>
<text text-anchor="start" x="267.5" y="-264.5" font-family="Helvetica,sans-Serif" font-size="10.00">remove_boost_ramp_wood</text>
<text text-anchor="middle" x="334" y="-253.5" font-family="Helvetica,sans-Serif" font-size="10.00">_effect</text>
</a>
</g>
</g>
<!-- Node2&#45;&gt;Node16 -->
<g id="edge15_Node000002_Node000016" class="edge">
<title>Node2&#45;&gt;Node16</title>
<g id="a_edge15_Node000002_Node000016"><a xlink:title=" ">
<path fill="none" stroke="#63b8ff" d="M182.46,-347.65C196.18,-332.25 224.83,-302.48 255,-285.5 258.21,-283.69 261.58,-282 265.04,-280.43"/>
<polygon fill="#63b8ff" stroke="#63b8ff" points="266.48,-283.62 274.35,-276.52 263.77,-277.16 266.48,-283.62"/>
</a>
</g>
</g>
<!-- Node17 -->
<g id="Node000017" class="node">
<title>Node17</title>
<g id="a_Node000017"><a xlink:href="effects_8c.html#a9ff5c732ea8ba59908ccf62ff441e7e4" target="_top" xlink:title=" ">
<polygon fill="white" stroke="#666666" points="394,-228.5 274,-228.5 274,-198.5 394,-198.5 394,-228.5"/>
<text text-anchor="start" x="282" y="-216.5" font-family="Helvetica,sans-Serif" font-size="10.00">remove_driving_near</text>
<text text-anchor="middle" x="334" y="-205.5" font-family="Helvetica,sans-Serif" font-size="10.00">_spinout_effect</text>
</a>
</g>
</g>
<!-- Node2&#45;&gt;Node17 -->
<g id="edge16_Node000002_Node000017" class="edge">
<title>Node2&#45;&gt;Node17</title>
<g id="a_edge16_Node000002_Node000017"><a xlink:title=" ">
<path fill="none" stroke="#63b8ff" d="M177.85,-347.77C187.36,-324.97 214.21,-267.73 255,-237.5 258.02,-235.26 261.26,-233.23 264.63,-231.38"/>
<polygon fill="#63b8ff" stroke="#63b8ff" points="266.35,-234.43 273.82,-226.92 263.3,-228.14 266.35,-234.43"/>
</a>
</g>
</g>
<!-- Node18 -->
<g id="Node000018" class="node">
<title>Node18</title>
<g id="a_Node000018"><a xlink:href="effects_8c.html#a5f1aead641683fd07375d6737dfafac2" target="_top" xlink:title=" ">
<polygon fill="white" stroke="#666666" points="390.5,-180.5 277.5,-180.5 277.5,-150.5 390.5,-150.5 390.5,-180.5"/>
<text text-anchor="start" x="285.5" y="-168.5" font-family="Helvetica,sans-Serif" font-size="10.00">remove_hit_by_star</text>
<text text-anchor="middle" x="334" y="-157.5" font-family="Helvetica,sans-Serif" font-size="10.00">_effect</text>
</a>
</g>
</g>
<!-- Node2&#45;&gt;Node18 -->
<g id="edge17_Node000002_Node000018" class="edge">
<title>Node2&#45;&gt;Node18</title>
<g id="a_edge17_Node000002_Node000018"><a xlink:title=" ">
<path fill="none" stroke="#63b8ff" d="M175.83,-347.88C181.76,-319.29 203.19,-234.04 255,-189.5 258.93,-186.12 263.33,-183.22 267.98,-180.73"/>
<polygon fill="#63b8ff" stroke="#63b8ff" points="269.61,-183.83 277.18,-176.42 266.64,-177.49 269.61,-183.83"/>
</a>
</g>
</g>
<!-- Node19 -->
<g id="Node000019" class="node">
<title>Node19</title>
<g id="a_Node000019"><a xlink:href="effects_8c.html#a9be2cc0ebbe72a9d5276a4fd2675eef3" target="_top" xlink:title=" ">
<polygon fill="white" stroke="#666666" points="406.5,-132 261.5,-132 261.5,-113 406.5,-113 406.5,-132"/>
<text text-anchor="middle" x="334" y="-120" font-family="Helvetica,sans-Serif" font-size="10.00">remove_mushroom_effect</text>
</a>
</g>
</g>
<!-- Node2&#45;&gt;Node19 -->
<g id="edge18_Node000002_Node000019" class="edge">
<title>Node2&#45;&gt;Node19</title>
<g id="a_edge18_Node000002_Node000019"><a xlink:title=" ">
<path fill="none" stroke="#63b8ff" d="M174.57,-347.53C177.11,-313.21 190.28,-198.9 255,-141.5 256.74,-139.96 258.58,-138.54 260.5,-137.23"/>
<polygon fill="#63b8ff" stroke="#63b8ff" points="262.44,-140.15 269.41,-132.17 258.98,-134.07 262.44,-140.15"/>
</a>
</g>
</g>
<!-- Node20 -->
<g id="Node000020" class="node">
<title>Node20</title>
<g id="a_Node000020"><a xlink:href="effects_8c.html#a85a7ba2f2c97859b0090c54a68e8f003" target="_top" xlink:title=" ">
<polygon fill="white" stroke="#666666" points="401,-95 267,-95 267,-76 401,-76 401,-95"/>
<text text-anchor="middle" x="334" y="-83" font-family="Helvetica,sans-Serif" font-size="10.00">remove_spinout_effects</text>
</a>
</g>
</g>
<!-- Node2&#45;&gt;Node20 -->
<g id="edge19_Node000002_Node000020" class="edge">
<title>Node2&#45;&gt;Node20</title>
<g id="a_edge19_Node000002_Node000020"><a xlink:title=" ">
<path fill="none" stroke="#63b8ff" d="M173.95,-347.75C174.33,-310.17 180.93,-173.5 255,-104.5 256.53,-103.08 258.15,-101.75 259.84,-100.52"/>
<polygon fill="#63b8ff" stroke="#63b8ff" points="262.05,-103.28 268.83,-95.14 258.45,-97.27 262.05,-103.28"/>
</a>
</g>
</g>
<!-- Node9 -->
<g id="Node000009" class="node">
<title>Node9</title>
<g id="a_Node000009"><a xlink:href="code__80057C60_8c.html#ae28b6eb556910087cea23f0cb7a322bd" target="_top" xlink:title=" ">
<polygon fill="white" stroke="#666666" points="561,-271 449,-271 449,-252 561,-252 561,-271"/>
<text text-anchor="middle" x="505" y="-259" font-family="Helvetica,sans-Serif" font-size="10.00">pop_player_balloon</text>
</a>
</g>
</g>
<!-- Node8&#45;&gt;Node9 -->
<g id="edge8_Node000008_Node000009" class="edge">
<title>Node8&#45;&gt;Node9</title>
<g id="a_edge8_Node000008_Node000009"><a xlink:title=" ">
<path fill="none" stroke="#63b8ff" d="M380.21,-433.55C391.72,-430.88 403.51,-426.53 413,-419.5 461.2,-383.8 487.9,-314.38 498.53,-280.72"/>
<polygon fill="#63b8ff" stroke="#63b8ff" points="501.88,-281.72 501.42,-271.14 495.18,-279.7 501.88,-281.72"/>
</a>
</g>
</g>
<!-- Node10 -->
<g id="Node000010" class="node">
<title>Node10</title>
<g id="a_Node000010"><a xlink:href="effects_8c.html#a1c7552c4a370cc015c2726e40f1fdb06" target="_top" xlink:title=" ">
<polygon fill="white" stroke="#666666" points="690,-271 597,-271 597,-252 690,-252 690,-271"/>
<text text-anchor="middle" x="643.5" y="-259" font-family="Helvetica,sans-Serif" font-size="10.00">func_8008FD4C</text>
</a>
</g>
</g>
<!-- Node9&#45;&gt;Node10 -->
<g id="edge9_Node000009_Node000010" class="edge">
<title>Node9&#45;&gt;Node10</title>
<g id="a_edge9_Node000009_Node000010"><a xlink:title=" ">
<path fill="none" stroke="#63b8ff" d="M561.13,-261.5C569.54,-261.5 578.24,-261.5 586.67,-261.5"/>
<polygon fill="#63b8ff" stroke="#63b8ff" points="586.79,-265 596.79,-261.5 586.79,-258 586.79,-265"/>
</a>
</g>
</g>
<!-- Node9&#45;&gt;Node11 -->
<g id="edge10_Node000009_Node000011" class="edge">
<title>Node9&#45;&gt;Node11</title>
<g id="a_edge10_Node000009_Node000011"><a xlink:title=" ">
<path fill="none" stroke="#63b8ff" d="M512.22,-251.75C533.4,-218.54 602.97,-109.47 630.82,-65.81"/>
<polygon fill="#63b8ff" stroke="#63b8ff" points="633.82,-67.62 636.24,-57.31 627.92,-63.86 633.82,-67.62"/>
</a>
</g>
</g>
<!-- Node12 -->
<g id="Node000012" class="node">
<title>Node12</title>
<g id="a_Node000012"><a xlink:href="external_8c.html#a475cff796211891556f52877cd8e9b9e" target="_top" xlink:title=" ">
<polygon fill="white" stroke="#666666" points="798,-38 726,-38 726,-19 798,-19 798,-38"/>
<text text-anchor="middle" x="762" y="-26" font-family="Helvetica,sans-Serif" font-size="10.00">play_sound</text>
</a>
</g>
</g>
<!-- Node11&#45;&gt;Node12 -->
<g id="edge11_Node000011_Node000012" class="edge">
<title>Node11&#45;&gt;Node12</title>
<g id="a_edge11_Node000011_Node000012"><a xlink:title=" ">
<path fill="none" stroke="#63b8ff" d="M689.54,-40.15C698.19,-38.74 707.26,-37.27 715.91,-35.85"/>
<polygon fill="#63b8ff" stroke="#63b8ff" points="716.53,-39.3 725.83,-34.24 715.4,-32.39 716.53,-39.3"/>
</a>
</g>
</g>
<!-- Node22 -->
<g id="Node000022" class="node">
<title>Node22</title>
<g id="a_Node000022"><a xlink:href="external_8c.html#a337fc3ab94ebb3293a85908229303ac8" target="_top" xlink:title=" ">
<polygon fill="white" stroke="#666666" points="551,-19 459,-19 459,0 551,0 551,-19"/>
<text text-anchor="middle" x="505" y="-7" font-family="Helvetica,sans-Serif" font-size="10.00">func_800C90F4</text>
</a>
</g>
</g>
<!-- Node21&#45;&gt;Node22 -->
<g id="edge22_Node000021_Node000022" class="edge">
<title>Node21&#45;&gt;Node22</title>
<g id="a_edge22_Node000021_Node000022"><a xlink:title=" ">
<path fill="none" stroke="#63b8ff" d="M219.19,-9.5C278.89,-9.5 383.97,-9.5 448.45,-9.5"/>
<polygon fill="#63b8ff" stroke="#63b8ff" points="448.82,-13 458.82,-9.5 448.82,-6 448.82,-13"/>
</a>
</g>
</g>
<!-- Node22&#45;&gt;Node12 -->
<g id="edge23_Node000022_Node000012" class="edge">
<title>Node22&#45;&gt;Node12</title>
<g id="a_edge23_Node000022_Node000012"><a xlink:title=" ">
<path fill="none" stroke="#63b8ff" d="M551,-12.85C597.39,-16.31 669.32,-21.67 715.79,-25.13"/>
<polygon fill="#63b8ff" stroke="#63b8ff" points="715.64,-28.63 725.87,-25.88 716.16,-21.65 715.64,-28.63"/>
</a>
</g>
</g>
</g>
</svg>
