<?xml version="1.0" encoding="UTF-8" standalone="no"?>
<!DOCTYPE svg PUBLIC "-//W3C//DTD SVG 1.1//EN"
 "http://www.w3.org/Graphics/SVG/1.1/DTD/svg11.dtd">
<!-- Generated by graphviz version 2.43.0 (0)
 -->
<!-- Title: func_8008F104 Pages: 1 -->
<svg width="790pt" height="594pt"
 viewBox="0.00 0.00 790.00 594.33" xmlns="http://www.w3.org/2000/svg" xmlns:xlink="http://www.w3.org/1999/xlink">
<g id="graph0" class="graph" transform="scale(1 1) rotate(0) translate(4 590.33)">
<title>func_8008F104</title>
<!-- Node1 -->
<g id="Node000001" class="node">
<title>Node1</title>
<g id="a_Node000001"><a xlink:title=" ">
<polygon fill="#999999" stroke="#666666" points="91,-166.33 0,-166.33 0,-147.33 91,-147.33 91,-166.33"/>
<text text-anchor="middle" x="45.5" y="-154.33" font-family="Helvetica,sans-Serif" font-size="10.00">func_8008F104</text>
</a>
</g>
</g>
<!-- Node2 -->
<g id="Node000002" class="node">
<title>Node2</title>
<g id="a_Node000002"><a xlink:href="effects_8c.html#a6559cc02e5bb1a4e7fe6c97850cdd87e" target="_top" xlink:title=" ">
<polygon fill="white" stroke="#666666" points="203,-321.33 127,-321.33 127,-302.33 203,-302.33 203,-321.33"/>
<text text-anchor="middle" x="165" y="-309.33" font-family="Helvetica,sans-Serif" font-size="10.00">clean_effect</text>
</a>
</g>
</g>
<!-- Node1&#45;&gt;Node2 -->
<g id="edge1_Node000001_Node000002" class="edge">
<title>Node1&#45;&gt;Node2</title>
<g id="a_edge1_Node000001_Node000002"><a xlink:title=" ">
<path fill="none" stroke="#63b8ff" d="M53.85,-166.53C73.14,-191.97 125.43,-260.95 150.39,-293.88"/>
<polygon fill="#63b8ff" stroke="#63b8ff" points="147.82,-296.28 156.65,-302.14 153.4,-292.06 147.82,-296.28"/>
</a>
</g>
</g>
<!-- Node21 -->
<g id="Node000021" class="node">
<title>Node21</title>
<g id="a_Node000021"><a xlink:href="external_8c.html#a337fc3ab94ebb3293a85908229303ac8" target="_top" xlink:title=" ">
<polygon fill="white" stroke="#666666" points="535,-168.33 443,-168.33 443,-149.33 535,-149.33 535,-168.33"/>
<text text-anchor="middle" x="489" y="-156.33" font-family="Helvetica,sans-Serif" font-size="10.00">func_800C90F4</text>
</a>
</g>
</g>
<!-- Node1&#45;&gt;Node21 -->
<g id="edge20_Node000001_Node000021" class="edge">
<title>Node1&#45;&gt;Node21</title>
<g id="a_edge20_Node000001_Node000021"><a xlink:title=" ">
<path fill="none" stroke="#63b8ff" d="M55.71,-147C81.5,-120.27 157.88,-46.6 239,-20.83 305.93,0.43 335.17,12.46 397,-20.83 444.02,-46.15 470.76,-107.56 481.86,-139.23"/>
<polygon fill="#63b8ff" stroke="#63b8ff" points="478.66,-140.7 485.15,-149.08 485.3,-138.49 478.66,-140.7"/>
</a>
</g>
</g>
<!-- Node3 -->
<g id="Node000003" class="node">
<title>Node3</title>
<g id="a_Node000003"><a xlink:href="effects_8c.html#a7fef1af5ca366a9346478d94239c6142" target="_top" xlink:title=" ">
<polygon fill="white" stroke="#666666" points="364.5,-586.33 271.5,-586.33 271.5,-567.33 364.5,-567.33 364.5,-586.33"/>
<text text-anchor="middle" x="318" y="-574.33" font-family="Helvetica,sans-Serif" font-size="10.00">func_8008C6D0</text>
</a>
</g>
</g>
<!-- Node2&#45;&gt;Node3 -->
<g id="edge2_Node000002_Node000003" class="edge">
<title>Node2&#45;&gt;Node3</title>
<g id="a_edge2_Node000002_Node000003"><a xlink:title=" ">
<path fill="none" stroke="#63b8ff" d="M165.67,-321.36C164.95,-358.06 167.53,-491.56 239,-558.83 245.33,-564.79 253.22,-568.91 261.53,-571.73"/>
<polygon fill="#63b8ff" stroke="#63b8ff" points="260.84,-575.18 271.41,-574.49 262.72,-568.43 260.84,-575.18"/>
</a>
</g>
</g>
<!-- Node4 -->
<g id="Node000004" class="node">
<title>Node4</title>
<g id="a_Node000004"><a xlink:href="effects_8c.html#a5f19eaaa048055d292d02c717e635786" target="_top" xlink:title=" ">
<polygon fill="white" stroke="#666666" points="364,-549.33 272,-549.33 272,-530.33 364,-530.33 364,-549.33"/>
<text text-anchor="middle" x="318" y="-537.33" font-family="Helvetica,sans-Serif" font-size="10.00">func_8008D760</text>
</a>
</g>
</g>
<!-- Node2&#45;&gt;Node4 -->
<g id="edge3_Node000002_Node000004" class="edge">
<title>Node2&#45;&gt;Node4</title>
<g id="a_edge3_Node000002_Node000004"><a xlink:title=" ">
<path fill="none" stroke="#63b8ff" d="M166.25,-321.53C167.64,-354.93 176.96,-466.14 239,-521.83 245.47,-527.64 253.43,-531.68 261.77,-534.48"/>
<polygon fill="#63b8ff" stroke="#63b8ff" points="261.09,-537.92 271.67,-537.21 262.96,-531.17 261.09,-537.92"/>
</a>
</g>
</g>
<!-- Node5 -->
<g id="Node000005" class="node">
<title>Node5</title>
<g id="a_Node000005"><a xlink:href="effects_8c.html#a4ea2da0616ee3c475e4be217dc0bc71f" target="_top" xlink:title=" ">
<polygon fill="white" stroke="#666666" points="364.5,-512.33 271.5,-512.33 271.5,-493.33 364.5,-493.33 364.5,-512.33"/>
<text text-anchor="middle" x="318" y="-500.33" font-family="Helvetica,sans-Serif" font-size="10.00">func_8008D97C</text>
</a>
</g>
</g>
<!-- Node2&#45;&gt;Node5 -->
<g id="edge4_Node000002_Node000005" class="edge">
<title>Node2&#45;&gt;Node5</title>
<g id="a_edge4_Node000002_Node000005"><a xlink:title=" ">
<path fill="none" stroke="#63b8ff" d="M167.04,-321.46C170.75,-350.9 186.1,-440.35 239,-484.83 245.5,-490.3 253.34,-494.18 261.51,-496.92"/>
<polygon fill="#63b8ff" stroke="#63b8ff" points="260.62,-500.3 271.19,-499.64 262.51,-493.57 260.62,-500.3"/>
</a>
</g>
</g>
<!-- Node6 -->
<g id="Node000006" class="node">
<title>Node6</title>
<g id="a_Node000006"><a xlink:href="effects_8c.html#a13005f7c39388deade6ba0491d7c5918" target="_top" xlink:title=" ">
<polygon fill="white" stroke="#666666" points="363.5,-475.33 272.5,-475.33 272.5,-456.33 363.5,-456.33 363.5,-475.33"/>
<text text-anchor="middle" x="318" y="-463.33" font-family="Helvetica,sans-Serif" font-size="10.00">func_8008E884</text>
</a>
</g>
</g>
<!-- Node2&#45;&gt;Node6 -->
<g id="edge5_Node000002_Node000006" class="edge">
<title>Node2&#45;&gt;Node6</title>
<g id="a_edge5_Node000002_Node000006"><a xlink:title=" ">
<path fill="none" stroke="#63b8ff" d="M168.25,-321.53C174.6,-346.68 195.14,-414.31 239,-447.83 245.98,-453.17 254.27,-456.96 262.79,-459.66"/>
<polygon fill="#63b8ff" stroke="#63b8ff" points="261.9,-463.04 272.46,-462.25 263.71,-456.28 261.9,-463.04"/>
</a>
</g>
</g>
<!-- Node7 -->
<g id="Node000007" class="node">
<title>Node7</title>
<g id="a_Node000007"><a xlink:href="effects_8c.html#ae02351b6bbb678b552ec8864b47fc56c" target="_top" xlink:title=" ">
<polygon fill="white" stroke="#666666" points="363.5,-438.33 272.5,-438.33 272.5,-419.33 363.5,-419.33 363.5,-438.33"/>
<text text-anchor="middle" x="318" y="-426.33" font-family="Helvetica,sans-Serif" font-size="10.00">func_8008F3E0</text>
</a>
</g>
</g>
<!-- Node2&#45;&gt;Node7 -->
<g id="edge6_Node000002_Node000007" class="edge">
<title>Node2&#45;&gt;Node7</title>
<g id="a_edge6_Node000002_Node000007"><a xlink:title=" ">
<path fill="none" stroke="#63b8ff" d="M170.24,-321.5C179.56,-341.56 203.84,-387.74 239,-410.83 246.1,-415.49 254.25,-418.95 262.55,-421.52"/>
<polygon fill="#63b8ff" stroke="#63b8ff" points="261.74,-424.93 272.3,-424.15 263.56,-418.17 261.74,-424.93"/>
</a>
</g>
</g>
<!-- Node8 -->
<g id="Node000008" class="node">
<title>Node8</title>
<g id="a_Node000008"><a xlink:href="effects_8c.html#ab5125d5944958f891647b27b440d3d62" target="_top" xlink:title=" ">
<polygon fill="white" stroke="#666666" points="364,-401.33 272,-401.33 272,-382.33 364,-382.33 364,-401.33"/>
<text text-anchor="middle" x="318" y="-389.33" font-family="Helvetica,sans-Serif" font-size="10.00">func_8008F5A4</text>
</a>
</g>
</g>
<!-- Node2&#45;&gt;Node8 -->
<g id="edge7_Node000002_Node000008" class="edge">
<title>Node2&#45;&gt;Node8</title>
<g id="a_edge7_Node000002_Node000008"><a xlink:title=" ">
<path fill="none" stroke="#63b8ff" d="M174.41,-321.43C187.03,-335.2 212.25,-360.4 239,-373.83 246.24,-377.47 254.23,-380.38 262.25,-382.71"/>
<polygon fill="#63b8ff" stroke="#63b8ff" points="261.43,-386.12 272,-385.28 263.21,-379.35 261.43,-386.12"/>
</a>
</g>
</g>
<!-- Node13 -->
<g id="Node000013" class="node">
<title>Node13</title>
<g id="a_Node000013"><a xlink:href="effects_8c.html#a2f183005a5e85816dd81508847c1904d" target="_top" xlink:title=" ">
<polygon fill="white" stroke="#666666" points="364.5,-364.33 271.5,-364.33 271.5,-345.33 364.5,-345.33 364.5,-364.33"/>
<text text-anchor="middle" x="318" y="-352.33" font-family="Helvetica,sans-Serif" font-size="10.00">func_8008FEDC</text>
</a>
</g>
</g>
<!-- Node2&#45;&gt;Node13 -->
<g id="edge12_Node000002_Node000013" class="edge">
<title>Node2&#45;&gt;Node13</title>
<g id="a_edge12_Node000002_Node000013"><a xlink:title=" ">
<path fill="none" stroke="#63b8ff" d="M193.23,-321.35C206.89,-325.98 223.74,-331.47 239,-335.83 247.47,-338.25 256.51,-340.64 265.33,-342.85"/>
<polygon fill="#63b8ff" stroke="#63b8ff" points="264.6,-346.28 275.15,-345.28 266.28,-339.48 264.6,-346.28"/>
</a>
</g>
</g>
<!-- Node14 -->
<g id="Node000014" class="node">
<title>Node14</title>
<g id="a_Node000014"><a xlink:href="effects_8c.html#acbb1f27649a63227fcf0dd1f17dfa096" target="_top" xlink:title=" ">
<polygon fill="white" stroke="#666666" points="379,-326.83 257,-326.83 257,-296.83 379,-296.83 379,-326.83"/>
<text text-anchor="start" x="265" y="-314.83" font-family="Helvetica,sans-Serif" font-size="10.00">remove_banana_near</text>
<text text-anchor="middle" x="318" y="-303.83" font-family="Helvetica,sans-Serif" font-size="10.00">_spinout_effect</text>
</a>
</g>
</g>
<!-- Node2&#45;&gt;Node14 -->
<g id="edge13_Node000002_Node000014" class="edge">
<title>Node2&#45;&gt;Node14</title>
<g id="a_edge13_Node000002_Node000014"><a xlink:title=" ">
<path fill="none" stroke="#63b8ff" d="M203.33,-311.83C216.45,-311.83 231.67,-311.83 246.62,-311.83"/>
<polygon fill="#63b8ff" stroke="#63b8ff" points="246.9,-315.33 256.9,-311.83 246.9,-308.33 246.9,-315.33"/>
</a>
</g>
</g>
<!-- Node15 -->
<g id="Node000015" class="node">
<title>Node15</title>
<g id="a_Node000015"><a xlink:href="effects_8c.html#a4768d56263e476d3bac47ee01bac3dc8" target="_top" xlink:title=" ">
<polygon fill="white" stroke="#666666" points="397,-278.83 239,-278.83 239,-248.83 397,-248.83 397,-278.83"/>
<text text-anchor="start" x="247" y="-266.83" font-family="Helvetica,sans-Serif" font-size="10.00">remove_boost_ramp_asphalt</text>
<text text-anchor="middle" x="318" y="-255.83" font-family="Helvetica,sans-Serif" font-size="10.00">_effect</text>
</a>
</g>
</g>
<!-- Node2&#45;&gt;Node15 -->
<g id="edge14_Node000002_Node000015" class="edge">
<title>Node2&#45;&gt;Node15</title>
<g id="a_edge14_Node000002_Node000015"><a xlink:title=" ">
<path fill="none" stroke="#63b8ff" d="M194.74,-302.24C208.16,-297.8 224.38,-292.48 239,-287.83 245.02,-285.91 251.32,-283.94 257.61,-281.98"/>
<polygon fill="#63b8ff" stroke="#63b8ff" points="258.93,-285.23 267.44,-278.92 256.85,-278.55 258.93,-285.23"/>
</a>
</g>
</g>
<!-- Node16 -->
<g id="Node000016" class="node">
<title>Node16</title>
<g id="a_Node000016"><a xlink:href="effects_8c.html#aafe14c45e9b91bb1d409ef2f2bfe5c53" target="_top" xlink:title=" ">
<polygon fill="white" stroke="#666666" points="392.5,-230.83 243.5,-230.83 243.5,-200.83 392.5,-200.83 392.5,-230.83"/>
<text text-anchor="start" x="251.5" y="-218.83" font-family="Helvetica,sans-Serif" font-size="10.00">remove_boost_ramp_wood</text>
<text text-anchor="middle" x="318" y="-207.83" font-family="Helvetica,sans-Serif" font-size="10.00">_effect</text>
</a>
</g>
</g>
<!-- Node2&#45;&gt;Node16 -->
<g id="edge15_Node000002_Node000016" class="edge">
<title>Node2&#45;&gt;Node16</title>
<g id="a_edge15_Node000002_Node000016"><a xlink:title=" ">
<path fill="none" stroke="#63b8ff" d="M173.4,-301.94C185.47,-286.48 210.88,-256.63 239,-239.83 241.86,-238.12 244.85,-236.53 247.92,-235.04"/>
<polygon fill="#63b8ff" stroke="#63b8ff" points="249.62,-238.11 257.35,-230.87 246.79,-231.71 249.62,-238.11"/>
</a>
</g>
</g>
<!-- Node17 -->
<g id="Node000017" class="node">
<title>Node17</title>
<g id="a_Node000017"><a xlink:href="effects_8c.html#a9ff5c732ea8ba59908ccf62ff441e7e4" target="_top" xlink:title=" ">
<polygon fill="white" stroke="#666666" points="378,-182.83 258,-182.83 258,-152.83 378,-152.83 378,-182.83"/>
<text text-anchor="start" x="266" y="-170.83" font-family="Helvetica,sans-Serif" font-size="10.00">remove_driving_near</text>
<text text-anchor="middle" x="318" y="-159.83" font-family="Helvetica,sans-Serif" font-size="10.00">_spinout_effect</text>
</a>
</g>
</g>
<!-- Node2&#45;&gt;Node17 -->
<g id="edge16_Node000002_Node000017" class="edge">
<title>Node2&#45;&gt;Node17</title>
<g id="a_edge16_Node000002_Node000017"><a xlink:title=" ">
<path fill="none" stroke="#63b8ff" d="M169.19,-302.1C177.15,-279.31 200.13,-222.09 239,-191.83 241.97,-189.52 245.16,-187.43 248.5,-185.54"/>
<polygon fill="#63b8ff" stroke="#63b8ff" points="250.24,-188.59 257.62,-180.99 247.11,-182.32 250.24,-188.59"/>
</a>
</g>
</g>
<!-- Node18 -->
<g id="Node000018" class="node">
<title>Node18</title>
<g id="a_Node000018"><a xlink:href="effects_8c.html#a5f1aead641683fd07375d6737dfafac2" target="_top" xlink:title=" ">
<polygon fill="white" stroke="#666666" points="374.5,-134.83 261.5,-134.83 261.5,-104.83 374.5,-104.83 374.5,-134.83"/>
<text text-anchor="start" x="269.5" y="-122.83" font-family="Helvetica,sans-Serif" font-size="10.00">remove_hit_by_star</text>
<text text-anchor="middle" x="318" y="-111.83" font-family="Helvetica,sans-Serif" font-size="10.00">_effect</text>
</a>
</g>
</g>
<!-- Node2&#45;&gt;Node18 -->
<g id="edge17_Node000002_Node000018" class="edge">
<title>Node2&#45;&gt;Node18</title>
<g id="a_edge17_Node000002_Node000018"><a xlink:title=" ">
<path fill="none" stroke="#63b8ff" d="M167.34,-302.23C171.82,-273.69 188.98,-188.56 239,-143.83 242.93,-140.32 247.36,-137.32 252.06,-134.76"/>
<polygon fill="#63b8ff" stroke="#63b8ff" points="253.84,-137.8 261.39,-130.36 250.85,-131.47 253.84,-137.8"/>
</a>
</g>
</g>
<!-- Node19 -->
<g id="Node000019" class="node">
<title>Node19</title>
<g id="a_Node000019"><a xlink:href="effects_8c.html#a9be2cc0ebbe72a9d5276a4fd2675eef3" target="_top" xlink:title=" ">
<polygon fill="white" stroke="#666666" points="390.5,-86.33 245.5,-86.33 245.5,-67.33 390.5,-67.33 390.5,-86.33"/>
<text text-anchor="middle" x="318" y="-74.33" font-family="Helvetica,sans-Serif" font-size="10.00">remove_mushroom_effect</text>
</a>
</g>
</g>
<!-- Node2&#45;&gt;Node19 -->
<g id="edge18_Node000002_Node000019" class="edge">
<title>Node2&#45;&gt;Node19</title>
<g id="a_edge18_Node000002_Node000019"><a xlink:title=" ">
<path fill="none" stroke="#63b8ff" d="M166.17,-301.89C167.33,-267.66 175.97,-153.6 239,-95.83 240.71,-94.26 242.53,-92.82 244.44,-91.49"/>
<polygon fill="#63b8ff" stroke="#63b8ff" points="246.38,-94.4 253.28,-86.36 242.87,-88.35 246.38,-94.4"/>
</a>
</g>
</g>
<!-- Node20 -->
<g id="Node000020" class="node">
<title>Node20</title>
<g id="a_Node000020"><a xlink:href="effects_8c.html#a85a7ba2f2c97859b0090c54a68e8f003" target="_top" xlink:title=" ">
<polygon fill="white" stroke="#666666" points="385,-49.33 251,-49.33 251,-30.33 385,-30.33 385,-49.33"/>
<text text-anchor="middle" x="318" y="-37.33" font-family="Helvetica,sans-Serif" font-size="10.00">remove_spinout_effects</text>
</a>
</g>
</g>
<!-- Node2&#45;&gt;Node20 -->
<g id="edge19_Node000002_Node000020" class="edge">
<title>Node2&#45;&gt;Node20</title>
<g id="a_edge19_Node000002_Node000020"><a xlink:title=" ">
<path fill="none" stroke="#63b8ff" d="M165.61,-302.1C164.68,-264.63 166.57,-128.28 239,-58.83 240.51,-57.38 242.11,-56.04 243.78,-54.8"/>
<polygon fill="#63b8ff" stroke="#63b8ff" points="246,-57.54 252.71,-49.34 242.35,-51.57 246,-57.54"/>
</a>
</g>
</g>
<!-- Node9 -->
<g id="Node000009" class="node">
<title>Node9</title>
<g id="a_Node000009"><a xlink:href="code__80057C60_8c.html#ae28b6eb556910087cea23f0cb7a322bd" target="_top" xlink:title=" ">
<polygon fill="white" stroke="#666666" points="545,-381.33 433,-381.33 433,-362.33 545,-362.33 545,-381.33"/>
<text text-anchor="middle" x="489" y="-369.33" font-family="Helvetica,sans-Serif" font-size="10.00">pop_player_balloon</text>
</a>
</g>
</g>
<!-- Node8&#45;&gt;Node9 -->
<g id="edge8_Node000008_Node000009" class="edge">
<title>Node8&#45;&gt;Node9</title>
<g id="a_edge8_Node000008_Node000009"><a xlink:title=" ">
<path fill="none" stroke="#63b8ff" d="M364.29,-386.47C382.27,-384.34 403.3,-381.85 422.87,-379.54"/>
<polygon fill="#63b8ff" stroke="#63b8ff" points="423.42,-383 432.94,-378.35 422.6,-376.05 423.42,-383"/>
</a>
</g>
</g>
<!-- Node10 -->
<g id="Node000010" class="node">
<title>Node10</title>
<g id="a_Node000010"><a xlink:href="effects_8c.html#a1c7552c4a370cc015c2726e40f1fdb06" target="_top" xlink:title=" ">
<polygon fill="white" stroke="#666666" points="674,-381.33 581,-381.33 581,-362.33 674,-362.33 674,-381.33"/>
<text text-anchor="middle" x="627.5" y="-369.33" font-family="Helvetica,sans-Serif" font-size="10.00">func_8008FD4C</text>
</a>
</g>
</g>
<!-- Node9&#45;&gt;Node10 -->
<g id="edge9_Node000009_Node000010" class="edge">
<title>Node9&#45;&gt;Node10</title>
<g id="a_edge9_Node000009_Node000010"><a xlink:title=" ">
<path fill="none" stroke="#63b8ff" d="M545.13,-371.83C553.54,-371.83 562.24,-371.83 570.67,-371.83"/>
<polygon fill="#63b8ff" stroke="#63b8ff" points="570.79,-375.33 580.79,-371.83 570.79,-368.33 570.79,-375.33"/>
</a>
</g>
</g>
<!-- Node11 -->
<g id="Node000011" class="node">
<title>Node11</title>
<g id="a_Node000011"><a xlink:href="external_8c.html#a2be9efc97a92e19d02aaee90d676acc1" target="_top" xlink:title=" ">
<polygon fill="white" stroke="#666666" points="673.5,-324.33 581.5,-324.33 581.5,-305.33 673.5,-305.33 673.5,-324.33"/>
<text text-anchor="middle" x="627.5" y="-312.33" font-family="Helvetica,sans-Serif" font-size="10.00">func_800C9060</text>
</a>
</g>
</g>
<!-- Node9&#45;&gt;Node11 -->
<g id="edge10_Node000009_Node000011" class="edge">
<title>Node9&#45;&gt;Node11</title>
<g id="a_edge10_Node000009_Node000011"><a xlink:title=" ">
<path fill="none" stroke="#63b8ff" d="M512.85,-362.29C535.09,-353 569.11,-338.8 594.14,-328.35"/>
<polygon fill="#63b8ff" stroke="#63b8ff" points="595.7,-331.49 603.58,-324.4 593,-325.03 595.7,-331.49"/>
</a>
</g>
</g>
<!-- Node12 -->
<g id="Node000012" class="node">
<title>Node12</title>
<g id="a_Node000012"><a xlink:href="external_8c.html#a475cff796211891556f52877cd8e9b9e" target="_top" xlink:title=" ">
<polygon fill="white" stroke="#666666" points="782,-266.33 710,-266.33 710,-247.33 782,-247.33 782,-266.33"/>
<text text-anchor="middle" x="746" y="-254.33" font-family="Helvetica,sans-Serif" font-size="10.00">play_sound</text>
</a>
</g>
</g>
<!-- Node11&#45;&gt;Node12 -->
<g id="edge11_Node000011_Node000012" class="edge">
<title>Node11&#45;&gt;Node12</title>
<g id="a_edge11_Node000011_Node000012"><a xlink:title=" ">
<path fill="none" stroke="#63b8ff" d="M647.74,-305.25C666.54,-295.89 695.38,-281.53 716.78,-270.88"/>
<polygon fill="#63b8ff" stroke="#63b8ff" points="718.34,-274.01 725.73,-266.42 715.22,-267.75 718.34,-274.01"/>
</a>
</g>
</g>
<!-- Node21&#45;&gt;Node12 -->
<g id="edge21_Node000021_Node000012" class="edge">
<title>Node21&#45;&gt;Node12</title>
<g id="a_edge21_Node000021_Node000012"><a xlink:title=" ">
<path fill="none" stroke="#63b8ff" d="M514.91,-168.41C560.71,-186.01 658.35,-223.53 710.5,-243.57"/>
<polygon fill="#63b8ff" stroke="#63b8ff" points="709.39,-246.9 719.98,-247.22 711.91,-240.36 709.39,-246.9"/>
</a>
</g>
</g>
</g>
</svg>
