<?xml version="1.0" encoding="UTF-8" standalone="no"?>
<!DOCTYPE svg PUBLIC "-//W3C//DTD SVG 1.1//EN"
 "http://www.w3.org/Graphics/SVG/1.1/DTD/svg11.dtd">
<!-- Generated by graphviz version 2.43.0 (0)
 -->
<!-- Title: trigger_star Pages: 1 -->
<!--zoomable 810 -->

<svg id="main" version="1.1" xmlns="http://www.w3.org/2000/svg" xmlns:xlink="http://www.w3.org/1999/xlink" xml:space="preserve" onload="init(evt)">
<style type="text/css"><![CDATA[
.node, .edge {opacity: 0.7;}
.node.selected, .edge.selected {opacity: 1;}
.edge:hover path { stroke: red; }
.edge:hover polygon { stroke: red; fill: red; }
]]></style>

<defs>
  <circle id="rim" cx="0" cy="0" r="7"/>
  <circle id="rim2" cx="0" cy="0" r="3.5"/>
  <g id="zoomPlus">
    <use xlink:href="#rim" fill="#404040"><set attributeName="fill" to="#808080" begin="zoomplus.mouseover" end="zoomplus.mouseout"/></use>
    <path d="M-4,0h8M0,-4v8" fill="none" stroke="white" stroke-width="1.5" pointer-events="none"/>
  </g>
  <g id="zoomMin">
    <use xlink:href="#rim" fill="#404040"><set attributeName="fill" to="#808080" begin="zoomminus.mouseover" end="zoomminus.mouseout"/></use>
    <path d="M-4,0h8" fill="none" stroke="white" stroke-width="1.5" pointer-events="none"/>
  </g>
  <g id="arrowUp" transform="translate(30 24)">
    <use xlink:href="#rim"/>
    <path pointer-events="none" fill="none" stroke="white" stroke-width="1.5" d="M0,-3.0v7 M-2.5,-0.5L0,-3.0L2.5,-0.5"/>
  </g>
  <g id="arrowRight" transform="rotate(90) translate(36 -43)">
    <use xlink:href="#rim"/>
    <path pointer-events="none" fill="none" stroke="white" stroke-width="1.5" d="M0,-3.0v7 M-2.5,-0.5L0,-3.0L2.5,-0.5"/>
  </g>
  <g id="arrowDown" transform="rotate(180) translate(-30 -48)">
    <use xlink:href="#rim"/>
    <path pointer-events="none" fill="none" stroke="white" stroke-width="1.5" d="M0,-3.0v7 M-2.5,-0.5L0,-3.0L2.5,-0.5"/>
  </g>
  <g id="arrowLeft" transform="rotate(270) translate(-36 17)">
    <use xlink:href="#rim"/>
    <path pointer-events="none" fill="none" stroke="white" stroke-width="1.5" d="M0,-3.0v7 M-2.5,-0.5L0,-3.0L2.5,-0.5"/>
  </g>
  <g id="resetDef">
    <use xlink:href="#rim2" fill="#404040"><set attributeName="fill" to="#808080" begin="reset.mouseover" end="reset.mouseout"/></use>
  </g>
</defs>
<script type="application/ecmascript">
var viewWidth = 810;
var viewHeight = 810;
var sectionId = 'dynsection-114';
</script>
<script type="application/ecmascript" xlink:href="svg.min.js"/>
<svg id="graph" class="graph">
<g id="viewport">
<title>trigger_star</title>
<!-- Node1 -->
<g id="Node000001" class="node">
<title>Node1</title>
<g id="a_Node000001"><a xlink:title=" ">
<polygon fill="#999999" stroke="#666666" points="73,-207.94 0,-207.94 0,-188.94 73,-188.94 73,-207.94"/>
<text text-anchor="middle" x="36.5" y="-195.94" font-family="Helvetica,sans-Serif" font-size="10.00">trigger_star</text>
</a>
</g>
</g>
<!-- Node2 -->
<g id="Node000002" class="node">
<title>Node2</title>
<g id="a_Node000002"><a xlink:href="effects_8c.html#a6559cc02e5bb1a4e7fe6c97850cdd87e" target="_top" xlink:title=" ">
<polygon fill="white" stroke="#666666" points="193,-531.94 117,-531.94 117,-512.94 193,-512.94 193,-531.94"/>
<text text-anchor="middle" x="155" y="-519.94" font-family="Helvetica,sans-Serif" font-size="10.00">clean_effect</text>
</a>
</g>
</g>
<!-- Node1&#45;&gt;Node2 -->
<g id="edge1_Node000001_Node000002" class="edge">
<title>Node1&#45;&gt;Node2</title>
<g id="a_edge1_Node000001_Node000002"><a xlink:title=" ">
<path fill="none" stroke="#63b8ff" d="M40.99,-208.14C57.17,-253.14 125.07,-441.98 147.08,-503.2"/>
<polygon fill="#63b8ff" stroke="#63b8ff" points="143.85,-504.56 150.53,-512.78 150.44,-502.19 143.85,-504.56"/>
</a>
</g>
</g>
<!-- Node21 -->
<g id="Node000021" class="node">
<title>Node21</title>
<g id="a_Node000021"><a xlink:href="external_8c.html#aac0d64d382e8e46860f0f987899ecdf0" target="_top" xlink:title=" ">
<polygon fill="white" stroke="#666666" points="533.5,-113.94 440.5,-113.94 440.5,-94.94 533.5,-94.94 533.5,-113.94"/>
<text text-anchor="middle" x="487" y="-101.94" font-family="Helvetica,sans-Serif" font-size="10.00">func_800CA59C</text>
</a>
</g>
</g>
<!-- Node1&#45;&gt;Node21 -->
<g id="edge20_Node000001_Node000021" class="edge">
<title>Node1&#45;&gt;Node21</title>
<g id="a_edge20_Node000001_Node000021"><a xlink:title=" ">
<path fill="none" stroke="#63b8ff" d="M73.06,-189.13C84.51,-186.23 97.26,-183.1 109,-180.44 222.66,-154.7 356.58,-128.73 430.3,-114.81"/>
<polygon fill="#63b8ff" stroke="#63b8ff" points="431.12,-118.22 440.3,-112.93 429.82,-111.34 431.12,-118.22"/>
</a>
</g>
</g>
<!-- Node27 -->
<g id="Node000027" class="node">
<title>Node27</title>
<g id="a_Node000027"><a xlink:href="external_8c.html#ab92177bc050a79cbe5268efc1219fb3d" target="_top" xlink:title=" ">
<polygon fill="white" stroke="#666666" points="201,-207.94 109,-207.94 109,-188.94 201,-188.94 201,-207.94"/>
<text text-anchor="middle" x="155" y="-195.94" font-family="Helvetica,sans-Serif" font-size="10.00">func_800CA984</text>
</a>
</g>
</g>
<!-- Node1&#45;&gt;Node27 -->
<g id="edge29_Node000001_Node000027" class="edge">
<title>Node1&#45;&gt;Node27</title>
<g id="a_edge29_Node000001_Node000027"><a xlink:title=" ">
<path fill="none" stroke="#63b8ff" d="M73.09,-198.44C81.17,-198.44 89.94,-198.44 98.62,-198.44"/>
<polygon fill="#63b8ff" stroke="#63b8ff" points="98.73,-201.94 108.73,-198.44 98.73,-194.94 98.73,-201.94"/>
</a>
</g>
</g>
<!-- Node3 -->
<g id="Node000003" class="node">
<title>Node3</title>
<g id="a_Node000003"><a xlink:href="effects_8c.html#a7fef1af5ca366a9346478d94239c6142" target="_top" xlink:title=" ">
<polygon fill="white" stroke="#666666" points="362.5,-679.94 269.5,-679.94 269.5,-660.94 362.5,-660.94 362.5,-679.94"/>
<text text-anchor="middle" x="316" y="-667.94" font-family="Helvetica,sans-Serif" font-size="10.00">func_8008C6D0</text>
</a>
</g>
</g>
<!-- Node2&#45;&gt;Node3 -->
<g id="edge2_Node000002_Node000003" class="edge">
<title>Node2&#45;&gt;Node3</title>
<g id="a_edge2_Node000002_Node000003"><a xlink:title=" ">
<path fill="none" stroke="#63b8ff" d="M159.08,-532.09C167.38,-556.46 192.64,-620.76 237,-652.44 243.67,-657.21 251.41,-660.73 259.38,-663.34"/>
<polygon fill="#63b8ff" stroke="#63b8ff" points="258.57,-666.75 269.14,-666.08 260.46,-660.01 258.57,-666.75"/>
</a>
</g>
</g>
<!-- Node4 -->
<g id="Node000004" class="node">
<title>Node4</title>
<g id="a_Node000004"><a xlink:href="effects_8c.html#a5f19eaaa048055d292d02c717e635786" target="_top" xlink:title=" ">
<polygon fill="white" stroke="#666666" points="362,-642.94 270,-642.94 270,-623.94 362,-623.94 362,-642.94"/>
<text text-anchor="middle" x="316" y="-630.94" font-family="Helvetica,sans-Serif" font-size="10.00">func_8008D760</text>
</a>
</g>
</g>
<!-- Node2&#45;&gt;Node4 -->
<g id="edge3_Node000002_Node000004" class="edge">
<title>Node2&#45;&gt;Node4</title>
<g id="a_edge3_Node000002_Node000004"><a xlink:title=" ">
<path fill="none" stroke="#63b8ff" d="M161.51,-532.11C172.94,-551.24 201.2,-593.96 237,-615.44 244.03,-619.66 251.97,-622.89 260.01,-625.37"/>
<polygon fill="#63b8ff" stroke="#63b8ff" points="259.26,-628.79 269.83,-628.02 261.09,-622.03 259.26,-628.79"/>
</a>
</g>
</g>
<!-- Node5 -->
<g id="Node000005" class="node">
<title>Node5</title>
<g id="a_Node000005"><a xlink:href="effects_8c.html#a4ea2da0616ee3c475e4be217dc0bc71f" target="_top" xlink:title=" ">
<polygon fill="white" stroke="#666666" points="362.5,-605.94 269.5,-605.94 269.5,-586.94 362.5,-586.94 362.5,-605.94"/>
<text text-anchor="middle" x="316" y="-593.94" font-family="Helvetica,sans-Serif" font-size="10.00">func_8008D97C</text>
</a>
</g>
</g>
<!-- Node2&#45;&gt;Node5 -->
<g id="edge4_Node000002_Node000005" class="edge">
<title>Node2&#45;&gt;Node5</title>
<g id="a_edge4_Node000002_Node000005"><a xlink:title=" ">
<path fill="none" stroke="#63b8ff" d="M166.98,-532.08C181.83,-544.63 209.63,-566.36 237,-578.44 244.06,-581.56 251.73,-584.17 259.41,-586.35"/>
<polygon fill="#63b8ff" stroke="#63b8ff" points="258.54,-589.74 269.1,-588.89 260.31,-582.97 258.54,-589.74"/>
</a>
</g>
</g>
<!-- Node6 -->
<g id="Node000006" class="node">
<title>Node6</title>
<g id="a_Node000006"><a xlink:href="effects_8c.html#a13005f7c39388deade6ba0491d7c5918" target="_top" xlink:title=" ">
<polygon fill="white" stroke="#666666" points="361.5,-568.94 270.5,-568.94 270.5,-549.94 361.5,-549.94 361.5,-568.94"/>
<text text-anchor="middle" x="316" y="-556.94" font-family="Helvetica,sans-Serif" font-size="10.00">func_8008E884</text>
</a>
</g>
</g>
<!-- Node2&#45;&gt;Node6 -->
<g id="edge5_Node000002_Node000006" class="edge">
<title>Node2&#45;&gt;Node6</title>
<g id="a_edge5_Node000002_Node000006"><a xlink:title=" ">
<path fill="none" stroke="#63b8ff" d="M193.09,-531.17C206.88,-534.41 222.65,-538.1 237,-541.44 245.65,-543.46 254.85,-545.59 263.78,-547.65"/>
<polygon fill="#63b8ff" stroke="#63b8ff" points="263.17,-551.1 273.7,-549.94 264.75,-544.28 263.17,-551.1"/>
</a>
</g>
</g>
<!-- Node7 -->
<g id="Node000007" class="node">
<title>Node7</title>
<g id="a_Node000007"><a xlink:href="effects_8c.html#ae02351b6bbb678b552ec8864b47fc56c" target="_top" xlink:title=" ">
<polygon fill="white" stroke="#666666" points="361.5,-531.94 270.5,-531.94 270.5,-512.94 361.5,-512.94 361.5,-531.94"/>
<text text-anchor="middle" x="316" y="-519.94" font-family="Helvetica,sans-Serif" font-size="10.00">func_8008F3E0</text>
</a>
</g>
</g>
<!-- Node2&#45;&gt;Node7 -->
<g id="edge6_Node000002_Node000007" class="edge">
<title>Node2&#45;&gt;Node7</title>
<g id="a_edge6_Node000002_Node000007"><a xlink:title=" ">
<path fill="none" stroke="#63b8ff" d="M193.28,-522.44C213.17,-522.44 238.02,-522.44 260.08,-522.44"/>
<polygon fill="#63b8ff" stroke="#63b8ff" points="260.32,-525.94 270.32,-522.44 260.32,-518.94 260.32,-525.94"/>
</a>
</g>
</g>
<!-- Node8 -->
<g id="Node000008" class="node">
<title>Node8</title>
<g id="a_Node000008"><a xlink:href="effects_8c.html#ab5125d5944958f891647b27b440d3d62" target="_top" xlink:title=" ">
<polygon fill="white" stroke="#666666" points="362,-264.94 270,-264.94 270,-245.94 362,-245.94 362,-264.94"/>
<text text-anchor="middle" x="316" y="-252.94" font-family="Helvetica,sans-Serif" font-size="10.00">func_8008F5A4</text>
</a>
</g>
</g>
<!-- Node2&#45;&gt;Node8 -->
<g id="edge7_Node000002_Node000008" class="edge">
<title>Node2&#45;&gt;Node8</title>
<g id="a_edge7_Node000002_Node000008"><a xlink:title=" ">
<path fill="none" stroke="#63b8ff" d="M156.02,-512.88C156.65,-476.03 164.05,-341.99 237,-274.44 243.54,-268.39 251.68,-264.17 260.21,-261.25"/>
<polygon fill="#63b8ff" stroke="#63b8ff" points="261.28,-264.59 269.94,-258.48 259.36,-257.86 261.28,-264.59"/>
</a>
</g>
</g>
<!-- Node13 -->
<g id="Node000013" class="node">
<title>Node13</title>
<g id="a_Node000013"><a xlink:href="effects_8c.html#a2f183005a5e85816dd81508847c1904d" target="_top" xlink:title=" ">
<polygon fill="white" stroke="#666666" points="362.5,-494.94 269.5,-494.94 269.5,-475.94 362.5,-475.94 362.5,-494.94"/>
<text text-anchor="middle" x="316" y="-482.94" font-family="Helvetica,sans-Serif" font-size="10.00">func_8008FEDC</text>
</a>
</g>
</g>
<!-- Node2&#45;&gt;Node13 -->
<g id="edge12_Node000002_Node000013" class="edge">
<title>Node2&#45;&gt;Node13</title>
<g id="a_edge12_Node000002_Node000013"><a xlink:title=" ">
<path fill="none" stroke="#63b8ff" d="M193.28,-513.77C214.39,-508.86 241.09,-502.64 264.1,-497.29"/>
<polygon fill="#63b8ff" stroke="#63b8ff" points="265.1,-500.65 274.05,-494.97 263.51,-493.83 265.1,-500.65"/>
</a>
</g>
</g>
<!-- Node14 -->
<g id="Node000014" class="node">
<title>Node14</title>
<g id="a_Node000014"><a xlink:href="effects_8c.html#acbb1f27649a63227fcf0dd1f17dfa096" target="_top" xlink:title=" ">
<polygon fill="white" stroke="#666666" points="377,-457.44 255,-457.44 255,-427.44 377,-427.44 377,-457.44"/>
<text text-anchor="start" x="263" y="-445.44" font-family="Helvetica,sans-Serif" font-size="10.00">remove_banana_near</text>
<text text-anchor="middle" x="316" y="-434.44" font-family="Helvetica,sans-Serif" font-size="10.00">_spinout_effect</text>
</a>
</g>
</g>
<!-- Node2&#45;&gt;Node14 -->
<g id="edge13_Node000002_Node000014" class="edge">
<title>Node2&#45;&gt;Node14</title>
<g id="a_edge13_Node000002_Node000014"><a xlink:title=" ">
<path fill="none" stroke="#63b8ff" d="M167.69,-512.91C182.87,-500.91 210.56,-480.32 237,-467.44 241.6,-465.2 246.44,-463.1 251.37,-461.14"/>
<polygon fill="#63b8ff" stroke="#63b8ff" points="252.79,-464.34 260.92,-457.54 250.33,-457.79 252.79,-464.34"/>
</a>
</g>
</g>
<!-- Node15 -->
<g id="Node000015" class="node">
<title>Node15</title>
<g id="a_Node000015"><a xlink:href="effects_8c.html#a4768d56263e476d3bac47ee01bac3dc8" target="_top" xlink:title=" ">
<polygon fill="white" stroke="#666666" points="395,-409.44 237,-409.44 237,-379.44 395,-379.44 395,-409.44"/>
<text text-anchor="start" x="245" y="-397.44" font-family="Helvetica,sans-Serif" font-size="10.00">remove_boost_ramp_asphalt</text>
<text text-anchor="middle" x="316" y="-386.44" font-family="Helvetica,sans-Serif" font-size="10.00">_effect</text>
</a>
</g>
</g>
<!-- Node2&#45;&gt;Node15 -->
<g id="edge14_Node000002_Node000015" class="edge">
<title>Node2&#45;&gt;Node15</title>
<g id="a_edge14_Node000002_Node000015"><a xlink:title=" ">
<path fill="none" stroke="#63b8ff" d="M160.85,-512.81C171.64,-492.31 199.7,-444.17 237,-418.44 239.27,-416.88 241.65,-415.41 244.11,-414.03"/>
<polygon fill="#63b8ff" stroke="#63b8ff" points="245.89,-417.05 253.28,-409.45 242.77,-410.79 245.89,-417.05"/>
</a>
</g>
</g>
<!-- Node16 -->
<g id="Node000016" class="node">
<title>Node16</title>
<g id="a_Node000016"><a xlink:href="effects_8c.html#aafe14c45e9b91bb1d409ef2f2bfe5c53" target="_top" xlink:title=" ">
<polygon fill="white" stroke="#666666" points="390.5,-361.44 241.5,-361.44 241.5,-331.44 390.5,-331.44 390.5,-361.44"/>
<text text-anchor="start" x="249.5" y="-349.44" font-family="Helvetica,sans-Serif" font-size="10.00">remove_boost_ramp_wood</text>
<text text-anchor="middle" x="316" y="-338.44" font-family="Helvetica,sans-Serif" font-size="10.00">_effect</text>
</a>
</g>
</g>
<!-- Node2&#45;&gt;Node16 -->
<g id="edge15_Node000002_Node000016" class="edge">
<title>Node2&#45;&gt;Node16</title>
<g id="a_edge15_Node000002_Node000016"><a xlink:title=" ">
<path fill="none" stroke="#63b8ff" d="M158.42,-512.59C165.54,-485.63 189.03,-410.03 237,-370.44 238.56,-369.16 240.18,-367.94 241.86,-366.79"/>
<polygon fill="#63b8ff" stroke="#63b8ff" points="243.87,-369.67 250.68,-361.56 240.29,-363.65 243.87,-369.67"/>
</a>
</g>
</g>
<!-- Node17 -->
<g id="Node000017" class="node">
<title>Node17</title>
<g id="a_Node000017"><a xlink:href="effects_8c.html#a9ff5c732ea8ba59908ccf62ff441e7e4" target="_top" xlink:title=" ">
<polygon fill="white" stroke="#666666" points="376,-313.44 256,-313.44 256,-283.44 376,-283.44 376,-313.44"/>
<text text-anchor="start" x="264" y="-301.44" font-family="Helvetica,sans-Serif" font-size="10.00">remove_driving_near</text>
<text text-anchor="middle" x="316" y="-290.44" font-family="Helvetica,sans-Serif" font-size="10.00">_spinout_effect</text>
</a>
</g>
</g>
<!-- Node2&#45;&gt;Node17 -->
<g id="edge16_Node000002_Node000017" class="edge">
<title>Node2&#45;&gt;Node17</title>
<g id="a_edge16_Node000002_Node000017"><a xlink:title=" ">
<path fill="none" stroke="#63b8ff" d="M157,-512.89C160.86,-480.95 177.64,-376.89 237,-322.44 239.97,-319.72 243.24,-317.3 246.71,-315.16"/>
<polygon fill="#63b8ff" stroke="#63b8ff" points="248.51,-318.17 255.69,-310.39 245.22,-311.99 248.51,-318.17"/>
</a>
</g>
</g>
<!-- Node18 -->
<g id="Node000018" class="node">
<title>Node18</title>
<g id="a_Node000018"><a xlink:href="effects_8c.html#a5f1aead641683fd07375d6737dfafac2" target="_top" xlink:title=" ">
<polygon fill="white" stroke="#666666" points="372.5,-802.44 259.5,-802.44 259.5,-772.44 372.5,-772.44 372.5,-802.44"/>
<text text-anchor="start" x="267.5" y="-790.44" font-family="Helvetica,sans-Serif" font-size="10.00">remove_hit_by_star</text>
<text text-anchor="middle" x="316" y="-779.44" font-family="Helvetica,sans-Serif" font-size="10.00">_effect</text>
</a>
</g>
</g>
<!-- Node2&#45;&gt;Node18 -->
<g id="edge17_Node000002_Node000018" class="edge">
<title>Node2&#45;&gt;Node18</title>
<g id="a_edge17_Node000002_Node000018"><a xlink:title=" ">
<path fill="none" stroke="#63b8ff" d="M156.27,-532.36C157.8,-568.74 168.09,-696.28 237,-763.44 240.93,-767.27 245.46,-770.5 250.32,-773.2"/>
<polygon fill="#63b8ff" stroke="#63b8ff" points="248.82,-776.37 259.35,-777.55 251.85,-770.06 248.82,-776.37"/>
</a>
</g>
</g>
<!-- Node19 -->
<g id="Node000019" class="node">
<title>Node19</title>
<g id="a_Node000019"><a xlink:href="effects_8c.html#a9be2cc0ebbe72a9d5276a4fd2675eef3" target="_top" xlink:title=" ">
<polygon fill="white" stroke="#666666" points="388.5,-753.94 243.5,-753.94 243.5,-734.94 388.5,-734.94 388.5,-753.94"/>
<text text-anchor="middle" x="316" y="-741.94" font-family="Helvetica,sans-Serif" font-size="10.00">remove_mushroom_effect</text>
</a>
</g>
</g>
<!-- Node2&#45;&gt;Node19 -->
<g id="edge18_Node000002_Node000019" class="edge">
<title>Node2&#45;&gt;Node19</title>
<g id="a_edge18_Node000002_Node000019"><a xlink:title=" ">
<path fill="none" stroke="#63b8ff" d="M156.79,-532.36C159.96,-565.45 174.86,-673.05 237,-726.44 238.34,-727.59 239.74,-728.68 241.19,-729.69"/>
<polygon fill="#63b8ff" stroke="#63b8ff" points="239.58,-732.8 249.98,-734.82 243.11,-726.76 239.58,-732.8"/>
</a>
</g>
</g>
<!-- Node20 -->
<g id="Node000020" class="node">
<title>Node20</title>
<g id="a_Node000020"><a xlink:href="effects_8c.html#a85a7ba2f2c97859b0090c54a68e8f003" target="_top" xlink:title=" ">
<polygon fill="white" stroke="#666666" points="383,-716.94 249,-716.94 249,-697.94 383,-697.94 383,-716.94"/>
<text text-anchor="middle" x="316" y="-704.94" font-family="Helvetica,sans-Serif" font-size="10.00">remove_spinout_effects</text>
</a>
</g>
</g>
<!-- Node2&#45;&gt;Node20 -->
<g id="edge19_Node000002_Node000020" class="edge">
<title>Node2&#45;&gt;Node20</title>
<g id="a_edge19_Node000002_Node000020"><a xlink:title=" ">
<path fill="none" stroke="#63b8ff" d="M157.7,-532.18C163.28,-561.09 183.83,-647.06 237,-689.44 238.59,-690.71 240.25,-691.89 241.97,-692.99"/>
<polygon fill="#63b8ff" stroke="#63b8ff" points="240.55,-696.2 251.02,-697.85 243.86,-690.03 240.55,-696.2"/>
</a>
</g>
</g>
<!-- Node9 -->
<g id="Node000009" class="node">
<title>Node9</title>
<g id="a_Node000009"><a xlink:href="code__80057C60_8c.html#ae28b6eb556910087cea23f0cb7a322bd" target="_top" xlink:title=" ">
<polygon fill="white" stroke="#666666" points="543,-264.94 431,-264.94 431,-245.94 543,-245.94 543,-264.94"/>
<text text-anchor="middle" x="487" y="-252.94" font-family="Helvetica,sans-Serif" font-size="10.00">pop_player_balloon</text>
</a>
</g>
</g>
<!-- Node8&#45;&gt;Node9 -->
<g id="edge8_Node000008_Node000009" class="edge">
<title>Node8&#45;&gt;Node9</title>
<g id="a_edge8_Node000008_Node000009"><a xlink:title=" ">
<path fill="none" stroke="#63b8ff" d="M362.29,-255.44C380.27,-255.44 401.3,-255.44 420.87,-255.44"/>
<polygon fill="#63b8ff" stroke="#63b8ff" points="420.94,-258.94 430.94,-255.44 420.94,-251.94 420.94,-258.94"/>
</a>
</g>
</g>
<!-- Node10 -->
<g id="Node000010" class="node">
<title>Node10</title>
<g id="a_Node000010"><a xlink:href="effects_8c.html#a1c7552c4a370cc015c2726e40f1fdb06" target="_top" xlink:title=" ">
<polygon fill="white" stroke="#666666" points="673,-301.94 580,-301.94 580,-282.94 673,-282.94 673,-301.94"/>
<text text-anchor="middle" x="626.5" y="-289.94" font-family="Helvetica,sans-Serif" font-size="10.00">func_8008FD4C</text>
</a>
</g>
</g>
<!-- Node9&#45;&gt;Node10 -->
<g id="edge9_Node000009_Node000010" class="edge">
<title>Node9&#45;&gt;Node10</title>
<g id="a_edge9_Node000009_Node000010"><a xlink:title=" ">
<path fill="none" stroke="#63b8ff" d="M523.41,-264.97C540.6,-269.6 561.45,-275.21 579.82,-280.15"/>
<polygon fill="#63b8ff" stroke="#63b8ff" points="579.17,-283.6 589.73,-282.82 580.99,-276.84 579.17,-283.6"/>
</a>
</g>
</g>
<!-- Node11 -->
<g id="Node000011" class="node">
<title>Node11</title>
<g id="a_Node000011"><a xlink:href="external_8c.html#a2be9efc97a92e19d02aaee90d676acc1" target="_top" xlink:title=" ">
<polygon fill="white" stroke="#666666" points="672.5,-264.94 580.5,-264.94 580.5,-245.94 672.5,-245.94 672.5,-264.94"/>
<text text-anchor="middle" x="626.5" y="-252.94" font-family="Helvetica,sans-Serif" font-size="10.00">func_800C9060</text>
</a>
</g>
</g>
<!-- Node9&#45;&gt;Node11 -->
<g id="edge10_Node000009_Node000011" class="edge">
<title>Node9&#45;&gt;Node11</title>
<g id="a_edge10_Node000009_Node000011"><a xlink:title=" ">
<path fill="none" stroke="#63b8ff" d="M543.13,-255.44C552.05,-255.44 561.28,-255.44 570.2,-255.44"/>
<polygon fill="#63b8ff" stroke="#63b8ff" points="570.49,-258.94 580.49,-255.44 570.49,-251.94 570.49,-258.94"/>
</a>
</g>
</g>
<!-- Node12 -->
<g id="Node000012" class="node">
<title>Node12</title>
<g id="a_Node000012"><a xlink:href="external_8c.html#a475cff796211891556f52877cd8e9b9e" target="_top" xlink:title=" ">
<polygon fill="white" stroke="#666666" points="792,-188.94 720,-188.94 720,-169.94 792,-169.94 792,-188.94"/>
<text text-anchor="middle" x="756" y="-176.94" font-family="Helvetica,sans-Serif" font-size="10.00">play_sound</text>
</a>
</g>
</g>
<!-- Node11&#45;&gt;Node12 -->
<g id="edge11_Node000011_Node000012" class="edge">
<title>Node11&#45;&gt;Node12</title>
<g id="a_edge11_Node000011_Node000012"><a xlink:title=" ">
<path fill="none" stroke="#63b8ff" d="M647.18,-245.8C655.54,-241.57 665.35,-236.44 674,-231.44 694.08,-219.85 716.19,-205.54 732.23,-194.88"/>
<polygon fill="#63b8ff" stroke="#63b8ff" points="734.55,-197.53 740.91,-189.06 730.66,-191.72 734.55,-197.53"/>
</a>
</g>
</g>
<!-- Node21&#45;&gt;Node12 -->
<g id="edge28_Node000021_Node000012" class="edge">
<title>Node21&#45;&gt;Node12</title>
<g id="a_edge28_Node000021_Node000012"><a xlink:title=" ">
<path fill="none" stroke="#63b8ff" d="M533.76,-102.85C572.31,-102.97 628.32,-106.59 674,-123.44 697.82,-132.23 721.26,-149.66 736.75,-162.76"/>
<polygon fill="#63b8ff" stroke="#63b8ff" points="734.65,-165.57 744.48,-169.5 739.25,-160.3 734.65,-165.57"/>
</a>
</g>
</g>
<!-- Node22 -->
<g id="Node000022" class="node">
<title>Node22</title>
<g id="a_Node000022"><a xlink:href="external_8c.html#ac48b7cbfcaa7737f892877ead85e4ba7" target="_top" xlink:title=" ">
<polygon fill="white" stroke="#666666" points="802,-38.94 710,-38.94 710,-19.94 802,-19.94 802,-38.94"/>
<text text-anchor="middle" x="756" y="-26.94" font-family="Helvetica,sans-Serif" font-size="10.00">func_800C3448</text>
</a>
</g>
</g>
<!-- Node21&#45;&gt;Node22 -->
<g id="edge21_Node000021_Node000022" class="edge">
<title>Node21&#45;&gt;Node22</title>
<g id="a_edge21_Node000021_Node000022"><a xlink:title=" ">
<path fill="none" stroke="#63b8ff" d="M493.52,-94.86C505.8,-74.62 537.59,-27.99 579,-10.44 625.82,9.4 685.63,-4.34 722.09,-16.55"/>
<polygon fill="#63b8ff" stroke="#63b8ff" points="721.13,-19.92 731.72,-19.92 723.44,-13.31 721.13,-19.92"/>
</a>
</g>
</g>
<!-- Node23 -->
<g id="Node000023" class="node">
<title>Node23</title>
<g id="a_Node000023"><a xlink:href="external_8c.html#ab2ecda68e1fb6f957aafd4c5742e2f63" target="_top" xlink:title=" ">
<polygon fill="white" stroke="#666666" points="672.5,-38.94 580.5,-38.94 580.5,-19.94 672.5,-19.94 672.5,-38.94"/>
<text text-anchor="middle" x="626.5" y="-26.94" font-family="Helvetica,sans-Serif" font-size="10.00">func_800C3508</text>
</a>
</g>
</g>
<!-- Node21&#45;&gt;Node23 -->
<g id="edge22_Node000021_Node000023" class="edge">
<title>Node21&#45;&gt;Node23</title>
<g id="a_edge22_Node000021_Node000023"><a xlink:title=" ">
<path fill="none" stroke="#63b8ff" d="M501.4,-94.91C518.74,-82.84 550.17,-61.89 579,-47.44 582.11,-45.88 585.4,-44.37 588.72,-42.93"/>
<polygon fill="#63b8ff" stroke="#63b8ff" points="590.17,-46.11 598.08,-39.06 587.5,-39.64 590.17,-46.11"/>
</a>
</g>
</g>
<!-- Node24 -->
<g id="Node000024" class="node">
<title>Node24</title>
<g id="a_Node000024"><a xlink:href="external_8c.html#a2aea7abf056e029f247b18edb62aa218" target="_top" xlink:title=" ">
<polygon fill="white" stroke="#666666" points="672.5,-188.94 580.5,-188.94 580.5,-169.94 672.5,-169.94 672.5,-188.94"/>
<text text-anchor="middle" x="626.5" y="-176.94" font-family="Helvetica,sans-Serif" font-size="10.00">func_800C357C</text>
</a>
</g>
</g>
<!-- Node21&#45;&gt;Node24 -->
<g id="edge23_Node000021_Node000024" class="edge">
<title>Node21&#45;&gt;Node24</title>
<g id="a_edge23_Node000021_Node000024"><a xlink:title=" ">
<path fill="none" stroke="#63b8ff" d="M502.08,-114.11C519.61,-125.92 550.72,-146.08 579,-160.44 582.76,-162.35 586.76,-164.22 590.78,-165.99"/>
<polygon fill="#63b8ff" stroke="#63b8ff" points="589.49,-169.25 600.06,-169.93 592.22,-162.8 589.49,-169.25"/>
</a>
</g>
</g>
<!-- Node25 -->
<g id="Node000025" class="node">
<title>Node25</title>
<g id="a_Node000025"><a xlink:href="external_8c.html#aeec25112a50d31b3f33d06325ab2ec7d" target="_top" xlink:title=" ">
<polygon fill="white" stroke="#666666" points="672.5,-151.94 580.5,-151.94 580.5,-132.94 672.5,-132.94 672.5,-151.94"/>
<text text-anchor="middle" x="626.5" y="-139.94" font-family="Helvetica,sans-Serif" font-size="10.00">func_800C8F80</text>
</a>
</g>
</g>
<!-- Node21&#45;&gt;Node25 -->
<g id="edge24_Node000021_Node000025" class="edge">
<title>Node21&#45;&gt;Node25</title>
<g id="a_edge24_Node000021_Node000025"><a xlink:title=" ">
<path fill="none" stroke="#63b8ff" d="M522.7,-114.03C540.37,-118.91 562.05,-124.91 580.94,-130.13"/>
<polygon fill="#63b8ff" stroke="#63b8ff" points="580.24,-133.57 590.81,-132.86 582.11,-126.82 580.24,-133.57"/>
</a>
</g>
</g>
<!-- Node26 -->
<g id="Node000026" class="node">
<title>Node26</title>
<g id="a_Node000026"><a xlink:href="external_8c.html#a09ce26bd251215683216e0001814799c" target="_top" xlink:title=" ">
<polygon fill="white" stroke="#666666" points="674,-75.94 579,-75.94 579,-56.94 674,-56.94 674,-75.94"/>
<text text-anchor="middle" x="626.5" y="-63.94" font-family="Helvetica,sans-Serif" font-size="10.00">play_sequence2</text>
</a>
</g>
</g>
<!-- Node21&#45;&gt;Node26 -->
<g id="edge26_Node000021_Node000026" class="edge">
<title>Node21&#45;&gt;Node26</title>
<g id="a_edge26_Node000021_Node000026"><a xlink:title=" ">
<path fill="none" stroke="#63b8ff" d="M522.7,-94.85C540.37,-89.97 562.05,-83.98 580.94,-78.76"/>
<polygon fill="#63b8ff" stroke="#63b8ff" points="582.11,-82.07 590.81,-76.03 580.24,-75.32 582.11,-82.07"/>
</a>
</g>
</g>
<!-- Node25&#45;&gt;Node12 -->
<g id="edge25_Node000025_Node000012" class="edge">
<title>Node25&#45;&gt;Node12</title>
<g id="a_edge25_Node000025_Node000012"><a xlink:title=" ">
<path fill="none" stroke="#63b8ff" d="M660.33,-151.97C676.12,-156.55 695.25,-162.1 712.17,-167.01"/>
<polygon fill="#63b8ff" stroke="#63b8ff" points="711.25,-170.39 721.83,-169.82 713.21,-163.67 711.25,-170.39"/>
</a>
</g>
</g>
<!-- Node26&#45;&gt;Node22 -->
<g id="edge27_Node000026_Node000022" class="edge">
<title>Node26&#45;&gt;Node22</title>
<g id="a_edge27_Node000026_Node000022"><a xlink:title=" ">
<path fill="none" stroke="#63b8ff" d="M660.33,-56.91C676.12,-52.33 695.25,-46.78 712.17,-41.87"/>
<polygon fill="#63b8ff" stroke="#63b8ff" points="713.21,-45.22 721.83,-39.07 711.25,-38.49 713.21,-45.22"/>
</a>
</g>
</g>
<!-- Node27&#45;&gt;Node12 -->
<g id="edge31_Node000027_Node000012" class="edge">
<title>Node27&#45;&gt;Node12</title>
<g id="a_edge31_Node000027_Node000012"><a xlink:title=" ">
<path fill="none" stroke="#63b8ff" d="M201.24,-201.92C291.5,-208.1 500.24,-218.55 674,-198.44 686.55,-196.99 699.99,-194.31 712.24,-191.41"/>
<polygon fill="#63b8ff" stroke="#63b8ff" points="713.33,-194.75 722.2,-188.95 711.65,-187.95 713.33,-194.75"/>
</a>
</g>
</g>
<!-- Node28 -->
<g id="Node000028" class="node">
<title>Node28</title>
<g id="a_Node000028"><a xlink:href="external_8c.html#a747de0be4005b4b29150d5c068564b7d" target="_top" xlink:title=" ">
<polygon fill="white" stroke="#666666" points="362,-188.94 270,-188.94 270,-169.94 362,-169.94 362,-188.94"/>
<text text-anchor="middle" x="316" y="-176.94" font-family="Helvetica,sans-Serif" font-size="10.00">func_800C1C88</text>
</a>
</g>
</g>
<!-- Node27&#45;&gt;Node28 -->
<g id="edge30_Node000027_Node000028" class="edge">
<title>Node27&#45;&gt;Node28</title>
<g id="a_edge30_Node000027_Node000028"><a xlink:title=" ">
<path fill="none" stroke="#63b8ff" d="M201.14,-193.05C219.35,-190.87 240.54,-188.34 259.67,-186.05"/>
<polygon fill="#63b8ff" stroke="#63b8ff" points="260.24,-189.51 269.75,-184.85 259.4,-182.56 260.24,-189.51"/>
</a>
</g>
</g>
</g>
</svg>

<g id="navigator" transform="translate(0 0)" fill="#404254">
  <rect fill="#f2f5e9" fill-opacity="0.5" stroke="#606060" stroke-width=".5" x="0" y="0" width="60" height="60"/>
  <use id="zoomplus" xlink:href="#zoomPlus" x="17" y="9" onmousedown="handleZoom(evt,'in')"/>
  <use id="zoomminus" xlink:href="#zoomMin" x="42" y="9" onmousedown="handleZoom(evt,'out')"/>
  <use id="reset" xlink:href="#resetDef" x="30" y="36" onmousedown="handleReset()"/>
   <use id="arrowup" xlink:href="#arrowUp" x="0" y="0" onmousedown="handlePan(0,-1)"/>
  <use id="arrowright" xlink:href="#arrowRight" x="0" y="0" onmousedown="handlePan(1,0)"/>
  <use id="arrowdown" xlink:href="#arrowDown" x="0" y="0" onmousedown="handlePan(0,1)"/>
  <use id="arrowleft" xlink:href="#arrowLeft" x="0" y="0" onmousedown="handlePan(-1,0)"/>
</g>
<svg viewBox="0 0 15 15" width="100%" height="30px" preserveAspectRatio="xMaxYMin meet">
 <g id="arrow_out" transform="scale(0.3 0.3)">
  <a xlink:href="effects_8h_a812dc2f202515c5d090696c78e3391af_cgraph_org.svg" target="_base">
   <rect id="button" ry="5" rx="5" y="6" x="6" height="38" width="38"
        fill="#f2f5e9" fill-opacity="0.5" stroke="#606060" stroke-width="1.0"/>
   <path id="arrow"
     d="M 11.500037,31.436501 C 11.940474,20.09759 22.043105,11.32322 32.158766,21.979434 L 37.068811,17.246167 C 37.068811,17.246167 37.088388,32 37.088388,32 L 22.160133,31.978069 C 22.160133,31.978069 26.997745,27.140456 26.997745,27.140456 C 18.528582,18.264221 13.291696,25.230495 11.500037,31.436501 z"
     style="fill:#404040;"/>
  </a>
 </g>
</svg>

<style type='text/css'>
<![CDATA[
[data-mouse-over-selected='false'] { opacity: 0.7; }
[data-mouse-over-selected='true']  { opacity: 1.0; }
]]>
</style>
<script type="application/ecmascript"><![CDATA[
document.addEventListener('DOMContentLoaded', (event) => {
  highlightEdges();
  highlightAdjacentNodes();
});
]]></script>
</svg>
