<?xml version="1.0" encoding="UTF-8" standalone="no"?>
<!DOCTYPE svg PUBLIC "-//W3C//DTD SVG 1.1//EN"
 "http://www.w3.org/Graphics/SVG/1.1/DTD/svg11.dtd">
<!-- Generated by graphviz version 2.43.0 (0)
 -->
<!-- Title: apply_hit_sound_effect Pages: 1 -->
<!--zoomable 637 -->

<svg id="main" version="1.1" xmlns="http://www.w3.org/2000/svg" xmlns:xlink="http://www.w3.org/1999/xlink" xml:space="preserve" onload="init(evt)">
<style type="text/css"><![CDATA[
.node, .edge {opacity: 0.7;}
.node.selected, .edge.selected {opacity: 1;}
.edge:hover path { stroke: red; }
.edge:hover polygon { stroke: red; fill: red; }
]]></style>

<defs>
  <circle id="rim" cx="0" cy="0" r="7"/>
  <circle id="rim2" cx="0" cy="0" r="3.5"/>
  <g id="zoomPlus">
    <use xlink:href="#rim" fill="#404040"><set attributeName="fill" to="#808080" begin="zoomplus.mouseover" end="zoomplus.mouseout"/></use>
    <path d="M-4,0h8M0,-4v8" fill="none" stroke="white" stroke-width="1.5" pointer-events="none"/>
  </g>
  <g id="zoomMin">
    <use xlink:href="#rim" fill="#404040"><set attributeName="fill" to="#808080" begin="zoomminus.mouseover" end="zoomminus.mouseout"/></use>
    <path d="M-4,0h8" fill="none" stroke="white" stroke-width="1.5" pointer-events="none"/>
  </g>
  <g id="arrowUp" transform="translate(30 24)">
    <use xlink:href="#rim"/>
    <path pointer-events="none" fill="none" stroke="white" stroke-width="1.5" d="M0,-3.0v7 M-2.5,-0.5L0,-3.0L2.5,-0.5"/>
  </g>
  <g id="arrowRight" transform="rotate(90) translate(36 -43)">
    <use xlink:href="#rim"/>
    <path pointer-events="none" fill="none" stroke="white" stroke-width="1.5" d="M0,-3.0v7 M-2.5,-0.5L0,-3.0L2.5,-0.5"/>
  </g>
  <g id="arrowDown" transform="rotate(180) translate(-30 -48)">
    <use xlink:href="#rim"/>
    <path pointer-events="none" fill="none" stroke="white" stroke-width="1.5" d="M0,-3.0v7 M-2.5,-0.5L0,-3.0L2.5,-0.5"/>
  </g>
  <g id="arrowLeft" transform="rotate(270) translate(-36 17)">
    <use xlink:href="#rim"/>
    <path pointer-events="none" fill="none" stroke="white" stroke-width="1.5" d="M0,-3.0v7 M-2.5,-0.5L0,-3.0L2.5,-0.5"/>
  </g>
  <g id="resetDef">
    <use xlink:href="#rim2" fill="#404040"><set attributeName="fill" to="#808080" begin="reset.mouseover" end="reset.mouseout"/></use>
  </g>
</defs>
<script type="application/ecmascript">
var viewWidth = 880;
var viewHeight = 637;
var sectionId = 'dynsection-23';
</script>
<script type="application/ecmascript" xlink:href="svg.min.js"/>
<svg id="graph" class="graph">
<g id="viewport">
<title>apply_hit_sound_effect</title>
<!-- Node1 -->
<g id="Node000001" class="node">
<title>Node1</title>
<g id="a_Node000001"><a xlink:title=" ">
<polygon fill="#999999" stroke="#666666" points="129,-76 0,-76 0,-57 129,-57 129,-76"/>
<text text-anchor="middle" x="64.5" y="-64" font-family="Helvetica,sans-Serif" font-size="10.00">apply_hit_sound_effect</text>
</a>
</g>
</g>
<!-- Node2 -->
<g id="Node000002" class="node">
<title>Node2</title>
<g id="a_Node000002"><a xlink:href="effects_8c.html#a6559cc02e5bb1a4e7fe6c97850cdd87e" target="_top" xlink:title=" ">
<polygon fill="white" stroke="#666666" points="267,-370 191,-370 191,-351 267,-351 267,-370"/>
<text text-anchor="middle" x="229" y="-358" font-family="Helvetica,sans-Serif" font-size="10.00">clean_effect</text>
</a>
</g>
</g>
<!-- Node1&#45;&gt;Node2 -->
<g id="edge1_Node000001_Node000002" class="edge">
<title>Node1&#45;&gt;Node2</title>
<g id="a_edge1_Node000001_Node000002"><a xlink:title=" ">
<path fill="none" stroke="#63b8ff" d="M70.91,-76.28C94.28,-118.58 186.89,-286.12 217.85,-342.14"/>
<polygon fill="#63b8ff" stroke="#63b8ff" points="214.84,-343.92 222.74,-350.98 220.96,-340.53 214.84,-343.92"/>
</a>
</g>
</g>
<!-- Node21 -->
<g id="Node000021" class="node">
<title>Node21</title>
<g id="a_Node000021"><a xlink:href="external_8c.html#a337fc3ab94ebb3293a85908229303ac8" target="_top" xlink:title=" ">
<polygon fill="white" stroke="#666666" points="625,-95 533,-95 533,-76 625,-76 625,-95"/>
<text text-anchor="middle" x="579" y="-83" font-family="Helvetica,sans-Serif" font-size="10.00">func_800C90F4</text>
</a>
</g>
</g>
<!-- Node1&#45;&gt;Node21 -->
<g id="edge20_Node000001_Node000021" class="edge">
<title>Node1&#45;&gt;Node21</title>
<g id="a_edge20_Node000001_Node000021"><a xlink:title=" ">
<path fill="none" stroke="#63b8ff" d="M129.11,-68.86C230.5,-72.62 427.05,-79.9 522.84,-83.46"/>
<polygon fill="#63b8ff" stroke="#63b8ff" points="522.78,-86.96 532.9,-83.83 523.04,-79.96 522.78,-86.96"/>
</a>
</g>
</g>
<!-- Node22 -->
<g id="Node000022" class="node">
<title>Node22</title>
<g id="a_Node000022"><a xlink:href="cpu__vehicles__camera__path_8c.html#adb9b8cd30f2be4e125706fa55ea2272d" target="_top" xlink:title=" ">
<polygon fill="white" stroke="#666666" points="293,-38 165,-38 165,-19 293,-19 293,-38"/>
<text text-anchor="middle" x="229" y="-26" font-family="Helvetica,sans-Serif" font-size="10.00">play_cpu_sound_effect</text>
</a>
</g>
</g>
<!-- Node1&#45;&gt;Node22 -->
<g id="edge22_Node000001_Node000022" class="edge">
<title>Node1&#45;&gt;Node22</title>
<g id="a_edge22_Node000001_Node000022"><a xlink:title=" ">
<path fill="none" stroke="#63b8ff" d="M106.51,-56.91C128.05,-51.87 154.63,-45.66 177.44,-40.32"/>
<polygon fill="#63b8ff" stroke="#63b8ff" points="178.35,-43.71 187.29,-38.02 176.75,-36.89 178.35,-43.71"/>
</a>
</g>
</g>
<!-- Node3 -->
<g id="Node000003" class="node">
<title>Node3</title>
<g id="a_Node000003"><a xlink:href="effects_8c.html#a7fef1af5ca366a9346478d94239c6142" target="_top" xlink:title=" ">
<polygon fill="white" stroke="#666666" points="454.5,-629 361.5,-629 361.5,-610 454.5,-610 454.5,-629"/>
<text text-anchor="middle" x="408" y="-617" font-family="Helvetica,sans-Serif" font-size="10.00">func_8008C6D0</text>
</a>
</g>
</g>
<!-- Node2&#45;&gt;Node3 -->
<g id="edge2_Node000002_Node000003" class="edge">
<title>Node2&#45;&gt;Node3</title>
<g id="a_edge2_Node000002_Node000003"><a xlink:title=" ">
<path fill="none" stroke="#63b8ff" d="M230.87,-370.13C234.72,-406.6 253.48,-537.39 329,-601.5 335.47,-607 343.3,-610.89 351.46,-613.64"/>
<polygon fill="#63b8ff" stroke="#63b8ff" points="350.57,-617.03 361.14,-616.37 352.46,-610.29 350.57,-617.03"/>
</a>
</g>
</g>
<!-- Node4 -->
<g id="Node000004" class="node">
<title>Node4</title>
<g id="a_Node000004"><a xlink:href="effects_8c.html#a105203221e314be241a95e006b62ef80" target="_top" xlink:title=" ">
<polygon fill="white" stroke="#666666" points="454,-592 362,-592 362,-573 454,-573 454,-592"/>
<text text-anchor="middle" x="408" y="-580" font-family="Helvetica,sans-Serif" font-size="10.00">func_8008C8C4</text>
</a>
</g>
</g>
<!-- Node2&#45;&gt;Node4 -->
<g id="edge3_Node000002_Node000004" class="edge">
<title>Node2&#45;&gt;Node4</title>
<g id="a_edge3_Node000002_Node000004"><a xlink:title=" ">
<path fill="none" stroke="#63b8ff" d="M231.63,-370C237.74,-402.71 262.5,-511.5 329,-564.5 335.72,-569.85 343.74,-573.67 352.04,-576.38"/>
<polygon fill="#63b8ff" stroke="#63b8ff" points="351.29,-579.81 361.86,-579.08 353.15,-573.06 351.29,-579.81"/>
</a>
</g>
</g>
<!-- Node5 -->
<g id="Node000005" class="node">
<title>Node5</title>
<g id="a_Node000005"><a xlink:href="effects_8c.html#a79f63da92dad1b64803f6849f71e4eee" target="_top" xlink:title=" ">
<polygon fill="white" stroke="#666666" points="454,-555 362,-555 362,-536 454,-536 454,-555"/>
<text text-anchor="middle" x="408" y="-543" font-family="Helvetica,sans-Serif" font-size="10.00">func_8008D0E4</text>
</a>
</g>
</g>
<!-- Node2&#45;&gt;Node5 -->
<g id="edge4_Node000002_Node000005" class="edge">
<title>Node2&#45;&gt;Node5</title>
<g id="a_edge4_Node000002_Node000005"><a xlink:title=" ">
<path fill="none" stroke="#63b8ff" d="M232.78,-370.28C241.56,-399.3 271.59,-485.53 329,-527.5 335.85,-532.51 343.88,-536.15 352.13,-538.8"/>
<polygon fill="#63b8ff" stroke="#63b8ff" points="351.28,-542.2 361.85,-541.47 353.13,-535.45 351.28,-542.2"/>
</a>
</g>
</g>
<!-- Node6 -->
<g id="Node000006" class="node">
<title>Node6</title>
<g id="a_Node000006"><a xlink:href="effects_8c.html#a66120f679d001e0da8c5e769b6582aeb" target="_top" xlink:title=" ">
<polygon fill="white" stroke="#666666" points="454.5,-518 361.5,-518 361.5,-499 454.5,-499 454.5,-518"/>
<text text-anchor="middle" x="408" y="-506" font-family="Helvetica,sans-Serif" font-size="10.00">func_8008D3B0</text>
</a>
</g>
</g>
<!-- Node2&#45;&gt;Node6 -->
<g id="edge5_Node000002_Node000006" class="edge">
<title>Node2&#45;&gt;Node6</title>
<g id="a_edge5_Node000002_Node000006"><a xlink:title=" ">
<path fill="none" stroke="#63b8ff" d="M234.4,-370.17C246.05,-394.57 280.14,-458.95 329,-490.5 335.81,-494.9 343.56,-498.22 351.47,-500.74"/>
<polygon fill="#63b8ff" stroke="#63b8ff" points="350.58,-504.12 361.15,-503.43 352.45,-497.38 350.58,-504.12"/>
</a>
</g>
</g>
<!-- Node7 -->
<g id="Node000007" class="node">
<title>Node7</title>
<g id="a_Node000007"><a xlink:href="effects_8c.html#a5f19eaaa048055d292d02c717e635786" target="_top" xlink:title=" ">
<polygon fill="white" stroke="#666666" points="454,-481 362,-481 362,-462 454,-462 454,-481"/>
<text text-anchor="middle" x="408" y="-469" font-family="Helvetica,sans-Serif" font-size="10.00">func_8008D760</text>
</a>
</g>
</g>
<!-- Node2&#45;&gt;Node7 -->
<g id="edge6_Node000002_Node000007" class="edge">
<title>Node2&#45;&gt;Node7</title>
<g id="a_edge6_Node000002_Node000007"><a xlink:title=" ">
<path fill="none" stroke="#63b8ff" d="M237.28,-370.14C252.23,-389.22 288.44,-431.84 329,-453.5 336.15,-457.32 344.08,-460.33 352.08,-462.7"/>
<polygon fill="#63b8ff" stroke="#63b8ff" points="351.25,-466.1 361.81,-465.3 353.05,-459.34 351.25,-466.1"/>
</a>
</g>
</g>
<!-- Node8 -->
<g id="Node000008" class="node">
<title>Node8</title>
<g id="a_Node000008"><a xlink:href="effects_8c.html#a4ea2da0616ee3c475e4be217dc0bc71f" target="_top" xlink:title=" ">
<polygon fill="white" stroke="#666666" points="454.5,-444 361.5,-444 361.5,-425 454.5,-425 454.5,-444"/>
<text text-anchor="middle" x="408" y="-432" font-family="Helvetica,sans-Serif" font-size="10.00">func_8008D97C</text>
</a>
</g>
</g>
<!-- Node2&#45;&gt;Node8 -->
<g id="edge7_Node000002_Node000008" class="edge">
<title>Node2&#45;&gt;Node8</title>
<g id="a_edge7_Node000002_Node000008"><a xlink:title=" ">
<path fill="none" stroke="#63b8ff" d="M243.79,-370.01C262.36,-382.41 296.79,-403.98 329,-416.5 336.2,-419.3 343.94,-421.73 351.66,-423.82"/>
<polygon fill="#63b8ff" stroke="#63b8ff" points="350.82,-427.22 361.37,-426.29 352.55,-420.43 350.82,-427.22"/>
</a>
</g>
</g>
<!-- Node9 -->
<g id="Node000009" class="node">
<title>Node9</title>
<g id="a_Node000009"><a xlink:href="effects_8c.html#a13005f7c39388deade6ba0491d7c5918" target="_top" xlink:title=" ">
<polygon fill="white" stroke="#666666" points="453.5,-407 362.5,-407 362.5,-388 453.5,-388 453.5,-407"/>
<text text-anchor="middle" x="408" y="-395" font-family="Helvetica,sans-Serif" font-size="10.00">func_8008E884</text>
</a>
</g>
</g>
<!-- Node2&#45;&gt;Node9 -->
<g id="edge8_Node000002_Node000009" class="edge">
<title>Node2&#45;&gt;Node9</title>
<g id="a_edge8_Node000002_Node000009"><a xlink:title=" ">
<path fill="none" stroke="#63b8ff" d="M267.11,-368.26C291.84,-373.43 324.78,-380.31 352.48,-386.1"/>
<polygon fill="#63b8ff" stroke="#63b8ff" points="351.92,-389.56 362.42,-388.18 353.35,-382.71 351.92,-389.56"/>
</a>
</g>
</g>
<!-- Node10 -->
<g id="Node000010" class="node">
<title>Node10</title>
<g id="a_Node000010"><a xlink:href="effects_8c.html#ae02351b6bbb678b552ec8864b47fc56c" target="_top" xlink:title=" ">
<polygon fill="white" stroke="#666666" points="453.5,-370 362.5,-370 362.5,-351 453.5,-351 453.5,-370"/>
<text text-anchor="middle" x="408" y="-358" font-family="Helvetica,sans-Serif" font-size="10.00">func_8008F3E0</text>
</a>
</g>
</g>
<!-- Node2&#45;&gt;Node10 -->
<g id="edge9_Node000002_Node000010" class="edge">
<title>Node2&#45;&gt;Node10</title>
<g id="a_edge9_Node000002_Node000010"><a xlink:title=" ">
<path fill="none" stroke="#63b8ff" d="M267.11,-360.5C291.73,-360.5 324.49,-360.5 352.11,-360.5"/>
<polygon fill="#63b8ff" stroke="#63b8ff" points="352.42,-364 362.42,-360.5 352.42,-357 352.42,-364"/>
</a>
</g>
</g>
<!-- Node11 -->
<g id="Node000011" class="node">
<title>Node11</title>
<g id="a_Node000011"><a xlink:href="effects_8c.html#ab5125d5944958f891647b27b440d3d62" target="_top" xlink:title=" ">
<polygon fill="white" stroke="#666666" points="454,-333 362,-333 362,-314 454,-314 454,-333"/>
<text text-anchor="middle" x="408" y="-321" font-family="Helvetica,sans-Serif" font-size="10.00">func_8008F5A4</text>
</a>
</g>
</g>
<!-- Node2&#45;&gt;Node11 -->
<g id="edge10_Node000002_Node000011" class="edge">
<title>Node2&#45;&gt;Node11</title>
<g id="a_edge10_Node000002_Node000011"><a xlink:title=" ">
<path fill="none" stroke="#63b8ff" d="M267.11,-352.74C291.66,-347.61 324.3,-340.79 351.87,-335.02"/>
<polygon fill="#63b8ff" stroke="#63b8ff" points="352.7,-338.43 361.78,-332.95 351.27,-331.57 352.7,-338.43"/>
</a>
</g>
</g>
<!-- Node16 -->
<g id="Node000016" class="node">
<title>Node16</title>
<g id="a_Node000016"><a xlink:href="effects_8c.html#a2f183005a5e85816dd81508847c1904d" target="_top" xlink:title=" ">
<polygon fill="white" stroke="#666666" points="454.5,-296 361.5,-296 361.5,-277 454.5,-277 454.5,-296"/>
<text text-anchor="middle" x="408" y="-284" font-family="Helvetica,sans-Serif" font-size="10.00">func_8008FEDC</text>
</a>
</g>
</g>
<!-- Node2&#45;&gt;Node16 -->
<g id="edge15_Node000002_Node000016" class="edge">
<title>Node2&#45;&gt;Node16</title>
<g id="a_edge15_Node000002_Node000016"><a xlink:title=" ">
<path fill="none" stroke="#63b8ff" d="M244.48,-350.81C263.25,-338.66 297.32,-317.9 329,-305.5 336.21,-302.68 343.96,-300.19 351.68,-298.02"/>
<polygon fill="#63b8ff" stroke="#63b8ff" points="352.64,-301.38 361.4,-295.43 350.84,-294.62 352.64,-301.38"/>
</a>
</g>
</g>
<!-- Node17 -->
<g id="Node000017" class="node">
<title>Node17</title>
<g id="a_Node000017"><a xlink:href="effects_8c.html#a4768d56263e476d3bac47ee01bac3dc8" target="_top" xlink:title=" ">
<polygon fill="white" stroke="#666666" points="487,-258.5 329,-258.5 329,-228.5 487,-228.5 487,-258.5"/>
<text text-anchor="start" x="337" y="-246.5" font-family="Helvetica,sans-Serif" font-size="10.00">remove_boost_ramp_asphalt</text>
<text text-anchor="middle" x="408" y="-235.5" font-family="Helvetica,sans-Serif" font-size="10.00">_effect</text>
</a>
</g>
</g>
<!-- Node2&#45;&gt;Node17 -->
<g id="edge16_Node000002_Node000017" class="edge">
<title>Node2&#45;&gt;Node17</title>
<g id="a_edge16_Node000002_Node000017"><a xlink:title=" ">
<path fill="none" stroke="#63b8ff" d="M237.69,-350.97C253.12,-332.47 289.71,-291.49 329,-268.5 332.66,-266.36 336.52,-264.38 340.5,-262.55"/>
<polygon fill="#63b8ff" stroke="#63b8ff" points="342.08,-265.68 349.92,-258.55 339.34,-259.23 342.08,-265.68"/>
</a>
</g>
</g>
<!-- Node18 -->
<g id="Node000018" class="node">
<title>Node18</title>
<g id="a_Node000018"><a xlink:href="effects_8c.html#aafe14c45e9b91bb1d409ef2f2bfe5c53" target="_top" xlink:title=" ">
<polygon fill="white" stroke="#666666" points="482.5,-210.5 333.5,-210.5 333.5,-180.5 482.5,-180.5 482.5,-210.5"/>
<text text-anchor="start" x="341.5" y="-198.5" font-family="Helvetica,sans-Serif" font-size="10.00">remove_boost_ramp_wood</text>
<text text-anchor="middle" x="408" y="-187.5" font-family="Helvetica,sans-Serif" font-size="10.00">_effect</text>
</a>
</g>
</g>
<!-- Node2&#45;&gt;Node18 -->
<g id="edge17_Node000002_Node000018" class="edge">
<title>Node2&#45;&gt;Node18</title>
<g id="a_edge17_Node000002_Node000018"><a xlink:title=" ">
<path fill="none" stroke="#63b8ff" d="M233.99,-350.98C245.1,-325.63 278.92,-255.91 329,-219.5 331.06,-218.01 333.21,-216.6 335.43,-215.29"/>
<polygon fill="#63b8ff" stroke="#63b8ff" points="337.08,-218.37 344.3,-210.62 333.82,-212.18 337.08,-218.37"/>
</a>
</g>
</g>
<!-- Node19 -->
<g id="Node000019" class="node">
<title>Node19</title>
<g id="a_Node000019"><a xlink:href="effects_8c.html#a5f1aead641683fd07375d6737dfafac2" target="_top" xlink:title=" ">
<polygon fill="white" stroke="#666666" points="464.5,-162.5 351.5,-162.5 351.5,-132.5 464.5,-132.5 464.5,-162.5"/>
<text text-anchor="start" x="359.5" y="-150.5" font-family="Helvetica,sans-Serif" font-size="10.00">remove_hit_by_star</text>
<text text-anchor="middle" x="408" y="-139.5" font-family="Helvetica,sans-Serif" font-size="10.00">_effect</text>
</a>
</g>
</g>
<!-- Node2&#45;&gt;Node19 -->
<g id="edge18_Node000002_Node000019" class="edge">
<title>Node2&#45;&gt;Node19</title>
<g id="a_edge18_Node000002_Node000019"><a xlink:title=" ">
<path fill="none" stroke="#63b8ff" d="M232.2,-351C239.82,-320.2 268.04,-222.16 329,-171.5 332.98,-168.19 337.42,-165.33 342.1,-162.87"/>
<polygon fill="#63b8ff" stroke="#63b8ff" points="343.73,-165.98 351.34,-158.61 340.8,-159.62 343.73,-165.98"/>
</a>
</g>
</g>
<!-- Node20 -->
<g id="Node000020" class="node">
<title>Node20</title>
<g id="a_Node000020"><a xlink:href="effects_8c.html#a9be2cc0ebbe72a9d5276a4fd2675eef3" target="_top" xlink:title=" ">
<polygon fill="white" stroke="#666666" points="480.5,-114 335.5,-114 335.5,-95 480.5,-95 480.5,-114"/>
<text text-anchor="middle" x="408" y="-102" font-family="Helvetica,sans-Serif" font-size="10.00">remove_mushroom_effect</text>
</a>
</g>
</g>
<!-- Node2&#45;&gt;Node20 -->
<g id="edge19_Node000002_Node000020" class="edge">
<title>Node2&#45;&gt;Node20</title>
<g id="a_edge19_Node000002_Node000020"><a xlink:title=" ">
<path fill="none" stroke="#63b8ff" d="M231.01,-350.56C235.27,-314.11 255.09,-186.64 329,-123.5 330.81,-121.96 332.72,-120.53 334.72,-119.22"/>
<polygon fill="#63b8ff" stroke="#63b8ff" points="336.86,-122.04 343.94,-114.16 333.49,-115.9 336.86,-122.04"/>
</a>
</g>
</g>
<!-- Node12 -->
<g id="Node000012" class="node">
<title>Node12</title>
<g id="a_Node000012"><a xlink:href="code__80057C60_8c.html#ae28b6eb556910087cea23f0cb7a322bd" target="_top" xlink:title=" ">
<polygon fill="white" stroke="#666666" points="635,-292 523,-292 523,-273 635,-273 635,-292"/>
<text text-anchor="middle" x="579" y="-280" font-family="Helvetica,sans-Serif" font-size="10.00">pop_player_balloon</text>
</a>
</g>
</g>
<!-- Node11&#45;&gt;Node12 -->
<g id="edge11_Node000011_Node000012" class="edge">
<title>Node11&#45;&gt;Node12</title>
<g id="a_edge11_Node000011_Node000012"><a xlink:title=" ">
<path fill="none" stroke="#63b8ff" d="M451.14,-313.94C462.77,-311.26 475.38,-308.31 487,-305.5 501.28,-302.05 516.78,-298.18 530.87,-294.61"/>
<polygon fill="#63b8ff" stroke="#63b8ff" points="532.02,-297.93 540.85,-292.07 530.3,-291.14 532.02,-297.93"/>
</a>
</g>
</g>
<!-- Node13 -->
<g id="Node000013" class="node">
<title>Node13</title>
<g id="a_Node000013"><a xlink:href="effects_8c.html#a1c7552c4a370cc015c2726e40f1fdb06" target="_top" xlink:title=" ">
<polygon fill="white" stroke="#666666" points="764,-292 671,-292 671,-273 764,-273 764,-292"/>
<text text-anchor="middle" x="717.5" y="-280" font-family="Helvetica,sans-Serif" font-size="10.00">func_8008FD4C</text>
</a>
</g>
</g>
<!-- Node12&#45;&gt;Node13 -->
<g id="edge12_Node000012_Node000013" class="edge">
<title>Node12&#45;&gt;Node13</title>
<g id="a_edge12_Node000012_Node000013"><a xlink:title=" ">
<path fill="none" stroke="#63b8ff" d="M635.13,-282.5C643.54,-282.5 652.24,-282.5 660.67,-282.5"/>
<polygon fill="#63b8ff" stroke="#63b8ff" points="660.79,-286 670.79,-282.5 660.79,-279 660.79,-286"/>
</a>
</g>
</g>
<!-- Node14 -->
<g id="Node000014" class="node">
<title>Node14</title>
<g id="a_Node000014"><a xlink:href="external_8c.html#a2be9efc97a92e19d02aaee90d676acc1" target="_top" xlink:title=" ">
<polygon fill="white" stroke="#666666" points="763.5,-214 671.5,-214 671.5,-195 763.5,-195 763.5,-214"/>
<text text-anchor="middle" x="717.5" y="-202" font-family="Helvetica,sans-Serif" font-size="10.00">func_800C9060</text>
</a>
</g>
</g>
<!-- Node12&#45;&gt;Node14 -->
<g id="edge13_Node000012_Node000014" class="edge">
<title>Node12&#45;&gt;Node14</title>
<g id="a_edge13_Node000012_Node000014"><a xlink:title=" ">
<path fill="none" stroke="#63b8ff" d="M596.74,-272.94C620.27,-259.49 663.35,-234.87 690.92,-219.12"/>
<polygon fill="#63b8ff" stroke="#63b8ff" points="692.68,-222.14 699.63,-214.14 689.21,-216.07 692.68,-222.14"/>
</a>
</g>
</g>
<!-- Node15 -->
<g id="Node000015" class="node">
<title>Node15</title>
<g id="a_Node000015"><a xlink:href="external_8c.html#a475cff796211891556f52877cd8e9b9e" target="_top" xlink:title=" ">
<polygon fill="white" stroke="#666666" points="872,-95 800,-95 800,-76 872,-76 872,-95"/>
<text text-anchor="middle" x="836" y="-83" font-family="Helvetica,sans-Serif" font-size="10.00">play_sound</text>
</a>
</g>
</g>
<!-- Node14&#45;&gt;Node15 -->
<g id="edge14_Node000014_Node000015" class="edge">
<title>Node14&#45;&gt;Node15</title>
<g id="a_edge14_Node000014_Node000015"><a xlink:title=" ">
<path fill="none" stroke="#63b8ff" d="M728.03,-194.76C747.84,-174.53 793.67,-127.72 818.42,-102.43"/>
<polygon fill="#63b8ff" stroke="#63b8ff" points="821.17,-104.63 825.66,-95.04 816.16,-99.74 821.17,-104.63"/>
</a>
</g>
</g>
<!-- Node21&#45;&gt;Node15 -->
<g id="edge21_Node000021_Node000015" class="edge">
<title>Node21&#45;&gt;Node15</title>
<g id="a_edge21_Node000021_Node000015"><a xlink:title=" ">
<path fill="none" stroke="#63b8ff" d="M625,-85.5C671.39,-85.5 743.32,-85.5 789.79,-85.5"/>
<polygon fill="#63b8ff" stroke="#63b8ff" points="789.87,-89 799.87,-85.5 789.87,-82 789.87,-89"/>
</a>
</g>
</g>
<!-- Node23 -->
<g id="Node000023" class="node">
<title>Node23</title>
<g id="a_Node000023"><a xlink:href="external_8c.html#aad3025d980410fa157174acbf923f8c0" target="_top" xlink:title=" ">
<polygon fill="white" stroke="#666666" points="454.5,-38 361.5,-38 361.5,-19 454.5,-19 454.5,-38"/>
<text text-anchor="middle" x="408" y="-26" font-family="Helvetica,sans-Serif" font-size="10.00">func_800C92CC</text>
</a>
</g>
</g>
<!-- Node22&#45;&gt;Node23 -->
<g id="edge23_Node000022_Node000023" class="edge">
<title>Node22&#45;&gt;Node23</title>
<g id="a_edge23_Node000022_Node000023"><a xlink:title=" ">
<path fill="none" stroke="#63b8ff" d="M293.4,-28.5C312.23,-28.5 332.71,-28.5 351.03,-28.5"/>
<polygon fill="#63b8ff" stroke="#63b8ff" points="351.25,-32 361.25,-28.5 351.25,-25 351.25,-32"/>
</a>
</g>
</g>
<!-- Node23&#45;&gt;Node15 -->
<g id="edge25_Node000023_Node000015" class="edge">
<title>Node23&#45;&gt;Node15</title>
<g id="a_edge25_Node000023_Node000015"><a xlink:title=" ">
<path fill="none" stroke="#63b8ff" d="M454.59,-34.6C536.62,-45.58 708.12,-68.52 789.84,-79.46"/>
<polygon fill="#63b8ff" stroke="#63b8ff" points="789.44,-82.94 799.82,-80.79 790.37,-76 789.44,-82.94"/>
</a>
</g>
</g>
<!-- Node24 -->
<g id="Node000024" class="node">
<title>Node24</title>
<g id="a_Node000024"><a xlink:href="external_8c.html#a747de0be4005b4b29150d5c068564b7d" target="_top" xlink:title=" ">
<polygon fill="white" stroke="#666666" points="625,-19 533,-19 533,0 625,0 625,-19"/>
<text text-anchor="middle" x="579" y="-7" font-family="Helvetica,sans-Serif" font-size="10.00">func_800C1C88</text>
</a>
</g>
</g>
<!-- Node23&#45;&gt;Node24 -->
<g id="edge24_Node000023_Node000024" class="edge">
<title>Node23&#45;&gt;Node24</title>
<g id="a_edge24_Node000023_Node000024"><a xlink:title=" ">
<path fill="none" stroke="#63b8ff" d="M454.73,-23.36C475.66,-21.01 500.64,-18.2 522.62,-15.73"/>
<polygon fill="#63b8ff" stroke="#63b8ff" points="523.27,-19.18 532.82,-14.58 522.49,-12.22 523.27,-19.18"/>
</a>
</g>
</g>
</g>
</svg>

<g id="navigator" transform="translate(0 0)" fill="#404254">
  <rect fill="#f2f5e9" fill-opacity="0.5" stroke="#606060" stroke-width=".5" x="0" y="0" width="60" height="60"/>
  <use id="zoomplus" xlink:href="#zoomPlus" x="17" y="9" onmousedown="handleZoom(evt,'in')"/>
  <use id="zoomminus" xlink:href="#zoomMin" x="42" y="9" onmousedown="handleZoom(evt,'out')"/>
  <use id="reset" xlink:href="#resetDef" x="30" y="36" onmousedown="handleReset()"/>
   <use id="arrowup" xlink:href="#arrowUp" x="0" y="0" onmousedown="handlePan(0,-1)"/>
  <use id="arrowright" xlink:href="#arrowRight" x="0" y="0" onmousedown="handlePan(1,0)"/>
  <use id="arrowdown" xlink:href="#arrowDown" x="0" y="0" onmousedown="handlePan(0,1)"/>
  <use id="arrowleft" xlink:href="#arrowLeft" x="0" y="0" onmousedown="handlePan(-1,0)"/>
</g>
<svg viewBox="0 0 15 15" width="100%" height="30px" preserveAspectRatio="xMaxYMin meet">
 <g id="arrow_out" transform="scale(0.3 0.3)">
  <a xlink:href="effects_8c_a8441812a1c6df3009182a34af2f6065f_cgraph_org.svg" target="_base">
   <rect id="button" ry="5" rx="5" y="6" x="6" height="38" width="38"
        fill="#f2f5e9" fill-opacity="0.5" stroke="#606060" stroke-width="1.0"/>
   <path id="arrow"
     d="M 11.500037,31.436501 C 11.940474,20.09759 22.043105,11.32322 32.158766,21.979434 L 37.068811,17.246167 C 37.068811,17.246167 37.088388,32 37.088388,32 L 22.160133,31.978069 C 22.160133,31.978069 26.997745,27.140456 26.997745,27.140456 C 18.528582,18.264221 13.291696,25.230495 11.500037,31.436501 z"
     style="fill:#404040;"/>
  </a>
 </g>
</svg>

<style type='text/css'>
<![CDATA[
[data-mouse-over-selected='false'] { opacity: 0.7; }
[data-mouse-over-selected='true']  { opacity: 1.0; }
]]>
</style>
<script type="application/ecmascript"><![CDATA[
document.addEventListener('DOMContentLoaded', (event) => {
  highlightEdges();
  highlightAdjacentNodes();
});
]]></script>
</svg>
