<?xml version="1.0" encoding="UTF-8" standalone="no"?>
<!DOCTYPE svg PUBLIC "-//W3C//DTD SVG 1.1//EN"
 "http://www.w3.org/Graphics/SVG/1.1/DTD/svg11.dtd">
<!-- Generated by graphviz version 2.43.0 (0)
 -->
<!-- Title: apply_hit_rotating_sound_effect Pages: 1 -->
<!--zoomable 693 -->

<svg id="main" version="1.1" xmlns="http://www.w3.org/2000/svg" xmlns:xlink="http://www.w3.org/1999/xlink" xml:space="preserve" onload="init(evt)">
<style type="text/css"><![CDATA[
.node, .edge {opacity: 0.7;}
.node.selected, .edge.selected {opacity: 1;}
.edge:hover path { stroke: red; }
.edge:hover polygon { stroke: red; fill: red; }
]]></style>

<defs>
  <circle id="rim" cx="0" cy="0" r="7"/>
  <circle id="rim2" cx="0" cy="0" r="3.5"/>
  <g id="zoomPlus">
    <use xlink:href="#rim" fill="#404040"><set attributeName="fill" to="#808080" begin="zoomplus.mouseover" end="zoomplus.mouseout"/></use>
    <path d="M-4,0h8M0,-4v8" fill="none" stroke="white" stroke-width="1.5" pointer-events="none"/>
  </g>
  <g id="zoomMin">
    <use xlink:href="#rim" fill="#404040"><set attributeName="fill" to="#808080" begin="zoomminus.mouseover" end="zoomminus.mouseout"/></use>
    <path d="M-4,0h8" fill="none" stroke="white" stroke-width="1.5" pointer-events="none"/>
  </g>
  <g id="arrowUp" transform="translate(30 24)">
    <use xlink:href="#rim"/>
    <path pointer-events="none" fill="none" stroke="white" stroke-width="1.5" d="M0,-3.0v7 M-2.5,-0.5L0,-3.0L2.5,-0.5"/>
  </g>
  <g id="arrowRight" transform="rotate(90) translate(36 -43)">
    <use xlink:href="#rim"/>
    <path pointer-events="none" fill="none" stroke="white" stroke-width="1.5" d="M0,-3.0v7 M-2.5,-0.5L0,-3.0L2.5,-0.5"/>
  </g>
  <g id="arrowDown" transform="rotate(180) translate(-30 -48)">
    <use xlink:href="#rim"/>
    <path pointer-events="none" fill="none" stroke="white" stroke-width="1.5" d="M0,-3.0v7 M-2.5,-0.5L0,-3.0L2.5,-0.5"/>
  </g>
  <g id="arrowLeft" transform="rotate(270) translate(-36 17)">
    <use xlink:href="#rim"/>
    <path pointer-events="none" fill="none" stroke="white" stroke-width="1.5" d="M0,-3.0v7 M-2.5,-0.5L0,-3.0L2.5,-0.5"/>
  </g>
  <g id="resetDef">
    <use xlink:href="#rim2" fill="#404040"><set attributeName="fill" to="#808080" begin="reset.mouseover" end="reset.mouseout"/></use>
  </g>
</defs>
<script type="application/ecmascript">
var viewWidth = 856;
var viewHeight = 693;
var sectionId = 'dynsection-24';
</script>
<script type="application/ecmascript" xlink:href="svg.min.js"/>
<svg id="graph" class="graph">
<g id="viewport">
<title>apply_hit_rotating_sound_effect</title>
<!-- Node1 -->
<g id="Node000001" class="node">
<title>Node1</title>
<g id="a_Node000001"><a xlink:title=" ">
<polygon fill="#999999" stroke="#666666" points="105,-119.5 0,-119.5 0,-89.5 105,-89.5 105,-119.5"/>
<text text-anchor="start" x="8" y="-107.5" font-family="Helvetica,sans-Serif" font-size="10.00">apply_hit_rotating</text>
<text text-anchor="middle" x="52.5" y="-96.5" font-family="Helvetica,sans-Serif" font-size="10.00">_sound_effect</text>
</a>
</g>
</g>
<!-- Node2 -->
<g id="Node000002" class="node">
<title>Node2</title>
<g id="a_Node000002"><a xlink:href="effects_8c.html#a6559cc02e5bb1a4e7fe6c97850cdd87e" target="_top" xlink:title=" ">
<polygon fill="white" stroke="#666666" points="243,-426 167,-426 167,-407 243,-407 243,-426"/>
<text text-anchor="middle" x="205" y="-414" font-family="Helvetica,sans-Serif" font-size="10.00">clean_effect</text>
</a>
</g>
</g>
<!-- Node1&#45;&gt;Node2 -->
<g id="edge1_Node000001_Node000002" class="edge">
<title>Node1&#45;&gt;Node2</title>
<g id="a_edge1_Node000001_Node000002"><a xlink:title=" ">
<path fill="none" stroke="#63b8ff" d="M60.76,-119.55C85.63,-171.12 167.41,-340.64 194.9,-397.62"/>
<polygon fill="#63b8ff" stroke="#63b8ff" points="191.87,-399.41 199.37,-406.9 198.18,-396.37 191.87,-399.41"/>
</a>
</g>
</g>
<!-- Node12 -->
<g id="Node000012" class="node">
<title>Node12</title>
<g id="a_Node000012"><a xlink:href="code__80057C60_8c.html#ae28b6eb556910087cea23f0cb7a322bd" target="_top" xlink:title=" ">
<polygon fill="white" stroke="#666666" points="611,-152 499,-152 499,-133 611,-133 611,-152"/>
<text text-anchor="middle" x="555" y="-140" font-family="Helvetica,sans-Serif" font-size="10.00">pop_player_balloon</text>
</a>
</g>
</g>
<!-- Node1&#45;&gt;Node12 -->
<g id="edge26_Node000001_Node000012" class="edge">
<title>Node1&#45;&gt;Node12</title>
<g id="a_edge26_Node000001_Node000012"><a xlink:title=" ">
<path fill="none" stroke="#63b8ff" d="M105.18,-108.42C196.93,-115.39 388.1,-129.9 488.77,-137.55"/>
<polygon fill="#63b8ff" stroke="#63b8ff" points="488.57,-141.04 498.81,-138.31 489.1,-134.06 488.57,-141.04"/>
</a>
</g>
</g>
<!-- Node21 -->
<g id="Node000021" class="node">
<title>Node21</title>
<g id="a_Node000021"><a xlink:href="external_8c.html#a337fc3ab94ebb3293a85908229303ac8" target="_top" xlink:title=" ">
<polygon fill="white" stroke="#666666" points="601,-95 509,-95 509,-76 601,-76 601,-95"/>
<text text-anchor="middle" x="555" y="-83" font-family="Helvetica,sans-Serif" font-size="10.00">func_800C90F4</text>
</a>
</g>
</g>
<!-- Node1&#45;&gt;Node21 -->
<g id="edge20_Node000001_Node000021" class="edge">
<title>Node1&#45;&gt;Node21</title>
<g id="a_edge20_Node000001_Node000021"><a xlink:title=" ">
<path fill="none" stroke="#63b8ff" d="M105.18,-102.54C200,-98.94 400.99,-91.31 498.55,-87.6"/>
<polygon fill="#63b8ff" stroke="#63b8ff" points="498.94,-91.09 508.8,-87.22 498.67,-84.1 498.94,-91.09"/>
</a>
</g>
</g>
<!-- Node22 -->
<g id="Node000022" class="node">
<title>Node22</title>
<g id="a_Node000022"><a xlink:href="cpu__vehicles__camera__path_8c.html#adb9b8cd30f2be4e125706fa55ea2272d" target="_top" xlink:title=" ">
<polygon fill="white" stroke="#666666" points="269,-57 141,-57 141,-38 269,-38 269,-57"/>
<text text-anchor="middle" x="205" y="-45" font-family="Helvetica,sans-Serif" font-size="10.00">play_cpu_sound_effect</text>
</a>
</g>
</g>
<!-- Node1&#45;&gt;Node22 -->
<g id="edge22_Node000001_Node000022" class="edge">
<title>Node1&#45;&gt;Node22</title>
<g id="a_edge22_Node000001_Node000022"><a xlink:title=" ">
<path fill="none" stroke="#63b8ff" d="M93.44,-89.37C116.95,-80.47 146.42,-69.31 169.02,-60.75"/>
<polygon fill="#63b8ff" stroke="#63b8ff" points="170.44,-63.95 178.56,-57.14 167.96,-57.41 170.44,-63.95"/>
</a>
</g>
</g>
<!-- Node3 -->
<g id="Node000003" class="node">
<title>Node3</title>
<g id="a_Node000003"><a xlink:href="effects_8c.html#a7fef1af5ca366a9346478d94239c6142" target="_top" xlink:title=" ">
<polygon fill="white" stroke="#666666" points="430.5,-685 337.5,-685 337.5,-666 430.5,-666 430.5,-685"/>
<text text-anchor="middle" x="384" y="-673" font-family="Helvetica,sans-Serif" font-size="10.00">func_8008C6D0</text>
</a>
</g>
</g>
<!-- Node2&#45;&gt;Node3 -->
<g id="edge2_Node000002_Node000003" class="edge">
<title>Node2&#45;&gt;Node3</title>
<g id="a_edge2_Node000002_Node000003"><a xlink:title=" ">
<path fill="none" stroke="#63b8ff" d="M206.87,-426.13C210.72,-462.6 229.48,-593.39 305,-657.5 311.47,-663 319.3,-666.89 327.46,-669.64"/>
<polygon fill="#63b8ff" stroke="#63b8ff" points="326.57,-673.03 337.14,-672.37 328.46,-666.29 326.57,-673.03"/>
</a>
</g>
</g>
<!-- Node4 -->
<g id="Node000004" class="node">
<title>Node4</title>
<g id="a_Node000004"><a xlink:href="effects_8c.html#a105203221e314be241a95e006b62ef80" target="_top" xlink:title=" ">
<polygon fill="white" stroke="#666666" points="430,-648 338,-648 338,-629 430,-629 430,-648"/>
<text text-anchor="middle" x="384" y="-636" font-family="Helvetica,sans-Serif" font-size="10.00">func_8008C8C4</text>
</a>
</g>
</g>
<!-- Node2&#45;&gt;Node4 -->
<g id="edge3_Node000002_Node000004" class="edge">
<title>Node2&#45;&gt;Node4</title>
<g id="a_edge3_Node000002_Node000004"><a xlink:title=" ">
<path fill="none" stroke="#63b8ff" d="M207.63,-426C213.74,-458.71 238.5,-567.5 305,-620.5 311.72,-625.85 319.74,-629.67 328.04,-632.38"/>
<polygon fill="#63b8ff" stroke="#63b8ff" points="327.29,-635.81 337.86,-635.08 329.15,-629.06 327.29,-635.81"/>
</a>
</g>
</g>
<!-- Node5 -->
<g id="Node000005" class="node">
<title>Node5</title>
<g id="a_Node000005"><a xlink:href="effects_8c.html#a79f63da92dad1b64803f6849f71e4eee" target="_top" xlink:title=" ">
<polygon fill="white" stroke="#666666" points="430,-611 338,-611 338,-592 430,-592 430,-611"/>
<text text-anchor="middle" x="384" y="-599" font-family="Helvetica,sans-Serif" font-size="10.00">func_8008D0E4</text>
</a>
</g>
</g>
<!-- Node2&#45;&gt;Node5 -->
<g id="edge4_Node000002_Node000005" class="edge">
<title>Node2&#45;&gt;Node5</title>
<g id="a_edge4_Node000002_Node000005"><a xlink:title=" ">
<path fill="none" stroke="#63b8ff" d="M208.78,-426.28C217.56,-455.3 247.59,-541.53 305,-583.5 311.85,-588.51 319.88,-592.15 328.13,-594.8"/>
<polygon fill="#63b8ff" stroke="#63b8ff" points="327.28,-598.2 337.85,-597.47 329.13,-591.45 327.28,-598.2"/>
</a>
</g>
</g>
<!-- Node6 -->
<g id="Node000006" class="node">
<title>Node6</title>
<g id="a_Node000006"><a xlink:href="effects_8c.html#a66120f679d001e0da8c5e769b6582aeb" target="_top" xlink:title=" ">
<polygon fill="white" stroke="#666666" points="430.5,-574 337.5,-574 337.5,-555 430.5,-555 430.5,-574"/>
<text text-anchor="middle" x="384" y="-562" font-family="Helvetica,sans-Serif" font-size="10.00">func_8008D3B0</text>
</a>
</g>
</g>
<!-- Node2&#45;&gt;Node6 -->
<g id="edge5_Node000002_Node000006" class="edge">
<title>Node2&#45;&gt;Node6</title>
<g id="a_edge5_Node000002_Node000006"><a xlink:title=" ">
<path fill="none" stroke="#63b8ff" d="M210.4,-426.17C222.05,-450.57 256.14,-514.95 305,-546.5 311.81,-550.9 319.56,-554.22 327.47,-556.74"/>
<polygon fill="#63b8ff" stroke="#63b8ff" points="326.58,-560.12 337.15,-559.43 328.45,-553.38 326.58,-560.12"/>
</a>
</g>
</g>
<!-- Node7 -->
<g id="Node000007" class="node">
<title>Node7</title>
<g id="a_Node000007"><a xlink:href="effects_8c.html#a5f19eaaa048055d292d02c717e635786" target="_top" xlink:title=" ">
<polygon fill="white" stroke="#666666" points="430,-537 338,-537 338,-518 430,-518 430,-537"/>
<text text-anchor="middle" x="384" y="-525" font-family="Helvetica,sans-Serif" font-size="10.00">func_8008D760</text>
</a>
</g>
</g>
<!-- Node2&#45;&gt;Node7 -->
<g id="edge6_Node000002_Node000007" class="edge">
<title>Node2&#45;&gt;Node7</title>
<g id="a_edge6_Node000002_Node000007"><a xlink:title=" ">
<path fill="none" stroke="#63b8ff" d="M213.28,-426.14C228.23,-445.22 264.44,-487.84 305,-509.5 312.15,-513.32 320.08,-516.33 328.08,-518.7"/>
<polygon fill="#63b8ff" stroke="#63b8ff" points="327.25,-522.1 337.81,-521.3 329.05,-515.34 327.25,-522.1"/>
</a>
</g>
</g>
<!-- Node8 -->
<g id="Node000008" class="node">
<title>Node8</title>
<g id="a_Node000008"><a xlink:href="effects_8c.html#a4ea2da0616ee3c475e4be217dc0bc71f" target="_top" xlink:title=" ">
<polygon fill="white" stroke="#666666" points="430.5,-500 337.5,-500 337.5,-481 430.5,-481 430.5,-500"/>
<text text-anchor="middle" x="384" y="-488" font-family="Helvetica,sans-Serif" font-size="10.00">func_8008D97C</text>
</a>
</g>
</g>
<!-- Node2&#45;&gt;Node8 -->
<g id="edge7_Node000002_Node000008" class="edge">
<title>Node2&#45;&gt;Node8</title>
<g id="a_edge7_Node000002_Node000008"><a xlink:title=" ">
<path fill="none" stroke="#63b8ff" d="M219.79,-426.01C238.36,-438.41 272.79,-459.98 305,-472.5 312.2,-475.3 319.94,-477.73 327.66,-479.82"/>
<polygon fill="#63b8ff" stroke="#63b8ff" points="326.82,-483.22 337.37,-482.29 328.55,-476.43 326.82,-483.22"/>
</a>
</g>
</g>
<!-- Node9 -->
<g id="Node000009" class="node">
<title>Node9</title>
<g id="a_Node000009"><a xlink:href="effects_8c.html#a13005f7c39388deade6ba0491d7c5918" target="_top" xlink:title=" ">
<polygon fill="white" stroke="#666666" points="429.5,-463 338.5,-463 338.5,-444 429.5,-444 429.5,-463"/>
<text text-anchor="middle" x="384" y="-451" font-family="Helvetica,sans-Serif" font-size="10.00">func_8008E884</text>
</a>
</g>
</g>
<!-- Node2&#45;&gt;Node9 -->
<g id="edge8_Node000002_Node000009" class="edge">
<title>Node2&#45;&gt;Node9</title>
<g id="a_edge8_Node000002_Node000009"><a xlink:title=" ">
<path fill="none" stroke="#63b8ff" d="M243.11,-424.26C267.84,-429.43 300.78,-436.31 328.48,-442.1"/>
<polygon fill="#63b8ff" stroke="#63b8ff" points="327.92,-445.56 338.42,-444.18 329.35,-438.71 327.92,-445.56"/>
</a>
</g>
</g>
<!-- Node10 -->
<g id="Node000010" class="node">
<title>Node10</title>
<g id="a_Node000010"><a xlink:href="effects_8c.html#ae02351b6bbb678b552ec8864b47fc56c" target="_top" xlink:title=" ">
<polygon fill="white" stroke="#666666" points="429.5,-426 338.5,-426 338.5,-407 429.5,-407 429.5,-426"/>
<text text-anchor="middle" x="384" y="-414" font-family="Helvetica,sans-Serif" font-size="10.00">func_8008F3E0</text>
</a>
</g>
</g>
<!-- Node2&#45;&gt;Node10 -->
<g id="edge9_Node000002_Node000010" class="edge">
<title>Node2&#45;&gt;Node10</title>
<g id="a_edge9_Node000002_Node000010"><a xlink:title=" ">
<path fill="none" stroke="#63b8ff" d="M243.11,-416.5C267.73,-416.5 300.49,-416.5 328.11,-416.5"/>
<polygon fill="#63b8ff" stroke="#63b8ff" points="328.42,-420 338.42,-416.5 328.42,-413 328.42,-420"/>
</a>
</g>
</g>
<!-- Node11 -->
<g id="Node000011" class="node">
<title>Node11</title>
<g id="a_Node000011"><a xlink:href="effects_8c.html#ab5125d5944958f891647b27b440d3d62" target="_top" xlink:title=" ">
<polygon fill="white" stroke="#666666" points="430,-389 338,-389 338,-370 430,-370 430,-389"/>
<text text-anchor="middle" x="384" y="-377" font-family="Helvetica,sans-Serif" font-size="10.00">func_8008F5A4</text>
</a>
</g>
</g>
<!-- Node2&#45;&gt;Node11 -->
<g id="edge10_Node000002_Node000011" class="edge">
<title>Node2&#45;&gt;Node11</title>
<g id="a_edge10_Node000002_Node000011"><a xlink:title=" ">
<path fill="none" stroke="#63b8ff" d="M243.11,-408.74C267.66,-403.61 300.3,-396.79 327.87,-391.02"/>
<polygon fill="#63b8ff" stroke="#63b8ff" points="328.7,-394.43 337.78,-388.95 327.27,-387.57 328.7,-394.43"/>
</a>
</g>
</g>
<!-- Node16 -->
<g id="Node000016" class="node">
<title>Node16</title>
<g id="a_Node000016"><a xlink:href="effects_8c.html#a2f183005a5e85816dd81508847c1904d" target="_top" xlink:title=" ">
<polygon fill="white" stroke="#666666" points="430.5,-352 337.5,-352 337.5,-333 430.5,-333 430.5,-352"/>
<text text-anchor="middle" x="384" y="-340" font-family="Helvetica,sans-Serif" font-size="10.00">func_8008FEDC</text>
</a>
</g>
</g>
<!-- Node2&#45;&gt;Node16 -->
<g id="edge15_Node000002_Node000016" class="edge">
<title>Node2&#45;&gt;Node16</title>
<g id="a_edge15_Node000002_Node000016"><a xlink:title=" ">
<path fill="none" stroke="#63b8ff" d="M220.48,-406.81C239.25,-394.66 273.32,-373.9 305,-361.5 312.21,-358.68 319.96,-356.19 327.68,-354.02"/>
<polygon fill="#63b8ff" stroke="#63b8ff" points="328.64,-357.38 337.4,-351.43 326.84,-350.62 328.64,-357.38"/>
</a>
</g>
</g>
<!-- Node17 -->
<g id="Node000017" class="node">
<title>Node17</title>
<g id="a_Node000017"><a xlink:href="effects_8c.html#a5b9e2c886a5267f2cca1190984277a38" target="_top" xlink:title=" ">
<polygon fill="white" stroke="#666666" points="443.5,-315 324.5,-315 324.5,-296 443.5,-296 443.5,-315"/>
<text text-anchor="middle" x="384" y="-303" font-family="Helvetica,sans-Serif" font-size="10.00">remove_boost_effect</text>
</a>
</g>
</g>
<!-- Node2&#45;&gt;Node17 -->
<g id="edge16_Node000002_Node000017" class="edge">
<title>Node2&#45;&gt;Node17</title>
<g id="a_edge16_Node000002_Node000017"><a xlink:title=" ">
<path fill="none" stroke="#63b8ff" d="M213.56,-406.72C228.73,-387.78 264.92,-346.08 305,-324.5 309.3,-322.19 313.88,-320.15 318.59,-318.36"/>
<polygon fill="#63b8ff" stroke="#63b8ff" points="320.05,-321.56 328.38,-315.01 317.79,-314.93 320.05,-321.56"/>
</a>
</g>
</g>
<!-- Node18 -->
<g id="Node000018" class="node">
<title>Node18</title>
<g id="a_Node000018"><a xlink:href="effects_8c.html#a4768d56263e476d3bac47ee01bac3dc8" target="_top" xlink:title=" ">
<polygon fill="white" stroke="#666666" points="463,-277.5 305,-277.5 305,-247.5 463,-247.5 463,-277.5"/>
<text text-anchor="start" x="313" y="-265.5" font-family="Helvetica,sans-Serif" font-size="10.00">remove_boost_ramp_asphalt</text>
<text text-anchor="middle" x="384" y="-254.5" font-family="Helvetica,sans-Serif" font-size="10.00">_effect</text>
</a>
</g>
</g>
<!-- Node2&#45;&gt;Node18 -->
<g id="edge17_Node000002_Node000018" class="edge">
<title>Node2&#45;&gt;Node18</title>
<g id="a_edge17_Node000002_Node000018"><a xlink:title=" ">
<path fill="none" stroke="#63b8ff" d="M210.76,-406.8C223,-382.88 257.9,-320.64 305,-287.5 307.73,-285.58 310.62,-283.8 313.61,-282.15"/>
<polygon fill="#63b8ff" stroke="#63b8ff" points="315.43,-285.15 322.85,-277.59 312.33,-278.88 315.43,-285.15"/>
</a>
</g>
</g>
<!-- Node19 -->
<g id="Node000019" class="node">
<title>Node19</title>
<g id="a_Node000019"><a xlink:href="effects_8c.html#aafe14c45e9b91bb1d409ef2f2bfe5c53" target="_top" xlink:title=" ">
<polygon fill="white" stroke="#666666" points="458.5,-229.5 309.5,-229.5 309.5,-199.5 458.5,-199.5 458.5,-229.5"/>
<text text-anchor="start" x="317.5" y="-217.5" font-family="Helvetica,sans-Serif" font-size="10.00">remove_boost_ramp_wood</text>
<text text-anchor="middle" x="384" y="-206.5" font-family="Helvetica,sans-Serif" font-size="10.00">_effect</text>
</a>
</g>
</g>
<!-- Node2&#45;&gt;Node19 -->
<g id="edge18_Node000002_Node000019" class="edge">
<title>Node2&#45;&gt;Node19</title>
<g id="a_edge18_Node000002_Node000019"><a xlink:title=" ">
<path fill="none" stroke="#63b8ff" d="M208.61,-406.71C217.08,-376.79 246.75,-285.69 305,-238.5 306.74,-237.09 308.57,-235.76 310.46,-234.51"/>
<polygon fill="#63b8ff" stroke="#63b8ff" points="312.22,-237.53 319.13,-229.5 308.72,-231.47 312.22,-237.53"/>
</a>
</g>
</g>
<!-- Node20 -->
<g id="Node000020" class="node">
<title>Node20</title>
<g id="a_Node000020"><a xlink:href="effects_8c.html#ab786df737be99c2f2ce6abda17b13d6b" target="_top" xlink:title=" ">
<polygon fill="white" stroke="#666666" points="442.5,-181.5 325.5,-181.5 325.5,-151.5 442.5,-151.5 442.5,-181.5"/>
<text text-anchor="start" x="333.5" y="-169.5" font-family="Helvetica,sans-Serif" font-size="10.00">remove_hit_by_item</text>
<text text-anchor="middle" x="384" y="-158.5" font-family="Helvetica,sans-Serif" font-size="10.00">_effect</text>
</a>
</g>
</g>
<!-- Node2&#45;&gt;Node20 -->
<g id="edge19_Node000002_Node000020" class="edge">
<title>Node2&#45;&gt;Node20</title>
<g id="a_edge19_Node000002_Node000020"><a xlink:title=" ">
<path fill="none" stroke="#63b8ff" d="M207.36,-406.67C212.73,-371.73 235.62,-252.36 305,-190.5 308.42,-187.45 312.23,-184.78 316.26,-182.46"/>
<polygon fill="#63b8ff" stroke="#63b8ff" points="318.03,-185.49 325.41,-177.89 314.9,-179.23 318.03,-185.49"/>
</a>
</g>
</g>
<!-- Node11&#45;&gt;Node12 -->
<g id="edge11_Node000011_Node000012" class="edge">
<title>Node11&#45;&gt;Node12</title>
<g id="a_edge11_Node000011_Node000012"><a xlink:title=" ">
<path fill="none" stroke="#63b8ff" d="M430.03,-376.53C441.8,-373.89 453.77,-369.31 463,-361.5 525.63,-308.55 545.89,-205.4 551.8,-162.24"/>
<polygon fill="#63b8ff" stroke="#63b8ff" points="555.29,-162.54 553.06,-152.18 548.34,-161.67 555.29,-162.54"/>
</a>
</g>
</g>
<!-- Node13 -->
<g id="Node000013" class="node">
<title>Node13</title>
<g id="a_Node000013"><a xlink:href="effects_8c.html#a1c7552c4a370cc015c2726e40f1fdb06" target="_top" xlink:title=" ">
<polygon fill="white" stroke="#666666" points="740,-170 647,-170 647,-151 740,-151 740,-170"/>
<text text-anchor="middle" x="693.5" y="-158" font-family="Helvetica,sans-Serif" font-size="10.00">func_8008FD4C</text>
</a>
</g>
</g>
<!-- Node12&#45;&gt;Node13 -->
<g id="edge12_Node000012_Node000013" class="edge">
<title>Node12&#45;&gt;Node13</title>
<g id="a_edge12_Node000012_Node000013"><a xlink:title=" ">
<path fill="none" stroke="#63b8ff" d="M611.13,-149.77C619.54,-150.88 628.24,-152.03 636.67,-153.14"/>
<polygon fill="#63b8ff" stroke="#63b8ff" points="636.41,-156.63 646.79,-154.47 637.33,-149.69 636.41,-156.63"/>
</a>
</g>
</g>
<!-- Node14 -->
<g id="Node000014" class="node">
<title>Node14</title>
<g id="a_Node000014"><a xlink:href="external_8c.html#a2be9efc97a92e19d02aaee90d676acc1" target="_top" xlink:title=" ">
<polygon fill="white" stroke="#666666" points="739.5,-133 647.5,-133 647.5,-114 739.5,-114 739.5,-133"/>
<text text-anchor="middle" x="693.5" y="-121" font-family="Helvetica,sans-Serif" font-size="10.00">func_800C9060</text>
</a>
</g>
</g>
<!-- Node12&#45;&gt;Node14 -->
<g id="edge13_Node000012_Node000014" class="edge">
<title>Node12&#45;&gt;Node14</title>
<g id="a_edge13_Node000012_Node000014"><a xlink:title=" ">
<path fill="none" stroke="#63b8ff" d="M611.13,-134.83C619.74,-133.63 628.65,-132.39 637.26,-131.19"/>
<polygon fill="#63b8ff" stroke="#63b8ff" points="637.79,-134.65 647.21,-129.8 636.83,-127.72 637.79,-134.65"/>
</a>
</g>
</g>
<!-- Node15 -->
<g id="Node000015" class="node">
<title>Node15</title>
<g id="a_Node000015"><a xlink:href="external_8c.html#a475cff796211891556f52877cd8e9b9e" target="_top" xlink:title=" ">
<polygon fill="white" stroke="#666666" points="848,-95 776,-95 776,-76 848,-76 848,-95"/>
<text text-anchor="middle" x="812" y="-83" font-family="Helvetica,sans-Serif" font-size="10.00">play_sound</text>
</a>
</g>
</g>
<!-- Node14&#45;&gt;Node15 -->
<g id="edge14_Node000014_Node000015" class="edge">
<title>Node14&#45;&gt;Node15</title>
<g id="a_edge14_Node000014_Node000015"><a xlink:title=" ">
<path fill="none" stroke="#63b8ff" d="M723.9,-113.91C738.39,-109.19 756.06,-103.42 771.69,-98.32"/>
<polygon fill="#63b8ff" stroke="#63b8ff" points="773.19,-101.51 781.61,-95.09 771.02,-94.86 773.19,-101.51"/>
</a>
</g>
</g>
<!-- Node21&#45;&gt;Node15 -->
<g id="edge21_Node000021_Node000015" class="edge">
<title>Node21&#45;&gt;Node15</title>
<g id="a_edge21_Node000021_Node000015"><a xlink:title=" ">
<path fill="none" stroke="#63b8ff" d="M601,-85.5C647.39,-85.5 719.32,-85.5 765.79,-85.5"/>
<polygon fill="#63b8ff" stroke="#63b8ff" points="765.87,-89 775.87,-85.5 765.87,-82 765.87,-89"/>
</a>
</g>
</g>
<!-- Node23 -->
<g id="Node000023" class="node">
<title>Node23</title>
<g id="a_Node000023"><a xlink:href="external_8c.html#aad3025d980410fa157174acbf923f8c0" target="_top" xlink:title=" ">
<polygon fill="white" stroke="#666666" points="430.5,-57 337.5,-57 337.5,-38 430.5,-38 430.5,-57"/>
<text text-anchor="middle" x="384" y="-45" font-family="Helvetica,sans-Serif" font-size="10.00">func_800C92CC</text>
</a>
</g>
</g>
<!-- Node22&#45;&gt;Node23 -->
<g id="edge23_Node000022_Node000023" class="edge">
<title>Node22&#45;&gt;Node23</title>
<g id="a_edge23_Node000022_Node000023"><a xlink:title=" ">
<path fill="none" stroke="#63b8ff" d="M269.4,-47.5C288.23,-47.5 308.71,-47.5 327.03,-47.5"/>
<polygon fill="#63b8ff" stroke="#63b8ff" points="327.25,-51 337.25,-47.5 327.25,-44 327.25,-51"/>
</a>
</g>
</g>
<!-- Node23&#45;&gt;Node15 -->
<g id="edge25_Node000023_Node000015" class="edge">
<title>Node23&#45;&gt;Node15</title>
<g id="a_edge25_Node000023_Node000015"><a xlink:title=" ">
<path fill="none" stroke="#63b8ff" d="M430.89,-51.21C476.56,-54.94 548.64,-60.92 611,-66.5 664.21,-71.26 725.34,-77.13 765.87,-81.07"/>
<polygon fill="#63b8ff" stroke="#63b8ff" points="765.67,-84.57 775.97,-82.06 766.35,-77.6 765.67,-84.57"/>
</a>
</g>
</g>
<!-- Node24 -->
<g id="Node000024" class="node">
<title>Node24</title>
<g id="a_Node000024"><a xlink:href="external_8c.html#a747de0be4005b4b29150d5c068564b7d" target="_top" xlink:title=" ">
<polygon fill="white" stroke="#666666" points="601,-19 509,-19 509,0 601,0 601,-19"/>
<text text-anchor="middle" x="555" y="-7" font-family="Helvetica,sans-Serif" font-size="10.00">func_800C1C88</text>
</a>
</g>
</g>
<!-- Node23&#45;&gt;Node24 -->
<g id="edge24_Node000023_Node000024" class="edge">
<title>Node23&#45;&gt;Node24</title>
<g id="a_edge24_Node000023_Node000024"><a xlink:title=" ">
<path fill="none" stroke="#63b8ff" d="M427.65,-37.91C450.15,-32.85 477.95,-26.6 501.74,-21.25"/>
<polygon fill="#63b8ff" stroke="#63b8ff" points="502.67,-24.63 511.66,-19.02 501.14,-17.8 502.67,-24.63"/>
</a>
</g>
</g>
</g>
</svg>

<g id="navigator" transform="translate(0 0)" fill="#404254">
  <rect fill="#f2f5e9" fill-opacity="0.5" stroke="#606060" stroke-width=".5" x="0" y="0" width="60" height="60"/>
  <use id="zoomplus" xlink:href="#zoomPlus" x="17" y="9" onmousedown="handleZoom(evt,'in')"/>
  <use id="zoomminus" xlink:href="#zoomMin" x="42" y="9" onmousedown="handleZoom(evt,'out')"/>
  <use id="reset" xlink:href="#resetDef" x="30" y="36" onmousedown="handleReset()"/>
   <use id="arrowup" xlink:href="#arrowUp" x="0" y="0" onmousedown="handlePan(0,-1)"/>
  <use id="arrowright" xlink:href="#arrowRight" x="0" y="0" onmousedown="handlePan(1,0)"/>
  <use id="arrowdown" xlink:href="#arrowDown" x="0" y="0" onmousedown="handlePan(0,1)"/>
  <use id="arrowleft" xlink:href="#arrowLeft" x="0" y="0" onmousedown="handlePan(-1,0)"/>
</g>
<svg viewBox="0 0 15 15" width="100%" height="30px" preserveAspectRatio="xMaxYMin meet">
 <g id="arrow_out" transform="scale(0.3 0.3)">
  <a xlink:href="effects_8h_a1592f0d5d4718b7c1aaf90860a6e0909_cgraph_org.svg" target="_base">
   <rect id="button" ry="5" rx="5" y="6" x="6" height="38" width="38"
        fill="#f2f5e9" fill-opacity="0.5" stroke="#606060" stroke-width="1.0"/>
   <path id="arrow"
     d="M 11.500037,31.436501 C 11.940474,20.09759 22.043105,11.32322 32.158766,21.979434 L 37.068811,17.246167 C 37.068811,17.246167 37.088388,32 37.088388,32 L 22.160133,31.978069 C 22.160133,31.978069 26.997745,27.140456 26.997745,27.140456 C 18.528582,18.264221 13.291696,25.230495 11.500037,31.436501 z"
     style="fill:#404040;"/>
  </a>
 </g>
</svg>

<style type='text/css'>
<![CDATA[
[data-mouse-over-selected='false'] { opacity: 0.7; }
[data-mouse-over-selected='true']  { opacity: 1.0; }
]]>
</style>
<script type="application/ecmascript"><![CDATA[
document.addEventListener('DOMContentLoaded', (event) => {
  highlightEdges();
  highlightAdjacentNodes();
});
]]></script>
</svg>
