<?xml version="1.0" encoding="UTF-8" standalone="no"?>
<!DOCTYPE svg PUBLIC "-//W3C//DTD SVG 1.1//EN"
 "http://www.w3.org/Graphics/SVG/1.1/DTD/svg11.dtd">
<!-- Generated by graphviz version 2.43.0 (0)
 -->
<!-- Title: func_8008F494 Pages: 1 -->
<!--zoomable 943 -->

<svg id="main" version="1.1" xmlns="http://www.w3.org/2000/svg" xmlns:xlink="http://www.w3.org/1999/xlink" xml:space="preserve" onload="init(evt)">
<style type="text/css"><![CDATA[
.node, .edge {opacity: 0.7;}
.node.selected, .edge.selected {opacity: 1;}
.edge:hover path { stroke: red; }
.edge:hover polygon { stroke: red; fill: red; }
]]></style>

<defs>
  <circle id="rim" cx="0" cy="0" r="7"/>
  <circle id="rim2" cx="0" cy="0" r="3.5"/>
  <g id="zoomPlus">
    <use xlink:href="#rim" fill="#404040"><set attributeName="fill" to="#808080" begin="zoomplus.mouseover" end="zoomplus.mouseout"/></use>
    <path d="M-4,0h8M0,-4v8" fill="none" stroke="white" stroke-width="1.5" pointer-events="none"/>
  </g>
  <g id="zoomMin">
    <use xlink:href="#rim" fill="#404040"><set attributeName="fill" to="#808080" begin="zoomminus.mouseover" end="zoomminus.mouseout"/></use>
    <path d="M-4,0h8" fill="none" stroke="white" stroke-width="1.5" pointer-events="none"/>
  </g>
  <g id="arrowUp" transform="translate(30 24)">
    <use xlink:href="#rim"/>
    <path pointer-events="none" fill="none" stroke="white" stroke-width="1.5" d="M0,-3.0v7 M-2.5,-0.5L0,-3.0L2.5,-0.5"/>
  </g>
  <g id="arrowRight" transform="rotate(90) translate(36 -43)">
    <use xlink:href="#rim"/>
    <path pointer-events="none" fill="none" stroke="white" stroke-width="1.5" d="M0,-3.0v7 M-2.5,-0.5L0,-3.0L2.5,-0.5"/>
  </g>
  <g id="arrowDown" transform="rotate(180) translate(-30 -48)">
    <use xlink:href="#rim"/>
    <path pointer-events="none" fill="none" stroke="white" stroke-width="1.5" d="M0,-3.0v7 M-2.5,-0.5L0,-3.0L2.5,-0.5"/>
  </g>
  <g id="arrowLeft" transform="rotate(270) translate(-36 17)">
    <use xlink:href="#rim"/>
    <path pointer-events="none" fill="none" stroke="white" stroke-width="1.5" d="M0,-3.0v7 M-2.5,-0.5L0,-3.0L2.5,-0.5"/>
  </g>
  <g id="resetDef">
    <use xlink:href="#rim2" fill="#404040"><set attributeName="fill" to="#808080" begin="reset.mouseover" end="reset.mouseout"/></use>
  </g>
</defs>
<script type="application/ecmascript">
var viewWidth = 1003;
var viewHeight = 943;
var sectionId = 'dynsection-56';
</script>
<script type="application/ecmascript" xlink:href="svg.min.js"/>
<svg id="graph" class="graph">
<g id="viewport">
<title>func_8008F494</title>
<!-- Node1 -->
<g id="Node000001" class="node">
<title>Node1</title>
<g id="a_Node000001"><a xlink:title=" ">
<polygon fill="#999999" stroke="#666666" points="91,-594.5 0,-594.5 0,-575.5 91,-575.5 91,-594.5"/>
<text text-anchor="middle" x="45.5" y="-582.5" font-family="Helvetica,sans-Serif" font-size="10.00">func_8008F494</text>
</a>
</g>
</g>
<!-- Node2 -->
<g id="Node000002" class="node">
<title>Node2</title>
<g id="a_Node000002"><a xlink:href="effects_8c.html#a6559cc02e5bb1a4e7fe6c97850cdd87e" target="_top" xlink:title=" ">
<polygon fill="white" stroke="#666666" points="211,-328.5 135,-328.5 135,-309.5 211,-309.5 211,-328.5"/>
<text text-anchor="middle" x="173" y="-316.5" font-family="Helvetica,sans-Serif" font-size="10.00">clean_effect</text>
</a>
</g>
</g>
<!-- Node1&#45;&gt;Node2 -->
<g id="edge1_Node000001_Node000002" class="edge">
<title>Node1&#45;&gt;Node2</title>
<g id="a_edge1_Node000001_Node000002"><a xlink:title=" ">
<path fill="none" stroke="#63b8ff" d="M51.12,-575.22C69.61,-536.03 138.52,-389.97 163.16,-337.73"/>
<polygon fill="#63b8ff" stroke="#63b8ff" points="166.37,-339.13 167.47,-328.59 160.04,-336.14 166.37,-339.13"/>
</a>
</g>
</g>
<!-- Node21 -->
<g id="Node000021" class="node">
<title>Node21</title>
<g id="a_Node000021"><a xlink:href="effects_8c.html#a3cf7b9adc690e4f6e8d23b97621e5eba" target="_top" xlink:title=" ">
<polygon fill="white" stroke="#666666" points="219,-745.5 127,-745.5 127,-726.5 219,-726.5 219,-745.5"/>
<text text-anchor="middle" x="173" y="-733.5" font-family="Helvetica,sans-Serif" font-size="10.00">func_8008F86C</text>
</a>
</g>
</g>
<!-- Node1&#45;&gt;Node21 -->
<g id="edge20_Node000001_Node000021" class="edge">
<title>Node1&#45;&gt;Node21</title>
<g id="a_edge20_Node000001_Node000021"><a xlink:title=" ">
<path fill="none" stroke="#63b8ff" d="M54.73,-594.91C75.57,-619.98 130.61,-686.2 157.2,-718.2"/>
<polygon fill="#63b8ff" stroke="#63b8ff" points="154.81,-720.8 163.9,-726.25 160.2,-716.32 154.81,-720.8"/>
</a>
</g>
</g>
<!-- Node37 -->
<g id="Node000037" class="node">
<title>Node37</title>
<g id="a_Node000037"><a xlink:href="external_8c.html#a337fc3ab94ebb3293a85908229303ac8" target="_top" xlink:title=" ">
<polygon fill="white" stroke="#666666" points="219,-594.5 127,-594.5 127,-575.5 219,-575.5 219,-594.5"/>
<text text-anchor="middle" x="173" y="-582.5" font-family="Helvetica,sans-Serif" font-size="10.00">func_800C90F4</text>
</a>
</g>
</g>
<!-- Node1&#45;&gt;Node37 -->
<g id="edge39_Node000001_Node000037" class="edge">
<title>Node1&#45;&gt;Node37</title>
<g id="a_edge39_Node000001_Node000037"><a xlink:title=" ">
<path fill="none" stroke="#63b8ff" d="M91.1,-585C99.31,-585 107.98,-585 116.47,-585"/>
<polygon fill="#63b8ff" stroke="#63b8ff" points="116.7,-588.5 126.7,-585 116.7,-581.5 116.7,-588.5"/>
</a>
</g>
</g>
<!-- Node3 -->
<g id="Node000003" class="node">
<title>Node3</title>
<g id="a_Node000003"><a xlink:href="effects_8c.html#a7fef1af5ca366a9346478d94239c6142" target="_top" xlink:title=" ">
<polygon fill="white" stroke="#666666" points="380.5,-556.5 287.5,-556.5 287.5,-537.5 380.5,-537.5 380.5,-556.5"/>
<text text-anchor="middle" x="334" y="-544.5" font-family="Helvetica,sans-Serif" font-size="10.00">func_8008C6D0</text>
</a>
</g>
</g>
<!-- Node2&#45;&gt;Node3 -->
<g id="edge2_Node000002_Node000003" class="edge">
<title>Node2&#45;&gt;Node3</title>
<g id="a_edge2_Node000002_Node000003"><a xlink:title=" ">
<path fill="none" stroke="#63b8ff" d="M174.69,-328.65C177.59,-361.89 191.81,-472.58 255,-528 261.48,-533.68 269.37,-537.73 277.63,-540.59"/>
<polygon fill="#63b8ff" stroke="#63b8ff" points="276.84,-544.01 287.42,-543.45 278.79,-537.29 276.84,-544.01"/>
</a>
</g>
</g>
<!-- Node4 -->
<g id="Node000004" class="node">
<title>Node4</title>
<g id="a_Node000004"><a xlink:href="effects_8c.html#a5f19eaaa048055d292d02c717e635786" target="_top" xlink:title=" ">
<polygon fill="white" stroke="#666666" points="380,-519.5 288,-519.5 288,-500.5 380,-500.5 380,-519.5"/>
<text text-anchor="middle" x="334" y="-507.5" font-family="Helvetica,sans-Serif" font-size="10.00">func_8008D760</text>
</a>
</g>
</g>
<!-- Node2&#45;&gt;Node4 -->
<g id="edge3_Node000002_Node000004" class="edge">
<title>Node2&#45;&gt;Node4</title>
<g id="a_edge3_Node000002_Node000004"><a xlink:title=" ">
<path fill="none" stroke="#63b8ff" d="M175.55,-328.57C180.82,-357.83 200.8,-446.74 255,-491 261.67,-496.45 269.67,-500.37 277.96,-503.19"/>
<polygon fill="#63b8ff" stroke="#63b8ff" points="277.2,-506.62 287.78,-506.02 279.14,-499.89 277.2,-506.62"/>
</a>
</g>
</g>
<!-- Node5 -->
<g id="Node000005" class="node">
<title>Node5</title>
<g id="a_Node000005"><a xlink:href="effects_8c.html#a4ea2da0616ee3c475e4be217dc0bc71f" target="_top" xlink:title=" ">
<polygon fill="white" stroke="#666666" points="380.5,-482.5 287.5,-482.5 287.5,-463.5 380.5,-463.5 380.5,-482.5"/>
<text text-anchor="middle" x="334" y="-470.5" font-family="Helvetica,sans-Serif" font-size="10.00">func_8008D97C</text>
</a>
</g>
</g>
<!-- Node2&#45;&gt;Node5 -->
<g id="edge4_Node000002_Node000005" class="edge">
<title>Node2&#45;&gt;Node5</title>
<g id="a_edge4_Node000002_Node000005"><a xlink:title=" ">
<path fill="none" stroke="#63b8ff" d="M176.87,-328.62C184.84,-353.54 209.66,-420.62 255,-454 261.78,-458.99 269.69,-462.68 277.84,-465.41"/>
<polygon fill="#63b8ff" stroke="#63b8ff" points="276.87,-468.78 287.45,-468.19 278.82,-462.05 276.87,-468.78"/>
</a>
</g>
</g>
<!-- Node6 -->
<g id="Node000006" class="node">
<title>Node6</title>
<g id="a_Node000006"><a xlink:href="effects_8c.html#a13005f7c39388deade6ba0491d7c5918" target="_top" xlink:title=" ">
<polygon fill="white" stroke="#666666" points="379.5,-445.5 288.5,-445.5 288.5,-426.5 379.5,-426.5 379.5,-445.5"/>
<text text-anchor="middle" x="334" y="-433.5" font-family="Helvetica,sans-Serif" font-size="10.00">func_8008E884</text>
</a>
</g>
</g>
<!-- Node2&#45;&gt;Node6 -->
<g id="edge5_Node000002_Node000006" class="edge">
<title>Node2&#45;&gt;Node6</title>
<g id="a_edge5_Node000002_Node000006"><a xlink:title=" ">
<path fill="none" stroke="#63b8ff" d="M179.05,-328.54C190.05,-348.33 218.15,-393.92 255,-417 262.13,-421.47 270.24,-424.88 278.46,-427.5"/>
<polygon fill="#63b8ff" stroke="#63b8ff" points="277.55,-430.87 288.12,-430.21 279.44,-424.14 277.55,-430.87"/>
</a>
</g>
</g>
<!-- Node7 -->
<g id="Node000007" class="node">
<title>Node7</title>
<g id="a_Node000007"><a xlink:href="effects_8c.html#ae02351b6bbb678b552ec8864b47fc56c" target="_top" xlink:title=" ">
<polygon fill="white" stroke="#666666" points="379.5,-408.5 288.5,-408.5 288.5,-389.5 379.5,-389.5 379.5,-408.5"/>
<text text-anchor="middle" x="334" y="-396.5" font-family="Helvetica,sans-Serif" font-size="10.00">func_8008F3E0</text>
</a>
</g>
</g>
<!-- Node2&#45;&gt;Node7 -->
<g id="edge6_Node000002_Node000007" class="edge">
<title>Node2&#45;&gt;Node7</title>
<g id="a_edge6_Node000002_Node000007"><a xlink:title=" ">
<path fill="none" stroke="#63b8ff" d="M184.09,-328.8C198.58,-342.34 226.68,-366.59 255,-380 262.34,-383.48 270.39,-386.36 278.43,-388.73"/>
<polygon fill="#63b8ff" stroke="#63b8ff" points="277.63,-392.14 288.2,-391.38 279.46,-385.38 277.63,-392.14"/>
</a>
</g>
</g>
<!-- Node8 -->
<g id="Node000008" class="node">
<title>Node8</title>
<g id="a_Node000008"><a xlink:href="effects_8c.html#ab5125d5944958f891647b27b440d3d62" target="_top" xlink:title=" ">
<polygon fill="white" stroke="#666666" points="380,-371.5 288,-371.5 288,-352.5 380,-352.5 380,-371.5"/>
<text text-anchor="middle" x="334" y="-359.5" font-family="Helvetica,sans-Serif" font-size="10.00">func_8008F5A4</text>
</a>
</g>
</g>
<!-- Node2&#45;&gt;Node8 -->
<g id="edge7_Node000002_Node000008" class="edge">
<title>Node2&#45;&gt;Node8</title>
<g id="a_edge7_Node000002_Node000008"><a xlink:title=" ">
<path fill="none" stroke="#63b8ff" d="M205.05,-328.59C220.09,-333.13 238.43,-338.53 255,-343 263.8,-345.37 273.18,-347.77 282.29,-350.03"/>
<polygon fill="#63b8ff" stroke="#63b8ff" points="281.47,-353.43 292.02,-352.42 283.14,-346.64 281.47,-353.43"/>
</a>
</g>
</g>
<!-- Node13 -->
<g id="Node000013" class="node">
<title>Node13</title>
<g id="a_Node000013"><a xlink:href="effects_8c.html#a2f183005a5e85816dd81508847c1904d" target="_top" xlink:title=" ">
<polygon fill="white" stroke="#666666" points="380.5,-211.5 287.5,-211.5 287.5,-192.5 380.5,-192.5 380.5,-211.5"/>
<text text-anchor="middle" x="334" y="-199.5" font-family="Helvetica,sans-Serif" font-size="10.00">func_8008FEDC</text>
</a>
</g>
</g>
<!-- Node2&#45;&gt;Node13 -->
<g id="edge12_Node000002_Node000013" class="edge">
<title>Node2&#45;&gt;Node13</title>
<g id="a_edge12_Node000002_Node000013"><a xlink:title=" ">
<path fill="none" stroke="#63b8ff" d="M179,-309.33C189.91,-289.27 217.84,-243.09 255,-220 261.88,-215.72 269.67,-212.46 277.61,-209.97"/>
<polygon fill="#63b8ff" stroke="#63b8ff" points="278.58,-213.34 287.3,-207.31 276.73,-206.59 278.58,-213.34"/>
</a>
</g>
</g>
<!-- Node14 -->
<g id="Node000014" class="node">
<title>Node14</title>
<g id="a_Node000014"><a xlink:href="effects_8c.html#acbb1f27649a63227fcf0dd1f17dfa096" target="_top" xlink:title=" ">
<polygon fill="white" stroke="#666666" points="395,-174 273,-174 273,-144 395,-144 395,-174"/>
<text text-anchor="start" x="281" y="-162" font-family="Helvetica,sans-Serif" font-size="10.00">remove_banana_near</text>
<text text-anchor="middle" x="334" y="-151" font-family="Helvetica,sans-Serif" font-size="10.00">_spinout_effect</text>
</a>
</g>
</g>
<!-- Node2&#45;&gt;Node14 -->
<g id="edge13_Node000002_Node000014" class="edge">
<title>Node2&#45;&gt;Node14</title>
<g id="a_edge13_Node000002_Node000014"><a xlink:title=" ">
<path fill="none" stroke="#63b8ff" d="M176.97,-309.47C185.16,-284.73 210.49,-217.98 255,-183 257.76,-180.83 260.71,-178.86 263.8,-177.07"/>
<polygon fill="#63b8ff" stroke="#63b8ff" points="265.48,-180.14 272.79,-172.46 262.29,-173.9 265.48,-180.14"/>
</a>
</g>
</g>
<!-- Node15 -->
<g id="Node000015" class="node">
<title>Node15</title>
<g id="a_Node000015"><a xlink:href="effects_8c.html#a4768d56263e476d3bac47ee01bac3dc8" target="_top" xlink:title=" ">
<polygon fill="white" stroke="#666666" points="413,-126 255,-126 255,-96 413,-96 413,-126"/>
<text text-anchor="start" x="263" y="-114" font-family="Helvetica,sans-Serif" font-size="10.00">remove_boost_ramp_asphalt</text>
<text text-anchor="middle" x="334" y="-103" font-family="Helvetica,sans-Serif" font-size="10.00">_effect</text>
</a>
</g>
</g>
<!-- Node2&#45;&gt;Node15 -->
<g id="edge14_Node000002_Node000015" class="edge">
<title>Node2&#45;&gt;Node15</title>
<g id="a_edge14_Node000002_Node000015"><a xlink:title=" ">
<path fill="none" stroke="#63b8ff" d="M175.39,-309.35C180.27,-278.98 199.47,-184.43 255,-135 256.31,-133.83 257.67,-132.73 259.09,-131.67"/>
<polygon fill="#63b8ff" stroke="#63b8ff" points="261.1,-134.54 267.63,-126.2 257.33,-128.64 261.1,-134.54"/>
</a>
</g>
</g>
<!-- Node16 -->
<g id="Node000016" class="node">
<title>Node16</title>
<g id="a_Node000016"><a xlink:href="effects_8c.html#aafe14c45e9b91bb1d409ef2f2bfe5c53" target="_top" xlink:title=" ">
<polygon fill="white" stroke="#666666" points="408.5,-78 259.5,-78 259.5,-48 408.5,-48 408.5,-78"/>
<text text-anchor="start" x="267.5" y="-66" font-family="Helvetica,sans-Serif" font-size="10.00">remove_boost_ramp_wood</text>
<text text-anchor="middle" x="334" y="-55" font-family="Helvetica,sans-Serif" font-size="10.00">_effect</text>
</a>
</g>
</g>
<!-- Node2&#45;&gt;Node16 -->
<g id="edge15_Node000002_Node000016" class="edge">
<title>Node2&#45;&gt;Node16</title>
<g id="a_edge15_Node000002_Node000016"><a xlink:title=" ">
<path fill="none" stroke="#63b8ff" d="M174.4,-309.45C176.38,-274.39 188.02,-151.52 255,-87 256.12,-85.92 257.28,-84.9 258.48,-83.92"/>
<polygon fill="#63b8ff" stroke="#63b8ff" points="260.71,-86.64 266.96,-78.09 256.74,-80.87 260.71,-86.64"/>
</a>
</g>
</g>
<!-- Node17 -->
<g id="Node000017" class="node">
<title>Node17</title>
<g id="a_Node000017"><a xlink:href="effects_8c.html#a9ff5c732ea8ba59908ccf62ff441e7e4" target="_top" xlink:title=" ">
<polygon fill="white" stroke="#666666" points="394,-30 274,-30 274,0 394,0 394,-30"/>
<text text-anchor="start" x="282" y="-18" font-family="Helvetica,sans-Serif" font-size="10.00">remove_driving_near</text>
<text text-anchor="middle" x="334" y="-7" font-family="Helvetica,sans-Serif" font-size="10.00">_spinout_effect</text>
</a>
</g>
</g>
<!-- Node2&#45;&gt;Node17 -->
<g id="edge16_Node000002_Node000017" class="edge">
<title>Node2&#45;&gt;Node17</title>
<g id="a_edge16_Node000002_Node000017"><a xlink:title=" ">
<path fill="none" stroke="#63b8ff" d="M173.74,-309.47C173.18,-270.16 176.41,-118.93 255,-39 258.02,-35.93 261.42,-33.25 265.06,-30.92"/>
<polygon fill="#63b8ff" stroke="#63b8ff" points="266.87,-33.92 273.97,-26.06 263.51,-27.78 266.87,-33.92"/>
</a>
</g>
</g>
<!-- Node18 -->
<g id="Node000018" class="node">
<title>Node18</title>
<g id="a_Node000018"><a xlink:href="effects_8c.html#a5f1aead641683fd07375d6737dfafac2" target="_top" xlink:title=" ">
<polygon fill="white" stroke="#666666" points="390.5,-334 277.5,-334 277.5,-304 390.5,-304 390.5,-334"/>
<text text-anchor="start" x="285.5" y="-322" font-family="Helvetica,sans-Serif" font-size="10.00">remove_hit_by_star</text>
<text text-anchor="middle" x="334" y="-311" font-family="Helvetica,sans-Serif" font-size="10.00">_effect</text>
</a>
</g>
</g>
<!-- Node2&#45;&gt;Node18 -->
<g id="edge17_Node000002_Node000018" class="edge">
<title>Node2&#45;&gt;Node18</title>
<g id="a_edge17_Node000002_Node000018"><a xlink:title=" ">
<path fill="none" stroke="#63b8ff" d="M211.28,-319C227.93,-319 248.06,-319 267.12,-319"/>
<polygon fill="#63b8ff" stroke="#63b8ff" points="267.26,-322.5 277.26,-319 267.26,-315.5 267.26,-322.5"/>
</a>
</g>
</g>
<!-- Node19 -->
<g id="Node000019" class="node">
<title>Node19</title>
<g id="a_Node000019"><a xlink:href="effects_8c.html#a9be2cc0ebbe72a9d5276a4fd2675eef3" target="_top" xlink:title=" ">
<polygon fill="white" stroke="#666666" points="406.5,-285.5 261.5,-285.5 261.5,-266.5 406.5,-266.5 406.5,-285.5"/>
<text text-anchor="middle" x="334" y="-273.5" font-family="Helvetica,sans-Serif" font-size="10.00">remove_mushroom_effect</text>
</a>
</g>
</g>
<!-- Node2&#45;&gt;Node19 -->
<g id="edge18_Node000002_Node000019" class="edge">
<title>Node2&#45;&gt;Node19</title>
<g id="a_edge18_Node000002_Node000019"><a xlink:title=" ">
<path fill="none" stroke="#63b8ff" d="M205.05,-309.41C220.09,-304.87 238.43,-299.47 255,-295 263.8,-292.63 273.18,-290.23 282.29,-287.97"/>
<polygon fill="#63b8ff" stroke="#63b8ff" points="283.14,-291.36 292.02,-285.58 281.47,-284.57 283.14,-291.36"/>
</a>
</g>
</g>
<!-- Node20 -->
<g id="Node000020" class="node">
<title>Node20</title>
<g id="a_Node000020"><a xlink:href="effects_8c.html#a85a7ba2f2c97859b0090c54a68e8f003" target="_top" xlink:title=" ">
<polygon fill="white" stroke="#666666" points="401,-248.5 267,-248.5 267,-229.5 401,-229.5 401,-248.5"/>
<text text-anchor="middle" x="334" y="-236.5" font-family="Helvetica,sans-Serif" font-size="10.00">remove_spinout_effects</text>
</a>
</g>
</g>
<!-- Node2&#45;&gt;Node20 -->
<g id="edge19_Node000002_Node000020" class="edge">
<title>Node2&#45;&gt;Node20</title>
<g id="a_edge19_Node000002_Node000020"><a xlink:title=" ">
<path fill="none" stroke="#63b8ff" d="M183.55,-309.44C197.83,-295.71 226.16,-270.58 255,-257 259.14,-255.05 263.51,-253.3 267.98,-251.74"/>
<polygon fill="#63b8ff" stroke="#63b8ff" points="269.4,-254.96 277.87,-248.6 267.28,-248.29 269.4,-254.96"/>
</a>
</g>
</g>
<!-- Node9 -->
<g id="Node000009" class="node">
<title>Node9</title>
<g id="a_Node000009"><a xlink:href="code__80057C60_8c.html#ae28b6eb556910087cea23f0cb7a322bd" target="_top" xlink:title=" ">
<polygon fill="white" stroke="#666666" points="561,-445.5 449,-445.5 449,-426.5 561,-426.5 561,-445.5"/>
<text text-anchor="middle" x="505" y="-433.5" font-family="Helvetica,sans-Serif" font-size="10.00">pop_player_balloon</text>
</a>
</g>
</g>
<!-- Node8&#45;&gt;Node9 -->
<g id="edge8_Node000008_Node000009" class="edge">
<title>Node8&#45;&gt;Node9</title>
<g id="a_edge8_Node000008_Node000009"><a xlink:title=" ">
<path fill="none" stroke="#63b8ff" d="M380.32,-369.84C391.24,-372.44 402.71,-375.78 413,-380 438.58,-390.49 465.21,-407.74 483.01,-420.33"/>
<polygon fill="#63b8ff" stroke="#63b8ff" points="481.3,-423.41 491.45,-426.43 485.39,-417.74 481.3,-423.41"/>
</a>
</g>
</g>
<!-- Node10 -->
<g id="Node000010" class="node">
<title>Node10</title>
<g id="a_Node000010"><a xlink:href="effects_8c.html#a1c7552c4a370cc015c2726e40f1fdb06" target="_top" xlink:title=" ">
<polygon fill="white" stroke="#666666" points="690,-482.5 597,-482.5 597,-463.5 690,-463.5 690,-482.5"/>
<text text-anchor="middle" x="643.5" y="-470.5" font-family="Helvetica,sans-Serif" font-size="10.00">func_8008FD4C</text>
</a>
</g>
</g>
<!-- Node9&#45;&gt;Node10 -->
<g id="edge9_Node000009_Node000010" class="edge">
<title>Node9&#45;&gt;Node10</title>
<g id="a_edge9_Node000009_Node000010"><a xlink:title=" ">
<path fill="none" stroke="#63b8ff" d="M541.15,-445.53C558.21,-450.15 578.92,-455.77 597.15,-460.71"/>
<polygon fill="#63b8ff" stroke="#63b8ff" points="596.43,-464.14 606.99,-463.38 598.26,-457.38 596.43,-464.14"/>
</a>
</g>
</g>
<!-- Node11 -->
<g id="Node000011" class="node">
<title>Node11</title>
<g id="a_Node000011"><a xlink:href="external_8c.html#a2be9efc97a92e19d02aaee90d676acc1" target="_top" xlink:title=" ">
<polygon fill="white" stroke="#666666" points="689.5,-445.5 597.5,-445.5 597.5,-426.5 689.5,-426.5 689.5,-445.5"/>
<text text-anchor="middle" x="643.5" y="-433.5" font-family="Helvetica,sans-Serif" font-size="10.00">func_800C9060</text>
</a>
</g>
</g>
<!-- Node9&#45;&gt;Node11 -->
<g id="edge10_Node000009_Node000011" class="edge">
<title>Node9&#45;&gt;Node11</title>
<g id="a_edge10_Node000009_Node000011"><a xlink:title=" ">
<path fill="none" stroke="#63b8ff" d="M561.13,-436C569.65,-436 578.45,-436 586.98,-436"/>
<polygon fill="#63b8ff" stroke="#63b8ff" points="587.21,-439.5 597.21,-436 587.21,-432.5 587.21,-439.5"/>
</a>
</g>
</g>
<!-- Node12 -->
<g id="Node000012" class="node">
<title>Node12</title>
<g id="a_Node000012"><a xlink:href="external_8c.html#a475cff796211891556f52877cd8e9b9e" target="_top" xlink:title=" ">
<polygon fill="white" stroke="#666666" points="832,-594.5 760,-594.5 760,-575.5 832,-575.5 832,-594.5"/>
<text text-anchor="middle" x="796" y="-582.5" font-family="Helvetica,sans-Serif" font-size="10.00">play_sound</text>
</a>
</g>
</g>
<!-- Node11&#45;&gt;Node12 -->
<g id="edge11_Node000011_Node000012" class="edge">
<title>Node11&#45;&gt;Node12</title>
<g id="a_edge11_Node000011_Node000012"><a xlink:title=" ">
<path fill="none" stroke="#63b8ff" d="M675.03,-445.52C680.28,-447.86 685.49,-450.67 690,-454 732.79,-485.59 767.93,-538.71 784.58,-566.61"/>
<polygon fill="#63b8ff" stroke="#63b8ff" points="781.62,-568.48 789.68,-575.35 787.67,-564.95 781.62,-568.48"/>
</a>
</g>
</g>
<!-- Node22 -->
<g id="Node000022" class="node">
<title>Node22</title>
<g id="a_Node000022"><a xlink:href="external_8c.html#adbb3c68f56a5870effc0f84c03a5347c" target="_top" xlink:title=" ">
<polygon fill="white" stroke="#666666" points="380,-745.5 288,-745.5 288,-726.5 380,-726.5 380,-745.5"/>
<text text-anchor="middle" x="334" y="-733.5" font-family="Helvetica,sans-Serif" font-size="10.00">func_800CA730</text>
</a>
</g>
</g>
<!-- Node21&#45;&gt;Node22 -->
<g id="edge21_Node000021_Node000022" class="edge">
<title>Node21&#45;&gt;Node22</title>
<g id="a_edge21_Node000021_Node000022"><a xlink:title=" ">
<path fill="none" stroke="#63b8ff" d="M219.14,-736C237.35,-736 258.54,-736 277.67,-736"/>
<polygon fill="#63b8ff" stroke="#63b8ff" points="277.75,-739.5 287.75,-736 277.75,-732.5 277.75,-739.5"/>
</a>
</g>
</g>
<!-- Node35 -->
<g id="Node000035" class="node">
<title>Node35</title>
<g id="a_Node000035"><a xlink:href="external_8c.html#a3138069310bbed5109964d607d51811f" target="_top" xlink:title=" ">
<polygon fill="white" stroke="#666666" points="381.5,-896.5 286.5,-896.5 286.5,-877.5 381.5,-877.5 381.5,-896.5"/>
<text text-anchor="middle" x="334" y="-884.5" font-family="Helvetica,sans-Serif" font-size="10.00">func_800CAACC</text>
</a>
</g>
</g>
<!-- Node21&#45;&gt;Node35 -->
<g id="edge36_Node000021_Node000035" class="edge">
<title>Node21&#45;&gt;Node35</title>
<g id="a_edge36_Node000021_Node000035"><a xlink:title=" ">
<path fill="none" stroke="#63b8ff" d="M184.43,-745.91C211.06,-771.19 281.76,-838.34 315.11,-870.01"/>
<polygon fill="#63b8ff" stroke="#63b8ff" points="313.07,-872.9 322.74,-877.25 317.89,-867.83 313.07,-872.9"/>
</a>
</g>
</g>
<!-- Node22&#45;&gt;Node12 -->
<g id="edge35_Node000022_Node000012" class="edge">
<title>Node22&#45;&gt;Node12</title>
<g id="a_edge35_Node000022_Node000012"><a xlink:title=" ">
<path fill="none" stroke="#63b8ff" d="M364.93,-745.6C429.8,-764.47 585.9,-799.27 690,-735 741.01,-703.5 773.85,-637.01 787.6,-604.17"/>
<polygon fill="#63b8ff" stroke="#63b8ff" points="790.9,-605.36 791.4,-594.78 784.41,-602.74 790.9,-605.36"/>
</a>
</g>
</g>
<!-- Node23 -->
<g id="Node000023" class="node">
<title>Node23</title>
<g id="a_Node000023"><a xlink:href="external_8c.html#ac48b7cbfcaa7737f892877ead85e4ba7" target="_top" xlink:title=" ">
<polygon fill="white" stroke="#666666" points="689.5,-726.5 597.5,-726.5 597.5,-707.5 689.5,-707.5 689.5,-726.5"/>
<text text-anchor="middle" x="643.5" y="-714.5" font-family="Helvetica,sans-Serif" font-size="10.00">func_800C3448</text>
</a>
</g>
</g>
<!-- Node22&#45;&gt;Node23 -->
<g id="edge22_Node000022_Node000023" class="edge">
<title>Node22&#45;&gt;Node23</title>
<g id="a_edge22_Node000022_Node000023"><a xlink:title=" ">
<path fill="none" stroke="#63b8ff" d="M380.27,-726.69C401.1,-722.86 426.2,-718.89 449,-717 495.56,-713.15 548.64,-713.48 587.41,-714.59"/>
<polygon fill="#63b8ff" stroke="#63b8ff" points="587.35,-718.09 597.45,-714.9 587.56,-711.09 587.35,-718.09"/>
</a>
</g>
</g>
<!-- Node24 -->
<g id="Node000024" class="node">
<title>Node24</title>
<g id="a_Node000024"><a xlink:href="external_8c.html#ab2ecda68e1fb6f957aafd4c5742e2f63" target="_top" xlink:title=" ">
<polygon fill="white" stroke="#666666" points="551,-669.5 459,-669.5 459,-650.5 551,-650.5 551,-669.5"/>
<text text-anchor="middle" x="505" y="-657.5" font-family="Helvetica,sans-Serif" font-size="10.00">func_800C3508</text>
</a>
</g>
</g>
<!-- Node22&#45;&gt;Node24 -->
<g id="edge23_Node000022_Node000024" class="edge">
<title>Node22&#45;&gt;Node24</title>
<g id="a_edge23_Node000022_Node000024"><a xlink:title=" ">
<path fill="none" stroke="#63b8ff" d="M355.96,-726.31C378.8,-715.79 416.42,-698.54 449,-684 456.56,-680.63 464.72,-677.04 472.39,-673.69"/>
<polygon fill="#63b8ff" stroke="#63b8ff" points="473.98,-676.81 481.75,-669.61 471.19,-670.39 473.98,-676.81"/>
</a>
</g>
</g>
<!-- Node25 -->
<g id="Node000025" class="node">
<title>Node25</title>
<g id="a_Node000025"><a xlink:href="external_8c.html#a2aea7abf056e029f247b18edb62aa218" target="_top" xlink:title=" ">
<polygon fill="white" stroke="#666666" points="551,-632.5 459,-632.5 459,-613.5 551,-613.5 551,-632.5"/>
<text text-anchor="middle" x="505" y="-620.5" font-family="Helvetica,sans-Serif" font-size="10.00">func_800C357C</text>
</a>
</g>
</g>
<!-- Node22&#45;&gt;Node25 -->
<g id="edge24_Node000022_Node000025" class="edge">
<title>Node22&#45;&gt;Node25</title>
<g id="a_edge24_Node000022_Node000025"><a xlink:title=" ">
<path fill="none" stroke="#63b8ff" d="M344.13,-726.24C362.35,-707.28 405.27,-665.2 449,-641 452.08,-639.29 455.35,-637.72 458.7,-636.27"/>
<polygon fill="#63b8ff" stroke="#63b8ff" points="460.23,-639.43 468.25,-632.51 457.66,-632.91 460.23,-639.43"/>
</a>
</g>
</g>
<!-- Node26 -->
<g id="Node000026" class="node">
<title>Node26</title>
<g id="a_Node000026"><a xlink:href="external_8c.html#aea29af4ab009f59caa57f45987b0ea86" target="_top" xlink:title=" ">
<polygon fill="white" stroke="#666666" points="551,-821.5 459,-821.5 459,-802.5 551,-802.5 551,-821.5"/>
<text text-anchor="middle" x="505" y="-809.5" font-family="Helvetica,sans-Serif" font-size="10.00">func_800C3608</text>
</a>
</g>
</g>
<!-- Node22&#45;&gt;Node26 -->
<g id="edge25_Node000022_Node000026" class="edge">
<title>Node22&#45;&gt;Node26</title>
<g id="a_edge25_Node000022_Node000026"><a xlink:title=" ">
<path fill="none" stroke="#63b8ff" d="M355.96,-745.69C378.8,-756.21 416.42,-773.46 449,-788 456.56,-791.37 464.72,-794.96 472.39,-798.31"/>
<polygon fill="#63b8ff" stroke="#63b8ff" points="471.19,-801.61 481.75,-802.39 473.98,-795.19 471.19,-801.61"/>
</a>
</g>
</g>
<!-- Node27 -->
<g id="Node000027" class="node">
<title>Node27</title>
<g id="a_Node000027"><a xlink:href="external_8c.html#a06bdcb8baeee497fe4ccb7083644593d" target="_top" xlink:title=" ">
<polygon fill="white" stroke="#666666" points="551,-858.5 459,-858.5 459,-839.5 551,-839.5 551,-858.5"/>
<text text-anchor="middle" x="505" y="-846.5" font-family="Helvetica,sans-Serif" font-size="10.00">func_800C9018</text>
</a>
</g>
</g>
<!-- Node22&#45;&gt;Node27 -->
<g id="edge26_Node000022_Node000027" class="edge">
<title>Node22&#45;&gt;Node27</title>
<g id="a_edge26_Node000022_Node000027"><a xlink:title=" ">
<path fill="none" stroke="#63b8ff" d="M344.18,-745.59C362.51,-764.23 405.59,-805.66 449,-830 452.72,-832.08 456.7,-834 460.77,-835.74"/>
<polygon fill="#63b8ff" stroke="#63b8ff" points="459.72,-839.09 470.31,-839.49 462.28,-832.58 459.72,-839.09"/>
</a>
</g>
</g>
<!-- Node34 -->
<g id="Node000034" class="node">
<title>Node34</title>
<g id="a_Node000034"><a xlink:href="external_8c.html#ad99507ba223474857829e7c56bd45fd1" target="_top" xlink:title=" ">
<polygon fill="white" stroke="#666666" points="549.5,-745.5 460.5,-745.5 460.5,-726.5 549.5,-726.5 549.5,-745.5"/>
<text text-anchor="middle" x="505" y="-733.5" font-family="Helvetica,sans-Serif" font-size="10.00">play_sequence</text>
</a>
</g>
</g>
<!-- Node22&#45;&gt;Node34 -->
<g id="edge33_Node000022_Node000034" class="edge">
<title>Node22&#45;&gt;Node34</title>
<g id="a_edge33_Node000022_Node000034"><a xlink:title=" ">
<path fill="none" stroke="#63b8ff" d="M380.29,-736C401.82,-736 427.73,-736 450.25,-736"/>
<polygon fill="#63b8ff" stroke="#63b8ff" points="450.34,-739.5 460.34,-736 450.34,-732.5 450.34,-739.5"/>
</a>
</g>
</g>
<!-- Node28 -->
<g id="Node000028" class="node">
<title>Node28</title>
<g id="a_Node000028"><a xlink:href="external_8c.html#a028d40421b90c38f68ebfd5acc626f2e" target="_top" xlink:title=" ">
<polygon fill="white" stroke="#666666" points="689.5,-877.5 597.5,-877.5 597.5,-858.5 689.5,-858.5 689.5,-877.5"/>
<text text-anchor="middle" x="643.5" y="-865.5" font-family="Helvetica,sans-Serif" font-size="10.00">func_800C5578</text>
</a>
</g>
</g>
<!-- Node27&#45;&gt;Node28 -->
<g id="edge27_Node000027_Node000028" class="edge">
<title>Node27&#45;&gt;Node28</title>
<g id="a_edge27_Node000027_Node000028"><a xlink:title=" ">
<path fill="none" stroke="#63b8ff" d="M551.07,-855.27C562.72,-856.9 575.39,-858.66 587.49,-860.34"/>
<polygon fill="#63b8ff" stroke="#63b8ff" points="587.09,-863.82 597.47,-861.73 588.05,-856.89 587.09,-863.82"/>
</a>
</g>
</g>
<!-- Node29 -->
<g id="Node000029" class="node">
<title>Node29</title>
<g id="a_Node000029"><a xlink:href="external_8c.html#ac0fb767de7e14a03f1bcfa53f0abd23b" target="_top" xlink:title=" ">
<polygon fill="white" stroke="#666666" points="866,-877.5 726,-877.5 726,-858.5 866,-858.5 866,-877.5"/>
<text text-anchor="middle" x="796" y="-865.5" font-family="Helvetica,sans-Serif" font-size="10.00">delete_sound_from_bank</text>
</a>
</g>
</g>
<!-- Node28&#45;&gt;Node29 -->
<g id="edge28_Node000028_Node000029" class="edge">
<title>Node28&#45;&gt;Node29</title>
<g id="a_edge28_Node000028_Node000029"><a xlink:title=" ">
<path fill="none" stroke="#63b8ff" d="M689.65,-868C697.96,-868 706.85,-868 715.81,-868"/>
<polygon fill="#63b8ff" stroke="#63b8ff" points="715.94,-871.5 725.94,-868 715.94,-864.5 715.94,-871.5"/>
</a>
</g>
</g>
<!-- Node31 -->
<g id="Node000031" class="node">
<title>Node31</title>
<g id="a_Node000031"><a xlink:href="external_8c.html#ab83bd36e63f0f1baddcb2482b5ad31b0" target="_top" xlink:title=" ">
<polygon fill="white" stroke="#666666" points="842.5,-840.5 749.5,-840.5 749.5,-821.5 842.5,-821.5 842.5,-840.5"/>
<text text-anchor="middle" x="796" y="-828.5" font-family="Helvetica,sans-Serif" font-size="10.00">func_800C41CC</text>
</a>
</g>
</g>
<!-- Node28&#45;&gt;Node31 -->
<g id="edge30_Node000028_Node000031" class="edge">
<title>Node28&#45;&gt;Node31</title>
<g id="a_edge30_Node000028_Node000031"><a xlink:title=" ">
<path fill="none" stroke="#63b8ff" d="M683.26,-858.47C702.49,-853.74 725.93,-847.98 746.36,-842.96"/>
<polygon fill="#63b8ff" stroke="#63b8ff" points="747.24,-846.35 756.11,-840.56 745.57,-839.55 747.24,-846.35"/>
</a>
</g>
</g>
<!-- Node32 -->
<g id="Node000032" class="node">
<title>Node32</title>
<g id="a_Node000032"><a xlink:href="port__eu_8c.html#aa89dfaecca46c6d071f08c1898d1f7c9" target="_top" xlink:title=" ">
<polygon fill="white" stroke="#666666" points="842.5,-914.5 749.5,-914.5 749.5,-895.5 842.5,-895.5 842.5,-914.5"/>
<text text-anchor="middle" x="796" y="-902.5" font-family="Helvetica,sans-Serif" font-size="10.00">func_800CBBE8</text>
</a>
</g>
</g>
<!-- Node28&#45;&gt;Node32 -->
<g id="edge31_Node000028_Node000032" class="edge">
<title>Node28&#45;&gt;Node32</title>
<g id="a_edge31_Node000028_Node000032"><a xlink:title=" ">
<path fill="none" stroke="#63b8ff" d="M683.26,-877.53C702.49,-882.26 725.93,-888.02 746.36,-893.04"/>
<polygon fill="#63b8ff" stroke="#63b8ff" points="745.57,-896.45 756.11,-895.44 747.24,-889.65 745.57,-896.45"/>
</a>
</g>
</g>
<!-- Node30 -->
<g id="Node000030" class="node">
<title>Node30</title>
<g id="a_Node000030"><a xlink:href="external_8c.html#a358ac55e8ab5262dcae8037334be06d7" target="_top" xlink:title=" ">
<polygon fill="white" stroke="#666666" points="994.5,-877.5 902.5,-877.5 902.5,-858.5 994.5,-858.5 994.5,-877.5"/>
<text text-anchor="middle" x="948.5" y="-865.5" font-family="Helvetica,sans-Serif" font-size="10.00">func_800C40F0</text>
</a>
</g>
</g>
<!-- Node29&#45;&gt;Node30 -->
<g id="edge29_Node000029_Node000030" class="edge">
<title>Node29&#45;&gt;Node30</title>
<g id="a_edge29_Node000029_Node000030"><a xlink:title=" ">
<path fill="none" stroke="#63b8ff" d="M866.08,-868C874.87,-868 883.78,-868 892.31,-868"/>
<polygon fill="#63b8ff" stroke="#63b8ff" points="892.5,-871.5 902.5,-868 892.5,-864.5 892.5,-871.5"/>
</a>
</g>
</g>
<!-- Node33 -->
<g id="Node000033" class="node">
<title>Node33</title>
<g id="a_Node000033"><a xlink:href="port__eu_8c.html#af361a20d2e08f30c53a237ca481ff734" target="_top" xlink:title=" ">
<polygon fill="white" stroke="#666666" points="995,-914.5 902,-914.5 902,-895.5 995,-895.5 995,-914.5"/>
<text text-anchor="middle" x="948.5" y="-902.5" font-family="Helvetica,sans-Serif" font-size="10.00">func_800CBB48</text>
</a>
</g>
</g>
<!-- Node32&#45;&gt;Node33 -->
<g id="edge32_Node000032_Node000033" class="edge">
<title>Node32&#45;&gt;Node33</title>
<g id="a_edge32_Node000032_Node000033"><a xlink:title=" ">
<path fill="none" stroke="#63b8ff" d="M842.56,-905C857.96,-905 875.34,-905 891.46,-905"/>
<polygon fill="#63b8ff" stroke="#63b8ff" points="891.83,-908.5 901.83,-905 891.83,-901.5 891.83,-908.5"/>
</a>
</g>
</g>
<!-- Node34&#45;&gt;Node23 -->
<g id="edge34_Node000034_Node000023" class="edge">
<title>Node34&#45;&gt;Node23</title>
<g id="a_edge34_Node000034_Node000023"><a xlink:title=" ">
<path fill="none" stroke="#63b8ff" d="M549.56,-729.94C561.63,-728.26 574.89,-726.41 587.51,-724.65"/>
<polygon fill="#63b8ff" stroke="#63b8ff" points="588.05,-728.11 597.47,-723.27 587.08,-721.18 588.05,-728.11"/>
</a>
</g>
</g>
<!-- Node35&#45;&gt;Node28 -->
<g id="edge38_Node000035_Node000028" class="edge">
<title>Node35&#45;&gt;Node28</title>
<g id="a_edge38_Node000035_Node000028"><a xlink:title=" ">
<path fill="none" stroke="#63b8ff" d="M381.7,-884.11C436.86,-880.71 528.5,-875.04 587.17,-871.42"/>
<polygon fill="#63b8ff" stroke="#63b8ff" points="587.6,-874.9 597.36,-870.79 587.17,-867.91 587.6,-874.9"/>
</a>
</g>
</g>
<!-- Node36 -->
<g id="Node000036" class="node">
<title>Node36</title>
<g id="a_Node000036"><a xlink:href="external_8c.html#aeb87c527482a244173df36a1f3d4f446" target="_top" xlink:title=" ">
<polygon fill="white" stroke="#666666" points="551,-934.5 459,-934.5 459,-915.5 551,-915.5 551,-934.5"/>
<text text-anchor="middle" x="505" y="-922.5" font-family="Helvetica,sans-Serif" font-size="10.00">func_800C21E8</text>
</a>
</g>
</g>
<!-- Node35&#45;&gt;Node36 -->
<g id="edge37_Node000035_Node000036" class="edge">
<title>Node35&#45;&gt;Node36</title>
<g id="a_edge37_Node000035_Node000036"><a xlink:title=" ">
<path fill="none" stroke="#63b8ff" d="M377.65,-896.59C400.15,-901.65 427.95,-907.9 451.74,-913.25"/>
<polygon fill="#63b8ff" stroke="#63b8ff" points="451.14,-916.7 461.66,-915.48 452.67,-909.87 451.14,-916.7"/>
</a>
</g>
</g>
<!-- Node37&#45;&gt;Node12 -->
<g id="edge40_Node000037_Node000012" class="edge">
<title>Node37&#45;&gt;Node12</title>
<g id="a_edge40_Node000037_Node000012"><a xlink:title=" ">
<path fill="none" stroke="#63b8ff" d="M219.16,-585C333.78,-585 635.01,-585 749.74,-585"/>
<polygon fill="#63b8ff" stroke="#63b8ff" points="749.93,-588.5 759.93,-585 749.93,-581.5 749.93,-588.5"/>
</a>
</g>
</g>
</g>
</svg>

<g id="navigator" transform="translate(0 0)" fill="#404254">
  <rect fill="#f2f5e9" fill-opacity="0.5" stroke="#606060" stroke-width=".5" x="0" y="0" width="60" height="60"/>
  <use id="zoomplus" xlink:href="#zoomPlus" x="17" y="9" onmousedown="handleZoom(evt,'in')"/>
  <use id="zoomminus" xlink:href="#zoomMin" x="42" y="9" onmousedown="handleZoom(evt,'out')"/>
  <use id="reset" xlink:href="#resetDef" x="30" y="36" onmousedown="handleReset()"/>
   <use id="arrowup" xlink:href="#arrowUp" x="0" y="0" onmousedown="handlePan(0,-1)"/>
  <use id="arrowright" xlink:href="#arrowRight" x="0" y="0" onmousedown="handlePan(1,0)"/>
  <use id="arrowdown" xlink:href="#arrowDown" x="0" y="0" onmousedown="handlePan(0,1)"/>
  <use id="arrowleft" xlink:href="#arrowLeft" x="0" y="0" onmousedown="handlePan(-1,0)"/>
</g>
<svg viewBox="0 0 15 15" width="100%" height="30px" preserveAspectRatio="xMaxYMin meet">
 <g id="arrow_out" transform="scale(0.3 0.3)">
  <a xlink:href="effects_8h_a9821ea939cecd4e636af2d905bb2496c_cgraph_org.svg" target="_base">
   <rect id="button" ry="5" rx="5" y="6" x="6" height="38" width="38"
        fill="#f2f5e9" fill-opacity="0.5" stroke="#606060" stroke-width="1.0"/>
   <path id="arrow"
     d="M 11.500037,31.436501 C 11.940474,20.09759 22.043105,11.32322 32.158766,21.979434 L 37.068811,17.246167 C 37.068811,17.246167 37.088388,32 37.088388,32 L 22.160133,31.978069 C 22.160133,31.978069 26.997745,27.140456 26.997745,27.140456 C 18.528582,18.264221 13.291696,25.230495 11.500037,31.436501 z"
     style="fill:#404040;"/>
  </a>
 </g>
</svg>

<style type='text/css'>
<![CDATA[
[data-mouse-over-selected='false'] { opacity: 0.7; }
[data-mouse-over-selected='true']  { opacity: 1.0; }
]]>
</style>
<script type="application/ecmascript"><![CDATA[
document.addEventListener('DOMContentLoaded', (event) => {
  highlightEdges();
  highlightAdjacentNodes();
});
]]></script>
</svg>
