<?xml version="1.0" encoding="UTF-8" standalone="no"?>
<!DOCTYPE svg PUBLIC "-//W3C//DTD SVG 1.1//EN"
 "http://www.w3.org/Graphics/SVG/1.1/DTD/svg11.dtd">
<!-- Generated by graphviz version 2.43.0 (0)
 -->
<!-- Title: func_800C8F80 Pages: 1 -->
<!--zoomable 294 -->
<svg id="main" version="1.1" xmlns="http://www.w3.org/2000/svg" xmlns:xlink="http://www.w3.org/1999/xlink" xml:space="preserve" onload="init(evt)">
<style type="text/css"><![CDATA[
.edge:hover path { stroke: red; }
.edge:hover polygon { stroke: red; fill: red; }
]]></style>
<script type="text/javascript"><![CDATA[
var edges = document.getElementsByTagName('g');
if (edges && edges.length) {
  for (var i=0;i<edges.length;i++) {
    if (edges[i].id.substr(0,4)=='edge') {
      edges[i].setAttribute('class','edge');
    }
  }
}
]]></script>
        <defs>
                <circle id="rim" cx="0" cy="0" r="7"/>
                <circle id="rim2" cx="0" cy="0" r="3.5"/>
                <g id="zoomPlus">
                        <use xlink:href="#rim" fill="#404040">
                                <set attributeName="fill" to="#808080" begin="zoomplus.mouseover" end="zoomplus.mouseout"/>
                        </use>
                        <path d="M-4,0h8M0,-4v8" fill="none" stroke="white" stroke-width="1.5" pointer-events="none"/>
                </g>
                <g id="zoomMin">
                        <use xlink:href="#rim" fill="#404040">
                                <set attributeName="fill" to="#808080" begin="zoomminus.mouseover" end="zoomminus.mouseout"/>
                        </use>
                        <path d="M-4,0h8" fill="none" stroke="white" stroke-width="1.5" pointer-events="none"/>
                </g>
                <g id="dirArrow">
                        <path fill="none" stroke="white" stroke-width="1.5" d="M0,-3.0v7 M-2.5,-0.5L0,-3.0L2.5,-0.5"/>
                </g>
               <g id="resetDef">
                       <use xlink:href="#rim2" fill="#404040">
                               <set attributeName="fill" to="#808080" begin="reset.mouseover" end="reset.mouseout"/>
                       </use>
               </g>
        </defs>

<script type="text/javascript">
var viewWidth = 2025;
var viewHeight = 294;
var sectionId = 'dynsection-88';
</script>
<script xlink:href="svgpan.js"/>
<svg id="graph" class="graph">
<g id="viewport">
<title>func_800C8F80</title>
<polygon fill="white" stroke="transparent" points="-4,4 -4,-290 2021,-290 2021,4 -4,4"/>
<!-- Node1 -->
<g id="node1" class="node">
<title>Node1</title>
<g id="a_node1"><a xlink:title=" ">
<polygon fill="#bfbfbf" stroke="black" points="1925,-152.5 1925,-171.5 2017,-171.5 2017,-152.5 1925,-152.5"/>
<text text-anchor="middle" x="1971" y="-159.5" font-family="Helvetica,sans-Serif" font-size="10.00">func_800C8F80</text>
</a>
</g>
</g>
<!-- Node2 -->
<g id="node2" class="node">
<title>Node2</title>
<g id="a_node2"><a xlink:href="player__controller_8c.html#a1796f758711d87699791687c8c8ea84f" target="_top" xlink:title=" ">
<polygon fill="white" stroke="black" points="1410,-76.5 1410,-95.5 1503,-95.5 1503,-76.5 1410,-76.5"/>
<text text-anchor="middle" x="1456.5" y="-83.5" font-family="Helvetica,sans-Serif" font-size="10.00">func_80027EDC</text>
</a>
</g>
</g>
<!-- Node1&#45;&gt;Node2 -->
<g id="edge1" class="edge">
<title>Node1&#45;&gt;Node2</title>
<path fill="none" stroke="midnightblue" d="M1952.45,-145.11C1937.09,-131.51 1913.44,-113.33 1889,-105 1754.86,-59.26 1583.59,-70.7 1503.13,-79.82"/>
<polygon fill="midnightblue" stroke="midnightblue" points="1950.35,-147.93 1960.09,-152.1 1955.08,-142.77 1950.35,-147.93"/>
</g>
<!-- Node23 -->
<g id="node23" class="node">
<title>Node23</title>
<g id="a_node23"><a xlink:href="code__80071F00_8c.html#ae5402431b3b59391b77bfb66b9aa7885" target="_top" xlink:title=" ">
<polygon fill="white" stroke="black" points="1796.5,-228.5 1796.5,-247.5 1888.5,-247.5 1888.5,-228.5 1796.5,-228.5"/>
<text text-anchor="middle" x="1842.5" y="-235.5" font-family="Helvetica,sans-Serif" font-size="10.00">func_800799A8</text>
</a>
</g>
</g>
<!-- Node1&#45;&gt;Node23 -->
<g id="edge29" class="edge">
<title>Node1&#45;&gt;Node23</title>
<path fill="none" stroke="midnightblue" d="M1950.15,-177.82C1934.22,-190.04 1910.97,-206.87 1889,-219 1882.85,-222.39 1875.98,-225.56 1869.47,-228.3"/>
<polygon fill="midnightblue" stroke="midnightblue" points="1952.45,-180.46 1958.19,-171.56 1948.15,-174.94 1952.45,-180.46"/>
</g>
<!-- Node31 -->
<g id="node31" class="node">
<title>Node31</title>
<g id="a_node31"><a xlink:href="code__80071F00_8c.html#a74149ceaded001eab8591bb184ab9cff" target="_top" xlink:title=" ">
<polygon fill="white" stroke="black" points="1796.5,-190.5 1796.5,-209.5 1888.5,-209.5 1888.5,-190.5 1796.5,-190.5"/>
<text text-anchor="middle" x="1842.5" y="-197.5" font-family="Helvetica,sans-Serif" font-size="10.00">func_8007A3F0</text>
</a>
</g>
</g>
<!-- Node1&#45;&gt;Node31 -->
<g id="edge41" class="edge">
<title>Node1&#45;&gt;Node31</title>
<path fill="none" stroke="midnightblue" d="M1928.27,-174.54C1911.06,-179.7 1891.44,-185.6 1875.41,-190.41"/>
<polygon fill="midnightblue" stroke="midnightblue" points="1929.51,-177.82 1938.08,-171.59 1927.49,-171.11 1929.51,-177.82"/>
</g>
<!-- Node33 -->
<g id="node33" class="node">
<title>Node33</title>
<g id="a_node33"><a xlink:href="external_8c.html#aac0d64d382e8e46860f0f987899ecdf0" target="_top" xlink:title=" ">
<polygon fill="white" stroke="black" points="1796,-152.5 1796,-171.5 1889,-171.5 1889,-152.5 1796,-152.5"/>
<text text-anchor="middle" x="1842.5" y="-159.5" font-family="Helvetica,sans-Serif" font-size="10.00">func_800CA59C</text>
</a>
</g>
</g>
<!-- Node1&#45;&gt;Node33 -->
<g id="edge44" class="edge">
<title>Node1&#45;&gt;Node33</title>
<path fill="none" stroke="midnightblue" d="M1914.55,-162C1906.14,-162 1897.53,-162 1889.35,-162"/>
<polygon fill="midnightblue" stroke="midnightblue" points="1914.69,-165.5 1924.69,-162 1914.69,-158.5 1914.69,-165.5"/>
</g>
<!-- Node40 -->
<g id="node40" class="node">
<title>Node40</title>
<g id="a_node40"><a xlink:href="external_8c.html#a8e12528517df50a5fac9f139bfafb0c8" target="_top" xlink:title=" ">
<polygon fill="white" stroke="black" points="1796,-114.5 1796,-133.5 1889,-133.5 1889,-114.5 1796,-114.5"/>
<text text-anchor="middle" x="1842.5" y="-121.5" font-family="Helvetica,sans-Serif" font-size="10.00">func_800CAFC0</text>
</a>
</g>
</g>
<!-- Node1&#45;&gt;Node40 -->
<g id="edge57" class="edge">
<title>Node1&#45;&gt;Node40</title>
<path fill="none" stroke="midnightblue" d="M1928.27,-149.46C1911.06,-144.3 1891.44,-138.4 1875.41,-133.59"/>
<polygon fill="midnightblue" stroke="midnightblue" points="1927.49,-152.89 1938.08,-152.41 1929.51,-146.18 1927.49,-152.89"/>
</g>
<!-- Node3 -->
<g id="node3" class="node">
<title>Node3</title>
<g id="a_node3"><a xlink:href="player__controller_8c.html#aafe8b94ccd61104120a9bf0ee954a901" target="_top" xlink:title=" ">
<polygon fill="white" stroke="black" points="1262.5,-76.5 1262.5,-95.5 1354.5,-95.5 1354.5,-76.5 1262.5,-76.5"/>
<text text-anchor="middle" x="1308.5" y="-83.5" font-family="Helvetica,sans-Serif" font-size="10.00">func_8002D268</text>
</a>
</g>
</g>
<!-- Node2&#45;&gt;Node3 -->
<g id="edge2" class="edge">
<title>Node2&#45;&gt;Node3</title>
<path fill="none" stroke="midnightblue" d="M1399.6,-86C1384.73,-86 1368.85,-86 1354.63,-86"/>
<polygon fill="midnightblue" stroke="midnightblue" points="1399.71,-89.5 1409.71,-86 1399.71,-82.5 1399.71,-89.5"/>
</g>
<!-- Node4 -->
<g id="node4" class="node">
<title>Node4</title>
<g id="a_node4"><a xlink:href="player__controller_8c.html#a9f21890266acabb27e962652c5ef4cfc" target="_top" xlink:title=" ">
<polygon fill="white" stroke="black" points="1115,-152.5 1115,-171.5 1206,-171.5 1206,-152.5 1115,-152.5"/>
<text text-anchor="middle" x="1160.5" y="-159.5" font-family="Helvetica,sans-Serif" font-size="10.00">func_80028864</text>
</a>
</g>
</g>
<!-- Node3&#45;&gt;Node4 -->
<g id="edge3" class="edge">
<title>Node3&#45;&gt;Node4</title>
<path fill="none" stroke="midnightblue" d="M1253.9,-99.34C1250.1,-101.02 1246.43,-102.9 1243,-105 1223.16,-117.15 1226.15,-129.79 1207,-143 1201.79,-146.6 1195.78,-149.7 1189.89,-152.3"/>
<polygon fill="midnightblue" stroke="midnightblue" points="1255.47,-102.48 1263.49,-95.57 1252.9,-95.97 1255.47,-102.48"/>
</g>
<!-- Node16 -->
<g id="node16" class="node">
<title>Node16</title>
<g id="a_node16"><a xlink:href="player__controller_8c.html#a76e0206999fca6c9de4d4bef2c4620ce" target="_top" xlink:title=" ">
<polygon fill="white" stroke="black" points="1114.5,-114.5 1114.5,-133.5 1206.5,-133.5 1206.5,-114.5 1114.5,-114.5"/>
<text text-anchor="middle" x="1160.5" y="-121.5" font-family="Helvetica,sans-Serif" font-size="10.00">func_80028C44</text>
</a>
</g>
</g>
<!-- Node3&#45;&gt;Node16 -->
<g id="edge18" class="edge">
<title>Node3&#45;&gt;Node16</title>
<path fill="none" stroke="midnightblue" d="M1260.96,-98.11C1240.63,-103.4 1217.13,-109.52 1198.08,-114.48"/>
<polygon fill="midnightblue" stroke="midnightblue" points="1261.86,-101.5 1270.66,-95.59 1260.1,-94.72 1261.86,-101.5"/>
</g>
<!-- Node17 -->
<g id="node17" class="node">
<title>Node17</title>
<g id="a_node17"><a xlink:href="player__controller_8c.html#ae531f1b044d00354a79cb3f88b81fa12" target="_top" xlink:title=" ">
<polygon fill="white" stroke="black" points="1114,-76.5 1114,-95.5 1207,-95.5 1207,-76.5 1114,-76.5"/>
<text text-anchor="middle" x="1160.5" y="-83.5" font-family="Helvetica,sans-Serif" font-size="10.00">func_80028D3C</text>
</a>
</g>
</g>
<!-- Node3&#45;&gt;Node17 -->
<g id="edge20" class="edge">
<title>Node3&#45;&gt;Node17</title>
<path fill="none" stroke="midnightblue" d="M1252.03,-86C1237.21,-86 1221.35,-86 1207.12,-86"/>
<polygon fill="midnightblue" stroke="midnightblue" points="1252.11,-89.5 1262.11,-86 1252.1,-82.5 1252.11,-89.5"/>
</g>
<!-- Node18 -->
<g id="node18" class="node">
<title>Node18</title>
<g id="a_node18"><a xlink:href="spawn__players_8c.html#a786871d4fec99acdd5a14b48c1c38a7c" target="_top" xlink:title=" ">
<polygon fill="white" stroke="black" points="1114,-38.5 1114,-57.5 1207,-57.5 1207,-38.5 1114,-38.5"/>
<text text-anchor="middle" x="1160.5" y="-45.5" font-family="Helvetica,sans-Serif" font-size="10.00">func_8003CD98</text>
</a>
</g>
</g>
<!-- Node3&#45;&gt;Node18 -->
<g id="edge22" class="edge">
<title>Node3&#45;&gt;Node18</title>
<path fill="none" stroke="midnightblue" d="M1260.96,-73.89C1240.63,-68.6 1217.13,-62.48 1198.08,-57.52"/>
<polygon fill="midnightblue" stroke="midnightblue" points="1260.1,-77.28 1270.66,-76.41 1261.86,-70.5 1260.1,-77.28"/>
</g>
<!-- Node5 -->
<g id="node5" class="node">
<title>Node5</title>
<g id="a_node5"><a xlink:href="player__controller_8c.html#af9d8e2fa807dab2737045c3c2517a46e" target="_top" xlink:title=" ">
<polygon fill="white" stroke="black" points="986.5,-114.5 986.5,-133.5 1077.5,-133.5 1077.5,-114.5 986.5,-114.5"/>
<text text-anchor="middle" x="1032" y="-121.5" font-family="Helvetica,sans-Serif" font-size="10.00">func_80028E70</text>
</a>
</g>
</g>
<!-- Node4&#45;&gt;Node5 -->
<g id="edge4" class="edge">
<title>Node4&#45;&gt;Node5</title>
<path fill="none" stroke="midnightblue" d="M1117.77,-149.46C1100.56,-144.3 1080.94,-138.4 1064.91,-133.59"/>
<polygon fill="midnightblue" stroke="midnightblue" points="1116.99,-152.89 1127.58,-152.41 1119.01,-146.18 1116.99,-152.89"/>
</g>
<!-- Node6 -->
<g id="node6" class="node">
<title>Node6</title>
<g id="a_node6"><a xlink:href="player__controller_8c.html#a60b22a77aa4cf0b2be0942a3e115a1eb" target="_top" xlink:title=" ">
<polygon fill="white" stroke="black" points="834.5,-152.5 834.5,-171.5 925.5,-171.5 925.5,-152.5 834.5,-152.5"/>
<text text-anchor="middle" x="880" y="-159.5" font-family="Helvetica,sans-Serif" font-size="10.00">func_80028F70</text>
</a>
</g>
</g>
<!-- Node5&#45;&gt;Node6 -->
<g id="edge5" class="edge">
<title>Node5&#45;&gt;Node6</title>
<path fill="none" stroke="midnightblue" d="M983.19,-136.11C962.3,-141.4 938.15,-147.52 918.58,-152.48"/>
<polygon fill="midnightblue" stroke="midnightblue" points="984.31,-139.44 993.15,-133.59 982.6,-132.65 984.31,-139.44"/>
</g>
<!-- Node14 -->
<g id="node14" class="node">
<title>Node14</title>
<g id="a_node14"><a xlink:href="player__controller_8c.html#ac7bf3fa7a7efacb6f6bad44477c2c7ed" target="_top" xlink:title=" ">
<polygon fill="white" stroke="black" points="834.5,-76.5 834.5,-95.5 925.5,-95.5 925.5,-76.5 834.5,-76.5"/>
<text text-anchor="middle" x="880" y="-83.5" font-family="Helvetica,sans-Serif" font-size="10.00">func_80029060</text>
</a>
</g>
</g>
<!-- Node5&#45;&gt;Node14 -->
<g id="edge14" class="edge">
<title>Node5&#45;&gt;Node14</title>
<path fill="none" stroke="midnightblue" d="M983.19,-111.89C962.3,-106.6 938.15,-100.48 918.58,-95.52"/>
<polygon fill="midnightblue" stroke="midnightblue" points="982.6,-115.35 993.15,-114.41 984.31,-108.56 982.6,-115.35"/>
</g>
<!-- Node15 -->
<g id="node15" class="node">
<title>Node15</title>
<g id="a_node15"><a xlink:href="player__controller_8c.html#a31f653813b5697d0af1bb9c16cdc4c76" target="_top" xlink:title=" ">
<polygon fill="white" stroke="black" points="834.5,-114.5 834.5,-133.5 925.5,-133.5 925.5,-114.5 834.5,-114.5"/>
<text text-anchor="middle" x="880" y="-121.5" font-family="Helvetica,sans-Serif" font-size="10.00">func_80029158</text>
</a>
</g>
</g>
<!-- Node5&#45;&gt;Node15 -->
<g id="edge16" class="edge">
<title>Node5&#45;&gt;Node15</title>
<path fill="none" stroke="midnightblue" d="M976.27,-124C959.64,-124 941.57,-124 925.69,-124"/>
<polygon fill="midnightblue" stroke="midnightblue" points="976.4,-127.5 986.4,-124 976.4,-120.5 976.4,-127.5"/>
</g>
<!-- Node7 -->
<g id="node7" class="node">
<title>Node7</title>
<g id="a_node7"><a xlink:href="podium__ceremony__actors_8c.html#a7ea229c65f264670fc828b95e8321154" target="_top" xlink:title=" ">
<polygon fill="white" stroke="black" points="640,-171.5 640,-190.5 774,-190.5 774,-171.5 640,-171.5"/>
<text text-anchor="middle" x="707" y="-178.5" font-family="Helvetica,sans-Serif" font-size="10.00">podium_ceremony_loop</text>
</a>
</g>
</g>
<!-- Node6&#45;&gt;Node7 -->
<g id="edge6" class="edge">
<title>Node6&#45;&gt;Node7</title>
<path fill="none" stroke="midnightblue" d="M823.92,-168.12C808.07,-169.88 790.63,-171.82 774.19,-173.65"/>
<polygon fill="midnightblue" stroke="midnightblue" points="824.52,-171.58 834.07,-166.99 823.75,-164.62 824.52,-171.58"/>
</g>
<!-- Node13 -->
<g id="node13" class="node">
<title>Node13</title>
<g id="a_node13"><a xlink:href="main_8c.html#afff87ffcbfee4f1f37d443110aa7b52a" target="_top" xlink:title=" ">
<polygon fill="white" stroke="black" points="661,-133.5 661,-152.5 753,-152.5 753,-133.5 661,-133.5"/>
<text text-anchor="middle" x="707" y="-140.5" font-family="Helvetica,sans-Serif" font-size="10.00">race_logic_loop</text>
</a>
</g>
</g>
<!-- Node6&#45;&gt;Node13 -->
<g id="edge12" class="edge">
<title>Node6&#45;&gt;Node13</title>
<path fill="none" stroke="midnightblue" d="M823.85,-155.87C801.02,-153.34 774.89,-150.43 753.22,-148.02"/>
<polygon fill="midnightblue" stroke="midnightblue" points="823.75,-159.38 834.07,-157.01 824.52,-152.42 823.75,-159.38"/>
</g>
<!-- Node8 -->
<g id="node8" class="node">
<title>Node8</title>
<g id="a_node8"><a xlink:href="main_8c.html#ae04143ce8113cdafa007c642eb620bc8" target="_top" xlink:title=" ">
<polygon fill="white" stroke="black" points="488,-152.5 488,-171.5 604,-171.5 604,-152.5 488,-152.5"/>
<text text-anchor="middle" x="546" y="-159.5" font-family="Helvetica,sans-Serif" font-size="10.00">game_state_handler</text>
</a>
</g>
</g>
<!-- Node7&#45;&gt;Node8 -->
<g id="edge7" class="edge">
<title>Node7&#45;&gt;Node8</title>
<path fill="none" stroke="midnightblue" d="M629.87,-171.9C621.24,-170.87 612.56,-169.83 604.24,-168.84"/>
<polygon fill="midnightblue" stroke="midnightblue" points="629.61,-175.4 639.95,-173.11 630.44,-168.45 629.61,-175.4"/>
</g>
<!-- Node9 -->
<g id="node9" class="node">
<title>Node9</title>
<g id="a_node9"><a xlink:href="main_8c.html#a633ed517e458daeb768f5361895dcac9" target="_top" xlink:title=" ">
<polygon fill="white" stroke="black" points="339,-114.5 339,-133.5 452,-133.5 452,-114.5 339,-114.5"/>
<text text-anchor="middle" x="395.5" y="-121.5" font-family="Helvetica,sans-Serif" font-size="10.00">thread5_game_loop</text>
</a>
</g>
</g>
<!-- Node8&#45;&gt;Node9 -->
<g id="edge8" class="edge">
<title>Node8&#45;&gt;Node9</title>
<path fill="none" stroke="midnightblue" d="M497.67,-149.89C476.99,-144.6 453.08,-138.48 433.7,-133.52"/>
<polygon fill="midnightblue" stroke="midnightblue" points="496.97,-153.32 507.53,-152.41 498.71,-146.54 496.97,-153.32"/>
</g>
<!-- Node10 -->
<g id="node10" class="node">
<title>Node10</title>
<g id="a_node10"><a xlink:href="main_8c.html#a023b8f272e4efbd33f371e91ffff6b30" target="_top" xlink:title=" ">
<polygon fill="white" stroke="black" points="217,-114.5 217,-133.5 303,-133.5 303,-114.5 217,-114.5"/>
<text text-anchor="middle" x="260" y="-121.5" font-family="Helvetica,sans-Serif" font-size="10.00">thread3_video</text>
</a>
</g>
</g>
<!-- Node9&#45;&gt;Node10 -->
<g id="edge9" class="edge">
<title>Node9&#45;&gt;Node10</title>
<path fill="none" stroke="midnightblue" d="M328.57,-124C319.94,-124 311.3,-124 303.21,-124"/>
<polygon fill="midnightblue" stroke="midnightblue" points="328.66,-127.5 338.66,-124 328.66,-120.5 328.66,-127.5"/>
</g>
<!-- Node11 -->
<g id="node11" class="node">
<title>Node11</title>
<g id="a_node11"><a xlink:href="main_8c.html#a1e35d2b842121e6aea373f09381616e5" target="_top" xlink:title=" ">
<polygon fill="white" stroke="black" points="104,-114.5 104,-133.5 181,-133.5 181,-114.5 104,-114.5"/>
<text text-anchor="middle" x="142.5" y="-121.5" font-family="Helvetica,sans-Serif" font-size="10.00">thread1_idle</text>
</a>
</g>
</g>
<!-- Node10&#45;&gt;Node11 -->
<g id="edge10" class="edge">
<title>Node10&#45;&gt;Node11</title>
<path fill="none" stroke="midnightblue" d="M206.9,-124C198.2,-124 189.33,-124 181.09,-124"/>
<polygon fill="midnightblue" stroke="midnightblue" points="206.98,-127.5 216.98,-124 206.98,-120.5 206.98,-127.5"/>
</g>
<!-- Node12 -->
<g id="node12" class="node">
<title>Node12</title>
<g id="a_node12"><a xlink:href="main_8c.html#a4f87d43525fe95f60ea92bc8a3b70e62" target="_top" xlink:title=" ">
<polygon fill="white" stroke="black" points="0,-114.5 0,-133.5 68,-133.5 68,-114.5 0,-114.5"/>
<text text-anchor="middle" x="34" y="-121.5" font-family="Helvetica,sans-Serif" font-size="10.00">main_func</text>
</a>
</g>
</g>
<!-- Node11&#45;&gt;Node12 -->
<g id="edge11" class="edge">
<title>Node11&#45;&gt;Node12</title>
<path fill="none" stroke="midnightblue" d="M93.95,-124C85.29,-124 76.44,-124 68.31,-124"/>
<polygon fill="midnightblue" stroke="midnightblue" points="93.95,-127.5 103.95,-124 93.95,-120.5 93.95,-127.5"/>
</g>
<!-- Node13&#45;&gt;Node8 -->
<g id="edge13" class="edge">
<title>Node13&#45;&gt;Node8</title>
<path fill="none" stroke="midnightblue" d="M650.68,-149.61C635.64,-151.41 619.32,-153.36 604.18,-155.17"/>
<polygon fill="midnightblue" stroke="midnightblue" points="651.35,-153.06 660.86,-148.39 650.52,-146.11 651.35,-153.06"/>
</g>
<!-- Node14&#45;&gt;Node13 -->
<g id="edge15" class="edge">
<title>Node14&#45;&gt;Node13</title>
<path fill="none" stroke="midnightblue" d="M832.25,-98.27C824.78,-100.41 817.15,-102.69 810,-105 782.85,-113.78 752.24,-125.42 731.7,-133.5"/>
<polygon fill="midnightblue" stroke="midnightblue" points="833.25,-101.63 841.94,-95.56 831.37,-94.89 833.25,-101.63"/>
</g>
<!-- Node15&#45;&gt;Node13 -->
<g id="edge17" class="edge">
<title>Node15&#45;&gt;Node13</title>
<path fill="none" stroke="midnightblue" d="M823.85,-130.13C801.02,-132.66 774.89,-135.57 753.22,-137.98"/>
<polygon fill="midnightblue" stroke="midnightblue" points="824.52,-133.58 834.07,-128.99 823.75,-126.62 824.52,-133.58"/>
</g>
<!-- Node16&#45;&gt;Node5 -->
<g id="edge19" class="edge">
<title>Node16&#45;&gt;Node5</title>
<path fill="none" stroke="midnightblue" d="M1103.96,-124C1095.13,-124 1086.1,-124 1077.57,-124"/>
<polygon fill="midnightblue" stroke="midnightblue" points="1104.19,-127.5 1114.19,-124 1104.19,-120.5 1104.19,-127.5"/>
</g>
<!-- Node17&#45;&gt;Node5 -->
<g id="edge21" class="edge">
<title>Node17&#45;&gt;Node5</title>
<path fill="none" stroke="midnightblue" d="M1117.77,-98.54C1100.56,-103.7 1080.94,-109.6 1064.91,-114.41"/>
<polygon fill="midnightblue" stroke="midnightblue" points="1119.01,-101.82 1127.58,-95.59 1116.99,-95.11 1119.01,-101.82"/>
</g>
<!-- Node19 -->
<g id="node19" class="node">
<title>Node19</title>
<g id="a_node19"><a xlink:href="spawn__players_8c.html#ac1a9412b931cfa517a2382c2fc605399" target="_top" xlink:title=" ">
<polygon fill="white" stroke="black" points="986,-38.5 986,-57.5 1078,-57.5 1078,-38.5 986,-38.5"/>
<text text-anchor="middle" x="1032" y="-45.5" font-family="Helvetica,sans-Serif" font-size="10.00">func_8003D080</text>
</a>
</g>
</g>
<!-- Node18&#45;&gt;Node19 -->
<g id="edge23" class="edge">
<title>Node18&#45;&gt;Node19</title>
<path fill="none" stroke="midnightblue" d="M1103.59,-48C1095.09,-48 1086.41,-48 1078.18,-48"/>
<polygon fill="midnightblue" stroke="midnightblue" points="1103.83,-51.5 1113.83,-48 1103.83,-44.5 1103.83,-51.5"/>
</g>
<!-- Node20 -->
<g id="node20" class="node">
<title>Node20</title>
<g id="a_node20"><a xlink:href="code__80281780_8c.html#af227cfd0f1fd3d6adbe9a29ad59b4dc8" target="_top" xlink:title=" ">
<polygon fill="white" stroke="black" points="810,-38.5 810,-57.5 950,-57.5 950,-38.5 810,-38.5"/>
<text text-anchor="middle" x="880" y="-45.5" font-family="Helvetica,sans-Serif" font-size="10.00">load_ceremony_cutscene</text>
</a>
</g>
</g>
<!-- Node19&#45;&gt;Node20 -->
<g id="edge24" class="edge">
<title>Node19&#45;&gt;Node20</title>
<path fill="none" stroke="midnightblue" d="M975.95,-48C967.54,-48 958.77,-48 950.11,-48"/>
<polygon fill="midnightblue" stroke="midnightblue" points="976,-51.5 986,-48 976,-44.5 976,-51.5"/>
</g>
<!-- Node22 -->
<g id="node22" class="node">
<title>Node22</title>
<g id="a_node22"><a xlink:href="code__800029B0_8c.html#aca6165112fc92e65ad6477e785a7098c" target="_top" xlink:title=" ">
<polygon fill="white" stroke="black" points="845,-0.5 845,-19.5 915,-19.5 915,-0.5 845,-0.5"/>
<text text-anchor="middle" x="880" y="-7.5" font-family="Helvetica,sans-Serif" font-size="10.00">setup_race</text>
</a>
</g>
</g>
<!-- Node19&#45;&gt;Node22 -->
<g id="edge27" class="edge">
<title>Node19&#45;&gt;Node22</title>
<path fill="none" stroke="midnightblue" d="M983.28,-35.91C961.17,-30.31 935.39,-23.78 915.25,-18.68"/>
<polygon fill="midnightblue" stroke="midnightblue" points="982.6,-39.35 993.15,-38.41 984.31,-32.56 982.6,-39.35"/>
</g>
<!-- Node21 -->
<g id="node21" class="node">
<title>Node21</title>
<g id="a_node21"><a xlink:href="main_8c.html#ad0625ed56ac663d3ec7ae8f1ba50c735" target="_top" xlink:title=" ">
<polygon fill="white" stroke="black" points="653,-38.5 653,-57.5 761,-57.5 761,-38.5 653,-38.5"/>
<text text-anchor="middle" x="707" y="-45.5" font-family="Helvetica,sans-Serif" font-size="10.00">update_gamestate</text>
</a>
</g>
</g>
<!-- Node20&#45;&gt;Node21 -->
<g id="edge25" class="edge">
<title>Node20&#45;&gt;Node21</title>
<path fill="none" stroke="midnightblue" d="M799.92,-48C786.73,-48 773.34,-48 761.01,-48"/>
<polygon fill="midnightblue" stroke="midnightblue" points="799.94,-51.5 809.94,-48 799.94,-44.5 799.94,-51.5"/>
</g>
<!-- Node21&#45;&gt;Node9 -->
<g id="edge26" class="edge">
<title>Node21&#45;&gt;Node9</title>
<path fill="none" stroke="midnightblue" d="M657.29,-59.96C595.95,-75.02 491.81,-100.6 435.47,-114.43"/>
<polygon fill="midnightblue" stroke="midnightblue" points="658.24,-63.33 667.11,-57.55 656.57,-56.53 658.24,-63.33"/>
</g>
<!-- Node22&#45;&gt;Node21 -->
<g id="edge28" class="edge">
<title>Node22&#45;&gt;Node21</title>
<path fill="none" stroke="midnightblue" d="M834.9,-19.8C809.06,-25.54 776.58,-32.76 750.94,-38.46"/>
<polygon fill="midnightblue" stroke="midnightblue" points="835.8,-23.18 844.81,-17.6 834.29,-16.35 835.8,-23.18"/>
</g>
<!-- Node24 -->
<g id="node24" class="node">
<title>Node24</title>
<g id="a_node24"><a xlink:href="code__80071F00_8c.html#ada887b1ac4f9c80e6ab309082efde4f4" target="_top" xlink:title=" ">
<polygon fill="white" stroke="black" points="1667.5,-266.5 1667.5,-285.5 1759.5,-285.5 1759.5,-266.5 1667.5,-266.5"/>
<text text-anchor="middle" x="1713.5" y="-273.5" font-family="Helvetica,sans-Serif" font-size="10.00">func_80079B40</text>
</a>
</g>
</g>
<!-- Node23&#45;&gt;Node24 -->
<g id="edge30" class="edge">
<title>Node23&#45;&gt;Node24</title>
<path fill="none" stroke="midnightblue" d="M1799.61,-250.54C1782.33,-255.7 1762.63,-261.6 1746.54,-266.41"/>
<polygon fill="midnightblue" stroke="midnightblue" points="1800.88,-253.81 1809.45,-247.59 1798.87,-247.1 1800.88,-253.81"/>
</g>
<!-- Node30 -->
<g id="node30" class="node">
<title>Node30</title>
<g id="a_node30"><a xlink:href="code__80071F00_8c.html#a428563759075ebf2fbdc25342159e60c" target="_top" xlink:title=" ">
<polygon fill="white" stroke="black" points="1667.5,-228.5 1667.5,-247.5 1759.5,-247.5 1759.5,-228.5 1667.5,-228.5"/>
<text text-anchor="middle" x="1713.5" y="-235.5" font-family="Helvetica,sans-Serif" font-size="10.00">func_80079D44</text>
</a>
</g>
</g>
<!-- Node23&#45;&gt;Node30 -->
<g id="edge39" class="edge">
<title>Node23&#45;&gt;Node30</title>
<path fill="none" stroke="midnightblue" d="M1786.2,-238C1777.42,-238 1768.43,-238 1759.92,-238"/>
<polygon fill="midnightblue" stroke="midnightblue" points="1786.37,-241.5 1796.37,-238 1786.37,-234.5 1786.37,-241.5"/>
</g>
<!-- Node25 -->
<g id="node25" class="node">
<title>Node25</title>
<g id="a_node25"><a xlink:href="code__80071F00_8c.html#a489fce0d997febed9f58f02d9be05838" target="_top" xlink:title=" ">
<polygon fill="white" stroke="black" points="1539,-228.5 1539,-247.5 1631,-247.5 1631,-228.5 1539,-228.5"/>
<text text-anchor="middle" x="1585" y="-235.5" font-family="Helvetica,sans-Serif" font-size="10.00">func_8007A948</text>
</a>
</g>
</g>
<!-- Node24&#45;&gt;Node25 -->
<g id="edge31" class="edge">
<title>Node24&#45;&gt;Node25</title>
<path fill="none" stroke="midnightblue" d="M1670.77,-263.46C1653.56,-258.3 1633.94,-252.4 1617.91,-247.59"/>
<polygon fill="midnightblue" stroke="midnightblue" points="1669.99,-266.89 1680.58,-266.41 1672.01,-260.18 1669.99,-266.89"/>
</g>
<!-- Node26 -->
<g id="node26" class="node">
<title>Node26</title>
<g id="a_node26"><a xlink:href="code__80057C60_8c.html#ad9abd1f78c8153b6eb41db7e6378a78c" target="_top" xlink:title=" ">
<polygon fill="white" stroke="black" points="1410.5,-228.5 1410.5,-247.5 1502.5,-247.5 1502.5,-228.5 1410.5,-228.5"/>
<text text-anchor="middle" x="1456.5" y="-235.5" font-family="Helvetica,sans-Serif" font-size="10.00">func_80059A88</text>
</a>
</g>
</g>
<!-- Node25&#45;&gt;Node26 -->
<g id="edge32" class="edge">
<title>Node25&#45;&gt;Node26</title>
<path fill="none" stroke="midnightblue" d="M1528.43,-238C1519.9,-238 1511.19,-238 1502.92,-238"/>
<polygon fill="midnightblue" stroke="midnightblue" points="1528.69,-241.5 1538.69,-238 1528.69,-234.5 1528.69,-241.5"/>
</g>
<!-- Node27 -->
<g id="node27" class="node">
<title>Node27</title>
<g id="a_node27"><a xlink:href="code__80057C60_8c.html#ae61bd9f49508d924387c00845cae4060" target="_top" xlink:title=" ">
<polygon fill="white" stroke="black" points="986,-228.5 986,-247.5 1078,-247.5 1078,-228.5 986,-228.5"/>
<text text-anchor="middle" x="1032" y="-235.5" font-family="Helvetica,sans-Serif" font-size="10.00">func_80059AC8</text>
</a>
</g>
</g>
<!-- Node26&#45;&gt;Node27 -->
<g id="edge33" class="edge">
<title>Node26&#45;&gt;Node27</title>
<path fill="none" stroke="midnightblue" d="M1400.12,-238C1315.63,-238 1156.17,-238 1078.21,-238"/>
<polygon fill="midnightblue" stroke="midnightblue" points="1400.29,-241.5 1410.29,-238 1400.29,-234.5 1400.29,-241.5"/>
</g>
<!-- Node27&#45;&gt;Node7 -->
<g id="edge37" class="edge">
<title>Node27&#45;&gt;Node7</title>
<path fill="none" stroke="midnightblue" d="M975.56,-235.13C930.56,-232.05 865.67,-225.9 810,-214 783.06,-208.24 753.18,-198.11 732.76,-190.59"/>
<polygon fill="midnightblue" stroke="midnightblue" points="975.5,-238.64 985.7,-235.8 975.95,-231.65 975.5,-238.64"/>
</g>
<!-- Node27&#45;&gt;Node13 -->
<g id="edge38" class="edge">
<title>Node27&#45;&gt;Node13</title>
<path fill="none" stroke="midnightblue" d="M990.76,-225.59C977.79,-221.72 963.33,-217.54 950,-214 888.22,-197.58 869.86,-203.43 810,-181 793.06,-174.65 790.78,-168.76 774,-162 765.15,-158.44 755.39,-155.24 746.15,-152.54"/>
<polygon fill="midnightblue" stroke="midnightblue" points="989.76,-228.94 1000.34,-228.47 991.78,-222.24 989.76,-228.94"/>
</g>
<!-- Node28 -->
<g id="node28" class="node">
<title>Node28</title>
<g id="a_node28"><a xlink:href="code__80280000_8c.html#a4d9b0156b64d7a67e4cb21cde391ca43" target="_top" xlink:title=" ">
<polygon fill="white" stroke="black" points="834.5,-266.5 834.5,-285.5 925.5,-285.5 925.5,-266.5 834.5,-266.5"/>
<text text-anchor="middle" x="880" y="-273.5" font-family="Helvetica,sans-Serif" font-size="10.00">func_80280000</text>
</a>
</g>
</g>
<!-- Node27&#45;&gt;Node28 -->
<g id="edge34" class="edge">
<title>Node27&#45;&gt;Node28</title>
<path fill="none" stroke="midnightblue" d="M983.19,-250.11C962.3,-255.4 938.15,-261.52 918.58,-266.48"/>
<polygon fill="midnightblue" stroke="midnightblue" points="984.31,-253.44 993.15,-247.59 982.6,-246.65 984.31,-253.44"/>
</g>
<!-- Node29 -->
<g id="node29" class="node">
<title>Node29</title>
<g id="a_node29"><a xlink:href="code__80280000_8c.html#aa28a69be4eda3b8667366c6c7b556024" target="_top" xlink:title=" ">
<polygon fill="white" stroke="black" points="669,-237.5 669,-256.5 745,-256.5 745,-237.5 669,-237.5"/>
<text text-anchor="middle" x="707" y="-244.5" font-family="Helvetica,sans-Serif" font-size="10.00">credits_loop</text>
</a>
</g>
</g>
<!-- Node28&#45;&gt;Node29 -->
<g id="edge35" class="edge">
<title>Node28&#45;&gt;Node29</title>
<path fill="none" stroke="midnightblue" d="M824.05,-266.68C798.26,-262.31 768.2,-257.21 745.13,-253.3"/>
<polygon fill="midnightblue" stroke="midnightblue" points="823.63,-270.16 834.07,-268.38 824.8,-263.26 823.63,-270.16"/>
</g>
<!-- Node29&#45;&gt;Node8 -->
<g id="edge36" class="edge">
<title>Node29&#45;&gt;Node8</title>
<path fill="none" stroke="midnightblue" d="M679.13,-232.63C646.69,-215.29 593.01,-186.6 565.11,-171.68"/>
<polygon fill="midnightblue" stroke="midnightblue" points="677.6,-235.79 688.07,-237.41 680.9,-229.61 677.6,-235.79"/>
</g>
<!-- Node30&#45;&gt;Node25 -->
<g id="edge40" class="edge">
<title>Node30&#45;&gt;Node25</title>
<path fill="none" stroke="midnightblue" d="M1656.93,-238C1648.4,-238 1639.69,-238 1631.42,-238"/>
<polygon fill="midnightblue" stroke="midnightblue" points="1657.19,-241.5 1667.19,-238 1657.19,-234.5 1657.19,-241.5"/>
</g>
<!-- Node32 -->
<g id="node32" class="node">
<title>Node32</title>
<g id="a_node32"><a xlink:href="code__80071F00_8c.html#a785f6c730f3d8184ae5e7b615d97c6a5" target="_top" xlink:title=" ">
<polygon fill="white" stroke="black" points="1667,-190.5 1667,-209.5 1760,-209.5 1760,-190.5 1667,-190.5"/>
<text text-anchor="middle" x="1713.5" y="-197.5" font-family="Helvetica,sans-Serif" font-size="10.00">func_8007A4D4</text>
</a>
</g>
</g>
<!-- Node31&#45;&gt;Node32 -->
<g id="edge42" class="edge">
<title>Node31&#45;&gt;Node32</title>
<path fill="none" stroke="midnightblue" d="M1786.33,-200C1777.66,-200 1768.77,-200 1760.34,-200"/>
<polygon fill="midnightblue" stroke="midnightblue" points="1786.37,-203.5 1796.37,-200 1786.37,-196.5 1786.37,-203.5"/>
</g>
<!-- Node32&#45;&gt;Node25 -->
<g id="edge43" class="edge">
<title>Node32&#45;&gt;Node25</title>
<path fill="none" stroke="midnightblue" d="M1670.77,-212.54C1653.56,-217.7 1633.94,-223.6 1617.91,-228.41"/>
<polygon fill="midnightblue" stroke="midnightblue" points="1672.01,-215.82 1680.58,-209.59 1669.99,-209.11 1672.01,-215.82"/>
</g>
<!-- Node34 -->
<g id="node34" class="node">
<title>Node34</title>
<g id="a_node34"><a xlink:href="code__8008C1D0_8c.html#a2599648339bb4149c4d55e673795e974" target="_top" xlink:title=" ">
<polygon fill="white" stroke="black" points="1668,-152.5 1668,-171.5 1759,-171.5 1759,-152.5 1668,-152.5"/>
<text text-anchor="middle" x="1713.5" y="-159.5" font-family="Helvetica,sans-Serif" font-size="10.00">func_8008F778</text>
</a>
</g>
</g>
<!-- Node33&#45;&gt;Node34 -->
<g id="edge45" class="edge">
<title>Node33&#45;&gt;Node34</title>
<path fill="none" stroke="midnightblue" d="M1785.41,-162C1776.57,-162 1767.54,-162 1759.01,-162"/>
<polygon fill="midnightblue" stroke="midnightblue" points="1785.65,-165.5 1795.65,-162 1785.65,-158.5 1785.65,-165.5"/>
</g>
<!-- Node35 -->
<g id="node35" class="node">
<title>Node35</title>
<g id="a_node35"><a xlink:href="player__controller_8c.html#a9a5f0b2f998d39cc1e936cc660c36fe7" target="_top" xlink:title=" ">
<polygon fill="white" stroke="black" points="1539,-133.5 1539,-152.5 1631,-152.5 1631,-133.5 1539,-133.5"/>
<text text-anchor="middle" x="1585" y="-140.5" font-family="Helvetica,sans-Serif" font-size="10.00">func_8002B308</text>
</a>
</g>
</g>
<!-- Node34&#45;&gt;Node35 -->
<g id="edge46" class="edge">
<title>Node34&#45;&gt;Node35</title>
<path fill="none" stroke="midnightblue" d="M1657.92,-153.8C1648.95,-152.46 1639.75,-151.07 1631.05,-149.77"/>
<polygon fill="midnightblue" stroke="midnightblue" points="1657.49,-157.28 1667.9,-155.3 1658.53,-150.35 1657.49,-157.28"/>
</g>
<!-- Node36 -->
<g id="node36" class="node">
<title>Node36</title>
<g id="a_node36"><a xlink:href="player__controller_8c.html#a6fe7f4df470550f8eb0f99443cca58f5" target="_top" xlink:title=" ">
<polygon fill="white" stroke="black" points="1410.5,-133.5 1410.5,-152.5 1502.5,-152.5 1502.5,-133.5 1410.5,-133.5"/>
<text text-anchor="middle" x="1456.5" y="-140.5" font-family="Helvetica,sans-Serif" font-size="10.00">func_8002B830</text>
</a>
</g>
</g>
<!-- Node35&#45;&gt;Node36 -->
<g id="edge47" class="edge">
<title>Node35&#45;&gt;Node36</title>
<path fill="none" stroke="midnightblue" d="M1528.43,-143C1519.9,-143 1511.19,-143 1502.92,-143"/>
<polygon fill="midnightblue" stroke="midnightblue" points="1528.69,-146.5 1538.69,-143 1528.69,-139.5 1528.69,-146.5"/>
</g>
<!-- Node36&#45;&gt;Node3 -->
<g id="edge50" class="edge">
<title>Node36&#45;&gt;Node3</title>
<path fill="none" stroke="midnightblue" d="M1427.98,-128.91C1412.39,-121.25 1392.38,-111.95 1374,-105 1364.83,-101.53 1354.73,-98.3 1345.3,-95.51"/>
<polygon fill="midnightblue" stroke="midnightblue" points="1426.56,-132.11 1437.07,-133.44 1429.68,-125.84 1426.56,-132.11"/>
</g>
<!-- Node37 -->
<g id="node37" class="node">
<title>Node37</title>
<g id="a_node37"><a xlink:href="player__controller_8c.html#aeb6ae9d3608abc39cf4e0978a6930338" target="_top" xlink:title=" ">
<polygon fill="white" stroke="black" points="1243,-152.5 1243,-171.5 1374,-171.5 1374,-152.5 1243,-152.5"/>
<text text-anchor="middle" x="1308.5" y="-159.5" font-family="Helvetica,sans-Serif" font-size="10.00">control_cpu_movement</text>
</a>
</g>
</g>
<!-- Node36&#45;&gt;Node37 -->
<g id="edge48" class="edge">
<title>Node36&#45;&gt;Node37</title>
<path fill="none" stroke="midnightblue" d="M1400,-150.22C1391.56,-151.32 1382.78,-152.46 1374.16,-153.59"/>
<polygon fill="midnightblue" stroke="midnightblue" points="1400.64,-153.67 1410.11,-148.91 1399.74,-146.73 1400.64,-153.67"/>
</g>
<!-- Node38 -->
<g id="node38" class="node">
<title>Node38</title>
<g id="a_node38"><a xlink:href="player__controller_8c.html#a3cde716e9abdd31cd55ca140c68e6b30" target="_top" xlink:title=" ">
<polygon fill="white" stroke="black" points="1263,-114.5 1263,-133.5 1354,-133.5 1354,-114.5 1263,-114.5"/>
<text text-anchor="middle" x="1308.5" y="-121.5" font-family="Helvetica,sans-Serif" font-size="10.00">func_8002E594</text>
</a>
</g>
</g>
<!-- Node36&#45;&gt;Node38 -->
<g id="edge51" class="edge">
<title>Node36&#45;&gt;Node38</title>
<path fill="none" stroke="midnightblue" d="M1399.84,-135.76C1384.72,-133.79 1368.54,-131.68 1354.12,-129.81"/>
<polygon fill="midnightblue" stroke="midnightblue" points="1399.74,-139.27 1410.11,-137.09 1400.64,-132.33 1399.74,-139.27"/>
</g>
<!-- Node39 -->
<g id="node39" class="node">
<title>Node39</title>
<g id="a_node39"><a xlink:href="player__controller_8c.html#ae0f6e0f1235dc6879d78318ea5db353e" target="_top" xlink:title=" ">
<polygon fill="white" stroke="black" points="1262.5,-190.5 1262.5,-209.5 1354.5,-209.5 1354.5,-190.5 1262.5,-190.5"/>
<text text-anchor="middle" x="1308.5" y="-197.5" font-family="Helvetica,sans-Serif" font-size="10.00">func_80038C6C</text>
</a>
</g>
</g>
<!-- Node36&#45;&gt;Node39 -->
<g id="edge55" class="edge">
<title>Node36&#45;&gt;Node39</title>
<path fill="none" stroke="midnightblue" d="M1427.98,-157.09C1412.39,-164.75 1392.38,-174.05 1374,-181 1364.83,-184.47 1354.73,-187.7 1345.3,-190.49"/>
<polygon fill="midnightblue" stroke="midnightblue" points="1429.68,-160.16 1437.07,-152.56 1426.56,-153.89 1429.68,-160.16"/>
</g>
<!-- Node37&#45;&gt;Node4 -->
<g id="edge49" class="edge">
<title>Node37&#45;&gt;Node4</title>
<path fill="none" stroke="midnightblue" d="M1232.45,-162C1223.44,-162 1214.47,-162 1206.09,-162"/>
<polygon fill="midnightblue" stroke="midnightblue" points="1232.61,-165.5 1242.61,-162 1232.61,-158.5 1232.61,-165.5"/>
</g>
<!-- Node38&#45;&gt;Node4 -->
<g id="edge52" class="edge">
<title>Node38&#45;&gt;Node4</title>
<path fill="none" stroke="midnightblue" d="M1260.96,-136.11C1240.63,-141.4 1217.13,-147.52 1198.08,-152.48"/>
<polygon fill="midnightblue" stroke="midnightblue" points="1261.86,-139.5 1270.66,-133.59 1260.1,-132.72 1261.86,-139.5"/>
</g>
<!-- Node38&#45;&gt;Node16 -->
<g id="edge53" class="edge">
<title>Node38&#45;&gt;Node16</title>
<path fill="none" stroke="midnightblue" d="M1252.61,-124C1237.43,-124 1221.13,-124 1206.58,-124"/>
<polygon fill="midnightblue" stroke="midnightblue" points="1252.9,-127.5 1262.9,-124 1252.9,-120.5 1252.9,-127.5"/>
</g>
<!-- Node38&#45;&gt;Node17 -->
<g id="edge54" class="edge">
<title>Node38&#45;&gt;Node17</title>
<path fill="none" stroke="midnightblue" d="M1260.96,-111.89C1240.63,-106.6 1217.13,-100.48 1198.08,-95.52"/>
<polygon fill="midnightblue" stroke="midnightblue" points="1260.1,-115.28 1270.66,-114.41 1261.86,-108.5 1260.1,-115.28"/>
</g>
<!-- Node39&#45;&gt;Node5 -->
<g id="edge56" class="edge">
<title>Node39&#45;&gt;Node5</title>
<path fill="none" stroke="midnightblue" d="M1252.24,-201.97C1212.59,-201.63 1158.54,-197.54 1114,-181 1085.31,-170.35 1057.35,-146.95 1042.99,-133.68"/>
<polygon fill="midnightblue" stroke="midnightblue" points="1252.24,-205.47 1262.25,-201.98 1252.25,-198.47 1252.24,-205.47"/>
</g>
<!-- Node41 -->
<g id="node41" class="node">
<title>Node41</title>
<g id="a_node41"><a xlink:href="code__8008C1D0_8c.html#a4566648ef0cea1d17a97a3827e8c0468" target="_top" xlink:title=" ">
<polygon fill="white" stroke="black" points="1668.5,-114.5 1668.5,-133.5 1758.5,-133.5 1758.5,-114.5 1668.5,-114.5"/>
<text text-anchor="middle" x="1713.5" y="-121.5" font-family="Helvetica,sans-Serif" font-size="10.00">func_8008FA38</text>
</a>
</g>
</g>
<!-- Node40&#45;&gt;Node41 -->
<g id="edge58" class="edge">
<title>Node40&#45;&gt;Node41</title>
<path fill="none" stroke="midnightblue" d="M1785.57,-124C1776.54,-124 1767.29,-124 1758.58,-124"/>
<polygon fill="midnightblue" stroke="midnightblue" points="1785.65,-127.5 1795.65,-124 1785.65,-120.5 1785.65,-127.5"/>
</g>
<!-- Node41&#45;&gt;Node35 -->
<g id="edge59" class="edge">
<title>Node41&#45;&gt;Node35</title>
<path fill="none" stroke="midnightblue" d="M1658.25,-132.15C1649.26,-133.5 1640.03,-134.89 1631.29,-136.2"/>
<polygon fill="midnightblue" stroke="midnightblue" points="1658.89,-135.59 1668.26,-130.65 1657.85,-128.67 1658.89,-135.59"/>
</g>
</g>
</svg>
        <g id="navigator" transform="translate(0 0)" fill="#404254">
                <rect fill="#f2f5e9" fill-opacity="0.5" stroke="#606060" stroke-width=".5" x="0" y="0" width="60" height="60"/>
                <use id="zoomplus" xlink:href="#zoomPlus" x="17" y="9" onmousedown="handleZoom(evt,'in')"/>
                <use id="zoomminus" xlink:href="#zoomMin" x="42" y="9" onmousedown="handleZoom(evt,'out')"/>
                <use id="reset" xlink:href="#resetDef" x="30" y="36" onmousedown="handleReset()"/>
                <g id="arrowUp" xlink:href="#dirArrow" transform="translate(30 24)" onmousedown="handlePan(0,-1)">
                  <use xlink:href="#rim" fill="#404040">
                        <set attributeName="fill" to="#808080" begin="arrowUp.mouseover" end="arrowUp.mouseout"/>
                  </use>
                  <path fill="none" stroke="white" stroke-width="1.5" d="M0,-3.0v7 M-2.5,-0.5L0,-3.0L2.5,-0.5"/>
                </g>
                <g id="arrowRight" xlink:href="#dirArrow" transform="rotate(90) translate(36 -43)" onmousedown="handlePan(1,0)">
                  <use xlink:href="#rim" fill="#404040">
                        <set attributeName="fill" to="#808080" begin="arrowRight.mouseover" end="arrowRight.mouseout"/>
                  </use>
                  <path fill="none" stroke="white" stroke-width="1.5" d="M0,-3.0v7 M-2.5,-0.5L0,-3.0L2.5,-0.5"/>
                </g>
                <g id="arrowDown" xlink:href="#dirArrow" transform="rotate(180) translate(-30 -48)" onmousedown="handlePan(0,1)">
                  <use xlink:href="#rim" fill="#404040">
                        <set attributeName="fill" to="#808080" begin="arrowDown.mouseover" end="arrowDown.mouseout"/>
                  </use>
                  <path fill="none" stroke="white" stroke-width="1.5" d="M0,-3.0v7 M-2.5,-0.5L0,-3.0L2.5,-0.5"/>
                </g>
                <g id="arrowLeft" xlink:href="#dirArrow" transform="rotate(270) translate(-36 17)" onmousedown="handlePan(-1,0)">
                  <use xlink:href="#rim" fill="#404040">
                        <set attributeName="fill" to="#808080" begin="arrowLeft.mouseover" end="arrowLeft.mouseout"/>
                  </use>
                  <path fill="none" stroke="white" stroke-width="1.5" d="M0,-3.0v7 M-2.5,-0.5L0,-3.0L2.5,-0.5"/>
                </g>
        </g>
        <svg viewBox="0 0 15 15" width="100%" height="30px" preserveAspectRatio="xMaxYMin meet">
         <g id="arrow_out" transform="scale(0.3 0.3)">
          <a xlink:href="external_8h_a7130d14cae066890c2597735780f8c1e_icgraph_org.svg" target="_base">
           <rect id="button" ry="5" rx="5" y="6" x="6" height="38" width="38"
                fill="#f2f5e9" fill-opacity="0.5" stroke="#606060" stroke-width="1.0"/>
           <path id="arrow"
             d="M 11.500037,31.436501 C 11.940474,20.09759 22.043105,11.32322 32.158766,21.979434 L 37.068811,17.246167 C 37.068811,17.246167 37.088388,32 37.088388,32 L 22.160133,31.978069 C 22.160133,31.978069 26.997745,27.140456 26.997745,27.140456 C 18.528582,18.264221 13.291696,25.230495 11.500037,31.436501 z"
             style="fill:#404040;"/>
          </a>
         </g>
        </svg>
</svg>
