<?xml version="1.0" encoding="UTF-8" standalone="no"?>
<!DOCTYPE svg PUBLIC "-//W3C//DTD SVG 1.1//EN"
 "http://www.w3.org/Graphics/SVG/1.1/DTD/svg11.dtd">
<!-- Generated by graphviz version 2.43.0 (0)
 -->
<!-- Title: src/audio/external.h Pages: 1 -->
<!--zoomable 95 -->
<svg id="main" version="1.1" xmlns="http://www.w3.org/2000/svg" xmlns:xlink="http://www.w3.org/1999/xlink" xml:space="preserve" onload="init(evt)">
<style type="text/css"><![CDATA[
.edge:hover path { stroke: red; }
.edge:hover polygon { stroke: red; fill: red; }
]]></style>
<script type="text/javascript"><![CDATA[
var edges = document.getElementsByTagName('g');
if (edges && edges.length) {
  for (var i=0;i<edges.length;i++) {
    if (edges[i].id.substr(0,4)=='edge') {
      edges[i].setAttribute('class','edge');
    }
  }
}
]]></script>
        <defs>
                <circle id="rim" cx="0" cy="0" r="7"/>
                <circle id="rim2" cx="0" cy="0" r="3.5"/>
                <g id="zoomPlus">
                        <use xlink:href="#rim" fill="#404040">
                                <set attributeName="fill" to="#808080" begin="zoomplus.mouseover" end="zoomplus.mouseout"/>
                        </use>
                        <path d="M-4,0h8M0,-4v8" fill="none" stroke="white" stroke-width="1.5" pointer-events="none"/>
                </g>
                <g id="zoomMin">
                        <use xlink:href="#rim" fill="#404040">
                                <set attributeName="fill" to="#808080" begin="zoomminus.mouseover" end="zoomminus.mouseout"/>
                        </use>
                        <path d="M-4,0h8" fill="none" stroke="white" stroke-width="1.5" pointer-events="none"/>
                </g>
                <g id="dirArrow">
                        <path fill="none" stroke="white" stroke-width="1.5" d="M0,-3.0v7 M-2.5,-0.5L0,-3.0L2.5,-0.5"/>
                </g>
               <g id="resetDef">
                       <use xlink:href="#rim2" fill="#404040">
                               <set attributeName="fill" to="#808080" begin="reset.mouseover" end="reset.mouseout"/>
                       </use>
               </g>
        </defs>

<script type="text/javascript">
var viewWidth = 2484;
var viewHeight = 95;
var sectionId = 'dynsection-1';
</script>
<script xlink:href="svgpan.js"/>
<svg id="graph" class="graph">
<g id="viewport">
<title>src/audio/external.h</title>
<polygon fill="white" stroke="transparent" points="-4,4 -4,-91 2480,-91 2480,4 -4,4"/>
<!-- Node1 -->
<g id="node1" class="node">
<title>Node1</title>
<g id="a_node1"><a xlink:title=" ">
<polygon fill="#bfbfbf" stroke="black" points="1231,-67.5 1231,-86.5 1344,-86.5 1344,-67.5 1231,-67.5"/>
<text text-anchor="middle" x="1287.5" y="-74.5" font-family="Helvetica,sans-Serif" font-size="10.00">src/audio/external.h</text>
</a>
</g>
</g>
<!-- Node2 -->
<g id="node2" class="node">
<title>Node2</title>
<g id="a_node2"><a xlink:href="external_8c.html" target="_top" xlink:title=" ">
<polygon fill="white" stroke="black" points="0,-6 0,-25 113,-25 113,-6 0,-6"/>
<text text-anchor="middle" x="56.5" y="-13" font-family="Helvetica,sans-Serif" font-size="10.00">src/audio/external.c</text>
</a>
</g>
</g>
<!-- Node1&#45;&gt;Node2 -->
<g id="edge1" class="edge">
<title>Node1&#45;&gt;Node2</title>
<path fill="none" stroke="midnightblue" d="M1220.68,-74.98C1006.28,-71.46 337.19,-58.51 122.5,-31 111.79,-29.63 100.26,-27.37 89.87,-25.04"/>
<polygon fill="midnightblue" stroke="midnightblue" points="1220.79,-78.48 1230.84,-75.15 1220.9,-71.48 1220.79,-78.48"/>
</g>
<!-- Node3 -->
<g id="node3" class="node">
<title>Node3</title>
<g id="a_node3"><a xlink:href="playback_8c.html" target="_top" xlink:title=" ">
<polygon fill="white" stroke="black" points="131.5,-6 131.5,-25 247.5,-25 247.5,-6 131.5,-6"/>
<text text-anchor="middle" x="189.5" y="-13" font-family="Helvetica,sans-Serif" font-size="10.00">src/audio/playback.c</text>
</a>
</g>
</g>
<!-- Node1&#45;&gt;Node3 -->
<g id="edge2" class="edge">
<title>Node1&#45;&gt;Node3</title>
<path fill="none" stroke="midnightblue" d="M1220.44,-74.56C1022.66,-70.07 443.94,-55.2 256.5,-31 245.64,-29.6 233.93,-27.33 223.39,-25"/>
<polygon fill="midnightblue" stroke="midnightblue" points="1220.61,-78.06 1230.68,-74.79 1220.76,-71.07 1220.61,-78.06"/>
</g>
<!-- Node4 -->
<g id="node4" class="node">
<title>Node4</title>
<g id="a_node4"><a xlink:href="seqplayer_8c.html" target="_top" xlink:title=" ">
<polygon fill="white" stroke="black" points="266,-6 266,-25 385,-25 385,-6 266,-6"/>
<text text-anchor="middle" x="325.5" y="-13" font-family="Helvetica,sans-Serif" font-size="10.00">src/audio/seqplayer.c</text>
</a>
</g>
</g>
<!-- Node1&#45;&gt;Node4 -->
<g id="edge3" class="edge">
<title>Node1&#45;&gt;Node4</title>
<path fill="none" stroke="midnightblue" d="M1220.65,-76.27C1071.53,-76.09 700.66,-71.22 393.5,-31 382.61,-29.57 370.87,-27.33 360.26,-25.03"/>
<polygon fill="midnightblue" stroke="midnightblue" points="1220.99,-79.77 1231,-76.28 1221,-72.77 1220.99,-79.77"/>
</g>
<!-- Node5 -->
<g id="node5" class="node">
<title>Node5</title>
<g id="a_node5"><a xlink:href="code__800029B0_8c.html" target="_top" xlink:title=" ">
<polygon fill="white" stroke="black" points="403,-6 403,-25 522,-25 522,-6 403,-6"/>
<text text-anchor="middle" x="462.5" y="-13" font-family="Helvetica,sans-Serif" font-size="10.00">src/code_800029B0.c</text>
</a>
</g>
</g>
<!-- Node1&#45;&gt;Node5 -->
<g id="edge4" class="edge">
<title>Node1&#45;&gt;Node5</title>
<path fill="none" stroke="midnightblue" d="M1220.43,-75.33C1088.1,-73.26 784.31,-64.9 531.5,-31 520.58,-29.54 508.81,-27.31 498.14,-25.04"/>
<polygon fill="midnightblue" stroke="midnightblue" points="1220.75,-78.83 1230.8,-75.48 1220.85,-71.83 1220.75,-78.83"/>
</g>
<!-- Node6 -->
<g id="node6" class="node">
<title>Node6</title>
<g id="a_node6"><a xlink:href="code__80005FD0_8c.html" target="_top" xlink:title=" ">
<polygon fill="white" stroke="black" points="540.5,-6 540.5,-25 660.5,-25 660.5,-6 540.5,-6"/>
<text text-anchor="middle" x="600.5" y="-13" font-family="Helvetica,sans-Serif" font-size="10.00">src/code_80005FD0.c</text>
</a>
</g>
</g>
<!-- Node1&#45;&gt;Node6 -->
<g id="edge5" class="edge">
<title>Node1&#45;&gt;Node6</title>
<path fill="none" stroke="midnightblue" d="M1220.71,-74.08C1107.04,-70.15 868.87,-59.08 669.5,-31 658.71,-29.48 647.09,-27.27 636.51,-25.02"/>
<polygon fill="midnightblue" stroke="midnightblue" points="1220.88,-77.59 1230.99,-74.43 1221.12,-70.59 1220.88,-77.59"/>
</g>
<!-- Node7 -->
<g id="node7" class="node">
<title>Node7</title>
<g id="a_node7"><a xlink:href="code__80057C60_8c.html" target="_top" xlink:title=" ">
<polygon fill="white" stroke="black" points="679,-6 679,-25 798,-25 798,-6 679,-6"/>
<text text-anchor="middle" x="738.5" y="-13" font-family="Helvetica,sans-Serif" font-size="10.00">src/code_80057C60.c</text>
</a>
</g>
</g>
<!-- Node1&#45;&gt;Node7 -->
<g id="edge6" class="edge">
<title>Node1&#45;&gt;Node7</title>
<path fill="none" stroke="midnightblue" d="M1220.83,-72.23C1127.7,-66.41 953.54,-53.48 806.5,-31 796.12,-29.41 784.94,-27.23 774.7,-25.04"/>
<polygon fill="midnightblue" stroke="midnightblue" points="1220.76,-75.73 1230.96,-72.86 1221.19,-68.75 1220.76,-75.73"/>
</g>
<!-- Node8 -->
<g id="node8" class="node">
<title>Node8</title>
<g id="a_node8"><a xlink:href="code__8006E9C0_8c.html" target="_top" xlink:title=" ">
<polygon fill="white" stroke="black" points="816,-6 816,-25 935,-25 935,-6 816,-6"/>
<text text-anchor="middle" x="875.5" y="-13" font-family="Helvetica,sans-Serif" font-size="10.00">src/code_8006E9C0.c</text>
</a>
</g>
</g>
<!-- Node1&#45;&gt;Node8 -->
<g id="edge7" class="edge">
<title>Node1&#45;&gt;Node8</title>
<path fill="none" stroke="midnightblue" d="M1220.62,-68.86C1151.13,-61.06 1039.35,-47.46 943.5,-31 933.51,-29.28 922.75,-27.13 912.81,-25.02"/>
<polygon fill="midnightblue" stroke="midnightblue" points="1220.66,-72.38 1230.98,-70.01 1221.43,-65.42 1220.66,-72.38"/>
</g>
<!-- Node9 -->
<g id="node9" class="node">
<title>Node9</title>
<g id="a_node9"><a xlink:href="code__80071F00_8c.html" target="_top" xlink:title=" ">
<polygon fill="white" stroke="black" points="953,-6 953,-25 1072,-25 1072,-6 953,-6"/>
<text text-anchor="middle" x="1012.5" y="-13" font-family="Helvetica,sans-Serif" font-size="10.00">src/code_80071F00.c</text>
</a>
</g>
</g>
<!-- Node1&#45;&gt;Node9 -->
<g id="edge8" class="edge">
<title>Node1&#45;&gt;Node9</title>
<path fill="none" stroke="midnightblue" d="M1238.19,-65.33C1184.86,-53.79 1100.91,-35.63 1051.83,-25.01"/>
<polygon fill="midnightblue" stroke="midnightblue" points="1237.59,-68.78 1248.1,-67.48 1239.07,-61.94 1237.59,-68.78"/>
</g>
<!-- Node10 -->
<g id="node10" class="node">
<title>Node10</title>
<g id="a_node10"><a xlink:href="code__80086E70_8c.html" target="_top" xlink:title=" ">
<polygon fill="white" stroke="black" points="1090,-6 1090,-25 1209,-25 1209,-6 1090,-6"/>
<text text-anchor="middle" x="1149.5" y="-13" font-family="Helvetica,sans-Serif" font-size="10.00">src/code_80086E70.c</text>
</a>
</g>
</g>
<!-- Node1&#45;&gt;Node10 -->
<g id="edge9" class="edge">
<title>Node1&#45;&gt;Node10</title>
<path fill="none" stroke="midnightblue" d="M1258.46,-63.48C1231.66,-51.92 1192.58,-35.08 1169.24,-25.01"/>
<polygon fill="midnightblue" stroke="midnightblue" points="1257.16,-66.73 1267.73,-67.48 1259.93,-60.3 1257.16,-66.73"/>
</g>
<!-- Node11 -->
<g id="node11" class="node">
<title>Node11</title>
<g id="a_node11"><a xlink:href="code__8008C1D0_8c.html" target="_top" xlink:title=" ">
<polygon fill="white" stroke="black" points="1227,-6 1227,-25 1348,-25 1348,-6 1227,-6"/>
<text text-anchor="middle" x="1287.5" y="-13" font-family="Helvetica,sans-Serif" font-size="10.00">src/code_8008C1D0.c</text>
</a>
</g>
</g>
<!-- Node1&#45;&gt;Node11 -->
<g id="edge10" class="edge">
<title>Node1&#45;&gt;Node11</title>
<path fill="none" stroke="midnightblue" d="M1287.5,-57.32C1287.5,-46.5 1287.5,-33.4 1287.5,-25.01"/>
<polygon fill="midnightblue" stroke="midnightblue" points="1284,-57.48 1287.5,-67.48 1291,-57.48 1284,-57.48"/>
</g>
<!-- Node12 -->
<g id="node12" class="node">
<title>Node12</title>
<g id="a_node12"><a xlink:href="code__80091750_8c.html" target="_top" xlink:title=" ">
<polygon fill="white" stroke="black" points="1366,-6 1366,-25 1485,-25 1485,-6 1366,-6"/>
<text text-anchor="middle" x="1425.5" y="-13" font-family="Helvetica,sans-Serif" font-size="10.00">src/code_80091750.c</text>
</a>
</g>
</g>
<!-- Node1&#45;&gt;Node12 -->
<g id="edge11" class="edge">
<title>Node1&#45;&gt;Node12</title>
<path fill="none" stroke="midnightblue" d="M1316.54,-63.48C1343.34,-51.92 1382.42,-35.08 1405.76,-25.01"/>
<polygon fill="midnightblue" stroke="midnightblue" points="1315.07,-60.3 1307.27,-67.48 1317.84,-66.73 1315.07,-60.3"/>
</g>
<!-- Node13 -->
<g id="node13" class="node">
<title>Node13</title>
<g id="a_node13"><a xlink:href="effects_8c.html" target="_top" xlink:title=" ">
<polygon fill="white" stroke="black" points="1503,-6 1503,-25 1578,-25 1578,-6 1503,-6"/>
<text text-anchor="middle" x="1540.5" y="-13" font-family="Helvetica,sans-Serif" font-size="10.00">src/effects.c</text>
</a>
</g>
</g>
<!-- Node1&#45;&gt;Node13 -->
<g id="edge12" class="edge">
<title>Node1&#45;&gt;Node13</title>
<path fill="none" stroke="midnightblue" d="M1342.61,-65.45C1384.5,-57.08 1443.44,-44.57 1494.5,-31 1501.14,-29.24 1508.24,-27.12 1514.83,-25.05"/>
<polygon fill="midnightblue" stroke="midnightblue" points="1341.73,-62.05 1332.6,-67.43 1343.09,-68.92 1341.73,-62.05"/>
</g>
<!-- Node14 -->
<g id="node14" class="node">
<title>Node14</title>
<g id="a_node14"><a xlink:href="ceremony__and__credits_8c.html" target="_top" xlink:title=" ">
<polygon fill="white" stroke="black" points="1596,-0.5 1596,-30.5 1715,-30.5 1715,-0.5 1596,-0.5"/>
<text text-anchor="start" x="1604" y="-18.5" font-family="Helvetica,sans-Serif" font-size="10.00">src/ending/ceremony</text>
<text text-anchor="middle" x="1655.5" y="-7.5" font-family="Helvetica,sans-Serif" font-size="10.00">_and_credits.c</text>
</a>
</g>
</g>
<!-- Node1&#45;&gt;Node14 -->
<g id="edge13" class="edge">
<title>Node1&#45;&gt;Node14</title>
<path fill="none" stroke="midnightblue" d="M1354.32,-67.17C1415.24,-58.84 1507.65,-45.49 1587.5,-31 1590.23,-30.5 1593.02,-29.98 1595.84,-29.44"/>
<polygon fill="midnightblue" stroke="midnightblue" points="1353.5,-63.75 1344.07,-68.57 1354.45,-70.69 1353.5,-63.75"/>
</g>
<!-- Node15 -->
<g id="node15" class="node">
<title>Node15</title>
<g id="a_node15"><a xlink:href="main_8c.html" target="_top" xlink:title=" ">
<polygon fill="white" stroke="black" points="1733,-6 1733,-25 1800,-25 1800,-6 1733,-6"/>
<text text-anchor="middle" x="1766.5" y="-13" font-family="Helvetica,sans-Serif" font-size="10.00">src/main.c</text>
</a>
</g>
</g>
<!-- Node1&#45;&gt;Node15 -->
<g id="edge14" class="edge">
<title>Node1&#45;&gt;Node15</title>
<path fill="none" stroke="midnightblue" d="M1354.22,-73.89C1440.59,-70.07 1595.33,-59.55 1724.5,-31 1731.13,-29.54 1738.16,-27.36 1744.54,-25.15"/>
<polygon fill="midnightblue" stroke="midnightblue" points="1353.88,-70.4 1344.03,-74.32 1354.17,-77.39 1353.88,-70.4"/>
</g>
<!-- Node16 -->
<g id="node16" class="node">
<title>Node16</title>
<g id="a_node16"><a xlink:href="menus_8c.html" target="_top" xlink:title=" ">
<polygon fill="white" stroke="black" points="1818,-6 1818,-25 1893,-25 1893,-6 1818,-6"/>
<text text-anchor="middle" x="1855.5" y="-13" font-family="Helvetica,sans-Serif" font-size="10.00">src/menus.c</text>
</a>
</g>
</g>
<!-- Node1&#45;&gt;Node16 -->
<g id="edge15" class="edge">
<title>Node1&#45;&gt;Node16</title>
<path fill="none" stroke="midnightblue" d="M1354.32,-74.91C1454.25,-72.24 1648.14,-62.98 1809.5,-31 1816.89,-29.53 1824.77,-27.31 1831.88,-25.04"/>
<polygon fill="midnightblue" stroke="midnightblue" points="1353.98,-71.42 1344.07,-75.17 1354.16,-78.42 1353.98,-71.42"/>
</g>
<!-- Node17 -->
<g id="node17" class="node">
<title>Node17</title>
<g id="a_node17"><a xlink:href="player__controller_8c.html" target="_top" xlink:title=" ">
<polygon fill="white" stroke="black" points="1910.5,-6 1910.5,-25 2034.5,-25 2034.5,-6 1910.5,-6"/>
<text text-anchor="middle" x="1972.5" y="-13" font-family="Helvetica,sans-Serif" font-size="10.00">src/player_controller.c</text>
</a>
</g>
</g>
<!-- Node1&#45;&gt;Node17 -->
<g id="edge16" class="edge">
<title>Node1&#45;&gt;Node17</title>
<path fill="none" stroke="midnightblue" d="M1354.39,-73.98C1467.68,-69.92 1704.32,-58.66 1902.5,-31 1913.44,-29.47 1925.23,-27.26 1935.97,-25.01"/>
<polygon fill="midnightblue" stroke="midnightblue" points="1354.02,-70.49 1344.15,-74.34 1354.26,-77.49 1354.02,-70.49"/>
</g>
<!-- Node18 -->
<g id="node18" class="node">
<title>Node18</title>
<g id="a_node18"><a xlink:href="actors_8c.html" target="_top" xlink:title=" ">
<polygon fill="white" stroke="black" points="2053,-6 2053,-25 2158,-25 2158,-6 2053,-6"/>
<text text-anchor="middle" x="2105.5" y="-13" font-family="Helvetica,sans-Serif" font-size="10.00">src/racing/actors.c</text>
</a>
</g>
</g>
<!-- Node1&#45;&gt;Node18 -->
<g id="edge17" class="edge">
<title>Node1&#45;&gt;Node18</title>
<path fill="none" stroke="midnightblue" d="M1354.64,-75.83C1487.09,-74.65 1791.09,-67.75 2043.5,-31 2053.35,-29.57 2063.93,-27.35 2073.52,-25.08"/>
<polygon fill="midnightblue" stroke="midnightblue" points="1354.23,-72.33 1344.26,-75.91 1354.29,-79.33 1354.23,-72.33"/>
</g>
<!-- Node19 -->
<g id="node19" class="node">
<title>Node19</title>
<g id="a_node19"><a xlink:href="actors__extended_8c.html" target="_top" xlink:title=" ">
<polygon fill="white" stroke="black" points="2176.5,-6 2176.5,-25 2332.5,-25 2332.5,-6 2176.5,-6"/>
<text text-anchor="middle" x="2254.5" y="-13" font-family="Helvetica,sans-Serif" font-size="10.00">src/racing/actors_extended.c</text>
</a>
</g>
</g>
<!-- Node1&#45;&gt;Node19 -->
<g id="edge18" class="edge">
<title>Node1&#45;&gt;Node19</title>
<path fill="none" stroke="midnightblue" d="M1354.27,-75.18C1501.51,-72.81 1865.08,-63.83 2167.5,-31 2181.2,-29.51 2196.02,-27.28 2209.48,-25.01"/>
<polygon fill="midnightblue" stroke="midnightblue" points="1353.99,-71.69 1344.04,-75.34 1354.1,-78.68 1353.99,-71.69"/>
</g>
<!-- Node20 -->
<g id="node20" class="node">
<title>Node20</title>
<g id="a_node20"><a xlink:href="race__logic_8c.html" target="_top" xlink:title=" ">
<polygon fill="white" stroke="black" points="2351,-6 2351,-25 2476,-25 2476,-6 2351,-6"/>
<text text-anchor="middle" x="2413.5" y="-13" font-family="Helvetica,sans-Serif" font-size="10.00">src/racing/race_logic.c</text>
</a>
</g>
</g>
<!-- Node1&#45;&gt;Node20 -->
<g id="edge19" class="edge">
<title>Node1&#45;&gt;Node20</title>
<path fill="none" stroke="midnightblue" d="M1354.14,-76.75C1521.07,-77.85 1970.4,-76.01 2341.5,-31 2353.02,-29.6 2365.45,-27.37 2376.68,-25.06"/>
<polygon fill="midnightblue" stroke="midnightblue" points="1354.05,-73.25 1344.02,-76.68 1354,-80.25 1354.05,-73.25"/>
</g>
</g>
</svg>
        <g id="navigator" transform="translate(0 0)" fill="#404254">
                <rect fill="#f2f5e9" fill-opacity="0.5" stroke="#606060" stroke-width=".5" x="0" y="0" width="60" height="60"/>
                <use id="zoomplus" xlink:href="#zoomPlus" x="17" y="9" onmousedown="handleZoom(evt,'in')"/>
                <use id="zoomminus" xlink:href="#zoomMin" x="42" y="9" onmousedown="handleZoom(evt,'out')"/>
                <use id="reset" xlink:href="#resetDef" x="30" y="36" onmousedown="handleReset()"/>
                <g id="arrowUp" xlink:href="#dirArrow" transform="translate(30 24)" onmousedown="handlePan(0,-1)">
                  <use xlink:href="#rim" fill="#404040">
                        <set attributeName="fill" to="#808080" begin="arrowUp.mouseover" end="arrowUp.mouseout"/>
                  </use>
                  <path fill="none" stroke="white" stroke-width="1.5" d="M0,-3.0v7 M-2.5,-0.5L0,-3.0L2.5,-0.5"/>
                </g>
                <g id="arrowRight" xlink:href="#dirArrow" transform="rotate(90) translate(36 -43)" onmousedown="handlePan(1,0)">
                  <use xlink:href="#rim" fill="#404040">
                        <set attributeName="fill" to="#808080" begin="arrowRight.mouseover" end="arrowRight.mouseout"/>
                  </use>
                  <path fill="none" stroke="white" stroke-width="1.5" d="M0,-3.0v7 M-2.5,-0.5L0,-3.0L2.5,-0.5"/>
                </g>
                <g id="arrowDown" xlink:href="#dirArrow" transform="rotate(180) translate(-30 -48)" onmousedown="handlePan(0,1)">
                  <use xlink:href="#rim" fill="#404040">
                        <set attributeName="fill" to="#808080" begin="arrowDown.mouseover" end="arrowDown.mouseout"/>
                  </use>
                  <path fill="none" stroke="white" stroke-width="1.5" d="M0,-3.0v7 M-2.5,-0.5L0,-3.0L2.5,-0.5"/>
                </g>
                <g id="arrowLeft" xlink:href="#dirArrow" transform="rotate(270) translate(-36 17)" onmousedown="handlePan(-1,0)">
                  <use xlink:href="#rim" fill="#404040">
                        <set attributeName="fill" to="#808080" begin="arrowLeft.mouseover" end="arrowLeft.mouseout"/>
                  </use>
                  <path fill="none" stroke="white" stroke-width="1.5" d="M0,-3.0v7 M-2.5,-0.5L0,-3.0L2.5,-0.5"/>
                </g>
        </g>
        <svg viewBox="0 0 15 15" width="100%" height="30px" preserveAspectRatio="xMaxYMin meet">
         <g id="arrow_out" transform="scale(0.3 0.3)">
          <a xlink:href="external_8h__dep__incl_org.svg" target="_base">
           <rect id="button" ry="5" rx="5" y="6" x="6" height="38" width="38"
                fill="#f2f5e9" fill-opacity="0.5" stroke="#606060" stroke-width="1.0"/>
           <path id="arrow"
             d="M 11.500037,31.436501 C 11.940474,20.09759 22.043105,11.32322 32.158766,21.979434 L 37.068811,17.246167 C 37.068811,17.246167 37.088388,32 37.088388,32 L 22.160133,31.978069 C 22.160133,31.978069 26.997745,27.140456 26.997745,27.140456 C 18.528582,18.264221 13.291696,25.230495 11.500037,31.436501 z"
             style="fill:#404040;"/>
          </a>
         </g>
        </svg>
</svg>
