<?xml version="1.0" encoding="UTF-8" standalone="no"?>
<!DOCTYPE svg PUBLIC "-//W3C//DTD SVG 1.1//EN"
 "http://www.w3.org/Graphics/SVG/1.1/DTD/svg11.dtd">
<!-- Generated by graphviz version 2.43.0 (0)
 -->
<!-- Title: delete_sound_from_bank Pages: 1 -->
<svg width="1145pt" height="1018pt"
 viewBox="0.00 0.00 1145.00 1018.00" xmlns="http://www.w3.org/2000/svg" xmlns:xlink="http://www.w3.org/1999/xlink">
<g id="graph0" class="graph" transform="scale(1 1) rotate(0) translate(4 1014)">
<title>delete_sound_from_bank</title>
<!-- Node1 -->
<g id="Node000001" class="node">
<title>Node1</title>
<g id="a_Node000001"><a xlink:title=" ">
<polygon fill="#999999" stroke="#666666" points="1137,-917 997,-917 997,-898 1137,-898 1137,-917"/>
<text text-anchor="middle" x="1067" y="-905" font-family="Helvetica,sans-Serif" font-size="10.00">delete_sound_from_bank</text>
</a>
</g>
</g>
<!-- Node2 -->
<g id="Node000002" class="node">
<title>Node2</title>
<g id="a_Node000002"><a xlink:href="external_8c.html#aa337ad8192c51101a37fc5ea8b3306b2" target="_top" xlink:title=" ">
<polygon fill="white" stroke="#666666" points="961,-1010 869,-1010 869,-991 961,-991 961,-1010"/>
<text text-anchor="middle" x="915" y="-998" font-family="Helvetica,sans-Serif" font-size="10.00">func_800C4FE4</text>
</a>
</g>
</g>
<!-- Node1&#45;&gt;Node2 -->
<g id="edge1_Node000001_Node000002" class="edge">
<title>Node1&#45;&gt;Node2</title>
<g id="a_edge1_Node000001_Node000002"><a xlink:title=" ">
<path fill="none" stroke="#63b8ff" d="M1041.62,-922.61C1010.56,-941.87 957.77,-974.6 931.63,-990.81"/>
<polygon fill="#63b8ff" stroke="#63b8ff" points="1043.86,-925.35 1050.51,-917.1 1040.17,-919.4 1043.86,-925.35"/>
</a>
</g>
</g>
<!-- Node20 -->
<g id="Node000020" class="node">
<title>Node20</title>
<g id="a_Node000020"><a xlink:href="external_8c.html#a3d8334bd4e9a682bd18c614fd427004e" target="_top" xlink:title=" ">
<polygon fill="white" stroke="#666666" points="961,-917 869,-917 869,-898 961,-898 961,-917"/>
<text text-anchor="middle" x="915" y="-905" font-family="Helvetica,sans-Serif" font-size="10.00">func_800C5278</text>
</a>
</g>
</g>
<!-- Node1&#45;&gt;Node20 -->
<g id="edge7_Node000001_Node000020" class="edge">
<title>Node1&#45;&gt;Node20</title>
<g id="a_edge7_Node000001_Node000020"><a xlink:title=" ">
<path fill="none" stroke="#63b8ff" d="M986.46,-907.5C977.73,-907.5 969.09,-907.5 961,-907.5"/>
<polygon fill="#63b8ff" stroke="#63b8ff" points="986.71,-911 996.71,-907.5 986.71,-904 986.71,-911"/>
</a>
</g>
</g>
<!-- Node30 -->
<g id="Node000030" class="node">
<title>Node30</title>
<g id="a_Node000030"><a xlink:href="external_8c.html#a187d9f590686ca9c9b6590d7a5b2bafa" target="_top" xlink:title=" ">
<polygon fill="white" stroke="#666666" points="961,-880 869,-880 869,-861 961,-861 961,-880"/>
<text text-anchor="middle" x="915" y="-868" font-family="Helvetica,sans-Serif" font-size="10.00">func_800C5384</text>
</a>
</g>
</g>
<!-- Node1&#45;&gt;Node30 -->
<g id="edge13_Node000001_Node000030" class="edge">
<title>Node1&#45;&gt;Node30</title>
<g id="a_edge13_Node000001_Node000030"><a xlink:title=" ">
<path fill="none" stroke="#63b8ff" d="M1017.66,-895.57C997.31,-890.56 973.95,-884.79 954.76,-880.06"/>
<polygon fill="#63b8ff" stroke="#63b8ff" points="1016.82,-898.97 1027.37,-897.97 1018.5,-892.18 1016.82,-898.97"/>
</a>
</g>
</g>
<!-- Node34 -->
<g id="Node000034" class="node">
<title>Node34</title>
<g id="a_Node000034"><a xlink:href="external_8c.html#a028d40421b90c38f68ebfd5acc626f2e" target="_top" xlink:title=" ">
<polygon fill="white" stroke="#666666" points="832,-682 740,-682 740,-663 832,-663 832,-682"/>
<text text-anchor="middle" x="786" y="-670" font-family="Helvetica,sans-Serif" font-size="10.00">func_800C5578</text>
</a>
</g>
</g>
<!-- Node1&#45;&gt;Node34 -->
<g id="edge19_Node000001_Node000034" class="edge">
<title>Node1&#45;&gt;Node34</title>
<g id="a_edge19_Node000001_Node000034"><a xlink:title=" ">
<path fill="none" stroke="#63b8ff" d="M1046.96,-891.46C993.2,-846.18 841.34,-718.27 798.42,-682.12"/>
<polygon fill="#63b8ff" stroke="#63b8ff" points="1044.81,-894.23 1054.72,-898 1049.32,-888.88 1044.81,-894.23"/>
</a>
</g>
</g>
<!-- Node171 -->
<g id="Node000171" class="node">
<title>Node171</title>
<g id="a_Node000171"><a xlink:href="external_8c.html#a18c71fc634c319d176306b3ce04c2896" target="_top" xlink:title=" ">
<polygon fill="white" stroke="#666666" points="961,-954 869,-954 869,-935 961,-935 961,-954"/>
<text text-anchor="middle" x="915" y="-942" font-family="Helvetica,sans-Serif" font-size="10.00">func_800C56F0</text>
</a>
</g>
</g>
<!-- Node1&#45;&gt;Node171 -->
<g id="edge59_Node000001_Node000171" class="edge">
<title>Node1&#45;&gt;Node171</title>
<g id="a_edge59_Node000001_Node000171"><a xlink:title=" ">
<path fill="none" stroke="#63b8ff" d="M1017.66,-919.43C997.31,-924.44 973.95,-930.21 954.76,-934.94"/>
<polygon fill="#63b8ff" stroke="#63b8ff" points="1018.5,-922.82 1027.37,-917.03 1016.82,-916.03 1018.5,-922.82"/>
</a>
</g>
</g>
<!-- Node3 -->
<g id="Node000003" class="node">
<title>Node3</title>
<g id="a_Node000003"><a xlink:href="external_8c.html#a2b1be7122c397e0e6cbd0438a625b983" target="_top" xlink:title=" ">
<polygon fill="white" stroke="#666666" points="374.5,-954 282.5,-954 282.5,-935 374.5,-935 374.5,-954"/>
<text text-anchor="middle" x="328.5" y="-942" font-family="Helvetica,sans-Serif" font-size="10.00">func_800C59C4</text>
</a>
</g>
</g>
<!-- Node2&#45;&gt;Node3 -->
<g id="edge2_Node000002_Node000003" class="edge">
<title>Node2&#45;&gt;Node3</title>
<g id="a_edge2_Node000002_Node000003"><a xlink:title=" ">
<path fill="none" stroke="#63b8ff" d="M858.69,-1003.77C797.46,-1006.63 695.92,-1009.12 609,-1000.5 520.36,-991.71 418.19,-967.59 365.34,-954.05"/>
<polygon fill="#63b8ff" stroke="#63b8ff" points="859.09,-1007.26 868.9,-1003.27 858.74,-1000.26 859.09,-1007.26"/>
</a>
</g>
</g>
<!-- Node4 -->
<g id="Node000004" class="node">
<title>Node4</title>
<g id="a_Node000004"><a xlink:href="external_8c.html#a12c3e6c147828cc102e748904808ea4a" target="_top" xlink:title=" ">
<polygon fill="white" stroke="#666666" points="242,-898 149,-898 149,-879 242,-879 242,-898"/>
<text text-anchor="middle" x="195.5" y="-886" font-family="Helvetica,sans-Serif" font-size="10.00">func_800CB2C4</text>
</a>
</g>
</g>
<!-- Node3&#45;&gt;Node4 -->
<g id="edge3_Node000003_Node000004" class="edge">
<title>Node3&#45;&gt;Node4</title>
<g id="a_edge3_Node000003_Node000004"><a xlink:title=" ">
<path fill="none" stroke="#63b8ff" d="M295.65,-930.88C271.82,-920.7 239.84,-907.03 218.73,-898"/>
<polygon fill="#63b8ff" stroke="#63b8ff" points="294.41,-934.16 304.98,-934.87 297.16,-927.72 294.41,-934.16"/>
</a>
</g>
</g>
<!-- Node5 -->
<g id="Node000005" class="node">
<title>Node5</title>
<g id="a_Node000005"><a xlink:href="menus_8c.html#ab415efc50e6890fb19378842960af7fc" target="_top" xlink:title=" ">
<polygon fill="#fff0f0" stroke="red" points="109.5,-935 3.5,-935 3.5,-916 109.5,-916 109.5,-935"/>
<text text-anchor="middle" x="56.5" y="-923" font-family="Helvetica,sans-Serif" font-size="10.00">load_menu_states</text>
</a>
</g>
</g>
<!-- Node4&#45;&gt;Node5 -->
<g id="edge4_Node000004_Node000005" class="edge">
<title>Node4&#45;&gt;Node5</title>
<g id="a_edge4_Node000004_Node000005"><a xlink:title=" ">
<path fill="none" stroke="#63b8ff" d="M149.37,-900.69C131.1,-905.62 110.31,-911.24 93.14,-915.88"/>
<polygon fill="#63b8ff" stroke="#63b8ff" points="150.48,-904.01 159.22,-898.03 148.65,-897.26 150.48,-904.01"/>
</a>
</g>
</g>
<!-- Node19 -->
<g id="Node000019" class="node">
<title>Node19</title>
<g id="a_Node000019"><a xlink:href="code__800029B0_8c.html#aca6165112fc92e65ad6477e785a7098c" target="_top" xlink:title=" ">
<polygon fill="#fff0f0" stroke="red" points="91.5,-898 21.5,-898 21.5,-879 91.5,-879 91.5,-898"/>
<text text-anchor="middle" x="56.5" y="-886" font-family="Helvetica,sans-Serif" font-size="10.00">setup_race</text>
</a>
</g>
</g>
<!-- Node4&#45;&gt;Node19 -->
<g id="edge5_Node000004_Node000019" class="edge">
<title>Node4&#45;&gt;Node19</title>
<g id="a_edge5_Node000004_Node000019"><a xlink:title=" ">
<path fill="none" stroke="#63b8ff" d="M138.6,-888.5C122.69,-888.5 105.84,-888.5 91.65,-888.5"/>
<polygon fill="#63b8ff" stroke="#63b8ff" points="138.88,-892 148.88,-888.5 138.88,-885 138.88,-892"/>
</a>
</g>
</g>
<!-- Node10 -->
<g id="Node000010" class="node">
<title>Node10</title>
<g id="a_Node000010"><a xlink:href="main_8c.html#a633ed517e458daeb768f5361895dcac9" target="_top" xlink:title=" ">
<polygon fill="#fff0f0" stroke="red" points="113,-861 0,-861 0,-842 113,-842 113,-861"/>
<text text-anchor="middle" x="56.5" y="-849" font-family="Helvetica,sans-Serif" font-size="10.00">thread5_game_loop</text>
</a>
</g>
</g>
<!-- Node4&#45;&gt;Node10 -->
<g id="edge6_Node000004_Node000010" class="edge">
<title>Node4&#45;&gt;Node10</title>
<g id="a_edge6_Node000004_Node000010"><a xlink:title=" ">
<path fill="none" stroke="#63b8ff" d="M149.37,-876.31C131.1,-871.38 110.31,-865.76 93.14,-861.12"/>
<polygon fill="#63b8ff" stroke="#63b8ff" points="148.65,-879.74 159.22,-878.97 150.48,-872.99 148.65,-879.74"/>
</a>
</g>
</g>
<!-- Node21 -->
<g id="Node000021" class="node">
<title>Node21</title>
<g id="a_Node000021"><a xlink:href="external_8c.html#a9bc9f57fb83f73d37b56721df044d722" target="_top" xlink:title=" ">
<polygon fill="white" stroke="#666666" points="540,-843 448,-843 448,-824 540,-824 540,-843"/>
<text text-anchor="middle" x="494" y="-831" font-family="Helvetica,sans-Serif" font-size="10.00">func_800C76C0</text>
</a>
</g>
</g>
<!-- Node20&#45;&gt;Node21 -->
<g id="edge8_Node000020_Node000021" class="edge">
<title>Node20&#45;&gt;Node21</title>
<g id="a_edge8_Node000020_Node000021"><a xlink:title=" ">
<path fill="none" stroke="#63b8ff" d="M877.19,-893.44C874.34,-891.91 871.58,-890.26 869,-888.5 850.05,-875.56 853.89,-860.98 833,-851.5 736.15,-807.53 607.29,-816.74 540.1,-825.91"/>
<polygon fill="#63b8ff" stroke="#63b8ff" points="875.91,-896.71 886.44,-897.92 878.97,-890.41 875.91,-896.71"/>
</a>
</g>
</g>
<!-- Node23 -->
<g id="Node000023" class="node">
<title>Node23</title>
<g id="a_Node000023"><a xlink:href="external_8c.html#a518bea6c084cccd3443950737f53a97a" target="_top" xlink:title=" ">
<polygon fill="white" stroke="#666666" points="832,-917 740,-917 740,-898 832,-898 832,-917"/>
<text text-anchor="middle" x="786" y="-905" font-family="Helvetica,sans-Serif" font-size="10.00">func_800CA0E4</text>
</a>
</g>
</g>
<!-- Node20&#45;&gt;Node23 -->
<g id="edge11_Node000020_Node000023" class="edge">
<title>Node20&#45;&gt;Node23</title>
<g id="a_edge11_Node000020_Node000023"><a xlink:title=" ">
<path fill="none" stroke="#63b8ff" d="M858.7,-907.5C849.92,-907.5 840.93,-907.5 832.42,-907.5"/>
<polygon fill="#63b8ff" stroke="#63b8ff" points="858.87,-911 868.87,-907.5 858.87,-904 858.87,-911"/>
</a>
</g>
</g>
<!-- Node22 -->
<g id="Node000022" class="node">
<title>Node22</title>
<g id="a_Node000022"><a xlink:href="external_8c.html#aebe0a7e33d0961a0ad7e4ba40a49a032" target="_top" xlink:title=" ">
<polygon fill="white" stroke="#666666" points="375.5,-843 281.5,-843 281.5,-824 375.5,-824 375.5,-843"/>
<text text-anchor="middle" x="328.5" y="-831" font-family="Helvetica,sans-Serif" font-size="10.00">func_800C8CCC</text>
</a>
</g>
</g>
<!-- Node21&#45;&gt;Node22 -->
<g id="edge9_Node000021_Node000022" class="edge">
<title>Node21&#45;&gt;Node22</title>
<g id="a_edge9_Node000021_Node000022"><a xlink:title=" ">
<path fill="none" stroke="#63b8ff" d="M437.87,-833.5C417.64,-833.5 394.96,-833.5 375.6,-833.5"/>
<polygon fill="#63b8ff" stroke="#63b8ff" points="437.89,-837 447.89,-833.5 437.89,-830 437.89,-837"/>
</a>
</g>
</g>
<!-- Node22&#45;&gt;Node4 -->
<g id="edge10_Node000022_Node000004" class="edge">
<title>Node22&#45;&gt;Node4</title>
<g id="a_edge10_Node000022_Node000004"><a xlink:title=" ">
<path fill="none" stroke="#63b8ff" d="M295.46,-846.95C271.94,-856.83 240.56,-870 219.5,-878.84"/>
<polygon fill="#63b8ff" stroke="#63b8ff" points="296.82,-850.18 304.68,-843.08 294.11,-843.72 296.82,-850.18"/>
</a>
</g>
</g>
<!-- Node24 -->
<g id="Node000024" class="node">
<title>Node24</title>
<g id="a_Node000024"><a xlink:href="external_8c.html#a6bb2826cc804a0c5050b58e528cea272" target="_top" xlink:title=" ">
<polygon fill="#fff0f0" stroke="red" points="702,-954 610,-954 610,-935 702,-935 702,-954"/>
<text text-anchor="middle" x="656" y="-942" font-family="Helvetica,sans-Serif" font-size="10.00">func_800CA118</text>
</a>
</g>
</g>
<!-- Node23&#45;&gt;Node24 -->
<g id="edge12_Node000023_Node000024" class="edge">
<title>Node23&#45;&gt;Node24</title>
<g id="a_edge12_Node000023_Node000024"><a xlink:title=" ">
<path fill="none" stroke="#63b8ff" d="M742.36,-919.83C725.41,-924.73 706.19,-930.28 690.3,-934.88"/>
<polygon fill="#63b8ff" stroke="#63b8ff" points="743.4,-923.17 752.04,-917.03 741.46,-916.44 743.4,-923.17"/>
</a>
</g>
</g>
<!-- Node31 -->
<g id="Node000031" class="node">
<title>Node31</title>
<g id="a_Node000031"><a xlink:href="external_8c.html#a8f95640fef6382013af69a10a1dad4f7" target="_top" xlink:title=" ">
<polygon fill="white" stroke="#666666" points="832,-804 740,-804 740,-785 832,-785 832,-804"/>
<text text-anchor="middle" x="786" y="-792" font-family="Helvetica,sans-Serif" font-size="10.00">func_800C54B8</text>
</a>
</g>
</g>
<!-- Node30&#45;&gt;Node31 -->
<g id="edge14_Node000030_Node000031" class="edge">
<title>Node30&#45;&gt;Node31</title>
<g id="a_edge14_Node000030_Node000031"><a xlink:title=" ">
<path fill="none" stroke="#63b8ff" d="M891.22,-855.09C875.17,-844.44 853.06,-830.14 833,-818.5 824.43,-813.53 814.73,-808.4 806.46,-804.16"/>
<polygon fill="#63b8ff" stroke="#63b8ff" points="889.64,-858.25 899.9,-860.9 893.53,-852.43 889.64,-858.25"/>
</a>
</g>
</g>
<!-- Node32 -->
<g id="Node000032" class="node">
<title>Node32</title>
<g id="a_Node000032"><a xlink:href="external_8c.html#ac670a5c7b8fa5490ab1ee563ffffcd9c" target="_top" xlink:title=" ">
<polygon fill="white" stroke="#666666" points="832,-880 740,-880 740,-861 832,-861 832,-880"/>
<text text-anchor="middle" x="786" y="-868" font-family="Helvetica,sans-Serif" font-size="10.00">func_800C550C</text>
</a>
</g>
</g>
<!-- Node30&#45;&gt;Node32 -->
<g id="edge15_Node000030_Node000032" class="edge">
<title>Node30&#45;&gt;Node32</title>
<g id="a_edge15_Node000030_Node000032"><a xlink:title=" ">
<path fill="none" stroke="#63b8ff" d="M858.7,-870.5C849.92,-870.5 840.93,-870.5 832.42,-870.5"/>
<polygon fill="#63b8ff" stroke="#63b8ff" points="858.87,-874 868.87,-870.5 858.87,-867 858.87,-874"/>
</a>
</g>
</g>
<!-- Node33 -->
<g id="Node000033" class="node">
<title>Node33</title>
<g id="a_Node000033"><a xlink:href="external_8c.html#a1041b412a7bdcec3c697ed68bec652d6" target="_top" xlink:title=" ">
<polygon fill="white" stroke="#666666" points="703,-880 609,-880 609,-861 703,-861 703,-880"/>
<text text-anchor="middle" x="656" y="-868" font-family="Helvetica,sans-Serif" font-size="10.00">func_800C9D0C</text>
</a>
</g>
</g>
<!-- Node32&#45;&gt;Node33 -->
<g id="edge16_Node000032_Node000033" class="edge">
<title>Node32&#45;&gt;Node33</title>
<g id="a_edge16_Node000032_Node000033"><a xlink:title=" ">
<path fill="none" stroke="#63b8ff" d="M729.6,-870.5C720.73,-870.5 711.64,-870.5 703.02,-870.5"/>
<polygon fill="#63b8ff" stroke="#63b8ff" points="729.87,-874 739.87,-870.5 729.87,-867 729.87,-874"/>
</a>
</g>
</g>
<!-- Node33&#45;&gt;Node21 -->
<g id="edge18_Node000033_Node000021" class="edge">
<title>Node33&#45;&gt;Node21</title>
<g id="a_edge18_Node000033_Node000021"><a xlink:title=" ">
<path fill="none" stroke="#63b8ff" d="M603.71,-858.61C593.54,-856.25 582.93,-853.8 573,-851.5 561.08,-848.74 548.14,-845.76 536.29,-843.02"/>
<polygon fill="#63b8ff" stroke="#63b8ff" points="603.17,-862.08 613.71,-860.92 604.75,-855.26 603.17,-862.08"/>
</a>
</g>
</g>
<!-- Node7 -->
<g id="Node000007" class="node">
<title>Node7</title>
<g id="a_Node000007"><a xlink:href="menu__items_8c.html#a4c171632ff32db3cbe13719e6478d536" target="_top" xlink:title=" ">
<polygon fill="#fff0f0" stroke="red" points="540,-880 448,-880 448,-861 540,-861 540,-880"/>
<text text-anchor="middle" x="494" y="-868" font-family="Helvetica,sans-Serif" font-size="10.00">func_80091B78</text>
</a>
</g>
</g>
<!-- Node33&#45;&gt;Node7 -->
<g id="edge17_Node000033_Node000007" class="edge">
<title>Node33&#45;&gt;Node7</title>
<g id="a_edge17_Node000033_Node000007"><a xlink:title=" ">
<path fill="none" stroke="#63b8ff" d="M598.6,-870.5C579.42,-870.5 558.25,-870.5 540.07,-870.5"/>
<polygon fill="#63b8ff" stroke="#63b8ff" points="598.72,-874 608.72,-870.5 598.72,-867 598.72,-874"/>
</a>
</g>
</g>
<!-- Node34&#45;&gt;Node21 -->
<g id="edge22_Node000034_Node000021" class="edge">
<title>Node34&#45;&gt;Node21</title>
<g id="a_edge22_Node000034_Node000021"><a xlink:title=" ">
<path fill="none" stroke="#63b8ff" d="M774.84,-691C761.35,-713.89 735.41,-752.51 703,-774.5 653.46,-808.11 584.91,-822.74 540.26,-829"/>
<polygon fill="#63b8ff" stroke="#63b8ff" points="777.92,-692.67 779.84,-682.25 771.84,-689.2 777.92,-692.67"/>
</a>
</g>
</g>
<!-- Node35 -->
<g id="Node000035" class="node">
<title>Node35</title>
<g id="a_Node000035"><a xlink:href="external_8c.html#a629cbbd815e11fee9d438b90bf49b2a7" target="_top" xlink:title=" ">
<polygon fill="white" stroke="#666666" points="702,-917 610,-917 610,-898 702,-898 702,-917"/>
<text text-anchor="middle" x="656" y="-905" font-family="Helvetica,sans-Serif" font-size="10.00">func_800C683C</text>
</a>
</g>
</g>
<!-- Node34&#45;&gt;Node35 -->
<g id="edge20_Node000034_Node000035" class="edge">
<title>Node34&#45;&gt;Node35</title>
<g id="a_edge20_Node000034_Node000035"><a xlink:title=" ">
<path fill="none" stroke="#63b8ff" d="M775.92,-691.13C766.15,-711.56 750.46,-745.44 739,-775.5 720.22,-824.75 738.69,-849.71 703,-888.5 699.49,-892.32 695.1,-895.39 690.43,-897.85"/>
<polygon fill="#63b8ff" stroke="#63b8ff" points="779.13,-692.53 780.32,-682.01 772.83,-689.49 779.13,-692.53"/>
</a>
</g>
</g>
<!-- Node36 -->
<g id="Node000036" class="node">
<title>Node36</title>
<g id="a_Node000036"><a xlink:href="external_8c.html#ad377fc55133176f069744a4bcb5e0364" target="_top" xlink:title=" ">
<polygon fill="white" stroke="#666666" points="702,-598 610,-598 610,-579 702,-579 702,-598"/>
<text text-anchor="middle" x="656" y="-586" font-family="Helvetica,sans-Serif" font-size="10.00">func_800C9018</text>
</a>
</g>
</g>
<!-- Node34&#45;&gt;Node36 -->
<g id="edge23_Node000034_Node000036" class="edge">
<title>Node34&#45;&gt;Node36</title>
<g id="a_edge23_Node000034_Node000036"><a xlink:title=" ">
<path fill="none" stroke="#63b8ff" d="M761.73,-657.23C735.45,-639.99 693.5,-612.45 671.51,-598.02"/>
<polygon fill="#63b8ff" stroke="#63b8ff" points="760.04,-660.3 770.32,-662.86 763.88,-654.45 760.04,-660.3"/>
</a>
</g>
</g>
<!-- Node92 -->
<g id="Node000092" class="node">
<title>Node92</title>
<g id="a_Node000092"><a xlink:href="external_8c.html#ae8a5e8ffbb625059aac9be15d4b2d310" target="_top" xlink:title=" ">
<polygon fill="white" stroke="#666666" points="702,-766 610,-766 610,-747 702,-747 702,-766"/>
<text text-anchor="middle" x="656" y="-754" font-family="Helvetica,sans-Serif" font-size="10.00">func_800C97C4</text>
</a>
</g>
</g>
<!-- Node34&#45;&gt;Node92 -->
<g id="edge40_Node000034_Node000092" class="edge">
<title>Node34&#45;&gt;Node92</title>
<g id="a_edge40_Node000034_Node000092"><a xlink:title=" ">
<path fill="none" stroke="#63b8ff" d="M761.73,-687.77C735.45,-705.01 693.5,-732.55 671.51,-746.98"/>
<polygon fill="#63b8ff" stroke="#63b8ff" points="763.88,-690.55 770.32,-682.14 760.04,-684.7 763.88,-690.55"/>
</a>
</g>
</g>
<!-- Node94 -->
<g id="Node000094" class="node">
<title>Node94</title>
<g id="a_Node000094"><a xlink:href="external_8c.html#ae72057869772019e4464c87d4e16c682" target="_top" xlink:title=" ">
<polygon fill="white" stroke="#666666" points="702,-327 610,-327 610,-308 702,-308 702,-327"/>
<text text-anchor="middle" x="656" y="-315" font-family="Helvetica,sans-Serif" font-size="10.00">func_800C99E0</text>
</a>
</g>
</g>
<!-- Node34&#45;&gt;Node94 -->
<g id="edge46_Node000034_Node000094" class="edge">
<title>Node34&#45;&gt;Node94</title>
<g id="a_edge46_Node000034_Node000094"><a xlink:title=" ">
<path fill="none" stroke="#63b8ff" d="M778,-653.08C754.32,-587.41 677.74,-375.03 660.48,-327.15"/>
<polygon fill="#63b8ff" stroke="#63b8ff" points="774.76,-654.41 781.44,-662.63 781.34,-652.04 774.76,-654.41"/>
</a>
</g>
</g>
<!-- Node149 -->
<g id="Node000149" class="node">
<title>Node149</title>
<g id="a_Node000149"><a xlink:href="external_8c.html#a73831bcbe259500206651a0b4702be9f" target="_top" xlink:title=" ">
<polygon fill="white" stroke="#666666" points="702,-136 610,-136 610,-117 702,-117 702,-136"/>
<text text-anchor="middle" x="656" y="-124" font-family="Helvetica,sans-Serif" font-size="10.00">func_800C9EF4</text>
</a>
</g>
</g>
<!-- Node34&#45;&gt;Node149 -->
<g id="edge49_Node000034_Node000149" class="edge">
<title>Node34&#45;&gt;Node149</title>
<g id="a_edge49_Node000034_Node000149"><a xlink:title=" ">
<path fill="none" stroke="#63b8ff" d="M782.41,-652.6C774.17,-591.36 746.53,-400.63 703,-247.5 690.89,-204.91 670.18,-156.22 661.27,-136.03"/>
<polygon fill="#63b8ff" stroke="#63b8ff" points="778.97,-653.33 783.76,-662.78 785.91,-652.41 778.97,-653.33"/>
</a>
</g>
</g>
<!-- Node170 -->
<g id="Node000170" class="node">
<title>Node170</title>
<g id="a_Node000170"><a xlink:href="external_8c.html#a3138069310bbed5109964d607d51811f" target="_top" xlink:title=" ">
<polygon fill="white" stroke="#666666" points="541.5,-253 446.5,-253 446.5,-234 541.5,-234 541.5,-253"/>
<text text-anchor="middle" x="494" y="-241" font-family="Helvetica,sans-Serif" font-size="10.00">func_800CAACC</text>
</a>
</g>
</g>
<!-- Node34&#45;&gt;Node170 -->
<g id="edge56_Node000034_Node000170" class="edge">
<title>Node34&#45;&gt;Node170</title>
<g id="a_edge56_Node000034_Node000170"><a xlink:title=" ">
<path fill="none" stroke="#63b8ff" d="M783.3,-652.69C776.96,-583.07 752.39,-351.02 703,-298.5 661.55,-254.42 589.26,-244.1 541.77,-242.47"/>
<polygon fill="#63b8ff" stroke="#63b8ff" points="779.83,-653.1 784.2,-662.75 786.8,-652.48 779.83,-653.1"/>
</a>
</g>
</g>
<!-- Node35&#45;&gt;Node22 -->
<g id="edge21_Node000035_Node000022" class="edge">
<title>Node35&#45;&gt;Node22</title>
<g id="a_edge21_Node000035_Node000022"><a xlink:title=" ">
<path fill="none" stroke="#63b8ff" d="M599.7,-910.66C550.04,-911.75 475.82,-909.02 415,-888.5 385.4,-878.52 355.86,-856.05 340.44,-843.13"/>
<polygon fill="#63b8ff" stroke="#63b8ff" points="600.01,-914.15 609.91,-910.38 599.81,-907.16 600.01,-914.15"/>
</a>
</g>
</g>
<!-- Node36&#45;&gt;Node21 -->
<g id="edge30_Node000036_Node000021" class="edge">
<title>Node36&#45;&gt;Node21</title>
<g id="a_edge30_Node000036_Node000021"><a xlink:title=" ">
<path fill="none" stroke="#63b8ff" d="M649.18,-607.69C633.27,-659.61 589.18,-800 573,-814.5 563.97,-822.59 552.07,-827.38 540.29,-830.17"/>
<polygon fill="#63b8ff" stroke="#63b8ff" points="652.56,-608.61 652.13,-598.02 645.86,-606.57 652.56,-608.61"/>
</a>
</g>
</g>
<!-- Node37 -->
<g id="Node000037" class="node">
<title>Node37</title>
<g id="a_Node000037"><a xlink:href="player__controller_8c.html#a1796f758711d87699791687c8c8ea84f" target="_top" xlink:title=" ">
<polygon fill="#fff0f0" stroke="red" points="540.5,-598 447.5,-598 447.5,-579 540.5,-579 540.5,-598"/>
<text text-anchor="middle" x="494" y="-586" font-family="Helvetica,sans-Serif" font-size="10.00">func_80027EDC</text>
</a>
</g>
</g>
<!-- Node36&#45;&gt;Node37 -->
<g id="edge24_Node000036_Node000037" class="edge">
<title>Node36&#45;&gt;Node37</title>
<g id="a_edge24_Node000036_Node000037"><a xlink:title=" ">
<path fill="none" stroke="#63b8ff" d="M599.44,-588.5C580.2,-588.5 558.87,-588.5 540.54,-588.5"/>
<polygon fill="#63b8ff" stroke="#63b8ff" points="599.58,-592 609.58,-588.5 599.58,-585 599.58,-592"/>
</a>
</g>
</g>
<!-- Node50 -->
<g id="Node000050" class="node">
<title>Node50</title>
<g id="a_Node000050"><a xlink:href="update__objects_8c.html#a494d2eda5e833a373c2f02eae59d972c" target="_top" xlink:title=" ">
<polygon fill="#fff0f0" stroke="red" points="539.5,-561 448.5,-561 448.5,-542 539.5,-542 539.5,-561"/>
<text text-anchor="middle" x="494" y="-549" font-family="Helvetica,sans-Serif" font-size="10.00">func_800791F0</text>
</a>
</g>
</g>
<!-- Node36&#45;&gt;Node50 -->
<g id="edge25_Node000036_Node000050" class="edge">
<title>Node36&#45;&gt;Node50</title>
<g id="a_edge25_Node000036_Node000050"><a xlink:title=" ">
<path fill="none" stroke="#63b8ff" d="M603.71,-576.61C593.54,-574.25 582.93,-571.8 573,-569.5 561.08,-566.74 548.14,-563.76 536.29,-561.02"/>
<polygon fill="#63b8ff" stroke="#63b8ff" points="603.17,-580.08 613.71,-578.92 604.75,-573.26 603.17,-580.08"/>
</a>
</g>
</g>
<!-- Node67 -->
<g id="Node000067" class="node">
<title>Node67</title>
<g id="a_Node000067"><a xlink:href="update__objects_8c.html#a5b10e163d17f78f43ec59de3a5c401a0" target="_top" xlink:title=" ">
<polygon fill="#fff0f0" stroke="red" points="540,-524 448,-524 448,-505 540,-505 540,-524"/>
<text text-anchor="middle" x="494" y="-512" font-family="Helvetica,sans-Serif" font-size="10.00">func_8007B34C</text>
</a>
</g>
</g>
<!-- Node36&#45;&gt;Node67 -->
<g id="edge26_Node000036_Node000067" class="edge">
<title>Node36&#45;&gt;Node67</title>
<g id="a_edge26_Node000036_Node000067"><a xlink:title=" ">
<path fill="none" stroke="#63b8ff" d="M635.9,-572.39C620.01,-559.78 596.31,-542.72 573,-532.5 562.69,-527.98 551.09,-524.52 540.06,-521.9"/>
<polygon fill="#63b8ff" stroke="#63b8ff" points="633.9,-575.27 643.87,-578.87 638.31,-569.84 633.9,-575.27"/>
</a>
</g>
</g>
<!-- Node69 -->
<g id="Node000069" class="node">
<title>Node69</title>
<g id="a_Node000069"><a xlink:href="effects_8c.html#ad34129e6236b319a5bcedae86d59bc2c" target="_top" xlink:title=" ">
<polygon fill="#fff0f0" stroke="red" points="539.5,-487 448.5,-487 448.5,-468 539.5,-468 539.5,-487"/>
<text text-anchor="middle" x="494" y="-475" font-family="Helvetica,sans-Serif" font-size="10.00">func_80090970</text>
</a>
</g>
</g>
<!-- Node36&#45;&gt;Node69 -->
<g id="edge27_Node000036_Node000069" class="edge">
<title>Node36&#45;&gt;Node69</title>
<g id="a_edge27_Node000036_Node000069"><a xlink:title=" ">
<path fill="none" stroke="#63b8ff" d="M644.06,-570.36C630.24,-549.04 604.41,-514.22 573,-495.5 562.97,-489.52 551.13,-485.53 539.74,-482.86"/>
<polygon fill="#63b8ff" stroke="#63b8ff" points="641.11,-572.23 649.39,-578.84 647.04,-568.51 641.11,-572.23"/>
</a>
</g>
</g>
<!-- Node74 -->
<g id="Node000074" class="node">
<title>Node74</title>
<g id="a_Node000074"><a xlink:href="external_8c.html#a6adc8dfd43ac90ecb9cbe18c1e56d762" target="_top" xlink:title=" ">
<polygon fill="white" stroke="#666666" points="540,-732 448,-732 448,-713 540,-713 540,-732"/>
<text text-anchor="middle" x="494" y="-720" font-family="Helvetica,sans-Serif" font-size="10.00">func_800C5E38</text>
</a>
</g>
</g>
<!-- Node36&#45;&gt;Node74 -->
<g id="edge28_Node000036_Node000074" class="edge">
<title>Node36&#45;&gt;Node74</title>
<g id="a_edge28_Node000036_Node000074"><a xlink:title=" ">
<path fill="none" stroke="#63b8ff" d="M646.75,-607.45C634.51,-633.28 609.03,-679.11 573,-703.5 563.31,-710.06 551.57,-714.37 540.19,-717.18"/>
<polygon fill="#63b8ff" stroke="#63b8ff" points="649.95,-608.87 650.92,-598.32 643.59,-605.96 649.95,-608.87"/>
</a>
</g>
</g>
<!-- Node75 -->
<g id="Node000075" class="node">
<title>Node75</title>
<g id="a_Node000075"><a xlink:href="external_8c.html#ab95692e47151e93fb7d149534da6a180" target="_top" xlink:title=" ">
<polygon fill="white" stroke="#666666" points="540,-769 448,-769 448,-750 540,-750 540,-769"/>
<text text-anchor="middle" x="494" y="-757" font-family="Helvetica,sans-Serif" font-size="10.00">func_800C847C</text>
</a>
</g>
</g>
<!-- Node36&#45;&gt;Node75 -->
<g id="edge31_Node000036_Node000075" class="edge">
<title>Node36&#45;&gt;Node75</title>
<g id="a_edge31_Node000036_Node000075"><a xlink:title=" ">
<path fill="none" stroke="#63b8ff" d="M650.13,-607.8C640.87,-640.38 617.56,-706.09 573,-740.5 563.62,-747.74 551.87,-752.27 540.36,-755.08"/>
<polygon fill="#63b8ff" stroke="#63b8ff" points="653.52,-608.68 652.74,-598.12 646.76,-606.86 653.52,-608.68"/>
</a>
</g>
</g>
<!-- Node76 -->
<g id="Node000076" class="node">
<title>Node76</title>
<g id="a_Node000076"><a xlink:href="external_8c.html#ac32b332e8b9a73af543741393186060d" target="_top" xlink:title=" ">
<polygon fill="white" stroke="#666666" points="540,-364 448,-364 448,-345 540,-345 540,-364"/>
<text text-anchor="middle" x="494" y="-352" font-family="Helvetica,sans-Serif" font-size="10.00">func_800CA730</text>
</a>
</g>
</g>
<!-- Node36&#45;&gt;Node76 -->
<g id="edge33_Node000036_Node000076" class="edge">
<title>Node36&#45;&gt;Node76</title>
<g id="a_edge33_Node000036_Node000076"><a xlink:title=" ">
<path fill="none" stroke="#63b8ff" d="M653.41,-568.36C648.91,-525.68 632.28,-425.78 573,-373.5 563.91,-365.48 551.98,-360.72 540.21,-357.92"/>
<polygon fill="#63b8ff" stroke="#63b8ff" points="649.95,-568.94 654.36,-578.57 656.92,-568.29 649.95,-568.94"/>
</a>
</g>
</g>
<!-- Node89 -->
<g id="Node000089" class="node">
<title>Node89</title>
<g id="a_Node000089"><a xlink:href="external_8c.html#aa00f6fbb1195ee18da20e61bd6ef5d97" target="_top" xlink:title=" ">
<polygon fill="#fff0f0" stroke="red" points="540,-450 448,-450 448,-431 540,-431 540,-450"/>
<text text-anchor="middle" x="494" y="-438" font-family="Helvetica,sans-Serif" font-size="10.00">func_800CB064</text>
</a>
</g>
</g>
<!-- Node36&#45;&gt;Node89 -->
<g id="edge36_Node000036_Node000089" class="edge">
<title>Node36&#45;&gt;Node89</title>
<g id="a_edge36_Node000036_Node000089"><a xlink:title=" ">
<path fill="none" stroke="#63b8ff" d="M648.29,-569.13C637.28,-540.33 612.55,-486.58 573,-458.5 563.37,-451.66 551.53,-447.38 540.02,-444.71"/>
<polygon fill="#63b8ff" stroke="#63b8ff" points="645.12,-570.66 651.84,-578.85 651.7,-568.25 645.12,-570.66"/>
</a>
</g>
</g>
<!-- Node65 -->
<g id="Node000065" class="node">
<title>Node65</title>
<g id="a_Node000065"><a xlink:href="update__objects_8c.html#a5a5fc982b29c525f677dd566bfca038e" target="_top" xlink:title=" ">
<polygon fill="#fff0f0" stroke="red" points="553.5,-412.5 434.5,-412.5 434.5,-382.5 553.5,-382.5 553.5,-412.5"/>
<text text-anchor="start" x="442.5" y="-400.5" font-family="Helvetica,sans-Serif" font-size="10.00">update_object_lakitu</text>
<text text-anchor="middle" x="494" y="-389.5" font-family="Helvetica,sans-Serif" font-size="10.00">_fishing</text>
</a>
</g>
</g>
<!-- Node36&#45;&gt;Node65 -->
<g id="edge37_Node000036_Node000065" class="edge">
<title>Node36&#45;&gt;Node65</title>
<g id="a_edge37_Node000036_Node000065"><a xlink:title=" ">
<path fill="none" stroke="#63b8ff" d="M650.82,-569.08C642.33,-534.33 619.78,-461.42 573,-421.5 567.29,-416.63 560.6,-412.74 553.58,-409.64"/>
<polygon fill="#63b8ff" stroke="#63b8ff" points="647.44,-569.98 653.1,-578.93 654.26,-568.4 647.44,-569.98"/>
</a>
</g>
</g>
<!-- Node66 -->
<g id="Node000066" class="node">
<title>Node66</title>
<g id="a_Node000066"><a xlink:href="update__objects_8c.html#a262b63dd3d6008cb2452a627c310c4a7" target="_top" xlink:title=" ">
<polygon fill="#fff0f0" stroke="red" points="553.5,-694.5 434.5,-694.5 434.5,-664.5 553.5,-664.5 553.5,-694.5"/>
<text text-anchor="start" x="442.5" y="-682.5" font-family="Helvetica,sans-Serif" font-size="10.00">update_object_lakitu</text>
<text text-anchor="middle" x="494" y="-671.5" font-family="Helvetica,sans-Serif" font-size="10.00">_fishing2</text>
</a>
</g>
</g>
<!-- Node36&#45;&gt;Node66 -->
<g id="edge38_Node000036_Node000066" class="edge">
<title>Node36&#45;&gt;Node66</title>
<g id="a_edge38_Node000036_Node000066"><a xlink:title=" ">
<path fill="none" stroke="#63b8ff" d="M638.5,-605.28C622.88,-620.33 598.12,-642.05 573,-655.5 566.76,-658.85 559.97,-661.8 553.11,-664.39"/>
<polygon fill="#63b8ff" stroke="#63b8ff" points="641.13,-607.61 645.8,-598.1 636.22,-602.62 641.13,-607.61"/>
</a>
</g>
</g>
<!-- Node61 -->
<g id="Node000061" class="node">
<title>Node61</title>
<g id="a_Node000061"><a xlink:href="update__objects_8c.html#ad11800c1ce772be2b43f56f32ce498f8" target="_top" xlink:title=" ">
<polygon fill="#fff0f0" stroke="red" points="553.5,-646.5 434.5,-646.5 434.5,-616.5 553.5,-616.5 553.5,-646.5"/>
<text text-anchor="start" x="442.5" y="-634.5" font-family="Helvetica,sans-Serif" font-size="10.00">update_object_lakitu</text>
<text text-anchor="middle" x="494" y="-623.5" font-family="Helvetica,sans-Serif" font-size="10.00">_reverse</text>
</a>
</g>
</g>
<!-- Node36&#45;&gt;Node61 -->
<g id="edge39_Node000036_Node000061" class="edge">
<title>Node36&#45;&gt;Node61</title>
<g id="a_edge39_Node000036_Node000061"><a xlink:title=" ">
<path fill="none" stroke="#63b8ff" d="M609.67,-600.68C591.37,-605.6 570.08,-611.32 550.84,-616.49"/>
<polygon fill="#63b8ff" stroke="#63b8ff" points="610.74,-604.02 619.49,-598.04 608.93,-597.26 610.74,-604.02"/>
</a>
</g>
</g>
<!-- Node74&#45;&gt;Node22 -->
<g id="edge29_Node000074_Node000022" class="edge">
<title>Node74&#45;&gt;Node22</title>
<g id="a_edge29_Node000074_Node000022"><a xlink:title=" ">
<path fill="none" stroke="#63b8ff" d="M438.11,-730.74C430.05,-733.2 422.09,-736.37 415,-740.5 378.04,-762.01 347.78,-804.71 335.45,-823.84"/>
<polygon fill="#63b8ff" stroke="#63b8ff" points="439.19,-734.08 447.94,-728.1 437.37,-727.32 439.19,-734.08"/>
</a>
</g>
</g>
<!-- Node75&#45;&gt;Node22 -->
<g id="edge32_Node000075_Node000022" class="edge">
<title>Node75&#45;&gt;Node22</title>
<g id="a_edge32_Node000075_Node000022"><a xlink:title=" ">
<path fill="none" stroke="#63b8ff" d="M438.07,-769.59C430.18,-771.78 422.28,-774.39 415,-777.5 386.44,-789.69 356.97,-811.38 341.18,-823.89"/>
<polygon fill="#63b8ff" stroke="#63b8ff" points="439.18,-772.92 448,-767.04 437.44,-766.14 439.18,-772.92"/>
</a>
</g>
</g>
<!-- Node77 -->
<g id="Node000077" class="node">
<title>Node77</title>
<g id="a_Node000077"><a xlink:href="effects_8c.html#ab044d6f7bf1cacf740cf0a27ea0902b5" target="_top" xlink:title=" ">
<polygon fill="#fff0f0" stroke="red" points="379,-272 278,-272 278,-253 379,-253 379,-272"/>
<text text-anchor="middle" x="328.5" y="-260" font-family="Helvetica,sans-Serif" font-size="10.00">apply_star_effect</text>
</a>
</g>
</g>
<!-- Node76&#45;&gt;Node77 -->
<g id="edge34_Node000076_Node000077" class="edge">
<title>Node76&#45;&gt;Node77</title>
<g id="a_edge34_Node000076_Node000077"><a xlink:title=" ">
<path fill="none" stroke="#63b8ff" d="M437.92,-345.22C429.94,-342.71 422.06,-339.53 415,-335.5 395.08,-324.12 396.34,-313.52 379,-298.5 367.92,-288.9 354.4,-279.19 344.29,-272.27"/>
<polygon fill="#63b8ff" stroke="#63b8ff" points="437.06,-348.61 447.64,-347.96 438.96,-341.88 437.06,-348.61"/>
</a>
</g>
</g>
<!-- Node78 -->
<g id="Node000078" class="node">
<title>Node78</title>
<g id="a_Node000078"><a xlink:href="effects_8c.html#ae1bacd987d7f12fc5960f838a7dbe137" target="_top" xlink:title=" ">
<polygon fill="#fff0f0" stroke="red" points="374.5,-327 282.5,-327 282.5,-308 374.5,-308 374.5,-327"/>
<text text-anchor="middle" x="328.5" y="-315" font-family="Helvetica,sans-Serif" font-size="10.00">func_8008F86C</text>
</a>
</g>
</g>
<!-- Node76&#45;&gt;Node78 -->
<g id="edge35_Node000076_Node000078" class="edge">
<title>Node76&#45;&gt;Node78</title>
<g id="a_edge35_Node000076_Node000078"><a xlink:title=" ">
<path fill="none" stroke="#63b8ff" d="M440.91,-342.71C418.59,-337.66 392.85,-331.84 371.75,-327.06"/>
<polygon fill="#63b8ff" stroke="#63b8ff" points="440.37,-346.18 450.89,-344.97 441.91,-339.35 440.37,-346.18"/>
</a>
</g>
</g>
<!-- Node92&#45;&gt;Node21 -->
<g id="edge44_Node000092_Node000021" class="edge">
<title>Node92&#45;&gt;Node21</title>
<g id="a_edge44_Node000092_Node000021"><a xlink:title=" ">
<path fill="none" stroke="#63b8ff" d="M624.75,-770.75C619.35,-773.72 613.89,-777.02 609,-780.5 591.07,-793.27 592.34,-803.99 573,-814.5 562.96,-819.96 551.35,-823.87 540.2,-826.66"/>
<polygon fill="#63b8ff" stroke="#63b8ff" points="626.44,-773.82 633.68,-766.09 623.19,-767.62 626.44,-773.82"/>
</a>
</g>
</g>
<!-- Node92&#45;&gt;Node7 -->
<g id="edge41_Node000092_Node000007" class="edge">
<title>Node92&#45;&gt;Node7</title>
<g id="a_edge41_Node000092_Node000007"><a xlink:title=" ">
<path fill="none" stroke="#63b8ff" d="M644.33,-774.64C630.61,-796.32 604.74,-832.09 573,-851.5 563.13,-857.53 551.46,-861.65 540.2,-864.46"/>
<polygon fill="#63b8ff" stroke="#63b8ff" points="647.36,-776.39 649.6,-766.04 641.39,-772.74 647.36,-776.39"/>
</a>
</g>
</g>
<!-- Node92&#45;&gt;Node75 -->
<g id="edge45_Node000092_Node000075" class="edge">
<title>Node92&#45;&gt;Node75</title>
<g id="a_edge45_Node000092_Node000075"><a xlink:title=" ">
<path fill="none" stroke="#63b8ff" d="M599.39,-757.54C580.07,-757.9 558.64,-758.31 540.26,-758.65"/>
<polygon fill="#63b8ff" stroke="#63b8ff" points="599.65,-761.04 609.58,-757.35 599.51,-754.04 599.65,-761.04"/>
</a>
</g>
</g>
<!-- Node93 -->
<g id="Node000093" class="node">
<title>Node93</title>
<g id="a_Node000093"><a xlink:href="external_8c.html#a9d558c81c8735c602351fbcdb517f632" target="_top" xlink:title=" ">
<polygon fill="white" stroke="#666666" points="540.5,-806 447.5,-806 447.5,-787 540.5,-787 540.5,-806"/>
<text text-anchor="middle" x="494" y="-794" font-family="Helvetica,sans-Serif" font-size="10.00">func_800C5D04</text>
</a>
</g>
</g>
<!-- Node92&#45;&gt;Node93 -->
<g id="edge42_Node000092_Node000093" class="edge">
<title>Node92&#45;&gt;Node93</title>
<g id="a_edge42_Node000092_Node000093"><a xlink:title=" ">
<path fill="none" stroke="#63b8ff" d="M608.38,-768.54C596.83,-771.5 584.47,-774.63 573,-777.5 560.56,-780.61 546.99,-783.94 534.7,-786.92"/>
<polygon fill="#63b8ff" stroke="#63b8ff" points="609.47,-771.87 618.29,-766 607.73,-765.09 609.47,-771.87"/>
</a>
</g>
</g>
<!-- Node93&#45;&gt;Node22 -->
<g id="edge43_Node000093_Node000022" class="edge">
<title>Node93&#45;&gt;Node22</title>
<g id="a_edge43_Node000093_Node000022"><a xlink:title=" ">
<path fill="none" stroke="#63b8ff" d="M440.91,-808.29C418.59,-813.34 392.85,-819.16 371.75,-823.94"/>
<polygon fill="#63b8ff" stroke="#63b8ff" points="441.91,-811.65 450.89,-806.03 440.37,-804.82 441.91,-811.65"/>
</a>
</g>
</g>
<!-- Node95 -->
<g id="Node000095" class="node">
<title>Node95</title>
<g id="a_Node000095"><a xlink:href="actors_8c.html#a12dc3ccac4c7d8569eadac0af4fd6f9f" target="_top" xlink:title=" ">
<polygon fill="#fff0f0" stroke="red" points="573,-327 415,-327 415,-308 573,-308 573,-327"/>
<text text-anchor="middle" x="494" y="-315" font-family="Helvetica,sans-Serif" font-size="10.00">play_sound_before_despawn</text>
</a>
</g>
</g>
<!-- Node94&#45;&gt;Node95 -->
<g id="edge47_Node000094_Node000095" class="edge">
<title>Node94&#45;&gt;Node95</title>
<g id="a_edge47_Node000094_Node000095"><a xlink:title=" ">
<path fill="none" stroke="#63b8ff" d="M599.46,-317.5C590.98,-317.5 582.1,-317.5 573.24,-317.5"/>
<polygon fill="#63b8ff" stroke="#63b8ff" points="599.58,-321 609.58,-317.5 599.58,-314 599.58,-321"/>
</a>
</g>
</g>
<!-- Node137 -->
<g id="Node000137" class="node">
<title>Node137</title>
<g id="a_Node000137"><a xlink:href="actors_8c.html#ac982a8bcccb803176dbf057d48a0fa32" target="_top" xlink:title=" ">
<polygon fill="#fff0f0" stroke="red" points="533,-290 455,-290 455,-271 533,-271 533,-290"/>
<text text-anchor="middle" x="494" y="-278" font-family="Helvetica,sans-Serif" font-size="10.00">render_cows</text>
</a>
</g>
</g>
<!-- Node94&#45;&gt;Node137 -->
<g id="edge48_Node000094_Node000137" class="edge">
<title>Node94&#45;&gt;Node137</title>
<g id="a_edge48_Node000094_Node000137"><a xlink:title=" ">
<path fill="none" stroke="#63b8ff" d="M603.71,-305.61C593.54,-303.25 582.93,-300.8 573,-298.5 560,-295.49 545.78,-292.21 533.09,-289.28"/>
<polygon fill="#63b8ff" stroke="#63b8ff" points="603.17,-309.08 613.71,-307.92 604.75,-302.26 603.17,-309.08"/>
</a>
</g>
</g>
<!-- Node150 -->
<g id="Node000150" class="node">
<title>Node150</title>
<g id="a_Node000150"><a xlink:href="actors_8c.html#a53268aa601911d56424ff08fb3395bcb" target="_top" xlink:title=" ">
<polygon fill="#fff0f0" stroke="red" points="553.5,-141.5 434.5,-141.5 434.5,-111.5 553.5,-111.5 553.5,-141.5"/>
<text text-anchor="start" x="442.5" y="-129.5" font-family="Helvetica,sans-Serif" font-size="10.00">destroy_destructable</text>
<text text-anchor="middle" x="494" y="-118.5" font-family="Helvetica,sans-Serif" font-size="10.00">_actor</text>
</a>
</g>
</g>
<!-- Node149&#45;&gt;Node150 -->
<g id="edge50_Node000149_Node000150" class="edge">
<title>Node149&#45;&gt;Node150</title>
<g id="a_edge50_Node000149_Node000150"><a xlink:title=" ">
<path fill="none" stroke="#63b8ff" d="M599.55,-126.5C584.74,-126.5 568.69,-126.5 553.71,-126.5"/>
<polygon fill="#63b8ff" stroke="#63b8ff" points="599.58,-130 609.58,-126.5 599.58,-123 599.58,-130"/>
</a>
</g>
</g>
<!-- Node157 -->
<g id="Node000157" class="node">
<title>Node157</title>
<g id="a_Node000157"><a xlink:href="update__objects_8c.html#a401992e1c9638d1a48190456bd7af9a3" target="_top" xlink:title=" ">
<polygon fill="#fff0f0" stroke="red" points="540,-93 448,-93 448,-74 540,-74 540,-93"/>
<text text-anchor="middle" x="494" y="-81" font-family="Helvetica,sans-Serif" font-size="10.00">func_8007601C</text>
</a>
</g>
</g>
<!-- Node149&#45;&gt;Node157 -->
<g id="edge51_Node000149_Node000157" class="edge">
<title>Node149&#45;&gt;Node157</title>
<g id="a_edge51_Node000149_Node000157"><a xlink:title=" ">
<path fill="none" stroke="#63b8ff" d="M613.91,-114.07C600.86,-110.24 586.36,-106.08 573,-102.5 560.88,-99.25 547.65,-95.94 535.57,-93.01"/>
<polygon fill="#63b8ff" stroke="#63b8ff" points="612.97,-117.45 623.55,-116.93 614.96,-110.73 612.97,-117.45"/>
</a>
</g>
</g>
<!-- Node160 -->
<g id="Node000160" class="node">
<title>Node160</title>
<g id="a_Node000160"><a xlink:href="update__objects_8c.html#a269298ce38d852af33c677ae12781528" target="_top" xlink:title=" ">
<polygon fill="#fff0f0" stroke="red" points="540,-56 448,-56 448,-37 540,-37 540,-56"/>
<text text-anchor="middle" x="494" y="-44" font-family="Helvetica,sans-Serif" font-size="10.00">func_8007661C</text>
</a>
</g>
</g>
<!-- Node149&#45;&gt;Node160 -->
<g id="edge52_Node000149_Node000160" class="edge">
<title>Node149&#45;&gt;Node160</title>
<g id="a_edge52_Node000149_Node000160"><a xlink:title=" ">
<path fill="none" stroke="#63b8ff" d="M637.96,-110.16C622.29,-96.02 597.78,-76.08 573,-64.5 562.8,-59.73 551.25,-56.18 540.22,-53.55"/>
<polygon fill="#63b8ff" stroke="#63b8ff" points="635.59,-112.73 645.31,-116.95 640.34,-107.59 635.59,-112.73"/>
</a>
</g>
</g>
<!-- Node161 -->
<g id="Node000161" class="node">
<title>Node161</title>
<g id="a_Node000161"><a xlink:href="update__objects_8c.html#aee48f5ac3342922cbf8cd98976679dad" target="_top" xlink:title=" ">
<polygon fill="#fff0f0" stroke="red" points="541.5,-19 446.5,-19 446.5,0 541.5,0 541.5,-19"/>
<text text-anchor="middle" x="494" y="-7" font-family="Helvetica,sans-Serif" font-size="10.00">func_8007DDC0</text>
</a>
</g>
</g>
<!-- Node149&#45;&gt;Node161 -->
<g id="edge53_Node000149_Node000161" class="edge">
<title>Node149&#45;&gt;Node161</title>
<g id="a_edge53_Node000149_Node000161"><a xlink:title=" ">
<path fill="none" stroke="#63b8ff" d="M644.77,-107.87C631.34,-85.25 605.59,-47.61 573,-27.5 563.66,-21.73 552.65,-17.81 541.9,-15.15"/>
<polygon fill="#63b8ff" stroke="#63b8ff" points="641.89,-109.9 649.9,-116.83 647.96,-106.41 641.89,-109.9"/>
</a>
</g>
</g>
<!-- Node163 -->
<g id="Node000163" class="node">
<title>Node163</title>
<g id="a_Node000163"><a xlink:href="update__objects_8c.html#a6c7938339fa5406ffe336278a92aa7ad" target="_top" xlink:title=" ">
<polygon fill="#fff0f0" stroke="red" points="539.5,-216 448.5,-216 448.5,-197 539.5,-197 539.5,-216"/>
<text text-anchor="middle" x="494" y="-204" font-family="Helvetica,sans-Serif" font-size="10.00">func_8007E1F4</text>
</a>
</g>
</g>
<!-- Node149&#45;&gt;Node163 -->
<g id="edge54_Node000149_Node000163" class="edge">
<title>Node149&#45;&gt;Node163</title>
<g id="a_edge54_Node000149_Node000163"><a xlink:title=" ">
<path fill="none" stroke="#63b8ff" d="M636.91,-143.34C621.16,-157.14 597.12,-176.17 573,-187.5 562.66,-192.36 550.94,-196.06 539.78,-198.84"/>
<polygon fill="#63b8ff" stroke="#63b8ff" points="639.66,-145.58 644.76,-136.3 634.98,-140.37 639.66,-145.58"/>
</a>
</g>
</g>
<!-- Node165 -->
<g id="Node000165" class="node">
<title>Node165</title>
<g id="a_Node000165"><a xlink:href="vehicle__utils_8inc_8c.html#ac445f752c27e0b8245e0412bb6a76f4d" target="_top" xlink:title=" ">
<polygon fill="#fff0f0" stroke="red" points="570.5,-179 417.5,-179 417.5,-160 570.5,-160 570.5,-179"/>
<text text-anchor="middle" x="494" y="-167" font-family="Helvetica,sans-Serif" font-size="10.00">handle_vehicle_interactions</text>
</a>
</g>
</g>
<!-- Node149&#45;&gt;Node165 -->
<g id="edge55_Node000149_Node000165" class="edge">
<title>Node149&#45;&gt;Node165</title>
<g id="a_edge55_Node000149_Node000165"><a xlink:title=" ">
<path fill="none" stroke="#63b8ff" d="M613.91,-138.93C600.86,-142.76 586.36,-146.92 573,-150.5 560.88,-153.75 547.65,-157.06 535.57,-159.99"/>
<polygon fill="#63b8ff" stroke="#63b8ff" points="614.96,-142.27 623.55,-136.07 612.97,-135.55 614.96,-142.27"/>
</a>
</g>
</g>
<!-- Node170&#45;&gt;Node77 -->
<g id="edge57_Node000170_Node000077" class="edge">
<title>Node170&#45;&gt;Node77</title>
<g id="a_edge57_Node000170_Node000077"><a xlink:title=" ">
<path fill="none" stroke="#63b8ff" d="M436.08,-250.11C417.56,-252.27 397.16,-254.64 379.21,-256.72"/>
<polygon fill="#63b8ff" stroke="#63b8ff" points="436.62,-253.58 446.15,-248.94 435.81,-246.62 436.62,-253.58"/>
</a>
</g>
</g>
<!-- Node170&#45;&gt;Node78 -->
<g id="edge58_Node000170_Node000078" class="edge">
<title>Node170&#45;&gt;Node78</title>
<g id="a_edge58_Node000170_Node000078"><a xlink:title=" ">
<path fill="none" stroke="#63b8ff" d="M436.4,-254.06C429.07,-256.15 421.77,-258.61 415,-261.5 386.44,-273.69 356.97,-295.38 341.18,-307.89"/>
<polygon fill="#63b8ff" stroke="#63b8ff" points="437.58,-257.37 446.36,-251.43 435.8,-250.6 437.58,-257.37"/>
</a>
</g>
</g>
<!-- Node172 -->
<g id="Node000172" class="node">
<title>Node172</title>
<g id="a_Node000172"><a xlink:href="external_8c.html#acc8bf31951751f8c1884eb37d49f4fbd" target="_top" xlink:title=" ">
<polygon fill="white" stroke="#666666" points="832.5,-954 739.5,-954 739.5,-935 832.5,-935 832.5,-954"/>
<text text-anchor="middle" x="786" y="-942" font-family="Helvetica,sans-Serif" font-size="10.00">func_800CAC08</text>
</a>
</g>
</g>
<!-- Node171&#45;&gt;Node172 -->
<g id="edge60_Node000171_Node000172" class="edge">
<title>Node171&#45;&gt;Node172</title>
<g id="a_edge60_Node000171_Node000172"><a xlink:title=" ">
<path fill="none" stroke="#63b8ff" d="M858.83,-944.5C850.16,-944.5 841.27,-944.5 832.84,-944.5"/>
<polygon fill="#63b8ff" stroke="#63b8ff" points="858.87,-948 868.87,-944.5 858.87,-941 858.87,-948"/>
</a>
</g>
</g>
<!-- Node174 -->
<g id="Node000174" class="node">
<title>Node174</title>
<g id="a_Node000174"><a xlink:href="external_8c.html#a136efe63ecddf15d836c739c28cbfe41" target="_top" xlink:title=" ">
<polygon fill="white" stroke="#666666" points="833,-991 739,-991 739,-972 833,-972 833,-991"/>
<text text-anchor="middle" x="786" y="-979" font-family="Helvetica,sans-Serif" font-size="10.00">func_800CAD40</text>
</a>
</g>
</g>
<!-- Node171&#45;&gt;Node174 -->
<g id="edge63_Node000171_Node000174" class="edge">
<title>Node171&#45;&gt;Node174</title>
<g id="a_edge63_Node000171_Node000174"><a xlink:title=" ">
<path fill="none" stroke="#63b8ff" d="M871.69,-956.83C854.87,-961.73 835.81,-967.28 820.04,-971.88"/>
<polygon fill="#63b8ff" stroke="#63b8ff" points="872.67,-960.19 881.29,-954.03 870.71,-953.47 872.67,-960.19"/>
</a>
</g>
</g>
<!-- Node173 -->
<g id="Node000173" class="node">
<title>Node173</title>
<g id="a_Node000173"><a xlink:href="external_8c.html#ab244f7b0fefaa03321288d8a1b265452" target="_top" xlink:title=" ">
<polygon fill="white" stroke="#666666" points="702,-991 610,-991 610,-972 702,-972 702,-991"/>
<text text-anchor="middle" x="656" y="-979" font-family="Helvetica,sans-Serif" font-size="10.00">func_800C8920</text>
</a>
</g>
</g>
<!-- Node172&#45;&gt;Node173 -->
<g id="edge61_Node000172_Node000173" class="edge">
<title>Node172&#45;&gt;Node173</title>
<g id="a_edge61_Node000172_Node000173"><a xlink:title=" ">
<path fill="none" stroke="#63b8ff" d="M742.36,-956.83C725.41,-961.73 706.19,-967.28 690.3,-971.88"/>
<polygon fill="#63b8ff" stroke="#63b8ff" points="743.4,-960.17 752.04,-954.03 741.46,-953.44 743.4,-960.17"/>
</a>
</g>
</g>
<!-- Node173&#45;&gt;Node22 -->
<g id="edge62_Node000173_Node000022" class="edge">
<title>Node173&#45;&gt;Node22</title>
<g id="a_edge62_Node000173_Node000022"><a xlink:title=" ">
<path fill="none" stroke="#63b8ff" d="M599.49,-973.84C548.86,-965.1 473.28,-947.51 415,-914.5 381.2,-895.35 350.47,-860.01 336.88,-843.06"/>
<polygon fill="#63b8ff" stroke="#63b8ff" points="599.14,-977.34 609.58,-975.53 600.29,-970.43 599.14,-977.34"/>
</a>
</g>
</g>
</g>
</svg>
