<?xml version="1.0" encoding="UTF-8" standalone="no"?>
<!DOCTYPE svg PUBLIC "-//W3C//DTD SVG 1.1//EN"
 "http://www.w3.org/Graphics/SVG/1.1/DTD/svg11.dtd">
<!-- Generated by graphviz version 2.43.0 (0)
 -->
<!-- Title: src/gbiMacro.c Pages: 1 -->
<svg width="1624pt" height="357pt"
 viewBox="0.00 0.00 1624.00 357.00" xmlns="http://www.w3.org/2000/svg" xmlns:xlink="http://www.w3.org/1999/xlink">
<g id="graph0" class="graph" transform="scale(1 1) rotate(0) translate(4 353)">
<title>src/gbiMacro.c</title>
<!-- Node1 -->
<g id="Node000001" class="node">
<title>Node1</title>
<g id="a_Node000001"><a xlink:title=" ">
<polygon fill="#999999" stroke="#666666" points="1488,-349 1401,-349 1401,-330 1488,-330 1488,-349"/>
<text text-anchor="middle" x="1444.5" y="-337" font-family="Helvetica,sans-Serif" font-size="10.00">src/gbiMacro.c</text>
</a>
</g>
</g>
<!-- Node2 -->
<g id="Node000002" class="node">
<title>Node2</title>
<g id="a_Node000002"><a xlink:href="ultra64_8h.html" target="_top" xlink:title=" ">
<polygon fill="white" stroke="#666666" points="869.5,-294 809.5,-294 809.5,-275 869.5,-275 869.5,-294"/>
<text text-anchor="middle" x="839.5" y="-282" font-family="Helvetica,sans-Serif" font-size="10.00">ultra64.h</text>
</a>
</g>
</g>
<!-- Node1&#45;&gt;Node2 -->
<g id="edge1_Node000001_Node000002" class="edge">
<title>Node1&#45;&gt;Node2</title>
<g id="a_edge1_Node000001_Node000002"><a xlink:title=" ">
<path fill="none" stroke="#63b8ff" d="M1400.99,-334.69C1288.5,-324.83 989.24,-298.62 880.08,-289.05"/>
<polygon fill="#63b8ff" stroke="#63b8ff" points="880.09,-285.54 869.82,-288.16 879.48,-292.52 880.09,-285.54"/>
</a>
</g>
</g>
<!-- Node26 -->
<g id="Node000026" class="node">
<title>Node26</title>
<g id="a_Node000026"><a xlink:href="gu_8h.html" target="_top" xlink:title=" ">
<polygon fill="white" stroke="#666666" points="1450,-239 1397,-239 1397,-220 1450,-220 1450,-239"/>
<text text-anchor="middle" x="1423.5" y="-227" font-family="Helvetica,sans-Serif" font-size="10.00">PR/gu.h</text>
</a>
</g>
</g>
<!-- Node1&#45;&gt;Node26 -->
<g id="edge56_Node000001_Node000026" class="edge">
<title>Node1&#45;&gt;Node26</title>
<g id="a_edge56_Node000001_Node000026"><a xlink:title=" ">
<path fill="none" stroke="#63b8ff" d="M1432.86,-329.73C1423.19,-321.67 1410.15,-308.74 1404.5,-294 1398.66,-278.76 1405.12,-260.91 1412.05,-248.03"/>
<polygon fill="#63b8ff" stroke="#63b8ff" points="1415.15,-249.65 1417.24,-239.27 1409.13,-246.09 1415.15,-249.65"/>
</a>
</g>
</g>
<!-- Node31 -->
<g id="Node000031" class="node">
<title>Node31</title>
<g id="a_Node000031"><a xlink:href="macros_8h.html" target="_top" xlink:title=" ">
<polygon fill="white" stroke="#666666" points="1475.5,-294 1413.5,-294 1413.5,-275 1475.5,-275 1475.5,-294"/>
<text text-anchor="middle" x="1444.5" y="-282" font-family="Helvetica,sans-Serif" font-size="10.00">macros.h</text>
</a>
</g>
</g>
<!-- Node1&#45;&gt;Node31 -->
<g id="edge55_Node000001_Node000031" class="edge">
<title>Node1&#45;&gt;Node31</title>
<g id="a_edge55_Node000001_Node000031"><a xlink:title=" ">
<path fill="none" stroke="#63b8ff" d="M1444.5,-329.75C1444.5,-322.8 1444.5,-312.85 1444.5,-304.13"/>
<polygon fill="#63b8ff" stroke="#63b8ff" points="1448,-304.09 1444.5,-294.09 1441,-304.09 1448,-304.09"/>
</a>
</g>
</g>
<!-- Node32 -->
<g id="Node000032" class="node">
<title>Node32</title>
<g id="a_Node000032"><a xlink:href="main_8h.html" target="_top" xlink:title=" ">
<polygon fill="white" stroke="#666666" points="1543.5,-294 1493.5,-294 1493.5,-275 1543.5,-275 1543.5,-294"/>
<text text-anchor="middle" x="1518.5" y="-282" font-family="Helvetica,sans-Serif" font-size="10.00">main.h</text>
</a>
</g>
</g>
<!-- Node1&#45;&gt;Node32 -->
<g id="edge57_Node000001_Node000032" class="edge">
<title>Node1&#45;&gt;Node32</title>
<g id="a_edge57_Node000001_Node000032"><a xlink:title=" ">
<path fill="none" stroke="#63b8ff" d="M1456.39,-329.98C1467.65,-321.92 1484.79,-309.65 1498.21,-300.03"/>
<polygon fill="#63b8ff" stroke="#63b8ff" points="1500.3,-302.84 1506.39,-294.17 1496.23,-297.15 1500.3,-302.84"/>
</a>
</g>
</g>
<!-- Node33 -->
<g id="Node000033" class="node">
<title>Node33</title>
<g id="a_Node000033"><a xlink:href="mk64_8h.html" target="_top" xlink:title=" ">
<polygon fill="white" stroke="#666666" points="1615,-294 1562,-294 1562,-275 1615,-275 1615,-294"/>
<text text-anchor="middle" x="1588.5" y="-282" font-family="Helvetica,sans-Serif" font-size="10.00">mk64.h</text>
</a>
</g>
</g>
<!-- Node1&#45;&gt;Node33 -->
<g id="edge58_Node000001_Node000033" class="edge">
<title>Node1&#45;&gt;Node33</title>
<g id="a_edge58_Node000001_Node000033"><a xlink:title=" ">
<path fill="none" stroke="#63b8ff" d="M1467.64,-329.98C1491.32,-321.27 1528.37,-307.63 1555.21,-297.75"/>
<polygon fill="#63b8ff" stroke="#63b8ff" points="1556.77,-300.91 1564.94,-294.17 1554.35,-294.34 1556.77,-300.91"/>
</a>
</g>
</g>
<!-- Node3 -->
<g id="Node000003" class="node">
<title>Node3</title>
<g id="a_Node000003"><a xlink:href="math_8h.html" target="_top" xlink:title=" ">
<polygon fill="white" stroke="#666666" points="1170,-239 1119,-239 1119,-220 1170,-220 1170,-239"/>
<text text-anchor="middle" x="1144.5" y="-227" font-family="Helvetica,sans-Serif" font-size="10.00">math.h</text>
</a>
</g>
</g>
<!-- Node2&#45;&gt;Node3 -->
<g id="edge2_Node000002_Node000003" class="edge">
<title>Node2&#45;&gt;Node3</title>
<g id="a_edge2_Node000002_Node000003"><a xlink:title=" ">
<path fill="none" stroke="#63b8ff" d="M869.78,-278.85C919.08,-271.18 1019.71,-255.12 1104.5,-239 1105.94,-238.73 1107.4,-238.44 1108.89,-238.15"/>
<polygon fill="#63b8ff" stroke="#63b8ff" points="1109.61,-241.57 1118.71,-236.15 1108.22,-234.71 1109.61,-241.57"/>
</a>
</g>
</g>
<!-- Node4 -->
<g id="Node000004" class="node">
<title>Node4</title>
<g id="a_Node000004"><a xlink:href="ultratypes_8h.html" target="_top" xlink:title=" ">
<polygon fill="white" stroke="#666666" points="657,-74 566,-74 566,-55 657,-55 657,-74"/>
<text text-anchor="middle" x="611.5" y="-62" font-family="Helvetica,sans-Serif" font-size="10.00">PR/ultratypes.h</text>
</a>
</g>
</g>
<!-- Node2&#45;&gt;Node4 -->
<g id="edge3_Node000002_Node000004" class="edge">
<title>Node2&#45;&gt;Node4</title>
<g id="a_edge3_Node000002_Node000004"><a xlink:title=" ">
<path fill="none" stroke="#63b8ff" d="M869.9,-280.38C920.65,-274.62 1019.75,-260.88 1046.5,-239 1073.26,-217.11 1088.34,-194.62 1070.5,-165 1029.14,-96.34 780.57,-74.45 667.47,-67.99"/>
<polygon fill="#63b8ff" stroke="#63b8ff" points="667.46,-64.49 657.28,-67.43 667.07,-71.48 667.46,-64.49"/>
</a>
</g>
</g>
<!-- Node7 -->
<g id="Node000007" class="node">
<title>Node7</title>
<g id="a_Node000007"><a xlink:href="os__exception_8h.html" target="_top" xlink:title=" ">
<polygon fill="white" stroke="#666666" points="1564.5,-184 1458.5,-184 1458.5,-165 1564.5,-165 1564.5,-184"/>
<text text-anchor="middle" x="1511.5" y="-172" font-family="Helvetica,sans-Serif" font-size="10.00">PR/os_exception.h</text>
</a>
</g>
</g>
<!-- Node2&#45;&gt;Node7 -->
<g id="edge7_Node000002_Node000007" class="edge">
<title>Node2&#45;&gt;Node7</title>
<g id="a_edge7_Node000002_Node000007"><a xlink:title=" ">
<path fill="none" stroke="#63b8ff" d="M869.65,-282.71C986.52,-279.46 1405.76,-266.02 1458.5,-239 1478,-229.01 1493.08,-208.37 1502.09,-193.33"/>
<polygon fill="#63b8ff" stroke="#63b8ff" points="1505.25,-194.84 1507.11,-184.41 1499.15,-191.41 1505.25,-194.84"/>
</a>
</g>
</g>
<!-- Node8 -->
<g id="Node000008" class="node">
<title>Node8</title>
<g id="a_Node000008"><a xlink:href="os__misc_8h.html" target="_top" xlink:title=" ">
<polygon fill="white" stroke="#666666" points="81,-129 0,-129 0,-110 81,-110 81,-129"/>
<text text-anchor="middle" x="40.5" y="-117" font-family="Helvetica,sans-Serif" font-size="10.00">PR/os_misc.h</text>
</a>
</g>
</g>
<!-- Node2&#45;&gt;Node8 -->
<g id="edge9_Node000002_Node000008" class="edge">
<title>Node2&#45;&gt;Node8</title>
<g id="a_edge9_Node000002_Node000008"><a xlink:title=" ">
<path fill="none" stroke="#63b8ff" d="M809.43,-282.97C679.96,-280.49 173.63,-268.97 109.5,-239 79.02,-224.76 73.91,-213.37 57.5,-184 49.75,-170.13 45.4,-152.57 43.05,-139.43"/>
<polygon fill="#63b8ff" stroke="#63b8ff" points="46.46,-138.57 41.46,-129.22 39.54,-139.64 46.46,-138.57"/>
</a>
</g>
</g>
<!-- Node9 -->
<g id="Node000009" class="node">
<title>Node9</title>
<g id="a_Node000009"><a xlink:href="os__rdp_8h.html" target="_top" xlink:title=" ">
<polygon fill="white" stroke="#666666" points="140.5,-184 66.5,-184 66.5,-165 140.5,-165 140.5,-184"/>
<text text-anchor="middle" x="103.5" y="-172" font-family="Helvetica,sans-Serif" font-size="10.00">PR/os_rdp.h</text>
</a>
</g>
</g>
<!-- Node2&#45;&gt;Node9 -->
<g id="edge11_Node000002_Node000009" class="edge">
<title>Node2&#45;&gt;Node9</title>
<g id="a_edge11_Node000002_Node000009"><a xlink:title=" ">
<path fill="none" stroke="#63b8ff" d="M809.39,-283.52C680.97,-283.33 182.99,-279.96 127.5,-239 113.45,-228.63 107.62,-208.98 105.21,-194.27"/>
<polygon fill="#63b8ff" stroke="#63b8ff" points="108.66,-193.71 103.95,-184.23 101.72,-194.58 108.66,-193.71"/>
</a>
</g>
</g>
<!-- Node10 -->
<g id="Node000010" class="node">
<title>Node10</title>
<g id="a_Node000010"><a xlink:href="os__thread_8h.html" target="_top" xlink:title=" ">
<polygon fill="white" stroke="#666666" points="245,-129 156,-129 156,-110 245,-110 245,-129"/>
<text text-anchor="middle" x="200.5" y="-117" font-family="Helvetica,sans-Serif" font-size="10.00">PR/os_thread.h</text>
</a>
</g>
</g>
<!-- Node2&#45;&gt;Node10 -->
<g id="edge13_Node000002_Node000010" class="edge">
<title>Node2&#45;&gt;Node10</title>
<g id="a_edge13_Node000002_Node000010"><a xlink:title=" ">
<path fill="none" stroke="#63b8ff" d="M809.12,-283.89C683.02,-285.18 205.32,-286.85 160.5,-239 133.41,-210.08 165.27,-162.18 185.8,-137.05"/>
<polygon fill="#63b8ff" stroke="#63b8ff" points="188.67,-139.07 192.47,-129.18 183.33,-134.54 188.67,-139.07"/>
</a>
</g>
</g>
<!-- Node11 -->
<g id="Node000011" class="node">
<title>Node11</title>
<g id="a_Node000011"><a xlink:href="os__time_8h.html" target="_top" xlink:title=" ">
<polygon fill="white" stroke="#666666" points="249.5,-239 169.5,-239 169.5,-220 249.5,-220 249.5,-239"/>
<text text-anchor="middle" x="209.5" y="-227" font-family="Helvetica,sans-Serif" font-size="10.00">PR/os_time.h</text>
</a>
</g>
</g>
<!-- Node2&#45;&gt;Node11 -->
<g id="edge15_Node000002_Node000011" class="edge">
<title>Node2&#45;&gt;Node11</title>
<g id="a_edge15_Node000002_Node000011"><a xlink:title=" ">
<path fill="none" stroke="#63b8ff" d="M809.44,-282.02C723.86,-277.62 471.7,-263.39 263.5,-239 262.23,-238.85 260.94,-238.69 259.64,-238.53"/>
<polygon fill="#63b8ff" stroke="#63b8ff" points="259.94,-235.04 249.56,-237.17 259,-241.98 259.94,-235.04"/>
</a>
</g>
</g>
<!-- Node12 -->
<g id="Node000012" class="node">
<title>Node12</title>
<g id="a_Node000012"><a xlink:href="os__message_8h.html" target="_top" xlink:title=" ">
<polygon fill="white" stroke="#666666" points="403.5,-184 301.5,-184 301.5,-165 403.5,-165 403.5,-184"/>
<text text-anchor="middle" x="352.5" y="-172" font-family="Helvetica,sans-Serif" font-size="10.00">PR/os_message.h</text>
</a>
</g>
</g>
<!-- Node2&#45;&gt;Node12 -->
<g id="edge20_Node000002_Node000012" class="edge">
<title>Node2&#45;&gt;Node12</title>
<g id="a_edge20_Node000002_Node000012"><a xlink:title=" ">
<path fill="none" stroke="#63b8ff" d="M809.47,-283.36C700.63,-282.52 331.43,-276.91 296.5,-239 280.9,-222.07 305.35,-202.09 326.68,-189.12"/>
<polygon fill="#63b8ff" stroke="#63b8ff" points="328.6,-192.06 335.51,-184.03 325.1,-186 328.6,-192.06"/>
</a>
</g>
</g>
<!-- Node13 -->
<g id="Node000013" class="node">
<title>Node13</title>
<g id="a_Node000013"><a xlink:href="os__cont_8h.html" target="_top" xlink:title=" ">
<polygon fill="white" stroke="#666666" points="385,-239 306,-239 306,-220 385,-220 385,-239"/>
<text text-anchor="middle" x="345.5" y="-227" font-family="Helvetica,sans-Serif" font-size="10.00">PR/os_cont.h</text>
</a>
</g>
</g>
<!-- Node2&#45;&gt;Node13 -->
<g id="edge21_Node000002_Node000013" class="edge">
<title>Node2&#45;&gt;Node13</title>
<g id="a_edge21_Node000002_Node000013"><a xlink:title=" ">
<path fill="none" stroke="#63b8ff" d="M809.39,-281.29C738.82,-275.94 557.06,-261.17 395.16,-239.14"/>
<polygon fill="#63b8ff" stroke="#63b8ff" points="395.4,-235.64 385.02,-237.74 394.45,-242.57 395.4,-235.64"/>
</a>
</g>
</g>
<!-- Node14 -->
<g id="Node000014" class="node">
<title>Node14</title>
<g id="a_Node000014"><a xlink:href="os__tlb_8h.html" target="_top" xlink:title=" ">
<polygon fill="white" stroke="#666666" points="647,-129 576,-129 576,-110 647,-110 647,-129"/>
<text text-anchor="middle" x="611.5" y="-117" font-family="Helvetica,sans-Serif" font-size="10.00">PR/os_tlb.h</text>
</a>
</g>
</g>
<!-- Node2&#45;&gt;Node14 -->
<g id="edge24_Node000002_Node000014" class="edge">
<title>Node2&#45;&gt;Node14</title>
<g id="a_edge24_Node000002_Node000014"><a xlink:title=" ">
<path fill="none" stroke="#63b8ff" d="M809.42,-281.21C757.6,-276.62 654.72,-264.48 630.5,-239 604.87,-212.03 605.75,-165.03 608.63,-139.06"/>
<polygon fill="#63b8ff" stroke="#63b8ff" points="612.11,-139.42 609.96,-129.05 605.17,-138.5 612.11,-139.42"/>
</a>
</g>
</g>
<!-- Node15 -->
<g id="Node000015" class="node">
<title>Node15</title>
<g id="a_Node000015"><a xlink:href="sptask_8h.html" target="_top" xlink:title=" ">
<polygon fill="white" stroke="#666666" points="746.5,-184 672.5,-184 672.5,-165 746.5,-165 746.5,-184"/>
<text text-anchor="middle" x="709.5" y="-172" font-family="Helvetica,sans-Serif" font-size="10.00">PR/sptask.h</text>
</a>
</g>
</g>
<!-- Node2&#45;&gt;Node15 -->
<g id="edge26_Node000002_Node000015" class="edge">
<title>Node2&#45;&gt;Node15</title>
<g id="a_edge26_Node000002_Node000015"><a xlink:title=" ">
<path fill="none" stroke="#63b8ff" d="M821.2,-274.99C805.07,-266.99 781.42,-254.03 763.5,-239 747.1,-225.25 731.63,-206.2 721.49,-192.56"/>
<polygon fill="#63b8ff" stroke="#63b8ff" points="724.07,-190.15 715.37,-184.11 718.4,-194.26 724.07,-190.15"/>
</a>
</g>
</g>
<!-- Node16 -->
<g id="Node000016" class="node">
<title>Node16</title>
<g id="a_Node000016"><a xlink:href="ucode_8h.html" target="_top" xlink:title=" ">
<polygon fill="white" stroke="#666666" points="711,-239 640,-239 640,-220 711,-220 711,-239"/>
<text text-anchor="middle" x="675.5" y="-227" font-family="Helvetica,sans-Serif" font-size="10.00">PR/ucode.h</text>
</a>
</g>
</g>
<!-- Node2&#45;&gt;Node16 -->
<g id="edge28_Node000002_Node000016" class="edge">
<title>Node2&#45;&gt;Node16</title>
<g id="a_edge28_Node000002_Node000016"><a xlink:title=" ">
<path fill="none" stroke="#63b8ff" d="M813.15,-274.98C785.74,-266.13 742.61,-252.19 711.94,-242.28"/>
<polygon fill="#63b8ff" stroke="#63b8ff" points="712.65,-238.83 702.06,-239.08 710.5,-245.49 712.65,-238.83"/>
</a>
</g>
</g>
<!-- Node17 -->
<g id="Node000017" class="node">
<title>Node17</title>
<g id="a_Node000017"><a xlink:href="os__cache_8h.html" target="_top" xlink:title=" ">
<polygon fill="white" stroke="#666666" points="805.5,-129 719.5,-129 719.5,-110 805.5,-110 805.5,-129"/>
<text text-anchor="middle" x="762.5" y="-117" font-family="Helvetica,sans-Serif" font-size="10.00">PR/os_cache.h</text>
</a>
</g>
</g>
<!-- Node2&#45;&gt;Node17 -->
<g id="edge29_Node000002_Node000017" class="edge">
<title>Node2&#45;&gt;Node17</title>
<g id="a_edge29_Node000002_Node000017"><a xlink:title=" ">
<path fill="none" stroke="#63b8ff" d="M828.4,-274.76C818.66,-266.52 804.78,-253.33 796.5,-239 777.83,-206.68 768.82,-163.41 764.97,-139.1"/>
<polygon fill="#63b8ff" stroke="#63b8ff" points="768.42,-138.49 763.51,-129.1 761.49,-139.5 768.42,-138.49"/>
</a>
</g>
</g>
<!-- Node18 -->
<g id="Node000018" class="node">
<title>Node18</title>
<g id="a_Node000018"><a xlink:href="os__vi_8h.html" target="_top" xlink:title=" ">
<polygon fill="white" stroke="#666666" points="470,-239 403,-239 403,-220 470,-220 470,-239"/>
<text text-anchor="middle" x="436.5" y="-227" font-family="Helvetica,sans-Serif" font-size="10.00">PR/os_vi.h</text>
</a>
</g>
</g>
<!-- Node2&#45;&gt;Node18 -->
<g id="edge31_Node000002_Node000018" class="edge">
<title>Node2&#45;&gt;Node18</title>
<g id="a_edge31_Node000002_Node000018"><a xlink:title=" ">
<path fill="none" stroke="#63b8ff" d="M809.44,-280.59C748.95,-274.55 608.06,-259.64 480.34,-239.2"/>
<polygon fill="#63b8ff" stroke="#63b8ff" points="480.82,-235.73 470.38,-237.59 479.7,-242.64 480.82,-235.73"/>
</a>
</g>
</g>
<!-- Node19 -->
<g id="Node000019" class="node">
<title>Node19</title>
<g id="a_Node000019"><a xlink:href="os__pi_8h.html" target="_top" xlink:title=" ">
<polygon fill="white" stroke="#666666" points="873,-239 806,-239 806,-220 873,-220 873,-239"/>
<text text-anchor="middle" x="839.5" y="-227" font-family="Helvetica,sans-Serif" font-size="10.00">PR/os_pi.h</text>
</a>
</g>
</g>
<!-- Node2&#45;&gt;Node19 -->
<g id="edge34_Node000002_Node000019" class="edge">
<title>Node2&#45;&gt;Node19</title>
<g id="a_edge34_Node000002_Node000019"><a xlink:title=" ">
<path fill="none" stroke="#63b8ff" d="M839.5,-274.75C839.5,-267.8 839.5,-257.85 839.5,-249.13"/>
<polygon fill="#63b8ff" stroke="#63b8ff" points="843,-249.09 839.5,-239.09 836,-249.09 843,-249.09"/>
</a>
</g>
</g>
<!-- Node20 -->
<g id="Node000020" class="node">
<title>Node20</title>
<g id="a_Node000020"><a xlink:href="os__internal_8h.html" target="_top" xlink:title=" ">
<polygon fill="white" stroke="#666666" points="986,-239 891,-239 891,-220 986,-220 986,-239"/>
<text text-anchor="middle" x="938.5" y="-227" font-family="Helvetica,sans-Serif" font-size="10.00">PR/os_internal.h</text>
</a>
</g>
</g>
<!-- Node2&#45;&gt;Node20 -->
<g id="edge35_Node000002_Node000020" class="edge">
<title>Node2&#45;&gt;Node20</title>
<g id="a_edge35_Node000002_Node000020"><a xlink:title=" ">
<path fill="none" stroke="#63b8ff" d="M855.41,-274.98C871.05,-266.61 895.16,-253.7 913.38,-243.95"/>
<polygon fill="#63b8ff" stroke="#63b8ff" points="915.14,-246.98 922.3,-239.17 911.84,-240.8 915.14,-246.98"/>
</a>
</g>
</g>
<!-- Node21 -->
<g id="Node000021" class="node">
<title>Node21</title>
<g id="a_Node000021"><a xlink:href="mbi_8h.html" target="_top" xlink:title=" ">
<polygon fill="white" stroke="#666666" points="1276.5,-184 1216.5,-184 1216.5,-165 1276.5,-165 1276.5,-184"/>
<text text-anchor="middle" x="1246.5" y="-172" font-family="Helvetica,sans-Serif" font-size="10.00">PR/mbi.h</text>
</a>
</g>
</g>
<!-- Node2&#45;&gt;Node21 -->
<g id="edge36_Node000002_Node000021" class="edge">
<title>Node2&#45;&gt;Node21</title>
<g id="a_edge36_Node000002_Node000021"><a xlink:title=" ">
<path fill="none" stroke="#63b8ff" d="M869.62,-282.61C945,-279.94 1139.76,-270.13 1195.5,-239 1214.34,-228.48 1228.84,-207.94 1237.48,-193.07"/>
<polygon fill="#63b8ff" stroke="#63b8ff" points="1240.56,-194.72 1242.3,-184.27 1234.42,-191.36 1240.56,-194.72"/>
</a>
</g>
</g>
<!-- Node24 -->
<g id="Node000024" class="node">
<title>Node24</title>
<g id="a_Node000024"><a xlink:href="os__eeprom_8h.html" target="_top" xlink:title=" ">
<polygon fill="white" stroke="#666666" points="583,-239 488,-239 488,-220 583,-220 583,-239"/>
<text text-anchor="middle" x="535.5" y="-227" font-family="Helvetica,sans-Serif" font-size="10.00">PR/os_eeprom.h</text>
</a>
</g>
</g>
<!-- Node2&#45;&gt;Node24 -->
<g id="edge40_Node000002_Node000024" class="edge">
<title>Node2&#45;&gt;Node24</title>
<g id="a_edge40_Node000002_Node000024"><a xlink:title=" ">
<path fill="none" stroke="#63b8ff" d="M809.24,-278.22C758.99,-269.46 657.51,-251.77 593.22,-240.56"/>
<polygon fill="#63b8ff" stroke="#63b8ff" points="593.68,-237.09 583.23,-238.82 592.48,-243.99 593.68,-237.09"/>
</a>
</g>
</g>
<!-- Node25 -->
<g id="Node000025" class="node">
<title>Node25</title>
<g id="a_Node000025"><a xlink:href="os__libc_8h.html" target="_top" xlink:title=" ">
<polygon fill="white" stroke="#666666" points="925,-129 850,-129 850,-110 925,-110 925,-129"/>
<text text-anchor="middle" x="887.5" y="-117" font-family="Helvetica,sans-Serif" font-size="10.00">PR/os_libc.h</text>
</a>
</g>
</g>
<!-- Node2&#45;&gt;Node25 -->
<g id="edge43_Node000002_Node000025" class="edge">
<title>Node2&#45;&gt;Node25</title>
<g id="a_edge43_Node000002_Node000025"><a xlink:title=" ">
<path fill="none" stroke="#63b8ff" d="M869.72,-279.17C910.43,-272.64 979.51,-258.9 994.5,-239 999.58,-232.26 997.87,-227.74 994.5,-220 977.64,-181.31 937.5,-150.88 911.46,-134.32"/>
<polygon fill="#63b8ff" stroke="#63b8ff" points="913.25,-131.31 902.9,-129.05 909.58,-137.27 913.25,-131.31"/>
</a>
</g>
</g>
<!-- Node2&#45;&gt;Node26 -->
<g id="edge45_Node000002_Node000026" class="edge">
<title>Node2&#45;&gt;Node26</title>
<g id="a_edge45_Node000002_Node000026"><a xlink:title=" ">
<path fill="none" stroke="#63b8ff" d="M869.67,-282.33C952.15,-278.84 1188.24,-266.99 1382.5,-239 1383.8,-238.81 1385.11,-238.61 1386.44,-238.4"/>
<polygon fill="#63b8ff" stroke="#63b8ff" points="1387.46,-241.77 1396.68,-236.55 1386.21,-234.88 1387.46,-241.77"/>
</a>
</g>
</g>
<!-- Node28 -->
<g id="Node000028" class="node">
<title>Node28</title>
<g id="a_Node000028"><a xlink:href="os__ai_8h.html" target="_top" xlink:title=" ">
<polygon fill="white" stroke="#666666" points="1062,-184 995,-184 995,-165 1062,-165 1062,-184"/>
<text text-anchor="middle" x="1028.5" y="-172" font-family="Helvetica,sans-Serif" font-size="10.00">PR/os_ai.h</text>
</a>
</g>
</g>
<!-- Node2&#45;&gt;Node28 -->
<g id="edge50_Node000002_Node000028" class="edge">
<title>Node2&#45;&gt;Node28</title>
<g id="a_edge50_Node000002_Node000028"><a xlink:title=" ">
<path fill="none" stroke="#63b8ff" d="M869.8,-280.85C918.08,-275.93 1009.04,-263.58 1028.5,-239 1038.33,-226.59 1037.13,-208.12 1034.18,-194.29"/>
<polygon fill="#63b8ff" stroke="#63b8ff" points="1037.52,-193.21 1031.62,-184.41 1030.74,-194.97 1037.52,-193.21"/>
</a>
</g>
</g>
<!-- Node29 -->
<g id="Node000029" class="node">
<title>Node29</title>
<g id="a_Node000029"><a xlink:href="libaudio_8h.html" target="_top" xlink:title=" ">
<polygon fill="white" stroke="#666666" points="1198.5,-184 1118.5,-184 1118.5,-165 1198.5,-165 1198.5,-184"/>
<text text-anchor="middle" x="1158.5" y="-172" font-family="Helvetica,sans-Serif" font-size="10.00">PR/libaudio.h</text>
</a>
</g>
</g>
<!-- Node2&#45;&gt;Node29 -->
<g id="edge52_Node000002_Node000029" class="edge">
<title>Node2&#45;&gt;Node29</title>
<g id="a_edge52_Node000002_Node000029"><a xlink:title=" ">
<path fill="none" stroke="#63b8ff" d="M869.78,-281.77C949.1,-276.93 1158.24,-262.09 1178.5,-239 1189.88,-226.03 1181.18,-206.59 1171.96,-192.64"/>
<polygon fill="#63b8ff" stroke="#63b8ff" points="1174.7,-190.46 1166.02,-184.39 1169.02,-194.55 1174.7,-190.46"/>
</a>
</g>
</g>
<!-- Node30 -->
<g id="Node000030" class="node">
<title>Node30</title>
<g id="a_Node000030"><a xlink:href="libultra_8h.html" target="_top" xlink:title=" ">
<polygon fill="white" stroke="#666666" points="1340.5,-239 1264.5,-239 1264.5,-220 1340.5,-220 1340.5,-239"/>
<text text-anchor="middle" x="1302.5" y="-227" font-family="Helvetica,sans-Serif" font-size="10.00">PR/libultra.h</text>
</a>
</g>
</g>
<!-- Node2&#45;&gt;Node30 -->
<g id="edge54_Node000002_Node000030" class="edge">
<title>Node2&#45;&gt;Node30</title>
<g id="a_edge54_Node000002_Node000030"><a xlink:title=" ">
<path fill="none" stroke="#63b8ff" d="M869.73,-280.79C937.84,-274.57 1108.44,-258.29 1250.5,-239 1251.77,-238.83 1253.07,-238.65 1254.37,-238.46"/>
<polygon fill="#63b8ff" stroke="#63b8ff" points="1255.1,-241.89 1264.48,-236.96 1254.07,-234.97 1255.1,-241.89"/>
</a>
</g>
</g>
<!-- Node5 -->
<g id="Node000005" class="node">
<title>Node5</title>
<g id="a_Node000005"><a xlink:href="stddef_8h.html" target="_top" xlink:title=" ">
<polygon fill="white" stroke="#666666" points="639.5,-19 583.5,-19 583.5,0 639.5,0 639.5,-19"/>
<text text-anchor="middle" x="611.5" y="-7" font-family="Helvetica,sans-Serif" font-size="10.00">stddef.h</text>
</a>
</g>
</g>
<!-- Node4&#45;&gt;Node5 -->
<g id="edge4_Node000004_Node000005" class="edge">
<title>Node4&#45;&gt;Node5</title>
<g id="a_edge4_Node000004_Node000005"><a xlink:title=" ">
<path fill="none" stroke="#63b8ff" d="M606.33,-54.75C604.84,-47.8 604.4,-37.85 605.02,-29.13"/>
<polygon fill="#63b8ff" stroke="#63b8ff" points="608.51,-29.47 606.37,-19.09 601.57,-28.53 608.51,-29.47"/>
</a>
</g>
</g>
<!-- Node6 -->
<g id="Node000006" class="node">
<title>Node6</title>
<g id="a_Node000006"><a xlink:title=" ">
<polygon fill="#e0e0e0" stroke="#999999" points="711,-19 658,-19 658,0 711,0 711,-19"/>
<text text-anchor="middle" x="684.5" y="-7" font-family="Helvetica,sans-Serif" font-size="10.00">stdint.h</text>
</a>
</g>
</g>
<!-- Node4&#45;&gt;Node6 -->
<g id="edge6_Node000004_Node000006" class="edge">
<title>Node4&#45;&gt;Node6</title>
<g id="a_edge6_Node000004_Node000006"><a xlink:title=" ">
<path fill="none" stroke="#63b8ff" d="M623.23,-54.98C634.23,-47 650.92,-34.88 664.1,-25.31"/>
<polygon fill="#63b8ff" stroke="#63b8ff" points="666.52,-27.88 672.56,-19.17 662.41,-22.21 666.52,-27.88"/>
</a>
</g>
</g>
<!-- Node5&#45;&gt;Node4 -->
<g id="edge5_Node000005_Node000004" class="edge">
<title>Node5&#45;&gt;Node4</title>
<g id="a_edge5_Node000005_Node000004"><a xlink:title=" ">
<path fill="none" stroke="#63b8ff" d="M616.63,-19.09C618.14,-25.99 618.59,-35.93 617.99,-44.66"/>
<polygon fill="#63b8ff" stroke="#63b8ff" points="614.5,-44.38 616.67,-54.75 621.44,-45.29 614.5,-44.38"/>
</a>
</g>
</g>
<!-- Node7&#45;&gt;Node4 -->
<g id="edge8_Node000007_Node000004" class="edge">
<title>Node7&#45;&gt;Node4</title>
<g id="a_edge8_Node000007_Node000004"><a xlink:title=" ">
<path fill="none" stroke="#63b8ff" d="M1505.69,-164.96C1495.34,-150.57 1472.18,-121.9 1444.5,-110 1373.52,-79.49 842.17,-68.93 667.19,-66.25"/>
<polygon fill="#63b8ff" stroke="#63b8ff" points="667.21,-62.75 657.16,-66.1 667.11,-69.75 667.21,-62.75"/>
</a>
</g>
</g>
<!-- Node8&#45;&gt;Node4 -->
<g id="edge10_Node000008_Node000004" class="edge">
<title>Node8&#45;&gt;Node4</title>
<g id="a_edge10_Node000008_Node000004"><a xlink:title=" ">
<path fill="none" stroke="#63b8ff" d="M81.22,-113.08C89.88,-112 98.99,-110.92 107.5,-110 270.18,-92.51 462.95,-76.91 555.9,-69.71"/>
<polygon fill="#63b8ff" stroke="#63b8ff" points="556.22,-73.2 565.92,-68.94 555.68,-66.22 556.22,-73.2"/>
</a>
</g>
</g>
<!-- Node9&#45;&gt;Node4 -->
<g id="edge12_Node000009_Node000004" class="edge">
<title>Node9&#45;&gt;Node4</title>
<g id="a_edge12_Node000009_Node000004"><a xlink:title=" ">
<path fill="none" stroke="#63b8ff" d="M106.61,-164.69C112.15,-150.43 125.2,-122.64 146.5,-110 214.32,-69.76 447.45,-64.98 555.59,-65"/>
<polygon fill="#63b8ff" stroke="#63b8ff" points="555.65,-68.5 565.65,-65.02 555.66,-61.5 555.65,-68.5"/>
</a>
</g>
</g>
<!-- Node10&#45;&gt;Node4 -->
<g id="edge14_Node000010_Node000004" class="edge">
<title>Node10&#45;&gt;Node4</title>
<g id="a_edge14_Node000010_Node000004"><a xlink:title=" ">
<path fill="none" stroke="#63b8ff" d="M245.27,-111.97C250.07,-111.29 254.89,-110.62 259.5,-110 364.01,-95.87 486.17,-80.73 555.63,-72.26"/>
<polygon fill="#63b8ff" stroke="#63b8ff" points="556.4,-75.69 565.9,-71.01 555.55,-68.74 556.4,-75.69"/>
</a>
</g>
</g>
<!-- Node11&#45;&gt;Node4 -->
<g id="edge16_Node000011_Node000004" class="edge">
<title>Node11&#45;&gt;Node4</title>
<g id="a_edge16_Node000011_Node000004"><a xlink:title=" ">
<path fill="none" stroke="#63b8ff" d="M219.25,-219.99C234.29,-207.09 264.37,-182.3 292.5,-165 340.42,-135.53 353.31,-128.32 406.5,-110 455.81,-93.02 514.09,-81.11 555.89,-73.92"/>
<polygon fill="#63b8ff" stroke="#63b8ff" points="556.6,-77.35 565.87,-72.23 555.43,-70.44 556.6,-77.35"/>
</a>
</g>
</g>
<!-- Node11&#45;&gt;Node12 -->
<g id="edge17_Node000011_Node000012" class="edge">
<title>Node11&#45;&gt;Node12</title>
<g id="a_edge17_Node000011_Node000012"><a xlink:title=" ">
<path fill="none" stroke="#63b8ff" d="M232.48,-219.98C256,-211.27 292.79,-197.63 319.44,-187.75"/>
<polygon fill="#63b8ff" stroke="#63b8ff" points="320.95,-190.93 329.11,-184.17 318.51,-184.36 320.95,-190.93"/>
</a>
</g>
</g>
<!-- Node12&#45;&gt;Node4 -->
<g id="edge18_Node000012_Node000004" class="edge">
<title>Node12&#45;&gt;Node4</title>
<g id="a_edge18_Node000012_Node000004"><a xlink:title=" ">
<path fill="none" stroke="#63b8ff" d="M362.02,-164.76C377.4,-151.11 409.13,-124.76 440.5,-110 477.26,-92.7 521.74,-81.39 556.13,-74.51"/>
<polygon fill="#63b8ff" stroke="#63b8ff" points="556.85,-77.93 566,-72.59 555.52,-71.06 556.85,-77.93"/>
</a>
</g>
</g>
<!-- Node12&#45;&gt;Node10 -->
<g id="edge19_Node000012_Node000010" class="edge">
<title>Node12&#45;&gt;Node10</title>
<g id="a_edge19_Node000012_Node000010"><a xlink:title=" ">
<path fill="none" stroke="#63b8ff" d="M328.08,-164.98C302.78,-156.16 263.05,-142.31 234.64,-132.41"/>
<polygon fill="#63b8ff" stroke="#63b8ff" points="235.71,-129.07 225.11,-129.08 233.4,-135.68 235.71,-129.07"/>
</a>
</g>
</g>
<!-- Node13&#45;&gt;Node4 -->
<g id="edge22_Node000013_Node000004" class="edge">
<title>Node13&#45;&gt;Node4</title>
<g id="a_edge22_Node000013_Node000004"><a xlink:title=" ">
<path fill="none" stroke="#63b8ff" d="M358.41,-219.9C388.43,-199.98 465.39,-149.4 531.5,-110 549.59,-99.22 570.38,-87.68 586.24,-79.05"/>
<polygon fill="#63b8ff" stroke="#63b8ff" points="588.28,-81.93 595.4,-74.09 584.94,-75.77 588.28,-81.93"/>
</a>
</g>
</g>
<!-- Node13&#45;&gt;Node12 -->
<g id="edge23_Node000013_Node000012" class="edge">
<title>Node13&#45;&gt;Node12</title>
<g id="a_edge23_Node000013_Node000012"><a xlink:title=" ">
<path fill="none" stroke="#63b8ff" d="M346.66,-219.75C347.57,-212.8 348.89,-202.85 350.04,-194.13"/>
<polygon fill="#63b8ff" stroke="#63b8ff" points="353.53,-194.46 351.37,-184.09 346.59,-193.54 353.53,-194.46"/>
</a>
</g>
</g>
<!-- Node14&#45;&gt;Node4 -->
<g id="edge25_Node000014_Node000004" class="edge">
<title>Node14&#45;&gt;Node4</title>
<g id="a_edge25_Node000014_Node000004"><a xlink:title=" ">
<path fill="none" stroke="#63b8ff" d="M611.5,-109.75C611.5,-102.8 611.5,-92.85 611.5,-84.13"/>
<polygon fill="#63b8ff" stroke="#63b8ff" points="615,-84.09 611.5,-74.09 608,-84.09 615,-84.09"/>
</a>
</g>
</g>
<!-- Node15&#45;&gt;Node4 -->
<g id="edge27_Node000015_Node000004" class="edge">
<title>Node15&#45;&gt;Node4</title>
<g id="a_edge27_Node000015_Node000004"><a xlink:title=" ">
<path fill="none" stroke="#63b8ff" d="M702.36,-164.69C692.22,-152.27 672.91,-128.98 655.5,-110 646.6,-100.29 636.26,-89.8 627.84,-81.44"/>
<polygon fill="#63b8ff" stroke="#63b8ff" points="630.04,-78.7 620.46,-74.18 625.13,-83.69 630.04,-78.7"/>
</a>
</g>
</g>
<!-- Node17&#45;&gt;Node4 -->
<g id="edge30_Node000017_Node000004" class="edge">
<title>Node17&#45;&gt;Node4</title>
<g id="a_edge30_Node000017_Node000004"><a xlink:title=" ">
<path fill="none" stroke="#63b8ff" d="M738.24,-109.98C713.18,-101.19 673.87,-87.39 645.67,-77.49"/>
<polygon fill="#63b8ff" stroke="#63b8ff" points="646.8,-74.18 636.2,-74.17 644.48,-80.78 646.8,-74.18"/>
</a>
</g>
</g>
<!-- Node18&#45;&gt;Node4 -->
<g id="edge32_Node000018_Node000004" class="edge">
<title>Node18&#45;&gt;Node4</title>
<g id="a_edge32_Node000018_Node000004"><a xlink:title=" ">
<path fill="none" stroke="#63b8ff" d="M444.45,-219.8C462.99,-199.68 510.83,-148.71 554.5,-110 566.21,-99.62 580.04,-88.79 591.14,-80.42"/>
<polygon fill="#63b8ff" stroke="#63b8ff" points="593.44,-83.07 599.36,-74.29 589.25,-77.46 593.44,-83.07"/>
</a>
</g>
</g>
<!-- Node18&#45;&gt;Node12 -->
<g id="edge33_Node000018_Node000012" class="edge">
<title>Node18&#45;&gt;Node12</title>
<g id="a_edge33_Node000018_Node000012"><a xlink:title=" ">
<path fill="none" stroke="#63b8ff" d="M423,-219.98C410.1,-211.84 390.4,-199.41 375.1,-189.76"/>
<polygon fill="#63b8ff" stroke="#63b8ff" points="376.57,-186.55 366.24,-184.17 372.83,-192.47 376.57,-186.55"/>
</a>
</g>
</g>
<!-- Node22 -->
<g id="Node000022" class="node">
<title>Node22</title>
<g id="a_Node000022"><a xlink:href="gbi_8h.html" target="_top" xlink:title=" ">
<polygon fill="white" stroke="#666666" points="1271.5,-129 1215.5,-129 1215.5,-110 1271.5,-110 1271.5,-129"/>
<text text-anchor="middle" x="1243.5" y="-117" font-family="Helvetica,sans-Serif" font-size="10.00">PR/gbi.h</text>
</a>
</g>
</g>
<!-- Node21&#45;&gt;Node22 -->
<g id="edge37_Node000021_Node000022" class="edge">
<title>Node21&#45;&gt;Node22</title>
<g id="a_edge37_Node000021_Node000022"><a xlink:title=" ">
<path fill="none" stroke="#63b8ff" d="M1246,-164.75C1245.61,-157.8 1245.05,-147.85 1244.55,-139.13"/>
<polygon fill="#63b8ff" stroke="#63b8ff" points="1248.05,-138.88 1243.99,-129.09 1241.06,-139.27 1248.05,-138.88"/>
</a>
</g>
</g>
<!-- Node23 -->
<g id="Node000023" class="node">
<title>Node23</title>
<g id="a_Node000023"><a xlink:href="abi_8h.html" target="_top" xlink:title=" ">
<polygon fill="white" stroke="#666666" points="1190.5,-129 1134.5,-129 1134.5,-110 1190.5,-110 1190.5,-129"/>
<text text-anchor="middle" x="1162.5" y="-117" font-family="Helvetica,sans-Serif" font-size="10.00">PR/abi.h</text>
</a>
</g>
</g>
<!-- Node21&#45;&gt;Node23 -->
<g id="edge39_Node000021_Node000023" class="edge">
<title>Node21&#45;&gt;Node23</title>
<g id="a_edge39_Node000021_Node000023"><a xlink:title=" ">
<path fill="none" stroke="#63b8ff" d="M1233,-164.98C1220.1,-156.84 1200.4,-144.41 1185.1,-134.76"/>
<polygon fill="#63b8ff" stroke="#63b8ff" points="1186.57,-131.55 1176.24,-129.17 1182.83,-137.47 1186.57,-131.55"/>
</a>
</g>
</g>
<!-- Node22&#45;&gt;Node4 -->
<g id="edge38_Node000022_Node000004" class="edge">
<title>Node22&#45;&gt;Node4</title>
<g id="a_edge38_Node000022_Node000004"><a xlink:title=" ">
<path fill="none" stroke="#63b8ff" d="M1215.18,-112.53C1209.98,-111.58 1204.59,-110.68 1199.5,-110 1004.82,-83.92 771.68,-71.94 667.07,-67.57"/>
<polygon fill="#63b8ff" stroke="#63b8ff" points="667.19,-64.07 657.06,-67.16 666.91,-71.06 667.19,-64.07"/>
</a>
</g>
</g>
<!-- Node24&#45;&gt;Node4 -->
<g id="edge41_Node000024_Node000004" class="edge">
<title>Node24&#45;&gt;Node4</title>
<g id="a_edge41_Node000024_Node000004"><a xlink:title=" ">
<path fill="none" stroke="#63b8ff" d="M536.19,-219.87C538.14,-199.48 545.03,-147.2 566.5,-110 572.98,-98.78 583.03,-88.46 592,-80.58"/>
<polygon fill="#63b8ff" stroke="#63b8ff" points="594.35,-83.18 599.79,-74.08 589.87,-77.8 594.35,-83.18"/>
</a>
</g>
</g>
<!-- Node24&#45;&gt;Node12 -->
<g id="edge42_Node000024_Node000012" class="edge">
<title>Node24&#45;&gt;Node12</title>
<g id="a_edge42_Node000024_Node000012"><a xlink:title=" ">
<path fill="none" stroke="#63b8ff" d="M506.1,-219.98C475.11,-211.01 426.12,-196.82 391.83,-186.89"/>
<polygon fill="#63b8ff" stroke="#63b8ff" points="392.71,-183.5 382.13,-184.08 390.76,-190.23 392.71,-183.5"/>
</a>
</g>
</g>
<!-- Node25&#45;&gt;Node4 -->
<g id="edge44_Node000025_Node000004" class="edge">
<title>Node25&#45;&gt;Node4</title>
<g id="a_edge44_Node000025_Node000004"><a xlink:title=" ">
<path fill="none" stroke="#63b8ff" d="M849.99,-111.3C802.5,-102.18 720.32,-86.4 665.93,-75.95"/>
<polygon fill="#63b8ff" stroke="#63b8ff" points="666.25,-72.45 655.77,-74 664.93,-79.33 666.25,-72.45"/>
</a>
</g>
</g>
<!-- Node26&#45;&gt;Node4 -->
<g id="edge47_Node000026_Node000004" class="edge">
<title>Node26&#45;&gt;Node4</title>
<g id="a_edge47_Node000026_Node000004"><a xlink:title=" ">
<path fill="none" stroke="#63b8ff" d="M1424.12,-219.62C1424.57,-206.25 1423.48,-180.84 1410.5,-165 1370.75,-116.47 1341.54,-124.51 1280.5,-110 1164.61,-82.46 806.42,-70.51 667.43,-66.83"/>
<polygon fill="#63b8ff" stroke="#63b8ff" points="667.11,-63.32 657.02,-66.56 666.93,-70.32 667.11,-63.32"/>
</a>
</g>
</g>
<!-- Node26&#45;&gt;Node21 -->
<g id="edge46_Node000026_Node000021" class="edge">
<title>Node26&#45;&gt;Node21</title>
<g id="a_edge46_Node000026_Node000021"><a xlink:title=" ">
<path fill="none" stroke="#63b8ff" d="M1396.62,-220.45C1366.91,-211.55 1318.8,-197.15 1285.07,-187.05"/>
<polygon fill="#63b8ff" stroke="#63b8ff" points="1285.69,-183.58 1275.11,-184.07 1283.68,-190.29 1285.69,-183.58"/>
</a>
</g>
</g>
<!-- Node27 -->
<g id="Node000027" class="node">
<title>Node27</title>
<g id="a_Node000027"><a xlink:href="common__structs_8h.html" target="_top" xlink:title=" ">
<polygon fill="white" stroke="#666666" points="1402,-184 1295,-184 1295,-165 1402,-165 1402,-184"/>
<text text-anchor="middle" x="1348.5" y="-172" font-family="Helvetica,sans-Serif" font-size="10.00">common_structs.h</text>
</a>
</g>
</g>
<!-- Node26&#45;&gt;Node27 -->
<g id="edge48_Node000026_Node000027" class="edge">
<title>Node26&#45;&gt;Node27</title>
<g id="a_edge48_Node000026_Node000027"><a xlink:title=" ">
<path fill="none" stroke="#63b8ff" d="M1411.45,-219.98C1400.04,-211.92 1382.67,-199.65 1369.07,-190.03"/>
<polygon fill="#63b8ff" stroke="#63b8ff" points="1370.96,-187.08 1360.77,-184.17 1366.92,-192.8 1370.96,-187.08"/>
</a>
</g>
</g>
<!-- Node27&#45;&gt;Node2 -->
<g id="edge49_Node000027_Node000002" class="edge">
<title>Node27&#45;&gt;Node2</title>
<g id="a_edge49_Node000027_Node000002"><a xlink:title=" ">
<path fill="none" stroke="#63b8ff" d="M1351.95,-184.19C1356.69,-197.78 1363.21,-224.04 1349.5,-239 1317.98,-273.39 995.15,-281.3 880.02,-283.04"/>
<polygon fill="#63b8ff" stroke="#63b8ff" points="879.81,-279.54 869.86,-283.18 879.91,-286.54 879.81,-279.54"/>
</a>
</g>
</g>
<!-- Node28&#45;&gt;Node4 -->
<g id="edge51_Node000028_Node000004" class="edge">
<title>Node28&#45;&gt;Node4</title>
<g id="a_edge51_Node000028_Node000004"><a xlink:title=" ">
<path fill="none" stroke="#63b8ff" d="M1018.81,-164.79C1002.51,-150.69 967.99,-123.11 933.5,-110 844.5,-76.17 732.94,-67.6 667.22,-65.69"/>
<polygon fill="#63b8ff" stroke="#63b8ff" points="667.16,-62.19 657.08,-65.44 666.99,-69.19 667.16,-62.19"/>
</a>
</g>
</g>
<!-- Node29&#45;&gt;Node23 -->
<g id="edge53_Node000029_Node000023" class="edge">
<title>Node29&#45;&gt;Node23</title>
<g id="a_edge53_Node000029_Node000023"><a xlink:title=" ">
<path fill="none" stroke="#63b8ff" d="M1159.16,-164.75C1159.68,-157.8 1160.44,-147.85 1161.09,-139.13"/>
<polygon fill="#63b8ff" stroke="#63b8ff" points="1164.59,-139.32 1161.85,-129.09 1157.61,-138.8 1164.59,-139.32"/>
</a>
</g>
</g>
<!-- Node34 -->
<g id="Node000034" class="node">
<title>Node34</title>
<g id="a_Node000034"><a xlink:href="config_8h.html" target="_top" xlink:title=" ">
<polygon fill="white" stroke="#666666" points="1616,-239 1561,-239 1561,-220 1616,-220 1616,-239"/>
<text text-anchor="middle" x="1588.5" y="-227" font-family="Helvetica,sans-Serif" font-size="10.00">config.h</text>
</a>
</g>
</g>
<!-- Node33&#45;&gt;Node34 -->
<g id="edge59_Node000033_Node000034" class="edge">
<title>Node33&#45;&gt;Node34</title>
<g id="a_edge59_Node000033_Node000034"><a xlink:title=" ">
<path fill="none" stroke="#63b8ff" d="M1588.5,-274.75C1588.5,-267.8 1588.5,-257.85 1588.5,-249.13"/>
<polygon fill="#63b8ff" stroke="#63b8ff" points="1592,-249.09 1588.5,-239.09 1585,-249.09 1592,-249.09"/>
</a>
</g>
</g>
</g>
</svg>
