<?xml version="1.0" encoding="UTF-8" standalone="no"?>
<!DOCTYPE svg PUBLIC "-//W3C//DTD SVG 1.1//EN"
 "http://www.w3.org/Graphics/SVG/1.1/DTD/svg11.dtd">
<!-- Generated by graphviz version 2.43.0 (0)
 -->
<!-- Title: discard_bank Pages: 1 -->
<svg width="421pt" height="101pt"
 viewBox="0.00 0.00 421.00 101.00" xmlns="http://www.w3.org/2000/svg" xmlns:xlink="http://www.w3.org/1999/xlink">
<g id="graph0" class="graph" transform="scale(1 1) rotate(0) translate(4 97)">
<title>discard_bank</title>
<!-- Node1 -->
<g id="Node000001" class="node">
<title>Node1</title>
<g id="a_Node000001"><a xlink:title=" ">
<polygon fill="#999999" stroke="#666666" points="81,-56 0,-56 0,-37 81,-37 81,-56"/>
<text text-anchor="middle" x="40.5" y="-44" font-family="Helvetica,sans-Serif" font-size="10.00">discard_bank</text>
</a>
</g>
</g>
<!-- Node2 -->
<g id="Node000002" class="node">
<title>Node2</title>
<g id="a_Node000002"><a xlink:href="seqplayer_8c.html#ad6bdf40a669a4ec92be6fb203b2abf0a" target="_top" xlink:title=" ">
<polygon fill="white" stroke="#666666" points="238,-93 117,-93 117,-74 238,-74 238,-93"/>
<text text-anchor="middle" x="177.5" y="-81" font-family="Helvetica,sans-Serif" font-size="10.00">audio_list_push_back</text>
</a>
</g>
</g>
<!-- Node1&#45;&gt;Node2 -->
<g id="edge1_Node000001_Node000002" class="edge">
<title>Node1&#45;&gt;Node2</title>
<g id="a_edge1_Node000001_Node000002"><a xlink:title=" ">
<path fill="none" stroke="#63b8ff" d="M76.27,-56.03C93.14,-60.65 113.62,-66.27 131.65,-71.21"/>
<polygon fill="#63b8ff" stroke="#63b8ff" points="130.81,-74.61 141.38,-73.88 132.66,-67.86 130.81,-74.61"/>
</a>
</g>
</g>
<!-- Node3 -->
<g id="Node000003" class="node">
<title>Node3</title>
<g id="a_Node000003"><a xlink:href="playback_8c.html#a1a384aa226aef66cdab12750f1fde133" target="_top" xlink:title=" ">
<polygon fill="white" stroke="#666666" points="231,-56 124,-56 124,-37 231,-37 231,-56"/>
<text text-anchor="middle" x="177.5" y="-44" font-family="Helvetica,sans-Serif" font-size="10.00">audio_list_remove</text>
</a>
</g>
</g>
<!-- Node1&#45;&gt;Node3 -->
<g id="edge2_Node000001_Node000003" class="edge">
<title>Node1&#45;&gt;Node3</title>
<g id="a_edge2_Node000001_Node000003"><a xlink:title=" ">
<path fill="none" stroke="#63b8ff" d="M81.27,-46.5C91.52,-46.5 102.79,-46.5 113.89,-46.5"/>
<polygon fill="#63b8ff" stroke="#63b8ff" points="113.99,-50 123.99,-46.5 113.99,-43 113.99,-50"/>
</a>
</g>
</g>
<!-- Node4 -->
<g id="Node000004" class="node">
<title>Node4</title>
<g id="a_Node000004"><a xlink:href="playback_8c.html#ab1a60ae60a667dbe83002a56fb1d4656" target="_top" xlink:title=" ">
<polygon fill="white" stroke="#666666" points="217,-19 138,-19 138,0 217,0 217,-19"/>
<text text-anchor="middle" x="177.5" y="-7" font-family="Helvetica,sans-Serif" font-size="10.00">note_disable</text>
</a>
</g>
</g>
<!-- Node1&#45;&gt;Node4 -->
<g id="edge3_Node000001_Node000004" class="edge">
<title>Node1&#45;&gt;Node4</title>
<g id="a_edge3_Node000001_Node000004"><a xlink:title=" ">
<path fill="none" stroke="#63b8ff" d="M76.27,-36.97C93.14,-32.35 113.62,-26.73 131.65,-21.79"/>
<polygon fill="#63b8ff" stroke="#63b8ff" points="132.66,-25.14 141.38,-19.12 130.81,-18.39 132.66,-25.14"/>
</a>
</g>
</g>
<!-- Node5 -->
<g id="Node000005" class="node">
<title>Node5</title>
<g id="a_Node000005"><a xlink:href="playback_8c.html#a281646ee32b4a0af33bcb1e95afd624e" target="_top" xlink:title=" ">
<polygon fill="white" stroke="#666666" points="413,-19 274,-19 274,0 413,0 413,-19"/>
<text text-anchor="middle" x="343.5" y="-7" font-family="Helvetica,sans-Serif" font-size="10.00">note_set_vel_pan_reverb</text>
</a>
</g>
</g>
<!-- Node4&#45;&gt;Node5 -->
<g id="edge4_Node000004_Node000005" class="edge">
<title>Node4&#45;&gt;Node5</title>
<g id="a_edge4_Node000004_Node000005"><a xlink:title=" ">
<path fill="none" stroke="#63b8ff" d="M217.37,-9.5C231.2,-9.5 247.32,-9.5 263.29,-9.5"/>
<polygon fill="#63b8ff" stroke="#63b8ff" points="263.75,-13 273.75,-9.5 263.75,-6 263.75,-13"/>
</a>
</g>
</g>
</g>
</svg>
