<?xml version="1.0" encoding="UTF-8" standalone="no"?>
<!DOCTYPE svg PUBLIC "-//W3C//DTD SVG 1.1//EN"
 "http://www.w3.org/Graphics/SVG/1.1/DTD/svg11.dtd">
<!-- Generated by graphviz version 2.43.0 (0)
 -->
<!-- Title: func_80054938 Pages: 1 -->
<!--zoomable 296 -->
<svg id="main" version="1.1" xmlns="http://www.w3.org/2000/svg" xmlns:xlink="http://www.w3.org/1999/xlink" xml:space="preserve" onload="init(evt)">
<style type="text/css"><![CDATA[
.edge:hover path { stroke: red; }
.edge:hover polygon { stroke: red; fill: red; }
]]></style>
<script type="text/javascript"><![CDATA[
var edges = document.getElementsByTagName('g');
if (edges && edges.length) {
  for (var i=0;i<edges.length;i++) {
    if (edges[i].id.substr(0,4)=='edge') {
      edges[i].setAttribute('class','edge');
    }
  }
}
]]></script>
        <defs>
                <circle id="rim" cx="0" cy="0" r="7"/>
                <circle id="rim2" cx="0" cy="0" r="3.5"/>
                <g id="zoomPlus">
                        <use xlink:href="#rim" fill="#404040">
                                <set attributeName="fill" to="#808080" begin="zoomplus.mouseover" end="zoomplus.mouseout"/>
                        </use>
                        <path d="M-4,0h8M0,-4v8" fill="none" stroke="white" stroke-width="1.5" pointer-events="none"/>
                </g>
                <g id="zoomMin">
                        <use xlink:href="#rim" fill="#404040">
                                <set attributeName="fill" to="#808080" begin="zoomminus.mouseover" end="zoomminus.mouseout"/>
                        </use>
                        <path d="M-4,0h8" fill="none" stroke="white" stroke-width="1.5" pointer-events="none"/>
                </g>
                <g id="dirArrow">
                        <path fill="none" stroke="white" stroke-width="1.5" d="M0,-3.0v7 M-2.5,-0.5L0,-3.0L2.5,-0.5"/>
                </g>
               <g id="resetDef">
                       <use xlink:href="#rim2" fill="#404040">
                               <set attributeName="fill" to="#808080" begin="reset.mouseover" end="reset.mouseout"/>
                       </use>
               </g>
        </defs>

<script type="text/javascript">
var viewWidth = 961;
var viewHeight = 296;
var sectionId = 'dynsection-419';
</script>
<script xlink:href="svgpan.js"/>
<svg id="graph" class="graph">
<g id="viewport">
<title>func_80054938</title>
<polygon fill="white" stroke="transparent" points="-4,4 -4,-292 957,-292 957,4 -4,4"/>
<!-- Node1 -->
<g id="node1" class="node">
<title>Node1</title>
<g id="a_node1"><a xlink:title=" ">
<polygon fill="#bfbfbf" stroke="black" points="0,-143 0,-162 91,-162 91,-143 0,-143"/>
<text text-anchor="middle" x="45.5" y="-150" font-family="Helvetica,sans-Serif" font-size="10.00">func_80054938</text>
</a>
</g>
</g>
<!-- Node2 -->
<g id="node2" class="node">
<title>Node2</title>
<g id="a_node2"><a xlink:href="hud__renderer_8c.html#adc562f0a231c2d09f6d99dd082eacef1" target="_top" xlink:title=" ">
<polygon fill="white" stroke="black" points="143,-219 143,-238 235,-238 235,-219 143,-219"/>
<text text-anchor="middle" x="189" y="-226" font-family="Helvetica,sans-Serif" font-size="10.00">func_8004477C</text>
</a>
</g>
</g>
<!-- Node1&#45;&gt;Node2 -->
<g id="edge1" class="edge">
<title>Node1&#45;&gt;Node2</title>
<path fill="none" stroke="midnightblue" d="M57.51,-162.02C72.38,-174.46 100.13,-196.22 127,-209.5 131.54,-211.75 136.41,-213.8 141.34,-215.65"/>
<polygon fill="midnightblue" stroke="midnightblue" points="140.23,-218.97 150.82,-218.96 142.54,-212.36 140.23,-218.97"/>
</g>
<!-- Node3 -->
<g id="node3" class="node">
<title>Node3</title>
<g id="a_node3"><a xlink:href="hud__renderer_8c.html#a96e9d0f1c39751cc18e6a5adfbe393bf" target="_top" xlink:title=" ">
<polygon fill="white" stroke="black" points="143,-181 143,-200 235,-200 235,-181 143,-181"/>
<text text-anchor="middle" x="189" y="-188" font-family="Helvetica,sans-Serif" font-size="10.00">func_8004B72C</text>
</a>
</g>
</g>
<!-- Node1&#45;&gt;Node3 -->
<g id="edge2" class="edge">
<title>Node1&#45;&gt;Node3</title>
<path fill="none" stroke="midnightblue" d="M82.21,-162.09C100.47,-166.99 122.91,-173.02 142.41,-178.26"/>
<polygon fill="midnightblue" stroke="midnightblue" points="141.74,-181.7 152.3,-180.91 143.55,-174.94 141.74,-181.7"/>
</g>
<!-- Node4 -->
<g id="node4" class="node">
<title>Node4</title>
<g id="a_node4"><a xlink:href="hud__renderer_8c.html#ab2b16756177e01249f455ac1e7cf3d4e" target="_top" xlink:title=" ">
<polygon fill="white" stroke="black" points="143,-83 143,-102 235,-102 235,-83 143,-83"/>
<text text-anchor="middle" x="189" y="-90" font-family="Helvetica,sans-Serif" font-size="10.00">func_8005477C</text>
</a>
</g>
</g>
<!-- Node1&#45;&gt;Node4 -->
<g id="edge3" class="edge">
<title>Node1&#45;&gt;Node4</title>
<path fill="none" stroke="midnightblue" d="M68.92,-142.99C92.38,-133.05 129.42,-117.34 155.96,-106.09"/>
<polygon fill="midnightblue" stroke="midnightblue" points="157.38,-109.29 165.22,-102.16 154.64,-102.84 157.38,-109.29"/>
</g>
<!-- Node15 -->
<g id="node15" class="node">
<title>Node15</title>
<g id="a_node15"><a xlink:href="code__80086E70_8c.html#a364496b44c479b8d7937d98d2283c89e" target="_top" xlink:title=" ">
<polygon fill="white" stroke="black" points="143,-143 143,-162 235,-162 235,-143 143,-143"/>
<text text-anchor="middle" x="189" y="-150" font-family="Helvetica,sans-Serif" font-size="10.00">func_8008A364</text>
</a>
</g>
</g>
<!-- Node1&#45;&gt;Node15 -->
<g id="edge14" class="edge">
<title>Node1&#45;&gt;Node15</title>
<path fill="none" stroke="midnightblue" d="M91.27,-152.5C104.3,-152.5 118.7,-152.5 132.32,-152.5"/>
<polygon fill="midnightblue" stroke="midnightblue" points="132.55,-156 142.55,-152.5 132.55,-149 132.55,-156"/>
</g>
<!-- Node21 -->
<g id="node21" class="node">
<title>Node21</title>
<g id="a_node21"><a xlink:href="code__80071F00_8c.html#a5d62494ea345d5a576d4440772111136" target="_top" xlink:title=" ">
<polygon fill="white" stroke="black" points="127,-33.5 127,-63.5 251,-63.5 251,-33.5 127,-33.5"/>
<text text-anchor="start" x="135" y="-51.5" font-family="Helvetica,sans-Serif" font-size="10.00">is_obj_index_flag_unk</text>
<text text-anchor="middle" x="189" y="-40.5" font-family="Helvetica,sans-Serif" font-size="10.00">_054_active</text>
</a>
</g>
</g>
<!-- Node1&#45;&gt;Node21 -->
<g id="edge21" class="edge">
<title>Node1&#45;&gt;Node21</title>
<path fill="none" stroke="midnightblue" d="M54.23,-142.77C67.56,-126.51 96.42,-93.64 127,-73.5 129.91,-71.58 132.99,-69.77 136.15,-68.06"/>
<polygon fill="midnightblue" stroke="midnightblue" points="137.86,-71.12 145.24,-63.53 134.73,-64.86 137.86,-71.12"/>
</g>
<!-- Node5 -->
<g id="node5" class="node">
<title>Node5</title>
<g id="a_node5"><a xlink:href="math__util__2_8c.html#a99d173c040cb4a9d0184df2605d71e32" target="_top" xlink:title=" ">
<polygon fill="white" stroke="black" points="493.5,-83 493.5,-102 585.5,-102 585.5,-83 493.5,-83"/>
<text text-anchor="middle" x="539.5" y="-90" font-family="Helvetica,sans-Serif" font-size="10.00">func_800418AC</text>
</a>
</g>
</g>
<!-- Node4&#45;&gt;Node5 -->
<g id="edge4" class="edge">
<title>Node4&#45;&gt;Node5</title>
<path fill="none" stroke="midnightblue" d="M235.2,-92.5C298.79,-92.5 414.55,-92.5 483.19,-92.5"/>
<polygon fill="midnightblue" stroke="midnightblue" points="483.38,-96 493.38,-92.5 483.38,-89 483.38,-96"/>
</g>
<!-- Node8 -->
<g id="node8" class="node">
<title>Node8</title>
<g id="a_node8"><a xlink:href="hud__renderer_8c.html#abfc36be592b2cbf423febe66fa12ec34" target="_top" xlink:title=" ">
<polygon fill="white" stroke="black" points="307.5,-45 307.5,-64 399.5,-64 399.5,-45 307.5,-45"/>
<text text-anchor="middle" x="353.5" y="-52" font-family="Helvetica,sans-Serif" font-size="10.00">func_800431B0</text>
</a>
</g>
</g>
<!-- Node4&#45;&gt;Node8 -->
<g id="edge7" class="edge">
<title>Node4&#45;&gt;Node8</title>
<path fill="none" stroke="midnightblue" d="M231.01,-82.91C252.55,-77.87 279.13,-71.66 301.94,-66.32"/>
<polygon fill="midnightblue" stroke="midnightblue" points="302.85,-69.71 311.79,-64.02 301.25,-62.89 302.85,-69.71"/>
</g>
<!-- Node14 -->
<g id="node14" class="node">
<title>Node14</title>
<g id="a_node14"><a xlink:href="hud__renderer_8c.html#a0176ac6600444525b2d02772648b5f56" target="_top" xlink:title=" ">
<polygon fill="white" stroke="black" points="307.5,-7 307.5,-26 399.5,-26 399.5,-7 307.5,-7"/>
<text text-anchor="middle" x="353.5" y="-14" font-family="Helvetica,sans-Serif" font-size="10.00">func_8004B1C8</text>
</a>
</g>
</g>
<!-- Node4&#45;&gt;Node14 -->
<g id="edge13" class="edge">
<title>Node4&#45;&gt;Node14</title>
<path fill="none" stroke="midnightblue" d="M230.98,-82.92C237.94,-80.41 244.88,-77.31 251,-73.5 270.75,-61.2 267.13,-47.61 287,-35.5 290.43,-33.41 294.1,-31.54 297.88,-29.87"/>
<polygon fill="midnightblue" stroke="midnightblue" points="299.43,-33.02 307.46,-26.11 296.88,-26.51 299.43,-33.02"/>
</g>
<!-- Node6 -->
<g id="node6" class="node">
<title>Node6</title>
<g id="a_node6"><a xlink:href="math__util_8c.html#aaa39a297477f56051975259f4bddd829" target="_top" xlink:title=" ">
<polygon fill="white" stroke="black" points="722,-116 722,-135 772,-135 772,-116 722,-116"/>
<text text-anchor="middle" x="747" y="-123" font-family="Helvetica,sans-Serif" font-size="10.00">atan2s</text>
</a>
</g>
</g>
<!-- Node5&#45;&gt;Node6 -->
<g id="edge5" class="edge">
<title>Node5&#45;&gt;Node6</title>
<path fill="none" stroke="midnightblue" d="M585.6,-99.74C623.61,-105.85 677.18,-114.45 711.75,-120"/>
<polygon fill="midnightblue" stroke="midnightblue" points="711.41,-123.49 721.83,-121.62 712.52,-116.58 711.41,-123.49"/>
</g>
<!-- Node7 -->
<g id="node7" class="node">
<title>Node7</title>
<g id="a_node7"><a xlink:href="math__util_8c.html#a0273b0ea0783a06996c28669a7438ed9" target="_top" xlink:title=" ">
<polygon fill="white" stroke="black" points="871,-116 871,-135 953,-135 953,-116 871,-116"/>
<text text-anchor="middle" x="912" y="-123" font-family="Helvetica,sans-Serif" font-size="10.00">atan2_lookup</text>
</a>
</g>
</g>
<!-- Node6&#45;&gt;Node7 -->
<g id="edge6" class="edge">
<title>Node6&#45;&gt;Node7</title>
<path fill="none" stroke="midnightblue" d="M772.05,-125.5C795.26,-125.5 831.12,-125.5 860.6,-125.5"/>
<polygon fill="midnightblue" stroke="midnightblue" points="860.72,-129 870.72,-125.5 860.72,-122 860.72,-129"/>
</g>
<!-- Node9 -->
<g id="node9" class="node">
<title>Node9</title>
<g id="a_node9"><a xlink:href="math__util__2_8c.html#a2eff0e02deb703653ee3230fbc02eb14" target="_top" xlink:title="set the matrix to a transformation matrix">
<polygon fill="white" stroke="black" points="456,-45 456,-64 623,-64 623,-45 456,-45"/>
<text text-anchor="middle" x="539.5" y="-52" font-family="Helvetica,sans-Serif" font-size="10.00">rsp_set_matrix_transformation</text>
</a>
</g>
</g>
<!-- Node8&#45;&gt;Node9 -->
<g id="edge8" class="edge">
<title>Node8&#45;&gt;Node9</title>
<path fill="none" stroke="midnightblue" d="M399.51,-54.5C413.61,-54.5 429.72,-54.5 445.85,-54.5"/>
<polygon fill="midnightblue" stroke="midnightblue" points="445.89,-58 455.89,-54.5 445.89,-51 445.89,-58"/>
</g>
<!-- Node10 -->
<g id="node10" class="node">
<title>Node10</title>
<g id="a_node10"><a xlink:href="code__8001F980_8c.html#af0bbe78d8dc64400663d3702812f9ad8" target="_top" xlink:title=" ">
<polygon fill="white" stroke="black" points="683.5,-0.5 683.5,-30.5 810.5,-30.5 810.5,-0.5 683.5,-0.5"/>
<text text-anchor="start" x="691.5" y="-18.5" font-family="Helvetica,sans-Serif" font-size="10.00">convert_to_fixed_point</text>
<text text-anchor="middle" x="747" y="-7.5" font-family="Helvetica,sans-Serif" font-size="10.00">_matrix</text>
</a>
</g>
</g>
<!-- Node9&#45;&gt;Node10 -->
<g id="edge9" class="edge">
<title>Node9&#45;&gt;Node10</title>
<path fill="none" stroke="midnightblue" d="M590.77,-44.96C615.64,-40.24 646.12,-34.46 673.46,-29.27"/>
<polygon fill="midnightblue" stroke="midnightblue" points="674.2,-32.69 683.38,-27.38 672.9,-25.81 674.2,-32.69"/>
</g>
<!-- Node11 -->
<g id="node11" class="node">
<title>Node11</title>
<g id="a_node11"><a xlink:href="math__util__2_8c.html#a88742c6110738fc1c35a57f50920a81f" target="_top" xlink:title=" ">
<polygon fill="white" stroke="black" points="659,-50 659,-69 835,-69 835,-50 659,-50"/>
<text text-anchor="middle" x="747" y="-57" font-family="Helvetica,sans-Serif" font-size="10.00">mtxf_set_matrix_transformation</text>
</a>
</g>
</g>
<!-- Node9&#45;&gt;Node11 -->
<g id="edge10" class="edge">
<title>Node9&#45;&gt;Node11</title>
<path fill="none" stroke="midnightblue" d="M623.2,-56.51C631.61,-56.72 640.22,-56.93 648.77,-57.13"/>
<polygon fill="midnightblue" stroke="midnightblue" points="648.69,-60.63 658.77,-57.38 648.86,-53.64 648.69,-60.63"/>
</g>
<!-- Node12 -->
<g id="node12" class="node">
<title>Node12</title>
<g id="a_node12"><a xlink:href="math__util_8c.html#ae69cbf5c8d4b3b0dba2d7b4d4673689f" target="_top" xlink:title=" ">
<polygon fill="white" stroke="black" points="893,-21 893,-40 931,-40 931,-21 893,-21"/>
<text text-anchor="middle" x="912" y="-28" font-family="Helvetica,sans-Serif" font-size="10.00">coss</text>
</a>
</g>
</g>
<!-- Node11&#45;&gt;Node12 -->
<g id="edge11" class="edge">
<title>Node11&#45;&gt;Node12</title>
<path fill="none" stroke="midnightblue" d="M801.82,-49.92C828.92,-45.1 860.64,-39.46 882.89,-35.5"/>
<polygon fill="midnightblue" stroke="midnightblue" points="883.76,-38.9 892.99,-33.7 882.53,-32.01 883.76,-38.9"/>
</g>
<!-- Node13 -->
<g id="node13" class="node">
<title>Node13</title>
<g id="a_node13"><a xlink:href="math__util_8c.html#a19ed3bd78fd2d3e2bd0a29f6caf48545" target="_top" xlink:title=" ">
<polygon fill="white" stroke="black" points="894,-59 894,-78 930,-78 930,-59 894,-59"/>
<text text-anchor="middle" x="912" y="-66" font-family="Helvetica,sans-Serif" font-size="10.00">sins</text>
</a>
</g>
</g>
<!-- Node11&#45;&gt;Node13 -->
<g id="edge12" class="edge">
<title>Node11&#45;&gt;Node13</title>
<path fill="none" stroke="midnightblue" d="M835.23,-64.32C852.91,-65.29 870.22,-66.25 883.83,-67"/>
<polygon fill="midnightblue" stroke="midnightblue" points="883.71,-70.5 893.88,-67.55 884.09,-63.51 883.71,-70.5"/>
</g>
<!-- Node16 -->
<g id="node16" class="node">
<title>Node16</title>
<g id="a_node16"><a xlink:href="code__80086E70_8c.html#a8b9297822d5c76ed2210ab884878bc1b" target="_top" xlink:title=" ">
<polygon fill="white" stroke="black" points="307.5,-121 307.5,-140 399.5,-140 399.5,-121 307.5,-121"/>
<text text-anchor="middle" x="353.5" y="-128" font-family="Helvetica,sans-Serif" font-size="10.00">func_8008A140</text>
</a>
</g>
</g>
<!-- Node15&#45;&gt;Node16 -->
<g id="edge15" class="edge">
<title>Node15&#45;&gt;Node16</title>
<path fill="none" stroke="midnightblue" d="M235.27,-146.37C254.55,-143.76 277.22,-140.69 297.46,-137.95"/>
<polygon fill="midnightblue" stroke="midnightblue" points="298.04,-141.41 307.48,-136.6 297.1,-134.47 298.04,-141.41"/>
</g>
<!-- Node18 -->
<g id="node18" class="node">
<title>Node18</title>
<g id="a_node18"><a xlink:href="code__80086E70_8c.html#abee4ac0bf830479754bf7a3054719714" target="_top" xlink:title="Returns the distance between the object and the camera.">
<polygon fill="white" stroke="black" points="287,-257.5 287,-287.5 420,-287.5 420,-257.5 287,-257.5"/>
<text text-anchor="start" x="295" y="-275.5" font-family="Helvetica,sans-Serif" font-size="10.00">get_horizontal_distance</text>
<text text-anchor="middle" x="353.5" y="-264.5" font-family="Helvetica,sans-Serif" font-size="10.00">_to_camera</text>
</a>
</g>
</g>
<!-- Node15&#45;&gt;Node18 -->
<g id="edge18" class="edge">
<title>Node15&#45;&gt;Node18</title>
<path fill="none" stroke="midnightblue" d="M235.26,-161.83C240.97,-164.32 246.4,-167.49 251,-171.5 279.46,-196.34 259.16,-222.96 287,-248.5 288.29,-249.68 289.64,-250.81 291.04,-251.88"/>
<polygon fill="midnightblue" stroke="midnightblue" points="289.28,-254.91 299.57,-257.43 293.1,-249.04 289.28,-254.91"/>
</g>
<!-- Node19 -->
<g id="node19" class="node">
<title>Node19</title>
<g id="a_node19"><a xlink:href="code__80071F00_8c.html#a9d0d6fe8e02dc86bf4f9f8c8214ee326" target="_top" xlink:title=" ">
<polygon fill="white" stroke="black" points="297,-208.5 297,-238.5 410,-238.5 410,-208.5 297,-208.5"/>
<text text-anchor="start" x="305" y="-226.5" font-family="Helvetica,sans-Serif" font-size="10.00">set_object_flag_unk</text>
<text text-anchor="middle" x="353.5" y="-215.5" font-family="Helvetica,sans-Serif" font-size="10.00">_054_false</text>
</a>
</g>
</g>
<!-- Node15&#45;&gt;Node19 -->
<g id="edge19" class="edge">
<title>Node15&#45;&gt;Node19</title>
<path fill="none" stroke="midnightblue" d="M228.27,-162.1C236,-164.68 243.92,-167.8 251,-171.5 268.97,-180.89 269.27,-189.67 287,-199.5 290.06,-201.2 293.26,-202.81 296.53,-204.35"/>
<polygon fill="midnightblue" stroke="midnightblue" points="295.33,-207.64 305.89,-208.46 298.15,-201.24 295.33,-207.64"/>
</g>
<!-- Node20 -->
<g id="node20" class="node">
<title>Node20</title>
<g id="a_node20"><a xlink:href="code__80071F00_8c.html#a946b33c1ed166b19b04e4528c3641b9a" target="_top" xlink:title=" ">
<polygon fill="white" stroke="black" points="297,-159.5 297,-189.5 410,-189.5 410,-159.5 297,-159.5"/>
<text text-anchor="start" x="305" y="-177.5" font-family="Helvetica,sans-Serif" font-size="10.00">set_object_flag_unk</text>
<text text-anchor="middle" x="353.5" y="-166.5" font-family="Helvetica,sans-Serif" font-size="10.00">_054_true</text>
</a>
</g>
</g>
<!-- Node15&#45;&gt;Node20 -->
<g id="edge20" class="edge">
<title>Node15&#45;&gt;Node20</title>
<path fill="none" stroke="midnightblue" d="M235.27,-158.63C251.2,-160.79 269.45,-163.26 286.73,-165.6"/>
<polygon fill="midnightblue" stroke="midnightblue" points="286.39,-169.08 296.77,-166.96 287.33,-162.15 286.39,-169.08"/>
</g>
<!-- Node17 -->
<g id="node17" class="node">
<title>Node17</title>
<g id="a_node17"><a xlink:href="math__util__2_8c.html#a10e63f3a453c537f806fbb5371bde67c" target="_top" xlink:title=" ">
<polygon fill="white" stroke="black" points="494,-121 494,-140 585,-140 585,-121 494,-121"/>
<text text-anchor="middle" x="539.5" y="-128" font-family="Helvetica,sans-Serif" font-size="10.00">func_80041770</text>
</a>
</g>
</g>
<!-- Node16&#45;&gt;Node17 -->
<g id="edge16" class="edge">
<title>Node16&#45;&gt;Node17</title>
<path fill="none" stroke="midnightblue" d="M399.51,-130.5C424.98,-130.5 457.02,-130.5 483.92,-130.5"/>
<polygon fill="midnightblue" stroke="midnightblue" points="483.95,-134 493.95,-130.5 483.95,-127 483.95,-134"/>
</g>
<!-- Node17&#45;&gt;Node6 -->
<g id="edge17" class="edge">
<title>Node17&#45;&gt;Node6</title>
<path fill="none" stroke="midnightblue" d="M585.09,-129.42C623.17,-128.49 677.15,-127.18 711.87,-126.33"/>
<polygon fill="midnightblue" stroke="midnightblue" points="712.08,-129.83 721.99,-126.08 711.91,-122.83 712.08,-129.83"/>
</g>
</g>
</svg>
        <g id="navigator" transform="translate(0 0)" fill="#404254">
                <rect fill="#f2f5e9" fill-opacity="0.5" stroke="#606060" stroke-width=".5" x="0" y="0" width="60" height="60"/>
                <use id="zoomplus" xlink:href="#zoomPlus" x="17" y="9" onmousedown="handleZoom(evt,'in')"/>
                <use id="zoomminus" xlink:href="#zoomMin" x="42" y="9" onmousedown="handleZoom(evt,'out')"/>
                <use id="reset" xlink:href="#resetDef" x="30" y="36" onmousedown="handleReset()"/>
                <g id="arrowUp" xlink:href="#dirArrow" transform="translate(30 24)" onmousedown="handlePan(0,-1)">
                  <use xlink:href="#rim" fill="#404040">
                        <set attributeName="fill" to="#808080" begin="arrowUp.mouseover" end="arrowUp.mouseout"/>
                  </use>
                  <path fill="none" stroke="white" stroke-width="1.5" d="M0,-3.0v7 M-2.5,-0.5L0,-3.0L2.5,-0.5"/>
                </g>
                <g id="arrowRight" xlink:href="#dirArrow" transform="rotate(90) translate(36 -43)" onmousedown="handlePan(1,0)">
                  <use xlink:href="#rim" fill="#404040">
                        <set attributeName="fill" to="#808080" begin="arrowRight.mouseover" end="arrowRight.mouseout"/>
                  </use>
                  <path fill="none" stroke="white" stroke-width="1.5" d="M0,-3.0v7 M-2.5,-0.5L0,-3.0L2.5,-0.5"/>
                </g>
                <g id="arrowDown" xlink:href="#dirArrow" transform="rotate(180) translate(-30 -48)" onmousedown="handlePan(0,1)">
                  <use xlink:href="#rim" fill="#404040">
                        <set attributeName="fill" to="#808080" begin="arrowDown.mouseover" end="arrowDown.mouseout"/>
                  </use>
                  <path fill="none" stroke="white" stroke-width="1.5" d="M0,-3.0v7 M-2.5,-0.5L0,-3.0L2.5,-0.5"/>
                </g>
                <g id="arrowLeft" xlink:href="#dirArrow" transform="rotate(270) translate(-36 17)" onmousedown="handlePan(-1,0)">
                  <use xlink:href="#rim" fill="#404040">
                        <set attributeName="fill" to="#808080" begin="arrowLeft.mouseover" end="arrowLeft.mouseout"/>
                  </use>
                  <path fill="none" stroke="white" stroke-width="1.5" d="M0,-3.0v7 M-2.5,-0.5L0,-3.0L2.5,-0.5"/>
                </g>
        </g>
        <svg viewBox="0 0 15 15" width="100%" height="30px" preserveAspectRatio="xMaxYMin meet">
         <g id="arrow_out" transform="scale(0.3 0.3)">
          <a xlink:href="hud__renderer_8c_a026ee5d79e81aae9d613c00dcdd68cdc_cgraph_org.svg" target="_base">
           <rect id="button" ry="5" rx="5" y="6" x="6" height="38" width="38"
                fill="#f2f5e9" fill-opacity="0.5" stroke="#606060" stroke-width="1.0"/>
           <path id="arrow"
             d="M 11.500037,31.436501 C 11.940474,20.09759 22.043105,11.32322 32.158766,21.979434 L 37.068811,17.246167 C 37.068811,17.246167 37.088388,32 37.088388,32 L 22.160133,31.978069 C 22.160133,31.978069 26.997745,27.140456 26.997745,27.140456 C 18.528582,18.264221 13.291696,25.230495 11.500037,31.436501 z"
             style="fill:#404040;"/>
          </a>
         </g>
        </svg>
</svg>
