<?xml version="1.0" encoding="UTF-8" standalone="no"?>
<!DOCTYPE svg PUBLIC "-//W3C//DTD SVG 1.1//EN"
 "http://www.w3.org/Graphics/SVG/1.1/DTD/svg11.dtd">
<!-- Generated by graphviz version 2.43.0 (0)
 -->
<!-- Title: func_80046720 Pages: 1 -->
<svg width="464pt" height="165pt"
 viewBox="0.00 0.00 464.00 164.50" xmlns="http://www.w3.org/2000/svg" xmlns:xlink="http://www.w3.org/1999/xlink">
<g id="graph0" class="graph" transform="scale(1 1) rotate(0) translate(4 160.5)">
<title>func_80046720</title>
<polygon fill="white" stroke="transparent" points="-4,4 -4,-160.5 460,-160.5 460,4 -4,4"/>
<!-- Node1 -->
<g id="node1" class="node">
<title>Node1</title>
<g id="a_node1"><a xlink:title=" ">
<polygon fill="#bfbfbf" stroke="black" points="0,-60.5 0,-79.5 91,-79.5 91,-60.5 0,-60.5"/>
<text text-anchor="middle" x="45.5" y="-67.5" font-family="Helvetica,sans-Serif" font-size="10.00">func_80046720</text>
</a>
</g>
</g>
<!-- Node2 -->
<g id="node2" class="node">
<title>Node2</title>
<g id="a_node2"><a xlink:href="math__util__2_8c.html#a22aa509214eeed1ba3197762e76d7bed" target="_top" xlink:title=" ">
<polygon fill="white" stroke="black" points="127.5,-82.5 127.5,-101.5 218.5,-101.5 218.5,-82.5 127.5,-82.5"/>
<text text-anchor="middle" x="173" y="-89.5" font-family="Helvetica,sans-Serif" font-size="10.00">func_80042330</text>
</a>
</g>
</g>
<!-- Node1&#45;&gt;Node2 -->
<g id="edge1" class="edge">
<title>Node1&#45;&gt;Node2</title>
<path fill="none" stroke="midnightblue" d="M91.1,-77.82C99.51,-79.29 108.39,-80.85 117.07,-82.37"/>
<polygon fill="midnightblue" stroke="midnightblue" points="116.67,-85.85 127.12,-84.13 117.88,-78.96 116.67,-85.85"/>
</g>
<!-- Node7 -->
<g id="node7" class="node">
<title>Node7</title>
<g id="a_node7"><a xlink:href="hud__renderer_8c.html#a3678659655705c880fd98522197e6909" target="_top" xlink:title=" ">
<polygon fill="white" stroke="black" points="127,-38.5 127,-57.5 219,-57.5 219,-38.5 127,-38.5"/>
<text text-anchor="middle" x="173" y="-45.5" font-family="Helvetica,sans-Serif" font-size="10.00">func_800461A4</text>
</a>
</g>
</g>
<!-- Node1&#45;&gt;Node7 -->
<g id="edge6" class="edge">
<title>Node1&#45;&gt;Node7</title>
<path fill="none" stroke="midnightblue" d="M91.1,-62.18C99.4,-60.73 108.17,-59.19 116.75,-57.68"/>
<polygon fill="midnightblue" stroke="midnightblue" points="117.45,-61.12 126.7,-55.94 116.24,-54.22 117.45,-61.12"/>
</g>
<!-- Node3 -->
<g id="node3" class="node">
<title>Node3</title>
<g id="a_node3"><a xlink:href="render__player_8c.html#af0bbe78d8dc64400663d3702812f9ad8" target="_top" xlink:title=" ">
<polygon fill="white" stroke="black" points="255,-126 255,-156 382,-156 382,-126 255,-126"/>
<text text-anchor="start" x="263" y="-144" font-family="Helvetica,sans-Serif" font-size="10.00">convert_to_fixed_point</text>
<text text-anchor="middle" x="318.5" y="-133" font-family="Helvetica,sans-Serif" font-size="10.00">_matrix</text>
</a>
</g>
</g>
<!-- Node2&#45;&gt;Node3 -->
<g id="edge2" class="edge">
<title>Node2&#45;&gt;Node3</title>
<path fill="none" stroke="midnightblue" d="M202.01,-101.56C219.62,-107.58 242.92,-115.53 263.98,-122.72"/>
<polygon fill="midnightblue" stroke="midnightblue" points="262.87,-126.04 273.46,-125.96 265.13,-119.42 262.87,-126.04"/>
</g>
<!-- Node4 -->
<g id="node4" class="node">
<title>Node4</title>
<g id="a_node4"><a xlink:href="math__util__2_8c.html#a54b1e79ca4e8d2f7f7256891f9c4e772" target="_top" xlink:title="arg1 and arg2 are s32&#39;s into floats?!?">
<polygon fill="white" stroke="black" points="255.5,-77 255.5,-107 381.5,-107 381.5,-77 255.5,-77"/>
<text text-anchor="start" x="263.5" y="-95" font-family="Helvetica,sans-Serif" font-size="10.00">mtxf_translation_x</text>
<text text-anchor="middle" x="318.5" y="-84" font-family="Helvetica,sans-Serif" font-size="10.00">_y_rotate_z_scale_x_y</text>
</a>
</g>
</g>
<!-- Node2&#45;&gt;Node4 -->
<g id="edge3" class="edge">
<title>Node2&#45;&gt;Node4</title>
<path fill="none" stroke="midnightblue" d="M218.62,-92C227.05,-92 236.06,-92 245.09,-92"/>
<polygon fill="midnightblue" stroke="midnightblue" points="245.26,-95.5 255.26,-92 245.26,-88.5 245.26,-95.5"/>
</g>
<!-- Node5 -->
<g id="node5" class="node">
<title>Node5</title>
<g id="a_node5"><a xlink:href="math__util_8c.html#ae69cbf5c8d4b3b0dba2d7b4d4673689f" target="_top" xlink:title=" ">
<polygon fill="white" stroke="black" points="418,-101.5 418,-120.5 456,-120.5 456,-101.5 418,-101.5"/>
<text text-anchor="middle" x="437" y="-108.5" font-family="Helvetica,sans-Serif" font-size="10.00">coss</text>
</a>
</g>
</g>
<!-- Node4&#45;&gt;Node5 -->
<g id="edge4" class="edge">
<title>Node4&#45;&gt;Node5</title>
<path fill="none" stroke="midnightblue" d="M381.5,-102.11C390.72,-103.62 399.81,-105.1 407.85,-106.41"/>
<polygon fill="midnightblue" stroke="midnightblue" points="407.3,-109.87 417.73,-108.02 408.43,-102.96 407.3,-109.87"/>
</g>
<!-- Node6 -->
<g id="node6" class="node">
<title>Node6</title>
<g id="a_node6"><a xlink:href="math__util_8c.html#a19ed3bd78fd2d3e2bd0a29f6caf48545" target="_top" xlink:title=" ">
<polygon fill="white" stroke="black" points="419,-63.5 419,-82.5 455,-82.5 455,-63.5 419,-63.5"/>
<text text-anchor="middle" x="437" y="-70.5" font-family="Helvetica,sans-Serif" font-size="10.00">sins</text>
</a>
</g>
</g>
<!-- Node4&#45;&gt;Node6 -->
<g id="edge5" class="edge">
<title>Node4&#45;&gt;Node6</title>
<path fill="none" stroke="midnightblue" d="M381.5,-81.89C391.02,-80.34 400.41,-78.8 408.64,-77.46"/>
<polygon fill="midnightblue" stroke="midnightblue" points="409.4,-80.88 418.71,-75.82 408.27,-73.98 409.4,-80.88"/>
</g>
<!-- Node8 -->
<g id="node8" class="node">
<title>Node8</title>
<g id="a_node8"><a xlink:href="hud__renderer_8c.html#aeff61707bfc3b382d5ac21a2980a9b6d" target="_top" xlink:title=" ">
<polygon fill="white" stroke="black" points="272.5,-38.5 272.5,-57.5 364.5,-57.5 364.5,-38.5 272.5,-38.5"/>
<text text-anchor="middle" x="318.5" y="-45.5" font-family="Helvetica,sans-Serif" font-size="10.00">func_80043A84</text>
</a>
</g>
</g>
<!-- Node7&#45;&gt;Node8 -->
<g id="edge7" class="edge">
<title>Node7&#45;&gt;Node8</title>
<path fill="none" stroke="midnightblue" d="M219.01,-48C232.64,-48 247.76,-48 261.99,-48"/>
<polygon fill="midnightblue" stroke="midnightblue" points="262.16,-51.5 272.16,-48 262.16,-44.5 262.16,-51.5"/>
</g>
<!-- Node9 -->
<g id="node9" class="node">
<title>Node9</title>
<g id="a_node9"><a xlink:href="hud__renderer_8c.html#a5f7b6f198a3065bb9ecb40934bab4ad8" target="_top" xlink:title=" ">
<polygon fill="white" stroke="black" points="272.5,-0.5 272.5,-19.5 364.5,-19.5 364.5,-0.5 272.5,-0.5"/>
<text text-anchor="middle" x="318.5" y="-7.5" font-family="Helvetica,sans-Serif" font-size="10.00">func_80045B2C</text>
</a>
</g>
</g>
<!-- Node7&#45;&gt;Node9 -->
<g id="edge8" class="edge">
<title>Node7&#45;&gt;Node9</title>
<path fill="none" stroke="midnightblue" d="M210.21,-38.41C228.82,-33.48 251.7,-27.43 271.54,-22.17"/>
<polygon fill="midnightblue" stroke="midnightblue" points="272.53,-25.53 281.3,-19.59 270.74,-18.76 272.53,-25.53"/>
</g>
</g>
</svg>
