<?xml version="1.0" encoding="UTF-8" standalone="no"?>
<!DOCTYPE svg PUBLIC "-//W3C//DTD SVG 1.1//EN"
 "http://www.w3.org/Graphics/SVG/1.1/DTD/svg11.dtd">
<!-- Generated by graphviz version 2.43.0 (0)
 -->
<!-- Title: src/hud_renderer.h Pages: 1 -->
<svg width="1525pt" height="207pt"
 viewBox="0.00 0.00 1524.50 207.00" xmlns="http://www.w3.org/2000/svg" xmlns:xlink="http://www.w3.org/1999/xlink">
<g id="graph0" class="graph" transform="scale(1 1) rotate(0) translate(4 203)">
<title>src/hud_renderer.h</title>
<polygon fill="white" stroke="transparent" points="-4,4 -4,-203 1520.5,-203 1520.5,4 -4,4"/>
<!-- Node1 -->
<g id="node1" class="node">
<title>Node1</title>
<g id="a_node1"><a xlink:title=" ">
<polygon fill="#bfbfbf" stroke="black" points="704.5,-179.5 704.5,-198.5 811.5,-198.5 811.5,-179.5 704.5,-179.5"/>
<text text-anchor="middle" x="758" y="-186.5" font-family="Helvetica,sans-Serif" font-size="10.00">src/hud_renderer.h</text>
</a>
</g>
</g>
<!-- Node2 -->
<g id="node2" class="node">
<title>Node2</title>
<g id="a_node2"><a xlink:href="code__80005FD0_8c.html" target="_top" xlink:title=" ">
<polygon fill="white" stroke="black" points="0,-118 0,-137 120,-137 120,-118 0,-118"/>
<text text-anchor="middle" x="60" y="-125" font-family="Helvetica,sans-Serif" font-size="10.00">src/code_80005FD0.c</text>
</a>
</g>
</g>
<!-- Node1&#45;&gt;Node2 -->
<g id="edge1" class="edge">
<title>Node1&#45;&gt;Node2</title>
<path fill="none" stroke="midnightblue" d="M694.13,-186.22C580.29,-182.43 335,-171.45 130,-143 119.06,-141.48 107.27,-139.27 96.53,-137.02"/>
<polygon fill="midnightblue" stroke="midnightblue" points="694.29,-189.73 704.4,-186.56 694.52,-182.73 694.29,-189.73"/>
</g>
<!-- Node3 -->
<g id="node3" class="node">
<title>Node3</title>
<g id="a_node3"><a xlink:href="code__80057C60_8c.html" target="_top" xlink:title=" ">
<polygon fill="white" stroke="black" points="138.5,-118 138.5,-137 257.5,-137 257.5,-118 138.5,-118"/>
<text text-anchor="middle" x="198" y="-125" font-family="Helvetica,sans-Serif" font-size="10.00">src/code_80057C60.c</text>
</a>
</g>
</g>
<!-- Node1&#45;&gt;Node3 -->
<g id="edge2" class="edge">
<title>Node1&#45;&gt;Node3</title>
<path fill="none" stroke="midnightblue" d="M694.16,-184.52C600.22,-178.85 419.37,-165.91 267,-143 256.47,-141.42 245.13,-139.23 234.74,-137.04"/>
<polygon fill="midnightblue" stroke="midnightblue" points="694.16,-188.02 704.35,-185.12 694.58,-181.03 694.16,-188.02"/>
</g>
<!-- Node4 -->
<g id="node4" class="node">
<title>Node4</title>
<g id="a_node4"><a xlink:href="code__80071F00_8c.html" target="_top" xlink:title=" ">
<polygon fill="white" stroke="black" points="275.5,-118 275.5,-137 394.5,-137 394.5,-118 275.5,-118"/>
<text text-anchor="middle" x="335" y="-125" font-family="Helvetica,sans-Serif" font-size="10.00">src/code_80071F00.c</text>
</a>
</g>
</g>
<!-- Node1&#45;&gt;Node4 -->
<g id="edge3" class="edge">
<title>Node1&#45;&gt;Node4</title>
<path fill="none" stroke="midnightblue" d="M694.29,-181.47C623.25,-173.82 505.03,-160.01 404,-143 393.86,-141.29 382.95,-139.15 372.86,-137.03"/>
<polygon fill="midnightblue" stroke="midnightblue" points="694.11,-184.97 704.43,-182.55 694.86,-178.01 694.11,-184.97"/>
</g>
<!-- Node5 -->
<g id="node5" class="node">
<title>Node5</title>
<g id="a_node5"><a xlink:href="code__8008C1D0_8c.html" target="_top" xlink:title=" ">
<polygon fill="white" stroke="black" points="412.5,-118 412.5,-137 533.5,-137 533.5,-118 412.5,-118"/>
<text text-anchor="middle" x="473" y="-125" font-family="Helvetica,sans-Serif" font-size="10.00">src/code_8008C1D0.c</text>
</a>
</g>
</g>
<!-- Node1&#45;&gt;Node5 -->
<g id="edge4" class="edge">
<title>Node1&#45;&gt;Node5</title>
<path fill="none" stroke="midnightblue" d="M707.24,-177.4C651.99,-165.87 564.73,-147.65 513.76,-137.01"/>
<polygon fill="midnightblue" stroke="midnightblue" points="706.66,-180.86 717.17,-179.48 708.09,-174.01 706.66,-180.86"/>
</g>
<!-- Node6 -->
<g id="node6" class="node">
<title>Node6</title>
<g id="a_node6"><a xlink:href="code__80091750_8c.html" target="_top" xlink:title=" ">
<polygon fill="white" stroke="black" points="551.5,-118 551.5,-137 670.5,-137 670.5,-118 551.5,-118"/>
<text text-anchor="middle" x="611" y="-125" font-family="Helvetica,sans-Serif" font-size="10.00">src/code_80091750.c</text>
</a>
</g>
</g>
<!-- Node1&#45;&gt;Node6 -->
<g id="edge5" class="edge">
<title>Node1&#45;&gt;Node6</title>
<path fill="none" stroke="midnightblue" d="M727.44,-175.63C698.88,-164.07 657,-147.12 632.02,-137.01"/>
<polygon fill="midnightblue" stroke="midnightblue" points="726.36,-178.97 736.94,-179.48 728.98,-172.48 726.36,-178.97"/>
</g>
<!-- Node7 -->
<g id="node7" class="node">
<title>Node7</title>
<g id="a_node7"><a xlink:href="all__variables_8h.html" target="_top" xlink:title=" ">
<polygon fill="white" stroke="black" points="689,-118 689,-137 827,-137 827,-118 689,-118"/>
<text text-anchor="middle" x="758" y="-125" font-family="Helvetica,sans-Serif" font-size="10.00">src/debug/all_variables.h</text>
</a>
</g>
</g>
<!-- Node1&#45;&gt;Node7 -->
<g id="edge6" class="edge">
<title>Node1&#45;&gt;Node7</title>
<path fill="none" stroke="midnightblue" d="M758,-169.32C758,-158.5 758,-145.4 758,-137.01"/>
<polygon fill="midnightblue" stroke="midnightblue" points="754.5,-169.48 758,-179.48 761.5,-169.48 754.5,-169.48"/>
</g>
<!-- Node10 -->
<g id="node10" class="node">
<title>Node10</title>
<g id="a_node10"><a xlink:href="code__80281C40_8c.html" target="_top" xlink:title=" ">
<polygon fill="white" stroke="black" points="845.5,-118 845.5,-137 1000.5,-137 1000.5,-118 845.5,-118"/>
<text text-anchor="middle" x="923" y="-125" font-family="Helvetica,sans-Serif" font-size="10.00">src/ending/code_80281C40.c</text>
</a>
</g>
</g>
<!-- Node1&#45;&gt;Node10 -->
<g id="edge9" class="edge">
<title>Node1&#45;&gt;Node10</title>
<path fill="none" stroke="midnightblue" d="M791.05,-176.08C823.12,-164.52 871,-147.25 899.4,-137.01"/>
<polygon fill="midnightblue" stroke="midnightblue" points="789.86,-172.79 781.64,-179.48 792.23,-179.38 789.86,-172.79"/>
</g>
<!-- Node11 -->
<g id="node11" class="node">
<title>Node11</title>
<g id="a_node11"><a xlink:href="podium__ceremony__actors_8c.html" target="_top" xlink:title=" ">
<polygon fill="white" stroke="black" points="1018.5,-112.5 1018.5,-142.5 1179.5,-142.5 1179.5,-112.5 1018.5,-112.5"/>
<text text-anchor="start" x="1026.5" y="-130.5" font-family="Helvetica,sans-Serif" font-size="10.00">src/ending/podium_ceremony</text>
<text text-anchor="middle" x="1099" y="-119.5" font-family="Helvetica,sans-Serif" font-size="10.00">_actors.c</text>
</a>
</g>
</g>
<!-- Node1&#45;&gt;Node11 -->
<g id="edge10" class="edge">
<title>Node1&#45;&gt;Node11</title>
<path fill="none" stroke="midnightblue" d="M816.92,-177.72C872.66,-167.99 956.76,-153.32 1018.63,-142.52"/>
<polygon fill="midnightblue" stroke="midnightblue" points="816.11,-174.31 806.86,-179.48 817.31,-181.2 816.11,-174.31"/>
</g>
<!-- Node12 -->
<g id="node12" class="node">
<title>Node12</title>
<g id="a_node12"><a xlink:href="hud__renderer_8c.html" target="_top" xlink:title=" ">
<polygon fill="white" stroke="black" points="1198,-118 1198,-137 1304,-137 1304,-118 1198,-118"/>
<text text-anchor="middle" x="1251" y="-125" font-family="Helvetica,sans-Serif" font-size="10.00">src/hud_renderer.c</text>
</a>
</g>
</g>
<!-- Node1&#45;&gt;Node12 -->
<g id="edge11" class="edge">
<title>Node1&#45;&gt;Node12</title>
<path fill="none" stroke="midnightblue" d="M821.91,-183.85C906.36,-177.79 1059.56,-164.8 1189,-143 1198.48,-141.4 1208.68,-139.22 1218.01,-137.03"/>
<polygon fill="midnightblue" stroke="midnightblue" points="821.44,-180.37 811.71,-184.57 821.93,-187.36 821.44,-180.37"/>
</g>
<!-- Node13 -->
<g id="node13" class="node">
<title>Node13</title>
<g id="a_node13"><a xlink:href="main_8c.html" target="_top" xlink:title=" ">
<polygon fill="white" stroke="black" points="1322.5,-118 1322.5,-137 1389.5,-137 1389.5,-118 1322.5,-118"/>
<text text-anchor="middle" x="1356" y="-125" font-family="Helvetica,sans-Serif" font-size="10.00">src/main.c</text>
</a>
</g>
</g>
<!-- Node1&#45;&gt;Node13 -->
<g id="edge12" class="edge">
<title>Node1&#45;&gt;Node13</title>
<path fill="none" stroke="midnightblue" d="M821.82,-187.86C925.8,-186.51 1137.75,-179.08 1313,-143 1319.94,-141.57 1327.32,-139.35 1333.97,-137.08"/>
<polygon fill="midnightblue" stroke="midnightblue" points="821.76,-184.36 811.8,-187.98 821.84,-191.36 821.76,-184.36"/>
</g>
<!-- Node14 -->
<g id="node14" class="node">
<title>Node14</title>
<g id="a_node14"><a xlink:href="render__player_8c.html" target="_top" xlink:title=" ">
<polygon fill="white" stroke="black" points="1407.5,-118 1407.5,-137 1516.5,-137 1516.5,-118 1407.5,-118"/>
<text text-anchor="middle" x="1462" y="-125" font-family="Helvetica,sans-Serif" font-size="10.00">src/render_player.c</text>
</a>
</g>
</g>
<!-- Node1&#45;&gt;Node14 -->
<g id="edge13" class="edge">
<title>Node1&#45;&gt;Node14</title>
<path fill="none" stroke="midnightblue" d="M822.02,-186.81C937.77,-183.92 1189.34,-174.29 1399,-143 1408.99,-141.51 1419.74,-139.27 1429.49,-137"/>
<polygon fill="midnightblue" stroke="midnightblue" points="821.83,-183.31 811.91,-187.05 821.99,-190.31 821.83,-183.31"/>
</g>
<!-- Node8 -->
<g id="node8" class="node">
<title>Node8</title>
<g id="a_node8"><a xlink:href="debug_8inc_8c.html" target="_top" xlink:title=" ">
<polygon fill="white" stroke="black" points="697,-56.5 697,-75.5 819,-75.5 819,-56.5 697,-56.5"/>
<text text-anchor="middle" x="758" y="-63.5" font-family="Helvetica,sans-Serif" font-size="10.00">src/debug/debug.inc.c</text>
</a>
</g>
</g>
<!-- Node7&#45;&gt;Node8 -->
<g id="edge7" class="edge">
<title>Node7&#45;&gt;Node8</title>
<path fill="none" stroke="midnightblue" d="M758,-107.82C758,-97 758,-83.9 758,-75.51"/>
<polygon fill="midnightblue" stroke="midnightblue" points="754.5,-107.98 758,-117.98 761.5,-107.98 754.5,-107.98"/>
</g>
<!-- Node9 -->
<g id="node9" class="node">
<title>Node9</title>
<g id="a_node9"><a xlink:href="debug_8c.html" target="_top" xlink:title=" ">
<polygon fill="white" stroke="black" points="705.5,-0.5 705.5,-19.5 810.5,-19.5 810.5,-0.5 705.5,-0.5"/>
<text text-anchor="middle" x="758" y="-7.5" font-family="Helvetica,sans-Serif" font-size="10.00">src/debug/debug.c</text>
</a>
</g>
</g>
<!-- Node8&#45;&gt;Node9 -->
<g id="edge8" class="edge">
<title>Node8&#45;&gt;Node9</title>
<path fill="none" stroke="midnightblue" d="M758,-45.8C758,-36.91 758,-26.78 758,-19.75"/>
<polygon fill="midnightblue" stroke="midnightblue" points="754.5,-46.08 758,-56.08 761.5,-46.08 754.5,-46.08"/>
</g>
</g>
</svg>
