<?xml version="1.0" encoding="UTF-8" standalone="no"?>
<!DOCTYPE svg PUBLIC "-//W3C//DTD SVG 1.1//EN"
 "http://www.w3.org/Graphics/SVG/1.1/DTD/svg11.dtd">
<!-- Generated by graphviz version 2.43.0 (0)
 -->
<!-- Title: func_80049C18 Pages: 1 -->
<svg width="230pt" height="180pt"
 viewBox="0.00 0.00 230.00 180.00" xmlns="http://www.w3.org/2000/svg" xmlns:xlink="http://www.w3.org/1999/xlink">
<g id="graph0" class="graph" transform="scale(1 1) rotate(0) translate(4 176)">
<title>func_80049C18</title>
<polygon fill="white" stroke="transparent" points="-4,4 -4,-176 226,-176 226,4 -4,4"/>
<!-- Node1 -->
<g id="node1" class="node">
<title>Node1</title>
<g id="a_node1"><a xlink:title=" ">
<polygon fill="#bfbfbf" stroke="black" points="130,-76.5 130,-95.5 222,-95.5 222,-76.5 130,-76.5"/>
<text text-anchor="middle" x="176" y="-83.5" font-family="Helvetica,sans-Serif" font-size="10.00">func_80049C18</text>
</a>
</g>
</g>
<!-- Node2 -->
<g id="node2" class="node">
<title>Node2</title>
<g id="a_node2"><a xlink:href="hud__renderer_8c.html#a3f975d18ee5251f96fa16bfec205399d" target="_top" xlink:title=" ">
<polygon fill="white" stroke="black" points="1,-152.5 1,-171.5 93,-171.5 93,-152.5 1,-152.5"/>
<text text-anchor="middle" x="47" y="-159.5" font-family="Helvetica,sans-Serif" font-size="10.00">func_8004AB00</text>
</a>
</g>
</g>
<!-- Node1&#45;&gt;Node2 -->
<g id="edge1" class="edge">
<title>Node1&#45;&gt;Node2</title>
<path fill="none" stroke="midnightblue" d="M155.16,-101.84C139.24,-114.08 116,-130.91 94,-143 87.79,-146.41 80.84,-149.59 74.26,-152.33"/>
<polygon fill="midnightblue" stroke="midnightblue" points="157.47,-104.48 163.2,-95.57 153.16,-98.96 157.47,-104.48"/>
</g>
<!-- Node3 -->
<g id="node3" class="node">
<title>Node3</title>
<g id="a_node3"><a xlink:href="hud__renderer_8c.html#ac656c9d46351721efd3023e0fb8261d5" target="_top" xlink:title=" ">
<polygon fill="white" stroke="black" points="1,-114.5 1,-133.5 93,-133.5 93,-114.5 1,-114.5"/>
<text text-anchor="middle" x="47" y="-121.5" font-family="Helvetica,sans-Serif" font-size="10.00">func_8004AC20</text>
</a>
</g>
</g>
<!-- Node1&#45;&gt;Node3 -->
<g id="edge2" class="edge">
<title>Node1&#45;&gt;Node3</title>
<path fill="none" stroke="midnightblue" d="M133.11,-98.54C115.83,-103.7 96.13,-109.6 80.04,-114.41"/>
<polygon fill="midnightblue" stroke="midnightblue" points="134.38,-101.81 142.95,-95.59 132.37,-95.1 134.38,-101.81"/>
</g>
<!-- Node4 -->
<g id="node4" class="node">
<title>Node4</title>
<g id="a_node4"><a xlink:href="hud__renderer_8c.html#a43a64a8f125ef65a4233d8fed4ef1089" target="_top" xlink:title=" ">
<polygon fill="white" stroke="black" points="0,-76.5 0,-95.5 94,-95.5 94,-76.5 0,-76.5"/>
<text text-anchor="middle" x="47" y="-83.5" font-family="Helvetica,sans-Serif" font-size="10.00">func_8004AD8C</text>
</a>
</g>
</g>
<!-- Node1&#45;&gt;Node4 -->
<g id="edge3" class="edge">
<title>Node1&#45;&gt;Node4</title>
<path fill="none" stroke="midnightblue" d="M119.67,-86C111.2,-86 102.53,-86 94.27,-86"/>
<polygon fill="midnightblue" stroke="midnightblue" points="119.87,-89.5 129.87,-86 119.87,-82.5 119.87,-89.5"/>
</g>
<!-- Node5 -->
<g id="node5" class="node">
<title>Node5</title>
<g id="a_node5"><a xlink:href="hud__renderer_8c.html#a5c2be9d40de38e7e40f52158f27b791a" target="_top" xlink:title=" ">
<polygon fill="white" stroke="black" points="1,-38.5 1,-57.5 93,-57.5 93,-38.5 1,-38.5"/>
<text text-anchor="middle" x="47" y="-45.5" font-family="Helvetica,sans-Serif" font-size="10.00">func_8004AF0C</text>
</a>
</g>
</g>
<!-- Node1&#45;&gt;Node5 -->
<g id="edge4" class="edge">
<title>Node1&#45;&gt;Node5</title>
<path fill="none" stroke="midnightblue" d="M133.11,-73.46C115.83,-68.3 96.13,-62.4 80.04,-57.59"/>
<polygon fill="midnightblue" stroke="midnightblue" points="132.37,-76.9 142.95,-76.41 134.38,-70.19 132.37,-76.9"/>
</g>
<!-- Node6 -->
<g id="node6" class="node">
<title>Node6</title>
<g id="a_node6"><a xlink:href="hud__renderer_8c.html#ac633bb4244cdfe1e60ce12fe24e750a3" target="_top" xlink:title=" ">
<polygon fill="white" stroke="black" points="0.5,-0.5 0.5,-19.5 93.5,-19.5 93.5,-0.5 0.5,-0.5"/>
<text text-anchor="middle" x="47" y="-7.5" font-family="Helvetica,sans-Serif" font-size="10.00">func_8004AFCC</text>
</a>
</g>
</g>
<!-- Node1&#45;&gt;Node6 -->
<g id="edge5" class="edge">
<title>Node1&#45;&gt;Node6</title>
<path fill="none" stroke="midnightblue" d="M155.16,-70.16C139.24,-57.92 116,-41.09 94,-29 87.79,-25.59 80.84,-22.41 74.26,-19.67"/>
<polygon fill="midnightblue" stroke="midnightblue" points="153.16,-73.04 163.2,-76.43 157.47,-67.52 153.16,-73.04"/>
</g>
</g>
</svg>
