<?xml version="1.0" encoding="UTF-8" standalone="no"?>
<!DOCTYPE svg PUBLIC "-//W3C//DTD SVG 1.1//EN"
 "http://www.w3.org/Graphics/SVG/1.1/DTD/svg11.dtd">
<!-- Generated by graphviz version 2.43.0 (0)
 -->
<!-- Title: func_80054324 Pages: 1 -->
<svg width="716pt" height="135pt"
 viewBox="0.00 0.00 716.00 135.00" xmlns="http://www.w3.org/2000/svg" xmlns:xlink="http://www.w3.org/1999/xlink">
<g id="graph0" class="graph" transform="scale(1 1) rotate(0) translate(4 131)">
<title>func_80054324</title>
<polygon fill="white" stroke="transparent" points="-4,4 -4,-131 712,-131 712,4 -4,4"/>
<!-- Node1 -->
<g id="node1" class="node">
<title>Node1</title>
<g id="a_node1"><a xlink:title=" ">
<polygon fill="#bfbfbf" stroke="black" points="0,-64.5 0,-83.5 91,-83.5 91,-64.5 0,-64.5"/>
<text text-anchor="middle" x="45.5" y="-71.5" font-family="Helvetica,sans-Serif" font-size="10.00">func_80054324</text>
</a>
</g>
</g>
<!-- Node2 -->
<g id="node2" class="node">
<title>Node2</title>
<g id="a_node2"><a xlink:href="math__util__2_8c.html#a99d173c040cb4a9d0184df2605d71e32" target="_top" xlink:title=" ">
<polygon fill="white" stroke="black" points="127,-103.5 127,-122.5 219,-122.5 219,-103.5 127,-103.5"/>
<text text-anchor="middle" x="173" y="-110.5" font-family="Helvetica,sans-Serif" font-size="10.00">func_800418AC</text>
</a>
</g>
</g>
<!-- Node1&#45;&gt;Node2 -->
<g id="edge1" class="edge">
<title>Node1&#45;&gt;Node2</title>
<path fill="none" stroke="midnightblue" d="M77.2,-83.54C93.46,-88.59 113.64,-94.86 131.2,-100.32"/>
<polygon fill="midnightblue" stroke="midnightblue" points="130.59,-103.8 141.18,-103.42 132.67,-97.11 130.59,-103.8"/>
</g>
<!-- Node5 -->
<g id="node5" class="node">
<title>Node5</title>
<g id="a_node5"><a xlink:href="hud__renderer_8c.html#abfc36be592b2cbf423febe66fa12ec34" target="_top" xlink:title=" ">
<polygon fill="white" stroke="black" points="127,-64.5 127,-83.5 219,-83.5 219,-64.5 127,-64.5"/>
<text text-anchor="middle" x="173" y="-71.5" font-family="Helvetica,sans-Serif" font-size="10.00">func_800431B0</text>
</a>
</g>
</g>
<!-- Node1&#45;&gt;Node5 -->
<g id="edge4" class="edge">
<title>Node1&#45;&gt;Node5</title>
<path fill="none" stroke="midnightblue" d="M91.1,-74C99.31,-74 107.98,-74 116.47,-74"/>
<polygon fill="midnightblue" stroke="midnightblue" points="116.7,-77.5 126.7,-74 116.7,-70.5 116.7,-77.5"/>
</g>
<!-- Node11 -->
<g id="node11" class="node">
<title>Node11</title>
<g id="a_node11"><a xlink:href="hud__renderer_8c.html#a0176ac6600444525b2d02772648b5f56" target="_top" xlink:title=" ">
<polygon fill="white" stroke="black" points="127,-26.5 127,-45.5 219,-45.5 219,-26.5 127,-26.5"/>
<text text-anchor="middle" x="173" y="-33.5" font-family="Helvetica,sans-Serif" font-size="10.00">func_8004B1C8</text>
</a>
</g>
</g>
<!-- Node1&#45;&gt;Node11 -->
<g id="edge10" class="edge">
<title>Node1&#45;&gt;Node11</title>
<path fill="none" stroke="midnightblue" d="M78.17,-64.41C94.07,-59.6 113.54,-53.7 130.61,-48.53"/>
<polygon fill="midnightblue" stroke="midnightblue" points="131.78,-51.83 140.34,-45.59 129.76,-45.13 131.78,-51.83"/>
</g>
<!-- Node3 -->
<g id="node3" class="node">
<title>Node3</title>
<g id="a_node3"><a xlink:href="math__util_8c.html#aaa39a297477f56051975259f4bddd829" target="_top" xlink:title=" ">
<polygon fill="white" stroke="black" points="313.5,-104.5 313.5,-123.5 363.5,-123.5 363.5,-104.5 313.5,-104.5"/>
<text text-anchor="middle" x="338.5" y="-111.5" font-family="Helvetica,sans-Serif" font-size="10.00">atan2s</text>
</a>
</g>
</g>
<!-- Node2&#45;&gt;Node3 -->
<g id="edge2" class="edge">
<title>Node2&#45;&gt;Node3</title>
<path fill="none" stroke="midnightblue" d="M219.11,-113.28C245.62,-113.44 278.62,-113.64 303.04,-113.79"/>
<polygon fill="midnightblue" stroke="midnightblue" points="303.24,-117.29 313.26,-113.85 303.29,-110.29 303.24,-117.29"/>
</g>
<!-- Node4 -->
<g id="node4" class="node">
<title>Node4</title>
<g id="a_node4"><a xlink:href="math__util_8c.html#a0273b0ea0783a06996c28669a7438ed9" target="_top" xlink:title=" ">
<polygon fill="white" stroke="black" points="505,-107.5 505,-126.5 587,-126.5 587,-107.5 505,-107.5"/>
<text text-anchor="middle" x="546" y="-114.5" font-family="Helvetica,sans-Serif" font-size="10.00">atan2_lookup</text>
</a>
</g>
</g>
<!-- Node3&#45;&gt;Node4 -->
<g id="edge3" class="edge">
<title>Node3&#45;&gt;Node4</title>
<path fill="none" stroke="midnightblue" d="M363.88,-114.36C395.93,-114.82 453.03,-115.66 494.56,-116.26"/>
<polygon fill="midnightblue" stroke="midnightblue" points="494.72,-119.77 504.77,-116.41 494.82,-112.77 494.72,-119.77"/>
</g>
<!-- Node6 -->
<g id="node6" class="node">
<title>Node6</title>
<g id="a_node6"><a xlink:href="math__util__2_8c.html#a2eff0e02deb703653ee3230fbc02eb14" target="_top" xlink:title="set the matrix to a transformation matrix">
<polygon fill="white" stroke="black" points="255,-63.5 255,-82.5 422,-82.5 422,-63.5 255,-63.5"/>
<text text-anchor="middle" x="338.5" y="-70.5" font-family="Helvetica,sans-Serif" font-size="10.00">rsp_set_matrix_transformation</text>
</a>
</g>
</g>
<!-- Node5&#45;&gt;Node6 -->
<g id="edge5" class="edge">
<title>Node5&#45;&gt;Node6</title>
<path fill="none" stroke="midnightblue" d="M219.11,-73.72C227.21,-73.67 235.92,-73.62 244.81,-73.57"/>
<polygon fill="midnightblue" stroke="midnightblue" points="244.91,-77.07 254.89,-73.51 244.87,-70.07 244.91,-77.07"/>
</g>
<!-- Node7 -->
<g id="node7" class="node">
<title>Node7</title>
<g id="a_node7"><a xlink:href="render__player_8c.html#af0bbe78d8dc64400663d3702812f9ad8" target="_top" xlink:title=" ">
<polygon fill="white" stroke="black" points="482.5,-58 482.5,-88 609.5,-88 609.5,-58 482.5,-58"/>
<text text-anchor="start" x="490.5" y="-76" font-family="Helvetica,sans-Serif" font-size="10.00">convert_to_fixed_point</text>
<text text-anchor="middle" x="546" y="-65" font-family="Helvetica,sans-Serif" font-size="10.00">_matrix</text>
</a>
</g>
</g>
<!-- Node6&#45;&gt;Node7 -->
<g id="edge6" class="edge">
<title>Node6&#45;&gt;Node7</title>
<path fill="none" stroke="midnightblue" d="M422.2,-73C438.66,-73 455.85,-73 471.96,-73"/>
<polygon fill="midnightblue" stroke="midnightblue" points="472.38,-76.5 482.38,-73 472.38,-69.5 472.38,-76.5"/>
</g>
<!-- Node8 -->
<g id="node8" class="node">
<title>Node8</title>
<g id="a_node8"><a xlink:href="math__util__2_8c.html#a88742c6110738fc1c35a57f50920a81f" target="_top" xlink:title=" ">
<polygon fill="white" stroke="black" points="458,-19.5 458,-38.5 634,-38.5 634,-19.5 458,-19.5"/>
<text text-anchor="middle" x="546" y="-26.5" font-family="Helvetica,sans-Serif" font-size="10.00">mtxf_set_matrix_transformation</text>
</a>
</g>
</g>
<!-- Node6&#45;&gt;Node8 -->
<g id="edge7" class="edge">
<title>Node6&#45;&gt;Node8</title>
<path fill="none" stroke="midnightblue" d="M384.09,-63.45C415.33,-56.76 457.26,-47.79 490.49,-40.67"/>
<polygon fill="midnightblue" stroke="midnightblue" points="491.45,-44.04 500.5,-38.53 489.99,-37.2 491.45,-44.04"/>
</g>
<!-- Node9 -->
<g id="node9" class="node">
<title>Node9</title>
<g id="a_node9"><a xlink:href="math__util_8c.html#ae69cbf5c8d4b3b0dba2d7b4d4673689f" target="_top" xlink:title=" ">
<polygon fill="white" stroke="black" points="670,-38.5 670,-57.5 708,-57.5 708,-38.5 670,-38.5"/>
<text text-anchor="middle" x="689" y="-45.5" font-family="Helvetica,sans-Serif" font-size="10.00">coss</text>
</a>
</g>
</g>
<!-- Node8&#45;&gt;Node9 -->
<g id="edge8" class="edge">
<title>Node8&#45;&gt;Node9</title>
<path fill="none" stroke="midnightblue" d="M617.91,-38.56C632.87,-40.57 647.8,-42.58 660.02,-44.23"/>
<polygon fill="midnightblue" stroke="midnightblue" points="659.61,-47.71 669.98,-45.57 660.54,-40.77 659.61,-47.71"/>
</g>
<!-- Node10 -->
<g id="node10" class="node">
<title>Node10</title>
<g id="a_node10"><a xlink:href="math__util_8c.html#a19ed3bd78fd2d3e2bd0a29f6caf48545" target="_top" xlink:title=" ">
<polygon fill="white" stroke="black" points="671,-0.5 671,-19.5 707,-19.5 707,-0.5 671,-0.5"/>
<text text-anchor="middle" x="689" y="-7.5" font-family="Helvetica,sans-Serif" font-size="10.00">sins</text>
</a>
</g>
</g>
<!-- Node8&#45;&gt;Node10 -->
<g id="edge9" class="edge">
<title>Node8&#45;&gt;Node10</title>
<path fill="none" stroke="midnightblue" d="M617.91,-19.44C633.19,-17.39 648.44,-15.33 660.79,-13.67"/>
<polygon fill="midnightblue" stroke="midnightblue" points="661.39,-17.12 670.83,-12.31 660.46,-10.18 661.39,-17.12"/>
</g>
</g>
</svg>
