<?xml version="1.0" encoding="UTF-8" standalone="no"?>
<!DOCTYPE svg PUBLIC "-//W3C//DTD SVG 1.1//EN"
 "http://www.w3.org/Graphics/SVG/1.1/DTD/svg11.dtd">
<!-- Generated by graphviz version 2.43.0 (0)
 -->
<!-- Title: set_transparency Pages: 1 -->
<!--zoomable 712 -->
<svg id="main" version="1.1" xmlns="http://www.w3.org/2000/svg" xmlns:xlink="http://www.w3.org/1999/xlink" xml:space="preserve" onload="init(evt)">
<style type="text/css"><![CDATA[
.edge:hover path { stroke: red; }
.edge:hover polygon { stroke: red; fill: red; }
]]></style>
<script type="text/javascript"><![CDATA[
var edges = document.getElementsByTagName('g');
if (edges && edges.length) {
  for (var i=0;i<edges.length;i++) {
    if (edges[i].id.substr(0,4)=='edge') {
      edges[i].setAttribute('class','edge');
    }
  }
}
]]></script>
        <defs>
                <circle id="rim" cx="0" cy="0" r="7"/>
                <circle id="rim2" cx="0" cy="0" r="3.5"/>
                <g id="zoomPlus">
                        <use xlink:href="#rim" fill="#404040">
                                <set attributeName="fill" to="#808080" begin="zoomplus.mouseover" end="zoomplus.mouseout"/>
                        </use>
                        <path d="M-4,0h8M0,-4v8" fill="none" stroke="white" stroke-width="1.5" pointer-events="none"/>
                </g>
                <g id="zoomMin">
                        <use xlink:href="#rim" fill="#404040">
                                <set attributeName="fill" to="#808080" begin="zoomminus.mouseover" end="zoomminus.mouseout"/>
                        </use>
                        <path d="M-4,0h8" fill="none" stroke="white" stroke-width="1.5" pointer-events="none"/>
                </g>
                <g id="dirArrow">
                        <path fill="none" stroke="white" stroke-width="1.5" d="M0,-3.0v7 M-2.5,-0.5L0,-3.0L2.5,-0.5"/>
                </g>
               <g id="resetDef">
                       <use xlink:href="#rim2" fill="#404040">
                               <set attributeName="fill" to="#808080" begin="reset.mouseover" end="reset.mouseout"/>
                       </use>
               </g>
        </defs>

<script type="text/javascript">
var viewWidth = 1009;
var viewHeight = 712;
var sectionId = 'dynsection-497';
</script>
<script xlink:href="svgpan.js"/>
<svg id="graph" class="graph">
<g id="viewport">
<title>set_transparency</title>
<polygon fill="white" stroke="transparent" points="-4,4 -4,-708 1005,-708 1005,4 -4,4"/>
<!-- Node1 -->
<g id="node1" class="node">
<title>Node1</title>
<g id="a_node1"><a xlink:title=" ">
<polygon fill="#bfbfbf" stroke="black" points="900,-380.5 900,-399.5 1001,-399.5 1001,-380.5 900,-380.5"/>
<text text-anchor="middle" x="950.5" y="-387.5" font-family="Helvetica,sans-Serif" font-size="10.00">set_transparency</text>
</a>
</g>
</g>
<!-- Node2 -->
<g id="node2" class="node">
<title>Node2</title>
<g id="a_node2"><a xlink:href="hud__renderer_8c.html#a6fef92ee74ba13ee162bbf002be6936b" target="_top" xlink:title=" ">
<polygon fill="white" stroke="black" points="771.5,-684.5 771.5,-703.5 863.5,-703.5 863.5,-684.5 771.5,-684.5"/>
<text text-anchor="middle" x="817.5" y="-691.5" font-family="Helvetica,sans-Serif" font-size="10.00">func_800465B8</text>
</a>
</g>
</g>
<!-- Node1&#45;&gt;Node2 -->
<g id="edge1" class="edge">
<title>Node1&#45;&gt;Node2</title>
<path fill="none" stroke="midnightblue" d="M949.13,-409.69C947.13,-460.24 935.05,-596.13 864,-675 860.56,-678.82 856.24,-681.89 851.63,-684.35"/>
<polygon fill="midnightblue" stroke="midnightblue" points="952.63,-409.6 949.43,-399.5 945.63,-409.39 952.63,-409.6"/>
</g>
<!-- Node4 -->
<g id="node4" class="node">
<title>Node4</title>
<g id="a_node4"><a xlink:href="hud__renderer_8c.html#a70b9ab2b3d5af8fcfcd7fb1a651396a9" target="_top" xlink:title=" ">
<polygon fill="white" stroke="black" points="771.5,-646.5 771.5,-665.5 863.5,-665.5 863.5,-646.5 771.5,-646.5"/>
<text text-anchor="middle" x="817.5" y="-653.5" font-family="Helvetica,sans-Serif" font-size="10.00">func_80047B9C</text>
</a>
</g>
</g>
<!-- Node1&#45;&gt;Node4 -->
<g id="edge3" class="edge">
<title>Node1&#45;&gt;Node4</title>
<path fill="none" stroke="midnightblue" d="M948,-410.12C943.54,-456.2 926.45,-570.54 864,-637 860.37,-640.87 855.82,-643.98 851.03,-646.47"/>
<polygon fill="midnightblue" stroke="midnightblue" points="951.51,-410.21 948.89,-399.95 944.53,-409.61 951.51,-410.21"/>
</g>
<!-- Node6 -->
<g id="node6" class="node">
<title>Node6</title>
<g id="a_node6"><a xlink:href="hud__renderer_8c.html#a209da068f7af82621ac1237d70885b62" target="_top" xlink:title=" ">
<polygon fill="white" stroke="black" points="771.5,-608.5 771.5,-627.5 863.5,-627.5 863.5,-608.5 771.5,-608.5"/>
<text text-anchor="middle" x="817.5" y="-615.5" font-family="Helvetica,sans-Serif" font-size="10.00">func_80047C28</text>
</a>
</g>
</g>
<!-- Node1&#45;&gt;Node6 -->
<g id="edge5" class="edge">
<title>Node1&#45;&gt;Node6</title>
<path fill="none" stroke="midnightblue" d="M946.59,-409.75C939.61,-450.43 918.28,-544.32 864,-599 860.26,-602.77 855.66,-605.82 850.84,-608.29"/>
<polygon fill="midnightblue" stroke="midnightblue" points="950.06,-410.19 948.19,-399.76 943.15,-409.08 950.06,-410.19"/>
</g>
<!-- Node7 -->
<g id="node7" class="node">
<title>Node7</title>
<g id="a_node7"><a xlink:href="hud__renderer_8c.html#a11b93b94f668a841d51489531a6fc963" target="_top" xlink:title=" ">
<polygon fill="white" stroke="black" points="771.5,-570.5 771.5,-589.5 863.5,-589.5 863.5,-570.5 771.5,-570.5"/>
<text text-anchor="middle" x="817.5" y="-577.5" font-family="Helvetica,sans-Serif" font-size="10.00">func_80047CB4</text>
</a>
</g>
</g>
<!-- Node1&#45;&gt;Node7 -->
<g id="edge6" class="edge">
<title>Node1&#45;&gt;Node7</title>
<path fill="none" stroke="midnightblue" d="M944.63,-409.44C934.96,-444.3 910.18,-517.86 864,-561 860,-564.74 855.15,-567.8 850.13,-570.28"/>
<polygon fill="midnightblue" stroke="midnightblue" points="948.07,-410.12 947.25,-399.56 941.3,-408.33 948.07,-410.12"/>
</g>
<!-- Node9 -->
<g id="node9" class="node">
<title>Node9</title>
<g id="a_node9"><a xlink:href="hud__renderer_8c.html#af25c2a1cd7ad90357bb51f2813dc4791" target="_top" xlink:title=" ">
<polygon fill="white" stroke="black" points="771.5,-532.5 771.5,-551.5 863.5,-551.5 863.5,-532.5 771.5,-532.5"/>
<text text-anchor="middle" x="817.5" y="-539.5" font-family="Helvetica,sans-Serif" font-size="10.00">func_80047D40</text>
</a>
</g>
</g>
<!-- Node1&#45;&gt;Node9 -->
<g id="edge8" class="edge">
<title>Node1&#45;&gt;Node9</title>
<path fill="none" stroke="midnightblue" d="M941.73,-409.02C929.26,-437.41 902.22,-490.97 864,-523 859.54,-526.74 854.24,-529.83 848.86,-532.36"/>
<polygon fill="midnightblue" stroke="midnightblue" points="944.97,-410.35 945.66,-399.78 938.53,-407.61 944.97,-410.35"/>
</g>
<!-- Node10 -->
<g id="node10" class="node">
<title>Node10</title>
<g id="a_node10"><a xlink:href="hud__renderer_8c.html#a52e219df24b6bd4433f7faf09ef387ff" target="_top" xlink:title=" ">
<polygon fill="white" stroke="black" points="772,-494.5 772,-513.5 863,-513.5 863,-494.5 772,-494.5"/>
<text text-anchor="middle" x="817.5" y="-501.5" font-family="Helvetica,sans-Serif" font-size="10.00">func_80048228</text>
</a>
</g>
</g>
<!-- Node1&#45;&gt;Node10 -->
<g id="edge9" class="edge">
<title>Node1&#45;&gt;Node10</title>
<path fill="none" stroke="midnightblue" d="M937.18,-407.95C922.05,-428.86 894.59,-463.31 864,-485 858.83,-488.66 852.85,-491.8 846.96,-494.4"/>
<polygon fill="midnightblue" stroke="midnightblue" points="940.14,-409.82 943.06,-399.64 934.43,-405.78 940.14,-409.82"/>
</g>
<!-- Node11 -->
<g id="node11" class="node">
<title>Node11</title>
<g id="a_node11"><a xlink:href="hud__renderer_8c.html#a91178d2562551232deed087f59325a1e" target="_top" xlink:title=" ">
<polygon fill="white" stroke="black" points="771.5,-456.5 771.5,-475.5 863.5,-475.5 863.5,-456.5 771.5,-456.5"/>
<text text-anchor="middle" x="817.5" y="-463.5" font-family="Helvetica,sans-Serif" font-size="10.00">func_800482AC</text>
</a>
</g>
</g>
<!-- Node1&#45;&gt;Node11 -->
<g id="edge10" class="edge">
<title>Node1&#45;&gt;Node11</title>
<path fill="none" stroke="midnightblue" d="M928.12,-405.93C911.25,-418.09 886.82,-434.77 864,-447 857.66,-450.4 850.58,-453.61 843.93,-456.39"/>
<polygon fill="midnightblue" stroke="midnightblue" points="930.65,-408.43 936.66,-399.7 926.52,-402.77 930.65,-408.43"/>
</g>
<!-- Node13 -->
<g id="node13" class="node">
<title>Node13</title>
<g id="a_node13"><a xlink:href="hud__renderer_8c.html#af452dd0b6e993f7ef73acb7292b2a916" target="_top" xlink:title=" ">
<polygon fill="white" stroke="black" points="772,-418.5 772,-437.5 863,-437.5 863,-418.5 772,-418.5"/>
<text text-anchor="middle" x="817.5" y="-425.5" font-family="Helvetica,sans-Serif" font-size="10.00">func_80048330</text>
</a>
</g>
</g>
<!-- Node1&#45;&gt;Node13 -->
<g id="edge12" class="edge">
<title>Node1&#45;&gt;Node13</title>
<path fill="none" stroke="midnightblue" d="M906.79,-402.39C888.85,-407.59 868.3,-413.55 851.55,-418.41"/>
<polygon fill="midnightblue" stroke="midnightblue" points="907.81,-405.74 916.44,-399.59 905.86,-399.01 907.81,-405.74"/>
</g>
<!-- Node14 -->
<g id="node14" class="node">
<title>Node14</title>
<g id="a_node14"><a xlink:href="hud__renderer_8c.html#a5a6e10cbfda4dc8f12e67cfc05183ccb" target="_top" xlink:title=" ">
<polygon fill="white" stroke="black" points="771.5,-380.5 771.5,-399.5 863.5,-399.5 863.5,-380.5 771.5,-380.5"/>
<text text-anchor="middle" x="817.5" y="-387.5" font-family="Helvetica,sans-Serif" font-size="10.00">func_800483B4</text>
</a>
</g>
</g>
<!-- Node1&#45;&gt;Node14 -->
<g id="edge13" class="edge">
<title>Node1&#45;&gt;Node14</title>
<path fill="none" stroke="midnightblue" d="M889.81,-390C881.06,-390 872.18,-390 863.78,-390"/>
<polygon fill="midnightblue" stroke="midnightblue" points="889.97,-393.5 899.97,-390 889.97,-386.5 889.97,-393.5"/>
</g>
<!-- Node16 -->
<g id="node16" class="node">
<title>Node16</title>
<g id="a_node16"><a xlink:href="hud__renderer_8c.html#ad2b1c78e52c101f25b06937f591f6d1b" target="_top" xlink:title=" ">
<polygon fill="white" stroke="black" points="772,-342.5 772,-361.5 863,-361.5 863,-342.5 772,-342.5"/>
<text text-anchor="middle" x="817.5" y="-349.5" font-family="Helvetica,sans-Serif" font-size="10.00">func_80048438</text>
</a>
</g>
</g>
<!-- Node1&#45;&gt;Node16 -->
<g id="edge15" class="edge">
<title>Node1&#45;&gt;Node16</title>
<path fill="none" stroke="midnightblue" d="M906.79,-377.61C888.85,-372.41 868.3,-366.45 851.55,-361.59"/>
<polygon fill="midnightblue" stroke="midnightblue" points="905.86,-380.99 916.44,-380.41 907.81,-374.26 905.86,-380.99"/>
</g>
<!-- Node17 -->
<g id="node17" class="node">
<title>Node17</title>
<g id="a_node17"><a xlink:href="hud__renderer_8c.html#a577b767fc17b228d27b5ed698eb1c8ad" target="_top" xlink:title=" ">
<polygon fill="white" stroke="black" points="771.5,-266.5 771.5,-285.5 863.5,-285.5 863.5,-266.5 771.5,-266.5"/>
<text text-anchor="middle" x="817.5" y="-273.5" font-family="Helvetica,sans-Serif" font-size="10.00">func_800484BC</text>
</a>
</g>
</g>
<!-- Node1&#45;&gt;Node17 -->
<g id="edge16" class="edge">
<title>Node1&#45;&gt;Node17</title>
<path fill="none" stroke="midnightblue" d="M935.7,-372.33C919.88,-352.89 892.46,-321.55 864,-300 856.74,-294.5 848.04,-289.57 840.2,-285.64"/>
<polygon fill="midnightblue" stroke="midnightblue" points="933.13,-374.72 942.11,-380.35 938.6,-370.35 933.13,-374.72"/>
</g>
<!-- Node46 -->
<g id="node36" class="node">
<title>Node46</title>
<g id="a_node36"><a xlink:href="hud__renderer_8c.html#a5ea915e2b61a3fc53a83969a86841a9f" target="_top" xlink:title=" ">
<polygon fill="white" stroke="black" points="772,-152.5 772,-171.5 863,-171.5 863,-152.5 772,-152.5"/>
<text text-anchor="middle" x="817.5" y="-159.5" font-family="Helvetica,sans-Serif" font-size="10.00">func_80048540</text>
</a>
</g>
</g>
<!-- Node1&#45;&gt;Node46 -->
<g id="edge38" class="edge">
<title>Node1&#45;&gt;Node46</title>
<path fill="none" stroke="midnightblue" d="M946.59,-370.25C939.61,-329.57 918.28,-235.68 864,-181 860.26,-177.23 855.66,-174.18 850.84,-171.71"/>
<polygon fill="midnightblue" stroke="midnightblue" points="943.15,-370.92 948.19,-380.24 950.06,-369.81 943.15,-370.92"/>
</g>
<!-- Node49 -->
<g id="node39" class="node">
<title>Node49</title>
<g id="a_node39"><a xlink:href="hud__renderer_8c.html#a7f21a1863237d7a23fd0d1381722477d" target="_top" xlink:title=" ">
<polygon fill="white" stroke="black" points="514,-304.5 514,-323.5 606,-323.5 606,-304.5 514,-304.5"/>
<text text-anchor="middle" x="560" y="-311.5" font-family="Helvetica,sans-Serif" font-size="10.00">func_800485C4</text>
</a>
</g>
</g>
<!-- Node1&#45;&gt;Node49 -->
<g id="edge41" class="edge">
<title>Node1&#45;&gt;Node49</title>
<path fill="none" stroke="midnightblue" d="M931.49,-373.83C915.16,-360.24 889.77,-341.69 864,-333 776.35,-303.44 666.47,-305.48 606.04,-309.68"/>
<polygon fill="midnightblue" stroke="midnightblue" points="929.29,-376.55 939.16,-380.4 933.85,-371.24 929.29,-376.55"/>
</g>
<!-- Node51 -->
<g id="node41" class="node">
<title>Node51</title>
<g id="a_node41"><a xlink:href="hud__renderer_8c.html#a3a9ffb7f41efffaa0077a9219a12f304" target="_top" xlink:title=" ">
<polygon fill="white" stroke="black" points="771,-190.5 771,-209.5 864,-209.5 864,-190.5 771,-190.5"/>
<text text-anchor="middle" x="817.5" y="-197.5" font-family="Helvetica,sans-Serif" font-size="10.00">func_8004C9D8</text>
</a>
</g>
</g>
<!-- Node1&#45;&gt;Node51 -->
<g id="edge47" class="edge">
<title>Node1&#45;&gt;Node51</title>
<path fill="none" stroke="midnightblue" d="M944.63,-370.56C934.96,-335.7 910.18,-262.14 864,-219 860,-215.26 855.15,-212.2 850.13,-209.72"/>
<polygon fill="midnightblue" stroke="midnightblue" points="941.3,-371.67 947.25,-380.44 948.07,-369.88 941.3,-371.67"/>
</g>
<!-- Node55 -->
<g id="node45" class="node">
<title>Node55</title>
<g id="a_node45"><a xlink:href="hud__renderer_8c.html#a17f9b05a746ef42ad0faca7d579356cd" target="_top" xlink:title=" ">
<polygon fill="white" stroke="black" points="771.5,-76.5 771.5,-95.5 863.5,-95.5 863.5,-76.5 771.5,-76.5"/>
<text text-anchor="middle" x="817.5" y="-83.5" font-family="Helvetica,sans-Serif" font-size="10.00">func_8004E2B8</text>
</a>
</g>
</g>
<!-- Node1&#45;&gt;Node55 -->
<g id="edge58" class="edge">
<title>Node1&#45;&gt;Node55</title>
<path fill="none" stroke="midnightblue" d="M945.11,-370.29C934.98,-327.16 907.5,-221.98 864,-143 853.98,-124.81 838.13,-106.53 828.02,-95.75"/>
<polygon fill="midnightblue" stroke="midnightblue" points="941.71,-371.12 947.35,-380.08 948.53,-369.55 941.71,-371.12"/>
</g>
<!-- Node58 -->
<g id="node48" class="node">
<title>Node58</title>
<g id="a_node48"><a xlink:href="hud__renderer_8c.html#aaab3d66e866737e450b04b2efc376b7d" target="_top" xlink:title=" ">
<polygon fill="white" stroke="black" points="772,-19.5 772,-38.5 863,-38.5 863,-19.5 772,-19.5"/>
<text text-anchor="middle" x="817.5" y="-26.5" font-family="Helvetica,sans-Serif" font-size="10.00">func_8004E338</text>
</a>
</g>
</g>
<!-- Node1&#45;&gt;Node58 -->
<g id="edge61" class="edge">
<title>Node1&#45;&gt;Node58</title>
<path fill="none" stroke="midnightblue" d="M948.4,-370.39C944.63,-317.38 928.57,-168.44 864,-67 856.59,-55.37 844.47,-45.5 834.61,-38.74"/>
<polygon fill="midnightblue" stroke="midnightblue" points="944.92,-370.69 949.05,-380.45 951.9,-370.24 944.92,-370.69"/>
</g>
<!-- Node60 -->
<g id="node50" class="node">
<title>Node60</title>
<g id="a_node50"><a xlink:href="hud__renderer_8c.html#ac62ba248d2eef6a6fdf9b2049c384d86" target="_top" xlink:title=" ">
<polygon fill="white" stroke="black" points="772,-228.5 772,-247.5 863,-247.5 863,-228.5 772,-228.5"/>
<text text-anchor="middle" x="817.5" y="-235.5" font-family="Helvetica,sans-Serif" font-size="10.00">func_8004F950</text>
</a>
</g>
</g>
<!-- Node1&#45;&gt;Node60 -->
<g id="edge63" class="edge">
<title>Node1&#45;&gt;Node60</title>
<path fill="none" stroke="midnightblue" d="M941.73,-370.98C929.26,-342.59 902.22,-289.03 864,-257 859.54,-253.26 854.24,-250.17 848.86,-247.64"/>
<polygon fill="midnightblue" stroke="midnightblue" points="938.53,-372.39 945.66,-380.22 944.97,-369.65 938.53,-372.39"/>
</g>
<!-- Node3 -->
<g id="node3" class="node">
<title>Node3</title>
<g id="a_node3"><a xlink:href="hud__renderer_8c.html#a9065774ec4ed94e156b8d27bb1988db2" target="_top" xlink:title=" ">
<polygon fill="white" stroke="black" points="642.5,-684.5 642.5,-703.5 734.5,-703.5 734.5,-684.5 642.5,-684.5"/>
<text text-anchor="middle" x="688.5" y="-691.5" font-family="Helvetica,sans-Serif" font-size="10.00">func_80046DF4</text>
</a>
</g>
</g>
<!-- Node2&#45;&gt;Node3 -->
<g id="edge2" class="edge">
<title>Node2&#45;&gt;Node3</title>
<path fill="none" stroke="midnightblue" d="M761.2,-694C752.42,-694 743.43,-694 734.92,-694"/>
<polygon fill="midnightblue" stroke="midnightblue" points="761.37,-697.5 771.37,-694 761.37,-690.5 761.37,-697.5"/>
</g>
<!-- Node5 -->
<g id="node5" class="node">
<title>Node5</title>
<g id="a_node5"><a xlink:href="hud__renderer_8c.html#a4948aa3ef9343db4a3ee3920b86c85e5" target="_top" xlink:title=" ">
<polygon fill="white" stroke="black" points="642.5,-646.5 642.5,-665.5 734.5,-665.5 734.5,-646.5 642.5,-646.5"/>
<text text-anchor="middle" x="688.5" y="-653.5" font-family="Helvetica,sans-Serif" font-size="10.00">func_80048AB4</text>
</a>
</g>
</g>
<!-- Node4&#45;&gt;Node5 -->
<g id="edge4" class="edge">
<title>Node4&#45;&gt;Node5</title>
<path fill="none" stroke="midnightblue" d="M761.2,-656C752.42,-656 743.43,-656 734.92,-656"/>
<polygon fill="midnightblue" stroke="midnightblue" points="761.37,-659.5 771.37,-656 761.37,-652.5 761.37,-659.5"/>
</g>
<!-- Node8 -->
<g id="node8" class="node">
<title>Node8</title>
<g id="a_node8"><a xlink:href="hud__renderer_8c.html#aeb5bbd2c8dade61ce1e4e9b2277feb93" target="_top" xlink:title=" ">
<polygon fill="white" stroke="black" points="642.5,-570.5 642.5,-589.5 734.5,-589.5 734.5,-570.5 642.5,-570.5"/>
<text text-anchor="middle" x="688.5" y="-577.5" font-family="Helvetica,sans-Serif" font-size="10.00">func_80048B24</text>
</a>
</g>
</g>
<!-- Node7&#45;&gt;Node8 -->
<g id="edge7" class="edge">
<title>Node7&#45;&gt;Node8</title>
<path fill="none" stroke="midnightblue" d="M761.2,-580C752.42,-580 743.43,-580 734.92,-580"/>
<polygon fill="midnightblue" stroke="midnightblue" points="761.37,-583.5 771.37,-580 761.37,-576.5 761.37,-583.5"/>
</g>
<!-- Node12 -->
<g id="node12" class="node">
<title>Node12</title>
<g id="a_node12"><a xlink:href="hud__renderer_8c.html#aeb4d300bd33b6a38af50cb4ee144d68b" target="_top" xlink:title=" ">
<polygon fill="white" stroke="black" points="642.5,-456.5 642.5,-475.5 734.5,-475.5 734.5,-456.5 642.5,-456.5"/>
<text text-anchor="middle" x="688.5" y="-463.5" font-family="Helvetica,sans-Serif" font-size="10.00">func_80048C90</text>
</a>
</g>
</g>
<!-- Node11&#45;&gt;Node12 -->
<g id="edge11" class="edge">
<title>Node11&#45;&gt;Node12</title>
<path fill="none" stroke="midnightblue" d="M761.2,-466C752.42,-466 743.43,-466 734.92,-466"/>
<polygon fill="midnightblue" stroke="midnightblue" points="761.37,-469.5 771.37,-466 761.37,-462.5 761.37,-469.5"/>
</g>
<!-- Node15 -->
<g id="node15" class="node">
<title>Node15</title>
<g id="a_node15"><a xlink:href="hud__renderer_8c.html#af3c6d1a554f012f7e7b9514b4930e0e1" target="_top" xlink:title=" ">
<polygon fill="white" stroke="black" points="642.5,-380.5 642.5,-399.5 734.5,-399.5 734.5,-380.5 642.5,-380.5"/>
<text text-anchor="middle" x="688.5" y="-387.5" font-family="Helvetica,sans-Serif" font-size="10.00">func_80048CEC</text>
</a>
</g>
</g>
<!-- Node14&#45;&gt;Node15 -->
<g id="edge14" class="edge">
<title>Node14&#45;&gt;Node15</title>
<path fill="none" stroke="midnightblue" d="M761.2,-390C752.42,-390 743.43,-390 734.92,-390"/>
<polygon fill="midnightblue" stroke="midnightblue" points="761.37,-393.5 771.37,-390 761.37,-386.5 761.37,-393.5"/>
</g>
<!-- Node18 -->
<g id="node18" class="node">
<title>Node18</title>
<g id="a_node18"><a xlink:href="hud__renderer_8c.html#a8ca40d15fcc4bfbb350e4b295751e9ca" target="_top" xlink:title=" ">
<polygon fill="white" stroke="black" points="642.5,-266.5 642.5,-285.5 734.5,-285.5 734.5,-266.5 642.5,-266.5"/>
<text text-anchor="middle" x="688.5" y="-273.5" font-family="Helvetica,sans-Serif" font-size="10.00">func_80048D48</text>
</a>
</g>
</g>
<!-- Node17&#45;&gt;Node18 -->
<g id="edge17" class="edge">
<title>Node17&#45;&gt;Node18</title>
<path fill="none" stroke="midnightblue" d="M761.2,-276C752.42,-276 743.43,-276 734.92,-276"/>
<polygon fill="midnightblue" stroke="midnightblue" points="761.37,-279.5 771.37,-276 761.37,-272.5 761.37,-279.5"/>
</g>
<!-- Node19 -->
<g id="node19" class="node">
<title>Node19</title>
<g id="a_node19"><a xlink:href="hud__renderer_8c.html#a919b2af05d4e4d41b9c870be74106ac1" target="_top" xlink:title=" ">
<polygon fill="white" stroke="black" points="642.5,-228.5 642.5,-247.5 734.5,-247.5 734.5,-228.5 642.5,-228.5"/>
<text text-anchor="middle" x="688.5" y="-235.5" font-family="Helvetica,sans-Serif" font-size="10.00">func_800523B8</text>
</a>
</g>
</g>
<!-- Node17&#45;&gt;Node19 -->
<g id="edge18" class="edge">
<title>Node17&#45;&gt;Node19</title>
<path fill="none" stroke="midnightblue" d="M774.61,-263.46C757.33,-258.3 737.63,-252.4 721.54,-247.59"/>
<polygon fill="midnightblue" stroke="midnightblue" points="773.87,-266.9 784.45,-266.41 775.88,-260.19 773.87,-266.9"/>
</g>
<!-- Node20 -->
<g id="node20" class="node">
<title>Node20</title>
<g id="a_node20"><a xlink:href="hud__renderer_8c.html#a4f651575d536a825db07d1bf3a634f7b" target="_top" xlink:title=" ">
<polygon fill="white" stroke="black" points="514,-247.5 514,-266.5 606,-266.5 606,-247.5 514,-247.5"/>
<text text-anchor="middle" x="560" y="-254.5" font-family="Helvetica,sans-Serif" font-size="10.00">func_800524B4</text>
</a>
</g>
</g>
<!-- Node19&#45;&gt;Node20 -->
<g id="edge19" class="edge">
<title>Node19&#45;&gt;Node20</title>
<path fill="none" stroke="midnightblue" d="M632.21,-246.3C623.59,-247.6 614.78,-248.92 606.42,-250.18"/>
<polygon fill="midnightblue" stroke="midnightblue" points="632.82,-249.75 642.19,-244.81 631.78,-242.83 632.82,-249.75"/>
</g>
<!-- Node21 -->
<g id="node21" class="node">
<title>Node21</title>
<g id="a_node21"><a xlink:href="code__80057C60_8c.html#af24ad533f14909c93fae912e5253babb" target="_top" xlink:title=" ">
<polygon fill="white" stroke="black" points="386.5,-266.5 386.5,-285.5 477.5,-285.5 477.5,-266.5 386.5,-266.5"/>
<text text-anchor="middle" x="432" y="-273.5" font-family="Helvetica,sans-Serif" font-size="10.00">func_800588F4</text>
</a>
</g>
</g>
<!-- Node20&#45;&gt;Node21 -->
<g id="edge20" class="edge">
<title>Node20&#45;&gt;Node21</title>
<path fill="none" stroke="midnightblue" d="M503.8,-265.32C495.12,-266.63 486.23,-267.97 477.82,-269.24"/>
<polygon fill="midnightblue" stroke="midnightblue" points="504.5,-268.76 513.87,-263.81 503.46,-261.84 504.5,-268.76"/>
</g>
<!-- Node22 -->
<g id="node22" class="node">
<title>Node22</title>
<g id="a_node22"><a xlink:href="code__80057C60_8c.html#a556bf545c738904aa82de0c61a87a6cc" target="_top" xlink:title=" ">
<polygon fill="white" stroke="black" points="258,-342.5 258,-361.5 350,-361.5 350,-342.5 258,-342.5"/>
<text text-anchor="middle" x="304" y="-349.5" font-family="Helvetica,sans-Serif" font-size="10.00">func_800581C8</text>
</a>
</g>
</g>
<!-- Node21&#45;&gt;Node22 -->
<g id="edge21" class="edge">
<title>Node21&#45;&gt;Node22</title>
<path fill="none" stroke="midnightblue" d="M394.17,-290.02C391.32,-291.56 388.57,-293.22 386,-295 366.88,-308.25 369.12,-319.75 350,-333 344.7,-336.67 338.58,-339.84 332.6,-342.47"/>
<polygon fill="midnightblue" stroke="midnightblue" points="395.94,-293.05 403.4,-285.53 392.88,-286.76 395.94,-293.05"/>
</g>
<!-- Node43 -->
<g id="node33" class="node">
<title>Node43</title>
<g id="a_node33"><a xlink:href="code__80057C60_8c.html#a2079974b7805c9bad85e80bf6cade0ad" target="_top" xlink:title=" ">
<polygon fill="white" stroke="black" points="258,-304.5 258,-323.5 350,-323.5 350,-304.5 258,-304.5"/>
<text text-anchor="middle" x="304" y="-311.5" font-family="Helvetica,sans-Serif" font-size="10.00">func_800582CC</text>
</a>
</g>
</g>
<!-- Node21&#45;&gt;Node43 -->
<g id="edge32" class="edge">
<title>Node21&#45;&gt;Node43</title>
<path fill="none" stroke="midnightblue" d="M389.44,-288.54C372.29,-293.7 352.75,-299.6 336.78,-304.41"/>
<polygon fill="midnightblue" stroke="midnightblue" points="390.64,-291.83 399.2,-285.59 388.62,-285.13 390.64,-291.83"/>
</g>
<!-- Node44 -->
<g id="node34" class="node">
<title>Node44</title>
<g id="a_node34"><a xlink:href="code__80057C60_8c.html#a85697f0bd455d3f914d34a7a455cfbfa" target="_top" xlink:title=" ">
<polygon fill="white" stroke="black" points="258.5,-266.5 258.5,-285.5 349.5,-285.5 349.5,-266.5 258.5,-266.5"/>
<text text-anchor="middle" x="304" y="-273.5" font-family="Helvetica,sans-Serif" font-size="10.00">func_80058394</text>
</a>
</g>
</g>
<!-- Node21&#45;&gt;Node44 -->
<g id="edge34" class="edge">
<title>Node21&#45;&gt;Node44</title>
<path fill="none" stroke="midnightblue" d="M376.01,-276C367.2,-276 358.17,-276 349.63,-276"/>
<polygon fill="midnightblue" stroke="midnightblue" points="376.22,-279.5 386.22,-276 376.22,-272.5 376.22,-279.5"/>
</g>
<!-- Node45 -->
<g id="node35" class="node">
<title>Node45</title>
<g id="a_node35"><a xlink:href="code__80057C60_8c.html#affd2e4448303dd47e3cac91dbdacf1cc" target="_top" xlink:title=" ">
<polygon fill="white" stroke="black" points="258,-228.5 258,-247.5 350,-247.5 350,-228.5 258,-228.5"/>
<text text-anchor="middle" x="304" y="-235.5" font-family="Helvetica,sans-Serif" font-size="10.00">func_8005845C</text>
</a>
</g>
</g>
<!-- Node21&#45;&gt;Node45 -->
<g id="edge36" class="edge">
<title>Node21&#45;&gt;Node45</title>
<path fill="none" stroke="midnightblue" d="M389.44,-263.46C372.29,-258.3 352.75,-252.4 336.78,-247.59"/>
<polygon fill="midnightblue" stroke="midnightblue" points="388.62,-266.87 399.2,-266.41 390.64,-260.17 388.62,-266.87"/>
</g>
<!-- Node23 -->
<g id="node23" class="node">
<title>Node23</title>
<g id="a_node23"><a xlink:href="code__80057C60_8c.html#a4bd90115d861aa37b15e0d9a26b8b4b1" target="_top" xlink:title=" ">
<polygon fill="white" stroke="red" points="130,-266.5 130,-285.5 221,-285.5 221,-266.5 130,-266.5"/>
<text text-anchor="middle" x="175.5" y="-273.5" font-family="Helvetica,sans-Serif" font-size="10.00">func_80058090</text>
</a>
</g>
</g>
<!-- Node22&#45;&gt;Node23 -->
<g id="edge22" class="edge">
<title>Node22&#45;&gt;Node23</title>
<path fill="none" stroke="midnightblue" d="M268.4,-338.27C264.84,-336.6 261.31,-334.83 258,-333 231.86,-318.55 203.83,-297.6 188.4,-285.53"/>
<polygon fill="midnightblue" stroke="midnightblue" points="267.24,-341.59 277.8,-342.46 270.09,-335.2 267.24,-341.59"/>
</g>
<!-- Node24 -->
<g id="node24" class="node">
<title>Node24</title>
<g id="a_node24"><a xlink:href="code__80280000_8c.html#aa9c130485d39c4a7276605b30db5150e" target="_top" xlink:title=" ">
<polygon fill="white" stroke="red" points="1,-380.5 1,-399.5 92,-399.5 92,-380.5 1,-380.5"/>
<text text-anchor="middle" x="46.5" y="-387.5" font-family="Helvetica,sans-Serif" font-size="10.00">func_80280038</text>
</a>
</g>
</g>
<!-- Node23&#45;&gt;Node24 -->
<g id="edge23" class="edge">
<title>Node23&#45;&gt;Node24</title>
<path fill="none" stroke="midnightblue" d="M162.76,-294.26C148.47,-315.23 122.57,-349.5 93,-371 87.88,-374.73 81.91,-377.88 76.02,-380.49"/>
<polygon fill="midnightblue" stroke="midnightblue" points="165.86,-295.92 168.47,-285.66 160.03,-292.05 165.86,-295.92"/>
</g>
<!-- Node31 -->
<g id="node25" class="node">
<title>Node31</title>
<g id="a_node25"><a xlink:href="code__80281C40_8c.html#af6f6a1f0caec6d086a4ab98602a6670e" target="_top" xlink:title=" ">
<polygon fill="white" stroke="red" points="0.5,-418.5 0.5,-437.5 92.5,-437.5 92.5,-418.5 0.5,-418.5"/>
<text text-anchor="middle" x="46.5" y="-425.5" font-family="Helvetica,sans-Serif" font-size="10.00">func_80281D00</text>
</a>
</g>
</g>
<!-- Node23&#45;&gt;Node31 -->
<g id="edge24" class="edge">
<title>Node23&#45;&gt;Node31</title>
<path fill="none" stroke="midnightblue" d="M167.18,-295.4C155.52,-323.89 130.2,-377.13 93,-409 88.58,-412.79 83.3,-415.9 77.92,-418.44"/>
<polygon fill="midnightblue" stroke="midnightblue" points="170.56,-296.37 170.97,-285.78 164.04,-293.8 170.56,-296.37"/>
</g>
<!-- Node33 -->
<g id="node26" class="node">
<title>Node33</title>
<g id="a_node26"><a xlink:href="skybox__and__splitscreen_8c.html#a94c46fe3fe5eef642ce3520b68504133" target="_top" xlink:title=" ">
<polygon fill="white" stroke="red" points="0.5,-152.5 0.5,-171.5 92.5,-171.5 92.5,-152.5 0.5,-152.5"/>
<text text-anchor="middle" x="46.5" y="-159.5" font-family="Helvetica,sans-Serif" font-size="10.00">func_802A59A4</text>
</a>
</g>
</g>
<!-- Node23&#45;&gt;Node33 -->
<g id="edge25" class="edge">
<title>Node23&#45;&gt;Node33</title>
<path fill="none" stroke="midnightblue" d="M152.86,-260.22C144.87,-253.82 136.04,-246.05 129,-238 109.26,-215.46 115.89,-200.34 93,-181 88.55,-177.24 83.26,-174.14 77.88,-171.61"/>
<polygon fill="midnightblue" stroke="midnightblue" points="150.73,-263 160.79,-266.34 155.01,-257.46 150.73,-263"/>
</g>
<!-- Node35 -->
<g id="node27" class="node">
<title>Node35</title>
<g id="a_node27"><a xlink:href="skybox__and__splitscreen_8c.html#a9be31591c8a78c96ca86c1b87c3ec0a8" target="_top" xlink:title=" ">
<polygon fill="white" stroke="red" points="0,-114.5 0,-133.5 93,-133.5 93,-114.5 0,-114.5"/>
<text text-anchor="middle" x="46.5" y="-121.5" font-family="Helvetica,sans-Serif" font-size="10.00">func_802A5CB4</text>
</a>
</g>
</g>
<!-- Node23&#45;&gt;Node35 -->
<g id="edge26" class="edge">
<title>Node23&#45;&gt;Node35</title>
<path fill="none" stroke="midnightblue" d="M151.02,-260.18C143.2,-254 134.96,-246.37 129,-238 102.82,-201.22 124.39,-175.46 93,-143 89.31,-139.19 84.74,-136.1 79.93,-133.62"/>
<polygon fill="midnightblue" stroke="midnightblue" points="149.12,-263.13 159.23,-266.3 153.3,-257.52 149.12,-263.13"/>
</g>
<!-- Node36 -->
<g id="node28" class="node">
<title>Node36</title>
<g id="a_node28"><a xlink:href="skybox__and__splitscreen_8c.html#a3f9172888ae23d5920b6c6b352af2bd3" target="_top" xlink:title=" ">
<polygon fill="white" stroke="red" points="0.5,-342.5 0.5,-361.5 92.5,-361.5 92.5,-342.5 0.5,-342.5"/>
<text text-anchor="middle" x="46.5" y="-349.5" font-family="Helvetica,sans-Serif" font-size="10.00">func_802A5FAC</text>
</a>
</g>
</g>
<!-- Node23&#45;&gt;Node36 -->
<g id="edge27" class="edge">
<title>Node23&#45;&gt;Node36</title>
<path fill="none" stroke="midnightblue" d="M154.51,-291.81C138.48,-304.03 115.08,-320.85 93,-333 86.7,-336.47 79.64,-339.7 72.99,-342.49"/>
<polygon fill="midnightblue" stroke="midnightblue" points="156.84,-294.43 162.61,-285.55 152.55,-288.9 156.84,-294.43"/>
</g>
<!-- Node37 -->
<g id="node29" class="node">
<title>Node37</title>
<g id="a_node29"><a xlink:href="skybox__and__splitscreen_8c.html#a897b8a8f9d54144b0916eb7173651af0" target="_top" xlink:title=" ">
<polygon fill="white" stroke="red" points="0.5,-304.5 0.5,-323.5 92.5,-323.5 92.5,-304.5 0.5,-304.5"/>
<text text-anchor="middle" x="46.5" y="-311.5" font-family="Helvetica,sans-Serif" font-size="10.00">func_802A62A4</text>
</a>
</g>
</g>
<!-- Node23&#45;&gt;Node37 -->
<g id="edge28" class="edge">
<title>Node23&#45;&gt;Node37</title>
<path fill="none" stroke="midnightblue" d="M132.61,-288.54C115.33,-293.7 95.63,-299.6 79.54,-304.41"/>
<polygon fill="midnightblue" stroke="midnightblue" points="133.88,-291.81 142.45,-285.59 131.87,-285.1 133.88,-291.81"/>
</g>
<!-- Node38 -->
<g id="node30" class="node">
<title>Node38</title>
<g id="a_node30"><a xlink:href="skybox__and__splitscreen_8c.html#acdf96ac83288ec562406d39e4dce3e01" target="_top" xlink:title=" ">
<polygon fill="white" stroke="red" points="0.5,-266.5 0.5,-285.5 92.5,-285.5 92.5,-266.5 0.5,-266.5"/>
<text text-anchor="middle" x="46.5" y="-273.5" font-family="Helvetica,sans-Serif" font-size="10.00">func_802A65B8</text>
</a>
</g>
</g>
<!-- Node23&#45;&gt;Node38 -->
<g id="edge29" class="edge">
<title>Node23&#45;&gt;Node38</title>
<path fill="none" stroke="midnightblue" d="M119.7,-276C110.7,-276 101.46,-276 92.73,-276"/>
<polygon fill="midnightblue" stroke="midnightblue" points="119.72,-279.5 129.72,-276 119.72,-272.5 119.72,-279.5"/>
</g>
<!-- Node39 -->
<g id="node31" class="node">
<title>Node39</title>
<g id="a_node31"><a xlink:href="skybox__and__splitscreen_8c.html#accb6af916ac72e9b2186f11211419818" target="_top" xlink:title=" ">
<polygon fill="white" stroke="red" points="0,-228.5 0,-247.5 93,-247.5 93,-228.5 0,-228.5"/>
<text text-anchor="middle" x="46.5" y="-235.5" font-family="Helvetica,sans-Serif" font-size="10.00">func_802A68CC</text>
</a>
</g>
</g>
<!-- Node23&#45;&gt;Node39 -->
<g id="edge30" class="edge">
<title>Node23&#45;&gt;Node39</title>
<path fill="none" stroke="midnightblue" d="M132.61,-263.46C115.33,-258.3 95.63,-252.4 79.54,-247.59"/>
<polygon fill="midnightblue" stroke="midnightblue" points="131.87,-266.9 142.45,-266.41 133.88,-260.19 131.87,-266.9"/>
</g>
<!-- Node40 -->
<g id="node32" class="node">
<title>Node40</title>
<g id="a_node32"><a xlink:href="skybox__and__splitscreen_8c.html#a45bafabf82a007ad2129de0f35f7f637" target="_top" xlink:title=" ">
<polygon fill="white" stroke="red" points="0,-190.5 0,-209.5 93,-209.5 93,-190.5 0,-190.5"/>
<text text-anchor="middle" x="46.5" y="-197.5" font-family="Helvetica,sans-Serif" font-size="10.00">func_802A6BB0</text>
</a>
</g>
</g>
<!-- Node23&#45;&gt;Node40 -->
<g id="edge31" class="edge">
<title>Node23&#45;&gt;Node40</title>
<path fill="none" stroke="midnightblue" d="M154.51,-260.19C138.48,-247.97 115.08,-231.15 93,-219 86.7,-215.53 79.64,-212.3 72.99,-209.51"/>
<polygon fill="midnightblue" stroke="midnightblue" points="152.55,-263.1 162.61,-266.45 156.84,-257.57 152.55,-263.1"/>
</g>
<!-- Node43&#45;&gt;Node23 -->
<g id="edge33" class="edge">
<title>Node43&#45;&gt;Node23</title>
<path fill="none" stroke="midnightblue" d="M261.27,-301.46C244.06,-296.3 224.44,-290.4 208.41,-285.59"/>
<polygon fill="midnightblue" stroke="midnightblue" points="260.49,-304.89 271.08,-304.41 262.51,-298.18 260.49,-304.89"/>
</g>
<!-- Node44&#45;&gt;Node23 -->
<g id="edge35" class="edge">
<title>Node44&#45;&gt;Node23</title>
<path fill="none" stroke="midnightblue" d="M248.3,-276C239.22,-276 229.91,-276 221.12,-276"/>
<polygon fill="midnightblue" stroke="midnightblue" points="248.4,-279.5 258.4,-276 248.4,-272.5 248.4,-279.5"/>
</g>
<!-- Node45&#45;&gt;Node23 -->
<g id="edge37" class="edge">
<title>Node45&#45;&gt;Node23</title>
<path fill="none" stroke="midnightblue" d="M261.27,-250.54C244.06,-255.7 224.44,-261.6 208.41,-266.41"/>
<polygon fill="midnightblue" stroke="midnightblue" points="262.51,-253.82 271.08,-247.59 260.49,-247.11 262.51,-253.82"/>
</g>
<!-- Node47 -->
<g id="node37" class="node">
<title>Node47</title>
<g id="a_node37"><a xlink:href="hud__renderer_8c.html#aa291fdba9a25908240f43f47a9030a36" target="_top" xlink:title=" ">
<polygon fill="white" stroke="black" points="643,-152.5 643,-171.5 734,-171.5 734,-152.5 643,-152.5"/>
<text text-anchor="middle" x="688.5" y="-159.5" font-family="Helvetica,sans-Serif" font-size="10.00">func_80048780</text>
</a>
</g>
</g>
<!-- Node46&#45;&gt;Node47 -->
<g id="edge39" class="edge">
<title>Node46&#45;&gt;Node47</title>
<path fill="none" stroke="midnightblue" d="M761.58,-162C752.47,-162 743.12,-162 734.3,-162"/>
<polygon fill="midnightblue" stroke="midnightblue" points="761.72,-165.5 771.72,-162 761.72,-158.5 761.72,-165.5"/>
</g>
<!-- Node48 -->
<g id="node38" class="node">
<title>Node48</title>
<g id="a_node38"><a xlink:href="hud__renderer_8c.html#ab2dfb0f736edb239dcc9ae78ced95284" target="_top" xlink:title=" ">
<polygon fill="white" stroke="black" points="642,-114.5 642,-133.5 735,-133.5 735,-114.5 642,-114.5"/>
<text text-anchor="middle" x="688.5" y="-121.5" font-family="Helvetica,sans-Serif" font-size="10.00">func_80048DA4</text>
</a>
</g>
</g>
<!-- Node46&#45;&gt;Node48 -->
<g id="edge40" class="edge">
<title>Node46&#45;&gt;Node48</title>
<path fill="none" stroke="midnightblue" d="M774.61,-149.46C757.33,-144.3 737.63,-138.4 721.54,-133.59"/>
<polygon fill="midnightblue" stroke="midnightblue" points="773.87,-152.9 784.45,-152.41 775.88,-146.19 773.87,-152.9"/>
</g>
<!-- Node50 -->
<g id="node40" class="node">
<title>Node50</title>
<g id="a_node40"><a xlink:href="hud__renderer_8c.html#a6a85e4a45bd274bcc9f1d6743801b594" target="_top" xlink:title=" ">
<polygon fill="white" stroke="black" points="386,-304.5 386,-323.5 478,-323.5 478,-304.5 386,-304.5"/>
<text text-anchor="middle" x="432" y="-311.5" font-family="Helvetica,sans-Serif" font-size="10.00">func_800532A4</text>
</a>
</g>
</g>
<!-- Node49&#45;&gt;Node50 -->
<g id="edge42" class="edge">
<title>Node49&#45;&gt;Node50</title>
<path fill="none" stroke="midnightblue" d="M503.65,-314C495.16,-314 486.48,-314 478.24,-314"/>
<polygon fill="midnightblue" stroke="midnightblue" points="503.87,-317.5 513.87,-314 503.87,-310.5 503.87,-317.5"/>
</g>
<!-- Node50&#45;&gt;Node22 -->
<g id="edge43" class="edge">
<title>Node50&#45;&gt;Node22</title>
<path fill="none" stroke="midnightblue" d="M389.44,-326.54C372.29,-331.7 352.75,-337.6 336.78,-342.41"/>
<polygon fill="midnightblue" stroke="midnightblue" points="390.64,-329.83 399.2,-323.59 388.62,-323.13 390.64,-329.83"/>
</g>
<!-- Node50&#45;&gt;Node43 -->
<g id="edge44" class="edge">
<title>Node50&#45;&gt;Node43</title>
<path fill="none" stroke="midnightblue" d="M375.65,-314C367.16,-314 358.48,-314 350.24,-314"/>
<polygon fill="midnightblue" stroke="midnightblue" points="375.87,-317.5 385.87,-314 375.87,-310.5 375.87,-317.5"/>
</g>
<!-- Node50&#45;&gt;Node44 -->
<g id="edge45" class="edge">
<title>Node50&#45;&gt;Node44</title>
<path fill="none" stroke="midnightblue" d="M389.44,-301.46C372.29,-296.3 352.75,-290.4 336.78,-285.59"/>
<polygon fill="midnightblue" stroke="midnightblue" points="388.62,-304.87 399.2,-304.41 390.64,-298.17 388.62,-304.87"/>
</g>
<!-- Node50&#45;&gt;Node45 -->
<g id="edge46" class="edge">
<title>Node50&#45;&gt;Node45</title>
<path fill="none" stroke="midnightblue" d="M394.17,-299.98C391.32,-298.44 388.57,-296.78 386,-295 366.88,-281.75 369.12,-270.25 350,-257 344.7,-253.33 338.58,-250.16 332.6,-247.53"/>
<polygon fill="midnightblue" stroke="midnightblue" points="392.88,-303.24 403.4,-304.47 395.94,-296.95 392.88,-303.24"/>
</g>
<!-- Node52 -->
<g id="node42" class="node">
<title>Node52</title>
<g id="a_node42"><a xlink:href="hud__renderer_8c.html#aaa47aeace70f0c84226be78109628f51" target="_top" xlink:title=" ">
<polygon fill="white" stroke="black" points="642.5,-190.5 642.5,-209.5 734.5,-209.5 734.5,-190.5 642.5,-190.5"/>
<text text-anchor="middle" x="688.5" y="-197.5" font-family="Helvetica,sans-Serif" font-size="10.00">func_8004EB38</text>
</a>
</g>
</g>
<!-- Node51&#45;&gt;Node52 -->
<g id="edge48" class="edge">
<title>Node51&#45;&gt;Node52</title>
<path fill="none" stroke="midnightblue" d="M760.37,-200C751.84,-200 743.12,-200 734.86,-200"/>
<polygon fill="midnightblue" stroke="midnightblue" points="760.65,-203.5 770.65,-200 760.65,-196.5 760.65,-203.5"/>
</g>
<!-- Node53 -->
<g id="node43" class="node">
<title>Node53</title>
<g id="a_node43"><a xlink:href="code__80057C60_8c.html#a6051ac40ac976a71882df84a87524235" target="_top" xlink:title=" ">
<polygon fill="white" stroke="black" points="514.5,-190.5 514.5,-209.5 605.5,-209.5 605.5,-190.5 514.5,-190.5"/>
<text text-anchor="middle" x="560" y="-197.5" font-family="Helvetica,sans-Serif" font-size="10.00">func_80058F78</text>
</a>
</g>
</g>
<!-- Node52&#45;&gt;Node53 -->
<g id="edge49" class="edge">
<title>Node52&#45;&gt;Node53</title>
<path fill="none" stroke="midnightblue" d="M631.96,-200C623.13,-200 614.1,-200 605.57,-200"/>
<polygon fill="midnightblue" stroke="midnightblue" points="632.19,-203.5 642.19,-200 632.19,-196.5 632.19,-203.5"/>
</g>
<!-- Node54 -->
<g id="node44" class="node">
<title>Node54</title>
<g id="a_node44"><a xlink:href="code__80057C60_8c.html#a8eaee0ccd6685da7bbf2232b768860d1" target="_top" xlink:title=" ">
<polygon fill="white" stroke="red" points="129,-209.5 129,-228.5 222,-228.5 222,-209.5 129,-209.5"/>
<text text-anchor="middle" x="175.5" y="-216.5" font-family="Helvetica,sans-Serif" font-size="10.00">func_80058DB4</text>
</a>
</g>
</g>
<!-- Node53&#45;&gt;Node54 -->
<g id="edge50" class="edge">
<title>Node53&#45;&gt;Node54</title>
<path fill="none" stroke="midnightblue" d="M504.07,-202.73C428.17,-206.5 292.6,-213.23 222.03,-216.74"/>
<polygon fill="midnightblue" stroke="midnightblue" points="504.56,-206.21 514.37,-202.22 504.21,-199.22 504.56,-206.21"/>
</g>
<!-- Node54&#45;&gt;Node33 -->
<g id="edge51" class="edge">
<title>Node54&#45;&gt;Node33</title>
<path fill="none" stroke="midnightblue" d="M145.42,-205.09C129.93,-197.77 110.5,-188.73 93,-181 85.95,-177.89 78.24,-174.61 71.19,-171.68"/>
<polygon fill="midnightblue" stroke="midnightblue" points="143.97,-208.28 154.51,-209.4 146.97,-201.95 143.97,-208.28"/>
</g>
<!-- Node54&#45;&gt;Node35 -->
<g id="edge52" class="edge">
<title>Node54&#45;&gt;Node35</title>
<path fill="none" stroke="midnightblue" d="M159.64,-201.98C144.29,-185.23 118.98,-159.77 93,-143 87.39,-139.38 80.97,-136.2 74.76,-133.53"/>
<polygon fill="midnightblue" stroke="midnightblue" points="157.05,-204.34 166.33,-209.44 162.26,-199.66 157.05,-204.34"/>
</g>
<!-- Node54&#45;&gt;Node36 -->
<g id="edge53" class="edge">
<title>Node54&#45;&gt;Node36</title>
<path fill="none" stroke="midnightblue" d="M151.74,-234.82C143.84,-241.08 135.38,-248.75 129,-257 106.12,-286.56 120.04,-307.2 93,-333 89.04,-336.78 84.21,-339.86 79.2,-342.35"/>
<polygon fill="midnightblue" stroke="midnightblue" points="154.08,-237.44 159.95,-228.62 149.86,-231.85 154.08,-237.44"/>
</g>
<!-- Node54&#45;&gt;Node37 -->
<g id="edge54" class="edge">
<title>Node54&#45;&gt;Node37</title>
<path fill="none" stroke="midnightblue" d="M154.33,-234.99C146.27,-241.6 137.02,-249.47 129,-257 112.04,-272.93 112.15,-281.79 93,-295 87.79,-298.6 81.78,-301.7 75.89,-304.3"/>
<polygon fill="midnightblue" stroke="midnightblue" points="156.62,-237.64 162.2,-228.63 152.22,-232.2 156.62,-237.64"/>
</g>
<!-- Node54&#45;&gt;Node38 -->
<g id="edge55" class="edge">
<title>Node54&#45;&gt;Node38</title>
<path fill="none" stroke="midnightblue" d="M145.42,-232.91C129.93,-240.23 110.5,-249.27 93,-257 85.95,-260.11 78.24,-263.39 71.19,-266.32"/>
<polygon fill="midnightblue" stroke="midnightblue" points="146.97,-236.05 154.51,-228.6 143.97,-229.72 146.97,-236.05"/>
</g>
<!-- Node54&#45;&gt;Node39 -->
<g id="edge56" class="edge">
<title>Node54&#45;&gt;Node39</title>
<path fill="none" stroke="midnightblue" d="M118.5,-227.38C110.07,-228.64 101.46,-229.93 93.28,-231.15"/>
<polygon fill="midnightblue" stroke="midnightblue" points="119.28,-230.8 128.65,-225.86 118.24,-223.88 119.28,-230.8"/>
</g>
<!-- Node54&#45;&gt;Node40 -->
<g id="edge57" class="edge">
<title>Node54&#45;&gt;Node40</title>
<path fill="none" stroke="midnightblue" d="M118.5,-210.62C110.07,-209.36 101.46,-208.07 93.28,-206.85"/>
<polygon fill="midnightblue" stroke="midnightblue" points="118.24,-214.12 128.65,-212.14 119.28,-207.2 118.24,-214.12"/>
</g>
<!-- Node56 -->
<g id="node46" class="node">
<title>Node56</title>
<g id="a_node46"><a xlink:href="hud__renderer_8c.html#a4ed831dde451cb4f306bea2d00feec5f" target="_top" xlink:title=" ">
<polygon fill="white" stroke="black" points="643,-76.5 643,-95.5 734,-95.5 734,-76.5 643,-76.5"/>
<text text-anchor="middle" x="688.5" y="-83.5" font-family="Helvetica,sans-Serif" font-size="10.00">func_8004E3F4</text>
</a>
</g>
</g>
<!-- Node55&#45;&gt;Node56 -->
<g id="edge59" class="edge">
<title>Node55&#45;&gt;Node56</title>
<path fill="none" stroke="midnightblue" d="M761.25,-86C752.16,-86 742.84,-86 734.06,-86"/>
<polygon fill="midnightblue" stroke="midnightblue" points="761.37,-89.5 771.37,-86 761.37,-82.5 761.37,-89.5"/>
</g>
<!-- Node57 -->
<g id="node47" class="node">
<title>Node57</title>
<g id="a_node47"><a xlink:href="hud__renderer_8c.html#a8b036651ea693d5eb9c24a0c0df83d40" target="_top" xlink:title=" ">
<polygon fill="white" stroke="black" points="642.5,-38.5 642.5,-57.5 734.5,-57.5 734.5,-38.5 642.5,-38.5"/>
<text text-anchor="middle" x="688.5" y="-45.5" font-family="Helvetica,sans-Serif" font-size="10.00">func_8004E59C</text>
</a>
</g>
</g>
<!-- Node55&#45;&gt;Node57 -->
<g id="edge60" class="edge">
<title>Node55&#45;&gt;Node57</title>
<path fill="none" stroke="midnightblue" d="M774.61,-73.46C757.33,-68.3 737.63,-62.4 721.54,-57.59"/>
<polygon fill="midnightblue" stroke="midnightblue" points="773.87,-76.9 784.45,-76.41 775.88,-70.19 773.87,-76.9"/>
</g>
<!-- Node59 -->
<g id="node49" class="node">
<title>Node59</title>
<g id="a_node49"><a xlink:href="hud__renderer_8c.html#a904ac0d6c4b3c0abc1f0ae5988567615" target="_top" xlink:title=" ">
<polygon fill="white" stroke="black" points="642.5,-0.5 642.5,-19.5 734.5,-19.5 734.5,-0.5 642.5,-0.5"/>
<text text-anchor="middle" x="688.5" y="-7.5" font-family="Helvetica,sans-Serif" font-size="10.00">func_8004E5D8</text>
</a>
</g>
</g>
<!-- Node58&#45;&gt;Node59 -->
<g id="edge62" class="edge">
<title>Node58&#45;&gt;Node59</title>
<path fill="none" stroke="midnightblue" d="M761.7,-20.8C752.7,-19.46 743.46,-18.07 734.73,-16.77"/>
<polygon fill="midnightblue" stroke="midnightblue" points="761.32,-24.28 771.72,-22.3 762.35,-17.36 761.32,-24.28"/>
</g>
<!-- Node60&#45;&gt;Node52 -->
<g id="edge64" class="edge">
<title>Node60&#45;&gt;Node52</title>
<path fill="none" stroke="midnightblue" d="M774.61,-225.46C757.33,-220.3 737.63,-214.4 721.54,-209.59"/>
<polygon fill="midnightblue" stroke="midnightblue" points="773.87,-228.9 784.45,-228.41 775.88,-222.19 773.87,-228.9"/>
</g>
</g>
</svg>
        <g id="navigator" transform="translate(0 0)" fill="#404254">
                <rect fill="#f2f5e9" fill-opacity="0.5" stroke="#606060" stroke-width=".5" x="0" y="0" width="60" height="60"/>
                <use id="zoomplus" xlink:href="#zoomPlus" x="17" y="9" onmousedown="handleZoom(evt,'in')"/>
                <use id="zoomminus" xlink:href="#zoomMin" x="42" y="9" onmousedown="handleZoom(evt,'out')"/>
                <use id="reset" xlink:href="#resetDef" x="30" y="36" onmousedown="handleReset()"/>
                <g id="arrowUp" xlink:href="#dirArrow" transform="translate(30 24)" onmousedown="handlePan(0,-1)">
                  <use xlink:href="#rim" fill="#404040">
                        <set attributeName="fill" to="#808080" begin="arrowUp.mouseover" end="arrowUp.mouseout"/>
                  </use>
                  <path fill="none" stroke="white" stroke-width="1.5" d="M0,-3.0v7 M-2.5,-0.5L0,-3.0L2.5,-0.5"/>
                </g>
                <g id="arrowRight" xlink:href="#dirArrow" transform="rotate(90) translate(36 -43)" onmousedown="handlePan(1,0)">
                  <use xlink:href="#rim" fill="#404040">
                        <set attributeName="fill" to="#808080" begin="arrowRight.mouseover" end="arrowRight.mouseout"/>
                  </use>
                  <path fill="none" stroke="white" stroke-width="1.5" d="M0,-3.0v7 M-2.5,-0.5L0,-3.0L2.5,-0.5"/>
                </g>
                <g id="arrowDown" xlink:href="#dirArrow" transform="rotate(180) translate(-30 -48)" onmousedown="handlePan(0,1)">
                  <use xlink:href="#rim" fill="#404040">
                        <set attributeName="fill" to="#808080" begin="arrowDown.mouseover" end="arrowDown.mouseout"/>
                  </use>
                  <path fill="none" stroke="white" stroke-width="1.5" d="M0,-3.0v7 M-2.5,-0.5L0,-3.0L2.5,-0.5"/>
                </g>
                <g id="arrowLeft" xlink:href="#dirArrow" transform="rotate(270) translate(-36 17)" onmousedown="handlePan(-1,0)">
                  <use xlink:href="#rim" fill="#404040">
                        <set attributeName="fill" to="#808080" begin="arrowLeft.mouseover" end="arrowLeft.mouseout"/>
                  </use>
                  <path fill="none" stroke="white" stroke-width="1.5" d="M0,-3.0v7 M-2.5,-0.5L0,-3.0L2.5,-0.5"/>
                </g>
        </g>
        <svg viewBox="0 0 15 15" width="100%" height="30px" preserveAspectRatio="xMaxYMin meet">
         <g id="arrow_out" transform="scale(0.3 0.3)">
          <a xlink:href="hud__renderer_8h_af7ef58600088827f33dcc3735a0019d9_icgraph_org.svg" target="_base">
           <rect id="button" ry="5" rx="5" y="6" x="6" height="38" width="38"
                fill="#f2f5e9" fill-opacity="0.5" stroke="#606060" stroke-width="1.0"/>
           <path id="arrow"
             d="M 11.500037,31.436501 C 11.940474,20.09759 22.043105,11.32322 32.158766,21.979434 L 37.068811,17.246167 C 37.068811,17.246167 37.088388,32 37.088388,32 L 22.160133,31.978069 C 22.160133,31.978069 26.997745,27.140456 26.997745,27.140456 C 18.528582,18.264221 13.291696,25.230495 11.500037,31.436501 z"
             style="fill:#404040;"/>
          </a>
         </g>
        </svg>
</svg>
