<?xml version="1.0" encoding="UTF-8" standalone="no"?>
<!DOCTYPE svg PUBLIC "-//W3C//DTD SVG 1.1//EN"
 "http://www.w3.org/Graphics/SVG/1.1/DTD/svg11.dtd">
<!-- Generated by graphviz version 2.43.0 (0)
 -->
<!-- Title: func_80043D50 Pages: 1 -->
<!--zoomable 1130 -->
<svg id="main" version="1.1" xmlns="http://www.w3.org/2000/svg" xmlns:xlink="http://www.w3.org/1999/xlink" xml:space="preserve" onload="init(evt)">
<style type="text/css"><![CDATA[
.edge:hover path { stroke: red; }
.edge:hover polygon { stroke: red; fill: red; }
]]></style>
<script type="text/javascript"><![CDATA[
var edges = document.getElementsByTagName('g');
if (edges && edges.length) {
  for (var i=0;i<edges.length;i++) {
    if (edges[i].id.substr(0,4)=='edge') {
      edges[i].setAttribute('class','edge');
    }
  }
}
]]></script>
        <defs>
                <circle id="rim" cx="0" cy="0" r="7"/>
                <circle id="rim2" cx="0" cy="0" r="3.5"/>
                <g id="zoomPlus">
                        <use xlink:href="#rim" fill="#404040">
                                <set attributeName="fill" to="#808080" begin="zoomplus.mouseover" end="zoomplus.mouseout"/>
                        </use>
                        <path d="M-4,0h8M0,-4v8" fill="none" stroke="white" stroke-width="1.5" pointer-events="none"/>
                </g>
                <g id="zoomMin">
                        <use xlink:href="#rim" fill="#404040">
                                <set attributeName="fill" to="#808080" begin="zoomminus.mouseover" end="zoomminus.mouseout"/>
                        </use>
                        <path d="M-4,0h8" fill="none" stroke="white" stroke-width="1.5" pointer-events="none"/>
                </g>
                <g id="dirArrow">
                        <path fill="none" stroke="white" stroke-width="1.5" d="M0,-3.0v7 M-2.5,-0.5L0,-3.0L2.5,-0.5"/>
                </g>
               <g id="resetDef">
                       <use xlink:href="#rim2" fill="#404040">
                               <set attributeName="fill" to="#808080" begin="reset.mouseover" end="reset.mouseout"/>
                       </use>
               </g>
        </defs>

<script type="text/javascript">
var viewWidth = 488;
var viewHeight = 1130;
var sectionId = 'dynsection-31';
</script>
<script xlink:href="svgpan.js"/>
<svg id="graph" class="graph">
<g id="viewport">
<title>func_80043D50</title>
<polygon fill="white" stroke="transparent" points="-4,4 -4,-1126 484,-1126 484,4 -4,4"/>
<!-- Node1 -->
<g id="node1" class="node">
<title>Node1</title>
<g id="a_node1"><a xlink:title=" ">
<polygon fill="#bfbfbf" stroke="black" points="388,-304.5 388,-323.5 480,-323.5 480,-304.5 388,-304.5"/>
<text text-anchor="middle" x="434" y="-311.5" font-family="Helvetica,sans-Serif" font-size="10.00">func_80043D50</text>
</a>
</g>
</g>
<!-- Node2 -->
<g id="node2" class="node">
<title>Node2</title>
<g id="a_node2"><a xlink:href="hud__renderer_8c.html#a8529c96be58e31ec0cced65c056be1b6" target="_top" xlink:title=" ">
<polygon fill="white" stroke="black" points="259,-1064.5 259,-1083.5 352,-1083.5 352,-1064.5 259,-1064.5"/>
<text text-anchor="middle" x="305.5" y="-1071.5" font-family="Helvetica,sans-Serif" font-size="10.00">func_80045D0C</text>
</a>
</g>
</g>
<!-- Node1&#45;&gt;Node2 -->
<g id="edge1" class="edge">
<title>Node1&#45;&gt;Node2</title>
<path fill="none" stroke="midnightblue" d="M431.88,-334.06C427.19,-412.55 406.76,-706.14 352,-941 340.97,-988.3 319.6,-1042.43 310.62,-1064.19"/>
<polygon fill="midnightblue" stroke="midnightblue" points="435.4,-333.89 432.48,-323.71 428.41,-333.49 435.4,-333.89"/>
</g>
<!-- Node5 -->
<g id="node5" class="node">
<title>Node5</title>
<g id="a_node5"><a xlink:href="hud__renderer_8c.html#a178d89cdff8fdbdd155c7697bbed4605" target="_top" xlink:title=" ">
<polygon fill="white" stroke="black" points="260,-912.5 260,-931.5 351,-931.5 351,-912.5 260,-912.5"/>
<text text-anchor="middle" x="305.5" y="-919.5" font-family="Helvetica,sans-Serif" font-size="10.00">func_80045E10</text>
</a>
</g>
</g>
<!-- Node1&#45;&gt;Node5 -->
<g id="edge4" class="edge">
<title>Node1&#45;&gt;Node5</title>
<path fill="none" stroke="midnightblue" d="M431.92,-334.04C427.75,-403.67 409.86,-641.03 352,-827 341.79,-859.83 322.04,-895.67 312.26,-912.4"/>
<polygon fill="midnightblue" stroke="midnightblue" points="435.44,-333.86 432.52,-323.68 428.45,-333.46 435.44,-333.86"/>
</g>
<!-- Node20 -->
<g id="node14" class="node">
<title>Node20</title>
<g id="a_node14"><a xlink:href="hud__renderer_8c.html#aa19e6ba5db77980ac62f3185be94717d" target="_top" xlink:title=" ">
<polygon fill="white" stroke="black" points="259.5,-798.5 259.5,-817.5 351.5,-817.5 351.5,-798.5 259.5,-798.5"/>
<text text-anchor="middle" x="305.5" y="-805.5" font-family="Helvetica,sans-Serif" font-size="10.00">func_800466B0</text>
</a>
</g>
</g>
<!-- Node1&#45;&gt;Node20 -->
<g id="edge13" class="edge">
<title>Node1&#45;&gt;Node20</title>
<path fill="none" stroke="midnightblue" d="M432.11,-334.01C428.12,-414.88 409.59,-716.62 352,-789 348.91,-792.89 344.88,-795.99 340.5,-798.46"/>
<polygon fill="midnightblue" stroke="midnightblue" points="435.62,-333.89 432.59,-323.74 428.62,-333.56 435.62,-333.89"/>
</g>
<!-- Node22 -->
<g id="node16" class="node">
<title>Node22</title>
<g id="a_node16"><a xlink:href="hud__renderer_8c.html#a81310d6f39c38443eb9bb5d1726a3a2f" target="_top" xlink:title=" ">
<polygon fill="white" stroke="black" points="259.5,-760.5 259.5,-779.5 351.5,-779.5 351.5,-760.5 259.5,-760.5"/>
<text text-anchor="middle" x="305.5" y="-767.5" font-family="Helvetica,sans-Serif" font-size="10.00">func_80046A00</text>
</a>
</g>
</g>
<!-- Node1&#45;&gt;Node22 -->
<g id="edge15" class="edge">
<title>Node1&#45;&gt;Node22</title>
<path fill="none" stroke="midnightblue" d="M433.68,-333.74C434.97,-396.65 432.11,-596.26 352,-732 344.99,-743.88 332.85,-753.73 322.88,-760.43"/>
<polygon fill="midnightblue" stroke="midnightblue" points="437.18,-333.53 433.41,-323.63 430.18,-333.72 437.18,-333.53"/>
</g>
<!-- Node24 -->
<g id="node18" class="node">
<title>Node24</title>
<g id="a_node18"><a xlink:href="hud__renderer_8c.html#a33fc340f4fc3585368fc4612e85a606c" target="_top" xlink:title=" ">
<polygon fill="white" stroke="black" points="259.5,-646.5 259.5,-665.5 351.5,-665.5 351.5,-646.5 259.5,-646.5"/>
<text text-anchor="middle" x="305.5" y="-653.5" font-family="Helvetica,sans-Serif" font-size="10.00">func_8004C268</text>
</a>
</g>
</g>
<!-- Node1&#45;&gt;Node24 -->
<g id="edge17" class="edge">
<title>Node1&#45;&gt;Node24</title>
<path fill="none" stroke="midnightblue" d="M425.95,-333.07C402.44,-396.61 327.32,-599.72 310.06,-646.38"/>
<polygon fill="midnightblue" stroke="midnightblue" points="429.3,-334.1 429.48,-323.5 422.73,-331.67 429.3,-334.1"/>
</g>
<!-- Node47 -->
<g id="node22" class="node">
<title>Node47</title>
<g id="a_node22"><a xlink:href="hud__renderer_8c.html#a78570750891ab2837a1afc7015739fce" target="_top" xlink:title=" ">
<polygon fill="white" stroke="black" points="259.5,-456.5 259.5,-475.5 351.5,-475.5 351.5,-456.5 259.5,-456.5"/>
<text text-anchor="middle" x="305.5" y="-463.5" font-family="Helvetica,sans-Serif" font-size="10.00">func_8004C364</text>
</a>
</g>
</g>
<!-- Node1&#45;&gt;Node47 -->
<g id="edge21" class="edge">
<title>Node1&#45;&gt;Node47</title>
<path fill="none" stroke="midnightblue" d="M418.68,-331.2C391.95,-363.32 335.26,-431.44 314.41,-456.5"/>
<polygon fill="midnightblue" stroke="midnightblue" points="421.38,-333.43 425.09,-323.51 416,-328.96 421.38,-333.43"/>
</g>
<!-- Node69 -->
<g id="node34" class="node">
<title>Node69</title>
<g id="a_node34"><a xlink:href="hud__renderer_8c.html#af9f06ce81c1801e9958e8548c616446e" target="_top" xlink:title=" ">
<polygon fill="white" stroke="black" points="259.5,-304.5 259.5,-323.5 351.5,-323.5 351.5,-304.5 259.5,-304.5"/>
<text text-anchor="middle" x="305.5" y="-311.5" font-family="Helvetica,sans-Serif" font-size="10.00">func_8004C450</text>
</a>
</g>
</g>
<!-- Node1&#45;&gt;Node69 -->
<g id="edge33" class="edge">
<title>Node1&#45;&gt;Node69</title>
<path fill="none" stroke="midnightblue" d="M377.43,-314C368.9,-314 360.19,-314 351.92,-314"/>
<polygon fill="midnightblue" stroke="midnightblue" points="377.69,-317.5 387.69,-314 377.69,-310.5 377.69,-317.5"/>
</g>
<!-- Node70 -->
<g id="node35" class="node">
<title>Node70</title>
<g id="a_node35"><a xlink:href="hud__renderer_8c.html#a4db843afa68db5175a74d3ce4d971408" target="_top" xlink:title=" ">
<polygon fill="white" stroke="black" points="259.5,-266.5 259.5,-285.5 351.5,-285.5 351.5,-266.5 259.5,-266.5"/>
<text text-anchor="middle" x="305.5" y="-273.5" font-family="Helvetica,sans-Serif" font-size="10.00">func_8004CA58</text>
</a>
</g>
</g>
<!-- Node1&#45;&gt;Node70 -->
<g id="edge34" class="edge">
<title>Node1&#45;&gt;Node70</title>
<path fill="none" stroke="midnightblue" d="M391.27,-301.46C374.06,-296.3 354.44,-290.4 338.41,-285.59"/>
<polygon fill="midnightblue" stroke="midnightblue" points="390.49,-304.89 401.08,-304.41 392.51,-298.18 390.49,-304.89"/>
</g>
<!-- Node73 -->
<g id="node38" class="node">
<title>Node73</title>
<g id="a_node38"><a xlink:href="hud__renderer_8c.html#ac62ba248d2eef6a6fdf9b2049c384d86" target="_top" xlink:title=" ">
<polygon fill="white" stroke="black" points="260,-703.5 260,-722.5 351,-722.5 351,-703.5 260,-703.5"/>
<text text-anchor="middle" x="305.5" y="-710.5" font-family="Helvetica,sans-Serif" font-size="10.00">func_8004F950</text>
</a>
</g>
</g>
<!-- Node1&#45;&gt;Node73 -->
<g id="edge37" class="edge">
<title>Node1&#45;&gt;Node73</title>
<path fill="none" stroke="midnightblue" d="M432.89,-333.98C431.71,-391.4 422.11,-560.09 352,-675 344.82,-686.77 332.69,-696.63 322.76,-703.36"/>
<polygon fill="midnightblue" stroke="midnightblue" points="436.39,-333.8 433.03,-323.75 429.4,-333.71 436.39,-333.8"/>
</g>
<!-- Node74 -->
<g id="node39" class="node">
<title>Node74</title>
<g id="a_node39"><a xlink:href="hud__renderer_8c.html#af2817332a02fa078bebb942f3b6ccfe9" target="_top" xlink:title=" ">
<polygon fill="white" stroke="black" points="259.5,-228.5 259.5,-247.5 351.5,-247.5 351.5,-228.5 259.5,-228.5"/>
<text text-anchor="middle" x="305.5" y="-235.5" font-family="Helvetica,sans-Serif" font-size="10.00">func_8004F9CC</text>
</a>
</g>
</g>
<!-- Node1&#45;&gt;Node74 -->
<g id="edge39" class="edge">
<title>Node1&#45;&gt;Node74</title>
<path fill="none" stroke="midnightblue" d="M413.15,-298.18C397.22,-285.96 373.97,-269.13 352,-257 345.85,-253.61 338.98,-250.44 332.47,-247.7"/>
<polygon fill="midnightblue" stroke="midnightblue" points="411.15,-301.06 421.19,-304.44 415.45,-295.54 411.15,-301.06"/>
</g>
<!-- Node75 -->
<g id="node40" class="node">
<title>Node75</title>
<g id="a_node40"><a xlink:href="hud__renderer_8c.html#af3f73b0d1bdf3b3ece5da35466be5cf5" target="_top" xlink:title=" ">
<polygon fill="white" stroke="black" points="130,-304.5 130,-323.5 222,-323.5 222,-304.5 130,-304.5"/>
<text text-anchor="middle" x="176" y="-311.5" font-family="Helvetica,sans-Serif" font-size="10.00">func_8004FC78</text>
</a>
</g>
</g>
<!-- Node1&#45;&gt;Node75 -->
<g id="edge40" class="edge">
<title>Node1&#45;&gt;Node75</title>
<path fill="none" stroke="midnightblue" d="M390.24,-325.97C377.99,-328.87 364.55,-331.55 352,-333 310.94,-337.75 300.07,-337.7 259,-333 242.74,-331.14 225.01,-327.27 210.21,-323.51"/>
<polygon fill="midnightblue" stroke="midnightblue" points="391.33,-329.3 400.2,-323.51 389.65,-322.51 391.33,-329.3"/>
</g>
<!-- Node76 -->
<g id="node41" class="node">
<title>Node76</title>
<g id="a_node41"><a xlink:href="hud__renderer_8c.html#aa8995af8c737460d503e580558ed3307" target="_top" xlink:title=" ">
<polygon fill="white" stroke="black" points="260,-76.5 260,-95.5 351,-95.5 351,-76.5 260,-76.5"/>
<text text-anchor="middle" x="305.5" y="-83.5" font-family="Helvetica,sans-Serif" font-size="10.00">func_80051638</text>
</a>
</g>
</g>
<!-- Node1&#45;&gt;Node76 -->
<g id="edge44" class="edge">
<title>Node1&#45;&gt;Node76</title>
<path fill="none" stroke="midnightblue" d="M430.56,-294.27C424.54,-253.62 405.37,-159.77 352,-105 348.3,-101.2 343.72,-98.12 338.9,-95.65"/>
<polygon fill="midnightblue" stroke="midnightblue" points="427.1,-294.81 431.93,-304.25 434.04,-293.86 427.1,-294.81"/>
</g>
<!-- Node87 -->
<g id="node43" class="node">
<title>Node87</title>
<g id="a_node43"><a xlink:href="hud__renderer_8c.html#a483a4b18f946669f87ea2947f8ba43d2" target="_top" xlink:title=" ">
<polygon fill="white" stroke="black" points="260,-190.5 260,-209.5 351,-209.5 351,-190.5 260,-190.5"/>
<text text-anchor="middle" x="305.5" y="-197.5" font-family="Helvetica,sans-Serif" font-size="10.00">func_80053870</text>
</a>
</g>
</g>
<!-- Node1&#45;&gt;Node87 -->
<g id="edge46" class="edge">
<title>Node1&#45;&gt;Node87</title>
<path fill="none" stroke="midnightblue" d="M421.35,-295.74C407.18,-274.76 381.46,-240.49 352,-219 347.02,-215.37 341.24,-212.28 335.51,-209.71"/>
<polygon fill="midnightblue" stroke="midnightblue" points="418.6,-297.92 427.03,-304.34 424.45,-294.07 418.6,-297.92"/>
</g>
<!-- Node88 -->
<g id="node44" class="node">
<title>Node88</title>
<g id="a_node44"><a xlink:href="hud__renderer_8c.html#a4b2addd7eaa1b5932b74fe26803cf3cd" target="_top" xlink:title=" ">
<polygon fill="white" stroke="black" points="260,-152.5 260,-171.5 351,-171.5 351,-152.5 260,-152.5"/>
<text text-anchor="middle" x="305.5" y="-159.5" font-family="Helvetica,sans-Serif" font-size="10.00">func_80054F04</text>
</a>
</g>
</g>
<!-- Node1&#45;&gt;Node88 -->
<g id="edge48" class="edge">
<title>Node1&#45;&gt;Node88</title>
<path fill="none" stroke="midnightblue" d="M425.75,-294.6C414.21,-266.1 389.1,-212.87 352,-181 347.58,-177.21 342.3,-174.09 336.93,-171.55"/>
<polygon fill="midnightblue" stroke="midnightblue" points="422.61,-296.17 429.51,-304.21 429.13,-293.63 422.61,-296.17"/>
</g>
<!-- Node90 -->
<g id="node46" class="node">
<title>Node90</title>
<g id="a_node46"><a xlink:href="hud__renderer_8c.html#ae68c0a495d3a72a312318d83604d4e34" target="_top" xlink:title=" ">
<polygon fill="white" stroke="black" points="259.5,-114.5 259.5,-133.5 351.5,-133.5 351.5,-114.5 259.5,-114.5"/>
<text text-anchor="middle" x="305.5" y="-121.5" font-family="Helvetica,sans-Serif" font-size="10.00">func_8005669C</text>
</a>
</g>
</g>
<!-- Node1&#45;&gt;Node90 -->
<g id="edge51" class="edge">
<title>Node1&#45;&gt;Node90</title>
<path fill="none" stroke="midnightblue" d="M428.68,-294.57C420,-259.72 397.25,-186.18 352,-143 348.04,-139.22 343.21,-136.14 338.2,-133.65"/>
<polygon fill="midnightblue" stroke="midnightblue" points="425.31,-295.52 431.02,-304.44 432.12,-293.9 425.31,-295.52"/>
</g>
<!-- Node92 -->
<g id="node48" class="node">
<title>Node92</title>
<g id="a_node48"><a xlink:href="hud__renderer_8c.html#a8aa62f17d0c7f54dc68e9aaa298f8715" target="_top" xlink:title=" ">
<polygon fill="white" stroke="black" points="260,-38.5 260,-57.5 351,-57.5 351,-38.5 260,-38.5"/>
<text text-anchor="middle" x="305.5" y="-45.5" font-family="Helvetica,sans-Serif" font-size="10.00">func_80056E24</text>
</a>
</g>
</g>
<!-- Node1&#45;&gt;Node92 -->
<g id="edge54" class="edge">
<title>Node1&#45;&gt;Node92</title>
<path fill="none" stroke="midnightblue" d="M431.91,-293.9C428.38,-247.86 413.56,-133.6 352,-67 348.51,-63.23 344.16,-60.18 339.54,-57.73"/>
<polygon fill="midnightblue" stroke="midnightblue" points="428.43,-294.32 432.59,-304.06 435.42,-293.85 428.43,-294.32"/>
</g>
<!-- Node95 -->
<g id="node50" class="node">
<title>Node95</title>
<g id="a_node50"><a xlink:href="hud__renderer_8c.html#ab24628140290caa0645b1b33cd4ba8a7" target="_top" xlink:title=" ">
<polygon fill="white" stroke="black" points="270,-0.5 270,-19.5 341,-19.5 341,-0.5 270,-0.5"/>
<text text-anchor="middle" x="305.5" y="-7.5" font-family="Helvetica,sans-Serif" font-size="10.00">print_timer</text>
</a>
</g>
</g>
<!-- Node1&#45;&gt;Node95 -->
<g id="edge56" class="edge">
<title>Node1&#45;&gt;Node95</title>
<path fill="none" stroke="midnightblue" d="M432.97,-293.98C431.84,-243.21 422.02,-107.87 352,-29 348.59,-25.16 344.28,-22.08 339.68,-19.6"/>
<polygon fill="midnightblue" stroke="midnightblue" points="429.48,-294.29 433.1,-304.24 436.48,-294.2 429.48,-294.29"/>
</g>
<!-- Node3 -->
<g id="node3" class="node">
<title>Node3</title>
<g id="a_node3"><a xlink:href="hud__renderer_8c.html#ad00aeacec3b5aadec781bab2858428e9" target="_top" xlink:title=" ">
<polygon fill="white" stroke="black" points="130,-1064.5 130,-1083.5 222,-1083.5 222,-1064.5 130,-1064.5"/>
<text text-anchor="middle" x="176" y="-1071.5" font-family="Helvetica,sans-Serif" font-size="10.00">func_800463B0</text>
</a>
</g>
</g>
<!-- Node2&#45;&gt;Node3 -->
<g id="edge2" class="edge">
<title>Node2&#45;&gt;Node3</title>
<path fill="none" stroke="midnightblue" d="M248.65,-1074C239.86,-1074 230.87,-1074 222.35,-1074"/>
<polygon fill="midnightblue" stroke="midnightblue" points="248.83,-1077.5 258.83,-1074 248.83,-1070.5 248.83,-1077.5"/>
</g>
<!-- Node4 -->
<g id="node4" class="node">
<title>Node4</title>
<g id="a_node4"><a xlink:href="hud__renderer_8c.html#a79b02bc504dd9740f5ee3b02e4652245" target="_top" xlink:title=" ">
<polygon fill="white" stroke="black" points="130.5,-1102.5 130.5,-1121.5 221.5,-1121.5 221.5,-1102.5 130.5,-1102.5"/>
<text text-anchor="middle" x="176" y="-1109.5" font-family="Helvetica,sans-Serif" font-size="10.00">func_80046424</text>
</a>
</g>
</g>
<!-- Node2&#45;&gt;Node4 -->
<g id="edge3" class="edge">
<title>Node2&#45;&gt;Node4</title>
<path fill="none" stroke="midnightblue" d="M262.44,-1086.54C245.1,-1091.7 225.32,-1097.6 209.16,-1102.41"/>
<polygon fill="midnightblue" stroke="midnightblue" points="263.74,-1089.8 272.33,-1083.59 261.74,-1083.09 263.74,-1089.8"/>
</g>
<!-- Node6 -->
<g id="node6" class="node">
<title>Node6</title>
<g id="a_node6"><a xlink:href="hud__renderer_8c.html#a83f64b7cc9e41cc32d24261d994b7acd" target="_top" xlink:title=" ">
<polygon fill="white" stroke="red" points="130,-912.5 130,-931.5 222,-931.5 222,-912.5 130,-912.5"/>
<text text-anchor="middle" x="176" y="-919.5" font-family="Helvetica,sans-Serif" font-size="10.00">func_800464D0</text>
</a>
</g>
</g>
<!-- Node5&#45;&gt;Node6 -->
<g id="edge5" class="edge">
<title>Node5&#45;&gt;Node6</title>
<path fill="none" stroke="midnightblue" d="M249.7,-922C240.53,-922 231.11,-922 222.22,-922"/>
<polygon fill="midnightblue" stroke="midnightblue" points="249.91,-925.5 259.91,-922 249.91,-918.5 249.91,-925.5"/>
</g>
<!-- Node12 -->
<g id="node9" class="node">
<title>Node12</title>
<g id="a_node9"><a xlink:href="hud__renderer_8c.html#a63b2f481f087469565a4b21fd625e4be" target="_top" xlink:title=" ">
<polygon fill="white" stroke="black" points="130.5,-874.5 130.5,-893.5 221.5,-893.5 221.5,-874.5 130.5,-874.5"/>
<text text-anchor="middle" x="176" y="-881.5" font-family="Helvetica,sans-Serif" font-size="10.00">func_80046544</text>
</a>
</g>
</g>
<!-- Node5&#45;&gt;Node12 -->
<g id="edge8" class="edge">
<title>Node5&#45;&gt;Node12</title>
<path fill="none" stroke="midnightblue" d="M262.44,-909.46C245.1,-904.3 225.32,-898.4 209.16,-893.59"/>
<polygon fill="midnightblue" stroke="midnightblue" points="261.74,-912.91 272.33,-912.41 263.74,-906.2 261.74,-912.91"/>
</g>
<!-- Node13 -->
<g id="node10" class="node">
<title>Node13</title>
<g id="a_node10"><a xlink:href="hud__renderer_8c.html#a6fef92ee74ba13ee162bbf002be6936b" target="_top" xlink:title=" ">
<polygon fill="white" stroke="red" points="130,-836.5 130,-855.5 222,-855.5 222,-836.5 130,-836.5"/>
<text text-anchor="middle" x="176" y="-843.5" font-family="Helvetica,sans-Serif" font-size="10.00">func_800465B8</text>
</a>
</g>
</g>
<!-- Node5&#45;&gt;Node13 -->
<g id="edge9" class="edge">
<title>Node5&#45;&gt;Node13</title>
<path fill="none" stroke="midnightblue" d="M284.53,-906.17C268.5,-893.94 245.11,-877.11 223,-865 216.79,-861.6 209.83,-858.42 203.25,-855.68"/>
<polygon fill="midnightblue" stroke="midnightblue" points="282.57,-909.08 292.62,-912.43 286.85,-903.55 282.57,-909.08"/>
</g>
<!-- Node15 -->
<g id="node11" class="node">
<title>Node15</title>
<g id="a_node11"><a xlink:href="hud__renderer_8c.html#a99d02a59eab6be7de963c34f61e3191c" target="_top" xlink:title=" ">
<polygon fill="white" stroke="red" points="130.5,-1026.5 130.5,-1045.5 221.5,-1045.5 221.5,-1026.5 130.5,-1026.5"/>
<text text-anchor="middle" x="176" y="-1033.5" font-family="Helvetica,sans-Serif" font-size="10.00">func_80046808</text>
</a>
</g>
</g>
<!-- Node5&#45;&gt;Node15 -->
<g id="edge10" class="edge">
<title>Node5&#45;&gt;Node15</title>
<path fill="none" stroke="midnightblue" d="M292.77,-940.28C278.5,-961.27 252.61,-995.56 223,-1017 217.96,-1020.65 212.12,-1023.75 206.32,-1026.32"/>
<polygon fill="midnightblue" stroke="midnightblue" points="295.87,-941.94 298.48,-931.67 290.04,-938.07 295.87,-941.94"/>
</g>
<!-- Node18 -->
<g id="node12" class="node">
<title>Node18</title>
<g id="a_node12"><a xlink:href="hud__renderer_8c.html#aea1f49f8c6bb6d9b1c9717f5f6ad22fc" target="_top" xlink:title=" ">
<polygon fill="white" stroke="black" points="130.5,-988.5 130.5,-1007.5 221.5,-1007.5 221.5,-988.5 130.5,-988.5"/>
<text text-anchor="middle" x="176" y="-995.5" font-family="Helvetica,sans-Serif" font-size="10.00">func_80046874</text>
</a>
</g>
</g>
<!-- Node5&#45;&gt;Node18 -->
<g id="edge11" class="edge">
<title>Node5&#45;&gt;Node18</title>
<path fill="none" stroke="midnightblue" d="M284.53,-937.83C268.5,-950.06 245.11,-966.89 223,-979 216.79,-982.4 209.83,-985.58 203.25,-988.32"/>
<polygon fill="midnightblue" stroke="midnightblue" points="286.85,-940.45 292.62,-931.57 282.57,-934.92 286.85,-940.45"/>
</g>
<!-- Node19 -->
<g id="node13" class="node">
<title>Node19</title>
<g id="a_node13"><a xlink:href="hud__renderer_8c.html#a6b26b21f61ab1f842fe5f70b41fb5fef" target="_top" xlink:title=" ">
<polygon fill="white" stroke="black" points="130.5,-950.5 130.5,-969.5 221.5,-969.5 221.5,-950.5 130.5,-950.5"/>
<text text-anchor="middle" x="176" y="-957.5" font-family="Helvetica,sans-Serif" font-size="10.00">func_80046954</text>
</a>
</g>
</g>
<!-- Node5&#45;&gt;Node19 -->
<g id="edge12" class="edge">
<title>Node5&#45;&gt;Node19</title>
<path fill="none" stroke="midnightblue" d="M262.44,-934.54C245.1,-939.7 225.32,-945.6 209.16,-950.41"/>
<polygon fill="midnightblue" stroke="midnightblue" points="263.74,-937.8 272.33,-931.59 261.74,-931.09 263.74,-937.8"/>
</g>
<!-- Node7 -->
<g id="node7" class="node">
<title>Node7</title>
<g id="a_node7"><a xlink:href="hud__renderer_8c.html#aa5999555239a5b1cedbe383c4662d6fa" target="_top" xlink:title=" ">
<polygon fill="white" stroke="black" points="0,-893.5 0,-912.5 93,-912.5 93,-893.5 0,-893.5"/>
<text text-anchor="middle" x="46.5" y="-900.5" font-family="Helvetica,sans-Serif" font-size="10.00">func_80046AD4</text>
</a>
</g>
</g>
<!-- Node6&#45;&gt;Node7 -->
<g id="edge6" class="edge">
<title>Node6&#45;&gt;Node7</title>
<path fill="none" stroke="midnightblue" d="M119.77,-913.77C110.87,-912.44 101.74,-911.08 93.09,-909.79"/>
<polygon fill="midnightblue" stroke="midnightblue" points="119.28,-917.24 129.69,-915.25 120.31,-910.31 119.28,-917.24"/>
</g>
<!-- Node8 -->
<g id="node8" class="node">
<title>Node8</title>
<g id="a_node8"><a xlink:href="hud__renderer_8c.html#ab70257ea419c076ea288ede12b44e13d" target="_top" xlink:title=" ">
<polygon fill="white" stroke="black" points="0.5,-931.5 0.5,-950.5 92.5,-950.5 92.5,-931.5 0.5,-931.5"/>
<text text-anchor="middle" x="46.5" y="-938.5" font-family="Helvetica,sans-Serif" font-size="10.00">func_80046B38</text>
</a>
</g>
</g>
<!-- Node6&#45;&gt;Node8 -->
<g id="edge7" class="edge">
<title>Node6&#45;&gt;Node8</title>
<path fill="none" stroke="midnightblue" d="M119.65,-930.25C110.64,-931.59 101.4,-932.97 92.66,-934.27"/>
<polygon fill="midnightblue" stroke="midnightblue" points="120.31,-933.69 129.69,-928.75 119.28,-926.76 120.31,-933.69"/>
</g>
<!-- Node21 -->
<g id="node15" class="node">
<title>Node21</title>
<g id="a_node15"><a xlink:href="hud__renderer_8c.html#a588e060255234dba744191090a5befc6" target="_top" xlink:title=" ">
<polygon fill="white" stroke="black" points="130,-798.5 130,-817.5 222,-817.5 222,-798.5 130,-798.5"/>
<text text-anchor="middle" x="176" y="-805.5" font-family="Helvetica,sans-Serif" font-size="10.00">func_80046BEC</text>
</a>
</g>
</g>
<!-- Node20&#45;&gt;Node21 -->
<g id="edge14" class="edge">
<title>Node20&#45;&gt;Node21</title>
<path fill="none" stroke="midnightblue" d="M249.15,-808C240.14,-808 230.9,-808 222.16,-808"/>
<polygon fill="midnightblue" stroke="midnightblue" points="249.19,-811.5 259.19,-808 249.19,-804.5 249.19,-811.5"/>
</g>
<!-- Node23 -->
<g id="node17" class="node">
<title>Node23</title>
<g id="a_node17"><a xlink:href="hud__renderer_8c.html#abf1e0aab5e3246f3fa4ac92992638a97" target="_top" xlink:title=" ">
<polygon fill="white" stroke="black" points="130,-760.5 130,-779.5 222,-779.5 222,-760.5 130,-760.5"/>
<text text-anchor="middle" x="176" y="-767.5" font-family="Helvetica,sans-Serif" font-size="10.00">func_80046C3C</text>
</a>
</g>
</g>
<!-- Node22&#45;&gt;Node23 -->
<g id="edge16" class="edge">
<title>Node22&#45;&gt;Node23</title>
<path fill="none" stroke="midnightblue" d="M249.15,-770C240.14,-770 230.9,-770 222.16,-770"/>
<polygon fill="midnightblue" stroke="midnightblue" points="249.19,-773.5 259.19,-770 249.19,-766.5 249.19,-773.5"/>
</g>
<!-- Node25 -->
<g id="node19" class="node">
<title>Node25</title>
<g id="a_node19"><a xlink:href="hud__renderer_8c.html#a4b2a342ccf3b2b9bd36434abb66953e8" target="_top" xlink:title=" ">
<polygon fill="white" stroke="red" points="130,-684.5 130,-703.5 222,-703.5 222,-684.5 130,-684.5"/>
<text text-anchor="middle" x="176" y="-691.5" font-family="Helvetica,sans-Serif" font-size="10.00">func_8004C91C</text>
</a>
</g>
</g>
<!-- Node24&#45;&gt;Node25 -->
<g id="edge18" class="edge">
<title>Node24&#45;&gt;Node25</title>
<path fill="none" stroke="midnightblue" d="M262.44,-668.54C245.1,-673.7 225.32,-679.6 209.16,-684.41"/>
<polygon fill="midnightblue" stroke="midnightblue" points="263.74,-671.8 272.33,-665.59 261.74,-665.09 263.74,-671.8"/>
</g>
<!-- Node28 -->
<g id="node20" class="node">
<title>Node28</title>
<g id="a_node20"><a xlink:href="hud__renderer_8c.html#a3a9ffb7f41efffaa0077a9219a12f304" target="_top" xlink:title=" ">
<polygon fill="white" stroke="black" points="129.5,-646.5 129.5,-665.5 222.5,-665.5 222.5,-646.5 129.5,-646.5"/>
<text text-anchor="middle" x="176" y="-653.5" font-family="Helvetica,sans-Serif" font-size="10.00">func_8004C9D8</text>
</a>
</g>
</g>
<!-- Node24&#45;&gt;Node28 -->
<g id="edge19" class="edge">
<title>Node24&#45;&gt;Node28</title>
<path fill="none" stroke="midnightblue" d="M248.98,-656C240.17,-656 231.14,-656 222.59,-656"/>
<polygon fill="midnightblue" stroke="midnightblue" points="249.19,-659.5 259.19,-656 249.19,-652.5 249.19,-659.5"/>
</g>
<!-- Node29 -->
<g id="node21" class="node">
<title>Node29</title>
<g id="a_node21"><a xlink:href="hud__renderer_8c.html#aaa47aeace70f0c84226be78109628f51" target="_top" xlink:title=" ">
<polygon fill="white" stroke="red" points="0.5,-684.5 0.5,-703.5 92.5,-703.5 92.5,-684.5 0.5,-684.5"/>
<text text-anchor="middle" x="46.5" y="-691.5" font-family="Helvetica,sans-Serif" font-size="10.00">func_8004EB38</text>
</a>
</g>
</g>
<!-- Node28&#45;&gt;Node29 -->
<g id="edge20" class="edge">
<title>Node28&#45;&gt;Node29</title>
<path fill="none" stroke="midnightblue" d="M132.94,-668.54C115.6,-673.7 95.82,-679.6 79.66,-684.41"/>
<polygon fill="midnightblue" stroke="midnightblue" points="134.24,-671.8 142.83,-665.59 132.24,-665.09 134.24,-671.8"/>
</g>
<!-- Node48 -->
<g id="node23" class="node">
<title>Node48</title>
<g id="a_node23"><a xlink:href="hud__renderer_8c.html#a46a461873fe58b8c30a4e8bf7e16caac" target="_top" xlink:title=" ">
<polygon fill="white" stroke="red" points="129,-380.5 129,-399.5 223,-399.5 223,-380.5 129,-380.5"/>
<text text-anchor="middle" x="176" y="-387.5" font-family="Helvetica,sans-Serif" font-size="10.00">func_8004CAD0</text>
</a>
</g>
</g>
<!-- Node47&#45;&gt;Node48 -->
<g id="edge22" class="edge">
<title>Node47&#45;&gt;Node48</title>
<path fill="none" stroke="midnightblue" d="M284.53,-450.17C268.5,-437.94 245.11,-421.11 223,-409 216.79,-405.6 209.83,-402.42 203.25,-399.68"/>
<polygon fill="midnightblue" stroke="midnightblue" points="282.57,-453.08 292.62,-456.43 286.85,-447.55 282.57,-453.08"/>
</g>
<!-- Node51 -->
<g id="node24" class="node">
<title>Node51</title>
<g id="a_node24"><a xlink:href="hud__renderer_8c.html#a3b1e4d1232ebe0d2283fa799c1220ed7" target="_top" xlink:title=" ">
<polygon fill="white" stroke="black" points="130,-608.5 130,-627.5 222,-627.5 222,-608.5 130,-608.5"/>
<text text-anchor="middle" x="176" y="-615.5" font-family="Helvetica,sans-Serif" font-size="10.00">func_8004CB00</text>
</a>
</g>
</g>
<!-- Node47&#45;&gt;Node51 -->
<g id="edge23" class="edge">
<title>Node47&#45;&gt;Node51</title>
<path fill="none" stroke="midnightblue" d="M297.19,-485.42C285.56,-513.94 260.27,-567.2 223,-599 218.53,-602.81 213.19,-605.94 207.76,-608.48"/>
<polygon fill="midnightblue" stroke="midnightblue" points="300.57,-486.38 300.98,-475.79 294.06,-483.82 300.57,-486.38"/>
</g>
<!-- Node52 -->
<g id="node25" class="node">
<title>Node52</title>
<g id="a_node25"><a xlink:href="hud__renderer_8c.html#a1394409606c1ef5555adb61ce4c6f826" target="_top" xlink:title=" ">
<polygon fill="white" stroke="black" points="130,-570.5 130,-589.5 222,-589.5 222,-570.5 130,-570.5"/>
<text text-anchor="middle" x="176" y="-577.5" font-family="Helvetica,sans-Serif" font-size="10.00">func_8004CB30</text>
</a>
</g>
</g>
<!-- Node47&#45;&gt;Node52 -->
<g id="edge24" class="edge">
<title>Node47&#45;&gt;Node52</title>
<path fill="none" stroke="midnightblue" d="M292.77,-484.28C278.5,-505.27 252.61,-539.56 223,-561 217.96,-564.65 212.12,-567.75 206.32,-570.32"/>
<polygon fill="midnightblue" stroke="midnightblue" points="295.87,-485.94 298.48,-475.67 290.04,-482.07 295.87,-485.94"/>
</g>
<!-- Node53 -->
<g id="node26" class="node">
<title>Node53</title>
<g id="a_node26"><a xlink:href="hud__renderer_8c.html#ae0891c7b34b681491e19c137da292001" target="_top" xlink:title=" ">
<polygon fill="white" stroke="red" points="130,-342.5 130,-361.5 222,-361.5 222,-342.5 130,-342.5"/>
<text text-anchor="middle" x="176" y="-349.5" font-family="Helvetica,sans-Serif" font-size="10.00">func_8004CB60</text>
</a>
</g>
</g>
<!-- Node47&#45;&gt;Node53 -->
<g id="edge25" class="edge">
<title>Node47&#45;&gt;Node53</title>
<path fill="none" stroke="midnightblue" d="M292.77,-447.72C278.5,-426.73 252.61,-392.44 223,-371 217.96,-367.35 212.12,-364.25 206.32,-361.68"/>
<polygon fill="midnightblue" stroke="midnightblue" points="290.04,-449.93 298.48,-456.33 295.87,-446.06 290.04,-449.93"/>
</g>
<!-- Node65 -->
<g id="node30" class="node">
<title>Node65</title>
<g id="a_node30"><a xlink:href="hud__renderer_8c.html#a5779703e474e11625ca0c80f9ba237a8" target="_top" xlink:title=" ">
<polygon fill="white" stroke="red" points="130,-532.5 130,-551.5 222,-551.5 222,-532.5 130,-532.5"/>
<text text-anchor="middle" x="176" y="-539.5" font-family="Helvetica,sans-Serif" font-size="10.00">func_8004CB90</text>
</a>
</g>
</g>
<!-- Node47&#45;&gt;Node65 -->
<g id="edge29" class="edge">
<title>Node47&#45;&gt;Node65</title>
<path fill="none" stroke="midnightblue" d="M284.53,-481.83C268.5,-494.06 245.11,-510.89 223,-523 216.79,-526.4 209.83,-529.58 203.25,-532.32"/>
<polygon fill="midnightblue" stroke="midnightblue" points="286.85,-484.45 292.62,-475.57 282.57,-478.92 286.85,-484.45"/>
</g>
<!-- Node66 -->
<g id="node31" class="node">
<title>Node66</title>
<g id="a_node31"><a xlink:href="hud__renderer_8c.html#a2899b9e6208ea6510286dc2f3137b316" target="_top" xlink:title=" ">
<polygon fill="white" stroke="black" points="130,-494.5 130,-513.5 222,-513.5 222,-494.5 130,-494.5"/>
<text text-anchor="middle" x="176" y="-501.5" font-family="Helvetica,sans-Serif" font-size="10.00">func_8004CBF4</text>
</a>
</g>
</g>
<!-- Node47&#45;&gt;Node66 -->
<g id="edge30" class="edge">
<title>Node47&#45;&gt;Node66</title>
<path fill="none" stroke="midnightblue" d="M262.44,-478.54C245.1,-483.7 225.32,-489.6 209.16,-494.41"/>
<polygon fill="midnightblue" stroke="midnightblue" points="263.74,-481.8 272.33,-475.59 261.74,-475.09 263.74,-481.8"/>
</g>
<!-- Node67 -->
<g id="node32" class="node">
<title>Node67</title>
<g id="a_node32"><a xlink:href="hud__renderer_8c.html#a0cb2cd7ddd33fd085a6d66dde82ae7ac" target="_top" xlink:title=" ">
<polygon fill="white" stroke="black" points="130,-456.5 130,-475.5 222,-475.5 222,-456.5 130,-456.5"/>
<text text-anchor="middle" x="176" y="-463.5" font-family="Helvetica,sans-Serif" font-size="10.00">func_8004CC54</text>
</a>
</g>
</g>
<!-- Node47&#45;&gt;Node67 -->
<g id="edge31" class="edge">
<title>Node47&#45;&gt;Node67</title>
<path fill="none" stroke="midnightblue" d="M249.15,-466C240.14,-466 230.9,-466 222.16,-466"/>
<polygon fill="midnightblue" stroke="midnightblue" points="249.19,-469.5 259.19,-466 249.19,-462.5 249.19,-469.5"/>
</g>
<!-- Node68 -->
<g id="node33" class="node">
<title>Node68</title>
<g id="a_node33"><a xlink:href="hud__renderer_8c.html#a46683274f6f7b6ae392186ea0b2f20c6" target="_top" xlink:title=" ">
<polygon fill="white" stroke="black" points="129.5,-418.5 129.5,-437.5 222.5,-437.5 222.5,-418.5 129.5,-418.5"/>
<text text-anchor="middle" x="176" y="-425.5" font-family="Helvetica,sans-Serif" font-size="10.00">func_8004CCB4</text>
</a>
</g>
</g>
<!-- Node47&#45;&gt;Node68 -->
<g id="edge32" class="edge">
<title>Node47&#45;&gt;Node68</title>
<path fill="none" stroke="midnightblue" d="M262.44,-453.46C245.1,-448.3 225.32,-442.4 209.16,-437.59"/>
<polygon fill="midnightblue" stroke="midnightblue" points="261.74,-456.91 272.33,-456.41 263.74,-450.2 261.74,-456.91"/>
</g>
<!-- Node58 -->
<g id="node27" class="node">
<title>Node58</title>
<g id="a_node27"><a xlink:href="code__80057C60_8c.html#a8a0205ed6c02a51be42f01dfbb981a43" target="_top" xlink:title=" ">
<polygon fill="white" stroke="red" points="1,-361.5 1,-380.5 92,-380.5 92,-361.5 1,-361.5"/>
<text text-anchor="middle" x="46.5" y="-368.5" font-family="Helvetica,sans-Serif" font-size="10.00">func_80059360</text>
</a>
</g>
</g>
<!-- Node53&#45;&gt;Node58 -->
<g id="edge26" class="edge">
<title>Node53&#45;&gt;Node58</title>
<path fill="none" stroke="midnightblue" d="M119.53,-360.27C110.41,-361.63 101.05,-363.02 92.24,-364.33"/>
<polygon fill="midnightblue" stroke="midnightblue" points="120.31,-363.69 129.69,-358.75 119.28,-356.76 120.31,-363.69"/>
</g>
<!-- Node59 -->
<g id="node28" class="node">
<title>Node59</title>
<g id="a_node28"><a xlink:href="code__80057C60_8c.html#a2f473a98b1691a12a70613e2127dbd66" target="_top" xlink:title=" ">
<polygon fill="white" stroke="red" points="1,-323.5 1,-342.5 92,-342.5 92,-323.5 1,-323.5"/>
<text text-anchor="middle" x="46.5" y="-330.5" font-family="Helvetica,sans-Serif" font-size="10.00">func_800593F8</text>
</a>
</g>
</g>
<!-- Node53&#45;&gt;Node59 -->
<g id="edge27" class="edge">
<title>Node53&#45;&gt;Node59</title>
<path fill="none" stroke="midnightblue" d="M119.53,-343.73C110.41,-342.37 101.05,-340.98 92.24,-339.67"/>
<polygon fill="midnightblue" stroke="midnightblue" points="119.28,-347.24 129.69,-345.25 120.31,-340.31 119.28,-347.24"/>
</g>
<!-- Node60 -->
<g id="node29" class="node">
<title>Node60</title>
<g id="a_node29"><a xlink:href="code__80057C60_8c.html#a20c172812f9ace7bbae3d275de077774" target="_top" xlink:title=" ">
<polygon fill="white" stroke="red" points="1,-285.5 1,-304.5 92,-304.5 92,-285.5 1,-285.5"/>
<text text-anchor="middle" x="46.5" y="-292.5" font-family="Helvetica,sans-Serif" font-size="10.00">func_80059560</text>
</a>
</g>
</g>
<!-- Node53&#45;&gt;Node60 -->
<g id="edge28" class="edge">
<title>Node53&#45;&gt;Node60</title>
<path fill="none" stroke="midnightblue" d="M141.05,-338.4C136.97,-336.64 132.87,-334.82 129,-333 112.62,-325.32 109.36,-321.72 93,-314 86.19,-310.79 78.68,-307.54 71.76,-304.66"/>
<polygon fill="midnightblue" stroke="midnightblue" points="139.89,-341.71 150.46,-342.36 142.61,-335.26 139.89,-341.71"/>
</g>
<!-- Node71 -->
<g id="node36" class="node">
<title>Node71</title>
<g id="a_node36"><a xlink:href="hud__renderer_8c.html#ad739c36d5eb50a3cd40021ba5356cc85" target="_top" xlink:title=" ">
<polygon fill="white" stroke="black" points="129.5,-228.5 129.5,-247.5 222.5,-247.5 222.5,-228.5 129.5,-228.5"/>
<text text-anchor="middle" x="176" y="-235.5" font-family="Helvetica,sans-Serif" font-size="10.00">func_8004CBC0</text>
</a>
</g>
</g>
<!-- Node70&#45;&gt;Node71 -->
<g id="edge35" class="edge">
<title>Node70&#45;&gt;Node71</title>
<path fill="none" stroke="midnightblue" d="M262.44,-263.46C245.1,-258.3 225.32,-252.4 209.16,-247.59"/>
<polygon fill="midnightblue" stroke="midnightblue" points="261.74,-266.91 272.33,-266.41 263.74,-260.2 261.74,-266.91"/>
</g>
<!-- Node72 -->
<g id="node37" class="node">
<title>Node72</title>
<g id="a_node37"><a xlink:href="hud__renderer_8c.html#a8a74609cc99c6e5a285f5ca0a6af7c11" target="_top" xlink:title=" ">
<polygon fill="white" stroke="black" points="130,-266.5 130,-285.5 222,-285.5 222,-266.5 130,-266.5"/>
<text text-anchor="middle" x="176" y="-273.5" font-family="Helvetica,sans-Serif" font-size="10.00">func_8004CCE4</text>
</a>
</g>
</g>
<!-- Node70&#45;&gt;Node72 -->
<g id="edge36" class="edge">
<title>Node70&#45;&gt;Node72</title>
<path fill="none" stroke="midnightblue" d="M249.15,-276C240.14,-276 230.9,-276 222.16,-276"/>
<polygon fill="midnightblue" stroke="midnightblue" points="249.19,-279.5 259.19,-276 249.19,-272.5 249.19,-279.5"/>
</g>
<!-- Node73&#45;&gt;Node29 -->
<g id="edge38" class="edge">
<title>Node73&#45;&gt;Node29</title>
<path fill="none" stroke="midnightblue" d="M249.59,-716.21C214.89,-717.45 169.19,-717.62 129,-713 112.83,-711.14 95.21,-707.27 80.51,-703.51"/>
<polygon fill="midnightblue" stroke="midnightblue" points="250.13,-719.69 259.98,-715.8 249.85,-712.7 250.13,-719.69"/>
</g>
<!-- Node75&#45;&gt;Node58 -->
<g id="edge41" class="edge">
<title>Node75&#45;&gt;Node58</title>
<path fill="none" stroke="midnightblue" d="M141.05,-327.6C136.97,-329.36 132.87,-331.18 129,-333 112.62,-340.68 109.36,-344.28 93,-352 86.19,-355.21 78.68,-358.46 71.76,-361.34"/>
<polygon fill="midnightblue" stroke="midnightblue" points="142.61,-330.74 150.46,-323.64 139.89,-324.29 142.61,-330.74"/>
</g>
<!-- Node75&#45;&gt;Node59 -->
<g id="edge42" class="edge">
<title>Node75&#45;&gt;Node59</title>
<path fill="none" stroke="midnightblue" d="M119.53,-322.27C110.41,-323.63 101.05,-325.02 92.24,-326.33"/>
<polygon fill="midnightblue" stroke="midnightblue" points="120.31,-325.69 129.69,-320.75 119.28,-318.76 120.31,-325.69"/>
</g>
<!-- Node75&#45;&gt;Node60 -->
<g id="edge43" class="edge">
<title>Node75&#45;&gt;Node60</title>
<path fill="none" stroke="midnightblue" d="M119.53,-305.73C110.41,-304.37 101.05,-302.98 92.24,-301.67"/>
<polygon fill="midnightblue" stroke="midnightblue" points="119.28,-309.24 129.69,-307.25 120.31,-302.31 119.28,-309.24"/>
</g>
<!-- Node77 -->
<g id="node42" class="node">
<title>Node77</title>
<g id="a_node42"><a xlink:href="code__80057C60_8c.html#af24ad533f14909c93fae912e5253babb" target="_top" xlink:title=" ">
<polygon fill="white" stroke="red" points="1,-133.5 1,-152.5 92,-152.5 92,-133.5 1,-133.5"/>
<text text-anchor="middle" x="46.5" y="-140.5" font-family="Helvetica,sans-Serif" font-size="10.00">func_800588F4</text>
</a>
</g>
</g>
<!-- Node76&#45;&gt;Node77 -->
<g id="edge45" class="edge">
<title>Node76&#45;&gt;Node77</title>
<path fill="none" stroke="midnightblue" d="M249.7,-87.32C214.64,-89.29 168.5,-93.98 129,-105 105.24,-111.63 79.76,-124.55 63.74,-133.47"/>
<polygon fill="midnightblue" stroke="midnightblue" points="249.93,-90.82 259.75,-86.82 249.58,-83.82 249.93,-90.82"/>
</g>
<!-- Node87&#45;&gt;Node77 -->
<g id="edge47" class="edge">
<title>Node87&#45;&gt;Node77</title>
<path fill="none" stroke="midnightblue" d="M249.7,-198.68C214.64,-196.71 168.5,-192.02 129,-181 105.24,-174.37 79.76,-161.45 63.74,-152.53"/>
<polygon fill="midnightblue" stroke="midnightblue" points="249.58,-202.18 259.75,-199.18 249.93,-195.18 249.58,-202.18"/>
</g>
<!-- Node89 -->
<g id="node45" class="node">
<title>Node89</title>
<g id="a_node45"><a xlink:href="hud__renderer_8c.html#a382d8113975c22d6fc6c7b8fb78a8bf3" target="_top" xlink:title=" ">
<polygon fill="white" stroke="black" points="130,-152.5 130,-171.5 222,-171.5 222,-152.5 130,-152.5"/>
<text text-anchor="middle" x="176" y="-159.5" font-family="Helvetica,sans-Serif" font-size="10.00">func_800550A4</text>
</a>
</g>
</g>
<!-- Node88&#45;&gt;Node89 -->
<g id="edge49" class="edge">
<title>Node88&#45;&gt;Node89</title>
<path fill="none" stroke="midnightblue" d="M249.7,-162C240.53,-162 231.11,-162 222.22,-162"/>
<polygon fill="midnightblue" stroke="midnightblue" points="249.91,-165.5 259.91,-162 249.91,-158.5 249.91,-165.5"/>
</g>
<!-- Node89&#45;&gt;Node77 -->
<g id="edge50" class="edge">
<title>Node89&#45;&gt;Node77</title>
<path fill="none" stroke="midnightblue" d="M119.53,-153.73C110.41,-152.37 101.05,-150.98 92.24,-149.67"/>
<polygon fill="midnightblue" stroke="midnightblue" points="119.28,-157.24 129.69,-155.25 120.31,-150.31 119.28,-157.24"/>
</g>
<!-- Node91 -->
<g id="node47" class="node">
<title>Node91</title>
<g id="a_node47"><a xlink:href="hud__renderer_8c.html#af1f6deab6c7bbd15ca7ebf1802911c74" target="_top" xlink:title=" ">
<polygon fill="white" stroke="black" points="130,-114.5 130,-133.5 222,-133.5 222,-114.5 130,-114.5"/>
<text text-anchor="middle" x="176" y="-121.5" font-family="Helvetica,sans-Serif" font-size="10.00">func_80056AC0</text>
</a>
</g>
</g>
<!-- Node90&#45;&gt;Node91 -->
<g id="edge52" class="edge">
<title>Node90&#45;&gt;Node91</title>
<path fill="none" stroke="midnightblue" d="M249.15,-124C240.14,-124 230.9,-124 222.16,-124"/>
<polygon fill="midnightblue" stroke="midnightblue" points="249.19,-127.5 259.19,-124 249.19,-120.5 249.19,-127.5"/>
</g>
<!-- Node91&#45;&gt;Node77 -->
<g id="edge53" class="edge">
<title>Node91&#45;&gt;Node77</title>
<path fill="none" stroke="midnightblue" d="M119.53,-132.27C110.41,-133.63 101.05,-135.02 92.24,-136.33"/>
<polygon fill="midnightblue" stroke="midnightblue" points="120.31,-135.69 129.69,-130.75 119.28,-128.76 120.31,-135.69"/>
</g>
<!-- Node93 -->
<g id="node49" class="node">
<title>Node93</title>
<g id="a_node49"><a xlink:href="hud__renderer_8c.html#aab84e52f6b40a3b7521577dee959df58" target="_top" xlink:title=" ">
<polygon fill="white" stroke="red" points="130.5,-38.5 130.5,-57.5 221.5,-57.5 221.5,-38.5 130.5,-38.5"/>
<text text-anchor="middle" x="176" y="-45.5" font-family="Helvetica,sans-Serif" font-size="10.00">func_80057114</text>
</a>
</g>
</g>
<!-- Node92&#45;&gt;Node93 -->
<g id="edge55" class="edge">
<title>Node92&#45;&gt;Node93</title>
<path fill="none" stroke="midnightblue" d="M249.88,-48C240.51,-48 230.86,-48 221.78,-48"/>
<polygon fill="midnightblue" stroke="midnightblue" points="249.91,-51.5 259.91,-48 249.91,-44.5 249.91,-51.5"/>
</g>
</g>
</svg>
        <g id="navigator" transform="translate(0 0)" fill="#404254">
                <rect fill="#f2f5e9" fill-opacity="0.5" stroke="#606060" stroke-width=".5" x="0" y="0" width="60" height="60"/>
                <use id="zoomplus" xlink:href="#zoomPlus" x="17" y="9" onmousedown="handleZoom(evt,'in')"/>
                <use id="zoomminus" xlink:href="#zoomMin" x="42" y="9" onmousedown="handleZoom(evt,'out')"/>
                <use id="reset" xlink:href="#resetDef" x="30" y="36" onmousedown="handleReset()"/>
                <g id="arrowUp" xlink:href="#dirArrow" transform="translate(30 24)" onmousedown="handlePan(0,-1)">
                  <use xlink:href="#rim" fill="#404040">
                        <set attributeName="fill" to="#808080" begin="arrowUp.mouseover" end="arrowUp.mouseout"/>
                  </use>
                  <path fill="none" stroke="white" stroke-width="1.5" d="M0,-3.0v7 M-2.5,-0.5L0,-3.0L2.5,-0.5"/>
                </g>
                <g id="arrowRight" xlink:href="#dirArrow" transform="rotate(90) translate(36 -43)" onmousedown="handlePan(1,0)">
                  <use xlink:href="#rim" fill="#404040">
                        <set attributeName="fill" to="#808080" begin="arrowRight.mouseover" end="arrowRight.mouseout"/>
                  </use>
                  <path fill="none" stroke="white" stroke-width="1.5" d="M0,-3.0v7 M-2.5,-0.5L0,-3.0L2.5,-0.5"/>
                </g>
                <g id="arrowDown" xlink:href="#dirArrow" transform="rotate(180) translate(-30 -48)" onmousedown="handlePan(0,1)">
                  <use xlink:href="#rim" fill="#404040">
                        <set attributeName="fill" to="#808080" begin="arrowDown.mouseover" end="arrowDown.mouseout"/>
                  </use>
                  <path fill="none" stroke="white" stroke-width="1.5" d="M0,-3.0v7 M-2.5,-0.5L0,-3.0L2.5,-0.5"/>
                </g>
                <g id="arrowLeft" xlink:href="#dirArrow" transform="rotate(270) translate(-36 17)" onmousedown="handlePan(-1,0)">
                  <use xlink:href="#rim" fill="#404040">
                        <set attributeName="fill" to="#808080" begin="arrowLeft.mouseover" end="arrowLeft.mouseout"/>
                  </use>
                  <path fill="none" stroke="white" stroke-width="1.5" d="M0,-3.0v7 M-2.5,-0.5L0,-3.0L2.5,-0.5"/>
                </g>
        </g>
        <svg viewBox="0 0 15 15" width="100%" height="30px" preserveAspectRatio="xMaxYMin meet">
         <g id="arrow_out" transform="scale(0.3 0.3)">
          <a xlink:href="hud__renderer_8h_ab5cb89e6807b7b1d9c9263e5ba97f9bd_icgraph_org.svg" target="_base">
           <rect id="button" ry="5" rx="5" y="6" x="6" height="38" width="38"
                fill="#f2f5e9" fill-opacity="0.5" stroke="#606060" stroke-width="1.0"/>
           <path id="arrow"
             d="M 11.500037,31.436501 C 11.940474,20.09759 22.043105,11.32322 32.158766,21.979434 L 37.068811,17.246167 C 37.068811,17.246167 37.088388,32 37.088388,32 L 22.160133,31.978069 C 22.160133,31.978069 26.997745,27.140456 26.997745,27.140456 C 18.528582,18.264221 13.291696,25.230495 11.500037,31.436501 z"
             style="fill:#404040;"/>
          </a>
         </g>
        </svg>
</svg>
