<?xml version="1.0" encoding="UTF-8" standalone="no"?>
<!DOCTYPE svg PUBLIC "-//W3C//DTD SVG 1.1//EN"
 "http://www.w3.org/Graphics/SVG/1.1/DTD/svg11.dtd">
<!-- Generated by graphviz version 2.43.0 (0)
 -->
<!-- Title: func_80057114 Pages: 1 -->
<!--zoomable 568 -->

<svg id="main" version="1.1" xmlns="http://www.w3.org/2000/svg" xmlns:xlink="http://www.w3.org/1999/xlink" xml:space="preserve" onload="init(evt)">
<style type="text/css"><![CDATA[
.node, .edge {opacity: 0.7;}
.node.selected, .edge.selected {opacity: 1;}
.edge:hover path { stroke: red; }
.edge:hover polygon { stroke: red; fill: red; }
]]></style>

<defs>
  <circle id="rim" cx="0" cy="0" r="7"/>
  <circle id="rim2" cx="0" cy="0" r="3.5"/>
  <g id="zoomPlus">
    <use xlink:href="#rim" fill="#404040"><set attributeName="fill" to="#808080" begin="zoomplus.mouseover" end="zoomplus.mouseout"/></use>
    <path d="M-4,0h8M0,-4v8" fill="none" stroke="white" stroke-width="1.5" pointer-events="none"/>
  </g>
  <g id="zoomMin">
    <use xlink:href="#rim" fill="#404040"><set attributeName="fill" to="#808080" begin="zoomminus.mouseover" end="zoomminus.mouseout"/></use>
    <path d="M-4,0h8" fill="none" stroke="white" stroke-width="1.5" pointer-events="none"/>
  </g>
  <g id="arrowUp" transform="translate(30 24)">
    <use xlink:href="#rim"/>
    <path pointer-events="none" fill="none" stroke="white" stroke-width="1.5" d="M0,-3.0v7 M-2.5,-0.5L0,-3.0L2.5,-0.5"/>
  </g>
  <g id="arrowRight" transform="rotate(90) translate(36 -43)">
    <use xlink:href="#rim"/>
    <path pointer-events="none" fill="none" stroke="white" stroke-width="1.5" d="M0,-3.0v7 M-2.5,-0.5L0,-3.0L2.5,-0.5"/>
  </g>
  <g id="arrowDown" transform="rotate(180) translate(-30 -48)">
    <use xlink:href="#rim"/>
    <path pointer-events="none" fill="none" stroke="white" stroke-width="1.5" d="M0,-3.0v7 M-2.5,-0.5L0,-3.0L2.5,-0.5"/>
  </g>
  <g id="arrowLeft" transform="rotate(270) translate(-36 17)">
    <use xlink:href="#rim"/>
    <path pointer-events="none" fill="none" stroke="white" stroke-width="1.5" d="M0,-3.0v7 M-2.5,-0.5L0,-3.0L2.5,-0.5"/>
  </g>
  <g id="resetDef">
    <use xlink:href="#rim2" fill="#404040"><set attributeName="fill" to="#808080" begin="reset.mouseover" end="reset.mouseout"/></use>
  </g>
</defs>
<script type="application/ecmascript">
var viewWidth = 1070;
var viewHeight = 568;
var sectionId = 'dynsection-558';
</script>
<script type="application/ecmascript" xlink:href="svg.min.js"/>
<svg id="graph" class="graph">
<g id="viewport">
<title>func_80057114</title>
<!-- Node1 -->
<g id="Node000001" class="node">
<title>Node1</title>
<g id="a_Node000001"><a xlink:title=" ">
<polygon fill="#999999" stroke="#666666" points="91,-321.5 0,-321.5 0,-302.5 91,-302.5 91,-321.5"/>
<text text-anchor="middle" x="45.5" y="-309.5" font-family="Helvetica,sans-Serif" font-size="10.00">func_80057114</text>
</a>
</g>
</g>
<!-- Node2 -->
<g id="Node000002" class="node">
<title>Node2</title>
<g id="a_Node000002"><a xlink:href="math__util__2_8c.html#a99d173c040cb4a9d0184df2605d71e32" target="_top" xlink:title=" ">
<polygon fill="white" stroke="#666666" points="399.5,-303.5 307.5,-303.5 307.5,-284.5 399.5,-284.5 399.5,-303.5"/>
<text text-anchor="middle" x="353.5" y="-291.5" font-family="Helvetica,sans-Serif" font-size="10.00">func_800418AC</text>
</a>
</g>
</g>
<!-- Node1&#45;&gt;Node2 -->
<g id="edge1_Node000001_Node000002" class="edge">
<title>Node1&#45;&gt;Node2</title>
<g id="a_edge1_Node000001_Node000002"><a xlink:title=" ">
<path fill="none" stroke="#63b8ff" d="M91.32,-309.36C145.82,-306.16 237.81,-300.75 296.8,-297.28"/>
<polygon fill="#63b8ff" stroke="#63b8ff" points="297.28,-300.75 307.06,-296.67 296.87,-293.77 297.28,-300.75"/>
</a>
</g>
</g>
<!-- Node5 -->
<g id="Node000005" class="node">
<title>Node5</title>
<g id="a_Node000005"><a xlink:href="hud__renderer_8c.html#a8e71bb2a914da25c9767d72707665f58" target="_top" xlink:title=" ">
<polygon fill="white" stroke="#666666" points="235.5,-227.5 142.5,-227.5 142.5,-208.5 235.5,-208.5 235.5,-227.5"/>
<text text-anchor="middle" x="189" y="-215.5" font-family="Helvetica,sans-Serif" font-size="10.00">func_800563DC</text>
</a>
</g>
</g>
<!-- Node1&#45;&gt;Node5 -->
<g id="edge4_Node000001_Node000005" class="edge">
<title>Node1&#45;&gt;Node5</title>
<g id="a_edge4_Node000001_Node000005"><a xlink:title=" ">
<path fill="none" stroke="#63b8ff" d="M60.85,-302.47C85.42,-286.14 135.77,-252.69 165.2,-233.14"/>
<polygon fill="#63b8ff" stroke="#63b8ff" points="167.22,-236 173.62,-227.56 163.35,-230.17 167.22,-236"/>
</a>
</g>
</g>
<!-- Node18 -->
<g id="Node000018" class="node">
<title>Node18</title>
<g id="a_Node000018"><a xlink:href="hud__renderer_8c.html#a8aa62f17d0c7f54dc68e9aaa298f8715" target="_top" xlink:title=" ">
<polygon fill="white" stroke="#666666" points="234.5,-340.5 143.5,-340.5 143.5,-321.5 234.5,-321.5 234.5,-340.5"/>
<text text-anchor="middle" x="189" y="-328.5" font-family="Helvetica,sans-Serif" font-size="10.00">func_80056E24</text>
</a>
</g>
</g>
<!-- Node1&#45;&gt;Node18 -->
<g id="edge19_Node000001_Node000018" class="edge">
<title>Node1&#45;&gt;Node18</title>
<g id="a_edge19_Node000001_Node000018"><a xlink:title=" ">
<path fill="none" stroke="#63b8ff" d="M91.27,-318.01C104.43,-319.78 118.99,-321.73 132.73,-323.58"/>
<polygon fill="#63b8ff" stroke="#63b8ff" points="132.66,-327.1 143.03,-324.96 133.59,-320.16 132.66,-327.1"/>
</a>
</g>
</g>
<!-- Node21 -->
<g id="Node000021" class="node">
<title>Node21</title>
<g id="a_Node000021"><a xlink:href="hud__renderer_8c.html#ad38e748954bfdc19d29272dbf4703c0e" target="_top" xlink:title=" ">
<polygon fill="white" stroke="#666666" points="585.5,-95.5 493.5,-95.5 493.5,-76.5 585.5,-76.5 585.5,-95.5"/>
<text text-anchor="middle" x="539.5" y="-83.5" font-family="Helvetica,sans-Serif" font-size="10.00">func_80056FCC</text>
</a>
</g>
</g>
<!-- Node1&#45;&gt;Node21 -->
<g id="edge24_Node000001_Node000021" class="edge">
<title>Node1&#45;&gt;Node21</title>
<g id="a_edge24_Node000001_Node000021"><a xlink:title=" ">
<path fill="none" stroke="#63b8ff" d="M51.9,-302.34C74.34,-263.42 164.77,-118.28 287,-77 354.72,-54.13 438.59,-64.16 490.32,-74.39"/>
<polygon fill="#63b8ff" stroke="#63b8ff" points="489.72,-77.84 500.22,-76.43 491.13,-70.98 489.72,-77.84"/>
</a>
</g>
</g>
<!-- Node27 -->
<g id="Node000027" class="node">
<title>Node27</title>
<g id="a_Node000027"><a xlink:href="code__80086E70_8c.html#a364496b44c479b8d7937d98d2283c89e" target="_top" xlink:title=" ">
<polygon fill="white" stroke="#666666" points="235,-463.5 143,-463.5 143,-444.5 235,-444.5 235,-463.5"/>
<text text-anchor="middle" x="189" y="-451.5" font-family="Helvetica,sans-Serif" font-size="10.00">func_8008A364</text>
</a>
</g>
</g>
<!-- Node1&#45;&gt;Node27 -->
<g id="edge33_Node000001_Node000027" class="edge">
<title>Node1&#45;&gt;Node27</title>
<g id="a_edge33_Node000001_Node000027"><a xlink:title=" ">
<path fill="none" stroke="#63b8ff" d="M54.02,-321.6C67.72,-338.86 98.03,-375.95 127,-404 139.51,-416.11 154.64,-428.52 166.7,-437.95"/>
<polygon fill="#63b8ff" stroke="#63b8ff" points="164.8,-440.91 174.86,-444.24 169.08,-435.37 164.8,-440.91"/>
</a>
</g>
</g>
<!-- Node31 -->
<g id="Node000031" class="node">
<title>Node31</title>
<g id="a_Node000031"><a xlink:href="code__80071F00_8c.html#a9d0d6fe8e02dc86bf4f9f8c8214ee326" target="_top" xlink:title=" ">
<polygon fill="white" stroke="#666666" points="410,-560 297,-560 297,-530 410,-530 410,-560"/>
<text text-anchor="start" x="305" y="-548" font-family="Helvetica,sans-Serif" font-size="10.00">set_object_flag_unk</text>
<text text-anchor="middle" x="353.5" y="-537" font-family="Helvetica,sans-Serif" font-size="10.00">_054_false</text>
</a>
</g>
</g>
<!-- Node1&#45;&gt;Node31 -->
<g id="edge41_Node000001_Node000031" class="edge">
<title>Node1&#45;&gt;Node31</title>
<g id="a_edge41_Node000001_Node000031"><a xlink:title=" ">
<path fill="none" stroke="#63b8ff" d="M48.53,-321.59C54.92,-349.32 77.15,-430.32 127,-473 171.88,-511.43 237.48,-529.4 286.36,-537.78"/>
<polygon fill="#63b8ff" stroke="#63b8ff" points="286.1,-541.28 296.53,-539.42 287.21,-534.37 286.1,-541.28"/>
</a>
</g>
</g>
<!-- Node32 -->
<g id="Node000032" class="node">
<title>Node32</title>
<g id="a_Node000032"><a xlink:href="code__80071F00_8c.html#a946b33c1ed166b19b04e4528c3641b9a" target="_top" xlink:title=" ">
<polygon fill="white" stroke="#666666" points="410,-426 297,-426 297,-396 410,-396 410,-426"/>
<text text-anchor="start" x="305" y="-414" font-family="Helvetica,sans-Serif" font-size="10.00">set_object_flag_unk</text>
<text text-anchor="middle" x="353.5" y="-403" font-family="Helvetica,sans-Serif" font-size="10.00">_054_true</text>
</a>
</g>
</g>
<!-- Node1&#45;&gt;Node32 -->
<g id="edge42_Node000001_Node000032" class="edge">
<title>Node1&#45;&gt;Node32</title>
<g id="a_edge42_Node000001_Node000032"><a xlink:title=" ">
<path fill="none" stroke="#63b8ff" d="M64.33,-321.54C80.39,-329.86 104.81,-341.83 127,-350 179.83,-369.44 241.67,-385.74 287.22,-396.58"/>
<polygon fill="#63b8ff" stroke="#63b8ff" points="286.43,-399.99 296.97,-398.88 288.04,-393.18 286.43,-399.99"/>
</a>
</g>
</g>
<!-- Node33 -->
<g id="Node000033" class="node">
<title>Node33</title>
<g id="a_Node000033"><a xlink:href="code__80071F00_8c.html#a5d62494ea345d5a576d4440772111136" target="_top" xlink:title=" ">
<polygon fill="white" stroke="#666666" points="251,-30 127,-30 127,0 251,0 251,-30"/>
<text text-anchor="start" x="135" y="-18" font-family="Helvetica,sans-Serif" font-size="10.00">is_obj_index_flag_unk</text>
<text text-anchor="middle" x="189" y="-7" font-family="Helvetica,sans-Serif" font-size="10.00">_054_active</text>
</a>
</g>
</g>
<!-- Node1&#45;&gt;Node33 -->
<g id="edge40_Node000001_Node000033" class="edge">
<title>Node1&#45;&gt;Node33</title>
<g id="a_edge40_Node000001_Node000033"><a xlink:title=" ">
<path fill="none" stroke="#63b8ff" d="M46.7,-302.4C47.97,-264.73 57.38,-125.09 127,-44 129.63,-40.93 132.66,-38.17 135.93,-35.68"/>
<polygon fill="#63b8ff" stroke="#63b8ff" points="138.05,-38.47 144.47,-30.04 134.2,-32.63 138.05,-38.47"/>
</a>
</g>
</g>
<!-- Node3 -->
<g id="Node000003" class="node">
<title>Node3</title>
<g id="a_Node000003"><a xlink:href="math__util_8c.html#aaa39a297477f56051975259f4bddd829" target="_top" xlink:title=" ">
<polygon fill="white" stroke="#666666" points="772,-382.5 722,-382.5 722,-363.5 772,-363.5 772,-382.5"/>
<text text-anchor="middle" x="747" y="-370.5" font-family="Helvetica,sans-Serif" font-size="10.00">atan2s</text>
</a>
</g>
</g>
<!-- Node2&#45;&gt;Node3 -->
<g id="edge2_Node000002_Node000003" class="edge">
<title>Node2&#45;&gt;Node3</title>
<g id="a_edge2_Node000002_Node000003"><a xlink:title=" ">
<path fill="none" stroke="#63b8ff" d="M399.79,-303.14C479.05,-319.13 641.19,-351.85 711.83,-366.1"/>
<polygon fill="#63b8ff" stroke="#63b8ff" points="711.47,-369.6 721.96,-368.15 712.85,-362.74 711.47,-369.6"/>
</a>
</g>
</g>
<!-- Node4 -->
<g id="Node000004" class="node">
<title>Node4</title>
<g id="a_Node000004"><a xlink:href="math__util_8c.html#a0273b0ea0783a06996c28669a7438ed9" target="_top" xlink:title=" ">
<polygon fill="white" stroke="#666666" points="970,-382.5 888,-382.5 888,-363.5 970,-363.5 970,-382.5"/>
<text text-anchor="middle" x="929" y="-370.5" font-family="Helvetica,sans-Serif" font-size="10.00">atan2_lookup</text>
</a>
</g>
</g>
<!-- Node3&#45;&gt;Node4 -->
<g id="edge3_Node000003_Node000004" class="edge">
<title>Node3&#45;&gt;Node4</title>
<g id="a_edge3_Node000003_Node000004"><a xlink:title=" ">
<path fill="none" stroke="#63b8ff" d="M772.28,-373C799.15,-373 843.21,-373 877.62,-373"/>
<polygon fill="#63b8ff" stroke="#63b8ff" points="877.96,-376.5 887.96,-373 877.96,-369.5 877.96,-376.5"/>
</a>
</g>
</g>
<!-- Node5&#45;&gt;Node2 -->
<g id="edge7_Node000005_Node000002" class="edge">
<title>Node5&#45;&gt;Node2</title>
<g id="a_edge7_Node000005_Node000002"><a xlink:title=" ">
<path fill="none" stroke="#63b8ff" d="M206.12,-227.55C225.09,-238.57 257.71,-256.86 287,-270 295.68,-273.89 305.21,-277.66 314.24,-281.01"/>
<polygon fill="#63b8ff" stroke="#63b8ff" points="313.18,-284.35 323.78,-284.46 315.57,-277.77 313.18,-284.35"/>
</a>
</g>
</g>
<!-- Node6 -->
<g id="Node000006" class="node">
<title>Node6</title>
<g id="a_Node000006"><a xlink:href="hud__renderer_8c.html#ae26e654f6475a589c21479ac8d294084" target="_top" xlink:title=" ">
<polygon fill="white" stroke="#666666" points="419.5,-116 287.5,-116 287.5,-86 419.5,-86 419.5,-116"/>
<text text-anchor="start" x="295.5" y="-104" font-family="Helvetica,sans-Serif" font-size="10.00">draw_rectangle_texture</text>
<text text-anchor="middle" x="353.5" y="-93" font-family="Helvetica,sans-Serif" font-size="10.00">_overlap</text>
</a>
</g>
</g>
<!-- Node5&#45;&gt;Node6 -->
<g id="edge5_Node000005_Node000006" class="edge">
<title>Node5&#45;&gt;Node6</title>
<g id="a_edge5_Node000005_Node000006"><a xlink:title=" ">
<path fill="none" stroke="#63b8ff" d="M197.56,-208.49C212.69,-190.01 248.6,-148.96 287,-125 289.59,-123.39 292.3,-121.86 295.09,-120.41"/>
<polygon fill="#63b8ff" stroke="#63b8ff" points="296.66,-123.54 304.19,-116.08 293.65,-117.22 296.66,-123.54"/>
</a>
</g>
</g>
<!-- Node8 -->
<g id="Node000008" class="node">
<title>Node8</title>
<g id="a_Node000008"><a xlink:href="hud__renderer_8c.html#a852c220b9eb9af78cce8e5b866dba9b2" target="_top" xlink:title=" ">
<polygon fill="white" stroke="#666666" points="399.5,-190.5 307.5,-190.5 307.5,-171.5 399.5,-171.5 399.5,-190.5"/>
<text text-anchor="middle" x="353.5" y="-178.5" font-family="Helvetica,sans-Serif" font-size="10.00">func_8004B310</text>
</a>
</g>
</g>
<!-- Node5&#45;&gt;Node8 -->
<g id="edge8_Node000005_Node000008" class="edge">
<title>Node5&#45;&gt;Node8</title>
<g id="a_edge8_Node000005_Node000008"><a xlink:title=" ">
<path fill="none" stroke="#63b8ff" d="M231.85,-208.47C252.81,-203.7 278.38,-197.88 300.58,-192.82"/>
<polygon fill="#63b8ff" stroke="#63b8ff" points="301.54,-196.19 310.51,-190.56 299.98,-189.37 301.54,-196.19"/>
</a>
</g>
</g>
<!-- Node9 -->
<g id="Node000009" class="node">
<title>Node9</title>
<g id="a_Node000009"><a xlink:href="hud__renderer_8c.html#a9ea20c14c263ed864d8e02d082b6b18b" target="_top" xlink:title=" ">
<polygon fill="white" stroke="#666666" points="399.5,-153.5 307.5,-153.5 307.5,-134.5 399.5,-134.5 399.5,-153.5"/>
<text text-anchor="middle" x="353.5" y="-141.5" font-family="Helvetica,sans-Serif" font-size="10.00">func_8004B414</text>
</a>
</g>
</g>
<!-- Node5&#45;&gt;Node9 -->
<g id="edge9_Node000005_Node000009" class="edge">
<title>Node5&#45;&gt;Node9</title>
<g id="a_edge9_Node000005_Node000009"><a xlink:title=" ">
<path fill="none" stroke="#63b8ff" d="M203.87,-208.46C222.19,-196.23 255.78,-175.05 287,-162 291.71,-160.03 296.7,-158.22 301.73,-156.56"/>
<polygon fill="#63b8ff" stroke="#63b8ff" points="302.91,-159.86 311.42,-153.56 300.84,-153.17 302.91,-159.86"/>
</a>
</g>
</g>
<!-- Node10 -->
<g id="Node000010" class="node">
<title>Node10</title>
<g id="a_Node000010"><a xlink:href="hud__renderer_8c.html#a4f12cf578f0abd9e0aaa3f9adc4fe324" target="_top" xlink:title=" ">
<polygon fill="white" stroke="#666666" points="399,-227.5 308,-227.5 308,-208.5 399,-208.5 399,-227.5"/>
<text text-anchor="middle" x="353.5" y="-215.5" font-family="Helvetica,sans-Serif" font-size="10.00">func_800562E4</text>
</a>
</g>
</g>
<!-- Node5&#45;&gt;Node10 -->
<g id="edge10_Node000005_Node000010" class="edge">
<title>Node5&#45;&gt;Node10</title>
<g id="a_edge10_Node000005_Node000010"><a xlink:title=" ">
<path fill="none" stroke="#63b8ff" d="M235.7,-218C255.05,-218 277.76,-218 297.98,-218"/>
<polygon fill="#63b8ff" stroke="#63b8ff" points="297.99,-221.5 307.99,-218 297.99,-214.5 297.99,-221.5"/>
</a>
</g>
</g>
<!-- Node13 -->
<g id="Node000013" class="node">
<title>Node13</title>
<g id="a_Node000013"><a xlink:href="math__util__2_8c.html#a2eff0e02deb703653ee3230fbc02eb14" target="_top" xlink:title="set the matrix to a transformation matrix">
<polygon fill="white" stroke="#666666" points="623,-264.5 456,-264.5 456,-245.5 623,-245.5 623,-264.5"/>
<text text-anchor="middle" x="539.5" y="-252.5" font-family="Helvetica,sans-Serif" font-size="10.00">rsp_set_matrix_transformation</text>
</a>
</g>
</g>
<!-- Node5&#45;&gt;Node13 -->
<g id="edge18_Node000005_Node000013" class="edge">
<title>Node5&#45;&gt;Node13</title>
<g id="a_edge18_Node000005_Node000013"><a xlink:title=" ">
<path fill="none" stroke="#63b8ff" d="M235.73,-227.54C251.87,-230.62 270.19,-233.81 287,-236 339.4,-242.82 398.27,-247.43 445.88,-250.4"/>
<polygon fill="#63b8ff" stroke="#63b8ff" points="445.67,-253.9 455.87,-251.01 446.1,-246.91 445.67,-253.9"/>
</a>
</g>
</g>
<!-- Node7 -->
<g id="Node000007" class="node">
<title>Node7</title>
<g id="a_Node000007"><a xlink:href="hud__renderer_8c.html#a8a3e9d3da5a6ac97b84b553fdc5d7d59" target="_top" xlink:title=" ">
<polygon fill="white" stroke="#666666" points="588.5,-132.5 490.5,-132.5 490.5,-113.5 588.5,-113.5 588.5,-132.5"/>
<text text-anchor="middle" x="539.5" y="-120.5" font-family="Helvetica,sans-Serif" font-size="10.00">rsp_load_texture</text>
</a>
</g>
</g>
<!-- Node6&#45;&gt;Node7 -->
<g id="edge6_Node000006_Node000007" class="edge">
<title>Node6&#45;&gt;Node7</title>
<g id="a_edge6_Node000006_Node000007"><a xlink:title=" ">
<path fill="none" stroke="#63b8ff" d="M419.63,-108.79C439.35,-111.14 460.87,-113.72 480.12,-116.02"/>
<polygon fill="#63b8ff" stroke="#63b8ff" points="479.9,-119.52 490.25,-117.23 480.73,-112.57 479.9,-119.52"/>
</a>
</g>
</g>
<!-- Node11 -->
<g id="Node000011" class="node">
<title>Node11</title>
<g id="a_Node000011"><a xlink:href="hud__renderer_8c.html#a01f1c93f475b407a8e57888c6a6dd45b" target="_top" xlink:title=" ">
<polygon fill="white" stroke="#666666" points="585.5,-190.5 493.5,-190.5 493.5,-171.5 585.5,-171.5 585.5,-190.5"/>
<text text-anchor="middle" x="539.5" y="-178.5" font-family="Helvetica,sans-Serif" font-size="10.00">func_80044BF8</text>
</a>
</g>
</g>
<!-- Node10&#45;&gt;Node11 -->
<g id="edge11_Node000010_Node000011" class="edge">
<title>Node10&#45;&gt;Node11</title>
<g id="a_edge11_Node000010_Node000011"><a xlink:title=" ">
<path fill="none" stroke="#63b8ff" d="M399.04,-209.04C424.41,-203.94 456.41,-197.51 483.36,-192.09"/>
<polygon fill="#63b8ff" stroke="#63b8ff" points="484.3,-195.47 493.41,-190.07 482.92,-188.61 484.3,-195.47"/>
</a>
</g>
</g>
<!-- Node12 -->
<g id="Node000012" class="node">
<title>Node12</title>
<g id="a_Node000012"><a xlink:href="hud__renderer_8c.html#a816f6d2e246056f98e788f34a8bd091a" target="_top" xlink:title=" ">
<polygon fill="white" stroke="#666666" points="585.5,-227.5 493.5,-227.5 493.5,-208.5 585.5,-208.5 585.5,-227.5"/>
<text text-anchor="middle" x="539.5" y="-215.5" font-family="Helvetica,sans-Serif" font-size="10.00">func_8004B138</text>
</a>
</g>
</g>
<!-- Node10&#45;&gt;Node12 -->
<g id="edge12_Node000010_Node000012" class="edge">
<title>Node10&#45;&gt;Node12</title>
<g id="a_edge12_Node000010_Node000012"><a xlink:title=" ">
<path fill="none" stroke="#63b8ff" d="M399.04,-218C424.41,-218 456.41,-218 483.36,-218"/>
<polygon fill="#63b8ff" stroke="#63b8ff" points="483.41,-221.5 493.41,-218 483.41,-214.5 483.41,-221.5"/>
</a>
</g>
</g>
<!-- Node10&#45;&gt;Node13 -->
<g id="edge13_Node000010_Node000013" class="edge">
<title>Node10&#45;&gt;Node13</title>
<g id="a_edge13_Node000010_Node000013"><a xlink:title=" ">
<path fill="none" stroke="#63b8ff" d="M399.04,-226.96C423.75,-231.93 454.75,-238.16 481.24,-243.49"/>
<polygon fill="#63b8ff" stroke="#63b8ff" points="480.66,-246.94 491.15,-245.48 482.04,-240.08 480.66,-246.94"/>
</a>
</g>
</g>
<!-- Node14 -->
<g id="Node000014" class="node">
<title>Node14</title>
<g id="a_Node000014"><a xlink:href="render__player_8c.html#af0bbe78d8dc64400663d3702812f9ad8" target="_top" xlink:title=" ">
<polygon fill="white" stroke="#666666" points="810.5,-203 683.5,-203 683.5,-173 810.5,-173 810.5,-203"/>
<text text-anchor="start" x="691.5" y="-191" font-family="Helvetica,sans-Serif" font-size="10.00">convert_to_fixed_point</text>
<text text-anchor="middle" x="747" y="-180" font-family="Helvetica,sans-Serif" font-size="10.00">_matrix</text>
</a>
</g>
</g>
<!-- Node13&#45;&gt;Node14 -->
<g id="edge14_Node000013_Node000014" class="edge">
<title>Node13&#45;&gt;Node14</title>
<g id="a_edge14_Node000013_Node000014"><a xlink:title=" ">
<path fill="none" stroke="#63b8ff" d="M590.78,-245.42C601.55,-242.82 612.76,-239.68 623,-236 639.83,-229.95 642.51,-224.93 659,-218 668.6,-213.97 678.95,-210.04 689.05,-206.43"/>
<polygon fill="#63b8ff" stroke="#63b8ff" points="690.34,-209.69 698.62,-203.08 688.02,-203.08 690.34,-209.69"/>
</a>
</g>
</g>
<!-- Node15 -->
<g id="Node000015" class="node">
<title>Node15</title>
<g id="a_Node000015"><a xlink:href="math__util__2_8c.html#a88742c6110738fc1c35a57f50920a81f" target="_top" xlink:title=" ">
<polygon fill="white" stroke="#666666" points="835,-246.5 659,-246.5 659,-227.5 835,-227.5 835,-246.5"/>
<text text-anchor="middle" x="747" y="-234.5" font-family="Helvetica,sans-Serif" font-size="10.00">mtxf_set_matrix_transformation</text>
</a>
</g>
</g>
<!-- Node13&#45;&gt;Node15 -->
<g id="edge15_Node000013_Node000015" class="edge">
<title>Node13&#45;&gt;Node15</title>
<g id="a_edge15_Node000013_Node000015"><a xlink:title=" ">
<path fill="none" stroke="#63b8ff" d="M623.2,-247.76C631.61,-247.02 640.22,-246.27 648.77,-245.52"/>
<polygon fill="#63b8ff" stroke="#63b8ff" points="649.12,-249 658.77,-244.64 648.5,-242.03 649.12,-249"/>
</a>
</g>
</g>
<!-- Node16 -->
<g id="Node000016" class="node">
<title>Node16</title>
<g id="a_Node000016"><a xlink:href="math__util_8c.html#ae69cbf5c8d4b3b0dba2d7b4d4673689f" target="_top" xlink:title=" ">
<polygon fill="white" stroke="#666666" points="948,-246.5 910,-246.5 910,-227.5 948,-227.5 948,-246.5"/>
<text text-anchor="middle" x="929" y="-234.5" font-family="Helvetica,sans-Serif" font-size="10.00">coss</text>
</a>
</g>
</g>
<!-- Node15&#45;&gt;Node16 -->
<g id="edge16_Node000015_Node000016" class="edge">
<title>Node15&#45;&gt;Node16</title>
<g id="a_edge16_Node000015_Node000016"><a xlink:title=" ">
<path fill="none" stroke="#63b8ff" d="M835.1,-237C858.43,-237 882.03,-237 899.6,-237"/>
<polygon fill="#63b8ff" stroke="#63b8ff" points="899.71,-240.5 909.71,-237 899.71,-233.5 899.71,-240.5"/>
</a>
</g>
</g>
<!-- Node17 -->
<g id="Node000017" class="node">
<title>Node17</title>
<g id="a_Node000017"><a xlink:href="math__util_8c.html#a19ed3bd78fd2d3e2bd0a29f6caf48545" target="_top" xlink:title=" ">
<polygon fill="white" stroke="#666666" points="947,-209.5 911,-209.5 911,-190.5 947,-190.5 947,-209.5"/>
<text text-anchor="middle" x="929" y="-197.5" font-family="Helvetica,sans-Serif" font-size="10.00">sins</text>
</a>
</g>
</g>
<!-- Node15&#45;&gt;Node17 -->
<g id="edge17_Node000015_Node000017" class="edge">
<title>Node15&#45;&gt;Node17</title>
<g id="a_edge17_Node000015_Node000017"><a xlink:title=" ">
<path fill="none" stroke="#63b8ff" d="M794.35,-227.47C828.16,-220.52 872.81,-211.35 900.97,-205.56"/>
<polygon fill="#63b8ff" stroke="#63b8ff" points="901.81,-208.96 910.9,-203.52 900.4,-202.1 901.81,-208.96"/>
</a>
</g>
</g>
<!-- Node18&#45;&gt;Node2 -->
<g id="edge20_Node000018_Node000002" class="edge">
<title>Node18&#45;&gt;Node2</title>
<g id="a_edge20_Node000018_Node000002"><a xlink:title=" ">
<path fill="none" stroke="#63b8ff" d="M231.85,-321.47C252.81,-316.7 278.38,-310.88 300.58,-305.82"/>
<polygon fill="#63b8ff" stroke="#63b8ff" points="301.54,-309.19 310.51,-303.56 299.98,-302.37 301.54,-309.19"/>
</a>
</g>
</g>
<!-- Node19 -->
<g id="Node000019" class="node">
<title>Node19</title>
<g id="a_Node000019"><a xlink:href="hud__renderer_8c.html#abfc36be592b2cbf423febe66fa12ec34" target="_top" xlink:title=" ">
<polygon fill="white" stroke="#666666" points="399.5,-340.5 307.5,-340.5 307.5,-321.5 399.5,-321.5 399.5,-340.5"/>
<text text-anchor="middle" x="353.5" y="-328.5" font-family="Helvetica,sans-Serif" font-size="10.00">func_800431B0</text>
</a>
</g>
</g>
<!-- Node18&#45;&gt;Node19 -->
<g id="edge21_Node000018_Node000019" class="edge">
<title>Node18&#45;&gt;Node19</title>
<g id="a_edge21_Node000018_Node000019"><a xlink:title=" ">
<path fill="none" stroke="#63b8ff" d="M234.83,-331C254.12,-331 276.86,-331 297.18,-331"/>
<polygon fill="#63b8ff" stroke="#63b8ff" points="297.25,-334.5 307.25,-331 297.25,-327.5 297.25,-334.5"/>
</a>
</g>
</g>
<!-- Node20 -->
<g id="Node000020" class="node">
<title>Node20</title>
<g id="a_Node000020"><a xlink:href="hud__renderer_8c.html#ad1c5daceb565b2768d02b2308bbf18d2" target="_top" xlink:title=" ">
<polygon fill="white" stroke="#666666" points="399.5,-377.5 307.5,-377.5 307.5,-358.5 399.5,-358.5 399.5,-377.5"/>
<text text-anchor="middle" x="353.5" y="-365.5" font-family="Helvetica,sans-Serif" font-size="10.00">func_80043D50</text>
</a>
</g>
</g>
<!-- Node18&#45;&gt;Node20 -->
<g id="edge23_Node000018_Node000020" class="edge">
<title>Node18&#45;&gt;Node20</title>
<g id="a_edge23_Node000018_Node000020"><a xlink:title=" ">
<path fill="none" stroke="#63b8ff" d="M231.85,-340.53C252.81,-345.3 278.38,-351.12 300.58,-356.18"/>
<polygon fill="#63b8ff" stroke="#63b8ff" points="299.98,-359.63 310.51,-358.44 301.54,-352.81 299.98,-359.63"/>
</a>
</g>
</g>
<!-- Node19&#45;&gt;Node13 -->
<g id="edge22_Node000019_Node000013" class="edge">
<title>Node19&#45;&gt;Node13</title>
<g id="a_edge22_Node000019_Node000013"><a xlink:title=" ">
<path fill="none" stroke="#63b8ff" d="M391.58,-321.41C400.95,-318.66 410.93,-315.47 420,-312 452.42,-299.6 488.13,-281.82 511.79,-269.43"/>
<polygon fill="#63b8ff" stroke="#63b8ff" points="513.64,-272.41 520.84,-264.64 510.36,-266.22 513.64,-272.41"/>
</a>
</g>
</g>
<!-- Node21&#45;&gt;Node14 -->
<g id="edge25_Node000021_Node000014" class="edge">
<title>Node21&#45;&gt;Node14</title>
<g id="a_edge25_Node000021_Node000014"><a xlink:title=" ">
<path fill="none" stroke="#63b8ff" d="M585.75,-89.63C598.59,-92.26 612.04,-96.66 623,-104 646.36,-119.64 636.77,-138.79 659,-156 665.35,-160.92 672.54,-165.14 679.98,-168.74"/>
<polygon fill="#63b8ff" stroke="#63b8ff" points="678.96,-172.11 689.52,-172.98 681.8,-165.72 678.96,-172.11"/>
</a>
</g>
</g>
<!-- Node22 -->
<g id="Node000022" class="node">
<title>Node22</title>
<g id="a_Node000022"><a xlink:href="math__util__2_8c.html#aae502d60ed48e002c9bf17890477aebc" target="_top" xlink:title=" ">
<polygon fill="white" stroke="#666666" points="808,-147.5 686,-147.5 686,-128.5 808,-128.5 808,-147.5"/>
<text text-anchor="middle" x="747" y="-135.5" font-family="Helvetica,sans-Serif" font-size="10.00">set_transform_matrix</text>
</a>
</g>
</g>
<!-- Node21&#45;&gt;Node22 -->
<g id="edge26_Node000021_Node000022" class="edge">
<title>Node21&#45;&gt;Node22</title>
<g id="a_edge26_Node000021_Node000022"><a xlink:title=" ">
<path fill="none" stroke="#63b8ff" d="M585.56,-95.36C597.74,-98.02 610.9,-101.01 623,-104 650.01,-110.67 680.11,-118.98 703.78,-125.71"/>
<polygon fill="#63b8ff" stroke="#63b8ff" points="702.92,-129.11 713.5,-128.49 704.85,-122.38 702.92,-129.11"/>
</a>
</g>
</g>
<!-- Node22&#45;&gt;Node16 -->
<g id="edge27_Node000022_Node000016" class="edge">
<title>Node22&#45;&gt;Node16</title>
<g id="a_edge27_Node000022_Node000016"><a xlink:title=" ">
<path fill="none" stroke="#63b8ff" d="M801.35,-147.63C813.17,-151.42 825.11,-156.69 835,-164 858.19,-181.15 848.08,-200.49 871,-218 879.43,-224.44 890.15,-228.76 900.02,-231.63"/>
<polygon fill="#63b8ff" stroke="#63b8ff" points="899.31,-235.06 909.86,-234.12 901.03,-228.27 899.31,-235.06"/>
</a>
</g>
</g>
<!-- Node22&#45;&gt;Node17 -->
<g id="edge28_Node000022_Node000017" class="edge">
<title>Node22&#45;&gt;Node17</title>
<g id="a_edge28_Node000022_Node000017"><a xlink:title=" ">
<path fill="none" stroke="#63b8ff" d="M784.39,-147.55C800.13,-152.02 818.66,-157.74 835,-164 851.52,-170.33 854.58,-174.41 871,-181 880.67,-184.88 891.47,-188.62 901.05,-191.75"/>
<polygon fill="#63b8ff" stroke="#63b8ff" points="900.26,-195.17 910.85,-194.87 902.38,-188.5 900.26,-195.17"/>
</a>
</g>
</g>
<!-- Node23 -->
<g id="Node000023" class="node">
<title>Node23</title>
<g id="a_Node000023"><a xlink:href="math__util__2_8c.html#ab05a6d20123383498f07f82db7b6fb8d" target="_top" xlink:title=" ">
<polygon fill="white" stroke="#666666" points="987,-172.5 871,-172.5 871,-153.5 987,-153.5 987,-172.5"/>
<text text-anchor="middle" x="929" y="-160.5" font-family="Helvetica,sans-Serif" font-size="10.00">vec3f_cross_product</text>
</a>
</g>
</g>
<!-- Node22&#45;&gt;Node23 -->
<g id="edge29_Node000022_Node000023" class="edge">
<title>Node22&#45;&gt;Node23</title>
<g id="a_edge29_Node000022_Node000023"><a xlink:title=" ">
<path fill="none" stroke="#63b8ff" d="M808.19,-146.36C825.1,-148.71 843.6,-151.28 860.9,-153.68"/>
<polygon fill="#63b8ff" stroke="#63b8ff" points="860.53,-157.16 870.92,-155.07 861.49,-150.23 860.53,-157.16"/>
</a>
</g>
</g>
<!-- Node24 -->
<g id="Node000024" class="node">
<title>Node24</title>
<g id="a_Node000024"><a xlink:href="math__util__2_8c.html#ad692d06c2c62cfc4e1b91e03cc0acf00" target="_top" xlink:title=" ">
<polygon fill="white" stroke="#666666" points="978,-135.5 880,-135.5 880,-116.5 978,-116.5 978,-135.5"/>
<text text-anchor="middle" x="929" y="-123.5" font-family="Helvetica,sans-Serif" font-size="10.00">vec3f_normalize</text>
</a>
</g>
</g>
<!-- Node22&#45;&gt;Node24 -->
<g id="edge30_Node000022_Node000024" class="edge">
<title>Node22&#45;&gt;Node24</title>
<g id="a_edge30_Node000022_Node000024"><a xlink:title=" ">
<path fill="none" stroke="#63b8ff" d="M808.19,-133.99C828.03,-132.66 850.05,-131.2 869.75,-129.88"/>
<polygon fill="#63b8ff" stroke="#63b8ff" points="870.07,-133.37 879.81,-129.21 869.6,-126.39 870.07,-133.37"/>
</a>
</g>
</g>
<!-- Node26 -->
<g id="Node000026" class="node">
<title>Node26</title>
<g id="a_Node000026"><a xlink:href="math__util__2_8c.html#a03ebc759ba50db479384b0ad89225f1e" target="_top" xlink:title=" ">
<polygon fill="white" stroke="#666666" points="972,-98.5 886,-98.5 886,-79.5 972,-79.5 972,-98.5"/>
<text text-anchor="middle" x="929" y="-86.5" font-family="Helvetica,sans-Serif" font-size="10.00">vec3f_set_xyz</text>
</a>
</g>
</g>
<!-- Node22&#45;&gt;Node26 -->
<g id="edge32_Node000022_Node000026" class="edge">
<title>Node22&#45;&gt;Node26</title>
<g id="a_edge32_Node000022_Node000026"><a xlink:title=" ">
<path fill="none" stroke="#63b8ff" d="M783.13,-128.44C811.75,-120.65 852.34,-109.6 883.28,-101.17"/>
<polygon fill="#63b8ff" stroke="#63b8ff" points="884.23,-104.54 892.96,-98.54 882.39,-97.79 884.23,-104.54"/>
</a>
</g>
</g>
<!-- Node25 -->
<g id="Node000025" class="node">
<title>Node25</title>
<g id="a_Node000025"><a xlink:href="math_8h.html#a37bde043e94a6f074c78f10518fb5d99" target="_top" xlink:title=" ">
<polygon fill="white" stroke="#666666" points="1062,-135.5 1023,-135.5 1023,-116.5 1062,-116.5 1062,-135.5"/>
<text text-anchor="middle" x="1042.5" y="-123.5" font-family="Helvetica,sans-Serif" font-size="10.00">sqrtf</text>
</a>
</g>
</g>
<!-- Node24&#45;&gt;Node25 -->
<g id="edge31_Node000024_Node000025" class="edge">
<title>Node24&#45;&gt;Node25</title>
<g id="a_edge31_Node000024_Node000025"><a xlink:title=" ">
<path fill="none" stroke="#63b8ff" d="M978.26,-126C989.96,-126 1002.12,-126 1012.61,-126"/>
<polygon fill="#63b8ff" stroke="#63b8ff" points="1012.85,-129.5 1022.85,-126 1012.85,-122.5 1012.85,-129.5"/>
</a>
</g>
</g>
<!-- Node28 -->
<g id="Node000028" class="node">
<title>Node28</title>
<g id="a_Node000028"><a xlink:href="code__80086E70_8c.html#a8b9297822d5c76ed2210ab884878bc1b" target="_top" xlink:title=" ">
<polygon fill="white" stroke="#666666" points="399.5,-463.5 307.5,-463.5 307.5,-444.5 399.5,-444.5 399.5,-463.5"/>
<text text-anchor="middle" x="353.5" y="-451.5" font-family="Helvetica,sans-Serif" font-size="10.00">func_8008A140</text>
</a>
</g>
</g>
<!-- Node27&#45;&gt;Node28 -->
<g id="edge34_Node000027_Node000028" class="edge">
<title>Node27&#45;&gt;Node28</title>
<g id="a_edge34_Node000027_Node000028"><a xlink:title=" ">
<path fill="none" stroke="#63b8ff" d="M235.27,-454C254.55,-454 277.22,-454 297.46,-454"/>
<polygon fill="#63b8ff" stroke="#63b8ff" points="297.48,-457.5 307.48,-454 297.48,-450.5 297.48,-457.5"/>
</a>
</g>
</g>
<!-- Node30 -->
<g id="Node000030" class="node">
<title>Node30</title>
<g id="a_Node000030"><a xlink:href="code__80086E70_8c.html#abee4ac0bf830479754bf7a3054719714" target="_top" xlink:title="Returns the distance between the object and the camera.">
<polygon fill="white" stroke="#666666" points="420,-512 287,-512 287,-482 420,-482 420,-512"/>
<text text-anchor="start" x="295" y="-500" font-family="Helvetica,sans-Serif" font-size="10.00">get_horizontal_distance</text>
<text text-anchor="middle" x="353.5" y="-489" font-family="Helvetica,sans-Serif" font-size="10.00">_to_camera</text>
</a>
</g>
</g>
<!-- Node27&#45;&gt;Node30 -->
<g id="edge37_Node000027_Node000030" class="edge">
<title>Node27&#45;&gt;Node30</title>
<g id="a_edge37_Node000027_Node000030"><a xlink:title=" ">
<path fill="none" stroke="#63b8ff" d="M226.06,-463.54C243.66,-468.2 265.41,-473.95 285.87,-479.37"/>
<polygon fill="#63b8ff" stroke="#63b8ff" points="285.23,-482.82 295.79,-481.99 287.02,-476.05 285.23,-482.82"/>
</a>
</g>
</g>
<!-- Node27&#45;&gt;Node31 -->
<g id="edge38_Node000027_Node000031" class="edge">
<title>Node27&#45;&gt;Node31</title>
<g id="a_edge38_Node000027_Node000031"><a xlink:title=" ">
<path fill="none" stroke="#63b8ff" d="M201.92,-463.73C219.62,-477.82 254.29,-504.06 287,-521 290.31,-522.72 293.78,-524.37 297.31,-525.94"/>
<polygon fill="#63b8ff" stroke="#63b8ff" points="296.18,-529.27 306.76,-529.93 298.91,-522.82 296.18,-529.27"/>
</a>
</g>
</g>
<!-- Node27&#45;&gt;Node32 -->
<g id="edge39_Node000027_Node000032" class="edge">
<title>Node27&#45;&gt;Node32</title>
<g id="a_edge39_Node000027_Node000032"><a xlink:title=" ">
<path fill="none" stroke="#63b8ff" d="M226.06,-444.46C243.98,-439.72 266.2,-433.84 286.99,-428.33"/>
<polygon fill="#63b8ff" stroke="#63b8ff" points="287.97,-431.7 296.74,-425.75 286.18,-424.93 287.97,-431.7"/>
</a>
</g>
</g>
<!-- Node29 -->
<g id="Node000029" class="node">
<title>Node29</title>
<g id="a_Node000029"><a xlink:href="math__util__2_8c.html#a10e63f3a453c537f806fbb5371bde67c" target="_top" xlink:title=" ">
<polygon fill="white" stroke="#666666" points="585,-432.5 494,-432.5 494,-413.5 585,-413.5 585,-432.5"/>
<text text-anchor="middle" x="539.5" y="-420.5" font-family="Helvetica,sans-Serif" font-size="10.00">func_80041770</text>
</a>
</g>
</g>
<!-- Node28&#45;&gt;Node29 -->
<g id="edge35_Node000028_Node000029" class="edge">
<title>Node28&#45;&gt;Node29</title>
<g id="a_edge35_Node000028_Node000029"><a xlink:title=" ">
<path fill="none" stroke="#63b8ff" d="M399.51,-446.42C424.98,-442.13 457.02,-436.73 483.92,-432.2"/>
<polygon fill="#63b8ff" stroke="#63b8ff" points="484.67,-435.62 493.95,-430.51 483.51,-428.72 484.67,-435.62"/>
</a>
</g>
</g>
<!-- Node29&#45;&gt;Node3 -->
<g id="edge36_Node000029_Node000003" class="edge">
<title>Node29&#45;&gt;Node3</title>
<g id="a_edge36_Node000029_Node000003"><a xlink:title=" ">
<path fill="none" stroke="#63b8ff" d="M579.64,-413.48C617.79,-404.19 675.25,-390.22 711.67,-381.35"/>
<polygon fill="#63b8ff" stroke="#63b8ff" points="712.91,-384.65 721.8,-378.89 711.26,-377.85 712.91,-384.65"/>
</a>
</g>
</g>
</g>
</svg>

<g id="navigator" transform="translate(0 0)" fill="#404254">
  <rect fill="#f2f5e9" fill-opacity="0.5" stroke="#606060" stroke-width=".5" x="0" y="0" width="60" height="60"/>
  <use id="zoomplus" xlink:href="#zoomPlus" x="17" y="9" onmousedown="handleZoom(evt,'in')"/>
  <use id="zoomminus" xlink:href="#zoomMin" x="42" y="9" onmousedown="handleZoom(evt,'out')"/>
  <use id="reset" xlink:href="#resetDef" x="30" y="36" onmousedown="handleReset()"/>
   <use id="arrowup" xlink:href="#arrowUp" x="0" y="0" onmousedown="handlePan(0,-1)"/>
  <use id="arrowright" xlink:href="#arrowRight" x="0" y="0" onmousedown="handlePan(1,0)"/>
  <use id="arrowdown" xlink:href="#arrowDown" x="0" y="0" onmousedown="handlePan(0,1)"/>
  <use id="arrowleft" xlink:href="#arrowLeft" x="0" y="0" onmousedown="handlePan(-1,0)"/>
</g>
<svg viewBox="0 0 15 15" width="100%" height="30px" preserveAspectRatio="xMaxYMin meet">
 <g id="arrow_out" transform="scale(0.3 0.3)">
  <a xlink:href="hud__renderer_8c_aab84e52f6b40a3b7521577dee959df58_cgraph_org.svg" target="_base">
   <rect id="button" ry="5" rx="5" y="6" x="6" height="38" width="38"
        fill="#f2f5e9" fill-opacity="0.5" stroke="#606060" stroke-width="1.0"/>
   <path id="arrow"
     d="M 11.500037,31.436501 C 11.940474,20.09759 22.043105,11.32322 32.158766,21.979434 L 37.068811,17.246167 C 37.068811,17.246167 37.088388,32 37.088388,32 L 22.160133,31.978069 C 22.160133,31.978069 26.997745,27.140456 26.997745,27.140456 C 18.528582,18.264221 13.291696,25.230495 11.500037,31.436501 z"
     style="fill:#404040;"/>
  </a>
 </g>
</svg>

<style type='text/css'>
<![CDATA[
[data-mouse-over-selected='false'] { opacity: 0.7; }
[data-mouse-over-selected='true']  { opacity: 1.0; }
]]>
</style>
<script type="application/ecmascript"><![CDATA[
document.addEventListener('DOMContentLoaded', (event) => {
  highlightEdges();
  highlightAdjacentNodes();
});
]]></script>
</svg>
