<?xml version="1.0" encoding="UTF-8" standalone="no"?>
<!DOCTYPE svg PUBLIC "-//W3C//DTD SVG 1.1//EN"
 "http://www.w3.org/Graphics/SVG/1.1/DTD/svg11.dtd">
<!-- Generated by graphviz version 2.43.0 (0)
 -->
<!-- Title: func_8004A5E4 Pages: 1 -->
<svg width="717pt" height="131pt"
 viewBox="0.00 0.00 717.00 131.00" xmlns="http://www.w3.org/2000/svg" xmlns:xlink="http://www.w3.org/1999/xlink">
<g id="graph0" class="graph" transform="scale(1 1) rotate(0) translate(4 127)">
<title>func_8004A5E4</title>
<!-- Node1 -->
<g id="Node000001" class="node">
<title>Node1</title>
<g id="a_Node000001"><a xlink:title=" ">
<polygon fill="#999999" stroke="#666666" points="92,-98 0,-98 0,-79 92,-79 92,-98"/>
<text text-anchor="middle" x="46" y="-86" font-family="Helvetica,sans-Serif" font-size="10.00">func_8004A5E4</text>
</a>
</g>
</g>
<!-- Node2 -->
<g id="Node000002" class="node">
<title>Node2</title>
<g id="a_Node000002"><a xlink:href="hud__renderer_8c.html#a682c500346f365bdcde73d83223463cd" target="_top" xlink:title=" ">
<polygon fill="white" stroke="#666666" points="220,-98 128,-98 128,-79 220,-79 220,-98"/>
<text text-anchor="middle" x="174" y="-86" font-family="Helvetica,sans-Serif" font-size="10.00">func_8004A414</text>
</a>
</g>
</g>
<!-- Node1&#45;&gt;Node2 -->
<g id="edge1_Node000001_Node000002" class="edge">
<title>Node1&#45;&gt;Node2</title>
<g id="a_edge1_Node000001_Node000002"><a xlink:title=" ">
<path fill="none" stroke="#63b8ff" d="M92.13,-88.5C100.37,-88.5 109.04,-88.5 117.53,-88.5"/>
<polygon fill="#63b8ff" stroke="#63b8ff" points="117.76,-92 127.76,-88.5 117.76,-85 117.76,-92"/>
</a>
</g>
</g>
<!-- Node3 -->
<g id="Node000003" class="node">
<title>Node3</title>
<g id="a_Node000003"><a xlink:href="hud__renderer_8c.html#ab687ef8b2c2a6efc6c4d84f3a15c0e8a" target="_top" xlink:title=" ">
<polygon fill="white" stroke="#666666" points="385.5,-120 293.5,-120 293.5,-101 385.5,-101 385.5,-120"/>
<text text-anchor="middle" x="339.5" y="-108" font-family="Helvetica,sans-Serif" font-size="10.00">func_800492D4</text>
</a>
</g>
</g>
<!-- Node2&#45;&gt;Node3 -->
<g id="edge2_Node000002_Node000003" class="edge">
<title>Node2&#45;&gt;Node3</title>
<g id="a_edge2_Node000002_Node000003"><a xlink:title=" ">
<path fill="none" stroke="#63b8ff" d="M220.11,-94.57C239.6,-97.19 262.59,-100.29 283.1,-103.05"/>
<polygon fill="#63b8ff" stroke="#63b8ff" points="282.88,-106.55 293.25,-104.41 283.81,-99.61 282.88,-106.55"/>
</a>
</g>
</g>
<!-- Node5 -->
<g id="Node000005" class="node">
<title>Node5</title>
<g id="a_Node000005"><a xlink:href="math__util__2_8c.html#a2eff0e02deb703653ee3230fbc02eb14" target="_top" xlink:title="set the matrix to a transformation matrix">
<polygon fill="white" stroke="#666666" points="423,-80 256,-80 256,-61 423,-61 423,-80"/>
<text text-anchor="middle" x="339.5" y="-68" font-family="Helvetica,sans-Serif" font-size="10.00">rsp_set_matrix_transformation</text>
</a>
</g>
</g>
<!-- Node2&#45;&gt;Node5 -->
<g id="edge4_Node000002_Node000005" class="edge">
<title>Node2&#45;&gt;Node5</title>
<g id="a_edge4_Node000002_Node000005"><a xlink:title=" ">
<path fill="none" stroke="#63b8ff" d="M220.11,-83.53C228.21,-82.64 236.92,-81.68 245.81,-80.7"/>
<polygon fill="#63b8ff" stroke="#63b8ff" points="246.33,-84.17 255.89,-79.59 245.57,-77.21 246.33,-84.17"/>
</a>
</g>
</g>
<!-- Node4 -->
<g id="Node000004" class="node">
<title>Node4</title>
<g id="a_Node000004"><a xlink:href="hud__renderer_8c.html#aee7de73afb3145aa3f4138937f6c4feb" target="_top" xlink:title=" ">
<polygon fill="white" stroke="#666666" points="593,-123 501,-123 501,-104 593,-104 593,-123"/>
<text text-anchor="middle" x="547" y="-111" font-family="Helvetica,sans-Serif" font-size="10.00">func_800444B0</text>
</a>
</g>
</g>
<!-- Node3&#45;&gt;Node4 -->
<g id="edge3_Node000003_Node000004" class="edge">
<title>Node3&#45;&gt;Node4</title>
<g id="a_edge3_Node000003_Node000004"><a xlink:title=" ">
<path fill="none" stroke="#63b8ff" d="M385.6,-111.16C416.41,-111.61 457.44,-112.21 490.3,-112.69"/>
<polygon fill="#63b8ff" stroke="#63b8ff" points="490.6,-116.19 500.65,-112.84 490.7,-109.19 490.6,-116.19"/>
</a>
</g>
</g>
<!-- Node6 -->
<g id="Node000006" class="node">
<title>Node6</title>
<g id="a_Node000006"><a xlink:href="render__player_8c.html#af0bbe78d8dc64400663d3702812f9ad8" target="_top" xlink:title=" ">
<polygon fill="white" stroke="#666666" points="610.5,-85.5 483.5,-85.5 483.5,-55.5 610.5,-55.5 610.5,-85.5"/>
<text text-anchor="start" x="491.5" y="-73.5" font-family="Helvetica,sans-Serif" font-size="10.00">convert_to_fixed_point</text>
<text text-anchor="middle" x="547" y="-62.5" font-family="Helvetica,sans-Serif" font-size="10.00">_matrix</text>
</a>
</g>
</g>
<!-- Node5&#45;&gt;Node6 -->
<g id="edge5_Node000005_Node000006" class="edge">
<title>Node5&#45;&gt;Node6</title>
<g id="a_edge5_Node000005_Node000006"><a xlink:title=" ">
<path fill="none" stroke="#63b8ff" d="M423.2,-70.5C439.66,-70.5 456.85,-70.5 472.96,-70.5"/>
<polygon fill="#63b8ff" stroke="#63b8ff" points="473.38,-74 483.38,-70.5 473.38,-67 473.38,-74"/>
</a>
</g>
</g>
<!-- Node7 -->
<g id="Node000007" class="node">
<title>Node7</title>
<g id="a_Node000007"><a xlink:href="math__util__2_8c.html#a88742c6110738fc1c35a57f50920a81f" target="_top" xlink:title=" ">
<polygon fill="white" stroke="#666666" points="635,-37 459,-37 459,-18 635,-18 635,-37"/>
<text text-anchor="middle" x="547" y="-25" font-family="Helvetica,sans-Serif" font-size="10.00">mtxf_set_matrix_transformation</text>
</a>
</g>
</g>
<!-- Node5&#45;&gt;Node7 -->
<g id="edge6_Node000005_Node000007" class="edge">
<title>Node5&#45;&gt;Node7</title>
<g id="a_edge6_Node000005_Node000007"><a xlink:title=" ">
<path fill="none" stroke="#63b8ff" d="M386.11,-60.96C416.97,-54.5 457.92,-45.93 490.65,-39.08"/>
<polygon fill="#63b8ff" stroke="#63b8ff" points="491.45,-42.49 500.52,-37.02 490.02,-35.64 491.45,-42.49"/>
</a>
</g>
</g>
<!-- Node8 -->
<g id="Node000008" class="node">
<title>Node8</title>
<g id="a_Node000008"><a xlink:href="math__util_8c.html#ae69cbf5c8d4b3b0dba2d7b4d4673689f" target="_top" xlink:title=" ">
<polygon fill="white" stroke="#666666" points="709,-56 671,-56 671,-37 709,-37 709,-56"/>
<text text-anchor="middle" x="690" y="-44" font-family="Helvetica,sans-Serif" font-size="10.00">coss</text>
</a>
</g>
</g>
<!-- Node7&#45;&gt;Node8 -->
<g id="edge7_Node000007_Node000008" class="edge">
<title>Node7&#45;&gt;Node8</title>
<g id="a_edge7_Node000007_Node000008"><a xlink:title=" ">
<path fill="none" stroke="#63b8ff" d="M618.91,-37.06C633.87,-39.07 648.8,-41.08 661.02,-42.73"/>
<polygon fill="#63b8ff" stroke="#63b8ff" points="660.61,-46.21 670.98,-44.07 661.54,-39.27 660.61,-46.21"/>
</a>
</g>
</g>
<!-- Node9 -->
<g id="Node000009" class="node">
<title>Node9</title>
<g id="a_Node000009"><a xlink:href="math__util_8c.html#a19ed3bd78fd2d3e2bd0a29f6caf48545" target="_top" xlink:title=" ">
<polygon fill="white" stroke="#666666" points="708,-19 672,-19 672,0 708,0 708,-19"/>
<text text-anchor="middle" x="690" y="-7" font-family="Helvetica,sans-Serif" font-size="10.00">sins</text>
</a>
</g>
</g>
<!-- Node7&#45;&gt;Node9 -->
<g id="edge8_Node000007_Node000009" class="edge">
<title>Node7&#45;&gt;Node9</title>
<g id="a_edge8_Node000007_Node000009"><a xlink:title=" ">
<path fill="none" stroke="#63b8ff" d="M622.63,-17.97C636.65,-16.18 650.44,-14.42 661.8,-12.97"/>
<polygon fill="#63b8ff" stroke="#63b8ff" points="662.38,-16.43 671.86,-11.69 661.5,-9.48 662.38,-16.43"/>
</a>
</g>
</g>
</g>
</svg>
