<?xml version="1.0" encoding="UTF-8" standalone="no"?>
<!DOCTYPE svg PUBLIC "-//W3C//DTD SVG 1.1//EN"
 "http://www.w3.org/Graphics/SVG/1.1/DTD/svg11.dtd">
<!-- Generated by graphviz version 2.43.0 (0)
 -->
<!-- Title: func_80057858 Pages: 1 -->
<!--zoomable 79 -->
<svg id="main" version="1.1" xmlns="http://www.w3.org/2000/svg" xmlns:xlink="http://www.w3.org/1999/xlink" xml:space="preserve" onload="init(evt)">
<style type="text/css"><![CDATA[
.edge:hover path { stroke: red; }
.edge:hover polygon { stroke: red; fill: red; }
]]></style>
<script type="text/javascript"><![CDATA[
var edges = document.getElementsByTagName('g');
if (edges && edges.length) {
  for (var i=0;i<edges.length;i++) {
    if (edges[i].id.substr(0,4)=='edge') {
      edges[i].setAttribute('class','edge');
    }
  }
}
]]></script>
        <defs>
                <circle id="rim" cx="0" cy="0" r="7"/>
                <circle id="rim2" cx="0" cy="0" r="3.5"/>
                <g id="zoomPlus">
                        <use xlink:href="#rim" fill="#404040">
                                <set attributeName="fill" to="#808080" begin="zoomplus.mouseover" end="zoomplus.mouseout"/>
                        </use>
                        <path d="M-4,0h8M0,-4v8" fill="none" stroke="white" stroke-width="1.5" pointer-events="none"/>
                </g>
                <g id="zoomMin">
                        <use xlink:href="#rim" fill="#404040">
                                <set attributeName="fill" to="#808080" begin="zoomminus.mouseover" end="zoomminus.mouseout"/>
                        </use>
                        <path d="M-4,0h8" fill="none" stroke="white" stroke-width="1.5" pointer-events="none"/>
                </g>
                <g id="dirArrow">
                        <path fill="none" stroke="white" stroke-width="1.5" d="M0,-3.0v7 M-2.5,-0.5L0,-3.0L2.5,-0.5"/>
                </g>
               <g id="resetDef">
                       <use xlink:href="#rim2" fill="#404040">
                               <set attributeName="fill" to="#808080" begin="reset.mouseover" end="reset.mouseout"/>
                       </use>
               </g>
        </defs>

<script type="text/javascript">
var viewWidth = 519;
var viewHeight = 79;
var sectionId = 'dynsection-438';
</script>
<script xlink:href="svgpan.js"/>
<svg id="graph" class="graph">
<g id="viewport">
<title>func_80057858</title>
<polygon fill="white" stroke="transparent" points="-4,4 -4,-75.42 515,-75.42 515,4 -4,4"/>
<!-- Node1 -->
<g id="node1" class="node">
<title>Node1</title>
<g id="a_node1"><a xlink:title=" ">
<polygon fill="#bfbfbf" stroke="black" points="0,-13.92 0,-32.92 91,-32.92 91,-13.92 0,-13.92"/>
<text text-anchor="middle" x="45.5" y="-20.92" font-family="Helvetica,sans-Serif" font-size="10.00">func_80057858</text>
</a>
</g>
</g>
<!-- Node2 -->
<g id="node2" class="node">
<title>Node2</title>
<g id="a_node2"><a xlink:href="hud__renderer_8c.html#ac8564352bfa6f897e06b790f39169adf" target="_top" xlink:title=" ">
<polygon fill="white" stroke="black" points="127,-13.92 127,-32.92 244,-32.92 244,-13.92 127,-13.92"/>
<text text-anchor="middle" x="185.5" y="-20.92" font-family="Helvetica,sans-Serif" font-size="10.00">debug_print_number</text>
</a>
</g>
</g>
<!-- Node1&#45;&gt;Node2 -->
<g id="edge1" class="edge">
<title>Node1&#45;&gt;Node2</title>
<path fill="none" stroke="midnightblue" d="M91.3,-23.42C99.45,-23.42 108.11,-23.42 116.75,-23.42"/>
<polygon fill="midnightblue" stroke="midnightblue" points="116.84,-26.93 126.84,-23.42 116.84,-19.93 116.84,-26.93"/>
</g>
<!-- Node4 -->
<g id="node4" class="node">
<title>Node4</title>
<g id="a_node4"><a xlink:href="hud__renderer_8c.html#a65760e3e635799078e6ef7b04a2685e0" target="_top" xlink:title=" ">
<polygon fill="white" stroke="black" points="285,-13.92 285,-32.92 376,-32.92 376,-13.92 285,-13.92"/>
<text text-anchor="middle" x="330.5" y="-20.92" font-family="Helvetica,sans-Serif" font-size="10.00">func_800573E4</text>
</a>
</g>
</g>
<!-- Node1&#45;&gt;Node4 -->
<g id="edge8" class="edge">
<title>Node1&#45;&gt;Node4</title>
<path fill="none" stroke="midnightblue" d="M79.09,-13.92C93.62,-10.15 111.03,-6.28 127,-4.42 178.65,1.59 192.31,1.25 244,-4.42 257.49,-5.91 271.97,-8.66 285.1,-11.63"/>
<polygon fill="midnightblue" stroke="midnightblue" points="284.31,-15.04 294.85,-13.92 285.91,-8.22 284.31,-15.04"/>
</g>
<!-- Node6 -->
<g id="node6" class="node">
<title>Node6</title>
<g id="a_node6"><a xlink:href="hud__renderer_8c.html#a62d81547caa98603255ae2ed6eb8ef2c" target="_top" xlink:title=" ">
<polygon fill="white" stroke="black" points="132,-51.92 132,-70.92 239,-70.92 239,-51.92 132,-51.92"/>
<text text-anchor="middle" x="185.5" y="-58.92" font-family="Helvetica,sans-Serif" font-size="10.00">debug_print_string</text>
</a>
</g>
</g>
<!-- Node1&#45;&gt;Node6 -->
<g id="edge5" class="edge">
<title>Node1&#45;&gt;Node6</title>
<path fill="none" stroke="midnightblue" d="M81.32,-33.01C99.14,-37.92 121.02,-43.94 140.04,-49.18"/>
<polygon fill="midnightblue" stroke="midnightblue" points="139.12,-52.56 149.69,-51.84 140.98,-45.81 139.12,-52.56"/>
</g>
<!-- Node3 -->
<g id="node3" class="node">
<title>Node3</title>
<g id="a_node3"><a xlink:href="hud__renderer_8c.html#ac65015c8c4cb9f586b55bba6caec40e1" target="_top" xlink:title=" ">
<polygon fill="white" stroke="black" points="280,-51.92 280,-70.92 381,-70.92 381,-51.92 280,-51.92"/>
<text text-anchor="middle" x="330.5" y="-58.92" font-family="Helvetica,sans-Serif" font-size="10.00">debug_wrap_text</text>
</a>
</g>
</g>
<!-- Node2&#45;&gt;Node3 -->
<g id="edge2" class="edge">
<title>Node2&#45;&gt;Node3</title>
<path fill="none" stroke="midnightblue" d="M222.58,-33.01C241.13,-37.94 263.93,-44 283.7,-49.25"/>
<polygon fill="midnightblue" stroke="midnightblue" points="282.86,-52.65 293.43,-51.84 284.66,-45.89 282.86,-52.65"/>
</g>
<!-- Node2&#45;&gt;Node4 -->
<g id="edge3" class="edge">
<title>Node2&#45;&gt;Node4</title>
<path fill="none" stroke="midnightblue" d="M244.25,-23.42C254.26,-23.42 264.65,-23.42 274.58,-23.42"/>
<polygon fill="midnightblue" stroke="midnightblue" points="274.73,-26.93 284.73,-23.42 274.73,-19.93 274.73,-26.93"/>
</g>
<!-- Node5 -->
<g id="node5" class="node">
<title>Node5</title>
<g id="a_node5"><a xlink:href="hud__renderer_8c.html#acaa477cfbccd1a5fae43a67a655accdb" target="_top" xlink:title=" ">
<polygon fill="white" stroke="black" points="417,-13.92 417,-32.92 511,-32.92 511,-13.92 417,-13.92"/>
<text text-anchor="middle" x="464" y="-20.92" font-family="Helvetica,sans-Serif" font-size="10.00">func_8004B7DC</text>
</a>
</g>
</g>
<!-- Node4&#45;&gt;Node5 -->
<g id="edge4" class="edge">
<title>Node4&#45;&gt;Node5</title>
<path fill="none" stroke="midnightblue" d="M376.02,-23.42C385.86,-23.42 396.4,-23.42 406.64,-23.42"/>
<polygon fill="midnightblue" stroke="midnightblue" points="406.73,-26.93 416.73,-23.42 406.73,-19.93 406.73,-26.93"/>
</g>
<!-- Node6&#45;&gt;Node3 -->
<g id="edge6" class="edge">
<title>Node6&#45;&gt;Node3</title>
<path fill="none" stroke="midnightblue" d="M239.34,-61.42C249.14,-61.42 259.45,-61.42 269.45,-61.42"/>
<polygon fill="midnightblue" stroke="midnightblue" points="269.72,-64.93 279.72,-61.42 269.72,-57.93 269.72,-64.93"/>
</g>
<!-- Node6&#45;&gt;Node4 -->
<g id="edge7" class="edge">
<title>Node6&#45;&gt;Node4</title>
<path fill="none" stroke="midnightblue" d="M222.58,-51.84C241.13,-46.91 263.93,-40.85 283.7,-35.6"/>
<polygon fill="midnightblue" stroke="midnightblue" points="284.66,-38.96 293.43,-33.01 282.86,-32.2 284.66,-38.96"/>
</g>
</g>
</svg>
        <g id="navigator" transform="translate(0 0)" fill="#404254">
                <rect fill="#f2f5e9" fill-opacity="0.5" stroke="#606060" stroke-width=".5" x="0" y="0" width="60" height="60"/>
                <use id="zoomplus" xlink:href="#zoomPlus" x="17" y="9" onmousedown="handleZoom(evt,'in')"/>
                <use id="zoomminus" xlink:href="#zoomMin" x="42" y="9" onmousedown="handleZoom(evt,'out')"/>
                <use id="reset" xlink:href="#resetDef" x="30" y="36" onmousedown="handleReset()"/>
                <g id="arrowUp" xlink:href="#dirArrow" transform="translate(30 24)" onmousedown="handlePan(0,-1)">
                  <use xlink:href="#rim" fill="#404040">
                        <set attributeName="fill" to="#808080" begin="arrowUp.mouseover" end="arrowUp.mouseout"/>
                  </use>
                  <path fill="none" stroke="white" stroke-width="1.5" d="M0,-3.0v7 M-2.5,-0.5L0,-3.0L2.5,-0.5"/>
                </g>
                <g id="arrowRight" xlink:href="#dirArrow" transform="rotate(90) translate(36 -43)" onmousedown="handlePan(1,0)">
                  <use xlink:href="#rim" fill="#404040">
                        <set attributeName="fill" to="#808080" begin="arrowRight.mouseover" end="arrowRight.mouseout"/>
                  </use>
                  <path fill="none" stroke="white" stroke-width="1.5" d="M0,-3.0v7 M-2.5,-0.5L0,-3.0L2.5,-0.5"/>
                </g>
                <g id="arrowDown" xlink:href="#dirArrow" transform="rotate(180) translate(-30 -48)" onmousedown="handlePan(0,1)">
                  <use xlink:href="#rim" fill="#404040">
                        <set attributeName="fill" to="#808080" begin="arrowDown.mouseover" end="arrowDown.mouseout"/>
                  </use>
                  <path fill="none" stroke="white" stroke-width="1.5" d="M0,-3.0v7 M-2.5,-0.5L0,-3.0L2.5,-0.5"/>
                </g>
                <g id="arrowLeft" xlink:href="#dirArrow" transform="rotate(270) translate(-36 17)" onmousedown="handlePan(-1,0)">
                  <use xlink:href="#rim" fill="#404040">
                        <set attributeName="fill" to="#808080" begin="arrowLeft.mouseover" end="arrowLeft.mouseout"/>
                  </use>
                  <path fill="none" stroke="white" stroke-width="1.5" d="M0,-3.0v7 M-2.5,-0.5L0,-3.0L2.5,-0.5"/>
                </g>
        </g>
        <svg viewBox="0 0 15 15" width="100%" height="30px" preserveAspectRatio="xMaxYMin meet">
         <g id="arrow_out" transform="scale(0.3 0.3)">
          <a xlink:href="hud__renderer_8h_ad823ab7e691c59b8ebd6079ba3c6efbc_cgraph_org.svg" target="_base">
           <rect id="button" ry="5" rx="5" y="6" x="6" height="38" width="38"
                fill="#f2f5e9" fill-opacity="0.5" stroke="#606060" stroke-width="1.0"/>
           <path id="arrow"
             d="M 11.500037,31.436501 C 11.940474,20.09759 22.043105,11.32322 32.158766,21.979434 L 37.068811,17.246167 C 37.068811,17.246167 37.088388,32 37.088388,32 L 22.160133,31.978069 C 22.160133,31.978069 26.997745,27.140456 26.997745,27.140456 C 18.528582,18.264221 13.291696,25.230495 11.500037,31.436501 z"
             style="fill:#404040;"/>
          </a>
         </g>
        </svg>
</svg>
