<?xml version="1.0" encoding="UTF-8" standalone="no"?>
<!DOCTYPE svg PUBLIC "-//W3C//DTD SVG 1.1//EN"
 "http://www.w3.org/Graphics/SVG/1.1/DTD/svg11.dtd">
<!-- Generated by graphviz version 2.43.0 (0)
 -->
<!-- Title: func_80054F04 Pages: 1 -->
<svg width="810pt" height="312pt"
 viewBox="0.00 0.00 810.00 312.00" xmlns="http://www.w3.org/2000/svg" xmlns:xlink="http://www.w3.org/1999/xlink">
<g id="graph0" class="graph" transform="scale(1 1) rotate(0) translate(4 308)">
<title>func_80054F04</title>
<!-- Node1 -->
<g id="Node000001" class="node">
<title>Node1</title>
<g id="a_Node000001"><a xlink:title=" ">
<polygon fill="#999999" stroke="#666666" points="91,-200 0,-200 0,-181 91,-181 91,-200"/>
<text text-anchor="middle" x="45.5" y="-188" font-family="Helvetica,sans-Serif" font-size="10.00">func_80054F04</text>
</a>
</g>
</g>
<!-- Node2 -->
<g id="Node000002" class="node">
<title>Node2</title>
<g id="a_Node000002"><a xlink:href="math__util__2_8c.html#a99d173c040cb4a9d0184df2605d71e32" target="_top" xlink:title=" ">
<polygon fill="white" stroke="#666666" points="598,-304 506,-304 506,-285 598,-285 598,-304"/>
<text text-anchor="middle" x="552" y="-292" font-family="Helvetica,sans-Serif" font-size="10.00">func_800418AC</text>
</a>
</g>
</g>
<!-- Node1&#45;&gt;Node2 -->
<g id="edge1_Node000001_Node000002" class="edge">
<title>Node1&#45;&gt;Node2</title>
<g id="a_edge1_Node000001_Node000002"><a xlink:title=" ">
<path fill="none" stroke="#63b8ff" d="M57.03,-200.2C71.59,-213.01 99.22,-235.27 127,-246.5 251.6,-296.89 412.56,-299.96 495.75,-297.48"/>
<polygon fill="#63b8ff" stroke="#63b8ff" points="495.87,-300.98 505.75,-297.14 495.64,-293.98 495.87,-300.98"/>
</a>
</g>
</g>
<!-- Node5 -->
<g id="Node000005" class="node">
<title>Node5</title>
<g id="a_Node000005"><a xlink:href="hud__renderer_8c.html#ad1c5daceb565b2768d02b2308bbf18d2" target="_top" xlink:title=" ">
<polygon fill="white" stroke="#666666" points="247.5,-237 155.5,-237 155.5,-218 247.5,-218 247.5,-237"/>
<text text-anchor="middle" x="201.5" y="-225" font-family="Helvetica,sans-Serif" font-size="10.00">func_80043D50</text>
</a>
</g>
</g>
<!-- Node1&#45;&gt;Node5 -->
<g id="edge4_Node000001_Node000005" class="edge">
<title>Node1&#45;&gt;Node5</title>
<g id="a_edge4_Node000001_Node000005"><a xlink:title=" ">
<path fill="none" stroke="#63b8ff" d="M86.16,-200.03C105.84,-204.76 129.82,-210.52 150.72,-215.54"/>
<polygon fill="#63b8ff" stroke="#63b8ff" points="150.17,-219.01 160.71,-217.94 151.8,-212.2 150.17,-219.01"/>
</a>
</g>
</g>
<!-- Node6 -->
<g id="Node000006" class="node">
<title>Node6</title>
<g id="a_Node000006"><a xlink:href="code__80086E70_8c.html#a364496b44c479b8d7937d98d2283c89e" target="_top" xlink:title=" ">
<polygon fill="white" stroke="#666666" points="247.5,-200 155.5,-200 155.5,-181 247.5,-181 247.5,-200"/>
<text text-anchor="middle" x="201.5" y="-188" font-family="Helvetica,sans-Serif" font-size="10.00">func_8008A364</text>
</a>
</g>
</g>
<!-- Node1&#45;&gt;Node6 -->
<g id="edge5_Node000001_Node000006" class="edge">
<title>Node1&#45;&gt;Node6</title>
<g id="a_edge5_Node000001_Node000006"><a xlink:title=" ">
<path fill="none" stroke="#63b8ff" d="M91.04,-190.5C107.9,-190.5 127.3,-190.5 145.04,-190.5"/>
<polygon fill="#63b8ff" stroke="#63b8ff" points="145.26,-194 155.26,-190.5 145.26,-187 145.26,-194"/>
</a>
</g>
</g>
<!-- Node12 -->
<g id="Node000012" class="node">
<title>Node12</title>
<g id="a_Node000012"><a xlink:href="code__80071F00_8c.html#a5d62494ea345d5a576d4440772111136" target="_top" xlink:title=" ">
<polygon fill="white" stroke="#666666" points="263.5,-162.5 139.5,-162.5 139.5,-132.5 263.5,-132.5 263.5,-162.5"/>
<text text-anchor="start" x="147.5" y="-150.5" font-family="Helvetica,sans-Serif" font-size="10.00">is_obj_index_flag_unk</text>
<text text-anchor="middle" x="201.5" y="-139.5" font-family="Helvetica,sans-Serif" font-size="10.00">_054_active</text>
</a>
</g>
</g>
<!-- Node1&#45;&gt;Node12 -->
<g id="edge12_Node000001_Node000012" class="edge">
<title>Node1&#45;&gt;Node12</title>
<g id="a_edge12_Node000001_Node000012"><a xlink:title=" ">
<path fill="none" stroke="#63b8ff" d="M80.68,-180.96C97.28,-176.32 117.77,-170.6 137.09,-165.21"/>
<polygon fill="#63b8ff" stroke="#63b8ff" points="138.07,-168.57 146.76,-162.51 136.18,-161.82 138.07,-168.57"/>
</a>
</g>
</g>
<!-- Node13 -->
<g id="Node000013" class="node">
<title>Node13</title>
<g id="a_Node000013"><a xlink:href="math__util__2_8c.html#aca064a66dc29c36e1db7b79a6b679e25" target="_top" xlink:title=" ">
<polygon fill="white" stroke="#666666" points="276,-80 127,-80 127,-61 276,-61 276,-80"/>
<text text-anchor="middle" x="201.5" y="-68" font-family="Helvetica,sans-Serif" font-size="10.00">rsp_set_matrix_gObjectList</text>
</a>
</g>
</g>
<!-- Node1&#45;&gt;Node13 -->
<g id="edge13_Node000001_Node000013" class="edge">
<title>Node1&#45;&gt;Node13</title>
<g id="a_edge13_Node000001_Node000013"><a xlink:title=" ">
<path fill="none" stroke="#63b8ff" d="M57.5,-180.93C72.82,-167.7 101.56,-143.22 127,-123.5 143.78,-110.49 163.3,-96.46 178.01,-86.11"/>
<polygon fill="#63b8ff" stroke="#63b8ff" points="180.29,-88.79 186.47,-80.18 176.27,-83.05 180.29,-88.79"/>
</a>
</g>
</g>
<!-- Node3 -->
<g id="Node000003" class="node">
<title>Node3</title>
<g id="a_Node000003"><a xlink:href="math__util_8c.html#aaa39a297477f56051975259f4bddd829" target="_top" xlink:title=" ">
<polygon fill="white" stroke="#666666" points="684,-285 634,-285 634,-266 684,-266 684,-285"/>
<text text-anchor="middle" x="659" y="-273" font-family="Helvetica,sans-Serif" font-size="10.00">atan2s</text>
</a>
</g>
</g>
<!-- Node2&#45;&gt;Node3 -->
<g id="edge2_Node000002_Node000003" class="edge">
<title>Node2&#45;&gt;Node3</title>
<g id="a_edge2_Node000002_Node000003"><a xlink:title=" ">
<path fill="none" stroke="#63b8ff" d="M598.14,-286.33C606.74,-284.78 615.6,-283.17 623.79,-281.69"/>
<polygon fill="#63b8ff" stroke="#63b8ff" points="624.51,-285.12 633.73,-279.89 623.27,-278.23 624.51,-285.12"/>
</a>
</g>
</g>
<!-- Node4 -->
<g id="Node000004" class="node">
<title>Node4</title>
<g id="a_Node000004"><a xlink:href="math__util_8c.html#a0273b0ea0783a06996c28669a7438ed9" target="_top" xlink:title=" ">
<polygon fill="white" stroke="#666666" points="802,-285 720,-285 720,-266 802,-266 802,-285"/>
<text text-anchor="middle" x="761" y="-273" font-family="Helvetica,sans-Serif" font-size="10.00">atan2_lookup</text>
</a>
</g>
</g>
<!-- Node3&#45;&gt;Node4 -->
<g id="edge3_Node000003_Node000004" class="edge">
<title>Node3&#45;&gt;Node4</title>
<g id="a_edge3_Node000003_Node000004"><a xlink:title=" ">
<path fill="none" stroke="#63b8ff" d="M684.21,-275.5C691.85,-275.5 700.6,-275.5 709.38,-275.5"/>
<polygon fill="#63b8ff" stroke="#63b8ff" points="709.63,-279 719.63,-275.5 709.63,-272 709.63,-279"/>
</a>
</g>
</g>
<!-- Node7 -->
<g id="Node000007" class="node">
<title>Node7</title>
<g id="a_Node000007"><a xlink:href="code__80086E70_8c.html#a8b9297822d5c76ed2210ab884878bc1b" target="_top" xlink:title=" ">
<polygon fill="white" stroke="#666666" points="437,-267 345,-267 345,-248 437,-248 437,-267"/>
<text text-anchor="middle" x="391" y="-255" font-family="Helvetica,sans-Serif" font-size="10.00">func_8008A140</text>
</a>
</g>
</g>
<!-- Node6&#45;&gt;Node7 -->
<g id="edge6_Node000006_Node000007" class="edge">
<title>Node6&#45;&gt;Node7</title>
<g id="a_edge6_Node000006_Node000007"><a xlink:title=" ">
<path fill="none" stroke="#63b8ff" d="M247.52,-198.91C257.2,-201.59 267.17,-205.06 276,-209.5 294.36,-218.72 293.58,-229.41 312,-238.5 319.2,-242.05 327.1,-244.97 335.03,-247.35"/>
<polygon fill="#63b8ff" stroke="#63b8ff" points="334.11,-250.73 344.68,-250.01 335.96,-243.98 334.11,-250.73"/>
</a>
</g>
</g>
<!-- Node9 -->
<g id="Node000009" class="node">
<title>Node9</title>
<g id="a_Node000009"><a xlink:href="code__80086E70_8c.html#abee4ac0bf830479754bf7a3054719714" target="_top" xlink:title="Returns the distance between the object and the camera.">
<polygon fill="white" stroke="#666666" points="457.5,-229.5 324.5,-229.5 324.5,-199.5 457.5,-199.5 457.5,-229.5"/>
<text text-anchor="start" x="332.5" y="-217.5" font-family="Helvetica,sans-Serif" font-size="10.00">get_horizontal_distance</text>
<text text-anchor="middle" x="391" y="-206.5" font-family="Helvetica,sans-Serif" font-size="10.00">_to_camera</text>
</a>
</g>
</g>
<!-- Node6&#45;&gt;Node9 -->
<g id="edge9_Node000006_Node000009" class="edge">
<title>Node6&#45;&gt;Node9</title>
<g id="a_edge9_Node000006_Node000009"><a xlink:title=" ">
<path fill="none" stroke="#63b8ff" d="M247.89,-196.31C267.81,-198.86 291.75,-201.92 314.25,-204.8"/>
<polygon fill="#63b8ff" stroke="#63b8ff" points="314.11,-208.31 324.47,-206.11 315,-201.37 314.11,-208.31"/>
</a>
</g>
</g>
<!-- Node10 -->
<g id="Node000010" class="node">
<title>Node10</title>
<g id="a_Node000010"><a xlink:href="code__80071F00_8c.html#a9d0d6fe8e02dc86bf4f9f8c8214ee326" target="_top" xlink:title=" ">
<polygon fill="white" stroke="#666666" points="447.5,-181.5 334.5,-181.5 334.5,-151.5 447.5,-151.5 447.5,-181.5"/>
<text text-anchor="start" x="342.5" y="-169.5" font-family="Helvetica,sans-Serif" font-size="10.00">set_object_flag_unk</text>
<text text-anchor="middle" x="391" y="-158.5" font-family="Helvetica,sans-Serif" font-size="10.00">_054_false</text>
</a>
</g>
</g>
<!-- Node6&#45;&gt;Node10 -->
<g id="edge10_Node000006_Node000010" class="edge">
<title>Node6&#45;&gt;Node10</title>
<g id="a_edge10_Node000006_Node000010"><a xlink:title=" ">
<path fill="none" stroke="#63b8ff" d="M247.89,-184.69C270.75,-181.76 298.9,-178.16 324.09,-174.94"/>
<polygon fill="#63b8ff" stroke="#63b8ff" points="324.84,-178.37 334.31,-173.63 323.95,-171.43 324.84,-178.37"/>
</a>
</g>
</g>
<!-- Node11 -->
<g id="Node000011" class="node">
<title>Node11</title>
<g id="a_Node000011"><a xlink:href="code__80071F00_8c.html#a946b33c1ed166b19b04e4528c3641b9a" target="_top" xlink:title=" ">
<polygon fill="white" stroke="#666666" points="447.5,-133.5 334.5,-133.5 334.5,-103.5 447.5,-103.5 447.5,-133.5"/>
<text text-anchor="start" x="342.5" y="-121.5" font-family="Helvetica,sans-Serif" font-size="10.00">set_object_flag_unk</text>
<text text-anchor="middle" x="391" y="-110.5" font-family="Helvetica,sans-Serif" font-size="10.00">_054_true</text>
</a>
</g>
</g>
<!-- Node6&#45;&gt;Node11 -->
<g id="edge11_Node000006_Node000011" class="edge">
<title>Node6&#45;&gt;Node11</title>
<g id="a_edge11_Node000006_Node000011"><a xlink:title=" ">
<path fill="none" stroke="#63b8ff" d="M247.52,-182.09C257.2,-179.41 267.17,-175.94 276,-171.5 294.36,-162.28 293.86,-152.14 312,-142.5 316.16,-140.29 320.56,-138.25 325.06,-136.37"/>
<polygon fill="#63b8ff" stroke="#63b8ff" points="326.34,-139.63 334.39,-132.74 323.81,-133.1 326.34,-139.63"/>
</a>
</g>
</g>
<!-- Node8 -->
<g id="Node000008" class="node">
<title>Node8</title>
<g id="a_Node000008"><a xlink:href="math__util__2_8c.html#a10e63f3a453c537f806fbb5371bde67c" target="_top" xlink:title=" ">
<polygon fill="white" stroke="#666666" points="597.5,-267 506.5,-267 506.5,-248 597.5,-248 597.5,-267"/>
<text text-anchor="middle" x="552" y="-255" font-family="Helvetica,sans-Serif" font-size="10.00">func_80041770</text>
</a>
</g>
</g>
<!-- Node7&#45;&gt;Node8 -->
<g id="edge7_Node000007_Node000008" class="edge">
<title>Node7&#45;&gt;Node8</title>
<g id="a_edge7_Node000007_Node000008"><a xlink:title=" ">
<path fill="none" stroke="#63b8ff" d="M437.14,-257.5C455.5,-257.5 476.9,-257.5 496.16,-257.5"/>
<polygon fill="#63b8ff" stroke="#63b8ff" points="496.3,-261 506.3,-257.5 496.3,-254 496.3,-261"/>
</a>
</g>
</g>
<!-- Node8&#45;&gt;Node3 -->
<g id="edge8_Node000008_Node000003" class="edge">
<title>Node8&#45;&gt;Node3</title>
<g id="a_edge8_Node000008_Node000003"><a xlink:title=" ">
<path fill="none" stroke="#63b8ff" d="M597.53,-265.13C606.25,-266.63 615.28,-268.18 623.61,-269.6"/>
<polygon fill="#63b8ff" stroke="#63b8ff" points="623.27,-273.1 633.72,-271.34 624.45,-266.2 623.27,-273.1"/>
</a>
</g>
</g>
<!-- Node14 -->
<g id="Node000014" class="node">
<title>Node14</title>
<g id="a_Node000014"><a xlink:href="render__player_8c.html#af0bbe78d8dc64400663d3702812f9ad8" target="_top" xlink:title=" ">
<polygon fill="white" stroke="#666666" points="454.5,-85.5 327.5,-85.5 327.5,-55.5 454.5,-55.5 454.5,-85.5"/>
<text text-anchor="start" x="335.5" y="-73.5" font-family="Helvetica,sans-Serif" font-size="10.00">convert_to_fixed_point</text>
<text text-anchor="middle" x="391" y="-62.5" font-family="Helvetica,sans-Serif" font-size="10.00">_matrix</text>
</a>
</g>
</g>
<!-- Node13&#45;&gt;Node14 -->
<g id="edge14_Node000013_Node000014" class="edge">
<title>Node13&#45;&gt;Node14</title>
<g id="a_edge14_Node000013_Node000014"><a xlink:title=" ">
<path fill="none" stroke="#63b8ff" d="M276.07,-70.5C289.56,-70.5 303.63,-70.5 317.1,-70.5"/>
<polygon fill="#63b8ff" stroke="#63b8ff" points="317.26,-74 327.26,-70.5 317.26,-67 317.26,-74"/>
</a>
</g>
</g>
<!-- Node15 -->
<g id="Node000015" class="node">
<title>Node15</title>
<g id="a_Node000015"><a xlink:href="math__util__2_8c.html#ab532579cd51233e25a8f3f9ea21fb25c" target="_top" xlink:title="Tried to put the definitions in the declares. However, sp3C wants to be at the top....">
<polygon fill="white" stroke="#666666" points="470,-37 312,-37 312,-18 470,-18 470,-37"/>
<text text-anchor="middle" x="391" y="-25" font-family="Helvetica,sans-Serif" font-size="10.00">mtxf_set_matrix_gObjectList</text>
</a>
</g>
</g>
<!-- Node13&#45;&gt;Node15 -->
<g id="edge15_Node000013_Node000015" class="edge">
<title>Node13&#45;&gt;Node15</title>
<g id="a_edge15_Node000013_Node000015"><a xlink:title=" ">
<path fill="none" stroke="#63b8ff" d="M244.11,-60.96C272.03,-54.55 308.99,-46.08 338.72,-39.26"/>
<polygon fill="#63b8ff" stroke="#63b8ff" points="339.54,-42.66 348.5,-37.02 337.97,-35.84 339.54,-42.66"/>
</a>
</g>
</g>
<!-- Node16 -->
<g id="Node000016" class="node">
<title>Node16</title>
<g id="a_Node000016"><a xlink:href="math__util_8c.html#ae69cbf5c8d4b3b0dba2d7b4d4673689f" target="_top" xlink:title=" ">
<polygon fill="white" stroke="#666666" points="571,-56 533,-56 533,-37 571,-37 571,-56"/>
<text text-anchor="middle" x="552" y="-44" font-family="Helvetica,sans-Serif" font-size="10.00">coss</text>
</a>
</g>
</g>
<!-- Node15&#45;&gt;Node16 -->
<g id="edge16_Node000015_Node000016" class="edge">
<title>Node15&#45;&gt;Node16</title>
<g id="a_edge16_Node000015_Node000016"><a xlink:title=" ">
<path fill="none" stroke="#63b8ff" d="M470.1,-36.83C489.06,-39.1 508.13,-41.38 522.98,-43.15"/>
<polygon fill="#63b8ff" stroke="#63b8ff" points="522.65,-46.64 533,-44.35 523.48,-39.69 522.65,-46.64"/>
</a>
</g>
</g>
<!-- Node17 -->
<g id="Node000017" class="node">
<title>Node17</title>
<g id="a_Node000017"><a xlink:href="math__util_8c.html#a19ed3bd78fd2d3e2bd0a29f6caf48545" target="_top" xlink:title=" ">
<polygon fill="white" stroke="#666666" points="570,-19 534,-19 534,0 570,0 570,-19"/>
<text text-anchor="middle" x="552" y="-7" font-family="Helvetica,sans-Serif" font-size="10.00">sins</text>
</a>
</g>
</g>
<!-- Node15&#45;&gt;Node17 -->
<g id="edge17_Node000015_Node000017" class="edge">
<title>Node15&#45;&gt;Node17</title>
<g id="a_edge17_Node000015_Node000017"><a xlink:title=" ">
<path fill="none" stroke="#63b8ff" d="M470.1,-18.66C489.44,-16.47 508.89,-14.27 523.87,-12.57"/>
<polygon fill="#63b8ff" stroke="#63b8ff" points="524.38,-16.04 533.92,-11.43 523.59,-9.08 524.38,-16.04"/>
</a>
</g>
</g>
</g>
</svg>
