<?xml version="1.0" encoding="UTF-8" standalone="no"?>
<!DOCTYPE svg PUBLIC "-//W3C//DTD SVG 1.1//EN"
 "http://www.w3.org/Graphics/SVG/1.1/DTD/svg11.dtd">
<!-- Generated by graphviz version 2.43.0 (0)
 -->
<!-- Title: func_8004ED40 Pages: 1 -->
<!--zoomable 127 -->
<svg id="main" version="1.1" xmlns="http://www.w3.org/2000/svg" xmlns:xlink="http://www.w3.org/1999/xlink" xml:space="preserve" onload="init(evt)">
<style type="text/css"><![CDATA[
.edge:hover path { stroke: red; }
.edge:hover polygon { stroke: red; fill: red; }
]]></style>
<script type="text/javascript"><![CDATA[
var edges = document.getElementsByTagName('g');
if (edges && edges.length) {
  for (var i=0;i<edges.length;i++) {
    if (edges[i].id.substr(0,4)=='edge') {
      edges[i].setAttribute('class','edge');
    }
  }
}
]]></script>
        <defs>
                <circle id="rim" cx="0" cy="0" r="7"/>
                <circle id="rim2" cx="0" cy="0" r="3.5"/>
                <g id="zoomPlus">
                        <use xlink:href="#rim" fill="#404040">
                                <set attributeName="fill" to="#808080" begin="zoomplus.mouseover" end="zoomplus.mouseout"/>
                        </use>
                        <path d="M-4,0h8M0,-4v8" fill="none" stroke="white" stroke-width="1.5" pointer-events="none"/>
                </g>
                <g id="zoomMin">
                        <use xlink:href="#rim" fill="#404040">
                                <set attributeName="fill" to="#808080" begin="zoomminus.mouseover" end="zoomminus.mouseout"/>
                        </use>
                        <path d="M-4,0h8" fill="none" stroke="white" stroke-width="1.5" pointer-events="none"/>
                </g>
                <g id="dirArrow">
                        <path fill="none" stroke="white" stroke-width="1.5" d="M0,-3.0v7 M-2.5,-0.5L0,-3.0L2.5,-0.5"/>
                </g>
               <g id="resetDef">
                       <use xlink:href="#rim2" fill="#404040">
                               <set attributeName="fill" to="#808080" begin="reset.mouseover" end="reset.mouseout"/>
                       </use>
               </g>
        </defs>

<script type="text/javascript">
var viewWidth = 593;
var viewHeight = 127;
var sectionId = 'dynsection-307';
</script>
<script xlink:href="svgpan.js"/>
<svg id="graph" class="graph">
<g id="viewport">
<title>func_8004ED40</title>
<polygon fill="white" stroke="transparent" points="-4,4 -4,-122.5 589,-122.5 589,4 -4,4"/>
<!-- Node1 -->
<g id="node1" class="node">
<title>Node1</title>
<g id="a_node1"><a xlink:title=" ">
<polygon fill="#bfbfbf" stroke="black" points="0,-74 0,-93 92,-93 92,-74 0,-74"/>
<text text-anchor="middle" x="46" y="-81" font-family="Helvetica,sans-Serif" font-size="10.00">func_8004ED40</text>
</a>
</g>
</g>
<!-- Node2 -->
<g id="node2" class="node">
<title>Node2</title>
<g id="a_node2"><a xlink:href="hud__renderer_8c.html#af33da42c55311ae4002856f0bc625376" target="_top" xlink:title=" ">
<polygon fill="white" stroke="black" points="128,-93 128,-112 220,-112 220,-93 128,-93"/>
<text text-anchor="middle" x="174" y="-100" font-family="Helvetica,sans-Serif" font-size="10.00">func_8004A258</text>
</a>
</g>
</g>
<!-- Node1&#45;&gt;Node2 -->
<g id="edge1" class="edge">
<title>Node1&#45;&gt;Node2</title>
<path fill="none" stroke="midnightblue" d="M92.13,-90.31C100.46,-91.56 109.23,-92.88 117.81,-94.18"/>
<polygon fill="midnightblue" stroke="midnightblue" points="117.35,-97.65 127.76,-95.68 118.39,-90.73 117.35,-97.65"/>
</g>
<!-- Node10 -->
<g id="node10" class="node">
<title>Node10</title>
<g id="a_node10"><a xlink:href="hud__renderer_8c.html#a4c0d41a9622eaaaceb2fcbc7fc3897a9" target="_top" xlink:title=" ">
<polygon fill="white" stroke="black" points="128,-55 128,-74 220,-74 220,-55 128,-55"/>
<text text-anchor="middle" x="174" y="-62" font-family="Helvetica,sans-Serif" font-size="10.00">func_8004A2F4</text>
</a>
</g>
</g>
<!-- Node1&#45;&gt;Node10 -->
<g id="edge9" class="edge">
<title>Node1&#45;&gt;Node10</title>
<path fill="none" stroke="midnightblue" d="M92.13,-76.69C100.46,-75.44 109.23,-74.12 117.81,-72.82"/>
<polygon fill="midnightblue" stroke="midnightblue" points="118.39,-76.27 127.76,-71.32 117.35,-69.35 118.39,-76.27"/>
</g>
<!-- Node3 -->
<g id="node3" class="node">
<title>Node3</title>
<g id="a_node3"><a xlink:href="math__util__2_8c.html#a22aa509214eeed1ba3197762e76d7bed" target="_top" xlink:title=" ">
<polygon fill="white" stroke="black" points="256.5,-55 256.5,-74 347.5,-74 347.5,-55 256.5,-55"/>
<text text-anchor="middle" x="302" y="-62" font-family="Helvetica,sans-Serif" font-size="10.00">func_80042330</text>
</a>
</g>
</g>
<!-- Node2&#45;&gt;Node3 -->
<g id="edge2" class="edge">
<title>Node2&#45;&gt;Node3</title>
<path fill="none" stroke="midnightblue" d="M206.8,-92.91C222.76,-88.1 242.31,-82.2 259.45,-77.03"/>
<polygon fill="midnightblue" stroke="midnightblue" points="260.65,-80.32 269.22,-74.09 258.63,-73.62 260.65,-80.32"/>
</g>
<!-- Node8 -->
<g id="node8" class="node">
<title>Node8</title>
<g id="a_node8"><a xlink:href="hud__renderer_8c.html#ae6af904cb50c314392499049e5de07e9" target="_top" xlink:title=" ">
<polygon fill="white" stroke="black" points="256.5,-93 256.5,-112 347.5,-112 347.5,-93 256.5,-93"/>
<text text-anchor="middle" x="302" y="-100" font-family="Helvetica,sans-Serif" font-size="10.00">func_80049970</text>
</a>
</g>
</g>
<!-- Node2&#45;&gt;Node8 -->
<g id="edge7" class="edge">
<title>Node2&#45;&gt;Node8</title>
<path fill="none" stroke="midnightblue" d="M220.13,-102.5C228.56,-102.5 237.45,-102.5 246.13,-102.5"/>
<polygon fill="midnightblue" stroke="midnightblue" points="246.18,-106 256.18,-102.5 246.18,-99 246.18,-106"/>
</g>
<!-- Node4 -->
<g id="node4" class="node">
<title>Node4</title>
<g id="a_node4"><a xlink:href="render__player_8c.html#af0bbe78d8dc64400663d3702812f9ad8" target="_top" xlink:title=" ">
<polygon fill="white" stroke="black" points="384,-0.5 384,-30.5 511,-30.5 511,-0.5 384,-0.5"/>
<text text-anchor="start" x="392" y="-18.5" font-family="Helvetica,sans-Serif" font-size="10.00">convert_to_fixed_point</text>
<text text-anchor="middle" x="447.5" y="-7.5" font-family="Helvetica,sans-Serif" font-size="10.00">_matrix</text>
</a>
</g>
</g>
<!-- Node3&#45;&gt;Node4 -->
<g id="edge3" class="edge">
<title>Node3&#45;&gt;Node4</title>
<path fill="none" stroke="midnightblue" d="M331.01,-54.94C348.62,-48.92 371.92,-40.97 392.98,-33.78"/>
<polygon fill="midnightblue" stroke="midnightblue" points="394.13,-37.08 402.46,-30.54 391.87,-30.46 394.13,-37.08"/>
</g>
<!-- Node5 -->
<g id="node5" class="node">
<title>Node5</title>
<g id="a_node5"><a xlink:href="math__util__2_8c.html#a54b1e79ca4e8d2f7f7256891f9c4e772" target="_top" xlink:title="arg1 and arg2 are s32&#39;s into floats?!?">
<polygon fill="white" stroke="black" points="384.5,-49.5 384.5,-79.5 510.5,-79.5 510.5,-49.5 384.5,-49.5"/>
<text text-anchor="start" x="392.5" y="-67.5" font-family="Helvetica,sans-Serif" font-size="10.00">mtxf_translation_x</text>
<text text-anchor="middle" x="447.5" y="-56.5" font-family="Helvetica,sans-Serif" font-size="10.00">_y_rotate_z_scale_x_y</text>
</a>
</g>
</g>
<!-- Node3&#45;&gt;Node5 -->
<g id="edge4" class="edge">
<title>Node3&#45;&gt;Node5</title>
<path fill="none" stroke="midnightblue" d="M347.62,-64.5C356.05,-64.5 365.06,-64.5 374.09,-64.5"/>
<polygon fill="midnightblue" stroke="midnightblue" points="374.26,-68 384.26,-64.5 374.26,-61 374.26,-68"/>
</g>
<!-- Node6 -->
<g id="node6" class="node">
<title>Node6</title>
<g id="a_node6"><a xlink:href="math__util_8c.html#ae69cbf5c8d4b3b0dba2d7b4d4673689f" target="_top" xlink:title=" ">
<polygon fill="white" stroke="black" points="547,-74 547,-93 585,-93 585,-74 547,-74"/>
<text text-anchor="middle" x="566" y="-81" font-family="Helvetica,sans-Serif" font-size="10.00">coss</text>
</a>
</g>
</g>
<!-- Node5&#45;&gt;Node6 -->
<g id="edge5" class="edge">
<title>Node5&#45;&gt;Node6</title>
<path fill="none" stroke="midnightblue" d="M510.5,-74.61C519.72,-76.12 528.81,-77.6 536.85,-78.91"/>
<polygon fill="midnightblue" stroke="midnightblue" points="536.3,-82.37 546.73,-80.52 537.43,-75.46 536.3,-82.37"/>
</g>
<!-- Node7 -->
<g id="node7" class="node">
<title>Node7</title>
<g id="a_node7"><a xlink:href="math__util_8c.html#a19ed3bd78fd2d3e2bd0a29f6caf48545" target="_top" xlink:title=" ">
<polygon fill="white" stroke="black" points="548,-36 548,-55 584,-55 584,-36 548,-36"/>
<text text-anchor="middle" x="566" y="-43" font-family="Helvetica,sans-Serif" font-size="10.00">sins</text>
</a>
</g>
</g>
<!-- Node5&#45;&gt;Node7 -->
<g id="edge6" class="edge">
<title>Node5&#45;&gt;Node7</title>
<path fill="none" stroke="midnightblue" d="M510.5,-54.39C520.02,-52.84 529.41,-51.3 537.64,-49.96"/>
<polygon fill="midnightblue" stroke="midnightblue" points="538.4,-53.38 547.71,-48.32 537.27,-46.48 538.4,-53.38"/>
</g>
<!-- Node9 -->
<g id="node9" class="node">
<title>Node9</title>
<g id="a_node9"><a xlink:href="hud__renderer_8c.html#a7e222e4426a0c151a8580e2982336170" target="_top" xlink:title=" ">
<polygon fill="white" stroke="black" points="401,-99 401,-118 494,-118 494,-99 401,-99"/>
<text text-anchor="middle" x="447.5" y="-106" font-family="Helvetica,sans-Serif" font-size="10.00">func_80044DA0</text>
</a>
</g>
</g>
<!-- Node8&#45;&gt;Node9 -->
<g id="edge8" class="edge">
<title>Node8&#45;&gt;Node9</title>
<path fill="none" stroke="midnightblue" d="M347.62,-104.37C361.26,-104.94 376.43,-105.57 390.71,-106.17"/>
<polygon fill="midnightblue" stroke="midnightblue" points="390.78,-109.67 400.92,-106.59 391.08,-102.68 390.78,-109.67"/>
</g>
<!-- Node10&#45;&gt;Node3 -->
<g id="edge10" class="edge">
<title>Node10&#45;&gt;Node3</title>
<path fill="none" stroke="midnightblue" d="M220.13,-64.5C228.56,-64.5 237.45,-64.5 246.13,-64.5"/>
<polygon fill="midnightblue" stroke="midnightblue" points="246.18,-68 256.18,-64.5 246.18,-61 246.18,-68"/>
</g>
<!-- Node10&#45;&gt;Node8 -->
<g id="edge11" class="edge">
<title>Node10&#45;&gt;Node8</title>
<path fill="none" stroke="midnightblue" d="M206.8,-74.09C222.76,-78.9 242.31,-84.8 259.45,-89.97"/>
<polygon fill="midnightblue" stroke="midnightblue" points="258.63,-93.38 269.22,-92.91 260.65,-86.68 258.63,-93.38"/>
</g>
<!-- Node11 -->
<g id="node11" class="node">
<title>Node11</title>
<g id="a_node11"><a xlink:href="hud__renderer_8c.html#a9ea20c14c263ed864d8e02d082b6b18b" target="_top" xlink:title=" ">
<polygon fill="white" stroke="black" points="256,-17 256,-36 348,-36 348,-17 256,-17"/>
<text text-anchor="middle" x="302" y="-24" font-family="Helvetica,sans-Serif" font-size="10.00">func_8004B414</text>
</a>
</g>
</g>
<!-- Node10&#45;&gt;Node11 -->
<g id="edge12" class="edge">
<title>Node10&#45;&gt;Node11</title>
<path fill="none" stroke="midnightblue" d="M206.8,-54.91C222.76,-50.1 242.31,-44.2 259.45,-39.03"/>
<polygon fill="midnightblue" stroke="midnightblue" points="260.65,-42.32 269.22,-36.09 258.63,-35.62 260.65,-42.32"/>
</g>
</g>
</svg>
        <g id="navigator" transform="translate(0 0)" fill="#404254">
                <rect fill="#f2f5e9" fill-opacity="0.5" stroke="#606060" stroke-width=".5" x="0" y="0" width="60" height="60"/>
                <use id="zoomplus" xlink:href="#zoomPlus" x="17" y="9" onmousedown="handleZoom(evt,'in')"/>
                <use id="zoomminus" xlink:href="#zoomMin" x="42" y="9" onmousedown="handleZoom(evt,'out')"/>
                <use id="reset" xlink:href="#resetDef" x="30" y="36" onmousedown="handleReset()"/>
                <g id="arrowUp" xlink:href="#dirArrow" transform="translate(30 24)" onmousedown="handlePan(0,-1)">
                  <use xlink:href="#rim" fill="#404040">
                        <set attributeName="fill" to="#808080" begin="arrowUp.mouseover" end="arrowUp.mouseout"/>
                  </use>
                  <path fill="none" stroke="white" stroke-width="1.5" d="M0,-3.0v7 M-2.5,-0.5L0,-3.0L2.5,-0.5"/>
                </g>
                <g id="arrowRight" xlink:href="#dirArrow" transform="rotate(90) translate(36 -43)" onmousedown="handlePan(1,0)">
                  <use xlink:href="#rim" fill="#404040">
                        <set attributeName="fill" to="#808080" begin="arrowRight.mouseover" end="arrowRight.mouseout"/>
                  </use>
                  <path fill="none" stroke="white" stroke-width="1.5" d="M0,-3.0v7 M-2.5,-0.5L0,-3.0L2.5,-0.5"/>
                </g>
                <g id="arrowDown" xlink:href="#dirArrow" transform="rotate(180) translate(-30 -48)" onmousedown="handlePan(0,1)">
                  <use xlink:href="#rim" fill="#404040">
                        <set attributeName="fill" to="#808080" begin="arrowDown.mouseover" end="arrowDown.mouseout"/>
                  </use>
                  <path fill="none" stroke="white" stroke-width="1.5" d="M0,-3.0v7 M-2.5,-0.5L0,-3.0L2.5,-0.5"/>
                </g>
                <g id="arrowLeft" xlink:href="#dirArrow" transform="rotate(270) translate(-36 17)" onmousedown="handlePan(-1,0)">
                  <use xlink:href="#rim" fill="#404040">
                        <set attributeName="fill" to="#808080" begin="arrowLeft.mouseover" end="arrowLeft.mouseout"/>
                  </use>
                  <path fill="none" stroke="white" stroke-width="1.5" d="M0,-3.0v7 M-2.5,-0.5L0,-3.0L2.5,-0.5"/>
                </g>
        </g>
        <svg viewBox="0 0 15 15" width="100%" height="30px" preserveAspectRatio="xMaxYMin meet">
         <g id="arrow_out" transform="scale(0.3 0.3)">
          <a xlink:href="hud__renderer_8h_a2d4782a14d0c934feee84b5d2ecafd8e_cgraph_org.svg" target="_base">
           <rect id="button" ry="5" rx="5" y="6" x="6" height="38" width="38"
                fill="#f2f5e9" fill-opacity="0.5" stroke="#606060" stroke-width="1.0"/>
           <path id="arrow"
             d="M 11.500037,31.436501 C 11.940474,20.09759 22.043105,11.32322 32.158766,21.979434 L 37.068811,17.246167 C 37.068811,17.246167 37.088388,32 37.088388,32 L 22.160133,31.978069 C 22.160133,31.978069 26.997745,27.140456 26.997745,27.140456 C 18.528582,18.264221 13.291696,25.230495 11.500037,31.436501 z"
             style="fill:#404040;"/>
          </a>
         </g>
        </svg>
</svg>
