<?xml version="1.0" encoding="UTF-8" standalone="no"?>
<!DOCTYPE svg PUBLIC "-//W3C//DTD SVG 1.1//EN"
 "http://www.w3.org/Graphics/SVG/1.1/DTD/svg11.dtd">
<!-- Generated by graphviz version 2.43.0 (0)
 -->
<!-- Title: func_80044924 Pages: 1 -->
<svg width="488pt" height="237pt"
 viewBox="0.00 0.00 488.00 237.00" xmlns="http://www.w3.org/2000/svg" xmlns:xlink="http://www.w3.org/1999/xlink">
<g id="graph0" class="graph" transform="scale(1 1) rotate(0) translate(4 233)">
<title>func_80044924</title>
<polygon fill="white" stroke="transparent" points="-4,4 -4,-233 484,-233 484,4 -4,4"/>
<!-- Node1 -->
<g id="node1" class="node">
<title>Node1</title>
<g id="a_node1"><a xlink:title=" ">
<polygon fill="#bfbfbf" stroke="black" points="389,-76.5 389,-95.5 480,-95.5 480,-76.5 389,-76.5"/>
<text text-anchor="middle" x="434.5" y="-83.5" font-family="Helvetica,sans-Serif" font-size="10.00">func_80044924</text>
</a>
</g>
</g>
<!-- Node2 -->
<g id="node2" class="node">
<title>Node2</title>
<g id="a_node2"><a xlink:href="hud__renderer_8c.html#a9d23fcf5b0e240eb1194c6a6409a16ef" target="_top" xlink:title=" ">
<polygon fill="white" stroke="black" points="260,-152.5 260,-171.5 352,-171.5 352,-152.5 260,-152.5"/>
<text text-anchor="middle" x="306" y="-159.5" font-family="Helvetica,sans-Serif" font-size="10.00">func_8004961C</text>
</a>
</g>
</g>
<!-- Node1&#45;&gt;Node2 -->
<g id="edge1" class="edge">
<title>Node1&#45;&gt;Node2</title>
<path fill="none" stroke="midnightblue" d="M413.8,-101.85C397.99,-114.09 374.89,-130.93 353,-143 346.8,-146.42 339.85,-149.6 333.27,-152.34"/>
<polygon fill="midnightblue" stroke="midnightblue" points="416.08,-104.51 421.78,-95.58 411.76,-99 416.08,-104.51"/>
</g>
<!-- Node7 -->
<g id="node7" class="node">
<title>Node7</title>
<g id="a_node7"><a xlink:href="hud__renderer_8c.html#a0dca29732ec54164fbe516b8c43da687" target="_top" xlink:title=" ">
<polygon fill="white" stroke="black" points="259,-114.5 259,-133.5 353,-133.5 353,-114.5 259,-114.5"/>
<text text-anchor="middle" x="306" y="-121.5" font-family="Helvetica,sans-Serif" font-size="10.00">func_8004D0D4</text>
</a>
</g>
</g>
<!-- Node1&#45;&gt;Node7 -->
<g id="edge6" class="edge">
<title>Node1&#45;&gt;Node7</title>
<path fill="none" stroke="midnightblue" d="M391.77,-98.54C374.56,-103.7 354.94,-109.6 338.91,-114.41"/>
<polygon fill="midnightblue" stroke="midnightblue" points="393.01,-101.82 401.58,-95.59 390.99,-95.11 393.01,-101.82"/>
</g>
<!-- Node9 -->
<g id="node9" class="node">
<title>Node9</title>
<g id="a_node9"><a xlink:href="hud__renderer_8c.html#a752e88016d70da231c58ee04aa2b236a" target="_top" xlink:title=" ">
<polygon fill="white" stroke="black" points="260,-76.5 260,-95.5 352,-95.5 352,-76.5 260,-76.5"/>
<text text-anchor="middle" x="306" y="-83.5" font-family="Helvetica,sans-Serif" font-size="10.00">func_8004D210</text>
</a>
</g>
</g>
<!-- Node1&#45;&gt;Node9 -->
<g id="edge8" class="edge">
<title>Node1&#45;&gt;Node9</title>
<path fill="none" stroke="midnightblue" d="M378.63,-86C369.75,-86 360.66,-86 352.05,-86"/>
<polygon fill="midnightblue" stroke="midnightblue" points="378.9,-89.5 388.9,-86 378.9,-82.5 378.9,-89.5"/>
</g>
<!-- Node10 -->
<g id="node10" class="node">
<title>Node10</title>
<g id="a_node10"><a xlink:href="hud__renderer_8c.html#a34817ab081224c72b44d7bd470ca0f6a" target="_top" xlink:title=" ">
<polygon fill="white" stroke="black" points="259,-38.5 259,-57.5 353,-57.5 353,-38.5 259,-38.5"/>
<text text-anchor="middle" x="306" y="-45.5" font-family="Helvetica,sans-Serif" font-size="10.00">func_8004DAB8</text>
</a>
</g>
</g>
<!-- Node1&#45;&gt;Node10 -->
<g id="edge9" class="edge">
<title>Node1&#45;&gt;Node10</title>
<path fill="none" stroke="midnightblue" d="M391.77,-73.46C374.56,-68.3 354.94,-62.4 338.91,-57.59"/>
<polygon fill="midnightblue" stroke="midnightblue" points="390.99,-76.89 401.58,-76.41 393.01,-70.18 390.99,-76.89"/>
</g>
<!-- Node12 -->
<g id="node12" class="node">
<title>Node12</title>
<g id="a_node12"><a xlink:href="hud__renderer_8c.html#a24f481e614ec5cbac3e43da88959df2b" target="_top" xlink:title=" ">
<polygon fill="white" stroke="black" points="259.5,-0.5 259.5,-19.5 352.5,-19.5 352.5,-0.5 259.5,-0.5"/>
<text text-anchor="middle" x="306" y="-7.5" font-family="Helvetica,sans-Serif" font-size="10.00">func_8004FDB4</text>
</a>
</g>
</g>
<!-- Node1&#45;&gt;Node12 -->
<g id="edge11" class="edge">
<title>Node1&#45;&gt;Node12</title>
<path fill="none" stroke="midnightblue" d="M413.8,-70.15C397.99,-57.91 374.89,-41.07 353,-29 346.8,-25.58 339.85,-22.4 333.27,-19.66"/>
<polygon fill="midnightblue" stroke="midnightblue" points="411.76,-73 421.78,-76.42 416.08,-67.49 411.76,-73"/>
</g>
<!-- Node3 -->
<g id="node3" class="node">
<title>Node3</title>
<g id="a_node3"><a xlink:href="hud__renderer_8c.html#a52298bcb16d24f164926a29cd694f51a" target="_top" xlink:title=" ">
<polygon fill="white" stroke="black" points="129.5,-190.5 129.5,-209.5 221.5,-209.5 221.5,-190.5 129.5,-190.5"/>
<text text-anchor="middle" x="175.5" y="-197.5" font-family="Helvetica,sans-Serif" font-size="10.00">func_8004A0B0</text>
</a>
</g>
</g>
<!-- Node2&#45;&gt;Node3 -->
<g id="edge2" class="edge">
<title>Node2&#45;&gt;Node3</title>
<path fill="none" stroke="midnightblue" d="M262.61,-174.54C245.13,-179.7 225.2,-185.6 208.92,-190.41"/>
<polygon fill="midnightblue" stroke="midnightblue" points="263.98,-177.78 272.57,-171.59 261.99,-171.07 263.98,-177.78"/>
</g>
<!-- Node6 -->
<g id="node6" class="node">
<title>Node6</title>
<g id="a_node6"><a xlink:href="hud__renderer_8c.html#affc41012cebf6e8d0c7b47fcbaad8215" target="_top" xlink:title=" ">
<polygon fill="white" stroke="black" points="129.5,-152.5 129.5,-171.5 221.5,-171.5 221.5,-152.5 129.5,-152.5"/>
<text text-anchor="middle" x="175.5" y="-159.5" font-family="Helvetica,sans-Serif" font-size="10.00">func_8004A12C</text>
</a>
</g>
</g>
<!-- Node2&#45;&gt;Node6 -->
<g id="edge5" class="edge">
<title>Node2&#45;&gt;Node6</title>
<path fill="none" stroke="midnightblue" d="M249.43,-162C240.22,-162 230.75,-162 221.83,-162"/>
<polygon fill="midnightblue" stroke="midnightblue" points="249.7,-165.5 259.7,-162 249.7,-158.5 249.7,-165.5"/>
</g>
<!-- Node4 -->
<g id="node4" class="node">
<title>Node4</title>
<g id="a_node4"><a xlink:href="hud__renderer_8c.html#a3df88774a531a8e10a6bc21615e60acf" target="_top" xlink:title=" ">
<polygon fill="white" stroke="black" points="0,-209.5 0,-228.5 92,-228.5 92,-209.5 0,-209.5"/>
<text text-anchor="middle" x="46" y="-216.5" font-family="Helvetica,sans-Serif" font-size="10.00">func_8004AB60</text>
</a>
</g>
</g>
<!-- Node3&#45;&gt;Node4 -->
<g id="edge3" class="edge">
<title>Node3&#45;&gt;Node4</title>
<path fill="none" stroke="midnightblue" d="M119.15,-208.25C110.14,-209.59 100.9,-210.97 92.16,-212.27"/>
<polygon fill="midnightblue" stroke="midnightblue" points="119.81,-211.69 129.19,-206.75 118.78,-204.76 119.81,-211.69"/>
</g>
<!-- Node5 -->
<g id="node5" class="node">
<title>Node5</title>
<g id="a_node5"><a xlink:href="hud__renderer_8c.html#a1d4892f978f7908ef7eeaaa77ad51110" target="_top" xlink:title=" ">
<polygon fill="white" stroke="black" points="0,-171.5 0,-190.5 92,-190.5 92,-171.5 0,-171.5"/>
<text text-anchor="middle" x="46" y="-178.5" font-family="Helvetica,sans-Serif" font-size="10.00">func_8004AC80</text>
</a>
</g>
</g>
<!-- Node3&#45;&gt;Node5 -->
<g id="edge4" class="edge">
<title>Node3&#45;&gt;Node5</title>
<path fill="none" stroke="midnightblue" d="M119.15,-191.75C110.14,-190.41 100.9,-189.03 92.16,-187.73"/>
<polygon fill="midnightblue" stroke="midnightblue" points="118.78,-195.24 129.19,-193.25 119.81,-188.31 118.78,-195.24"/>
</g>
<!-- Node8 -->
<g id="node8" class="node">
<title>Node8</title>
<g id="a_node8"><a xlink:href="hud__renderer_8c.html#aeba740d11a29075632eddbf76f98b46e" target="_top" xlink:title=" ">
<polygon fill="white" stroke="black" points="128,-114.5 128,-133.5 223,-133.5 223,-114.5 128,-114.5"/>
<text text-anchor="middle" x="175.5" y="-121.5" font-family="Helvetica,sans-Serif" font-size="10.00">func_8004DDAC</text>
</a>
</g>
</g>
<!-- Node7&#45;&gt;Node8 -->
<g id="edge7" class="edge">
<title>Node7&#45;&gt;Node8</title>
<path fill="none" stroke="midnightblue" d="M248.96,-124C240.32,-124 231.48,-124 223.07,-124"/>
<polygon fill="midnightblue" stroke="midnightblue" points="248.97,-127.5 258.97,-124 248.97,-120.5 248.97,-127.5"/>
</g>
<!-- Node11 -->
<g id="node11" class="node">
<title>Node11</title>
<g id="a_node11"><a xlink:href="hud__renderer_8c.html#a389f358b59f471b42f60d1920c16a000" target="_top" xlink:title=" ">
<polygon fill="white" stroke="black" points="129,-38.5 129,-57.5 222,-57.5 222,-38.5 129,-38.5"/>
<text text-anchor="middle" x="175.5" y="-45.5" font-family="Helvetica,sans-Serif" font-size="10.00">func_8004DE2C</text>
</a>
</g>
</g>
<!-- Node10&#45;&gt;Node11 -->
<g id="edge10" class="edge">
<title>Node10&#45;&gt;Node11</title>
<path fill="none" stroke="midnightblue" d="M248.71,-48C239.85,-48 230.79,-48 222.21,-48"/>
<polygon fill="midnightblue" stroke="midnightblue" points="248.97,-51.5 258.97,-48 248.97,-44.5 248.97,-51.5"/>
</g>
</g>
</svg>
