<?xml version="1.0" encoding="UTF-8" standalone="no"?>
<!DOCTYPE svg PUBLIC "-//W3C//DTD SVG 1.1//EN"
 "http://www.w3.org/Graphics/SVG/1.1/DTD/svg11.dtd">
<!-- Generated by graphviz version 2.43.0 (0)
 -->
<!-- Title: func_800536C8 Pages: 1 -->
<svg width="756pt" height="192pt"
 viewBox="0.00 0.00 756.00 191.50" xmlns="http://www.w3.org/2000/svg" xmlns:xlink="http://www.w3.org/1999/xlink">
<g id="graph0" class="graph" transform="scale(1 1) rotate(0) translate(4 187.5)">
<title>func_800536C8</title>
<polygon fill="white" stroke="transparent" points="-4,4 -4,-187.5 752,-187.5 752,4 -4,4"/>
<!-- Node1 -->
<g id="node1" class="node">
<title>Node1</title>
<g id="a_node1"><a xlink:title=" ">
<polygon fill="#bfbfbf" stroke="black" points="0,-76.5 0,-95.5 92,-95.5 92,-76.5 0,-76.5"/>
<text text-anchor="middle" x="46" y="-83.5" font-family="Helvetica,sans-Serif" font-size="10.00">func_800536C8</text>
</a>
</g>
</g>
<!-- Node2 -->
<g id="node2" class="node">
<title>Node2</title>
<g id="a_node2"><a xlink:href="hud__renderer_8c.html#afbf522fbac558ae375119cb8820d0f40" target="_top" xlink:title=" ">
<polygon fill="white" stroke="black" points="147,-152.5 147,-171.5 240,-171.5 240,-152.5 147,-152.5"/>
<text text-anchor="middle" x="193.5" y="-159.5" font-family="Helvetica,sans-Serif" font-size="10.00">func_8004A7AC</text>
</a>
</g>
</g>
<!-- Node1&#45;&gt;Node2 -->
<g id="edge1" class="edge">
<title>Node1&#45;&gt;Node2</title>
<path fill="none" stroke="midnightblue" d="M59.95,-95.56C75.53,-106.76 102.74,-125.37 128,-138 136,-142 144.83,-145.71 153.33,-148.96"/>
<polygon fill="midnightblue" stroke="midnightblue" points="152.12,-152.25 162.72,-152.42 154.55,-145.68 152.12,-152.25"/>
</g>
<!-- Node4 -->
<g id="node4" class="node">
<title>Node4</title>
<g id="a_node4"><a xlink:href="math__util__2_8c.html#a2eff0e02deb703653ee3230fbc02eb14" target="_top" xlink:title="set the matrix to a transformation matrix">
<polygon fill="white" stroke="black" points="295,-114.5 295,-133.5 462,-133.5 462,-114.5 295,-114.5"/>
<text text-anchor="middle" x="378.5" y="-121.5" font-family="Helvetica,sans-Serif" font-size="10.00">rsp_set_matrix_transformation</text>
</a>
</g>
</g>
<!-- Node1&#45;&gt;Node4 -->
<g id="edge11" class="edge">
<title>Node1&#45;&gt;Node4</title>
<path fill="none" stroke="midnightblue" d="M82.25,-95.52C96.38,-99 112.87,-102.66 128,-105 179.5,-112.95 237.51,-117.62 284.63,-120.34"/>
<polygon fill="midnightblue" stroke="midnightblue" points="284.64,-123.85 294.82,-120.91 285.03,-116.86 284.64,-123.85"/>
</g>
<!-- Node9 -->
<g id="node9" class="node">
<title>Node9</title>
<g id="a_node9"><a xlink:href="hud__renderer_8c.html#a42d1ae42457409811a8f7f66097c4c74" target="_top" xlink:title=" ">
<polygon fill="white" stroke="black" points="148,-76.5 148,-95.5 239,-95.5 239,-76.5 148,-76.5"/>
<text text-anchor="middle" x="193.5" y="-83.5" font-family="Helvetica,sans-Serif" font-size="10.00">func_800534E8</text>
</a>
</g>
</g>
<!-- Node1&#45;&gt;Node9 -->
<g id="edge8" class="edge">
<title>Node1&#45;&gt;Node9</title>
<path fill="none" stroke="midnightblue" d="M92.24,-86C106.61,-86 122.66,-86 137.63,-86"/>
<polygon fill="midnightblue" stroke="midnightblue" points="137.79,-89.5 147.79,-86 137.79,-82.5 137.79,-89.5"/>
</g>
<!-- Node10 -->
<g id="node10" class="node">
<title>Node10</title>
<g id="a_node10"><a xlink:href="code__80071F00_8c.html#ab7e91b1ebcbec57dfed6e185a2f67580" target="_top" xlink:title=" ">
<polygon fill="white" stroke="black" points="148,-38.5 148,-57.5 239,-57.5 239,-38.5 148,-38.5"/>
<text text-anchor="middle" x="193.5" y="-45.5" font-family="Helvetica,sans-Serif" font-size="10.00">func_80072354</text>
</a>
</g>
</g>
<!-- Node1&#45;&gt;Node10 -->
<g id="edge9" class="edge">
<title>Node1&#45;&gt;Node10</title>
<path fill="none" stroke="midnightblue" d="M83.72,-76.41C102.66,-71.46 125.96,-65.38 146.13,-60.11"/>
<polygon fill="midnightblue" stroke="midnightblue" points="147.26,-63.43 156.05,-57.52 145.49,-56.66 147.26,-63.43"/>
</g>
<!-- Node11 -->
<g id="node11" class="node">
<title>Node11</title>
<g id="a_node11"><a xlink:href="hud__renderer_8c.html#a96f71e7de2b291bd06dd92188b107b53" target="_top" xlink:title=" ">
<polygon fill="white" stroke="black" points="128,-0.5 128,-19.5 259,-19.5 259,-0.5 128,-0.5"/>
<text text-anchor="middle" x="193.5" y="-7.5" font-family="Helvetica,sans-Serif" font-size="10.00">rsp_load_texture_mask</text>
</a>
</g>
</g>
<!-- Node1&#45;&gt;Node11 -->
<g id="edge10" class="edge">
<title>Node1&#45;&gt;Node11</title>
<path fill="none" stroke="midnightblue" d="M58.06,-76.42C73,-63.92 100.9,-42.08 128,-29 132.68,-26.74 137.68,-24.7 142.74,-22.85"/>
<polygon fill="midnightblue" stroke="midnightblue" points="144.15,-26.07 152.51,-19.57 141.91,-19.44 144.15,-26.07"/>
</g>
<!-- Node3 -->
<g id="node3" class="node">
<title>Node3</title>
<g id="a_node3"><a xlink:href="code__80071F00_8c.html#a5d62494ea345d5a576d4440772111136" target="_top" xlink:title=" ">
<polygon fill="white" stroke="black" points="316.5,-153 316.5,-183 440.5,-183 440.5,-153 316.5,-153"/>
<text text-anchor="start" x="324.5" y="-171" font-family="Helvetica,sans-Serif" font-size="10.00">is_obj_index_flag_unk</text>
<text text-anchor="middle" x="378.5" y="-160" font-family="Helvetica,sans-Serif" font-size="10.00">_054_active</text>
</a>
</g>
</g>
<!-- Node2&#45;&gt;Node3 -->
<g id="edge2" class="edge">
<title>Node2&#45;&gt;Node3</title>
<path fill="none" stroke="midnightblue" d="M240.21,-163.5C260.13,-164.15 283.95,-164.93 306.12,-165.66"/>
<polygon fill="midnightblue" stroke="midnightblue" points="306.06,-169.16 316.17,-165.99 306.29,-162.16 306.06,-169.16"/>
</g>
<!-- Node2&#45;&gt;Node4 -->
<g id="edge3" class="edge">
<title>Node2&#45;&gt;Node4</title>
<path fill="none" stroke="midnightblue" d="M240.21,-152.51C264.88,-147.39 295.54,-141.02 321.62,-135.6"/>
<polygon fill="midnightblue" stroke="midnightblue" points="322.66,-138.96 331.74,-133.5 321.24,-132.11 322.66,-138.96"/>
</g>
<!-- Node5 -->
<g id="node5" class="node">
<title>Node5</title>
<g id="a_node5"><a xlink:href="render__player_8c.html#af0bbe78d8dc64400663d3702812f9ad8" target="_top" xlink:title=" ">
<polygon fill="white" stroke="black" points="522.5,-131 522.5,-161 649.5,-161 649.5,-131 522.5,-131"/>
<text text-anchor="start" x="530.5" y="-149" font-family="Helvetica,sans-Serif" font-size="10.00">convert_to_fixed_point</text>
<text text-anchor="middle" x="586" y="-138" font-family="Helvetica,sans-Serif" font-size="10.00">_matrix</text>
</a>
</g>
</g>
<!-- Node4&#45;&gt;Node5 -->
<g id="edge4" class="edge">
<title>Node4&#45;&gt;Node5</title>
<path fill="none" stroke="midnightblue" d="M462.2,-132.85C478.82,-134.63 496.17,-136.49 512.42,-138.23"/>
<polygon fill="midnightblue" stroke="midnightblue" points="512.07,-141.71 522.38,-139.3 512.81,-134.75 512.07,-141.71"/>
</g>
<!-- Node6 -->
<g id="node6" class="node">
<title>Node6</title>
<g id="a_node6"><a xlink:href="math__util__2_8c.html#a88742c6110738fc1c35a57f50920a81f" target="_top" xlink:title=" ">
<polygon fill="white" stroke="black" points="498,-92.5 498,-111.5 674,-111.5 674,-92.5 498,-92.5"/>
<text text-anchor="middle" x="586" y="-99.5" font-family="Helvetica,sans-Serif" font-size="10.00">mtxf_set_matrix_transformation</text>
</a>
</g>
</g>
<!-- Node4&#45;&gt;Node6 -->
<g id="edge5" class="edge">
<title>Node4&#45;&gt;Node6</title>
<path fill="none" stroke="midnightblue" d="M462.2,-115.15C470.61,-114.25 479.22,-113.32 487.77,-112.41"/>
<polygon fill="midnightblue" stroke="midnightblue" points="488.2,-115.88 497.77,-111.34 487.46,-108.92 488.2,-115.88"/>
</g>
<!-- Node7 -->
<g id="node7" class="node">
<title>Node7</title>
<g id="a_node7"><a xlink:href="math__util_8c.html#ae69cbf5c8d4b3b0dba2d7b4d4673689f" target="_top" xlink:title=" ">
<polygon fill="white" stroke="black" points="710,-111.5 710,-130.5 748,-130.5 748,-111.5 710,-111.5"/>
<text text-anchor="middle" x="729" y="-118.5" font-family="Helvetica,sans-Serif" font-size="10.00">coss</text>
</a>
</g>
</g>
<!-- Node6&#45;&gt;Node7 -->
<g id="edge6" class="edge">
<title>Node6&#45;&gt;Node7</title>
<path fill="none" stroke="midnightblue" d="M657.91,-111.56C672.87,-113.57 687.8,-115.58 700.02,-117.23"/>
<polygon fill="midnightblue" stroke="midnightblue" points="699.61,-120.71 709.98,-118.57 700.54,-113.77 699.61,-120.71"/>
</g>
<!-- Node8 -->
<g id="node8" class="node">
<title>Node8</title>
<g id="a_node8"><a xlink:href="math__util_8c.html#a19ed3bd78fd2d3e2bd0a29f6caf48545" target="_top" xlink:title=" ">
<polygon fill="white" stroke="black" points="711,-73.5 711,-92.5 747,-92.5 747,-73.5 711,-73.5"/>
<text text-anchor="middle" x="729" y="-80.5" font-family="Helvetica,sans-Serif" font-size="10.00">sins</text>
</a>
</g>
</g>
<!-- Node6&#45;&gt;Node8 -->
<g id="edge7" class="edge">
<title>Node6&#45;&gt;Node8</title>
<path fill="none" stroke="midnightblue" d="M657.91,-92.44C673.19,-90.39 688.44,-88.33 700.79,-86.67"/>
<polygon fill="midnightblue" stroke="midnightblue" points="701.39,-90.12 710.83,-85.31 700.46,-83.18 701.39,-90.12"/>
</g>
</g>
</svg>
