<?xml version="1.0" encoding="UTF-8" standalone="no"?>
<!DOCTYPE svg PUBLIC "-//W3C//DTD SVG 1.1//EN"
 "http://www.w3.org/Graphics/SVG/1.1/DTD/svg11.dtd">
<!-- Generated by graphviz version 2.43.0 (0)
 -->
<!-- Title: include/kart_attributes.h Pages: 1 -->
<svg width="827pt" height="196pt"
 viewBox="0.00 0.00 827.00 196.00" xmlns="http://www.w3.org/2000/svg" xmlns:xlink="http://www.w3.org/1999/xlink">
<g id="graph0" class="graph" transform="scale(1 1) rotate(0) translate(4 192)">
<title>include/kart_attributes.h</title>
<polygon fill="white" stroke="transparent" points="-4,4 -4,-192 823,-192 823,4 -4,4"/>
<!-- Node1 -->
<g id="node1" class="node">
<title>Node1</title>
<g id="a_node1"><a xlink:title=" ">
<polygon fill="#bfbfbf" stroke="black" points="376,-168.5 376,-187.5 511,-187.5 511,-168.5 376,-168.5"/>
<text text-anchor="middle" x="443.5" y="-175.5" font-family="Helvetica,sans-Serif" font-size="10.00">include/kart_attributes.h</text>
</a>
</g>
</g>
<!-- Node2 -->
<g id="node2" class="node">
<title>Node2</title>
<g id="a_node2"><a xlink:href="code__8008C1D0_8c.html" target="_top" xlink:title=" ">
<polygon fill="white" stroke="black" points="0,-112.5 0,-131.5 121,-131.5 121,-112.5 0,-112.5"/>
<text text-anchor="middle" x="60.5" y="-119.5" font-family="Helvetica,sans-Serif" font-size="10.00">src/code_8008C1D0.c</text>
</a>
</g>
</g>
<!-- Node1&#45;&gt;Node2 -->
<g id="edge1" class="edge">
<title>Node1&#45;&gt;Node2</title>
<path fill="none" stroke="midnightblue" d="M372.87,-167.04C300.54,-156.84 189.28,-141.16 120.9,-131.52"/>
<polygon fill="midnightblue" stroke="midnightblue" points="372.42,-170.51 382.81,-168.44 373.4,-163.58 372.42,-170.51"/>
</g>
<!-- Node3 -->
<g id="node3" class="node">
<title>Node3</title>
<g id="a_node3"><a xlink:href="kart__attributes_8inc_8c.html" target="_top" xlink:title=" ">
<polygon fill="white" stroke="black" points="139,-112.5 139,-131.5 294,-131.5 294,-112.5 139,-112.5"/>
<text text-anchor="middle" x="216.5" y="-119.5" font-family="Helvetica,sans-Serif" font-size="10.00">src/data/kart_attributes.inc.c</text>
</a>
</g>
</g>
<!-- Node1&#45;&gt;Node3 -->
<g id="edge2" class="edge">
<title>Node1&#45;&gt;Node3</title>
<path fill="none" stroke="midnightblue" d="M397.63,-166.09C354.75,-155.89 291.58,-140.86 252.3,-131.52"/>
<polygon fill="midnightblue" stroke="midnightblue" points="396.99,-169.53 407.53,-168.44 398.61,-162.72 396.99,-169.53"/>
</g>
<!-- Node4 -->
<g id="node4" class="node">
<title>Node4</title>
<g id="a_node4"><a xlink:href="all__variables_8h.html" target="_top" xlink:title=" ">
<polygon fill="white" stroke="black" points="312.5,-112.5 312.5,-131.5 450.5,-131.5 450.5,-112.5 312.5,-112.5"/>
<text text-anchor="middle" x="381.5" y="-119.5" font-family="Helvetica,sans-Serif" font-size="10.00">src/debug/all_variables.h</text>
</a>
</g>
</g>
<!-- Node1&#45;&gt;Node4 -->
<g id="edge3" class="edge">
<title>Node1&#45;&gt;Node4</title>
<path fill="none" stroke="midnightblue" d="M425.75,-161.54C414.69,-151.91 400.87,-139.87 391.64,-131.83"/>
<polygon fill="midnightblue" stroke="midnightblue" points="423.7,-164.4 433.54,-168.32 428.3,-159.12 423.7,-164.4"/>
</g>
<!-- Node7 -->
<g id="node7" class="node">
<title>Node7</title>
<g id="a_node7"><a xlink:href="effects_8c.html" target="_top" xlink:title=" ">
<polygon fill="white" stroke="black" points="469,-112.5 469,-131.5 544,-131.5 544,-112.5 469,-112.5"/>
<text text-anchor="middle" x="506.5" y="-119.5" font-family="Helvetica,sans-Serif" font-size="10.00">src/effects.c</text>
</a>
</g>
</g>
<!-- Node1&#45;&gt;Node7 -->
<g id="edge6" class="edge">
<title>Node1&#45;&gt;Node7</title>
<path fill="none" stroke="midnightblue" d="M461.54,-161.54C472.77,-151.91 486.82,-139.87 496.19,-131.83"/>
<polygon fill="midnightblue" stroke="midnightblue" points="458.94,-159.16 453.62,-168.32 463.49,-164.47 458.94,-159.16"/>
</g>
<!-- Node8 -->
<g id="node8" class="node">
<title>Node8</title>
<g id="a_node8"><a xlink:href="player__controller_8c.html" target="_top" xlink:title=" ">
<polygon fill="white" stroke="black" points="561.5,-112.5 561.5,-131.5 685.5,-131.5 685.5,-112.5 561.5,-112.5"/>
<text text-anchor="middle" x="623.5" y="-119.5" font-family="Helvetica,sans-Serif" font-size="10.00">src/player_controller.c</text>
</a>
</g>
</g>
<!-- Node1&#45;&gt;Node8 -->
<g id="edge7" class="edge">
<title>Node1&#45;&gt;Node8</title>
<path fill="none" stroke="midnightblue" d="M481.61,-165.57C515.56,-155.38 564.49,-140.7 595.11,-131.52"/>
<polygon fill="midnightblue" stroke="midnightblue" points="480.59,-162.22 472.02,-168.44 482.61,-168.92 480.59,-162.22"/>
</g>
<!-- Node9 -->
<g id="node9" class="node">
<title>Node9</title>
<g id="a_node9"><a xlink:href="spawn__players_8c.html" target="_top" xlink:title=" ">
<polygon fill="white" stroke="black" points="704,-112.5 704,-131.5 819,-131.5 819,-112.5 704,-112.5"/>
<text text-anchor="middle" x="761.5" y="-119.5" font-family="Helvetica,sans-Serif" font-size="10.00">src/spawn_players.c</text>
</a>
</g>
</g>
<!-- Node1&#45;&gt;Node9 -->
<g id="edge8" class="edge">
<title>Node1&#45;&gt;Node9</title>
<path fill="none" stroke="midnightblue" d="M503.99,-166.73C564.09,-156.52 655.16,-141.06 711.35,-131.52"/>
<polygon fill="midnightblue" stroke="midnightblue" points="503.16,-163.32 493.89,-168.44 504.33,-170.22 503.16,-163.32"/>
</g>
<!-- Node5 -->
<g id="node5" class="node">
<title>Node5</title>
<g id="a_node5"><a xlink:href="debug_8inc_8c.html" target="_top" xlink:title=" ">
<polygon fill="white" stroke="black" points="320.5,-56.5 320.5,-75.5 442.5,-75.5 442.5,-56.5 320.5,-56.5"/>
<text text-anchor="middle" x="381.5" y="-63.5" font-family="Helvetica,sans-Serif" font-size="10.00">src/debug/debug.inc.c</text>
</a>
</g>
</g>
<!-- Node4&#45;&gt;Node5 -->
<g id="edge4" class="edge">
<title>Node4&#45;&gt;Node5</title>
<path fill="none" stroke="midnightblue" d="M381.5,-101.8C381.5,-92.91 381.5,-82.78 381.5,-75.75"/>
<polygon fill="midnightblue" stroke="midnightblue" points="378,-102.08 381.5,-112.08 385,-102.08 378,-102.08"/>
</g>
<!-- Node6 -->
<g id="node6" class="node">
<title>Node6</title>
<g id="a_node6"><a xlink:href="debug_8c.html" target="_top" xlink:title=" ">
<polygon fill="white" stroke="black" points="329,-0.5 329,-19.5 434,-19.5 434,-0.5 329,-0.5"/>
<text text-anchor="middle" x="381.5" y="-7.5" font-family="Helvetica,sans-Serif" font-size="10.00">src/debug/debug.c</text>
</a>
</g>
</g>
<!-- Node5&#45;&gt;Node6 -->
<g id="edge5" class="edge">
<title>Node5&#45;&gt;Node6</title>
<path fill="none" stroke="midnightblue" d="M381.5,-45.8C381.5,-36.91 381.5,-26.78 381.5,-19.75"/>
<polygon fill="midnightblue" stroke="midnightblue" points="378,-46.08 381.5,-56.08 385,-46.08 378,-46.08"/>
</g>
</g>
</svg>
