<?xml version="1.0" encoding="UTF-8" standalone="no"?>
<!DOCTYPE svg PUBLIC "-//W3C//DTD SVG 1.1//EN"
 "http://www.w3.org/Graphics/SVG/1.1/DTD/svg11.dtd">
<!-- Generated by graphviz version 2.43.0 (0)
 -->
<!-- Title: load_kart_palette Pages: 1 -->
<!--zoomable 374 -->

<svg id="main" version="1.1" xmlns="http://www.w3.org/2000/svg" xmlns:xlink="http://www.w3.org/1999/xlink" xml:space="preserve" onload="init(evt)">
<style type="text/css"><![CDATA[
.node, .edge {opacity: 0.7;}
.node.selected, .edge.selected {opacity: 1;}
.edge:hover path { stroke: red; }
.edge:hover polygon { stroke: red; fill: red; }
]]></style>

<defs>
  <circle id="rim" cx="0" cy="0" r="7"/>
  <circle id="rim2" cx="0" cy="0" r="3.5"/>
  <g id="zoomPlus">
    <use xlink:href="#rim" fill="#404040"><set attributeName="fill" to="#808080" begin="zoomplus.mouseover" end="zoomplus.mouseout"/></use>
    <path d="M-4,0h8M0,-4v8" fill="none" stroke="white" stroke-width="1.5" pointer-events="none"/>
  </g>
  <g id="zoomMin">
    <use xlink:href="#rim" fill="#404040"><set attributeName="fill" to="#808080" begin="zoomminus.mouseover" end="zoomminus.mouseout"/></use>
    <path d="M-4,0h8" fill="none" stroke="white" stroke-width="1.5" pointer-events="none"/>
  </g>
  <g id="arrowUp" transform="translate(30 24)">
    <use xlink:href="#rim"/>
    <path pointer-events="none" fill="none" stroke="white" stroke-width="1.5" d="M0,-3.0v7 M-2.5,-0.5L0,-3.0L2.5,-0.5"/>
  </g>
  <g id="arrowRight" transform="rotate(90) translate(36 -43)">
    <use xlink:href="#rim"/>
    <path pointer-events="none" fill="none" stroke="white" stroke-width="1.5" d="M0,-3.0v7 M-2.5,-0.5L0,-3.0L2.5,-0.5"/>
  </g>
  <g id="arrowDown" transform="rotate(180) translate(-30 -48)">
    <use xlink:href="#rim"/>
    <path pointer-events="none" fill="none" stroke="white" stroke-width="1.5" d="M0,-3.0v7 M-2.5,-0.5L0,-3.0L2.5,-0.5"/>
  </g>
  <g id="arrowLeft" transform="rotate(270) translate(-36 17)">
    <use xlink:href="#rim"/>
    <path pointer-events="none" fill="none" stroke="white" stroke-width="1.5" d="M0,-3.0v7 M-2.5,-0.5L0,-3.0L2.5,-0.5"/>
  </g>
  <g id="resetDef">
    <use xlink:href="#rim2" fill="#404040"><set attributeName="fill" to="#808080" begin="reset.mouseover" end="reset.mouseout"/></use>
  </g>
</defs>
<script type="application/ecmascript">
var viewWidth = 652;
var viewHeight = 374;
var sectionId = 'dynsection-2';
</script>
<script type="application/ecmascript" xlink:href="svg.min.js"/>
<svg id="graph" class="graph">
<g id="viewport">
<title>load_kart_palette</title>
<!-- Node1 -->
<g id="Node000001" class="node">
<title>Node1</title>
<g id="a_Node000001"><a xlink:title=" ">
<polygon fill="#999999" stroke="#666666" points="101,-261.65 0,-261.65 0,-242.65 101,-242.65 101,-261.65"/>
<text text-anchor="middle" x="50.5" y="-249.65" font-family="Helvetica,sans-Serif" font-size="10.00">load_kart_palette</text>
</a>
</g>
</g>
<!-- Node2 -->
<g id="Node000002" class="node">
<title>Node2</title>
<g id="a_Node000002"><a xlink:href="osPiStartDma_8c.html#ae288a36d96a4db6977d95327e246ec12" target="_top" xlink:title=" ">
<polygon fill="white" stroke="#666666" points="220,-242.65 137,-242.65 137,-223.65 220,-223.65 220,-242.65"/>
<text text-anchor="middle" x="178.5" y="-230.65" font-family="Helvetica,sans-Serif" font-size="10.00">osPiStartDma</text>
</a>
</g>
</g>
<!-- Node1&#45;&gt;Node2 -->
<g id="edge1_Node000001_Node000002" class="edge">
<title>Node1&#45;&gt;Node2</title>
<g id="a_edge1_Node000001_Node000002"><a xlink:title=" ">
<path fill="none" stroke="#63b8ff" d="M101.3,-244.64C109.71,-243.37 118.45,-242.06 126.88,-240.78"/>
<polygon fill="#63b8ff" stroke="#63b8ff" points="127.61,-244.22 136.97,-239.26 126.56,-237.29 127.61,-244.22"/>
</a>
</g>
</g>
<!-- Node13 -->
<g id="Node000013" class="node">
<title>Node13</title>
<g id="a_Node000013"><a xlink:href="osRecvMesg_8c.html#aa254dc33e373f235a99e17f7717493dc" target="_top" xlink:title=" ">
<polygon fill="white" stroke="#666666" points="349,-298.65 271,-298.65 271,-279.65 349,-279.65 349,-298.65"/>
<text text-anchor="middle" x="310" y="-286.65" font-family="Helvetica,sans-Serif" font-size="10.00">osRecvMesg</text>
</a>
</g>
</g>
<!-- Node1&#45;&gt;Node13 -->
<g id="edge21_Node000001_Node000013" class="edge">
<title>Node1&#45;&gt;Node13</title>
<g id="a_edge21_Node000001_Node000013"><a xlink:title=" ">
<path fill="none" stroke="#63b8ff" d="M101.15,-259.29C147.21,-265.9 215.32,-275.69 260.88,-282.24"/>
<polygon fill="#63b8ff" stroke="#63b8ff" points="260.42,-285.71 270.81,-283.67 261.41,-278.78 260.42,-285.71"/>
</a>
</g>
</g>
<!-- Node3 -->
<g id="Node000003" class="node">
<title>Node3</title>
<g id="a_Node000003"><a xlink:href="osJamMesg_8c.html#ac69f7738a5120910a2f6202d27fb44f4" target="_top" xlink:title=" ">
<polygon fill="white" stroke="#666666" points="346.5,-224.65 273.5,-224.65 273.5,-205.65 346.5,-205.65 346.5,-224.65"/>
<text text-anchor="middle" x="310" y="-212.65" font-family="Helvetica,sans-Serif" font-size="10.00">osJamMesg</text>
</a>
</g>
</g>
<!-- Node2&#45;&gt;Node3 -->
<g id="edge2_Node000002_Node000003" class="edge">
<title>Node2&#45;&gt;Node3</title>
<g id="a_edge2_Node000002_Node000003"><a xlink:title=" ">
<path fill="none" stroke="#63b8ff" d="M220.12,-227.51C233.85,-225.6 249.26,-223.45 263.36,-221.5"/>
<polygon fill="#63b8ff" stroke="#63b8ff" points="263.92,-224.95 273.34,-220.11 262.95,-218.02 263.92,-224.95"/>
</a>
</g>
</g>
<!-- Node11 -->
<g id="Node000011" class="node">
<title>Node11</title>
<g id="a_Node000011"><a xlink:href="osPiGetCmdQueue_8c.html#a758cb1b861d52fc7655d52ac7144ac88" target="_top" xlink:title=" ">
<polygon fill="white" stroke="#666666" points="364,-261.65 256,-261.65 256,-242.65 364,-242.65 364,-261.65"/>
<text text-anchor="middle" x="310" y="-249.65" font-family="Helvetica,sans-Serif" font-size="10.00">osPiGetCmdQueue</text>
</a>
</g>
</g>
<!-- Node2&#45;&gt;Node11 -->
<g id="edge14_Node000002_Node000011" class="edge">
<title>Node2&#45;&gt;Node11</title>
<g id="a_edge14_Node000002_Node000011"><a xlink:title=" ">
<path fill="none" stroke="#63b8ff" d="M220.12,-239.11C228.22,-240.3 236.92,-241.58 245.58,-242.85"/>
<polygon fill="#63b8ff" stroke="#63b8ff" points="245.29,-246.34 255.69,-244.33 246.3,-239.42 245.29,-246.34"/>
</a>
</g>
</g>
<!-- Node12 -->
<g id="Node000012" class="node">
<title>Node12</title>
<g id="a_Node000012"><a xlink:href="osSendMesg_8c.html#a413bd1b0a16c54dcc9e59c48b3d7f142" target="_top" xlink:title=" ">
<polygon fill="white" stroke="#666666" points="349,-187.65 271,-187.65 271,-168.65 349,-168.65 349,-187.65"/>
<text text-anchor="middle" x="310" y="-175.65" font-family="Helvetica,sans-Serif" font-size="10.00">osSendMesg</text>
</a>
</g>
</g>
<!-- Node2&#45;&gt;Node12 -->
<g id="edge15_Node000002_Node000012" class="edge">
<title>Node2&#45;&gt;Node12</title>
<g id="a_edge15_Node000002_Node000012"><a xlink:title=" ">
<path fill="none" stroke="#63b8ff" d="M197.76,-223.53C213.08,-215.65 235.66,-204.49 256,-196.15 260.21,-194.43 264.65,-192.73 269.1,-191.11"/>
<polygon fill="#63b8ff" stroke="#63b8ff" points="270.5,-194.33 278.77,-187.7 268.18,-187.73 270.5,-194.33"/>
</a>
</g>
</g>
<!-- Node4 -->
<g id="Node000004" class="node">
<title>Node4</title>
<g id="a_Node000004"><a xlink:href="libultra__internal_8h.html#a8ad9db8aa6bfc4437abdd0363b663b16" target="_top" xlink:title=" ">
<polygon fill="white" stroke="#666666" points="626.5,-357.65 538.5,-357.65 538.5,-338.65 626.5,-338.65 626.5,-357.65"/>
<text text-anchor="middle" x="582.5" y="-345.65" font-family="Helvetica,sans-Serif" font-size="10.00">__osDisableInt</text>
</a>
</g>
</g>
<!-- Node3&#45;&gt;Node4 -->
<g id="edge3_Node000003_Node000004" class="edge">
<title>Node3&#45;&gt;Node4</title>
<g id="a_edge3_Node000003_Node000004"><a xlink:title=" ">
<path fill="none" stroke="#63b8ff" d="M346.7,-222.19C353.09,-224.78 359.22,-228.32 364,-233.15 400.17,-269.73 358.77,-312.39 400,-343.15 439.51,-372.63 498.48,-367.96 538.39,-359.86"/>
<polygon fill="#63b8ff" stroke="#63b8ff" points="539.33,-363.24 548.35,-357.69 537.84,-356.4 539.33,-363.24"/>
</a>
</g>
</g>
<!-- Node5 -->
<g id="Node000005" class="node">
<title>Node5</title>
<g id="a_Node000005"><a xlink:href="libultra__internal_8h.html#afe9c3abc4ca93d9fe18a87d9f108d5cb" target="_top" xlink:title=" ">
<polygon fill="white" stroke="#666666" points="644,-74.65 521,-74.65 521,-55.65 644,-55.65 644,-74.65"/>
<text text-anchor="middle" x="582.5" y="-62.65" font-family="Helvetica,sans-Serif" font-size="10.00">__osEnqueueAndYield</text>
</a>
</g>
</g>
<!-- Node3&#45;&gt;Node5 -->
<g id="edge4_Node000003_Node000005" class="edge">
<title>Node3&#45;&gt;Node5</title>
<g id="a_edge4_Node000003_Node000005"><a xlink:title=" ">
<path fill="none" stroke="#63b8ff" d="M346.57,-206.43C352.82,-203.82 358.94,-200.46 364,-196.15 389.16,-174.76 374.89,-152.6 400,-131.15 432.77,-103.17 478.37,-86.65 515.67,-77.13"/>
<polygon fill="#63b8ff" stroke="#63b8ff" points="516.57,-80.52 525.46,-74.75 514.92,-73.71 516.57,-80.52"/>
</a>
</g>
</g>
<!-- Node6 -->
<g id="Node000006" class="node">
<title>Node6</title>
<g id="a_Node000006"><a xlink:href="libultra__internal_8h.html#aaadded63bebce6cfdda5ecda193fc9ea" target="_top" xlink:title=" ">
<polygon fill="white" stroke="#666666" points="627.5,-281.65 537.5,-281.65 537.5,-262.65 627.5,-262.65 627.5,-281.65"/>
<text text-anchor="middle" x="582.5" y="-269.65" font-family="Helvetica,sans-Serif" font-size="10.00">__osPopThread</text>
</a>
</g>
</g>
<!-- Node3&#45;&gt;Node6 -->
<g id="edge5_Node000003_Node000006" class="edge">
<title>Node3&#45;&gt;Node6</title>
<g id="a_edge5_Node000003_Node000006"><a xlink:title=" ">
<path fill="none" stroke="#63b8ff" d="M346.17,-224.71C352.32,-227.04 358.51,-229.84 364,-233.15 382.85,-244.51 379.66,-258.74 400,-267.15 440.2,-283.78 489.82,-283.93 527,-280.54"/>
<polygon fill="#63b8ff" stroke="#63b8ff" points="527.55,-284 537.15,-279.5 526.84,-277.04 527.55,-284"/>
</a>
</g>
</g>
<!-- Node7 -->
<g id="Node000007" class="node">
<title>Node7</title>
<g id="a_Node000007"><a xlink:href="libultra__internal_8h.html#aecafa57b85fd739d6033705808194def" target="_top" xlink:title=" ">
<polygon fill="white" stroke="#666666" points="627,-130.65 538,-130.65 538,-111.65 627,-111.65 627,-130.65"/>
<text text-anchor="middle" x="582.5" y="-118.65" font-family="Helvetica,sans-Serif" font-size="10.00">__osRestoreInt</text>
</a>
</g>
</g>
<!-- Node3&#45;&gt;Node7 -->
<g id="edge6_Node000003_Node000007" class="edge">
<title>Node3&#45;&gt;Node7</title>
<g id="a_edge6_Node000003_Node000007"><a xlink:title=" ">
<path fill="none" stroke="#63b8ff" d="M344.16,-205.56C350.96,-202.97 357.89,-199.84 364,-196.15 382.58,-184.94 380.79,-173.26 400,-163.15 439.89,-142.15 490.15,-131.56 527.67,-126.28"/>
<polygon fill="#63b8ff" stroke="#63b8ff" points="528.43,-129.71 537.89,-124.93 527.51,-122.77 528.43,-129.71"/>
</a>
</g>
</g>
<!-- Node8 -->
<g id="Node000008" class="node">
<title>Node8</title>
<g id="a_Node000008"><a xlink:href="osStartThread_8c.html#a3b144e814933e16a2fbf2642ad098ed3" target="_top" xlink:title=" ">
<polygon fill="white" stroke="#666666" points="485,-224.65 400,-224.65 400,-205.65 485,-205.65 485,-224.65"/>
<text text-anchor="middle" x="442.5" y="-212.65" font-family="Helvetica,sans-Serif" font-size="10.00">osStartThread</text>
</a>
</g>
</g>
<!-- Node3&#45;&gt;Node8 -->
<g id="edge7_Node000003_Node000008" class="edge">
<title>Node3&#45;&gt;Node8</title>
<g id="a_edge7_Node000003_Node000008"><a xlink:title=" ">
<path fill="none" stroke="#63b8ff" d="M346.66,-215.15C359.9,-215.15 375.2,-215.15 389.59,-215.15"/>
<polygon fill="#63b8ff" stroke="#63b8ff" points="389.87,-218.65 399.87,-215.15 389.87,-211.65 389.87,-218.65"/>
</a>
</g>
</g>
<!-- Node8&#45;&gt;Node4 -->
<g id="edge8_Node000008_Node000004" class="edge">
<title>Node8&#45;&gt;Node4</title>
<g id="a_edge8_Node000008_Node000004"><a xlink:title=" ">
<path fill="none" stroke="#63b8ff" d="M453.47,-225.05C468.16,-239.62 496.54,-267.65 521,-291.15 535.2,-304.8 551.46,-320.1 563.54,-331.41"/>
<polygon fill="#63b8ff" stroke="#63b8ff" points="561.47,-334.26 571.16,-338.53 566.25,-329.15 561.47,-334.26"/>
</a>
</g>
</g>
<!-- Node8&#45;&gt;Node5 -->
<g id="edge10_Node000008_Node000005" class="edge">
<title>Node8&#45;&gt;Node5</title>
<g id="a_edge10_Node000008_Node000005"><a xlink:title=" ">
<path fill="none" stroke="#63b8ff" d="M449.92,-205.56C467.69,-179.04 516.49,-106.43 521,-102.15 530.19,-93.43 541.76,-85.75 552.32,-79.67"/>
<polygon fill="#63b8ff" stroke="#63b8ff" points="554.17,-82.65 561.25,-74.76 550.8,-76.51 554.17,-82.65"/>
</a>
</g>
</g>
<!-- Node8&#45;&gt;Node6 -->
<g id="edge12_Node000008_Node000006" class="edge">
<title>Node8&#45;&gt;Node6</title>
<g id="a_edge12_Node000008_Node000006"><a xlink:title=" ">
<path fill="none" stroke="#63b8ff" d="M466.6,-224.69C489.09,-233.98 523.48,-248.19 548.78,-258.64"/>
<polygon fill="#63b8ff" stroke="#63b8ff" points="547.75,-262 558.33,-262.58 550.42,-255.53 547.75,-262"/>
</a>
</g>
</g>
<!-- Node8&#45;&gt;Node7 -->
<g id="edge13_Node000008_Node000007" class="edge">
<title>Node8&#45;&gt;Node7</title>
<g id="a_edge13_Node000008_Node000007"><a xlink:title=" ">
<path fill="none" stroke="#63b8ff" d="M461.77,-205.64C469.19,-201.51 477.71,-196.41 485,-191.15 502.35,-178.62 503.88,-172 521,-159.15 532.01,-150.89 544.83,-142.66 555.84,-135.97"/>
<polygon fill="#63b8ff" stroke="#63b8ff" points="557.78,-138.89 564.57,-130.76 554.19,-132.88 557.78,-138.89"/>
</a>
</g>
</g>
<!-- Node9 -->
<g id="Node000009" class="node">
<title>Node9</title>
<g id="a_Node000009"><a xlink:href="libultra__internal_8h.html#a650b788ebd5efde9c8cbccc1ee832445" target="_top" xlink:title=" ">
<polygon fill="white" stroke="#666666" points="640,-187.65 525,-187.65 525,-168.65 640,-168.65 640,-187.65"/>
<text text-anchor="middle" x="582.5" y="-175.65" font-family="Helvetica,sans-Serif" font-size="10.00">__osDispatchThread</text>
</a>
</g>
</g>
<!-- Node8&#45;&gt;Node9 -->
<g id="edge9_Node000008_Node000009" class="edge">
<title>Node8&#45;&gt;Node9</title>
<g id="a_edge9_Node000008_Node000009"><a xlink:title=" ">
<path fill="none" stroke="#63b8ff" d="M479.04,-205.62C496.37,-200.98 517.41,-195.33 535.91,-190.37"/>
<polygon fill="#63b8ff" stroke="#63b8ff" points="536.85,-193.75 545.6,-187.78 535.04,-186.99 536.85,-193.75"/>
</a>
</g>
</g>
<!-- Node10 -->
<g id="Node000010" class="node">
<title>Node10</title>
<g id="a_Node000010"><a xlink:href="libultra__internal_8h.html#ac9d6cfd19de5565e74f1d74a14e9092d" target="_top" xlink:title=" ">
<polygon fill="white" stroke="#666666" points="639.5,-224.65 525.5,-224.65 525.5,-205.65 639.5,-205.65 639.5,-224.65"/>
<text text-anchor="middle" x="582.5" y="-212.65" font-family="Helvetica,sans-Serif" font-size="10.00">__osEnqueueThread</text>
</a>
</g>
</g>
<!-- Node8&#45;&gt;Node10 -->
<g id="edge11_Node000008_Node000010" class="edge">
<title>Node8&#45;&gt;Node10</title>
<g id="a_edge11_Node000008_Node000010"><a xlink:title=" ">
<path fill="none" stroke="#63b8ff" d="M485.28,-215.15C494.74,-215.15 505.01,-215.15 515.21,-215.15"/>
<polygon fill="#63b8ff" stroke="#63b8ff" points="515.34,-218.65 525.34,-215.15 515.34,-211.65 515.34,-218.65"/>
</a>
</g>
</g>
<!-- Node12&#45;&gt;Node4 -->
<g id="edge16_Node000012_Node000004" class="edge">
<title>Node12&#45;&gt;Node4</title>
<g id="a_edge16_Node000012_Node000004"><a xlink:title=" ">
<path fill="none" stroke="#63b8ff" d="M349.06,-187.17C354.43,-189.52 359.61,-192.46 364,-196.15 389.57,-217.66 375.71,-239.21 400,-262.15 438.91,-298.91 496.41,-322.5 536.22,-335.51"/>
<polygon fill="#63b8ff" stroke="#63b8ff" points="535.34,-338.9 545.93,-338.59 537.46,-332.23 535.34,-338.9"/>
</a>
</g>
</g>
<!-- Node12&#45;&gt;Node5 -->
<g id="edge17_Node000012_Node000005" class="edge">
<title>Node12&#45;&gt;Node5</title>
<g id="a_edge17_Node000012_Node000005"><a xlink:title=" ">
<path fill="none" stroke="#63b8ff" d="M312.61,-168.65C318.23,-138.86 340,-47.16 400,-11.15 453.27,20.82 526.8,-23.84 561.65,-49.41"/>
<polygon fill="#63b8ff" stroke="#63b8ff" points="559.55,-52.21 569.64,-55.45 563.77,-46.63 559.55,-52.21"/>
</a>
</g>
</g>
<!-- Node12&#45;&gt;Node6 -->
<g id="edge18_Node000012_Node000006" class="edge">
<title>Node12&#45;&gt;Node6</title>
<g id="a_edge18_Node000012_Node000006"><a xlink:title=" ">
<path fill="none" stroke="#63b8ff" d="M346.84,-187.74C352.8,-190.05 358.74,-192.83 364,-196.15 383.4,-208.4 379.92,-222.04 400,-233.15 439.18,-254.83 489.29,-264.47 526.93,-268.74"/>
<polygon fill="#63b8ff" stroke="#63b8ff" points="526.89,-272.26 537.2,-269.81 527.61,-265.3 526.89,-272.26"/>
</a>
</g>
</g>
<!-- Node12&#45;&gt;Node7 -->
<g id="edge19_Node000012_Node000007" class="edge">
<title>Node12&#45;&gt;Node7</title>
<g id="a_edge19_Node000012_Node000007"><a xlink:title=" ">
<path fill="none" stroke="#63b8ff" d="M316.61,-168.57C328.8,-148.82 359.87,-104.03 400,-87.15 452.13,-65.22 518.6,-89.66 554.9,-106.98"/>
<polygon fill="#63b8ff" stroke="#63b8ff" points="553.78,-110.33 564.3,-111.63 556.89,-104.06 553.78,-110.33"/>
</a>
</g>
</g>
<!-- Node12&#45;&gt;Node8 -->
<g id="edge20_Node000012_Node000008" class="edge">
<title>Node12&#45;&gt;Node8</title>
<g id="a_edge20_Node000012_Node000008"><a xlink:title=" ">
<path fill="none" stroke="#63b8ff" d="M344.61,-187.68C360.77,-192.26 380.35,-197.81 397.66,-202.72"/>
<polygon fill="#63b8ff" stroke="#63b8ff" points="396.98,-206.17 407.55,-205.53 398.89,-199.43 396.98,-206.17"/>
</a>
</g>
</g>
<!-- Node13&#45;&gt;Node4 -->
<g id="edge22_Node000013_Node000004" class="edge">
<title>Node13&#45;&gt;Node4</title>
<g id="a_edge22_Node000013_Node000004"><a xlink:title=" ">
<path fill="none" stroke="#63b8ff" d="M334.82,-298.78C352.54,-305.61 377.46,-314.54 400,-320.15 442.38,-330.71 491.37,-337.98 527.76,-342.47"/>
<polygon fill="#63b8ff" stroke="#63b8ff" points="527.81,-346 538.15,-343.71 528.64,-339.05 527.81,-346"/>
</a>
</g>
</g>
<!-- Node13&#45;&gt;Node5 -->
<g id="edge23_Node000013_Node000005" class="edge">
<title>Node13&#45;&gt;Node5</title>
<g id="a_edge23_Node000013_Node000005"><a xlink:title=" ">
<path fill="none" stroke="#63b8ff" d="M349.24,-280.38C354.72,-277.8 359.88,-274.46 364,-270.15 401.58,-230.81 362.32,-192.4 400,-153.15 427.74,-124.25 448.76,-140.22 485,-123.15 492.39,-119.67 531.33,-95.97 557.43,-79.97"/>
<polygon fill="#63b8ff" stroke="#63b8ff" points="559.36,-82.89 566.05,-74.67 555.7,-76.92 559.36,-82.89"/>
</a>
</g>
</g>
<!-- Node13&#45;&gt;Node6 -->
<g id="edge24_Node000013_Node000006" class="edge">
<title>Node13&#45;&gt;Node6</title>
<g id="a_edge24_Node000013_Node000006"><a xlink:title=" ">
<path fill="none" stroke="#63b8ff" d="M349.22,-298.26C384.61,-305.37 438.62,-312.86 485,-305.15 507.65,-301.39 532.12,-292.97 550.75,-285.57"/>
<polygon fill="#63b8ff" stroke="#63b8ff" points="552.25,-288.74 560.18,-281.72 549.6,-282.26 552.25,-288.74"/>
</a>
</g>
</g>
<!-- Node13&#45;&gt;Node7 -->
<g id="edge25_Node000013_Node000007" class="edge">
<title>Node13&#45;&gt;Node7</title>
<g id="a_edge25_Node000013_Node000007"><a xlink:title=" ">
<path fill="none" stroke="#63b8ff" d="M349.23,-279.56C354.58,-277.09 359.71,-274 364,-270.15 391.23,-245.73 373.36,-221.21 400,-196.15 421.21,-176.19 494.95,-149.47 541.66,-133.9"/>
<polygon fill="#63b8ff" stroke="#63b8ff" points="542.79,-137.21 551.18,-130.75 540.59,-130.57 542.79,-137.21"/>
</a>
</g>
</g>
<!-- Node13&#45;&gt;Node8 -->
<g id="edge26_Node000013_Node000008" class="edge">
<title>Node13&#45;&gt;Node8</title>
<g id="a_edge26_Node000013_Node000008"><a xlink:title=" ">
<path fill="none" stroke="#63b8ff" d="M342.15,-279.58C349.48,-276.9 357.15,-273.72 364,-270.15 385.03,-259.18 406.89,-243.19 422.01,-231.27"/>
<polygon fill="#63b8ff" stroke="#63b8ff" points="424.46,-233.78 430.07,-224.79 420.08,-228.32 424.46,-233.78"/>
</a>
</g>
</g>
</g>
</svg>

<g id="navigator" transform="translate(0 0)" fill="#404254">
  <rect fill="#f2f5e9" fill-opacity="0.5" stroke="#606060" stroke-width=".5" x="0" y="0" width="60" height="60"/>
  <use id="zoomplus" xlink:href="#zoomPlus" x="17" y="9" onmousedown="handleZoom(evt,'in')"/>
  <use id="zoomminus" xlink:href="#zoomMin" x="42" y="9" onmousedown="handleZoom(evt,'out')"/>
  <use id="reset" xlink:href="#resetDef" x="30" y="36" onmousedown="handleReset()"/>
   <use id="arrowup" xlink:href="#arrowUp" x="0" y="0" onmousedown="handlePan(0,-1)"/>
  <use id="arrowright" xlink:href="#arrowRight" x="0" y="0" onmousedown="handlePan(1,0)"/>
  <use id="arrowdown" xlink:href="#arrowDown" x="0" y="0" onmousedown="handlePan(0,1)"/>
  <use id="arrowleft" xlink:href="#arrowLeft" x="0" y="0" onmousedown="handlePan(-1,0)"/>
</g>
<svg viewBox="0 0 15 15" width="100%" height="30px" preserveAspectRatio="xMaxYMin meet">
 <g id="arrow_out" transform="scale(0.3 0.3)">
  <a xlink:href="kart__dma_8h_ad3d273a75453c339737bb7e1fd0dc3f2_cgraph_org.svg" target="_base">
   <rect id="button" ry="5" rx="5" y="6" x="6" height="38" width="38"
        fill="#f2f5e9" fill-opacity="0.5" stroke="#606060" stroke-width="1.0"/>
   <path id="arrow"
     d="M 11.500037,31.436501 C 11.940474,20.09759 22.043105,11.32322 32.158766,21.979434 L 37.068811,17.246167 C 37.068811,17.246167 37.088388,32 37.088388,32 L 22.160133,31.978069 C 22.160133,31.978069 26.997745,27.140456 26.997745,27.140456 C 18.528582,18.264221 13.291696,25.230495 11.500037,31.436501 z"
     style="fill:#404040;"/>
  </a>
 </g>
</svg>

<style type='text/css'>
<![CDATA[
[data-mouse-over-selected='false'] { opacity: 0.7; }
[data-mouse-over-selected='true']  { opacity: 1.0; }
]]>
</style>
<script type="application/ecmascript"><![CDATA[
document.addEventListener('DOMContentLoaded', (event) => {
  highlightEdges();
  highlightAdjacentNodes();
});
]]></script>
</svg>
