<?xml version="1.0" encoding="UTF-8" standalone="no"?>
<!DOCTYPE svg PUBLIC "-//W3C//DTD SVG 1.1//EN"
 "http://www.w3.org/Graphics/SVG/1.1/DTD/svg11.dtd">
<!-- Generated by graphviz version 2.43.0 (0)
 -->
<!-- Title: func_800BB304 Pages: 1 -->
<!--zoomable 373 -->
<svg id="main" version="1.1" xmlns="http://www.w3.org/2000/svg" xmlns:xlink="http://www.w3.org/1999/xlink" xml:space="preserve" onload="init(evt)">
<style type="text/css"><![CDATA[
.edge:hover path { stroke: red; }
.edge:hover polygon { stroke: red; fill: red; }
]]></style>
<script type="text/javascript"><![CDATA[
var edges = document.getElementsByTagName('g');
if (edges && edges.length) {
  for (var i=0;i<edges.length;i++) {
    if (edges[i].id.substr(0,4)=='edge') {
      edges[i].setAttribute('class','edge');
    }
  }
}
]]></script>
        <defs>
                <circle id="rim" cx="0" cy="0" r="7"/>
                <circle id="rim2" cx="0" cy="0" r="3.5"/>
                <g id="zoomPlus">
                        <use xlink:href="#rim" fill="#404040">
                                <set attributeName="fill" to="#808080" begin="zoomplus.mouseover" end="zoomplus.mouseout"/>
                        </use>
                        <path d="M-4,0h8M0,-4v8" fill="none" stroke="white" stroke-width="1.5" pointer-events="none"/>
                </g>
                <g id="zoomMin">
                        <use xlink:href="#rim" fill="#404040">
                                <set attributeName="fill" to="#808080" begin="zoomminus.mouseover" end="zoomminus.mouseout"/>
                        </use>
                        <path d="M-4,0h8" fill="none" stroke="white" stroke-width="1.5" pointer-events="none"/>
                </g>
                <g id="dirArrow">
                        <path fill="none" stroke="white" stroke-width="1.5" d="M0,-3.0v7 M-2.5,-0.5L0,-3.0L2.5,-0.5"/>
                </g>
               <g id="resetDef">
                       <use xlink:href="#rim2" fill="#404040">
                               <set attributeName="fill" to="#808080" begin="reset.mouseover" end="reset.mouseout"/>
                       </use>
               </g>
        </defs>

<script type="text/javascript">
var viewWidth = 837;
var viewHeight = 373;
var sectionId = 'dynsection-14';
</script>
<script xlink:href="svgpan.js"/>
<svg id="graph" class="graph">
<g id="viewport">
<title>func_800BB304</title>
<polygon fill="white" stroke="transparent" points="-4,4 -4,-368.93 833,-368.93 833,4 -4,4"/>
<!-- Node1 -->
<g id="node1" class="node">
<title>Node1</title>
<g id="a_node1"><a xlink:title=" ">
<polygon fill="#bfbfbf" stroke="black" points="0,-227.41 0,-246.41 92,-246.41 92,-227.41 0,-227.41"/>
<text text-anchor="middle" x="46" y="-234.41" font-family="Helvetica,sans-Serif" font-size="10.00">func_800BB304</text>
</a>
</g>
</g>
<!-- Node2 -->
<g id="node2" class="node">
<title>Node2</title>
<g id="a_node2"><a xlink:href="load_8c.html#ae3317f7c4d592849e7c2e92ecb7777e0" target="_top" xlink:title=" ">
<polygon fill="white" stroke="black" points="128,-246.41 128,-265.41 286,-265.41 286,-246.41 128,-246.41"/>
<text text-anchor="middle" x="207" y="-253.41" font-family="Helvetica,sans-Serif" font-size="10.00">audio_dma_copy_immediate</text>
</a>
</g>
</g>
<!-- Node1&#45;&gt;Node2 -->
<g id="edge1" class="edge">
<title>Node1&#45;&gt;Node2</title>
<path fill="none" stroke="midnightblue" d="M92.14,-242.31C100.28,-243.28 109.01,-244.32 117.89,-245.38"/>
<polygon fill="midnightblue" stroke="midnightblue" points="117.6,-248.87 127.95,-246.59 118.43,-241.92 117.6,-248.87"/>
</g>
<!-- Node15 -->
<g id="node15" class="node">
<title>Node15</title>
<g id="a_node15"><a xlink:href="heap_8c.html#a505114204ee27fd64a9fbb255703cf9f" target="_top" xlink:title=" ">
<polygon fill="white" stroke="black" points="172,-208.41 172,-227.41 242,-227.41 242,-208.41 172,-208.41"/>
<text text-anchor="middle" x="207" y="-215.41" font-family="Helvetica,sans-Serif" font-size="10.00">soundAlloc</text>
</a>
</g>
</g>
<!-- Node1&#45;&gt;Node15 -->
<g id="edge28" class="edge">
<title>Node1&#45;&gt;Node15</title>
<path fill="none" stroke="midnightblue" d="M92.14,-231.52C114.01,-228.9 140.19,-225.78 161.92,-223.18"/>
<polygon fill="midnightblue" stroke="midnightblue" points="162.36,-226.65 171.88,-221.99 161.53,-219.7 162.36,-226.65"/>
</g>
<!-- Node3 -->
<g id="node3" class="node">
<title>Node3</title>
<g id="a_node3"><a xlink:href="osPiStartDma_8c.html#ae288a36d96a4db6977d95327e246ec12" target="_top" xlink:title=" ">
<polygon fill="white" stroke="black" points="322,-217.41 322,-236.41 405,-236.41 405,-217.41 322,-217.41"/>
<text text-anchor="middle" x="363.5" y="-224.41" font-family="Helvetica,sans-Serif" font-size="10.00">osPiStartDma</text>
</a>
</g>
</g>
<!-- Node2&#45;&gt;Node3 -->
<g id="edge2" class="edge">
<title>Node2&#45;&gt;Node3</title>
<path fill="none" stroke="midnightblue" d="M259.02,-246.34C275.9,-243.17 294.69,-239.64 311.57,-236.47"/>
<polygon fill="midnightblue" stroke="midnightblue" points="312.62,-239.84 321.8,-234.55 311.33,-232.96 312.62,-239.84"/>
</g>
<!-- Node14 -->
<g id="node14" class="node">
<title>Node14</title>
<g id="a_node14"><a xlink:href="crash__screen_8c.html#a4283cbf896ea7ca31653640f6dd237af" target="_top" xlink:title=" ">
<polygon fill="white" stroke="black" points="456,-284.41 456,-303.41 534,-303.41 534,-284.41 456,-284.41"/>
<text text-anchor="middle" x="495" y="-291.41" font-family="Helvetica,sans-Serif" font-size="10.00">osRecvMesg</text>
</a>
</g>
</g>
<!-- Node2&#45;&gt;Node14 -->
<g id="edge22" class="edge">
<title>Node2&#45;&gt;Node14</title>
<path fill="none" stroke="midnightblue" d="M279.8,-265.45C331.69,-272.35 400.36,-281.47 445.8,-287.51"/>
<polygon fill="midnightblue" stroke="midnightblue" points="445.6,-291.01 455.98,-288.86 446.52,-284.07 445.6,-291.01"/>
</g>
<!-- Node4 -->
<g id="node4" class="node">
<title>Node4</title>
<g id="a_node4"><a xlink:href="osJamMesg_8c.html#ac69f7738a5120910a2f6202d27fb44f4" target="_top" xlink:title=" ">
<polygon fill="white" stroke="black" points="458.5,-208.41 458.5,-227.41 531.5,-227.41 531.5,-208.41 458.5,-208.41"/>
<text text-anchor="middle" x="495" y="-215.41" font-family="Helvetica,sans-Serif" font-size="10.00">osJamMesg</text>
</a>
</g>
</g>
<!-- Node3&#45;&gt;Node4 -->
<g id="edge3" class="edge">
<title>Node3&#45;&gt;Node4</title>
<path fill="none" stroke="midnightblue" d="M405.12,-224.09C418.85,-223.14 434.26,-222.06 448.36,-221.08"/>
<polygon fill="midnightblue" stroke="midnightblue" points="448.61,-224.58 458.34,-220.39 448.12,-217.59 448.61,-224.58"/>
</g>
<!-- Node12 -->
<g id="node12" class="node">
<title>Node12</title>
<g id="a_node12"><a xlink:href="osPiGetCmdQueue_8c.html#a0fb5a57f9e199d8bb06e19ba556efac0" target="_top" xlink:title=" ">
<polygon fill="white" stroke="black" points="441,-246.41 441,-265.41 549,-265.41 549,-246.41 441,-246.41"/>
<text text-anchor="middle" x="495" y="-253.41" font-family="Helvetica,sans-Serif" font-size="10.00">osPiGetCmdQueue</text>
</a>
</g>
</g>
<!-- Node3&#45;&gt;Node12 -->
<g id="edge15" class="edge">
<title>Node3&#45;&gt;Node12</title>
<path fill="none" stroke="midnightblue" d="M405.12,-236.01C416.59,-238.58 429.25,-241.41 441.32,-244.12"/>
<polygon fill="midnightblue" stroke="midnightblue" points="440.76,-247.58 451.29,-246.35 442.29,-240.75 440.76,-247.58"/>
</g>
<!-- Node13 -->
<g id="node13" class="node">
<title>Node13</title>
<g id="a_node13"><a xlink:href="osSendMesg_8c.html#a413bd1b0a16c54dcc9e59c48b3d7f142" target="_top" xlink:title=" ">
<polygon fill="white" stroke="black" points="456,-170.41 456,-189.41 534,-189.41 534,-170.41 456,-170.41"/>
<text text-anchor="middle" x="495" y="-177.41" font-family="Helvetica,sans-Serif" font-size="10.00">osSendMesg</text>
</a>
</g>
</g>
<!-- Node3&#45;&gt;Node13 -->
<g id="edge16" class="edge">
<title>Node3&#45;&gt;Node13</title>
<path fill="none" stroke="midnightblue" d="M390.33,-217.41C405.15,-211.97 424.11,-205.03 441,-198.91 446.34,-196.98 451.99,-194.94 457.53,-192.95"/>
<polygon fill="midnightblue" stroke="midnightblue" points="459.07,-196.12 467.3,-189.45 456.7,-189.53 459.07,-196.12"/>
</g>
<!-- Node5 -->
<g id="node5" class="node">
<title>Node5</title>
<g id="a_node5"><a xlink:href="libultra__internal_8h.html#a8ad9db8aa6bfc4437abdd0363b663b16" target="_top" xlink:title=" ">
<polygon fill="white" stroke="black" points="723.5,-325.41 723.5,-344.41 811.5,-344.41 811.5,-325.41 723.5,-325.41"/>
<text text-anchor="middle" x="767.5" y="-332.41" font-family="Helvetica,sans-Serif" font-size="10.00">__osDisableInt</text>
</a>
</g>
</g>
<!-- Node4&#45;&gt;Node5 -->
<g id="edge4" class="edge">
<title>Node4&#45;&gt;Node5</title>
<path fill="none" stroke="midnightblue" d="M531.71,-225.67C538.1,-228.37 544.22,-232.01 549,-236.91 584.62,-273.44 543.65,-316.02 585,-345.91 629.01,-377.73 695.83,-361.82 734.93,-347.96"/>
<polygon fill="midnightblue" stroke="midnightblue" points="736.32,-351.17 744.48,-344.42 733.89,-344.61 736.32,-351.17"/>
</g>
<!-- Node6 -->
<g id="node6" class="node">
<title>Node6</title>
<g id="a_node6"><a xlink:href="libultra__internal_8h.html#afe9c3abc4ca93d9fe18a87d9f108d5cb" target="_top" xlink:title=" ">
<polygon fill="white" stroke="black" points="706,-29.41 706,-48.41 829,-48.41 829,-29.41 706,-29.41"/>
<text text-anchor="middle" x="767.5" y="-36.41" font-family="Helvetica,sans-Serif" font-size="10.00">__osEnqueueAndYield</text>
</a>
</g>
</g>
<!-- Node4&#45;&gt;Node6 -->
<g id="edge5" class="edge">
<title>Node4&#45;&gt;Node6</title>
<path fill="none" stroke="midnightblue" d="M531.76,-208.96C537.92,-206.38 543.95,-203.09 549,-198.91 573.26,-178.85 562.37,-159.79 585,-137.91 627.35,-96.98 689.98,-67.84 729.49,-52.2"/>
<polygon fill="midnightblue" stroke="midnightblue" points="730.95,-55.39 739.01,-48.52 728.42,-48.86 730.95,-55.39"/>
</g>
<!-- Node7 -->
<g id="node7" class="node">
<title>Node7</title>
<g id="a_node7"><a xlink:href="libultra__internal_8h.html#a82b6b8e6a4311b516950168ef4078e33" target="_top" xlink:title=" ">
<polygon fill="white" stroke="black" points="722.5,-280.41 722.5,-299.41 812.5,-299.41 812.5,-280.41 722.5,-280.41"/>
<text text-anchor="middle" x="767.5" y="-287.41" font-family="Helvetica,sans-Serif" font-size="10.00">__osPopThread</text>
</a>
</g>
</g>
<!-- Node4&#45;&gt;Node7 -->
<g id="edge6" class="edge">
<title>Node4&#45;&gt;Node7</title>
<path fill="none" stroke="midnightblue" d="M529.16,-227.51C535.96,-230.1 542.89,-233.23 549,-236.91 567.58,-248.13 565.23,-260.95 585,-269.91 624.98,-288.05 674.82,-292.41 712.15,-292.6"/>
<polygon fill="midnightblue" stroke="midnightblue" points="712.34,-296.1 722.32,-292.55 712.31,-289.1 712.34,-296.1"/>
</g>
<!-- Node8 -->
<g id="node8" class="node">
<title>Node8</title>
<g id="a_node8"><a xlink:href="libultra__internal_8h.html#aecafa57b85fd739d6033705808194def" target="_top" xlink:title=" ">
<polygon fill="white" stroke="black" points="723,-124.41 723,-143.41 812,-143.41 812,-124.41 723,-124.41"/>
<text text-anchor="middle" x="767.5" y="-131.41" font-family="Helvetica,sans-Serif" font-size="10.00">__osRestoreInt</text>
</a>
</g>
</g>
<!-- Node4&#45;&gt;Node8 -->
<g id="edge7" class="edge">
<title>Node4&#45;&gt;Node8</title>
<path fill="none" stroke="midnightblue" d="M529.16,-208.32C535.96,-205.73 542.89,-202.6 549,-198.91 567.58,-187.7 565.53,-175.51 585,-165.91 625,-146.18 675.25,-138.45 712.73,-135.5"/>
<polygon fill="midnightblue" stroke="midnightblue" points="713.21,-138.98 722.95,-134.79 712.73,-131.99 713.21,-138.98"/>
</g>
<!-- Node9 -->
<g id="node9" class="node">
<title>Node9</title>
<g id="a_node9"><a xlink:href="osStartThread_8c.html#a3b144e814933e16a2fbf2642ad098ed3" target="_top" xlink:title=" ">
<polygon fill="white" stroke="black" points="585,-208.41 585,-227.41 670,-227.41 670,-208.41 585,-208.41"/>
<text text-anchor="middle" x="627.5" y="-215.41" font-family="Helvetica,sans-Serif" font-size="10.00">osStartThread</text>
</a>
</g>
</g>
<!-- Node4&#45;&gt;Node9 -->
<g id="edge8" class="edge">
<title>Node4&#45;&gt;Node9</title>
<path fill="none" stroke="midnightblue" d="M531.66,-217.91C544.9,-217.91 560.2,-217.91 574.59,-217.91"/>
<polygon fill="midnightblue" stroke="midnightblue" points="574.87,-221.41 584.87,-217.91 574.87,-214.41 574.87,-221.41"/>
</g>
<!-- Node9&#45;&gt;Node5 -->
<g id="edge9" class="edge">
<title>Node9&#45;&gt;Node5</title>
<path fill="none" stroke="midnightblue" d="M634.42,-227.41C646.09,-245.49 673.77,-285.14 706,-308.91 712.53,-313.73 720.1,-317.88 727.62,-321.35"/>
<polygon fill="midnightblue" stroke="midnightblue" points="726.47,-324.67 737.04,-325.4 729.23,-318.24 726.47,-324.67"/>
</g>
<!-- Node9&#45;&gt;Node6 -->
<g id="edge11" class="edge">
<title>Node9&#45;&gt;Node6</title>
<path fill="none" stroke="midnightblue" d="M635.68,-208.19C649.26,-189.84 679.7,-148.89 706,-114.91 721.53,-94.85 739.71,-72.11 752.05,-56.78"/>
<polygon fill="midnightblue" stroke="midnightblue" points="755.03,-58.66 758.58,-48.68 749.58,-54.27 755.03,-58.66"/>
</g>
<!-- Node9&#45;&gt;Node7 -->
<g id="edge13" class="edge">
<title>Node9&#45;&gt;Node7</title>
<path fill="none" stroke="midnightblue" d="M646.83,-227.47C670.44,-239.79 711.69,-261.32 739.05,-275.59"/>
<polygon fill="midnightblue" stroke="midnightblue" points="737.61,-278.79 748.1,-280.31 740.85,-272.58 737.61,-278.79"/>
</g>
<!-- Node9&#45;&gt;Node8 -->
<g id="edge14" class="edge">
<title>Node9&#45;&gt;Node8</title>
<path fill="none" stroke="midnightblue" d="M645.53,-208.23C653.06,-203.9 662.01,-198.71 670,-193.91 695.12,-178.84 723.56,-161.07 743.03,-148.8"/>
<polygon fill="midnightblue" stroke="midnightblue" points="744.96,-151.72 751.55,-143.42 741.22,-145.8 744.96,-151.72"/>
</g>
<!-- Node10 -->
<g id="node10" class="node">
<title>Node10</title>
<g id="a_node10"><a xlink:href="libultra__internal_8h.html#a650b788ebd5efde9c8cbccc1ee832445" target="_top" xlink:title=" ">
<polygon fill="white" stroke="black" points="710,-190.41 710,-209.41 825,-209.41 825,-190.41 710,-190.41"/>
<text text-anchor="middle" x="767.5" y="-197.41" font-family="Helvetica,sans-Serif" font-size="10.00">__osDispatchThread</text>
</a>
</g>
</g>
<!-- Node9&#45;&gt;Node10 -->
<g id="edge10" class="edge">
<title>Node9&#45;&gt;Node10</title>
<path fill="none" stroke="midnightblue" d="M670.28,-212.46C679.62,-211.24 689.75,-209.92 699.82,-208.61"/>
<polygon fill="midnightblue" stroke="midnightblue" points="700.37,-212.07 709.84,-207.3 699.47,-205.13 700.37,-212.07"/>
</g>
<!-- Node11 -->
<g id="node11" class="node">
<title>Node11</title>
<g id="a_node11"><a xlink:href="libultra__internal_8h.html#ac9d6cfd19de5565e74f1d74a14e9092d" target="_top" xlink:title=" ">
<polygon fill="white" stroke="black" points="710.5,-228.41 710.5,-247.41 824.5,-247.41 824.5,-228.41 710.5,-228.41"/>
<text text-anchor="middle" x="767.5" y="-235.41" font-family="Helvetica,sans-Serif" font-size="10.00">__osEnqueueThread</text>
</a>
</g>
</g>
<!-- Node9&#45;&gt;Node11 -->
<g id="edge12" class="edge">
<title>Node9&#45;&gt;Node11</title>
<path fill="none" stroke="midnightblue" d="M670.28,-223.97C679.74,-225.34 690.01,-226.83 700.21,-228.3"/>
<polygon fill="midnightblue" stroke="midnightblue" points="699.94,-231.8 710.34,-229.77 700.95,-224.88 699.94,-231.8"/>
</g>
<!-- Node13&#45;&gt;Node5 -->
<g id="edge17" class="edge">
<title>Node13&#45;&gt;Node5</title>
<path fill="none" stroke="midnightblue" d="M533.52,-189.44C539.09,-191.93 544.47,-195.04 549,-198.91 574.39,-220.64 559.87,-242.89 585,-264.91 621.44,-296.86 674.07,-314.99 713.27,-324.75"/>
<polygon fill="midnightblue" stroke="midnightblue" points="712.65,-328.2 723.19,-327.11 714.27,-321.39 712.65,-328.2"/>
</g>
<!-- Node13&#45;&gt;Node6 -->
<g id="edge18" class="edge">
<title>Node13&#45;&gt;Node6</title>
<path fill="none" stroke="midnightblue" d="M497.71,-170.04C503.52,-139.99 525.52,-49.51 585,-13.91 633.35,15.03 701.71,-8.06 739.22,-25.03"/>
<polygon fill="midnightblue" stroke="midnightblue" points="737.97,-28.3 748.5,-29.39 740.94,-21.97 737.97,-28.3"/>
</g>
<!-- Node13&#45;&gt;Node7 -->
<g id="edge19" class="edge">
<title>Node13&#45;&gt;Node7</title>
<path fill="none" stroke="midnightblue" d="M530.21,-189.5C536.71,-192.06 543.27,-195.17 549,-198.91 568.48,-211.63 565.15,-224.79 585,-236.91 606.79,-250.22 669.14,-266.93 714.69,-277.99"/>
<polygon fill="midnightblue" stroke="midnightblue" points="713.88,-281.4 724.42,-280.33 715.52,-274.59 713.88,-281.4"/>
</g>
<!-- Node13&#45;&gt;Node8 -->
<g id="edge20" class="edge">
<title>Node13&#45;&gt;Node8</title>
<path fill="none" stroke="midnightblue" d="M501.83,-170.13C514.2,-150.45 545.25,-106.51 585,-89.91 639.38,-67.21 708.03,-98.92 743.28,-119.23"/>
<polygon fill="midnightblue" stroke="midnightblue" points="741.51,-122.25 751.89,-124.35 745.09,-116.23 741.51,-122.25"/>
</g>
<!-- Node13&#45;&gt;Node9 -->
<g id="edge21" class="edge">
<title>Node13&#45;&gt;Node9</title>
<path fill="none" stroke="midnightblue" d="M528.93,-189.5C545.62,-194.36 566.09,-200.32 583.96,-205.53"/>
<polygon fill="midnightblue" stroke="midnightblue" points="583,-208.89 593.58,-208.33 584.96,-202.17 583,-208.89"/>
</g>
<!-- Node14&#45;&gt;Node5 -->
<g id="edge23" class="edge">
<title>Node14&#45;&gt;Node5</title>
<path fill="none" stroke="midnightblue" d="M519.75,-303.44C537.44,-310.1 562.34,-318.54 585,-322.91 627.47,-331.1 676.46,-333.96 712.83,-334.85"/>
<polygon fill="midnightblue" stroke="midnightblue" points="713.14,-338.36 723.21,-335.06 713.28,-331.36 713.14,-338.36"/>
</g>
<!-- Node14&#45;&gt;Node6 -->
<g id="edge24" class="edge">
<title>Node14&#45;&gt;Node6</title>
<path fill="none" stroke="midnightblue" d="M534.23,-285.13C539.71,-282.55 544.88,-279.22 549,-274.91 586.34,-235.92 548.58,-198.76 585,-158.91 612.56,-128.76 635.31,-145.49 670,-123.91 701.38,-104.4 732.52,-74.59 750.61,-55.95"/>
<polygon fill="midnightblue" stroke="midnightblue" points="753.37,-58.13 757.75,-48.48 748.31,-53.3 753.37,-58.13"/>
</g>
<!-- Node14&#45;&gt;Node7 -->
<g id="edge25" class="edge">
<title>Node14&#45;&gt;Node7</title>
<path fill="none" stroke="midnightblue" d="M534.4,-301.29C550.03,-303.95 568.31,-306.61 585,-307.91 622.66,-310.86 632.38,-311.39 670,-307.91 684.47,-306.57 700.02,-304.13 714.31,-301.46"/>
<polygon fill="midnightblue" stroke="midnightblue" points="715.31,-304.84 724.46,-299.5 713.98,-297.96 715.31,-304.84"/>
</g>
<!-- Node14&#45;&gt;Node8 -->
<g id="edge26" class="edge">
<title>Node14&#45;&gt;Node8</title>
<path fill="none" stroke="midnightblue" d="M534.26,-284.36C539.61,-281.88 544.73,-278.79 549,-274.91 576.69,-249.81 557.3,-224.01 585,-198.91 605.16,-180.64 672.91,-159.37 719.68,-146.27"/>
<polygon fill="midnightblue" stroke="midnightblue" points="720.9,-149.56 729.61,-143.52 719.04,-142.81 720.9,-149.56"/>
</g>
<!-- Node14&#45;&gt;Node9 -->
<g id="edge27" class="edge">
<title>Node14&#45;&gt;Node9</title>
<path fill="none" stroke="midnightblue" d="M527.48,-284.33C534.72,-281.66 542.27,-278.5 549,-274.91 570.44,-263.5 592.54,-246.65 607.62,-234.23"/>
<polygon fill="midnightblue" stroke="midnightblue" points="610.23,-236.62 615.64,-227.51 605.73,-231.26 610.23,-236.62"/>
</g>
</g>
</svg>
        <g id="navigator" transform="translate(0 0)" fill="#404254">
                <rect fill="#f2f5e9" fill-opacity="0.5" stroke="#606060" stroke-width=".5" x="0" y="0" width="60" height="60"/>
                <use id="zoomplus" xlink:href="#zoomPlus" x="17" y="9" onmousedown="handleZoom(evt,'in')"/>
                <use id="zoomminus" xlink:href="#zoomMin" x="42" y="9" onmousedown="handleZoom(evt,'out')"/>
                <use id="reset" xlink:href="#resetDef" x="30" y="36" onmousedown="handleReset()"/>
                <g id="arrowUp" xlink:href="#dirArrow" transform="translate(30 24)" onmousedown="handlePan(0,-1)">
                  <use xlink:href="#rim" fill="#404040">
                        <set attributeName="fill" to="#808080" begin="arrowUp.mouseover" end="arrowUp.mouseout"/>
                  </use>
                  <path fill="none" stroke="white" stroke-width="1.5" d="M0,-3.0v7 M-2.5,-0.5L0,-3.0L2.5,-0.5"/>
                </g>
                <g id="arrowRight" xlink:href="#dirArrow" transform="rotate(90) translate(36 -43)" onmousedown="handlePan(1,0)">
                  <use xlink:href="#rim" fill="#404040">
                        <set attributeName="fill" to="#808080" begin="arrowRight.mouseover" end="arrowRight.mouseout"/>
                  </use>
                  <path fill="none" stroke="white" stroke-width="1.5" d="M0,-3.0v7 M-2.5,-0.5L0,-3.0L2.5,-0.5"/>
                </g>
                <g id="arrowDown" xlink:href="#dirArrow" transform="rotate(180) translate(-30 -48)" onmousedown="handlePan(0,1)">
                  <use xlink:href="#rim" fill="#404040">
                        <set attributeName="fill" to="#808080" begin="arrowDown.mouseover" end="arrowDown.mouseout"/>
                  </use>
                  <path fill="none" stroke="white" stroke-width="1.5" d="M0,-3.0v7 M-2.5,-0.5L0,-3.0L2.5,-0.5"/>
                </g>
                <g id="arrowLeft" xlink:href="#dirArrow" transform="rotate(270) translate(-36 17)" onmousedown="handlePan(-1,0)">
                  <use xlink:href="#rim" fill="#404040">
                        <set attributeName="fill" to="#808080" begin="arrowLeft.mouseover" end="arrowLeft.mouseout"/>
                  </use>
                  <path fill="none" stroke="white" stroke-width="1.5" d="M0,-3.0v7 M-2.5,-0.5L0,-3.0L2.5,-0.5"/>
                </g>
        </g>
        <svg viewBox="0 0 15 15" width="100%" height="30px" preserveAspectRatio="xMaxYMin meet">
         <g id="arrow_out" transform="scale(0.3 0.3)">
          <a xlink:href="load_8h_ab944c1cb0080ee472b4134755f626171_cgraph_org.svg" target="_base">
           <rect id="button" ry="5" rx="5" y="6" x="6" height="38" width="38"
                fill="#f2f5e9" fill-opacity="0.5" stroke="#606060" stroke-width="1.0"/>
           <path id="arrow"
             d="M 11.500037,31.436501 C 11.940474,20.09759 22.043105,11.32322 32.158766,21.979434 L 37.068811,17.246167 C 37.068811,17.246167 37.088388,32 37.088388,32 L 22.160133,31.978069 C 22.160133,31.978069 26.997745,27.140456 26.997745,27.140456 C 18.528582,18.264221 13.291696,25.230495 11.500037,31.436501 z"
             style="fill:#404040;"/>
          </a>
         </g>
        </svg>
</svg>
