<?xml version="1.0" encoding="UTF-8" standalone="no"?>
<!DOCTYPE svg PUBLIC "-//W3C//DTD SVG 1.1//EN"
 "http://www.w3.org/Graphics/SVG/1.1/DTD/svg11.dtd">
<!-- Generated by graphviz version 2.43.0 (0)
 -->
<!-- Title: func_800BB584 Pages: 1 -->
<!--zoomable 373 -->
<svg id="main" version="1.1" xmlns="http://www.w3.org/2000/svg" xmlns:xlink="http://www.w3.org/1999/xlink" xml:space="preserve" onload="init(evt)">
<style type="text/css"><![CDATA[
.edge:hover path { stroke: red; }
.edge:hover polygon { stroke: red; fill: red; }
]]></style>
<script type="text/javascript"><![CDATA[
var edges = document.getElementsByTagName('g');
if (edges && edges.length) {
  for (var i=0;i<edges.length;i++) {
    if (edges[i].id.substr(0,4)=='edge') {
      edges[i].setAttribute('class','edge');
    }
  }
}
]]></script>
        <defs>
                <circle id="rim" cx="0" cy="0" r="7"/>
                <circle id="rim2" cx="0" cy="0" r="3.5"/>
                <g id="zoomPlus">
                        <use xlink:href="#rim" fill="#404040">
                                <set attributeName="fill" to="#808080" begin="zoomplus.mouseover" end="zoomplus.mouseout"/>
                        </use>
                        <path d="M-4,0h8M0,-4v8" fill="none" stroke="white" stroke-width="1.5" pointer-events="none"/>
                </g>
                <g id="zoomMin">
                        <use xlink:href="#rim" fill="#404040">
                                <set attributeName="fill" to="#808080" begin="zoomminus.mouseover" end="zoomminus.mouseout"/>
                        </use>
                        <path d="M-4,0h8" fill="none" stroke="white" stroke-width="1.5" pointer-events="none"/>
                </g>
                <g id="dirArrow">
                        <path fill="none" stroke="white" stroke-width="1.5" d="M0,-3.0v7 M-2.5,-0.5L0,-3.0L2.5,-0.5"/>
                </g>
               <g id="resetDef">
                       <use xlink:href="#rim2" fill="#404040">
                               <set attributeName="fill" to="#808080" begin="reset.mouseover" end="reset.mouseout"/>
                       </use>
               </g>
        </defs>

<script type="text/javascript">
var viewWidth = 1092;
var viewHeight = 373;
var sectionId = 'dynsection-18';
</script>
<script xlink:href="svgpan.js"/>
<svg id="graph" class="graph">
<g id="viewport">
<title>func_800BB584</title>
<polygon fill="white" stroke="transparent" points="-4,4 -4,-368.93 1088,-368.93 1088,4 -4,4"/>
<!-- Node1 -->
<g id="node1" class="node">
<title>Node1</title>
<g id="a_node1"><a xlink:title=" ">
<polygon fill="#bfbfbf" stroke="black" points="0,-227.41 0,-246.41 92,-246.41 92,-227.41 0,-227.41"/>
<text text-anchor="middle" x="46" y="-234.41" font-family="Helvetica,sans-Serif" font-size="10.00">func_800BB584</text>
</a>
</g>
</g>
<!-- Node2 -->
<g id="node2" class="node">
<title>Node2</title>
<g id="a_node2"><a xlink:href="load_8c.html#a1a5cff71e5c10ffbe459f2a317fc5005" target="_top" xlink:title=" ">
<polygon fill="white" stroke="black" points="128,-227.41 128,-246.41 233,-246.41 233,-227.41 128,-227.41"/>
<text text-anchor="middle" x="180.5" y="-234.41" font-family="Helvetica,sans-Serif" font-size="10.00">patch_audio_bank</text>
</a>
</g>
</g>
<!-- Node1&#45;&gt;Node2 -->
<g id="edge1" class="edge">
<title>Node1&#45;&gt;Node2</title>
<path fill="none" stroke="midnightblue" d="M92.23,-236.91C100.33,-236.91 108.9,-236.91 117.38,-236.91"/>
<polygon fill="midnightblue" stroke="midnightblue" points="117.64,-240.41 127.64,-236.91 117.64,-233.41 117.64,-240.41"/>
</g>
<!-- Node3 -->
<g id="node3" class="node">
<title>Node3</title>
<g id="a_node3"><a xlink:href="load_8c.html#acbb441247e4f7d446c35a14bd75b61d6" target="_top" xlink:title=" ">
<polygon fill="white" stroke="black" points="269,-227.41 269,-246.41 347,-246.41 347,-227.41 269,-227.41"/>
<text text-anchor="middle" x="308" y="-234.41" font-family="Helvetica,sans-Serif" font-size="10.00">patch_sound</text>
</a>
</g>
</g>
<!-- Node2&#45;&gt;Node3 -->
<g id="edge2" class="edge">
<title>Node2&#45;&gt;Node3</title>
<path fill="none" stroke="midnightblue" d="M233.27,-236.91C241.63,-236.91 250.25,-236.91 258.52,-236.91"/>
<polygon fill="midnightblue" stroke="midnightblue" points="258.77,-240.41 268.77,-236.91 258.77,-233.41 258.77,-240.41"/>
</g>
<!-- Node4 -->
<g id="node4" class="node">
<title>Node4</title>
<g id="a_node4"><a xlink:href="load_8c.html#ae3317f7c4d592849e7c2e92ecb7777e0" target="_top" xlink:title=" ">
<polygon fill="white" stroke="black" points="383,-246.41 383,-265.41 541,-265.41 541,-246.41 383,-246.41"/>
<text text-anchor="middle" x="462" y="-253.41" font-family="Helvetica,sans-Serif" font-size="10.00">audio_dma_copy_immediate</text>
</a>
</g>
</g>
<!-- Node3&#45;&gt;Node4 -->
<g id="edge3" class="edge">
<title>Node3&#45;&gt;Node4</title>
<path fill="none" stroke="midnightblue" d="M347.36,-241.71C355.84,-242.77 365.16,-243.93 374.71,-245.13"/>
<polygon fill="midnightblue" stroke="midnightblue" points="374.35,-248.61 384.71,-246.38 375.22,-241.66 374.35,-248.61"/>
</g>
<!-- Node17 -->
<g id="node17" class="node">
<title>Node17</title>
<g id="a_node17"><a xlink:href="heap_8c.html#a505114204ee27fd64a9fbb255703cf9f" target="_top" xlink:title=" ">
<polygon fill="white" stroke="black" points="427,-208.41 427,-227.41 497,-227.41 497,-208.41 427,-208.41"/>
<text text-anchor="middle" x="462" y="-215.41" font-family="Helvetica,sans-Serif" font-size="10.00">soundAlloc</text>
</a>
</g>
</g>
<!-- Node3&#45;&gt;Node17 -->
<g id="edge30" class="edge">
<title>Node3&#45;&gt;Node17</title>
<path fill="none" stroke="midnightblue" d="M347.36,-232.12C368.46,-229.48 394.75,-226.19 416.73,-223.45"/>
<polygon fill="midnightblue" stroke="midnightblue" points="417.32,-226.9 426.81,-222.19 416.45,-219.95 417.32,-226.9"/>
</g>
<!-- Node5 -->
<g id="node5" class="node">
<title>Node5</title>
<g id="a_node5"><a xlink:href="code__80071F00_8h.html#ae288a36d96a4db6977d95327e246ec12" target="_top" xlink:title=" ">
<polygon fill="white" stroke="black" points="577,-217.41 577,-236.41 660,-236.41 660,-217.41 577,-217.41"/>
<text text-anchor="middle" x="618.5" y="-224.41" font-family="Helvetica,sans-Serif" font-size="10.00">osPiStartDma</text>
</a>
</g>
</g>
<!-- Node4&#45;&gt;Node5 -->
<g id="edge4" class="edge">
<title>Node4&#45;&gt;Node5</title>
<path fill="none" stroke="midnightblue" d="M514.02,-246.34C530.9,-243.17 549.69,-239.64 566.57,-236.47"/>
<polygon fill="midnightblue" stroke="midnightblue" points="567.62,-239.84 576.8,-234.55 566.33,-232.96 567.62,-239.84"/>
</g>
<!-- Node16 -->
<g id="node16" class="node">
<title>Node16</title>
<g id="a_node16"><a xlink:href="code__80071F00_8h.html#a4283cbf896ea7ca31653640f6dd237af" target="_top" xlink:title=" ">
<polygon fill="white" stroke="black" points="711,-284.41 711,-303.41 789,-303.41 789,-284.41 711,-284.41"/>
<text text-anchor="middle" x="750" y="-291.41" font-family="Helvetica,sans-Serif" font-size="10.00">osRecvMesg</text>
</a>
</g>
</g>
<!-- Node4&#45;&gt;Node16 -->
<g id="edge24" class="edge">
<title>Node4&#45;&gt;Node16</title>
<path fill="none" stroke="midnightblue" d="M534.8,-265.45C586.69,-272.35 655.36,-281.47 700.8,-287.51"/>
<polygon fill="midnightblue" stroke="midnightblue" points="700.6,-291.01 710.98,-288.86 701.52,-284.07 700.6,-291.01"/>
</g>
<!-- Node6 -->
<g id="node6" class="node">
<title>Node6</title>
<g id="a_node6"><a xlink:href="osJamMesg_8c.html#ac69f7738a5120910a2f6202d27fb44f4" target="_top" xlink:title=" ">
<polygon fill="white" stroke="black" points="713.5,-208.41 713.5,-227.41 786.5,-227.41 786.5,-208.41 713.5,-208.41"/>
<text text-anchor="middle" x="750" y="-215.41" font-family="Helvetica,sans-Serif" font-size="10.00">osJamMesg</text>
</a>
</g>
</g>
<!-- Node5&#45;&gt;Node6 -->
<g id="edge5" class="edge">
<title>Node5&#45;&gt;Node6</title>
<path fill="none" stroke="midnightblue" d="M660.12,-224.09C673.85,-223.14 689.26,-222.06 703.36,-221.08"/>
<polygon fill="midnightblue" stroke="midnightblue" points="703.61,-224.58 713.34,-220.39 703.12,-217.59 703.61,-224.58"/>
</g>
<!-- Node14 -->
<g id="node14" class="node">
<title>Node14</title>
<g id="a_node14"><a xlink:href="osPiGetCmdQueue_8c.html#a0fb5a57f9e199d8bb06e19ba556efac0" target="_top" xlink:title=" ">
<polygon fill="white" stroke="black" points="696,-246.41 696,-265.41 804,-265.41 804,-246.41 696,-246.41"/>
<text text-anchor="middle" x="750" y="-253.41" font-family="Helvetica,sans-Serif" font-size="10.00">osPiGetCmdQueue</text>
</a>
</g>
</g>
<!-- Node5&#45;&gt;Node14 -->
<g id="edge17" class="edge">
<title>Node5&#45;&gt;Node14</title>
<path fill="none" stroke="midnightblue" d="M660.12,-236.01C671.59,-238.58 684.25,-241.41 696.32,-244.12"/>
<polygon fill="midnightblue" stroke="midnightblue" points="695.76,-247.58 706.29,-246.35 697.29,-240.75 695.76,-247.58"/>
</g>
<!-- Node15 -->
<g id="node15" class="node">
<title>Node15</title>
<g id="a_node15"><a xlink:href="osSendMesg_8c.html#a413bd1b0a16c54dcc9e59c48b3d7f142" target="_top" xlink:title=" ">
<polygon fill="white" stroke="black" points="711,-170.41 711,-189.41 789,-189.41 789,-170.41 711,-170.41"/>
<text text-anchor="middle" x="750" y="-177.41" font-family="Helvetica,sans-Serif" font-size="10.00">osSendMesg</text>
</a>
</g>
</g>
<!-- Node5&#45;&gt;Node15 -->
<g id="edge18" class="edge">
<title>Node5&#45;&gt;Node15</title>
<path fill="none" stroke="midnightblue" d="M645.33,-217.41C660.15,-211.97 679.11,-205.03 696,-198.91 701.34,-196.98 706.99,-194.94 712.53,-192.95"/>
<polygon fill="midnightblue" stroke="midnightblue" points="714.07,-196.12 722.3,-189.45 711.7,-189.53 714.07,-196.12"/>
</g>
<!-- Node7 -->
<g id="node7" class="node">
<title>Node7</title>
<g id="a_node7"><a xlink:href="libultra__internal_8h.html#a8ad9db8aa6bfc4437abdd0363b663b16" target="_top" xlink:title=" ">
<polygon fill="white" stroke="black" points="978.5,-325.41 978.5,-344.41 1066.5,-344.41 1066.5,-325.41 978.5,-325.41"/>
<text text-anchor="middle" x="1022.5" y="-332.41" font-family="Helvetica,sans-Serif" font-size="10.00">__osDisableInt</text>
</a>
</g>
</g>
<!-- Node6&#45;&gt;Node7 -->
<g id="edge6" class="edge">
<title>Node6&#45;&gt;Node7</title>
<path fill="none" stroke="midnightblue" d="M786.71,-225.67C793.1,-228.37 799.22,-232.01 804,-236.91 839.62,-273.44 798.65,-316.02 840,-345.91 884.01,-377.73 950.83,-361.82 989.93,-347.96"/>
<polygon fill="midnightblue" stroke="midnightblue" points="991.32,-351.17 999.48,-344.42 988.89,-344.61 991.32,-351.17"/>
</g>
<!-- Node8 -->
<g id="node8" class="node">
<title>Node8</title>
<g id="a_node8"><a xlink:href="libultra__internal_8h.html#afe9c3abc4ca93d9fe18a87d9f108d5cb" target="_top" xlink:title=" ">
<polygon fill="white" stroke="black" points="961,-29.41 961,-48.41 1084,-48.41 1084,-29.41 961,-29.41"/>
<text text-anchor="middle" x="1022.5" y="-36.41" font-family="Helvetica,sans-Serif" font-size="10.00">__osEnqueueAndYield</text>
</a>
</g>
</g>
<!-- Node6&#45;&gt;Node8 -->
<g id="edge7" class="edge">
<title>Node6&#45;&gt;Node8</title>
<path fill="none" stroke="midnightblue" d="M786.76,-208.96C792.92,-206.38 798.95,-203.09 804,-198.91 828.26,-178.85 817.37,-159.79 840,-137.91 882.35,-96.98 944.98,-67.84 984.49,-52.2"/>
<polygon fill="midnightblue" stroke="midnightblue" points="985.95,-55.39 994.01,-48.52 983.42,-48.86 985.95,-55.39"/>
</g>
<!-- Node9 -->
<g id="node9" class="node">
<title>Node9</title>
<g id="a_node9"><a xlink:href="libultra__internal_8h.html#a82b6b8e6a4311b516950168ef4078e33" target="_top" xlink:title=" ">
<polygon fill="white" stroke="black" points="977.5,-280.41 977.5,-299.41 1067.5,-299.41 1067.5,-280.41 977.5,-280.41"/>
<text text-anchor="middle" x="1022.5" y="-287.41" font-family="Helvetica,sans-Serif" font-size="10.00">__osPopThread</text>
</a>
</g>
</g>
<!-- Node6&#45;&gt;Node9 -->
<g id="edge8" class="edge">
<title>Node6&#45;&gt;Node9</title>
<path fill="none" stroke="midnightblue" d="M784.16,-227.51C790.96,-230.1 797.89,-233.23 804,-236.91 822.58,-248.13 820.23,-260.95 840,-269.91 879.98,-288.05 929.82,-292.41 967.15,-292.6"/>
<polygon fill="midnightblue" stroke="midnightblue" points="967.34,-296.1 977.32,-292.55 967.31,-289.1 967.34,-296.1"/>
</g>
<!-- Node10 -->
<g id="node10" class="node">
<title>Node10</title>
<g id="a_node10"><a xlink:href="libultra__internal_8h.html#aecafa57b85fd739d6033705808194def" target="_top" xlink:title=" ">
<polygon fill="white" stroke="black" points="978,-124.41 978,-143.41 1067,-143.41 1067,-124.41 978,-124.41"/>
<text text-anchor="middle" x="1022.5" y="-131.41" font-family="Helvetica,sans-Serif" font-size="10.00">__osRestoreInt</text>
</a>
</g>
</g>
<!-- Node6&#45;&gt;Node10 -->
<g id="edge9" class="edge">
<title>Node6&#45;&gt;Node10</title>
<path fill="none" stroke="midnightblue" d="M784.16,-208.32C790.96,-205.73 797.89,-202.6 804,-198.91 822.58,-187.7 820.53,-175.51 840,-165.91 880,-146.18 930.25,-138.45 967.73,-135.5"/>
<polygon fill="midnightblue" stroke="midnightblue" points="968.21,-138.98 977.95,-134.79 967.73,-131.99 968.21,-138.98"/>
</g>
<!-- Node11 -->
<g id="node11" class="node">
<title>Node11</title>
<g id="a_node11"><a xlink:href="osStartThread_8c.html#a3b144e814933e16a2fbf2642ad098ed3" target="_top" xlink:title=" ">
<polygon fill="white" stroke="black" points="840,-208.41 840,-227.41 925,-227.41 925,-208.41 840,-208.41"/>
<text text-anchor="middle" x="882.5" y="-215.41" font-family="Helvetica,sans-Serif" font-size="10.00">osStartThread</text>
</a>
</g>
</g>
<!-- Node6&#45;&gt;Node11 -->
<g id="edge10" class="edge">
<title>Node6&#45;&gt;Node11</title>
<path fill="none" stroke="midnightblue" d="M786.66,-217.91C799.9,-217.91 815.2,-217.91 829.59,-217.91"/>
<polygon fill="midnightblue" stroke="midnightblue" points="829.87,-221.41 839.87,-217.91 829.87,-214.41 829.87,-221.41"/>
</g>
<!-- Node11&#45;&gt;Node7 -->
<g id="edge11" class="edge">
<title>Node11&#45;&gt;Node7</title>
<path fill="none" stroke="midnightblue" d="M889.42,-227.41C901.09,-245.49 928.77,-285.14 961,-308.91 967.53,-313.73 975.1,-317.88 982.62,-321.35"/>
<polygon fill="midnightblue" stroke="midnightblue" points="981.47,-324.67 992.04,-325.4 984.23,-318.24 981.47,-324.67"/>
</g>
<!-- Node11&#45;&gt;Node8 -->
<g id="edge13" class="edge">
<title>Node11&#45;&gt;Node8</title>
<path fill="none" stroke="midnightblue" d="M890.68,-208.19C904.26,-189.84 934.7,-148.89 961,-114.91 976.53,-94.85 994.71,-72.11 1007.05,-56.78"/>
<polygon fill="midnightblue" stroke="midnightblue" points="1010.03,-58.66 1013.58,-48.68 1004.58,-54.27 1010.03,-58.66"/>
</g>
<!-- Node11&#45;&gt;Node9 -->
<g id="edge15" class="edge">
<title>Node11&#45;&gt;Node9</title>
<path fill="none" stroke="midnightblue" d="M901.83,-227.47C925.44,-239.79 966.69,-261.32 994.05,-275.59"/>
<polygon fill="midnightblue" stroke="midnightblue" points="992.61,-278.79 1003.1,-280.31 995.85,-272.58 992.61,-278.79"/>
</g>
<!-- Node11&#45;&gt;Node10 -->
<g id="edge16" class="edge">
<title>Node11&#45;&gt;Node10</title>
<path fill="none" stroke="midnightblue" d="M900.53,-208.23C908.06,-203.9 917.01,-198.71 925,-193.91 950.12,-178.84 978.56,-161.07 998.03,-148.8"/>
<polygon fill="midnightblue" stroke="midnightblue" points="999.96,-151.72 1006.55,-143.42 996.22,-145.8 999.96,-151.72"/>
</g>
<!-- Node12 -->
<g id="node12" class="node">
<title>Node12</title>
<g id="a_node12"><a xlink:href="libultra__internal_8h.html#a650b788ebd5efde9c8cbccc1ee832445" target="_top" xlink:title=" ">
<polygon fill="white" stroke="black" points="965,-190.41 965,-209.41 1080,-209.41 1080,-190.41 965,-190.41"/>
<text text-anchor="middle" x="1022.5" y="-197.41" font-family="Helvetica,sans-Serif" font-size="10.00">__osDispatchThread</text>
</a>
</g>
</g>
<!-- Node11&#45;&gt;Node12 -->
<g id="edge12" class="edge">
<title>Node11&#45;&gt;Node12</title>
<path fill="none" stroke="midnightblue" d="M925.28,-212.46C934.62,-211.24 944.75,-209.92 954.82,-208.61"/>
<polygon fill="midnightblue" stroke="midnightblue" points="955.37,-212.07 964.84,-207.3 954.47,-205.13 955.37,-212.07"/>
</g>
<!-- Node13 -->
<g id="node13" class="node">
<title>Node13</title>
<g id="a_node13"><a xlink:href="libultra__internal_8h.html#ac9d6cfd19de5565e74f1d74a14e9092d" target="_top" xlink:title=" ">
<polygon fill="white" stroke="black" points="965.5,-228.41 965.5,-247.41 1079.5,-247.41 1079.5,-228.41 965.5,-228.41"/>
<text text-anchor="middle" x="1022.5" y="-235.41" font-family="Helvetica,sans-Serif" font-size="10.00">__osEnqueueThread</text>
</a>
</g>
</g>
<!-- Node11&#45;&gt;Node13 -->
<g id="edge14" class="edge">
<title>Node11&#45;&gt;Node13</title>
<path fill="none" stroke="midnightblue" d="M925.28,-223.97C934.74,-225.34 945.01,-226.83 955.21,-228.3"/>
<polygon fill="midnightblue" stroke="midnightblue" points="954.94,-231.8 965.34,-229.77 955.95,-224.88 954.94,-231.8"/>
</g>
<!-- Node15&#45;&gt;Node7 -->
<g id="edge19" class="edge">
<title>Node15&#45;&gt;Node7</title>
<path fill="none" stroke="midnightblue" d="M788.52,-189.44C794.09,-191.93 799.47,-195.04 804,-198.91 829.39,-220.64 814.87,-242.89 840,-264.91 876.44,-296.86 929.07,-314.99 968.27,-324.75"/>
<polygon fill="midnightblue" stroke="midnightblue" points="967.65,-328.2 978.19,-327.11 969.27,-321.39 967.65,-328.2"/>
</g>
<!-- Node15&#45;&gt;Node8 -->
<g id="edge20" class="edge">
<title>Node15&#45;&gt;Node8</title>
<path fill="none" stroke="midnightblue" d="M752.71,-170.04C758.52,-139.99 780.52,-49.51 840,-13.91 888.35,15.03 956.71,-8.06 994.22,-25.03"/>
<polygon fill="midnightblue" stroke="midnightblue" points="992.97,-28.3 1003.5,-29.39 995.94,-21.97 992.97,-28.3"/>
</g>
<!-- Node15&#45;&gt;Node9 -->
<g id="edge21" class="edge">
<title>Node15&#45;&gt;Node9</title>
<path fill="none" stroke="midnightblue" d="M785.21,-189.5C791.71,-192.06 798.27,-195.17 804,-198.91 823.48,-211.63 820.15,-224.79 840,-236.91 861.79,-250.22 924.14,-266.93 969.69,-277.99"/>
<polygon fill="midnightblue" stroke="midnightblue" points="968.88,-281.4 979.42,-280.33 970.52,-274.59 968.88,-281.4"/>
</g>
<!-- Node15&#45;&gt;Node10 -->
<g id="edge22" class="edge">
<title>Node15&#45;&gt;Node10</title>
<path fill="none" stroke="midnightblue" d="M756.83,-170.13C769.2,-150.45 800.25,-106.51 840,-89.91 894.38,-67.21 963.03,-98.92 998.28,-119.23"/>
<polygon fill="midnightblue" stroke="midnightblue" points="996.51,-122.25 1006.89,-124.35 1000.09,-116.23 996.51,-122.25"/>
</g>
<!-- Node15&#45;&gt;Node11 -->
<g id="edge23" class="edge">
<title>Node15&#45;&gt;Node11</title>
<path fill="none" stroke="midnightblue" d="M783.93,-189.5C800.62,-194.36 821.09,-200.32 838.96,-205.53"/>
<polygon fill="midnightblue" stroke="midnightblue" points="838,-208.89 848.58,-208.33 839.96,-202.17 838,-208.89"/>
</g>
<!-- Node16&#45;&gt;Node7 -->
<g id="edge25" class="edge">
<title>Node16&#45;&gt;Node7</title>
<path fill="none" stroke="midnightblue" d="M774.75,-303.44C792.44,-310.1 817.34,-318.54 840,-322.91 882.47,-331.1 931.46,-333.96 967.83,-334.85"/>
<polygon fill="midnightblue" stroke="midnightblue" points="968.14,-338.36 978.21,-335.06 968.28,-331.36 968.14,-338.36"/>
</g>
<!-- Node16&#45;&gt;Node8 -->
<g id="edge26" class="edge">
<title>Node16&#45;&gt;Node8</title>
<path fill="none" stroke="midnightblue" d="M789.23,-285.13C794.71,-282.55 799.88,-279.22 804,-274.91 841.34,-235.92 803.58,-198.76 840,-158.91 867.56,-128.76 890.31,-145.49 925,-123.91 956.38,-104.4 987.52,-74.59 1005.61,-55.95"/>
<polygon fill="midnightblue" stroke="midnightblue" points="1008.37,-58.13 1012.75,-48.48 1003.31,-53.3 1008.37,-58.13"/>
</g>
<!-- Node16&#45;&gt;Node9 -->
<g id="edge27" class="edge">
<title>Node16&#45;&gt;Node9</title>
<path fill="none" stroke="midnightblue" d="M789.4,-301.29C805.03,-303.95 823.31,-306.61 840,-307.91 877.66,-310.86 887.38,-311.39 925,-307.91 939.47,-306.57 955.02,-304.13 969.31,-301.46"/>
<polygon fill="midnightblue" stroke="midnightblue" points="970.31,-304.84 979.46,-299.5 968.98,-297.96 970.31,-304.84"/>
</g>
<!-- Node16&#45;&gt;Node10 -->
<g id="edge28" class="edge">
<title>Node16&#45;&gt;Node10</title>
<path fill="none" stroke="midnightblue" d="M789.26,-284.36C794.61,-281.88 799.73,-278.79 804,-274.91 831.69,-249.81 812.3,-224.01 840,-198.91 860.16,-180.64 927.91,-159.37 974.68,-146.27"/>
<polygon fill="midnightblue" stroke="midnightblue" points="975.9,-149.56 984.61,-143.52 974.04,-142.81 975.9,-149.56"/>
</g>
<!-- Node16&#45;&gt;Node11 -->
<g id="edge29" class="edge">
<title>Node16&#45;&gt;Node11</title>
<path fill="none" stroke="midnightblue" d="M782.48,-284.33C789.72,-281.66 797.27,-278.5 804,-274.91 825.44,-263.5 847.54,-246.65 862.62,-234.23"/>
<polygon fill="midnightblue" stroke="midnightblue" points="865.23,-236.62 870.64,-227.51 860.73,-231.26 865.23,-236.62"/>
</g>
</g>
</svg>
        <g id="navigator" transform="translate(0 0)" fill="#404254">
                <rect fill="#f2f5e9" fill-opacity="0.5" stroke="#606060" stroke-width=".5" x="0" y="0" width="60" height="60"/>
                <use id="zoomplus" xlink:href="#zoomPlus" x="17" y="9" onmousedown="handleZoom(evt,'in')"/>
                <use id="zoomminus" xlink:href="#zoomMin" x="42" y="9" onmousedown="handleZoom(evt,'out')"/>
                <use id="reset" xlink:href="#resetDef" x="30" y="36" onmousedown="handleReset()"/>
                <g id="arrowUp" xlink:href="#dirArrow" transform="translate(30 24)" onmousedown="handlePan(0,-1)">
                  <use xlink:href="#rim" fill="#404040">
                        <set attributeName="fill" to="#808080" begin="arrowUp.mouseover" end="arrowUp.mouseout"/>
                  </use>
                  <path fill="none" stroke="white" stroke-width="1.5" d="M0,-3.0v7 M-2.5,-0.5L0,-3.0L2.5,-0.5"/>
                </g>
                <g id="arrowRight" xlink:href="#dirArrow" transform="rotate(90) translate(36 -43)" onmousedown="handlePan(1,0)">
                  <use xlink:href="#rim" fill="#404040">
                        <set attributeName="fill" to="#808080" begin="arrowRight.mouseover" end="arrowRight.mouseout"/>
                  </use>
                  <path fill="none" stroke="white" stroke-width="1.5" d="M0,-3.0v7 M-2.5,-0.5L0,-3.0L2.5,-0.5"/>
                </g>
                <g id="arrowDown" xlink:href="#dirArrow" transform="rotate(180) translate(-30 -48)" onmousedown="handlePan(0,1)">
                  <use xlink:href="#rim" fill="#404040">
                        <set attributeName="fill" to="#808080" begin="arrowDown.mouseover" end="arrowDown.mouseout"/>
                  </use>
                  <path fill="none" stroke="white" stroke-width="1.5" d="M0,-3.0v7 M-2.5,-0.5L0,-3.0L2.5,-0.5"/>
                </g>
                <g id="arrowLeft" xlink:href="#dirArrow" transform="rotate(270) translate(-36 17)" onmousedown="handlePan(-1,0)">
                  <use xlink:href="#rim" fill="#404040">
                        <set attributeName="fill" to="#808080" begin="arrowLeft.mouseover" end="arrowLeft.mouseout"/>
                  </use>
                  <path fill="none" stroke="white" stroke-width="1.5" d="M0,-3.0v7 M-2.5,-0.5L0,-3.0L2.5,-0.5"/>
                </g>
        </g>
        <svg viewBox="0 0 15 15" width="100%" height="30px" preserveAspectRatio="xMaxYMin meet">
         <g id="arrow_out" transform="scale(0.3 0.3)">
          <a xlink:href="load_8h_ace017c7ef0d97aa9f3b142de20127494_cgraph_org.svg" target="_base">
           <rect id="button" ry="5" rx="5" y="6" x="6" height="38" width="38"
                fill="#f2f5e9" fill-opacity="0.5" stroke="#606060" stroke-width="1.0"/>
           <path id="arrow"
             d="M 11.500037,31.436501 C 11.940474,20.09759 22.043105,11.32322 32.158766,21.979434 L 37.068811,17.246167 C 37.068811,17.246167 37.088388,32 37.088388,32 L 22.160133,31.978069 C 22.160133,31.978069 26.997745,27.140456 26.997745,27.140456 C 18.528582,18.264221 13.291696,25.230495 11.500037,31.436501 z"
             style="fill:#404040;"/>
          </a>
         </g>
        </svg>
</svg>
