<?xml version="1.0" encoding="UTF-8" standalone="no"?>
<!DOCTYPE svg PUBLIC "-//W3C//DTD SVG 1.1//EN"
 "http://www.w3.org/Graphics/SVG/1.1/DTD/svg11.dtd">
<!-- Generated by graphviz version 2.43.0 (0)
 -->
<!-- Title: func_800BB584 Pages: 1 -->
<!--zoomable 135 -->
<svg id="main" version="1.1" xmlns="http://www.w3.org/2000/svg" xmlns:xlink="http://www.w3.org/1999/xlink" xml:space="preserve" onload="init(evt)">
<style type="text/css"><![CDATA[
.edge:hover path { stroke: red; }
.edge:hover polygon { stroke: red; fill: red; }
]]></style>
<script type="text/javascript"><![CDATA[
var edges = document.getElementsByTagName('g');
if (edges && edges.length) {
  for (var i=0;i<edges.length;i++) {
    if (edges[i].id.substr(0,4)=='edge') {
      edges[i].setAttribute('class','edge');
    }
  }
}
]]></script>
        <defs>
                <circle id="rim" cx="0" cy="0" r="7"/>
                <circle id="rim2" cx="0" cy="0" r="3.5"/>
                <g id="zoomPlus">
                        <use xlink:href="#rim" fill="#404040">
                                <set attributeName="fill" to="#808080" begin="zoomplus.mouseover" end="zoomplus.mouseout"/>
                        </use>
                        <path d="M-4,0h8M0,-4v8" fill="none" stroke="white" stroke-width="1.5" pointer-events="none"/>
                </g>
                <g id="zoomMin">
                        <use xlink:href="#rim" fill="#404040">
                                <set attributeName="fill" to="#808080" begin="zoomminus.mouseover" end="zoomminus.mouseout"/>
                        </use>
                        <path d="M-4,0h8" fill="none" stroke="white" stroke-width="1.5" pointer-events="none"/>
                </g>
                <g id="dirArrow">
                        <path fill="none" stroke="white" stroke-width="1.5" d="M0,-3.0v7 M-2.5,-0.5L0,-3.0L2.5,-0.5"/>
                </g>
               <g id="resetDef">
                       <use xlink:href="#rim2" fill="#404040">
                               <set attributeName="fill" to="#808080" begin="reset.mouseover" end="reset.mouseout"/>
                       </use>
               </g>
        </defs>

<script type="text/javascript">
var viewWidth = 1050;
var viewHeight = 135;
var sectionId = 'dynsection-18';
</script>
<script xlink:href="svgpan.js"/>
<svg id="graph" class="graph">
<g id="viewport">
<title>func_800BB584</title>
<polygon fill="white" stroke="transparent" points="-4,4 -4,-130.5 1046,-130.5 1046,4 -4,4"/>
<!-- Node1 -->
<g id="node1" class="node">
<title>Node1</title>
<g id="a_node1"><a xlink:title=" ">
<polygon fill="#bfbfbf" stroke="black" points="950,-50 950,-69 1042,-69 1042,-50 950,-50"/>
<text text-anchor="middle" x="996" y="-57" font-family="Helvetica,sans-Serif" font-size="10.00">func_800BB584</text>
</a>
</g>
</g>
<!-- Node2 -->
<g id="node2" class="node">
<title>Node2</title>
<g id="a_node2"><a xlink:href="load_8c.html#a743996a6c4479f2dfd5ee9b2729cb499" target="_top" xlink:title=" ">
<polygon fill="white" stroke="black" points="780.5,-88 780.5,-107 905.5,-107 905.5,-88 780.5,-88"/>
<text text-anchor="middle" x="843" y="-95" font-family="Helvetica,sans-Serif" font-size="10.00">bank_load_immediate</text>
</a>
</g>
</g>
<!-- Node1&#45;&gt;Node2 -->
<g id="edge1" class="edge">
<title>Node1&#45;&gt;Node2</title>
<path fill="none" stroke="midnightblue" d="M947.16,-71.54C926.06,-76.85 901.62,-83 881.83,-87.98"/>
<polygon fill="midnightblue" stroke="midnightblue" points="948.05,-74.92 956.9,-69.09 946.34,-68.14 948.05,-74.92"/>
</g>
<!-- Node9 -->
<g id="node9" class="node">
<title>Node9</title>
<g id="a_node9"><a xlink:href="heap_8c.html#ae8b7a3aad224c80e7d87654d866666ae" target="_top" xlink:title=" ">
<polygon fill="white" stroke="black" points="796.5,-50 796.5,-69 889.5,-69 889.5,-50 796.5,-50"/>
<text text-anchor="middle" x="843" y="-57" font-family="Helvetica,sans-Serif" font-size="10.00">func_800BA8B0</text>
</a>
</g>
</g>
<!-- Node1&#45;&gt;Node9 -->
<g id="edge9" class="edge">
<title>Node1&#45;&gt;Node9</title>
<path fill="none" stroke="midnightblue" d="M939.64,-59.5C923.17,-59.5 905.31,-59.5 889.53,-59.5"/>
<polygon fill="midnightblue" stroke="midnightblue" points="939.7,-63 949.7,-59.5 939.69,-56 939.7,-63"/>
</g>
<!-- Node10 -->
<g id="node10" class="node">
<title>Node10</title>
<g id="a_node10"><a xlink:href="seqplayer_8c.html#a057e95b47ecbd1b645b1ef457f3854d9" target="_top" xlink:title=" ">
<polygon fill="white" stroke="black" points="772,-0.5 772,-30.5 914,-30.5 914,-0.5 772,-0.5"/>
<text text-anchor="start" x="780" y="-18.5" font-family="Helvetica,sans-Serif" font-size="10.00">sequence_player_process</text>
<text text-anchor="middle" x="843" y="-7.5" font-family="Helvetica,sans-Serif" font-size="10.00">_sequence</text>
</a>
</g>
</g>
<!-- Node1&#45;&gt;Node10 -->
<g id="edge10" class="edge">
<title>Node1&#45;&gt;Node10</title>
<path fill="none" stroke="midnightblue" d="M952.26,-47.04C934.66,-41.92 914.13,-35.94 895.7,-30.57"/>
<polygon fill="midnightblue" stroke="midnightblue" points="951.66,-50.52 962.24,-49.95 953.61,-43.79 951.66,-50.52"/>
</g>
<!-- Node3 -->
<g id="node3" class="node">
<title>Node3</title>
<g id="a_node3"><a xlink:href="load_8c.html#ab08df14a71055f77bc0a731980617f79" target="_top" xlink:title=" ">
<polygon fill="white" stroke="black" points="605,-88 605,-107 736,-107 736,-88 605,-88"/>
<text text-anchor="middle" x="670.5" y="-95" font-family="Helvetica,sans-Serif" font-size="10.00">load_banks_immediate</text>
</a>
</g>
</g>
<!-- Node2&#45;&gt;Node3 -->
<g id="edge2" class="edge">
<title>Node2&#45;&gt;Node3</title>
<path fill="none" stroke="midnightblue" d="M770.18,-97.5C758.88,-97.5 747.25,-97.5 736.13,-97.5"/>
<polygon fill="midnightblue" stroke="midnightblue" points="770.45,-101 780.45,-97.5 770.45,-94 770.45,-101"/>
</g>
<!-- Node4 -->
<g id="node4" class="node">
<title>Node4</title>
<g id="a_node4"><a xlink:href="load_8c.html#a6c3a18a0dda97c61c1b24745f64ca2a9" target="_top" xlink:title=" ">
<polygon fill="white" stroke="black" points="437,-107 437,-126 569,-126 569,-107 437,-107"/>
<text text-anchor="middle" x="503" y="-114" font-family="Helvetica,sans-Serif" font-size="10.00">load_sequence_internal</text>
</a>
</g>
</g>
<!-- Node3&#45;&gt;Node4 -->
<g id="edge3" class="edge">
<title>Node3&#45;&gt;Node4</title>
<path fill="none" stroke="midnightblue" d="M594.61,-106.1C586.07,-107.08 577.42,-108.07 569.02,-109.04"/>
<polygon fill="midnightblue" stroke="midnightblue" points="595.03,-109.57 604.57,-104.95 594.23,-102.62 595.03,-109.57"/>
</g>
<!-- Node8 -->
<g id="node8" class="node">
<title>Node8</title>
<g id="a_node8"><a xlink:href="load_8c.html#a87296581b8da4a2d19e2886665e12bef" target="_top" xlink:title=" ">
<polygon fill="white" stroke="black" points="296,-69 296,-88 401,-88 401,-69 296,-69"/>
<text text-anchor="middle" x="348.5" y="-76" font-family="Helvetica,sans-Serif" font-size="10.00">preload_sequence</text>
</a>
</g>
</g>
<!-- Node3&#45;&gt;Node8 -->
<g id="edge7" class="edge">
<title>Node3&#45;&gt;Node8</title>
<path fill="none" stroke="midnightblue" d="M594.66,-93.06C535.21,-89.53 453.64,-84.68 401.24,-81.57"/>
<polygon fill="midnightblue" stroke="midnightblue" points="594.55,-96.56 604.74,-93.66 594.97,-89.57 594.55,-96.56"/>
</g>
<!-- Node5 -->
<g id="node5" class="node">
<title>Node5</title>
<g id="a_node5"><a xlink:href="load_8c.html#a6002fcbd2dd5d0a3b0b378c3dc6ee731" target="_top" xlink:title=" ">
<polygon fill="white" stroke="black" points="304,-107 304,-126 393,-126 393,-107 304,-107"/>
<text text-anchor="middle" x="348.5" y="-114" font-family="Helvetica,sans-Serif" font-size="10.00">load_sequence</text>
</a>
</g>
</g>
<!-- Node4&#45;&gt;Node5 -->
<g id="edge4" class="edge">
<title>Node4&#45;&gt;Node5</title>
<path fill="none" stroke="midnightblue" d="M426.81,-116.5C415.3,-116.5 403.77,-116.5 393.25,-116.5"/>
<polygon fill="midnightblue" stroke="midnightblue" points="426.88,-120 436.88,-116.5 426.88,-113 426.88,-120"/>
</g>
<!-- Node6 -->
<g id="node6" class="node">
<title>Node6</title>
<g id="a_node6"><a xlink:href="port__eu_8c.html#af9631ae86d86a13a1cbdb83aec196fc3" target="_top" xlink:title=" ">
<polygon fill="white" stroke="black" points="130,-88 130,-107 260,-107 260,-88 130,-88"/>
<text text-anchor="middle" x="195" y="-95" font-family="Helvetica,sans-Serif" font-size="10.00">eu_process_audio_cmd</text>
</a>
</g>
</g>
<!-- Node5&#45;&gt;Node6 -->
<g id="edge5" class="edge">
<title>Node5&#45;&gt;Node6</title>
<path fill="none" stroke="midnightblue" d="M293.51,-109.73C282.66,-108.37 271.16,-106.93 260.01,-105.53"/>
<polygon fill="midnightblue" stroke="midnightblue" points="293.32,-113.23 303.68,-111 294.19,-106.29 293.32,-113.23"/>
</g>
<!-- Node7 -->
<g id="node7" class="node">
<title>Node7</title>
<g id="a_node7"><a xlink:href="port__eu_8c.html#adbb164f6ad02d89aead401d442b75ce5" target="_top" xlink:title=" ">
<polygon fill="white" stroke="black" points="0,-88 0,-107 94,-107 94,-88 0,-88"/>
<text text-anchor="middle" x="47" y="-95" font-family="Helvetica,sans-Serif" font-size="10.00">func_800CBCB0</text>
</a>
</g>
</g>
<!-- Node6&#45;&gt;Node7 -->
<g id="edge6" class="edge">
<title>Node6&#45;&gt;Node7</title>
<path fill="none" stroke="midnightblue" d="M119.7,-97.5C110.94,-97.5 102.21,-97.5 94,-97.5"/>
<polygon fill="midnightblue" stroke="midnightblue" points="119.96,-101 129.96,-97.5 119.96,-94 119.96,-101"/>
</g>
<!-- Node8&#45;&gt;Node6 -->
<g id="edge8" class="edge">
<title>Node8&#45;&gt;Node6</title>
<path fill="none" stroke="midnightblue" d="M285.65,-86.26C277.22,-87.31 268.55,-88.4 260.08,-89.46"/>
<polygon fill="midnightblue" stroke="midnightblue" points="286.3,-89.7 295.79,-84.99 285.43,-82.76 286.3,-89.7"/>
</g>
<!-- Node11 -->
<g id="node11" class="node">
<title>Node11</title>
<g id="a_node11"><a xlink:href="seqplayer_8c.html#ac346f9d8e5c5a7e6266c2529510b673d" target="_top" xlink:title=" ">
<polygon fill="white" stroke="black" points="615,-6 615,-25 726,-25 726,-6 615,-6"/>
<text text-anchor="middle" x="670.5" y="-13" font-family="Helvetica,sans-Serif" font-size="10.00">process_sequences</text>
</a>
</g>
</g>
<!-- Node10&#45;&gt;Node11 -->
<g id="edge11" class="edge">
<title>Node10&#45;&gt;Node11</title>
<path fill="none" stroke="midnightblue" d="M761.6,-15.5C749.56,-15.5 737.38,-15.5 726.04,-15.5"/>
<polygon fill="midnightblue" stroke="midnightblue" points="761.67,-19 771.67,-15.5 761.67,-12 761.67,-19"/>
</g>
</g>
</svg>
        <g id="navigator" transform="translate(0 0)" fill="#404254">
                <rect fill="#f2f5e9" fill-opacity="0.5" stroke="#606060" stroke-width=".5" x="0" y="0" width="60" height="60"/>
                <use id="zoomplus" xlink:href="#zoomPlus" x="17" y="9" onmousedown="handleZoom(evt,'in')"/>
                <use id="zoomminus" xlink:href="#zoomMin" x="42" y="9" onmousedown="handleZoom(evt,'out')"/>
                <use id="reset" xlink:href="#resetDef" x="30" y="36" onmousedown="handleReset()"/>
                <g id="arrowUp" xlink:href="#dirArrow" transform="translate(30 24)" onmousedown="handlePan(0,-1)">
                  <use xlink:href="#rim" fill="#404040">
                        <set attributeName="fill" to="#808080" begin="arrowUp.mouseover" end="arrowUp.mouseout"/>
                  </use>
                  <path fill="none" stroke="white" stroke-width="1.5" d="M0,-3.0v7 M-2.5,-0.5L0,-3.0L2.5,-0.5"/>
                </g>
                <g id="arrowRight" xlink:href="#dirArrow" transform="rotate(90) translate(36 -43)" onmousedown="handlePan(1,0)">
                  <use xlink:href="#rim" fill="#404040">
                        <set attributeName="fill" to="#808080" begin="arrowRight.mouseover" end="arrowRight.mouseout"/>
                  </use>
                  <path fill="none" stroke="white" stroke-width="1.5" d="M0,-3.0v7 M-2.5,-0.5L0,-3.0L2.5,-0.5"/>
                </g>
                <g id="arrowDown" xlink:href="#dirArrow" transform="rotate(180) translate(-30 -48)" onmousedown="handlePan(0,1)">
                  <use xlink:href="#rim" fill="#404040">
                        <set attributeName="fill" to="#808080" begin="arrowDown.mouseover" end="arrowDown.mouseout"/>
                  </use>
                  <path fill="none" stroke="white" stroke-width="1.5" d="M0,-3.0v7 M-2.5,-0.5L0,-3.0L2.5,-0.5"/>
                </g>
                <g id="arrowLeft" xlink:href="#dirArrow" transform="rotate(270) translate(-36 17)" onmousedown="handlePan(-1,0)">
                  <use xlink:href="#rim" fill="#404040">
                        <set attributeName="fill" to="#808080" begin="arrowLeft.mouseover" end="arrowLeft.mouseout"/>
                  </use>
                  <path fill="none" stroke="white" stroke-width="1.5" d="M0,-3.0v7 M-2.5,-0.5L0,-3.0L2.5,-0.5"/>
                </g>
        </g>
        <svg viewBox="0 0 15 15" width="100%" height="30px" preserveAspectRatio="xMaxYMin meet">
         <g id="arrow_out" transform="scale(0.3 0.3)">
          <a xlink:href="load_8h_ace017c7ef0d97aa9f3b142de20127494_icgraph_org.svg" target="_base">
           <rect id="button" ry="5" rx="5" y="6" x="6" height="38" width="38"
                fill="#f2f5e9" fill-opacity="0.5" stroke="#606060" stroke-width="1.0"/>
           <path id="arrow"
             d="M 11.500037,31.436501 C 11.940474,20.09759 22.043105,11.32322 32.158766,21.979434 L 37.068811,17.246167 C 37.068811,17.246167 37.088388,32 37.088388,32 L 22.160133,31.978069 C 22.160133,31.978069 26.997745,27.140456 26.997745,27.140456 C 18.528582,18.264221 13.291696,25.230495 11.500037,31.436501 z"
             style="fill:#404040;"/>
          </a>
         </g>
        </svg>
</svg>
