<?xml version="1.0" encoding="UTF-8" standalone="no"?>
<!DOCTYPE svg PUBLIC "-//W3C//DTD SVG 1.1//EN"
 "http://www.w3.org/Graphics/SVG/1.1/DTD/svg11.dtd">
<!-- Generated by graphviz version 2.43.0 (0)
 -->
<!-- Title: preload_sequence Pages: 1 -->
<!--zoomable 597 -->
<svg id="main" version="1.1" xmlns="http://www.w3.org/2000/svg" xmlns:xlink="http://www.w3.org/1999/xlink" xml:space="preserve" onload="init(evt)">
<style type="text/css"><![CDATA[
.edge:hover path { stroke: red; }
.edge:hover polygon { stroke: red; fill: red; }
]]></style>
<script type="text/javascript"><![CDATA[
var edges = document.getElementsByTagName('g');
if (edges && edges.length) {
  for (var i=0;i<edges.length;i++) {
    if (edges[i].id.substr(0,4)=='edge') {
      edges[i].setAttribute('class','edge');
    }
  }
}
]]></script>
        <defs>
                <circle id="rim" cx="0" cy="0" r="7"/>
                <circle id="rim2" cx="0" cy="0" r="3.5"/>
                <g id="zoomPlus">
                        <use xlink:href="#rim" fill="#404040">
                                <set attributeName="fill" to="#808080" begin="zoomplus.mouseover" end="zoomplus.mouseout"/>
                        </use>
                        <path d="M-4,0h8M0,-4v8" fill="none" stroke="white" stroke-width="1.5" pointer-events="none"/>
                </g>
                <g id="zoomMin">
                        <use xlink:href="#rim" fill="#404040">
                                <set attributeName="fill" to="#808080" begin="zoomminus.mouseover" end="zoomminus.mouseout"/>
                        </use>
                        <path d="M-4,0h8" fill="none" stroke="white" stroke-width="1.5" pointer-events="none"/>
                </g>
                <g id="dirArrow">
                        <path fill="none" stroke="white" stroke-width="1.5" d="M0,-3.0v7 M-2.5,-0.5L0,-3.0L2.5,-0.5"/>
                </g>
               <g id="resetDef">
                       <use xlink:href="#rim2" fill="#404040">
                               <set attributeName="fill" to="#808080" begin="reset.mouseover" end="reset.mouseout"/>
                       </use>
               </g>
        </defs>

<script type="text/javascript">
var viewWidth = 2186;
var viewHeight = 597;
var sectionId = 'dynsection-31';
</script>
<script xlink:href="svgpan.js"/>
<svg id="graph" class="graph">
<g id="viewport">
<title>preload_sequence</title>
<polygon fill="white" stroke="transparent" points="-4,4 -4,-593.47 2182,-593.47 2182,4 -4,4"/>
<!-- Node1 -->
<g id="node1" class="node">
<title>Node1</title>
<g id="a_node1"><a xlink:title=" ">
<polygon fill="#bfbfbf" stroke="black" points="0,-364.97 0,-383.97 105,-383.97 105,-364.97 0,-364.97"/>
<text text-anchor="middle" x="52.5" y="-371.97" font-family="Helvetica,sans-Serif" font-size="10.00">preload_sequence</text>
</a>
</g>
</g>
<!-- Node2 -->
<g id="node2" class="node">
<title>Node2</title>
<g id="a_node2"><a xlink:href="heap_8c.html#a3f1a8a04ede4a45b23ed1d8db0d3eedc" target="_top" xlink:title=" ">
<polygon fill="white" stroke="black" points="333,-402.97 333,-421.97 432,-421.97 432,-402.97 333,-402.97"/>
<text text-anchor="middle" x="382.5" y="-409.97" font-family="Helvetica,sans-Serif" font-size="10.00">get_bank_or_seq</text>
</a>
</g>
</g>
<!-- Node1&#45;&gt;Node2 -->
<g id="edge1" class="edge">
<title>Node1&#45;&gt;Node2</title>
<path fill="none" stroke="midnightblue" d="M92.06,-384.02C107.23,-387.46 124.85,-391.09 141,-393.47 202.7,-402.56 273.99,-407.51 322.84,-410.05"/>
<polygon fill="midnightblue" stroke="midnightblue" points="322.75,-413.55 332.92,-410.56 323.1,-406.56 322.75,-413.55"/>
</g>
<!-- Node5 -->
<g id="node5" class="node">
<title>Node5</title>
<g id="a_node5"><a xlink:href="load_8c.html#ab08df14a71055f77bc0a731980617f79" target="_top" xlink:title=" ">
<polygon fill="white" stroke="black" points="141,-364.97 141,-383.97 272,-383.97 272,-364.97 141,-364.97"/>
<text text-anchor="middle" x="206.5" y="-371.97" font-family="Helvetica,sans-Serif" font-size="10.00">load_banks_immediate</text>
</a>
</g>
</g>
<!-- Node1&#45;&gt;Node5 -->
<g id="edge5" class="edge">
<title>Node1&#45;&gt;Node5</title>
<path fill="none" stroke="midnightblue" d="M105.38,-374.47C113.61,-374.47 122.25,-374.47 130.87,-374.47"/>
<polygon fill="midnightblue" stroke="midnightblue" points="130.94,-377.97 140.94,-374.47 130.94,-370.97 130.94,-377.97"/>
</g>
<!-- Node40 -->
<g id="node40" class="node">
<title>Node40</title>
<g id="a_node40"><a xlink:href="load_8c.html#a0bd7b915672bcab4999abb6b2a2520f1" target="_top" xlink:title=" ">
<polygon fill="white" stroke="black" points="308,-326.97 308,-345.97 457,-345.97 457,-326.97 308,-326.97"/>
<text text-anchor="middle" x="382.5" y="-333.97" font-family="Helvetica,sans-Serif" font-size="10.00">sequence_dma_immediate</text>
</a>
</g>
</g>
<!-- Node1&#45;&gt;Node40 -->
<g id="edge62" class="edge">
<title>Node1&#45;&gt;Node40</title>
<path fill="none" stroke="midnightblue" d="M92.06,-364.92C107.23,-361.47 124.85,-357.85 141,-355.47 192.83,-347.83 251.42,-343.12 297.79,-340.3"/>
<polygon fill="midnightblue" stroke="midnightblue" points="298.02,-343.79 307.8,-339.71 297.61,-336.81 298.02,-343.79"/>
</g>
<!-- Node3 -->
<g id="node3" class="node">
<title>Node3</title>
<g id="a_node3"><a xlink:href="heap_8c.html#a21ff0898ab229c663532cedb2abfe92d" target="_top" xlink:title=" ">
<polygon fill="white" stroke="black" points="493,-440.97 493,-459.97 622,-459.97 622,-440.97 493,-440.97"/>
<text text-anchor="middle" x="557.5" y="-447.97" font-family="Helvetica,sans-Serif" font-size="10.00">get_bank_or_seq_inner</text>
</a>
</g>
</g>
<!-- Node2&#45;&gt;Node3 -->
<g id="edge2" class="edge">
<title>Node2&#45;&gt;Node3</title>
<path fill="none" stroke="midnightblue" d="M432.15,-417.02C461.8,-422.51 498.83,-430.9 524.74,-438.13"/>
<polygon fill="midnightblue" stroke="midnightblue" points="523.85,-441.51 534.42,-440.93 525.79,-434.79 523.85,-441.51"/>
</g>
<!-- Node4 -->
<g id="node4" class="node">
<title>Node4</title>
<g id="a_node4"><a xlink:href="heap_8c.html#a83a6ede2b1a99bef2eb57759ac243930" target="_top" xlink:title=" ">
<polygon fill="white" stroke="black" points="505.5,-402.97 505.5,-421.97 609.5,-421.97 609.5,-402.97 505.5,-402.97"/>
<text text-anchor="middle" x="557.5" y="-409.97" font-family="Helvetica,sans-Serif" font-size="10.00">unk_pool1_lookup</text>
</a>
</g>
</g>
<!-- Node2&#45;&gt;Node4 -->
<g id="edge4" class="edge">
<title>Node2&#45;&gt;Node4</title>
<path fill="none" stroke="midnightblue" d="M432.15,-412.47C451.64,-412.47 474.33,-412.47 494.95,-412.47"/>
<polygon fill="midnightblue" stroke="midnightblue" points="495.2,-415.97 505.2,-412.47 495.2,-408.97 495.2,-415.97"/>
</g>
<!-- Node3&#45;&gt;Node2 -->
<g id="edge3" class="edge">
<title>Node3&#45;&gt;Node2</title>
<path fill="none" stroke="midnightblue" d="M493,-443.05C466.62,-437.77 437.16,-430.91 415.45,-424.86"/>
<polygon fill="midnightblue" stroke="midnightblue" points="416.34,-421.48 405.76,-422.06 414.4,-428.2 416.34,-421.48"/>
</g>
<!-- Node5&#45;&gt;Node2 -->
<g id="edge61" class="edge">
<title>Node5&#45;&gt;Node2</title>
<path fill="none" stroke="midnightblue" d="M251.41,-384.06C274.68,-389.14 303.45,-395.42 328.02,-400.79"/>
<polygon fill="midnightblue" stroke="midnightblue" points="327.39,-404.23 337.91,-402.95 328.89,-397.4 327.39,-404.23"/>
</g>
<!-- Node6 -->
<g id="node6" class="node">
<title>Node6</title>
<g id="a_node6"><a xlink:href="load_8c.html#a743996a6c4479f2dfd5ee9b2729cb499" target="_top" xlink:title=" ">
<polygon fill="white" stroke="black" points="320,-364.97 320,-383.97 445,-383.97 445,-364.97 320,-364.97"/>
<text text-anchor="middle" x="382.5" y="-371.97" font-family="Helvetica,sans-Serif" font-size="10.00">bank_load_immediate</text>
</a>
</g>
</g>
<!-- Node5&#45;&gt;Node6 -->
<g id="edge6" class="edge">
<title>Node5&#45;&gt;Node6</title>
<path fill="none" stroke="midnightblue" d="M272.29,-374.47C284.44,-374.47 297.22,-374.47 309.57,-374.47"/>
<polygon fill="midnightblue" stroke="midnightblue" points="309.83,-377.97 319.83,-374.47 309.83,-370.97 309.83,-377.97"/>
</g>
<!-- Node7 -->
<g id="node7" class="node">
<title>Node7</title>
<g id="a_node7"><a xlink:href="heap_8c.html#a105e103d6994e197dc2f26e721b6c35f" target="_top" xlink:title=" ">
<polygon fill="white" stroke="black" points="504,-364.97 504,-383.97 611,-383.97 611,-364.97 504,-364.97"/>
<text text-anchor="middle" x="557.5" y="-371.97" font-family="Helvetica,sans-Serif" font-size="10.00">alloc_bank_or_seq</text>
</a>
</g>
</g>
<!-- Node6&#45;&gt;Node7 -->
<g id="edge7" class="edge">
<title>Node6&#45;&gt;Node7</title>
<path fill="none" stroke="midnightblue" d="M445.47,-374.47C461.14,-374.47 477.97,-374.47 493.68,-374.47"/>
<polygon fill="midnightblue" stroke="midnightblue" points="493.82,-377.97 503.82,-374.47 493.82,-370.97 493.82,-377.97"/>
</g>
<!-- Node24 -->
<g id="node24" class="node">
<title>Node24</title>
<g id="a_node24"><a xlink:href="load_8c.html#ae3317f7c4d592849e7c2e92ecb7777e0" target="_top" xlink:title=" ">
<polygon fill="white" stroke="black" points="975,-250.97 975,-269.97 1133,-269.97 1133,-250.97 975,-250.97"/>
<text text-anchor="middle" x="1054" y="-257.97" font-family="Helvetica,sans-Serif" font-size="10.00">audio_dma_copy_immediate</text>
</a>
</g>
</g>
<!-- Node6&#45;&gt;Node24 -->
<g id="edge29" class="edge">
<title>Node6&#45;&gt;Node24</title>
<path fill="none" stroke="midnightblue" d="M435.57,-364.92C443.04,-362.45 450.41,-359.35 457,-355.47 477.04,-343.65 472.12,-327.73 493,-317.47 534.24,-297.19 817.24,-275.94 964.44,-266.09"/>
<polygon fill="midnightblue" stroke="midnightblue" points="965.05,-269.56 974.8,-265.4 964.59,-262.57 965.05,-269.56"/>
</g>
<!-- Node37 -->
<g id="node37" class="node">
<title>Node37</title>
<g id="a_node37"><a xlink:href="load_8c.html#a43bd24f6a41b85ab73c6a8614b1b16de" target="_top" xlink:title=" ">
<polygon fill="white" stroke="black" points="511.5,-326.97 511.5,-345.97 603.5,-345.97 603.5,-326.97 511.5,-326.97"/>
<text text-anchor="middle" x="557.5" y="-333.97" font-family="Helvetica,sans-Serif" font-size="10.00">func_800BB584</text>
</a>
</g>
</g>
<!-- Node6&#45;&gt;Node37 -->
<g id="edge56" class="edge">
<title>Node6&#45;&gt;Node37</title>
<path fill="none" stroke="midnightblue" d="M427.16,-364.88C450.29,-359.8 478.9,-353.51 503.33,-348.15"/>
<polygon fill="midnightblue" stroke="midnightblue" points="504.14,-351.55 513.16,-345.99 502.64,-344.72 504.14,-351.55"/>
</g>
<!-- Node8 -->
<g id="node8" class="node">
<title>Node8</title>
<g id="a_node8"><a xlink:href="heap_8c.html#a348169b3bf0d32edfa13520ccc42b2bc" target="_top" xlink:title=" ">
<polygon fill="white" stroke="black" points="1377.5,-436.97 1377.5,-455.97 1458.5,-455.97 1458.5,-436.97 1377.5,-436.97"/>
<text text-anchor="middle" x="1418" y="-443.97" font-family="Helvetica,sans-Serif" font-size="10.00">discard_bank</text>
</a>
</g>
</g>
<!-- Node7&#45;&gt;Node8 -->
<g id="edge8" class="edge">
<title>Node7&#45;&gt;Node8</title>
<path fill="none" stroke="midnightblue" d="M597.31,-384C655.67,-397.47 769.68,-420.47 868,-420.47 868,-420.47 868,-420.47 1055,-420.47 1166.77,-420.47 1297.46,-432.95 1367.18,-440.62"/>
<polygon fill="midnightblue" stroke="midnightblue" points="1367.1,-444.13 1377.43,-441.76 1367.88,-437.18 1367.1,-444.13"/>
</g>
<!-- Node13 -->
<g id="node13" class="node">
<title>Node13</title>
<g id="a_node13"><a xlink:href="heap_8c.html#a41929205ee1e0327c771ff4e381cdaf1" target="_top" xlink:title=" ">
<polygon fill="white" stroke="black" points="658.5,-452.97 658.5,-471.97 762.5,-471.97 762.5,-452.97 658.5,-452.97"/>
<text text-anchor="middle" x="710.5" y="-459.97" font-family="Helvetica,sans-Serif" font-size="10.00">discard_sequence</text>
</a>
</g>
</g>
<!-- Node7&#45;&gt;Node13 -->
<g id="edge13" class="edge">
<title>Node7&#45;&gt;Node13</title>
<path fill="none" stroke="midnightblue" d="M602.29,-384.03C609.17,-386.51 616,-389.62 622,-393.47 642.41,-406.56 639.05,-419.33 658,-434.47 664.37,-439.56 671.8,-444.21 679.01,-448.19"/>
<polygon fill="midnightblue" stroke="midnightblue" points="677.43,-451.32 687.91,-452.87 680.68,-445.12 677.43,-451.32"/>
</g>
<!-- Node23 -->
<g id="node23" class="node">
<title>Node23</title>
<g id="a_node23"><a xlink:href="heap_8c.html#a505114204ee27fd64a9fbb255703cf9f" target="_top" xlink:title=" ">
<polygon fill="white" stroke="black" points="1019,-345.97 1019,-364.97 1089,-364.97 1089,-345.97 1019,-345.97"/>
<text text-anchor="middle" x="1054" y="-352.97" font-family="Helvetica,sans-Serif" font-size="10.00">soundAlloc</text>
</a>
</g>
</g>
<!-- Node7&#45;&gt;Node23 -->
<g id="edge28" class="edge">
<title>Node7&#45;&gt;Node23</title>
<path fill="none" stroke="midnightblue" d="M611.42,-372.44C709.44,-368.67 917.55,-360.67 1008.69,-357.17"/>
<polygon fill="midnightblue" stroke="midnightblue" points="1009.09,-360.66 1018.95,-356.78 1008.82,-353.66 1009.09,-360.66"/>
</g>
<!-- Node9 -->
<g id="node9" class="node">
<title>Node9</title>
<g id="a_node9"><a xlink:href="seqplayer_8c.html#ad6bdf40a669a4ec92be6fb203b2abf0a" target="_top" xlink:title=" ">
<polygon fill="white" stroke="black" points="1533.5,-531.97 1533.5,-550.97 1654.5,-550.97 1654.5,-531.97 1533.5,-531.97"/>
<text text-anchor="middle" x="1594" y="-538.97" font-family="Helvetica,sans-Serif" font-size="10.00">audio_list_push_back</text>
</a>
</g>
</g>
<!-- Node8&#45;&gt;Node9 -->
<g id="edge9" class="edge">
<title>Node8&#45;&gt;Node9</title>
<path fill="none" stroke="midnightblue" d="M1436.64,-456.1C1467.33,-472.86 1530.71,-507.46 1566.64,-527.08"/>
<polygon fill="midnightblue" stroke="midnightblue" points="1565.12,-530.23 1575.57,-531.95 1568.47,-524.09 1565.12,-530.23"/>
</g>
<!-- Node10 -->
<g id="node10" class="node">
<title>Node10</title>
<g id="a_node10"><a xlink:href="playback_8c.html#a1a384aa226aef66cdab12750f1fde133" target="_top" xlink:title=" ">
<polygon fill="white" stroke="black" points="2064,-493.97 2064,-512.97 2171,-512.97 2171,-493.97 2064,-493.97"/>
<text text-anchor="middle" x="2117.5" y="-500.97" font-family="Helvetica,sans-Serif" font-size="10.00">audio_list_remove</text>
</a>
</g>
</g>
<!-- Node8&#45;&gt;Node10 -->
<g id="edge10" class="edge">
<title>Node8&#45;&gt;Node10</title>
<path fill="none" stroke="midnightblue" d="M1458.6,-443.77C1533.77,-439.24 1702.23,-431.96 1843,-446.47 1924.81,-454.9 2018.24,-477.17 2072,-491.25"/>
<polygon fill="midnightblue" stroke="midnightblue" points="2071.33,-494.69 2081.89,-493.86 2073.12,-487.92 2071.33,-494.69"/>
</g>
<!-- Node11 -->
<g id="node11" class="node">
<title>Node11</title>
<g id="a_node11"><a xlink:href="playback_8c.html#ab1a60ae60a667dbe83002a56fb1d4656" target="_top" xlink:title=" ">
<polygon fill="white" stroke="black" points="1554.5,-455.97 1554.5,-474.97 1633.5,-474.97 1633.5,-455.97 1554.5,-455.97"/>
<text text-anchor="middle" x="1594" y="-462.97" font-family="Helvetica,sans-Serif" font-size="10.00">note_disable</text>
</a>
</g>
</g>
<!-- Node8&#45;&gt;Node11 -->
<g id="edge11" class="edge">
<title>Node8&#45;&gt;Node11</title>
<path fill="none" stroke="midnightblue" d="M1458.92,-450.83C1484.36,-453.61 1517.5,-457.22 1544.46,-460.17"/>
<polygon fill="midnightblue" stroke="midnightblue" points="1544.14,-463.65 1554.46,-461.26 1544.9,-456.7 1544.14,-463.65"/>
</g>
<!-- Node12 -->
<g id="node12" class="node">
<title>Node12</title>
<g id="a_node12"><a xlink:href="playback_8c.html#a281646ee32b4a0af33bcb1e95afd624e" target="_top" xlink:title=" ">
<polygon fill="white" stroke="black" points="1704,-455.97 1704,-474.97 1843,-474.97 1843,-455.97 1704,-455.97"/>
<text text-anchor="middle" x="1773.5" y="-462.97" font-family="Helvetica,sans-Serif" font-size="10.00">note_set_vel_pan_reverb</text>
</a>
</g>
</g>
<!-- Node11&#45;&gt;Node12 -->
<g id="edge12" class="edge">
<title>Node11&#45;&gt;Node12</title>
<path fill="none" stroke="midnightblue" d="M1633.51,-465.47C1651.21,-465.47 1672.89,-465.47 1693.81,-465.47"/>
<polygon fill="midnightblue" stroke="midnightblue" points="1694,-468.97 1704,-465.47 1694,-461.97 1694,-468.97"/>
</g>
<!-- Node14 -->
<g id="node14" class="node">
<title>Node14</title>
<g id="a_node14"><a xlink:href="seqplayer_8c.html#a6de04cc97964a6560cc4f3e5a01426c1" target="_top" xlink:title=" ">
<polygon fill="white" stroke="black" points="799,-468.97 799,-487.97 939,-487.97 939,-468.97 799,-468.97"/>
<text text-anchor="middle" x="869" y="-475.97" font-family="Helvetica,sans-Serif" font-size="10.00">sequence_player_disable</text>
</a>
</g>
</g>
<!-- Node13&#45;&gt;Node14 -->
<g id="edge14" class="edge">
<title>Node13&#45;&gt;Node14</title>
<path fill="none" stroke="midnightblue" d="M762.74,-467.71C771.1,-468.56 779.92,-469.46 788.76,-470.37"/>
<polygon fill="midnightblue" stroke="midnightblue" points="788.42,-473.85 798.73,-471.39 789.13,-466.89 788.42,-473.85"/>
</g>
<!-- Node15 -->
<g id="node15" class="node">
<title>Node15</title>
<g id="a_node15"><a xlink:href="playback_8c.html#ab7a932f7c71e6b0511e3dbff42208251" target="_top" xlink:title=" ">
<polygon fill="white" stroke="black" points="1371,-493.97 1371,-512.97 1465,-512.97 1465,-493.97 1371,-493.97"/>
<text text-anchor="middle" x="1418" y="-500.97" font-family="Helvetica,sans-Serif" font-size="10.00">note_pool_clear</text>
</a>
</g>
</g>
<!-- Node14&#45;&gt;Node15 -->
<g id="edge15" class="edge">
<title>Node14&#45;&gt;Node15</title>
<path fill="none" stroke="midnightblue" d="M939,-481.62C1048.43,-486.62 1259.7,-496.28 1360.64,-500.89"/>
<polygon fill="midnightblue" stroke="midnightblue" points="1360.78,-504.4 1370.93,-501.36 1361.1,-497.41 1360.78,-504.4"/>
</g>
<!-- Node16 -->
<g id="node16" class="node">
<title>Node16</title>
<g id="a_node16"><a xlink:href="seqplayer_8c.html#afd6333d150711e68b7e4ccc3806a84b1" target="_top" xlink:title=" ">
<polygon fill="white" stroke="black" points="984,-507.47 984,-537.47 1124,-537.47 1124,-507.47 984,-507.47"/>
<text text-anchor="start" x="992" y="-525.47" font-family="Helvetica,sans-Serif" font-size="10.00">sequence_player_disable</text>
<text text-anchor="middle" x="1054" y="-514.47" font-family="Helvetica,sans-Serif" font-size="10.00">_channels</text>
</a>
</g>
</g>
<!-- Node14&#45;&gt;Node16 -->
<g id="edge18" class="edge">
<title>Node14&#45;&gt;Node16</title>
<path fill="none" stroke="midnightblue" d="M909.71,-488.02C930.4,-492.99 956.37,-499.24 980.49,-505.04"/>
<polygon fill="midnightblue" stroke="midnightblue" points="979.8,-508.47 990.34,-507.4 981.44,-501.66 979.8,-508.47"/>
</g>
<!-- Node15&#45;&gt;Node9 -->
<g id="edge16" class="edge">
<title>Node15&#45;&gt;Node9</title>
<path fill="none" stroke="midnightblue" d="M1462.91,-513.06C1486.18,-518.14 1514.95,-524.42 1539.52,-529.79"/>
<polygon fill="midnightblue" stroke="midnightblue" points="1538.89,-533.23 1549.41,-531.95 1540.39,-526.4 1538.89,-533.23"/>
</g>
<!-- Node15&#45;&gt;Node10 -->
<g id="edge17" class="edge">
<title>Node15&#45;&gt;Node10</title>
<path fill="none" stroke="midnightblue" d="M1465.03,-503.47C1586.35,-503.47 1914.98,-503.47 2053.54,-503.47"/>
<polygon fill="midnightblue" stroke="midnightblue" points="2053.58,-506.97 2063.58,-503.47 2053.58,-499.97 2053.58,-506.97"/>
</g>
<!-- Node17 -->
<g id="node17" class="node">
<title>Node17</title>
<g id="a_node17"><a xlink:href="seqplayer_8c.html#a5ea2292b93a79a70bfcf940ca16cd2c5" target="_top" xlink:title=" ">
<polygon fill="white" stroke="black" points="1169,-512.97 1169,-531.97 1316,-531.97 1316,-512.97 1169,-512.97"/>
<text text-anchor="middle" x="1242.5" y="-519.97" font-family="Helvetica,sans-Serif" font-size="10.00">sequence_channel_disable</text>
</a>
</g>
</g>
<!-- Node16&#45;&gt;Node17 -->
<g id="edge19" class="edge">
<title>Node16&#45;&gt;Node17</title>
<path fill="none" stroke="midnightblue" d="M1124.18,-522.47C1135.49,-522.47 1147.3,-522.47 1158.89,-522.47"/>
<polygon fill="midnightblue" stroke="midnightblue" points="1159,-525.97 1169,-522.47 1159,-518.97 1159,-525.97"/>
</g>
<!-- Node17&#45;&gt;Node15 -->
<g id="edge20" class="edge">
<title>Node17&#45;&gt;Node15</title>
<path fill="none" stroke="midnightblue" d="M1316.07,-514.52C1331.02,-512.88 1346.54,-511.18 1360.8,-509.62"/>
<polygon fill="midnightblue" stroke="midnightblue" points="1361.37,-513.08 1370.93,-508.51 1360.61,-506.12 1361.37,-513.08"/>
</g>
<!-- Node18 -->
<g id="node18" class="node">
<title>Node18</title>
<g id="a_node18"><a xlink:href="seqplayer_8c.html#a032b7f92199457fe1ce3dd8811305349" target="_top" xlink:title=" ">
<polygon fill="white" stroke="black" points="1352,-531.97 1352,-550.97 1484,-550.97 1484,-531.97 1352,-531.97"/>
<text text-anchor="middle" x="1418" y="-538.97" font-family="Helvetica,sans-Serif" font-size="10.00">seq_channel_layer_free</text>
</a>
</g>
</g>
<!-- Node17&#45;&gt;Node18 -->
<g id="edge21" class="edge">
<title>Node17&#45;&gt;Node18</title>
<path fill="none" stroke="midnightblue" d="M1316.07,-530.42C1324.62,-531.35 1333.35,-532.31 1341.93,-533.25"/>
<polygon fill="midnightblue" stroke="midnightblue" points="1341.58,-536.73 1351.9,-534.34 1342.34,-529.77 1341.58,-536.73"/>
</g>
<!-- Node18&#45;&gt;Node9 -->
<g id="edge22" class="edge">
<title>Node18&#45;&gt;Node9</title>
<path fill="none" stroke="midnightblue" d="M1484.29,-541.47C1496.99,-541.47 1510.36,-541.47 1523.21,-541.47"/>
<polygon fill="midnightblue" stroke="midnightblue" points="1523.37,-544.97 1533.37,-541.47 1523.37,-537.97 1523.37,-544.97"/>
</g>
<!-- Node19 -->
<g id="node19" class="node">
<title>Node19</title>
<g id="a_node19"><a xlink:href="seqplayer_8c.html#a656b06579fc7235de0a9ead95b4aeb29" target="_top" xlink:title=" ">
<polygon fill="white" stroke="black" points="1520,-569.97 1520,-588.97 1668,-588.97 1668,-569.97 1520,-569.97"/>
<text text-anchor="middle" x="1594" y="-576.97" font-family="Helvetica,sans-Serif" font-size="10.00">seq_channel_layer_disable</text>
</a>
</g>
</g>
<!-- Node18&#45;&gt;Node19 -->
<g id="edge23" class="edge">
<title>Node18&#45;&gt;Node19</title>
<path fill="none" stroke="midnightblue" d="M1462.91,-551.06C1486.18,-556.14 1514.95,-562.42 1539.52,-567.79"/>
<polygon fill="midnightblue" stroke="midnightblue" points="1538.89,-571.23 1549.41,-569.95 1540.39,-564.4 1538.89,-571.23"/>
</g>
<!-- Node20 -->
<g id="node20" class="node">
<title>Node20</title>
<g id="a_node20"><a xlink:href="playback_8c.html#a5a8c503b0091f9054e70f88feb90a603" target="_top" xlink:title=" ">
<polygon fill="white" stroke="black" points="1706.5,-556.47 1706.5,-586.47 1840.5,-586.47 1840.5,-556.47 1706.5,-556.47"/>
<text text-anchor="start" x="1714.5" y="-574.47" font-family="Helvetica,sans-Serif" font-size="10.00">seq_channel_layer_note</text>
<text text-anchor="middle" x="1773.5" y="-563.47" font-family="Helvetica,sans-Serif" font-size="10.00">_decay</text>
</a>
</g>
</g>
<!-- Node19&#45;&gt;Node20 -->
<g id="edge24" class="edge">
<title>Node19&#45;&gt;Node20</title>
<path fill="none" stroke="midnightblue" d="M1668.22,-576.17C1677.48,-575.75 1686.97,-575.32 1696.27,-574.9"/>
<polygon fill="midnightblue" stroke="midnightblue" points="1696.44,-578.4 1706.27,-574.45 1696.12,-571.41 1696.44,-578.4"/>
</g>
<!-- Node21 -->
<g id="node21" class="node">
<title>Node21</title>
<g id="a_node21"><a xlink:href="playback_8c.html#a689ccfe046fe63da331758ee7eec972a" target="_top" xlink:title=" ">
<polygon fill="white" stroke="black" points="1879,-540.47 1879,-570.47 2021,-570.47 2021,-540.47 1879,-540.47"/>
<text text-anchor="start" x="1887" y="-558.47" font-family="Helvetica,sans-Serif" font-size="10.00">seq_channel_layer_decay</text>
<text text-anchor="middle" x="1950" y="-547.47" font-family="Helvetica,sans-Serif" font-size="10.00">_release_internal</text>
</a>
</g>
</g>
<!-- Node20&#45;&gt;Node21 -->
<g id="edge25" class="edge">
<title>Node20&#45;&gt;Node21</title>
<path fill="none" stroke="midnightblue" d="M1840.97,-565.37C1850.09,-564.54 1859.54,-563.67 1868.88,-562.81"/>
<polygon fill="midnightblue" stroke="midnightblue" points="1869.31,-566.29 1878.94,-561.89 1868.67,-559.32 1869.31,-566.29"/>
</g>
<!-- Node21&#45;&gt;Node10 -->
<g id="edge27" class="edge">
<title>Node21&#45;&gt;Node10</title>
<path fill="none" stroke="midnightblue" d="M1998.87,-540.43C2023.43,-532.71 2053,-523.42 2076.35,-516.08"/>
<polygon fill="midnightblue" stroke="midnightblue" points="2077.46,-519.4 2085.95,-513.07 2075.36,-512.73 2077.46,-519.4"/>
</g>
<!-- Node22 -->
<g id="node22" class="node">
<title>Node22</title>
<g id="a_node22"><a xlink:href="playback_8c.html#aaa06908b1c008a03b28ed11241c45b19" target="_top" xlink:title=" ">
<polygon fill="white" stroke="black" points="2057,-545.97 2057,-564.97 2178,-564.97 2178,-545.97 2057,-545.97"/>
<text text-anchor="middle" x="2117.5" y="-552.97" font-family="Helvetica,sans-Serif" font-size="10.00">audio_list_push_front</text>
</a>
</g>
</g>
<!-- Node21&#45;&gt;Node22 -->
<g id="edge26" class="edge">
<title>Node21&#45;&gt;Node22</title>
<path fill="none" stroke="midnightblue" d="M2021.19,-555.47C2029.64,-555.47 2038.28,-555.47 2046.73,-555.47"/>
<polygon fill="midnightblue" stroke="midnightblue" points="2046.92,-558.97 2056.92,-555.47 2046.92,-551.97 2046.92,-558.97"/>
</g>
<!-- Node25 -->
<g id="node25" class="node">
<title>Node25</title>
<g id="a_node25"><a xlink:href="code__80071F00_8h.html#ae288a36d96a4db6977d95327e246ec12" target="_top" xlink:title=" ">
<polygon fill="white" stroke="black" points="1201,-238.97 1201,-257.97 1284,-257.97 1284,-238.97 1201,-238.97"/>
<text text-anchor="middle" x="1242.5" y="-245.97" font-family="Helvetica,sans-Serif" font-size="10.00">osPiStartDma</text>
</a>
</g>
</g>
<!-- Node24&#45;&gt;Node25 -->
<g id="edge30" class="edge">
<title>Node24&#45;&gt;Node25</title>
<path fill="none" stroke="midnightblue" d="M1133.01,-255.45C1152.54,-254.19 1172.98,-252.88 1190.79,-251.73"/>
<polygon fill="midnightblue" stroke="midnightblue" points="1191.18,-255.21 1200.94,-251.08 1190.73,-248.23 1191.18,-255.21"/>
</g>
<!-- Node36 -->
<g id="node36" class="node">
<title>Node36</title>
<g id="a_node36"><a xlink:href="code__80071F00_8h.html#a4283cbf896ea7ca31653640f6dd237af" target="_top" xlink:title=" ">
<polygon fill="white" stroke="black" points="1379,-151.97 1379,-170.97 1457,-170.97 1457,-151.97 1379,-151.97"/>
<text text-anchor="middle" x="1418" y="-158.97" font-family="Helvetica,sans-Serif" font-size="10.00">osRecvMesg</text>
</a>
</g>
</g>
<!-- Node24&#45;&gt;Node36 -->
<g id="edge50" class="edge">
<title>Node24&#45;&gt;Node36</title>
<path fill="none" stroke="midnightblue" d="M1090.04,-250.89C1156.22,-232.79 1299.47,-193.61 1372.4,-173.67"/>
<polygon fill="midnightblue" stroke="midnightblue" points="1373.48,-177 1382.21,-170.98 1371.64,-170.25 1373.48,-177"/>
</g>
<!-- Node26 -->
<g id="node26" class="node">
<title>Node26</title>
<g id="a_node26"><a xlink:href="osJamMesg_8c.html#ac69f7738a5120910a2f6202d27fb44f4" target="_top" xlink:title=" ">
<polygon fill="white" stroke="black" points="1381.5,-265.97 1381.5,-284.97 1454.5,-284.97 1454.5,-265.97 1381.5,-265.97"/>
<text text-anchor="middle" x="1418" y="-272.97" font-family="Helvetica,sans-Serif" font-size="10.00">osJamMesg</text>
</a>
</g>
</g>
<!-- Node25&#45;&gt;Node26 -->
<g id="edge31" class="edge">
<title>Node25&#45;&gt;Node26</title>
<path fill="none" stroke="midnightblue" d="M1284.18,-254.8C1310.29,-258.86 1344.24,-264.15 1371.29,-268.35"/>
<polygon fill="midnightblue" stroke="midnightblue" points="1370.86,-271.83 1381.28,-269.91 1371.94,-264.91 1370.86,-271.83"/>
</g>
<!-- Node34 -->
<g id="node34" class="node">
<title>Node34</title>
<g id="a_node34"><a xlink:href="osPiGetCmdQueue_8c.html#a0fb5a57f9e199d8bb06e19ba556efac0" target="_top" xlink:title=" ">
<polygon fill="white" stroke="black" points="1364,-189.97 1364,-208.97 1472,-208.97 1472,-189.97 1364,-189.97"/>
<text text-anchor="middle" x="1418" y="-196.97" font-family="Helvetica,sans-Serif" font-size="10.00">osPiGetCmdQueue</text>
</a>
</g>
</g>
<!-- Node25&#45;&gt;Node34 -->
<g id="edge43" class="edge">
<title>Node25&#45;&gt;Node34</title>
<path fill="none" stroke="midnightblue" d="M1277.36,-238.9C1304.83,-231.15 1343.73,-220.16 1373.5,-211.75"/>
<polygon fill="midnightblue" stroke="midnightblue" points="1374.55,-215.09 1383.22,-209.01 1372.65,-208.36 1374.55,-215.09"/>
</g>
<!-- Node35 -->
<g id="node35" class="node">
<title>Node35</title>
<g id="a_node35"><a xlink:href="osSendMesg_8c.html#a413bd1b0a16c54dcc9e59c48b3d7f142" target="_top" xlink:title=" ">
<polygon fill="white" stroke="black" points="1379,-227.97 1379,-246.97 1457,-246.97 1457,-227.97 1379,-227.97"/>
<text text-anchor="middle" x="1418" y="-234.97" font-family="Helvetica,sans-Serif" font-size="10.00">osSendMesg</text>
</a>
</g>
</g>
<!-- Node25&#45;&gt;Node35 -->
<g id="edge44" class="edge">
<title>Node25&#45;&gt;Node35</title>
<path fill="none" stroke="midnightblue" d="M1284.18,-245.89C1309.47,-244.29 1342.11,-242.22 1368.71,-240.53"/>
<polygon fill="midnightblue" stroke="midnightblue" points="1369.19,-244.01 1378.95,-239.88 1368.75,-237.02 1369.19,-244.01"/>
</g>
<!-- Node27 -->
<g id="node27" class="node">
<title>Node27</title>
<g id="a_node27"><a xlink:href="libultra__internal_8h.html#a8ad9db8aa6bfc4437abdd0363b663b16" target="_top" xlink:title=" ">
<polygon fill="white" stroke="black" points="1729.5,-18.97 1729.5,-37.97 1817.5,-37.97 1817.5,-18.97 1729.5,-18.97"/>
<text text-anchor="middle" x="1773.5" y="-25.97" font-family="Helvetica,sans-Serif" font-size="10.00">__osDisableInt</text>
</a>
</g>
</g>
<!-- Node26&#45;&gt;Node27 -->
<g id="edge32" class="edge">
<title>Node26&#45;&gt;Node27</title>
<path fill="none" stroke="midnightblue" d="M1454.65,-271.97C1465.36,-269.26 1476.3,-264.56 1484,-256.47 1531.28,-206.82 1473.1,-156.48 1520,-106.47 1571.71,-51.34 1661.44,-34.86 1718.83,-30.12"/>
<polygon fill="midnightblue" stroke="midnightblue" points="1719.44,-33.58 1729.16,-29.36 1718.93,-26.6 1719.44,-33.58"/>
</g>
<!-- Node28 -->
<g id="node28" class="node">
<title>Node28</title>
<g id="a_node28"><a xlink:href="libultra__internal_8h.html#afe9c3abc4ca93d9fe18a87d9f108d5cb" target="_top" xlink:title=" ">
<polygon fill="white" stroke="black" points="1712,-227.97 1712,-246.97 1835,-246.97 1835,-227.97 1712,-227.97"/>
<text text-anchor="middle" x="1773.5" y="-234.97" font-family="Helvetica,sans-Serif" font-size="10.00">__osEnqueueAndYield</text>
</a>
</g>
</g>
<!-- Node26&#45;&gt;Node28 -->
<g id="edge33" class="edge">
<title>Node26&#45;&gt;Node28</title>
<path fill="none" stroke="midnightblue" d="M1454.51,-272.46C1502.85,-268.28 1592.07,-260.21 1668,-251.47 1678.86,-250.22 1690.34,-248.79 1701.56,-247.33"/>
<polygon fill="midnightblue" stroke="midnightblue" points="1702.3,-250.77 1711.76,-245.99 1701.39,-243.82 1702.3,-250.77"/>
</g>
<!-- Node29 -->
<g id="node29" class="node">
<title>Node29</title>
<g id="a_node29"><a xlink:href="libultra__internal_8h.html#a82b6b8e6a4311b516950168ef4078e33" target="_top" xlink:title=" ">
<polygon fill="white" stroke="black" points="1728.5,-293.97 1728.5,-312.97 1818.5,-312.97 1818.5,-293.97 1728.5,-293.97"/>
<text text-anchor="middle" x="1773.5" y="-300.97" font-family="Helvetica,sans-Serif" font-size="10.00">__osPopThread</text>
</a>
</g>
</g>
<!-- Node26&#45;&gt;Node29 -->
<g id="edge34" class="edge">
<title>Node26&#45;&gt;Node29</title>
<path fill="none" stroke="midnightblue" d="M1425.73,-284.98C1440.26,-304.58 1476.76,-349 1520,-365.47 1581.47,-388.88 1604.57,-382.87 1668,-365.47 1700.61,-356.52 1733.35,-334.48 1753.27,-319.24"/>
<polygon fill="midnightblue" stroke="midnightblue" points="1755.53,-321.91 1761.23,-312.99 1751.21,-316.41 1755.53,-321.91"/>
</g>
<!-- Node30 -->
<g id="node30" class="node">
<title>Node30</title>
<g id="a_node30"><a xlink:href="libultra__internal_8h.html#aecafa57b85fd739d6033705808194def" target="_top" xlink:title=" ">
<polygon fill="white" stroke="black" points="1729,-84.97 1729,-103.97 1818,-103.97 1818,-84.97 1729,-84.97"/>
<text text-anchor="middle" x="1773.5" y="-91.97" font-family="Helvetica,sans-Serif" font-size="10.00">__osRestoreInt</text>
</a>
</g>
</g>
<!-- Node26&#45;&gt;Node30 -->
<g id="edge35" class="edge">
<title>Node26&#45;&gt;Node30</title>
<path fill="none" stroke="midnightblue" d="M1454.66,-271.56C1465.24,-268.81 1476.1,-264.2 1484,-256.47 1521.97,-219.3 1480.28,-177.76 1520,-142.47 1534.72,-129.39 1649.25,-111.52 1718.91,-101.69"/>
<polygon fill="midnightblue" stroke="midnightblue" points="1719.42,-105.15 1728.84,-100.3 1718.45,-98.22 1719.42,-105.15"/>
</g>
<!-- Node31 -->
<g id="node31" class="node">
<title>Node31</title>
<g id="a_node31"><a xlink:href="osStartThread_8c.html#a3b144e814933e16a2fbf2642ad098ed3" target="_top" xlink:title=" ">
<polygon fill="white" stroke="black" points="1551.5,-151.97 1551.5,-170.97 1636.5,-170.97 1636.5,-151.97 1551.5,-151.97"/>
<text text-anchor="middle" x="1594" y="-158.97" font-family="Helvetica,sans-Serif" font-size="10.00">osStartThread</text>
</a>
</g>
</g>
<!-- Node26&#45;&gt;Node31 -->
<g id="edge36" class="edge">
<title>Node26&#45;&gt;Node31</title>
<path fill="none" stroke="midnightblue" d="M1454.51,-268.08C1464.41,-265.23 1474.92,-261.43 1484,-256.47 1521.91,-235.73 1558.12,-199.92 1577.78,-178.69"/>
<polygon fill="midnightblue" stroke="midnightblue" points="1580.56,-180.83 1584.7,-171.08 1575.38,-176.13 1580.56,-180.83"/>
</g>
<!-- Node31&#45;&gt;Node27 -->
<g id="edge37" class="edge">
<title>Node31&#45;&gt;Node27</title>
<path fill="none" stroke="midnightblue" d="M1606.58,-151.92C1626.27,-135.76 1667.7,-102.19 1704,-75.47 1718.82,-64.56 1735.87,-52.85 1749.26,-43.85"/>
<polygon fill="midnightblue" stroke="midnightblue" points="1751.5,-46.56 1757.87,-38.1 1747.61,-40.74 1751.5,-46.56"/>
</g>
<!-- Node31&#45;&gt;Node28 -->
<g id="edge39" class="edge">
<title>Node31&#45;&gt;Node28</title>
<path fill="none" stroke="midnightblue" d="M1627.34,-171C1640.15,-175.06 1654.92,-180.1 1668,-185.47 1695.31,-196.68 1725.38,-211.98 1746.22,-223.07"/>
<polygon fill="midnightblue" stroke="midnightblue" points="1744.64,-226.19 1755.11,-227.84 1747.96,-220.03 1744.64,-226.19"/>
</g>
<!-- Node31&#45;&gt;Node29 -->
<g id="edge41" class="edge">
<title>Node31&#45;&gt;Node29</title>
<path fill="none" stroke="midnightblue" d="M1606.49,-171C1620.97,-183.06 1646.56,-204.55 1668,-223.47 1684.27,-237.83 1687.01,-242.96 1704,-256.47 1718.31,-267.84 1735.24,-279.48 1748.69,-288.32"/>
<polygon fill="midnightblue" stroke="midnightblue" points="1747.08,-291.45 1757.37,-293.97 1750.89,-285.58 1747.08,-291.45"/>
</g>
<!-- Node31&#45;&gt;Node30 -->
<g id="edge42" class="edge">
<title>Node31&#45;&gt;Node30</title>
<path fill="none" stroke="midnightblue" d="M1625.72,-151.92C1638.82,-147.7 1654.23,-142.56 1668,-137.47 1681.79,-132.37 1715.24,-118.51 1740.61,-107.89"/>
<polygon fill="midnightblue" stroke="midnightblue" points="1742.01,-111.09 1749.88,-104 1739.31,-104.64 1742.01,-111.09"/>
</g>
<!-- Node32 -->
<g id="node32" class="node">
<title>Node32</title>
<g id="a_node32"><a xlink:href="libultra__internal_8h.html#a650b788ebd5efde9c8cbccc1ee832445" target="_top" xlink:title=" ">
<polygon fill="white" stroke="black" points="1716,-170.97 1716,-189.97 1831,-189.97 1831,-170.97 1716,-170.97"/>
<text text-anchor="middle" x="1773.5" y="-177.97" font-family="Helvetica,sans-Serif" font-size="10.00">__osDispatchThread</text>
</a>
</g>
</g>
<!-- Node31&#45;&gt;Node32 -->
<g id="edge38" class="edge">
<title>Node31&#45;&gt;Node32</title>
<path fill="none" stroke="midnightblue" d="M1636.62,-165.92C1657.15,-168.12 1682.42,-170.83 1705.57,-173.3"/>
<polygon fill="midnightblue" stroke="midnightblue" points="1705.38,-176.8 1715.69,-174.39 1706.12,-169.84 1705.38,-176.8"/>
</g>
<!-- Node33 -->
<g id="node33" class="node">
<title>Node33</title>
<g id="a_node33"><a xlink:href="libultra__internal_8h.html#ac9d6cfd19de5565e74f1d74a14e9092d" target="_top" xlink:title=" ">
<polygon fill="white" stroke="black" points="1716.5,-132.97 1716.5,-151.97 1830.5,-151.97 1830.5,-132.97 1716.5,-132.97"/>
<text text-anchor="middle" x="1773.5" y="-139.97" font-family="Helvetica,sans-Serif" font-size="10.00">__osEnqueueThread</text>
</a>
</g>
</g>
<!-- Node31&#45;&gt;Node33 -->
<g id="edge40" class="edge">
<title>Node31&#45;&gt;Node33</title>
<path fill="none" stroke="midnightblue" d="M1636.62,-157.01C1657.32,-154.8 1682.86,-152.06 1706.18,-149.57"/>
<polygon fill="midnightblue" stroke="midnightblue" points="1706.79,-153.02 1716.36,-148.48 1706.04,-146.06 1706.79,-153.02"/>
</g>
<!-- Node35&#45;&gt;Node27 -->
<g id="edge45" class="edge">
<title>Node35&#45;&gt;Node27</title>
<path fill="none" stroke="midnightblue" d="M1457.23,-233.54C1467.17,-230.75 1477.03,-226.11 1484,-218.47 1540.44,-156.57 1455.89,-87.38 1520,-33.47 1580.21,17.17 1680.07,-0.72 1734.41,-15.95"/>
<polygon fill="midnightblue" stroke="midnightblue" points="1733.75,-19.41 1744.33,-18.85 1735.71,-12.69 1733.75,-19.41"/>
</g>
<!-- Node35&#45;&gt;Node28 -->
<g id="edge46" class="edge">
<title>Node35&#45;&gt;Node28</title>
<path fill="none" stroke="midnightblue" d="M1457.17,-237.47C1515.57,-237.47 1628.06,-237.47 1701.69,-237.47"/>
<polygon fill="midnightblue" stroke="midnightblue" points="1701.81,-240.97 1711.81,-237.47 1701.81,-233.97 1701.81,-240.97"/>
</g>
<!-- Node35&#45;&gt;Node29 -->
<g id="edge47" class="edge">
<title>Node35&#45;&gt;Node29</title>
<path fill="none" stroke="midnightblue" d="M1457.17,-244.59C1520.13,-256.35 1645.96,-279.84 1718.18,-293.33"/>
<polygon fill="midnightblue" stroke="midnightblue" points="1717.96,-296.85 1728.43,-295.24 1719.24,-289.96 1717.96,-296.85"/>
</g>
<!-- Node35&#45;&gt;Node30 -->
<g id="edge48" class="edge">
<title>Node35&#45;&gt;Node30</title>
<path fill="none" stroke="midnightblue" d="M1457.3,-232.75C1467.01,-229.94 1476.73,-225.49 1484,-218.47 1520.69,-183.02 1479.56,-140.57 1520,-109.47 1578.99,-64.1 1670.52,-72.22 1725.66,-82.9"/>
<polygon fill="midnightblue" stroke="midnightblue" points="1725.02,-86.34 1735.52,-84.91 1726.42,-79.48 1725.02,-86.34"/>
</g>
<!-- Node35&#45;&gt;Node31 -->
<g id="edge49" class="edge">
<title>Node35&#45;&gt;Node31</title>
<path fill="none" stroke="midnightblue" d="M1456.21,-227.96C1465.42,-225.24 1475.17,-222.03 1484,-218.47 1514.02,-206.37 1546.7,-188.62 1568.37,-176.15"/>
<polygon fill="midnightblue" stroke="midnightblue" points="1570.34,-179.05 1577.22,-170.99 1566.82,-173 1570.34,-179.05"/>
</g>
<!-- Node36&#45;&gt;Node27 -->
<g id="edge51" class="edge">
<title>Node36&#45;&gt;Node27</title>
<path fill="none" stroke="midnightblue" d="M1424.61,-151.92C1437.95,-130.19 1473.96,-77.19 1520,-54.47 1583.17,-23.3 1665.89,-20.91 1719.13,-23.52"/>
<polygon fill="midnightblue" stroke="midnightblue" points="1719.18,-27.03 1729.37,-24.1 1719.58,-20.04 1719.18,-27.03"/>
</g>
<!-- Node36&#45;&gt;Node28 -->
<g id="edge52" class="edge">
<title>Node36&#45;&gt;Node28</title>
<path fill="none" stroke="midnightblue" d="M1457.17,-169.67C1520.17,-183.22 1646.13,-210.3 1718.33,-225.82"/>
<polygon fill="midnightblue" stroke="midnightblue" points="1717.63,-229.25 1728.15,-227.93 1719.11,-222.41 1717.63,-229.25"/>
</g>
<!-- Node36&#45;&gt;Node29 -->
<g id="edge53" class="edge">
<title>Node36&#45;&gt;Node29</title>
<path fill="none" stroke="midnightblue" d="M1457.26,-169.6C1466.34,-172.35 1475.77,-175.91 1484,-180.47 1502.73,-190.83 1501.2,-202.23 1520,-212.47 1579.95,-245.1 1604.08,-229.53 1668,-253.47 1695.28,-263.68 1725.13,-278.34 1745.92,-289.15"/>
<polygon fill="midnightblue" stroke="midnightblue" points="1744.32,-292.26 1754.8,-293.81 1747.57,-286.06 1744.32,-292.26"/>
</g>
<!-- Node36&#45;&gt;Node30 -->
<g id="edge54" class="edge">
<title>Node36&#45;&gt;Node30</title>
<path fill="none" stroke="midnightblue" d="M1425.73,-151.95C1440.26,-132.36 1476.76,-87.94 1520,-71.47 1593.31,-43.54 1686.93,-65.65 1737.04,-81.66"/>
<polygon fill="midnightblue" stroke="midnightblue" points="1736.17,-85.05 1746.76,-84.86 1738.36,-78.4 1736.17,-85.05"/>
</g>
<!-- Node36&#45;&gt;Node31 -->
<g id="edge55" class="edge">
<title>Node36&#45;&gt;Node31</title>
<path fill="none" stroke="midnightblue" d="M1457.19,-161.47C1481.85,-161.47 1514.24,-161.47 1541.21,-161.47"/>
<polygon fill="midnightblue" stroke="midnightblue" points="1541.25,-164.97 1551.25,-161.47 1541.25,-157.97 1541.25,-164.97"/>
</g>
<!-- Node38 -->
<g id="node38" class="node">
<title>Node38</title>
<g id="a_node38"><a xlink:href="load_8c.html#a1a5cff71e5c10ffbe459f2a317fc5005" target="_top" xlink:title=" ">
<polygon fill="white" stroke="black" points="658,-326.97 658,-345.97 763,-345.97 763,-326.97 658,-326.97"/>
<text text-anchor="middle" x="710.5" y="-333.97" font-family="Helvetica,sans-Serif" font-size="10.00">patch_audio_bank</text>
</a>
</g>
</g>
<!-- Node37&#45;&gt;Node38 -->
<g id="edge57" class="edge">
<title>Node37&#45;&gt;Node38</title>
<path fill="none" stroke="midnightblue" d="M603.8,-336.47C617.64,-336.47 633.09,-336.47 647.82,-336.47"/>
<polygon fill="midnightblue" stroke="midnightblue" points="647.87,-339.97 657.87,-336.47 647.87,-332.97 647.87,-339.97"/>
</g>
<!-- Node39 -->
<g id="node39" class="node">
<title>Node39</title>
<g id="a_node39"><a xlink:href="load_8c.html#acbb441247e4f7d446c35a14bd75b61d6" target="_top" xlink:title=" ">
<polygon fill="white" stroke="black" points="830,-326.97 830,-345.97 908,-345.97 908,-326.97 830,-326.97"/>
<text text-anchor="middle" x="869" y="-333.97" font-family="Helvetica,sans-Serif" font-size="10.00">patch_sound</text>
</a>
</g>
</g>
<!-- Node38&#45;&gt;Node39 -->
<g id="edge58" class="edge">
<title>Node38&#45;&gt;Node39</title>
<path fill="none" stroke="midnightblue" d="M763.18,-336.47C781.34,-336.47 801.66,-336.47 819.55,-336.47"/>
<polygon fill="midnightblue" stroke="midnightblue" points="819.76,-339.97 829.76,-336.47 819.76,-332.97 819.76,-339.97"/>
</g>
<!-- Node39&#45;&gt;Node23 -->
<g id="edge60" class="edge">
<title>Node39&#45;&gt;Node23</title>
<path fill="none" stroke="midnightblue" d="M908.36,-340.45C937.65,-343.49 978.05,-347.69 1008.7,-350.87"/>
<polygon fill="midnightblue" stroke="midnightblue" points="1008.39,-354.36 1018.7,-351.91 1009.11,-347.39 1008.39,-354.36"/>
</g>
<!-- Node39&#45;&gt;Node24 -->
<g id="edge59" class="edge">
<title>Node39&#45;&gt;Node24</title>
<path fill="none" stroke="midnightblue" d="M899.43,-326.91C911.75,-322.73 926.17,-317.61 939,-312.47 968.5,-300.64 1001.47,-285.37 1024.33,-274.45"/>
<polygon fill="midnightblue" stroke="midnightblue" points="1025.97,-277.54 1033.47,-270.05 1022.94,-271.23 1025.97,-277.54"/>
</g>
<!-- Node40&#45;&gt;Node7 -->
<g id="edge63" class="edge">
<title>Node40&#45;&gt;Node7</title>
<path fill="none" stroke="midnightblue" d="M427.16,-346.06C450.29,-351.14 478.9,-357.42 503.33,-362.79"/>
<polygon fill="midnightblue" stroke="midnightblue" points="502.64,-366.22 513.16,-364.95 504.14,-359.38 502.64,-366.22"/>
</g>
<!-- Node40&#45;&gt;Node24 -->
<g id="edge64" class="edge">
<title>Node40&#45;&gt;Node24</title>
<path fill="none" stroke="midnightblue" d="M398.71,-326.81C419.21,-314.38 457.25,-293.33 493,-284.47 655.57,-244.15 852.69,-247.2 964.41,-253.53"/>
<polygon fill="midnightblue" stroke="midnightblue" points="964.43,-257.03 974.62,-254.13 964.84,-250.04 964.43,-257.03"/>
</g>
</g>
</svg>
        <g id="navigator" transform="translate(0 0)" fill="#404254">
                <rect fill="#f2f5e9" fill-opacity="0.5" stroke="#606060" stroke-width=".5" x="0" y="0" width="60" height="60"/>
                <use id="zoomplus" xlink:href="#zoomPlus" x="17" y="9" onmousedown="handleZoom(evt,'in')"/>
                <use id="zoomminus" xlink:href="#zoomMin" x="42" y="9" onmousedown="handleZoom(evt,'out')"/>
                <use id="reset" xlink:href="#resetDef" x="30" y="36" onmousedown="handleReset()"/>
                <g id="arrowUp" xlink:href="#dirArrow" transform="translate(30 24)" onmousedown="handlePan(0,-1)">
                  <use xlink:href="#rim" fill="#404040">
                        <set attributeName="fill" to="#808080" begin="arrowUp.mouseover" end="arrowUp.mouseout"/>
                  </use>
                  <path fill="none" stroke="white" stroke-width="1.5" d="M0,-3.0v7 M-2.5,-0.5L0,-3.0L2.5,-0.5"/>
                </g>
                <g id="arrowRight" xlink:href="#dirArrow" transform="rotate(90) translate(36 -43)" onmousedown="handlePan(1,0)">
                  <use xlink:href="#rim" fill="#404040">
                        <set attributeName="fill" to="#808080" begin="arrowRight.mouseover" end="arrowRight.mouseout"/>
                  </use>
                  <path fill="none" stroke="white" stroke-width="1.5" d="M0,-3.0v7 M-2.5,-0.5L0,-3.0L2.5,-0.5"/>
                </g>
                <g id="arrowDown" xlink:href="#dirArrow" transform="rotate(180) translate(-30 -48)" onmousedown="handlePan(0,1)">
                  <use xlink:href="#rim" fill="#404040">
                        <set attributeName="fill" to="#808080" begin="arrowDown.mouseover" end="arrowDown.mouseout"/>
                  </use>
                  <path fill="none" stroke="white" stroke-width="1.5" d="M0,-3.0v7 M-2.5,-0.5L0,-3.0L2.5,-0.5"/>
                </g>
                <g id="arrowLeft" xlink:href="#dirArrow" transform="rotate(270) translate(-36 17)" onmousedown="handlePan(-1,0)">
                  <use xlink:href="#rim" fill="#404040">
                        <set attributeName="fill" to="#808080" begin="arrowLeft.mouseover" end="arrowLeft.mouseout"/>
                  </use>
                  <path fill="none" stroke="white" stroke-width="1.5" d="M0,-3.0v7 M-2.5,-0.5L0,-3.0L2.5,-0.5"/>
                </g>
        </g>
        <svg viewBox="0 0 15 15" width="100%" height="30px" preserveAspectRatio="xMaxYMin meet">
         <g id="arrow_out" transform="scale(0.3 0.3)">
          <a xlink:href="load_8h_a9c1bfb29806b05fc3a700184dcac6880_cgraph_org.svg" target="_base">
           <rect id="button" ry="5" rx="5" y="6" x="6" height="38" width="38"
                fill="#f2f5e9" fill-opacity="0.5" stroke="#606060" stroke-width="1.0"/>
           <path id="arrow"
             d="M 11.500037,31.436501 C 11.940474,20.09759 22.043105,11.32322 32.158766,21.979434 L 37.068811,17.246167 C 37.068811,17.246167 37.088388,32 37.088388,32 L 22.160133,31.978069 C 22.160133,31.978069 26.997745,27.140456 26.997745,27.140456 C 18.528582,18.264221 13.291696,25.230495 11.500037,31.436501 z"
             style="fill:#404040;"/>
          </a>
         </g>
        </svg>
</svg>
