<?xml version="1.0" encoding="UTF-8" standalone="no"?>
<!DOCTYPE svg PUBLIC "-//W3C//DTD SVG 1.1//EN"
 "http://www.w3.org/Graphics/SVG/1.1/DTD/svg11.dtd">
<!-- Generated by graphviz version 2.43.0 (0)
 -->
<!-- Title: src/math_util_2.h Pages: 1 -->
<svg width="1211pt" height="196pt"
 viewBox="0.00 0.00 1211.00 196.00" xmlns="http://www.w3.org/2000/svg" xmlns:xlink="http://www.w3.org/1999/xlink">
<g id="graph0" class="graph" transform="scale(1 1) rotate(0) translate(4 192)">
<title>src/math_util_2.h</title>
<polygon fill="white" stroke="transparent" points="-4,4 -4,-192 1207,-192 1207,4 -4,4"/>
<!-- Node1 -->
<g id="node1" class="node">
<title>Node1</title>
<g id="a_node1"><a xlink:title=" ">
<polygon fill="#bfbfbf" stroke="black" points="551,-168.5 551,-187.5 652,-187.5 652,-168.5 551,-168.5"/>
<text text-anchor="middle" x="601.5" y="-175.5" font-family="Helvetica,sans-Serif" font-size="10.00">src/math_util_2.h</text>
</a>
</g>
</g>
<!-- Node2 -->
<g id="node2" class="node">
<title>Node2</title>
<g id="a_node2"><a xlink:href="external_8c.html" target="_top" xlink:title=" ">
<polygon fill="white" stroke="black" points="0,-112.5 0,-131.5 113,-131.5 113,-112.5 0,-112.5"/>
<text text-anchor="middle" x="56.5" y="-119.5" font-family="Helvetica,sans-Serif" font-size="10.00">src/audio/external.c</text>
</a>
</g>
</g>
<!-- Node1&#45;&gt;Node2 -->
<g id="edge1" class="edge">
<title>Node1&#45;&gt;Node2</title>
<path fill="none" stroke="midnightblue" d="M540.6,-172.1C449.53,-164.59 272.51,-149.27 122.5,-132 119.4,-131.64 116.22,-131.26 113.01,-130.86"/>
<polygon fill="midnightblue" stroke="midnightblue" points="540.48,-175.6 550.74,-172.93 541.06,-168.63 540.48,-175.6"/>
</g>
<!-- Node3 -->
<g id="node3" class="node">
<title>Node3</title>
<g id="a_node3"><a xlink:href="code__8001F980_8c.html" target="_top" xlink:title=" ">
<polygon fill="white" stroke="black" points="131,-112.5 131,-131.5 250,-131.5 250,-112.5 131,-112.5"/>
<text text-anchor="middle" x="190.5" y="-119.5" font-family="Helvetica,sans-Serif" font-size="10.00">src/code_8001F980.c</text>
</a>
</g>
</g>
<!-- Node1&#45;&gt;Node3 -->
<g id="edge2" class="edge">
<title>Node1&#45;&gt;Node3</title>
<path fill="none" stroke="midnightblue" d="M540.51,-168.99C462.35,-158.72 327.69,-141.03 250.17,-130.84"/>
<polygon fill="midnightblue" stroke="midnightblue" points="540.32,-172.49 550.69,-170.32 541.23,-165.55 540.32,-172.49"/>
</g>
<!-- Node4 -->
<g id="node4" class="node">
<title>Node4</title>
<g id="a_node4"><a xlink:href="code__80057C60_8c.html" target="_top" xlink:title=" ">
<polygon fill="white" stroke="black" points="268,-112.5 268,-131.5 387,-131.5 387,-112.5 268,-112.5"/>
<text text-anchor="middle" x="327.5" y="-119.5" font-family="Helvetica,sans-Serif" font-size="10.00">src/code_80057C60.c</text>
</a>
</g>
</g>
<!-- Node1&#45;&gt;Node4 -->
<g id="edge3" class="edge">
<title>Node1&#45;&gt;Node4</title>
<path fill="none" stroke="midnightblue" d="M548.09,-166.47C496.3,-156.27 418.73,-140.98 370.71,-131.52"/>
<polygon fill="midnightblue" stroke="midnightblue" points="547.6,-169.94 558.08,-168.44 548.95,-163.08 547.6,-169.94"/>
</g>
<!-- Node5 -->
<g id="node5" class="node">
<title>Node5</title>
<g id="a_node5"><a xlink:href="code__80071F00_8c.html" target="_top" xlink:title=" ">
<polygon fill="white" stroke="black" points="405,-112.5 405,-131.5 524,-131.5 524,-112.5 405,-112.5"/>
<text text-anchor="middle" x="464.5" y="-119.5" font-family="Helvetica,sans-Serif" font-size="10.00">src/code_80071F00.c</text>
</a>
</g>
</g>
<!-- Node1&#45;&gt;Node5 -->
<g id="edge4" class="edge">
<title>Node1&#45;&gt;Node5</title>
<path fill="none" stroke="midnightblue" d="M570.48,-164.77C544.74,-154.63 508.81,-140.47 486.11,-131.52"/>
<polygon fill="midnightblue" stroke="midnightblue" points="569.21,-168.03 579.79,-168.44 571.77,-161.52 569.21,-168.03"/>
</g>
<!-- Node6 -->
<g id="node6" class="node">
<title>Node6</title>
<g id="a_node6"><a xlink:href="code__80086E70_8c.html" target="_top" xlink:title=" ">
<polygon fill="white" stroke="black" points="542,-112.5 542,-131.5 661,-131.5 661,-112.5 542,-112.5"/>
<text text-anchor="middle" x="601.5" y="-119.5" font-family="Helvetica,sans-Serif" font-size="10.00">src/code_80086E70.c</text>
</a>
</g>
</g>
<!-- Node1&#45;&gt;Node6 -->
<g id="edge5" class="edge">
<title>Node1&#45;&gt;Node6</title>
<path fill="none" stroke="midnightblue" d="M601.5,-157.8C601.5,-148.91 601.5,-138.78 601.5,-131.75"/>
<polygon fill="midnightblue" stroke="midnightblue" points="598,-158.08 601.5,-168.08 605,-158.08 598,-158.08"/>
</g>
<!-- Node7 -->
<g id="node7" class="node">
<title>Node7</title>
<g id="a_node7"><a xlink:href="all__variables_8h.html" target="_top" xlink:title=" ">
<polygon fill="white" stroke="black" points="679.5,-112.5 679.5,-131.5 817.5,-131.5 817.5,-112.5 679.5,-112.5"/>
<text text-anchor="middle" x="748.5" y="-119.5" font-family="Helvetica,sans-Serif" font-size="10.00">src/debug/all_variables.h</text>
</a>
</g>
</g>
<!-- Node1&#45;&gt;Node7 -->
<g id="edge6" class="edge">
<title>Node1&#45;&gt;Node7</title>
<path fill="none" stroke="midnightblue" d="M634.42,-164.91C662.06,-154.75 700.84,-140.51 725.32,-131.52"/>
<polygon fill="midnightblue" stroke="midnightblue" points="632.97,-161.71 624.79,-168.44 635.39,-168.28 632.97,-161.71"/>
</g>
<!-- Node10 -->
<g id="node10" class="node">
<title>Node10</title>
<g id="a_node10"><a xlink:href="hud__renderer_8c.html" target="_top" xlink:title=" ">
<polygon fill="white" stroke="black" points="835.5,-112.5 835.5,-131.5 941.5,-131.5 941.5,-112.5 835.5,-112.5"/>
<text text-anchor="middle" x="888.5" y="-119.5" font-family="Helvetica,sans-Serif" font-size="10.00">src/hud_renderer.c</text>
</a>
</g>
</g>
<!-- Node1&#45;&gt;Node10 -->
<g id="edge9" class="edge">
<title>Node1&#45;&gt;Node10</title>
<path fill="none" stroke="midnightblue" d="M657.11,-166.54C711.35,-156.33 792.84,-141 843.24,-131.52"/>
<polygon fill="midnightblue" stroke="midnightblue" points="656.16,-163.15 646.98,-168.44 657.45,-170.03 656.16,-163.15"/>
</g>
<!-- Node11 -->
<g id="node11" class="node">
<title>Node11</title>
<g id="a_node11"><a xlink:href="math__util__2_8c.html" target="_top" xlink:title=" ">
<polygon fill="white" stroke="black" points="959.5,-112.5 959.5,-131.5 1059.5,-131.5 1059.5,-112.5 959.5,-112.5"/>
<text text-anchor="middle" x="1009.5" y="-119.5" font-family="Helvetica,sans-Serif" font-size="10.00">src/math_util_2.c</text>
</a>
</g>
</g>
<!-- Node1&#45;&gt;Node11 -->
<g id="edge10" class="edge">
<title>Node1&#45;&gt;Node11</title>
<path fill="none" stroke="midnightblue" d="M662.47,-169.57C732.17,-160.98 849.66,-146.19 950.5,-132 953.37,-131.6 956.32,-131.17 959.3,-130.74"/>
<polygon fill="midnightblue" stroke="midnightblue" points="661.62,-166.15 652.12,-170.85 662.47,-173.1 661.62,-166.15"/>
</g>
<!-- Node12 -->
<g id="node12" class="node">
<title>Node12</title>
<g id="a_node12"><a xlink:href="race__logic_8c.html" target="_top" xlink:title=" ">
<polygon fill="white" stroke="black" points="1078,-112.5 1078,-131.5 1203,-131.5 1203,-112.5 1078,-112.5"/>
<text text-anchor="middle" x="1140.5" y="-119.5" font-family="Helvetica,sans-Serif" font-size="10.00">src/racing/race_logic.c</text>
</a>
</g>
</g>
<!-- Node1&#45;&gt;Node12 -->
<g id="edge11" class="edge">
<title>Node1&#45;&gt;Node12</title>
<path fill="none" stroke="midnightblue" d="M662.55,-171.67C751.79,-163.76 923.07,-148.09 1068.5,-132 1071.51,-131.67 1074.58,-131.32 1077.68,-130.96"/>
<polygon fill="midnightblue" stroke="midnightblue" points="661.99,-168.21 652.34,-172.58 662.61,-175.18 661.99,-168.21"/>
</g>
<!-- Node8 -->
<g id="node8" class="node">
<title>Node8</title>
<g id="a_node8"><a xlink:href="debug_8inc_8c.html" target="_top" xlink:title=" ">
<polygon fill="white" stroke="black" points="687.5,-56.5 687.5,-75.5 809.5,-75.5 809.5,-56.5 687.5,-56.5"/>
<text text-anchor="middle" x="748.5" y="-63.5" font-family="Helvetica,sans-Serif" font-size="10.00">src/debug/debug.inc.c</text>
</a>
</g>
</g>
<!-- Node7&#45;&gt;Node8 -->
<g id="edge7" class="edge">
<title>Node7&#45;&gt;Node8</title>
<path fill="none" stroke="midnightblue" d="M748.5,-101.8C748.5,-92.91 748.5,-82.78 748.5,-75.75"/>
<polygon fill="midnightblue" stroke="midnightblue" points="745,-102.08 748.5,-112.08 752,-102.08 745,-102.08"/>
</g>
<!-- Node9 -->
<g id="node9" class="node">
<title>Node9</title>
<g id="a_node9"><a xlink:href="debug_8c.html" target="_top" xlink:title=" ">
<polygon fill="white" stroke="black" points="696,-0.5 696,-19.5 801,-19.5 801,-0.5 696,-0.5"/>
<text text-anchor="middle" x="748.5" y="-7.5" font-family="Helvetica,sans-Serif" font-size="10.00">src/debug/debug.c</text>
</a>
</g>
</g>
<!-- Node8&#45;&gt;Node9 -->
<g id="edge8" class="edge">
<title>Node8&#45;&gt;Node9</title>
<path fill="none" stroke="midnightblue" d="M748.5,-45.8C748.5,-36.91 748.5,-26.78 748.5,-19.75"/>
<polygon fill="midnightblue" stroke="midnightblue" points="745,-46.08 748.5,-56.08 752,-46.08 745,-46.08"/>
</g>
</g>
</svg>
