<?xml version="1.0" encoding="UTF-8" standalone="no"?>
<!DOCTYPE svg PUBLIC "-//W3C//DTD SVG 1.1//EN"
 "http://www.w3.org/Graphics/SVG/1.1/DTD/svg11.dtd">
<!-- Generated by graphviz version 2.43.0 (0)
 -->
<!-- Title: func_800417B4 Pages: 1 -->
<svg width="1920pt" height="332pt"
 viewBox="0.00 0.00 1920.00 332.00" xmlns="http://www.w3.org/2000/svg" xmlns:xlink="http://www.w3.org/1999/xlink">
<g id="graph0" class="graph" transform="scale(1 1) rotate(0) translate(4 328)">
<title>func_800417B4</title>
<polygon fill="white" stroke="transparent" points="-4,4 -4,-328 1916,-328 1916,4 -4,4"/>
<!-- Node1 -->
<g id="node1" class="node">
<title>Node1</title>
<g id="a_node1"><a xlink:title=" ">
<polygon fill="#bfbfbf" stroke="black" points="1820,-133.5 1820,-152.5 1912,-152.5 1912,-133.5 1820,-133.5"/>
<text text-anchor="middle" x="1866" y="-140.5" font-family="Helvetica,sans-Serif" font-size="10.00">func_800417B4</text>
</a>
</g>
</g>
<!-- Node2 -->
<g id="node2" class="node">
<title>Node2</title>
<g id="a_node2"><a xlink:href="code__80071F00_8c.html#ad9ed099200f3dfa5dadc29b91dea90f9" target="_top" xlink:title=" ">
<polygon fill="white" stroke="black" points="1691.5,-299.5 1691.5,-318.5 1783.5,-318.5 1783.5,-299.5 1691.5,-299.5"/>
<text text-anchor="middle" x="1737.5" y="-306.5" font-family="Helvetica,sans-Serif" font-size="10.00">func_8007C420</text>
</a>
</g>
</g>
<!-- Node1&#45;&gt;Node2 -->
<g id="edge1" class="edge">
<title>Node1&#45;&gt;Node2</title>
<path fill="none" stroke="midnightblue" d="M1858.02,-162.45C1846.56,-192.1 1821.24,-248.97 1784,-285 1777.97,-290.84 1770.23,-295.62 1762.85,-299.34"/>
<polygon fill="midnightblue" stroke="midnightblue" points="1861.39,-163.44 1861.62,-152.84 1854.83,-160.99 1861.39,-163.44"/>
</g>
<!-- Node4 -->
<g id="node4" class="node">
<title>Node4</title>
<g id="a_node4"><a xlink:href="code__80071F00_8c.html#a500b6c0828d5bc695d2ed2363ec7cdd0" target="_top" xlink:title=" ">
<polygon fill="white" stroke="black" points="1691.5,-114.5 1691.5,-133.5 1783.5,-133.5 1783.5,-114.5 1691.5,-114.5"/>
<text text-anchor="middle" x="1737.5" y="-121.5" font-family="Helvetica,sans-Serif" font-size="10.00">func_8007C550</text>
</a>
</g>
</g>
<!-- Node1&#45;&gt;Node4 -->
<g id="edge3" class="edge">
<title>Node1&#45;&gt;Node4</title>
<path fill="none" stroke="midnightblue" d="M1809.71,-134.7C1801.09,-133.4 1792.28,-132.08 1783.92,-130.82"/>
<polygon fill="midnightblue" stroke="midnightblue" points="1809.28,-138.17 1819.69,-136.19 1810.32,-131.25 1809.28,-138.17"/>
</g>
<!-- Node19 -->
<g id="node19" class="node">
<title>Node19</title>
<g id="a_node19"><a xlink:href="code__80071F00_8c.html#ada83bcdb37bb81760fc860382faab020" target="_top" xlink:title=" ">
<polygon fill="white" stroke="black" points="1691,-76.5 1691,-95.5 1784,-95.5 1784,-76.5 1691,-76.5"/>
<text text-anchor="middle" x="1737.5" y="-83.5" font-family="Helvetica,sans-Serif" font-size="10.00">func_8007DA74</text>
</a>
</g>
</g>
<!-- Node1&#45;&gt;Node19 -->
<g id="edge21" class="edge">
<title>Node1&#45;&gt;Node19</title>
<path fill="none" stroke="midnightblue" d="M1836.11,-129.08C1820.71,-121.75 1801.41,-112.71 1784,-105 1776.96,-101.88 1769.24,-98.6 1762.2,-95.67"/>
<polygon fill="midnightblue" stroke="midnightblue" points="1834.61,-132.24 1845.14,-133.39 1837.62,-125.92 1834.61,-132.24"/>
</g>
<!-- Node22 -->
<g id="node22" class="node">
<title>Node22</title>
<g id="a_node22"><a xlink:href="code__80071F00_8c.html#a4cdabd48a6b2f27cbd4d420c93d54f09" target="_top" xlink:title=" ">
<polygon fill="white" stroke="black" points="1691.5,-256.5 1691.5,-275.5 1783.5,-275.5 1783.5,-256.5 1691.5,-256.5"/>
<text text-anchor="middle" x="1737.5" y="-263.5" font-family="Helvetica,sans-Serif" font-size="10.00">func_8007E00C</text>
</a>
</g>
</g>
<!-- Node1&#45;&gt;Node22 -->
<g id="edge25" class="edge">
<title>Node1&#45;&gt;Node22</title>
<path fill="none" stroke="midnightblue" d="M1852.27,-161.11C1837.43,-181.4 1811.41,-214.53 1784,-238 1775.83,-245 1765.72,-251.4 1757.11,-256.32"/>
<polygon fill="midnightblue" stroke="midnightblue" points="1855.27,-162.93 1858.27,-152.77 1849.59,-158.84 1855.27,-162.93"/>
</g>
<!-- Node24 -->
<g id="node24" class="node">
<title>Node24</title>
<g id="a_node24"><a xlink:href="code__80071F00_8c.html#a2d5b294abeee9f779184f0e1f7f97530" target="_top" xlink:title=" ">
<polygon fill="white" stroke="black" points="1691.5,-38.5 1691.5,-57.5 1783.5,-57.5 1783.5,-38.5 1691.5,-38.5"/>
<text text-anchor="middle" x="1737.5" y="-45.5" font-family="Helvetica,sans-Serif" font-size="10.00">func_8007FB48</text>
</a>
</g>
</g>
<!-- Node1&#45;&gt;Node24 -->
<g id="edge28" class="edge">
<title>Node1&#45;&gt;Node24</title>
<path fill="none" stroke="midnightblue" d="M1849.83,-125.52C1834.56,-108.75 1809.64,-83.6 1784,-67 1778.4,-63.37 1771.98,-60.19 1765.77,-57.52"/>
<polygon fill="midnightblue" stroke="midnightblue" points="1847.63,-128.3 1856.9,-133.43 1852.85,-123.64 1847.63,-128.3"/>
</g>
<!-- Node30 -->
<g id="node30" class="node">
<title>Node30</title>
<g id="a_node30"><a xlink:href="code__80071F00_8c.html#a8b0c1527833d536e03dd3c4854bfa03d" target="_top" xlink:title=" ">
<polygon fill="white" stroke="black" points="1691,-209.5 1691,-228.5 1784,-228.5 1784,-209.5 1691,-209.5"/>
<text text-anchor="middle" x="1737.5" y="-216.5" font-family="Helvetica,sans-Serif" font-size="10.00">func_80084D2C</text>
</a>
</g>
</g>
<!-- Node1&#45;&gt;Node30 -->
<g id="edge37" class="edge">
<title>Node1&#45;&gt;Node30</title>
<path fill="none" stroke="midnightblue" d="M1840.27,-157.86C1814.84,-173.13 1775.99,-196.47 1754.39,-209.45"/>
<polygon fill="midnightblue" stroke="midnightblue" points="1842.21,-160.78 1848.98,-152.63 1838.6,-154.78 1842.21,-160.78"/>
</g>
<!-- Node33 -->
<g id="node33" class="node">
<title>Node33</title>
<g id="a_node33"><a xlink:href="code__80086E70_8c.html#a2a7d88090531c45ac05a41e45f20c74c" target="_top" xlink:title=" ">
<polygon fill="white" stroke="black" points="1691.5,-0.5 1691.5,-19.5 1783.5,-19.5 1783.5,-0.5 1691.5,-0.5"/>
<text text-anchor="middle" x="1737.5" y="-7.5" font-family="Helvetica,sans-Serif" font-size="10.00">func_800873A4</text>
</a>
</g>
</g>
<!-- Node1&#45;&gt;Node33 -->
<g id="edge41" class="edge">
<title>Node1&#45;&gt;Node33</title>
<path fill="none" stroke="midnightblue" d="M1855.94,-124.28C1843.08,-99.45 1817.34,-55.65 1784,-29 1779.32,-25.26 1773.8,-22.14 1768.24,-19.59"/>
<polygon fill="midnightblue" stroke="midnightblue" points="1852.9,-126.01 1860.51,-133.37 1859.15,-122.87 1852.9,-126.01"/>
</g>
<!-- Node34 -->
<g id="node34" class="node">
<title>Node34</title>
<g id="a_node34"><a xlink:href="code__80086E70_8c.html#aca46a8535163fddb77f5b6e90812d17f" target="_top" xlink:title=" ">
<polygon fill="white" stroke="black" points="1692,-152.5 1692,-171.5 1783,-171.5 1783,-152.5 1692,-152.5"/>
<text text-anchor="middle" x="1737.5" y="-159.5" font-family="Helvetica,sans-Serif" font-size="10.00">func_800873F4</text>
</a>
</g>
</g>
<!-- Node1&#45;&gt;Node34 -->
<g id="edge42" class="edge">
<title>Node1&#45;&gt;Node34</title>
<path fill="none" stroke="midnightblue" d="M1809.75,-151.3C1800.83,-152.64 1791.7,-154.01 1783.07,-155.31"/>
<polygon fill="midnightblue" stroke="midnightblue" points="1810.32,-154.75 1819.69,-149.81 1809.28,-147.83 1810.32,-154.75"/>
</g>
<!-- Node3 -->
<g id="node3" class="node">
<title>Node3</title>
<g id="a_node3"><a xlink:href="code__80071F00_8c.html#a0f87dba5711ff3586d5fc515bd6df6af" target="_top" xlink:title=" ">
<polygon fill="white" stroke="black" points="1562.5,-304.5 1562.5,-323.5 1654.5,-323.5 1654.5,-304.5 1562.5,-304.5"/>
<text text-anchor="middle" x="1608.5" y="-311.5" font-family="Helvetica,sans-Serif" font-size="10.00">func_8007D070</text>
</a>
</g>
</g>
<!-- Node2&#45;&gt;Node3 -->
<g id="edge2" class="edge">
<title>Node2&#45;&gt;Node3</title>
<path fill="none" stroke="midnightblue" d="M1681.2,-311.18C1672.42,-311.52 1663.43,-311.88 1654.92,-312.21"/>
<polygon fill="midnightblue" stroke="midnightblue" points="1681.51,-314.67 1691.37,-310.78 1681.24,-307.67 1681.51,-314.67"/>
</g>
<!-- Node5 -->
<g id="node5" class="node">
<title>Node5</title>
<g id="a_node5"><a xlink:href="code__80071F00_8c.html#ae9b0387ca14567f5ccf9c6640b181670" target="_top" xlink:title=" ">
<polygon fill="white" stroke="black" points="1562.5,-76.5 1562.5,-95.5 1654.5,-95.5 1654.5,-76.5 1562.5,-76.5"/>
<text text-anchor="middle" x="1608.5" y="-83.5" font-family="Helvetica,sans-Serif" font-size="10.00">func_8007CC00</text>
</a>
</g>
</g>
<!-- Node4&#45;&gt;Node5 -->
<g id="edge4" class="edge">
<title>Node4&#45;&gt;Node5</title>
<path fill="none" stroke="midnightblue" d="M1694.61,-111.46C1677.33,-106.3 1657.63,-100.4 1641.54,-95.59"/>
<polygon fill="midnightblue" stroke="midnightblue" points="1693.87,-114.9 1704.45,-114.41 1695.88,-108.19 1693.87,-114.9"/>
</g>
<!-- Node6 -->
<g id="node6" class="node">
<title>Node6</title>
<g id="a_node6"><a xlink:href="code__80071F00_8c.html#a1057ac2c733aa5e569df45fa4e28d3ef" target="_top" xlink:title=" ">
<polygon fill="white" stroke="black" points="1305,-76.5 1305,-95.5 1397,-95.5 1397,-76.5 1305,-76.5"/>
<text text-anchor="middle" x="1351" y="-83.5" font-family="Helvetica,sans-Serif" font-size="10.00">func_8007C340</text>
</a>
</g>
</g>
<!-- Node5&#45;&gt;Node6 -->
<g id="edge5" class="edge">
<title>Node5&#45;&gt;Node6</title>
<path fill="none" stroke="midnightblue" d="M1552.23,-86C1505.82,-86 1440.35,-86 1397.07,-86"/>
<polygon fill="midnightblue" stroke="midnightblue" points="1552.41,-89.5 1562.41,-86 1552.41,-82.5 1552.41,-89.5"/>
</g>
<!-- Node7 -->
<g id="node7" class="node">
<title>Node7</title>
<g id="a_node7"><a xlink:href="code__80057C60_8c.html#acf88664f5c370a290d2480d0bef9f1b6" target="_top" xlink:title=" ">
<polygon fill="white" stroke="black" points="1188,-109.5 1188,-128.5 1259,-128.5 1259,-109.5 1188,-109.5"/>
<text text-anchor="middle" x="1223.5" y="-116.5" font-family="Helvetica,sans-Serif" font-size="10.00">update_obj</text>
</a>
</g>
</g>
<!-- Node6&#45;&gt;Node7 -->
<g id="edge6" class="edge">
<title>Node6&#45;&gt;Node7</title>
<path fill="none" stroke="midnightblue" d="M1303.8,-98.15C1289.13,-102.01 1273.16,-106.21 1259.42,-109.82"/>
<polygon fill="midnightblue" stroke="midnightblue" points="1304.92,-101.47 1313.7,-95.54 1303.14,-94.7 1304.92,-101.47"/>
</g>
<!-- Node8 -->
<g id="node8" class="node">
<title>Node8</title>
<g id="a_node8"><a xlink:href="code__80057C60_8c.html#a48f7fc1ba7acccec2d7b6e0a59f65dc5" target="_top" xlink:title=" ">
<polygon fill="white" stroke="black" points="1050,-71.5 1050,-90.5 1142,-90.5 1142,-71.5 1050,-71.5"/>
<text text-anchor="middle" x="1096" y="-78.5" font-family="Helvetica,sans-Serif" font-size="10.00">func_80059D00</text>
</a>
</g>
</g>
<!-- Node7&#45;&gt;Node8 -->
<g id="edge7" class="edge">
<title>Node7&#45;&gt;Node8</title>
<path fill="none" stroke="midnightblue" d="M1181.1,-106.46C1164.03,-101.3 1144.56,-95.4 1128.66,-90.59"/>
<polygon fill="midnightblue" stroke="midnightblue" points="1180.25,-109.86 1190.83,-109.41 1182.27,-103.16 1180.25,-109.86"/>
</g>
<!-- Node9 -->
<g id="node9" class="node">
<title>Node9</title>
<g id="a_node9"><a xlink:href="code__80057C60_8c.html#a86b7dba9c0715c4d7fdf8ce61c0738bc" target="_top" xlink:title=" ">
<polygon fill="white" stroke="black" points="922,-71.5 922,-90.5 1014,-90.5 1014,-71.5 922,-71.5"/>
<text text-anchor="middle" x="968" y="-78.5" font-family="Helvetica,sans-Serif" font-size="10.00">func_8005A070</text>
</a>
</g>
</g>
<!-- Node7&#45;&gt;Node9 -->
<g id="edge20" class="edge">
<title>Node7&#45;&gt;Node9</title>
<path fill="none" stroke="midnightblue" d="M1177.62,-115.55C1142.68,-112.51 1093.06,-107.39 1050,-100 1035.34,-97.48 1019.36,-93.91 1005.5,-90.55"/>
<polygon fill="midnightblue" stroke="midnightblue" points="1177.7,-119.07 1187.96,-116.43 1178.3,-112.1 1177.7,-119.07"/>
</g>
<!-- Node8&#45;&gt;Node9 -->
<g id="edge8" class="edge">
<title>Node8&#45;&gt;Node9</title>
<path fill="none" stroke="midnightblue" d="M1039.65,-81C1031.16,-81 1022.48,-81 1014.24,-81"/>
<polygon fill="midnightblue" stroke="midnightblue" points="1039.87,-84.5 1049.87,-81 1039.87,-77.5 1039.87,-84.5"/>
</g>
<!-- Node10 -->
<g id="node10" class="node">
<title>Node10</title>
<g id="a_node10"><a xlink:href="code__80280000_8c.html#a4d9b0156b64d7a67e4cb21cde391ca43" target="_top" xlink:title=" ">
<polygon fill="white" stroke="black" points="773.5,-90.5 773.5,-109.5 864.5,-109.5 864.5,-90.5 773.5,-90.5"/>
<text text-anchor="middle" x="819" y="-97.5" font-family="Helvetica,sans-Serif" font-size="10.00">func_80280000</text>
</a>
</g>
</g>
<!-- Node9&#45;&gt;Node10 -->
<g id="edge9" class="edge">
<title>Node9&#45;&gt;Node10</title>
<path fill="none" stroke="midnightblue" d="M911.69,-88.15C896.16,-90.16 879.47,-92.31 864.65,-94.23"/>
<polygon fill="midnightblue" stroke="midnightblue" points="912.23,-91.61 921.7,-86.86 911.33,-84.67 912.23,-91.61"/>
</g>
<!-- Node17 -->
<g id="node17" class="node">
<title>Node17</title>
<g id="a_node17"><a xlink:href="podium__ceremony__actors_8c.html#a7ea229c65f264670fc828b95e8321154" target="_top" xlink:title=" ">
<polygon fill="white" stroke="black" points="752,-52.5 752,-71.5 886,-71.5 886,-52.5 752,-52.5"/>
<text text-anchor="middle" x="819" y="-59.5" font-family="Helvetica,sans-Serif" font-size="10.00">podium_ceremony_loop</text>
</a>
</g>
</g>
<!-- Node9&#45;&gt;Node17 -->
<g id="edge16" class="edge">
<title>Node9&#45;&gt;Node17</title>
<path fill="none" stroke="midnightblue" d="M911.74,-73.86C903.41,-72.78 894.76,-71.66 886.23,-70.56"/>
<polygon fill="midnightblue" stroke="midnightblue" points="911.33,-77.33 921.7,-75.14 912.23,-70.39 911.33,-77.33"/>
</g>
<!-- Node18 -->
<g id="node18" class="node">
<title>Node18</title>
<g id="a_node18"><a xlink:href="main_8c.html#afff87ffcbfee4f1f37d443110aa7b52a" target="_top" xlink:title=" ">
<polygon fill="white" stroke="black" points="773,-14.5 773,-33.5 865,-33.5 865,-14.5 773,-14.5"/>
<text text-anchor="middle" x="819" y="-21.5" font-family="Helvetica,sans-Serif" font-size="10.00">race_logic_loop</text>
</a>
</g>
</g>
<!-- Node9&#45;&gt;Node18 -->
<g id="edge18" class="edge">
<title>Node9&#45;&gt;Node18</title>
<path fill="none" stroke="midnightblue" d="M933.8,-67.37C929.8,-65.61 925.79,-63.8 922,-62 905.65,-54.25 902.78,-49.76 886,-43 877.15,-39.44 867.39,-36.24 858.15,-33.54"/>
<polygon fill="midnightblue" stroke="midnightblue" points="932.44,-70.59 943.01,-71.32 935.2,-64.16 932.44,-70.59"/>
</g>
<!-- Node11 -->
<g id="node11" class="node">
<title>Node11</title>
<g id="a_node11"><a xlink:href="code__80280000_8c.html#aa28a69be4eda3b8667366c6c7b556024" target="_top" xlink:title=" ">
<polygon fill="white" stroke="black" points="640,-90.5 640,-109.5 716,-109.5 716,-90.5 640,-90.5"/>
<text text-anchor="middle" x="678" y="-97.5" font-family="Helvetica,sans-Serif" font-size="10.00">credits_loop</text>
</a>
</g>
</g>
<!-- Node10&#45;&gt;Node11 -->
<g id="edge10" class="edge">
<title>Node10&#45;&gt;Node11</title>
<path fill="none" stroke="midnightblue" d="M763.11,-100C747.38,-100 730.61,-100 716.22,-100"/>
<polygon fill="midnightblue" stroke="midnightblue" points="763.25,-103.5 773.25,-100 763.25,-96.5 763.25,-103.5"/>
</g>
<!-- Node12 -->
<g id="node12" class="node">
<title>Node12</title>
<g id="a_node12"><a xlink:href="main_8c.html#ae04143ce8113cdafa007c642eb620bc8" target="_top" xlink:title=" ">
<polygon fill="white" stroke="black" points="488,-52.5 488,-71.5 604,-71.5 604,-52.5 488,-52.5"/>
<text text-anchor="middle" x="546" y="-59.5" font-family="Helvetica,sans-Serif" font-size="10.00">game_state_handler</text>
</a>
</g>
</g>
<!-- Node11&#45;&gt;Node12 -->
<g id="edge11" class="edge">
<title>Node11&#45;&gt;Node12</title>
<path fill="none" stroke="midnightblue" d="M634.12,-87.46C616.43,-82.3 596.27,-76.4 579.79,-71.59"/>
<polygon fill="midnightblue" stroke="midnightblue" points="633.62,-90.96 644.2,-90.41 635.58,-84.25 633.62,-90.96"/>
</g>
<!-- Node13 -->
<g id="node13" class="node">
<title>Node13</title>
<g id="a_node13"><a xlink:href="main_8c.html#a633ed517e458daeb768f5361895dcac9" target="_top" xlink:title=" ">
<polygon fill="white" stroke="black" points="339,-52.5 339,-71.5 452,-71.5 452,-52.5 339,-52.5"/>
<text text-anchor="middle" x="395.5" y="-59.5" font-family="Helvetica,sans-Serif" font-size="10.00">thread5_game_loop</text>
</a>
</g>
</g>
<!-- Node12&#45;&gt;Node13 -->
<g id="edge12" class="edge">
<title>Node12&#45;&gt;Node13</title>
<path fill="none" stroke="midnightblue" d="M477.42,-62C469.02,-62 460.5,-62 452.3,-62"/>
<polygon fill="midnightblue" stroke="midnightblue" points="477.59,-65.5 487.59,-62 477.59,-58.5 477.59,-65.5"/>
</g>
<!-- Node14 -->
<g id="node14" class="node">
<title>Node14</title>
<g id="a_node14"><a xlink:href="main_8c.html#a023b8f272e4efbd33f371e91ffff6b30" target="_top" xlink:title=" ">
<polygon fill="white" stroke="black" points="217,-52.5 217,-71.5 303,-71.5 303,-52.5 217,-52.5"/>
<text text-anchor="middle" x="260" y="-59.5" font-family="Helvetica,sans-Serif" font-size="10.00">thread3_video</text>
</a>
</g>
</g>
<!-- Node13&#45;&gt;Node14 -->
<g id="edge13" class="edge">
<title>Node13&#45;&gt;Node14</title>
<path fill="none" stroke="midnightblue" d="M328.57,-62C319.94,-62 311.3,-62 303.21,-62"/>
<polygon fill="midnightblue" stroke="midnightblue" points="328.66,-65.5 338.66,-62 328.66,-58.5 328.66,-65.5"/>
</g>
<!-- Node15 -->
<g id="node15" class="node">
<title>Node15</title>
<g id="a_node15"><a xlink:href="main_8c.html#a1e35d2b842121e6aea373f09381616e5" target="_top" xlink:title=" ">
<polygon fill="white" stroke="black" points="104,-52.5 104,-71.5 181,-71.5 181,-52.5 104,-52.5"/>
<text text-anchor="middle" x="142.5" y="-59.5" font-family="Helvetica,sans-Serif" font-size="10.00">thread1_idle</text>
</a>
</g>
</g>
<!-- Node14&#45;&gt;Node15 -->
<g id="edge14" class="edge">
<title>Node14&#45;&gt;Node15</title>
<path fill="none" stroke="midnightblue" d="M206.9,-62C198.2,-62 189.33,-62 181.09,-62"/>
<polygon fill="midnightblue" stroke="midnightblue" points="206.98,-65.5 216.98,-62 206.98,-58.5 206.98,-65.5"/>
</g>
<!-- Node16 -->
<g id="node16" class="node">
<title>Node16</title>
<g id="a_node16"><a xlink:href="main_8c.html#a4f87d43525fe95f60ea92bc8a3b70e62" target="_top" xlink:title=" ">
<polygon fill="white" stroke="black" points="0,-52.5 0,-71.5 68,-71.5 68,-52.5 0,-52.5"/>
<text text-anchor="middle" x="34" y="-59.5" font-family="Helvetica,sans-Serif" font-size="10.00">main_func</text>
</a>
</g>
</g>
<!-- Node15&#45;&gt;Node16 -->
<g id="edge15" class="edge">
<title>Node15&#45;&gt;Node16</title>
<path fill="none" stroke="midnightblue" d="M93.95,-62C85.29,-62 76.44,-62 68.31,-62"/>
<polygon fill="midnightblue" stroke="midnightblue" points="93.95,-65.5 103.95,-62 93.95,-58.5 93.95,-65.5"/>
</g>
<!-- Node17&#45;&gt;Node12 -->
<g id="edge17" class="edge">
<title>Node17&#45;&gt;Node12</title>
<path fill="none" stroke="midnightblue" d="M741.44,-62C697.89,-62 644.25,-62 604.35,-62"/>
<polygon fill="midnightblue" stroke="midnightblue" points="741.71,-65.5 751.71,-62 741.71,-58.5 741.71,-65.5"/>
</g>
<!-- Node18&#45;&gt;Node12 -->
<g id="edge19" class="edge">
<title>Node18&#45;&gt;Node12</title>
<path fill="none" stroke="midnightblue" d="M762.83,-31.74C716.72,-38.2 651.18,-47.39 604.44,-53.95"/>
<polygon fill="midnightblue" stroke="midnightblue" points="763.53,-35.17 772.95,-30.32 762.56,-28.24 763.53,-35.17"/>
</g>
<!-- Node20 -->
<g id="node20" class="node">
<title>Node20</title>
<g id="a_node20"><a xlink:href="code__80071F00_8c.html#acc95d73dc6795994e1b3b40164e29bee" target="_top" xlink:title=" ">
<polygon fill="white" stroke="black" points="1562,-38.5 1562,-57.5 1655,-57.5 1655,-38.5 1562,-38.5"/>
<text text-anchor="middle" x="1608.5" y="-45.5" font-family="Helvetica,sans-Serif" font-size="10.00">func_8007DAF8</text>
</a>
</g>
</g>
<!-- Node19&#45;&gt;Node20 -->
<g id="edge22" class="edge">
<title>Node19&#45;&gt;Node20</title>
<path fill="none" stroke="midnightblue" d="M1694.61,-73.46C1677.33,-68.3 1657.63,-62.4 1641.54,-57.59"/>
<polygon fill="midnightblue" stroke="midnightblue" points="1693.87,-76.9 1704.45,-76.41 1695.88,-70.19 1693.87,-76.9"/>
</g>
<!-- Node21 -->
<g id="node21" class="node">
<title>Node21</title>
<g id="a_node21"><a xlink:href="code__80071F00_8c.html#ad528d342123354b27b4b671f931bf31b" target="_top" xlink:title=" ">
<polygon fill="white" stroke="black" points="1433,-38.5 1433,-57.5 1526,-57.5 1526,-38.5 1433,-38.5"/>
<text text-anchor="middle" x="1479.5" y="-45.5" font-family="Helvetica,sans-Serif" font-size="10.00">func_8007DB44</text>
</a>
</g>
</g>
<!-- Node20&#45;&gt;Node21 -->
<g id="edge23" class="edge">
<title>Node20&#45;&gt;Node21</title>
<path fill="none" stroke="midnightblue" d="M1551.5,-48C1543.07,-48 1534.46,-48 1526.28,-48"/>
<polygon fill="midnightblue" stroke="midnightblue" points="1551.65,-51.5 1561.65,-48 1551.65,-44.5 1551.65,-51.5"/>
</g>
<!-- Node21&#45;&gt;Node7 -->
<g id="edge24" class="edge">
<title>Node21&#45;&gt;Node7</title>
<path fill="none" stroke="midnightblue" d="M1422.23,-47.64C1387.55,-48.99 1342.65,-53.63 1305,-67 1277.72,-76.69 1250.33,-97.23 1235.59,-109.39"/>
<polygon fill="midnightblue" stroke="midnightblue" points="1422.76,-51.12 1432.65,-47.32 1422.55,-44.12 1422.76,-51.12"/>
</g>
<!-- Node23 -->
<g id="node23" class="node">
<title>Node23</title>
<g id="a_node23"><a xlink:href="code__80071F00_8c.html#ae733a40e5e6dab7488643eb6d316b0c0" target="_top" xlink:title=" ">
<polygon fill="white" stroke="black" points="1305,-233.5 1305,-252.5 1397,-252.5 1397,-233.5 1305,-233.5"/>
<text text-anchor="middle" x="1351" y="-240.5" font-family="Helvetica,sans-Serif" font-size="10.00">func_8007E1AC</text>
</a>
</g>
</g>
<!-- Node22&#45;&gt;Node23 -->
<g id="edge26" class="edge">
<title>Node22&#45;&gt;Node23</title>
<path fill="none" stroke="midnightblue" d="M1680.86,-262.67C1604.23,-258.09 1467.68,-249.92 1397.07,-245.7"/>
<polygon fill="midnightblue" stroke="midnightblue" points="1681.07,-266.19 1691.26,-263.29 1681.49,-259.2 1681.07,-266.19"/>
</g>
<!-- Node23&#45;&gt;Node7 -->
<g id="edge27" class="edge">
<title>Node23&#45;&gt;Node7</title>
<path fill="none" stroke="midnightblue" d="M1333.02,-226.22C1306.38,-199.9 1255.61,-149.74 1234.3,-128.68"/>
<polygon fill="midnightblue" stroke="midnightblue" points="1330.58,-228.73 1340.15,-233.27 1335.5,-223.75 1330.58,-228.73"/>
</g>
<!-- Node25 -->
<g id="node25" class="node">
<title>Node25</title>
<g id="a_node25"><a xlink:href="code__80071F00_8c.html#af86bf38bc3404ee5d96b0eac8fd73c87" target="_top" xlink:title=" ">
<polygon fill="white" stroke="black" points="1433.5,-0.5 1433.5,-19.5 1525.5,-19.5 1525.5,-0.5 1433.5,-0.5"/>
<text text-anchor="middle" x="1479.5" y="-7.5" font-family="Helvetica,sans-Serif" font-size="10.00">func_8007FF5C</text>
</a>
</g>
</g>
<!-- Node24&#45;&gt;Node25 -->
<g id="edge29" class="edge">
<title>Node24&#45;&gt;Node25</title>
<path fill="none" stroke="midnightblue" d="M1690.01,-36.14C1678.61,-33.52 1666.41,-30.94 1655,-29 1611.29,-21.55 1560.9,-16.43 1525.54,-13.4"/>
<polygon fill="midnightblue" stroke="midnightblue" points="1689.23,-39.56 1699.77,-38.45 1690.84,-32.74 1689.23,-39.56"/>
</g>
<!-- Node26 -->
<g id="node26" class="node">
<title>Node26</title>
<g id="a_node26"><a xlink:href="code__80071F00_8c.html#aaeded00d33e7ae72ce35e159985f53d6" target="_top" xlink:title=" ">
<polygon fill="white" stroke="black" points="1305,-0.5 1305,-19.5 1397,-19.5 1397,-0.5 1305,-0.5"/>
<text text-anchor="middle" x="1351" y="-7.5" font-family="Helvetica,sans-Serif" font-size="10.00">func_8007FFC0</text>
</a>
</g>
</g>
<!-- Node25&#45;&gt;Node26 -->
<g id="edge30" class="edge">
<title>Node25&#45;&gt;Node26</title>
<path fill="none" stroke="midnightblue" d="M1422.93,-10C1414.4,-10 1405.69,-10 1397.42,-10"/>
<polygon fill="midnightblue" stroke="midnightblue" points="1423.19,-13.5 1433.19,-10 1423.19,-6.5 1423.19,-13.5"/>
</g>
<!-- Node27 -->
<g id="node27" class="node">
<title>Node27</title>
<g id="a_node27"><a xlink:href="code__80071F00_8c.html#a8afc56ea0d06d8d9d473e5883925c9a9" target="_top" xlink:title=" ">
<polygon fill="white" stroke="black" points="1178,-19.5 1178,-38.5 1269,-38.5 1269,-19.5 1178,-19.5"/>
<text text-anchor="middle" x="1223.5" y="-26.5" font-family="Helvetica,sans-Serif" font-size="10.00">func_80081210</text>
</a>
</g>
</g>
<!-- Node26&#45;&gt;Node27 -->
<g id="edge31" class="edge">
<title>Node26&#45;&gt;Node27</title>
<path fill="none" stroke="midnightblue" d="M1294.53,-18.4C1286.1,-19.67 1277.49,-20.98 1269.32,-22.21"/>
<polygon fill="midnightblue" stroke="midnightblue" points="1295.33,-21.82 1304.69,-16.86 1294.28,-14.9 1295.33,-21.82"/>
</g>
<!-- Node28 -->
<g id="node28" class="node">
<title>Node28</title>
<g id="a_node28"><a xlink:href="code__80057C60_8c.html#a8a7fdf4fc705765c9463a477e3ef1858" target="_top" xlink:title=" ">
<polygon fill="white" stroke="black" points="1050,-28.5 1050,-47.5 1142,-47.5 1142,-28.5 1050,-28.5"/>
<text text-anchor="middle" x="1096" y="-35.5" font-family="Helvetica,sans-Serif" font-size="10.00">func_8005A71C</text>
</a>
</g>
</g>
<!-- Node27&#45;&gt;Node28 -->
<g id="edge32" class="edge">
<title>Node27&#45;&gt;Node28</title>
<path fill="none" stroke="midnightblue" d="M1167.7,-32.93C1159.22,-33.54 1150.54,-34.16 1142.3,-34.75"/>
<polygon fill="midnightblue" stroke="midnightblue" points="1168.18,-36.4 1177.9,-32.2 1167.68,-29.42 1168.18,-36.4"/>
</g>
<!-- Node29 -->
<g id="node29" class="node">
<title>Node29</title>
<g id="a_node29"><a xlink:href="code__80057C60_8c.html#ae61bd9f49508d924387c00845cae4060" target="_top" xlink:title=" ">
<polygon fill="white" stroke="black" points="922,-33.5 922,-52.5 1014,-52.5 1014,-33.5 922,-33.5"/>
<text text-anchor="middle" x="968" y="-40.5" font-family="Helvetica,sans-Serif" font-size="10.00">func_80059AC8</text>
</a>
</g>
</g>
<!-- Node28&#45;&gt;Node29 -->
<g id="edge33" class="edge">
<title>Node28&#45;&gt;Node29</title>
<path fill="none" stroke="midnightblue" d="M1039.65,-40.2C1031.16,-40.53 1022.48,-40.88 1014.24,-41.2"/>
<polygon fill="midnightblue" stroke="midnightblue" points="1040.01,-43.68 1049.87,-39.79 1039.74,-36.69 1040.01,-43.68"/>
</g>
<!-- Node29&#45;&gt;Node10 -->
<g id="edge34" class="edge">
<title>Node29&#45;&gt;Node10</title>
<path fill="none" stroke="midnightblue" d="M933.8,-56.63C929.8,-58.39 925.79,-60.2 922,-62 905.65,-69.75 902.78,-74.24 886,-81 877.15,-84.56 867.39,-87.76 858.15,-90.46"/>
<polygon fill="midnightblue" stroke="midnightblue" points="935.2,-59.84 943.01,-52.68 932.44,-53.41 935.2,-59.84"/>
</g>
<!-- Node29&#45;&gt;Node17 -->
<g id="edge35" class="edge">
<title>Node29&#45;&gt;Node17</title>
<path fill="none" stroke="midnightblue" d="M911.74,-50.14C903.41,-51.22 894.76,-52.34 886.23,-53.44"/>
<polygon fill="midnightblue" stroke="midnightblue" points="912.23,-53.61 921.7,-48.86 911.33,-46.67 912.23,-53.61"/>
</g>
<!-- Node29&#45;&gt;Node18 -->
<g id="edge36" class="edge">
<title>Node29&#45;&gt;Node18</title>
<path fill="none" stroke="midnightblue" d="M911.34,-35.81C896.09,-33.83 879.74,-31.72 865.15,-29.84"/>
<polygon fill="midnightblue" stroke="midnightblue" points="911.33,-39.33 921.7,-37.14 912.23,-32.39 911.33,-39.33"/>
</g>
<!-- Node31 -->
<g id="node31" class="node">
<title>Node31</title>
<g id="a_node31"><a xlink:href="code__80071F00_8c.html#ad3b67fe7afad268ebd60dd5d178789b6" target="_top" xlink:title=" ">
<polygon fill="white" stroke="black" points="1433.5,-181.5 1433.5,-200.5 1525.5,-200.5 1525.5,-181.5 1433.5,-181.5"/>
<text text-anchor="middle" x="1479.5" y="-188.5" font-family="Helvetica,sans-Serif" font-size="10.00">func_800850B0</text>
</a>
</g>
</g>
<!-- Node30&#45;&gt;Node31 -->
<g id="edge38" class="edge">
<title>Node30&#45;&gt;Node31</title>
<path fill="none" stroke="midnightblue" d="M1680.63,-223.66C1646.2,-225.38 1601.27,-225.56 1562,-219 1541.05,-215.5 1518.26,-207.27 1502.13,-200.63"/>
<polygon fill="midnightblue" stroke="midnightblue" points="1681.18,-227.13 1690.97,-223.08 1680.79,-220.15 1681.18,-227.13"/>
</g>
<!-- Node32 -->
<g id="node32" class="node">
<title>Node32</title>
<g id="a_node32"><a xlink:href="code__80071F00_8c.html#ae4511ccc379b63509142c6f7c57b11a9" target="_top" xlink:title=" ">
<polygon fill="white" stroke="black" points="1305.5,-162.5 1305.5,-181.5 1396.5,-181.5 1396.5,-162.5 1305.5,-162.5"/>
<text text-anchor="middle" x="1351" y="-169.5" font-family="Helvetica,sans-Serif" font-size="10.00">func_80085214</text>
</a>
</g>
</g>
<!-- Node31&#45;&gt;Node32 -->
<g id="edge39" class="edge">
<title>Node31&#45;&gt;Node32</title>
<path fill="none" stroke="midnightblue" d="M1423.25,-182.7C1414.33,-181.36 1405.2,-179.99 1396.57,-178.69"/>
<polygon fill="midnightblue" stroke="midnightblue" points="1422.78,-186.17 1433.19,-184.19 1423.82,-179.25 1422.78,-186.17"/>
</g>
<!-- Node32&#45;&gt;Node7 -->
<g id="edge40" class="edge">
<title>Node32&#45;&gt;Node7</title>
<path fill="none" stroke="midnightblue" d="M1317.93,-158.46C1295.76,-149.09 1266.82,-136.87 1247.06,-128.53"/>
<polygon fill="midnightblue" stroke="midnightblue" points="1316.7,-161.74 1327.27,-162.4 1319.42,-155.29 1316.7,-161.74"/>
</g>
<!-- Node35 -->
<g id="node35" class="node">
<title>Node35</title>
<g id="a_node35"><a xlink:href="code__80071F00_8c.html#a51a16401cf202c55bdae59edc1f510ce" target="_top" xlink:title=" ">
<polygon fill="white" stroke="black" points="1562.5,-114.5 1562.5,-133.5 1654.5,-133.5 1654.5,-114.5 1562.5,-114.5"/>
<text text-anchor="middle" x="1608.5" y="-121.5" font-family="Helvetica,sans-Serif" font-size="10.00">func_8008275C</text>
</a>
</g>
</g>
<!-- Node34&#45;&gt;Node35 -->
<g id="edge43" class="edge">
<title>Node34&#45;&gt;Node35</title>
<path fill="none" stroke="midnightblue" d="M1694.61,-149.46C1677.33,-144.3 1657.63,-138.4 1641.54,-133.59"/>
<polygon fill="midnightblue" stroke="midnightblue" points="1693.87,-152.9 1704.45,-152.41 1695.88,-146.19 1693.87,-152.9"/>
</g>
<!-- Node37 -->
<g id="node37" class="node">
<title>Node37</title>
<g id="a_node37"><a xlink:href="code__80071F00_8c.html#a8dcc78988c2259c90f2b3cf12f874314" target="_top" xlink:title=" ">
<polygon fill="white" stroke="black" points="1562.5,-152.5 1562.5,-171.5 1654.5,-171.5 1654.5,-152.5 1562.5,-152.5"/>
<text text-anchor="middle" x="1608.5" y="-159.5" font-family="Helvetica,sans-Serif" font-size="10.00">func_8008502C</text>
</a>
</g>
</g>
<!-- Node34&#45;&gt;Node37 -->
<g id="edge46" class="edge">
<title>Node34&#45;&gt;Node37</title>
<path fill="none" stroke="midnightblue" d="M1681.7,-162C1672.7,-162 1663.46,-162 1654.73,-162"/>
<polygon fill="midnightblue" stroke="midnightblue" points="1681.72,-165.5 1691.72,-162 1681.72,-158.5 1681.72,-165.5"/>
</g>
<!-- Node38 -->
<g id="node38" class="node">
<title>Node38</title>
<g id="a_node38"><a xlink:href="code__80071F00_8c.html#a73dbb075c99962a55168118af444afa2" target="_top" xlink:title=" ">
<polygon fill="white" stroke="black" points="1563,-190.5 1563,-209.5 1654,-209.5 1654,-190.5 1563,-190.5"/>
<text text-anchor="middle" x="1608.5" y="-197.5" font-family="Helvetica,sans-Serif" font-size="10.00">func_80085080</text>
</a>
</g>
</g>
<!-- Node34&#45;&gt;Node38 -->
<g id="edge48" class="edge">
<title>Node34&#45;&gt;Node38</title>
<path fill="none" stroke="midnightblue" d="M1694.61,-174.54C1677.33,-179.7 1657.63,-185.6 1641.54,-190.41"/>
<polygon fill="midnightblue" stroke="midnightblue" points="1695.88,-177.81 1704.45,-171.59 1693.87,-171.1 1695.88,-177.81"/>
</g>
<!-- Node36 -->
<g id="node36" class="node">
<title>Node36</title>
<g id="a_node36"><a xlink:href="code__80071F00_8c.html#a083acc5eddd6095b3c9f21a9fdea7fca" target="_top" xlink:title=" ">
<polygon fill="white" stroke="black" points="1434,-114.5 1434,-133.5 1525,-133.5 1525,-114.5 1434,-114.5"/>
<text text-anchor="middle" x="1479.5" y="-121.5" font-family="Helvetica,sans-Serif" font-size="10.00">func_80082870</text>
</a>
</g>
</g>
<!-- Node35&#45;&gt;Node36 -->
<g id="edge44" class="edge">
<title>Node35&#45;&gt;Node36</title>
<path fill="none" stroke="midnightblue" d="M1552.25,-124C1543.16,-124 1533.84,-124 1525.06,-124"/>
<polygon fill="midnightblue" stroke="midnightblue" points="1552.37,-127.5 1562.37,-124 1552.37,-120.5 1552.37,-127.5"/>
</g>
<!-- Node36&#45;&gt;Node7 -->
<g id="edge45" class="edge">
<title>Node36&#45;&gt;Node7</title>
<path fill="none" stroke="midnightblue" d="M1423.67,-122.92C1373.75,-121.94 1301.56,-120.52 1259.18,-119.68"/>
<polygon fill="midnightblue" stroke="midnightblue" points="1423.9,-126.43 1433.97,-123.12 1424.04,-119.43 1423.9,-126.43"/>
</g>
<!-- Node37&#45;&gt;Node31 -->
<g id="edge47" class="edge">
<title>Node37&#45;&gt;Node31</title>
<path fill="none" stroke="midnightblue" d="M1555.59,-173.85C1544.54,-176.38 1533.01,-179.01 1522.39,-181.43"/>
<polygon fill="midnightblue" stroke="midnightblue" points="1556.59,-177.21 1565.56,-171.58 1555.04,-170.39 1556.59,-177.21"/>
</g>
<!-- Node38&#45;&gt;Node31 -->
<g id="edge49" class="edge">
<title>Node38&#45;&gt;Node31</title>
<path fill="none" stroke="midnightblue" d="M1552.7,-196.12C1543.7,-195.48 1534.46,-194.82 1525.73,-194.21"/>
<polygon fill="midnightblue" stroke="midnightblue" points="1552.5,-199.61 1562.72,-196.83 1553,-192.63 1552.5,-199.61"/>
</g>
</g>
</svg>
