<?xml version="1.0" encoding="UTF-8" standalone="no"?>
<!DOCTYPE svg PUBLIC "-//W3C//DTD SVG 1.1//EN"
 "http://www.w3.org/Graphics/SVG/1.1/DTD/svg11.dtd">
<!-- Generated by graphviz version 2.43.0 (0)
 -->
<!-- Title: mtxf_translate Pages: 1 -->
<!--zoomable 370 -->
<svg id="main" version="1.1" xmlns="http://www.w3.org/2000/svg" xmlns:xlink="http://www.w3.org/1999/xlink" xml:space="preserve" onload="init(evt)">
<style type="text/css"><![CDATA[
.edge:hover path { stroke: red; }
.edge:hover polygon { stroke: red; fill: red; }
]]></style>
<script type="text/javascript"><![CDATA[
var edges = document.getElementsByTagName('g');
if (edges && edges.length) {
  for (var i=0;i<edges.length;i++) {
    if (edges[i].id.substr(0,4)=='edge') {
      edges[i].setAttribute('class','edge');
    }
  }
}
]]></script>
        <defs>
                <circle id="rim" cx="0" cy="0" r="7"/>
                <circle id="rim2" cx="0" cy="0" r="3.5"/>
                <g id="zoomPlus">
                        <use xlink:href="#rim" fill="#404040">
                                <set attributeName="fill" to="#808080" begin="zoomplus.mouseover" end="zoomplus.mouseout"/>
                        </use>
                        <path d="M-4,0h8M0,-4v8" fill="none" stroke="white" stroke-width="1.5" pointer-events="none"/>
                </g>
                <g id="zoomMin">
                        <use xlink:href="#rim" fill="#404040">
                                <set attributeName="fill" to="#808080" begin="zoomminus.mouseover" end="zoomminus.mouseout"/>
                        </use>
                        <path d="M-4,0h8" fill="none" stroke="white" stroke-width="1.5" pointer-events="none"/>
                </g>
                <g id="dirArrow">
                        <path fill="none" stroke="white" stroke-width="1.5" d="M0,-3.0v7 M-2.5,-0.5L0,-3.0L2.5,-0.5"/>
                </g>
               <g id="resetDef">
                       <use xlink:href="#rim2" fill="#404040">
                               <set attributeName="fill" to="#808080" begin="reset.mouseover" end="reset.mouseout"/>
                       </use>
               </g>
        </defs>

<script type="text/javascript">
var viewWidth = 1338;
var viewHeight = 370;
var sectionId = 'dynsection-66';
</script>
<script xlink:href="svgpan.js"/>
<svg id="graph" class="graph">
<g id="viewport">
<title>mtxf_translate</title>
<polygon fill="white" stroke="transparent" points="-4,4 -4,-366 1334,-366 1334,4 -4,4"/>
<!-- Node1 -->
<g id="node1" class="node">
<title>Node1</title>
<g id="a_node1"><a xlink:title=" ">
<polygon fill="#bfbfbf" stroke="black" points="1241,-133.5 1241,-152.5 1330,-152.5 1330,-133.5 1241,-133.5"/>
<text text-anchor="middle" x="1285.5" y="-140.5" font-family="Helvetica,sans-Serif" font-size="10.00">mtxf_translate</text>
</a>
</g>
</g>
<!-- Node2 -->
<g id="node2" class="node">
<title>Node2</title>
<g id="a_node2"><a xlink:href="render__courses_8c.html#af86d505614f3fe7f894b12a9d7ffc35c" target="_top" xlink:title=" ">
<polygon fill="white" stroke="black" points="911.5,-228.5 911.5,-247.5 1003.5,-247.5 1003.5,-228.5 911.5,-228.5"/>
<text text-anchor="middle" x="957.5" y="-235.5" font-family="Helvetica,sans-Serif" font-size="10.00">func_8029122C</text>
</a>
</g>
</g>
<!-- Node1&#45;&gt;Node2 -->
<g id="edge1" class="edge">
<title>Node1&#45;&gt;Node2</title>
<path fill="none" stroke="midnightblue" d="M1275.37,-161.73C1263.02,-184.63 1238.61,-222.3 1205,-238 1137.15,-269.7 1046.87,-258.06 996.54,-247.52"/>
<polygon fill="midnightblue" stroke="midnightblue" points="1278.58,-163.14 1280.05,-152.64 1272.35,-159.93 1278.58,-163.14"/>
</g>
<!-- Node18 -->
<g id="node18" class="node">
<title>Node18</title>
<g id="a_node18"><a xlink:href="actors_8c.html#af3679e7269b472294b3d91b070c1ff25" target="_top" xlink:title=" ">
<polygon fill="white" stroke="black" points="1084,-19.5 1084,-38.5 1175,-38.5 1175,-19.5 1084,-19.5"/>
<text text-anchor="middle" x="1129.5" y="-26.5" font-family="Helvetica,sans-Serif" font-size="10.00">func_80297340</text>
</a>
</g>
</g>
<!-- Node1&#45;&gt;Node18 -->
<g id="edge25" class="edge">
<title>Node1&#45;&gt;Node18</title>
<path fill="none" stroke="midnightblue" d="M1274.08,-124.62C1260.84,-102.97 1235.93,-67.47 1205,-48 1196.08,-42.38 1185.57,-38.42 1175.3,-35.63"/>
<polygon fill="midnightblue" stroke="midnightblue" points="1271.22,-126.67 1279.32,-133.49 1277.25,-123.1 1271.22,-126.67"/>
</g>
<!-- Node22 -->
<g id="node22" class="node">
<title>Node22</title>
<g id="a_node22"><a xlink:href="actors_8c.html#ae806d25a7a602ae068fce337e21c3c06" target="_top" xlink:title=" ">
<polygon fill="white" stroke="black" points="1083.5,-171.5 1083.5,-190.5 1175.5,-190.5 1175.5,-171.5 1083.5,-171.5"/>
<text text-anchor="middle" x="1129.5" y="-178.5" font-family="Helvetica,sans-Serif" font-size="10.00">func_8029AE1C</text>
</a>
</g>
</g>
<!-- Node1&#45;&gt;Node22 -->
<g id="edge39" class="edge">
<title>Node1&#45;&gt;Node22</title>
<path fill="none" stroke="midnightblue" d="M1235.71,-155.04C1214.19,-160.35 1189.27,-166.5 1169.08,-171.48"/>
<polygon fill="midnightblue" stroke="midnightblue" points="1236.77,-158.38 1245.64,-152.59 1235.09,-151.59 1236.77,-158.38"/>
</g>
<!-- Node23 -->
<g id="node23" class="node">
<title>Node23</title>
<g id="a_node23"><a xlink:href="actors_8c.html#abbf9bd2e68150b7135d89aa991524fe1" target="_top" xlink:title=" ">
<polygon fill="white" stroke="black" points="1083.5,-133.5 1083.5,-152.5 1175.5,-152.5 1175.5,-133.5 1083.5,-133.5"/>
<text text-anchor="middle" x="1129.5" y="-140.5" font-family="Helvetica,sans-Serif" font-size="10.00">func_8029B8E8</text>
</a>
</g>
</g>
<!-- Node1&#45;&gt;Node23 -->
<g id="edge41" class="edge">
<title>Node1&#45;&gt;Node23</title>
<path fill="none" stroke="midnightblue" d="M1230.73,-143C1212.76,-143 1192.92,-143 1175.67,-143"/>
<polygon fill="midnightblue" stroke="midnightblue" points="1230.78,-146.5 1240.78,-143 1230.78,-139.5 1230.78,-146.5"/>
</g>
<!-- Node24 -->
<g id="node24" class="node">
<title>Node24</title>
<g id="a_node24"><a xlink:href="actors_8c.html#a80eff5811095154d9142c9206950e8f2" target="_top" xlink:title=" ">
<polygon fill="white" stroke="black" points="1083.5,-95.5 1083.5,-114.5 1175.5,-114.5 1175.5,-95.5 1083.5,-95.5"/>
<text text-anchor="middle" x="1129.5" y="-102.5" font-family="Helvetica,sans-Serif" font-size="10.00">func_8029BFB0</text>
</a>
</g>
</g>
<!-- Node1&#45;&gt;Node24 -->
<g id="edge43" class="edge">
<title>Node1&#45;&gt;Node24</title>
<path fill="none" stroke="midnightblue" d="M1235.71,-130.96C1214.19,-125.65 1189.27,-119.5 1169.08,-114.52"/>
<polygon fill="midnightblue" stroke="midnightblue" points="1235.09,-134.41 1245.64,-133.41 1236.77,-127.62 1235.09,-134.41"/>
</g>
<!-- Node25 -->
<g id="node25" class="node">
<title>Node25</title>
<g id="a_node25"><a xlink:href="actors_8c.html#ab730b1d4caa6d0a6f95983b0f8ae8c30" target="_top" xlink:title=" ">
<polygon fill="white" stroke="black" points="1083,-57.5 1083,-76.5 1176,-76.5 1176,-57.5 1083,-57.5"/>
<text text-anchor="middle" x="1129.5" y="-64.5" font-family="Helvetica,sans-Serif" font-size="10.00">func_8029C3CC</text>
</a>
</g>
</g>
<!-- Node1&#45;&gt;Node25 -->
<g id="edge45" class="edge">
<title>Node1&#45;&gt;Node25</title>
<path fill="none" stroke="midnightblue" d="M1266.31,-126.92C1250.95,-114.12 1227.86,-96.65 1205,-86 1196.05,-81.83 1186.04,-78.48 1176.35,-75.83"/>
<polygon fill="midnightblue" stroke="midnightblue" points="1264.12,-129.65 1274,-133.48 1268.66,-124.32 1264.12,-129.65"/>
</g>
<!-- Node26 -->
<g id="node26" class="node">
<title>Node26</title>
<g id="a_node26"><a xlink:href="render__courses_8c.html#a1f997e08809597bfc7891e17e8c9eec6" target="_top" xlink:title=" ">
<polygon fill="white" stroke="black" points="1054,-209.5 1054,-228.5 1205,-228.5 1205,-209.5 1054,-209.5"/>
<text text-anchor="middle" x="1129.5" y="-216.5" font-family="Helvetica,sans-Serif" font-size="10.00">render_banshee_boardwalk</text>
</a>
</g>
</g>
<!-- Node1&#45;&gt;Node26 -->
<g id="edge47" class="edge">
<title>Node1&#45;&gt;Node26</title>
<path fill="none" stroke="midnightblue" d="M1266.31,-159.08C1250.95,-171.88 1227.86,-189.35 1205,-200 1196.89,-203.78 1187.93,-206.88 1179.11,-209.4"/>
<polygon fill="midnightblue" stroke="midnightblue" points="1268.66,-161.68 1274,-152.52 1264.12,-156.35 1268.66,-161.68"/>
</g>
<!-- Node3 -->
<g id="node3" class="node">
<title>Node3</title>
<g id="a_node3"><a xlink:href="skybox__and__splitscreen_8c.html#a94c46fe3fe5eef642ce3520b68504133" target="_top" xlink:title=" ">
<polygon fill="white" stroke="black" points="768.5,-228.5 768.5,-247.5 860.5,-247.5 860.5,-228.5 768.5,-228.5"/>
<text text-anchor="middle" x="814.5" y="-235.5" font-family="Helvetica,sans-Serif" font-size="10.00">func_802A59A4</text>
</a>
</g>
</g>
<!-- Node2&#45;&gt;Node3 -->
<g id="edge2" class="edge">
<title>Node2&#45;&gt;Node3</title>
<path fill="none" stroke="midnightblue" d="M901.35,-238C887.84,-238 873.53,-238 860.56,-238"/>
<polygon fill="midnightblue" stroke="midnightblue" points="901.5,-241.5 911.5,-238 901.5,-234.5 901.5,-241.5"/>
</g>
<!-- Node10 -->
<g id="node10" class="node">
<title>Node10</title>
<g id="a_node10"><a xlink:href="skybox__and__splitscreen_8c.html#a9be31591c8a78c96ca86c1b87c3ec0a8" target="_top" xlink:title=" ">
<polygon fill="white" stroke="black" points="768,-190.5 768,-209.5 861,-209.5 861,-190.5 768,-190.5"/>
<text text-anchor="middle" x="814.5" y="-197.5" font-family="Helvetica,sans-Serif" font-size="10.00">func_802A5CB4</text>
</a>
</g>
</g>
<!-- Node2&#45;&gt;Node10 -->
<g id="edge9" class="edge">
<title>Node2&#45;&gt;Node10</title>
<path fill="none" stroke="midnightblue" d="M911.06,-225.75C891.63,-220.52 869.27,-214.49 851.07,-209.59"/>
<polygon fill="midnightblue" stroke="midnightblue" points="910.35,-229.19 920.92,-228.41 912.18,-222.43 910.35,-229.19"/>
</g>
<!-- Node11 -->
<g id="node11" class="node">
<title>Node11</title>
<g id="a_node11"><a xlink:href="skybox__and__splitscreen_8c.html#a3f9172888ae23d5920b6c6b352af2bd3" target="_top" xlink:title=" ">
<polygon fill="white" stroke="black" points="768.5,-152.5 768.5,-171.5 860.5,-171.5 860.5,-152.5 768.5,-152.5"/>
<text text-anchor="middle" x="814.5" y="-159.5" font-family="Helvetica,sans-Serif" font-size="10.00">func_802A5FAC</text>
</a>
</g>
</g>
<!-- Node2&#45;&gt;Node11 -->
<g id="edge11" class="edge">
<title>Node2&#45;&gt;Node11</title>
<path fill="none" stroke="midnightblue" d="M907.55,-224.63C903.88,-222.95 900.31,-221.08 897,-219 877.3,-206.63 880.15,-194.21 861,-181 855.79,-177.4 849.78,-174.3 843.89,-171.7"/>
<polygon fill="midnightblue" stroke="midnightblue" points="906.26,-227.89 916.84,-228.43 908.91,-221.41 906.26,-227.89"/>
</g>
<!-- Node12 -->
<g id="node12" class="node">
<title>Node12</title>
<g id="a_node12"><a xlink:href="skybox__and__splitscreen_8c.html#a897b8a8f9d54144b0916eb7173651af0" target="_top" xlink:title=" ">
<polygon fill="white" stroke="black" points="768.5,-114.5 768.5,-133.5 860.5,-133.5 860.5,-114.5 768.5,-114.5"/>
<text text-anchor="middle" x="814.5" y="-121.5" font-family="Helvetica,sans-Serif" font-size="10.00">func_802A62A4</text>
</a>
</g>
</g>
<!-- Node2&#45;&gt;Node12 -->
<g id="edge13" class="edge">
<title>Node2&#45;&gt;Node12</title>
<path fill="none" stroke="midnightblue" d="M903.19,-223.63C901.01,-222.22 898.93,-220.69 897,-219 868.87,-194.39 888.04,-168.8 861,-143 857.04,-139.22 852.21,-136.14 847.2,-133.65"/>
<polygon fill="midnightblue" stroke="midnightblue" points="901.59,-226.74 912.06,-228.38 904.9,-220.57 901.59,-226.74"/>
</g>
<!-- Node13 -->
<g id="node13" class="node">
<title>Node13</title>
<g id="a_node13"><a xlink:href="skybox__and__splitscreen_8c.html#acdf96ac83288ec562406d39e4dce3e01" target="_top" xlink:title=" ">
<polygon fill="white" stroke="black" points="768.5,-76.5 768.5,-95.5 860.5,-95.5 860.5,-76.5 768.5,-76.5"/>
<text text-anchor="middle" x="814.5" y="-83.5" font-family="Helvetica,sans-Serif" font-size="10.00">func_802A65B8</text>
</a>
</g>
</g>
<!-- Node2&#45;&gt;Node13 -->
<g id="edge15" class="edge">
<title>Node2&#45;&gt;Node13</title>
<path fill="none" stroke="midnightblue" d="M902.34,-223.54C900.44,-222.16 898.65,-220.65 897,-219 859.49,-181.37 896.85,-144.22 861,-105 857.53,-101.21 853.19,-98.15 848.58,-95.69"/>
<polygon fill="midnightblue" stroke="midnightblue" points="900.86,-226.73 911.25,-228.78 904.41,-220.7 900.86,-226.73"/>
</g>
<!-- Node14 -->
<g id="node14" class="node">
<title>Node14</title>
<g id="a_node14"><a xlink:href="skybox__and__splitscreen_8c.html#accb6af916ac72e9b2186f11211419818" target="_top" xlink:title=" ">
<polygon fill="white" stroke="black" points="768,-38.5 768,-57.5 861,-57.5 861,-38.5 768,-38.5"/>
<text text-anchor="middle" x="814.5" y="-45.5" font-family="Helvetica,sans-Serif" font-size="10.00">func_802A68CC</text>
</a>
</g>
</g>
<!-- Node2&#45;&gt;Node14 -->
<g id="edge17" class="edge">
<title>Node2&#45;&gt;Node14</title>
<path fill="none" stroke="midnightblue" d="M902.29,-223.77C900.39,-222.33 898.62,-220.75 897,-219 849.82,-168.07 905.93,-119.92 861,-67 857.79,-63.22 853.69,-60.17 849.29,-57.72"/>
<polygon fill="midnightblue" stroke="midnightblue" points="900.89,-227.02 911.26,-229.2 904.52,-221.03 900.89,-227.02"/>
</g>
<!-- Node15 -->
<g id="node15" class="node">
<title>Node15</title>
<g id="a_node15"><a xlink:href="skybox__and__splitscreen_8c.html#a45bafabf82a007ad2129de0f35f7f637" target="_top" xlink:title=" ">
<polygon fill="white" stroke="black" points="768,-342.5 768,-361.5 861,-361.5 861,-342.5 768,-342.5"/>
<text text-anchor="middle" x="814.5" y="-349.5" font-family="Helvetica,sans-Serif" font-size="10.00">func_802A6BB0</text>
</a>
</g>
</g>
<!-- Node2&#45;&gt;Node15 -->
<g id="edge19" class="edge">
<title>Node2&#45;&gt;Node15</title>
<path fill="none" stroke="midnightblue" d="M942.52,-255.57C925.23,-276.37 894,-310.94 861,-333 855.59,-336.62 849.38,-339.76 843.33,-342.39"/>
<polygon fill="midnightblue" stroke="midnightblue" points="945.43,-257.54 949.05,-247.58 940.01,-253.11 945.43,-257.54"/>
</g>
<!-- Node16 -->
<g id="node16" class="node">
<title>Node16</title>
<g id="a_node16"><a xlink:href="skybox__and__splitscreen_8c.html#af3ee91cad91c4da03eb90c4f7e449660" target="_top" xlink:title=" ">
<polygon fill="white" stroke="black" points="768.5,-304.5 768.5,-323.5 860.5,-323.5 860.5,-304.5 768.5,-304.5"/>
<text text-anchor="middle" x="814.5" y="-311.5" font-family="Helvetica,sans-Serif" font-size="10.00">func_802A6E94</text>
</a>
</g>
</g>
<!-- Node2&#45;&gt;Node16 -->
<g id="edge21" class="edge">
<title>Node2&#45;&gt;Node16</title>
<path fill="none" stroke="midnightblue" d="M933.4,-253.05C914.38,-265.14 886.49,-282.15 861,-295 854.43,-298.31 847.13,-301.54 840.35,-304.38"/>
<polygon fill="midnightblue" stroke="midnightblue" points="935.45,-255.9 941.98,-247.56 931.67,-250.01 935.45,-255.9"/>
</g>
<!-- Node17 -->
<g id="node17" class="node">
<title>Node17</title>
<g id="a_node17"><a xlink:href="skybox__and__splitscreen_8c.html#a9e0359eea0d69204abb0f5a866ca0173" target="_top" xlink:title=" ">
<polygon fill="white" stroke="black" points="768.5,-266.5 768.5,-285.5 860.5,-285.5 860.5,-266.5 768.5,-266.5"/>
<text text-anchor="middle" x="814.5" y="-273.5" font-family="Helvetica,sans-Serif" font-size="10.00">func_802A7178</text>
</a>
</g>
</g>
<!-- Node2&#45;&gt;Node17 -->
<g id="edge23" class="edge">
<title>Node2&#45;&gt;Node17</title>
<path fill="none" stroke="midnightblue" d="M911.06,-250.25C891.63,-255.48 869.27,-261.51 851.07,-266.41"/>
<polygon fill="midnightblue" stroke="midnightblue" points="912.18,-253.57 920.92,-247.59 910.35,-246.81 912.18,-253.57"/>
</g>
<!-- Node4 -->
<g id="node4" class="node">
<title>Node4</title>
<g id="a_node4"><a xlink:href="main_8c.html#afff87ffcbfee4f1f37d443110aa7b52a" target="_top" xlink:title=" ">
<polygon fill="white" stroke="black" points="640,-171.5 640,-190.5 732,-190.5 732,-171.5 640,-171.5"/>
<text text-anchor="middle" x="686" y="-178.5" font-family="Helvetica,sans-Serif" font-size="10.00">race_logic_loop</text>
</a>
</g>
</g>
<!-- Node3&#45;&gt;Node4 -->
<g id="edge3" class="edge">
<title>Node3&#45;&gt;Node4</title>
<path fill="none" stroke="midnightblue" d="M780.28,-224.33C776.14,-222.56 771.96,-220.76 768,-219 746.98,-209.69 723.19,-198.44 706.86,-190.61"/>
<polygon fill="midnightblue" stroke="midnightblue" points="779.23,-227.68 789.8,-228.33 781.94,-221.23 779.23,-227.68"/>
</g>
<!-- Node5 -->
<g id="node5" class="node">
<title>Node5</title>
<g id="a_node5"><a xlink:href="main_8c.html#ae04143ce8113cdafa007c642eb620bc8" target="_top" xlink:title=" ">
<polygon fill="white" stroke="black" points="488,-95.5 488,-114.5 604,-114.5 604,-95.5 488,-95.5"/>
<text text-anchor="middle" x="546" y="-102.5" font-family="Helvetica,sans-Serif" font-size="10.00">game_state_handler</text>
</a>
</g>
</g>
<!-- Node4&#45;&gt;Node5 -->
<g id="edge4" class="edge">
<title>Node4&#45;&gt;Node5</title>
<path fill="none" stroke="midnightblue" d="M658.75,-166.54C631.03,-151.28 588.11,-127.64 564.34,-114.55"/>
<polygon fill="midnightblue" stroke="midnightblue" points="657.07,-169.62 667.52,-171.37 660.45,-163.48 657.07,-169.62"/>
</g>
<!-- Node6 -->
<g id="node6" class="node">
<title>Node6</title>
<g id="a_node6"><a xlink:href="main_8c.html#a633ed517e458daeb768f5361895dcac9" target="_top" xlink:title=" ">
<polygon fill="white" stroke="black" points="339,-95.5 339,-114.5 452,-114.5 452,-95.5 339,-95.5"/>
<text text-anchor="middle" x="395.5" y="-102.5" font-family="Helvetica,sans-Serif" font-size="10.00">thread5_game_loop</text>
</a>
</g>
</g>
<!-- Node5&#45;&gt;Node6 -->
<g id="edge5" class="edge">
<title>Node5&#45;&gt;Node6</title>
<path fill="none" stroke="midnightblue" d="M477.42,-105C469.02,-105 460.5,-105 452.3,-105"/>
<polygon fill="midnightblue" stroke="midnightblue" points="477.59,-108.5 487.59,-105 477.59,-101.5 477.59,-108.5"/>
</g>
<!-- Node7 -->
<g id="node7" class="node">
<title>Node7</title>
<g id="a_node7"><a xlink:href="main_8c.html#a023b8f272e4efbd33f371e91ffff6b30" target="_top" xlink:title=" ">
<polygon fill="white" stroke="black" points="217,-95.5 217,-114.5 303,-114.5 303,-95.5 217,-95.5"/>
<text text-anchor="middle" x="260" y="-102.5" font-family="Helvetica,sans-Serif" font-size="10.00">thread3_video</text>
</a>
</g>
</g>
<!-- Node6&#45;&gt;Node7 -->
<g id="edge6" class="edge">
<title>Node6&#45;&gt;Node7</title>
<path fill="none" stroke="midnightblue" d="M328.57,-105C319.94,-105 311.3,-105 303.21,-105"/>
<polygon fill="midnightblue" stroke="midnightblue" points="328.66,-108.5 338.66,-105 328.66,-101.5 328.66,-108.5"/>
</g>
<!-- Node8 -->
<g id="node8" class="node">
<title>Node8</title>
<g id="a_node8"><a xlink:href="main_8c.html#a1e35d2b842121e6aea373f09381616e5" target="_top" xlink:title=" ">
<polygon fill="white" stroke="black" points="104,-95.5 104,-114.5 181,-114.5 181,-95.5 104,-95.5"/>
<text text-anchor="middle" x="142.5" y="-102.5" font-family="Helvetica,sans-Serif" font-size="10.00">thread1_idle</text>
</a>
</g>
</g>
<!-- Node7&#45;&gt;Node8 -->
<g id="edge7" class="edge">
<title>Node7&#45;&gt;Node8</title>
<path fill="none" stroke="midnightblue" d="M206.9,-105C198.2,-105 189.33,-105 181.09,-105"/>
<polygon fill="midnightblue" stroke="midnightblue" points="206.98,-108.5 216.98,-105 206.98,-101.5 206.98,-108.5"/>
</g>
<!-- Node9 -->
<g id="node9" class="node">
<title>Node9</title>
<g id="a_node9"><a xlink:href="main_8c.html#a4f87d43525fe95f60ea92bc8a3b70e62" target="_top" xlink:title=" ">
<polygon fill="white" stroke="black" points="0,-95.5 0,-114.5 68,-114.5 68,-95.5 0,-95.5"/>
<text text-anchor="middle" x="34" y="-102.5" font-family="Helvetica,sans-Serif" font-size="10.00">main_func</text>
</a>
</g>
</g>
<!-- Node8&#45;&gt;Node9 -->
<g id="edge8" class="edge">
<title>Node8&#45;&gt;Node9</title>
<path fill="none" stroke="midnightblue" d="M93.95,-105C85.29,-105 76.44,-105 68.31,-105"/>
<polygon fill="midnightblue" stroke="midnightblue" points="93.95,-108.5 103.95,-105 93.95,-101.5 93.95,-108.5"/>
</g>
<!-- Node10&#45;&gt;Node4 -->
<g id="edge10" class="edge">
<title>Node10&#45;&gt;Node4</title>
<path fill="none" stroke="midnightblue" d="M757.87,-191.64C749.28,-190.35 740.5,-189.04 732.18,-187.79"/>
<polygon fill="midnightblue" stroke="midnightblue" points="757.42,-195.12 767.83,-193.14 758.46,-188.19 757.42,-195.12"/>
</g>
<!-- Node11&#45;&gt;Node4 -->
<g id="edge12" class="edge">
<title>Node11&#45;&gt;Node4</title>
<path fill="none" stroke="midnightblue" d="M758.21,-170.3C749.59,-171.6 740.78,-172.92 732.42,-174.18"/>
<polygon fill="midnightblue" stroke="midnightblue" points="758.82,-173.75 768.19,-168.81 757.78,-166.83 758.82,-173.75"/>
</g>
<!-- Node12&#45;&gt;Node4 -->
<g id="edge14" class="edge">
<title>Node12&#45;&gt;Node4</title>
<path fill="none" stroke="midnightblue" d="M780.28,-137.67C776.14,-139.44 771.96,-141.24 768,-143 746.98,-152.31 723.19,-163.56 706.86,-171.39"/>
<polygon fill="midnightblue" stroke="midnightblue" points="781.94,-140.77 789.8,-133.67 779.23,-134.32 781.94,-140.77"/>
</g>
<!-- Node13&#45;&gt;Node4 -->
<g id="edge16" class="edge">
<title>Node13&#45;&gt;Node4</title>
<path fill="none" stroke="midnightblue" d="M776.89,-99.9C773.81,-101.48 770.8,-103.19 768,-105 737.89,-124.49 708.78,-155.78 695.1,-171.43"/>
<polygon fill="midnightblue" stroke="midnightblue" points="778.66,-102.94 786.23,-95.52 775.69,-96.6 778.66,-102.94"/>
</g>
<!-- Node14&#45;&gt;Node4 -->
<g id="edge18" class="edge">
<title>Node14&#45;&gt;Node4</title>
<path fill="none" stroke="midnightblue" d="M774.56,-62.44C772.26,-63.85 770.05,-65.36 768,-67 748.47,-82.61 707.92,-146.92 692.83,-171.44"/>
<polygon fill="midnightblue" stroke="midnightblue" points="776.55,-65.35 783.76,-57.59 773.28,-59.16 776.55,-65.35"/>
</g>
<!-- Node15&#45;&gt;Node4 -->
<g id="edge20" class="edge">
<title>Node15&#45;&gt;Node4</title>
<path fill="none" stroke="midnightblue" d="M773.47,-337.3C771.54,-335.97 769.7,-334.54 768,-333 722,-291.14 697.28,-216.96 689.62,-190.61"/>
<polygon fill="midnightblue" stroke="midnightblue" points="772,-340.49 782.42,-342.42 775.48,-334.41 772,-340.49"/>
</g>
<!-- Node16&#45;&gt;Node4 -->
<g id="edge22" class="edge">
<title>Node16&#45;&gt;Node4</title>
<path fill="none" stroke="midnightblue" d="M774.56,-299.56C772.26,-298.15 770.05,-296.64 768,-295 730.07,-264.68 701.97,-212.16 691.49,-190.63"/>
<polygon fill="midnightblue" stroke="midnightblue" points="773.28,-302.84 783.76,-304.41 776.55,-296.65 773.28,-302.84"/>
</g>
<!-- Node17&#45;&gt;Node4 -->
<g id="edge24" class="edge">
<title>Node17&#45;&gt;Node4</title>
<path fill="none" stroke="midnightblue" d="M776.89,-262.1C773.81,-260.52 770.8,-258.81 768,-257 737.89,-237.51 708.78,-206.22 695.1,-190.57"/>
<polygon fill="midnightblue" stroke="midnightblue" points="775.69,-265.4 786.23,-266.48 778.66,-259.06 775.69,-265.4"/>
</g>
<!-- Node19 -->
<g id="node19" class="node">
<title>Node19</title>
<g id="a_node19"><a xlink:href="actors_8c.html#ab38aac73e6ef03aa38f4474b612234b0" target="_top" xlink:title=" ">
<polygon fill="white" stroke="black" points="897,-133.5 897,-152.5 1018,-152.5 1018,-133.5 897,-133.5"/>
<text text-anchor="middle" x="957.5" y="-140.5" font-family="Helvetica,sans-Serif" font-size="10.00">render_course_actors</text>
</a>
</g>
</g>
<!-- Node18&#45;&gt;Node19 -->
<g id="edge26" class="edge">
<title>Node18&#45;&gt;Node19</title>
<path fill="none" stroke="midnightblue" d="M1073.63,-39.39C1066.8,-41.71 1060.08,-44.55 1054,-48 1014.34,-70.51 979.69,-113.85 965.43,-133.22"/>
<polygon fill="midnightblue" stroke="midnightblue" points="1075.12,-42.59 1083.67,-36.33 1073.08,-35.89 1075.12,-42.59"/>
</g>
<!-- Node19&#45;&gt;Node3 -->
<g id="edge30" class="edge">
<title>Node19&#45;&gt;Node3</title>
<path fill="none" stroke="midnightblue" d="M930.47,-157.72C919.7,-164.28 907.34,-172.46 897,-181 879.06,-195.82 880.15,-205.79 861,-219 855.79,-222.6 849.78,-225.7 843.89,-228.3"/>
<polygon fill="midnightblue" stroke="midnightblue" points="932.26,-160.72 939.07,-152.6 928.69,-154.71 932.26,-160.72"/>
</g>
<!-- Node19&#45;&gt;Node10 -->
<g id="edge31" class="edge">
<title>Node19&#45;&gt;Node10</title>
<path fill="none" stroke="midnightblue" d="M923.5,-156.34C897.64,-166.8 862.28,-181.09 839.18,-190.43"/>
<polygon fill="midnightblue" stroke="midnightblue" points="924.94,-159.53 932.9,-152.54 922.32,-153.04 924.94,-159.53"/>
</g>
<!-- Node19&#45;&gt;Node11 -->
<g id="edge32" class="edge">
<title>Node19&#45;&gt;Node11</title>
<path fill="none" stroke="midnightblue" d="M886.79,-152.39C877.97,-153.58 869.14,-154.77 860.84,-155.89"/>
<polygon fill="midnightblue" stroke="midnightblue" points="887.26,-155.86 896.7,-151.06 886.33,-148.92 887.26,-155.86"/>
</g>
<!-- Node19&#45;&gt;Node12 -->
<g id="edge33" class="edge">
<title>Node19&#45;&gt;Node12</title>
<path fill="none" stroke="midnightblue" d="M886.79,-133.61C877.97,-132.42 869.14,-131.23 860.84,-130.11"/>
<polygon fill="midnightblue" stroke="midnightblue" points="886.33,-137.08 896.7,-134.94 887.26,-130.14 886.33,-137.08"/>
</g>
<!-- Node19&#45;&gt;Node13 -->
<g id="edge34" class="edge">
<title>Node19&#45;&gt;Node13</title>
<path fill="none" stroke="midnightblue" d="M923.5,-129.66C897.64,-119.2 862.28,-104.91 839.18,-95.57"/>
<polygon fill="midnightblue" stroke="midnightblue" points="922.32,-132.96 932.9,-133.46 924.94,-126.47 922.32,-132.96"/>
</g>
<!-- Node19&#45;&gt;Node14 -->
<g id="edge35" class="edge">
<title>Node19&#45;&gt;Node14</title>
<path fill="none" stroke="midnightblue" d="M938.74,-126.37C920.35,-109.76 890.26,-84.3 861,-67 855.1,-63.52 848.45,-60.35 842.09,-57.65"/>
<polygon fill="midnightblue" stroke="midnightblue" points="936.59,-129.13 946.32,-133.31 941.31,-123.97 936.59,-129.13"/>
</g>
<!-- Node19&#45;&gt;Node15 -->
<g id="edge36" class="edge">
<title>Node19&#45;&gt;Node15</title>
<path fill="none" stroke="midnightblue" d="M924.19,-157.51C914.14,-163.47 903.9,-171.28 897,-181 856.8,-237.6 905.93,-280.08 861,-333 857.79,-336.78 853.69,-339.83 849.29,-342.28"/>
<polygon fill="midnightblue" stroke="midnightblue" points="926.17,-160.42 933.27,-152.55 922.81,-154.27 926.17,-160.42"/>
</g>
<!-- Node19&#45;&gt;Node16 -->
<g id="edge37" class="edge">
<title>Node19&#45;&gt;Node16</title>
<path fill="none" stroke="midnightblue" d="M925.38,-157.34C915.12,-163.38 904.44,-171.3 897,-181 864.67,-223.16 896.85,-255.78 861,-295 857.53,-298.79 853.19,-301.85 848.58,-304.31"/>
<polygon fill="midnightblue" stroke="midnightblue" points="927.11,-160.38 934.2,-152.51 923.75,-154.24 927.11,-160.38"/>
</g>
<!-- Node19&#45;&gt;Node17 -->
<g id="edge38" class="edge">
<title>Node19&#45;&gt;Node17</title>
<path fill="none" stroke="midnightblue" d="M926.81,-157.51C916.41,-163.67 905.27,-171.61 897,-181 872.29,-209.04 888.04,-231.2 861,-257 857.04,-260.78 852.21,-263.86 847.2,-266.35"/>
<polygon fill="midnightblue" stroke="midnightblue" points="928.65,-160.5 935.67,-152.57 925.24,-154.38 928.65,-160.5"/>
</g>
<!-- Node20 -->
<g id="node20" class="node">
<title>Node20</title>
<g id="a_node20"><a xlink:href="code__80280000_8c.html#aa9c130485d39c4a7276605b30db5150e" target="_top" xlink:title=" ">
<polygon fill="white" stroke="black" points="769,-0.5 769,-19.5 860,-19.5 860,-0.5 769,-0.5"/>
<text text-anchor="middle" x="814.5" y="-7.5" font-family="Helvetica,sans-Serif" font-size="10.00">func_80280038</text>
</a>
</g>
</g>
<!-- Node19&#45;&gt;Node20 -->
<g id="edge27" class="edge">
<title>Node19&#45;&gt;Node20</title>
<path fill="none" stroke="midnightblue" d="M945.23,-124.69C929.21,-100 897.71,-56.02 861,-29 856.04,-25.35 850.27,-22.24 844.53,-19.67"/>
<polygon fill="midnightblue" stroke="midnightblue" points="942.45,-126.84 950.76,-133.42 948.36,-123.1 942.45,-126.84"/>
</g>
<!-- Node21 -->
<g id="node21" class="node">
<title>Node21</title>
<g id="a_node21"><a xlink:href="code__80280000_8c.html#aa28a69be4eda3b8667366c6c7b556024" target="_top" xlink:title=" ">
<polygon fill="white" stroke="black" points="648,-76.5 648,-95.5 724,-95.5 724,-76.5 648,-76.5"/>
<text text-anchor="middle" x="686" y="-83.5" font-family="Helvetica,sans-Serif" font-size="10.00">credits_loop</text>
</a>
</g>
</g>
<!-- Node20&#45;&gt;Node21 -->
<g id="edge28" class="edge">
<title>Node20&#45;&gt;Node21</title>
<path fill="none" stroke="midnightblue" d="M778.25,-23.81C774.74,-25.46 771.26,-27.2 768,-29 741.96,-43.38 714.12,-64.35 698.81,-76.44"/>
<polygon fill="midnightblue" stroke="midnightblue" points="779.81,-26.95 787.53,-19.7 776.97,-20.55 779.81,-26.95"/>
</g>
<!-- Node21&#45;&gt;Node5 -->
<g id="edge29" class="edge">
<title>Node21&#45;&gt;Node5</title>
<path fill="none" stroke="midnightblue" d="M637.59,-92.53C626.81,-94.01 615.24,-95.61 604.09,-97.14"/>
<polygon fill="midnightblue" stroke="midnightblue" points="638.23,-95.97 647.66,-91.14 637.27,-89.04 638.23,-95.97"/>
</g>
<!-- Node22&#45;&gt;Node19 -->
<g id="edge40" class="edge">
<title>Node22&#45;&gt;Node19</title>
<path fill="none" stroke="midnightblue" d="M1075.6,-169.18C1051.63,-163.82 1023.68,-157.57 1001.09,-152.52"/>
<polygon fill="midnightblue" stroke="midnightblue" points="1075.08,-172.65 1085.6,-171.41 1076.61,-165.81 1075.08,-172.65"/>
</g>
<!-- Node23&#45;&gt;Node19 -->
<g id="edge42" class="edge">
<title>Node23&#45;&gt;Node19</title>
<path fill="none" stroke="midnightblue" d="M1073.28,-143C1055.69,-143 1036.14,-143 1018.24,-143"/>
<polygon fill="midnightblue" stroke="midnightblue" points="1073.39,-146.5 1083.39,-143 1073.39,-139.5 1073.39,-146.5"/>
</g>
<!-- Node24&#45;&gt;Node19 -->
<g id="edge44" class="edge">
<title>Node24&#45;&gt;Node19</title>
<path fill="none" stroke="midnightblue" d="M1075.6,-116.82C1051.63,-122.18 1023.68,-128.43 1001.09,-133.48"/>
<polygon fill="midnightblue" stroke="midnightblue" points="1076.61,-120.19 1085.6,-114.59 1075.08,-113.35 1076.61,-120.19"/>
</g>
<!-- Node25&#45;&gt;Node19 -->
<g id="edge46" class="edge">
<title>Node25&#45;&gt;Node19</title>
<path fill="none" stroke="midnightblue" d="M1073.28,-79.17C1066.69,-81.18 1060.13,-83.45 1054,-86 1022.8,-98.97 989.63,-120.84 971.76,-133.39"/>
<polygon fill="midnightblue" stroke="midnightblue" points="1074.26,-82.53 1082.91,-76.41 1072.33,-75.8 1074.26,-82.53"/>
</g>
<!-- Node27 -->
<g id="node27" class="node">
<title>Node27</title>
<g id="a_node27"><a xlink:href="render__courses_8c.html#a257d2d8a37f7c2ffb3e185fc32956319" target="_top" xlink:title=" ">
<polygon fill="white" stroke="black" points="911.5,-190.5 911.5,-209.5 1003.5,-209.5 1003.5,-190.5 911.5,-190.5"/>
<text text-anchor="middle" x="957.5" y="-197.5" font-family="Helvetica,sans-Serif" font-size="10.00">func_80295A38</text>
</a>
</g>
</g>
<!-- Node26&#45;&gt;Node27 -->
<g id="edge48" class="edge">
<title>Node26&#45;&gt;Node27</title>
<path fill="none" stroke="midnightblue" d="M1043.85,-209.54C1029.98,-207.99 1016.09,-206.44 1003.67,-205.05"/>
<polygon fill="midnightblue" stroke="midnightblue" points="1043.61,-213.03 1053.94,-210.67 1044.39,-206.08 1043.61,-213.03"/>
</g>
<!-- Node27&#45;&gt;Node3 -->
<g id="edge50" class="edge">
<title>Node27&#45;&gt;Node3</title>
<path fill="none" stroke="midnightblue" d="M911.06,-212.25C891.63,-217.48 869.27,-223.51 851.07,-228.41"/>
<polygon fill="midnightblue" stroke="midnightblue" points="912.18,-215.57 920.92,-209.59 910.35,-208.81 912.18,-215.57"/>
</g>
<!-- Node27&#45;&gt;Node10 -->
<g id="edge51" class="edge">
<title>Node27&#45;&gt;Node10</title>
<path fill="none" stroke="midnightblue" d="M901.46,-200C888.08,-200 873.92,-200 861.04,-200"/>
<polygon fill="midnightblue" stroke="midnightblue" points="901.5,-203.5 911.5,-200 901.5,-196.5 901.5,-203.5"/>
</g>
<!-- Node27&#45;&gt;Node11 -->
<g id="edge52" class="edge">
<title>Node27&#45;&gt;Node11</title>
<path fill="none" stroke="midnightblue" d="M911.06,-187.75C891.63,-182.52 869.27,-176.49 851.07,-171.59"/>
<polygon fill="midnightblue" stroke="midnightblue" points="910.35,-191.19 920.92,-190.41 912.18,-184.43 910.35,-191.19"/>
</g>
<!-- Node27&#45;&gt;Node12 -->
<g id="edge53" class="edge">
<title>Node27&#45;&gt;Node12</title>
<path fill="none" stroke="midnightblue" d="M933.4,-184.95C914.38,-172.86 886.49,-155.85 861,-143 854.43,-139.69 847.13,-136.46 840.35,-133.62"/>
<polygon fill="midnightblue" stroke="midnightblue" points="931.67,-187.99 941.98,-190.44 935.45,-182.1 931.67,-187.99"/>
</g>
<!-- Node27&#45;&gt;Node13 -->
<g id="edge54" class="edge">
<title>Node27&#45;&gt;Node13</title>
<path fill="none" stroke="midnightblue" d="M928.11,-185.35C917.59,-179.07 906.03,-171.07 897,-162 875.87,-140.76 883.89,-124.34 861,-105 856.55,-101.24 851.26,-98.14 845.88,-95.61"/>
<polygon fill="midnightblue" stroke="midnightblue" points="926.59,-188.51 937.01,-190.42 930.05,-182.43 926.59,-188.51"/>
</g>
<!-- Node27&#45;&gt;Node14 -->
<g id="edge55" class="edge">
<title>Node27&#45;&gt;Node14</title>
<path fill="none" stroke="midnightblue" d="M925.92,-185.56C915.62,-179.48 904.77,-171.56 897,-162 868.53,-126.96 892.39,-99.46 861,-67 857.31,-63.19 852.74,-60.1 847.93,-57.62"/>
<polygon fill="midnightblue" stroke="midnightblue" points="924.3,-188.67 934.75,-190.43 927.69,-182.54 924.3,-188.67"/>
</g>
<!-- Node27&#45;&gt;Node15 -->
<g id="edge56" class="edge">
<title>Node27&#45;&gt;Node15</title>
<path fill="none" stroke="midnightblue" d="M902.34,-214.46C900.44,-215.84 898.65,-217.35 897,-219 859.49,-256.63 896.85,-293.78 861,-333 857.53,-336.79 853.19,-339.85 848.58,-342.31"/>
<polygon fill="midnightblue" stroke="midnightblue" points="904.41,-217.3 911.25,-209.22 900.86,-211.27 904.41,-217.3"/>
</g>
<!-- Node27&#45;&gt;Node16 -->
<g id="edge57" class="edge">
<title>Node27&#45;&gt;Node16</title>
<path fill="none" stroke="midnightblue" d="M903.19,-214.37C901.01,-215.78 898.93,-217.31 897,-219 868.87,-243.61 888.04,-269.2 861,-295 857.04,-298.78 852.21,-301.86 847.2,-304.35"/>
<polygon fill="midnightblue" stroke="midnightblue" points="904.9,-217.43 912.06,-209.62 901.59,-211.26 904.9,-217.43"/>
</g>
<!-- Node27&#45;&gt;Node17 -->
<g id="edge58" class="edge">
<title>Node27&#45;&gt;Node17</title>
<path fill="none" stroke="midnightblue" d="M907.55,-213.37C903.88,-215.05 900.31,-216.92 897,-219 877.3,-231.37 880.15,-243.79 861,-257 855.79,-260.6 849.78,-263.7 843.89,-266.3"/>
<polygon fill="midnightblue" stroke="midnightblue" points="908.91,-216.59 916.84,-209.57 906.26,-210.11 908.91,-216.59"/>
</g>
<!-- Node27&#45;&gt;Node20 -->
<g id="edge49" class="edge">
<title>Node27&#45;&gt;Node20</title>
<path fill="none" stroke="midnightblue" d="M924.92,-185.69C914.71,-179.68 904.18,-171.78 897,-162 860.75,-112.64 901.37,-75.05 861,-29 857.61,-25.14 853.32,-22.04 848.72,-19.57"/>
<polygon fill="midnightblue" stroke="midnightblue" points="923.26,-188.77 933.71,-190.48 926.61,-182.63 923.26,-188.77"/>
</g>
</g>
</svg>
        <g id="navigator" transform="translate(0 0)" fill="#404254">
                <rect fill="#f2f5e9" fill-opacity="0.5" stroke="#606060" stroke-width=".5" x="0" y="0" width="60" height="60"/>
                <use id="zoomplus" xlink:href="#zoomPlus" x="17" y="9" onmousedown="handleZoom(evt,'in')"/>
                <use id="zoomminus" xlink:href="#zoomMin" x="42" y="9" onmousedown="handleZoom(evt,'out')"/>
                <use id="reset" xlink:href="#resetDef" x="30" y="36" onmousedown="handleReset()"/>
                <g id="arrowUp" xlink:href="#dirArrow" transform="translate(30 24)" onmousedown="handlePan(0,-1)">
                  <use xlink:href="#rim" fill="#404040">
                        <set attributeName="fill" to="#808080" begin="arrowUp.mouseover" end="arrowUp.mouseout"/>
                  </use>
                  <path fill="none" stroke="white" stroke-width="1.5" d="M0,-3.0v7 M-2.5,-0.5L0,-3.0L2.5,-0.5"/>
                </g>
                <g id="arrowRight" xlink:href="#dirArrow" transform="rotate(90) translate(36 -43)" onmousedown="handlePan(1,0)">
                  <use xlink:href="#rim" fill="#404040">
                        <set attributeName="fill" to="#808080" begin="arrowRight.mouseover" end="arrowRight.mouseout"/>
                  </use>
                  <path fill="none" stroke="white" stroke-width="1.5" d="M0,-3.0v7 M-2.5,-0.5L0,-3.0L2.5,-0.5"/>
                </g>
                <g id="arrowDown" xlink:href="#dirArrow" transform="rotate(180) translate(-30 -48)" onmousedown="handlePan(0,1)">
                  <use xlink:href="#rim" fill="#404040">
                        <set attributeName="fill" to="#808080" begin="arrowDown.mouseover" end="arrowDown.mouseout"/>
                  </use>
                  <path fill="none" stroke="white" stroke-width="1.5" d="M0,-3.0v7 M-2.5,-0.5L0,-3.0L2.5,-0.5"/>
                </g>
                <g id="arrowLeft" xlink:href="#dirArrow" transform="rotate(270) translate(-36 17)" onmousedown="handlePan(-1,0)">
                  <use xlink:href="#rim" fill="#404040">
                        <set attributeName="fill" to="#808080" begin="arrowLeft.mouseover" end="arrowLeft.mouseout"/>
                  </use>
                  <path fill="none" stroke="white" stroke-width="1.5" d="M0,-3.0v7 M-2.5,-0.5L0,-3.0L2.5,-0.5"/>
                </g>
        </g>
        <svg viewBox="0 0 15 15" width="100%" height="30px" preserveAspectRatio="xMaxYMin meet">
         <g id="arrow_out" transform="scale(0.3 0.3)">
          <a xlink:href="math__util_8c_ad1800f715e0296b6e75f04de02479ea5_icgraph_org.svg" target="_base">
           <rect id="button" ry="5" rx="5" y="6" x="6" height="38" width="38"
                fill="#f2f5e9" fill-opacity="0.5" stroke="#606060" stroke-width="1.0"/>
           <path id="arrow"
             d="M 11.500037,31.436501 C 11.940474,20.09759 22.043105,11.32322 32.158766,21.979434 L 37.068811,17.246167 C 37.068811,17.246167 37.088388,32 37.088388,32 L 22.160133,31.978069 C 22.160133,31.978069 26.997745,27.140456 26.997745,27.140456 C 18.528582,18.264221 13.291696,25.230495 11.500037,31.436501 z"
             style="fill:#404040;"/>
          </a>
         </g>
        </svg>
</svg>
