<?xml version="1.0" encoding="UTF-8" standalone="no"?>
<!DOCTYPE svg PUBLIC "-//W3C//DTD SVG 1.1//EN"
 "http://www.w3.org/Graphics/SVG/1.1/DTD/svg11.dtd">
<!-- Generated by graphviz version 2.43.0 (0)
 -->
<!-- Title: cosf Pages: 1 -->
<svg width="1370pt" height="471pt"
 viewBox="0.00 0.00 1370.00 471.00" xmlns="http://www.w3.org/2000/svg" xmlns:xlink="http://www.w3.org/1999/xlink">
<g id="graph0" class="graph" transform="scale(1 1) rotate(0) translate(4 467)">
<title>cosf</title>
<!-- Node1 -->
<g id="Node000001" class="node">
<title>Node1</title>
<g id="a_Node000001"><a xlink:title=" ">
<polygon fill="#999999" stroke="#666666" points="1362,-204 1325,-204 1325,-185 1362,-185 1362,-204"/>
<text text-anchor="middle" x="1343.5" y="-192" font-family="Helvetica,sans-Serif" font-size="10.00">cosf</text>
</a>
</g>
</g>
<!-- Node2 -->
<g id="Node000002" class="node">
<title>Node2</title>
<g id="a_Node000002"><a xlink:href="math__util_8c.html#a9fac0ad3d9b29974486905779554714e" target="_top" xlink:title=" ">
<polygon fill="white" stroke="#666666" points="1289,-259 1197,-259 1197,-240 1289,-240 1289,-259"/>
<text text-anchor="middle" x="1243" y="-247" font-family="Helvetica,sans-Serif" font-size="10.00">func_802B5564</text>
</a>
</g>
</g>
<!-- Node1&#45;&gt;Node2 -->
<g id="edge1_Node000001_Node000002" class="edge">
<title>Node1&#45;&gt;Node2</title>
<g id="a_edge1_Node000001_Node000002"><a xlink:title=" ">
<path fill="none" stroke="#63b8ff" d="M1316.26,-209.15C1298.85,-218.87 1276.49,-231.36 1261.29,-239.84"/>
<polygon fill="#63b8ff" stroke="#63b8ff" points="1318.32,-212.01 1325.34,-204.08 1314.91,-205.9 1318.32,-212.01"/>
</a>
</g>
</g>
<!-- Node32 -->
<g id="Node000032" class="node">
<title>Node32</title>
<g id="a_Node000032"><a xlink:href="guPerspectiveF_8c.html#a440bd049e431a7ef892658d88620646c" target="_top" xlink:title=" ">
<polygon fill="white" stroke="#666666" points="1289,-204 1197,-204 1197,-185 1289,-185 1289,-204"/>
<text text-anchor="middle" x="1243" y="-192" font-family="Helvetica,sans-Serif" font-size="10.00">guPerspectiveF</text>
</a>
</g>
</g>
<!-- Node1&#45;&gt;Node32 -->
<g id="edge41_Node000001_Node000032" class="edge">
<title>Node1&#45;&gt;Node32</title>
<g id="a_edge41_Node000001_Node000032"><a xlink:title=" ">
<path fill="none" stroke="#63b8ff" d="M1314.78,-194.5C1306.87,-194.5 1298.03,-194.5 1289.36,-194.5"/>
<polygon fill="#63b8ff" stroke="#63b8ff" points="1314.89,-198 1324.89,-194.5 1314.89,-191 1314.89,-198"/>
</a>
</g>
</g>
<!-- Node36 -->
<g id="Node000036" class="node">
<title>Node36</title>
<g id="a_Node000036"><a xlink:href="guRotateF_8c.html#a6bf4235e1732340bfcbde49454bd63ff" target="_top" xlink:title=" ">
<polygon fill="white" stroke="#666666" points="1276.5,-112 1209.5,-112 1209.5,-93 1276.5,-93 1276.5,-112"/>
<text text-anchor="middle" x="1243" y="-100" font-family="Helvetica,sans-Serif" font-size="10.00">guRotateF</text>
</a>
</g>
</g>
<!-- Node1&#45;&gt;Node36 -->
<g id="edge56_Node000001_Node000036" class="edge">
<title>Node1&#45;&gt;Node36</title>
<g id="a_edge56_Node000001_Node000036"><a xlink:title=" ">
<path fill="none" stroke="#63b8ff" d="M1324.51,-177.7C1304,-158.54 1271.15,-127.86 1254.47,-112.27"/>
<polygon fill="#63b8ff" stroke="#63b8ff" points="1322.26,-180.39 1331.96,-184.65 1327.04,-175.27 1322.26,-180.39"/>
</a>
</g>
</g>
<!-- Node3 -->
<g id="Node000003" class="node">
<title>Node3</title>
<g id="a_Node000003"><a xlink:href="skybox__and__splitscreen_8c.html#a6135e98ec3076399696ca04f441529f4" target="_top" xlink:title=" ">
<polygon fill="white" stroke="#666666" points="1161,-296 1068,-296 1068,-277 1161,-277 1161,-296"/>
<text text-anchor="middle" x="1114.5" y="-284" font-family="Helvetica,sans-Serif" font-size="10.00">func_802A4A0C</text>
</a>
</g>
</g>
<!-- Node2&#45;&gt;Node3 -->
<g id="edge2_Node000002_Node000003" class="edge">
<title>Node2&#45;&gt;Node3</title>
<g id="a_edge2_Node000002_Node000003"><a xlink:title=" ">
<path fill="none" stroke="#63b8ff" d="M1199.39,-261.96C1182.75,-266.83 1163.97,-272.32 1148.41,-276.88"/>
<polygon fill="#63b8ff" stroke="#63b8ff" points="1200.81,-265.2 1209.42,-259.03 1198.84,-258.48 1200.81,-265.2"/>
</a>
</g>
</g>
<!-- Node4 -->
<g id="Node000004" class="node">
<title>Node4</title>
<g id="a_Node000004"><a xlink:href="skybox__and__splitscreen_8c.html#a106a6c5b25b49dea0722c25630e2bdb9" target="_top" xlink:title=" ">
<polygon fill="white" stroke="#666666" points="1031.5,-463 939.5,-463 939.5,-444 1031.5,-444 1031.5,-463"/>
<text text-anchor="middle" x="985.5" y="-451" font-family="Helvetica,sans-Serif" font-size="10.00">func_802A5004</text>
</a>
</g>
</g>
<!-- Node3&#45;&gt;Node4 -->
<g id="edge3_Node000003_Node000004" class="edge">
<title>Node3&#45;&gt;Node4</title>
<g id="a_edge3_Node000003_Node000004"><a xlink:title=" ">
<path fill="none" stroke="#63b8ff" d="M1107.63,-306.11C1097.28,-337.55 1072.92,-399.36 1032,-435.5 1028.18,-438.87 1023.65,-441.66 1018.96,-443.94"/>
<polygon fill="#63b8ff" stroke="#63b8ff" points="1111.04,-306.94 1110.71,-296.35 1104.37,-304.83 1111.04,-306.94"/>
</a>
</g>
</g>
<!-- Node12 -->
<g id="Node000012" class="node">
<title>Node12</title>
<g id="a_Node000012"><a xlink:href="skybox__and__splitscreen_8c.html#ab0061fbdffa3d6f0a7a58b866cfd2336" target="_top" xlink:title=" ">
<polygon fill="white" stroke="#666666" points="1031.5,-426 939.5,-426 939.5,-407 1031.5,-407 1031.5,-426"/>
<text text-anchor="middle" x="985.5" y="-414" font-family="Helvetica,sans-Serif" font-size="10.00">func_802A50EC</text>
</a>
</g>
</g>
<!-- Node3&#45;&gt;Node12 -->
<g id="edge11_Node000003_Node000012" class="edge">
<title>Node3&#45;&gt;Node12</title>
<g id="a_edge11_Node000003_Node000012"><a xlink:title=" ">
<path fill="none" stroke="#63b8ff" d="M1104.35,-304.97C1091.37,-329.47 1065.41,-372.61 1032,-398.5 1027.7,-401.83 1022.71,-404.62 1017.64,-406.93"/>
<polygon fill="#63b8ff" stroke="#63b8ff" points="1107.5,-306.5 1108.96,-296 1101.28,-303.3 1107.5,-306.5"/>
</a>
</g>
</g>
<!-- Node14 -->
<g id="Node000014" class="node">
<title>Node14</title>
<g id="a_Node000014"><a xlink:href="skybox__and__splitscreen_8c.html#a499e9f29e241ca3ab115fda541a146ac" target="_top" xlink:title=" ">
<polygon fill="white" stroke="#666666" points="1032,-389 939,-389 939,-370 1032,-370 1032,-389"/>
<text text-anchor="middle" x="985.5" y="-377" font-family="Helvetica,sans-Serif" font-size="10.00">func_802A51D4</text>
</a>
</g>
</g>
<!-- Node3&#45;&gt;Node14 -->
<g id="edge14_Node000003_Node000014" class="edge">
<title>Node3&#45;&gt;Node14</title>
<g id="a_edge14_Node000003_Node000014"><a xlink:title=" ">
<path fill="none" stroke="#63b8ff" d="M1098.16,-303.92C1082.79,-320.53 1057.76,-345.34 1032,-361.5 1026.96,-364.66 1021.28,-367.44 1015.68,-369.81"/>
<polygon fill="#63b8ff" stroke="#63b8ff" points="1100.77,-306.26 1104.9,-296.5 1095.59,-301.55 1100.77,-306.26"/>
</a>
</g>
</g>
<!-- Node16 -->
<g id="Node000016" class="node">
<title>Node16</title>
<g id="a_Node000016"><a xlink:href="skybox__and__splitscreen_8c.html#aa58c449ec64b285fd3b4def5e261ff97" target="_top" xlink:title=" ">
<polygon fill="white" stroke="#666666" points="1032,-352 939,-352 939,-333 1032,-333 1032,-352"/>
<text text-anchor="middle" x="985.5" y="-340" font-family="Helvetica,sans-Serif" font-size="10.00">func_802A52BC</text>
</a>
</g>
</g>
<!-- Node3&#45;&gt;Node16 -->
<g id="edge17_Node000003_Node000016" class="edge">
<title>Node3&#45;&gt;Node16</title>
<g id="a_edge17_Node000003_Node000016"><a xlink:title=" ">
<path fill="none" stroke="#63b8ff" d="M1084.79,-300.39C1069.26,-307.78 1049.69,-316.88 1032,-324.5 1025.45,-327.32 1018.29,-330.23 1011.64,-332.86"/>
<polygon fill="#63b8ff" stroke="#63b8ff" points="1086.37,-303.52 1093.89,-296.05 1083.35,-297.2 1086.37,-303.52"/>
</a>
</g>
</g>
<!-- Node18 -->
<g id="Node000018" class="node">
<title>Node18</title>
<g id="a_Node000018"><a xlink:href="skybox__and__splitscreen_8c.html#a0ead9b2e7f52608fae3579b63f3453e5" target="_top" xlink:title=" ">
<polygon fill="white" stroke="#666666" points="1031.5,-130 939.5,-130 939.5,-111 1031.5,-111 1031.5,-130"/>
<text text-anchor="middle" x="985.5" y="-118" font-family="Helvetica,sans-Serif" font-size="10.00">func_802A53A4</text>
</a>
</g>
</g>
<!-- Node3&#45;&gt;Node18 -->
<g id="edge20_Node000003_Node000018" class="edge">
<title>Node3&#45;&gt;Node18</title>
<g id="a_edge20_Node000003_Node000018"><a xlink:title=" ">
<path fill="none" stroke="#63b8ff" d="M1107.6,-267.02C1097.19,-235.8 1072.76,-174.4 1032,-138.5 1028.18,-135.13 1023.64,-132.35 1018.95,-130.07"/>
<polygon fill="#63b8ff" stroke="#63b8ff" points="1104.32,-268.26 1110.69,-276.72 1110.98,-266.13 1104.32,-268.26"/>
</a>
</g>
</g>
<!-- Node24 -->
<g id="Node000024" class="node">
<title>Node24</title>
<g id="a_Node000024"><a xlink:href="skybox__and__splitscreen_8c.html#a530f75435172f605331e514c70b3a1bd" target="_top" xlink:title=" ">
<polygon fill="white" stroke="#666666" points="1031.5,-315 939.5,-315 939.5,-296 1031.5,-296 1031.5,-315"/>
<text text-anchor="middle" x="985.5" y="-303" font-family="Helvetica,sans-Serif" font-size="10.00">func_802A54A8</text>
</a>
</g>
</g>
<!-- Node3&#45;&gt;Node24 -->
<g id="edge29_Node000003_Node000024" class="edge">
<title>Node3&#45;&gt;Node24</title>
<g id="a_edge29_Node000003_Node000024"><a xlink:title=" ">
<path fill="none" stroke="#63b8ff" d="M1057.65,-294.86C1049.03,-296.15 1040.21,-297.46 1031.86,-298.71"/>
<polygon fill="#63b8ff" stroke="#63b8ff" points="1058.28,-298.3 1067.65,-293.36 1057.24,-291.38 1058.28,-298.3"/>
</a>
</g>
</g>
<!-- Node26 -->
<g id="Node000026" class="node">
<title>Node26</title>
<g id="a_Node000026"><a xlink:href="skybox__and__splitscreen_8c.html#ae2f505de9b25f530a00ecf1e4f146700" target="_top" xlink:title=" ">
<polygon fill="white" stroke="#666666" points="1031.5,-278 939.5,-278 939.5,-259 1031.5,-259 1031.5,-278"/>
<text text-anchor="middle" x="985.5" y="-266" font-family="Helvetica,sans-Serif" font-size="10.00">func_802A5590</text>
</a>
</g>
</g>
<!-- Node3&#45;&gt;Node26 -->
<g id="edge32_Node000003_Node000026" class="edge">
<title>Node3&#45;&gt;Node26</title>
<g id="a_edge32_Node000003_Node000026"><a xlink:title=" ">
<path fill="none" stroke="#63b8ff" d="M1057.65,-278.58C1049.03,-277.36 1040.21,-276.11 1031.86,-274.93"/>
<polygon fill="#63b8ff" stroke="#63b8ff" points="1057.26,-282.06 1067.65,-280 1058.24,-275.13 1057.26,-282.06"/>
</a>
</g>
</g>
<!-- Node28 -->
<g id="Node000028" class="node">
<title>Node28</title>
<g id="a_Node000028"><a xlink:href="skybox__and__splitscreen_8c.html#a248dc83fd4a3f414744f72faf84b1904" target="_top" xlink:title=" ">
<polygon fill="white" stroke="#666666" points="1031.5,-241 939.5,-241 939.5,-222 1031.5,-222 1031.5,-241"/>
<text text-anchor="middle" x="985.5" y="-229" font-family="Helvetica,sans-Serif" font-size="10.00">func_802A5678</text>
</a>
</g>
</g>
<!-- Node3&#45;&gt;Node28 -->
<g id="edge35_Node000003_Node000028" class="edge">
<title>Node3&#45;&gt;Node28</title>
<g id="a_edge35_Node000003_Node000028"><a xlink:title=" ">
<path fill="none" stroke="#63b8ff" d="M1082.65,-272.7C1067.44,-265.93 1048.79,-257.71 1032,-250.5 1024.76,-247.39 1016.85,-244.06 1009.69,-241.07"/>
<polygon fill="#63b8ff" stroke="#63b8ff" points="1081.54,-276.03 1092.1,-276.91 1084.39,-269.64 1081.54,-276.03"/>
</a>
</g>
</g>
<!-- Node30 -->
<g id="Node000030" class="node">
<title>Node30</title>
<g id="a_Node000030"><a xlink:href="skybox__and__splitscreen_8c.html#adbeb0599946e6477e4aa0c65e9fea6a8" target="_top" xlink:title=" ">
<polygon fill="white" stroke="#666666" points="1031.5,-167 939.5,-167 939.5,-148 1031.5,-148 1031.5,-167"/>
<text text-anchor="middle" x="985.5" y="-155" font-family="Helvetica,sans-Serif" font-size="10.00">func_802A5760</text>
</a>
</g>
</g>
<!-- Node3&#45;&gt;Node30 -->
<g id="edge38_Node000003_Node000030" class="edge">
<title>Node3&#45;&gt;Node30</title>
<g id="a_edge38_Node000003_Node000030"><a xlink:title=" ">
<path fill="none" stroke="#63b8ff" d="M1104.11,-267.83C1091.02,-243.49 1065.11,-201.04 1032,-175.5 1027.7,-172.18 1022.7,-169.39 1017.63,-167.08"/>
<polygon fill="#63b8ff" stroke="#63b8ff" points="1101.05,-269.52 1108.78,-276.76 1107.25,-266.28 1101.05,-269.52"/>
</a>
</g>
</g>
<!-- Node5 -->
<g id="Node000005" class="node">
<title>Node5</title>
<g id="a_Node000005"><a xlink:href="skybox__and__splitscreen_8c.html#a3f9172888ae23d5920b6c6b352af2bd3" target="_top" xlink:title=" ">
<polygon fill="white" stroke="#666666" points="902.5,-463 810.5,-463 810.5,-444 902.5,-444 902.5,-463"/>
<text text-anchor="middle" x="856.5" y="-451" font-family="Helvetica,sans-Serif" font-size="10.00">func_802A5FAC</text>
</a>
</g>
</g>
<!-- Node4&#45;&gt;Node5 -->
<g id="edge4_Node000004_Node000005" class="edge">
<title>Node4&#45;&gt;Node5</title>
<g id="a_edge4_Node000004_Node000005"><a xlink:title=" ">
<path fill="none" stroke="#63b8ff" d="M929.2,-453.5C920.42,-453.5 911.43,-453.5 902.92,-453.5"/>
<polygon fill="#63b8ff" stroke="#63b8ff" points="929.37,-457 939.37,-453.5 929.37,-450 929.37,-457"/>
</a>
</g>
</g>
<!-- Node6 -->
<g id="Node000006" class="node">
<title>Node6</title>
<g id="a_Node000006"><a xlink:href="main_8c.html#afff87ffcbfee4f1f37d443110aa7b52a" target="_top" xlink:title=" ">
<polygon fill="white" stroke="#666666" points="753,-296 661,-296 661,-277 753,-277 753,-296"/>
<text text-anchor="middle" x="707" y="-284" font-family="Helvetica,sans-Serif" font-size="10.00">race_logic_loop</text>
</a>
</g>
</g>
<!-- Node5&#45;&gt;Node6 -->
<g id="edge5_Node000005_Node000006" class="edge">
<title>Node5&#45;&gt;Node6</title>
<g id="a_edge5_Node000005_Node000006"><a xlink:title=" ">
<path fill="none" stroke="#63b8ff" d="M814.89,-438.97C813.18,-437.89 811.54,-436.73 810,-435.5 759.28,-395.02 723.89,-322.58 712.21,-296.34"/>
<polygon fill="#63b8ff" stroke="#63b8ff" points="813.35,-442.12 823.81,-443.82 816.69,-435.97 813.35,-442.12"/>
</a>
</g>
</g>
<!-- Node7 -->
<g id="Node000007" class="node">
<title>Node7</title>
<g id="a_Node000007"><a xlink:href="main_8c.html#ae04143ce8113cdafa007c642eb620bc8" target="_top" xlink:title=" ">
<polygon fill="white" stroke="#666666" points="604,-130 488,-130 488,-111 604,-111 604,-130"/>
<text text-anchor="middle" x="546" y="-118" font-family="Helvetica,sans-Serif" font-size="10.00">game_state_handler</text>
</a>
</g>
</g>
<!-- Node6&#45;&gt;Node7 -->
<g id="edge6_Node000006_Node000007" class="edge">
<title>Node6&#45;&gt;Node7</title>
<g id="a_edge6_Node000006_Node000007"><a xlink:title=" ">
<path fill="none" stroke="#63b8ff" d="M689.35,-269.11C656.03,-234.33 582.16,-157.21 556.22,-130.13"/>
<polygon fill="#63b8ff" stroke="#63b8ff" points="687.09,-271.81 696.53,-276.61 692.14,-266.97 687.09,-271.81"/>
</a>
</g>
</g>
<!-- Node8 -->
<g id="Node000008" class="node">
<title>Node8</title>
<g id="a_Node000008"><a xlink:href="main_8c.html#a633ed517e458daeb768f5361895dcac9" target="_top" xlink:title=" ">
<polygon fill="white" stroke="#666666" points="452,-130 339,-130 339,-111 452,-111 452,-130"/>
<text text-anchor="middle" x="395.5" y="-118" font-family="Helvetica,sans-Serif" font-size="10.00">thread5_game_loop</text>
</a>
</g>
</g>
<!-- Node7&#45;&gt;Node8 -->
<g id="edge7_Node000007_Node000008" class="edge">
<title>Node7&#45;&gt;Node8</title>
<g id="a_edge7_Node000007_Node000008"><a xlink:title=" ">
<path fill="none" stroke="#63b8ff" d="M477.42,-120.5C469.02,-120.5 460.5,-120.5 452.3,-120.5"/>
<polygon fill="#63b8ff" stroke="#63b8ff" points="477.59,-124 487.59,-120.5 477.59,-117 477.59,-124"/>
</a>
</g>
</g>
<!-- Node9 -->
<g id="Node000009" class="node">
<title>Node9</title>
<g id="a_Node000009"><a xlink:href="main_8c.html#a023b8f272e4efbd33f371e91ffff6b30" target="_top" xlink:title=" ">
<polygon fill="white" stroke="#666666" points="303,-130 217,-130 217,-111 303,-111 303,-130"/>
<text text-anchor="middle" x="260" y="-118" font-family="Helvetica,sans-Serif" font-size="10.00">thread3_video</text>
</a>
</g>
</g>
<!-- Node8&#45;&gt;Node9 -->
<g id="edge8_Node000008_Node000009" class="edge">
<title>Node8&#45;&gt;Node9</title>
<g id="a_edge8_Node000008_Node000009"><a xlink:title=" ">
<path fill="none" stroke="#63b8ff" d="M328.57,-120.5C319.94,-120.5 311.3,-120.5 303.21,-120.5"/>
<polygon fill="#63b8ff" stroke="#63b8ff" points="328.66,-124 338.66,-120.5 328.66,-117 328.66,-124"/>
</a>
</g>
</g>
<!-- Node10 -->
<g id="Node000010" class="node">
<title>Node10</title>
<g id="a_Node000010"><a xlink:href="main_8c.html#a1e35d2b842121e6aea373f09381616e5" target="_top" xlink:title=" ">
<polygon fill="white" stroke="#666666" points="181,-130 104,-130 104,-111 181,-111 181,-130"/>
<text text-anchor="middle" x="142.5" y="-118" font-family="Helvetica,sans-Serif" font-size="10.00">thread1_idle</text>
</a>
</g>
</g>
<!-- Node9&#45;&gt;Node10 -->
<g id="edge9_Node000009_Node000010" class="edge">
<title>Node9&#45;&gt;Node10</title>
<g id="a_edge9_Node000009_Node000010"><a xlink:title=" ">
<path fill="none" stroke="#63b8ff" d="M206.9,-120.5C198.2,-120.5 189.33,-120.5 181.09,-120.5"/>
<polygon fill="#63b8ff" stroke="#63b8ff" points="206.98,-124 216.98,-120.5 206.98,-117 206.98,-124"/>
</a>
</g>
</g>
<!-- Node11 -->
<g id="Node000011" class="node">
<title>Node11</title>
<g id="a_Node000011"><a xlink:href="main_8c.html#a4f87d43525fe95f60ea92bc8a3b70e62" target="_top" xlink:title=" ">
<polygon fill="white" stroke="#666666" points="68,-130 0,-130 0,-111 68,-111 68,-130"/>
<text text-anchor="middle" x="34" y="-118" font-family="Helvetica,sans-Serif" font-size="10.00">main_func</text>
</a>
</g>
</g>
<!-- Node10&#45;&gt;Node11 -->
<g id="edge10_Node000010_Node000011" class="edge">
<title>Node10&#45;&gt;Node11</title>
<g id="a_edge10_Node000010_Node000011"><a xlink:title=" ">
<path fill="none" stroke="#63b8ff" d="M93.95,-120.5C85.29,-120.5 76.44,-120.5 68.31,-120.5"/>
<polygon fill="#63b8ff" stroke="#63b8ff" points="93.95,-124 103.95,-120.5 93.95,-117 93.95,-124"/>
</a>
</g>
</g>
<!-- Node13 -->
<g id="Node000013" class="node">
<title>Node13</title>
<g id="a_Node000013"><a xlink:href="skybox__and__splitscreen_8c.html#a9be31591c8a78c96ca86c1b87c3ec0a8" target="_top" xlink:title=" ">
<polygon fill="white" stroke="#666666" points="903,-426 810,-426 810,-407 903,-407 903,-426"/>
<text text-anchor="middle" x="856.5" y="-414" font-family="Helvetica,sans-Serif" font-size="10.00">func_802A5CB4</text>
</a>
</g>
</g>
<!-- Node12&#45;&gt;Node13 -->
<g id="edge12_Node000012_Node000013" class="edge">
<title>Node12&#45;&gt;Node13</title>
<g id="a_edge12_Node000012_Node000013"><a xlink:title=" ">
<path fill="none" stroke="#63b8ff" d="M929.33,-416.5C920.66,-416.5 911.77,-416.5 903.34,-416.5"/>
<polygon fill="#63b8ff" stroke="#63b8ff" points="929.37,-420 939.37,-416.5 929.37,-413 929.37,-420"/>
</a>
</g>
</g>
<!-- Node13&#45;&gt;Node6 -->
<g id="edge13_Node000013_Node000006" class="edge">
<title>Node13&#45;&gt;Node6</title>
<g id="a_edge13_Node000013_Node000006"><a xlink:title=" ">
<path fill="none" stroke="#63b8ff" d="M816.57,-402.54C814.29,-401.28 812.08,-399.94 810,-398.5 766.94,-368.76 729.19,-317.58 714.51,-296.26"/>
<polygon fill="#63b8ff" stroke="#63b8ff" points="815.09,-405.71 825.62,-406.95 818.16,-399.42 815.09,-405.71"/>
</a>
</g>
</g>
<!-- Node15 -->
<g id="Node000015" class="node">
<title>Node15</title>
<g id="a_Node000015"><a xlink:href="skybox__and__splitscreen_8c.html#a897b8a8f9d54144b0916eb7173651af0" target="_top" xlink:title=" ">
<polygon fill="white" stroke="#666666" points="902.5,-389 810.5,-389 810.5,-370 902.5,-370 902.5,-389"/>
<text text-anchor="middle" x="856.5" y="-377" font-family="Helvetica,sans-Serif" font-size="10.00">func_802A62A4</text>
</a>
</g>
</g>
<!-- Node14&#45;&gt;Node15 -->
<g id="edge15_Node000014_Node000015" class="edge">
<title>Node14&#45;&gt;Node15</title>
<g id="a_edge15_Node000014_Node000015"><a xlink:title=" ">
<path fill="none" stroke="#63b8ff" d="M928.37,-379.5C919.84,-379.5 911.12,-379.5 902.86,-379.5"/>
<polygon fill="#63b8ff" stroke="#63b8ff" points="928.65,-383 938.65,-379.5 928.65,-376 928.65,-383"/>
</a>
</g>
</g>
<!-- Node15&#45;&gt;Node6 -->
<g id="edge16_Node000015_Node000006" class="edge">
<title>Node15&#45;&gt;Node6</title>
<g id="a_edge16_Node000015_Node000006"><a xlink:title=" ">
<path fill="none" stroke="#63b8ff" d="M818.57,-365.84C815.63,-364.46 812.74,-363.01 810,-361.5 774.42,-341.81 737,-311.41 718.97,-296.06"/>
<polygon fill="#63b8ff" stroke="#63b8ff" points="817.46,-369.17 828.03,-369.95 820.25,-362.75 817.46,-369.17"/>
</a>
</g>
</g>
<!-- Node17 -->
<g id="Node000017" class="node">
<title>Node17</title>
<g id="a_Node000017"><a xlink:href="skybox__and__splitscreen_8c.html#acdf96ac83288ec562406d39e4dce3e01" target="_top" xlink:title=" ">
<polygon fill="white" stroke="#666666" points="902.5,-352 810.5,-352 810.5,-333 902.5,-333 902.5,-352"/>
<text text-anchor="middle" x="856.5" y="-340" font-family="Helvetica,sans-Serif" font-size="10.00">func_802A65B8</text>
</a>
</g>
</g>
<!-- Node16&#45;&gt;Node17 -->
<g id="edge18_Node000016_Node000017" class="edge">
<title>Node16&#45;&gt;Node17</title>
<g id="a_edge18_Node000016_Node000017"><a xlink:title=" ">
<path fill="none" stroke="#63b8ff" d="M928.37,-342.5C919.84,-342.5 911.12,-342.5 902.86,-342.5"/>
<polygon fill="#63b8ff" stroke="#63b8ff" points="928.65,-346 938.65,-342.5 928.65,-339 928.65,-346"/>
</a>
</g>
</g>
<!-- Node17&#45;&gt;Node6 -->
<g id="edge19_Node000017_Node000006" class="edge">
<title>Node17&#45;&gt;Node6</title>
<g id="a_edge19_Node000017_Node000006"><a xlink:title=" ">
<path fill="none" stroke="#63b8ff" d="M820.7,-329.29C793.77,-319.06 757.12,-305.15 733.03,-296"/>
<polygon fill="#63b8ff" stroke="#63b8ff" points="819.55,-332.6 830.14,-332.87 822.04,-326.05 819.55,-332.6"/>
</a>
</g>
</g>
<!-- Node19 -->
<g id="Node000019" class="node">
<title>Node19</title>
<g id="a_Node000019"><a xlink:href="code__80280000_8c.html#aa9c130485d39c4a7276605b30db5150e" target="_top" xlink:title=" ">
<polygon fill="white" stroke="#666666" points="902,-130 811,-130 811,-111 902,-111 902,-130"/>
<text text-anchor="middle" x="856.5" y="-118" font-family="Helvetica,sans-Serif" font-size="10.00">func_80280038</text>
</a>
</g>
</g>
<!-- Node18&#45;&gt;Node19 -->
<g id="edge21_Node000018_Node000019" class="edge">
<title>Node18&#45;&gt;Node19</title>
<g id="a_edge21_Node000018_Node000019"><a xlink:title=" ">
<path fill="none" stroke="#63b8ff" d="M929.25,-120.5C920.16,-120.5 910.84,-120.5 902.06,-120.5"/>
<polygon fill="#63b8ff" stroke="#63b8ff" points="929.37,-124 939.37,-120.5 929.37,-117 929.37,-124"/>
</a>
</g>
</g>
<!-- Node21 -->
<g id="Node000021" class="node">
<title>Node21</title>
<g id="a_Node000021"><a xlink:href="code__80281C40_8c.html#af6f6a1f0caec6d086a4ab98602a6670e" target="_top" xlink:title=" ">
<polygon fill="white" stroke="#666666" points="902.5,-93 810.5,-93 810.5,-74 902.5,-74 902.5,-93"/>
<text text-anchor="middle" x="856.5" y="-81" font-family="Helvetica,sans-Serif" font-size="10.00">func_80281D00</text>
</a>
</g>
</g>
<!-- Node18&#45;&gt;Node21 -->
<g id="edge24_Node000018_Node000021" class="edge">
<title>Node18&#45;&gt;Node21</title>
<g id="a_edge24_Node000018_Node000021"><a xlink:title=" ">
<path fill="none" stroke="#63b8ff" d="M942.19,-108.17C925.37,-103.27 906.31,-97.72 890.54,-93.12"/>
<polygon fill="#63b8ff" stroke="#63b8ff" points="941.21,-111.53 951.79,-110.97 943.17,-104.81 941.21,-111.53"/>
</a>
</g>
</g>
<!-- Node23 -->
<g id="Node000023" class="node">
<title>Node23</title>
<g id="a_Node000023"><a xlink:href="skybox__and__splitscreen_8c.html#a94c46fe3fe5eef642ce3520b68504133" target="_top" xlink:title=" ">
<polygon fill="white" stroke="#666666" points="902.5,-167 810.5,-167 810.5,-148 902.5,-148 902.5,-167"/>
<text text-anchor="middle" x="856.5" y="-155" font-family="Helvetica,sans-Serif" font-size="10.00">func_802A59A4</text>
</a>
</g>
</g>
<!-- Node18&#45;&gt;Node23 -->
<g id="edge27_Node000018_Node000023" class="edge">
<title>Node18&#45;&gt;Node23</title>
<g id="a_edge27_Node000018_Node000023"><a xlink:title=" ">
<path fill="none" stroke="#63b8ff" d="M942.19,-132.83C925.37,-137.73 906.31,-143.28 890.54,-147.88"/>
<polygon fill="#63b8ff" stroke="#63b8ff" points="943.17,-136.19 951.79,-130.03 941.21,-129.47 943.17,-136.19"/>
</a>
</g>
</g>
<!-- Node20 -->
<g id="Node000020" class="node">
<title>Node20</title>
<g id="a_Node000020"><a xlink:href="code__80280000_8c.html#aa28a69be4eda3b8667366c6c7b556024" target="_top" xlink:title=" ">
<polygon fill="white" stroke="#666666" points="745,-130 669,-130 669,-111 745,-111 745,-130"/>
<text text-anchor="middle" x="707" y="-118" font-family="Helvetica,sans-Serif" font-size="10.00">credits_loop</text>
</a>
</g>
</g>
<!-- Node19&#45;&gt;Node20 -->
<g id="edge22_Node000019_Node000020" class="edge">
<title>Node19&#45;&gt;Node20</title>
<g id="a_edge22_Node000019_Node000020"><a xlink:title=" ">
<path fill="none" stroke="#63b8ff" d="M800.75,-120.5C782.19,-120.5 761.91,-120.5 745.06,-120.5"/>
<polygon fill="#63b8ff" stroke="#63b8ff" points="800.84,-124 810.84,-120.5 800.84,-117 800.84,-124"/>
</a>
</g>
</g>
<!-- Node20&#45;&gt;Node7 -->
<g id="edge23_Node000020_Node000007" class="edge">
<title>Node20&#45;&gt;Node7</title>
<g id="a_edge23_Node000020_Node000007"><a xlink:title=" ">
<path fill="none" stroke="#63b8ff" d="M658.46,-120.5C641.42,-120.5 622.05,-120.5 604.28,-120.5"/>
<polygon fill="#63b8ff" stroke="#63b8ff" points="658.72,-124 668.72,-120.5 658.72,-117 658.72,-124"/>
</a>
</g>
</g>
<!-- Node22 -->
<g id="Node000022" class="node">
<title>Node22</title>
<g id="a_Node000022"><a xlink:href="podium__ceremony__actors_8c.html#a7ea229c65f264670fc828b95e8321154" target="_top" xlink:title=" ">
<polygon fill="white" stroke="#666666" points="774,-93 640,-93 640,-74 774,-74 774,-93"/>
<text text-anchor="middle" x="707" y="-81" font-family="Helvetica,sans-Serif" font-size="10.00">podium_ceremony_loop</text>
</a>
</g>
</g>
<!-- Node21&#45;&gt;Node22 -->
<g id="edge25_Node000021_Node000022" class="edge">
<title>Node21&#45;&gt;Node22</title>
<g id="a_edge25_Node000021_Node000022"><a xlink:title=" ">
<path fill="none" stroke="#63b8ff" d="M800.29,-83.5C791.79,-83.5 782.94,-83.5 774.23,-83.5"/>
<polygon fill="#63b8ff" stroke="#63b8ff" points="800.44,-87 810.44,-83.5 800.44,-80 800.44,-87"/>
</a>
</g>
</g>
<!-- Node22&#45;&gt;Node7 -->
<g id="edge26_Node000022_Node000007" class="edge">
<title>Node22&#45;&gt;Node7</title>
<g id="a_edge26_Node000022_Node000007"><a xlink:title=" ">
<path fill="none" stroke="#63b8ff" d="M655.05,-95.36C633.41,-100.39 608.52,-106.18 588.08,-110.94"/>
<polygon fill="#63b8ff" stroke="#63b8ff" points="656.11,-98.7 665.05,-93.03 654.52,-91.89 656.11,-98.7"/>
</a>
</g>
</g>
<!-- Node23&#45;&gt;Node6 -->
<g id="edge28_Node000023_Node000006" class="edge">
<title>Node23&#45;&gt;Node6</title>
<g id="a_edge28_Node000023_Node000006"><a xlink:title=" ">
<path fill="none" stroke="#63b8ff" d="M816.58,-171.47C814.3,-172.73 812.08,-174.07 810,-175.5 767.08,-205 729.25,-255.71 714.53,-276.83"/>
<polygon fill="#63b8ff" stroke="#63b8ff" points="818.17,-174.59 825.63,-167.07 815.1,-168.3 818.17,-174.59"/>
</a>
</g>
</g>
<!-- Node25 -->
<g id="Node000025" class="node">
<title>Node25</title>
<g id="a_Node000025"><a xlink:href="skybox__and__splitscreen_8c.html#accb6af916ac72e9b2186f11211419818" target="_top" xlink:title=" ">
<polygon fill="white" stroke="#666666" points="903,-315 810,-315 810,-296 903,-296 903,-315"/>
<text text-anchor="middle" x="856.5" y="-303" font-family="Helvetica,sans-Serif" font-size="10.00">func_802A68CC</text>
</a>
</g>
</g>
<!-- Node24&#45;&gt;Node25 -->
<g id="edge30_Node000024_Node000025" class="edge">
<title>Node24&#45;&gt;Node25</title>
<g id="a_edge30_Node000024_Node000025"><a xlink:title=" ">
<path fill="none" stroke="#63b8ff" d="M929.33,-305.5C920.66,-305.5 911.77,-305.5 903.34,-305.5"/>
<polygon fill="#63b8ff" stroke="#63b8ff" points="929.37,-309 939.37,-305.5 929.37,-302 929.37,-309"/>
</a>
</g>
</g>
<!-- Node25&#45;&gt;Node6 -->
<g id="edge31_Node000025_Node000006" class="edge">
<title>Node25&#45;&gt;Node6</title>
<g id="a_edge31_Node000025_Node000006"><a xlink:title=" ">
<path fill="none" stroke="#63b8ff" d="M799.71,-298.31C784.3,-296.33 767.79,-294.2 753.07,-292.31"/>
<polygon fill="#63b8ff" stroke="#63b8ff" points="799.27,-301.79 809.64,-299.59 800.17,-294.84 799.27,-301.79"/>
</a>
</g>
</g>
<!-- Node27 -->
<g id="Node000027" class="node">
<title>Node27</title>
<g id="a_Node000027"><a xlink:href="skybox__and__splitscreen_8c.html#a45bafabf82a007ad2129de0f35f7f637" target="_top" xlink:title=" ">
<polygon fill="white" stroke="#666666" points="903,-278 810,-278 810,-259 903,-259 903,-278"/>
<text text-anchor="middle" x="856.5" y="-266" font-family="Helvetica,sans-Serif" font-size="10.00">func_802A6BB0</text>
</a>
</g>
</g>
<!-- Node26&#45;&gt;Node27 -->
<g id="edge33_Node000026_Node000027" class="edge">
<title>Node26&#45;&gt;Node27</title>
<g id="a_edge33_Node000026_Node000027"><a xlink:title=" ">
<path fill="none" stroke="#63b8ff" d="M929.33,-268.5C920.66,-268.5 911.77,-268.5 903.34,-268.5"/>
<polygon fill="#63b8ff" stroke="#63b8ff" points="929.37,-272 939.37,-268.5 929.37,-265 929.37,-272"/>
</a>
</g>
</g>
<!-- Node27&#45;&gt;Node6 -->
<g id="edge34_Node000027_Node000006" class="edge">
<title>Node27&#45;&gt;Node6</title>
<g id="a_edge34_Node000027_Node000006"><a xlink:title=" ">
<path fill="none" stroke="#63b8ff" d="M799.71,-275.31C784.3,-277.19 767.79,-279.2 753.07,-281"/>
<polygon fill="#63b8ff" stroke="#63b8ff" points="800.14,-278.78 809.64,-274.1 799.29,-271.83 800.14,-278.78"/>
</a>
</g>
</g>
<!-- Node29 -->
<g id="Node000029" class="node">
<title>Node29</title>
<g id="a_Node000029"><a xlink:href="skybox__and__splitscreen_8c.html#af3ee91cad91c4da03eb90c4f7e449660" target="_top" xlink:title=" ">
<polygon fill="white" stroke="#666666" points="902.5,-241 810.5,-241 810.5,-222 902.5,-222 902.5,-241"/>
<text text-anchor="middle" x="856.5" y="-229" font-family="Helvetica,sans-Serif" font-size="10.00">func_802A6E94</text>
</a>
</g>
</g>
<!-- Node28&#45;&gt;Node29 -->
<g id="edge36_Node000028_Node000029" class="edge">
<title>Node28&#45;&gt;Node29</title>
<g id="a_edge36_Node000028_Node000029"><a xlink:title=" ">
<path fill="none" stroke="#63b8ff" d="M929.2,-231.5C920.42,-231.5 911.43,-231.5 902.92,-231.5"/>
<polygon fill="#63b8ff" stroke="#63b8ff" points="929.37,-235 939.37,-231.5 929.37,-228 929.37,-235"/>
</a>
</g>
</g>
<!-- Node29&#45;&gt;Node6 -->
<g id="edge37_Node000029_Node000006" class="edge">
<title>Node29&#45;&gt;Node6</title>
<g id="a_edge37_Node000029_Node000006"><a xlink:title=" ">
<path fill="none" stroke="#63b8ff" d="M820.12,-244.69C793.57,-254.59 757.82,-267.92 733.89,-276.84"/>
<polygon fill="#63b8ff" stroke="#63b8ff" points="821.66,-247.85 829.81,-241.08 819.21,-241.29 821.66,-247.85"/>
</a>
</g>
</g>
<!-- Node31 -->
<g id="Node000031" class="node">
<title>Node31</title>
<g id="a_Node000031"><a xlink:href="skybox__and__splitscreen_8c.html#a9e0359eea0d69204abb0f5a866ca0173" target="_top" xlink:title=" ">
<polygon fill="white" stroke="#666666" points="902.5,-204 810.5,-204 810.5,-185 902.5,-185 902.5,-204"/>
<text text-anchor="middle" x="856.5" y="-192" font-family="Helvetica,sans-Serif" font-size="10.00">func_802A7178</text>
</a>
</g>
</g>
<!-- Node30&#45;&gt;Node31 -->
<g id="edge39_Node000030_Node000031" class="edge">
<title>Node30&#45;&gt;Node31</title>
<g id="a_edge39_Node000030_Node000031"><a xlink:title=" ">
<path fill="none" stroke="#63b8ff" d="M942.19,-169.83C925.37,-174.73 906.31,-180.28 890.54,-184.88"/>
<polygon fill="#63b8ff" stroke="#63b8ff" points="943.17,-173.19 951.79,-167.03 941.21,-166.47 943.17,-173.19"/>
</a>
</g>
</g>
<!-- Node31&#45;&gt;Node6 -->
<g id="edge40_Node000031_Node000006" class="edge">
<title>Node31&#45;&gt;Node6</title>
<g id="a_edge40_Node000031_Node000006"><a xlink:title=" ">
<path fill="none" stroke="#63b8ff" d="M820.23,-208.29C816.72,-209.94 813.26,-211.68 810,-213.5 775.19,-232.9 738.02,-261.87 719.66,-276.81"/>
<polygon fill="#63b8ff" stroke="#63b8ff" points="821.79,-211.42 829.51,-204.17 818.95,-205.03 821.79,-211.42"/>
</a>
</g>
</g>
<!-- Node33 -->
<g id="Node000033" class="node">
<title>Node33</title>
<g id="a_Node000033"><a xlink:href="guPerspectiveF_8c.html#ac2050885d6967becf0e5e3bb3e54bd08" target="_top" xlink:title=" ">
<polygon fill="white" stroke="#666666" points="1028.5,-204 942.5,-204 942.5,-185 1028.5,-185 1028.5,-204"/>
<text text-anchor="middle" x="985.5" y="-192" font-family="Helvetica,sans-Serif" font-size="10.00">guPerspective</text>
</a>
</g>
</g>
<!-- Node32&#45;&gt;Node33 -->
<g id="edge42_Node000032_Node000033" class="edge">
<title>Node32&#45;&gt;Node33</title>
<g id="a_edge42_Node000032_Node000033"><a xlink:title=" ">
<path fill="none" stroke="#63b8ff" d="M1186.8,-194.5C1139.31,-194.5 1071.82,-194.5 1028.6,-194.5"/>
<polygon fill="#63b8ff" stroke="#63b8ff" points="1186.91,-198 1196.91,-194.5 1186.91,-191 1186.91,-198"/>
</a>
</g>
</g>
<!-- Node33&#45;&gt;Node5 -->
<g id="edge49_Node000033_Node000005" class="edge">
<title>Node33&#45;&gt;Node5</title>
<g id="a_edge49_Node000033_Node000005"><a xlink:title=" ">
<path fill="none" stroke="#63b8ff" d="M942.14,-210.07C941.01,-211.14 939.96,-212.28 939,-213.5 877.09,-291.97 965.65,-357.62 903,-435.5 900.23,-438.94 896.71,-441.73 892.86,-443.98"/>
<polygon fill="#63b8ff" stroke="#63b8ff" points="944.44,-212.73 950.47,-204.02 940.32,-207.07 944.44,-212.73"/>
</a>
</g>
</g>
<!-- Node33&#45;&gt;Node13 -->
<g id="edge48_Node000033_Node000013" class="edge">
<title>Node33&#45;&gt;Node13</title>
<g id="a_edge48_Node000033_Node000013"><a xlink:title=" ">
<path fill="none" stroke="#63b8ff" d="M942.19,-210.11C941.05,-211.17 939.98,-212.3 939,-213.5 886.09,-278.44 956.52,-334.06 903,-398.5 900.18,-401.9 896.62,-404.66 892.75,-406.9"/>
<polygon fill="#63b8ff" stroke="#63b8ff" points="944.48,-212.78 950.58,-204.11 940.41,-207.08 944.48,-212.78"/>
</a>
</g>
</g>
<!-- Node33&#45;&gt;Node15 -->
<g id="edge50_Node000033_Node000015" class="edge">
<title>Node33&#45;&gt;Node15</title>
<g id="a_edge50_Node000033_Node000015"><a xlink:title=" ">
<path fill="none" stroke="#63b8ff" d="M942.26,-210.17C941.1,-211.21 940.01,-212.32 939,-213.5 895.03,-264.97 947.45,-310.44 903,-361.5 900.1,-364.83 896.5,-367.55 892.6,-369.77"/>
<polygon fill="#63b8ff" stroke="#63b8ff" points="944.55,-212.84 950.74,-204.24 940.54,-207.11 944.55,-212.84"/>
</a>
</g>
</g>
<!-- Node33&#45;&gt;Node17 -->
<g id="edge51_Node000033_Node000017" class="edge">
<title>Node33&#45;&gt;Node17</title>
<g id="a_edge51_Node000033_Node000017"><a xlink:title=" ">
<path fill="none" stroke="#63b8ff" d="M942.87,-209.86C941.5,-210.99 940.2,-212.2 939,-213.5 903.86,-251.64 938.5,-286.69 903,-324.5 899.86,-327.84 896.02,-330.58 891.92,-332.81"/>
<polygon fill="#63b8ff" stroke="#63b8ff" points="945.02,-212.64 951.45,-204.22 941.17,-206.79 945.02,-212.64"/>
</a>
</g>
</g>
<!-- Node33&#45;&gt;Node19 -->
<g id="edge45_Node000033_Node000019" class="edge">
<title>Node33&#45;&gt;Node19</title>
<g id="a_edge45_Node000033_Node000019"><a xlink:title=" ">
<path fill="none" stroke="#63b8ff" d="M947.56,-180.61C944.58,-179.03 941.69,-177.33 939,-175.5 920.03,-162.6 922.09,-151.23 903,-138.5 898.19,-135.3 892.73,-132.52 887.3,-130.18"/>
<polygon fill="#63b8ff" stroke="#63b8ff" points="946.1,-183.79 956.63,-184.96 949.12,-177.48 946.1,-183.79"/>
</a>
</g>
</g>
<!-- Node33&#45;&gt;Node21 -->
<g id="edge46_Node000033_Node000021" class="edge">
<title>Node33&#45;&gt;Node21</title>
<g id="a_edge46_Node000033_Node000021"><a xlink:title=" ">
<path fill="none" stroke="#63b8ff" d="M943.8,-179.45C942.11,-178.22 940.49,-176.91 939,-175.5 912.41,-150.39 929.83,-126.36 903,-101.5 899.39,-98.15 895.07,-95.4 890.57,-93.14"/>
<polygon fill="#63b8ff" stroke="#63b8ff" points="942.45,-182.71 952.83,-184.82 946.03,-176.69 942.45,-182.71"/>
</a>
</g>
</g>
<!-- Node33&#45;&gt;Node23 -->
<g id="edge47_Node000033_Node000023" class="edge">
<title>Node33&#45;&gt;Node23</title>
<g id="a_edge47_Node000033_Node000023"><a xlink:title=" ">
<path fill="none" stroke="#63b8ff" d="M942.19,-182.17C925.37,-177.27 906.31,-171.72 890.54,-167.12"/>
<polygon fill="#63b8ff" stroke="#63b8ff" points="941.21,-185.53 951.79,-184.97 943.17,-178.81 941.21,-185.53"/>
</a>
</g>
</g>
<!-- Node33&#45;&gt;Node25 -->
<g id="edge52_Node000033_Node000025" class="edge">
<title>Node33&#45;&gt;Node25</title>
<g id="a_edge52_Node000033_Node000025"><a xlink:title=" ">
<path fill="none" stroke="#63b8ff" d="M943.8,-209.55C942.11,-210.78 940.49,-212.09 939,-213.5 912.41,-238.61 929.83,-262.64 903,-287.5 899.39,-290.85 895.07,-293.6 890.57,-295.86"/>
<polygon fill="#63b8ff" stroke="#63b8ff" points="946.03,-212.31 952.83,-204.18 942.45,-206.29 946.03,-212.31"/>
</a>
</g>
</g>
<!-- Node33&#45;&gt;Node27 -->
<g id="edge53_Node000033_Node000027" class="edge">
<title>Node33&#45;&gt;Node27</title>
<g id="a_edge53_Node000033_Node000027"><a xlink:title=" ">
<path fill="none" stroke="#63b8ff" d="M947.56,-208.39C944.58,-209.97 941.69,-211.67 939,-213.5 920.03,-226.4 922.09,-237.77 903,-250.5 898.19,-253.7 892.73,-256.48 887.3,-258.82"/>
<polygon fill="#63b8ff" stroke="#63b8ff" points="949.12,-211.52 956.63,-204.04 946.1,-205.21 949.12,-211.52"/>
</a>
</g>
</g>
<!-- Node33&#45;&gt;Node29 -->
<g id="edge54_Node000033_Node000029" class="edge">
<title>Node33&#45;&gt;Node29</title>
<g id="a_edge54_Node000033_Node000029"><a xlink:title=" ">
<path fill="none" stroke="#63b8ff" d="M942.19,-206.83C925.37,-211.73 906.31,-217.28 890.54,-221.88"/>
<polygon fill="#63b8ff" stroke="#63b8ff" points="943.17,-210.19 951.79,-204.03 941.21,-203.47 943.17,-210.19"/>
</a>
</g>
</g>
<!-- Node33&#45;&gt;Node31 -->
<g id="edge55_Node000033_Node000031" class="edge">
<title>Node33&#45;&gt;Node31</title>
<g id="a_edge55_Node000033_Node000031"><a xlink:title=" ">
<path fill="none" stroke="#63b8ff" d="M932.17,-194.5C922.38,-194.5 912.21,-194.5 902.66,-194.5"/>
<polygon fill="#63b8ff" stroke="#63b8ff" points="932.21,-198 942.21,-194.5 932.21,-191 932.21,-198"/>
</a>
</g>
</g>
<!-- Node34 -->
<g id="Node000034" class="node">
<title>Node34</title>
<g id="a_Node000034"><a xlink:href="code__80091750_8c.html#ae0c2344ba6cdd815eec1916e693e5577" target="_top" xlink:title=" ">
<polygon fill="white" stroke="#666666" points="902,-56 811,-56 811,-37 902,-37 902,-56"/>
<text text-anchor="middle" x="856.5" y="-44" font-family="Helvetica,sans-Serif" font-size="10.00">func_80094660</text>
</a>
</g>
</g>
<!-- Node33&#45;&gt;Node34 -->
<g id="edge43_Node000033_Node000034" class="edge">
<title>Node33&#45;&gt;Node34</title>
<g id="a_edge43_Node000033_Node000034"><a xlink:title=" ">
<path fill="none" stroke="#63b8ff" d="M942.87,-179.14C941.5,-178.01 940.2,-176.8 939,-175.5 903.86,-137.36 938.5,-102.31 903,-64.5 899.86,-61.16 896.02,-58.42 891.92,-56.19"/>
<polygon fill="#63b8ff" stroke="#63b8ff" points="941.17,-182.21 951.45,-184.78 945.02,-176.36 941.17,-182.21"/>
</a>
</g>
</g>
<!-- Node35 -->
<g id="Node000035" class="node">
<title>Node35</title>
<g id="a_Node000035"><a xlink:href="code__80091750_8c.html#ae04223f59aa52190bb7d615e4adcff39" target="_top" xlink:title=" ">
<polygon fill="white" stroke="#666666" points="902.5,-19 810.5,-19 810.5,0 902.5,0 902.5,-19"/>
<text text-anchor="middle" x="856.5" y="-7" font-family="Helvetica,sans-Serif" font-size="10.00">func_800947B4</text>
</a>
</g>
</g>
<!-- Node33&#45;&gt;Node35 -->
<g id="edge44_Node000033_Node000035" class="edge">
<title>Node33&#45;&gt;Node35</title>
<g id="a_edge44_Node000033_Node000035"><a xlink:title=" ">
<path fill="none" stroke="#63b8ff" d="M942.26,-178.83C941.1,-177.79 940.01,-176.68 939,-175.5 895.03,-124.03 947.45,-78.56 903,-27.5 900.1,-24.17 896.5,-21.45 892.6,-19.23"/>
<polygon fill="#63b8ff" stroke="#63b8ff" points="940.54,-181.89 950.74,-184.76 944.55,-176.16 940.54,-181.89"/>
</a>
</g>
</g>
<!-- Node37 -->
<g id="Node000037" class="node">
<title>Node37</title>
<g id="a_Node000037"><a xlink:href="guRotateF_8c.html#a98ec2e0b2831b168feffd49493a08134" target="_top" xlink:title=" ">
<polygon fill="white" stroke="#666666" points="1145,-57 1084,-57 1084,-38 1145,-38 1145,-57"/>
<text text-anchor="middle" x="1114.5" y="-45" font-family="Helvetica,sans-Serif" font-size="10.00">guRotate</text>
</a>
</g>
</g>
<!-- Node36&#45;&gt;Node37 -->
<g id="edge57_Node000036_Node000037" class="edge">
<title>Node36&#45;&gt;Node37</title>
<g id="a_edge57_Node000036_Node000037"><a xlink:title=" ">
<path fill="none" stroke="#63b8ff" d="M1210.75,-88.91C1188.08,-79.06 1157.95,-65.96 1137.71,-57.16"/>
<polygon fill="#63b8ff" stroke="#63b8ff" points="1209.4,-92.14 1219.97,-92.92 1212.19,-85.72 1209.4,-92.14"/>
</a>
</g>
</g>
<!-- Node37&#45;&gt;Node35 -->
<g id="edge60_Node000037_Node000035" class="edge">
<title>Node37&#45;&gt;Node35</title>
<g id="a_edge60_Node000037_Node000035"><a xlink:title=" ">
<path fill="none" stroke="#63b8ff" d="M1074.07,-37.3C1060.78,-34.13 1045.81,-30.85 1032,-28.5 988.29,-21.05 937.9,-15.93 902.54,-12.9"/>
<polygon fill="#63b8ff" stroke="#63b8ff" points="1073.32,-40.72 1083.87,-39.68 1074.98,-33.92 1073.32,-40.72"/>
</a>
</g>
</g>
<!-- Node38 -->
<g id="Node000038" class="node">
<title>Node38</title>
<g id="a_Node000038"><a xlink:href="code__80091750_8c.html#adbd28a1b1d900463cb8b1fb645179c71" target="_top" xlink:title=" ">
<polygon fill="white" stroke="#666666" points="1031.5,-57 939.5,-57 939.5,-38 1031.5,-38 1031.5,-57"/>
<text text-anchor="middle" x="985.5" y="-45" font-family="Helvetica,sans-Serif" font-size="10.00">func_800942D0</text>
</a>
</g>
</g>
<!-- Node37&#45;&gt;Node38 -->
<g id="edge58_Node000037_Node000038" class="edge">
<title>Node37&#45;&gt;Node38</title>
<g id="a_edge58_Node000037_Node000038"><a xlink:title=" ">
<path fill="none" stroke="#63b8ff" d="M1073.44,-47.5C1060.11,-47.5 1045.19,-47.5 1031.51,-47.5"/>
<polygon fill="#63b8ff" stroke="#63b8ff" points="1073.72,-51 1083.72,-47.5 1073.72,-44 1073.72,-51"/>
</a>
</g>
</g>
<!-- Node38&#45;&gt;Node34 -->
<g id="edge59_Node000038_Node000034" class="edge">
<title>Node38&#45;&gt;Node34</title>
<g id="a_edge59_Node000038_Node000034"><a xlink:title=" ">
<path fill="none" stroke="#63b8ff" d="M929.25,-47.06C920.16,-46.99 910.84,-46.92 902.06,-46.85"/>
<polygon fill="#63b8ff" stroke="#63b8ff" points="929.34,-50.57 939.37,-47.14 929.39,-43.57 929.34,-50.57"/>
</a>
</g>
</g>
</g>
</svg>
