<?xml version="1.0" encoding="UTF-8" standalone="no"?>
<!DOCTYPE svg PUBLIC "-//W3C//DTD SVG 1.1//EN"
 "http://www.w3.org/Graphics/SVG/1.1/DTD/svg11.dtd">
<!-- Generated by graphviz version 2.43.0 (0)
 -->
<!-- Title: func_8009CA6C Pages: 1 -->
<svg width="887pt" height="331pt"
 viewBox="0.00 0.00 887.00 331.16" xmlns="http://www.w3.org/2000/svg" xmlns:xlink="http://www.w3.org/1999/xlink">
<g id="graph0" class="graph" transform="scale(1 1) rotate(0) translate(4 327.16)">
<title>func_8009CA6C</title>
<!-- Node1 -->
<g id="Node000001" class="node">
<title>Node1</title>
<g id="a_Node000001"><a xlink:title=" ">
<polygon fill="#999999" stroke="#666666" points="93,-157.16 0,-157.16 0,-138.16 93,-138.16 93,-157.16"/>
<text text-anchor="middle" x="46.5" y="-145.16" font-family="Helvetica,sans-Serif" font-size="10.00">func_8009CA6C</text>
</a>
</g>
</g>
<!-- Node2 -->
<g id="Node000002" class="node">
<title>Node2</title>
<g id="a_Node000002"><a xlink:href="menu__items_8c.html#a7f18e15d9809e4d599ef49ab30b19891" target="_top" xlink:title=" ">
<polygon fill="white" stroke="#666666" points="242.5,-289.16 129.5,-289.16 129.5,-270.16 242.5,-270.16 242.5,-289.16"/>
<text text-anchor="middle" x="186" y="-277.16" font-family="Helvetica,sans-Serif" font-size="10.00">draw_black_fade_in</text>
</a>
</g>
</g>
<!-- Node1&#45;&gt;Node2 -->
<g id="edge1_Node000001_Node000002" class="edge">
<title>Node1&#45;&gt;Node2</title>
<g id="a_edge1_Node000001_Node000002"><a xlink:title=" ">
<path fill="none" stroke="#63b8ff" d="M51.7,-157.19C61.79,-179 89.5,-232.83 129,-261.66 130.88,-263.03 132.86,-264.3 134.92,-265.47"/>
<polygon fill="#63b8ff" stroke="#63b8ff" points="133.8,-268.82 144.32,-270.04 136.86,-262.53 133.8,-268.82"/>
</a>
</g>
</g>
<!-- Node6 -->
<g id="Node000006" class="node">
<title>Node6</title>
<g id="a_Node000006"><a xlink:href="menu__items_8c.html#a7fbbfd1461aed015a4e140fffb5bb912" target="_top" xlink:title=" ">
<polygon fill="white" stroke="#666666" points="243,-252.16 129,-252.16 129,-233.16 243,-233.16 243,-252.16"/>
<text text-anchor="middle" x="186" y="-240.16" font-family="Helvetica,sans-Serif" font-size="10.00">draw_white_fade_in</text>
</a>
</g>
</g>
<!-- Node1&#45;&gt;Node6 -->
<g id="edge5_Node000001_Node000006" class="edge">
<title>Node1&#45;&gt;Node6</title>
<g id="a_edge5_Node000001_Node000006"><a xlink:title=" ">
<path fill="none" stroke="#63b8ff" d="M56.74,-157.48C71.09,-172.28 100.08,-200.5 129,-218.66 135.02,-222.44 141.73,-225.89 148.37,-228.92"/>
<polygon fill="#63b8ff" stroke="#63b8ff" points="147.37,-232.3 157.94,-233.05 150.14,-225.88 147.37,-232.3"/>
</a>
</g>
</g>
<!-- Node7 -->
<g id="Node000007" class="node">
<title>Node7</title>
<g id="a_Node000007"><a xlink:href="menu__items_8c.html#a1afef788f26591e1ca9153ab8f9559db" target="_top" xlink:title=" ">
<polygon fill="white" stroke="#666666" points="638,-25.16 537,-25.16 537,-6.16 638,-6.16 638,-25.16"/>
<text text-anchor="middle" x="587.5" y="-13.16" font-family="Helvetica,sans-Serif" font-size="10.00">find_menu_items</text>
</a>
</g>
</g>
<!-- Node1&#45;&gt;Node7 -->
<g id="edge7_Node000001_Node000007" class="edge">
<title>Node1&#45;&gt;Node7</title>
<g id="a_edge7_Node000001_Node000007"><a xlink:title=" ">
<path fill="none" stroke="#63b8ff" d="M52.48,-138.16C63.34,-118.53 91.26,-73.75 129,-54.66 258.63,10.88 435.53,2.88 526.71,-7.18"/>
<polygon fill="#63b8ff" stroke="#63b8ff" points="526.53,-10.68 536.87,-8.35 527.33,-3.73 526.53,-10.68"/>
</a>
</g>
</g>
<!-- Node8 -->
<g id="Node000008" class="node">
<title>Node8</title>
<g id="a_Node000008"><a xlink:href="menu__items_8c.html#a3e1c80f37b6c05eef98a89c85236ae05" target="_top" xlink:title=" ">
<polygon fill="white" stroke="#666666" points="232,-138.16 140,-138.16 140,-119.16 232,-119.16 232,-138.16"/>
<text text-anchor="middle" x="186" y="-126.16" font-family="Helvetica,sans-Serif" font-size="10.00">func_8009D958</text>
</a>
</g>
</g>
<!-- Node1&#45;&gt;Node8 -->
<g id="edge8_Node000001_Node000008" class="edge">
<title>Node1&#45;&gt;Node8</title>
<g id="a_edge8_Node000001_Node000008"><a xlink:title=" ">
<path fill="none" stroke="#63b8ff" d="M93.29,-141.34C105,-139.72 117.73,-137.96 129.86,-136.28"/>
<polygon fill="#63b8ff" stroke="#63b8ff" points="130.46,-139.73 139.88,-134.9 129.5,-132.8 130.46,-139.73"/>
</a>
</g>
</g>
<!-- Node20 -->
<g id="Node000020" class="node">
<title>Node20</title>
<g id="a_Node000020"><a xlink:href="menu__items_8c.html#a059a6679d134439f21e1d1dd4e71a7d2" target="_top" xlink:title=" ">
<polygon fill="white" stroke="#666666" points="232,-101.16 140,-101.16 140,-82.16 232,-82.16 232,-101.16"/>
<text text-anchor="middle" x="186" y="-89.16" font-family="Helvetica,sans-Serif" font-size="10.00">func_8009D978</text>
</a>
</g>
</g>
<!-- Node1&#45;&gt;Node20 -->
<g id="edge22_Node000001_Node000020" class="edge">
<title>Node1&#45;&gt;Node20</title>
<g id="a_edge22_Node000001_Node000020"><a xlink:title=" ">
<path fill="none" stroke="#63b8ff" d="M66.31,-138.07C82.64,-129.94 107.05,-118.27 129,-109.66 133.57,-107.87 138.4,-106.12 143.23,-104.45"/>
<polygon fill="#63b8ff" stroke="#63b8ff" points="144.69,-107.65 153.07,-101.16 142.47,-101.01 144.69,-107.65"/>
</a>
</g>
</g>
<!-- Node21 -->
<g id="Node000021" class="node">
<title>Node21</title>
<g id="a_Node000021"><a xlink:href="menu__items_8c.html#a57eda320919df4cd8968b1d2c00e7862" target="_top" xlink:title=" ">
<polygon fill="white" stroke="#666666" points="372,-214.16 280,-214.16 280,-195.16 372,-195.16 372,-214.16"/>
<text text-anchor="middle" x="326" y="-202.16" font-family="Helvetica,sans-Serif" font-size="10.00">func_8009D998</text>
</a>
</g>
</g>
<!-- Node1&#45;&gt;Node21 -->
<g id="edge24_Node000001_Node000021" class="edge">
<title>Node1&#45;&gt;Node21</title>
<g id="a_edge24_Node000001_Node000021"><a xlink:title=" ">
<path fill="none" stroke="#63b8ff" d="M76.7,-157.18C92.13,-161.98 111.46,-167.62 129,-171.66 176.17,-182.54 230.5,-191.4 269.98,-197.2"/>
<polygon fill="#63b8ff" stroke="#63b8ff" points="269.54,-200.67 279.94,-198.64 270.54,-193.74 269.54,-200.67"/>
</a>
</g>
</g>
<!-- Node22 -->
<g id="Node000022" class="node">
<title>Node22</title>
<g id="a_Node000022"><a xlink:href="menu__items_8c.html#a82e1ddafec68abcbafc1d172e65377c8" target="_top" xlink:title=" ">
<polygon fill="white" stroke="#666666" points="373,-176.16 279,-176.16 279,-157.16 373,-157.16 373,-176.16"/>
<text text-anchor="middle" x="326" y="-164.16" font-family="Helvetica,sans-Serif" font-size="10.00">func_8009DAA8</text>
</a>
</g>
</g>
<!-- Node1&#45;&gt;Node22 -->
<g id="edge26_Node000001_Node000022" class="edge">
<title>Node1&#45;&gt;Node22</title>
<g id="a_edge26_Node000001_Node000022"><a xlink:title=" ">
<path fill="none" stroke="#63b8ff" d="M93.01,-150.78C141.02,-154.07 216.73,-159.25 268.51,-162.79"/>
<polygon fill="#63b8ff" stroke="#63b8ff" points="268.32,-166.29 278.54,-163.48 268.8,-159.31 268.32,-166.29"/>
</a>
</g>
</g>
<!-- Node23 -->
<g id="Node000023" class="node">
<title>Node23</title>
<g id="a_Node000023"><a xlink:href="menu__items_8c.html#a0e3fcfca071cb718f40c5b91f8f6d56e" target="_top" xlink:title=" ">
<polygon fill="white" stroke="#666666" points="373,-82.16 279,-82.16 279,-63.16 373,-63.16 373,-82.16"/>
<text text-anchor="middle" x="326" y="-70.16" font-family="Helvetica,sans-Serif" font-size="10.00">func_8009DB8C</text>
</a>
</g>
</g>
<!-- Node1&#45;&gt;Node23 -->
<g id="edge29_Node000001_Node000023" class="edge">
<title>Node1&#45;&gt;Node23</title>
<g id="a_edge29_Node000001_Node000023"><a xlink:title=" ">
<path fill="none" stroke="#63b8ff" d="M54.17,-137.93C66.56,-120.82 94.96,-85.94 129,-72.66 173.71,-55.22 228.65,-57 268.98,-62.11"/>
<polygon fill="#63b8ff" stroke="#63b8ff" points="268.52,-65.58 278.9,-63.47 269.47,-58.65 268.52,-65.58"/>
</a>
</g>
</g>
<!-- Node3 -->
<g id="Node000003" class="node">
<title>Node3</title>
<g id="a_Node000003"><a xlink:href="menu__items_8c.html#af96ad14b2ac29ca0f9e0e37f2f5a6f68" target="_top" xlink:title=" ">
<polygon fill="white" stroke="#666666" points="367,-252.16 285,-252.16 285,-233.16 367,-233.16 367,-252.16"/>
<text text-anchor="middle" x="326" y="-240.16" font-family="Helvetica,sans-Serif" font-size="10.00">draw_fade_in</text>
</a>
</g>
</g>
<!-- Node2&#45;&gt;Node3 -->
<g id="edge2_Node000002_Node000003" class="edge">
<title>Node2&#45;&gt;Node3</title>
<g id="a_edge2_Node000002_Node000003"><a xlink:title=" ">
<path fill="none" stroke="#63b8ff" d="M222.54,-270.13C239.87,-265.49 260.91,-259.84 279.41,-254.89"/>
<polygon fill="#63b8ff" stroke="#63b8ff" points="280.35,-258.26 289.1,-252.29 278.54,-251.5 280.35,-258.26"/>
</a>
</g>
</g>
<!-- Node4 -->
<g id="Node000004" class="node">
<title>Node4</title>
<g id="a_Node000004"><a xlink:href="menu__items_8c.html#a4a3e73dfeae9dc0d77f213e77791181c" target="_top" xlink:title=" ">
<polygon fill="white" stroke="#666666" points="487,-195.16 423,-195.16 423,-176.16 487,-176.16 487,-195.16"/>
<text text-anchor="middle" x="455" y="-183.16" font-family="Helvetica,sans-Serif" font-size="10.00">draw_box</text>
</a>
</g>
</g>
<!-- Node3&#45;&gt;Node4 -->
<g id="edge3_Node000003_Node000004" class="edge">
<title>Node3&#45;&gt;Node4</title>
<g id="a_edge3_Node000003_Node000004"><a xlink:title=" ">
<path fill="none" stroke="#63b8ff" d="M350.97,-233.01C358.09,-230.08 365.88,-226.8 373,-223.66 390.42,-215.98 409.73,-206.95 425.12,-199.61"/>
<polygon fill="#63b8ff" stroke="#63b8ff" points="426.64,-202.77 434.15,-195.29 423.62,-196.45 426.64,-202.77"/>
</a>
</g>
</g>
<!-- Node5 -->
<g id="Node000005" class="node">
<title>Node5</title>
<g id="a_Node000005"><a xlink:href="menu__items_8c.html#a2341569d8bfc9b8aac7d5dab7933c999" target="_top" xlink:title=" ">
<polygon fill="white" stroke="#666666" points="627.5,-323.16 547.5,-323.16 547.5,-304.16 627.5,-304.16 627.5,-323.16"/>
<text text-anchor="middle" x="587.5" y="-311.16" font-family="Helvetica,sans-Serif" font-size="10.00">swap_values</text>
</a>
</g>
</g>
<!-- Node4&#45;&gt;Node5 -->
<g id="edge4_Node000004_Node000005" class="edge">
<title>Node4&#45;&gt;Node5</title>
<g id="a_edge4_Node000004_Node000005"><a xlink:title=" ">
<path fill="none" stroke="#63b8ff" d="M460.64,-195.39C471.23,-216.6 499.21,-267.39 537,-295.66 538.81,-297.02 540.74,-298.28 542.74,-299.46"/>
<polygon fill="#63b8ff" stroke="#63b8ff" points="541.36,-302.68 551.87,-304.06 544.51,-296.43 541.36,-302.68"/>
</a>
</g>
</g>
<!-- Node6&#45;&gt;Node3 -->
<g id="edge6_Node000006_Node000003" class="edge">
<title>Node6&#45;&gt;Node3</title>
<g id="a_edge6_Node000006_Node000003"><a xlink:title=" ">
<path fill="none" stroke="#63b8ff" d="M243.13,-242.66C253.65,-242.66 264.59,-242.66 274.91,-242.66"/>
<polygon fill="#63b8ff" stroke="#63b8ff" points="274.99,-246.16 284.99,-242.66 274.99,-239.16 274.99,-246.16"/>
</a>
</g>
</g>
<!-- Node9 -->
<g id="Node000009" class="node">
<title>Node9</title>
<g id="a_Node000009"><a xlink:href="menu__items_8c.html#a8e60e8fa498c04884deba6d2e5bb4ffe" target="_top" xlink:title=" ">
<polygon fill="white" stroke="#666666" points="372.5,-138.16 279.5,-138.16 279.5,-119.16 372.5,-119.16 372.5,-138.16"/>
<text text-anchor="middle" x="326" y="-126.16" font-family="Helvetica,sans-Serif" font-size="10.00">func_8009D77C</text>
</a>
</g>
</g>
<!-- Node8&#45;&gt;Node9 -->
<g id="edge9_Node000008_Node000009" class="edge">
<title>Node8&#45;&gt;Node9</title>
<g id="a_edge9_Node000008_Node000009"><a xlink:title=" ">
<path fill="none" stroke="#63b8ff" d="M232.19,-128.66C243.98,-128.66 256.83,-128.66 269.1,-128.66"/>
<polygon fill="#63b8ff" stroke="#63b8ff" points="269.24,-132.16 279.24,-128.66 269.24,-125.16 269.24,-132.16"/>
</a>
</g>
</g>
<!-- Node9&#45;&gt;Node4 -->
<g id="edge10_Node000009_Node000004" class="edge">
<title>Node9&#45;&gt;Node4</title>
<g id="a_edge10_Node000009_Node000004"><a xlink:title=" ">
<path fill="none" stroke="#63b8ff" d="M350.97,-138.31C358.09,-141.25 365.88,-144.53 373,-147.66 390.42,-155.34 409.73,-164.38 425.12,-171.71"/>
<polygon fill="#63b8ff" stroke="#63b8ff" points="423.62,-174.87 434.15,-176.03 426.64,-168.56 423.62,-174.87"/>
</a>
</g>
</g>
<!-- Node10 -->
<g id="Node000010" class="node">
<title>Node10</title>
<g id="a_Node000010"><a xlink:href="menu__items_8c.html#a56cfa922219f124d2b12c0f0f7e3cd9f" target="_top" xlink:title=" ">
<polygon fill="white" stroke="#666666" points="501,-138.16 409,-138.16 409,-119.16 501,-119.16 501,-138.16"/>
<text text-anchor="middle" x="455" y="-126.16" font-family="Helvetica,sans-Serif" font-size="10.00">func_8009CE64</text>
</a>
</g>
</g>
<!-- Node9&#45;&gt;Node10 -->
<g id="edge11_Node000009_Node000010" class="edge">
<title>Node9&#45;&gt;Node10</title>
<g id="a_edge11_Node000009_Node000010"><a xlink:title=" ">
<path fill="none" stroke="#63b8ff" d="M372.85,-128.66C381.13,-128.66 389.85,-128.66 398.38,-128.66"/>
<polygon fill="#63b8ff" stroke="#63b8ff" points="398.64,-132.16 408.64,-128.66 398.64,-125.16 398.64,-132.16"/>
</a>
</g>
</g>
<!-- Node10&#45;&gt;Node7 -->
<g id="edge12_Node000010_Node000007" class="edge">
<title>Node10&#45;&gt;Node7</title>
<g id="a_edge12_Node000010_Node000007"><a xlink:title=" ">
<path fill="none" stroke="#63b8ff" d="M467.13,-119.03C489.47,-99.68 540.01,-55.91 567.63,-32.01"/>
<polygon fill="#63b8ff" stroke="#63b8ff" points="570.13,-34.46 575.4,-25.27 565.55,-29.17 570.13,-34.46"/>
</a>
</g>
</g>
<!-- Node11 -->
<g id="Node000011" class="node">
<title>Node11</title>
<g id="a_Node000011"><a xlink:href="cpu__vehicles__camera__path_8c.html#a7fc44af1268e58cc195aeab08726c3cd" target="_top" xlink:title=" ">
<polygon fill="white" stroke="#666666" points="633,-101.16 542,-101.16 542,-82.16 633,-82.16 633,-101.16"/>
<text text-anchor="middle" x="587.5" y="-89.16" font-family="Helvetica,sans-Serif" font-size="10.00">func_8000F124</text>
</a>
</g>
</g>
<!-- Node10&#45;&gt;Node11 -->
<g id="edge13_Node000010_Node000011" class="edge">
<title>Node10&#45;&gt;Node11</title>
<g id="a_edge13_Node000010_Node000011"><a xlink:title=" ">
<path fill="none" stroke="#63b8ff" d="M489.61,-119.13C505.77,-114.55 525.35,-109 542.66,-104.09"/>
<polygon fill="#63b8ff" stroke="#63b8ff" points="543.89,-107.38 552.55,-101.29 541.98,-100.65 543.89,-107.38"/>
</a>
</g>
</g>
<!-- Node14 -->
<g id="Node000014" class="node">
<title>Node14</title>
<g id="a_Node000014"><a xlink:href="menu__items_8c.html#a5a8e55be1315ed840571d9a15fb3d25d" target="_top" xlink:title=" ">
<polygon fill="white" stroke="#666666" points="633.5,-212.16 541.5,-212.16 541.5,-193.16 633.5,-193.16 633.5,-212.16"/>
<text text-anchor="middle" x="587.5" y="-200.16" font-family="Helvetica,sans-Serif" font-size="10.00">func_8009CE1C</text>
</a>
</g>
</g>
<!-- Node10&#45;&gt;Node14 -->
<g id="edge16_Node000010_Node000014" class="edge">
<title>Node10&#45;&gt;Node14</title>
<g id="a_edge16_Node000010_Node000014"><a xlink:title=" ">
<path fill="none" stroke="#63b8ff" d="M468.07,-138.17C483.43,-149.95 511.09,-170.12 537,-183.66 540.76,-185.63 544.78,-187.5 548.83,-189.26"/>
<polygon fill="#63b8ff" stroke="#63b8ff" points="547.67,-192.56 558.25,-193.11 550.32,-186.08 547.67,-192.56"/>
</a>
</g>
</g>
<!-- Node16 -->
<g id="Node000016" class="node">
<title>Node16</title>
<g id="a_Node000016"><a xlink:href="race__logic_8c.html#a53decb718a29b1c4910cf1f5bada018f" target="_top" xlink:title=" ">
<polygon fill="white" stroke="#666666" points="633,-175.16 542,-175.16 542,-156.16 633,-156.16 633,-175.16"/>
<text text-anchor="middle" x="587.5" y="-163.16" font-family="Helvetica,sans-Serif" font-size="10.00">func_80290338</text>
</a>
</g>
</g>
<!-- Node10&#45;&gt;Node16 -->
<g id="edge18_Node000010_Node000016" class="edge">
<title>Node10&#45;&gt;Node16</title>
<g id="a_edge18_Node000010_Node000016"><a xlink:title=" ">
<path fill="none" stroke="#63b8ff" d="M489.61,-138.19C505.77,-142.77 525.35,-148.32 542.66,-153.23"/>
<polygon fill="#63b8ff" stroke="#63b8ff" points="541.98,-156.68 552.55,-156.04 543.89,-149.94 541.98,-156.68"/>
</a>
</g>
</g>
<!-- Node17 -->
<g id="Node000017" class="node">
<title>Node17</title>
<g id="a_Node000017"><a xlink:href="race__logic_8c.html#a356c21937c0221ceae8f34442bb2e820" target="_top" xlink:title=" ">
<polygon fill="white" stroke="#666666" points="633,-138.16 542,-138.16 542,-119.16 633,-119.16 633,-138.16"/>
<text text-anchor="middle" x="587.5" y="-126.16" font-family="Helvetica,sans-Serif" font-size="10.00">func_80290360</text>
</a>
</g>
</g>
<!-- Node10&#45;&gt;Node17 -->
<g id="edge19_Node000010_Node000017" class="edge">
<title>Node10&#45;&gt;Node17</title>
<g id="a_edge19_Node000010_Node000017"><a xlink:title=" ">
<path fill="none" stroke="#63b8ff" d="M501.28,-128.66C511,-128.66 521.38,-128.66 531.43,-128.66"/>
<polygon fill="#63b8ff" stroke="#63b8ff" points="531.74,-132.16 541.74,-128.66 531.74,-125.16 531.74,-132.16"/>
</a>
</g>
</g>
<!-- Node18 -->
<g id="Node000018" class="node">
<title>Node18</title>
<g id="a_Node000018"><a xlink:href="race__logic_8c.html#ab653b6e6bb04ca0f7995cb58cbeba9af" target="_top" xlink:title=" ">
<polygon fill="white" stroke="#666666" points="633,-286.16 542,-286.16 542,-267.16 633,-267.16 633,-286.16"/>
<text text-anchor="middle" x="587.5" y="-274.16" font-family="Helvetica,sans-Serif" font-size="10.00">func_80290388</text>
</a>
</g>
</g>
<!-- Node10&#45;&gt;Node18 -->
<g id="edge20_Node000010_Node000018" class="edge">
<title>Node10&#45;&gt;Node18</title>
<g id="a_edge20_Node000010_Node000018"><a xlink:title=" ">
<path fill="none" stroke="#63b8ff" d="M471.06,-138.43C480.71,-145.34 492.91,-155.35 501,-166.66 526.56,-202.37 505.58,-227.99 537,-258.66 537.96,-259.6 538.97,-260.48 540.02,-261.32"/>
<polygon fill="#63b8ff" stroke="#63b8ff" points="538.47,-264.49 548.78,-266.92 542.23,-258.58 538.47,-264.49"/>
</a>
</g>
</g>
<!-- Node19 -->
<g id="Node000019" class="node">
<title>Node19</title>
<g id="a_Node000019"><a xlink:href="race__logic_8c.html#af98d49ae0af39ccd86b3a2c269969d3c" target="_top" xlink:title=" ">
<polygon fill="white" stroke="#666666" points="633.5,-249.16 541.5,-249.16 541.5,-230.16 633.5,-230.16 633.5,-249.16"/>
<text text-anchor="middle" x="587.5" y="-237.16" font-family="Helvetica,sans-Serif" font-size="10.00">func_802903B0</text>
</a>
</g>
</g>
<!-- Node10&#45;&gt;Node19 -->
<g id="edge21_Node000010_Node000019" class="edge">
<title>Node10&#45;&gt;Node19</title>
<g id="a_edge21_Node000010_Node000019"><a xlink:title=" ">
<path fill="none" stroke="#63b8ff" d="M469.5,-138.4C478.94,-145.58 491.51,-155.94 501,-166.66 520.36,-188.54 514.1,-203.52 537,-221.66 538.75,-223.05 540.61,-224.33 542.55,-225.52"/>
<polygon fill="#63b8ff" stroke="#63b8ff" points="540.96,-228.64 551.45,-230.16 544.2,-222.43 540.96,-228.64"/>
</a>
</g>
</g>
<!-- Node12 -->
<g id="Node000012" class="node">
<title>Node12</title>
<g id="a_Node000012"><a xlink:href="math__util_8c.html#a151b63b8adf9af7e4054b3b84bd226dc" target="_top" xlink:title=" ">
<polygon fill="white" stroke="#666666" points="756,-82.16 684,-82.16 684,-63.16 756,-63.16 756,-82.16"/>
<text text-anchor="middle" x="720" y="-70.16" font-family="Helvetica,sans-Serif" font-size="10.00">random_int</text>
</a>
</g>
</g>
<!-- Node11&#45;&gt;Node12 -->
<g id="edge14_Node000011_Node000012" class="edge">
<title>Node11&#45;&gt;Node12</title>
<g id="a_edge14_Node000011_Node000012"><a xlink:title=" ">
<path fill="none" stroke="#63b8ff" d="M633.05,-85.18C646.1,-83.28 660.38,-81.2 673.49,-79.29"/>
<polygon fill="#63b8ff" stroke="#63b8ff" points="674.31,-82.71 683.71,-77.8 673.31,-75.78 674.31,-82.71"/>
</a>
</g>
</g>
<!-- Node13 -->
<g id="Node000013" class="node">
<title>Node13</title>
<g id="a_Node000013"><a xlink:href="math__util_8c.html#a062850863585005ad1d0a75d9ff70693" target="_top" xlink:title=" ">
<polygon fill="white" stroke="#666666" points="879,-82.16 802,-82.16 802,-63.16 879,-63.16 879,-82.16"/>
<text text-anchor="middle" x="840.5" y="-70.16" font-family="Helvetica,sans-Serif" font-size="10.00">random_u16</text>
</a>
</g>
</g>
<!-- Node12&#45;&gt;Node13 -->
<g id="edge15_Node000012_Node000013" class="edge">
<title>Node12&#45;&gt;Node13</title>
<g id="a_edge15_Node000012_Node000013"><a xlink:title=" ">
<path fill="none" stroke="#63b8ff" d="M756.23,-72.66C767.31,-72.66 779.74,-72.66 791.55,-72.66"/>
<polygon fill="#63b8ff" stroke="#63b8ff" points="791.72,-76.16 801.72,-72.66 791.72,-69.16 791.72,-76.16"/>
</a>
</g>
</g>
<!-- Node15 -->
<g id="Node000015" class="node">
<title>Node15</title>
<g id="a_Node000015"><a xlink:href="external_8c.html#ac48b7cbfcaa7737f892877ead85e4ba7" target="_top" xlink:title=" ">
<polygon fill="white" stroke="#666666" points="766,-212.16 674,-212.16 674,-193.16 766,-193.16 766,-212.16"/>
<text text-anchor="middle" x="720" y="-200.16" font-family="Helvetica,sans-Serif" font-size="10.00">func_800C3448</text>
</a>
</g>
</g>
<!-- Node14&#45;&gt;Node15 -->
<g id="edge17_Node000014_Node000015" class="edge">
<title>Node14&#45;&gt;Node15</title>
<g id="a_edge17_Node000014_Node000015"><a xlink:title=" ">
<path fill="none" stroke="#63b8ff" d="M633.78,-202.66C643.39,-202.66 653.65,-202.66 663.59,-202.66"/>
<polygon fill="#63b8ff" stroke="#63b8ff" points="663.8,-206.16 673.8,-202.66 663.8,-199.16 663.8,-206.16"/>
</a>
</g>
</g>
<!-- Node20&#45;&gt;Node9 -->
<g id="edge23_Node000020_Node000009" class="edge">
<title>Node20&#45;&gt;Node9</title>
<g id="a_edge23_Node000020_Node000009"><a xlink:title=" ">
<path fill="none" stroke="#63b8ff" d="M222.54,-101.19C239.87,-105.84 260.91,-111.48 279.41,-116.44"/>
<polygon fill="#63b8ff" stroke="#63b8ff" points="278.54,-119.83 289.1,-119.04 280.35,-113.07 278.54,-119.83"/>
</a>
</g>
</g>
<!-- Node21&#45;&gt;Node4 -->
<g id="edge25_Node000021_Node000004" class="edge">
<title>Node21&#45;&gt;Node4</title>
<g id="a_edge25_Node000021_Node000004"><a xlink:title=" ">
<path fill="none" stroke="#63b8ff" d="M372.13,-197.91C385.41,-195.92 399.86,-193.76 412.87,-191.82"/>
<polygon fill="#63b8ff" stroke="#63b8ff" points="413.58,-195.25 422.95,-190.31 412.54,-188.33 413.58,-195.25"/>
</a>
</g>
</g>
<!-- Node22&#45;&gt;Node4 -->
<g id="edge27_Node000022_Node000004" class="edge">
<title>Node22&#45;&gt;Node4</title>
<g id="a_edge27_Node000022_Node000004"><a xlink:title=" ">
<path fill="none" stroke="#63b8ff" d="M373.21,-173.58C386.06,-175.5 399.94,-177.57 412.51,-179.45"/>
<polygon fill="#63b8ff" stroke="#63b8ff" points="412.3,-182.96 422.7,-180.98 413.33,-176.04 412.3,-182.96"/>
</a>
</g>
</g>
<!-- Node22&#45;&gt;Node10 -->
<g id="edge28_Node000022_Node000010" class="edge">
<title>Node22&#45;&gt;Node10</title>
<g id="a_edge28_Node000022_Node000010"><a xlink:title=" ">
<path fill="none" stroke="#63b8ff" d="M359.05,-157.07C375.14,-152.26 394.84,-146.36 412.12,-141.19"/>
<polygon fill="#63b8ff" stroke="#63b8ff" points="413.39,-144.47 421.96,-138.25 411.38,-137.76 413.39,-144.47"/>
</a>
</g>
</g>
<!-- Node23&#45;&gt;Node4 -->
<g id="edge30_Node000023_Node000004" class="edge">
<title>Node23&#45;&gt;Node4</title>
<g id="a_edge30_Node000023_Node000004"><a xlink:title=" ">
<path fill="none" stroke="#63b8ff" d="M339.84,-82.31C349.26,-89.56 362.24,-99.87 373,-109.66 389.97,-125.1 392.32,-130.91 409,-146.66 417.15,-154.35 426.46,-162.52 434.49,-169.38"/>
<polygon fill="#63b8ff" stroke="#63b8ff" points="432.4,-172.2 442.29,-175.99 436.92,-166.86 432.4,-172.2"/>
</a>
</g>
</g>
<!-- Node23&#45;&gt;Node10 -->
<g id="edge31_Node000023_Node000010" class="edge">
<title>Node23&#45;&gt;Node10</title>
<g id="a_edge31_Node000023_Node000010"><a xlink:title=" ">
<path fill="none" stroke="#63b8ff" d="M348.83,-82.29C369.31,-91.32 400.14,-104.91 423.13,-115.05"/>
<polygon fill="#63b8ff" stroke="#63b8ff" points="421.89,-118.33 432.45,-119.16 424.71,-111.92 421.89,-118.33"/>
</a>
</g>
</g>
<!-- Node23&#45;&gt;Node12 -->
<g id="edge32_Node000023_Node000012" class="edge">
<title>Node23&#45;&gt;Node12</title>
<g id="a_edge32_Node000023_Node000012"><a xlink:title=" ">
<path fill="none" stroke="#63b8ff" d="M373.12,-72.66C448.89,-72.66 598.79,-72.66 673.9,-72.66"/>
<polygon fill="#63b8ff" stroke="#63b8ff" points="673.98,-76.16 683.98,-72.66 673.98,-69.16 673.98,-76.16"/>
</a>
</g>
</g>
</g>
</svg>
