<?xml version="1.0" encoding="UTF-8" standalone="no"?>
<!DOCTYPE svg PUBLIC "-//W3C//DTD SVG 1.1//EN"
 "http://www.w3.org/Graphics/SVG/1.1/DTD/svg11.dtd">
<!-- Generated by graphviz version 2.43.0 (0)
 -->
<!-- Title: func_800A12BC Pages: 1 -->
<svg width="579pt" height="306pt"
 viewBox="0.00 0.00 579.00 306.00" xmlns="http://www.w3.org/2000/svg" xmlns:xlink="http://www.w3.org/1999/xlink">
<g id="graph0" class="graph" transform="scale(1 1) rotate(0) translate(4 302)">
<title>func_800A12BC</title>
<!-- Node1 -->
<g id="Node000001" class="node">
<title>Node1</title>
<g id="a_Node000001"><a xlink:title=" ">
<polygon fill="#999999" stroke="#666666" points="93,-150 0,-150 0,-131 93,-131 93,-150"/>
<text text-anchor="middle" x="46.5" y="-138" font-family="Helvetica,sans-Serif" font-size="10.00">func_800A12BC</text>
</a>
</g>
</g>
<!-- Node2 -->
<g id="Node000002" class="node">
<title>Node2</title>
<g id="a_Node000002"><a xlink:href="menu__items_8c.html#a9152c655f7a0a66de30ddef2e10d68bb" target="_top" xlink:title=" ">
<polygon fill="white" stroke="#666666" points="239,-187 146,-187 146,-168 239,-168 239,-187"/>
<text text-anchor="middle" x="192.5" y="-175" font-family="Helvetica,sans-Serif" font-size="10.00">func_8009BC9C</text>
</a>
</g>
</g>
<!-- Node1&#45;&gt;Node2 -->
<g id="edge1_Node000001_Node000002" class="edge">
<title>Node1&#45;&gt;Node2</title>
<g id="a_edge1_Node000001_Node000002"><a xlink:title=" ">
<path fill="none" stroke="#63b8ff" d="M84.58,-150.03C102.75,-154.7 124.83,-160.37 144.2,-165.35"/>
<polygon fill="#63b8ff" stroke="#63b8ff" points="143.49,-168.78 154.04,-167.88 145.23,-162 143.49,-168.78"/>
</a>
</g>
</g>
<!-- Node10 -->
<g id="Node000010" class="node">
<title>Node10</title>
<g id="a_Node000010"><a xlink:href="menu__items_8c.html#a6ae9a7914726211a0149ff3ff8c2d70d" target="_top" xlink:title=" ">
<polygon fill="white" stroke="#666666" points="256,-113 129,-113 129,-94 256,-94 256,-113"/>
<text text-anchor="middle" x="192.5" y="-101" font-family="Helvetica,sans-Serif" font-size="10.00">render_menu_textures</text>
</a>
</g>
</g>
<!-- Node1&#45;&gt;Node10 -->
<g id="edge9_Node000001_Node000010" class="edge">
<title>Node1&#45;&gt;Node10</title>
<g id="a_edge9_Node000001_Node000010"><a xlink:title=" ">
<path fill="none" stroke="#63b8ff" d="M84.58,-130.97C102.75,-126.3 124.83,-120.63 144.2,-115.65"/>
<polygon fill="#63b8ff" stroke="#63b8ff" points="145.23,-119 154.04,-113.12 143.49,-112.22 145.23,-119"/>
</a>
</g>
</g>
<!-- Node3 -->
<g id="Node000003" class="node">
<title>Node3</title>
<g id="a_Node000003"><a xlink:href="menu__items_8h.html#aab23f26f9961699108a8c6d5e8157ced" target="_top" xlink:title=" ">
<polygon fill="white" stroke="#666666" points="413.5,-298 322.5,-298 322.5,-279 413.5,-279 413.5,-298"/>
<text text-anchor="middle" x="368" y="-286" font-family="Helvetica,sans-Serif" font-size="10.00">func_80097274</text>
</a>
</g>
</g>
<!-- Node2&#45;&gt;Node3 -->
<g id="edge2_Node000002_Node000003" class="edge">
<title>Node2&#45;&gt;Node3</title>
<g id="a_edge2_Node000002_Node000003"><a xlink:title=" ">
<path fill="none" stroke="#63b8ff" d="M200.74,-187.11C215.63,-206.14 251.67,-248.67 292,-270.5 298.4,-273.96 305.45,-276.77 312.6,-279.03"/>
<polygon fill="#63b8ff" stroke="#63b8ff" points="311.78,-282.44 322.36,-281.81 313.7,-275.71 311.78,-282.44"/>
</a>
</g>
</g>
<!-- Node4 -->
<g id="Node000004" class="node">
<title>Node4</title>
<g id="a_Node000004"><a xlink:href="menu__items_8c.html#a6aa04c603cd7b877a5009a97a0b41ed3" target="_top" xlink:title=" ">
<polygon fill="white" stroke="#666666" points="414,-261 322,-261 322,-242 414,-242 414,-261"/>
<text text-anchor="middle" x="368" y="-249" font-family="Helvetica,sans-Serif" font-size="10.00">func_80097A14</text>
</a>
</g>
</g>
<!-- Node2&#45;&gt;Node4 -->
<g id="edge3_Node000002_Node000004" class="edge">
<title>Node2&#45;&gt;Node4</title>
<g id="a_edge3_Node000002_Node000004"><a xlink:title=" ">
<path fill="none" stroke="#63b8ff" d="M207.55,-187.18C226.1,-199.57 260.17,-220.92 292,-233.5 298.36,-236.01 305.17,-238.24 311.99,-240.19"/>
<polygon fill="#63b8ff" stroke="#63b8ff" points="311.38,-243.65 321.94,-242.86 313.19,-236.89 311.38,-243.65"/>
</a>
</g>
</g>
<!-- Node6 -->
<g id="Node000006" class="node">
<title>Node6</title>
<g id="a_Node000006"><a xlink:href="menu__items_8c.html#a891090da0f3ed38b95d3f97bbd2f61c8" target="_top" xlink:title=" ">
<polygon fill="white" stroke="#666666" points="414,-224 322,-224 322,-205 414,-205 414,-224"/>
<text text-anchor="middle" x="368" y="-212" font-family="Helvetica,sans-Serif" font-size="10.00">func_80097AE4</text>
</a>
</g>
</g>
<!-- Node2&#45;&gt;Node6 -->
<g id="edge5_Node000002_Node000006" class="edge">
<title>Node2&#45;&gt;Node6</title>
<g id="a_edge5_Node000002_Node000006"><a xlink:title=" ">
<path fill="none" stroke="#63b8ff" d="M238.18,-187.03C260.76,-191.84 288.35,-197.73 312.2,-202.81"/>
<polygon fill="#63b8ff" stroke="#63b8ff" points="311.66,-206.28 322.17,-204.94 313.12,-199.43 311.66,-206.28"/>
</a>
</g>
</g>
<!-- Node7 -->
<g id="Node000007" class="node">
<title>Node7</title>
<g id="a_Node000007"><a xlink:href="menu__items_8c.html#aaa8eb10ba2942aad8f1c36711ce19acf" target="_top" xlink:title=" ">
<polygon fill="white" stroke="#666666" points="413.5,-187 322.5,-187 322.5,-168 413.5,-168 413.5,-187"/>
<text text-anchor="middle" x="368" y="-175" font-family="Helvetica,sans-Serif" font-size="10.00">func_80097E58</text>
</a>
</g>
</g>
<!-- Node2&#45;&gt;Node7 -->
<g id="edge6_Node000002_Node000007" class="edge">
<title>Node2&#45;&gt;Node7</title>
<g id="a_edge6_Node000002_Node000007"><a xlink:title=" ">
<path fill="none" stroke="#63b8ff" d="M239.09,-177.5C261.47,-177.5 288.63,-177.5 312.14,-177.5"/>
<polygon fill="#63b8ff" stroke="#63b8ff" points="312.32,-181 322.32,-177.5 312.32,-174 312.32,-181"/>
</a>
</g>
</g>
<!-- Node8 -->
<g id="Node000008" class="node">
<title>Node8</title>
<g id="a_Node000008"><a xlink:href="menu__items_8c.html#a6061a0dbb9b34a45fb1620c6c1d7f73c" target="_top" xlink:title=" ">
<polygon fill="white" stroke="#666666" points="414,-150 322,-150 322,-131 414,-131 414,-150"/>
<text text-anchor="middle" x="368" y="-138" font-family="Helvetica,sans-Serif" font-size="10.00">func_8009B8C4</text>
</a>
</g>
</g>
<!-- Node2&#45;&gt;Node8 -->
<g id="edge7_Node000002_Node000008" class="edge">
<title>Node2&#45;&gt;Node8</title>
<g id="a_edge7_Node000002_Node000008"><a xlink:title=" ">
<path fill="none" stroke="#63b8ff" d="M238.18,-167.97C260.76,-163.16 288.35,-157.27 312.2,-152.19"/>
<polygon fill="#63b8ff" stroke="#63b8ff" points="313.12,-155.57 322.17,-150.06 311.66,-148.72 313.12,-155.57"/>
</a>
</g>
</g>
<!-- Node9 -->
<g id="Node000009" class="node">
<title>Node9</title>
<g id="a_Node000009"><a xlink:href="menu__items_8c.html#a2d2758c3a87de891a40840727bef3306" target="_top" xlink:title=" ">
<polygon fill="white" stroke="#666666" points="444,-113 292,-113 292,-94 444,-94 444,-113"/>
<text text-anchor="middle" x="368" y="-101" font-family="Helvetica,sans-Serif" font-size="10.00">segmented_to_virtual_dupe</text>
</a>
</g>
</g>
<!-- Node2&#45;&gt;Node9 -->
<g id="edge8_Node000002_Node000009" class="edge">
<title>Node2&#45;&gt;Node9</title>
<g id="a_edge8_Node000002_Node000009"><a xlink:title=" ">
<path fill="none" stroke="#63b8ff" d="M207.92,-167.85C226.6,-155.74 260.52,-135.03 292,-122.5 298.21,-120.03 304.83,-117.8 311.47,-115.82"/>
<polygon fill="#63b8ff" stroke="#63b8ff" points="312.51,-119.17 321.18,-113.08 310.61,-112.43 312.51,-119.17"/>
</a>
</g>
</g>
<!-- Node5 -->
<g id="Node000005" class="node">
<title>Node5</title>
<g id="a_Node000005"><a xlink:href="menu__items_8c.html#aa921d52fc86ddeea7c16d5814fa2378e" target="_top" xlink:title=" ">
<polygon fill="white" stroke="#666666" points="571,-177 480,-177 480,-158 571,-158 571,-177"/>
<text text-anchor="middle" x="525.5" y="-165" font-family="Helvetica,sans-Serif" font-size="10.00">func_80095E10</text>
</a>
</g>
</g>
<!-- Node4&#45;&gt;Node5 -->
<g id="edge4_Node000004_Node000005" class="edge">
<title>Node4&#45;&gt;Node5</title>
<g id="a_edge4_Node000004_Node000005"><a xlink:title=" ">
<path fill="none" stroke="#63b8ff" d="M414.18,-244.14C424.3,-241.54 434.77,-238.09 444,-233.5 469.08,-221.04 493.3,-199.47 508.51,-184.4"/>
<polygon fill="#63b8ff" stroke="#63b8ff" points="511.08,-186.77 515.59,-177.19 506.09,-181.87 511.08,-186.77"/>
</a>
</g>
</g>
<!-- Node10&#45;&gt;Node5 -->
<g id="edge10_Node000010_Node000005" class="edge">
<title>Node10&#45;&gt;Node5</title>
<g id="a_edge10_Node000010_Node000005"><a xlink:title=" ">
<path fill="none" stroke="#63b8ff" d="M220.38,-93.89C267.69,-78.62 368.01,-53.61 444,-85.5 474.65,-98.36 499.5,-129.22 513.12,-149.19"/>
<polygon fill="#63b8ff" stroke="#63b8ff" points="510.32,-151.3 518.72,-157.75 516.18,-147.47 510.32,-151.3"/>
</a>
</g>
</g>
<!-- Node10&#45;&gt;Node8 -->
<g id="edge14_Node000010_Node000008" class="edge">
<title>Node10&#45;&gt;Node8</title>
<g id="a_edge14_Node000010_Node000008"><a xlink:title=" ">
<path fill="none" stroke="#63b8ff" d="M238.18,-113.03C260.76,-117.84 288.35,-123.73 312.2,-128.81"/>
<polygon fill="#63b8ff" stroke="#63b8ff" points="311.66,-132.28 322.17,-130.94 313.12,-125.43 311.66,-132.28"/>
</a>
</g>
</g>
<!-- Node10&#45;&gt;Node9 -->
<g id="edge15_Node000010_Node000009" class="edge">
<title>Node10&#45;&gt;Node9</title>
<g id="a_edge15_Node000010_Node000009"><a xlink:title=" ">
<path fill="none" stroke="#63b8ff" d="M256.14,-103.5C264.44,-103.5 273.06,-103.5 281.67,-103.5"/>
<polygon fill="#63b8ff" stroke="#63b8ff" points="281.74,-107 291.74,-103.5 281.74,-100 281.74,-107"/>
</a>
</g>
</g>
<!-- Node11 -->
<g id="Node000011" class="node">
<title>Node11</title>
<g id="a_Node000011"><a xlink:href="menu__items_8c.html#aef2b6b221f29f2caa6f68e11b3e7df34" target="_top" xlink:title=" ">
<polygon fill="white" stroke="#666666" points="414,-37 322,-37 322,-18 414,-18 414,-37"/>
<text text-anchor="middle" x="368" y="-25" font-family="Helvetica,sans-Serif" font-size="10.00">func_800987D0</text>
</a>
</g>
</g>
<!-- Node10&#45;&gt;Node11 -->
<g id="edge11_Node000010_Node000011" class="edge">
<title>Node10&#45;&gt;Node11</title>
<g id="a_edge11_Node000010_Node000011"><a xlink:title=" ">
<path fill="none" stroke="#63b8ff" d="M209.46,-93.95C228.59,-82.77 261.87,-64.16 292,-51.5 301.93,-47.33 312.86,-43.45 323.22,-40.08"/>
<polygon fill="#63b8ff" stroke="#63b8ff" points="324.46,-43.36 332.94,-37.01 322.35,-36.68 324.46,-43.36"/>
</a>
</g>
</g>
<!-- Node12 -->
<g id="Node000012" class="node">
<title>Node12</title>
<g id="a_Node000012"><a xlink:href="math__util_8c.html#ae69cbf5c8d4b3b0dba2d7b4d4673689f" target="_top" xlink:title=" ">
<polygon fill="white" stroke="#666666" points="544.5,-19 506.5,-19 506.5,0 544.5,0 544.5,-19"/>
<text text-anchor="middle" x="525.5" y="-7" font-family="Helvetica,sans-Serif" font-size="10.00">coss</text>
</a>
</g>
</g>
<!-- Node11&#45;&gt;Node12 -->
<g id="edge12_Node000011_Node000012" class="edge">
<title>Node11&#45;&gt;Node12</title>
<g id="a_edge12_Node000011_Node000012"><a xlink:title=" ">
<path fill="none" stroke="#63b8ff" d="M414.4,-22.25C440.86,-19.18 473.42,-15.41 496.24,-12.77"/>
<polygon fill="#63b8ff" stroke="#63b8ff" points="496.75,-16.24 506.29,-11.61 495.95,-9.28 496.75,-16.24"/>
</a>
</g>
</g>
<!-- Node13 -->
<g id="Node000013" class="node">
<title>Node13</title>
<g id="a_Node000013"><a xlink:href="math__util_8c.html#a19ed3bd78fd2d3e2bd0a29f6caf48545" target="_top" xlink:title=" ">
<polygon fill="white" stroke="#666666" points="543.5,-56 507.5,-56 507.5,-37 543.5,-37 543.5,-56"/>
<text text-anchor="middle" x="525.5" y="-44" font-family="Helvetica,sans-Serif" font-size="10.00">sins</text>
</a>
</g>
</g>
<!-- Node11&#45;&gt;Node13 -->
<g id="edge13_Node000011_Node000013" class="edge">
<title>Node11&#45;&gt;Node13</title>
<g id="a_edge13_Node000011_Node000013"><a xlink:title=" ">
<path fill="none" stroke="#63b8ff" d="M414.4,-33.05C441.33,-36.34 474.56,-40.4 497.43,-43.19"/>
<polygon fill="#63b8ff" stroke="#63b8ff" points="497.1,-46.68 507.45,-44.42 497.95,-39.73 497.1,-46.68"/>
</a>
</g>
</g>
</g>
</svg>
