<?xml version="1.0" encoding="UTF-8" standalone="no"?>
<!DOCTYPE svg PUBLIC "-//W3C//DTD SVG 1.1//EN"
 "http://www.w3.org/Graphics/SVG/1.1/DTD/svg11.dtd">
<!-- Generated by graphviz version 2.43.0 (0)
 -->
<!-- Title: course_data_menu_act Pages: 1 -->
<svg width="1526pt" height="465pt"
 viewBox="0.00 0.00 1526.00 465.00" xmlns="http://www.w3.org/2000/svg" xmlns:xlink="http://www.w3.org/1999/xlink">
<g id="graph0" class="graph" transform="scale(1 1) rotate(0) translate(4 461)">
<title>course_data_menu_act</title>
<polygon fill="white" stroke="transparent" points="-4,4 -4,-461 1522,-461 1522,4 -4,4"/>
<!-- Node1 -->
<g id="node1" class="node">
<title>Node1</title>
<g id="a_node1"><a xlink:title=" ">
<polygon fill="#bfbfbf" stroke="black" points="0,-142.5 0,-161.5 129,-161.5 129,-142.5 0,-142.5"/>
<text text-anchor="middle" x="64.5" y="-149.5" font-family="Helvetica,sans-Serif" font-size="10.00">course_data_menu_act</text>
</a>
</g>
</g>
<!-- Node2 -->
<g id="node2" class="node">
<title>Node2</title>
<g id="a_node2"><a xlink:href="code__80091750_8c.html#a2258e6417b7ca369ba1f532d2b259c93" target="_top" xlink:title=" ">
<polygon fill="white" stroke="black" points="165,-275.5 165,-294.5 314,-294.5 314,-275.5 165,-275.5"/>
<text text-anchor="middle" x="239.5" y="-282.5" font-family="Helvetica,sans-Serif" font-size="10.00">find_8018D9E0_entry_dupe</text>
</a>
</g>
</g>
<!-- Node1&#45;&gt;Node2 -->
<g id="edge1" class="edge">
<title>Node1&#45;&gt;Node2</title>
<path fill="none" stroke="midnightblue" d="M71.08,-161.68C84.36,-183.8 120.07,-238.26 165,-266 168.43,-268.12 172.1,-270.01 175.89,-271.68"/>
<polygon fill="midnightblue" stroke="midnightblue" points="174.92,-275.06 185.51,-275.43 177.46,-268.54 174.92,-275.06"/>
</g>
<!-- Node3 -->
<g id="node3" class="node">
<title>Node3</title>
<g id="a_node3"><a xlink:href="code__80091750_8c.html#aed30b6714f69f03914e0c48dbb01a77b" target="_top" xlink:title=" ">
<polygon fill="white" stroke="black" points="194,-237.5 194,-256.5 285,-256.5 285,-237.5 194,-237.5"/>
<text text-anchor="middle" x="239.5" y="-244.5" font-family="Helvetica,sans-Serif" font-size="10.00">func_8009E208</text>
</a>
</g>
</g>
<!-- Node1&#45;&gt;Node3 -->
<g id="edge2" class="edge">
<title>Node1&#45;&gt;Node3</title>
<path fill="none" stroke="midnightblue" d="M75.32,-161.71C92.2,-177.86 128.45,-210.22 165,-228 171.05,-230.94 177.61,-233.47 184.24,-235.62"/>
<polygon fill="midnightblue" stroke="midnightblue" points="183.36,-239.02 193.95,-238.53 185.37,-232.31 183.36,-239.02"/>
</g>
<!-- Node6 -->
<g id="node6" class="node">
<title>Node6</title>
<g id="a_node6"><a xlink:href="menus_8c.html#a14ab660d89fba15b26612b62c5baca99" target="_top" xlink:title=" ">
<polygon fill="white" stroke="black" points="193.5,-199.5 193.5,-218.5 285.5,-218.5 285.5,-199.5 193.5,-199.5"/>
<text text-anchor="middle" x="239.5" y="-206.5" font-family="Helvetica,sans-Serif" font-size="10.00">func_800B4520</text>
</a>
</g>
</g>
<!-- Node1&#45;&gt;Node6 -->
<g id="edge5" class="edge">
<title>Node1&#45;&gt;Node6</title>
<path fill="none" stroke="midnightblue" d="M88.56,-161.65C108.56,-169.82 138.4,-181.51 165,-190 172.5,-192.39 180.51,-194.71 188.38,-196.84"/>
<polygon fill="midnightblue" stroke="midnightblue" points="187.65,-200.27 198.21,-199.45 189.44,-193.51 187.65,-200.27"/>
</g>
<!-- Node7 -->
<g id="node7" class="node">
<title>Node7</title>
<g id="a_node7"><a xlink:href="save_8c.html#a40589b5a011009fb44531cac4e822771" target="_top" xlink:title=" ">
<polygon fill="white" stroke="black" points="193.5,-161.5 193.5,-180.5 285.5,-180.5 285.5,-161.5 193.5,-161.5"/>
<text text-anchor="middle" x="239.5" y="-168.5" font-family="Helvetica,sans-Serif" font-size="10.00">func_800B4728</text>
</a>
</g>
</g>
<!-- Node1&#45;&gt;Node7 -->
<g id="edge6" class="edge">
<title>Node1&#45;&gt;Node7</title>
<path fill="none" stroke="midnightblue" d="M129.43,-159.02C147.04,-160.96 166,-163.04 183.09,-164.91"/>
<polygon fill="midnightblue" stroke="midnightblue" points="183.14,-168.44 193.46,-166.05 183.91,-161.48 183.14,-168.44"/>
</g>
<!-- Node36 -->
<g id="node36" class="node">
<title>Node36</title>
<g id="a_node36"><a xlink:href="save_8c.html#a402dba5ac8aabe64f55fc79ffbd92f32" target="_top" xlink:title=" ">
<polygon fill="white" stroke="black" points="350,-121.5 350,-140.5 442,-140.5 442,-121.5 350,-121.5"/>
<text text-anchor="middle" x="396" y="-128.5" font-family="Helvetica,sans-Serif" font-size="10.00">func_800B559C</text>
</a>
</g>
</g>
<!-- Node1&#45;&gt;Node36 -->
<g id="edge52" class="edge">
<title>Node1&#45;&gt;Node36</title>
<path fill="none" stroke="midnightblue" d="M129.03,-147.95C190.07,-144.06 281.38,-138.24 339.55,-134.53"/>
<polygon fill="midnightblue" stroke="midnightblue" points="339.9,-138.02 349.66,-133.89 339.46,-131.03 339.9,-138.02"/>
</g>
<!-- Node39 -->
<g id="node39" class="node">
<title>Node39</title>
<g id="a_node39"><a xlink:href="save_8c.html#ad91a6d803924eb1d07dd9ccac9caa5fc" target="_top" xlink:title=" ">
<polygon fill="white" stroke="black" points="193.5,-85.5 193.5,-104.5 285.5,-104.5 285.5,-85.5 193.5,-85.5"/>
<text text-anchor="middle" x="239.5" y="-92.5" font-family="Helvetica,sans-Serif" font-size="10.00">func_800B639C</text>
</a>
</g>
</g>
<!-- Node1&#45;&gt;Node39 -->
<g id="edge57" class="edge">
<title>Node1&#45;&gt;Node39</title>
<path fill="none" stroke="midnightblue" d="M94.23,-142.43C114.09,-135.83 141.14,-126.85 165,-119 176.24,-115.3 188.46,-111.3 199.65,-107.65"/>
<polygon fill="midnightblue" stroke="midnightblue" points="200.74,-110.97 209.16,-104.55 198.57,-104.32 200.74,-110.97"/>
</g>
<!-- Node40 -->
<g id="node40" class="node">
<title>Node40</title>
<g id="a_node40"><a xlink:href="save_8h.html#a6ce448b7335f3e0fc78b796ece0fe2a4" target="_top" xlink:title=" ">
<polygon fill="white" stroke="black" points="193,-47.5 193,-66.5 286,-66.5 286,-47.5 193,-47.5"/>
<text text-anchor="middle" x="239.5" y="-54.5" font-family="Helvetica,sans-Serif" font-size="10.00">func_800B69BC</text>
</a>
</g>
</g>
<!-- Node1&#45;&gt;Node40 -->
<g id="edge58" class="edge">
<title>Node1&#45;&gt;Node40</title>
<path fill="none" stroke="midnightblue" d="M75.32,-142.29C92.2,-126.14 128.45,-93.78 165,-76 170.68,-73.24 176.81,-70.85 183.01,-68.78"/>
<polygon fill="midnightblue" stroke="midnightblue" points="184.24,-72.06 192.79,-65.8 182.2,-65.37 184.24,-72.06"/>
</g>
<!-- Node41 -->
<g id="node41" class="node">
<title>Node41</title>
<g id="a_node41"><a xlink:href="external_8c.html#afadd9eacb33a057bc8c1caaab7ab5a84" target="_top" xlink:title=" ">
<polygon fill="white" stroke="black" points="200.5,-9.5 200.5,-28.5 278.5,-28.5 278.5,-9.5 200.5,-9.5"/>
<text text-anchor="middle" x="239.5" y="-16.5" font-family="Helvetica,sans-Serif" font-size="10.00">play_sound2</text>
</a>
</g>
</g>
<!-- Node1&#45;&gt;Node41 -->
<g id="edge59" class="edge">
<title>Node1&#45;&gt;Node41</title>
<path fill="none" stroke="midnightblue" d="M71.08,-142.32C84.36,-120.2 120.07,-65.74 165,-38 172.82,-33.17 181.84,-29.56 190.82,-26.87"/>
<polygon fill="midnightblue" stroke="midnightblue" points="191.73,-30.25 200.49,-24.29 189.93,-23.48 191.73,-30.25"/>
</g>
<!-- Node4 -->
<g id="node4" class="node">
<title>Node4</title>
<g id="a_node4"><a xlink:href="code__80091750_8c.html#a485ad7e52b54cd47cb14ce60384c34b5" target="_top" xlink:title=" ">
<polygon fill="white" stroke="black" points="350,-238.5 350,-257.5 442,-257.5 442,-238.5 350,-238.5"/>
<text text-anchor="middle" x="396" y="-245.5" font-family="Helvetica,sans-Serif" font-size="10.00">func_8009DFE0</text>
</a>
</g>
</g>
<!-- Node3&#45;&gt;Node4 -->
<g id="edge3" class="edge">
<title>Node3&#45;&gt;Node4</title>
<path fill="none" stroke="midnightblue" d="M285.19,-247.29C302.25,-247.4 321.91,-247.53 339.84,-247.64"/>
<polygon fill="midnightblue" stroke="midnightblue" points="339.85,-251.14 349.88,-247.71 339.9,-244.14 339.85,-251.14"/>
</g>
<!-- Node5 -->
<g id="node5" class="node">
<title>Node5</title>
<g id="a_node5"><a xlink:href="code__80091750_8c.html#ad38092d257433fcbbac4e1fd80b3b5bd" target="_top" xlink:title=" ">
<polygon fill="white" stroke="black" points="491,-240.5 491,-259.5 584,-259.5 584,-240.5 491,-240.5"/>
<text text-anchor="middle" x="537.5" y="-247.5" font-family="Helvetica,sans-Serif" font-size="10.00">func_8009DF8C</text>
</a>
</g>
</g>
<!-- Node4&#45;&gt;Node5 -->
<g id="edge4" class="edge">
<title>Node4&#45;&gt;Node5</title>
<path fill="none" stroke="midnightblue" d="M442.29,-248.65C454.6,-248.83 468.06,-249.02 480.87,-249.2"/>
<polygon fill="midnightblue" stroke="midnightblue" points="480.91,-252.7 490.96,-249.35 481.01,-245.7 480.91,-252.7"/>
</g>
<!-- Node8 -->
<g id="node8" class="node">
<title>Node8</title>
<g id="a_node8"><a xlink:href="save_8c.html#a8cc50ee77e09b150d7e31003e3f50761" target="_top" xlink:title=" ">
<polygon fill="white" stroke="black" points="478,-191 478,-221 597,-221 597,-191 478,-191"/>
<text text-anchor="start" x="486" y="-209" font-family="Helvetica,sans-Serif" font-size="10.00">checksum_time_trial</text>
<text text-anchor="middle" x="537.5" y="-198" font-family="Helvetica,sans-Serif" font-size="10.00">_records</text>
</a>
</g>
</g>
<!-- Node7&#45;&gt;Node8 -->
<g id="edge7" class="edge">
<title>Node7&#45;&gt;Node8</title>
<path fill="none" stroke="midnightblue" d="M285.7,-178.62C305.41,-181.79 328.81,-185.34 350,-188 388.77,-192.88 432.23,-197.14 467.43,-200.29"/>
<polygon fill="midnightblue" stroke="midnightblue" points="467.34,-203.8 477.61,-201.19 467.95,-196.82 467.34,-203.8"/>
</g>
<!-- Node9 -->
<g id="node9" class="node">
<title>Node9</title>
<g id="a_node9"><a xlink:href="save_8c.html#a2a3e95e89737526a8618402829473024" target="_top" xlink:title=" ">
<polygon fill="white" stroke="black" points="350,-159.5 350,-178.5 442,-178.5 442,-159.5 350,-159.5"/>
<text text-anchor="middle" x="396" y="-166.5" font-family="Helvetica,sans-Serif" font-size="10.00">func_800B45E0</text>
</a>
</g>
</g>
<!-- Node7&#45;&gt;Node9 -->
<g id="edge8" class="edge">
<title>Node7&#45;&gt;Node9</title>
<path fill="none" stroke="midnightblue" d="M285.6,-170.42C302.5,-170.2 321.9,-169.95 339.63,-169.72"/>
<polygon fill="midnightblue" stroke="midnightblue" points="339.89,-173.21 349.84,-169.58 339.8,-166.21 339.89,-173.21"/>
</g>
<!-- Node9&#45;&gt;Node8 -->
<g id="edge9" class="edge">
<title>Node9&#45;&gt;Node8</title>
<path fill="none" stroke="midnightblue" d="M432.92,-178.53C444.31,-181.55 457.28,-184.99 470.11,-188.39"/>
<polygon fill="midnightblue" stroke="midnightblue" points="469.29,-191.79 479.85,-190.98 471.08,-185.03 469.29,-191.79"/>
</g>
<!-- Node10 -->
<g id="node10" class="node">
<title>Node10</title>
<g id="a_node10"><a xlink:href="osEepromLongWrite_8c.html#aa1669d76506610d1c5a9d248f6d45add" target="_top" xlink:title=" ">
<polygon fill="white" stroke="black" points="480,-152.5 480,-171.5 595,-171.5 595,-152.5 480,-152.5"/>
<text text-anchor="middle" x="537.5" y="-159.5" font-family="Helvetica,sans-Serif" font-size="10.00">osEepromLongWrite</text>
</a>
</g>
</g>
<!-- Node9&#45;&gt;Node10 -->
<g id="edge10" class="edge">
<title>Node9&#45;&gt;Node10</title>
<path fill="none" stroke="midnightblue" d="M442.29,-166.73C451.06,-166.29 460.41,-165.82 469.69,-165.35"/>
<polygon fill="midnightblue" stroke="midnightblue" points="469.9,-168.85 479.71,-164.85 469.55,-161.86 469.9,-168.85"/>
</g>
<!-- Node11 -->
<g id="node11" class="node">
<title>Node11</title>
<g id="a_node11"><a xlink:href="osEepromWrite_8c.html#a821b8ce22af671850530fdbd8aa56e9d" target="_top" xlink:title=" ">
<polygon fill="white" stroke="black" points="633,-266.5 633,-285.5 725,-285.5 725,-266.5 633,-266.5"/>
<text text-anchor="middle" x="679" y="-273.5" font-family="Helvetica,sans-Serif" font-size="10.00">osEepromWrite</text>
</a>
</g>
</g>
<!-- Node10&#45;&gt;Node11 -->
<g id="edge11" class="edge">
<title>Node10&#45;&gt;Node11</title>
<path fill="none" stroke="midnightblue" d="M576.11,-171.55C583.38,-174.29 590.69,-177.73 597,-182 627.02,-202.3 652.57,-236.51 666.55,-257.59"/>
<polygon fill="midnightblue" stroke="midnightblue" points="663.78,-259.74 672.14,-266.25 669.66,-255.95 663.78,-259.74"/>
</g>
<!-- Node17 -->
<g id="node17" class="node">
<title>Node17</title>
<g id="a_node17"><a xlink:href="crash__screen_8c.html#a4283cbf896ea7ca31653640f6dd237af" target="_top" xlink:title=" ">
<polygon fill="white" stroke="black" points="1126,-228.5 1126,-247.5 1204,-247.5 1204,-228.5 1126,-228.5"/>
<text text-anchor="middle" x="1165" y="-235.5" font-family="Helvetica,sans-Serif" font-size="10.00">osRecvMesg</text>
</a>
</g>
</g>
<!-- Node10&#45;&gt;Node17 -->
<g id="edge44" class="edge">
<title>Node10&#45;&gt;Node17</title>
<path fill="none" stroke="midnightblue" d="M595,-158.82C693.24,-154.77 901.18,-152.7 1070,-195 1094.61,-201.17 1120.7,-213.63 1139.14,-223.56"/>
<polygon fill="midnightblue" stroke="midnightblue" points="1137.58,-226.7 1148.03,-228.48 1140.97,-220.58 1137.58,-226.7"/>
</g>
<!-- Node31 -->
<g id="node31" class="node">
<title>Node31</title>
<g id="a_node31"><a xlink:href="osSetTimer_8c.html#ae185ba75a7718dbf19268876ea9b1b0e" target="_top" xlink:title=" ">
<polygon fill="white" stroke="black" points="1129,-57.5 1129,-76.5 1201,-76.5 1201,-57.5 1129,-57.5"/>
<text text-anchor="middle" x="1165" y="-64.5" font-family="Helvetica,sans-Serif" font-size="10.00">osSetTimer</text>
</a>
</g>
</g>
<!-- Node10&#45;&gt;Node31 -->
<g id="edge45" class="edge">
<title>Node10&#45;&gt;Node31</title>
<path fill="none" stroke="midnightblue" d="M595.11,-153.4C718.03,-134.73 1007.25,-90.81 1118.91,-73.85"/>
<polygon fill="midnightblue" stroke="midnightblue" points="1119.48,-77.3 1128.84,-72.34 1118.43,-70.38 1119.48,-77.3"/>
</g>
<!-- Node12 -->
<g id="node12" class="node">
<title>Node12</title>
<g id="a_node12"><a xlink:href="osEepromWrite_8c.html#a60ddd985ce0b83b8c5ab75da236177ca" target="_top" xlink:title=" ">
<polygon fill="white" stroke="black" points="781.5,-266.5 781.5,-285.5 868.5,-285.5 868.5,-266.5 781.5,-266.5"/>
<text text-anchor="middle" x="825" y="-273.5" font-family="Helvetica,sans-Serif" font-size="10.00">__osEepStatus</text>
</a>
</g>
</g>
<!-- Node11&#45;&gt;Node12 -->
<g id="edge12" class="edge">
<title>Node11&#45;&gt;Node12</title>
<path fill="none" stroke="midnightblue" d="M725.17,-276C739.78,-276 756.11,-276 771.22,-276"/>
<polygon fill="midnightblue" stroke="midnightblue" points="771.45,-279.5 781.45,-276 771.45,-272.5 771.45,-279.5"/>
</g>
<!-- Node13 -->
<g id="node13" class="node">
<title>Node13</title>
<g id="a_node13"><a xlink:href="____osSiRawStartDma_8c.html#a469384eba4ccec319dbec8745f22bd2f" target="_top" xlink:title=" ">
<polygon fill="white" stroke="black" points="940,-380.5 940,-399.5 1055,-399.5 1055,-380.5 940,-380.5"/>
<text text-anchor="middle" x="997.5" y="-387.5" font-family="Helvetica,sans-Serif" font-size="10.00">__osSiRawStartDma</text>
</a>
</g>
</g>
<!-- Node11&#45;&gt;Node13 -->
<g id="edge40" class="edge">
<title>Node11&#45;&gt;Node13</title>
<path fill="none" stroke="midnightblue" d="M686.21,-285.59C698.25,-303.29 726.63,-340.83 761,-358 813.55,-384.25 880.49,-391.2 929.56,-392.2"/>
<polygon fill="midnightblue" stroke="midnightblue" points="929.7,-395.7 939.75,-392.33 929.79,-388.7 929.7,-395.7"/>
</g>
<!-- Node11&#45;&gt;Node17 -->
<g id="edge43" class="edge">
<title>Node11&#45;&gt;Node17</title>
<path fill="none" stroke="midnightblue" d="M689.38,-266.38C703.43,-252.73 731.49,-228.34 761,-219 885.84,-179.48 1043.28,-207.81 1119.11,-225.97"/>
<polygon fill="midnightblue" stroke="midnightblue" points="1118.72,-229.48 1129.26,-228.46 1120.38,-222.68 1118.72,-229.48"/>
</g>
<!-- Node25 -->
<g id="node25" class="node">
<title>Node25</title>
<g id="a_node25"><a xlink:href="osEepromWrite_8c.html#ac75a7c8520da3ebddcd82ad6ba91296f" target="_top" xlink:title=" ">
<polygon fill="white" stroke="black" points="761,-304.5 761,-323.5 889,-323.5 889,-304.5 761,-304.5"/>
<text text-anchor="middle" x="825" y="-311.5" font-family="Helvetica,sans-Serif" font-size="10.00">__osPackEepWriteData</text>
</a>
</g>
</g>
<!-- Node11&#45;&gt;Node25 -->
<g id="edge29" class="edge">
<title>Node11&#45;&gt;Node25</title>
<path fill="none" stroke="midnightblue" d="M716.34,-285.59C735.08,-290.54 758.14,-296.62 778.11,-301.89"/>
<polygon fill="midnightblue" stroke="midnightblue" points="777.36,-305.31 787.92,-304.48 779.15,-298.54 777.36,-305.31"/>
</g>
<!-- Node26 -->
<g id="node26" class="node">
<title>Node26</title>
<g id="a_node26"><a xlink:href="____osSiCreateAccessQueue_8c.html#ae0373fb01ccb4831c6c9783b23524a07" target="_top" xlink:title=" ">
<polygon fill="white" stroke="black" points="776,-228.5 776,-247.5 874,-247.5 874,-228.5 776,-228.5"/>
<text text-anchor="middle" x="825" y="-235.5" font-family="Helvetica,sans-Serif" font-size="10.00">__osSiGetAccess</text>
</a>
</g>
</g>
<!-- Node11&#45;&gt;Node26 -->
<g id="edge30" class="edge">
<title>Node11&#45;&gt;Node26</title>
<path fill="none" stroke="midnightblue" d="M716.34,-266.41C735.08,-261.46 758.14,-255.38 778.11,-250.11"/>
<polygon fill="midnightblue" stroke="midnightblue" points="779.15,-253.46 787.92,-247.52 777.36,-246.69 779.15,-253.46"/>
</g>
<!-- Node30 -->
<g id="node30" class="node">
<title>Node30</title>
<g id="a_node30"><a xlink:href="____osSiCreateAccessQueue_8c.html#aa6dbd69637149484f5fad08232892b50" target="_top" xlink:title=" ">
<polygon fill="white" stroke="black" points="949,-342.5 949,-361.5 1046,-361.5 1046,-342.5 949,-342.5"/>
<text text-anchor="middle" x="997.5" y="-349.5" font-family="Helvetica,sans-Serif" font-size="10.00">__osSiRelAccess</text>
</a>
</g>
</g>
<!-- Node11&#45;&gt;Node30 -->
<g id="edge41" class="edge">
<title>Node11&#45;&gt;Node30</title>
<path fill="none" stroke="midnightblue" d="M689.96,-285.75C704.3,-299.1 732.22,-322.6 761,-333 818.98,-353.96 890.06,-356.86 938.87,-355.68"/>
<polygon fill="midnightblue" stroke="midnightblue" points="939.05,-359.17 948.94,-355.37 938.83,-352.18 939.05,-359.17"/>
</g>
<!-- Node12&#45;&gt;Node13 -->
<g id="edge13" class="edge">
<title>Node12&#45;&gt;Node13</title>
<path fill="none" stroke="midnightblue" d="M868.5,-283.49C875.91,-286.22 883.11,-289.93 889,-295 917.33,-319.38 896.27,-347.09 925,-371 927.03,-372.69 929.2,-374.23 931.46,-375.63"/>
<polygon fill="midnightblue" stroke="midnightblue" points="930.14,-378.89 940.62,-380.41 933.37,-372.68 930.14,-378.89"/>
</g>
<!-- Node12&#45;&gt;Node17 -->
<g id="edge17" class="edge">
<title>Node12&#45;&gt;Node17</title>
<path fill="none" stroke="midnightblue" d="M868.83,-272.44C917.61,-268.23 999.66,-260.69 1070,-252 1084.76,-250.18 1100.78,-247.9 1115.34,-245.72"/>
<polygon fill="midnightblue" stroke="midnightblue" points="1116.28,-249.12 1125.64,-244.15 1115.23,-242.2 1116.28,-249.12"/>
</g>
<!-- Node14 -->
<g id="node14" class="node">
<title>Node14</title>
<g id="a_node14"><a xlink:href="____osSiDeviceBusy_8c.html#ad812ec86e9d0b5929797407de1b3ecbc" target="_top" xlink:title=" ">
<polygon fill="white" stroke="black" points="1112.5,-418.5 1112.5,-437.5 1217.5,-437.5 1217.5,-418.5 1112.5,-418.5"/>
<text text-anchor="middle" x="1165" y="-425.5" font-family="Helvetica,sans-Serif" font-size="10.00">__osSiDeviceBusy</text>
</a>
</g>
</g>
<!-- Node13&#45;&gt;Node14 -->
<g id="edge14" class="edge">
<title>Node13&#45;&gt;Node14</title>
<path fill="none" stroke="midnightblue" d="M1040.26,-399.59C1062.2,-404.63 1089.28,-410.84 1112.51,-416.18"/>
<polygon fill="midnightblue" stroke="midnightblue" points="1112.01,-419.65 1122.54,-418.48 1113.57,-412.83 1112.01,-419.65"/>
</g>
<!-- Node15 -->
<g id="node15" class="node">
<title>Node15</title>
<g id="a_node15"><a xlink:href="osVirtualToPhysical_8c.html#a87fb0b956b8effcecdf9585577895570" target="_top" xlink:title=" ">
<polygon fill="white" stroke="black" points="1109.5,-380.5 1109.5,-399.5 1220.5,-399.5 1220.5,-380.5 1109.5,-380.5"/>
<text text-anchor="middle" x="1165" y="-387.5" font-family="Helvetica,sans-Serif" font-size="10.00">osVirtualToPhysical</text>
</a>
</g>
</g>
<!-- Node13&#45;&gt;Node15 -->
<g id="edge15" class="edge">
<title>Node13&#45;&gt;Node15</title>
<path fill="none" stroke="midnightblue" d="M1055.46,-390C1069.53,-390 1084.7,-390 1099.12,-390"/>
<polygon fill="midnightblue" stroke="midnightblue" points="1099.45,-393.5 1109.45,-390 1099.45,-386.5 1099.45,-393.5"/>
</g>
<!-- Node16 -->
<g id="node16" class="node">
<title>Node16</title>
<g id="a_node16"><a xlink:href="libultra__internal_8h.html#a4f7c83166c9481713d4b56defd0888c7" target="_top" xlink:title=" ">
<polygon fill="white" stroke="black" points="1267.5,-437.5 1267.5,-456.5 1351.5,-456.5 1351.5,-437.5 1267.5,-437.5"/>
<text text-anchor="middle" x="1309.5" y="-444.5" font-family="Helvetica,sans-Serif" font-size="10.00">__osProbeTLB</text>
</a>
</g>
</g>
<!-- Node15&#45;&gt;Node16 -->
<g id="edge16" class="edge">
<title>Node15&#45;&gt;Node16</title>
<path fill="none" stroke="midnightblue" d="M1197.22,-399.55C1205.95,-402.41 1215.4,-405.67 1224,-409 1242.76,-416.27 1263.35,-425.5 1279.51,-433.05"/>
<polygon fill="midnightblue" stroke="midnightblue" points="1278.41,-436.4 1288.95,-437.49 1281.39,-430.06 1278.41,-436.4"/>
</g>
<!-- Node18 -->
<g id="node18" class="node">
<title>Node18</title>
<g id="a_node18"><a xlink:href="libultra__internal_8h.html#a8ad9db8aa6bfc4437abdd0363b663b16" target="_top" xlink:title=" ">
<polygon fill="white" stroke="black" points="1412.5,-162.5 1412.5,-181.5 1500.5,-181.5 1500.5,-162.5 1412.5,-162.5"/>
<text text-anchor="middle" x="1456.5" y="-169.5" font-family="Helvetica,sans-Serif" font-size="10.00">__osDisableInt</text>
</a>
</g>
</g>
<!-- Node17&#45;&gt;Node18 -->
<g id="edge18" class="edge">
<title>Node17&#45;&gt;Node18</title>
<path fill="none" stroke="midnightblue" d="M1189.61,-228.45C1208.41,-221.15 1235.55,-211.31 1260,-205 1307.53,-192.74 1362.76,-183.9 1402.37,-178.47"/>
<polygon fill="midnightblue" stroke="midnightblue" points="1402.9,-181.93 1412.34,-177.13 1401.97,-175 1402.9,-181.93"/>
</g>
<!-- Node19 -->
<g id="node19" class="node">
<title>Node19</title>
<g id="a_node19"><a xlink:href="libultra__internal_8h.html#afe9c3abc4ca93d9fe18a87d9f108d5cb" target="_top" xlink:title=" ">
<polygon fill="white" stroke="black" points="1395,-323.5 1395,-342.5 1518,-342.5 1518,-323.5 1395,-323.5"/>
<text text-anchor="middle" x="1456.5" y="-330.5" font-family="Helvetica,sans-Serif" font-size="10.00">__osEnqueueAndYield</text>
</a>
</g>
</g>
<!-- Node17&#45;&gt;Node19 -->
<g id="edge19" class="edge">
<title>Node17&#45;&gt;Node19</title>
<path fill="none" stroke="midnightblue" d="M1180.59,-247.58C1204.82,-263.44 1251.56,-293.71 1260,-297 1299.85,-312.52 1346.94,-321.45 1384.91,-326.53"/>
<polygon fill="midnightblue" stroke="midnightblue" points="1384.49,-330.01 1394.86,-327.8 1385.38,-323.06 1384.49,-330.01"/>
</g>
<!-- Node20 -->
<g id="node20" class="node">
<title>Node20</title>
<g id="a_node20"><a xlink:href="libultra__internal_8h.html#a82b6b8e6a4311b516950168ef4078e33" target="_top" xlink:title=" ">
<polygon fill="white" stroke="black" points="1411.5,-285.5 1411.5,-304.5 1501.5,-304.5 1501.5,-285.5 1411.5,-285.5"/>
<text text-anchor="middle" x="1456.5" y="-292.5" font-family="Helvetica,sans-Serif" font-size="10.00">__osPopThread</text>
</a>
</g>
</g>
<!-- Node17&#45;&gt;Node20 -->
<g id="edge20" class="edge">
<title>Node17&#45;&gt;Node20</title>
<path fill="none" stroke="midnightblue" d="M1184.9,-247.53C1203.51,-256.45 1232.99,-269.37 1260,-276 1306.92,-287.51 1361.78,-292.1 1401.42,-293.9"/>
<polygon fill="midnightblue" stroke="midnightblue" points="1401.28,-297.4 1411.41,-294.31 1401.57,-290.4 1401.28,-297.4"/>
</g>
<!-- Node21 -->
<g id="node21" class="node">
<title>Node21</title>
<g id="a_node21"><a xlink:href="libultra__internal_8h.html#aecafa57b85fd739d6033705808194def" target="_top" xlink:title=" ">
<polygon fill="white" stroke="black" points="1412,-105.5 1412,-124.5 1501,-124.5 1501,-105.5 1412,-105.5"/>
<text text-anchor="middle" x="1456.5" y="-112.5" font-family="Helvetica,sans-Serif" font-size="10.00">__osRestoreInt</text>
</a>
</g>
</g>
<!-- Node17&#45;&gt;Node21 -->
<g id="edge21" class="edge">
<title>Node17&#45;&gt;Node21</title>
<path fill="none" stroke="midnightblue" d="M1179.79,-228.3C1197.66,-216.06 1230.06,-194.92 1260,-181 1309.56,-157.95 1369.48,-138.93 1409.82,-127.33"/>
<polygon fill="midnightblue" stroke="midnightblue" points="1410.97,-130.64 1419.63,-124.54 1409.06,-123.91 1410.97,-130.64"/>
</g>
<!-- Node22 -->
<g id="node22" class="node">
<title>Node22</title>
<g id="a_node22"><a xlink:href="osStartThread_8c.html#a3b144e814933e16a2fbf2642ad098ed3" target="_top" xlink:title=" ">
<polygon fill="white" stroke="black" points="1267,-247.5 1267,-266.5 1352,-266.5 1352,-247.5 1267,-247.5"/>
<text text-anchor="middle" x="1309.5" y="-254.5" font-family="Helvetica,sans-Serif" font-size="10.00">osStartThread</text>
</a>
</g>
</g>
<!-- Node17&#45;&gt;Node22 -->
<g id="edge22" class="edge">
<title>Node17&#45;&gt;Node22</title>
<path fill="none" stroke="midnightblue" d="M1204.19,-243.09C1220.38,-245.25 1239.51,-247.8 1256.93,-250.12"/>
<polygon fill="midnightblue" stroke="midnightblue" points="1256.58,-253.61 1266.95,-251.46 1257.5,-246.67 1256.58,-253.61"/>
</g>
<!-- Node22&#45;&gt;Node18 -->
<g id="edge23" class="edge">
<title>Node22&#45;&gt;Node18</title>
<path fill="none" stroke="midnightblue" d="M1333.46,-247.27C1341.79,-243.33 1351.1,-238.42 1359,-233 1376.91,-220.73 1376.94,-212.03 1395,-200 1403.06,-194.63 1412.32,-189.77 1421.13,-185.68"/>
<polygon fill="midnightblue" stroke="midnightblue" points="1422.73,-188.8 1430.44,-181.54 1419.88,-182.4 1422.73,-188.8"/>
</g>
<!-- Node22&#45;&gt;Node19 -->
<g id="edge25" class="edge">
<title>Node22&#45;&gt;Node19</title>
<path fill="none" stroke="midnightblue" d="M1322.42,-266.69C1338.19,-279.11 1367.26,-300.64 1395,-314 1399.59,-316.21 1404.51,-318.25 1409.47,-320.09"/>
<polygon fill="midnightblue" stroke="midnightblue" points="1408.42,-323.43 1419.01,-323.41 1410.72,-316.82 1408.42,-323.43"/>
</g>
<!-- Node22&#45;&gt;Node20 -->
<g id="edge27" class="edge">
<title>Node22&#45;&gt;Node20</title>
<path fill="none" stroke="midnightblue" d="M1347.09,-266.59C1365.97,-271.54 1389.19,-277.62 1409.29,-282.89"/>
<polygon fill="midnightblue" stroke="midnightblue" points="1408.61,-286.33 1419.17,-285.48 1410.39,-279.56 1408.61,-286.33"/>
</g>
<!-- Node22&#45;&gt;Node21 -->
<g id="edge28" class="edge">
<title>Node22&#45;&gt;Node21</title>
<path fill="none" stroke="midnightblue" d="M1318.16,-247.2C1337.26,-222.84 1386.07,-160.9 1395,-153 1405.01,-144.14 1417.32,-136 1428.22,-129.55"/>
<polygon fill="midnightblue" stroke="midnightblue" points="1430.02,-132.55 1436.96,-124.55 1426.54,-126.48 1430.02,-132.55"/>
</g>
<!-- Node23 -->
<g id="node23" class="node">
<title>Node23</title>
<g id="a_node23"><a xlink:href="libultra__internal_8h.html#a650b788ebd5efde9c8cbccc1ee832445" target="_top" xlink:title=" ">
<polygon fill="white" stroke="black" points="1399,-247.5 1399,-266.5 1514,-266.5 1514,-247.5 1399,-247.5"/>
<text text-anchor="middle" x="1456.5" y="-254.5" font-family="Helvetica,sans-Serif" font-size="10.00">__osDispatchThread</text>
</a>
</g>
</g>
<!-- Node22&#45;&gt;Node23 -->
<g id="edge24" class="edge">
<title>Node22&#45;&gt;Node23</title>
<path fill="none" stroke="midnightblue" d="M1352.05,-257C1363.43,-257 1376.05,-257 1388.47,-257"/>
<polygon fill="midnightblue" stroke="midnightblue" points="1388.81,-260.5 1398.81,-257 1388.81,-253.5 1388.81,-260.5"/>
</g>
<!-- Node24 -->
<g id="node24" class="node">
<title>Node24</title>
<g id="a_node24"><a xlink:href="libultra__internal_8h.html#ac9d6cfd19de5565e74f1d74a14e9092d" target="_top" xlink:title=" ">
<polygon fill="white" stroke="black" points="1399.5,-209.5 1399.5,-228.5 1513.5,-228.5 1513.5,-209.5 1399.5,-209.5"/>
<text text-anchor="middle" x="1456.5" y="-216.5" font-family="Helvetica,sans-Serif" font-size="10.00">__osEnqueueThread</text>
</a>
</g>
</g>
<!-- Node22&#45;&gt;Node24 -->
<g id="edge26" class="edge">
<title>Node22&#45;&gt;Node24</title>
<path fill="none" stroke="midnightblue" d="M1347.09,-247.41C1365.97,-242.46 1389.19,-236.38 1409.29,-231.11"/>
<polygon fill="midnightblue" stroke="midnightblue" points="1410.39,-234.44 1419.17,-228.52 1408.61,-227.67 1410.39,-234.44"/>
</g>
<!-- Node26&#45;&gt;Node17 -->
<g id="edge39" class="edge">
<title>Node26&#45;&gt;Node17</title>
<path fill="none" stroke="midnightblue" d="M874.07,-238C938.21,-238 1051.14,-238 1115.5,-238"/>
<polygon fill="midnightblue" stroke="midnightblue" points="1115.78,-241.5 1125.78,-238 1115.78,-234.5 1115.78,-241.5"/>
</g>
<!-- Node27 -->
<g id="node27" class="node">
<title>Node27</title>
<g id="a_node27"><a xlink:href="____osSiCreateAccessQueue_8c.html#a7520cad725d80a88735d29f75a3de94a" target="_top" xlink:title=" ">
<polygon fill="white" stroke="black" points="925,-304.5 925,-323.5 1070,-323.5 1070,-304.5 925,-304.5"/>
<text text-anchor="middle" x="997.5" y="-311.5" font-family="Helvetica,sans-Serif" font-size="10.00">__osSiCreateAccessQueue</text>
</a>
</g>
</g>
<!-- Node26&#45;&gt;Node27 -->
<g id="edge31" class="edge">
<title>Node26&#45;&gt;Node27</title>
<path fill="none" stroke="midnightblue" d="M862.07,-247.56C870.99,-250.29 880.44,-253.48 889,-257 918.44,-269.11 950.47,-286.71 971.84,-299.15"/>
<polygon fill="midnightblue" stroke="midnightblue" points="970.19,-302.24 980.59,-304.29 973.74,-296.21 970.19,-302.24"/>
</g>
<!-- Node28 -->
<g id="node28" class="node">
<title>Node28</title>
<g id="a_node28"><a xlink:href="osCreateMesgQueue_8c.html#aab783cab54141cb60618b45f534104b9" target="_top" xlink:title=" ">
<polygon fill="white" stroke="black" points="1106,-285.5 1106,-304.5 1224,-304.5 1224,-285.5 1106,-285.5"/>
<text text-anchor="middle" x="1165" y="-292.5" font-family="Helvetica,sans-Serif" font-size="10.00">osCreateMesgQueue</text>
</a>
</g>
</g>
<!-- Node27&#45;&gt;Node28 -->
<g id="edge32" class="edge">
<title>Node27&#45;&gt;Node28</title>
<path fill="none" stroke="midnightblue" d="M1070.13,-305.78C1078.64,-304.8 1087.31,-303.8 1095.76,-302.83"/>
<polygon fill="midnightblue" stroke="midnightblue" points="1096.42,-306.28 1105.96,-301.66 1095.62,-299.33 1096.42,-306.28"/>
</g>
<!-- Node29 -->
<g id="node29" class="node">
<title>Node29</title>
<g id="a_node29"><a xlink:href="osSendMesg_8c.html#a413bd1b0a16c54dcc9e59c48b3d7f142" target="_top" xlink:title=" ">
<polygon fill="white" stroke="black" points="1126,-323.5 1126,-342.5 1204,-342.5 1204,-323.5 1126,-323.5"/>
<text text-anchor="middle" x="1165" y="-330.5" font-family="Helvetica,sans-Serif" font-size="10.00">osSendMesg</text>
</a>
</g>
</g>
<!-- Node27&#45;&gt;Node29 -->
<g id="edge33" class="edge">
<title>Node27&#45;&gt;Node29</title>
<path fill="none" stroke="midnightblue" d="M1070.13,-322.22C1085.59,-324 1101.59,-325.83 1115.89,-327.48"/>
<polygon fill="midnightblue" stroke="midnightblue" points="1115.65,-330.97 1125.98,-328.64 1116.45,-324.02 1115.65,-330.97"/>
</g>
<!-- Node29&#45;&gt;Node18 -->
<g id="edge34" class="edge">
<title>Node29&#45;&gt;Node18</title>
<path fill="none" stroke="midnightblue" d="M1204.25,-325.37C1211.38,-322.65 1218.36,-318.97 1224,-314 1252.04,-289.29 1232.07,-262.84 1260,-238 1281.83,-218.58 1355.22,-197.11 1405.6,-184.09"/>
<polygon fill="midnightblue" stroke="midnightblue" points="1406.52,-187.47 1415.34,-181.6 1404.79,-180.68 1406.52,-187.47"/>
</g>
<!-- Node29&#45;&gt;Node19 -->
<g id="edge35" class="edge">
<title>Node29&#45;&gt;Node19</title>
<path fill="none" stroke="midnightblue" d="M1178.49,-342.66C1195.71,-355.29 1228.22,-376.8 1260,-385 1302.6,-396 1316.34,-395.76 1359,-385 1386.91,-377.96 1415.53,-361.09 1434.27,-348.46"/>
<polygon fill="midnightblue" stroke="midnightblue" points="1436.41,-351.23 1442.63,-342.66 1432.42,-345.48 1436.41,-351.23"/>
</g>
<!-- Node29&#45;&gt;Node20 -->
<g id="edge36" class="edge">
<title>Node29&#45;&gt;Node20</title>
<path fill="none" stroke="midnightblue" d="M1204.11,-328.49C1243.07,-323.83 1305.29,-316.23 1359,-309 1372.64,-307.16 1387.34,-305.08 1401.06,-303.1"/>
<polygon fill="midnightblue" stroke="midnightblue" points="1401.94,-306.5 1411.33,-301.6 1400.93,-299.58 1401.94,-306.5"/>
</g>
<!-- Node29&#45;&gt;Node21 -->
<g id="edge37" class="edge">
<title>Node29&#45;&gt;Node21</title>
<path fill="none" stroke="midnightblue" d="M1204.25,-326.23C1211.55,-323.45 1218.59,-319.53 1224,-314 1262.62,-274.49 1220.58,-233.72 1260,-195 1292.63,-162.96 1316.62,-184.17 1359,-167 1384.77,-156.56 1412.55,-141.1 1431.66,-129.75"/>
<polygon fill="midnightblue" stroke="midnightblue" points="1433.54,-132.71 1440.3,-124.55 1429.93,-126.71 1433.54,-132.71"/>
</g>
<!-- Node29&#45;&gt;Node22 -->
<g id="edge38" class="edge">
<title>Node29&#45;&gt;Node22</title>
<path fill="none" stroke="midnightblue" d="M1200.36,-323.48C1208.29,-320.81 1216.58,-317.63 1224,-314 1247.34,-302.58 1271.7,-285.51 1288.23,-273.03"/>
<polygon fill="midnightblue" stroke="midnightblue" points="1290.76,-275.5 1296.56,-266.63 1286.5,-269.95 1290.76,-275.5"/>
</g>
<!-- Node30&#45;&gt;Node29 -->
<g id="edge42" class="edge">
<title>Node30&#45;&gt;Node29</title>
<path fill="none" stroke="midnightblue" d="M1046.37,-346.5C1068.21,-344 1094.02,-341.03 1115.89,-338.52"/>
<polygon fill="midnightblue" stroke="midnightblue" points="1116.41,-341.99 1125.95,-337.37 1115.61,-335.03 1116.41,-341.99"/>
</g>
<!-- Node32 -->
<g id="node32" class="node">
<title>Node32</title>
<g id="a_node32"><a xlink:href="osSetTimer_8c.html#a9886ad7553ac8a105022fe706777fb6f" target="_top" xlink:title=" ">
<polygon fill="white" stroke="black" points="1262,-57.5 1262,-76.5 1357,-76.5 1357,-57.5 1262,-57.5"/>
<text text-anchor="middle" x="1309.5" y="-64.5" font-family="Helvetica,sans-Serif" font-size="10.00">__osInsertTimer</text>
</a>
</g>
</g>
<!-- Node31&#45;&gt;Node32 -->
<g id="edge46" class="edge">
<title>Node31&#45;&gt;Node32</title>
<path fill="none" stroke="midnightblue" d="M1201.22,-67C1216.38,-67 1234.48,-67 1251.46,-67"/>
<polygon fill="midnightblue" stroke="midnightblue" points="1251.85,-70.5 1261.85,-67 1251.85,-63.5 1251.85,-70.5"/>
</g>
<!-- Node33 -->
<g id="node33" class="node">
<title>Node33</title>
<g id="a_node33"><a xlink:href="libultra__internal_8h.html#a48dd5f093b2a9727fdd916202a915978" target="_top" xlink:title=" ">
<polygon fill="white" stroke="black" points="1260,-19.5 1260,-38.5 1359,-38.5 1359,-19.5 1260,-19.5"/>
<text text-anchor="middle" x="1309.5" y="-26.5" font-family="Helvetica,sans-Serif" font-size="10.00">__osSetTimerIntr</text>
</a>
</g>
</g>
<!-- Node31&#45;&gt;Node33 -->
<g id="edge47" class="edge">
<title>Node31&#45;&gt;Node33</title>
<path fill="none" stroke="midnightblue" d="M1201.22,-57.61C1219.84,-52.64 1242.9,-46.49 1262.87,-41.17"/>
<polygon fill="midnightblue" stroke="midnightblue" points="1263.93,-44.51 1272.69,-38.55 1262.13,-37.74 1263.93,-44.51"/>
</g>
<!-- Node33&#45;&gt;Node18 -->
<g id="edge48" class="edge">
<title>Node33&#45;&gt;Node18</title>
<path fill="none" stroke="midnightblue" d="M1345.43,-38.69C1350.39,-41.15 1355.12,-44.21 1359,-48 1388.64,-76.96 1368.2,-102.39 1395,-134 1403.06,-143.51 1414.13,-151.41 1424.59,-157.5"/>
<polygon fill="midnightblue" stroke="midnightblue" points="1423.08,-160.67 1433.54,-162.38 1426.43,-154.52 1423.08,-160.67"/>
</g>
<!-- Node33&#45;&gt;Node21 -->
<g id="edge49" class="edge">
<title>Node33&#45;&gt;Node21</title>
<path fill="none" stroke="midnightblue" d="M1338.19,-38.56C1345.13,-41.31 1352.46,-44.51 1359,-48 1387.09,-62.99 1416.8,-84.61 1435.71,-99.2"/>
<polygon fill="midnightblue" stroke="midnightblue" points="1433.56,-101.96 1443.6,-105.36 1437.87,-96.45 1433.56,-101.96"/>
</g>
<!-- Node34 -->
<g id="node34" class="node">
<title>Node34</title>
<g id="a_node34"><a xlink:href="libultra__internal_8h.html#a690cad10244bbcfa0cc27e601a642c2f" target="_top" xlink:title=" ">
<polygon fill="white" stroke="black" points="1407.5,-38.5 1407.5,-57.5 1505.5,-57.5 1505.5,-38.5 1407.5,-38.5"/>
<text text-anchor="middle" x="1456.5" y="-45.5" font-family="Helvetica,sans-Serif" font-size="10.00">__osSetCompare</text>
</a>
</g>
</g>
<!-- Node33&#45;&gt;Node34 -->
<g id="edge50" class="edge">
<title>Node33&#45;&gt;Node34</title>
<path fill="none" stroke="midnightblue" d="M1359.19,-35.38C1371.39,-36.98 1384.61,-38.71 1397.23,-40.36"/>
<polygon fill="midnightblue" stroke="midnightblue" points="1396.82,-43.84 1407.19,-41.67 1397.73,-36.9 1396.82,-43.84"/>
</g>
<!-- Node35 -->
<g id="node35" class="node">
<title>Node35</title>
<g id="a_node35"><a xlink:href="os__misc_8h.html#ade84d2da5a97b7796811e6c1f7cb7bc1" target="_top" xlink:title=" ">
<polygon fill="white" stroke="black" points="1419.5,-0.5 1419.5,-19.5 1493.5,-19.5 1493.5,-0.5 1419.5,-0.5"/>
<text text-anchor="middle" x="1456.5" y="-7.5" font-family="Helvetica,sans-Serif" font-size="10.00">osGetCount</text>
</a>
</g>
</g>
<!-- Node33&#45;&gt;Node35 -->
<g id="edge51" class="edge">
<title>Node33&#45;&gt;Node35</title>
<path fill="none" stroke="midnightblue" d="M1359.19,-22.62C1375.25,-20.52 1393.07,-18.18 1408.96,-16.1"/>
<polygon fill="midnightblue" stroke="midnightblue" points="1409.64,-19.54 1419.1,-14.77 1408.73,-12.6 1409.64,-19.54"/>
</g>
<!-- Node36&#45;&gt;Node8 -->
<g id="edge53" class="edge">
<title>Node36&#45;&gt;Node8</title>
<path fill="none" stroke="midnightblue" d="M423.39,-140.52C429.68,-143.23 436.23,-146.42 442,-150 459.94,-161.13 460.08,-169.83 478,-181 481,-182.87 484.16,-184.66 487.39,-186.36"/>
<polygon fill="midnightblue" stroke="midnightblue" points="486.13,-189.64 496.64,-190.93 489.23,-183.36 486.13,-189.64"/>
</g>
<!-- Node36&#45;&gt;Node10 -->
<g id="edge56" class="edge">
<title>Node36&#45;&gt;Node10</title>
<path fill="none" stroke="midnightblue" d="M439.99,-140.55C453.78,-143.62 469.22,-147.05 483.63,-150.25"/>
<polygon fill="midnightblue" stroke="midnightblue" points="482.89,-153.67 493.41,-152.42 484.41,-146.84 482.89,-153.67"/>
</g>
<!-- Node37 -->
<g id="node37" class="node">
<title>Node37</title>
<g id="a_node37"><a xlink:href="save_8h.html#a5355f13c326e5484178d857443e02450" target="_top" xlink:title=" ">
<polygon fill="white" stroke="black" points="491.5,-76.5 491.5,-95.5 583.5,-95.5 583.5,-76.5 491.5,-76.5"/>
<text text-anchor="middle" x="537.5" y="-83.5" font-family="Helvetica,sans-Serif" font-size="10.00">func_800B578C</text>
</a>
</g>
</g>
<!-- Node36&#45;&gt;Node37 -->
<g id="edge54" class="edge">
<title>Node36&#45;&gt;Node37</title>
<path fill="none" stroke="midnightblue" d="M426.58,-121.46C447.21,-114.8 474.93,-105.86 497.38,-98.62"/>
<polygon fill="midnightblue" stroke="midnightblue" points="498.52,-101.93 506.96,-95.53 496.37,-95.27 498.52,-101.93"/>
</g>
<!-- Node38 -->
<g id="node38" class="node">
<title>Node38</title>
<g id="a_node38"><a xlink:href="save_8c.html#a553981415832f82a0e8ba0b1671f1408" target="_top" xlink:title=" ">
<polygon fill="white" stroke="black" points="491.5,-114.5 491.5,-133.5 583.5,-133.5 583.5,-114.5 491.5,-114.5"/>
<text text-anchor="middle" x="537.5" y="-121.5" font-family="Helvetica,sans-Serif" font-size="10.00">func_800B5888</text>
</a>
</g>
</g>
<!-- Node36&#45;&gt;Node38 -->
<g id="edge55" class="edge">
<title>Node36&#45;&gt;Node38</title>
<path fill="none" stroke="midnightblue" d="M442.29,-128.73C454.72,-128.1 468.34,-127.42 481.26,-126.77"/>
<polygon fill="midnightblue" stroke="midnightblue" points="481.62,-130.26 491.44,-126.26 481.27,-123.27 481.62,-130.26"/>
</g>
<!-- Node42 -->
<g id="node42" class="node">
<title>Node42</title>
<g id="a_node42"><a xlink:href="external_8c.html#a62e16f9600e7e9beda2c9d2df10f3561" target="_top" xlink:title=" ">
<polygon fill="white" stroke="black" points="360,-9.5 360,-28.5 432,-28.5 432,-9.5 360,-9.5"/>
<text text-anchor="middle" x="396" y="-16.5" font-family="Helvetica,sans-Serif" font-size="10.00">play_sound</text>
</a>
</g>
</g>
<!-- Node41&#45;&gt;Node42 -->
<g id="edge60" class="edge">
<title>Node41&#45;&gt;Node42</title>
<path fill="none" stroke="midnightblue" d="M278.69,-19C300.23,-19 327.28,-19 349.86,-19"/>
<polygon fill="midnightblue" stroke="midnightblue" points="349.89,-22.5 359.89,-19 349.89,-15.5 349.89,-22.5"/>
</g>
</g>
</svg>
