<?xml version="1.0" encoding="UTF-8" standalone="no"?>
<!DOCTYPE svg PUBLIC "-//W3C//DTD SVG 1.1//EN"
 "http://www.w3.org/Graphics/SVG/1.1/DTD/svg11.dtd">
<!-- Generated by graphviz version 2.43.0 (0)
 -->
<!-- Title: func_800A143C Pages: 1 -->
<!--zoomable 306 -->

<svg id="main" version="1.1" xmlns="http://www.w3.org/2000/svg" xmlns:xlink="http://www.w3.org/1999/xlink" xml:space="preserve" onload="init(evt)">
<style type="text/css"><![CDATA[
.node, .edge {opacity: 0.7;}
.node.selected, .edge.selected {opacity: 1;}
.edge:hover path { stroke: red; }
.edge:hover polygon { stroke: red; fill: red; }
]]></style>

<defs>
  <circle id="rim" cx="0" cy="0" r="7"/>
  <circle id="rim2" cx="0" cy="0" r="3.5"/>
  <g id="zoomPlus">
    <use xlink:href="#rim" fill="#404040"><set attributeName="fill" to="#808080" begin="zoomplus.mouseover" end="zoomplus.mouseout"/></use>
    <path d="M-4,0h8M0,-4v8" fill="none" stroke="white" stroke-width="1.5" pointer-events="none"/>
  </g>
  <g id="zoomMin">
    <use xlink:href="#rim" fill="#404040"><set attributeName="fill" to="#808080" begin="zoomminus.mouseover" end="zoomminus.mouseout"/></use>
    <path d="M-4,0h8" fill="none" stroke="white" stroke-width="1.5" pointer-events="none"/>
  </g>
  <g id="arrowUp" transform="translate(30 24)">
    <use xlink:href="#rim"/>
    <path pointer-events="none" fill="none" stroke="white" stroke-width="1.5" d="M0,-3.0v7 M-2.5,-0.5L0,-3.0L2.5,-0.5"/>
  </g>
  <g id="arrowRight" transform="rotate(90) translate(36 -43)">
    <use xlink:href="#rim"/>
    <path pointer-events="none" fill="none" stroke="white" stroke-width="1.5" d="M0,-3.0v7 M-2.5,-0.5L0,-3.0L2.5,-0.5"/>
  </g>
  <g id="arrowDown" transform="rotate(180) translate(-30 -48)">
    <use xlink:href="#rim"/>
    <path pointer-events="none" fill="none" stroke="white" stroke-width="1.5" d="M0,-3.0v7 M-2.5,-0.5L0,-3.0L2.5,-0.5"/>
  </g>
  <g id="arrowLeft" transform="rotate(270) translate(-36 17)">
    <use xlink:href="#rim"/>
    <path pointer-events="none" fill="none" stroke="white" stroke-width="1.5" d="M0,-3.0v7 M-2.5,-0.5L0,-3.0L2.5,-0.5"/>
  </g>
  <g id="resetDef">
    <use xlink:href="#rim2" fill="#404040"><set attributeName="fill" to="#808080" begin="reset.mouseover" end="reset.mouseout"/></use>
  </g>
</defs>
<script type="application/ecmascript">
var viewWidth = 578;
var viewHeight = 306;
var sectionId = 'dynsection-206';
</script>
<script type="application/ecmascript" xlink:href="svg.min.js"/>
<svg id="graph" class="graph">
<g id="viewport">
<title>func_800A143C</title>
<!-- Node1 -->
<g id="Node000001" class="node">
<title>Node1</title>
<g id="a_Node000001"><a xlink:title=" ">
<polygon fill="#999999" stroke="#666666" points="92,-131 0,-131 0,-112 92,-112 92,-131"/>
<text text-anchor="middle" x="46" y="-119" font-family="Helvetica,sans-Serif" font-size="10.00">func_800A143C</text>
</a>
</g>
</g>
<!-- Node2 -->
<g id="Node000002" class="node">
<title>Node2</title>
<g id="a_Node000002"><a xlink:href="menu__items_8c.html#a9152c655f7a0a66de30ddef2e10d68bb" target="_top" xlink:title=" ">
<polygon fill="white" stroke="#666666" points="238,-187 145,-187 145,-168 238,-168 238,-187"/>
<text text-anchor="middle" x="191.5" y="-175" font-family="Helvetica,sans-Serif" font-size="10.00">func_8009BC9C</text>
</a>
</g>
</g>
<!-- Node1&#45;&gt;Node2 -->
<g id="edge1_Node000001_Node000002" class="edge">
<title>Node1&#45;&gt;Node2</title>
<g id="a_edge1_Node000001_Node000002"><a xlink:title=" ">
<path fill="none" stroke="#63b8ff" d="M71.67,-131.13C95.12,-140.28 130.58,-154.12 156.66,-164.29"/>
<polygon fill="#63b8ff" stroke="#63b8ff" points="155.57,-167.62 166.15,-168 158.11,-161.1 155.57,-167.62"/>
</a>
</g>
</g>
<!-- Node9 -->
<g id="Node000009" class="node">
<title>Node9</title>
<g id="a_Node000009"><a xlink:href="menu__items_8c.html#a2d2758c3a87de891a40840727bef3306" target="_top" xlink:title=" ">
<polygon fill="white" stroke="#666666" points="443,-113 291,-113 291,-94 443,-94 443,-113"/>
<text text-anchor="middle" x="367" y="-101" font-family="Helvetica,sans-Serif" font-size="10.00">segmented_to_virtual_dupe</text>
</a>
</g>
</g>
<!-- Node1&#45;&gt;Node9 -->
<g id="edge16_Node000001_Node000009" class="edge">
<title>Node1&#45;&gt;Node9</title>
<g id="a_edge16_Node000001_Node000009"><a xlink:title=" ">
<path fill="none" stroke="#63b8ff" d="M92.03,-118.96C140.81,-116.21 219.8,-111.75 280.46,-108.33"/>
<polygon fill="#63b8ff" stroke="#63b8ff" points="281.01,-111.8 290.79,-107.74 280.61,-104.81 281.01,-111.8"/>
</a>
</g>
</g>
<!-- Node10 -->
<g id="Node000010" class="node">
<title>Node10</title>
<g id="a_Node000010"><a xlink:href="menu__items_8c.html#a6ae9a7914726211a0149ff3ff8c2d70d" target="_top" xlink:title=" ">
<polygon fill="white" stroke="#666666" points="255,-93 128,-93 128,-74 255,-74 255,-93"/>
<text text-anchor="middle" x="191.5" y="-81" font-family="Helvetica,sans-Serif" font-size="10.00">render_menu_textures</text>
</a>
</g>
</g>
<!-- Node1&#45;&gt;Node10 -->
<g id="edge9_Node000001_Node000010" class="edge">
<title>Node1&#45;&gt;Node10</title>
<g id="a_edge9_Node000001_Node000010"><a xlink:title=" ">
<path fill="none" stroke="#63b8ff" d="M83.21,-111.91C101.82,-106.98 124.7,-100.93 144.54,-95.67"/>
<polygon fill="#63b8ff" stroke="#63b8ff" points="145.53,-99.03 154.3,-93.09 143.74,-92.26 145.53,-99.03"/>
</a>
</g>
</g>
<!-- Node3 -->
<g id="Node000003" class="node">
<title>Node3</title>
<g id="a_Node000003"><a xlink:href="menu__items_8h.html#aab23f26f9961699108a8c6d5e8157ced" target="_top" xlink:title=" ">
<polygon fill="white" stroke="#666666" points="412.5,-298 321.5,-298 321.5,-279 412.5,-279 412.5,-298"/>
<text text-anchor="middle" x="367" y="-286" font-family="Helvetica,sans-Serif" font-size="10.00">func_80097274</text>
</a>
</g>
</g>
<!-- Node2&#45;&gt;Node3 -->
<g id="edge2_Node000002_Node000003" class="edge">
<title>Node2&#45;&gt;Node3</title>
<g id="a_edge2_Node000002_Node000003"><a xlink:title=" ">
<path fill="none" stroke="#63b8ff" d="M199.74,-187.11C214.63,-206.14 250.67,-248.67 291,-270.5 297.4,-273.96 304.45,-276.77 311.6,-279.03"/>
<polygon fill="#63b8ff" stroke="#63b8ff" points="310.78,-282.44 321.36,-281.81 312.7,-275.71 310.78,-282.44"/>
</a>
</g>
</g>
<!-- Node4 -->
<g id="Node000004" class="node">
<title>Node4</title>
<g id="a_Node000004"><a xlink:href="menu__items_8c.html#a6aa04c603cd7b877a5009a97a0b41ed3" target="_top" xlink:title=" ">
<polygon fill="white" stroke="#666666" points="413,-261 321,-261 321,-242 413,-242 413,-261"/>
<text text-anchor="middle" x="367" y="-249" font-family="Helvetica,sans-Serif" font-size="10.00">func_80097A14</text>
</a>
</g>
</g>
<!-- Node2&#45;&gt;Node4 -->
<g id="edge3_Node000002_Node000004" class="edge">
<title>Node2&#45;&gt;Node4</title>
<g id="a_edge3_Node000002_Node000004"><a xlink:title=" ">
<path fill="none" stroke="#63b8ff" d="M206.55,-187.18C225.1,-199.57 259.17,-220.92 291,-233.5 297.36,-236.01 304.17,-238.24 310.99,-240.19"/>
<polygon fill="#63b8ff" stroke="#63b8ff" points="310.38,-243.65 320.94,-242.86 312.19,-236.89 310.38,-243.65"/>
</a>
</g>
</g>
<!-- Node6 -->
<g id="Node000006" class="node">
<title>Node6</title>
<g id="a_Node000006"><a xlink:href="menu__items_8c.html#a891090da0f3ed38b95d3f97bbd2f61c8" target="_top" xlink:title=" ">
<polygon fill="white" stroke="#666666" points="413,-224 321,-224 321,-205 413,-205 413,-224"/>
<text text-anchor="middle" x="367" y="-212" font-family="Helvetica,sans-Serif" font-size="10.00">func_80097AE4</text>
</a>
</g>
</g>
<!-- Node2&#45;&gt;Node6 -->
<g id="edge5_Node000002_Node000006" class="edge">
<title>Node2&#45;&gt;Node6</title>
<g id="a_edge5_Node000002_Node000006"><a xlink:title=" ">
<path fill="none" stroke="#63b8ff" d="M237.18,-187.03C259.76,-191.84 287.35,-197.73 311.2,-202.81"/>
<polygon fill="#63b8ff" stroke="#63b8ff" points="310.66,-206.28 321.17,-204.94 312.12,-199.43 310.66,-206.28"/>
</a>
</g>
</g>
<!-- Node7 -->
<g id="Node000007" class="node">
<title>Node7</title>
<g id="a_Node000007"><a xlink:href="menu__items_8c.html#aaa8eb10ba2942aad8f1c36711ce19acf" target="_top" xlink:title=" ">
<polygon fill="white" stroke="#666666" points="412.5,-187 321.5,-187 321.5,-168 412.5,-168 412.5,-187"/>
<text text-anchor="middle" x="367" y="-175" font-family="Helvetica,sans-Serif" font-size="10.00">func_80097E58</text>
</a>
</g>
</g>
<!-- Node2&#45;&gt;Node7 -->
<g id="edge6_Node000002_Node000007" class="edge">
<title>Node2&#45;&gt;Node7</title>
<g id="a_edge6_Node000002_Node000007"><a xlink:title=" ">
<path fill="none" stroke="#63b8ff" d="M238.09,-177.5C260.47,-177.5 287.63,-177.5 311.14,-177.5"/>
<polygon fill="#63b8ff" stroke="#63b8ff" points="311.32,-181 321.32,-177.5 311.32,-174 311.32,-181"/>
</a>
</g>
</g>
<!-- Node8 -->
<g id="Node000008" class="node">
<title>Node8</title>
<g id="a_Node000008"><a xlink:href="menu__items_8c.html#a6061a0dbb9b34a45fb1620c6c1d7f73c" target="_top" xlink:title=" ">
<polygon fill="white" stroke="#666666" points="413,-150 321,-150 321,-131 413,-131 413,-150"/>
<text text-anchor="middle" x="367" y="-138" font-family="Helvetica,sans-Serif" font-size="10.00">func_8009B8C4</text>
</a>
</g>
</g>
<!-- Node2&#45;&gt;Node8 -->
<g id="edge7_Node000002_Node000008" class="edge">
<title>Node2&#45;&gt;Node8</title>
<g id="a_edge7_Node000002_Node000008"><a xlink:title=" ">
<path fill="none" stroke="#63b8ff" d="M237.18,-167.97C259.76,-163.16 287.35,-157.27 311.2,-152.19"/>
<polygon fill="#63b8ff" stroke="#63b8ff" points="312.12,-155.57 321.17,-150.06 310.66,-148.72 312.12,-155.57"/>
</a>
</g>
</g>
<!-- Node2&#45;&gt;Node9 -->
<g id="edge8_Node000002_Node000009" class="edge">
<title>Node2&#45;&gt;Node9</title>
<g id="a_edge8_Node000002_Node000009"><a xlink:title=" ">
<path fill="none" stroke="#63b8ff" d="M206.92,-167.85C225.6,-155.74 259.52,-135.03 291,-122.5 297.21,-120.03 303.83,-117.8 310.47,-115.82"/>
<polygon fill="#63b8ff" stroke="#63b8ff" points="311.51,-119.17 320.18,-113.08 309.61,-112.43 311.51,-119.17"/>
</a>
</g>
</g>
<!-- Node5 -->
<g id="Node000005" class="node">
<title>Node5</title>
<g id="a_Node000005"><a xlink:href="menu__items_8c.html#aa921d52fc86ddeea7c16d5814fa2378e" target="_top" xlink:title=" ">
<polygon fill="white" stroke="#666666" points="570,-177 479,-177 479,-158 570,-158 570,-177"/>
<text text-anchor="middle" x="524.5" y="-165" font-family="Helvetica,sans-Serif" font-size="10.00">func_80095E10</text>
</a>
</g>
</g>
<!-- Node4&#45;&gt;Node5 -->
<g id="edge4_Node000004_Node000005" class="edge">
<title>Node4&#45;&gt;Node5</title>
<g id="a_edge4_Node000004_Node000005"><a xlink:title=" ">
<path fill="none" stroke="#63b8ff" d="M413.18,-244.14C423.3,-241.54 433.77,-238.09 443,-233.5 468.08,-221.04 492.3,-199.47 507.51,-184.4"/>
<polygon fill="#63b8ff" stroke="#63b8ff" points="510.08,-186.77 514.59,-177.19 505.09,-181.87 510.08,-186.77"/>
</a>
</g>
</g>
<!-- Node10&#45;&gt;Node5 -->
<g id="edge10_Node000010_Node000005" class="edge">
<title>Node10&#45;&gt;Node5</title>
<g id="a_edge10_Node000010_Node000005"><a xlink:title=" ">
<path fill="none" stroke="#63b8ff" d="M237.11,-73.93C288.88,-65.02 375.74,-56.96 443,-85.5 473.6,-98.48 498.47,-129.3 512.1,-149.24"/>
<polygon fill="#63b8ff" stroke="#63b8ff" points="509.3,-151.34 517.71,-157.78 515.15,-147.5 509.3,-151.34"/>
</a>
</g>
</g>
<!-- Node10&#45;&gt;Node8 -->
<g id="edge14_Node000010_Node000008" class="edge">
<title>Node10&#45;&gt;Node8</title>
<g id="a_edge14_Node000010_Node000008"><a xlink:title=" ">
<path fill="none" stroke="#63b8ff" d="M214.09,-93.07C233.83,-101.58 263.99,-113.96 291,-122.5 297.61,-124.59 304.6,-126.57 311.57,-128.4"/>
<polygon fill="#63b8ff" stroke="#63b8ff" points="311.14,-131.9 321.69,-130.97 312.86,-125.11 311.14,-131.9"/>
</a>
</g>
</g>
<!-- Node10&#45;&gt;Node9 -->
<g id="edge15_Node000010_Node000009" class="edge">
<title>Node10&#45;&gt;Node9</title>
<g id="a_edge15_Node000010_Node000009"><a xlink:title=" ">
<path fill="none" stroke="#63b8ff" d="M255.14,-90.72C263.44,-91.68 272.06,-92.67 280.67,-93.66"/>
<polygon fill="#63b8ff" stroke="#63b8ff" points="280.4,-97.16 290.74,-94.82 281.2,-90.2 280.4,-97.16"/>
</a>
</g>
</g>
<!-- Node11 -->
<g id="Node000011" class="node">
<title>Node11</title>
<g id="a_Node000011"><a xlink:href="menu__items_8c.html#aef2b6b221f29f2caa6f68e11b3e7df34" target="_top" xlink:title=" ">
<polygon fill="white" stroke="#666666" points="413,-37 321,-37 321,-18 413,-18 413,-37"/>
<text text-anchor="middle" x="367" y="-25" font-family="Helvetica,sans-Serif" font-size="10.00">func_800987D0</text>
</a>
</g>
</g>
<!-- Node10&#45;&gt;Node11 -->
<g id="edge11_Node000010_Node000011" class="edge">
<title>Node10&#45;&gt;Node11</title>
<g id="a_edge11_Node000010_Node000011"><a xlink:title=" ">
<path fill="none" stroke="#63b8ff" d="M221.8,-73.94C241.38,-67.57 267.73,-59 291,-51.5 302.47,-47.8 314.94,-43.8 326.35,-40.15"/>
<polygon fill="#63b8ff" stroke="#63b8ff" points="327.6,-43.43 336.06,-37.05 325.47,-36.76 327.6,-43.43"/>
</a>
</g>
</g>
<!-- Node12 -->
<g id="Node000012" class="node">
<title>Node12</title>
<g id="a_Node000012"><a xlink:href="math__util_8c.html#ae69cbf5c8d4b3b0dba2d7b4d4673689f" target="_top" xlink:title=" ">
<polygon fill="white" stroke="#666666" points="543.5,-19 505.5,-19 505.5,0 543.5,0 543.5,-19"/>
<text text-anchor="middle" x="524.5" y="-7" font-family="Helvetica,sans-Serif" font-size="10.00">coss</text>
</a>
</g>
</g>
<!-- Node11&#45;&gt;Node12 -->
<g id="edge12_Node000011_Node000012" class="edge">
<title>Node11&#45;&gt;Node12</title>
<g id="a_edge12_Node000011_Node000012"><a xlink:title=" ">
<path fill="none" stroke="#63b8ff" d="M413.4,-22.25C439.86,-19.18 472.42,-15.41 495.24,-12.77"/>
<polygon fill="#63b8ff" stroke="#63b8ff" points="495.75,-16.24 505.29,-11.61 494.95,-9.28 495.75,-16.24"/>
</a>
</g>
</g>
<!-- Node13 -->
<g id="Node000013" class="node">
<title>Node13</title>
<g id="a_Node000013"><a xlink:href="math__util_8c.html#a19ed3bd78fd2d3e2bd0a29f6caf48545" target="_top" xlink:title=" ">
<polygon fill="white" stroke="#666666" points="542.5,-56 506.5,-56 506.5,-37 542.5,-37 542.5,-56"/>
<text text-anchor="middle" x="524.5" y="-44" font-family="Helvetica,sans-Serif" font-size="10.00">sins</text>
</a>
</g>
</g>
<!-- Node11&#45;&gt;Node13 -->
<g id="edge13_Node000011_Node000013" class="edge">
<title>Node11&#45;&gt;Node13</title>
<g id="a_edge13_Node000011_Node000013"><a xlink:title=" ">
<path fill="none" stroke="#63b8ff" d="M413.4,-33.05C440.33,-36.34 473.56,-40.4 496.43,-43.19"/>
<polygon fill="#63b8ff" stroke="#63b8ff" points="496.1,-46.68 506.45,-44.42 496.95,-39.73 496.1,-46.68"/>
</a>
</g>
</g>
</g>
</svg>

<g id="navigator" transform="translate(0 0)" fill="#404254">
  <rect fill="#f2f5e9" fill-opacity="0.5" stroke="#606060" stroke-width=".5" x="0" y="0" width="60" height="60"/>
  <use id="zoomplus" xlink:href="#zoomPlus" x="17" y="9" onmousedown="handleZoom(evt,'in')"/>
  <use id="zoomminus" xlink:href="#zoomMin" x="42" y="9" onmousedown="handleZoom(evt,'out')"/>
  <use id="reset" xlink:href="#resetDef" x="30" y="36" onmousedown="handleReset()"/>
   <use id="arrowup" xlink:href="#arrowUp" x="0" y="0" onmousedown="handlePan(0,-1)"/>
  <use id="arrowright" xlink:href="#arrowRight" x="0" y="0" onmousedown="handlePan(1,0)"/>
  <use id="arrowdown" xlink:href="#arrowDown" x="0" y="0" onmousedown="handlePan(0,1)"/>
  <use id="arrowleft" xlink:href="#arrowLeft" x="0" y="0" onmousedown="handlePan(-1,0)"/>
</g>
<svg viewBox="0 0 15 15" width="100%" height="30px" preserveAspectRatio="xMaxYMin meet">
 <g id="arrow_out" transform="scale(0.3 0.3)">
  <a xlink:href="menu__items_8h_aa58a2bc84f16298e6e82303317c139d3_cgraph_org.svg" target="_base">
   <rect id="button" ry="5" rx="5" y="6" x="6" height="38" width="38"
        fill="#f2f5e9" fill-opacity="0.5" stroke="#606060" stroke-width="1.0"/>
   <path id="arrow"
     d="M 11.500037,31.436501 C 11.940474,20.09759 22.043105,11.32322 32.158766,21.979434 L 37.068811,17.246167 C 37.068811,17.246167 37.088388,32 37.088388,32 L 22.160133,31.978069 C 22.160133,31.978069 26.997745,27.140456 26.997745,27.140456 C 18.528582,18.264221 13.291696,25.230495 11.500037,31.436501 z"
     style="fill:#404040;"/>
  </a>
 </g>
</svg>

<style type='text/css'>
<![CDATA[
[data-mouse-over-selected='false'] { opacity: 0.7; }
[data-mouse-over-selected='true']  { opacity: 1.0; }
]]>
</style>
<script type="application/ecmascript"><![CDATA[
document.addEventListener('DOMContentLoaded', (event) => {
  highlightEdges();
  highlightAdjacentNodes();
});
]]></script>
</svg>
