<?xml version="1.0" encoding="UTF-8" standalone="no"?>
<!DOCTYPE svg PUBLIC "-//W3C//DTD SVG 1.1//EN"
 "http://www.w3.org/Graphics/SVG/1.1/DTD/svg11.dtd">
<!-- Generated by graphviz version 2.43.0 (0)
 -->
<!-- Title: render_cursor_player Pages: 1 -->
<svg width="552pt" height="138pt"
 viewBox="0.00 0.00 552.00 138.00" xmlns="http://www.w3.org/2000/svg" xmlns:xlink="http://www.w3.org/1999/xlink">
<g id="graph0" class="graph" transform="scale(1 1) rotate(0) translate(4 134)">
<title>render_cursor_player</title>
<!-- Node1 -->
<g id="Node000001" class="node">
<title>Node1</title>
<g id="a_Node000001"><a xlink:title=" ">
<polygon fill="#999999" stroke="#666666" points="119,-38 0,-38 0,-19 119,-19 119,-38"/>
<text text-anchor="middle" x="59.5" y="-26" font-family="Helvetica,sans-Serif" font-size="10.00">render_cursor_player</text>
</a>
</g>
</g>
<!-- Node2 -->
<g id="Node000002" class="node">
<title>Node2</title>
<g id="a_Node000002"><a xlink:href="menu__items_8c.html#a6ae9a7914726211a0149ff3ff8c2d70d" target="_top" xlink:title=" ">
<polygon fill="white" stroke="#666666" points="282,-57 155,-57 155,-38 282,-38 282,-57"/>
<text text-anchor="middle" x="218.5" y="-45" font-family="Helvetica,sans-Serif" font-size="10.00">render_menu_textures</text>
</a>
</g>
</g>
<!-- Node1&#45;&gt;Node2 -->
<g id="edge1_Node000001_Node000002" class="edge">
<title>Node1&#45;&gt;Node2</title>
<g id="a_edge1_Node000001_Node000002"><a xlink:title=" ">
<path fill="none" stroke="#63b8ff" d="M119.41,-35.63C127.73,-36.64 136.36,-37.68 144.89,-38.71"/>
<polygon fill="#63b8ff" stroke="#63b8ff" points="144.5,-42.19 154.85,-39.92 145.34,-35.24 144.5,-42.19"/>
</a>
</g>
</g>
<!-- Node8 -->
<g id="Node000008" class="node">
<title>Node8</title>
<g id="a_Node000008"><a xlink:href="menu__items_8c.html#a2d2758c3a87de891a40840727bef3306" target="_top" xlink:title=" ">
<polygon fill="white" stroke="#666666" points="470,-19 318,-19 318,0 470,0 470,-19"/>
<text text-anchor="middle" x="394" y="-7" font-family="Helvetica,sans-Serif" font-size="10.00">segmented_to_virtual_dupe</text>
</a>
</g>
</g>
<!-- Node1&#45;&gt;Node8 -->
<g id="edge8_Node000001_Node000008" class="edge">
<title>Node1&#45;&gt;Node8</title>
<g id="a_edge8_Node000001_Node000008"><a xlink:title=" ">
<path fill="none" stroke="#63b8ff" d="M119.18,-25.15C171.52,-22.16 248.8,-17.74 307.92,-14.36"/>
<polygon fill="#63b8ff" stroke="#63b8ff" points="308.21,-17.85 317.99,-13.79 307.81,-10.86 308.21,-17.85"/>
</a>
</g>
</g>
<!-- Node3 -->
<g id="Node000003" class="node">
<title>Node3</title>
<g id="a_Node000003"><a xlink:href="menu__items_8c.html#aa921d52fc86ddeea7c16d5814fa2378e" target="_top" xlink:title=" ">
<polygon fill="white" stroke="#666666" points="439.5,-130 348.5,-130 348.5,-111 439.5,-111 439.5,-130"/>
<text text-anchor="middle" x="394" y="-118" font-family="Helvetica,sans-Serif" font-size="10.00">func_80095E10</text>
</a>
</g>
</g>
<!-- Node2&#45;&gt;Node3 -->
<g id="edge2_Node000002_Node000003" class="edge">
<title>Node2&#45;&gt;Node3</title>
<g id="a_edge2_Node000002_Node000003"><a xlink:title=" ">
<path fill="none" stroke="#63b8ff" d="M233.9,-57.21C252.55,-69.39 286.44,-90.17 318,-102.5 324.45,-105.02 331.36,-107.26 338.28,-109.22"/>
<polygon fill="#63b8ff" stroke="#63b8ff" points="337.8,-112.72 348.36,-111.91 339.6,-105.95 337.8,-112.72"/>
</a>
</g>
</g>
<!-- Node4 -->
<g id="Node000004" class="node">
<title>Node4</title>
<g id="a_Node000004"><a xlink:href="menu__items_8c.html#aef2b6b221f29f2caa6f68e11b3e7df34" target="_top" xlink:title=" ">
<polygon fill="white" stroke="#666666" points="440,-93 348,-93 348,-74 440,-74 440,-93"/>
<text text-anchor="middle" x="394" y="-81" font-family="Helvetica,sans-Serif" font-size="10.00">func_800987D0</text>
</a>
</g>
</g>
<!-- Node2&#45;&gt;Node4 -->
<g id="edge3_Node000002_Node000004" class="edge">
<title>Node2&#45;&gt;Node4</title>
<g id="a_edge3_Node000002_Node000004"><a xlink:title=" ">
<path fill="none" stroke="#63b8ff" d="M265.54,-57.05C287.75,-61.66 314.57,-67.23 337.86,-72.06"/>
<polygon fill="#63b8ff" stroke="#63b8ff" points="337.44,-75.55 347.95,-74.15 338.87,-68.69 337.44,-75.55"/>
</a>
</g>
</g>
<!-- Node7 -->
<g id="Node000007" class="node">
<title>Node7</title>
<g id="a_Node000007"><a xlink:href="menu__items_8c.html#a6061a0dbb9b34a45fb1620c6c1d7f73c" target="_top" xlink:title=" ">
<polygon fill="white" stroke="#666666" points="440,-56 348,-56 348,-37 440,-37 440,-56"/>
<text text-anchor="middle" x="394" y="-44" font-family="Helvetica,sans-Serif" font-size="10.00">func_8009B8C4</text>
</a>
</g>
</g>
<!-- Node2&#45;&gt;Node7 -->
<g id="edge6_Node000002_Node000007" class="edge">
<title>Node2&#45;&gt;Node7</title>
<g id="a_edge6_Node000002_Node000007"><a xlink:title=" ">
<path fill="none" stroke="#63b8ff" d="M282.14,-47.14C300.31,-47.03 320.02,-46.92 337.71,-46.82"/>
<polygon fill="#63b8ff" stroke="#63b8ff" points="337.89,-50.32 347.87,-46.76 337.85,-43.32 337.89,-50.32"/>
</a>
</g>
</g>
<!-- Node2&#45;&gt;Node8 -->
<g id="edge7_Node000002_Node000008" class="edge">
<title>Node2&#45;&gt;Node8</title>
<g id="a_edge7_Node000002_Node000008"><a xlink:title=" ">
<path fill="none" stroke="#63b8ff" d="M263.28,-37.91C286.49,-32.83 315.18,-26.54 339.67,-21.18"/>
<polygon fill="#63b8ff" stroke="#63b8ff" points="340.51,-24.58 349.53,-19.02 339.02,-17.74 340.51,-24.58"/>
</a>
</g>
</g>
<!-- Node5 -->
<g id="Node000005" class="node">
<title>Node5</title>
<g id="a_Node000005"><a xlink:href="math__util_8c.html#ae69cbf5c8d4b3b0dba2d7b4d4673689f" target="_top" xlink:title=" ">
<polygon fill="white" stroke="#666666" points="544,-111 506,-111 506,-92 544,-92 544,-111"/>
<text text-anchor="middle" x="525" y="-99" font-family="Helvetica,sans-Serif" font-size="10.00">coss</text>
</a>
</g>
</g>
<!-- Node4&#45;&gt;Node5 -->
<g id="edge4_Node000004_Node000005" class="edge">
<title>Node4&#45;&gt;Node5</title>
<g id="a_edge4_Node000004_Node000005"><a xlink:title=" ">
<path fill="none" stroke="#63b8ff" d="M440.12,-89.8C458.71,-92.39 479.68,-95.32 496,-97.59"/>
<polygon fill="#63b8ff" stroke="#63b8ff" points="495.59,-101.07 505.98,-98.99 496.56,-94.14 495.59,-101.07"/>
</a>
</g>
</g>
<!-- Node6 -->
<g id="Node000006" class="node">
<title>Node6</title>
<g id="a_Node000006"><a xlink:href="math__util_8c.html#a19ed3bd78fd2d3e2bd0a29f6caf48545" target="_top" xlink:title=" ">
<polygon fill="white" stroke="#666666" points="543,-74 507,-74 507,-55 543,-55 543,-74"/>
<text text-anchor="middle" x="525" y="-62" font-family="Helvetica,sans-Serif" font-size="10.00">sins</text>
</a>
</g>
</g>
<!-- Node4&#45;&gt;Node6 -->
<g id="edge5_Node000004_Node000006" class="edge">
<title>Node4&#45;&gt;Node6</title>
<g id="a_edge5_Node000004_Node000006"><a xlink:title=" ">
<path fill="none" stroke="#63b8ff" d="M440.12,-76.85C459.07,-74.06 480.49,-70.91 496.93,-68.49"/>
<polygon fill="#63b8ff" stroke="#63b8ff" points="497.57,-71.93 506.95,-67.01 496.55,-65.01 497.57,-71.93"/>
</a>
</g>
</g>
</g>
</svg>
