<?xml version="1.0" encoding="UTF-8" standalone="no"?>
<!DOCTYPE svg PUBLIC "-//W3C//DTD SVG 1.1//EN"
 "http://www.w3.org/Graphics/SVG/1.1/DTD/svg11.dtd">
<!-- Generated by graphviz version 2.43.0 (0)
 -->
<!-- Title: func_8009DAA8 Pages: 1 -->
<svg width="608pt" height="286pt"
 viewBox="0.00 0.00 608.00 286.00" xmlns="http://www.w3.org/2000/svg" xmlns:xlink="http://www.w3.org/1999/xlink">
<g id="graph0" class="graph" transform="scale(1 1) rotate(0) translate(4 282)">
<title>func_8009DAA8</title>
<!-- Node1 -->
<g id="Node000001" class="node">
<title>Node1</title>
<g id="a_Node000001"><a xlink:title=" ">
<polygon fill="#999999" stroke="#666666" points="94,-166 0,-166 0,-147 94,-147 94,-166"/>
<text text-anchor="middle" x="47" y="-154" font-family="Helvetica,sans-Serif" font-size="10.00">func_8009DAA8</text>
</a>
</g>
</g>
<!-- Node2 -->
<g id="Node000002" class="node">
<title>Node2</title>
<g id="a_Node000002"><a xlink:href="menu__items_8c.html#a4a3e73dfeae9dc0d77f213e77791181c" target="_top" xlink:title=" ">
<polygon fill="white" stroke="#666666" points="208,-231 144,-231 144,-212 208,-212 208,-231"/>
<text text-anchor="middle" x="176" y="-219" font-family="Helvetica,sans-Serif" font-size="10.00">draw_box</text>
</a>
</g>
</g>
<!-- Node1&#45;&gt;Node2 -->
<g id="edge1_Node000001_Node000002" class="edge">
<title>Node1&#45;&gt;Node2</title>
<g id="a_edge1_Node000001_Node000002"><a xlink:title=" ">
<path fill="none" stroke="#63b8ff" d="M66.74,-166.09C87.94,-176.94 122.67,-194.72 147.07,-207.21"/>
<polygon fill="#63b8ff" stroke="#63b8ff" points="145.69,-210.43 156.18,-211.87 148.88,-204.2 145.69,-210.43"/>
</a>
</g>
</g>
<!-- Node4 -->
<g id="Node000004" class="node">
<title>Node4</title>
<g id="a_Node000004"><a xlink:href="menu__items_8c.html#a56cfa922219f124d2b12c0f0f7e3cd9f" target="_top" xlink:title=" ">
<polygon fill="white" stroke="#666666" points="222,-148 130,-148 130,-129 222,-129 222,-148"/>
<text text-anchor="middle" x="176" y="-136" font-family="Helvetica,sans-Serif" font-size="10.00">func_8009CE64</text>
</a>
</g>
</g>
<!-- Node1&#45;&gt;Node4 -->
<g id="edge3_Node000001_Node000004" class="edge">
<title>Node1&#45;&gt;Node4</title>
<g id="a_edge3_Node000001_Node000004"><a xlink:title=" ">
<path fill="none" stroke="#63b8ff" d="M94.21,-149.95C102.57,-148.77 111.36,-147.52 119.95,-146.3"/>
<polygon fill="#63b8ff" stroke="#63b8ff" points="120.48,-149.76 129.89,-144.89 119.49,-142.83 120.48,-149.76"/>
</a>
</g>
</g>
<!-- Node3 -->
<g id="Node000003" class="node">
<title>Node3</title>
<g id="a_Node000003"><a xlink:href="menu__items_8c.html#a2341569d8bfc9b8aac7d5dab7933c999" target="_top" xlink:title=" ">
<polygon fill="white" stroke="#666666" points="348.5,-278 268.5,-278 268.5,-259 348.5,-259 348.5,-278"/>
<text text-anchor="middle" x="308.5" y="-266" font-family="Helvetica,sans-Serif" font-size="10.00">swap_values</text>
</a>
</g>
</g>
<!-- Node2&#45;&gt;Node3 -->
<g id="edge2_Node000002_Node000003" class="edge">
<title>Node2&#45;&gt;Node3</title>
<g id="a_edge2_Node000002_Node000003"><a xlink:title=" ">
<path fill="none" stroke="#63b8ff" d="M203.41,-231.01C222.91,-238.04 249.7,-247.68 271.21,-255.43"/>
<polygon fill="#63b8ff" stroke="#63b8ff" points="270.09,-258.75 280.68,-258.84 272.46,-252.16 270.09,-258.75"/>
</a>
</g>
</g>
<!-- Node5 -->
<g id="Node000005" class="node">
<title>Node5</title>
<g id="a_Node000005"><a xlink:href="menu__items_8c.html#a1afef788f26591e1ca9153ab8f9559db" target="_top" xlink:title=" ">
<polygon fill="white" stroke="#666666" points="359,-241 258,-241 258,-222 359,-222 359,-241"/>
<text text-anchor="middle" x="308.5" y="-229" font-family="Helvetica,sans-Serif" font-size="10.00">find_menu_items</text>
</a>
</g>
</g>
<!-- Node4&#45;&gt;Node5 -->
<g id="edge4_Node000004_Node000005" class="edge">
<title>Node4&#45;&gt;Node5</title>
<g id="a_edge4_Node000004_Node000005"><a xlink:title=" ">
<path fill="none" stroke="#63b8ff" d="M185.03,-148.09C198.6,-163.75 227.57,-194.93 258,-213.5 260.61,-215.09 263.38,-216.57 266.23,-217.95"/>
<polygon fill="#63b8ff" stroke="#63b8ff" points="264.91,-221.19 275.47,-221.98 267.7,-214.78 264.91,-221.19"/>
</a>
</g>
</g>
<!-- Node6 -->
<g id="Node000006" class="node">
<title>Node6</title>
<g id="a_Node000006"><a xlink:href="cpu__vehicles__camera__path_8c.html#a7fc44af1268e58cc195aeab08726c3cd" target="_top" xlink:title=" ">
<polygon fill="white" stroke="#666666" points="354,-204 263,-204 263,-185 354,-185 354,-204"/>
<text text-anchor="middle" x="308.5" y="-192" font-family="Helvetica,sans-Serif" font-size="10.00">func_8000F124</text>
</a>
</g>
</g>
<!-- Node4&#45;&gt;Node6 -->
<g id="edge5_Node000004_Node000006" class="edge">
<title>Node4&#45;&gt;Node6</title>
<g id="a_edge5_Node000004_Node000006"><a xlink:title=" ">
<path fill="none" stroke="#63b8ff" d="M197.15,-148.13C213.45,-155.81 237.05,-166.7 258,-175.5 262.54,-177.4 267.33,-179.34 272.09,-181.21"/>
<polygon fill="#63b8ff" stroke="#63b8ff" points="271.1,-184.58 281.69,-184.94 273.63,-178.06 271.1,-184.58"/>
</a>
</g>
</g>
<!-- Node9 -->
<g id="Node000009" class="node">
<title>Node9</title>
<g id="a_Node000009"><a xlink:href="menu__items_8c.html#a5a8e55be1315ed840571d9a15fb3d25d" target="_top" xlink:title=" ">
<polygon fill="white" stroke="#666666" points="354.5,-167 262.5,-167 262.5,-148 354.5,-148 354.5,-167"/>
<text text-anchor="middle" x="308.5" y="-155" font-family="Helvetica,sans-Serif" font-size="10.00">func_8009CE1C</text>
</a>
</g>
</g>
<!-- Node4&#45;&gt;Node9 -->
<g id="edge8_Node000004_Node000009" class="edge">
<title>Node4&#45;&gt;Node9</title>
<g id="a_edge8_Node000004_Node000009"><a xlink:title=" ">
<path fill="none" stroke="#63b8ff" d="M222.28,-145.09C231.99,-146.51 242.37,-148.02 252.41,-149.48"/>
<polygon fill="#63b8ff" stroke="#63b8ff" points="251.9,-152.94 262.3,-150.92 252.91,-146.02 251.9,-152.94"/>
</a>
</g>
</g>
<!-- Node11 -->
<g id="Node000011" class="node">
<title>Node11</title>
<g id="a_Node000011"><a xlink:href="race__logic_8c.html#a53decb718a29b1c4910cf1f5bada018f" target="_top" xlink:title=" ">
<polygon fill="white" stroke="#666666" points="354,-130 263,-130 263,-111 354,-111 354,-130"/>
<text text-anchor="middle" x="308.5" y="-118" font-family="Helvetica,sans-Serif" font-size="10.00">func_80290338</text>
</a>
</g>
</g>
<!-- Node4&#45;&gt;Node11 -->
<g id="edge10_Node000004_Node000011" class="edge">
<title>Node4&#45;&gt;Node11</title>
<g id="a_edge10_Node000004_Node000011"><a xlink:title=" ">
<path fill="none" stroke="#63b8ff" d="M222.28,-132.25C232.1,-130.9 242.6,-129.45 252.75,-128.05"/>
<polygon fill="#63b8ff" stroke="#63b8ff" points="253.32,-131.51 262.74,-126.67 252.36,-124.57 253.32,-131.51"/>
</a>
</g>
</g>
<!-- Node12 -->
<g id="Node000012" class="node">
<title>Node12</title>
<g id="a_Node000012"><a xlink:href="race__logic_8c.html#a356c21937c0221ceae8f34442bb2e820" target="_top" xlink:title=" ">
<polygon fill="white" stroke="#666666" points="354,-93 263,-93 263,-74 354,-74 354,-93"/>
<text text-anchor="middle" x="308.5" y="-81" font-family="Helvetica,sans-Serif" font-size="10.00">func_80290360</text>
</a>
</g>
</g>
<!-- Node4&#45;&gt;Node12 -->
<g id="edge11_Node000004_Node000012" class="edge">
<title>Node4&#45;&gt;Node12</title>
<g id="a_edge11_Node000004_Node000012"><a xlink:title=" ">
<path fill="none" stroke="#63b8ff" d="M196.78,-128.93C213.06,-121.18 236.83,-110.17 258,-101.5 262,-99.86 266.21,-98.22 270.41,-96.62"/>
<polygon fill="#63b8ff" stroke="#63b8ff" points="271.96,-99.78 280.12,-93.02 269.52,-93.22 271.96,-99.78"/>
</a>
</g>
</g>
<!-- Node13 -->
<g id="Node000013" class="node">
<title>Node13</title>
<g id="a_Node000013"><a xlink:href="race__logic_8c.html#ab653b6e6bb04ca0f7995cb58cbeba9af" target="_top" xlink:title=" ">
<polygon fill="white" stroke="#666666" points="354,-56 263,-56 263,-37 354,-37 354,-56"/>
<text text-anchor="middle" x="308.5" y="-44" font-family="Helvetica,sans-Serif" font-size="10.00">func_80290388</text>
</a>
</g>
</g>
<!-- Node4&#45;&gt;Node13 -->
<g id="edge12_Node000004_Node000013" class="edge">
<title>Node4&#45;&gt;Node13</title>
<g id="a_edge12_Node000004_Node000013"><a xlink:title=" ">
<path fill="none" stroke="#63b8ff" d="M185.5,-128.54C199.29,-112.94 228.02,-82.65 258,-64.5 260.61,-62.92 263.39,-61.44 266.24,-60.07"/>
<polygon fill="#63b8ff" stroke="#63b8ff" points="267.71,-63.25 275.49,-56.05 264.92,-56.83 267.71,-63.25"/>
</a>
</g>
</g>
<!-- Node14 -->
<g id="Node000014" class="node">
<title>Node14</title>
<g id="a_Node000014"><a xlink:href="race__logic_8c.html#af98d49ae0af39ccd86b3a2c269969d3c" target="_top" xlink:title=" ">
<polygon fill="white" stroke="#666666" points="354.5,-19 262.5,-19 262.5,0 354.5,0 354.5,-19"/>
<text text-anchor="middle" x="308.5" y="-7" font-family="Helvetica,sans-Serif" font-size="10.00">func_802903B0</text>
</a>
</g>
</g>
<!-- Node4&#45;&gt;Node14 -->
<g id="edge13_Node000004_Node000014" class="edge">
<title>Node4&#45;&gt;Node14</title>
<g id="a_edge13_Node000004_Node000014"><a xlink:title=" ">
<path fill="none" stroke="#63b8ff" d="M181.61,-128.68C192.16,-107.28 220.05,-56.03 258,-27.5 259.81,-26.14 261.74,-24.87 263.73,-23.69"/>
<polygon fill="#63b8ff" stroke="#63b8ff" points="265.51,-26.72 272.85,-19.09 262.35,-20.47 265.51,-26.72"/>
</a>
</g>
</g>
<!-- Node7 -->
<g id="Node000007" class="node">
<title>Node7</title>
<g id="a_Node000007"><a xlink:href="math__util_8c.html#a151b63b8adf9af7e4054b3b84bd226dc" target="_top" xlink:title=" ">
<polygon fill="white" stroke="#666666" points="477,-204 405,-204 405,-185 477,-185 477,-204"/>
<text text-anchor="middle" x="441" y="-192" font-family="Helvetica,sans-Serif" font-size="10.00">random_int</text>
</a>
</g>
</g>
<!-- Node6&#45;&gt;Node7 -->
<g id="edge6_Node000006_Node000007" class="edge">
<title>Node6&#45;&gt;Node7</title>
<g id="a_edge6_Node000006_Node000007"><a xlink:title=" ">
<path fill="none" stroke="#63b8ff" d="M354.05,-194.5C367.1,-194.5 381.38,-194.5 394.49,-194.5"/>
<polygon fill="#63b8ff" stroke="#63b8ff" points="394.71,-198 404.71,-194.5 394.71,-191 394.71,-198"/>
</a>
</g>
</g>
<!-- Node8 -->
<g id="Node000008" class="node">
<title>Node8</title>
<g id="a_Node000008"><a xlink:href="math__util_8c.html#a062850863585005ad1d0a75d9ff70693" target="_top" xlink:title=" ">
<polygon fill="white" stroke="#666666" points="600,-204 523,-204 523,-185 600,-185 600,-204"/>
<text text-anchor="middle" x="561.5" y="-192" font-family="Helvetica,sans-Serif" font-size="10.00">random_u16</text>
</a>
</g>
</g>
<!-- Node7&#45;&gt;Node8 -->
<g id="edge7_Node000007_Node000008" class="edge">
<title>Node7&#45;&gt;Node8</title>
<g id="a_edge7_Node000007_Node000008"><a xlink:title=" ">
<path fill="none" stroke="#63b8ff" d="M477.23,-194.5C488.31,-194.5 500.74,-194.5 512.55,-194.5"/>
<polygon fill="#63b8ff" stroke="#63b8ff" points="512.72,-198 522.72,-194.5 512.72,-191 512.72,-198"/>
</a>
</g>
</g>
<!-- Node10 -->
<g id="Node000010" class="node">
<title>Node10</title>
<g id="a_Node000010"><a xlink:href="external_8c.html#ac48b7cbfcaa7737f892877ead85e4ba7" target="_top" xlink:title=" ">
<polygon fill="white" stroke="#666666" points="487,-167 395,-167 395,-148 487,-148 487,-167"/>
<text text-anchor="middle" x="441" y="-155" font-family="Helvetica,sans-Serif" font-size="10.00">func_800C3448</text>
</a>
</g>
</g>
<!-- Node9&#45;&gt;Node10 -->
<g id="edge9_Node000009_Node000010" class="edge">
<title>Node9&#45;&gt;Node10</title>
<g id="a_edge9_Node000009_Node000010"><a xlink:title=" ">
<path fill="none" stroke="#63b8ff" d="M354.78,-157.5C364.39,-157.5 374.65,-157.5 384.59,-157.5"/>
<polygon fill="#63b8ff" stroke="#63b8ff" points="384.8,-161 394.8,-157.5 384.8,-154 384.8,-161"/>
</a>
</g>
</g>
</g>
</svg>
