<?xml version="1.0" encoding="UTF-8" standalone="no"?>
<!DOCTYPE svg PUBLIC "-//W3C//DTD SVG 1.1//EN"
 "http://www.w3.org/Graphics/SVG/1.1/DTD/svg11.dtd">
<!-- Generated by graphviz version 2.43.0 (0)
 -->
<!-- Title: func_800A9C40 Pages: 1 -->
<svg width="485pt" height="64pt"
 viewBox="0.00 0.00 485.00 64.00" xmlns="http://www.w3.org/2000/svg" xmlns:xlink="http://www.w3.org/1999/xlink">
<g id="graph0" class="graph" transform="scale(1 1) rotate(0) translate(4 60)">
<title>func_800A9C40</title>
<!-- Node1 -->
<g id="Node000001" class="node">
<title>Node1</title>
<g id="a_Node000001"><a xlink:title=" ">
<polygon fill="#999999" stroke="#666666" points="92,-37 0,-37 0,-18 92,-18 92,-37"/>
<text text-anchor="middle" x="46" y="-25" font-family="Helvetica,sans-Serif" font-size="10.00">func_800A9C40</text>
</a>
</g>
</g>
<!-- Node2 -->
<g id="Node000002" class="node">
<title>Node2</title>
<g id="a_Node000002"><a xlink:href="menu__items_8c.html#a03041e2974bd7ffc1c8a5d4507a02206" target="_top" xlink:title=" ">
<polygon fill="white" stroke="#666666" points="220,-37 128,-37 128,-18 220,-18 220,-37"/>
<text text-anchor="middle" x="174" y="-25" font-family="Helvetica,sans-Serif" font-size="10.00">func_800AA280</text>
</a>
</g>
</g>
<!-- Node1&#45;&gt;Node2 -->
<g id="edge1_Node000001_Node000002" class="edge">
<title>Node1&#45;&gt;Node2</title>
<g id="a_edge1_Node000001_Node000002"><a xlink:title=" ">
<path fill="none" stroke="#63b8ff" d="M92.13,-27.5C100.37,-27.5 109.04,-27.5 117.53,-27.5"/>
<polygon fill="#63b8ff" stroke="#63b8ff" points="117.76,-31 127.76,-27.5 117.76,-24 117.76,-31"/>
</a>
</g>
</g>
<!-- Node3 -->
<g id="Node000003" class="node">
<title>Node3</title>
<g id="a_Node000003"><a xlink:href="menu__items_8c.html#ac58f1009296965d259eae02974de7847" target="_top" xlink:title=" ">
<polygon fill="white" stroke="#666666" points="349,-37 256,-37 256,-18 349,-18 349,-37"/>
<text text-anchor="middle" x="302.5" y="-25" font-family="Helvetica,sans-Serif" font-size="10.00">func_800A91D8</text>
</a>
</g>
</g>
<!-- Node2&#45;&gt;Node3 -->
<g id="edge2_Node000002_Node000003" class="edge">
<title>Node2&#45;&gt;Node3</title>
<g id="a_edge2_Node000002_Node000003"><a xlink:title=" ">
<path fill="none" stroke="#63b8ff" d="M220.31,-27.5C228.48,-27.5 237.08,-27.5 245.5,-27.5"/>
<polygon fill="#63b8ff" stroke="#63b8ff" points="245.65,-31 255.65,-27.5 245.65,-24 245.65,-31"/>
</a>
</g>
</g>
<!-- Node4 -->
<g id="Node000004" class="node">
<title>Node4</title>
<g id="a_Node000004"><a xlink:href="menu__items_8c.html#adaf4d2d24f8094227838991b96ef825b" target="_top" xlink:title=" ">
<polygon fill="white" stroke="#666666" points="477,-56 385,-56 385,-37 477,-37 477,-56"/>
<text text-anchor="middle" x="431" y="-44" font-family="Helvetica,sans-Serif" font-size="10.00">func_800A9208</text>
</a>
</g>
</g>
<!-- Node3&#45;&gt;Node4 -->
<g id="edge3_Node000003_Node000004" class="edge">
<title>Node3&#45;&gt;Node4</title>
<g id="a_edge3_Node000003_Node000004"><a xlink:title=" ">
<path fill="none" stroke="#63b8ff" d="M349.17,-34.36C357.51,-35.61 366.3,-36.93 374.88,-38.22"/>
<polygon fill="#63b8ff" stroke="#63b8ff" points="374.41,-41.69 384.82,-39.71 375.45,-34.77 374.41,-41.69"/>
</a>
</g>
</g>
<!-- Node5 -->
<g id="Node000005" class="node">
<title>Node5</title>
<g id="a_Node000005"><a xlink:href="menu__items_8c.html#ac302f3e4d8503371ba21355408a9a782" target="_top" xlink:title=" ">
<polygon fill="white" stroke="#666666" points="477,-19 385,-19 385,0 477,0 477,-19"/>
<text text-anchor="middle" x="431" y="-7" font-family="Helvetica,sans-Serif" font-size="10.00">func_800A9278</text>
</a>
</g>
</g>
<!-- Node3&#45;&gt;Node5 -->
<g id="edge4_Node000003_Node000005" class="edge">
<title>Node3&#45;&gt;Node5</title>
<g id="a_edge4_Node000003_Node000005"><a xlink:title=" ">
<path fill="none" stroke="#63b8ff" d="M349.17,-21C357.51,-19.81 366.3,-18.56 374.88,-17.34"/>
<polygon fill="#63b8ff" stroke="#63b8ff" points="375.41,-20.8 384.82,-15.93 374.43,-13.87 375.41,-20.8"/>
</a>
</g>
</g>
</g>
</svg>
