<?xml version="1.0" encoding="UTF-8" standalone="no"?>
<!DOCTYPE svg PUBLIC "-//W3C//DTD SVG 1.1//EN"
 "http://www.w3.org/Graphics/SVG/1.1/DTD/svg11.dtd">
<!-- Generated by graphviz version 2.43.0 (0)
 -->
<!-- Title: func_80094A64 Pages: 1 -->
<svg width="986pt" height="1081pt"
 viewBox="0.00 0.00 986.00 1080.70" xmlns="http://www.w3.org/2000/svg" xmlns:xlink="http://www.w3.org/1999/xlink">
<g id="graph0" class="graph" transform="scale(1 1) rotate(0) translate(4 1076.7)">
<title>func_80094A64</title>
<!-- Node1 -->
<g id="Node000001" class="node">
<title>Node1</title>
<g id="a_Node000001"><a xlink:title=" ">
<polygon fill="#999999" stroke="#666666" points="92,-751 0,-751 0,-732 92,-732 92,-751"/>
<text text-anchor="middle" x="46" y="-739" font-family="Helvetica,sans-Serif" font-size="10.00">func_80094A64</text>
</a>
</g>
</g>
<!-- Node2 -->
<g id="Node000002" class="node">
<title>Node2</title>
<g id="a_Node000002"><a xlink:href="menu__items_8c.html#ab804a61cd6e485851b3611d6f9b03bb3" target="_top" xlink:title=" ">
<polygon fill="white" stroke="#666666" points="220,-489 129,-489 129,-470 220,-470 220,-489"/>
<text text-anchor="middle" x="174.5" y="-477" font-family="Helvetica,sans-Serif" font-size="10.00">func_80092290</text>
</a>
</g>
</g>
<!-- Node1&#45;&gt;Node2 -->
<g id="edge1_Node000001_Node000002" class="edge">
<title>Node1&#45;&gt;Node2</title>
<g id="a_edge1_Node000001_Node000002"><a xlink:title=" ">
<path fill="none" stroke="#63b8ff" d="M48.69,-731.78C54.73,-699.12 77.61,-591.33 128,-518.5 134.06,-509.74 142.56,-501.74 150.57,-495.31"/>
<polygon fill="#63b8ff" stroke="#63b8ff" points="152.77,-498.03 158.62,-489.19 148.54,-492.45 152.77,-498.03"/>
</a>
</g>
</g>
<!-- Node4 -->
<g id="Node000004" class="node">
<title>Node4</title>
<g id="a_Node000004"><a xlink:href="menu__items_8c.html#a1f74ad8bb5f44589378d6c7d91ed55e6" target="_top" xlink:title=" ">
<polygon fill="white" stroke="#666666" points="220,-966 129,-966 129,-947 220,-947 220,-966"/>
<text text-anchor="middle" x="174.5" y="-954" font-family="Helvetica,sans-Serif" font-size="10.00">func_80093E40</text>
</a>
</g>
</g>
<!-- Node1&#45;&gt;Node4 -->
<g id="edge3_Node000001_Node000004" class="edge">
<title>Node1&#45;&gt;Node4</title>
<g id="a_edge3_Node000001_Node000004"><a xlink:title=" ">
<path fill="none" stroke="#63b8ff" d="M50.37,-751.26C59.92,-778.18 89.04,-855.16 128,-910.5 135.53,-921.19 145.61,-931.67 154.38,-939.91"/>
<polygon fill="#63b8ff" stroke="#63b8ff" points="152.19,-942.66 161.94,-946.81 156.9,-937.48 152.19,-942.66"/>
</a>
</g>
</g>
<!-- Node46 -->
<g id="Node000046" class="node">
<title>Node46</title>
<g id="a_Node000046"><a xlink:href="guOrthoF_8c.html#ad7ee72136daaabbf7bfa2c6a5d791db1" target="_top" xlink:title=" ">
<polygon fill="white" stroke="#666666" points="707.5,-1050 651.5,-1050 651.5,-1031 707.5,-1031 707.5,-1050"/>
<text text-anchor="middle" x="679.5" y="-1038" font-family="Helvetica,sans-Serif" font-size="10.00">guOrtho</text>
</a>
</g>
</g>
<!-- Node1&#45;&gt;Node46 -->
<g id="edge44_Node000001_Node000046" class="edge">
<title>Node1&#45;&gt;Node46</title>
<g id="a_edge44_Node000001_Node000046"><a xlink:title=" ">
<path fill="none" stroke="#63b8ff" d="M47.33,-751.18C49.06,-786.68 59.96,-911.05 128,-975.5 272.57,-1112.46 543.1,-1070.48 641.51,-1049.35"/>
<polygon fill="#63b8ff" stroke="#63b8ff" points="642.28,-1052.76 651.29,-1047.19 640.78,-1045.93 642.28,-1052.76"/>
</a>
</g>
</g>
<!-- Node422 -->
<g id="Node000422" class="node">
<title>Node422</title>
<g id="a_Node000422"><a xlink:href="menu__items_8c.html#a01003958fcc81831bd82f619ae874ac1" target="_top" xlink:title=" ">
<polygon fill="white" stroke="#666666" points="220,-770 129,-770 129,-751 220,-751 220,-770"/>
<text text-anchor="middle" x="174.5" y="-758" font-family="Helvetica,sans-Serif" font-size="10.00">func_80095574</text>
</a>
</g>
</g>
<!-- Node1&#45;&gt;Node422 -->
<g id="edge15_Node000001_Node000422" class="edge">
<title>Node1&#45;&gt;Node422</title>
<g id="a_edge15_Node000001_Node000422"><a xlink:title=" ">
<path fill="none" stroke="#63b8ff" d="M92.31,-748.31C100.97,-749.61 110.11,-750.98 119.01,-752.32"/>
<polygon fill="#63b8ff" stroke="#63b8ff" points="118.52,-755.78 128.93,-753.81 119.56,-748.86 118.52,-755.78"/>
</a>
</g>
</g>
<!-- Node429 -->
<g id="Node000429" class="node">
<title>Node429</title>
<g id="a_Node000429"><a xlink:href="menu__items_8c.html#a1e3ad283dd2f5c1852b442746a11649c" target="_top" xlink:title=" ">
<polygon fill="white" stroke="#666666" points="385,-918 257,-918 257,-899 385,-899 385,-918"/>
<text text-anchor="middle" x="321" y="-906" font-family="Helvetica,sans-Serif" font-size="10.00">handle_menus_default</text>
</a>
</g>
</g>
<!-- Node1&#45;&gt;Node429 -->
<g id="edge45_Node000001_Node000429" class="edge">
<title>Node1&#45;&gt;Node429</title>
<g id="a_edge45_Node000001_Node000429"><a xlink:title=" ">
<path fill="none" stroke="#63b8ff" d="M57.54,-751.01C86.94,-777.04 173.18,-850.25 257,-890.5 260.86,-892.36 264.96,-894.06 269.13,-895.6"/>
<polygon fill="#63b8ff" stroke="#63b8ff" points="268.33,-899.03 278.92,-898.95 270.59,-892.41 268.33,-899.03"/>
</a>
</g>
</g>
<!-- Node433 -->
<g id="Node000433" class="node">
<title>Node433</title>
<g id="a_Node000433"><a xlink:href="menu__items_8c.html#ac6ec4c42ba222e5620f5c1b6aa2535cf" target="_top" xlink:title=" ">
<polygon fill="white" stroke="#666666" points="220.5,-733 128.5,-733 128.5,-714 220.5,-714 220.5,-733"/>
<text text-anchor="middle" x="174.5" y="-721" font-family="Helvetica,sans-Serif" font-size="10.00">func_80099A70</text>
</a>
</g>
</g>
<!-- Node1&#45;&gt;Node433 -->
<g id="edge30_Node000001_Node000433" class="edge">
<title>Node1&#45;&gt;Node433</title>
<g id="a_edge30_Node000001_Node000433"><a xlink:title=" ">
<path fill="none" stroke="#63b8ff" d="M92.31,-735.05C100.67,-733.86 109.48,-732.61 118.1,-731.38"/>
<polygon fill="#63b8ff" stroke="#63b8ff" points="118.67,-734.84 128.08,-729.96 117.69,-727.91 118.67,-734.84"/>
</a>
</g>
</g>
<!-- Node434 -->
<g id="Node000434" class="node">
<title>Node434</title>
<g id="a_Node000434"><a xlink:href="menu__items_8c.html#a0250d0c3ad00aaf82903bf60ed652def" target="_top" xlink:title=" ">
<polygon fill="white" stroke="#666666" points="220.5,-583 128.5,-583 128.5,-564 220.5,-564 220.5,-583"/>
<text text-anchor="middle" x="174.5" y="-571" font-family="Helvetica,sans-Serif" font-size="10.00">func_80099AEC</text>
</a>
</g>
</g>
<!-- Node1&#45;&gt;Node434 -->
<g id="edge31_Node000001_Node000434" class="edge">
<title>Node1&#45;&gt;Node434</title>
<g id="a_edge31_Node000001_Node000434"><a xlink:title=" ">
<path fill="none" stroke="#63b8ff" d="M54.16,-731.99C74.59,-704.85 133.38,-626.78 160.05,-591.36"/>
<polygon fill="#63b8ff" stroke="#63b8ff" points="162.88,-593.42 166.1,-583.33 157.29,-589.21 162.88,-593.42"/>
</a>
</g>
</g>
<!-- Node435 -->
<g id="Node000435" class="node">
<title>Node435</title>
<g id="a_Node000435"><a xlink:href="menu__items_8c.html#a29cbe5c8f91343f11f916dc66094707a" target="_top" xlink:title=" ">
<polygon fill="white" stroke="#666666" points="220.5,-546 128.5,-546 128.5,-527 220.5,-527 220.5,-546"/>
<text text-anchor="middle" x="174.5" y="-534" font-family="Helvetica,sans-Serif" font-size="10.00">func_8009C918</text>
</a>
</g>
</g>
<!-- Node1&#45;&gt;Node435 -->
<g id="edge41_Node000001_Node000435" class="edge">
<title>Node1&#45;&gt;Node435</title>
<g id="a_edge41_Node000001_Node000435"><a xlink:title=" ">
<path fill="none" stroke="#63b8ff" d="M48.56,-731.98C53.97,-701.95 74.55,-608.14 128,-555.5 129.46,-554.06 131.05,-552.72 132.73,-551.48"/>
<polygon fill="#63b8ff" stroke="#63b8ff" points="134.96,-554.22 141.7,-546.04 131.33,-548.23 134.96,-554.22"/>
</a>
</g>
</g>
<!-- Node436 -->
<g id="Node000436" class="node">
<title>Node436</title>
<g id="a_Node000436"><a xlink:href="menu__items_8c.html#a7ce80b05c85045464b43508403003739" target="_top" xlink:title=" ">
<polygon fill="white" stroke="#666666" points="221,-901 128,-901 128,-882 221,-882 221,-901"/>
<text text-anchor="middle" x="174.5" y="-889" font-family="Helvetica,sans-Serif" font-size="10.00">func_8009CA2C</text>
</a>
</g>
</g>
<!-- Node1&#45;&gt;Node436 -->
<g id="edge42_Node000001_Node000436" class="edge">
<title>Node1&#45;&gt;Node436</title>
<g id="a_edge42_Node000001_Node000436"><a xlink:title=" ">
<path fill="none" stroke="#63b8ff" d="M54.68,-751.17C68.92,-769.02 100.45,-808.25 128,-840.5 137.76,-851.92 148.99,-864.51 157.85,-874.33"/>
<polygon fill="#63b8ff" stroke="#63b8ff" points="155.34,-876.77 164.65,-881.83 160.53,-872.07 155.34,-876.77"/>
</a>
</g>
</g>
<!-- Node437 -->
<g id="Node000437" class="node">
<title>Node437</title>
<g id="a_Node000437"><a xlink:href="menu__items_8c.html#af5c5dbc8b13a37e983a1a137457e0f06" target="_top" xlink:title=" ">
<polygon fill="white" stroke="#666666" points="215.5,-242 133.5,-242 133.5,-223 215.5,-223 215.5,-242"/>
<text text-anchor="middle" x="174.5" y="-230" font-family="Helvetica,sans-Serif" font-size="10.00">setup_menus</text>
</a>
</g>
</g>
<!-- Node1&#45;&gt;Node437 -->
<g id="edge46_Node000001_Node000437" class="edge">
<title>Node1&#45;&gt;Node437</title>
<g id="a_edge46_Node000001_Node000437"><a xlink:title=" ">
<path fill="none" stroke="#63b8ff" d="M49.41,-731.79C64.65,-670.49 147.49,-337.16 168.6,-252.21"/>
<polygon fill="#63b8ff" stroke="#63b8ff" points="172.05,-252.86 171.06,-242.32 165.25,-251.18 172.05,-252.86"/>
</a>
</g>
</g>
<!-- Node3 -->
<g id="Node000003" class="node">
<title>Node3</title>
<g id="a_Node000003"><a xlink:href="menu__items_8c.html#a7f945b0137dc9c27332444441ca8ac67" target="_top" xlink:title=" ">
<polygon fill="white" stroke="#666666" points="555.5,-435.5 432.5,-435.5 432.5,-405.5 555.5,-405.5 555.5,-435.5"/>
<text text-anchor="start" x="440.5" y="-423.5" font-family="Helvetica,sans-Serif" font-size="10.00">segmented_to_virtual</text>
<text text-anchor="middle" x="494" y="-412.5" font-family="Helvetica,sans-Serif" font-size="10.00">_dupe_2</text>
</a>
</g>
</g>
<!-- Node2&#45;&gt;Node3 -->
<g id="edge2_Node000002_Node000003" class="edge">
<title>Node2&#45;&gt;Node3</title>
<g id="a_edge2_Node000002_Node000003"><a xlink:title=" ">
<path fill="none" stroke="#63b8ff" d="M220.32,-471.17C272.86,-461.41 360.6,-445.1 422.33,-433.63"/>
<polygon fill="#63b8ff" stroke="#63b8ff" points="423.2,-437.03 432.39,-431.76 421.92,-430.15 423.2,-437.03"/>
</a>
</g>
</g>
<!-- Node5 -->
<g id="Node000005" class="node">
<title>Node5</title>
<g id="a_Node000005"><a xlink:href="menu__items_8c.html#a15f3ebfeed90c432ebac841a94730a1a" target="_top" xlink:title=" ">
<polygon fill="white" stroke="#666666" points="367,-994 275,-994 275,-975 367,-975 367,-994"/>
<text text-anchor="middle" x="321" y="-982" font-family="Helvetica,sans-Serif" font-size="10.00">func_80093C98</text>
</a>
</g>
</g>
<!-- Node4&#45;&gt;Node5 -->
<g id="edge4_Node000004_Node000005" class="edge">
<title>Node4&#45;&gt;Node5</title>
<g id="a_edge4_Node000004_Node000005"><a xlink:title=" ">
<path fill="none" stroke="#63b8ff" d="M220.03,-965.13C234.18,-967.87 250,-970.94 264.81,-973.81"/>
<polygon fill="#63b8ff" stroke="#63b8ff" points="264.38,-977.29 274.87,-975.75 265.71,-970.42 264.38,-977.29"/>
</a>
</g>
</g>
<!-- Node6 -->
<g id="Node000006" class="node">
<title>Node6</title>
<g id="a_Node000006"><a xlink:href="menu__items_8c.html#abad727451137a6166b04d9fdb8064eae" target="_top" xlink:title=" ">
<polygon fill="#fff0f0" stroke="red" points="540.5,-937 447.5,-937 447.5,-918 540.5,-918 540.5,-937"/>
<text text-anchor="middle" x="494" y="-925" font-family="Helvetica,sans-Serif" font-size="10.00">func_8009CA6C</text>
</a>
</g>
</g>
<!-- Node5&#45;&gt;Node6 -->
<g id="edge5_Node000005_Node000006" class="edge">
<title>Node5&#45;&gt;Node6</title>
<g id="a_edge5_Node000005_Node000006"><a xlink:title=" ">
<path fill="none" stroke="#63b8ff" d="M347.15,-974.96C358.69,-970.58 372.55,-965.29 385,-960.5 401.02,-954.33 404.67,-951.81 421,-946.5 428.27,-944.14 436.01,-941.85 443.64,-939.74"/>
<polygon fill="#63b8ff" stroke="#63b8ff" points="444.79,-943.05 453.53,-937.06 442.96,-936.29 444.79,-943.05"/>
</a>
</g>
</g>
<!-- Node29 -->
<g id="Node000029" class="node">
<title>Node29</title>
<g id="a_Node000029"><a xlink:href="menu__items_8c.html#a0e04aa139e43a0a18f663367145916ab" target="_top" xlink:title=" ">
<polygon fill="#fff0f0" stroke="red" points="540,-1050 448,-1050 448,-1031 540,-1031 540,-1050"/>
<text text-anchor="middle" x="494" y="-1038" font-family="Helvetica,sans-Serif" font-size="10.00">func_800A54EC</text>
</a>
</g>
</g>
<!-- Node5&#45;&gt;Node29 -->
<g id="edge6_Node000005_Node000029" class="edge">
<title>Node5&#45;&gt;Node29</title>
<g id="a_edge6_Node000005_Node000029"><a xlink:title=" ">
<path fill="none" stroke="#63b8ff" d="M351.4,-994.13C379.83,-1003.44 423.09,-1017.6 454.31,-1027.83"/>
<polygon fill="#63b8ff" stroke="#63b8ff" points="453.39,-1031.21 463.99,-1031 455.57,-1024.56 453.39,-1031.21"/>
</a>
</g>
</g>
<!-- Node5&#45;&gt;Node46 -->
<g id="edge10_Node000005_Node000046" class="edge">
<title>Node5&#45;&gt;Node46</title>
<g id="a_edge10_Node000005_Node000046"><a xlink:title=" ">
<path fill="none" stroke="#63b8ff" d="M367.17,-991.42C416.34,-998.97 497.28,-1011.47 567,-1022.5 591.8,-1026.42 619.69,-1030.93 641.37,-1034.45"/>
<polygon fill="#63b8ff" stroke="#63b8ff" points="641.04,-1037.94 651.47,-1036.09 642.16,-1031.03 641.04,-1037.94"/>
</a>
</g>
</g>
<!-- Node48 -->
<g id="Node000048" class="node">
<title>Node48</title>
<g id="a_Node000048"><a xlink:href="menu__items_8c.html#abd8a094c50f93b277ae987f3ddfebe6a" target="_top" xlink:title=" ">
<polygon fill="white" stroke="#666666" points="558,-974 430,-974 430,-955 558,-955 558,-974"/>
<text text-anchor="middle" x="494" y="-962" font-family="Helvetica,sans-Serif" font-size="10.00">handle_menus_special</text>
</a>
</g>
</g>
<!-- Node5&#45;&gt;Node48 -->
<g id="edge11_Node000005_Node000048" class="edge">
<title>Node5&#45;&gt;Node48</title>
<g id="a_edge11_Node000005_Node000048"><a xlink:title=" ">
<path fill="none" stroke="#63b8ff" d="M367.38,-979.19C383.34,-977.33 401.72,-975.18 419.4,-973.11"/>
<polygon fill="#63b8ff" stroke="#63b8ff" points="420.18,-976.54 429.71,-971.9 419.37,-969.59 420.18,-976.54"/>
</a>
</g>
</g>
<!-- Node29&#45;&gt;Node46 -->
<g id="edge7_Node000029_Node000046" class="edge">
<title>Node29&#45;&gt;Node46</title>
<g id="a_edge7_Node000029_Node000046"><a xlink:title=" ">
<path fill="none" stroke="#63b8ff" d="M540.36,-1040.5C571.36,-1040.5 611.96,-1040.5 641.11,-1040.5"/>
<polygon fill="#63b8ff" stroke="#63b8ff" points="641.29,-1044 651.29,-1040.5 641.29,-1037 641.29,-1044"/>
</a>
</g>
</g>
<!-- Node33 -->
<g id="Node000033" class="node">
<title>Node33</title>
<g id="a_Node000033"><a xlink:href="guMtxF2L_8c.html#a40ab2d64c609839ff1e0ef0de2d0dcc4" target="_top" xlink:title=" ">
<polygon fill="white" stroke="#666666" points="863.5,-1031 798.5,-1031 798.5,-1012 863.5,-1012 863.5,-1031"/>
<text text-anchor="middle" x="831" y="-1019" font-family="Helvetica,sans-Serif" font-size="10.00">guMtxF2L</text>
</a>
</g>
</g>
<!-- Node46&#45;&gt;Node33 -->
<g id="edge8_Node000046_Node000033" class="edge">
<title>Node46&#45;&gt;Node33</title>
<g id="a_edge8_Node000046_Node000033"><a xlink:title=" ">
<path fill="none" stroke="#63b8ff" d="M707.57,-1037.06C730.06,-1034.2 762.41,-1030.09 788.22,-1026.81"/>
<polygon fill="#63b8ff" stroke="#63b8ff" points="788.99,-1030.24 798.47,-1025.51 788.1,-1023.3 788.99,-1030.24"/>
</a>
</g>
</g>
<!-- Node47 -->
<g id="Node000047" class="node">
<title>Node47</title>
<g id="a_Node000047"><a xlink:href="guOrthoF_8c.html#ae2f1eeb1f335f37cca279436f5f15f41" target="_top" xlink:title=" ">
<polygon fill="#fff0f0" stroke="red" points="862,-1068 800,-1068 800,-1049 862,-1049 862,-1068"/>
<text text-anchor="middle" x="831" y="-1056" font-family="Helvetica,sans-Serif" font-size="10.00">guOrthoF</text>
</a>
</g>
</g>
<!-- Node46&#45;&gt;Node47 -->
<g id="edge9_Node000046_Node000047" class="edge">
<title>Node46&#45;&gt;Node47</title>
<g id="a_edge9_Node000046_Node000047"><a xlink:title=" ">
<path fill="none" stroke="#63b8ff" d="M707.57,-1043.76C730.53,-1046.52 763.77,-1050.53 789.83,-1053.66"/>
<polygon fill="#63b8ff" stroke="#63b8ff" points="789.44,-1057.14 799.79,-1054.86 790.28,-1050.19 789.44,-1057.14"/>
</a>
</g>
</g>
<!-- Node49 -->
<g id="Node000049" class="node">
<title>Node49</title>
<g id="a_Node000049"><a xlink:href="menu__items_8c.html#aca0a42018f8e6889973a8e19cf8b82c0" target="_top" xlink:title=" ">
<polygon fill="#fff0f0" stroke="red" points="756,-899 603,-899 603,-880 756,-880 756,-899"/>
<text text-anchor="middle" x="679.5" y="-887" font-family="Helvetica,sans-Serif" font-size="10.00">handle_menus_with_pri_arg</text>
</a>
</g>
</g>
<!-- Node48&#45;&gt;Node49 -->
<g id="edge12_Node000048_Node000049" class="edge">
<title>Node48&#45;&gt;Node49</title>
<g id="a_edge12_Node000048_Node000049"><a xlink:title=" ">
<path fill="none" stroke="#63b8ff" d="M540.04,-954.92C549.08,-952.53 558.43,-949.71 567,-946.5 597.99,-934.88 631.56,-916.92 653.67,-904.27"/>
<polygon fill="#63b8ff" stroke="#63b8ff" points="655.51,-907.25 662.41,-899.21 652,-901.19 655.51,-907.25"/>
</a>
</g>
</g>
<!-- Node218 -->
<g id="Node000218" class="node">
<title>Node218</title>
<g id="a_Node000218"><a xlink:href="external_8c.html#afadd9eacb33a057bc8c1caaab7ab5a84" target="_top" xlink:title=" ">
<polygon fill="white" stroke="#666666" points="870,-622 792,-622 792,-603 870,-603 870,-622"/>
<text text-anchor="middle" x="831" y="-610" font-family="Helvetica,sans-Serif" font-size="10.00">play_sound2</text>
</a>
</g>
</g>
<!-- Node49&#45;&gt;Node218 -->
<g id="edge13_Node000049_Node000218" class="edge">
<title>Node49&#45;&gt;Node218</title>
<g id="a_edge13_Node000049_Node000218"><a xlink:title=" ">
<path fill="none" stroke="#63b8ff" d="M685.65,-879.97C707.25,-839.93 790.85,-685.03 819.95,-631.12"/>
<polygon fill="#63b8ff" stroke="#63b8ff" points="823.05,-632.74 824.72,-622.28 816.89,-629.42 823.05,-632.74"/>
</a>
</g>
</g>
<!-- Node219 -->
<g id="Node000219" class="node">
<title>Node219</title>
<g id="a_Node000219"><a xlink:href="external_8c.html#a475cff796211891556f52877cd8e9b9e" target="_top" xlink:title=" ">
<polygon fill="white" stroke="#666666" points="978,-622 906,-622 906,-603 978,-603 978,-622"/>
<text text-anchor="middle" x="942" y="-610" font-family="Helvetica,sans-Serif" font-size="10.00">play_sound</text>
</a>
</g>
</g>
<!-- Node218&#45;&gt;Node219 -->
<g id="edge14_Node000218_Node000219" class="edge">
<title>Node218&#45;&gt;Node219</title>
<g id="a_edge14_Node000218_Node000219"><a xlink:title=" ">
<path fill="none" stroke="#63b8ff" d="M870.12,-612.5C878.33,-612.5 887.08,-612.5 895.53,-612.5"/>
<polygon fill="#63b8ff" stroke="#63b8ff" points="895.64,-616 905.64,-612.5 895.64,-609 895.64,-616"/>
</a>
</g>
</g>
<!-- Node422&#45;&gt;Node218 -->
<g id="edge26_Node000422_Node000218" class="edge">
<title>Node422&#45;&gt;Node218</title>
<g id="a_edge26_Node000422_Node000218"><a xlink:title=" ">
<path fill="none" stroke="#63b8ff" d="M209.92,-750.81C214.02,-748.58 217.86,-745.84 221,-742.5 256.5,-704.69 215.56,-662.69 257,-631.5 298.38,-600.36 651.16,-607.29 781.7,-610.98"/>
<polygon fill="#63b8ff" stroke="#63b8ff" points="781.71,-614.48 791.8,-611.27 781.91,-607.48 781.71,-614.48"/>
</a>
</g>
</g>
<!-- Node423 -->
<g id="Node000423" class="node">
<title>Node423</title>
<g id="a_Node000423"><a xlink:href="render__objects_8c.html#a408325fcc3220e98ee4b4c2356caea1b" target="_top" xlink:title=" ">
<polygon fill="white" stroke="#666666" points="370,-696 272,-696 272,-677 370,-677 370,-696"/>
<text text-anchor="middle" x="321" y="-684" font-family="Helvetica,sans-Serif" font-size="10.00">debug_print_str2</text>
</a>
</g>
</g>
<!-- Node422&#45;&gt;Node423 -->
<g id="edge16_Node000422_Node000423" class="edge">
<title>Node422&#45;&gt;Node423</title>
<g id="a_edge16_Node000422_Node000423"><a xlink:title=" ">
<path fill="none" stroke="#63b8ff" d="M205.3,-750.82C210.73,-748.48 216.19,-745.7 221,-742.5 240.09,-729.77 237.39,-717.41 257,-705.5 260.57,-703.33 264.4,-701.39 268.36,-699.67"/>
<polygon fill="#63b8ff" stroke="#63b8ff" points="269.68,-702.91 277.72,-696.01 267.13,-696.39 269.68,-702.91"/>
</a>
</g>
</g>
<!-- Node427 -->
<g id="Node000427" class="node">
<title>Node427</title>
<g id="a_Node000427"><a xlink:href="render__objects_8c.html#ab0e3aea9fb9c76755b7df72a7d9a5cf6" target="_top" xlink:title=" ">
<polygon fill="white" stroke="#666666" points="366.5,-733 275.5,-733 275.5,-714 366.5,-714 366.5,-733"/>
<text text-anchor="middle" x="321" y="-721" font-family="Helvetica,sans-Serif" font-size="10.00">func_80057778</text>
</a>
</g>
</g>
<!-- Node422&#45;&gt;Node427 -->
<g id="edge18_Node000422_Node000427" class="edge">
<title>Node422&#45;&gt;Node427</title>
<g id="a_edge18_Node000422_Node000427"><a xlink:title=" ">
<path fill="none" stroke="#63b8ff" d="M212.71,-750.97C231.01,-746.29 253.27,-740.59 272.76,-735.6"/>
<polygon fill="#63b8ff" stroke="#63b8ff" points="273.84,-738.93 282.66,-733.06 272.11,-732.15 273.84,-738.93"/>
</a>
</g>
</g>
<!-- Node428 -->
<g id="Node000428" class="node">
<title>Node428</title>
<g id="a_Node000428"><a xlink:href="menu__items_8c.html#a43b29029858deb92da33f7ad2b2b7483" target="_top" xlink:title=" ">
<polygon fill="white" stroke="#666666" points="366.5,-659 275.5,-659 275.5,-640 366.5,-640 366.5,-659"/>
<text text-anchor="middle" x="321" y="-647" font-family="Helvetica,sans-Serif" font-size="10.00">func_8009E230</text>
</a>
</g>
</g>
<!-- Node422&#45;&gt;Node428 -->
<g id="edge19_Node000422_Node000428" class="edge">
<title>Node422&#45;&gt;Node428</title>
<g id="a_edge19_Node000422_Node000428"><a xlink:title=" ">
<path fill="none" stroke="#63b8ff" d="M208.57,-750.86C213.07,-748.6 217.39,-745.85 221,-742.5 247.83,-717.64 229.16,-692.21 257,-668.5 259.74,-666.17 262.75,-664.13 265.93,-662.33"/>
<polygon fill="#63b8ff" stroke="#63b8ff" points="267.72,-665.36 275.26,-657.91 264.73,-659.03 267.72,-665.36"/>
</a>
</g>
</g>
<!-- Node265 -->
<g id="Node000265" class="node">
<title>Node265</title>
<g id="a_Node000265"><a xlink:href="external_8c.html#a083116fa2a79bac72518de626ad2c21a" target="_top" xlink:title=" ">
<polygon fill="white" stroke="#666666" points="367.5,-881 274.5,-881 274.5,-862 367.5,-862 367.5,-881"/>
<text text-anchor="middle" x="321" y="-869" font-family="Helvetica,sans-Serif" font-size="10.00">func_800CA0A0</text>
</a>
</g>
</g>
<!-- Node422&#45;&gt;Node265 -->
<g id="edge21_Node000422_Node000265" class="edge">
<title>Node422&#45;&gt;Node265</title>
<g id="a_edge21_Node000422_Node000265"><a xlink:title=" ">
<path fill="none" stroke="#63b8ff" d="M183.88,-770.08C204.62,-793.79 256.71,-853.32 257,-853.5 259.61,-855.15 262.37,-856.65 265.22,-858.02"/>
<polygon fill="#63b8ff" stroke="#63b8ff" points="264,-861.31 274.58,-861.95 266.71,-854.85 264,-861.31"/>
</a>
</g>
</g>
<!-- Node422&#45;&gt;Node429 -->
<g id="edge22_Node000422_Node000429" class="edge">
<title>Node422&#45;&gt;Node429</title>
<g id="a_edge22_Node000422_Node000429"><a xlink:title=" ">
<path fill="none" stroke="#63b8ff" d="M185.49,-770.16C195.39,-780.11 210.55,-796.4 221,-812.5 241.78,-844.53 228,-865.66 257,-890.5 258.37,-891.67 259.8,-892.76 261.3,-893.79"/>
<polygon fill="#63b8ff" stroke="#63b8ff" points="259.96,-897.05 270.39,-898.91 263.4,-890.95 259.96,-897.05"/>
</a>
</g>
</g>
<!-- Node223 -->
<g id="Node000223" class="node">
<title>Node223</title>
<g id="a_Node000223"><a xlink:href="menus_8c.html#a377e9f19431072ed8c7d9cba0409800a" target="_top" xlink:title=" ">
<polygon fill="white" stroke="#666666" points="385,-844 257,-844 257,-825 385,-825 385,-844"/>
<text text-anchor="middle" x="321" y="-832" font-family="Helvetica,sans-Serif" font-size="10.00">is_screen_being_faded</text>
</a>
</g>
</g>
<!-- Node422&#45;&gt;Node223 -->
<g id="edge24_Node000422_Node000223" class="edge">
<title>Node422&#45;&gt;Node223</title>
<g id="a_edge24_Node000422_Node000223"><a xlink:title=" ">
<path fill="none" stroke="#63b8ff" d="M186.91,-770.14C202.04,-782.48 229.98,-803.77 257,-816.5 261.05,-818.41 265.33,-820.15 269.7,-821.74"/>
<polygon fill="#63b8ff" stroke="#63b8ff" points="268.7,-825.1 279.3,-824.97 270.93,-818.46 268.7,-825.1"/>
</a>
</g>
</g>
<!-- Node430 -->
<g id="Node000430" class="node">
<title>Node430</title>
<g id="a_Node000430"><a xlink:href="render__objects_8c.html#acaaf2f93b14e85c81188505f1372741e" target="_top" xlink:title=" ">
<polygon fill="white" stroke="#666666" points="370,-807 272,-807 272,-788 370,-788 370,-807"/>
<text text-anchor="middle" x="321" y="-795" font-family="Helvetica,sans-Serif" font-size="10.00">load_debug_font</text>
</a>
</g>
</g>
<!-- Node422&#45;&gt;Node430 -->
<g id="edge25_Node000422_Node000430" class="edge">
<title>Node422&#45;&gt;Node430</title>
<g id="a_edge25_Node000422_Node000430"><a xlink:title=" ">
<path fill="none" stroke="#63b8ff" d="M212.71,-770.03C231.01,-774.71 253.27,-780.41 272.76,-785.4"/>
<polygon fill="#63b8ff" stroke="#63b8ff" points="272.11,-788.85 282.66,-787.94 273.84,-782.07 272.11,-788.85"/>
</a>
</g>
</g>
<!-- Node431 -->
<g id="Node000431" class="node">
<title>Node431</title>
<g id="a_Node000431"><a xlink:href="render__objects_8c.html#ad8725179f2e2dfa08cc7e95a2c06eca1" target="_top" xlink:title=" ">
<polygon fill="white" stroke="#666666" points="363,-770 279,-770 279,-751 363,-751 363,-770"/>
<text text-anchor="middle" x="321" y="-758" font-family="Helvetica,sans-Serif" font-size="10.00">print_str_num</text>
</a>
</g>
</g>
<!-- Node422&#45;&gt;Node431 -->
<g id="edge27_Node000422_Node000431" class="edge">
<title>Node422&#45;&gt;Node431</title>
<g id="a_edge27_Node000422_Node000431"><a xlink:title=" ">
<path fill="none" stroke="#63b8ff" d="M220.03,-760.5C235.41,-760.5 252.75,-760.5 268.63,-760.5"/>
<polygon fill="#63b8ff" stroke="#63b8ff" points="268.81,-764 278.81,-760.5 268.81,-757 268.81,-764"/>
</a>
</g>
</g>
<!-- Node424 -->
<g id="Node000424" class="node">
<title>Node424</title>
<g id="a_Node000424"><a xlink:href="render__objects_8c.html#a62d81547caa98603255ae2ed6eb8ef2c" target="_top" xlink:title=" ">
<polygon fill="#fff0f0" stroke="red" points="547.5,-716 440.5,-716 440.5,-697 547.5,-697 547.5,-716"/>
<text text-anchor="middle" x="494" y="-704" font-family="Helvetica,sans-Serif" font-size="10.00">debug_print_string</text>
</a>
</g>
</g>
<!-- Node423&#45;&gt;Node424 -->
<g id="edge17_Node000423_Node000424" class="edge">
<title>Node423&#45;&gt;Node424</title>
<g id="a_edge17_Node000423_Node000424"><a xlink:title=" ">
<path fill="none" stroke="#63b8ff" d="M370.09,-692.12C388.76,-694.31 410.4,-696.84 430.27,-699.16"/>
<polygon fill="#63b8ff" stroke="#63b8ff" points="430.14,-702.67 440.48,-700.36 430.95,-695.72 430.14,-702.67"/>
</a>
</g>
</g>
<!-- Node222 -->
<g id="Node000222" class="node">
<title>Node222</title>
<g id="a_Node000222"><a xlink:href="menu__items_8c.html#a485ad7e52b54cd47cb14ce60384c34b5" target="_top" xlink:title=" ">
<polygon fill="#fff0f0" stroke="red" points="540,-660 448,-660 448,-641 540,-641 540,-660"/>
<text text-anchor="middle" x="494" y="-648" font-family="Helvetica,sans-Serif" font-size="10.00">func_8009DFE0</text>
</a>
</g>
</g>
<!-- Node428&#45;&gt;Node222 -->
<g id="edge20_Node000428_Node000222" class="edge">
<title>Node428&#45;&gt;Node222</title>
<g id="a_edge20_Node000428_Node000222"><a xlink:title=" ">
<path fill="none" stroke="#63b8ff" d="M366.93,-649.76C388.55,-649.89 414.68,-650.04 437.54,-650.18"/>
<polygon fill="#63b8ff" stroke="#63b8ff" points="437.76,-653.68 447.78,-650.24 437.8,-646.68 437.76,-653.68"/>
</a>
</g>
</g>
<!-- Node429&#45;&gt;Node49 -->
<g id="edge23_Node000429_Node000049" class="edge">
<title>Node429&#45;&gt;Node49</title>
<g id="a_edge23_Node000429_Node000049"><a xlink:title=" ">
<path fill="none" stroke="#63b8ff" d="M385.32,-905.13C443.06,-902.05 528.84,-897.48 592.72,-894.07"/>
<polygon fill="#63b8ff" stroke="#63b8ff" points="592.97,-897.56 602.77,-893.54 592.6,-890.57 592.97,-897.56"/>
</a>
</g>
</g>
<!-- Node431&#45;&gt;Node424 -->
<g id="edge29_Node000431_Node000424" class="edge">
<title>Node431&#45;&gt;Node424</title>
<g id="a_edge29_Node000431_Node000424"><a xlink:title=" ">
<path fill="none" stroke="#63b8ff" d="M356.41,-750.96C365.71,-748.3 375.76,-745.36 385,-742.5 408.69,-735.17 435.1,-726.38 455.88,-719.32"/>
<polygon fill="#63b8ff" stroke="#63b8ff" points="457.25,-722.55 465.58,-716 454.99,-715.92 457.25,-722.55"/>
</a>
</g>
</g>
<!-- Node432 -->
<g id="Node000432" class="node">
<title>Node432</title>
<g id="a_Node000432"><a xlink:href="render__objects_8c.html#ac8564352bfa6f897e06b790f39169adf" target="_top" xlink:title=" ">
<polygon fill="#fff0f0" stroke="red" points="552.5,-770 435.5,-770 435.5,-751 552.5,-751 552.5,-770"/>
<text text-anchor="middle" x="494" y="-758" font-family="Helvetica,sans-Serif" font-size="10.00">debug_print_number</text>
</a>
</g>
</g>
<!-- Node431&#45;&gt;Node432 -->
<g id="edge28_Node000431_Node000432" class="edge">
<title>Node431&#45;&gt;Node432</title>
<g id="a_edge28_Node000431_Node000432"><a xlink:title=" ">
<path fill="none" stroke="#63b8ff" d="M363.39,-760.5C381.91,-760.5 404.23,-760.5 425.09,-760.5"/>
<polygon fill="#63b8ff" stroke="#63b8ff" points="425.19,-764 435.19,-760.5 425.19,-757 425.19,-764"/>
</a>
</g>
</g>
<!-- Node156 -->
<g id="Node000156" class="node">
<title>Node156</title>
<g id="a_Node000156"><a xlink:href="decode_8h.html#ae4722e596a88d66404ccaaf6ea181b41" target="_top" xlink:title=" ">
<polygon fill="white" stroke="#666666" points="359.5,-507 282.5,-507 282.5,-488 359.5,-488 359.5,-507"/>
<text text-anchor="middle" x="321" y="-495" font-family="Helvetica,sans-Serif" font-size="10.00">mio0decode</text>
</a>
</g>
</g>
<!-- Node434&#45;&gt;Node156 -->
<g id="edge32_Node000434_Node000156" class="edge">
<title>Node434&#45;&gt;Node156</title>
<g id="a_edge32_Node000434_Node000156"><a xlink:title=" ">
<path fill="none" stroke="#63b8ff" d="M204.71,-563.86C210.31,-561.49 215.98,-558.69 221,-555.5 239.57,-543.68 238.36,-533.2 257,-521.5 263.48,-517.44 270.75,-513.88 277.99,-510.85"/>
<polygon fill="#63b8ff" stroke="#63b8ff" points="279.72,-513.93 287.76,-507.03 277.18,-507.41 279.72,-513.93"/>
</a>
</g>
</g>
<!-- Node152 -->
<g id="Node000152" class="node">
<title>Node152</title>
<g id="a_Node000152"><a xlink:href="osPiStartDma_8c.html#ae288a36d96a4db6977d95327e246ec12" target="_top" xlink:title=" ">
<polygon fill="white" stroke="#666666" points="362.5,-583 279.5,-583 279.5,-564 362.5,-564 362.5,-583"/>
<text text-anchor="middle" x="321" y="-571" font-family="Helvetica,sans-Serif" font-size="10.00">osPiStartDma</text>
</a>
</g>
</g>
<!-- Node434&#45;&gt;Node152 -->
<g id="edge33_Node000434_Node000152" class="edge">
<title>Node434&#45;&gt;Node152</title>
<g id="a_edge33_Node000434_Node000152"><a xlink:title=" ">
<path fill="none" stroke="#63b8ff" d="M220.82,-573.5C236.17,-573.5 253.4,-573.5 269.15,-573.5"/>
<polygon fill="#63b8ff" stroke="#63b8ff" points="269.25,-577 279.25,-573.5 269.25,-570 269.25,-577"/>
</a>
</g>
</g>
<!-- Node84 -->
<g id="Node000084" class="node">
<title>Node84</title>
<g id="a_Node000084"><a xlink:href="osRecvMesg_8c.html#aa254dc33e373f235a99e17f7717493dc" target="_top" xlink:title=" ">
<polygon fill="#fff0f0" stroke="red" points="533,-473 455,-473 455,-454 533,-454 533,-473"/>
<text text-anchor="middle" x="494" y="-461" font-family="Helvetica,sans-Serif" font-size="10.00">osRecvMesg</text>
</a>
</g>
</g>
<!-- Node434&#45;&gt;Node84 -->
<g id="edge39_Node000434_Node000084" class="edge">
<title>Node434&#45;&gt;Node84</title>
<g id="a_edge39_Node000434_Node000084"><a xlink:title=" ">
<path fill="none" stroke="#63b8ff" d="M214.61,-563.95C271.01,-550.02 370.08,-524.87 385,-516.5 404.19,-505.73 401.77,-493.19 421,-482.5 428.39,-478.39 436.7,-475.14 444.99,-472.58"/>
<polygon fill="#63b8ff" stroke="#63b8ff" points="445.95,-475.94 454.64,-469.88 444.07,-469.2 445.95,-475.94"/>
</a>
</g>
</g>
<!-- Node153 -->
<g id="Node000153" class="node">
<title>Node153</title>
<g id="a_Node000153"><a xlink:href="osJamMesg_8c.html#ac69f7738a5120910a2f6202d27fb44f4" target="_top" xlink:title=" ">
<polygon fill="#fff0f0" stroke="red" points="530.5,-510 457.5,-510 457.5,-491 530.5,-491 530.5,-510"/>
<text text-anchor="middle" x="494" y="-498" font-family="Helvetica,sans-Serif" font-size="10.00">osJamMesg</text>
</a>
</g>
</g>
<!-- Node152&#45;&gt;Node153 -->
<g id="edge34_Node000152_Node000153" class="edge">
<title>Node152&#45;&gt;Node153</title>
<g id="a_edge34_Node000152_Node000153"><a xlink:title=" ">
<path fill="none" stroke="#63b8ff" d="M353.06,-563.98C363.55,-560.17 375.1,-555.29 385,-549.5 402.98,-538.98 402.49,-529.05 421,-519.5 429.27,-515.23 438.58,-511.86 447.69,-509.23"/>
<polygon fill="#63b8ff" stroke="#63b8ff" points="448.67,-512.59 457.44,-506.64 446.88,-505.82 448.67,-512.59"/>
</a>
</g>
</g>
<!-- Node154 -->
<g id="Node000154" class="node">
<title>Node154</title>
<g id="a_Node000154"><a xlink:href="osPiGetCmdQueue_8c.html#a758cb1b861d52fc7655d52ac7144ac88" target="_top" xlink:title=" ">
<polygon fill="white" stroke="#666666" points="548,-547 440,-547 440,-528 548,-528 548,-547"/>
<text text-anchor="middle" x="494" y="-535" font-family="Helvetica,sans-Serif" font-size="10.00">osPiGetCmdQueue</text>
</a>
</g>
</g>
<!-- Node152&#45;&gt;Node154 -->
<g id="edge36_Node000152_Node000154" class="edge">
<title>Node152&#45;&gt;Node154</title>
<g id="a_edge36_Node000152_Node000154"><a xlink:title=" ">
<path fill="none" stroke="#63b8ff" d="M362.52,-564.97C385.01,-560.24 413.29,-554.28 437.77,-549.13"/>
<polygon fill="#63b8ff" stroke="#63b8ff" points="438.58,-552.53 447.65,-547.05 437.14,-545.68 438.58,-552.53"/>
</a>
</g>
</g>
<!-- Node76 -->
<g id="Node000076" class="node">
<title>Node76</title>
<g id="a_Node000076"><a xlink:href="osSendMesg_8c.html#a413bd1b0a16c54dcc9e59c48b3d7f142" target="_top" xlink:title=" ">
<polygon fill="#fff0f0" stroke="red" points="533,-584 455,-584 455,-565 533,-565 533,-584"/>
<text text-anchor="middle" x="494" y="-572" font-family="Helvetica,sans-Serif" font-size="10.00">osSendMesg</text>
</a>
</g>
</g>
<!-- Node152&#45;&gt;Node76 -->
<g id="edge37_Node000152_Node000076" class="edge">
<title>Node152&#45;&gt;Node76</title>
<g id="a_edge37_Node000152_Node000076"><a xlink:title=" ">
<path fill="none" stroke="#63b8ff" d="M362.52,-573.74C387.2,-573.88 418.86,-574.07 444.81,-574.22"/>
<polygon fill="#63b8ff" stroke="#63b8ff" points="444.8,-577.72 454.82,-574.28 444.84,-570.72 444.8,-577.72"/>
</a>
</g>
</g>
<!-- Node77 -->
<g id="Node000077" class="node">
<title>Node77</title>
<g id="a_Node000077"><a xlink:href="libultra__internal_8h.html#a8ad9db8aa6bfc4437abdd0363b663b16" target="_top" xlink:title=" ">
<polygon fill="white" stroke="#666666" points="723.5,-510 635.5,-510 635.5,-491 723.5,-491 723.5,-510"/>
<text text-anchor="middle" x="679.5" y="-498" font-family="Helvetica,sans-Serif" font-size="10.00">__osDisableInt</text>
</a>
</g>
</g>
<!-- Node153&#45;&gt;Node77 -->
<g id="edge35_Node000153_Node000077" class="edge">
<title>Node153&#45;&gt;Node77</title>
<g id="a_edge35_Node000153_Node000077"><a xlink:title=" ">
<path fill="none" stroke="#63b8ff" d="M530.82,-500.5C557.71,-500.5 594.97,-500.5 625.34,-500.5"/>
<polygon fill="#63b8ff" stroke="#63b8ff" points="625.35,-504 635.35,-500.5 625.35,-497 625.35,-504"/>
</a>
</g>
</g>
<!-- Node76&#45;&gt;Node77 -->
<g id="edge38_Node000076_Node000077" class="edge">
<title>Node76&#45;&gt;Node77</title>
<g id="a_edge38_Node000076_Node000077"><a xlink:title=" ">
<path fill="none" stroke="#63b8ff" d="M533.22,-566.61C544.27,-563.88 556.25,-560.49 567,-556.5 597.92,-545.03 631.5,-527.4 653.64,-514.99"/>
<polygon fill="#63b8ff" stroke="#63b8ff" points="655.42,-518 662.39,-510.02 651.96,-511.91 655.42,-518"/>
</a>
</g>
</g>
<!-- Node84&#45;&gt;Node77 -->
<g id="edge40_Node000084_Node000077" class="edge">
<title>Node84&#45;&gt;Node77</title>
<g id="a_edge40_Node000084_Node000077"><a xlink:title=" ">
<path fill="none" stroke="#63b8ff" d="M533.02,-471.17C559.69,-476.54 595.71,-483.81 625.24,-489.76"/>
<polygon fill="#63b8ff" stroke="#63b8ff" points="624.89,-493.26 635.38,-491.81 626.27,-486.4 624.89,-493.26"/>
</a>
</g>
</g>
<!-- Node436&#45;&gt;Node6 -->
<g id="edge43_Node000436_Node000006" class="edge">
<title>Node436&#45;&gt;Node6</title>
<g id="a_edge43_Node000436_Node000006"><a xlink:title=" ">
<path fill="none" stroke="#63b8ff" d="M191.67,-901.07C207.65,-909.92 233.09,-922.45 257,-927.5 317.51,-940.27 388.7,-937.98 436.94,-933.95"/>
<polygon fill="#63b8ff" stroke="#63b8ff" points="437.53,-937.41 447.18,-933.04 436.91,-930.44 437.53,-937.41"/>
</a>
</g>
</g>
<!-- Node146 -->
<g id="Node000146" class="node">
<title>Node146</title>
<g id="a_Node000146"><a xlink:href="menu__items_8c.html#a2be6e5610e380252cfc68b8eda7c70e1" target="_top" xlink:title=" ">
<polygon fill="#fff0f0" stroke="red" points="368.5,-430 273.5,-430 273.5,-411 368.5,-411 368.5,-430"/>
<text text-anchor="middle" x="321" y="-418" font-family="Helvetica,sans-Serif" font-size="10.00">add_menu_item</text>
</a>
</g>
</g>
<!-- Node437&#45;&gt;Node146 -->
<g id="edge47_Node000437_Node000146" class="edge">
<title>Node437&#45;&gt;Node146</title>
<g id="a_edge47_Node000437_Node000146"><a xlink:title=" ">
<path fill="none" stroke="#63b8ff" d="M177.66,-242.14C184.39,-270.02 207.55,-351.64 257,-396.5 261.44,-400.53 266.63,-403.91 272.09,-406.74"/>
<polygon fill="#63b8ff" stroke="#63b8ff" points="270.89,-410.04 281.45,-410.99 273.79,-403.66 270.89,-410.04"/>
</a>
</g>
</g>
<!-- Node198 -->
<g id="Node000198" class="node">
<title>Node198</title>
<g id="a_Node000198"><a xlink:href="save_8c.html#a4b14ee705e6fbbed261905de563202b2" target="_top" xlink:title=" ">
<polygon fill="#fff0f0" stroke="red" points="567,-387 421,-387 421,-368 567,-368 567,-387"/>
<text text-anchor="middle" x="494" y="-375" font-family="Helvetica,sans-Serif" font-size="10.00">has_unlocked_extra_mode</text>
</a>
</g>
</g>
<!-- Node437&#45;&gt;Node198 -->
<g id="edge59_Node000437_Node000198" class="edge">
<title>Node437&#45;&gt;Node198</title>
<g id="a_edge59_Node000437_Node000198"><a xlink:title=" ">
<path fill="none" stroke="#63b8ff" d="M178.22,-242.23C185.81,-267.35 209.85,-334.42 257,-362.5 309.47,-393.75 380.64,-393.75 431.07,-388.26"/>
<polygon fill="#63b8ff" stroke="#63b8ff" points="431.67,-391.71 441.19,-387.06 430.84,-384.76 431.67,-391.71"/>
</a>
</g>
</g>
<!-- Node438 -->
<g id="Node000438" class="node">
<title>Node438</title>
<g id="a_Node000438"><a xlink:href="menu__items_8c.html#abfa6c366f02a470bbfcddb66359eec13" target="_top" xlink:title=" ">
<polygon fill="white" stroke="#666666" points="380.5,-204 261.5,-204 261.5,-185 380.5,-185 380.5,-204"/>
<text text-anchor="middle" x="321" y="-192" font-family="Helvetica,sans-Serif" font-size="10.00">clear_menu_textures</text>
</a>
</g>
</g>
<!-- Node437&#45;&gt;Node438 -->
<g id="edge50_Node000437_Node000438" class="edge">
<title>Node437&#45;&gt;Node438</title>
<g id="a_edge50_Node000437_Node000438"><a xlink:title=" ">
<path fill="none" stroke="#63b8ff" d="M211.96,-222.91C230.77,-217.96 253.91,-211.88 273.95,-206.61"/>
<polygon fill="#63b8ff" stroke="#63b8ff" points="275.02,-209.95 283.8,-204.02 273.24,-203.18 275.02,-209.95"/>
</a>
</g>
</g>
<!-- Node439 -->
<g id="Node000439" class="node">
<title>Node439</title>
<g id="a_Node000439"><a xlink:href="menu__items_8c.html#af9ede5415daa7e54bf2e7b018b382884" target="_top" xlink:title=" ">
<polygon fill="white" stroke="#666666" points="360.5,-167 281.5,-167 281.5,-148 360.5,-148 360.5,-167"/>
<text text-anchor="middle" x="321" y="-155" font-family="Helvetica,sans-Serif" font-size="10.00">clear_menus</text>
</a>
</g>
</g>
<!-- Node437&#45;&gt;Node439 -->
<g id="edge51_Node000437_Node000439" class="edge">
<title>Node437&#45;&gt;Node439</title>
<g id="a_edge51_Node000437_Node000439"><a xlink:title=" ">
<path fill="none" stroke="#63b8ff" d="M186.62,-222.89C201.65,-210.36 229.72,-188.49 257,-175.5 261.63,-173.3 266.59,-171.31 271.61,-169.53"/>
<polygon fill="#63b8ff" stroke="#63b8ff" points="272.86,-172.81 281.27,-166.37 270.68,-166.15 272.86,-172.81"/>
</a>
</g>
</g>
<!-- Node440 -->
<g id="Node000440" class="node">
<title>Node440</title>
<g id="a_Node000440"><a xlink:href="menu__items_8c.html#a43d067e97313b62650b013e0384a7c8d" target="_top" xlink:title=" ">
<polygon fill="white" stroke="#666666" points="366.5,-130 275.5,-130 275.5,-111 366.5,-111 366.5,-130"/>
<text text-anchor="middle" x="321" y="-118" font-family="Helvetica,sans-Serif" font-size="10.00">func_80092258</text>
</a>
</g>
</g>
<!-- Node437&#45;&gt;Node440 -->
<g id="edge52_Node000437_Node000440" class="edge">
<title>Node437&#45;&gt;Node440</title>
<g id="a_edge52_Node000437_Node000440"><a xlink:title=" ">
<path fill="none" stroke="#63b8ff" d="M181.13,-222.89C192.79,-203.83 221.48,-161.14 257,-138.5 259.78,-136.73 262.74,-135.12 265.8,-133.68"/>
<polygon fill="#63b8ff" stroke="#63b8ff" points="267.32,-136.84 275.22,-129.78 264.64,-130.37 267.32,-136.84"/>
</a>
</g>
</g>
<!-- Node441 -->
<g id="Node000441" class="node">
<title>Node441</title>
<g id="a_Node000441"><a xlink:href="menu__items_8c.html#ae938fb8c5b56456f2f0caf7dd552a51e" target="_top" xlink:title=" ">
<polygon fill="white" stroke="#666666" points="367,-93 275,-93 275,-74 367,-74 367,-93"/>
<text text-anchor="middle" x="321" y="-81" font-family="Helvetica,sans-Serif" font-size="10.00">func_8009A344</text>
</a>
</g>
</g>
<!-- Node437&#45;&gt;Node441 -->
<g id="edge53_Node000437_Node000441" class="edge">
<title>Node437&#45;&gt;Node441</title>
<g id="a_edge53_Node000437_Node000441"><a xlink:title=" ">
<path fill="none" stroke="#63b8ff" d="M178.7,-222.91C187.27,-198.68 213.16,-134.57 257,-101.5 259.63,-99.51 262.48,-97.75 265.45,-96.17"/>
<polygon fill="#63b8ff" stroke="#63b8ff" points="267.01,-99.31 274.69,-92.02 264.13,-92.93 267.01,-99.31"/>
</a>
</g>
</g>
<!-- Node442 -->
<g id="Node000442" class="node">
<title>Node442</title>
<g id="a_Node000442"><a xlink:href="menu__items_8c.html#ab7de017572f007763be38b383877dcbe" target="_top" xlink:title=" ">
<polygon fill="white" stroke="#666666" points="367,-56 275,-56 275,-37 367,-37 367,-56"/>
<text text-anchor="middle" x="321" y="-44" font-family="Helvetica,sans-Serif" font-size="10.00">func_8009B938</text>
</a>
</g>
</g>
<!-- Node437&#45;&gt;Node442 -->
<g id="edge54_Node000437_Node000442" class="edge">
<title>Node437&#45;&gt;Node442</title>
<g id="a_edge54_Node000437_Node000442"><a xlink:title=" ">
<path fill="none" stroke="#63b8ff" d="M177.31,-222.83C183.22,-194.1 204.63,-108.5 257,-64.5 259.69,-62.24 262.66,-60.26 265.79,-58.53"/>
<polygon fill="#63b8ff" stroke="#63b8ff" points="267.35,-61.66 274.95,-54.28 264.41,-55.31 267.35,-61.66"/>
</a>
</g>
</g>
<!-- Node443 -->
<g id="Node000443" class="node">
<title>Node443</title>
<g id="a_Node000443"><a xlink:href="menu__items_8c.html#a76864a96255e519be58b358a24065dc4" target="_top" xlink:title=" ">
<polygon fill="#fff0f0" stroke="red" points="367.5,-19 274.5,-19 274.5,0 367.5,0 367.5,-19"/>
<text text-anchor="middle" x="321" y="-7" font-family="Helvetica,sans-Serif" font-size="10.00">func_8009DF4C</text>
</a>
</g>
</g>
<!-- Node437&#45;&gt;Node443 -->
<g id="edge55_Node000437_Node000443" class="edge">
<title>Node437&#45;&gt;Node443</title>
<g id="a_edge55_Node000437_Node000443"><a xlink:title=" ">
<path fill="none" stroke="#63b8ff" d="M176.4,-222.66C179.95,-189.79 195.93,-82.74 257,-27.5 259.49,-25.25 262.24,-23.28 265.16,-21.55"/>
<polygon fill="#63b8ff" stroke="#63b8ff" points="266.89,-24.6 274.34,-17.07 263.82,-18.31 266.89,-24.6"/>
</a>
</g>
</g>
<!-- Node445 -->
<g id="Node000445" class="node">
<title>Node445</title>
<g id="a_Node000445"><a xlink:href="menu__items_8c.html#a2dd5c610e3e060fd3309ae2a077c2da3" target="_top" xlink:title=" ">
<polygon fill="#fff0f0" stroke="red" points="367.5,-354 274.5,-354 274.5,-335 367.5,-335 367.5,-354"/>
<text text-anchor="middle" x="321" y="-342" font-family="Helvetica,sans-Serif" font-size="10.00">func_8009DF6C</text>
</a>
</g>
</g>
<!-- Node437&#45;&gt;Node445 -->
<g id="edge56_Node000437_Node000445" class="edge">
<title>Node437&#45;&gt;Node445</title>
<g id="a_edge56_Node000437_Node000445"><a xlink:title=" ">
<path fill="none" stroke="#63b8ff" d="M181.36,-242.25C193.23,-261.17 221.98,-302.95 257,-325.5 260.16,-327.54 263.56,-329.36 267.07,-331"/>
<polygon fill="#63b8ff" stroke="#63b8ff" points="265.98,-334.34 276.56,-334.91 268.64,-327.87 265.98,-334.34"/>
</a>
</g>
</g>
<!-- Node232 -->
<g id="Node000232" class="node">
<title>Node232</title>
<g id="a_Node000232"><a xlink:href="save_8c.html#aefd3604da4aa5ae9ed1eb8fd042ff5e9" target="_top" xlink:title=" ">
<polygon fill="#fff0f0" stroke="red" points="540,-261 448,-261 448,-242 540,-242 540,-261"/>
<text text-anchor="middle" x="494" y="-249" font-family="Helvetica,sans-Serif" font-size="10.00">func_800B5F30</text>
</a>
</g>
</g>
<!-- Node437&#45;&gt;Node232 -->
<g id="edge57_Node000437_Node000232" class="edge">
<title>Node437&#45;&gt;Node232</title>
<g id="a_edge57_Node000437_Node000232"><a xlink:title=" ">
<path fill="none" stroke="#63b8ff" d="M215.71,-234.91C271.9,-238.27 374.13,-244.39 437.53,-248.18"/>
<polygon fill="#63b8ff" stroke="#63b8ff" points="437.55,-251.69 447.74,-248.79 437.97,-244.7 437.55,-251.69"/>
</a>
</g>
</g>
<!-- Node446 -->
<g id="Node000446" class="node">
<title>Node446</title>
<g id="a_Node000446"><a xlink:href="save_8c.html#a3658658602b39923f3f7813725cf97e9" target="_top" xlink:title=" ">
<polygon fill="#fff0f0" stroke="red" points="367,-317 275,-317 275,-298 367,-298 367,-317"/>
<text text-anchor="middle" x="321" y="-305" font-family="Helvetica,sans-Serif" font-size="10.00">func_800B6014</text>
</a>
</g>
</g>
<!-- Node437&#45;&gt;Node446 -->
<g id="edge58_Node000437_Node000446" class="edge">
<title>Node437&#45;&gt;Node446</title>
<g id="a_edge58_Node000437_Node000446"><a xlink:title=" ">
<path fill="none" stroke="#63b8ff" d="M186.94,-242.08C202.1,-254.35 230.07,-275.58 257,-288.5 261.71,-290.76 266.74,-292.82 271.84,-294.67"/>
<polygon fill="#63b8ff" stroke="#63b8ff" points="271.04,-298.1 281.64,-298 273.29,-291.47 271.04,-298.1"/>
</a>
</g>
</g>
<!-- Node447 -->
<g id="Node000447" class="node">
<title>Node447</title>
<g id="a_Node000447"><a xlink:href="menus_8c.html#ab415efc50e6890fb19378842960af7fc" target="_top" xlink:title=" ">
<polygon fill="#fff0f0" stroke="red" points="374,-280 268,-280 268,-261 374,-261 374,-280"/>
<text text-anchor="middle" x="321" y="-268" font-family="Helvetica,sans-Serif" font-size="10.00">load_menu_states</text>
</a>
</g>
</g>
<!-- Node437&#45;&gt;Node447 -->
<g id="edge60_Node000437_Node000447" class="edge">
<title>Node437&#45;&gt;Node447</title>
<g id="a_edge60_Node000437_Node000447"><a xlink:title=" ">
<path fill="none" stroke="#63b8ff" d="M211.96,-242.09C230.77,-247.04 253.91,-253.12 273.95,-258.39"/>
<polygon fill="#63b8ff" stroke="#63b8ff" points="273.24,-261.82 283.8,-260.98 275.02,-255.05 273.24,-261.82"/>
</a>
</g>
</g>
<!-- Node146&#45;&gt;Node3 -->
<g id="edge49_Node000146_Node000003" class="edge">
<title>Node146&#45;&gt;Node3</title>
<g id="a_edge49_Node000146_Node000003"><a xlink:title=" ">
<path fill="none" stroke="#63b8ff" d="M368.73,-420.5C385.17,-420.5 404.04,-420.5 422.03,-420.5"/>
<polygon fill="#63b8ff" stroke="#63b8ff" points="422.2,-424 432.2,-420.5 422.2,-417 422.2,-424"/>
</a>
</g>
</g>
<!-- Node146&#45;&gt;Node198 -->
<g id="edge48_Node000146_Node000198" class="edge">
<title>Node146&#45;&gt;Node198</title>
<g id="a_edge48_Node000146_Node000198"><a xlink:title=" ">
<path fill="none" stroke="#63b8ff" d="M359.95,-410.96C385.08,-404.64 418.24,-396.3 445.17,-389.53"/>
<polygon fill="#63b8ff" stroke="#63b8ff" points="446.31,-392.85 455.16,-387.02 444.6,-386.06 446.31,-392.85"/>
</a>
</g>
</g>
<!-- Node447&#45;&gt;Node218 -->
<g id="edge62_Node000447_Node000218" class="edge">
<title>Node447&#45;&gt;Node218</title>
<g id="a_edge62_Node000447_Node000218"><a xlink:title=" ">
<path fill="none" stroke="#63b8ff" d="M363.16,-280.06C447.87,-301.75 643.22,-362.36 756,-482.5 787.7,-516.26 811.14,-566.07 822.45,-593.18"/>
<polygon fill="#63b8ff" stroke="#63b8ff" points="819.3,-594.74 826.3,-602.69 825.79,-592.11 819.3,-594.74"/>
</a>
</g>
</g>
<!-- Node447&#45;&gt;Node232 -->
<g id="edge61_Node000447_Node000232" class="edge">
<title>Node447&#45;&gt;Node232</title>
<g id="a_edge61_Node000447_Node000232"><a xlink:title=" ">
<path fill="none" stroke="#63b8ff" d="M374.23,-264.7C394.32,-262.46 417.3,-259.91 437.66,-257.65"/>
<polygon fill="#63b8ff" stroke="#63b8ff" points="438.18,-261.11 447.73,-256.53 437.41,-254.16 438.18,-261.11"/>
</a>
</g>
</g>
</g>
</svg>
