<?xml version="1.0" encoding="UTF-8" standalone="no"?>
<!DOCTYPE svg PUBLIC "-//W3C//DTD SVG 1.1//EN"
 "http://www.w3.org/Graphics/SVG/1.1/DTD/svg11.dtd">
<!-- Generated by graphviz version 2.43.0 (0)
 -->
<!-- Title: course_select_menu_act Pages: 1 -->
<svg width="531pt" height="218pt"
 viewBox="0.00 0.00 531.00 218.00" xmlns="http://www.w3.org/2000/svg" xmlns:xlink="http://www.w3.org/1999/xlink">
<g id="graph0" class="graph" transform="scale(1 1) rotate(0) translate(4 214)">
<title>course_select_menu_act</title>
<polygon fill="white" stroke="transparent" points="-4,4 -4,-214 527,-214 527,4 -4,4"/>
<!-- Node1 -->
<g id="node1" class="node">
<title>Node1</title>
<g id="a_node1"><a xlink:title=" ">
<polygon fill="#bfbfbf" stroke="black" points="0,-95.5 0,-114.5 137,-114.5 137,-95.5 0,-95.5"/>
<text text-anchor="middle" x="68.5" y="-102.5" font-family="Helvetica,sans-Serif" font-size="10.00">course_select_menu_act</text>
</a>
</g>
</g>
<!-- Node2 -->
<g id="node2" class="node">
<title>Node2</title>
<g id="a_node2"><a xlink:href="code__80091750_8c.html#a57e1e920cc29e6d1b13f4ebf198a6f3c" target="_top" xlink:title=" ">
<polygon fill="white" stroke="black" points="173.5,-190.5 173.5,-209.5 265.5,-209.5 265.5,-190.5 173.5,-190.5"/>
<text text-anchor="middle" x="219.5" y="-197.5" font-family="Helvetica,sans-Serif" font-size="10.00">func_8009E1C0</text>
</a>
</g>
</g>
<!-- Node1&#45;&gt;Node2 -->
<g id="edge1" class="edge">
<title>Node1&#45;&gt;Node2</title>
<path fill="none" stroke="midnightblue" d="M80.68,-114.61C99.03,-130.05 137.1,-160.71 173,-181 176.25,-182.84 179.71,-184.6 183.21,-186.25"/>
<polygon fill="midnightblue" stroke="midnightblue" points="181.92,-189.51 192.48,-190.39 184.77,-183.12 181.92,-189.51"/>
</g>
<!-- Node5 -->
<g id="node5" class="node">
<title>Node5</title>
<g id="a_node5"><a xlink:href="code__80091750_8c.html#aed30b6714f69f03914e0c48dbb01a77b" target="_top" xlink:title=" ">
<polygon fill="white" stroke="black" points="174,-152.5 174,-171.5 265,-171.5 265,-152.5 174,-152.5"/>
<text text-anchor="middle" x="219.5" y="-159.5" font-family="Helvetica,sans-Serif" font-size="10.00">func_8009E208</text>
</a>
</g>
</g>
<!-- Node1&#45;&gt;Node5 -->
<g id="edge4" class="edge">
<title>Node1&#45;&gt;Node5</title>
<path fill="none" stroke="midnightblue" d="M94.44,-114.54C118.94,-123.91 156.51,-138.29 183.9,-148.76"/>
<polygon fill="midnightblue" stroke="midnightblue" points="182.89,-152.12 193.48,-152.43 185.39,-145.59 182.89,-152.12"/>
</g>
<!-- Node6 -->
<g id="node6" class="node">
<title>Node6</title>
<g id="a_node6"><a xlink:href="menus_8c.html#a1ac3b3bddfd5cdbc1bbbbb79fdceebf9" target="_top" xlink:title=" ">
<polygon fill="white" stroke="black" points="173,-114.5 173,-133.5 266,-133.5 266,-114.5 173,-114.5"/>
<text text-anchor="middle" x="219.5" y="-121.5" font-family="Helvetica,sans-Serif" font-size="10.00">func_800B44AC</text>
</a>
</g>
</g>
<!-- Node1&#45;&gt;Node6 -->
<g id="edge6" class="edge">
<title>Node1&#45;&gt;Node6</title>
<path fill="none" stroke="midnightblue" d="M137.02,-113.61C145.67,-114.71 154.45,-115.83 162.88,-116.91"/>
<polygon fill="midnightblue" stroke="midnightblue" points="162.6,-120.4 172.96,-118.19 163.48,-113.46 162.6,-120.4"/>
</g>
<!-- Node7 -->
<g id="node7" class="node">
<title>Node7</title>
<g id="a_node7"><a xlink:href="menus_8c.html#a14ab660d89fba15b26612b62c5baca99" target="_top" xlink:title=" ">
<polygon fill="white" stroke="black" points="173.5,-76.5 173.5,-95.5 265.5,-95.5 265.5,-76.5 173.5,-76.5"/>
<text text-anchor="middle" x="219.5" y="-83.5" font-family="Helvetica,sans-Serif" font-size="10.00">func_800B4520</text>
</a>
</g>
</g>
<!-- Node1&#45;&gt;Node7 -->
<g id="edge7" class="edge">
<title>Node1&#45;&gt;Node7</title>
<path fill="none" stroke="midnightblue" d="M137.02,-96.39C145.78,-95.27 154.67,-94.14 163.2,-93.05"/>
<polygon fill="midnightblue" stroke="midnightblue" points="163.91,-96.49 173.39,-91.75 163.03,-89.55 163.91,-96.49"/>
</g>
<!-- Node8 -->
<g id="node8" class="node">
<title>Node8</title>
<g id="a_node8"><a xlink:href="external_8c.html#ab8fa6fbe4bd78d8282bb696133e77f6c" target="_top" xlink:title=" ">
<polygon fill="white" stroke="black" points="173.5,-38.5 173.5,-57.5 265.5,-57.5 265.5,-38.5 173.5,-38.5"/>
<text text-anchor="middle" x="219.5" y="-45.5" font-family="Helvetica,sans-Serif" font-size="10.00">func_800CA330</text>
</a>
</g>
</g>
<!-- Node1&#45;&gt;Node8 -->
<g id="edge8" class="edge">
<title>Node1&#45;&gt;Node8</title>
<path fill="none" stroke="midnightblue" d="M94.44,-95.46C118.94,-86.09 156.51,-71.71 183.9,-61.24"/>
<polygon fill="midnightblue" stroke="midnightblue" points="185.39,-64.41 193.48,-57.57 182.89,-57.88 185.39,-64.41"/>
</g>
<!-- Node10 -->
<g id="node10" class="node">
<title>Node10</title>
<g id="a_node10"><a xlink:href="external_8c.html#afadd9eacb33a057bc8c1caaab7ab5a84" target="_top" xlink:title=" ">
<polygon fill="white" stroke="black" points="180.5,-0.5 180.5,-19.5 258.5,-19.5 258.5,-0.5 180.5,-0.5"/>
<text text-anchor="middle" x="219.5" y="-7.5" font-family="Helvetica,sans-Serif" font-size="10.00">play_sound2</text>
</a>
</g>
</g>
<!-- Node1&#45;&gt;Node10 -->
<g id="edge10" class="edge">
<title>Node1&#45;&gt;Node10</title>
<path fill="none" stroke="midnightblue" d="M80.68,-95.39C99.03,-79.95 137.1,-49.29 173,-29 176.25,-27.16 179.71,-25.4 183.21,-23.75"/>
<polygon fill="midnightblue" stroke="midnightblue" points="184.77,-26.88 192.48,-19.61 181.92,-20.49 184.77,-26.88"/>
</g>
<!-- Node3 -->
<g id="node3" class="node">
<title>Node3</title>
<g id="a_node3"><a xlink:href="code__80091750_8c.html#a485ad7e52b54cd47cb14ce60384c34b5" target="_top" xlink:title=" ">
<polygon fill="white" stroke="black" points="302,-171.5 302,-190.5 394,-190.5 394,-171.5 302,-171.5"/>
<text text-anchor="middle" x="348" y="-178.5" font-family="Helvetica,sans-Serif" font-size="10.00">func_8009DFE0</text>
</a>
</g>
</g>
<!-- Node2&#45;&gt;Node3 -->
<g id="edge2" class="edge">
<title>Node2&#45;&gt;Node3</title>
<path fill="none" stroke="midnightblue" d="M265.81,-193.19C274.17,-191.94 282.98,-190.62 291.6,-189.32"/>
<polygon fill="midnightblue" stroke="midnightblue" points="292.21,-192.77 301.58,-187.82 291.17,-185.85 292.21,-192.77"/>
</g>
<!-- Node4 -->
<g id="node4" class="node">
<title>Node4</title>
<g id="a_node4"><a xlink:href="code__80091750_8c.html#ad38092d257433fcbbac4e1fd80b3b5bd" target="_top" xlink:title=" ">
<polygon fill="white" stroke="black" points="430,-171.5 430,-190.5 523,-190.5 523,-171.5 430,-171.5"/>
<text text-anchor="middle" x="476.5" y="-178.5" font-family="Helvetica,sans-Serif" font-size="10.00">func_8009DF8C</text>
</a>
</g>
</g>
<!-- Node3&#45;&gt;Node4 -->
<g id="edge3" class="edge">
<title>Node3&#45;&gt;Node4</title>
<path fill="none" stroke="midnightblue" d="M394.31,-181C402.48,-181 411.08,-181 419.5,-181"/>
<polygon fill="midnightblue" stroke="midnightblue" points="419.65,-184.5 429.65,-181 419.65,-177.5 419.65,-184.5"/>
</g>
<!-- Node5&#45;&gt;Node3 -->
<g id="edge5" class="edge">
<title>Node5&#45;&gt;Node3</title>
<path fill="none" stroke="midnightblue" d="M265.1,-168.7C273.78,-170 282.98,-171.38 291.95,-172.73"/>
<polygon fill="midnightblue" stroke="midnightblue" points="291.54,-176.21 301.95,-174.23 292.58,-169.29 291.54,-176.21"/>
</g>
<!-- Node9 -->
<g id="node9" class="node">
<title>Node9</title>
<g id="a_node9"><a xlink:href="external_8c.html#ac48b7cbfcaa7737f892877ead85e4ba7" target="_top" xlink:title=" ">
<polygon fill="white" stroke="black" points="302,-38.5 302,-57.5 394,-57.5 394,-38.5 302,-38.5"/>
<text text-anchor="middle" x="348" y="-45.5" font-family="Helvetica,sans-Serif" font-size="10.00">func_800C3448</text>
</a>
</g>
</g>
<!-- Node8&#45;&gt;Node9 -->
<g id="edge9" class="edge">
<title>Node8&#45;&gt;Node9</title>
<path fill="none" stroke="midnightblue" d="M265.81,-48C274.08,-48 282.79,-48 291.31,-48"/>
<polygon fill="midnightblue" stroke="midnightblue" points="291.58,-51.5 301.58,-48 291.58,-44.5 291.58,-51.5"/>
</g>
<!-- Node11 -->
<g id="node11" class="node">
<title>Node11</title>
<g id="a_node11"><a xlink:href="external_8c.html#a62e16f9600e7e9beda2c9d2df10f3561" target="_top" xlink:title=" ">
<polygon fill="white" stroke="black" points="312,-0.5 312,-19.5 384,-19.5 384,-0.5 312,-0.5"/>
<text text-anchor="middle" x="348" y="-7.5" font-family="Helvetica,sans-Serif" font-size="10.00">play_sound</text>
</a>
</g>
</g>
<!-- Node10&#45;&gt;Node11 -->
<g id="edge11" class="edge">
<title>Node10&#45;&gt;Node11</title>
<path fill="none" stroke="midnightblue" d="M258.8,-10C272.24,-10 287.48,-10 301.46,-10"/>
<polygon fill="midnightblue" stroke="midnightblue" points="301.85,-13.5 311.85,-10 301.85,-6.5 301.85,-13.5"/>
</g>
</g>
</svg>
