<?xml version="1.0" encoding="UTF-8" standalone="no"?>
<!DOCTYPE svg PUBLIC "-//W3C//DTD SVG 1.1//EN"
 "http://www.w3.org/Graphics/SVG/1.1/DTD/svg11.dtd">
<!-- Generated by graphviz version 2.43.0 (0)
 -->
<!-- Title: include/PR/os_internal.h Pages: 1 -->
<!--zoomable 196 -->
<svg id="main" version="1.1" xmlns="http://www.w3.org/2000/svg" xmlns:xlink="http://www.w3.org/1999/xlink" xml:space="preserve" onload="init(evt)">
<style type="text/css"><![CDATA[
.edge:hover path { stroke: red; }
.edge:hover polygon { stroke: red; fill: red; }
]]></style>
<script type="text/javascript"><![CDATA[
var edges = document.getElementsByTagName('g');
if (edges && edges.length) {
  for (var i=0;i<edges.length;i++) {
    if (edges[i].id.substr(0,4)=='edge') {
      edges[i].setAttribute('class','edge');
    }
  }
}
]]></script>
        <defs>
                <circle id="rim" cx="0" cy="0" r="7"/>
                <circle id="rim2" cx="0" cy="0" r="3.5"/>
                <g id="zoomPlus">
                        <use xlink:href="#rim" fill="#404040">
                                <set attributeName="fill" to="#808080" begin="zoomplus.mouseover" end="zoomplus.mouseout"/>
                        </use>
                        <path d="M-4,0h8M0,-4v8" fill="none" stroke="white" stroke-width="1.5" pointer-events="none"/>
                </g>
                <g id="zoomMin">
                        <use xlink:href="#rim" fill="#404040">
                                <set attributeName="fill" to="#808080" begin="zoomminus.mouseover" end="zoomminus.mouseout"/>
                        </use>
                        <path d="M-4,0h8" fill="none" stroke="white" stroke-width="1.5" pointer-events="none"/>
                </g>
                <g id="dirArrow">
                        <path fill="none" stroke="white" stroke-width="1.5" d="M0,-3.0v7 M-2.5,-0.5L0,-3.0L2.5,-0.5"/>
                </g>
               <g id="resetDef">
                       <use xlink:href="#rim2" fill="#404040">
                               <set attributeName="fill" to="#808080" begin="reset.mouseover" end="reset.mouseout"/>
                       </use>
               </g>
        </defs>

<script type="text/javascript">
var viewWidth = 4879;
var viewHeight = 196;
var sectionId = 'dynsection-0';
</script>
<script xlink:href="svgpan.js"/>
<svg id="graph" class="graph">
<g id="viewport">
<title>include/PR/os_internal.h</title>
<polygon fill="white" stroke="transparent" points="-4,4 -4,-192 4875,-192 4875,4 -4,4"/>
<!-- Node1 -->
<g id="node1" class="node">
<title>Node1</title>
<g id="a_node1"><a xlink:title=" ">
<polygon fill="#bfbfbf" stroke="black" points="2802.5,-168.5 2802.5,-187.5 2936.5,-187.5 2936.5,-168.5 2802.5,-168.5"/>
<text text-anchor="middle" x="2869.5" y="-175.5" font-family="Helvetica,sans-Serif" font-size="10.00">include/PR/os_internal.h</text>
</a>
</g>
</g>
<!-- Node2 -->
<g id="node2" class="node">
<title>Node2</title>
<g id="a_node2"><a xlink:href="controller_8h.html" target="_top" xlink:title=" ">
<polygon fill="white" stroke="black" points="949,-112.5 949,-131.5 1052,-131.5 1052,-112.5 949,-112.5"/>
<text text-anchor="middle" x="1000.5" y="-119.5" font-family="Helvetica,sans-Serif" font-size="10.00">src/os/controller.h</text>
</a>
</g>
</g>
<!-- Node1&#45;&gt;Node2 -->
<g id="edge1" class="edge">
<title>Node1&#45;&gt;Node2</title>
<path fill="none" stroke="midnightblue" d="M2792.11,-174.76C2479.32,-165.73 1312.95,-132.03 1052.36,-124.5"/>
<polygon fill="midnightblue" stroke="midnightblue" points="2792.33,-178.27 2802.43,-175.06 2792.54,-171.27 2792.33,-178.27"/>
</g>
<!-- Node16 -->
<g id="node16" class="node">
<title>Node16</title>
<g id="a_node16"><a xlink:href="osCartRomInit_8c.html" target="_top" xlink:title=" ">
<polygon fill="white" stroke="black" points="2741.5,-112.5 2741.5,-131.5 2867.5,-131.5 2867.5,-112.5 2741.5,-112.5"/>
<text text-anchor="middle" x="2804.5" y="-119.5" font-family="Helvetica,sans-Serif" font-size="10.00">src/os/osCartRomInit.c</text>
</a>
</g>
</g>
<!-- Node1&#45;&gt;Node16 -->
<g id="edge15" class="edge">
<title>Node1&#45;&gt;Node16</title>
<path fill="none" stroke="midnightblue" d="M2851.23,-161.82C2839.58,-152.15 2824.9,-139.95 2815.13,-131.83"/>
<polygon fill="midnightblue" stroke="midnightblue" points="2849.13,-164.63 2859.06,-168.32 2853.6,-159.24 2849.13,-164.63"/>
</g>
<!-- Node17 -->
<g id="node17" class="node">
<title>Node17</title>
<g id="a_node17"><a xlink:href="piint_8h.html" target="_top" xlink:title=" ">
<polygon fill="white" stroke="black" points="4632,-112.5 4632,-131.5 4711,-131.5 4711,-112.5 4632,-112.5"/>
<text text-anchor="middle" x="4671.5" y="-119.5" font-family="Helvetica,sans-Serif" font-size="10.00">src/os/piint.h</text>
</a>
</g>
</g>
<!-- Node1&#45;&gt;Node17 -->
<g id="edge16" class="edge">
<title>Node1&#45;&gt;Node17</title>
<path fill="none" stroke="midnightblue" d="M2946.81,-174.68C3256.67,-165.4 4403,-131.05 4631.67,-124.19"/>
<polygon fill="midnightblue" stroke="midnightblue" points="2946.47,-171.19 2936.58,-174.99 2946.68,-178.19 2946.47,-171.19"/>
</g>
<!-- Node20 -->
<g id="node20" class="node">
<title>Node20</title>
<g id="a_node20"><a xlink:href="ultra64_8h.html" target="_top" xlink:title=" ">
<polygon fill="white" stroke="red" points="2885.5,-112.5 2885.5,-131.5 2983.5,-131.5 2983.5,-112.5 2885.5,-112.5"/>
<text text-anchor="middle" x="2934.5" y="-119.5" font-family="Helvetica,sans-Serif" font-size="10.00">include/ultra64.h</text>
</a>
</g>
</g>
<!-- Node1&#45;&gt;Node20 -->
<g id="edge19" class="edge">
<title>Node1&#45;&gt;Node20</title>
<path fill="none" stroke="midnightblue" d="M2887.77,-161.82C2899.42,-152.15 2914.1,-139.95 2923.87,-131.83"/>
<polygon fill="midnightblue" stroke="midnightblue" points="2885.4,-159.24 2879.94,-168.32 2889.87,-164.63 2885.4,-159.24"/>
</g>
<!-- Node3 -->
<g id="node3" class="node">
<title>Node3</title>
<g id="a_node3"><a xlink:href="contpfs_8c.html" target="_top" xlink:title=" ">
<polygon fill="white" stroke="black" points="320.5,-56.5 320.5,-75.5 412.5,-75.5 412.5,-56.5 320.5,-56.5"/>
<text text-anchor="middle" x="366.5" y="-63.5" font-family="Helvetica,sans-Serif" font-size="10.00">src/os/contpfs.c</text>
</a>
</g>
</g>
<!-- Node2&#45;&gt;Node3 -->
<g id="edge2" class="edge">
<title>Node2&#45;&gt;Node3</title>
<path fill="none" stroke="midnightblue" d="M938.64,-117.92C832.56,-112.24 609.19,-98.61 421.5,-76 418.62,-75.65 415.66,-75.26 412.67,-74.85"/>
<polygon fill="midnightblue" stroke="midnightblue" points="938.67,-121.42 948.85,-118.46 939.05,-114.43 938.67,-121.42"/>
</g>
<!-- Node4 -->
<g id="node4" class="node">
<title>Node4</title>
<g id="a_node4"><a xlink:href="contramread_8c.html" target="_top" xlink:title=" ">
<polygon fill="white" stroke="black" points="431,-56.5 431,-75.5 550,-75.5 550,-56.5 431,-56.5"/>
<text text-anchor="middle" x="490.5" y="-63.5" font-family="Helvetica,sans-Serif" font-size="10.00">src/os/contramread.c</text>
</a>
</g>
</g>
<!-- Node2&#45;&gt;Node4 -->
<g id="edge3" class="edge">
<title>Node2&#45;&gt;Node4</title>
<path fill="none" stroke="midnightblue" d="M938.82,-115.26C853.49,-107.18 694.67,-91.71 559.5,-76 556.5,-75.65 553.43,-75.28 550.33,-74.91"/>
<polygon fill="midnightblue" stroke="midnightblue" points="938.57,-118.75 948.85,-116.2 939.22,-111.78 938.57,-118.75"/>
</g>
<!-- Node5 -->
<g id="node5" class="node">
<title>Node5</title>
<g id="a_node5"><a xlink:href="contramwrite_8c.html" target="_top" xlink:title=" ">
<polygon fill="white" stroke="black" points="568.5,-56.5 568.5,-75.5 690.5,-75.5 690.5,-56.5 568.5,-56.5"/>
<text text-anchor="middle" x="629.5" y="-63.5" font-family="Helvetica,sans-Serif" font-size="10.00">src/os/contramwrite.c</text>
</a>
</g>
</g>
<!-- Node2&#45;&gt;Node5 -->
<g id="edge4" class="edge">
<title>Node2&#45;&gt;Node5</title>
<path fill="none" stroke="midnightblue" d="M938.95,-112.04C869.22,-101.89 756.41,-85.47 687.98,-75.51"/>
<polygon fill="midnightblue" stroke="midnightblue" points="938.51,-115.51 948.91,-113.49 939.52,-108.59 938.51,-115.51"/>
</g>
<!-- Node6 -->
<g id="node6" class="node">
<title>Node6</title>
<g id="a_node6"><a xlink:href="osPfsAllocateFile_8c.html" target="_top" xlink:title=" ">
<polygon fill="white" stroke="black" points="708.5,-56.5 708.5,-75.5 848.5,-75.5 848.5,-56.5 708.5,-56.5"/>
<text text-anchor="middle" x="778.5" y="-63.5" font-family="Helvetica,sans-Serif" font-size="10.00">src/os/osPfsAllocateFile.c</text>
</a>
</g>
</g>
<!-- Node2&#45;&gt;Node6 -->
<g id="edge5" class="edge">
<title>Node2&#45;&gt;Node6</title>
<path fill="none" stroke="midnightblue" d="M955.38,-110.02C913.44,-99.82 851.85,-84.84 813.51,-75.52"/>
<polygon fill="midnightblue" stroke="midnightblue" points="954.78,-113.48 965.32,-112.44 956.43,-106.68 954.78,-113.48"/>
</g>
<!-- Node7 -->
<g id="node7" class="node">
<title>Node7</title>
<g id="a_node7"><a xlink:href="osPfsChecker_8c.html" target="_top" xlink:title=" ">
<polygon fill="white" stroke="black" points="867,-56.5 867,-75.5 988,-75.5 988,-56.5 867,-56.5"/>
<text text-anchor="middle" x="927.5" y="-63.5" font-family="Helvetica,sans-Serif" font-size="10.00">src/os/osPfsChecker.c</text>
</a>
</g>
</g>
<!-- Node2&#45;&gt;Node7 -->
<g id="edge6" class="edge">
<title>Node2&#45;&gt;Node7</title>
<path fill="none" stroke="midnightblue" d="M980.36,-106.1C967.22,-96.38 950.52,-84.03 939.44,-75.83"/>
<polygon fill="midnightblue" stroke="midnightblue" points="978.65,-109.19 988.77,-112.32 982.81,-103.56 978.65,-109.19"/>
</g>
<!-- Node8 -->
<g id="node8" class="node">
<title>Node8</title>
<g id="a_node8"><a xlink:href="osPfsDeleteFile_8c.html" target="_top" xlink:title=" ">
<polygon fill="white" stroke="black" points="1006.5,-56.5 1006.5,-75.5 1138.5,-75.5 1138.5,-56.5 1006.5,-56.5"/>
<text text-anchor="middle" x="1072.5" y="-63.5" font-family="Helvetica,sans-Serif" font-size="10.00">src/os/osPfsDeleteFile.c</text>
</a>
</g>
</g>
<!-- Node2&#45;&gt;Node8 -->
<g id="edge7" class="edge">
<title>Node2&#45;&gt;Node8</title>
<path fill="none" stroke="midnightblue" d="M1020.37,-106.1C1033.32,-96.38 1049.8,-84.03 1060.72,-75.83"/>
<polygon fill="midnightblue" stroke="midnightblue" points="1017.97,-103.52 1012.07,-112.32 1022.17,-109.12 1017.97,-103.52"/>
</g>
<!-- Node9 -->
<g id="node9" class="node">
<title>Node9</title>
<g id="a_node9"><a xlink:href="osPfsFileState_8c.html" target="_top" xlink:title=" ">
<polygon fill="white" stroke="black" points="1157,-56.5 1157,-75.5 1282,-75.5 1282,-56.5 1157,-56.5"/>
<text text-anchor="middle" x="1219.5" y="-63.5" font-family="Helvetica,sans-Serif" font-size="10.00">src/os/osPfsFileState.c</text>
</a>
</g>
</g>
<!-- Node2&#45;&gt;Node9 -->
<g id="edge8" class="edge">
<title>Node2&#45;&gt;Node9</title>
<path fill="none" stroke="midnightblue" d="M1045.01,-110.02C1086.38,-99.82 1147.14,-84.84 1184.96,-75.52"/>
<polygon fill="midnightblue" stroke="midnightblue" points="1044.07,-106.65 1035.2,-112.44 1045.75,-113.45 1044.07,-106.65"/>
</g>
<!-- Node10 -->
<g id="node10" class="node">
<title>Node10</title>
<g id="a_node10"><a xlink:href="osPfsFreeBlocks_8c.html" target="_top" xlink:title=" ">
<polygon fill="white" stroke="black" points="1300.5,-56.5 1300.5,-75.5 1436.5,-75.5 1436.5,-56.5 1300.5,-56.5"/>
<text text-anchor="middle" x="1368.5" y="-63.5" font-family="Helvetica,sans-Serif" font-size="10.00">src/os/osPfsFreeBlocks.c</text>
</a>
</g>
</g>
<!-- Node2&#45;&gt;Node10 -->
<g id="edge9" class="edge">
<title>Node2&#45;&gt;Node10</title>
<path fill="none" stroke="midnightblue" d="M1062.36,-111.92C1131.53,-101.77 1242.68,-85.46 1310.32,-75.54"/>
<polygon fill="midnightblue" stroke="midnightblue" points="1061.44,-108.52 1052.06,-113.43 1062.46,-115.45 1061.44,-108.52"/>
</g>
<!-- Node11 -->
<g id="node11" class="node">
<title>Node11</title>
<g id="a_node11"><a xlink:href="osPfsInit_8c.html" target="_top" xlink:title=" ">
<polygon fill="white" stroke="black" points="1454.5,-56.5 1454.5,-75.5 1552.5,-75.5 1552.5,-56.5 1454.5,-56.5"/>
<text text-anchor="middle" x="1503.5" y="-63.5" font-family="Helvetica,sans-Serif" font-size="10.00">src/os/osPfsInit.c</text>
</a>
</g>
</g>
<!-- Node2&#45;&gt;Node11 -->
<g id="edge10" class="edge">
<title>Node2&#45;&gt;Node11</title>
<path fill="none" stroke="midnightblue" d="M1062.45,-115.78C1148.53,-108.3 1309.13,-93.46 1445.5,-76 1448.43,-75.62 1451.44,-75.22 1454.48,-74.79"/>
<polygon fill="midnightblue" stroke="midnightblue" points="1061.99,-112.31 1052.33,-116.66 1062.6,-119.28 1061.99,-112.31"/>
</g>
<!-- Node12 -->
<g id="node12" class="node">
<title>Node12</title>
<g id="a_node12"><a xlink:href="osPfsIsPlug_8c.html" target="_top" xlink:title=" ">
<polygon fill="white" stroke="black" points="1570.5,-56.5 1570.5,-75.5 1682.5,-75.5 1682.5,-56.5 1570.5,-56.5"/>
<text text-anchor="middle" x="1626.5" y="-63.5" font-family="Helvetica,sans-Serif" font-size="10.00">src/os/osPfsIsPlug.c</text>
</a>
</g>
</g>
<!-- Node2&#45;&gt;Node12 -->
<g id="edge11" class="edge">
<title>Node2&#45;&gt;Node12</title>
<path fill="none" stroke="midnightblue" d="M1062.29,-117.21C1165.74,-110.6 1380.5,-95.77 1561.5,-76 1564.33,-75.69 1567.23,-75.36 1570.15,-75"/>
<polygon fill="midnightblue" stroke="midnightblue" points="1061.79,-113.74 1052.03,-117.86 1062.23,-120.72 1061.79,-113.74"/>
</g>
<!-- Node13 -->
<g id="node13" class="node">
<title>Node13</title>
<g id="a_node13"><a xlink:href="osPfsNumFiles_8c.html" target="_top" xlink:title=" ">
<polygon fill="white" stroke="black" points="1700.5,-56.5 1700.5,-75.5 1828.5,-75.5 1828.5,-56.5 1700.5,-56.5"/>
<text text-anchor="middle" x="1764.5" y="-63.5" font-family="Helvetica,sans-Serif" font-size="10.00">src/os/osPfsNumFiles.c</text>
</a>
</g>
</g>
<!-- Node2&#45;&gt;Node13 -->
<g id="edge12" class="edge">
<title>Node2&#45;&gt;Node13</title>
<path fill="none" stroke="midnightblue" d="M1062.34,-118.17C1183.32,-112.37 1459.77,-97.81 1691.5,-76 1694.42,-75.72 1697.41,-75.43 1700.43,-75.11"/>
<polygon fill="midnightblue" stroke="midnightblue" points="1061.98,-114.68 1052.16,-118.66 1062.31,-121.68 1061.98,-114.68"/>
</g>
<!-- Node14 -->
<g id="node14" class="node">
<title>Node14</title>
<g id="a_node14"><a xlink:href="osPfsReadWriteFile_8c.html" target="_top" xlink:title=" ">
<polygon fill="white" stroke="black" points="0,-56.5 0,-75.5 151,-75.5 151,-56.5 0,-56.5"/>
<text text-anchor="middle" x="75.5" y="-63.5" font-family="Helvetica,sans-Serif" font-size="10.00">src/os/osPfsReadWriteFile.c</text>
</a>
</g>
</g>
<!-- Node2&#45;&gt;Node14 -->
<g id="edge13" class="edge">
<title>Node2&#45;&gt;Node14</title>
<path fill="none" stroke="midnightblue" d="M938.7,-118.82C799.47,-113.67 450.63,-99.37 159.5,-76 156.72,-75.78 153.89,-75.54 151.04,-75.29"/>
<polygon fill="midnightblue" stroke="midnightblue" points="938.64,-122.32 948.76,-119.19 938.89,-115.33 938.64,-122.32"/>
</g>
<!-- Node15 -->
<g id="node15" class="node">
<title>Node15</title>
<g id="a_node15"><a xlink:href="osPfsSearchFile_8c.html" target="_top" xlink:title=" ">
<polygon fill="white" stroke="black" points="169,-56.5 169,-75.5 302,-75.5 302,-56.5 169,-56.5"/>
<text text-anchor="middle" x="235.5" y="-63.5" font-family="Helvetica,sans-Serif" font-size="10.00">src/os/osPfsSearchFile.c</text>
</a>
</g>
</g>
<!-- Node2&#45;&gt;Node15 -->
<g id="edge14" class="edge">
<title>Node2&#45;&gt;Node15</title>
<path fill="none" stroke="midnightblue" d="M938.4,-118.04C817.54,-112.04 542.32,-97.19 311.5,-76 308.46,-75.72 305.35,-75.42 302.21,-75.1"/>
<polygon fill="midnightblue" stroke="midnightblue" points="938.41,-121.55 948.57,-118.54 938.75,-114.56 938.41,-121.55"/>
</g>
<!-- Node18 -->
<g id="node18" class="node">
<title>Node18</title>
<g id="a_node18"><a xlink:href="____osLeoInterrupt_8c.html" target="_top" xlink:title=" ">
<polygon fill="white" stroke="black" points="4603,-56.5 4603,-75.5 4740,-75.5 4740,-56.5 4603,-56.5"/>
<text text-anchor="middle" x="4671.5" y="-63.5" font-family="Helvetica,sans-Serif" font-size="10.00">src/os/__osLeoInterrupt.c</text>
</a>
</g>
</g>
<!-- Node17&#45;&gt;Node18 -->
<g id="edge17" class="edge">
<title>Node17&#45;&gt;Node18</title>
<path fill="none" stroke="midnightblue" d="M4671.5,-101.8C4671.5,-92.91 4671.5,-82.78 4671.5,-75.75"/>
<polygon fill="midnightblue" stroke="midnightblue" points="4668,-102.08 4671.5,-112.08 4675,-102.08 4668,-102.08"/>
</g>
<!-- Node19 -->
<g id="node19" class="node">
<title>Node19</title>
<g id="a_node19"><a xlink:href="leointerrupt_8c.html" target="_top" xlink:title=" ">
<polygon fill="white" stroke="black" points="4758,-56.5 4758,-75.5 4871,-75.5 4871,-56.5 4758,-56.5"/>
<text text-anchor="middle" x="4814.5" y="-63.5" font-family="Helvetica,sans-Serif" font-size="10.00">src/os/leointerrupt.c</text>
</a>
</g>
</g>
<!-- Node17&#45;&gt;Node19 -->
<g id="edge18" class="edge">
<title>Node17&#45;&gt;Node19</title>
<path fill="none" stroke="midnightblue" d="M4703.53,-108.91C4730.41,-98.75 4768.14,-84.51 4791.95,-75.52"/>
<polygon fill="midnightblue" stroke="midnightblue" points="4702.28,-105.64 4694.16,-112.44 4704.75,-112.19 4702.28,-105.64"/>
</g>
<!-- Node20&#45;&gt;Node18 -->
<g id="edge68" class="edge">
<title>Node20&#45;&gt;Node18</title>
<path fill="none" stroke="midnightblue" d="M2993.91,-121.27C3209.24,-121.85 3968.93,-120.42 4593.5,-76 4596.49,-75.79 4599.54,-75.54 4602.63,-75.28"/>
<polygon fill="midnightblue" stroke="midnightblue" points="2993.78,-117.77 2983.77,-121.24 2993.76,-124.77 2993.78,-117.77"/>
</g>
<!-- Node21 -->
<g id="node21" class="node">
<title>Node21</title>
<g id="a_node21"><a xlink:href="effects_8c.html" target="_top" xlink:title=" ">
<polygon fill="white" stroke="black" points="1808,-0.5 1808,-19.5 1913,-19.5 1913,-0.5 1808,-0.5"/>
<text text-anchor="middle" x="1860.5" y="-7.5" font-family="Helvetica,sans-Serif" font-size="10.00">src/audio/effects.c</text>
</a>
</g>
</g>
<!-- Node20&#45;&gt;Node21 -->
<g id="edge20" class="edge">
<title>Node20&#45;&gt;Node21</title>
<path fill="none" stroke="midnightblue" d="M2875.5,-112.02C2540.07,-79.08 2449.97,-125.04 2120.5,-76 2084.68,-70.67 2076.63,-64.81 2041.5,-56 1990.62,-43.23 1931.65,-28.61 1895.21,-19.58"/>
<polygon fill="midnightblue" stroke="midnightblue" points="2875.2,-115.51 2885.5,-113.02 2875.9,-108.55 2875.2,-115.51"/>
</g>
<!-- Node22 -->
<g id="node22" class="node">
<title>Node22</title>
<g id="a_node22"><a xlink:href="external_8c.html" target="_top" xlink:title=" ">
<polygon fill="white" stroke="black" points="2611,-0.5 2611,-19.5 2724,-19.5 2724,-0.5 2611,-0.5"/>
<text text-anchor="middle" x="2667.5" y="-7.5" font-family="Helvetica,sans-Serif" font-size="10.00">src/audio/external.c</text>
</a>
</g>
</g>
<!-- Node20&#45;&gt;Node22 -->
<g id="edge21" class="edge">
<title>Node20&#45;&gt;Node22</title>
<path fill="none" stroke="midnightblue" d="M2875.44,-111.43C2806.39,-100.03 2700.55,-81.79 2693.5,-76 2676.03,-61.65 2670.22,-33.84 2668.35,-19.7"/>
<polygon fill="midnightblue" stroke="midnightblue" points="2874.91,-114.89 2885.35,-113.06 2876.05,-107.99 2874.91,-114.89"/>
</g>
<!-- Node23 -->
<g id="node23" class="node">
<title>Node23</title>
<g id="a_node23"><a xlink:href="heap_8c.html" target="_top" xlink:title=" ">
<polygon fill="white" stroke="black" points="3176.5,-56.5 3176.5,-75.5 3272.5,-75.5 3272.5,-56.5 3176.5,-56.5"/>
<text text-anchor="middle" x="3224.5" y="-63.5" font-family="Helvetica,sans-Serif" font-size="10.00">src/audio/heap.c</text>
</a>
</g>
</g>
<!-- Node20&#45;&gt;Node23 -->
<g id="edge22" class="edge">
<title>Node20&#45;&gt;Node23</title>
<path fill="none" stroke="midnightblue" d="M2990.35,-110.6C3045.15,-100.4 3127.73,-85.02 3178.76,-75.52"/>
<polygon fill="midnightblue" stroke="midnightblue" points="2989.64,-107.17 2980.45,-112.44 2990.92,-114.05 2989.64,-107.17"/>
</g>
<!-- Node24 -->
<g id="node24" class="node">
<title>Node24</title>
<g id="a_node24"><a xlink:href="internal_8h.html" target="_top" xlink:title=" ">
<polygon fill="white" stroke="red" points="1922.5,-56.5 1922.5,-75.5 2032.5,-75.5 2032.5,-56.5 1922.5,-56.5"/>
<text text-anchor="middle" x="1977.5" y="-63.5" font-family="Helvetica,sans-Serif" font-size="10.00">src/audio/internal.h</text>
</a>
</g>
</g>
<!-- Node20&#45;&gt;Node24 -->
<g id="edge23" class="edge">
<title>Node20&#45;&gt;Node24</title>
<path fill="none" stroke="midnightblue" d="M2875.21,-111.98C2522.42,-77.21 2430.59,-99.2 2080.5,-76 2064.92,-74.97 2048.03,-73.6 2032.53,-72.24"/>
<polygon fill="midnightblue" stroke="midnightblue" points="2874.89,-115.47 2885.19,-112.97 2875.58,-108.5 2874.89,-115.47"/>
</g>
<!-- Node28 -->
<g id="node25" class="node">
<title>Node28</title>
<g id="a_node25"><a xlink:href="load_8c.html" target="_top" xlink:title=" ">
<polygon fill="white" stroke="black" points="1931,-0.5 1931,-19.5 2024,-19.5 2024,-0.5 1931,-0.5"/>
<text text-anchor="middle" x="1977.5" y="-7.5" font-family="Helvetica,sans-Serif" font-size="10.00">src/audio/load.c</text>
</a>
</g>
</g>
<!-- Node20&#45;&gt;Node28 -->
<g id="edge29" class="edge">
<title>Node20&#45;&gt;Node28</title>
<path fill="none" stroke="midnightblue" d="M2875.3,-112C2578.54,-82.1 2497.94,-124.24 2207.5,-76 2130.34,-63.18 2042.11,-34 2000.95,-19.5"/>
<polygon fill="midnightblue" stroke="midnightblue" points="2875.19,-115.5 2885.5,-113.04 2875.91,-108.54 2875.19,-115.5"/>
</g>
<!-- Node29 -->
<g id="node26" class="node">
<title>Node29</title>
<g id="a_node26"><a xlink:href="playback_8c.html" target="_top" xlink:title=" ">
<polygon fill="white" stroke="black" points="2042.5,-0.5 2042.5,-19.5 2158.5,-19.5 2158.5,-0.5 2042.5,-0.5"/>
<text text-anchor="middle" x="2100.5" y="-7.5" font-family="Helvetica,sans-Serif" font-size="10.00">src/audio/playback.c</text>
</a>
</g>
</g>
<!-- Node20&#45;&gt;Node29 -->
<g id="edge30" class="edge">
<title>Node20&#45;&gt;Node29</title>
<path fill="none" stroke="midnightblue" d="M2875.23,-111.98C2611.68,-84.83 2538.33,-128.33 2282.5,-76 2220.54,-63.32 2151.15,-34.07 2118.86,-19.53"/>
<polygon fill="midnightblue" stroke="midnightblue" points="2875.18,-115.5 2885.49,-113.07 2875.92,-108.54 2875.18,-115.5"/>
</g>
<!-- Node31 -->
<g id="node27" class="node">
<title>Node31</title>
<g id="a_node27"><a xlink:href="seqplayer_8c.html" target="_top" xlink:title=" ">
<polygon fill="white" stroke="black" points="1534,-0.5 1534,-19.5 1653,-19.5 1653,-0.5 1534,-0.5"/>
<text text-anchor="middle" x="1593.5" y="-7.5" font-family="Helvetica,sans-Serif" font-size="10.00">src/audio/seqplayer.c</text>
</a>
</g>
</g>
<!-- Node20&#45;&gt;Node31 -->
<g id="edge32" class="edge">
<title>Node20&#45;&gt;Node31</title>
<path fill="none" stroke="midnightblue" d="M2875.16,-112.04C2637.76,-92.18 2081.8,-139.13 1870.5,-76 1854.07,-71.09 1853.53,-62.1 1837.5,-56 1804.59,-43.48 1714.19,-28.59 1653.16,-19.47"/>
<polygon fill="midnightblue" stroke="midnightblue" points="2874.92,-115.54 2885.19,-112.94 2875.54,-108.56 2874.92,-115.54"/>
</g>
<!-- Node32 -->
<g id="node28" class="node">
<title>Node32</title>
<g id="a_node28"><a xlink:href="synthesis_8c.html" target="_top" xlink:title=" ">
<polygon fill="white" stroke="black" points="1671,-0.5 1671,-19.5 1790,-19.5 1790,-0.5 1671,-0.5"/>
<text text-anchor="middle" x="1730.5" y="-7.5" font-family="Helvetica,sans-Serif" font-size="10.00">src/audio/synthesis.c</text>
</a>
</g>
</g>
<!-- Node20&#45;&gt;Node32 -->
<g id="edge33" class="edge">
<title>Node20&#45;&gt;Node32</title>
<path fill="none" stroke="midnightblue" d="M2874.9,-112.01C2647.01,-92.57 2118.54,-125.39 1913.5,-76 1893.01,-71.06 1890.13,-63.68 1870.5,-56 1833.3,-41.43 1789.26,-27.86 1760.65,-19.51"/>
<polygon fill="midnightblue" stroke="midnightblue" points="2874.91,-115.53 2885.19,-112.95 2875.55,-108.56 2874.91,-115.53"/>
</g>
<!-- Node30 -->
<g id="node29" class="node">
<title>Node30</title>
<g id="a_node29"><a xlink:href="port__eu_8c.html" target="_top" xlink:title=" ">
<polygon fill="white" stroke="black" points="3291,-56.5 3291,-75.5 3400,-75.5 3400,-56.5 3291,-56.5"/>
<text text-anchor="middle" x="3345.5" y="-63.5" font-family="Helvetica,sans-Serif" font-size="10.00">src/audio/port_eu.c</text>
</a>
</g>
</g>
<!-- Node20&#45;&gt;Node30 -->
<g id="edge31" class="edge">
<title>Node20&#45;&gt;Node30</title>
<path fill="none" stroke="midnightblue" d="M2993.91,-113.49C3063.03,-104.71 3180.58,-89.64 3281.5,-76 3284.5,-75.59 3287.58,-75.17 3290.69,-74.75"/>
<polygon fill="midnightblue" stroke="midnightblue" points="2993.13,-110.06 2983.65,-114.79 2994.01,-117.01 2993.13,-110.06"/>
</g>
<!-- Node40 -->
<g id="node30" class="node">
<title>Node40</title>
<g id="a_node30"><a xlink:href="camera_8c.html" target="_top" xlink:title=" ">
<polygon fill="white" stroke="black" points="2742,-0.5 2742,-19.5 2821,-19.5 2821,-0.5 2742,-0.5"/>
<text text-anchor="middle" x="2781.5" y="-7.5" font-family="Helvetica,sans-Serif" font-size="10.00">src/camera.c</text>
</a>
</g>
</g>
<!-- Node20&#45;&gt;Node40 -->
<g id="edge34" class="edge">
<title>Node20&#45;&gt;Node40</title>
<path fill="none" stroke="midnightblue" d="M2875.19,-111.47C2808.02,-100.39 2707.07,-82.75 2701.5,-76 2681.79,-52.12 2725.26,-30.83 2755.51,-19.54"/>
<polygon fill="midnightblue" stroke="midnightblue" points="2874.82,-114.95 2885.26,-113.12 2875.96,-108.04 2874.82,-114.95"/>
</g>
<!-- Node41 -->
<g id="node31" class="node">
<title>Node41</title>
<g id="a_node31"><a xlink:href="code__800029B0_8c.html" target="_top" xlink:title=" ">
<polygon fill="white" stroke="black" points="2839,-0.5 2839,-19.5 2958,-19.5 2958,-0.5 2839,-0.5"/>
<text text-anchor="middle" x="2898.5" y="-7.5" font-family="Helvetica,sans-Serif" font-size="10.00">src/code_800029B0.c</text>
</a>
</g>
</g>
<!-- Node20&#45;&gt;Node41 -->
<g id="edge35" class="edge">
<title>Node20&#45;&gt;Node41</title>
<path fill="none" stroke="midnightblue" d="M2910.13,-106.73C2899.55,-99.09 2888.28,-88.64 2882.5,-76 2873.8,-56.97 2885.25,-32.57 2892.81,-19.75"/>
<polygon fill="midnightblue" stroke="midnightblue" points="2908.46,-109.82 2918.72,-112.47 2912.35,-104 2908.46,-109.82"/>
</g>
<!-- Node42 -->
<g id="node32" class="node">
<title>Node42</title>
<g id="a_node32"><a xlink:href="code__800029B0_8h.html" target="_top" xlink:title=" ">
<polygon fill="white" stroke="red" points="2710.5,-56.5 2710.5,-75.5 2830.5,-75.5 2830.5,-56.5 2710.5,-56.5"/>
<text text-anchor="middle" x="2770.5" y="-63.5" font-family="Helvetica,sans-Serif" font-size="10.00">src/code_800029B0.h</text>
</a>
</g>
</g>
<!-- Node20&#45;&gt;Node42 -->
<g id="edge36" class="edge">
<title>Node20&#45;&gt;Node42</title>
<path fill="none" stroke="midnightblue" d="M2898.98,-109.3C2868.08,-99.13 2824.03,-84.62 2796.36,-75.52"/>
<polygon fill="midnightblue" stroke="midnightblue" points="2897.92,-112.64 2908.51,-112.44 2900.11,-105.99 2897.92,-112.64"/>
</g>
<!-- Node43 -->
<g id="node33" class="node">
<title>Node43</title>
<g id="a_node33"><a xlink:href="code__80005FD0_8c.html" target="_top" xlink:title=" ">
<polygon fill="white" stroke="black" points="2976.5,-0.5 2976.5,-19.5 3096.5,-19.5 3096.5,-0.5 2976.5,-0.5"/>
<text text-anchor="middle" x="3036.5" y="-7.5" font-family="Helvetica,sans-Serif" font-size="10.00">src/code_80005FD0.c</text>
</a>
</g>
</g>
<!-- Node20&#45;&gt;Node43 -->
<g id="edge47" class="edge">
<title>Node20&#45;&gt;Node43</title>
<path fill="none" stroke="midnightblue" d="M2923.76,-103.14C2916.91,-89.21 2910.95,-69.95 2920.5,-56 2933.62,-36.84 2956.17,-25.84 2977.93,-19.52"/>
<polygon fill="midnightblue" stroke="midnightblue" points="2920.83,-105.09 2928.69,-112.19 2926.98,-101.74 2920.83,-105.09"/>
</g>
<!-- Node44 -->
<g id="node34" class="node">
<title>Node44</title>
<g id="a_node34"><a xlink:href="code__80057C60_8c.html" target="_top" xlink:title=" ">
<polygon fill="white" stroke="black" points="2337,-0.5 2337,-19.5 2456,-19.5 2456,-0.5 2337,-0.5"/>
<text text-anchor="middle" x="2396.5" y="-7.5" font-family="Helvetica,sans-Serif" font-size="10.00">src/code_80057C60.c</text>
</a>
</g>
</g>
<!-- Node20&#45;&gt;Node44 -->
<g id="edge49" class="edge">
<title>Node20&#45;&gt;Node44</title>
<path fill="none" stroke="midnightblue" d="M2875.22,-111.85C2760.63,-95.42 2729.08,-99.52 2619.5,-76 2546.36,-60.3 2462.13,-33.23 2421.28,-19.5"/>
<polygon fill="midnightblue" stroke="midnightblue" points="2875.06,-115.36 2885.46,-113.34 2876.07,-108.43 2875.06,-115.36"/>
</g>
<!-- Node45 -->
<g id="node35" class="node">
<title>Node45</title>
<g id="a_node35"><a xlink:href="code__8006E9C0_8c.html" target="_top" xlink:title=" ">
<polygon fill="white" stroke="black" points="3115,-0.5 3115,-19.5 3234,-19.5 3234,-0.5 3115,-0.5"/>
<text text-anchor="middle" x="3174.5" y="-7.5" font-family="Helvetica,sans-Serif" font-size="10.00">src/code_8006E9C0.c</text>
</a>
</g>
</g>
<!-- Node20&#45;&gt;Node45 -->
<g id="edge51" class="edge">
<title>Node20&#45;&gt;Node45</title>
<path fill="none" stroke="midnightblue" d="M2936.5,-102.33C2939.08,-87.59 2944.99,-67.64 2958.5,-56 2970.71,-45.48 3060.17,-29.35 3120.06,-19.53"/>
<polygon fill="midnightblue" stroke="midnightblue" points="2933.01,-101.97 2935.1,-112.35 2939.95,-102.93 2933.01,-101.97"/>
</g>
<!-- Node46 -->
<g id="node36" class="node">
<title>Node46</title>
<g id="a_node36"><a xlink:href="code__80071F00_8c.html" target="_top" xlink:title=" ">
<polygon fill="white" stroke="black" points="3391,-0.5 3391,-19.5 3510,-19.5 3510,-0.5 3391,-0.5"/>
<text text-anchor="middle" x="3450.5" y="-7.5" font-family="Helvetica,sans-Serif" font-size="10.00">src/code_80071F00.c</text>
</a>
</g>
</g>
<!-- Node20&#45;&gt;Node46 -->
<g id="edge52" class="edge">
<title>Node20&#45;&gt;Node46</title>
<path fill="none" stroke="midnightblue" d="M2993.83,-111.16C3032.81,-103.75 3084.54,-92.09 3128.5,-76 3146.79,-69.3 3148.98,-62.05 3167.5,-56 3188.31,-49.2 3314.27,-30.48 3390.96,-19.45"/>
<polygon fill="midnightblue" stroke="midnightblue" points="2992.89,-107.78 2983.7,-113.05 2994.17,-114.66 2992.89,-107.78"/>
</g>
<!-- Node47 -->
<g id="node37" class="node">
<title>Node47</title>
<g id="a_node37"><a xlink:href="code__8008C1D0_8c.html" target="_top" xlink:title=" ">
<polygon fill="white" stroke="black" points="3252,-0.5 3252,-19.5 3373,-19.5 3373,-0.5 3252,-0.5"/>
<text text-anchor="middle" x="3312.5" y="-7.5" font-family="Helvetica,sans-Serif" font-size="10.00">src/code_8008C1D0.c</text>
</a>
</g>
</g>
<!-- Node20&#45;&gt;Node47 -->
<g id="edge54" class="edge">
<title>Node20&#45;&gt;Node47</title>
<path fill="none" stroke="midnightblue" d="M2944.74,-103.51C2954.66,-88.28 2971.16,-66.98 2991.5,-56 2997.19,-52.93 3160.53,-31.02 3251.96,-18.95"/>
<polygon fill="midnightblue" stroke="midnightblue" points="2941.74,-101.71 2939.44,-112.05 2947.69,-105.4 2941.74,-101.71"/>
</g>
<!-- Node49 -->
<g id="node38" class="node">
<title>Node49</title>
<g id="a_node38"><a xlink:href="code__80091750_8c.html" target="_top" xlink:title=" ">
<polygon fill="white" stroke="black" points="2474,-0.5 2474,-19.5 2593,-19.5 2593,-0.5 2474,-0.5"/>
<text text-anchor="middle" x="2533.5" y="-7.5" font-family="Helvetica,sans-Serif" font-size="10.00">src/code_80091750.c</text>
</a>
</g>
</g>
<!-- Node20&#45;&gt;Node49 -->
<g id="edge57" class="edge">
<title>Node20&#45;&gt;Node49</title>
<path fill="none" stroke="midnightblue" d="M2875.25,-111.53C2804.77,-100.14 2694.25,-81.81 2675.5,-76 2627.33,-61.07 2574.2,-33.52 2548.74,-19.57"/>
<polygon fill="midnightblue" stroke="midnightblue" points="2874.91,-115.02 2885.34,-113.16 2876.02,-108.11 2874.91,-115.02"/>
</g>
<!-- Node70 -->
<g id="node39" class="node">
<title>Node70</title>
<g id="a_node39"><a xlink:href="code__80004740_8c.html" target="_top" xlink:title=" ">
<polygon fill="white" stroke="black" points="3418,-56.5 3418,-75.5 3537,-75.5 3537,-56.5 3418,-56.5"/>
<text text-anchor="middle" x="3477.5" y="-63.5" font-family="Helvetica,sans-Serif" font-size="10.00">src/code_80004740.c</text>
</a>
</g>
</g>
<!-- Node20&#45;&gt;Node70 -->
<g id="edge46" class="edge">
<title>Node20&#45;&gt;Node70</title>
<path fill="none" stroke="midnightblue" d="M2993.68,-116.05C3083.46,-108.4 3259.41,-92.8 3408.5,-76 3411.5,-75.66 3414.57,-75.3 3417.68,-74.93"/>
<polygon fill="midnightblue" stroke="midnightblue" points="2993.36,-112.57 2983.69,-116.9 2993.95,-119.54 2993.36,-112.57"/>
</g>
<!-- Node71 -->
<g id="node40" class="node">
<title>Node71</title>
<g id="a_node40"><a xlink:href="code__8003DC40_8c.html" target="_top" xlink:title=" ">
<polygon fill="white" stroke="black" points="3555,-56.5 3555,-75.5 3676,-75.5 3676,-56.5 3555,-56.5"/>
<text text-anchor="middle" x="3615.5" y="-63.5" font-family="Helvetica,sans-Serif" font-size="10.00">src/code_8003DC40.c</text>
</a>
</g>
</g>
<!-- Node20&#45;&gt;Node71 -->
<g id="edge48" class="edge">
<title>Node20&#45;&gt;Node71</title>
<path fill="none" stroke="midnightblue" d="M2993.84,-117.7C3103.14,-111.4 3343.54,-96.41 3545.5,-76 3548.55,-75.69 3551.67,-75.36 3554.82,-75.01"/>
<polygon fill="midnightblue" stroke="midnightblue" points="2993.47,-114.22 2983.68,-118.29 2993.87,-121.21 2993.47,-114.22"/>
</g>
<!-- Node72 -->
<g id="node41" class="node">
<title>Node72</title>
<g id="a_node41"><a xlink:href="code__80057C60__var_8c.html" target="_top" xlink:title=" ">
<polygon fill="white" stroke="black" points="3694.5,-56.5 3694.5,-75.5 3834.5,-75.5 3834.5,-56.5 3694.5,-56.5"/>
<text text-anchor="middle" x="3764.5" y="-63.5" font-family="Helvetica,sans-Serif" font-size="10.00">src/code_80057C60_var.c</text>
</a>
</g>
</g>
<!-- Node20&#45;&gt;Node72 -->
<g id="edge50" class="edge">
<title>Node20&#45;&gt;Node72</title>
<path fill="none" stroke="midnightblue" d="M2993.98,-118.49C3120.96,-112.89 3427.89,-98.12 3684.5,-76 3687.7,-75.72 3690.98,-75.42 3694.28,-75.11"/>
<polygon fill="midnightblue" stroke="midnightblue" points="2993.54,-115 2983.71,-118.94 2993.85,-121.99 2993.54,-115"/>
</g>
<!-- Node73 -->
<g id="node42" class="node">
<title>Node73</title>
<g id="a_node42"><a xlink:href="code__80086E70_8c.html" target="_top" xlink:title=" ">
<polygon fill="white" stroke="black" points="3853,-56.5 3853,-75.5 3972,-75.5 3972,-56.5 3853,-56.5"/>
<text text-anchor="middle" x="3912.5" y="-63.5" font-family="Helvetica,sans-Serif" font-size="10.00">src/code_80086E70.c</text>
</a>
</g>
</g>
<!-- Node20&#45;&gt;Node73 -->
<g id="edge53" class="edge">
<title>Node20&#45;&gt;Node73</title>
<path fill="none" stroke="midnightblue" d="M2993.9,-119.71C3139.17,-116.19 3523.84,-104.71 3843.5,-76 3846.51,-75.73 3849.59,-75.43 3852.69,-75.1"/>
<polygon fill="midnightblue" stroke="midnightblue" points="2993.78,-116.21 2983.86,-119.95 2993.94,-123.21 2993.78,-116.21"/>
</g>
<!-- Node74 -->
<g id="node43" class="node">
<title>Node74</title>
<g id="a_node43"><a xlink:href="code__80091440_8h.html" target="_top" xlink:title=" ">
<polygon fill="white" stroke="red" points="3001,-56.5 3001,-75.5 3120,-75.5 3120,-56.5 3001,-56.5"/>
<text text-anchor="middle" x="3060.5" y="-63.5" font-family="Helvetica,sans-Serif" font-size="10.00">src/code_80091440.h</text>
</a>
</g>
</g>
<!-- Node20&#45;&gt;Node74 -->
<g id="edge55" class="edge">
<title>Node20&#45;&gt;Node74</title>
<path fill="none" stroke="midnightblue" d="M2963.66,-108.5C2987.28,-98.38 3019.93,-84.39 3040.63,-75.52"/>
<polygon fill="midnightblue" stroke="midnightblue" points="2962.28,-105.29 2954.47,-112.44 2965.04,-111.72 2962.28,-105.29"/>
</g>
<!-- Node75 -->
<g id="node44" class="node">
<title>Node75</title>
<g id="a_node44"><a xlink:href="code__800AF9B0_8c.html" target="_top" xlink:title=" ">
<polygon fill="white" stroke="black" points="3990.5,-56.5 3990.5,-75.5 4110.5,-75.5 4110.5,-56.5 3990.5,-56.5"/>
<text text-anchor="middle" x="4050.5" y="-63.5" font-family="Helvetica,sans-Serif" font-size="10.00">src/code_800AF9B0.c</text>
</a>
</g>
</g>
<!-- Node20&#45;&gt;Node75 -->
<g id="edge58" class="edge">
<title>Node20&#45;&gt;Node75</title>
<path fill="none" stroke="midnightblue" d="M2993.69,-120.21C3153.28,-117.71 3605.7,-108.1 3980.5,-76 3983.67,-75.73 3986.93,-75.42 3990.21,-75.08"/>
<polygon fill="midnightblue" stroke="midnightblue" points="2993.55,-116.71 2983.61,-120.37 2993.66,-123.71 2993.55,-116.71"/>
</g>
<!-- Node76 -->
<g id="node45" class="node">
<title>Node76</title>
<g id="a_node45"><a xlink:href="crash__screen_8c.html" target="_top" xlink:title=" ">
<polygon fill="white" stroke="black" points="4170.5,-0.5 4170.5,-19.5 4276.5,-19.5 4276.5,-0.5 4170.5,-0.5"/>
<text text-anchor="middle" x="4223.5" y="-7.5" font-family="Helvetica,sans-Serif" font-size="10.00">src/crash_screen.c</text>
</a>
</g>
</g>
<!-- Node20&#45;&gt;Node76 -->
<g id="edge59" class="edge">
<title>Node20&#45;&gt;Node76</title>
<path fill="none" stroke="midnightblue" d="M2993.9,-121.23C3244.01,-121.91 4200.53,-121.5 4244.5,-76 4259.66,-60.31 4242.18,-33.59 4231.15,-19.81"/>
<polygon fill="midnightblue" stroke="midnightblue" points="2993.58,-117.73 2983.57,-121.2 2993.56,-124.73 2993.58,-117.73"/>
</g>
<!-- Node77 -->
<g id="node46" class="node">
<title>Node77</title>
<g id="a_node46"><a xlink:href="crash__screen_8h.html" target="_top" xlink:title=" ">
<polygon fill="white" stroke="red" points="4129,-56.5 4129,-75.5 4236,-75.5 4236,-56.5 4129,-56.5"/>
<text text-anchor="middle" x="4182.5" y="-63.5" font-family="Helvetica,sans-Serif" font-size="10.00">src/crash_screen.h</text>
</a>
</g>
</g>
<!-- Node20&#45;&gt;Node77 -->
<g id="edge60" class="edge">
<title>Node20&#45;&gt;Node77</title>
<path fill="none" stroke="midnightblue" d="M2993.92,-120.92C3167.55,-120.23 3688.98,-114.82 4119.5,-76 4122.58,-75.72 4125.74,-75.4 4128.93,-75.04"/>
<polygon fill="midnightblue" stroke="midnightblue" points="2993.71,-117.42 2983.72,-120.96 2993.73,-124.42 2993.71,-117.42"/>
</g>
<!-- Node79 -->
<g id="node47" class="node">
<title>Node79</title>
<g id="a_node47"><a xlink:href="data__800E45C0_8h.html" target="_top" xlink:title=" ">
<polygon fill="white" stroke="red" points="4293,-56.5 4293,-75.5 4436,-75.5 4436,-56.5 4293,-56.5"/>
<text text-anchor="middle" x="4364.5" y="-63.5" font-family="Helvetica,sans-Serif" font-size="10.00">src/data/data_800E45C0.h</text>
</a>
</g>
</g>
<!-- Node20&#45;&gt;Node79 -->
<g id="edge62" class="edge">
<title>Node20&#45;&gt;Node79</title>
<path fill="none" stroke="midnightblue" d="M2993.92,-120.51C3182.26,-118.64 3782.75,-110.2 4278.5,-76 4283.14,-75.68 4287.92,-75.31 4292.74,-74.89"/>
<polygon fill="midnightblue" stroke="midnightblue" points="2993.65,-117.01 2983.69,-120.61 2993.72,-124.01 2993.65,-117.01"/>
</g>
<!-- Node81 -->
<g id="node48" class="node">
<title>Node81</title>
<g id="a_node48"><a xlink:href="data__800E8700_8c.html" target="_top" xlink:title=" ">
<polygon fill="white" stroke="black" points="2176.5,-0.5 2176.5,-19.5 2318.5,-19.5 2318.5,-0.5 2176.5,-0.5"/>
<text text-anchor="middle" x="2247.5" y="-7.5" font-family="Helvetica,sans-Serif" font-size="10.00">src/data/data_800E8700.c</text>
</a>
</g>
</g>
<!-- Node20&#45;&gt;Node81 -->
<g id="edge63" class="edge">
<title>Node20&#45;&gt;Node81</title>
<path fill="none" stroke="midnightblue" d="M2875.41,-112.08C2736.7,-99.72 2427.1,-124.97 2315.5,-76 2287.38,-63.66 2263.89,-34.39 2253.39,-19.71"/>
<polygon fill="midnightblue" stroke="midnightblue" points="2875.2,-115.57 2885.49,-113.08 2875.89,-108.61 2875.2,-115.57"/>
</g>
<!-- Node82 -->
<g id="node49" class="node">
<title>Node82</title>
<g id="a_node49"><a xlink:href="data__800E8700_8h.html" target="_top" xlink:title=" ">
<polygon fill="white" stroke="black" points="2325,-56.5 2325,-75.5 2468,-75.5 2468,-56.5 2325,-56.5"/>
<text text-anchor="middle" x="2396.5" y="-63.5" font-family="Helvetica,sans-Serif" font-size="10.00">src/data/data_800E8700.h</text>
</a>
</g>
</g>
<!-- Node20&#45;&gt;Node82 -->
<g id="edge64" class="edge">
<title>Node20&#45;&gt;Node82</title>
<path fill="none" stroke="midnightblue" d="M2875.11,-111.9C2724.39,-93.39 2560.06,-79.53 2468.21,-72.36"/>
<polygon fill="midnightblue" stroke="midnightblue" points="2875.13,-115.43 2885.48,-113.18 2875.99,-108.48 2875.13,-115.43"/>
</g>
<!-- Node83 -->
<g id="node50" class="node">
<title>Node83</title>
<g id="a_node50"><a xlink:href="framebuffers_8c.html" target="_top" xlink:title=" ">
<polygon fill="white" stroke="black" points="4454.5,-56.5 4454.5,-75.5 4584.5,-75.5 4584.5,-56.5 4454.5,-56.5"/>
<text text-anchor="middle" x="4519.5" y="-63.5" font-family="Helvetica,sans-Serif" font-size="10.00">src/data/framebuffers.c</text>
</a>
</g>
</g>
<!-- Node20&#45;&gt;Node83 -->
<g id="edge67" class="edge">
<title>Node20&#45;&gt;Node83</title>
<path fill="none" stroke="midnightblue" d="M2993.63,-121.18C3196.31,-121.37 3881.53,-118.6 4445.5,-76 4448.34,-75.79 4451.24,-75.54 4454.16,-75.27"/>
<polygon fill="midnightblue" stroke="midnightblue" points="2993.51,-117.68 2983.5,-121.16 2993.5,-124.68 2993.51,-117.68"/>
</g>
<!-- Node24&#45;&gt;Node21 -->
<g id="edge24" class="edge">
<title>Node24&#45;&gt;Node21</title>
<path fill="none" stroke="midnightblue" d="M1949.84,-52.23C1927.95,-42.13 1898,-28.31 1878.95,-19.52"/>
<polygon fill="midnightblue" stroke="midnightblue" points="1948.41,-55.43 1958.96,-56.44 1951.35,-49.08 1948.41,-55.43"/>
</g>
<!-- Node24&#45;&gt;Node28 -->
<g id="edge25" class="edge">
<title>Node24&#45;&gt;Node28</title>
<path fill="none" stroke="midnightblue" d="M1977.5,-45.8C1977.5,-36.91 1977.5,-26.78 1977.5,-19.75"/>
<polygon fill="midnightblue" stroke="midnightblue" points="1974,-46.08 1977.5,-56.08 1981,-46.08 1974,-46.08"/>
</g>
<!-- Node24&#45;&gt;Node29 -->
<g id="edge26" class="edge">
<title>Node24&#45;&gt;Node29</title>
<path fill="none" stroke="midnightblue" d="M2006.27,-52.37C2029.31,-42.26 2060.98,-28.35 2081.1,-19.52"/>
<polygon fill="midnightblue" stroke="midnightblue" points="2004.74,-49.22 1996.99,-56.44 2007.55,-55.63 2004.74,-49.22"/>
</g>
<!-- Node24&#45;&gt;Node31 -->
<g id="edge27" class="edge">
<title>Node24&#45;&gt;Node31</title>
<path fill="none" stroke="midnightblue" d="M1912.54,-55.87C1839.98,-45.66 1723.49,-29.28 1653.15,-19.39"/>
<polygon fill="midnightblue" stroke="midnightblue" points="1912.09,-59.34 1922.48,-57.26 1913.07,-52.4 1912.09,-59.34"/>
</g>
<!-- Node24&#45;&gt;Node32 -->
<g id="edge28" class="edge">
<title>Node24&#45;&gt;Node32</title>
<path fill="none" stroke="midnightblue" d="M1928.47,-54.28C1881.8,-44.08 1812.47,-28.92 1769.45,-19.52"/>
<polygon fill="midnightblue" stroke="midnightblue" points="1927.85,-57.73 1938.36,-56.44 1929.34,-50.89 1927.85,-57.73"/>
</g>
<!-- Node42&#45;&gt;Node22 -->
<g id="edge37" class="edge">
<title>Node42&#45;&gt;Node22</title>
<path fill="none" stroke="midnightblue" d="M2744.92,-51.59C2725.88,-41.61 2700.44,-28.27 2684.01,-19.65"/>
<polygon fill="midnightblue" stroke="midnightblue" points="2743.47,-54.78 2753.95,-56.32 2746.72,-48.58 2743.47,-54.78"/>
</g>
<!-- Node42&#45;&gt;Node40 -->
<g id="edge38" class="edge">
<title>Node42&#45;&gt;Node40</title>
<path fill="none" stroke="midnightblue" d="M2774.35,-46.1C2776.18,-37.14 2778.27,-26.86 2779.72,-19.75"/>
<polygon fill="midnightblue" stroke="midnightblue" points="2770.88,-45.59 2772.32,-56.08 2777.74,-46.98 2770.88,-45.59"/>
</g>
<!-- Node42&#45;&gt;Node41 -->
<g id="edge39" class="edge">
<title>Node42&#45;&gt;Node41</title>
<path fill="none" stroke="midnightblue" d="M2800.12,-52.5C2824.12,-42.38 2857.28,-28.39 2878.31,-19.52"/>
<polygon fill="midnightblue" stroke="midnightblue" points="2798.64,-49.33 2790.78,-56.44 2801.36,-55.78 2798.64,-49.33"/>
</g>
<!-- Node42&#45;&gt;Node43 -->
<g id="edge40" class="edge">
<title>Node42&#45;&gt;Node43</title>
<path fill="none" stroke="midnightblue" d="M2822.67,-54.41C2872.94,-44.2 2948.03,-28.96 2994.55,-19.52"/>
<polygon fill="midnightblue" stroke="midnightblue" points="2821.75,-51.02 2812.65,-56.44 2823.14,-57.88 2821.75,-51.02"/>
</g>
<!-- Node42&#45;&gt;Node44 -->
<g id="edge41" class="edge">
<title>Node42&#45;&gt;Node44</title>
<path fill="none" stroke="midnightblue" d="M2701.1,-54.98C2630.45,-44.78 2522.12,-29.14 2455.48,-19.52"/>
<polygon fill="midnightblue" stroke="midnightblue" points="2700.84,-58.48 2711.24,-56.44 2701.84,-51.55 2700.84,-58.48"/>
</g>
<!-- Node42&#45;&gt;Node45 -->
<g id="edge42" class="edge">
<title>Node42&#45;&gt;Node45</title>
<path fill="none" stroke="midnightblue" d="M2840.7,-55.62C2918.23,-45.25 3041.73,-28.75 3114.78,-18.98"/>
<polygon fill="midnightblue" stroke="midnightblue" points="2839.99,-52.18 2830.55,-56.97 2840.92,-59.12 2839.99,-52.18"/>
</g>
<!-- Node42&#45;&gt;Node46 -->
<g id="edge43" class="edge">
<title>Node42&#45;&gt;Node46</title>
<path fill="none" stroke="midnightblue" d="M2841.19,-61.09C2955.11,-54.49 3186.28,-39.9 3381.5,-20 3384.5,-19.69 3387.58,-19.36 3390.68,-19.01"/>
<polygon fill="midnightblue" stroke="midnightblue" points="2840.65,-57.61 2830.87,-61.68 2841.06,-64.6 2840.65,-57.61"/>
</g>
<!-- Node42&#45;&gt;Node47 -->
<g id="edge44" class="edge">
<title>Node42&#45;&gt;Node47</title>
<path fill="none" stroke="midnightblue" d="M2840.6,-59.04C2932.84,-51.03 3099.98,-35.95 3242.5,-20 3245.54,-19.66 3248.66,-19.3 3251.81,-18.93"/>
<polygon fill="midnightblue" stroke="midnightblue" points="2840.21,-55.56 2830.54,-59.91 2840.81,-62.54 2840.21,-55.56"/>
</g>
<!-- Node42&#45;&gt;Node49 -->
<g id="edge45" class="edge">
<title>Node42&#45;&gt;Node49</title>
<path fill="none" stroke="midnightblue" d="M2723.18,-54.22C2678.39,-44.01 2612.06,-28.9 2570.88,-19.52"/>
<polygon fill="midnightblue" stroke="midnightblue" points="2722.42,-57.63 2732.95,-56.44 2723.97,-50.81 2722.42,-57.63"/>
</g>
<!-- Node74&#45;&gt;Node46 -->
<g id="edge56" class="edge">
<title>Node74&#45;&gt;Node46</title>
<path fill="none" stroke="midnightblue" d="M3130.35,-55.33C3204.59,-45.05 3320.75,-28.97 3390.85,-19.26"/>
<polygon fill="midnightblue" stroke="midnightblue" points="3129.58,-51.9 3120.16,-56.74 3130.54,-58.84 3129.58,-51.9"/>
</g>
<!-- Node77&#45;&gt;Node76 -->
<g id="edge61" class="edge">
<title>Node77&#45;&gt;Node76</title>
<path fill="none" stroke="midnightblue" d="M4195.52,-47.86C4202.62,-38.5 4211.1,-27.33 4216.86,-19.75"/>
<polygon fill="midnightblue" stroke="midnightblue" points="4192.53,-46 4189.27,-56.08 4198.11,-50.24 4192.53,-46"/>
</g>
<!-- Node82&#45;&gt;Node44 -->
<g id="edge65" class="edge">
<title>Node82&#45;&gt;Node44</title>
<path fill="none" stroke="midnightblue" d="M2396.5,-45.8C2396.5,-36.91 2396.5,-26.78 2396.5,-19.75"/>
<polygon fill="midnightblue" stroke="midnightblue" points="2393,-46.08 2396.5,-56.08 2400,-46.08 2393,-46.08"/>
</g>
<!-- Node82&#45;&gt;Node81 -->
<g id="edge66" class="edge">
<title>Node82&#45;&gt;Node81</title>
<path fill="none" stroke="midnightblue" d="M2363.13,-52.91C2335.12,-42.75 2295.8,-28.51 2271,-19.52"/>
<polygon fill="midnightblue" stroke="midnightblue" points="2362.3,-56.33 2372.89,-56.44 2364.68,-49.75 2362.3,-56.33"/>
</g>
</g>
</svg>
        <g id="navigator" transform="translate(0 0)" fill="#404254">
                <rect fill="#f2f5e9" fill-opacity="0.5" stroke="#606060" stroke-width=".5" x="0" y="0" width="60" height="60"/>
                <use id="zoomplus" xlink:href="#zoomPlus" x="17" y="9" onmousedown="handleZoom(evt,'in')"/>
                <use id="zoomminus" xlink:href="#zoomMin" x="42" y="9" onmousedown="handleZoom(evt,'out')"/>
                <use id="reset" xlink:href="#resetDef" x="30" y="36" onmousedown="handleReset()"/>
                <g id="arrowUp" xlink:href="#dirArrow" transform="translate(30 24)" onmousedown="handlePan(0,-1)">
                  <use xlink:href="#rim" fill="#404040">
                        <set attributeName="fill" to="#808080" begin="arrowUp.mouseover" end="arrowUp.mouseout"/>
                  </use>
                  <path fill="none" stroke="white" stroke-width="1.5" d="M0,-3.0v7 M-2.5,-0.5L0,-3.0L2.5,-0.5"/>
                </g>
                <g id="arrowRight" xlink:href="#dirArrow" transform="rotate(90) translate(36 -43)" onmousedown="handlePan(1,0)">
                  <use xlink:href="#rim" fill="#404040">
                        <set attributeName="fill" to="#808080" begin="arrowRight.mouseover" end="arrowRight.mouseout"/>
                  </use>
                  <path fill="none" stroke="white" stroke-width="1.5" d="M0,-3.0v7 M-2.5,-0.5L0,-3.0L2.5,-0.5"/>
                </g>
                <g id="arrowDown" xlink:href="#dirArrow" transform="rotate(180) translate(-30 -48)" onmousedown="handlePan(0,1)">
                  <use xlink:href="#rim" fill="#404040">
                        <set attributeName="fill" to="#808080" begin="arrowDown.mouseover" end="arrowDown.mouseout"/>
                  </use>
                  <path fill="none" stroke="white" stroke-width="1.5" d="M0,-3.0v7 M-2.5,-0.5L0,-3.0L2.5,-0.5"/>
                </g>
                <g id="arrowLeft" xlink:href="#dirArrow" transform="rotate(270) translate(-36 17)" onmousedown="handlePan(-1,0)">
                  <use xlink:href="#rim" fill="#404040">
                        <set attributeName="fill" to="#808080" begin="arrowLeft.mouseover" end="arrowLeft.mouseout"/>
                  </use>
                  <path fill="none" stroke="white" stroke-width="1.5" d="M0,-3.0v7 M-2.5,-0.5L0,-3.0L2.5,-0.5"/>
                </g>
        </g>
        <svg viewBox="0 0 15 15" width="100%" height="30px" preserveAspectRatio="xMaxYMin meet">
         <g id="arrow_out" transform="scale(0.3 0.3)">
          <a xlink:href="os__internal_8h__dep__incl_org.svg" target="_base">
           <rect id="button" ry="5" rx="5" y="6" x="6" height="38" width="38"
                fill="#f2f5e9" fill-opacity="0.5" stroke="#606060" stroke-width="1.0"/>
           <path id="arrow"
             d="M 11.500037,31.436501 C 11.940474,20.09759 22.043105,11.32322 32.158766,21.979434 L 37.068811,17.246167 C 37.068811,17.246167 37.088388,32 37.088388,32 L 22.160133,31.978069 C 22.160133,31.978069 26.997745,27.140456 26.997745,27.140456 C 18.528582,18.264221 13.291696,25.230495 11.500037,31.436501 z"
             style="fill:#404040;"/>
          </a>
         </g>
        </svg>
</svg>
