<?xml version="1.0" encoding="UTF-8" standalone="no"?>
<!DOCTYPE svg PUBLIC "-//W3C//DTD SVG 1.1//EN"
 "http://www.w3.org/Graphics/SVG/1.1/DTD/svg11.dtd">
<!-- Generated by graphviz version 2.43.0 (0)
 -->
<!-- Title: osContStartReadData Pages: 1 -->
<svg width="896pt" height="309pt"
 viewBox="0.00 0.00 896.00 308.85" xmlns="http://www.w3.org/2000/svg" xmlns:xlink="http://www.w3.org/1999/xlink">
<g id="graph0" class="graph" transform="scale(1 1) rotate(0) translate(4 304.85)">
<title>osContStartReadData</title>
<polygon fill="white" stroke="transparent" points="-4,4 -4,-304.85 892,-304.85 892,4 -4,4"/>
<!-- Node1 -->
<g id="node1" class="node">
<title>Node1</title>
<g id="a_node1"><a xlink:title=" ">
<polygon fill="#bfbfbf" stroke="black" points="0,-114.5 0,-133.5 122,-133.5 122,-114.5 0,-114.5"/>
<text text-anchor="middle" x="61" y="-121.5" font-family="Helvetica,sans-Serif" font-size="10.00">osContStartReadData</text>
</a>
</g>
</g>
<!-- Node2 -->
<g id="node2" class="node">
<title>Node2</title>
<g id="a_node2"><a xlink:href="osContStartReadData_8c.html#a639fc619f4a66f6b0ca9fcb1d82ff3fe" target="_top" xlink:title=" ">
<polygon fill="white" stroke="black" points="161,-190.5 161,-209.5 270,-209.5 270,-190.5 161,-190.5"/>
<text text-anchor="middle" x="215.5" y="-197.5" font-family="Helvetica,sans-Serif" font-size="10.00">__osPackReadData</text>
</a>
</g>
</g>
<!-- Node1&#45;&gt;Node2 -->
<g id="edge1" class="edge">
<title>Node1&#45;&gt;Node2</title>
<path fill="none" stroke="midnightblue" d="M78.4,-133.5C97.32,-144.32 129.48,-162.26 158,-176 165.43,-179.58 173.52,-183.19 181.2,-186.48"/>
<polygon fill="midnightblue" stroke="midnightblue" points="180.06,-189.79 190.64,-190.45 182.78,-183.34 180.06,-189.79"/>
</g>
<!-- Node3 -->
<g id="node3" class="node">
<title>Node3</title>
<g id="a_node3"><a xlink:href="____osSiCreateAccessQueue_8c.html#ae0373fb01ccb4831c6c9783b23524a07" target="_top" xlink:title=" ">
<polygon fill="white" stroke="black" points="166.5,-114.5 166.5,-133.5 264.5,-133.5 264.5,-114.5 166.5,-114.5"/>
<text text-anchor="middle" x="215.5" y="-121.5" font-family="Helvetica,sans-Serif" font-size="10.00">__osSiGetAccess</text>
</a>
</g>
</g>
<!-- Node1&#45;&gt;Node3 -->
<g id="edge2" class="edge">
<title>Node1&#45;&gt;Node3</title>
<path fill="none" stroke="midnightblue" d="M122.27,-124C133.49,-124 145.19,-124 156.35,-124"/>
<polygon fill="midnightblue" stroke="midnightblue" points="156.41,-127.5 166.41,-124 156.41,-120.5 156.41,-127.5"/>
</g>
<!-- Node14 -->
<g id="node14" class="node">
<title>Node14</title>
<g id="a_node14"><a xlink:href="code__80071F00_8h.html#a4283cbf896ea7ca31653640f6dd237af" target="_top" xlink:title=" ">
<polygon fill="white" stroke="black" points="510,-114.5 510,-133.5 588,-133.5 588,-114.5 510,-114.5"/>
<text text-anchor="middle" x="549" y="-121.5" font-family="Helvetica,sans-Serif" font-size="10.00">osRecvMesg</text>
</a>
</g>
</g>
<!-- Node1&#45;&gt;Node14 -->
<g id="edge29" class="edge">
<title>Node1&#45;&gt;Node14</title>
<path fill="none" stroke="midnightblue" d="M100.98,-114.49C118.32,-110.72 139.06,-106.86 158,-105 280.66,-92.98 425.8,-107.62 499.62,-117.11"/>
<polygon fill="midnightblue" stroke="midnightblue" points="499.62,-120.64 509.99,-118.47 500.53,-113.7 499.62,-120.64"/>
</g>
<!-- Node15 -->
<g id="node15" class="node">
<title>Node15</title>
<g id="a_node15"><a xlink:href="____osSiRawStartDma_8c.html#a469384eba4ccec319dbec8745f22bd2f" target="_top" xlink:title=" ">
<polygon fill="white" stroke="black" points="158,-38.5 158,-57.5 273,-57.5 273,-38.5 158,-38.5"/>
<text text-anchor="middle" x="215.5" y="-45.5" font-family="Helvetica,sans-Serif" font-size="10.00">__osSiRawStartDma</text>
</a>
</g>
</g>
<!-- Node1&#45;&gt;Node15 -->
<g id="edge23" class="edge">
<title>Node1&#45;&gt;Node15</title>
<path fill="none" stroke="midnightblue" d="M78.4,-114.5C97.32,-103.68 129.48,-85.74 158,-72 165.43,-68.42 173.52,-64.81 181.2,-61.52"/>
<polygon fill="midnightblue" stroke="midnightblue" points="182.78,-64.66 190.64,-57.55 180.06,-58.21 182.78,-64.66"/>
</g>
<!-- Node19 -->
<g id="node19" class="node">
<title>Node19</title>
<g id="a_node19"><a xlink:href="____osSiCreateAccessQueue_8c.html#aa6dbd69637149484f5fad08232892b50" target="_top" xlink:title=" ">
<polygon fill="white" stroke="black" points="333,-190.5 333,-209.5 430,-209.5 430,-190.5 333,-190.5"/>
<text text-anchor="middle" x="381.5" y="-197.5" font-family="Helvetica,sans-Serif" font-size="10.00">__osSiRelAccess</text>
</a>
</g>
</g>
<!-- Node1&#45;&gt;Node19 -->
<g id="edge27" class="edge">
<title>Node1&#45;&gt;Node19</title>
<path fill="none" stroke="midnightblue" d="M102.02,-133.55C160.02,-147.39 267.4,-173.01 330.53,-188.08"/>
<polygon fill="midnightblue" stroke="midnightblue" points="330.11,-191.57 340.65,-190.49 331.73,-184.77 330.11,-191.57"/>
</g>
<!-- Node4 -->
<g id="node4" class="node">
<title>Node4</title>
<g id="a_node4"><a xlink:href="____osSiCreateAccessQueue_8c.html#a7520cad725d80a88735d29f75a3de94a" target="_top" xlink:title=" ">
<polygon fill="white" stroke="black" points="309,-152.5 309,-171.5 454,-171.5 454,-152.5 309,-152.5"/>
<text text-anchor="middle" x="381.5" y="-159.5" font-family="Helvetica,sans-Serif" font-size="10.00">__osSiCreateAccessQueue</text>
</a>
</g>
</g>
<!-- Node3&#45;&gt;Node4 -->
<g id="edge3" class="edge">
<title>Node3&#45;&gt;Node4</title>
<path fill="none" stroke="midnightblue" d="M257.88,-133.59C279.62,-138.63 306.46,-144.84 329.47,-150.18"/>
<polygon fill="midnightblue" stroke="midnightblue" points="328.88,-153.63 339.41,-152.48 330.46,-146.81 328.88,-153.63"/>
</g>
<!-- Node3&#45;&gt;Node14 -->
<g id="edge17" class="edge">
<title>Node3&#45;&gt;Node14</title>
<path fill="none" stroke="midnightblue" d="M264.7,-124C327.47,-124 436.57,-124 499.49,-124"/>
<polygon fill="midnightblue" stroke="midnightblue" points="499.55,-127.5 509.55,-124 499.55,-120.5 499.55,-127.5"/>
</g>
<!-- Node5 -->
<g id="node5" class="node">
<title>Node5</title>
<g id="a_node5"><a xlink:href="osCreateMesgQueue_8c.html#aab783cab54141cb60618b45f534104b9" target="_top" xlink:title=" ">
<polygon fill="white" stroke="black" points="490,-152.5 490,-171.5 608,-171.5 608,-152.5 490,-152.5"/>
<text text-anchor="middle" x="549" y="-159.5" font-family="Helvetica,sans-Serif" font-size="10.00">osCreateMesgQueue</text>
</a>
</g>
</g>
<!-- Node4&#45;&gt;Node5 -->
<g id="edge4" class="edge">
<title>Node4&#45;&gt;Node5</title>
<path fill="none" stroke="midnightblue" d="M454.13,-162C462.64,-162 471.31,-162 479.76,-162"/>
<polygon fill="midnightblue" stroke="midnightblue" points="479.96,-165.5 489.96,-162 479.96,-158.5 479.96,-165.5"/>
</g>
<!-- Node6 -->
<g id="node6" class="node">
<title>Node6</title>
<g id="a_node6"><a xlink:href="osSendMesg_8c.html#a413bd1b0a16c54dcc9e59c48b3d7f142" target="_top" xlink:title=" ">
<polygon fill="white" stroke="black" points="510,-190.5 510,-209.5 588,-209.5 588,-190.5 510,-190.5"/>
<text text-anchor="middle" x="549" y="-197.5" font-family="Helvetica,sans-Serif" font-size="10.00">osSendMesg</text>
</a>
</g>
</g>
<!-- Node4&#45;&gt;Node6 -->
<g id="edge5" class="edge">
<title>Node4&#45;&gt;Node6</title>
<path fill="none" stroke="midnightblue" d="M424.26,-171.59C447.3,-176.88 476.02,-183.47 499.98,-188.98"/>
<polygon fill="midnightblue" stroke="midnightblue" points="499.4,-192.43 509.93,-191.26 500.97,-185.61 499.4,-192.43"/>
</g>
<!-- Node7 -->
<g id="node7" class="node">
<title>Node7</title>
<g id="a_node7"><a xlink:href="libultra__internal_8h.html#a8ad9db8aa6bfc4437abdd0363b663b16" target="_top" xlink:title=" ">
<polygon fill="white" stroke="black" points="782.5,-266.5 782.5,-285.5 870.5,-285.5 870.5,-266.5 782.5,-266.5"/>
<text text-anchor="middle" x="826.5" y="-273.5" font-family="Helvetica,sans-Serif" font-size="10.00">__osDisableInt</text>
</a>
</g>
</g>
<!-- Node6&#45;&gt;Node7 -->
<g id="edge6" class="edge">
<title>Node6&#45;&gt;Node7</title>
<path fill="none" stroke="midnightblue" d="M556.3,-209.79C569.64,-229.51 602.91,-273.5 644,-290 690.91,-308.84 750.06,-298.67 787.84,-288.39"/>
<polygon fill="midnightblue" stroke="midnightblue" points="789.25,-291.62 797.9,-285.51 787.32,-284.89 789.25,-291.62"/>
</g>
<!-- Node8 -->
<g id="node8" class="node">
<title>Node8</title>
<g id="a_node8"><a xlink:href="libultra__internal_8h.html#afe9c3abc4ca93d9fe18a87d9f108d5cb" target="_top" xlink:title=" ">
<polygon fill="white" stroke="black" points="765,-209.5 765,-228.5 888,-228.5 888,-209.5 765,-209.5"/>
<text text-anchor="middle" x="826.5" y="-216.5" font-family="Helvetica,sans-Serif" font-size="10.00">__osEnqueueAndYield</text>
</a>
</g>
</g>
<!-- Node6&#45;&gt;Node8 -->
<g id="edge7" class="edge">
<title>Node6&#45;&gt;Node8</title>
<path fill="none" stroke="midnightblue" d="M588.29,-206.77C605.3,-209.5 625.59,-212.38 644,-214 680.43,-217.2 721.11,-218.53 754.71,-219.02"/>
<polygon fill="midnightblue" stroke="midnightblue" points="754.85,-222.52 764.9,-219.15 754.94,-215.53 754.85,-222.52"/>
</g>
<!-- Node9 -->
<g id="node9" class="node">
<title>Node9</title>
<g id="a_node9"><a xlink:href="libultra__internal_8h.html#a82b6b8e6a4311b516950168ef4078e33" target="_top" xlink:title=" ">
<polygon fill="white" stroke="black" points="781.5,-95.5 781.5,-114.5 871.5,-114.5 871.5,-95.5 781.5,-95.5"/>
<text text-anchor="middle" x="826.5" y="-102.5" font-family="Helvetica,sans-Serif" font-size="10.00">__osPopThread</text>
</a>
</g>
</g>
<!-- Node6&#45;&gt;Node9 -->
<g id="edge8" class="edge">
<title>Node6&#45;&gt;Node9</title>
<path fill="none" stroke="midnightblue" d="M588.05,-190.55C594.97,-188 601.91,-184.85 608,-181 627.66,-168.55 623.69,-154.35 644,-143 683.05,-121.19 733.17,-111.86 770.85,-107.89"/>
<polygon fill="midnightblue" stroke="midnightblue" points="771.51,-111.34 781.13,-106.9 770.84,-104.37 771.51,-111.34"/>
</g>
<!-- Node10 -->
<g id="node10" class="node">
<title>Node10</title>
<g id="a_node10"><a xlink:href="libultra__internal_8h.html#aecafa57b85fd739d6033705808194def" target="_top" xlink:title=" ">
<polygon fill="white" stroke="black" points="782,-38.5 782,-57.5 871,-57.5 871,-38.5 782,-38.5"/>
<text text-anchor="middle" x="826.5" y="-45.5" font-family="Helvetica,sans-Serif" font-size="10.00">__osRestoreInt</text>
</a>
</g>
</g>
<!-- Node6&#45;&gt;Node10 -->
<g id="edge9" class="edge">
<title>Node6&#45;&gt;Node10</title>
<path fill="none" stroke="midnightblue" d="M588.14,-192.25C595.29,-189.54 602.29,-185.9 608,-181 634.85,-157.96 617.29,-133.21 644,-110 679.96,-78.76 732.4,-63.07 771.68,-55.31"/>
<polygon fill="midnightblue" stroke="midnightblue" points="772.43,-58.73 781.62,-53.46 771.15,-51.85 772.43,-58.73"/>
</g>
<!-- Node11 -->
<g id="node11" class="node">
<title>Node11</title>
<g id="a_node11"><a xlink:href="osStartThread_8c.html#a3b144e814933e16a2fbf2642ad098ed3" target="_top" xlink:title=" ">
<polygon fill="white" stroke="black" points="644,-152.5 644,-171.5 729,-171.5 729,-152.5 644,-152.5"/>
<text text-anchor="middle" x="686.5" y="-159.5" font-family="Helvetica,sans-Serif" font-size="10.00">osStartThread</text>
</a>
</g>
</g>
<!-- Node6&#45;&gt;Node11 -->
<g id="edge10" class="edge">
<title>Node6&#45;&gt;Node11</title>
<path fill="none" stroke="midnightblue" d="M584.19,-190.41C601.6,-185.53 622.97,-179.54 641.59,-174.32"/>
<polygon fill="midnightblue" stroke="midnightblue" points="642.64,-177.66 651.32,-171.59 640.74,-170.92 642.64,-177.66"/>
</g>
<!-- Node11&#45;&gt;Node7 -->
<g id="edge11" class="edge">
<title>Node11&#45;&gt;Node7</title>
<path fill="none" stroke="midnightblue" d="M695.98,-171.56C709.65,-186.65 737.78,-216.52 765,-238 775.72,-246.47 788.42,-254.68 799.41,-261.3"/>
<polygon fill="midnightblue" stroke="midnightblue" points="797.76,-264.39 808.15,-266.44 801.31,-258.35 797.76,-264.39"/>
</g>
<!-- Node11&#45;&gt;Node8 -->
<g id="edge13" class="edge">
<title>Node11&#45;&gt;Node8</title>
<path fill="none" stroke="midnightblue" d="M705.01,-171.53C720.49,-179.74 743.85,-191.55 765,-200 770.5,-202.2 776.36,-204.31 782.19,-206.28"/>
<polygon fill="midnightblue" stroke="midnightblue" points="781.3,-209.67 791.9,-209.44 783.47,-203.02 781.3,-209.67"/>
</g>
<!-- Node11&#45;&gt;Node9 -->
<g id="edge15" class="edge">
<title>Node11&#45;&gt;Node9</title>
<path fill="none" stroke="midnightblue" d="M705.01,-152.47C720.49,-144.26 743.85,-132.45 765,-124 770.5,-121.8 776.36,-119.69 782.19,-117.72"/>
<polygon fill="midnightblue" stroke="midnightblue" points="783.47,-120.98 791.9,-114.56 781.3,-114.33 783.47,-120.98"/>
</g>
<!-- Node11&#45;&gt;Node10 -->
<g id="edge16" class="edge">
<title>Node11&#45;&gt;Node10</title>
<path fill="none" stroke="midnightblue" d="M695.98,-152.44C709.65,-137.35 737.78,-107.48 765,-86 775.72,-77.53 788.42,-69.32 799.41,-62.7"/>
<polygon fill="midnightblue" stroke="midnightblue" points="801.31,-65.65 808.15,-57.56 797.76,-59.61 801.31,-65.65"/>
</g>
<!-- Node12 -->
<g id="node12" class="node">
<title>Node12</title>
<g id="a_node12"><a xlink:href="libultra__internal_8h.html#a650b788ebd5efde9c8cbccc1ee832445" target="_top" xlink:title=" ">
<polygon fill="white" stroke="black" points="769,-171.5 769,-190.5 884,-190.5 884,-171.5 769,-171.5"/>
<text text-anchor="middle" x="826.5" y="-178.5" font-family="Helvetica,sans-Serif" font-size="10.00">__osDispatchThread</text>
</a>
</g>
</g>
<!-- Node11&#45;&gt;Node12 -->
<g id="edge12" class="edge">
<title>Node11&#45;&gt;Node12</title>
<path fill="none" stroke="midnightblue" d="M729.28,-167.75C738.62,-169.04 748.75,-170.43 758.82,-171.82"/>
<polygon fill="midnightblue" stroke="midnightblue" points="758.45,-175.3 768.84,-173.2 759.41,-168.37 758.45,-175.3"/>
</g>
<!-- Node13 -->
<g id="node13" class="node">
<title>Node13</title>
<g id="a_node13"><a xlink:href="libultra__internal_8h.html#ac9d6cfd19de5565e74f1d74a14e9092d" target="_top" xlink:title=" ">
<polygon fill="white" stroke="black" points="769.5,-133.5 769.5,-152.5 883.5,-152.5 883.5,-133.5 769.5,-133.5"/>
<text text-anchor="middle" x="826.5" y="-140.5" font-family="Helvetica,sans-Serif" font-size="10.00">__osEnqueueThread</text>
</a>
</g>
</g>
<!-- Node11&#45;&gt;Node13 -->
<g id="edge14" class="edge">
<title>Node11&#45;&gt;Node13</title>
<path fill="none" stroke="midnightblue" d="M729.28,-156.25C738.74,-154.95 749.01,-153.53 759.21,-152.13"/>
<polygon fill="midnightblue" stroke="midnightblue" points="759.91,-155.56 769.34,-150.73 758.96,-148.63 759.91,-155.56"/>
</g>
<!-- Node14&#45;&gt;Node7 -->
<g id="edge18" class="edge">
<title>Node14&#45;&gt;Node7</title>
<path fill="none" stroke="midnightblue" d="M588.03,-131.89C595.18,-134.58 602.22,-138.19 608,-143 633.68,-164.37 618.72,-187.16 644,-209 680.48,-240.51 733.09,-257.75 772.29,-266.81"/>
<polygon fill="midnightblue" stroke="midnightblue" points="771.68,-270.26 782.2,-269 773.19,-263.43 771.68,-270.26"/>
</g>
<!-- Node14&#45;&gt;Node8 -->
<g id="edge19" class="edge">
<title>Node14&#45;&gt;Node8</title>
<path fill="none" stroke="midnightblue" d="M588.05,-133.45C594.97,-136 601.91,-139.15 608,-143 627.66,-155.45 623.69,-169.65 644,-181 677.64,-199.79 719.5,-209.32 754.53,-214.13"/>
<polygon fill="midnightblue" stroke="midnightblue" points="754.33,-217.64 764.7,-215.43 755.22,-210.69 754.33,-217.64"/>
</g>
<!-- Node14&#45;&gt;Node9 -->
<g id="edge20" class="edge">
<title>Node14&#45;&gt;Node9</title>
<path fill="none" stroke="midnightblue" d="M588.29,-117.23C605.3,-114.5 625.59,-111.62 644,-110 686.58,-106.26 734.98,-105.08 771.09,-104.79"/>
<polygon fill="midnightblue" stroke="midnightblue" points="771.42,-108.29 781.4,-104.73 771.38,-101.29 771.42,-108.29"/>
</g>
<!-- Node14&#45;&gt;Node10 -->
<g id="edge21" class="edge">
<title>Node14&#45;&gt;Node10</title>
<path fill="none" stroke="midnightblue" d="M556.3,-114.21C569.64,-94.49 602.91,-50.5 644,-34 690.91,-15.16 750.06,-25.33 787.84,-35.61"/>
<polygon fill="midnightblue" stroke="midnightblue" points="787.32,-39.11 797.9,-38.49 789.25,-32.38 787.32,-39.11"/>
</g>
<!-- Node14&#45;&gt;Node11 -->
<g id="edge22" class="edge">
<title>Node14&#45;&gt;Node11</title>
<path fill="none" stroke="midnightblue" d="M584.19,-133.59C601.6,-138.47 622.97,-144.46 641.59,-149.68"/>
<polygon fill="midnightblue" stroke="midnightblue" points="640.74,-153.08 651.32,-152.41 642.64,-146.34 640.74,-153.08"/>
</g>
<!-- Node16 -->
<g id="node16" class="node">
<title>Node16</title>
<g id="a_node16"><a xlink:href="____osSiDeviceBusy_8c.html#ad812ec86e9d0b5929797407de1b3ecbc" target="_top" xlink:title=" ">
<polygon fill="white" stroke="black" points="329,-38.5 329,-57.5 434,-57.5 434,-38.5 329,-38.5"/>
<text text-anchor="middle" x="381.5" y="-45.5" font-family="Helvetica,sans-Serif" font-size="10.00">__osSiDeviceBusy</text>
</a>
</g>
</g>
<!-- Node15&#45;&gt;Node16 -->
<g id="edge24" class="edge">
<title>Node15&#45;&gt;Node16</title>
<path fill="none" stroke="midnightblue" d="M273.4,-48C288.06,-48 303.9,-48 318.79,-48"/>
<polygon fill="midnightblue" stroke="midnightblue" points="318.92,-51.5 328.92,-48 318.92,-44.5 318.92,-51.5"/>
</g>
<!-- Node17 -->
<g id="node17" class="node">
<title>Node17</title>
<g id="a_node17"><a xlink:href="osVirtualToPhysical_8c.html#a87fb0b956b8effcecdf9585577895570" target="_top" xlink:title=" ">
<polygon fill="white" stroke="black" points="326,-0.5 326,-19.5 437,-19.5 437,-0.5 326,-0.5"/>
<text text-anchor="middle" x="381.5" y="-7.5" font-family="Helvetica,sans-Serif" font-size="10.00">osVirtualToPhysical</text>
</a>
</g>
</g>
<!-- Node15&#45;&gt;Node17 -->
<g id="edge25" class="edge">
<title>Node15&#45;&gt;Node17</title>
<path fill="none" stroke="midnightblue" d="M257.88,-38.41C279.62,-33.37 306.46,-27.16 329.47,-21.82"/>
<polygon fill="midnightblue" stroke="midnightblue" points="330.46,-25.19 339.41,-19.52 328.88,-18.37 330.46,-25.19"/>
</g>
<!-- Node18 -->
<g id="node18" class="node">
<title>Node18</title>
<g id="a_node18"><a xlink:href="libultra__internal_8h.html#a4f7c83166c9481713d4b56defd0888c7" target="_top" xlink:title=" ">
<polygon fill="white" stroke="black" points="507,-0.5 507,-19.5 591,-19.5 591,-0.5 507,-0.5"/>
<text text-anchor="middle" x="549" y="-7.5" font-family="Helvetica,sans-Serif" font-size="10.00">__osProbeTLB</text>
</a>
</g>
</g>
<!-- Node17&#45;&gt;Node18 -->
<g id="edge26" class="edge">
<title>Node17&#45;&gt;Node18</title>
<path fill="none" stroke="midnightblue" d="M437.15,-10C456.3,-10 477.72,-10 496.59,-10"/>
<polygon fill="midnightblue" stroke="midnightblue" points="496.78,-13.5 506.78,-10 496.78,-6.5 496.78,-13.5"/>
</g>
<!-- Node19&#45;&gt;Node6 -->
<g id="edge28" class="edge">
<title>Node19&#45;&gt;Node6</title>
<path fill="none" stroke="midnightblue" d="M430.37,-200C452.21,-200 478.02,-200 499.89,-200"/>
<polygon fill="midnightblue" stroke="midnightblue" points="499.95,-203.5 509.95,-200 499.95,-196.5 499.95,-203.5"/>
</g>
</g>
</svg>
