<?xml version="1.0" encoding="UTF-8" standalone="no"?>
<!DOCTYPE svg PUBLIC "-//W3C//DTD SVG 1.1//EN"
 "http://www.w3.org/Graphics/SVG/1.1/DTD/svg11.dtd">
<!-- Generated by graphviz version 2.43.0 (0)
 -->
<!-- Title: func_8002C7E4 Pages: 1 -->
<!--zoomable 655 -->

<svg id="main" version="1.1" xmlns="http://www.w3.org/2000/svg" xmlns:xlink="http://www.w3.org/1999/xlink" xml:space="preserve" onload="init(evt)">
<style type="text/css"><![CDATA[
.node, .edge {opacity: 0.7;}
.node.selected, .edge.selected {opacity: 1;}
.edge:hover path { stroke: red; }
.edge:hover polygon { stroke: red; fill: red; }
]]></style>

<defs>
  <circle id="rim" cx="0" cy="0" r="7"/>
  <circle id="rim2" cx="0" cy="0" r="3.5"/>
  <g id="zoomPlus">
    <use xlink:href="#rim" fill="#404040"><set attributeName="fill" to="#808080" begin="zoomplus.mouseover" end="zoomplus.mouseout"/></use>
    <path d="M-4,0h8M0,-4v8" fill="none" stroke="white" stroke-width="1.5" pointer-events="none"/>
  </g>
  <g id="zoomMin">
    <use xlink:href="#rim" fill="#404040"><set attributeName="fill" to="#808080" begin="zoomminus.mouseover" end="zoomminus.mouseout"/></use>
    <path d="M-4,0h8" fill="none" stroke="white" stroke-width="1.5" pointer-events="none"/>
  </g>
  <g id="arrowUp" transform="translate(30 24)">
    <use xlink:href="#rim"/>
    <path pointer-events="none" fill="none" stroke="white" stroke-width="1.5" d="M0,-3.0v7 M-2.5,-0.5L0,-3.0L2.5,-0.5"/>
  </g>
  <g id="arrowRight" transform="rotate(90) translate(36 -43)">
    <use xlink:href="#rim"/>
    <path pointer-events="none" fill="none" stroke="white" stroke-width="1.5" d="M0,-3.0v7 M-2.5,-0.5L0,-3.0L2.5,-0.5"/>
  </g>
  <g id="arrowDown" transform="rotate(180) translate(-30 -48)">
    <use xlink:href="#rim"/>
    <path pointer-events="none" fill="none" stroke="white" stroke-width="1.5" d="M0,-3.0v7 M-2.5,-0.5L0,-3.0L2.5,-0.5"/>
  </g>
  <g id="arrowLeft" transform="rotate(270) translate(-36 17)">
    <use xlink:href="#rim"/>
    <path pointer-events="none" fill="none" stroke="white" stroke-width="1.5" d="M0,-3.0v7 M-2.5,-0.5L0,-3.0L2.5,-0.5"/>
  </g>
  <g id="resetDef">
    <use xlink:href="#rim2" fill="#404040"><set attributeName="fill" to="#808080" begin="reset.mouseover" end="reset.mouseout"/></use>
  </g>
</defs>
<script type="application/ecmascript">
var viewWidth = 1099;
var viewHeight = 655;
var sectionId = 'dynsection-60';
</script>
<script type="application/ecmascript" xlink:href="svg.min.js"/>
<svg id="graph" class="graph">
<g id="viewport">
<title>func_8002C7E4</title>
<!-- Node1 -->
<g id="Node000001" class="node">
<title>Node1</title>
<g id="a_Node000001"><a xlink:title=" ">
<polygon fill="#999999" stroke="#666666" points="92,-589 0,-589 0,-570 92,-570 92,-589"/>
<text text-anchor="middle" x="46" y="-577" font-family="Helvetica,sans-Serif" font-size="10.00">func_8002C7E4</text>
</a>
</g>
</g>
<!-- Node2 -->
<g id="Node000002" class="node">
<title>Node2</title>
<g id="a_Node000002"><a xlink:href="camera_8c.html#a2e08edbba430b5425bf6fa6c3b5d34b2" target="_top" xlink:title=" ">
<polygon fill="white" stroke="#666666" points="220.5,-626 128.5,-626 128.5,-607 220.5,-607 220.5,-626"/>
<text text-anchor="middle" x="174.5" y="-614" font-family="Helvetica,sans-Serif" font-size="10.00">func_8001CA24</text>
</a>
</g>
</g>
<!-- Node1&#45;&gt;Node2 -->
<g id="edge1_Node000001_Node000002" class="edge">
<title>Node1&#45;&gt;Node2</title>
<g id="a_edge1_Node000001_Node000002"><a xlink:title=" ">
<path fill="none" stroke="#63b8ff" d="M79.58,-589.03C95.1,-593.57 113.87,-599.06 130.53,-603.93"/>
<polygon fill="#63b8ff" stroke="#63b8ff" points="130.01,-607.43 140.59,-606.88 131.98,-600.71 130.01,-607.43"/>
</a>
</g>
</g>
<!-- Node3 -->
<g id="Node000003" class="node">
<title>Node3</title>
<g id="a_Node000003"><a xlink:href="player__controller_8c.html#a8a3b5f1d538adee38a21e55b2eae3941" target="_top" xlink:title=" ">
<polygon fill="white" stroke="#666666" points="221,-589 128,-589 128,-570 221,-570 221,-589"/>
<text text-anchor="middle" x="174.5" y="-577" font-family="Helvetica,sans-Serif" font-size="10.00">func_8002B9CC</text>
</a>
</g>
</g>
<!-- Node1&#45;&gt;Node3 -->
<g id="edge2_Node000001_Node000003" class="edge">
<title>Node1&#45;&gt;Node3</title>
<g id="a_edge2_Node000001_Node000003"><a xlink:title=" ">
<path fill="none" stroke="#63b8ff" d="M92.31,-579.5C100.48,-579.5 109.08,-579.5 117.5,-579.5"/>
<polygon fill="#63b8ff" stroke="#63b8ff" points="117.65,-583 127.65,-579.5 117.65,-576 117.65,-583"/>
</a>
</g>
</g>
<!-- Node20 -->
<g id="Node000020" class="node">
<title>Node20</title>
<g id="a_Node000020"><a xlink:href="code__8008C1D0_8c.html#a5b9e2c886a5267f2cca1190984277a38" target="_top" xlink:title=" ">
<polygon fill="white" stroke="#666666" points="706.5,-19 587.5,-19 587.5,0 706.5,0 706.5,-19"/>
<text text-anchor="middle" x="647" y="-7" font-family="Helvetica,sans-Serif" font-size="10.00">remove_boost_effect</text>
</a>
</g>
</g>
<!-- Node1&#45;&gt;Node20 -->
<g id="edge33_Node000001_Node000020" class="edge">
<title>Node1&#45;&gt;Node20</title>
<g id="a_edge33_Node000001_Node000020"><a xlink:title=" ">
<path fill="none" stroke="#63b8ff" d="M52.89,-569.86C90.38,-509.36 302.77,-179.55 568,-27.5 571.2,-25.66 574.58,-24.02 578.06,-22.53"/>
<polygon fill="#63b8ff" stroke="#63b8ff" points="579.35,-25.79 587.47,-18.99 576.88,-19.24 579.35,-25.79"/>
</a>
</g>
</g>
<!-- Node4 -->
<g id="Node000004" class="node">
<title>Node4</title>
<g id="a_Node000004"><a xlink:href="code__8008C1D0_8c.html#af25de8f70a7ecb552619235df793b951" target="_top" xlink:title=" ">
<polygon fill="white" stroke="#666666" points="376.5,-571 284.5,-571 284.5,-552 376.5,-552 376.5,-571"/>
<text text-anchor="middle" x="330.5" y="-559" font-family="Helvetica,sans-Serif" font-size="10.00">func_8008C73C</text>
</a>
</g>
</g>
<!-- Node3&#45;&gt;Node4 -->
<g id="edge3_Node000003_Node000004" class="edge">
<title>Node3&#45;&gt;Node4</title>
<g id="a_edge3_Node000003_Node000004"><a xlink:title=" ">
<path fill="none" stroke="#63b8ff" d="M221.29,-574.15C237.96,-572.2 256.99,-569.98 274.39,-567.94"/>
<polygon fill="#63b8ff" stroke="#63b8ff" points="274.89,-571.41 284.42,-566.77 274.08,-564.45 274.89,-571.41"/>
</a>
</g>
</g>
<!-- Node28 -->
<g id="Node000028" class="node">
<title>Node28</title>
<g id="a_Node000028"><a xlink:href="math__util_8c.html#a963f23fd2ffec93350816627af02b9da" target="_top" xlink:title=" ">
<polygon fill="white" stroke="#666666" points="404,-646 257,-646 257,-627 404,-627 404,-646"/>
<text text-anchor="middle" x="330.5" y="-634" font-family="Helvetica,sans-Serif" font-size="10.00">get_angle_between_points</text>
</a>
</g>
</g>
<!-- Node3&#45;&gt;Node28 -->
<g id="edge29_Node000003_Node000028" class="edge">
<title>Node3&#45;&gt;Node28</title>
<g id="a_edge29_Node000003_Node000028"><a xlink:title=" ">
<path fill="none" stroke="#63b8ff" d="M199.76,-589.16C206.68,-592.04 214.19,-595.29 221,-598.5 237.36,-606.22 240.14,-610.94 257,-617.5 263.27,-619.94 269.97,-622.17 276.67,-624.18"/>
<polygon fill="#63b8ff" stroke="#63b8ff" points="275.85,-627.58 286.43,-626.95 277.77,-620.85 275.85,-627.58"/>
</a>
</g>
</g>
<!-- Node31 -->
<g id="Node000031" class="node">
<title>Node31</title>
<g id="a_Node000031"><a xlink:href="math_8h.html#a37bde043e94a6f074c78f10518fb5d99" target="_top" xlink:title=" ">
<polygon fill="white" stroke="#666666" points="350,-608 311,-608 311,-589 350,-589 350,-608"/>
<text text-anchor="middle" x="330.5" y="-596" font-family="Helvetica,sans-Serif" font-size="10.00">sqrtf</text>
</a>
</g>
</g>
<!-- Node3&#45;&gt;Node31 -->
<g id="edge32_Node000003_Node000031" class="edge">
<title>Node3&#45;&gt;Node31</title>
<g id="a_edge32_Node000003_Node000031"><a xlink:title=" ">
<path fill="none" stroke="#63b8ff" d="M221.29,-585.15C247.04,-588.33 278.4,-592.2 300.72,-594.95"/>
<polygon fill="#63b8ff" stroke="#63b8ff" points="300.53,-598.45 310.88,-596.2 301.39,-591.51 300.53,-598.45"/>
</a>
</g>
</g>
<!-- Node5 -->
<g id="Node000005" class="node">
<title>Node5</title>
<g id="a_Node000005"><a xlink:href="code__8008C1D0_8c.html#aeda67f98b2369b1c3952d9e4eb30b4d1" target="_top" xlink:title=" ">
<polygon fill="white" stroke="#666666" points="524,-284 448,-284 448,-265 524,-265 524,-284"/>
<text text-anchor="middle" x="486" y="-272" font-family="Helvetica,sans-Serif" font-size="10.00">clean_effect</text>
</a>
</g>
</g>
<!-- Node4&#45;&gt;Node5 -->
<g id="edge4_Node000004_Node000005" class="edge">
<title>Node4&#45;&gt;Node5</title>
<g id="a_edge4_Node000004_Node000005"><a xlink:title=" ">
<path fill="none" stroke="#63b8ff" d="M336.61,-551.95C358.6,-510.84 445.42,-348.51 475.04,-293.13"/>
<polygon fill="#63b8ff" stroke="#63b8ff" points="478.24,-294.55 479.87,-284.08 472.07,-291.25 478.24,-294.55"/>
</a>
</g>
</g>
<!-- Node24 -->
<g id="Node000024" class="node">
<title>Node24</title>
<g id="a_Node000024"><a xlink:href="code__80005FD0_8c.html#a06783cccfdd317d1f883612230c6cf5c" target="_top" xlink:title=" ">
<polygon fill="white" stroke="#666666" points="532,-571 440,-571 440,-552 532,-552 532,-571"/>
<text text-anchor="middle" x="486" y="-559" font-family="Helvetica,sans-Serif" font-size="10.00">func_800098FC</text>
</a>
</g>
</g>
<!-- Node4&#45;&gt;Node24 -->
<g id="edge23_Node000004_Node000024" class="edge">
<title>Node4&#45;&gt;Node24</title>
<g id="a_edge23_Node000004_Node000024"><a xlink:title=" ">
<path fill="none" stroke="#63b8ff" d="M376.72,-561.5C393.36,-561.5 412.38,-561.5 429.8,-561.5"/>
<polygon fill="#63b8ff" stroke="#63b8ff" points="429.83,-565 439.83,-561.5 429.83,-558 429.83,-565"/>
</a>
</g>
</g>
<!-- Node27 -->
<g id="Node000027" class="node">
<title>Node27</title>
<g id="a_Node000027"><a xlink:href="external_8c.html#a1a1bdc0f5d3b6fd4a86b9d62e93a076e" target="_top" xlink:title=" ">
<polygon fill="white" stroke="#666666" points="854,-608 762,-608 762,-589 854,-589 854,-608"/>
<text text-anchor="middle" x="808" y="-596" font-family="Helvetica,sans-Serif" font-size="10.00">func_800C90F4</text>
</a>
</g>
</g>
<!-- Node4&#45;&gt;Node27 -->
<g id="edge27_Node000004_Node000027" class="edge">
<title>Node4&#45;&gt;Node27</title>
<g id="a_edge27_Node000004_Node000027"><a xlink:title=" ">
<path fill="none" stroke="#63b8ff" d="M376.74,-570.18C396.15,-573.59 419.12,-577.23 440,-579.5 550.18,-591.45 679.81,-595.93 751.77,-597.58"/>
<polygon fill="#63b8ff" stroke="#63b8ff" points="751.88,-601.08 761.96,-597.8 752.03,-594.08 751.88,-601.08"/>
</a>
</g>
</g>
<!-- Node6 -->
<g id="Node000006" class="node">
<title>Node6</title>
<g id="a_Node000006"><a xlink:href="code__8008C1D0_8c.html#ad164a912d7ef76f24e7b5cfb9169c16f" target="_top" xlink:title=" ">
<polygon fill="white" stroke="#666666" points="693.5,-241 600.5,-241 600.5,-222 693.5,-222 693.5,-241"/>
<text text-anchor="middle" x="647" y="-229" font-family="Helvetica,sans-Serif" font-size="10.00">func_8008C6D0</text>
</a>
</g>
</g>
<!-- Node5&#45;&gt;Node6 -->
<g id="edge5_Node000005_Node000006" class="edge">
<title>Node5&#45;&gt;Node6</title>
<g id="a_edge5_Node000005_Node000006"><a xlink:title=" ">
<path fill="none" stroke="#63b8ff" d="M518.05,-264.91C533.09,-260.37 551.43,-254.97 568,-250.5 576.8,-248.13 586.18,-245.73 595.29,-243.47"/>
<polygon fill="#63b8ff" stroke="#63b8ff" points="596.14,-246.86 605.02,-241.08 594.47,-240.07 596.14,-246.86"/>
</a>
</g>
</g>
<!-- Node7 -->
<g id="Node000007" class="node">
<title>Node7</title>
<g id="a_Node000007"><a xlink:href="code__8008C1D0_8c.html#a105203221e314be241a95e006b62ef80" target="_top" xlink:title=" ">
<polygon fill="white" stroke="#666666" points="693,-204 601,-204 601,-185 693,-185 693,-204"/>
<text text-anchor="middle" x="647" y="-192" font-family="Helvetica,sans-Serif" font-size="10.00">func_8008C8C4</text>
</a>
</g>
</g>
<!-- Node5&#45;&gt;Node7 -->
<g id="edge6_Node000005_Node000007" class="edge">
<title>Node5&#45;&gt;Node7</title>
<g id="a_edge6_Node000005_Node000007"><a xlink:title=" ">
<path fill="none" stroke="#63b8ff" d="M496.55,-264.94C510.83,-251.21 539.16,-226.08 568,-212.5 575.16,-209.13 583,-206.37 590.85,-204.11"/>
<polygon fill="#63b8ff" stroke="#63b8ff" points="591.98,-207.43 600.76,-201.51 590.2,-200.66 591.98,-207.43"/>
</a>
</g>
</g>
<!-- Node8 -->
<g id="Node000008" class="node">
<title>Node8</title>
<g id="a_Node000008"><a xlink:href="code__8008C1D0_8c.html#acab450a6af6eca812ad3987a292a5165" target="_top" xlink:title=" ">
<polygon fill="white" stroke="#666666" points="693,-167 601,-167 601,-148 693,-148 693,-167"/>
<text text-anchor="middle" x="647" y="-155" font-family="Helvetica,sans-Serif" font-size="10.00">func_8008D0E4</text>
</a>
</g>
</g>
<!-- Node5&#45;&gt;Node8 -->
<g id="edge7_Node000005_Node000008" class="edge">
<title>Node5&#45;&gt;Node8</title>
<g id="a_edge7_Node000005_Node000008"><a xlink:title=" ">
<path fill="none" stroke="#63b8ff" d="M492,-264.83C502.91,-244.77 530.84,-198.59 568,-175.5 574.97,-171.17 582.86,-167.88 590.9,-165.38"/>
<polygon fill="#63b8ff" stroke="#63b8ff" points="591.98,-168.72 600.7,-162.71 590.14,-161.96 591.98,-168.72"/>
</a>
</g>
</g>
<!-- Node9 -->
<g id="Node000009" class="node">
<title>Node9</title>
<g id="a_Node000009"><a xlink:href="code__8008C1D0_8c.html#a663cb8df8b606cf00e361977c9d6d834" target="_top" xlink:title=" ">
<polygon fill="white" stroke="#666666" points="693.5,-130 600.5,-130 600.5,-111 693.5,-111 693.5,-130"/>
<text text-anchor="middle" x="647" y="-118" font-family="Helvetica,sans-Serif" font-size="10.00">func_8008D3B0</text>
</a>
</g>
</g>
<!-- Node5&#45;&gt;Node9 -->
<g id="edge8_Node000005_Node000009" class="edge">
<title>Node5&#45;&gt;Node9</title>
<g id="a_edge8_Node000005_Node000009"><a xlink:title=" ">
<path fill="none" stroke="#63b8ff" d="M489.83,-264.78C497.68,-239.6 522.26,-171.86 568,-138.5 574.71,-133.61 582.53,-130.02 590.58,-127.39"/>
<polygon fill="#63b8ff" stroke="#63b8ff" points="591.76,-130.7 600.46,-124.64 589.88,-123.95 591.76,-130.7"/>
</a>
</g>
</g>
<!-- Node10 -->
<g id="Node000010" class="node">
<title>Node10</title>
<g id="a_Node000010"><a xlink:href="code__8008C1D0_8c.html#a5f19eaaa048055d292d02c717e635786" target="_top" xlink:title=" ">
<polygon fill="white" stroke="#666666" points="693,-93 601,-93 601,-74 693,-74 693,-93"/>
<text text-anchor="middle" x="647" y="-81" font-family="Helvetica,sans-Serif" font-size="10.00">func_8008D760</text>
</a>
</g>
</g>
<!-- Node5&#45;&gt;Node10 -->
<g id="edge9_Node000005_Node000010" class="edge">
<title>Node5&#45;&gt;Node10</title>
<g id="a_edge9_Node000005_Node000010"><a xlink:title=" ">
<path fill="none" stroke="#63b8ff" d="M488.51,-264.84C493.66,-235.34 513.32,-145.7 568,-101.5 574.68,-96.1 582.68,-92.26 590.98,-89.54"/>
<polygon fill="#63b8ff" stroke="#63b8ff" points="592.08,-92.86 600.79,-86.83 590.22,-86.11 592.08,-92.86"/>
</a>
</g>
</g>
<!-- Node11 -->
<g id="Node000011" class="node">
<title>Node11</title>
<g id="a_Node000011"><a xlink:href="code__8008C1D0_8c.html#a4ea2da0616ee3c475e4be217dc0bc71f" target="_top" xlink:title=" ">
<polygon fill="white" stroke="#666666" points="693.5,-534 600.5,-534 600.5,-515 693.5,-515 693.5,-534"/>
<text text-anchor="middle" x="647" y="-522" font-family="Helvetica,sans-Serif" font-size="10.00">func_8008D97C</text>
</a>
</g>
</g>
<!-- Node5&#45;&gt;Node11 -->
<g id="edge10_Node000005_Node000011" class="edge">
<title>Node5&#45;&gt;Node11</title>
<g id="a_edge10_Node000005_Node000011"><a xlink:title=" ">
<path fill="none" stroke="#63b8ff" d="M487.29,-284.15C488.88,-319.52 499.35,-443.29 568,-505.5 574.38,-511.29 582.23,-515.38 590.47,-518.27"/>
<polygon fill="#63b8ff" stroke="#63b8ff" points="589.66,-521.69 600.24,-521.14 591.63,-514.97 589.66,-521.69"/>
</a>
</g>
</g>
<!-- Node12 -->
<g id="Node000012" class="node">
<title>Node12</title>
<g id="a_Node000012"><a xlink:href="code__8008C1D0_8c.html#a4a437d6caeeaa794bcce43ec60c097e9" target="_top" xlink:title=" ">
<polygon fill="white" stroke="#666666" points="692.5,-497 601.5,-497 601.5,-478 692.5,-478 692.5,-497"/>
<text text-anchor="middle" x="647" y="-485" font-family="Helvetica,sans-Serif" font-size="10.00">func_8008E884</text>
</a>
</g>
</g>
<!-- Node5&#45;&gt;Node12 -->
<g id="edge11_Node000005_Node000012" class="edge">
<title>Node5&#45;&gt;Node12</title>
<g id="a_edge11_Node000005_Node000012"><a xlink:title=" ">
<path fill="none" stroke="#63b8ff" d="M488.03,-284.35C491.91,-316.29 508.62,-417.76 568,-468.5 574.77,-474.29 583.03,-478.37 591.61,-481.24"/>
<polygon fill="#63b8ff" stroke="#63b8ff" points="590.79,-484.64 601.36,-483.99 592.68,-477.91 590.79,-484.64"/>
</a>
</g>
</g>
<!-- Node13 -->
<g id="Node000013" class="node">
<title>Node13</title>
<g id="a_Node000013"><a xlink:href="code__8008C1D0_8c.html#ae02351b6bbb678b552ec8864b47fc56c" target="_top" xlink:title=" ">
<polygon fill="white" stroke="#666666" points="692.5,-460 601.5,-460 601.5,-441 692.5,-441 692.5,-460"/>
<text text-anchor="middle" x="647" y="-448" font-family="Helvetica,sans-Serif" font-size="10.00">func_8008F3E0</text>
</a>
</g>
</g>
<!-- Node5&#45;&gt;Node13 -->
<g id="edge12_Node000005_Node000013" class="edge">
<title>Node5&#45;&gt;Node13</title>
<g id="a_edge12_Node000005_Node000013"><a xlink:title=" ">
<path fill="none" stroke="#63b8ff" d="M489,-284.03C495.3,-311.54 517.38,-391.67 568,-431.5 574.92,-436.95 583.18,-440.86 591.7,-443.67"/>
<polygon fill="#63b8ff" stroke="#63b8ff" points="590.79,-447.05 601.36,-446.4 592.69,-440.31 590.79,-447.05"/>
</a>
</g>
</g>
<!-- Node14 -->
<g id="Node000014" class="node">
<title>Node14</title>
<g id="a_Node000014"><a xlink:href="code__8008C1D0_8c.html#afcf39ca15166fb7561402462930cd979" target="_top" xlink:title=" ">
<polygon fill="white" stroke="#666666" points="693,-56 601,-56 601,-37 693,-37 693,-56"/>
<text text-anchor="middle" x="647" y="-44" font-family="Helvetica,sans-Serif" font-size="10.00">func_8008F5A4</text>
</a>
</g>
</g>
<!-- Node5&#45;&gt;Node14 -->
<g id="edge13_Node000005_Node000014" class="edge">
<title>Node5&#45;&gt;Node14</title>
<g id="a_edge13_Node000005_Node000014"><a xlink:title=" ">
<path fill="none" stroke="#63b8ff" d="M490.13,-264.86C502.96,-225.53 551.66,-78.68 568,-64.5 574.56,-58.8 582.57,-54.82 590.93,-52.04"/>
<polygon fill="#63b8ff" stroke="#63b8ff" points="592.13,-55.34 600.84,-49.32 590.27,-48.6 592.13,-55.34"/>
</a>
</g>
</g>
<!-- Node19 -->
<g id="Node000019" class="node">
<title>Node19</title>
<g id="a_Node000019"><a xlink:href="code__8008C1D0_8c.html#ab6d84742231847170dd64267f0519cdf" target="_top" xlink:title=" ">
<polygon fill="white" stroke="#666666" points="693.5,-423 600.5,-423 600.5,-404 693.5,-404 693.5,-423"/>
<text text-anchor="middle" x="647" y="-411" font-family="Helvetica,sans-Serif" font-size="10.00">func_8008FEDC</text>
</a>
</g>
</g>
<!-- Node5&#45;&gt;Node19 -->
<g id="edge18_Node000005_Node000019" class="edge">
<title>Node5&#45;&gt;Node19</title>
<g id="a_edge18_Node000005_Node000019"><a xlink:title=" ">
<path fill="none" stroke="#63b8ff" d="M490.59,-284.05C499.73,-306.98 526.12,-365.35 568,-394.5 574.75,-399.2 582.53,-402.74 590.51,-405.41"/>
<polygon fill="#63b8ff" stroke="#63b8ff" points="589.71,-408.82 600.29,-408.25 591.66,-402.1 589.71,-408.82"/>
</a>
</g>
</g>
<!-- Node5&#45;&gt;Node20 -->
<g id="edge19_Node000005_Node000020" class="edge">
<title>Node5&#45;&gt;Node20</title>
<g id="a_edge19_Node000005_Node000020"><a xlink:title=" ">
<path fill="none" stroke="#63b8ff" d="M490.17,-264.87C497.52,-242.5 516.32,-185.32 532,-137.5 548.03,-88.62 530.04,-62.21 568,-27.5 571.03,-24.73 574.4,-22.36 577.99,-20.33"/>
<polygon fill="#63b8ff" stroke="#63b8ff" points="579.72,-23.39 587.29,-15.98 576.75,-17.05 579.72,-23.39"/>
</a>
</g>
</g>
<!-- Node21 -->
<g id="Node000021" class="node">
<title>Node21</title>
<g id="a_Node000021"><a xlink:href="code__8008C1D0_8c.html#a4768d56263e476d3bac47ee01bac3dc8" target="_top" xlink:title=" ">
<polygon fill="white" stroke="#666666" points="726,-385.5 568,-385.5 568,-355.5 726,-355.5 726,-385.5"/>
<text text-anchor="start" x="576" y="-373.5" font-family="Helvetica,sans-Serif" font-size="10.00">remove_boost_ramp_asphalt</text>
<text text-anchor="middle" x="647" y="-362.5" font-family="Helvetica,sans-Serif" font-size="10.00">_effect</text>
</a>
</g>
</g>
<!-- Node5&#45;&gt;Node21 -->
<g id="edge20_Node000005_Node000021" class="edge">
<title>Node5&#45;&gt;Node21</title>
<g id="a_edge20_Node000005_Node000021"><a xlink:title=" ">
<path fill="none" stroke="#63b8ff" d="M495.46,-284.35C509.18,-299.75 537.83,-329.52 568,-346.5 571.21,-348.31 574.58,-350 578.04,-351.57"/>
<polygon fill="#63b8ff" stroke="#63b8ff" points="576.77,-354.84 587.35,-355.48 579.48,-348.38 576.77,-354.84"/>
</a>
</g>
</g>
<!-- Node22 -->
<g id="Node000022" class="node">
<title>Node22</title>
<g id="a_Node000022"><a xlink:href="code__8008C1D0_8c.html#aafe14c45e9b91bb1d409ef2f2bfe5c53" target="_top" xlink:title=" ">
<polygon fill="white" stroke="#666666" points="721.5,-337.5 572.5,-337.5 572.5,-307.5 721.5,-307.5 721.5,-337.5"/>
<text text-anchor="start" x="580.5" y="-325.5" font-family="Helvetica,sans-Serif" font-size="10.00">remove_boost_ramp_wood</text>
<text text-anchor="middle" x="647" y="-314.5" font-family="Helvetica,sans-Serif" font-size="10.00">_effect</text>
</a>
</g>
</g>
<!-- Node5&#45;&gt;Node22 -->
<g id="edge21_Node000005_Node000022" class="edge">
<title>Node5&#45;&gt;Node22</title>
<g id="a_edge21_Node000005_Node000022"><a xlink:title=" ">
<path fill="none" stroke="#63b8ff" d="M518.79,-284.1C538.14,-289.94 563.47,-297.59 586.43,-304.52"/>
<polygon fill="#63b8ff" stroke="#63b8ff" points="585.52,-307.9 596.1,-307.44 587.54,-301.2 585.52,-307.9"/>
</a>
</g>
</g>
<!-- Node23 -->
<g id="Node000023" class="node">
<title>Node23</title>
<g id="a_Node000023"><a xlink:href="code__8008C1D0_8c.html#a0d5728af3b320b88b01fadef778fcbff" target="_top" xlink:title=" ">
<polygon fill="white" stroke="#666666" points="705.5,-289.5 588.5,-289.5 588.5,-259.5 705.5,-259.5 705.5,-289.5"/>
<text text-anchor="start" x="596.5" y="-277.5" font-family="Helvetica,sans-Serif" font-size="10.00">remove_hit_by_item</text>
<text text-anchor="middle" x="647" y="-266.5" font-family="Helvetica,sans-Serif" font-size="10.00">_effect</text>
</a>
</g>
</g>
<!-- Node5&#45;&gt;Node23 -->
<g id="edge22_Node000005_Node000023" class="edge">
<title>Node5&#45;&gt;Node23</title>
<g id="a_edge22_Node000005_Node000023"><a xlink:title=" ">
<path fill="none" stroke="#63b8ff" d="M524.28,-274.5C540.39,-274.5 559.75,-274.5 578.25,-274.5"/>
<polygon fill="#63b8ff" stroke="#63b8ff" points="578.41,-278 588.41,-274.5 578.41,-271 578.41,-278"/>
</a>
</g>
</g>
<!-- Node15 -->
<g id="Node000015" class="node">
<title>Node15</title>
<g id="a_Node000015"><a xlink:href="code__80057C60_8c.html#a0a55fae21abd30d3c618adef1a9f3ccd" target="_top" xlink:title=" ">
<polygon fill="white" stroke="#666666" points="854,-257 762,-257 762,-238 854,-238 854,-257"/>
<text text-anchor="middle" x="808" y="-245" font-family="Helvetica,sans-Serif" font-size="10.00">func_8006B8B4</text>
</a>
</g>
</g>
<!-- Node14&#45;&gt;Node15 -->
<g id="edge14_Node000014_Node000015" class="edge">
<title>Node14&#45;&gt;Node15</title>
<g id="a_edge14_Node000014_Node000015"><a xlink:title=" ">
<path fill="none" stroke="#63b8ff" d="M693.32,-49.7C704.96,-52.36 716.79,-56.89 726,-64.5 777.71,-107.21 797.49,-189.56 804.09,-227.48"/>
<polygon fill="#63b8ff" stroke="#63b8ff" points="800.7,-228.42 805.74,-237.73 807.61,-227.31 800.7,-228.42"/>
</a>
</g>
</g>
<!-- Node16 -->
<g id="Node000016" class="node">
<title>Node16</title>
<g id="a_Node000016"><a xlink:href="code__8008C1D0_8c.html#a1c7552c4a370cc015c2726e40f1fdb06" target="_top" xlink:title=" ">
<polygon fill="white" stroke="#666666" points="983,-294 890,-294 890,-275 983,-275 983,-294"/>
<text text-anchor="middle" x="936.5" y="-282" font-family="Helvetica,sans-Serif" font-size="10.00">func_8008FD4C</text>
</a>
</g>
</g>
<!-- Node15&#45;&gt;Node16 -->
<g id="edge15_Node000015_Node000016" class="edge">
<title>Node15&#45;&gt;Node16</title>
<g id="a_edge15_Node000015_Node000016"><a xlink:title=" ">
<path fill="none" stroke="#63b8ff" d="M841.58,-257.03C857.1,-261.57 875.87,-267.06 892.53,-271.93"/>
<polygon fill="#63b8ff" stroke="#63b8ff" points="892.01,-275.43 902.59,-274.88 893.98,-268.71 892.01,-275.43"/>
</a>
</g>
</g>
<!-- Node17 -->
<g id="Node000017" class="node">
<title>Node17</title>
<g id="a_Node000017"><a xlink:href="external_8c.html#add0040863c2fc7235a99395387d33600" target="_top" xlink:title=" ">
<polygon fill="white" stroke="#666666" points="982.5,-257 890.5,-257 890.5,-238 982.5,-238 982.5,-257"/>
<text text-anchor="middle" x="936.5" y="-245" font-family="Helvetica,sans-Serif" font-size="10.00">func_800C9060</text>
</a>
</g>
</g>
<!-- Node15&#45;&gt;Node17 -->
<g id="edge16_Node000015_Node000017" class="edge">
<title>Node15&#45;&gt;Node17</title>
<g id="a_edge16_Node000015_Node000017"><a xlink:title=" ">
<path fill="none" stroke="#63b8ff" d="M854.31,-247.5C862.58,-247.5 871.29,-247.5 879.81,-247.5"/>
<polygon fill="#63b8ff" stroke="#63b8ff" points="880.08,-251 890.08,-247.5 880.08,-244 880.08,-251"/>
</a>
</g>
</g>
<!-- Node18 -->
<g id="Node000018" class="node">
<title>Node18</title>
<g id="a_Node000018"><a xlink:href="external_8c.html#a62e16f9600e7e9beda2c9d2df10f3561" target="_top" xlink:title=" ">
<polygon fill="white" stroke="#666666" points="1091,-533 1019,-533 1019,-514 1091,-514 1091,-533"/>
<text text-anchor="middle" x="1055" y="-521" font-family="Helvetica,sans-Serif" font-size="10.00">play_sound</text>
</a>
</g>
</g>
<!-- Node17&#45;&gt;Node18 -->
<g id="edge17_Node000017_Node000018" class="edge">
<title>Node17&#45;&gt;Node18</title>
<g id="a_edge17_Node000017_Node000018"><a xlink:title=" ">
<path fill="none" stroke="#63b8ff" d="M972.06,-257.06C976.14,-259.31 979.94,-262.09 983,-265.5 1045.91,-335.62 1053.71,-456.53 1054.23,-503.78"/>
<polygon fill="#63b8ff" stroke="#63b8ff" points="1050.73,-503.89 1054.23,-513.89 1057.73,-503.89 1050.73,-503.89"/>
</a>
</g>
</g>
<!-- Node25 -->
<g id="Node000025" class="node">
<title>Node25</title>
<g id="a_Node000025"><a xlink:href="external_8c.html#aad3025d980410fa157174acbf923f8c0" target="_top" xlink:title=" ">
<polygon fill="white" stroke="#666666" points="693.5,-571 600.5,-571 600.5,-552 693.5,-552 693.5,-571"/>
<text text-anchor="middle" x="647" y="-559" font-family="Helvetica,sans-Serif" font-size="10.00">func_800C92CC</text>
</a>
</g>
</g>
<!-- Node24&#45;&gt;Node25 -->
<g id="edge24_Node000024_Node000025" class="edge">
<title>Node24&#45;&gt;Node25</title>
<g id="a_edge24_Node000024_Node000025"><a xlink:title=" ">
<path fill="none" stroke="#63b8ff" d="M532.14,-561.5C550.27,-561.5 571.36,-561.5 590.42,-561.5"/>
<polygon fill="#63b8ff" stroke="#63b8ff" points="590.47,-565 600.47,-561.5 590.47,-558 590.47,-565"/>
</a>
</g>
</g>
<!-- Node25&#45;&gt;Node18 -->
<g id="edge26_Node000025_Node000018" class="edge">
<title>Node25&#45;&gt;Node18</title>
<g id="a_edge26_Node000025_Node000018"><a xlink:title=" ">
<path fill="none" stroke="#63b8ff" d="M693.62,-552.82C714.41,-549.15 739.38,-545.11 762,-542.5 848.94,-532.45 951.11,-527.32 1008.63,-525.04"/>
<polygon fill="#63b8ff" stroke="#63b8ff" points="1008.98,-528.53 1018.84,-524.65 1008.71,-521.54 1008.98,-528.53"/>
</a>
</g>
</g>
<!-- Node26 -->
<g id="Node000026" class="node">
<title>Node26</title>
<g id="a_Node000026"><a xlink:href="external_8h.html#ae82eb9565bbd324f028121f490e7c9a7" target="_top" xlink:title=" ">
<polygon fill="white" stroke="#666666" points="854,-571 762,-571 762,-552 854,-552 854,-571"/>
<text text-anchor="middle" x="808" y="-559" font-family="Helvetica,sans-Serif" font-size="10.00">func_800C1C88</text>
</a>
</g>
</g>
<!-- Node25&#45;&gt;Node26 -->
<g id="edge25_Node000025_Node000026" class="edge">
<title>Node25&#45;&gt;Node26</title>
<g id="a_edge25_Node000025_Node000026"><a xlink:title=" ">
<path fill="none" stroke="#63b8ff" d="M693.56,-561.5C711.76,-561.5 732.89,-561.5 751.94,-561.5"/>
<polygon fill="#63b8ff" stroke="#63b8ff" points="751.98,-565 761.98,-561.5 751.98,-558 751.98,-565"/>
</a>
</g>
</g>
<!-- Node27&#45;&gt;Node18 -->
<g id="edge28_Node000027_Node000018" class="edge">
<title>Node27&#45;&gt;Node18</title>
<g id="a_edge28_Node000027_Node000018"><a xlink:title=" ">
<path fill="none" stroke="#63b8ff" d="M840.53,-588.85C884.54,-575.38 964.44,-550.92 1013.02,-536.04"/>
<polygon fill="#63b8ff" stroke="#63b8ff" points="1014.06,-539.39 1022.59,-533.11 1012.01,-532.69 1014.06,-539.39"/>
</a>
</g>
</g>
<!-- Node29 -->
<g id="Node000029" class="node">
<title>Node29</title>
<g id="a_Node000029"><a xlink:href="math__util_8c.html#aaa39a297477f56051975259f4bddd829" target="_top" xlink:title=" ">
<polygon fill="white" stroke="#666666" points="511,-647 461,-647 461,-628 511,-628 511,-647"/>
<text text-anchor="middle" x="486" y="-635" font-family="Helvetica,sans-Serif" font-size="10.00">atan2s</text>
</a>
</g>
</g>
<!-- Node28&#45;&gt;Node29 -->
<g id="edge30_Node000028_Node000029" class="edge">
<title>Node28&#45;&gt;Node29</title>
<g id="a_edge30_Node000028_Node000029"><a xlink:title=" ">
<path fill="none" stroke="#63b8ff" d="M404.2,-636.97C420.51,-637.08 437.05,-637.19 450.89,-637.28"/>
<polygon fill="#63b8ff" stroke="#63b8ff" points="450.87,-640.78 460.89,-637.34 450.92,-633.78 450.87,-640.78"/>
</a>
</g>
</g>
<!-- Node30 -->
<g id="Node000030" class="node">
<title>Node30</title>
<g id="a_Node000030"><a xlink:href="math__util_8c.html#a0273b0ea0783a06996c28669a7438ed9" target="_top" xlink:title=" ">
<polygon fill="white" stroke="#666666" points="688,-647 606,-647 606,-628 688,-628 688,-647"/>
<text text-anchor="middle" x="647" y="-635" font-family="Helvetica,sans-Serif" font-size="10.00">atan2_lookup</text>
</a>
</g>
</g>
<!-- Node29&#45;&gt;Node30 -->
<g id="edge31_Node000029_Node000030" class="edge">
<title>Node29&#45;&gt;Node30</title>
<g id="a_edge31_Node000029_Node000030"><a xlink:title=" ">
<path fill="none" stroke="#63b8ff" d="M511.15,-637.5C533.51,-637.5 567.47,-637.5 595.71,-637.5"/>
<polygon fill="#63b8ff" stroke="#63b8ff" points="595.83,-641 605.83,-637.5 595.83,-634 595.83,-641"/>
</a>
</g>
</g>
</g>
</svg>

<g id="navigator" transform="translate(0 0)" fill="#404254">
  <rect fill="#f2f5e9" fill-opacity="0.5" stroke="#606060" stroke-width=".5" x="0" y="0" width="60" height="60"/>
  <use id="zoomplus" xlink:href="#zoomPlus" x="17" y="9" onmousedown="handleZoom(evt,'in')"/>
  <use id="zoomminus" xlink:href="#zoomMin" x="42" y="9" onmousedown="handleZoom(evt,'out')"/>
  <use id="reset" xlink:href="#resetDef" x="30" y="36" onmousedown="handleReset()"/>
   <use id="arrowup" xlink:href="#arrowUp" x="0" y="0" onmousedown="handlePan(0,-1)"/>
  <use id="arrowright" xlink:href="#arrowRight" x="0" y="0" onmousedown="handlePan(1,0)"/>
  <use id="arrowdown" xlink:href="#arrowDown" x="0" y="0" onmousedown="handlePan(0,1)"/>
  <use id="arrowleft" xlink:href="#arrowLeft" x="0" y="0" onmousedown="handlePan(-1,0)"/>
</g>
<svg viewBox="0 0 15 15" width="100%" height="30px" preserveAspectRatio="xMaxYMin meet">
 <g id="arrow_out" transform="scale(0.3 0.3)">
  <a xlink:href="player__controller_8h_af917f12b29f31fbc3e06e36390b08cae_cgraph_org.svg" target="_base">
   <rect id="button" ry="5" rx="5" y="6" x="6" height="38" width="38"
        fill="#f2f5e9" fill-opacity="0.5" stroke="#606060" stroke-width="1.0"/>
   <path id="arrow"
     d="M 11.500037,31.436501 C 11.940474,20.09759 22.043105,11.32322 32.158766,21.979434 L 37.068811,17.246167 C 37.068811,17.246167 37.088388,32 37.088388,32 L 22.160133,31.978069 C 22.160133,31.978069 26.997745,27.140456 26.997745,27.140456 C 18.528582,18.264221 13.291696,25.230495 11.500037,31.436501 z"
     style="fill:#404040;"/>
  </a>
 </g>
</svg>

<style type='text/css'>
<![CDATA[
[data-mouse-over-selected='false'] { opacity: 0.7; }
[data-mouse-over-selected='true']  { opacity: 1.0; }
]]>
</style>
<script type="application/ecmascript"><![CDATA[
document.addEventListener('DOMContentLoaded', (event) => {
  highlightEdges();
  highlightAdjacentNodes();
});
]]></script>
</svg>
