<?xml version="1.0" encoding="UTF-8" standalone="no"?>
<!DOCTYPE svg PUBLIC "-//W3C//DTD SVG 1.1//EN"
 "http://www.w3.org/Graphics/SVG/1.1/DTD/svg11.dtd">
<!-- Generated by graphviz version 2.43.0 (0)
 -->
<!-- Title: func_8002B9CC Pages: 1 -->
<svg width="1008pt" height="712pt"
 viewBox="0.00 0.00 1008.00 712.00" xmlns="http://www.w3.org/2000/svg" xmlns:xlink="http://www.w3.org/1999/xlink">
<g id="graph0" class="graph" transform="scale(1 1) rotate(0) translate(4 708)">
<title>func_8002B9CC</title>
<!-- Node1 -->
<g id="Node000001" class="node">
<title>Node1</title>
<g id="a_Node000001"><a xlink:title=" ">
<polygon fill="#999999" stroke="#666666" points="93,-62 0,-62 0,-43 93,-43 93,-62"/>
<text text-anchor="middle" x="46.5" y="-50" font-family="Helvetica,sans-Serif" font-size="10.00">func_8002B9CC</text>
</a>
</g>
</g>
<!-- Node2 -->
<g id="Node000002" class="node">
<title>Node2</title>
<g id="a_Node000002"><a xlink:href="effects_8c.html#a01c1b5efe5e2c25eeb0a923d8f461b39" target="_top" xlink:title=" ">
<polygon fill="white" stroke="#666666" points="247.5,-121 138.5,-121 138.5,-102 247.5,-102 247.5,-121"/>
<text text-anchor="middle" x="193" y="-109" font-family="Helvetica,sans-Serif" font-size="10.00">add_spinout_effect</text>
</a>
</g>
</g>
<!-- Node1&#45;&gt;Node2 -->
<g id="edge1_Node000001_Node000002" class="edge">
<title>Node1&#45;&gt;Node2</title>
<g id="a_edge1_Node000001_Node000002"><a xlink:title=" ">
<path fill="none" stroke="#63b8ff" d="M71.04,-62.11C94.97,-71.88 132.25,-87.1 159.1,-98.07"/>
<polygon fill="#63b8ff" stroke="#63b8ff" points="157.89,-101.35 168.47,-101.89 160.54,-94.87 157.89,-101.35"/>
</a>
</g>
</g>
<!-- Node26 -->
<g id="Node000026" class="node">
<title>Node26</title>
<g id="a_Node000026"><a xlink:href="math__util_8c.html#a4151d0b0e3d70e2f8fb54c50e1fd6793" target="_top" xlink:title=" ">
<polygon fill="white" stroke="#666666" points="257,-67.5 129,-67.5 129,-37.5 257,-37.5 257,-67.5"/>
<text text-anchor="start" x="137" y="-55.5" font-family="Helvetica,sans-Serif" font-size="10.00">get_xz_angle_between</text>
<text text-anchor="middle" x="193" y="-44.5" font-family="Helvetica,sans-Serif" font-size="10.00">_points</text>
</a>
</g>
</g>
<!-- Node1&#45;&gt;Node26 -->
<g id="edge27_Node000001_Node000026" class="edge">
<title>Node1&#45;&gt;Node26</title>
<g id="a_edge27_Node000001_Node000026"><a xlink:title=" ">
<path fill="none" stroke="#63b8ff" d="M93.22,-52.5C101.36,-52.5 110.03,-52.5 118.71,-52.5"/>
<polygon fill="#63b8ff" stroke="#63b8ff" points="118.88,-56 128.88,-52.5 118.88,-49 118.88,-56"/>
</a>
</g>
</g>
<!-- Node29 -->
<g id="Node000029" class="node">
<title>Node29</title>
<g id="a_Node000029"><a xlink:href="math_8h.html#a37bde043e94a6f074c78f10518fb5d99" target="_top" xlink:title=" ">
<polygon fill="white" stroke="#666666" points="212.5,-19 173.5,-19 173.5,0 212.5,0 212.5,-19"/>
<text text-anchor="middle" x="193" y="-7" font-family="Helvetica,sans-Serif" font-size="10.00">sqrtf</text>
</a>
</g>
</g>
<!-- Node1&#45;&gt;Node29 -->
<g id="edge30_Node000001_Node000029" class="edge">
<title>Node1&#45;&gt;Node29</title>
<g id="a_edge30_Node000001_Node000029"><a xlink:title=" ">
<path fill="none" stroke="#63b8ff" d="M79.57,-42.96C104.74,-35.47 139.46,-25.14 163.63,-17.94"/>
<polygon fill="#63b8ff" stroke="#63b8ff" points="164.69,-21.28 173.28,-15.07 162.7,-14.57 164.69,-21.28"/>
</a>
</g>
</g>
<!-- Node3 -->
<g id="Node000003" class="node">
<title>Node3</title>
<g id="a_Node000003"><a xlink:href="effects_8c.html#a6559cc02e5bb1a4e7fe6c97850cdd87e" target="_top" xlink:title=" ">
<polygon fill="white" stroke="#666666" points="395,-439 319,-439 319,-420 395,-420 395,-439"/>
<text text-anchor="middle" x="357" y="-427" font-family="Helvetica,sans-Serif" font-size="10.00">clean_effect</text>
</a>
</g>
</g>
<!-- Node2&#45;&gt;Node3 -->
<g id="edge2_Node000002_Node000003" class="edge">
<title>Node2&#45;&gt;Node3</title>
<g id="a_edge2_Node000002_Node000003"><a xlink:title=" ">
<path fill="none" stroke="#63b8ff" d="M198.85,-121.02C221.34,-165.17 315.74,-350.47 346.36,-410.58"/>
<polygon fill="#63b8ff" stroke="#63b8ff" points="343.35,-412.39 351.01,-419.71 349.59,-409.21 343.35,-412.39"/>
</a>
</g>
</g>
<!-- Node22 -->
<g id="Node000022" class="node">
<title>Node22</title>
<g id="a_Node000022"><a xlink:href="external_8c.html#a337fc3ab94ebb3293a85908229303ac8" target="_top" xlink:title=" ">
<polygon fill="white" stroke="#666666" points="753,-148 661,-148 661,-129 753,-129 753,-148"/>
<text text-anchor="middle" x="707" y="-136" font-family="Helvetica,sans-Serif" font-size="10.00">func_800C90F4</text>
</a>
</g>
</g>
<!-- Node2&#45;&gt;Node22 -->
<g id="edge21_Node000002_Node000022" class="edge">
<title>Node2&#45;&gt;Node22</title>
<g id="a_edge21_Node000002_Node000022"><a xlink:title=" ">
<path fill="none" stroke="#63b8ff" d="M247.83,-114.34C345.65,-119.5 551.61,-130.36 650.59,-135.58"/>
<polygon fill="#63b8ff" stroke="#63b8ff" points="650.52,-139.08 660.69,-136.11 650.89,-132.09 650.52,-139.08"/>
</a>
</g>
</g>
<!-- Node23 -->
<g id="Node000023" class="node">
<title>Node23</title>
<g id="a_Node000023"><a xlink:href="cpu__vehicles__camera__path_8c.html#adb9b8cd30f2be4e125706fa55ea2272d" target="_top" xlink:title=" ">
<polygon fill="white" stroke="#666666" points="421,-91 293,-91 293,-72 421,-72 421,-91"/>
<text text-anchor="middle" x="357" y="-79" font-family="Helvetica,sans-Serif" font-size="10.00">play_cpu_sound_effect</text>
</a>
</g>
</g>
<!-- Node2&#45;&gt;Node23 -->
<g id="edge23_Node000002_Node000023" class="edge">
<title>Node2&#45;&gt;Node23</title>
<g id="a_edge23_Node000002_Node000023"><a xlink:title=" ">
<path fill="none" stroke="#63b8ff" d="M245.7,-101.93C261.27,-99.04 278.5,-95.85 294.63,-92.86"/>
<polygon fill="#63b8ff" stroke="#63b8ff" points="295.31,-96.3 304.51,-91.04 294.04,-89.41 295.31,-96.3"/>
</a>
</g>
</g>
<!-- Node4 -->
<g id="Node000004" class="node">
<title>Node4</title>
<g id="a_Node000004"><a xlink:href="effects_8c.html#a7fef1af5ca366a9346478d94239c6142" target="_top" xlink:title=" ">
<polygon fill="white" stroke="#666666" points="582.5,-704 489.5,-704 489.5,-685 582.5,-685 582.5,-704"/>
<text text-anchor="middle" x="536" y="-692" font-family="Helvetica,sans-Serif" font-size="10.00">func_8008C6D0</text>
</a>
</g>
</g>
<!-- Node3&#45;&gt;Node4 -->
<g id="edge3_Node000003_Node000004" class="edge">
<title>Node3&#45;&gt;Node4</title>
<g id="a_edge3_Node000003_Node000004"><a xlink:title=" ">
<path fill="none" stroke="#63b8ff" d="M358.77,-439.11C362.25,-476.1 379.98,-610.54 457,-676.5 463.45,-682.02 471.26,-685.93 479.42,-688.69"/>
<polygon fill="#63b8ff" stroke="#63b8ff" points="478.52,-692.07 489.1,-691.42 480.42,-685.34 478.52,-692.07"/>
</a>
</g>
</g>
<!-- Node5 -->
<g id="Node000005" class="node">
<title>Node5</title>
<g id="a_Node000005"><a xlink:href="effects_8c.html#a5f19eaaa048055d292d02c717e635786" target="_top" xlink:title=" ">
<polygon fill="white" stroke="#666666" points="582,-667 490,-667 490,-648 582,-648 582,-667"/>
<text text-anchor="middle" x="536" y="-655" font-family="Helvetica,sans-Serif" font-size="10.00">func_8008D760</text>
</a>
</g>
</g>
<!-- Node3&#45;&gt;Node5 -->
<g id="edge4_Node000003_Node000005" class="edge">
<title>Node3&#45;&gt;Node5</title>
<g id="a_edge4_Node000003_Node000005"><a xlink:title=" ">
<path fill="none" stroke="#63b8ff" d="M359.53,-439.28C365.34,-472.92 389.22,-584.86 457,-639.5 463.69,-644.89 471.69,-648.73 479.99,-651.45"/>
<polygon fill="#63b8ff" stroke="#63b8ff" points="479.23,-654.87 489.8,-654.15 481.09,-648.12 479.23,-654.87"/>
</a>
</g>
</g>
<!-- Node6 -->
<g id="Node000006" class="node">
<title>Node6</title>
<g id="a_Node000006"><a xlink:href="effects_8c.html#a4ea2da0616ee3c475e4be217dc0bc71f" target="_top" xlink:title=" ">
<polygon fill="white" stroke="#666666" points="582.5,-630 489.5,-630 489.5,-611 582.5,-611 582.5,-630"/>
<text text-anchor="middle" x="536" y="-618" font-family="Helvetica,sans-Serif" font-size="10.00">func_8008D97C</text>
</a>
</g>
</g>
<!-- Node3&#45;&gt;Node6 -->
<g id="edge5_Node000003_Node000006" class="edge">
<title>Node3&#45;&gt;Node6</title>
<g id="a_edge5_Node000003_Node000006"><a xlink:title=" ">
<path fill="none" stroke="#63b8ff" d="M360.55,-439.2C368.86,-468.82 398.11,-558.75 457,-602.5 463.66,-607.45 471.46,-611.07 479.5,-613.71"/>
<polygon fill="#63b8ff" stroke="#63b8ff" points="478.8,-617.15 489.37,-616.47 480.69,-610.41 478.8,-617.15"/>
</a>
</g>
</g>
<!-- Node7 -->
<g id="Node000007" class="node">
<title>Node7</title>
<g id="a_Node000007"><a xlink:href="effects_8c.html#a13005f7c39388deade6ba0491d7c5918" target="_top" xlink:title=" ">
<polygon fill="white" stroke="#666666" points="581.5,-593 490.5,-593 490.5,-574 581.5,-574 581.5,-593"/>
<text text-anchor="middle" x="536" y="-581" font-family="Helvetica,sans-Serif" font-size="10.00">func_8008E884</text>
</a>
</g>
</g>
<!-- Node3&#45;&gt;Node7 -->
<g id="edge6_Node000003_Node000007" class="edge">
<title>Node3&#45;&gt;Node7</title>
<g id="a_edge6_Node000003_Node000007"><a xlink:title=" ">
<path fill="none" stroke="#63b8ff" d="M362.11,-439.24C373.29,-464.48 406.82,-532.32 457,-565.5 464.08,-570.18 472.23,-573.66 480.52,-576.23"/>
<polygon fill="#63b8ff" stroke="#63b8ff" points="479.71,-579.64 490.28,-578.86 481.53,-572.88 479.71,-579.64"/>
</a>
</g>
</g>
<!-- Node8 -->
<g id="Node000008" class="node">
<title>Node8</title>
<g id="a_Node000008"><a xlink:href="effects_8c.html#ae02351b6bbb678b552ec8864b47fc56c" target="_top" xlink:title=" ">
<polygon fill="white" stroke="#666666" points="581.5,-556 490.5,-556 490.5,-537 581.5,-537 581.5,-556"/>
<text text-anchor="middle" x="536" y="-544" font-family="Helvetica,sans-Serif" font-size="10.00">func_8008F3E0</text>
</a>
</g>
</g>
<!-- Node3&#45;&gt;Node8 -->
<g id="edge7_Node000003_Node000008" class="edge">
<title>Node3&#45;&gt;Node8</title>
<g id="a_edge7_Node000003_Node000008"><a xlink:title=" ">
<path fill="none" stroke="#63b8ff" d="M364.68,-439.15C379.07,-459.17 415.12,-505.29 457,-528.5 464.17,-532.48 472.18,-535.57 480.26,-537.99"/>
<polygon fill="#63b8ff" stroke="#63b8ff" points="479.54,-541.42 490.1,-540.61 481.34,-534.65 479.54,-541.42"/>
</a>
</g>
</g>
<!-- Node9 -->
<g id="Node000009" class="node">
<title>Node9</title>
<g id="a_Node000009"><a xlink:href="effects_8c.html#ab5125d5944958f891647b27b440d3d62" target="_top" xlink:title=" ">
<polygon fill="white" stroke="#666666" points="582,-519 490,-519 490,-500 582,-500 582,-519"/>
<text text-anchor="middle" x="536" y="-507" font-family="Helvetica,sans-Serif" font-size="10.00">func_8008F5A4</text>
</a>
</g>
</g>
<!-- Node3&#45;&gt;Node9 -->
<g id="edge8_Node000003_Node000009" class="edge">
<title>Node3&#45;&gt;Node9</title>
<g id="a_edge8_Node000003_Node000009"><a xlink:title=" ">
<path fill="none" stroke="#63b8ff" d="M370.38,-439.18C388.43,-452.82 423.47,-477.59 457,-491.5 464.22,-494.49 472.03,-497.04 479.83,-499.2"/>
<polygon fill="#63b8ff" stroke="#63b8ff" points="479.1,-502.62 489.65,-501.71 480.84,-495.84 479.1,-502.62"/>
</a>
</g>
</g>
<!-- Node14 -->
<g id="Node000014" class="node">
<title>Node14</title>
<g id="a_Node000014"><a xlink:href="effects_8c.html#a2f183005a5e85816dd81508847c1904d" target="_top" xlink:title=" ">
<polygon fill="white" stroke="#666666" points="582.5,-482 489.5,-482 489.5,-463 582.5,-463 582.5,-482"/>
<text text-anchor="middle" x="536" y="-470" font-family="Helvetica,sans-Serif" font-size="10.00">func_8008FEDC</text>
</a>
</g>
</g>
<!-- Node3&#45;&gt;Node14 -->
<g id="edge13_Node000003_Node000014" class="edge">
<title>Node3&#45;&gt;Node14</title>
<g id="a_edge13_Node000003_Node000014"><a xlink:title=" ">
<path fill="none" stroke="#63b8ff" d="M395.11,-438.51C421.49,-444.92 457.21,-453.6 485.95,-460.58"/>
<polygon fill="#63b8ff" stroke="#63b8ff" points="485.25,-464.02 495.8,-462.98 486.9,-457.21 485.25,-464.02"/>
</a>
</g>
</g>
<!-- Node15 -->
<g id="Node000015" class="node">
<title>Node15</title>
<g id="a_Node000015"><a xlink:href="effects_8c.html#acbb1f27649a63227fcf0dd1f17dfa096" target="_top" xlink:title=" ">
<polygon fill="white" stroke="#666666" points="597,-444.5 475,-444.5 475,-414.5 597,-414.5 597,-444.5"/>
<text text-anchor="start" x="483" y="-432.5" font-family="Helvetica,sans-Serif" font-size="10.00">remove_banana_near</text>
<text text-anchor="middle" x="536" y="-421.5" font-family="Helvetica,sans-Serif" font-size="10.00">_spinout_effect</text>
</a>
</g>
</g>
<!-- Node3&#45;&gt;Node15 -->
<g id="edge14_Node000003_Node000015" class="edge">
<title>Node3&#45;&gt;Node15</title>
<g id="a_edge14_Node000003_Node000015"><a xlink:title=" ">
<path fill="none" stroke="#63b8ff" d="M395.11,-429.5C415.33,-429.5 441.03,-429.5 464.87,-429.5"/>
<polygon fill="#63b8ff" stroke="#63b8ff" points="464.96,-433 474.96,-429.5 464.96,-426 464.96,-433"/>
</a>
</g>
</g>
<!-- Node16 -->
<g id="Node000016" class="node">
<title>Node16</title>
<g id="a_Node000016"><a xlink:href="effects_8c.html#a4768d56263e476d3bac47ee01bac3dc8" target="_top" xlink:title=" ">
<polygon fill="white" stroke="#666666" points="615,-396.5 457,-396.5 457,-366.5 615,-366.5 615,-396.5"/>
<text text-anchor="start" x="465" y="-384.5" font-family="Helvetica,sans-Serif" font-size="10.00">remove_boost_ramp_asphalt</text>
<text text-anchor="middle" x="536" y="-373.5" font-family="Helvetica,sans-Serif" font-size="10.00">_effect</text>
</a>
</g>
</g>
<!-- Node3&#45;&gt;Node16 -->
<g id="edge15_Node000003_Node000016" class="edge">
<title>Node3&#45;&gt;Node16</title>
<g id="a_edge15_Node000003_Node000016"><a xlink:title=" ">
<path fill="none" stroke="#63b8ff" d="M393.39,-419.9C415.22,-413.98 443.89,-406.21 469.72,-399.2"/>
<polygon fill="#63b8ff" stroke="#63b8ff" points="470.72,-402.56 479.46,-396.56 468.89,-395.8 470.72,-402.56"/>
</a>
</g>
</g>
<!-- Node17 -->
<g id="Node000017" class="node">
<title>Node17</title>
<g id="a_Node000017"><a xlink:href="effects_8c.html#aafe14c45e9b91bb1d409ef2f2bfe5c53" target="_top" xlink:title=" ">
<polygon fill="white" stroke="#666666" points="610.5,-348.5 461.5,-348.5 461.5,-318.5 610.5,-318.5 610.5,-348.5"/>
<text text-anchor="start" x="469.5" y="-336.5" font-family="Helvetica,sans-Serif" font-size="10.00">remove_boost_ramp_wood</text>
<text text-anchor="middle" x="536" y="-325.5" font-family="Helvetica,sans-Serif" font-size="10.00">_effect</text>
</a>
</g>
</g>
<!-- Node3&#45;&gt;Node17 -->
<g id="edge16_Node000003_Node000017" class="edge">
<title>Node3&#45;&gt;Node17</title>
<g id="a_edge16_Node000003_Node000017"><a xlink:title=" ">
<path fill="none" stroke="#63b8ff" d="M368.79,-419.77C386.18,-404.53 422.02,-374.99 457,-357.5 460.78,-355.61 464.73,-353.84 468.77,-352.18"/>
<polygon fill="#63b8ff" stroke="#63b8ff" points="470.24,-355.36 478.32,-348.5 467.73,-348.83 470.24,-355.36"/>
</a>
</g>
</g>
<!-- Node18 -->
<g id="Node000018" class="node">
<title>Node18</title>
<g id="a_Node000018"><a xlink:href="effects_8c.html#a9ff5c732ea8ba59908ccf62ff441e7e4" target="_top" xlink:title=" ">
<polygon fill="white" stroke="#666666" points="596,-300.5 476,-300.5 476,-270.5 596,-270.5 596,-300.5"/>
<text text-anchor="start" x="484" y="-288.5" font-family="Helvetica,sans-Serif" font-size="10.00">remove_driving_near</text>
<text text-anchor="middle" x="536" y="-277.5" font-family="Helvetica,sans-Serif" font-size="10.00">_spinout_effect</text>
</a>
</g>
</g>
<!-- Node3&#45;&gt;Node18 -->
<g id="edge17_Node000003_Node000018" class="edge">
<title>Node3&#45;&gt;Node18</title>
<g id="a_edge17_Node000003_Node000018"><a xlink:title=" ">
<path fill="none" stroke="#63b8ff" d="M363.3,-419.78C376.23,-397.01 411.66,-339.84 457,-309.5 460.07,-307.45 463.31,-305.57 466.68,-303.84"/>
<polygon fill="#63b8ff" stroke="#63b8ff" points="468.19,-307 475.8,-299.63 465.25,-300.64 468.19,-307"/>
</a>
</g>
</g>
<!-- Node19 -->
<g id="Node000019" class="node">
<title>Node19</title>
<g id="a_Node000019"><a xlink:href="effects_8c.html#a5f1aead641683fd07375d6737dfafac2" target="_top" xlink:title=" ">
<polygon fill="white" stroke="#666666" points="592.5,-252.5 479.5,-252.5 479.5,-222.5 592.5,-222.5 592.5,-252.5"/>
<text text-anchor="start" x="487.5" y="-240.5" font-family="Helvetica,sans-Serif" font-size="10.00">remove_hit_by_star</text>
<text text-anchor="middle" x="536" y="-229.5" font-family="Helvetica,sans-Serif" font-size="10.00">_effect</text>
</a>
</g>
</g>
<!-- Node3&#45;&gt;Node19 -->
<g id="edge18_Node000003_Node000019" class="edge">
<title>Node3&#45;&gt;Node19</title>
<g id="a_edge18_Node000003_Node000019"><a xlink:title=" ">
<path fill="none" stroke="#63b8ff" d="M360.9,-419.86C370.04,-391.19 400.94,-305.77 457,-261.5 461,-258.34 465.41,-255.6 470.04,-253.22"/>
<polygon fill="#63b8ff" stroke="#63b8ff" points="471.52,-256.39 479.17,-249.06 468.62,-250.02 471.52,-256.39"/>
</a>
</g>
</g>
<!-- Node20 -->
<g id="Node000020" class="node">
<title>Node20</title>
<g id="a_Node000020"><a xlink:href="effects_8c.html#a9be2cc0ebbe72a9d5276a4fd2675eef3" target="_top" xlink:title=" ">
<polygon fill="white" stroke="#666666" points="608.5,-204 463.5,-204 463.5,-185 608.5,-185 608.5,-204"/>
<text text-anchor="middle" x="536" y="-192" font-family="Helvetica,sans-Serif" font-size="10.00">remove_mushroom_effect</text>
</a>
</g>
</g>
<!-- Node3&#45;&gt;Node20 -->
<g id="edge19_Node000003_Node000020" class="edge">
<title>Node3&#45;&gt;Node20</title>
<g id="a_edge19_Node000003_Node000020"><a xlink:title=" ">
<path fill="none" stroke="#63b8ff" d="M359.39,-419.96C364.83,-386.06 387.96,-270.48 457,-213.5 459.02,-211.83 461.17,-210.3 463.41,-208.91"/>
<polygon fill="#63b8ff" stroke="#63b8ff" points="465.24,-211.9 472.46,-204.15 461.98,-205.71 465.24,-211.9"/>
</a>
</g>
</g>
<!-- Node21 -->
<g id="Node000021" class="node">
<title>Node21</title>
<g id="a_Node000021"><a xlink:href="effects_8c.html#a85a7ba2f2c97859b0090c54a68e8f003" target="_top" xlink:title=" ">
<polygon fill="white" stroke="#666666" points="603,-167 469,-167 469,-148 603,-148 603,-167"/>
<text text-anchor="middle" x="536" y="-155" font-family="Helvetica,sans-Serif" font-size="10.00">remove_spinout_effects</text>
</a>
</g>
</g>
<!-- Node3&#45;&gt;Node21 -->
<g id="edge20_Node000003_Node000021" class="edge">
<title>Node3&#45;&gt;Node21</title>
<g id="a_edge20_Node000003_Node000021"><a xlink:title=" ">
<path fill="none" stroke="#63b8ff" d="M358.69,-419.95C361.91,-382.55 378.88,-244.8 457,-176.5 458.79,-174.93 460.69,-173.49 462.67,-172.17"/>
<polygon fill="#63b8ff" stroke="#63b8ff" points="464.82,-174.98 471.85,-167.06 461.41,-168.86 464.82,-174.98"/>
</a>
</g>
</g>
<!-- Node10 -->
<g id="Node000010" class="node">
<title>Node10</title>
<g id="a_Node000010"><a xlink:href="code__80057C60_8c.html#ae28b6eb556910087cea23f0cb7a322bd" target="_top" xlink:title=" ">
<polygon fill="white" stroke="#666666" points="763,-430 651,-430 651,-411 763,-411 763,-430"/>
<text text-anchor="middle" x="707" y="-418" font-family="Helvetica,sans-Serif" font-size="10.00">pop_player_balloon</text>
</a>
</g>
</g>
<!-- Node9&#45;&gt;Node10 -->
<g id="edge9_Node000009_Node000010" class="edge">
<title>Node9&#45;&gt;Node10</title>
<g id="a_edge9_Node000009_Node000010"><a xlink:title=" ">
<path fill="none" stroke="#63b8ff" d="M582.27,-502.55C593.3,-499.92 604.84,-496.34 615,-491.5 643.6,-477.87 671.59,-453.99 688.81,-437.72"/>
<polygon fill="#63b8ff" stroke="#63b8ff" points="691.6,-439.89 696.35,-430.43 686.73,-434.86 691.6,-439.89"/>
</a>
</g>
</g>
<!-- Node11 -->
<g id="Node000011" class="node">
<title>Node11</title>
<g id="a_Node000011"><a xlink:href="effects_8c.html#a1c7552c4a370cc015c2726e40f1fdb06" target="_top" xlink:title=" ">
<polygon fill="white" stroke="#666666" points="892,-430 799,-430 799,-411 892,-411 892,-430"/>
<text text-anchor="middle" x="845.5" y="-418" font-family="Helvetica,sans-Serif" font-size="10.00">func_8008FD4C</text>
</a>
</g>
</g>
<!-- Node10&#45;&gt;Node11 -->
<g id="edge10_Node000010_Node000011" class="edge">
<title>Node10&#45;&gt;Node11</title>
<g id="a_edge10_Node000010_Node000011"><a xlink:title=" ">
<path fill="none" stroke="#63b8ff" d="M763.13,-420.5C771.54,-420.5 780.24,-420.5 788.67,-420.5"/>
<polygon fill="#63b8ff" stroke="#63b8ff" points="788.79,-424 798.79,-420.5 788.79,-417 788.79,-424"/>
</a>
</g>
</g>
<!-- Node12 -->
<g id="Node000012" class="node">
<title>Node12</title>
<g id="a_Node000012"><a xlink:href="external_8c.html#a2be9efc97a92e19d02aaee90d676acc1" target="_top" xlink:title=" ">
<polygon fill="white" stroke="#666666" points="891.5,-324 799.5,-324 799.5,-305 891.5,-305 891.5,-324"/>
<text text-anchor="middle" x="845.5" y="-312" font-family="Helvetica,sans-Serif" font-size="10.00">func_800C9060</text>
</a>
</g>
</g>
<!-- Node10&#45;&gt;Node12 -->
<g id="edge11_Node000010_Node000012" class="edge">
<title>Node10&#45;&gt;Node12</title>
<g id="a_edge11_Node000010_Node000012"><a xlink:title=" ">
<path fill="none" stroke="#63b8ff" d="M720.6,-410.72C744.16,-392.42 795.12,-352.85 823.8,-330.57"/>
<polygon fill="#63b8ff" stroke="#63b8ff" points="826.18,-333.16 831.93,-324.26 821.89,-327.63 826.18,-333.16"/>
</a>
</g>
</g>
<!-- Node13 -->
<g id="Node000013" class="node">
<title>Node13</title>
<g id="a_Node000013"><a xlink:href="external_8c.html#a475cff796211891556f52877cd8e9b9e" target="_top" xlink:title=" ">
<polygon fill="white" stroke="#666666" points="1000,-148 928,-148 928,-129 1000,-129 1000,-148"/>
<text text-anchor="middle" x="964" y="-136" font-family="Helvetica,sans-Serif" font-size="10.00">play_sound</text>
</a>
</g>
</g>
<!-- Node12&#45;&gt;Node13 -->
<g id="edge12_Node000012_Node000013" class="edge">
<title>Node12&#45;&gt;Node13</title>
<g id="a_edge12_Node000012_Node000013"><a xlink:title=" ">
<path fill="none" stroke="#63b8ff" d="M852.93,-304.79C871.66,-276.49 926.42,-193.77 950.91,-156.76"/>
<polygon fill="#63b8ff" stroke="#63b8ff" points="953.85,-158.67 956.45,-148.4 948.01,-154.81 953.85,-158.67"/>
</a>
</g>
</g>
<!-- Node22&#45;&gt;Node13 -->
<g id="edge22_Node000022_Node000013" class="edge">
<title>Node22&#45;&gt;Node13</title>
<g id="a_edge22_Node000022_Node000013"><a xlink:title=" ">
<path fill="none" stroke="#63b8ff" d="M753,-138.5C799.39,-138.5 871.32,-138.5 917.79,-138.5"/>
<polygon fill="#63b8ff" stroke="#63b8ff" points="917.87,-142 927.87,-138.5 917.87,-135 917.87,-142"/>
</a>
</g>
</g>
<!-- Node24 -->
<g id="Node000024" class="node">
<title>Node24</title>
<g id="a_Node000024"><a xlink:href="external_8c.html#aad3025d980410fa157174acbf923f8c0" target="_top" xlink:title=" ">
<polygon fill="white" stroke="#666666" points="582.5,-91 489.5,-91 489.5,-72 582.5,-72 582.5,-91"/>
<text text-anchor="middle" x="536" y="-79" font-family="Helvetica,sans-Serif" font-size="10.00">func_800C92CC</text>
</a>
</g>
</g>
<!-- Node23&#45;&gt;Node24 -->
<g id="edge24_Node000023_Node000024" class="edge">
<title>Node23&#45;&gt;Node24</title>
<g id="a_edge24_Node000023_Node000024"><a xlink:title=" ">
<path fill="none" stroke="#63b8ff" d="M421.4,-81.5C440.23,-81.5 460.71,-81.5 479.03,-81.5"/>
<polygon fill="#63b8ff" stroke="#63b8ff" points="479.25,-85 489.25,-81.5 479.25,-78 479.25,-85"/>
</a>
</g>
</g>
<!-- Node24&#45;&gt;Node13 -->
<g id="edge26_Node000024_Node000013" class="edge">
<title>Node24&#45;&gt;Node13</title>
<g id="a_edge26_Node000024_Node000013"><a xlink:title=" ">
<path fill="none" stroke="#63b8ff" d="M582.59,-87.6C664.62,-98.58 836.12,-121.52 917.84,-132.46"/>
<polygon fill="#63b8ff" stroke="#63b8ff" points="917.44,-135.94 927.82,-133.79 918.37,-129 917.44,-135.94"/>
</a>
</g>
</g>
<!-- Node25 -->
<g id="Node000025" class="node">
<title>Node25</title>
<g id="a_Node000025"><a xlink:href="external_8c.html#a747de0be4005b4b29150d5c068564b7d" target="_top" xlink:title=" ">
<polygon fill="white" stroke="#666666" points="753,-72 661,-72 661,-53 753,-53 753,-72"/>
<text text-anchor="middle" x="707" y="-60" font-family="Helvetica,sans-Serif" font-size="10.00">func_800C1C88</text>
</a>
</g>
</g>
<!-- Node24&#45;&gt;Node25 -->
<g id="edge25_Node000024_Node000025" class="edge">
<title>Node24&#45;&gt;Node25</title>
<g id="a_edge25_Node000024_Node000025"><a xlink:title=" ">
<path fill="none" stroke="#63b8ff" d="M582.73,-76.36C603.66,-74.01 628.64,-71.2 650.62,-68.73"/>
<polygon fill="#63b8ff" stroke="#63b8ff" points="651.27,-72.18 660.82,-67.58 650.49,-65.22 651.27,-72.18"/>
</a>
</g>
</g>
<!-- Node27 -->
<g id="Node000027" class="node">
<title>Node27</title>
<g id="a_Node000027"><a xlink:href="math__util_8c.html#a39b33617a06622150fcb2b20569aa969" target="_top" xlink:title=" ">
<polygon fill="white" stroke="#666666" points="382,-54 332,-54 332,-35 382,-35 382,-54"/>
<text text-anchor="middle" x="357" y="-42" font-family="Helvetica,sans-Serif" font-size="10.00">atan2s</text>
</a>
</g>
</g>
<!-- Node26&#45;&gt;Node27 -->
<g id="edge28_Node000026_Node000027" class="edge">
<title>Node26&#45;&gt;Node27</title>
<g id="a_edge28_Node000026_Node000027"><a xlink:title=" ">
<path fill="none" stroke="#63b8ff" d="M257.1,-49.38C279.03,-48.3 302.81,-47.13 321.56,-46.2"/>
<polygon fill="#63b8ff" stroke="#63b8ff" points="321.87,-49.69 331.68,-45.7 321.52,-42.7 321.87,-49.69"/>
</a>
</g>
</g>
<!-- Node28 -->
<g id="Node000028" class="node">
<title>Node28</title>
<g id="a_Node000028"><a xlink:href="math__util_8c.html#a0273b0ea0783a06996c28669a7438ed9" target="_top" xlink:title=" ">
<polygon fill="white" stroke="#666666" points="577,-54 495,-54 495,-35 577,-35 577,-54"/>
<text text-anchor="middle" x="536" y="-42" font-family="Helvetica,sans-Serif" font-size="10.00">atan2_lookup</text>
</a>
</g>
</g>
<!-- Node27&#45;&gt;Node28 -->
<g id="edge29_Node000027_Node000028" class="edge">
<title>Node27&#45;&gt;Node28</title>
<g id="a_edge29_Node000027_Node000028"><a xlink:title=" ">
<path fill="none" stroke="#63b8ff" d="M382.24,-44.5C408.5,-44.5 451.12,-44.5 484.69,-44.5"/>
<polygon fill="#63b8ff" stroke="#63b8ff" points="484.78,-48 494.78,-44.5 484.78,-41 484.78,-48"/>
</a>
</g>
</g>
</g>
</svg>
