<?xml version="1.0" encoding="UTF-8" standalone="no"?>
<!DOCTYPE svg PUBLIC "-//W3C//DTD SVG 1.1//EN"
 "http://www.w3.org/Graphics/SVG/1.1/DTD/svg11.dtd">
<!-- Generated by graphviz version 2.43.0 (0)
 -->
<!-- Title: func_8002C4F8 Pages: 1 -->
<!--zoomable 941 -->

<svg id="main" version="1.1" xmlns="http://www.w3.org/2000/svg" xmlns:xlink="http://www.w3.org/1999/xlink" xml:space="preserve" onload="init(evt)">
<style type="text/css"><![CDATA[
.node, .edge {opacity: 0.7;}
.node.selected, .edge.selected {opacity: 1;}
.edge:hover path { stroke: red; }
.edge:hover polygon { stroke: red; fill: red; }
]]></style>

<defs>
  <circle id="rim" cx="0" cy="0" r="7"/>
  <circle id="rim2" cx="0" cy="0" r="3.5"/>
  <g id="zoomPlus">
    <use xlink:href="#rim" fill="#404040"><set attributeName="fill" to="#808080" begin="zoomplus.mouseover" end="zoomplus.mouseout"/></use>
    <path d="M-4,0h8M0,-4v8" fill="none" stroke="white" stroke-width="1.5" pointer-events="none"/>
  </g>
  <g id="zoomMin">
    <use xlink:href="#rim" fill="#404040"><set attributeName="fill" to="#808080" begin="zoomminus.mouseover" end="zoomminus.mouseout"/></use>
    <path d="M-4,0h8" fill="none" stroke="white" stroke-width="1.5" pointer-events="none"/>
  </g>
  <g id="arrowUp" transform="translate(30 24)">
    <use xlink:href="#rim"/>
    <path pointer-events="none" fill="none" stroke="white" stroke-width="1.5" d="M0,-3.0v7 M-2.5,-0.5L0,-3.0L2.5,-0.5"/>
  </g>
  <g id="arrowRight" transform="rotate(90) translate(36 -43)">
    <use xlink:href="#rim"/>
    <path pointer-events="none" fill="none" stroke="white" stroke-width="1.5" d="M0,-3.0v7 M-2.5,-0.5L0,-3.0L2.5,-0.5"/>
  </g>
  <g id="arrowDown" transform="rotate(180) translate(-30 -48)">
    <use xlink:href="#rim"/>
    <path pointer-events="none" fill="none" stroke="white" stroke-width="1.5" d="M0,-3.0v7 M-2.5,-0.5L0,-3.0L2.5,-0.5"/>
  </g>
  <g id="arrowLeft" transform="rotate(270) translate(-36 17)">
    <use xlink:href="#rim"/>
    <path pointer-events="none" fill="none" stroke="white" stroke-width="1.5" d="M0,-3.0v7 M-2.5,-0.5L0,-3.0L2.5,-0.5"/>
  </g>
  <g id="resetDef">
    <use xlink:href="#rim2" fill="#404040"><set attributeName="fill" to="#808080" begin="reset.mouseover" end="reset.mouseout"/></use>
  </g>
</defs>
<script type="application/ecmascript">
var viewWidth = 1177;
var viewHeight = 941;
var sectionId = 'dynsection-67';
</script>
<script type="application/ecmascript" xlink:href="svg.min.js"/>
<svg id="graph" class="graph">
<g id="viewport">
<title>func_8002C4F8</title>
<!-- Node1 -->
<g id="Node000001" class="node">
<title>Node1</title>
<g id="a_Node000001"><a xlink:title=" ">
<polygon fill="#999999" stroke="#666666" points="92,-338 0,-338 0,-319 92,-319 92,-338"/>
<text text-anchor="middle" x="46" y="-326" font-family="Helvetica,sans-Serif" font-size="10.00">func_8002C4F8</text>
</a>
</g>
</g>
<!-- Node2 -->
<g id="Node000002" class="node">
<title>Node2</title>
<g id="a_Node000002"><a xlink:href="player__controller_8c.html#adb29ff51f9d63ef953d1dcda830a7603" target="_top" xlink:title=" ">
<polygon fill="white" stroke="#666666" points="221,-596 129,-596 129,-577 221,-577 221,-596"/>
<text text-anchor="middle" x="175" y="-584" font-family="Helvetica,sans-Serif" font-size="10.00">func_8002C17C</text>
</a>
</g>
</g>
<!-- Node1&#45;&gt;Node2 -->
<g id="edge1_Node000001_Node000002" class="edge">
<title>Node1&#45;&gt;Node2</title>
<g id="a_edge1_Node000001_Node000002"><a xlink:title=" ">
<path fill="none" stroke="#63b8ff" d="M50.86,-338.04C61.92,-365.17 95.06,-444.9 128,-508.5 138.78,-529.31 152.6,-552.33 162.27,-567.93"/>
<polygon fill="#63b8ff" stroke="#63b8ff" points="159.42,-569.98 167.69,-576.6 165.35,-566.27 159.42,-569.98"/>
</a>
</g>
</g>
<!-- Node3 -->
<g id="Node000003" class="node">
<title>Node3</title>
<g id="a_Node000003"><a xlink:href="collision_8c.html#a0371e15af0413f7e110eb91a9995bcb7" target="_top" xlink:title=" ">
<polygon fill="white" stroke="#666666" points="372.5,-651 278.5,-651 278.5,-632 372.5,-632 372.5,-651"/>
<text text-anchor="middle" x="325.5" y="-639" font-family="Helvetica,sans-Serif" font-size="10.00">func_802ABDF4</text>
</a>
</g>
</g>
<!-- Node1&#45;&gt;Node3 -->
<g id="edge52_Node000001_Node000003" class="edge">
<title>Node1&#45;&gt;Node3</title>
<g id="a_edge52_Node000001_Node000003"><a xlink:title=" ">
<path fill="none" stroke="#63b8ff" d="M54.52,-338.43C79.12,-371 159.25,-477.72 222,-568.5 238.61,-592.53 234.36,-606.34 258,-623.5 261.43,-625.99 265.19,-628.13 269.11,-629.98"/>
<polygon fill="#63b8ff" stroke="#63b8ff" points="267.92,-633.28 278.5,-633.78 270.54,-626.79 267.92,-633.28"/>
</a>
</g>
</g>
<!-- Node4 -->
<g id="Node000004" class="node">
<title>Node4</title>
<g id="a_Node000004"><a xlink:href="effects_8c.html#a17332237b5c2a4249328a35071e23bf7" target="_top" xlink:title=" ">
<polygon fill="white" stroke="#666666" points="220.5,-319 129.5,-319 129.5,-300 220.5,-300 220.5,-319"/>
<text text-anchor="middle" x="175" y="-307" font-family="Helvetica,sans-Serif" font-size="10.00">func_80090778</text>
</a>
</g>
</g>
<!-- Node1&#45;&gt;Node4 -->
<g id="edge3_Node000001_Node000004" class="edge">
<title>Node1&#45;&gt;Node4</title>
<g id="a_edge3_Node000001_Node000004"><a xlink:title=" ">
<path fill="none" stroke="#63b8ff" d="M92.13,-321.75C100.94,-320.43 110.26,-319.04 119.34,-317.68"/>
<polygon fill="#63b8ff" stroke="#63b8ff" points="120.07,-321.11 129.44,-316.17 119.03,-314.18 120.07,-321.11"/>
</a>
</g>
</g>
<!-- Node14 -->
<g id="Node000014" class="node">
<title>Node14</title>
<g id="a_Node000014"><a xlink:href="external_8c.html#a2be9efc97a92e19d02aaee90d676acc1" target="_top" xlink:title=" ">
<polygon fill="white" stroke="#666666" points="863.5,-357 771.5,-357 771.5,-338 863.5,-338 863.5,-357"/>
<text text-anchor="middle" x="817.5" y="-345" font-family="Helvetica,sans-Serif" font-size="10.00">func_800C9060</text>
</a>
</g>
</g>
<!-- Node1&#45;&gt;Node14 -->
<g id="edge48_Node000001_Node000014" class="edge">
<title>Node1&#45;&gt;Node14</title>
<g id="a_edge48_Node000001_Node000014"><a xlink:title=" ">
<path fill="none" stroke="#63b8ff" d="M92.12,-333.49C146.97,-339.12 242.41,-347.5 324.5,-347.5 324.5,-347.5 324.5,-347.5 509,-347.5 597.19,-347.5 699.61,-347.5 761.17,-347.5"/>
<polygon fill="#63b8ff" stroke="#63b8ff" points="761.43,-351 771.43,-347.5 761.43,-344 761.43,-351"/>
</a>
</g>
</g>
<!-- Node43 -->
<g id="Node000043" class="node">
<title>Node43</title>
<g id="a_Node000043"><a xlink:href="effects_8c.html#a80884e9db018960df253546f0c9718e5" target="_top" xlink:title=" ">
<polygon fill="white" stroke="#666666" points="220.5,-239 129.5,-239 129.5,-220 220.5,-220 220.5,-239"/>
<text text-anchor="middle" x="175" y="-227" font-family="Helvetica,sans-Serif" font-size="10.00">func_80090868</text>
</a>
</g>
</g>
<!-- Node1&#45;&gt;Node43 -->
<g id="edge45_Node000001_Node000043" class="edge">
<title>Node1&#45;&gt;Node43</title>
<g id="a_edge45_Node000001_Node000043"><a xlink:title=" ">
<path fill="none" stroke="#63b8ff" d="M59.64,-318.65C81.63,-301.51 127.08,-266.08 153.58,-245.42"/>
<polygon fill="#63b8ff" stroke="#63b8ff" points="156.05,-247.93 161.78,-239.02 151.74,-242.41 156.05,-247.93"/>
</a>
</g>
</g>
<!-- Node45 -->
<g id="Node000045" class="node">
<title>Node45</title>
<g id="a_Node000045"><a xlink:href="collision_8c.html#abdb34eeeffe1948b6c568463a325a870" target="_top" xlink:title=" ">
<polygon fill="white" stroke="#666666" points="222,-148 128,-148 128,-129 222,-129 222,-148"/>
<text text-anchor="middle" x="175" y="-136" font-family="Helvetica,sans-Serif" font-size="10.00">func_802AAB4C</text>
</a>
</g>
</g>
<!-- Node1&#45;&gt;Node45 -->
<g id="edge49_Node000001_Node000045" class="edge">
<title>Node1&#45;&gt;Node45</title>
<g id="a_edge49_Node000001_Node000045"><a xlink:title=" ">
<path fill="none" stroke="#63b8ff" d="M53.47,-318.82C73.59,-288.71 135.29,-196.42 161.74,-156.84"/>
<polygon fill="#63b8ff" stroke="#63b8ff" points="164.74,-158.65 167.39,-148.39 158.92,-154.76 164.74,-158.65"/>
</a>
</g>
</g>
<!-- Node2&#45;&gt;Node3 -->
<g id="edge2_Node000002_Node000003" class="edge">
<title>Node2&#45;&gt;Node3</title>
<g id="a_edge2_Node000002_Node000003"><a xlink:title=" ">
<path fill="none" stroke="#63b8ff" d="M194.86,-596.05C211.26,-604.1 235.8,-615.54 258,-623.5 263.55,-625.49 269.44,-627.38 275.32,-629.14"/>
<polygon fill="#63b8ff" stroke="#63b8ff" points="274.57,-632.57 285.15,-631.96 276.5,-625.84 274.57,-632.57"/>
</a>
</g>
</g>
<!-- Node5 -->
<g id="Node000005" class="node">
<title>Node5</title>
<g id="a_Node000005"><a xlink:href="effects_8c.html#a6559cc02e5bb1a4e7fe6c97850cdd87e" target="_top" xlink:title=" ">
<polygon fill="white" stroke="#666666" points="363.5,-614 287.5,-614 287.5,-595 363.5,-595 363.5,-614"/>
<text text-anchor="middle" x="325.5" y="-602" font-family="Helvetica,sans-Serif" font-size="10.00">clean_effect</text>
</a>
</g>
</g>
<!-- Node4&#45;&gt;Node5 -->
<g id="edge4_Node000004_Node000005" class="edge">
<title>Node4&#45;&gt;Node5</title>
<g id="a_edge4_Node000004_Node000005"><a xlink:title=" ">
<path fill="none" stroke="#63b8ff" d="M180.94,-319.32C202.26,-361.67 286.58,-529.17 315.05,-585.73"/>
<polygon fill="#63b8ff" stroke="#63b8ff" points="312.07,-587.59 319.69,-594.95 318.32,-584.44 312.07,-587.59"/>
</a>
</g>
</g>
<!-- Node24 -->
<g id="Node000024" class="node">
<title>Node24</title>
<g id="a_Node000024"><a xlink:href="effects_8c.html#a3cf7b9adc690e4f6e8d23b97621e5eba" target="_top" xlink:title=" ">
<polygon fill="white" stroke="#666666" points="371.5,-282 279.5,-282 279.5,-263 371.5,-263 371.5,-282"/>
<text text-anchor="middle" x="325.5" y="-270" font-family="Helvetica,sans-Serif" font-size="10.00">func_8008F86C</text>
</a>
</g>
</g>
<!-- Node4&#45;&gt;Node24 -->
<g id="edge23_Node000004_Node000024" class="edge">
<title>Node4&#45;&gt;Node24</title>
<g id="a_edge23_Node000004_Node000024"><a xlink:title=" ">
<path fill="none" stroke="#63b8ff" d="M214.24,-299.97C233.14,-295.26 256.13,-289.53 276.23,-284.53"/>
<polygon fill="#63b8ff" stroke="#63b8ff" points="277.27,-287.87 286.13,-282.06 275.58,-281.08 277.27,-287.87"/>
</a>
</g>
</g>
<!-- Node40 -->
<g id="Node000040" class="node">
<title>Node40</title>
<g id="a_Node000040"><a xlink:href="player__controller_8c.html#aafeb0470c7da44e1440ffa4848f7d500" target="_top" xlink:title=" ">
<polygon fill="white" stroke="#666666" points="385,-244.5 266,-244.5 266,-214.5 385,-214.5 385,-244.5"/>
<text text-anchor="start" x="274" y="-232.5" font-family="Helvetica,sans-Serif" font-size="10.00">get_player_index_for</text>
<text text-anchor="middle" x="325.5" y="-221.5" font-family="Helvetica,sans-Serif" font-size="10.00">_player</text>
</a>
</g>
</g>
<!-- Node4&#45;&gt;Node40 -->
<g id="edge42_Node000004_Node000040" class="edge">
<title>Node4&#45;&gt;Node40</title>
<g id="a_edge42_Node000004_Node000040"><a xlink:title=" ">
<path fill="none" stroke="#63b8ff" d="M187.9,-299.94C203.33,-287.88 231.45,-267.08 258,-253.5 261.47,-251.73 265.09,-250.03 268.79,-248.4"/>
<polygon fill="#63b8ff" stroke="#63b8ff" points="270.18,-251.62 278.07,-244.54 267.49,-245.15 270.18,-251.62"/>
</a>
</g>
</g>
<!-- Node41 -->
<g id="Node000041" class="node">
<title>Node41</title>
<g id="a_Node000041"><a xlink:href="effects_8c.html#ab364883933845be8e31e414b3c4d69e8" target="_top" xlink:title=" ">
<polygon fill="white" stroke="#666666" points="393,-319 258,-319 258,-300 393,-300 393,-319"/>
<text text-anchor="middle" x="325.5" y="-307" font-family="Helvetica,sans-Serif" font-size="10.00">remove_lightning_effect</text>
</a>
</g>
</g>
<!-- Node4&#45;&gt;Node41 -->
<g id="edge43_Node000004_Node000041" class="edge">
<title>Node4&#45;&gt;Node41</title>
<g id="a_edge43_Node000004_Node000041"><a xlink:title=" ">
<path fill="none" stroke="#63b8ff" d="M220.55,-309.5C229.15,-309.5 238.38,-309.5 247.67,-309.5"/>
<polygon fill="#63b8ff" stroke="#63b8ff" points="247.73,-313 257.73,-309.5 247.73,-306 247.73,-313"/>
</a>
</g>
</g>
<!-- Node6 -->
<g id="Node000006" class="node">
<title>Node6</title>
<g id="a_Node000006"><a xlink:href="effects_8c.html#a7fef1af5ca366a9346478d94239c6142" target="_top" xlink:title=" ">
<polygon fill="white" stroke="#666666" points="554.5,-762 461.5,-762 461.5,-743 554.5,-743 554.5,-762"/>
<text text-anchor="middle" x="508" y="-750" font-family="Helvetica,sans-Serif" font-size="10.00">func_8008C6D0</text>
</a>
</g>
</g>
<!-- Node5&#45;&gt;Node6 -->
<g id="edge5_Node000005_Node000006" class="edge">
<title>Node5&#45;&gt;Node6</title>
<g id="a_edge5_Node000005_Node000006"><a xlink:title=" ">
<path fill="none" stroke="#63b8ff" d="M363.62,-608.46C374.23,-611.22 385.05,-615.83 393,-623.5 430.31,-659.52 390.77,-699.45 429,-734.5 435.33,-740.31 443.15,-744.36 451.38,-747.16"/>
<polygon fill="#63b8ff" stroke="#63b8ff" points="450.57,-750.57 461.15,-749.91 452.47,-743.83 450.57,-750.57"/>
</a>
</g>
</g>
<!-- Node7 -->
<g id="Node000007" class="node">
<title>Node7</title>
<g id="a_Node000007"><a xlink:href="effects_8c.html#a5f19eaaa048055d292d02c717e635786" target="_top" xlink:title=" ">
<polygon fill="white" stroke="#666666" points="554,-725 462,-725 462,-706 554,-706 554,-725"/>
<text text-anchor="middle" x="508" y="-713" font-family="Helvetica,sans-Serif" font-size="10.00">func_8008D760</text>
</a>
</g>
</g>
<!-- Node5&#45;&gt;Node7 -->
<g id="edge6_Node000005_Node000007" class="edge">
<title>Node5&#45;&gt;Node7</title>
<g id="a_edge6_Node000005_Node000007"><a xlink:title=" ">
<path fill="none" stroke="#63b8ff" d="M363.68,-609.34C374.05,-612.14 384.72,-616.55 393,-623.5 421.02,-647.01 400.39,-674.72 429,-697.5 435.72,-702.85 443.74,-706.67 452.05,-709.38"/>
<polygon fill="#63b8ff" stroke="#63b8ff" points="451.29,-712.8 461.86,-712.08 453.15,-706.05 451.29,-712.8"/>
</a>
</g>
</g>
<!-- Node8 -->
<g id="Node000008" class="node">
<title>Node8</title>
<g id="a_Node000008"><a xlink:href="effects_8c.html#a4ea2da0616ee3c475e4be217dc0bc71f" target="_top" xlink:title=" ">
<polygon fill="white" stroke="#666666" points="554.5,-688 461.5,-688 461.5,-669 554.5,-669 554.5,-688"/>
<text text-anchor="middle" x="508" y="-676" font-family="Helvetica,sans-Serif" font-size="10.00">func_8008D97C</text>
</a>
</g>
</g>
<!-- Node5&#45;&gt;Node8 -->
<g id="edge7_Node000005_Node000008" class="edge">
<title>Node5&#45;&gt;Node8</title>
<g id="a_edge7_Node000005_Node000008"><a xlink:title=" ">
<path fill="none" stroke="#63b8ff" d="M363.8,-611.5C373.72,-614.32 384.14,-618.2 393,-623.5 412.69,-635.27 409.01,-649.24 429,-660.5 435.9,-664.38 443.58,-667.43 451.37,-669.82"/>
<polygon fill="#63b8ff" stroke="#63b8ff" points="450.67,-673.26 461.24,-672.51 452.51,-666.5 450.67,-673.26"/>
</a>
</g>
</g>
<!-- Node9 -->
<g id="Node000009" class="node">
<title>Node9</title>
<g id="a_Node000009"><a xlink:href="effects_8c.html#a13005f7c39388deade6ba0491d7c5918" target="_top" xlink:title=" ">
<polygon fill="white" stroke="#666666" points="553.5,-651 462.5,-651 462.5,-632 553.5,-632 553.5,-651"/>
<text text-anchor="middle" x="508" y="-639" font-family="Helvetica,sans-Serif" font-size="10.00">func_8008E884</text>
</a>
</g>
</g>
<!-- Node5&#45;&gt;Node9 -->
<g id="edge8_Node000005_Node000009" class="edge">
<title>Node5&#45;&gt;Node9</title>
<g id="a_edge8_Node000005_Node000009"><a xlink:title=" ">
<path fill="none" stroke="#63b8ff" d="M363.9,-612.17C389.49,-617.41 423.82,-624.45 452.45,-630.32"/>
<polygon fill="#63b8ff" stroke="#63b8ff" points="451.81,-633.76 462.31,-632.34 453.22,-626.9 451.81,-633.76"/>
</a>
</g>
</g>
<!-- Node10 -->
<g id="Node000010" class="node">
<title>Node10</title>
<g id="a_Node000010"><a xlink:href="effects_8c.html#ae02351b6bbb678b552ec8864b47fc56c" target="_top" xlink:title=" ">
<polygon fill="white" stroke="#666666" points="553.5,-614 462.5,-614 462.5,-595 553.5,-595 553.5,-614"/>
<text text-anchor="middle" x="508" y="-602" font-family="Helvetica,sans-Serif" font-size="10.00">func_8008F3E0</text>
</a>
</g>
</g>
<!-- Node5&#45;&gt;Node10 -->
<g id="edge9_Node000005_Node000010" class="edge">
<title>Node5&#45;&gt;Node10</title>
<g id="a_edge9_Node000005_Node000010"><a xlink:title=" ">
<path fill="none" stroke="#63b8ff" d="M363.9,-604.5C389.37,-604.5 423.52,-604.5 452.07,-604.5"/>
<polygon fill="#63b8ff" stroke="#63b8ff" points="452.31,-608 462.31,-604.5 452.31,-601 452.31,-608"/>
</a>
</g>
</g>
<!-- Node11 -->
<g id="Node000011" class="node">
<title>Node11</title>
<g id="a_Node000011"><a xlink:href="effects_8c.html#ab5125d5944958f891647b27b440d3d62" target="_top" xlink:title=" ">
<polygon fill="white" stroke="#666666" points="554,-395 462,-395 462,-376 554,-376 554,-395"/>
<text text-anchor="middle" x="508" y="-383" font-family="Helvetica,sans-Serif" font-size="10.00">func_8008F5A4</text>
</a>
</g>
</g>
<!-- Node5&#45;&gt;Node11 -->
<g id="edge10_Node000005_Node000011" class="edge">
<title>Node5&#45;&gt;Node11</title>
<g id="a_edge10_Node000005_Node000011"><a xlink:title=" ">
<path fill="none" stroke="#63b8ff" d="M328.48,-594.75C335.61,-562.21 363.15,-456.46 429,-404.5 435.76,-399.16 443.81,-395.3 452.12,-392.5"/>
<polygon fill="#63b8ff" stroke="#63b8ff" points="453.29,-395.8 461.94,-389.68 451.36,-389.08 453.29,-395.8"/>
</a>
</g>
</g>
<!-- Node16 -->
<g id="Node000016" class="node">
<title>Node16</title>
<g id="a_Node000016"><a xlink:href="effects_8c.html#a2f183005a5e85816dd81508847c1904d" target="_top" xlink:title=" ">
<polygon fill="white" stroke="#666666" points="554.5,-577 461.5,-577 461.5,-558 554.5,-558 554.5,-577"/>
<text text-anchor="middle" x="508" y="-565" font-family="Helvetica,sans-Serif" font-size="10.00">func_8008FEDC</text>
</a>
</g>
</g>
<!-- Node5&#45;&gt;Node16 -->
<g id="edge15_Node000005_Node000016" class="edge">
<title>Node5&#45;&gt;Node16</title>
<g id="a_edge15_Node000005_Node000016"><a xlink:title=" ">
<path fill="none" stroke="#63b8ff" d="M363.9,-596.83C389.21,-591.65 423.08,-584.7 451.52,-578.87"/>
<polygon fill="#63b8ff" stroke="#63b8ff" points="452.23,-582.3 461.32,-576.86 450.83,-575.44 452.23,-582.3"/>
</a>
</g>
</g>
<!-- Node17 -->
<g id="Node000017" class="node">
<title>Node17</title>
<g id="a_Node000017"><a xlink:href="effects_8c.html#acbb1f27649a63227fcf0dd1f17dfa096" target="_top" xlink:title=" ">
<polygon fill="white" stroke="#666666" points="569,-539.5 447,-539.5 447,-509.5 569,-509.5 569,-539.5"/>
<text text-anchor="start" x="455" y="-527.5" font-family="Helvetica,sans-Serif" font-size="10.00">remove_banana_near</text>
<text text-anchor="middle" x="508" y="-516.5" font-family="Helvetica,sans-Serif" font-size="10.00">_spinout_effect</text>
</a>
</g>
</g>
<!-- Node5&#45;&gt;Node17 -->
<g id="edge16_Node000005_Node000017" class="edge">
<title>Node5&#45;&gt;Node17</title>
<g id="a_edge16_Node000005_Node000017"><a xlink:title=" ">
<path fill="none" stroke="#63b8ff" d="M342.38,-594.8C362.16,-583 397.21,-562.99 429,-549.5 434.37,-547.22 440.02,-545.03 445.72,-542.96"/>
<polygon fill="#63b8ff" stroke="#63b8ff" points="447.05,-546.21 455.33,-539.59 444.73,-539.6 447.05,-546.21"/>
</a>
</g>
</g>
<!-- Node18 -->
<g id="Node000018" class="node">
<title>Node18</title>
<g id="a_Node000018"><a xlink:href="effects_8c.html#a4768d56263e476d3bac47ee01bac3dc8" target="_top" xlink:title=" ">
<polygon fill="white" stroke="#666666" points="587,-491.5 429,-491.5 429,-461.5 587,-461.5 587,-491.5"/>
<text text-anchor="start" x="437" y="-479.5" font-family="Helvetica,sans-Serif" font-size="10.00">remove_boost_ramp_asphalt</text>
<text text-anchor="middle" x="508" y="-468.5" font-family="Helvetica,sans-Serif" font-size="10.00">_effect</text>
</a>
</g>
</g>
<!-- Node5&#45;&gt;Node18 -->
<g id="edge17_Node000005_Node000018" class="edge">
<title>Node5&#45;&gt;Node18</title>
<g id="a_edge17_Node000005_Node000018"><a xlink:title=" ">
<path fill="none" stroke="#63b8ff" d="M333.29,-594.91C348.24,-574.52 386.09,-526.55 429,-500.5 431.79,-498.81 434.7,-497.23 437.7,-495.75"/>
<polygon fill="#63b8ff" stroke="#63b8ff" points="439.2,-498.91 446.9,-491.63 436.34,-492.52 439.2,-498.91"/>
</a>
</g>
</g>
<!-- Node19 -->
<g id="Node000019" class="node">
<title>Node19</title>
<g id="a_Node000019"><a xlink:href="effects_8c.html#aafe14c45e9b91bb1d409ef2f2bfe5c53" target="_top" xlink:title=" ">
<polygon fill="white" stroke="#666666" points="582.5,-443.5 433.5,-443.5 433.5,-413.5 582.5,-413.5 582.5,-443.5"/>
<text text-anchor="start" x="441.5" y="-431.5" font-family="Helvetica,sans-Serif" font-size="10.00">remove_boost_ramp_wood</text>
<text text-anchor="middle" x="508" y="-420.5" font-family="Helvetica,sans-Serif" font-size="10.00">_effect</text>
</a>
</g>
</g>
<!-- Node5&#45;&gt;Node19 -->
<g id="edge18_Node000005_Node000019" class="edge">
<title>Node5&#45;&gt;Node19</title>
<g id="a_edge18_Node000005_Node000019"><a xlink:title=" ">
<path fill="none" stroke="#63b8ff" d="M330.35,-594.63C341.39,-567.63 375.82,-491.93 429,-452.5 431.04,-450.99 433.18,-449.57 435.39,-448.24"/>
<polygon fill="#63b8ff" stroke="#63b8ff" points="437.05,-451.32 444.24,-443.53 433.76,-445.14 437.05,-451.32"/>
</a>
</g>
</g>
<!-- Node20 -->
<g id="Node000020" class="node">
<title>Node20</title>
<g id="a_Node000020"><a xlink:href="effects_8c.html#a9ff5c732ea8ba59908ccf62ff441e7e4" target="_top" xlink:title=" ">
<polygon fill="white" stroke="#666666" points="568,-932.5 448,-932.5 448,-902.5 568,-902.5 568,-932.5"/>
<text text-anchor="start" x="456" y="-920.5" font-family="Helvetica,sans-Serif" font-size="10.00">remove_driving_near</text>
<text text-anchor="middle" x="508" y="-909.5" font-family="Helvetica,sans-Serif" font-size="10.00">_spinout_effect</text>
</a>
</g>
</g>
<!-- Node5&#45;&gt;Node20 -->
<g id="edge19_Node000005_Node000020" class="edge">
<title>Node5&#45;&gt;Node20</title>
<g id="a_edge19_Node000005_Node000020"><a xlink:title=" ">
<path fill="none" stroke="#63b8ff" d="M363.82,-607.44C374.7,-610.13 385.62,-614.96 393,-623.5 472.14,-715.11 350.79,-801.1 429,-893.5 431.96,-897 435.42,-900 439.21,-902.57"/>
<polygon fill="#63b8ff" stroke="#63b8ff" points="437.53,-905.64 447.95,-907.53 440.98,-899.55 437.53,-905.64"/>
</a>
</g>
</g>
<!-- Node21 -->
<g id="Node000021" class="node">
<title>Node21</title>
<g id="a_Node000021"><a xlink:href="effects_8c.html#a5f1aead641683fd07375d6737dfafac2" target="_top" xlink:title=" ">
<polygon fill="white" stroke="#666666" points="564.5,-884.5 451.5,-884.5 451.5,-854.5 564.5,-854.5 564.5,-884.5"/>
<text text-anchor="start" x="459.5" y="-872.5" font-family="Helvetica,sans-Serif" font-size="10.00">remove_hit_by_star</text>
<text text-anchor="middle" x="508" y="-861.5" font-family="Helvetica,sans-Serif" font-size="10.00">_effect</text>
</a>
</g>
</g>
<!-- Node5&#45;&gt;Node21 -->
<g id="edge20_Node000005_Node000021" class="edge">
<title>Node5&#45;&gt;Node21</title>
<g id="a_edge20_Node000005_Node000021"><a xlink:title=" ">
<path fill="none" stroke="#63b8ff" d="M363.68,-607.56C374.54,-610.26 385.5,-615.06 393,-623.5 459.41,-698.21 363.35,-770.12 429,-845.5 432.72,-849.77 437.19,-853.3 442.07,-856.2"/>
<polygon fill="#63b8ff" stroke="#63b8ff" points="440.73,-859.45 451.24,-860.79 443.86,-853.18 440.73,-859.45"/>
</a>
</g>
</g>
<!-- Node22 -->
<g id="Node000022" class="node">
<title>Node22</title>
<g id="a_Node000022"><a xlink:href="effects_8c.html#a9be2cc0ebbe72a9d5276a4fd2675eef3" target="_top" xlink:title=" ">
<polygon fill="white" stroke="#666666" points="580.5,-836 435.5,-836 435.5,-817 580.5,-817 580.5,-836"/>
<text text-anchor="middle" x="508" y="-824" font-family="Helvetica,sans-Serif" font-size="10.00">remove_mushroom_effect</text>
</a>
</g>
</g>
<!-- Node5&#45;&gt;Node22 -->
<g id="edge21_Node000005_Node000022" class="edge">
<title>Node5&#45;&gt;Node22</title>
<g id="a_edge21_Node000005_Node000022"><a xlink:title=" ">
<path fill="none" stroke="#63b8ff" d="M363.52,-607.7C374.38,-610.41 385.37,-615.18 393,-623.5 449.63,-685.22 370.8,-748.25 429,-808.5 429.8,-809.32 430.62,-810.11 431.48,-810.87"/>
<polygon fill="#63b8ff" stroke="#63b8ff" points="429.64,-813.86 439.81,-816.83 433.71,-808.17 429.64,-813.86"/>
</a>
</g>
</g>
<!-- Node23 -->
<g id="Node000023" class="node">
<title>Node23</title>
<g id="a_Node000023"><a xlink:href="effects_8c.html#a85a7ba2f2c97859b0090c54a68e8f003" target="_top" xlink:title=" ">
<polygon fill="white" stroke="#666666" points="575,-799 441,-799 441,-780 575,-780 575,-799"/>
<text text-anchor="middle" x="508" y="-787" font-family="Helvetica,sans-Serif" font-size="10.00">remove_spinout_effects</text>
</a>
</g>
</g>
<!-- Node5&#45;&gt;Node23 -->
<g id="edge22_Node000005_Node000023" class="edge">
<title>Node5&#45;&gt;Node23</title>
<g id="a_edge22_Node000005_Node000023"><a xlink:title=" ">
<path fill="none" stroke="#63b8ff" d="M363.64,-608.01C374.37,-610.74 385.26,-615.45 393,-623.5 439.91,-672.31 380.85,-723.92 429,-771.5 429.97,-772.46 430.99,-773.38 432.04,-774.25"/>
<polygon fill="#63b8ff" stroke="#63b8ff" points="430.46,-777.4 440.71,-780.06 434.35,-771.59 430.46,-777.4"/>
</a>
</g>
</g>
<!-- Node12 -->
<g id="Node000012" class="node">
<title>Node12</title>
<g id="a_Node000012"><a xlink:href="code__80057C60_8c.html#ae28b6eb556910087cea23f0cb7a322bd" target="_top" xlink:title=" ">
<polygon fill="white" stroke="#666666" points="735,-395 623,-395 623,-376 735,-376 735,-395"/>
<text text-anchor="middle" x="679" y="-383" font-family="Helvetica,sans-Serif" font-size="10.00">pop_player_balloon</text>
</a>
</g>
</g>
<!-- Node11&#45;&gt;Node12 -->
<g id="edge11_Node000011_Node000012" class="edge">
<title>Node11&#45;&gt;Node12</title>
<g id="a_edge11_Node000011_Node000012"><a xlink:title=" ">
<path fill="none" stroke="#63b8ff" d="M554.29,-385.5C572.27,-385.5 593.3,-385.5 612.87,-385.5"/>
<polygon fill="#63b8ff" stroke="#63b8ff" points="612.94,-389 622.94,-385.5 612.94,-382 612.94,-389"/>
</a>
</g>
</g>
<!-- Node13 -->
<g id="Node000013" class="node">
<title>Node13</title>
<g id="a_Node000013"><a xlink:href="effects_8c.html#a1c7552c4a370cc015c2726e40f1fdb06" target="_top" xlink:title=" ">
<polygon fill="white" stroke="#666666" points="864,-395 771,-395 771,-376 864,-376 864,-395"/>
<text text-anchor="middle" x="817.5" y="-383" font-family="Helvetica,sans-Serif" font-size="10.00">func_8008FD4C</text>
</a>
</g>
</g>
<!-- Node12&#45;&gt;Node13 -->
<g id="edge12_Node000012_Node000013" class="edge">
<title>Node12&#45;&gt;Node13</title>
<g id="a_edge12_Node000012_Node000013"><a xlink:title=" ">
<path fill="none" stroke="#63b8ff" d="M735.13,-385.5C743.54,-385.5 752.24,-385.5 760.67,-385.5"/>
<polygon fill="#63b8ff" stroke="#63b8ff" points="760.79,-389 770.79,-385.5 760.79,-382 760.79,-389"/>
</a>
</g>
</g>
<!-- Node12&#45;&gt;Node14 -->
<g id="edge13_Node000012_Node000014" class="edge">
<title>Node12&#45;&gt;Node14</title>
<g id="a_edge13_Node000012_Node000014"><a xlink:title=" ">
<path fill="none" stroke="#63b8ff" d="M714.44,-375.91C731.98,-371.03 753.51,-365.04 772.26,-359.82"/>
<polygon fill="#63b8ff" stroke="#63b8ff" points="773.37,-363.14 782.07,-357.09 771.49,-356.4 773.37,-363.14"/>
</a>
</g>
</g>
<!-- Node15 -->
<g id="Node000015" class="node">
<title>Node15</title>
<g id="a_Node000015"><a xlink:href="external_8c.html#a475cff796211891556f52877cd8e9b9e" target="_top" xlink:title=" ">
<polygon fill="white" stroke="#666666" points="1006,-225 934,-225 934,-206 1006,-206 1006,-225"/>
<text text-anchor="middle" x="970" y="-213" font-family="Helvetica,sans-Serif" font-size="10.00">play_sound</text>
</a>
</g>
</g>
<!-- Node14&#45;&gt;Node15 -->
<g id="edge14_Node000014_Node000015" class="edge">
<title>Node14&#45;&gt;Node15</title>
<g id="a_edge14_Node000014_Node000015"><a xlink:title=" ">
<path fill="none" stroke="#63b8ff" d="M829.81,-337.58C855.54,-315.01 918.66,-259.66 950.29,-231.91"/>
<polygon fill="#63b8ff" stroke="#63b8ff" points="952.76,-234.4 957.97,-225.18 948.14,-229.14 952.76,-234.4"/>
</a>
</g>
</g>
<!-- Node25 -->
<g id="Node000025" class="node">
<title>Node25</title>
<g id="a_Node000025"><a xlink:href="external_8c.html#adbb3c68f56a5870effc0f84c03a5347c" target="_top" xlink:title=" ">
<polygon fill="white" stroke="#666666" points="554,-225 462,-225 462,-206 554,-206 554,-225"/>
<text text-anchor="middle" x="508" y="-213" font-family="Helvetica,sans-Serif" font-size="10.00">func_800CA730</text>
</a>
</g>
</g>
<!-- Node24&#45;&gt;Node25 -->
<g id="edge24_Node000024_Node000025" class="edge">
<title>Node24&#45;&gt;Node25</title>
<g id="a_edge24_Node000024_Node000025"><a xlink:title=" ">
<path fill="none" stroke="#63b8ff" d="M361.1,-262.92C371.39,-259.99 382.68,-256.69 393,-253.5 418.75,-245.53 447.55,-235.93 469.76,-228.37"/>
<polygon fill="#63b8ff" stroke="#63b8ff" points="471.13,-231.6 479.47,-225.05 468.87,-224.97 471.13,-231.6"/>
</a>
</g>
</g>
<!-- Node38 -->
<g id="Node000038" class="node">
<title>Node38</title>
<g id="a_Node000038"><a xlink:href="external_8c.html#a3138069310bbed5109964d607d51811f" target="_top" xlink:title=" ">
<polygon fill="white" stroke="#666666" points="555.5,-56 460.5,-56 460.5,-37 555.5,-37 555.5,-56"/>
<text text-anchor="middle" x="508" y="-44" font-family="Helvetica,sans-Serif" font-size="10.00">func_800CAACC</text>
</a>
</g>
</g>
<!-- Node24&#45;&gt;Node38 -->
<g id="edge39_Node000024_Node000038" class="edge">
<title>Node24&#45;&gt;Node38</title>
<g id="a_edge39_Node000024_Node000038"><a xlink:title=" ">
<path fill="none" stroke="#63b8ff" d="M371.78,-264.8C379.38,-262.09 386.8,-258.44 393,-253.5 401.33,-246.86 471.18,-114.75 497.24,-65.12"/>
<polygon fill="#63b8ff" stroke="#63b8ff" points="500.43,-66.59 501.97,-56.11 494.23,-63.34 500.43,-66.59"/>
</a>
</g>
</g>
<!-- Node25&#45;&gt;Node15 -->
<g id="edge38_Node000025_Node000015" class="edge">
<title>Node25&#45;&gt;Node15</title>
<g id="a_edge38_Node000025_Node000015"><a xlink:title=" ">
<path fill="none" stroke="#63b8ff" d="M518.93,-205.96C537.53,-188.84 579.65,-153.48 623,-140.5 740.69,-105.26 885.52,-170.77 943.37,-201.18"/>
<polygon fill="#63b8ff" stroke="#63b8ff" points="941.73,-204.28 952.2,-205.91 945.04,-198.11 941.73,-204.28"/>
</a>
</g>
</g>
<!-- Node26 -->
<g id="Node000026" class="node">
<title>Node26</title>
<g id="a_Node000026"><a xlink:href="external_8c.html#ac48b7cbfcaa7737f892877ead85e4ba7" target="_top" xlink:title=" ">
<polygon fill="white" stroke="#666666" points="863.5,-225 771.5,-225 771.5,-206 863.5,-206 863.5,-225"/>
<text text-anchor="middle" x="817.5" y="-213" font-family="Helvetica,sans-Serif" font-size="10.00">func_800C3448</text>
</a>
</g>
</g>
<!-- Node25&#45;&gt;Node26 -->
<g id="edge25_Node000025_Node000026" class="edge">
<title>Node25&#45;&gt;Node26</title>
<g id="a_edge25_Node000025_Node000026"><a xlink:title=" ">
<path fill="none" stroke="#63b8ff" d="M554.04,-215.5C608.96,-215.5 701.78,-215.5 761.04,-215.5"/>
<polygon fill="#63b8ff" stroke="#63b8ff" points="761.34,-219 771.34,-215.5 761.34,-212 761.34,-219"/>
</a>
</g>
</g>
<!-- Node27 -->
<g id="Node000027" class="node">
<title>Node27</title>
<g id="a_Node000027"><a xlink:href="external_8c.html#ab2ecda68e1fb6f957aafd4c5742e2f63" target="_top" xlink:title=" ">
<polygon fill="white" stroke="#666666" points="725,-169 633,-169 633,-150 725,-150 725,-169"/>
<text text-anchor="middle" x="679" y="-157" font-family="Helvetica,sans-Serif" font-size="10.00">func_800C3508</text>
</a>
</g>
</g>
<!-- Node25&#45;&gt;Node27 -->
<g id="edge26_Node000025_Node000027" class="edge">
<title>Node25&#45;&gt;Node27</title>
<g id="a_edge26_Node000025_Node000027"><a xlink:title=" ">
<path fill="none" stroke="#63b8ff" d="M537.56,-205.93C560.61,-198.22 593.88,-187.12 623,-177.5 628.19,-175.79 633.65,-173.99 639.04,-172.22"/>
<polygon fill="#63b8ff" stroke="#63b8ff" points="640.18,-175.53 648.59,-169.09 638,-168.88 640.18,-175.53"/>
</a>
</g>
</g>
<!-- Node28 -->
<g id="Node000028" class="node">
<title>Node28</title>
<g id="a_Node000028"><a xlink:href="external_8c.html#a2aea7abf056e029f247b18edb62aa218" target="_top" xlink:title=" ">
<polygon fill="white" stroke="#666666" points="725,-319 633,-319 633,-300 725,-300 725,-319"/>
<text text-anchor="middle" x="679" y="-307" font-family="Helvetica,sans-Serif" font-size="10.00">func_800C357C</text>
</a>
</g>
</g>
<!-- Node25&#45;&gt;Node28 -->
<g id="edge27_Node000025_Node000028" class="edge">
<title>Node25&#45;&gt;Node28</title>
<g id="a_edge27_Node000025_Node000028"><a xlink:title=" ">
<path fill="none" stroke="#63b8ff" d="M520.98,-225.1C541.06,-240.81 583.2,-272.17 623,-291.5 626.61,-293.25 630.43,-294.9 634.31,-296.42"/>
<polygon fill="#63b8ff" stroke="#63b8ff" points="633.39,-299.81 643.98,-299.97 635.8,-293.24 633.39,-299.81"/>
</a>
</g>
</g>
<!-- Node29 -->
<g id="Node000029" class="node">
<title>Node29</title>
<g id="a_Node000029"><a xlink:href="external_8c.html#aea29af4ab009f59caa57f45987b0ea86" target="_top" xlink:title=" ">
<polygon fill="white" stroke="#666666" points="725,-282 633,-282 633,-263 725,-263 725,-282"/>
<text text-anchor="middle" x="679" y="-270" font-family="Helvetica,sans-Serif" font-size="10.00">func_800C3608</text>
</a>
</g>
</g>
<!-- Node25&#45;&gt;Node29 -->
<g id="edge28_Node000025_Node000029" class="edge">
<title>Node25&#45;&gt;Node29</title>
<g id="a_edge28_Node000025_Node000029"><a xlink:title=" ">
<path fill="none" stroke="#63b8ff" d="M537.29,-225.04C565.44,-234.53 608.82,-249.17 639.97,-259.67"/>
<polygon fill="#63b8ff" stroke="#63b8ff" points="639.03,-263.05 649.62,-262.93 641.26,-256.42 639.03,-263.05"/>
</a>
</g>
</g>
<!-- Node30 -->
<g id="Node000030" class="node">
<title>Node30</title>
<g id="a_Node000030"><a xlink:href="external_8c.html#a06bdcb8baeee497fe4ccb7083644593d" target="_top" xlink:title=" ">
<polygon fill="white" stroke="#666666" points="725,-93 633,-93 633,-74 725,-74 725,-93"/>
<text text-anchor="middle" x="679" y="-81" font-family="Helvetica,sans-Serif" font-size="10.00">func_800C9018</text>
</a>
</g>
</g>
<!-- Node25&#45;&gt;Node30 -->
<g id="edge29_Node000025_Node000030" class="edge">
<title>Node25&#45;&gt;Node30</title>
<g id="a_edge29_Node000025_Node000030"><a xlink:title=" ">
<path fill="none" stroke="#63b8ff" d="M516.97,-205.97C534.41,-185.61 577.99,-137.3 623,-107.5 628.78,-103.67 635.27,-100.22 641.71,-97.19"/>
<polygon fill="#63b8ff" stroke="#63b8ff" points="643.28,-100.32 651.02,-93.08 640.46,-93.92 643.28,-100.32"/>
</a>
</g>
</g>
<!-- Node37 -->
<g id="Node000037" class="node">
<title>Node37</title>
<g id="a_Node000037"><a xlink:href="external_8c.html#ad99507ba223474857829e7c56bd45fd1" target="_top" xlink:title=" ">
<polygon fill="white" stroke="#666666" points="723.5,-206 634.5,-206 634.5,-187 723.5,-187 723.5,-206"/>
<text text-anchor="middle" x="679" y="-194" font-family="Helvetica,sans-Serif" font-size="10.00">play_sequence</text>
</a>
</g>
</g>
<!-- Node25&#45;&gt;Node37 -->
<g id="edge36_Node000025_Node000037" class="edge">
<title>Node25&#45;&gt;Node37</title>
<g id="a_edge36_Node000025_Node000037"><a xlink:title=" ">
<path fill="none" stroke="#63b8ff" d="M554.29,-210.41C575.82,-207.99 601.73,-205.08 624.25,-202.54"/>
<polygon fill="#63b8ff" stroke="#63b8ff" points="624.79,-206 634.34,-201.41 624.01,-199.05 624.79,-206"/>
</a>
</g>
</g>
<!-- Node31 -->
<g id="Node000031" class="node">
<title>Node31</title>
<g id="a_Node000031"><a xlink:href="external_8c.html#a028d40421b90c38f68ebfd5acc626f2e" target="_top" xlink:title=" ">
<polygon fill="white" stroke="#666666" points="863.5,-56 771.5,-56 771.5,-37 863.5,-37 863.5,-56"/>
<text text-anchor="middle" x="817.5" y="-44" font-family="Helvetica,sans-Serif" font-size="10.00">func_800C5578</text>
</a>
</g>
</g>
<!-- Node30&#45;&gt;Node31 -->
<g id="edge30_Node000030_Node000031" class="edge">
<title>Node30&#45;&gt;Node31</title>
<g id="a_edge30_Node000030_Node000031"><a xlink:title=" ">
<path fill="none" stroke="#63b8ff" d="M715.15,-73.97C732.21,-69.35 752.92,-63.73 771.15,-58.79"/>
<polygon fill="#63b8ff" stroke="#63b8ff" points="772.26,-62.12 780.99,-56.12 770.43,-55.36 772.26,-62.12"/>
</a>
</g>
</g>
<!-- Node32 -->
<g id="Node000032" class="node">
<title>Node32</title>
<g id="a_Node000032"><a xlink:href="external_8c.html#ac0fb767de7e14a03f1bcfa53f0abd23b" target="_top" xlink:title=" ">
<polygon fill="white" stroke="#666666" points="1040,-56 900,-56 900,-37 1040,-37 1040,-56"/>
<text text-anchor="middle" x="970" y="-44" font-family="Helvetica,sans-Serif" font-size="10.00">delete_sound_from_bank</text>
</a>
</g>
</g>
<!-- Node31&#45;&gt;Node32 -->
<g id="edge31_Node000031_Node000032" class="edge">
<title>Node31&#45;&gt;Node32</title>
<g id="a_edge31_Node000031_Node000032"><a xlink:title=" ">
<path fill="none" stroke="#63b8ff" d="M863.65,-46.5C871.96,-46.5 880.85,-46.5 889.81,-46.5"/>
<polygon fill="#63b8ff" stroke="#63b8ff" points="889.94,-50 899.94,-46.5 889.94,-43 889.94,-50"/>
</a>
</g>
</g>
<!-- Node34 -->
<g id="Node000034" class="node">
<title>Node34</title>
<g id="a_Node000034"><a xlink:href="external_8c.html#ab83bd36e63f0f1baddcb2482b5ad31b0" target="_top" xlink:title=" ">
<polygon fill="white" stroke="#666666" points="1016.5,-19 923.5,-19 923.5,0 1016.5,0 1016.5,-19"/>
<text text-anchor="middle" x="970" y="-7" font-family="Helvetica,sans-Serif" font-size="10.00">func_800C41CC</text>
</a>
</g>
</g>
<!-- Node31&#45;&gt;Node34 -->
<g id="edge33_Node000031_Node000034" class="edge">
<title>Node31&#45;&gt;Node34</title>
<g id="a_edge33_Node000031_Node000034"><a xlink:title=" ">
<path fill="none" stroke="#63b8ff" d="M857.26,-36.97C876.49,-32.24 899.93,-26.48 920.36,-21.46"/>
<polygon fill="#63b8ff" stroke="#63b8ff" points="921.24,-24.85 930.11,-19.06 919.57,-18.05 921.24,-24.85"/>
</a>
</g>
</g>
<!-- Node35 -->
<g id="Node000035" class="node">
<title>Node35</title>
<g id="a_Node000035"><a xlink:href="port__eu_8c.html#aa89dfaecca46c6d071f08c1898d1f7c9" target="_top" xlink:title=" ">
<polygon fill="white" stroke="#666666" points="1016.5,-93 923.5,-93 923.5,-74 1016.5,-74 1016.5,-93"/>
<text text-anchor="middle" x="970" y="-81" font-family="Helvetica,sans-Serif" font-size="10.00">func_800CBBE8</text>
</a>
</g>
</g>
<!-- Node31&#45;&gt;Node35 -->
<g id="edge34_Node000031_Node000035" class="edge">
<title>Node31&#45;&gt;Node35</title>
<g id="a_edge34_Node000031_Node000035"><a xlink:title=" ">
<path fill="none" stroke="#63b8ff" d="M857.26,-56.03C876.49,-60.76 899.93,-66.52 920.36,-71.54"/>
<polygon fill="#63b8ff" stroke="#63b8ff" points="919.57,-74.95 930.11,-73.94 921.24,-68.15 919.57,-74.95"/>
</a>
</g>
</g>
<!-- Node33 -->
<g id="Node000033" class="node">
<title>Node33</title>
<g id="a_Node000033"><a xlink:href="external_8c.html#a358ac55e8ab5262dcae8037334be06d7" target="_top" xlink:title=" ">
<polygon fill="white" stroke="#666666" points="1168.5,-56 1076.5,-56 1076.5,-37 1168.5,-37 1168.5,-56"/>
<text text-anchor="middle" x="1122.5" y="-44" font-family="Helvetica,sans-Serif" font-size="10.00">func_800C40F0</text>
</a>
</g>
</g>
<!-- Node32&#45;&gt;Node33 -->
<g id="edge32_Node000032_Node000033" class="edge">
<title>Node32&#45;&gt;Node33</title>
<g id="a_edge32_Node000032_Node000033"><a xlink:title=" ">
<path fill="none" stroke="#63b8ff" d="M1040.08,-46.5C1048.87,-46.5 1057.78,-46.5 1066.31,-46.5"/>
<polygon fill="#63b8ff" stroke="#63b8ff" points="1066.5,-50 1076.5,-46.5 1066.5,-43 1066.5,-50"/>
</a>
</g>
</g>
<!-- Node36 -->
<g id="Node000036" class="node">
<title>Node36</title>
<g id="a_Node000036"><a xlink:href="port__eu_8c.html#af361a20d2e08f30c53a237ca481ff734" target="_top" xlink:title=" ">
<polygon fill="white" stroke="#666666" points="1169,-93 1076,-93 1076,-74 1169,-74 1169,-93"/>
<text text-anchor="middle" x="1122.5" y="-81" font-family="Helvetica,sans-Serif" font-size="10.00">func_800CBB48</text>
</a>
</g>
</g>
<!-- Node35&#45;&gt;Node36 -->
<g id="edge35_Node000035_Node000036" class="edge">
<title>Node35&#45;&gt;Node36</title>
<g id="a_edge35_Node000035_Node000036"><a xlink:title=" ">
<path fill="none" stroke="#63b8ff" d="M1016.56,-83.5C1031.96,-83.5 1049.34,-83.5 1065.46,-83.5"/>
<polygon fill="#63b8ff" stroke="#63b8ff" points="1065.83,-87 1075.83,-83.5 1065.83,-80 1065.83,-87"/>
</a>
</g>
</g>
<!-- Node37&#45;&gt;Node26 -->
<g id="edge37_Node000037_Node000026" class="edge">
<title>Node37&#45;&gt;Node26</title>
<g id="a_edge37_Node000037_Node000026"><a xlink:title=" ">
<path fill="none" stroke="#63b8ff" d="M723.56,-202.56C735.63,-204.24 748.89,-206.09 761.51,-207.85"/>
<polygon fill="#63b8ff" stroke="#63b8ff" points="761.08,-211.32 771.47,-209.23 762.05,-204.39 761.08,-211.32"/>
</a>
</g>
</g>
<!-- Node38&#45;&gt;Node31 -->
<g id="edge41_Node000038_Node000031" class="edge">
<title>Node38&#45;&gt;Node31</title>
<g id="a_edge41_Node000038_Node000031"><a xlink:title=" ">
<path fill="none" stroke="#63b8ff" d="M555.37,-36.99C575.98,-33.22 600.6,-29.35 623,-27.5 672.61,-23.39 685.55,-21.81 735,-27.5 747.63,-28.95 761.15,-31.63 773.47,-34.53"/>
<polygon fill="#63b8ff" stroke="#63b8ff" points="772.95,-38.01 783.49,-36.99 774.62,-31.21 772.95,-38.01"/>
</a>
</g>
</g>
<!-- Node39 -->
<g id="Node000039" class="node">
<title>Node39</title>
<g id="a_Node000039"><a xlink:href="external_8c.html#aeb87c527482a244173df36a1f3d4f446" target="_top" xlink:title=" ">
<polygon fill="white" stroke="#666666" points="725,-56 633,-56 633,-37 725,-37 725,-56"/>
<text text-anchor="middle" x="679" y="-44" font-family="Helvetica,sans-Serif" font-size="10.00">func_800C21E8</text>
</a>
</g>
</g>
<!-- Node38&#45;&gt;Node39 -->
<g id="edge40_Node000038_Node000039" class="edge">
<title>Node38&#45;&gt;Node39</title>
<g id="a_edge40_Node000038_Node000039"><a xlink:title=" ">
<path fill="none" stroke="#63b8ff" d="M555.63,-46.5C576.46,-46.5 601.17,-46.5 622.9,-46.5"/>
<polygon fill="#63b8ff" stroke="#63b8ff" points="622.98,-50 632.98,-46.5 622.98,-43 622.98,-50"/>
</a>
</g>
</g>
<!-- Node42 -->
<g id="Node000042" class="node">
<title>Node42</title>
<g id="a_Node000042"><a xlink:href="render__player_8c.html#a35eebbf671cc37666be29a2a9b6f3c8c" target="_top" xlink:title=" ">
<polygon fill="white" stroke="#666666" points="563,-319 453,-319 453,-300 563,-300 563,-319"/>
<text text-anchor="middle" x="508" y="-307" font-family="Helvetica,sans-Serif" font-size="10.00">move_f32_towards</text>
</a>
</g>
</g>
<!-- Node41&#45;&gt;Node42 -->
<g id="edge44_Node000041_Node000042" class="edge">
<title>Node41&#45;&gt;Node42</title>
<g id="a_edge44_Node000041_Node000042"><a xlink:title=" ">
<path fill="none" stroke="#63b8ff" d="M393.2,-309.5C409.35,-309.5 426.57,-309.5 442.61,-309.5"/>
<polygon fill="#63b8ff" stroke="#63b8ff" points="442.95,-313 452.95,-309.5 442.95,-306 442.95,-313"/>
</a>
</g>
</g>
<!-- Node43&#45;&gt;Node40 -->
<g id="edge47_Node000043_Node000040" class="edge">
<title>Node43&#45;&gt;Node40</title>
<g id="a_edge47_Node000043_Node000040"><a xlink:title=" ">
<path fill="none" stroke="#63b8ff" d="M220.55,-229.5C231.7,-229.5 243.92,-229.5 255.93,-229.5"/>
<polygon fill="#63b8ff" stroke="#63b8ff" points="255.95,-233 265.95,-229.5 255.95,-226 255.95,-233"/>
</a>
</g>
</g>
<!-- Node44 -->
<g id="Node000044" class="node">
<title>Node44</title>
<g id="a_Node000044"><a xlink:href="effects_8c.html#a83776fbfe94995f8a90e02fef6b5ec96" target="_top" xlink:title=" ">
<polygon fill="white" stroke="#666666" points="383,-196.5 268,-196.5 268,-166.5 383,-166.5 383,-196.5"/>
<text text-anchor="start" x="276" y="-184.5" font-family="Helvetica,sans-Serif" font-size="10.00">course_update_path</text>
<text text-anchor="middle" x="325.5" y="-173.5" font-family="Helvetica,sans-Serif" font-size="10.00">_point</text>
</a>
</g>
</g>
<!-- Node43&#45;&gt;Node44 -->
<g id="edge46_Node000043_Node000044" class="edge">
<title>Node43&#45;&gt;Node44</title>
<g id="a_edge46_Node000043_Node000044"><a xlink:title=" ">
<path fill="none" stroke="#63b8ff" d="M205.69,-219.9C223.6,-214.11 247,-206.55 268.29,-199.67"/>
<polygon fill="#63b8ff" stroke="#63b8ff" points="269.46,-202.97 277.9,-196.56 267.31,-196.31 269.46,-202.97"/>
</a>
</g>
</g>
<!-- Node46 -->
<g id="Node000046" class="node">
<title>Node46</title>
<g id="a_Node000046"><a xlink:href="collision_8c.html#a9395b9fc31397e9e9d754b4887a12544" target="_top" xlink:title=" ">
<polygon fill="white" stroke="#666666" points="376,-111 275,-111 275,-92 376,-92 376,-111"/>
<text text-anchor="middle" x="325.5" y="-99" font-family="Helvetica,sans-Serif" font-size="10.00">get_surface_type</text>
</a>
</g>
</g>
<!-- Node45&#45;&gt;Node46 -->
<g id="edge50_Node000045_Node000046" class="edge">
<title>Node45&#45;&gt;Node46</title>
<g id="a_edge50_Node000045_Node000046"><a xlink:title=" ">
<path fill="none" stroke="#63b8ff" d="M214.24,-128.97C233.14,-124.26 256.13,-118.53 276.23,-113.53"/>
<polygon fill="#63b8ff" stroke="#63b8ff" points="277.27,-116.87 286.13,-111.06 275.58,-110.08 277.27,-116.87"/>
</a>
</g>
</g>
<!-- Node47 -->
<g id="Node000047" class="node">
<title>Node47</title>
<g id="a_Node000047"><a xlink:href="collision_8c.html#a053809031f467d0a6747788211e0ec69" target="_top" xlink:title=" ">
<polygon fill="white" stroke="#666666" points="384,-148 267,-148 267,-129 384,-129 384,-148"/>
<text text-anchor="middle" x="325.5" y="-136" font-family="Helvetica,sans-Serif" font-size="10.00">get_track_section_id</text>
</a>
</g>
</g>
<!-- Node45&#45;&gt;Node47 -->
<g id="edge51_Node000045_Node000047" class="edge">
<title>Node45&#45;&gt;Node47</title>
<g id="a_edge51_Node000045_Node000047"><a xlink:title=" ">
<path fill="none" stroke="#63b8ff" d="M222.17,-138.5C233.1,-138.5 244.99,-138.5 256.66,-138.5"/>
<polygon fill="#63b8ff" stroke="#63b8ff" points="256.83,-142 266.83,-138.5 256.83,-135 256.83,-142"/>
</a>
</g>
</g>
</g>
</svg>

<g id="navigator" transform="translate(0 0)" fill="#404254">
  <rect fill="#f2f5e9" fill-opacity="0.5" stroke="#606060" stroke-width=".5" x="0" y="0" width="60" height="60"/>
  <use id="zoomplus" xlink:href="#zoomPlus" x="17" y="9" onmousedown="handleZoom(evt,'in')"/>
  <use id="zoomminus" xlink:href="#zoomMin" x="42" y="9" onmousedown="handleZoom(evt,'out')"/>
  <use id="reset" xlink:href="#resetDef" x="30" y="36" onmousedown="handleReset()"/>
   <use id="arrowup" xlink:href="#arrowUp" x="0" y="0" onmousedown="handlePan(0,-1)"/>
  <use id="arrowright" xlink:href="#arrowRight" x="0" y="0" onmousedown="handlePan(1,0)"/>
  <use id="arrowdown" xlink:href="#arrowDown" x="0" y="0" onmousedown="handlePan(0,1)"/>
  <use id="arrowleft" xlink:href="#arrowLeft" x="0" y="0" onmousedown="handlePan(-1,0)"/>
</g>
<svg viewBox="0 0 15 15" width="100%" height="30px" preserveAspectRatio="xMaxYMin meet">
 <g id="arrow_out" transform="scale(0.3 0.3)">
  <a xlink:href="player__controller_8c_aeaec45c9be1745c018f577cd2e554c3d_cgraph_org.svg" target="_base">
   <rect id="button" ry="5" rx="5" y="6" x="6" height="38" width="38"
        fill="#f2f5e9" fill-opacity="0.5" stroke="#606060" stroke-width="1.0"/>
   <path id="arrow"
     d="M 11.500037,31.436501 C 11.940474,20.09759 22.043105,11.32322 32.158766,21.979434 L 37.068811,17.246167 C 37.068811,17.246167 37.088388,32 37.088388,32 L 22.160133,31.978069 C 22.160133,31.978069 26.997745,27.140456 26.997745,27.140456 C 18.528582,18.264221 13.291696,25.230495 11.500037,31.436501 z"
     style="fill:#404040;"/>
  </a>
 </g>
</svg>

<style type='text/css'>
<![CDATA[
[data-mouse-over-selected='false'] { opacity: 0.7; }
[data-mouse-over-selected='true']  { opacity: 1.0; }
]]>
</style>
<script type="application/ecmascript"><![CDATA[
document.addEventListener('DOMContentLoaded', (event) => {
  highlightEdges();
  highlightAdjacentNodes();
});
]]></script>
</svg>
