<?xml version="1.0" encoding="UTF-8" standalone="no"?>
<!DOCTYPE svg PUBLIC "-//W3C//DTD SVG 1.1//EN"
 "http://www.w3.org/Graphics/SVG/1.1/DTD/svg11.dtd">
<!-- Generated by graphviz version 2.43.0 (0)
 -->
<!-- Title: handle_a_press_for_player_during_race Pages: 1 -->
<svg width="1536pt" height="827pt"
 viewBox="0.00 0.00 1536.00 827.24" xmlns="http://www.w3.org/2000/svg" xmlns:xlink="http://www.w3.org/1999/xlink">
<g id="graph0" class="graph" transform="scale(1 1) rotate(0) translate(4 823.24)">
<title>handle_a_press_for_player_during_race</title>
<!-- Node1 -->
<g id="Node000001" class="node">
<title>Node1</title>
<g id="a_Node000001"><a xlink:title=" ">
<polygon fill="#999999" stroke="#666666" points="115,-243.74 0,-243.74 0,-213.74 115,-213.74 115,-243.74"/>
<text text-anchor="start" x="8" y="-231.74" font-family="Helvetica,sans-Serif" font-size="10.00">handle_a_press_for</text>
<text text-anchor="middle" x="57.5" y="-220.74" font-family="Helvetica,sans-Serif" font-size="10.00">_player_during_race</text>
</a>
</g>
</g>
<!-- Node2 -->
<g id="Node000002" class="node">
<title>Node2</title>
<g id="a_Node000002"><a xlink:href="player__controller_8c.html#aab31a6f2a555017a67382dcc5bda7f63" target="_top" xlink:title=" ">
<polygon fill="white" stroke="#666666" points="267,-533.24 175,-533.24 175,-514.24 267,-514.24 267,-533.24"/>
<text text-anchor="middle" x="221" y="-521.24" font-family="Helvetica,sans-Serif" font-size="10.00">func_80037CFC</text>
</a>
</g>
</g>
<!-- Node1&#45;&gt;Node2 -->
<g id="edge1_Node000001_Node000002" class="edge">
<title>Node1&#45;&gt;Node2</title>
<g id="a_edge1_Node000001_Node000002"><a xlink:title=" ">
<path fill="none" stroke="#63b8ff" d="M66.73,-243.78C93.84,-293.3 180.29,-451.2 209.92,-505.33"/>
<polygon fill="#63b8ff" stroke="#63b8ff" points="206.89,-507.09 214.76,-514.18 213.03,-503.73 206.89,-507.09"/>
</a>
</g>
</g>
<!-- Node45 -->
<g id="Node000045" class="node">
<title>Node45</title>
<g id="a_Node000045"><a xlink:href="player__controller_8c.html#ab0dbd1e70372263a934b5ce4907aa491" target="_top" xlink:title=" ">
<polygon fill="white" stroke="#666666" points="273,-281.24 169,-281.24 169,-262.24 273,-262.24 273,-281.24"/>
<text text-anchor="middle" x="221" y="-269.24" font-family="Helvetica,sans-Serif" font-size="10.00">player_accelerate</text>
</a>
</g>
</g>
<!-- Node1&#45;&gt;Node45 -->
<g id="edge50_Node000001_Node000045" class="edge">
<title>Node1&#45;&gt;Node45</title>
<g id="a_edge50_Node000001_Node000045"><a xlink:title=" ">
<path fill="none" stroke="#63b8ff" d="M114.98,-243.78C134.33,-248.93 155.71,-254.63 174.11,-259.53"/>
<polygon fill="#63b8ff" stroke="#63b8ff" points="173.43,-262.97 183.99,-262.16 175.23,-256.2 173.43,-262.97"/>
</a>
</g>
</g>
<!-- Node46 -->
<g id="Node000046" class="node">
<title>Node46</title>
<g id="a_Node000046"><a xlink:href="player__controller_8c.html#a8cb399cc583c0c188929b0fdcab007a3" target="_top" xlink:title=" ">
<polygon fill="white" stroke="#666666" points="291,-243.74 151,-243.74 151,-213.74 291,-213.74 291,-243.74"/>
<text text-anchor="start" x="159" y="-231.74" font-family="Helvetica,sans-Serif" font-size="10.00">player_accelerate_during</text>
<text text-anchor="middle" x="221" y="-220.74" font-family="Helvetica,sans-Serif" font-size="10.00">_start_sequence</text>
</a>
</g>
</g>
<!-- Node1&#45;&gt;Node46 -->
<g id="edge52_Node000001_Node000046" class="edge">
<title>Node1&#45;&gt;Node46</title>
<g id="a_edge52_Node000001_Node000046"><a xlink:title=" ">
<path fill="none" stroke="#63b8ff" d="M115.44,-228.74C123.66,-228.74 132.25,-228.74 140.81,-228.74"/>
<polygon fill="#63b8ff" stroke="#63b8ff" points="140.83,-232.24 150.83,-228.74 140.83,-225.24 140.83,-232.24"/>
</a>
</g>
</g>
<!-- Node47 -->
<g id="Node000047" class="node">
<title>Node47</title>
<g id="a_Node000047"><a xlink:href="player__controller_8c.html#a5b91146f79f3e94ce4b406315e231684" target="_top" xlink:title=" ">
<polygon fill="white" stroke="#666666" points="273,-195.24 169,-195.24 169,-176.24 273,-176.24 273,-195.24"/>
<text text-anchor="middle" x="221" y="-183.24" font-family="Helvetica,sans-Serif" font-size="10.00">player_decelerate</text>
</a>
</g>
</g>
<!-- Node1&#45;&gt;Node47 -->
<g id="edge54_Node000001_Node000047" class="edge">
<title>Node1&#45;&gt;Node47</title>
<g id="a_edge54_Node000001_Node000047"><a xlink:title=" ">
<path fill="none" stroke="#63b8ff" d="M114.98,-213.7C134.33,-208.55 155.71,-202.86 174.11,-197.96"/>
<polygon fill="#63b8ff" stroke="#63b8ff" points="175.23,-201.28 183.99,-195.33 173.43,-194.52 175.23,-201.28"/>
</a>
</g>
</g>
<!-- Node48 -->
<g id="Node000048" class="node">
<title>Node48</title>
<g id="a_Node000048"><a xlink:href="player__controller_8c.html#aa52976f726086db8595c942ba7bae3ed" target="_top" xlink:title=" ">
<polygon fill="white" stroke="#666666" points="291,-157.74 151,-157.74 151,-127.74 291,-127.74 291,-157.74"/>
<text text-anchor="start" x="159" y="-145.74" font-family="Helvetica,sans-Serif" font-size="10.00">player_decelerate_during</text>
<text text-anchor="middle" x="221" y="-134.74" font-family="Helvetica,sans-Serif" font-size="10.00">_start_sequence</text>
</a>
</g>
</g>
<!-- Node1&#45;&gt;Node48 -->
<g id="edge55_Node000001_Node000048" class="edge">
<title>Node1&#45;&gt;Node48</title>
<g id="a_edge55_Node000001_Node000048"><a xlink:title=" ">
<path fill="none" stroke="#63b8ff" d="M77.81,-213.65C95.93,-200.02 124.18,-180.12 151,-166.74 154.54,-164.98 158.24,-163.29 162.01,-161.68"/>
<polygon fill="#63b8ff" stroke="#63b8ff" points="163.51,-164.85 171.47,-157.85 160.88,-158.36 163.51,-164.85"/>
</a>
</g>
</g>
<!-- Node3 -->
<g id="Node000003" class="node">
<title>Node3</title>
<g id="a_Node000003"><a xlink:href="player__controller_8c.html#af664eee1a948701ecb82a1ed9d3881c1" target="_top" xlink:title=" ">
<polygon fill="white" stroke="#666666" points="461,-744.74 333,-744.74 333,-714.74 461,-714.74 461,-744.74"/>
<text text-anchor="start" x="341" y="-732.74" font-family="Helvetica,sans-Serif" font-size="10.00">detect_triple_a_combo</text>
<text text-anchor="middle" x="397" y="-721.74" font-family="Helvetica,sans-Serif" font-size="10.00">_a_pressed</text>
</a>
</g>
</g>
<!-- Node2&#45;&gt;Node3 -->
<g id="edge2_Node000002_Node000003" class="edge">
<title>Node2&#45;&gt;Node3</title>
<g id="a_edge2_Node000002_Node000003"><a xlink:title=" ">
<path fill="none" stroke="#63b8ff" d="M224.96,-533.66C234.51,-563.98 267.41,-656.45 327,-705.74 328.54,-707.02 330.15,-708.22 331.82,-709.37"/>
<polygon fill="#63b8ff" stroke="#63b8ff" points="330.19,-712.47 340.57,-714.59 333.77,-706.46 330.19,-712.47"/>
</a>
</g>
</g>
<!-- Node4 -->
<g id="Node000004" class="node">
<title>Node4</title>
<g id="a_Node000004"><a xlink:href="player__controller_8c.html#a87754d3029a46143393b05d7b80c5095" target="_top" xlink:title=" ">
<polygon fill="white" stroke="#666666" points="461,-696.74 333,-696.74 333,-666.74 461,-666.74 461,-696.74"/>
<text text-anchor="start" x="341" y="-684.74" font-family="Helvetica,sans-Serif" font-size="10.00">detect_triple_a_combo</text>
<text text-anchor="middle" x="397" y="-673.74" font-family="Helvetica,sans-Serif" font-size="10.00">_a_released</text>
</a>
</g>
</g>
<!-- Node2&#45;&gt;Node4 -->
<g id="edge3_Node000002_Node000004" class="edge">
<title>Node2&#45;&gt;Node4</title>
<g id="a_edge3_Node000002_Node000004"><a xlink:title=" ">
<path fill="none" stroke="#63b8ff" d="M226.97,-533.38C240.03,-557.78 277.7,-622.52 327,-657.74 329.08,-659.23 331.25,-660.63 333.5,-661.94"/>
<polygon fill="#63b8ff" stroke="#63b8ff" points="331.98,-665.1 342.47,-666.64 335.23,-658.9 331.98,-665.1"/>
</a>
</g>
</g>
<!-- Node5 -->
<g id="Node000005" class="node">
<title>Node5</title>
<g id="a_Node000005"><a xlink:href="player__controller_8c.html#a38d09485c11cb0e6262e4cd7becde84c" target="_top" xlink:title=" ">
<polygon fill="white" stroke="#666666" points="461,-648.74 333,-648.74 333,-618.74 461,-618.74 461,-648.74"/>
<text text-anchor="start" x="341" y="-636.74" font-family="Helvetica,sans-Serif" font-size="10.00">detect_triple_b_combo</text>
<text text-anchor="middle" x="397" y="-625.74" font-family="Helvetica,sans-Serif" font-size="10.00">_b_pressed</text>
</a>
</g>
</g>
<!-- Node2&#45;&gt;Node5 -->
<g id="edge4_Node000002_Node000005" class="edge">
<title>Node2&#45;&gt;Node5</title>
<g id="a_edge4_Node000002_Node000005"><a xlink:title=" ">
<path fill="none" stroke="#63b8ff" d="M231.28,-533.31C248.61,-550.7 287.73,-587.75 327,-609.74 330.02,-611.44 333.19,-613.04 336.43,-614.56"/>
<polygon fill="#63b8ff" stroke="#63b8ff" points="335.15,-617.82 345.71,-618.6 337.94,-611.4 335.15,-617.82"/>
</a>
</g>
</g>
<!-- Node6 -->
<g id="Node000006" class="node">
<title>Node6</title>
<g id="a_Node000006"><a xlink:href="player__controller_8c.html#a3236e6369c678a81362382d7101b14a2" target="_top" xlink:title=" ">
<polygon fill="white" stroke="#666666" points="461,-600.74 333,-600.74 333,-570.74 461,-570.74 461,-600.74"/>
<text text-anchor="start" x="341" y="-588.74" font-family="Helvetica,sans-Serif" font-size="10.00">detect_triple_b_combo</text>
<text text-anchor="middle" x="397" y="-577.74" font-family="Helvetica,sans-Serif" font-size="10.00">_b_released</text>
</a>
</g>
</g>
<!-- Node2&#45;&gt;Node6 -->
<g id="edge5_Node000002_Node000006" class="edge">
<title>Node2&#45;&gt;Node6</title>
<g id="a_edge5_Node000002_Node000006"><a xlink:title=" ">
<path fill="none" stroke="#63b8ff" d="M248.81,-533.29C274.12,-542.31 312.77,-556.09 344.11,-567.25"/>
<polygon fill="#63b8ff" stroke="#63b8ff" points="342.98,-570.57 353.58,-570.63 345.33,-563.97 342.98,-570.57"/>
</a>
</g>
</g>
<!-- Node7 -->
<g id="Node000007" class="node">
<title>Node7</title>
<g id="a_Node000007"><a xlink:href="player__controller_8c.html#af15169209879a48ae06ba698b386faa6" target="_top" xlink:title=" ">
<polygon fill="white" stroke="#666666" points="442.5,-438.24 351.5,-438.24 351.5,-419.24 442.5,-419.24 442.5,-438.24"/>
<text text-anchor="middle" x="397" y="-426.24" font-family="Helvetica,sans-Serif" font-size="10.00">func_800323E4</text>
</a>
</g>
</g>
<!-- Node2&#45;&gt;Node7 -->
<g id="edge6_Node000002_Node000007" class="edge">
<title>Node2&#45;&gt;Node7</title>
<g id="a_edge6_Node000002_Node000007"><a xlink:title=" ">
<path fill="none" stroke="#63b8ff" d="M233.96,-514.12C252.81,-499.32 291,-470.79 327,-452.74 335.33,-448.57 344.55,-444.82 353.48,-441.58"/>
<polygon fill="#63b8ff" stroke="#63b8ff" points="354.69,-444.87 362.99,-438.29 352.4,-438.25 354.69,-444.87"/>
</a>
</g>
</g>
<!-- Node8 -->
<g id="Node000008" class="node">
<title>Node8</title>
<g id="a_Node000008"><a xlink:href="player__controller_8c.html#a837984168448122c63bd34b924c4276f" target="_top" xlink:title=" ">
<polygon fill="white" stroke="#666666" points="666,-351.24 503,-351.24 503,-332.24 666,-332.24 666,-351.24"/>
<text text-anchor="middle" x="584.5" y="-339.24" font-family="Helvetica,sans-Serif" font-size="10.00">player_decelerate_alternative</text>
</a>
</g>
</g>
<!-- Node2&#45;&gt;Node8 -->
<g id="edge48_Node000002_Node000008" class="edge">
<title>Node2&#45;&gt;Node8</title>
<g id="a_edge48_Node000002_Node000008"><a xlink:title=" ">
<path fill="none" stroke="#63b8ff" d="M224.96,-513.84C234.3,-484.51 266.23,-397.91 327,-361.74 383.34,-328.22 459.41,-326.56 514.05,-331.25"/>
<polygon fill="#63b8ff" stroke="#63b8ff" points="514.05,-334.77 524.34,-332.23 514.71,-327.8 514.05,-334.77"/>
</a>
</g>
</g>
<!-- Node19 -->
<g id="Node000019" class="node">
<title>Node19</title>
<g id="a_Node000019"><a xlink:href="external_8c.html#a2be9efc97a92e19d02aaee90d676acc1" target="_top" xlink:title=" ">
<polygon fill="white" stroke="#666666" points="1419.5,-536.24 1327.5,-536.24 1327.5,-517.24 1419.5,-517.24 1419.5,-536.24"/>
<text text-anchor="middle" x="1373.5" y="-524.24" font-family="Helvetica,sans-Serif" font-size="10.00">func_800C9060</text>
</a>
</g>
</g>
<!-- Node2&#45;&gt;Node19 -->
<g id="edge40_Node000002_Node000019" class="edge">
<title>Node2&#45;&gt;Node19</title>
<g id="a_edge40_Node000002_Node000019"><a xlink:title=" ">
<path fill="none" stroke="#63b8ff" d="M267.07,-526.09C328.73,-530.08 435.35,-539.96 467,-561.74 493.57,-580.03 475.99,-607.12 503,-624.74 599.38,-687.62 645.43,-651.74 760.5,-651.74 760.5,-651.74 760.5,-651.74 1065,-651.74 1180.04,-651.74 1302.66,-575.73 1351.07,-542.25"/>
<polygon fill="#63b8ff" stroke="#63b8ff" points="1353.32,-544.96 1359.49,-536.34 1349.29,-539.23 1353.32,-544.96"/>
</a>
</g>
</g>
<!-- Node31 -->
<g id="Node000031" class="node">
<title>Node31</title>
<g id="a_Node000031"><a xlink:href="player__controller_8c.html#ac7facd4c09724bfff6c77a8d8b94f0b1" target="_top" xlink:title=" ">
<polygon fill="white" stroke="#666666" points="443,-514.24 351,-514.24 351,-495.24 443,-495.24 443,-514.24"/>
<text text-anchor="middle" x="397" y="-502.24" font-family="Helvetica,sans-Serif" font-size="10.00">func_80033AE0</text>
</a>
</g>
</g>
<!-- Node2&#45;&gt;Node31 -->
<g id="edge31_Node000002_Node000031" class="edge">
<title>Node2&#45;&gt;Node31</title>
<g id="a_edge31_Node000002_Node000031"><a xlink:title=" ">
<path fill="none" stroke="#63b8ff" d="M267.26,-518.8C289.72,-516.35 317.03,-513.37 340.72,-510.78"/>
<polygon fill="#63b8ff" stroke="#63b8ff" points="341.4,-514.23 350.96,-509.66 340.64,-507.27 341.4,-514.23"/>
</a>
</g>
</g>
<!-- Node39 -->
<g id="Node000039" class="node">
<title>Node39</title>
<g id="a_Node000039"><a xlink:href="player__controller_8c.html#a6a67f93f3c986133e336437f84ec4bce" target="_top" xlink:title=" ">
<polygon fill="white" stroke="#666666" points="454,-400.74 340,-400.74 340,-370.74 454,-370.74 454,-400.74"/>
<text text-anchor="start" x="348" y="-388.74" font-family="Helvetica,sans-Serif" font-size="10.00">get_clamped_stickY</text>
<text text-anchor="middle" x="397" y="-377.74" font-family="Helvetica,sans-Serif" font-size="10.00">_with_deadzone</text>
</a>
</g>
</g>
<!-- Node2&#45;&gt;Node39 -->
<g id="edge41_Node000002_Node000039" class="edge">
<title>Node2&#45;&gt;Node39</title>
<g id="a_edge41_Node000002_Node000039"><a xlink:title=" ">
<path fill="none" stroke="#63b8ff" d="M228.46,-514.13C243.38,-492.65 282.34,-440.31 327,-410.74 329.96,-408.78 333.09,-406.96 336.32,-405.25"/>
<polygon fill="#63b8ff" stroke="#63b8ff" points="338.13,-408.27 345.63,-400.78 335.1,-401.96 338.13,-408.27"/>
</a>
</g>
</g>
<!-- Node40 -->
<g id="Node000040" class="node">
<title>Node40</title>
<g id="a_Node000040"><a xlink:href="player__controller_8c.html#a18310e219722897138fbd737acb37331" target="_top" xlink:title=" ">
<polygon fill="white" stroke="#666666" points="426.5,-314.24 367.5,-314.24 367.5,-295.24 426.5,-295.24 426.5,-314.24"/>
<text text-anchor="middle" x="397" y="-302.24" font-family="Helvetica,sans-Serif" font-size="10.00">kart_hop</text>
</a>
</g>
</g>
<!-- Node2&#45;&gt;Node40 -->
<g id="edge42_Node000002_Node000040" class="edge">
<title>Node2&#45;&gt;Node40</title>
<g id="a_edge42_Node000002_Node000040"><a xlink:title=" ">
<path fill="none" stroke="#63b8ff" d="M224.49,-514.03C233.08,-482.52 264.37,-382.12 327,-328.74 335.72,-321.31 346.88,-316.14 357.67,-312.55"/>
<polygon fill="#63b8ff" stroke="#63b8ff" points="358.79,-315.87 367.4,-309.68 356.81,-309.15 358.79,-315.87"/>
</a>
</g>
</g>
<!-- Node42 -->
<g id="Node000042" class="node">
<title>Node42</title>
<g id="a_Node000042"><a xlink:href="player__controller_8c.html#a304f6cb24bff484f0338dd56d4b83987" target="_top" xlink:title=" ">
<polygon fill="white" stroke="#666666" points="665.5,-388.24 503.5,-388.24 503.5,-369.24 665.5,-369.24 665.5,-388.24"/>
<text text-anchor="middle" x="584.5" y="-376.24" font-family="Helvetica,sans-Serif" font-size="10.00">player_accelerate_alternative</text>
</a>
</g>
</g>
<!-- Node2&#45;&gt;Node42 -->
<g id="edge44_Node000002_Node000042" class="edge">
<title>Node2&#45;&gt;Node42</title>
<g id="a_edge44_Node000002_Node000042"><a xlink:title=" ">
<path fill="none" stroke="#63b8ff" d="M247.73,-514.13C268.89,-506.36 299.72,-495.34 327,-486.74 388.61,-467.33 414.03,-484.7 467,-447.74 489.46,-432.07 480.24,-412.96 503,-397.74 506.11,-395.67 509.42,-393.81 512.85,-392.16"/>
<polygon fill="#63b8ff" stroke="#63b8ff" points="514.32,-395.34 522.19,-388.25 511.62,-388.89 514.32,-395.34"/>
</a>
</g>
</g>
<!-- Node43 -->
<g id="Node000043" class="node">
<title>Node43</title>
<g id="a_Node000043"><a xlink:href="player__controller_8c.html#a6b1e8ffb2bbabc2a10c924e272d82330" target="_top" xlink:title=" ">
<polygon fill="white" stroke="#666666" points="466.5,-819.24 327.5,-819.24 327.5,-800.24 466.5,-800.24 466.5,-819.24"/>
<text text-anchor="middle" x="397" y="-807.24" font-family="Helvetica,sans-Serif" font-size="10.00">player_accelerate_global</text>
</a>
</g>
</g>
<!-- Node2&#45;&gt;Node43 -->
<g id="edge47_Node000002_Node000043" class="edge">
<title>Node2&#45;&gt;Node43</title>
<g id="a_edge47_Node000002_Node000043"><a xlink:title=" ">
<path fill="none" stroke="#63b8ff" d="M222.72,-533.29C226.17,-571.96 244.43,-718.4 327,-791.74 328.3,-792.9 329.67,-793.99 331.1,-795"/>
<polygon fill="#63b8ff" stroke="#63b8ff" points="329.38,-798.05 339.77,-800.11 332.93,-792.02 329.38,-798.05"/>
</a>
</g>
</g>
<!-- Node44 -->
<g id="Node000044" class="node">
<title>Node44</title>
<g id="a_Node000044"><a xlink:href="player__controller_8c.html#a3824d2f4f3d74c54bfbc56438b1485fe" target="_top" xlink:title=" ">
<polygon fill="white" stroke="#666666" points="467,-782.24 327,-782.24 327,-763.24 467,-763.24 467,-782.24"/>
<text text-anchor="middle" x="397" y="-770.24" font-family="Helvetica,sans-Serif" font-size="10.00">player_decelerate_global</text>
</a>
</g>
</g>
<!-- Node2&#45;&gt;Node44 -->
<g id="edge49_Node000002_Node000044" class="edge">
<title>Node2&#45;&gt;Node44</title>
<g id="a_edge49_Node000002_Node000044"><a xlink:title=" ">
<path fill="none" stroke="#63b8ff" d="M223.44,-533.34C229.23,-568.53 254.16,-691.69 327,-753.74 328.99,-755.44 331.11,-756.98 333.34,-758.38"/>
<polygon fill="#63b8ff" stroke="#63b8ff" points="331.88,-761.57 342.36,-763.16 335.16,-755.39 331.88,-761.57"/>
</a>
</g>
</g>
<!-- Node7&#45;&gt;Node8 -->
<g id="edge7_Node000007_Node000008" class="edge">
<title>Node7&#45;&gt;Node8</title>
<g id="a_edge7_Node000007_Node000008"><a xlink:title=" ">
<path fill="none" stroke="#63b8ff" d="M442.64,-421.15C451.19,-418.43 459.73,-414.75 467,-409.74 489.26,-394.42 480.46,-375.65 503,-360.74 506.12,-358.68 509.43,-356.84 512.87,-355.2"/>
<polygon fill="#63b8ff" stroke="#63b8ff" points="514.34,-358.38 522.23,-351.31 511.65,-351.92 514.34,-358.38"/>
</a>
</g>
</g>
<!-- Node9 -->
<g id="Node000009" class="node">
<title>Node9</title>
<g id="a_Node000009"><a xlink:href="effects_8c.html#a772ef3ecce48b6fada93334a880392b1" target="_top" xlink:title=" ">
<polygon fill="white" stroke="#666666" points="807,-351.24 716,-351.24 716,-332.24 807,-332.24 807,-351.24"/>
<text text-anchor="middle" x="761.5" y="-339.24" font-family="Helvetica,sans-Serif" font-size="10.00">func_8008F104</text>
</a>
</g>
</g>
<!-- Node8&#45;&gt;Node9 -->
<g id="edge8_Node000008_Node000009" class="edge">
<title>Node8&#45;&gt;Node9</title>
<g id="a_edge8_Node000008_Node000009"><a xlink:title=" ">
<path fill="none" stroke="#63b8ff" d="M666.09,-341.74C679.4,-341.74 692.93,-341.74 705.43,-341.74"/>
<polygon fill="#63b8ff" stroke="#63b8ff" points="705.66,-345.24 715.66,-341.74 705.66,-338.24 705.66,-345.24"/>
</a>
</g>
</g>
<!-- Node30 -->
<g id="Node000030" class="node">
<title>Node30</title>
<g id="a_Node000030"><a xlink:href="player__controller_8c.html#aafeb0470c7da44e1440ffa4848f7d500" target="_top" xlink:title=" ">
<polygon fill="white" stroke="#666666" points="821,-297.74 702,-297.74 702,-267.74 821,-267.74 821,-297.74"/>
<text text-anchor="start" x="710" y="-285.74" font-family="Helvetica,sans-Serif" font-size="10.00">get_player_index_for</text>
<text text-anchor="middle" x="761.5" y="-274.74" font-family="Helvetica,sans-Serif" font-size="10.00">_player</text>
</a>
</g>
</g>
<!-- Node8&#45;&gt;Node30 -->
<g id="edge30_Node000008_Node000030" class="edge">
<title>Node8&#45;&gt;Node30</title>
<g id="a_edge30_Node000008_Node000030"><a xlink:title=" ">
<path fill="none" stroke="#63b8ff" d="M631.85,-332.21C643.13,-329.51 655.08,-326.31 666,-322.74 683.83,-316.91 702.99,-309.11 719.36,-301.94"/>
<polygon fill="#63b8ff" stroke="#63b8ff" points="720.93,-305.07 728.65,-297.81 718.09,-298.68 720.93,-305.07"/>
</a>
</g>
</g>
<!-- Node10 -->
<g id="Node000010" class="node">
<title>Node10</title>
<g id="a_Node000010"><a xlink:href="effects_8c.html#a6559cc02e5bb1a4e7fe6c97850cdd87e" target="_top" xlink:title=" ">
<polygon fill="white" stroke="#666666" points="941,-351.24 865,-351.24 865,-332.24 941,-332.24 941,-351.24"/>
<text text-anchor="middle" x="903" y="-339.24" font-family="Helvetica,sans-Serif" font-size="10.00">clean_effect</text>
</a>
</g>
</g>
<!-- Node9&#45;&gt;Node10 -->
<g id="edge9_Node000009_Node000010" class="edge">
<title>Node9&#45;&gt;Node10</title>
<g id="a_edge9_Node000009_Node000010"><a xlink:title=" ">
<path fill="none" stroke="#63b8ff" d="M807.02,-341.74C822.18,-341.74 839.18,-341.74 854.56,-341.74"/>
<polygon fill="#63b8ff" stroke="#63b8ff" points="854.91,-345.24 864.91,-341.74 854.91,-338.24 854.91,-345.24"/>
</a>
</g>
</g>
<!-- Node29 -->
<g id="Node000029" class="node">
<title>Node29</title>
<g id="a_Node000029"><a xlink:href="external_8c.html#a337fc3ab94ebb3293a85908229303ac8" target="_top" xlink:title=" ">
<polygon fill="white" stroke="#666666" points="949,-162.24 857,-162.24 857,-143.24 949,-143.24 949,-162.24"/>
<text text-anchor="middle" x="903" y="-150.24" font-family="Helvetica,sans-Serif" font-size="10.00">func_800C90F4</text>
</a>
</g>
</g>
<!-- Node9&#45;&gt;Node29 -->
<g id="edge28_Node000009_Node000029" class="edge">
<title>Node9&#45;&gt;Node29</title>
<g id="a_edge28_Node000009_Node000029"><a xlink:title=" ">
<path fill="none" stroke="#63b8ff" d="M784.51,-332.21C796.42,-326.22 810.75,-317.57 821,-306.74 859.45,-266.12 884.66,-203.69 895.66,-172.26"/>
<polygon fill="#63b8ff" stroke="#63b8ff" points="899.07,-173.11 898.96,-162.52 892.44,-170.87 899.07,-173.11"/>
</a>
</g>
</g>
<!-- Node11 -->
<g id="Node000011" class="node">
<title>Node11</title>
<g id="a_Node000011"><a xlink:href="effects_8c.html#a7fef1af5ca366a9346478d94239c6142" target="_top" xlink:title=" ">
<polygon fill="white" stroke="#666666" points="1110.5,-548.24 1017.5,-548.24 1017.5,-529.24 1110.5,-529.24 1110.5,-548.24"/>
<text text-anchor="middle" x="1064" y="-536.24" font-family="Helvetica,sans-Serif" font-size="10.00">func_8008C6D0</text>
</a>
</g>
</g>
<!-- Node10&#45;&gt;Node11 -->
<g id="edge10_Node000010_Node000011" class="edge">
<title>Node10&#45;&gt;Node11</title>
<g id="a_edge10_Node000010_Node000011"><a xlink:title=" ">
<path fill="none" stroke="#63b8ff" d="M905.33,-351.3C910.04,-381.36 928.8,-474.7 985,-520.74 991.57,-526.12 999.44,-529.96 1007.63,-532.69"/>
<polygon fill="#63b8ff" stroke="#63b8ff" points="1006.75,-536.07 1017.32,-535.4 1008.63,-529.33 1006.75,-536.07"/>
</a>
</g>
</g>
<!-- Node12 -->
<g id="Node000012" class="node">
<title>Node12</title>
<g id="a_Node000012"><a xlink:href="effects_8c.html#a5f19eaaa048055d292d02c717e635786" target="_top" xlink:title=" ">
<polygon fill="white" stroke="#666666" points="1110,-511.24 1018,-511.24 1018,-492.24 1110,-492.24 1110,-511.24"/>
<text text-anchor="middle" x="1064" y="-499.24" font-family="Helvetica,sans-Serif" font-size="10.00">func_8008D760</text>
</a>
</g>
</g>
<!-- Node10&#45;&gt;Node12 -->
<g id="edge11_Node000010_Node000012" class="edge">
<title>Node10&#45;&gt;Node12</title>
<g id="a_edge11_Node000010_Node000012"><a xlink:title=" ">
<path fill="none" stroke="#63b8ff" d="M906.59,-351.5C914,-377.48 937.86,-448.68 985,-483.74 991.81,-488.81 999.82,-492.49 1008.05,-495.14"/>
<polygon fill="#63b8ff" stroke="#63b8ff" points="1007.2,-498.54 1017.77,-497.82 1009.06,-491.79 1007.2,-498.54"/>
</a>
</g>
</g>
<!-- Node13 -->
<g id="Node000013" class="node">
<title>Node13</title>
<g id="a_Node000013"><a xlink:href="effects_8c.html#a4ea2da0616ee3c475e4be217dc0bc71f" target="_top" xlink:title=" ">
<polygon fill="white" stroke="#666666" points="1110.5,-474.24 1017.5,-474.24 1017.5,-455.24 1110.5,-455.24 1110.5,-474.24"/>
<text text-anchor="middle" x="1064" y="-462.24" font-family="Helvetica,sans-Serif" font-size="10.00">func_8008D97C</text>
</a>
</g>
</g>
<!-- Node10&#45;&gt;Node13 -->
<g id="edge12_Node000010_Node000013" class="edge">
<title>Node10&#45;&gt;Node13</title>
<g id="a_edge12_Node000010_Node000013"><a xlink:title=" ">
<path fill="none" stroke="#63b8ff" d="M908.52,-351.36C918.88,-372.28 946.43,-422.01 985,-446.74 991.82,-451.12 999.58,-454.43 1007.49,-456.94"/>
<polygon fill="#63b8ff" stroke="#63b8ff" points="1006.6,-460.33 1017.18,-459.63 1008.47,-453.58 1006.6,-460.33"/>
</a>
</g>
</g>
<!-- Node14 -->
<g id="Node000014" class="node">
<title>Node14</title>
<g id="a_Node000014"><a xlink:href="effects_8c.html#a13005f7c39388deade6ba0491d7c5918" target="_top" xlink:title=" ">
<polygon fill="white" stroke="#666666" points="1109.5,-437.24 1018.5,-437.24 1018.5,-418.24 1109.5,-418.24 1109.5,-437.24"/>
<text text-anchor="middle" x="1064" y="-425.24" font-family="Helvetica,sans-Serif" font-size="10.00">func_8008E884</text>
</a>
</g>
</g>
<!-- Node10&#45;&gt;Node14 -->
<g id="edge13_Node000010_Node000014" class="edge">
<title>Node10&#45;&gt;Node14</title>
<g id="a_edge13_Node000010_Node000014"><a xlink:title=" ">
<path fill="none" stroke="#63b8ff" d="M912.44,-351.28C926.15,-366.13 954.77,-394.67 985,-409.74 992.34,-413.4 1000.44,-416.33 1008.56,-418.67"/>
<polygon fill="#63b8ff" stroke="#63b8ff" points="1007.86,-422.11 1018.42,-421.25 1009.63,-415.33 1007.86,-422.11"/>
</a>
</g>
</g>
<!-- Node15 -->
<g id="Node000015" class="node">
<title>Node15</title>
<g id="a_Node000015"><a xlink:href="effects_8c.html#ae02351b6bbb678b552ec8864b47fc56c" target="_top" xlink:title=" ">
<polygon fill="white" stroke="#666666" points="1109.5,-400.24 1018.5,-400.24 1018.5,-381.24 1109.5,-381.24 1109.5,-400.24"/>
<text text-anchor="middle" x="1064" y="-388.24" font-family="Helvetica,sans-Serif" font-size="10.00">func_8008F3E0</text>
</a>
</g>
</g>
<!-- Node10&#45;&gt;Node15 -->
<g id="edge14_Node000010_Node000015" class="edge">
<title>Node10&#45;&gt;Node15</title>
<g id="a_edge14_Node000010_Node000015"><a xlink:title=" ">
<path fill="none" stroke="#63b8ff" d="M926.4,-351.28C942.5,-357.9 964.84,-366.59 985,-372.74 992.48,-375.02 1000.43,-377.17 1008.3,-379.14"/>
<polygon fill="#63b8ff" stroke="#63b8ff" points="1007.63,-382.57 1018.17,-381.52 1009.27,-375.77 1007.63,-382.57"/>
</a>
</g>
</g>
<!-- Node16 -->
<g id="Node000016" class="node">
<title>Node16</title>
<g id="a_Node000016"><a xlink:href="effects_8c.html#ab5125d5944958f891647b27b440d3d62" target="_top" xlink:title=" ">
<polygon fill="white" stroke="#666666" points="1110,-363.24 1018,-363.24 1018,-344.24 1110,-344.24 1110,-363.24"/>
<text text-anchor="middle" x="1064" y="-351.24" font-family="Helvetica,sans-Serif" font-size="10.00">func_8008F5A4</text>
</a>
</g>
</g>
<!-- Node10&#45;&gt;Node16 -->
<g id="edge15_Node000010_Node000016" class="edge">
<title>Node10&#45;&gt;Node16</title>
<g id="a_edge15_Node000010_Node000016"><a xlink:title=" ">
<path fill="none" stroke="#63b8ff" d="M941.28,-344.56C961.01,-346.05 985.63,-347.9 1007.55,-349.56"/>
<polygon fill="#63b8ff" stroke="#63b8ff" points="1007.5,-353.06 1017.74,-350.33 1008.03,-346.08 1007.5,-353.06"/>
</a>
</g>
</g>
<!-- Node21 -->
<g id="Node000021" class="node">
<title>Node21</title>
<g id="a_Node000021"><a xlink:href="effects_8c.html#a2f183005a5e85816dd81508847c1904d" target="_top" xlink:title=" ">
<polygon fill="white" stroke="#666666" points="1110.5,-326.24 1017.5,-326.24 1017.5,-307.24 1110.5,-307.24 1110.5,-326.24"/>
<text text-anchor="middle" x="1064" y="-314.24" font-family="Helvetica,sans-Serif" font-size="10.00">func_8008FEDC</text>
</a>
</g>
</g>
<!-- Node10&#45;&gt;Node21 -->
<g id="edge20_Node000010_Node000021" class="edge">
<title>Node10&#45;&gt;Node21</title>
<g id="a_edge20_Node000010_Node000021"><a xlink:title=" ">
<path fill="none" stroke="#63b8ff" d="M941.28,-335.88C960.93,-332.79 985.43,-328.94 1007.29,-325.5"/>
<polygon fill="#63b8ff" stroke="#63b8ff" points="1008.11,-328.92 1017.44,-323.91 1007.02,-322 1008.11,-328.92"/>
</a>
</g>
</g>
<!-- Node22 -->
<g id="Node000022" class="node">
<title>Node22</title>
<g id="a_Node000022"><a xlink:href="effects_8c.html#acbb1f27649a63227fcf0dd1f17dfa096" target="_top" xlink:title=" ">
<polygon fill="white" stroke="#666666" points="1125,-288.74 1003,-288.74 1003,-258.74 1125,-258.74 1125,-288.74"/>
<text text-anchor="start" x="1011" y="-276.74" font-family="Helvetica,sans-Serif" font-size="10.00">remove_banana_near</text>
<text text-anchor="middle" x="1064" y="-265.74" font-family="Helvetica,sans-Serif" font-size="10.00">_spinout_effect</text>
</a>
</g>
</g>
<!-- Node10&#45;&gt;Node22 -->
<g id="edge21_Node000010_Node000022" class="edge">
<title>Node10&#45;&gt;Node22</title>
<g id="a_edge21_Node000010_Node000022"><a xlink:title=" ">
<path fill="none" stroke="#63b8ff" d="M919.37,-332.19C935.33,-322.56 961.25,-307.73 985,-297.74 989.7,-295.77 994.61,-293.88 999.59,-292.08"/>
<polygon fill="#63b8ff" stroke="#63b8ff" points="1000.9,-295.33 1009.21,-288.75 998.61,-288.71 1000.9,-295.33"/>
</a>
</g>
</g>
<!-- Node23 -->
<g id="Node000023" class="node">
<title>Node23</title>
<g id="a_Node000023"><a xlink:href="effects_8c.html#a4768d56263e476d3bac47ee01bac3dc8" target="_top" xlink:title=" ">
<polygon fill="white" stroke="#666666" points="1143,-240.74 985,-240.74 985,-210.74 1143,-210.74 1143,-240.74"/>
<text text-anchor="start" x="993" y="-228.74" font-family="Helvetica,sans-Serif" font-size="10.00">remove_boost_ramp_asphalt</text>
<text text-anchor="middle" x="1064" y="-217.74" font-family="Helvetica,sans-Serif" font-size="10.00">_effect</text>
</a>
</g>
</g>
<!-- Node10&#45;&gt;Node23 -->
<g id="edge22_Node000010_Node000023" class="edge">
<title>Node10&#45;&gt;Node23</title>
<g id="a_edge22_Node000010_Node000023"><a xlink:title=" ">
<path fill="none" stroke="#63b8ff" d="M909.85,-332.11C921.69,-313.43 950.33,-272.15 985,-249.74 987.45,-248.16 990.02,-246.67 992.66,-245.28"/>
<polygon fill="#63b8ff" stroke="#63b8ff" points="994.36,-248.35 1001.89,-240.9 991.36,-242.02 994.36,-248.35"/>
</a>
</g>
</g>
<!-- Node24 -->
<g id="Node000024" class="node">
<title>Node24</title>
<g id="a_Node000024"><a xlink:href="effects_8c.html#aafe14c45e9b91bb1d409ef2f2bfe5c53" target="_top" xlink:title=" ">
<polygon fill="white" stroke="#666666" points="1138.5,-192.74 989.5,-192.74 989.5,-162.74 1138.5,-162.74 1138.5,-192.74"/>
<text text-anchor="start" x="997.5" y="-180.74" font-family="Helvetica,sans-Serif" font-size="10.00">remove_boost_ramp_wood</text>
<text text-anchor="middle" x="1064" y="-169.74" font-family="Helvetica,sans-Serif" font-size="10.00">_effect</text>
</a>
</g>
</g>
<!-- Node10&#45;&gt;Node24 -->
<g id="edge23_Node000010_Node000024" class="edge">
<title>Node10&#45;&gt;Node24</title>
<g id="a_edge23_Node000010_Node000024"><a xlink:title=" ">
<path fill="none" stroke="#63b8ff" d="M906.88,-331.93C914.87,-306.47 939.75,-237.77 985,-201.74 986.76,-200.34 988.59,-199.03 990.5,-197.79"/>
<polygon fill="#63b8ff" stroke="#63b8ff" points="992.25,-200.82 999.2,-192.82 988.78,-194.74 992.25,-200.82"/>
</a>
</g>
</g>
<!-- Node25 -->
<g id="Node000025" class="node">
<title>Node25</title>
<g id="a_Node000025"><a xlink:href="effects_8c.html#a9ff5c732ea8ba59908ccf62ff441e7e4" target="_top" xlink:title=" ">
<polygon fill="white" stroke="#666666" points="1124,-144.74 1004,-144.74 1004,-114.74 1124,-114.74 1124,-144.74"/>
<text text-anchor="start" x="1012" y="-132.74" font-family="Helvetica,sans-Serif" font-size="10.00">remove_driving_near</text>
<text text-anchor="middle" x="1064" y="-121.74" font-family="Helvetica,sans-Serif" font-size="10.00">_spinout_effect</text>
</a>
</g>
</g>
<!-- Node10&#45;&gt;Node25 -->
<g id="edge24_Node000010_Node000025" class="edge">
<title>Node10&#45;&gt;Node25</title>
<g id="a_edge24_Node000010_Node000025"><a xlink:title=" ">
<path fill="none" stroke="#63b8ff" d="M905.32,-331.89C910,-300.87 928.65,-204.29 985,-153.74 988,-151.05 991.29,-148.66 994.78,-146.54"/>
<polygon fill="#63b8ff" stroke="#63b8ff" points="996.57,-149.56 1003.79,-141.8 993.31,-143.36 996.57,-149.56"/>
</a>
</g>
</g>
<!-- Node26 -->
<g id="Node000026" class="node">
<title>Node26</title>
<g id="a_Node000026"><a xlink:href="effects_8c.html#a5f1aead641683fd07375d6737dfafac2" target="_top" xlink:title=" ">
<polygon fill="white" stroke="#666666" points="1120.5,-96.74 1007.5,-96.74 1007.5,-66.74 1120.5,-66.74 1120.5,-96.74"/>
<text text-anchor="start" x="1015.5" y="-84.74" font-family="Helvetica,sans-Serif" font-size="10.00">remove_hit_by_star</text>
<text text-anchor="middle" x="1064" y="-73.74" font-family="Helvetica,sans-Serif" font-size="10.00">_effect</text>
</a>
</g>
</g>
<!-- Node10&#45;&gt;Node26 -->
<g id="edge25_Node000010_Node000026" class="edge">
<title>Node10&#45;&gt;Node26</title>
<g id="a_edge25_Node000010_Node000026"><a xlink:title=" ">
<path fill="none" stroke="#63b8ff" d="M906.08,-332.13C914.91,-292.1 950.46,-139.19 985,-105.74 988.94,-101.92 993.48,-98.71 998.34,-96.01"/>
<polygon fill="#63b8ff" stroke="#63b8ff" points="999.88,-99.15 1007.38,-91.67 996.85,-92.84 999.88,-99.15"/>
</a>
</g>
</g>
<!-- Node27 -->
<g id="Node000027" class="node">
<title>Node27</title>
<g id="a_Node000027"><a xlink:href="effects_8c.html#a9be2cc0ebbe72a9d5276a4fd2675eef3" target="_top" xlink:title=" ">
<polygon fill="white" stroke="#666666" points="1136.5,-48.24 991.5,-48.24 991.5,-29.24 1136.5,-29.24 1136.5,-48.24"/>
<text text-anchor="middle" x="1064" y="-36.24" font-family="Helvetica,sans-Serif" font-size="10.00">remove_mushroom_effect</text>
</a>
</g>
</g>
<!-- Node10&#45;&gt;Node27 -->
<g id="edge26_Node000010_Node000027" class="edge">
<title>Node10&#45;&gt;Node27</title>
<g id="a_edge26_Node000010_Node000027"><a xlink:title=" ">
<path fill="none" stroke="#63b8ff" d="M906.48,-332.02C918.94,-283.33 974.51,-67.83 985,-57.74 986.47,-56.33 988.02,-55.02 989.65,-53.8"/>
<polygon fill="#63b8ff" stroke="#63b8ff" points="991.66,-56.67 998.32,-48.43 987.98,-50.72 991.66,-56.67"/>
</a>
</g>
</g>
<!-- Node28 -->
<g id="Node000028" class="node">
<title>Node28</title>
<g id="a_Node000028"><a xlink:href="effects_8c.html#a85a7ba2f2c97859b0090c54a68e8f003" target="_top" xlink:title=" ">
<polygon fill="white" stroke="#666666" points="1131,-585.24 997,-585.24 997,-566.24 1131,-566.24 1131,-585.24"/>
<text text-anchor="middle" x="1064" y="-573.24" font-family="Helvetica,sans-Serif" font-size="10.00">remove_spinout_effects</text>
</a>
</g>
</g>
<!-- Node10&#45;&gt;Node28 -->
<g id="edge27_Node000010_Node000028" class="edge">
<title>Node10&#45;&gt;Node28</title>
<g id="a_edge27_Node000010_Node000028"><a xlink:title=" ">
<path fill="none" stroke="#63b8ff" d="M904.52,-351.27C906.88,-385.09 919.63,-500.48 985,-557.74 986.33,-558.91 987.72,-560 989.16,-561.03"/>
<polygon fill="#63b8ff" stroke="#63b8ff" points="987.52,-564.12 997.91,-566.2 991.08,-558.1 987.52,-564.12"/>
</a>
</g>
</g>
<!-- Node17 -->
<g id="Node000017" class="node">
<title>Node17</title>
<g id="a_Node000017"><a xlink:href="code__80057C60_8c.html#ae28b6eb556910087cea23f0cb7a322bd" target="_top" xlink:title=" ">
<polygon fill="white" stroke="#666666" points="1291,-390.24 1179,-390.24 1179,-371.24 1291,-371.24 1291,-390.24"/>
<text text-anchor="middle" x="1235" y="-378.24" font-family="Helvetica,sans-Serif" font-size="10.00">pop_player_balloon</text>
</a>
</g>
</g>
<!-- Node16&#45;&gt;Node17 -->
<g id="edge16_Node000016_Node000017" class="edge">
<title>Node16&#45;&gt;Node17</title>
<g id="a_edge16_Node000016_Node000017"><a xlink:title=" ">
<path fill="none" stroke="#63b8ff" d="M1110.29,-360.98C1128.27,-363.85 1149.3,-367.21 1168.87,-370.34"/>
<polygon fill="#63b8ff" stroke="#63b8ff" points="1168.51,-373.83 1178.94,-371.95 1169.62,-366.91 1168.51,-373.83"/>
</a>
</g>
</g>
<!-- Node18 -->
<g id="Node000018" class="node">
<title>Node18</title>
<g id="a_Node000018"><a xlink:href="effects_8c.html#a1c7552c4a370cc015c2726e40f1fdb06" target="_top" xlink:title=" ">
<polygon fill="white" stroke="#666666" points="1420,-390.24 1327,-390.24 1327,-371.24 1420,-371.24 1420,-390.24"/>
<text text-anchor="middle" x="1373.5" y="-378.24" font-family="Helvetica,sans-Serif" font-size="10.00">func_8008FD4C</text>
</a>
</g>
</g>
<!-- Node17&#45;&gt;Node18 -->
<g id="edge17_Node000017_Node000018" class="edge">
<title>Node17&#45;&gt;Node18</title>
<g id="a_edge17_Node000017_Node000018"><a xlink:title=" ">
<path fill="none" stroke="#63b8ff" d="M1291.13,-380.74C1299.54,-380.74 1308.24,-380.74 1316.67,-380.74"/>
<polygon fill="#63b8ff" stroke="#63b8ff" points="1316.79,-384.24 1326.79,-380.74 1316.79,-377.24 1316.79,-384.24"/>
</a>
</g>
</g>
<!-- Node17&#45;&gt;Node19 -->
<g id="edge18_Node000017_Node000019" class="edge">
<title>Node17&#45;&gt;Node19</title>
<g id="a_edge18_Node000017_Node000019"><a xlink:title=" ">
<path fill="none" stroke="#63b8ff" d="M1244.96,-390.32C1267.61,-414.55 1327.42,-478.53 1356.36,-509.48"/>
<polygon fill="#63b8ff" stroke="#63b8ff" points="1353.95,-512.02 1363.33,-516.94 1359.06,-507.24 1353.95,-512.02"/>
</a>
</g>
</g>
<!-- Node20 -->
<g id="Node000020" class="node">
<title>Node20</title>
<g id="a_Node000020"><a xlink:href="external_8c.html#a475cff796211891556f52877cd8e9b9e" target="_top" xlink:title=" ">
<polygon fill="white" stroke="#666666" points="1528,-205.24 1456,-205.24 1456,-186.24 1528,-186.24 1528,-205.24"/>
<text text-anchor="middle" x="1492" y="-193.24" font-family="Helvetica,sans-Serif" font-size="10.00">play_sound</text>
</a>
</g>
</g>
<!-- Node19&#45;&gt;Node20 -->
<g id="edge19_Node000019_Node000020" class="edge">
<title>Node19&#45;&gt;Node20</title>
<g id="a_edge19_Node000019_Node000020"><a xlink:title=" ">
<path fill="none" stroke="#63b8ff" d="M1377.95,-517.19C1385.59,-496.06 1404.48,-443.69 1420,-399.74 1443.88,-332.13 1471.7,-251.7 1484.25,-215.33"/>
<polygon fill="#63b8ff" stroke="#63b8ff" points="1487.68,-216.12 1487.63,-205.52 1481.06,-213.83 1487.68,-216.12"/>
</a>
</g>
</g>
<!-- Node29&#45;&gt;Node20 -->
<g id="edge29_Node000029_Node000020" class="edge">
<title>Node29&#45;&gt;Node20</title>
<g id="a_edge29_Node000029_Node000020"><a xlink:title=" ">
<path fill="none" stroke="#63b8ff" d="M906.4,-143C913.36,-117.2 936.21,-47.16 985,-19.74 1046.22,14.65 1074.69,-3.45 1143,-19.74 1276.54,-51.59 1416.86,-143.4 1469.44,-180.21"/>
<polygon fill="#63b8ff" stroke="#63b8ff" points="1467.48,-183.11 1477.67,-186.02 1471.52,-177.39 1467.48,-183.11"/>
</a>
</g>
</g>
<!-- Node32 -->
<g id="Node000032" class="node">
<title>Node32</title>
<g id="a_Node000032"><a xlink:href="player__controller_8c.html#afc74a4642723d81347b3ddb7aed70c0f" target="_top" xlink:title=" ">
<polygon fill="white" stroke="#666666" points="637.5,-585.24 531.5,-585.24 531.5,-566.24 637.5,-566.24 637.5,-585.24"/>
<text text-anchor="middle" x="584.5" y="-573.24" font-family="Helvetica,sans-Serif" font-size="10.00">cancel_drift_effect</text>
</a>
</g>
</g>
<!-- Node31&#45;&gt;Node32 -->
<g id="edge32_Node000031_Node000032" class="edge">
<title>Node31&#45;&gt;Node32</title>
<g id="a_edge32_Node000031_Node000032"><a xlink:title=" ">
<path fill="none" stroke="#63b8ff" d="M433.04,-514.35C444.24,-518.09 456.46,-522.9 467,-528.74 484.97,-538.71 484.49,-548.82 503,-557.74 508.76,-560.52 514.95,-562.87 521.26,-564.87"/>
<polygon fill="#63b8ff" stroke="#63b8ff" points="520.64,-568.33 531.22,-567.72 522.57,-561.6 520.64,-568.33"/>
</a>
</g>
</g>
<!-- Node33 -->
<g id="Node000033" class="node">
<title>Node33</title>
<g id="a_Node000033"><a xlink:href="player__controller_8c.html#a2cb737102daaec9628aa4e567e01d7b0" target="_top" xlink:title=" ">
<polygon fill="white" stroke="#666666" points="631,-548.24 538,-548.24 538,-529.24 631,-529.24 631,-548.24"/>
<text text-anchor="middle" x="584.5" y="-536.24" font-family="Helvetica,sans-Serif" font-size="10.00">func_8002BD58</text>
</a>
</g>
</g>
<!-- Node31&#45;&gt;Node33 -->
<g id="edge33_Node000031_Node000033" class="edge">
<title>Node31&#45;&gt;Node33</title>
<g id="a_edge33_Node000031_Node000033"><a xlink:title=" ">
<path fill="none" stroke="#63b8ff" d="M443.38,-513.06C468.87,-517.73 500.88,-523.6 527.87,-528.55"/>
<polygon fill="#63b8ff" stroke="#63b8ff" points="527.48,-532.03 537.95,-530.39 528.74,-525.15 527.48,-532.03"/>
</a>
</g>
</g>
<!-- Node34 -->
<g id="Node000034" class="node">
<title>Node34</title>
<g id="a_Node000034"><a xlink:href="player__controller_8c.html#ada494586b678fcc1eba3ea17ef52a200" target="_top" xlink:title=" ">
<polygon fill="white" stroke="#666666" points="642,-510.74 527,-510.74 527,-480.74 642,-480.74 642,-510.74"/>
<text text-anchor="start" x="535" y="-498.74" font-family="Helvetica,sans-Serif" font-size="10.00">get_clamped_stickX</text>
<text text-anchor="middle" x="584.5" y="-487.74" font-family="Helvetica,sans-Serif" font-size="10.00">_with_deadzone</text>
</a>
</g>
</g>
<!-- Node31&#45;&gt;Node34 -->
<g id="edge34_Node000031_Node000034" class="edge">
<title>Node31&#45;&gt;Node34</title>
<g id="a_edge34_Node000031_Node000034"><a xlink:title=" ">
<path fill="none" stroke="#63b8ff" d="M443.38,-502.54C465.43,-501.47 492.37,-500.16 516.72,-498.98"/>
<polygon fill="#63b8ff" stroke="#63b8ff" points="517.15,-502.47 526.97,-498.49 516.81,-495.47 517.15,-502.47"/>
</a>
</g>
</g>
<!-- Node35 -->
<g id="Node000035" class="node">
<title>Node35</title>
<g id="a_Node000035"><a xlink:href="player__controller_8c.html#a6023c6acab0a10f56b74f639e86eeed8" target="_top" xlink:title=" ">
<polygon fill="white" stroke="#666666" points="1287.5,-569.74 1182.5,-569.74 1182.5,-539.74 1287.5,-539.74 1287.5,-569.74"/>
<text text-anchor="start" x="1190.5" y="-557.74" font-family="Helvetica,sans-Serif" font-size="10.00">update_drift_state</text>
<text text-anchor="middle" x="1235" y="-546.74" font-family="Helvetica,sans-Serif" font-size="10.00">_counter</text>
</a>
</g>
</g>
<!-- Node31&#45;&gt;Node35 -->
<g id="edge35_Node000031_Node000035" class="edge">
<title>Node31&#45;&gt;Node35</title>
<g id="a_edge35_Node000031_Node000035"><a xlink:title=" ">
<path fill="none" stroke="#63b8ff" d="M441.1,-514.27C450.34,-517.74 459.55,-522.43 467,-528.74 492.49,-550.35 474.92,-576.64 503,-594.74 599.45,-656.92 645.74,-613.74 760.5,-613.74 760.5,-613.74 760.5,-613.74 904,-613.74 1010.56,-613.74 1039.67,-620.77 1143,-594.74 1161.47,-590.09 1180.92,-582.02 1197.08,-574.34"/>
<polygon fill="#63b8ff" stroke="#63b8ff" points="1198.73,-577.43 1206.18,-569.89 1195.66,-571.14 1198.73,-577.43"/>
</a>
</g>
</g>
<!-- Node36 -->
<g id="Node000036" class="node">
<title>Node36</title>
<g id="a_Node000036"><a xlink:href="player__controller_8c.html#a6fc0a8350ee33970fa4979a23f0b3e7f" target="_top" xlink:title=" ">
<polygon fill="white" stroke="#666666" points="647,-462.24 522,-462.24 522,-443.24 647,-443.24 647,-462.24"/>
<text text-anchor="middle" x="584.5" y="-450.24" font-family="Helvetica,sans-Serif" font-size="10.00">update_steering_large</text>
</a>
</g>
</g>
<!-- Node31&#45;&gt;Node36 -->
<g id="edge37_Node000031_Node000036" class="edge">
<title>Node31&#45;&gt;Node36</title>
<g id="a_edge37_Node000031_Node000036"><a xlink:title=" ">
<path fill="none" stroke="#63b8ff" d="M426.36,-495.22C447.39,-488.3 476.84,-478.93 503,-471.74 511.85,-469.31 521.29,-466.91 530.49,-464.68"/>
<polygon fill="#63b8ff" stroke="#63b8ff" points="531.41,-468.05 540.32,-462.32 529.78,-461.25 531.41,-468.05"/>
</a>
</g>
</g>
<!-- Node37 -->
<g id="Node000037" class="node">
<title>Node37</title>
<g id="a_Node000037"><a xlink:href="player__controller_8c.html#a48c7e19bb37a2baff93f9f919b8b9688" target="_top" xlink:title=" ">
<polygon fill="white" stroke="#666666" points="648.5,-425.24 520.5,-425.24 520.5,-406.24 648.5,-406.24 648.5,-425.24"/>
<text text-anchor="middle" x="584.5" y="-413.24" font-family="Helvetica,sans-Serif" font-size="10.00">update_steering_small</text>
</a>
</g>
</g>
<!-- Node31&#45;&gt;Node37 -->
<g id="edge38_Node000031_Node000037" class="edge">
<title>Node31&#45;&gt;Node37</title>
<g id="a_edge38_Node000031_Node000037"><a xlink:title=" ">
<path fill="none" stroke="#63b8ff" d="M437.85,-495.19C447.93,-491.65 458.33,-486.94 467,-480.74 488.12,-465.64 481.13,-448.74 503,-434.74 506.31,-432.63 509.83,-430.75 513.47,-429.07"/>
<polygon fill="#63b8ff" stroke="#63b8ff" points="514.79,-432.32 522.76,-425.33 512.18,-425.82 514.79,-432.32"/>
</a>
</g>
</g>
<!-- Node35&#45;&gt;Node19 -->
<g id="edge36_Node000035_Node000019" class="edge">
<title>Node35&#45;&gt;Node19</title>
<g id="a_edge36_Node000035_Node000019"><a xlink:title=" ">
<path fill="none" stroke="#63b8ff" d="M1287.6,-544.16C1297.24,-542.18 1307.35,-540.11 1317.1,-538.11"/>
<polygon fill="#63b8ff" stroke="#63b8ff" points="1318,-541.5 1327.09,-536.06 1316.59,-534.64 1318,-541.5"/>
</a>
</g>
</g>
<!-- Node38 -->
<g id="Node000038" class="node">
<title>Node38</title>
<g id="a_Node000038"><a xlink:href="player__controller_8c.html#a27292f58c6f927c906a1b4007cb7c8b9" target="_top" xlink:title=" ">
<polygon fill="white" stroke="#666666" points="807,-425.24 716,-425.24 716,-406.24 807,-406.24 807,-425.24"/>
<text text-anchor="middle" x="761.5" y="-413.24" font-family="Helvetica,sans-Serif" font-size="10.00">func_80033850</text>
</a>
</g>
</g>
<!-- Node37&#45;&gt;Node38 -->
<g id="edge39_Node000037_Node000038" class="edge">
<title>Node37&#45;&gt;Node38</title>
<g id="a_edge39_Node000037_Node000038"><a xlink:title=" ">
<path fill="none" stroke="#63b8ff" d="M648.68,-415.74C667.34,-415.74 687.61,-415.74 705.7,-415.74"/>
<polygon fill="#63b8ff" stroke="#63b8ff" points="705.79,-419.24 715.79,-415.74 705.79,-412.24 705.79,-419.24"/>
</a>
</g>
</g>
<!-- Node41 -->
<g id="Node000041" class="node">
<title>Node41</title>
<g id="a_Node000041"><a xlink:href="player__controller_8c.html#aa6354bd4c17bd4e2dae3d73922df904b" target="_top" xlink:title=" ">
<polygon fill="white" stroke="#666666" points="630.5,-314.24 538.5,-314.24 538.5,-295.24 630.5,-295.24 630.5,-314.24"/>
<text text-anchor="middle" x="584.5" y="-302.24" font-family="Helvetica,sans-Serif" font-size="10.00">func_80036C5C</text>
</a>
</g>
</g>
<!-- Node40&#45;&gt;Node41 -->
<g id="edge43_Node000040_Node000041" class="edge">
<title>Node40&#45;&gt;Node41</title>
<g id="a_edge43_Node000040_Node000041"><a xlink:title=" ">
<path fill="none" stroke="#63b8ff" d="M426.58,-304.74C453.56,-304.74 494.77,-304.74 528.18,-304.74"/>
<polygon fill="#63b8ff" stroke="#63b8ff" points="528.27,-308.24 538.27,-304.74 528.27,-301.24 528.27,-308.24"/>
</a>
</g>
</g>
<!-- Node42&#45;&gt;Node9 -->
<g id="edge45_Node000042_Node000009" class="edge">
<title>Node42&#45;&gt;Node9</title>
<g id="a_edge45_Node000042_Node000009"><a xlink:title=" ">
<path fill="none" stroke="#63b8ff" d="M630.57,-369.21C653.52,-364.36 681.61,-358.42 705.79,-353.31"/>
<polygon fill="#63b8ff" stroke="#63b8ff" points="706.83,-356.67 715.89,-351.18 705.38,-349.82 706.83,-356.67"/>
</a>
</g>
</g>
<!-- Node42&#45;&gt;Node30 -->
<g id="edge46_Node000042_Node000030" class="edge">
<title>Node42&#45;&gt;Node30</title>
<g id="a_edge46_Node000042_Node000030"><a xlink:title=" ">
<path fill="none" stroke="#63b8ff" d="M646.73,-369.12C653.46,-366.89 660.02,-364.14 666,-360.74 686.23,-349.26 684.3,-337.84 702,-322.74 709.93,-315.98 719.03,-309.31 727.64,-303.41"/>
<polygon fill="#63b8ff" stroke="#63b8ff" points="729.67,-306.27 736.03,-297.8 725.78,-300.45 729.67,-306.27"/>
</a>
</g>
</g>
<!-- Node45&#45;&gt;Node30 -->
<g id="edge51_Node000045_Node000030" class="edge">
<title>Node45&#45;&gt;Node30</title>
<g id="a_edge51_Node000045_Node000030"><a xlink:title=" ">
<path fill="none" stroke="#63b8ff" d="M273.15,-272.79C370.3,-274.77 581.61,-279.09 691.3,-281.33"/>
<polygon fill="#63b8ff" stroke="#63b8ff" points="691.53,-284.83 701.59,-281.54 691.67,-277.84 691.53,-284.83"/>
</a>
</g>
</g>
<!-- Node46&#45;&gt;Node30 -->
<g id="edge53_Node000046_Node000030" class="edge">
<title>Node46&#45;&gt;Node30</title>
<g id="a_edge53_Node000046_Node000030"><a xlink:title=" ">
<path fill="none" stroke="#63b8ff" d="M291.02,-235.66C394.43,-246.03 588.42,-265.49 691.7,-275.84"/>
<polygon fill="#63b8ff" stroke="#63b8ff" points="691.41,-279.33 701.71,-276.85 692.11,-272.37 691.41,-279.33"/>
</a>
</g>
</g>
</g>
</svg>
