<?xml version="1.0" encoding="UTF-8" standalone="no"?>
<!DOCTYPE svg PUBLIC "-//W3C//DTD SVG 1.1//EN"
 "http://www.w3.org/Graphics/SVG/1.1/DTD/svg11.dtd">
<!-- Generated by graphviz version 2.43.0 (0)
 -->
<!-- Title: func_80033AE0 Pages: 1 -->
<svg width="500pt" height="224pt"
 viewBox="0.00 0.00 500.00 224.00" xmlns="http://www.w3.org/2000/svg" xmlns:xlink="http://www.w3.org/1999/xlink">
<g id="graph0" class="graph" transform="scale(1 1) rotate(0) translate(4 220)">
<title>func_80033AE0</title>
<!-- Node1 -->
<g id="Node000001" class="node">
<title>Node1</title>
<g id="a_Node000001"><a xlink:title=" ">
<polygon fill="#999999" stroke="#666666" points="92,-120 0,-120 0,-101 92,-101 92,-120"/>
<text text-anchor="middle" x="46" y="-108" font-family="Helvetica,sans-Serif" font-size="10.00">func_80033AE0</text>
</a>
</g>
</g>
<!-- Node2 -->
<g id="Node000002" class="node">
<title>Node2</title>
<g id="a_Node000002"><a xlink:href="player__controller_8c.html#afe8141a7397494b8c950c57e038e26f1" target="_top" xlink:title=" ">
<polygon fill="white" stroke="#666666" points="238,-216 146,-216 146,-197 238,-197 238,-216"/>
<text text-anchor="middle" x="192" y="-204" font-family="Helvetica,sans-Serif" font-size="10.00">func_8002A8A4</text>
</a>
</g>
</g>
<!-- Node1&#45;&gt;Node2 -->
<g id="edge1_Node000001_Node000002" class="edge">
<title>Node1&#45;&gt;Node2</title>
<g id="a_edge1_Node000001_Node000002"><a xlink:title=" ">
<path fill="none" stroke="#63b8ff" d="M54.38,-120.21C67.42,-136.7 96.19,-170.19 128,-188.5 131.05,-190.26 134.28,-191.85 137.61,-193.3"/>
<polygon fill="#63b8ff" stroke="#63b8ff" points="136.57,-196.65 147.16,-196.99 139.1,-190.12 136.57,-196.65"/>
</a>
</g>
</g>
<!-- Node5 -->
<g id="Node000005" class="node">
<title>Node5</title>
<g id="a_Node000005"><a xlink:href="player__controller_8c.html#a2cb737102daaec9628aa4e567e01d7b0" target="_top" xlink:title=" ">
<polygon fill="white" stroke="#666666" points="238.5,-179 145.5,-179 145.5,-160 238.5,-160 238.5,-179"/>
<text text-anchor="middle" x="192" y="-167" font-family="Helvetica,sans-Serif" font-size="10.00">func_8002BD58</text>
</a>
</g>
</g>
<!-- Node1&#45;&gt;Node5 -->
<g id="edge4_Node000001_Node000005" class="edge">
<title>Node1&#45;&gt;Node5</title>
<g id="a_edge4_Node000001_Node000005"><a xlink:title=" ">
<path fill="none" stroke="#63b8ff" d="M63.63,-120.1C79.71,-129.1 104.96,-142.47 128,-151.5 133.03,-153.47 138.36,-155.33 143.71,-157.05"/>
<polygon fill="#63b8ff" stroke="#63b8ff" points="142.71,-160.41 153.3,-160 144.77,-153.71 142.71,-160.41"/>
</a>
</g>
</g>
<!-- Node6 -->
<g id="Node000006" class="node">
<title>Node6</title>
<g id="a_Node000006"><a xlink:href="player__controller_8c.html#a1a5b5e02df20372c912e838a46bab65f" target="_top" xlink:title=" ">
<polygon fill="white" stroke="#666666" points="238,-142 146,-142 146,-123 238,-123 238,-142"/>
<text text-anchor="middle" x="192" y="-130" font-family="Helvetica,sans-Serif" font-size="10.00">func_80036CB4</text>
</a>
</g>
</g>
<!-- Node1&#45;&gt;Node6 -->
<g id="edge5_Node000001_Node000006" class="edge">
<title>Node1&#45;&gt;Node6</title>
<g id="a_edge5_Node000001_Node000006"><a xlink:title=" ">
<path fill="none" stroke="#63b8ff" d="M92.17,-117.4C105.97,-119.51 121.31,-121.85 135.71,-124.05"/>
<polygon fill="#63b8ff" stroke="#63b8ff" points="135.58,-127.57 145.99,-125.62 136.64,-120.65 135.58,-127.57"/>
</a>
</g>
</g>
<!-- Node7 -->
<g id="Node000007" class="node">
<title>Node7</title>
<g id="a_Node000007"><a xlink:href="player__controller_8c.html#ada494586b678fcc1eba3ea17ef52a200" target="_top" xlink:title=" ">
<polygon fill="white" stroke="#666666" points="249.5,-104.5 134.5,-104.5 134.5,-74.5 249.5,-74.5 249.5,-104.5"/>
<text text-anchor="start" x="142.5" y="-92.5" font-family="Helvetica,sans-Serif" font-size="10.00">get_clamped_stickX</text>
<text text-anchor="middle" x="192" y="-81.5" font-family="Helvetica,sans-Serif" font-size="10.00">_with_deadzone</text>
</a>
</g>
</g>
<!-- Node1&#45;&gt;Node7 -->
<g id="edge6_Node000001_Node000007" class="edge">
<title>Node1&#45;&gt;Node7</title>
<g id="a_edge6_Node000001_Node000007"><a xlink:title=" ">
<path fill="none" stroke="#63b8ff" d="M92.17,-103.91C102.4,-102.42 113.47,-100.81 124.38,-99.22"/>
<polygon fill="#63b8ff" stroke="#63b8ff" points="124.93,-102.67 134.32,-97.77 123.92,-95.75 124.93,-102.67"/>
</a>
</g>
</g>
<!-- Node8 -->
<g id="Node000008" class="node">
<title>Node8</title>
<g id="a_Node000008"><a xlink:href="player__controller_8c.html#a6fc0a8350ee33970fa4979a23f0b3e7f" target="_top" xlink:title=" ">
<polygon fill="white" stroke="#666666" points="254.5,-56 129.5,-56 129.5,-37 254.5,-37 254.5,-56"/>
<text text-anchor="middle" x="192" y="-44" font-family="Helvetica,sans-Serif" font-size="10.00">update_steering_large</text>
</a>
</g>
</g>
<!-- Node1&#45;&gt;Node8 -->
<g id="edge7_Node000001_Node000008" class="edge">
<title>Node1&#45;&gt;Node8</title>
<g id="a_edge7_Node000001_Node000008"><a xlink:title=" ">
<path fill="none" stroke="#63b8ff" d="M62.03,-100.86C77.94,-90.97 104,-75.65 128,-65.5 133.39,-63.22 139.15,-61.09 144.91,-59.14"/>
<polygon fill="#63b8ff" stroke="#63b8ff" points="146.1,-62.44 154.55,-56.05 143.96,-55.78 146.1,-62.44"/>
</a>
</g>
</g>
<!-- Node9 -->
<g id="Node000009" class="node">
<title>Node9</title>
<g id="a_Node000009"><a xlink:href="player__controller_8c.html#a48c7e19bb37a2baff93f9f919b8b9688" target="_top" xlink:title=" ">
<polygon fill="white" stroke="#666666" points="256,-19 128,-19 128,0 256,0 256,-19"/>
<text text-anchor="middle" x="192" y="-7" font-family="Helvetica,sans-Serif" font-size="10.00">update_steering_small</text>
</a>
</g>
</g>
<!-- Node1&#45;&gt;Node9 -->
<g id="edge8_Node000001_Node000009" class="edge">
<title>Node1&#45;&gt;Node9</title>
<g id="a_edge8_Node000001_Node000009"><a xlink:title=" ">
<path fill="none" stroke="#63b8ff" d="M53.63,-100.98C66.14,-83.71 94.97,-47.2 128,-27.5 130.83,-25.81 133.83,-24.27 136.92,-22.87"/>
<polygon fill="#63b8ff" stroke="#63b8ff" points="138.42,-26.04 146.4,-19.08 135.82,-19.54 138.42,-26.04"/>
</a>
</g>
</g>
<!-- Node3 -->
<g id="Node000003" class="node">
<title>Node3</title>
<g id="a_Node000003"><a xlink:href="external_8c.html#a2be9efc97a92e19d02aaee90d676acc1" target="_top" xlink:title=" ">
<polygon fill="white" stroke="#666666" points="384,-216 292,-216 292,-197 384,-197 384,-216"/>
<text text-anchor="middle" x="338" y="-204" font-family="Helvetica,sans-Serif" font-size="10.00">func_800C9060</text>
</a>
</g>
</g>
<!-- Node2&#45;&gt;Node3 -->
<g id="edge2_Node000002_Node000003" class="edge">
<title>Node2&#45;&gt;Node3</title>
<g id="a_edge2_Node000002_Node000003"><a xlink:title=" ">
<path fill="none" stroke="#63b8ff" d="M238.17,-206.5C251.97,-206.5 267.31,-206.5 281.71,-206.5"/>
<polygon fill="#63b8ff" stroke="#63b8ff" points="281.99,-210 291.99,-206.5 281.99,-203 281.99,-210"/>
</a>
</g>
</g>
<!-- Node4 -->
<g id="Node000004" class="node">
<title>Node4</title>
<g id="a_Node000004"><a xlink:href="external_8c.html#a475cff796211891556f52877cd8e9b9e" target="_top" xlink:title=" ">
<polygon fill="white" stroke="#666666" points="492,-216 420,-216 420,-197 492,-197 492,-216"/>
<text text-anchor="middle" x="456" y="-204" font-family="Helvetica,sans-Serif" font-size="10.00">play_sound</text>
</a>
</g>
</g>
<!-- Node3&#45;&gt;Node4 -->
<g id="edge3_Node000003_Node000004" class="edge">
<title>Node3&#45;&gt;Node4</title>
<g id="a_edge3_Node000003_Node000004"><a xlink:title=" ">
<path fill="none" stroke="#63b8ff" d="M384.18,-206.5C392.59,-206.5 401.38,-206.5 409.8,-206.5"/>
<polygon fill="#63b8ff" stroke="#63b8ff" points="409.82,-210 419.82,-206.5 409.82,-203 409.82,-210"/>
</a>
</g>
</g>
<!-- Node10 -->
<g id="Node000010" class="node">
<title>Node10</title>
<g id="a_Node000010"><a xlink:href="player__controller_8c.html#a27292f58c6f927c906a1b4007cb7c8b9" target="_top" xlink:title=" ">
<polygon fill="white" stroke="#666666" points="383.5,-19 292.5,-19 292.5,0 383.5,0 383.5,-19"/>
<text text-anchor="middle" x="338" y="-7" font-family="Helvetica,sans-Serif" font-size="10.00">func_80033850</text>
</a>
</g>
</g>
<!-- Node9&#45;&gt;Node10 -->
<g id="edge9_Node000009_Node000010" class="edge">
<title>Node9&#45;&gt;Node10</title>
<g id="a_edge9_Node000009_Node000010"><a xlink:title=" ">
<path fill="none" stroke="#63b8ff" d="M256.16,-9.5C264.86,-9.5 273.74,-9.5 282.28,-9.5"/>
<polygon fill="#63b8ff" stroke="#63b8ff" points="282.48,-13 292.48,-9.5 282.48,-6 282.48,-13"/>
</a>
</g>
</g>
</g>
</svg>
