<?xml version="1.0" encoding="UTF-8" standalone="no"?>
<!DOCTYPE svg PUBLIC "-//W3C//DTD SVG 1.1//EN"
 "http://www.w3.org/Graphics/SVG/1.1/DTD/svg11.dtd">
<!-- Generated by graphviz version 2.43.0 (0)
 -->
<!-- Title: func_80037CFC Pages: 1 -->
<svg width="1337pt" height="926pt"
 viewBox="0.00 0.00 1337.00 925.92" xmlns="http://www.w3.org/2000/svg" xmlns:xlink="http://www.w3.org/1999/xlink">
<g id="graph0" class="graph" transform="scale(1 1) rotate(0) translate(4 921.92)">
<title>func_80037CFC</title>
<!-- Node1 -->
<g id="Node000001" class="node">
<title>Node1</title>
<g id="a_Node000001"><a xlink:title=" ">
<polygon fill="#999999" stroke="#666666" points="92,-649.42 0,-649.42 0,-630.42 92,-630.42 92,-649.42"/>
<text text-anchor="middle" x="46" y="-637.42" font-family="Helvetica,sans-Serif" font-size="10.00">func_80037CFC</text>
</a>
</g>
</g>
<!-- Node2 -->
<g id="Node000002" class="node">
<title>Node2</title>
<g id="a_Node000002"><a xlink:href="player__controller_8c.html#af664eee1a948701ecb82a1ed9d3881c1" target="_top" xlink:title=" ">
<polygon fill="white" stroke="#666666" points="262,-917.92 134,-917.92 134,-887.92 262,-887.92 262,-917.92"/>
<text text-anchor="start" x="142" y="-905.92" font-family="Helvetica,sans-Serif" font-size="10.00">detect_triple_a_combo</text>
<text text-anchor="middle" x="198" y="-894.92" font-family="Helvetica,sans-Serif" font-size="10.00">_a_pressed</text>
</a>
</g>
</g>
<!-- Node1&#45;&gt;Node2 -->
<g id="edge1_Node000001_Node000002" class="edge">
<title>Node1&#45;&gt;Node2</title>
<g id="a_edge1_Node000001_Node000002"><a xlink:title=" ">
<path fill="none" stroke="#63b8ff" d="M47.38,-649.67C49.29,-685.48 60.74,-811.12 128,-878.92 129.06,-879.99 130.17,-881.01 131.33,-881.99"/>
<polygon fill="#63b8ff" stroke="#63b8ff" points="129.32,-884.85 139.49,-887.79 133.37,-879.15 129.32,-884.85"/>
</a>
</g>
</g>
<!-- Node3 -->
<g id="Node000003" class="node">
<title>Node3</title>
<g id="a_Node000003"><a xlink:href="player__controller_8c.html#a87754d3029a46143393b05d7b80c5095" target="_top" xlink:title=" ">
<polygon fill="white" stroke="#666666" points="262,-869.92 134,-869.92 134,-839.92 262,-839.92 262,-869.92"/>
<text text-anchor="start" x="142" y="-857.92" font-family="Helvetica,sans-Serif" font-size="10.00">detect_triple_a_combo</text>
<text text-anchor="middle" x="198" y="-846.92" font-family="Helvetica,sans-Serif" font-size="10.00">_a_released</text>
</a>
</g>
</g>
<!-- Node1&#45;&gt;Node3 -->
<g id="edge2_Node000001_Node000003" class="edge">
<title>Node1&#45;&gt;Node3</title>
<g id="a_edge2_Node000001_Node000003"><a xlink:title=" ">
<path fill="none" stroke="#63b8ff" d="M48.35,-649.84C53.11,-681.08 71.98,-778.5 128,-830.92 129.27,-832.11 130.61,-833.24 132,-834.32"/>
<polygon fill="#63b8ff" stroke="#63b8ff" points="130.17,-837.31 140.44,-839.9 134.02,-831.46 130.17,-837.31"/>
</a>
</g>
</g>
<!-- Node4 -->
<g id="Node000004" class="node">
<title>Node4</title>
<g id="a_Node000004"><a xlink:href="player__controller_8c.html#a38d09485c11cb0e6262e4cd7becde84c" target="_top" xlink:title=" ">
<polygon fill="white" stroke="#666666" points="262,-821.92 134,-821.92 134,-791.92 262,-791.92 262,-821.92"/>
<text text-anchor="start" x="142" y="-809.92" font-family="Helvetica,sans-Serif" font-size="10.00">detect_triple_b_combo</text>
<text text-anchor="middle" x="198" y="-798.92" font-family="Helvetica,sans-Serif" font-size="10.00">_b_pressed</text>
</a>
</g>
</g>
<!-- Node1&#45;&gt;Node4 -->
<g id="edge3_Node000001_Node000004" class="edge">
<title>Node1&#45;&gt;Node4</title>
<g id="a_edge3_Node000001_Node000004"><a xlink:title=" ">
<path fill="none" stroke="#63b8ff" d="M49.78,-649.47C57.68,-674.94 82.64,-745.09 128,-782.92 129.53,-784.2 131.14,-785.41 132.8,-786.56"/>
<polygon fill="#63b8ff" stroke="#63b8ff" points="131.16,-789.66 141.54,-791.8 134.76,-783.65 131.16,-789.66"/>
</a>
</g>
</g>
<!-- Node5 -->
<g id="Node000005" class="node">
<title>Node5</title>
<g id="a_Node000005"><a xlink:href="player__controller_8c.html#a3236e6369c678a81362382d7101b14a2" target="_top" xlink:title=" ">
<polygon fill="white" stroke="#666666" points="262,-773.92 134,-773.92 134,-743.92 262,-743.92 262,-773.92"/>
<text text-anchor="start" x="142" y="-761.92" font-family="Helvetica,sans-Serif" font-size="10.00">detect_triple_b_combo</text>
<text text-anchor="middle" x="198" y="-750.92" font-family="Helvetica,sans-Serif" font-size="10.00">_b_released</text>
</a>
</g>
</g>
<!-- Node1&#45;&gt;Node5 -->
<g id="edge4_Node000001_Node000005" class="edge">
<title>Node1&#45;&gt;Node5</title>
<g id="a_edge4_Node000001_Node000005"><a xlink:title=" ">
<path fill="none" stroke="#63b8ff" d="M53.49,-649.6C65.99,-667.6 95.1,-706.54 128,-729.92 132.89,-733.39 138.25,-736.55 143.76,-739.41"/>
<polygon fill="#63b8ff" stroke="#63b8ff" points="142.59,-742.73 153.12,-743.91 145.63,-736.42 142.59,-742.73"/>
</a>
</g>
</g>
<!-- Node6 -->
<g id="Node000006" class="node">
<title>Node6</title>
<g id="a_Node000006"><a xlink:href="player__controller_8c.html#af15169209879a48ae06ba698b386faa6" target="_top" xlink:title=" ">
<polygon fill="white" stroke="#666666" points="243.5,-487.42 152.5,-487.42 152.5,-468.42 243.5,-468.42 243.5,-487.42"/>
<text text-anchor="middle" x="198" y="-475.42" font-family="Helvetica,sans-Serif" font-size="10.00">func_800323E4</text>
</a>
</g>
</g>
<!-- Node1&#45;&gt;Node6 -->
<g id="edge5_Node000001_Node000006" class="edge">
<title>Node1&#45;&gt;Node6</title>
<g id="a_edge5_Node000001_Node000006"><a xlink:title=" ">
<path fill="none" stroke="#63b8ff" d="M50,-630.34C58.27,-605.46 83.77,-538.23 128,-501.92 133.02,-497.8 138.79,-494.37 144.81,-491.51"/>
<polygon fill="#63b8ff" stroke="#63b8ff" points="146.54,-494.58 154.4,-487.49 143.83,-488.13 146.54,-494.58"/>
</a>
</g>
</g>
<!-- Node7 -->
<g id="Node000007" class="node">
<title>Node7</title>
<g id="a_Node000007"><a xlink:href="player__controller_8c.html#a837984168448122c63bd34b924c4276f" target="_top" xlink:title=" ">
<polygon fill="white" stroke="#666666" points="467,-475.42 304,-475.42 304,-456.42 467,-456.42 467,-475.42"/>
<text text-anchor="middle" x="385.5" y="-463.42" font-family="Helvetica,sans-Serif" font-size="10.00">player_decelerate_alternative</text>
</a>
</g>
</g>
<!-- Node1&#45;&gt;Node7 -->
<g id="edge47_Node000001_Node000007" class="edge">
<title>Node1&#45;&gt;Node7</title>
<g id="a_edge47_Node000001_Node000007"><a xlink:title=" ">
<path fill="none" stroke="#63b8ff" d="M51.59,-630.41C62.09,-609.71 89.91,-560.39 128,-534.92 181.6,-499.08 206.28,-515.57 268,-496.92 284.14,-492.04 287.78,-489.53 304,-484.92 312.72,-482.44 322.04,-480.03 331.13,-477.8"/>
<polygon fill="#63b8ff" stroke="#63b8ff" points="331.96,-481.2 340.87,-475.46 330.33,-474.4 331.96,-481.2"/>
</a>
</g>
</g>
<!-- Node18 -->
<g id="Node000018" class="node">
<title>Node18</title>
<g id="a_Node000018"><a xlink:href="external_8c.html#a2be9efc97a92e19d02aaee90d676acc1" target="_top" xlink:title=" ">
<polygon fill="white" stroke="#666666" points="1220.5,-420.42 1128.5,-420.42 1128.5,-401.42 1220.5,-401.42 1220.5,-420.42"/>
<text text-anchor="middle" x="1174.5" y="-408.42" font-family="Helvetica,sans-Serif" font-size="10.00">func_800C9060</text>
</a>
</g>
</g>
<!-- Node1&#45;&gt;Node18 -->
<g id="edge39_Node000001_Node000018" class="edge">
<title>Node1&#45;&gt;Node18</title>
<g id="a_edge39_Node000001_Node000018"><a xlink:title=" ">
<path fill="none" stroke="#63b8ff" d="M58.02,-649.58C72.91,-662.19 100.76,-684.13 128,-696.92 186.36,-724.33 216.44,-696.21 268,-734.92 292.57,-753.36 277.78,-777.91 304,-793.92 401.93,-853.73 446.74,-812.92 561.5,-812.92 561.5,-812.92 561.5,-812.92 866,-812.92 1061.12,-812.92 1149.1,-510.46 1169.01,-430.25"/>
<polygon fill="#63b8ff" stroke="#63b8ff" points="1172.42,-431 1171.37,-420.46 1165.62,-429.36 1172.42,-431"/>
</a>
</g>
</g>
<!-- Node30 -->
<g id="Node000030" class="node">
<title>Node30</title>
<g id="a_Node000030"><a xlink:href="player__controller_8c.html#ac7facd4c09724bfff6c77a8d8b94f0b1" target="_top" xlink:title=" ">
<polygon fill="white" stroke="#666666" points="244,-687.42 152,-687.42 152,-668.42 244,-668.42 244,-687.42"/>
<text text-anchor="middle" x="198" y="-675.42" font-family="Helvetica,sans-Serif" font-size="10.00">func_80033AE0</text>
</a>
</g>
</g>
<!-- Node1&#45;&gt;Node30 -->
<g id="edge30_Node000001_Node000030" class="edge">
<title>Node1&#45;&gt;Node30</title>
<g id="a_edge30_Node000001_Node000030"><a xlink:title=" ">
<path fill="none" stroke="#63b8ff" d="M84.85,-649.51C104.47,-654.48 128.62,-660.6 149.48,-665.88"/>
<polygon fill="#63b8ff" stroke="#63b8ff" points="148.87,-669.34 159.42,-668.4 150.59,-662.55 148.87,-669.34"/>
</a>
</g>
</g>
<!-- Node38 -->
<g id="Node000038" class="node">
<title>Node38</title>
<g id="a_Node000038"><a xlink:href="player__controller_8c.html#a6a67f93f3c986133e336437f84ec4bce" target="_top" xlink:title=" ">
<polygon fill="white" stroke="#666666" points="255,-573.92 141,-573.92 141,-543.92 255,-543.92 255,-573.92"/>
<text text-anchor="start" x="149" y="-561.92" font-family="Helvetica,sans-Serif" font-size="10.00">get_clamped_stickY</text>
<text text-anchor="middle" x="198" y="-550.92" font-family="Helvetica,sans-Serif" font-size="10.00">_with_deadzone</text>
</a>
</g>
</g>
<!-- Node1&#45;&gt;Node38 -->
<g id="edge40_Node000001_Node000038" class="edge">
<title>Node1&#45;&gt;Node38</title>
<g id="a_edge40_Node000001_Node000038"><a xlink:title=" ">
<path fill="none" stroke="#63b8ff" d="M58.73,-630.35C73.96,-618.29 101.72,-597.48 128,-583.92 132.06,-581.83 136.33,-579.83 140.68,-577.94"/>
<polygon fill="#63b8ff" stroke="#63b8ff" points="142.36,-581.03 150.28,-573.99 139.7,-574.56 142.36,-581.03"/>
</a>
</g>
</g>
<!-- Node39 -->
<g id="Node000039" class="node">
<title>Node39</title>
<g id="a_Node000039"><a xlink:href="player__controller_8c.html#a18310e219722897138fbd737acb37331" target="_top" xlink:title=" ">
<polygon fill="white" stroke="#666666" points="227.5,-611.42 168.5,-611.42 168.5,-592.42 227.5,-592.42 227.5,-611.42"/>
<text text-anchor="middle" x="198" y="-599.42" font-family="Helvetica,sans-Serif" font-size="10.00">kart_hop</text>
</a>
</g>
</g>
<!-- Node1&#45;&gt;Node39 -->
<g id="edge41_Node000001_Node000039" class="edge">
<title>Node1&#45;&gt;Node39</title>
<g id="a_edge41_Node000001_Node000039"><a xlink:title=" ">
<path fill="none" stroke="#63b8ff" d="M84.85,-630.33C107.28,-624.65 135.64,-617.46 158.23,-611.74"/>
<polygon fill="#63b8ff" stroke="#63b8ff" points="159.32,-615.07 168.16,-609.23 157.6,-608.29 159.32,-615.07"/>
</a>
</g>
</g>
<!-- Node41 -->
<g id="Node000041" class="node">
<title>Node41</title>
<g id="a_Node000041"><a xlink:href="player__controller_8c.html#a304f6cb24bff484f0338dd56d4b83987" target="_top" xlink:title=" ">
<polygon fill="white" stroke="#666666" points="466.5,-549.42 304.5,-549.42 304.5,-530.42 466.5,-530.42 466.5,-549.42"/>
<text text-anchor="middle" x="385.5" y="-537.42" font-family="Helvetica,sans-Serif" font-size="10.00">player_accelerate_alternative</text>
</a>
</g>
</g>
<!-- Node1&#45;&gt;Node41 -->
<g id="edge43_Node000001_Node000041" class="edge">
<title>Node1&#45;&gt;Node41</title>
<g id="a_edge43_Node000001_Node000041"><a xlink:title=" ">
<path fill="none" stroke="#63b8ff" d="M92.32,-647.53C139.89,-653.05 214.99,-654.54 268,-620.92 294.91,-603.85 278.41,-577.9 304,-558.92 306.51,-557.05 309.18,-555.37 311.96,-553.85"/>
<polygon fill="#63b8ff" stroke="#63b8ff" points="313.61,-556.94 321.16,-549.52 310.63,-550.61 313.61,-556.94"/>
</a>
</g>
</g>
<!-- Node42 -->
<g id="Node000042" class="node">
<title>Node42</title>
<g id="a_Node000042"><a xlink:href="player__controller_8c.html#a6b1e8ffb2bbabc2a10c924e272d82330" target="_top" xlink:title=" ">
<polygon fill="white" stroke="#666666" points="267.5,-450.42 128.5,-450.42 128.5,-431.42 267.5,-431.42 267.5,-450.42"/>
<text text-anchor="middle" x="198" y="-438.42" font-family="Helvetica,sans-Serif" font-size="10.00">player_accelerate_global</text>
</a>
</g>
</g>
<!-- Node1&#45;&gt;Node42 -->
<g id="edge46_Node000001_Node000042" class="edge">
<title>Node1&#45;&gt;Node42</title>
<g id="a_edge46_Node000001_Node000042"><a xlink:title=" ">
<path fill="none" stroke="#63b8ff" d="M48.35,-630.33C53.13,-600.14 72.04,-506.3 128,-458.92 129.52,-457.63 131.13,-456.43 132.8,-455.32"/>
<polygon fill="#63b8ff" stroke="#63b8ff" points="134.58,-458.33 141.62,-450.42 131.18,-452.21 134.58,-458.33"/>
</a>
</g>
</g>
<!-- Node43 -->
<g id="Node000043" class="node">
<title>Node43</title>
<g id="a_Node000043"><a xlink:href="player__controller_8c.html#a3824d2f4f3d74c54bfbc56438b1485fe" target="_top" xlink:title=" ">
<polygon fill="white" stroke="#666666" points="268,-413.42 128,-413.42 128,-394.42 268,-394.42 268,-413.42"/>
<text text-anchor="middle" x="198" y="-401.42" font-family="Helvetica,sans-Serif" font-size="10.00">player_decelerate_global</text>
</a>
</g>
</g>
<!-- Node1&#45;&gt;Node43 -->
<g id="edge48_Node000001_Node000043" class="edge">
<title>Node1&#45;&gt;Node43</title>
<g id="a_edge48_Node000001_Node000043"><a xlink:title=" ">
<path fill="none" stroke="#63b8ff" d="M47.54,-630.37C50,-596.46 63.01,-480.68 128,-421.92 129.29,-420.75 130.66,-419.65 132.07,-418.63"/>
<polygon fill="#63b8ff" stroke="#63b8ff" points="133.91,-421.6 140.71,-413.48 130.33,-415.59 133.91,-421.6"/>
</a>
</g>
</g>
<!-- Node6&#45;&gt;Node7 -->
<g id="edge6_Node000006_Node000007" class="edge">
<title>Node6&#45;&gt;Node7</title>
<g id="a_edge6_Node000006_Node000007"><a xlink:title=" ">
<path fill="none" stroke="#63b8ff" d="M243.9,-475.01C258.96,-474.04 276.34,-472.92 293.63,-471.8"/>
<polygon fill="#63b8ff" stroke="#63b8ff" points="294.02,-475.28 303.78,-471.14 293.57,-468.29 294.02,-475.28"/>
</a>
</g>
</g>
<!-- Node8 -->
<g id="Node000008" class="node">
<title>Node8</title>
<g id="a_Node000008"><a xlink:href="effects_8c.html#a772ef3ecce48b6fada93334a880392b1" target="_top" xlink:title=" ">
<polygon fill="white" stroke="#666666" points="608,-496.42 517,-496.42 517,-477.42 608,-477.42 608,-496.42"/>
<text text-anchor="middle" x="562.5" y="-484.42" font-family="Helvetica,sans-Serif" font-size="10.00">func_8008F104</text>
</a>
</g>
</g>
<!-- Node7&#45;&gt;Node8 -->
<g id="edge7_Node000007_Node000008" class="edge">
<title>Node7&#45;&gt;Node8</title>
<g id="a_edge7_Node000007_Node000008"><a xlink:title=" ">
<path fill="none" stroke="#63b8ff" d="M465.81,-475.44C479.65,-477.1 493.77,-478.79 506.76,-480.35"/>
<polygon fill="#63b8ff" stroke="#63b8ff" points="506.57,-483.85 516.92,-481.57 507.4,-476.9 506.57,-483.85"/>
</a>
</g>
</g>
<!-- Node29 -->
<g id="Node000029" class="node">
<title>Node29</title>
<g id="a_Node000029"><a xlink:href="player__controller_8c.html#aafeb0470c7da44e1440ffa4848f7d500" target="_top" xlink:title=" ">
<polygon fill="white" stroke="#666666" points="622,-458.92 503,-458.92 503,-428.92 622,-428.92 622,-458.92"/>
<text text-anchor="start" x="511" y="-446.92" font-family="Helvetica,sans-Serif" font-size="10.00">get_player_index_for</text>
<text text-anchor="middle" x="562.5" y="-435.92" font-family="Helvetica,sans-Serif" font-size="10.00">_player</text>
</a>
</g>
</g>
<!-- Node7&#45;&gt;Node29 -->
<g id="edge29_Node000007_Node000029" class="edge">
<title>Node7&#45;&gt;Node29</title>
<g id="a_edge29_Node000007_Node000029"><a xlink:title=" ">
<path fill="none" stroke="#63b8ff" d="M462.24,-456.4C472.32,-455.13 482.61,-453.84 492.56,-452.59"/>
<polygon fill="#63b8ff" stroke="#63b8ff" points="493.31,-456.02 502.79,-451.3 492.43,-449.07 493.31,-456.02"/>
</a>
</g>
</g>
<!-- Node9 -->
<g id="Node000009" class="node">
<title>Node9</title>
<g id="a_Node000009"><a xlink:href="effects_8c.html#a6559cc02e5bb1a4e7fe6c97850cdd87e" target="_top" xlink:title=" ">
<polygon fill="white" stroke="#666666" points="742,-342.42 666,-342.42 666,-323.42 742,-323.42 742,-342.42"/>
<text text-anchor="middle" x="704" y="-330.42" font-family="Helvetica,sans-Serif" font-size="10.00">clean_effect</text>
</a>
</g>
</g>
<!-- Node8&#45;&gt;Node9 -->
<g id="edge8_Node000008_Node000009" class="edge">
<title>Node8&#45;&gt;Node9</title>
<g id="a_edge8_Node000008_Node000009"><a xlink:title=" ">
<path fill="none" stroke="#63b8ff" d="M605.66,-477.32C611.5,-474.86 617.15,-471.78 622,-467.92 661.05,-436.84 685.6,-381.43 696.47,-352.19"/>
<polygon fill="#63b8ff" stroke="#63b8ff" points="699.79,-353.3 699.86,-342.7 693.2,-350.94 699.79,-353.3"/>
</a>
</g>
</g>
<!-- Node28 -->
<g id="Node000028" class="node">
<title>Node28</title>
<g id="a_Node000028"><a xlink:href="external_8c.html#a337fc3ab94ebb3293a85908229303ac8" target="_top" xlink:title=" ">
<polygon fill="white" stroke="#666666" points="750,-159.42 658,-159.42 658,-140.42 750,-140.42 750,-159.42"/>
<text text-anchor="middle" x="704" y="-147.42" font-family="Helvetica,sans-Serif" font-size="10.00">func_800C90F4</text>
</a>
</g>
</g>
<!-- Node8&#45;&gt;Node28 -->
<g id="edge27_Node000008_Node000028" class="edge">
<title>Node8&#45;&gt;Node28</title>
<g id="a_edge27_Node000008_Node000028"><a xlink:title=" ">
<path fill="none" stroke="#63b8ff" d="M608,-478.03C613.24,-475.46 618.1,-472.16 622,-467.92 669.56,-416.16 640.7,-382.05 658,-313.92 671.33,-261.42 688.67,-199.93 697.42,-169.31"/>
<polygon fill="#63b8ff" stroke="#63b8ff" points="700.84,-170.07 700.23,-159.5 694.11,-168.15 700.84,-170.07"/>
</a>
</g>
</g>
<!-- Node10 -->
<g id="Node000010" class="node">
<title>Node10</title>
<g id="a_Node000010"><a xlink:href="effects_8c.html#a7fef1af5ca366a9346478d94239c6142" target="_top" xlink:title=" ">
<polygon fill="white" stroke="#666666" points="911.5,-416.42 818.5,-416.42 818.5,-397.42 911.5,-397.42 911.5,-416.42"/>
<text text-anchor="middle" x="865" y="-404.42" font-family="Helvetica,sans-Serif" font-size="10.00">func_8008C6D0</text>
</a>
</g>
</g>
<!-- Node9&#45;&gt;Node10 -->
<g id="edge9_Node000009_Node000010" class="edge">
<title>Node9&#45;&gt;Node10</title>
<g id="a_edge9_Node000009_Node000010"><a xlink:title=" ">
<path fill="none" stroke="#63b8ff" d="M716.29,-342.54C731.26,-354.82 758.97,-375.92 786,-387.92 793.08,-391.06 800.75,-393.73 808.44,-395.99"/>
<polygon fill="#63b8ff" stroke="#63b8ff" points="807.56,-399.38 818.13,-398.64 809.41,-392.63 807.56,-399.38"/>
</a>
</g>
</g>
<!-- Node11 -->
<g id="Node000011" class="node">
<title>Node11</title>
<g id="a_Node000011"><a xlink:href="effects_8c.html#a5f19eaaa048055d292d02c717e635786" target="_top" xlink:title=" ">
<polygon fill="white" stroke="#666666" points="911,-379.42 819,-379.42 819,-360.42 911,-360.42 911,-379.42"/>
<text text-anchor="middle" x="865" y="-367.42" font-family="Helvetica,sans-Serif" font-size="10.00">func_8008D760</text>
</a>
</g>
</g>
<!-- Node9&#45;&gt;Node11 -->
<g id="edge10_Node000009_Node000011" class="edge">
<title>Node9&#45;&gt;Node11</title>
<g id="a_edge10_Node000009_Node000011"><a xlink:title=" ">
<path fill="none" stroke="#63b8ff" d="M742.28,-341.59C763.39,-346.51 790.09,-352.72 813.1,-358.07"/>
<polygon fill="#63b8ff" stroke="#63b8ff" points="812.51,-361.53 823.05,-360.39 814.1,-354.71 812.51,-361.53"/>
</a>
</g>
</g>
<!-- Node12 -->
<g id="Node000012" class="node">
<title>Node12</title>
<g id="a_Node000012"><a xlink:href="effects_8c.html#a4ea2da0616ee3c475e4be217dc0bc71f" target="_top" xlink:title=" ">
<polygon fill="white" stroke="#666666" points="911.5,-342.42 818.5,-342.42 818.5,-323.42 911.5,-323.42 911.5,-342.42"/>
<text text-anchor="middle" x="865" y="-330.42" font-family="Helvetica,sans-Serif" font-size="10.00">func_8008D97C</text>
</a>
</g>
</g>
<!-- Node9&#45;&gt;Node12 -->
<g id="edge11_Node000009_Node000012" class="edge">
<title>Node9&#45;&gt;Node12</title>
<g id="a_edge11_Node000009_Node000012"><a xlink:title=" ">
<path fill="none" stroke="#63b8ff" d="M742.28,-332.92C761.93,-332.92 786.43,-332.92 808.29,-332.92"/>
<polygon fill="#63b8ff" stroke="#63b8ff" points="808.44,-336.42 818.44,-332.92 808.44,-329.42 808.44,-336.42"/>
</a>
</g>
</g>
<!-- Node13 -->
<g id="Node000013" class="node">
<title>Node13</title>
<g id="a_Node000013"><a xlink:href="effects_8c.html#a13005f7c39388deade6ba0491d7c5918" target="_top" xlink:title=" ">
<polygon fill="white" stroke="#666666" points="910.5,-305.42 819.5,-305.42 819.5,-286.42 910.5,-286.42 910.5,-305.42"/>
<text text-anchor="middle" x="865" y="-293.42" font-family="Helvetica,sans-Serif" font-size="10.00">func_8008E884</text>
</a>
</g>
</g>
<!-- Node9&#45;&gt;Node13 -->
<g id="edge12_Node000009_Node000013" class="edge">
<title>Node9&#45;&gt;Node13</title>
<g id="a_edge12_Node000009_Node000013"><a xlink:title=" ">
<path fill="none" stroke="#63b8ff" d="M742.09,-324.19C755.88,-320.95 771.65,-317.26 786,-313.92 794.65,-311.91 803.85,-309.77 812.78,-307.71"/>
<polygon fill="#63b8ff" stroke="#63b8ff" points="813.75,-311.08 822.7,-305.42 812.17,-304.26 813.75,-311.08"/>
</a>
</g>
</g>
<!-- Node14 -->
<g id="Node000014" class="node">
<title>Node14</title>
<g id="a_Node000014"><a xlink:href="effects_8c.html#ae02351b6bbb678b552ec8864b47fc56c" target="_top" xlink:title=" ">
<polygon fill="white" stroke="#666666" points="910.5,-268.42 819.5,-268.42 819.5,-249.42 910.5,-249.42 910.5,-268.42"/>
<text text-anchor="middle" x="865" y="-256.42" font-family="Helvetica,sans-Serif" font-size="10.00">func_8008F3E0</text>
</a>
</g>
</g>
<!-- Node9&#45;&gt;Node14 -->
<g id="edge13_Node000009_Node000014" class="edge">
<title>Node9&#45;&gt;Node14</title>
<g id="a_edge13_Node000009_Node000014"><a xlink:title=" ">
<path fill="none" stroke="#63b8ff" d="M715.98,-323.28C730.83,-310.74 758.63,-289 786,-276.92 793.41,-273.65 801.49,-270.93 809.55,-268.69"/>
<polygon fill="#63b8ff" stroke="#63b8ff" points="810.51,-272.06 819.33,-266.18 808.77,-265.27 810.51,-272.06"/>
</a>
</g>
</g>
<!-- Node15 -->
<g id="Node000015" class="node">
<title>Node15</title>
<g id="a_Node000015"><a xlink:href="effects_8c.html#ab5125d5944958f891647b27b440d3d62" target="_top" xlink:title=" ">
<polygon fill="white" stroke="#666666" points="911,-231.42 819,-231.42 819,-212.42 911,-212.42 911,-231.42"/>
<text text-anchor="middle" x="865" y="-219.42" font-family="Helvetica,sans-Serif" font-size="10.00">func_8008F5A4</text>
</a>
</g>
</g>
<!-- Node9&#45;&gt;Node15 -->
<g id="edge14_Node000009_Node000015" class="edge">
<title>Node9&#45;&gt;Node15</title>
<g id="a_edge14_Node000009_Node000015"><a xlink:title=" ">
<path fill="none" stroke="#63b8ff" d="M710.51,-323.25C721.94,-304.12 750.2,-261.4 786,-239.92 793.03,-235.7 800.97,-232.47 809.01,-229.99"/>
<polygon fill="#63b8ff" stroke="#63b8ff" points="810.09,-233.33 818.83,-227.34 808.26,-226.57 810.09,-233.33"/>
</a>
</g>
</g>
<!-- Node20 -->
<g id="Node000020" class="node">
<title>Node20</title>
<g id="a_Node000020"><a xlink:href="effects_8c.html#a2f183005a5e85816dd81508847c1904d" target="_top" xlink:title=" ">
<polygon fill="white" stroke="#666666" points="911.5,-194.42 818.5,-194.42 818.5,-175.42 911.5,-175.42 911.5,-194.42"/>
<text text-anchor="middle" x="865" y="-182.42" font-family="Helvetica,sans-Serif" font-size="10.00">func_8008FEDC</text>
</a>
</g>
</g>
<!-- Node9&#45;&gt;Node20 -->
<g id="edge19_Node000009_Node000020" class="edge">
<title>Node9&#45;&gt;Node20</title>
<g id="a_edge19_Node000009_Node000020"><a xlink:title=" ">
<path fill="none" stroke="#63b8ff" d="M708.08,-323.27C716.38,-298.91 741.64,-234.6 786,-202.92 792.67,-198.15 800.41,-194.63 808.38,-192.02"/>
<polygon fill="#63b8ff" stroke="#63b8ff" points="809.46,-195.36 818.14,-189.28 807.57,-188.62 809.46,-195.36"/>
</a>
</g>
</g>
<!-- Node21 -->
<g id="Node000021" class="node">
<title>Node21</title>
<g id="a_Node000021"><a xlink:href="effects_8c.html#acbb1f27649a63227fcf0dd1f17dfa096" target="_top" xlink:title=" ">
<polygon fill="white" stroke="#666666" points="926,-156.92 804,-156.92 804,-126.92 926,-126.92 926,-156.92"/>
<text text-anchor="start" x="812" y="-144.92" font-family="Helvetica,sans-Serif" font-size="10.00">remove_banana_near</text>
<text text-anchor="middle" x="865" y="-133.92" font-family="Helvetica,sans-Serif" font-size="10.00">_spinout_effect</text>
</a>
</g>
</g>
<!-- Node9&#45;&gt;Node21 -->
<g id="edge20_Node000009_Node000021" class="edge">
<title>Node9&#45;&gt;Node21</title>
<g id="a_edge20_Node000009_Node000021"><a xlink:title=" ">
<path fill="none" stroke="#63b8ff" d="M706.84,-323.36C712.83,-294.93 734.39,-210.18 786,-165.92 788.72,-163.59 791.66,-161.48 794.75,-159.58"/>
<polygon fill="#63b8ff" stroke="#63b8ff" points="796.64,-162.55 803.82,-154.75 793.35,-156.37 796.64,-162.55"/>
</a>
</g>
</g>
<!-- Node22 -->
<g id="Node000022" class="node">
<title>Node22</title>
<g id="a_Node000022"><a xlink:href="effects_8c.html#a4768d56263e476d3bac47ee01bac3dc8" target="_top" xlink:title=" ">
<polygon fill="white" stroke="#666666" points="944,-108.92 786,-108.92 786,-78.92 944,-78.92 944,-108.92"/>
<text text-anchor="start" x="794" y="-96.92" font-family="Helvetica,sans-Serif" font-size="10.00">remove_boost_ramp_asphalt</text>
<text text-anchor="middle" x="865" y="-85.92" font-family="Helvetica,sans-Serif" font-size="10.00">_effect</text>
</a>
</g>
</g>
<!-- Node9&#45;&gt;Node22 -->
<g id="edge21_Node000009_Node000022" class="edge">
<title>Node9&#45;&gt;Node22</title>
<g id="a_edge21_Node000009_Node000022"><a xlink:title=" ">
<path fill="none" stroke="#63b8ff" d="M707.46,-323.14C717.19,-285.15 754.03,-147.97 786,-117.92 787.13,-116.86 788.3,-115.84 789.52,-114.87"/>
<polygon fill="#63b8ff" stroke="#63b8ff" points="791.73,-117.6 798.05,-109.1 787.81,-111.8 791.73,-117.6"/>
</a>
</g>
</g>
<!-- Node23 -->
<g id="Node000023" class="node">
<title>Node23</title>
<g id="a_Node000023"><a xlink:href="effects_8c.html#aafe14c45e9b91bb1d409ef2f2bfe5c53" target="_top" xlink:title=" ">
<polygon fill="white" stroke="#666666" points="939.5,-60.92 790.5,-60.92 790.5,-30.92 939.5,-30.92 939.5,-60.92"/>
<text text-anchor="start" x="798.5" y="-48.92" font-family="Helvetica,sans-Serif" font-size="10.00">remove_boost_ramp_wood</text>
<text text-anchor="middle" x="865" y="-37.92" font-family="Helvetica,sans-Serif" font-size="10.00">_effect</text>
</a>
</g>
</g>
<!-- Node9&#45;&gt;Node23 -->
<g id="edge22_Node000009_Node000023" class="edge">
<title>Node9&#45;&gt;Node23</title>
<g id="a_edge22_Node000009_Node000023"><a xlink:title=" ">
<path fill="none" stroke="#63b8ff" d="M707.68,-323.32C720.63,-277.13 776.46,-79.46 786,-69.92 786.96,-68.96 787.95,-68.04 788.98,-67.16"/>
<polygon fill="#63b8ff" stroke="#63b8ff" points="791.37,-69.75 797.45,-61.08 787.28,-64.07 791.37,-69.75"/>
</a>
</g>
</g>
<!-- Node24 -->
<g id="Node000024" class="node">
<title>Node24</title>
<g id="a_Node000024"><a xlink:href="effects_8c.html#a9ff5c732ea8ba59908ccf62ff441e7e4" target="_top" xlink:title=" ">
<polygon fill="white" stroke="#666666" points="925,-586.92 805,-586.92 805,-556.92 925,-556.92 925,-586.92"/>
<text text-anchor="start" x="813" y="-574.92" font-family="Helvetica,sans-Serif" font-size="10.00">remove_driving_near</text>
<text text-anchor="middle" x="865" y="-563.92" font-family="Helvetica,sans-Serif" font-size="10.00">_spinout_effect</text>
</a>
</g>
</g>
<!-- Node9&#45;&gt;Node24 -->
<g id="edge23_Node000009_Node000024" class="edge">
<title>Node9&#45;&gt;Node24</title>
<g id="a_edge23_Node000009_Node000024"><a xlink:title=" ">
<path fill="none" stroke="#63b8ff" d="M705.72,-342.7C708.72,-376.42 723.22,-488.91 786,-547.92 788.99,-550.73 792.31,-553.22 795.83,-555.41"/>
<polygon fill="#63b8ff" stroke="#63b8ff" points="794.5,-558.66 804.97,-560.28 797.79,-552.49 794.5,-558.66"/>
</a>
</g>
</g>
<!-- Node25 -->
<g id="Node000025" class="node">
<title>Node25</title>
<g id="a_Node000025"><a xlink:href="effects_8c.html#a5f1aead641683fd07375d6737dfafac2" target="_top" xlink:title=" ">
<polygon fill="white" stroke="#666666" points="921.5,-538.92 808.5,-538.92 808.5,-508.92 921.5,-508.92 921.5,-538.92"/>
<text text-anchor="start" x="816.5" y="-526.92" font-family="Helvetica,sans-Serif" font-size="10.00">remove_hit_by_star</text>
<text text-anchor="middle" x="865" y="-515.92" font-family="Helvetica,sans-Serif" font-size="10.00">_effect</text>
</a>
</g>
</g>
<!-- Node9&#45;&gt;Node25 -->
<g id="edge24_Node000009_Node000025" class="edge">
<title>Node9&#45;&gt;Node25</title>
<g id="a_edge24_Node000009_Node000025"><a xlink:title=" ">
<path fill="none" stroke="#63b8ff" d="M706.84,-342.48C712.83,-370.91 734.39,-455.66 786,-499.92 789.93,-503.29 794.33,-506.19 798.99,-508.68"/>
<polygon fill="#63b8ff" stroke="#63b8ff" points="797.65,-511.92 808.19,-512.99 800.62,-505.58 797.65,-511.92"/>
</a>
</g>
</g>
<!-- Node26 -->
<g id="Node000026" class="node">
<title>Node26</title>
<g id="a_Node000026"><a xlink:href="effects_8c.html#a9be2cc0ebbe72a9d5276a4fd2675eef3" target="_top" xlink:title=" ">
<polygon fill="white" stroke="#666666" points="937.5,-490.42 792.5,-490.42 792.5,-471.42 937.5,-471.42 937.5,-490.42"/>
<text text-anchor="middle" x="865" y="-478.42" font-family="Helvetica,sans-Serif" font-size="10.00">remove_mushroom_effect</text>
</a>
</g>
</g>
<!-- Node9&#45;&gt;Node26 -->
<g id="edge25_Node000009_Node000026" class="edge">
<title>Node9&#45;&gt;Node26</title>
<g id="a_edge25_Node000009_Node000026"><a xlink:title=" ">
<path fill="none" stroke="#63b8ff" d="M708.13,-342.46C716.54,-366.57 742.02,-430.22 786,-461.92 788.66,-463.83 791.48,-465.56 794.43,-467.11"/>
<polygon fill="#63b8ff" stroke="#63b8ff" points="793,-470.3 803.55,-471.26 795.9,-463.93 793,-470.3"/>
</a>
</g>
</g>
<!-- Node27 -->
<g id="Node000027" class="node">
<title>Node27</title>
<g id="a_Node000027"><a xlink:href="effects_8c.html#a85a7ba2f2c97859b0090c54a68e8f003" target="_top" xlink:title=" ">
<polygon fill="white" stroke="#666666" points="932,-453.42 798,-453.42 798,-434.42 932,-434.42 932,-453.42"/>
<text text-anchor="middle" x="865" y="-441.42" font-family="Helvetica,sans-Serif" font-size="10.00">remove_spinout_effects</text>
</a>
</g>
</g>
<!-- Node9&#45;&gt;Node27 -->
<g id="edge26_Node000009_Node000027" class="edge">
<title>Node9&#45;&gt;Node27</title>
<g id="a_edge26_Node000009_Node000027"><a xlink:title=" ">
<path fill="none" stroke="#63b8ff" d="M710.56,-342.44C722.08,-361.31 750.49,-403.44 786,-424.92 789.62,-427.11 793.48,-429.05 797.48,-430.76"/>
<polygon fill="#63b8ff" stroke="#63b8ff" points="796.39,-434.09 806.98,-434.37 798.87,-427.55 796.39,-434.09"/>
</a>
</g>
</g>
<!-- Node16 -->
<g id="Node000016" class="node">
<title>Node16</title>
<g id="a_Node000016"><a xlink:href="code__80057C60_8c.html#ae28b6eb556910087cea23f0cb7a322bd" target="_top" xlink:title=" ">
<polygon fill="white" stroke="#666666" points="1092,-332.42 980,-332.42 980,-313.42 1092,-313.42 1092,-332.42"/>
<text text-anchor="middle" x="1036" y="-320.42" font-family="Helvetica,sans-Serif" font-size="10.00">pop_player_balloon</text>
</a>
</g>
</g>
<!-- Node15&#45;&gt;Node16 -->
<g id="edge15_Node000015_Node000016" class="edge">
<title>Node15&#45;&gt;Node16</title>
<g id="a_edge15_Node000015_Node000016"><a xlink:title=" ">
<path fill="none" stroke="#63b8ff" d="M911.13,-228.22C922.28,-230.88 933.91,-234.62 944,-239.92 975.51,-256.45 1004.5,-286.55 1020.93,-305.6"/>
<polygon fill="#63b8ff" stroke="#63b8ff" points="1018.26,-307.86 1027.37,-313.25 1023.61,-303.35 1018.26,-307.86"/>
</a>
</g>
</g>
<!-- Node17 -->
<g id="Node000017" class="node">
<title>Node17</title>
<g id="a_Node000017"><a xlink:href="effects_8c.html#a1c7552c4a370cc015c2726e40f1fdb06" target="_top" xlink:title=" ">
<polygon fill="white" stroke="#666666" points="1221,-332.42 1128,-332.42 1128,-313.42 1221,-313.42 1221,-332.42"/>
<text text-anchor="middle" x="1174.5" y="-320.42" font-family="Helvetica,sans-Serif" font-size="10.00">func_8008FD4C</text>
</a>
</g>
</g>
<!-- Node16&#45;&gt;Node17 -->
<g id="edge16_Node000016_Node000017" class="edge">
<title>Node16&#45;&gt;Node17</title>
<g id="a_edge16_Node000016_Node000017"><a xlink:title=" ">
<path fill="none" stroke="#63b8ff" d="M1092.13,-322.92C1100.54,-322.92 1109.24,-322.92 1117.67,-322.92"/>
<polygon fill="#63b8ff" stroke="#63b8ff" points="1117.79,-326.42 1127.79,-322.92 1117.79,-319.42 1117.79,-326.42"/>
</a>
</g>
</g>
<!-- Node16&#45;&gt;Node18 -->
<g id="edge17_Node000016_Node000018" class="edge">
<title>Node16&#45;&gt;Node18</title>
<g id="a_edge17_Node000016_Node000018"><a xlink:title=" ">
<path fill="none" stroke="#63b8ff" d="M1051.87,-332.5C1075.56,-347.78 1122.07,-377.76 1150.21,-395.91"/>
<polygon fill="#63b8ff" stroke="#63b8ff" points="1148.35,-398.87 1158.65,-401.35 1152.14,-392.99 1148.35,-398.87"/>
</a>
</g>
</g>
<!-- Node19 -->
<g id="Node000019" class="node">
<title>Node19</title>
<g id="a_Node000019"><a xlink:href="external_8c.html#a475cff796211891556f52877cd8e9b9e" target="_top" xlink:title=" ">
<polygon fill="white" stroke="#666666" points="1329,-318.42 1257,-318.42 1257,-299.42 1329,-299.42 1329,-318.42"/>
<text text-anchor="middle" x="1293" y="-306.42" font-family="Helvetica,sans-Serif" font-size="10.00">play_sound</text>
</a>
</g>
</g>
<!-- Node18&#45;&gt;Node19 -->
<g id="edge18_Node000018_Node000019" class="edge">
<title>Node18&#45;&gt;Node19</title>
<g id="a_edge18_Node000018_Node000019"><a xlink:title=" ">
<path fill="none" stroke="#63b8ff" d="M1186.67,-401.14C1206.73,-383.58 1249.03,-346.54 1273.48,-325.13"/>
<polygon fill="#63b8ff" stroke="#63b8ff" points="1275.82,-327.74 1281.03,-318.52 1271.2,-322.47 1275.82,-327.74"/>
</a>
</g>
</g>
<!-- Node28&#45;&gt;Node19 -->
<g id="edge28_Node000028_Node000019" class="edge">
<title>Node28&#45;&gt;Node19</title>
<g id="a_edge28_Node000028_Node000019"><a xlink:title=" ">
<path fill="none" stroke="#63b8ff" d="M707.63,-140.17C715.01,-115.01 738.54,-48.05 786,-21.92 847.51,11.95 877.91,1.82 944,-21.92 1100.07,-77.97 1236.05,-237.65 1278.39,-291.18"/>
<polygon fill="#63b8ff" stroke="#63b8ff" points="1275.87,-293.64 1284.79,-299.37 1281.39,-289.33 1275.87,-293.64"/>
</a>
</g>
</g>
<!-- Node31 -->
<g id="Node000031" class="node">
<title>Node31</title>
<g id="a_Node000031"><a xlink:href="player__controller_8c.html#afe8141a7397494b8c950c57e038e26f1" target="_top" xlink:title=" ">
<polygon fill="white" stroke="#666666" points="1082,-471.42 990,-471.42 990,-452.42 1082,-452.42 1082,-471.42"/>
<text text-anchor="middle" x="1036" y="-459.42" font-family="Helvetica,sans-Serif" font-size="10.00">func_8002A8A4</text>
</a>
</g>
</g>
<!-- Node30&#45;&gt;Node31 -->
<g id="edge31_Node000030_Node000031" class="edge">
<title>Node30&#45;&gt;Node31</title>
<g id="a_edge31_Node000030_Node000031"><a xlink:title=" ">
<path fill="none" stroke="#63b8ff" d="M222.12,-668.24C251.74,-655.87 299.78,-635.92 304,-634.92 415.68,-608.4 446.71,-614.92 561.5,-614.92 561.5,-614.92 561.5,-614.92 705,-614.92 811.56,-614.92 851.89,-649.49 944,-595.92 989.01,-569.74 1016.52,-511.33 1028.29,-481.01"/>
<polygon fill="#63b8ff" stroke="#63b8ff" points="1031.6,-482.14 1031.81,-471.55 1025.04,-479.71 1031.6,-482.14"/>
</a>
</g>
</g>
<!-- Node32 -->
<g id="Node000032" class="node">
<title>Node32</title>
<g id="a_Node000032"><a xlink:href="player__controller_8c.html#a2cb737102daaec9628aa4e567e01d7b0" target="_top" xlink:title=" ">
<polygon fill="white" stroke="#666666" points="432,-662.42 339,-662.42 339,-643.42 432,-643.42 432,-662.42"/>
<text text-anchor="middle" x="385.5" y="-650.42" font-family="Helvetica,sans-Serif" font-size="10.00">func_8002BD58</text>
</a>
</g>
</g>
<!-- Node30&#45;&gt;Node32 -->
<g id="edge33_Node000030_Node000032" class="edge">
<title>Node30&#45;&gt;Node32</title>
<g id="a_edge33_Node000030_Node000032"><a xlink:title=" ">
<path fill="none" stroke="#63b8ff" d="M244.38,-671.8C269.87,-668.37 301.88,-664.05 328.87,-660.42"/>
<polygon fill="#63b8ff" stroke="#63b8ff" points="329.5,-663.86 338.95,-659.06 328.57,-656.93 329.5,-663.86"/>
</a>
</g>
</g>
<!-- Node33 -->
<g id="Node000033" class="node">
<title>Node33</title>
<g id="a_Node000033"><a xlink:href="player__controller_8c.html#a1a5b5e02df20372c912e838a46bab65f" target="_top" xlink:title=" ">
<polygon fill="white" stroke="#666666" points="431.5,-586.42 339.5,-586.42 339.5,-567.42 431.5,-567.42 431.5,-586.42"/>
<text text-anchor="middle" x="385.5" y="-574.42" font-family="Helvetica,sans-Serif" font-size="10.00">func_80036CB4</text>
</a>
</g>
</g>
<!-- Node30&#45;&gt;Node33 -->
<g id="edge34_Node000030_Node000033" class="edge">
<title>Node30&#45;&gt;Node33</title>
<g id="a_edge34_Node000030_Node000033"><a xlink:title=" ">
<path fill="none" stroke="#63b8ff" d="M240.22,-668.37C249.95,-664.87 259.85,-660.17 268,-653.92 290.59,-636.59 281.02,-617.74 304,-600.92 311.69,-595.29 320.69,-590.97 329.84,-587.66"/>
<polygon fill="#63b8ff" stroke="#63b8ff" points="330.95,-590.98 339.38,-584.57 328.78,-584.33 330.95,-590.98"/>
</a>
</g>
</g>
<!-- Node34 -->
<g id="Node000034" class="node">
<title>Node34</title>
<g id="a_Node000034"><a xlink:href="player__controller_8c.html#ada494586b678fcc1eba3ea17ef52a200" target="_top" xlink:title=" ">
<polygon fill="white" stroke="#666666" points="443,-784.92 328,-784.92 328,-754.92 443,-754.92 443,-784.92"/>
<text text-anchor="start" x="336" y="-772.92" font-family="Helvetica,sans-Serif" font-size="10.00">get_clamped_stickX</text>
<text text-anchor="middle" x="385.5" y="-761.92" font-family="Helvetica,sans-Serif" font-size="10.00">_with_deadzone</text>
</a>
</g>
</g>
<!-- Node30&#45;&gt;Node34 -->
<g id="edge35_Node000030_Node000034" class="edge">
<title>Node30&#45;&gt;Node34</title>
<g id="a_edge35_Node000030_Node000034"><a xlink:title=" ">
<path fill="none" stroke="#63b8ff" d="M238.4,-687.47C248.59,-691.02 259.16,-695.74 268,-701.92 288.71,-716.39 282.97,-731.92 304,-745.92 308.36,-748.82 313.09,-751.39 317.99,-753.65"/>
<polygon fill="#63b8ff" stroke="#63b8ff" points="317,-757.03 327.58,-757.63 319.69,-750.56 317,-757.03"/>
</a>
</g>
</g>
<!-- Node35 -->
<g id="Node000035" class="node">
<title>Node35</title>
<g id="a_Node000035"><a xlink:href="player__controller_8c.html#a6fc0a8350ee33970fa4979a23f0b3e7f" target="_top" xlink:title=" ">
<polygon fill="white" stroke="#666666" points="448,-736.42 323,-736.42 323,-717.42 448,-717.42 448,-736.42"/>
<text text-anchor="middle" x="385.5" y="-724.42" font-family="Helvetica,sans-Serif" font-size="10.00">update_steering_large</text>
</a>
</g>
</g>
<!-- Node30&#45;&gt;Node35 -->
<g id="edge36_Node000030_Node000035" class="edge">
<title>Node30&#45;&gt;Node35</title>
<g id="a_edge36_Node000030_Node000035"><a xlink:title=" ">
<path fill="none" stroke="#63b8ff" d="M229.63,-687.55C250.49,-693.97 278.79,-702.39 304,-708.92 312.17,-711.04 320.85,-713.13 329.36,-715.11"/>
<polygon fill="#63b8ff" stroke="#63b8ff" points="328.71,-718.55 339.24,-717.36 330.27,-711.72 328.71,-718.55"/>
</a>
</g>
</g>
<!-- Node36 -->
<g id="Node000036" class="node">
<title>Node36</title>
<g id="a_Node000036"><a xlink:href="player__controller_8c.html#a48c7e19bb37a2baff93f9f919b8b9688" target="_top" xlink:title=" ">
<polygon fill="white" stroke="#666666" points="449.5,-699.42 321.5,-699.42 321.5,-680.42 449.5,-680.42 449.5,-699.42"/>
<text text-anchor="middle" x="385.5" y="-687.42" font-family="Helvetica,sans-Serif" font-size="10.00">update_steering_small</text>
</a>
</g>
</g>
<!-- Node30&#45;&gt;Node36 -->
<g id="edge37_Node000030_Node000036" class="edge">
<title>Node30&#45;&gt;Node36</title>
<g id="a_edge37_Node000030_Node000036"><a xlink:title=" ">
<path fill="none" stroke="#63b8ff" d="M244.38,-680.85C264.47,-682.15 288.61,-683.72 311.16,-685.17"/>
<polygon fill="#63b8ff" stroke="#63b8ff" points="311.18,-688.68 321.38,-685.84 311.63,-681.7 311.18,-688.68"/>
</a>
</g>
</g>
<!-- Node31&#45;&gt;Node18 -->
<g id="edge32_Node000031_Node000018" class="edge">
<title>Node31&#45;&gt;Node18</title>
<g id="a_edge32_Node000031_Node000018"><a xlink:title=" ">
<path fill="none" stroke="#63b8ff" d="M1062.67,-452.33C1084.03,-444.35 1114.64,-432.91 1138.28,-424.08"/>
<polygon fill="#63b8ff" stroke="#63b8ff" points="1139.8,-427.25 1147.94,-420.47 1137.35,-420.69 1139.8,-427.25"/>
</a>
</g>
</g>
<!-- Node37 -->
<g id="Node000037" class="node">
<title>Node37</title>
<g id="a_Node000037"><a xlink:href="player__controller_8c.html#a27292f58c6f927c906a1b4007cb7c8b9" target="_top" xlink:title=" ">
<polygon fill="white" stroke="#666666" points="608,-699.42 517,-699.42 517,-680.42 608,-680.42 608,-699.42"/>
<text text-anchor="middle" x="562.5" y="-687.42" font-family="Helvetica,sans-Serif" font-size="10.00">func_80033850</text>
</a>
</g>
</g>
<!-- Node36&#45;&gt;Node37 -->
<g id="edge38_Node000036_Node000037" class="edge">
<title>Node36&#45;&gt;Node37</title>
<g id="a_edge38_Node000036_Node000037"><a xlink:title=" ">
<path fill="none" stroke="#63b8ff" d="M449.68,-689.92C468.34,-689.92 488.61,-689.92 506.7,-689.92"/>
<polygon fill="#63b8ff" stroke="#63b8ff" points="506.79,-693.42 516.79,-689.92 506.79,-686.42 506.79,-693.42"/>
</a>
</g>
</g>
<!-- Node40 -->
<g id="Node000040" class="node">
<title>Node40</title>
<g id="a_Node000040"><a xlink:href="player__controller_8c.html#aa6354bd4c17bd4e2dae3d73922df904b" target="_top" xlink:title=" ">
<polygon fill="white" stroke="#666666" points="431.5,-512.42 339.5,-512.42 339.5,-493.42 431.5,-493.42 431.5,-512.42"/>
<text text-anchor="middle" x="385.5" y="-500.42" font-family="Helvetica,sans-Serif" font-size="10.00">func_80036C5C</text>
</a>
</g>
</g>
<!-- Node39&#45;&gt;Node40 -->
<g id="edge42_Node000039_Node000040" class="edge">
<title>Node39&#45;&gt;Node40</title>
<g id="a_edge42_Node000039_Node000040"><a xlink:title=" ">
<path fill="none" stroke="#63b8ff" d="M227.73,-599.01C241.05,-596.48 256.46,-591.75 268,-582.92 293,-563.79 278.65,-540.59 304,-521.92 311.47,-516.42 320.3,-512.48 329.33,-509.67"/>
<polygon fill="#63b8ff" stroke="#63b8ff" points="330.39,-513.01 339.14,-507.05 328.58,-506.25 330.39,-513.01"/>
</a>
</g>
</g>
<!-- Node41&#45;&gt;Node8 -->
<g id="edge44_Node000041_Node000008" class="edge">
<title>Node41&#45;&gt;Node8</title>
<g id="a_edge44_Node000041_Node000008"><a xlink:title=" ">
<path fill="none" stroke="#63b8ff" d="M434.02,-530.41C444.93,-527.92 456.43,-525.04 467,-521.92 487.95,-515.73 510.95,-507.25 529.01,-500.19"/>
<polygon fill="#63b8ff" stroke="#63b8ff" points="530.48,-503.37 538.49,-496.43 527.91,-496.86 530.48,-503.37"/>
</a>
</g>
</g>
<!-- Node41&#45;&gt;Node29 -->
<g id="edge45_Node000041_Node000029" class="edge">
<title>Node41&#45;&gt;Node29</title>
<g id="a_edge45_Node000041_Node000029"><a xlink:title=" ">
<path fill="none" stroke="#63b8ff" d="M450.78,-530.3C456.52,-528.06 462.03,-525.3 467,-521.92 490.55,-505.91 481.02,-487.02 503,-468.92 505.01,-467.26 507.15,-465.69 509.38,-464.22"/>
<polygon fill="#63b8ff" stroke="#63b8ff" points="511.46,-467.05 518.31,-458.97 507.92,-461.02 511.46,-467.05"/>
</a>
</g>
</g>
</g>
</svg>
