<?xml version="1.0" encoding="UTF-8" standalone="no"?>
<!DOCTYPE svg PUBLIC "-//W3C//DTD SVG 1.1//EN"
 "http://www.w3.org/Graphics/SVG/1.1/DTD/svg11.dtd">
<!-- Generated by graphviz version 2.43.0 (0)
 -->
<!-- Title: note_init Pages: 1 -->
<!--zoomable 75 -->

<svg id="main" version="1.1" xmlns="http://www.w3.org/2000/svg" xmlns:xlink="http://www.w3.org/1999/xlink" xml:space="preserve" onload="init(evt)">
<style type="text/css"><![CDATA[
.node, .edge {opacity: 0.7;}
.node.selected, .edge.selected {opacity: 1;}
.edge:hover path { stroke: red; }
.edge:hover polygon { stroke: red; fill: red; }
]]></style>

<defs>
  <circle id="rim" cx="0" cy="0" r="7"/>
  <circle id="rim2" cx="0" cy="0" r="3.5"/>
  <g id="zoomPlus">
    <use xlink:href="#rim" fill="#404040"><set attributeName="fill" to="#808080" begin="zoomplus.mouseover" end="zoomplus.mouseout"/></use>
    <path d="M-4,0h8M0,-4v8" fill="none" stroke="white" stroke-width="1.5" pointer-events="none"/>
  </g>
  <g id="zoomMin">
    <use xlink:href="#rim" fill="#404040"><set attributeName="fill" to="#808080" begin="zoomminus.mouseover" end="zoomminus.mouseout"/></use>
    <path d="M-4,0h8" fill="none" stroke="white" stroke-width="1.5" pointer-events="none"/>
  </g>
  <g id="arrowUp" transform="translate(30 24)">
    <use xlink:href="#rim"/>
    <path pointer-events="none" fill="none" stroke="white" stroke-width="1.5" d="M0,-3.0v7 M-2.5,-0.5L0,-3.0L2.5,-0.5"/>
  </g>
  <g id="arrowRight" transform="rotate(90) translate(36 -43)">
    <use xlink:href="#rim"/>
    <path pointer-events="none" fill="none" stroke="white" stroke-width="1.5" d="M0,-3.0v7 M-2.5,-0.5L0,-3.0L2.5,-0.5"/>
  </g>
  <g id="arrowDown" transform="rotate(180) translate(-30 -48)">
    <use xlink:href="#rim"/>
    <path pointer-events="none" fill="none" stroke="white" stroke-width="1.5" d="M0,-3.0v7 M-2.5,-0.5L0,-3.0L2.5,-0.5"/>
  </g>
  <g id="arrowLeft" transform="rotate(270) translate(-36 17)">
    <use xlink:href="#rim"/>
    <path pointer-events="none" fill="none" stroke="white" stroke-width="1.5" d="M0,-3.0v7 M-2.5,-0.5L0,-3.0L2.5,-0.5"/>
  </g>
  <g id="resetDef">
    <use xlink:href="#rim2" fill="#404040"><set attributeName="fill" to="#808080" begin="reset.mouseover" end="reset.mouseout"/></use>
  </g>
</defs>
<script type="application/ecmascript">
var viewWidth = 2014;
var viewHeight = 75;
var sectionId = 'dynsection-27';
</script>
<script type="application/ecmascript" xlink:href="svg.min.js"/>
<svg id="graph" class="graph">
<g id="viewport">
<title>note_init</title>
<!-- Node1 -->
<g id="Node000001" class="node">
<title>Node1</title>
<g id="a_Node000001"><a xlink:title=" ">
<polygon fill="#999999" stroke="#666666" points="2006,-40 1947,-40 1947,-21 2006,-21 2006,-40"/>
<text text-anchor="middle" x="1976.5" y="-28" font-family="Helvetica,sans-Serif" font-size="10.00">note_init</text>
</a>
</g>
</g>
<!-- Node2 -->
<g id="Node000002" class="node">
<title>Node2</title>
<g id="a_Node000002"><a xlink:href="playback_8c.html#a1d9c0dd4a7db097c7e209f944749ee20" target="_top" xlink:title=" ">
<polygon fill="white" stroke="#666666" points="1911,-40 1803,-40 1803,-21 1911,-21 1911,-40"/>
<text text-anchor="middle" x="1857" y="-28" font-family="Helvetica,sans-Serif" font-size="10.00">note_init_for_layer</text>
</a>
</g>
</g>
<!-- Node1&#45;&gt;Node2 -->
<g id="edge1_Node000001_Node000002" class="edge">
<title>Node1&#45;&gt;Node2</title>
<g id="a_edge1_Node000001_Node000002"><a xlink:title=" ">
<path fill="none" stroke="#63b8ff" d="M1936.5,-30.5C1928.4,-30.5 1919.73,-30.5 1911.22,-30.5"/>
<polygon fill="#63b8ff" stroke="#63b8ff" points="1936.76,-34 1946.76,-30.5 1936.76,-27 1936.76,-34"/>
</a>
</g>
</g>
<!-- Node3 -->
<g id="Node000003" class="node">
<title>Node3</title>
<g id="a_Node000003"><a xlink:href="playback_8c.html#ae50695bfbcd25a66988103d7c9fa48f9" target="_top" xlink:title=" ">
<polygon fill="white" stroke="#666666" points="1767,-60 1625,-60 1625,-41 1767,-41 1767,-60"/>
<text text-anchor="middle" x="1696" y="-48" font-family="Helvetica,sans-Serif" font-size="10.00">alloc_note_from_disabled</text>
</a>
</g>
</g>
<!-- Node2&#45;&gt;Node3 -->
<g id="edge2_Node000002_Node000003" class="edge">
<title>Node2&#45;&gt;Node3</title>
<g id="a_edge2_Node000002_Node000003"><a xlink:title=" ">
<path fill="none" stroke="#63b8ff" d="M1792.58,-38.48C1784.23,-39.53 1775.64,-40.61 1767.19,-41.67"/>
<polygon fill="#63b8ff" stroke="#63b8ff" points="1793.13,-41.94 1802.61,-37.22 1792.25,-34.99 1793.13,-41.94"/>
</a>
</g>
</g>
<!-- Node15 -->
<g id="Node000015" class="node">
<title>Node15</title>
<g id="a_Node000015"><a xlink:href="playback_8c.html#a6072a70c0d32abbae03e563cf3f51c92" target="_top" xlink:title=" ">
<polygon fill="white" stroke="#666666" points="1589,-19 1503,-19 1503,0 1589,0 1589,-19"/>
<text text-anchor="middle" x="1546" y="-7" font-family="Helvetica,sans-Serif" font-size="10.00">process_notes</text>
</a>
</g>
</g>
<!-- Node2&#45;&gt;Node15 -->
<g id="edge14_Node000002_Node000015" class="edge">
<title>Node2&#45;&gt;Node15</title>
<g id="a_edge14_Node000002_Node000015"><a xlink:title=" ">
<path fill="none" stroke="#63b8ff" d="M1792.62,-26.19C1731.75,-22.06 1641.5,-15.92 1589.03,-12.36"/>
<polygon fill="#63b8ff" stroke="#63b8ff" points="1792.67,-29.7 1802.88,-26.89 1793.14,-22.72 1792.67,-29.7"/>
</a>
</g>
</g>
<!-- Node4 -->
<g id="Node000004" class="node">
<title>Node4</title>
<g id="a_Node000004"><a xlink:href="playback_8c.html#aa0ec6a7d4cc9350096bc60622047c4af" target="_top" xlink:title=" ">
<polygon fill="white" stroke="#666666" points="1579.5,-60 1512.5,-60 1512.5,-41 1579.5,-41 1579.5,-60"/>
<text text-anchor="middle" x="1546" y="-48" font-family="Helvetica,sans-Serif" font-size="10.00">alloc_note</text>
</a>
</g>
</g>
<!-- Node3&#45;&gt;Node4 -->
<g id="edge3_Node000003_Node000004" class="edge">
<title>Node3&#45;&gt;Node4</title>
<g id="a_edge3_Node000003_Node000004"><a xlink:title=" ">
<path fill="none" stroke="#63b8ff" d="M1614.87,-50.5C1602.4,-50.5 1590.16,-50.5 1579.58,-50.5"/>
<polygon fill="#63b8ff" stroke="#63b8ff" points="1614.9,-54 1624.9,-50.5 1614.9,-47 1614.9,-54"/>
</a>
</g>
</g>
<!-- Node5 -->
<g id="Node000005" class="node">
<title>Node5</title>
<g id="a_Node000005"><a xlink:href="seqplayer_8c.html#aa502aaa2a2da31ea46aa1cd8b25ff668" target="_top" xlink:title=" ">
<polygon fill="white" stroke="#666666" points="1467,-66.5 1317,-66.5 1317,-36.5 1467,-36.5 1467,-66.5"/>
<text text-anchor="start" x="1325" y="-54.5" font-family="Helvetica,sans-Serif" font-size="10.00">seq_channel_layer_process</text>
<text text-anchor="middle" x="1392" y="-43.5" font-family="Helvetica,sans-Serif" font-size="10.00">_script</text>
</a>
</g>
</g>
<!-- Node4&#45;&gt;Node5 -->
<g id="edge4_Node000004_Node000005" class="edge">
<title>Node4&#45;&gt;Node5</title>
<g id="a_edge4_Node000004_Node000005"><a xlink:title=" ">
<path fill="none" stroke="#63b8ff" d="M1502.26,-50.78C1491.29,-50.85 1479.16,-50.93 1467.09,-51.01"/>
<polygon fill="#63b8ff" stroke="#63b8ff" points="1502.42,-54.28 1512.39,-50.71 1502.37,-47.28 1502.42,-54.28"/>
</a>
</g>
</g>
<!-- Node6 -->
<g id="Node000006" class="node">
<title>Node6</title>
<g id="a_Node000006"><a xlink:href="seqplayer_8c.html#aa8903a3fda21cf479983688b377deb37" target="_top" xlink:title=" ">
<polygon fill="white" stroke="#666666" points="1281,-66.5 1132,-66.5 1132,-36.5 1281,-36.5 1281,-66.5"/>
<text text-anchor="start" x="1140" y="-54.5" font-family="Helvetica,sans-Serif" font-size="10.00">sequence_channel_process</text>
<text text-anchor="middle" x="1206.5" y="-43.5" font-family="Helvetica,sans-Serif" font-size="10.00">_script</text>
</a>
</g>
</g>
<!-- Node5&#45;&gt;Node6 -->
<g id="edge5_Node000005_Node000006" class="edge">
<title>Node5&#45;&gt;Node6</title>
<g id="a_edge5_Node000005_Node000006"><a xlink:title=" ">
<path fill="none" stroke="#63b8ff" d="M1306.63,-51.5C1298.17,-51.5 1289.63,-51.5 1281.29,-51.5"/>
<polygon fill="#63b8ff" stroke="#63b8ff" points="1306.89,-55 1316.89,-51.5 1306.89,-48 1306.89,-55"/>
</a>
</g>
</g>
<!-- Node7 -->
<g id="Node000007" class="node">
<title>Node7</title>
<g id="a_Node000007"><a xlink:href="seqplayer_8c.html#a057e95b47ecbd1b645b1ef457f3854d9" target="_top" xlink:title=" ">
<polygon fill="white" stroke="#666666" points="1096,-66.5 954,-66.5 954,-36.5 1096,-36.5 1096,-66.5"/>
<text text-anchor="start" x="962" y="-54.5" font-family="Helvetica,sans-Serif" font-size="10.00">sequence_player_process</text>
<text text-anchor="middle" x="1025" y="-43.5" font-family="Helvetica,sans-Serif" font-size="10.00">_sequence</text>
</a>
</g>
</g>
<!-- Node6&#45;&gt;Node7 -->
<g id="edge6_Node000006_Node000007" class="edge">
<title>Node6&#45;&gt;Node7</title>
<g id="a_edge6_Node000006_Node000007"><a xlink:title=" ">
<path fill="none" stroke="#63b8ff" d="M1121.93,-51.5C1113.34,-51.5 1104.66,-51.5 1096.23,-51.5"/>
<polygon fill="#63b8ff" stroke="#63b8ff" points="1121.97,-55 1131.97,-51.5 1121.97,-48 1121.97,-55"/>
</a>
</g>
</g>
<!-- Node8 -->
<g id="Node000008" class="node">
<title>Node8</title>
<g id="a_Node000008"><a xlink:href="seqplayer_8c.html#a017a1ff1f0545e2cde4fa43261892349" target="_top" xlink:title=" ">
<polygon fill="white" stroke="#666666" points="918,-39 807,-39 807,-20 918,-20 918,-39"/>
<text text-anchor="middle" x="862.5" y="-27" font-family="Helvetica,sans-Serif" font-size="10.00">process_sequences</text>
</a>
</g>
</g>
<!-- Node7&#45;&gt;Node8 -->
<g id="edge7_Node000007_Node000008" class="edge">
<title>Node7&#45;&gt;Node8</title>
<g id="a_edge7_Node000007_Node000008"><a xlink:title=" ">
<path fill="none" stroke="#63b8ff" d="M943.61,-40.48C935.07,-39.31 926.54,-38.14 918.4,-37.03"/>
<polygon fill="#63b8ff" stroke="#63b8ff" points="943.22,-43.96 953.6,-41.85 944.17,-37.02 943.22,-43.96"/>
</a>
</g>
</g>
<!-- Node9 -->
<g id="Node000009" class="node">
<title>Node9</title>
<g id="a_Node000009"><a xlink:href="synthesis_8c.html#a2994f1f3d3603607ed9bca3243c1d5cf" target="_top" xlink:title=" ">
<polygon fill="white" stroke="#666666" points="771,-39 664,-39 664,-20 771,-20 771,-39"/>
<text text-anchor="middle" x="717.5" y="-27" font-family="Helvetica,sans-Serif" font-size="10.00">synthesis_execute</text>
</a>
</g>
</g>
<!-- Node8&#45;&gt;Node9 -->
<g id="edge8_Node000008_Node000009" class="edge">
<title>Node8&#45;&gt;Node9</title>
<g id="a_edge8_Node000008_Node000009"><a xlink:title=" ">
<path fill="none" stroke="#63b8ff" d="M796.39,-29.5C787.92,-29.5 779.34,-29.5 771.11,-29.5"/>
<polygon fill="#63b8ff" stroke="#63b8ff" points="796.62,-33 806.62,-29.5 796.62,-26 796.62,-33"/>
</a>
</g>
</g>
<!-- Node10 -->
<g id="Node000010" class="node">
<title>Node10</title>
<g id="a_Node000010"><a xlink:href="port__eu_8c.html#a17e6cb53d677ce7a809303aa122cb4cf" target="_top" xlink:title=" ">
<polygon fill="white" stroke="#666666" points="628,-39 461,-39 461,-20 628,-20 628,-39"/>
<text text-anchor="middle" x="544.5" y="-27" font-family="Helvetica,sans-Serif" font-size="10.00">create_next_audio_frame_task</text>
</a>
</g>
</g>
<!-- Node9&#45;&gt;Node10 -->
<g id="edge9_Node000009_Node000010" class="edge">
<title>Node9&#45;&gt;Node10</title>
<g id="a_edge9_Node000009_Node000010"><a xlink:title=" ">
<path fill="none" stroke="#63b8ff" d="M653.54,-29.5C645.29,-29.5 636.74,-29.5 628.22,-29.5"/>
<polygon fill="#63b8ff" stroke="#63b8ff" points="653.8,-33 663.8,-29.5 653.8,-26 653.8,-33"/>
</a>
</g>
</g>
<!-- Node11 -->
<g id="Node000011" class="node">
<title>Node11</title>
<g id="a_Node000011"><a xlink:href="main_8c.html#adc4ddc4dba28c4eebe8a7c28e5559b11" target="_top" xlink:title=" ">
<polygon fill="white" stroke="#666666" points="425,-39 339,-39 339,-20 425,-20 425,-39"/>
<text text-anchor="middle" x="382" y="-27" font-family="Helvetica,sans-Serif" font-size="10.00">thread4_audio</text>
</a>
</g>
</g>
<!-- Node10&#45;&gt;Node11 -->
<g id="edge10_Node000010_Node000011" class="edge">
<title>Node10&#45;&gt;Node11</title>
<g id="a_edge10_Node000010_Node000011"><a xlink:title=" ">
<path fill="none" stroke="#63b8ff" d="M450.86,-29.5C442.02,-29.5 433.39,-29.5 425.41,-29.5"/>
<polygon fill="#63b8ff" stroke="#63b8ff" points="450.9,-33 460.9,-29.5 450.9,-26 450.9,-33"/>
</a>
</g>
</g>
<!-- Node12 -->
<g id="Node000012" class="node">
<title>Node12</title>
<g id="a_Node000012"><a xlink:href="main_8c.html#a023b8f272e4efbd33f371e91ffff6b30" target="_top" xlink:title=" ">
<polygon fill="white" stroke="#666666" points="303,-39 217,-39 217,-20 303,-20 303,-39"/>
<text text-anchor="middle" x="260" y="-27" font-family="Helvetica,sans-Serif" font-size="10.00">thread3_video</text>
</a>
</g>
</g>
<!-- Node11&#45;&gt;Node12 -->
<g id="edge11_Node000011_Node000012" class="edge">
<title>Node11&#45;&gt;Node12</title>
<g id="a_edge11_Node000011_Node000012"><a xlink:title=" ">
<path fill="none" stroke="#63b8ff" d="M328.55,-29.5C320.12,-29.5 311.49,-29.5 303.33,-29.5"/>
<polygon fill="#63b8ff" stroke="#63b8ff" points="328.69,-33 338.69,-29.5 328.69,-26 328.69,-33"/>
</a>
</g>
</g>
<!-- Node13 -->
<g id="Node000013" class="node">
<title>Node13</title>
<g id="a_Node000013"><a xlink:href="main_8c.html#a1e35d2b842121e6aea373f09381616e5" target="_top" xlink:title=" ">
<polygon fill="white" stroke="#666666" points="181,-39 104,-39 104,-20 181,-20 181,-39"/>
<text text-anchor="middle" x="142.5" y="-27" font-family="Helvetica,sans-Serif" font-size="10.00">thread1_idle</text>
</a>
</g>
</g>
<!-- Node12&#45;&gt;Node13 -->
<g id="edge12_Node000012_Node000013" class="edge">
<title>Node12&#45;&gt;Node13</title>
<g id="a_edge12_Node000012_Node000013"><a xlink:title=" ">
<path fill="none" stroke="#63b8ff" d="M206.9,-29.5C198.2,-29.5 189.33,-29.5 181.09,-29.5"/>
<polygon fill="#63b8ff" stroke="#63b8ff" points="206.98,-33 216.98,-29.5 206.98,-26 206.98,-33"/>
</a>
</g>
</g>
<!-- Node14 -->
<g id="Node000014" class="node">
<title>Node14</title>
<g id="a_Node000014"><a xlink:href="main_8c.html#a4f87d43525fe95f60ea92bc8a3b70e62" target="_top" xlink:title=" ">
<polygon fill="white" stroke="#666666" points="68,-39 0,-39 0,-20 68,-20 68,-39"/>
<text text-anchor="middle" x="34" y="-27" font-family="Helvetica,sans-Serif" font-size="10.00">main_func</text>
</a>
</g>
</g>
<!-- Node13&#45;&gt;Node14 -->
<g id="edge13_Node000013_Node000014" class="edge">
<title>Node13&#45;&gt;Node14</title>
<g id="a_edge13_Node000013_Node000014"><a xlink:title=" ">
<path fill="none" stroke="#63b8ff" d="M93.95,-29.5C85.29,-29.5 76.44,-29.5 68.31,-29.5"/>
<polygon fill="#63b8ff" stroke="#63b8ff" points="93.95,-33 103.95,-29.5 93.95,-26 93.95,-33"/>
</a>
</g>
</g>
<!-- Node15&#45;&gt;Node8 -->
<g id="edge15_Node000015_Node000008" class="edge">
<title>Node15&#45;&gt;Node8</title>
<g id="a_edge15_Node000015_Node000008"><a xlink:title=" ">
<path fill="none" stroke="#63b8ff" d="M1492.72,-11.03C1366.64,-14.73 1046.8,-24.12 918.24,-27.89"/>
<polygon fill="#63b8ff" stroke="#63b8ff" points="1492.99,-14.53 1502.88,-10.74 1492.79,-7.53 1492.99,-14.53"/>
</a>
</g>
</g>
</g>
</svg>

<g id="navigator" transform="translate(0 0)" fill="#404254">
  <rect fill="#f2f5e9" fill-opacity="0.5" stroke="#606060" stroke-width=".5" x="0" y="0" width="60" height="60"/>
  <use id="zoomplus" xlink:href="#zoomPlus" x="17" y="9" onmousedown="handleZoom(evt,'in')"/>
  <use id="zoomminus" xlink:href="#zoomMin" x="42" y="9" onmousedown="handleZoom(evt,'out')"/>
  <use id="reset" xlink:href="#resetDef" x="30" y="36" onmousedown="handleReset()"/>
   <use id="arrowup" xlink:href="#arrowUp" x="0" y="0" onmousedown="handlePan(0,-1)"/>
  <use id="arrowright" xlink:href="#arrowRight" x="0" y="0" onmousedown="handlePan(1,0)"/>
  <use id="arrowdown" xlink:href="#arrowDown" x="0" y="0" onmousedown="handlePan(0,1)"/>
  <use id="arrowleft" xlink:href="#arrowLeft" x="0" y="0" onmousedown="handlePan(-1,0)"/>
</g>
<svg viewBox="0 0 15 15" width="100%" height="30px" preserveAspectRatio="xMaxYMin meet">
 <g id="arrow_out" transform="scale(0.3 0.3)">
  <a xlink:href="playback_8c_a80dd9595a3ab00862f65d4987c2c082b_icgraph_org.svg" target="_base">
   <rect id="button" ry="5" rx="5" y="6" x="6" height="38" width="38"
        fill="#f2f5e9" fill-opacity="0.5" stroke="#606060" stroke-width="1.0"/>
   <path id="arrow"
     d="M 11.500037,31.436501 C 11.940474,20.09759 22.043105,11.32322 32.158766,21.979434 L 37.068811,17.246167 C 37.068811,17.246167 37.088388,32 37.088388,32 L 22.160133,31.978069 C 22.160133,31.978069 26.997745,27.140456 26.997745,27.140456 C 18.528582,18.264221 13.291696,25.230495 11.500037,31.436501 z"
     style="fill:#404040;"/>
  </a>
 </g>
</svg>

<style type='text/css'>
<![CDATA[
[data-mouse-over-selected='false'] { opacity: 0.7; }
[data-mouse-over-selected='true']  { opacity: 1.0; }
]]>
</style>
<script type="application/ecmascript"><![CDATA[
document.addEventListener('DOMContentLoaded', (event) => {
  highlightEdges();
  highlightAdjacentNodes();
});
]]></script>
</svg>
