<?xml version="1.0" encoding="UTF-8" standalone="no"?>
<!DOCTYPE svg PUBLIC "-//W3C//DTD SVG 1.1//EN"
 "http://www.w3.org/Graphics/SVG/1.1/DTD/svg11.dtd">
<!-- Generated by graphviz version 2.43.0 (0)
 -->
<!-- Title: handle_a_press_for_player_during_race Pages: 1 -->
<svg width="1536pt" height="711pt"
 viewBox="0.00 0.00 1536.00 711.32" xmlns="http://www.w3.org/2000/svg" xmlns:xlink="http://www.w3.org/1999/xlink">
<g id="graph0" class="graph" transform="scale(1 1) rotate(0) translate(4 707.32)">
<title>handle_a_press_for_player_during_race</title>
<!-- Node1 -->
<g id="Node000001" class="node">
<title>Node1</title>
<g id="a_Node000001"><a xlink:title=" ">
<polygon fill="#999999" stroke="#666666" points="115,-127.82 0,-127.82 0,-97.82 115,-97.82 115,-127.82"/>
<text text-anchor="start" x="8" y="-115.82" font-family="Helvetica,sans-Serif" font-size="10.00">handle_a_press_for</text>
<text text-anchor="middle" x="57.5" y="-104.82" font-family="Helvetica,sans-Serif" font-size="10.00">_player_during_race</text>
</a>
</g>
</g>
<!-- Node2 -->
<g id="Node000002" class="node">
<title>Node2</title>
<g id="a_Node000002"><a xlink:href="player__controller_8c.html#aab31a6f2a555017a67382dcc5bda7f63" target="_top" xlink:title=" ">
<polygon fill="white" stroke="#666666" points="267,-427.32 175,-427.32 175,-408.32 267,-408.32 267,-427.32"/>
<text text-anchor="middle" x="221" y="-415.32" font-family="Helvetica,sans-Serif" font-size="10.00">func_80037CFC</text>
</a>
</g>
</g>
<!-- Node1&#45;&gt;Node2 -->
<g id="edge1_Node000001_Node000002" class="edge">
<title>Node1&#45;&gt;Node2</title>
<g id="a_edge1_Node000001_Node000002"><a xlink:title=" ">
<path fill="none" stroke="#63b8ff" d="M66.51,-127.95C93.41,-178.76 180.51,-343.24 210.07,-399.08"/>
<polygon fill="#63b8ff" stroke="#63b8ff" points="207.13,-400.99 214.9,-408.19 213.31,-397.71 207.13,-400.99"/>
</a>
</g>
</g>
<!-- Node45 -->
<g id="Node000045" class="node">
<title>Node45</title>
<g id="a_Node000045"><a xlink:href="player__controller_8c.html#ab0dbd1e70372263a934b5ce4907aa491" target="_top" xlink:title=" ">
<polygon fill="white" stroke="#666666" points="273,-165.32 169,-165.32 169,-146.32 273,-146.32 273,-165.32"/>
<text text-anchor="middle" x="221" y="-153.32" font-family="Helvetica,sans-Serif" font-size="10.00">player_accelerate</text>
</a>
</g>
</g>
<!-- Node1&#45;&gt;Node45 -->
<g id="edge50_Node000001_Node000045" class="edge">
<title>Node1&#45;&gt;Node45</title>
<g id="a_edge50_Node000001_Node000045"><a xlink:title=" ">
<path fill="none" stroke="#63b8ff" d="M114.98,-127.86C134.33,-133.01 155.71,-138.71 174.11,-143.61"/>
<polygon fill="#63b8ff" stroke="#63b8ff" points="173.43,-147.05 183.99,-146.24 175.23,-140.28 173.43,-147.05"/>
</a>
</g>
</g>
<!-- Node46 -->
<g id="Node000046" class="node">
<title>Node46</title>
<g id="a_Node000046"><a xlink:href="player__controller_8c.html#a8cb399cc583c0c188929b0fdcab007a3" target="_top" xlink:title=" ">
<polygon fill="white" stroke="#666666" points="291,-127.82 151,-127.82 151,-97.82 291,-97.82 291,-127.82"/>
<text text-anchor="start" x="159" y="-115.82" font-family="Helvetica,sans-Serif" font-size="10.00">player_accelerate_during</text>
<text text-anchor="middle" x="221" y="-104.82" font-family="Helvetica,sans-Serif" font-size="10.00">_start_sequence</text>
</a>
</g>
</g>
<!-- Node1&#45;&gt;Node46 -->
<g id="edge52_Node000001_Node000046" class="edge">
<title>Node1&#45;&gt;Node46</title>
<g id="a_edge52_Node000001_Node000046"><a xlink:title=" ">
<path fill="none" stroke="#63b8ff" d="M115.44,-112.82C123.66,-112.82 132.25,-112.82 140.81,-112.82"/>
<polygon fill="#63b8ff" stroke="#63b8ff" points="140.83,-116.32 150.83,-112.82 140.83,-109.32 140.83,-116.32"/>
</a>
</g>
</g>
<!-- Node47 -->
<g id="Node000047" class="node">
<title>Node47</title>
<g id="a_Node000047"><a xlink:href="player__controller_8c.html#a5b91146f79f3e94ce4b406315e231684" target="_top" xlink:title=" ">
<polygon fill="white" stroke="#666666" points="273,-79.32 169,-79.32 169,-60.32 273,-60.32 273,-79.32"/>
<text text-anchor="middle" x="221" y="-67.32" font-family="Helvetica,sans-Serif" font-size="10.00">player_decelerate</text>
</a>
</g>
</g>
<!-- Node1&#45;&gt;Node47 -->
<g id="edge54_Node000001_Node000047" class="edge">
<title>Node1&#45;&gt;Node47</title>
<g id="a_edge54_Node000001_Node000047"><a xlink:title=" ">
<path fill="none" stroke="#63b8ff" d="M114.98,-97.79C134.33,-92.64 155.71,-86.94 174.11,-82.04"/>
<polygon fill="#63b8ff" stroke="#63b8ff" points="175.23,-85.37 183.99,-79.41 173.43,-78.6 175.23,-85.37"/>
</a>
</g>
</g>
<!-- Node48 -->
<g id="Node000048" class="node">
<title>Node48</title>
<g id="a_Node000048"><a xlink:href="player__controller_8c.html#aa52976f726086db8595c942ba7bae3ed" target="_top" xlink:title=" ">
<polygon fill="white" stroke="#666666" points="291,-41.82 151,-41.82 151,-11.82 291,-11.82 291,-41.82"/>
<text text-anchor="start" x="159" y="-29.82" font-family="Helvetica,sans-Serif" font-size="10.00">player_decelerate_during</text>
<text text-anchor="middle" x="221" y="-18.82" font-family="Helvetica,sans-Serif" font-size="10.00">_start_sequence</text>
</a>
</g>
</g>
<!-- Node1&#45;&gt;Node48 -->
<g id="edge55_Node000001_Node000048" class="edge">
<title>Node1&#45;&gt;Node48</title>
<g id="a_edge55_Node000001_Node000048"><a xlink:title=" ">
<path fill="none" stroke="#63b8ff" d="M77.81,-97.73C95.93,-84.11 124.18,-64.2 151,-50.82 154.54,-49.06 158.24,-47.37 162.01,-45.76"/>
<polygon fill="#63b8ff" stroke="#63b8ff" points="163.51,-48.93 171.47,-41.94 160.88,-42.44 163.51,-48.93"/>
</a>
</g>
</g>
<!-- Node3 -->
<g id="Node000003" class="node">
<title>Node3</title>
<g id="a_Node000003"><a xlink:href="player__controller_8c.html#af664eee1a948701ecb82a1ed9d3881c1" target="_top" xlink:title=" ">
<polygon fill="white" stroke="#666666" points="461,-552.82 333,-552.82 333,-522.82 461,-522.82 461,-552.82"/>
<text text-anchor="start" x="341" y="-540.82" font-family="Helvetica,sans-Serif" font-size="10.00">detect_triple_a_combo</text>
<text text-anchor="middle" x="397" y="-529.82" font-family="Helvetica,sans-Serif" font-size="10.00">_a_pressed</text>
</a>
</g>
</g>
<!-- Node2&#45;&gt;Node3 -->
<g id="edge2_Node000002_Node000003" class="edge">
<title>Node2&#45;&gt;Node3</title>
<g id="a_edge2_Node000002_Node000003"><a xlink:title=" ">
<path fill="none" stroke="#63b8ff" d="M230,-427.38C246.36,-446.37 285.63,-489.16 327,-513.82 329.78,-515.48 332.69,-517.05 335.67,-518.52"/>
<polygon fill="#63b8ff" stroke="#63b8ff" points="334.26,-521.72 344.81,-522.68 337.16,-515.35 334.26,-521.72"/>
</a>
</g>
</g>
<!-- Node4 -->
<g id="Node000004" class="node">
<title>Node4</title>
<g id="a_Node000004"><a xlink:href="player__controller_8c.html#a87754d3029a46143393b05d7b80c5095" target="_top" xlink:title=" ">
<polygon fill="white" stroke="#666666" points="461,-504.82 333,-504.82 333,-474.82 461,-474.82 461,-504.82"/>
<text text-anchor="start" x="341" y="-492.82" font-family="Helvetica,sans-Serif" font-size="10.00">detect_triple_a_combo</text>
<text text-anchor="middle" x="397" y="-481.82" font-family="Helvetica,sans-Serif" font-size="10.00">_a_released</text>
</a>
</g>
</g>
<!-- Node2&#45;&gt;Node4 -->
<g id="edge3_Node000002_Node000004" class="edge">
<title>Node2&#45;&gt;Node4</title>
<g id="a_edge3_Node000002_Node000004"><a xlink:title=" ">
<path fill="none" stroke="#63b8ff" d="M241.5,-427.41C262.4,-437.52 296.68,-453.65 327,-465.82 331.66,-467.7 336.53,-469.56 341.44,-471.38"/>
<polygon fill="#63b8ff" stroke="#63b8ff" points="340.27,-474.68 350.86,-474.81 342.66,-468.1 340.27,-474.68"/>
</a>
</g>
</g>
<!-- Node5 -->
<g id="Node000005" class="node">
<title>Node5</title>
<g id="a_Node000005"><a xlink:href="player__controller_8c.html#a38d09485c11cb0e6262e4cd7becde84c" target="_top" xlink:title=" ">
<polygon fill="white" stroke="#666666" points="461,-456.82 333,-456.82 333,-426.82 461,-426.82 461,-456.82"/>
<text text-anchor="start" x="341" y="-444.82" font-family="Helvetica,sans-Serif" font-size="10.00">detect_triple_b_combo</text>
<text text-anchor="middle" x="397" y="-433.82" font-family="Helvetica,sans-Serif" font-size="10.00">_b_pressed</text>
</a>
</g>
</g>
<!-- Node2&#45;&gt;Node5 -->
<g id="edge4_Node000002_Node000005" class="edge">
<title>Node2&#45;&gt;Node5</title>
<g id="a_edge4_Node000002_Node000005"><a xlink:title=" ">
<path fill="none" stroke="#63b8ff" d="M267.26,-424.07C284.25,-426.41 304.01,-429.14 322.89,-431.74"/>
<polygon fill="#63b8ff" stroke="#63b8ff" points="322.57,-435.23 332.95,-433.13 323.53,-428.29 322.57,-435.23"/>
</a>
</g>
</g>
<!-- Node6 -->
<g id="Node000006" class="node">
<title>Node6</title>
<g id="a_Node000006"><a xlink:href="player__controller_8c.html#a3236e6369c678a81362382d7101b14a2" target="_top" xlink:title=" ">
<polygon fill="white" stroke="#666666" points="461,-408.82 333,-408.82 333,-378.82 461,-378.82 461,-408.82"/>
<text text-anchor="start" x="341" y="-396.82" font-family="Helvetica,sans-Serif" font-size="10.00">detect_triple_b_combo</text>
<text text-anchor="middle" x="397" y="-385.82" font-family="Helvetica,sans-Serif" font-size="10.00">_b_released</text>
</a>
</g>
</g>
<!-- Node2&#45;&gt;Node6 -->
<g id="edge5_Node000002_Node000006" class="edge">
<title>Node2&#45;&gt;Node6</title>
<g id="a_edge5_Node000002_Node000006"><a xlink:title=" ">
<path fill="none" stroke="#63b8ff" d="M267.26,-411.58C284.25,-409.24 304.01,-406.51 322.89,-403.91"/>
<polygon fill="#63b8ff" stroke="#63b8ff" points="323.53,-407.35 332.95,-402.52 322.57,-400.42 323.53,-407.35"/>
</a>
</g>
</g>
<!-- Node7 -->
<g id="Node000007" class="node">
<title>Node7</title>
<g id="a_Node000007"><a xlink:href="player__controller_8c.html#af15169209879a48ae06ba698b386faa6" target="_top" xlink:title=" ">
<polygon fill="white" stroke="#666666" points="442.5,-284.32 351.5,-284.32 351.5,-265.32 442.5,-265.32 442.5,-284.32"/>
<text text-anchor="middle" x="397" y="-272.32" font-family="Helvetica,sans-Serif" font-size="10.00">func_800323E4</text>
</a>
</g>
</g>
<!-- Node2&#45;&gt;Node7 -->
<g id="edge6_Node000002_Node000007" class="edge">
<title>Node2&#45;&gt;Node7</title>
<g id="a_edge6_Node000002_Node000007"><a xlink:title=" ">
<path fill="none" stroke="#63b8ff" d="M227.88,-408.31C242.13,-386 280.79,-329.85 327,-298.82 333.3,-294.6 340.42,-291.03 347.64,-288.06"/>
<polygon fill="#63b8ff" stroke="#63b8ff" points="349.34,-291.15 357.47,-284.35 346.88,-284.6 349.34,-291.15"/>
</a>
</g>
</g>
<!-- Node8 -->
<g id="Node000008" class="node">
<title>Node8</title>
<g id="a_Node000008"><a xlink:href="player__controller_8c.html#a837984168448122c63bd34b924c4276f" target="_top" xlink:title=" ">
<polygon fill="white" stroke="#666666" points="666,-263.32 503,-263.32 503,-244.32 666,-244.32 666,-263.32"/>
<text text-anchor="middle" x="584.5" y="-251.32" font-family="Helvetica,sans-Serif" font-size="10.00">player_decelerate_alternative</text>
</a>
</g>
</g>
<!-- Node2&#45;&gt;Node8 -->
<g id="edge48_Node000002_Node000008" class="edge">
<title>Node2&#45;&gt;Node8</title>
<g id="a_edge48_Node000002_Node000008"><a xlink:title=" ">
<path fill="none" stroke="#63b8ff" d="M230.88,-408.3C247.86,-390.62 286.85,-352.67 327,-331.82 384.32,-302.06 407.5,-317.97 467,-292.82 484.06,-285.61 485.76,-278.59 503,-271.82 508.47,-269.68 514.25,-267.76 520.1,-266.05"/>
<polygon fill="#63b8ff" stroke="#63b8ff" points="521.24,-269.36 529.98,-263.36 519.41,-262.61 521.24,-269.36"/>
</a>
</g>
</g>
<!-- Node22 -->
<g id="Node000022" class="node">
<title>Node22</title>
<g id="a_Node000022"><a xlink:href="external_8c.html#a2be9efc97a92e19d02aaee90d676acc1" target="_top" xlink:title=" ">
<polygon fill="white" stroke="#666666" points="1419.5,-402.32 1327.5,-402.32 1327.5,-383.32 1419.5,-383.32 1419.5,-402.32"/>
<text text-anchor="middle" x="1373.5" y="-390.32" font-family="Helvetica,sans-Serif" font-size="10.00">func_800C9060</text>
</a>
</g>
</g>
<!-- Node2&#45;&gt;Node22 -->
<g id="edge40_Node000002_Node000022" class="edge">
<title>Node2&#45;&gt;Node22</title>
<g id="a_edge40_Node000002_Node000022"><a xlink:title=" ">
<path fill="none" stroke="#63b8ff" d="M223.24,-427.44C228.32,-462.63 251.07,-585.01 327,-636.82 421.42,-701.26 469.19,-655.82 583.5,-655.82 583.5,-655.82 583.5,-655.82 1065,-655.82 1215.41,-655.82 1329.33,-471.85 1362.58,-411.64"/>
<polygon fill="#63b8ff" stroke="#63b8ff" points="1365.85,-412.96 1367.53,-402.5 1359.69,-409.62 1365.85,-412.96"/>
</a>
</g>
</g>
<!-- Node31 -->
<g id="Node000031" class="node">
<title>Node31</title>
<g id="a_Node000031"><a xlink:href="player__controller_8c.html#ac7facd4c09724bfff6c77a8d8b94f0b1" target="_top" xlink:title=" ">
<polygon fill="white" stroke="#666666" points="443,-360.32 351,-360.32 351,-341.32 443,-341.32 443,-360.32"/>
<text text-anchor="middle" x="397" y="-348.32" font-family="Helvetica,sans-Serif" font-size="10.00">func_80033AE0</text>
</a>
</g>
</g>
<!-- Node2&#45;&gt;Node31 -->
<g id="edge31_Node000002_Node000031" class="edge">
<title>Node2&#45;&gt;Node31</title>
<g id="a_edge31_Node000002_Node000031"><a xlink:title=" ">
<path fill="none" stroke="#63b8ff" d="M240.59,-408.22C261.28,-397.8 295.92,-381.13 327,-369.82 333.43,-367.49 340.29,-365.27 347.1,-363.24"/>
<polygon fill="#63b8ff" stroke="#63b8ff" points="348.33,-366.53 356.97,-360.4 346.4,-359.8 348.33,-366.53"/>
</a>
</g>
</g>
<!-- Node39 -->
<g id="Node000039" class="node">
<title>Node39</title>
<g id="a_Node000039"><a xlink:href="player__controller_8c.html#a6a67f93f3c986133e336437f84ec4bce" target="_top" xlink:title=" ">
<polygon fill="white" stroke="#666666" points="454,-208.82 340,-208.82 340,-178.82 454,-178.82 454,-208.82"/>
<text text-anchor="start" x="348" y="-196.82" font-family="Helvetica,sans-Serif" font-size="10.00">get_clamped_stickY</text>
<text text-anchor="middle" x="397" y="-185.82" font-family="Helvetica,sans-Serif" font-size="10.00">_with_deadzone</text>
</a>
</g>
</g>
<!-- Node2&#45;&gt;Node39 -->
<g id="edge41_Node000002_Node000039" class="edge">
<title>Node2&#45;&gt;Node39</title>
<g id="a_edge41_Node000002_Node000039"><a xlink:title=" ">
<path fill="none" stroke="#63b8ff" d="M224.63,-408.27C233.64,-377.24 266.09,-278.15 327,-222.82 330.66,-219.5 334.75,-216.53 339.06,-213.88"/>
<polygon fill="#63b8ff" stroke="#63b8ff" points="341.1,-216.75 348.17,-208.86 337.72,-210.62 341.1,-216.75"/>
</a>
</g>
</g>
<!-- Node40 -->
<g id="Node000040" class="node">
<title>Node40</title>
<g id="a_Node000040"><a xlink:href="player__controller_8c.html#a18310e219722897138fbd737acb37331" target="_top" xlink:title=" ">
<polygon fill="white" stroke="#666666" points="426.5,-703.32 367.5,-703.32 367.5,-684.32 426.5,-684.32 426.5,-703.32"/>
<text text-anchor="middle" x="397" y="-691.32" font-family="Helvetica,sans-Serif" font-size="10.00">kart_hop</text>
</a>
</g>
</g>
<!-- Node2&#45;&gt;Node40 -->
<g id="edge42_Node000002_Node000040" class="edge">
<title>Node2&#45;&gt;Node40</title>
<g id="a_edge42_Node000002_Node000040"><a xlink:title=" ">
<path fill="none" stroke="#63b8ff" d="M223.18,-427.38C228.21,-464.22 251.26,-598.5 327,-669.82 335.41,-677.75 346.58,-683.07 357.47,-686.64"/>
<polygon fill="#63b8ff" stroke="#63b8ff" points="356.73,-690.07 367.31,-689.45 358.65,-683.34 356.73,-690.07"/>
</a>
</g>
</g>
<!-- Node42 -->
<g id="Node000042" class="node">
<title>Node42</title>
<g id="a_Node000042"><a xlink:href="player__controller_8c.html#a304f6cb24bff484f0338dd56d4b83987" target="_top" xlink:title=" ">
<polygon fill="white" stroke="#666666" points="665.5,-226.32 503.5,-226.32 503.5,-207.32 665.5,-207.32 665.5,-226.32"/>
<text text-anchor="middle" x="584.5" y="-214.32" font-family="Helvetica,sans-Serif" font-size="10.00">player_accelerate_alternative</text>
</a>
</g>
</g>
<!-- Node2&#45;&gt;Node42 -->
<g id="edge44_Node000002_Node000042" class="edge">
<title>Node2&#45;&gt;Node42</title>
<g id="a_edge44_Node000002_Node000042"><a xlink:title=" ">
<path fill="none" stroke="#63b8ff" d="M225.09,-408.12C234.78,-379.36 267.59,-294.18 327,-255.82 353.97,-238.41 430.45,-228.3 492.93,-222.75"/>
<polygon fill="#63b8ff" stroke="#63b8ff" points="493.56,-226.21 503.23,-221.87 492.96,-219.24 493.56,-226.21"/>
</a>
</g>
</g>
<!-- Node43 -->
<g id="Node000043" class="node">
<title>Node43</title>
<g id="a_Node000043"><a xlink:href="player__controller_8c.html#a6b1e8ffb2bbabc2a10c924e272d82330" target="_top" xlink:title=" ">
<polygon fill="white" stroke="#666666" points="466.5,-627.32 327.5,-627.32 327.5,-608.32 466.5,-608.32 466.5,-627.32"/>
<text text-anchor="middle" x="397" y="-615.32" font-family="Helvetica,sans-Serif" font-size="10.00">player_accelerate_global</text>
</a>
</g>
</g>
<!-- Node2&#45;&gt;Node43 -->
<g id="edge47_Node000002_Node000043" class="edge">
<title>Node2&#45;&gt;Node43</title>
<g id="a_edge47_Node000002_Node000043"><a xlink:title=" ">
<path fill="none" stroke="#63b8ff" d="M224.66,-427.52C233.55,-458.01 265.21,-552.72 327,-599.82 328.8,-601.2 330.69,-602.46 332.66,-603.64"/>
<polygon fill="#63b8ff" stroke="#63b8ff" points="331.17,-606.8 341.68,-608.18 334.32,-600.55 331.17,-606.8"/>
</a>
</g>
</g>
<!-- Node44 -->
<g id="Node000044" class="node">
<title>Node44</title>
<g id="a_Node000044"><a xlink:href="player__controller_8c.html#a3824d2f4f3d74c54bfbc56438b1485fe" target="_top" xlink:title=" ">
<polygon fill="white" stroke="#666666" points="467,-590.32 327,-590.32 327,-571.32 467,-571.32 467,-590.32"/>
<text text-anchor="middle" x="397" y="-578.32" font-family="Helvetica,sans-Serif" font-size="10.00">player_decelerate_global</text>
</a>
</g>
</g>
<!-- Node2&#45;&gt;Node44 -->
<g id="edge49_Node000002_Node000044" class="edge">
<title>Node2&#45;&gt;Node44</title>
<g id="a_edge49_Node000002_Node000044"><a xlink:title=" ">
<path fill="none" stroke="#63b8ff" d="M226.28,-427.63C238.18,-453.73 274.31,-525.41 327,-561.82 329.9,-563.83 333,-565.62 336.23,-567.22"/>
<polygon fill="#63b8ff" stroke="#63b8ff" points="335.02,-570.51 345.58,-571.26 337.79,-564.09 335.02,-570.51"/>
</a>
</g>
</g>
<!-- Node7&#45;&gt;Node8 -->
<g id="edge7_Node000007_Node000008" class="edge">
<title>Node7&#45;&gt;Node8</title>
<g id="a_edge7_Node000007_Node000008"><a xlink:title=" ">
<path fill="none" stroke="#63b8ff" d="M442.9,-269.74C457.96,-268.04 475.34,-266.07 492.63,-264.11"/>
<polygon fill="#63b8ff" stroke="#63b8ff" points="493.23,-267.57 502.78,-262.96 492.45,-260.61 493.23,-267.57"/>
</a>
</g>
</g>
<!-- Node9 -->
<g id="Node000009" class="node">
<title>Node9</title>
<g id="a_Node000009"><a xlink:href="effects_8c.html#a772ef3ecce48b6fada93334a880392b1" target="_top" xlink:title=" ">
<polygon fill="white" stroke="#666666" points="807,-244.32 716,-244.32 716,-225.32 807,-225.32 807,-244.32"/>
<text text-anchor="middle" x="761.5" y="-232.32" font-family="Helvetica,sans-Serif" font-size="10.00">func_8008F104</text>
</a>
</g>
</g>
<!-- Node8&#45;&gt;Node9 -->
<g id="edge8_Node000008_Node000009" class="edge">
<title>Node8&#45;&gt;Node9</title>
<g id="a_edge8_Node000008_Node000009"><a xlink:title=" ">
<path fill="none" stroke="#63b8ff" d="M666.09,-245.08C679.4,-243.63 692.93,-242.16 705.43,-240.8"/>
<polygon fill="#63b8ff" stroke="#63b8ff" points="706.1,-244.25 715.66,-239.69 705.35,-237.29 706.1,-244.25"/>
</a>
</g>
</g>
<!-- Node30 -->
<g id="Node000030" class="node">
<title>Node30</title>
<g id="a_Node000030"><a xlink:href="player__controller_8c.html#aafeb0470c7da44e1440ffa4848f7d500" target="_top" xlink:title=" ">
<polygon fill="white" stroke="#666666" points="821,-205.82 702,-205.82 702,-175.82 821,-175.82 821,-205.82"/>
<text text-anchor="start" x="710" y="-193.82" font-family="Helvetica,sans-Serif" font-size="10.00">get_player_index_for</text>
<text text-anchor="middle" x="761.5" y="-182.82" font-family="Helvetica,sans-Serif" font-size="10.00">_player</text>
</a>
</g>
</g>
<!-- Node8&#45;&gt;Node30 -->
<g id="edge30_Node000008_Node000030" class="edge">
<title>Node8&#45;&gt;Node30</title>
<g id="a_edge30_Node000008_Node000030"><a xlink:title=" ">
<path fill="none" stroke="#63b8ff" d="M635.05,-244.22C645.42,-241.63 656.18,-238.5 666,-234.82 682.94,-228.47 685.67,-223.61 702,-215.82 706.09,-213.87 710.38,-211.91 714.69,-209.98"/>
<polygon fill="#63b8ff" stroke="#63b8ff" points="716.35,-213.07 724.09,-205.84 713.53,-206.66 716.35,-213.07"/>
</a>
</g>
</g>
<!-- Node10 -->
<g id="Node000010" class="node">
<title>Node10</title>
<g id="a_Node000010"><a xlink:href="effects_8c.html#a6559cc02e5bb1a4e7fe6c97850cdd87e" target="_top" xlink:title=" ">
<polygon fill="white" stroke="#666666" points="941,-270.32 865,-270.32 865,-251.32 941,-251.32 941,-270.32"/>
<text text-anchor="middle" x="903" y="-258.32" font-family="Helvetica,sans-Serif" font-size="10.00">clean_effect</text>
</a>
</g>
</g>
<!-- Node9&#45;&gt;Node10 -->
<g id="edge9_Node000009_Node000010" class="edge">
<title>Node9&#45;&gt;Node10</title>
<g id="a_edge9_Node000009_Node000010"><a xlink:title=" ">
<path fill="none" stroke="#63b8ff" d="M807.02,-243.12C822.33,-245.98 839.51,-249.18 855,-252.07"/>
<polygon fill="#63b8ff" stroke="#63b8ff" points="854.44,-255.52 864.91,-253.91 855.72,-248.64 854.44,-255.52"/>
</a>
</g>
</g>
<!-- Node29 -->
<g id="Node000029" class="node">
<title>Node29</title>
<g id="a_Node000029"><a xlink:href="external_8c.html#a337fc3ab94ebb3293a85908229303ac8" target="_top" xlink:title=" ">
<polygon fill="white" stroke="#666666" points="949,-146.32 857,-146.32 857,-127.32 949,-127.32 949,-146.32"/>
<text text-anchor="middle" x="903" y="-134.32" font-family="Helvetica,sans-Serif" font-size="10.00">func_800C90F4</text>
</a>
</g>
</g>
<!-- Node9&#45;&gt;Node29 -->
<g id="edge28_Node000009_Node000029" class="edge">
<title>Node9&#45;&gt;Node29</title>
<g id="a_edge28_Node000009_Node000029"><a xlink:title=" ">
<path fill="none" stroke="#63b8ff" d="M798.57,-225.26C806.26,-222.47 814.13,-219.02 821,-214.82 847.92,-198.39 873.13,-171.63 888.06,-154.13"/>
<polygon fill="#63b8ff" stroke="#63b8ff" points="890.81,-156.29 894.52,-146.36 885.43,-151.81 890.81,-156.29"/>
</a>
</g>
</g>
<!-- Node11 -->
<g id="Node000011" class="node">
<title>Node11</title>
<g id="a_Node000011"><a xlink:href="effects_8c.html#a7fef1af5ca366a9346478d94239c6142" target="_top" xlink:title=" ">
<polygon fill="white" stroke="#666666" points="1110.5,-381.32 1017.5,-381.32 1017.5,-362.32 1110.5,-362.32 1110.5,-381.32"/>
<text text-anchor="middle" x="1064" y="-369.32" font-family="Helvetica,sans-Serif" font-size="10.00">func_8008C6D0</text>
</a>
</g>
</g>
<!-- Node10&#45;&gt;Node11 -->
<g id="edge10_Node000010_Node000011" class="edge">
<title>Node10&#45;&gt;Node11</title>
<g id="a_edge10_Node000010_Node000011"><a xlink:title=" ">
<path fill="none" stroke="#63b8ff" d="M909.56,-270.35C921.08,-289.21 949.49,-331.35 985,-352.82 991.95,-357.03 999.78,-360.3 1007.73,-362.85"/>
<polygon fill="#63b8ff" stroke="#63b8ff" points="1006.86,-366.25 1017.44,-365.62 1008.78,-359.51 1006.86,-366.25"/>
</a>
</g>
</g>
<!-- Node12 -->
<g id="Node000012" class="node">
<title>Node12</title>
<g id="a_Node000012"><a xlink:href="effects_8c.html#a105203221e314be241a95e006b62ef80" target="_top" xlink:title=" ">
<polygon fill="white" stroke="#666666" points="1110,-344.32 1018,-344.32 1018,-325.32 1110,-325.32 1110,-344.32"/>
<text text-anchor="middle" x="1064" y="-332.32" font-family="Helvetica,sans-Serif" font-size="10.00">func_8008C8C4</text>
</a>
</g>
</g>
<!-- Node10&#45;&gt;Node12 -->
<g id="edge11_Node000010_Node000012" class="edge">
<title>Node10&#45;&gt;Node12</title>
<g id="a_edge11_Node000010_Node000012"><a xlink:title=" ">
<path fill="none" stroke="#63b8ff" d="M915.29,-270.45C930.26,-282.73 957.97,-303.83 985,-315.82 992.34,-319.08 1000.32,-321.83 1008.29,-324.14"/>
<polygon fill="#63b8ff" stroke="#63b8ff" points="1007.38,-327.53 1017.95,-326.75 1009.21,-320.77 1007.38,-327.53"/>
</a>
</g>
</g>
<!-- Node13 -->
<g id="Node000013" class="node">
<title>Node13</title>
<g id="a_Node000013"><a xlink:href="effects_8c.html#a79f63da92dad1b64803f6849f71e4eee" target="_top" xlink:title=" ">
<polygon fill="white" stroke="#666666" points="1110,-307.32 1018,-307.32 1018,-288.32 1110,-288.32 1110,-307.32"/>
<text text-anchor="middle" x="1064" y="-295.32" font-family="Helvetica,sans-Serif" font-size="10.00">func_8008D0E4</text>
</a>
</g>
</g>
<!-- Node10&#45;&gt;Node13 -->
<g id="edge12_Node000010_Node000013" class="edge">
<title>Node10&#45;&gt;Node13</title>
<g id="a_edge12_Node000010_Node000013"><a xlink:title=" ">
<path fill="none" stroke="#63b8ff" d="M941.28,-269.5C962.39,-274.41 989.09,-280.63 1012.1,-285.98"/>
<polygon fill="#63b8ff" stroke="#63b8ff" points="1011.51,-289.44 1022.05,-288.29 1013.1,-282.62 1011.51,-289.44"/>
</a>
</g>
</g>
<!-- Node14 -->
<g id="Node000014" class="node">
<title>Node14</title>
<g id="a_Node000014"><a xlink:href="effects_8c.html#a66120f679d001e0da8c5e769b6582aeb" target="_top" xlink:title=" ">
<polygon fill="white" stroke="#666666" points="1110.5,-270.32 1017.5,-270.32 1017.5,-251.32 1110.5,-251.32 1110.5,-270.32"/>
<text text-anchor="middle" x="1064" y="-258.32" font-family="Helvetica,sans-Serif" font-size="10.00">func_8008D3B0</text>
</a>
</g>
</g>
<!-- Node10&#45;&gt;Node14 -->
<g id="edge13_Node000010_Node000014" class="edge">
<title>Node10&#45;&gt;Node14</title>
<g id="a_edge13_Node000010_Node000014"><a xlink:title=" ">
<path fill="none" stroke="#63b8ff" d="M941.28,-260.82C960.93,-260.82 985.43,-260.82 1007.29,-260.82"/>
<polygon fill="#63b8ff" stroke="#63b8ff" points="1007.44,-264.32 1017.44,-260.82 1007.44,-257.32 1007.44,-264.32"/>
</a>
</g>
</g>
<!-- Node15 -->
<g id="Node000015" class="node">
<title>Node15</title>
<g id="a_Node000015"><a xlink:href="effects_8c.html#a5f19eaaa048055d292d02c717e635786" target="_top" xlink:title=" ">
<polygon fill="white" stroke="#666666" points="1110,-233.32 1018,-233.32 1018,-214.32 1110,-214.32 1110,-233.32"/>
<text text-anchor="middle" x="1064" y="-221.32" font-family="Helvetica,sans-Serif" font-size="10.00">func_8008D760</text>
</a>
</g>
</g>
<!-- Node10&#45;&gt;Node15 -->
<g id="edge14_Node000010_Node000015" class="edge">
<title>Node10&#45;&gt;Node15</title>
<g id="a_edge14_Node000010_Node000015"><a xlink:title=" ">
<path fill="none" stroke="#63b8ff" d="M941.09,-252.09C954.88,-248.86 970.65,-245.16 985,-241.82 993.65,-239.81 1002.85,-237.68 1011.78,-235.62"/>
<polygon fill="#63b8ff" stroke="#63b8ff" points="1012.75,-238.99 1021.7,-233.33 1011.17,-232.17 1012.75,-238.99"/>
</a>
</g>
</g>
<!-- Node16 -->
<g id="Node000016" class="node">
<title>Node16</title>
<g id="a_Node000016"><a xlink:href="effects_8c.html#a4ea2da0616ee3c475e4be217dc0bc71f" target="_top" xlink:title=" ">
<polygon fill="white" stroke="#666666" points="1110.5,-196.32 1017.5,-196.32 1017.5,-177.32 1110.5,-177.32 1110.5,-196.32"/>
<text text-anchor="middle" x="1064" y="-184.32" font-family="Helvetica,sans-Serif" font-size="10.00">func_8008D97C</text>
</a>
</g>
</g>
<!-- Node10&#45;&gt;Node16 -->
<g id="edge15_Node000010_Node000016" class="edge">
<title>Node10&#45;&gt;Node16</title>
<g id="a_edge15_Node000010_Node000016"><a xlink:title=" ">
<path fill="none" stroke="#63b8ff" d="M914.98,-251.18C929.83,-238.64 957.63,-216.91 985,-204.82 992.06,-201.71 999.73,-199.09 1007.41,-196.91"/>
<polygon fill="#63b8ff" stroke="#63b8ff" points="1008.31,-200.3 1017.1,-194.38 1006.54,-193.52 1008.31,-200.3"/>
</a>
</g>
</g>
<!-- Node17 -->
<g id="Node000017" class="node">
<title>Node17</title>
<g id="a_Node000017"><a xlink:href="effects_8c.html#a13005f7c39388deade6ba0491d7c5918" target="_top" xlink:title=" ">
<polygon fill="white" stroke="#666666" points="1109.5,-159.32 1018.5,-159.32 1018.5,-140.32 1109.5,-140.32 1109.5,-159.32"/>
<text text-anchor="middle" x="1064" y="-147.32" font-family="Helvetica,sans-Serif" font-size="10.00">func_8008E884</text>
</a>
</g>
</g>
<!-- Node10&#45;&gt;Node17 -->
<g id="edge16_Node000010_Node000017" class="edge">
<title>Node10&#45;&gt;Node17</title>
<g id="a_edge16_Node000010_Node000017"><a xlink:title=" ">
<path fill="none" stroke="#63b8ff" d="M909.51,-251.16C920.94,-232.02 949.2,-189.31 985,-167.82 992.19,-163.51 1000.33,-160.22 1008.57,-157.73"/>
<polygon fill="#63b8ff" stroke="#63b8ff" points="1009.48,-161.11 1018.24,-155.15 1007.67,-154.35 1009.48,-161.11"/>
</a>
</g>
</g>
<!-- Node18 -->
<g id="Node000018" class="node">
<title>Node18</title>
<g id="a_Node000018"><a xlink:href="effects_8c.html#ae02351b6bbb678b552ec8864b47fc56c" target="_top" xlink:title=" ">
<polygon fill="white" stroke="#666666" points="1109.5,-122.32 1018.5,-122.32 1018.5,-103.32 1109.5,-103.32 1109.5,-122.32"/>
<text text-anchor="middle" x="1064" y="-110.32" font-family="Helvetica,sans-Serif" font-size="10.00">func_8008F3E0</text>
</a>
</g>
</g>
<!-- Node10&#45;&gt;Node18 -->
<g id="edge17_Node000010_Node000018" class="edge">
<title>Node10&#45;&gt;Node18</title>
<g id="a_edge17_Node000010_Node000018"><a xlink:title=" ">
<path fill="none" stroke="#63b8ff" d="M907.08,-251.17C915.38,-226.81 940.64,-162.51 985,-130.82 991.99,-125.83 1000.15,-122.2 1008.51,-119.56"/>
<polygon fill="#63b8ff" stroke="#63b8ff" points="1009.62,-122.89 1018.36,-116.91 1007.79,-116.13 1009.62,-122.89"/>
</a>
</g>
</g>
<!-- Node19 -->
<g id="Node000019" class="node">
<title>Node19</title>
<g id="a_Node000019"><a xlink:href="effects_8c.html#ab5125d5944958f891647b27b440d3d62" target="_top" xlink:title=" ">
<polygon fill="white" stroke="#666666" points="1110,-48.32 1018,-48.32 1018,-29.32 1110,-29.32 1110,-48.32"/>
<text text-anchor="middle" x="1064" y="-36.32" font-family="Helvetica,sans-Serif" font-size="10.00">func_8008F5A4</text>
</a>
</g>
</g>
<!-- Node10&#45;&gt;Node19 -->
<g id="edge18_Node000010_Node000019" class="edge">
<title>Node10&#45;&gt;Node19</title>
<g id="a_edge18_Node000010_Node000019"><a xlink:title=" ">
<path fill="none" stroke="#63b8ff" d="M908.26,-251.24C916.44,-232.73 934.8,-190.7 949,-154.82 966.07,-111.68 950.2,-87.52 985,-56.82 991.52,-51.08 999.5,-47.06 1007.86,-44.28"/>
<polygon fill="#63b8ff" stroke="#63b8ff" points="1009.05,-47.58 1017.76,-41.54 1007.19,-40.83 1009.05,-47.58"/>
</a>
</g>
</g>
<!-- Node24 -->
<g id="Node000024" class="node">
<title>Node24</title>
<g id="a_Node000024"><a xlink:href="effects_8c.html#a2f183005a5e85816dd81508847c1904d" target="_top" xlink:title=" ">
<polygon fill="white" stroke="#666666" points="1110.5,-85.32 1017.5,-85.32 1017.5,-66.32 1110.5,-66.32 1110.5,-85.32"/>
<text text-anchor="middle" x="1064" y="-73.32" font-family="Helvetica,sans-Serif" font-size="10.00">func_8008FEDC</text>
</a>
</g>
</g>
<!-- Node10&#45;&gt;Node24 -->
<g id="edge23_Node000010_Node000024" class="edge">
<title>Node10&#45;&gt;Node24</title>
<g id="a_edge23_Node000010_Node000024"><a xlink:title=" ">
<path fill="none" stroke="#63b8ff" d="M908.12,-251.14C922.63,-217.14 971.33,-104.72 985,-93.82 991.64,-88.53 999.55,-84.74 1007.75,-82.04"/>
<polygon fill="#63b8ff" stroke="#63b8ff" points="1008.76,-85.39 1017.45,-79.33 1006.88,-78.65 1008.76,-85.39"/>
</a>
</g>
</g>
<!-- Node25 -->
<g id="Node000025" class="node">
<title>Node25</title>
<g id="a_Node000025"><a xlink:href="effects_8c.html#a4768d56263e476d3bac47ee01bac3dc8" target="_top" xlink:title=" ">
<polygon fill="white" stroke="#666666" points="1143,-562.82 985,-562.82 985,-532.82 1143,-532.82 1143,-562.82"/>
<text text-anchor="start" x="993" y="-550.82" font-family="Helvetica,sans-Serif" font-size="10.00">remove_boost_ramp_asphalt</text>
<text text-anchor="middle" x="1064" y="-539.82" font-family="Helvetica,sans-Serif" font-size="10.00">_effect</text>
</a>
</g>
</g>
<!-- Node10&#45;&gt;Node25 -->
<g id="edge24_Node000010_Node000025" class="edge">
<title>Node10&#45;&gt;Node25</title>
<g id="a_edge24_Node000010_Node000025"><a xlink:title=" ">
<path fill="none" stroke="#63b8ff" d="M903.95,-270.56C904.27,-308.69 910.67,-449.51 985,-523.82 985.96,-524.78 986.95,-525.7 987.98,-526.59"/>
<polygon fill="#63b8ff" stroke="#63b8ff" points="986.28,-529.68 996.45,-532.67 990.37,-523.99 986.28,-529.68"/>
</a>
</g>
</g>
<!-- Node26 -->
<g id="Node000026" class="node">
<title>Node26</title>
<g id="a_Node000026"><a xlink:href="effects_8c.html#aafe14c45e9b91bb1d409ef2f2bfe5c53" target="_top" xlink:title=" ">
<polygon fill="white" stroke="#666666" points="1138.5,-514.82 989.5,-514.82 989.5,-484.82 1138.5,-484.82 1138.5,-514.82"/>
<text text-anchor="start" x="997.5" y="-502.82" font-family="Helvetica,sans-Serif" font-size="10.00">remove_boost_ramp_wood</text>
<text text-anchor="middle" x="1064" y="-491.82" font-family="Helvetica,sans-Serif" font-size="10.00">_effect</text>
</a>
</g>
</g>
<!-- Node10&#45;&gt;Node26 -->
<g id="edge25_Node000010_Node000026" class="edge">
<title>Node10&#45;&gt;Node26</title>
<g id="a_edge25_Node000010_Node000026"><a xlink:title=" ">
<path fill="none" stroke="#63b8ff" d="M904.72,-270.61C907.72,-304.32 922.22,-416.81 985,-475.82 986.13,-476.89 987.3,-477.9 988.52,-478.87"/>
<polygon fill="#63b8ff" stroke="#63b8ff" points="986.81,-481.94 997.05,-484.64 990.73,-476.14 986.81,-481.94"/>
</a>
</g>
</g>
<!-- Node27 -->
<g id="Node000027" class="node">
<title>Node27</title>
<g id="a_Node000027"><a xlink:href="effects_8c.html#a5f1aead641683fd07375d6737dfafac2" target="_top" xlink:title=" ">
<polygon fill="white" stroke="#666666" points="1120.5,-466.82 1007.5,-466.82 1007.5,-436.82 1120.5,-436.82 1120.5,-466.82"/>
<text text-anchor="start" x="1015.5" y="-454.82" font-family="Helvetica,sans-Serif" font-size="10.00">remove_hit_by_star</text>
<text text-anchor="middle" x="1064" y="-443.82" font-family="Helvetica,sans-Serif" font-size="10.00">_effect</text>
</a>
</g>
</g>
<!-- Node10&#45;&gt;Node27 -->
<g id="edge26_Node000010_Node000027" class="edge">
<title>Node10&#45;&gt;Node27</title>
<g id="a_edge26_Node000010_Node000027"><a xlink:title=" ">
<path fill="none" stroke="#63b8ff" d="M905.84,-270.39C911.83,-298.82 933.39,-383.56 985,-427.82 988.93,-431.2 993.33,-434.1 997.99,-436.59"/>
<polygon fill="#63b8ff" stroke="#63b8ff" points="996.65,-439.83 1007.19,-440.89 999.62,-433.49 996.65,-439.83"/>
</a>
</g>
</g>
<!-- Node28 -->
<g id="Node000028" class="node">
<title>Node28</title>
<g id="a_Node000028"><a xlink:href="effects_8c.html#a9be2cc0ebbe72a9d5276a4fd2675eef3" target="_top" xlink:title=" ">
<polygon fill="white" stroke="#666666" points="1136.5,-418.32 991.5,-418.32 991.5,-399.32 1136.5,-399.32 1136.5,-418.32"/>
<text text-anchor="middle" x="1064" y="-406.32" font-family="Helvetica,sans-Serif" font-size="10.00">remove_mushroom_effect</text>
</a>
</g>
</g>
<!-- Node10&#45;&gt;Node28 -->
<g id="edge27_Node000010_Node000028" class="edge">
<title>Node10&#45;&gt;Node28</title>
<g id="a_edge27_Node000010_Node000028"><a xlink:title=" ">
<path fill="none" stroke="#63b8ff" d="M907.08,-270.47C915.38,-294.84 940.64,-359.14 985,-390.82 987.08,-392.31 989.26,-393.67 991.52,-394.93"/>
<polygon fill="#63b8ff" stroke="#63b8ff" points="990.03,-398.09 1000.57,-399.23 993.04,-391.77 990.03,-398.09"/>
</a>
</g>
</g>
<!-- Node20 -->
<g id="Node000020" class="node">
<title>Node20</title>
<g id="a_Node000020"><a xlink:href="code__80057C60_8c.html#ae28b6eb556910087cea23f0cb7a322bd" target="_top" xlink:title=" ">
<polygon fill="white" stroke="#666666" points="1291,-204.32 1179,-204.32 1179,-185.32 1291,-185.32 1291,-204.32"/>
<text text-anchor="middle" x="1235" y="-192.32" font-family="Helvetica,sans-Serif" font-size="10.00">pop_player_balloon</text>
</a>
</g>
</g>
<!-- Node19&#45;&gt;Node20 -->
<g id="edge19_Node000019_Node000020" class="edge">
<title>Node19&#45;&gt;Node20</title>
<g id="a_edge19_Node000019_Node000020"><a xlink:title=" ">
<path fill="none" stroke="#63b8ff" d="M1110.33,-43.26C1121.72,-45.93 1133.41,-50.16 1143,-56.82 1186.64,-87.15 1214.76,-145.8 1226.98,-175.94"/>
<polygon fill="#63b8ff" stroke="#63b8ff" points="1223.74,-177.27 1230.64,-185.32 1230.26,-174.73 1223.74,-177.27"/>
</a>
</g>
</g>
<!-- Node21 -->
<g id="Node000021" class="node">
<title>Node21</title>
<g id="a_Node000021"><a xlink:href="effects_8c.html#a1c7552c4a370cc015c2726e40f1fdb06" target="_top" xlink:title=" ">
<polygon fill="white" stroke="#666666" points="1420,-204.32 1327,-204.32 1327,-185.32 1420,-185.32 1420,-204.32"/>
<text text-anchor="middle" x="1373.5" y="-192.32" font-family="Helvetica,sans-Serif" font-size="10.00">func_8008FD4C</text>
</a>
</g>
</g>
<!-- Node20&#45;&gt;Node21 -->
<g id="edge20_Node000020_Node000021" class="edge">
<title>Node20&#45;&gt;Node21</title>
<g id="a_edge20_Node000020_Node000021"><a xlink:title=" ">
<path fill="none" stroke="#63b8ff" d="M1291.13,-194.82C1299.54,-194.82 1308.24,-194.82 1316.67,-194.82"/>
<polygon fill="#63b8ff" stroke="#63b8ff" points="1316.79,-198.32 1326.79,-194.82 1316.79,-191.32 1316.79,-198.32"/>
</a>
</g>
</g>
<!-- Node20&#45;&gt;Node22 -->
<g id="edge21_Node000020_Node000022" class="edge">
<title>Node20&#45;&gt;Node22</title>
<g id="a_edge21_Node000020_Node000022"><a xlink:title=" ">
<path fill="none" stroke="#63b8ff" d="M1242.58,-204.37C1263.97,-235.4 1331.75,-333.71 1359.97,-374.65"/>
<polygon fill="#63b8ff" stroke="#63b8ff" points="1357.1,-376.66 1365.66,-382.9 1362.87,-372.68 1357.1,-376.66"/>
</a>
</g>
</g>
<!-- Node23 -->
<g id="Node000023" class="node">
<title>Node23</title>
<g id="a_Node000023"><a xlink:href="external_8c.html#a475cff796211891556f52877cd8e9b9e" target="_top" xlink:title=" ">
<polygon fill="white" stroke="#666666" points="1528,-305.32 1456,-305.32 1456,-286.32 1528,-286.32 1528,-305.32"/>
<text text-anchor="middle" x="1492" y="-293.32" font-family="Helvetica,sans-Serif" font-size="10.00">play_sound</text>
</a>
</g>
</g>
<!-- Node22&#45;&gt;Node23 -->
<g id="edge22_Node000022_Node000023" class="edge">
<title>Node22&#45;&gt;Node23</title>
<g id="a_edge22_Node000022_Node000023"><a xlink:title=" ">
<path fill="none" stroke="#63b8ff" d="M1386.1,-383.17C1406.07,-366.54 1447.17,-332.32 1471.58,-312"/>
<polygon fill="#63b8ff" stroke="#63b8ff" points="1474.01,-314.53 1479.45,-305.44 1469.53,-309.15 1474.01,-314.53"/>
</a>
</g>
</g>
<!-- Node29&#45;&gt;Node23 -->
<g id="edge29_Node000029_Node000023" class="edge">
<title>Node29&#45;&gt;Node23</title>
<g id="a_edge29_Node000029_Node000023"><a xlink:title=" ">
<path fill="none" stroke="#63b8ff" d="M907.14,-127.2C915.43,-103.62 940.36,-43.22 985,-19.82 1047.2,12.77 1075.07,-2.01 1143,-19.82 1279.67,-55.66 1319.03,-76.99 1420,-175.82 1450.56,-205.74 1472.75,-251.51 1483.57,-277.01"/>
<polygon fill="#63b8ff" stroke="#63b8ff" points="1480.35,-278.38 1487.39,-286.3 1486.83,-275.72 1480.35,-278.38"/>
</a>
</g>
</g>
<!-- Node32 -->
<g id="Node000032" class="node">
<title>Node32</title>
<g id="a_Node000032"><a xlink:href="player__controller_8c.html#afe8141a7397494b8c950c57e038e26f1" target="_top" xlink:title=" ">
<polygon fill="white" stroke="#666666" points="1281,-498.32 1189,-498.32 1189,-479.32 1281,-479.32 1281,-498.32"/>
<text text-anchor="middle" x="1235" y="-486.32" font-family="Helvetica,sans-Serif" font-size="10.00">func_8002A8A4</text>
</a>
</g>
</g>
<!-- Node31&#45;&gt;Node32 -->
<g id="edge32_Node000031_Node000032" class="edge">
<title>Node31&#45;&gt;Node32</title>
<g id="a_edge32_Node000031_Node000032"><a xlink:title=" ">
<path fill="none" stroke="#63b8ff" d="M443.17,-356.62C451.87,-359.47 460.34,-363.66 467,-369.82 501.66,-401.92 471.2,-434.9 503,-469.82 588.13,-563.33 634.05,-590.82 760.5,-590.82 760.5,-590.82 760.5,-590.82 904,-590.82 1010.56,-590.82 1045.25,-614.24 1143,-571.82 1175.98,-557.51 1204.89,-526.2 1220.85,-506.39"/>
<polygon fill="#63b8ff" stroke="#63b8ff" points="1223.66,-508.48 1227.06,-498.45 1218.14,-504.17 1223.66,-508.48"/>
</a>
</g>
</g>
<!-- Node33 -->
<g id="Node000033" class="node">
<title>Node33</title>
<g id="a_Node000033"><a xlink:href="player__controller_8c.html#a2cb737102daaec9628aa4e567e01d7b0" target="_top" xlink:title=" ">
<polygon fill="white" stroke="#666666" points="631,-300.32 538,-300.32 538,-281.32 631,-281.32 631,-300.32"/>
<text text-anchor="middle" x="584.5" y="-288.32" font-family="Helvetica,sans-Serif" font-size="10.00">func_8002BD58</text>
</a>
</g>
</g>
<!-- Node31&#45;&gt;Node33 -->
<g id="edge34_Node000031_Node000033" class="edge">
<title>Node31&#45;&gt;Node33</title>
<g id="a_edge34_Node000031_Node000033"><a xlink:title=" ">
<path fill="none" stroke="#63b8ff" d="M428.21,-341.26C440.39,-337.16 454.5,-332.1 467,-326.82 483.48,-319.87 486.15,-314.82 503,-308.82 510.95,-306 519.51,-303.51 527.97,-301.37"/>
<polygon fill="#63b8ff" stroke="#63b8ff" points="528.91,-304.75 537.82,-299.01 527.28,-297.94 528.91,-304.75"/>
</a>
</g>
</g>
<!-- Node34 -->
<g id="Node000034" class="node">
<title>Node34</title>
<g id="a_Node000034"><a xlink:href="player__controller_8c.html#a1a5b5e02df20372c912e838a46bab65f" target="_top" xlink:title=" ">
<polygon fill="white" stroke="#666666" points="630.5,-423.32 538.5,-423.32 538.5,-404.32 630.5,-404.32 630.5,-423.32"/>
<text text-anchor="middle" x="584.5" y="-411.32" font-family="Helvetica,sans-Serif" font-size="10.00">func_80036CB4</text>
</a>
</g>
</g>
<!-- Node31&#45;&gt;Node34 -->
<g id="edge35_Node000031_Node000034" class="edge">
<title>Node31&#45;&gt;Node34</title>
<g id="a_edge35_Node000031_Node000034"><a xlink:title=" ">
<path fill="none" stroke="#63b8ff" d="M441.5,-360.39C450.15,-362.96 459.01,-366.08 467,-369.82 484.64,-378.08 485.21,-386.89 503,-394.82 511,-398.39 519.77,-401.34 528.47,-403.76"/>
<polygon fill="#63b8ff" stroke="#63b8ff" points="527.68,-407.17 538.23,-406.27 529.42,-400.39 527.68,-407.17"/>
</a>
</g>
</g>
<!-- Node35 -->
<g id="Node000035" class="node">
<title>Node35</title>
<g id="a_Node000035"><a xlink:href="player__controller_8c.html#ada494586b678fcc1eba3ea17ef52a200" target="_top" xlink:title=" ">
<polygon fill="white" stroke="#666666" points="642,-385.82 527,-385.82 527,-355.82 642,-355.82 642,-385.82"/>
<text text-anchor="start" x="535" y="-373.82" font-family="Helvetica,sans-Serif" font-size="10.00">get_clamped_stickX</text>
<text text-anchor="middle" x="584.5" y="-362.82" font-family="Helvetica,sans-Serif" font-size="10.00">_with_deadzone</text>
</a>
</g>
</g>
<!-- Node31&#45;&gt;Node35 -->
<g id="edge36_Node000031_Node000035" class="edge">
<title>Node31&#45;&gt;Node35</title>
<g id="a_edge36_Node000031_Node000035"><a xlink:title=" ">
<path fill="none" stroke="#63b8ff" d="M443.38,-355.72C465.43,-358.1 492.37,-361 516.72,-363.62"/>
<polygon fill="#63b8ff" stroke="#63b8ff" points="516.65,-367.14 526.97,-364.73 517.4,-360.18 516.65,-367.14"/>
</a>
</g>
</g>
<!-- Node36 -->
<g id="Node000036" class="node">
<title>Node36</title>
<g id="a_Node000036"><a xlink:href="player__controller_8c.html#a6fc0a8350ee33970fa4979a23f0b3e7f" target="_top" xlink:title=" ">
<polygon fill="white" stroke="#666666" points="647,-337.32 522,-337.32 522,-318.32 647,-318.32 647,-337.32"/>
<text text-anchor="middle" x="584.5" y="-325.32" font-family="Helvetica,sans-Serif" font-size="10.00">update_steering_large</text>
</a>
</g>
</g>
<!-- Node31&#45;&gt;Node36 -->
<g id="edge37_Node000031_Node000036" class="edge">
<title>Node31&#45;&gt;Node36</title>
<g id="a_edge37_Node000031_Node000036"><a xlink:title=" ">
<path fill="none" stroke="#63b8ff" d="M443.38,-345.2C463.93,-342.65 488.73,-339.57 511.72,-336.72"/>
<polygon fill="#63b8ff" stroke="#63b8ff" points="512.29,-340.18 521.78,-335.48 511.43,-333.23 512.29,-340.18"/>
</a>
</g>
</g>
<!-- Node37 -->
<g id="Node000037" class="node">
<title>Node37</title>
<g id="a_Node000037"><a xlink:href="player__controller_8c.html#a48c7e19bb37a2baff93f9f919b8b9688" target="_top" xlink:title=" ">
<polygon fill="white" stroke="#666666" points="648.5,-460.32 520.5,-460.32 520.5,-441.32 648.5,-441.32 648.5,-460.32"/>
<text text-anchor="middle" x="584.5" y="-448.32" font-family="Helvetica,sans-Serif" font-size="10.00">update_steering_small</text>
</a>
</g>
</g>
<!-- Node31&#45;&gt;Node37 -->
<g id="edge38_Node000031_Node000037" class="edge">
<title>Node31&#45;&gt;Node37</title>
<g id="a_edge38_Node000031_Node000037"><a xlink:title=" ">
<path fill="none" stroke="#63b8ff" d="M443.1,-357.78C451.62,-360.54 460.03,-364.41 467,-369.82 492.47,-389.6 477.05,-413.67 503,-432.82 505.51,-434.68 508.18,-436.35 510.96,-437.85"/>
<polygon fill="#63b8ff" stroke="#63b8ff" points="509.61,-441.08 520.15,-442.1 512.54,-434.73 509.61,-441.08"/>
</a>
</g>
</g>
<!-- Node32&#45;&gt;Node22 -->
<g id="edge33_Node000032_Node000022" class="edge">
<title>Node32&#45;&gt;Node22</title>
<g id="a_edge33_Node000032_Node000022"><a xlink:title=" ">
<path fill="none" stroke="#63b8ff" d="M1249.59,-479.27C1273.2,-462.66 1321.99,-428.35 1350.49,-408.31"/>
<polygon fill="#63b8ff" stroke="#63b8ff" points="1352.8,-410.96 1358.97,-402.34 1348.77,-405.23 1352.8,-410.96"/>
</a>
</g>
</g>
<!-- Node38 -->
<g id="Node000038" class="node">
<title>Node38</title>
<g id="a_Node000038"><a xlink:href="player__controller_8c.html#a27292f58c6f927c906a1b4007cb7c8b9" target="_top" xlink:title=" ">
<polygon fill="white" stroke="#666666" points="807,-460.32 716,-460.32 716,-441.32 807,-441.32 807,-460.32"/>
<text text-anchor="middle" x="761.5" y="-448.32" font-family="Helvetica,sans-Serif" font-size="10.00">func_80033850</text>
</a>
</g>
</g>
<!-- Node37&#45;&gt;Node38 -->
<g id="edge39_Node000037_Node000038" class="edge">
<title>Node37&#45;&gt;Node38</title>
<g id="a_edge39_Node000037_Node000038"><a xlink:title=" ">
<path fill="none" stroke="#63b8ff" d="M648.68,-450.82C667.34,-450.82 687.61,-450.82 705.7,-450.82"/>
<polygon fill="#63b8ff" stroke="#63b8ff" points="705.79,-454.32 715.79,-450.82 705.79,-447.32 705.79,-454.32"/>
</a>
</g>
</g>
<!-- Node41 -->
<g id="Node000041" class="node">
<title>Node41</title>
<g id="a_Node000041"><a xlink:href="player__controller_8c.html#aa6354bd4c17bd4e2dae3d73922df904b" target="_top" xlink:title=" ">
<polygon fill="white" stroke="#666666" points="630.5,-703.32 538.5,-703.32 538.5,-684.32 630.5,-684.32 630.5,-703.32"/>
<text text-anchor="middle" x="584.5" y="-691.32" font-family="Helvetica,sans-Serif" font-size="10.00">func_80036C5C</text>
</a>
</g>
</g>
<!-- Node40&#45;&gt;Node41 -->
<g id="edge43_Node000040_Node000041" class="edge">
<title>Node40&#45;&gt;Node41</title>
<g id="a_edge43_Node000040_Node000041"><a xlink:title=" ">
<path fill="none" stroke="#63b8ff" d="M426.58,-693.82C453.56,-693.82 494.77,-693.82 528.18,-693.82"/>
<polygon fill="#63b8ff" stroke="#63b8ff" points="528.27,-697.32 538.27,-693.82 528.27,-690.32 528.27,-697.32"/>
</a>
</g>
</g>
<!-- Node42&#45;&gt;Node9 -->
<g id="edge45_Node000042_Node000009" class="edge">
<title>Node42&#45;&gt;Node9</title>
<g id="a_edge45_Node000042_Node000009"><a xlink:title=" ">
<path fill="none" stroke="#63b8ff" d="M665.57,-225.06C679.21,-226.46 693.09,-227.89 705.87,-229.21"/>
<polygon fill="#63b8ff" stroke="#63b8ff" points="705.55,-232.69 715.86,-230.23 706.27,-225.73 705.55,-232.69"/>
</a>
</g>
</g>
<!-- Node42&#45;&gt;Node30 -->
<g id="edge46_Node000042_Node000030" class="edge">
<title>Node42&#45;&gt;Node30</title>
<g id="a_edge46_Node000042_Node000030"><a xlink:title=" ">
<path fill="none" stroke="#63b8ff" d="M649.67,-207.29C663.41,-205.25 677.97,-203.09 691.87,-201.02"/>
<polygon fill="#63b8ff" stroke="#63b8ff" points="692.47,-204.47 701.85,-199.54 691.44,-197.55 692.47,-204.47"/>
</a>
</g>
</g>
<!-- Node45&#45;&gt;Node30 -->
<g id="edge51_Node000045_Node000030" class="edge">
<title>Node45&#45;&gt;Node30</title>
<g id="a_edge51_Node000045_Node000030"><a xlink:title=" ">
<path fill="none" stroke="#63b8ff" d="M273.16,-158.53C322.73,-161.21 400.04,-165.52 467,-169.82 543.99,-174.78 632.28,-181.2 691.74,-185.63"/>
<polygon fill="#63b8ff" stroke="#63b8ff" points="691.54,-189.12 701.77,-186.37 692.06,-182.14 691.54,-189.12"/>
</a>
</g>
</g>
<!-- Node46&#45;&gt;Node30 -->
<g id="edge53_Node000046_Node000030" class="edge">
<title>Node46&#45;&gt;Node30</title>
<g id="a_edge53_Node000046_Node000030"><a xlink:title=" ">
<path fill="none" stroke="#63b8ff" d="M291.17,-119.31C378.79,-128.05 534.27,-145.25 666,-168.82 674.49,-170.34 683.37,-172.14 692.14,-174.03"/>
<polygon fill="#63b8ff" stroke="#63b8ff" points="691.45,-177.46 701.97,-176.21 692.96,-170.63 691.45,-177.46"/>
</a>
</g>
</g>
</g>
</svg>
