<?xml version="1.0" encoding="UTF-8" standalone="no"?>
<!DOCTYPE svg PUBLIC "-//W3C//DTD SVG 1.1//EN"
 "http://www.w3.org/Graphics/SVG/1.1/DTD/svg11.dtd">
<!-- Generated by graphviz version 2.43.0 (0)
 -->
<!-- Title: func_800382DC Pages: 1 -->
<svg width="1391pt" height="864pt"
 viewBox="0.00 0.00 1391.00 864.00" xmlns="http://www.w3.org/2000/svg" xmlns:xlink="http://www.w3.org/1999/xlink">
<g id="graph0" class="graph" transform="scale(1 1) rotate(0) translate(4 860)">
<title>func_800382DC</title>
<polygon fill="white" stroke="transparent" points="-4,4 -4,-860 1387,-860 1387,4 -4,4"/>
<!-- Node1 -->
<g id="node1" class="node">
<title>Node1</title>
<g id="a_node1"><a xlink:title=" ">
<polygon fill="#bfbfbf" stroke="black" points="0,-418.5 0,-437.5 93,-437.5 93,-418.5 0,-418.5"/>
<text text-anchor="middle" x="46.5" y="-425.5" font-family="Helvetica,sans-Serif" font-size="10.00">func_800382DC</text>
</a>
</g>
</g>
<!-- Node2 -->
<g id="node2" class="node">
<title>Node2</title>
<g id="a_node2"><a xlink:href="player__controller_8c.html#ac5fdc565f5a4a779b67fd7563e76f317" target="_top" xlink:title=" ">
<polygon fill="white" stroke="black" points="129,-418.5 129,-437.5 221,-437.5 221,-418.5 129,-418.5"/>
<text text-anchor="middle" x="175" y="-425.5" font-family="Helvetica,sans-Serif" font-size="10.00">func_800381AC</text>
</a>
</g>
</g>
<!-- Node1&#45;&gt;Node2 -->
<g id="edge1" class="edge">
<title>Node1&#45;&gt;Node2</title>
<path fill="none" stroke="midnightblue" d="M93.17,-428C101.42,-428 110.11,-428 118.6,-428"/>
<polygon fill="midnightblue" stroke="midnightblue" points="118.82,-431.5 128.82,-428 118.82,-424.5 118.82,-431.5"/>
</g>
<!-- Node3 -->
<g id="node3" class="node">
<title>Node3</title>
<g id="a_node3"><a xlink:href="player__controller_8c.html#a7a967d886b7ebeddcd9207fc2af1d28e" target="_top" xlink:title=" ">
<polygon fill="white" stroke="black" points="257.5,-636.5 257.5,-655.5 348.5,-655.5 348.5,-636.5 257.5,-636.5"/>
<text text-anchor="middle" x="303" y="-643.5" font-family="Helvetica,sans-Serif" font-size="10.00">func_80032700</text>
</a>
</g>
</g>
<!-- Node2&#45;&gt;Node3 -->
<g id="edge2" class="edge">
<title>Node2&#45;&gt;Node3</title>
<path fill="none" stroke="midnightblue" d="M180.76,-437.81C192.74,-462.27 225.43,-527.81 257,-580 267.15,-596.78 279.81,-615.15 289.12,-628.24"/>
<polygon fill="midnightblue" stroke="midnightblue" points="286.28,-630.29 294.95,-636.38 291.97,-626.21 286.28,-630.29"/>
</g>
<!-- Node5 -->
<g id="node5" class="node">
<title>Node5</title>
<g id="a_node5"><a xlink:href="player__controller_8c.html#a33851c48dcfab9ec693e4a5c68cc2ecd" target="_top" xlink:title=" ">
<polygon fill="white" stroke="black" points="257,-380.5 257,-399.5 349,-399.5 349,-380.5 257,-380.5"/>
<text text-anchor="middle" x="303" y="-387.5" font-family="Helvetica,sans-Serif" font-size="10.00">func_80032CB0</text>
</a>
</g>
</g>
<!-- Node2&#45;&gt;Node5 -->
<g id="edge4" class="edge">
<title>Node2&#45;&gt;Node5</title>
<path fill="none" stroke="midnightblue" d="M207.8,-418.41C223.76,-413.6 243.31,-407.7 260.45,-402.53"/>
<polygon fill="midnightblue" stroke="midnightblue" points="261.65,-405.82 270.22,-399.59 259.63,-399.12 261.65,-405.82"/>
</g>
<!-- Node6 -->
<g id="node6" class="node">
<title>Node6</title>
<g id="a_node6"><a xlink:href="player__controller_8c.html#a22b33e3c04e02dd7da6d26449639cdf8" target="_top" xlink:title=" ">
<polygon fill="white" stroke="black" points="257,-551.5 257,-570.5 349,-570.5 349,-551.5 257,-551.5"/>
<text text-anchor="middle" x="303" y="-558.5" font-family="Helvetica,sans-Serif" font-size="10.00">func_80032D94</text>
</a>
</g>
</g>
<!-- Node2&#45;&gt;Node6 -->
<g id="edge5" class="edge">
<title>Node2&#45;&gt;Node6</title>
<path fill="none" stroke="midnightblue" d="M185.06,-437.57C206.12,-459.79 258.6,-515.19 285.51,-543.6"/>
<polygon fill="midnightblue" stroke="midnightblue" points="283.26,-546.31 292.68,-551.16 288.34,-541.5 283.26,-546.31"/>
</g>
<!-- Node7 -->
<g id="node7" class="node">
<title>Node7</title>
<g id="a_node7"><a xlink:href="player__controller_8c.html#a168fd103aa60b41190e2b32bab868329" target="_top" xlink:title=" ">
<polygon fill="white" stroke="black" points="257.5,-342.5 257.5,-361.5 348.5,-361.5 348.5,-342.5 257.5,-342.5"/>
<text text-anchor="middle" x="303" y="-349.5" font-family="Helvetica,sans-Serif" font-size="10.00">func_80033280</text>
</a>
</g>
</g>
<!-- Node2&#45;&gt;Node7 -->
<g id="edge7" class="edge">
<title>Node2&#45;&gt;Node7</title>
<path fill="none" stroke="midnightblue" d="M187.82,-418.46C203.14,-406.39 230.98,-385.43 257,-371 260.31,-369.16 263.83,-367.39 267.39,-365.72"/>
<polygon fill="midnightblue" stroke="midnightblue" points="269.08,-368.79 276.79,-361.53 266.23,-362.4 269.08,-368.79"/>
</g>
<!-- Node8 -->
<g id="node8" class="node">
<title>Node8</title>
<g id="a_node8"><a xlink:href="player__controller_8c.html#aee4ac6480be5180d4226e25ba781602f" target="_top" xlink:title=" ">
<polygon fill="white" stroke="black" points="257,-418.5 257,-437.5 349,-437.5 349,-418.5 257,-418.5"/>
<text text-anchor="middle" x="303" y="-425.5" font-family="Helvetica,sans-Serif" font-size="10.00">func_80037CFC</text>
</a>
</g>
</g>
<!-- Node2&#45;&gt;Node8 -->
<g id="edge8" class="edge">
<title>Node2&#45;&gt;Node8</title>
<path fill="none" stroke="midnightblue" d="M221.13,-428C229.37,-428 238.04,-428 246.53,-428"/>
<polygon fill="midnightblue" stroke="midnightblue" points="246.76,-431.5 256.76,-428 246.76,-424.5 246.76,-431.5"/>
</g>
<!-- Node4 -->
<g id="node4" class="node">
<title>Node4</title>
<g id="a_node4"><a xlink:href="player__controller_8c.html#aafeb0470c7da44e1440ffa4848f7d500" target="_top" xlink:title=" ">
<polygon fill="white" stroke="black" points="642,-511 642,-541 761,-541 761,-511 642,-511"/>
<text text-anchor="start" x="650" y="-529" font-family="Helvetica,sans-Serif" font-size="10.00">get_player_index_for</text>
<text text-anchor="middle" x="701.5" y="-518" font-family="Helvetica,sans-Serif" font-size="10.00">_player</text>
</a>
</g>
</g>
<!-- Node3&#45;&gt;Node4 -->
<g id="edge3" class="edge">
<title>Node3&#45;&gt;Node4</title>
<path fill="none" stroke="midnightblue" d="M348.7,-653.31C410.89,-661.14 525,-666.79 606,-620 637.49,-601.81 665.93,-570.53 683.19,-549.09"/>
<polygon fill="midnightblue" stroke="midnightblue" points="686.03,-551.15 689.46,-541.12 680.53,-546.82 686.03,-551.15"/>
</g>
<!-- Node6&#45;&gt;Node4 -->
<g id="edge6" class="edge">
<title>Node6&#45;&gt;Node4</title>
<path fill="none" stroke="midnightblue" d="M310.39,-570.59C322.52,-587.81 350.75,-623.45 385,-637 423.02,-652.04 437.19,-646.34 477,-637 551.07,-619.62 628.69,-573.85 670.14,-546.82"/>
<polygon fill="midnightblue" stroke="midnightblue" points="672.25,-549.62 678.66,-541.19 668.39,-543.78 672.25,-549.62"/>
</g>
<!-- Node9 -->
<g id="node9" class="node">
<title>Node9</title>
<g id="a_node9"><a xlink:href="player__controller_8c.html#a6cced523e4307a74ca7cb876b63944f8" target="_top" xlink:title=" ">
<polygon fill="white" stroke="black" points="385,-228.5 385,-247.5 477,-247.5 477,-228.5 385,-228.5"/>
<text text-anchor="middle" x="431" y="-235.5" font-family="Helvetica,sans-Serif" font-size="10.00">func_8002AA50</text>
</a>
</g>
</g>
<!-- Node8&#45;&gt;Node9 -->
<g id="edge9" class="edge">
<title>Node8&#45;&gt;Node9</title>
<path fill="none" stroke="midnightblue" d="M336.94,-418.45C341.47,-415.97 345.7,-412.87 349,-409 392.63,-357.8 343.73,-315.12 385,-262 387.63,-258.62 390.87,-255.66 394.4,-253.08"/>
<polygon fill="midnightblue" stroke="midnightblue" points="396.35,-255.99 403,-247.74 392.66,-250.04 396.35,-255.99"/>
</g>
<!-- Node11 -->
<g id="node11" class="node">
<title>Node11</title>
<g id="a_node11"><a xlink:href="player__controller_8c.html#a88475c305e1831edaebf771aa52cfee4" target="_top" xlink:title=" ">
<polygon fill="white" stroke="black" points="385,-95.5 385,-114.5 477,-114.5 477,-95.5 385,-95.5"/>
<text text-anchor="middle" x="431" y="-102.5" font-family="Helvetica,sans-Serif" font-size="10.00">func_80030C34</text>
</a>
</g>
</g>
<!-- Node8&#45;&gt;Node11 -->
<g id="edge11" class="edge">
<title>Node8&#45;&gt;Node11</title>
<path fill="none" stroke="midnightblue" d="M338.23,-418.26C342.37,-415.82 346.13,-412.78 349,-409 426.11,-307.24 307.89,-225.76 385,-124 385.81,-122.94 386.68,-121.93 387.62,-120.98"/>
<polygon fill="midnightblue" stroke="midnightblue" points="389.96,-123.6 395.77,-114.74 385.7,-118.04 389.96,-123.6"/>
</g>
<!-- Node12 -->
<g id="node12" class="node">
<title>Node12</title>
<g id="a_node12"><a xlink:href="player__controller_8c.html#a2b1eb9ef8354e378f32ac4364caf20fd" target="_top" xlink:title=" ">
<polygon fill="white" stroke="black" points="385.5,-608.5 385.5,-627.5 476.5,-627.5 476.5,-608.5 385.5,-608.5"/>
<text text-anchor="middle" x="431" y="-615.5" font-family="Helvetica,sans-Serif" font-size="10.00">func_80030E00</text>
</a>
</g>
</g>
<!-- Node8&#45;&gt;Node12 -->
<g id="edge12" class="edge">
<title>Node8&#45;&gt;Node12</title>
<path fill="none" stroke="midnightblue" d="M307.61,-437.87C319.7,-470.56 359.5,-574.57 385,-599 386.47,-600.41 388.06,-601.72 389.73,-602.94"/>
<polygon fill="midnightblue" stroke="midnightblue" points="388.27,-606.14 398.64,-608.3 391.88,-600.15 388.27,-606.14"/>
</g>
<!-- Node13 -->
<g id="node13" class="node">
<title>Node13</title>
<g id="a_node13"><a xlink:href="player__controller_8c.html#ac7a97dc1bb35fea10379d0fa68c83f3e" target="_top" xlink:title=" ">
<polygon fill="white" stroke="black" points="514,-380.5 514,-399.5 605,-399.5 605,-380.5 514,-380.5"/>
<text text-anchor="middle" x="559.5" y="-387.5" font-family="Helvetica,sans-Serif" font-size="10.00">func_80031F48</text>
</a>
</g>
</g>
<!-- Node8&#45;&gt;Node13 -->
<g id="edge13" class="edge">
<title>Node8&#45;&gt;Node13</title>
<path fill="none" stroke="midnightblue" d="M331.6,-418.47C337.58,-415.84 343.7,-412.67 349,-409 368.12,-395.75 363.63,-380.19 385,-371 431.05,-351.19 490.05,-364.92 526.02,-377.11"/>
<polygon fill="midnightblue" stroke="midnightblue" points="524.93,-380.44 535.52,-380.48 527.27,-373.84 524.93,-380.44"/>
</g>
<!-- Node31 -->
<g id="node31" class="node">
<title>Node31</title>
<g id="a_node31"><a xlink:href="external_8c.html#a517352d45a01341217ab2c073b3b223f" target="_top" xlink:title=" ">
<polygon fill="white" stroke="black" points="1182.5,-266.5 1182.5,-285.5 1274.5,-285.5 1274.5,-266.5 1182.5,-266.5"/>
<text text-anchor="middle" x="1228.5" y="-273.5" font-family="Helvetica,sans-Serif" font-size="10.00">func_800C9060</text>
</a>
</g>
</g>
<!-- Node8&#45;&gt;Node31 -->
<g id="edge53" class="edge">
<title>Node8&#45;&gt;Node31</title>
<path fill="none" stroke="midnightblue" d="M334.84,-418.48C339.96,-415.96 344.93,-412.84 349,-409 375.32,-384.18 357.87,-359.93 385,-336 446.19,-282.03 476.91,-276 558.5,-276 558.5,-276 558.5,-276 972.5,-276 1041.25,-276 1120.43,-276 1172.09,-276"/>
<polygon fill="midnightblue" stroke="midnightblue" points="1172.36,-279.5 1182.36,-276 1172.36,-272.5 1172.36,-279.5"/>
</g>
<!-- Node35 -->
<g id="node35" class="node">
<title>Node35</title>
<g id="a_node35"><a xlink:href="player__controller_8c.html#ab04cbe91c6a28a40da829a0785ebbda8" target="_top" xlink:title=" ">
<polygon fill="white" stroke="black" points="385.5,-570.5 385.5,-589.5 476.5,-589.5 476.5,-570.5 385.5,-570.5"/>
<text text-anchor="middle" x="431" y="-577.5" font-family="Helvetica,sans-Serif" font-size="10.00">func_80032050</text>
</a>
</g>
</g>
<!-- Node8&#45;&gt;Node35 -->
<g id="edge37" class="edge">
<title>Node8&#45;&gt;Node35</title>
<path fill="none" stroke="midnightblue" d="M307.5,-437.77C316.6,-461.91 343.23,-524.98 385,-561 386.77,-562.53 388.69,-563.95 390.69,-565.27"/>
<polygon fill="midnightblue" stroke="midnightblue" points="389.47,-568.59 399.9,-570.4 392.87,-562.48 389.47,-568.59"/>
</g>
<!-- Node36 -->
<g id="node36" class="node">
<title>Node36</title>
<g id="a_node36"><a xlink:href="player__controller_8c.html#ad22e8e002a953cd441ec10f5ac574b5b" target="_top" xlink:title=" ">
<polygon fill="white" stroke="black" points="385,-532.5 385,-551.5 477,-551.5 477,-532.5 385,-532.5"/>
<text text-anchor="middle" x="431" y="-539.5" font-family="Helvetica,sans-Serif" font-size="10.00">func_8003221C</text>
</a>
</g>
</g>
<!-- Node8&#45;&gt;Node36 -->
<g id="edge38" class="edge">
<title>Node8&#45;&gt;Node36</title>
<path fill="none" stroke="midnightblue" d="M309.98,-437.65C322.05,-456.41 351.08,-498.15 385,-523 387.37,-524.74 389.93,-526.35 392.58,-527.85"/>
<polygon fill="midnightblue" stroke="midnightblue" points="391.28,-531.11 401.78,-532.47 394.41,-524.86 391.28,-531.11"/>
</g>
<!-- Node37 -->
<g id="node37" class="node">
<title>Node37</title>
<g id="a_node37"><a xlink:href="player__controller_8c.html#af15169209879a48ae06ba698b386faa6" target="_top" xlink:title=" ">
<polygon fill="white" stroke="black" points="385.5,-380.5 385.5,-399.5 476.5,-399.5 476.5,-380.5 385.5,-380.5"/>
<text text-anchor="middle" x="431" y="-387.5" font-family="Helvetica,sans-Serif" font-size="10.00">func_800323E4</text>
</a>
</g>
</g>
<!-- Node8&#45;&gt;Node37 -->
<g id="edge39" class="edge">
<title>Node8&#45;&gt;Node37</title>
<path fill="none" stroke="midnightblue" d="M335.8,-418.41C351.76,-413.6 371.31,-407.7 388.45,-402.53"/>
<polygon fill="midnightblue" stroke="midnightblue" points="389.65,-405.82 398.22,-399.59 387.63,-399.12 389.65,-405.82"/>
</g>
<!-- Node38 -->
<g id="node38" class="node">
<title>Node38</title>
<g id="a_node38"><a xlink:href="player__controller_8c.html#abc17cab760a603e6c215a7a82137cc39" target="_top" xlink:title=" ">
<polygon fill="white" stroke="black" points="385.5,-494.5 385.5,-513.5 476.5,-513.5 476.5,-494.5 385.5,-494.5"/>
<text text-anchor="middle" x="431" y="-501.5" font-family="Helvetica,sans-Serif" font-size="10.00">func_800332E8</text>
</a>
</g>
</g>
<!-- Node8&#45;&gt;Node38 -->
<g id="edge41" class="edge">
<title>Node8&#45;&gt;Node38</title>
<path fill="none" stroke="midnightblue" d="M315.82,-437.54C331.14,-449.61 358.98,-470.57 385,-485 388.31,-486.84 391.83,-488.61 395.39,-490.28"/>
<polygon fill="midnightblue" stroke="midnightblue" points="394.23,-493.6 404.79,-494.47 397.08,-487.21 394.23,-493.6"/>
</g>
<!-- Node39 -->
<g id="node39" class="node">
<title>Node39</title>
<g id="a_node39"><a xlink:href="player__controller_8c.html#a56ba286d5fa63e7acc7595ef8cda67f0" target="_top" xlink:title=" ">
<polygon fill="white" stroke="black" points="385,-456.5 385,-475.5 477,-475.5 477,-456.5 385,-456.5"/>
<text text-anchor="middle" x="431" y="-463.5" font-family="Helvetica,sans-Serif" font-size="10.00">func_800337CC</text>
</a>
</g>
</g>
<!-- Node8&#45;&gt;Node39 -->
<g id="edge42" class="edge">
<title>Node8&#45;&gt;Node39</title>
<path fill="none" stroke="midnightblue" d="M335.8,-437.59C351.76,-442.4 371.31,-448.3 388.45,-453.47"/>
<polygon fill="midnightblue" stroke="midnightblue" points="387.63,-456.88 398.22,-456.41 389.65,-450.18 387.63,-456.88"/>
</g>
<!-- Node40 -->
<g id="node40" class="node">
<title>Node40</title>
<g id="a_node40"><a xlink:href="player__controller_8c.html#a75d7b3a332f920a1c54722ce91d9eb74" target="_top" xlink:title=" ">
<polygon fill="white" stroke="black" points="385,-133.5 385,-152.5 477,-152.5 477,-133.5 385,-133.5"/>
<text text-anchor="middle" x="431" y="-140.5" font-family="Helvetica,sans-Serif" font-size="10.00">func_80033AE0</text>
</a>
</g>
</g>
<!-- Node8&#45;&gt;Node40 -->
<g id="edge43" class="edge">
<title>Node8&#45;&gt;Node40</title>
<path fill="none" stroke="midnightblue" d="M337.57,-418.35C341.91,-415.89 345.91,-412.83 349,-409 402.99,-342.13 354.65,-299.41 385,-219 392.98,-197.85 406.69,-175.86 416.89,-161.01"/>
<polygon fill="midnightblue" stroke="midnightblue" points="419.8,-162.95 422.7,-152.76 414.08,-158.92 419.8,-162.95"/>
</g>
<!-- Node48 -->
<g id="node48" class="node">
<title>Node48</title>
<g id="a_node48"><a xlink:href="player__controller_8c.html#a6ab60cd01fe159bb7f6c60d06d9e16a6" target="_top" xlink:title=" ">
<polygon fill="white" stroke="black" points="385,-418.5 385,-437.5 477,-437.5 477,-418.5 385,-418.5"/>
<text text-anchor="middle" x="431" y="-425.5" font-family="Helvetica,sans-Serif" font-size="10.00">func_800388B0</text>
</a>
</g>
</g>
<!-- Node8&#45;&gt;Node48 -->
<g id="edge52" class="edge">
<title>Node8&#45;&gt;Node48</title>
<path fill="none" stroke="midnightblue" d="M349.13,-428C357.37,-428 366.04,-428 374.53,-428"/>
<polygon fill="midnightblue" stroke="midnightblue" points="374.76,-431.5 384.76,-428 374.76,-424.5 374.76,-431.5"/>
</g>
<!-- Node49 -->
<g id="node49" class="node">
<title>Node49</title>
<g id="a_node49"><a xlink:href="player__controller_8c.html#a84e13f8b3b653c5b3cdd4483b6e1b153" target="_top" xlink:title=" ">
<polygon fill="white" stroke="black" points="518.5,-342.5 518.5,-361.5 600.5,-361.5 600.5,-342.5 518.5,-342.5"/>
<text text-anchor="middle" x="559.5" y="-349.5" font-family="Helvetica,sans-Serif" font-size="10.00">player_speed</text>
</a>
</g>
</g>
<!-- Node8&#45;&gt;Node49 -->
<g id="edge54" class="edge">
<title>Node8&#45;&gt;Node49</title>
<path fill="none" stroke="midnightblue" d="M333.42,-418.38C338.92,-415.83 344.38,-412.72 349,-409 370.61,-391.6 360.59,-371.19 385,-358 422.53,-337.72 471.59,-338.03 507.96,-342.36"/>
<polygon fill="midnightblue" stroke="midnightblue" points="507.97,-345.89 518.34,-343.75 508.89,-338.96 507.97,-345.89"/>
</g>
<!-- Node10 -->
<g id="node10" class="node">
<title>Node10</title>
<g id="a_node10"><a xlink:href="player__controller_8c.html#a4702be83113ffc356cf0e2ab9bba33a3" target="_top" xlink:title=" ">
<polygon fill="white" stroke="black" points="513.5,-228.5 513.5,-247.5 605.5,-247.5 605.5,-228.5 513.5,-228.5"/>
<text text-anchor="middle" x="559.5" y="-235.5" font-family="Helvetica,sans-Serif" font-size="10.00">func_80036C5C</text>
</a>
</g>
</g>
<!-- Node9&#45;&gt;Node10 -->
<g id="edge10" class="edge">
<title>Node9&#45;&gt;Node10</title>
<path fill="none" stroke="midnightblue" d="M477.31,-238C485.58,-238 494.29,-238 502.81,-238"/>
<polygon fill="midnightblue" stroke="midnightblue" points="503.08,-241.5 513.08,-238 503.08,-234.5 503.08,-241.5"/>
</g>
<!-- Node13&#45;&gt;Node4 -->
<g id="edge36" class="edge">
<title>Node13&#45;&gt;Node4</title>
<path fill="none" stroke="midnightblue" d="M570.57,-399.78C592.76,-421.34 646.38,-473.43 677.36,-503.52"/>
<polygon fill="midnightblue" stroke="midnightblue" points="675.1,-506.21 684.71,-510.66 679.98,-501.19 675.1,-506.21"/>
</g>
<!-- Node14 -->
<g id="node14" class="node">
<title>Node14</title>
<g id="a_node14"><a xlink:href="code__8008C1D0_8c.html#ae77e5662a7ef9f09c2e2150a36883d04" target="_top" xlink:title=" ">
<polygon fill="white" stroke="black" points="656,-361.5 656,-380.5 747,-380.5 747,-361.5 656,-361.5"/>
<text text-anchor="middle" x="701.5" y="-368.5" font-family="Helvetica,sans-Serif" font-size="10.00">func_8008F104</text>
</a>
</g>
</g>
<!-- Node13&#45;&gt;Node14 -->
<g id="edge14" class="edge">
<title>Node13&#45;&gt;Node14</title>
<path fill="none" stroke="midnightblue" d="M605.18,-383.94C618.06,-382.19 632.27,-380.26 645.69,-378.44"/>
<polygon fill="midnightblue" stroke="midnightblue" points="646.32,-381.88 655.76,-377.07 645.38,-374.95 646.32,-381.88"/>
</g>
<!-- Node15 -->
<g id="node15" class="node">
<title>Node15</title>
<g id="a_node15"><a xlink:href="code__8008C1D0_8c.html#a5cdc06d2091fc6d20759448c40b17d54" target="_top" xlink:title=" ">
<polygon fill="white" stroke="black" points="797,-570.5 797,-589.5 889,-589.5 889,-570.5 797,-570.5"/>
<text text-anchor="middle" x="843" y="-577.5" font-family="Helvetica,sans-Serif" font-size="10.00">func_8008C354</text>
</a>
</g>
</g>
<!-- Node14&#45;&gt;Node15 -->
<g id="edge15" class="edge">
<title>Node14&#45;&gt;Node15</title>
<path fill="none" stroke="midnightblue" d="M708.86,-380.52C730.46,-412.89 801.31,-519.03 829.89,-561.85"/>
<polygon fill="midnightblue" stroke="midnightblue" points="827.14,-564.05 835.61,-570.42 832.97,-560.16 827.14,-564.05"/>
</g>
<!-- Node34 -->
<g id="node34" class="node">
<title>Node34</title>
<g id="a_node34"><a xlink:href="external_8c.html#a1a1bdc0f5d3b6fd4a86b9d62e93a076e" target="_top" xlink:title=" ">
<polygon fill="white" stroke="black" points="797,-332.5 797,-351.5 889,-351.5 889,-332.5 797,-332.5"/>
<text text-anchor="middle" x="843" y="-339.5" font-family="Helvetica,sans-Serif" font-size="10.00">func_800C90F4</text>
</a>
</g>
</g>
<!-- Node14&#45;&gt;Node34 -->
<g id="edge34" class="edge">
<title>Node14&#45;&gt;Node34</title>
<path fill="none" stroke="midnightblue" d="M747.02,-361.74C759.73,-359.1 773.73,-356.19 786.99,-353.44"/>
<polygon fill="midnightblue" stroke="midnightblue" points="787.86,-356.83 796.94,-351.37 786.44,-349.98 787.86,-356.83"/>
</g>
<!-- Node16 -->
<g id="node16" class="node">
<title>Node16</title>
<g id="a_node16"><a xlink:href="code__8008C1D0_8c.html#ad164a912d7ef76f24e7b5cfb9169c16f" target="_top" xlink:title=" ">
<polygon fill="white" stroke="black" points="925,-494.5 925,-513.5 1018,-513.5 1018,-494.5 925,-494.5"/>
<text text-anchor="middle" x="971.5" y="-501.5" font-family="Helvetica,sans-Serif" font-size="10.00">func_8008C6D0</text>
</a>
</g>
</g>
<!-- Node15&#45;&gt;Node16 -->
<g id="edge16" class="edge">
<title>Node15&#45;&gt;Node16</title>
<path fill="none" stroke="midnightblue" d="M855.81,-570.44C871.12,-558.35 898.96,-537.38 925,-523 928.26,-521.2 931.74,-519.46 935.25,-517.81"/>
<polygon fill="midnightblue" stroke="midnightblue" points="936.81,-520.95 944.53,-513.7 933.97,-514.55 936.81,-520.95"/>
</g>
<!-- Node17 -->
<g id="node17" class="node">
<title>Node17</title>
<g id="a_node17"><a xlink:href="code__8008C1D0_8c.html#a105203221e314be241a95e006b62ef80" target="_top" xlink:title=" ">
<polygon fill="white" stroke="black" points="925.5,-456.5 925.5,-475.5 1017.5,-475.5 1017.5,-456.5 925.5,-456.5"/>
<text text-anchor="middle" x="971.5" y="-463.5" font-family="Helvetica,sans-Serif" font-size="10.00">func_8008C8C4</text>
</a>
</g>
</g>
<!-- Node15&#45;&gt;Node17 -->
<g id="edge17" class="edge">
<title>Node15&#45;&gt;Node17</title>
<path fill="none" stroke="midnightblue" d="M849.97,-570.34C862.03,-551.56 891.03,-509.78 925,-485 927.33,-483.3 929.84,-481.71 932.44,-480.25"/>
<polygon fill="midnightblue" stroke="midnightblue" points="934.12,-483.32 941.49,-475.71 930.98,-477.06 934.12,-483.32"/>
</g>
<!-- Node18 -->
<g id="node18" class="node">
<title>Node18</title>
<g id="a_node18"><a xlink:href="code__8008C1D0_8c.html#acab450a6af6eca812ad3987a292a5165" target="_top" xlink:title=" ">
<polygon fill="white" stroke="black" points="925.5,-418.5 925.5,-437.5 1017.5,-437.5 1017.5,-418.5 925.5,-418.5"/>
<text text-anchor="middle" x="971.5" y="-425.5" font-family="Helvetica,sans-Serif" font-size="10.00">func_8008D0E4</text>
</a>
</g>
</g>
<!-- Node15&#45;&gt;Node18 -->
<g id="edge18" class="edge">
<title>Node15&#45;&gt;Node18</title>
<path fill="none" stroke="midnightblue" d="M847.49,-570.21C856.57,-546.06 883.16,-482.94 925,-447 926.93,-445.34 929.03,-443.81 931.23,-442.4"/>
<polygon fill="midnightblue" stroke="midnightblue" points="932.98,-445.43 940.07,-437.55 929.62,-439.29 932.98,-445.43"/>
</g>
<!-- Node19 -->
<g id="node19" class="node">
<title>Node19</title>
<g id="a_node19"><a xlink:href="code__8008C1D0_8c.html#a663cb8df8b606cf00e361977c9d6d834" target="_top" xlink:title=" ">
<polygon fill="white" stroke="black" points="925,-380.5 925,-399.5 1018,-399.5 1018,-380.5 925,-380.5"/>
<text text-anchor="middle" x="971.5" y="-387.5" font-family="Helvetica,sans-Serif" font-size="10.00">func_8008D3B0</text>
</a>
</g>
</g>
<!-- Node15&#45;&gt;Node19 -->
<g id="edge19" class="edge">
<title>Node15&#45;&gt;Node19</title>
<path fill="none" stroke="midnightblue" d="M845.98,-570.44C852.34,-541.99 874.86,-456.85 925,-409 926.49,-407.58 928.09,-406.26 929.79,-405.04"/>
<polygon fill="midnightblue" stroke="midnightblue" points="932.01,-407.78 938.8,-399.65 928.42,-401.78 932.01,-407.78"/>
</g>
<!-- Node20 -->
<g id="node20" class="node">
<title>Node20</title>
<g id="a_node20"><a xlink:href="code__8008C1D0_8c.html#ae7bb91110e710a8f32fcd4c56c56f934" target="_top" xlink:title=" ">
<polygon fill="white" stroke="black" points="925.5,-342.5 925.5,-361.5 1017.5,-361.5 1017.5,-342.5 925.5,-342.5"/>
<text text-anchor="middle" x="971.5" y="-349.5" font-family="Helvetica,sans-Serif" font-size="10.00">func_8008D554</text>
</a>
</g>
</g>
<!-- Node15&#45;&gt;Node20 -->
<g id="edge20" class="edge">
<title>Node15&#45;&gt;Node20</title>
<path fill="none" stroke="midnightblue" d="M845.07,-570.25C849.16,-537.61 866.61,-430.92 925,-371 926.39,-369.57 927.9,-368.25 929.5,-367.02"/>
<polygon fill="midnightblue" stroke="midnightblue" points="931.47,-369.92 938.1,-361.65 927.76,-363.98 931.47,-369.92"/>
</g>
<!-- Node21 -->
<g id="node21" class="node">
<title>Node21</title>
<g id="a_node21"><a xlink:href="code__8008C1D0_8c.html#a5f19eaaa048055d292d02c717e635786" target="_top" xlink:title=" ">
<polygon fill="white" stroke="black" points="925.5,-836.5 925.5,-855.5 1017.5,-855.5 1017.5,-836.5 925.5,-836.5"/>
<text text-anchor="middle" x="971.5" y="-843.5" font-family="Helvetica,sans-Serif" font-size="10.00">func_8008D760</text>
</a>
</g>
</g>
<!-- Node15&#45;&gt;Node21 -->
<g id="edge21" class="edge">
<title>Node15&#45;&gt;Node21</title>
<path fill="none" stroke="midnightblue" d="M844.41,-589.94C846.44,-626.44 858.22,-754.75 925,-827 926.2,-828.3 927.5,-829.51 928.88,-830.64"/>
<polygon fill="midnightblue" stroke="midnightblue" points="927.18,-833.71 937.46,-836.27 931.02,-827.86 927.18,-833.71"/>
</g>
<!-- Node22 -->
<g id="node22" class="node">
<title>Node22</title>
<g id="a_node22"><a xlink:href="code__8008C1D0_8c.html#a4ea2da0616ee3c475e4be217dc0bc71f" target="_top" xlink:title=" ">
<polygon fill="white" stroke="black" points="925,-798.5 925,-817.5 1018,-817.5 1018,-798.5 925,-798.5"/>
<text text-anchor="middle" x="971.5" y="-805.5" font-family="Helvetica,sans-Serif" font-size="10.00">func_8008D97C</text>
</a>
</g>
</g>
<!-- Node15&#45;&gt;Node22 -->
<g id="edge22" class="edge">
<title>Node15&#45;&gt;Node22</title>
<path fill="none" stroke="midnightblue" d="M845.07,-589.75C849.16,-622.39 866.61,-729.08 925,-789 926.39,-790.43 927.9,-791.75 929.5,-792.98"/>
<polygon fill="midnightblue" stroke="midnightblue" points="927.76,-796.02 938.1,-798.35 931.47,-790.08 927.76,-796.02"/>
</g>
<!-- Node23 -->
<g id="node23" class="node">
<title>Node23</title>
<g id="a_node23"><a xlink:href="code__8008C1D0_8c.html#a4a437d6caeeaa794bcce43ec60c097e9" target="_top" xlink:title=" ">
<polygon fill="white" stroke="black" points="926,-760.5 926,-779.5 1017,-779.5 1017,-760.5 926,-760.5"/>
<text text-anchor="middle" x="971.5" y="-767.5" font-family="Helvetica,sans-Serif" font-size="10.00">func_8008E884</text>
</a>
</g>
</g>
<!-- Node15&#45;&gt;Node23 -->
<g id="edge23" class="edge">
<title>Node15&#45;&gt;Node23</title>
<path fill="none" stroke="midnightblue" d="M845.98,-589.56C852.34,-618.01 874.86,-703.15 925,-751 926.49,-752.42 928.09,-753.74 929.79,-754.96"/>
<polygon fill="midnightblue" stroke="midnightblue" points="928.42,-758.22 938.8,-760.35 932.01,-752.22 928.42,-758.22"/>
</g>
<!-- Node24 -->
<g id="node24" class="node">
<title>Node24</title>
<g id="a_node24"><a xlink:href="code__8008C1D0_8c.html#a4e2c6d0ba50b7c13695f74f1c2bc7b18" target="_top" xlink:title=" ">
<polygon fill="white" stroke="black" points="925.5,-722.5 925.5,-741.5 1017.5,-741.5 1017.5,-722.5 925.5,-722.5"/>
<text text-anchor="middle" x="971.5" y="-729.5" font-family="Helvetica,sans-Serif" font-size="10.00">func_8008EC34</text>
</a>
</g>
</g>
<!-- Node15&#45;&gt;Node24 -->
<g id="edge24" class="edge">
<title>Node15&#45;&gt;Node24</title>
<path fill="none" stroke="midnightblue" d="M847.49,-589.79C856.57,-613.94 883.16,-677.06 925,-713 926.93,-714.66 929.03,-716.19 931.23,-717.6"/>
<polygon fill="midnightblue" stroke="midnightblue" points="929.62,-720.71 940.07,-722.45 932.98,-714.57 929.62,-720.71"/>
</g>
<!-- Node25 -->
<g id="node25" class="node">
<title>Node25</title>
<g id="a_node25"><a xlink:href="code__8008C1D0_8c.html#ae48f5d9507d1966754bc1aa1bddc4136" target="_top" xlink:title=" ">
<polygon fill="white" stroke="black" points="925.5,-684.5 925.5,-703.5 1017.5,-703.5 1017.5,-684.5 925.5,-684.5"/>
<text text-anchor="middle" x="971.5" y="-691.5" font-family="Helvetica,sans-Serif" font-size="10.00">func_8008EEC4</text>
</a>
</g>
</g>
<!-- Node15&#45;&gt;Node25 -->
<g id="edge25" class="edge">
<title>Node15&#45;&gt;Node25</title>
<path fill="none" stroke="midnightblue" d="M849.97,-589.66C862.03,-608.44 891.03,-650.22 925,-675 927.33,-676.7 929.84,-678.29 932.44,-679.75"/>
<polygon fill="midnightblue" stroke="midnightblue" points="930.98,-682.94 941.49,-684.29 934.12,-676.68 930.98,-682.94"/>
</g>
<!-- Node26 -->
<g id="node26" class="node">
<title>Node26</title>
<g id="a_node26"><a xlink:href="code__8008C1D0_8c.html#a77e26f2cff6381f9ba1575f8da060571" target="_top" xlink:title=" ">
<polygon fill="white" stroke="black" points="926,-646.5 926,-665.5 1017,-665.5 1017,-646.5 926,-646.5"/>
<text text-anchor="middle" x="971.5" y="-653.5" font-family="Helvetica,sans-Serif" font-size="10.00">func_8008F0E8</text>
</a>
</g>
</g>
<!-- Node15&#45;&gt;Node26 -->
<g id="edge26" class="edge">
<title>Node15&#45;&gt;Node26</title>
<path fill="none" stroke="midnightblue" d="M855.81,-589.56C871.12,-601.65 898.96,-622.62 925,-637 928.26,-638.8 931.74,-640.54 935.25,-642.19"/>
<polygon fill="midnightblue" stroke="midnightblue" points="933.97,-645.45 944.53,-646.3 936.81,-639.05 933.97,-645.45"/>
</g>
<!-- Node27 -->
<g id="node27" class="node">
<title>Node27</title>
<g id="a_node27"><a xlink:href="code__8008C1D0_8c.html#ae02351b6bbb678b552ec8864b47fc56c" target="_top" xlink:title=" ">
<polygon fill="white" stroke="black" points="926,-608.5 926,-627.5 1017,-627.5 1017,-608.5 926,-608.5"/>
<text text-anchor="middle" x="971.5" y="-615.5" font-family="Helvetica,sans-Serif" font-size="10.00">func_8008F3E0</text>
</a>
</g>
</g>
<!-- Node15&#45;&gt;Node27 -->
<g id="edge27" class="edge">
<title>Node15&#45;&gt;Node27</title>
<path fill="none" stroke="midnightblue" d="M875.92,-589.59C891.95,-594.4 911.57,-600.3 928.78,-605.47"/>
<polygon fill="midnightblue" stroke="midnightblue" points="928,-608.89 938.59,-608.41 930.02,-602.19 928,-608.89"/>
</g>
<!-- Node28 -->
<g id="node28" class="node">
<title>Node28</title>
<g id="a_node28"><a xlink:href="code__8008C1D0_8c.html#afcf39ca15166fb7561402462930cd979" target="_top" xlink:title=" ">
<polygon fill="white" stroke="black" points="925.5,-570.5 925.5,-589.5 1017.5,-589.5 1017.5,-570.5 925.5,-570.5"/>
<text text-anchor="middle" x="971.5" y="-577.5" font-family="Helvetica,sans-Serif" font-size="10.00">func_8008F5A4</text>
</a>
</g>
</g>
<!-- Node15&#45;&gt;Node28 -->
<g id="edge28" class="edge">
<title>Node15&#45;&gt;Node28</title>
<path fill="none" stroke="midnightblue" d="M889.31,-580C897.58,-580 906.29,-580 914.81,-580"/>
<polygon fill="midnightblue" stroke="midnightblue" points="915.08,-583.5 925.08,-580 915.08,-576.5 915.08,-583.5"/>
</g>
<!-- Node33 -->
<g id="node33" class="node">
<title>Node33</title>
<g id="a_node33"><a xlink:href="code__8008C1D0_8c.html#ab6d84742231847170dd64267f0519cdf" target="_top" xlink:title=" ">
<polygon fill="white" stroke="black" points="925,-532.5 925,-551.5 1018,-551.5 1018,-532.5 925,-532.5"/>
<text text-anchor="middle" x="971.5" y="-539.5" font-family="Helvetica,sans-Serif" font-size="10.00">func_8008FEDC</text>
</a>
</g>
</g>
<!-- Node15&#45;&gt;Node33 -->
<g id="edge33" class="edge">
<title>Node15&#45;&gt;Node33</title>
<path fill="none" stroke="midnightblue" d="M875.92,-570.41C891.95,-565.6 911.57,-559.7 928.78,-554.53"/>
<polygon fill="midnightblue" stroke="midnightblue" points="930.02,-557.81 938.59,-551.59 928,-551.11 930.02,-557.81"/>
</g>
<!-- Node29 -->
<g id="node29" class="node">
<title>Node29</title>
<g id="a_node29"><a xlink:href="code__80057C60_8c.html#a0a55fae21abd30d3c618adef1a9f3ccd" target="_top" xlink:title=" ">
<polygon fill="white" stroke="black" points="1054,-456.5 1054,-475.5 1146,-475.5 1146,-456.5 1054,-456.5"/>
<text text-anchor="middle" x="1100" y="-463.5" font-family="Helvetica,sans-Serif" font-size="10.00">func_8006B8B4</text>
</a>
</g>
</g>
<!-- Node28&#45;&gt;Node29 -->
<g id="edge29" class="edge">
<title>Node28&#45;&gt;Node29</title>
<path fill="none" stroke="midnightblue" d="M1001.51,-570.29C1007.24,-567.72 1013.02,-564.63 1018,-561 1047.46,-539.51 1073.18,-505.24 1087.35,-484.26"/>
<polygon fill="midnightblue" stroke="midnightblue" points="1090.45,-485.93 1093.03,-475.66 1084.6,-482.08 1090.45,-485.93"/>
</g>
<!-- Node30 -->
<g id="node30" class="node">
<title>Node30</title>
<g id="a_node30"><a xlink:href="code__8008C1D0_8c.html#a1c7552c4a370cc015c2726e40f1fdb06" target="_top" xlink:title=" ">
<polygon fill="white" stroke="black" points="1182,-456.5 1182,-475.5 1275,-475.5 1275,-456.5 1182,-456.5"/>
<text text-anchor="middle" x="1228.5" y="-463.5" font-family="Helvetica,sans-Serif" font-size="10.00">func_8008FD4C</text>
</a>
</g>
</g>
<!-- Node29&#45;&gt;Node30 -->
<g id="edge30" class="edge">
<title>Node29&#45;&gt;Node30</title>
<path fill="none" stroke="midnightblue" d="M1146.31,-466C1154.48,-466 1163.08,-466 1171.5,-466"/>
<polygon fill="midnightblue" stroke="midnightblue" points="1171.65,-469.5 1181.65,-466 1171.65,-462.5 1171.65,-469.5"/>
</g>
<!-- Node29&#45;&gt;Node31 -->
<g id="edge31" class="edge">
<title>Node29&#45;&gt;Node31</title>
<path fill="none" stroke="midnightblue" d="M1107.45,-456.32C1127.49,-426.21 1188.94,-333.92 1215.29,-294.34"/>
<polygon fill="midnightblue" stroke="midnightblue" points="1218.29,-296.16 1220.91,-285.89 1212.46,-292.28 1218.29,-296.16"/>
</g>
<!-- Node32 -->
<g id="node32" class="node">
<title>Node32</title>
<g id="a_node32"><a xlink:href="external_8c.html#a62e16f9600e7e9beda2c9d2df10f3561" target="_top" xlink:title=" ">
<polygon fill="white" stroke="black" points="1311,-285.5 1311,-304.5 1383,-304.5 1383,-285.5 1311,-285.5"/>
<text text-anchor="middle" x="1347" y="-292.5" font-family="Helvetica,sans-Serif" font-size="10.00">play_sound</text>
</a>
</g>
</g>
<!-- Node31&#45;&gt;Node32 -->
<g id="edge32" class="edge">
<title>Node31&#45;&gt;Node32</title>
<path fill="none" stroke="midnightblue" d="M1274.54,-283.35C1283.19,-284.76 1292.26,-286.23 1300.91,-287.65"/>
<polygon fill="midnightblue" stroke="midnightblue" points="1300.4,-291.11 1310.83,-289.26 1301.53,-284.2 1300.4,-291.11"/>
</g>
<!-- Node34&#45;&gt;Node32 -->
<g id="edge35" class="edge">
<title>Node34&#45;&gt;Node32</title>
<path fill="none" stroke="midnightblue" d="M889.39,-336.79C901,-335.5 913.46,-334.16 925,-333 1061.51,-319.26 1223.17,-305.32 1300.44,-298.8"/>
<polygon fill="midnightblue" stroke="midnightblue" points="1301.1,-302.26 1310.77,-297.93 1300.51,-295.28 1301.1,-302.26"/>
</g>
<!-- Node37&#45;&gt;Node13 -->
<g id="edge40" class="edge">
<title>Node37&#45;&gt;Node13</title>
<path fill="none" stroke="midnightblue" d="M476.6,-390C485.39,-390 494.7,-390 503.77,-390"/>
<polygon fill="midnightblue" stroke="midnightblue" points="503.88,-393.5 513.88,-390 503.88,-386.5 503.88,-393.5"/>
</g>
<!-- Node41 -->
<g id="node41" class="node">
<title>Node41</title>
<g id="a_node41"><a xlink:href="player__controller_8c.html#a1cff6ed661f8ea8c21c6edb0e307f773" target="_top" xlink:title=" ">
<polygon fill="white" stroke="black" points="1054,-209.5 1054,-228.5 1146,-228.5 1146,-209.5 1054,-209.5"/>
<text text-anchor="middle" x="1100" y="-216.5" font-family="Helvetica,sans-Serif" font-size="10.00">func_8002A8A4</text>
</a>
</g>
</g>
<!-- Node40&#45;&gt;Node41 -->
<g id="edge44" class="edge">
<title>Node40&#45;&gt;Node41</title>
<path fill="none" stroke="midnightblue" d="M448.12,-152.57C464.04,-161.52 489.35,-174.46 513,-181 593.73,-203.33 616.74,-200 700.5,-200 700.5,-200 700.5,-200 844,-200 912.94,-200 992.08,-206.99 1043.68,-212.49"/>
<polygon fill="midnightblue" stroke="midnightblue" points="1043.61,-216.01 1053.93,-213.61 1044.37,-209.05 1043.61,-216.01"/>
</g>
<!-- Node42 -->
<g id="node42" class="node">
<title>Node42</title>
<g id="a_node42"><a xlink:href="player__controller_8c.html#a2cb737102daaec9628aa4e567e01d7b0" target="_top" xlink:title=" ">
<polygon fill="white" stroke="black" points="513,-152.5 513,-171.5 606,-171.5 606,-152.5 513,-152.5"/>
<text text-anchor="middle" x="559.5" y="-159.5" font-family="Helvetica,sans-Serif" font-size="10.00">func_8002BD58</text>
</a>
</g>
</g>
<!-- Node40&#45;&gt;Node42 -->
<g id="edge46" class="edge">
<title>Node40&#45;&gt;Node42</title>
<path fill="none" stroke="midnightblue" d="M477.31,-149.81C485.48,-151.03 494.08,-152.32 502.5,-153.59"/>
<polygon fill="midnightblue" stroke="midnightblue" points="502.24,-157.09 512.65,-155.11 503.28,-150.17 502.24,-157.09"/>
</g>
<!-- Node43 -->
<g id="node43" class="node">
<title>Node43</title>
<g id="a_node43"><a xlink:href="player__controller_8c.html#afa25198abd9181b19344fa368b06ffaa" target="_top" xlink:title=" ">
<polygon fill="white" stroke="black" points="514,-114.5 514,-133.5 605,-133.5 605,-114.5 514,-114.5"/>
<text text-anchor="middle" x="559.5" y="-121.5" font-family="Helvetica,sans-Serif" font-size="10.00">func_80033884</text>
</a>
</g>
</g>
<!-- Node40&#45;&gt;Node43 -->
<g id="edge47" class="edge">
<title>Node40&#45;&gt;Node43</title>
<path fill="none" stroke="midnightblue" d="M477.31,-136.19C485.97,-134.89 495.11,-133.52 504.01,-132.18"/>
<polygon fill="midnightblue" stroke="midnightblue" points="504.56,-135.64 513.93,-130.69 503.52,-128.72 504.56,-135.64"/>
</g>
<!-- Node44 -->
<g id="node44" class="node">
<title>Node44</title>
<g id="a_node44"><a xlink:href="player__controller_8c.html#ab2c05a634e8227ce7a52e2b596b281b3" target="_top" xlink:title=" ">
<polygon fill="white" stroke="black" points="513.5,-76.5 513.5,-95.5 605.5,-95.5 605.5,-76.5 513.5,-76.5"/>
<text text-anchor="middle" x="559.5" y="-83.5" font-family="Helvetica,sans-Serif" font-size="10.00">func_80033A40</text>
</a>
</g>
</g>
<!-- Node40&#45;&gt;Node44 -->
<g id="edge48" class="edge">
<title>Node40&#45;&gt;Node44</title>
<path fill="none" stroke="midnightblue" d="M455.99,-133.32C462.83,-130.44 470.26,-127.2 477,-124 493.35,-116.25 496.64,-112.72 513,-105 516.83,-103.19 520.88,-101.37 524.93,-99.62"/>
<polygon fill="midnightblue" stroke="midnightblue" points="526.4,-102.79 534.24,-95.66 523.66,-96.35 526.4,-102.79"/>
</g>
<!-- Node46 -->
<g id="node46" class="node">
<title>Node46</title>
<g id="a_node46"><a xlink:href="player__controller_8c.html#a1a5b5e02df20372c912e838a46bab65f" target="_top" xlink:title=" ">
<polygon fill="white" stroke="black" points="513.5,-38.5 513.5,-57.5 605.5,-57.5 605.5,-38.5 513.5,-38.5"/>
<text text-anchor="middle" x="559.5" y="-45.5" font-family="Helvetica,sans-Serif" font-size="10.00">func_80036CB4</text>
</a>
</g>
</g>
<!-- Node40&#45;&gt;Node46 -->
<g id="edge50" class="edge">
<title>Node40&#45;&gt;Node46</title>
<path fill="none" stroke="midnightblue" d="M462.05,-133.34C467.37,-130.82 472.6,-127.73 477,-124 499.85,-104.62 490.11,-86.34 513,-67 514.95,-65.36 517.05,-63.84 519.26,-62.44"/>
<polygon fill="midnightblue" stroke="midnightblue" points="521.01,-65.47 528.12,-57.61 517.66,-59.32 521.01,-65.47"/>
</g>
<!-- Node47 -->
<g id="node47" class="node">
<title>Node47</title>
<g id="a_node47"><a xlink:href="player__controller_8c.html#a511b8da63f28e9b1f9cd7d2af7511601" target="_top" xlink:title=" ">
<polygon fill="white" stroke="black" points="514,-0.5 514,-19.5 605,-19.5 605,-0.5 514,-0.5"/>
<text text-anchor="middle" x="559.5" y="-7.5" font-family="Helvetica,sans-Serif" font-size="10.00">func_80038534</text>
</a>
</g>
</g>
<!-- Node40&#45;&gt;Node47 -->
<g id="edge51" class="edge">
<title>Node40&#45;&gt;Node47</title>
<path fill="none" stroke="midnightblue" d="M464.08,-133.33C468.83,-130.85 473.35,-127.79 477,-124 508.33,-91.48 481.61,-61.46 513,-29 514.38,-27.57 515.89,-26.24 517.49,-25.01"/>
<polygon fill="midnightblue" stroke="midnightblue" points="519.46,-27.9 526.07,-19.62 515.74,-21.98 519.46,-27.9"/>
</g>
<!-- Node41&#45;&gt;Node31 -->
<g id="edge45" class="edge">
<title>Node41&#45;&gt;Node31</title>
<path fill="none" stroke="midnightblue" d="M1122.17,-228.54C1142.61,-237.75 1173.76,-251.78 1196.89,-262.21"/>
<polygon fill="midnightblue" stroke="midnightblue" points="1195.7,-265.51 1206.26,-266.43 1198.58,-259.13 1195.7,-265.51"/>
</g>
<!-- Node45 -->
<g id="node45" class="node">
<title>Node45</title>
<g id="a_node45"><a xlink:href="player__controller_8c.html#a27292f58c6f927c906a1b4007cb7c8b9" target="_top" xlink:title=" ">
<polygon fill="white" stroke="black" points="656,-76.5 656,-95.5 747,-95.5 747,-76.5 656,-76.5"/>
<text text-anchor="middle" x="701.5" y="-83.5" font-family="Helvetica,sans-Serif" font-size="10.00">func_80033850</text>
</a>
</g>
</g>
<!-- Node44&#45;&gt;Node45 -->
<g id="edge49" class="edge">
<title>Node44&#45;&gt;Node45</title>
<path fill="none" stroke="midnightblue" d="M605.57,-86C618.43,-86 632.59,-86 645.96,-86"/>
<polygon fill="midnightblue" stroke="midnightblue" points="646,-89.5 656,-86 646,-82.5 646,-89.5"/>
</g>
<!-- Node49&#45;&gt;Node4 -->
<g id="edge56" class="edge">
<title>Node49&#45;&gt;Node4</title>
<path fill="none" stroke="midnightblue" d="M590.93,-361.56C596.3,-364.09 601.58,-367.21 606,-371 648.26,-407.28 677.21,-467.33 691.08,-501.05"/>
<polygon fill="midnightblue" stroke="midnightblue" points="687.94,-502.62 694.9,-510.61 694.44,-500.03 687.94,-502.62"/>
</g>
<!-- Node49&#45;&gt;Node14 -->
<g id="edge55" class="edge">
<title>Node49&#45;&gt;Node14</title>
<path fill="none" stroke="midnightblue" d="M600.62,-357.44C614.67,-359.35 630.69,-361.53 645.73,-363.57"/>
<polygon fill="midnightblue" stroke="midnightblue" points="645.57,-367.08 655.95,-364.95 646.51,-360.14 645.57,-367.08"/>
</g>
</g>
</svg>
