<?xml version="1.0" encoding="UTF-8" standalone="no"?>
<!DOCTYPE svg PUBLIC "-//W3C//DTD SVG 1.1//EN"
 "http://www.w3.org/Graphics/SVG/1.1/DTD/svg11.dtd">
<!-- Generated by graphviz version 2.43.0 (0)
 -->
<!-- Title: spawn_timer Pages: 1 -->
<svg width="714pt" height="225pt"
 viewBox="0.00 0.00 714.00 225.00" xmlns="http://www.w3.org/2000/svg" xmlns:xlink="http://www.w3.org/1999/xlink">
<g id="graph0" class="graph" transform="scale(1 1) rotate(0) translate(4 221)">
<title>spawn_timer</title>
<polygon fill="white" stroke="transparent" points="-4,4 -4,-221 710,-221 710,4 -4,4"/>
<!-- Node1 -->
<g id="node1" class="node">
<title>Node1</title>
<g id="a_node1"><a xlink:title=" ">
<polygon fill="#bfbfbf" stroke="black" points="0,-83.5 0,-102.5 80,-102.5 80,-83.5 0,-83.5"/>
<text text-anchor="middle" x="40" y="-90.5" font-family="Helvetica,sans-Serif" font-size="10.00">spawn_timer</text>
</a>
</g>
</g>
<!-- Node2 -->
<g id="node2" class="node">
<title>Node2</title>
<g id="a_node2"><a xlink:href="guLookAtF_8c.html#a221be5535617db52477d4cb992afa4a9" target="_top" xlink:title=" ">
<polygon fill="white" stroke="black" points="143,-159.5 143,-178.5 211,-178.5 211,-159.5 143,-159.5"/>
<text text-anchor="middle" x="177" y="-166.5" font-family="Helvetica,sans-Serif" font-size="10.00">guLookAtF</text>
</a>
</g>
</g>
<!-- Node1&#45;&gt;Node2 -->
<g id="edge1" class="edge">
<title>Node1&#45;&gt;Node2</title>
<path fill="none" stroke="midnightblue" d="M58.1,-102.63C81.33,-115.7 123.06,-139.2 150.13,-154.44"/>
<polygon fill="midnightblue" stroke="midnightblue" points="148.61,-157.6 159.04,-159.45 152.04,-151.5 148.61,-157.6"/>
</g>
<!-- Node5 -->
<g id="node5" class="node">
<title>Node5</title>
<g id="a_node5"><a xlink:href="podium__ceremony__actors_8c.html#a0eba64d54e879f56a0e8d00fab2cb246" target="_top" xlink:title=" ">
<polygon fill="white" stroke="black" points="129.5,-45.5 129.5,-64.5 224.5,-64.5 224.5,-45.5 129.5,-45.5"/>
<text text-anchor="middle" x="177" y="-52.5" font-family="Helvetica,sans-Serif" font-size="10.00">spawn_balloons</text>
</a>
</g>
</g>
<!-- Node1&#45;&gt;Node5 -->
<g id="edge4" class="edge">
<title>Node1&#45;&gt;Node5</title>
<path fill="none" stroke="midnightblue" d="M75.07,-83.41C92.41,-78.53 113.7,-72.54 132.25,-67.32"/>
<polygon fill="midnightblue" stroke="midnightblue" points="133.27,-70.66 141.94,-64.59 131.37,-63.93 133.27,-70.66"/>
</g>
<!-- Node13 -->
<g id="node13" class="node">
<title>Node13</title>
<g id="a_node13"><a xlink:href="podium__ceremony__actors_8c.html#afda3e6d4e6be57822a6c8f45f9b8a34c" target="_top" xlink:title=" ">
<polygon fill="white" stroke="black" points="116,-83.5 116,-102.5 238,-102.5 238,-83.5 116,-83.5"/>
<text text-anchor="middle" x="177" y="-90.5" font-family="Helvetica,sans-Serif" font-size="10.00">spawn_firework_cone</text>
</a>
</g>
</g>
<!-- Node1&#45;&gt;Node13 -->
<g id="edge14" class="edge">
<title>Node1&#45;&gt;Node13</title>
<path fill="none" stroke="midnightblue" d="M80.05,-93C88.19,-93 97.02,-93 105.9,-93"/>
<polygon fill="midnightblue" stroke="midnightblue" points="105.93,-96.5 115.93,-93 105.93,-89.5 105.93,-96.5"/>
</g>
<!-- Node3 -->
<g id="node3" class="node">
<title>Node3</title>
<g id="a_node3"><a xlink:href="guMtxF2L_8c.html#a257a86497fc08677370948eda3163595" target="_top" xlink:title=" ">
<polygon fill="white" stroke="black" points="293,-159.5 293,-178.5 371,-178.5 371,-159.5 293,-159.5"/>
<text text-anchor="middle" x="332" y="-166.5" font-family="Helvetica,sans-Serif" font-size="10.00">guMtxIdentF</text>
</a>
</g>
</g>
<!-- Node2&#45;&gt;Node3 -->
<g id="edge2" class="edge">
<title>Node2&#45;&gt;Node3</title>
<path fill="none" stroke="midnightblue" d="M211.2,-169C232.1,-169 259.43,-169 282.71,-169"/>
<polygon fill="midnightblue" stroke="midnightblue" points="282.74,-172.5 292.74,-169 282.74,-165.5 282.74,-172.5"/>
</g>
<!-- Node4 -->
<g id="node4" class="node">
<title>Node4</title>
<g id="a_node4"><a xlink:href="math_8h.html#a37bde043e94a6f074c78f10518fb5d99" target="_top" xlink:title=" ">
<polygon fill="white" stroke="black" points="312.5,-197.5 312.5,-216.5 351.5,-216.5 351.5,-197.5 312.5,-197.5"/>
<text text-anchor="middle" x="332" y="-204.5" font-family="Helvetica,sans-Serif" font-size="10.00">sqrtf</text>
</a>
</g>
</g>
<!-- Node2&#45;&gt;Node4 -->
<g id="edge3" class="edge">
<title>Node2&#45;&gt;Node4</title>
<path fill="none" stroke="midnightblue" d="M211.2,-177.25C238.39,-184 276.46,-193.45 302.34,-199.88"/>
<polygon fill="midnightblue" stroke="midnightblue" points="301.73,-203.34 312.28,-202.35 303.42,-196.54 301.73,-203.34"/>
</g>
<!-- Node6 -->
<g id="node6" class="node">
<title>Node6</title>
<g id="a_node6"><a xlink:href="podium__ceremony__actors_8c.html#a47b226368687c26f3f50c7c2b4a9d305" target="_top" xlink:title=" ">
<polygon fill="white" stroke="black" points="298.5,-121.5 298.5,-140.5 365.5,-140.5 365.5,-121.5 298.5,-121.5"/>
<text text-anchor="middle" x="332" y="-128.5" font-family="Helvetica,sans-Serif" font-size="10.00">new_actor</text>
</a>
</g>
</g>
<!-- Node5&#45;&gt;Node6 -->
<g id="edge5" class="edge">
<title>Node5&#45;&gt;Node6</title>
<path fill="none" stroke="midnightblue" d="M213.12,-64.55C221.43,-67.23 230.15,-70.42 238,-74 263.76,-85.76 291.16,-103.23 309.49,-115.73"/>
<polygon fill="midnightblue" stroke="midnightblue" points="307.5,-118.6 317.71,-121.41 311.48,-112.85 307.5,-118.6"/>
</g>
<!-- Node10 -->
<g id="node10" class="node">
<title>Node10</title>
<g id="a_node10"><a xlink:href="podium__ceremony__actors_8c.html#a75ee72f9d8cc3f7bbb219fdeb11a3916" target="_top" xlink:title=" ">
<polygon fill="white" stroke="black" points="426,-30 426,-60 554,-60 554,-30 426,-30"/>
<text text-anchor="start" x="434" y="-48" font-family="Helvetica,sans-Serif" font-size="10.00">random_float_between</text>
<text text-anchor="middle" x="490" y="-37" font-family="Helvetica,sans-Serif" font-size="10.00">_0_and_1</text>
</a>
</g>
</g>
<!-- Node5&#45;&gt;Node10 -->
<g id="edge9" class="edge">
<title>Node5&#45;&gt;Node10</title>
<path fill="none" stroke="midnightblue" d="M216.98,-45.49C234.32,-41.72 255.06,-37.86 274,-36 321.06,-31.39 374.14,-33.54 415.78,-36.89"/>
<polygon fill="midnightblue" stroke="midnightblue" points="415.58,-40.38 425.84,-37.74 416.17,-33.41 415.58,-40.38"/>
</g>
<!-- Node11 -->
<g id="node11" class="node">
<title>Node11</title>
<g id="a_node11"><a xlink:href="podium__ceremony__actors_8c.html#a1ac704186b642f21eef90523a8545c17" target="_top" xlink:title=" ">
<polygon fill="white" stroke="black" points="590,-0.5 590,-19.5 706,-19.5 706,-0.5 590,-0.5"/>
<text text-anchor="middle" x="648" y="-7.5" font-family="Helvetica,sans-Serif" font-size="10.00">random_u16_credits</text>
</a>
</g>
</g>
<!-- Node5&#45;&gt;Node11 -->
<g id="edge11" class="edge">
<title>Node5&#45;&gt;Node11</title>
<path fill="none" stroke="midnightblue" d="M208.81,-45.39C227.49,-39.96 251.9,-33.57 274,-30 379.78,-12.9 504.39,-9.55 579.47,-9.31"/>
<polygon fill="midnightblue" stroke="midnightblue" points="579.73,-12.81 589.72,-9.3 579.72,-5.81 579.73,-12.81"/>
</g>
<!-- Node12 -->
<g id="node12" class="node">
<title>Node12</title>
<g id="a_node12"><a xlink:href="podium__ceremony__actors_8c.html#ab4a2b3023e104635f01e66a08874f578" target="_top" xlink:title=" ">
<polygon fill="white" stroke="black" points="274,-45.5 274,-64.5 390,-64.5 390,-45.5 274,-45.5"/>
<text text-anchor="middle" x="332" y="-52.5" font-family="Helvetica,sans-Serif" font-size="10.00">random_who_knows</text>
</a>
</g>
</g>
<!-- Node5&#45;&gt;Node12 -->
<g id="edge12" class="edge">
<title>Node5&#45;&gt;Node12</title>
<path fill="none" stroke="midnightblue" d="M224.74,-55C236.94,-55 250.34,-55 263.39,-55"/>
<polygon fill="midnightblue" stroke="midnightblue" points="263.76,-58.5 273.76,-55 263.76,-51.5 263.76,-58.5"/>
</g>
<!-- Node7 -->
<g id="node7" class="node">
<title>Node7</title>
<g id="a_node7"><a xlink:href="podium__ceremony__actors_8c.html#a50de4a94676053c94f4206e9ba364b53" target="_top" xlink:title=" ">
<polygon fill="white" stroke="black" points="432,-130.5 432,-149.5 548,-149.5 548,-130.5 432,-130.5"/>
<text text-anchor="middle" x="490" y="-137.5" font-family="Helvetica,sans-Serif" font-size="10.00">find_available_entry</text>
</a>
</g>
</g>
<!-- Node6&#45;&gt;Node7 -->
<g id="edge6" class="edge">
<title>Node6&#45;&gt;Node7</title>
<path fill="none" stroke="midnightblue" d="M365.7,-132.89C381.98,-133.83 402.3,-135 421.71,-136.12"/>
<polygon fill="midnightblue" stroke="midnightblue" points="421.56,-139.62 431.75,-136.7 421.97,-132.63 421.56,-139.62"/>
</g>
<!-- Node9 -->
<g id="node9" class="node">
<title>Node9</title>
<g id="a_node9"><a xlink:href="podium__ceremony__actors_8c.html#ade046f0ae71fd0bf16b218c94452509d" target="_top" xlink:title=" ">
<polygon fill="white" stroke="black" points="435.5,-92.5 435.5,-111.5 544.5,-111.5 544.5,-92.5 435.5,-92.5"/>
<text text-anchor="middle" x="490" y="-99.5" font-family="Helvetica,sans-Serif" font-size="10.00">set_initial_position</text>
</a>
</g>
</g>
<!-- Node6&#45;&gt;Node9 -->
<g id="edge8" class="edge">
<title>Node6&#45;&gt;Node9</title>
<path fill="none" stroke="midnightblue" d="M365.7,-124.92C383.67,-121.58 406.55,-117.33 427.71,-113.39"/>
<polygon fill="midnightblue" stroke="midnightblue" points="428.42,-116.82 437.61,-111.55 427.14,-109.94 428.42,-116.82"/>
</g>
<!-- Node8 -->
<g id="node8" class="node">
<title>Node8</title>
<g id="a_node8"><a xlink:href="bstring_8h.html#ab828ad07c8ebf898973f27778c543651" target="_top" xlink:title=" ">
<polygon fill="white" stroke="black" points="626,-130.5 626,-149.5 670,-149.5 670,-130.5 626,-130.5"/>
<text text-anchor="middle" x="648" y="-137.5" font-family="Helvetica,sans-Serif" font-size="10.00">bzero</text>
</a>
</g>
</g>
<!-- Node7&#45;&gt;Node8 -->
<g id="edge7" class="edge">
<title>Node7&#45;&gt;Node8</title>
<path fill="none" stroke="midnightblue" d="M548.2,-140C571.09,-140 596.56,-140 615.91,-140"/>
<polygon fill="midnightblue" stroke="midnightblue" points="615.97,-143.5 625.97,-140 615.97,-136.5 615.97,-143.5"/>
</g>
<!-- Node10&#45;&gt;Node11 -->
<g id="edge10" class="edge">
<title>Node10&#45;&gt;Node11</title>
<path fill="none" stroke="midnightblue" d="M554,-30.87C567.35,-27.87 581.3,-24.74 594.22,-21.84"/>
<polygon fill="midnightblue" stroke="midnightblue" points="595.34,-25.18 604.33,-19.57 593.8,-18.35 595.34,-25.18"/>
</g>
<!-- Node12&#45;&gt;Node10 -->
<g id="edge13" class="edge">
<title>Node12&#45;&gt;Node10</title>
<path fill="none" stroke="midnightblue" d="M390.2,-51.33C398.52,-50.8 407.17,-50.25 415.74,-49.7"/>
<polygon fill="midnightblue" stroke="midnightblue" points="416,-53.19 425.75,-49.05 415.55,-46.2 416,-53.19"/>
</g>
<!-- Node13&#45;&gt;Node6 -->
<g id="edge15" class="edge">
<title>Node13&#45;&gt;Node6</title>
<path fill="none" stroke="midnightblue" d="M216.61,-102.59C238.49,-108.02 265.9,-114.83 288.4,-120.42"/>
<polygon fill="midnightblue" stroke="midnightblue" points="287.81,-123.88 298.36,-122.89 289.5,-117.09 287.81,-123.88"/>
</g>
<!-- Node13&#45;&gt;Node10 -->
<g id="edge16" class="edge">
<title>Node13&#45;&gt;Node10</title>
<path fill="none" stroke="midnightblue" d="M238.29,-90.74C280.95,-88.37 339.35,-83.59 390,-74 404.73,-71.21 420.4,-67.15 434.84,-62.94"/>
<polygon fill="midnightblue" stroke="midnightblue" points="436.03,-66.24 444.6,-60.02 434.02,-59.53 436.03,-66.24"/>
</g>
<!-- Node13&#45;&gt;Node12 -->
<g id="edge17" class="edge">
<title>Node13&#45;&gt;Node12</title>
<path fill="none" stroke="midnightblue" d="M216.61,-83.41C236.71,-78.42 261.48,-72.27 282.82,-66.97"/>
<polygon fill="midnightblue" stroke="midnightblue" points="283.81,-70.33 292.67,-64.52 282.12,-63.53 283.81,-70.33"/>
</g>
</g>
</svg>
