<?xml version="1.0" encoding="UTF-8" standalone="no"?>
<!DOCTYPE svg PUBLIC "-//W3C//DTD SVG 1.1//EN"
 "http://www.w3.org/Graphics/SVG/1.1/DTD/svg11.dtd">
<!-- Generated by graphviz version 2.43.0 (0)
 -->
<!-- Title: random_who_knows Pages: 1 -->
<svg width="440pt" height="39pt"
 viewBox="0.00 0.00 440.00 39.00" xmlns="http://www.w3.org/2000/svg" xmlns:xlink="http://www.w3.org/1999/xlink">
<g id="graph0" class="graph" transform="scale(1 1) rotate(0) translate(4 35)">
<title>random_who_knows</title>
<polygon fill="white" stroke="transparent" points="-4,4 -4,-35 436,-35 436,4 -4,4"/>
<!-- Node1 -->
<g id="node1" class="node">
<title>Node1</title>
<g id="a_node1"><a xlink:title=" ">
<polygon fill="#bfbfbf" stroke="black" points="0,-6 0,-25 116,-25 116,-6 0,-6"/>
<text text-anchor="middle" x="58" y="-13" font-family="Helvetica,sans-Serif" font-size="10.00">random_who_knows</text>
</a>
</g>
</g>
<!-- Node2 -->
<g id="node2" class="node">
<title>Node2</title>
<g id="a_node2"><a xlink:href="podium__ceremony__actors_8c.html#a75ee72f9d8cc3f7bbb219fdeb11a3916" target="_top" xlink:title=" ">
<polygon fill="white" stroke="black" points="152,-0.5 152,-30.5 280,-30.5 280,-0.5 152,-0.5"/>
<text text-anchor="start" x="160" y="-18.5" font-family="Helvetica,sans-Serif" font-size="10.00">random_float_between</text>
<text text-anchor="middle" x="216" y="-7.5" font-family="Helvetica,sans-Serif" font-size="10.00">_0_and_1</text>
</a>
</g>
</g>
<!-- Node1&#45;&gt;Node2 -->
<g id="edge1" class="edge">
<title>Node1&#45;&gt;Node2</title>
<path fill="none" stroke="midnightblue" d="M116.2,-15.5C124.52,-15.5 133.17,-15.5 141.74,-15.5"/>
<polygon fill="midnightblue" stroke="midnightblue" points="141.75,-19 151.75,-15.5 141.75,-12 141.75,-19"/>
</g>
<!-- Node3 -->
<g id="node3" class="node">
<title>Node3</title>
<g id="a_node3"><a xlink:href="podium__ceremony__actors_8c.html#a1ac704186b642f21eef90523a8545c17" target="_top" xlink:title=" ">
<polygon fill="white" stroke="black" points="316,-6 316,-25 432,-25 432,-6 316,-6"/>
<text text-anchor="middle" x="374" y="-13" font-family="Helvetica,sans-Serif" font-size="10.00">random_u16_credits</text>
</a>
</g>
</g>
<!-- Node2&#45;&gt;Node3 -->
<g id="edge2" class="edge">
<title>Node2&#45;&gt;Node3</title>
<path fill="none" stroke="midnightblue" d="M280,-15.5C288.42,-15.5 297.08,-15.5 305.57,-15.5"/>
<polygon fill="midnightblue" stroke="midnightblue" points="305.81,-19 315.81,-15.5 305.81,-12 305.81,-19"/>
</g>
</g>
</svg>
