<?xml version="1.0" encoding="UTF-8" standalone="no"?>
<!DOCTYPE svg PUBLIC "-//W3C//DTD SVG 1.1//EN"
 "http://www.w3.org/Graphics/SVG/1.1/DTD/svg11.dtd">
<!-- Generated by graphviz version 2.43.0 (0)
 -->
<!-- Title: func_8028EF28 Pages: 1 -->
<!--zoomable 194 -->

<svg id="main" version="1.1" xmlns="http://www.w3.org/2000/svg" xmlns:xlink="http://www.w3.org/1999/xlink" xml:space="preserve" onload="init(evt)">
<style type="text/css"><![CDATA[
.node, .edge {opacity: 0.7;}
.node.selected, .edge.selected {opacity: 1;}
.edge:hover path { stroke: red; }
.edge:hover polygon { stroke: red; fill: red; }
]]></style>

<defs>
  <circle id="rim" cx="0" cy="0" r="7"/>
  <circle id="rim2" cx="0" cy="0" r="3.5"/>
  <g id="zoomPlus">
    <use xlink:href="#rim" fill="#404040"><set attributeName="fill" to="#808080" begin="zoomplus.mouseover" end="zoomplus.mouseout"/></use>
    <path d="M-4,0h8M0,-4v8" fill="none" stroke="white" stroke-width="1.5" pointer-events="none"/>
  </g>
  <g id="zoomMin">
    <use xlink:href="#rim" fill="#404040"><set attributeName="fill" to="#808080" begin="zoomminus.mouseover" end="zoomminus.mouseout"/></use>
    <path d="M-4,0h8" fill="none" stroke="white" stroke-width="1.5" pointer-events="none"/>
  </g>
  <g id="arrowUp" transform="translate(30 24)">
    <use xlink:href="#rim"/>
    <path pointer-events="none" fill="none" stroke="white" stroke-width="1.5" d="M0,-3.0v7 M-2.5,-0.5L0,-3.0L2.5,-0.5"/>
  </g>
  <g id="arrowRight" transform="rotate(90) translate(36 -43)">
    <use xlink:href="#rim"/>
    <path pointer-events="none" fill="none" stroke="white" stroke-width="1.5" d="M0,-3.0v7 M-2.5,-0.5L0,-3.0L2.5,-0.5"/>
  </g>
  <g id="arrowDown" transform="rotate(180) translate(-30 -48)">
    <use xlink:href="#rim"/>
    <path pointer-events="none" fill="none" stroke="white" stroke-width="1.5" d="M0,-3.0v7 M-2.5,-0.5L0,-3.0L2.5,-0.5"/>
  </g>
  <g id="arrowLeft" transform="rotate(270) translate(-36 17)">
    <use xlink:href="#rim"/>
    <path pointer-events="none" fill="none" stroke="white" stroke-width="1.5" d="M0,-3.0v7 M-2.5,-0.5L0,-3.0L2.5,-0.5"/>
  </g>
  <g id="resetDef">
    <use xlink:href="#rim2" fill="#404040"><set attributeName="fill" to="#808080" begin="reset.mouseover" end="reset.mouseout"/></use>
  </g>
</defs>
<script type="application/ecmascript">
var viewWidth = 828;
var viewHeight = 194;
var sectionId = 'dynsection-16';
</script>
<script type="application/ecmascript" xlink:href="svg.min.js"/>
<svg id="graph" class="graph">
<g id="viewport">
<title>func_8028EF28</title>
<!-- Node1 -->
<g id="Node000001" class="node">
<title>Node1</title>
<g id="a_Node000001"><a xlink:title=" ">
<polygon fill="#999999" stroke="#666666" points="91,-112 0,-112 0,-93 91,-93 91,-112"/>
<text text-anchor="middle" x="45.5" y="-100" font-family="Helvetica,sans-Serif" font-size="10.00">func_8028EF28</text>
</a>
</g>
</g>
<!-- Node2 -->
<g id="Node000002" class="node">
<title>Node2</title>
<g id="a_Node000002"><a xlink:href="race__logic_8c.html#aad3e9b44dadfdb847a128a25aa618de5" target="_top" xlink:title=" ">
<polygon fill="white" stroke="#666666" points="252,-186 131,-186 131,-167 252,-167 252,-186"/>
<text text-anchor="middle" x="191.5" y="-174" font-family="Helvetica,sans-Serif" font-size="10.00">add_cinematic_mode</text>
</a>
</g>
</g>
<!-- Node1&#45;&gt;Node2 -->
<g id="edge1_Node000001_Node000002" class="edge">
<title>Node1&#45;&gt;Node2</title>
<g id="a_edge1_Node000001_Node000002"><a xlink:title=" ">
<path fill="none" stroke="#63b8ff" d="M57.75,-112.16C72.66,-124.51 100.22,-145.83 127,-158.5 131.01,-160.4 135.26,-162.13 139.59,-163.71"/>
<polygon fill="#63b8ff" stroke="#63b8ff" points="138.53,-167.05 149.12,-166.92 140.76,-160.41 138.53,-167.05"/>
</a>
</g>
</g>
<!-- Node3 -->
<g id="Node000003" class="node">
<title>Node3</title>
<g id="a_Node000003"><a xlink:href="replays_8c.html#aedb1050835c582e17394a9c176bc2e78" target="_top" xlink:title=" ">
<polygon fill="white" stroke="#666666" points="237.5,-149 145.5,-149 145.5,-130 237.5,-130 237.5,-149"/>
<text text-anchor="middle" x="191.5" y="-137" font-family="Helvetica,sans-Serif" font-size="10.00">func_80005AE8</text>
</a>
</g>
</g>
<!-- Node1&#45;&gt;Node3 -->
<g id="edge2_Node000001_Node000003" class="edge">
<title>Node1&#45;&gt;Node3</title>
<g id="a_edge2_Node000001_Node000003"><a xlink:title=" ">
<path fill="none" stroke="#63b8ff" d="M83.58,-112.03C101.75,-116.7 123.83,-122.37 143.2,-127.35"/>
<polygon fill="#63b8ff" stroke="#63b8ff" points="142.49,-130.78 153.04,-129.88 144.23,-124 142.49,-130.78"/>
</a>
</g>
</g>
<!-- Node4 -->
<g id="Node000004" class="node">
<title>Node4</title>
<g id="a_Node000004"><a xlink:href="external_8c.html#a6bb2826cc804a0c5050b58e528cea272" target="_top" xlink:title=" ">
<polygon fill="white" stroke="#666666" points="237.5,-112 145.5,-112 145.5,-93 237.5,-93 237.5,-112"/>
<text text-anchor="middle" x="191.5" y="-100" font-family="Helvetica,sans-Serif" font-size="10.00">func_800CA118</text>
</a>
</g>
</g>
<!-- Node1&#45;&gt;Node4 -->
<g id="edge3_Node000001_Node000004" class="edge">
<title>Node1&#45;&gt;Node4</title>
<g id="a_edge3_Node000001_Node000004"><a xlink:title=" ">
<path fill="none" stroke="#63b8ff" d="M91.27,-102.5C105.09,-102.5 120.48,-102.5 134.93,-102.5"/>
<polygon fill="#63b8ff" stroke="#63b8ff" points="135.26,-106 145.26,-102.5 135.26,-99 135.26,-106"/>
</a>
</g>
</g>
<!-- Node12 -->
<g id="Node000012" class="node">
<title>Node12</title>
<g id="a_Node000012"><a xlink:href="external_8c.html#a7759196be86a1b74359dde21e3eeca94" target="_top" xlink:title=" ">
<polygon fill="white" stroke="#666666" points="238,-75 145,-75 145,-56 238,-56 238,-75"/>
<text text-anchor="middle" x="191.5" y="-63" font-family="Helvetica,sans-Serif" font-size="10.00">func_800CA49C</text>
</a>
</g>
</g>
<!-- Node1&#45;&gt;Node12 -->
<g id="edge11_Node000001_Node000012" class="edge">
<title>Node1&#45;&gt;Node12</title>
<g id="a_edge11_Node000001_Node000012"><a xlink:title=" ">
<path fill="none" stroke="#63b8ff" d="M83.58,-92.97C101.75,-88.3 123.83,-82.63 143.2,-77.65"/>
<polygon fill="#63b8ff" stroke="#63b8ff" points="144.23,-81 153.04,-75.12 142.49,-74.22 144.23,-81"/>
</a>
</g>
</g>
<!-- Node17 -->
<g id="Node000017" class="node">
<title>Node17</title>
<g id="a_Node000017"><a xlink:href="cpu__vehicles__camera__path_8c.html#a9fc4cde6a11c3d5856e79a4a78b1dbfd" target="_top" xlink:title=" ">
<polygon fill="white" stroke="#666666" points="256,-37.5 127,-37.5 127,-7.5 256,-7.5 256,-37.5"/>
<text text-anchor="start" x="135" y="-25.5" font-family="Helvetica,sans-Serif" font-size="10.00">set_places_end_course</text>
<text text-anchor="middle" x="191.5" y="-14.5" font-family="Helvetica,sans-Serif" font-size="10.00">_with_time</text>
</a>
</g>
</g>
<!-- Node1&#45;&gt;Node17 -->
<g id="edge17_Node000001_Node000017" class="edge">
<title>Node1&#45;&gt;Node17</title>
<g id="a_edge17_Node000001_Node000017"><a xlink:title=" ">
<path fill="none" stroke="#63b8ff" d="M58.77,-92.82C74.1,-81.04 101.42,-61.05 127,-47.5 130.77,-45.5 134.73,-43.57 138.76,-41.73"/>
<polygon fill="#63b8ff" stroke="#63b8ff" points="140.46,-44.81 148.23,-37.6 137.66,-38.39 140.46,-44.81"/>
</a>
</g>
</g>
<!-- Node5 -->
<g id="Node000005" class="node">
<title>Node5</title>
<g id="a_Node000005"><a xlink:href="external_8c.html#a518bea6c084cccd3443950737f53a97a" target="_top" xlink:title=" ">
<polygon fill="white" stroke="#666666" points="385.5,-132 293.5,-132 293.5,-113 385.5,-113 385.5,-132"/>
<text text-anchor="middle" x="339.5" y="-120" font-family="Helvetica,sans-Serif" font-size="10.00">func_800CA0E4</text>
</a>
</g>
</g>
<!-- Node4&#45;&gt;Node5 -->
<g id="edge4_Node000004_Node000005" class="edge">
<title>Node4&#45;&gt;Node5</title>
<g id="a_edge4_Node000004_Node000005"><a xlink:title=" ">
<path fill="none" stroke="#63b8ff" d="M237.89,-108.72C252.25,-110.68 268.27,-112.88 283.23,-114.93"/>
<polygon fill="#63b8ff" stroke="#63b8ff" points="283,-118.43 293.38,-116.32 283.95,-111.49 283,-118.43"/>
</a>
</g>
</g>
<!-- Node6 -->
<g id="Node000006" class="node">
<title>Node6</title>
<g id="a_Node000006"><a xlink:href="external_8c.html#a3d8334bd4e9a682bd18c614fd427004e" target="_top" xlink:title=" ">
<polygon fill="white" stroke="#666666" points="515,-132 423,-132 423,-113 515,-113 515,-132"/>
<text text-anchor="middle" x="469" y="-120" font-family="Helvetica,sans-Serif" font-size="10.00">func_800C5278</text>
</a>
</g>
</g>
<!-- Node5&#45;&gt;Node6 -->
<g id="edge5_Node000005_Node000006" class="edge">
<title>Node5&#45;&gt;Node6</title>
<g id="a_edge5_Node000005_Node000006"><a xlink:title=" ">
<path fill="none" stroke="#63b8ff" d="M385.81,-122.5C394.55,-122.5 403.79,-122.5 412.8,-122.5"/>
<polygon fill="#63b8ff" stroke="#63b8ff" points="412.84,-126 422.84,-122.5 412.84,-119 412.84,-126"/>
</a>
</g>
</g>
<!-- Node7 -->
<g id="Node000007" class="node">
<title>Node7</title>
<g id="a_Node000007"><a xlink:href="external_8c.html#ac0fb767de7e14a03f1bcfa53f0abd23b" target="_top" xlink:title=" ">
<polygon fill="white" stroke="#666666" points="691,-169 551,-169 551,-150 691,-150 691,-169"/>
<text text-anchor="middle" x="621" y="-157" font-family="Helvetica,sans-Serif" font-size="10.00">delete_sound_from_bank</text>
</a>
</g>
</g>
<!-- Node6&#45;&gt;Node7 -->
<g id="edge6_Node000006_Node000007" class="edge">
<title>Node6&#45;&gt;Node7</title>
<g id="a_edge6_Node000006_Node000007"><a xlink:title=" ">
<path fill="none" stroke="#63b8ff" d="M508.63,-132.03C527.8,-136.76 551.16,-142.52 571.52,-147.54"/>
<polygon fill="#63b8ff" stroke="#63b8ff" points="570.69,-150.94 581.24,-149.94 572.37,-144.15 570.69,-150.94"/>
</a>
</g>
</g>
<!-- Node9 -->
<g id="Node000009" class="node">
<title>Node9</title>
<g id="a_Node000009"><a xlink:href="external_8c.html#ab83bd36e63f0f1baddcb2482b5ad31b0" target="_top" xlink:title=" ">
<polygon fill="white" stroke="#666666" points="667.5,-132 574.5,-132 574.5,-113 667.5,-113 667.5,-132"/>
<text text-anchor="middle" x="621" y="-120" font-family="Helvetica,sans-Serif" font-size="10.00">func_800C41CC</text>
</a>
</g>
</g>
<!-- Node6&#45;&gt;Node9 -->
<g id="edge8_Node000006_Node000009" class="edge">
<title>Node6&#45;&gt;Node9</title>
<g id="a_edge8_Node000006_Node000009"><a xlink:title=" ">
<path fill="none" stroke="#63b8ff" d="M515,-122.5C530.37,-122.5 547.74,-122.5 563.86,-122.5"/>
<polygon fill="#63b8ff" stroke="#63b8ff" points="564.25,-126 574.25,-122.5 564.25,-119 564.25,-126"/>
</a>
</g>
</g>
<!-- Node10 -->
<g id="Node000010" class="node">
<title>Node10</title>
<g id="a_Node000010"><a xlink:href="port__eu_8c.html#aa89dfaecca46c6d071f08c1898d1f7c9" target="_top" xlink:title=" ">
<polygon fill="white" stroke="#666666" points="667.5,-95 574.5,-95 574.5,-76 667.5,-76 667.5,-95"/>
<text text-anchor="middle" x="621" y="-83" font-family="Helvetica,sans-Serif" font-size="10.00">func_800CBBE8</text>
</a>
</g>
</g>
<!-- Node6&#45;&gt;Node10 -->
<g id="edge9_Node000006_Node000010" class="edge">
<title>Node6&#45;&gt;Node10</title>
<g id="a_edge9_Node000006_Node000010"><a xlink:title=" ">
<path fill="none" stroke="#63b8ff" d="M508.63,-112.97C527.8,-108.24 551.16,-102.48 571.52,-97.46"/>
<polygon fill="#63b8ff" stroke="#63b8ff" points="572.37,-100.85 581.24,-95.06 570.69,-94.06 572.37,-100.85"/>
</a>
</g>
</g>
<!-- Node8 -->
<g id="Node000008" class="node">
<title>Node8</title>
<g id="a_Node000008"><a xlink:href="external_8c.html#a358ac55e8ab5262dcae8037334be06d7" target="_top" xlink:title=" ">
<polygon fill="white" stroke="#666666" points="819.5,-169 727.5,-169 727.5,-150 819.5,-150 819.5,-169"/>
<text text-anchor="middle" x="773.5" y="-157" font-family="Helvetica,sans-Serif" font-size="10.00">func_800C40F0</text>
</a>
</g>
</g>
<!-- Node7&#45;&gt;Node8 -->
<g id="edge7_Node000007_Node000008" class="edge">
<title>Node7&#45;&gt;Node8</title>
<g id="a_edge7_Node000007_Node000008"><a xlink:title=" ">
<path fill="none" stroke="#63b8ff" d="M691.08,-159.5C699.87,-159.5 708.78,-159.5 717.31,-159.5"/>
<polygon fill="#63b8ff" stroke="#63b8ff" points="717.5,-163 727.5,-159.5 717.5,-156 717.5,-163"/>
</a>
</g>
</g>
<!-- Node11 -->
<g id="Node000011" class="node">
<title>Node11</title>
<g id="a_Node000011"><a xlink:href="port__eu_8c.html#af361a20d2e08f30c53a237ca481ff734" target="_top" xlink:title=" ">
<polygon fill="white" stroke="#666666" points="820,-95 727,-95 727,-76 820,-76 820,-95"/>
<text text-anchor="middle" x="773.5" y="-83" font-family="Helvetica,sans-Serif" font-size="10.00">func_800CBB48</text>
</a>
</g>
</g>
<!-- Node10&#45;&gt;Node11 -->
<g id="edge10_Node000010_Node000011" class="edge">
<title>Node10&#45;&gt;Node11</title>
<g id="a_edge10_Node000010_Node000011"><a xlink:title=" ">
<path fill="none" stroke="#63b8ff" d="M667.56,-85.5C682.96,-85.5 700.34,-85.5 716.46,-85.5"/>
<polygon fill="#63b8ff" stroke="#63b8ff" points="716.83,-89 726.83,-85.5 716.83,-82 716.83,-89"/>
</a>
</g>
</g>
<!-- Node13 -->
<g id="Node000013" class="node">
<title>Node13</title>
<g id="a_Node000013"><a xlink:href="external_8c.html#ac48b7cbfcaa7737f892877ead85e4ba7" target="_top" xlink:title=" ">
<polygon fill="white" stroke="#666666" points="515,-75 423,-75 423,-56 515,-56 515,-75"/>
<text text-anchor="middle" x="469" y="-63" font-family="Helvetica,sans-Serif" font-size="10.00">func_800C3448</text>
</a>
</g>
</g>
<!-- Node12&#45;&gt;Node13 -->
<g id="edge12_Node000012_Node000013" class="edge">
<title>Node12&#45;&gt;Node13</title>
<g id="a_edge12_Node000012_Node000013"><a xlink:title=" ">
<path fill="none" stroke="#63b8ff" d="M238.3,-65.5C286.11,-65.5 361.12,-65.5 412.32,-65.5"/>
<polygon fill="#63b8ff" stroke="#63b8ff" points="412.55,-69 422.55,-65.5 412.55,-62 412.55,-69"/>
</a>
</g>
</g>
<!-- Node14 -->
<g id="Node000014" class="node">
<title>Node14</title>
<g id="a_Node000014"><a xlink:href="external_8c.html#a2be9efc97a92e19d02aaee90d676acc1" target="_top" xlink:title=" ">
<polygon fill="white" stroke="#666666" points="385.5,-19 293.5,-19 293.5,0 385.5,0 385.5,-19"/>
<text text-anchor="middle" x="339.5" y="-7" font-family="Helvetica,sans-Serif" font-size="10.00">func_800C9060</text>
</a>
</g>
</g>
<!-- Node12&#45;&gt;Node14 -->
<g id="edge13_Node000012_Node000014" class="edge">
<title>Node12&#45;&gt;Node14</title>
<g id="a_edge13_Node000012_Node000014"><a xlink:title=" ">
<path fill="none" stroke="#63b8ff" d="M228.86,-55.95C237.85,-53.23 247.37,-50.03 256,-46.5 272.75,-39.65 275.54,-35 292,-27.5 295.43,-25.94 299.04,-24.38 302.67,-22.88"/>
<polygon fill="#63b8ff" stroke="#63b8ff" points="304.23,-26.03 312.21,-19.06 301.62,-19.53 304.23,-26.03"/>
</a>
</g>
</g>
<!-- Node16 -->
<g id="Node000016" class="node">
<title>Node16</title>
<g id="a_Node000016"><a xlink:href="external_8c.html#a09ce26bd251215683216e0001814799c" target="_top" xlink:title=" ">
<polygon fill="white" stroke="#666666" points="387,-56 292,-56 292,-37 387,-37 387,-56"/>
<text text-anchor="middle" x="339.5" y="-44" font-family="Helvetica,sans-Serif" font-size="10.00">play_sequence2</text>
</a>
</g>
</g>
<!-- Node12&#45;&gt;Node16 -->
<g id="edge15_Node000012_Node000016" class="edge">
<title>Node12&#45;&gt;Node16</title>
<g id="a_edge15_Node000012_Node000016"><a xlink:title=" ">
<path fill="none" stroke="#63b8ff" d="M238.29,-59.54C252.02,-57.75 267.25,-55.77 281.6,-53.9"/>
<polygon fill="#63b8ff" stroke="#63b8ff" points="282.4,-57.33 291.86,-52.57 281.49,-50.39 282.4,-57.33"/>
</a>
</g>
</g>
<!-- Node15 -->
<g id="Node000015" class="node">
<title>Node15</title>
<g id="a_Node000015"><a xlink:href="external_8c.html#a475cff796211891556f52877cd8e9b9e" target="_top" xlink:title=" ">
<polygon fill="white" stroke="#666666" points="505,-19 433,-19 433,0 505,0 505,-19"/>
<text text-anchor="middle" x="469" y="-7" font-family="Helvetica,sans-Serif" font-size="10.00">play_sound</text>
</a>
</g>
</g>
<!-- Node14&#45;&gt;Node15 -->
<g id="edge14_Node000014_Node000015" class="edge">
<title>Node14&#45;&gt;Node15</title>
<g id="a_edge14_Node000014_Node000015"><a xlink:title=" ">
<path fill="none" stroke="#63b8ff" d="M385.81,-9.5C397.77,-9.5 410.67,-9.5 422.63,-9.5"/>
<polygon fill="#63b8ff" stroke="#63b8ff" points="422.85,-13 432.85,-9.5 422.85,-6 422.85,-13"/>
</a>
</g>
</g>
<!-- Node16&#45;&gt;Node13 -->
<g id="edge16_Node000016_Node000013" class="edge">
<title>Node16&#45;&gt;Node13</title>
<g id="a_edge16_Node000016_Node000013"><a xlink:title=" ">
<path fill="none" stroke="#63b8ff" d="M387.25,-53.47C395.63,-54.72 404.43,-56.03 413.01,-57.31"/>
<polygon fill="#63b8ff" stroke="#63b8ff" points="412.55,-60.77 422.95,-58.79 413.58,-53.85 412.55,-60.77"/>
</a>
</g>
</g>
</g>
</svg>

<g id="navigator" transform="translate(0 0)" fill="#404254">
  <rect fill="#f2f5e9" fill-opacity="0.5" stroke="#606060" stroke-width=".5" x="0" y="0" width="60" height="60"/>
  <use id="zoomplus" xlink:href="#zoomPlus" x="17" y="9" onmousedown="handleZoom(evt,'in')"/>
  <use id="zoomminus" xlink:href="#zoomMin" x="42" y="9" onmousedown="handleZoom(evt,'out')"/>
  <use id="reset" xlink:href="#resetDef" x="30" y="36" onmousedown="handleReset()"/>
   <use id="arrowup" xlink:href="#arrowUp" x="0" y="0" onmousedown="handlePan(0,-1)"/>
  <use id="arrowright" xlink:href="#arrowRight" x="0" y="0" onmousedown="handlePan(1,0)"/>
  <use id="arrowdown" xlink:href="#arrowDown" x="0" y="0" onmousedown="handlePan(0,1)"/>
  <use id="arrowleft" xlink:href="#arrowLeft" x="0" y="0" onmousedown="handlePan(-1,0)"/>
</g>
<svg viewBox="0 0 15 15" width="100%" height="30px" preserveAspectRatio="xMaxYMin meet">
 <g id="arrow_out" transform="scale(0.3 0.3)">
  <a xlink:href="race__logic_8h_a2645116d52469ec9b45c668d694e98c4_cgraph_org.svg" target="_base">
   <rect id="button" ry="5" rx="5" y="6" x="6" height="38" width="38"
        fill="#f2f5e9" fill-opacity="0.5" stroke="#606060" stroke-width="1.0"/>
   <path id="arrow"
     d="M 11.500037,31.436501 C 11.940474,20.09759 22.043105,11.32322 32.158766,21.979434 L 37.068811,17.246167 C 37.068811,17.246167 37.088388,32 37.088388,32 L 22.160133,31.978069 C 22.160133,31.978069 26.997745,27.140456 26.997745,27.140456 C 18.528582,18.264221 13.291696,25.230495 11.500037,31.436501 z"
     style="fill:#404040;"/>
  </a>
 </g>
</svg>

<style type='text/css'>
<![CDATA[
[data-mouse-over-selected='false'] { opacity: 0.7; }
[data-mouse-over-selected='true']  { opacity: 1.0; }
]]>
</style>
<script type="application/ecmascript"><![CDATA[
document.addEventListener('DOMContentLoaded', (event) => {
  highlightEdges();
  highlightAdjacentNodes();
});
]]></script>
</svg>
