<?xml version="1.0" encoding="UTF-8" standalone="no"?>
<!DOCTYPE svg PUBLIC "-//W3C//DTD SVG 1.1//EN"
 "http://www.w3.org/Graphics/SVG/1.1/DTD/svg11.dtd">
<!-- Generated by graphviz version 2.43.0 (0)
 -->
<!-- Title: include/PR/rcp.h Pages: 1 -->
<!--zoomable 137 -->

<svg id="main" version="1.1" xmlns="http://www.w3.org/2000/svg" xmlns:xlink="http://www.w3.org/1999/xlink" xml:space="preserve" onload="init(evt)">
<style type="text/css"><![CDATA[
.node, .edge {opacity: 0.7;}
.node.selected, .edge.selected {opacity: 1;}
.edge:hover path { stroke: red; }
.edge:hover polygon { stroke: red; fill: red; }
]]></style>

<defs>
  <circle id="rim" cx="0" cy="0" r="7"/>
  <circle id="rim2" cx="0" cy="0" r="3.5"/>
  <g id="zoomPlus">
    <use xlink:href="#rim" fill="#404040"><set attributeName="fill" to="#808080" begin="zoomplus.mouseover" end="zoomplus.mouseout"/></use>
    <path d="M-4,0h8M0,-4v8" fill="none" stroke="white" stroke-width="1.5" pointer-events="none"/>
  </g>
  <g id="zoomMin">
    <use xlink:href="#rim" fill="#404040"><set attributeName="fill" to="#808080" begin="zoomminus.mouseover" end="zoomminus.mouseout"/></use>
    <path d="M-4,0h8" fill="none" stroke="white" stroke-width="1.5" pointer-events="none"/>
  </g>
  <g id="arrowUp" transform="translate(30 24)">
    <use xlink:href="#rim"/>
    <path pointer-events="none" fill="none" stroke="white" stroke-width="1.5" d="M0,-3.0v7 M-2.5,-0.5L0,-3.0L2.5,-0.5"/>
  </g>
  <g id="arrowRight" transform="rotate(90) translate(36 -43)">
    <use xlink:href="#rim"/>
    <path pointer-events="none" fill="none" stroke="white" stroke-width="1.5" d="M0,-3.0v7 M-2.5,-0.5L0,-3.0L2.5,-0.5"/>
  </g>
  <g id="arrowDown" transform="rotate(180) translate(-30 -48)">
    <use xlink:href="#rim"/>
    <path pointer-events="none" fill="none" stroke="white" stroke-width="1.5" d="M0,-3.0v7 M-2.5,-0.5L0,-3.0L2.5,-0.5"/>
  </g>
  <g id="arrowLeft" transform="rotate(270) translate(-36 17)">
    <use xlink:href="#rim"/>
    <path pointer-events="none" fill="none" stroke="white" stroke-width="1.5" d="M0,-3.0v7 M-2.5,-0.5L0,-3.0L2.5,-0.5"/>
  </g>
  <g id="resetDef">
    <use xlink:href="#rim2" fill="#404040"><set attributeName="fill" to="#808080" begin="reset.mouseover" end="reset.mouseout"/></use>
  </g>
</defs>
<script type="application/ecmascript">
var viewWidth = 2746;
var viewHeight = 137;
var sectionId = 'dynsection-1';
</script>
<script type="application/ecmascript" xlink:href="svg.min.js"/>
<svg id="graph" class="graph">
<g id="viewport">
<title>include/PR/rcp.h</title>
<!-- Node1 -->
<g id="Node000001" class="node">
<title>Node1</title>
<g id="a_Node000001"><a xlink:title=" ">
<polygon fill="#999999" stroke="#666666" points="2013,-129 1918,-129 1918,-110 2013,-110 2013,-129"/>
<text text-anchor="middle" x="1965.5" y="-117" font-family="Helvetica,sans-Serif" font-size="10.00">include/PR/rcp.h</text>
</a>
</g>
</g>
<!-- Node2 -->
<g id="Node000002" class="node">
<title>Node2</title>
<g id="a_Node000002"><a xlink:href="contramread_8c.html" target="_top" xlink:title=" ">
<polygon fill="white" stroke="#666666" points="119,-19 0,-19 0,0 119,0 119,-19"/>
<text text-anchor="middle" x="59.5" y="-7" font-family="Helvetica,sans-Serif" font-size="10.00">src/os/contramread.c</text>
</a>
</g>
</g>
<!-- Node1&#45;&gt;Node2 -->
<g id="edge1_Node000001_Node000002" class="edge">
<title>Node1&#45;&gt;Node2</title>
<g id="a_edge1_Node000001_Node000002"><a xlink:title=" ">
<path fill="none" stroke="#63b8ff" d="M1907.66,-117.55C1731.09,-114.4 1183.43,-102.83 730.5,-74 462.37,-56.93 395.64,-47.65 128.5,-19 125.5,-18.68 122.43,-18.34 119.33,-17.99"/>
<polygon fill="#63b8ff" stroke="#63b8ff" points="1907.71,-121.05 1917.77,-117.73 1907.83,-114.05 1907.71,-121.05"/>
</a>
</g>
</g>
<!-- Node3 -->
<g id="Node000003" class="node">
<title>Node3</title>
<g id="a_Node000003"><a xlink:href="contramwrite_8c.html" target="_top" xlink:title=" ">
<polygon fill="white" stroke="#666666" points="259.5,-19 137.5,-19 137.5,0 259.5,0 259.5,-19"/>
<text text-anchor="middle" x="198.5" y="-7" font-family="Helvetica,sans-Serif" font-size="10.00">src/os/contramwrite.c</text>
</a>
</g>
</g>
<!-- Node1&#45;&gt;Node3 -->
<g id="edge2_Node000001_Node000003" class="edge">
<title>Node1&#45;&gt;Node3</title>
<g id="a_edge2_Node000001_Node000003"><a xlink:title=" ">
<path fill="none" stroke="#63b8ff" d="M1907.68,-116.42C1691.47,-108.35 910.17,-76.71 268.5,-19 265.57,-18.74 262.58,-18.45 259.56,-18.14"/>
<polygon fill="#63b8ff" stroke="#63b8ff" points="1907.72,-119.92 1917.84,-116.79 1907.98,-112.93 1907.72,-119.92"/>
</a>
</g>
</g>
<!-- Node4 -->
<g id="Node000004" class="node">
<title>Node4</title>
<g id="a_Node000004"><a xlink:href="controller_8h.html" target="_top" xlink:title=" ">
<polygon fill="white" stroke="#666666" points="1370,-74 1267,-74 1267,-55 1370,-55 1370,-74"/>
<text text-anchor="middle" x="1318.5" y="-62" font-family="Helvetica,sans-Serif" font-size="10.00">src/os/controller.h</text>
</a>
</g>
</g>
<!-- Node1&#45;&gt;Node4 -->
<g id="edge3_Node000001_Node000004" class="edge">
<title>Node1&#45;&gt;Node4</title>
<g id="a_edge3_Node000001_Node000004"><a xlink:title=" ">
<path fill="none" stroke="#63b8ff" d="M1907.8,-113.77C1782.94,-103.55 1489.35,-79.5 1370.16,-69.73"/>
<polygon fill="#63b8ff" stroke="#63b8ff" points="1907.67,-117.27 1917.92,-114.6 1908.24,-110.3 1907.67,-117.27"/>
</a>
</g>
</g>
<!-- Node20 -->
<g id="Node000020" class="node">
<title>Node20</title>
<g id="a_Node000020"><a xlink:href="leointerrupt_8c.html" target="_top" xlink:title=" ">
<polygon fill="white" stroke="#666666" points="2583,-19 2470,-19 2470,0 2583,0 2583,-19"/>
<text text-anchor="middle" x="2526.5" y="-7" font-family="Helvetica,sans-Serif" font-size="10.00">src/os/leointerrupt.c</text>
</a>
</g>
</g>
<!-- Node1&#45;&gt;Node20 -->
<g id="edge21_Node000001_Node000020" class="edge">
<title>Node1&#45;&gt;Node20</title>
<g id="a_edge21_Node000001_Node000020"><a xlink:title=" ">
<path fill="none" stroke="#63b8ff" d="M1966.06,-99.44C1967.59,-84.87 1972.21,-65.54 1985.5,-55 2026.97,-22.1 2407.85,-24.38 2460.5,-19 2463.6,-18.68 2466.79,-18.34 2470,-17.97"/>
<polygon fill="#63b8ff" stroke="#63b8ff" points="1962.54,-99.65 1965.39,-109.85 1969.52,-100.09 1962.54,-99.65"/>
</a>
</g>
</g>
<!-- Node21 -->
<g id="Node000021" class="node">
<title>Node21</title>
<g id="a_Node000021"><a xlink:href="osCartRomInit_8c.html" target="_top" xlink:title=" ">
<polygon fill="white" stroke="#666666" points="2217.5,-74 2091.5,-74 2091.5,-55 2217.5,-55 2217.5,-74"/>
<text text-anchor="middle" x="2154.5" y="-62" font-family="Helvetica,sans-Serif" font-size="10.00">src/os/osCartRomInit.c</text>
</a>
</g>
</g>
<!-- Node1&#45;&gt;Node21 -->
<g id="edge22_Node000001_Node000021" class="edge">
<title>Node1&#45;&gt;Node21</title>
<g id="a_edge22_Node000001_Node000021"><a xlink:title=" ">
<path fill="none" stroke="#63b8ff" d="M2005.85,-107.18C2041.2,-97.27 2091.8,-83.08 2123.9,-74.08"/>
<polygon fill="#63b8ff" stroke="#63b8ff" points="2004.55,-103.91 1995.87,-109.98 2006.44,-110.65 2004.55,-103.91"/>
</a>
</g>
</g>
<!-- Node22 -->
<g id="Node000022" class="node">
<title>Node22</title>
<g id="a_Node000022"><a xlink:href="piint_8h.html" target="_top" xlink:title=" ">
<polygon fill="white" stroke="#666666" points="2073,-74 1994,-74 1994,-55 2073,-55 2073,-74"/>
<text text-anchor="middle" x="2033.5" y="-62" font-family="Helvetica,sans-Serif" font-size="10.00">src/os/piint.h</text>
</a>
</g>
</g>
<!-- Node1&#45;&gt;Node22 -->
<g id="edge23_Node000001_Node000022" class="edge">
<title>Node1&#45;&gt;Node22</title>
<g id="a_edge23_Node000001_Node000022"><a xlink:title=" ">
<path fill="none" stroke="#63b8ff" d="M1984.62,-103.6C1996.8,-94.11 2012.16,-82.13 2022.38,-74.17"/>
<polygon fill="#63b8ff" stroke="#63b8ff" points="1982.16,-101.08 1976.43,-109.98 1986.46,-106.6 1982.16,-101.08"/>
</a>
</g>
</g>
<!-- Node24 -->
<g id="Node000024" class="node">
<title>Node24</title>
<g id="a_Node000024"><a xlink:href="math__util_8c.html" target="_top" xlink:title=" ">
<polygon fill="white" stroke="#666666" points="2357.5,-74 2235.5,-74 2235.5,-55 2357.5,-55 2357.5,-74"/>
<text text-anchor="middle" x="2296.5" y="-62" font-family="Helvetica,sans-Serif" font-size="10.00">src/racing/math_util.c</text>
</a>
</g>
</g>
<!-- Node1&#45;&gt;Node24 -->
<g id="edge26_Node000001_Node000024" class="edge">
<title>Node1&#45;&gt;Node24</title>
<g id="a_edge26_Node000001_Node000024"><a xlink:title=" ">
<path fill="none" stroke="#63b8ff" d="M2023.29,-109.25C2085.32,-99.31 2183.04,-83.67 2243.26,-74.03"/>
<polygon fill="#63b8ff" stroke="#63b8ff" points="2022.6,-105.81 2013.28,-110.85 2023.7,-112.72 2022.6,-105.81"/>
</a>
</g>
</g>
<!-- Node4&#45;&gt;Node2 -->
<g id="edge5_Node000004_Node000002" class="edge">
<title>Node4&#45;&gt;Node2</title>
<g id="a_edge5_Node000004_Node000002"><a xlink:title=" ">
<path fill="none" stroke="#63b8ff" d="M1256.66,-63.04C1080.23,-61.34 559.38,-53.53 128.5,-19 125.49,-18.76 122.41,-18.48 119.31,-18.18"/>
<polygon fill="#63b8ff" stroke="#63b8ff" points="1256.76,-66.54 1266.79,-63.14 1256.83,-59.54 1256.76,-66.54"/>
</a>
</g>
</g>
<!-- Node4&#45;&gt;Node3 -->
<g id="edge6_Node000004_Node000003" class="edge">
<title>Node4&#45;&gt;Node3</title>
<g id="a_edge6_Node000004_Node000003"><a xlink:title=" ">
<path fill="none" stroke="#63b8ff" d="M1256.82,-61.52C1062.18,-55.19 462.45,-34.86 268.5,-19 265.57,-18.76 262.58,-18.49 259.55,-18.2"/>
<polygon fill="#63b8ff" stroke="#63b8ff" points="1256.76,-65.02 1266.87,-61.85 1256.99,-58.03 1256.76,-65.02"/>
</a>
</g>
</g>
<!-- Node5 -->
<g id="Node000005" class="node">
<title>Node5</title>
<g id="a_Node000005"><a xlink:href="contpfs_8c.html" target="_top" xlink:title=" ">
<polygon fill="white" stroke="#666666" points="836.5,-19 744.5,-19 744.5,0 836.5,0 836.5,-19"/>
<text text-anchor="middle" x="790.5" y="-7" font-family="Helvetica,sans-Serif" font-size="10.00">src/os/contpfs.c</text>
</a>
</g>
</g>
<!-- Node4&#45;&gt;Node5 -->
<g id="edge4_Node000004_Node000005" class="edge">
<title>Node4&#45;&gt;Node5</title>
<g id="a_edge4_Node000004_Node000005"><a xlink:title=" ">
<path fill="none" stroke="#63b8ff" d="M1256.87,-58.88C1166.47,-51.84 992.69,-37.28 845.5,-19 842.62,-18.64 839.67,-18.25 836.69,-17.84"/>
<polygon fill="#63b8ff" stroke="#63b8ff" points="1256.71,-62.38 1266.95,-59.66 1257.25,-55.4 1256.71,-62.38"/>
</a>
</g>
</g>
<!-- Node6 -->
<g id="Node000006" class="node">
<title>Node6</title>
<g id="a_Node000006"><a xlink:href="osEepromLongWrite_8c.html" target="_top" xlink:title=" ">
<polygon fill="white" stroke="#666666" points="1010,-19 855,-19 855,0 1010,0 1010,-19"/>
<text text-anchor="middle" x="932.5" y="-7" font-family="Helvetica,sans-Serif" font-size="10.00">src/os/osEepromLongWrite.c</text>
</a>
</g>
</g>
<!-- Node4&#45;&gt;Node6 -->
<g id="edge7_Node000004_Node000006" class="edge">
<title>Node4&#45;&gt;Node6</title>
<g id="a_edge7_Node000004_Node000006"><a xlink:title=" ">
<path fill="none" stroke="#63b8ff" d="M1256.58,-55C1184.67,-45.12 1066.73,-28.93 994.7,-19.04"/>
<polygon fill="#63b8ff" stroke="#63b8ff" points="1256.46,-58.51 1266.84,-56.41 1257.41,-51.58 1256.46,-58.51"/>
</a>
</g>
</g>
<!-- Node7 -->
<g id="Node000007" class="node">
<title>Node7</title>
<g id="a_Node000007"><a xlink:href="osEepromProbe_8c.html" target="_top" xlink:title=" ">
<polygon fill="white" stroke="#666666" points="1161,-19 1028,-19 1028,0 1161,0 1161,-19"/>
<text text-anchor="middle" x="1094.5" y="-7" font-family="Helvetica,sans-Serif" font-size="10.00">src/os/osEepromProbe.c</text>
</a>
</g>
</g>
<!-- Node4&#45;&gt;Node7 -->
<g id="edge8_Node000004_Node000007" class="edge">
<title>Node4&#45;&gt;Node7</title>
<g id="a_edge8_Node000004_Node000007"><a xlink:title=" ">
<path fill="none" stroke="#63b8ff" d="M1272.55,-52.63C1230.59,-42.7 1169.38,-28.22 1130.77,-19.08"/>
<polygon fill="#63b8ff" stroke="#63b8ff" points="1271.97,-56.09 1282.51,-54.98 1273.59,-49.28 1271.97,-56.09"/>
</a>
</g>
</g>
<!-- Node8 -->
<g id="Node000008" class="node">
<title>Node8</title>
<g id="a_Node000008"><a xlink:href="osEepromRead_8c.html" target="_top" xlink:title=" ">
<polygon fill="white" stroke="#666666" points="1309.5,-19 1179.5,-19 1179.5,0 1309.5,0 1309.5,-19"/>
<text text-anchor="middle" x="1244.5" y="-7" font-family="Helvetica,sans-Serif" font-size="10.00">src/os/osEepromRead.c</text>
</a>
</g>
</g>
<!-- Node4&#45;&gt;Node8 -->
<g id="edge9_Node000004_Node000008" class="edge">
<title>Node4&#45;&gt;Node8</title>
<g id="a_edge9_Node000004_Node000008"><a xlink:title=" ">
<path fill="none" stroke="#63b8ff" d="M1298.47,-49.15C1285.09,-39.57 1267.94,-27.29 1256.61,-19.17"/>
<polygon fill="#63b8ff" stroke="#63b8ff" points="1296.44,-52.01 1306.61,-54.98 1300.52,-46.32 1296.44,-52.01"/>
</a>
</g>
</g>
<!-- Node9 -->
<g id="Node000009" class="node">
<title>Node9</title>
<g id="a_Node000009"><a xlink:href="osEepromWrite_8c.html" target="_top" xlink:title=" ">
<polygon fill="white" stroke="#666666" points="1459,-19 1328,-19 1328,0 1459,0 1459,-19"/>
<text text-anchor="middle" x="1393.5" y="-7" font-family="Helvetica,sans-Serif" font-size="10.00">src/os/osEepromWrite.c</text>
</a>
</g>
</g>
<!-- Node4&#45;&gt;Node9 -->
<g id="edge10_Node000004_Node000009" class="edge">
<title>Node4&#45;&gt;Node9</title>
<g id="a_edge10_Node000004_Node000009"><a xlink:title=" ">
<path fill="none" stroke="#63b8ff" d="M1338.81,-49.15C1352.36,-39.57 1369.74,-27.29 1381.23,-19.17"/>
<polygon fill="#63b8ff" stroke="#63b8ff" points="1336.7,-46.36 1330.55,-54.98 1340.74,-52.07 1336.7,-46.36"/>
</a>
</g>
</g>
<!-- Node10 -->
<g id="Node000010" class="node">
<title>Node10</title>
<g id="a_Node000010"><a xlink:href="osPfsAllocateFile_8c.html" target="_top" xlink:title=" ">
<polygon fill="white" stroke="#666666" points="1617.5,-19 1477.5,-19 1477.5,0 1617.5,0 1617.5,-19"/>
<text text-anchor="middle" x="1547.5" y="-7" font-family="Helvetica,sans-Serif" font-size="10.00">src/os/osPfsAllocateFile.c</text>
</a>
</g>
</g>
<!-- Node4&#45;&gt;Node10 -->
<g id="edge11_Node000004_Node000010" class="edge">
<title>Node4&#45;&gt;Node10</title>
<g id="a_edge11_Node000004_Node000010"><a xlink:title=" ">
<path fill="none" stroke="#63b8ff" d="M1365.21,-52.69C1408.11,-42.76 1470.86,-28.24 1510.42,-19.08"/>
<polygon fill="#63b8ff" stroke="#63b8ff" points="1364.25,-49.32 1355.29,-54.98 1365.82,-56.14 1364.25,-49.32"/>
</a>
</g>
</g>
<!-- Node11 -->
<g id="Node000011" class="node">
<title>Node11</title>
<g id="a_Node000011"><a xlink:href="osPfsChecker_8c.html" target="_top" xlink:title=" ">
<polygon fill="white" stroke="#666666" points="1757,-19 1636,-19 1636,0 1757,0 1757,-19"/>
<text text-anchor="middle" x="1696.5" y="-7" font-family="Helvetica,sans-Serif" font-size="10.00">src/os/osPfsChecker.c</text>
</a>
</g>
</g>
<!-- Node4&#45;&gt;Node11 -->
<g id="edge12_Node000004_Node000011" class="edge">
<title>Node4&#45;&gt;Node11</title>
<g id="a_edge12_Node000004_Node000011"><a xlink:title=" ">
<path fill="none" stroke="#63b8ff" d="M1380.35,-54.83C1450.9,-44.94 1565.55,-28.86 1635.68,-19.03"/>
<polygon fill="#63b8ff" stroke="#63b8ff" points="1379.68,-51.39 1370.27,-56.24 1380.66,-58.32 1379.68,-51.39"/>
</a>
</g>
</g>
<!-- Node12 -->
<g id="Node000012" class="node">
<title>Node12</title>
<g id="a_Node000012"><a xlink:href="osPfsDeleteFile_8c.html" target="_top" xlink:title=" ">
<polygon fill="white" stroke="#666666" points="1907.5,-19 1775.5,-19 1775.5,0 1907.5,0 1907.5,-19"/>
<text text-anchor="middle" x="1841.5" y="-7" font-family="Helvetica,sans-Serif" font-size="10.00">src/os/osPfsDeleteFile.c</text>
</a>
</g>
</g>
<!-- Node4&#45;&gt;Node12 -->
<g id="edge13_Node000004_Node000012" class="edge">
<title>Node4&#45;&gt;Node12</title>
<g id="a_edge13_Node000004_Node000012"><a xlink:title=" ">
<path fill="none" stroke="#63b8ff" d="M1380.29,-57.59C1466.56,-49.28 1628,-33.53 1765.5,-19 1768.67,-18.67 1771.91,-18.32 1775.19,-17.96"/>
<polygon fill="#63b8ff" stroke="#63b8ff" points="1379.76,-54.12 1370.14,-58.56 1380.43,-61.09 1379.76,-54.12"/>
</a>
</g>
</g>
<!-- Node13 -->
<g id="Node000013" class="node">
<title>Node13</title>
<g id="a_Node000013"><a xlink:href="osPfsFileState_8c.html" target="_top" xlink:title=" ">
<polygon fill="white" stroke="#666666" points="2051,-19 1926,-19 1926,0 2051,0 2051,-19"/>
<text text-anchor="middle" x="1988.5" y="-7" font-family="Helvetica,sans-Serif" font-size="10.00">src/os/osPfsFileState.c</text>
</a>
</g>
</g>
<!-- Node4&#45;&gt;Node13 -->
<g id="edge14_Node000004_Node000013" class="edge">
<title>Node4&#45;&gt;Node13</title>
<g id="a_edge14_Node000004_Node000013"><a xlink:title=" ">
<path fill="none" stroke="#63b8ff" d="M1380.27,-59.79C1488.86,-53.06 1720.99,-37.81 1916.5,-19 1919.51,-18.71 1922.58,-18.4 1925.69,-18.08"/>
<polygon fill="#63b8ff" stroke="#63b8ff" points="1379.92,-56.3 1370.16,-60.41 1380.35,-63.29 1379.92,-56.3"/>
</a>
</g>
</g>
<!-- Node14 -->
<g id="Node000014" class="node">
<title>Node14</title>
<g id="a_Node000014"><a xlink:href="osPfsFreeBlocks_8c.html" target="_top" xlink:title=" ">
<polygon fill="white" stroke="#666666" points="2205.5,-19 2069.5,-19 2069.5,0 2205.5,0 2205.5,-19"/>
<text text-anchor="middle" x="2137.5" y="-7" font-family="Helvetica,sans-Serif" font-size="10.00">src/os/osPfsFreeBlocks.c</text>
</a>
</g>
</g>
<!-- Node4&#45;&gt;Node14 -->
<g id="edge15_Node000004_Node000014" class="edge">
<title>Node4&#45;&gt;Node14</title>
<g id="a_edge15_Node000004_Node000014"><a xlink:title=" ">
<path fill="none" stroke="#63b8ff" d="M1380.55,-60.79C1507.93,-55.01 1808.12,-40.23 2059.5,-19 2062.76,-18.72 2066.09,-18.43 2069.45,-18.11"/>
<polygon fill="#63b8ff" stroke="#63b8ff" points="1380.05,-57.31 1370.22,-61.26 1380.37,-64.31 1380.05,-57.31"/>
</a>
</g>
</g>
<!-- Node15 -->
<g id="Node000015" class="node">
<title>Node15</title>
<g id="a_Node000015"><a xlink:href="osPfsInit_8c.html" target="_top" xlink:title=" ">
<polygon fill="white" stroke="#666666" points="2321.5,-19 2223.5,-19 2223.5,0 2321.5,0 2321.5,-19"/>
<text text-anchor="middle" x="2272.5" y="-7" font-family="Helvetica,sans-Serif" font-size="10.00">src/os/osPfsInit.c</text>
</a>
</g>
</g>
<!-- Node4&#45;&gt;Node15 -->
<g id="edge16_Node000004_Node000015" class="edge">
<title>Node4&#45;&gt;Node15</title>
<g id="a_edge16_Node000004_Node000015"><a xlink:title=" ">
<path fill="none" stroke="#63b8ff" d="M1380.22,-62.47C1525.81,-59.6 1901.91,-49.6 2214.5,-19 2217.44,-18.71 2220.45,-18.38 2223.49,-18.02"/>
<polygon fill="#63b8ff" stroke="#63b8ff" points="1380.07,-58.97 1370.14,-62.67 1380.21,-65.97 1380.07,-58.97"/>
</a>
</g>
</g>
<!-- Node16 -->
<g id="Node000016" class="node">
<title>Node16</title>
<g id="a_Node000016"><a xlink:href="osPfsIsPlug_8c.html" target="_top" xlink:title=" ">
<polygon fill="white" stroke="#666666" points="2451.5,-19 2339.5,-19 2339.5,0 2451.5,0 2451.5,-19"/>
<text text-anchor="middle" x="2395.5" y="-7" font-family="Helvetica,sans-Serif" font-size="10.00">src/os/osPfsIsPlug.c</text>
</a>
</g>
</g>
<!-- Node4&#45;&gt;Node16 -->
<g id="edge17_Node000004_Node000016" class="edge">
<title>Node4&#45;&gt;Node16</title>
<g id="a_edge17_Node000004_Node000016"><a xlink:title=" ">
<path fill="none" stroke="#63b8ff" d="M1380.23,-62.63C1538.46,-60.02 1971.34,-50.32 2330.5,-19 2333.33,-18.75 2336.24,-18.47 2339.16,-18.17"/>
<polygon fill="#63b8ff" stroke="#63b8ff" points="1380.15,-59.14 1370.21,-62.8 1380.26,-66.13 1380.15,-59.14"/>
</a>
</g>
</g>
<!-- Node17 -->
<g id="Node000017" class="node">
<title>Node17</title>
<g id="a_Node000017"><a xlink:href="osPfsNumFiles_8c.html" target="_top" xlink:title=" ">
<polygon fill="white" stroke="#666666" points="405.5,-19 277.5,-19 277.5,0 405.5,0 405.5,-19"/>
<text text-anchor="middle" x="341.5" y="-7" font-family="Helvetica,sans-Serif" font-size="10.00">src/os/osPfsNumFiles.c</text>
</a>
</g>
</g>
<!-- Node4&#45;&gt;Node17 -->
<g id="edge18_Node000004_Node000017" class="edge">
<title>Node4&#45;&gt;Node17</title>
<g id="a_edge18_Node000004_Node000017"><a xlink:title=" ">
<path fill="none" stroke="#63b8ff" d="M1256.82,-61.88C1110.44,-57.74 730.68,-45.16 414.5,-19 411.58,-18.76 408.59,-18.49 405.57,-18.21"/>
<polygon fill="#63b8ff" stroke="#63b8ff" points="1256.85,-65.39 1266.95,-62.17 1257.05,-58.39 1256.85,-65.39"/>
</a>
</g>
</g>
<!-- Node18 -->
<g id="Node000018" class="node">
<title>Node18</title>
<g id="a_Node000018"><a xlink:href="osPfsReadWriteFile_8c.html" target="_top" xlink:title=" ">
<polygon fill="white" stroke="#666666" points="575,-19 424,-19 424,0 575,0 575,-19"/>
<text text-anchor="middle" x="499.5" y="-7" font-family="Helvetica,sans-Serif" font-size="10.00">src/os/osPfsReadWriteFile.c</text>
</a>
</g>
</g>
<!-- Node4&#45;&gt;Node18 -->
<g id="edge19_Node000004_Node000018" class="edge">
<title>Node4&#45;&gt;Node18</title>
<g id="a_edge19_Node000004_Node000018"><a xlink:title=" ">
<path fill="none" stroke="#63b8ff" d="M1256.5,-60.59C1129.9,-54.47 832.62,-39.14 583.5,-19 580.72,-18.78 577.9,-18.54 575.04,-18.29"/>
<polygon fill="#63b8ff" stroke="#63b8ff" points="1256.61,-64.1 1266.77,-61.09 1256.95,-57.11 1256.61,-64.1"/>
</a>
</g>
</g>
<!-- Node19 -->
<g id="Node000019" class="node">
<title>Node19</title>
<g id="a_Node000019"><a xlink:href="osPfsSearchFile_8c.html" target="_top" xlink:title=" ">
<polygon fill="white" stroke="#666666" points="726,-19 593,-19 593,0 726,0 726,-19"/>
<text text-anchor="middle" x="659.5" y="-7" font-family="Helvetica,sans-Serif" font-size="10.00">src/os/osPfsSearchFile.c</text>
</a>
</g>
</g>
<!-- Node4&#45;&gt;Node19 -->
<g id="edge20_Node000004_Node000019" class="edge">
<title>Node4&#45;&gt;Node19</title>
<g id="a_edge20_Node000004_Node000019"><a xlink:title=" ">
<path fill="none" stroke="#63b8ff" d="M1256.74,-59.5C1150.25,-52.45 925.25,-36.85 735.5,-19 732.46,-18.71 729.35,-18.41 726.21,-18.1"/>
<polygon fill="#63b8ff" stroke="#63b8ff" points="1256.77,-63.01 1266.98,-60.18 1257.23,-56.03 1256.77,-63.01"/>
</a>
</g>
</g>
<!-- Node22&#45;&gt;Node20 -->
<g id="edge25_Node000022_Node000020" class="edge">
<title>Node22&#45;&gt;Node20</title>
<g id="a_edge25_Node000022_Node000020"><a xlink:title=" ">
<path fill="none" stroke="#63b8ff" d="M2082.99,-55.04C2251.45,-32.75 2295.98,-37.42 2460.5,-19 2463.6,-18.65 2466.78,-18.28 2469.99,-17.9"/>
<polygon fill="#63b8ff" stroke="#63b8ff" points="2082.49,-51.58 2073.04,-56.37 2083.42,-58.52 2082.49,-51.58"/>
</a>
</g>
</g>
<!-- Node23 -->
<g id="Node000023" class="node">
<title>Node23</title>
<g id="a_Node000023"><a xlink:href="____osLeoInterrupt_8c.html" target="_top" xlink:title=" ">
<polygon fill="white" stroke="#666666" points="2738,-19 2601,-19 2601,0 2738,0 2738,-19"/>
<text text-anchor="middle" x="2669.5" y="-7" font-family="Helvetica,sans-Serif" font-size="10.00">src/os/__osLeoInterrupt.c</text>
</a>
</g>
</g>
<!-- Node22&#45;&gt;Node23 -->
<g id="edge24_Node000022_Node000023" class="edge">
<title>Node22&#45;&gt;Node23</title>
<g id="a_edge24_Node000022_Node000023"><a xlink:title=" ">
<path fill="none" stroke="#63b8ff" d="M2083.25,-55.05C2309.81,-27.89 2369.51,-39.17 2592.5,-19 2595.18,-18.76 2597.91,-18.5 2600.67,-18.23"/>
<polygon fill="#63b8ff" stroke="#63b8ff" points="2082.54,-51.61 2073.03,-56.29 2083.38,-58.56 2082.54,-51.61"/>
</a>
</g>
</g>
</g>
</svg>

<g id="navigator" transform="translate(0 0)" fill="#404254">
  <rect fill="#f2f5e9" fill-opacity="0.5" stroke="#606060" stroke-width=".5" x="0" y="0" width="60" height="60"/>
  <use id="zoomplus" xlink:href="#zoomPlus" x="17" y="9" onmousedown="handleZoom(evt,'in')"/>
  <use id="zoomminus" xlink:href="#zoomMin" x="42" y="9" onmousedown="handleZoom(evt,'out')"/>
  <use id="reset" xlink:href="#resetDef" x="30" y="36" onmousedown="handleReset()"/>
   <use id="arrowup" xlink:href="#arrowUp" x="0" y="0" onmousedown="handlePan(0,-1)"/>
  <use id="arrowright" xlink:href="#arrowRight" x="0" y="0" onmousedown="handlePan(1,0)"/>
  <use id="arrowdown" xlink:href="#arrowDown" x="0" y="0" onmousedown="handlePan(0,1)"/>
  <use id="arrowleft" xlink:href="#arrowLeft" x="0" y="0" onmousedown="handlePan(-1,0)"/>
</g>
<svg viewBox="0 0 15 15" width="100%" height="30px" preserveAspectRatio="xMaxYMin meet">
 <g id="arrow_out" transform="scale(0.3 0.3)">
  <a xlink:href="rcp_8h__dep__incl_org.svg" target="_base">
   <rect id="button" ry="5" rx="5" y="6" x="6" height="38" width="38"
        fill="#f2f5e9" fill-opacity="0.5" stroke="#606060" stroke-width="1.0"/>
   <path id="arrow"
     d="M 11.500037,31.436501 C 11.940474,20.09759 22.043105,11.32322 32.158766,21.979434 L 37.068811,17.246167 C 37.068811,17.246167 37.088388,32 37.088388,32 L 22.160133,31.978069 C 22.160133,31.978069 26.997745,27.140456 26.997745,27.140456 C 18.528582,18.264221 13.291696,25.230495 11.500037,31.436501 z"
     style="fill:#404040;"/>
  </a>
 </g>
</svg>

<style type='text/css'>
<![CDATA[
[data-mouse-over-selected='false'] { opacity: 0.7; }
[data-mouse-over-selected='true']  { opacity: 1.0; }
]]>
</style>
<script type="application/ecmascript"><![CDATA[
document.addEventListener('DOMContentLoaded', (event) => {
  highlightEdges();
  highlightAdjacentNodes();
});
]]></script>
</svg>
