<?xml version="1.0" encoding="UTF-8" standalone="no"?>
<!DOCTYPE svg PUBLIC "-//W3C//DTD SVG 1.1//EN"
 "http://www.w3.org/Graphics/SVG/1.1/DTD/svg11.dtd">
<!-- Generated by graphviz version 2.43.0 (0)
 -->
<!-- Title: func_80021B0C Pages: 1 -->
<!--zoomable 692 -->

<svg id="main" version="1.1" xmlns="http://www.w3.org/2000/svg" xmlns:xlink="http://www.w3.org/1999/xlink" xml:space="preserve" onload="init(evt)">
<style type="text/css"><![CDATA[
.node, .edge {opacity: 0.7;}
.node.selected, .edge.selected {opacity: 1;}
.edge:hover path { stroke: red; }
.edge:hover polygon { stroke: red; fill: red; }
]]></style>

<defs>
  <circle id="rim" cx="0" cy="0" r="7"/>
  <circle id="rim2" cx="0" cy="0" r="3.5"/>
  <g id="zoomPlus">
    <use xlink:href="#rim" fill="#404040"><set attributeName="fill" to="#808080" begin="zoomplus.mouseover" end="zoomplus.mouseout"/></use>
    <path d="M-4,0h8M0,-4v8" fill="none" stroke="white" stroke-width="1.5" pointer-events="none"/>
  </g>
  <g id="zoomMin">
    <use xlink:href="#rim" fill="#404040"><set attributeName="fill" to="#808080" begin="zoomminus.mouseover" end="zoomminus.mouseout"/></use>
    <path d="M-4,0h8" fill="none" stroke="white" stroke-width="1.5" pointer-events="none"/>
  </g>
  <g id="arrowUp" transform="translate(30 24)">
    <use xlink:href="#rim"/>
    <path pointer-events="none" fill="none" stroke="white" stroke-width="1.5" d="M0,-3.0v7 M-2.5,-0.5L0,-3.0L2.5,-0.5"/>
  </g>
  <g id="arrowRight" transform="rotate(90) translate(36 -43)">
    <use xlink:href="#rim"/>
    <path pointer-events="none" fill="none" stroke="white" stroke-width="1.5" d="M0,-3.0v7 M-2.5,-0.5L0,-3.0L2.5,-0.5"/>
  </g>
  <g id="arrowDown" transform="rotate(180) translate(-30 -48)">
    <use xlink:href="#rim"/>
    <path pointer-events="none" fill="none" stroke="white" stroke-width="1.5" d="M0,-3.0v7 M-2.5,-0.5L0,-3.0L2.5,-0.5"/>
  </g>
  <g id="arrowLeft" transform="rotate(270) translate(-36 17)">
    <use xlink:href="#rim"/>
    <path pointer-events="none" fill="none" stroke="white" stroke-width="1.5" d="M0,-3.0v7 M-2.5,-0.5L0,-3.0L2.5,-0.5"/>
  </g>
  <g id="resetDef">
    <use xlink:href="#rim2" fill="#404040"><set attributeName="fill" to="#808080" begin="reset.mouseover" end="reset.mouseout"/></use>
  </g>
</defs>
<script type="application/ecmascript">
var viewWidth = 1015;
var viewHeight = 692;
var sectionId = 'dynsection-10';
</script>
<script type="application/ecmascript" xlink:href="svg.min.js"/>
<svg id="graph" class="graph">
<g id="viewport">
<title>func_80021B0C</title>
<!-- Node1 -->
<g id="Node000001" class="node">
<title>Node1</title>
<g id="a_Node000001"><a xlink:title=" ">
<polygon fill="#999999" stroke="#666666" points="92,-162.17 0,-162.17 0,-143.17 92,-143.17 92,-162.17"/>
<text text-anchor="middle" x="46" y="-150.17" font-family="Helvetica,sans-Serif" font-size="10.00">func_80021B0C</text>
</a>
</g>
</g>
<!-- Node2 -->
<g id="Node000002" class="node">
<title>Node2</title>
<g id="a_Node000002"><a xlink:href="code__80057C60_8c.html#aa092aa3d7f7c2b7df1efdc5cd214b41e" target="_top" xlink:title=" ">
<polygon fill="white" stroke="#666666" points="220,-245.17 128,-245.17 128,-226.17 220,-226.17 220,-245.17"/>
<text text-anchor="middle" x="174" y="-233.17" font-family="Helvetica,sans-Serif" font-size="10.00">func_8006E7CC</text>
</a>
</g>
</g>
<!-- Node1&#45;&gt;Node2 -->
<g id="edge1_Node000001_Node000002" class="edge">
<title>Node1&#45;&gt;Node2</title>
<g id="a_edge1_Node000001_Node000002"><a xlink:title=" ">
<path fill="none" stroke="#63b8ff" d="M61.45,-162.2C83.08,-176.44 124.07,-203.44 149.89,-220.45"/>
<polygon fill="#63b8ff" stroke="#63b8ff" points="148.05,-223.43 158.33,-226.01 151.9,-217.58 148.05,-223.43"/>
</a>
</g>
</g>
<!-- Node22 -->
<g id="Node000022" class="node">
<title>Node22</title>
<g id="a_Node000022"><a xlink:href="render__player_8c.html#afae2325d39290e681f161f6b895ea2c7" target="_top" xlink:title=" ">
<polygon fill="white" stroke="#666666" points="743,-215.67 616,-215.67 616,-185.67 743,-185.67 743,-215.67"/>
<text text-anchor="start" x="624" y="-203.67" font-family="Helvetica,sans-Serif" font-size="10.00">render_player_shadow</text>
<text text-anchor="middle" x="679.5" y="-192.67" font-family="Helvetica,sans-Serif" font-size="10.00">_credits</text>
</a>
</g>
</g>
<!-- Node1&#45;&gt;Node22 -->
<g id="edge44_Node000001_Node000022" class="edge">
<title>Node1&#45;&gt;Node22</title>
<g id="a_edge44_Node000001_Node000022"><a xlink:title=" ">
<path fill="none" stroke="#63b8ff" d="M92.32,-146.14C185.22,-134.19 403.37,-113.52 580,-153.67 603.08,-158.92 627.08,-170.24 645.62,-180.45"/>
<polygon fill="#63b8ff" stroke="#63b8ff" points="644.09,-183.6 654.51,-185.5 647.54,-177.52 644.09,-183.6"/>
</a>
</g>
</g>
<!-- Node3 -->
<g id="Node000003" class="node">
<title>Node3</title>
<g id="a_Node000003"><a xlink:href="code__80057C60_8c.html#a268141e86832725ec842fb8a391f37a2" target="_top" xlink:title=" ">
<polygon fill="white" stroke="#666666" points="351,-331.17 256,-331.17 256,-312.17 351,-312.17 351,-331.17"/>
<text text-anchor="middle" x="303.5" y="-319.17" font-family="Helvetica,sans-Serif" font-size="10.00">func_8006DD3C</text>
</a>
</g>
</g>
<!-- Node2&#45;&gt;Node3 -->
<g id="edge2_Node000002_Node000003" class="edge">
<title>Node2&#45;&gt;Node3</title>
<g id="a_edge2_Node000002_Node000003"><a xlink:title=" ">
<path fill="none" stroke="#63b8ff" d="M189.13,-245.21C211.06,-259.99 253.47,-288.6 279.74,-306.32"/>
<polygon fill="#63b8ff" stroke="#63b8ff" points="278.06,-309.41 288.3,-312.1 281.97,-303.61 278.06,-309.41"/>
</a>
</g>
</g>
<!-- Node4 -->
<g id="Node000004" class="node">
<title>Node4</title>
<g id="a_Node000004"><a xlink:href="code__80057C60_8c.html#a3f7eaa00f6c7a777007bb0cd45c49c31" target="_top" xlink:title=" ">
<polygon fill="white" stroke="#666666" points="529,-267.17 438,-267.17 438,-248.17 529,-248.17 529,-267.17"/>
<text text-anchor="middle" x="483.5" y="-255.17" font-family="Helvetica,sans-Serif" font-size="10.00">func_80066998</text>
</a>
</g>
</g>
<!-- Node3&#45;&gt;Node4 -->
<g id="edge3_Node000003_Node000004" class="edge">
<title>Node3&#45;&gt;Node4</title>
<g id="a_edge3_Node000003_Node000004"><a xlink:title=" ">
<path fill="none" stroke="#63b8ff" d="M318.77,-312.14C334.74,-301.89 361.69,-285.85 387,-276.67 399.92,-271.99 414.26,-268.37 427.82,-265.6"/>
<polygon fill="#63b8ff" stroke="#63b8ff" points="428.84,-268.97 438,-263.65 427.52,-262.09 428.84,-268.97"/>
</a>
</g>
</g>
<!-- Node13 -->
<g id="Node000013" class="node">
<title>Node13</title>
<g id="a_Node000013"><a xlink:href="code__80057C60_8c.html#a83b70a807a1868d489124f4250751dce" target="_top" xlink:title=" ">
<polygon fill="white" stroke="#666666" points="529,-181.17 438,-181.17 438,-162.17 529,-162.17 529,-181.17"/>
<text text-anchor="middle" x="483.5" y="-169.17" font-family="Helvetica,sans-Serif" font-size="10.00">func_80068724</text>
</a>
</g>
</g>
<!-- Node3&#45;&gt;Node13 -->
<g id="edge12_Node000003_Node000013" class="edge">
<title>Node3&#45;&gt;Node13</title>
<g id="a_edge12_Node000003_Node000013"><a xlink:title=" ">
<path fill="none" stroke="#63b8ff" d="M307.61,-311.87C316.01,-287.12 341.61,-221.9 387,-190.67 398.88,-182.5 413.45,-177.67 427.59,-174.85"/>
<polygon fill="#63b8ff" stroke="#63b8ff" points="428.49,-178.25 437.77,-173.14 427.32,-171.35 428.49,-178.25"/>
</a>
</g>
</g>
<!-- Node14 -->
<g id="Node000014" class="node">
<title>Node14</title>
<g id="a_Node000014"><a xlink:href="code__80057C60_8c.html#aeacc1b0f213ad8d484e5dfac5c42920f" target="_top" xlink:title=" ">
<polygon fill="white" stroke="#666666" points="529.5,-353.17 437.5,-353.17 437.5,-334.17 529.5,-334.17 529.5,-353.17"/>
<text text-anchor="middle" x="483.5" y="-341.17" font-family="Helvetica,sans-Serif" font-size="10.00">func_8006A280</text>
</a>
</g>
</g>
<!-- Node3&#45;&gt;Node14 -->
<g id="edge16_Node000003_Node000014" class="edge">
<title>Node3&#45;&gt;Node14</title>
<g id="a_edge16_Node000003_Node000014"><a xlink:title=" ">
<path fill="none" stroke="#63b8ff" d="M351.27,-327.45C374.52,-330.33 402.78,-333.82 427.11,-336.83"/>
<polygon fill="#63b8ff" stroke="#63b8ff" points="426.92,-340.33 437.27,-338.08 427.78,-333.38 426.92,-340.33"/>
</a>
</g>
</g>
<!-- Node16 -->
<g id="Node000016" class="node">
<title>Node16</title>
<g id="a_Node000016"><a xlink:href="code__80057C60_8c.html#ab946bf1fb83419a3626f9d265b04a7bf" target="_top" xlink:title=" ">
<polygon fill="white" stroke="#666666" points="538.5,-390.17 428.5,-390.17 428.5,-371.17 538.5,-371.17 538.5,-390.17"/>
<text text-anchor="middle" x="483.5" y="-378.17" font-family="Helvetica,sans-Serif" font-size="10.00">render_music_note</text>
</a>
</g>
</g>
<!-- Node3&#45;&gt;Node16 -->
<g id="edge19_Node000003_Node000016" class="edge">
<title>Node3&#45;&gt;Node16</title>
<g id="a_edge19_Node000003_Node000016"><a xlink:title=" ">
<path fill="none" stroke="#63b8ff" d="M320.37,-331.21C336.58,-340.55 362.74,-354.53 387,-362.67 396.94,-366.01 407.68,-368.79 418.25,-371.08"/>
<polygon fill="#63b8ff" stroke="#63b8ff" points="417.8,-374.56 428.3,-373.13 419.2,-367.7 417.8,-374.56"/>
</a>
</g>
</g>
<!-- Node17 -->
<g id="Node000017" class="node">
<title>Node17</title>
<g id="a_Node000017"><a xlink:href="code__80057C60_8c.html#a5d712ed14b160507d1109d88568aac20" target="_top" xlink:title=" ">
<polygon fill="white" stroke="#666666" points="563.5,-229.67 403.5,-229.67 403.5,-199.67 563.5,-199.67 563.5,-229.67"/>
<text text-anchor="start" x="411.5" y="-217.67" font-family="Helvetica,sans-Serif" font-size="10.00">render_player_onomatopoeia</text>
<text text-anchor="middle" x="483.5" y="-206.67" font-family="Helvetica,sans-Serif" font-size="10.00">_boing</text>
</a>
</g>
</g>
<!-- Node3&#45;&gt;Node17 -->
<g id="edge24_Node000003_Node000017" class="edge">
<title>Node3&#45;&gt;Node17</title>
<g id="a_edge24_Node000003_Node000017"><a xlink:title=" ">
<path fill="none" stroke="#63b8ff" d="M311.48,-311.93C324.38,-294.66 353.69,-258.71 387,-239.67 390.87,-237.46 394.94,-235.44 399.13,-233.6"/>
<polygon fill="#63b8ff" stroke="#63b8ff" points="400.5,-236.82 408.46,-229.83 397.88,-230.33 400.5,-236.82"/>
</a>
</g>
</g>
<!-- Node18 -->
<g id="Node000018" class="node">
<title>Node18</title>
<g id="a_Node000018"><a xlink:href="code__80057C60_8c.html#a8b07c523061c3f64a752ce8b05675eb6" target="_top" xlink:title=" ">
<polygon fill="white" stroke="#666666" points="563.5,-604.67 403.5,-604.67 403.5,-574.67 563.5,-574.67 563.5,-604.67"/>
<text text-anchor="start" x="411.5" y="-592.67" font-family="Helvetica,sans-Serif" font-size="10.00">render_player_onomatopoeia</text>
<text text-anchor="middle" x="483.5" y="-581.67" font-family="Helvetica,sans-Serif" font-size="10.00">_crash</text>
</a>
</g>
</g>
<!-- Node3&#45;&gt;Node18 -->
<g id="edge29_Node000003_Node000018" class="edge">
<title>Node3&#45;&gt;Node18</title>
<g id="a_edge29_Node000003_Node000018"><a xlink:title=" ">
<path fill="none" stroke="#63b8ff" d="M305.97,-331.21C311.3,-363.18 332.35,-468.14 387,-532.67 400.28,-548.36 419.03,-560.85 436.4,-570.1"/>
<polygon fill="#63b8ff" stroke="#63b8ff" points="434.83,-573.23 445.33,-574.64 438,-566.99 434.83,-573.23"/>
</a>
</g>
</g>
<!-- Node19 -->
<g id="Node000019" class="node">
<title>Node19</title>
<g id="a_Node000019"><a xlink:href="code__80057C60_8c.html#a567db0bc5862f7bf39a43ef8476c9068" target="_top" xlink:title=" ">
<polygon fill="white" stroke="#666666" points="580,-444.17 387,-444.17 387,-425.17 580,-425.17 580,-444.17"/>
<text text-anchor="middle" x="483.5" y="-432.17" font-family="Helvetica,sans-Serif" font-size="10.00">render_player_onomatopoeia_pomp</text>
</a>
</g>
</g>
<!-- Node3&#45;&gt;Node19 -->
<g id="edge33_Node000003_Node000019" class="edge">
<title>Node3&#45;&gt;Node19</title>
<g id="a_edge33_Node000003_Node000019"><a xlink:title=" ">
<path fill="none" stroke="#63b8ff" d="M312.42,-331.39C326.09,-347.6 355.66,-380.27 387,-399.67 402.04,-408.99 419.94,-416.37 436.16,-421.91"/>
<polygon fill="#63b8ff" stroke="#63b8ff" points="435.4,-425.35 445.99,-425.12 437.57,-418.69 435.4,-425.35"/>
</a>
</g>
</g>
<!-- Node20 -->
<g id="Node000020" class="node">
<title>Node20</title>
<g id="a_Node000020"><a xlink:href="code__80057C60_8c.html#ad0a0073934eb0a9b970b66f30242361f" target="_top" xlink:title=" ">
<polygon fill="white" stroke="#666666" points="563.5,-315.67 403.5,-315.67 403.5,-285.67 563.5,-285.67 563.5,-315.67"/>
<text text-anchor="start" x="411.5" y="-303.67" font-family="Helvetica,sans-Serif" font-size="10.00">render_player_onomatopoeia</text>
<text text-anchor="middle" x="483.5" y="-292.67" font-family="Helvetica,sans-Serif" font-size="10.00">_whrrrr</text>
</a>
</g>
</g>
<!-- Node3&#45;&gt;Node20 -->
<g id="edge37_Node000003_Node000020" class="edge">
<title>Node3&#45;&gt;Node20</title>
<g id="a_edge37_Node000003_Node000020"><a xlink:title=" ">
<path fill="none" stroke="#63b8ff" d="M351.27,-316.16C364.24,-314.63 378.77,-312.91 393.31,-311.2"/>
<polygon fill="#63b8ff" stroke="#63b8ff" points="393.83,-314.66 403.35,-310.01 393.01,-307.71 393.83,-314.66"/>
</a>
</g>
</g>
<!-- Node21 -->
<g id="Node000021" class="node">
<title>Node21</title>
<g id="a_Node000021"><a xlink:href="code__80057C60_8c.html#ae35bbe7ed1cd67ea27c1cdbe19dbcb05" target="_top" xlink:title=" ">
<polygon fill="white" stroke="#666666" points="545.5,-523.67 421.5,-523.67 421.5,-493.67 545.5,-493.67 545.5,-523.67"/>
<text text-anchor="start" x="429.5" y="-511.67" font-family="Helvetica,sans-Serif" font-size="10.00">render_player_speech</text>
<text text-anchor="middle" x="483.5" y="-500.67" font-family="Helvetica,sans-Serif" font-size="10.00">_bubble</text>
</a>
</g>
</g>
<!-- Node3&#45;&gt;Node21 -->
<g id="edge39_Node000003_Node000021" class="edge">
<title>Node3&#45;&gt;Node21</title>
<g id="a_edge39_Node000003_Node000021"><a xlink:title=" ">
<path fill="none" stroke="#63b8ff" d="M308.57,-331.41C318.77,-354.9 347.52,-415.59 387,-453.67 401.64,-467.8 420.59,-479.67 437.75,-488.74"/>
<polygon fill="#63b8ff" stroke="#63b8ff" points="436.56,-492.06 447.05,-493.48 439.73,-485.82 436.56,-492.06"/>
</a>
</g>
</g>
<!-- Node5 -->
<g id="Node000005" class="node">
<title>Node5</title>
<g id="a_Node000005"><a xlink:href="render__objects_8c.html#a6b0955bb181f1c4da816f44baf21bc5d" target="_top" xlink:title=" ">
<polygon fill="white" stroke="#666666" points="725.5,-253.17 633.5,-253.17 633.5,-234.17 725.5,-234.17 725.5,-253.17"/>
<text text-anchor="middle" x="679.5" y="-241.17" font-family="Helvetica,sans-Serif" font-size="10.00">func_8004B35C</text>
</a>
</g>
</g>
<!-- Node4&#45;&gt;Node5 -->
<g id="edge4_Node000004_Node000005" class="edge">
<title>Node4&#45;&gt;Node5</title>
<g id="a_edge4_Node000004_Node000005"><a xlink:title=" ">
<path fill="none" stroke="#63b8ff" d="M529.01,-254.46C556.93,-252.45 593.15,-249.83 622.94,-247.68"/>
<polygon fill="#63b8ff" stroke="#63b8ff" points="623.47,-251.15 633.19,-246.94 622.96,-244.17 623.47,-251.15"/>
</a>
</g>
</g>
<!-- Node6 -->
<g id="Node000006" class="node">
<title>Node6</title>
<g id="a_Node000006"><a xlink:href="code__80057C60_8c.html#ac32c3f4acf06308534948902cfc12a09" target="_top" xlink:title=" ">
<polygon fill="white" stroke="#666666" points="725.5,-290.17 633.5,-290.17 633.5,-271.17 725.5,-271.17 725.5,-290.17"/>
<text text-anchor="middle" x="679.5" y="-278.17" font-family="Helvetica,sans-Serif" font-size="10.00">func_800652D4</text>
</a>
</g>
</g>
<!-- Node4&#45;&gt;Node6 -->
<g id="edge5_Node000004_Node000006" class="edge">
<title>Node4&#45;&gt;Node6</title>
<g id="a_edge5_Node000004_Node000006"><a xlink:title=" ">
<path fill="none" stroke="#63b8ff" d="M529.01,-262.95C556.93,-266.26 593.15,-270.56 622.94,-274.09"/>
<polygon fill="#63b8ff" stroke="#63b8ff" points="622.85,-277.6 633.19,-275.3 623.67,-270.65 622.85,-277.6"/>
</a>
</g>
</g>
<!-- Node7 -->
<g id="Node000007" class="node">
<title>Node7</title>
<g id="a_Node000007"><a xlink:href="render__player_8c.html#ab7bf9484e155990f138e03ae5339fc84" target="_top" xlink:title=" ">
<polygon fill="white" stroke="#666666" points="906,-235.67 779,-235.67 779,-205.67 906,-205.67 906,-235.67"/>
<text text-anchor="start" x="787" y="-223.67" font-family="Helvetica,sans-Serif" font-size="10.00">convert_to_fixed_point</text>
<text text-anchor="middle" x="842.5" y="-212.67" font-family="Helvetica,sans-Serif" font-size="10.00">_matrix</text>
</a>
</g>
</g>
<!-- Node6&#45;&gt;Node7 -->
<g id="edge6_Node000006_Node000007" class="edge">
<title>Node6&#45;&gt;Node7</title>
<g id="a_edge6_Node000006_Node000007"><a xlink:title=" ">
<path fill="none" stroke="#63b8ff" d="M716.44,-271.14C725.19,-268.59 734.49,-265.7 743,-262.67 761.92,-255.95 782.4,-247.42 799.77,-239.81"/>
<polygon fill="#63b8ff" stroke="#63b8ff" points="801.34,-242.94 809.06,-235.69 798.5,-236.54 801.34,-242.94"/>
</a>
</g>
</g>
<!-- Node9 -->
<g id="Node000009" class="node">
<title>Node9</title>
<g id="a_Node000009"><a xlink:href="render__player_8c.html#af0b657a736763c8b33412ed9d3111a61" target="_top" xlink:title=" ">
<polygon fill="white" stroke="#666666" points="881,-348.17 804,-348.17 804,-329.17 881,-329.17 881,-348.17"/>
<text text-anchor="middle" x="842.5" y="-336.17" font-family="Helvetica,sans-Serif" font-size="10.00">mtxf_scale2</text>
</a>
</g>
</g>
<!-- Node6&#45;&gt;Node9 -->
<g id="edge8_Node000006_Node000009" class="edge">
<title>Node6&#45;&gt;Node9</title>
<g id="a_edge8_Node000006_Node000009"><a xlink:title=" ">
<path fill="none" stroke="#63b8ff" d="M706.16,-290.19C717.51,-294.48 730.97,-299.7 743,-304.67 759.18,-311.37 762.55,-314.68 779,-320.67 784.24,-322.58 789.78,-324.42 795.32,-326.15"/>
<polygon fill="#63b8ff" stroke="#63b8ff" points="794.62,-329.6 805.2,-329.14 796.64,-322.9 794.62,-329.6"/>
</a>
</g>
</g>
<!-- Node10 -->
<g id="Node000010" class="node">
<title>Node10</title>
<g id="a_Node000010"><a xlink:href="render__player_8c.html#a565e21fd6aa0dacea58fb8a0e4304772" target="_top" xlink:title=" ">
<polygon fill="white" stroke="#666666" points="904,-311.17 781,-311.17 781,-292.17 904,-292.17 904,-311.17"/>
<text text-anchor="middle" x="842.5" y="-299.17" font-family="Helvetica,sans-Serif" font-size="10.00">mtxf_translate_rotate</text>
</a>
</g>
</g>
<!-- Node6&#45;&gt;Node10 -->
<g id="edge9_Node000006_Node000010" class="edge">
<title>Node6&#45;&gt;Node10</title>
<g id="a_edge9_Node000006_Node000010"><a xlink:title=" ">
<path fill="none" stroke="#63b8ff" d="M725.78,-286.58C739.81,-288.41 755.63,-290.47 770.96,-292.47"/>
<polygon fill="#63b8ff" stroke="#63b8ff" points="770.57,-295.95 780.94,-293.78 771.48,-289.01 770.57,-295.95"/>
</a>
</g>
</g>
<!-- Node8 -->
<g id="Node000008" class="node">
<title>Node8</title>
<g id="a_Node000008"><a xlink:href="guMtxF2L_8c.html#a40ab2d64c609839ff1e0ef0de2d0dcc4" target="_top" xlink:title=" ">
<polygon fill="white" stroke="#666666" points="1007,-230.17 942,-230.17 942,-211.17 1007,-211.17 1007,-230.17"/>
<text text-anchor="middle" x="974.5" y="-218.17" font-family="Helvetica,sans-Serif" font-size="10.00">guMtxF2L</text>
</a>
</g>
</g>
<!-- Node7&#45;&gt;Node8 -->
<g id="edge7_Node000007_Node000008" class="edge">
<title>Node7&#45;&gt;Node8</title>
<g id="a_edge7_Node000007_Node000008"><a xlink:title=" ">
<path fill="none" stroke="#63b8ff" d="M906.22,-220.67C914.79,-220.67 923.42,-220.67 931.51,-220.67"/>
<polygon fill="#63b8ff" stroke="#63b8ff" points="931.77,-224.17 941.77,-220.67 931.77,-217.17 931.77,-224.17"/>
</a>
</g>
</g>
<!-- Node11 -->
<g id="Node000011" class="node">
<title>Node11</title>
<g id="a_Node000011"><a xlink:href="math__util_8c.html#a5eb0d9752bc1557b7f4ae3809352a0eb" target="_top" xlink:title=" ">
<polygon fill="white" stroke="#666666" points="993.5,-517.17 955.5,-517.17 955.5,-498.17 993.5,-498.17 993.5,-517.17"/>
<text text-anchor="middle" x="974.5" y="-505.17" font-family="Helvetica,sans-Serif" font-size="10.00">coss</text>
</a>
</g>
</g>
<!-- Node10&#45;&gt;Node11 -->
<g id="edge10_Node000010_Node000011" class="edge">
<title>Node10&#45;&gt;Node11</title>
<g id="a_edge10_Node000010_Node000011"><a xlink:title=" ">
<path fill="none" stroke="#63b8ff" d="M891.79,-311.2C897,-313.66 901.89,-316.77 906,-320.67 930.98,-344.4 958.04,-444.83 968.75,-487.91"/>
<polygon fill="#63b8ff" stroke="#63b8ff" points="965.39,-488.89 971.17,-497.77 972.19,-487.23 965.39,-488.89"/>
</a>
</g>
</g>
<!-- Node12 -->
<g id="Node000012" class="node">
<title>Node12</title>
<g id="a_Node000012"><a xlink:href="math__util_8c.html#adcf81d47666b5d86c4a1dbcb06e47faf" target="_top" xlink:title=" ">
<polygon fill="white" stroke="#666666" points="992.5,-367.17 956.5,-367.17 956.5,-348.17 992.5,-348.17 992.5,-367.17"/>
<text text-anchor="middle" x="974.5" y="-355.17" font-family="Helvetica,sans-Serif" font-size="10.00">sins</text>
</a>
</g>
</g>
<!-- Node10&#45;&gt;Node12 -->
<g id="edge11_Node000010_Node000012" class="edge">
<title>Node10&#45;&gt;Node12</title>
<g id="a_edge11_Node000010_Node000012"><a xlink:title=" ">
<path fill="none" stroke="#63b8ff" d="M879.32,-311.18C888.17,-313.9 897.53,-317.11 906,-320.67 920.82,-326.91 936.62,-335.46 949.21,-342.77"/>
<polygon fill="#63b8ff" stroke="#63b8ff" points="947.75,-345.97 958.14,-348.06 951.32,-339.95 947.75,-345.97"/>
</a>
</g>
</g>
<!-- Node13&#45;&gt;Node6 -->
<g id="edge14_Node000013_Node000006" class="edge">
<title>Node13&#45;&gt;Node6</title>
<g id="a_edge14_Node000013_Node000006"><a xlink:title=" ">
<path fill="none" stroke="#63b8ff" d="M529.28,-172.34C546.58,-174.58 565.62,-179.7 580,-190.67 608.44,-212.38 588.49,-239.8 616,-262.67 618.52,-264.77 621.27,-266.62 624.16,-268.25"/>
<polygon fill="#63b8ff" stroke="#63b8ff" points="622.67,-271.42 633.21,-272.54 625.67,-265.1 622.67,-271.42"/>
</a>
</g>
</g>
<!-- Node13&#45;&gt;Node11 -->
<g id="edge13_Node000013_Node000011" class="edge">
<title>Node13&#45;&gt;Node11</title>
<g id="a_edge13_Node000013_Node000011"><a xlink:title=" ">
<path fill="none" stroke="#63b8ff" d="M503.35,-162.01C568.36,-130.17 785.79,-36.34 906,-139.67 946.4,-174.4 931.76,-324.4 942,-376.67 949.79,-416.47 961.47,-462.44 968.21,-487.97"/>
<polygon fill="#63b8ff" stroke="#63b8ff" points="964.89,-489.11 970.84,-497.88 971.65,-487.31 964.89,-489.11"/>
</a>
</g>
</g>
<!-- Node13&#45;&gt;Node12 -->
<g id="edge15_Node000013_Node000012" class="edge">
<title>Node13&#45;&gt;Node12</title>
<g id="a_edge15_Node000013_Node000012"><a xlink:title=" ">
<path fill="none" stroke="#63b8ff" d="M491,-161.85C508,-137.2 556.57,-73 616,-49.67 735.98,-2.59 806.74,32.54 906,-49.67 972.19,-104.5 922.9,-155.88 942,-239.67 949.97,-274.65 961.17,-314.94 967.84,-338.24"/>
<polygon fill="#63b8ff" stroke="#63b8ff" points="964.51,-339.31 970.64,-347.94 971.23,-337.37 964.51,-339.31"/>
</a>
</g>
</g>
<!-- Node14&#45;&gt;Node6 -->
<g id="edge18_Node000014_Node000006" class="edge">
<title>Node14&#45;&gt;Node6</title>
<g id="a_edge18_Node000014_Node000006"><a xlink:title=" ">
<path fill="none" stroke="#63b8ff" d="M529.51,-337.68C545.73,-334.76 563.97,-330.56 580,-324.67 597.18,-318.37 599.42,-312.42 616,-304.67 624.19,-300.85 633.17,-297.14 641.7,-293.82"/>
<polygon fill="#63b8ff" stroke="#63b8ff" points="642.98,-297.08 651.08,-290.25 640.49,-290.53 642.98,-297.08"/>
</a>
</g>
</g>
<!-- Node15 -->
<g id="Node000015" class="node">
<title>Node15</title>
<g id="a_Node000015"><a xlink:href="render__objects_8c.html#a9ea20c14c263ed864d8e02d082b6b18b" target="_top" xlink:title=" ">
<polygon fill="white" stroke="#666666" points="888.5,-385.17 796.5,-385.17 796.5,-366.17 888.5,-366.17 888.5,-385.17"/>
<text text-anchor="middle" x="842.5" y="-373.17" font-family="Helvetica,sans-Serif" font-size="10.00">func_8004B414</text>
</a>
</g>
</g>
<!-- Node14&#45;&gt;Node15 -->
<g id="edge17_Node000014_Node000015" class="edge">
<title>Node14&#45;&gt;Node15</title>
<g id="a_edge17_Node000014_Node000015"><a xlink:title=" ">
<path fill="none" stroke="#63b8ff" d="M529.71,-347.73C595.08,-353.59 715.83,-364.41 786.35,-370.73"/>
<polygon fill="#63b8ff" stroke="#63b8ff" points="786.1,-374.22 796.37,-371.63 786.72,-367.25 786.1,-374.22"/>
</a>
</g>
</g>
<!-- Node16&#45;&gt;Node6 -->
<g id="edge22_Node000016_Node000006" class="edge">
<title>Node16&#45;&gt;Node6</title>
<g id="a_edge22_Node000016_Node000006"><a xlink:title=" ">
<path fill="none" stroke="#63b8ff" d="M538.54,-375.4C552.49,-372.73 567.18,-368.71 580,-362.67 613.64,-346.83 645.34,-316.72 663.29,-297.73"/>
<polygon fill="#63b8ff" stroke="#63b8ff" points="665.9,-300.07 670.11,-290.35 660.75,-295.32 665.9,-300.07"/>
</a>
</g>
</g>
<!-- Node16&#45;&gt;Node11 -->
<g id="edge20_Node000016_Node000011" class="edge">
<title>Node16&#45;&gt;Node11</title>
<g id="a_edge20_Node000016_Node000011"><a xlink:title=" ">
<path fill="none" stroke="#63b8ff" d="M516.29,-390.22C542.87,-398.12 581.81,-409.48 616,-418.67 738.07,-451.5 884.73,-486.68 945.26,-501.02"/>
<polygon fill="#63b8ff" stroke="#63b8ff" points="944.67,-504.48 955.21,-503.38 946.28,-497.67 944.67,-504.48"/>
</a>
</g>
</g>
<!-- Node16&#45;&gt;Node12 -->
<g id="edge23_Node000016_Node000012" class="edge">
<title>Node16&#45;&gt;Node12</title>
<g id="a_edge23_Node000016_Node000012"><a xlink:title=" ">
<path fill="none" stroke="#63b8ff" d="M529.07,-390.22C606.97,-405.14 772.3,-428.91 906,-394.67 922.46,-390.46 939.22,-381.3 951.92,-373.16"/>
<polygon fill="#63b8ff" stroke="#63b8ff" points="954.03,-375.96 960.39,-367.49 950.13,-370.14 954.03,-375.96"/>
</a>
</g>
</g>
<!-- Node16&#45;&gt;Node15 -->
<g id="edge21_Node000016_Node000015" class="edge">
<title>Node16&#45;&gt;Node15</title>
<g id="a_edge21_Node000016_Node000015"><a xlink:title=" ">
<path fill="none" stroke="#63b8ff" d="M538.72,-379.92C605.7,-378.98 719.02,-377.39 786.4,-376.45"/>
<polygon fill="#63b8ff" stroke="#63b8ff" points="786.45,-379.95 796.4,-376.31 786.35,-372.95 786.45,-379.95"/>
</a>
</g>
</g>
<!-- Node17&#45;&gt;Node5 -->
<g id="edge26_Node000017_Node000005" class="edge">
<title>Node17&#45;&gt;Node5</title>
<g id="a_edge26_Node000017_Node000005"><a xlink:title=" ">
<path fill="none" stroke="#63b8ff" d="M563.69,-226.51C583.75,-229.51 604.87,-232.67 623.45,-235.45"/>
<polygon fill="#63b8ff" stroke="#63b8ff" points="623.08,-238.93 633.49,-236.95 624.12,-232.01 623.08,-238.93"/>
</a>
</g>
</g>
<!-- Node17&#45;&gt;Node6 -->
<g id="edge27_Node000017_Node000006" class="edge">
<title>Node17&#45;&gt;Node6</title>
<g id="a_edge27_Node000017_Node000006"><a xlink:title=" ">
<path fill="none" stroke="#63b8ff" d="M552.7,-229.72C562.03,-232.59 571.36,-235.9 580,-239.67 597.4,-247.28 598.7,-254.86 616,-262.67 620.16,-264.56 624.57,-266.29 629.05,-267.88"/>
<polygon fill="#63b8ff" stroke="#63b8ff" points="628.28,-271.32 638.87,-271.13 630.47,-264.67 628.28,-271.32"/>
</a>
</g>
</g>
<!-- Node17&#45;&gt;Node11 -->
<g id="edge25_Node000017_Node000011" class="edge">
<title>Node17&#45;&gt;Node11</title>
<g id="a_edge25_Node000017_Node000011"><a xlink:title=" ">
<path fill="none" stroke="#63b8ff" d="M549.02,-199.63C559.44,-196.86 570.06,-193.84 580,-190.67 596.36,-185.46 599.13,-179.84 616,-176.67 742.98,-152.85 811.27,-108.82 906,-196.67 965.82,-252.15 924.46,-297 942,-376.67 950.76,-416.47 962.19,-462.77 968.59,-488.29"/>
<polygon fill="#63b8ff" stroke="#63b8ff" points="965.24,-489.33 971.08,-498.17 972.03,-487.62 965.24,-489.33"/>
</a>
</g>
</g>
<!-- Node17&#45;&gt;Node12 -->
<g id="edge28_Node000017_Node000012" class="edge">
<title>Node17&#45;&gt;Node12</title>
<g id="a_edge28_Node000017_Node000012"><a xlink:title=" ">
<path fill="none" stroke="#63b8ff" d="M563.58,-200.5C569.43,-197.77 574.99,-194.53 580,-190.67 606.18,-170.54 587.55,-142.44 616,-125.67 727.04,-60.24 802.91,-48.31 906,-125.67 910.4,-128.98 953.02,-283.02 968.18,-338.24"/>
<polygon fill="#63b8ff" stroke="#63b8ff" points="964.88,-339.44 970.9,-348.16 971.63,-337.59 964.88,-339.44"/>
</a>
</g>
</g>
<!-- Node18&#45;&gt;Node6 -->
<g id="edge31_Node000018_Node000006" class="edge">
<title>Node18&#45;&gt;Node6</title>
<g id="a_edge31_Node000018_Node000006"><a xlink:title=" ">
<path fill="none" stroke="#63b8ff" d="M521.68,-574.64C541.27,-565.11 564.4,-551.09 580,-532.67 641.01,-460.63 666.93,-346.4 675.26,-300.62"/>
<polygon fill="#63b8ff" stroke="#63b8ff" points="678.75,-300.97 677.01,-290.52 671.85,-299.77 678.75,-300.97"/>
</a>
</g>
</g>
<!-- Node18&#45;&gt;Node11 -->
<g id="edge30_Node000018_Node000011" class="edge">
<title>Node18&#45;&gt;Node11</title>
<g id="a_edge30_Node000018_Node000011"><a xlink:title=" ">
<path fill="none" stroke="#63b8ff" d="M511.21,-604.68C581.84,-642.16 776.97,-731.21 906,-649.67 949.14,-622.41 965.27,-559.24 970.83,-527.14"/>
<polygon fill="#63b8ff" stroke="#63b8ff" points="974.3,-527.61 972.39,-517.19 967.39,-526.53 974.3,-527.61"/>
</a>
</g>
</g>
<!-- Node18&#45;&gt;Node12 -->
<g id="edge32_Node000018_Node000012" class="edge">
<title>Node18&#45;&gt;Node12</title>
<g id="a_edge32_Node000018_Node000012"><a xlink:title=" ">
<path fill="none" stroke="#63b8ff" d="M563.77,-587.83C655.18,-581.85 805.72,-559.76 906,-481.67 940.66,-454.69 959.87,-404.72 968.28,-377.17"/>
<polygon fill="#63b8ff" stroke="#63b8ff" points="971.66,-378.07 971.07,-367.49 964.94,-376.13 971.66,-378.07"/>
</a>
</g>
</g>
<!-- Node19&#45;&gt;Node6 -->
<g id="edge35_Node000019_Node000006" class="edge">
<title>Node19&#45;&gt;Node6</title>
<g id="a_edge35_Node000019_Node000006"><a xlink:title=" ">
<path fill="none" stroke="#63b8ff" d="M524.88,-425.04C542.83,-419.51 563.56,-411.29 580,-399.67 619.03,-372.08 651.46,-325.23 667.56,-299.31"/>
<polygon fill="#63b8ff" stroke="#63b8ff" points="670.72,-300.85 672.91,-290.48 664.73,-297.22 670.72,-300.85"/>
</a>
</g>
</g>
<!-- Node19&#45;&gt;Node11 -->
<g id="edge34_Node000019_Node000011" class="edge">
<title>Node19&#45;&gt;Node11</title>
<g id="a_edge34_Node000019_Node000011"><a xlink:title=" ">
<path fill="none" stroke="#63b8ff" d="M502.86,-444.32C562.59,-475.63 749.24,-572.74 779,-579.67 833.97,-592.47 854.21,-602.11 906,-579.67 931.07,-568.81 951.1,-543.54 962.64,-526.03"/>
<polygon fill="#63b8ff" stroke="#63b8ff" points="965.81,-527.57 968.16,-517.24 959.88,-523.85 965.81,-527.57"/>
</a>
</g>
</g>
<!-- Node19&#45;&gt;Node12 -->
<g id="edge36_Node000019_Node000012" class="edge">
<title>Node19&#45;&gt;Node12</title>
<g id="a_edge36_Node000019_Node000012"><a xlink:title=" ">
<path fill="none" stroke="#63b8ff" d="M544.69,-444.21C628.9,-454.91 785.12,-465.02 906,-416.67 927.54,-408.06 946.88,-389.47 959.28,-375.45"/>
<polygon fill="#63b8ff" stroke="#63b8ff" points="962.27,-377.33 966.06,-367.44 956.93,-372.81 962.27,-377.33"/>
</a>
</g>
</g>
<!-- Node20&#45;&gt;Node6 -->
<g id="edge38_Node000020_Node000006" class="edge">
<title>Node20&#45;&gt;Node6</title>
<g id="a_edge38_Node000020_Node000006"><a xlink:title=" ">
<path fill="none" stroke="#63b8ff" d="M563.69,-292.51C583.75,-290.44 604.87,-288.26 623.45,-286.35"/>
<polygon fill="#63b8ff" stroke="#63b8ff" points="623.9,-289.82 633.49,-285.31 623.18,-282.86 623.9,-289.82"/>
</a>
</g>
</g>
<!-- Node21&#45;&gt;Node6 -->
<g id="edge42_Node000021_Node000006" class="edge">
<title>Node21&#45;&gt;Node6</title>
<g id="a_edge42_Node000021_Node000006"><a xlink:title=" ">
<path fill="none" stroke="#63b8ff" d="M520.68,-493.53C539.97,-484.14 563.13,-470.63 580,-453.67 626.2,-407.25 657.97,-334.77 671.36,-300.24"/>
<polygon fill="#63b8ff" stroke="#63b8ff" points="674.8,-301.03 675.06,-290.44 668.26,-298.56 674.8,-301.03"/>
</a>
</g>
</g>
<!-- Node21&#45;&gt;Node11 -->
<g id="edge40_Node000021_Node000011" class="edge">
<title>Node21&#45;&gt;Node11</title>
<g id="a_edge40_Node000021_Node000011"><a xlink:title=" ">
<path fill="none" stroke="#63b8ff" d="M513.04,-523.7C532.55,-534.44 558.63,-549.76 580,-565.67 597.41,-578.64 596.26,-589.65 616,-598.67 733.46,-652.4 793.28,-680.75 906,-617.67 940.56,-598.33 959.57,-553.26 968.03,-527.21"/>
<polygon fill="#63b8ff" stroke="#63b8ff" points="971.47,-527.93 971.03,-517.34 964.78,-525.9 971.47,-527.93"/>
</a>
</g>
</g>
<!-- Node21&#45;&gt;Node12 -->
<g id="edge43_Node000021_Node000012" class="edge">
<title>Node21&#45;&gt;Node12</title>
<g id="a_edge43_Node000021_Node000012"><a xlink:title=" ">
<path fill="none" stroke="#63b8ff" d="M545.67,-513.02C632.09,-516.29 792.06,-511.56 906,-444.67 933.49,-428.54 953.8,-396.52 964.63,-376.15"/>
<polygon fill="#63b8ff" stroke="#63b8ff" points="967.76,-377.71 969.17,-367.21 961.52,-374.54 967.76,-377.71"/>
</a>
</g>
</g>
<!-- Node21&#45;&gt;Node15 -->
<g id="edge41_Node000021_Node000015" class="edge">
<title>Node21&#45;&gt;Node15</title>
<g id="a_edge41_Node000021_Node000015"><a xlink:title=" ">
<path fill="none" stroke="#63b8ff" d="M525.1,-493.55C595.68,-467.25 739.79,-413.57 806.35,-388.77"/>
<polygon fill="#63b8ff" stroke="#63b8ff" points="807.82,-391.96 815.97,-385.18 805.38,-385.4 807.82,-391.96"/>
</a>
</g>
</g>
<!-- Node22&#45;&gt;Node7 -->
<g id="edge45_Node000022_Node000007" class="edge">
<title>Node22&#45;&gt;Node7</title>
<g id="a_edge45_Node000022_Node000007"><a xlink:title=" ">
<path fill="none" stroke="#63b8ff" d="M743.21,-208.46C751.65,-209.51 760.36,-210.6 768.96,-211.66"/>
<polygon fill="#63b8ff" stroke="#63b8ff" points="768.61,-215.15 778.96,-212.91 769.47,-208.2 768.61,-215.15"/>
</a>
</g>
</g>
<!-- Node22&#45;&gt;Node9 -->
<g id="edge48_Node000022_Node000009" class="edge">
<title>Node22&#45;&gt;Node9</title>
<g id="a_edge48_Node000022_Node000009"><a xlink:title=" ">
<path fill="none" stroke="#63b8ff" d="M730.07,-215.8C734.8,-218.57 739.23,-221.84 743,-225.67 774.63,-257.89 745.79,-290.08 779,-320.67 783.42,-324.74 788.69,-327.9 794.28,-330.34"/>
<polygon fill="#63b8ff" stroke="#63b8ff" points="793.3,-333.71 803.89,-333.82 795.68,-327.13 793.3,-333.71"/>
</a>
</g>
</g>
<!-- Node22&#45;&gt;Node10 -->
<g id="edge49_Node000022_Node000010" class="edge">
<title>Node22&#45;&gt;Node10</title>
<g id="a_edge49_Node000022_Node000010"><a xlink:title=" ">
<path fill="none" stroke="#63b8ff" d="M727.26,-215.78C732.85,-218.61 738.25,-221.89 743,-225.67 764.98,-243.19 756.9,-260.31 779,-277.67 784.16,-281.73 790.08,-285.16 796.18,-288.05"/>
<polygon fill="#63b8ff" stroke="#63b8ff" points="795.25,-291.46 805.82,-292.15 797.99,-285.01 795.25,-291.46"/>
</a>
</g>
</g>
<!-- Node22&#45;&gt;Node11 -->
<g id="edge46_Node000022_Node000011" class="edge">
<title>Node22&#45;&gt;Node11</title>
<g id="a_edge46_Node000022_Node000011"><a xlink:title=" ">
<path fill="none" stroke="#63b8ff" d="M720.11,-215.79C727.77,-218.91 735.68,-222.29 743,-225.67 759.42,-233.27 762.28,-237.77 779,-244.67 833.57,-267.22 864.36,-241.81 906,-283.67 920.84,-298.6 955.91,-436.22 968.71,-488.05"/>
<polygon fill="#63b8ff" stroke="#63b8ff" points="965.37,-489.12 971.15,-497.99 972.17,-487.45 965.37,-489.12"/>
</a>
</g>
</g>
<!-- Node22&#45;&gt;Node12 -->
<g id="edge50_Node000022_Node000012" class="edge">
<title>Node22&#45;&gt;Node12</title>
<g id="a_edge50_Node000022_Node000012"><a xlink:title=" ">
<path fill="none" stroke="#63b8ff" d="M726.67,-185.6C775.5,-172.69 852.69,-161.22 906,-196.67 930.8,-213.17 957.3,-299.22 968.28,-338.31"/>
<polygon fill="#63b8ff" stroke="#63b8ff" points="964.92,-339.29 970.95,-348 971.66,-337.43 964.92,-339.29"/>
</a>
</g>
</g>
<!-- Node22&#45;&gt;Node15 -->
<g id="edge47_Node000022_Node000015" class="edge">
<title>Node22&#45;&gt;Node15</title>
<g id="a_edge47_Node000022_Node000015"><a xlink:title=" ">
<path fill="none" stroke="#63b8ff" d="M731.05,-215.82C735.49,-218.58 739.58,-221.84 743,-225.67 783.47,-271.06 736.31,-314.37 779,-357.67 781.49,-360.2 784.32,-362.38 787.35,-364.26"/>
<polygon fill="#63b8ff" stroke="#63b8ff" points="785.87,-367.43 796.37,-368.79 789.01,-361.17 785.87,-367.43"/>
</a>
</g>
</g>
</g>
</svg>

<g id="navigator" transform="translate(0 0)" fill="#404254">
  <rect fill="#f2f5e9" fill-opacity="0.5" stroke="#606060" stroke-width=".5" x="0" y="0" width="60" height="60"/>
  <use id="zoomplus" xlink:href="#zoomPlus" x="17" y="9" onmousedown="handleZoom(evt,'in')"/>
  <use id="zoomminus" xlink:href="#zoomMin" x="42" y="9" onmousedown="handleZoom(evt,'out')"/>
  <use id="reset" xlink:href="#resetDef" x="30" y="36" onmousedown="handleReset()"/>
   <use id="arrowup" xlink:href="#arrowUp" x="0" y="0" onmousedown="handlePan(0,-1)"/>
  <use id="arrowright" xlink:href="#arrowRight" x="0" y="0" onmousedown="handlePan(1,0)"/>
  <use id="arrowdown" xlink:href="#arrowDown" x="0" y="0" onmousedown="handlePan(0,1)"/>
  <use id="arrowleft" xlink:href="#arrowLeft" x="0" y="0" onmousedown="handlePan(-1,0)"/>
</g>
<svg viewBox="0 0 15 15" width="100%" height="30px" preserveAspectRatio="xMaxYMin meet">
 <g id="arrow_out" transform="scale(0.3 0.3)">
  <a xlink:href="render__player_8h_a01be050002fbc5c7f80bda44baae4a79_cgraph_org.svg" target="_base">
   <rect id="button" ry="5" rx="5" y="6" x="6" height="38" width="38"
        fill="#f2f5e9" fill-opacity="0.5" stroke="#606060" stroke-width="1.0"/>
   <path id="arrow"
     d="M 11.500037,31.436501 C 11.940474,20.09759 22.043105,11.32322 32.158766,21.979434 L 37.068811,17.246167 C 37.068811,17.246167 37.088388,32 37.088388,32 L 22.160133,31.978069 C 22.160133,31.978069 26.997745,27.140456 26.997745,27.140456 C 18.528582,18.264221 13.291696,25.230495 11.500037,31.436501 z"
     style="fill:#404040;"/>
  </a>
 </g>
</svg>

<style type='text/css'>
<![CDATA[
[data-mouse-over-selected='false'] { opacity: 0.7; }
[data-mouse-over-selected='true']  { opacity: 1.0; }
]]>
</style>
<script type="application/ecmascript"><![CDATA[
document.addEventListener('DOMContentLoaded', (event) => {
  highlightEdges();
  highlightAdjacentNodes();
});
]]></script>
</svg>
