<?xml version="1.0" encoding="UTF-8" standalone="no"?>
<!DOCTYPE svg PUBLIC "-//W3C//DTD SVG 1.1//EN"
 "http://www.w3.org/Graphics/SVG/1.1/DTD/svg11.dtd">
<!-- Generated by graphviz version 2.43.0 (0)
 -->
<!-- Title: func_8004D0D4 Pages: 1 -->
<svg width="406pt" height="64pt"
 viewBox="0.00 0.00 406.00 64.00" xmlns="http://www.w3.org/2000/svg" xmlns:xlink="http://www.w3.org/1999/xlink">
<g id="graph0" class="graph" transform="scale(1 1) rotate(0) translate(4 60)">
<title>func_8004D0D4</title>
<!-- Node1 -->
<g id="Node000001" class="node">
<title>Node1</title>
<g id="a_Node000001"><a xlink:title=" ">
<polygon fill="#999999" stroke="#666666" points="94,-37 0,-37 0,-18 94,-18 94,-37"/>
<text text-anchor="middle" x="47" y="-25" font-family="Helvetica,sans-Serif" font-size="10.00">func_8004D0D4</text>
</a>
</g>
</g>
<!-- Node2 -->
<g id="Node000002" class="node">
<title>Node2</title>
<g id="a_Node000002"><a xlink:href="render__objects_8c.html#ace17844cb3a8e3b2060b310b923b38ee" target="_top" xlink:title=" ">
<polygon fill="white" stroke="#666666" points="221.5,-56 130.5,-56 130.5,-37 221.5,-37 221.5,-56"/>
<text text-anchor="middle" x="176" y="-44" font-family="Helvetica,sans-Serif" font-size="10.00">func_80044924</text>
</a>
</g>
</g>
<!-- Node1&#45;&gt;Node2 -->
<g id="edge1_Node000001_Node000002" class="edge">
<title>Node1&#45;&gt;Node2</title>
<g id="a_edge1_Node000001_Node000002"><a xlink:title=" ">
<path fill="none" stroke="#63b8ff" d="M94.21,-34.41C102.67,-35.68 111.58,-37.01 120.26,-38.31"/>
<polygon fill="#63b8ff" stroke="#63b8ff" points="119.9,-41.8 130.31,-39.81 120.94,-34.87 119.9,-41.8"/>
</a>
</g>
</g>
<!-- Node3 -->
<g id="Node000003" class="node">
<title>Node3</title>
<g id="a_Node000003"><a xlink:href="render__objects_8c.html#ac22e89e30eb787d96c44dd83f683930e" target="_top" xlink:title=" ">
<polygon fill="white" stroke="#666666" points="222,-19 130,-19 130,0 222,0 222,-19"/>
<text text-anchor="middle" x="176" y="-7" font-family="Helvetica,sans-Serif" font-size="10.00">func_8004B97C</text>
</a>
</g>
</g>
<!-- Node1&#45;&gt;Node3 -->
<g id="edge2_Node000001_Node000003" class="edge">
<title>Node1&#45;&gt;Node3</title>
<g id="a_edge2_Node000001_Node000003"><a xlink:title=" ">
<path fill="none" stroke="#63b8ff" d="M94.21,-20.95C102.57,-19.77 111.36,-18.52 119.95,-17.3"/>
<polygon fill="#63b8ff" stroke="#63b8ff" points="120.48,-20.76 129.89,-15.89 119.49,-13.83 120.48,-20.76"/>
</a>
</g>
</g>
<!-- Node4 -->
<g id="Node000004" class="node">
<title>Node4</title>
<g id="a_Node000004"><a xlink:href="render__objects_8c.html#a33684f0745ad1366fef89d3fd5ef598e" target="_top" xlink:title=" ">
<polygon fill="white" stroke="#666666" points="398,-19 258,-19 258,0 398,0 398,-19"/>
<text text-anchor="middle" x="328" y="-7" font-family="Helvetica,sans-Serif" font-size="10.00">render_texture_rectangle</text>
</a>
</g>
</g>
<!-- Node3&#45;&gt;Node4 -->
<g id="edge3_Node000003_Node000004" class="edge">
<title>Node3&#45;&gt;Node4</title>
<g id="a_edge3_Node000003_Node000004"><a xlink:title=" ">
<path fill="none" stroke="#63b8ff" d="M222,-9.5C230.22,-9.5 239.01,-9.5 247.87,-9.5"/>
<polygon fill="#63b8ff" stroke="#63b8ff" points="247.89,-13 257.89,-9.5 247.89,-6 247.89,-13"/>
</a>
</g>
</g>
</g>
</svg>
