<?xml version="1.0" encoding="UTF-8" standalone="no"?>
<!DOCTYPE svg PUBLIC "-//W3C//DTD SVG 1.1//EN"
 "http://www.w3.org/Graphics/SVG/1.1/DTD/svg11.dtd">
<!-- Generated by graphviz version 2.43.0 (0)
 -->
<!-- Title: func_8004C450 Pages: 1 -->
<svg width="422pt" height="113pt"
 viewBox="0.00 0.00 422.00 112.50" xmlns="http://www.w3.org/2000/svg" xmlns:xlink="http://www.w3.org/1999/xlink">

<svg id="main" version="1.1" xmlns="http://www.w3.org/2000/svg" xmlns:xlink="http://www.w3.org/1999/xlink" xml:space="preserve" onload="init(evt)">
<style type="text/css"><![CDATA[
.node, .edge {opacity: 0.7;}
.node.selected, .edge.selected {opacity: 1;}
.edge:hover path { stroke: red; }
.edge:hover polygon { stroke: red; fill: red; }
]]></style>
<script type="application/ecmascript" xlink:href="svg.min.js"/>
<svg id="graph" class="graph">
<g id="graph0" class="graph" transform="scale(1 1) rotate(0) translate(4 108.5)">
<title>func_8004C450</title>
<!-- Node1 -->
<g id="Node000001" class="node">
<title>Node1</title>
<g id="a_Node000001"><a xlink:title=" ">
<polygon fill="#999999" stroke="#666666" points="92,-67.5 0,-67.5 0,-48.5 92,-48.5 92,-67.5"/>
<text text-anchor="middle" x="46" y="-55.5" font-family="Helvetica,sans-Serif" font-size="10.00">func_8004C450</text>
</a>
</g>
</g>
<!-- Node2 -->
<g id="Node000002" class="node">
<title>Node2</title>
<g id="a_Node000002"><a xlink:href="render__objects_8c.html#a3412bd1100bae2a7228c53d260c4c5c5" target="_top" xlink:title=" ">
<polygon fill="white" stroke="#666666" points="229,-104.5 137,-104.5 137,-85.5 229,-85.5 229,-104.5"/>
<text text-anchor="middle" x="183" y="-92.5" font-family="Helvetica,sans-Serif" font-size="10.00">func_8004B614</text>
</a>
</g>
</g>
<!-- Node1&#45;&gt;Node2 -->
<g id="edge1_Node000001_Node000002" class="edge">
<title>Node1&#45;&gt;Node2</title>
<g id="a_edge1_Node000001_Node000002"><a xlink:title=" ">
<path fill="none" stroke="#63b8ff" d="M81.77,-67.53C98.64,-72.15 119.12,-77.77 137.15,-82.71"/>
<polygon fill="#63b8ff" stroke="#63b8ff" points="136.31,-86.11 146.88,-85.38 138.16,-79.36 136.31,-86.11"/>
</a>
</g>
</g>
<!-- Node3 -->
<g id="Node000003" class="node">
<title>Node3</title>
<g id="a_Node000003"><a xlink:href="render__objects_8c.html#ac22e89e30eb787d96c44dd83f683930e" target="_top" xlink:title=" ">
<polygon fill="white" stroke="#666666" points="229,-67.5 137,-67.5 137,-48.5 229,-48.5 229,-67.5"/>
<text text-anchor="middle" x="183" y="-55.5" font-family="Helvetica,sans-Serif" font-size="10.00">func_8004B97C</text>
</a>
</g>
</g>
<!-- Node1&#45;&gt;Node3 -->
<g id="edge2_Node000001_Node000003" class="edge">
<title>Node1&#45;&gt;Node3</title>
<g id="a_edge2_Node000001_Node000003"><a xlink:title=" ">
<path fill="none" stroke="#63b8ff" d="M92.33,-58C103.24,-58 115.01,-58 126.33,-58"/>
<polygon fill="#63b8ff" stroke="#63b8ff" points="126.56,-61.5 136.56,-58 126.56,-54.5 126.56,-61.5"/>
</a>
</g>
</g>
<!-- Node5 -->
<g id="Node000005" class="node">
<title>Node5</title>
<g id="a_Node000005"><a xlink:href="render__objects_8c.html#abb8ae92ab6d9189d5851fdfad2ac7f91" target="_top" xlink:title=" ">
<polygon fill="white" stroke="#666666" points="238,-30 128,-30 128,0 238,0 238,-30"/>
<text text-anchor="start" x="136" y="-18" font-family="Helvetica,sans-Serif" font-size="10.00">load_texture_block</text>
<text text-anchor="middle" x="183" y="-7" font-family="Helvetica,sans-Serif" font-size="10.00">_rgba16_mirror</text>
</a>
</g>
</g>
<!-- Node1&#45;&gt;Node5 -->
<g id="edge4_Node000001_Node000005" class="edge">
<title>Node1&#45;&gt;Node5</title>
<g id="a_edge4_Node000001_Node000005"><a xlink:title=" ">
<path fill="none" stroke="#63b8ff" d="M76.96,-48.46C91.18,-43.93 108.66,-38.36 125.25,-33.07"/>
<polygon fill="#63b8ff" stroke="#63b8ff" points="126.42,-36.38 134.89,-30.01 124.3,-29.71 126.42,-36.38"/>
</a>
</g>
</g>
<!-- Node4 -->
<g id="Node000004" class="node">
<title>Node4</title>
<g id="a_Node000004"><a xlink:href="render__objects_8c.html#a33684f0745ad1366fef89d3fd5ef598e" target="_top" xlink:title=" ">
<polygon fill="white" stroke="#666666" points="414,-67.5 274,-67.5 274,-48.5 414,-48.5 414,-67.5"/>
<text text-anchor="middle" x="344" y="-55.5" font-family="Helvetica,sans-Serif" font-size="10.00">render_texture_rectangle</text>
</a>
</g>
</g>
<!-- Node3&#45;&gt;Node4 -->
<g id="edge3_Node000003_Node000004" class="edge">
<title>Node3&#45;&gt;Node4</title>
<g id="a_edge3_Node000003_Node000004"><a xlink:title=" ">
<path fill="none" stroke="#63b8ff" d="M229.14,-58C240.04,-58 252.01,-58 263.97,-58"/>
<polygon fill="#63b8ff" stroke="#63b8ff" points="263.98,-61.5 273.98,-58 263.98,-54.5 263.98,-61.5"/>
</a>
</g>
</g>
</g>
</svg>
</svg>

<style type='text/css'>
<![CDATA[
[data-mouse-over-selected='false'] { opacity: 0.7; }
[data-mouse-over-selected='true']  { opacity: 1.0; }
]]>
</style>
<script type="application/ecmascript"><![CDATA[
document.addEventListener('DOMContentLoaded', (event) => {
  highlightEdges();
  highlightAdjacentNodes();
});
]]></script>
</svg>
