<?xml version="1.0" encoding="UTF-8" standalone="no"?>
<!DOCTYPE svg PUBLIC "-//W3C//DTD SVG 1.1//EN"
 "http://www.w3.org/Graphics/SVG/1.1/DTD/svg11.dtd">
<!-- Generated by graphviz version 2.43.0 (0)
 -->
<!-- Title: func_80049F28 Pages: 1 -->
<svg width="491pt" height="160pt"
 viewBox="0.00 0.00 491.00 159.50" xmlns="http://www.w3.org/2000/svg" xmlns:xlink="http://www.w3.org/1999/xlink">
<g id="graph0" class="graph" transform="scale(1 1) rotate(0) translate(4 155.5)">
<title>func_80049F28</title>
<!-- Node1 -->
<g id="Node000001" class="node">
<title>Node1</title>
<g id="a_Node000001"><a xlink:title=" ">
<polygon fill="#999999" stroke="#666666" points="91,-56 0,-56 0,-37 91,-37 91,-56"/>
<text text-anchor="middle" x="45.5" y="-44" font-family="Helvetica,sans-Serif" font-size="10.00">func_80049F28</text>
</a>
</g>
</g>
<!-- Node2 -->
<g id="Node000002" class="node">
<title>Node2</title>
<g id="a_Node000002"><a xlink:href="math__util__2_8c.html#a22aa509214eeed1ba3197762e76d7bed" target="_top" xlink:title=" ">
<polygon fill="white" stroke="#666666" points="218.5,-98 127.5,-98 127.5,-79 218.5,-79 218.5,-98"/>
<text text-anchor="middle" x="173" y="-86" font-family="Helvetica,sans-Serif" font-size="10.00">func_80042330</text>
</a>
</g>
</g>
<!-- Node1&#45;&gt;Node2 -->
<g id="edge1_Node000001_Node000002" class="edge">
<title>Node1&#45;&gt;Node2</title>
<g id="a_edge1_Node000001_Node000002"><a xlink:title=" ">
<path fill="none" stroke="#63b8ff" d="M74.98,-56.03C92.34,-61.84 114.76,-69.35 133.68,-75.67"/>
<polygon fill="#63b8ff" stroke="#63b8ff" points="132.61,-79.01 143.2,-78.86 134.83,-72.37 132.61,-79.01"/>
</a>
</g>
</g>
<!-- Node8 -->
<g id="Node000008" class="node">
<title>Node8</title>
<g id="a_Node000008"><a xlink:href="render__objects_8c.html#ab687ef8b2c2a6efc6c4d84f3a15c0e8a" target="_top" xlink:title=" ">
<polygon fill="white" stroke="#666666" points="219,-56 127,-56 127,-37 219,-37 219,-56"/>
<text text-anchor="middle" x="173" y="-44" font-family="Helvetica,sans-Serif" font-size="10.00">func_800492D4</text>
</a>
</g>
</g>
<!-- Node1&#45;&gt;Node8 -->
<g id="edge7_Node000001_Node000008" class="edge">
<title>Node1&#45;&gt;Node8</title>
<g id="a_edge7_Node000001_Node000008"><a xlink:title=" ">
<path fill="none" stroke="#63b8ff" d="M91.1,-46.5C99.31,-46.5 107.98,-46.5 116.47,-46.5"/>
<polygon fill="#63b8ff" stroke="#63b8ff" points="116.7,-50 126.7,-46.5 116.7,-43 116.7,-50"/>
</a>
</g>
</g>
<!-- Node10 -->
<g id="Node000010" class="node">
<title>Node10</title>
<g id="a_Node000010"><a xlink:href="render__objects_8c.html#a6b0955bb181f1c4da816f44baf21bc5d" target="_top" xlink:title=" ">
<polygon fill="white" stroke="#666666" points="219,-19 127,-19 127,0 219,0 219,-19"/>
<text text-anchor="middle" x="173" y="-7" font-family="Helvetica,sans-Serif" font-size="10.00">func_8004B35C</text>
</a>
</g>
</g>
<!-- Node1&#45;&gt;Node10 -->
<g id="edge9_Node000001_Node000010" class="edge">
<title>Node1&#45;&gt;Node10</title>
<g id="a_edge9_Node000001_Node000010"><a xlink:title=" ">
<path fill="none" stroke="#63b8ff" d="M78.82,-36.97C94.22,-32.43 112.84,-26.94 129.37,-22.07"/>
<polygon fill="#63b8ff" stroke="#63b8ff" points="130.75,-25.31 139.35,-19.12 128.77,-18.6 130.75,-25.31"/>
</a>
</g>
</g>
<!-- Node3 -->
<g id="Node000003" class="node">
<title>Node3</title>
<g id="a_Node000003"><a xlink:href="render__player_8c.html#ab7bf9484e155990f138e03ae5339fc84" target="_top" xlink:title=" ">
<polygon fill="white" stroke="#666666" points="382,-151.5 255,-151.5 255,-121.5 382,-121.5 382,-151.5"/>
<text text-anchor="start" x="263" y="-139.5" font-family="Helvetica,sans-Serif" font-size="10.00">convert_to_fixed_point</text>
<text text-anchor="middle" x="318.5" y="-128.5" font-family="Helvetica,sans-Serif" font-size="10.00">_matrix</text>
</a>
</g>
</g>
<!-- Node2&#45;&gt;Node3 -->
<g id="edge2_Node000002_Node000003" class="edge">
<title>Node2&#45;&gt;Node3</title>
<g id="a_edge2_Node000002_Node000003"><a xlink:title=" ">
<path fill="none" stroke="#63b8ff" d="M202.69,-98.1C219.92,-103.86 242.41,-111.38 262.91,-118.24"/>
<polygon fill="#63b8ff" stroke="#63b8ff" points="261.87,-121.58 272.47,-121.44 264.09,-114.95 261.87,-121.58"/>
</a>
</g>
</g>
<!-- Node5 -->
<g id="Node000005" class="node">
<title>Node5</title>
<g id="a_Node000005"><a xlink:href="math__util__2_8c.html#a54b1e79ca4e8d2f7f7256891f9c4e772" target="_top" xlink:title="arg1 and arg2 are s32&#39;s into floats?!?">
<polygon fill="white" stroke="#666666" points="381.5,-103.5 255.5,-103.5 255.5,-73.5 381.5,-73.5 381.5,-103.5"/>
<text text-anchor="start" x="263.5" y="-91.5" font-family="Helvetica,sans-Serif" font-size="10.00">mtxf_translation_x</text>
<text text-anchor="middle" x="318.5" y="-80.5" font-family="Helvetica,sans-Serif" font-size="10.00">_y_rotate_z_scale_x_y</text>
</a>
</g>
</g>
<!-- Node2&#45;&gt;Node5 -->
<g id="edge4_Node000002_Node000005" class="edge">
<title>Node2&#45;&gt;Node5</title>
<g id="a_edge4_Node000002_Node000005"><a xlink:title=" ">
<path fill="none" stroke="#63b8ff" d="M218.62,-88.5C227.05,-88.5 236.06,-88.5 245.09,-88.5"/>
<polygon fill="#63b8ff" stroke="#63b8ff" points="245.26,-92 255.26,-88.5 245.26,-85 245.26,-92"/>
</a>
</g>
</g>
<!-- Node4 -->
<g id="Node000004" class="node">
<title>Node4</title>
<g id="a_Node000004"><a xlink:href="guMtxF2L_8c.html#a40ab2d64c609839ff1e0ef0de2d0dcc4" target="_top" xlink:title=" ">
<polygon fill="white" stroke="#666666" points="483,-146 418,-146 418,-127 483,-127 483,-146"/>
<text text-anchor="middle" x="450.5" y="-134" font-family="Helvetica,sans-Serif" font-size="10.00">guMtxF2L</text>
</a>
</g>
</g>
<!-- Node3&#45;&gt;Node4 -->
<g id="edge3_Node000003_Node000004" class="edge">
<title>Node3&#45;&gt;Node4</title>
<g id="a_edge3_Node000003_Node000004"><a xlink:title=" ">
<path fill="none" stroke="#63b8ff" d="M382.22,-136.5C390.79,-136.5 399.42,-136.5 407.51,-136.5"/>
<polygon fill="#63b8ff" stroke="#63b8ff" points="407.77,-140 417.77,-136.5 407.77,-133 407.77,-140"/>
</a>
</g>
</g>
<!-- Node6 -->
<g id="Node000006" class="node">
<title>Node6</title>
<g id="a_Node000006"><a xlink:href="math__util_8c.html#a5eb0d9752bc1557b7f4ae3809352a0eb" target="_top" xlink:title=" ">
<polygon fill="white" stroke="#666666" points="469.5,-104 431.5,-104 431.5,-85 469.5,-85 469.5,-104"/>
<text text-anchor="middle" x="450.5" y="-92" font-family="Helvetica,sans-Serif" font-size="10.00">coss</text>
</a>
</g>
</g>
<!-- Node5&#45;&gt;Node6 -->
<g id="edge5_Node000005_Node000006" class="edge">
<title>Node5&#45;&gt;Node6</title>
<g id="a_edge5_Node000005_Node000006"><a xlink:title=" ">
<path fill="none" stroke="#63b8ff" d="M381.83,-91.38C395.56,-92.01 409.45,-92.65 421.04,-93.19"/>
<polygon fill="#63b8ff" stroke="#63b8ff" points="421.22,-96.7 431.37,-93.66 421.54,-89.71 421.22,-96.7"/>
</a>
</g>
</g>
<!-- Node7 -->
<g id="Node000007" class="node">
<title>Node7</title>
<g id="a_Node000007"><a xlink:href="math__util_8c.html#adcf81d47666b5d86c4a1dbcb06e47faf" target="_top" xlink:title=" ">
<polygon fill="white" stroke="#666666" points="468.5,-67 432.5,-67 432.5,-48 468.5,-48 468.5,-67"/>
<text text-anchor="middle" x="450.5" y="-55" font-family="Helvetica,sans-Serif" font-size="10.00">sins</text>
</a>
</g>
</g>
<!-- Node5&#45;&gt;Node7 -->
<g id="edge6_Node000005_Node000007" class="edge">
<title>Node5&#45;&gt;Node7</title>
<g id="a_edge6_Node000005_Node000007"><a xlink:title=" ">
<path fill="none" stroke="#63b8ff" d="M381.83,-73.64C396.1,-70.23 410.54,-66.79 422.4,-63.96"/>
<polygon fill="#63b8ff" stroke="#63b8ff" points="423.57,-67.28 432.48,-61.56 421.94,-60.47 423.57,-67.28"/>
</a>
</g>
</g>
<!-- Node9 -->
<g id="Node000009" class="node">
<title>Node9</title>
<g id="a_Node000009"><a xlink:href="render__objects_8c.html#a36eddea0c0ee0ae1fb20b028998d90c6" target="_top" xlink:title=" ">
<polygon fill="white" stroke="#666666" points="373.5,-55.5 263.5,-55.5 263.5,-25.5 373.5,-25.5 373.5,-55.5"/>
<text text-anchor="start" x="271.5" y="-43.5" font-family="Helvetica,sans-Serif" font-size="10.00">load_texture_block</text>
<text text-anchor="middle" x="318.5" y="-32.5" font-family="Helvetica,sans-Serif" font-size="10.00">_ia8_nomirror</text>
</a>
</g>
</g>
<!-- Node8&#45;&gt;Node9 -->
<g id="edge8_Node000008_Node000009" class="edge">
<title>Node8&#45;&gt;Node9</title>
<g id="a_edge8_Node000008_Node000009"><a xlink:title=" ">
<path fill="none" stroke="#63b8ff" d="M219.01,-44.62C229.88,-44.16 241.71,-43.67 253.27,-43.19"/>
<polygon fill="#63b8ff" stroke="#63b8ff" points="253.49,-46.68 263.33,-42.76 253.2,-39.69 253.49,-46.68"/>
</a>
</g>
</g>
</g>
</svg>
