<?xml version="1.0" encoding="UTF-8" standalone="no"?>
<!DOCTYPE svg PUBLIC "-//W3C//DTD SVG 1.1//EN"
 "http://www.w3.org/Graphics/SVG/1.1/DTD/svg11.dtd">
<!-- Generated by graphviz version 2.43.0 (0)
 -->
<!-- Title: func_80021C78 Pages: 1 -->
<!--zoomable 501 -->

<svg id="main" version="1.1" xmlns="http://www.w3.org/2000/svg" xmlns:xlink="http://www.w3.org/1999/xlink" xml:space="preserve" onload="init(evt)">
<style type="text/css"><![CDATA[
.node, .edge {opacity: 0.7;}
.node.selected, .edge.selected {opacity: 1;}
.edge:hover path { stroke: red; }
.edge:hover polygon { stroke: red; fill: red; }
]]></style>

<defs>
  <circle id="rim" cx="0" cy="0" r="7"/>
  <circle id="rim2" cx="0" cy="0" r="3.5"/>
  <g id="zoomPlus">
    <use xlink:href="#rim" fill="#404040"><set attributeName="fill" to="#808080" begin="zoomplus.mouseover" end="zoomplus.mouseout"/></use>
    <path d="M-4,0h8M0,-4v8" fill="none" stroke="white" stroke-width="1.5" pointer-events="none"/>
  </g>
  <g id="zoomMin">
    <use xlink:href="#rim" fill="#404040"><set attributeName="fill" to="#808080" begin="zoomminus.mouseover" end="zoomminus.mouseout"/></use>
    <path d="M-4,0h8" fill="none" stroke="white" stroke-width="1.5" pointer-events="none"/>
  </g>
  <g id="arrowUp" transform="translate(30 24)">
    <use xlink:href="#rim"/>
    <path pointer-events="none" fill="none" stroke="white" stroke-width="1.5" d="M0,-3.0v7 M-2.5,-0.5L0,-3.0L2.5,-0.5"/>
  </g>
  <g id="arrowRight" transform="rotate(90) translate(36 -43)">
    <use xlink:href="#rim"/>
    <path pointer-events="none" fill="none" stroke="white" stroke-width="1.5" d="M0,-3.0v7 M-2.5,-0.5L0,-3.0L2.5,-0.5"/>
  </g>
  <g id="arrowDown" transform="rotate(180) translate(-30 -48)">
    <use xlink:href="#rim"/>
    <path pointer-events="none" fill="none" stroke="white" stroke-width="1.5" d="M0,-3.0v7 M-2.5,-0.5L0,-3.0L2.5,-0.5"/>
  </g>
  <g id="arrowLeft" transform="rotate(270) translate(-36 17)">
    <use xlink:href="#rim"/>
    <path pointer-events="none" fill="none" stroke="white" stroke-width="1.5" d="M0,-3.0v7 M-2.5,-0.5L0,-3.0L2.5,-0.5"/>
  </g>
  <g id="resetDef">
    <use xlink:href="#rim2" fill="#404040"><set attributeName="fill" to="#808080" begin="reset.mouseover" end="reset.mouseout"/></use>
  </g>
</defs>
<script type="application/ecmascript">
var viewWidth = 979;
var viewHeight = 501;
var sectionId = 'dynsection-16';
</script>
<script type="application/ecmascript" xlink:href="svg.min.js"/>
<svg id="graph" class="graph">
<g id="viewport">
<title>func_80021C78</title>
<!-- Node1 -->
<g id="Node000001" class="node">
<title>Node1</title>
<g id="a_Node000001"><a xlink:title=" ">
<polygon fill="#999999" stroke="#666666" points="92,-240.86 0,-240.86 0,-221.86 92,-221.86 92,-240.86"/>
<text text-anchor="middle" x="46" y="-228.86" font-family="Helvetica,sans-Serif" font-size="10.00">func_80021C78</text>
</a>
</g>
</g>
<!-- Node2 -->
<g id="Node000002" class="node">
<title>Node2</title>
<g id="a_Node000002"><a xlink:href="code__80057C60_8c.html#a0cab15af83cd138ce754a557705ba8ff" target="_top" xlink:title=" ">
<polygon fill="white" stroke="#666666" points="219,-240.86 128,-240.86 128,-221.86 219,-221.86 219,-240.86"/>
<text text-anchor="middle" x="173.5" y="-228.86" font-family="Helvetica,sans-Serif" font-size="10.00">func_8006E848</text>
</a>
</g>
</g>
<!-- Node1&#45;&gt;Node2 -->
<g id="edge1_Node000001_Node000002" class="edge">
<title>Node1&#45;&gt;Node2</title>
<g id="a_edge1_Node000001_Node000002"><a xlink:title=" ">
<path fill="none" stroke="#63b8ff" d="M92.31,-231.36C100.49,-231.36 109.11,-231.36 117.54,-231.36"/>
<polygon fill="#63b8ff" stroke="#63b8ff" points="117.68,-234.86 127.68,-231.36 117.68,-227.86 117.68,-234.86"/>
</a>
</g>
</g>
<!-- Node3 -->
<g id="Node000003" class="node">
<title>Node3</title>
<g id="a_Node000003"><a xlink:href="code__80057C60_8c.html#a268141e86832725ec842fb8a391f37a2" target="_top" xlink:title=" ">
<polygon fill="white" stroke="#666666" points="350,-240.86 255,-240.86 255,-221.86 350,-221.86 350,-240.86"/>
<text text-anchor="middle" x="302.5" y="-228.86" font-family="Helvetica,sans-Serif" font-size="10.00">func_8006DD3C</text>
</a>
</g>
</g>
<!-- Node2&#45;&gt;Node3 -->
<g id="edge2_Node000002_Node000003" class="edge">
<title>Node2&#45;&gt;Node3</title>
<g id="a_edge2_Node000002_Node000003"><a xlink:title=" ">
<path fill="none" stroke="#63b8ff" d="M219.28,-231.36C227.5,-231.36 236.19,-231.36 244.71,-231.36"/>
<polygon fill="#63b8ff" stroke="#63b8ff" points="244.98,-234.86 254.98,-231.36 244.98,-227.86 244.98,-234.86"/>
</a>
</g>
</g>
<!-- Node4 -->
<g id="Node000004" class="node">
<title>Node4</title>
<g id="a_Node000004"><a xlink:href="code__80057C60_8c.html#a3f7eaa00f6c7a777007bb0cd45c49c31" target="_top" xlink:title=" ">
<polygon fill="white" stroke="#666666" points="528,-368.86 437,-368.86 437,-349.86 528,-349.86 528,-368.86"/>
<text text-anchor="middle" x="482.5" y="-356.86" font-family="Helvetica,sans-Serif" font-size="10.00">func_80066998</text>
</a>
</g>
</g>
<!-- Node3&#45;&gt;Node4 -->
<g id="edge3_Node000003_Node000004" class="edge">
<title>Node3&#45;&gt;Node4</title>
<g id="a_edge3_Node000003_Node000004"><a xlink:title=" ">
<path fill="none" stroke="#63b8ff" d="M307.84,-241.11C318.05,-262.81 345.78,-315.16 386,-340.36 398.1,-347.94 412.62,-352.59 426.64,-355.41"/>
<polygon fill="#63b8ff" stroke="#63b8ff" points="426.27,-358.9 436.72,-357.16 427.46,-352.01 426.27,-358.9"/>
</a>
</g>
</g>
<!-- Node13 -->
<g id="Node000013" class="node">
<title>Node13</title>
<g id="a_Node000013"><a xlink:href="code__80057C60_8c.html#a83b70a807a1868d489124f4250751dce" target="_top" xlink:title=" ">
<polygon fill="white" stroke="#666666" points="528,-331.86 437,-331.86 437,-312.86 528,-312.86 528,-331.86"/>
<text text-anchor="middle" x="482.5" y="-319.86" font-family="Helvetica,sans-Serif" font-size="10.00">func_80068724</text>
</a>
</g>
</g>
<!-- Node3&#45;&gt;Node13 -->
<g id="edge12_Node000003_Node000013" class="edge">
<title>Node3&#45;&gt;Node13</title>
<g id="a_edge12_Node000003_Node000013"><a xlink:title=" ">
<path fill="none" stroke="#63b8ff" d="M311.51,-241.07C325.1,-256.82 354.27,-287.76 386,-303.36 398.57,-309.54 413.02,-313.71 426.8,-316.53"/>
<polygon fill="#63b8ff" stroke="#63b8ff" points="426.21,-319.98 436.68,-318.35 427.48,-313.09 426.21,-319.98"/>
</a>
</g>
</g>
<!-- Node14 -->
<g id="Node000014" class="node">
<title>Node14</title>
<g id="a_Node000014"><a xlink:href="code__80057C60_8c.html#aeacc1b0f213ad8d484e5dfac5c42920f" target="_top" xlink:title=" ">
<polygon fill="white" stroke="#666666" points="528.5,-160.86 436.5,-160.86 436.5,-141.86 528.5,-141.86 528.5,-160.86"/>
<text text-anchor="middle" x="482.5" y="-148.86" font-family="Helvetica,sans-Serif" font-size="10.00">func_8006A280</text>
</a>
</g>
</g>
<!-- Node3&#45;&gt;Node14 -->
<g id="edge16_Node000003_Node000014" class="edge">
<title>Node3&#45;&gt;Node14</title>
<g id="a_edge16_Node000003_Node000014"><a xlink:title=" ">
<path fill="none" stroke="#63b8ff" d="M313.19,-221.65C327.69,-207.74 356.49,-182.38 386,-169.36 398.55,-163.83 412.75,-159.99 426.3,-157.34"/>
<polygon fill="#63b8ff" stroke="#63b8ff" points="427.26,-160.72 436.5,-155.53 426.04,-153.83 427.26,-160.72"/>
</a>
</g>
</g>
<!-- Node16 -->
<g id="Node000016" class="node">
<title>Node16</title>
<g id="a_Node000016"><a xlink:href="code__80057C60_8c.html#ab946bf1fb83419a3626f9d265b04a7bf" target="_top" xlink:title=" ">
<polygon fill="white" stroke="#666666" points="537.5,-74.86 427.5,-74.86 427.5,-55.86 537.5,-55.86 537.5,-74.86"/>
<text text-anchor="middle" x="482.5" y="-62.86" font-family="Helvetica,sans-Serif" font-size="10.00">render_music_note</text>
</a>
</g>
</g>
<!-- Node3&#45;&gt;Node16 -->
<g id="edge19_Node000003_Node000016" class="edge">
<title>Node3&#45;&gt;Node16</title>
<g id="a_edge19_Node000003_Node000016"><a xlink:title=" ">
<path fill="none" stroke="#63b8ff" d="M305.92,-221.57C313.06,-194.81 336.74,-120.12 386,-84.36 395.21,-77.68 406.17,-73.2 417.33,-70.22"/>
<polygon fill="#63b8ff" stroke="#63b8ff" points="418.19,-73.62 427.15,-67.97 416.62,-66.79 418.19,-73.62"/>
</a>
</g>
</g>
<!-- Node17 -->
<g id="Node000017" class="node">
<title>Node17</title>
<g id="a_Node000017"><a xlink:href="code__80057C60_8c.html#a5d712ed14b160507d1109d88568aac20" target="_top" xlink:title=" ">
<polygon fill="white" stroke="#666666" points="562.5,-441.36 402.5,-441.36 402.5,-411.36 562.5,-411.36 562.5,-441.36"/>
<text text-anchor="start" x="410.5" y="-429.36" font-family="Helvetica,sans-Serif" font-size="10.00">render_player_onomatopoeia</text>
<text text-anchor="middle" x="482.5" y="-418.36" font-family="Helvetica,sans-Serif" font-size="10.00">_boing</text>
</a>
</g>
</g>
<!-- Node3&#45;&gt;Node17 -->
<g id="edge24_Node000003_Node000017" class="edge">
<title>Node3&#45;&gt;Node17</title>
<g id="a_edge24_Node000003_Node000017"><a xlink:title=" ">
<path fill="none" stroke="#63b8ff" d="M306.76,-241.14C315.68,-266.59 342.75,-335.82 386,-377.36 398.58,-389.44 414.72,-399.24 430.14,-406.8"/>
<polygon fill="#63b8ff" stroke="#63b8ff" points="429.07,-410.17 439.61,-411.23 432.03,-403.83 429.07,-410.17"/>
</a>
</g>
</g>
<!-- Node18 -->
<g id="Node000018" class="node">
<title>Node18</title>
<g id="a_Node000018"><a xlink:href="code__80057C60_8c.html#a8b07c523061c3f64a752ce8b05675eb6" target="_top" xlink:title=" ">
<polygon fill="white" stroke="#666666" points="562.5,-294.36 402.5,-294.36 402.5,-264.36 562.5,-264.36 562.5,-294.36"/>
<text text-anchor="start" x="410.5" y="-282.36" font-family="Helvetica,sans-Serif" font-size="10.00">render_player_onomatopoeia</text>
<text text-anchor="middle" x="482.5" y="-271.36" font-family="Helvetica,sans-Serif" font-size="10.00">_crash</text>
</a>
</g>
</g>
<!-- Node3&#45;&gt;Node18 -->
<g id="edge29_Node000003_Node000018" class="edge">
<title>Node3&#45;&gt;Node18</title>
<g id="a_edge29_Node000003_Node000018"><a xlink:title=" ">
<path fill="none" stroke="#63b8ff" d="M335.16,-240.87C350.48,-245.39 369.16,-250.8 386,-255.36 393.95,-257.52 402.28,-259.71 410.58,-261.85"/>
<polygon fill="#63b8ff" stroke="#63b8ff" points="409.72,-265.24 420.28,-264.33 411.46,-258.46 409.72,-265.24"/>
</a>
</g>
</g>
<!-- Node19 -->
<g id="Node000019" class="node">
<title>Node19</title>
<g id="a_Node000019"><a xlink:href="code__80057C60_8c.html#a567db0bc5862f7bf39a43ef8476c9068" target="_top" xlink:title=" ">
<polygon fill="white" stroke="#666666" points="579,-197.86 386,-197.86 386,-178.86 579,-178.86 579,-197.86"/>
<text text-anchor="middle" x="482.5" y="-185.86" font-family="Helvetica,sans-Serif" font-size="10.00">render_player_onomatopoeia_pomp</text>
</a>
</g>
</g>
<!-- Node3&#45;&gt;Node19 -->
<g id="edge33_Node000003_Node000019" class="edge">
<title>Node3&#45;&gt;Node19</title>
<g id="a_edge33_Node000003_Node000019"><a xlink:title=" ">
<path fill="none" stroke="#63b8ff" d="M333.89,-221.84C349.4,-217.15 368.61,-211.61 386,-207.36 396.69,-204.75 408.11,-202.24 419.21,-199.94"/>
<polygon fill="#63b8ff" stroke="#63b8ff" points="420.17,-203.32 429.28,-197.9 418.78,-196.46 420.17,-203.32"/>
</a>
</g>
</g>
<!-- Node20 -->
<g id="Node000020" class="node">
<title>Node20</title>
<g id="a_Node000020"><a xlink:href="code__80057C60_8c.html#ad0a0073934eb0a9b970b66f30242361f" target="_top" xlink:title=" ">
<polygon fill="white" stroke="#666666" points="562.5,-246.36 402.5,-246.36 402.5,-216.36 562.5,-216.36 562.5,-246.36"/>
<text text-anchor="start" x="410.5" y="-234.36" font-family="Helvetica,sans-Serif" font-size="10.00">render_player_onomatopoeia</text>
<text text-anchor="middle" x="482.5" y="-223.36" font-family="Helvetica,sans-Serif" font-size="10.00">_whrrrr</text>
</a>
</g>
</g>
<!-- Node3&#45;&gt;Node20 -->
<g id="edge37_Node000003_Node000020" class="edge">
<title>Node3&#45;&gt;Node20</title>
<g id="a_edge37_Node000003_Node000020"><a xlink:title=" ">
<path fill="none" stroke="#63b8ff" d="M350.27,-231.36C363.24,-231.36 377.77,-231.36 392.31,-231.36"/>
<polygon fill="#63b8ff" stroke="#63b8ff" points="392.35,-234.86 402.35,-231.36 392.35,-227.86 392.35,-234.86"/>
</a>
</g>
</g>
<!-- Node21 -->
<g id="Node000021" class="node">
<title>Node21</title>
<g id="a_Node000021"><a xlink:href="code__80057C60_8c.html#ae35bbe7ed1cd67ea27c1cdbe19dbcb05" target="_top" xlink:title=" ">
<polygon fill="white" stroke="#666666" points="544.5,-123.36 420.5,-123.36 420.5,-93.36 544.5,-93.36 544.5,-123.36"/>
<text text-anchor="start" x="428.5" y="-111.36" font-family="Helvetica,sans-Serif" font-size="10.00">render_player_speech</text>
<text text-anchor="middle" x="482.5" y="-100.36" font-family="Helvetica,sans-Serif" font-size="10.00">_bubble</text>
</a>
</g>
</g>
<!-- Node3&#45;&gt;Node21 -->
<g id="edge39_Node000003_Node000021" class="edge">
<title>Node3&#45;&gt;Node21</title>
<g id="a_edge39_Node000003_Node000021"><a xlink:title=" ">
<path fill="none" stroke="#63b8ff" d="M308.68,-221.75C319.94,-201.8 348.68,-155.82 386,-132.36 393.52,-127.64 401.92,-123.84 410.53,-120.79"/>
<polygon fill="#63b8ff" stroke="#63b8ff" points="411.86,-124.04 420.31,-117.66 409.72,-117.37 411.86,-124.04"/>
</a>
</g>
</g>
<!-- Node5 -->
<g id="Node000005" class="node">
<title>Node5</title>
<g id="a_Node000005"><a xlink:href="render__objects_8c.html#a6b0955bb181f1c4da816f44baf21bc5d" target="_top" xlink:title=" ">
<polygon fill="white" stroke="#666666" points="707,-435.86 615,-435.86 615,-416.86 707,-416.86 707,-435.86"/>
<text text-anchor="middle" x="661" y="-423.86" font-family="Helvetica,sans-Serif" font-size="10.00">func_8004B35C</text>
</a>
</g>
</g>
<!-- Node4&#45;&gt;Node5 -->
<g id="edge4_Node000004_Node000005" class="edge">
<title>Node4&#45;&gt;Node5</title>
<g id="a_edge4_Node000004_Node000005"><a xlink:title=" ">
<path fill="none" stroke="#63b8ff" d="M508.79,-368.96C539.33,-380.55 590.85,-400.11 625.14,-413.13"/>
<polygon fill="#63b8ff" stroke="#63b8ff" points="624.17,-416.5 634.76,-416.78 626.65,-409.96 624.17,-416.5"/>
</a>
</g>
</g>
<!-- Node6 -->
<g id="Node000006" class="node">
<title>Node6</title>
<g id="a_Node000006"><a xlink:href="code__80057C60_8c.html#ac32c3f4acf06308534948902cfc12a09" target="_top" xlink:title=" ">
<polygon fill="white" stroke="#666666" points="707,-240.86 615,-240.86 615,-221.86 707,-221.86 707,-240.86"/>
<text text-anchor="middle" x="661" y="-228.86" font-family="Helvetica,sans-Serif" font-size="10.00">func_800652D4</text>
</a>
</g>
</g>
<!-- Node4&#45;&gt;Node6 -->
<g id="edge5_Node000004_Node000006" class="edge">
<title>Node4&#45;&gt;Node6</title>
<g id="a_edge5_Node000004_Node000006"><a xlink:title=" ">
<path fill="none" stroke="#63b8ff" d="M528.32,-357.23C545.24,-354.75 564,-349.85 579,-340.36 614.02,-318.21 639.14,-275.08 651.44,-250.24"/>
<polygon fill="#63b8ff" stroke="#63b8ff" points="654.65,-251.64 655.79,-241.11 648.33,-248.63 654.65,-251.64"/>
</a>
</g>
</g>
<!-- Node7 -->
<g id="Node000007" class="node">
<title>Node7</title>
<g id="a_Node000007"><a xlink:href="render__player_8c.html#ab7bf9484e155990f138e03ae5339fc84" target="_top" xlink:title=" ">
<polygon fill="white" stroke="#666666" points="870,-365.36 743,-365.36 743,-335.36 870,-335.36 870,-365.36"/>
<text text-anchor="start" x="751" y="-353.36" font-family="Helvetica,sans-Serif" font-size="10.00">convert_to_fixed_point</text>
<text text-anchor="middle" x="806.5" y="-342.36" font-family="Helvetica,sans-Serif" font-size="10.00">_matrix</text>
</a>
</g>
</g>
<!-- Node6&#45;&gt;Node7 -->
<g id="edge6_Node000006_Node000007" class="edge">
<title>Node6&#45;&gt;Node7</title>
<g id="a_edge6_Node000006_Node000007"><a xlink:title=" ">
<path fill="none" stroke="#63b8ff" d="M673.74,-241.1C696.72,-260.16 748.13,-302.78 779.5,-328.8"/>
<polygon fill="#63b8ff" stroke="#63b8ff" points="777.47,-331.66 787.4,-335.35 781.94,-326.27 777.47,-331.66"/>
</a>
</g>
</g>
<!-- Node9 -->
<g id="Node000009" class="node">
<title>Node9</title>
<g id="a_Node000009"><a xlink:href="render__player_8c.html#af0b657a736763c8b33412ed9d3111a61" target="_top" xlink:title=" ">
<polygon fill="white" stroke="#666666" points="845,-240.86 768,-240.86 768,-221.86 845,-221.86 845,-240.86"/>
<text text-anchor="middle" x="806.5" y="-228.86" font-family="Helvetica,sans-Serif" font-size="10.00">mtxf_scale2</text>
</a>
</g>
</g>
<!-- Node6&#45;&gt;Node9 -->
<g id="edge8_Node000006_Node000009" class="edge">
<title>Node6&#45;&gt;Node9</title>
<g id="a_edge8_Node000006_Node000009"><a xlink:title=" ">
<path fill="none" stroke="#63b8ff" d="M707.01,-231.36C723.06,-231.36 741.19,-231.36 757.48,-231.36"/>
<polygon fill="#63b8ff" stroke="#63b8ff" points="757.88,-234.86 767.88,-231.36 757.88,-227.86 757.88,-234.86"/>
</a>
</g>
</g>
<!-- Node10 -->
<g id="Node000010" class="node">
<title>Node10</title>
<g id="a_Node000010"><a xlink:href="render__player_8c.html#a565e21fd6aa0dacea58fb8a0e4304772" target="_top" xlink:title=" ">
<polygon fill="white" stroke="#666666" points="868,-164.86 745,-164.86 745,-145.86 868,-145.86 868,-164.86"/>
<text text-anchor="middle" x="806.5" y="-152.86" font-family="Helvetica,sans-Serif" font-size="10.00">mtxf_translate_rotate</text>
</a>
</g>
</g>
<!-- Node6&#45;&gt;Node10 -->
<g id="edge9_Node000006_Node000010" class="edge">
<title>Node6&#45;&gt;Node10</title>
<g id="a_edge9_Node000006_Node000010"><a xlink:title=" ">
<path fill="none" stroke="#63b8ff" d="M680.17,-221.74C704.97,-208.6 749.61,-184.96 778.38,-169.73"/>
<polygon fill="#63b8ff" stroke="#63b8ff" points="780.27,-172.68 787.47,-164.91 777,-166.5 780.27,-172.68"/>
</a>
</g>
</g>
<!-- Node8 -->
<g id="Node000008" class="node">
<title>Node8</title>
<g id="a_Node000008"><a xlink:href="guMtxF2L_8c.html#a40ab2d64c609839ff1e0ef0de2d0dcc4" target="_top" xlink:title=" ">
<polygon fill="white" stroke="#666666" points="971,-359.86 906,-359.86 906,-340.86 971,-340.86 971,-359.86"/>
<text text-anchor="middle" x="938.5" y="-347.86" font-family="Helvetica,sans-Serif" font-size="10.00">guMtxF2L</text>
</a>
</g>
</g>
<!-- Node7&#45;&gt;Node8 -->
<g id="edge7_Node000007_Node000008" class="edge">
<title>Node7&#45;&gt;Node8</title>
<g id="a_edge7_Node000007_Node000008"><a xlink:title=" ">
<path fill="none" stroke="#63b8ff" d="M870.22,-350.36C878.79,-350.36 887.42,-350.36 895.51,-350.36"/>
<polygon fill="#63b8ff" stroke="#63b8ff" points="895.77,-353.86 905.77,-350.36 895.77,-346.86 895.77,-353.86"/>
</a>
</g>
</g>
<!-- Node11 -->
<g id="Node000011" class="node">
<title>Node11</title>
<g id="a_Node000011"><a xlink:href="math__util_8c.html#a5eb0d9752bc1557b7f4ae3809352a0eb" target="_top" xlink:title=" ">
<polygon fill="white" stroke="#666666" points="957.5,-202.86 919.5,-202.86 919.5,-183.86 957.5,-183.86 957.5,-202.86"/>
<text text-anchor="middle" x="938.5" y="-190.86" font-family="Helvetica,sans-Serif" font-size="10.00">coss</text>
</a>
</g>
</g>
<!-- Node10&#45;&gt;Node11 -->
<g id="edge10_Node000010_Node000011" class="edge">
<title>Node10&#45;&gt;Node11</title>
<g id="a_edge10_Node000010_Node000011"><a xlink:title=" ">
<path fill="none" stroke="#63b8ff" d="M840.3,-164.95C861.67,-171.2 889.24,-179.25 909.56,-185.19"/>
<polygon fill="#63b8ff" stroke="#63b8ff" points="908.59,-188.56 919.17,-188 910.55,-181.84 908.59,-188.56"/>
</a>
</g>
</g>
<!-- Node12 -->
<g id="Node000012" class="node">
<title>Node12</title>
<g id="a_Node000012"><a xlink:href="math__util_8c.html#adcf81d47666b5d86c4a1dbcb06e47faf" target="_top" xlink:title=" ">
<polygon fill="white" stroke="#666666" points="956.5,-164.86 920.5,-164.86 920.5,-145.86 956.5,-145.86 956.5,-164.86"/>
<text text-anchor="middle" x="938.5" y="-152.86" font-family="Helvetica,sans-Serif" font-size="10.00">sins</text>
</a>
</g>
</g>
<!-- Node10&#45;&gt;Node12 -->
<g id="edge11_Node000010_Node000012" class="edge">
<title>Node10&#45;&gt;Node12</title>
<g id="a_edge11_Node000010_Node000012"><a xlink:title=" ">
<path fill="none" stroke="#63b8ff" d="M868.31,-155.36C882.88,-155.36 897.74,-155.36 909.93,-155.36"/>
<polygon fill="#63b8ff" stroke="#63b8ff" points="910.29,-158.86 920.29,-155.36 910.29,-151.86 910.29,-158.86"/>
</a>
</g>
</g>
<!-- Node13&#45;&gt;Node6 -->
<g id="edge14_Node000013_Node000006" class="edge">
<title>Node13&#45;&gt;Node6</title>
<g id="a_edge14_Node000013_Node000006"><a xlink:title=" ">
<path fill="none" stroke="#63b8ff" d="M528.36,-318.42C544.91,-315.71 563.41,-311.12 579,-303.36 605.68,-290.09 630.36,-265.68 645.29,-248.99"/>
<polygon fill="#63b8ff" stroke="#63b8ff" points="648.26,-250.92 652.17,-241.07 642.97,-246.33 648.26,-250.92"/>
</a>
</g>
</g>
<!-- Node13&#45;&gt;Node11 -->
<g id="edge13_Node000013_Node000011" class="edge">
<title>Node13&#45;&gt;Node11</title>
<g id="a_edge13_Node000013_Node000011"><a xlink:title=" ">
<path fill="none" stroke="#63b8ff" d="M528.44,-327.99C544.65,-330.76 562.91,-334.74 579,-340.36 596.08,-346.33 598.37,-352.24 615,-359.36 670.16,-383 683.77,-392.68 743,-402.36 798.7,-411.47 824.36,-435.58 870,-402.36 885.87,-390.81 919.88,-262.61 932.58,-212.9"/>
<polygon fill="#63b8ff" stroke="#63b8ff" points="936.02,-213.6 935.08,-203.05 929.23,-211.88 936.02,-213.6"/>
</a>
</g>
</g>
<!-- Node13&#45;&gt;Node12 -->
<g id="edge15_Node000013_Node000012" class="edge">
<title>Node13&#45;&gt;Node12</title>
<g id="a_edge15_Node000013_Node000012"><a xlink:title=" ">
<path fill="none" stroke="#63b8ff" d="M528.04,-323.06C618.21,-323.57 818.22,-319.85 870,-278.36 908.17,-247.78 875.22,-212.38 906,-174.36 907.69,-172.28 909.67,-170.36 911.8,-168.62"/>
<polygon fill="#63b8ff" stroke="#63b8ff" points="914.16,-171.26 920.49,-162.77 910.24,-165.46 914.16,-171.26"/>
</a>
</g>
</g>
<!-- Node14&#45;&gt;Node6 -->
<g id="edge18_Node000014_Node000006" class="edge">
<title>Node14&#45;&gt;Node6</title>
<g id="a_edge18_Node000014_Node000006"><a xlink:title=" ">
<path fill="none" stroke="#63b8ff" d="M528.54,-155.45C544.93,-158.07 563.29,-162.35 579,-169.36 603.56,-180.32 627.49,-200.1 642.89,-214.37"/>
<polygon fill="#63b8ff" stroke="#63b8ff" points="640.87,-217.28 650.52,-221.65 645.7,-212.21 640.87,-217.28"/>
</a>
</g>
</g>
<!-- Node15 -->
<g id="Node000015" class="node">
<title>Node15</title>
<g id="a_Node000015"><a xlink:href="render__objects_8c.html#a9ea20c14c263ed864d8e02d082b6b18b" target="_top" xlink:title=" ">
<polygon fill="white" stroke="#666666" points="707,-126.86 615,-126.86 615,-107.86 707,-107.86 707,-126.86"/>
<text text-anchor="middle" x="661" y="-114.86" font-family="Helvetica,sans-Serif" font-size="10.00">func_8004B414</text>
</a>
</g>
</g>
<!-- Node14&#45;&gt;Node15 -->
<g id="edge17_Node000014_Node000015" class="edge">
<title>Node14&#45;&gt;Node15</title>
<g id="a_edge17_Node000014_Node000015"><a xlink:title=" ">
<path fill="none" stroke="#63b8ff" d="M528.95,-142.61C552.11,-138.14 580.46,-132.68 604.86,-127.98"/>
<polygon fill="#63b8ff" stroke="#63b8ff" points="605.54,-131.42 614.7,-126.09 604.22,-124.54 605.54,-131.42"/>
</a>
</g>
</g>
<!-- Node16&#45;&gt;Node6 -->
<g id="edge22_Node000016_Node000006" class="edge">
<title>Node16&#45;&gt;Node6</title>
<g id="a_edge22_Node000016_Node000006"><a xlink:title=" ">
<path fill="none" stroke="#63b8ff" d="M537.89,-67.91C552.3,-70.7 567.13,-75.68 579,-84.36 590.5,-92.78 631.72,-174.16 650.52,-212.08"/>
<polygon fill="#63b8ff" stroke="#63b8ff" points="647.62,-214.12 655.19,-221.53 653.9,-211.02 647.62,-214.12"/>
</a>
</g>
</g>
<!-- Node16&#45;&gt;Node11 -->
<g id="edge20_Node000016_Node000011" class="edge">
<title>Node16&#45;&gt;Node11</title>
<g id="a_edge20_Node000016_Node000011"><a xlink:title=" ">
<path fill="none" stroke="#63b8ff" d="M524.04,-55.86C599.66,-40.61 764.13,-19.35 870,-93.36 901.95,-115.7 880.47,-143.89 906,-173.36 907.52,-175.11 909.22,-176.76 911.04,-178.31"/>
<polygon fill="#63b8ff" stroke="#63b8ff" points="909.28,-181.36 919.43,-184.39 913.39,-175.69 909.28,-181.36"/>
</a>
</g>
</g>
<!-- Node16&#45;&gt;Node12 -->
<g id="edge23_Node000016_Node000012" class="edge">
<title>Node16&#45;&gt;Node12</title>
<g id="a_edge23_Node000016_Node000012"><a xlink:title=" ">
<path fill="none" stroke="#63b8ff" d="M504.23,-55.76C565.31,-29.01 748.01,39.85 870,-32.36 907.94,-54.82 925.97,-106.99 933.28,-135.65"/>
<polygon fill="#63b8ff" stroke="#63b8ff" points="929.95,-136.76 935.65,-145.69 936.76,-135.15 929.95,-136.76"/>
</a>
</g>
</g>
<!-- Node16&#45;&gt;Node15 -->
<g id="edge21_Node000016_Node000015" class="edge">
<title>Node16&#45;&gt;Node15</title>
<g id="a_edge21_Node000016_Node000015"><a xlink:title=" ">
<path fill="none" stroke="#63b8ff" d="M537.73,-74.29C551.33,-77.04 565.8,-80.4 579,-84.36 596.42,-89.59 615.27,-97.15 630.4,-103.71"/>
<polygon fill="#63b8ff" stroke="#63b8ff" points="629.19,-107.01 639.75,-107.85 632.02,-100.6 629.19,-107.01"/>
</a>
</g>
</g>
<!-- Node17&#45;&gt;Node5 -->
<g id="edge26_Node000017_Node000005" class="edge">
<title>Node17&#45;&gt;Node5</title>
<g id="a_edge26_Node000017_Node000005"><a xlink:title=" ">
<path fill="none" stroke="#63b8ff" d="M562.72,-426.36C576.74,-426.36 591.08,-426.36 604.29,-426.36"/>
<polygon fill="#63b8ff" stroke="#63b8ff" points="604.61,-429.86 614.61,-426.36 604.61,-422.86 604.61,-429.86"/>
</a>
</g>
</g>
<!-- Node17&#45;&gt;Node6 -->
<g id="edge27_Node000017_Node000006" class="edge">
<title>Node17&#45;&gt;Node6</title>
<g id="a_edge27_Node000017_Node000006"><a xlink:title=" ">
<path fill="none" stroke="#63b8ff" d="M525.44,-411.28C543.49,-403.27 563.87,-392.01 579,-377.36 617.21,-340.37 642.26,-281.41 653.38,-250.97"/>
<polygon fill="#63b8ff" stroke="#63b8ff" points="656.82,-251.74 656.85,-241.14 650.22,-249.41 656.82,-251.74"/>
</a>
</g>
</g>
<!-- Node17&#45;&gt;Node11 -->
<g id="edge25_Node000017_Node000011" class="edge">
<title>Node17&#45;&gt;Node11</title>
<g id="a_edge25_Node000017_Node000011"><a xlink:title=" ">
<path fill="none" stroke="#63b8ff" d="M512.31,-441.43C538.34,-454.13 578.1,-471.33 615,-478.36 728.71,-500.03 789.44,-508.48 870,-425.36 885.2,-409.68 920.32,-266.07 932.91,-212.97"/>
<polygon fill="#63b8ff" stroke="#63b8ff" points="936.35,-213.63 935.24,-203.1 929.53,-212.03 936.35,-213.63"/>
</a>
</g>
</g>
<!-- Node17&#45;&gt;Node12 -->
<g id="edge28_Node000017_Node000012" class="edge">
<title>Node17&#45;&gt;Node12</title>
<g id="a_edge28_Node000017_Node000012"><a xlink:title=" ">
<path fill="none" stroke="#63b8ff" d="M549.9,-441.36C639.21,-457.12 795.43,-468.17 870,-374.36 926.2,-303.66 854.77,-248.75 906,-174.36 907.66,-171.95 909.75,-169.78 912.04,-167.86"/>
<polygon fill="#63b8ff" stroke="#63b8ff" points="914.03,-170.74 920.37,-162.25 910.12,-164.94 914.03,-170.74"/>
</a>
</g>
</g>
<!-- Node18&#45;&gt;Node6 -->
<g id="edge31_Node000018_Node000006" class="edge">
<title>Node18&#45;&gt;Node6</title>
<g id="a_edge31_Node000018_Node000006"><a xlink:title=" ">
<path fill="none" stroke="#63b8ff" d="M544.99,-264.31C556.32,-261.42 568.03,-258.36 579,-255.36 592.06,-251.79 606.23,-247.67 619.02,-243.87"/>
<polygon fill="#63b8ff" stroke="#63b8ff" points="620.36,-247.12 628.93,-240.9 618.35,-240.41 620.36,-247.12"/>
</a>
</g>
</g>
<!-- Node18&#45;&gt;Node11 -->
<g id="edge30_Node000018_Node000011" class="edge">
<title>Node18&#45;&gt;Node11</title>
<g id="a_edge30_Node000018_Node000011"><a xlink:title=" ">
<path fill="none" stroke="#63b8ff" d="M549.15,-294.36C559.23,-297.09 569.45,-300.12 579,-303.36 705.06,-346.17 760.65,-450.29 870,-374.36 897.5,-355.27 923.15,-255.9 933.12,-213.05"/>
<polygon fill="#63b8ff" stroke="#63b8ff" points="936.55,-213.77 935.36,-203.24 929.72,-212.21 936.55,-213.77"/>
</a>
</g>
</g>
<!-- Node18&#45;&gt;Node12 -->
<g id="edge32_Node000018_Node000012" class="edge">
<title>Node18&#45;&gt;Node12</title>
<g id="a_edge32_Node000018_Node000012"><a xlink:title=" ">
<path fill="none" stroke="#63b8ff" d="M562.61,-282.29C660.96,-284.41 821.76,-282.39 870,-249.36 900.51,-228.47 881.13,-201.72 906,-174.36 907.77,-172.42 909.78,-170.61 911.91,-168.94"/>
<polygon fill="#63b8ff" stroke="#63b8ff" points="914.1,-171.69 920.47,-163.22 910.21,-165.87 914.1,-171.69"/>
</a>
</g>
</g>
<!-- Node19&#45;&gt;Node6 -->
<g id="edge35_Node000019_Node000006" class="edge">
<title>Node19&#45;&gt;Node6</title>
<g id="a_edge35_Node000019_Node000006"><a xlink:title=" ">
<path fill="none" stroke="#63b8ff" d="M536.23,-197.95C550.19,-200.74 565.21,-203.96 579,-207.36 592.62,-210.73 607.36,-214.93 620.49,-218.87"/>
<polygon fill="#63b8ff" stroke="#63b8ff" points="619.59,-222.25 630.17,-221.81 621.63,-215.55 619.59,-222.25"/>
</a>
</g>
</g>
<!-- Node19&#45;&gt;Node11 -->
<g id="edge34_Node000019_Node000011" class="edge">
<title>Node19&#45;&gt;Node11</title>
<g id="a_edge34_Node000019_Node000011"><a xlink:title=" ">
<path fill="none" stroke="#63b8ff" d="M579.23,-189.42C683.5,-190.56 844.08,-192.33 908.9,-193.05"/>
<polygon fill="#63b8ff" stroke="#63b8ff" points="909.12,-196.55 919.16,-193.16 909.2,-189.55 909.12,-196.55"/>
</a>
</g>
</g>
<!-- Node19&#45;&gt;Node12 -->
<g id="edge36_Node000019_Node000012" class="edge">
<title>Node19&#45;&gt;Node12</title>
<g id="a_edge36_Node000019_Node000012"><a xlink:title=" ">
<path fill="none" stroke="#63b8ff" d="M531.6,-178.81C546.77,-175.8 563.58,-172.45 579,-169.36 706.63,-143.82 741.06,-118.56 870,-136.36 883.66,-138.25 898.45,-142.18 910.69,-145.99"/>
<polygon fill="#63b8ff" stroke="#63b8ff" points="909.7,-149.35 920.3,-149.1 911.86,-142.69 909.7,-149.35"/>
</a>
</g>
</g>
<!-- Node20&#45;&gt;Node6 -->
<g id="edge38_Node000020_Node000006" class="edge">
<title>Node20&#45;&gt;Node6</title>
<g id="a_edge38_Node000020_Node000006"><a xlink:title=" ">
<path fill="none" stroke="#63b8ff" d="M562.72,-231.36C576.74,-231.36 591.08,-231.36 604.29,-231.36"/>
<polygon fill="#63b8ff" stroke="#63b8ff" points="604.61,-234.86 614.61,-231.36 604.61,-227.86 604.61,-234.86"/>
</a>
</g>
</g>
<!-- Node21&#45;&gt;Node6 -->
<g id="edge42_Node000021_Node000006" class="edge">
<title>Node21&#45;&gt;Node6</title>
<g id="a_edge42_Node000021_Node000006"><a xlink:title=" ">
<path fill="none" stroke="#63b8ff" d="M544.73,-117.58C556.68,-121.05 568.68,-125.81 579,-132.36 611.17,-152.79 636.61,-190.31 649.88,-212.84"/>
<polygon fill="#63b8ff" stroke="#63b8ff" points="646.97,-214.79 654.96,-221.75 653.05,-211.32 646.97,-214.79"/>
</a>
</g>
</g>
<!-- Node21&#45;&gt;Node11 -->
<g id="edge40_Node000021_Node000011" class="edge">
<title>Node21&#45;&gt;Node11</title>
<g id="a_edge40_Node000021_Node000011"><a xlink:title=" ">
<path fill="none" stroke="#63b8ff" d="M544.65,-97.56C624.92,-86.62 767.63,-78.55 870,-136.36 889.98,-147.64 888.19,-158.89 906,-173.36 907.98,-174.97 910.1,-176.56 912.26,-178.09"/>
<polygon fill="#63b8ff" stroke="#63b8ff" points="910.39,-181.05 920.65,-183.68 914.27,-175.22 910.39,-181.05"/>
</a>
</g>
</g>
<!-- Node21&#45;&gt;Node12 -->
<g id="edge43_Node000021_Node000012" class="edge">
<title>Node21&#45;&gt;Node12</title>
<g id="a_edge43_Node000021_Node000012"><a xlink:title=" ">
<path fill="none" stroke="#63b8ff" d="M544.72,-94.36C556.24,-91.15 568.09,-87.47 579,-83.36 595.74,-77.06 597.59,-69.47 615,-65.36 725.3,-39.32 768.63,-14.68 870,-65.36 899.56,-80.14 919.53,-114.7 929.68,-136.44"/>
<polygon fill="#63b8ff" stroke="#63b8ff" points="926.51,-137.94 933.76,-145.67 932.92,-135.11 926.51,-137.94"/>
</a>
</g>
</g>
<!-- Node21&#45;&gt;Node15 -->
<g id="edge41_Node000021_Node000015" class="edge">
<title>Node21&#45;&gt;Node15</title>
<g id="a_edge41_Node000021_Node000015"><a xlink:title=" ">
<path fill="none" stroke="#63b8ff" d="M544.74,-111.48C564.23,-112.48 585.67,-113.57 604.72,-114.54"/>
<polygon fill="#63b8ff" stroke="#63b8ff" points="604.57,-118.04 614.74,-115.05 604.93,-111.05 604.57,-118.04"/>
</a>
</g>
</g>
</g>
</svg>

<g id="navigator" transform="translate(0 0)" fill="#404254">
  <rect fill="#f2f5e9" fill-opacity="0.5" stroke="#606060" stroke-width=".5" x="0" y="0" width="60" height="60"/>
  <use id="zoomplus" xlink:href="#zoomPlus" x="17" y="9" onmousedown="handleZoom(evt,'in')"/>
  <use id="zoomminus" xlink:href="#zoomMin" x="42" y="9" onmousedown="handleZoom(evt,'out')"/>
  <use id="reset" xlink:href="#resetDef" x="30" y="36" onmousedown="handleReset()"/>
   <use id="arrowup" xlink:href="#arrowUp" x="0" y="0" onmousedown="handlePan(0,-1)"/>
  <use id="arrowright" xlink:href="#arrowRight" x="0" y="0" onmousedown="handlePan(1,0)"/>
  <use id="arrowdown" xlink:href="#arrowDown" x="0" y="0" onmousedown="handlePan(0,1)"/>
  <use id="arrowleft" xlink:href="#arrowLeft" x="0" y="0" onmousedown="handlePan(-1,0)"/>
</g>
<svg viewBox="0 0 15 15" width="100%" height="30px" preserveAspectRatio="xMaxYMin meet">
 <g id="arrow_out" transform="scale(0.3 0.3)">
  <a xlink:href="render__player_8c_a078a3fa98164ddde21e074d7e0228b29_cgraph_org.svg" target="_base">
   <rect id="button" ry="5" rx="5" y="6" x="6" height="38" width="38"
        fill="#f2f5e9" fill-opacity="0.5" stroke="#606060" stroke-width="1.0"/>
   <path id="arrow"
     d="M 11.500037,31.436501 C 11.940474,20.09759 22.043105,11.32322 32.158766,21.979434 L 37.068811,17.246167 C 37.068811,17.246167 37.088388,32 37.088388,32 L 22.160133,31.978069 C 22.160133,31.978069 26.997745,27.140456 26.997745,27.140456 C 18.528582,18.264221 13.291696,25.230495 11.500037,31.436501 z"
     style="fill:#404040;"/>
  </a>
 </g>
</svg>

<style type='text/css'>
<![CDATA[
[data-mouse-over-selected='false'] { opacity: 0.7; }
[data-mouse-over-selected='true']  { opacity: 1.0; }
]]>
</style>
<script type="application/ecmascript"><![CDATA[
document.addEventListener('DOMContentLoaded', (event) => {
  highlightEdges();
  highlightAdjacentNodes();
});
]]></script>
</svg>
