<?xml version="1.0" encoding="UTF-8" standalone="no"?>
<!DOCTYPE svg PUBLIC "-//W3C//DTD SVG 1.1//EN"
 "http://www.w3.org/Graphics/SVG/1.1/DTD/svg11.dtd">
<!-- Generated by graphviz version 2.43.0 (0)
 -->
<!-- Title: render_object_moles Pages: 1 -->
<!--zoomable 435 -->

<svg id="main" version="1.1" xmlns="http://www.w3.org/2000/svg" xmlns:xlink="http://www.w3.org/1999/xlink" xml:space="preserve" onload="init(evt)">
<style type="text/css"><![CDATA[
.node, .edge {opacity: 0.7;}
.node.selected, .edge.selected {opacity: 1;}
.edge:hover path { stroke: red; }
.edge:hover polygon { stroke: red; fill: red; }
]]></style>

<defs>
  <circle id="rim" cx="0" cy="0" r="7"/>
  <circle id="rim2" cx="0" cy="0" r="3.5"/>
  <g id="zoomPlus">
    <use xlink:href="#rim" fill="#404040"><set attributeName="fill" to="#808080" begin="zoomplus.mouseover" end="zoomplus.mouseout"/></use>
    <path d="M-4,0h8M0,-4v8" fill="none" stroke="white" stroke-width="1.5" pointer-events="none"/>
  </g>
  <g id="zoomMin">
    <use xlink:href="#rim" fill="#404040"><set attributeName="fill" to="#808080" begin="zoomminus.mouseover" end="zoomminus.mouseout"/></use>
    <path d="M-4,0h8" fill="none" stroke="white" stroke-width="1.5" pointer-events="none"/>
  </g>
  <g id="arrowUp" transform="translate(30 24)">
    <use xlink:href="#rim"/>
    <path pointer-events="none" fill="none" stroke="white" stroke-width="1.5" d="M0,-3.0v7 M-2.5,-0.5L0,-3.0L2.5,-0.5"/>
  </g>
  <g id="arrowRight" transform="rotate(90) translate(36 -43)">
    <use xlink:href="#rim"/>
    <path pointer-events="none" fill="none" stroke="white" stroke-width="1.5" d="M0,-3.0v7 M-2.5,-0.5L0,-3.0L2.5,-0.5"/>
  </g>
  <g id="arrowDown" transform="rotate(180) translate(-30 -48)">
    <use xlink:href="#rim"/>
    <path pointer-events="none" fill="none" stroke="white" stroke-width="1.5" d="M0,-3.0v7 M-2.5,-0.5L0,-3.0L2.5,-0.5"/>
  </g>
  <g id="arrowLeft" transform="rotate(270) translate(-36 17)">
    <use xlink:href="#rim"/>
    <path pointer-events="none" fill="none" stroke="white" stroke-width="1.5" d="M0,-3.0v7 M-2.5,-0.5L0,-3.0L2.5,-0.5"/>
  </g>
  <g id="resetDef">
    <use xlink:href="#rim2" fill="#404040"><set attributeName="fill" to="#808080" begin="reset.mouseover" end="reset.mouseout"/></use>
  </g>
</defs>
<script type="application/ecmascript">
var viewWidth = 1214;
var viewHeight = 435;
var sectionId = 'dynsection-469';
</script>
<script type="application/ecmascript" xlink:href="svg.min.js"/>
<svg id="graph" class="graph">
<g id="viewport">
<title>render_object_moles</title>
<!-- Node1 -->
<g id="Node000001" class="node">
<title>Node1</title>
<g id="a_Node000001"><a xlink:title=" ">
<polygon fill="#999999" stroke="#666666" points="119,-218 0,-218 0,-199 119,-199 119,-218"/>
<text text-anchor="middle" x="59.5" y="-206" font-family="Helvetica,sans-Serif" font-size="10.00">render_object_moles</text>
</a>
</g>
</g>
<!-- Node2 -->
<g id="Node000002" class="node">
<title>Node2</title>
<g id="a_Node000002"><a xlink:href="render__objects_8c.html#a3f2b5b3dff6221375f0f469a1f7ec6f1" target="_top" xlink:title=" ">
<polygon fill="white" stroke="#666666" points="375,-260 283,-260 283,-241 375,-241 375,-260"/>
<text text-anchor="middle" x="329" y="-248" font-family="Helvetica,sans-Serif" font-size="10.00">func_80054D00</text>
</a>
</g>
</g>
<!-- Node1&#45;&gt;Node2 -->
<g id="edge1_Node000001_Node000002" class="edge">
<title>Node1&#45;&gt;Node2</title>
<g id="a_edge1_Node000001_Node000002"><a xlink:title=" ">
<path fill="none" stroke="#63b8ff" d="M119.2,-217.72C164.86,-224.89 227.77,-234.76 272.57,-241.8"/>
<polygon fill="#63b8ff" stroke="#63b8ff" points="272.28,-245.29 282.7,-243.39 273.36,-238.38 272.28,-245.29"/>
</a>
</g>
</g>
<!-- Node22 -->
<g id="Node000022" class="node">
<title>Node22</title>
<g id="a_Node000022"><a xlink:href="render__objects_8c.html#a4100355b2df75d518130fd2342c8a658" target="_top" xlink:title=" ">
<polygon fill="white" stroke="#666666" points="247,-180 155,-180 155,-161 247,-161 247,-180"/>
<text text-anchor="middle" x="201" y="-168" font-family="Helvetica,sans-Serif" font-size="10.00">func_80054EB8</text>
</a>
</g>
</g>
<!-- Node1&#45;&gt;Node22 -->
<g id="edge22_Node000001_Node000022" class="edge">
<title>Node1&#45;&gt;Node22</title>
<g id="a_edge22_Node000001_Node000022"><a xlink:title=" ">
<path fill="none" stroke="#63b8ff" d="M95.7,-198.91C113.71,-194.01 135.83,-187.98 155.06,-182.74"/>
<polygon fill="#63b8ff" stroke="#63b8ff" points="156.08,-186.09 164.81,-180.09 154.24,-179.34 156.08,-186.09"/>
</a>
</g>
</g>
<!-- Node31 -->
<g id="Node000031" class="node">
<title>Node31</title>
<g id="a_Node000031"><a xlink:href="render__objects_8c.html#a4b2addd7eaa1b5932b74fe26803cf3cd" target="_top" xlink:title=" ">
<polygon fill="white" stroke="#666666" points="374.5,-218 283.5,-218 283.5,-199 374.5,-199 374.5,-218"/>
<text text-anchor="middle" x="329" y="-206" font-family="Helvetica,sans-Serif" font-size="10.00">func_80054F04</text>
</a>
</g>
</g>
<!-- Node1&#45;&gt;Node31 -->
<g id="edge35_Node000001_Node000031" class="edge">
<title>Node1&#45;&gt;Node31</title>
<g id="a_edge35_Node000001_Node000031"><a xlink:title=" ">
<path fill="none" stroke="#63b8ff" d="M119.2,-208.5C165,-208.5 228.16,-208.5 272.99,-208.5"/>
<polygon fill="#63b8ff" stroke="#63b8ff" points="273.12,-212 283.12,-208.5 273.12,-205 273.12,-212"/>
</a>
</g>
</g>
<!-- Node3 -->
<g id="Node000003" class="node">
<title>Node3</title>
<g id="a_Node000003"><a xlink:href="math__util__2_8c.html#a99d173c040cb4a9d0184df2605d71e32" target="_top" xlink:title=" ">
<polygon fill="white" stroke="#666666" points="512,-297 420,-297 420,-278 512,-278 512,-297"/>
<text text-anchor="middle" x="466" y="-285" font-family="Helvetica,sans-Serif" font-size="10.00">func_800418AC</text>
</a>
</g>
</g>
<!-- Node2&#45;&gt;Node3 -->
<g id="edge2_Node000002_Node000003" class="edge">
<title>Node2&#45;&gt;Node3</title>
<g id="a_edge2_Node000002_Node000003"><a xlink:title=" ">
<path fill="none" stroke="#63b8ff" d="M364.77,-260.03C381.64,-264.65 402.12,-270.27 420.15,-275.21"/>
<polygon fill="#63b8ff" stroke="#63b8ff" points="419.31,-278.61 429.88,-277.88 421.16,-271.86 419.31,-278.61"/>
</a>
</g>
</g>
<!-- Node6 -->
<g id="Node000006" class="node">
<title>Node6</title>
<g id="a_Node000006"><a xlink:href="render__objects_8c.html#a71d84a5f00c1688794f33fd5818fd01a" target="_top" xlink:title=" ">
<polygon fill="white" stroke="#666666" points="511.5,-334 420.5,-334 420.5,-315 511.5,-315 511.5,-334"/>
<text text-anchor="middle" x="466" y="-322" font-family="Helvetica,sans-Serif" font-size="10.00">func_80048130</text>
</a>
</g>
</g>
<!-- Node2&#45;&gt;Node6 -->
<g id="edge5_Node000002_Node000006" class="edge">
<title>Node2&#45;&gt;Node6</title>
<g id="a_edge5_Node000002_Node000006"><a xlink:title=" ">
<path fill="none" stroke="#63b8ff" d="M341.68,-260.17C356.85,-272.35 384.54,-293.28 411,-306.5 414.53,-308.26 418.27,-309.91 422.07,-311.45"/>
<polygon fill="#63b8ff" stroke="#63b8ff" points="420.97,-314.77 431.56,-315 423.42,-308.21 420.97,-314.77"/>
</a>
</g>
</g>
<!-- Node15 -->
<g id="Node000015" class="node">
<title>Node15</title>
<g id="a_Node000015"><a xlink:href="code__80086E70_8c.html#a364496b44c479b8d7937d98d2283c89e" target="_top" xlink:title=" ">
<polygon fill="white" stroke="#666666" points="512,-260 420,-260 420,-241 512,-241 512,-260"/>
<text text-anchor="middle" x="466" y="-248" font-family="Helvetica,sans-Serif" font-size="10.00">func_8008A364</text>
</a>
</g>
</g>
<!-- Node2&#45;&gt;Node15 -->
<g id="edge14_Node000002_Node000015" class="edge">
<title>Node2&#45;&gt;Node15</title>
<g id="a_edge14_Node000002_Node000015"><a xlink:title=" ">
<path fill="none" stroke="#63b8ff" d="M375.33,-250.5C386.24,-250.5 398.01,-250.5 409.33,-250.5"/>
<polygon fill="#63b8ff" stroke="#63b8ff" points="409.56,-254 419.56,-250.5 409.56,-247 409.56,-254"/>
</a>
</g>
</g>
<!-- Node21 -->
<g id="Node000021" class="node">
<title>Node21</title>
<g id="a_Node000021"><a xlink:href="update__objects_8c.html#ae85ab923e54f707801592c71f2a847cd" target="_top" xlink:title=" ">
<polygon fill="white" stroke="#666666" points="518,-222.5 414,-222.5 414,-192.5 518,-192.5 518,-222.5"/>
<text text-anchor="start" x="422" y="-210.5" font-family="Helvetica,sans-Serif" font-size="10.00">is_obj_flag_status</text>
<text text-anchor="middle" x="466" y="-199.5" font-family="Helvetica,sans-Serif" font-size="10.00">_active</text>
</a>
</g>
</g>
<!-- Node2&#45;&gt;Node21 -->
<g id="edge21_Node000002_Node000021" class="edge">
<title>Node2&#45;&gt;Node21</title>
<g id="a_edge21_Node000002_Node000021"><a xlink:title=" ">
<path fill="none" stroke="#63b8ff" d="M359.96,-240.96C374.18,-236.43 391.66,-230.86 408.25,-225.57"/>
<polygon fill="#63b8ff" stroke="#63b8ff" points="409.42,-228.88 417.89,-222.51 407.3,-222.21 409.42,-228.88"/>
</a>
</g>
</g>
<!-- Node4 -->
<g id="Node000004" class="node">
<title>Node4</title>
<g id="a_Node000004"><a xlink:href="math__util_8c.html#a39b33617a06622150fcb2b20569aa969" target="_top" xlink:title=" ">
<polygon fill="white" stroke="#666666" points="1055,-368 1005,-368 1005,-349 1055,-349 1055,-368"/>
<text text-anchor="middle" x="1030" y="-356" font-family="Helvetica,sans-Serif" font-size="10.00">atan2s</text>
</a>
</g>
</g>
<!-- Node3&#45;&gt;Node4 -->
<g id="edge3_Node000003_Node000004" class="edge">
<title>Node3&#45;&gt;Node4</title>
<g id="a_edge3_Node000003_Node000004"><a xlink:title=" ">
<path fill="none" stroke="#63b8ff" d="M504.37,-297.06C510.27,-299.56 516.06,-302.66 521,-306.5 543.78,-324.2 531.57,-346.89 557,-360.5 632.56,-400.94 899.73,-373.96 994.97,-362.74"/>
<polygon fill="#63b8ff" stroke="#63b8ff" points="995.42,-366.21 1004.93,-361.55 994.59,-359.26 995.42,-366.21"/>
</a>
</g>
</g>
<!-- Node5 -->
<g id="Node000005" class="node">
<title>Node5</title>
<g id="a_Node000005"><a xlink:href="math__util_8c.html#a0273b0ea0783a06996c28669a7438ed9" target="_top" xlink:title=" ">
<polygon fill="white" stroke="#666666" points="1206,-368 1124,-368 1124,-349 1206,-349 1206,-368"/>
<text text-anchor="middle" x="1165" y="-356" font-family="Helvetica,sans-Serif" font-size="10.00">atan2_lookup</text>
</a>
</g>
</g>
<!-- Node4&#45;&gt;Node5 -->
<g id="edge4_Node000004_Node000005" class="edge">
<title>Node4&#45;&gt;Node5</title>
<g id="a_edge4_Node000004_Node000005"><a xlink:title=" ">
<path fill="none" stroke="#63b8ff" d="M1055.09,-358.5C1071.4,-358.5 1093.57,-358.5 1113.65,-358.5"/>
<polygon fill="#63b8ff" stroke="#63b8ff" points="1113.92,-362 1123.92,-358.5 1113.92,-355 1113.92,-362"/>
</a>
</g>
</g>
<!-- Node7 -->
<g id="Node000007" class="node">
<title>Node7</title>
<g id="a_Node000007"><a xlink:href="render__objects_8c.html#a3884556a1897f33af297427075f94490" target="_top" xlink:title=" ">
<polygon fill="white" stroke="#666666" points="686.5,-427 594.5,-427 594.5,-408 686.5,-408 686.5,-427"/>
<text text-anchor="middle" x="640.5" y="-415" font-family="Helvetica,sans-Serif" font-size="10.00">func_8004747C</text>
</a>
</g>
</g>
<!-- Node6&#45;&gt;Node7 -->
<g id="edge6_Node000006_Node000007" class="edge">
<title>Node6&#45;&gt;Node7</title>
<g id="a_edge6_Node000006_Node000007"><a xlink:title=" ">
<path fill="none" stroke="#63b8ff" d="M476.94,-334.16C492.68,-348.96 524.85,-377.23 557,-393.5 565.98,-398.05 575.97,-401.87 585.79,-405.02"/>
<polygon fill="#63b8ff" stroke="#63b8ff" points="584.94,-408.42 595.53,-407.96 586.97,-401.72 584.94,-408.42"/>
</a>
</g>
</g>
<!-- Node9 -->
<g id="Node000009" class="node">
<title>Node9</title>
<g id="a_Node000009"><a xlink:href="math__util__2_8c.html#a2eff0e02deb703653ee3230fbc02eb14" target="_top" xlink:title="set the matrix to a transformation matrix">
<polygon fill="white" stroke="#666666" points="724,-303 557,-303 557,-284 724,-284 724,-303"/>
<text text-anchor="middle" x="640.5" y="-291" font-family="Helvetica,sans-Serif" font-size="10.00">rsp_set_matrix_transformation</text>
</a>
</g>
</g>
<!-- Node6&#45;&gt;Node9 -->
<g id="edge8_Node000006_Node000009" class="edge">
<title>Node6&#45;&gt;Node9</title>
<g id="a_edge8_Node000006_Node000009"><a xlink:title=" ">
<path fill="none" stroke="#63b8ff" d="M511.87,-316.44C531.61,-312.89 555.13,-308.66 576.57,-304.81"/>
<polygon fill="#63b8ff" stroke="#63b8ff" points="577.36,-308.22 586.58,-303.01 576.12,-301.33 577.36,-308.22"/>
</a>
</g>
</g>
<!-- Node8 -->
<g id="Node000008" class="node">
<title>Node8</title>
<g id="a_Node000008"><a xlink:href="render__objects_8c.html#a96f71e7de2b291bd06dd92188b107b53" target="_top" xlink:title=" ">
<polygon fill="white" stroke="#666666" points="913.5,-427 782.5,-427 782.5,-408 913.5,-408 913.5,-427"/>
<text text-anchor="middle" x="848" y="-415" font-family="Helvetica,sans-Serif" font-size="10.00">rsp_load_texture_mask</text>
</a>
</g>
</g>
<!-- Node7&#45;&gt;Node8 -->
<g id="edge7_Node000007_Node000008" class="edge">
<title>Node7&#45;&gt;Node8</title>
<g id="a_edge7_Node000007_Node000008"><a xlink:title=" ">
<path fill="none" stroke="#63b8ff" d="M686.6,-417.5C711.54,-417.5 743.17,-417.5 771.75,-417.5"/>
<polygon fill="#63b8ff" stroke="#63b8ff" points="772.12,-421 782.12,-417.5 772.12,-414 772.12,-421"/>
</a>
</g>
</g>
<!-- Node10 -->
<g id="Node000010" class="node">
<title>Node10</title>
<g id="a_Node000010"><a xlink:href="render__player_8c.html#ab7bf9484e155990f138e03ae5339fc84" target="_top" xlink:title=" ">
<polygon fill="white" stroke="#666666" points="911.5,-215.5 784.5,-215.5 784.5,-185.5 911.5,-185.5 911.5,-215.5"/>
<text text-anchor="start" x="792.5" y="-203.5" font-family="Helvetica,sans-Serif" font-size="10.00">convert_to_fixed_point</text>
<text text-anchor="middle" x="848" y="-192.5" font-family="Helvetica,sans-Serif" font-size="10.00">_matrix</text>
</a>
</g>
</g>
<!-- Node9&#45;&gt;Node10 -->
<g id="edge9_Node000009_Node000010" class="edge">
<title>Node9&#45;&gt;Node10</title>
<g id="a_edge9_Node000009_Node000010"><a xlink:title=" ">
<path fill="none" stroke="#63b8ff" d="M694.2,-283.98C704.27,-281.43 714.6,-278.3 724,-274.5 758.16,-260.7 793.89,-238.16 817.98,-221.57"/>
<polygon fill="#63b8ff" stroke="#63b8ff" points="820.11,-224.36 826.3,-215.76 816.1,-218.62 820.11,-224.36"/>
</a>
</g>
</g>
<!-- Node12 -->
<g id="Node000012" class="node">
<title>Node12</title>
<g id="a_Node000012"><a xlink:href="math__util__2_8c.html#a88742c6110738fc1c35a57f50920a81f" target="_top" xlink:title=" ">
<polygon fill="white" stroke="#666666" points="936,-167 760,-167 760,-148 936,-148 936,-167"/>
<text text-anchor="middle" x="848" y="-155" font-family="Helvetica,sans-Serif" font-size="10.00">mtxf_set_matrix_transformation</text>
</a>
</g>
</g>
<!-- Node9&#45;&gt;Node12 -->
<g id="edge11_Node000009_Node000012" class="edge">
<title>Node9&#45;&gt;Node12</title>
<g id="a_edge11_Node000009_Node000012"><a xlink:title=" ">
<path fill="none" stroke="#63b8ff" d="M709.57,-283.86C714.8,-281.37 719.7,-278.29 724,-274.5 758.81,-243.81 725.02,-206.99 760,-176.5 761.75,-174.97 763.6,-173.56 765.52,-172.25"/>
<polygon fill="#63b8ff" stroke="#63b8ff" points="767.46,-175.18 774.39,-167.17 763.98,-169.1 767.46,-175.18"/>
</a>
</g>
</g>
<!-- Node11 -->
<g id="Node000011" class="node">
<title>Node11</title>
<g id="a_Node000011"><a xlink:href="guMtxF2L_8c.html#a40ab2d64c609839ff1e0ef0de2d0dcc4" target="_top" xlink:title=" ">
<polygon fill="white" stroke="#666666" points="1062.5,-210 997.5,-210 997.5,-191 1062.5,-191 1062.5,-210"/>
<text text-anchor="middle" x="1030" y="-198" font-family="Helvetica,sans-Serif" font-size="10.00">guMtxF2L</text>
</a>
</g>
</g>
<!-- Node10&#45;&gt;Node11 -->
<g id="edge10_Node000010_Node000011" class="edge">
<title>Node10&#45;&gt;Node11</title>
<g id="a_edge10_Node000010_Node000011"><a xlink:title=" ">
<path fill="none" stroke="#63b8ff" d="M911.7,-200.5C936.58,-200.5 964.53,-200.5 986.9,-200.5"/>
<polygon fill="#63b8ff" stroke="#63b8ff" points="987.08,-204 997.08,-200.5 987.08,-197 987.08,-204"/>
</a>
</g>
</g>
<!-- Node13 -->
<g id="Node000013" class="node">
<title>Node13</title>
<g id="a_Node000013"><a xlink:href="math__util_8c.html#a5eb0d9752bc1557b7f4ae3809352a0eb" target="_top" xlink:title=" ">
<polygon fill="white" stroke="#666666" points="1049,-167 1011,-167 1011,-148 1049,-148 1049,-167"/>
<text text-anchor="middle" x="1030" y="-155" font-family="Helvetica,sans-Serif" font-size="10.00">coss</text>
</a>
</g>
</g>
<!-- Node12&#45;&gt;Node13 -->
<g id="edge12_Node000012_Node000013" class="edge">
<title>Node12&#45;&gt;Node13</title>
<g id="a_edge12_Node000012_Node000013"><a xlink:title=" ">
<path fill="none" stroke="#63b8ff" d="M936.1,-157.5C959.43,-157.5 983.03,-157.5 1000.6,-157.5"/>
<polygon fill="#63b8ff" stroke="#63b8ff" points="1000.71,-161 1010.71,-157.5 1000.71,-154 1000.71,-161"/>
</a>
</g>
</g>
<!-- Node14 -->
<g id="Node000014" class="node">
<title>Node14</title>
<g id="a_Node000014"><a xlink:href="math__util_8c.html#adcf81d47666b5d86c4a1dbcb06e47faf" target="_top" xlink:title=" ">
<polygon fill="white" stroke="#666666" points="1048,-130 1012,-130 1012,-111 1048,-111 1048,-130"/>
<text text-anchor="middle" x="1030" y="-118" font-family="Helvetica,sans-Serif" font-size="10.00">sins</text>
</a>
</g>
</g>
<!-- Node12&#45;&gt;Node14 -->
<g id="edge13_Node000012_Node000014" class="edge">
<title>Node12&#45;&gt;Node14</title>
<g id="a_edge13_Node000012_Node000014"><a xlink:title=" ">
<path fill="none" stroke="#63b8ff" d="M895.35,-147.97C929.16,-141.02 973.81,-131.85 1001.97,-126.06"/>
<polygon fill="#63b8ff" stroke="#63b8ff" points="1002.81,-129.46 1011.9,-124.02 1001.4,-122.6 1002.81,-129.46"/>
</a>
</g>
</g>
<!-- Node16 -->
<g id="Node000016" class="node">
<title>Node16</title>
<g id="a_Node000016"><a xlink:href="code__80086E70_8c.html#abee4ac0bf830479754bf7a3054719714" target="_top" xlink:title="Returns the distance between the object and the camera.">
<polygon fill="white" stroke="#666666" points="707,-179.5 574,-179.5 574,-149.5 707,-149.5 707,-179.5"/>
<text text-anchor="start" x="582" y="-167.5" font-family="Helvetica,sans-Serif" font-size="10.00">get_horizontal_distance</text>
<text text-anchor="middle" x="640.5" y="-156.5" font-family="Helvetica,sans-Serif" font-size="10.00">_to_camera</text>
</a>
</g>
</g>
<!-- Node15&#45;&gt;Node16 -->
<g id="edge15_Node000015_Node000016" class="edge">
<title>Node15&#45;&gt;Node16</title>
<g id="a_edge15_Node000015_Node000016"><a xlink:title=" ">
<path fill="none" stroke="#63b8ff" d="M502.57,-240.99C509,-238.45 515.42,-235.32 521,-231.5 541.29,-217.61 536.41,-202.94 557,-189.5 560.13,-187.46 563.43,-185.58 566.85,-183.84"/>
<polygon fill="#63b8ff" stroke="#63b8ff" points="568.47,-186.95 576.1,-179.59 565.55,-180.59 568.47,-186.95"/>
</a>
</g>
</g>
<!-- Node17 -->
<g id="Node000017" class="node">
<title>Node17</title>
<g id="a_Node000017"><a xlink:href="code__80086E70_8c.html#abe4dd4c208100b3bca1036d0a14074f2" target="_top" xlink:title=" ">
<polygon fill="white" stroke="#666666" points="698,-351.5 583,-351.5 583,-321.5 698,-321.5 698,-351.5"/>
<text text-anchor="start" x="591" y="-339.5" font-family="Helvetica,sans-Serif" font-size="10.00">is_object_visible_on</text>
<text text-anchor="middle" x="640.5" y="-328.5" font-family="Helvetica,sans-Serif" font-size="10.00">_camera</text>
</a>
</g>
</g>
<!-- Node15&#45;&gt;Node17 -->
<g id="edge16_Node000015_Node000017" class="edge">
<title>Node15&#45;&gt;Node17</title>
<g id="a_edge16_Node000015_Node000017"><a xlink:title=" ">
<path fill="none" stroke="#63b8ff" d="M502.89,-260.07C509.22,-262.6 515.53,-265.71 521,-269.5 541.49,-283.7 536.13,-298.87 557,-312.5 562.04,-315.79 567.54,-318.64 573.24,-321.11"/>
<polygon fill="#63b8ff" stroke="#63b8ff" points="572.36,-324.52 582.95,-324.91 574.91,-318 572.36,-324.52"/>
</a>
</g>
</g>
<!-- Node19 -->
<g id="Node000019" class="node">
<title>Node19</title>
<g id="a_Node000019"><a xlink:href="update__objects_8c.html#ad33541b9fed7857e59b2d745298f2d44" target="_top" xlink:title=" ">
<polygon fill="white" stroke="#666666" points="703,-265.5 578,-265.5 578,-235.5 703,-235.5 703,-265.5"/>
<text text-anchor="start" x="586" y="-253.5" font-family="Helvetica,sans-Serif" font-size="10.00">set_object_flag_status</text>
<text text-anchor="middle" x="640.5" y="-242.5" font-family="Helvetica,sans-Serif" font-size="10.00">_false</text>
</a>
</g>
</g>
<!-- Node15&#45;&gt;Node19 -->
<g id="edge19_Node000015_Node000019" class="edge">
<title>Node15&#45;&gt;Node19</title>
<g id="a_edge19_Node000015_Node000019"><a xlink:title=" ">
<path fill="none" stroke="#63b8ff" d="M512.32,-250.5C529.33,-250.5 549.1,-250.5 567.91,-250.5"/>
<polygon fill="#63b8ff" stroke="#63b8ff" points="567.94,-254 577.94,-250.5 567.94,-247 567.94,-254"/>
</a>
</g>
</g>
<!-- Node20 -->
<g id="Node000020" class="node">
<title>Node20</title>
<g id="a_Node000020"><a xlink:href="update__objects_8c.html#a00a4e96fc9576ef2552de1c51cf2aa7c" target="_top" xlink:title=" ">
<polygon fill="white" stroke="#666666" points="715.5,-217 565.5,-217 565.5,-198 715.5,-198 715.5,-217"/>
<text text-anchor="middle" x="640.5" y="-205" font-family="Helvetica,sans-Serif" font-size="10.00">set_object_flag_status_true</text>
</a>
</g>
</g>
<!-- Node15&#45;&gt;Node20 -->
<g id="edge20_Node000015_Node000020" class="edge">
<title>Node15&#45;&gt;Node20</title>
<g id="a_edge20_Node000015_Node000020"><a xlink:title=" ">
<path fill="none" stroke="#63b8ff" d="M501.55,-240.99C518.26,-236.47 538.64,-231.06 557,-226.5 566.63,-224.11 576.91,-221.66 586.84,-219.34"/>
<polygon fill="#63b8ff" stroke="#63b8ff" points="587.66,-222.75 596.61,-217.08 586.08,-215.93 587.66,-222.75"/>
</a>
</g>
</g>
<!-- Node18 -->
<g id="Node000018" class="node">
<title>Node18</title>
<g id="a_Node000018"><a xlink:href="math__util__2_8c.html#a13e56d0f66165ef2bfef5122f7de73b6" target="_top" xlink:title=" ">
<polygon fill="white" stroke="#666666" points="912.5,-348 783.5,-348 783.5,-329 912.5,-329 912.5,-348"/>
<text text-anchor="middle" x="848" y="-336" font-family="Helvetica,sans-Serif" font-size="10.00">get_angle_between_xy</text>
</a>
</g>
</g>
<!-- Node17&#45;&gt;Node18 -->
<g id="edge17_Node000017_Node000018" class="edge">
<title>Node17&#45;&gt;Node18</title>
<g id="a_edge17_Node000017_Node000018"><a xlink:title=" ">
<path fill="none" stroke="#63b8ff" d="M698.2,-337.05C721.38,-337.28 748.5,-337.54 773.2,-337.78"/>
<polygon fill="#63b8ff" stroke="#63b8ff" points="773.21,-341.28 783.25,-337.88 773.28,-334.28 773.21,-341.28"/>
</a>
</g>
</g>
<!-- Node18&#45;&gt;Node4 -->
<g id="edge18_Node000018_Node000004" class="edge">
<title>Node18&#45;&gt;Node4</title>
<g id="a_edge18_Node000018_Node000004"><a xlink:title=" ">
<path fill="none" stroke="#63b8ff" d="M912.71,-345.58C940.43,-348.66 971.79,-352.14 994.95,-354.72"/>
<polygon fill="#63b8ff" stroke="#63b8ff" points="994.65,-358.2 1004.97,-355.83 995.42,-351.25 994.65,-358.2"/>
</a>
</g>
</g>
<!-- Node23 -->
<g id="Node000023" class="node">
<title>Node23</title>
<g id="a_Node000023"><a xlink:href="render__objects_8c.html#af4cc6cd2a49b1d0326a58852731afd0f" target="_top" xlink:title=" ">
<polygon fill="white" stroke="#666666" points="374.5,-180 283.5,-180 283.5,-161 374.5,-161 374.5,-180"/>
<text text-anchor="middle" x="329" y="-168" font-family="Helvetica,sans-Serif" font-size="10.00">func_80054E10</text>
</a>
</g>
</g>
<!-- Node22&#45;&gt;Node23 -->
<g id="edge23_Node000022_Node000023" class="edge">
<title>Node22&#45;&gt;Node23</title>
<g id="a_edge23_Node000022_Node000023"><a xlink:title=" ">
<path fill="none" stroke="#63b8ff" d="M247.13,-170.5C255.56,-170.5 264.45,-170.5 273.13,-170.5"/>
<polygon fill="#63b8ff" stroke="#63b8ff" points="273.18,-174 283.18,-170.5 273.18,-167 273.18,-174"/>
</a>
</g>
</g>
<!-- Node23&#45;&gt;Node21 -->
<g id="edge34_Node000023_Node000021" class="edge">
<title>Node23&#45;&gt;Node21</title>
<g id="a_edge34_Node000023_Node000021"><a xlink:title=" ">
<path fill="none" stroke="#63b8ff" d="M364.77,-180.03C376.77,-183.32 390.6,-187.11 404.08,-190.8"/>
<polygon fill="#63b8ff" stroke="#63b8ff" points="403.23,-194.2 413.8,-193.47 405.08,-187.45 403.23,-194.2"/>
</a>
</g>
</g>
<!-- Node24 -->
<g id="Node000024" class="node">
<title>Node24</title>
<g id="a_Node000024"><a xlink:href="render__objects_8c.html#ac00ba86ba7fa436f9065efc70a70a480" target="_top" xlink:title=" ">
<polygon fill="white" stroke="#666666" points="512,-88 420,-88 420,-69 512,-69 512,-88"/>
<text text-anchor="middle" x="466" y="-76" font-family="Helvetica,sans-Serif" font-size="10.00">func_8004A9B8</text>
</a>
</g>
</g>
<!-- Node23&#45;&gt;Node24 -->
<g id="edge24_Node000023_Node000024" class="edge">
<title>Node23&#45;&gt;Node24</title>
<g id="a_edge24_Node000023_Node000024"><a xlink:title=" ">
<path fill="none" stroke="#63b8ff" d="M338.51,-160.65C352.31,-145.22 381.05,-115.29 411,-97.5 414.41,-95.47 418.07,-93.62 421.82,-91.93"/>
<polygon fill="#63b8ff" stroke="#63b8ff" points="423.31,-95.1 431.23,-88.07 420.65,-88.62 423.31,-95.1"/>
</a>
</g>
</g>
<!-- Node25 -->
<g id="Node000025" class="node">
<title>Node25</title>
<g id="a_Node000025"><a xlink:href="math__util__2_8c.html#af76a1b5132e0b292f26895736bb69cc7" target="_top" xlink:title=" ">
<polygon fill="white" stroke="#666666" points="701.5,-93.5 579.5,-93.5 579.5,-63.5 701.5,-63.5 701.5,-93.5"/>
<text text-anchor="start" x="587.5" y="-81.5" font-family="Helvetica,sans-Serif" font-size="10.00">rsp_set_matrix_transl</text>
<text text-anchor="middle" x="640.5" y="-70.5" font-family="Helvetica,sans-Serif" font-size="10.00">_rot_scale</text>
</a>
</g>
</g>
<!-- Node24&#45;&gt;Node25 -->
<g id="edge25_Node000024_Node000025" class="edge">
<title>Node24&#45;&gt;Node25</title>
<g id="a_edge25_Node000024_Node000025"><a xlink:title=" ">
<path fill="none" stroke="#63b8ff" d="M512.32,-78.5C529.67,-78.5 549.89,-78.5 569.04,-78.5"/>
<polygon fill="#63b8ff" stroke="#63b8ff" points="569.23,-82 579.23,-78.5 569.23,-75 569.23,-82"/>
</a>
</g>
</g>
<!-- Node25&#45;&gt;Node10 -->
<g id="edge26_Node000025_Node000010" class="edge">
<title>Node25&#45;&gt;Node10</title>
<g id="a_edge26_Node000025_Node000010"><a xlink:title=" ">
<path fill="none" stroke="#63b8ff" d="M701.77,-89.52C709.8,-92.79 717.5,-97.02 724,-102.5 751.96,-126.08 731.88,-153.12 760,-176.5 764.55,-180.29 769.66,-183.48 775.05,-186.17"/>
<polygon fill="#63b8ff" stroke="#63b8ff" points="773.8,-189.44 784.36,-190.24 776.6,-183.02 773.8,-189.44"/>
</a>
</g>
</g>
<!-- Node26 -->
<g id="Node000026" class="node">
<title>Node26</title>
<g id="a_Node000026"><a xlink:href="math__util__2_8c.html#aae502d60ed48e002c9bf17890477aebc" target="_top" xlink:title=" ">
<polygon fill="white" stroke="#666666" points="909,-91 787,-91 787,-72 909,-72 909,-91"/>
<text text-anchor="middle" x="848" y="-79" font-family="Helvetica,sans-Serif" font-size="10.00">set_transform_matrix</text>
</a>
</g>
</g>
<!-- Node25&#45;&gt;Node26 -->
<g id="edge27_Node000025_Node000026" class="edge">
<title>Node25&#45;&gt;Node26</title>
<g id="a_edge27_Node000025_Node000026"><a xlink:title=" ">
<path fill="none" stroke="#63b8ff" d="M701.77,-79.38C725.19,-79.72 752.18,-80.12 776.5,-80.47"/>
<polygon fill="#63b8ff" stroke="#63b8ff" points="776.68,-83.97 786.73,-80.62 776.79,-76.97 776.68,-83.97"/>
</a>
</g>
</g>
<!-- Node26&#45;&gt;Node13 -->
<g id="edge28_Node000026_Node000013" class="edge">
<title>Node26&#45;&gt;Node13</title>
<g id="a_edge28_Node000026_Node000013"><a xlink:title=" ">
<path fill="none" stroke="#63b8ff" d="M909.19,-90.56C918.51,-93.3 927.76,-96.86 936,-101.5 956,-112.75 952.57,-126.3 972,-138.5 980.76,-144 991.28,-148.09 1000.89,-151.03"/>
<polygon fill="#63b8ff" stroke="#63b8ff" points="1000.26,-154.49 1010.83,-153.8 1002.13,-147.75 1000.26,-154.49"/>
</a>
</g>
</g>
<!-- Node26&#45;&gt;Node14 -->
<g id="edge29_Node000026_Node000014" class="edge">
<title>Node26&#45;&gt;Node14</title>
<g id="a_edge29_Node000026_Node000014"><a xlink:title=" ">
<path fill="none" stroke="#63b8ff" d="M893.03,-91.04C927,-98.4 972.9,-108.34 1001.72,-114.59"/>
<polygon fill="#63b8ff" stroke="#63b8ff" points="1001.36,-118.09 1011.87,-116.79 1002.84,-111.25 1001.36,-118.09"/>
</a>
</g>
</g>
<!-- Node27 -->
<g id="Node000027" class="node">
<title>Node27</title>
<g id="a_Node000027"><a xlink:href="math__util__2_8c.html#ab05a6d20123383498f07f82db7b6fb8d" target="_top" xlink:title=" ">
<polygon fill="white" stroke="#666666" points="1088,-93 972,-93 972,-74 1088,-74 1088,-93"/>
<text text-anchor="middle" x="1030" y="-81" font-family="Helvetica,sans-Serif" font-size="10.00">vec3f_cross_product</text>
</a>
</g>
</g>
<!-- Node26&#45;&gt;Node27 -->
<g id="edge30_Node000026_Node000027" class="edge">
<title>Node26&#45;&gt;Node27</title>
<g id="a_edge30_Node000026_Node000027"><a xlink:title=" ">
<path fill="none" stroke="#63b8ff" d="M909.19,-82.17C926.1,-82.36 944.6,-82.56 961.9,-82.75"/>
<polygon fill="#63b8ff" stroke="#63b8ff" points="961.88,-86.25 971.92,-82.87 961.96,-79.25 961.88,-86.25"/>
</a>
</g>
</g>
<!-- Node28 -->
<g id="Node000028" class="node">
<title>Node28</title>
<g id="a_Node000028"><a xlink:href="math__util__2_8c.html#ad692d06c2c62cfc4e1b91e03cc0acf00" target="_top" xlink:title=" ">
<polygon fill="white" stroke="#666666" points="1079,-56 981,-56 981,-37 1079,-37 1079,-56"/>
<text text-anchor="middle" x="1030" y="-44" font-family="Helvetica,sans-Serif" font-size="10.00">vec3f_normalize</text>
</a>
</g>
</g>
<!-- Node26&#45;&gt;Node28 -->
<g id="edge31_Node000026_Node000028" class="edge">
<title>Node26&#45;&gt;Node28</title>
<g id="a_edge31_Node000026_Node000028"><a xlink:title=" ">
<path fill="none" stroke="#63b8ff" d="M898.19,-71.94C920.68,-67.56 947.5,-62.35 970.97,-57.78"/>
<polygon fill="#63b8ff" stroke="#63b8ff" points="971.66,-61.22 980.81,-55.87 970.32,-54.34 971.66,-61.22"/>
</a>
</g>
</g>
<!-- Node30 -->
<g id="Node000030" class="node">
<title>Node30</title>
<g id="a_Node000030"><a xlink:href="math__util__2_8c.html#a03ebc759ba50db479384b0ad89225f1e" target="_top" xlink:title=" ">
<polygon fill="white" stroke="#666666" points="1073,-19 987,-19 987,0 1073,0 1073,-19"/>
<text text-anchor="middle" x="1030" y="-7" font-family="Helvetica,sans-Serif" font-size="10.00">vec3f_set_xyz</text>
</a>
</g>
</g>
<!-- Node26&#45;&gt;Node30 -->
<g id="edge33_Node000026_Node000030" class="edge">
<title>Node26&#45;&gt;Node30</title>
<g id="a_edge33_Node000026_Node000030"><a xlink:title=" ">
<path fill="none" stroke="#63b8ff" d="M869.18,-71.84C893.32,-60.47 935.11,-41.38 972,-27.5 976.79,-25.7 981.86,-23.92 986.91,-22.23"/>
<polygon fill="#63b8ff" stroke="#63b8ff" points="988.12,-25.51 996.54,-19.09 985.95,-18.86 988.12,-25.51"/>
</a>
</g>
</g>
<!-- Node29 -->
<g id="Node000029" class="node">
<title>Node29</title>
<g id="a_Node000029"><a xlink:href="math_8h.html#a37bde043e94a6f074c78f10518fb5d99" target="_top" xlink:title=" ">
<polygon fill="white" stroke="#666666" points="1184.5,-56 1145.5,-56 1145.5,-37 1184.5,-37 1184.5,-56"/>
<text text-anchor="middle" x="1165" y="-44" font-family="Helvetica,sans-Serif" font-size="10.00">sqrtf</text>
</a>
</g>
</g>
<!-- Node28&#45;&gt;Node29 -->
<g id="edge32_Node000028_Node000029" class="edge">
<title>Node28&#45;&gt;Node29</title>
<g id="a_edge32_Node000028_Node000029"><a xlink:title=" ">
<path fill="none" stroke="#63b8ff" d="M1079.02,-46.5C1097.82,-46.5 1118.76,-46.5 1135.15,-46.5"/>
<polygon fill="#63b8ff" stroke="#63b8ff" points="1135.19,-50 1145.19,-46.5 1135.19,-43 1135.19,-50"/>
</a>
</g>
</g>
<!-- Node31&#45;&gt;Node3 -->
<g id="edge36_Node000031_Node000003" class="edge">
<title>Node31&#45;&gt;Node3</title>
<g id="a_edge36_Node000031_Node000003"><a xlink:title=" ">
<path fill="none" stroke="#63b8ff" d="M351.42,-218.22C359.17,-222.16 367.78,-227.07 375,-232.5 393.34,-246.29 391.57,-257.3 411,-269.5 413.59,-271.13 416.35,-272.63 419.2,-274"/>
<polygon fill="#63b8ff" stroke="#63b8ff" points="417.91,-277.26 428.48,-277.99 420.67,-270.82 417.91,-277.26"/>
</a>
</g>
</g>
<!-- Node31&#45;&gt;Node15 -->
<g id="edge37_Node000031_Node000015" class="edge">
<title>Node31&#45;&gt;Node15</title>
<g id="a_edge37_Node000031_Node000015"><a xlink:title=" ">
<path fill="none" stroke="#63b8ff" d="M360.63,-218.03C379.49,-223.9 403.87,-231.48 424.33,-237.85"/>
<polygon fill="#63b8ff" stroke="#63b8ff" points="423.43,-241.23 434.02,-240.86 425.51,-234.55 423.43,-241.23"/>
</a>
</g>
</g>
<!-- Node31&#45;&gt;Node21 -->
<g id="edge38_Node000031_Node000021" class="edge">
<title>Node31&#45;&gt;Node21</title>
<g id="a_edge38_Node000031_Node000021"><a xlink:title=" ">
<path fill="none" stroke="#63b8ff" d="M374.58,-208.17C383.93,-208.1 393.94,-208.03 403.77,-207.95"/>
<polygon fill="#63b8ff" stroke="#63b8ff" points="403.95,-211.45 413.92,-207.88 403.9,-204.45 403.95,-211.45"/>
</a>
</g>
</g>
<!-- Node32 -->
<g id="Node000032" class="node">
<title>Node32</title>
<g id="a_Node000032"><a xlink:href="render__objects_8c.html#abb8ae92ab6d9189d5851fdfad2ac7f91" target="_top" xlink:title=" ">
<polygon fill="white" stroke="#666666" points="521,-136.5 411,-136.5 411,-106.5 521,-106.5 521,-136.5"/>
<text text-anchor="start" x="419" y="-124.5" font-family="Helvetica,sans-Serif" font-size="10.00">load_texture_block</text>
<text text-anchor="middle" x="466" y="-113.5" font-family="Helvetica,sans-Serif" font-size="10.00">_rgba16_mirror</text>
</a>
</g>
</g>
<!-- Node31&#45;&gt;Node32 -->
<g id="edge39_Node000031_Node000032" class="edge">
<title>Node31&#45;&gt;Node32</title>
<g id="a_edge39_Node000031_Node000032"><a xlink:title=" ">
<path fill="none" stroke="#63b8ff" d="M358.11,-198.82C363.94,-196.22 369.87,-193.11 375,-189.5 394.3,-175.94 392.35,-164.95 411,-150.5 415.05,-147.36 419.49,-144.38 424.02,-141.6"/>
<polygon fill="#63b8ff" stroke="#63b8ff" points="425.88,-144.57 432.78,-136.54 422.38,-138.51 425.88,-144.57"/>
</a>
</g>
</g>
<!-- Node33 -->
<g id="Node000033" class="node">
<title>Node33</title>
<g id="a_Node000033"><a xlink:href="math__util__2_8c.html#aca064a66dc29c36e1db7b79a6b679e25" target="_top" xlink:title=" ">
<polygon fill="white" stroke="#666666" points="715,-131 566,-131 566,-112 715,-112 715,-131"/>
<text text-anchor="middle" x="640.5" y="-119" font-family="Helvetica,sans-Serif" font-size="10.00">rsp_set_matrix_gObjectList</text>
</a>
</g>
</g>
<!-- Node31&#45;&gt;Node33 -->
<g id="edge40_Node000031_Node000033" class="edge">
<title>Node31&#45;&gt;Node33</title>
<g id="a_edge40_Node000031_Node000033"><a xlink:title=" ">
<path fill="none" stroke="#63b8ff" d="M359.56,-198.93C402.71,-185.12 485.57,-159.23 557,-140.5 566.29,-138.07 576.2,-135.64 585.83,-133.37"/>
<polygon fill="#63b8ff" stroke="#63b8ff" points="586.76,-136.74 595.71,-131.07 585.18,-129.93 586.76,-136.74"/>
</a>
</g>
</g>
<!-- Node33&#45;&gt;Node10 -->
<g id="edge41_Node000033_Node000010" class="edge">
<title>Node33&#45;&gt;Node10</title>
<g id="a_edge41_Node000033_Node000010"><a xlink:title=" ">
<path fill="none" stroke="#63b8ff" d="M701.13,-131C709.09,-133.47 716.93,-136.58 724,-140.5 743.79,-151.46 740.45,-165.11 760,-176.5 764.65,-179.21 769.63,-181.63 774.75,-183.78"/>
<polygon fill="#63b8ff" stroke="#63b8ff" points="773.5,-187.05 784.09,-187.37 776.02,-180.51 773.5,-187.05"/>
</a>
</g>
</g>
<!-- Node34 -->
<g id="Node000034" class="node">
<title>Node34</title>
<g id="a_Node000034"><a xlink:href="math__util__2_8c.html#ab532579cd51233e25a8f3f9ea21fb25c" target="_top" xlink:title="Tried to put the definitions in the declares. However, sp3C wants to be at the top....">
<polygon fill="white" stroke="#666666" points="927,-130 769,-130 769,-111 927,-111 927,-130"/>
<text text-anchor="middle" x="848" y="-118" font-family="Helvetica,sans-Serif" font-size="10.00">mtxf_set_matrix_gObjectList</text>
</a>
</g>
</g>
<!-- Node33&#45;&gt;Node34 -->
<g id="edge42_Node000033_Node000034" class="edge">
<title>Node33&#45;&gt;Node34</title>
<g id="a_edge42_Node000033_Node000034"><a xlink:title=" ">
<path fill="none" stroke="#63b8ff" d="M715.11,-121.14C729.1,-121.07 743.88,-121 758.29,-120.93"/>
<polygon fill="#63b8ff" stroke="#63b8ff" points="758.71,-124.43 768.69,-120.88 758.68,-117.43 758.71,-124.43"/>
</a>
</g>
</g>
<!-- Node34&#45;&gt;Node13 -->
<g id="edge43_Node000034_Node000013" class="edge">
<title>Node34&#45;&gt;Node13</title>
<g id="a_edge43_Node000034_Node000013"><a xlink:title=" ">
<path fill="none" stroke="#63b8ff" d="M895.35,-130.03C928.61,-136.86 972.35,-145.85 1000.57,-151.66"/>
<polygon fill="#63b8ff" stroke="#63b8ff" points="1000.07,-155.13 1010.57,-153.71 1001.48,-148.27 1000.07,-155.13"/>
</a>
</g>
</g>
<!-- Node34&#45;&gt;Node14 -->
<g id="edge44_Node000034_Node000014" class="edge">
<title>Node34&#45;&gt;Node14</title>
<g id="a_edge44_Node000034_Node000014"><a xlink:title=" ">
<path fill="none" stroke="#63b8ff" d="M927.17,-120.5C953.74,-120.5 981.72,-120.5 1001.61,-120.5"/>
<polygon fill="#63b8ff" stroke="#63b8ff" points="1001.77,-124 1011.77,-120.5 1001.77,-117 1001.77,-124"/>
</a>
</g>
</g>
</g>
</svg>

<g id="navigator" transform="translate(0 0)" fill="#404254">
  <rect fill="#f2f5e9" fill-opacity="0.5" stroke="#606060" stroke-width=".5" x="0" y="0" width="60" height="60"/>
  <use id="zoomplus" xlink:href="#zoomPlus" x="17" y="9" onmousedown="handleZoom(evt,'in')"/>
  <use id="zoomminus" xlink:href="#zoomMin" x="42" y="9" onmousedown="handleZoom(evt,'out')"/>
  <use id="reset" xlink:href="#resetDef" x="30" y="36" onmousedown="handleReset()"/>
   <use id="arrowup" xlink:href="#arrowUp" x="0" y="0" onmousedown="handlePan(0,-1)"/>
  <use id="arrowright" xlink:href="#arrowRight" x="0" y="0" onmousedown="handlePan(1,0)"/>
  <use id="arrowdown" xlink:href="#arrowDown" x="0" y="0" onmousedown="handlePan(0,1)"/>
  <use id="arrowleft" xlink:href="#arrowLeft" x="0" y="0" onmousedown="handlePan(-1,0)"/>
</g>
<svg viewBox="0 0 15 15" width="100%" height="30px" preserveAspectRatio="xMaxYMin meet">
 <g id="arrow_out" transform="scale(0.3 0.3)">
  <a xlink:href="render__objects_8h_a4ccb37b1d7e8bb525a8eec767455b72d_cgraph_org.svg" target="_base">
   <rect id="button" ry="5" rx="5" y="6" x="6" height="38" width="38"
        fill="#f2f5e9" fill-opacity="0.5" stroke="#606060" stroke-width="1.0"/>
   <path id="arrow"
     d="M 11.500037,31.436501 C 11.940474,20.09759 22.043105,11.32322 32.158766,21.979434 L 37.068811,17.246167 C 37.068811,17.246167 37.088388,32 37.088388,32 L 22.160133,31.978069 C 22.160133,31.978069 26.997745,27.140456 26.997745,27.140456 C 18.528582,18.264221 13.291696,25.230495 11.500037,31.436501 z"
     style="fill:#404040;"/>
  </a>
 </g>
</svg>

<style type='text/css'>
<![CDATA[
[data-mouse-over-selected='false'] { opacity: 0.7; }
[data-mouse-over-selected='true']  { opacity: 1.0; }
]]>
</style>
<script type="application/ecmascript"><![CDATA[
document.addEventListener('DOMContentLoaded', (event) => {
  highlightEdges();
  highlightAdjacentNodes();
});
]]></script>
</svg>
