<?xml version="1.0" encoding="UTF-8" standalone="no"?>
<!DOCTYPE svg PUBLIC "-//W3C//DTD SVG 1.1//EN"
 "http://www.w3.org/Graphics/SVG/1.1/DTD/svg11.dtd">
<!-- Generated by graphviz version 2.43.0 (0)
 -->
<!-- Title: render_course Pages: 1 -->
<!--zoomable 863 -->

<svg id="main" version="1.1" xmlns="http://www.w3.org/2000/svg" xmlns:xlink="http://www.w3.org/1999/xlink" xml:space="preserve" onload="init(evt)">
<style type="text/css"><![CDATA[
.node, .edge {opacity: 0.7;}
.node.selected, .edge.selected {opacity: 1;}
.edge:hover path { stroke: red; }
.edge:hover polygon { stroke: red; fill: red; }
]]></style>

<defs>
  <circle id="rim" cx="0" cy="0" r="7"/>
  <circle id="rim2" cx="0" cy="0" r="3.5"/>
  <g id="zoomPlus">
    <use xlink:href="#rim" fill="#404040"><set attributeName="fill" to="#808080" begin="zoomplus.mouseover" end="zoomplus.mouseout"/></use>
    <path d="M-4,0h8M0,-4v8" fill="none" stroke="white" stroke-width="1.5" pointer-events="none"/>
  </g>
  <g id="zoomMin">
    <use xlink:href="#rim" fill="#404040"><set attributeName="fill" to="#808080" begin="zoomminus.mouseover" end="zoomminus.mouseout"/></use>
    <path d="M-4,0h8" fill="none" stroke="white" stroke-width="1.5" pointer-events="none"/>
  </g>
  <g id="arrowUp" transform="translate(30 24)">
    <use xlink:href="#rim"/>
    <path pointer-events="none" fill="none" stroke="white" stroke-width="1.5" d="M0,-3.0v7 M-2.5,-0.5L0,-3.0L2.5,-0.5"/>
  </g>
  <g id="arrowRight" transform="rotate(90) translate(36 -43)">
    <use xlink:href="#rim"/>
    <path pointer-events="none" fill="none" stroke="white" stroke-width="1.5" d="M0,-3.0v7 M-2.5,-0.5L0,-3.0L2.5,-0.5"/>
  </g>
  <g id="arrowDown" transform="rotate(180) translate(-30 -48)">
    <use xlink:href="#rim"/>
    <path pointer-events="none" fill="none" stroke="white" stroke-width="1.5" d="M0,-3.0v7 M-2.5,-0.5L0,-3.0L2.5,-0.5"/>
  </g>
  <g id="arrowLeft" transform="rotate(270) translate(-36 17)">
    <use xlink:href="#rim"/>
    <path pointer-events="none" fill="none" stroke="white" stroke-width="1.5" d="M0,-3.0v7 M-2.5,-0.5L0,-3.0L2.5,-0.5"/>
  </g>
  <g id="resetDef">
    <use xlink:href="#rim2" fill="#404040"><set attributeName="fill" to="#808080" begin="reset.mouseover" end="reset.mouseout"/></use>
  </g>
</defs>
<script type="application/ecmascript">
var viewWidth = 712;
var viewHeight = 863;
var sectionId = 'dynsection-28';
</script>
<script type="application/ecmascript" xlink:href="svg.min.js"/>
<svg id="graph" class="graph">
<g id="viewport">
<title>render_course</title>
<!-- Node1 -->
<g id="Node000001" class="node">
<title>Node1</title>
<g id="a_Node000001"><a xlink:title=" ">
<polygon fill="#999999" stroke="#666666" points="86,-446 0,-446 0,-427 86,-427 86,-446"/>
<text text-anchor="middle" x="43" y="-434" font-family="Helvetica,sans-Serif" font-size="10.00">render_course</text>
</a>
</g>
</g>
<!-- Node2 -->
<g id="Node000002" class="node">
<title>Node2</title>
<g id="a_Node000002"><a xlink:href="render__courses_8c.html#a1f997e08809597bfc7891e17e8c9eec6" target="_top" xlink:title=" ">
<polygon fill="white" stroke="#666666" points="274,-837 123,-837 123,-818 274,-818 274,-837"/>
<text text-anchor="middle" x="198.5" y="-825" font-family="Helvetica,sans-Serif" font-size="10.00">render_banshee_boardwalk</text>
</a>
</g>
</g>
<!-- Node1&#45;&gt;Node2 -->
<g id="edge1_Node000001_Node000002" class="edge">
<title>Node1&#45;&gt;Node2</title>
<g id="a_edge1_Node000001_Node000002"><a xlink:title=" ">
<path fill="none" stroke="#63b8ff" d="M44.66,-446.26C48.45,-499.58 69.19,-755.19 122,-809.5 122.92,-810.45 123.89,-811.36 124.89,-812.22"/>
<polygon fill="#63b8ff" stroke="#63b8ff" points="122.99,-815.15 133.2,-817.98 126.98,-809.4 122.99,-815.15"/>
</a>
</g>
</g>
<!-- Node10 -->
<g id="Node000010" class="node">
<title>Node10</title>
<g id="a_Node000010"><a xlink:href="render__courses_8c.html#a648b66d6448fe0556526a56fc429b8e1" target="_top" xlink:title=" ">
<polygon fill="white" stroke="#666666" points="249,-391 148,-391 148,-372 249,-372 249,-391"/>
<text text-anchor="middle" x="198.5" y="-379" font-family="Helvetica,sans-Serif" font-size="10.00">render_big_donut</text>
</a>
</g>
</g>
<!-- Node1&#45;&gt;Node10 -->
<g id="edge9_Node000001_Node000010" class="edge">
<title>Node1&#45;&gt;Node10</title>
<g id="a_edge9_Node000001_Node000010"><a xlink:title=" ">
<path fill="none" stroke="#63b8ff" d="M61.52,-426.89C77.04,-418.69 100.51,-407.06 122,-399.5 128.01,-397.39 134.37,-395.44 140.75,-393.67"/>
<polygon fill="#63b8ff" stroke="#63b8ff" points="141.96,-396.97 150.74,-391.04 140.18,-390.2 141.96,-396.97"/>
</a>
</g>
</g>
<!-- Node12 -->
<g id="Node000012" class="node">
<title>Node12</title>
<g id="a_Node000012"><a xlink:href="math__util_8c.html#a5d2500dc2fb5d61998bb7e16d33c04a2" target="_top" xlink:title=" ">
<polygon fill="white" stroke="#666666" points="436,-650 325,-650 325,-631 436,-631 436,-650"/>
<text text-anchor="middle" x="380.5" y="-638" font-family="Helvetica,sans-Serif" font-size="10.00">set_course_lighting</text>
</a>
</g>
</g>
<!-- Node1&#45;&gt;Node12 -->
<g id="edge68_Node000001_Node000012" class="edge">
<title>Node1&#45;&gt;Node12</title>
<g id="a_edge68_Node000001_Node000012"><a xlink:title=" ">
<path fill="none" stroke="#63b8ff" d="M45.37,-446.16C51.73,-489.36 79.79,-664.13 122,-695.5 194.9,-749.68 309.76,-686.62 357.53,-655.68"/>
<polygon fill="#63b8ff" stroke="#63b8ff" points="359.49,-658.58 365.9,-650.14 355.63,-652.74 359.49,-658.58"/>
</a>
</g>
</g>
<!-- Node15 -->
<g id="Node000015" class="node">
<title>Node15</title>
<g id="a_Node000015"><a xlink:href="render__courses_8c.html#adaf0146aebec362e665f14f817109d20" target="_top" xlink:title=" ">
<polygon fill="white" stroke="#666666" points="249.5,-687 147.5,-687 147.5,-668 249.5,-668 249.5,-687"/>
<text text-anchor="middle" x="198.5" y="-675" font-family="Helvetica,sans-Serif" font-size="10.00">render_block_fort</text>
</a>
</g>
</g>
<!-- Node1&#45;&gt;Node15 -->
<g id="edge14_Node000001_Node000015" class="edge">
<title>Node1&#45;&gt;Node15</title>
<g id="a_edge14_Node000001_Node000015"><a xlink:title=" ">
<path fill="none" stroke="#63b8ff" d="M44.32,-446.23C46,-480.78 56.52,-598.74 122,-658.5 126.65,-662.75 132.11,-666.07 137.93,-668.68"/>
<polygon fill="#63b8ff" stroke="#63b8ff" points="136.71,-671.96 147.31,-672.21 139.18,-665.41 136.71,-671.96"/>
</a>
</g>
</g>
<!-- Node16 -->
<g id="Node000016" class="node">
<title>Node16</title>
<g id="a_Node000016"><a xlink:href="render__courses_8c.html#a32fec071ccf48cf3f3d9b050ef96dd9d" target="_top" xlink:title=" ">
<polygon fill="white" stroke="#666666" points="262.5,-157 134.5,-157 134.5,-138 262.5,-138 262.5,-157"/>
<text text-anchor="middle" x="198.5" y="-145" font-family="Helvetica,sans-Serif" font-size="10.00">render_bowsers_castle</text>
</a>
</g>
</g>
<!-- Node1&#45;&gt;Node16 -->
<g id="edge16_Node000001_Node000016" class="edge">
<title>Node1&#45;&gt;Node16</title>
<g id="a_edge16_Node000001_Node000016"><a xlink:title=" ">
<path fill="none" stroke="#63b8ff" d="M43.59,-426.88C42.47,-387.9 43.75,-240.22 122,-165.5 123.13,-164.42 124.31,-163.41 125.53,-162.45"/>
<polygon fill="#63b8ff" stroke="#63b8ff" points="127.65,-165.25 134.19,-156.92 123.88,-159.35 127.65,-165.25"/>
</a>
</g>
</g>
<!-- Node17 -->
<g id="Node000017" class="node">
<title>Node17</title>
<g id="a_Node000017"><a xlink:href="render__courses_8c.html#a26eba8e475edeea00499b9d2952ad1d5" target="_top" xlink:title=" ">
<polygon fill="white" stroke="#666666" points="265.5,-231 131.5,-231 131.5,-212 265.5,-212 265.5,-231"/>
<text text-anchor="middle" x="198.5" y="-219" font-family="Helvetica,sans-Serif" font-size="10.00">render_choco_mountain</text>
</a>
</g>
</g>
<!-- Node1&#45;&gt;Node17 -->
<g id="edge19_Node000001_Node000017" class="edge">
<title>Node1&#45;&gt;Node17</title>
<g id="a_edge19_Node000001_Node000017"><a xlink:title=" ">
<path fill="none" stroke="#63b8ff" d="M44.76,-426.94C47.84,-395.04 62.23,-291.29 122,-239.5 123.33,-238.35 124.72,-237.27 126.16,-236.25"/>
<polygon fill="#63b8ff" stroke="#63b8ff" points="128.05,-239.2 134.92,-231.13 124.52,-233.16 128.05,-239.2"/>
</a>
</g>
</g>
<!-- Node18 -->
<g id="Node000018" class="node">
<title>Node18</title>
<g id="a_Node000018"><a xlink:href="render__courses_8c.html#ae51ffc51e7e4d19321db6b00b15d6128" target="_top" xlink:title="The game has two versions of each course. One for normal gameplay and another for credits....">
<polygon fill="white" stroke="#666666" points="260.5,-613 136.5,-613 136.5,-594 260.5,-594 260.5,-613"/>
<text text-anchor="middle" x="198.5" y="-601" font-family="Helvetica,sans-Serif" font-size="10.00">render_course_credits</text>
</a>
</g>
</g>
<!-- Node1&#45;&gt;Node18 -->
<g id="edge22_Node000001_Node000018" class="edge">
<title>Node1&#45;&gt;Node18</title>
<g id="a_edge22_Node000001_Node000018"><a xlink:title=" ">
<path fill="none" stroke="#63b8ff" d="M46.19,-446.22C52.7,-472.8 74.5,-547.17 122,-584.5 124.29,-586.3 126.73,-587.93 129.28,-589.41"/>
<polygon fill="#63b8ff" stroke="#63b8ff" points="127.79,-592.58 138.31,-593.88 130.89,-586.31 127.79,-592.58"/>
</a>
</g>
</g>
<!-- Node19 -->
<g id="Node000019" class="node">
<title>Node19</title>
<g id="a_Node000019"><a xlink:href="render__courses_8c.html#a4ef8d7da4ca5f4c93ae612312cc815d9" target="_top" xlink:title=" ">
<polygon fill="white" stroke="#666666" points="275,-502 122,-502 122,-483 275,-483 275,-502"/>
<text text-anchor="middle" x="198.5" y="-490" font-family="Helvetica,sans-Serif" font-size="10.00">render_dks_jungle_parkway</text>
</a>
</g>
</g>
<!-- Node1&#45;&gt;Node19 -->
<g id="edge23_Node000001_Node000019" class="edge">
<title>Node1&#45;&gt;Node19</title>
<g id="a_edge23_Node000001_Node000019"><a xlink:title=" ">
<path fill="none" stroke="#63b8ff" d="M61.54,-446.05C77.08,-454.2 100.56,-465.8 122,-473.5 128.91,-475.98 136.28,-478.26 143.62,-480.32"/>
<polygon fill="#63b8ff" stroke="#63b8ff" points="142.98,-483.77 153.54,-482.99 144.79,-477.01 142.98,-483.77"/>
</a>
</g>
</g>
<!-- Node20 -->
<g id="Node000020" class="node">
<title>Node20</title>
<g id="a_Node000020"><a xlink:href="render__courses_8c.html#a71fa1987b4d586be84e914a08c434a16" target="_top" xlink:title=" ">
<polygon fill="white" stroke="#666666" points="256,-800 141,-800 141,-781 256,-781 256,-800"/>
<text text-anchor="middle" x="198.5" y="-788" font-family="Helvetica,sans-Serif" font-size="10.00">render_double_deck</text>
</a>
</g>
</g>
<!-- Node1&#45;&gt;Node20 -->
<g id="edge27_Node000001_Node000020" class="edge">
<title>Node1&#45;&gt;Node20</title>
<g id="a_edge27_Node000001_Node000020"><a xlink:title=" ">
<path fill="none" stroke="#63b8ff" d="M44.91,-446.23C49.8,-496.15 74.4,-723.04 122,-771.5 124.9,-774.45 128.19,-776.97 131.73,-779.12"/>
<polygon fill="#63b8ff" stroke="#63b8ff" points="130.46,-782.39 140.97,-783.72 133.58,-776.13 130.46,-782.39"/>
</a>
</g>
</g>
<!-- Node21 -->
<g id="Node000021" class="node">
<title>Node21</title>
<g id="a_Node000021"><a xlink:href="render__courses_8c.html#a50ec6c5006a884d2e58663999057bb5a" target="_top" xlink:title=" ">
<polygon fill="white" stroke="#666666" points="267,-354 130,-354 130,-335 267,-335 267,-354"/>
<text text-anchor="middle" x="198.5" y="-342" font-family="Helvetica,sans-Serif" font-size="10.00">render_frappe_snowland</text>
</a>
</g>
</g>
<!-- Node1&#45;&gt;Node21 -->
<g id="edge29_Node000001_Node000021" class="edge">
<title>Node1&#45;&gt;Node21</title>
<g id="a_edge29_Node000001_Node000021"><a xlink:title=" ">
<path fill="none" stroke="#63b8ff" d="M51.26,-426.89C63.84,-410.95 91.31,-379.13 122,-362.5 125.43,-360.64 129.06,-358.97 132.79,-357.47"/>
<polygon fill="#63b8ff" stroke="#63b8ff" points="133.98,-360.76 142.21,-354.09 131.62,-354.17 133.98,-360.76"/>
</a>
</g>
</g>
<!-- Node22 -->
<g id="Node000022" class="node">
<title>Node22</title>
<g id="a_Node000022"><a xlink:href="render__courses_8c.html#adfb1515e3d4215d1be339ed41f86bed5" target="_top" xlink:title=" ">
<polygon fill="white" stroke="#666666" points="263,-539 134,-539 134,-520 263,-520 263,-539"/>
<text text-anchor="middle" x="198.5" y="-527" font-family="Helvetica,sans-Serif" font-size="10.00">render_kalimari_desert</text>
</a>
</g>
</g>
<!-- Node1&#45;&gt;Node22 -->
<g id="edge32_Node000001_Node000022" class="edge">
<title>Node1&#45;&gt;Node22</title>
<g id="a_edge32_Node000001_Node000022"><a xlink:title=" ">
<path fill="none" stroke="#63b8ff" d="M51.28,-446.06C63.89,-461.95 91.41,-493.68 122,-510.5 126.15,-512.78 130.58,-514.79 135.13,-516.57"/>
<polygon fill="#63b8ff" stroke="#63b8ff" points="134,-519.88 144.6,-519.89 136.32,-513.28 134,-519.88"/>
</a>
</g>
</g>
<!-- Node23 -->
<g id="Node000023" class="node">
<title>Node23</title>
<g id="a_Node000023"><a xlink:href="render__courses_8c.html#ad9249651e952db9fc1a120dccdaa213c" target="_top" xlink:title=" ">
<polygon fill="white" stroke="#666666" points="258,-316.5 139,-316.5 139,-286.5 258,-286.5 258,-316.5"/>
<text text-anchor="start" x="147" y="-304.5" font-family="Helvetica,sans-Serif" font-size="10.00">render_koopa_troopa</text>
<text text-anchor="middle" x="198.5" y="-293.5" font-family="Helvetica,sans-Serif" font-size="10.00">_beach</text>
</a>
</g>
</g>
<!-- Node1&#45;&gt;Node23 -->
<g id="edge36_Node000001_Node000023" class="edge">
<title>Node1&#45;&gt;Node23</title>
<g id="a_edge36_Node000001_Node000023"><a xlink:title=" ">
<path fill="none" stroke="#63b8ff" d="M48.11,-426.89C57.78,-405.44 84.02,-353.37 122,-325.5 124.47,-323.69 127.08,-322.01 129.79,-320.45"/>
<polygon fill="#63b8ff" stroke="#63b8ff" points="131.41,-323.56 138.73,-315.9 128.24,-317.32 131.41,-323.56"/>
</a>
</g>
</g>
<!-- Node24 -->
<g id="Node000024" class="node">
<title>Node24</title>
<g id="a_Node000024"><a xlink:href="render__courses_8c.html#a8702de1019e0656bf3a53dc4193b8c1b" target="_top" xlink:title=" ">
<polygon fill="white" stroke="#666666" points="259,-83 138,-83 138,-64 259,-64 259,-83"/>
<text text-anchor="middle" x="198.5" y="-71" font-family="Helvetica,sans-Serif" font-size="10.00">render_luigi_raceway</text>
</a>
</g>
</g>
<!-- Node1&#45;&gt;Node24 -->
<g id="edge39_Node000001_Node000024" class="edge">
<title>Node1&#45;&gt;Node24</title>
<g id="a_edge39_Node000001_Node000024"><a xlink:title=" ">
<path fill="none" stroke="#63b8ff" d="M44.83,-426.81C49.36,-376.05 72.79,-141.29 122,-91.5 124.13,-89.34 126.47,-87.43 128.97,-85.73"/>
<polygon fill="#63b8ff" stroke="#63b8ff" points="130.93,-88.64 137.97,-80.73 127.53,-82.52 130.93,-88.64"/>
</a>
</g>
</g>
<!-- Node26 -->
<g id="Node000026" class="node">
<title>Node26</title>
<g id="a_Node000026"><a xlink:href="render__courses_8c.html#ae5d8d5cab3be4c4409c0b5f71a8a2fd5" target="_top" xlink:title=" ">
<polygon fill="white" stroke="#666666" points="262.5,-46 134.5,-46 134.5,-27 262.5,-27 262.5,-46"/>
<text text-anchor="middle" x="198.5" y="-34" font-family="Helvetica,sans-Serif" font-size="10.00">render_mario_raceway</text>
</a>
</g>
</g>
<!-- Node1&#45;&gt;Node26 -->
<g id="edge43_Node000001_Node000026" class="edge">
<title>Node1&#45;&gt;Node26</title>
<g id="a_edge43_Node000001_Node000026"><a xlink:title=" ">
<path fill="none" stroke="#63b8ff" d="M44.6,-426.86C48.13,-373.06 67.98,-110.31 122,-54.5 123.22,-53.24 124.52,-52.05 125.88,-50.95"/>
<polygon fill="#63b8ff" stroke="#63b8ff" points="127.83,-53.85 134.24,-45.42 123.97,-48.01 127.83,-53.85"/>
</a>
</g>
</g>
<!-- Node29 -->
<g id="Node000029" class="node">
<title>Node29</title>
<g id="a_Node000029"><a xlink:href="render__courses_8c.html#a75903cd844fb9078bdce7e82e3d59776" target="_top" xlink:title=" ">
<polygon fill="white" stroke="#666666" points="264,-650 133,-650 133,-631 264,-631 264,-650"/>
<text text-anchor="middle" x="198.5" y="-638" font-family="Helvetica,sans-Serif" font-size="10.00">render_moo_moo_farm</text>
</a>
</g>
</g>
<!-- Node1&#45;&gt;Node29 -->
<g id="edge48_Node000001_Node000029" class="edge">
<title>Node1&#45;&gt;Node29</title>
<g id="a_edge48_Node000001_Node000029"><a xlink:title=" ">
<path fill="none" stroke="#63b8ff" d="M45.09,-446.31C49.07,-477.19 65.66,-573.15 122,-621.5 123.97,-623.19 126.08,-624.74 128.28,-626.15"/>
<polygon fill="#63b8ff" stroke="#63b8ff" points="126.75,-629.3 137.21,-630.96 130.06,-623.14 126.75,-629.3"/>
</a>
</g>
</g>
<!-- Node30 -->
<g id="Node000030" class="node">
<title>Node30</title>
<g id="a_Node000030"><a xlink:href="render__courses_8c.html#ae210e2fd9803f318bc80bd382c6ae064" target="_top" xlink:title=" ">
<polygon fill="white" stroke="#666666" points="258,-268 139,-268 139,-249 258,-249 258,-268"/>
<text text-anchor="middle" x="198.5" y="-256" font-family="Helvetica,sans-Serif" font-size="10.00">render_rainbow_road</text>
</a>
</g>
</g>
<!-- Node1&#45;&gt;Node30 -->
<g id="edge51_Node000001_Node000030" class="edge">
<title>Node1&#45;&gt;Node30</title>
<g id="a_edge51_Node000001_Node000030"><a xlink:title=" ">
<path fill="none" stroke="#63b8ff" d="M45.79,-426.88C51.48,-399.1 71.82,-318.13 122,-277.5 124.44,-275.52 127.06,-273.75 129.81,-272.15"/>
<polygon fill="#63b8ff" stroke="#63b8ff" points="131.52,-275.21 138.95,-267.66 128.43,-268.93 131.52,-275.21"/>
</a>
</g>
</g>
<!-- Node31 -->
<g id="Node000031" class="node">
<title>Node31</title>
<g id="a_Node000031"><a xlink:href="render__courses_8c.html#af2e49ecda77989002c880514dc7048cf" target="_top" xlink:title=" ">
<polygon fill="white" stroke="#666666" points="261,-194 136,-194 136,-175 261,-175 261,-194"/>
<text text-anchor="middle" x="198.5" y="-182" font-family="Helvetica,sans-Serif" font-size="10.00">render_royal_raceway</text>
</a>
</g>
</g>
<!-- Node1&#45;&gt;Node31 -->
<g id="edge52_Node000001_Node000031" class="edge">
<title>Node1&#45;&gt;Node31</title>
<g id="a_edge52_Node000001_Node000031"><a xlink:title=" ">
<path fill="none" stroke="#63b8ff" d="M44.1,-426.73C45,-390.91 53.16,-265.55 122,-202.5 123.53,-201.1 125.14,-199.8 126.83,-198.6"/>
<polygon fill="#63b8ff" stroke="#63b8ff" points="128.94,-201.43 135.81,-193.37 125.41,-195.38 128.94,-201.43"/>
</a>
</g>
</g>
<!-- Node32 -->
<g id="Node000032" class="node">
<title>Node32</title>
<g id="a_Node000032"><a xlink:href="render__courses_8c.html#a0d00cac54cab827a10db0da31ef544fe" target="_top" xlink:title=" ">
<polygon fill="white" stroke="#666666" points="256.5,-428 140.5,-428 140.5,-409 256.5,-409 256.5,-428"/>
<text text-anchor="middle" x="198.5" y="-416" font-family="Helvetica,sans-Serif" font-size="10.00">render_sherbet_land</text>
</a>
</g>
</g>
<!-- Node1&#45;&gt;Node32 -->
<g id="edge55_Node000001_Node000032" class="edge">
<title>Node1&#45;&gt;Node32</title>
<g id="a_edge55_Node000001_Node000032"><a xlink:title=" ">
<path fill="none" stroke="#63b8ff" d="M86.35,-431.53C99.91,-429.94 115.27,-428.14 130.15,-426.4"/>
<polygon fill="#63b8ff" stroke="#63b8ff" points="130.82,-429.84 140.35,-425.2 130.01,-422.89 130.82,-429.84"/>
</a>
</g>
</g>
<!-- Node33 -->
<g id="Node000033" class="node">
<title>Node33</title>
<g id="a_Node000033"><a xlink:href="render__courses_8c.html#ae011ede59d279d8a45115114099b1cda" target="_top" xlink:title=" ">
<polygon fill="white" stroke="#666666" points="251.5,-763 145.5,-763 145.5,-744 251.5,-744 251.5,-763"/>
<text text-anchor="middle" x="198.5" y="-751" font-family="Helvetica,sans-Serif" font-size="10.00">render_skyscraper</text>
</a>
</g>
</g>
<!-- Node1&#45;&gt;Node33 -->
<g id="edge57_Node000001_Node000033" class="edge">
<title>Node1&#45;&gt;Node33</title>
<g id="a_edge57_Node000001_Node000033"><a xlink:title=" ">
<path fill="none" stroke="#63b8ff" d="M43.49,-446.16C41.92,-486.69 41.36,-644.92 122,-729.5 126.07,-733.77 130.9,-737.29 136.12,-740.18"/>
<polygon fill="#63b8ff" stroke="#63b8ff" points="134.67,-743.36 145.21,-744.48 137.66,-737.04 134.67,-743.36"/>
</a>
</g>
</g>
<!-- Node34 -->
<g id="Node000034" class="node">
<title>Node34</title>
<g id="a_Node000034"><a xlink:href="render__courses_8c.html#a3417f892714e4a942ead28c38f5000be" target="_top" xlink:title=" ">
<polygon fill="white" stroke="#666666" points="261,-576 136,-576 136,-557 261,-557 261,-576"/>
<text text-anchor="middle" x="198.5" y="-564" font-family="Helvetica,sans-Serif" font-size="10.00">render_toads_turnpike</text>
</a>
</g>
</g>
<!-- Node1&#45;&gt;Node34 -->
<g id="edge59_Node000001_Node000034" class="edge">
<title>Node1&#45;&gt;Node34</title>
<g id="a_edge59_Node000001_Node000034"><a xlink:title=" ">
<path fill="none" stroke="#63b8ff" d="M47.99,-446.28C57.41,-468.07 83.19,-520.81 122,-547.5 124.93,-549.51 128.05,-551.31 131.3,-552.92"/>
<polygon fill="#63b8ff" stroke="#63b8ff" points="130.15,-556.24 140.72,-556.98 132.92,-549.81 130.15,-556.24"/>
</a>
</g>
</g>
<!-- Node35 -->
<g id="Node000035" class="node">
<title>Node35</title>
<g id="a_Node000035"><a xlink:href="render__courses_8c.html#a26b0a13eb037fdface2b87be1006fade" target="_top" xlink:title=" ">
<polygon fill="white" stroke="#666666" points="261,-120 136,-120 136,-101 261,-101 261,-120"/>
<text text-anchor="middle" x="198.5" y="-108" font-family="Helvetica,sans-Serif" font-size="10.00">render_wario_stadium</text>
</a>
</g>
</g>
<!-- Node1&#45;&gt;Node35 -->
<g id="edge62_Node000001_Node000035" class="edge">
<title>Node1&#45;&gt;Node35</title>
<g id="a_edge62_Node000001_Node000035"><a xlink:title=" ">
<path fill="none" stroke="#63b8ff" d="M45.1,-426.92C50.69,-379.71 77.52,-172.36 122,-128.5 123.64,-126.89 125.39,-125.41 127.24,-124.05"/>
<polygon fill="#63b8ff" stroke="#63b8ff" points="129.1,-127.02 135.88,-118.87 125.5,-121.01 129.1,-127.02"/>
</a>
</g>
</g>
<!-- Node36 -->
<g id="Node000036" class="node">
<title>Node36</title>
<g id="a_Node000036"><a xlink:href="render__courses_8c.html#a3e710f2cc6924d569ae784d26e8a9713" target="_top" xlink:title=" ">
<polygon fill="white" stroke="#666666" points="256,-465 141,-465 141,-446 256,-446 256,-465"/>
<text text-anchor="middle" x="198.5" y="-453" font-family="Helvetica,sans-Serif" font-size="10.00">render_yoshi_valley</text>
</a>
</g>
</g>
<!-- Node1&#45;&gt;Node36 -->
<g id="edge66_Node000001_Node000036" class="edge">
<title>Node1&#45;&gt;Node36</title>
<g id="a_edge66_Node000001_Node000036"><a xlink:title=" ">
<path fill="none" stroke="#63b8ff" d="M86.35,-441.74C100.05,-443.44 115.59,-445.36 130.62,-447.22"/>
<polygon fill="#63b8ff" stroke="#63b8ff" points="130.56,-450.74 140.92,-448.5 131.42,-443.79 130.56,-450.74"/>
</a>
</g>
</g>
<!-- Node3 -->
<g id="Node000003" class="node">
<title>Node3</title>
<g id="a_Node000003"><a xlink:href="math__util_8c.html#a3011787ec4cef98a1827460577d8eb56" target="_top" xlink:title=" ">
<polygon fill="white" stroke="#666666" points="425,-855 336,-855 336,-836 425,-836 425,-855"/>
<text text-anchor="middle" x="380.5" y="-843" font-family="Helvetica,sans-Serif" font-size="10.00">mtxf_translate</text>
</a>
</g>
</g>
<!-- Node2&#45;&gt;Node3 -->
<g id="edge2_Node000002_Node000003" class="edge">
<title>Node2&#45;&gt;Node3</title>
<g id="a_edge2_Node000002_Node000003"><a xlink:title=" ">
<path fill="none" stroke="#63b8ff" d="M274.01,-834.95C291.31,-836.68 309.39,-838.49 325.6,-840.11"/>
<polygon fill="#63b8ff" stroke="#63b8ff" points="325.66,-843.63 335.95,-841.15 326.35,-836.67 325.66,-843.63"/>
</a>
</g>
</g>
<!-- Node5 -->
<g id="Node000005" class="node">
<title>Node5</title>
<g id="a_Node000005"><a xlink:href="render__courses_8c.html#ac4970639317ed23a7ac110f490b6650f" target="_top" xlink:title=" ">
<polygon fill="white" stroke="#666666" points="450,-354 311,-354 311,-335 450,-335 450,-354"/>
<text text-anchor="middle" x="380.5" y="-342" font-family="Helvetica,sans-Serif" font-size="10.00">render_course_segments</text>
</a>
</g>
</g>
<!-- Node2&#45;&gt;Node5 -->
<g id="edge4_Node000002_Node000005" class="edge">
<title>Node2&#45;&gt;Node5</title>
<g id="a_edge4_Node000002_Node000005"><a xlink:title=" ">
<path fill="none" stroke="#63b8ff" d="M264.22,-817.84C268.18,-815.56 271.83,-812.81 275,-809.5 333.79,-748.01 292.78,-704.6 311,-621.5 332.32,-524.25 362.38,-408.98 374.32,-363.92"/>
<polygon fill="#63b8ff" stroke="#63b8ff" points="377.76,-364.59 376.95,-354.03 371,-362.79 377.76,-364.59"/>
</a>
</g>
</g>
<!-- Node7 -->
<g id="Node000007" class="node">
<title>Node7</title>
<g id="a_Node000007"><a xlink:href="math__util_8c.html#a37b6e37ab5d04e0e2701015911b05296" target="_top" xlink:title=" ">
<polygon fill="white" stroke="#666666" points="437,-818 324,-818 324,-799 437,-799 437,-818"/>
<text text-anchor="middle" x="380.5" y="-806" font-family="Helvetica,sans-Serif" font-size="10.00">render_set_position</text>
</a>
</g>
</g>
<!-- Node2&#45;&gt;Node7 -->
<g id="edge6_Node000002_Node000007" class="edge">
<title>Node2&#45;&gt;Node7</title>
<g id="a_edge6_Node000002_Node000007"><a xlink:title=" ">
<path fill="none" stroke="#63b8ff" d="M274.01,-819.63C287.14,-818.25 300.72,-816.82 313.59,-815.46"/>
<polygon fill="#63b8ff" stroke="#63b8ff" points="314.16,-818.92 323.74,-814.39 313.42,-811.96 314.16,-818.92"/>
</a>
</g>
</g>
<!-- Node4 -->
<g id="Node000004" class="node">
<title>Node4</title>
<g id="a_Node000004"><a xlink:href="math__util_8c.html#ac22eee16b1def67d2441ce919df0c5ac" target="_top" xlink:title=" ">
<polygon fill="white" stroke="#666666" points="586,-855 503,-855 503,-836 586,-836 586,-855"/>
<text text-anchor="middle" x="544.5" y="-843" font-family="Helvetica,sans-Serif" font-size="10.00">mtxf_identity</text>
</a>
</g>
</g>
<!-- Node3&#45;&gt;Node4 -->
<g id="edge3_Node000003_Node000004" class="edge">
<title>Node3&#45;&gt;Node4</title>
<g id="a_edge3_Node000003_Node000004"><a xlink:title=" ">
<path fill="none" stroke="#63b8ff" d="M425.34,-845.5C446.21,-845.5 471.28,-845.5 492.95,-845.5"/>
<polygon fill="#63b8ff" stroke="#63b8ff" points="492.96,-849 502.96,-845.5 492.96,-842 492.96,-849"/>
</a>
</g>
</g>
<!-- Node6 -->
<g id="Node000006" class="node">
<title>Node6</title>
<g id="a_Node000006"><a xlink:href="collision_8c.html#a053809031f467d0a6747788211e0ec69" target="_top" xlink:title=" ">
<polygon fill="white" stroke="#666666" points="603,-354 486,-354 486,-335 603,-335 603,-354"/>
<text text-anchor="middle" x="544.5" y="-342" font-family="Helvetica,sans-Serif" font-size="10.00">get_track_section_id</text>
</a>
</g>
</g>
<!-- Node5&#45;&gt;Node6 -->
<g id="edge5_Node000005_Node000006" class="edge">
<title>Node5&#45;&gt;Node6</title>
<g id="a_edge5_Node000005_Node000006"><a xlink:title=" ">
<path fill="none" stroke="#63b8ff" d="M450.2,-344.5C458.66,-344.5 467.31,-344.5 475.75,-344.5"/>
<polygon fill="#63b8ff" stroke="#63b8ff" points="475.93,-348 485.93,-344.5 475.93,-341 475.93,-348"/>
</a>
</g>
</g>
<!-- Node8 -->
<g id="Node000008" class="node">
<title>Node8</title>
<g id="a_Node000008"><a xlink:href="math__util_8c.html#a32af0f217114736291c9ca6689138b81" target="_top" xlink:title=" ">
<polygon fill="white" stroke="#666666" points="584.5,-818 504.5,-818 504.5,-799 584.5,-799 584.5,-818"/>
<text text-anchor="middle" x="544.5" y="-806" font-family="Helvetica,sans-Serif" font-size="10.00">mtxf_to_mtx</text>
</a>
</g>
</g>
<!-- Node7&#45;&gt;Node8 -->
<g id="edge7_Node000007_Node000008" class="edge">
<title>Node7&#45;&gt;Node8</title>
<g id="a_edge7_Node000007_Node000008"><a xlink:title=" ">
<path fill="none" stroke="#63b8ff" d="M437.25,-808.5C455.61,-808.5 475.9,-808.5 493.78,-808.5"/>
<polygon fill="#63b8ff" stroke="#63b8ff" points="494,-812 504,-808.5 494,-805 494,-812"/>
</a>
</g>
</g>
<!-- Node9 -->
<g id="Node000009" class="node">
<title>Node9</title>
<g id="a_Node000009"><a xlink:href="guMtxF2L_8c.html#a40ab2d64c609839ff1e0ef0de2d0dcc4" target="_top" xlink:title=" ">
<polygon fill="white" stroke="#666666" points="704,-818 639,-818 639,-799 704,-799 704,-818"/>
<text text-anchor="middle" x="671.5" y="-806" font-family="Helvetica,sans-Serif" font-size="10.00">guMtxF2L</text>
</a>
</g>
</g>
<!-- Node8&#45;&gt;Node9 -->
<g id="edge8_Node000008_Node000009" class="edge">
<title>Node8&#45;&gt;Node9</title>
<g id="a_edge8_Node000008_Node000009"><a xlink:title=" ">
<path fill="none" stroke="#63b8ff" d="M584.71,-808.5C598.77,-808.5 614.66,-808.5 628.91,-808.5"/>
<polygon fill="#63b8ff" stroke="#63b8ff" points="628.95,-812 638.95,-808.5 628.95,-805 628.95,-812"/>
</a>
</g>
</g>
<!-- Node11 -->
<g id="Node000011" class="node">
<title>Node11</title>
<g id="a_Node000011"><a xlink:href="render__courses_8c.html#a9a9119b96bf015cf8b5a168485f67e3f" target="_top" xlink:title=" ">
<polygon fill="white" stroke="#666666" points="426.5,-231 334.5,-231 334.5,-212 426.5,-212 426.5,-231"/>
<text text-anchor="middle" x="380.5" y="-219" font-family="Helvetica,sans-Serif" font-size="10.00">func_80290C20</text>
</a>
</g>
</g>
<!-- Node10&#45;&gt;Node11 -->
<g id="edge10_Node000010_Node000011" class="edge">
<title>Node10&#45;&gt;Node11</title>
<g id="a_edge10_Node000010_Node000011"><a xlink:title=" ">
<path fill="none" stroke="#63b8ff" d="M249.1,-374.2C258.19,-371.46 267.25,-367.69 275,-362.5 299.42,-346.16 346.36,-274.41 368.02,-240.01"/>
<polygon fill="#63b8ff" stroke="#63b8ff" points="371.09,-241.72 373.42,-231.38 365.15,-238 371.09,-241.72"/>
</a>
</g>
</g>
<!-- Node10&#45;&gt;Node12 -->
<g id="edge11_Node000010_Node000012" class="edge">
<title>Node10&#45;&gt;Node12</title>
<g id="a_edge11_Node000010_Node000012"><a xlink:title=" ">
<path fill="none" stroke="#63b8ff" d="M249.31,-386.48C258.6,-389.23 267.67,-393.35 275,-399.5 345.7,-458.79 369.92,-574.89 376.97,-620.97"/>
<polygon fill="#63b8ff" stroke="#63b8ff" points="373.5,-621.47 378.38,-630.87 380.43,-620.48 373.5,-621.47"/>
</a>
</g>
</g>
<!-- Node13 -->
<g id="Node000013" class="node">
<title>Node13</title>
<g id="a_Node000013"><a xlink:href="math__util_8c.html#a5eb0d9752bc1557b7f4ae3809352a0eb" target="_top" xlink:title=" ">
<polygon fill="white" stroke="#666666" points="563.5,-631 525.5,-631 525.5,-612 563.5,-612 563.5,-631"/>
<text text-anchor="middle" x="544.5" y="-619" font-family="Helvetica,sans-Serif" font-size="10.00">coss</text>
</a>
</g>
</g>
<!-- Node12&#45;&gt;Node13 -->
<g id="edge12_Node000012_Node000013" class="edge">
<title>Node12&#45;&gt;Node13</title>
<g id="a_edge12_Node000012_Node000013"><a xlink:title=" ">
<path fill="none" stroke="#63b8ff" d="M436.35,-634.07C462.73,-630.97 493.26,-627.39 514.97,-624.85"/>
<polygon fill="#63b8ff" stroke="#63b8ff" points="515.63,-628.29 525.15,-623.65 514.81,-621.34 515.63,-628.29"/>
</a>
</g>
</g>
<!-- Node14 -->
<g id="Node000014" class="node">
<title>Node14</title>
<g id="a_Node000014"><a xlink:href="math__util_8c.html#adcf81d47666b5d86c4a1dbcb06e47faf" target="_top" xlink:title=" ">
<polygon fill="white" stroke="#666666" points="562.5,-668 526.5,-668 526.5,-649 562.5,-649 562.5,-668"/>
<text text-anchor="middle" x="544.5" y="-656" font-family="Helvetica,sans-Serif" font-size="10.00">sins</text>
</a>
</g>
</g>
<!-- Node12&#45;&gt;Node14 -->
<g id="edge13_Node000012_Node000014" class="edge">
<title>Node12&#45;&gt;Node14</title>
<g id="a_edge13_Node000012_Node000014"><a xlink:title=" ">
<path fill="none" stroke="#63b8ff" d="M436.35,-646.59C463.2,-649.58 494.35,-653.04 516.12,-655.46"/>
<polygon fill="#63b8ff" stroke="#63b8ff" points="515.96,-658.96 526.29,-656.59 516.74,-652 515.96,-658.96"/>
</a>
</g>
</g>
<!-- Node15&#45;&gt;Node12 -->
<g id="edge15_Node000015_Node000012" class="edge">
<title>Node15&#45;&gt;Node12</title>
<g id="a_edge15_Node000015_Node000012"><a xlink:title=" ">
<path fill="none" stroke="#63b8ff" d="M245.85,-667.97C269.38,-663.14 298.16,-657.22 322.98,-652.12"/>
<polygon fill="#63b8ff" stroke="#63b8ff" points="323.9,-655.5 332.99,-650.06 322.49,-648.65 323.9,-655.5"/>
</a>
</g>
</g>
<!-- Node16&#45;&gt;Node5 -->
<g id="edge18_Node000016_Node000005" class="edge">
<title>Node16&#45;&gt;Node5</title>
<g id="a_edge18_Node000016_Node000005"><a xlink:title=" ">
<path fill="none" stroke="#63b8ff" d="M261.07,-157.12C266.06,-159.37 270.8,-162.13 275,-165.5 303.53,-188.38 292.97,-207.68 311,-239.5 328.86,-271.03 352.47,-305.96 366.79,-326.53"/>
<polygon fill="#63b8ff" stroke="#63b8ff" points="364.05,-328.73 372.66,-334.91 369.78,-324.71 364.05,-328.73"/>
</a>
</g>
</g>
<!-- Node16&#45;&gt;Node11 -->
<g id="edge17_Node000016_Node000011" class="edge">
<title>Node16&#45;&gt;Node11</title>
<g id="a_edge17_Node000016_Node000011"><a xlink:title=" ">
<path fill="none" stroke="#63b8ff" d="M247.99,-157.1C257.09,-159.45 266.43,-162.25 275,-165.5 304.03,-176.53 335.15,-194.01 355.8,-206.51"/>
<polygon fill="#63b8ff" stroke="#63b8ff" points="354.16,-209.61 364.51,-211.86 357.82,-203.64 354.16,-209.61"/>
</a>
</g>
</g>
<!-- Node17&#45;&gt;Node5 -->
<g id="edge21_Node000017_Node000005" class="edge">
<title>Node17&#45;&gt;Node5</title>
<g id="a_edge21_Node000017_Node000005"><a xlink:title=" ">
<path fill="none" stroke="#63b8ff" d="M255.28,-231.05C262.14,-233.3 268.89,-236.07 275,-239.5 314.59,-261.69 349.25,-303.18 366.97,-326.82"/>
<polygon fill="#63b8ff" stroke="#63b8ff" points="364.17,-328.92 372.9,-334.92 369.82,-324.79 364.17,-328.92"/>
</a>
</g>
</g>
<!-- Node17&#45;&gt;Node11 -->
<g id="edge20_Node000017_Node000011" class="edge">
<title>Node17&#45;&gt;Node11</title>
<g id="a_edge20_Node000017_Node000011"><a xlink:title=" ">
<path fill="none" stroke="#63b8ff" d="M265.5,-221.5C284.81,-221.5 305.7,-221.5 324.26,-221.5"/>
<polygon fill="#63b8ff" stroke="#63b8ff" points="324.3,-225 334.3,-221.5 324.3,-218 324.3,-225"/>
</a>
</g>
</g>
<!-- Node19&#45;&gt;Node5 -->
<g id="edge25_Node000019_Node000005" class="edge">
<title>Node19&#45;&gt;Node5</title>
<g id="a_edge25_Node000019_Node000005"><a xlink:title=" ">
<path fill="none" stroke="#63b8ff" d="M255.24,-482.88C262.19,-480.43 268.96,-477.36 275,-473.5 319.55,-445.06 353.9,-391.17 369.8,-362.89"/>
<polygon fill="#63b8ff" stroke="#63b8ff" points="372.91,-364.49 374.64,-354.03 366.77,-361.13 372.91,-364.49"/>
</a>
</g>
</g>
<!-- Node19&#45;&gt;Node11 -->
<g id="edge24_Node000019_Node000011" class="edge">
<title>Node19&#45;&gt;Node11</title>
<g id="a_edge24_Node000019_Node000011"><a xlink:title=" ">
<path fill="none" stroke="#63b8ff" d="M261.91,-482.94C266.73,-480.44 271.19,-477.34 275,-473.5 322.68,-425.44 283.98,-387.57 311,-325.5 325.28,-292.69 349.73,-258.83 365.23,-239"/>
<polygon fill="#63b8ff" stroke="#63b8ff" points="367.97,-241.17 371.46,-231.16 362.49,-236.81 367.97,-241.17"/>
</a>
</g>
</g>
<!-- Node19&#45;&gt;Node12 -->
<g id="edge26_Node000019_Node000012" class="edge">
<title>Node19&#45;&gt;Node12</title>
<g id="a_edge26_Node000019_Node000012"><a xlink:title=" ">
<path fill="none" stroke="#63b8ff" d="M257.6,-502.13C263.72,-504.37 269.65,-507.12 275,-510.5 319.88,-538.88 354.08,-593.31 369.88,-621.9"/>
<polygon fill="#63b8ff" stroke="#63b8ff" points="366.87,-623.7 374.68,-630.85 373.04,-620.39 366.87,-623.7"/>
</a>
</g>
</g>
<!-- Node20&#45;&gt;Node12 -->
<g id="edge28_Node000020_Node000012" class="edge">
<title>Node20&#45;&gt;Node12</title>
<g id="a_edge28_Node000020_Node000012"><a xlink:title=" ">
<path fill="none" stroke="#63b8ff" d="M255.27,-780.92C262.21,-778.46 268.98,-775.38 275,-771.5 319.86,-742.62 354.07,-687.9 369.87,-659.17"/>
<polygon fill="#63b8ff" stroke="#63b8ff" points="373.05,-660.65 374.68,-650.18 366.88,-657.35 373.05,-660.65"/>
</a>
</g>
</g>
<!-- Node21&#45;&gt;Node5 -->
<g id="edge31_Node000021_Node000005" class="edge">
<title>Node21&#45;&gt;Node5</title>
<g id="a_edge31_Node000021_Node000005"><a xlink:title=" ">
<path fill="none" stroke="#63b8ff" d="M267.04,-344.5C278.04,-344.5 289.51,-344.5 300.75,-344.5"/>
<polygon fill="#63b8ff" stroke="#63b8ff" points="300.98,-348 310.98,-344.5 300.98,-341 300.98,-348"/>
</a>
</g>
</g>
<!-- Node21&#45;&gt;Node11 -->
<g id="edge30_Node000021_Node000011" class="edge">
<title>Node21&#45;&gt;Node11</title>
<g id="a_edge30_Node000021_Node000011"><a xlink:title=" ">
<path fill="none" stroke="#63b8ff" d="M252.88,-334.91C260.57,-332.45 268.18,-329.36 275,-325.5 314.11,-303.38 348.73,-262.68 366.62,-239.29"/>
<polygon fill="#63b8ff" stroke="#63b8ff" points="369.45,-241.36 372.63,-231.25 363.84,-237.17 369.45,-241.36"/>
</a>
</g>
</g>
<!-- Node22&#45;&gt;Node5 -->
<g id="edge34_Node000022_Node000005" class="edge">
<title>Node22&#45;&gt;Node5</title>
<g id="a_edge34_Node000022_Node000005"><a xlink:title=" ">
<path fill="none" stroke="#63b8ff" d="M257.25,-519.95C263.57,-517.49 269.64,-514.39 275,-510.5 327.7,-472.25 359.98,-398.53 372.94,-363.66"/>
<polygon fill="#63b8ff" stroke="#63b8ff" points="376.26,-364.77 376.34,-354.17 369.67,-362.4 376.26,-364.77"/>
</a>
</g>
</g>
<!-- Node22&#45;&gt;Node11 -->
<g id="edge33_Node000022_Node000011" class="edge">
<title>Node22&#45;&gt;Node11</title>
<g id="a_edge33_Node000022_Node000011"><a xlink:title=" ">
<path fill="none" stroke="#63b8ff" d="M262.46,-519.94C267.1,-517.43 271.38,-514.33 275,-510.5 332.6,-449.68 279.36,-403.06 311,-325.5 324.52,-292.37 349.19,-258.61 364.94,-238.88"/>
<polygon fill="#63b8ff" stroke="#63b8ff" points="367.68,-241.05 371.28,-231.09 362.25,-236.63 367.68,-241.05"/>
</a>
</g>
</g>
<!-- Node22&#45;&gt;Node12 -->
<g id="edge35_Node000022_Node000012" class="edge">
<title>Node22&#45;&gt;Node12</title>
<g id="a_edge35_Node000022_Node000012"><a xlink:title=" ">
<path fill="none" stroke="#63b8ff" d="M253.89,-539.03C261.2,-541.29 268.43,-544.07 275,-547.5 312.07,-566.83 346.54,-602.22 365.14,-623.33"/>
<polygon fill="#63b8ff" stroke="#63b8ff" points="362.5,-625.62 371.68,-630.91 367.8,-621.05 362.5,-625.62"/>
</a>
</g>
</g>
<!-- Node23&#45;&gt;Node5 -->
<g id="edge38_Node000023_Node000005" class="edge">
<title>Node23&#45;&gt;Node5</title>
<g id="a_edge38_Node000023_Node000005"><a xlink:title=" ">
<path fill="none" stroke="#63b8ff" d="M258.44,-315.58C281.47,-321.08 307.59,-327.32 329.66,-332.59"/>
<polygon fill="#63b8ff" stroke="#63b8ff" points="328.95,-336.02 339.49,-334.94 330.57,-329.21 328.95,-336.02"/>
</a>
</g>
</g>
<!-- Node23&#45;&gt;Node11 -->
<g id="edge37_Node000023_Node000011" class="edge">
<title>Node23&#45;&gt;Node11</title>
<g id="a_edge37_Node000023_Node000011"><a xlink:title=" ">
<path fill="none" stroke="#63b8ff" d="M249.08,-286.38C257.81,-283.35 266.74,-280.01 275,-276.5 302.98,-264.6 333.61,-248.03 354.43,-236.2"/>
<polygon fill="#63b8ff" stroke="#63b8ff" points="356.33,-239.14 363.26,-231.13 352.84,-233.07 356.33,-239.14"/>
</a>
</g>
</g>
<!-- Node24&#45;&gt;Node5 -->
<g id="edge42_Node000024_Node000005" class="edge">
<title>Node24&#45;&gt;Node5</title>
<g id="a_edge42_Node000024_Node000005"><a xlink:title=" ">
<path fill="none" stroke="#63b8ff" d="M259.32,-80.97C265.13,-83.6 270.51,-87.03 275,-91.5 322.98,-139.26 284.12,-177.37 311,-239.5 325.3,-272.56 349.74,-306.76 365.24,-326.81"/>
<polygon fill="#63b8ff" stroke="#63b8ff" points="362.53,-329.03 371.46,-334.73 368.03,-324.71 362.53,-329.03"/>
</a>
</g>
</g>
<!-- Node24&#45;&gt;Node11 -->
<g id="edge41_Node000024_Node000011" class="edge">
<title>Node24&#45;&gt;Node11</title>
<g id="a_edge41_Node000024_Node000011"><a xlink:title=" ">
<path fill="none" stroke="#63b8ff" d="M257.6,-83.13C263.72,-85.37 269.65,-88.12 275,-91.5 319.88,-119.88 354.08,-174.31 369.88,-202.9"/>
<polygon fill="#63b8ff" stroke="#63b8ff" points="366.87,-204.7 374.68,-211.85 373.04,-201.39 366.87,-204.7"/>
</a>
</g>
</g>
<!-- Node25 -->
<g id="Node000025" class="node">
<title>Node25</title>
<g id="a_Node000025"><a xlink:href="skybox__and__splitscreen_8c.html#a97049ca439feed0c004c1d41f302189e" target="_top" xlink:title=" ">
<polygon fill="white" stroke="#666666" points="432,-111 329,-111 329,-92 432,-92 432,-111"/>
<text text-anchor="middle" x="380.5" y="-99" font-family="Helvetica,sans-Serif" font-size="10.00">copy_framebuffer</text>
</a>
</g>
</g>
<!-- Node24&#45;&gt;Node25 -->
<g id="edge40_Node000024_Node000025" class="edge">
<title>Node24&#45;&gt;Node25</title>
<g id="a_edge40_Node000024_Node000025"><a xlink:title=" ">
<path fill="none" stroke="#63b8ff" d="M259.44,-82.82C278.51,-85.79 299.62,-89.07 318.74,-92.05"/>
<polygon fill="#63b8ff" stroke="#63b8ff" points="318.42,-95.54 328.84,-93.62 319.5,-88.62 318.42,-95.54"/>
</a>
</g>
</g>
<!-- Node26&#45;&gt;Node5 -->
<g id="edge47_Node000026_Node000005" class="edge">
<title>Node26&#45;&gt;Node5</title>
<g id="a_edge47_Node000026_Node000005"><a xlink:title=" ">
<path fill="none" stroke="#63b8ff" d="M262.79,-45.39C267.3,-47.81 271.46,-50.8 275,-54.5 332.98,-114.96 279.53,-161.87 311,-239.5 324.53,-272.88 349.2,-306.99 364.95,-326.93"/>
<polygon fill="#63b8ff" stroke="#63b8ff" points="362.29,-329.21 371.29,-334.8 367.74,-324.82 362.29,-329.21"/>
</a>
</g>
</g>
<!-- Node26&#45;&gt;Node11 -->
<g id="edge44_Node000026_Node000011" class="edge">
<title>Node26&#45;&gt;Node11</title>
<g id="a_edge44_Node000026_Node000011"><a xlink:title=" ">
<path fill="none" stroke="#63b8ff" d="M260.12,-46.03C265.43,-48.29 270.49,-51.08 275,-54.5 301.3,-74.47 293.78,-91.32 311,-119.5 329.42,-149.65 352.68,-183.48 366.81,-203.61"/>
<polygon fill="#63b8ff" stroke="#63b8ff" points="363.98,-205.68 372.6,-211.84 369.7,-201.65 363.98,-205.68"/>
</a>
</g>
</g>
<!-- Node27 -->
<g id="Node000027" class="node">
<title>Node27</title>
<g id="a_Node000027"><a xlink:href="render__courses_8c.html#aee88ee3e4f8a82e2e6135f10370570a4" target="_top" xlink:title=" ">
<polygon fill="white" stroke="#666666" points="426,-56 335,-56 335,-37 426,-37 426,-56"/>
<text text-anchor="middle" x="380.5" y="-44" font-family="Helvetica,sans-Serif" font-size="10.00">func_80291198</text>
</a>
</g>
</g>
<!-- Node26&#45;&gt;Node27 -->
<g id="edge45_Node000026_Node000027" class="edge">
<title>Node26&#45;&gt;Node27</title>
<g id="a_edge45_Node000026_Node000027"><a xlink:title=" ">
<path fill="none" stroke="#63b8ff" d="M262.71,-40.01C282.98,-41.14 305.25,-42.37 324.85,-43.46"/>
<polygon fill="#63b8ff" stroke="#63b8ff" points="324.66,-46.96 334.84,-44.02 325.05,-39.97 324.66,-46.96"/>
</a>
</g>
</g>
<!-- Node28 -->
<g id="Node000028" class="node">
<title>Node28</title>
<g id="a_Node000028"><a xlink:href="render__courses_8c.html#a81294bbba45ac1192a1b2fefc53d3a9f" target="_top" xlink:title=" ">
<polygon fill="white" stroke="#666666" points="426.5,-19 334.5,-19 334.5,0 426.5,0 426.5,-19"/>
<text text-anchor="middle" x="380.5" y="-7" font-family="Helvetica,sans-Serif" font-size="10.00">func_802911C4</text>
</a>
</g>
</g>
<!-- Node26&#45;&gt;Node28 -->
<g id="edge46_Node000026_Node000028" class="edge">
<title>Node26&#45;&gt;Node28</title>
<g id="a_edge46_Node000026_Node000028"><a xlink:title=" ">
<path fill="none" stroke="#63b8ff" d="M262.71,-27.02C282.81,-24 304.87,-20.69 324.35,-17.77"/>
<polygon fill="#63b8ff" stroke="#63b8ff" points="324.91,-21.23 334.28,-16.28 323.87,-14.31 324.91,-21.23"/>
</a>
</g>
</g>
<!-- Node29&#45;&gt;Node5 -->
<g id="edge49_Node000029_Node000005" class="edge">
<title>Node29&#45;&gt;Node5</title>
<g id="a_edge49_Node000029_Node000005"><a xlink:title=" ">
<path fill="none" stroke="#63b8ff" d="M260.32,-630.96C265.65,-628.47 270.66,-625.37 275,-621.5 353.83,-551.2 373.44,-415.28 378.11,-364.38"/>
<polygon fill="#63b8ff" stroke="#63b8ff" points="381.62,-364.36 378.95,-354.11 374.64,-363.79 381.62,-364.36"/>
</a>
</g>
</g>
<!-- Node29&#45;&gt;Node12 -->
<g id="edge50_Node000029_Node000012" class="edge">
<title>Node29&#45;&gt;Node12</title>
<g id="a_edge50_Node000029_Node000012"><a xlink:title=" ">
<path fill="none" stroke="#63b8ff" d="M264.23,-640.5C280.67,-640.5 298.34,-640.5 314.78,-640.5"/>
<polygon fill="#63b8ff" stroke="#63b8ff" points="314.84,-644 324.84,-640.5 314.84,-637 314.84,-644"/>
</a>
</g>
</g>
<!-- Node31&#45;&gt;Node5 -->
<g id="edge54_Node000031_Node000005" class="edge">
<title>Node31&#45;&gt;Node5</title>
<g id="a_edge54_Node000031_Node000005"><a xlink:title=" ">
<path fill="none" stroke="#63b8ff" d="M258.13,-194.05C264.09,-196.3 269.83,-199.08 275,-202.5 299.72,-218.88 346.89,-291.83 368.36,-326.32"/>
<polygon fill="#63b8ff" stroke="#63b8ff" points="365.46,-328.28 373.7,-334.95 371.42,-324.6 365.46,-328.28"/>
</a>
</g>
</g>
<!-- Node31&#45;&gt;Node11 -->
<g id="edge53_Node000031_Node000011" class="edge">
<title>Node31&#45;&gt;Node11</title>
<g id="a_edge53_Node000031_Node000011"><a xlink:title=" ">
<path fill="none" stroke="#63b8ff" d="M245.85,-194.03C269.75,-198.94 299.06,-204.97 324.14,-210.12"/>
<polygon fill="#63b8ff" stroke="#63b8ff" points="323.74,-213.61 334.24,-212.2 325.15,-206.75 323.74,-213.61"/>
</a>
</g>
</g>
<!-- Node32&#45;&gt;Node5 -->
<g id="edge56_Node000032_Node000005" class="edge">
<title>Node32&#45;&gt;Node5</title>
<g id="a_edge56_Node000032_Node000005"><a xlink:title=" ">
<path fill="none" stroke="#63b8ff" d="M244.76,-408.97C254.85,-406.34 265.41,-403.17 275,-399.5 303.73,-388.51 334.67,-371.51 355.37,-359.32"/>
<polygon fill="#63b8ff" stroke="#63b8ff" points="357.32,-362.23 364.11,-354.1 353.73,-356.22 357.32,-362.23"/>
</a>
</g>
</g>
<!-- Node33&#45;&gt;Node12 -->
<g id="edge58_Node000033_Node000012" class="edge">
<title>Node33&#45;&gt;Node12</title>
<g id="a_edge58_Node000033_Node000012"><a xlink:title=" ">
<path fill="none" stroke="#63b8ff" d="M239.91,-743.89C251.63,-740.26 264.18,-735.51 275,-729.5 310.16,-709.99 344.38,-677.53 363.61,-657.67"/>
<polygon fill="#63b8ff" stroke="#63b8ff" points="366.32,-659.9 370.67,-650.24 361.25,-655.08 366.32,-659.9"/>
</a>
</g>
</g>
<!-- Node34&#45;&gt;Node5 -->
<g id="edge60_Node000034_Node000005" class="edge">
<title>Node34&#45;&gt;Node5</title>
<g id="a_edge60_Node000034_Node000005"><a xlink:title=" ">
<path fill="none" stroke="#63b8ff" d="M258.73,-556.92C264.57,-554.46 270.13,-551.37 275,-547.5 336.14,-498.96 365.06,-404.96 375.14,-364.18"/>
<polygon fill="#63b8ff" stroke="#63b8ff" points="378.57,-364.91 377.45,-354.38 371.75,-363.31 378.57,-364.91"/>
</a>
</g>
</g>
<!-- Node34&#45;&gt;Node12 -->
<g id="edge61_Node000034_Node000012" class="edge">
<title>Node34&#45;&gt;Node12</title>
<g id="a_edge61_Node000034_Node000012"><a xlink:title=" ">
<path fill="none" stroke="#63b8ff" d="M247.99,-576.1C257.09,-578.45 266.43,-581.25 275,-584.5 304.03,-595.53 335.15,-613.01 355.8,-625.51"/>
<polygon fill="#63b8ff" stroke="#63b8ff" points="354.16,-628.61 364.51,-630.86 357.82,-622.64 354.16,-628.61"/>
</a>
</g>
</g>
<!-- Node35&#45;&gt;Node5 -->
<g id="edge65_Node000035_Node000005" class="edge">
<title>Node35&#45;&gt;Node5</title>
<g id="a_edge65_Node000035_Node000005"><a xlink:title=" ">
<path fill="none" stroke="#63b8ff" d="M261.22,-119.33C266.25,-121.74 270.94,-124.75 275,-128.5 313.1,-163.68 288.64,-192.71 311,-239.5 326.55,-272.03 350.65,-306.42 365.73,-326.65"/>
<polygon fill="#63b8ff" stroke="#63b8ff" points="363.14,-329.02 371.96,-334.88 368.72,-324.8 363.14,-329.02"/>
</a>
</g>
</g>
<!-- Node35&#45;&gt;Node11 -->
<g id="edge64_Node000035_Node000011" class="edge">
<title>Node35&#45;&gt;Node11</title>
<g id="a_edge64_Node000035_Node000011"><a xlink:title=" ">
<path fill="none" stroke="#63b8ff" d="M253.89,-120.03C261.2,-122.29 268.43,-125.07 275,-128.5 312.07,-147.83 346.54,-183.22 365.14,-204.33"/>
<polygon fill="#63b8ff" stroke="#63b8ff" points="362.5,-206.62 371.68,-211.91 367.8,-202.05 362.5,-206.62"/>
</a>
</g>
</g>
<!-- Node35&#45;&gt;Node25 -->
<g id="edge63_Node000035_Node000025" class="edge">
<title>Node35&#45;&gt;Node25</title>
<g id="a_edge63_Node000035_Node000025"><a xlink:title=" ">
<path fill="none" stroke="#63b8ff" d="M261.19,-107.42C279.83,-106.48 300.26,-105.46 318.83,-104.53"/>
<polygon fill="#63b8ff" stroke="#63b8ff" points="319.12,-108.02 328.93,-104.03 318.77,-101.03 319.12,-108.02"/>
</a>
</g>
</g>
<!-- Node36&#45;&gt;Node5 -->
<g id="edge67_Node000036_Node000005" class="edge">
<title>Node36&#45;&gt;Node5</title>
<g id="a_edge67_Node000036_Node000005"><a xlink:title=" ">
<path fill="none" stroke="#63b8ff" d="M251.48,-445.9C259.6,-443.43 267.7,-440.34 275,-436.5 311.48,-417.31 345.72,-382.87 364.53,-362.01"/>
<polygon fill="#63b8ff" stroke="#63b8ff" points="367.39,-364.05 371.38,-354.23 362.14,-359.42 367.39,-364.05"/>
</a>
</g>
</g>
</g>
</svg>

<g id="navigator" transform="translate(0 0)" fill="#404254">
  <rect fill="#f2f5e9" fill-opacity="0.5" stroke="#606060" stroke-width=".5" x="0" y="0" width="60" height="60"/>
  <use id="zoomplus" xlink:href="#zoomPlus" x="17" y="9" onmousedown="handleZoom(evt,'in')"/>
  <use id="zoomminus" xlink:href="#zoomMin" x="42" y="9" onmousedown="handleZoom(evt,'out')"/>
  <use id="reset" xlink:href="#resetDef" x="30" y="36" onmousedown="handleReset()"/>
   <use id="arrowup" xlink:href="#arrowUp" x="0" y="0" onmousedown="handlePan(0,-1)"/>
  <use id="arrowright" xlink:href="#arrowRight" x="0" y="0" onmousedown="handlePan(1,0)"/>
  <use id="arrowdown" xlink:href="#arrowDown" x="0" y="0" onmousedown="handlePan(0,1)"/>
  <use id="arrowleft" xlink:href="#arrowLeft" x="0" y="0" onmousedown="handlePan(-1,0)"/>
</g>
<svg viewBox="0 0 15 15" width="100%" height="30px" preserveAspectRatio="xMaxYMin meet">
 <g id="arrow_out" transform="scale(0.3 0.3)">
  <a xlink:href="render__courses_8c_a2c5c720bdad055f349e2add80baa1a8a_cgraph_org.svg" target="_base">
   <rect id="button" ry="5" rx="5" y="6" x="6" height="38" width="38"
        fill="#f2f5e9" fill-opacity="0.5" stroke="#606060" stroke-width="1.0"/>
   <path id="arrow"
     d="M 11.500037,31.436501 C 11.940474,20.09759 22.043105,11.32322 32.158766,21.979434 L 37.068811,17.246167 C 37.068811,17.246167 37.088388,32 37.088388,32 L 22.160133,31.978069 C 22.160133,31.978069 26.997745,27.140456 26.997745,27.140456 C 18.528582,18.264221 13.291696,25.230495 11.500037,31.436501 z"
     style="fill:#404040;"/>
  </a>
 </g>
</svg>

<style type='text/css'>
<![CDATA[
[data-mouse-over-selected='false'] { opacity: 0.7; }
[data-mouse-over-selected='true']  { opacity: 1.0; }
]]>
</style>
<script type="application/ecmascript"><![CDATA[
document.addEventListener('DOMContentLoaded', (event) => {
  highlightEdges();
  highlightAdjacentNodes();
});
]]></script>
</svg>
