<?xml version="1.0" encoding="UTF-8" standalone="no"?>
<!DOCTYPE svg PUBLIC "-//W3C//DTD SVG 1.1//EN"
 "http://www.w3.org/Graphics/SVG/1.1/DTD/svg11.dtd">
<!-- Generated by graphviz version 2.43.0 (0)
 -->
<!-- Title: render_object_train_smoke_particle Pages: 1 -->
<svg width="769pt" height="147pt"
 viewBox="0.00 0.00 769.00 147.00" xmlns="http://www.w3.org/2000/svg" xmlns:xlink="http://www.w3.org/1999/xlink">
<g id="graph0" class="graph" transform="scale(1 1) rotate(0) translate(4 143)">
<title>render_object_train_smoke_particle</title>
<!-- Node1 -->
<g id="Node000001" class="node">
<title>Node1</title>
<g id="a_Node000001"><a xlink:title=" ">
<polygon fill="#999999" stroke="#666666" points="111,-102.5 0,-102.5 0,-72.5 111,-72.5 111,-102.5"/>
<text text-anchor="start" x="8" y="-90.5" font-family="Helvetica,sans-Serif" font-size="10.00">render_object_train</text>
<text text-anchor="middle" x="55.5" y="-79.5" font-family="Helvetica,sans-Serif" font-size="10.00">_smoke_particle</text>
</a>
</g>
</g>
<!-- Node2 -->
<g id="Node000002" class="node">
<title>Node2</title>
<g id="a_Node000002"><a xlink:href="math__util__2_8c.html#a99d173c040cb4a9d0184df2605d71e32" target="_top" xlink:title=" ">
<polygon fill="white" stroke="#666666" points="242,-135 150,-135 150,-116 242,-116 242,-135"/>
<text text-anchor="middle" x="196" y="-123" font-family="Helvetica,sans-Serif" font-size="10.00">func_800418AC</text>
</a>
</g>
</g>
<!-- Node1&#45;&gt;Node2 -->
<g id="edge1_Node000001_Node000002" class="edge">
<title>Node1&#45;&gt;Node2</title>
<g id="a_edge1_Node000001_Node000002"><a xlink:title=" ">
<path fill="none" stroke="#63b8ff" d="M111.24,-102.52C124.25,-106.09 137.97,-109.85 150.45,-113.28"/>
<polygon fill="#63b8ff" stroke="#63b8ff" points="149.6,-116.67 160.17,-115.94 151.45,-109.92 149.6,-116.67"/>
</a>
</g>
</g>
<!-- Node5 -->
<g id="Node000005" class="node">
<title>Node5</title>
<g id="a_Node000005"><a xlink:href="render__objects_8c.html#abfc36be592b2cbf423febe66fa12ec34" target="_top" xlink:title=" ">
<polygon fill="white" stroke="#666666" points="242,-97 150,-97 150,-78 242,-78 242,-97"/>
<text text-anchor="middle" x="196" y="-85" font-family="Helvetica,sans-Serif" font-size="10.00">func_800431B0</text>
</a>
</g>
</g>
<!-- Node1&#45;&gt;Node5 -->
<g id="edge4_Node000001_Node000005" class="edge">
<title>Node1&#45;&gt;Node5</title>
<g id="a_edge4_Node000001_Node000005"><a xlink:title=" ">
<path fill="none" stroke="#63b8ff" d="M111.24,-87.5C120.47,-87.5 130.06,-87.5 139.31,-87.5"/>
<polygon fill="#63b8ff" stroke="#63b8ff" points="139.58,-91 149.58,-87.5 139.58,-84 139.58,-91"/>
</a>
</g>
</g>
<!-- Node12 -->
<g id="Node000012" class="node">
<title>Node12</title>
<g id="a_Node000012"><a xlink:href="render__objects_8c.html#a478c0c265cba4e59430ec73ad32231f2" target="_top" xlink:title=" ">
<polygon fill="white" stroke="#666666" points="245,-60 147,-60 147,-41 245,-41 245,-60"/>
<text text-anchor="middle" x="196" y="-48" font-family="Helvetica,sans-Serif" font-size="10.00">set_color_render</text>
</a>
</g>
</g>
<!-- Node1&#45;&gt;Node12 -->
<g id="edge11_Node000001_Node000012" class="edge">
<title>Node1&#45;&gt;Node12</title>
<g id="a_edge11_Node000001_Node000012"><a xlink:title=" ">
<path fill="none" stroke="#63b8ff" d="M111.24,-72.88C123.88,-69.5 137.2,-65.94 149.4,-62.68"/>
<polygon fill="#63b8ff" stroke="#63b8ff" points="150.59,-65.99 159.35,-60.02 148.79,-59.22 150.59,-65.99"/>
</a>
</g>
</g>
<!-- Node3 -->
<g id="Node000003" class="node">
<title>Node3</title>
<g id="a_Node000003"><a xlink:href="math__util_8c.html#a39b33617a06622150fcb2b20569aa969" target="_top" xlink:title=" ">
<polygon fill="white" stroke="#666666" points="389.5,-136 339.5,-136 339.5,-117 389.5,-117 389.5,-136"/>
<text text-anchor="middle" x="364.5" y="-124" font-family="Helvetica,sans-Serif" font-size="10.00">atan2s</text>
</a>
</g>
</g>
<!-- Node2&#45;&gt;Node3 -->
<g id="edge2_Node000002_Node000003" class="edge">
<title>Node2&#45;&gt;Node3</title>
<g id="a_edge2_Node000002_Node000003"><a xlink:title=" ">
<path fill="none" stroke="#63b8ff" d="M242.06,-125.77C269.53,-125.94 304.09,-126.14 329.3,-126.29"/>
<polygon fill="#63b8ff" stroke="#63b8ff" points="329.47,-129.8 339.49,-126.36 329.51,-122.8 329.47,-129.8"/>
</a>
</g>
</g>
<!-- Node4 -->
<g id="Node000004" class="node">
<title>Node4</title>
<g id="a_Node000004"><a xlink:href="math__util_8c.html#a0273b0ea0783a06996c28669a7438ed9" target="_top" xlink:title=" ">
<polygon fill="white" stroke="#666666" points="613,-139 531,-139 531,-120 613,-120 613,-139"/>
<text text-anchor="middle" x="572" y="-127" font-family="Helvetica,sans-Serif" font-size="10.00">atan2_lookup</text>
</a>
</g>
</g>
<!-- Node3&#45;&gt;Node4 -->
<g id="edge3_Node000003_Node000004" class="edge">
<title>Node3&#45;&gt;Node4</title>
<g id="a_edge3_Node000003_Node000004"><a xlink:title=" ">
<path fill="none" stroke="#63b8ff" d="M389.88,-126.86C421.93,-127.32 479.03,-128.16 520.56,-128.76"/>
<polygon fill="#63b8ff" stroke="#63b8ff" points="520.72,-132.27 530.77,-128.91 520.82,-125.27 520.72,-132.27"/>
</a>
</g>
</g>
<!-- Node6 -->
<g id="Node000006" class="node">
<title>Node6</title>
<g id="a_Node000006"><a xlink:href="math__util__2_8c.html#a2eff0e02deb703653ee3230fbc02eb14" target="_top" xlink:title="set the matrix to a transformation matrix">
<polygon fill="white" stroke="#666666" points="448,-96 281,-96 281,-77 448,-77 448,-96"/>
<text text-anchor="middle" x="364.5" y="-84" font-family="Helvetica,sans-Serif" font-size="10.00">rsp_set_matrix_transformation</text>
</a>
</g>
</g>
<!-- Node5&#45;&gt;Node6 -->
<g id="edge5_Node000005_Node000006" class="edge">
<title>Node5&#45;&gt;Node6</title>
<g id="a_edge5_Node000005_Node000006"><a xlink:title=" ">
<path fill="none" stroke="#63b8ff" d="M242.06,-87.23C251.09,-87.18 260.88,-87.12 270.86,-87.06"/>
<polygon fill="#63b8ff" stroke="#63b8ff" points="270.89,-90.56 280.87,-87 270.85,-83.56 270.89,-90.56"/>
</a>
</g>
</g>
<!-- Node7 -->
<g id="Node000007" class="node">
<title>Node7</title>
<g id="a_Node000007"><a xlink:href="render__player_8c.html#ab7bf9484e155990f138e03ae5339fc84" target="_top" xlink:title=" ">
<polygon fill="white" stroke="#666666" points="635.5,-101.5 508.5,-101.5 508.5,-71.5 635.5,-71.5 635.5,-101.5"/>
<text text-anchor="start" x="516.5" y="-89.5" font-family="Helvetica,sans-Serif" font-size="10.00">convert_to_fixed_point</text>
<text text-anchor="middle" x="572" y="-78.5" font-family="Helvetica,sans-Serif" font-size="10.00">_matrix</text>
</a>
</g>
</g>
<!-- Node6&#45;&gt;Node7 -->
<g id="edge6_Node000006_Node000007" class="edge">
<title>Node6&#45;&gt;Node7</title>
<g id="a_edge6_Node000006_Node000007"><a xlink:title=" ">
<path fill="none" stroke="#63b8ff" d="M448.2,-86.5C464.66,-86.5 481.85,-86.5 497.96,-86.5"/>
<polygon fill="#63b8ff" stroke="#63b8ff" points="498.38,-90 508.38,-86.5 498.38,-83 498.38,-90"/>
</a>
</g>
</g>
<!-- Node9 -->
<g id="Node000009" class="node">
<title>Node9</title>
<g id="a_Node000009"><a xlink:href="math__util__2_8c.html#a88742c6110738fc1c35a57f50920a81f" target="_top" xlink:title=" ">
<polygon fill="white" stroke="#666666" points="660,-53 484,-53 484,-34 660,-34 660,-53"/>
<text text-anchor="middle" x="572" y="-41" font-family="Helvetica,sans-Serif" font-size="10.00">mtxf_set_matrix_transformation</text>
</a>
</g>
</g>
<!-- Node6&#45;&gt;Node9 -->
<g id="edge8_Node000006_Node000009" class="edge">
<title>Node6&#45;&gt;Node9</title>
<g id="a_edge8_Node000006_Node000009"><a xlink:title=" ">
<path fill="none" stroke="#63b8ff" d="M411.11,-76.96C441.97,-70.5 482.92,-61.93 515.65,-55.08"/>
<polygon fill="#63b8ff" stroke="#63b8ff" points="516.45,-58.49 525.52,-53.02 515.02,-51.64 516.45,-58.49"/>
</a>
</g>
</g>
<!-- Node8 -->
<g id="Node000008" class="node">
<title>Node8</title>
<g id="a_Node000008"><a xlink:href="guMtxF2L_8c.html#a40ab2d64c609839ff1e0ef0de2d0dcc4" target="_top" xlink:title=" ">
<polygon fill="white" stroke="#666666" points="761,-96 696,-96 696,-77 761,-77 761,-96"/>
<text text-anchor="middle" x="728.5" y="-84" font-family="Helvetica,sans-Serif" font-size="10.00">guMtxF2L</text>
</a>
</g>
</g>
<!-- Node7&#45;&gt;Node8 -->
<g id="edge7_Node000007_Node000008" class="edge">
<title>Node7&#45;&gt;Node8</title>
<g id="a_edge7_Node000007_Node000008"><a xlink:title=" ">
<path fill="none" stroke="#63b8ff" d="M635.84,-86.5C652.54,-86.5 670.17,-86.5 685.46,-86.5"/>
<polygon fill="#63b8ff" stroke="#63b8ff" points="685.63,-90 695.63,-86.5 685.63,-83 685.63,-90"/>
</a>
</g>
</g>
<!-- Node10 -->
<g id="Node000010" class="node">
<title>Node10</title>
<g id="a_Node000010"><a xlink:href="math__util_8c.html#a5eb0d9752bc1557b7f4ae3809352a0eb" target="_top" xlink:title=" ">
<polygon fill="white" stroke="#666666" points="747.5,-56 709.5,-56 709.5,-37 747.5,-37 747.5,-56"/>
<text text-anchor="middle" x="728.5" y="-44" font-family="Helvetica,sans-Serif" font-size="10.00">coss</text>
</a>
</g>
</g>
<!-- Node9&#45;&gt;Node10 -->
<g id="edge9_Node000009_Node000010" class="edge">
<title>Node9&#45;&gt;Node10</title>
<g id="a_edge9_Node000009_Node000010"><a xlink:title=" ">
<path fill="none" stroke="#63b8ff" d="M660.18,-45.19C674.29,-45.47 687.95,-45.73 699.24,-45.95"/>
<polygon fill="#63b8ff" stroke="#63b8ff" points="699.2,-49.45 709.27,-46.15 699.34,-42.45 699.2,-49.45"/>
</a>
</g>
</g>
<!-- Node11 -->
<g id="Node000011" class="node">
<title>Node11</title>
<g id="a_Node000011"><a xlink:href="math__util_8c.html#adcf81d47666b5d86c4a1dbcb06e47faf" target="_top" xlink:title=" ">
<polygon fill="white" stroke="#666666" points="746.5,-19 710.5,-19 710.5,0 746.5,0 746.5,-19"/>
<text text-anchor="middle" x="728.5" y="-7" font-family="Helvetica,sans-Serif" font-size="10.00">sins</text>
</a>
</g>
</g>
<!-- Node9&#45;&gt;Node11 -->
<g id="edge10_Node000009_Node000011" class="edge">
<title>Node9&#45;&gt;Node11</title>
<g id="a_edge10_Node000009_Node000011"><a xlink:title=" ">
<path fill="none" stroke="#63b8ff" d="M616.45,-33.94C643.38,-28.01 677.15,-20.58 700.33,-15.48"/>
<polygon fill="#63b8ff" stroke="#63b8ff" points="701.16,-18.88 710.18,-13.31 699.66,-12.04 701.16,-18.88"/>
</a>
</g>
</g>
</g>
</svg>
