<?xml version="1.0" encoding="UTF-8" standalone="no"?>
<!DOCTYPE svg PUBLIC "-//W3C//DTD SVG 1.1//EN"
 "http://www.w3.org/Graphics/SVG/1.1/DTD/svg11.dtd">
<!-- Generated by graphviz version 2.43.0 (0)
 -->
<!-- Title: func_80021C78 Pages: 1 -->
<!--zoomable 658 -->

<svg id="main" version="1.1" xmlns="http://www.w3.org/2000/svg" xmlns:xlink="http://www.w3.org/1999/xlink" xml:space="preserve" onload="init(evt)">
<style type="text/css"><![CDATA[
.node, .edge {opacity: 0.7;}
.node.selected, .edge.selected {opacity: 1;}
.edge:hover path { stroke: red; }
.edge:hover polygon { stroke: red; fill: red; }
]]></style>

<defs>
  <circle id="rim" cx="0" cy="0" r="7"/>
  <circle id="rim2" cx="0" cy="0" r="3.5"/>
  <g id="zoomPlus">
    <use xlink:href="#rim" fill="#404040"><set attributeName="fill" to="#808080" begin="zoomplus.mouseover" end="zoomplus.mouseout"/></use>
    <path d="M-4,0h8M0,-4v8" fill="none" stroke="white" stroke-width="1.5" pointer-events="none"/>
  </g>
  <g id="zoomMin">
    <use xlink:href="#rim" fill="#404040"><set attributeName="fill" to="#808080" begin="zoomminus.mouseover" end="zoomminus.mouseout"/></use>
    <path d="M-4,0h8" fill="none" stroke="white" stroke-width="1.5" pointer-events="none"/>
  </g>
  <g id="arrowUp" transform="translate(30 24)">
    <use xlink:href="#rim"/>
    <path pointer-events="none" fill="none" stroke="white" stroke-width="1.5" d="M0,-3.0v7 M-2.5,-0.5L0,-3.0L2.5,-0.5"/>
  </g>
  <g id="arrowRight" transform="rotate(90) translate(36 -43)">
    <use xlink:href="#rim"/>
    <path pointer-events="none" fill="none" stroke="white" stroke-width="1.5" d="M0,-3.0v7 M-2.5,-0.5L0,-3.0L2.5,-0.5"/>
  </g>
  <g id="arrowDown" transform="rotate(180) translate(-30 -48)">
    <use xlink:href="#rim"/>
    <path pointer-events="none" fill="none" stroke="white" stroke-width="1.5" d="M0,-3.0v7 M-2.5,-0.5L0,-3.0L2.5,-0.5"/>
  </g>
  <g id="arrowLeft" transform="rotate(270) translate(-36 17)">
    <use xlink:href="#rim"/>
    <path pointer-events="none" fill="none" stroke="white" stroke-width="1.5" d="M0,-3.0v7 M-2.5,-0.5L0,-3.0L2.5,-0.5"/>
  </g>
  <g id="resetDef">
    <use xlink:href="#rim2" fill="#404040"><set attributeName="fill" to="#808080" begin="reset.mouseover" end="reset.mouseout"/></use>
  </g>
</defs>
<script type="application/ecmascript">
var viewWidth = 852;
var viewHeight = 658;
var sectionId = 'dynsection-23';
</script>
<script type="application/ecmascript" xlink:href="svg.min.js"/>
<svg id="graph" class="graph">
<g id="viewport">
<title>func_80021C78</title>
<!-- Node1 -->
<g id="Node000001" class="node">
<title>Node1</title>
<g id="a_Node000001"><a xlink:title=" ">
<polygon fill="#999999" stroke="#666666" points="92,-309.91 0,-309.91 0,-290.91 92,-290.91 92,-309.91"/>
<text text-anchor="middle" x="46" y="-297.91" font-family="Helvetica,sans-Serif" font-size="10.00">func_80021C78</text>
</a>
</g>
</g>
<!-- Node2 -->
<g id="Node000002" class="node">
<title>Node2</title>
<g id="a_Node000002"><a xlink:href="code__80057C60_8c.html#a0cab15af83cd138ce754a557705ba8ff" target="_top" xlink:title=" ">
<polygon fill="white" stroke="#666666" points="219,-309.91 128,-309.91 128,-290.91 219,-290.91 219,-309.91"/>
<text text-anchor="middle" x="173.5" y="-297.91" font-family="Helvetica,sans-Serif" font-size="10.00">func_8006E848</text>
</a>
</g>
</g>
<!-- Node1&#45;&gt;Node2 -->
<g id="edge1_Node000001_Node000002" class="edge">
<title>Node1&#45;&gt;Node2</title>
<g id="a_edge1_Node000001_Node000002"><a xlink:title=" ">
<path fill="none" stroke="#63b8ff" d="M92.31,-300.41C100.49,-300.41 109.11,-300.41 117.54,-300.41"/>
<polygon fill="#63b8ff" stroke="#63b8ff" points="117.68,-303.91 127.68,-300.41 117.68,-296.91 117.68,-303.91"/>
</a>
</g>
</g>
<!-- Node3 -->
<g id="Node000003" class="node">
<title>Node3</title>
<g id="a_Node000003"><a xlink:href="code__80057C60_8c.html#a268141e86832725ec842fb8a391f37a2" target="_top" xlink:title=" ">
<polygon fill="white" stroke="#666666" points="350,-309.91 255,-309.91 255,-290.91 350,-290.91 350,-309.91"/>
<text text-anchor="middle" x="302.5" y="-297.91" font-family="Helvetica,sans-Serif" font-size="10.00">func_8006DD3C</text>
</a>
</g>
</g>
<!-- Node2&#45;&gt;Node3 -->
<g id="edge2_Node000002_Node000003" class="edge">
<title>Node2&#45;&gt;Node3</title>
<g id="a_edge2_Node000002_Node000003"><a xlink:title=" ">
<path fill="none" stroke="#63b8ff" d="M219.28,-300.41C227.5,-300.41 236.19,-300.41 244.71,-300.41"/>
<polygon fill="#63b8ff" stroke="#63b8ff" points="244.98,-303.91 254.98,-300.41 244.98,-296.91 244.98,-303.91"/>
</a>
</g>
</g>
<!-- Node4 -->
<g id="Node000004" class="node">
<title>Node4</title>
<g id="a_Node000004"><a xlink:href="code__80057C60_8c.html#a3f7eaa00f6c7a777007bb0cd45c49c31" target="_top" xlink:title=" ">
<polygon fill="white" stroke="#666666" points="478,-420.91 387,-420.91 387,-401.91 478,-401.91 478,-420.91"/>
<text text-anchor="middle" x="432.5" y="-408.91" font-family="Helvetica,sans-Serif" font-size="10.00">func_80066998</text>
</a>
</g>
</g>
<!-- Node3&#45;&gt;Node4 -->
<g id="edge3_Node000003_Node000004" class="edge">
<title>Node3&#45;&gt;Node4</title>
<g id="a_edge3_Node000003_Node000004"><a xlink:title=" ">
<path fill="none" stroke="#63b8ff" d="M309.9,-310.02C322.5,-328.32 352.25,-368.43 386,-392.41 388.5,-394.19 391.19,-395.84 393.98,-397.36"/>
<polygon fill="#63b8ff" stroke="#63b8ff" points="392.52,-400.55 403.04,-401.82 395.61,-394.27 392.52,-400.55"/>
</a>
</g>
</g>
<!-- Node12 -->
<g id="Node000012" class="node">
<title>Node12</title>
<g id="a_Node000012"><a xlink:href="code__80057C60_8c.html#a29649f5b77bbaeb4f7ff6a0826b035a0" target="_top" xlink:title=" ">
<polygon fill="white" stroke="#666666" points="478,-309.91 387,-309.91 387,-290.91 478,-290.91 478,-309.91"/>
<text text-anchor="middle" x="432.5" y="-297.91" font-family="Helvetica,sans-Serif" font-size="10.00">func_80067964</text>
</a>
</g>
</g>
<!-- Node3&#45;&gt;Node12 -->
<g id="edge11_Node000003_Node000012" class="edge">
<title>Node3&#45;&gt;Node12</title>
<g id="a_edge11_Node000003_Node000012"><a xlink:title=" ">
<path fill="none" stroke="#63b8ff" d="M350.07,-300.41C358.7,-300.41 367.79,-300.41 376.64,-300.41"/>
<polygon fill="#63b8ff" stroke="#63b8ff" points="376.88,-303.91 386.88,-300.41 376.88,-296.91 376.88,-303.91"/>
</a>
</g>
</g>
<!-- Node13 -->
<g id="Node000013" class="node">
<title>Node13</title>
<g id="a_Node000013"><a xlink:href="code__80057C60_8c.html#acbbab8f81485d7d35cfbb222aeda5838" target="_top" xlink:title=" ">
<polygon fill="white" stroke="#666666" points="479,-101.91 386,-101.91 386,-82.91 479,-82.91 479,-101.91"/>
<text text-anchor="middle" x="432.5" y="-89.91" font-family="Helvetica,sans-Serif" font-size="10.00">func_80067D3C</text>
</a>
</g>
</g>
<!-- Node3&#45;&gt;Node13 -->
<g id="edge13_Node000003_Node000013" class="edge">
<title>Node3&#45;&gt;Node13</title>
<g id="a_edge13_Node000003_Node000013"><a xlink:title=" ">
<path fill="none" stroke="#63b8ff" d="M306.78,-290.57C316.14,-263.44 344.93,-186.09 386,-132.41 392.74,-123.61 401.64,-115.27 409.78,-108.51"/>
<polygon fill="#63b8ff" stroke="#63b8ff" points="412.22,-111.05 417.87,-102.08 407.86,-105.57 412.22,-111.05"/>
</a>
</g>
</g>
<!-- Node15 -->
<g id="Node000015" class="node">
<title>Node15</title>
<g id="a_Node000015"><a xlink:href="code__80057C60_8c.html#a1301c2a93b208a64c83e614091569ac4" target="_top" xlink:title=" ">
<polygon fill="white" stroke="#666666" points="478.5,-197.91 386.5,-197.91 386.5,-178.91 478.5,-178.91 478.5,-197.91"/>
<text text-anchor="middle" x="432.5" y="-185.91" font-family="Helvetica,sans-Serif" font-size="10.00">func_8006801C</text>
</a>
</g>
</g>
<!-- Node3&#45;&gt;Node15 -->
<g id="edge18_Node000003_Node000015" class="edge">
<title>Node3&#45;&gt;Node15</title>
<g id="a_edge18_Node000003_Node000015"><a xlink:title=" ">
<path fill="none" stroke="#63b8ff" d="M313.75,-290.75C329.19,-276.29 359.44,-248.25 386,-225.41 394.25,-218.31 403.54,-210.69 411.57,-204.22"/>
<polygon fill="#63b8ff" stroke="#63b8ff" points="413.76,-206.95 419.38,-197.97 409.38,-201.49 413.76,-206.95"/>
</a>
</g>
</g>
<!-- Node16 -->
<g id="Node000016" class="node">
<title>Node16</title>
<g id="a_Node000016"><a xlink:href="code__80057C60_8c.html#a3952e10acc7d091a444986c51e470373" target="_top" xlink:title=" ">
<polygon fill="white" stroke="#666666" points="478,-383.91 387,-383.91 387,-364.91 478,-364.91 478,-383.91"/>
<text text-anchor="middle" x="432.5" y="-371.91" font-family="Helvetica,sans-Serif" font-size="10.00">func_80068310</text>
</a>
</g>
</g>
<!-- Node3&#45;&gt;Node16 -->
<g id="edge23_Node000003_Node000016" class="edge">
<title>Node3&#45;&gt;Node16</title>
<g id="a_edge23_Node000003_Node000016"><a xlink:title=" ">
<path fill="none" stroke="#63b8ff" d="M316.16,-309.98C331.96,-321.64 360.05,-341.51 386,-355.41 389.47,-357.27 393.15,-359.07 396.87,-360.78"/>
<polygon fill="#63b8ff" stroke="#63b8ff" points="395.5,-364 406.07,-364.8 398.31,-357.58 395.5,-364"/>
</a>
</g>
</g>
<!-- Node17 -->
<g id="Node000017" class="node">
<title>Node17</title>
<g id="a_Node000017"><a xlink:href="code__80057C60_8c.html#a83b70a807a1868d489124f4250751dce" target="_top" xlink:title=" ">
<polygon fill="white" stroke="#666666" points="478,-253.91 387,-253.91 387,-234.91 478,-234.91 478,-253.91"/>
<text text-anchor="middle" x="432.5" y="-241.91" font-family="Helvetica,sans-Serif" font-size="10.00">func_80068724</text>
</a>
</g>
</g>
<!-- Node3&#45;&gt;Node17 -->
<g id="edge27_Node000003_Node000017" class="edge">
<title>Node3&#45;&gt;Node17</title>
<g id="a_edge27_Node000003_Node000017"><a xlink:title=" ">
<path fill="none" stroke="#63b8ff" d="M325.5,-290.78C346.14,-281.75 377.22,-268.16 400.39,-258.02"/>
<polygon fill="#63b8ff" stroke="#63b8ff" points="402.02,-261.12 409.78,-253.91 399.22,-254.71 402.02,-261.12"/>
</a>
</g>
</g>
<!-- Node18 -->
<g id="Node000018" class="node">
<title>Node18</title>
<g id="a_Node000018"><a xlink:href="code__80057C60_8c.html#ab6ef0e21a24526fdfa08546ef9b244f5" target="_top" xlink:title=" ">
<polygon fill="white" stroke="#666666" points="478.5,-566.91 386.5,-566.91 386.5,-547.91 478.5,-547.91 478.5,-566.91"/>
<text text-anchor="middle" x="432.5" y="-554.91" font-family="Helvetica,sans-Serif" font-size="10.00">func_80068AA4</text>
</a>
</g>
</g>
<!-- Node3&#45;&gt;Node18 -->
<g id="edge31_Node000003_Node000018" class="edge">
<title>Node3&#45;&gt;Node18</title>
<g id="a_edge31_Node000003_Node000018"><a xlink:title=" ">
<path fill="none" stroke="#63b8ff" d="M308.36,-310.17C327.33,-348.26 396.57,-487.28 422.03,-538.39"/>
<polygon fill="#63b8ff" stroke="#63b8ff" points="419.04,-540.25 426.63,-547.64 425.31,-537.13 419.04,-540.25"/>
</a>
</g>
</g>
<!-- Node19 -->
<g id="Node000019" class="node">
<title>Node19</title>
<g id="a_Node000019"><a xlink:href="code__80057C60_8c.html#ad05fffa1580a1aef18f9ab3250ec8255" target="_top" xlink:title=" ">
<polygon fill="white" stroke="#666666" points="479,-346.91 386,-346.91 386,-327.91 479,-327.91 479,-346.91"/>
<text text-anchor="middle" x="432.5" y="-334.91" font-family="Helvetica,sans-Serif" font-size="10.00">func_80068DA0</text>
</a>
</g>
</g>
<!-- Node3&#45;&gt;Node19 -->
<g id="edge36_Node000003_Node000019" class="edge">
<title>Node3&#45;&gt;Node19</title>
<g id="a_edge36_Node000003_Node000019"><a xlink:title=" ">
<path fill="none" stroke="#63b8ff" d="M336.46,-309.94C352.31,-314.52 371.52,-320.07 388.5,-324.98"/>
<polygon fill="#63b8ff" stroke="#63b8ff" points="387.62,-328.37 398.2,-327.78 389.57,-321.64 387.62,-328.37"/>
</a>
</g>
</g>
<!-- Node20 -->
<g id="Node000020" class="node">
<title>Node20</title>
<g id="a_Node000020"><a xlink:href="code__80057C60_8c.html#aeacc1b0f213ad8d484e5dfac5c42920f" target="_top" xlink:title=" ">
<polygon fill="white" stroke="#666666" points="478.5,-160.91 386.5,-160.91 386.5,-141.91 478.5,-141.91 478.5,-160.91"/>
<text text-anchor="middle" x="432.5" y="-148.91" font-family="Helvetica,sans-Serif" font-size="10.00">func_8006A280</text>
</a>
</g>
</g>
<!-- Node3&#45;&gt;Node20 -->
<g id="edge40_Node000003_Node000020" class="edge">
<title>Node3&#45;&gt;Node20</title>
<g id="a_edge40_Node000003_Node000020"><a xlink:title=" ">
<path fill="none" stroke="#63b8ff" d="M307.11,-290.72C316.47,-266.82 343.81,-204.43 386,-169.41 387.52,-168.15 389.14,-166.97 390.83,-165.86"/>
<polygon fill="#63b8ff" stroke="#63b8ff" points="392.64,-168.86 399.7,-160.96 389.25,-162.73 392.64,-168.86"/>
</a>
</g>
</g>
<!-- Node5 -->
<g id="Node000005" class="node">
<title>Node5</title>
<g id="a_Node000005"><a xlink:href="hud__renderer_8c.html#a42d051e0c41afb54803bffd1a3a19e91" target="_top" xlink:title=" ">
<polygon fill="white" stroke="#666666" points="607,-566.91 515,-566.91 515,-547.91 607,-547.91 607,-566.91"/>
<text text-anchor="middle" x="561" y="-554.91" font-family="Helvetica,sans-Serif" font-size="10.00">func_8004B35C</text>
</a>
</g>
</g>
<!-- Node4&#45;&gt;Node5 -->
<g id="edge4_Node000004_Node000005" class="edge">
<title>Node4&#45;&gt;Node5</title>
<g id="a_edge4_Node000004_Node000005"><a xlink:title=" ">
<path fill="none" stroke="#63b8ff" d="M437.91,-421.12C448.45,-443.43 477.05,-499.04 515,-533.41 518.84,-536.89 523.27,-540.03 527.83,-542.8"/>
<polygon fill="#63b8ff" stroke="#63b8ff" points="526.18,-545.89 536.62,-547.69 529.58,-539.77 526.18,-545.89"/>
</a>
</g>
</g>
<!-- Node6 -->
<g id="Node000006" class="node">
<title>Node6</title>
<g id="a_Node000006"><a xlink:href="code__80057C60_8c.html#afe48d8fb3ea987ea8782c445f30eb8c3" target="_top" xlink:title=" ">
<polygon fill="white" stroke="#666666" points="607,-328.91 515,-328.91 515,-309.91 607,-309.91 607,-328.91"/>
<text text-anchor="middle" x="561" y="-316.91" font-family="Helvetica,sans-Serif" font-size="10.00">func_800652D4</text>
</a>
</g>
</g>
<!-- Node4&#45;&gt;Node6 -->
<g id="edge5_Node000004_Node000006" class="edge">
<title>Node4&#45;&gt;Node6</title>
<g id="a_edge5_Node000004_Node000006"><a xlink:title=" ">
<path fill="none" stroke="#63b8ff" d="M460.72,-401.81C466.93,-399.14 473.36,-395.98 479,-392.41 504.06,-376.54 528.79,-352.75 544.2,-336.68"/>
<polygon fill="#63b8ff" stroke="#63b8ff" points="547.06,-338.74 551.37,-329.06 541.97,-333.95 547.06,-338.74"/>
</a>
</g>
</g>
<!-- Node7 -->
<g id="Node000007" class="node">
<title>Node7</title>
<g id="a_Node000007"><a xlink:href="render__player_8c.html#af0bbe78d8dc64400663d3702812f9ad8" target="_top" xlink:title=" ">
<polygon fill="white" stroke="#666666" points="770,-377.41 643,-377.41 643,-347.41 770,-347.41 770,-377.41"/>
<text text-anchor="start" x="651" y="-365.41" font-family="Helvetica,sans-Serif" font-size="10.00">convert_to_fixed_point</text>
<text text-anchor="middle" x="706.5" y="-354.41" font-family="Helvetica,sans-Serif" font-size="10.00">_matrix</text>
</a>
</g>
</g>
<!-- Node6&#45;&gt;Node7 -->
<g id="edge6_Node000006_Node000007" class="edge">
<title>Node6&#45;&gt;Node7</title>
<g id="a_edge6_Node000006_Node000007"><a xlink:title=" ">
<path fill="none" stroke="#63b8ff" d="M593.85,-328.95C609.1,-333.52 627.89,-339.15 645.67,-344.48"/>
<polygon fill="#63b8ff" stroke="#63b8ff" points="644.84,-347.88 655.42,-347.4 646.85,-341.18 644.84,-347.88"/>
</a>
</g>
</g>
<!-- Node8 -->
<g id="Node000008" class="node">
<title>Node8</title>
<g id="a_Node000008"><a xlink:href="render__player_8c.html#af0b657a736763c8b33412ed9d3111a61" target="_top" xlink:title=" ">
<polygon fill="white" stroke="#666666" points="745,-291.91 668,-291.91 668,-272.91 745,-272.91 745,-291.91"/>
<text text-anchor="middle" x="706.5" y="-279.91" font-family="Helvetica,sans-Serif" font-size="10.00">mtxf_scale2</text>
</a>
</g>
</g>
<!-- Node6&#45;&gt;Node8 -->
<g id="edge7_Node000006_Node000008" class="edge">
<title>Node6&#45;&gt;Node8</title>
<g id="a_edge7_Node000006_Node000008"><a xlink:title=" ">
<path fill="none" stroke="#63b8ff" d="M598.95,-309.88C617.06,-305.21 639.06,-299.54 658.36,-294.56"/>
<polygon fill="#63b8ff" stroke="#63b8ff" points="659.36,-297.92 668.17,-292.03 657.61,-291.14 659.36,-297.92"/>
</a>
</g>
</g>
<!-- Node9 -->
<g id="Node000009" class="node">
<title>Node9</title>
<g id="a_Node000009"><a xlink:href="render__player_8c.html#a565e21fd6aa0dacea58fb8a0e4304772" target="_top" xlink:title=" ">
<polygon fill="white" stroke="#666666" points="768,-328.91 645,-328.91 645,-309.91 768,-309.91 768,-328.91"/>
<text text-anchor="middle" x="706.5" y="-316.91" font-family="Helvetica,sans-Serif" font-size="10.00">mtxf_translate_rotate</text>
</a>
</g>
</g>
<!-- Node6&#45;&gt;Node9 -->
<g id="edge8_Node000006_Node000009" class="edge">
<title>Node6&#45;&gt;Node9</title>
<g id="a_edge8_Node000006_Node000009"><a xlink:title=" ">
<path fill="none" stroke="#63b8ff" d="M607.01,-319.41C615.82,-319.41 625.26,-319.41 634.68,-319.41"/>
<polygon fill="#63b8ff" stroke="#63b8ff" points="634.87,-322.91 644.87,-319.41 634.87,-315.91 634.87,-322.91"/>
</a>
</g>
</g>
<!-- Node10 -->
<g id="Node000010" class="node">
<title>Node10</title>
<g id="a_Node000010"><a xlink:href="math__util_8c.html#ae69cbf5c8d4b3b0dba2d7b4d4673689f" target="_top" xlink:title=" ">
<polygon fill="white" stroke="#666666" points="844,-309.91 806,-309.91 806,-290.91 844,-290.91 844,-309.91"/>
<text text-anchor="middle" x="825" y="-297.91" font-family="Helvetica,sans-Serif" font-size="10.00">coss</text>
</a>
</g>
</g>
<!-- Node9&#45;&gt;Node10 -->
<g id="edge9_Node000009_Node000010" class="edge">
<title>Node9&#45;&gt;Node10</title>
<g id="a_edge9_Node000009_Node000010"><a xlink:title=" ">
<path fill="none" stroke="#63b8ff" d="M766.09,-309.85C776.52,-308.15 786.93,-306.45 795.99,-304.98"/>
<polygon fill="#63b8ff" stroke="#63b8ff" points="796.62,-308.42 805.92,-303.36 795.49,-301.51 796.62,-308.42"/>
</a>
</g>
</g>
<!-- Node11 -->
<g id="Node000011" class="node">
<title>Node11</title>
<g id="a_Node000011"><a xlink:href="math__util_8c.html#a19ed3bd78fd2d3e2bd0a29f6caf48545" target="_top" xlink:title=" ">
<polygon fill="white" stroke="#666666" points="843,-346.91 807,-346.91 807,-327.91 843,-327.91 843,-346.91"/>
<text text-anchor="middle" x="825" y="-334.91" font-family="Helvetica,sans-Serif" font-size="10.00">sins</text>
</a>
</g>
</g>
<!-- Node9&#45;&gt;Node11 -->
<g id="edge10_Node000009_Node000011" class="edge">
<title>Node9&#45;&gt;Node11</title>
<g id="a_edge10_Node000009_Node000011"><a xlink:title=" ">
<path fill="none" stroke="#63b8ff" d="M768.14,-328.78C778.09,-330.32 787.95,-331.84 796.55,-333.17"/>
<polygon fill="#63b8ff" stroke="#63b8ff" points="796.27,-336.67 806.68,-334.73 797.34,-329.75 796.27,-336.67"/>
</a>
</g>
</g>
<!-- Node12&#45;&gt;Node6 -->
<g id="edge12_Node000012_Node000006" class="edge">
<title>Node12&#45;&gt;Node6</title>
<g id="a_edge12_Node000012_Node000006"><a xlink:title=" ">
<path fill="none" stroke="#63b8ff" d="M478.1,-307.11C486.78,-308.41 495.98,-309.79 504.95,-311.14"/>
<polygon fill="#63b8ff" stroke="#63b8ff" points="504.54,-314.62 514.95,-312.64 505.58,-307.7 504.54,-314.62"/>
</a>
</g>
</g>
<!-- Node13&#45;&gt;Node6 -->
<g id="edge16_Node000013_Node000006" class="edge">
<title>Node13&#45;&gt;Node6</title>
<g id="a_edge16_Node000013_Node000006"><a xlink:title=" ">
<path fill="none" stroke="#63b8ff" d="M447.3,-101.96C457.17,-109.35 470.21,-120.33 479,-132.41 518.81,-187.11 544.34,-264.42 554.71,-300.05"/>
<polygon fill="#63b8ff" stroke="#63b8ff" points="551.35,-301.03 557.44,-309.7 558.09,-299.13 551.35,-301.03"/>
</a>
</g>
</g>
<!-- Node13&#45;&gt;Node10 -->
<g id="edge14_Node000013_Node000010" class="edge">
<title>Node13&#45;&gt;Node10</title>
<g id="a_edge14_Node000013_Node000010"><a xlink:title=" ">
<path fill="none" stroke="#63b8ff" d="M444.09,-82.77C458.76,-70.16 486.64,-48.68 515,-40.41 623.79,-8.66 682.09,31.12 770,-40.41 807.39,-70.83 819.73,-225.05 822.99,-280.51"/>
<polygon fill="#63b8ff" stroke="#63b8ff" points="819.51,-280.97 823.56,-290.76 826.5,-280.59 819.51,-280.97"/>
</a>
</g>
</g>
<!-- Node13&#45;&gt;Node11 -->
<g id="edge17_Node000013_Node000011" class="edge">
<title>Node13&#45;&gt;Node11</title>
<g id="a_edge17_Node000013_Node000011"><a xlink:title=" ">
<path fill="none" stroke="#63b8ff" d="M460.58,-82.88C495.26,-72.14 556.87,-58.08 607,-73.41 690.58,-98.97 719.3,-112.22 770,-183.41 806.02,-233.99 775.71,-264.2 806,-318.41 806.23,-318.83 806.48,-319.24 806.73,-319.65"/>
<polygon fill="#63b8ff" stroke="#63b8ff" points="804.13,-322.01 813.06,-327.72 809.64,-317.69 804.13,-322.01"/>
</a>
</g>
</g>
<!-- Node14 -->
<g id="Node000014" class="node">
<title>Node14</title>
<g id="a_Node000014"><a xlink:href="hud__renderer_8c.html#a9ea20c14c263ed864d8e02d082b6b18b" target="_top" xlink:title=" ">
<polygon fill="white" stroke="#666666" points="607,-101.91 515,-101.91 515,-82.91 607,-82.91 607,-101.91"/>
<text text-anchor="middle" x="561" y="-89.91" font-family="Helvetica,sans-Serif" font-size="10.00">func_8004B414</text>
</a>
</g>
</g>
<!-- Node13&#45;&gt;Node14 -->
<g id="edge15_Node000013_Node000014" class="edge">
<title>Node13&#45;&gt;Node14</title>
<g id="a_edge15_Node000013_Node000014"><a xlink:title=" ">
<path fill="none" stroke="#63b8ff" d="M479.17,-92.41C487.42,-92.41 496.11,-92.41 504.6,-92.41"/>
<polygon fill="#63b8ff" stroke="#63b8ff" points="504.82,-95.91 514.82,-92.41 504.82,-88.91 504.82,-95.91"/>
</a>
</g>
</g>
<!-- Node15&#45;&gt;Node6 -->
<g id="edge21_Node000015_Node000006" class="edge">
<title>Node15&#45;&gt;Node6</title>
<g id="a_edge21_Node000015_Node000006"><a xlink:title=" ">
<path fill="none" stroke="#63b8ff" d="M446.76,-198.2C456.13,-205.34 468.78,-215.47 479,-225.41 504.59,-250.28 530.97,-282.32 546.41,-301.84"/>
<polygon fill="#63b8ff" stroke="#63b8ff" points="543.77,-304.14 552.69,-309.85 549.28,-299.82 543.77,-304.14"/>
</a>
</g>
</g>
<!-- Node15&#45;&gt;Node10 -->
<g id="edge19_Node000015_Node000010" class="edge">
<title>Node15&#45;&gt;Node10</title>
<g id="a_edge19_Node000015_Node000010"><a xlink:title=" ">
<path fill="none" stroke="#63b8ff" d="M456.56,-178.77C480.59,-168.73 514.81,-154.45 515,-154.41 626.13,-132.16 676.99,-89.64 770,-154.41 811.46,-183.28 821.17,-247.85 823.38,-280.58"/>
<polygon fill="#63b8ff" stroke="#63b8ff" points="819.89,-280.91 823.89,-290.72 826.89,-280.55 819.89,-280.91"/>
</a>
</g>
</g>
<!-- Node15&#45;&gt;Node11 -->
<g id="edge22_Node000015_Node000011" class="edge">
<title>Node15&#45;&gt;Node11</title>
<g id="a_edge22_Node000015_Node000011"><a xlink:title=" ">
<path fill="none" stroke="#63b8ff" d="M478.69,-182.2C548.58,-175.16 683.78,-172.06 770,-237.41 801.4,-261.21 784.14,-285.64 806,-318.41 806.42,-319.03 806.85,-319.65 807.31,-320.27"/>
<polygon fill="#63b8ff" stroke="#63b8ff" points="804.64,-322.54 813.79,-327.9 809.98,-318.01 804.64,-322.54"/>
</a>
</g>
</g>
<!-- Node15&#45;&gt;Node14 -->
<g id="edge20_Node000015_Node000014" class="edge">
<title>Node15&#45;&gt;Node14</title>
<g id="a_edge20_Node000015_Node000014"><a xlink:title=" ">
<path fill="none" stroke="#63b8ff" d="M463.3,-178.9C468.85,-176.34 474.36,-173.2 479,-169.41 501.05,-151.4 493.82,-135.44 515,-116.41 518.93,-112.87 523.48,-109.68 528.14,-106.87"/>
<polygon fill="#63b8ff" stroke="#63b8ff" points="530.04,-109.82 537.11,-101.92 526.66,-103.69 530.04,-109.82"/>
</a>
</g>
</g>
<!-- Node16&#45;&gt;Node6 -->
<g id="edge25_Node000016_Node000006" class="edge">
<title>Node16&#45;&gt;Node6</title>
<g id="a_edge25_Node000016_Node000006"><a xlink:title=" ">
<path fill="none" stroke="#63b8ff" d="M456.69,-364.84C463.86,-361.86 471.77,-358.53 479,-355.41 495.69,-348.21 514.23,-339.99 529.35,-333.23"/>
<polygon fill="#63b8ff" stroke="#63b8ff" points="531.05,-336.3 538.74,-329.02 528.18,-329.91 531.05,-336.3"/>
</a>
</g>
</g>
<!-- Node16&#45;&gt;Node10 -->
<g id="edge24_Node000016_Node000010" class="edge">
<title>Node16&#45;&gt;Node10</title>
<g id="a_edge24_Node000016_Node000010"><a xlink:title=" ">
<path fill="none" stroke="#63b8ff" d="M472.11,-383.91C549.91,-402.12 722.14,-437.4 770,-405.41 804.79,-382.15 782.76,-353.21 806,-318.41 806.12,-318.23 806.25,-318.04 806.37,-317.86"/>
<polygon fill="#63b8ff" stroke="#63b8ff" points="809.18,-319.96 812.96,-310.07 803.83,-315.44 809.18,-319.96"/>
</a>
</g>
</g>
<!-- Node16&#45;&gt;Node11 -->
<g id="edge26_Node000016_Node000011" class="edge">
<title>Node16&#45;&gt;Node11</title>
<g id="a_edge26_Node000016_Node000011"><a xlink:title=" ">
<path fill="none" stroke="#63b8ff" d="M467.39,-383.92C471.67,-386.19 475.7,-388.98 479,-392.41 512.59,-427.39 475.46,-467.34 515,-495.41 561.21,-528.21 723.9,-528.37 770,-495.41 814.7,-463.45 822.81,-392.18 824.01,-357.35"/>
<polygon fill="#63b8ff" stroke="#63b8ff" points="827.51,-357.1 824.19,-347.04 820.51,-356.98 827.51,-357.1"/>
</a>
</g>
</g>
<!-- Node17&#45;&gt;Node6 -->
<g id="edge29_Node000017_Node000006" class="edge">
<title>Node17&#45;&gt;Node6</title>
<g id="a_edge29_Node000017_Node000006"><a xlink:title=" ">
<path fill="none" stroke="#63b8ff" d="M449.78,-254.06C471.41,-266.89 509.84,-289.67 535.12,-304.66"/>
<polygon fill="#63b8ff" stroke="#63b8ff" points="533.4,-307.71 543.78,-309.79 536.97,-301.68 533.4,-307.71"/>
</a>
</g>
</g>
<!-- Node17&#45;&gt;Node10 -->
<g id="edge28_Node000017_Node000010" class="edge">
<title>Node17&#45;&gt;Node10</title>
<g id="a_edge28_Node000017_Node000010"><a xlink:title=" ">
<path fill="none" stroke="#63b8ff" d="M461.04,-234.86C520.89,-215.83 665.84,-179.21 770,-230.41 791.53,-240.99 806.9,-264.75 815.61,-281.65"/>
<polygon fill="#63b8ff" stroke="#63b8ff" points="812.46,-283.17 819.96,-290.65 818.76,-280.13 812.46,-283.17"/>
</a>
</g>
</g>
<!-- Node17&#45;&gt;Node11 -->
<g id="edge30_Node000017_Node000011" class="edge">
<title>Node17&#45;&gt;Node11</title>
<g id="a_edge30_Node000017_Node000011"><a xlink:title=" ">
<path fill="none" stroke="#63b8ff" d="M478.21,-242.06C558.11,-238.64 721.61,-235.46 770,-263.41 795.3,-278.02 787.88,-295.49 806,-318.41 806.46,-319 806.94,-319.59 807.44,-320.18"/>
<polygon fill="#63b8ff" stroke="#63b8ff" points="804.85,-322.53 814.12,-327.65 810.06,-317.87 804.85,-322.53"/>
</a>
</g>
</g>
<!-- Node18&#45;&gt;Node5 -->
<g id="edge33_Node000018_Node000005" class="edge">
<title>Node18&#45;&gt;Node5</title>
<g id="a_edge33_Node000018_Node000005"><a xlink:title=" ">
<path fill="none" stroke="#63b8ff" d="M478.81,-557.41C487.08,-557.41 495.79,-557.41 504.31,-557.41"/>
<polygon fill="#63b8ff" stroke="#63b8ff" points="504.58,-560.91 514.58,-557.41 504.58,-553.91 504.58,-560.91"/>
</a>
</g>
</g>
<!-- Node18&#45;&gt;Node6 -->
<g id="edge34_Node000018_Node000006" class="edge">
<title>Node18&#45;&gt;Node6</title>
<g id="a_edge34_Node000018_Node000006"><a xlink:title=" ">
<path fill="none" stroke="#63b8ff" d="M438.62,-547.78C457.65,-511.98 524.56,-386.08 550.04,-338.14"/>
<polygon fill="#63b8ff" stroke="#63b8ff" points="553.22,-339.63 554.82,-329.15 547.04,-336.34 553.22,-339.63"/>
</a>
</g>
</g>
<!-- Node18&#45;&gt;Node10 -->
<g id="edge32_Node000018_Node000010" class="edge">
<title>Node18&#45;&gt;Node10</title>
<g id="a_edge32_Node000018_Node000010"><a xlink:title=" ">
<path fill="none" stroke="#63b8ff" d="M458.3,-566.94C492.86,-578.68 556.89,-594.86 607,-575.41 698.5,-539.89 716.54,-508.72 770,-426.41 797.56,-383.98 779.4,-361.45 806,-318.41 806.12,-318.22 806.23,-318.03 806.36,-317.85"/>
<polygon fill="#63b8ff" stroke="#63b8ff" points="809.18,-319.92 812.81,-309.97 803.76,-315.49 809.18,-319.92"/>
</a>
</g>
</g>
<!-- Node18&#45;&gt;Node11 -->
<g id="edge35_Node000018_Node000011" class="edge">
<title>Node18&#45;&gt;Node11</title>
<g id="a_edge35_Node000018_Node000011"><a xlink:title=" ">
<path fill="none" stroke="#63b8ff" d="M444.09,-567.04C458.76,-579.66 486.64,-601.13 515,-609.41 623.79,-641.16 682.41,-681.32 770,-609.41 809.08,-577.33 820.38,-414.8 823.18,-357.47"/>
<polygon fill="#63b8ff" stroke="#63b8ff" points="826.69,-357.34 823.65,-347.19 819.7,-357.02 826.69,-357.34"/>
</a>
</g>
</g>
<!-- Node19&#45;&gt;Node6 -->
<g id="edge38_Node000019_Node000006" class="edge">
<title>Node19&#45;&gt;Node6</title>
<g id="a_edge38_Node000019_Node000006"><a xlink:title=" ">
<path fill="none" stroke="#63b8ff" d="M479.17,-330.91C487.51,-329.72 496.3,-328.47 504.88,-327.25"/>
<polygon fill="#63b8ff" stroke="#63b8ff" points="505.41,-330.71 514.82,-325.84 504.43,-323.78 505.41,-330.71"/>
</a>
</g>
</g>
<!-- Node19&#45;&gt;Node10 -->
<g id="edge37_Node000019_Node000010" class="edge">
<title>Node19&#45;&gt;Node10</title>
<g id="a_edge37_Node000019_Node000010"><a xlink:title=" ">
<path fill="none" stroke="#63b8ff" d="M464.74,-346.97C538.05,-368.64 718.79,-417.24 770,-386.41 799.3,-368.77 785.68,-345.92 806,-318.41 806.13,-318.23 806.26,-318.05 806.4,-317.88"/>
<polygon fill="#63b8ff" stroke="#63b8ff" points="809.17,-320.02 813.15,-310.2 803.92,-315.4 809.17,-320.02"/>
</a>
</g>
</g>
<!-- Node19&#45;&gt;Node11 -->
<g id="edge39_Node000019_Node000011" class="edge">
<title>Node19&#45;&gt;Node11</title>
<g id="a_edge39_Node000019_Node000011"><a xlink:title=" ">
<path fill="none" stroke="#63b8ff" d="M465.92,-347.01C470.62,-349.29 475.16,-352.06 479,-355.41 503.59,-376.87 486.83,-402.93 515,-419.41 612.83,-476.62 670.23,-473.17 770,-419.41 794.55,-406.18 809.78,-376.37 817.57,-356.58"/>
<polygon fill="#63b8ff" stroke="#63b8ff" points="820.91,-357.62 821.06,-347.03 814.34,-355.22 820.91,-357.62"/>
</a>
</g>
</g>
<!-- Node20&#45;&gt;Node6 -->
<g id="edge42_Node000020_Node000006" class="edge">
<title>Node20&#45;&gt;Node6</title>
<g id="a_edge42_Node000020_Node000006"><a xlink:title=" ">
<path fill="none" stroke="#63b8ff" d="M465.97,-160.95C470.66,-163.24 475.19,-166.02 479,-169.41 520.17,-205.97 544.29,-268.63 554.39,-300.13"/>
<polygon fill="#63b8ff" stroke="#63b8ff" points="551.1,-301.35 557.38,-309.88 557.79,-299.29 551.1,-301.35"/>
</a>
</g>
</g>
<!-- Node20&#45;&gt;Node14 -->
<g id="edge41_Node000020_Node000014" class="edge">
<title>Node20&#45;&gt;Node14</title>
<g id="a_edge41_Node000020_Node000014"><a xlink:title=" ">
<path fill="none" stroke="#63b8ff" d="M454.11,-141.8C474.78,-132.16 506.83,-117.21 530.26,-106.28"/>
<polygon fill="#63b8ff" stroke="#63b8ff" points="531.82,-109.41 539.4,-102.02 528.86,-103.07 531.82,-109.41"/>
</a>
</g>
</g>
</g>
</svg>

<g id="navigator" transform="translate(0 0)" fill="#404254">
  <rect fill="#f2f5e9" fill-opacity="0.5" stroke="#606060" stroke-width=".5" x="0" y="0" width="60" height="60"/>
  <use id="zoomplus" xlink:href="#zoomPlus" x="17" y="9" onmousedown="handleZoom(evt,'in')"/>
  <use id="zoomminus" xlink:href="#zoomMin" x="42" y="9" onmousedown="handleZoom(evt,'out')"/>
  <use id="reset" xlink:href="#resetDef" x="30" y="36" onmousedown="handleReset()"/>
   <use id="arrowup" xlink:href="#arrowUp" x="0" y="0" onmousedown="handlePan(0,-1)"/>
  <use id="arrowright" xlink:href="#arrowRight" x="0" y="0" onmousedown="handlePan(1,0)"/>
  <use id="arrowdown" xlink:href="#arrowDown" x="0" y="0" onmousedown="handlePan(0,1)"/>
  <use id="arrowleft" xlink:href="#arrowLeft" x="0" y="0" onmousedown="handlePan(-1,0)"/>
</g>
<svg viewBox="0 0 15 15" width="100%" height="30px" preserveAspectRatio="xMaxYMin meet">
 <g id="arrow_out" transform="scale(0.3 0.3)">
  <a xlink:href="render__player_8c_a078a3fa98164ddde21e074d7e0228b29_cgraph_org.svg" target="_base">
   <rect id="button" ry="5" rx="5" y="6" x="6" height="38" width="38"
        fill="#f2f5e9" fill-opacity="0.5" stroke="#606060" stroke-width="1.0"/>
   <path id="arrow"
     d="M 11.500037,31.436501 C 11.940474,20.09759 22.043105,11.32322 32.158766,21.979434 L 37.068811,17.246167 C 37.068811,17.246167 37.088388,32 37.088388,32 L 22.160133,31.978069 C 22.160133,31.978069 26.997745,27.140456 26.997745,27.140456 C 18.528582,18.264221 13.291696,25.230495 11.500037,31.436501 z"
     style="fill:#404040;"/>
  </a>
 </g>
</svg>

<style type='text/css'>
<![CDATA[
[data-mouse-over-selected='false'] { opacity: 0.7; }
[data-mouse-over-selected='true']  { opacity: 1.0; }
]]>
</style>
<script type="application/ecmascript"><![CDATA[
document.addEventListener('DOMContentLoaded', (event) => {
  highlightEdges();
  highlightAdjacentNodes();
});
]]></script>
</svg>
