<?xml version="1.0" encoding="UTF-8" standalone="no"?>
<!DOCTYPE svg PUBLIC "-//W3C//DTD SVG 1.1//EN"
 "http://www.w3.org/Graphics/SVG/1.1/DTD/svg11.dtd">
<!-- Generated by graphviz version 2.43.0 (0)
 -->
<!-- Title: courses/royal_raceway/course_textures.linkonly.c Pages: 1 -->
<!--zoomable 214 -->

<svg id="main" version="1.1" xmlns="http://www.w3.org/2000/svg" xmlns:xlink="http://www.w3.org/1999/xlink" xml:space="preserve" onload="init(evt)">
<style type="text/css"><![CDATA[
.node, .edge {opacity: 0.7;}
.node.selected, .edge.selected {opacity: 1;}
.edge:hover path { stroke: red; }
.edge:hover polygon { stroke: red; fill: red; }
]]></style>

<defs>
  <circle id="rim" cx="0" cy="0" r="7"/>
  <circle id="rim2" cx="0" cy="0" r="3.5"/>
  <g id="zoomPlus">
    <use xlink:href="#rim" fill="#404040"><set attributeName="fill" to="#808080" begin="zoomplus.mouseover" end="zoomplus.mouseout"/></use>
    <path d="M-4,0h8M0,-4v8" fill="none" stroke="white" stroke-width="1.5" pointer-events="none"/>
  </g>
  <g id="zoomMin">
    <use xlink:href="#rim" fill="#404040"><set attributeName="fill" to="#808080" begin="zoomminus.mouseover" end="zoomminus.mouseout"/></use>
    <path d="M-4,0h8" fill="none" stroke="white" stroke-width="1.5" pointer-events="none"/>
  </g>
  <g id="arrowUp" transform="translate(30 24)">
    <use xlink:href="#rim"/>
    <path pointer-events="none" fill="none" stroke="white" stroke-width="1.5" d="M0,-3.0v7 M-2.5,-0.5L0,-3.0L2.5,-0.5"/>
  </g>
  <g id="arrowRight" transform="rotate(90) translate(36 -43)">
    <use xlink:href="#rim"/>
    <path pointer-events="none" fill="none" stroke="white" stroke-width="1.5" d="M0,-3.0v7 M-2.5,-0.5L0,-3.0L2.5,-0.5"/>
  </g>
  <g id="arrowDown" transform="rotate(180) translate(-30 -48)">
    <use xlink:href="#rim"/>
    <path pointer-events="none" fill="none" stroke="white" stroke-width="1.5" d="M0,-3.0v7 M-2.5,-0.5L0,-3.0L2.5,-0.5"/>
  </g>
  <g id="arrowLeft" transform="rotate(270) translate(-36 17)">
    <use xlink:href="#rim"/>
    <path pointer-events="none" fill="none" stroke="white" stroke-width="1.5" d="M0,-3.0v7 M-2.5,-0.5L0,-3.0L2.5,-0.5"/>
  </g>
  <g id="resetDef">
    <use xlink:href="#rim2" fill="#404040"><set attributeName="fill" to="#808080" begin="reset.mouseover" end="reset.mouseout"/></use>
  </g>
</defs>
<script type="application/ecmascript">
var viewWidth = 7542;
var viewHeight = 214;
var sectionId = 'dynsection-0';
</script>
<script type="application/ecmascript" xlink:href="svg.min.js"/>
<svg id="graph" class="graph">
<g id="viewport">
<title>courses/royal_raceway/course_textures.linkonly.c</title>
<!-- Node1 -->
<g id="Node000001" class="node">
<title>Node1</title>
<g id="a_Node000001"><a xlink:title=" ">
<polygon fill="#999999" stroke="#666666" points="3821,-206 3675,-206 3675,-176 3821,-176 3821,-206"/>
<text text-anchor="start" x="3683" y="-194" font-family="Helvetica,sans-Serif" font-size="10.00">courses/royal_raceway</text>
<text text-anchor="middle" x="3748" y="-183" font-family="Helvetica,sans-Serif" font-size="10.00">/course_textures.linkonly.c</text>
</a>
</g>
</g>
<!-- Node2 -->
<g id="Node000002" class="node">
<title>Node2</title>
<g id="a_Node000002"><a xlink:href="royal__raceway_2course__textures_8linkonly_8h.html" target="_top" xlink:title=" ">
<polygon fill="white" stroke="#666666" points="146,-140 0,-140 0,-110 146,-110 146,-140"/>
<text text-anchor="start" x="8" y="-128" font-family="Helvetica,sans-Serif" font-size="10.00">courses/royal_raceway</text>
<text text-anchor="middle" x="73" y="-117" font-family="Helvetica,sans-Serif" font-size="10.00">/course_textures.linkonly.h</text>
</a>
</g>
</g>
<!-- Node1&#45;&gt;Node2 -->
<g id="edge1_Node000001_Node000002" class="edge">
<title>Node1&#45;&gt;Node2</title>
<g id="a_edge1_Node000001_Node000002"><a xlink:title=" ">
<path fill="none" stroke="#63b8ff" d="M3674.99,-189.66C3200.66,-187.34 563.42,-173.08 156.27,-139.84"/>
<polygon fill="#63b8ff" stroke="#63b8ff" points="156.5,-136.35 146.24,-138.98 155.9,-143.32 156.5,-136.35"/>
</a>
</g>
</g>
<!-- Node6 -->
<g id="Node000006" class="node">
<title>Node6</title>
<g id="a_Node000006"><a xlink:title=" ">
<polygon fill="#e0e0e0" stroke="#999999" points="323.5,-140 164.5,-140 164.5,-110 323.5,-110 323.5,-140"/>
<text text-anchor="start" x="172.5" y="-128" font-family="Helvetica,sans-Serif" font-size="10.00">textures/standalone</text>
<text text-anchor="middle" x="244" y="-117" font-family="Helvetica,sans-Serif" font-size="10.00">/texture_64619C.rgba16.inc.c</text>
</a>
</g>
</g>
<!-- Node1&#45;&gt;Node6 -->
<g id="edge6_Node000001_Node000006" class="edge">
<title>Node1&#45;&gt;Node6</title>
<g id="a_edge6_Node000001_Node000006"><a xlink:title=" ">
<path fill="none" stroke="#63b8ff" d="M3674.86,-189.56C3214.16,-186.7 720.91,-169.97 333.63,-140"/>
<polygon fill="#63b8ff" stroke="#63b8ff" points="333.81,-136.51 323.56,-139.18 333.24,-143.48 333.81,-136.51"/>
</a>
</g>
</g>
<!-- Node7 -->
<g id="Node000007" class="node">
<title>Node7</title>
<g id="a_Node000007"><a xlink:title=" ">
<polygon fill="#e0e0e0" stroke="#999999" points="499,-140 341,-140 341,-110 499,-110 499,-140"/>
<text text-anchor="start" x="349" y="-128" font-family="Helvetica,sans-Serif" font-size="10.00">textures/standalone</text>
<text text-anchor="middle" x="420" y="-117" font-family="Helvetica,sans-Serif" font-size="10.00">/texture_645134.rgba16.inc.c</text>
</a>
</g>
</g>
<!-- Node1&#45;&gt;Node7 -->
<g id="edge7_Node000001_Node000007" class="edge">
<title>Node1&#45;&gt;Node7</title>
<g id="a_edge7_Node000001_Node000007"><a xlink:title=" ">
<path fill="none" stroke="#63b8ff" d="M3674.81,-190.29C3257.51,-191.72 1174.22,-195.93 509.26,-140"/>
<polygon fill="#63b8ff" stroke="#63b8ff" points="509.35,-136.49 499.09,-139.13 508.75,-143.47 509.35,-136.49"/>
</a>
</g>
</g>
<!-- Node8 -->
<g id="Node000008" class="node">
<title>Node8</title>
<g id="a_Node000008"><a xlink:title=" ">
<polygon fill="#e0e0e0" stroke="#999999" points="663,-140 517,-140 517,-110 663,-110 663,-140"/>
<text text-anchor="start" x="525" y="-128" font-family="Helvetica,sans-Serif" font-size="10.00">textures/standalone</text>
<text text-anchor="middle" x="590" y="-117" font-family="Helvetica,sans-Serif" font-size="10.00">/wood_door_1.rgba16.inc.c</text>
</a>
</g>
</g>
<!-- Node1&#45;&gt;Node8 -->
<g id="edge8_Node000001_Node000008" class="edge">
<title>Node1&#45;&gt;Node8</title>
<g id="a_edge8_Node000001_Node000008"><a xlink:title=" ">
<path fill="none" stroke="#63b8ff" d="M3674.87,-189.48C3242.13,-186.33 1024.23,-168.91 673.31,-139.96"/>
<polygon fill="#63b8ff" stroke="#63b8ff" points="673.51,-136.46 663.24,-139.08 672.9,-143.43 673.51,-136.46"/>
</a>
</g>
</g>
<!-- Node9 -->
<g id="Node000009" class="node">
<title>Node9</title>
<g id="a_Node000009"><a xlink:title=" ">
<polygon fill="#e0e0e0" stroke="#999999" points="841,-140 681,-140 681,-110 841,-110 841,-140"/>
<text text-anchor="start" x="689" y="-128" font-family="Helvetica,sans-Serif" font-size="10.00">textures/standalone</text>
<text text-anchor="middle" x="761" y="-117" font-family="Helvetica,sans-Serif" font-size="10.00">/texture_64BB60.rgba16.inc.c</text>
</a>
</g>
</g>
<!-- Node1&#45;&gt;Node9 -->
<g id="edge9_Node000001_Node000009" class="edge">
<title>Node1&#45;&gt;Node9</title>
<g id="a_edge9_Node000001_Node000009"><a xlink:title=" ">
<path fill="none" stroke="#63b8ff" d="M3674.72,-190.1C3284.35,-190.41 1445.32,-189.26 851.77,-139.94"/>
<polygon fill="#63b8ff" stroke="#63b8ff" points="851.66,-136.42 841.4,-139.07 851.07,-143.4 851.66,-136.42"/>
</a>
</g>
</g>
<!-- Node10 -->
<g id="Node000010" class="node">
<title>Node10</title>
<g id="a_Node000010"><a xlink:title=" ">
<polygon fill="#e0e0e0" stroke="#999999" points="978.5,-140 859.5,-140 859.5,-110 978.5,-110 978.5,-140"/>
<text text-anchor="start" x="867.5" y="-128" font-family="Helvetica,sans-Serif" font-size="10.00">textures/standalone</text>
<text text-anchor="middle" x="919" y="-117" font-family="Helvetica,sans-Serif" font-size="10.00">/grass_3.rgba16.inc.c</text>
</a>
</g>
</g>
<!-- Node1&#45;&gt;Node10 -->
<g id="edge10_Node000001_Node000010" class="edge">
<title>Node1&#45;&gt;Node10</title>
<g id="a_edge10_Node000001_Node000010"><a xlink:title=" ">
<path fill="none" stroke="#63b8ff" d="M3674.86,-189.47C3269.54,-186.44 1306.28,-170.34 988.91,-139.86"/>
<polygon fill="#63b8ff" stroke="#63b8ff" points="989.04,-136.35 978.73,-138.81 988.32,-143.32 989.04,-136.35"/>
</a>
</g>
</g>
<!-- Node11 -->
<g id="Node000011" class="node">
<title>Node11</title>
<g id="a_Node000011"><a xlink:title=" ">
<polygon fill="#e0e0e0" stroke="#999999" points="1155,-140 997,-140 997,-110 1155,-110 1155,-140"/>
<text text-anchor="start" x="1005" y="-128" font-family="Helvetica,sans-Serif" font-size="10.00">textures/standalone</text>
<text text-anchor="middle" x="1076" y="-117" font-family="Helvetica,sans-Serif" font-size="10.00">/texture_64F9E8.rgba16.inc.c</text>
</a>
</g>
</g>
<!-- Node1&#45;&gt;Node11 -->
<g id="edge11_Node000001_Node000011" class="edge">
<title>Node1&#45;&gt;Node11</title>
<g id="a_edge11_Node000001_Node000011"><a xlink:title=" ">
<path fill="none" stroke="#63b8ff" d="M3674.96,-189.95C3311.26,-189.52 1692.53,-185.08 1165.44,-140.01"/>
<polygon fill="#63b8ff" stroke="#63b8ff" points="1165.36,-136.49 1155.09,-139.11 1164.75,-143.47 1165.36,-136.49"/>
</a>
</g>
</g>
<!-- Node12 -->
<g id="Node000012" class="node">
<title>Node12</title>
<g id="a_Node000012"><a xlink:title=" ">
<polygon fill="#e0e0e0" stroke="#999999" points="1293.5,-140 1172.5,-140 1172.5,-110 1293.5,-110 1293.5,-140"/>
<text text-anchor="start" x="1180.5" y="-128" font-family="Helvetica,sans-Serif" font-size="10.00">textures/standalone</text>
<text text-anchor="middle" x="1233" y="-117" font-family="Helvetica,sans-Serif" font-size="10.00">/flag_red.rgba16.inc.c</text>
</a>
</g>
</g>
<!-- Node1&#45;&gt;Node12 -->
<g id="edge12_Node000001_Node000012" class="edge">
<title>Node1&#45;&gt;Node12</title>
<g id="a_edge12_Node000001_Node000012"><a xlink:title=" ">
<path fill="none" stroke="#63b8ff" d="M3674.79,-190.25C3322.73,-191.18 1800.92,-192.14 1303.72,-139.89"/>
<polygon fill="#63b8ff" stroke="#63b8ff" points="1303.92,-136.39 1293.6,-138.8 1303.17,-143.35 1303.92,-136.39"/>
</a>
</g>
</g>
<!-- Node13 -->
<g id="Node000013" class="node">
<title>Node13</title>
<g id="a_Node000013"><a xlink:title=" ">
<polygon fill="#e0e0e0" stroke="#999999" points="1480.5,-140 1311.5,-140 1311.5,-110 1480.5,-110 1480.5,-140"/>
<text text-anchor="start" x="1319.5" y="-128" font-family="Helvetica,sans-Serif" font-size="10.00">textures/standalone</text>
<text text-anchor="middle" x="1396" y="-117" font-family="Helvetica,sans-Serif" font-size="10.00">/crown_jewel_blue.rgba16.inc.c</text>
</a>
</g>
</g>
<!-- Node1&#45;&gt;Node13 -->
<g id="edge13_Node000001_Node000013" class="edge">
<title>Node1&#45;&gt;Node13</title>
<g id="a_edge13_Node000001_Node000013"><a xlink:title=" ">
<path fill="none" stroke="#63b8ff" d="M3674.9,-189.62C3340.04,-187.68 1949.62,-177.56 1490.75,-139.96"/>
<polygon fill="#63b8ff" stroke="#63b8ff" points="1491,-136.47 1480.75,-139.12 1490.42,-143.44 1491,-136.47"/>
</a>
</g>
</g>
<!-- Node14 -->
<g id="Node000014" class="node">
<title>Node14</title>
<g id="a_Node000014"><a xlink:title=" ">
<polygon fill="#e0e0e0" stroke="#999999" points="1613,-140 1499,-140 1499,-110 1613,-110 1613,-140"/>
<text text-anchor="start" x="1507" y="-128" font-family="Helvetica,sans-Serif" font-size="10.00">textures/standalone</text>
<text text-anchor="middle" x="1556" y="-117" font-family="Helvetica,sans-Serif" font-size="10.00">/crown.rgba16.inc.c</text>
</a>
</g>
</g>
<!-- Node1&#45;&gt;Node14 -->
<g id="edge14_Node000001_Node000014" class="edge">
<title>Node1&#45;&gt;Node14</title>
<g id="a_edge14_Node000001_Node000014"><a xlink:title=" ">
<path fill="none" stroke="#63b8ff" d="M3674.85,-190.07C3352.2,-190.11 2053.64,-187.32 1623.27,-139.81"/>
<polygon fill="#63b8ff" stroke="#63b8ff" points="1623.6,-136.33 1613.27,-138.68 1622.81,-143.28 1623.6,-136.33"/>
</a>
</g>
</g>
<!-- Node15 -->
<g id="Node000015" class="node">
<title>Node15</title>
<g id="a_Node000015"><a xlink:title=" ">
<polygon fill="#e0e0e0" stroke="#999999" points="1800.5,-140 1631.5,-140 1631.5,-110 1800.5,-110 1800.5,-140"/>
<text text-anchor="start" x="1639.5" y="-128" font-family="Helvetica,sans-Serif" font-size="10.00">textures/standalone</text>
<text text-anchor="middle" x="1716" y="-117" font-family="Helvetica,sans-Serif" font-size="10.00">/crown_jewel_pink.rgba16.inc.c</text>
</a>
</g>
</g>
<!-- Node1&#45;&gt;Node15 -->
<g id="edge15_Node000001_Node000015" class="edge">
<title>Node1&#45;&gt;Node15</title>
<g id="a_edge15_Node000001_Node000015"><a xlink:title=" ">
<path fill="none" stroke="#63b8ff" d="M3675,-189.31C3370.96,-186.26 2203.28,-172.66 1811,-139.98"/>
<polygon fill="#63b8ff" stroke="#63b8ff" points="1811.01,-136.47 1800.75,-139.11 1810.41,-143.44 1811.01,-136.47"/>
</a>
</g>
</g>
<!-- Node16 -->
<g id="Node000016" class="node">
<title>Node16</title>
<g id="a_Node000016"><a xlink:title=" ">
<polygon fill="#e0e0e0" stroke="#999999" points="1985,-140 1819,-140 1819,-110 1985,-110 1985,-140"/>
<text text-anchor="start" x="1827" y="-128" font-family="Helvetica,sans-Serif" font-size="10.00">textures/standalone</text>
<text text-anchor="middle" x="1902" y="-117" font-family="Helvetica,sans-Serif" font-size="10.00">/sign_koopa_air_0.rgba16.inc.c</text>
</a>
</g>
</g>
<!-- Node1&#45;&gt;Node16 -->
<g id="edge16_Node000001_Node000016" class="edge">
<title>Node1&#45;&gt;Node16</title>
<g id="a_edge16_Node000001_Node000016"><a xlink:title=" ">
<path fill="none" stroke="#63b8ff" d="M3674.98,-189.11C3389.59,-185.46 2348.41,-170.38 1995.18,-140.01"/>
<polygon fill="#63b8ff" stroke="#63b8ff" points="1995.46,-136.52 1985.19,-139.13 1994.84,-143.49 1995.46,-136.52"/>
</a>
</g>
</g>
<!-- Node17 -->
<g id="Node000017" class="node">
<title>Node17</title>
<g id="a_Node000017"><a xlink:title=" ">
<polygon fill="#e0e0e0" stroke="#999999" points="2169,-140 2003,-140 2003,-110 2169,-110 2169,-140"/>
<text text-anchor="start" x="2011" y="-128" font-family="Helvetica,sans-Serif" font-size="10.00">textures/standalone</text>
<text text-anchor="middle" x="2086" y="-117" font-family="Helvetica,sans-Serif" font-size="10.00">/sign_koopa_air_1.rgba16.inc.c</text>
</a>
</g>
</g>
<!-- Node1&#45;&gt;Node17 -->
<g id="edge17_Node000001_Node000017" class="edge">
<title>Node1&#45;&gt;Node17</title>
<g id="a_edge17_Node000001_Node000017"><a xlink:title=" ">
<path fill="none" stroke="#63b8ff" d="M3674.98,-188.83C3409.4,-184.4 2494.3,-167.54 2179.24,-140.01"/>
<polygon fill="#63b8ff" stroke="#63b8ff" points="2179.46,-136.52 2169.19,-139.11 2178.84,-143.49 2179.46,-136.52"/>
</a>
</g>
</g>
<!-- Node18 -->
<g id="Node000018" class="node">
<title>Node18</title>
<g id="a_Node000018"><a xlink:title=" ">
<polygon fill="#e0e0e0" stroke="#999999" points="2345,-140 2187,-140 2187,-110 2345,-110 2345,-140"/>
<text text-anchor="start" x="2195" y="-128" font-family="Helvetica,sans-Serif" font-size="10.00">textures/standalone</text>
<text text-anchor="middle" x="2266" y="-117" font-family="Helvetica,sans-Serif" font-size="10.00">/texture_6684F8.rgba16.inc.c</text>
</a>
</g>
</g>
<!-- Node1&#45;&gt;Node18 -->
<g id="edge18_Node000001_Node000018" class="edge">
<title>Node1&#45;&gt;Node18</title>
<g id="a_edge18_Node000001_Node000018"><a xlink:title=" ">
<path fill="none" stroke="#63b8ff" d="M3674.92,-190.46C3467.59,-191.11 2858.14,-188.43 2355,-140 2354.9,-139.99 2354.8,-139.98 2354.69,-139.97"/>
<polygon fill="#63b8ff" stroke="#63b8ff" points="2355.35,-136.52 2345.04,-138.94 2354.61,-143.48 2355.35,-136.52"/>
</a>
</g>
</g>
<!-- Node19 -->
<g id="Node000019" class="node">
<title>Node19</title>
<g id="a_Node000019"><a xlink:title=" ">
<polygon fill="#e0e0e0" stroke="#999999" points="2508.5,-140 2363.5,-140 2363.5,-110 2508.5,-110 2508.5,-140"/>
<text text-anchor="start" x="2371.5" y="-128" font-family="Helvetica,sans-Serif" font-size="10.00">textures/standalone</text>
<text text-anchor="middle" x="2436" y="-117" font-family="Helvetica,sans-Serif" font-size="10.00">/sign_luigis_0.rgba16.inc.c</text>
</a>
</g>
</g>
<!-- Node1&#45;&gt;Node19 -->
<g id="edge19_Node000001_Node000019" class="edge">
<title>Node1&#45;&gt;Node19</title>
<g id="a_edge19_Node000001_Node000019"><a xlink:title=" ">
<path fill="none" stroke="#63b8ff" d="M3674.98,-190.3C3485.64,-190.37 2963.3,-186.09 2518.96,-139.99"/>
<polygon fill="#63b8ff" stroke="#63b8ff" points="2519.12,-136.49 2508.81,-138.93 2518.39,-143.45 2519.12,-136.49"/>
</a>
</g>
</g>
<!-- Node20 -->
<g id="Node000020" class="node">
<title>Node20</title>
<g id="a_Node000020"><a xlink:title=" ">
<polygon fill="#e0e0e0" stroke="#999999" points="2671.5,-140 2526.5,-140 2526.5,-110 2671.5,-110 2671.5,-140"/>
<text text-anchor="start" x="2534.5" y="-128" font-family="Helvetica,sans-Serif" font-size="10.00">textures/standalone</text>
<text text-anchor="middle" x="2599" y="-117" font-family="Helvetica,sans-Serif" font-size="10.00">/sign_luigis_1.rgba16.inc.c</text>
</a>
</g>
</g>
<!-- Node1&#45;&gt;Node20 -->
<g id="edge20_Node000001_Node000020" class="edge">
<title>Node1&#45;&gt;Node20</title>
<g id="a_edge20_Node000001_Node000020"><a xlink:title=" ">
<path fill="none" stroke="#63b8ff" d="M3674.99,-189.65C3503.42,-188.16 3061.06,-180.48 2681.88,-139.99"/>
<polygon fill="#63b8ff" stroke="#63b8ff" points="2682.13,-136.5 2671.81,-138.91 2681.38,-143.46 2682.13,-136.5"/>
</a>
</g>
</g>
<!-- Node21 -->
<g id="Node000021" class="node">
<title>Node21</title>
<g id="a_Node000021"><a xlink:title=" ">
<polygon fill="#e0e0e0" stroke="#999999" points="2860.5,-140 2689.5,-140 2689.5,-110 2860.5,-110 2860.5,-140"/>
<text text-anchor="start" x="2697.5" y="-128" font-family="Helvetica,sans-Serif" font-size="10.00">textures/standalone</text>
<text text-anchor="middle" x="2775" y="-117" font-family="Helvetica,sans-Serif" font-size="10.00">/sign_mario_star_0.rgba16.inc.c</text>
</a>
</g>
</g>
<!-- Node1&#45;&gt;Node21 -->
<g id="edge21_Node000001_Node000021" class="edge">
<title>Node1&#45;&gt;Node21</title>
<g id="a_edge21_Node000001_Node000021"><a xlink:title=" ">
<path fill="none" stroke="#63b8ff" d="M3674.98,-188.05C3525.91,-183.59 3175.69,-170.65 2871.02,-140.03"/>
<polygon fill="#63b8ff" stroke="#63b8ff" points="2870.96,-136.51 2860.66,-138.98 2870.26,-143.47 2870.96,-136.51"/>
</a>
</g>
</g>
<!-- Node22 -->
<g id="Node000022" class="node">
<title>Node22</title>
<g id="a_Node000022"><a xlink:title=" ">
<polygon fill="#e0e0e0" stroke="#999999" points="3049.5,-140 2878.5,-140 2878.5,-110 3049.5,-110 3049.5,-140"/>
<text text-anchor="start" x="2886.5" y="-128" font-family="Helvetica,sans-Serif" font-size="10.00">textures/standalone</text>
<text text-anchor="middle" x="2964" y="-117" font-family="Helvetica,sans-Serif" font-size="10.00">/sign_mario_star_1.rgba16.inc.c</text>
</a>
</g>
</g>
<!-- Node1&#45;&gt;Node22 -->
<g id="edge22_Node000001_Node000022" class="edge">
<title>Node1&#45;&gt;Node22</title>
<g id="a_edge22_Node000001_Node000022"><a xlink:title=" ">
<path fill="none" stroke="#63b8ff" d="M3674.92,-186.47C3550.79,-180.09 3290.59,-165.03 3059.93,-140.04"/>
<polygon fill="#63b8ff" stroke="#63b8ff" points="3059.99,-136.53 3049.67,-138.92 3059.23,-143.49 3059.99,-136.53"/>
</a>
</g>
</g>
<!-- Node23 -->
<g id="Node000023" class="node">
<title>Node23</title>
<g id="a_Node000023"><a xlink:title=" ">
<polygon fill="#e0e0e0" stroke="#999999" points="3228,-140 3068,-140 3068,-110 3228,-110 3228,-140"/>
<text text-anchor="start" x="3076" y="-128" font-family="Helvetica,sans-Serif" font-size="10.00">textures/standalone</text>
<text text-anchor="middle" x="3148" y="-117" font-family="Helvetica,sans-Serif" font-size="10.00">/texture_66CA98.rgba16.inc.c</text>
</a>
</g>
</g>
<!-- Node1&#45;&gt;Node23 -->
<g id="edge23_Node000001_Node000023" class="edge">
<title>Node1&#45;&gt;Node23</title>
<g id="a_edge23_Node000001_Node000023"><a xlink:title=" ">
<path fill="none" stroke="#63b8ff" d="M3674.8,-184.13C3577.66,-176.06 3400.57,-160.32 3238.59,-140.02"/>
<polygon fill="#63b8ff" stroke="#63b8ff" points="3238.8,-136.52 3228.44,-138.74 3237.92,-143.47 3238.8,-136.52"/>
</a>
</g>
</g>
<!-- Node24 -->
<g id="Node000024" class="node">
<title>Node24</title>
<g id="a_Node000024"><a xlink:title=" ">
<polygon fill="#e0e0e0" stroke="#999999" points="3419.5,-140 3246.5,-140 3246.5,-110 3419.5,-110 3419.5,-140"/>
<text text-anchor="start" x="3254.5" y="-128" font-family="Helvetica,sans-Serif" font-size="10.00">textures/standalone</text>
<text text-anchor="middle" x="3333" y="-117" font-family="Helvetica,sans-Serif" font-size="10.00">/checkerboard_pink.rgba16.inc.c</text>
</a>
</g>
</g>
<!-- Node1&#45;&gt;Node24 -->
<g id="edge24_Node000001_Node000024" class="edge">
<title>Node1&#45;&gt;Node24</title>
<g id="a_edge24_Node000001_Node000024"><a xlink:title=" ">
<path fill="none" stroke="#63b8ff" d="M3674.76,-178.71C3606.51,-168.18 3504.28,-152.41 3429.42,-140.87"/>
<polygon fill="#63b8ff" stroke="#63b8ff" points="3429.92,-137.41 3419.51,-139.34 3428.85,-144.32 3429.92,-137.41"/>
</a>
</g>
</g>
<!-- Node25 -->
<g id="Node000025" class="node">
<title>Node25</title>
<g id="a_Node000025"><a xlink:title=" ">
<polygon fill="#e0e0e0" stroke="#999999" points="3598,-140 3438,-140 3438,-110 3598,-110 3598,-140"/>
<text text-anchor="start" x="3446" y="-128" font-family="Helvetica,sans-Serif" font-size="10.00">textures/standalone</text>
<text text-anchor="middle" x="3518" y="-117" font-family="Helvetica,sans-Serif" font-size="10.00">/texture_670AC8.rgba16.inc.c</text>
</a>
</g>
</g>
<!-- Node1&#45;&gt;Node25 -->
<g id="edge25_Node000001_Node000025" class="edge">
<title>Node1&#45;&gt;Node25</title>
<g id="a_edge25_Node000001_Node000025"><a xlink:title=" ">
<path fill="none" stroke="#63b8ff" d="M3697.53,-175.95C3662.32,-166.16 3615.19,-153.05 3578.06,-142.71"/>
<polygon fill="#63b8ff" stroke="#63b8ff" points="3578.93,-139.32 3568.36,-140.01 3577.05,-146.07 3578.93,-139.32"/>
</a>
</g>
</g>
<!-- Node26 -->
<g id="Node000026" class="node">
<title>Node26</title>
<g id="a_Node000026"><a xlink:title=" ">
<polygon fill="#e0e0e0" stroke="#999999" points="3731.5,-140 3616.5,-140 3616.5,-110 3731.5,-110 3731.5,-140"/>
<text text-anchor="start" x="3624.5" y="-128" font-family="Helvetica,sans-Serif" font-size="10.00">textures/standalone</text>
<text text-anchor="middle" x="3674" y="-117" font-family="Helvetica,sans-Serif" font-size="10.00">/road_0.rgba16.inc.c</text>
</a>
</g>
</g>
<!-- Node1&#45;&gt;Node26 -->
<g id="edge26_Node000001_Node000026" class="edge">
<title>Node1&#45;&gt;Node26</title>
<g id="a_edge26_Node000001_Node000026"><a xlink:title=" ">
<path fill="none" stroke="#63b8ff" d="M3731.58,-175.8C3721.71,-167.26 3708.98,-156.25 3698,-146.75"/>
<polygon fill="#63b8ff" stroke="#63b8ff" points="3700.23,-144.06 3690.38,-140.16 3695.65,-149.35 3700.23,-144.06"/>
</a>
</g>
</g>
<!-- Node27 -->
<g id="Node000027" class="node">
<title>Node27</title>
<g id="a_Node000027"><a xlink:title=" ">
<polygon fill="#e0e0e0" stroke="#999999" points="3896,-140 3750,-140 3750,-110 3896,-110 3896,-140"/>
<text text-anchor="start" x="3758" y="-128" font-family="Helvetica,sans-Serif" font-size="10.00">textures/standalone</text>
<text text-anchor="middle" x="3823" y="-117" font-family="Helvetica,sans-Serif" font-size="10.00">/road_finish_0.rgba16.inc.c</text>
</a>
</g>
</g>
<!-- Node1&#45;&gt;Node27 -->
<g id="edge27_Node000001_Node000027" class="edge">
<title>Node1&#45;&gt;Node27</title>
<g id="a_edge27_Node000001_Node000027"><a xlink:title=" ">
<path fill="none" stroke="#63b8ff" d="M3764.64,-175.8C3774.65,-167.26 3787.55,-156.25 3798.68,-146.75"/>
<polygon fill="#63b8ff" stroke="#63b8ff" points="3801.07,-149.32 3806.4,-140.16 3796.52,-143.99 3801.07,-149.32"/>
</a>
</g>
</g>
<!-- Node28 -->
<g id="Node000028" class="node">
<title>Node28</title>
<g id="a_Node000028"><a xlink:title=" ">
<polygon fill="#e0e0e0" stroke="#999999" points="4048,-140 3914,-140 3914,-110 4048,-110 4048,-140"/>
<text text-anchor="start" x="3922" y="-128" font-family="Helvetica,sans-Serif" font-size="10.00">textures/standalone</text>
<text text-anchor="middle" x="3981" y="-117" font-family="Helvetica,sans-Serif" font-size="10.00">/sign_yoshi.rgba16.inc.c</text>
</a>
</g>
</g>
<!-- Node1&#45;&gt;Node28 -->
<g id="edge28_Node000001_Node000028" class="edge">
<title>Node1&#45;&gt;Node28</title>
<g id="a_edge28_Node000001_Node000028"><a xlink:title=" ">
<path fill="none" stroke="#63b8ff" d="M3799.13,-175.95C3834.79,-166.16 3882.54,-153.05 3920.16,-142.71"/>
<polygon fill="#63b8ff" stroke="#63b8ff" points="3921.27,-146.04 3929.99,-140.01 3919.42,-139.29 3921.27,-146.04"/>
</a>
</g>
</g>
<!-- Node29 -->
<g id="Node000029" class="node">
<title>Node29</title>
<g id="a_Node000029"><a xlink:title=" ">
<polygon fill="#e0e0e0" stroke="#999999" points="4265.5,-140 4066.5,-140 4066.5,-110 4265.5,-110 4265.5,-140"/>
<text text-anchor="start" x="4074.5" y="-128" font-family="Helvetica,sans-Serif" font-size="10.00">textures/standalone</text>
<text text-anchor="middle" x="4166" y="-117" font-family="Helvetica,sans-Serif" font-size="10.00">/checkerboard_blue_gray.rgba16.inc.c</text>
</a>
</g>
</g>
<!-- Node1&#45;&gt;Node29 -->
<g id="edge29_Node000001_Node000029" class="edge">
<title>Node1&#45;&gt;Node29</title>
<g id="a_edge29_Node000001_Node000029"><a xlink:title=" ">
<path fill="none" stroke="#63b8ff" d="M3821.29,-178.78C3888.74,-168.45 3989.41,-153.04 4064.57,-141.53"/>
<polygon fill="#63b8ff" stroke="#63b8ff" points="4065.17,-144.98 4074.53,-140.01 4064.11,-138.06 4065.17,-144.98"/>
</a>
</g>
</g>
<!-- Node30 -->
<g id="Node000030" class="node">
<title>Node30</title>
<g id="a_Node000030"><a xlink:title=" ">
<polygon fill="#e0e0e0" stroke="#999999" points="4430,-140 4284,-140 4284,-110 4430,-110 4430,-140"/>
<text text-anchor="start" x="4292" y="-128" font-family="Helvetica,sans-Serif" font-size="10.00">textures/standalone</text>
<text text-anchor="middle" x="4357" y="-117" font-family="Helvetica,sans-Serif" font-size="10.00">/castle_bricks.rgba16.inc.c</text>
</a>
</g>
</g>
<!-- Node1&#45;&gt;Node30 -->
<g id="edge30_Node000001_Node000030" class="edge">
<title>Node1&#45;&gt;Node30</title>
<g id="a_edge30_Node000001_Node000030"><a xlink:title=" ">
<path fill="none" stroke="#63b8ff" d="M3821.08,-184.8C3921.02,-177.29 4106.11,-162.03 4273.73,-140.11"/>
<polygon fill="#63b8ff" stroke="#63b8ff" points="4274.27,-143.57 4283.72,-138.79 4273.35,-136.63 4274.27,-143.57"/>
</a>
</g>
</g>
<!-- Node31 -->
<g id="Node000031" class="node">
<title>Node31</title>
<g id="a_Node000031"><a xlink:title=" ">
<polygon fill="#e0e0e0" stroke="#999999" points="4595.5,-140 4448.5,-140 4448.5,-110 4595.5,-110 4595.5,-140"/>
<text text-anchor="start" x="4456.5" y="-128" font-family="Helvetica,sans-Serif" font-size="10.00">textures/standalone</text>
<text text-anchor="middle" x="4522" y="-117" font-family="Helvetica,sans-Serif" font-size="10.00">/castle_bridge.rgba16.inc.c</text>
</a>
</g>
</g>
<!-- Node1&#45;&gt;Node31 -->
<g id="edge31_Node000001_Node000031" class="edge">
<title>Node1&#45;&gt;Node31</title>
<g id="a_edge31_Node000001_Node000031"><a xlink:title=" ">
<path fill="none" stroke="#63b8ff" d="M3821.09,-186.99C3945.64,-181.37 4207.1,-167.38 4438.34,-140"/>
<polygon fill="#63b8ff" stroke="#63b8ff" points="4438.77,-143.47 4448.29,-138.81 4437.94,-136.52 4438.77,-143.47"/>
</a>
</g>
</g>
<!-- Node32 -->
<g id="Node000032" class="node">
<title>Node32</title>
<g id="a_Node000032"><a xlink:title=" ">
<polygon fill="#e0e0e0" stroke="#999999" points="4732.5,-140 4613.5,-140 4613.5,-110 4732.5,-110 4732.5,-140"/>
<text text-anchor="start" x="4621.5" y="-128" font-family="Helvetica,sans-Serif" font-size="10.00">textures/standalone</text>
<text text-anchor="middle" x="4673" y="-117" font-family="Helvetica,sans-Serif" font-size="10.00">/grass_8.rgba16.inc.c</text>
</a>
</g>
</g>
<!-- Node1&#45;&gt;Node32 -->
<g id="edge32_Node000001_Node000032" class="edge">
<title>Node1&#45;&gt;Node32</title>
<g id="a_edge32_Node000001_Node000032"><a xlink:title=" ">
<path fill="none" stroke="#63b8ff" d="M3821.14,-189.29C3967.88,-187.1 4308.72,-178.12 4603.36,-140.09"/>
<polygon fill="#63b8ff" stroke="#63b8ff" points="4603.92,-143.55 4613.38,-138.78 4603.01,-136.61 4603.92,-143.55"/>
</a>
</g>
</g>
<!-- Node33 -->
<g id="Node000033" class="node">
<title>Node33</title>
<g id="a_Node000033"><a xlink:title=" ">
<polygon fill="#e0e0e0" stroke="#999999" points="4869.5,-140 4750.5,-140 4750.5,-110 4869.5,-110 4869.5,-140"/>
<text text-anchor="start" x="4758.5" y="-128" font-family="Helvetica,sans-Serif" font-size="10.00">textures/standalone</text>
<text text-anchor="middle" x="4810" y="-117" font-family="Helvetica,sans-Serif" font-size="10.00">/grass_9.rgba16.inc.c</text>
</a>
</g>
</g>
<!-- Node1&#45;&gt;Node33 -->
<g id="edge33_Node000001_Node000033" class="edge">
<title>Node1&#45;&gt;Node33</title>
<g id="a_edge33_Node000001_Node000033"><a xlink:title=" ">
<path fill="none" stroke="#63b8ff" d="M3821.29,-190.13C3984.8,-189.6 4391.77,-183.71 4740.35,-140.08"/>
<polygon fill="#63b8ff" stroke="#63b8ff" points="4740.9,-143.54 4750.38,-138.81 4740.02,-136.59 4740.9,-143.54"/>
</a>
</g>
</g>
<!-- Node34 -->
<g id="Node000034" class="node">
<title>Node34</title>
<g id="a_Node000034"><a xlink:title=" ">
<polygon fill="#e0e0e0" stroke="#999999" points="5046.5,-140 4887.5,-140 4887.5,-110 5046.5,-110 5046.5,-140"/>
<text text-anchor="start" x="4895.5" y="-128" font-family="Helvetica,sans-Serif" font-size="10.00">textures/standalone</text>
<text text-anchor="middle" x="4967" y="-117" font-family="Helvetica,sans-Serif" font-size="10.00">/texture_6646B8.rgba16.inc.c</text>
</a>
</g>
</g>
<!-- Node1&#45;&gt;Node34 -->
<g id="edge34_Node000001_Node000034" class="edge">
<title>Node1&#45;&gt;Node34</title>
<g id="a_edge34_Node000001_Node000034"><a xlink:title=" ">
<path fill="none" stroke="#63b8ff" d="M3821.31,-189.64C4000.2,-188.13 4473.37,-180.42 4877.3,-140.09"/>
<polygon fill="#63b8ff" stroke="#63b8ff" points="4877.83,-143.56 4887.43,-139.07 4877.13,-136.59 4877.83,-143.56"/>
</a>
</g>
</g>
<!-- Node35 -->
<g id="Node000035" class="node">
<title>Node35</title>
<g id="a_Node000035"><a xlink:title=" ">
<polygon fill="#e0e0e0" stroke="#999999" points="5222,-140 5064,-140 5064,-110 5222,-110 5222,-140"/>
<text text-anchor="start" x="5072" y="-128" font-family="Helvetica,sans-Serif" font-size="10.00">textures/standalone</text>
<text text-anchor="middle" x="5143" y="-117" font-family="Helvetica,sans-Serif" font-size="10.00">/texture_664408.rgba16.inc.c</text>
</a>
</g>
</g>
<!-- Node1&#45;&gt;Node35 -->
<g id="edge35_Node000001_Node000035" class="edge">
<title>Node1&#45;&gt;Node35</title>
<g id="a_edge35_Node000001_Node000035"><a xlink:title=" ">
<path fill="none" stroke="#63b8ff" d="M3821.25,-190.31C4018.82,-190.48 4579.31,-186.55 5053.73,-140.15"/>
<polygon fill="#63b8ff" stroke="#63b8ff" points="5054.26,-143.62 5063.87,-139.15 5053.57,-136.65 5054.26,-143.62"/>
</a>
</g>
</g>
<!-- Node36 -->
<g id="Node000036" class="node">
<title>Node36</title>
<g id="a_Node000036"><a xlink:title=" ">
<polygon fill="#e0e0e0" stroke="#999999" points="5372,-140 5240,-140 5240,-110 5372,-110 5372,-140"/>
<text text-anchor="start" x="5248" y="-128" font-family="Helvetica,sans-Serif" font-size="10.00">textures/standalone</text>
<text text-anchor="middle" x="5306" y="-117" font-family="Helvetica,sans-Serif" font-size="10.00">/bricks_red.rgba16.inc.c</text>
</a>
</g>
</g>
<!-- Node1&#45;&gt;Node36 -->
<g id="edge36_Node000001_Node000036" class="edge">
<title>Node1&#45;&gt;Node36</title>
<g id="a_edge36_Node000001_Node000036"><a xlink:title=" ">
<path fill="none" stroke="#63b8ff" d="M3821.42,-188.99C4077.74,-185.25 4932.79,-170.78 5229.51,-140.01"/>
<polygon fill="#63b8ff" stroke="#63b8ff" points="5230.26,-143.45 5239.83,-138.91 5229.51,-136.49 5230.26,-143.45"/>
</a>
</g>
</g>
<!-- Node37 -->
<g id="Node000037" class="node">
<title>Node37</title>
<g id="a_Node000037"><a xlink:title=" ">
<polygon fill="#e0e0e0" stroke="#999999" points="5550,-140 5390,-140 5390,-110 5550,-110 5550,-140"/>
<text text-anchor="start" x="5398" y="-128" font-family="Helvetica,sans-Serif" font-size="10.00">textures/standalone</text>
<text text-anchor="middle" x="5470" y="-117" font-family="Helvetica,sans-Serif" font-size="10.00">/texture_665C0C.rgba16.inc.c</text>
</a>
</g>
</g>
<!-- Node1&#45;&gt;Node37 -->
<g id="edge37_Node000001_Node000037" class="edge">
<title>Node1&#45;&gt;Node37</title>
<g id="a_edge37_Node000001_Node000037"><a xlink:title=" ">
<path fill="none" stroke="#63b8ff" d="M3821.1,-188.98C4093.71,-185 5051.84,-169.27 5379.55,-140.03"/>
<polygon fill="#63b8ff" stroke="#63b8ff" points="5379.89,-143.52 5389.53,-139.12 5379.25,-136.55 5379.89,-143.52"/>
</a>
</g>
</g>
<!-- Node38 -->
<g id="Node000038" class="node">
<title>Node38</title>
<g id="a_Node000038"><a xlink:title=" ">
<polygon fill="#e0e0e0" stroke="#999999" points="5728,-140 5568,-140 5568,-110 5728,-110 5728,-140"/>
<text text-anchor="start" x="5576" y="-128" font-family="Helvetica,sans-Serif" font-size="10.00">textures/standalone</text>
<text text-anchor="middle" x="5648" y="-117" font-family="Helvetica,sans-Serif" font-size="10.00">/texture_6661AC.rgba16.inc.c</text>
</a>
</g>
</g>
<!-- Node1&#45;&gt;Node38 -->
<g id="edge38_Node000001_Node000038" class="edge">
<title>Node1&#45;&gt;Node38</title>
<g id="a_edge38_Node000001_Node000038"><a xlink:title=" ">
<path fill="none" stroke="#63b8ff" d="M3821.14,-189.24C4112.6,-186 5192.71,-172.12 5557.47,-140.04"/>
<polygon fill="#63b8ff" stroke="#63b8ff" points="5557.88,-143.52 5567.53,-139.13 5557.25,-136.54 5557.88,-143.52"/>
</a>
</g>
</g>
<!-- Node39 -->
<g id="Node000039" class="node">
<title>Node39</title>
<g id="a_Node000039"><a xlink:title=" ">
<polygon fill="#e0e0e0" stroke="#999999" points="5905.5,-140 5746.5,-140 5746.5,-110 5905.5,-110 5905.5,-140"/>
<text text-anchor="start" x="5754.5" y="-128" font-family="Helvetica,sans-Serif" font-size="10.00">textures/standalone</text>
<text text-anchor="middle" x="5826" y="-117" font-family="Helvetica,sans-Serif" font-size="10.00">/texture_6663A4.rgba16.inc.c</text>
</a>
</g>
</g>
<!-- Node1&#45;&gt;Node39 -->
<g id="edge39_Node000001_Node000039" class="edge">
<title>Node1&#45;&gt;Node39</title>
<g id="a_edge39_Node000001_Node000039"><a xlink:title=" ">
<path fill="none" stroke="#63b8ff" d="M3821.08,-189.45C4130.3,-186.9 5333.28,-174.99 5736.25,-139.95"/>
<polygon fill="#63b8ff" stroke="#63b8ff" points="5736.84,-143.41 5746.49,-139.04 5736.22,-136.44 5736.84,-143.41"/>
</a>
</g>
</g>
<!-- Node40 -->
<g id="Node000040" class="node">
<title>Node40</title>
<g id="a_Node000040"><a xlink:title=" ">
<polygon fill="#e0e0e0" stroke="#999999" points="6084.5,-140 5923.5,-140 5923.5,-110 6084.5,-110 6084.5,-140"/>
<text text-anchor="start" x="5931.5" y="-128" font-family="Helvetica,sans-Serif" font-size="10.00">textures/standalone</text>
<text text-anchor="middle" x="6004" y="-117" font-family="Helvetica,sans-Serif" font-size="10.00">/texture_667BAC.rgba16.inc.c</text>
</a>
</g>
</g>
<!-- Node1&#45;&gt;Node40 -->
<g id="edge40_Node000001_Node000040" class="edge">
<title>Node1&#45;&gt;Node40</title>
<g id="a_edge40_Node000001_Node000040"><a xlink:title=" ">
<path fill="none" stroke="#63b8ff" d="M3821.16,-189.62C4147.62,-187.72 5474.15,-177.86 5912.85,-140.1"/>
<polygon fill="#63b8ff" stroke="#63b8ff" points="5913.4,-143.56 5923.05,-139.2 5912.78,-136.59 5913.4,-143.56"/>
</a>
</g>
</g>
<!-- Node41 -->
<g id="Node000041" class="node">
<title>Node41</title>
<g id="a_Node000041"><a xlink:title=" ">
<polygon fill="#e0e0e0" stroke="#999999" points="6235,-140 6103,-140 6103,-110 6235,-110 6235,-140"/>
<text text-anchor="start" x="6111" y="-128" font-family="Helvetica,sans-Serif" font-size="10.00">textures/standalone</text>
<text text-anchor="middle" x="6169" y="-117" font-family="Helvetica,sans-Serif" font-size="10.00">/flag_red_2.rgba16.inc.c</text>
</a>
</g>
</g>
<!-- Node1&#45;&gt;Node41 -->
<g id="edge41_Node000001_Node000041" class="edge">
<title>Node1&#45;&gt;Node41</title>
<g id="a_edge41_Node000001_Node000041"><a xlink:title=" ">
<path fill="none" stroke="#63b8ff" d="M3821.08,-190.05C4164.02,-190.04 5616.59,-187.21 6092.79,-139.97"/>
<polygon fill="#63b8ff" stroke="#63b8ff" points="6093.24,-143.45 6102.83,-138.96 6092.53,-136.48 6093.24,-143.45"/>
</a>
</g>
</g>
<!-- Node42 -->
<g id="Node000042" class="node">
<title>Node42</title>
<g id="a_Node000042"><a xlink:title=" ">
<polygon fill="#e0e0e0" stroke="#999999" points="6414.5,-140 6253.5,-140 6253.5,-110 6414.5,-110 6414.5,-140"/>
<text text-anchor="start" x="6261.5" y="-128" font-family="Helvetica,sans-Serif" font-size="10.00">textures/standalone</text>
<text text-anchor="middle" x="6334" y="-117" font-family="Helvetica,sans-Serif" font-size="10.00">/texture_66DB60.rgba16.inc.c</text>
</a>
</g>
</g>
<!-- Node1&#45;&gt;Node42 -->
<g id="edge42_Node000001_Node000042" class="edge">
<title>Node1&#45;&gt;Node42</title>
<g id="a_edge42_Node000001_Node000042"><a xlink:title=" ">
<path fill="none" stroke="#63b8ff" d="M3821.2,-189.86C4177.66,-188.99 5734.7,-182.78 6243.13,-139.96"/>
<polygon fill="#63b8ff" stroke="#63b8ff" points="6243.45,-143.45 6253.11,-139.11 6242.85,-136.48 6243.45,-143.45"/>
</a>
</g>
</g>
<!-- Node43 -->
<g id="Node000043" class="node">
<title>Node43</title>
<g id="a_Node000043"><a xlink:title=" ">
<polygon fill="#e0e0e0" stroke="#999999" points="6609.5,-140 6432.5,-140 6432.5,-110 6609.5,-110 6609.5,-140"/>
<text text-anchor="start" x="6440.5" y="-128" font-family="Helvetica,sans-Serif" font-size="10.00">textures/standalone</text>
<text text-anchor="middle" x="6521" y="-117" font-family="Helvetica,sans-Serif" font-size="10.00">/stainglass_peach_0.rgba16.inc.c</text>
</a>
</g>
</g>
<!-- Node1&#45;&gt;Node43 -->
<g id="edge43_Node000001_Node000043" class="edge">
<title>Node1&#45;&gt;Node43</title>
<g id="a_edge43_Node000001_Node000043"><a xlink:title=" ">
<path fill="none" stroke="#63b8ff" d="M3821.14,-189.87C4192.86,-189.01 5875.91,-182.83 6421.92,-140.09"/>
<polygon fill="#63b8ff" stroke="#63b8ff" points="6422.55,-143.55 6432.24,-139.26 6422,-136.57 6422.55,-143.55"/>
</a>
</g>
</g>
<!-- Node44 -->
<g id="Node000044" class="node">
<title>Node44</title>
<g id="a_Node000044"><a xlink:title=" ">
<polygon fill="#e0e0e0" stroke="#999999" points="6804.5,-140 6627.5,-140 6627.5,-110 6804.5,-110 6804.5,-140"/>
<text text-anchor="start" x="6635.5" y="-128" font-family="Helvetica,sans-Serif" font-size="10.00">textures/standalone</text>
<text text-anchor="middle" x="6716" y="-117" font-family="Helvetica,sans-Serif" font-size="10.00">/stainglass_peach_1.rgba16.inc.c</text>
</a>
</g>
</g>
<!-- Node1&#45;&gt;Node44 -->
<g id="edge44_Node000001_Node000044" class="edge">
<title>Node1&#45;&gt;Node44</title>
<g id="a_edge44_Node000001_Node000044"><a xlink:title=" ">
<path fill="none" stroke="#63b8ff" d="M3821.26,-189.98C4209.44,-189.66 6030.09,-185.75 6617,-140.08"/>
<polygon fill="#63b8ff" stroke="#63b8ff" points="6617.55,-143.55 6627.24,-139.27 6617,-136.57 6617.55,-143.55"/>
</a>
</g>
</g>
<!-- Node45 -->
<g id="Node000045" class="node">
<title>Node45</title>
<g id="a_Node000045"><a xlink:title=" ">
<polygon fill="#e0e0e0" stroke="#999999" points="7001.5,-140 6822.5,-140 6822.5,-110 7001.5,-110 7001.5,-140"/>
<text text-anchor="start" x="6830.5" y="-128" font-family="Helvetica,sans-Serif" font-size="10.00">textures/standalone</text>
<text text-anchor="middle" x="6912" y="-117" font-family="Helvetica,sans-Serif" font-size="10.00">/fence_post_wooden.rgba16.inc.c</text>
</a>
</g>
</g>
<!-- Node1&#45;&gt;Node45 -->
<g id="edge45_Node000001_Node000045" class="edge">
<title>Node1&#45;&gt;Node45</title>
<g id="a_edge45_Node000001_Node000045"><a xlink:title=" ">
<path fill="none" stroke="#63b8ff" d="M3821.18,-190.06C4224.88,-190.17 6184.31,-188.25 6812.27,-140.05"/>
<polygon fill="#63b8ff" stroke="#63b8ff" points="6812.63,-143.54 6822.33,-139.27 6812.09,-136.56 6812.63,-143.54"/>
</a>
</g>
</g>
<!-- Node46 -->
<g id="Node000046" class="node">
<title>Node46</title>
<g id="a_Node000046"><a xlink:title=" ">
<polygon fill="#e0e0e0" stroke="#999999" points="7178,-140 7020,-140 7020,-110 7178,-110 7178,-140"/>
<text text-anchor="start" x="7028" y="-128" font-family="Helvetica,sans-Serif" font-size="10.00">textures/standalone</text>
<text text-anchor="middle" x="7099" y="-117" font-family="Helvetica,sans-Serif" font-size="10.00">/texture_648508.rgba16.inc.c</text>
</a>
</g>
</g>
<!-- Node1&#45;&gt;Node46 -->
<g id="edge46_Node000001_Node000046" class="edge">
<title>Node1&#45;&gt;Node46</title>
<g id="a_edge46_Node000001_Node000046"><a xlink:title=" ">
<path fill="none" stroke="#63b8ff" d="M3821.12,-189.51C4269.34,-186.39 6638.17,-168.72 7009.75,-139.96"/>
<polygon fill="#63b8ff" stroke="#63b8ff" points="7010.23,-143.43 7019.91,-139.13 7009.66,-136.46 7010.23,-143.43"/>
</a>
</g>
</g>
<!-- Node47 -->
<g id="Node000047" class="node">
<title>Node47</title>
<g id="a_Node000047"><a xlink:title=" ">
<polygon fill="#e0e0e0" stroke="#999999" points="7356,-140 7196,-140 7196,-110 7356,-110 7356,-140"/>
<text text-anchor="start" x="7204" y="-128" font-family="Helvetica,sans-Serif" font-size="10.00">textures/standalone</text>
<text text-anchor="middle" x="7276" y="-117" font-family="Helvetica,sans-Serif" font-size="10.00">/texture_6449D4.rgba16.inc.c</text>
</a>
</g>
</g>
<!-- Node1&#45;&gt;Node47 -->
<g id="edge47_Node000001_Node000047" class="edge">
<title>Node1&#45;&gt;Node47</title>
<g id="a_edge47_Node000001_Node000047"><a xlink:title=" ">
<path fill="none" stroke="#63b8ff" d="M3821.25,-189.56C4284.07,-186.69 6795.33,-169.86 7185.4,-140"/>
<polygon fill="#63b8ff" stroke="#63b8ff" points="7185.85,-143.48 7195.53,-139.18 7185.28,-136.5 7185.85,-143.48"/>
</a>
</g>
</g>
<!-- Node48 -->
<g id="Node000048" class="node">
<title>Node48</title>
<g id="a_Node000048"><a xlink:title=" ">
<polygon fill="#e0e0e0" stroke="#999999" points="7533.5,-140 7374.5,-140 7374.5,-110 7533.5,-110 7533.5,-140"/>
<text text-anchor="start" x="7382.5" y="-128" font-family="Helvetica,sans-Serif" font-size="10.00">textures/standalone</text>
<text text-anchor="middle" x="7454" y="-117" font-family="Helvetica,sans-Serif" font-size="10.00">/texture_67FE0C.rgba16.inc.c</text>
</a>
</g>
</g>
<!-- Node1&#45;&gt;Node48 -->
<g id="edge48_Node000001_Node000048" class="edge">
<title>Node1&#45;&gt;Node48</title>
<g id="a_edge48_Node000001_Node000048"><a xlink:title=" ">
<path fill="none" stroke="#63b8ff" d="M3821.13,-189.62C4297.68,-187.03 6954.45,-171.31 7364.4,-139.9"/>
<polygon fill="#63b8ff" stroke="#63b8ff" points="7364.81,-143.37 7374.49,-139.08 7364.24,-136.4 7364.81,-143.37"/>
</a>
</g>
</g>
<!-- Node3 -->
<g id="Node000003" class="node">
<title>Node3</title>
<g id="a_Node000003"><a xlink:href="ultratypes_8h.html" target="_top" xlink:title=" ">
<polygon fill="white" stroke="#666666" points="118.5,-74 27.5,-74 27.5,-55 118.5,-55 118.5,-74"/>
<text text-anchor="middle" x="73" y="-62" font-family="Helvetica,sans-Serif" font-size="10.00">PR/ultratypes.h</text>
</a>
</g>
</g>
<!-- Node2&#45;&gt;Node3 -->
<g id="edge2_Node000002_Node000003" class="edge">
<title>Node2&#45;&gt;Node3</title>
<g id="a_edge2_Node000002_Node000003"><a xlink:title=" ">
<path fill="none" stroke="#63b8ff" d="M73,-109.84C73,-102.21 73,-92.7 73,-84.45"/>
<polygon fill="#63b8ff" stroke="#63b8ff" points="76.5,-84.27 73,-74.27 69.5,-84.27 76.5,-84.27"/>
</a>
</g>
</g>
<!-- Node4 -->
<g id="Node000004" class="node">
<title>Node4</title>
<g id="a_Node000004"><a xlink:href="stddef_8h.html" target="_top" xlink:title=" ">
<polygon fill="white" stroke="#666666" points="101,-19 45,-19 45,0 101,0 101,-19"/>
<text text-anchor="middle" x="73" y="-7" font-family="Helvetica,sans-Serif" font-size="10.00">stddef.h</text>
</a>
</g>
</g>
<!-- Node3&#45;&gt;Node4 -->
<g id="edge3_Node000003_Node000004" class="edge">
<title>Node3&#45;&gt;Node4</title>
<g id="a_edge3_Node000003_Node000004"><a xlink:title=" ">
<path fill="none" stroke="#63b8ff" d="M67.83,-54.75C66.34,-47.8 65.9,-37.85 66.52,-29.13"/>
<polygon fill="#63b8ff" stroke="#63b8ff" points="70.01,-29.47 67.87,-19.09 63.07,-28.53 70.01,-29.47"/>
</a>
</g>
</g>
<!-- Node5 -->
<g id="Node000005" class="node">
<title>Node5</title>
<g id="a_Node000005"><a xlink:title=" ">
<polygon fill="#e0e0e0" stroke="#999999" points="172.5,-19 119.5,-19 119.5,0 172.5,0 172.5,-19"/>
<text text-anchor="middle" x="146" y="-7" font-family="Helvetica,sans-Serif" font-size="10.00">stdint.h</text>
</a>
</g>
</g>
<!-- Node3&#45;&gt;Node5 -->
<g id="edge5_Node000003_Node000005" class="edge">
<title>Node3&#45;&gt;Node5</title>
<g id="a_edge5_Node000003_Node000005"><a xlink:title=" ">
<path fill="none" stroke="#63b8ff" d="M84.73,-54.98C95.73,-47 112.42,-34.88 125.6,-25.31"/>
<polygon fill="#63b8ff" stroke="#63b8ff" points="128.02,-27.88 134.06,-19.17 123.91,-22.21 128.02,-27.88"/>
</a>
</g>
</g>
<!-- Node4&#45;&gt;Node3 -->
<g id="edge4_Node000004_Node000003" class="edge">
<title>Node4&#45;&gt;Node3</title>
<g id="a_edge4_Node000004_Node000003"><a xlink:title=" ">
<path fill="none" stroke="#63b8ff" d="M78.13,-19.09C79.64,-25.99 80.09,-35.93 79.49,-44.66"/>
<polygon fill="#63b8ff" stroke="#63b8ff" points="76,-44.38 78.17,-54.75 82.94,-45.29 76,-44.38"/>
</a>
</g>
</g>
</g>
</svg>

<g id="navigator" transform="translate(0 0)" fill="#404254">
  <rect fill="#f2f5e9" fill-opacity="0.5" stroke="#606060" stroke-width=".5" x="0" y="0" width="60" height="60"/>
  <use id="zoomplus" xlink:href="#zoomPlus" x="17" y="9" onmousedown="handleZoom(evt,'in')"/>
  <use id="zoomminus" xlink:href="#zoomMin" x="42" y="9" onmousedown="handleZoom(evt,'out')"/>
  <use id="reset" xlink:href="#resetDef" x="30" y="36" onmousedown="handleReset()"/>
   <use id="arrowup" xlink:href="#arrowUp" x="0" y="0" onmousedown="handlePan(0,-1)"/>
  <use id="arrowright" xlink:href="#arrowRight" x="0" y="0" onmousedown="handlePan(1,0)"/>
  <use id="arrowdown" xlink:href="#arrowDown" x="0" y="0" onmousedown="handlePan(0,1)"/>
  <use id="arrowleft" xlink:href="#arrowLeft" x="0" y="0" onmousedown="handlePan(-1,0)"/>
</g>
<svg viewBox="0 0 15 15" width="100%" height="30px" preserveAspectRatio="xMaxYMin meet">
 <g id="arrow_out" transform="scale(0.3 0.3)">
  <a xlink:href="royal__raceway_2course__textures_8linkonly_8c__incl_org.svg" target="_base">
   <rect id="button" ry="5" rx="5" y="6" x="6" height="38" width="38"
        fill="#f2f5e9" fill-opacity="0.5" stroke="#606060" stroke-width="1.0"/>
   <path id="arrow"
     d="M 11.500037,31.436501 C 11.940474,20.09759 22.043105,11.32322 32.158766,21.979434 L 37.068811,17.246167 C 37.068811,17.246167 37.088388,32 37.088388,32 L 22.160133,31.978069 C 22.160133,31.978069 26.997745,27.140456 26.997745,27.140456 C 18.528582,18.264221 13.291696,25.230495 11.500037,31.436501 z"
     style="fill:#404040;"/>
  </a>
 </g>
</svg>

<style type='text/css'>
<![CDATA[
[data-mouse-over-selected='false'] { opacity: 0.7; }
[data-mouse-over-selected='true']  { opacity: 1.0; }
]]>
</style>
<script type="application/ecmascript"><![CDATA[
document.addEventListener('DOMContentLoaded', (event) => {
  highlightEdges();
  highlightAdjacentNodes();
});
]]></script>
</svg>
