<?xml version="1.0" encoding="UTF-8" standalone="no"?>
<!DOCTYPE svg PUBLIC "-//W3C//DTD SVG 1.1//EN"
 "http://www.w3.org/Graphics/SVG/1.1/DTD/svg11.dtd">
<!-- Generated by graphviz version 2.43.0 (0)
 -->
<!-- Title: func_800B5020 Pages: 1 -->
<svg width="1324pt" height="462pt"
 viewBox="0.00 0.00 1324.00 462.00" xmlns="http://www.w3.org/2000/svg" xmlns:xlink="http://www.w3.org/1999/xlink">
<g id="graph0" class="graph" transform="scale(1 1) rotate(0) translate(4 458)">
<title>func_800B5020</title>
<!-- Node1 -->
<g id="Node000001" class="node">
<title>Node1</title>
<g id="a_Node000001"><a xlink:title=" ">
<polygon fill="#999999" stroke="#666666" points="92,-96 0,-96 0,-77 92,-77 92,-96"/>
<text text-anchor="middle" x="46" y="-84" font-family="Helvetica,sans-Serif" font-size="10.00">func_800B5020</text>
</a>
</g>
</g>
<!-- Node2 -->
<g id="Node000002" class="node">
<title>Node2</title>
<g id="a_Node000002"><a xlink:href="save_8c.html#a2a3e95e89737526a8618402829473024" target="_top" xlink:title=" ">
<polygon fill="white" stroke="#666666" points="230,-133 138,-133 138,-114 230,-114 230,-133"/>
<text text-anchor="middle" x="184" y="-121" font-family="Helvetica,sans-Serif" font-size="10.00">func_800B45E0</text>
</a>
</g>
</g>
<!-- Node1&#45;&gt;Node2 -->
<g id="edge1_Node000001_Node000002" class="edge">
<title>Node1&#45;&gt;Node2</title>
<g id="a_edge1_Node000001_Node000002"><a xlink:title=" ">
<path fill="none" stroke="#63b8ff" d="M82.02,-96.03C99.02,-100.65 119.65,-106.27 137.82,-111.21"/>
<polygon fill="#63b8ff" stroke="#63b8ff" points="137.05,-114.63 147.62,-113.88 138.89,-107.87 137.05,-114.63"/>
</a>
</g>
</g>
<!-- Node30 -->
<g id="Node000030" class="node">
<title>Node30</title>
<g id="a_Node000030"><a xlink:href="save_8c.html#a5b764da80aeb63b24b59906b4c9aa000" target="_top" xlink:title=" ">
<polygon fill="white" stroke="#666666" points="230.5,-96 137.5,-96 137.5,-77 230.5,-77 230.5,-96"/>
<text text-anchor="middle" x="184" y="-84" font-family="Helvetica,sans-Serif" font-size="10.00">func_800B4DF4</text>
</a>
</g>
</g>
<!-- Node1&#45;&gt;Node30 -->
<g id="edge45_Node000001_Node000030" class="edge">
<title>Node1&#45;&gt;Node30</title>
<g id="a_edge45_Node000001_Node000030"><a xlink:title=" ">
<path fill="none" stroke="#63b8ff" d="M92.29,-86.5C103.52,-86.5 115.69,-86.5 127.36,-86.5"/>
<polygon fill="#63b8ff" stroke="#63b8ff" points="127.45,-90 137.45,-86.5 127.45,-83 127.45,-90"/>
</a>
</g>
</g>
<!-- Node31 -->
<g id="Node000031" class="node">
<title>Node31</title>
<g id="a_Node000031"><a xlink:href="save_8c.html#a297dc1f4d0dac25e6703838ad78ae54f" target="_top" xlink:title=" ">
<polygon fill="white" stroke="#666666" points="240,-58.5 128,-58.5 128,-28.5 240,-28.5 240,-58.5"/>
<text text-anchor="start" x="136" y="-46.5" font-family="Helvetica,sans-Serif" font-size="10.00">populate_time_trial</text>
<text text-anchor="middle" x="184" y="-35.5" font-family="Helvetica,sans-Serif" font-size="10.00">_record</text>
</a>
</g>
</g>
<!-- Node1&#45;&gt;Node31 -->
<g id="edge46_Node000001_Node000031" class="edge">
<title>Node1&#45;&gt;Node31</title>
<g id="a_edge46_Node000001_Node000031"><a xlink:title=" ">
<path fill="none" stroke="#63b8ff" d="M77.18,-76.96C91.51,-72.43 109.12,-66.86 125.83,-61.57"/>
<polygon fill="#63b8ff" stroke="#63b8ff" points="127.06,-64.86 135.54,-58.51 124.95,-58.18 127.06,-64.86"/>
</a>
</g>
</g>
<!-- Node3 -->
<g id="Node000003" class="node">
<title>Node3</title>
<g id="a_Node000003"><a xlink:href="save_8c.html#a8cc50ee77e09b150d7e31003e3f50761" target="_top" xlink:title=" ">
<polygon fill="white" stroke="#666666" points="395,-160.5 276,-160.5 276,-130.5 395,-130.5 395,-160.5"/>
<text text-anchor="start" x="284" y="-148.5" font-family="Helvetica,sans-Serif" font-size="10.00">checksum_time_trial</text>
<text text-anchor="middle" x="335.5" y="-137.5" font-family="Helvetica,sans-Serif" font-size="10.00">_records</text>
</a>
</g>
</g>
<!-- Node2&#45;&gt;Node3 -->
<g id="edge2_Node000002_Node000003" class="edge">
<title>Node2&#45;&gt;Node3</title>
<g id="a_edge2_Node000002_Node000003"><a xlink:title=" ">
<path fill="none" stroke="#63b8ff" d="M230.26,-130.16C241.47,-131.81 253.74,-133.62 265.8,-135.39"/>
<polygon fill="#63b8ff" stroke="#63b8ff" points="265.44,-138.88 275.85,-136.87 266.46,-131.95 265.44,-138.88"/>
</a>
</g>
</g>
<!-- Node4 -->
<g id="Node000004" class="node">
<title>Node4</title>
<g id="a_Node000004"><a xlink:href="osEepromLongWrite_8c.html#aa1669d76506610d1c5a9d248f6d45add" target="_top" xlink:title=" ">
<polygon fill="white" stroke="#666666" points="393,-112 278,-112 278,-93 393,-93 393,-112"/>
<text text-anchor="middle" x="335.5" y="-100" font-family="Helvetica,sans-Serif" font-size="10.00">osEepromLongWrite</text>
</a>
</g>
</g>
<!-- Node2&#45;&gt;Node4 -->
<g id="edge3_Node000002_Node000004" class="edge">
<title>Node2&#45;&gt;Node4</title>
<g id="a_edge3_Node000002_Node000004"><a xlink:title=" ">
<path fill="none" stroke="#63b8ff" d="M230.26,-117.14C242.06,-115.48 255.03,-113.66 267.69,-111.89"/>
<polygon fill="#63b8ff" stroke="#63b8ff" points="268.33,-115.33 277.75,-110.47 267.36,-108.4 268.33,-115.33"/>
</a>
</g>
</g>
<!-- Node5 -->
<g id="Node000005" class="node">
<title>Node5</title>
<g id="a_Node000005"><a xlink:href="osEepromWrite_8c.html#a821b8ce22af671850530fdbd8aa56e9d" target="_top" xlink:title=" ">
<polygon fill="white" stroke="#666666" points="523,-226 431,-226 431,-207 523,-207 523,-226"/>
<text text-anchor="middle" x="477" y="-214" font-family="Helvetica,sans-Serif" font-size="10.00">osEepromWrite</text>
</a>
</g>
</g>
<!-- Node4&#45;&gt;Node5 -->
<g id="edge4_Node000004_Node000005" class="edge">
<title>Node4&#45;&gt;Node5</title>
<g id="a_edge4_Node000004_Node000005"><a xlink:title=" ">
<path fill="none" stroke="#63b8ff" d="M375.97,-112C382.62,-114.52 389.23,-117.64 395,-121.5 425.6,-141.97 451.26,-177.1 465.05,-198.42"/>
<polygon fill="#63b8ff" stroke="#63b8ff" points="462.09,-200.29 470.38,-206.89 468.02,-196.56 462.09,-200.29"/>
</a>
</g>
</g>
<!-- Node11 -->
<g id="Node000011" class="node">
<title>Node11</title>
<g id="a_Node000011"><a xlink:href="osRecvMesg_8c.html#aa254dc33e373f235a99e17f7717493dc" target="_top" xlink:title=" ">
<polygon fill="white" stroke="#666666" points="1002,-188 924,-188 924,-169 1002,-169 1002,-188"/>
<text text-anchor="middle" x="963" y="-176" font-family="Helvetica,sans-Serif" font-size="10.00">osRecvMesg</text>
</a>
</g>
</g>
<!-- Node4&#45;&gt;Node11 -->
<g id="edge37_Node000004_Node000011" class="edge">
<title>Node4&#45;&gt;Node11</title>
<g id="a_edge37_Node000004_Node000011"><a xlink:title=" ">
<path fill="none" stroke="#63b8ff" d="M393.32,-99.9C491.61,-96.8 699.07,-96.42 868,-137.5 892.01,-143.34 917.62,-154.9 936.03,-164.26"/>
<polygon fill="#63b8ff" stroke="#63b8ff" points="934.48,-167.4 944.96,-168.91 937.71,-161.19 934.48,-167.4"/>
</a>
</g>
</g>
<!-- Node25 -->
<g id="Node000025" class="node">
<title>Node25</title>
<g id="a_Node000025"><a xlink:href="osSetTimer_8c.html#ae185ba75a7718dbf19268876ea9b1b0e" target="_top" xlink:title=" ">
<polygon fill="white" stroke="#666666" points="999,-74 927,-74 927,-55 999,-55 999,-74"/>
<text text-anchor="middle" x="963" y="-62" font-family="Helvetica,sans-Serif" font-size="10.00">osSetTimer</text>
</a>
</g>
</g>
<!-- Node4&#45;&gt;Node25 -->
<g id="edge38_Node000004_Node000025" class="edge">
<title>Node4&#45;&gt;Node25</title>
<g id="a_edge38_Node000004_Node000025"><a xlink:title=" ">
<path fill="none" stroke="#63b8ff" d="M393.1,-93.16C405.56,-91.37 418.7,-89.69 431,-88.5 610.33,-71.21 824.95,-66.33 916.75,-64.99"/>
<polygon fill="#63b8ff" stroke="#63b8ff" points="916.86,-68.49 926.81,-64.85 916.76,-61.49 916.86,-68.49"/>
</a>
</g>
</g>
<!-- Node6 -->
<g id="Node000006" class="node">
<title>Node6</title>
<g id="a_Node000006"><a xlink:href="osEepromWrite_8c.html#a60ddd985ce0b83b8c5ab75da236177ca" target="_top" xlink:title=" ">
<polygon fill="white" stroke="#666666" points="666.5,-226 579.5,-226 579.5,-207 666.5,-207 666.5,-226"/>
<text text-anchor="middle" x="623" y="-214" font-family="Helvetica,sans-Serif" font-size="10.00">__osEepStatus</text>
</a>
</g>
</g>
<!-- Node5&#45;&gt;Node6 -->
<g id="edge5_Node000005_Node000006" class="edge">
<title>Node5&#45;&gt;Node6</title>
<g id="a_edge5_Node000005_Node000006"><a xlink:title=" ">
<path fill="none" stroke="#63b8ff" d="M523.17,-216.5C537.78,-216.5 554.11,-216.5 569.22,-216.5"/>
<polygon fill="#63b8ff" stroke="#63b8ff" points="569.45,-220 579.45,-216.5 569.45,-213 569.45,-220"/>
</a>
</g>
</g>
<!-- Node7 -->
<g id="Node000007" class="node">
<title>Node7</title>
<g id="a_Node000007"><a xlink:href="____osSiRawStartDma_8c.html#a469384eba4ccec319dbec8745f22bd2f" target="_top" xlink:title=" ">
<polygon fill="white" stroke="#666666" points="853,-339 738,-339 738,-320 853,-320 853,-339"/>
<text text-anchor="middle" x="795.5" y="-327" font-family="Helvetica,sans-Serif" font-size="10.00">__osSiRawStartDma</text>
</a>
</g>
</g>
<!-- Node5&#45;&gt;Node7 -->
<g id="edge33_Node000005_Node000007" class="edge">
<title>Node5&#45;&gt;Node7</title>
<g id="a_edge33_Node000005_Node000007"><a xlink:title=" ">
<path fill="none" stroke="#63b8ff" d="M484.47,-226.12C496.73,-243.47 525.16,-279.77 559,-296.5 611.69,-322.55 678.61,-329.83 727.64,-331.17"/>
<polygon fill="#63b8ff" stroke="#63b8ff" points="727.75,-334.67 737.82,-331.36 727.89,-327.67 727.75,-334.67"/>
</a>
</g>
</g>
<!-- Node5&#45;&gt;Node11 -->
<g id="edge36_Node000005_Node000011" class="edge">
<title>Node5&#45;&gt;Node11</title>
<g id="a_edge36_Node000005_Node000011"><a xlink:title=" ">
<path fill="none" stroke="#63b8ff" d="M487.92,-206.77C502.22,-193.51 530.08,-170.39 559,-161.5 683.28,-123.3 839.26,-149.45 915.6,-166.7"/>
<polygon fill="#63b8ff" stroke="#63b8ff" points="914.85,-170.12 925.39,-168.97 916.43,-163.3 914.85,-170.12"/>
</a>
</g>
</g>
<!-- Node19 -->
<g id="Node000019" class="node">
<title>Node19</title>
<g id="a_Node000019"><a xlink:href="osEepromWrite_8c.html#ac75a7c8520da3ebddcd82ad6ba91296f" target="_top" xlink:title=" ">
<polygon fill="white" stroke="#666666" points="687,-263 559,-263 559,-244 687,-244 687,-263"/>
<text text-anchor="middle" x="623" y="-251" font-family="Helvetica,sans-Serif" font-size="10.00">__osPackEepWriteData</text>
</a>
</g>
</g>
<!-- Node5&#45;&gt;Node19 -->
<g id="edge22_Node000005_Node000019" class="edge">
<title>Node5&#45;&gt;Node19</title>
<g id="a_edge22_Node000005_Node000019"><a xlink:title=" ">
<path fill="none" stroke="#63b8ff" d="M515.08,-226.03C533.25,-230.7 555.33,-236.37 574.7,-241.35"/>
<polygon fill="#63b8ff" stroke="#63b8ff" points="573.99,-244.78 584.54,-243.88 575.73,-238 573.99,-244.78"/>
</a>
</g>
</g>
<!-- Node20 -->
<g id="Node000020" class="node">
<title>Node20</title>
<g id="a_Node000020"><a xlink:href="____osSiCreateAccessQueue_8c.html#ae0373fb01ccb4831c6c9783b23524a07" target="_top" xlink:title=" ">
<polygon fill="white" stroke="#666666" points="672,-189 574,-189 574,-170 672,-170 672,-189"/>
<text text-anchor="middle" x="623" y="-177" font-family="Helvetica,sans-Serif" font-size="10.00">__osSiGetAccess</text>
</a>
</g>
</g>
<!-- Node5&#45;&gt;Node20 -->
<g id="edge23_Node000005_Node000020" class="edge">
<title>Node5&#45;&gt;Node20</title>
<g id="a_edge23_Node000005_Node000020"><a xlink:title=" ">
<path fill="none" stroke="#63b8ff" d="M515.08,-206.97C533.25,-202.3 555.33,-196.63 574.7,-191.65"/>
<polygon fill="#63b8ff" stroke="#63b8ff" points="575.73,-195 584.54,-189.12 573.99,-188.22 575.73,-195"/>
</a>
</g>
</g>
<!-- Node24 -->
<g id="Node000024" class="node">
<title>Node24</title>
<g id="a_Node000024"><a xlink:href="____osSiCreateAccessQueue_8c.html#aa6dbd69637149484f5fad08232892b50" target="_top" xlink:title=" ">
<polygon fill="white" stroke="#666666" points="844,-301 747,-301 747,-282 844,-282 844,-301"/>
<text text-anchor="middle" x="795.5" y="-289" font-family="Helvetica,sans-Serif" font-size="10.00">__osSiRelAccess</text>
</a>
</g>
</g>
<!-- Node5&#45;&gt;Node24 -->
<g id="edge34_Node000005_Node000024" class="edge">
<title>Node5&#45;&gt;Node24</title>
<g id="a_edge34_Node000005_Node000024"><a xlink:title=" ">
<path fill="none" stroke="#63b8ff" d="M487.99,-226.08C502.37,-239.19 530.34,-262.27 559,-272.5 617.07,-293.22 688.13,-296.16 736.92,-295.05"/>
<polygon fill="#63b8ff" stroke="#63b8ff" points="737.08,-298.55 746.97,-294.76 736.88,-291.55 737.08,-298.55"/>
</a>
</g>
</g>
<!-- Node6&#45;&gt;Node7 -->
<g id="edge6_Node000006_Node000007" class="edge">
<title>Node6&#45;&gt;Node7</title>
<g id="a_edge6_Node000006_Node000007"><a xlink:title=" ">
<path fill="none" stroke="#63b8ff" d="M666.81,-224.14C674.1,-226.85 681.19,-230.52 687,-235.5 715.09,-259.55 694.52,-286.92 723,-310.5 725.03,-312.18 727.2,-313.72 729.47,-315.12"/>
<polygon fill="#63b8ff" stroke="#63b8ff" points="728.16,-318.38 738.64,-319.88 731.38,-312.17 728.16,-318.38"/>
</a>
</g>
</g>
<!-- Node6&#45;&gt;Node11 -->
<g id="edge10_Node000006_Node000011" class="edge">
<title>Node6&#45;&gt;Node11</title>
<g id="a_edge10_Node000006_Node000011"><a xlink:title=" ">
<path fill="none" stroke="#63b8ff" d="M666.83,-212.94C715.61,-208.73 797.66,-201.19 868,-192.5 882.76,-190.68 898.78,-188.4 913.34,-186.22"/>
<polygon fill="#63b8ff" stroke="#63b8ff" points="914.28,-189.62 923.64,-184.65 913.23,-182.7 914.28,-189.62"/>
</a>
</g>
</g>
<!-- Node8 -->
<g id="Node000008" class="node">
<title>Node8</title>
<g id="a_Node000008"><a xlink:href="____osSiDeviceBusy_8c.html#ad812ec86e9d0b5929797407de1b3ecbc" target="_top" xlink:title=" ">
<polygon fill="white" stroke="#666666" points="1015.5,-376 910.5,-376 910.5,-357 1015.5,-357 1015.5,-376"/>
<text text-anchor="middle" x="963" y="-364" font-family="Helvetica,sans-Serif" font-size="10.00">__osSiDeviceBusy</text>
</a>
</g>
</g>
<!-- Node7&#45;&gt;Node8 -->
<g id="edge7_Node000007_Node000008" class="edge">
<title>Node7&#45;&gt;Node8</title>
<g id="a_edge7_Node000007_Node000008"><a xlink:title=" ">
<path fill="none" stroke="#63b8ff" d="M839.12,-339.03C860.56,-343.82 886.75,-349.68 909.43,-354.75"/>
<polygon fill="#63b8ff" stroke="#63b8ff" points="908.71,-358.17 919.24,-356.94 910.24,-351.34 908.71,-358.17"/>
</a>
</g>
</g>
<!-- Node9 -->
<g id="Node000009" class="node">
<title>Node9</title>
<g id="a_Node000009"><a xlink:href="osVirtualToPhysical_8c.html#a87fb0b956b8effcecdf9585577895570" target="_top" xlink:title=" ">
<polygon fill="white" stroke="#666666" points="1018.5,-339 907.5,-339 907.5,-320 1018.5,-320 1018.5,-339"/>
<text text-anchor="middle" x="963" y="-327" font-family="Helvetica,sans-Serif" font-size="10.00">osVirtualToPhysical</text>
</a>
</g>
</g>
<!-- Node7&#45;&gt;Node9 -->
<g id="edge8_Node000007_Node000009" class="edge">
<title>Node7&#45;&gt;Node9</title>
<g id="a_edge8_Node000007_Node000009"><a xlink:title=" ">
<path fill="none" stroke="#63b8ff" d="M853.46,-329.5C867.53,-329.5 882.7,-329.5 897.12,-329.5"/>
<polygon fill="#63b8ff" stroke="#63b8ff" points="897.45,-333 907.45,-329.5 897.45,-326 897.45,-333"/>
</a>
</g>
</g>
<!-- Node10 -->
<g id="Node000010" class="node">
<title>Node10</title>
<g id="a_Node000010"><a xlink:href="libultra__internal_8h.html#a4f7c83166c9481713d4b56defd0888c7" target="_top" xlink:title=" ">
<polygon fill="white" stroke="#666666" points="1149.5,-454 1065.5,-454 1065.5,-435 1149.5,-435 1149.5,-454"/>
<text text-anchor="middle" x="1107.5" y="-442" font-family="Helvetica,sans-Serif" font-size="10.00">__osProbeTLB</text>
</a>
</g>
</g>
<!-- Node9&#45;&gt;Node10 -->
<g id="edge9_Node000009_Node000010" class="edge">
<title>Node9&#45;&gt;Node10</title>
<g id="a_edge9_Node000009_Node000010"><a xlink:title=" ">
<path fill="none" stroke="#63b8ff" d="M1006.66,-339.07C1012.2,-341.53 1017.51,-344.62 1022,-348.5 1049.09,-371.87 1032.65,-395.25 1058,-420.5 1061.69,-424.18 1066.06,-427.39 1070.64,-430.16"/>
<polygon fill="#63b8ff" stroke="#63b8ff" points="1069.11,-433.31 1079.58,-434.96 1072.42,-427.15 1069.11,-433.31"/>
</a>
</g>
</g>
<!-- Node12 -->
<g id="Node000012" class="node">
<title>Node12</title>
<g id="a_Node000012"><a xlink:href="libultra__internal_8h.html#a8ad9db8aa6bfc4437abdd0363b663b16" target="_top" xlink:title=" ">
<polygon fill="white" stroke="#666666" points="1298.5,-170 1210.5,-170 1210.5,-151 1298.5,-151 1298.5,-170"/>
<text text-anchor="middle" x="1254.5" y="-158" font-family="Helvetica,sans-Serif" font-size="10.00">__osDisableInt</text>
</a>
</g>
</g>
<!-- Node11&#45;&gt;Node12 -->
<g id="edge11_Node000011_Node000012" class="edge">
<title>Node11&#45;&gt;Node12</title>
<g id="a_edge11_Node000011_Node000012"><a xlink:title=" ">
<path fill="none" stroke="#63b8ff" d="M1002.14,-176.13C1052.73,-172.98 1142.31,-167.41 1199.74,-163.84"/>
<polygon fill="#63b8ff" stroke="#63b8ff" points="1200.31,-167.31 1210.07,-163.2 1199.87,-160.33 1200.31,-167.31"/>
</a>
</g>
</g>
<!-- Node13 -->
<g id="Node000013" class="node">
<title>Node13</title>
<g id="a_Node000013"><a xlink:href="libultra__internal_8h.html#afe9c3abc4ca93d9fe18a87d9f108d5cb" target="_top" xlink:title=" ">
<polygon fill="white" stroke="#666666" points="1316,-340 1193,-340 1193,-321 1316,-321 1316,-340"/>
<text text-anchor="middle" x="1254.5" y="-328" font-family="Helvetica,sans-Serif" font-size="10.00">__osEnqueueAndYield</text>
</a>
</g>
</g>
<!-- Node11&#45;&gt;Node13 -->
<g id="edge12_Node000011_Node000013" class="edge">
<title>Node11&#45;&gt;Node13</title>
<g id="a_edge12_Node000011_Node000013"><a xlink:title=" ">
<path fill="none" stroke="#63b8ff" d="M983.88,-188.11C996.2,-194.9 1011.6,-205 1022,-217.5 1047.72,-248.41 1026.16,-275.95 1058,-300.5 1093.09,-327.56 1142.49,-334.96 1182.85,-335.65"/>
<polygon fill="#63b8ff" stroke="#63b8ff" points="1182.89,-339.15 1192.9,-335.69 1182.92,-332.15 1182.89,-339.15"/>
</a>
</g>
</g>
<!-- Node14 -->
<g id="Node000014" class="node">
<title>Node14</title>
<g id="a_Node000014"><a xlink:href="libultra__internal_8h.html#aaadded63bebce6cfdda5ecda193fc9ea" target="_top" xlink:title=" ">
<polygon fill="white" stroke="#666666" points="1299.5,-302 1209.5,-302 1209.5,-283 1299.5,-283 1299.5,-302"/>
<text text-anchor="middle" x="1254.5" y="-290" font-family="Helvetica,sans-Serif" font-size="10.00">__osPopThread</text>
</a>
</g>
</g>
<!-- Node11&#45;&gt;Node14 -->
<g id="edge13_Node000011_Node000014" class="edge">
<title>Node11&#45;&gt;Node14</title>
<g id="a_edge13_Node000011_Node000014"><a xlink:title=" ">
<path fill="none" stroke="#63b8ff" d="M982.14,-188.09C994.34,-195.14 1010.28,-205.54 1022,-217.5 1042.71,-238.64 1032.75,-258.08 1058,-273.5 1100.26,-299.3 1157.47,-301.95 1199.08,-299.4"/>
<polygon fill="#63b8ff" stroke="#63b8ff" points="1199.58,-302.88 1209.3,-298.66 1199.07,-295.9 1199.58,-302.88"/>
</a>
</g>
</g>
<!-- Node15 -->
<g id="Node000015" class="node">
<title>Node15</title>
<g id="a_Node000015"><a xlink:href="libultra__internal_8h.html#aecafa57b85fd739d6033705808194def" target="_top" xlink:title=" ">
<polygon fill="white" stroke="#666666" points="1299,-122 1210,-122 1210,-103 1299,-103 1299,-122"/>
<text text-anchor="middle" x="1254.5" y="-110" font-family="Helvetica,sans-Serif" font-size="10.00">__osRestoreInt</text>
</a>
</g>
</g>
<!-- Node11&#45;&gt;Node15 -->
<g id="edge14_Node000011_Node000015" class="edge">
<title>Node11&#45;&gt;Node15</title>
<g id="a_edge14_Node000011_Node000015"><a xlink:title=" ">
<path fill="none" stroke="#63b8ff" d="M1002.14,-169.8C1053.27,-158.15 1144.22,-137.41 1201.57,-124.34"/>
<polygon fill="#63b8ff" stroke="#63b8ff" points="1202.54,-127.71 1211.51,-122.07 1200.99,-120.88 1202.54,-127.71"/>
</a>
</g>
</g>
<!-- Node16 -->
<g id="Node000016" class="node">
<title>Node16</title>
<g id="a_Node000016"><a xlink:href="osStartThread_8c.html#a3b144e814933e16a2fbf2642ad098ed3" target="_top" xlink:title=" ">
<polygon fill="white" stroke="#666666" points="1150,-264 1065,-264 1065,-245 1150,-245 1150,-264"/>
<text text-anchor="middle" x="1107.5" y="-252" font-family="Helvetica,sans-Serif" font-size="10.00">osStartThread</text>
</a>
</g>
</g>
<!-- Node11&#45;&gt;Node16 -->
<g id="edge15_Node000011_Node000016" class="edge">
<title>Node11&#45;&gt;Node16</title>
<g id="a_edge15_Node000011_Node000016"><a xlink:title=" ">
<path fill="none" stroke="#63b8ff" d="M982.05,-188.13C1006.67,-201.26 1051,-224.9 1079.57,-240.14"/>
<polygon fill="#63b8ff" stroke="#63b8ff" points="1078.13,-243.34 1088.6,-244.95 1081.42,-237.16 1078.13,-243.34"/>
</a>
</g>
</g>
<!-- Node16&#45;&gt;Node12 -->
<g id="edge16_Node000016_Node000012" class="edge">
<title>Node16&#45;&gt;Node12</title>
<g id="a_edge16_Node000016_Node000012"><a xlink:title=" ">
<path fill="none" stroke="#63b8ff" d="M1130.88,-244.87C1139.32,-240.87 1148.86,-235.9 1157,-230.5 1174.6,-218.84 1176.09,-212.14 1193,-199.5 1204.34,-191.03 1217.49,-182.41 1228.63,-175.45"/>
<polygon fill="#63b8ff" stroke="#63b8ff" points="1230.75,-178.25 1237.43,-170.02 1227.08,-172.29 1230.75,-178.25"/>
</a>
</g>
</g>
<!-- Node16&#45;&gt;Node13 -->
<g id="edge18_Node000016_Node000013" class="edge">
<title>Node16&#45;&gt;Node13</title>
<g id="a_edge18_Node000016_Node000013"><a xlink:title=" ">
<path fill="none" stroke="#63b8ff" d="M1120.42,-264.19C1136.19,-276.61 1165.26,-298.14 1193,-311.5 1197.59,-313.71 1202.51,-315.75 1207.47,-317.59"/>
<polygon fill="#63b8ff" stroke="#63b8ff" points="1206.42,-320.93 1217.01,-320.91 1208.72,-314.32 1206.42,-320.93"/>
</a>
</g>
</g>
<!-- Node16&#45;&gt;Node14 -->
<g id="edge20_Node000016_Node000014" class="edge">
<title>Node16&#45;&gt;Node14</title>
<g id="a_edge20_Node000016_Node000014"><a xlink:title=" ">
<path fill="none" stroke="#63b8ff" d="M1145.09,-264.09C1163.97,-269.04 1187.19,-275.12 1207.29,-280.39"/>
<polygon fill="#63b8ff" stroke="#63b8ff" points="1206.61,-283.83 1217.17,-282.98 1208.39,-277.06 1206.61,-283.83"/>
</a>
</g>
</g>
<!-- Node16&#45;&gt;Node15 -->
<g id="edge21_Node000016_Node000015" class="edge">
<title>Node16&#45;&gt;Node15</title>
<g id="a_edge21_Node000016_Node000015"><a xlink:title=" ">
<path fill="none" stroke="#63b8ff" d="M1116.18,-244.93C1125.85,-232.82 1142.89,-211.3 1157,-192.5 1173.44,-170.6 1172.12,-160.21 1193,-142.5 1200.42,-136.21 1209.39,-130.84 1218.12,-126.46"/>
<polygon fill="#63b8ff" stroke="#63b8ff" points="1219.85,-129.52 1227.41,-122.1 1216.87,-123.18 1219.85,-129.52"/>
</a>
</g>
</g>
<!-- Node17 -->
<g id="Node000017" class="node">
<title>Node17</title>
<g id="a_Node000017"><a xlink:href="libultra__internal_8h.html#a650b788ebd5efde9c8cbccc1ee832445" target="_top" xlink:title=" ">
<polygon fill="white" stroke="#666666" points="1312,-264 1197,-264 1197,-245 1312,-245 1312,-264"/>
<text text-anchor="middle" x="1254.5" y="-252" font-family="Helvetica,sans-Serif" font-size="10.00">__osDispatchThread</text>
</a>
</g>
</g>
<!-- Node16&#45;&gt;Node17 -->
<g id="edge17_Node000016_Node000017" class="edge">
<title>Node16&#45;&gt;Node17</title>
<g id="a_edge17_Node000016_Node000017"><a xlink:title=" ">
<path fill="none" stroke="#63b8ff" d="M1150.05,-254.5C1161.43,-254.5 1174.05,-254.5 1186.47,-254.5"/>
<polygon fill="#63b8ff" stroke="#63b8ff" points="1186.81,-258 1196.81,-254.5 1186.81,-251 1186.81,-258"/>
</a>
</g>
</g>
<!-- Node18 -->
<g id="Node000018" class="node">
<title>Node18</title>
<g id="a_Node000018"><a xlink:href="libultra__internal_8h.html#ac9d6cfd19de5565e74f1d74a14e9092d" target="_top" xlink:title=" ">
<polygon fill="white" stroke="#666666" points="1311.5,-227 1197.5,-227 1197.5,-208 1311.5,-208 1311.5,-227"/>
<text text-anchor="middle" x="1254.5" y="-215" font-family="Helvetica,sans-Serif" font-size="10.00">__osEnqueueThread</text>
</a>
</g>
</g>
<!-- Node16&#45;&gt;Node18 -->
<g id="edge19_Node000016_Node000018" class="edge">
<title>Node16&#45;&gt;Node18</title>
<g id="a_edge19_Node000016_Node000018"><a xlink:title=" ">
<path fill="none" stroke="#63b8ff" d="M1145.84,-244.97C1164.21,-240.29 1186.54,-234.59 1206.1,-229.6"/>
<polygon fill="#63b8ff" stroke="#63b8ff" points="1207.21,-232.92 1216.03,-227.06 1205.48,-226.14 1207.21,-232.92"/>
</a>
</g>
</g>
<!-- Node20&#45;&gt;Node11 -->
<g id="edge32_Node000020_Node000011" class="edge">
<title>Node20&#45;&gt;Node11</title>
<g id="a_edge32_Node000020_Node000011"><a xlink:title=" ">
<path fill="none" stroke="#63b8ff" d="M672.07,-179.36C736.21,-179.17 849.14,-178.83 913.5,-178.64"/>
<polygon fill="#63b8ff" stroke="#63b8ff" points="913.79,-182.14 923.78,-178.61 913.77,-175.14 913.79,-182.14"/>
</a>
</g>
</g>
<!-- Node21 -->
<g id="Node000021" class="node">
<title>Node21</title>
<g id="a_Node000021"><a xlink:href="____osSiCreateAccessQueue_8c.html#a7520cad725d80a88735d29f75a3de94a" target="_top" xlink:title=" ">
<polygon fill="white" stroke="#666666" points="868,-264 723,-264 723,-245 868,-245 868,-264"/>
<text text-anchor="middle" x="795.5" y="-252" font-family="Helvetica,sans-Serif" font-size="10.00">__osSiCreateAccessQueue</text>
</a>
</g>
</g>
<!-- Node20&#45;&gt;Node21 -->
<g id="edge24_Node000020_Node000021" class="edge">
<title>Node20&#45;&gt;Node21</title>
<g id="a_edge24_Node000020_Node000021"><a xlink:title=" ">
<path fill="none" stroke="#63b8ff" d="M659.72,-189.01C668.74,-191.75 678.32,-194.97 687,-198.5 716.37,-210.46 748.42,-227.74 769.81,-239.94"/>
<polygon fill="#63b8ff" stroke="#63b8ff" points="768.15,-243.02 778.56,-244.99 771.65,-236.96 768.15,-243.02"/>
</a>
</g>
</g>
<!-- Node22 -->
<g id="Node000022" class="node">
<title>Node22</title>
<g id="a_Node000022"><a xlink:href="osCreateMesgQueue_8c.html#aab783cab54141cb60618b45f534104b9" target="_top" xlink:title=" ">
<polygon fill="white" stroke="#666666" points="1022,-245 904,-245 904,-226 1022,-226 1022,-245"/>
<text text-anchor="middle" x="963" y="-233" font-family="Helvetica,sans-Serif" font-size="10.00">osCreateMesgQueue</text>
</a>
</g>
</g>
<!-- Node21&#45;&gt;Node22 -->
<g id="edge25_Node000021_Node000022" class="edge">
<title>Node21&#45;&gt;Node22</title>
<g id="a_edge25_Node000021_Node000022"><a xlink:title=" ">
<path fill="none" stroke="#63b8ff" d="M868.13,-246.28C876.64,-245.3 885.31,-244.3 893.76,-243.33"/>
<polygon fill="#63b8ff" stroke="#63b8ff" points="894.42,-246.78 903.96,-242.16 893.62,-239.83 894.42,-246.78"/>
</a>
</g>
</g>
<!-- Node23 -->
<g id="Node000023" class="node">
<title>Node23</title>
<g id="a_Node000023"><a xlink:href="osSendMesg_8c.html#a413bd1b0a16c54dcc9e59c48b3d7f142" target="_top" xlink:title=" ">
<polygon fill="white" stroke="#666666" points="1002,-282 924,-282 924,-263 1002,-263 1002,-282"/>
<text text-anchor="middle" x="963" y="-270" font-family="Helvetica,sans-Serif" font-size="10.00">osSendMesg</text>
</a>
</g>
</g>
<!-- Node21&#45;&gt;Node23 -->
<g id="edge26_Node000021_Node000023" class="edge">
<title>Node21&#45;&gt;Node23</title>
<g id="a_edge26_Node000021_Node000023"><a xlink:title=" ">
<path fill="none" stroke="#63b8ff" d="M868.13,-262.29C883.59,-263.97 899.59,-265.71 913.89,-267.27"/>
<polygon fill="#63b8ff" stroke="#63b8ff" points="913.66,-270.76 923.98,-268.37 914.42,-263.8 913.66,-270.76"/>
</a>
</g>
</g>
<!-- Node23&#45;&gt;Node12 -->
<g id="edge27_Node000023_Node000012" class="edge">
<title>Node23&#45;&gt;Node12</title>
<g id="a_edge27_Node000023_Node000012"><a xlink:title=" ">
<path fill="none" stroke="#63b8ff" d="M998.06,-262.94C1006.01,-260.44 1014.37,-257.57 1022,-254.5 1038.6,-247.83 1041.65,-243.75 1058,-236.5 1112.63,-212.29 1177.55,-187.89 1217.12,-173.49"/>
<polygon fill="#63b8ff" stroke="#63b8ff" points="1218.41,-176.75 1226.62,-170.05 1216.02,-170.17 1218.41,-176.75"/>
</a>
</g>
</g>
<!-- Node23&#45;&gt;Node13 -->
<g id="edge28_Node000023_Node000013" class="edge">
<title>Node23&#45;&gt;Node13</title>
<g id="a_edge28_Node000023_Node000013"><a xlink:title=" ">
<path fill="none" stroke="#63b8ff" d="M977.2,-282.01C994.69,-294.01 1026.96,-314.08 1058,-322.5 1098.31,-333.43 1144.99,-335.71 1182.62,-335.12"/>
<polygon fill="#63b8ff" stroke="#63b8ff" points="1183.07,-338.61 1192.99,-334.89 1182.91,-331.62 1183.07,-338.61"/>
</a>
</g>
</g>
<!-- Node23&#45;&gt;Node14 -->
<g id="edge29_Node000023_Node000014" class="edge">
<title>Node23&#45;&gt;Node14</title>
<g id="a_edge29_Node000023_Node000014"><a xlink:title=" ">
<path fill="none" stroke="#63b8ff" d="M983.98,-282.03C1002.63,-290.37 1031.51,-301.86 1058,-306.5 1105.33,-314.8 1159.93,-309.68 1199.37,-303.42"/>
<polygon fill="#63b8ff" stroke="#63b8ff" points="1200.03,-306.86 1209.32,-301.77 1198.88,-299.96 1200.03,-306.86"/>
</a>
</g>
</g>
<!-- Node23&#45;&gt;Node15 -->
<g id="edge30_Node000023_Node000015" class="edge">
<title>Node23&#45;&gt;Node15</title>
<g id="a_edge30_Node000023_Node000015"><a xlink:title=" ">
<path fill="none" stroke="#63b8ff" d="M1002.22,-265.09C1009.28,-262.53 1016.23,-259.1 1022,-254.5 1046.92,-234.64 1033.29,-212.62 1058,-192.5 1093.97,-163.22 1114.06,-177.03 1157,-159.5 1163.84,-156.71 1199.21,-139.35 1225.16,-126.54"/>
<polygon fill="#63b8ff" stroke="#63b8ff" points="1226.81,-129.63 1234.22,-122.06 1223.71,-123.35 1226.81,-129.63"/>
</a>
</g>
</g>
<!-- Node23&#45;&gt;Node16 -->
<g id="edge31_Node000023_Node000016" class="edge">
<title>Node23&#45;&gt;Node16</title>
<g id="a_edge31_Node000023_Node000016"><a xlink:title=" ">
<path fill="none" stroke="#63b8ff" d="M1002.19,-267.68C1018.38,-265.63 1037.51,-263.21 1054.93,-261.01"/>
<polygon fill="#63b8ff" stroke="#63b8ff" points="1055.47,-264.47 1064.95,-259.75 1054.59,-257.53 1055.47,-264.47"/>
</a>
</g>
</g>
<!-- Node24&#45;&gt;Node23 -->
<g id="edge35_Node000024_Node000023" class="edge">
<title>Node24&#45;&gt;Node23</title>
<g id="a_edge35_Node000024_Node000023"><a xlink:title=" ">
<path fill="none" stroke="#63b8ff" d="M844.37,-286C866.21,-283.5 892.02,-280.53 913.89,-278.02"/>
<polygon fill="#63b8ff" stroke="#63b8ff" points="914.41,-281.49 923.95,-276.87 913.61,-274.53 914.41,-281.49"/>
</a>
</g>
</g>
<!-- Node26 -->
<g id="Node000026" class="node">
<title>Node26</title>
<g id="a_Node000026"><a xlink:href="osTimer_8c.html#a0cd2e88f682b693d95449659e347af9a" target="_top" xlink:title=" ">
<polygon fill="white" stroke="#666666" points="1155,-74 1060,-74 1060,-55 1155,-55 1155,-74"/>
<text text-anchor="middle" x="1107.5" y="-62" font-family="Helvetica,sans-Serif" font-size="10.00">__osInsertTimer</text>
</a>
</g>
</g>
<!-- Node25&#45;&gt;Node26 -->
<g id="edge39_Node000025_Node000026" class="edge">
<title>Node25&#45;&gt;Node26</title>
<g id="a_edge39_Node000025_Node000026"><a xlink:title=" ">
<path fill="none" stroke="#63b8ff" d="M999.22,-64.5C1014.38,-64.5 1032.48,-64.5 1049.46,-64.5"/>
<polygon fill="#63b8ff" stroke="#63b8ff" points="1049.85,-68 1059.85,-64.5 1049.85,-61 1049.85,-68"/>
</a>
</g>
</g>
<!-- Node27 -->
<g id="Node000027" class="node">
<title>Node27</title>
<g id="a_Node000027"><a xlink:href="osTimer_8c.html#aab1ae78b18f6455248b3b5c14bc74328" target="_top" xlink:title=" ">
<polygon fill="white" stroke="#666666" points="1157,-37 1058,-37 1058,-18 1157,-18 1157,-37"/>
<text text-anchor="middle" x="1107.5" y="-25" font-family="Helvetica,sans-Serif" font-size="10.00">__osSetTimerIntr</text>
</a>
</g>
</g>
<!-- Node25&#45;&gt;Node27 -->
<g id="edge40_Node000025_Node000027" class="edge">
<title>Node25&#45;&gt;Node27</title>
<g id="a_edge40_Node000025_Node000027"><a xlink:title=" ">
<path fill="none" stroke="#63b8ff" d="M999.22,-55.35C1017.56,-50.59 1040.21,-44.71 1059.96,-39.58"/>
<polygon fill="#63b8ff" stroke="#63b8ff" points="1060.89,-42.96 1069.69,-37.06 1059.13,-36.18 1060.89,-42.96"/>
</a>
</g>
</g>
<!-- Node27&#45;&gt;Node12 -->
<g id="edge41_Node000027_Node000012" class="edge">
<title>Node27&#45;&gt;Node12</title>
<g id="a_edge41_Node000027_Node000012"><a xlink:title=" ">
<path fill="none" stroke="#63b8ff" d="M1144.9,-37.16C1149.32,-39.4 1153.5,-42.14 1157,-45.5 1186.9,-74.19 1164.45,-101.47 1193,-131.5 1198.82,-137.62 1206.2,-142.6 1213.78,-146.6"/>
<polygon fill="#63b8ff" stroke="#63b8ff" points="1212.51,-149.87 1223.05,-150.99 1215.51,-143.54 1212.51,-149.87"/>
</a>
</g>
</g>
<!-- Node27&#45;&gt;Node15 -->
<g id="edge42_Node000027_Node000015" class="edge">
<title>Node27&#45;&gt;Node15</title>
<g id="a_edge42_Node000027_Node000015"><a xlink:title=" ">
<path fill="none" stroke="#63b8ff" d="M1138,-37.1C1144.39,-39.55 1151.03,-42.38 1157,-45.5 1185.22,-60.23 1214.9,-81.91 1233.77,-96.58"/>
<polygon fill="#63b8ff" stroke="#63b8ff" points="1231.62,-99.34 1241.64,-102.78 1235.95,-93.84 1231.62,-99.34"/>
</a>
</g>
</g>
<!-- Node28 -->
<g id="Node000028" class="node">
<title>Node28</title>
<g id="a_Node000028"><a xlink:href="libultra__internal_8h.html#a690cad10244bbcfa0cc27e601a642c2f" target="_top" xlink:title=" ">
<polygon fill="white" stroke="#666666" points="1303.5,-56 1205.5,-56 1205.5,-37 1303.5,-37 1303.5,-56"/>
<text text-anchor="middle" x="1254.5" y="-44" font-family="Helvetica,sans-Serif" font-size="10.00">__osSetCompare</text>
</a>
</g>
</g>
<!-- Node27&#45;&gt;Node28 -->
<g id="edge43_Node000027_Node000028" class="edge">
<title>Node27&#45;&gt;Node28</title>
<g id="a_edge43_Node000027_Node000028"><a xlink:title=" ">
<path fill="none" stroke="#63b8ff" d="M1157.19,-33.88C1169.39,-35.48 1182.61,-37.21 1195.23,-38.86"/>
<polygon fill="#63b8ff" stroke="#63b8ff" points="1194.82,-42.34 1205.19,-40.17 1195.73,-35.4 1194.82,-42.34"/>
</a>
</g>
</g>
<!-- Node29 -->
<g id="Node000029" class="node">
<title>Node29</title>
<g id="a_Node000029"><a xlink:href="os__misc_8h.html#ade84d2da5a97b7796811e6c1f7cb7bc1" target="_top" xlink:title=" ">
<polygon fill="white" stroke="#666666" points="1291.5,-19 1217.5,-19 1217.5,0 1291.5,0 1291.5,-19"/>
<text text-anchor="middle" x="1254.5" y="-7" font-family="Helvetica,sans-Serif" font-size="10.00">osGetCount</text>
</a>
</g>
</g>
<!-- Node27&#45;&gt;Node29 -->
<g id="edge44_Node000027_Node000029" class="edge">
<title>Node27&#45;&gt;Node29</title>
<g id="a_edge44_Node000027_Node000029"><a xlink:title=" ">
<path fill="none" stroke="#63b8ff" d="M1157.19,-21.46C1173.25,-19.46 1191.07,-17.25 1206.96,-15.28"/>
<polygon fill="#63b8ff" stroke="#63b8ff" points="1207.6,-18.72 1217.1,-14.02 1206.74,-11.78 1207.6,-18.72"/>
</a>
</g>
</g>
</g>
</svg>
