<?xml version="1.0" encoding="UTF-8" standalone="no"?>
<!DOCTYPE svg PUBLIC "-//W3C//DTD SVG 1.1//EN"
 "http://www.w3.org/Graphics/SVG/1.1/DTD/svg11.dtd">
<!-- Generated by graphviz version 2.43.0 (0)
 -->
<!-- Title: sequence_channel_disable Pages: 1 -->
<!--zoomable 440 -->
<svg id="main" version="1.1" xmlns="http://www.w3.org/2000/svg" xmlns:xlink="http://www.w3.org/1999/xlink" xml:space="preserve" onload="init(evt)">
<style type="text/css"><![CDATA[
.edge:hover path { stroke: red; }
.edge:hover polygon { stroke: red; fill: red; }
]]></style>
<script type="text/javascript"><![CDATA[
var edges = document.getElementsByTagName('g');
if (edges && edges.length) {
  for (var i=0;i<edges.length;i++) {
    if (edges[i].id.substr(0,4)=='edge') {
      edges[i].setAttribute('class','edge');
    }
  }
}
]]></script>
        <defs>
                <circle id="rim" cx="0" cy="0" r="7"/>
                <circle id="rim2" cx="0" cy="0" r="3.5"/>
                <g id="zoomPlus">
                        <use xlink:href="#rim" fill="#404040">
                                <set attributeName="fill" to="#808080" begin="zoomplus.mouseover" end="zoomplus.mouseout"/>
                        </use>
                        <path d="M-4,0h8M0,-4v8" fill="none" stroke="white" stroke-width="1.5" pointer-events="none"/>
                </g>
                <g id="zoomMin">
                        <use xlink:href="#rim" fill="#404040">
                                <set attributeName="fill" to="#808080" begin="zoomminus.mouseover" end="zoomminus.mouseout"/>
                        </use>
                        <path d="M-4,0h8" fill="none" stroke="white" stroke-width="1.5" pointer-events="none"/>
                </g>
                <g id="dirArrow">
                        <path fill="none" stroke="white" stroke-width="1.5" d="M0,-3.0v7 M-2.5,-0.5L0,-3.0L2.5,-0.5"/>
                </g>
               <g id="resetDef">
                       <use xlink:href="#rim2" fill="#404040">
                               <set attributeName="fill" to="#808080" begin="reset.mouseover" end="reset.mouseout"/>
                       </use>
               </g>
        </defs>

<script type="text/javascript">
var viewWidth = 2490;
var viewHeight = 440;
var sectionId = 'dynsection-26';
</script>
<script xlink:href="svgpan.js"/>
<svg id="graph" class="graph">
<g id="viewport">
<title>sequence_channel_disable</title>
<polygon fill="white" stroke="transparent" points="-4,4 -4,-436 2486,-436 2486,4 -4,4"/>
<!-- Node1 -->
<g id="node1" class="node">
<title>Node1</title>
<g id="a_node1"><a xlink:title=" ">
<polygon fill="#bfbfbf" stroke="black" points="2335,-66.5 2335,-85.5 2482,-85.5 2482,-66.5 2335,-66.5"/>
<text text-anchor="middle" x="2408.5" y="-73.5" font-family="Helvetica,sans-Serif" font-size="10.00">sequence_channel_disable</text>
</a>
</g>
</g>
<!-- Node2 -->
<g id="node2" class="node">
<title>Node2</title>
<g id="a_node2"><a xlink:href="playback_8c.html#a6072a70c0d32abbae03e563cf3f51c92" target="_top" xlink:title=" ">
<polygon fill="white" stroke="black" points="2005.5,-0.5 2005.5,-19.5 2091.5,-19.5 2091.5,-0.5 2005.5,-0.5"/>
<text text-anchor="middle" x="2048.5" y="-7.5" font-family="Helvetica,sans-Serif" font-size="10.00">process_notes</text>
</a>
</g>
</g>
<!-- Node1&#45;&gt;Node2 -->
<g id="edge1" class="edge">
<title>Node1&#45;&gt;Node2</title>
<path fill="none" stroke="midnightblue" d="M2345.9,-64.64C2273.28,-51.25 2154.54,-29.36 2091.65,-17.77"/>
<polygon fill="midnightblue" stroke="midnightblue" points="2345.36,-68.1 2355.83,-66.47 2346.63,-61.22 2345.36,-68.1"/>
</g>
<!-- Node10 -->
<g id="node10" class="node">
<title>Node10</title>
<g id="a_node10"><a xlink:href="seqplayer_8c.html#aa8903a3fda21cf479983688b377deb37" target="_top" xlink:title=" ">
<polygon fill="white" stroke="black" points="1974,-39 1974,-69 2123,-69 2123,-39 1974,-39"/>
<text text-anchor="start" x="1982" y="-57" font-family="Helvetica,sans-Serif" font-size="10.00">sequence_channel_process</text>
<text text-anchor="middle" x="2048.5" y="-46" font-family="Helvetica,sans-Serif" font-size="10.00">_script</text>
</a>
</g>
</g>
<!-- Node1&#45;&gt;Node10 -->
<g id="edge9" class="edge">
<title>Node1&#45;&gt;Node10</title>
<path fill="none" stroke="midnightblue" d="M2324.28,-70.89C2263.45,-67.15 2181.68,-62.12 2123.2,-58.53"/>
<polygon fill="midnightblue" stroke="midnightblue" points="2324.43,-74.4 2334.62,-71.52 2324.86,-67.41 2324.43,-74.4"/>
</g>
<!-- Node12 -->
<g id="node12" class="node">
<title>Node12</title>
<g id="a_node12"><a xlink:href="seqplayer_8c.html#afd6333d150711e68b7e4ccc3806a84b1" target="_top" xlink:title=" ">
<polygon fill="white" stroke="black" points="2159,-132 2159,-162 2299,-162 2299,-132 2159,-132"/>
<text text-anchor="start" x="2167" y="-150" font-family="Helvetica,sans-Serif" font-size="10.00">sequence_player_disable</text>
<text text-anchor="middle" x="2229" y="-139" font-family="Helvetica,sans-Serif" font-size="10.00">_channels</text>
</a>
</g>
</g>
<!-- Node1&#45;&gt;Node12 -->
<g id="edge12" class="edge">
<title>Node1&#45;&gt;Node12</title>
<path fill="none" stroke="midnightblue" d="M2376.7,-89.58C2355.08,-98.98 2325.42,-111.62 2299,-122 2290.58,-125.31 2281.52,-128.7 2272.83,-131.88"/>
<polygon fill="midnightblue" stroke="midnightblue" points="2378.26,-92.71 2386.02,-85.51 2375.46,-86.3 2378.26,-92.71"/>
</g>
<!-- Node30 -->
<g id="node30" class="node">
<title>Node30</title>
<g id="a_node30"><a xlink:href="seqplayer_8c.html#a7efb03b47bc7824c0a10b450ef75de8b" target="_top" xlink:title=" ">
<polygon fill="white" stroke="black" points="2169,-83 2169,-113 2289,-113 2289,-83 2169,-83"/>
<text text-anchor="start" x="2177" y="-101" font-family="Helvetica,sans-Serif" font-size="10.00">sequence_player_init</text>
<text text-anchor="middle" x="2229" y="-90" font-family="Helvetica,sans-Serif" font-size="10.00">_channels</text>
</a>
</g>
</g>
<!-- Node1&#45;&gt;Node30 -->
<g id="edge43" class="edge">
<title>Node1&#45;&gt;Node30</title>
<path fill="none" stroke="midnightblue" d="M2324.73,-86.26C2312.68,-87.75 2300.49,-89.26 2289.04,-90.68"/>
<polygon fill="midnightblue" stroke="midnightblue" points="2325.3,-89.72 2334.79,-85.01 2324.44,-82.77 2325.3,-89.72"/>
</g>
<!-- Node3 -->
<g id="node3" class="node">
<title>Node3</title>
<g id="a_node3"><a xlink:href="seqplayer_8c.html#ac346f9d8e5c5a7e6266c2529510b673d" target="_top" xlink:title=" ">
<polygon fill="white" stroke="black" points="1642,-53.5 1642,-72.5 1753,-72.5 1753,-53.5 1642,-53.5"/>
<text text-anchor="middle" x="1697.5" y="-60.5" font-family="Helvetica,sans-Serif" font-size="10.00">process_sequences</text>
</a>
</g>
</g>
<!-- Node2&#45;&gt;Node3 -->
<g id="edge2" class="edge">
<title>Node2&#45;&gt;Node3</title>
<path fill="none" stroke="midnightblue" d="M1995.03,-10.01C1943.77,-10.95 1863.78,-14.88 1796,-29 1769.32,-34.56 1739.95,-45.5 1720.49,-53.48"/>
<polygon fill="midnightblue" stroke="midnightblue" points="1995.26,-13.51 2005.2,-9.86 1995.15,-6.51 1995.26,-13.51"/>
</g>
<!-- Node4 -->
<g id="node4" class="node">
<title>Node4</title>
<g id="a_node4"><a xlink:href="synthesis_8c.html#ab10b9870ec62bc5640ab92d2d682bf93" target="_top" xlink:title=" ">
<polygon fill="white" stroke="black" points="805.5,-127.5 805.5,-146.5 912.5,-146.5 912.5,-127.5 805.5,-127.5"/>
<text text-anchor="middle" x="859" y="-134.5" font-family="Helvetica,sans-Serif" font-size="10.00">synthesis_execute</text>
</a>
</g>
</g>
<!-- Node3&#45;&gt;Node4 -->
<g id="edge3" class="edge">
<title>Node3&#45;&gt;Node4</title>
<path fill="none" stroke="midnightblue" d="M1631.49,-65.8C1564.57,-68.45 1457.27,-72 1364.5,-72 1364.5,-72 1364.5,-72 1186,-72 1074.04,-72 944.55,-109.33 888.4,-127.41"/>
<polygon fill="midnightblue" stroke="midnightblue" points="1632.02,-69.29 1641.88,-65.39 1631.74,-62.29 1632.02,-69.29"/>
</g>
<!-- Node5 -->
<g id="node5" class="node">
<title>Node5</title>
<g id="a_node5"><a xlink:href="port__eu_8c.html#aa136d9ba80ebfd484d7abc25534bfdc6" target="_top" xlink:title=" ">
<polygon fill="white" stroke="black" points="461,-279.5 461,-298.5 628,-298.5 628,-279.5 461,-279.5"/>
<text text-anchor="middle" x="544.5" y="-286.5" font-family="Helvetica,sans-Serif" font-size="10.00">create_next_audio_frame_task</text>
</a>
</g>
</g>
<!-- Node4&#45;&gt;Node5 -->
<g id="edge4" class="edge">
<title>Node4&#45;&gt;Node5</title>
<path fill="none" stroke="midnightblue" d="M829.12,-151.05C766.23,-181.64 618.3,-253.59 565.04,-279.5"/>
<polygon fill="midnightblue" stroke="midnightblue" points="830.99,-154.03 838.45,-146.51 827.93,-147.73 830.99,-154.03"/>
</g>
<!-- Node6 -->
<g id="node6" class="node">
<title>Node6</title>
<g id="a_node6"><a xlink:href="main_8c.html#adc4ddc4dba28c4eebe8a7c28e5559b11" target="_top" xlink:title=" ">
<polygon fill="white" stroke="black" points="339,-279.5 339,-298.5 425,-298.5 425,-279.5 339,-279.5"/>
<text text-anchor="middle" x="382" y="-286.5" font-family="Helvetica,sans-Serif" font-size="10.00">thread4_audio</text>
</a>
</g>
</g>
<!-- Node5&#45;&gt;Node6 -->
<g id="edge5" class="edge">
<title>Node5&#45;&gt;Node6</title>
<path fill="none" stroke="midnightblue" d="M450.86,-289C442.02,-289 433.39,-289 425.41,-289"/>
<polygon fill="midnightblue" stroke="midnightblue" points="450.9,-292.5 460.9,-289 450.9,-285.5 450.9,-292.5"/>
</g>
<!-- Node7 -->
<g id="node7" class="node">
<title>Node7</title>
<g id="a_node7"><a xlink:href="main_8c.html#a023b8f272e4efbd33f371e91ffff6b30" target="_top" xlink:title=" ">
<polygon fill="white" stroke="black" points="217,-279.5 217,-298.5 303,-298.5 303,-279.5 217,-279.5"/>
<text text-anchor="middle" x="260" y="-286.5" font-family="Helvetica,sans-Serif" font-size="10.00">thread3_video</text>
</a>
</g>
</g>
<!-- Node6&#45;&gt;Node7 -->
<g id="edge6" class="edge">
<title>Node6&#45;&gt;Node7</title>
<path fill="none" stroke="midnightblue" d="M328.55,-289C320.12,-289 311.49,-289 303.33,-289"/>
<polygon fill="midnightblue" stroke="midnightblue" points="328.69,-292.5 338.69,-289 328.69,-285.5 328.69,-292.5"/>
</g>
<!-- Node8 -->
<g id="node8" class="node">
<title>Node8</title>
<g id="a_node8"><a xlink:href="main_8c.html#a1e35d2b842121e6aea373f09381616e5" target="_top" xlink:title=" ">
<polygon fill="white" stroke="black" points="104,-279.5 104,-298.5 181,-298.5 181,-279.5 104,-279.5"/>
<text text-anchor="middle" x="142.5" y="-286.5" font-family="Helvetica,sans-Serif" font-size="10.00">thread1_idle</text>
</a>
</g>
</g>
<!-- Node7&#45;&gt;Node8 -->
<g id="edge7" class="edge">
<title>Node7&#45;&gt;Node8</title>
<path fill="none" stroke="midnightblue" d="M206.9,-289C198.2,-289 189.33,-289 181.09,-289"/>
<polygon fill="midnightblue" stroke="midnightblue" points="206.98,-292.5 216.98,-289 206.98,-285.5 206.98,-292.5"/>
</g>
<!-- Node9 -->
<g id="node9" class="node">
<title>Node9</title>
<g id="a_node9"><a xlink:href="main_8c.html#a4f87d43525fe95f60ea92bc8a3b70e62" target="_top" xlink:title=" ">
<polygon fill="white" stroke="black" points="0,-279.5 0,-298.5 68,-298.5 68,-279.5 0,-279.5"/>
<text text-anchor="middle" x="34" y="-286.5" font-family="Helvetica,sans-Serif" font-size="10.00">main_func</text>
</a>
</g>
</g>
<!-- Node8&#45;&gt;Node9 -->
<g id="edge8" class="edge">
<title>Node8&#45;&gt;Node9</title>
<path fill="none" stroke="midnightblue" d="M93.95,-289C85.29,-289 76.44,-289 68.31,-289"/>
<polygon fill="midnightblue" stroke="midnightblue" points="93.95,-292.5 103.95,-289 93.95,-285.5 93.95,-292.5"/>
</g>
<!-- Node11 -->
<g id="node11" class="node">
<title>Node11</title>
<g id="a_node11"><a xlink:href="seqplayer_8c.html#a057e95b47ecbd1b645b1ef457f3854d9" target="_top" xlink:title=" ">
<polygon fill="white" stroke="black" points="1796,-39 1796,-69 1938,-69 1938,-39 1796,-39"/>
<text text-anchor="start" x="1804" y="-57" font-family="Helvetica,sans-Serif" font-size="10.00">sequence_player_process</text>
<text text-anchor="middle" x="1867" y="-46" font-family="Helvetica,sans-Serif" font-size="10.00">_sequence</text>
</a>
</g>
</g>
<!-- Node10&#45;&gt;Node11 -->
<g id="edge10" class="edge">
<title>Node10&#45;&gt;Node11</title>
<path fill="none" stroke="midnightblue" d="M1963.93,-54C1955.34,-54 1946.66,-54 1938.23,-54"/>
<polygon fill="midnightblue" stroke="midnightblue" points="1963.97,-57.5 1973.97,-54 1963.97,-50.5 1963.97,-57.5"/>
</g>
<!-- Node11&#45;&gt;Node3 -->
<g id="edge11" class="edge">
<title>Node11&#45;&gt;Node3</title>
<path fill="none" stroke="midnightblue" d="M1785.85,-58.31C1774.81,-58.9 1763.69,-59.5 1753.26,-60.06"/>
<polygon fill="midnightblue" stroke="midnightblue" points="1786.14,-61.8 1795.94,-57.76 1785.76,-54.81 1786.14,-61.8"/>
</g>
<!-- Node12&#45;&gt;Node11 -->
<g id="edge42" class="edge">
<title>Node12&#45;&gt;Node11</title>
<path fill="none" stroke="midnightblue" d="M2148.77,-139.87C2097.61,-133.46 2030.34,-121.58 1974,-100 1956.49,-93.29 1954.97,-85.98 1938,-78 1931.14,-74.78 1923.72,-71.76 1916.37,-69.03"/>
<polygon fill="midnightblue" stroke="midnightblue" points="2148.43,-143.36 2158.77,-141.08 2149.27,-136.41 2148.43,-143.36"/>
</g>
<!-- Node13 -->
<g id="node13" class="node">
<title>Node13</title>
<g id="a_node13"><a xlink:href="seqplayer_8c.html#a6de04cc97964a6560cc4f3e5a01426c1" target="_top" xlink:title=" ">
<polygon fill="white" stroke="black" points="1978.5,-172.5 1978.5,-191.5 2118.5,-191.5 2118.5,-172.5 1978.5,-172.5"/>
<text text-anchor="middle" x="2048.5" y="-179.5" font-family="Helvetica,sans-Serif" font-size="10.00">sequence_player_disable</text>
</a>
</g>
</g>
<!-- Node12&#45;&gt;Node13 -->
<g id="edge13" class="edge">
<title>Node12&#45;&gt;Node13</title>
<path fill="none" stroke="midnightblue" d="M2148.89,-162.51C2131.61,-165.9 2113.82,-169.39 2098.15,-172.46"/>
<polygon fill="midnightblue" stroke="midnightblue" points="2149.85,-165.89 2158.99,-160.53 2148.5,-159.02 2149.85,-165.89"/>
</g>
<!-- Node13&#45;&gt;Node11 -->
<g id="edge39" class="edge">
<title>Node13&#45;&gt;Node11</title>
<path fill="none" stroke="midnightblue" d="M1994.95,-168.53C1987.34,-164.99 1980.05,-160.56 1974,-155 1946.17,-129.45 1966.1,-103.25 1938,-78 1934.18,-74.57 1929.84,-71.62 1925.24,-69.09"/>
<polygon fill="midnightblue" stroke="midnightblue" points="1993.74,-171.82 2004.32,-172.41 1996.42,-165.35 1993.74,-171.82"/>
</g>
<!-- Node14 -->
<g id="node14" class="node">
<title>Node14</title>
<g id="a_node14"><a xlink:href="heap_8c.html#a1e60f925c18306c62090305c9248e8b3" target="_top" xlink:title=" ">
<polygon fill="white" stroke="black" points="960,-392 960,-422 1085,-422 1085,-392 960,-392"/>
<text text-anchor="start" x="968" y="-410" font-family="Helvetica,sans-Serif" font-size="10.00">audio_shut_down_and</text>
<text text-anchor="middle" x="1022.5" y="-399" font-family="Helvetica,sans-Serif" font-size="10.00">_reset_step</text>
</a>
</g>
</g>
<!-- Node13&#45;&gt;Node14 -->
<g id="edge14" class="edge">
<title>Node13&#45;&gt;Node14</title>
<path fill="none" stroke="midnightblue" d="M2036.57,-200.35C2018.89,-228.72 1981.6,-283.56 1938,-318 1845.49,-391.08 1816.39,-432 1698.5,-432 1698.5,-432 1698.5,-432 1362.5,-432 1265.42,-432 1153.13,-421.68 1085.26,-414.3"/>
<polygon fill="midnightblue" stroke="midnightblue" points="2039.56,-202.17 2041.79,-191.81 2033.59,-198.52 2039.56,-202.17"/>
</g>
<!-- Node15 -->
<g id="node15" class="node">
<title>Node15</title>
<g id="a_node15"><a xlink:href="heap_8c.html#a41929205ee1e0327c771ff4e381cdaf1" target="_top" xlink:title=" ">
<polygon fill="white" stroke="black" points="1815,-289.5 1815,-308.5 1919,-308.5 1919,-289.5 1815,-289.5"/>
<text text-anchor="middle" x="1867" y="-296.5" font-family="Helvetica,sans-Serif" font-size="10.00">discard_sequence</text>
</a>
</g>
</g>
<!-- Node13&#45;&gt;Node15 -->
<g id="edge16" class="edge">
<title>Node13&#45;&gt;Node15</title>
<path fill="none" stroke="midnightblue" d="M2025.49,-197.28C2003.51,-212.45 1968.68,-236.22 1938,-256 1919.66,-267.82 1898.24,-280.87 1883.97,-289.46"/>
<polygon fill="midnightblue" stroke="midnightblue" points="2027.57,-200.11 2033.8,-191.54 2023.58,-194.35 2027.57,-200.11"/>
</g>
<!-- Node18 -->
<g id="node18" class="node">
<title>Node18</title>
<g id="a_node18"><a xlink:href="load_8c.html#a6c3a18a0dda97c61c1b24745f64ca2a9" target="_top" xlink:title=" ">
<polygon fill="white" stroke="black" points="1121,-279.5 1121,-298.5 1253,-298.5 1253,-279.5 1121,-279.5"/>
<text text-anchor="middle" x="1187" y="-286.5" font-family="Helvetica,sans-Serif" font-size="10.00">load_sequence_internal</text>
</a>
</g>
</g>
<!-- Node13&#45;&gt;Node18 -->
<g id="edge38" class="edge">
<title>Node13&#45;&gt;Node18</title>
<path fill="none" stroke="midnightblue" d="M2004.68,-194.21C1939.26,-211.75 1810.25,-242 1698.5,-242 1698.5,-242 1698.5,-242 1535.5,-242 1425.62,-242 1397.23,-242.01 1289,-261 1264.27,-265.34 1236.85,-273.14 1216.83,-279.4"/>
<polygon fill="midnightblue" stroke="midnightblue" points="2005.89,-197.51 2014.62,-191.51 2004.05,-190.75 2005.89,-197.51"/>
</g>
<!-- Node20 -->
<g id="node20" class="node">
<title>Node20</title>
<g id="a_node20"><a xlink:href="port__eu_8c.html#af9631ae86d86a13a1cbdb83aec196fc3" target="_top" xlink:title=" ">
<polygon fill="white" stroke="black" points="794,-279.5 794,-298.5 924,-298.5 924,-279.5 794,-279.5"/>
<text text-anchor="middle" x="859" y="-286.5" font-family="Helvetica,sans-Serif" font-size="10.00">eu_process_audio_cmd</text>
</a>
</g>
</g>
<!-- Node13&#45;&gt;Node20 -->
<g id="edge34" class="edge">
<title>Node13&#45;&gt;Node20</title>
<path fill="none" stroke="midnightblue" d="M1983.47,-170.84C1887.06,-155.02 1698.74,-128 1537.5,-128 1537.5,-128 1537.5,-128 1186,-128 1048.39,-128 908.75,-244.75 870.32,-279.41"/>
<polygon fill="midnightblue" stroke="midnightblue" points="1982.92,-174.29 1993.35,-172.47 1984.06,-167.39 1982.92,-174.29"/>
</g>
<!-- Node27 -->
<g id="node27" class="node">
<title>Node27</title>
<g id="a_node27"><a xlink:href="seqplayer_8c.html#a1ff144431abaf7b30a7b42738102525d" target="_top" xlink:title=" ">
<polygon fill="white" stroke="black" points="1807,-175.5 1807,-194.5 1927,-194.5 1927,-175.5 1807,-175.5"/>
<text text-anchor="middle" x="1867" y="-182.5" font-family="Helvetica,sans-Serif" font-size="10.00">init_sequence_player</text>
</a>
</g>
</g>
<!-- Node13&#45;&gt;Node27 -->
<g id="edge35" class="edge">
<title>Node13&#45;&gt;Node27</title>
<path fill="none" stroke="midnightblue" d="M1967.96,-183.33C1954.25,-183.56 1940.23,-183.79 1927.18,-184.01"/>
<polygon fill="midnightblue" stroke="midnightblue" points="1968.42,-186.82 1978.36,-183.16 1968.3,-179.82 1968.42,-186.82"/>
</g>
<!-- Node29 -->
<g id="node29" class="node">
<title>Node29</title>
<g id="a_node29"><a xlink:href="audio_2effects_8c.html#ac6b3be4c7d0c4a4f7f02153b12d59d38" target="_top" xlink:title=" ">
<polygon fill="white" stroke="black" points="1796,-88 1796,-118 1938,-118 1938,-88 1796,-88"/>
<text text-anchor="start" x="1804" y="-106" font-family="Helvetica,sans-Serif" font-size="10.00">sequence_player_process</text>
<text text-anchor="middle" x="1867" y="-95" font-family="Helvetica,sans-Serif" font-size="10.00">_sound</text>
</a>
</g>
</g>
<!-- Node13&#45;&gt;Node29 -->
<g id="edge40" class="edge">
<title>Node13&#45;&gt;Node29</title>
<path fill="none" stroke="midnightblue" d="M2007.77,-169.02C1996.66,-164.96 1984.7,-160.17 1974,-155 1957.12,-146.84 1954.66,-141.6 1938,-133 1927.78,-127.72 1916.42,-122.57 1905.88,-118.06"/>
<polygon fill="midnightblue" stroke="midnightblue" points="2006.67,-172.34 2017.27,-172.4 2009.02,-165.75 2006.67,-172.34"/>
</g>
<!-- Node14&#45;&gt;Node5 -->
<g id="edge15" class="edge">
<title>Node14&#45;&gt;Node5</title>
<path fill="none" stroke="midnightblue" d="M950.82,-389.48C848.79,-364.18 663.72,-318.31 583.87,-298.51"/>
<polygon fill="midnightblue" stroke="midnightblue" points="950.18,-392.93 960.73,-391.94 951.87,-386.13 950.18,-392.93"/>
</g>
<!-- Node16 -->
<g id="node16" class="node">
<title>Node16</title>
<g id="a_node16"><a xlink:href="heap_8c.html#a105e103d6994e197dc2f26e721b6c35f" target="_top" xlink:title=" ">
<polygon fill="white" stroke="black" points="1644,-308.5 1644,-327.5 1751,-327.5 1751,-308.5 1644,-308.5"/>
<text text-anchor="middle" x="1697.5" y="-315.5" font-family="Helvetica,sans-Serif" font-size="10.00">alloc_bank_or_seq</text>
</a>
</g>
</g>
<!-- Node15&#45;&gt;Node16 -->
<g id="edge17" class="edge">
<title>Node15&#45;&gt;Node16</title>
<path fill="none" stroke="midnightblue" d="M1804.67,-305.96C1787.09,-307.95 1768.09,-310.11 1751.09,-312.03"/>
<polygon fill="midnightblue" stroke="midnightblue" points="1805.29,-309.41 1814.83,-304.8 1804.5,-302.45 1805.29,-309.41"/>
</g>
<!-- Node17 -->
<g id="node17" class="node">
<title>Node17</title>
<g id="a_node17"><a xlink:href="load_8c.html#aadb51ef287878081e4c9adf094a1797e" target="_top" xlink:title=" ">
<polygon fill="white" stroke="black" points="1313,-270.5 1313,-289.5 1414,-289.5 1414,-270.5 1313,-270.5"/>
<text text-anchor="middle" x="1363.5" y="-277.5" font-family="Helvetica,sans-Serif" font-size="10.00">bank_load_async</text>
</a>
</g>
</g>
<!-- Node16&#45;&gt;Node17 -->
<g id="edge18" class="edge">
<title>Node16&#45;&gt;Node17</title>
<path fill="none" stroke="midnightblue" d="M1642.88,-306.44C1628.67,-303.68 1613.3,-300.97 1599,-299 1535.47,-290.26 1461.67,-285.1 1414.08,-282.41"/>
<polygon fill="midnightblue" stroke="midnightblue" points="1642.5,-309.93 1652.99,-308.44 1643.86,-303.06 1642.5,-309.93"/>
</g>
<!-- Node22 -->
<g id="node22" class="node">
<title>Node22</title>
<g id="a_node22"><a xlink:href="load_8c.html#a743996a6c4479f2dfd5ee9b2729cb499" target="_top" xlink:title=" ">
<polygon fill="white" stroke="black" points="1474,-346.5 1474,-365.5 1599,-365.5 1599,-346.5 1474,-346.5"/>
<text text-anchor="middle" x="1536.5" y="-353.5" font-family="Helvetica,sans-Serif" font-size="10.00">bank_load_immediate</text>
</a>
</g>
</g>
<!-- Node16&#45;&gt;Node22 -->
<g id="edge24" class="edge">
<title>Node16&#45;&gt;Node22</title>
<path fill="none" stroke="midnightblue" d="M1646.42,-329.97C1624.14,-335.29 1598.27,-341.48 1577.33,-346.48"/>
<polygon fill="midnightblue" stroke="midnightblue" points="1647.47,-333.32 1656.38,-327.59 1645.84,-326.51 1647.47,-333.32"/>
</g>
<!-- Node25 -->
<g id="node25" class="node">
<title>Node25</title>
<g id="a_node25"><a xlink:href="load_8c.html#a0eceae7b2b85c04bd7f6b2c2f1f06345" target="_top" xlink:title=" ">
<polygon fill="white" stroke="black" points="1474.5,-308.5 1474.5,-327.5 1598.5,-327.5 1598.5,-308.5 1474.5,-308.5"/>
<text text-anchor="middle" x="1536.5" y="-315.5" font-family="Helvetica,sans-Serif" font-size="10.00">sequence_dma_async</text>
</a>
</g>
</g>
<!-- Node16&#45;&gt;Node25 -->
<g id="edge29" class="edge">
<title>Node16&#45;&gt;Node25</title>
<path fill="none" stroke="midnightblue" d="M1633.98,-318C1622.4,-318 1610.32,-318 1598.77,-318"/>
<polygon fill="midnightblue" stroke="midnightblue" points="1634,-321.5 1644,-318 1634,-314.5 1634,-321.5"/>
</g>
<!-- Node26 -->
<g id="node26" class="node">
<title>Node26</title>
<g id="a_node26"><a xlink:href="load_8c.html#a0bd7b915672bcab4999abb6b2a2520f1" target="_top" xlink:title=" ">
<polygon fill="white" stroke="black" points="1289,-384.5 1289,-403.5 1438,-403.5 1438,-384.5 1289,-384.5"/>
<text text-anchor="middle" x="1363.5" y="-391.5" font-family="Helvetica,sans-Serif" font-size="10.00">sequence_dma_immediate</text>
</a>
</g>
</g>
<!-- Node16&#45;&gt;Node26 -->
<g id="edge31" class="edge">
<title>Node16&#45;&gt;Node26</title>
<path fill="none" stroke="midnightblue" d="M1676.31,-333.48C1657.44,-347.02 1627.9,-365.9 1599,-375 1546.89,-391.4 1485.22,-395.85 1438.2,-396.36"/>
<polygon fill="midnightblue" stroke="midnightblue" points="1678.45,-336.25 1684.43,-327.51 1674.3,-330.61 1678.45,-336.25"/>
</g>
<!-- Node17&#45;&gt;Node18 -->
<g id="edge19" class="edge">
<title>Node17&#45;&gt;Node18</title>
<path fill="none" stroke="midnightblue" d="M1302.72,-283.08C1286.8,-283.9 1269.52,-284.8 1253.32,-285.63"/>
<polygon fill="midnightblue" stroke="midnightblue" points="1303.16,-286.57 1312.96,-282.55 1302.8,-279.57 1303.16,-286.57"/>
</g>
<!-- Node19 -->
<g id="node19" class="node">
<title>Node19</title>
<g id="a_node19"><a xlink:href="load_8c.html#a6002fcbd2dd5d0a3b0b378c3dc6ee731" target="_top" xlink:title=" ">
<polygon fill="white" stroke="black" points="978,-279.5 978,-298.5 1067,-298.5 1067,-279.5 978,-279.5"/>
<text text-anchor="middle" x="1022.5" y="-286.5" font-family="Helvetica,sans-Serif" font-size="10.00">load_sequence</text>
</a>
</g>
</g>
<!-- Node18&#45;&gt;Node19 -->
<g id="edge20" class="edge">
<title>Node18&#45;&gt;Node19</title>
<path fill="none" stroke="midnightblue" d="M1110.62,-289C1095.75,-289 1080.63,-289 1067.24,-289"/>
<polygon fill="midnightblue" stroke="midnightblue" points="1110.84,-292.5 1120.84,-289 1110.84,-285.5 1110.84,-292.5"/>
</g>
<!-- Node19&#45;&gt;Node20 -->
<g id="edge21" class="edge">
<title>Node19&#45;&gt;Node20</title>
<path fill="none" stroke="midnightblue" d="M967.42,-289C953.52,-289 938.42,-289 924.06,-289"/>
<polygon fill="midnightblue" stroke="midnightblue" points="967.8,-292.5 977.8,-289 967.8,-285.5 967.8,-292.5"/>
</g>
<!-- Node21 -->
<g id="node21" class="node">
<title>Node21</title>
<g id="a_node21"><a xlink:href="port__eu_8c.html#adbb164f6ad02d89aead401d442b75ce5" target="_top" xlink:title=" ">
<polygon fill="white" stroke="black" points="664,-279.5 664,-298.5 758,-298.5 758,-279.5 664,-279.5"/>
<text text-anchor="middle" x="711" y="-286.5" font-family="Helvetica,sans-Serif" font-size="10.00">func_800CBCB0</text>
</a>
</g>
</g>
<!-- Node20&#45;&gt;Node21 -->
<g id="edge22" class="edge">
<title>Node20&#45;&gt;Node21</title>
<path fill="none" stroke="midnightblue" d="M783.7,-289C774.94,-289 766.21,-289 758,-289"/>
<polygon fill="midnightblue" stroke="midnightblue" points="783.96,-292.5 793.96,-289 783.96,-285.5 783.96,-292.5"/>
</g>
<!-- Node21&#45;&gt;Node5 -->
<g id="edge23" class="edge">
<title>Node21&#45;&gt;Node5</title>
<path fill="none" stroke="midnightblue" d="M653.58,-289C645.37,-289 636.78,-289 628.19,-289"/>
<polygon fill="midnightblue" stroke="midnightblue" points="653.74,-292.5 663.74,-289 653.74,-285.5 653.74,-292.5"/>
</g>
<!-- Node23 -->
<g id="node23" class="node">
<title>Node23</title>
<g id="a_node23"><a xlink:href="load_8c.html#ab08df14a71055f77bc0a731980617f79" target="_top" xlink:title=" ">
<polygon fill="white" stroke="black" points="1298,-346.5 1298,-365.5 1429,-365.5 1429,-346.5 1298,-346.5"/>
<text text-anchor="middle" x="1363.5" y="-353.5" font-family="Helvetica,sans-Serif" font-size="10.00">load_banks_immediate</text>
</a>
</g>
</g>
<!-- Node22&#45;&gt;Node23 -->
<g id="edge25" class="edge">
<title>Node22&#45;&gt;Node23</title>
<path fill="none" stroke="midnightblue" d="M1463.75,-356C1452.23,-356 1440.36,-356 1429.03,-356"/>
<polygon fill="midnightblue" stroke="midnightblue" points="1463.77,-359.5 1473.77,-356 1463.77,-352.5 1463.77,-359.5"/>
</g>
<!-- Node23&#45;&gt;Node18 -->
<g id="edge26" class="edge">
<title>Node23&#45;&gt;Node18</title>
<path fill="none" stroke="midnightblue" d="M1321.63,-343.35C1310.95,-339.86 1299.49,-335.94 1289,-332 1260.99,-321.49 1229.35,-307.7 1209.06,-298.6"/>
<polygon fill="midnightblue" stroke="midnightblue" points="1320.59,-346.69 1331.18,-346.43 1322.74,-340.03 1320.59,-346.69"/>
</g>
<!-- Node24 -->
<g id="node24" class="node">
<title>Node24</title>
<g id="a_node24"><a xlink:href="load_8c.html#a87296581b8da4a2d19e2886665e12bef" target="_top" xlink:title=" ">
<polygon fill="white" stroke="black" points="1134.5,-346.5 1134.5,-365.5 1239.5,-365.5 1239.5,-346.5 1134.5,-346.5"/>
<text text-anchor="middle" x="1187" y="-353.5" font-family="Helvetica,sans-Serif" font-size="10.00">preload_sequence</text>
</a>
</g>
</g>
<!-- Node23&#45;&gt;Node24 -->
<g id="edge27" class="edge">
<title>Node23&#45;&gt;Node24</title>
<path fill="none" stroke="midnightblue" d="M1287.11,-356C1271.11,-356 1254.56,-356 1239.68,-356"/>
<polygon fill="midnightblue" stroke="midnightblue" points="1287.52,-359.5 1297.52,-356 1287.52,-352.5 1287.52,-359.5"/>
</g>
<!-- Node24&#45;&gt;Node20 -->
<g id="edge28" class="edge">
<title>Node24&#45;&gt;Node20</title>
<path fill="none" stroke="midnightblue" d="M1129.46,-344.38C1066.29,-331.4 965.21,-310.62 906.47,-298.55"/>
<polygon fill="midnightblue" stroke="midnightblue" points="1129.14,-347.89 1139.64,-346.47 1130.55,-341.03 1129.14,-347.89"/>
</g>
<!-- Node25&#45;&gt;Node18 -->
<g id="edge30" class="edge">
<title>Node25&#45;&gt;Node18</title>
<path fill="none" stroke="midnightblue" d="M1464.21,-312.92C1414.96,-309.31 1347.98,-304.19 1289,-299 1277.42,-297.98 1265.09,-296.82 1253.18,-295.66"/>
<polygon fill="midnightblue" stroke="midnightblue" points="1464.21,-316.43 1474.44,-313.66 1464.72,-309.44 1464.21,-316.43"/>
</g>
<!-- Node26&#45;&gt;Node18 -->
<g id="edge32" class="edge">
<title>Node26&#45;&gt;Node18</title>
<path fill="none" stroke="midnightblue" d="M1300.74,-380.83C1296.66,-379.12 1292.7,-377.18 1289,-375 1268.96,-363.19 1270.43,-352.41 1253,-337 1236.61,-322.5 1216.06,-307.85 1202.5,-298.61"/>
<polygon fill="midnightblue" stroke="midnightblue" points="1299.83,-384.23 1310.43,-384.45 1302.28,-377.68 1299.83,-384.23"/>
</g>
<!-- Node26&#45;&gt;Node24 -->
<g id="edge33" class="edge">
<title>Node26&#45;&gt;Node24</title>
<path fill="none" stroke="midnightblue" d="M1308.53,-382.25C1283.86,-376.87 1255.01,-370.59 1231.72,-365.52"/>
<polygon fill="midnightblue" stroke="midnightblue" points="1307.95,-385.7 1318.47,-384.41 1309.44,-378.86 1307.95,-385.7"/>
</g>
<!-- Node27&#45;&gt;Node18 -->
<g id="edge37" class="edge">
<title>Node27&#45;&gt;Node18</title>
<path fill="none" stroke="midnightblue" d="M1796.59,-186.15C1664.46,-188.99 1381.69,-198.43 1289,-228 1253.48,-239.33 1217.42,-265.38 1199.54,-279.5"/>
<polygon fill="midnightblue" stroke="midnightblue" points="1796.68,-189.65 1806.6,-185.94 1796.53,-182.65 1796.68,-189.65"/>
</g>
<!-- Node28 -->
<g id="node28" class="node">
<title>Node28</title>
<g id="a_node28"><a xlink:href="seqplayer_8c.html#a96fd2718691a0e1c86de13d55670a8b1" target="_top" xlink:title=" ">
<polygon fill="white" stroke="black" points="1635,-156.5 1635,-175.5 1760,-175.5 1760,-156.5 1635,-156.5"/>
<text text-anchor="middle" x="1697.5" y="-163.5" font-family="Helvetica,sans-Serif" font-size="10.00">init_sequence_players</text>
</a>
</g>
</g>
<!-- Node27&#45;&gt;Node28 -->
<g id="edge36" class="edge">
<title>Node27&#45;&gt;Node28</title>
<path fill="none" stroke="midnightblue" d="M1796.85,-177.16C1784.68,-175.78 1772.09,-174.35 1760.14,-172.99"/>
<polygon fill="midnightblue" stroke="midnightblue" points="1796.61,-180.65 1806.95,-178.3 1797.4,-173.7 1796.61,-180.65"/>
</g>
<!-- Node29&#45;&gt;Node3 -->
<g id="edge41" class="edge">
<title>Node29&#45;&gt;Node3</title>
<path fill="none" stroke="midnightblue" d="M1793.37,-85.66C1774.48,-81.15 1754.83,-76.45 1738.34,-72.51"/>
<polygon fill="midnightblue" stroke="midnightblue" points="1792.61,-89.07 1803.15,-87.99 1794.24,-82.26 1792.61,-89.07"/>
</g>
<!-- Node30&#45;&gt;Node11 -->
<g id="edge44" class="edge">
<title>Node30&#45;&gt;Node11</title>
<path fill="none" stroke="midnightblue" d="M2158.66,-95.24C2107.43,-92.55 2036.09,-87.42 1974,-78 1958.8,-75.69 1942.53,-72.42 1927.42,-69.04"/>
<polygon fill="midnightblue" stroke="midnightblue" points="2158.79,-98.75 2168.96,-95.76 2159.15,-91.76 2158.79,-98.75"/>
</g>
</g>
</svg>
        <g id="navigator" transform="translate(0 0)" fill="#404254">
                <rect fill="#f2f5e9" fill-opacity="0.5" stroke="#606060" stroke-width=".5" x="0" y="0" width="60" height="60"/>
                <use id="zoomplus" xlink:href="#zoomPlus" x="17" y="9" onmousedown="handleZoom(evt,'in')"/>
                <use id="zoomminus" xlink:href="#zoomMin" x="42" y="9" onmousedown="handleZoom(evt,'out')"/>
                <use id="reset" xlink:href="#resetDef" x="30" y="36" onmousedown="handleReset()"/>
                <g id="arrowUp" xlink:href="#dirArrow" transform="translate(30 24)" onmousedown="handlePan(0,-1)">
                  <use xlink:href="#rim" fill="#404040">
                        <set attributeName="fill" to="#808080" begin="arrowUp.mouseover" end="arrowUp.mouseout"/>
                  </use>
                  <path fill="none" stroke="white" stroke-width="1.5" d="M0,-3.0v7 M-2.5,-0.5L0,-3.0L2.5,-0.5"/>
                </g>
                <g id="arrowRight" xlink:href="#dirArrow" transform="rotate(90) translate(36 -43)" onmousedown="handlePan(1,0)">
                  <use xlink:href="#rim" fill="#404040">
                        <set attributeName="fill" to="#808080" begin="arrowRight.mouseover" end="arrowRight.mouseout"/>
                  </use>
                  <path fill="none" stroke="white" stroke-width="1.5" d="M0,-3.0v7 M-2.5,-0.5L0,-3.0L2.5,-0.5"/>
                </g>
                <g id="arrowDown" xlink:href="#dirArrow" transform="rotate(180) translate(-30 -48)" onmousedown="handlePan(0,1)">
                  <use xlink:href="#rim" fill="#404040">
                        <set attributeName="fill" to="#808080" begin="arrowDown.mouseover" end="arrowDown.mouseout"/>
                  </use>
                  <path fill="none" stroke="white" stroke-width="1.5" d="M0,-3.0v7 M-2.5,-0.5L0,-3.0L2.5,-0.5"/>
                </g>
                <g id="arrowLeft" xlink:href="#dirArrow" transform="rotate(270) translate(-36 17)" onmousedown="handlePan(-1,0)">
                  <use xlink:href="#rim" fill="#404040">
                        <set attributeName="fill" to="#808080" begin="arrowLeft.mouseover" end="arrowLeft.mouseout"/>
                  </use>
                  <path fill="none" stroke="white" stroke-width="1.5" d="M0,-3.0v7 M-2.5,-0.5L0,-3.0L2.5,-0.5"/>
                </g>
        </g>
        <svg viewBox="0 0 15 15" width="100%" height="30px" preserveAspectRatio="xMaxYMin meet">
         <g id="arrow_out" transform="scale(0.3 0.3)">
          <a xlink:href="seqplayer_8h_a7d828ec29f9d25dd452a27c6f042b545_icgraph_org.svg" target="_base">
           <rect id="button" ry="5" rx="5" y="6" x="6" height="38" width="38"
                fill="#f2f5e9" fill-opacity="0.5" stroke="#606060" stroke-width="1.0"/>
           <path id="arrow"
             d="M 11.500037,31.436501 C 11.940474,20.09759 22.043105,11.32322 32.158766,21.979434 L 37.068811,17.246167 C 37.068811,17.246167 37.088388,32 37.088388,32 L 22.160133,31.978069 C 22.160133,31.978069 26.997745,27.140456 26.997745,27.140456 C 18.528582,18.264221 13.291696,25.230495 11.500037,31.436501 z"
             style="fill:#404040;"/>
          </a>
         </g>
        </svg>
</svg>
