<?xml version="1.0" encoding="UTF-8" standalone="no"?>
<!DOCTYPE svg PUBLIC "-//W3C//DTD SVG 1.1//EN"
 "http://www.w3.org/Graphics/SVG/1.1/DTD/svg11.dtd">
<!-- Generated by graphviz version 2.43.0 (0)
 -->
<!-- Title: seq_channel_layer_free Pages: 1 -->
<svg width="829pt" height="82pt"
 viewBox="0.00 0.00 829.00 82.00" xmlns="http://www.w3.org/2000/svg" xmlns:xlink="http://www.w3.org/1999/xlink">
<g id="graph0" class="graph" transform="scale(1 1) rotate(0) translate(4 78)">
<title>seq_channel_layer_free</title>
<!-- Node1 -->
<g id="Node000001" class="node">
<title>Node1</title>
<g id="a_Node000001"><a xlink:title=" ">
<polygon fill="#999999" stroke="#666666" points="132,-55 0,-55 0,-36 132,-36 132,-55"/>
<text text-anchor="middle" x="66" y="-43" font-family="Helvetica,sans-Serif" font-size="10.00">seq_channel_layer_free</text>
</a>
</g>
</g>
<!-- Node2 -->
<g id="Node000002" class="node">
<title>Node2</title>
<g id="a_Node000002"><a xlink:href="seqplayer_8c.html#ad6bdf40a669a4ec92be6fb203b2abf0a" target="_top" xlink:title=" ">
<polygon fill="white" stroke="#666666" points="302.5,-74 181.5,-74 181.5,-55 302.5,-55 302.5,-74"/>
<text text-anchor="middle" x="242" y="-62" font-family="Helvetica,sans-Serif" font-size="10.00">audio_list_push_back</text>
</a>
</g>
</g>
<!-- Node1&#45;&gt;Node2 -->
<g id="edge1_Node000001_Node000002" class="edge">
<title>Node1&#45;&gt;Node2</title>
<g id="a_edge1_Node000001_Node000002"><a xlink:title=" ">
<path fill="none" stroke="#63b8ff" d="M132.29,-52.63C144.99,-54.02 158.36,-55.48 171.21,-56.88"/>
<polygon fill="#63b8ff" stroke="#63b8ff" points="171.05,-60.38 181.37,-57.99 171.81,-53.42 171.05,-60.38"/>
</a>
</g>
</g>
<!-- Node3 -->
<g id="Node000003" class="node">
<title>Node3</title>
<g id="a_Node000003"><a xlink:href="seqplayer_8c.html#a656b06579fc7235de0a9ead95b4aeb29" target="_top" xlink:title=" ">
<polygon fill="white" stroke="#666666" points="316,-37 168,-37 168,-18 316,-18 316,-37"/>
<text text-anchor="middle" x="242" y="-25" font-family="Helvetica,sans-Serif" font-size="10.00">seq_channel_layer_disable</text>
</a>
</g>
</g>
<!-- Node1&#45;&gt;Node3 -->
<g id="edge2_Node000001_Node000003" class="edge">
<title>Node1&#45;&gt;Node3</title>
<g id="a_edge2_Node000001_Node000003"><a xlink:title=" ">
<path fill="none" stroke="#63b8ff" d="M132.29,-38.75C140.6,-37.89 149.2,-37 157.76,-36.11"/>
<polygon fill="#63b8ff" stroke="#63b8ff" points="158.17,-39.59 167.75,-35.08 157.44,-32.63 158.17,-39.59"/>
</a>
</g>
</g>
<!-- Node4 -->
<g id="Node000004" class="node">
<title>Node4</title>
<g id="a_Node000004"><a xlink:href="playback_8c.html#a5a8c503b0091f9054e70f88feb90a603" target="_top" xlink:title=" ">
<polygon fill="white" stroke="#666666" points="486,-42.5 352,-42.5 352,-12.5 486,-12.5 486,-42.5"/>
<text text-anchor="start" x="360" y="-30.5" font-family="Helvetica,sans-Serif" font-size="10.00">seq_channel_layer_note</text>
<text text-anchor="middle" x="419" y="-19.5" font-family="Helvetica,sans-Serif" font-size="10.00">_decay</text>
</a>
</g>
</g>
<!-- Node3&#45;&gt;Node4 -->
<g id="edge3_Node000003_Node000004" class="edge">
<title>Node3&#45;&gt;Node4</title>
<g id="a_edge3_Node000003_Node000004"><a xlink:title=" ">
<path fill="none" stroke="#63b8ff" d="M316.2,-27.5C324.59,-27.5 333.16,-27.5 341.59,-27.5"/>
<polygon fill="#63b8ff" stroke="#63b8ff" points="341.79,-31 351.79,-27.5 341.79,-24 341.79,-31"/>
</a>
</g>
</g>
<!-- Node5 -->
<g id="Node000005" class="node">
<title>Node5</title>
<g id="a_Node000005"><a xlink:href="playback_8c.html#a689ccfe046fe63da331758ee7eec972a" target="_top" xlink:title=" ">
<polygon fill="white" stroke="#666666" points="664,-42.5 522,-42.5 522,-12.5 664,-12.5 664,-42.5"/>
<text text-anchor="start" x="530" y="-30.5" font-family="Helvetica,sans-Serif" font-size="10.00">seq_channel_layer_decay</text>
<text text-anchor="middle" x="593" y="-19.5" font-family="Helvetica,sans-Serif" font-size="10.00">_release_internal</text>
</a>
</g>
</g>
<!-- Node4&#45;&gt;Node5 -->
<g id="edge4_Node000004_Node000005" class="edge">
<title>Node4&#45;&gt;Node5</title>
<g id="a_edge4_Node000004_Node000005"><a xlink:title=" ">
<path fill="none" stroke="#63b8ff" d="M486.01,-27.5C494.45,-27.5 503.17,-27.5 511.8,-27.5"/>
<polygon fill="#63b8ff" stroke="#63b8ff" points="511.89,-31 521.89,-27.5 511.89,-24 511.89,-31"/>
</a>
</g>
</g>
<!-- Node6 -->
<g id="Node000006" class="node">
<title>Node6</title>
<g id="a_Node000006"><a xlink:href="playback_8c.html#aaa06908b1c008a03b28ed11241c45b19" target="_top" xlink:title=" ">
<polygon fill="white" stroke="#666666" points="821,-56 700,-56 700,-37 821,-37 821,-56"/>
<text text-anchor="middle" x="760.5" y="-44" font-family="Helvetica,sans-Serif" font-size="10.00">audio_list_push_front</text>
</a>
</g>
</g>
<!-- Node5&#45;&gt;Node6 -->
<g id="edge5_Node000005_Node000006" class="edge">
<title>Node5&#45;&gt;Node6</title>
<g id="a_edge5_Node000005_Node000006"><a xlink:title=" ">
<path fill="none" stroke="#63b8ff" d="M664.19,-35.56C672.64,-36.53 681.28,-37.52 689.73,-38.49"/>
<polygon fill="#63b8ff" stroke="#63b8ff" points="689.58,-42 699.92,-39.66 690.38,-35.04 689.58,-42"/>
</a>
</g>
</g>
<!-- Node7 -->
<g id="Node000007" class="node">
<title>Node7</title>
<g id="a_Node000007"><a xlink:href="playback_8c.html#a1a384aa226aef66cdab12750f1fde133" target="_top" xlink:title=" ">
<polygon fill="white" stroke="#666666" points="814,-19 707,-19 707,0 814,0 814,-19"/>
<text text-anchor="middle" x="760.5" y="-7" font-family="Helvetica,sans-Serif" font-size="10.00">audio_list_remove</text>
</a>
</g>
</g>
<!-- Node5&#45;&gt;Node7 -->
<g id="edge6_Node000005_Node000007" class="edge">
<title>Node5&#45;&gt;Node7</title>
<g id="a_edge6_Node000005_Node000007"><a xlink:title=" ">
<path fill="none" stroke="#63b8ff" d="M664.19,-19.87C675,-18.69 686.11,-17.48 696.75,-16.32"/>
<polygon fill="#63b8ff" stroke="#63b8ff" points="697.22,-19.79 706.78,-15.23 696.46,-12.84 697.22,-19.79"/>
</a>
</g>
</g>
</g>
</svg>
