<?xml version="1.0" encoding="UTF-8" standalone="no"?>
<!DOCTYPE svg PUBLIC "-//W3C//DTD SVG 1.1//EN"
 "http://www.w3.org/Graphics/SVG/1.1/DTD/svg11.dtd">
<!-- Generated by graphviz version 2.43.0 (0)
 -->
<!-- Title: courses/sherbet_land/course_displaylists.inc.h Pages: 1 -->
<svg width="647pt" height="269pt"
 viewBox="0.00 0.00 647.00 269.00" xmlns="http://www.w3.org/2000/svg" xmlns:xlink="http://www.w3.org/1999/xlink">
<g id="graph0" class="graph" transform="scale(1 1) rotate(0) translate(4 265)">
<title>courses/sherbet_land/course_displaylists.inc.h</title>
<!-- Node1 -->
<g id="Node000001" class="node">
<title>Node1</title>
<g id="a_Node000001"><a xlink:title=" ">
<polygon fill="#999999" stroke="#666666" points="492.5,-261 353.5,-261 353.5,-231 492.5,-231 492.5,-261"/>
<text text-anchor="start" x="361.5" y="-249" font-family="Helvetica,sans-Serif" font-size="10.00">courses/sherbet_land</text>
<text text-anchor="middle" x="423" y="-238" font-family="Helvetica,sans-Serif" font-size="10.00">/course_displaylists.inc.h</text>
</a>
</g>
</g>
<!-- Node2 -->
<g id="Node000002" class="node">
<title>Node2</title>
<g id="a_Node000002"><a xlink:href="all__course__packed_8h.html" target="_top" xlink:title=" ">
<polygon fill="white" stroke="#666666" points="344.5,-195 237.5,-195 237.5,-165 344.5,-165 344.5,-195"/>
<text text-anchor="start" x="245.5" y="-183" font-family="Helvetica,sans-Serif" font-size="10.00">courses/all_course</text>
<text text-anchor="middle" x="291" y="-172" font-family="Helvetica,sans-Serif" font-size="10.00">_packed.h</text>
</a>
</g>
</g>
<!-- Node1&#45;&gt;Node2 -->
<g id="edge1_Node000001_Node000002" class="edge">
<title>Node1&#45;&gt;Node2</title>
<g id="a_edge1_Node000001_Node000002"><a xlink:title=" ">
<path fill="none" stroke="#63b8ff" d="M384.87,-226.51C364.16,-216.47 338.97,-204.26 319.9,-195.01"/>
<polygon fill="#63b8ff" stroke="#63b8ff" points="383.51,-229.74 394.03,-230.95 386.56,-223.44 383.51,-229.74"/>
</a>
</g>
</g>
<!-- Node9 -->
<g id="Node000009" class="node">
<title>Node9</title>
<g id="a_Node000009"><a xlink:href="sherbet__land_2course__data_8inc_8c.html" target="_top" xlink:title=" ">
<polygon fill="white" stroke="#666666" points="483,-195 363,-195 363,-165 483,-165 483,-195"/>
<text text-anchor="start" x="371" y="-183" font-family="Helvetica,sans-Serif" font-size="10.00">courses/sherbet_land</text>
<text text-anchor="middle" x="423" y="-172" font-family="Helvetica,sans-Serif" font-size="10.00">/course_data.inc.c</text>
</a>
</g>
</g>
<!-- Node1&#45;&gt;Node9 -->
<g id="edge8_Node000001_Node000009" class="edge">
<title>Node1&#45;&gt;Node9</title>
<g id="a_edge8_Node000001_Node000009"><a xlink:title=" ">
<path fill="none" stroke="#63b8ff" d="M423,-220.54C423,-211.96 423,-202.61 423,-195.16"/>
<polygon fill="#63b8ff" stroke="#63b8ff" points="419.5,-220.8 423,-230.8 426.5,-220.8 419.5,-220.8"/>
</a>
</g>
</g>
<!-- Node10 -->
<g id="Node000010" class="node">
<title>Node10</title>
<g id="a_Node000010"><a xlink:href="sherbet__land_2course__displaylists_8inc_8c.html" target="_top" xlink:title=" ">
<polygon fill="white" stroke="#666666" points="639,-195 501,-195 501,-165 639,-165 639,-195"/>
<text text-anchor="start" x="509" y="-183" font-family="Helvetica,sans-Serif" font-size="10.00">courses/sherbet_land</text>
<text text-anchor="middle" x="570" y="-172" font-family="Helvetica,sans-Serif" font-size="10.00">/course_displaylists.inc.c</text>
</a>
</g>
</g>
<!-- Node1&#45;&gt;Node10 -->
<g id="edge9_Node000001_Node000010" class="edge">
<title>Node1&#45;&gt;Node10</title>
<g id="a_edge9_Node000001_Node000010"><a xlink:title=" ">
<path fill="none" stroke="#63b8ff" d="M464.53,-226.92C487.76,-216.8 516.29,-204.38 537.82,-195.01"/>
<polygon fill="#63b8ff" stroke="#63b8ff" points="463.03,-223.75 455.26,-230.95 465.83,-230.17 463.03,-223.75"/>
</a>
</g>
</g>
<!-- Node3 -->
<g id="Node000003" class="node">
<title>Node3</title>
<g id="a_Node000003"><a xlink:href="courseTable_8inc_8c.html" target="_top" xlink:title=" ">
<polygon fill="white" stroke="#666666" points="140,-129 0,-129 0,-110 140,-110 140,-129"/>
<text text-anchor="middle" x="70" y="-117" font-family="Helvetica,sans-Serif" font-size="10.00">courses/courseTable.inc.c</text>
</a>
</g>
</g>
<!-- Node2&#45;&gt;Node3 -->
<g id="edge2_Node000002_Node000003" class="edge">
<title>Node2&#45;&gt;Node3</title>
<g id="a_edge2_Node000002_Node000003"><a xlink:title=" ">
<path fill="none" stroke="#63b8ff" d="M228.15,-162.36C187.11,-151.5 135.23,-137.77 102.31,-129.05"/>
<polygon fill="#63b8ff" stroke="#63b8ff" points="227.5,-165.81 238.06,-164.99 229.29,-159.05 227.5,-165.81"/>
</a>
</g>
</g>
<!-- Node4 -->
<g id="Node000004" class="node">
<title>Node4</title>
<g id="a_Node000004"><a xlink:href="code__800029B0_8c.html" target="_top" xlink:title=" ">
<polygon fill="white" stroke="#666666" points="277.5,-129 158.5,-129 158.5,-110 277.5,-110 277.5,-129"/>
<text text-anchor="middle" x="218" y="-117" font-family="Helvetica,sans-Serif" font-size="10.00">src/code_800029B0.c</text>
</a>
</g>
</g>
<!-- Node2&#45;&gt;Node4 -->
<g id="edge3_Node000002_Node000004" class="edge">
<title>Node2&#45;&gt;Node4</title>
<g id="a_edge3_Node000002_Node000004"><a xlink:title=" ">
<path fill="none" stroke="#63b8ff" d="M265.46,-158.53C252.96,-148.51 238.57,-136.98 228.94,-129.27"/>
<polygon fill="#63b8ff" stroke="#63b8ff" points="263.34,-161.32 273.33,-164.84 267.71,-155.85 263.34,-161.32"/>
</a>
</g>
</g>
<!-- Node5 -->
<g id="Node000005" class="node">
<title>Node5</title>
<g id="a_Node000005"><a xlink:href="all__variables_8h.html" target="_top" xlink:title=" ">
<polygon fill="white" stroke="#666666" points="434,-129 296,-129 296,-110 434,-110 434,-129"/>
<text text-anchor="middle" x="365" y="-117" font-family="Helvetica,sans-Serif" font-size="10.00">src/debug/all_variables.h</text>
</a>
</g>
</g>
<!-- Node2&#45;&gt;Node5 -->
<g id="edge4_Node000002_Node000005" class="edge">
<title>Node2&#45;&gt;Node5</title>
<g id="a_edge4_Node000002_Node000005"><a xlink:title=" ">
<path fill="none" stroke="#63b8ff" d="M316.89,-158.53C329.57,-148.51 344.15,-136.98 353.91,-129.27"/>
<polygon fill="#63b8ff" stroke="#63b8ff" points="314.59,-155.89 308.91,-164.84 318.93,-161.38 314.59,-155.89"/>
</a>
</g>
</g>
<!-- Node8 -->
<g id="Node000008" class="node">
<title>Node8</title>
<g id="a_Node000008"><a xlink:href="render__courses_8c.html" target="_top" xlink:title=" ">
<polygon fill="white" stroke="#666666" points="601.5,-129 452.5,-129 452.5,-110 601.5,-110 601.5,-129"/>
<text text-anchor="middle" x="527" y="-117" font-family="Helvetica,sans-Serif" font-size="10.00">src/racing/render_courses.c</text>
</a>
</g>
</g>
<!-- Node2&#45;&gt;Node8 -->
<g id="edge7_Node000002_Node000008" class="edge">
<title>Node2&#45;&gt;Node8</title>
<g id="a_edge7_Node000002_Node000008"><a xlink:title=" ">
<path fill="none" stroke="#63b8ff" d="M354.39,-163.29C398.82,-152.27 456.51,-137.97 492.65,-129.02"/>
<polygon fill="#63b8ff" stroke="#63b8ff" points="353.42,-159.92 344.55,-165.73 355.1,-166.72 353.42,-159.92"/>
</a>
</g>
</g>
<!-- Node6 -->
<g id="Node000006" class="node">
<title>Node6</title>
<g id="a_Node000006"><a xlink:href="debug_8inc_8c.html" target="_top" xlink:title=" ">
<polygon fill="white" stroke="#666666" points="426,-74 304,-74 304,-55 426,-55 426,-74"/>
<text text-anchor="middle" x="365" y="-62" font-family="Helvetica,sans-Serif" font-size="10.00">src/debug/debug.inc.c</text>
</a>
</g>
</g>
<!-- Node5&#45;&gt;Node6 -->
<g id="edge5_Node000005_Node000006" class="edge">
<title>Node5&#45;&gt;Node6</title>
<g id="a_edge5_Node000005_Node000006"><a xlink:title=" ">
<path fill="none" stroke="#63b8ff" d="M365,-99.66C365,-90.93 365,-80.99 365,-74.09"/>
<polygon fill="#63b8ff" stroke="#63b8ff" points="361.5,-99.75 365,-109.75 368.5,-99.75 361.5,-99.75"/>
</a>
</g>
</g>
<!-- Node7 -->
<g id="Node000007" class="node">
<title>Node7</title>
<g id="a_Node000007"><a xlink:href="debug_8c.html" target="_top" xlink:title=" ">
<polygon fill="white" stroke="#666666" points="417.5,-19 312.5,-19 312.5,0 417.5,0 417.5,-19"/>
<text text-anchor="middle" x="365" y="-7" font-family="Helvetica,sans-Serif" font-size="10.00">src/debug/debug.c</text>
</a>
</g>
</g>
<!-- Node6&#45;&gt;Node7 -->
<g id="edge6_Node000006_Node000007" class="edge">
<title>Node6&#45;&gt;Node7</title>
<g id="a_edge6_Node000006_Node000007"><a xlink:title=" ">
<path fill="none" stroke="#63b8ff" d="M365,-44.66C365,-35.93 365,-25.99 365,-19.09"/>
<polygon fill="#63b8ff" stroke="#63b8ff" points="361.5,-44.75 365,-54.75 368.5,-44.75 361.5,-44.75"/>
</a>
</g>
</g>
</g>
</svg>
