<?xml version="1.0" encoding="UTF-8" standalone="no"?>
<!DOCTYPE svg PUBLIC "-//W3C//DTD SVG 1.1//EN"
 "http://www.w3.org/Graphics/SVG/1.1/DTD/svg11.dtd">
<!-- Generated by graphviz version 2.43.0 (0)
 -->
<!-- Title: init_rdp Pages: 1 -->
<svg width="1258pt" height="973pt"
 viewBox="0.00 0.00 1258.00 972.99" xmlns="http://www.w3.org/2000/svg" xmlns:xlink="http://www.w3.org/1999/xlink">
<g id="graph0" class="graph" transform="scale(1 1) rotate(0) translate(4 968.99)">
<title>init_rdp</title>
<polygon fill="white" stroke="transparent" points="-4,4 -4,-968.99 1254,-968.99 1254,4 -4,4"/>
<!-- Node1 -->
<g id="node1" class="node">
<title>Node1</title>
<g id="a_node1"><a xlink:title=" ">
<polygon fill="#bfbfbf" stroke="black" points="1197,-457.48 1197,-476.48 1250,-476.48 1250,-457.48 1197,-457.48"/>
<text text-anchor="middle" x="1223.5" y="-464.48" font-family="Helvetica,sans-Serif" font-size="10.00">init_rdp</text>
</a>
</g>
</g>
<!-- Node2 -->
<g id="node2" class="node">
<title>Node2</title>
<g id="a_node2"><a xlink:href="code__80280000_8c.html#aa9c130485d39c4a7276605b30db5150e" target="_top" xlink:title=" ">
<polygon fill="white" stroke="black" points="811,-172.48 811,-191.48 902,-191.48 902,-172.48 811,-172.48"/>
<text text-anchor="middle" x="856.5" y="-179.48" font-family="Helvetica,sans-Serif" font-size="10.00">func_80280038</text>
</a>
</g>
</g>
<!-- Node1&#45;&gt;Node2 -->
<g id="edge1" class="edge">
<title>Node1&#45;&gt;Node2</title>
<path fill="none" stroke="midnightblue" d="M1222.38,-447.1C1221.49,-377.31 1214.49,-145.25 1161,-99.98 1148.96,-89.79 960.5,-88.49 939,-100.98 911.45,-116.99 926.95,-141.97 903,-162.98 898.75,-166.71 893.67,-169.77 888.47,-172.28"/>
<polygon fill="midnightblue" stroke="midnightblue" points="1218.88,-447.22 1222.48,-457.19 1225.88,-447.16 1218.88,-447.22"/>
</g>
<!-- Node9 -->
<g id="node9" class="node">
<title>Node9</title>
<g id="a_node9"><a xlink:href="code__80281C40_8c.html#af6f6a1f0caec6d086a4ab98602a6670e" target="_top" xlink:title=" ">
<polygon fill="white" stroke="black" points="810.5,-134.48 810.5,-153.48 902.5,-153.48 902.5,-134.48 810.5,-134.48"/>
<text text-anchor="middle" x="856.5" y="-141.48" font-family="Helvetica,sans-Serif" font-size="10.00">func_80281D00</text>
</a>
</g>
</g>
<!-- Node1&#45;&gt;Node9 -->
<g id="edge8" class="edge">
<title>Node1&#45;&gt;Node9</title>
<path fill="none" stroke="midnightblue" d="M1222.49,-446.93C1221.99,-375.46 1216.19,-134.93 1161,-87.98 1085.85,-24.04 1033.23,-58.73 939,-87.98 909.82,-97.04 881.81,-120.58 867.46,-134.08"/>
<polygon fill="midnightblue" stroke="midnightblue" points="1218.99,-447.25 1222.53,-457.23 1225.99,-447.22 1218.99,-447.25"/>
</g>
<!-- Node11 -->
<g id="node11" class="node">
<title>Node11</title>
<g id="a_node11"><a xlink:href="render__courses_8c.html#af86d505614f3fe7f894b12a9d7ffc35c" target="_top" xlink:title=" ">
<polygon fill="white" stroke="black" points="939.5,-514.48 939.5,-533.48 1031.5,-533.48 1031.5,-514.48 939.5,-514.48"/>
<text text-anchor="middle" x="985.5" y="-521.48" font-family="Helvetica,sans-Serif" font-size="10.00">func_8029122C</text>
</a>
</g>
</g>
<!-- Node1&#45;&gt;Node11 -->
<g id="edge11" class="edge">
<title>Node1&#45;&gt;Node11</title>
<path fill="none" stroke="midnightblue" d="M1197.95,-481.63C1186.98,-487.56 1173.69,-493.95 1161,-497.98 1118.38,-511.51 1067.61,-518.07 1031.86,-521.2"/>
<polygon fill="midnightblue" stroke="midnightblue" points="1199.9,-484.54 1206.91,-476.6 1196.47,-478.44 1199.9,-484.54"/>
</g>
<!-- Node12 -->
<g id="node12" class="node">
<title>Node12</title>
<g id="a_node12"><a xlink:href="skybox__and__splitscreen_8c.html#a94c46fe3fe5eef642ce3520b68504133" target="_top" xlink:title=" ">
<polygon fill="white" stroke="black" points="810.5,-476.48 810.5,-495.48 902.5,-495.48 902.5,-476.48 810.5,-476.48"/>
<text text-anchor="middle" x="856.5" y="-483.48" font-family="Helvetica,sans-Serif" font-size="10.00">func_802A59A4</text>
</a>
</g>
</g>
<!-- Node1&#45;&gt;Node12 -->
<g id="edge73" class="edge">
<title>Node1&#45;&gt;Node12</title>
<path fill="none" stroke="midnightblue" d="M1219.82,-486.95C1214.46,-518.98 1199.46,-581.78 1161,-616.98 1116.72,-657.51 1091.35,-647.99 1032,-656.98 991.13,-663.17 971.42,-682.62 939,-656.98 884.55,-613.92 947.93,-557.91 903,-504.98 899.79,-501.2 895.69,-498.15 891.29,-495.7"/>
<polygon fill="midnightblue" stroke="midnightblue" points="1223.34,-487.07 1221.38,-476.65 1216.42,-486.02 1223.34,-487.07"/>
</g>
<!-- Node13 -->
<g id="node13" class="node">
<title>Node13</title>
<g id="a_node13"><a xlink:href="main_8c.html#afff87ffcbfee4f1f37d443110aa7b52a" target="_top" xlink:title=" ">
<polygon fill="white" stroke="black" points="661,-495.48 661,-514.48 753,-514.48 753,-495.48 661,-495.48"/>
<text text-anchor="middle" x="707" y="-502.48" font-family="Helvetica,sans-Serif" font-size="10.00">race_logic_loop</text>
</a>
</g>
</g>
<!-- Node1&#45;&gt;Node13 -->
<g id="edge86" class="edge">
<title>Node1&#45;&gt;Node13</title>
<path fill="none" stroke="midnightblue" d="M1221.85,-486.87C1219.28,-551 1207.64,-750.46 1161,-789.98 1085.72,-853.77 1029.66,-831.94 939,-792.98 807.09,-736.29 729.16,-558.31 711.74,-514.7"/>
<polygon fill="midnightblue" stroke="midnightblue" points="1225.36,-486.66 1222.23,-476.54 1218.36,-486.4 1225.36,-486.66"/>
</g>
<!-- Node14 -->
<g id="node14" class="node">
<title>Node14</title>
<g id="a_node14"><a xlink:href="skybox__and__splitscreen_8c.html#a9be31591c8a78c96ca86c1b87c3ec0a8" target="_top" xlink:title=" ">
<polygon fill="white" stroke="black" points="810,-552.48 810,-571.48 903,-571.48 903,-552.48 810,-552.48"/>
<text text-anchor="middle" x="856.5" y="-559.48" font-family="Helvetica,sans-Serif" font-size="10.00">func_802A5CB4</text>
</a>
</g>
</g>
<!-- Node1&#45;&gt;Node14 -->
<g id="edge74" class="edge">
<title>Node1&#45;&gt;Node14</title>
<path fill="none" stroke="midnightblue" d="M1223.05,-486.91C1223.02,-528.67 1216.59,-625.62 1161,-674.98 1086.86,-740.81 1018.83,-755.79 939,-696.98 895.54,-664.96 939.32,-620.91 903,-580.98 899.54,-577.18 895.21,-574.12 890.6,-571.66"/>
<polygon fill="midnightblue" stroke="midnightblue" points="1226.54,-486.63 1222.92,-476.67 1219.54,-486.71 1226.54,-486.63"/>
</g>
<!-- Node15 -->
<g id="node15" class="node">
<title>Node15</title>
<g id="a_node15"><a xlink:href="skybox__and__splitscreen_8c.html#a3f9172888ae23d5920b6c6b352af2bd3" target="_top" xlink:title=" ">
<polygon fill="white" stroke="black" points="810.5,-438.48 810.5,-457.48 902.5,-457.48 902.5,-438.48 810.5,-438.48"/>
<text text-anchor="middle" x="856.5" y="-445.48" font-family="Helvetica,sans-Serif" font-size="10.00">func_802A5FAC</text>
</a>
</g>
</g>
<!-- Node1&#45;&gt;Node15 -->
<g id="edge75" class="edge">
<title>Node1&#45;&gt;Node15</title>
<path fill="none" stroke="midnightblue" d="M1222.33,-446.83C1220.83,-407.88 1211.59,-322.29 1161,-278.98 1116.87,-241.2 1089.9,-262.66 1032,-257.98 990.8,-254.65 971.1,-231.94 939,-257.98 878.69,-306.92 952.52,-369.15 903,-428.98 899.83,-432.81 895.77,-435.87 891.37,-438.33"/>
<polygon fill="midnightblue" stroke="midnightblue" points="1218.84,-447.41 1222.59,-457.32 1225.84,-447.24 1218.84,-447.41"/>
</g>
<!-- Node16 -->
<g id="node16" class="node">
<title>Node16</title>
<g id="a_node16"><a xlink:href="skybox__and__splitscreen_8c.html#a897b8a8f9d54144b0916eb7173651af0" target="_top" xlink:title=" ">
<polygon fill="white" stroke="black" points="810.5,-514.48 810.5,-533.48 902.5,-533.48 902.5,-514.48 810.5,-514.48"/>
<text text-anchor="middle" x="856.5" y="-521.48" font-family="Helvetica,sans-Serif" font-size="10.00">func_802A62A4</text>
</a>
</g>
</g>
<!-- Node1&#45;&gt;Node16 -->
<g id="edge76" class="edge">
<title>Node1&#45;&gt;Node16</title>
<path fill="none" stroke="midnightblue" d="M1221.82,-486.67C1219.4,-524 1208.64,-605.15 1161,-647.98 1117.3,-687.26 1090.41,-670.5 1032,-676.98 990.92,-681.54 971.8,-702.13 939,-676.98 890.06,-639.46 943.61,-589.39 903,-542.98 899.62,-539.12 895.32,-536.02 890.73,-533.54"/>
<polygon fill="midnightblue" stroke="midnightblue" points="1225.32,-486.75 1222.33,-476.59 1218.33,-486.4 1225.32,-486.75"/>
</g>
<!-- Node17 -->
<g id="node17" class="node">
<title>Node17</title>
<g id="a_node17"><a xlink:href="skybox__and__splitscreen_8c.html#acdf96ac83288ec562406d39e4dce3e01" target="_top" xlink:title=" ">
<polygon fill="white" stroke="black" points="810.5,-590.48 810.5,-609.48 902.5,-609.48 902.5,-590.48 810.5,-590.48"/>
<text text-anchor="middle" x="856.5" y="-597.48" font-family="Helvetica,sans-Serif" font-size="10.00">func_802A65B8</text>
</a>
</g>
</g>
<!-- Node1&#45;&gt;Node17 -->
<g id="edge77" class="edge">
<title>Node1&#45;&gt;Node17</title>
<path fill="none" stroke="midnightblue" d="M1220.49,-486.95C1214.67,-540.56 1195.94,-685.67 1161,-715.98 1086.34,-780.75 1019.02,-786.99 939,-728.98 897.35,-698.79 937.9,-656.77 903,-618.98 899.51,-615.21 895.16,-612.16 890.54,-609.7"/>
<polygon fill="midnightblue" stroke="midnightblue" points="1224.01,-487.02 1221.57,-476.7 1217.04,-486.29 1224.01,-487.02"/>
</g>
<!-- Node18 -->
<g id="node18" class="node">
<title>Node18</title>
<g id="a_node18"><a xlink:href="skybox__and__splitscreen_8c.html#accb6af916ac72e9b2186f11211419818" target="_top" xlink:title=" ">
<polygon fill="white" stroke="black" points="810,-400.48 810,-419.48 903,-419.48 903,-400.48 810,-400.48"/>
<text text-anchor="middle" x="856.5" y="-407.48" font-family="Helvetica,sans-Serif" font-size="10.00">func_802A68CC</text>
</a>
</g>
</g>
<!-- Node1&#45;&gt;Node18 -->
<g id="edge78" class="edge">
<title>Node1&#45;&gt;Node18</title>
<path fill="none" stroke="midnightblue" d="M1219.72,-447.18C1212.5,-398.89 1191.6,-277.16 1161,-251.98 1084.72,-189.2 1016.58,-179.82 939,-240.98 885.16,-283.43 947.45,-338.78 903,-390.98 899.78,-394.76 895.69,-397.8 891.27,-400.25"/>
<polygon fill="midnightblue" stroke="midnightblue" points="1216.28,-447.9 1221.19,-457.29 1223.21,-446.89 1216.28,-447.9"/>
</g>
<!-- Node19 -->
<g id="node19" class="node">
<title>Node19</title>
<g id="a_node19"><a xlink:href="skybox__and__splitscreen_8c.html#a45bafabf82a007ad2129de0f35f7f637" target="_top" xlink:title=" ">
<polygon fill="white" stroke="black" points="810,-362.48 810,-381.48 903,-381.48 903,-362.48 810,-362.48"/>
<text text-anchor="middle" x="856.5" y="-369.48" font-family="Helvetica,sans-Serif" font-size="10.00">func_802A6BB0</text>
</a>
</g>
</g>
<!-- Node1&#45;&gt;Node19 -->
<g id="edge79" class="edge">
<title>Node1&#45;&gt;Node19</title>
<path fill="none" stroke="midnightblue" d="M1221.04,-447.14C1216.44,-390.42 1200.09,-229.64 1161,-197.98 1084.32,-135.88 1016.17,-134.5 939,-195.98 883.01,-240.59 949.14,-298.24 903,-352.98 899.8,-356.78 895.71,-359.83 891.31,-362.28"/>
<polygon fill="midnightblue" stroke="midnightblue" points="1217.57,-447.6 1221.83,-457.3 1224.55,-447.06 1217.57,-447.6"/>
</g>
<!-- Node20 -->
<g id="node20" class="node">
<title>Node20</title>
<g id="a_node20"><a xlink:href="skybox__and__splitscreen_8c.html#af3ee91cad91c4da03eb90c4f7e449660" target="_top" xlink:title=" ">
<polygon fill="white" stroke="black" points="810.5,-324.48 810.5,-343.48 902.5,-343.48 902.5,-324.48 810.5,-324.48"/>
<text text-anchor="middle" x="856.5" y="-331.48" font-family="Helvetica,sans-Serif" font-size="10.00">func_802A6E94</text>
</a>
</g>
</g>
<!-- Node1&#45;&gt;Node20 -->
<g id="edge80" class="edge">
<title>Node1&#45;&gt;Node20</title>
<path fill="none" stroke="midnightblue" d="M1221.81,-446.89C1219.16,-383.01 1207.32,-186.53 1161,-147.98 1085.16,-84.87 1021.54,-92.92 939,-146.98 906.71,-168.13 870.31,-288.86 860.22,-324.24"/>
<polygon fill="midnightblue" stroke="midnightblue" points="1218.33,-447.34 1222.21,-457.2 1225.32,-447.08 1218.33,-447.34"/>
</g>
<!-- Node21 -->
<g id="node21" class="node">
<title>Node21</title>
<g id="a_node21"><a xlink:href="skybox__and__splitscreen_8c.html#a9e0359eea0d69204abb0f5a866ca0173" target="_top" xlink:title=" ">
<polygon fill="white" stroke="black" points="810.5,-628.48 810.5,-647.48 902.5,-647.48 902.5,-628.48 810.5,-628.48"/>
<text text-anchor="middle" x="856.5" y="-635.48" font-family="Helvetica,sans-Serif" font-size="10.00">func_802A7178</text>
</a>
</g>
</g>
<!-- Node1&#45;&gt;Node21 -->
<g id="edge81" class="edge">
<title>Node1&#45;&gt;Node21</title>
<path fill="none" stroke="midnightblue" d="M1221.27,-486.87C1217.16,-546.02 1201.82,-718.84 1161,-753.98 1086.18,-818.4 1025.9,-808.85 939,-761.98 892.52,-736.91 868.22,-672.48 860.38,-647.8"/>
<polygon fill="midnightblue" stroke="midnightblue" points="1224.78,-486.84 1221.94,-476.64 1217.79,-486.38 1224.78,-486.84"/>
</g>
<!-- Node22 -->
<g id="node22" class="node">
<title>Node22</title>
<g id="a_node22"><a xlink:href="skybox__and__splitscreen_8c.html#a3e841fd472316b42bf7b4d8f077b2d1c" target="_top" xlink:title=" ">
<polygon fill="white" stroke="black" points="1068.5,-932.48 1068.5,-951.48 1160.5,-951.48 1160.5,-932.48 1068.5,-932.48"/>
<text text-anchor="middle" x="1114.5" y="-939.48" font-family="Helvetica,sans-Serif" font-size="10.00">func_802A38B4</text>
</a>
</g>
</g>
<!-- Node1&#45;&gt;Node22 -->
<g id="edge31" class="edge">
<title>Node1&#45;&gt;Node22</title>
<path fill="none" stroke="midnightblue" d="M1222.15,-486.79C1220.45,-564.37 1210.87,-846.69 1161,-917.98 1156.7,-924.13 1150.32,-928.82 1143.69,-932.36"/>
<polygon fill="midnightblue" stroke="midnightblue" points="1225.66,-486.59 1222.36,-476.52 1218.66,-486.45 1225.66,-486.59"/>
</g>
<!-- Node23 -->
<g id="node23" class="node">
<title>Node23</title>
<g id="a_node23"><a xlink:href="skybox__and__splitscreen_8c.html#ac2b757ad60cbf91f4c5a7a9b290b10f6" target="_top" xlink:title=" ">
<polygon fill="white" stroke="black" points="1068.5,-438.48 1068.5,-457.48 1160.5,-457.48 1160.5,-438.48 1068.5,-438.48"/>
<text text-anchor="middle" x="1114.5" y="-445.48" font-family="Helvetica,sans-Serif" font-size="10.00">func_802A487C</text>
</a>
</g>
</g>
<!-- Node1&#45;&gt;Node23 -->
<g id="edge33" class="edge">
<title>Node1&#45;&gt;Node23</title>
<path fill="none" stroke="midnightblue" d="M1186.97,-460.67C1178.52,-459.17 1169.39,-457.55 1160.58,-455.99"/>
<polygon fill="midnightblue" stroke="midnightblue" points="1186.41,-464.13 1196.87,-462.43 1187.64,-457.24 1186.41,-464.13"/>
</g>
<!-- Node24 -->
<g id="node24" class="node">
<title>Node24</title>
<g id="a_node24"><a xlink:href="skybox__and__splitscreen_8c.html#a106a6c5b25b49dea0722c25630e2bdb9" target="_top" xlink:title=" ">
<polygon fill="white" stroke="black" points="939.5,-438.48 939.5,-457.48 1031.5,-457.48 1031.5,-438.48 939.5,-438.48"/>
<text text-anchor="middle" x="985.5" y="-445.48" font-family="Helvetica,sans-Serif" font-size="10.00">func_802A5004</text>
</a>
</g>
</g>
<!-- Node1&#45;&gt;Node24 -->
<g id="edge64" class="edge">
<title>Node1&#45;&gt;Node24</title>
<path fill="none" stroke="midnightblue" d="M1186.95,-469.28C1155.55,-470.76 1108.58,-471.65 1068,-466.98 1051.83,-465.12 1034.21,-461.25 1019.51,-457.49"/>
<polygon fill="midnightblue" stroke="midnightblue" points="1187.17,-472.77 1196.97,-468.76 1186.8,-465.78 1187.17,-472.77"/>
</g>
<!-- Node25 -->
<g id="node25" class="node">
<title>Node25</title>
<g id="a_node25"><a xlink:href="skybox__and__splitscreen_8c.html#ab0061fbdffa3d6f0a7a58b866cfd2336" target="_top" xlink:title=" ">
<polygon fill="white" stroke="black" points="939.5,-552.48 939.5,-571.48 1031.5,-571.48 1031.5,-552.48 939.5,-552.48"/>
<text text-anchor="middle" x="985.5" y="-559.48" font-family="Helvetica,sans-Serif" font-size="10.00">func_802A50EC</text>
</a>
</g>
</g>
<!-- Node1&#45;&gt;Node25 -->
<g id="edge65" class="edge">
<title>Node1&#45;&gt;Node25</title>
<path fill="none" stroke="midnightblue" d="M1207.29,-484.23C1195.75,-496.27 1178.86,-511.78 1161,-520.98 1120.06,-542.07 1068.13,-552.48 1031.61,-557.51"/>
<polygon fill="midnightblue" stroke="midnightblue" points="1210.16,-486.29 1214.38,-476.57 1205.02,-481.53 1210.16,-486.29"/>
</g>
<!-- Node26 -->
<g id="node26" class="node">
<title>Node26</title>
<g id="a_node26"><a xlink:href="skybox__and__splitscreen_8c.html#a499e9f29e241ca3ab115fda541a146ac" target="_top" xlink:title=" ">
<polygon fill="white" stroke="black" points="939,-476.48 939,-495.48 1032,-495.48 1032,-476.48 939,-476.48"/>
<text text-anchor="middle" x="985.5" y="-483.48" font-family="Helvetica,sans-Serif" font-size="10.00">func_802A51D4</text>
</a>
</g>
</g>
<!-- Node1&#45;&gt;Node26 -->
<g id="edge66" class="edge">
<title>Node1&#45;&gt;Node26</title>
<path fill="none" stroke="midnightblue" d="M1186.81,-477.07C1178.41,-479.05 1169.44,-480.87 1161,-481.98 1117.59,-487.7 1067.59,-488.24 1032.27,-487.62"/>
<polygon fill="midnightblue" stroke="midnightblue" points="1187.85,-480.41 1196.7,-474.59 1186.15,-473.62 1187.85,-480.41"/>
</g>
<!-- Node27 -->
<g id="node27" class="node">
<title>Node27</title>
<g id="a_node27"><a xlink:href="skybox__and__splitscreen_8c.html#aa58c449ec64b285fd3b4def5e261ff97" target="_top" xlink:title=" ">
<polygon fill="white" stroke="black" points="939,-590.48 939,-609.48 1032,-609.48 1032,-590.48 939,-590.48"/>
<text text-anchor="middle" x="985.5" y="-597.48" font-family="Helvetica,sans-Serif" font-size="10.00">func_802A52BC</text>
</a>
</g>
</g>
<!-- Node1&#45;&gt;Node27 -->
<g id="edge67" class="edge">
<title>Node1&#45;&gt;Node27</title>
<path fill="none" stroke="midnightblue" d="M1213.35,-485.67C1203.14,-504.62 1184.86,-533.44 1161,-549.98 1122.41,-576.73 1069.63,-589.28 1032.24,-595.1"/>
<polygon fill="midnightblue" stroke="midnightblue" points="1216.59,-487.03 1218.06,-476.54 1210.37,-483.83 1216.59,-487.03"/>
</g>
<!-- Node28 -->
<g id="node28" class="node">
<title>Node28</title>
<g id="a_node28"><a xlink:href="skybox__and__splitscreen_8c.html#a0ead9b2e7f52608fae3579b63f3453e5" target="_top" xlink:title=" ">
<polygon fill="white" stroke="black" points="939.5,-267.48 939.5,-286.48 1031.5,-286.48 1031.5,-267.48 939.5,-267.48"/>
<text text-anchor="middle" x="985.5" y="-274.48" font-family="Helvetica,sans-Serif" font-size="10.00">func_802A53A4</text>
</a>
</g>
</g>
<!-- Node1&#45;&gt;Node28 -->
<g id="edge68" class="edge">
<title>Node1&#45;&gt;Node28</title>
<path fill="none" stroke="midnightblue" d="M1219.66,-447.16C1214.12,-416 1198.93,-355.74 1161,-322.98 1124.96,-291.85 1070.2,-281.47 1031.66,-278.17"/>
<polygon fill="midnightblue" stroke="midnightblue" points="1216.23,-447.9 1221.28,-457.22 1223.14,-446.79 1216.23,-447.9"/>
</g>
<!-- Node29 -->
<g id="node29" class="node">
<title>Node29</title>
<g id="a_node29"><a xlink:href="skybox__and__splitscreen_8c.html#a530f75435172f605331e514c70b3a1bd" target="_top" xlink:title=" ">
<polygon fill="white" stroke="black" points="939.5,-400.48 939.5,-419.48 1031.5,-419.48 1031.5,-400.48 939.5,-400.48"/>
<text text-anchor="middle" x="985.5" y="-407.48" font-family="Helvetica,sans-Serif" font-size="10.00">func_802A54A8</text>
</a>
</g>
</g>
<!-- Node1&#45;&gt;Node29 -->
<g id="edge69" class="edge">
<title>Node1&#45;&gt;Node29</title>
<path fill="none" stroke="midnightblue" d="M1213.73,-448.52C1203.83,-430.08 1185.8,-402.82 1161,-390.98 1110.53,-366.9 1042.76,-387.1 1008.42,-400.48"/>
<polygon fill="midnightblue" stroke="midnightblue" points="1210.63,-450.14 1218.28,-457.47 1216.87,-446.97 1210.63,-450.14"/>
</g>
<!-- Node30 -->
<g id="node30" class="node">
<title>Node30</title>
<g id="a_node30"><a xlink:href="skybox__and__splitscreen_8c.html#ae2f505de9b25f530a00ecf1e4f146700" target="_top" xlink:title=" ">
<polygon fill="white" stroke="black" points="939.5,-362.48 939.5,-381.48 1031.5,-381.48 1031.5,-362.48 939.5,-362.48"/>
<text text-anchor="middle" x="985.5" y="-369.48" font-family="Helvetica,sans-Serif" font-size="10.00">func_802A5590</text>
</a>
</g>
</g>
<!-- Node1&#45;&gt;Node30 -->
<g id="edge70" class="edge">
<title>Node1&#45;&gt;Node30</title>
<path fill="none" stroke="midnightblue" d="M1215.94,-447.83C1207.24,-425.77 1189.55,-390.56 1161,-374.98 1119.9,-352.56 1064.85,-356.11 1027.66,-362.45"/>
<polygon fill="midnightblue" stroke="midnightblue" points="1212.75,-449.29 1219.5,-457.46 1219.32,-446.87 1212.75,-449.29"/>
</g>
<!-- Node31 -->
<g id="node31" class="node">
<title>Node31</title>
<g id="a_node31"><a xlink:href="skybox__and__splitscreen_8c.html#a248dc83fd4a3f414744f72faf84b1904" target="_top" xlink:title=" ">
<polygon fill="white" stroke="black" points="939.5,-324.48 939.5,-343.48 1031.5,-343.48 1031.5,-324.48 939.5,-324.48"/>
<text text-anchor="middle" x="985.5" y="-331.48" font-family="Helvetica,sans-Serif" font-size="10.00">func_802A5678</text>
</a>
</g>
</g>
<!-- Node1&#45;&gt;Node31 -->
<g id="edge71" class="edge">
<title>Node1&#45;&gt;Node31</title>
<path fill="none" stroke="midnightblue" d="M1217.95,-447.35C1210.73,-421.06 1193.98,-375.17 1161,-352.98 1122.95,-327.38 1069.33,-325.31 1031.59,-327.96"/>
<polygon fill="midnightblue" stroke="midnightblue" points="1214.62,-448.46 1220.48,-457.29 1221.4,-446.73 1214.62,-448.46"/>
</g>
<!-- Node32 -->
<g id="node32" class="node">
<title>Node32</title>
<g id="a_node32"><a xlink:href="skybox__and__splitscreen_8c.html#adbeb0599946e6477e4aa0c65e9fea6a8" target="_top" xlink:title=" ">
<polygon fill="white" stroke="black" points="939.5,-628.48 939.5,-647.48 1031.5,-647.48 1031.5,-628.48 939.5,-628.48"/>
<text text-anchor="middle" x="985.5" y="-635.48" font-family="Helvetica,sans-Serif" font-size="10.00">func_802A5760</text>
</a>
</g>
</g>
<!-- Node1&#45;&gt;Node32 -->
<g id="edge72" class="edge">
<title>Node1&#45;&gt;Node32</title>
<path fill="none" stroke="midnightblue" d="M1217.18,-486.23C1209.17,-511.74 1191.58,-556.48 1161,-581.98 1124.1,-612.75 1070.02,-626.71 1031.87,-632.98"/>
<polygon fill="midnightblue" stroke="midnightblue" points="1220.56,-487.17 1220.04,-476.59 1213.85,-485.18 1220.56,-487.17"/>
</g>
<!-- Node33 -->
<g id="node33" class="node">
<title>Node33</title>
<g id="a_node33"><a xlink:href="skybox__and__splitscreen_8c.html#a6135e98ec3076399696ca04f441529f4" target="_top" xlink:title=" ">
<polygon fill="white" stroke="black" points="1068,-400.48 1068,-419.48 1161,-419.48 1161,-400.48 1068,-400.48"/>
<text text-anchor="middle" x="1114.5" y="-407.48" font-family="Helvetica,sans-Serif" font-size="10.00">func_802A4A0C</text>
</a>
</g>
</g>
<!-- Node1&#45;&gt;Node33 -->
<g id="edge54" class="edge">
<title>Node1&#45;&gt;Node33</title>
<path fill="none" stroke="midnightblue" d="M1199.74,-451.72C1188.36,-444.4 1174.21,-435.77 1161,-428.98 1154.45,-425.62 1147.17,-422.37 1140.38,-419.54"/>
<polygon fill="midnightblue" stroke="midnightblue" points="1197.93,-454.72 1208.21,-457.26 1201.75,-448.86 1197.93,-454.72"/>
</g>
<!-- Node34 -->
<g id="node34" class="node">
<title>Node34</title>
<g id="a_node34"><a xlink:href="main_8c.html#afcdb6706e90ae13e8b1442fc0f8847b9" target="_top" xlink:title=" ">
<polygon fill="white" stroke="black" points="680.5,-96.48 680.5,-115.48 733.5,-115.48 733.5,-96.48 680.5,-96.48"/>
<text text-anchor="middle" x="707" y="-103.48" font-family="Helvetica,sans-Serif" font-size="10.00">init_rcp</text>
</a>
</g>
</g>
<!-- Node1&#45;&gt;Node34 -->
<g id="edge82" class="edge">
<title>Node1&#45;&gt;Node34</title>
<path fill="none" stroke="midnightblue" d="M1222.84,-447.26C1223.67,-371.38 1222.25,-99.92 1161,-46.98 1028.69,67.37 788.23,-59.04 724.08,-96.29"/>
<polygon fill="midnightblue" stroke="midnightblue" points="1219.33,-447.29 1222.7,-457.34 1226.33,-447.39 1219.33,-447.29"/>
</g>
<!-- Node3 -->
<g id="node3" class="node">
<title>Node3</title>
<g id="a_node3"><a xlink:href="code__80280000_8c.html#aa28a69be4eda3b8667366c6c7b556024" target="_top" xlink:title=" ">
<polygon fill="white" stroke="black" points="669,-172.48 669,-191.48 745,-191.48 745,-172.48 669,-172.48"/>
<text text-anchor="middle" x="707" y="-179.48" font-family="Helvetica,sans-Serif" font-size="10.00">credits_loop</text>
</a>
</g>
</g>
<!-- Node2&#45;&gt;Node3 -->
<g id="edge2" class="edge">
<title>Node2&#45;&gt;Node3</title>
<path fill="none" stroke="midnightblue" d="M800.75,-181.98C782.19,-181.98 761.91,-181.98 745.06,-181.98"/>
<polygon fill="midnightblue" stroke="midnightblue" points="800.84,-185.48 810.84,-181.98 800.84,-178.48 800.84,-185.48"/>
</g>
<!-- Node4 -->
<g id="node4" class="node">
<title>Node4</title>
<g id="a_node4"><a xlink:href="main_8c.html#ae04143ce8113cdafa007c642eb620bc8" target="_top" xlink:title=" ">
<polygon fill="white" stroke="black" points="488,-134.48 488,-153.48 604,-153.48 604,-134.48 488,-134.48"/>
<text text-anchor="middle" x="546" y="-141.48" font-family="Helvetica,sans-Serif" font-size="10.00">game_state_handler</text>
</a>
</g>
</g>
<!-- Node3&#45;&gt;Node4 -->
<g id="edge3" class="edge">
<title>Node3&#45;&gt;Node4</title>
<path fill="none" stroke="midnightblue" d="M658.86,-170.71C635.94,-165.24 608.69,-158.72 586.82,-153.5"/>
<polygon fill="midnightblue" stroke="midnightblue" points="658.18,-174.15 668.72,-173.07 659.81,-167.34 658.18,-174.15"/>
</g>
<!-- Node5 -->
<g id="node5" class="node">
<title>Node5</title>
<g id="a_node5"><a xlink:href="main_8c.html#a633ed517e458daeb768f5361895dcac9" target="_top" xlink:title=" ">
<polygon fill="white" stroke="black" points="339,-115.48 339,-134.48 452,-134.48 452,-115.48 339,-115.48"/>
<text text-anchor="middle" x="395.5" y="-122.48" font-family="Helvetica,sans-Serif" font-size="10.00">thread5_game_loop</text>
</a>
</g>
</g>
<!-- Node4&#45;&gt;Node5 -->
<g id="edge4" class="edge">
<title>Node4&#45;&gt;Node5</title>
<path fill="none" stroke="midnightblue" d="M477.42,-135.33C469.02,-134.26 460.5,-133.17 452.3,-132.12"/>
<polygon fill="midnightblue" stroke="midnightblue" points="477.22,-138.84 487.59,-136.63 478.11,-131.89 477.22,-138.84"/>
</g>
<!-- Node6 -->
<g id="node6" class="node">
<title>Node6</title>
<g id="a_node6"><a xlink:href="main_8c.html#a023b8f272e4efbd33f371e91ffff6b30" target="_top" xlink:title=" ">
<polygon fill="white" stroke="black" points="217,-115.48 217,-134.48 303,-134.48 303,-115.48 217,-115.48"/>
<text text-anchor="middle" x="260" y="-122.48" font-family="Helvetica,sans-Serif" font-size="10.00">thread3_video</text>
</a>
</g>
</g>
<!-- Node5&#45;&gt;Node6 -->
<g id="edge5" class="edge">
<title>Node5&#45;&gt;Node6</title>
<path fill="none" stroke="midnightblue" d="M328.57,-124.98C319.94,-124.98 311.3,-124.98 303.21,-124.98"/>
<polygon fill="midnightblue" stroke="midnightblue" points="328.66,-128.48 338.66,-124.98 328.66,-121.48 328.66,-128.48"/>
</g>
<!-- Node7 -->
<g id="node7" class="node">
<title>Node7</title>
<g id="a_node7"><a xlink:href="main_8c.html#a1e35d2b842121e6aea373f09381616e5" target="_top" xlink:title=" ">
<polygon fill="white" stroke="black" points="104,-115.48 104,-134.48 181,-134.48 181,-115.48 104,-115.48"/>
<text text-anchor="middle" x="142.5" y="-122.48" font-family="Helvetica,sans-Serif" font-size="10.00">thread1_idle</text>
</a>
</g>
</g>
<!-- Node6&#45;&gt;Node7 -->
<g id="edge6" class="edge">
<title>Node6&#45;&gt;Node7</title>
<path fill="none" stroke="midnightblue" d="M206.9,-124.98C198.2,-124.98 189.33,-124.98 181.09,-124.98"/>
<polygon fill="midnightblue" stroke="midnightblue" points="206.98,-128.48 216.98,-124.98 206.98,-121.48 206.98,-128.48"/>
</g>
<!-- Node8 -->
<g id="node8" class="node">
<title>Node8</title>
<g id="a_node8"><a xlink:href="main_8c.html#a4f87d43525fe95f60ea92bc8a3b70e62" target="_top" xlink:title=" ">
<polygon fill="white" stroke="black" points="0,-115.48 0,-134.48 68,-134.48 68,-115.48 0,-115.48"/>
<text text-anchor="middle" x="34" y="-122.48" font-family="Helvetica,sans-Serif" font-size="10.00">main_func</text>
</a>
</g>
</g>
<!-- Node7&#45;&gt;Node8 -->
<g id="edge7" class="edge">
<title>Node7&#45;&gt;Node8</title>
<path fill="none" stroke="midnightblue" d="M93.95,-124.98C85.29,-124.98 76.44,-124.98 68.31,-124.98"/>
<polygon fill="midnightblue" stroke="midnightblue" points="93.95,-128.48 103.95,-124.98 93.95,-121.48 93.95,-128.48"/>
</g>
<!-- Node10 -->
<g id="node10" class="node">
<title>Node10</title>
<g id="a_node10"><a xlink:href="podium__ceremony__actors_8c.html#a7ea229c65f264670fc828b95e8321154" target="_top" xlink:title=" ">
<polygon fill="white" stroke="black" points="640,-134.48 640,-153.48 774,-153.48 774,-134.48 640,-134.48"/>
<text text-anchor="middle" x="707" y="-141.48" font-family="Helvetica,sans-Serif" font-size="10.00">podium_ceremony_loop</text>
</a>
</g>
</g>
<!-- Node9&#45;&gt;Node10 -->
<g id="edge9" class="edge">
<title>Node9&#45;&gt;Node10</title>
<path fill="none" stroke="midnightblue" d="M800.29,-143.98C791.79,-143.98 782.94,-143.98 774.23,-143.98"/>
<polygon fill="midnightblue" stroke="midnightblue" points="800.44,-147.48 810.44,-143.98 800.44,-140.48 800.44,-147.48"/>
</g>
<!-- Node10&#45;&gt;Node4 -->
<g id="edge10" class="edge">
<title>Node10&#45;&gt;Node4</title>
<path fill="none" stroke="midnightblue" d="M629.87,-143.98C621.24,-143.98 612.56,-143.98 604.24,-143.98"/>
<polygon fill="midnightblue" stroke="midnightblue" points="629.95,-147.48 639.95,-143.98 629.95,-140.48 629.95,-147.48"/>
</g>
<!-- Node11&#45;&gt;Node12 -->
<g id="edge12" class="edge">
<title>Node11&#45;&gt;Node12</title>
<path fill="none" stroke="midnightblue" d="M942.61,-511.45C925.33,-506.28 905.63,-500.38 889.54,-495.57"/>
<polygon fill="midnightblue" stroke="midnightblue" points="941.87,-514.88 952.45,-514.39 943.88,-508.17 941.87,-514.88"/>
</g>
<!-- Node11&#45;&gt;Node14 -->
<g id="edge15" class="edge">
<title>Node11&#45;&gt;Node14</title>
<path fill="none" stroke="midnightblue" d="M942.61,-536.52C925.33,-541.69 905.63,-547.58 889.54,-552.39"/>
<polygon fill="midnightblue" stroke="midnightblue" points="943.88,-539.79 952.45,-533.57 941.87,-533.08 943.88,-539.79"/>
</g>
<!-- Node11&#45;&gt;Node15 -->
<g id="edge17" class="edge">
<title>Node11&#45;&gt;Node15</title>
<path fill="none" stroke="midnightblue" d="M947.03,-509.86C944.24,-508.35 941.53,-506.72 939,-504.98 919.85,-491.77 922.15,-480.19 903,-466.98 897.79,-463.38 891.78,-460.28 885.89,-457.68"/>
<polygon fill="midnightblue" stroke="midnightblue" points="945.59,-513.05 956.11,-514.28 948.65,-506.76 945.59,-513.05"/>
</g>
<!-- Node11&#45;&gt;Node16 -->
<g id="edge19" class="edge">
<title>Node11&#45;&gt;Node16</title>
<path fill="none" stroke="midnightblue" d="M929.2,-523.98C920.42,-523.98 911.43,-523.98 902.92,-523.98"/>
<polygon fill="midnightblue" stroke="midnightblue" points="929.37,-527.48 939.37,-523.98 929.37,-520.48 929.37,-527.48"/>
</g>
<!-- Node11&#45;&gt;Node17 -->
<g id="edge21" class="edge">
<title>Node11&#45;&gt;Node17</title>
<path fill="none" stroke="midnightblue" d="M947.03,-538.1C944.24,-539.61 941.53,-541.24 939,-542.98 919.85,-556.19 922.15,-567.77 903,-580.98 897.79,-584.58 891.78,-587.68 885.89,-590.28"/>
<polygon fill="midnightblue" stroke="midnightblue" points="948.65,-541.2 956.11,-533.68 945.59,-534.91 948.65,-541.2"/>
</g>
<!-- Node11&#45;&gt;Node18 -->
<g id="edge23" class="edge">
<title>Node11&#45;&gt;Node18</title>
<path fill="none" stroke="midnightblue" d="M943.79,-508.94C942.09,-507.72 940.49,-506.4 939,-504.98 911.96,-479.18 930.04,-454.78 903,-428.98 899.04,-425.2 894.21,-422.12 889.2,-419.63"/>
<polygon fill="midnightblue" stroke="midnightblue" points="942.42,-512.2 952.8,-514.33 946.01,-506.2 942.42,-512.2"/>
</g>
<!-- Node11&#45;&gt;Node19 -->
<g id="edge25" class="edge">
<title>Node11&#45;&gt;Node19</title>
<path fill="none" stroke="midnightblue" d="M942.86,-508.64C941.49,-507.5 940.19,-506.28 939,-504.98 903.15,-465.76 938.85,-430.2 903,-390.98 899.53,-387.19 895.19,-384.13 890.58,-381.67"/>
<polygon fill="midnightblue" stroke="midnightblue" points="941.15,-511.7 951.42,-514.29 945,-505.86 941.15,-511.7"/>
</g>
<!-- Node11&#45;&gt;Node20 -->
<g id="edge27" class="edge">
<title>Node11&#45;&gt;Node20</title>
<path fill="none" stroke="midnightblue" d="M942.25,-508.32C941.09,-507.27 940,-506.16 939,-504.98 894.07,-452.06 947.93,-405.91 903,-352.98 899.79,-349.2 895.69,-346.15 891.29,-343.7"/>
<polygon fill="midnightblue" stroke="midnightblue" points="940.52,-511.38 950.71,-514.26 944.54,-505.65 940.52,-511.38"/>
</g>
<!-- Node11&#45;&gt;Node21 -->
<g id="edge29" class="edge">
<title>Node11&#45;&gt;Node21</title>
<path fill="none" stroke="midnightblue" d="M943.79,-539.02C942.09,-540.24 940.49,-541.56 939,-542.98 911.96,-568.78 930.04,-593.18 903,-618.98 899.04,-622.76 894.21,-625.84 889.2,-628.33"/>
<polygon fill="midnightblue" stroke="midnightblue" points="946.01,-541.76 952.8,-533.63 942.42,-535.76 946.01,-541.76"/>
</g>
<!-- Node12&#45;&gt;Node13 -->
<g id="edge13" class="edge">
<title>Node12&#45;&gt;Node13</title>
<path fill="none" stroke="midnightblue" d="M800.39,-493.08C784.78,-495.09 767.97,-497.26 753.03,-499.18"/>
<polygon fill="midnightblue" stroke="midnightblue" points="800.97,-496.53 810.44,-491.78 800.08,-489.59 800.97,-496.53"/>
</g>
<!-- Node13&#45;&gt;Node4 -->
<g id="edge14" class="edge">
<title>Node13&#45;&gt;Node4</title>
<path fill="none" stroke="midnightblue" d="M697.69,-486.11C668.67,-420.23 572.47,-201.82 551.19,-153.5"/>
<polygon fill="midnightblue" stroke="midnightblue" points="694.51,-487.58 701.75,-495.32 700.92,-484.76 694.51,-487.58"/>
</g>
<!-- Node14&#45;&gt;Node13 -->
<g id="edge16" class="edge">
<title>Node14&#45;&gt;Node13</title>
<path fill="none" stroke="midnightblue" d="M821.33,-548.78C794.25,-538.31 757.05,-523.93 732.77,-514.55"/>
<polygon fill="midnightblue" stroke="midnightblue" points="820.22,-552.1 830.81,-552.44 822.75,-545.57 820.22,-552.1"/>
</g>
<!-- Node15&#45;&gt;Node13 -->
<g id="edge18" class="edge">
<title>Node15&#45;&gt;Node13</title>
<path fill="none" stroke="midnightblue" d="M821.33,-461.18C794.25,-471.65 757.05,-486.03 732.77,-495.41"/>
<polygon fill="midnightblue" stroke="midnightblue" points="822.75,-464.39 830.81,-457.52 820.22,-457.86 822.75,-464.39"/>
</g>
<!-- Node16&#45;&gt;Node13 -->
<g id="edge20" class="edge">
<title>Node16&#45;&gt;Node13</title>
<path fill="none" stroke="midnightblue" d="M800.39,-516.88C784.78,-514.87 767.97,-512.71 753.03,-510.78"/>
<polygon fill="midnightblue" stroke="midnightblue" points="800.08,-520.37 810.44,-518.18 800.97,-513.43 800.08,-520.37"/>
</g>
<!-- Node17&#45;&gt;Node13 -->
<g id="edge22" class="edge">
<title>Node17&#45;&gt;Node13</title>
<path fill="none" stroke="midnightblue" d="M820.2,-586.26C816.69,-584.6 813.24,-582.83 810,-580.98 774.5,-560.75 737.04,-530.07 718.99,-514.61"/>
<polygon fill="midnightblue" stroke="midnightblue" points="818.91,-589.52 829.47,-590.4 821.76,-583.12 818.91,-589.52"/>
</g>
<!-- Node18&#45;&gt;Node13 -->
<g id="edge24" class="edge">
<title>Node18&#45;&gt;Node13</title>
<path fill="none" stroke="midnightblue" d="M820.2,-423.7C816.69,-425.37 813.24,-427.13 810,-428.98 774.5,-449.21 737.04,-479.89 718.99,-495.35"/>
<polygon fill="midnightblue" stroke="midnightblue" points="821.76,-426.84 829.47,-419.56 818.91,-420.45 821.76,-426.84"/>
</g>
<!-- Node19&#45;&gt;Node13 -->
<g id="edge26" class="edge">
<title>Node19&#45;&gt;Node13</title>
<path fill="none" stroke="midnightblue" d="M817.97,-386.02C815.19,-387.55 812.5,-389.2 810,-390.98 766.72,-421.77 728.81,-474.03 714.29,-495.42"/>
<polygon fill="midnightblue" stroke="midnightblue" points="819.6,-389.12 827.03,-381.57 816.52,-382.84 819.6,-389.12"/>
</g>
<!-- Node20&#45;&gt;Node13 -->
<g id="edge28" class="edge">
<title>Node20&#45;&gt;Node13</title>
<path fill="none" stroke="midnightblue" d="M816.31,-348.48C814.09,-349.87 811.97,-351.36 810,-352.98 758.92,-394.94 723.51,-469.06 712.03,-495.38"/>
<polygon fill="midnightblue" stroke="midnightblue" points="818.06,-351.52 825.2,-343.69 814.74,-345.35 818.06,-351.52"/>
</g>
<!-- Node21&#45;&gt;Node13 -->
<g id="edge30" class="edge">
<title>Node21&#45;&gt;Node13</title>
<path fill="none" stroke="midnightblue" d="M817.97,-623.94C815.19,-622.41 812.5,-620.76 810,-618.98 766.72,-588.2 728.81,-535.93 714.29,-514.54"/>
<polygon fill="midnightblue" stroke="midnightblue" points="816.52,-627.12 827.03,-628.39 819.6,-620.84 816.52,-627.12"/>
</g>
<!-- Node22&#45;&gt;Node13 -->
<g id="edge32" class="edge">
<title>Node22&#45;&gt;Node13</title>
<path fill="none" stroke="midnightblue" d="M1066.1,-953.61C1000.41,-966.69 881.72,-978.86 810,-917.98 745.11,-862.9 714.38,-572.19 708.9,-514.82"/>
<polygon fill="midnightblue" stroke="midnightblue" points="1067.09,-956.98 1076.17,-951.52 1065.66,-950.13 1067.09,-956.98"/>
</g>
<!-- Node23&#45;&gt;Node24 -->
<g id="edge34" class="edge">
<title>Node23&#45;&gt;Node24</title>
<path fill="none" stroke="midnightblue" d="M1058.2,-447.98C1049.42,-447.98 1040.43,-447.98 1031.92,-447.98"/>
<polygon fill="midnightblue" stroke="midnightblue" points="1058.37,-451.48 1068.37,-447.98 1058.37,-444.48 1058.37,-451.48"/>
</g>
<!-- Node23&#45;&gt;Node25 -->
<g id="edge36" class="edge">
<title>Node23&#45;&gt;Node25</title>
<path fill="none" stroke="midnightblue" d="M1101.76,-466.24C1087.47,-487.21 1061.57,-521.48 1032,-542.98 1026.88,-546.71 1020.91,-549.86 1015.02,-552.47"/>
<polygon fill="midnightblue" stroke="midnightblue" points="1104.86,-467.9 1107.47,-457.64 1099.03,-464.03 1104.86,-467.9"/>
</g>
<!-- Node23&#45;&gt;Node26 -->
<g id="edge38" class="edge">
<title>Node23&#45;&gt;Node26</title>
<path fill="none" stroke="midnightblue" d="M1071.61,-460.52C1054.33,-465.69 1034.63,-471.58 1018.54,-476.39"/>
<polygon fill="midnightblue" stroke="midnightblue" points="1072.88,-463.79 1081.45,-457.57 1070.87,-457.08 1072.88,-463.79"/>
</g>
<!-- Node23&#45;&gt;Node27 -->
<g id="edge40" class="edge">
<title>Node23&#45;&gt;Node27</title>
<path fill="none" stroke="midnightblue" d="M1106.18,-467.38C1094.52,-495.88 1069.2,-549.11 1032,-580.98 1027.58,-584.77 1022.3,-587.88 1016.92,-590.42"/>
<polygon fill="midnightblue" stroke="midnightblue" points="1109.56,-468.35 1109.97,-457.77 1103.04,-465.78 1109.56,-468.35"/>
</g>
<!-- Node23&#45;&gt;Node28 -->
<g id="edge42" class="edge">
<title>Node23&#45;&gt;Node28</title>
<path fill="none" stroke="midnightblue" d="M1071.86,-432.64C1070.49,-431.5 1069.19,-430.28 1068,-428.98 1032.15,-389.76 1061.58,-359.12 1032,-314.98 1024.21,-303.35 1011.85,-293.36 1001.98,-286.54"/>
<polygon fill="midnightblue" stroke="midnightblue" points="1070.15,-435.7 1080.42,-438.29 1074,-429.86 1070.15,-435.7"/>
</g>
<!-- Node23&#45;&gt;Node29 -->
<g id="edge46" class="edge">
<title>Node23&#45;&gt;Node29</title>
<path fill="none" stroke="midnightblue" d="M1071.61,-435.45C1054.33,-430.28 1034.63,-424.38 1018.54,-419.57"/>
<polygon fill="midnightblue" stroke="midnightblue" points="1070.87,-438.88 1081.45,-438.39 1072.88,-432.17 1070.87,-438.88"/>
</g>
<!-- Node23&#45;&gt;Node30 -->
<g id="edge48" class="edge">
<title>Node23&#45;&gt;Node30</title>
<path fill="none" stroke="midnightblue" d="M1076.03,-433.86C1073.24,-432.35 1070.53,-430.72 1068,-428.98 1048.85,-415.77 1051.15,-404.19 1032,-390.98 1026.79,-387.38 1020.78,-384.28 1014.89,-381.68"/>
<polygon fill="midnightblue" stroke="midnightblue" points="1074.59,-437.05 1085.11,-438.28 1077.65,-430.76 1074.59,-437.05"/>
</g>
<!-- Node23&#45;&gt;Node31 -->
<g id="edge50" class="edge">
<title>Node23&#45;&gt;Node31</title>
<path fill="none" stroke="midnightblue" d="M1072.79,-432.94C1071.09,-431.72 1069.49,-430.4 1068,-428.98 1040.96,-403.18 1059.04,-378.78 1032,-352.98 1028.04,-349.2 1023.21,-346.12 1018.2,-343.63"/>
<polygon fill="midnightblue" stroke="midnightblue" points="1071.42,-436.2 1081.8,-438.33 1075.01,-430.2 1071.42,-436.2"/>
</g>
<!-- Node23&#45;&gt;Node32 -->
<g id="edge52" class="edge">
<title>Node23&#45;&gt;Node32</title>
<path fill="none" stroke="midnightblue" d="M1109.12,-467.41C1100.32,-502.27 1077.35,-575.81 1032,-618.98 1028.03,-622.76 1023.2,-625.83 1018.19,-628.32"/>
<polygon fill="midnightblue" stroke="midnightblue" points="1112.56,-468.08 1111.49,-457.54 1105.75,-466.45 1112.56,-468.08"/>
</g>
<!-- Node24&#45;&gt;Node15 -->
<g id="edge35" class="edge">
<title>Node24&#45;&gt;Node15</title>
<path fill="none" stroke="midnightblue" d="M929.2,-447.98C920.42,-447.98 911.43,-447.98 902.92,-447.98"/>
<polygon fill="midnightblue" stroke="midnightblue" points="929.37,-451.48 939.37,-447.98 929.37,-444.48 929.37,-451.48"/>
</g>
<!-- Node25&#45;&gt;Node14 -->
<g id="edge37" class="edge">
<title>Node25&#45;&gt;Node14</title>
<path fill="none" stroke="midnightblue" d="M929.33,-561.98C920.66,-561.98 911.77,-561.98 903.34,-561.98"/>
<polygon fill="midnightblue" stroke="midnightblue" points="929.37,-565.48 939.37,-561.98 929.37,-558.48 929.37,-565.48"/>
</g>
<!-- Node26&#45;&gt;Node16 -->
<g id="edge39" class="edge">
<title>Node26&#45;&gt;Node16</title>
<path fill="none" stroke="midnightblue" d="M942.61,-498.52C925.33,-503.69 905.63,-509.58 889.54,-514.39"/>
<polygon fill="midnightblue" stroke="midnightblue" points="943.88,-501.79 952.45,-495.57 941.87,-495.08 943.88,-501.79"/>
</g>
<!-- Node27&#45;&gt;Node17 -->
<g id="edge41" class="edge">
<title>Node27&#45;&gt;Node17</title>
<path fill="none" stroke="midnightblue" d="M928.37,-599.98C919.84,-599.98 911.12,-599.98 902.86,-599.98"/>
<polygon fill="midnightblue" stroke="midnightblue" points="928.65,-603.48 938.65,-599.98 928.65,-596.48 928.65,-603.48"/>
</g>
<!-- Node28&#45;&gt;Node2 -->
<g id="edge43" class="edge">
<title>Node28&#45;&gt;Node2</title>
<path fill="none" stroke="midnightblue" d="M963.13,-261C936.59,-241.14 892.15,-207.9 870.35,-191.59"/>
<polygon fill="midnightblue" stroke="midnightblue" points="961.28,-263.98 971.39,-267.17 965.48,-258.38 961.28,-263.98"/>
</g>
<!-- Node28&#45;&gt;Node9 -->
<g id="edge44" class="edge">
<title>Node28&#45;&gt;Node9</title>
<path fill="none" stroke="midnightblue" d="M975.36,-258.27C962.39,-233.43 936.45,-189.63 903,-162.98 898.31,-159.25 892.79,-156.13 887.23,-153.58"/>
<polygon fill="midnightblue" stroke="midnightblue" points="972.32,-260.02 979.97,-267.36 978.57,-256.85 972.32,-260.02"/>
</g>
<!-- Node28&#45;&gt;Node12 -->
<g id="edge45" class="edge">
<title>Node28&#45;&gt;Node12</title>
<path fill="none" stroke="midnightblue" d="M960.06,-292.66C952.28,-298.76 944.33,-306.37 939,-314.98 902.49,-374.03 947.93,-414.06 903,-466.98 899.79,-470.77 895.69,-473.81 891.29,-476.26"/>
<polygon fill="midnightblue" stroke="midnightblue" points="962.27,-295.37 968.29,-286.65 958.15,-289.72 962.27,-295.37"/>
</g>
<!-- Node29&#45;&gt;Node18 -->
<g id="edge47" class="edge">
<title>Node29&#45;&gt;Node18</title>
<path fill="none" stroke="midnightblue" d="M929.33,-409.98C920.66,-409.98 911.77,-409.98 903.34,-409.98"/>
<polygon fill="midnightblue" stroke="midnightblue" points="929.37,-413.48 939.37,-409.98 929.37,-406.48 929.37,-413.48"/>
</g>
<!-- Node30&#45;&gt;Node19 -->
<g id="edge49" class="edge">
<title>Node30&#45;&gt;Node19</title>
<path fill="none" stroke="midnightblue" d="M929.33,-371.98C920.66,-371.98 911.77,-371.98 903.34,-371.98"/>
<polygon fill="midnightblue" stroke="midnightblue" points="929.37,-375.48 939.37,-371.98 929.37,-368.48 929.37,-375.48"/>
</g>
<!-- Node31&#45;&gt;Node20 -->
<g id="edge51" class="edge">
<title>Node31&#45;&gt;Node20</title>
<path fill="none" stroke="midnightblue" d="M929.2,-333.98C920.42,-333.98 911.43,-333.98 902.92,-333.98"/>
<polygon fill="midnightblue" stroke="midnightblue" points="929.37,-337.48 939.37,-333.98 929.37,-330.48 929.37,-337.48"/>
</g>
<!-- Node32&#45;&gt;Node21 -->
<g id="edge53" class="edge">
<title>Node32&#45;&gt;Node21</title>
<path fill="none" stroke="midnightblue" d="M929.2,-637.98C920.42,-637.98 911.43,-637.98 902.92,-637.98"/>
<polygon fill="midnightblue" stroke="midnightblue" points="929.37,-641.48 939.37,-637.98 929.37,-634.48 929.37,-641.48"/>
</g>
<!-- Node33&#45;&gt;Node24 -->
<g id="edge55" class="edge">
<title>Node33&#45;&gt;Node24</title>
<path fill="none" stroke="midnightblue" d="M1071.61,-422.52C1054.33,-427.69 1034.63,-433.58 1018.54,-438.39"/>
<polygon fill="midnightblue" stroke="midnightblue" points="1072.88,-425.79 1081.45,-419.57 1070.87,-419.08 1072.88,-425.79"/>
</g>
<!-- Node33&#45;&gt;Node25 -->
<g id="edge56" class="edge">
<title>Node33&#45;&gt;Node25</title>
<path fill="none" stroke="midnightblue" d="M1071.86,-425.33C1070.49,-426.46 1069.19,-427.68 1068,-428.98 1032.15,-468.2 1067.85,-503.76 1032,-542.98 1028.53,-546.77 1024.19,-549.83 1019.58,-552.29"/>
<polygon fill="midnightblue" stroke="midnightblue" points="1074,-428.1 1080.42,-419.67 1070.15,-422.26 1074,-428.1"/>
</g>
<!-- Node33&#45;&gt;Node26 -->
<g id="edge57" class="edge">
<title>Node33&#45;&gt;Node26</title>
<path fill="none" stroke="midnightblue" d="M1076.03,-424.1C1073.24,-425.61 1070.53,-427.24 1068,-428.98 1048.85,-442.19 1051.15,-453.77 1032,-466.98 1026.79,-470.58 1020.78,-473.68 1014.89,-476.28"/>
<polygon fill="midnightblue" stroke="midnightblue" points="1077.65,-427.2 1085.11,-419.68 1074.59,-420.91 1077.65,-427.2"/>
</g>
<!-- Node33&#45;&gt;Node27 -->
<g id="edge58" class="edge">
<title>Node33&#45;&gt;Node27</title>
<path fill="none" stroke="midnightblue" d="M1071.25,-425.64C1070.09,-426.69 1069,-427.8 1068,-428.98 1023.07,-481.91 1076.93,-528.06 1032,-580.98 1028.79,-584.77 1024.69,-587.81 1020.29,-590.26"/>
<polygon fill="midnightblue" stroke="midnightblue" points="1073.54,-428.31 1079.71,-419.7 1069.52,-422.59 1073.54,-428.31"/>
</g>
<!-- Node33&#45;&gt;Node28 -->
<g id="edge59" class="edge">
<title>Node33&#45;&gt;Node28</title>
<path fill="none" stroke="midnightblue" d="M1099.78,-392.28C1084.2,-372.6 1057.62,-340.26 1032,-314.98 1021.6,-304.72 1008.74,-294.15 999.34,-286.77"/>
<polygon fill="midnightblue" stroke="midnightblue" points="1097.19,-394.65 1106.12,-400.36 1102.7,-390.33 1097.19,-394.65"/>
</g>
<!-- Node33&#45;&gt;Node29 -->
<g id="edge60" class="edge">
<title>Node33&#45;&gt;Node29</title>
<path fill="none" stroke="midnightblue" d="M1057.37,-409.98C1048.84,-409.98 1040.12,-409.98 1031.86,-409.98"/>
<polygon fill="midnightblue" stroke="midnightblue" points="1057.65,-413.48 1067.65,-409.98 1057.65,-406.48 1057.65,-413.48"/>
</g>
<!-- Node33&#45;&gt;Node30 -->
<g id="edge61" class="edge">
<title>Node33&#45;&gt;Node30</title>
<path fill="none" stroke="midnightblue" d="M1071.61,-397.45C1054.33,-392.28 1034.63,-386.38 1018.54,-381.57"/>
<polygon fill="midnightblue" stroke="midnightblue" points="1070.87,-400.88 1081.45,-400.39 1072.88,-394.17 1070.87,-400.88"/>
</g>
<!-- Node33&#45;&gt;Node31 -->
<g id="edge62" class="edge">
<title>Node33&#45;&gt;Node31</title>
<path fill="none" stroke="midnightblue" d="M1093.51,-394.18C1077.48,-381.96 1054.08,-365.13 1032,-352.98 1025.7,-349.51 1018.64,-346.28 1011.99,-343.49"/>
<polygon fill="midnightblue" stroke="midnightblue" points="1091.55,-397.09 1101.61,-400.43 1095.84,-391.55 1091.55,-397.09"/>
</g>
<!-- Node33&#45;&gt;Node32 -->
<g id="edge63" class="edge">
<title>Node33&#45;&gt;Node32</title>
<path fill="none" stroke="midnightblue" d="M1071.18,-425.59C1070.04,-426.65 1068.98,-427.78 1068,-428.98 1013.87,-495.74 1086.13,-552.22 1032,-618.98 1028.87,-622.84 1024.83,-625.92 1020.44,-628.39"/>
<polygon fill="midnightblue" stroke="midnightblue" points="1073.48,-428.25 1079.56,-419.58 1069.39,-422.56 1073.48,-428.25"/>
</g>
<!-- Node34&#45;&gt;Node4 -->
<g id="edge83" class="edge">
<title>Node34&#45;&gt;Node4</title>
<path fill="none" stroke="midnightblue" d="M670.7,-114.42C645.85,-120.36 612.55,-128.31 586.76,-134.48"/>
<polygon fill="midnightblue" stroke="midnightblue" points="671.54,-117.81 680.45,-112.09 669.91,-111.01 671.54,-117.81"/>
</g>
<!-- Node35 -->
<g id="node35" class="node">
<title>Node35</title>
<g id="a_node35"><a xlink:href="main_8c.html#ab6de5c4a438055408ee2c63f8a86464a" target="_top" xlink:title=" ">
<polygon fill="white" stroke="black" points="504,-96.48 504,-115.48 588,-115.48 588,-96.48 504,-96.48"/>
<text text-anchor="middle" x="546" y="-103.48" font-family="Helvetica,sans-Serif" font-size="10.00">rendering_init</text>
</a>
</g>
</g>
<!-- Node34&#45;&gt;Node35 -->
<g id="edge84" class="edge">
<title>Node34&#45;&gt;Node35</title>
<path fill="none" stroke="midnightblue" d="M670.23,-105.98C645.92,-105.98 613.7,-105.98 588.3,-105.98"/>
<polygon fill="midnightblue" stroke="midnightblue" points="670.45,-109.48 680.45,-105.98 670.45,-102.48 670.45,-109.48"/>
</g>
<!-- Node35&#45;&gt;Node5 -->
<g id="edge85" class="edge">
<title>Node35&#45;&gt;Node5</title>
<path fill="none" stroke="midnightblue" d="M493.63,-112.55C480.21,-114.27 465.7,-116.13 452.08,-117.87"/>
<polygon fill="midnightblue" stroke="midnightblue" points="494.16,-116.01 503.63,-111.27 493.27,-109.07 494.16,-116.01"/>
</g>
</g>
</svg>
