<?xml version="1.0" encoding="UTF-8" standalone="no"?>
<!DOCTYPE svg PUBLIC "-//W3C//DTD SVG 1.1//EN"
 "http://www.w3.org/Graphics/SVG/1.1/DTD/svg11.dtd">
<!-- Generated by graphviz version 2.43.0 (0)
 -->
<!-- Title: func_802A51D4 Pages: 1 -->
<!--zoomable 545 -->

<svg id="main" version="1.1" xmlns="http://www.w3.org/2000/svg" xmlns:xlink="http://www.w3.org/1999/xlink" xml:space="preserve" onload="init(evt)">
<style type="text/css"><![CDATA[
.node, .edge {opacity: 0.7;}
.node.selected, .edge.selected {opacity: 1;}
.edge:hover path { stroke: red; }
.edge:hover polygon { stroke: red; fill: red; }
]]></style>

<defs>
  <circle id="rim" cx="0" cy="0" r="7"/>
  <circle id="rim2" cx="0" cy="0" r="3.5"/>
  <g id="zoomPlus">
    <use xlink:href="#rim" fill="#404040"><set attributeName="fill" to="#808080" begin="zoomplus.mouseover" end="zoomplus.mouseout"/></use>
    <path d="M-4,0h8M0,-4v8" fill="none" stroke="white" stroke-width="1.5" pointer-events="none"/>
  </g>
  <g id="zoomMin">
    <use xlink:href="#rim" fill="#404040"><set attributeName="fill" to="#808080" begin="zoomminus.mouseover" end="zoomminus.mouseout"/></use>
    <path d="M-4,0h8" fill="none" stroke="white" stroke-width="1.5" pointer-events="none"/>
  </g>
  <g id="arrowUp" transform="translate(30 24)">
    <use xlink:href="#rim"/>
    <path pointer-events="none" fill="none" stroke="white" stroke-width="1.5" d="M0,-3.0v7 M-2.5,-0.5L0,-3.0L2.5,-0.5"/>
  </g>
  <g id="arrowRight" transform="rotate(90) translate(36 -43)">
    <use xlink:href="#rim"/>
    <path pointer-events="none" fill="none" stroke="white" stroke-width="1.5" d="M0,-3.0v7 M-2.5,-0.5L0,-3.0L2.5,-0.5"/>
  </g>
  <g id="arrowDown" transform="rotate(180) translate(-30 -48)">
    <use xlink:href="#rim"/>
    <path pointer-events="none" fill="none" stroke="white" stroke-width="1.5" d="M0,-3.0v7 M-2.5,-0.5L0,-3.0L2.5,-0.5"/>
  </g>
  <g id="arrowLeft" transform="rotate(270) translate(-36 17)">
    <use xlink:href="#rim"/>
    <path pointer-events="none" fill="none" stroke="white" stroke-width="1.5" d="M0,-3.0v7 M-2.5,-0.5L0,-3.0L2.5,-0.5"/>
  </g>
  <g id="resetDef">
    <use xlink:href="#rim2" fill="#404040"><set attributeName="fill" to="#808080" begin="reset.mouseover" end="reset.mouseout"/></use>
  </g>
</defs>
<script type="application/ecmascript">
var viewWidth = 1100;
var viewHeight = 545;
var sectionId = 'dynsection-18';
</script>
<script type="application/ecmascript" xlink:href="svg.min.js"/>
<svg id="graph" class="graph">
<g id="viewport">
<title>func_802A51D4</title>
<!-- Node1 -->
<g id="Node000001" class="node">
<title>Node1</title>
<g id="a_Node000001"><a xlink:title=" ">
<polygon fill="#999999" stroke="#666666" points="93,-240 0,-240 0,-221 93,-221 93,-240"/>
<text text-anchor="middle" x="46.5" y="-228" font-family="Helvetica,sans-Serif" font-size="10.00">func_802A51D4</text>
</a>
</g>
</g>
<!-- Node2 -->
<g id="Node000002" class="node">
<title>Node2</title>
<g id="a_Node000002"><a xlink:href="code__80057C60_8c.html#a5051668e440a7101d3885766d39d2404" target="_top" xlink:title=" ">
<polygon fill="white" stroke="#666666" points="221.5,-426 129.5,-426 129.5,-407 221.5,-407 221.5,-426"/>
<text text-anchor="middle" x="175.5" y="-414" font-family="Helvetica,sans-Serif" font-size="10.00">func_80057FC4</text>
</a>
</g>
</g>
<!-- Node1&#45;&gt;Node2 -->
<g id="edge1_Node000001_Node000002" class="edge">
<title>Node1&#45;&gt;Node2</title>
<g id="a_edge1_Node000001_Node000002"><a xlink:title=" ">
<path fill="none" stroke="#63b8ff" d="M54.15,-240.24C74.38,-269.87 135.43,-359.27 161.96,-398.13"/>
<polygon fill="#63b8ff" stroke="#63b8ff" points="159.39,-400.57 167.92,-406.86 165.17,-396.63 159.39,-400.57"/>
</a>
</g>
</g>
<!-- Node23 -->
<g id="Node000023" class="node">
<title>Node23</title>
<g id="a_Node000023"><a xlink:href="menu__items_8c.html#a6cc677f84eccb008ce70c4b051701cb6" target="_top" xlink:title=" ">
<polygon fill="white" stroke="#666666" points="221.5,-203 129.5,-203 129.5,-184 221.5,-184 221.5,-203"/>
<text text-anchor="middle" x="175.5" y="-191" font-family="Helvetica,sans-Serif" font-size="10.00">func_80093A30</text>
</a>
</g>
</g>
<!-- Node1&#45;&gt;Node23 -->
<g id="edge31_Node000001_Node000023" class="edge">
<title>Node1&#45;&gt;Node23</title>
<g id="a_edge31_Node000001_Node000023"><a xlink:title=" ">
<path fill="none" stroke="#63b8ff" d="M80.21,-220.97C95.93,-216.39 114.99,-210.84 131.84,-205.93"/>
<polygon fill="#63b8ff" stroke="#63b8ff" points="132.84,-209.28 141.46,-203.12 130.88,-202.56 132.84,-209.28"/>
</a>
</g>
</g>
<!-- Node28 -->
<g id="Node000028" class="node">
<title>Node28</title>
<g id="a_Node000028"><a xlink:href="skybox__and__splitscreen_8c.html#ae4ccafca07028b0c92356fdf52e84180" target="_top" xlink:title=" ">
<polygon fill="white" stroke="#666666" points="221.5,-166 129.5,-166 129.5,-147 221.5,-147 221.5,-166"/>
<text text-anchor="middle" x="175.5" y="-154" font-family="Helvetica,sans-Serif" font-size="10.00">func_802A3730</text>
</a>
</g>
</g>
<!-- Node1&#45;&gt;Node28 -->
<g id="edge36_Node000001_Node000028" class="edge">
<title>Node1&#45;&gt;Node28</title>
<g id="a_edge36_Node000001_Node000028"><a xlink:title=" ">
<path fill="none" stroke="#63b8ff" d="M59.65,-220.85C75.11,-208.89 102.94,-188.38 129,-174.5 131.85,-172.98 134.86,-171.52 137.91,-170.13"/>
<polygon fill="#63b8ff" stroke="#63b8ff" points="139.29,-173.34 147.1,-166.18 136.53,-166.91 139.29,-173.34"/>
</a>
</g>
</g>
<!-- Node29 -->
<g id="Node000029" class="node">
<title>Node29</title>
<g id="a_Node000029"><a xlink:href="skybox__and__splitscreen_8c.html#a08aab98d7e7cbdd307a7baec0e234b0b" target="_top" xlink:title=" ">
<polygon fill="white" stroke="#666666" points="221.5,-129 129.5,-129 129.5,-110 221.5,-110 221.5,-129"/>
<text text-anchor="middle" x="175.5" y="-117" font-family="Helvetica,sans-Serif" font-size="10.00">func_802A39E0</text>
</a>
</g>
</g>
<!-- Node1&#45;&gt;Node29 -->
<g id="edge37_Node000001_Node000029" class="edge">
<title>Node1&#45;&gt;Node29</title>
<g id="a_edge37_Node000001_Node000029"><a xlink:title=" ">
<path fill="none" stroke="#63b8ff" d="M53.54,-221C65.71,-202.53 94.96,-161.49 129,-137.5 130.86,-136.19 132.83,-134.95 134.87,-133.79"/>
<polygon fill="#63b8ff" stroke="#63b8ff" points="136.7,-136.79 144.09,-129.19 133.58,-130.53 136.7,-136.79"/>
</a>
</g>
</g>
<!-- Node30 -->
<g id="Node000030" class="node">
<title>Node30</title>
<g id="a_Node000030"><a xlink:href="skybox__and__splitscreen_8c.html#ac2b757ad60cbf91f4c5a7a9b290b10f6" target="_top" xlink:title=" ">
<polygon fill="white" stroke="#666666" points="221.5,-277 129.5,-277 129.5,-258 221.5,-258 221.5,-277"/>
<text text-anchor="middle" x="175.5" y="-265" font-family="Helvetica,sans-Serif" font-size="10.00">func_802A487C</text>
</a>
</g>
</g>
<!-- Node1&#45;&gt;Node30 -->
<g id="edge38_Node000001_Node000030" class="edge">
<title>Node1&#45;&gt;Node30</title>
<g id="a_edge38_Node000001_Node000030"><a xlink:title=" ">
<path fill="none" stroke="#63b8ff" d="M80.21,-240.03C95.93,-244.61 114.99,-250.16 131.84,-255.07"/>
<polygon fill="#63b8ff" stroke="#63b8ff" points="130.88,-258.44 141.46,-257.88 132.84,-251.72 130.88,-258.44"/>
</a>
</g>
</g>
<!-- Node34 -->
<g id="Node000034" class="node">
<title>Node34</title>
<g id="a_Node000034"><a xlink:href="skybox__and__splitscreen_8c.html#a1ff551b00275f32a4c52eb741006cbc2" target="_top" xlink:title=" ">
<polygon fill="white" stroke="#666666" points="360.5,-315 307.5,-315 307.5,-296 360.5,-296 360.5,-315"/>
<text text-anchor="middle" x="334" y="-303" font-family="Helvetica,sans-Serif" font-size="10.00">init_rdp</text>
</a>
</g>
</g>
<!-- Node1&#45;&gt;Node34 -->
<g id="edge57_Node000001_Node000034" class="edge">
<title>Node1&#45;&gt;Node34</title>
<g id="a_edge57_Node000001_Node000034"><a xlink:title=" ">
<path fill="none" stroke="#63b8ff" d="M58.12,-240.27C72.81,-253.14 100.73,-275.32 129,-285.5 185.21,-305.74 255.43,-308.04 297.11,-307.22"/>
<polygon fill="#63b8ff" stroke="#63b8ff" points="297.42,-310.71 307.32,-306.94 297.23,-303.71 297.42,-310.71"/>
</a>
</g>
</g>
<!-- Node35 -->
<g id="Node000035" class="node">
<title>Node35</title>
<g id="a_Node000035"><a xlink:href="skybox__and__splitscreen_8c.html#a6135e98ec3076399696ca04f441529f4" target="_top" xlink:title=" ">
<polygon fill="white" stroke="#666666" points="222,-240 129,-240 129,-221 222,-221 222,-240"/>
<text text-anchor="middle" x="175.5" y="-228" font-family="Helvetica,sans-Serif" font-size="10.00">func_802A4A0C</text>
</a>
</g>
</g>
<!-- Node1&#45;&gt;Node35 -->
<g id="edge44_Node000001_Node000035" class="edge">
<title>Node1&#45;&gt;Node35</title>
<g id="a_edge44_Node000001_Node000035"><a xlink:title=" ">
<path fill="none" stroke="#63b8ff" d="M93.35,-230.5C101.53,-230.5 110.14,-230.5 118.57,-230.5"/>
<polygon fill="#63b8ff" stroke="#63b8ff" points="118.72,-234 128.72,-230.5 118.72,-227 118.72,-234"/>
</a>
</g>
</g>
<!-- Node3 -->
<g id="Node000003" class="node">
<title>Node3</title>
<g id="a_Node000003"><a xlink:href="render__objects_8c.html#a825e8e731c52353ac39601ed2aef3eb1" target="_top" xlink:title=" ">
<polygon fill="white" stroke="#666666" points="380,-537 288,-537 288,-518 380,-518 380,-537"/>
<text text-anchor="middle" x="334" y="-525" font-family="Helvetica,sans-Serif" font-size="10.00">func_80051EBC</text>
</a>
</g>
</g>
<!-- Node2&#45;&gt;Node3 -->
<g id="edge2_Node000002_Node000003" class="edge">
<title>Node2&#45;&gt;Node3</title>
<g id="a_edge2_Node000002_Node000003"><a xlink:title=" ">
<path fill="none" stroke="#63b8ff" d="M182.07,-426.14C193.64,-445.23 222.17,-487.86 258,-509.5 264.15,-513.21 271.01,-516.16 278.02,-518.5"/>
<polygon fill="#63b8ff" stroke="#63b8ff" points="277.03,-521.86 287.61,-521.33 279.01,-515.14 277.03,-521.86"/>
</a>
</g>
</g>
<!-- Node17 -->
<g id="Node000017" class="node">
<title>Node17</title>
<g id="a_Node000017"><a xlink:href="render__objects_8c.html#a467430e13a9dbbed38a9454bfb98fd24" target="_top" xlink:title=" ">
<polygon fill="white" stroke="#666666" points="379.5,-500 288.5,-500 288.5,-481 379.5,-481 379.5,-500"/>
<text text-anchor="middle" x="334" y="-488" font-family="Helvetica,sans-Serif" font-size="10.00">func_80051EF8</text>
</a>
</g>
</g>
<!-- Node2&#45;&gt;Node17 -->
<g id="edge18_Node000002_Node000017" class="edge">
<title>Node2&#45;&gt;Node17</title>
<g id="a_edge18_Node000002_Node000017"><a xlink:title=" ">
<path fill="none" stroke="#63b8ff" d="M187.57,-426.1C202.55,-438.6 230.55,-460.28 258,-472.5 264.56,-475.42 271.66,-477.91 278.79,-480.01"/>
<polygon fill="#63b8ff" stroke="#63b8ff" points="277.92,-483.4 288.48,-482.66 279.76,-476.65 277.92,-483.4"/>
</a>
</g>
</g>
<!-- Node18 -->
<g id="Node000018" class="node">
<title>Node18</title>
<g id="a_Node000018"><a xlink:href="render__objects_8c.html#aa24d319ba792bdbc5b99a914ec15cda5" target="_top" xlink:title=" ">
<polygon fill="white" stroke="#666666" points="380,-463 288,-463 288,-444 380,-444 380,-463"/>
<text text-anchor="middle" x="334" y="-451" font-family="Helvetica,sans-Serif" font-size="10.00">func_80051F9C</text>
</a>
</g>
</g>
<!-- Node2&#45;&gt;Node18 -->
<g id="edge20_Node000002_Node000018" class="edge">
<title>Node2&#45;&gt;Node18</title>
<g id="a_edge20_Node000002_Node000018"><a xlink:title=" ">
<path fill="none" stroke="#63b8ff" d="M216.8,-426.03C236.9,-430.78 261.39,-436.57 282.71,-441.61"/>
<polygon fill="#63b8ff" stroke="#63b8ff" points="282.03,-445.04 292.56,-443.94 283.64,-438.23 282.03,-445.04"/>
</a>
</g>
</g>
<!-- Node19 -->
<g id="Node000019" class="node">
<title>Node19</title>
<g id="a_Node000019"><a xlink:href="render__objects_8c.html#af8b0c2768b4b7052b73b67da5e51c25c" target="_top" xlink:title=" ">
<polygon fill="white" stroke="#666666" points="379.5,-352 288.5,-352 288.5,-333 379.5,-333 379.5,-352"/>
<text text-anchor="middle" x="334" y="-340" font-family="Helvetica,sans-Serif" font-size="10.00">func_80052044</text>
</a>
</g>
</g>
<!-- Node2&#45;&gt;Node19 -->
<g id="edge22_Node000002_Node000019" class="edge">
<title>Node2&#45;&gt;Node19</title>
<g id="a_edge22_Node000002_Node000019"><a xlink:title=" ">
<path fill="none" stroke="#63b8ff" d="M187.88,-406.92C202.98,-394.68 230.89,-373.63 258,-361.5 264.34,-358.66 271.18,-356.19 278.07,-354.06"/>
<polygon fill="#63b8ff" stroke="#63b8ff" points="279.47,-357.3 288.12,-351.18 277.54,-350.57 279.47,-357.3"/>
</a>
</g>
</g>
<!-- Node21 -->
<g id="Node000021" class="node">
<title>Node21</title>
<g id="a_Node000021"><a xlink:href="render__objects_8c.html#ab0b2597c5ad125d8c62911db932c9647" target="_top" xlink:title=" ">
<polygon fill="white" stroke="#666666" points="379.5,-426 288.5,-426 288.5,-407 379.5,-407 379.5,-426"/>
<text text-anchor="middle" x="334" y="-414" font-family="Helvetica,sans-Serif" font-size="10.00">func_80052080</text>
</a>
</g>
</g>
<!-- Node2&#45;&gt;Node21 -->
<g id="edge28_Node000002_Node000021" class="edge">
<title>Node2&#45;&gt;Node21</title>
<g id="a_edge28_Node000002_Node000021"><a xlink:title=" ">
<path fill="none" stroke="#63b8ff" d="M221.77,-416.5C239.44,-416.5 259.86,-416.5 278.34,-416.5"/>
<polygon fill="#63b8ff" stroke="#63b8ff" points="278.38,-420 288.38,-416.5 278.38,-413 278.38,-420"/>
</a>
</g>
</g>
<!-- Node22 -->
<g id="Node000022" class="node">
<title>Node22</title>
<g id="a_Node000022"><a xlink:href="math__util__2_8c.html#aa0f56371081de86dcbb5ed53fd24292f" target="_top" xlink:title=" ">
<polygon fill="white" stroke="#666666" points="399,-389 269,-389 269,-370 399,-370 399,-389"/>
<text text-anchor="middle" x="334" y="-377" font-family="Helvetica,sans-Serif" font-size="10.00">set_matrix_hud_screen</text>
</a>
</g>
</g>
<!-- Node2&#45;&gt;Node22 -->
<g id="edge30_Node000002_Node000022" class="edge">
<title>Node2&#45;&gt;Node22</title>
<g id="a_edge30_Node000002_Node000022"><a xlink:title=" ">
<path fill="none" stroke="#63b8ff" d="M216.8,-406.97C236.9,-402.22 261.39,-396.43 282.71,-391.39"/>
<polygon fill="#63b8ff" stroke="#63b8ff" points="283.64,-394.77 292.56,-389.06 282.03,-387.96 283.64,-394.77"/>
</a>
</g>
</g>
<!-- Node4 -->
<g id="Node000004" class="node">
<title>Node4</title>
<g id="a_Node000004"><a xlink:href="render__objects_8c.html#a6603f469da43f588fae1d63555b5250c" target="_top" xlink:title=" ">
<polygon fill="white" stroke="#666666" points="555,-463 462,-463 462,-444 555,-444 555,-463"/>
<text text-anchor="middle" x="508.5" y="-451" font-family="Helvetica,sans-Serif" font-size="10.00">func_80051ABC</text>
</a>
</g>
</g>
<!-- Node3&#45;&gt;Node4 -->
<g id="edge3_Node000003_Node000004" class="edge">
<title>Node3&#45;&gt;Node4</title>
<g id="a_edge3_Node000003_Node000004"><a xlink:title=" ">
<path fill="none" stroke="#63b8ff" d="M380.07,-518.89C390.09,-516.37 400.54,-513.26 410,-509.5 437.25,-498.67 466.09,-481.27 485.27,-468.74"/>
<polygon fill="#63b8ff" stroke="#63b8ff" points="487.22,-471.64 493.61,-463.19 483.35,-465.81 487.22,-471.64"/>
</a>
</g>
</g>
<!-- Node5 -->
<g id="Node000005" class="node">
<title>Node5</title>
<g id="a_Node000005"><a xlink:href="render__objects_8c.html#a9ea20c14c263ed864d8e02d082b6b18b" target="_top" xlink:title=" ">
<polygon fill="white" stroke="#666666" points="699,-500 607,-500 607,-481 699,-481 699,-500"/>
<text text-anchor="middle" x="653" y="-488" font-family="Helvetica,sans-Serif" font-size="10.00">func_8004B414</text>
</a>
</g>
</g>
<!-- Node4&#45;&gt;Node5 -->
<g id="edge4_Node000004_Node000005" class="edge">
<title>Node4&#45;&gt;Node5</title>
<g id="a_edge4_Node000004_Node000005"><a xlink:title=" ">
<path fill="none" stroke="#63b8ff" d="M546.2,-463.03C564.17,-467.7 586.02,-473.37 605.19,-478.35"/>
<polygon fill="#63b8ff" stroke="#63b8ff" points="604.37,-481.75 614.93,-480.88 606.13,-474.97 604.37,-481.75"/>
</a>
</g>
</g>
<!-- Node6 -->
<g id="Node000006" class="node">
<title>Node6</title>
<g id="a_Node000006"><a xlink:href="render__objects_8c.html#a93a6f0b4f562c06bfb21f3825543ad19" target="_top" xlink:title=" ">
<polygon fill="white" stroke="#666666" points="699,-426 607,-426 607,-407 699,-407 699,-426"/>
<text text-anchor="middle" x="653" y="-414" font-family="Helvetica,sans-Serif" font-size="10.00">func_8004B6C4</text>
</a>
</g>
</g>
<!-- Node4&#45;&gt;Node6 -->
<g id="edge5_Node000004_Node000006" class="edge">
<title>Node4&#45;&gt;Node6</title>
<g id="a_edge5_Node000004_Node000006"><a xlink:title=" ">
<path fill="none" stroke="#63b8ff" d="M546.2,-443.97C564.17,-439.3 586.02,-433.63 605.19,-428.65"/>
<polygon fill="#63b8ff" stroke="#63b8ff" points="606.13,-432.03 614.93,-426.12 604.37,-425.25 606.13,-432.03"/>
</a>
</g>
</g>
<!-- Node7 -->
<g id="Node000007" class="node">
<title>Node7</title>
<g id="a_Node000007"><a xlink:href="render__objects_8c.html#a8061faa4a6732e64327ce4794a8c9f74" target="_top" xlink:title=" ">
<polygon fill="white" stroke="#666666" points="698.5,-463 607.5,-463 607.5,-444 698.5,-444 698.5,-463"/>
<text text-anchor="middle" x="653" y="-451" font-family="Helvetica,sans-Serif" font-size="10.00">func_800518F8</text>
</a>
</g>
</g>
<!-- Node4&#45;&gt;Node7 -->
<g id="edge6_Node000004_Node000007" class="edge">
<title>Node4&#45;&gt;Node7</title>
<g id="a_edge6_Node000004_Node000007"><a xlink:title=" ">
<path fill="none" stroke="#63b8ff" d="M555.37,-453.5C568.6,-453.5 583.17,-453.5 596.89,-453.5"/>
<polygon fill="#63b8ff" stroke="#63b8ff" points="597.19,-457 607.19,-453.5 597.19,-450 597.19,-457"/>
</a>
</g>
</g>
<!-- Node15 -->
<g id="Node000015" class="node">
<title>Node15</title>
<g id="a_Node000015"><a xlink:href="render__objects_8c.html#ac62f4d79ca049faf6db97f0daa8541bc" target="_top" xlink:title=" ">
<polygon fill="white" stroke="#666666" points="699,-389 607,-389 607,-370 699,-370 699,-389"/>
<text text-anchor="middle" x="653" y="-377" font-family="Helvetica,sans-Serif" font-size="10.00">func_800519D4</text>
</a>
</g>
</g>
<!-- Node4&#45;&gt;Node15 -->
<g id="edge14_Node000004_Node000015" class="edge">
<title>Node4&#45;&gt;Node15</title>
<g id="a_edge14_Node000004_Node000015"><a xlink:title=" ">
<path fill="none" stroke="#63b8ff" d="M552.72,-443.94C559.08,-441.67 565.38,-438.89 571,-435.5 590.66,-423.67 588.05,-411.44 607,-398.5 609.58,-396.74 612.34,-395.09 615.19,-393.56"/>
<polygon fill="#63b8ff" stroke="#63b8ff" points="616.97,-396.59 624.44,-389.08 613.91,-390.29 616.97,-396.59"/>
</a>
</g>
</g>
<!-- Node8 -->
<g id="Node000008" class="node">
<title>Node8</title>
<g id="a_Node000008"><a xlink:href="math__util__2_8c.html#a22aa509214eeed1ba3197762e76d7bed" target="_top" xlink:title=" ">
<polygon fill="white" stroke="#666666" points="827,-412 736,-412 736,-393 827,-393 827,-412"/>
<text text-anchor="middle" x="781.5" y="-400" font-family="Helvetica,sans-Serif" font-size="10.00">func_80042330</text>
</a>
</g>
</g>
<!-- Node7&#45;&gt;Node8 -->
<g id="edge7_Node000007_Node000008" class="edge">
<title>Node7&#45;&gt;Node8</title>
<g id="a_edge7_Node000007_Node000008"><a xlink:title=" ">
<path fill="none" stroke="#63b8ff" d="M677.83,-443.99C684.67,-441.26 692.13,-438.26 699,-435.5 715.03,-429.05 732.82,-421.85 747.68,-415.83"/>
<polygon fill="#63b8ff" stroke="#63b8ff" points="749.02,-419.06 756.97,-412.06 746.39,-412.57 749.02,-419.06"/>
</a>
</g>
</g>
<!-- Node14 -->
<g id="Node000014" class="node">
<title>Node14</title>
<g id="a_Node000014"><a xlink:href="render__objects_8c.html#a7e222e4426a0c151a8580e2982336170" target="_top" xlink:title=" ">
<polygon fill="white" stroke="#666666" points="828,-454 735,-454 735,-435 828,-435 828,-454"/>
<text text-anchor="middle" x="781.5" y="-442" font-family="Helvetica,sans-Serif" font-size="10.00">func_80044DA0</text>
</a>
</g>
</g>
<!-- Node7&#45;&gt;Node14 -->
<g id="edge13_Node000007_Node000014" class="edge">
<title>Node7&#45;&gt;Node14</title>
<g id="a_edge13_Node000007_Node000014"><a xlink:title=" ">
<path fill="none" stroke="#63b8ff" d="M698.6,-450.33C706.98,-449.73 715.85,-449.1 724.53,-448.48"/>
<polygon fill="#63b8ff" stroke="#63b8ff" points="724.87,-451.97 734.59,-447.77 724.37,-444.98 724.87,-451.97"/>
</a>
</g>
</g>
<!-- Node9 -->
<g id="Node000009" class="node">
<title>Node9</title>
<g id="a_Node000009"><a xlink:href="render__player_8c.html#ab7bf9484e155990f138e03ae5339fc84" target="_top" xlink:title=" ">
<polygon fill="white" stroke="#666666" points="991,-368.5 864,-368.5 864,-338.5 991,-338.5 991,-368.5"/>
<text text-anchor="start" x="872" y="-356.5" font-family="Helvetica,sans-Serif" font-size="10.00">convert_to_fixed_point</text>
<text text-anchor="middle" x="927.5" y="-345.5" font-family="Helvetica,sans-Serif" font-size="10.00">_matrix</text>
</a>
</g>
</g>
<!-- Node8&#45;&gt;Node9 -->
<g id="edge8_Node000008_Node000009" class="edge">
<title>Node8&#45;&gt;Node9</title>
<g id="a_edge8_Node000008_Node000009"><a xlink:title=" ">
<path fill="none" stroke="#63b8ff" d="M810.61,-392.94C828.28,-386.92 851.66,-378.97 872.79,-371.78"/>
<polygon fill="#63b8ff" stroke="#63b8ff" points="873.97,-375.07 882.31,-368.54 871.72,-368.44 873.97,-375.07"/>
</a>
</g>
</g>
<!-- Node11 -->
<g id="Node000011" class="node">
<title>Node11</title>
<g id="a_Node000011"><a xlink:href="math__util__2_8c.html#a54b1e79ca4e8d2f7f7256891f9c4e772" target="_top" xlink:title="arg1 and arg2 are s32&#39;s into floats?!?">
<polygon fill="white" stroke="#666666" points="990.5,-417.5 864.5,-417.5 864.5,-387.5 990.5,-387.5 990.5,-417.5"/>
<text text-anchor="start" x="872.5" y="-405.5" font-family="Helvetica,sans-Serif" font-size="10.00">mtxf_translation_x</text>
<text text-anchor="middle" x="927.5" y="-394.5" font-family="Helvetica,sans-Serif" font-size="10.00">_y_rotate_z_scale_x_y</text>
</a>
</g>
</g>
<!-- Node8&#45;&gt;Node11 -->
<g id="edge10_Node000008_Node000011" class="edge">
<title>Node8&#45;&gt;Node11</title>
<g id="a_edge10_Node000008_Node000011"><a xlink:title=" ">
<path fill="none" stroke="#63b8ff" d="M827.27,-402.5C835.79,-402.5 844.91,-402.5 854.03,-402.5"/>
<polygon fill="#63b8ff" stroke="#63b8ff" points="854.3,-406 864.3,-402.5 854.3,-399 854.3,-406"/>
</a>
</g>
</g>
<!-- Node10 -->
<g id="Node000010" class="node">
<title>Node10</title>
<g id="a_Node000010"><a xlink:href="guMtxF2L_8c.html#a40ab2d64c609839ff1e0ef0de2d0dcc4" target="_top" xlink:title=" ">
<polygon fill="white" stroke="#666666" points="1092,-346 1027,-346 1027,-327 1092,-327 1092,-346"/>
<text text-anchor="middle" x="1059.5" y="-334" font-family="Helvetica,sans-Serif" font-size="10.00">guMtxF2L</text>
</a>
</g>
</g>
<!-- Node9&#45;&gt;Node10 -->
<g id="edge9_Node000009_Node000010" class="edge">
<title>Node9&#45;&gt;Node10</title>
<g id="a_edge9_Node000009_Node000010"><a xlink:title=" ">
<path fill="none" stroke="#63b8ff" d="M991.22,-345.3C999.89,-344.16 1008.62,-343.02 1016.78,-341.96"/>
<polygon fill="#63b8ff" stroke="#63b8ff" points="1017.31,-345.42 1026.77,-340.65 1016.4,-338.48 1017.31,-345.42"/>
</a>
</g>
</g>
<!-- Node12 -->
<g id="Node000012" class="node">
<title>Node12</title>
<g id="a_Node000012"><a xlink:href="math__util_8c.html#ae69cbf5c8d4b3b0dba2d7b4d4673689f" target="_top" xlink:title=" ">
<polygon fill="white" stroke="#666666" points="1078.5,-391 1040.5,-391 1040.5,-372 1078.5,-372 1078.5,-391"/>
<text text-anchor="middle" x="1059.5" y="-379" font-family="Helvetica,sans-Serif" font-size="10.00">coss</text>
</a>
</g>
</g>
<!-- Node11&#45;&gt;Node12 -->
<g id="edge11_Node000011_Node000012" class="edge">
<title>Node11&#45;&gt;Node12</title>
<g id="a_edge11_Node000011_Node000012"><a xlink:title=" ">
<path fill="none" stroke="#63b8ff" d="M990.83,-392.43C1004.7,-390.19 1018.74,-387.92 1030.4,-386.04"/>
<polygon fill="#63b8ff" stroke="#63b8ff" points="1031.06,-389.48 1040.37,-384.43 1029.94,-382.57 1031.06,-389.48"/>
</a>
</g>
</g>
<!-- Node13 -->
<g id="Node000013" class="node">
<title>Node13</title>
<g id="a_Node000013"><a xlink:href="math__util_8c.html#a19ed3bd78fd2d3e2bd0a29f6caf48545" target="_top" xlink:title=" ">
<polygon fill="white" stroke="#666666" points="1077.5,-428 1041.5,-428 1041.5,-409 1077.5,-409 1077.5,-428"/>
<text text-anchor="middle" x="1059.5" y="-416" font-family="Helvetica,sans-Serif" font-size="10.00">sins</text>
</a>
</g>
</g>
<!-- Node11&#45;&gt;Node13 -->
<g id="edge12_Node000011_Node000013" class="edge">
<title>Node11&#45;&gt;Node13</title>
<g id="a_edge12_Node000011_Node000013"><a xlink:title=" ">
<path fill="none" stroke="#63b8ff" d="M990.83,-410.17C1005.1,-411.93 1019.54,-413.71 1031.4,-415.16"/>
<polygon fill="#63b8ff" stroke="#63b8ff" points="1031.13,-418.66 1041.48,-416.41 1031.98,-411.71 1031.13,-418.66"/>
</a>
</g>
</g>
<!-- Node15&#45;&gt;Node8 -->
<g id="edge15_Node000015_Node000008" class="edge">
<title>Node15&#45;&gt;Node8</title>
<g id="a_edge15_Node000015_Node000008"><a xlink:title=" ">
<path fill="none" stroke="#63b8ff" d="M699.31,-387.74C707.97,-389.31 717.11,-390.97 726.01,-392.59"/>
<polygon fill="#63b8ff" stroke="#63b8ff" points="725.46,-396.05 735.93,-394.4 726.72,-389.16 725.46,-396.05"/>
</a>
</g>
</g>
<!-- Node15&#45;&gt;Node14 -->
<g id="edge16_Node000015_Node000014" class="edge">
<title>Node15&#45;&gt;Node14</title>
<g id="a_edge16_Node000015_Node000014"><a xlink:title=" ">
<path fill="none" stroke="#63b8ff" d="M678.64,-389.02C685.35,-391.85 692.54,-395.11 699,-398.5 715.81,-407.34 718.51,-412.09 735,-421.5 740.22,-424.48 745.87,-427.49 751.36,-430.32"/>
<polygon fill="#63b8ff" stroke="#63b8ff" points="749.83,-433.47 760.34,-434.85 752.99,-427.22 749.83,-433.47"/>
</a>
</g>
</g>
<!-- Node16 -->
<g id="Node000016" class="node">
<title>Node16</title>
<g id="a_Node000016"><a xlink:href="render__objects_8c.html#a816f6d2e246056f98e788f34a8bd091a" target="_top" xlink:title=" ">
<polygon fill="white" stroke="#666666" points="827.5,-375 735.5,-375 735.5,-356 827.5,-356 827.5,-375"/>
<text text-anchor="middle" x="781.5" y="-363" font-family="Helvetica,sans-Serif" font-size="10.00">func_8004B138</text>
</a>
</g>
</g>
<!-- Node15&#45;&gt;Node16 -->
<g id="edge17_Node000015_Node000016" class="edge">
<title>Node15&#45;&gt;Node16</title>
<g id="a_edge17_Node000015_Node000016"><a xlink:title=" ">
<path fill="none" stroke="#63b8ff" d="M699.31,-374.49C707.67,-373.56 716.48,-372.59 725.1,-371.63"/>
<polygon fill="#63b8ff" stroke="#63b8ff" points="725.52,-375.11 735.08,-370.53 724.75,-368.15 725.52,-375.11"/>
</a>
</g>
</g>
<!-- Node17&#45;&gt;Node4 -->
<g id="edge19_Node000017_Node000004" class="edge">
<title>Node17&#45;&gt;Node4</title>
<g id="a_edge19_Node000017_Node000004"><a xlink:title=" ">
<path fill="none" stroke="#63b8ff" d="M379.42,-480.97C401.87,-476.16 429.31,-470.27 453.02,-465.19"/>
<polygon fill="#63b8ff" stroke="#63b8ff" points="453.88,-468.58 462.93,-463.06 452.42,-461.74 453.88,-468.58"/>
</a>
</g>
</g>
<!-- Node18&#45;&gt;Node4 -->
<g id="edge21_Node000018_Node000004" class="edge">
<title>Node18&#45;&gt;Node4</title>
<g id="a_edge21_Node000018_Node000004"><a xlink:title=" ">
<path fill="none" stroke="#63b8ff" d="M380.32,-453.5C402.23,-453.5 428.74,-453.5 451.86,-453.5"/>
<polygon fill="#63b8ff" stroke="#63b8ff" points="451.88,-457 461.88,-453.5 451.88,-450 451.88,-457"/>
</a>
</g>
</g>
<!-- Node20 -->
<g id="Node000020" class="node">
<title>Node20</title>
<g id="a_Node000020"><a xlink:href="render__objects_8c.html#a5076afafc3e6fad82897fff313f766c7" target="_top" xlink:title=" ">
<polygon fill="white" stroke="#666666" points="554.5,-426 462.5,-426 462.5,-407 554.5,-407 554.5,-426"/>
<text text-anchor="middle" x="508.5" y="-414" font-family="Helvetica,sans-Serif" font-size="10.00">func_80051C60</text>
</a>
</g>
</g>
<!-- Node19&#45;&gt;Node20 -->
<g id="edge23_Node000019_Node000020" class="edge">
<title>Node19&#45;&gt;Node20</title>
<g id="a_edge23_Node000019_Node000020"><a xlink:title=" ">
<path fill="none" stroke="#63b8ff" d="M379.64,-351.74C389.79,-354.4 400.4,-357.66 410,-361.5 436.82,-372.24 465.38,-389.06 484.6,-401.27"/>
<polygon fill="#63b8ff" stroke="#63b8ff" points="482.94,-404.36 493.24,-406.85 486.74,-398.48 482.94,-404.36"/>
</a>
</g>
</g>
<!-- Node20&#45;&gt;Node5 -->
<g id="edge24_Node000020_Node000005" class="edge">
<title>Node20&#45;&gt;Node5</title>
<g id="a_edge24_Node000020_Node000005"><a xlink:title=" ">
<path fill="none" stroke="#63b8ff" d="M550.77,-426.11C557.79,-428.62 564.81,-431.71 571,-435.5 590.57,-447.48 587.93,-459.74 607,-472.5 609.14,-473.93 611.41,-475.28 613.76,-476.54"/>
<polygon fill="#63b8ff" stroke="#63b8ff" points="612.48,-479.81 623.01,-480.99 615.51,-473.5 612.48,-479.81"/>
</a>
</g>
</g>
<!-- Node20&#45;&gt;Node6 -->
<g id="edge25_Node000020_Node000006" class="edge">
<title>Node20&#45;&gt;Node6</title>
<g id="a_edge25_Node000020_Node000006"><a xlink:title=" ">
<path fill="none" stroke="#63b8ff" d="M554.59,-416.5C567.84,-416.5 582.5,-416.5 596.34,-416.5"/>
<polygon fill="#63b8ff" stroke="#63b8ff" points="596.72,-420 606.72,-416.5 596.72,-413 596.72,-420"/>
</a>
</g>
</g>
<!-- Node20&#45;&gt;Node7 -->
<g id="edge26_Node000020_Node000007" class="edge">
<title>Node20&#45;&gt;Node7</title>
<g id="a_edge26_Node000020_Node000007"><a xlink:title=" ">
<path fill="none" stroke="#63b8ff" d="M546.2,-426.03C564.17,-430.7 586.02,-436.37 605.19,-441.35"/>
<polygon fill="#63b8ff" stroke="#63b8ff" points="604.37,-444.75 614.93,-443.88 606.13,-437.97 604.37,-444.75"/>
</a>
</g>
</g>
<!-- Node20&#45;&gt;Node15 -->
<g id="edge27_Node000020_Node000015" class="edge">
<title>Node20&#45;&gt;Node15</title>
<g id="a_edge27_Node000020_Node000015"><a xlink:title=" ">
<path fill="none" stroke="#63b8ff" d="M546.2,-406.97C564.17,-402.3 586.02,-396.63 605.19,-391.65"/>
<polygon fill="#63b8ff" stroke="#63b8ff" points="606.13,-395.03 614.93,-389.12 604.37,-388.25 606.13,-395.03"/>
</a>
</g>
</g>
<!-- Node21&#45;&gt;Node20 -->
<g id="edge29_Node000021_Node000020" class="edge">
<title>Node21&#45;&gt;Node20</title>
<g id="a_edge29_Node000021_Node000020"><a xlink:title=" ">
<path fill="none" stroke="#63b8ff" d="M379.87,-416.5C401.96,-416.5 428.79,-416.5 452.14,-416.5"/>
<polygon fill="#63b8ff" stroke="#63b8ff" points="452.25,-420 462.25,-416.5 452.25,-413 452.25,-420"/>
</a>
</g>
</g>
<!-- Node24 -->
<g id="Node000024" class="node">
<title>Node24</title>
<g id="a_Node000024"><a xlink:href="menu__items_8c.html#adeb1d55a4af41677141b3c366070f30d" target="_top" xlink:title=" ">
<polygon fill="white" stroke="#666666" points="380,-38 288,-38 288,-19 380,-19 380,-38"/>
<text text-anchor="middle" x="334" y="-26" font-family="Helvetica,sans-Serif" font-size="10.00">func_8009E2A8</text>
</a>
</g>
</g>
<!-- Node23&#45;&gt;Node24 -->
<g id="edge32_Node000023_Node000024" class="edge">
<title>Node23&#45;&gt;Node24</title>
<g id="a_edge32_Node000023_Node000024"><a xlink:title=" ">
<path fill="none" stroke="#63b8ff" d="M209.54,-183.78C214.16,-181.32 218.51,-178.27 222,-174.5 256.9,-136.71 224.09,-103.18 258,-64.5 266.56,-54.73 278.37,-47.38 290.08,-41.96"/>
<polygon fill="#63b8ff" stroke="#63b8ff" points="291.55,-45.14 299.39,-38.01 288.82,-38.69 291.55,-45.14"/>
</a>
</g>
</g>
<!-- Node25 -->
<g id="Node000025" class="node">
<title>Node25</title>
<g id="a_Node000025"><a xlink:href="menu__items_8c.html#a53c0081413f5a7cde3d75352b4303be6" target="_top" xlink:title=" ">
<polygon fill="white" stroke="#666666" points="554,-19 463,-19 463,0 554,0 554,-19"/>
<text text-anchor="middle" x="508.5" y="-7" font-family="Helvetica,sans-Serif" font-size="10.00">func_8009E2F0</text>
</a>
</g>
</g>
<!-- Node24&#45;&gt;Node25 -->
<g id="edge33_Node000024_Node000025" class="edge">
<title>Node24&#45;&gt;Node25</title>
<g id="a_edge33_Node000024_Node000025"><a xlink:title=" ">
<path fill="none" stroke="#63b8ff" d="M380.32,-23.51C402.5,-21.07 429.37,-18.11 452.69,-15.54"/>
<polygon fill="#63b8ff" stroke="#63b8ff" points="453.22,-19 462.78,-14.43 452.46,-12.04 453.22,-19"/>
</a>
</g>
</g>
<!-- Node26 -->
<g id="Node000026" class="node">
<title>Node26</title>
<g id="a_Node000026"><a xlink:href="menu__items_8c.html#a4a3e73dfeae9dc0d77f213e77791181c" target="_top" xlink:title=" ">
<polygon fill="white" stroke="#666666" points="685,-19 621,-19 621,0 685,0 685,-19"/>
<text text-anchor="middle" x="653" y="-7" font-family="Helvetica,sans-Serif" font-size="10.00">draw_box</text>
</a>
</g>
</g>
<!-- Node25&#45;&gt;Node26 -->
<g id="edge34_Node000025_Node000026" class="edge">
<title>Node25&#45;&gt;Node26</title>
<g id="a_edge34_Node000025_Node000026"><a xlink:title=" ">
<path fill="none" stroke="#63b8ff" d="M554.2,-9.5C572.35,-9.5 593.18,-9.5 610.94,-9.5"/>
<polygon fill="#63b8ff" stroke="#63b8ff" points="611,-13 621,-9.5 611,-6 611,-13"/>
</a>
</g>
</g>
<!-- Node27 -->
<g id="Node000027" class="node">
<title>Node27</title>
<g id="a_Node000027"><a xlink:href="menu__items_8c.html#a2341569d8bfc9b8aac7d5dab7933c999" target="_top" xlink:title=" ">
<polygon fill="white" stroke="#666666" points="821.5,-19 741.5,-19 741.5,0 821.5,0 821.5,-19"/>
<text text-anchor="middle" x="781.5" y="-7" font-family="Helvetica,sans-Serif" font-size="10.00">swap_values</text>
</a>
</g>
</g>
<!-- Node26&#45;&gt;Node27 -->
<g id="edge35_Node000026_Node000027" class="edge">
<title>Node26&#45;&gt;Node27</title>
<g id="a_edge35_Node000026_Node000027"><a xlink:title=" ">
<path fill="none" stroke="#63b8ff" d="M685.27,-9.5C699.06,-9.5 715.61,-9.5 731.01,-9.5"/>
<polygon fill="#63b8ff" stroke="#63b8ff" points="731.44,-13 741.44,-9.5 731.44,-6 731.44,-13"/>
</a>
</g>
</g>
<!-- Node31 -->
<g id="Node000031" class="node">
<title>Node31</title>
<g id="a_Node000031"><a xlink:href="guOrthoF_8c.html#ad7ee72136daaabbf7bfa2c6a5d791db1" target="_top" xlink:title=" ">
<polygon fill="white" stroke="#666666" points="362,-278 306,-278 306,-259 362,-259 362,-278"/>
<text text-anchor="middle" x="334" y="-266" font-family="Helvetica,sans-Serif" font-size="10.00">guOrtho</text>
</a>
</g>
</g>
<!-- Node30&#45;&gt;Node31 -->
<g id="edge39_Node000030_Node000031" class="edge">
<title>Node30&#45;&gt;Node31</title>
<g id="a_edge39_Node000030_Node000031"><a xlink:title=" ">
<path fill="none" stroke="#63b8ff" d="M221.77,-267.79C245.3,-267.94 273.71,-268.12 295.93,-268.26"/>
<polygon fill="#63b8ff" stroke="#63b8ff" points="295.95,-271.76 305.97,-268.33 295.99,-264.76 295.95,-271.76"/>
</a>
</g>
</g>
<!-- Node30&#45;&gt;Node34 -->
<g id="edge43_Node000030_Node000034" class="edge">
<title>Node30&#45;&gt;Node34</title>
<g id="a_edge43_Node000030_Node000034"><a xlink:title=" ">
<path fill="none" stroke="#63b8ff" d="M215.99,-277.09C241.03,-283.17 273.15,-290.97 297.4,-296.86"/>
<polygon fill="#63b8ff" stroke="#63b8ff" points="296.72,-300.29 307.27,-299.25 298.38,-293.49 296.72,-300.29"/>
</a>
</g>
</g>
<!-- Node31&#45;&gt;Node10 -->
<g id="edge40_Node000031_Node000010" class="edge">
<title>Node31&#45;&gt;Node10</title>
<g id="a_edge40_Node000031_Node000010"><a xlink:title=" ">
<path fill="none" stroke="#63b8ff" d="M362.41,-274.32C417.18,-285.41 544.11,-308.5 652,-308.5 652,-308.5 652,-308.5 782.5,-308.5 865.81,-308.5 962.54,-321.28 1016.52,-329.57"/>
<polygon fill="#63b8ff" stroke="#63b8ff" points="1016.31,-333.08 1026.73,-331.17 1017.39,-326.17 1016.31,-333.08"/>
</a>
</g>
</g>
<!-- Node32 -->
<g id="Node000032" class="node">
<title>Node32</title>
<g id="a_Node000032"><a xlink:href="guOrthoF_8c.html#ae2f1eeb1f335f37cca279436f5f15f41" target="_top" xlink:title=" ">
<polygon fill="white" stroke="#666666" points="539.5,-278 477.5,-278 477.5,-259 539.5,-259 539.5,-278"/>
<text text-anchor="middle" x="508.5" y="-266" font-family="Helvetica,sans-Serif" font-size="10.00">guOrthoF</text>
</a>
</g>
</g>
<!-- Node31&#45;&gt;Node32 -->
<g id="edge41_Node000031_Node000032" class="edge">
<title>Node31&#45;&gt;Node32</title>
<g id="a_edge41_Node000031_Node000032"><a xlink:title=" ">
<path fill="none" stroke="#63b8ff" d="M362.33,-268.5C390.62,-268.5 435.11,-268.5 467.38,-268.5"/>
<polygon fill="#63b8ff" stroke="#63b8ff" points="467.4,-272 477.4,-268.5 467.4,-265 467.4,-272"/>
</a>
</g>
</g>
<!-- Node33 -->
<g id="Node000033" class="node">
<title>Node33</title>
<g id="a_Node000033"><a xlink:href="guMtxF2L_8c.html#a257a86497fc08677370948eda3163595" target="_top" xlink:title=" ">
<polygon fill="white" stroke="#666666" points="692,-278 614,-278 614,-259 692,-259 692,-278"/>
<text text-anchor="middle" x="653" y="-266" font-family="Helvetica,sans-Serif" font-size="10.00">guMtxIdentF</text>
</a>
</g>
</g>
<!-- Node32&#45;&gt;Node33 -->
<g id="edge42_Node000032_Node000033" class="edge">
<title>Node32&#45;&gt;Node33</title>
<g id="a_edge42_Node000032_Node000033"><a xlink:title=" ">
<path fill="none" stroke="#63b8ff" d="M539.72,-268.5C558.33,-268.5 582.59,-268.5 603.81,-268.5"/>
<polygon fill="#63b8ff" stroke="#63b8ff" points="603.94,-272 613.94,-268.5 603.94,-265 603.94,-272"/>
</a>
</g>
</g>
<!-- Node35&#45;&gt;Node31 -->
<g id="edge52_Node000035_Node000031" class="edge">
<title>Node35&#45;&gt;Node31</title>
<g id="a_edge52_Node000035_Node000031"><a xlink:title=" ">
<path fill="none" stroke="#63b8ff" d="M215.99,-240.09C240.55,-246.05 271.93,-253.67 296.01,-259.52"/>
<polygon fill="#63b8ff" stroke="#63b8ff" points="295.3,-262.95 305.84,-261.91 296.95,-256.14 295.3,-262.95"/>
</a>
</g>
</g>
<!-- Node35&#45;&gt;Node34 -->
<g id="edge53_Node000035_Node000034" class="edge">
<title>Node35&#45;&gt;Node34</title>
<g id="a_edge53_Node000035_Node000034"><a xlink:title=" ">
<path fill="none" stroke="#63b8ff" d="M206.33,-240.13C211.76,-242.48 217.21,-245.26 222,-248.5 241.27,-261.53 237.93,-274.73 258,-286.5 269.89,-293.47 284.29,-297.9 297.28,-300.72"/>
<polygon fill="#63b8ff" stroke="#63b8ff" points="296.85,-304.2 307.33,-302.64 298.16,-297.32 296.85,-304.2"/>
</a>
</g>
</g>
<!-- Node36 -->
<g id="Node000036" class="node">
<title>Node36</title>
<g id="a_Node000036"><a xlink:href="skybox__and__splitscreen_8c.html#a4b71883a4df655bb1d78757b067448b0" target="_top" xlink:title=" ">
<polygon fill="white" stroke="#666666" points="408.5,-167 259.5,-167 259.5,-148 408.5,-148 408.5,-167"/>
<text text-anchor="middle" x="334" y="-155" font-family="Helvetica,sans-Serif" font-size="10.00">course_set_skybox_colours</text>
</a>
</g>
</g>
<!-- Node35&#45;&gt;Node36 -->
<g id="edge45_Node000035_Node000036" class="edge">
<title>Node35&#45;&gt;Node36</title>
<g id="a_edge45_Node000035_Node000036"><a xlink:title=" ">
<path fill="none" stroke="#63b8ff" d="M204.34,-220.9C210.39,-218.27 216.6,-215.12 222,-211.5 240.8,-198.9 238.26,-186.56 258,-175.5 261.23,-173.69 264.63,-172.07 268.14,-170.6"/>
<polygon fill="#63b8ff" stroke="#63b8ff" points="269.44,-173.85 277.6,-167.09 267.01,-167.29 269.44,-173.85"/>
</a>
</g>
</g>
<!-- Node37 -->
<g id="Node000037" class="node">
<title>Node37</title>
<g id="a_Node000037"><a xlink:href="math__util_8c.html#ab2a1a746532a236d5b2ed44bd4a69846" target="_top" xlink:title=" ">
<polygon fill="white" stroke="#666666" points="380,-130 288,-130 288,-111 380,-111 380,-130"/>
<text text-anchor="middle" x="334" y="-118" font-family="Helvetica,sans-Serif" font-size="10.00">func_802B5794</text>
</a>
</g>
</g>
<!-- Node35&#45;&gt;Node37 -->
<g id="edge46_Node000035_Node000037" class="edge">
<title>Node35&#45;&gt;Node37</title>
<g id="a_edge46_Node000035_Node000037"><a xlink:title=" ">
<path fill="none" stroke="#63b8ff" d="M208.15,-220.8C213.17,-218.31 218.01,-215.25 222,-211.5 248.37,-186.73 229.74,-161.08 258,-138.5 263.83,-133.85 270.67,-130.36 277.8,-127.77"/>
<polygon fill="#63b8ff" stroke="#63b8ff" points="279.12,-131.02 287.65,-124.74 277.07,-124.33 279.12,-131.02"/>
</a>
</g>
</g>
<!-- Node39 -->
<g id="Node000039" class="node">
<title>Node39</title>
<g id="a_Node000039"><a xlink:href="math__util_8c.html#a99c91320022dba0ee85f0a2f57ff54aa" target="_top" xlink:title=" ">
<polygon fill="white" stroke="#666666" points="396,-93 272,-93 272,-74 396,-74 396,-93"/>
<text text-anchor="middle" x="334" y="-81" font-family="Helvetica,sans-Serif" font-size="10.00">get_projection_matrix</text>
</a>
</g>
</g>
<!-- Node35&#45;&gt;Node39 -->
<g id="edge48_Node000035_Node000039" class="edge">
<title>Node35&#45;&gt;Node39</title>
<g id="a_edge48_Node000035_Node000039"><a xlink:title=" ">
<path fill="none" stroke="#63b8ff" d="M209.54,-220.78C214.16,-218.32 218.51,-215.27 222,-211.5 256.9,-173.71 220.19,-136.38 258,-101.5 259.51,-100.1 261.12,-98.81 262.79,-97.61"/>
<polygon fill="#63b8ff" stroke="#63b8ff" points="264.84,-100.47 271.69,-92.39 261.3,-94.43 264.84,-100.47"/>
</a>
</g>
</g>
<!-- Node43 -->
<g id="Node000043" class="node">
<title>Node43</title>
<g id="a_Node000043"><a xlink:href="math__util_8c.html#a68b650b8cc601fb7f7bae979898dcdbf" target="_top" xlink:title=" ">
<polygon fill="white" stroke="#666666" points="390.5,-241 277.5,-241 277.5,-222 390.5,-222 390.5,-241"/>
<text text-anchor="middle" x="334" y="-229" font-family="Helvetica,sans-Serif" font-size="10.00">mtxf_multiplication</text>
</a>
</g>
</g>
<!-- Node35&#45;&gt;Node43 -->
<g id="edge54_Node000035_Node000043" class="edge">
<title>Node35&#45;&gt;Node43</title>
<g id="a_edge54_Node000035_Node000043"><a xlink:title=" ">
<path fill="none" stroke="#63b8ff" d="M222.19,-230.79C236.19,-230.88 251.88,-230.98 266.96,-231.08"/>
<polygon fill="#63b8ff" stroke="#63b8ff" points="267.24,-234.58 277.27,-231.14 267.29,-227.58 267.24,-234.58"/>
</a>
</g>
</g>
<!-- Node45 -->
<g id="Node000045" class="node">
<title>Node45</title>
<g id="a_Node000045"><a xlink:href="math__util_8c.html#a53ebf17efe2ede701eb31d586e2e5e13" target="_top" xlink:title=" ">
<polygon fill="white" stroke="#666666" points="410,-204 258,-204 258,-185 410,-185 410,-204"/>
<text text-anchor="middle" x="334" y="-192" font-family="Helvetica,sans-Serif" font-size="10.00">mtxf_translate_vec3f_mat4</text>
</a>
</g>
</g>
<!-- Node35&#45;&gt;Node45 -->
<g id="edge56_Node000035_Node000045" class="edge">
<title>Node35&#45;&gt;Node45</title>
<g id="a_edge56_Node000035_Node000045"><a xlink:title=" ">
<path fill="none" stroke="#63b8ff" d="M218.03,-220.95C237.56,-216.45 261.04,-211.05 281.68,-206.31"/>
<polygon fill="#63b8ff" stroke="#63b8ff" points="282.59,-209.69 291.55,-204.03 281.02,-202.87 282.59,-209.69"/>
</a>
</g>
</g>
<!-- Node38 -->
<g id="Node000038" class="node">
<title>Node38</title>
<g id="a_Node000038"><a xlink:href="math_8h.html#a37bde043e94a6f074c78f10518fb5d99" target="_top" xlink:title=" ">
<polygon fill="white" stroke="#666666" points="528,-167 489,-167 489,-148 528,-148 528,-167"/>
<text text-anchor="middle" x="508.5" y="-155" font-family="Helvetica,sans-Serif" font-size="10.00">sqrtf</text>
</a>
</g>
</g>
<!-- Node37&#45;&gt;Node38 -->
<g id="edge47_Node000037_Node000038" class="edge">
<title>Node37&#45;&gt;Node38</title>
<g id="a_edge47_Node000037_Node000038"><a xlink:title=" ">
<path fill="none" stroke="#63b8ff" d="M379.42,-130.03C410.8,-136.76 451.91,-145.58 478.99,-151.38"/>
<polygon fill="#63b8ff" stroke="#63b8ff" points="478.46,-154.85 488.97,-153.53 479.93,-148.01 478.46,-154.85"/>
</a>
</g>
</g>
<!-- Node40 -->
<g id="Node000040" class="node">
<title>Node40</title>
<g id="a_Node000040"><a xlink:href="cosf_8c.html#a7b126b2344591e649c21c9ab0b8adb40" target="_top" xlink:title=" ">
<polygon fill="white" stroke="#666666" points="527,-93 490,-93 490,-74 527,-74 527,-93"/>
<text text-anchor="middle" x="508.5" y="-81" font-family="Helvetica,sans-Serif" font-size="10.00">cosf</text>
</a>
</g>
</g>
<!-- Node39&#45;&gt;Node40 -->
<g id="edge49_Node000039_Node000040" class="edge">
<title>Node39&#45;&gt;Node40</title>
<g id="a_edge49_Node000039_Node000040"><a xlink:title=" ">
<path fill="none" stroke="#63b8ff" d="M396.3,-83.5C424.76,-83.5 457.19,-83.5 479.65,-83.5"/>
<polygon fill="#63b8ff" stroke="#63b8ff" points="479.82,-87 489.82,-83.5 479.82,-80 479.82,-87"/>
</a>
</g>
</g>
<!-- Node41 -->
<g id="Node000041" class="node">
<title>Node41</title>
<g id="a_Node000041"><a xlink:href="math__util_8c.html#ac22eee16b1def67d2441ce919df0c5ac" target="_top" xlink:title=" ">
<polygon fill="white" stroke="#666666" points="550,-56 467,-56 467,-37 550,-37 550,-56"/>
<text text-anchor="middle" x="508.5" y="-44" font-family="Helvetica,sans-Serif" font-size="10.00">mtxf_identity</text>
</a>
</g>
</g>
<!-- Node39&#45;&gt;Node41 -->
<g id="edge50_Node000039_Node000041" class="edge">
<title>Node39&#45;&gt;Node41</title>
<g id="a_edge50_Node000039_Node000041"><a xlink:title=" ">
<path fill="none" stroke="#63b8ff" d="M379.42,-73.97C403.11,-68.89 432.36,-62.62 456.92,-57.35"/>
<polygon fill="#63b8ff" stroke="#63b8ff" points="457.73,-60.76 466.77,-55.24 456.26,-53.91 457.73,-60.76"/>
</a>
</g>
</g>
<!-- Node42 -->
<g id="Node000042" class="node">
<title>Node42</title>
<g id="a_Node000042"><a xlink:href="sinf_8c.html#a8a7dc2a88e109f4e15b661247665709a" target="_top" xlink:title=" ">
<polygon fill="white" stroke="#666666" points="526,-130 491,-130 491,-111 526,-111 526,-130"/>
<text text-anchor="middle" x="508.5" y="-118" font-family="Helvetica,sans-Serif" font-size="10.00">sinf</text>
</a>
</g>
</g>
<!-- Node39&#45;&gt;Node42 -->
<g id="edge51_Node000039_Node000042" class="edge">
<title>Node39&#45;&gt;Node42</title>
<g id="a_edge51_Node000039_Node000042"><a xlink:title=" ">
<path fill="none" stroke="#63b8ff" d="M379.42,-93.03C411.5,-99.91 453.76,-108.97 480.79,-114.77"/>
<polygon fill="#63b8ff" stroke="#63b8ff" points="480.18,-118.22 490.69,-116.89 481.65,-111.37 480.18,-118.22"/>
</a>
</g>
</g>
<!-- Node44 -->
<g id="Node000044" class="node">
<title>Node44</title>
<g id="a_Node000044"><a xlink:href="math__util_8c.html#a0738ff09ce2446c58933dcd43f4cdb2b" target="_top" xlink:title=" ">
<polygon fill="white" stroke="#666666" points="571,-241 446,-241 446,-222 571,-222 571,-241"/>
<text text-anchor="middle" x="508.5" y="-229" font-family="Helvetica,sans-Serif" font-size="10.00">mtxf_copy_n_element</text>
</a>
</g>
</g>
<!-- Node43&#45;&gt;Node44 -->
<g id="edge55_Node000043_Node000044" class="edge">
<title>Node43&#45;&gt;Node44</title>
<g id="a_edge55_Node000043_Node000044"><a xlink:title=" ">
<path fill="none" stroke="#63b8ff" d="M390.53,-231.5C404.85,-231.5 420.48,-231.5 435.51,-231.5"/>
<polygon fill="#63b8ff" stroke="#63b8ff" points="435.8,-235 445.8,-231.5 435.8,-228 435.8,-235"/>
</a>
</g>
</g>
</g>
</svg>

<g id="navigator" transform="translate(0 0)" fill="#404254">
  <rect fill="#f2f5e9" fill-opacity="0.5" stroke="#606060" stroke-width=".5" x="0" y="0" width="60" height="60"/>
  <use id="zoomplus" xlink:href="#zoomPlus" x="17" y="9" onmousedown="handleZoom(evt,'in')"/>
  <use id="zoomminus" xlink:href="#zoomMin" x="42" y="9" onmousedown="handleZoom(evt,'out')"/>
  <use id="reset" xlink:href="#resetDef" x="30" y="36" onmousedown="handleReset()"/>
   <use id="arrowup" xlink:href="#arrowUp" x="0" y="0" onmousedown="handlePan(0,-1)"/>
  <use id="arrowright" xlink:href="#arrowRight" x="0" y="0" onmousedown="handlePan(1,0)"/>
  <use id="arrowdown" xlink:href="#arrowDown" x="0" y="0" onmousedown="handlePan(0,1)"/>
  <use id="arrowleft" xlink:href="#arrowLeft" x="0" y="0" onmousedown="handlePan(-1,0)"/>
</g>
<svg viewBox="0 0 15 15" width="100%" height="30px" preserveAspectRatio="xMaxYMin meet">
 <g id="arrow_out" transform="scale(0.3 0.3)">
  <a xlink:href="skybox__and__splitscreen_8c_a499e9f29e241ca3ab115fda541a146ac_cgraph_org.svg" target="_base">
   <rect id="button" ry="5" rx="5" y="6" x="6" height="38" width="38"
        fill="#f2f5e9" fill-opacity="0.5" stroke="#606060" stroke-width="1.0"/>
   <path id="arrow"
     d="M 11.500037,31.436501 C 11.940474,20.09759 22.043105,11.32322 32.158766,21.979434 L 37.068811,17.246167 C 37.068811,17.246167 37.088388,32 37.088388,32 L 22.160133,31.978069 C 22.160133,31.978069 26.997745,27.140456 26.997745,27.140456 C 18.528582,18.264221 13.291696,25.230495 11.500037,31.436501 z"
     style="fill:#404040;"/>
  </a>
 </g>
</svg>

<style type='text/css'>
<![CDATA[
[data-mouse-over-selected='false'] { opacity: 0.7; }
[data-mouse-over-selected='true']  { opacity: 1.0; }
]]>
</style>
<script type="application/ecmascript"><![CDATA[
document.addEventListener('DOMContentLoaded', (event) => {
  highlightEdges();
  highlightAdjacentNodes();
});
]]></script>
</svg>
