<?xml version="1.0" encoding="UTF-8" standalone="no"?>
<!DOCTYPE svg PUBLIC "-//W3C//DTD SVG 1.1//EN"
 "http://www.w3.org/Graphics/SVG/1.1/DTD/svg11.dtd">
<!-- Generated by graphviz version 2.43.0 (0)
 -->
<!-- Title: spawn_players_gp_one_player Pages: 1 -->
<!--zoomable 329 -->

<svg id="main" version="1.1" xmlns="http://www.w3.org/2000/svg" xmlns:xlink="http://www.w3.org/1999/xlink" xml:space="preserve" onload="init(evt)">
<style type="text/css"><![CDATA[
.node, .edge {opacity: 0.7;}
.node.selected, .edge.selected {opacity: 1;}
.edge:hover path { stroke: red; }
.edge:hover polygon { stroke: red; fill: red; }
]]></style>

<defs>
  <circle id="rim" cx="0" cy="0" r="7"/>
  <circle id="rim2" cx="0" cy="0" r="3.5"/>
  <g id="zoomPlus">
    <use xlink:href="#rim" fill="#404040"><set attributeName="fill" to="#808080" begin="zoomplus.mouseover" end="zoomplus.mouseout"/></use>
    <path d="M-4,0h8M0,-4v8" fill="none" stroke="white" stroke-width="1.5" pointer-events="none"/>
  </g>
  <g id="zoomMin">
    <use xlink:href="#rim" fill="#404040"><set attributeName="fill" to="#808080" begin="zoomminus.mouseover" end="zoomminus.mouseout"/></use>
    <path d="M-4,0h8" fill="none" stroke="white" stroke-width="1.5" pointer-events="none"/>
  </g>
  <g id="arrowUp" transform="translate(30 24)">
    <use xlink:href="#rim"/>
    <path pointer-events="none" fill="none" stroke="white" stroke-width="1.5" d="M0,-3.0v7 M-2.5,-0.5L0,-3.0L2.5,-0.5"/>
  </g>
  <g id="arrowRight" transform="rotate(90) translate(36 -43)">
    <use xlink:href="#rim"/>
    <path pointer-events="none" fill="none" stroke="white" stroke-width="1.5" d="M0,-3.0v7 M-2.5,-0.5L0,-3.0L2.5,-0.5"/>
  </g>
  <g id="arrowDown" transform="rotate(180) translate(-30 -48)">
    <use xlink:href="#rim"/>
    <path pointer-events="none" fill="none" stroke="white" stroke-width="1.5" d="M0,-3.0v7 M-2.5,-0.5L0,-3.0L2.5,-0.5"/>
  </g>
  <g id="arrowLeft" transform="rotate(270) translate(-36 17)">
    <use xlink:href="#rim"/>
    <path pointer-events="none" fill="none" stroke="white" stroke-width="1.5" d="M0,-3.0v7 M-2.5,-0.5L0,-3.0L2.5,-0.5"/>
  </g>
  <g id="resetDef">
    <use xlink:href="#rim2" fill="#404040"><set attributeName="fill" to="#808080" begin="reset.mouseover" end="reset.mouseout"/></use>
  </g>
</defs>
<script type="application/ecmascript">
var viewWidth = 1051;
var viewHeight = 329;
var sectionId = 'dynsection-27';
</script>
<script type="application/ecmascript" xlink:href="svg.min.js"/>
<svg id="graph" class="graph">
<g id="viewport">
<title>spawn_players_gp_one_player</title>
<!-- Node1 -->
<g id="Node000001" class="node">
<title>Node1</title>
<g id="a_Node000001"><a xlink:title=" ">
<polygon fill="#999999" stroke="#666666" points="130,-270.5 0,-270.5 0,-240.5 130,-240.5 130,-270.5"/>
<text text-anchor="start" x="8" y="-258.5" font-family="Helvetica,sans-Serif" font-size="10.00">spawn_players_gp_one</text>
<text text-anchor="middle" x="65" y="-247.5" font-family="Helvetica,sans-Serif" font-size="10.00">_player</text>
</a>
</g>
</g>
<!-- Node2 -->
<g id="Node000002" class="node">
<title>Node2</title>
<g id="a_Node000002"><a xlink:href="spawn__players_8c.html#a1ef01690d08edebb46104bed8651c847" target="_top" xlink:title=" ">
<polygon fill="white" stroke="#666666" points="258.5,-321 166.5,-321 166.5,-302 258.5,-302 258.5,-321"/>
<text text-anchor="middle" x="212.5" y="-309" font-family="Helvetica,sans-Serif" font-size="10.00">func_80039AE4</text>
</a>
</g>
</g>
<!-- Node1&#45;&gt;Node2 -->
<g id="edge1_Node000001_Node000002" class="edge">
<title>Node1&#45;&gt;Node2</title>
<g id="a_edge1_Node000001_Node000002"><a xlink:title=" ">
<path fill="none" stroke="#63b8ff" d="M104.99,-270.51C127.47,-279.16 155.49,-289.94 177.14,-298.27"/>
<polygon fill="#63b8ff" stroke="#63b8ff" points="176.01,-301.59 186.6,-301.92 178.52,-295.06 176.01,-301.59"/>
</a>
</g>
</g>
<!-- Node3 -->
<g id="Node000003" class="node">
<title>Node3</title>
<g id="a_Node000003"><a xlink:href="spawn__players_8c.html#aaf1f89a8f58a74d28fb1481e50c2f790" target="_top" xlink:title=" ">
<polygon fill="white" stroke="#666666" points="259,-284 166,-284 166,-265 259,-265 259,-284"/>
<text text-anchor="middle" x="212.5" y="-272" font-family="Helvetica,sans-Serif" font-size="10.00">func_80039DA4</text>
</a>
</g>
</g>
<!-- Node1&#45;&gt;Node3 -->
<g id="edge2_Node000001_Node000003" class="edge">
<title>Node1&#45;&gt;Node3</title>
<g id="a_edge2_Node000001_Node000003"><a xlink:title=" ">
<path fill="none" stroke="#63b8ff" d="M130.24,-263.89C138.79,-265.01 147.5,-266.14 155.89,-267.24"/>
<polygon fill="#63b8ff" stroke="#63b8ff" points="155.56,-270.72 165.93,-268.55 156.47,-263.78 155.56,-270.72"/>
</a>
</g>
</g>
<!-- Node4 -->
<g id="Node000004" class="node">
<title>Node4</title>
<g id="a_Node000004"><a xlink:href="math__util_8c.html#a151b63b8adf9af7e4054b3b84bd226dc" target="_top" xlink:title=" ">
<polygon fill="white" stroke="#666666" points="248.5,-247 176.5,-247 176.5,-228 248.5,-228 248.5,-247"/>
<text text-anchor="middle" x="212.5" y="-235" font-family="Helvetica,sans-Serif" font-size="10.00">random_int</text>
</a>
</g>
</g>
<!-- Node1&#45;&gt;Node4 -->
<g id="edge3_Node000001_Node000004" class="edge">
<title>Node1&#45;&gt;Node4</title>
<g id="a_edge3_Node000001_Node000004"><a xlink:title=" ">
<path fill="none" stroke="#63b8ff" d="M130.24,-247.55C142.37,-246.05 154.81,-244.51 166.2,-243.1"/>
<polygon fill="#63b8ff" stroke="#63b8ff" points="166.83,-246.55 176.32,-241.85 165.97,-239.61 166.83,-246.55"/>
</a>
</g>
</g>
<!-- Node6 -->
<g id="Node000006" class="node">
<title>Node6</title>
<g id="a_Node000006"><a xlink:href="spawn__players_8c.html#a43c7f2d844178603dc415f549283e97c" target="_top" xlink:title=" ">
<polygon fill="white" stroke="#666666" points="254.5,-173 170.5,-173 170.5,-154 254.5,-154 254.5,-173"/>
<text text-anchor="middle" x="212.5" y="-161" font-family="Helvetica,sans-Serif" font-size="10.00">spawn_player</text>
</a>
</g>
</g>
<!-- Node1&#45;&gt;Node6 -->
<g id="edge5_Node000001_Node000006" class="edge">
<title>Node1&#45;&gt;Node6</title>
<g id="a_edge5_Node000001_Node000006"><a xlink:title=" ">
<path fill="none" stroke="#63b8ff" d="M90.03,-240.31C117.03,-223.23 160.61,-195.68 187.57,-178.63"/>
<polygon fill="#63b8ff" stroke="#63b8ff" points="189.78,-181.37 196.36,-173.07 186.04,-175.46 189.78,-181.37"/>
</a>
</g>
</g>
<!-- Node5 -->
<g id="Node000005" class="node">
<title>Node5</title>
<g id="a_Node000005"><a xlink:href="math__util_8c.html#a062850863585005ad1d0a75d9ff70693" target="_top" xlink:title=" ">
<polygon fill="white" stroke="#666666" points="406.5,-284 329.5,-284 329.5,-265 406.5,-265 406.5,-284"/>
<text text-anchor="middle" x="368" y="-272" font-family="Helvetica,sans-Serif" font-size="10.00">random_u16</text>
</a>
</g>
</g>
<!-- Node4&#45;&gt;Node5 -->
<g id="edge4_Node000004_Node000005" class="edge">
<title>Node4&#45;&gt;Node5</title>
<g id="a_edge4_Node000004_Node000005"><a xlink:title=" ">
<path fill="none" stroke="#63b8ff" d="M248.72,-245.99C269.69,-251.04 296.58,-257.53 319.42,-263.03"/>
<polygon fill="#63b8ff" stroke="#63b8ff" points="318.72,-266.46 329.27,-265.4 320.36,-259.66 318.72,-266.46"/>
</a>
</g>
</g>
<!-- Node7 -->
<g id="Node000007" class="node">
<title>Node7</title>
<g id="a_Node000007"><a xlink:href="math__util_8c.html#a67016c9eb2c90b260d004139f88a066d" target="_top" xlink:title=" ">
<polygon fill="white" stroke="#666666" points="605.5,-140.5 486.5,-140.5 486.5,-110.5 605.5,-110.5 605.5,-140.5"/>
<text text-anchor="start" x="494.5" y="-128.5" font-family="Helvetica,sans-Serif" font-size="10.00">calculate_orientation</text>
<text text-anchor="middle" x="546" y="-117.5" font-family="Helvetica,sans-Serif" font-size="10.00">_matrix</text>
</a>
</g>
</g>
<!-- Node6&#45;&gt;Node7 -->
<g id="edge6_Node000006_Node000007" class="edge">
<title>Node6&#45;&gt;Node7</title>
<g id="a_edge6_Node000006_Node000007"><a xlink:title=" ">
<path fill="none" stroke="#63b8ff" d="M248.97,-153.98C263.19,-150.5 279.78,-146.84 295,-144.5 355.88,-135.15 425.84,-130.33 476.24,-127.89"/>
<polygon fill="#63b8ff" stroke="#63b8ff" points="476.54,-131.38 486.37,-127.42 476.22,-124.39 476.54,-131.38"/>
</a>
</g>
</g>
<!-- Node16 -->
<g id="Node000016" class="node">
<title>Node16</title>
<g id="a_Node000016"><a xlink:href="code__80057C60_8c.html#ab6fd60c5cc852960210c924ba7aa47f6" target="_top" xlink:title=" ">
<polygon fill="white" stroke="#666666" points="438,-60 298,-60 298,-41 438,-41 438,-60"/>
<text text-anchor="middle" x="368" y="-48" font-family="Helvetica,sans-Serif" font-size="10.00">clear_all_player_balloons</text>
</a>
</g>
</g>
<!-- Node6&#45;&gt;Node16 -->
<g id="edge18_Node000006_Node000016" class="edge">
<title>Node6&#45;&gt;Node16</title>
<g id="a_edge18_Node000006_Node000016"><a xlink:title=" ">
<path fill="none" stroke="#63b8ff" d="M218.86,-153.98C230.24,-134.68 258.76,-90.88 295,-68.5 297.65,-66.86 300.45,-65.37 303.34,-64.01"/>
<polygon fill="#63b8ff" stroke="#63b8ff" points="304.89,-67.16 312.81,-60.13 302.23,-60.69 304.89,-67.16"/>
</a>
</g>
</g>
<!-- Node17 -->
<g id="Node000017" class="node">
<title>Node17</title>
<g id="a_Node000017"><a xlink:href="render__courses_8c.html#a37ee937c815f25140e16f2ae6c528a73" target="_top" xlink:title=" ">
<polygon fill="white" stroke="#666666" points="414,-247 322,-247 322,-228 414,-228 414,-247"/>
<text text-anchor="middle" x="368" y="-235" font-family="Helvetica,sans-Serif" font-size="10.00">func_80295BF8</text>
</a>
</g>
</g>
<!-- Node6&#45;&gt;Node17 -->
<g id="edge19_Node000006_Node000017" class="edge">
<title>Node6&#45;&gt;Node17</title>
<g id="a_edge19_Node000006_Node000017"><a xlink:title=" ">
<path fill="none" stroke="#63b8ff" d="M224.59,-173.06C239.58,-185.52 267.61,-207.15 295,-219.5 300.42,-221.94 306.22,-224.09 312.09,-225.97"/>
<polygon fill="#63b8ff" stroke="#63b8ff" points="311.41,-229.41 321.99,-228.88 313.38,-222.7 311.41,-229.41"/>
</a>
</g>
</g>
<!-- Node20 -->
<g id="Node000020" class="node">
<title>Node20</title>
<g id="a_Node000020"><a xlink:href="collision_8c.html#af40212f95fb9273a88b4d4d54f96b2aa" target="_top" xlink:title="Returns the height of the surface below the provided position. Used to set actors onto the course mes...">
<polygon fill="white" stroke="#666666" points="423,-210 313,-210 313,-191 423,-191 423,-210"/>
<text text-anchor="middle" x="368" y="-198" font-family="Helvetica,sans-Serif" font-size="10.00">get_surface_height</text>
</a>
</g>
</g>
<!-- Node6&#45;&gt;Node20 -->
<g id="edge22_Node000006_Node000020" class="edge">
<title>Node6&#45;&gt;Node20</title>
<g id="a_edge22_Node000006_Node000020"><a xlink:title=" ">
<path fill="none" stroke="#63b8ff" d="M253.03,-173.03C272.65,-177.76 296.55,-183.52 317.39,-188.54"/>
<polygon fill="#63b8ff" stroke="#63b8ff" points="316.8,-192 327.34,-190.94 318.44,-185.19 316.8,-192"/>
</a>
</g>
</g>
<!-- Node23 -->
<g id="Node000023" class="node">
<title>Node23</title>
<g id="a_Node000023"><a xlink:href="code__80057C60_8c.html#a773d5828c568b599837ee0c6695a68e9" target="_top" xlink:title=" ">
<polygon fill="white" stroke="#666666" points="434,-97 302,-97 302,-78 434,-78 434,-97"/>
<text text-anchor="middle" x="368" y="-85" font-family="Helvetica,sans-Serif" font-size="10.00">init_all_player_balloons</text>
</a>
</g>
</g>
<!-- Node6&#45;&gt;Node23 -->
<g id="edge25_Node000006_Node000023" class="edge">
<title>Node6&#45;&gt;Node23</title>
<g id="a_edge25_Node000006_Node000023"><a xlink:title=" ">
<path fill="none" stroke="#63b8ff" d="M226.19,-153.99C241.76,-142.68 269.24,-123.78 295,-111.5 303.83,-107.29 313.59,-103.51 323,-100.25"/>
<polygon fill="#63b8ff" stroke="#63b8ff" points="324.24,-103.53 332.63,-97.06 322.03,-96.89 324.24,-103.53"/>
</a>
</g>
</g>
<!-- Node26 -->
<g id="Node000026" class="node">
<title>Node26</title>
<g id="a_Node000026"><a xlink:href="code__80057C60_8c.html#a94d34593138565c85a016c12cd68639d" target="_top" xlink:title=" ">
<polygon fill="white" stroke="#666666" points="441,-173 295,-173 295,-154 441,-154 441,-173"/>
<text text-anchor="middle" x="368" y="-161" font-family="Helvetica,sans-Serif" font-size="10.00">reset_player_particle_pool</text>
</a>
</g>
</g>
<!-- Node6&#45;&gt;Node26 -->
<g id="edge30_Node000006_Node000026" class="edge">
<title>Node6&#45;&gt;Node26</title>
<g id="a_edge30_Node000006_Node000026"><a xlink:title=" ">
<path fill="none" stroke="#63b8ff" d="M254.64,-163.5C264.06,-163.5 274.4,-163.5 284.87,-163.5"/>
<polygon fill="#63b8ff" stroke="#63b8ff" points="284.93,-167 294.93,-163.5 284.93,-160 284.93,-167"/>
</a>
</g>
</g>
<!-- Node8 -->
<g id="Node000008" class="node">
<title>Node8</title>
<g id="a_Node000008"><a xlink:href="math__util_8c.html#a3772de40170e9eb6686d8caeac7e7527" target="_top" xlink:title=" ">
<polygon fill="white" stroke="#666666" points="727.5,-219 678.5,-219 678.5,-200 727.5,-200 727.5,-219"/>
<text text-anchor="middle" x="703" y="-207" font-family="Helvetica,sans-Serif" font-size="10.00">acos1f</text>
</a>
</g>
</g>
<!-- Node7&#45;&gt;Node8 -->
<g id="edge7_Node000007_Node000008" class="edge">
<title>Node7&#45;&gt;Node8</title>
<g id="a_edge7_Node000007_Node000008"><a xlink:title=" ">
<path fill="none" stroke="#63b8ff" d="M597.94,-140.63C603.88,-143.21 609.7,-146.16 615,-149.5 634.14,-161.56 632.49,-172.49 651,-185.5 656.65,-189.47 663.06,-193.07 669.38,-196.21"/>
<polygon fill="#63b8ff" stroke="#63b8ff" points="667.93,-199.4 678.47,-200.47 670.9,-193.06 667.93,-199.4"/>
</a>
</g>
</g>
<!-- Node12 -->
<g id="Node000012" class="node">
<title>Node12</title>
<g id="a_Node000012"><a xlink:href="math_8h.html#a37bde043e94a6f074c78f10518fb5d99" target="_top" xlink:title=" ">
<polygon fill="white" stroke="#666666" points="834.5,-181 795.5,-181 795.5,-162 834.5,-162 834.5,-181"/>
<text text-anchor="middle" x="815" y="-169" font-family="Helvetica,sans-Serif" font-size="10.00">sqrtf</text>
</a>
</g>
</g>
<!-- Node7&#45;&gt;Node12 -->
<g id="edge17_Node000007_Node000012" class="edge">
<title>Node7&#45;&gt;Node12</title>
<g id="a_edge17_Node000007_Node000012"><a xlink:title=" ">
<path fill="none" stroke="#63b8ff" d="M605.59,-135.59C661.21,-145.18 742.47,-159.18 785.23,-166.54"/>
<polygon fill="#63b8ff" stroke="#63b8ff" points="784.79,-170.02 795.24,-168.27 785.98,-163.12 784.79,-170.02"/>
</a>
</g>
</g>
<!-- Node13 -->
<g id="Node000013" class="node">
<title>Node13</title>
<g id="a_Node000013"><a xlink:href="math__util_8c.html#a3e49fe37caf02123457a48702ab3f9a4" target="_top" xlink:title=" ">
<polygon fill="white" stroke="#666666" points="755,-105.5 651,-105.5 651,-75.5 755,-75.5 755,-105.5"/>
<text text-anchor="start" x="659" y="-93.5" font-family="Helvetica,sans-Serif" font-size="10.00">calculate_rotation</text>
<text text-anchor="middle" x="703" y="-82.5" font-family="Helvetica,sans-Serif" font-size="10.00">_matrix</text>
</a>
</g>
</g>
<!-- Node7&#45;&gt;Node13 -->
<g id="edge12_Node000007_Node000013" class="edge">
<title>Node7&#45;&gt;Node13</title>
<g id="a_edge12_Node000007_Node000013"><a xlink:title=" ">
<path fill="none" stroke="#63b8ff" d="M605.6,-112.27C617.14,-109.66 629.27,-106.92 640.89,-104.3"/>
<polygon fill="#63b8ff" stroke="#63b8ff" points="641.95,-107.65 650.94,-102.03 640.41,-100.82 641.95,-107.65"/>
</a>
</g>
</g>
<!-- Node14 -->
<g id="Node000014" class="node">
<title>Node14</title>
<g id="a_Node000014"><a xlink:href="math__util_8c.html#a5eb0d9752bc1557b7f4ae3809352a0eb" target="_top" xlink:title=" ">
<polygon fill="white" stroke="#666666" points="834,-100 796,-100 796,-81 834,-81 834,-100"/>
<text text-anchor="middle" x="815" y="-88" font-family="Helvetica,sans-Serif" font-size="10.00">coss</text>
</a>
</g>
</g>
<!-- Node7&#45;&gt;Node14 -->
<g id="edge15_Node000007_Node000014" class="edge">
<title>Node7&#45;&gt;Node14</title>
<g id="a_edge15_Node000007_Node000014"><a xlink:title=" ">
<path fill="none" stroke="#63b8ff" d="M605.53,-127.56C647.6,-127.8 705.41,-125.57 755,-114.5 765.68,-112.12 776.93,-107.99 786.7,-103.82"/>
<polygon fill="#63b8ff" stroke="#63b8ff" points="788.21,-106.98 795.91,-99.7 785.35,-100.59 788.21,-106.98"/>
</a>
</g>
</g>
<!-- Node15 -->
<g id="Node000015" class="node">
<title>Node15</title>
<g id="a_Node000015"><a xlink:href="math__util_8c.html#adcf81d47666b5d86c4a1dbcb06e47faf" target="_top" xlink:title=" ">
<polygon fill="white" stroke="#666666" points="833,-57 797,-57 797,-38 833,-38 833,-57"/>
<text text-anchor="middle" x="815" y="-45" font-family="Helvetica,sans-Serif" font-size="10.00">sins</text>
</a>
</g>
</g>
<!-- Node7&#45;&gt;Node15 -->
<g id="edge16_Node000007_Node000015" class="edge">
<title>Node7&#45;&gt;Node15</title>
<g id="a_edge16_Node000007_Node000015"><a xlink:title=" ">
<path fill="none" stroke="#63b8ff" d="M567.73,-110.4C587.93,-96.53 620.02,-76.63 651,-66.5 696.98,-51.46 753.68,-48.02 786.65,-47.4"/>
<polygon fill="#63b8ff" stroke="#63b8ff" points="786.91,-50.9 796.87,-47.28 786.83,-43.9 786.91,-50.9"/>
</a>
</g>
</g>
<!-- Node9 -->
<g id="Node000009" class="node">
<title>Node9</title>
<g id="a_Node000009"><a xlink:href="math__util_8c.html#a5b1195dcb249844e75da3be34cacd9bf" target="_top" xlink:title=" ">
<polygon fill="white" stroke="#666666" points="839,-219 791,-219 791,-200 839,-200 839,-219"/>
<text text-anchor="middle" x="815" y="-207" font-family="Helvetica,sans-Serif" font-size="10.00">atan2f</text>
</a>
</g>
</g>
<!-- Node8&#45;&gt;Node9 -->
<g id="edge8_Node000008_Node000009" class="edge">
<title>Node8&#45;&gt;Node9</title>
<g id="a_edge8_Node000008_Node000009"><a xlink:title=" ">
<path fill="none" stroke="#63b8ff" d="M727.6,-209.5C743.07,-209.5 763.53,-209.5 780.66,-209.5"/>
<polygon fill="#63b8ff" stroke="#63b8ff" points="780.82,-213 790.82,-209.5 780.82,-206 780.82,-213"/>
</a>
</g>
</g>
<!-- Node8&#45;&gt;Node12 -->
<g id="edge11_Node000008_Node000012" class="edge">
<title>Node8&#45;&gt;Node12</title>
<g id="a_edge11_Node000008_Node000012"><a xlink:title=" ">
<path fill="none" stroke="#63b8ff" d="M727.6,-201.35C744.56,-195.49 767.52,-187.56 785.51,-181.34"/>
<polygon fill="#63b8ff" stroke="#63b8ff" points="786.88,-184.57 795.18,-178 784.59,-177.96 786.88,-184.57"/>
</a>
</g>
</g>
<!-- Node10 -->
<g id="Node000010" class="node">
<title>Node10</title>
<g id="a_Node000010"><a xlink:href="math__util_8c.html#a39b33617a06622150fcb2b20569aa969" target="_top" xlink:title=" ">
<polygon fill="white" stroke="#666666" points="925,-219 875,-219 875,-200 925,-200 925,-219"/>
<text text-anchor="middle" x="900" y="-207" font-family="Helvetica,sans-Serif" font-size="10.00">atan2s</text>
</a>
</g>
</g>
<!-- Node9&#45;&gt;Node10 -->
<g id="edge9_Node000009_Node000010" class="edge">
<title>Node9&#45;&gt;Node10</title>
<g id="a_edge9_Node000009_Node000010"><a xlink:title=" ">
<path fill="none" stroke="#63b8ff" d="M839.12,-209.5C847.03,-209.5 856.06,-209.5 864.66,-209.5"/>
<polygon fill="#63b8ff" stroke="#63b8ff" points="864.85,-213 874.85,-209.5 864.85,-206 864.85,-213"/>
</a>
</g>
</g>
<!-- Node11 -->
<g id="Node000011" class="node">
<title>Node11</title>
<g id="a_Node000011"><a xlink:href="math__util_8c.html#a0273b0ea0783a06996c28669a7438ed9" target="_top" xlink:title=" ">
<polygon fill="white" stroke="#666666" points="1043,-219 961,-219 961,-200 1043,-200 1043,-219"/>
<text text-anchor="middle" x="1002" y="-207" font-family="Helvetica,sans-Serif" font-size="10.00">atan2_lookup</text>
</a>
</g>
</g>
<!-- Node10&#45;&gt;Node11 -->
<g id="edge10_Node000010_Node000011" class="edge">
<title>Node10&#45;&gt;Node11</title>
<g id="a_edge10_Node000010_Node000011"><a xlink:title=" ">
<path fill="none" stroke="#63b8ff" d="M925.21,-209.5C932.85,-209.5 941.6,-209.5 950.38,-209.5"/>
<polygon fill="#63b8ff" stroke="#63b8ff" points="950.63,-213 960.63,-209.5 950.63,-206 950.63,-213"/>
</a>
</g>
</g>
<!-- Node13&#45;&gt;Node14 -->
<g id="edge13_Node000013_Node000014" class="edge">
<title>Node13&#45;&gt;Node14</title>
<g id="a_edge13_Node000013_Node000014"><a xlink:title=" ">
<path fill="none" stroke="#63b8ff" d="M755.14,-90.5C765.62,-90.5 776.29,-90.5 785.62,-90.5"/>
<polygon fill="#63b8ff" stroke="#63b8ff" points="785.86,-94 795.86,-90.5 785.86,-87 785.86,-94"/>
</a>
</g>
</g>
<!-- Node13&#45;&gt;Node15 -->
<g id="edge14_Node000013_Node000015" class="edge">
<title>Node13&#45;&gt;Node15</title>
<g id="a_edge14_Node000013_Node000015"><a xlink:title=" ">
<path fill="none" stroke="#63b8ff" d="M742.47,-75.46C757.28,-69.67 773.86,-63.19 787.32,-57.93"/>
<polygon fill="#63b8ff" stroke="#63b8ff" points="788.89,-61.08 796.93,-54.17 786.34,-54.56 788.89,-61.08"/>
</a>
</g>
</g>
<!-- Node18 -->
<g id="Node000018" class="node">
<title>Node18</title>
<g id="a_Node000018"><a xlink:href="collision_8c.html#ad72fef3ffe32191d73b1822f512ebf3f" target="_top" xlink:title=" ">
<polygon fill="white" stroke="#666666" points="593.5,-263 498.5,-263 498.5,-244 593.5,-244 593.5,-263"/>
<text text-anchor="middle" x="546" y="-251" font-family="Helvetica,sans-Serif" font-size="10.00">func_802AAAAC</text>
</a>
</g>
</g>
<!-- Node17&#45;&gt;Node18 -->
<g id="edge20_Node000017_Node000018" class="edge">
<title>Node17&#45;&gt;Node18</title>
<g id="a_edge20_Node000017_Node000018"><a xlink:title=" ">
<path fill="none" stroke="#63b8ff" d="M414.32,-241.62C436.87,-243.67 464.35,-246.17 488.28,-248.34"/>
<polygon fill="#63b8ff" stroke="#63b8ff" points="488.02,-251.83 498.3,-249.25 488.65,-244.86 488.02,-251.83"/>
</a>
</g>
</g>
<!-- Node19 -->
<g id="Node000019" class="node">
<title>Node19</title>
<g id="a_Node000019"><a xlink:href="math__util_8c.html#a90e0b3fecb9c2169e5a33f14ed5e33df" target="_top" xlink:title=" ">
<polygon fill="white" stroke="#666666" points="735,-263 671,-263 671,-244 735,-244 735,-263"/>
<text text-anchor="middle" x="703" y="-251" font-family="Helvetica,sans-Serif" font-size="10.00">vec3f_set</text>
</a>
</g>
</g>
<!-- Node18&#45;&gt;Node19 -->
<g id="edge21_Node000018_Node000019" class="edge">
<title>Node18&#45;&gt;Node19</title>
<g id="a_edge21_Node000018_Node000019"><a xlink:title=" ">
<path fill="none" stroke="#63b8ff" d="M593.51,-253.5C614.86,-253.5 639.98,-253.5 660.67,-253.5"/>
<polygon fill="#63b8ff" stroke="#63b8ff" points="660.74,-257 670.74,-253.5 660.74,-250 660.74,-257"/>
</a>
</g>
</g>
<!-- Node21 -->
<g id="Node000021" class="node">
<title>Node21</title>
<g id="a_Node000021"><a xlink:href="collision_8c.html#a6527a2135a10909cdf9a1fd731be5628" target="_top" xlink:title=" ">
<polygon fill="white" stroke="#666666" points="615,-226 477,-226 477,-207 615,-207 615,-226"/>
<text text-anchor="middle" x="546" y="-214" font-family="Helvetica,sans-Serif" font-size="10.00">calculate_surface_height</text>
</a>
</g>
</g>
<!-- Node20&#45;&gt;Node21 -->
<g id="edge23_Node000020_Node000021" class="edge">
<title>Node20&#45;&gt;Node21</title>
<g id="a_edge23_Node000020_Node000021"><a xlink:title=" ">
<path fill="none" stroke="#63b8ff" d="M423.24,-205.43C437.03,-206.68 452.12,-208.06 466.84,-209.39"/>
<polygon fill="#63b8ff" stroke="#63b8ff" points="466.67,-212.89 476.95,-210.31 467.3,-205.92 466.67,-212.89"/>
</a>
</g>
</g>
<!-- Node22 -->
<g id="Node000022" class="node">
<title>Node22</title>
<g id="a_Node000022"><a xlink:href="collision_8c.html#a0fe340ccfe1d926a592ea9a0c84d7574" target="_top" xlink:title=" ">
<polygon fill="white" stroke="#666666" points="612,-188.5 480,-188.5 480,-158.5 612,-158.5 612,-188.5"/>
<text text-anchor="start" x="488" y="-176.5" font-family="Helvetica,sans-Serif" font-size="10.00">check_horizontally</text>
<text text-anchor="middle" x="546" y="-165.5" font-family="Helvetica,sans-Serif" font-size="10.00">_colliding_with_triangle</text>
</a>
</g>
</g>
<!-- Node20&#45;&gt;Node22 -->
<g id="edge24_Node000020_Node000022" class="edge">
<title>Node20&#45;&gt;Node22</title>
<g id="a_edge24_Node000020_Node000022"><a xlink:title=" ">
<path fill="none" stroke="#63b8ff" d="M423.24,-192.18C437.91,-189.93 454.05,-187.45 469.64,-185.06"/>
<polygon fill="#63b8ff" stroke="#63b8ff" points="470.44,-188.48 479.8,-183.5 469.38,-181.56 470.44,-188.48"/>
</a>
</g>
</g>
<!-- Node24 -->
<g id="Node000024" class="node">
<title>Node24</title>
<g id="a_Node000024"><a xlink:href="code__80057C60_8c.html#a2bc2498ceb7b7fa49498060fe0eb34f0" target="_top" xlink:title=" ">
<polygon fill="white" stroke="#666666" points="583,-56 509,-56 509,-37 583,-37 583,-56"/>
<text text-anchor="middle" x="546" y="-44" font-family="Helvetica,sans-Serif" font-size="10.00">init_balloon</text>
</a>
</g>
</g>
<!-- Node23&#45;&gt;Node24 -->
<g id="edge26_Node000023_Node000024" class="edge">
<title>Node23&#45;&gt;Node24</title>
<g id="a_edge26_Node000023_Node000024"><a xlink:title=" ">
<path fill="none" stroke="#63b8ff" d="M409.82,-77.99C436.5,-71.78 471.39,-63.65 499.05,-57.2"/>
<polygon fill="#63b8ff" stroke="#63b8ff" points="499.93,-60.59 508.88,-54.91 498.35,-53.77 499.93,-60.59"/>
</a>
</g>
</g>
<!-- Node25 -->
<g id="Node000025" class="node">
<title>Node25</title>
<g id="a_Node000025"><a xlink:href="code__80057C60_8c.html#a156481baa44e5305c016e2902a91bbb1" target="_top" xlink:title=" ">
<polygon fill="white" stroke="#666666" points="749,-19 657,-19 657,0 749,0 749,-19"/>
<text text-anchor="middle" x="703" y="-7" font-family="Helvetica,sans-Serif" font-size="10.00">func_80062B18</text>
</a>
</g>
</g>
<!-- Node24&#45;&gt;Node25 -->
<g id="edge27_Node000024_Node000025" class="edge">
<title>Node24&#45;&gt;Node25</title>
<g id="a_edge27_Node000024_Node000025"><a xlink:title=" ">
<path fill="none" stroke="#63b8ff" d="M583.34,-37.83C603.83,-32.94 629.72,-26.75 652.08,-21.42"/>
<polygon fill="#63b8ff" stroke="#63b8ff" points="653.16,-24.76 662.08,-19.03 651.54,-17.95 653.16,-24.76"/>
</a>
</g>
</g>
<!-- Node25&#45;&gt;Node14 -->
<g id="edge28_Node000025_Node000014" class="edge">
<title>Node25&#45;&gt;Node14</title>
<g id="a_edge28_Node000025_Node000014"><a xlink:title=" ">
<path fill="none" stroke="#63b8ff" d="M717.05,-19.11C735.74,-32.87 770.34,-58.35 792.75,-74.85"/>
<polygon fill="#63b8ff" stroke="#63b8ff" points="790.84,-77.79 800.97,-80.9 794.99,-72.15 790.84,-77.79"/>
</a>
</g>
</g>
<!-- Node25&#45;&gt;Node15 -->
<g id="edge29_Node000025_Node000015" class="edge">
<title>Node25&#45;&gt;Node15</title>
<g id="a_edge29_Node000025_Node000015"><a xlink:title=" ">
<path fill="none" stroke="#63b8ff" d="M731.76,-19.09C748.73,-24.95 770.33,-32.41 787.14,-38.22"/>
<polygon fill="#63b8ff" stroke="#63b8ff" points="786.3,-41.63 796.9,-41.59 788.59,-35.02 786.3,-41.63"/>
</a>
</g>
</g>
</g>
</svg>

<g id="navigator" transform="translate(0 0)" fill="#404254">
  <rect fill="#f2f5e9" fill-opacity="0.5" stroke="#606060" stroke-width=".5" x="0" y="0" width="60" height="60"/>
  <use id="zoomplus" xlink:href="#zoomPlus" x="17" y="9" onmousedown="handleZoom(evt,'in')"/>
  <use id="zoomminus" xlink:href="#zoomMin" x="42" y="9" onmousedown="handleZoom(evt,'out')"/>
  <use id="reset" xlink:href="#resetDef" x="30" y="36" onmousedown="handleReset()"/>
   <use id="arrowup" xlink:href="#arrowUp" x="0" y="0" onmousedown="handlePan(0,-1)"/>
  <use id="arrowright" xlink:href="#arrowRight" x="0" y="0" onmousedown="handlePan(1,0)"/>
  <use id="arrowdown" xlink:href="#arrowDown" x="0" y="0" onmousedown="handlePan(0,1)"/>
  <use id="arrowleft" xlink:href="#arrowLeft" x="0" y="0" onmousedown="handlePan(-1,0)"/>
</g>
<svg viewBox="0 0 15 15" width="100%" height="30px" preserveAspectRatio="xMaxYMin meet">
 <g id="arrow_out" transform="scale(0.3 0.3)">
  <a xlink:href="spawn__players_8c_ad0d37d84b238902e497e9cf466c0530e_cgraph_org.svg" target="_base">
   <rect id="button" ry="5" rx="5" y="6" x="6" height="38" width="38"
        fill="#f2f5e9" fill-opacity="0.5" stroke="#606060" stroke-width="1.0"/>
   <path id="arrow"
     d="M 11.500037,31.436501 C 11.940474,20.09759 22.043105,11.32322 32.158766,21.979434 L 37.068811,17.246167 C 37.068811,17.246167 37.088388,32 37.088388,32 L 22.160133,31.978069 C 22.160133,31.978069 26.997745,27.140456 26.997745,27.140456 C 18.528582,18.264221 13.291696,25.230495 11.500037,31.436501 z"
     style="fill:#404040;"/>
  </a>
 </g>
</svg>

<style type='text/css'>
<![CDATA[
[data-mouse-over-selected='false'] { opacity: 0.7; }
[data-mouse-over-selected='true']  { opacity: 1.0; }
]]>
</style>
<script type="application/ecmascript"><![CDATA[
document.addEventListener('DOMContentLoaded', (event) => {
  highlightEdges();
  highlightAdjacentNodes();
});
]]></script>
</svg>
