<?xml version="1.0" encoding="UTF-8" standalone="no"?>
<!DOCTYPE svg PUBLIC "-//W3C//DTD SVG 1.1//EN"
 "http://www.w3.org/Graphics/SVG/1.1/DTD/svg11.dtd">
<!-- Generated by graphviz version 2.43.0 (0)
 -->
<!-- Title: src/spawn_players.h Pages: 1 -->
<svg width="1837pt" height="196pt"
 viewBox="0.00 0.00 1837.00 196.00" xmlns="http://www.w3.org/2000/svg" xmlns:xlink="http://www.w3.org/1999/xlink">
<g id="graph0" class="graph" transform="scale(1 1) rotate(0) translate(4 192)">
<title>src/spawn_players.h</title>
<polygon fill="white" stroke="transparent" points="-4,4 -4,-192 1833,-192 1833,4 -4,4"/>
<!-- Node1 -->
<g id="node1" class="node">
<title>Node1</title>
<g id="a_node1"><a xlink:title=" ">
<polygon fill="#bfbfbf" stroke="black" points="859.5,-168.5 859.5,-187.5 975.5,-187.5 975.5,-168.5 859.5,-168.5"/>
<text text-anchor="middle" x="917.5" y="-175.5" font-family="Helvetica,sans-Serif" font-size="10.00">src/spawn_players.h</text>
</a>
</g>
</g>
<!-- Node2 -->
<g id="node2" class="node">
<title>Node2</title>
<g id="a_node2"><a xlink:href="camera_8c.html" target="_top" xlink:title=" ">
<polygon fill="white" stroke="black" points="0,-112.5 0,-131.5 79,-131.5 79,-112.5 0,-112.5"/>
<text text-anchor="middle" x="39.5" y="-119.5" font-family="Helvetica,sans-Serif" font-size="10.00">src/camera.c</text>
</a>
</g>
</g>
<!-- Node1&#45;&gt;Node2 -->
<g id="edge1" class="edge">
<title>Node1&#45;&gt;Node2</title>
<path fill="none" stroke="midnightblue" d="M849.2,-176.23C707.11,-173.99 369.52,-165.3 88.5,-132 85.41,-131.63 82.22,-131.19 79.01,-130.7"/>
<polygon fill="midnightblue" stroke="midnightblue" points="849.44,-179.74 859.49,-176.39 849.55,-172.74 849.44,-179.74"/>
</g>
<!-- Node3 -->
<g id="node3" class="node">
<title>Node3</title>
<g id="a_node3"><a xlink:href="code__800029B0_8c.html" target="_top" xlink:title=" ">
<polygon fill="white" stroke="black" points="97,-112.5 97,-131.5 216,-131.5 216,-112.5 97,-112.5"/>
<text text-anchor="middle" x="156.5" y="-119.5" font-family="Helvetica,sans-Serif" font-size="10.00">src/code_800029B0.c</text>
</a>
</g>
</g>
<!-- Node1&#45;&gt;Node3 -->
<g id="edge2" class="edge">
<title>Node1&#45;&gt;Node3</title>
<path fill="none" stroke="midnightblue" d="M848.93,-174.02C724.51,-168.27 453.35,-154.24 225.5,-132 222.49,-131.71 219.42,-131.38 216.31,-131.04"/>
<polygon fill="midnightblue" stroke="midnightblue" points="848.92,-177.52 859.07,-174.48 849.24,-170.53 848.92,-177.52"/>
</g>
<!-- Node4 -->
<g id="node4" class="node">
<title>Node4</title>
<g id="a_node4"><a xlink:href="code__80005FD0_8c.html" target="_top" xlink:title=" ">
<polygon fill="white" stroke="black" points="234.5,-112.5 234.5,-131.5 354.5,-131.5 354.5,-112.5 234.5,-112.5"/>
<text text-anchor="middle" x="294.5" y="-119.5" font-family="Helvetica,sans-Serif" font-size="10.00">src/code_80005FD0.c</text>
</a>
</g>
</g>
<!-- Node1&#45;&gt;Node4 -->
<g id="edge3" class="edge">
<title>Node1&#45;&gt;Node4</title>
<path fill="none" stroke="midnightblue" d="M849.2,-172.47C744.67,-165.31 538.8,-150.29 364.5,-132 361.33,-131.67 358.08,-131.31 354.81,-130.94"/>
<polygon fill="midnightblue" stroke="midnightblue" points="849.08,-175.97 859.3,-173.16 849.56,-168.99 849.08,-175.97"/>
</g>
<!-- Node5 -->
<g id="node5" class="node">
<title>Node5</title>
<g id="a_node5"><a xlink:href="code__80057C60_8c.html" target="_top" xlink:title=" ">
<polygon fill="white" stroke="black" points="373,-112.5 373,-131.5 492,-131.5 492,-112.5 373,-112.5"/>
<text text-anchor="middle" x="432.5" y="-119.5" font-family="Helvetica,sans-Serif" font-size="10.00">src/code_80057C60.c</text>
</a>
</g>
</g>
<!-- Node1&#45;&gt;Node5 -->
<g id="edge4" class="edge">
<title>Node1&#45;&gt;Node5</title>
<path fill="none" stroke="midnightblue" d="M849.24,-170.08C766.78,-161.61 623.89,-146.6 501.5,-132 498.5,-131.64 495.43,-131.27 492.33,-130.89"/>
<polygon fill="midnightblue" stroke="midnightblue" points="848.93,-173.57 859.24,-171.1 849.65,-166.6 848.93,-173.57"/>
</g>
<!-- Node6 -->
<g id="node6" class="node">
<title>Node6</title>
<g id="a_node6"><a xlink:href="code__8008C1D0_8c.html" target="_top" xlink:title=" ">
<polygon fill="white" stroke="black" points="510,-112.5 510,-131.5 631,-131.5 631,-112.5 510,-112.5"/>
<text text-anchor="middle" x="570.5" y="-119.5" font-family="Helvetica,sans-Serif" font-size="10.00">src/code_8008C1D0.c</text>
</a>
</g>
</g>
<!-- Node1&#45;&gt;Node6 -->
<g id="edge5" class="edge">
<title>Node1&#45;&gt;Node6</title>
<path fill="none" stroke="midnightblue" d="M852.3,-166.85C786.74,-156.65 686.79,-141.1 625.23,-131.52"/>
<polygon fill="midnightblue" stroke="midnightblue" points="852.1,-170.36 862.52,-168.44 853.17,-163.45 852.1,-170.36"/>
</g>
<!-- Node7 -->
<g id="node7" class="node">
<title>Node7</title>
<g id="a_node7"><a xlink:href="code__80091750_8c.html" target="_top" xlink:title=" ">
<polygon fill="white" stroke="black" points="649,-112.5 649,-131.5 768,-131.5 768,-112.5 649,-112.5"/>
<text text-anchor="middle" x="708.5" y="-119.5" font-family="Helvetica,sans-Serif" font-size="10.00">src/code_80091750.c</text>
</a>
</g>
</g>
<!-- Node1&#45;&gt;Node7 -->
<g id="edge6" class="edge">
<title>Node1&#45;&gt;Node7</title>
<path fill="none" stroke="midnightblue" d="M874.52,-165.89C835.05,-155.7 777.4,-140.8 741.46,-131.52"/>
<polygon fill="midnightblue" stroke="midnightblue" points="873.83,-169.33 884.38,-168.44 875.58,-162.55 873.83,-169.33"/>
</g>
<!-- Node8 -->
<g id="node8" class="node">
<title>Node8</title>
<g id="a_node8"><a xlink:href="all__variables_8h.html" target="_top" xlink:title=" ">
<polygon fill="white" stroke="black" points="786.5,-112.5 786.5,-131.5 924.5,-131.5 924.5,-112.5 786.5,-112.5"/>
<text text-anchor="middle" x="855.5" y="-119.5" font-family="Helvetica,sans-Serif" font-size="10.00">src/debug/all_variables.h</text>
</a>
</g>
</g>
<!-- Node1&#45;&gt;Node8 -->
<g id="edge7" class="edge">
<title>Node1&#45;&gt;Node8</title>
<path fill="none" stroke="midnightblue" d="M899.75,-161.54C888.69,-151.91 874.87,-139.87 865.64,-131.83"/>
<polygon fill="midnightblue" stroke="midnightblue" points="897.7,-164.4 907.54,-168.32 902.3,-159.12 897.7,-164.4"/>
</g>
<!-- Node11 -->
<g id="node11" class="node">
<title>Node11</title>
<g id="a_node11"><a xlink:href="effects_8c.html" target="_top" xlink:title=" ">
<polygon fill="white" stroke="black" points="943,-112.5 943,-131.5 1018,-131.5 1018,-112.5 943,-112.5"/>
<text text-anchor="middle" x="980.5" y="-119.5" font-family="Helvetica,sans-Serif" font-size="10.00">src/effects.c</text>
</a>
</g>
</g>
<!-- Node1&#45;&gt;Node11 -->
<g id="edge10" class="edge">
<title>Node1&#45;&gt;Node11</title>
<path fill="none" stroke="midnightblue" d="M935.54,-161.54C946.77,-151.91 960.82,-139.87 970.19,-131.83"/>
<polygon fill="midnightblue" stroke="midnightblue" points="932.94,-159.16 927.62,-168.32 937.49,-164.47 932.94,-159.16"/>
</g>
<!-- Node12 -->
<g id="node12" class="node">
<title>Node12</title>
<g id="a_node12"><a xlink:href="code__80281780_8c.html" target="_top" xlink:title=" ">
<polygon fill="white" stroke="black" points="1036,-112.5 1036,-131.5 1191,-131.5 1191,-112.5 1036,-112.5"/>
<text text-anchor="middle" x="1113.5" y="-119.5" font-family="Helvetica,sans-Serif" font-size="10.00">src/ending/code_80281780.c</text>
</a>
</g>
</g>
<!-- Node1&#45;&gt;Node12 -->
<g id="edge11" class="edge">
<title>Node1&#45;&gt;Node12</title>
<path fill="none" stroke="midnightblue" d="M958.52,-165.7C995.51,-155.51 1049.1,-140.74 1082.59,-131.52"/>
<polygon fill="midnightblue" stroke="midnightblue" points="957.27,-162.41 948.56,-168.44 959.13,-169.16 957.27,-162.41"/>
</g>
<!-- Node13 -->
<g id="node13" class="node">
<title>Node13</title>
<g id="a_node13"><a xlink:href="menus_8c.html" target="_top" xlink:title=" ">
<polygon fill="white" stroke="black" points="1209,-112.5 1209,-131.5 1284,-131.5 1284,-112.5 1209,-112.5"/>
<text text-anchor="middle" x="1246.5" y="-119.5" font-family="Helvetica,sans-Serif" font-size="10.00">src/menus.c</text>
</a>
</g>
</g>
<!-- Node1&#45;&gt;Node13 -->
<g id="edge12" class="edge">
<title>Node1&#45;&gt;Node13</title>
<path fill="none" stroke="midnightblue" d="M985.09,-166.94C1042.5,-158.24 1127.02,-145.03 1200.5,-132 1203.22,-131.52 1206.04,-131 1208.86,-130.48"/>
<polygon fill="midnightblue" stroke="midnightblue" points="984.42,-163.5 975.05,-168.46 985.47,-170.43 984.42,-163.5"/>
</g>
<!-- Node14 -->
<g id="node14" class="node">
<title>Node14</title>
<g id="a_node14"><a xlink:href="player__controller_8c.html" target="_top" xlink:title=" ">
<polygon fill="white" stroke="black" points="1301.5,-112.5 1301.5,-131.5 1425.5,-131.5 1425.5,-112.5 1301.5,-112.5"/>
<text text-anchor="middle" x="1363.5" y="-119.5" font-family="Helvetica,sans-Serif" font-size="10.00">src/player_controller.c</text>
</a>
</g>
</g>
<!-- Node1&#45;&gt;Node14 -->
<g id="edge13" class="edge">
<title>Node1&#45;&gt;Node14</title>
<path fill="none" stroke="midnightblue" d="M986.12,-168.97C1061.51,-160.11 1186.17,-145.32 1293.5,-132 1296.05,-131.68 1298.66,-131.36 1301.29,-131.03"/>
<polygon fill="midnightblue" stroke="midnightblue" points="985.34,-165.54 975.81,-170.18 986.15,-172.49 985.34,-165.54"/>
</g>
<!-- Node15 -->
<g id="node15" class="node">
<title>Node15</title>
<g id="a_node15"><a xlink:href="race__logic_8c.html" target="_top" xlink:title=" ">
<polygon fill="white" stroke="black" points="1444,-112.5 1444,-131.5 1569,-131.5 1569,-112.5 1444,-112.5"/>
<text text-anchor="middle" x="1506.5" y="-119.5" font-family="Helvetica,sans-Serif" font-size="10.00">src/racing/race_logic.c</text>
</a>
</g>
</g>
<!-- Node1&#45;&gt;Node15 -->
<g id="edge14" class="edge">
<title>Node1&#45;&gt;Node15</title>
<path fill="none" stroke="midnightblue" d="M985.89,-171.87C1084.92,-164.25 1273.98,-149.01 1434.5,-132 1437.51,-131.68 1440.58,-131.34 1443.69,-130.99"/>
<polygon fill="midnightblue" stroke="midnightblue" points="985.42,-168.39 975.72,-172.65 985.96,-175.37 985.42,-168.39"/>
</g>
<!-- Node16 -->
<g id="node16" class="node">
<title>Node16</title>
<g id="a_node16"><a xlink:href="render__player_8c.html" target="_top" xlink:title=" ">
<polygon fill="white" stroke="black" points="1587,-112.5 1587,-131.5 1696,-131.5 1696,-112.5 1587,-112.5"/>
<text text-anchor="middle" x="1641.5" y="-119.5" font-family="Helvetica,sans-Serif" font-size="10.00">src/render_player.c</text>
</a>
</g>
</g>
<!-- Node1&#45;&gt;Node16 -->
<g id="edge15" class="edge">
<title>Node1&#45;&gt;Node16</title>
<path fill="none" stroke="midnightblue" d="M985.68,-174.02C1105.73,-168.41 1362.59,-154.74 1578.5,-132 1581.25,-131.71 1584.06,-131.39 1586.89,-131.05"/>
<polygon fill="midnightblue" stroke="midnightblue" points="985.37,-170.53 975.54,-174.49 985.69,-177.53 985.37,-170.53"/>
</g>
<!-- Node17 -->
<g id="node17" class="node">
<title>Node17</title>
<g id="a_node17"><a xlink:href="spawn__players_8c.html" target="_top" xlink:title=" ">
<polygon fill="white" stroke="black" points="1714,-112.5 1714,-131.5 1829,-131.5 1829,-112.5 1714,-112.5"/>
<text text-anchor="middle" x="1771.5" y="-119.5" font-family="Helvetica,sans-Serif" font-size="10.00">src/spawn_players.c</text>
</a>
</g>
</g>
<!-- Node1&#45;&gt;Node17 -->
<g id="edge16" class="edge">
<title>Node1&#45;&gt;Node17</title>
<path fill="none" stroke="midnightblue" d="M986.29,-174.89C1123.38,-170.28 1440.3,-157.61 1705.5,-132 1708.26,-131.73 1711.09,-131.44 1713.94,-131.12"/>
<polygon fill="midnightblue" stroke="midnightblue" points="985.82,-171.4 975.94,-175.23 986.06,-178.4 985.82,-171.4"/>
</g>
<!-- Node9 -->
<g id="node9" class="node">
<title>Node9</title>
<g id="a_node9"><a xlink:href="debug_8inc_8c.html" target="_top" xlink:title=" ">
<polygon fill="white" stroke="black" points="794.5,-56.5 794.5,-75.5 916.5,-75.5 916.5,-56.5 794.5,-56.5"/>
<text text-anchor="middle" x="855.5" y="-63.5" font-family="Helvetica,sans-Serif" font-size="10.00">src/debug/debug.inc.c</text>
</a>
</g>
</g>
<!-- Node8&#45;&gt;Node9 -->
<g id="edge8" class="edge">
<title>Node8&#45;&gt;Node9</title>
<path fill="none" stroke="midnightblue" d="M855.5,-101.8C855.5,-92.91 855.5,-82.78 855.5,-75.75"/>
<polygon fill="midnightblue" stroke="midnightblue" points="852,-102.08 855.5,-112.08 859,-102.08 852,-102.08"/>
</g>
<!-- Node10 -->
<g id="node10" class="node">
<title>Node10</title>
<g id="a_node10"><a xlink:href="debug_8c.html" target="_top" xlink:title=" ">
<polygon fill="white" stroke="black" points="803,-0.5 803,-19.5 908,-19.5 908,-0.5 803,-0.5"/>
<text text-anchor="middle" x="855.5" y="-7.5" font-family="Helvetica,sans-Serif" font-size="10.00">src/debug/debug.c</text>
</a>
</g>
</g>
<!-- Node9&#45;&gt;Node10 -->
<g id="edge9" class="edge">
<title>Node9&#45;&gt;Node10</title>
<path fill="none" stroke="midnightblue" d="M855.5,-45.8C855.5,-36.91 855.5,-26.78 855.5,-19.75"/>
<polygon fill="midnightblue" stroke="midnightblue" points="852,-46.08 855.5,-56.08 859,-46.08 852,-46.08"/>
</g>
</g>
</svg>
