<?xml version="1.0" encoding="UTF-8" standalone="no"?>
<!DOCTYPE svg PUBLIC "-//W3C//DTD SVG 1.1//EN"
 "http://www.w3.org/Graphics/SVG/1.1/DTD/svg11.dtd">
<!-- Generated by graphviz version 2.43.0 (0)
 -->
<!-- Title: OSContRamIo Pages: 1 -->
<svg width="166pt" height="126pt"
 viewBox="0.00 0.00 166.00 126.00" xmlns="http://www.w3.org/2000/svg" xmlns:xlink="http://www.w3.org/1999/xlink">

<svg id="main" version="1.1" xmlns="http://www.w3.org/2000/svg" xmlns:xlink="http://www.w3.org/1999/xlink" xml:space="preserve" onload="init(evt)">
<style type="text/css"><![CDATA[
.node, .edge {opacity: 0.7;}
.node.selected, .edge.selected {opacity: 1;}
.edge:hover path { stroke: red; }
.edge:hover polygon { stroke: red; fill: red; }
]]></style>
<script type="application/ecmascript" xlink:href="svg.min.js"/>
<svg id="graph" class="graph">
<g id="graph0" class="graph" transform="scale(1 1) rotate(0) translate(4 122)">
<title>OSContRamIo</title>
<!-- Node1 -->
<g id="Node000001" class="node">
<title>Node1</title>
<g id="a_Node000001"><a xlink:title=" ">
<polygon fill="#999999" stroke="#666666" points="107,-19 23,-19 23,0 107,0 107,-19"/>
<text text-anchor="middle" x="65" y="-7" font-family="Helvetica,sans-Serif" font-size="10.00">OSContRamIo</text>
</a>
</g>
</g>
<!-- Node2 -->
<g id="Node000002" class="node">
<title>Node2</title>
<g id="a_Node000002"><a xlink:title=" ">
<polygon fill="white" stroke="#666666" points="46,-118 0,-118 0,-99 46,-99 46,-118"/>
<text text-anchor="middle" x="23" y="-106" font-family="Helvetica,sans-Serif" font-size="10.00">void *</text>
</a>
</g>
</g>
<!-- Node2&#45;&gt;Node1 -->
<g id="edge1_Node000001_Node000002" class="edge">
<title>Node2&#45;&gt;Node1</title>
<g id="a_edge1_Node000001_Node000002"><a xlink:title=" ">
<path fill="none" stroke="#9a32cd" stroke-dasharray="5,2" d="M26.07,-88.93C29.01,-74.23 34.31,-53.51 43,-37 46.45,-30.44 51.72,-24.02 56.24,-19.14"/>
<polygon fill="#9a32cd" stroke="#9a32cd" points="22.62,-88.36 24.27,-98.82 29.51,-89.61 22.62,-88.36"/>
</a>
</g>
<text text-anchor="middle" x="64" y="-56.5" font-family="Helvetica,sans-Serif" font-size="10.00" fill="grey"> address</text>
</g>
<!-- Node3 -->
<g id="Node000003" class="node">
<title>Node3</title>
<g id="a_Node000003"><a xlink:title=" ">
<polygon fill="white" stroke="#666666" points="149.5,-118 64.5,-118 64.5,-99 149.5,-99 149.5,-118"/>
<text text-anchor="middle" x="107" y="-106" font-family="Helvetica,sans-Serif" font-size="10.00">unsigned char</text>
</a>
</g>
</g>
<!-- Node3&#45;&gt;Node1 -->
<g id="edge2_Node000001_Node000003" class="edge">
<title>Node3&#45;&gt;Node1</title>
<g id="a_edge2_Node000001_Node000003"><a xlink:title=" ">
<path fill="none" stroke="#9a32cd" stroke-dasharray="5,2" d="M103.09,-89.05C99.56,-74.42 93.59,-53.72 85,-37 81.73,-30.64 76.94,-24.23 72.86,-19.3"/>
<polygon fill="#9a32cd" stroke="#9a32cd" points="99.69,-89.91 105.32,-98.89 106.52,-88.36 99.69,-89.91"/>
</a>
</g>
<text text-anchor="middle" x="129" y="-73" font-family="Helvetica,sans-Serif" font-size="10.00" fill="grey"> addressCrc</text>
<text text-anchor="middle" x="129" y="-62" font-family="Helvetica,sans-Serif" font-size="10.00" fill="grey">dataCrc</text>
<text text-anchor="middle" x="129" y="-51" font-family="Helvetica,sans-Serif" font-size="10.00" fill="grey">databuffer</text>
<text text-anchor="middle" x="129" y="-40" font-family="Helvetica,sans-Serif" font-size="10.00" fill="grey">errno</text>
</g>
</g>
</svg>
</svg>

<style type='text/css'>
<![CDATA[
[data-mouse-over-selected='false'] { opacity: 0.7; }
[data-mouse-over-selected='true']  { opacity: 1.0; }
]]>
</style>
<script type="application/ecmascript"><![CDATA[
document.addEventListener('DOMContentLoaded', (event) => {
  highlightEdges();
  highlightAdjacentNodes();
});
]]></script>
</svg>
