<?xml version="1.0" encoding="UTF-8" standalone="no"?>
<!DOCTYPE svg PUBLIC "-//W3C//DTD SVG 1.1//EN"
 "http://www.w3.org/Graphics/SVG/1.1/DTD/svg11.dtd">
<!-- Generated by graphviz version 2.43.0 (0)
 -->
<!-- Title: __OSThreadContext Pages: 1 -->
<svg width="179pt" height="283pt"
 viewBox="0.00 0.00 178.50 283.00" xmlns="http://www.w3.org/2000/svg" xmlns:xlink="http://www.w3.org/1999/xlink">
<g id="graph0" class="graph" transform="scale(1 1) rotate(0) translate(4 279)">
<title>__OSThreadContext</title>
<polygon fill="white" stroke="transparent" points="-4,4 -4,-279 174.5,-279 174.5,4 -4,4"/>
<!-- Node1 -->
<g id="node1" class="node">
<title>Node1</title>
<g id="a_node1"><a xlink:title=" ">
<polygon fill="#bfbfbf" stroke="black" points="0,-0.5 0,-19.5 113,-19.5 113,-0.5 0,-0.5"/>
<text text-anchor="middle" x="56.5" y="-7.5" font-family="Helvetica,sans-Serif" font-size="10.00">__OSThreadContext</text>
</a>
</g>
</g>
<!-- Node2 -->
<g id="node2" class="node">
<title>Node2</title>
<g id="a_node2"><a xlink:title=" ">
<polygon fill="white" stroke="#bfbfbf" points="8,-177.5 8,-196.5 37,-196.5 37,-177.5 8,-177.5"/>
<text text-anchor="middle" x="22.5" y="-184.5" font-family="Helvetica,sans-Serif" font-size="10.00">int</text>
</a>
</g>
</g>
<!-- Node2&#45;&gt;Node1 -->
<g id="edge1" class="edge">
<title>Node2&#45;&gt;Node1</title>
<path fill="none" stroke="#9a32cd" stroke-dasharray="5,2" d="M17.82,-167.41C11.48,-138.22 3.15,-80.57 23.5,-38 27.14,-30.39 34.08,-24.2 40.66,-19.68"/>
<polygon fill="#9a32cd" stroke="#9a32cd" points="14.47,-168.49 20.16,-177.43 21.29,-166.89 14.47,-168.49"/>
<text text-anchor="middle" x="46.5" y="-151" font-family="Helvetica,sans-Serif" font-size="10.00"> a0</text>
<text text-anchor="middle" x="46.5" y="-140" font-family="Helvetica,sans-Serif" font-size="10.00">a1</text>
<text text-anchor="middle" x="46.5" y="-129" font-family="Helvetica,sans-Serif" font-size="10.00">a2</text>
<text text-anchor="middle" x="46.5" y="-118" font-family="Helvetica,sans-Serif" font-size="10.00">a3</text>
<text text-anchor="middle" x="46.5" y="-107" font-family="Helvetica,sans-Serif" font-size="10.00">at</text>
<text text-anchor="middle" x="46.5" y="-96" font-family="Helvetica,sans-Serif" font-size="10.00">badvaddr</text>
<text text-anchor="middle" x="46.5" y="-85" font-family="Helvetica,sans-Serif" font-size="10.00">cause</text>
<text text-anchor="middle" x="46.5" y="-74" font-family="Helvetica,sans-Serif" font-size="10.00">fpcsr</text>
<text text-anchor="middle" x="46.5" y="-63" font-family="Helvetica,sans-Serif" font-size="10.00">gp</text>
<text text-anchor="middle" x="46.5" y="-52" font-family="Helvetica,sans-Serif" font-size="10.00">hi</text>
<text text-anchor="middle" x="46.5" y="-41" font-family="Helvetica,sans-Serif" font-size="10.00">...</text>
</g>
<!-- Node3 -->
<g id="node3" class="node">
<title>Node3</title>
<g id="a_node3"><a xlink:href="union____OSfp.html" target="_top" xlink:title=" ">
<polygon fill="white" stroke="black" points="66.5,-177.5 66.5,-196.5 116.5,-196.5 116.5,-177.5 66.5,-177.5"/>
<text text-anchor="middle" x="91.5" y="-184.5" font-family="Helvetica,sans-Serif" font-size="10.00">__OSfp</text>
</a>
</g>
</g>
<!-- Node3&#45;&gt;Node1 -->
<g id="edge2" class="edge">
<title>Node3&#45;&gt;Node1</title>
<path fill="none" stroke="#9a32cd" stroke-dasharray="5,2" d="M90.53,-167.35C88.64,-138.89 83.38,-83.18 69.5,-38 67.54,-31.63 64.29,-24.88 61.53,-19.73"/>
<polygon fill="#9a32cd" stroke="#9a32cd" points="87.04,-167.68 91.13,-177.46 94.03,-167.27 87.04,-167.68"/>
<text text-anchor="middle" x="100.5" y="-151" font-family="Helvetica,sans-Serif" font-size="10.00"> fp0</text>
<text text-anchor="middle" x="100.5" y="-140" font-family="Helvetica,sans-Serif" font-size="10.00">fp10</text>
<text text-anchor="middle" x="100.5" y="-129" font-family="Helvetica,sans-Serif" font-size="10.00">fp12</text>
<text text-anchor="middle" x="100.5" y="-118" font-family="Helvetica,sans-Serif" font-size="10.00">fp14</text>
<text text-anchor="middle" x="100.5" y="-107" font-family="Helvetica,sans-Serif" font-size="10.00">fp16</text>
<text text-anchor="middle" x="100.5" y="-96" font-family="Helvetica,sans-Serif" font-size="10.00">fp18</text>
<text text-anchor="middle" x="100.5" y="-85" font-family="Helvetica,sans-Serif" font-size="10.00">fp2</text>
<text text-anchor="middle" x="100.5" y="-74" font-family="Helvetica,sans-Serif" font-size="10.00">fp20</text>
<text text-anchor="middle" x="100.5" y="-63" font-family="Helvetica,sans-Serif" font-size="10.00">fp22</text>
<text text-anchor="middle" x="100.5" y="-52" font-family="Helvetica,sans-Serif" font-size="10.00">fp24</text>
<text text-anchor="middle" x="100.5" y="-41" font-family="Helvetica,sans-Serif" font-size="10.00">...</text>
</g>
<!-- Node4 -->
<g id="node4" class="node">
<title>Node4</title>
<g id="a_node4"><a xlink:title=" ">
<polygon fill="white" stroke="#bfbfbf" points="34.5,-255.5 34.5,-274.5 72.5,-274.5 72.5,-255.5 34.5,-255.5"/>
<text text-anchor="middle" x="53.5" y="-262.5" font-family="Helvetica,sans-Serif" font-size="10.00">float</text>
</a>
</g>
</g>
<!-- Node4&#45;&gt;Node3 -->
<g id="edge3" class="edge">
<title>Node4&#45;&gt;Node3</title>
<path fill="none" stroke="#9a32cd" stroke-dasharray="5,2" d="M58.81,-245.79C61.91,-236.33 66.25,-224.74 71.5,-215 75.05,-208.43 80.05,-201.68 84.16,-196.57"/>
<polygon fill="#9a32cd" stroke="#9a32cd" points="55.46,-244.77 55.86,-255.36 62.15,-246.84 55.46,-244.77"/>
<text text-anchor="middle" x="90" y="-229" font-family="Helvetica,sans-Serif" font-size="10.00"> f_even</text>
<text text-anchor="middle" x="90" y="-218" font-family="Helvetica,sans-Serif" font-size="10.00">f_odd</text>
</g>
<!-- Node5 -->
<g id="node5" class="node">
<title>Node5</title>
<g id="a_node5"><a xlink:title=" ">
<polygon fill="white" stroke="#bfbfbf" points="90.5,-255.5 90.5,-274.5 170.5,-274.5 170.5,-255.5 90.5,-255.5"/>
<text text-anchor="middle" x="130.5" y="-262.5" font-family="Helvetica,sans-Serif" font-size="10.00">anonymous:f</text>
</a>
</g>
</g>
<!-- Node5&#45;&gt;Node3 -->
<g id="edge4" class="edge">
<title>Node5&#45;&gt;Node3</title>
<path fill="none" stroke="#9a32cd" stroke-dasharray="5,2" d="M123.01,-245.7C119,-236.36 113.81,-224.91 108.5,-215 105.15,-208.75 100.9,-202 97.49,-196.81"/>
<polygon fill="#9a32cd" stroke="#9a32cd" points="119.87,-247.28 126.97,-255.15 126.33,-244.57 119.87,-247.28"/>
<text text-anchor="middle" x="122" y="-223.5" font-family="Helvetica,sans-Serif" font-size="10.00"> f</text>
</g>
</g>
</svg>
