<?xml version="1.0" encoding="UTF-8" standalone="no"?>
<!DOCTYPE svg PUBLIC "-//W3C//DTD SVG 1.1//EN"
 "http://www.w3.org/Graphics/SVG/1.1/DTD/svg11.dtd">
<!-- Generated by graphviz version 2.43.0 (0)
 -->
<!-- Title: Unk_80191420 Pages: 1 -->
<svg width="288pt" height="150pt"
 viewBox="0.00 0.00 287.50 150.00" xmlns="http://www.w3.org/2000/svg" xmlns:xlink="http://www.w3.org/1999/xlink">
<g id="graph0" class="graph" transform="scale(1 1) rotate(0) translate(4 146)">
<title>Unk_80191420</title>
<polygon fill="white" stroke="transparent" points="-4,4 -4,-146 283.5,-146 283.5,4 -4,4"/>
<!-- Node1 -->
<g id="node1" class="node">
<title>Node1</title>
<g id="a_node1"><a xlink:title=" ">
<polygon fill="#bfbfbf" stroke="black" points="92.5,-0.5 92.5,-19.5 181.5,-19.5 181.5,-0.5 92.5,-0.5"/>
<text text-anchor="middle" x="137" y="-7.5" font-family="Helvetica,sans-Serif" font-size="10.00">Unk_80191420</text>
</a>
</g>
</g>
<!-- Node2 -->
<g id="node2" class="node">
<title>Node2</title>
<g id="a_node2"><a xlink:title=" ">
<polygon fill="white" stroke="#bfbfbf" points="0,-122.5 0,-141.5 38,-141.5 38,-122.5 0,-122.5"/>
<text text-anchor="middle" x="19" y="-129.5" font-family="Helvetica,sans-Serif" font-size="10.00">char</text>
</a>
</g>
</g>
<!-- Node2&#45;&gt;Node1 -->
<g id="edge1" class="edge">
<title>Node2&#45;&gt;Node1</title>
<path fill="none" stroke="#9a32cd" stroke-dasharray="5,2" d="M15.53,-112.2C12.85,-91.45 12.17,-58.31 30,-38 38.41,-28.43 66.96,-21.51 92.46,-17.08"/>
<polygon fill="#9a32cd" stroke="#9a32cd" points="12.11,-112.96 17.12,-122.29 19.02,-111.87 12.11,-112.96"/>
<text text-anchor="middle" x="60.5" y="-96" font-family="Helvetica,sans-Serif" font-size="10.00"> cameraId</text>
<text text-anchor="middle" x="60.5" y="-85" font-family="Helvetica,sans-Serif" font-size="10.00">freshness</text>
<text text-anchor="middle" x="60.5" y="-74" font-family="Helvetica,sans-Serif" font-size="10.00">next</text>
<text text-anchor="middle" x="60.5" y="-63" font-family="Helvetica,sans-Serif" font-size="10.00">prev</text>
<text text-anchor="middle" x="60.5" y="-52" font-family="Helvetica,sans-Serif" font-size="10.00">soundStatus</text>
<text text-anchor="middle" x="60.5" y="-41" font-family="Helvetica,sans-Serif" font-size="10.00">unk2C</text>
</g>
<!-- Node3 -->
<g id="node3" class="node">
<title>Node3</title>
<g id="a_node3"><a xlink:title=" ">
<polygon fill="white" stroke="#bfbfbf" points="84,-122.5 84,-141.5 122,-141.5 122,-122.5 84,-122.5"/>
<text text-anchor="middle" x="103" y="-129.5" font-family="Helvetica,sans-Serif" font-size="10.00">float</text>
</a>
</g>
</g>
<!-- Node3&#45;&gt;Node1 -->
<g id="edge2" class="edge">
<title>Node3&#45;&gt;Node1</title>
<path fill="none" stroke="#9a32cd" stroke-dasharray="5,2" d="M98.73,-112.19C95.29,-92.62 92.66,-61.6 104,-38 107.65,-30.39 114.6,-24.21 121.18,-19.69"/>
<polygon fill="#9a32cd" stroke="#9a32cd" points="95.35,-113.13 100.76,-122.25 102.22,-111.75 95.35,-113.13"/>
<text text-anchor="middle" x="126.5" y="-96" font-family="Helvetica,sans-Serif" font-size="10.00"> distance</text>
<text text-anchor="middle" x="126.5" y="-85" font-family="Helvetica,sans-Serif" font-size="10.00">unk00</text>
<text text-anchor="middle" x="126.5" y="-74" font-family="Helvetica,sans-Serif" font-size="10.00">unk04</text>
<text text-anchor="middle" x="126.5" y="-63" font-family="Helvetica,sans-Serif" font-size="10.00">unk08</text>
<text text-anchor="middle" x="126.5" y="-52" font-family="Helvetica,sans-Serif" font-size="10.00">unk10</text>
<text text-anchor="middle" x="126.5" y="-41" font-family="Helvetica,sans-Serif" font-size="10.00">unk14</text>
</g>
<!-- Node4 -->
<g id="node4" class="node">
<title>Node4</title>
<g id="a_node4"><a xlink:title=" ">
<polygon fill="white" stroke="#bfbfbf" points="156.5,-122.5 156.5,-141.5 185.5,-141.5 185.5,-122.5 156.5,-122.5"/>
<text text-anchor="middle" x="171" y="-129.5" font-family="Helvetica,sans-Serif" font-size="10.00">int</text>
</a>
</g>
</g>
<!-- Node4&#45;&gt;Node1 -->
<g id="edge3" class="edge">
<title>Node4&#45;&gt;Node1</title>
<path fill="none" stroke="#9a32cd" stroke-dasharray="5,2" d="M167.66,-112.39C164,-93.41 157.51,-63.25 149,-38 146.9,-31.78 143.9,-25.03 141.43,-19.83"/>
<polygon fill="#9a32cd" stroke="#9a32cd" points="164.25,-113.2 169.52,-122.39 171.13,-111.92 164.25,-113.2"/>
<text text-anchor="middle" x="189.5" y="-74" font-family="Helvetica,sans-Serif" font-size="10.00"> priority</text>
<text text-anchor="middle" x="189.5" y="-63" font-family="Helvetica,sans-Serif" font-size="10.00">soundBits</text>
</g>
<!-- Node5 -->
<g id="node5" class="node">
<title>Node5</title>
<g id="a_node5"><a xlink:title=" ">
<polygon fill="white" stroke="#bfbfbf" points="206.5,-122.5 206.5,-141.5 279.5,-141.5 279.5,-122.5 206.5,-122.5"/>
<text text-anchor="middle" x="243" y="-129.5" font-family="Helvetica,sans-Serif" font-size="10.00">signed char</text>
</a>
</g>
</g>
<!-- Node5&#45;&gt;Node1 -->
<g id="edge4" class="edge">
<title>Node5&#45;&gt;Node1</title>
<path fill="none" stroke="#9a32cd" stroke-dasharray="5,2" d="M242.97,-112.17C241.91,-91.39 237.06,-58.22 218,-38 208.44,-27.86 194.98,-21.53 181.78,-17.57"/>
<polygon fill="#9a32cd" stroke="#9a32cd" points="239.47,-112.37 243.23,-122.28 246.47,-112.19 239.47,-112.37"/>
<text text-anchor="middle" x="259" y="-68.5" font-family="Helvetica,sans-Serif" font-size="10.00"> unk18</text>
</g>
</g>
</svg>
