<?xml version="1.0" encoding="UTF-8" standalone="no"?>
<!DOCTYPE svg PUBLIC "-//W3C//DTD SVG 1.1//EN"
 "http://www.w3.org/Graphics/SVG/1.1/DTD/svg11.dtd">
<!-- Generated by graphviz version 2.43.0 (0)
 -->
<!-- Title: AllocOnlyPool Pages: 1 -->
<svg width="187pt" height="106pt"
 viewBox="0.00 0.00 186.50 106.00" xmlns="http://www.w3.org/2000/svg" xmlns:xlink="http://www.w3.org/1999/xlink">
<g id="graph0" class="graph" transform="scale(1 1) rotate(0) translate(4 102)">
<title>AllocOnlyPool</title>
<polygon fill="white" stroke="transparent" points="-4,4 -4,-102 182.5,-102 182.5,4 -4,4"/>
<!-- Node1 -->
<g id="node1" class="node">
<title>Node1</title>
<g id="a_node1"><a xlink:title=" ">
<polygon fill="#bfbfbf" stroke="black" points="46.5,-0.5 46.5,-19.5 130.5,-19.5 130.5,-0.5 46.5,-0.5"/>
<text text-anchor="middle" x="88.5" y="-7.5" font-family="Helvetica,sans-Serif" font-size="10.00">AllocOnlyPool</text>
</a>
</g>
</g>
<!-- Node2 -->
<g id="node2" class="node">
<title>Node2</title>
<g id="a_node2"><a xlink:title=" ">
<polygon fill="white" stroke="#bfbfbf" points="0,-78.5 0,-97.5 85,-97.5 85,-78.5 0,-78.5"/>
<text text-anchor="middle" x="42.5" y="-85.5" font-family="Helvetica,sans-Serif" font-size="10.00">unsigned char</text>
</a>
</g>
</g>
<!-- Node2&#45;&gt;Node1 -->
<g id="edge1" class="edge">
<title>Node2&#45;&gt;Node1</title>
<path fill="none" stroke="#9a32cd" stroke-dasharray="5,2" d="M53.05,-69.57C62.5,-53.95 75.97,-31.7 83.28,-19.62"/>
<polygon fill="#9a32cd" stroke="#9a32cd" points="49.96,-67.91 47.78,-78.28 55.95,-71.54 49.96,-67.91"/>
<text text-anchor="middle" x="90" y="-52" font-family="Helvetica,sans-Serif" font-size="10.00"> freePtr</text>
<text text-anchor="middle" x="90" y="-41" font-family="Helvetica,sans-Serif" font-size="10.00">startPtr</text>
</g>
<!-- Node3 -->
<g id="node3" class="node">
<title>Node3</title>
<g id="a_node3"><a xlink:title=" ">
<polygon fill="white" stroke="#bfbfbf" points="103,-78.5 103,-97.5 168,-97.5 168,-78.5 103,-78.5"/>
<text text-anchor="middle" x="135.5" y="-85.5" font-family="Helvetica,sans-Serif" font-size="10.00">signed int</text>
</a>
</g>
</g>
<!-- Node3&#45;&gt;Node1 -->
<g id="edge2" class="edge">
<title>Node3&#45;&gt;Node1</title>
<path fill="none" stroke="#9a32cd" stroke-dasharray="5,2" d="M128.51,-68.97C124.45,-59.41 118.88,-47.68 112.5,-38 108.22,-31.51 102.46,-24.97 97.65,-19.95"/>
<polygon fill="#9a32cd" stroke="#9a32cd" points="125.29,-70.33 132.3,-78.28 131.78,-67.7 125.29,-70.33"/>
<text text-anchor="middle" x="151" y="-52" font-family="Helvetica,sans-Serif" font-size="10.00"> totalSpace</text>
<text text-anchor="middle" x="151" y="-41" font-family="Helvetica,sans-Serif" font-size="10.00">usedSpace</text>
</g>
</g>
</svg>
