<?xml version="1.0" encoding="UTF-8" standalone="no"?>
<!DOCTYPE svg PUBLIC "-//W3C//DTD SVG 1.1//EN"
 "http://www.w3.org/Graphics/SVG/1.1/DTD/svg11.dtd">
<!-- Generated by graphviz version 2.43.0 (0)
 -->
<!-- Title: credits_data_1FA0 Pages: 1 -->
<svg width="170pt" height="203pt"
 viewBox="0.00 0.00 170.00 203.00" xmlns="http://www.w3.org/2000/svg" xmlns:xlink="http://www.w3.org/1999/xlink">
<g id="graph0" class="graph" transform="scale(1 1) rotate(0) translate(4 199)">
<title>credits_data_1FA0</title>
<!-- Node1 -->
<g id="Node000001" class="node">
<title>Node1</title>
<g id="a_Node000001"><a xlink:title=" ">
<polygon fill="#999999" stroke="#666666" points="127.5,-19 22.5,-19 22.5,0 127.5,0 127.5,-19"/>
<text text-anchor="middle" x="75" y="-7" font-family="Helvetica,sans-Serif" font-size="10.00">credits_data_1FA0</text>
</a>
</g>
</g>
<!-- Node2 -->
<g id="Node000002" class="node">
<title>Node2</title>
<g id="a_Node000002"><a xlink:title=" ">
<polygon fill="white" stroke="#666666" points="38,-195 0,-195 0,-176 38,-176 38,-195"/>
<text text-anchor="middle" x="19" y="-183" font-family="Helvetica,sans-Serif" font-size="10.00">float</text>
</a>
</g>
</g>
<!-- Node2&#45;&gt;Node1 -->
<g id="edge1_Node000001_Node000002" class="edge">
<title>Node2&#45;&gt;Node1</title>
<g id="a_edge1_Node000001_Node000002"><a xlink:title=" ">
<path fill="none" stroke="#9a32cd" stroke-dasharray="5,2" d="M17.31,-165.61C15.57,-136.03 15.9,-77.93 40,-37 44.41,-29.51 51.83,-23.44 58.71,-19"/>
<polygon fill="#9a32cd" stroke="#9a32cd" points="13.83,-166.06 18.06,-175.78 20.81,-165.55 13.83,-166.06"/>
</a>
</g>
<text text-anchor="middle" x="55.5" y="-111.5" font-family="Helvetica,sans-Serif" font-size="10.00" fill="grey"> unk0</text>
<text text-anchor="middle" x="55.5" y="-100.5" font-family="Helvetica,sans-Serif" font-size="10.00" fill="grey">unk20</text>
<text text-anchor="middle" x="55.5" y="-89.5" font-family="Helvetica,sans-Serif" font-size="10.00" fill="grey">unk64</text>
<text text-anchor="middle" x="55.5" y="-78.5" font-family="Helvetica,sans-Serif" font-size="10.00" fill="grey">unk68</text>
</g>
<!-- Node3 -->
<g id="Node000003" class="node">
<title>Node3</title>
<g id="a_Node000003"><a xlink:title=" ">
<polygon fill="white" stroke="#666666" points="94,-195 56,-195 56,-176 94,-176 94,-195"/>
<text text-anchor="middle" x="75" y="-183" font-family="Helvetica,sans-Serif" font-size="10.00">char</text>
</a>
</g>
</g>
<!-- Node3&#45;&gt;Node1 -->
<g id="edge2_Node000001_Node000003" class="edge">
<title>Node3&#45;&gt;Node1</title>
<g id="a_edge2_Node000001_Node000003"><a xlink:title=" ">
<path fill="none" stroke="#9a32cd" stroke-dasharray="5,2" d="M75,-165.56C75,-128.12 75,-45.95 75,-19.14"/>
<polygon fill="#9a32cd" stroke="#9a32cd" points="71.5,-165.63 75,-175.63 78.5,-165.63 71.5,-165.63"/>
</a>
</g>
<text text-anchor="middle" x="91" y="-111.5" font-family="Helvetica,sans-Serif" font-size="10.00" fill="grey"> pad</text>
<text text-anchor="middle" x="91" y="-100.5" font-family="Helvetica,sans-Serif" font-size="10.00" fill="grey">pad2</text>
<text text-anchor="middle" x="91" y="-89.5" font-family="Helvetica,sans-Serif" font-size="10.00" fill="grey">unk1C</text>
<text text-anchor="middle" x="91" y="-78.5" font-family="Helvetica,sans-Serif" font-size="10.00" fill="grey">unk1D</text>
</g>
<!-- Node4 -->
<g id="Node000004" class="node">
<title>Node4</title>
<g id="a_Node000004"><a xlink:title=" ">
<polygon fill="white" stroke="#666666" points="144.5,-195 115.5,-195 115.5,-176 144.5,-176 144.5,-195"/>
<text text-anchor="middle" x="130" y="-183" font-family="Helvetica,sans-Serif" font-size="10.00">int</text>
</a>
</g>
</g>
<!-- Node4&#45;&gt;Node1 -->
<g id="edge3_Node000001_Node000004" class="edge">
<title>Node4&#45;&gt;Node1</title>
<g id="a_edge3_Node000001_Node000004"><a xlink:title=" ">
<path fill="none" stroke="#9a32cd" stroke-dasharray="5,2" d="M131.39,-165.68C132.7,-136.2 131.67,-78.23 108,-37 103.83,-29.74 96.83,-23.69 90.35,-19.21"/>
<polygon fill="#9a32cd" stroke="#9a32cd" points="127.89,-165.63 130.8,-175.81 134.88,-166.04 127.89,-165.63"/>
</a>
</g>
<text text-anchor="middle" x="146.5" y="-150" font-family="Helvetica,sans-Serif" font-size="10.00" fill="grey"> un52</text>
<text text-anchor="middle" x="146.5" y="-139" font-family="Helvetica,sans-Serif" font-size="10.00" fill="grey">unk1E</text>
<text text-anchor="middle" x="146.5" y="-128" font-family="Helvetica,sans-Serif" font-size="10.00" fill="grey">unk48</text>
<text text-anchor="middle" x="146.5" y="-117" font-family="Helvetica,sans-Serif" font-size="10.00" fill="grey">unk4E</text>
<text text-anchor="middle" x="146.5" y="-106" font-family="Helvetica,sans-Serif" font-size="10.00" fill="grey">unk54</text>
<text text-anchor="middle" x="146.5" y="-95" font-family="Helvetica,sans-Serif" font-size="10.00" fill="grey">unk58</text>
<text text-anchor="middle" x="146.5" y="-84" font-family="Helvetica,sans-Serif" font-size="10.00" fill="grey">unk5A</text>
<text text-anchor="middle" x="146.5" y="-73" font-family="Helvetica,sans-Serif" font-size="10.00" fill="grey">unk5E</text>
<text text-anchor="middle" x="146.5" y="-62" font-family="Helvetica,sans-Serif" font-size="10.00" fill="grey">unk60</text>
<text text-anchor="middle" x="146.5" y="-51" font-family="Helvetica,sans-Serif" font-size="10.00" fill="grey">unk62</text>
<text text-anchor="middle" x="146.5" y="-40" font-family="Helvetica,sans-Serif" font-size="10.00" fill="grey">...</text>
</g>
</g>
</svg>
