<?xml version="1.0" encoding="UTF-8" standalone="no"?>
<!DOCTYPE svg PUBLIC "-//W3C//DTD SVG 1.1//EN"
 "http://www.w3.org/Graphics/SVG/1.1/DTD/svg11.dtd">
<!-- Generated by graphviz version 2.43.0 (0)
 -->
<!-- Title: struct_80283430 Pages: 1 -->
<svg width="204pt" height="128pt"
 viewBox="0.00 0.00 203.50 128.00" xmlns="http://www.w3.org/2000/svg" xmlns:xlink="http://www.w3.org/1999/xlink">
<g id="graph0" class="graph" transform="scale(1 1) rotate(0) translate(4 124)">
<title>struct_80283430</title>
<polygon fill="white" stroke="transparent" points="-4,4 -4,-124 199.5,-124 199.5,4 -4,4"/>
<!-- Node1 -->
<g id="node1" class="node">
<title>Node1</title>
<g id="a_node1"><a xlink:title=" ">
<polygon fill="#bfbfbf" stroke="black" points="53,-0.5 53,-19.5 151,-19.5 151,-0.5 53,-0.5"/>
<text text-anchor="middle" x="102" y="-7.5" font-family="Helvetica,sans-Serif" font-size="10.00">struct_80283430</text>
</a>
</g>
</g>
<!-- Node2 -->
<g id="node2" class="node">
<title>Node2</title>
<g id="a_node2"><a xlink:title=" ">
<polygon fill="white" stroke="#bfbfbf" points="0,-100.5 0,-119.5 38,-119.5 38,-100.5 0,-100.5"/>
<text text-anchor="middle" x="19" y="-107.5" font-family="Helvetica,sans-Serif" font-size="10.00">char</text>
</a>
</g>
</g>
<!-- Node2&#45;&gt;Node1 -->
<g id="edge1" class="edge">
<title>Node2&#45;&gt;Node1</title>
<path fill="none" stroke="#9a32cd" stroke-dasharray="5,2" d="M29.86,-91.44C39.5,-76.48 54.45,-54.82 70,-38 76.22,-31.28 84.07,-24.63 90.44,-19.61"/>
<polygon fill="#9a32cd" stroke="#9a32cd" points="26.72,-89.85 24.33,-100.18 32.64,-93.59 26.72,-89.85"/>
<text text-anchor="middle" x="84" y="-74" font-family="Helvetica,sans-Serif" font-size="10.00"> unk0</text>
<text text-anchor="middle" x="84" y="-63" font-family="Helvetica,sans-Serif" font-size="10.00">unk1</text>
<text text-anchor="middle" x="84" y="-52" font-family="Helvetica,sans-Serif" font-size="10.00">unk4</text>
<text text-anchor="middle" x="84" y="-41" font-family="Helvetica,sans-Serif" font-size="10.00">unk5</text>
</g>
<!-- Node3 -->
<g id="node3" class="node">
<title>Node3</title>
<g id="a_node3"><a xlink:title=" ">
<polygon fill="white" stroke="#bfbfbf" points="56,-100.5 56,-119.5 148,-119.5 148,-100.5 56,-100.5"/>
<text text-anchor="middle" x="102" y="-107.5" font-family="Helvetica,sans-Serif" font-size="10.00">signed short int</text>
</a>
</g>
</g>
<!-- Node3&#45;&gt;Node1 -->
<g id="edge2" class="edge">
<title>Node3&#45;&gt;Node1</title>
<path fill="none" stroke="#9a32cd" stroke-dasharray="5,2" d="M102,-90.22C102,-68.95 102,-35.22 102,-19.54"/>
<polygon fill="#9a32cd" stroke="#9a32cd" points="98.5,-90.3 102,-100.3 105.5,-90.3 98.5,-90.3"/>
<text text-anchor="middle" x="116" y="-57.5" font-family="Helvetica,sans-Serif" font-size="10.00"> unk6</text>
</g>
<!-- Node4 -->
<g id="node4" class="node">
<title>Node4</title>
<g id="a_node4"><a xlink:title=" ">
<polygon fill="white" stroke="#bfbfbf" points="166.5,-100.5 166.5,-119.5 195.5,-119.5 195.5,-100.5 166.5,-100.5"/>
<text text-anchor="middle" x="181" y="-107.5" font-family="Helvetica,sans-Serif" font-size="10.00">int</text>
</a>
</g>
</g>
<!-- Node4&#45;&gt;Node1 -->
<g id="edge3" class="edge">
<title>Node4&#45;&gt;Node1</title>
<path fill="none" stroke="#9a32cd" stroke-dasharray="5,2" d="M171.25,-91.36C162.52,-76.36 148.84,-54.67 134,-38 127.91,-31.16 120.06,-24.51 113.66,-19.52"/>
<polygon fill="#9a32cd" stroke="#9a32cd" points="168.25,-93.17 176.23,-100.13 174.33,-89.71 168.25,-93.17"/>
<text text-anchor="middle" x="178" y="-57.5" font-family="Helvetica,sans-Serif" font-size="10.00"> unk2</text>
</g>
</g>
</svg>
