<?xml version="1.0" encoding="UTF-8" standalone="no"?>
<!DOCTYPE svg PUBLIC "-//W3C//DTD SVG 1.1//EN"
 "http://www.w3.org/Graphics/SVG/1.1/DTD/svg11.dtd">
<!-- Generated by graphviz version 2.43.0 (0)
 -->
<!-- Title: BananaActor Pages: 1 -->
<svg width="418pt" height="338pt"
 viewBox="0.00 0.00 418.00 338.00" xmlns="http://www.w3.org/2000/svg" xmlns:xlink="http://www.w3.org/1999/xlink">
<g id="graph0" class="graph" transform="scale(1 1) rotate(0) translate(4 334)">
<title>BananaActor</title>
<!-- Node1 -->
<g id="Node000001" class="node">
<title>Node1</title>
<g id="a_Node000001"><a xlink:title=" ">
<polygon fill="#999999" stroke="#666666" points="209.5,-19 130.5,-19 130.5,0 209.5,0 209.5,-19"/>
<text text-anchor="middle" x="170" y="-7" font-family="Helvetica,sans-Serif" font-size="10.00">BananaActor</text>
</a>
</g>
</g>
<!-- Node2 -->
<g id="Node000002" class="node">
<title>Node2</title>
<g id="a_Node000002"><a xlink:title=" ">
<polygon fill="white" stroke="#666666" points="92,-202 0,-202 0,-183 92,-183 92,-202"/>
<text text-anchor="middle" x="46" y="-190" font-family="Helvetica,sans-Serif" font-size="10.00">signed short int</text>
</a>
</g>
</g>
<!-- Node2&#45;&gt;Node1 -->
<g id="edge1_Node000001_Node000002" class="edge">
<title>Node2&#45;&gt;Node1</title>
<g id="a_edge1_Node000001_Node000002"><a xlink:title=" ">
<path fill="none" stroke="#9a32cd" stroke-dasharray="5,2" d="M40.76,-173.14C32.92,-141.34 22.28,-75.75 55,-37 64.72,-25.49 101.19,-18.46 130.49,-14.56"/>
<polygon fill="#9a32cd" stroke="#9a32cd" points="37.4,-174.1 43.35,-182.87 44.16,-172.31 37.4,-174.1"/>
</a>
</g>
<text text-anchor="middle" x="84.5" y="-150" font-family="Helvetica,sans-Serif" font-size="10.00" fill="grey"> bananaId</text>
<text text-anchor="middle" x="84.5" y="-139" font-family="Helvetica,sans-Serif" font-size="10.00" fill="grey">elderIndex</text>
<text text-anchor="middle" x="84.5" y="-128" font-family="Helvetica,sans-Serif" font-size="10.00" fill="grey">flags</text>
<text text-anchor="middle" x="84.5" y="-117" font-family="Helvetica,sans-Serif" font-size="10.00" fill="grey">parentIndex</text>
<text text-anchor="middle" x="84.5" y="-106" font-family="Helvetica,sans-Serif" font-size="10.00" fill="grey">playerId</text>
<text text-anchor="middle" x="84.5" y="-95" font-family="Helvetica,sans-Serif" font-size="10.00" fill="grey">rot</text>
<text text-anchor="middle" x="84.5" y="-84" font-family="Helvetica,sans-Serif" font-size="10.00" fill="grey">state</text>
<text text-anchor="middle" x="84.5" y="-73" font-family="Helvetica,sans-Serif" font-size="10.00" fill="grey">type</text>
<text text-anchor="middle" x="84.5" y="-62" font-family="Helvetica,sans-Serif" font-size="10.00" fill="grey">unk_04</text>
<text text-anchor="middle" x="84.5" y="-51" font-family="Helvetica,sans-Serif" font-size="10.00" fill="grey">unk_16</text>
<text text-anchor="middle" x="84.5" y="-40" font-family="Helvetica,sans-Serif" font-size="10.00" fill="grey">...</text>
</g>
<!-- Node3 -->
<g id="Node000003" class="node">
<title>Node3</title>
<g id="a_Node000003"><a xlink:title=" ">
<polygon fill="white" stroke="#666666" points="164,-330 126,-330 126,-311 164,-311 164,-330"/>
<text text-anchor="middle" x="145" y="-318" font-family="Helvetica,sans-Serif" font-size="10.00">float</text>
</a>
</g>
</g>
<!-- Node3&#45;&gt;Node1 -->
<g id="edge2_Node000001_Node000003" class="edge">
<title>Node3&#45;&gt;Node1</title>
<g id="a_edge2_Node000001_Node000003"><a xlink:title=" ">
<path fill="none" stroke="#9a32cd" stroke-dasharray="5,2" d="M143.44,-300.68C141.71,-278.71 139.02,-241.25 138,-209 137.54,-194.34 136.6,-190.6 138,-176 143.83,-115.12 161.47,-43.33 167.75,-19.03"/>
<polygon fill="#9a32cd" stroke="#9a32cd" points="139.98,-301.23 144.27,-310.91 146.95,-300.66 139.98,-301.23"/>
</a>
</g>
<text text-anchor="middle" x="182" y="-201" font-family="Helvetica,sans-Serif" font-size="10.00" fill="grey"> boundingBoxSize</text>
<text text-anchor="middle" x="182" y="-190" font-family="Helvetica,sans-Serif" font-size="10.00" fill="grey">pos</text>
<text text-anchor="middle" x="182" y="-179" font-family="Helvetica,sans-Serif" font-size="10.00" fill="grey">velocity</text>
</g>
<!-- Node5 -->
<g id="Node000005" class="node">
<title>Node5</title>
<g id="a_Node000005"><a xlink:href="structCollision.html" target="_top" xlink:title=" ">
<polygon fill="white" stroke="#666666" points="293.5,-202 234.5,-202 234.5,-183 293.5,-183 293.5,-202"/>
<text text-anchor="middle" x="264" y="-190" font-family="Helvetica,sans-Serif" font-size="10.00">Collision</text>
</a>
</g>
</g>
<!-- Node3&#45;&gt;Node5 -->
<g id="edge6_Node000005_Node000003" class="edge">
<title>Node3&#45;&gt;Node5</title>
<g id="a_edge6_Node000005_Node000003"><a xlink:title=" ">
<path fill="none" stroke="#9a32cd" stroke-dasharray="5,2" d="M146.09,-300.84C148.27,-280.23 154.75,-247.29 174,-227 175.21,-225.72 214.05,-211.53 240.3,-202.03"/>
<polygon fill="#9a32cd" stroke="#9a32cd" points="142.6,-300.61 145.27,-310.86 149.58,-301.18 142.6,-300.61"/>
</a>
</g>
<text text-anchor="middle" x="218" y="-279.5" font-family="Helvetica,sans-Serif" font-size="10.00" fill="grey"> orientationVector</text>
<text text-anchor="middle" x="218" y="-268.5" font-family="Helvetica,sans-Serif" font-size="10.00" fill="grey">unk3C</text>
<text text-anchor="middle" x="218" y="-257.5" font-family="Helvetica,sans-Serif" font-size="10.00" fill="grey">unk48</text>
<text text-anchor="middle" x="218" y="-246.5" font-family="Helvetica,sans-Serif" font-size="10.00" fill="grey">unk54</text>
<text text-anchor="middle" x="218" y="-235.5" font-family="Helvetica,sans-Serif" font-size="10.00" fill="grey">unk6C</text>
</g>
<!-- Node4 -->
<g id="Node000004" class="node">
<title>Node4</title>
<g id="a_Node000004"><a xlink:title=" ">
<polygon fill="white" stroke="#666666" points="410,-202 312,-202 312,-183 410,-183 410,-202"/>
<text text-anchor="middle" x="361" y="-190" font-family="Helvetica,sans-Serif" font-size="10.00">anonymous:@22</text>
</a>
</g>
</g>
<!-- Node4&#45;&gt;Node1 -->
<g id="edge3_Node000001_Node000004" class="edge">
<title>Node4&#45;&gt;Node1</title>
<g id="a_edge3_Node000001_Node000004"><a xlink:title=" ">
<path fill="none" stroke="#9a32cd" stroke-dasharray="5,2" d="M357.15,-172.84C349.38,-140.04 328.6,-72.22 284,-37 262.95,-20.38 233.3,-13.85 209.51,-11.43"/>
<polygon fill="#9a32cd" stroke="#9a32cd" points="353.79,-173.86 359.38,-182.87 360.63,-172.35 353.79,-173.86"/>
</a>
</g>
<text text-anchor="middle" x="365.5" y="-95" font-family="Helvetica,sans-Serif" font-size="10.00" fill="grey"> @22</text>
</g>
<!-- Node5&#45;&gt;Node1 -->
<g id="edge4_Node000001_Node000005" class="edge">
<title>Node5&#45;&gt;Node1</title>
<g id="a_edge4_Node000001_Node000005"><a xlink:title=" ">
<path fill="none" stroke="#9a32cd" stroke-dasharray="5,2" d="M254.84,-173.86C235.07,-135.8 189.03,-47.15 174.49,-19.14"/>
<polygon fill="#9a32cd" stroke="#9a32cd" points="251.75,-175.51 259.47,-182.77 257.96,-172.28 251.75,-175.51"/>
</a>
</g>
<text text-anchor="middle" x="263" y="-95" font-family="Helvetica,sans-Serif" font-size="10.00" fill="grey"> unk30</text>
</g>
<!-- Node6 -->
<g id="Node000006" class="node">
<title>Node6</title>
<g id="a_Node000006"><a xlink:title=" ">
<polygon fill="white" stroke="#666666" points="324,-330 220,-330 220,-311 324,-311 324,-330"/>
<text text-anchor="middle" x="272" y="-318" font-family="Helvetica,sans-Serif" font-size="10.00">unsigned short int</text>
</a>
</g>
</g>
<!-- Node6&#45;&gt;Node5 -->
<g id="edge5_Node000005_Node000006" class="edge">
<title>Node6&#45;&gt;Node5</title>
<g id="a_edge5_Node000005_Node000006"><a xlink:title=" ">
<path fill="none" stroke="#9a32cd" stroke-dasharray="5,2" d="M270.79,-300.51C269.04,-272.81 265.84,-222.42 264.55,-202.22"/>
<polygon fill="#9a32cd" stroke="#9a32cd" points="267.32,-301.08 271.45,-310.84 274.31,-300.64 267.32,-301.08"/>
</a>
</g>
<text text-anchor="middle" x="287" y="-285" font-family="Helvetica,sans-Serif" font-size="10.00" fill="grey"> unk30</text>
<text text-anchor="middle" x="287" y="-274" font-family="Helvetica,sans-Serif" font-size="10.00" fill="grey">unk32</text>
<text text-anchor="middle" x="287" y="-263" font-family="Helvetica,sans-Serif" font-size="10.00" fill="grey">unk34</text>
<text text-anchor="middle" x="287" y="-252" font-family="Helvetica,sans-Serif" font-size="10.00" fill="grey">unk36</text>
<text text-anchor="middle" x="287" y="-241" font-family="Helvetica,sans-Serif" font-size="10.00" fill="grey">unk38</text>
<text text-anchor="middle" x="287" y="-230" font-family="Helvetica,sans-Serif" font-size="10.00" fill="grey">unk3A</text>
</g>
</g>
</svg>
