<?xml version="1.0" encoding="UTF-8" standalone="no"?>
<!DOCTYPE svg PUBLIC "-//W3C//DTD SVG 1.1//EN"
 "http://www.w3.org/Graphics/SVG/1.1/DTD/svg11.dtd">
<!-- Generated by graphviz version 2.43.0 (0)
 -->
<!-- Title: SynthesisReverb Pages: 1 -->
<svg width="708pt" height="349pt"
 viewBox="0.00 0.00 707.50 349.00" xmlns="http://www.w3.org/2000/svg" xmlns:xlink="http://www.w3.org/1999/xlink">
<g id="graph0" class="graph" transform="scale(1 1) rotate(0) translate(4 345)">
<title>SynthesisReverb</title>
<!-- Node1 -->
<g id="Node000001" class="node">
<title>Node1</title>
<g id="a_Node000001"><a xlink:title=" ">
<polygon fill="#999999" stroke="#666666" points="373,-19 275,-19 275,0 373,0 373,-19"/>
<text text-anchor="middle" x="324" y="-7" font-family="Helvetica,sans-Serif" font-size="10.00">SynthesisReverb</text>
</a>
</g>
</g>
<!-- Node2 -->
<g id="Node000002" class="node">
<title>Node2</title>
<g id="a_Node000002"><a xlink:title=" ">
<polygon fill="white" stroke="#666666" points="38,-180 0,-180 0,-161 38,-161 38,-180"/>
<text text-anchor="middle" x="19" y="-168" font-family="Helvetica,sans-Serif" font-size="10.00">char</text>
</a>
</g>
</g>
<!-- Node2&#45;&gt;Node1 -->
<g id="edge1_Node000001_Node000002" class="edge">
<title>Node2&#45;&gt;Node1</title>
<g id="a_edge1_Node000001_Node000002"><a xlink:title=" ">
<path fill="none" stroke="#9a32cd" stroke-dasharray="5,2" d="M12.32,-151.16C3.28,-122.72 -8.66,-68.03 20,-37 36.92,-18.68 193.34,-12.98 274.95,-11.24"/>
<polygon fill="#9a32cd" stroke="#9a32cd" points="9.13,-152.64 15.67,-160.98 15.76,-150.39 9.13,-152.64"/>
</a>
</g>
<text text-anchor="middle" x="67" y="-84" font-family="Helvetica,sans-Serif" font-size="10.00" fill="grey"> curFrame</text>
<text text-anchor="middle" x="67" y="-73" font-family="Helvetica,sans-Serif" font-size="10.00" fill="grey">downsampleRate</text>
<text text-anchor="middle" x="67" y="-62" font-family="Helvetica,sans-Serif" font-size="10.00" fill="grey">framesLeftToIgnore</text>
<text text-anchor="middle" x="67" y="-51" font-family="Helvetica,sans-Serif" font-size="10.00" fill="grey">resampleFlags</text>
<text text-anchor="middle" x="67" y="-40" font-family="Helvetica,sans-Serif" font-size="10.00" fill="grey">useReverb</text>
</g>
<!-- Node3 -->
<g id="Node000003" class="node">
<title>Node3</title>
<g id="a_Node000003"><a xlink:title=" ">
<polygon fill="white" stroke="#666666" points="159.5,-341 130.5,-341 130.5,-322 159.5,-322 159.5,-341"/>
<text text-anchor="middle" x="145" y="-329" font-family="Helvetica,sans-Serif" font-size="10.00">int</text>
</a>
</g>
</g>
<!-- Node3&#45;&gt;Node1 -->
<g id="edge2_Node000001_Node000003" class="edge">
<title>Node3&#45;&gt;Node1</title>
<g id="a_edge2_Node000001_Node000003"><a xlink:title=" ">
<path fill="none" stroke="#9a32cd" stroke-dasharray="5,2" d="M140.3,-311.73C131.3,-271.2 115.93,-174 157,-110 188.99,-60.15 255.6,-31.89 294.33,-19.04"/>
<polygon fill="#9a32cd" stroke="#9a32cd" points="136.93,-312.65 142.62,-321.58 143.74,-311.05 136.93,-312.65"/>
</a>
</g>
<text text-anchor="middle" x="204.5" y="-195.5" font-family="Helvetica,sans-Serif" font-size="10.00" fill="grey"> bufSizePerChannel</text>
<text text-anchor="middle" x="204.5" y="-184.5" font-family="Helvetica,sans-Serif" font-size="10.00" fill="grey">nextRingBufferPos</text>
<text text-anchor="middle" x="204.5" y="-173.5" font-family="Helvetica,sans-Serif" font-size="10.00" fill="grey">resampleRate</text>
<text text-anchor="middle" x="204.5" y="-162.5" font-family="Helvetica,sans-Serif" font-size="10.00" fill="grey">reverbGain</text>
<text text-anchor="middle" x="204.5" y="-151.5" font-family="Helvetica,sans-Serif" font-size="10.00" fill="grey">unkC</text>
<text text-anchor="middle" x="204.5" y="-140.5" font-family="Helvetica,sans-Serif" font-size="10.00" fill="grey">windowSize</text>
</g>
<!-- Node6 -->
<g id="Node000006" class="node">
<title>Node6</title>
<g id="a_Node000006"><a xlink:href="structReverbRingBufferItem.html" target="_top" xlink:title=" ">
<polygon fill="white" stroke="#666666" points="386.5,-180 261.5,-180 261.5,-161 386.5,-161 386.5,-180"/>
<text text-anchor="middle" x="324" y="-168" font-family="Helvetica,sans-Serif" font-size="10.00">ReverbRingBufferItem</text>
</a>
</g>
</g>
<!-- Node3&#45;&gt;Node6 -->
<g id="edge6_Node000006_Node000003" class="edge">
<title>Node3&#45;&gt;Node6</title>
<g id="a_edge6_Node000006_Node000003"><a xlink:title=" ">
<path fill="none" stroke="#9a32cd" stroke-dasharray="5,2" d="M143.43,-311.49C143,-293.16 145.39,-265.79 161,-249 181.71,-226.74 199.09,-243.07 227,-231 259.82,-216.8 294.72,-192.94 312.35,-180.17"/>
<polygon fill="#9a32cd" stroke="#9a32cd" points="139.93,-311.77 143.96,-321.57 146.92,-311.39 139.93,-311.77"/>
</a>
</g>
<text text-anchor="middle" x="241" y="-296" font-family="Helvetica,sans-Serif" font-size="10.00" fill="grey"> chunkLen</text>
<text text-anchor="middle" x="241" y="-285" font-family="Helvetica,sans-Serif" font-size="10.00" fill="grey">lengthA</text>
<text text-anchor="middle" x="241" y="-274" font-family="Helvetica,sans-Serif" font-size="10.00" fill="grey">lengthB</text>
<text text-anchor="middle" x="241" y="-263" font-family="Helvetica,sans-Serif" font-size="10.00" fill="grey">numSamplesAfterDownsampling</text>
<text text-anchor="middle" x="241" y="-252" font-family="Helvetica,sans-Serif" font-size="10.00" fill="grey">startPos</text>
</g>
<!-- Node4 -->
<g id="Node000004" class="node">
<title>Node4</title>
<g id="a_Node000004"><a xlink:title=" ">
<polygon fill="white" stroke="#666666" points="447,-341 355,-341 355,-322 447,-322 447,-341"/>
<text text-anchor="middle" x="401" y="-329" font-family="Helvetica,sans-Serif" font-size="10.00">signed short int</text>
</a>
</g>
</g>
<!-- Node4&#45;&gt;Node1 -->
<g id="edge3_Node000001_Node000004" class="edge">
<title>Node4&#45;&gt;Node1</title>
<g id="a_edge3_Node000001_Node000004"><a xlink:title=" ">
<path fill="none" stroke="#9a32cd" stroke-dasharray="5,2" d="M433.44,-316.49C438.07,-313.08 442.2,-308.95 445,-304 457.03,-282.72 449.2,-273.08 445,-249 427.53,-148.83 423.76,-115.39 359,-37 353.18,-29.95 345.12,-23.69 338.21,-19.02"/>
<polygon fill="#9a32cd" stroke="#9a32cd" points="431.41,-313.62 424.75,-321.87 435.1,-319.58 431.41,-313.62"/>
</a>
</g>
<text text-anchor="middle" x="489.5" y="-223" font-family="Helvetica,sans-Serif" font-size="10.00" fill="grey"> left</text>
<text text-anchor="middle" x="489.5" y="-212" font-family="Helvetica,sans-Serif" font-size="10.00" fill="grey">resampleStateLeft</text>
<text text-anchor="middle" x="489.5" y="-201" font-family="Helvetica,sans-Serif" font-size="10.00" fill="grey">resampleStateRight</text>
<text text-anchor="middle" x="489.5" y="-190" font-family="Helvetica,sans-Serif" font-size="10.00" fill="grey">right</text>
<text text-anchor="middle" x="489.5" y="-179" font-family="Helvetica,sans-Serif" font-size="10.00" fill="grey">unk100</text>
<text text-anchor="middle" x="489.5" y="-168" font-family="Helvetica,sans-Serif" font-size="10.00" fill="grey">unk104</text>
<text text-anchor="middle" x="489.5" y="-157" font-family="Helvetica,sans-Serif" font-size="10.00" fill="grey">unk24</text>
<text text-anchor="middle" x="489.5" y="-146" font-family="Helvetica,sans-Serif" font-size="10.00" fill="grey">unk28</text>
<text text-anchor="middle" x="489.5" y="-135" font-family="Helvetica,sans-Serif" font-size="10.00" fill="grey">unkF8</text>
<text text-anchor="middle" x="489.5" y="-124" font-family="Helvetica,sans-Serif" font-size="10.00" fill="grey">unkFC</text>
<text text-anchor="middle" x="489.5" y="-113" font-family="Helvetica,sans-Serif" font-size="10.00" fill="grey">...</text>
</g>
<!-- Node4&#45;&gt;Node6 -->
<g id="edge7_Node000006_Node000004" class="edge">
<title>Node4&#45;&gt;Node6</title>
<g id="a_edge7_Node000006_Node000004"><a xlink:title=" ">
<path fill="none" stroke="#9a32cd" stroke-dasharray="5,2" d="M360.67,-317.41C354.66,-313.9 349.12,-309.49 345,-304 316.23,-265.6 320.16,-203.2 322.8,-180.29"/>
<polygon fill="#9a32cd" stroke="#9a32cd" points="359.18,-320.58 369.68,-321.94 362.32,-314.32 359.18,-320.58"/>
</a>
</g>
<text text-anchor="middle" x="395" y="-279.5" font-family="Helvetica,sans-Serif" font-size="10.00" fill="grey"> toDownsampleLeft</text>
<text text-anchor="middle" x="395" y="-268.5" font-family="Helvetica,sans-Serif" font-size="10.00" fill="grey">toDownsampleRight</text>
</g>
<!-- Node5 -->
<g id="Node000005" class="node">
<title>Node5</title>
<g id="a_Node000005"><a xlink:title=" ">
<polygon fill="white" stroke="#666666" points="699.5,-180 574.5,-180 574.5,-161 699.5,-161 699.5,-180"/>
<text text-anchor="middle" x="637" y="-168" font-family="Helvetica,sans-Serif" font-size="10.00">anonymous:ringBuffer</text>
</a>
</g>
</g>
<!-- Node5&#45;&gt;Node1 -->
<g id="edge4_Node000001_Node000005" class="edge">
<title>Node5&#45;&gt;Node1</title>
<g id="a_edge4_Node000001_Node000005"><a xlink:title=" ">
<path fill="none" stroke="#9a32cd" stroke-dasharray="5,2" d="M622.63,-153.47C596.11,-125 536.35,-65.89 473,-37 441.56,-22.67 403.11,-16.07 373.14,-13.04"/>
<polygon fill="#9a32cd" stroke="#9a32cd" points="620.15,-155.94 629.48,-160.95 625.31,-151.21 620.15,-155.94"/>
</a>
</g>
<text text-anchor="middle" x="580" y="-62" font-family="Helvetica,sans-Serif" font-size="10.00" fill="grey"> ringBuffer</text>
</g>
<!-- Node6&#45;&gt;Node1 -->
<g id="edge5_Node000001_Node000006" class="edge">
<title>Node6&#45;&gt;Node1</title>
<g id="a_edge5_Node000001_Node000006"><a xlink:title=" ">
<path fill="none" stroke="#9a32cd" stroke-dasharray="5,2" d="M324,-150.84C324,-116.36 324,-43.95 324,-19.09"/>
<polygon fill="#9a32cd" stroke="#9a32cd" points="320.5,-150.95 324,-160.95 327.5,-150.95 320.5,-150.95"/>
</a>
</g>
<text text-anchor="middle" x="339.5" y="-62" font-family="Helvetica,sans-Serif" font-size="10.00" fill="grey"> items</text>
</g>
</g>
</svg>
