<?xml version="1.0" encoding="UTF-8" standalone="no"?>
<!DOCTYPE svg PUBLIC "-//W3C//DTD SVG 1.1//EN"
 "http://www.w3.org/Graphics/SVG/1.1/DTD/svg11.dtd">
<!-- Generated by graphviz version 2.43.0 (0)
 -->
<!-- Title: ItemWindowObjects Pages: 1 -->
<!--zoomable 881 -->
<svg id="main" version="1.1" xmlns="http://www.w3.org/2000/svg" xmlns:xlink="http://www.w3.org/1999/xlink" xml:space="preserve" onload="init(evt)">
<style type="text/css"><![CDATA[
.edge:hover path { stroke: red; }
.edge:hover polygon { stroke: red; fill: red; }
]]></style>
<script type="text/javascript"><![CDATA[
var edges = document.getElementsByTagName('g');
if (edges && edges.length) {
  for (var i=0;i<edges.length;i++) {
    if (edges[i].id.substr(0,4)=='edge') {
      edges[i].setAttribute('class','edge');
    }
  }
}
]]></script>
        <defs>
                <circle id="rim" cx="0" cy="0" r="7"/>
                <circle id="rim2" cx="0" cy="0" r="3.5"/>
                <g id="zoomPlus">
                        <use xlink:href="#rim" fill="#404040">
                                <set attributeName="fill" to="#808080" begin="zoomplus.mouseover" end="zoomplus.mouseout"/>
                        </use>
                        <path d="M-4,0h8M0,-4v8" fill="none" stroke="white" stroke-width="1.5" pointer-events="none"/>
                </g>
                <g id="zoomMin">
                        <use xlink:href="#rim" fill="#404040">
                                <set attributeName="fill" to="#808080" begin="zoomminus.mouseover" end="zoomminus.mouseout"/>
                        </use>
                        <path d="M-4,0h8" fill="none" stroke="white" stroke-width="1.5" pointer-events="none"/>
                </g>
                <g id="dirArrow">
                        <path fill="none" stroke="white" stroke-width="1.5" d="M0,-3.0v7 M-2.5,-0.5L0,-3.0L2.5,-0.5"/>
                </g>
               <g id="resetDef">
                       <use xlink:href="#rim2" fill="#404040">
                               <set attributeName="fill" to="#808080" begin="reset.mouseover" end="reset.mouseout"/>
                       </use>
               </g>
        </defs>

<script type="text/javascript">
var viewWidth = 377;
var viewHeight = 881;
var sectionId = 'dynsection-0';
</script>
<script xlink:href="svgpan.js"/>
<svg id="graph" class="graph">
<g id="viewport">
<title>ItemWindowObjects</title>
<polygon fill="white" stroke="transparent" points="-4,4 -4,-876.71 373,-876.71 373,4 -4,4"/>
<!-- Node1 -->
<g id="node1" class="node">
<title>Node1</title>
<g id="a_node1"><a xlink:title=" ">
<polygon fill="#bfbfbf" stroke="black" points="254,-450.21 254,-469.21 369,-469.21 369,-450.21 254,-450.21"/>
<text text-anchor="middle" x="311.5" y="-457.21" font-family="Helvetica,sans-Serif" font-size="10.00">ItemWindowObjects</text>
</a>
</g>
</g>
<!-- Node2 -->
<g id="node2" class="node">
<title>Node2</title>
<g id="a_node2"><a xlink:title=" ">
<polygon fill="white" stroke="#bfbfbf" points="25.5,-832.21 25.5,-851.21 78.5,-851.21 78.5,-832.21 25.5,-832.21"/>
<text text-anchor="middle" x="52" y="-839.21" font-family="Helvetica,sans-Serif" font-size="10.00">Vec4s *</text>
</a>
</g>
</g>
<!-- Node2&#45;&gt;Node1 -->
<g id="edge1" class="edge">
<title>Node2&#45;&gt;Node1</title>
<path fill="none" stroke="#9a32cd" stroke-dasharray="5,2" d="M88.76,-848.1C129.79,-853.21 196.46,-854.4 236,-817.71 289.17,-768.37 306.78,-521.89 309.95,-469.51"/>
<polygon fill="#9a32cd" stroke="#9a32cd" points="89.06,-844.61 78.67,-846.7 88.09,-851.54 89.06,-844.61"/>
<text text-anchor="middle" x="179" y="-864.71" font-family="Helvetica,sans-Serif" font-size="10.00"> unk_07C</text>
<text text-anchor="middle" x="179" y="-853.71" font-family="Helvetica,sans-Serif" font-size="10.00">unk_080</text>
</g>
<!-- Node3 -->
<g id="node3" class="node">
<title>Node3</title>
<g id="a_node3"><a xlink:title=" ">
<polygon fill="white" stroke="#bfbfbf" points="35,-794.21 35,-813.21 69,-813.21 69,-794.21 35,-794.21"/>
<text text-anchor="middle" x="52" y="-801.21" font-family="Helvetica,sans-Serif" font-size="10.00">Gfx</text>
</a>
</g>
</g>
<!-- Node3&#45;&gt;Node1 -->
<g id="edge2" class="edge">
<title>Node3&#45;&gt;Node1</title>
<path fill="none" stroke="#9a32cd" stroke-dasharray="5,2" d="M79.47,-804.13C124.55,-804.27 213.51,-801.9 236,-781.71 284.46,-738.2 305.56,-518.67 309.71,-469.49"/>
<polygon fill="#9a32cd" stroke="#9a32cd" points="79.31,-800.63 69.28,-804.05 79.25,-807.63 79.31,-800.63"/>
<text text-anchor="middle" x="179" y="-805.71" font-family="Helvetica,sans-Serif" font-size="10.00"> model</text>
</g>
<!-- Node4 -->
<g id="node4" class="node">
<title>Node4</title>
<g id="a_node4"><a xlink:title=" ">
<polygon fill="white" stroke="#bfbfbf" points="9.5,-650.21 9.5,-669.21 94.5,-669.21 94.5,-650.21 9.5,-650.21"/>
<text text-anchor="middle" x="52" y="-657.21" font-family="Helvetica,sans-Serif" font-size="10.00">unsigned char</text>
</a>
</g>
</g>
<!-- Node4&#45;&gt;Node1 -->
<g id="edge3" class="edge">
<title>Node4&#45;&gt;Node1</title>
<path fill="none" stroke="#9a32cd" stroke-dasharray="5,2" d="M104.85,-658.56C151.59,-656.52 215.97,-650.95 236,-635.71 292.25,-592.92 306.47,-499.49 309.66,-469.32"/>
<polygon fill="#9a32cd" stroke="#9a32cd" points="104.43,-655.07 94.57,-658.96 104.7,-662.06 104.43,-655.07"/>
<text text-anchor="middle" x="179" y="-769.71" font-family="Helvetica,sans-Serif" font-size="10.00"> activeTLUT</text>
<text text-anchor="middle" x="179" y="-758.71" font-family="Helvetica,sans-Serif" font-size="10.00">activeTexture</text>
<text text-anchor="middle" x="179" y="-747.71" font-family="Helvetica,sans-Serif" font-size="10.00">textureHeight</text>
<text text-anchor="middle" x="179" y="-736.71" font-family="Helvetica,sans-Serif" font-size="10.00">textureList</text>
<text text-anchor="middle" x="179" y="-725.71" font-family="Helvetica,sans-Serif" font-size="10.00">textureWidth</text>
<text text-anchor="middle" x="179" y="-714.71" font-family="Helvetica,sans-Serif" font-size="10.00">tlutList</text>
<text text-anchor="middle" x="179" y="-703.71" font-family="Helvetica,sans-Serif" font-size="10.00">unk_0D5</text>
<text text-anchor="middle" x="179" y="-692.71" font-family="Helvetica,sans-Serif" font-size="10.00">unk_0D6</text>
<text text-anchor="middle" x="179" y="-681.71" font-family="Helvetica,sans-Serif" font-size="10.00">unk_0D7</text>
<text text-anchor="middle" x="179" y="-670.71" font-family="Helvetica,sans-Serif" font-size="10.00">unk_0D8</text>
<text text-anchor="middle" x="179" y="-659.71" font-family="Helvetica,sans-Serif" font-size="10.00">...</text>
</g>
<!-- Node5 -->
<g id="node5" class="node">
<title>Node5</title>
<g id="a_node5"><a xlink:title=" ">
<polygon fill="white" stroke="#bfbfbf" points="33,-539.21 33,-558.21 71,-558.21 71,-539.21 33,-539.21"/>
<text text-anchor="middle" x="52" y="-546.21" font-family="Helvetica,sans-Serif" font-size="10.00">float</text>
</a>
</g>
</g>
<!-- Node5&#45;&gt;Node1 -->
<g id="edge4" class="edge">
<title>Node5&#45;&gt;Node1</title>
<path fill="none" stroke="#9a32cd" stroke-dasharray="5,2" d="M81.37,-547.38C125.69,-544.97 209.08,-538.93 236,-526.71 265.15,-513.48 290.88,-484.66 303.05,-469.49"/>
<polygon fill="#9a32cd" stroke="#9a32cd" points="81.06,-543.9 71.26,-547.91 81.42,-550.89 81.06,-543.9"/>
<text text-anchor="middle" x="179" y="-623.71" font-family="Helvetica,sans-Serif" font-size="10.00"> origin_pos</text>
<text text-anchor="middle" x="179" y="-612.71" font-family="Helvetica,sans-Serif" font-size="10.00">pos</text>
<text text-anchor="middle" x="179" y="-601.71" font-family="Helvetica,sans-Serif" font-size="10.00">sizeScaling</text>
<text text-anchor="middle" x="179" y="-590.71" font-family="Helvetica,sans-Serif" font-size="10.00">unk_01C</text>
<text text-anchor="middle" x="179" y="-579.71" font-family="Helvetica,sans-Serif" font-size="10.00">unk_028</text>
<text text-anchor="middle" x="179" y="-568.71" font-family="Helvetica,sans-Serif" font-size="10.00">unk_034</text>
<text text-anchor="middle" x="179" y="-557.71" font-family="Helvetica,sans-Serif" font-size="10.00">unk_044</text>
<text text-anchor="middle" x="179" y="-546.71" font-family="Helvetica,sans-Serif" font-size="10.00">velocity</text>
</g>
<!-- Node6 -->
<g id="node6" class="node">
<title>Node6</title>
<g id="a_node6"><a xlink:title=" ">
<polygon fill="white" stroke="#bfbfbf" points="19.5,-450.21 19.5,-469.21 84.5,-469.21 84.5,-450.21 19.5,-450.21"/>
<text text-anchor="middle" x="52" y="-457.21" font-family="Helvetica,sans-Serif" font-size="10.00">signed int</text>
</a>
</g>
</g>
<!-- Node6&#45;&gt;Node1 -->
<g id="edge5" class="edge">
<title>Node6&#45;&gt;Node1</title>
<path fill="none" stroke="#9a32cd" stroke-dasharray="5,2" d="M94.73,-459.71C137.91,-459.71 205.64,-459.71 253.69,-459.71"/>
<polygon fill="#9a32cd" stroke="#9a32cd" points="94.57,-456.21 84.57,-459.71 94.57,-463.21 94.57,-456.21"/>
<text text-anchor="middle" x="179" y="-517.71" font-family="Helvetica,sans-Serif" font-size="10.00"> unk_048</text>
<text text-anchor="middle" x="179" y="-506.71" font-family="Helvetica,sans-Serif" font-size="10.00">unk_04C</text>
<text text-anchor="middle" x="179" y="-495.71" font-family="Helvetica,sans-Serif" font-size="10.00">unk_050</text>
<text text-anchor="middle" x="179" y="-484.71" font-family="Helvetica,sans-Serif" font-size="10.00">unk_054</text>
<text text-anchor="middle" x="179" y="-473.71" font-family="Helvetica,sans-Serif" font-size="10.00">unk_058</text>
<text text-anchor="middle" x="179" y="-462.71" font-family="Helvetica,sans-Serif" font-size="10.00">unk_05C</text>
</g>
<!-- Node7 -->
<g id="node7" class="node">
<title>Node7</title>
<g id="a_node7"><a xlink:title=" ">
<polygon fill="white" stroke="#bfbfbf" points="6,-306.21 6,-325.21 98,-325.21 98,-306.21 6,-306.21"/>
<text text-anchor="middle" x="52" y="-313.21" font-family="Helvetica,sans-Serif" font-size="10.00">signed short int</text>
</a>
</g>
</g>
<!-- Node7&#45;&gt;Node1 -->
<g id="edge6" class="edge">
<title>Node7&#45;&gt;Node1</title>
<path fill="none" stroke="#9a32cd" stroke-dasharray="5,2" d="M108.08,-309.07C146.79,-307.19 198.19,-310.56 236,-334.71 279.65,-362.59 301.16,-425.97 308,-450.12"/>
<polygon fill="#9a32cd" stroke="#9a32cd" points="107.8,-305.58 98.03,-309.69 108.23,-312.57 107.8,-305.58"/>
<text text-anchor="middle" x="179" y="-447.71" font-family="Helvetica,sans-Serif" font-size="10.00"> currentItem</text>
<text text-anchor="middle" x="179" y="-436.71" font-family="Helvetica,sans-Serif" font-size="10.00">itemDisplayState</text>
<text text-anchor="middle" x="179" y="-425.71" font-family="Helvetica,sans-Serif" font-size="10.00">unk_084</text>
<text text-anchor="middle" x="179" y="-414.71" font-family="Helvetica,sans-Serif" font-size="10.00">unk_09C</text>
<text text-anchor="middle" x="179" y="-403.71" font-family="Helvetica,sans-Serif" font-size="10.00">unk_09E</text>
<text text-anchor="middle" x="179" y="-392.71" font-family="Helvetica,sans-Serif" font-size="10.00">unk_0A0</text>
<text text-anchor="middle" x="179" y="-381.71" font-family="Helvetica,sans-Serif" font-size="10.00">unk_0A2</text>
<text text-anchor="middle" x="179" y="-370.71" font-family="Helvetica,sans-Serif" font-size="10.00">unk_0A8</text>
<text text-anchor="middle" x="179" y="-359.71" font-family="Helvetica,sans-Serif" font-size="10.00">unk_0AA</text>
<text text-anchor="middle" x="179" y="-348.71" font-family="Helvetica,sans-Serif" font-size="10.00">unk_0AC</text>
<text text-anchor="middle" x="179" y="-337.71" font-family="Helvetica,sans-Serif" font-size="10.00">...</text>
</g>
<!-- Node8 -->
<g id="node8" class="node">
<title>Node8</title>
<g id="a_node8"><a xlink:title=" ">
<polygon fill="white" stroke="#bfbfbf" points="15.5,-162.21 15.5,-181.21 88.5,-181.21 88.5,-162.21 15.5,-162.21"/>
<text text-anchor="middle" x="52" y="-169.21" font-family="Helvetica,sans-Serif" font-size="10.00">signed char</text>
</a>
</g>
</g>
<!-- Node8&#45;&gt;Node1 -->
<g id="edge7" class="edge">
<title>Node8&#45;&gt;Node1</title>
<path fill="none" stroke="#9a32cd" stroke-dasharray="5,2" d="M98.59,-160.86C139.19,-154.06 197.91,-151.65 236,-182.71 279.42,-218.11 304.07,-405.26 309.4,-450.06"/>
<polygon fill="#9a32cd" stroke="#9a32cd" points="97.89,-157.43 88.68,-162.67 99.14,-164.32 97.89,-157.43"/>
<text text-anchor="middle" x="179" y="-295.71" font-family="Helvetica,sans-Serif" font-size="10.00"> itemDisplay</text>
<text text-anchor="middle" x="179" y="-284.71" font-family="Helvetica,sans-Serif" font-size="10.00">unk_078</text>
<text text-anchor="middle" x="179" y="-273.71" font-family="Helvetica,sans-Serif" font-size="10.00">unk_0CA</text>
<text text-anchor="middle" x="179" y="-262.71" font-family="Helvetica,sans-Serif" font-size="10.00">unk_0CB</text>
<text text-anchor="middle" x="179" y="-251.71" font-family="Helvetica,sans-Serif" font-size="10.00">unk_0CC</text>
<text text-anchor="middle" x="179" y="-240.71" font-family="Helvetica,sans-Serif" font-size="10.00">unk_0CD</text>
<text text-anchor="middle" x="179" y="-229.71" font-family="Helvetica,sans-Serif" font-size="10.00">unk_0CE</text>
<text text-anchor="middle" x="179" y="-218.71" font-family="Helvetica,sans-Serif" font-size="10.00">unk_0CF</text>
<text text-anchor="middle" x="179" y="-207.71" font-family="Helvetica,sans-Serif" font-size="10.00">unk_0D0</text>
<text text-anchor="middle" x="179" y="-196.71" font-family="Helvetica,sans-Serif" font-size="10.00">unk_0D1</text>
<text text-anchor="middle" x="179" y="-185.71" font-family="Helvetica,sans-Serif" font-size="10.00">...</text>
</g>
<!-- Node9 -->
<g id="node9" class="node">
<title>Node9</title>
<g id="a_node9"><a xlink:title=" ">
<polygon fill="white" stroke="#bfbfbf" points="0,-51.21 0,-70.21 104,-70.21 104,-51.21 0,-51.21"/>
<text text-anchor="middle" x="52" y="-58.21" font-family="Helvetica,sans-Serif" font-size="10.00">unsigned short int</text>
</a>
</g>
</g>
<!-- Node9&#45;&gt;Node1 -->
<g id="edge8" class="edge">
<title>Node9&#45;&gt;Node1</title>
<path fill="none" stroke="#9a32cd" stroke-dasharray="5,2" d="M91.76,-48.51C132.55,-38.29 196.25,-30.19 236,-63.71 297.5,-115.57 308.63,-393.89 310.25,-449.89"/>
<polygon fill="#9a32cd" stroke="#9a32cd" points="90.67,-45.17 81.91,-51.13 92.47,-51.94 90.67,-45.17"/>
<text text-anchor="middle" x="179" y="-143.71" font-family="Helvetica,sans-Serif" font-size="10.00"> direction_angle</text>
<text text-anchor="middle" x="179" y="-132.71" font-family="Helvetica,sans-Serif" font-size="10.00">goldenMushroomTimer</text>
<text text-anchor="middle" x="179" y="-121.71" font-family="Helvetica,sans-Serif" font-size="10.00">orientation</text>
<text text-anchor="middle" x="179" y="-110.71" font-family="Helvetica,sans-Serif" font-size="10.00">unk_09A</text>
<text text-anchor="middle" x="179" y="-99.71" font-family="Helvetica,sans-Serif" font-size="10.00">unk_0B8</text>
<text text-anchor="middle" x="179" y="-88.71" font-family="Helvetica,sans-Serif" font-size="10.00">unk_0C4</text>
<text text-anchor="middle" x="179" y="-77.71" font-family="Helvetica,sans-Serif" font-size="10.00">unk_0C6</text>
<text text-anchor="middle" x="179" y="-66.71" font-family="Helvetica,sans-Serif" font-size="10.00">unk_0C8</text>
</g>
<!-- Node10 -->
<g id="node10" class="node">
<title>Node10</title>
<g id="a_node10"><a xlink:title=" ">
<polygon fill="white" stroke="#bfbfbf" points="31.5,-13.21 31.5,-32.21 72.5,-32.21 72.5,-13.21 31.5,-13.21"/>
<text text-anchor="middle" x="52" y="-20.21" font-family="Helvetica,sans-Serif" font-size="10.00">Vtx *</text>
</a>
</g>
</g>
<!-- Node10&#45;&gt;Node1 -->
<g id="edge9" class="edge">
<title>Node10&#45;&gt;Node1</title>
<path fill="none" stroke="#9a32cd" stroke-dasharray="5,2" d="M82.22,-12.56C121.98,-0.79 193.1,12.69 236,-23.71 303.78,-81.21 309.9,-391.26 310.45,-450.07"/>
<polygon fill="#9a32cd" stroke="#9a32cd" points="81.09,-9.24 72.58,-15.56 83.17,-15.93 81.09,-9.24"/>
<text text-anchor="middle" x="179" y="-26.71" font-family="Helvetica,sans-Serif" font-size="10.00"> vertex</text>
</g>
</g>
</svg>
        <g id="navigator" transform="translate(0 0)" fill="#404254">
                <rect fill="#f2f5e9" fill-opacity="0.5" stroke="#606060" stroke-width=".5" x="0" y="0" width="60" height="60"/>
                <use id="zoomplus" xlink:href="#zoomPlus" x="17" y="9" onmousedown="handleZoom(evt,'in')"/>
                <use id="zoomminus" xlink:href="#zoomMin" x="42" y="9" onmousedown="handleZoom(evt,'out')"/>
                <use id="reset" xlink:href="#resetDef" x="30" y="36" onmousedown="handleReset()"/>
                <g id="arrowUp" xlink:href="#dirArrow" transform="translate(30 24)" onmousedown="handlePan(0,-1)">
                  <use xlink:href="#rim" fill="#404040">
                        <set attributeName="fill" to="#808080" begin="arrowUp.mouseover" end="arrowUp.mouseout"/>
                  </use>
                  <path fill="none" stroke="white" stroke-width="1.5" d="M0,-3.0v7 M-2.5,-0.5L0,-3.0L2.5,-0.5"/>
                </g>
                <g id="arrowRight" xlink:href="#dirArrow" transform="rotate(90) translate(36 -43)" onmousedown="handlePan(1,0)">
                  <use xlink:href="#rim" fill="#404040">
                        <set attributeName="fill" to="#808080" begin="arrowRight.mouseover" end="arrowRight.mouseout"/>
                  </use>
                  <path fill="none" stroke="white" stroke-width="1.5" d="M0,-3.0v7 M-2.5,-0.5L0,-3.0L2.5,-0.5"/>
                </g>
                <g id="arrowDown" xlink:href="#dirArrow" transform="rotate(180) translate(-30 -48)" onmousedown="handlePan(0,1)">
                  <use xlink:href="#rim" fill="#404040">
                        <set attributeName="fill" to="#808080" begin="arrowDown.mouseover" end="arrowDown.mouseout"/>
                  </use>
                  <path fill="none" stroke="white" stroke-width="1.5" d="M0,-3.0v7 M-2.5,-0.5L0,-3.0L2.5,-0.5"/>
                </g>
                <g id="arrowLeft" xlink:href="#dirArrow" transform="rotate(270) translate(-36 17)" onmousedown="handlePan(-1,0)">
                  <use xlink:href="#rim" fill="#404040">
                        <set attributeName="fill" to="#808080" begin="arrowLeft.mouseover" end="arrowLeft.mouseout"/>
                  </use>
                  <path fill="none" stroke="white" stroke-width="1.5" d="M0,-3.0v7 M-2.5,-0.5L0,-3.0L2.5,-0.5"/>
                </g>
        </g>
        <svg viewBox="0 0 15 15" width="100%" height="30px" preserveAspectRatio="xMaxYMin meet">
         <g id="arrow_out" transform="scale(0.3 0.3)">
          <a xlink:href="structItemWindowObjects__coll__graph_org.svg" target="_base">
           <rect id="button" ry="5" rx="5" y="6" x="6" height="38" width="38"
                fill="#f2f5e9" fill-opacity="0.5" stroke="#606060" stroke-width="1.0"/>
           <path id="arrow"
             d="M 11.500037,31.436501 C 11.940474,20.09759 22.043105,11.32322 32.158766,21.979434 L 37.068811,17.246167 C 37.068811,17.246167 37.088388,32 37.088388,32 L 22.160133,31.978069 C 22.160133,31.978069 26.997745,27.140456 26.997745,27.140456 C 18.528582,18.264221 13.291696,25.230495 11.500037,31.436501 z"
             style="fill:#404040;"/>
          </a>
         </g>
        </svg>
</svg>
