<?xml version="1.0" encoding="UTF-8" standalone="no"?>
<!DOCTYPE svg PUBLIC "-//W3C//DTD SVG 1.1//EN"
 "http://www.w3.org/Graphics/SVG/1.1/DTD/svg11.dtd">
<!-- Generated by graphviz version 2.43.0 (0)
 -->
<!-- Title: struct_D_801930D0_inner Pages: 1 -->
<svg width="150pt" height="128pt"
 viewBox="0.00 0.00 150.00 128.00" xmlns="http://www.w3.org/2000/svg" xmlns:xlink="http://www.w3.org/1999/xlink">
<g id="graph0" class="graph" transform="scale(1 1) rotate(0) translate(4 124)">
<title>struct_D_801930D0_inner</title>
<polygon fill="white" stroke="transparent" points="-4,4 -4,-124 146,-124 146,4 -4,4"/>
<!-- Node1 -->
<g id="node1" class="node">
<title>Node1</title>
<g id="a_node1"><a xlink:title=" ">
<polygon fill="#bfbfbf" stroke="black" points="0,-0.5 0,-19.5 142,-19.5 142,-0.5 0,-0.5"/>
<text text-anchor="middle" x="71" y="-7.5" font-family="Helvetica,sans-Serif" font-size="10.00">struct_D_801930D0_inner</text>
</a>
</g>
</g>
<!-- Node2 -->
<g id="node2" class="node">
<title>Node2</title>
<g id="a_node2"><a xlink:title=" ">
<polygon fill="white" stroke="#bfbfbf" points="21,-100.5 21,-119.5 59,-119.5 59,-100.5 21,-100.5"/>
<text text-anchor="middle" x="40" y="-107.5" font-family="Helvetica,sans-Serif" font-size="10.00">float</text>
</a>
</g>
</g>
<!-- Node2&#45;&gt;Node1 -->
<g id="edge1" class="edge">
<title>Node2&#45;&gt;Node1</title>
<path fill="none" stroke="#9a32cd" stroke-dasharray="5,2" d="M36.3,-90.21C34.29,-75.36 33.53,-54.46 41,-38 44.42,-30.47 51.06,-24.15 57.22,-19.52"/>
<polygon fill="#9a32cd" stroke="#9a32cd" points="32.87,-90.92 37.97,-100.21 39.78,-89.77 32.87,-90.92"/>
<text text-anchor="middle" x="60.5" y="-74" font-family="Helvetica,sans-Serif" font-size="10.00"> unk_00</text>
<text text-anchor="middle" x="60.5" y="-63" font-family="Helvetica,sans-Serif" font-size="10.00">unk_08</text>
<text text-anchor="middle" x="60.5" y="-52" font-family="Helvetica,sans-Serif" font-size="10.00">unk_10</text>
<text text-anchor="middle" x="60.5" y="-41" font-family="Helvetica,sans-Serif" font-size="10.00">unk_18</text>
</g>
<!-- Node3 -->
<g id="node3" class="node">
<title>Node3</title>
<g id="a_node3"><a xlink:title=" ">
<polygon fill="white" stroke="#bfbfbf" points="87.5,-100.5 87.5,-119.5 116.5,-119.5 116.5,-100.5 87.5,-100.5"/>
<text text-anchor="middle" x="102" y="-107.5" font-family="Helvetica,sans-Serif" font-size="10.00">int</text>
</a>
</g>
</g>
<!-- Node3&#45;&gt;Node1 -->
<g id="edge2" class="edge">
<title>Node3&#45;&gt;Node1</title>
<path fill="none" stroke="#9a32cd" stroke-dasharray="5,2" d="M96.41,-90.59C92.03,-76.23 85.73,-55.82 80,-38 78.06,-31.98 75.81,-25.23 74.05,-19.98"/>
<polygon fill="#9a32cd" stroke="#9a32cd" points="93.09,-91.69 99.35,-100.24 99.79,-89.65 93.09,-91.69"/>
<text text-anchor="middle" x="112.5" y="-74" font-family="Helvetica,sans-Serif" font-size="10.00"> unk_04</text>
<text text-anchor="middle" x="112.5" y="-63" font-family="Helvetica,sans-Serif" font-size="10.00">unk_0C</text>
<text text-anchor="middle" x="112.5" y="-52" font-family="Helvetica,sans-Serif" font-size="10.00">unk_14</text>
<text text-anchor="middle" x="112.5" y="-41" font-family="Helvetica,sans-Serif" font-size="10.00">unk_1C</text>
</g>
</g>
</svg>
