<?xml version="1.0" encoding="UTF-8" standalone="no"?>
<!DOCTYPE svg PUBLIC "-//W3C//DTD SVG 1.1//EN"
 "http://www.w3.org/Graphics/SVG/1.1/DTD/svg11.dtd">
<!-- Generated by graphviz version 2.43.0 (0)
 -->
<!-- Title: ProfilerFrameData Pages: 1 -->
<svg width="191pt" height="128pt"
 viewBox="0.00 0.00 190.50 128.00" xmlns="http://www.w3.org/2000/svg" xmlns:xlink="http://www.w3.org/1999/xlink">
<g id="graph0" class="graph" transform="scale(1 1) rotate(0) translate(4 124)">
<title>ProfilerFrameData</title>
<polygon fill="white" stroke="transparent" points="-4,4 -4,-124 186.5,-124 186.5,4 -4,4"/>
<!-- Node1 -->
<g id="node1" class="node">
<title>Node1</title>
<g id="a_node1"><a xlink:title=" ">
<polygon fill="#bfbfbf" stroke="black" points="16,-0.5 16,-19.5 121,-19.5 121,-0.5 16,-0.5"/>
<text text-anchor="middle" x="68.5" y="-7.5" font-family="Helvetica,sans-Serif" font-size="10.00">ProfilerFrameData</text>
</a>
</g>
</g>
<!-- Node2 -->
<g id="node2" class="node">
<title>Node2</title>
<g id="a_node2"><a xlink:title=" ">
<polygon fill="white" stroke="#bfbfbf" points="0,-100.5 0,-119.5 29,-119.5 29,-100.5 0,-100.5"/>
<text text-anchor="middle" x="14.5" y="-107.5" font-family="Helvetica,sans-Serif" font-size="10.00">int</text>
</a>
</g>
</g>
<!-- Node2&#45;&gt;Node1 -->
<g id="edge1" class="edge">
<title>Node2&#45;&gt;Node1</title>
<path fill="none" stroke="#9a32cd" stroke-dasharray="5,2" d="M9.83,-90.54C7.06,-75.28 5.75,-53.66 15.5,-38 20.74,-29.58 29.5,-23.68 38.41,-19.59"/>
<polygon fill="#9a32cd" stroke="#9a32cd" points="6.42,-91.32 11.97,-100.34 13.26,-89.83 6.42,-91.32"/>
<text text-anchor="middle" x="58.5" y="-63" font-family="Helvetica,sans-Serif" font-size="10.00"> numSoundTimes</text>
<text text-anchor="middle" x="58.5" y="-52" font-family="Helvetica,sans-Serif" font-size="10.00">numVblankTimes</text>
</g>
<!-- Node3 -->
<g id="node3" class="node">
<title>Node3</title>
<g id="a_node3"><a xlink:title=" ">
<polygon fill="white" stroke="#bfbfbf" points="106,-100.5 106,-119.5 141,-119.5 141,-100.5 106,-100.5"/>
<text text-anchor="middle" x="123.5" y="-107.5" font-family="Helvetica,sans-Serif" font-size="10.00">u64</text>
</a>
</g>
</g>
<!-- Node3&#45;&gt;Node1 -->
<g id="edge2" class="edge">
<title>Node3&#45;&gt;Node1</title>
<path fill="none" stroke="#9a32cd" stroke-dasharray="5,2" d="M120.77,-90.28C117.87,-75.16 112.19,-53.86 101.5,-38 96.54,-30.63 88.98,-24.24 82.34,-19.53"/>
<polygon fill="#9a32cd" stroke="#9a32cd" points="117.37,-91.16 122.47,-100.44 124.27,-90 117.37,-91.16"/>
<text text-anchor="middle" x="150.5" y="-74" font-family="Helvetica,sans-Serif" font-size="10.00"> gameTimes</text>
<text text-anchor="middle" x="150.5" y="-63" font-family="Helvetica,sans-Serif" font-size="10.00">gfxTimes</text>
<text text-anchor="middle" x="150.5" y="-52" font-family="Helvetica,sans-Serif" font-size="10.00">soundTimes</text>
<text text-anchor="middle" x="150.5" y="-41" font-family="Helvetica,sans-Serif" font-size="10.00">vblankTimes</text>
</g>
</g>
</svg>
