<?xml version="1.0" encoding="UTF-8" standalone="no"?>
<!DOCTYPE svg PUBLIC "-//W3C//DTD SVG 1.1//EN"
 "http://www.w3.org/Graphics/SVG/1.1/DTD/svg11.dtd">
<!-- Generated by graphviz version 2.43.0 (0)
 -->
<!-- Title: render_actor_tanker_truck Pages: 1 -->
<!--zoomable 224 -->

<svg id="main" version="1.1" xmlns="http://www.w3.org/2000/svg" xmlns:xlink="http://www.w3.org/1999/xlink" xml:space="preserve" onload="init(evt)">
<style type="text/css"><![CDATA[
.node, .edge {opacity: 0.7;}
.node.selected, .edge.selected {opacity: 1;}
.edge:hover path { stroke: red; }
.edge:hover polygon { stroke: red; fill: red; }
]]></style>

<defs>
  <circle id="rim" cx="0" cy="0" r="7"/>
  <circle id="rim2" cx="0" cy="0" r="3.5"/>
  <g id="zoomPlus">
    <use xlink:href="#rim" fill="#404040"><set attributeName="fill" to="#808080" begin="zoomplus.mouseover" end="zoomplus.mouseout"/></use>
    <path d="M-4,0h8M0,-4v8" fill="none" stroke="white" stroke-width="1.5" pointer-events="none"/>
  </g>
  <g id="zoomMin">
    <use xlink:href="#rim" fill="#404040"><set attributeName="fill" to="#808080" begin="zoomminus.mouseover" end="zoomminus.mouseout"/></use>
    <path d="M-4,0h8" fill="none" stroke="white" stroke-width="1.5" pointer-events="none"/>
  </g>
  <g id="arrowUp" transform="translate(30 24)">
    <use xlink:href="#rim"/>
    <path pointer-events="none" fill="none" stroke="white" stroke-width="1.5" d="M0,-3.0v7 M-2.5,-0.5L0,-3.0L2.5,-0.5"/>
  </g>
  <g id="arrowRight" transform="rotate(90) translate(36 -43)">
    <use xlink:href="#rim"/>
    <path pointer-events="none" fill="none" stroke="white" stroke-width="1.5" d="M0,-3.0v7 M-2.5,-0.5L0,-3.0L2.5,-0.5"/>
  </g>
  <g id="arrowDown" transform="rotate(180) translate(-30 -48)">
    <use xlink:href="#rim"/>
    <path pointer-events="none" fill="none" stroke="white" stroke-width="1.5" d="M0,-3.0v7 M-2.5,-0.5L0,-3.0L2.5,-0.5"/>
  </g>
  <g id="arrowLeft" transform="rotate(270) translate(-36 17)">
    <use xlink:href="#rim"/>
    <path pointer-events="none" fill="none" stroke="white" stroke-width="1.5" d="M0,-3.0v7 M-2.5,-0.5L0,-3.0L2.5,-0.5"/>
  </g>
  <g id="resetDef">
    <use xlink:href="#rim2" fill="#404040"><set attributeName="fill" to="#808080" begin="reset.mouseover" end="reset.mouseout"/></use>
  </g>
</defs>
<script type="application/ecmascript">
var viewWidth = 687;
var viewHeight = 224;
var sectionId = 'dynsection-2';
</script>
<script type="application/ecmascript" xlink:href="svg.min.js"/>
<svg id="graph" class="graph">
<g id="viewport">
<title>render_actor_tanker_truck</title>
<!-- Node1 -->
<g id="Node000001" class="node">
<title>Node1</title>
<g id="a_Node000001"><a xlink:title="Renders the tanker truck actor. Actor used in Toad&#39;s Turnpike. His update are made in vehicle.">
<polygon fill="#999999" stroke="#666666" points="114,-93.5 0,-93.5 0,-63.5 114,-63.5 114,-93.5"/>
<text text-anchor="start" x="8" y="-81.5" font-family="Helvetica,sans-Serif" font-size="10.00">render_actor_tanker</text>
<text text-anchor="middle" x="57" y="-70.5" font-family="Helvetica,sans-Serif" font-size="10.00">_truck</text>
</a>
</g>
</g>
<!-- Node2 -->
<g id="Node000002" class="node">
<title>Node2</title>
<g id="a_Node000002"><a xlink:href="math__util_8c.html#ad1ba4fdd256a06293f5f8fa8bdd1e785" target="_top" xlink:title=" ">
<polygon fill="white" stroke="#666666" points="276.5,-134 169.5,-134 169.5,-115 276.5,-115 276.5,-134"/>
<text text-anchor="middle" x="223" y="-122" font-family="Helvetica,sans-Serif" font-size="10.00">distance_if_visible</text>
</a>
</g>
</g>
<!-- Node1&#45;&gt;Node2 -->
<g id="edge1_Node000001_Node000002" class="edge">
<title>Node1&#45;&gt;Node2</title>
<g id="a_edge1_Node000001_Node000002"><a xlink:title=" ">
<path fill="none" stroke="#63b8ff" d="M111.7,-93.56C133.21,-99.6 157.69,-106.46 178.11,-112.19"/>
<polygon fill="#63b8ff" stroke="#63b8ff" points="177.21,-115.57 187.78,-114.9 179.1,-108.83 177.21,-115.57"/>
</a>
</g>
</g>
<!-- Node9 -->
<g id="Node000009" class="node">
<title>Node9</title>
<g id="a_Node000009"><a xlink:href="math__util_8c.html#a2579bc73da43221eb3b79821c7d59099" target="_top" xlink:title=" ">
<polygon fill="white" stroke="#666666" points="296,-88 150,-88 150,-69 296,-69 296,-88"/>
<text text-anchor="middle" x="223" y="-76" font-family="Helvetica,sans-Serif" font-size="10.00">mtxf_rotate_zxy_translate</text>
</a>
</g>
</g>
<!-- Node1&#45;&gt;Node9 -->
<g id="edge9_Node000001_Node000009" class="edge">
<title>Node1&#45;&gt;Node9</title>
<g id="a_edge9_Node000001_Node000009"><a xlink:title=" ">
<path fill="none" stroke="#63b8ff" d="M114.44,-78.5C122.63,-78.5 131.2,-78.5 139.77,-78.5"/>
<polygon fill="#63b8ff" stroke="#63b8ff" points="139.82,-82 149.82,-78.5 139.82,-75 139.82,-82"/>
</a>
</g>
</g>
<!-- Node12 -->
<g id="Node000012" class="node">
<title>Node12</title>
<g id="a_Node000012"><a xlink:href="math__util_8c.html#a37b6e37ab5d04e0e2701015911b05296" target="_top" xlink:title=" ">
<polygon fill="white" stroke="#666666" points="279.5,-33 166.5,-33 166.5,-14 279.5,-14 279.5,-33"/>
<text text-anchor="middle" x="223" y="-21" font-family="Helvetica,sans-Serif" font-size="10.00">render_set_position</text>
</a>
</g>
</g>
<!-- Node1&#45;&gt;Node12 -->
<g id="edge12_Node000001_Node000012" class="edge">
<title>Node1&#45;&gt;Node12</title>
<g id="a_edge12_Node000001_Node000012"><a xlink:title=" ">
<path fill="none" stroke="#63b8ff" d="M102.81,-63.47C128.15,-54.97 159.5,-44.46 183.69,-36.35"/>
<polygon fill="#63b8ff" stroke="#63b8ff" points="184.88,-39.64 193.25,-33.14 182.65,-33 184.88,-39.64"/>
</a>
</g>
</g>
<!-- Node3 -->
<g id="Node000003" class="node">
<title>Node3</title>
<g id="a_Node000003"><a xlink:href="math__util_8c.html#acd8ef27c81858774741c6e879bab1aee" target="_top" xlink:title=" ">
<polygon fill="white" stroke="#666666" points="420,-167 372,-167 372,-148 420,-148 420,-167"/>
<text text-anchor="middle" x="396" y="-155" font-family="Helvetica,sans-Serif" font-size="10.00">asin1s</text>
</a>
</g>
</g>
<!-- Node2&#45;&gt;Node3 -->
<g id="edge2_Node000002_Node000003" class="edge">
<title>Node2&#45;&gt;Node3</title>
<g id="a_edge2_Node000002_Node000003"><a xlink:title=" ">
<path fill="none" stroke="#63b8ff" d="M273.46,-134.04C301.77,-139.51 336.53,-146.22 361.62,-151.06"/>
<polygon fill="#63b8ff" stroke="#63b8ff" points="361.24,-154.55 371.73,-153.01 362.57,-147.68 361.24,-154.55"/>
</a>
</g>
</g>
<!-- Node7 -->
<g id="Node000007" class="node">
<title>Node7</title>
<g id="a_Node000007"><a xlink:href="math__util_8c.html#a4151d0b0e3d70e2f8fb54c50e1fd6793" target="_top" xlink:title=" ">
<polygon fill="white" stroke="#666666" points="460,-215.5 332,-215.5 332,-185.5 460,-185.5 460,-215.5"/>
<text text-anchor="start" x="340" y="-203.5" font-family="Helvetica,sans-Serif" font-size="10.00">get_xz_angle_between</text>
<text text-anchor="middle" x="396" y="-192.5" font-family="Helvetica,sans-Serif" font-size="10.00">_points</text>
</a>
</g>
</g>
<!-- Node2&#45;&gt;Node7 -->
<g id="edge6_Node000002_Node000007" class="edge">
<title>Node2&#45;&gt;Node7</title>
<g id="a_edge6_Node000002_Node000007"><a xlink:title=" ">
<path fill="none" stroke="#63b8ff" d="M242.51,-134C263.84,-144.82 300.08,-162.76 332,-176.5 335.93,-178.19 340.02,-179.89 344.15,-181.56"/>
<polygon fill="#63b8ff" stroke="#63b8ff" points="343.21,-184.95 353.79,-185.38 345.79,-178.44 343.21,-184.95"/>
</a>
</g>
</g>
<!-- Node8 -->
<g id="Node000008" class="node">
<title>Node8</title>
<g id="a_Node000008"><a xlink:href="math__util_8c.html#a3b799b8c9e82afcda80a19152e793d7c" target="_top" xlink:title=" ">
<polygon fill="white" stroke="#666666" points="448,-130 344,-130 344,-111 448,-111 448,-130"/>
<text text-anchor="middle" x="396" y="-118" font-family="Helvetica,sans-Serif" font-size="10.00">is_between_angle</text>
</a>
</g>
</g>
<!-- Node2&#45;&gt;Node8 -->
<g id="edge8_Node000002_Node000008" class="edge">
<title>Node2&#45;&gt;Node8</title>
<g id="a_edge8_Node000002_Node000008"><a xlink:title=" ">
<path fill="none" stroke="#63b8ff" d="M276.7,-123.27C294.75,-122.85 315.1,-122.37 333.77,-121.93"/>
<polygon fill="#63b8ff" stroke="#63b8ff" points="334.02,-125.43 343.94,-121.69 333.86,-118.43 334.02,-125.43"/>
</a>
</g>
</g>
<!-- Node4 -->
<g id="Node000004" class="node">
<title>Node4</title>
<g id="a_Node000004"><a xlink:href="math__util_8c.html#a39b33617a06622150fcb2b20569aa969" target="_top" xlink:title=" ">
<polygon fill="white" stroke="#666666" points="553.5,-207 503.5,-207 503.5,-188 553.5,-188 553.5,-207"/>
<text text-anchor="middle" x="528.5" y="-195" font-family="Helvetica,sans-Serif" font-size="10.00">atan2s</text>
</a>
</g>
</g>
<!-- Node3&#45;&gt;Node4 -->
<g id="edge3_Node000003_Node000004" class="edge">
<title>Node3&#45;&gt;Node4</title>
<g id="a_edge3_Node000003_Node000004"><a xlink:title=" ">
<path fill="none" stroke="#63b8ff" d="M420.05,-164.4C431.99,-167.99 446.78,-172.45 460,-176.5 470.94,-179.85 482.86,-183.55 493.6,-186.89"/>
<polygon fill="#63b8ff" stroke="#63b8ff" points="492.87,-190.33 503.46,-189.97 494.96,-183.65 492.87,-190.33"/>
</a>
</g>
</g>
<!-- Node6 -->
<g id="Node000006" class="node">
<title>Node6</title>
<g id="a_Node000006"><a xlink:href="math_8h.html#a37bde043e94a6f074c78f10518fb5d99" target="_top" xlink:title=" ">
<polygon fill="white" stroke="#666666" points="548,-167 509,-167 509,-148 548,-148 548,-167"/>
<text text-anchor="middle" x="528.5" y="-155" font-family="Helvetica,sans-Serif" font-size="10.00">sqrtf</text>
</a>
</g>
</g>
<!-- Node3&#45;&gt;Node6 -->
<g id="edge5_Node000003_Node000006" class="edge">
<title>Node3&#45;&gt;Node6</title>
<g id="a_edge5_Node000003_Node000006"><a xlink:title=" ">
<path fill="none" stroke="#63b8ff" d="M420.03,-157.5C441.99,-157.5 475.12,-157.5 498.78,-157.5"/>
<polygon fill="#63b8ff" stroke="#63b8ff" points="498.92,-161 508.92,-157.5 498.92,-154 498.92,-161"/>
</a>
</g>
</g>
<!-- Node5 -->
<g id="Node000005" class="node">
<title>Node5</title>
<g id="a_Node000005"><a xlink:href="math__util_8c.html#a0273b0ea0783a06996c28669a7438ed9" target="_top" xlink:title=" ">
<polygon fill="white" stroke="#666666" points="679,-207 597,-207 597,-188 679,-188 679,-207"/>
<text text-anchor="middle" x="638" y="-195" font-family="Helvetica,sans-Serif" font-size="10.00">atan2_lookup</text>
</a>
</g>
</g>
<!-- Node4&#45;&gt;Node5 -->
<g id="edge4_Node000004_Node000005" class="edge">
<title>Node4&#45;&gt;Node5</title>
<g id="a_edge4_Node000004_Node000005"><a xlink:title=" ">
<path fill="none" stroke="#63b8ff" d="M553.63,-197.5C563.49,-197.5 575.29,-197.5 586.86,-197.5"/>
<polygon fill="#63b8ff" stroke="#63b8ff" points="586.92,-201 596.92,-197.5 586.92,-194 586.92,-201"/>
</a>
</g>
</g>
<!-- Node7&#45;&gt;Node4 -->
<g id="edge7_Node000007_Node000004" class="edge">
<title>Node7&#45;&gt;Node4</title>
<g id="a_edge7_Node000007_Node000004"><a xlink:title=" ">
<path fill="none" stroke="#63b8ff" d="M460.34,-199.04C471.71,-198.78 483.17,-198.52 493.31,-198.29"/>
<polygon fill="#63b8ff" stroke="#63b8ff" points="493.44,-201.78 503.35,-198.06 493.27,-194.79 493.44,-201.78"/>
</a>
</g>
</g>
<!-- Node10 -->
<g id="Node000010" class="node">
<title>Node10</title>
<g id="a_Node000010"><a xlink:href="math__util_8c.html#a5eb0d9752bc1557b7f4ae3809352a0eb" target="_top" xlink:title=" ">
<polygon fill="white" stroke="#666666" points="415,-93 377,-93 377,-74 415,-74 415,-93"/>
<text text-anchor="middle" x="396" y="-81" font-family="Helvetica,sans-Serif" font-size="10.00">coss</text>
</a>
</g>
</g>
<!-- Node9&#45;&gt;Node10 -->
<g id="edge10_Node000009_Node000010" class="edge">
<title>Node9&#45;&gt;Node10</title>
<g id="a_edge10_Node000009_Node000010"><a xlink:title=" ">
<path fill="none" stroke="#63b8ff" d="M296.02,-80.61C320.86,-81.33 347.25,-82.1 366.53,-82.67"/>
<polygon fill="#63b8ff" stroke="#63b8ff" points="366.63,-86.17 376.73,-82.97 366.83,-79.17 366.63,-86.17"/>
</a>
</g>
</g>
<!-- Node11 -->
<g id="Node000011" class="node">
<title>Node11</title>
<g id="a_Node000011"><a xlink:href="math__util_8c.html#adcf81d47666b5d86c4a1dbcb06e47faf" target="_top" xlink:title=" ">
<polygon fill="white" stroke="#666666" points="414,-56 378,-56 378,-37 414,-37 414,-56"/>
<text text-anchor="middle" x="396" y="-44" font-family="Helvetica,sans-Serif" font-size="10.00">sins</text>
</a>
</g>
</g>
<!-- Node9&#45;&gt;Node11 -->
<g id="edge11_Node000009_Node000011" class="edge">
<title>Node9&#45;&gt;Node11</title>
<g id="a_edge11_Node000009_Node000011"><a xlink:title=" ">
<path fill="none" stroke="#63b8ff" d="M274.84,-68.99C305.34,-63.28 342.91,-56.25 367.84,-51.58"/>
<polygon fill="#63b8ff" stroke="#63b8ff" points="368.51,-55.02 377.69,-49.74 367.22,-48.14 368.51,-55.02"/>
</a>
</g>
</g>
<!-- Node13 -->
<g id="Node000013" class="node">
<title>Node13</title>
<g id="a_Node000013"><a xlink:href="math__util_8c.html#a32af0f217114736291c9ca6689138b81" target="_top" xlink:title=" ">
<polygon fill="white" stroke="#666666" points="436,-19 356,-19 356,0 436,0 436,-19"/>
<text text-anchor="middle" x="396" y="-7" font-family="Helvetica,sans-Serif" font-size="10.00">mtxf_to_mtx</text>
</a>
</g>
</g>
<!-- Node12&#45;&gt;Node13 -->
<g id="edge13_Node000012_Node000013" class="edge">
<title>Node12&#45;&gt;Node13</title>
<g id="a_edge13_Node000012_Node000013"><a xlink:title=" ">
<path fill="none" stroke="#63b8ff" d="M279.52,-18.95C300.88,-17.21 325.09,-15.22 345.81,-13.53"/>
<polygon fill="#63b8ff" stroke="#63b8ff" points="346.3,-17 355.98,-12.69 345.73,-10.02 346.3,-17"/>
</a>
</g>
</g>
<!-- Node14 -->
<g id="Node000014" class="node">
<title>Node14</title>
<g id="a_Node000014"><a xlink:href="guMtxF2L_8c.html#a40ab2d64c609839ff1e0ef0de2d0dcc4" target="_top" xlink:title=" ">
<polygon fill="white" stroke="#666666" points="561,-19 496,-19 496,0 561,0 561,-19"/>
<text text-anchor="middle" x="528.5" y="-7" font-family="Helvetica,sans-Serif" font-size="10.00">guMtxF2L</text>
</a>
</g>
</g>
<!-- Node13&#45;&gt;Node14 -->
<g id="edge14_Node000013_Node000014" class="edge">
<title>Node13&#45;&gt;Node14</title>
<g id="a_edge14_Node000013_Node000014"><a xlink:title=" ">
<path fill="none" stroke="#63b8ff" d="M436.15,-9.5C451.8,-9.5 469.84,-9.5 485.73,-9.5"/>
<polygon fill="#63b8ff" stroke="#63b8ff" points="485.82,-13 495.82,-9.5 485.82,-6 485.82,-13"/>
</a>
</g>
</g>
</g>
</svg>

<g id="navigator" transform="translate(0 0)" fill="#404254">
  <rect fill="#f2f5e9" fill-opacity="0.5" stroke="#606060" stroke-width=".5" x="0" y="0" width="60" height="60"/>
  <use id="zoomplus" xlink:href="#zoomPlus" x="17" y="9" onmousedown="handleZoom(evt,'in')"/>
  <use id="zoomminus" xlink:href="#zoomMin" x="42" y="9" onmousedown="handleZoom(evt,'out')"/>
  <use id="reset" xlink:href="#resetDef" x="30" y="36" onmousedown="handleReset()"/>
   <use id="arrowup" xlink:href="#arrowUp" x="0" y="0" onmousedown="handlePan(0,-1)"/>
  <use id="arrowright" xlink:href="#arrowRight" x="0" y="0" onmousedown="handlePan(1,0)"/>
  <use id="arrowdown" xlink:href="#arrowDown" x="0" y="0" onmousedown="handlePan(0,1)"/>
  <use id="arrowleft" xlink:href="#arrowLeft" x="0" y="0" onmousedown="handlePan(-1,0)"/>
</g>
<svg viewBox="0 0 15 15" width="100%" height="30px" preserveAspectRatio="xMaxYMin meet">
 <g id="arrow_out" transform="scale(0.3 0.3)">
  <a xlink:href="tanker__truck_2render_8inc_8c_a946fd8f61348549cfb60bf8a480baad3_cgraph_org.svg" target="_base">
   <rect id="button" ry="5" rx="5" y="6" x="6" height="38" width="38"
        fill="#f2f5e9" fill-opacity="0.5" stroke="#606060" stroke-width="1.0"/>
   <path id="arrow"
     d="M 11.500037,31.436501 C 11.940474,20.09759 22.043105,11.32322 32.158766,21.979434 L 37.068811,17.246167 C 37.068811,17.246167 37.088388,32 37.088388,32 L 22.160133,31.978069 C 22.160133,31.978069 26.997745,27.140456 26.997745,27.140456 C 18.528582,18.264221 13.291696,25.230495 11.500037,31.436501 z"
     style="fill:#404040;"/>
  </a>
 </g>
</svg>

<style type='text/css'>
<![CDATA[
[data-mouse-over-selected='false'] { opacity: 0.7; }
[data-mouse-over-selected='true']  { opacity: 1.0; }
]]>
</style>
<script type="application/ecmascript"><![CDATA[
document.addEventListener('DOMContentLoaded', (event) => {
  highlightEdges();
  highlightAdjacentNodes();
});
]]></script>
</svg>
