<?xml version="1.0" encoding="UTF-8" standalone="no"?>
<!DOCTYPE svg PUBLIC "-//W3C//DTD SVG 1.1//EN"
 "http://www.w3.org/Graphics/SVG/1.1/DTD/svg11.dtd">
<!-- Generated by graphviz version 2.43.0 (0)
 -->
<!-- Title: init_smoke_particles Pages: 1 -->
<svg width="636pt" height="138pt"
 viewBox="0.00 0.00 636.00 138.00" xmlns="http://www.w3.org/2000/svg" xmlns:xlink="http://www.w3.org/1999/xlink">
<g id="graph0" class="graph" transform="scale(1 1) rotate(0) translate(4 134)">
<title>init_smoke_particles</title>
<!-- Node1 -->
<g id="Node000001" class="node">
<title>Node1</title>
<g id="a_Node000001"><a xlink:title=" ">
<polygon fill="#999999" stroke="#666666" points="117,-92 0,-92 0,-73 117,-73 117,-92"/>
<text text-anchor="middle" x="58.5" y="-80" font-family="Helvetica,sans-Serif" font-size="10.00">init_smoke_particles</text>
</a>
</g>
</g>
<!-- Node2 -->
<g id="Node000002" class="node">
<title>Node2</title>
<g id="a_Node000002"><a xlink:href="update__objects_8c.html#a6e56a43ec98e81db05f2410893efa437" target="_top" xlink:title=" ">
<polygon fill="white" stroke="#666666" points="290.5,-120 162.5,-120 162.5,-101 290.5,-101 290.5,-120"/>
<text text-anchor="middle" x="226.5" y="-108" font-family="Helvetica,sans-Serif" font-size="10.00">add_unused_obj_index</text>
</a>
</g>
</g>
<!-- Node1&#45;&gt;Node2 -->
<g id="edge1_Node000001_Node000002" class="edge">
<title>Node1&#45;&gt;Node2</title>
<g id="a_edge1_Node000001_Node000002"><a xlink:title=" ">
<path fill="none" stroke="#63b8ff" d="M116.16,-92.06C129.92,-94.38 144.75,-96.88 158.92,-99.27"/>
<polygon fill="#63b8ff" stroke="#63b8ff" points="158.65,-102.77 169.09,-100.99 159.81,-95.87 158.65,-102.77"/>
</a>
</g>
</g>
<!-- Node4 -->
<g id="Node000004" class="node">
<title>Node4</title>
<g id="a_Node000004"><a xlink:href="update__objects_8c.html#af0ab4c6db09faab5759a6cc4c811eead" target="_top" xlink:title=" ">
<polygon fill="white" stroke="#666666" points="300,-74 153,-74 153,-55 300,-55 300,-74"/>
<text text-anchor="middle" x="226.5" y="-62" font-family="Helvetica,sans-Serif" font-size="10.00">init_object_smoke_particle</text>
</a>
</g>
</g>
<!-- Node1&#45;&gt;Node4 -->
<g id="edge3_Node000001_Node000004" class="edge">
<title>Node1&#45;&gt;Node4</title>
<g id="a_edge3_Node000001_Node000004"><a xlink:title=" ">
<path fill="none" stroke="#63b8ff" d="M117.09,-76.25C125.37,-75.36 134.02,-74.42 142.67,-73.48"/>
<polygon fill="#63b8ff" stroke="#63b8ff" points="143.24,-76.94 152.8,-72.38 142.48,-69.98 143.24,-76.94"/>
</a>
</g>
</g>
<!-- Node3 -->
<g id="Node000003" class="node">
<title>Node3</title>
<g id="a_Node000003"><a xlink:href="update__objects_8c.html#a92856990c4ca5fba1b8e0c61ca832c27" target="_top" xlink:title=" ">
<polygon fill="white" stroke="#666666" points="464,-130 336,-130 336,-111 464,-111 464,-130"/>
<text text-anchor="middle" x="400" y="-118" font-family="Helvetica,sans-Serif" font-size="10.00">find_unused_obj_index</text>
</a>
</g>
</g>
<!-- Node2&#45;&gt;Node3 -->
<g id="edge2_Node000002_Node000003" class="edge">
<title>Node2&#45;&gt;Node3</title>
<g id="a_edge2_Node000002_Node000003"><a xlink:title=" ">
<path fill="none" stroke="#63b8ff" d="M290.87,-114.2C302.24,-114.86 314.17,-115.55 325.78,-116.23"/>
<polygon fill="#63b8ff" stroke="#63b8ff" points="325.7,-119.73 335.89,-116.82 326.11,-112.74 325.7,-119.73"/>
</a>
</g>
</g>
<!-- Node5 -->
<g id="Node000005" class="node">
<title>Node5</title>
<g id="a_Node000005"><a xlink:href="update__objects_8c.html#abdebd086b5ff081f83af3d9205f39cd3" target="_top" xlink:title=" ">
<polygon fill="white" stroke="#666666" points="434,-93 366,-93 366,-74 434,-74 434,-93"/>
<text text-anchor="middle" x="400" y="-81" font-family="Helvetica,sans-Serif" font-size="10.00">init_object</text>
</a>
</g>
</g>
<!-- Node4&#45;&gt;Node5 -->
<g id="edge4_Node000004_Node000005" class="edge">
<title>Node4&#45;&gt;Node5</title>
<g id="a_edge4_Node000004_Node000005"><a xlink:title=" ">
<path fill="none" stroke="#63b8ff" d="M300.23,-72.56C319.13,-74.65 338.9,-76.84 355.74,-78.71"/>
<polygon fill="#63b8ff" stroke="#63b8ff" points="355.48,-82.2 365.81,-79.82 356.26,-75.24 355.48,-82.2"/>
</a>
</g>
</g>
<!-- Node7 -->
<g id="Node000007" class="node">
<title>Node7</title>
<g id="a_Node000007"><a xlink:href="code__80086E70_8c.html#ad745ffd7b6ecd50c57336a484979b258" target="_top" xlink:title=" ">
<polygon fill="white" stroke="#666666" points="455,-56 345,-56 345,-37 455,-37 455,-56"/>
<text text-anchor="middle" x="400" y="-44" font-family="Helvetica,sans-Serif" font-size="10.00">set_obj_orientation</text>
</a>
</g>
</g>
<!-- Node4&#45;&gt;Node7 -->
<g id="edge6_Node000004_Node000007" class="edge">
<title>Node4&#45;&gt;Node7</title>
<g id="a_edge6_Node000004_Node000007"><a xlink:title=" ">
<path fill="none" stroke="#63b8ff" d="M300.23,-56.87C311.69,-55.66 323.48,-54.43 334.73,-53.25"/>
<polygon fill="#63b8ff" stroke="#63b8ff" points="335.31,-56.7 344.89,-52.18 334.58,-49.74 335.31,-56.7"/>
</a>
</g>
</g>
<!-- Node8 -->
<g id="Node000008" class="node">
<title>Node8</title>
<g id="a_Node000008"><a xlink:href="code__80086E70_8c.html#ac9171108201f29dda52974a4a5c68a04" target="_top" xlink:title=" ">
<polygon fill="white" stroke="#666666" points="459,-19 341,-19 341,0 459,0 459,-19"/>
<text text-anchor="middle" x="400" y="-7" font-family="Helvetica,sans-Serif" font-size="10.00">set_obj_origin_offset</text>
</a>
</g>
</g>
<!-- Node4&#45;&gt;Node8 -->
<g id="edge7_Node000004_Node000008" class="edge">
<title>Node4&#45;&gt;Node8</title>
<g id="a_edge7_Node000004_Node000008"><a xlink:title=" ">
<path fill="none" stroke="#63b8ff" d="M255.53,-54.96C277.4,-47.58 308.56,-37.19 336,-28.5 342.66,-26.39 349.73,-24.21 356.64,-22.1"/>
<polygon fill="#63b8ff" stroke="#63b8ff" points="358.02,-25.34 366.57,-19.09 355.99,-18.64 358.02,-25.34"/>
</a>
</g>
</g>
<!-- Node6 -->
<g id="Node000006" class="node">
<title>Node6</title>
<g id="a_Node000006"><a xlink:href="update__objects_8c.html#af20e3f3c403dd4fbea56e358997e515a" target="_top" xlink:title=" ">
<polygon fill="white" stroke="#666666" points="628,-93 500,-93 500,-74 628,-74 628,-93"/>
<text text-anchor="middle" x="564" y="-81" font-family="Helvetica,sans-Serif" font-size="10.00">set_object_timer_state</text>
</a>
</g>
</g>
<!-- Node5&#45;&gt;Node6 -->
<g id="edge5_Node000005_Node000006" class="edge">
<title>Node5&#45;&gt;Node6</title>
<g id="a_edge5_Node000005_Node000006"><a xlink:title=" ">
<path fill="none" stroke="#63b8ff" d="M434.17,-83.5C450.25,-83.5 470.25,-83.5 489.66,-83.5"/>
<polygon fill="#63b8ff" stroke="#63b8ff" points="489.73,-87 499.73,-83.5 489.73,-80 489.73,-87"/>
</a>
</g>
</g>
</g>
</svg>
