<?xml version="1.0" encoding="UTF-8" standalone="no"?>
<!DOCTYPE svg PUBLIC "-//W3C//DTD SVG 1.1//EN"
 "http://www.w3.org/Graphics/SVG/1.1/DTD/svg11.dtd">
<!-- Generated by graphviz version 2.43.0 (0)
 -->
<!-- Title: func_80083868 Pages: 1 -->
<svg width="449pt" height="212pt"
 viewBox="0.00 0.00 449.00 212.00" xmlns="http://www.w3.org/2000/svg" xmlns:xlink="http://www.w3.org/1999/xlink">
<g id="graph0" class="graph" transform="scale(1 1) rotate(0) translate(4 208)">
<title>func_80083868</title>
<!-- Node1 -->
<g id="Node000001" class="node">
<title>Node1</title>
<g id="a_Node000001"><a xlink:title=" ">
<polygon fill="#999999" stroke="#666666" points="91,-111 0,-111 0,-92 91,-92 91,-111"/>
<text text-anchor="middle" x="45.5" y="-99" font-family="Helvetica,sans-Serif" font-size="10.00">func_80083868</text>
</a>
</g>
</g>
<!-- Node2 -->
<g id="Node000002" class="node">
<title>Node2</title>
<g id="a_Node000002"><a xlink:href="code__80086E70_8c.html#ad844d2fe27c3f0bb5979715fae72559a" target="_top" xlink:title=" ">
<polygon fill="white" stroke="#666666" points="247.5,-204 156.5,-204 156.5,-185 247.5,-185 247.5,-204"/>
<text text-anchor="middle" x="202" y="-192" font-family="Helvetica,sans-Serif" font-size="10.00">func_80086E70</text>
</a>
</g>
</g>
<!-- Node1&#45;&gt;Node2 -->
<g id="edge1_Node000001_Node000002" class="edge">
<title>Node1&#45;&gt;Node2</title>
<g id="a_edge1_Node000001_Node000002"><a xlink:title=" ">
<path fill="none" stroke="#63b8ff" d="M54.04,-111.22C67.1,-127.35 95.56,-159.55 127,-176.5 133.02,-179.75 139.63,-182.41 146.35,-184.61"/>
<polygon fill="#63b8ff" stroke="#63b8ff" points="145.62,-188.04 156.2,-187.49 147.59,-181.32 145.62,-188.04"/>
</a>
</g>
</g>
<!-- Node4 -->
<g id="Node000004" class="node">
<title>Node4</title>
<g id="a_Node000004"><a xlink:href="update__objects_8c.html#aaac380231c672b17a8fda8b451572c4c" target="_top" xlink:title=" ">
<polygon fill="white" stroke="#666666" points="256,-167 148,-167 148,-148 256,-148 256,-167"/>
<text text-anchor="middle" x="202" y="-155" font-family="Helvetica,sans-Serif" font-size="10.00">init_texture_object</text>
</a>
</g>
</g>
<!-- Node1&#45;&gt;Node4 -->
<g id="edge3_Node000001_Node000004" class="edge">
<title>Node1&#45;&gt;Node4</title>
<g id="a_edge3_Node000001_Node000004"><a xlink:title=" ">
<path fill="none" stroke="#63b8ff" d="M63.97,-111.01C79.99,-119.43 104.56,-131.57 127,-139.5 132.97,-141.61 139.3,-143.56 145.64,-145.34"/>
<polygon fill="#63b8ff" stroke="#63b8ff" points="145.01,-148.79 155.57,-147.99 146.81,-142.03 145.01,-148.79"/>
</a>
</g>
</g>
<!-- Node5 -->
<g id="Node000005" class="node">
<title>Node5</title>
<g id="a_Node000005"><a xlink:href="update__objects_8c.html#a8bfc5f5c7034d61b534e14f325b6e399" target="_top" xlink:title=" ">
<polygon fill="white" stroke="#666666" points="254,-130 150,-130 150,-111 254,-111 254,-130"/>
<text text-anchor="middle" x="202" y="-118" font-family="Helvetica,sans-Serif" font-size="10.00">object_next_state</text>
</a>
</g>
</g>
<!-- Node1&#45;&gt;Node5 -->
<g id="edge4_Node000001_Node000005" class="edge">
<title>Node1&#45;&gt;Node5</title>
<g id="a_edge4_Node000001_Node000005"><a xlink:title=" ">
<path fill="none" stroke="#63b8ff" d="M91.19,-107C106.39,-108.87 123.65,-110.99 139.92,-112.99"/>
<polygon fill="#63b8ff" stroke="#63b8ff" points="139.53,-116.47 149.89,-114.21 140.39,-109.52 139.53,-116.47"/>
</a>
</g>
</g>
<!-- Node7 -->
<g id="Node000007" class="node">
<title>Node7</title>
<g id="a_Node000007"><a xlink:href="math__util_8c.html#a151b63b8adf9af7e4054b3b84bd226dc" target="_top" xlink:title=" ">
<polygon fill="white" stroke="#666666" points="238,-93 166,-93 166,-74 238,-74 238,-93"/>
<text text-anchor="middle" x="202" y="-81" font-family="Helvetica,sans-Serif" font-size="10.00">random_int</text>
</a>
</g>
</g>
<!-- Node1&#45;&gt;Node7 -->
<g id="edge7_Node000001_Node000007" class="edge">
<title>Node1&#45;&gt;Node7</title>
<g id="a_edge7_Node000001_Node000007"><a xlink:title=" ">
<path fill="none" stroke="#63b8ff" d="M91.19,-96.29C111.47,-93.93 135.41,-91.14 155.76,-88.77"/>
<polygon fill="#63b8ff" stroke="#63b8ff" points="156.2,-92.24 165.73,-87.61 155.39,-85.29 156.2,-92.24"/>
</a>
</g>
</g>
<!-- Node9 -->
<g id="Node000009" class="node">
<title>Node9</title>
<g id="a_Node000009"><a xlink:href="code__80086E70_8c.html#ac9171108201f29dda52974a4a5c68a04" target="_top" xlink:title=" ">
<polygon fill="white" stroke="#666666" points="261,-56 143,-56 143,-37 261,-37 261,-56"/>
<text text-anchor="middle" x="202" y="-44" font-family="Helvetica,sans-Serif" font-size="10.00">set_obj_origin_offset</text>
</a>
</g>
</g>
<!-- Node1&#45;&gt;Node9 -->
<g id="edge9_Node000001_Node000009" class="edge">
<title>Node1&#45;&gt;Node9</title>
<g id="a_edge9_Node000001_Node000009"><a xlink:title=" ">
<path fill="none" stroke="#63b8ff" d="M64.63,-91.94C80.68,-83.78 104.92,-72.18 127,-64.5 132.98,-62.42 139.32,-60.49 145.66,-58.72"/>
<polygon fill="#63b8ff" stroke="#63b8ff" points="146.83,-62.03 155.6,-56.08 145.03,-55.27 146.83,-62.03"/>
</a>
</g>
</g>
<!-- Node10 -->
<g id="Node000010" class="node">
<title>Node10</title>
<g id="a_Node000010"><a xlink:href="update__objects_8c.html#a00a4e96fc9576ef2552de1c51cf2aa7c" target="_top" xlink:title=" ">
<polygon fill="white" stroke="#666666" points="277,-19 127,-19 127,0 277,0 277,-19"/>
<text text-anchor="middle" x="202" y="-7" font-family="Helvetica,sans-Serif" font-size="10.00">set_object_flag_status_true</text>
</a>
</g>
</g>
<!-- Node1&#45;&gt;Node10 -->
<g id="edge10_Node000001_Node000010" class="edge">
<title>Node1&#45;&gt;Node10</title>
<g id="a_edge10_Node000001_Node000010"><a xlink:title=" ">
<path fill="none" stroke="#63b8ff" d="M54.07,-91.92C67.17,-76.01 95.69,-44.24 127,-27.5 130.51,-25.62 134.21,-23.94 138.02,-22.43"/>
<polygon fill="#63b8ff" stroke="#63b8ff" points="139.38,-25.66 147.64,-19.02 137.04,-19.06 139.38,-25.66"/>
</a>
</g>
</g>
<!-- Node3 -->
<g id="Node000003" class="node">
<title>Node3</title>
<g id="a_Node000003"><a xlink:href="update__objects_8c.html#ad33541b9fed7857e59b2d745298f2d44" target="_top" xlink:title=" ">
<polygon fill="white" stroke="#666666" points="439.5,-193.5 314.5,-193.5 314.5,-163.5 439.5,-163.5 439.5,-193.5"/>
<text text-anchor="start" x="322.5" y="-181.5" font-family="Helvetica,sans-Serif" font-size="10.00">set_object_flag_status</text>
<text text-anchor="middle" x="377" y="-170.5" font-family="Helvetica,sans-Serif" font-size="10.00">_false</text>
</a>
</g>
</g>
<!-- Node2&#45;&gt;Node3 -->
<g id="edge2_Node000002_Node000003" class="edge">
<title>Node2&#45;&gt;Node3</title>
<g id="a_edge2_Node000002_Node000003"><a xlink:title=" ">
<path fill="none" stroke="#63b8ff" d="M247.55,-190.38C264.78,-188.79 284.94,-186.92 304.11,-185.15"/>
<polygon fill="#63b8ff" stroke="#63b8ff" points="304.69,-188.61 314.32,-184.2 304.04,-181.64 304.69,-188.61"/>
</a>
</g>
</g>
<!-- Node5&#45;&gt;Node3 -->
<g id="edge5_Node000005_Node000003" class="edge">
<title>Node5&#45;&gt;Node3</title>
<g id="a_edge5_Node000005_Node000003"><a xlink:title=" ">
<path fill="none" stroke="#63b8ff" d="M243.97,-130.06C254.79,-132.84 266.4,-136.07 277,-139.5 294.92,-145.31 314.28,-152.68 331.08,-159.44"/>
<polygon fill="#63b8ff" stroke="#63b8ff" points="330.06,-162.81 340.64,-163.34 332.7,-156.32 330.06,-162.81"/>
</a>
</g>
</g>
<!-- Node6 -->
<g id="Node000006" class="node">
<title>Node6</title>
<g id="a_Node000006"><a xlink:href="update__objects_8c.html#af20e3f3c403dd4fbea56e358997e515a" target="_top" xlink:title=" ">
<polygon fill="white" stroke="#666666" points="441,-130 313,-130 313,-111 441,-111 441,-130"/>
<text text-anchor="middle" x="377" y="-118" font-family="Helvetica,sans-Serif" font-size="10.00">set_object_timer_state</text>
</a>
</g>
</g>
<!-- Node5&#45;&gt;Node6 -->
<g id="edge6_Node000005_Node000006" class="edge">
<title>Node5&#45;&gt;Node6</title>
<g id="a_edge6_Node000005_Node000006"><a xlink:title=" ">
<path fill="none" stroke="#63b8ff" d="M254.44,-120.5C269.61,-120.5 286.52,-120.5 302.79,-120.5"/>
<polygon fill="#63b8ff" stroke="#63b8ff" points="302.82,-124 312.82,-120.5 302.82,-117 302.82,-124"/>
</a>
</g>
</g>
<!-- Node8 -->
<g id="Node000008" class="node">
<title>Node8</title>
<g id="a_Node000008"><a xlink:href="math__util_8c.html#a062850863585005ad1d0a75d9ff70693" target="_top" xlink:title=" ">
<polygon fill="white" stroke="#666666" points="415.5,-93 338.5,-93 338.5,-74 415.5,-74 415.5,-93"/>
<text text-anchor="middle" x="377" y="-81" font-family="Helvetica,sans-Serif" font-size="10.00">random_u16</text>
</a>
</g>
</g>
<!-- Node7&#45;&gt;Node8 -->
<g id="edge8_Node000007_Node000008" class="edge">
<title>Node7&#45;&gt;Node8</title>
<g id="a_edge8_Node000007_Node000008"><a xlink:title=" ">
<path fill="none" stroke="#63b8ff" d="M238.01,-83.5C263.95,-83.5 299.6,-83.5 328.17,-83.5"/>
<polygon fill="#63b8ff" stroke="#63b8ff" points="328.34,-87 338.34,-83.5 328.34,-80 328.34,-87"/>
</a>
</g>
</g>
</g>
</svg>
