<?xml version="1.0" encoding="UTF-8" standalone="no"?>
<!DOCTYPE svg PUBLIC "-//W3C//DTD SVG 1.1//EN"
 "http://www.w3.org/Graphics/SVG/1.1/DTD/svg11.dtd">
<!-- Generated by graphviz version 2.43.0 (0)
 -->
<!-- Title: update_cheep_cheep_race Pages: 1 -->
<!--zoomable 491 -->

<svg id="main" version="1.1" xmlns="http://www.w3.org/2000/svg" xmlns:xlink="http://www.w3.org/1999/xlink" xml:space="preserve" onload="init(evt)">
<style type="text/css"><![CDATA[
.node, .edge {opacity: 0.7;}
.node.selected, .edge.selected {opacity: 1;}
.edge:hover path { stroke: red; }
.edge:hover polygon { stroke: red; fill: red; }
]]></style>

<defs>
  <circle id="rim" cx="0" cy="0" r="7"/>
  <circle id="rim2" cx="0" cy="0" r="3.5"/>
  <g id="zoomPlus">
    <use xlink:href="#rim" fill="#404040"><set attributeName="fill" to="#808080" begin="zoomplus.mouseover" end="zoomplus.mouseout"/></use>
    <path d="M-4,0h8M0,-4v8" fill="none" stroke="white" stroke-width="1.5" pointer-events="none"/>
  </g>
  <g id="zoomMin">
    <use xlink:href="#rim" fill="#404040"><set attributeName="fill" to="#808080" begin="zoomminus.mouseover" end="zoomminus.mouseout"/></use>
    <path d="M-4,0h8" fill="none" stroke="white" stroke-width="1.5" pointer-events="none"/>
  </g>
  <g id="arrowUp" transform="translate(30 24)">
    <use xlink:href="#rim"/>
    <path pointer-events="none" fill="none" stroke="white" stroke-width="1.5" d="M0,-3.0v7 M-2.5,-0.5L0,-3.0L2.5,-0.5"/>
  </g>
  <g id="arrowRight" transform="rotate(90) translate(36 -43)">
    <use xlink:href="#rim"/>
    <path pointer-events="none" fill="none" stroke="white" stroke-width="1.5" d="M0,-3.0v7 M-2.5,-0.5L0,-3.0L2.5,-0.5"/>
  </g>
  <g id="arrowDown" transform="rotate(180) translate(-30 -48)">
    <use xlink:href="#rim"/>
    <path pointer-events="none" fill="none" stroke="white" stroke-width="1.5" d="M0,-3.0v7 M-2.5,-0.5L0,-3.0L2.5,-0.5"/>
  </g>
  <g id="arrowLeft" transform="rotate(270) translate(-36 17)">
    <use xlink:href="#rim"/>
    <path pointer-events="none" fill="none" stroke="white" stroke-width="1.5" d="M0,-3.0v7 M-2.5,-0.5L0,-3.0L2.5,-0.5"/>
  </g>
  <g id="resetDef">
    <use xlink:href="#rim2" fill="#404040"><set attributeName="fill" to="#808080" begin="reset.mouseover" end="reset.mouseout"/></use>
  </g>
</defs>
<script type="application/ecmascript">
var viewWidth = 802;
var viewHeight = 491;
var sectionId = 'dynsection-614';
</script>
<script type="application/ecmascript" xlink:href="svg.min.js"/>
<svg id="graph" class="graph">
<g id="viewport">
<title>update_cheep_cheep_race</title>
<!-- Node1 -->
<g id="Node000001" class="node">
<title>Node1</title>
<g id="a_Node000001"><a xlink:title=" ">
<polygon fill="#999999" stroke="#666666" points="146,-67.5 0,-67.5 0,-48.5 146,-48.5 146,-67.5"/>
<text text-anchor="middle" x="73" y="-55.5" font-family="Helvetica,sans-Serif" font-size="10.00">update_cheep_cheep_race</text>
</a>
</g>
</g>
<!-- Node2 -->
<g id="Node000002" class="node">
<title>Node2</title>
<g id="a_Node000002"><a xlink:href="update__objects_8c.html#ac3d84449a4807568abbc6b512d343125" target="_top" xlink:title=" ">
<polygon fill="white" stroke="#666666" points="290,-197.5 196,-197.5 196,-178.5 290,-178.5 290,-197.5"/>
<text text-anchor="middle" x="243" y="-185.5" font-family="Helvetica,sans-Serif" font-size="10.00">func_8007BBBC</text>
</a>
</g>
</g>
<!-- Node1&#45;&gt;Node2 -->
<g id="edge1_Node000001_Node000002" class="edge">
<title>Node1&#45;&gt;Node2</title>
<g id="a_edge1_Node000001_Node000002"><a xlink:title=" ">
<path fill="none" stroke="#63b8ff" d="M86.35,-67.56C114.99,-89.72 186.17,-144.8 221.47,-172.12"/>
<polygon fill="#63b8ff" stroke="#63b8ff" points="219.58,-175.07 229.63,-178.43 223.86,-169.54 219.58,-175.07"/>
</a>
</g>
</g>
<!-- Node21 -->
<g id="Node000021" class="node">
<title>Node21</title>
<g id="a_Node000021"><a xlink:href="update__objects_8c.html#af6fa0450f99946e4318111b11373aef3" target="_top" xlink:title=" ">
<polygon fill="white" stroke="#666666" points="289.5,-67.5 196.5,-67.5 196.5,-48.5 289.5,-48.5 289.5,-67.5"/>
<text text-anchor="middle" x="243" y="-55.5" font-family="Helvetica,sans-Serif" font-size="10.00">func_8007BD04</text>
</a>
</g>
</g>
<!-- Node1&#45;&gt;Node21 -->
<g id="edge27_Node000001_Node000021" class="edge">
<title>Node1&#45;&gt;Node21</title>
<g id="a_edge27_Node000001_Node000021"><a xlink:title=" ">
<path fill="none" stroke="#63b8ff" d="M146.22,-58C159.42,-58 173.02,-58 185.67,-58"/>
<polygon fill="#63b8ff" stroke="#63b8ff" points="186.05,-61.5 196.05,-58 186.05,-54.5 186.05,-61.5"/>
</a>
</g>
</g>
<!-- Node24 -->
<g id="Node000024" class="node">
<title>Node24</title>
<g id="a_Node000024"><a xlink:href="code__80086E70_8c.html#a2f6ae8b384477efbc2654d6427d095f7" target="_top" xlink:title=" ">
<polygon fill="white" stroke="#666666" points="304,-30 182,-30 182,0 304,0 304,-30"/>
<text text-anchor="start" x="190" y="-18" font-family="Helvetica,sans-Serif" font-size="10.00">object_calculate_new</text>
<text text-anchor="middle" x="243" y="-7" font-family="Helvetica,sans-Serif" font-size="10.00">_pos_offset</text>
</a>
</g>
</g>
<!-- Node1&#45;&gt;Node24 -->
<g id="edge31_Node000001_Node000024" class="edge">
<title>Node1&#45;&gt;Node24</title>
<g id="a_edge31_Node000001_Node000024"><a xlink:title=" ">
<path fill="none" stroke="#63b8ff" d="M111.28,-48.46C129.56,-43.78 152.16,-37.99 173.4,-32.56"/>
<polygon fill="#63b8ff" stroke="#63b8ff" points="174.55,-35.88 183.37,-30.01 172.82,-29.1 174.55,-35.88"/>
</a>
</g>
</g>
<!-- Node3 -->
<g id="Node000003" class="node">
<title>Node3</title>
<g id="a_Node000003"><a xlink:href="math__util__2_8c.html#af11c153eab5e5144dd2c6c3f980ee42c" target="_top" xlink:title=" ">
<polygon fill="white" stroke="#666666" points="439,-415.5 348,-415.5 348,-396.5 439,-396.5 439,-415.5"/>
<text text-anchor="middle" x="393.5" y="-403.5" font-family="Helvetica,sans-Serif" font-size="10.00">func_80041658</text>
</a>
</g>
</g>
<!-- Node2&#45;&gt;Node3 -->
<g id="edge2_Node000002_Node000003" class="edge">
<title>Node2&#45;&gt;Node3</title>
<g id="a_edge2_Node000002_Node000003"><a xlink:title=" ">
<path fill="none" stroke="#63b8ff" d="M250.57,-197.65C273.53,-231.34 350.34,-344.12 380.35,-388.16"/>
<polygon fill="#63b8ff" stroke="#63b8ff" points="377.48,-390.17 386,-396.46 383.27,-386.23 377.48,-390.17"/>
</a>
</g>
</g>
<!-- Node6 -->
<g id="Node000006" class="node">
<title>Node6</title>
<g id="a_Node000006"><a xlink:href="update__objects_8c.html#a5978ef1e35515c275f92eb79b8601d77" target="_top" xlink:title=" ">
<polygon fill="white" stroke="#666666" points="439,-197.5 348,-197.5 348,-178.5 439,-178.5 439,-197.5"/>
<text text-anchor="middle" x="393.5" y="-185.5" font-family="Helvetica,sans-Serif" font-size="10.00">func_80072428</text>
</a>
</g>
</g>
<!-- Node2&#45;&gt;Node6 -->
<g id="edge5_Node000002_Node000006" class="edge">
<title>Node2&#45;&gt;Node6</title>
<g id="a_edge5_Node000002_Node000006"><a xlink:title=" ">
<path fill="none" stroke="#63b8ff" d="M290.17,-188C305.26,-188 322.16,-188 337.81,-188"/>
<polygon fill="#63b8ff" stroke="#63b8ff" points="337.88,-191.5 347.88,-188 337.88,-184.5 337.88,-191.5"/>
</a>
</g>
</g>
<!-- Node10 -->
<g id="Node000010" class="node">
<title>Node10</title>
<g id="a_Node000010"><a xlink:href="update__objects_8c.html#a46d84a80361a6c7174b0398a5ded599b" target="_top" xlink:title=" ">
<polygon fill="white" stroke="#666666" points="439.5,-123.5 347.5,-123.5 347.5,-104.5 439.5,-104.5 439.5,-123.5"/>
<text text-anchor="middle" x="393.5" y="-111.5" font-family="Helvetica,sans-Serif" font-size="10.00">func_8007278C</text>
</a>
</g>
</g>
<!-- Node2&#45;&gt;Node10 -->
<g id="edge9_Node000002_Node000010" class="edge">
<title>Node2&#45;&gt;Node10</title>
<g id="a_edge9_Node000002_Node000010"><a xlink:title=" ">
<path fill="none" stroke="#63b8ff" d="M258.48,-178.33C276.86,-166.34 309.82,-145.81 340,-132 343.79,-130.26 347.81,-128.6 351.86,-127.03"/>
<polygon fill="#63b8ff" stroke="#63b8ff" points="353.11,-130.3 361.29,-123.57 350.69,-123.73 353.11,-130.3"/>
</a>
</g>
</g>
<!-- Node12 -->
<g id="Node000012" class="node">
<title>Node12</title>
<g id="a_Node000012"><a xlink:href="update__objects_8c.html#a7c574d70f5e63dbdb8afaf8112d2eb26" target="_top" xlink:title=" ">
<polygon fill="white" stroke="#666666" points="439.5,-160.5 347.5,-160.5 347.5,-141.5 439.5,-141.5 439.5,-160.5"/>
<text text-anchor="middle" x="393.5" y="-148.5" font-family="Helvetica,sans-Serif" font-size="10.00">func_800735BC</text>
</a>
</g>
</g>
<!-- Node2&#45;&gt;Node12 -->
<g id="edge14_Node000002_Node000012" class="edge">
<title>Node2&#45;&gt;Node12</title>
<g id="a_edge14_Node000002_Node000012"><a xlink:title=" ">
<path fill="none" stroke="#63b8ff" d="M282.24,-178.47C301.14,-173.76 324.13,-168.03 344.23,-163.03"/>
<polygon fill="#63b8ff" stroke="#63b8ff" points="345.27,-166.37 354.13,-160.56 343.58,-159.58 345.27,-166.37"/>
</a>
</g>
</g>
<!-- Node13 -->
<g id="Node000013" class="node">
<title>Node13</title>
<g id="a_Node000013"><a xlink:href="code__80086E70_8c.html#a989c71b5530f8701df950f1d39a9259b" target="_top" xlink:title=" ">
<polygon fill="white" stroke="#666666" points="439,-311.5 348,-311.5 348,-292.5 439,-292.5 439,-311.5"/>
<text text-anchor="middle" x="393.5" y="-299.5" font-family="Helvetica,sans-Serif" font-size="10.00">func_80087E08</text>
</a>
</g>
</g>
<!-- Node2&#45;&gt;Node13 -->
<g id="edge16_Node000002_Node000013" class="edge">
<title>Node2&#45;&gt;Node13</title>
<g id="a_edge16_Node000002_Node000013"><a xlink:title=" ">
<path fill="none" stroke="#63b8ff" d="M256.41,-197.52C281.89,-217.09 340.38,-261.99 371.74,-286.06"/>
<polygon fill="#63b8ff" stroke="#63b8ff" points="369.75,-288.95 379.81,-292.26 374.01,-283.4 369.75,-288.95"/>
</a>
</g>
</g>
<!-- Node20 -->
<g id="Node000020" class="node">
<title>Node20</title>
<g id="a_Node000020"><a xlink:href="update__objects_8c.html#a00a4e96fc9576ef2552de1c51cf2aa7c" target="_top" xlink:title=" ">
<polygon fill="white" stroke="#666666" points="633,-236.5 483,-236.5 483,-217.5 633,-217.5 633,-236.5"/>
<text text-anchor="middle" x="558" y="-224.5" font-family="Helvetica,sans-Serif" font-size="10.00">set_object_flag_status_true</text>
</a>
</g>
</g>
<!-- Node2&#45;&gt;Node20 -->
<g id="edge26_Node000002_Node000020" class="edge">
<title>Node2&#45;&gt;Node20</title>
<g id="a_edge26_Node000002_Node000020"><a xlink:title=" ">
<path fill="none" stroke="#63b8ff" d="M287.32,-197.56C303.76,-200.93 322.68,-204.49 340,-207 383.67,-213.32 432.58,-218.03 472.9,-221.29"/>
<polygon fill="#63b8ff" stroke="#63b8ff" points="472.71,-224.78 482.95,-222.08 473.26,-217.8 472.71,-224.78"/>
</a>
</g>
</g>
<!-- Node4 -->
<g id="Node000004" class="node">
<title>Node4</title>
<g id="a_Node000004"><a xlink:href="math__util_8c.html#aaa39a297477f56051975259f4bddd829" target="_top" xlink:title=" ">
<polygon fill="white" stroke="#666666" points="583,-482.5 533,-482.5 533,-463.5 583,-463.5 583,-482.5"/>
<text text-anchor="middle" x="558" y="-470.5" font-family="Helvetica,sans-Serif" font-size="10.00">atan2s</text>
</a>
</g>
</g>
<!-- Node3&#45;&gt;Node4 -->
<g id="edge3_Node000003_Node000004" class="edge">
<title>Node3&#45;&gt;Node4</title>
<g id="a_edge3_Node000003_Node000004"><a xlink:title=" ">
<path fill="none" stroke="#63b8ff" d="M408.94,-415.59C425.99,-426.52 455.51,-444.27 483,-455 495.73,-459.97 510.25,-463.86 523.03,-466.73"/>
<polygon fill="#63b8ff" stroke="#63b8ff" points="522.33,-470.16 532.84,-468.82 523.79,-463.32 522.33,-470.16"/>
</a>
</g>
</g>
<!-- Node5 -->
<g id="Node000005" class="node">
<title>Node5</title>
<g id="a_Node000005"><a xlink:href="math__util_8c.html#a0273b0ea0783a06996c28669a7438ed9" target="_top" xlink:title=" ">
<polygon fill="white" stroke="#666666" points="772.5,-482.5 690.5,-482.5 690.5,-463.5 772.5,-463.5 772.5,-482.5"/>
<text text-anchor="middle" x="731.5" y="-470.5" font-family="Helvetica,sans-Serif" font-size="10.00">atan2_lookup</text>
</a>
</g>
</g>
<!-- Node4&#45;&gt;Node5 -->
<g id="edge4_Node000004_Node000005" class="edge">
<title>Node4&#45;&gt;Node5</title>
<g id="a_edge4_Node000004_Node000005"><a xlink:title=" ">
<path fill="none" stroke="#63b8ff" d="M583.21,-473C608.29,-473 648.21,-473 680.16,-473"/>
<polygon fill="#63b8ff" stroke="#63b8ff" points="680.23,-476.5 690.23,-473 680.23,-469.5 680.23,-476.5"/>
</a>
</g>
</g>
<!-- Node7 -->
<g id="Node000007" class="node">
<title>Node7</title>
<g id="a_Node000007"><a xlink:href="code__80086E70_8c.html#acd186a6f592769b3e3db3da72fcf765f" target="_top" xlink:title=" ">
<polygon fill="white" stroke="#666666" points="603.5,-199.5 512.5,-199.5 512.5,-180.5 603.5,-180.5 603.5,-199.5"/>
<text text-anchor="middle" x="558" y="-187.5" font-family="Helvetica,sans-Serif" font-size="10.00">func_80086F60</text>
</a>
</g>
</g>
<!-- Node6&#45;&gt;Node7 -->
<g id="edge6_Node000006_Node000007" class="edge">
<title>Node6&#45;&gt;Node7</title>
<g id="a_edge6_Node000006_Node000007"><a xlink:title=" ">
<path fill="none" stroke="#63b8ff" d="M439.33,-188.55C458.78,-188.79 481.74,-189.07 502.19,-189.33"/>
<polygon fill="#63b8ff" stroke="#63b8ff" points="502.27,-192.83 512.31,-189.45 502.36,-185.83 502.27,-192.83"/>
</a>
</g>
</g>
<!-- Node9 -->
<g id="Node000009" class="node">
<title>Node9</title>
<g id="a_Node000009"><a xlink:href="update__objects_8c.html#a4b4f00a7df0f9bc44914cd922c3cd51b" target="_top" xlink:title=" ">
<polygon fill="white" stroke="#666666" points="789,-104.5 674,-104.5 674,-85.5 789,-85.5 789,-104.5"/>
<text text-anchor="middle" x="731.5" y="-92.5" font-family="Helvetica,sans-Serif" font-size="10.00">set_object_unk_0CB</text>
</a>
</g>
</g>
<!-- Node6&#45;&gt;Node9 -->
<g id="edge8_Node000006_Node000009" class="edge">
<title>Node6&#45;&gt;Node9</title>
<g id="a_edge8_Node000006_Node000009"><a xlink:title=" ">
<path fill="none" stroke="#63b8ff" d="M439.36,-179.31C487.66,-169.53 566.5,-152.33 633,-132 655.26,-125.19 679.76,-115.89 698.63,-108.32"/>
<polygon fill="#63b8ff" stroke="#63b8ff" points="699.99,-111.54 707.94,-104.53 697.36,-105.05 699.99,-111.54"/>
</a>
</g>
</g>
<!-- Node8 -->
<g id="Node000008" class="node">
<title>Node8</title>
<g id="a_Node000008"><a xlink:href="update__objects_8c.html#ad33541b9fed7857e59b2d745298f2d44" target="_top" xlink:title=" ">
<polygon fill="white" stroke="#666666" points="794,-242 669,-242 669,-212 794,-212 794,-242"/>
<text text-anchor="start" x="677" y="-230" font-family="Helvetica,sans-Serif" font-size="10.00">set_object_flag_status</text>
<text text-anchor="middle" x="731.5" y="-219" font-family="Helvetica,sans-Serif" font-size="10.00">_false</text>
</a>
</g>
</g>
<!-- Node7&#45;&gt;Node8 -->
<g id="edge7_Node000007_Node000008" class="edge">
<title>Node7&#45;&gt;Node8</title>
<g id="a_edge7_Node000007_Node000008"><a xlink:title=" ">
<path fill="none" stroke="#63b8ff" d="M603.17,-199.53C620.15,-203.19 640.01,-207.48 658.93,-211.56"/>
<polygon fill="#63b8ff" stroke="#63b8ff" points="658.2,-214.98 668.71,-213.67 659.67,-208.14 658.2,-214.98"/>
</a>
</g>
</g>
<!-- Node10&#45;&gt;Node9 -->
<g id="edge13_Node000010_Node000009" class="edge">
<title>Node10&#45;&gt;Node9</title>
<g id="a_edge13_Node000010_Node000009"><a xlink:title=" ">
<path fill="none" stroke="#63b8ff" d="M430.39,-104.49C446.37,-100.73 465.5,-96.86 483,-95 543.96,-88.53 613.85,-89.27 663.77,-91.2"/>
<polygon fill="#63b8ff" stroke="#63b8ff" points="663.66,-94.69 673.8,-91.61 663.95,-87.7 663.66,-94.69"/>
</a>
</g>
</g>
<!-- Node11 -->
<g id="Node000011" class="node">
<title>Node11</title>
<g id="a_Node000011"><a xlink:href="update__objects_8c.html#a91e6ccbfa10d972106998ad26b271c17" target="_top" xlink:title=" ">
<polygon fill="white" stroke="#666666" points="603.5,-123.5 512.5,-123.5 512.5,-104.5 603.5,-104.5 603.5,-123.5"/>
<text text-anchor="middle" x="558" y="-111.5" font-family="Helvetica,sans-Serif" font-size="10.00">func_80072488</text>
</a>
</g>
</g>
<!-- Node10&#45;&gt;Node11 -->
<g id="edge10_Node000010_Node000011" class="edge">
<title>Node10&#45;&gt;Node11</title>
<g id="a_edge10_Node000010_Node000011"><a xlink:title=" ">
<path fill="none" stroke="#63b8ff" d="M439.77,-114C459.13,-114 481.9,-114 502.21,-114"/>
<polygon fill="#63b8ff" stroke="#63b8ff" points="502.26,-117.5 512.26,-114 502.26,-110.5 502.26,-117.5"/>
</a>
</g>
</g>
<!-- Node11&#45;&gt;Node8 -->
<g id="edge11_Node000011_Node000008" class="edge">
<title>Node11&#45;&gt;Node8</title>
<g id="a_edge11_Node000011_Node000008"><a xlink:title=" ">
<path fill="none" stroke="#63b8ff" d="M573.62,-123.63C601.29,-141.87 661.88,-181.79 699.14,-206.33"/>
<polygon fill="#63b8ff" stroke="#63b8ff" points="697.34,-209.34 707.62,-211.92 701.19,-203.5 697.34,-209.34"/>
</a>
</g>
</g>
<!-- Node11&#45;&gt;Node9 -->
<g id="edge12_Node000011_Node000009" class="edge">
<title>Node11&#45;&gt;Node9</title>
<g id="a_edge12_Node000011_Node000009"><a xlink:title=" ">
<path fill="none" stroke="#63b8ff" d="M603.61,-109.06C621.95,-107.03 643.58,-104.63 663.74,-102.4"/>
<polygon fill="#63b8ff" stroke="#63b8ff" points="664.25,-105.86 673.8,-101.28 663.48,-98.9 664.25,-105.86"/>
</a>
</g>
</g>
<!-- Node12&#45;&gt;Node11 -->
<g id="edge15_Node000012_Node000011" class="edge">
<title>Node12&#45;&gt;Node11</title>
<g id="a_edge15_Node000012_Node000011"><a xlink:title=" ">
<path fill="none" stroke="#63b8ff" d="M436.35,-141.47C457.31,-136.7 482.88,-130.88 505.08,-125.82"/>
<polygon fill="#63b8ff" stroke="#63b8ff" points="506.04,-129.19 515.01,-123.56 504.48,-122.37 506.04,-129.19"/>
</a>
</g>
</g>
<!-- Node13&#45;&gt;Node8 -->
<g id="edge24_Node000013_Node000008" class="edge">
<title>Node13&#45;&gt;Node8</title>
<g id="a_edge24_Node000013_Node000008"><a xlink:title=" ">
<path fill="none" stroke="#63b8ff" d="M439.11,-304.2C487.86,-305.3 567.73,-303.22 633,-283 657.95,-275.27 683.46,-260.32 702.12,-247.81"/>
<polygon fill="#63b8ff" stroke="#63b8ff" points="704.18,-250.64 710.44,-242.09 700.22,-244.87 704.18,-250.64"/>
</a>
</g>
</g>
<!-- Node14 -->
<g id="Node000014" class="node">
<title>Node14</title>
<g id="a_Node000014"><a xlink:href="code__80086E70_8c.html#a6eea48094f49bb346ce1170842d955b2" target="_top" xlink:title=" ">
<polygon fill="white" stroke="#666666" points="604,-273.5 512,-273.5 512,-254.5 604,-254.5 604,-273.5"/>
<text text-anchor="middle" x="558" y="-261.5" font-family="Helvetica,sans-Serif" font-size="10.00">func_80086FD4</text>
</a>
</g>
</g>
<!-- Node13&#45;&gt;Node14 -->
<g id="edge17_Node000013_Node000014" class="edge">
<title>Node13&#45;&gt;Node14</title>
<g id="a_edge17_Node000013_Node000014"><a xlink:title=" ">
<path fill="none" stroke="#63b8ff" d="M435.51,-292.41C457.05,-287.37 483.63,-281.16 506.44,-275.82"/>
<polygon fill="#63b8ff" stroke="#63b8ff" points="507.35,-279.21 516.29,-273.52 505.75,-272.39 507.35,-279.21"/>
</a>
</g>
</g>
<!-- Node15 -->
<g id="Node000015" class="node">
<title>Node15</title>
<g id="a_Node000015"><a xlink:href="code__80086E70_8c.html#a1cd6a78cf091bd496e83739902c652a7" target="_top" xlink:title=" ">
<polygon fill="white" stroke="#666666" points="604,-445.5 512,-445.5 512,-426.5 604,-426.5 604,-445.5"/>
<text text-anchor="middle" x="558" y="-433.5" font-family="Helvetica,sans-Serif" font-size="10.00">func_8008751C</text>
</a>
</g>
</g>
<!-- Node13&#45;&gt;Node15 -->
<g id="edge19_Node000013_Node000015" class="edge">
<title>Node13&#45;&gt;Node15</title>
<g id="a_edge19_Node000013_Node000015"><a xlink:title=" ">
<path fill="none" stroke="#63b8ff" d="M399.15,-311.78C410.28,-334.13 440.73,-389.12 483,-417 488.8,-420.83 495.33,-423.88 502.04,-426.33"/>
<polygon fill="#63b8ff" stroke="#63b8ff" points="501.36,-429.78 511.95,-429.48 503.48,-423.11 501.36,-429.78"/>
</a>
</g>
</g>
<!-- Node18 -->
<g id="Node000018" class="node">
<title>Node18</title>
<g id="a_Node000018"><a xlink:href="update__objects_8c.html#a2301a51a93a60f0382cdc7002e14f95a" target="_top" xlink:title=" ">
<polygon fill="white" stroke="#666666" points="626,-408 490,-408 490,-378 626,-378 626,-408"/>
<text text-anchor="start" x="498" y="-396" font-family="Helvetica,sans-Serif" font-size="10.00">is_obj_index_flag_status</text>
<text text-anchor="middle" x="558" y="-385" font-family="Helvetica,sans-Serif" font-size="10.00">_inactive</text>
</a>
</g>
</g>
<!-- Node13&#45;&gt;Node18 -->
<g id="edge22_Node000013_Node000018" class="edge">
<title>Node13&#45;&gt;Node18</title>
<g id="a_edge22_Node000013_Node000018"><a xlink:title=" ">
<path fill="none" stroke="#63b8ff" d="M404.87,-311.73C420.64,-326.05 452.07,-352.87 483,-369 486.47,-370.81 490.1,-372.52 493.82,-374.12"/>
<polygon fill="#63b8ff" stroke="#63b8ff" points="492.59,-377.4 503.17,-377.91 495.21,-370.91 492.59,-377.4"/>
</a>
</g>
</g>
<!-- Node19 -->
<g id="Node000019" class="node">
<title>Node19</title>
<g id="a_Node000019"><a xlink:href="code__80086E70_8c.html#a1d4593518e5153328388afb23bbc6902" target="_top" xlink:title=" ">
<polygon fill="white" stroke="#666666" points="615,-360 501,-360 501,-330 615,-330 615,-360"/>
<text text-anchor="start" x="509" y="-348" font-family="Helvetica,sans-Serif" font-size="10.00">object_add_velocity</text>
<text text-anchor="middle" x="558" y="-337" font-family="Helvetica,sans-Serif" font-size="10.00">_offset_xyz</text>
</a>
</g>
</g>
<!-- Node13&#45;&gt;Node19 -->
<g id="edge23_Node000013_Node000019" class="edge">
<title>Node13&#45;&gt;Node19</title>
<g id="a_edge23_Node000013_Node000019"><a xlink:title=" ">
<path fill="none" stroke="#63b8ff" d="M430.56,-311.54C448.4,-316.26 470.5,-322.11 491.21,-327.59"/>
<polygon fill="#63b8ff" stroke="#63b8ff" points="490.36,-330.99 500.92,-330.16 492.15,-324.22 490.36,-330.99"/>
</a>
</g>
</g>
<!-- Node13&#45;&gt;Node20 -->
<g id="edge25_Node000013_Node000020" class="edge">
<title>Node13&#45;&gt;Node20</title>
<g id="a_edge25_Node000013_Node000020"><a xlink:title=" ">
<path fill="none" stroke="#63b8ff" d="M406.98,-292.31C423.51,-279.91 453.96,-258.55 483,-246 488.67,-243.55 494.73,-241.36 500.85,-239.42"/>
<polygon fill="#63b8ff" stroke="#63b8ff" points="501.87,-242.77 510.46,-236.58 499.88,-236.06 501.87,-242.77"/>
</a>
</g>
</g>
<!-- Node14&#45;&gt;Node8 -->
<g id="edge18_Node000014_Node000008" class="edge">
<title>Node14&#45;&gt;Node8</title>
<g id="a_edge18_Node000014_Node000008"><a xlink:title=" ">
<path fill="none" stroke="#63b8ff" d="M603.17,-254.47C620.15,-250.81 640.01,-246.52 658.93,-242.44"/>
<polygon fill="#63b8ff" stroke="#63b8ff" points="659.67,-245.86 668.71,-240.33 658.2,-239.02 659.67,-245.86"/>
</a>
</g>
</g>
<!-- Node16 -->
<g id="Node000016" class="node">
<title>Node16</title>
<g id="a_Node000016"><a xlink:href="math__util_8c.html#ae69cbf5c8d4b3b0dba2d7b4d4673689f" target="_top" xlink:title=" ">
<polygon fill="white" stroke="#666666" points="750.5,-408.5 712.5,-408.5 712.5,-389.5 750.5,-389.5 750.5,-408.5"/>
<text text-anchor="middle" x="731.5" y="-396.5" font-family="Helvetica,sans-Serif" font-size="10.00">coss</text>
</a>
</g>
</g>
<!-- Node15&#45;&gt;Node16 -->
<g id="edge20_Node000015_Node000016" class="edge">
<title>Node15&#45;&gt;Node16</title>
<g id="a_edge20_Node000015_Node000016"><a xlink:title=" ">
<path fill="none" stroke="#63b8ff" d="M603.17,-426.47C634.36,-419.74 675.23,-410.92 702.15,-405.12"/>
<polygon fill="#63b8ff" stroke="#63b8ff" points="703.04,-408.5 712.08,-402.97 701.57,-401.66 703.04,-408.5"/>
</a>
</g>
</g>
<!-- Node17 -->
<g id="Node000017" class="node">
<title>Node17</title>
<g id="a_Node000017"><a xlink:href="math__util_8c.html#a19ed3bd78fd2d3e2bd0a29f6caf48545" target="_top" xlink:title=" ">
<polygon fill="white" stroke="#666666" points="749.5,-445.5 713.5,-445.5 713.5,-426.5 749.5,-426.5 749.5,-445.5"/>
<text text-anchor="middle" x="731.5" y="-433.5" font-family="Helvetica,sans-Serif" font-size="10.00">sins</text>
</a>
</g>
</g>
<!-- Node15&#45;&gt;Node17 -->
<g id="edge21_Node000015_Node000017" class="edge">
<title>Node15&#45;&gt;Node17</title>
<g id="a_edge21_Node000015_Node000017"><a xlink:title=" ">
<path fill="none" stroke="#63b8ff" d="M604.06,-436C635.46,-436 676.34,-436 702.99,-436"/>
<polygon fill="#63b8ff" stroke="#63b8ff" points="703.13,-439.5 713.13,-436 703.13,-432.5 703.13,-439.5"/>
</a>
</g>
</g>
<!-- Node22 -->
<g id="Node000022" class="node">
<title>Node22</title>
<g id="a_Node000022"><a xlink:href="update__objects_8c.html#abdebd086b5ff081f83af3d9205f39cd3" target="_top" xlink:title=" ">
<polygon fill="white" stroke="#666666" points="427.5,-67.5 359.5,-67.5 359.5,-48.5 427.5,-48.5 427.5,-67.5"/>
<text text-anchor="middle" x="393.5" y="-55.5" font-family="Helvetica,sans-Serif" font-size="10.00">init_object</text>
</a>
</g>
</g>
<!-- Node21&#45;&gt;Node22 -->
<g id="edge28_Node000021_Node000022" class="edge">
<title>Node21&#45;&gt;Node22</title>
<g id="a_edge28_Node000021_Node000022"><a xlink:title=" ">
<path fill="none" stroke="#63b8ff" d="M289.77,-58C308.75,-58 330.66,-58 349.36,-58"/>
<polygon fill="#63b8ff" stroke="#63b8ff" points="349.38,-61.5 359.38,-58 349.38,-54.5 349.38,-61.5"/>
</a>
</g>
</g>
<!-- Node23 -->
<g id="Node000023" class="node">
<title>Node23</title>
<g id="a_Node000023"><a xlink:href="code__80086E70_8c.html#a670bd4aa157a5ec3dd6a4f4335a13ea4" target="_top" xlink:title=" ">
<polygon fill="white" stroke="#666666" points="447,-30.5 340,-30.5 340,-11.5 447,-11.5 447,-30.5"/>
<text text-anchor="middle" x="393.5" y="-18.5" font-family="Helvetica,sans-Serif" font-size="10.00">set_obj_origin_pos</text>
</a>
</g>
</g>
<!-- Node21&#45;&gt;Node23 -->
<g id="edge30_Node000021_Node000023" class="edge">
<title>Node21&#45;&gt;Node23</title>
<g id="a_edge30_Node000021_Node000023"><a xlink:title=" ">
<path fill="none" stroke="#63b8ff" d="M282.24,-48.47C301.14,-43.76 324.13,-38.03 344.23,-33.03"/>
<polygon fill="#63b8ff" stroke="#63b8ff" points="345.27,-36.37 354.13,-30.56 343.58,-29.58 345.27,-36.37"/>
</a>
</g>
</g>
<!-- Node22&#45;&gt;Node9 -->
<g id="edge29_Node000022_Node000009" class="edge">
<title>Node22&#45;&gt;Node9</title>
<g id="a_edge29_Node000022_Node000009"><a xlink:title=" ">
<path fill="none" stroke="#63b8ff" d="M427.64,-61.65C482.24,-67.66 592.15,-79.76 663.47,-87.62"/>
<polygon fill="#63b8ff" stroke="#63b8ff" points="663.38,-91.13 673.7,-88.75 664.14,-84.17 663.38,-91.13"/>
</a>
</g>
</g>
</g>
</svg>

<g id="navigator" transform="translate(0 0)" fill="#404254">
  <rect fill="#f2f5e9" fill-opacity="0.5" stroke="#606060" stroke-width=".5" x="0" y="0" width="60" height="60"/>
  <use id="zoomplus" xlink:href="#zoomPlus" x="17" y="9" onmousedown="handleZoom(evt,'in')"/>
  <use id="zoomminus" xlink:href="#zoomMin" x="42" y="9" onmousedown="handleZoom(evt,'out')"/>
  <use id="reset" xlink:href="#resetDef" x="30" y="36" onmousedown="handleReset()"/>
   <use id="arrowup" xlink:href="#arrowUp" x="0" y="0" onmousedown="handlePan(0,-1)"/>
  <use id="arrowright" xlink:href="#arrowRight" x="0" y="0" onmousedown="handlePan(1,0)"/>
  <use id="arrowdown" xlink:href="#arrowDown" x="0" y="0" onmousedown="handlePan(0,1)"/>
  <use id="arrowleft" xlink:href="#arrowLeft" x="0" y="0" onmousedown="handlePan(-1,0)"/>
</g>
<svg viewBox="0 0 15 15" width="100%" height="30px" preserveAspectRatio="xMaxYMin meet">
 <g id="arrow_out" transform="scale(0.3 0.3)">
  <a xlink:href="update__objects_8c_abd248feb63b445a2df7b828ed5f6fc21_cgraph_org.svg" target="_base">
   <rect id="button" ry="5" rx="5" y="6" x="6" height="38" width="38"
        fill="#f2f5e9" fill-opacity="0.5" stroke="#606060" stroke-width="1.0"/>
   <path id="arrow"
     d="M 11.500037,31.436501 C 11.940474,20.09759 22.043105,11.32322 32.158766,21.979434 L 37.068811,17.246167 C 37.068811,17.246167 37.088388,32 37.088388,32 L 22.160133,31.978069 C 22.160133,31.978069 26.997745,27.140456 26.997745,27.140456 C 18.528582,18.264221 13.291696,25.230495 11.500037,31.436501 z"
     style="fill:#404040;"/>
  </a>
 </g>
</svg>

<style type='text/css'>
<![CDATA[
[data-mouse-over-selected='false'] { opacity: 0.7; }
[data-mouse-over-selected='true']  { opacity: 1.0; }
]]>
</style>
<script type="application/ecmascript"><![CDATA[
document.addEventListener('DOMContentLoaded', (event) => {
  highlightEdges();
  highlightAdjacentNodes();
});
]]></script>
</svg>
