<?xml version="1.0" encoding="UTF-8" standalone="no"?>
<!DOCTYPE svg PUBLIC "-//W3C//DTD SVG 1.1//EN"
 "http://www.w3.org/Graphics/SVG/1.1/DTD/svg11.dtd">
<!-- Generated by graphviz version 2.43.0 (0)
 -->
<!-- Title: func_80086940 Pages: 1 -->
<svg width="604pt" height="376pt"
 viewBox="0.00 0.00 604.00 375.56" xmlns="http://www.w3.org/2000/svg" xmlns:xlink="http://www.w3.org/1999/xlink">
<g id="graph0" class="graph" transform="scale(1 1) rotate(0) translate(4 371.56)">
<title>func_80086940</title>
<!-- Node1 -->
<g id="Node000001" class="node">
<title>Node1</title>
<g id="a_Node000001"><a xlink:title=" ">
<polygon fill="#999999" stroke="#666666" points="91,-180.5 0,-180.5 0,-161.5 91,-161.5 91,-180.5"/>
<text text-anchor="middle" x="45.5" y="-168.5" font-family="Helvetica,sans-Serif" font-size="10.00">func_80086940</text>
</a>
</g>
</g>
<!-- Node2 -->
<g id="Node000002" class="node">
<title>Node2</title>
<g id="a_Node000002"><a xlink:href="math__util__2_8c.html#a1f3982f853bea1b49c3733f209dbb903" target="_top" xlink:title=" ">
<polygon fill="white" stroke="#666666" points="239.5,-354.5 136.5,-354.5 136.5,-335.5 239.5,-335.5 239.5,-354.5"/>
<text text-anchor="middle" x="188" y="-342.5" font-family="Helvetica,sans-Serif" font-size="10.00">f32_step_towards</text>
</a>
</g>
</g>
<!-- Node1&#45;&gt;Node2 -->
<g id="edge1_Node000001_Node000002" class="edge">
<title>Node1&#45;&gt;Node2</title>
<g id="a_edge1_Node000001_Node000002"><a xlink:title=" ">
<path fill="none" stroke="#63b8ff" d="M49.09,-180.52C56.67,-206.61 81.17,-280.03 127,-321 131.45,-324.98 136.64,-328.33 142.07,-331.16"/>
<polygon fill="#63b8ff" stroke="#63b8ff" points="140.8,-334.43 151.34,-335.43 143.72,-328.07 140.8,-334.43"/>
</a>
</g>
</g>
<!-- Node3 -->
<g id="Node000003" class="node">
<title>Node3</title>
<g id="a_Node000003"><a xlink:href="code__80086E70_8c.html#acd186a6f592769b3e3db3da72fcf765f" target="_top" xlink:title=" ">
<polygon fill="white" stroke="#666666" points="405.5,-128.5 314.5,-128.5 314.5,-109.5 405.5,-109.5 405.5,-128.5"/>
<text text-anchor="middle" x="360" y="-116.5" font-family="Helvetica,sans-Serif" font-size="10.00">func_80086F60</text>
</a>
</g>
</g>
<!-- Node1&#45;&gt;Node3 -->
<g id="edge2_Node000001_Node000003" class="edge">
<title>Node1&#45;&gt;Node3</title>
<g id="a_edge2_Node000001_Node000003"><a xlink:title=" ">
<path fill="none" stroke="#63b8ff" d="M91.27,-163.55C147.43,-154.21 243.68,-138.19 304.18,-128.12"/>
<polygon fill="#63b8ff" stroke="#63b8ff" points="305.02,-131.53 314.31,-126.44 303.87,-124.63 305.02,-131.53"/>
</a>
</g>
</g>
<!-- Node5 -->
<g id="Node000005" class="node">
<title>Node5</title>
<g id="a_Node000005"><a xlink:href="code__80086E70_8c.html#a6eea48094f49bb346ce1170842d955b2" target="_top" xlink:title=" ">
<polygon fill="white" stroke="#666666" points="406,-337.5 314,-337.5 314,-318.5 406,-318.5 406,-337.5"/>
<text text-anchor="middle" x="360" y="-325.5" font-family="Helvetica,sans-Serif" font-size="10.00">func_80086FD4</text>
</a>
</g>
</g>
<!-- Node1&#45;&gt;Node5 -->
<g id="edge4_Node000001_Node000005" class="edge">
<title>Node1&#45;&gt;Node5</title>
<g id="a_edge4_Node000001_Node000005"><a xlink:title=" ">
<path fill="none" stroke="#63b8ff" d="M50.14,-180.84C59.18,-203.82 85.05,-261.15 127,-288 180.19,-322.05 253.68,-329.57 303.6,-330.18"/>
<polygon fill="#63b8ff" stroke="#63b8ff" points="303.87,-333.68 313.88,-330.21 303.89,-326.68 303.87,-333.68"/>
</a>
</g>
</g>
<!-- Node6 -->
<g id="Node000006" class="node">
<title>Node6</title>
<g id="a_Node000006"><a xlink:href="code__80086E70_8c.html#ae48e4fca508037771141413e29c2b764" target="_top" xlink:title=" ">
<polygon fill="white" stroke="#666666" points="234,-104.5 142,-104.5 142,-85.5 234,-85.5 234,-104.5"/>
<text text-anchor="middle" x="188" y="-92.5" font-family="Helvetica,sans-Serif" font-size="10.00">func_8008701C</text>
</a>
</g>
</g>
<!-- Node1&#45;&gt;Node6 -->
<g id="edge6_Node000001_Node000006" class="edge">
<title>Node1&#45;&gt;Node6</title>
<g id="a_edge6_Node000001_Node000006"><a xlink:title=" ">
<path fill="none" stroke="#63b8ff" d="M59.69,-161.34C75.26,-150.22 102.17,-131.83 127,-119 134.44,-115.15 142.64,-111.51 150.53,-108.28"/>
<polygon fill="#63b8ff" stroke="#63b8ff" points="151.92,-111.49 159.92,-104.55 149.34,-104.99 151.92,-111.49"/>
</a>
</g>
</g>
<!-- Node7 -->
<g id="Node000007" class="node">
<title>Node7</title>
<g id="a_Node000007"><a xlink:href="code__80086E70_8c.html#a56f0505e98e37eda7af759554a41feee" target="_top" xlink:title=" ">
<polygon fill="white" stroke="#666666" points="234,-278.5 142,-278.5 142,-259.5 234,-259.5 234,-278.5"/>
<text text-anchor="middle" x="188" y="-266.5" font-family="Helvetica,sans-Serif" font-size="10.00">func_800871AC</text>
</a>
</g>
</g>
<!-- Node1&#45;&gt;Node7 -->
<g id="edge8_Node000001_Node000007" class="edge">
<title>Node1&#45;&gt;Node7</title>
<g id="a_edge8_Node000001_Node000007"><a xlink:title=" ">
<path fill="none" stroke="#63b8ff" d="M56.91,-180.68C71.77,-194.21 100.24,-219.15 127,-237 136.6,-243.41 147.62,-249.58 157.57,-254.78"/>
<polygon fill="#63b8ff" stroke="#63b8ff" points="156.21,-258.01 166.71,-259.43 159.38,-251.77 156.21,-258.01"/>
</a>
</g>
</g>
<!-- Node10 -->
<g id="Node000010" class="node">
<title>Node10</title>
<g id="a_Node000010"><a xlink:href="code__80086E70_8c.html#a78aeff54a3f4ebd08b5abf8bb3d66047" target="_top" xlink:title=" ">
<polygon fill="white" stroke="#666666" points="234,-227.5 142,-227.5 142,-208.5 234,-208.5 234,-227.5"/>
<text text-anchor="middle" x="188" y="-215.5" font-family="Helvetica,sans-Serif" font-size="10.00">func_80087C48</text>
</a>
</g>
</g>
<!-- Node1&#45;&gt;Node10 -->
<g id="edge13_Node000001_Node000010" class="edge">
<title>Node1&#45;&gt;Node10</title>
<g id="a_edge13_Node000001_Node000010"><a xlink:title=" ">
<path fill="none" stroke="#63b8ff" d="M74.93,-180.51C96.12,-187.6 125.29,-197.36 148.56,-205.14"/>
<polygon fill="#63b8ff" stroke="#63b8ff" points="147.53,-208.49 158.13,-208.34 149.75,-201.85 147.53,-208.49"/>
</a>
</g>
</g>
<!-- Node11 -->
<g id="Node000011" class="node">
<title>Node11</title>
<g id="a_Node000011"><a xlink:href="code__80086E70_8c.html#a04f1b5e2f622dbb93568f5cff8aaf3d5" target="_top" xlink:title=" ">
<polygon fill="white" stroke="#666666" points="417,-177 303,-177 303,-147 417,-147 417,-177"/>
<text text-anchor="start" x="311" y="-165" font-family="Helvetica,sans-Serif" font-size="10.00">object_add_velocity</text>
<text text-anchor="middle" x="360" y="-154" font-family="Helvetica,sans-Serif" font-size="10.00">_offset_y</text>
</a>
</g>
</g>
<!-- Node1&#45;&gt;Node11 -->
<g id="edge21_Node000001_Node000011" class="edge">
<title>Node1&#45;&gt;Node11</title>
<g id="a_edge21_Node000001_Node000011"><a xlink:title=" ">
<path fill="none" stroke="#63b8ff" d="M91.27,-169.71C144,-168.19 232.07,-165.66 292.71,-163.91"/>
<polygon fill="#63b8ff" stroke="#63b8ff" points="293.05,-167.4 302.95,-163.61 292.85,-160.4 293.05,-167.4"/>
</a>
</g>
</g>
<!-- Node12 -->
<g id="Node000012" class="node">
<title>Node12</title>
<g id="a_Node000012"><a xlink:href="menu__items_8c.html#af2f3565f01d7414df24c82c0afc1ac07" target="_top" xlink:title=" ">
<polygon fill="white" stroke="#666666" points="234,-67.5 142,-67.5 142,-48.5 234,-48.5 234,-67.5"/>
<text text-anchor="middle" x="188" y="-55.5" font-family="Helvetica,sans-Serif" font-size="10.00">func_8009265C</text>
</a>
</g>
</g>
<!-- Node1&#45;&gt;Node12 -->
<g id="edge19_Node000001_Node000012" class="edge">
<title>Node1&#45;&gt;Node12</title>
<g id="a_edge19_Node000001_Node000012"><a xlink:title=" ">
<path fill="none" stroke="#63b8ff" d="M52.03,-161.32C63.48,-142.12 91.73,-99.09 127,-76 129.43,-74.41 132.01,-72.95 134.67,-71.62"/>
<polygon fill="#63b8ff" stroke="#63b8ff" points="136.23,-74.76 144,-67.57 133.43,-68.35 136.23,-74.76"/>
</a>
</g>
</g>
<!-- Node14 -->
<g id="Node000014" class="node">
<title>Node14</title>
<g id="a_Node000014"><a xlink:href="code__80086E70_8c.html#a2f6ae8b384477efbc2654d6427d095f7" target="_top" xlink:title=" ">
<polygon fill="white" stroke="#666666" points="249,-30 127,-30 127,0 249,0 249,-30"/>
<text text-anchor="start" x="135" y="-18" font-family="Helvetica,sans-Serif" font-size="10.00">object_calculate_new</text>
<text text-anchor="middle" x="188" y="-7" font-family="Helvetica,sans-Serif" font-size="10.00">_pos_offset</text>
</a>
</g>
</g>
<!-- Node1&#45;&gt;Node14 -->
<g id="edge22_Node000001_Node000014" class="edge">
<title>Node1&#45;&gt;Node14</title>
<g id="a_edge22_Node000001_Node000014"><a xlink:title=" ">
<path fill="none" stroke="#63b8ff" d="M49.94,-161.25C58.89,-137.18 85.18,-74.35 127,-39 128.51,-37.72 130.1,-36.51 131.74,-35.35"/>
<polygon fill="#63b8ff" stroke="#63b8ff" points="133.68,-38.27 140.38,-30.06 130.02,-32.3 133.68,-38.27"/>
</a>
</g>
</g>
<!-- Node4 -->
<g id="Node000004" class="node">
<title>Node4</title>
<g id="a_Node000004"><a xlink:href="update__objects_8c.html#ad33541b9fed7857e59b2d745298f2d44" target="_top" xlink:title=" ">
<polygon fill="white" stroke="#666666" points="596,-220 471,-220 471,-190 596,-190 596,-220"/>
<text text-anchor="start" x="479" y="-208" font-family="Helvetica,sans-Serif" font-size="10.00">set_object_flag_status</text>
<text text-anchor="middle" x="533.5" y="-197" font-family="Helvetica,sans-Serif" font-size="10.00">_false</text>
</a>
</g>
</g>
<!-- Node3&#45;&gt;Node4 -->
<g id="edge3_Node000003_Node000004" class="edge">
<title>Node3&#45;&gt;Node4</title>
<g id="a_edge3_Node000003_Node000004"><a xlink:title=" ">
<path fill="none" stroke="#63b8ff" d="M405.7,-127.78C415.57,-130.46 425.82,-133.83 435,-138 461.1,-149.87 487.74,-168.72 506.55,-183.41"/>
<polygon fill="#63b8ff" stroke="#63b8ff" points="504.62,-186.34 514.62,-189.82 508.97,-180.86 504.62,-186.34"/>
</a>
</g>
</g>
<!-- Node5&#45;&gt;Node4 -->
<g id="edge5_Node000005_Node000004" class="edge">
<title>Node5&#45;&gt;Node4</title>
<g id="a_edge5_Node000005_Node000004"><a xlink:title=" ">
<path fill="none" stroke="#63b8ff" d="M406.06,-321.46C416.02,-318.83 426.22,-315.15 435,-310 469.97,-289.49 499.93,-252.53 517.09,-228.39"/>
<polygon fill="#63b8ff" stroke="#63b8ff" points="520,-230.34 522.82,-220.13 514.24,-226.35 520,-230.34"/>
</a>
</g>
</g>
<!-- Node6&#45;&gt;Node4 -->
<g id="edge7_Node000006_Node000004" class="edge">
<title>Node6&#45;&gt;Node4</title>
<g id="a_edge7_Node000006_Node000004"><a xlink:title=" ">
<path fill="none" stroke="#63b8ff" d="M234.37,-86.03C285.55,-78.14 370.08,-71.93 435,-101 472.22,-117.67 501.92,-155.96 518.36,-181.14"/>
<polygon fill="#63b8ff" stroke="#63b8ff" points="515.5,-183.17 523.8,-189.76 521.42,-179.43 515.5,-183.17"/>
</a>
</g>
</g>
<!-- Node7&#45;&gt;Node4 -->
<g id="edge11_Node000007_Node000004" class="edge">
<title>Node7&#45;&gt;Node4</title>
<g id="a_edge11_Node000007_Node000004"><a xlink:title=" ">
<path fill="none" stroke="#63b8ff" d="M199.08,-278.69C219.43,-297.98 265.17,-339.96 285,-347 347.82,-369.31 376.01,-378.05 435,-347 482,-322.26 510.72,-263.49 523.9,-229.82"/>
<polygon fill="#63b8ff" stroke="#63b8ff" points="527.25,-230.84 527.49,-220.25 520.7,-228.38 527.25,-230.84"/>
</a>
</g>
</g>
<!-- Node7&#45;&gt;Node5 -->
<g id="edge9_Node000007_Node000005" class="edge">
<title>Node7&#45;&gt;Node5</title>
<g id="a_edge9_Node000007_Node000005"><a xlink:title=" ">
<path fill="none" stroke="#63b8ff" d="M213.95,-278.59C224.79,-282.85 237.58,-288.03 249,-293 265.22,-300.07 268.32,-304.1 285,-310 291.05,-312.14 297.47,-314.12 303.9,-315.91"/>
<polygon fill="#63b8ff" stroke="#63b8ff" points="303.4,-319.4 313.96,-318.59 305.2,-312.64 303.4,-319.4"/>
</a>
</g>
</g>
<!-- Node8 -->
<g id="Node000008" class="node">
<title>Node8</title>
<g id="a_Node000008"><a xlink:href="update__objects_8c.html#a2301a51a93a60f0382cdc7002e14f95a" target="_top" xlink:title=" ">
<polygon fill="white" stroke="#666666" points="428,-263 292,-263 292,-233 428,-233 428,-263"/>
<text text-anchor="start" x="300" y="-251" font-family="Helvetica,sans-Serif" font-size="10.00">is_obj_index_flag_status</text>
<text text-anchor="middle" x="360" y="-240" font-family="Helvetica,sans-Serif" font-size="10.00">_inactive</text>
</a>
</g>
</g>
<!-- Node7&#45;&gt;Node8 -->
<g id="edge10_Node000007_Node000008" class="edge">
<title>Node7&#45;&gt;Node8</title>
<g id="a_edge10_Node000007_Node000008"><a xlink:title=" ">
<path fill="none" stroke="#63b8ff" d="M234.11,-263.43C248.77,-261.62 265.48,-259.55 281.81,-257.54"/>
<polygon fill="#63b8ff" stroke="#63b8ff" points="282.4,-260.99 291.9,-256.29 281.55,-254.04 282.4,-260.99"/>
</a>
</g>
</g>
<!-- Node9 -->
<g id="Node000009" class="node">
<title>Node9</title>
<g id="a_Node000009"><a xlink:href="update__objects_8c.html#a00a4e96fc9576ef2552de1c51cf2aa7c" target="_top" xlink:title=" ">
<polygon fill="white" stroke="#666666" points="435,-300.5 285,-300.5 285,-281.5 435,-281.5 435,-300.5"/>
<text text-anchor="middle" x="360" y="-288.5" font-family="Helvetica,sans-Serif" font-size="10.00">set_object_flag_status_true</text>
</a>
</g>
</g>
<!-- Node7&#45;&gt;Node9 -->
<g id="edge12_Node000007_Node000009" class="edge">
<title>Node7&#45;&gt;Node9</title>
<g id="a_edge12_Node000007_Node000009"><a xlink:title=" ">
<path fill="none" stroke="#63b8ff" d="M234.11,-274.84C246.78,-276.48 260.97,-278.31 275.12,-280.14"/>
<polygon fill="#63b8ff" stroke="#63b8ff" points="275.03,-283.66 285.39,-281.47 275.93,-276.72 275.03,-283.66"/>
</a>
</g>
</g>
<!-- Node10&#45;&gt;Node4 -->
<g id="edge17_Node000010_Node000004" class="edge">
<title>Node10&#45;&gt;Node4</title>
<g id="a_edge17_Node000010_Node000004"><a xlink:title=" ">
<path fill="none" stroke="#63b8ff" d="M234.26,-216.29C291.96,-214.1 392.41,-210.3 460.63,-207.72"/>
<polygon fill="#63b8ff" stroke="#63b8ff" points="461.01,-211.21 470.87,-207.33 460.75,-204.21 461.01,-211.21"/>
</a>
</g>
</g>
<!-- Node10&#45;&gt;Node5 -->
<g id="edge14_Node000010_Node000005" class="edge">
<title>Node10&#45;&gt;Node5</title>
<g id="a_edge14_Node000010_Node000005"><a xlink:title=" ">
<path fill="none" stroke="#63b8ff" d="M212.78,-227.56C224.63,-233.14 238.6,-241.06 249,-251 271.2,-272.23 260.19,-291.88 285,-310 290.67,-314.14 297.17,-317.34 303.91,-319.8"/>
<polygon fill="#63b8ff" stroke="#63b8ff" points="303.3,-323.28 313.89,-322.92 305.39,-316.6 303.3,-323.28"/>
</a>
</g>
</g>
<!-- Node10&#45;&gt;Node8 -->
<g id="edge15_Node000010_Node000008" class="edge">
<title>Node10&#45;&gt;Node8</title>
<g id="a_edge15_Node000010_Node000008"><a xlink:title=" ">
<path fill="none" stroke="#63b8ff" d="M234.11,-225.96C248.77,-228.55 265.48,-231.5 281.81,-234.38"/>
<polygon fill="#63b8ff" stroke="#63b8ff" points="281.44,-237.87 291.9,-236.16 282.66,-230.97 281.44,-237.87"/>
</a>
</g>
</g>
<!-- Node10&#45;&gt;Node9 -->
<g id="edge18_Node000010_Node000009" class="edge">
<title>Node10&#45;&gt;Node9</title>
<g id="a_edge18_Node000010_Node000009"><a xlink:title=" ">
<path fill="none" stroke="#63b8ff" d="M206.66,-227.56C218.64,-234.09 234.83,-242.97 249,-251 265.12,-260.13 267.87,-264.96 285,-272 290.96,-274.45 297.32,-276.65 303.71,-278.61"/>
<polygon fill="#63b8ff" stroke="#63b8ff" points="303.16,-282.1 313.74,-281.5 305.1,-275.37 303.16,-282.1"/>
</a>
</g>
</g>
<!-- Node10&#45;&gt;Node11 -->
<g id="edge16_Node000010_Node000011" class="edge">
<title>Node10&#45;&gt;Node11</title>
<g id="a_edge16_Node000010_Node000011"><a xlink:title=" ">
<path fill="none" stroke="#63b8ff" d="M218.22,-208.37C241.58,-200.68 274.99,-189.67 303.4,-180.32"/>
<polygon fill="#63b8ff" stroke="#63b8ff" points="304.81,-183.54 313.22,-177.08 302.62,-176.89 304.81,-183.54"/>
</a>
</g>
</g>
<!-- Node13 -->
<g id="Node000013" class="node">
<title>Node13</title>
<g id="a_Node000013"><a xlink:href="menu__items_8h.html#ae560025be8c56d009f06b309463a5183" target="_top" xlink:title=" ">
<polygon fill="white" stroke="#666666" points="407.5,-52.5 312.5,-52.5 312.5,-33.5 407.5,-33.5 407.5,-52.5"/>
<text text-anchor="middle" x="360" y="-40.5" font-family="Helvetica,sans-Serif" font-size="10.00">add_menu_item</text>
</a>
</g>
</g>
<!-- Node12&#45;&gt;Node13 -->
<g id="edge20_Node000012_Node000013" class="edge">
<title>Node12&#45;&gt;Node13</title>
<g id="a_edge20_Node000012_Node000013"><a xlink:title=" ">
<path fill="none" stroke="#63b8ff" d="M234.11,-54.02C255.09,-52.17 280.27,-49.95 302.51,-47.98"/>
<polygon fill="#63b8ff" stroke="#63b8ff" points="302.84,-51.47 312.49,-47.1 302.22,-44.5 302.84,-51.47"/>
</a>
</g>
</g>
</g>
</svg>
