<?xml version="1.0" encoding="UTF-8" standalone="no"?>
<!DOCTYPE svg PUBLIC "-//W3C//DTD SVG 1.1//EN"
 "http://www.w3.org/Graphics/SVG/1.1/DTD/svg11.dtd">
<!-- Generated by graphviz version 2.43.0 (0)
 -->
<!-- Title: func_80076E14 Pages: 1 -->
<svg width="532pt" height="206pt"
 viewBox="0.00 0.00 532.00 206.00" xmlns="http://www.w3.org/2000/svg" xmlns:xlink="http://www.w3.org/1999/xlink">
<g id="graph0" class="graph" transform="scale(1 1) rotate(0) translate(4 202)">
<title>func_80076E14</title>
<!-- Node1 -->
<g id="Node000001" class="node">
<title>Node1</title>
<g id="a_Node000001"><a xlink:title=" ">
<polygon fill="#999999" stroke="#666666" points="91,-122 0,-122 0,-103 91,-103 91,-122"/>
<text text-anchor="middle" x="45.5" y="-110" font-family="Helvetica,sans-Serif" font-size="10.00">func_80076E14</text>
</a>
</g>
</g>
<!-- Node2 -->
<g id="Node000002" class="node">
<title>Node2</title>
<g id="a_Node000002"><a xlink:href="update__objects_8c.html#a5978ef1e35515c275f92eb79b8601d77" target="_top" xlink:title=" ">
<polygon fill="white" stroke="#666666" points="219,-84 128,-84 128,-65 219,-65 219,-84"/>
<text text-anchor="middle" x="173.5" y="-72" font-family="Helvetica,sans-Serif" font-size="10.00">func_80072428</text>
</a>
</g>
</g>
<!-- Node1&#45;&gt;Node2 -->
<g id="edge1_Node000001_Node000002" class="edge">
<title>Node1&#45;&gt;Node2</title>
<g id="a_edge1_Node000001_Node000002"><a xlink:title=" ">
<path fill="none" stroke="#63b8ff" d="M78.3,-102.91C94.26,-98.1 113.81,-92.2 130.95,-87.03"/>
<polygon fill="#63b8ff" stroke="#63b8ff" points="132.15,-90.32 140.72,-84.09 130.13,-83.62 132.15,-90.32"/>
</a>
</g>
</g>
<!-- Node3 -->
<g id="Node000003" class="node">
<title>Node3</title>
<g id="a_Node000003"><a xlink:href="code__80086E70_8c.html#acd186a6f592769b3e3db3da72fcf765f" target="_top" xlink:title=" ">
<polygon fill="white" stroke="#666666" points="353.5,-123 262.5,-123 262.5,-104 353.5,-104 353.5,-123"/>
<text text-anchor="middle" x="308" y="-111" font-family="Helvetica,sans-Serif" font-size="10.00">func_80086F60</text>
</a>
</g>
</g>
<!-- Node1&#45;&gt;Node3 -->
<g id="edge15_Node000001_Node000003" class="edge">
<title>Node1&#45;&gt;Node3</title>
<g id="a_edge15_Node000001_Node000003"><a xlink:title=" ">
<path fill="none" stroke="#63b8ff" d="M91.28,-112.67C135.87,-112.84 204.38,-113.11 252.19,-113.29"/>
<polygon fill="#63b8ff" stroke="#63b8ff" points="252.35,-116.79 262.37,-113.33 252.38,-109.79 252.35,-116.79"/>
</a>
</g>
</g>
<!-- Node6 -->
<g id="Node000006" class="node">
<title>Node6</title>
<g id="a_Node000006"><a xlink:href="update__objects_8c.html#a0402bdcdbe1edec96b71374d1dafaa5e" target="_top" xlink:title=" ">
<polygon fill="white" stroke="#666666" points="219.5,-47 127.5,-47 127.5,-28 219.5,-28 219.5,-47"/>
<text text-anchor="middle" x="173.5" y="-35" font-family="Helvetica,sans-Serif" font-size="10.00">func_80073B00</text>
</a>
</g>
</g>
<!-- Node1&#45;&gt;Node6 -->
<g id="edge5_Node000001_Node000006" class="edge">
<title>Node1&#45;&gt;Node6</title>
<g id="a_edge5_Node000001_Node000006"><a xlink:title=" ">
<path fill="none" stroke="#63b8ff" d="M58.18,-102.86C73.35,-90.68 100.95,-69.61 127,-55.5 129.84,-53.96 132.84,-52.48 135.88,-51.08"/>
<polygon fill="#63b8ff" stroke="#63b8ff" points="137.27,-54.3 145.07,-47.12 134.5,-47.87 137.27,-54.3"/>
</a>
</g>
</g>
<!-- Node10 -->
<g id="Node000010" class="node">
<title>Node10</title>
<g id="a_Node000010"><a xlink:href="update__objects_8c.html#a8a1cc843647d4b8c608e86098075296a" target="_top" xlink:title=" ">
<polygon fill="white" stroke="#666666" points="220,-198 127,-198 127,-179 220,-179 220,-198"/>
<text text-anchor="middle" x="173.5" y="-186" font-family="Helvetica,sans-Serif" font-size="10.00">func_80076DC4</text>
</a>
</g>
</g>
<!-- Node1&#45;&gt;Node10 -->
<g id="edge9_Node000001_Node000010" class="edge">
<title>Node1&#45;&gt;Node10</title>
<g id="a_edge9_Node000001_Node000010"><a xlink:title=" ">
<path fill="none" stroke="#63b8ff" d="M60.51,-122.09C76.39,-132.83 103.16,-150.55 127,-164.5 132.43,-167.68 138.32,-170.93 144,-173.96"/>
<polygon fill="#63b8ff" stroke="#63b8ff" points="142.78,-177.27 153.26,-178.83 146.03,-171.08 142.78,-177.27"/>
</a>
</g>
</g>
<!-- Node12 -->
<g id="Node000012" class="node">
<title>Node12</title>
<g id="a_Node000012"><a xlink:href="update__objects_8c.html#a8bfc5f5c7034d61b534e14f325b6e399" target="_top" xlink:title=" ">
<polygon fill="white" stroke="#666666" points="360,-160 256,-160 256,-141 360,-141 360,-160"/>
<text text-anchor="middle" x="308" y="-148" font-family="Helvetica,sans-Serif" font-size="10.00">object_next_state</text>
</a>
</g>
</g>
<!-- Node1&#45;&gt;Node12 -->
<g id="edge16_Node000001_Node000012" class="edge">
<title>Node1&#45;&gt;Node12</title>
<g id="a_edge16_Node000001_Node000012"><a xlink:title=" ">
<path fill="none" stroke="#63b8ff" d="M91.16,-120.59C102.81,-122.61 115.36,-124.71 127,-126.5 166.42,-132.55 210.84,-138.49 245.69,-142.94"/>
<polygon fill="#63b8ff" stroke="#63b8ff" points="245.35,-146.42 255.72,-144.21 246.24,-139.48 245.35,-146.42"/>
</a>
</g>
</g>
<!-- Node2&#45;&gt;Node3 -->
<g id="edge2_Node000002_Node000003" class="edge">
<title>Node2&#45;&gt;Node3</title>
<g id="a_edge2_Node000002_Node000003"><a xlink:title=" ">
<path fill="none" stroke="#63b8ff" d="M206.91,-84.04C224.32,-89.16 245.98,-95.54 264.7,-101.05"/>
<polygon fill="#63b8ff" stroke="#63b8ff" points="263.88,-104.46 274.46,-103.92 265.86,-97.74 263.88,-104.46"/>
</a>
</g>
</g>
<!-- Node5 -->
<g id="Node000005" class="node">
<title>Node5</title>
<g id="a_Node000005"><a xlink:href="update__objects_8c.html#af20e3f3c403dd4fbea56e358997e515a" target="_top" xlink:title=" ">
<polygon fill="white" stroke="#666666" points="524,-109 396,-109 396,-90 524,-90 524,-109"/>
<text text-anchor="middle" x="460" y="-97" font-family="Helvetica,sans-Serif" font-size="10.00">set_object_timer_state</text>
</a>
</g>
</g>
<!-- Node2&#45;&gt;Node5 -->
<g id="edge4_Node000002_Node000005" class="edge">
<title>Node2&#45;&gt;Node5</title>
<g id="a_edge4_Node000002_Node000005"><a xlink:title=" ">
<path fill="none" stroke="#63b8ff" d="M219.27,-78.43C263.79,-82.35 332.87,-88.42 385.45,-93.04"/>
<polygon fill="#63b8ff" stroke="#63b8ff" points="385.47,-96.55 395.74,-93.94 386.08,-89.58 385.47,-96.55"/>
</a>
</g>
</g>
<!-- Node4 -->
<g id="Node000004" class="node">
<title>Node4</title>
<g id="a_Node000004"><a xlink:href="update__objects_8c.html#ad33541b9fed7857e59b2d745298f2d44" target="_top" xlink:title=" ">
<polygon fill="white" stroke="#666666" points="522.5,-165.5 397.5,-165.5 397.5,-135.5 522.5,-135.5 522.5,-165.5"/>
<text text-anchor="start" x="405.5" y="-153.5" font-family="Helvetica,sans-Serif" font-size="10.00">set_object_flag_status</text>
<text text-anchor="middle" x="460" y="-142.5" font-family="Helvetica,sans-Serif" font-size="10.00">_false</text>
</a>
</g>
</g>
<!-- Node3&#45;&gt;Node4 -->
<g id="edge3_Node000003_Node000004" class="edge">
<title>Node3&#45;&gt;Node4</title>
<g id="a_edge3_Node000003_Node000004"><a xlink:title=" ">
<path fill="none" stroke="#63b8ff" d="M347.63,-123.03C359.99,-126.08 374.1,-129.56 388.01,-132.99"/>
<polygon fill="#63b8ff" stroke="#63b8ff" points="387.54,-136.48 398.09,-135.48 389.22,-129.68 387.54,-136.48"/>
</a>
</g>
</g>
<!-- Node7 -->
<g id="Node000007" class="node">
<title>Node7</title>
<g id="a_Node000007"><a xlink:href="update__objects_8c.html#a77160ca84eead36749ab8b1ac1ef987b" target="_top" xlink:title=" ">
<polygon fill="white" stroke="#666666" points="354,-47 262,-47 262,-28 354,-28 354,-47"/>
<text text-anchor="middle" x="308" y="-35" font-family="Helvetica,sans-Serif" font-size="10.00">func_80073A10</text>
</a>
</g>
</g>
<!-- Node6&#45;&gt;Node7 -->
<g id="edge6_Node000006_Node000007" class="edge">
<title>Node6&#45;&gt;Node7</title>
<g id="a_edge6_Node000006_Node000007"><a xlink:title=" ">
<path fill="none" stroke="#63b8ff" d="M219.73,-37.5C230.07,-37.5 241.17,-37.5 251.87,-37.5"/>
<polygon fill="#63b8ff" stroke="#63b8ff" points="251.98,-41 261.98,-37.5 251.98,-34 251.98,-41"/>
</a>
</g>
</g>
<!-- Node8 -->
<g id="Node000008" class="node">
<title>Node8</title>
<g id="a_Node000008"><a xlink:href="update__objects_8c.html#a350ec2cc42f1fa42cda82e830e6dc1c6" target="_top" xlink:title=" ">
<polygon fill="white" stroke="#666666" points="505.5,-56 414.5,-56 414.5,-37 505.5,-37 505.5,-56"/>
<text text-anchor="middle" x="460" y="-44" font-family="Helvetica,sans-Serif" font-size="10.00">func_80073800</text>
</a>
</g>
</g>
<!-- Node7&#45;&gt;Node8 -->
<g id="edge7_Node000007_Node000008" class="edge">
<title>Node7&#45;&gt;Node8</title>
<g id="a_edge7_Node000007_Node000008"><a xlink:title=" ">
<path fill="none" stroke="#63b8ff" d="M354,-40.2C369.8,-41.15 387.72,-42.22 404.22,-43.21"/>
<polygon fill="#63b8ff" stroke="#63b8ff" points="404.09,-46.71 414.29,-43.82 404.51,-39.72 404.09,-46.71"/>
</a>
</g>
</g>
<!-- Node9 -->
<g id="Node000009" class="node">
<title>Node9</title>
<g id="a_Node000009"><a xlink:href="update__objects_8c.html#a95b88653b438ce0326cfae9fc910bb68" target="_top" xlink:title=" ">
<polygon fill="white" stroke="#666666" points="506,-19 414,-19 414,0 506,0 506,-19"/>
<text text-anchor="middle" x="460" y="-7" font-family="Helvetica,sans-Serif" font-size="10.00">func_8007381C</text>
</a>
</g>
</g>
<!-- Node7&#45;&gt;Node9 -->
<g id="edge8_Node000007_Node000009" class="edge">
<title>Node7&#45;&gt;Node9</title>
<g id="a_edge8_Node000007_Node000009"><a xlink:title=" ">
<path fill="none" stroke="#63b8ff" d="M354,-29.1C369.66,-26.18 387.39,-22.87 403.77,-19.81"/>
<polygon fill="#63b8ff" stroke="#63b8ff" points="404.58,-23.22 413.77,-17.94 403.3,-16.34 404.58,-23.22"/>
</a>
</g>
</g>
<!-- Node11 -->
<g id="Node000011" class="node">
<title>Node11</title>
<g id="a_Node000011"><a xlink:href="code__80086E70_8c.html#ad844d2fe27c3f0bb5979715fae72559a" target="_top" xlink:title=" ">
<polygon fill="white" stroke="#666666" points="353.5,-197 262.5,-197 262.5,-178 353.5,-178 353.5,-197"/>
<text text-anchor="middle" x="308" y="-185" font-family="Helvetica,sans-Serif" font-size="10.00">func_80086E70</text>
</a>
</g>
</g>
<!-- Node10&#45;&gt;Node11 -->
<g id="edge10_Node000010_Node000011" class="edge">
<title>Node10&#45;&gt;Node11</title>
<g id="a_edge10_Node000010_Node000011"><a xlink:title=" ">
<path fill="none" stroke="#63b8ff" d="M220.1,-188.16C230.42,-188.08 241.49,-187.99 252.15,-187.91"/>
<polygon fill="#63b8ff" stroke="#63b8ff" points="252.24,-191.41 262.21,-187.84 252.19,-184.41 252.24,-191.41"/>
</a>
</g>
</g>
<!-- Node10&#45;&gt;Node12 -->
<g id="edge12_Node000010_Node000012" class="edge">
<title>Node10&#45;&gt;Node12</title>
<g id="a_edge12_Node000010_Node000012"><a xlink:title=" ">
<path fill="none" stroke="#63b8ff" d="M207.94,-178.91C224.88,-174.05 245.66,-168.09 263.81,-162.89"/>
<polygon fill="#63b8ff" stroke="#63b8ff" points="264.93,-166.21 273.58,-160.09 263,-159.48 264.93,-166.21"/>
</a>
</g>
</g>
<!-- Node11&#45;&gt;Node4 -->
<g id="edge11_Node000011_Node000004" class="edge">
<title>Node11&#45;&gt;Node4</title>
<g id="a_edge11_Node000011_Node000004"><a xlink:title=" ">
<path fill="none" stroke="#63b8ff" d="M347.63,-177.97C359.99,-174.92 374.1,-171.44 388.01,-168.01"/>
<polygon fill="#63b8ff" stroke="#63b8ff" points="389.22,-171.32 398.09,-165.52 387.54,-164.52 389.22,-171.32"/>
</a>
</g>
</g>
<!-- Node12&#45;&gt;Node4 -->
<g id="edge13_Node000012_Node000004" class="edge">
<title>Node12&#45;&gt;Node4</title>
<g id="a_edge13_Node000012_Node000004"><a xlink:title=" ">
<path fill="none" stroke="#63b8ff" d="M360.2,-150.5C368.9,-150.5 378.07,-150.5 387.18,-150.5"/>
<polygon fill="#63b8ff" stroke="#63b8ff" points="387.4,-154 397.4,-150.5 387.4,-147 387.4,-154"/>
</a>
</g>
</g>
<!-- Node12&#45;&gt;Node5 -->
<g id="edge14_Node000012_Node000005" class="edge">
<title>Node12&#45;&gt;Node5</title>
<g id="a_edge14_Node000012_Node000005"><a xlink:title=" ">
<path fill="none" stroke="#63b8ff" d="M337.21,-140.91C360.99,-132.82 395.22,-121.18 421.34,-112.3"/>
<polygon fill="#63b8ff" stroke="#63b8ff" points="422.57,-115.58 430.91,-109.05 420.32,-108.96 422.57,-115.58"/>
</a>
</g>
</g>
</g>
</svg>
