<?xml version="1.0" encoding="UTF-8" standalone="no"?>
<!DOCTYPE svg PUBLIC "-//W3C//DTD SVG 1.1//EN"
 "http://www.w3.org/Graphics/SVG/1.1/DTD/svg11.dtd">
<!-- Generated by graphviz version 2.43.0 (0)
 -->
<!-- Title: func_80083C04 Pages: 1 -->
<svg width="629pt" height="377pt"
 viewBox="0.00 0.00 629.00 376.50" xmlns="http://www.w3.org/2000/svg" xmlns:xlink="http://www.w3.org/1999/xlink">
<g id="graph0" class="graph" transform="scale(1 1) rotate(0) translate(4 372.5)">
<title>func_80083C04</title>
<!-- Node1 -->
<g id="Node000001" class="node">
<title>Node1</title>
<g id="a_Node000001"><a xlink:title=" ">
<polygon fill="#999999" stroke="#666666" points="92,-197.5 0,-197.5 0,-178.5 92,-178.5 92,-197.5"/>
<text text-anchor="middle" x="46" y="-185.5" font-family="Helvetica,sans-Serif" font-size="10.00">func_80083C04</text>
</a>
</g>
</g>
<!-- Node2 -->
<g id="Node000002" class="node">
<title>Node2</title>
<g id="a_Node000002"><a xlink:href="update__objects_8c.html#a2c88cc32dff07c6af5fe74d00b9fa279" target="_top" xlink:title=" ">
<polygon fill="white" stroke="#666666" points="245.5,-368.5 153.5,-368.5 153.5,-349.5 245.5,-349.5 245.5,-368.5"/>
<text text-anchor="middle" x="199.5" y="-356.5" font-family="Helvetica,sans-Serif" font-size="10.00">func_800722A4</text>
</a>
</g>
</g>
<!-- Node1&#45;&gt;Node2 -->
<g id="edge1_Node000001_Node000002" class="edge">
<title>Node1&#45;&gt;Node2</title>
<g id="a_edge1_Node000001_Node000002"><a xlink:title=" ">
<path fill="none" stroke="#63b8ff" d="M49.69,-197.84C57.34,-224.05 81.78,-296.25 128,-335 132.94,-339.14 138.63,-342.58 144.6,-345.44"/>
<polygon fill="#63b8ff" stroke="#63b8ff" points="143.55,-348.79 154.12,-349.45 146.27,-342.34 143.55,-348.79"/>
</a>
</g>
</g>
<!-- Node3 -->
<g id="Node000003" class="node">
<title>Node3</title>
<g id="a_Node000003"><a xlink:href="update__objects_8c.html#a6433786e30fbe8c3dc83f83c9f2c35f9" target="_top" xlink:title=" ">
<polygon fill="white" stroke="#666666" points="428,-292.5 336,-292.5 336,-273.5 428,-273.5 428,-292.5"/>
<text text-anchor="middle" x="382" y="-280.5" font-family="Helvetica,sans-Serif" font-size="10.00">func_800726CC</text>
</a>
</g>
</g>
<!-- Node1&#45;&gt;Node3 -->
<g id="edge2_Node000001_Node000003" class="edge">
<title>Node1&#45;&gt;Node3</title>
<g id="a_edge2_Node000001_Node000003"><a xlink:title=" ">
<path fill="none" stroke="#63b8ff" d="M56.43,-197.75C70.55,-211.7 98.69,-236.97 128,-249 192.38,-275.43 272.97,-282.23 325.66,-283.53"/>
<polygon fill="#63b8ff" stroke="#63b8ff" points="325.75,-287.04 335.82,-283.73 325.89,-280.04 325.75,-287.04"/>
</a>
</g>
</g>
<!-- Node4 -->
<g id="Node000004" class="node">
<title>Node4</title>
<g id="a_Node000004"><a xlink:href="update__objects_8c.html#ad33541b9fed7857e59b2d745298f2d44" target="_top" xlink:title=" ">
<polygon fill="white" stroke="#666666" points="619.5,-301 494.5,-301 494.5,-271 619.5,-271 619.5,-301"/>
<text text-anchor="start" x="502.5" y="-289" font-family="Helvetica,sans-Serif" font-size="10.00">set_object_flag_status</text>
<text text-anchor="middle" x="557" y="-278" font-family="Helvetica,sans-Serif" font-size="10.00">_false</text>
</a>
</g>
</g>
<!-- Node1&#45;&gt;Node4 -->
<g id="edge23_Node000001_Node000004" class="edge">
<title>Node1&#45;&gt;Node4</title>
<g id="a_edge23_Node000001_Node000004"><a xlink:title=" ">
<path fill="none" stroke="#63b8ff" d="M52.43,-197.64C63.73,-216.66 91.75,-258.87 128,-278 241.44,-337.87 396.47,-320.65 485.44,-303.07"/>
<polygon fill="#63b8ff" stroke="#63b8ff" points="486.32,-306.46 495.43,-301.04 484.93,-299.6 486.32,-306.46"/>
</a>
</g>
</g>
<!-- Node6 -->
<g id="Node000006" class="node">
<title>Node6</title>
<g id="a_Node000006"><a xlink:href="update__objects_8c.html#ab4348365b7e22b355e8aec1eb6f6dd9f" target="_top" xlink:title=" ">
<polygon fill="white" stroke="#666666" points="245,-103.5 154,-103.5 154,-84.5 245,-84.5 245,-103.5"/>
<text text-anchor="middle" x="199.5" y="-91.5" font-family="Helvetica,sans-Serif" font-size="10.00">func_80073514</text>
</a>
</g>
</g>
<!-- Node1&#45;&gt;Node6 -->
<g id="edge5_Node000001_Node000006" class="edge">
<title>Node1&#45;&gt;Node6</title>
<g id="a_edge5_Node000001_Node000006"><a xlink:title=" ">
<path fill="none" stroke="#63b8ff" d="M56.03,-178.05C70.09,-163.1 98.65,-134.82 128,-118 135.5,-113.7 143.89,-110.01 152.19,-106.91"/>
<polygon fill="#63b8ff" stroke="#63b8ff" points="153.56,-110.14 161.84,-103.53 151.25,-103.53 153.56,-110.14"/>
</a>
</g>
</g>
<!-- Node7 -->
<g id="Node000007" class="node">
<title>Node7</title>
<g id="a_Node000007"><a xlink:href="update__objects_8c.html#a658f0eb95515deb574dce747d146c675" target="_top" xlink:title=" ">
<polygon fill="white" stroke="#666666" points="245,-66.5 154,-66.5 154,-47.5 245,-47.5 245,-66.5"/>
<text text-anchor="middle" x="199.5" y="-54.5" font-family="Helvetica,sans-Serif" font-size="10.00">func_80074118</text>
</a>
</g>
</g>
<!-- Node1&#45;&gt;Node7 -->
<g id="edge6_Node000001_Node000007" class="edge">
<title>Node1&#45;&gt;Node7</title>
<g id="a_edge6_Node000001_Node000007"><a xlink:title=" ">
<path fill="none" stroke="#63b8ff" d="M51.26,-178.18C61.28,-156.28 88.5,-103.26 128,-76 132.95,-72.59 138.48,-69.79 144.21,-67.49"/>
<polygon fill="#63b8ff" stroke="#63b8ff" points="145.69,-70.68 153.97,-64.08 143.38,-64.07 145.69,-70.68"/>
</a>
</g>
</g>
<!-- Node11 -->
<g id="Node000011" class="node">
<title>Node11</title>
<g id="a_Node000011"><a xlink:href="update__objects_8c.html#aaf422a4388ddf68c728379571937a6e6" target="_top" xlink:title=" ">
<polygon fill="white" stroke="#666666" points="245.5,-179.5 153.5,-179.5 153.5,-160.5 245.5,-160.5 245.5,-179.5"/>
<text text-anchor="middle" x="199.5" y="-167.5" font-family="Helvetica,sans-Serif" font-size="10.00">func_80083B0C</text>
</a>
</g>
</g>
<!-- Node1&#45;&gt;Node11 -->
<g id="edge10_Node000001_Node000011" class="edge">
<title>Node1&#45;&gt;Node11</title>
<g id="a_edge10_Node000001_Node000011"><a xlink:title=" ">
<path fill="none" stroke="#63b8ff" d="M92.04,-182.65C108.08,-180.74 126.33,-178.58 143.13,-176.58"/>
<polygon fill="#63b8ff" stroke="#63b8ff" points="143.85,-180.02 153.37,-175.36 143.02,-173.07 143.85,-180.02"/>
</a>
</g>
</g>
<!-- Node13 -->
<g id="Node000013" class="node">
<title>Node13</title>
<g id="a_Node000013"><a xlink:href="update__objects_8c.html#a8bfc5f5c7034d61b534e14f325b6e399" target="_top" xlink:title=" ">
<polygon fill="white" stroke="#666666" points="434,-255.5 330,-255.5 330,-236.5 434,-236.5 434,-255.5"/>
<text text-anchor="middle" x="382" y="-243.5" font-family="Helvetica,sans-Serif" font-size="10.00">object_next_state</text>
</a>
</g>
</g>
<!-- Node1&#45;&gt;Node13 -->
<g id="edge19_Node000001_Node000013" class="edge">
<title>Node1&#45;&gt;Node13</title>
<g id="a_edge19_Node000001_Node000013"><a xlink:title=" ">
<path fill="none" stroke="#63b8ff" d="M62.79,-197.51C78.66,-206.55 104.12,-219.68 128,-226 191.89,-242.91 267.77,-246.87 319.65,-247.25"/>
<polygon fill="#63b8ff" stroke="#63b8ff" points="319.69,-250.75 329.7,-247.28 319.71,-243.75 319.69,-250.75"/>
</a>
</g>
</g>
<!-- Node15 -->
<g id="Node000015" class="node">
<title>Node15</title>
<g id="a_Node000015"><a xlink:href="update__objects_8c.html#a00a4e96fc9576ef2552de1c51cf2aa7c" target="_top" xlink:title=" ">
<polygon fill="white" stroke="#666666" points="457,-105.5 307,-105.5 307,-86.5 457,-86.5 457,-105.5"/>
<text text-anchor="middle" x="382" y="-93.5" font-family="Helvetica,sans-Serif" font-size="10.00">set_object_flag_status_true</text>
</a>
</g>
</g>
<!-- Node1&#45;&gt;Node15 -->
<g id="edge24_Node000001_Node000015" class="edge">
<title>Node1&#45;&gt;Node15</title>
<g id="a_edge24_Node000001_Node000015"><a xlink:title=" ">
<path fill="none" stroke="#63b8ff" d="M65.56,-178.47C81.71,-170.49 105.93,-159.27 128,-152 189.09,-131.89 260.86,-116.77 312.32,-107.35"/>
<polygon fill="#63b8ff" stroke="#63b8ff" points="313.11,-110.76 322.33,-105.54 311.87,-103.87 313.11,-110.76"/>
</a>
</g>
</g>
<!-- Node16 -->
<g id="Node000016" class="node">
<title>Node16</title>
<g id="a_Node000016"><a xlink:href="update__objects_8c.html#a8849266523f90ebccf7c717a3a30dc8a" target="_top" xlink:title=" ">
<polygon fill="white" stroke="#666666" points="245.5,-27.5 153.5,-27.5 153.5,-8.5 245.5,-8.5 245.5,-27.5"/>
<text text-anchor="middle" x="199.5" y="-15.5" font-family="Helvetica,sans-Serif" font-size="10.00">func_80083BE4</text>
</a>
</g>
</g>
<!-- Node1&#45;&gt;Node16 -->
<g id="edge17_Node000001_Node000016" class="edge">
<title>Node1&#45;&gt;Node16</title>
<g id="a_edge17_Node000001_Node000016"><a xlink:title=" ">
<path fill="none" stroke="#63b8ff" d="M49.46,-178.32C56.69,-151.83 80.43,-77.56 128,-39 132.7,-35.19 138.08,-32.07 143.73,-29.51"/>
<polygon fill="#63b8ff" stroke="#63b8ff" points="145.36,-32.63 153.4,-25.73 142.81,-26.11 145.36,-32.63"/>
</a>
</g>
</g>
<!-- Node18 -->
<g id="Node000018" class="node">
<title>Node18</title>
<g id="a_Node000018"><a xlink:href="update__objects_8c.html#aa87c6969a1223fe82e1cf59e29664510" target="_top" xlink:title="will return true if the timer is done">
<polygon fill="white" stroke="#666666" points="271,-216.5 128,-216.5 128,-197.5 271,-197.5 271,-216.5"/>
<text text-anchor="middle" x="199.5" y="-204.5" font-family="Helvetica,sans-Serif" font-size="10.00">set_and_run_timer_object</text>
</a>
</g>
</g>
<!-- Node1&#45;&gt;Node18 -->
<g id="edge20_Node000001_Node000018" class="edge">
<title>Node1&#45;&gt;Node18</title>
<g id="a_edge20_Node000001_Node000018"><a xlink:title=" ">
<path fill="none" stroke="#63b8ff" d="M92.04,-193.65C100.22,-194.67 108.97,-195.77 117.81,-196.88"/>
<polygon fill="#63b8ff" stroke="#63b8ff" points="117.44,-200.36 127.8,-198.13 118.31,-193.42 117.44,-200.36"/>
</a>
</g>
</g>
<!-- Node3&#45;&gt;Node4 -->
<g id="edge3_Node000003_Node000004" class="edge">
<title>Node3&#45;&gt;Node4</title>
<g id="a_edge3_Node000003_Node000004"><a xlink:title=" ">
<path fill="none" stroke="#63b8ff" d="M428,-283.78C445.14,-284.08 465.14,-284.42 484.16,-284.75"/>
<polygon fill="#63b8ff" stroke="#63b8ff" points="484.23,-288.26 494.29,-284.93 484.36,-281.26 484.23,-288.26"/>
</a>
</g>
</g>
<!-- Node5 -->
<g id="Node000005" class="node">
<title>Node5</title>
<g id="a_Node000005"><a xlink:href="update__objects_8c.html#af20e3f3c403dd4fbea56e358997e515a" target="_top" xlink:title=" ">
<polygon fill="white" stroke="#666666" points="621,-252.5 493,-252.5 493,-233.5 621,-233.5 621,-252.5"/>
<text text-anchor="middle" x="557" y="-240.5" font-family="Helvetica,sans-Serif" font-size="10.00">set_object_timer_state</text>
</a>
</g>
</g>
<!-- Node3&#45;&gt;Node5 -->
<g id="edge4_Node000003_Node000005" class="edge">
<title>Node3&#45;&gt;Node5</title>
<g id="a_edge4_Node000003_Node000005"><a xlink:title=" ">
<path fill="none" stroke="#63b8ff" d="M424.44,-273.42C448.62,-267.83 479.32,-260.73 504.98,-254.8"/>
<polygon fill="#63b8ff" stroke="#63b8ff" points="505.95,-258.17 514.9,-252.5 504.37,-251.35 505.95,-258.17"/>
</a>
</g>
</g>
<!-- Node8 -->
<g id="Node000008" class="node">
<title>Node8</title>
<g id="a_Node000008"><a xlink:href="update__objects_8c.html#adc21b0cb8a0e887624e0daec5a02005c" target="_top" xlink:title=" ">
<polygon fill="white" stroke="#666666" points="428,-67.5 336,-67.5 336,-48.5 428,-48.5 428,-67.5"/>
<text text-anchor="middle" x="382" y="-55.5" font-family="Helvetica,sans-Serif" font-size="10.00">func_8007401C</text>
</a>
</g>
</g>
<!-- Node7&#45;&gt;Node8 -->
<g id="edge7_Node000007_Node000008" class="edge">
<title>Node7&#45;&gt;Node8</title>
<g id="a_edge7_Node000007_Node000008"><a xlink:title=" ">
<path fill="none" stroke="#63b8ff" d="M245.12,-57.25C269.54,-57.38 300.01,-57.55 325.91,-57.69"/>
<polygon fill="#63b8ff" stroke="#63b8ff" points="325.94,-61.19 335.96,-57.75 325.98,-54.2 325.94,-61.19"/>
</a>
</g>
</g>
<!-- Node9 -->
<g id="Node000009" class="node">
<title>Node9</title>
<g id="a_Node000009"><a xlink:href="update__objects_8c.html#ac0f84fb76a5a0da9a3c5bfbc9d5e16b9" target="_top" xlink:title=" ">
<polygon fill="white" stroke="#666666" points="602.5,-85.5 511.5,-85.5 511.5,-66.5 602.5,-66.5 602.5,-85.5"/>
<text text-anchor="middle" x="557" y="-73.5" font-family="Helvetica,sans-Serif" font-size="10.00">func_80073F90</text>
</a>
</g>
</g>
<!-- Node8&#45;&gt;Node9 -->
<g id="edge8_Node000008_Node000009" class="edge">
<title>Node8&#45;&gt;Node9</title>
<g id="a_edge8_Node000008_Node000009"><a xlink:title=" ">
<path fill="none" stroke="#63b8ff" d="M428,-62.68C450.33,-65.01 477.49,-67.83 501.03,-70.28"/>
<polygon fill="#63b8ff" stroke="#63b8ff" points="500.91,-73.79 511.22,-71.34 501.64,-66.82 500.91,-73.79"/>
</a>
</g>
</g>
<!-- Node10 -->
<g id="Node000010" class="node">
<title>Node10</title>
<g id="a_Node000010"><a xlink:href="update__objects_8c.html#ab7e85cd0bcb0dadcf5927343374a9da9" target="_top" xlink:title=" ">
<polygon fill="white" stroke="#666666" points="602.5,-48.5 511.5,-48.5 511.5,-29.5 602.5,-29.5 602.5,-48.5"/>
<text text-anchor="middle" x="557" y="-36.5" font-family="Helvetica,sans-Serif" font-size="10.00">func_80073FAC</text>
</a>
</g>
</g>
<!-- Node8&#45;&gt;Node10 -->
<g id="edge9_Node000008_Node000010" class="edge">
<title>Node8&#45;&gt;Node10</title>
<g id="a_edge9_Node000008_Node000010"><a xlink:title=" ">
<path fill="none" stroke="#63b8ff" d="M428,-53.06C450.33,-50.61 477.49,-47.62 501.03,-45.04"/>
<polygon fill="#63b8ff" stroke="#63b8ff" points="501.67,-48.49 511.22,-43.92 500.9,-41.53 501.67,-48.49"/>
</a>
</g>
</g>
<!-- Node12 -->
<g id="Node000012" class="node">
<title>Node12</title>
<g id="a_Node000012"><a xlink:href="update__objects_8c.html#aaac380231c672b17a8fda8b451572c4c" target="_top" xlink:title=" ">
<polygon fill="white" stroke="#666666" points="436,-142.5 328,-142.5 328,-123.5 436,-123.5 436,-142.5"/>
<text text-anchor="middle" x="382" y="-130.5" font-family="Helvetica,sans-Serif" font-size="10.00">init_texture_object</text>
</a>
</g>
</g>
<!-- Node11&#45;&gt;Node12 -->
<g id="edge11_Node000011_Node000012" class="edge">
<title>Node11&#45;&gt;Node12</title>
<g id="a_edge11_Node000011_Node000012"><a xlink:title=" ">
<path fill="none" stroke="#63b8ff" d="M245.58,-160.76C269.55,-155.85 299.24,-149.76 324.71,-144.54"/>
<polygon fill="#63b8ff" stroke="#63b8ff" points="325.51,-147.95 334.61,-142.51 324.11,-141.09 325.51,-147.95"/>
</a>
</g>
</g>
<!-- Node11&#45;&gt;Node13 -->
<g id="edge12_Node000011_Node000013" class="edge">
<title>Node11&#45;&gt;Node13</title>
<g id="a_edge12_Node000011_Node000013"><a xlink:title=" ">
<path fill="none" stroke="#63b8ff" d="M241.99,-179.59C251.64,-182.26 261.78,-185.42 271,-189 301.39,-200.81 334.35,-218.62 356.19,-231.18"/>
<polygon fill="#63b8ff" stroke="#63b8ff" points="354.71,-234.37 365.11,-236.37 358.23,-228.32 354.71,-234.37"/>
</a>
</g>
</g>
<!-- Node14 -->
<g id="Node000014" class="node">
<title>Node14</title>
<g id="a_Node000014"><a xlink:href="code__80086E70_8c.html#ac9171108201f29dda52974a4a5c68a04" target="_top" xlink:title=" ">
<polygon fill="white" stroke="#666666" points="441,-179.5 323,-179.5 323,-160.5 441,-160.5 441,-179.5"/>
<text text-anchor="middle" x="382" y="-167.5" font-family="Helvetica,sans-Serif" font-size="10.00">set_obj_origin_offset</text>
</a>
</g>
</g>
<!-- Node11&#45;&gt;Node14 -->
<g id="edge15_Node000011_Node000014" class="edge">
<title>Node11&#45;&gt;Node14</title>
<g id="a_edge15_Node000011_Node000014"><a xlink:title=" ">
<path fill="none" stroke="#63b8ff" d="M245.58,-170C265.87,-170 290.25,-170 312.7,-170"/>
<polygon fill="#63b8ff" stroke="#63b8ff" points="312.86,-173.5 322.86,-170 312.86,-166.5 312.86,-173.5"/>
</a>
</g>
</g>
<!-- Node11&#45;&gt;Node15 -->
<g id="edge16_Node000011_Node000015" class="edge">
<title>Node11&#45;&gt;Node15</title>
<g id="a_edge16_Node000011_Node000015"><a xlink:title=" ">
<path fill="none" stroke="#63b8ff" d="M237.15,-160.46C248.4,-156.77 260.56,-151.97 271,-146 289.33,-135.52 288.28,-124.77 307,-115 311.51,-112.64 316.34,-110.57 321.28,-108.74"/>
<polygon fill="#63b8ff" stroke="#63b8ff" points="322.5,-112.02 330.87,-105.52 320.28,-105.38 322.5,-112.02"/>
</a>
</g>
</g>
<!-- Node13&#45;&gt;Node4 -->
<g id="edge13_Node000013_Node000004" class="edge">
<title>Node13&#45;&gt;Node4</title>
<g id="a_edge13_Node000013_Node000004"><a xlink:title=" ">
<path fill="none" stroke="#63b8ff" d="M424.44,-255.58C442.39,-259.73 463.94,-264.71 484.35,-269.43"/>
<polygon fill="#63b8ff" stroke="#63b8ff" points="483.73,-272.88 494.26,-271.72 485.3,-266.06 483.73,-272.88"/>
</a>
</g>
</g>
<!-- Node13&#45;&gt;Node5 -->
<g id="edge14_Node000013_Node000005" class="edge">
<title>Node13&#45;&gt;Node5</title>
<g id="a_edge14_Node000013_Node000005"><a xlink:title=" ">
<path fill="none" stroke="#63b8ff" d="M434.44,-245.11C449.61,-244.84 466.52,-244.55 482.79,-244.27"/>
<polygon fill="#63b8ff" stroke="#63b8ff" points="482.88,-247.77 492.82,-244.1 482.76,-240.77 482.88,-247.77"/>
</a>
</g>
</g>
<!-- Node17 -->
<g id="Node000017" class="node">
<title>Node17</title>
<g id="a_Node000017"><a xlink:href="code__80086E70_8c.html#a2f6ae8b384477efbc2654d6427d095f7" target="_top" xlink:title=" ">
<polygon fill="white" stroke="#666666" points="443,-30 321,-30 321,0 443,0 443,-30"/>
<text text-anchor="start" x="329" y="-18" font-family="Helvetica,sans-Serif" font-size="10.00">object_calculate_new</text>
<text text-anchor="middle" x="382" y="-7" font-family="Helvetica,sans-Serif" font-size="10.00">_pos_offset</text>
</a>
</g>
</g>
<!-- Node16&#45;&gt;Node17 -->
<g id="edge18_Node000016_Node000017" class="edge">
<title>Node16&#45;&gt;Node17</title>
<g id="a_edge18_Node000016_Node000017"><a xlink:title=" ">
<path fill="none" stroke="#63b8ff" d="M245.58,-17.25C265.23,-16.92 288.73,-16.53 310.6,-16.17"/>
<polygon fill="#63b8ff" stroke="#63b8ff" points="310.9,-19.67 320.84,-16 310.79,-12.67 310.9,-19.67"/>
</a>
</g>
</g>
<!-- Node18&#45;&gt;Node5 -->
<g id="edge22_Node000018_Node000005" class="edge">
<title>Node18&#45;&gt;Node5</title>
<g id="a_edge22_Node000018_Node000005"><a xlink:title=" ">
<path fill="none" stroke="#63b8ff" d="M271.12,-211.47C322.71,-215.06 394.31,-220.69 457,-228 466.91,-229.15 477.35,-230.55 487.58,-232.01"/>
<polygon fill="#63b8ff" stroke="#63b8ff" points="487.32,-235.51 497.72,-233.49 488.33,-228.58 487.32,-235.51"/>
</a>
</g>
</g>
<!-- Node18&#45;&gt;Node13 -->
<g id="edge21_Node000018_Node000013" class="edge">
<title>Node18&#45;&gt;Node13</title>
<g id="a_edge21_Node000018_Node000013"><a xlink:title=" ">
<path fill="none" stroke="#63b8ff" d="M244.66,-216.54C269.55,-221.92 300.84,-228.68 327.17,-234.37"/>
<polygon fill="#63b8ff" stroke="#63b8ff" points="326.47,-237.8 336.99,-236.49 327.95,-230.96 326.47,-237.8"/>
</a>
</g>
</g>
</g>
</svg>
