<?xml version="1.0" encoding="UTF-8" standalone="no"?>
<!DOCTYPE svg PUBLIC "-//W3C//DTD SVG 1.1//EN"
 "http://www.w3.org/Graphics/SVG/1.1/DTD/svg11.dtd">
<!-- Generated by graphviz version 2.43.0 (0)
 -->
<!-- Title: update_object_lakitu_fishing Pages: 1 -->
<svg width="1050pt" height="955pt"
 viewBox="0.00 0.00 1050.00 954.65" xmlns="http://www.w3.org/2000/svg" xmlns:xlink="http://www.w3.org/1999/xlink">
<g id="graph0" class="graph" transform="scale(1 1) rotate(0) translate(4 950.65)">
<title>update_object_lakitu_fishing</title>
<!-- Node1 -->
<g id="Node000001" class="node">
<title>Node1</title>
<g id="a_Node000001"><a xlink:title=" ">
<polygon fill="#999999" stroke="#666666" points="119,-497 0,-497 0,-467 119,-467 119,-497"/>
<text text-anchor="start" x="8" y="-485" font-family="Helvetica,sans-Serif" font-size="10.00">update_object_lakitu</text>
<text text-anchor="middle" x="59.5" y="-474" font-family="Helvetica,sans-Serif" font-size="10.00">_fishing</text>
</a>
</g>
</g>
<!-- Node2 -->
<g id="Node000002" class="node">
<title>Node2</title>
<g id="a_Node000002"><a xlink:href="update__objects_8c.html#aaece45bd6baf5aaf797c872a6e105604" target="_top" xlink:title=" ">
<polygon fill="white" stroke="#666666" points="592.5,-869.5 500.5,-869.5 500.5,-850.5 592.5,-850.5 592.5,-869.5"/>
<text text-anchor="middle" x="546.5" y="-857.5" font-family="Helvetica,sans-Serif" font-size="10.00">func_800722CC</text>
</a>
</g>
</g>
<!-- Node1&#45;&gt;Node2 -->
<g id="edge1_Node000001_Node000002" class="edge">
<title>Node1&#45;&gt;Node2</title>
<g id="a_edge1_Node000001_Node000002"><a xlink:title=" ">
<path fill="none" stroke="#63b8ff" d="M62.06,-497.27C69.08,-563.17 99.87,-822.42 155,-879 246.64,-973.05 321.25,-951.33 448,-917 477.41,-909.03 507.04,-889.74 525.79,-875.8"/>
<polygon fill="#63b8ff" stroke="#63b8ff" points="528.01,-878.5 533.83,-869.65 523.76,-872.94 528.01,-878.5"/>
</a>
</g>
</g>
<!-- Node3 -->
<g id="Node000003" class="node">
<title>Node3</title>
<g id="a_Node000003"><a xlink:href="update__objects_8c.html#a5978ef1e35515c275f92eb79b8601d77" target="_top" xlink:title=" ">
<polygon fill="white" stroke="#666666" points="254,-342.5 163,-342.5 163,-323.5 254,-323.5 254,-342.5"/>
<text text-anchor="middle" x="208.5" y="-330.5" font-family="Helvetica,sans-Serif" font-size="10.00">func_80072428</text>
</a>
</g>
</g>
<!-- Node1&#45;&gt;Node3 -->
<g id="edge2_Node000001_Node000003" class="edge">
<title>Node1&#45;&gt;Node3</title>
<g id="a_edge2_Node000001_Node000003"><a xlink:title=" ">
<path fill="none" stroke="#63b8ff" d="M75.4,-466.89C102.89,-439.03 161.41,-379.72 190.44,-350.29"/>
<polygon fill="#63b8ff" stroke="#63b8ff" points="193.26,-352.42 197.79,-342.84 188.28,-347.5 193.26,-352.42"/>
</a>
</g>
</g>
<!-- Node7 -->
<g id="Node000007" class="node">
<title>Node7</title>
<g id="a_Node000007"><a xlink:href="update__objects_8c.html#a91e6ccbfa10d972106998ad26b271c17" target="_top" xlink:title=" ">
<polygon fill="white" stroke="#666666" points="418.5,-266.5 327.5,-266.5 327.5,-247.5 418.5,-247.5 418.5,-266.5"/>
<text text-anchor="middle" x="373" y="-254.5" font-family="Helvetica,sans-Serif" font-size="10.00">func_80072488</text>
</a>
</g>
</g>
<!-- Node1&#45;&gt;Node7 -->
<g id="edge6_Node000001_Node000007" class="edge">
<title>Node1&#45;&gt;Node7</title>
<g id="a_edge6_Node000001_Node000007"><a xlink:title=" ">
<path fill="none" stroke="#63b8ff" d="M64.71,-466.93C74.65,-434.11 102.8,-355.87 155,-315 201.77,-278.38 269.71,-264.8 317.07,-259.81"/>
<polygon fill="#63b8ff" stroke="#63b8ff" points="317.52,-263.29 327.14,-258.85 316.85,-256.32 317.52,-263.29"/>
</a>
</g>
</g>
<!-- Node8 -->
<g id="Node000008" class="node">
<title>Node8</title>
<g id="a_Node000008"><a xlink:href="update__objects_8c.html#aeb63467994b1ba00fc0dfe6abc2b65cb" target="_top" xlink:title=" ">
<polygon fill="white" stroke="#666666" points="254.5,-228.5 162.5,-228.5 162.5,-209.5 254.5,-209.5 254.5,-228.5"/>
<text text-anchor="middle" x="208.5" y="-216.5" font-family="Helvetica,sans-Serif" font-size="10.00">func_800730BC</text>
</a>
</g>
</g>
<!-- Node1&#45;&gt;Node8 -->
<g id="edge9_Node000001_Node000008" class="edge">
<title>Node1&#45;&gt;Node8</title>
<g id="a_edge9_Node000001_Node000008"><a xlink:title=" ">
<path fill="none" stroke="#63b8ff" d="M64.3,-466.84C74.28,-429.23 104.01,-329.76 155,-262 162.89,-251.52 173.85,-242.01 183.72,-234.63"/>
<polygon fill="#63b8ff" stroke="#63b8ff" points="185.9,-237.37 192,-228.71 181.83,-231.67 185.9,-237.37"/>
</a>
</g>
</g>
<!-- Node10 -->
<g id="Node000010" class="node">
<title>Node10</title>
<g id="a_Node000010"><a xlink:href="update__objects_8c.html#a00a4e96fc9576ef2552de1c51cf2aa7c" target="_top" xlink:title=" ">
<polygon fill="white" stroke="#666666" points="448,-104.5 298,-104.5 298,-85.5 448,-85.5 448,-104.5"/>
<text text-anchor="middle" x="373" y="-92.5" font-family="Helvetica,sans-Serif" font-size="10.00">set_object_flag_status_true</text>
</a>
</g>
</g>
<!-- Node1&#45;&gt;Node10 -->
<g id="edge55_Node000001_Node000010" class="edge">
<title>Node1&#45;&gt;Node10</title>
<g id="a_edge55_Node000001_Node000010"><a xlink:title=" ">
<path fill="none" stroke="#63b8ff" d="M61.15,-466.82C63.94,-420.35 78.62,-278.41 155,-200 190.32,-163.74 221.2,-190.96 262,-161 283.21,-145.43 276.05,-128.51 298,-114 301.12,-111.94 304.44,-110.1 307.89,-108.47"/>
<polygon fill="#63b8ff" stroke="#63b8ff" points="309.37,-111.64 317.26,-104.58 306.69,-105.18 309.37,-111.64"/>
</a>
</g>
</g>
<!-- Node11 -->
<g id="Node000011" class="node">
<title>Node11</title>
<g id="a_Node000011"><a xlink:href="update__objects_8c.html#ae85938416e5ea9f8f73c75b574092f30" target="_top" xlink:title=" ">
<polygon fill="white" stroke="#666666" points="254,-566.5 163,-566.5 163,-547.5 254,-547.5 254,-566.5"/>
<text text-anchor="middle" x="208.5" y="-554.5" font-family="Helvetica,sans-Serif" font-size="10.00">func_80073654</text>
</a>
</g>
</g>
<!-- Node1&#45;&gt;Node11 -->
<g id="edge15_Node000001_Node000011" class="edge">
<title>Node1&#45;&gt;Node11</title>
<g id="a_edge15_Node000001_Node000011"><a xlink:title=" ">
<path fill="none" stroke="#63b8ff" d="M83.14,-497.06C101.88,-509.12 129.48,-525.95 155,-538 159.32,-540.04 163.92,-542 168.54,-543.83"/>
<polygon fill="#63b8ff" stroke="#63b8ff" points="167.35,-547.12 177.94,-547.4 169.84,-540.58 167.35,-547.12"/>
</a>
</g>
</g>
<!-- Node12 -->
<g id="Node000012" class="node">
<title>Node12</title>
<g id="a_Node000012"><a xlink:href="update__objects_8c.html#a75b557e879b556e596088376a24763f7" target="_top" xlink:title=" ">
<polygon fill="white" stroke="#666666" points="254,-528.5 163,-528.5 163,-509.5 254,-509.5 254,-528.5"/>
<text text-anchor="middle" x="208.5" y="-516.5" font-family="Helvetica,sans-Serif" font-size="10.00">func_800736E0</text>
</a>
</g>
</g>
<!-- Node1&#45;&gt;Node12 -->
<g id="edge17_Node000001_Node000012" class="edge">
<title>Node1&#45;&gt;Node12</title>
<g id="a_edge17_Node000001_Node000012"><a xlink:title=" ">
<path fill="none" stroke="#63b8ff" d="M119.02,-496.73C132.41,-500.1 146.5,-503.65 159.4,-506.89"/>
<polygon fill="#63b8ff" stroke="#63b8ff" points="158.9,-510.38 169.45,-509.42 160.61,-503.59 158.9,-510.38"/>
</a>
</g>
</g>
<!-- Node13 -->
<g id="Node000013" class="node">
<title>Node13</title>
<g id="a_Node000013"><a xlink:href="update__objects_8c.html#ac42ed5b7975250918d712ff4ea1d3514" target="_top" xlink:title=" ">
<polygon fill="white" stroke="#666666" points="418.5,-605.5 327.5,-605.5 327.5,-586.5 418.5,-586.5 418.5,-605.5"/>
<text text-anchor="middle" x="373" y="-593.5" font-family="Helvetica,sans-Serif" font-size="10.00">func_80073720</text>
</a>
</g>
</g>
<!-- Node1&#45;&gt;Node13 -->
<g id="edge19_Node000001_Node000013" class="edge">
<title>Node1&#45;&gt;Node13</title>
<g id="a_edge19_Node000001_Node000013"><a xlink:title=" ">
<path fill="none" stroke="#63b8ff" d="M70.56,-497.27C85.88,-519.05 117.27,-558.36 155,-576 206.19,-599.93 271.52,-602.75 317.06,-600.94"/>
<polygon fill="#63b8ff" stroke="#63b8ff" points="317.51,-604.42 327.33,-600.44 317.17,-597.43 317.51,-604.42"/>
</a>
</g>
</g>
<!-- Node14 -->
<g id="Node000014" class="node">
<title>Node14</title>
<g id="a_Node000014"><a xlink:href="update__objects_8c.html#a36efe16e358299194a64dc1d7f0e6d3e" target="_top" xlink:title=" ">
<polygon fill="white" stroke="#666666" points="254.5,-869.5 162.5,-869.5 162.5,-850.5 254.5,-850.5 254.5,-869.5"/>
<text text-anchor="middle" x="208.5" y="-857.5" font-family="Helvetica,sans-Serif" font-size="10.00">func_8007993C</text>
</a>
</g>
</g>
<!-- Node1&#45;&gt;Node14 -->
<g id="edge21_Node000001_Node000014" class="edge">
<title>Node1&#45;&gt;Node14</title>
<g id="a_edge21_Node000001_Node000014"><a xlink:title=" ">
<path fill="none" stroke="#63b8ff" d="M62.74,-497C70.18,-543.91 97.03,-691.02 155,-798 164.17,-814.93 178.49,-831.43 189.86,-843.15"/>
<polygon fill="#63b8ff" stroke="#63b8ff" points="187.61,-845.85 197.16,-850.44 192.56,-840.9 187.61,-845.85"/>
</a>
</g>
</g>
<!-- Node16 -->
<g id="Node000016" class="node">
<title>Node16</title>
<g id="a_Node000016"><a xlink:href="update__objects_8c.html#a1d6e48f2d3c6aaa4a934037fa53063ed" target="_top" xlink:title=" ">
<polygon fill="white" stroke="#666666" points="254.5,-416.5 162.5,-416.5 162.5,-397.5 254.5,-397.5 254.5,-416.5"/>
<text text-anchor="middle" x="208.5" y="-404.5" font-family="Helvetica,sans-Serif" font-size="10.00">func_80079A5C</text>
</a>
</g>
</g>
<!-- Node1&#45;&gt;Node16 -->
<g id="edge24_Node000001_Node000016" class="edge">
<title>Node1&#45;&gt;Node16</title>
<g id="a_edge24_Node000001_Node000016"><a xlink:title=" ">
<path fill="none" stroke="#63b8ff" d="M90.25,-466.82C116.28,-453.54 153.84,-434.38 179.38,-421.35"/>
<polygon fill="#63b8ff" stroke="#63b8ff" points="181.21,-424.34 188.53,-416.68 178.03,-418.1 181.21,-424.34"/>
</a>
</g>
</g>
<!-- Node20 -->
<g id="Node000020" class="node">
<title>Node20</title>
<g id="a_Node000020"><a xlink:href="code__80086E70_8c.html#a7abe2cf99895b2c65aabbcf5fc465b67" target="_top" xlink:title=" ">
<polygon fill="white" stroke="#666666" points="254.5,-491.5 162.5,-491.5 162.5,-472.5 254.5,-472.5 254.5,-491.5"/>
<text text-anchor="middle" x="208.5" y="-479.5" font-family="Helvetica,sans-Serif" font-size="10.00">func_80086EAC</text>
</a>
</g>
</g>
<!-- Node1&#45;&gt;Node20 -->
<g id="edge30_Node000001_Node000020" class="edge">
<title>Node1&#45;&gt;Node20</title>
<g id="a_edge30_Node000001_Node000020"><a xlink:title=" ">
<path fill="none" stroke="#63b8ff" d="M119.02,-482C129.94,-482 141.32,-482 152.15,-482"/>
<polygon fill="#63b8ff" stroke="#63b8ff" points="152.32,-485.5 162.32,-482 152.32,-478.5 152.32,-485.5"/>
</a>
</g>
</g>
<!-- Node21 -->
<g id="Node000021" class="node">
<title>Node21</title>
<g id="a_Node000021"><a xlink:href="code__80086E70_8c.html#a8e51cb92b1182f52f501900ce4761c0b" target="_top" xlink:title=" ">
<polygon fill="white" stroke="#666666" points="253.5,-152.5 163.5,-152.5 163.5,-133.5 253.5,-133.5 253.5,-152.5"/>
<text text-anchor="middle" x="208.5" y="-140.5" font-family="Helvetica,sans-Serif" font-size="10.00">func_80086FA4</text>
</a>
</g>
</g>
<!-- Node1&#45;&gt;Node21 -->
<g id="edge32_Node000001_Node000021" class="edge">
<title>Node1&#45;&gt;Node21</title>
<g id="a_edge32_Node000001_Node000021"><a xlink:title=" ">
<path fill="none" stroke="#63b8ff" d="M60.81,-466.78C62.63,-417.35 74.73,-259.12 155,-167 158.21,-163.32 162.09,-160.17 166.28,-157.49"/>
<polygon fill="#63b8ff" stroke="#63b8ff" points="168.1,-160.48 175.19,-152.6 164.74,-154.34 168.1,-160.48"/>
</a>
</g>
</g>
<!-- Node22 -->
<g id="Node000022" class="node">
<title>Node22</title>
<g id="a_Node000022"><a xlink:href="effects_8c.html#a80884e9db018960df253546f0c9718e5" target="_top" xlink:title=" ">
<polygon fill="white" stroke="#666666" points="254,-67.5 163,-67.5 163,-48.5 254,-48.5 254,-67.5"/>
<text text-anchor="middle" x="208.5" y="-55.5" font-family="Helvetica,sans-Serif" font-size="10.00">func_80090868</text>
</a>
</g>
</g>
<!-- Node1&#45;&gt;Node22 -->
<g id="edge33_Node000001_Node000022" class="edge">
<title>Node1&#45;&gt;Node22</title>
<g id="a_edge33_Node000001_Node000022"><a xlink:title=" ">
<path fill="none" stroke="#63b8ff" d="M62.23,-466.9C68.49,-416.08 93.02,-247.53 155,-124 164.16,-105.75 178.92,-87.8 190.46,-75.24"/>
<polygon fill="#63b8ff" stroke="#63b8ff" points="193.15,-77.48 197.49,-67.81 188.07,-72.67 193.15,-77.48"/>
</a>
</g>
</g>
<!-- Node25 -->
<g id="Node000025" class="node">
<title>Node25</title>
<g id="a_Node000025"><a xlink:href="external_8c.html#ad377fc55133176f069744a4bcb5e0364" target="_top" xlink:title=" ">
<polygon fill="white" stroke="#666666" points="592.5,-812.5 500.5,-812.5 500.5,-793.5 592.5,-793.5 592.5,-812.5"/>
<text text-anchor="middle" x="546.5" y="-800.5" font-family="Helvetica,sans-Serif" font-size="10.00">func_800C9018</text>
</a>
</g>
</g>
<!-- Node1&#45;&gt;Node25 -->
<g id="edge36_Node000001_Node000025" class="edge">
<title>Node1&#45;&gt;Node25</title>
<g id="a_edge36_Node000001_Node000025"><a xlink:title=" ">
<path fill="none" stroke="#63b8ff" d="M64.46,-497.03C74.41,-532.44 103.43,-622.33 155,-679 242.78,-775.46 405.13,-797.36 490.21,-802.01"/>
<polygon fill="#63b8ff" stroke="#63b8ff" points="490.29,-805.52 500.44,-802.51 490.63,-798.53 490.29,-805.52"/>
</a>
</g>
</g>
<!-- Node32 -->
<g id="Node000032" class="node">
<title>Node32</title>
<g id="a_Node000032"><a xlink:href="update__objects_8c.html#a27923710a10f66db70bc27c426283302" target="_top" xlink:title=" ">
<polygon fill="white" stroke="#666666" points="262,-670 155,-670 155,-640 262,-640 262,-670"/>
<text text-anchor="start" x="163" y="-658" font-family="Helvetica,sans-Serif" font-size="10.00">init_obj_lakitu_red</text>
<text text-anchor="middle" x="208.5" y="-647" font-family="Helvetica,sans-Serif" font-size="10.00">_flag_fishing</text>
</a>
</g>
</g>
<!-- Node1&#45;&gt;Node32 -->
<g id="edge43_Node000001_Node000032" class="edge">
<title>Node1&#45;&gt;Node32</title>
<g id="a_edge43_Node000001_Node000032"><a xlink:title=" ">
<path fill="none" stroke="#63b8ff" d="M70.32,-497.27C86.52,-521.96 120.51,-571.64 155,-609 162.72,-617.37 171.85,-625.79 180.31,-633.1"/>
<polygon fill="#63b8ff" stroke="#63b8ff" points="178.25,-635.94 188.15,-639.73 182.77,-630.6 178.25,-635.94"/>
</a>
</g>
</g>
<!-- Node4 -->
<g id="Node000004" class="node">
<title>Node4</title>
<g id="a_Node000004"><a xlink:href="code__80086E70_8c.html#acd186a6f592769b3e3db3da72fcf765f" target="_top" xlink:title=" ">
<polygon fill="white" stroke="#666666" points="418.5,-342.5 327.5,-342.5 327.5,-323.5 418.5,-323.5 418.5,-342.5"/>
<text text-anchor="middle" x="373" y="-330.5" font-family="Helvetica,sans-Serif" font-size="10.00">func_80086F60</text>
</a>
</g>
</g>
<!-- Node3&#45;&gt;Node4 -->
<g id="edge3_Node000003_Node000004" class="edge">
<title>Node3&#45;&gt;Node4</title>
<g id="a_edge3_Node000003_Node000004"><a xlink:title=" ">
<path fill="none" stroke="#63b8ff" d="M254.33,-333C273.78,-333 296.74,-333 317.19,-333"/>
<polygon fill="#63b8ff" stroke="#63b8ff" points="317.31,-336.5 327.31,-333 317.31,-329.5 317.31,-336.5"/>
</a>
</g>
</g>
<!-- Node6 -->
<g id="Node000006" class="node">
<title>Node6</title>
<g id="a_Node000006"><a xlink:href="update__objects_8c.html#a4b4f00a7df0f9bc44914cd922c3cd51b" target="_top" xlink:title=" ">
<polygon fill="white" stroke="#666666" points="604,-266.5 489,-266.5 489,-247.5 604,-247.5 604,-266.5"/>
<text text-anchor="middle" x="546.5" y="-254.5" font-family="Helvetica,sans-Serif" font-size="10.00">set_object_unk_0CB</text>
</a>
</g>
</g>
<!-- Node3&#45;&gt;Node6 -->
<g id="edge5_Node000003_Node000006" class="edge">
<title>Node3&#45;&gt;Node6</title>
<g id="a_edge5_Node000003_Node000006"><a xlink:title=" ">
<path fill="none" stroke="#63b8ff" d="M251.71,-323.45C313.16,-309.55 427.13,-283.78 493.61,-268.74"/>
<polygon fill="#63b8ff" stroke="#63b8ff" points="494.48,-272.13 503.46,-266.51 492.93,-265.3 494.48,-272.13"/>
</a>
</g>
</g>
<!-- Node5 -->
<g id="Node000005" class="node">
<title>Node5</title>
<g id="a_Node000005"><a xlink:href="update__objects_8c.html#ad33541b9fed7857e59b2d745298f2d44" target="_top" xlink:title=" ">
<polygon fill="white" stroke="#666666" points="609,-516 484,-516 484,-486 609,-486 609,-516"/>
<text text-anchor="start" x="492" y="-504" font-family="Helvetica,sans-Serif" font-size="10.00">set_object_flag_status</text>
<text text-anchor="middle" x="546.5" y="-493" font-family="Helvetica,sans-Serif" font-size="10.00">_false</text>
</a>
</g>
</g>
<!-- Node4&#45;&gt;Node5 -->
<g id="edge4_Node000004_Node000005" class="edge">
<title>Node4&#45;&gt;Node5</title>
<g id="a_edge4_Node000004_Node000005"><a xlink:title=" ">
<path fill="none" stroke="#63b8ff" d="M418.6,-338.83C428.91,-341.65 439.37,-345.82 448,-352 492.42,-383.8 521.97,-442.7 536.02,-476.13"/>
<polygon fill="#63b8ff" stroke="#63b8ff" points="532.87,-477.68 539.88,-485.63 539.36,-475.05 532.87,-477.68"/>
</a>
</g>
</g>
<!-- Node7&#45;&gt;Node5 -->
<g id="edge7_Node000007_Node000005" class="edge">
<title>Node7&#45;&gt;Node5</title>
<g id="a_edge7_Node000007_Node000005"><a xlink:title=" ">
<path fill="none" stroke="#63b8ff" d="M390.06,-266.69C406.25,-277.07 431.18,-294.81 448,-315 490.55,-366.09 521.95,-438.77 536.5,-476.36"/>
<polygon fill="#63b8ff" stroke="#63b8ff" points="533.33,-477.88 540.15,-485.99 539.88,-475.4 533.33,-477.88"/>
</a>
</g>
</g>
<!-- Node7&#45;&gt;Node6 -->
<g id="edge8_Node000007_Node000006" class="edge">
<title>Node7&#45;&gt;Node6</title>
<g id="a_edge8_Node000007_Node000006"><a xlink:title=" ">
<path fill="none" stroke="#63b8ff" d="M418.61,-257C436.95,-257 458.58,-257 478.74,-257"/>
<polygon fill="#63b8ff" stroke="#63b8ff" points="478.8,-260.5 488.8,-257 478.8,-253.5 478.8,-260.5"/>
</a>
</g>
</g>
<!-- Node8&#45;&gt;Node5 -->
<g id="edge12_Node000008_Node000005" class="edge">
<title>Node8&#45;&gt;Node5</title>
<g id="a_edge12_Node000008_Node000005"><a xlink:title=" ">
<path fill="none" stroke="#63b8ff" d="M254.73,-216.99C315.31,-215.23 418.6,-215.76 448,-238 487.48,-267.86 525.74,-416.15 539.82,-475.94"/>
<polygon fill="#63b8ff" stroke="#63b8ff" points="536.42,-476.76 542.09,-485.71 543.24,-475.18 536.42,-476.76"/>
</a>
</g>
</g>
<!-- Node8&#45;&gt;Node6 -->
<g id="edge14_Node000008_Node000006" class="edge">
<title>Node8&#45;&gt;Node6</title>
<g id="a_edge14_Node000008_Node000006"><a xlink:title=" ">
<path fill="none" stroke="#63b8ff" d="M249.43,-209.44C297.35,-199.61 379.79,-187.95 448,-205 476.15,-212.04 505.07,-228.91 524.03,-241.54"/>
<polygon fill="#63b8ff" stroke="#63b8ff" points="522.26,-244.57 532.48,-247.34 526.21,-238.8 522.26,-244.57"/>
</a>
</g>
</g>
<!-- Node8&#45;&gt;Node7 -->
<g id="edge10_Node000008_Node000007" class="edge">
<title>Node8&#45;&gt;Node7</title>
<g id="a_edge10_Node000008_Node000007"><a xlink:title=" ">
<path fill="none" stroke="#63b8ff" d="M250.51,-228.59C272.05,-233.63 298.63,-239.84 321.44,-245.18"/>
<polygon fill="#63b8ff" stroke="#63b8ff" points="320.75,-248.61 331.29,-247.48 322.35,-241.79 320.75,-248.61"/>
</a>
</g>
</g>
<!-- Node9 -->
<g id="Node000009" class="node">
<title>Node9</title>
<g id="a_Node000009"><a xlink:href="update__objects_8c.html#a2301a51a93a60f0382cdc7002e14f95a" target="_top" xlink:title=" ">
<polygon fill="white" stroke="#666666" points="441,-153 305,-153 305,-123 441,-123 441,-153"/>
<text text-anchor="start" x="313" y="-141" font-family="Helvetica,sans-Serif" font-size="10.00">is_obj_index_flag_status</text>
<text text-anchor="middle" x="373" y="-130" font-family="Helvetica,sans-Serif" font-size="10.00">_inactive</text>
</a>
</g>
</g>
<!-- Node8&#45;&gt;Node9 -->
<g id="edge11_Node000008_Node000009" class="edge">
<title>Node8&#45;&gt;Node9</title>
<g id="a_edge11_Node000008_Node000009"><a xlink:title=" ">
<path fill="none" stroke="#63b8ff" d="M233.36,-209.49C242.55,-205.47 253,-200.45 262,-195 279.33,-184.49 280.38,-177.02 298,-167 304.35,-163.39 311.24,-160.03 318.17,-156.97"/>
<polygon fill="#63b8ff" stroke="#63b8ff" points="319.74,-160.11 327.6,-153 317.03,-153.66 319.74,-160.11"/>
</a>
</g>
</g>
<!-- Node8&#45;&gt;Node10 -->
<g id="edge13_Node000008_Node000010" class="edge">
<title>Node8&#45;&gt;Node10</title>
<g id="a_edge13_Node000008_Node000010"><a xlink:title=" ">
<path fill="none" stroke="#63b8ff" d="M240.19,-209.41C248.02,-205.85 255.94,-201.13 262,-195 289.71,-167 267.92,-139.44 298,-114 299.99,-112.31 302.12,-110.77 304.34,-109.37"/>
<polygon fill="#63b8ff" stroke="#63b8ff" points="306.15,-112.37 313.34,-104.59 302.87,-106.19 306.15,-112.37"/>
</a>
</g>
</g>
<!-- Node11&#45;&gt;Node5 -->
<g id="edge16_Node000011_Node000005" class="edge">
<title>Node11&#45;&gt;Node5</title>
<g id="a_edge16_Node000011_Node000005"><a xlink:title=" ">
<path fill="none" stroke="#63b8ff" d="M254.1,-552.1C302.17,-546.53 380.82,-536.54 448,-524 457.04,-522.31 466.5,-520.34 475.83,-518.27"/>
<polygon fill="#63b8ff" stroke="#63b8ff" points="476.89,-521.62 485.88,-516 475.35,-514.8 476.89,-521.62"/>
</a>
</g>
</g>
<!-- Node12&#45;&gt;Node5 -->
<g id="edge18_Node000012_Node000005" class="edge">
<title>Node12&#45;&gt;Node5</title>
<g id="a_edge18_Node000012_Node000005"><a xlink:title=" ">
<path fill="none" stroke="#63b8ff" d="M254.12,-516.61C310.24,-513.6 407.29,-508.4 473.85,-504.84"/>
<polygon fill="#63b8ff" stroke="#63b8ff" points="474.05,-508.33 483.85,-504.3 473.68,-501.34 474.05,-508.33"/>
</a>
</g>
</g>
<!-- Node13&#45;&gt;Node5 -->
<g id="edge20_Node000013_Node000005" class="edge">
<title>Node13&#45;&gt;Node5</title>
<g id="a_edge20_Node000013_Node000005"><a xlink:title=" ">
<path fill="none" stroke="#63b8ff" d="M411.05,-586.5C423.16,-582.74 436.45,-577.89 448,-572 474.49,-558.49 501.59,-538.13 520.47,-522.67"/>
<polygon fill="#63b8ff" stroke="#63b8ff" points="522.84,-525.25 528.29,-516.16 518.36,-519.87 522.84,-525.25"/>
</a>
</g>
</g>
<!-- Node14&#45;&gt;Node2 -->
<g id="edge23_Node000014_Node000002" class="edge">
<title>Node14&#45;&gt;Node2</title>
<g id="a_edge23_Node000014_Node000002"><a xlink:title=" ">
<path fill="none" stroke="#63b8ff" d="M254.81,-860C315.86,-860 424.41,-860 490.19,-860"/>
<polygon fill="#63b8ff" stroke="#63b8ff" points="490.37,-863.5 500.37,-860 490.37,-856.5 490.37,-863.5"/>
</a>
</g>
</g>
<!-- Node15 -->
<g id="Node000015" class="node">
<title>Node15</title>
<g id="a_Node000015"><a xlink:href="update__objects_8c.html#a2c88cc32dff07c6af5fe74d00b9fa279" target="_top" xlink:title=" ">
<polygon fill="white" stroke="#666666" points="419,-907.5 327,-907.5 327,-888.5 419,-888.5 419,-907.5"/>
<text text-anchor="middle" x="373" y="-895.5" font-family="Helvetica,sans-Serif" font-size="10.00">func_800722A4</text>
</a>
</g>
</g>
<!-- Node14&#45;&gt;Node15 -->
<g id="edge22_Node000014_Node000015" class="edge">
<title>Node14&#45;&gt;Node15</title>
<g id="a_edge22_Node000014_Node000015"><a xlink:title=" ">
<path fill="none" stroke="#63b8ff" d="M250.51,-869.59C272.05,-874.63 298.63,-880.84 321.44,-886.18"/>
<polygon fill="#63b8ff" stroke="#63b8ff" points="320.75,-889.61 331.29,-888.48 322.35,-882.79 320.75,-889.61"/>
</a>
</g>
</g>
<!-- Node16&#45;&gt;Node4 -->
<g id="edge27_Node000016_Node000004" class="edge">
<title>Node16&#45;&gt;Node4</title>
<g id="a_edge27_Node000016_Node000004"><a xlink:title=" ">
<path fill="none" stroke="#63b8ff" d="M222.01,-397.49C238.57,-385.33 269.05,-364.36 298,-352 304.23,-349.34 310.92,-346.98 317.63,-344.92"/>
<polygon fill="#63b8ff" stroke="#63b8ff" points="318.8,-348.23 327.44,-342.1 316.86,-341.5 318.8,-348.23"/>
</a>
</g>
</g>
<!-- Node17 -->
<g id="Node000017" class="node">
<title>Node17</title>
<g id="a_Node000017"><a xlink:href="math__util__2_8c.html#a99e6304891f46564f00965ce860d1c29" target="_top" xlink:title=" ">
<polygon fill="white" stroke="#666666" points="440,-379.5 306,-379.5 306,-360.5 440,-360.5 440,-379.5"/>
<text text-anchor="middle" x="373" y="-367.5" font-family="Helvetica,sans-Serif" font-size="10.00">f32_step_down_towards</text>
</a>
</g>
</g>
<!-- Node16&#45;&gt;Node17 -->
<g id="edge25_Node000016_Node000017" class="edge">
<title>Node16&#45;&gt;Node17</title>
<g id="a_edge25_Node000016_Node000017"><a xlink:title=" ">
<path fill="none" stroke="#63b8ff" d="M251.35,-397.47C272.31,-392.7 297.88,-386.88 320.08,-381.82"/>
<polygon fill="#63b8ff" stroke="#63b8ff" points="321.04,-385.19 330.01,-379.56 319.48,-378.37 321.04,-385.19"/>
</a>
</g>
</g>
<!-- Node18 -->
<g id="Node000018" class="node">
<title>Node18</title>
<g id="a_Node000018"><a xlink:href="math__util__2_8c.html#a561fab07d3a0b3c0be1ea5643179abb5" target="_top" xlink:title=" ">
<polygon fill="white" stroke="#666666" points="433,-416.5 313,-416.5 313,-397.5 433,-397.5 433,-416.5"/>
<text text-anchor="middle" x="373" y="-404.5" font-family="Helvetica,sans-Serif" font-size="10.00">f32_step_up_towards</text>
</a>
</g>
</g>
<!-- Node16&#45;&gt;Node18 -->
<g id="edge26_Node000016_Node000018" class="edge">
<title>Node16&#45;&gt;Node18</title>
<g id="a_edge26_Node000016_Node000018"><a xlink:title=" ">
<path fill="none" stroke="#63b8ff" d="M254.77,-407C269.7,-407 286.66,-407 302.95,-407"/>
<polygon fill="#63b8ff" stroke="#63b8ff" points="302.99,-410.5 312.99,-407 302.99,-403.5 302.99,-410.5"/>
</a>
</g>
</g>
<!-- Node19 -->
<g id="Node000019" class="node">
<title>Node19</title>
<g id="a_Node000019"><a xlink:href="code__80086E70_8c.html#a6eea48094f49bb346ce1170842d955b2" target="_top" xlink:title=" ">
<polygon fill="white" stroke="#666666" points="419,-453.5 327,-453.5 327,-434.5 419,-434.5 419,-453.5"/>
<text text-anchor="middle" x="373" y="-441.5" font-family="Helvetica,sans-Serif" font-size="10.00">func_80086FD4</text>
</a>
</g>
</g>
<!-- Node16&#45;&gt;Node19 -->
<g id="edge28_Node000016_Node000019" class="edge">
<title>Node16&#45;&gt;Node19</title>
<g id="a_edge28_Node000016_Node000019"><a xlink:title=" ">
<path fill="none" stroke="#63b8ff" d="M251.35,-416.53C272.31,-421.3 297.88,-427.12 320.08,-432.18"/>
<polygon fill="#63b8ff" stroke="#63b8ff" points="319.48,-435.63 330.01,-434.44 321.04,-428.81 319.48,-435.63"/>
</a>
</g>
</g>
<!-- Node19&#45;&gt;Node5 -->
<g id="edge29_Node000019_Node000005" class="edge">
<title>Node19&#45;&gt;Node5</title>
<g id="a_edge29_Node000019_Node000005"><a xlink:title=" ">
<path fill="none" stroke="#63b8ff" d="M403.91,-453.61C417.4,-457.96 433.51,-463.2 448,-468 462.2,-472.7 477.53,-477.86 491.74,-482.67"/>
<polygon fill="#63b8ff" stroke="#63b8ff" points="490.78,-486.04 501.37,-485.93 493.02,-479.41 490.78,-486.04"/>
</a>
</g>
</g>
<!-- Node20&#45;&gt;Node5 -->
<g id="edge31_Node000020_Node000005" class="edge">
<title>Node20&#45;&gt;Node5</title>
<g id="a_edge31_Node000020_Node000005"><a xlink:title=" ">
<path fill="none" stroke="#63b8ff" d="M254.81,-484.56C310.92,-487.74 407.18,-493.18 473.46,-496.93"/>
<polygon fill="#63b8ff" stroke="#63b8ff" points="473.65,-500.44 483.83,-497.51 474.04,-493.45 473.65,-500.44"/>
</a>
</g>
</g>
<!-- Node23 -->
<g id="Node000023" class="node">
<title>Node23</title>
<g id="a_Node000023"><a xlink:href="effects_8c.html#a3442a1fae6bd562a7502af8343bd06ba" target="_top" xlink:title=" ">
<polygon fill="white" stroke="#666666" points="418.5,-67.5 327.5,-67.5 327.5,-48.5 418.5,-48.5 418.5,-67.5"/>
<text text-anchor="middle" x="373" y="-55.5" font-family="Helvetica,sans-Serif" font-size="10.00">func_8008FF08</text>
</a>
</g>
</g>
<!-- Node22&#45;&gt;Node23 -->
<g id="edge34_Node000022_Node000023" class="edge">
<title>Node22&#45;&gt;Node23</title>
<g id="a_edge34_Node000022_Node000023"><a xlink:title=" ">
<path fill="none" stroke="#63b8ff" d="M254.33,-58C273.78,-58 296.74,-58 317.19,-58"/>
<polygon fill="#63b8ff" stroke="#63b8ff" points="317.31,-61.5 327.31,-58 317.31,-54.5 317.31,-61.5"/>
</a>
</g>
</g>
<!-- Node24 -->
<g id="Node000024" class="node">
<title>Node24</title>
<g id="a_Node000024"><a xlink:href="player__controller_8c.html#aafeb0470c7da44e1440ffa4848f7d500" target="_top" xlink:title=" ">
<polygon fill="white" stroke="#666666" points="432.5,-30 313.5,-30 313.5,0 432.5,0 432.5,-30"/>
<text text-anchor="start" x="321.5" y="-18" font-family="Helvetica,sans-Serif" font-size="10.00">get_player_index_for</text>
<text text-anchor="middle" x="373" y="-7" font-family="Helvetica,sans-Serif" font-size="10.00">_player</text>
</a>
</g>
</g>
<!-- Node22&#45;&gt;Node24 -->
<g id="edge35_Node000022_Node000024" class="edge">
<title>Node22&#45;&gt;Node24</title>
<g id="a_edge35_Node000022_Node000024"><a xlink:title=" ">
<path fill="none" stroke="#63b8ff" d="M245.56,-48.46C263.16,-43.8 284.91,-38.05 305.37,-32.63"/>
<polygon fill="#63b8ff" stroke="#63b8ff" points="306.52,-35.95 315.29,-30.01 304.73,-29.18 306.52,-35.95"/>
</a>
</g>
</g>
<!-- Node26 -->
<g id="Node000026" class="node">
<title>Node26</title>
<g id="a_Node000026"><a xlink:href="external_8c.html#a028d40421b90c38f68ebfd5acc626f2e" target="_top" xlink:title=" ">
<polygon fill="white" stroke="#666666" points="737,-812.5 645,-812.5 645,-793.5 737,-793.5 737,-812.5"/>
<text text-anchor="middle" x="691" y="-800.5" font-family="Helvetica,sans-Serif" font-size="10.00">func_800C5578</text>
</a>
</g>
</g>
<!-- Node25&#45;&gt;Node26 -->
<g id="edge37_Node000025_Node000026" class="edge">
<title>Node25&#45;&gt;Node26</title>
<g id="a_edge37_Node000025_Node000026"><a xlink:title=" ">
<path fill="none" stroke="#63b8ff" d="M592.59,-803C605.84,-803 620.5,-803 634.34,-803"/>
<polygon fill="#63b8ff" stroke="#63b8ff" points="634.72,-806.5 644.72,-803 634.72,-799.5 634.72,-806.5"/>
</a>
</g>
</g>
<!-- Node27 -->
<g id="Node000027" class="node">
<title>Node27</title>
<g id="a_Node000027"><a xlink:href="external_8c.html#ac0fb767de7e14a03f1bcfa53f0abd23b" target="_top" xlink:title=" ">
<polygon fill="white" stroke="#666666" points="913,-849.5 773,-849.5 773,-830.5 913,-830.5 913,-849.5"/>
<text text-anchor="middle" x="843" y="-837.5" font-family="Helvetica,sans-Serif" font-size="10.00">delete_sound_from_bank</text>
</a>
</g>
</g>
<!-- Node26&#45;&gt;Node27 -->
<g id="edge38_Node000026_Node000027" class="edge">
<title>Node26&#45;&gt;Node27</title>
<g id="a_edge38_Node000026_Node000027"><a xlink:title=" ">
<path fill="none" stroke="#63b8ff" d="M730.63,-812.53C749.8,-817.26 773.16,-823.02 793.52,-828.04"/>
<polygon fill="#63b8ff" stroke="#63b8ff" points="792.69,-831.44 803.24,-830.44 794.37,-824.65 792.69,-831.44"/>
</a>
</g>
</g>
<!-- Node29 -->
<g id="Node000029" class="node">
<title>Node29</title>
<g id="a_Node000029"><a xlink:href="external_8c.html#ab83bd36e63f0f1baddcb2482b5ad31b0" target="_top" xlink:title=" ">
<polygon fill="white" stroke="#666666" points="889.5,-812.5 796.5,-812.5 796.5,-793.5 889.5,-793.5 889.5,-812.5"/>
<text text-anchor="middle" x="843" y="-800.5" font-family="Helvetica,sans-Serif" font-size="10.00">func_800C41CC</text>
</a>
</g>
</g>
<!-- Node26&#45;&gt;Node29 -->
<g id="edge40_Node000026_Node000029" class="edge">
<title>Node26&#45;&gt;Node29</title>
<g id="a_edge40_Node000026_Node000029"><a xlink:title=" ">
<path fill="none" stroke="#63b8ff" d="M737,-803C752.37,-803 769.74,-803 785.86,-803"/>
<polygon fill="#63b8ff" stroke="#63b8ff" points="786.25,-806.5 796.25,-803 786.25,-799.5 786.25,-806.5"/>
</a>
</g>
</g>
<!-- Node30 -->
<g id="Node000030" class="node">
<title>Node30</title>
<g id="a_Node000030"><a xlink:href="port__eu_8c.html#aa89dfaecca46c6d071f08c1898d1f7c9" target="_top" xlink:title=" ">
<polygon fill="white" stroke="#666666" points="889.5,-775.5 796.5,-775.5 796.5,-756.5 889.5,-756.5 889.5,-775.5"/>
<text text-anchor="middle" x="843" y="-763.5" font-family="Helvetica,sans-Serif" font-size="10.00">func_800CBBE8</text>
</a>
</g>
</g>
<!-- Node26&#45;&gt;Node30 -->
<g id="edge41_Node000026_Node000030" class="edge">
<title>Node26&#45;&gt;Node30</title>
<g id="a_edge41_Node000026_Node000030"><a xlink:title=" ">
<path fill="none" stroke="#63b8ff" d="M730.63,-793.47C749.8,-788.74 773.16,-782.98 793.52,-777.96"/>
<polygon fill="#63b8ff" stroke="#63b8ff" points="794.37,-781.35 803.24,-775.56 792.69,-774.56 794.37,-781.35"/>
</a>
</g>
</g>
<!-- Node28 -->
<g id="Node000028" class="node">
<title>Node28</title>
<g id="a_Node000028"><a xlink:href="external_8c.html#a358ac55e8ab5262dcae8037334be06d7" target="_top" xlink:title=" ">
<polygon fill="white" stroke="#666666" points="1041.5,-849.5 949.5,-849.5 949.5,-830.5 1041.5,-830.5 1041.5,-849.5"/>
<text text-anchor="middle" x="995.5" y="-837.5" font-family="Helvetica,sans-Serif" font-size="10.00">func_800C40F0</text>
</a>
</g>
</g>
<!-- Node27&#45;&gt;Node28 -->
<g id="edge39_Node000027_Node000028" class="edge">
<title>Node27&#45;&gt;Node28</title>
<g id="a_edge39_Node000027_Node000028"><a xlink:title=" ">
<path fill="none" stroke="#63b8ff" d="M913.08,-840C921.87,-840 930.78,-840 939.31,-840"/>
<polygon fill="#63b8ff" stroke="#63b8ff" points="939.5,-843.5 949.5,-840 939.5,-836.5 939.5,-843.5"/>
</a>
</g>
</g>
<!-- Node31 -->
<g id="Node000031" class="node">
<title>Node31</title>
<g id="a_Node000031"><a xlink:href="port__eu_8c.html#af361a20d2e08f30c53a237ca481ff734" target="_top" xlink:title=" ">
<polygon fill="white" stroke="#666666" points="1042,-775.5 949,-775.5 949,-756.5 1042,-756.5 1042,-775.5"/>
<text text-anchor="middle" x="995.5" y="-763.5" font-family="Helvetica,sans-Serif" font-size="10.00">func_800CBB48</text>
</a>
</g>
</g>
<!-- Node30&#45;&gt;Node31 -->
<g id="edge42_Node000030_Node000031" class="edge">
<title>Node30&#45;&gt;Node31</title>
<g id="a_edge42_Node000030_Node000031"><a xlink:title=" ">
<path fill="none" stroke="#63b8ff" d="M889.56,-766C904.96,-766 922.34,-766 938.46,-766"/>
<polygon fill="#63b8ff" stroke="#63b8ff" points="938.83,-769.5 948.83,-766 938.83,-762.5 938.83,-769.5"/>
</a>
</g>
</g>
<!-- Node32&#45;&gt;Node5 -->
<g id="edge54_Node000032_Node000005" class="edge">
<title>Node32&#45;&gt;Node5</title>
<g id="a_edge54_Node000032_Node000005"><a xlink:title=" ">
<path fill="none" stroke="#63b8ff" d="M262.18,-650.39C322.51,-644.37 417.03,-632.52 448,-615 485.92,-593.55 515.91,-551.46 532.15,-524.86"/>
<polygon fill="#63b8ff" stroke="#63b8ff" points="535.22,-526.54 537.31,-516.16 529.2,-522.97 535.22,-526.54"/>
</a>
</g>
</g>
<!-- Node32&#45;&gt;Node7 -->
<g id="edge44_Node000032_Node000007" class="edge">
<title>Node32&#45;&gt;Node7</title>
<g id="a_edge44_Node000032_Node000007"><a xlink:title=" ">
<path fill="none" stroke="#63b8ff" d="M222.64,-639.83C234.95,-624.72 252.79,-600.33 262,-576 303.45,-466.48 239.66,-416.53 298,-315 308.61,-296.54 327.61,-281.84 343.7,-271.86"/>
<polygon fill="#63b8ff" stroke="#63b8ff" points="345.91,-274.62 352.75,-266.53 342.36,-268.58 345.91,-274.62"/>
</a>
</g>
</g>
<!-- Node32&#45;&gt;Node13 -->
<g id="edge45_Node000032_Node000013" class="edge">
<title>Node32&#45;&gt;Node13</title>
<g id="a_edge45_Node000032_Node000013"><a xlink:title=" ">
<path fill="none" stroke="#63b8ff" d="M246.33,-639.83C262.15,-633.48 280.9,-626.15 298,-620 308.7,-616.15 320.37,-612.24 331.22,-608.72"/>
<polygon fill="#63b8ff" stroke="#63b8ff" points="332.44,-612 340.89,-605.61 330.3,-605.34 332.44,-612"/>
</a>
</g>
</g>
<!-- Node33 -->
<g id="Node000033" class="node">
<title>Node33</title>
<g id="a_Node000033"><a xlink:href="update__objects_8c.html#a494d2eda5e833a373c2f02eae59d972c" target="_top" xlink:title=" ">
<polygon fill="white" stroke="#666666" points="418.5,-831.5 327.5,-831.5 327.5,-812.5 418.5,-812.5 418.5,-831.5"/>
<text text-anchor="middle" x="373" y="-819.5" font-family="Helvetica,sans-Serif" font-size="10.00">func_800791F0</text>
</a>
</g>
</g>
<!-- Node32&#45;&gt;Node33 -->
<g id="edge46_Node000032_Node000033" class="edge">
<title>Node32&#45;&gt;Node33</title>
<g id="a_edge46_Node000032_Node000033"><a xlink:title=" ">
<path fill="none" stroke="#63b8ff" d="M219.93,-670.17C235.53,-692.29 266.47,-734.13 298,-765 313.89,-780.55 333.98,-795.79 349.22,-806.6"/>
<polygon fill="#63b8ff" stroke="#63b8ff" points="347.36,-809.57 357.56,-812.42 351.36,-803.82 347.36,-809.57"/>
</a>
</g>
</g>
<!-- Node34 -->
<g id="Node000034" class="node">
<title>Node34</title>
<g id="a_Node000034"><a xlink:href="code__80086E70_8c.html#ad844d2fe27c3f0bb5979715fae72559a" target="_top" xlink:title=" ">
<polygon fill="white" stroke="#666666" points="418.5,-718.5 327.5,-718.5 327.5,-699.5 418.5,-699.5 418.5,-718.5"/>
<text text-anchor="middle" x="373" y="-706.5" font-family="Helvetica,sans-Serif" font-size="10.00">func_80086E70</text>
</a>
</g>
</g>
<!-- Node32&#45;&gt;Node34 -->
<g id="edge49_Node000032_Node000034" class="edge">
<title>Node32&#45;&gt;Node34</title>
<g id="a_edge49_Node000032_Node000034"><a xlink:title=" ">
<path fill="none" stroke="#63b8ff" d="M243.11,-670.04C259.46,-677 279.53,-685.03 298,-691 304.51,-693.1 311.41,-695.09 318.28,-696.92"/>
<polygon fill="#63b8ff" stroke="#63b8ff" points="317.71,-700.39 328.27,-699.5 319.45,-693.61 317.71,-700.39"/>
</a>
</g>
</g>
<!-- Node35 -->
<g id="Node000035" class="node">
<title>Node35</title>
<g id="a_Node000035"><a xlink:href="external_8c.html#aeec25112a50d31b3f33d06325ab2ec7d" target="_top" xlink:title=" ">
<polygon fill="white" stroke="#666666" points="419,-755.5 327,-755.5 327,-736.5 419,-736.5 419,-755.5"/>
<text text-anchor="middle" x="373" y="-743.5" font-family="Helvetica,sans-Serif" font-size="10.00">func_800C8F80</text>
</a>
</g>
</g>
<!-- Node32&#45;&gt;Node35 -->
<g id="edge51_Node000032_Node000035" class="edge">
<title>Node32&#45;&gt;Node35</title>
<g id="a_edge51_Node000032_Node000035"><a xlink:title=" ">
<path fill="none" stroke="#63b8ff" d="M223.66,-670.24C240,-686.9 268.44,-713.2 298,-728 303.96,-730.98 310.44,-733.49 317,-735.59"/>
<polygon fill="#63b8ff" stroke="#63b8ff" points="316.05,-738.96 326.63,-738.39 318,-732.24 316.05,-738.96"/>
</a>
</g>
</g>
<!-- Node37 -->
<g id="Node000037" class="node">
<title>Node37</title>
<g id="a_Node000037"><a xlink:href="update__objects_8c.html#aaac380231c672b17a8fda8b451572c4c" target="_top" xlink:title=" ">
<polygon fill="white" stroke="#666666" points="427,-681.5 319,-681.5 319,-662.5 427,-662.5 427,-681.5"/>
<text text-anchor="middle" x="373" y="-669.5" font-family="Helvetica,sans-Serif" font-size="10.00">init_texture_object</text>
</a>
</g>
</g>
<!-- Node32&#45;&gt;Node37 -->
<g id="edge53_Node000032_Node000037" class="edge">
<title>Node32&#45;&gt;Node37</title>
<g id="a_edge53_Node000032_Node000037"><a xlink:title=" ">
<path fill="none" stroke="#63b8ff" d="M262.26,-660.52C277.16,-662.08 293.52,-663.79 308.96,-665.41"/>
<polygon fill="#63b8ff" stroke="#63b8ff" points="308.64,-668.89 318.95,-666.45 309.37,-661.93 308.64,-668.89"/>
</a>
</g>
</g>
<!-- Node33&#45;&gt;Node2 -->
<g id="edge47_Node000033_Node000002" class="edge">
<title>Node33&#45;&gt;Node2</title>
<g id="a_edge47_Node000033_Node000002"><a xlink:title=" ">
<path fill="none" stroke="#63b8ff" d="M417.28,-831.59C440.11,-836.65 468.32,-842.9 492.46,-848.25"/>
<polygon fill="#63b8ff" stroke="#63b8ff" points="492.01,-851.73 502.53,-850.48 493.53,-844.9 492.01,-851.73"/>
</a>
</g>
</g>
<!-- Node33&#45;&gt;Node25 -->
<g id="edge48_Node000033_Node000025" class="edge">
<title>Node33&#45;&gt;Node25</title>
<g id="a_edge48_Node000033_Node000025"><a xlink:title=" ">
<path fill="none" stroke="#63b8ff" d="M418.61,-817.06C440.48,-814.63 467.04,-811.69 490.19,-809.13"/>
<polygon fill="#63b8ff" stroke="#63b8ff" points="490.66,-812.6 500.22,-808.02 489.89,-805.64 490.66,-812.6"/>
</a>
</g>
</g>
<!-- Node34&#45;&gt;Node5 -->
<g id="edge50_Node000034_Node000005" class="edge">
<title>Node34&#45;&gt;Node5</title>
<g id="a_edge50_Node000034_Node000005"><a xlink:title=" ">
<path fill="none" stroke="#63b8ff" d="M418.67,-704.56C429.09,-701.87 439.59,-697.63 448,-691 502.37,-648.13 529.3,-566.7 539.89,-525.78"/>
<polygon fill="#63b8ff" stroke="#63b8ff" points="543.29,-526.62 542.29,-516.07 536.5,-524.93 543.29,-526.62"/>
</a>
</g>
</g>
<!-- Node36 -->
<g id="Node000036" class="node">
<title>Node36</title>
<g id="a_Node000036"><a xlink:href="external_8c.html#a475cff796211891556f52877cd8e9b9e" target="_top" xlink:title=" ">
<polygon fill="white" stroke="#666666" points="582.5,-755.5 510.5,-755.5 510.5,-736.5 582.5,-736.5 582.5,-755.5"/>
<text text-anchor="middle" x="546.5" y="-743.5" font-family="Helvetica,sans-Serif" font-size="10.00">play_sound</text>
</a>
</g>
</g>
<!-- Node35&#45;&gt;Node36 -->
<g id="edge52_Node000035_Node000036" class="edge">
<title>Node35&#45;&gt;Node36</title>
<g id="a_edge52_Node000035_Node000036"><a xlink:title=" ">
<path fill="none" stroke="#63b8ff" d="M419.06,-746C444.18,-746 475.37,-746 500.48,-746"/>
<polygon fill="#63b8ff" stroke="#63b8ff" points="500.48,-749.5 510.48,-746 500.48,-742.5 500.48,-749.5"/>
</a>
</g>
</g>
</g>
</svg>
