<?xml version="1.0" encoding="UTF-8" standalone="no"?>
<!DOCTYPE svg PUBLIC "-//W3C//DTD SVG 1.1//EN"
 "http://www.w3.org/Graphics/SVG/1.1/DTD/svg11.dtd">
<!-- Generated by graphviz version 2.43.0 (0)
 -->
<!-- Title: init_object_leaf_particle Pages: 1 -->
<svg width="601pt" height="188pt"
 viewBox="0.00 0.00 601.00 188.00" xmlns="http://www.w3.org/2000/svg" xmlns:xlink="http://www.w3.org/1999/xlink">
<g id="graph0" class="graph" transform="scale(1 1) rotate(0) translate(4 184)">
<title>init_object_leaf_particle</title>
<!-- Node1 -->
<g id="Node000001" class="node">
<title>Node1</title>
<g id="a_Node000001"><a xlink:title=" ">
<polygon fill="#999999" stroke="#666666" points="134,-94 0,-94 0,-75 134,-75 134,-94"/>
<text text-anchor="middle" x="67" y="-82" font-family="Helvetica,sans-Serif" font-size="10.00">init_object_leaf_particle</text>
</a>
</g>
</g>
<!-- Node2 -->
<g id="Node000002" class="node">
<title>Node2</title>
<g id="a_Node000002"><a xlink:href="update__objects_8c.html#abdebd086b5ff081f83af3d9205f39cd3" target="_top" xlink:title=" ">
<polygon fill="white" stroke="#666666" points="283.5,-180 215.5,-180 215.5,-161 283.5,-161 283.5,-180"/>
<text text-anchor="middle" x="249.5" y="-168" font-family="Helvetica,sans-Serif" font-size="10.00">init_object</text>
</a>
</g>
</g>
<!-- Node1&#45;&gt;Node2 -->
<g id="edge1_Node000001_Node000002" class="edge">
<title>Node1&#45;&gt;Node2</title>
<g id="a_edge1_Node000001_Node000002"><a xlink:title=" ">
<path fill="none" stroke="#63b8ff" d="M79.77,-94.21C97.99,-108.76 134.63,-136.15 170,-151.5 181.04,-156.29 193.51,-160.01 205.2,-162.83"/>
<polygon fill="#63b8ff" stroke="#63b8ff" points="204.69,-166.3 215.22,-165.08 206.23,-159.47 204.69,-166.3"/>
</a>
</g>
</g>
<!-- Node4 -->
<g id="Node000004" class="node">
<title>Node4</title>
<g id="a_Node000004"><a xlink:href="code__80086E70_8c.html#a96d06a13f28b2621752f09858946c5f1" target="_top" xlink:title=" ">
<polygon fill="white" stroke="#666666" points="329,-142.5 170,-142.5 170,-112.5 329,-112.5 329,-142.5"/>
<text text-anchor="start" x="178" y="-130.5" font-family="Helvetica,sans-Serif" font-size="10.00">object_origin_pos_randomize</text>
<text text-anchor="middle" x="249.5" y="-119.5" font-family="Helvetica,sans-Serif" font-size="10.00">_around_xyz</text>
</a>
</g>
</g>
<!-- Node1&#45;&gt;Node4 -->
<g id="edge3_Node000001_Node000004" class="edge">
<title>Node1&#45;&gt;Node4</title>
<g id="a_edge3_Node000001_Node000004"><a xlink:title=" ">
<path fill="none" stroke="#63b8ff" d="M108.06,-94.04C127.96,-98.78 152.64,-104.66 175.73,-110.16"/>
<polygon fill="#63b8ff" stroke="#63b8ff" points="174.97,-113.58 185.51,-112.49 176.59,-106.77 174.97,-113.58"/>
</a>
</g>
</g>
<!-- Node5 -->
<g id="Node000005" class="node">
<title>Node5</title>
<g id="a_Node000005"><a xlink:href="math__util_8c.html#a151b63b8adf9af7e4054b3b84bd226dc" target="_top" xlink:title=" ">
<polygon fill="white" stroke="#666666" points="458.5,-116 386.5,-116 386.5,-97 458.5,-97 458.5,-116"/>
<text text-anchor="middle" x="422.5" y="-104" font-family="Helvetica,sans-Serif" font-size="10.00">random_int</text>
</a>
</g>
</g>
<!-- Node1&#45;&gt;Node5 -->
<g id="edge6_Node000001_Node000005" class="edge">
<title>Node1&#45;&gt;Node5</title>
<g id="a_edge6_Node000001_Node000005"><a xlink:title=" ">
<path fill="none" stroke="#63b8ff" d="M134.08,-88.61C204.73,-93.01 314.86,-99.86 376.25,-103.68"/>
<polygon fill="#63b8ff" stroke="#63b8ff" points="376.2,-107.19 386.4,-104.32 376.64,-100.2 376.2,-107.19"/>
</a>
</g>
</g>
<!-- Node7 -->
<g id="Node000007" class="node">
<title>Node7</title>
<g id="a_Node000007"><a xlink:href="code__80086E70_8c.html#af0e1570f9594db6104157d24386b80cb" target="_top" xlink:title=" ">
<polygon fill="white" stroke="#666666" points="315.5,-56 183.5,-56 183.5,-37 315.5,-37 315.5,-56"/>
<text text-anchor="middle" x="249.5" y="-44" font-family="Helvetica,sans-Serif" font-size="10.00">set_obj_direction_angle</text>
</a>
</g>
</g>
<!-- Node1&#45;&gt;Node7 -->
<g id="edge7_Node000001_Node000007" class="edge">
<title>Node1&#45;&gt;Node7</title>
<g id="a_edge7_Node000001_Node000007"><a xlink:title=" ">
<path fill="none" stroke="#63b8ff" d="M113.55,-74.91C137.8,-69.81 167.8,-63.49 193.36,-58.11"/>
<polygon fill="#63b8ff" stroke="#63b8ff" points="194.22,-61.51 203.28,-56.02 192.77,-54.66 194.22,-61.51"/>
</a>
</g>
</g>
<!-- Node8 -->
<g id="Node000008" class="node">
<title>Node8</title>
<g id="a_Node000008"><a xlink:href="code__80086E70_8c.html#ad745ffd7b6ecd50c57336a484979b258" target="_top" xlink:title=" ">
<polygon fill="white" stroke="#666666" points="304.5,-19 194.5,-19 194.5,0 304.5,0 304.5,-19"/>
<text text-anchor="middle" x="249.5" y="-7" font-family="Helvetica,sans-Serif" font-size="10.00">set_obj_orientation</text>
</a>
</g>
</g>
<!-- Node1&#45;&gt;Node8 -->
<g id="edge8_Node000001_Node000008" class="edge">
<title>Node1&#45;&gt;Node8</title>
<g id="a_edge8_Node000001_Node000008"><a xlink:title=" ">
<path fill="none" stroke="#63b8ff" d="M82.22,-74.82C101.37,-62.21 136.87,-40.25 170,-27.5 175.52,-25.38 181.35,-23.46 187.25,-21.75"/>
<polygon fill="#63b8ff" stroke="#63b8ff" points="188.46,-25.05 197.19,-19.05 186.63,-18.29 188.46,-25.05"/>
</a>
</g>
</g>
<!-- Node3 -->
<g id="Node000003" class="node">
<title>Node3</title>
<g id="a_Node000003"><a xlink:href="update__objects_8c.html#a4b4f00a7df0f9bc44914cd922c3cd51b" target="_top" xlink:title=" ">
<polygon fill="white" stroke="#666666" points="480,-180 365,-180 365,-161 480,-161 480,-180"/>
<text text-anchor="middle" x="422.5" y="-168" font-family="Helvetica,sans-Serif" font-size="10.00">set_object_unk_0CB</text>
</a>
</g>
</g>
<!-- Node2&#45;&gt;Node3 -->
<g id="edge2_Node000002_Node000003" class="edge">
<title>Node2&#45;&gt;Node3</title>
<g id="a_edge2_Node000002_Node000003"><a xlink:title=" ">
<path fill="none" stroke="#63b8ff" d="M283.88,-170.5C304.03,-170.5 330.44,-170.5 354.72,-170.5"/>
<polygon fill="#63b8ff" stroke="#63b8ff" points="354.98,-174 364.98,-170.5 354.98,-167 354.98,-174"/>
</a>
</g>
</g>
<!-- Node4&#45;&gt;Node5 -->
<g id="edge4_Node000004_Node000005" class="edge">
<title>Node4&#45;&gt;Node5</title>
<g id="a_edge4_Node000004_Node000005"><a xlink:title=" ">
<path fill="none" stroke="#63b8ff" d="M329.49,-117.8C345.55,-115.83 361.91,-113.82 376.3,-112.05"/>
<polygon fill="#63b8ff" stroke="#63b8ff" points="376.9,-115.5 386.4,-110.81 376.04,-108.56 376.9,-115.5"/>
</a>
</g>
</g>
<!-- Node6 -->
<g id="Node000006" class="node">
<title>Node6</title>
<g id="a_Node000006"><a xlink:href="math__util_8c.html#a062850863585005ad1d0a75d9ff70693" target="_top" xlink:title=" ">
<polygon fill="white" stroke="#666666" points="593,-116 516,-116 516,-97 593,-97 593,-116"/>
<text text-anchor="middle" x="554.5" y="-104" font-family="Helvetica,sans-Serif" font-size="10.00">random_u16</text>
</a>
</g>
</g>
<!-- Node5&#45;&gt;Node6 -->
<g id="edge5_Node000005_Node000006" class="edge">
<title>Node5&#45;&gt;Node6</title>
<g id="a_edge5_Node000005_Node000006"><a xlink:title=" ">
<path fill="none" stroke="#63b8ff" d="M458.68,-106.5C472.98,-106.5 489.73,-106.5 505.14,-106.5"/>
<polygon fill="#63b8ff" stroke="#63b8ff" points="505.56,-110 515.56,-106.5 505.56,-103 505.56,-110"/>
</a>
</g>
</g>
</g>
</svg>
