<?xml version="1.0" encoding="UTF-8" standalone="no"?>
<!DOCTYPE svg PUBLIC "-//W3C//DTD SVG 1.1//EN"
 "http://www.w3.org/Graphics/SVG/1.1/DTD/svg11.dtd">
<!-- Generated by graphviz version 2.43.0 (0)
 -->
<!-- Title: include/variables.h Pages: 1 -->
<!--zoomable 263 -->
<svg id="main" version="1.1" xmlns="http://www.w3.org/2000/svg" xmlns:xlink="http://www.w3.org/1999/xlink" xml:space="preserve" onload="init(evt)">
<style type="text/css"><![CDATA[
.edge:hover path { stroke: red; }
.edge:hover polygon { stroke: red; fill: red; }
]]></style>
<script type="text/javascript"><![CDATA[
var edges = document.getElementsByTagName('g');
if (edges && edges.length) {
  for (var i=0;i<edges.length;i++) {
    if (edges[i].id.substr(0,4)=='edge') {
      edges[i].setAttribute('class','edge');
    }
  }
}
]]></script>
        <defs>
                <circle id="rim" cx="0" cy="0" r="7"/>
                <circle id="rim2" cx="0" cy="0" r="3.5"/>
                <g id="zoomPlus">
                        <use xlink:href="#rim" fill="#404040">
                                <set attributeName="fill" to="#808080" begin="zoomplus.mouseover" end="zoomplus.mouseout"/>
                        </use>
                        <path d="M-4,0h8M0,-4v8" fill="none" stroke="white" stroke-width="1.5" pointer-events="none"/>
                </g>
                <g id="zoomMin">
                        <use xlink:href="#rim" fill="#404040">
                                <set attributeName="fill" to="#808080" begin="zoomminus.mouseover" end="zoomminus.mouseout"/>
                        </use>
                        <path d="M-4,0h8" fill="none" stroke="white" stroke-width="1.5" pointer-events="none"/>
                </g>
                <g id="dirArrow">
                        <path fill="none" stroke="white" stroke-width="1.5" d="M0,-3.0v7 M-2.5,-0.5L0,-3.0L2.5,-0.5"/>
                </g>
               <g id="resetDef">
                       <use xlink:href="#rim2" fill="#404040">
                               <set attributeName="fill" to="#808080" begin="reset.mouseover" end="reset.mouseout"/>
                       </use>
               </g>
        </defs>

<script type="text/javascript">
var viewWidth = 3764;
var viewHeight = 263;
var sectionId = 'dynsection-1';
</script>
<script xlink:href="svgpan.js"/>
<svg id="graph" class="graph">
<g id="viewport">
<title>include/variables.h</title>
<polygon fill="white" stroke="transparent" points="-4,4 -4,-259 3760,-259 3760,4 -4,4"/>
<!-- Node1 -->
<g id="node1" class="node">
<title>Node1</title>
<g id="a_node1"><a xlink:title=" ">
<polygon fill="#bfbfbf" stroke="black" points="1739,-235.5 1739,-254.5 1848,-254.5 1848,-235.5 1739,-235.5"/>
<text text-anchor="middle" x="1793.5" y="-242.5" font-family="Helvetica,sans-Serif" font-size="10.00">include/variables.h</text>
</a>
</g>
</g>
<!-- Node2 -->
<g id="node2" class="node">
<title>Node2</title>
<g id="a_node2"><a xlink:href="external_8c.html" target="_top" xlink:title=" ">
<polygon fill="white" stroke="black" points="0,-174 0,-193 113,-193 113,-174 0,-174"/>
<text text-anchor="middle" x="56.5" y="-181" font-family="Helvetica,sans-Serif" font-size="10.00">src/audio/external.c</text>
</a>
</g>
</g>
<!-- Node1&#45;&gt;Node2 -->
<g id="edge1" class="edge">
<title>Node1&#45;&gt;Node2</title>
<path fill="none" stroke="midnightblue" d="M1728.57,-243.92C1460.74,-243.35 440.9,-238.55 121.5,-199 110.83,-197.68 99.33,-195.4 89.02,-193.04"/>
<polygon fill="midnightblue" stroke="midnightblue" points="1728.89,-247.42 1738.9,-243.94 1728.9,-240.42 1728.89,-247.42"/>
</g>
<!-- Node3 -->
<g id="node3" class="node">
<title>Node3</title>
<g id="a_node3"><a xlink:href="camera_8c.html" target="_top" xlink:title=" ">
<polygon fill="white" stroke="black" points="131,-174 131,-193 210,-193 210,-174 131,-174"/>
<text text-anchor="middle" x="170.5" y="-181" font-family="Helvetica,sans-Serif" font-size="10.00">src/camera.c</text>
</a>
</g>
</g>
<!-- Node1&#45;&gt;Node3 -->
<g id="edge2" class="edge">
<title>Node1&#45;&gt;Node3</title>
<path fill="none" stroke="midnightblue" d="M1728.45,-244.43C1470.12,-245.79 516.28,-247.35 218.5,-199 210.59,-197.72 202.17,-195.48 194.63,-193.15"/>
<polygon fill="midnightblue" stroke="midnightblue" points="1728.81,-247.93 1738.79,-244.37 1728.77,-240.93 1728.81,-247.93"/>
</g>
<!-- Node4 -->
<g id="node4" class="node">
<title>Node4</title>
<g id="a_node4"><a xlink:href="code__800029B0_8c.html" target="_top" xlink:title=" ">
<polygon fill="white" stroke="black" points="228,-174 228,-193 347,-193 347,-174 228,-174"/>
<text text-anchor="middle" x="287.5" y="-181" font-family="Helvetica,sans-Serif" font-size="10.00">src/code_800029B0.c</text>
</a>
</g>
</g>
<!-- Node1&#45;&gt;Node4 -->
<g id="edge3" class="edge">
<title>Node1&#45;&gt;Node4</title>
<path fill="none" stroke="midnightblue" d="M1728.6,-243.51C1485.23,-241.44 626.84,-231.91 355.5,-199 344.36,-197.65 332.33,-195.37 321.54,-193.01"/>
<polygon fill="midnightblue" stroke="midnightblue" points="1728.68,-247.01 1738.71,-243.6 1728.74,-240.01 1728.68,-247.01"/>
</g>
<!-- Node5 -->
<g id="node5" class="node">
<title>Node5</title>
<g id="a_node5"><a xlink:href="code__80004740_8c.html" target="_top" xlink:title=" ">
<polygon fill="white" stroke="black" points="365,-174 365,-193 484,-193 484,-174 365,-174"/>
<text text-anchor="middle" x="424.5" y="-181" font-family="Helvetica,sans-Serif" font-size="10.00">src/code_80004740.c</text>
</a>
</g>
</g>
<!-- Node1&#45;&gt;Node5 -->
<g id="edge4" class="edge">
<title>Node1&#45;&gt;Node5</title>
<path fill="none" stroke="midnightblue" d="M1728.85,-243.24C1501.1,-240.33 736.64,-228.53 493.5,-199 482.32,-197.64 470.27,-195.39 459.41,-193.06"/>
<polygon fill="midnightblue" stroke="midnightblue" points="1728.92,-246.74 1738.97,-243.37 1729.01,-239.74 1728.92,-246.74"/>
</g>
<!-- Node6 -->
<g id="node6" class="node">
<title>Node6</title>
<g id="a_node6"><a xlink:href="code__80005FD0_8c.html" target="_top" xlink:title=" ">
<polygon fill="white" stroke="black" points="502.5,-174 502.5,-193 622.5,-193 622.5,-174 502.5,-174"/>
<text text-anchor="middle" x="562.5" y="-181" font-family="Helvetica,sans-Serif" font-size="10.00">src/code_80005FD0.c</text>
</a>
</g>
</g>
<!-- Node1&#45;&gt;Node6 -->
<g id="edge5" class="edge">
<title>Node1&#45;&gt;Node6</title>
<path fill="none" stroke="midnightblue" d="M1728.69,-242.93C1516.89,-239.2 846.38,-225.55 631.5,-199 620.32,-197.62 608.27,-195.36 597.41,-193.03"/>
<polygon fill="midnightblue" stroke="midnightblue" points="1728.67,-246.43 1738.73,-243.1 1728.79,-239.43 1728.67,-246.43"/>
</g>
<!-- Node7 -->
<g id="node7" class="node">
<title>Node7</title>
<g id="a_node7"><a xlink:href="code__8001F980_8c.html" target="_top" xlink:title=" ">
<polygon fill="white" stroke="black" points="641,-174 641,-193 760,-193 760,-174 641,-174"/>
<text text-anchor="middle" x="700.5" y="-181" font-family="Helvetica,sans-Serif" font-size="10.00">src/code_8001F980.c</text>
</a>
</g>
</g>
<!-- Node1&#45;&gt;Node7 -->
<g id="edge6" class="edge">
<title>Node1&#45;&gt;Node7</title>
<path fill="none" stroke="midnightblue" d="M1728.88,-242.57C1534.24,-238.04 955.54,-222.88 768.5,-199 757.6,-197.61 745.86,-195.37 735.25,-193.07"/>
<polygon fill="midnightblue" stroke="midnightblue" points="1728.87,-246.07 1738.95,-242.8 1729.03,-239.07 1728.87,-246.07"/>
</g>
<!-- Node8 -->
<g id="node8" class="node">
<title>Node8</title>
<g id="a_node8"><a xlink:href="code__80057C60_8c.html" target="_top" xlink:title=" ">
<polygon fill="white" stroke="black" points="778,-174 778,-193 897,-193 897,-174 778,-174"/>
<text text-anchor="middle" x="837.5" y="-181" font-family="Helvetica,sans-Serif" font-size="10.00">src/code_80057C60.c</text>
</a>
</g>
</g>
<!-- Node1&#45;&gt;Node8 -->
<g id="edge7" class="edge">
<title>Node1&#45;&gt;Node8</title>
<path fill="none" stroke="midnightblue" d="M1728.72,-244.24C1581.69,-244.03 1211.72,-239.15 905.5,-199 894.61,-197.57 882.87,-195.33 872.26,-193.03"/>
<polygon fill="midnightblue" stroke="midnightblue" points="1728.91,-247.74 1738.92,-244.25 1728.92,-240.74 1728.91,-247.74"/>
</g>
<!-- Node9 -->
<g id="node9" class="node">
<title>Node9</title>
<g id="a_node9"><a xlink:href="code__8006E9C0_8c.html" target="_top" xlink:title=" ">
<polygon fill="white" stroke="black" points="915,-174 915,-193 1034,-193 1034,-174 915,-174"/>
<text text-anchor="middle" x="974.5" y="-181" font-family="Helvetica,sans-Serif" font-size="10.00">src/code_8006E9C0.c</text>
</a>
</g>
</g>
<!-- Node1&#45;&gt;Node9 -->
<g id="edge8" class="edge">
<title>Node1&#45;&gt;Node9</title>
<path fill="none" stroke="midnightblue" d="M1728.34,-243.38C1597.67,-241.42 1294.53,-233.22 1042.5,-199 1031.73,-197.54 1020.13,-195.31 1009.62,-193.04"/>
<polygon fill="midnightblue" stroke="midnightblue" points="1728.52,-246.88 1738.57,-243.53 1728.62,-239.89 1728.52,-246.88"/>
</g>
<!-- Node10 -->
<g id="node10" class="node">
<title>Node10</title>
<g id="a_node10"><a xlink:href="code__80071F00_8c.html" target="_top" xlink:title=" ">
<polygon fill="white" stroke="black" points="1052,-174 1052,-193 1171,-193 1171,-174 1052,-174"/>
<text text-anchor="middle" x="1111.5" y="-181" font-family="Helvetica,sans-Serif" font-size="10.00">src/code_80071F00.c</text>
</a>
</g>
</g>
<!-- Node1&#45;&gt;Node10 -->
<g id="edge9" class="edge">
<title>Node1&#45;&gt;Node10</title>
<path fill="none" stroke="midnightblue" d="M1728.45,-242.16C1616.02,-238.32 1378.31,-227.35 1179.5,-199 1168.86,-197.48 1157.41,-195.27 1146.98,-193.03"/>
<polygon fill="midnightblue" stroke="midnightblue" points="1728.5,-245.66 1738.61,-242.5 1728.73,-238.67 1728.5,-245.66"/>
</g>
<!-- Node11 -->
<g id="node11" class="node">
<title>Node11</title>
<g id="a_node11"><a xlink:href="code__80086E70_8c.html" target="_top" xlink:title=" ">
<polygon fill="white" stroke="black" points="1189,-174 1189,-193 1308,-193 1308,-174 1189,-174"/>
<text text-anchor="middle" x="1248.5" y="-181" font-family="Helvetica,sans-Serif" font-size="10.00">src/code_80086E70.c</text>
</a>
</g>
</g>
<!-- Node1&#45;&gt;Node11 -->
<g id="edge10" class="edge">
<title>Node1&#45;&gt;Node11</title>
<path fill="none" stroke="midnightblue" d="M1728.89,-240.29C1636.91,-234.47 1463.11,-221.47 1316.5,-199 1306.12,-197.41 1294.94,-195.22 1284.71,-193.03"/>
<polygon fill="midnightblue" stroke="midnightblue" points="1728.68,-243.78 1738.88,-240.92 1729.12,-236.8 1728.68,-243.78"/>
</g>
<!-- Node12 -->
<g id="node12" class="node">
<title>Node12</title>
<g id="a_node12"><a xlink:href="code__8008C1D0_8c.html" target="_top" xlink:title=" ">
<polygon fill="white" stroke="black" points="1326,-174 1326,-193 1447,-193 1447,-174 1326,-174"/>
<text text-anchor="middle" x="1386.5" y="-181" font-family="Helvetica,sans-Serif" font-size="10.00">src/code_8008C1D0.c</text>
</a>
</g>
</g>
<!-- Node1&#45;&gt;Node12 -->
<g id="edge11" class="edge">
<title>Node1&#45;&gt;Node12</title>
<path fill="none" stroke="midnightblue" d="M1728.71,-236.83C1660.51,-228.95 1550.13,-215.22 1455.5,-199 1445.49,-197.28 1434.71,-195.16 1424.72,-193.06"/>
<polygon fill="midnightblue" stroke="midnightblue" points="1728.53,-240.34 1738.87,-238 1729.33,-233.38 1728.53,-240.34"/>
</g>
<!-- Node13 -->
<g id="node13" class="node">
<title>Node13</title>
<g id="a_node13"><a xlink:href="code__80091440_8c.html" target="_top" xlink:title=" ">
<polygon fill="white" stroke="black" points="1465,-174 1465,-193 1584,-193 1584,-174 1465,-174"/>
<text text-anchor="middle" x="1524.5" y="-181" font-family="Helvetica,sans-Serif" font-size="10.00">src/code_80091440.c</text>
</a>
</g>
</g>
<!-- Node1&#45;&gt;Node13 -->
<g id="edge12" class="edge">
<title>Node1&#45;&gt;Node13</title>
<path fill="none" stroke="midnightblue" d="M1744.94,-233.26C1692.75,-221.72 1610.88,-203.61 1562.97,-193.01"/>
<polygon fill="midnightblue" stroke="midnightblue" points="1744.44,-236.73 1754.96,-235.48 1745.95,-229.9 1744.44,-236.73"/>
</g>
<!-- Node14 -->
<g id="node14" class="node">
<title>Node14</title>
<g id="a_node14"><a xlink:href="code__80091750_8c.html" target="_top" xlink:title=" ">
<polygon fill="white" stroke="black" points="1602,-174 1602,-193 1721,-193 1721,-174 1602,-174"/>
<text text-anchor="middle" x="1661.5" y="-181" font-family="Helvetica,sans-Serif" font-size="10.00">src/code_80091750.c</text>
</a>
</g>
</g>
<!-- Node1&#45;&gt;Node14 -->
<g id="edge13" class="edge">
<title>Node1&#45;&gt;Node14</title>
<path fill="none" stroke="midnightblue" d="M1765.39,-231.33C1739.76,-219.78 1702.61,-203.03 1680.38,-193.01"/>
<polygon fill="midnightblue" stroke="midnightblue" points="1764.03,-234.56 1774.59,-235.48 1766.91,-228.17 1764.03,-234.56"/>
</g>
<!-- Node15 -->
<g id="node15" class="node">
<title>Node15</title>
<g id="a_node15"><a xlink:href="all__variables_8h.html" target="_top" xlink:title=" ">
<polygon fill="white" stroke="black" points="2427.5,-112.5 2427.5,-131.5 2565.5,-131.5 2565.5,-112.5 2427.5,-112.5"/>
<text text-anchor="middle" x="2496.5" y="-119.5" font-family="Helvetica,sans-Serif" font-size="10.00">src/debug/all_variables.h</text>
</a>
</g>
</g>
<!-- Node1&#45;&gt;Node15 -->
<g id="edge14" class="edge">
<title>Node1&#45;&gt;Node15</title>
<path fill="none" stroke="midnightblue" d="M1779.58,-227.35C1767.16,-210.41 1753.11,-184.37 1768.5,-168 1790.86,-144.21 2249.73,-129.55 2427.24,-124.74"/>
<polygon fill="midnightblue" stroke="midnightblue" points="1776.86,-229.55 1785.77,-235.28 1782.38,-225.25 1776.86,-229.55"/>
</g>
<!-- Node18 -->
<g id="node18" class="node">
<title>Node18</title>
<g id="a_node18"><a xlink:href="ceremony__and__credits_8c.html" target="_top" xlink:title=" ">
<polygon fill="white" stroke="black" points="1778,-168.5 1778,-198.5 1897,-198.5 1897,-168.5 1778,-168.5"/>
<text text-anchor="start" x="1786" y="-186.5" font-family="Helvetica,sans-Serif" font-size="10.00">src/ending/ceremony</text>
<text text-anchor="middle" x="1837.5" y="-175.5" font-family="Helvetica,sans-Serif" font-size="10.00">_and_credits.c</text>
</a>
</g>
</g>
<!-- Node1&#45;&gt;Node18 -->
<g id="edge17" class="edge">
<title>Node1&#45;&gt;Node18</title>
<path fill="none" stroke="midnightblue" d="M1805.89,-227.25C1812.59,-218.19 1820.77,-207.12 1827.13,-198.52"/>
<polygon fill="midnightblue" stroke="midnightblue" points="1802.94,-225.35 1799.8,-235.48 1808.56,-229.52 1802.94,-225.35"/>
</g>
<!-- Node19 -->
<g id="node19" class="node">
<title>Node19</title>
<g id="a_node19"><a xlink:href="code__80280000_8c.html" target="_top" xlink:title=" ">
<polygon fill="white" stroke="black" points="1915,-174 1915,-193 2070,-193 2070,-174 1915,-174"/>
<text text-anchor="middle" x="1992.5" y="-181" font-family="Helvetica,sans-Serif" font-size="10.00">src/ending/code_80280000.c</text>
</a>
</g>
</g>
<!-- Node1&#45;&gt;Node19 -->
<g id="edge18" class="edge">
<title>Node1&#45;&gt;Node19</title>
<path fill="none" stroke="midnightblue" d="M1831.87,-232.53C1870.54,-220.96 1929.34,-203.38 1964.04,-193.01"/>
<polygon fill="midnightblue" stroke="midnightblue" points="1830.59,-229.26 1822.01,-235.48 1832.6,-235.96 1830.59,-229.26"/>
</g>
<!-- Node20 -->
<g id="node20" class="node">
<title>Node20</title>
<g id="a_node20"><a xlink:href="code__80281780_8c.html" target="_top" xlink:title=" ">
<polygon fill="white" stroke="black" points="2088,-174 2088,-193 2243,-193 2243,-174 2088,-174"/>
<text text-anchor="middle" x="2165.5" y="-181" font-family="Helvetica,sans-Serif" font-size="10.00">src/ending/code_80281780.c</text>
</a>
</g>
</g>
<!-- Node1&#45;&gt;Node20 -->
<g id="edge19" class="edge">
<title>Node1&#45;&gt;Node20</title>
<path fill="none" stroke="midnightblue" d="M1858.24,-233.94C1916.02,-224.92 2002.94,-211.26 2078.5,-199 2090.29,-197.09 2102.97,-194.99 2114.91,-193.01"/>
<polygon fill="midnightblue" stroke="midnightblue" points="1857.5,-230.51 1848.16,-235.51 1858.58,-237.43 1857.5,-230.51"/>
</g>
<!-- Node21 -->
<g id="node21" class="node">
<title>Node21</title>
<g id="a_node21"><a xlink:href="podium__ceremony__actors_8c.html" target="_top" xlink:title=" ">
<polygon fill="white" stroke="black" points="2261,-168.5 2261,-198.5 2422,-198.5 2422,-168.5 2261,-168.5"/>
<text text-anchor="start" x="2269" y="-186.5" font-family="Helvetica,sans-Serif" font-size="10.00">src/ending/podium_ceremony</text>
<text text-anchor="middle" x="2341.5" y="-175.5" font-family="Helvetica,sans-Serif" font-size="10.00">_actors.c</text>
</a>
</g>
</g>
<!-- Node1&#45;&gt;Node21 -->
<g id="edge20" class="edge">
<title>Node1&#45;&gt;Node21</title>
<path fill="none" stroke="midnightblue" d="M1858.46,-238.89C1947.36,-231.61 2111.83,-217.09 2251.5,-199 2254.48,-198.61 2257.52,-198.2 2260.58,-197.78"/>
<polygon fill="midnightblue" stroke="midnightblue" points="1857.94,-235.42 1848.26,-239.72 1858.51,-242.4 1857.94,-235.42"/>
</g>
<!-- Node22 -->
<g id="node22" class="node">
<title>Node22</title>
<g id="a_node22"><a xlink:href="hud__renderer_8c.html" target="_top" xlink:title=" ">
<polygon fill="white" stroke="black" points="2440.5,-174 2440.5,-193 2546.5,-193 2546.5,-174 2440.5,-174"/>
<text text-anchor="middle" x="2493.5" y="-181" font-family="Helvetica,sans-Serif" font-size="10.00">src/hud_renderer.c</text>
</a>
</g>
</g>
<!-- Node1&#45;&gt;Node22 -->
<g id="edge21" class="edge">
<title>Node1&#45;&gt;Node22</title>
<path fill="none" stroke="midnightblue" d="M1858.45,-242.75C1974.07,-239.77 2222.95,-230.02 2430.5,-199 2440.49,-197.51 2451.24,-195.27 2460.99,-193"/>
<polygon fill="midnightblue" stroke="midnightblue" points="1858.26,-239.25 1848.35,-243 1858.43,-246.25 1858.26,-239.25"/>
</g>
<!-- Node23 -->
<g id="node23" class="node">
<title>Node23</title>
<g id="a_node23"><a xlink:href="kart__dma_8c.html" target="_top" xlink:title=" ">
<polygon fill="white" stroke="black" points="2564.5,-174 2564.5,-193 2652.5,-193 2652.5,-174 2564.5,-174"/>
<text text-anchor="middle" x="2608.5" y="-181" font-family="Helvetica,sans-Serif" font-size="10.00">src/kart_dma.c</text>
</a>
</g>
</g>
<!-- Node1&#45;&gt;Node23 -->
<g id="edge22" class="edge">
<title>Node1&#45;&gt;Node23</title>
<path fill="none" stroke="midnightblue" d="M1858.81,-244.7C1991.18,-245.11 2300.23,-240.99 2555.5,-199 2564.07,-197.59 2573.24,-195.35 2581.51,-193.05"/>
<polygon fill="midnightblue" stroke="midnightblue" points="1858.46,-241.19 1848.45,-244.65 1858.43,-248.19 1858.46,-241.19"/>
</g>
<!-- Node24 -->
<g id="node24" class="node">
<title>Node24</title>
<g id="a_node24"><a xlink:href="math__util__2_8c.html" target="_top" xlink:title=" ">
<polygon fill="white" stroke="black" points="2670.5,-174 2670.5,-193 2770.5,-193 2770.5,-174 2670.5,-174"/>
<text text-anchor="middle" x="2720.5" y="-181" font-family="Helvetica,sans-Serif" font-size="10.00">src/math_util_2.c</text>
</a>
</g>
</g>
<!-- Node1&#45;&gt;Node24 -->
<g id="edge23" class="edge">
<title>Node1&#45;&gt;Node24</title>
<path fill="none" stroke="midnightblue" d="M1858.24,-244.81C2003.04,-245.71 2363.74,-242.9 2661.5,-199 2671,-197.6 2681.2,-195.36 2690.4,-193.06"/>
<polygon fill="midnightblue" stroke="midnightblue" points="1858.21,-241.31 1848.19,-244.74 1858.16,-248.31 1858.21,-241.31"/>
</g>
<!-- Node25 -->
<g id="node25" class="node">
<title>Node25</title>
<g id="a_node25"><a xlink:href="player__controller_8c.html" target="_top" xlink:title=" ">
<polygon fill="white" stroke="black" points="2788.5,-174 2788.5,-193 2912.5,-193 2912.5,-174 2788.5,-174"/>
<text text-anchor="middle" x="2850.5" y="-181" font-family="Helvetica,sans-Serif" font-size="10.00">src/player_controller.c</text>
</a>
</g>
</g>
<!-- Node1&#45;&gt;Node25 -->
<g id="edge24" class="edge">
<title>Node1&#45;&gt;Node25</title>
<path fill="none" stroke="midnightblue" d="M1858.3,-244.52C2016.39,-245.04 2434.22,-241.87 2779.5,-199 2790.86,-197.59 2803.12,-195.35 2814.2,-193.05"/>
<polygon fill="midnightblue" stroke="midnightblue" points="1858.28,-241.02 1848.27,-244.48 1858.25,-248.02 1858.28,-241.02"/>
</g>
<!-- Node26 -->
<g id="node26" class="node">
<title>Node26</title>
<g id="a_node26"><a xlink:href="collision_8c.html" target="_top" xlink:title=" ">
<polygon fill="white" stroke="black" points="2930.5,-174 2930.5,-193 3046.5,-193 3046.5,-174 2930.5,-174"/>
<text text-anchor="middle" x="2988.5" y="-181" font-family="Helvetica,sans-Serif" font-size="10.00">src/racing/collision.c</text>
</a>
</g>
</g>
<!-- Node1&#45;&gt;Node26 -->
<g id="edge25" class="edge">
<title>Node1&#45;&gt;Node26</title>
<path fill="none" stroke="midnightblue" d="M1858.15,-242.89C2065.67,-239.11 2713.58,-225.44 2921.5,-199 2932.36,-197.62 2944.07,-195.36 2954.61,-193.03"/>
<polygon fill="midnightblue" stroke="midnightblue" points="1857.95,-239.4 1848.02,-243.08 1858.08,-246.4 1857.95,-239.4"/>
</g>
<!-- Node27 -->
<g id="node27" class="node">
<title>Node27</title>
<g id="a_node27"><a xlink:href="math__util_8c.html" target="_top" xlink:title=" ">
<polygon fill="white" stroke="black" points="3064.5,-174 3064.5,-193 3186.5,-193 3186.5,-174 3064.5,-174"/>
<text text-anchor="middle" x="3125.5" y="-181" font-family="Helvetica,sans-Serif" font-size="10.00">src/racing/math_util.c</text>
</a>
</g>
</g>
<!-- Node1&#45;&gt;Node27 -->
<g id="edge26" class="edge">
<title>Node1&#45;&gt;Node27</title>
<path fill="none" stroke="midnightblue" d="M1858.48,-243.13C2082.28,-239.91 2820.22,-227.36 3055.5,-199 3066.84,-197.63 3079.06,-195.38 3090.08,-193.05"/>
<polygon fill="midnightblue" stroke="midnightblue" points="1858.17,-239.64 1848.22,-243.28 1858.27,-246.63 1858.17,-239.64"/>
</g>
<!-- Node28 -->
<g id="node28" class="node">
<title>Node28</title>
<g id="a_node28"><a xlink:href="memory_8c.html" target="_top" xlink:title=" ">
<polygon fill="white" stroke="black" points="3205,-174 3205,-193 3320,-193 3320,-174 3205,-174"/>
<text text-anchor="middle" x="3262.5" y="-181" font-family="Helvetica,sans-Serif" font-size="10.00">src/racing/memory.c</text>
</a>
</g>
</g>
<!-- Node1&#45;&gt;Node28 -->
<g id="edge27" class="edge">
<title>Node1&#45;&gt;Node28</title>
<path fill="none" stroke="midnightblue" d="M1858.34,-243.48C2097.73,-241.3 2931.59,-231.52 3195.5,-199 3206.49,-197.65 3218.33,-195.36 3228.96,-193"/>
<polygon fill="midnightblue" stroke="midnightblue" points="1858.03,-239.98 1848.06,-243.57 1858.09,-246.98 1858.03,-239.98"/>
</g>
<!-- Node29 -->
<g id="node29" class="node">
<title>Node29</title>
<g id="a_node29"><a xlink:href="skybox__and__splitscreen_8c.html" target="_top" xlink:title=" ">
<polygon fill="white" stroke="black" points="3338,-168.5 3338,-198.5 3463,-198.5 3463,-168.5 3338,-168.5"/>
<text text-anchor="start" x="3346" y="-186.5" font-family="Helvetica,sans-Serif" font-size="10.00">src/racing/skybox_and</text>
<text text-anchor="middle" x="3400.5" y="-175.5" font-family="Helvetica,sans-Serif" font-size="10.00">_splitscreen.c</text>
</a>
</g>
</g>
<!-- Node1&#45;&gt;Node29 -->
<g id="edge28" class="edge">
<title>Node1&#45;&gt;Node29</title>
<path fill="none" stroke="midnightblue" d="M1858.48,-243.56C2112.29,-241.62 3037.04,-232.38 3328.5,-199 3331.54,-198.65 3334.64,-198.24 3337.77,-197.78"/>
<polygon fill="midnightblue" stroke="midnightblue" points="1858.29,-240.06 1848.32,-243.64 1858.35,-247.06 1858.29,-240.06"/>
</g>
<!-- Node30 -->
<g id="node30" class="node">
<title>Node30</title>
<g id="a_node30"><a xlink:href="global_8h.html" target="_top" xlink:title=" ">
<polygon fill="white" stroke="black" points="3481.5,-174 3481.5,-193 3575.5,-193 3575.5,-174 3481.5,-174"/>
<text text-anchor="middle" x="3528.5" y="-181" font-family="Helvetica,sans-Serif" font-size="10.00">include/global.h</text>
</a>
</g>
</g>
<!-- Node1&#45;&gt;Node30 -->
<g id="edge29" class="edge">
<title>Node1&#45;&gt;Node30</title>
<path fill="none" stroke="midnightblue" d="M1858.65,-244.19C2126.59,-244.64 3143.82,-243.24 3462.5,-199 3471.91,-197.69 3482,-195.42 3491.47,-193.06"/>
<polygon fill="midnightblue" stroke="midnightblue" points="1858.32,-240.69 1848.31,-244.17 1858.31,-247.69 1858.32,-240.69"/>
</g>
<!-- Node16 -->
<g id="node16" class="node">
<title>Node16</title>
<g id="a_node16"><a xlink:href="debug_8inc_8c.html" target="_top" xlink:title=" ">
<polygon fill="white" stroke="black" points="2435.5,-56.5 2435.5,-75.5 2557.5,-75.5 2557.5,-56.5 2435.5,-56.5"/>
<text text-anchor="middle" x="2496.5" y="-63.5" font-family="Helvetica,sans-Serif" font-size="10.00">src/debug/debug.inc.c</text>
</a>
</g>
</g>
<!-- Node15&#45;&gt;Node16 -->
<g id="edge15" class="edge">
<title>Node15&#45;&gt;Node16</title>
<path fill="none" stroke="midnightblue" d="M2496.5,-101.8C2496.5,-92.91 2496.5,-82.78 2496.5,-75.75"/>
<polygon fill="midnightblue" stroke="midnightblue" points="2493,-102.08 2496.5,-112.08 2500,-102.08 2493,-102.08"/>
</g>
<!-- Node17 -->
<g id="node17" class="node">
<title>Node17</title>
<g id="a_node17"><a xlink:href="debug_8c.html" target="_top" xlink:title=" ">
<polygon fill="white" stroke="black" points="2444,-0.5 2444,-19.5 2549,-19.5 2549,-0.5 2444,-0.5"/>
<text text-anchor="middle" x="2496.5" y="-7.5" font-family="Helvetica,sans-Serif" font-size="10.00">src/debug/debug.c</text>
</a>
</g>
</g>
<!-- Node16&#45;&gt;Node17 -->
<g id="edge16" class="edge">
<title>Node16&#45;&gt;Node17</title>
<path fill="none" stroke="midnightblue" d="M2496.5,-45.8C2496.5,-36.91 2496.5,-26.78 2496.5,-19.75"/>
<polygon fill="midnightblue" stroke="midnightblue" points="2493,-46.08 2496.5,-56.08 2500,-46.08 2493,-46.08"/>
</g>
<!-- Node30&#45;&gt;Node1 -->
<g id="edge35" class="edge">
<title>Node30&#45;&gt;Node1</title>
<path fill="none" stroke="midnightblue" d="M3498.85,-195.53C3492.83,-196.93 3486.53,-198.16 3480.5,-199 3155.04,-244.19 2100.97,-244.68 1848.27,-244.16"/>
<polygon fill="midnightblue" stroke="midnightblue" points="3499.78,-198.91 3508.61,-193.06 3498.06,-192.12 3499.78,-198.91"/>
</g>
<!-- Node30&#45;&gt;Node15 -->
<g id="edge32" class="edge">
<title>Node30&#45;&gt;Node15</title>
<path fill="none" stroke="midnightblue" d="M3489.75,-171.53C3483.69,-170.13 3477.45,-168.89 3471.5,-168 3296.45,-141.97 2757.98,-128.46 2565.66,-124.37"/>
<polygon fill="midnightblue" stroke="midnightblue" points="3489.19,-174.99 3499.73,-173.97 3490.86,-168.19 3489.19,-174.99"/>
</g>
<!-- Node31 -->
<g id="node31" class="node">
<title>Node31</title>
<g id="a_node31"><a xlink:href="code__800AF9B0_8c.html" target="_top" xlink:title=" ">
<polygon fill="white" stroke="black" points="3272.5,-112.5 3272.5,-131.5 3392.5,-131.5 3392.5,-112.5 3272.5,-112.5"/>
<text text-anchor="middle" x="3332.5" y="-119.5" font-family="Helvetica,sans-Serif" font-size="10.00">src/code_800AF9B0.c</text>
</a>
</g>
</g>
<!-- Node30&#45;&gt;Node31 -->
<g id="edge30" class="edge">
<title>Node30&#45;&gt;Node31</title>
<path fill="none" stroke="midnightblue" d="M3490.71,-171.03C3452.62,-159.46 3394.71,-141.88 3360.53,-131.51"/>
<polygon fill="midnightblue" stroke="midnightblue" points="3489.83,-174.42 3500.42,-173.98 3491.87,-167.72 3489.83,-174.42"/>
</g>
<!-- Node32 -->
<g id="node32" class="node">
<title>Node32</title>
<g id="a_node32"><a xlink:href="code__800B45E0_8c.html" target="_top" xlink:title=" ">
<polygon fill="white" stroke="black" points="3411,-112.5 3411,-131.5 3530,-131.5 3530,-112.5 3411,-112.5"/>
<text text-anchor="middle" x="3470.5" y="-119.5" font-family="Helvetica,sans-Serif" font-size="10.00">src/code_800B45E0.c</text>
</a>
</g>
</g>
<!-- Node30&#45;&gt;Node32 -->
<g id="edge31" class="edge">
<title>Node30&#45;&gt;Node32</title>
<path fill="none" stroke="midnightblue" d="M3512.9,-166.5C3501.92,-155.24 3487.66,-140.6 3478.79,-131.51"/>
<polygon fill="midnightblue" stroke="midnightblue" points="3510.7,-169.26 3520.19,-173.98 3515.72,-164.37 3510.7,-169.26"/>
</g>
<!-- Node33 -->
<g id="node33" class="node">
<title>Node33</title>
<g id="a_node33"><a xlink:href="menus_8c.html" target="_top" xlink:title=" ">
<polygon fill="white" stroke="black" points="3548,-112.5 3548,-131.5 3623,-131.5 3623,-112.5 3548,-112.5"/>
<text text-anchor="middle" x="3585.5" y="-119.5" font-family="Helvetica,sans-Serif" font-size="10.00">src/menus.c</text>
</a>
</g>
</g>
<!-- Node30&#45;&gt;Node33 -->
<g id="edge33" class="edge">
<title>Node30&#45;&gt;Node33</title>
<path fill="none" stroke="midnightblue" d="M3543.83,-166.5C3554.62,-155.24 3568.64,-140.6 3577.35,-131.51"/>
<polygon fill="midnightblue" stroke="midnightblue" points="3541.06,-164.33 3536.67,-173.98 3546.11,-169.18 3541.06,-164.33"/>
</g>
<!-- Node34 -->
<g id="node34" class="node">
<title>Node34</title>
<g id="a_node34"><a xlink:href="spawn__players_8c.html" target="_top" xlink:title=" ">
<polygon fill="white" stroke="black" points="3641,-112.5 3641,-131.5 3756,-131.5 3756,-112.5 3641,-112.5"/>
<text text-anchor="middle" x="3698.5" y="-119.5" font-family="Helvetica,sans-Serif" font-size="10.00">src/spawn_players.c</text>
</a>
</g>
</g>
<!-- Node30&#45;&gt;Node34 -->
<g id="edge34" class="edge">
<title>Node30&#45;&gt;Node34</title>
<path fill="none" stroke="midnightblue" d="M3562.55,-170.58C3595.59,-159.02 3644.92,-141.75 3674.19,-131.51"/>
<polygon fill="midnightblue" stroke="midnightblue" points="3561.14,-167.37 3552.86,-173.98 3563.45,-173.98 3561.14,-167.37"/>
</g>
</g>
</svg>
        <g id="navigator" transform="translate(0 0)" fill="#404254">
                <rect fill="#f2f5e9" fill-opacity="0.5" stroke="#606060" stroke-width=".5" x="0" y="0" width="60" height="60"/>
                <use id="zoomplus" xlink:href="#zoomPlus" x="17" y="9" onmousedown="handleZoom(evt,'in')"/>
                <use id="zoomminus" xlink:href="#zoomMin" x="42" y="9" onmousedown="handleZoom(evt,'out')"/>
                <use id="reset" xlink:href="#resetDef" x="30" y="36" onmousedown="handleReset()"/>
                <g id="arrowUp" xlink:href="#dirArrow" transform="translate(30 24)" onmousedown="handlePan(0,-1)">
                  <use xlink:href="#rim" fill="#404040">
                        <set attributeName="fill" to="#808080" begin="arrowUp.mouseover" end="arrowUp.mouseout"/>
                  </use>
                  <path fill="none" stroke="white" stroke-width="1.5" d="M0,-3.0v7 M-2.5,-0.5L0,-3.0L2.5,-0.5"/>
                </g>
                <g id="arrowRight" xlink:href="#dirArrow" transform="rotate(90) translate(36 -43)" onmousedown="handlePan(1,0)">
                  <use xlink:href="#rim" fill="#404040">
                        <set attributeName="fill" to="#808080" begin="arrowRight.mouseover" end="arrowRight.mouseout"/>
                  </use>
                  <path fill="none" stroke="white" stroke-width="1.5" d="M0,-3.0v7 M-2.5,-0.5L0,-3.0L2.5,-0.5"/>
                </g>
                <g id="arrowDown" xlink:href="#dirArrow" transform="rotate(180) translate(-30 -48)" onmousedown="handlePan(0,1)">
                  <use xlink:href="#rim" fill="#404040">
                        <set attributeName="fill" to="#808080" begin="arrowDown.mouseover" end="arrowDown.mouseout"/>
                  </use>
                  <path fill="none" stroke="white" stroke-width="1.5" d="M0,-3.0v7 M-2.5,-0.5L0,-3.0L2.5,-0.5"/>
                </g>
                <g id="arrowLeft" xlink:href="#dirArrow" transform="rotate(270) translate(-36 17)" onmousedown="handlePan(-1,0)">
                  <use xlink:href="#rim" fill="#404040">
                        <set attributeName="fill" to="#808080" begin="arrowLeft.mouseover" end="arrowLeft.mouseout"/>
                  </use>
                  <path fill="none" stroke="white" stroke-width="1.5" d="M0,-3.0v7 M-2.5,-0.5L0,-3.0L2.5,-0.5"/>
                </g>
        </g>
        <svg viewBox="0 0 15 15" width="100%" height="30px" preserveAspectRatio="xMaxYMin meet">
         <g id="arrow_out" transform="scale(0.3 0.3)">
          <a xlink:href="variables_8h__dep__incl_org.svg" target="_base">
           <rect id="button" ry="5" rx="5" y="6" x="6" height="38" width="38"
                fill="#f2f5e9" fill-opacity="0.5" stroke="#606060" stroke-width="1.0"/>
           <path id="arrow"
             d="M 11.500037,31.436501 C 11.940474,20.09759 22.043105,11.32322 32.158766,21.979434 L 37.068811,17.246167 C 37.068811,17.246167 37.088388,32 37.088388,32 L 22.160133,31.978069 C 22.160133,31.978069 26.997745,27.140456 26.997745,27.140456 C 18.528582,18.264221 13.291696,25.230495 11.500037,31.436501 z"
             style="fill:#404040;"/>
          </a>
         </g>
        </svg>
</svg>
