<?xml version="1.0" encoding="UTF-8" standalone="no"?>
<!DOCTYPE svg PUBLIC "-//W3C//DTD SVG 1.1//EN"
 "http://www.w3.org/Graphics/SVG/1.1/DTD/svg11.dtd">
<!-- Generated by graphviz version 2.43.0 (0)
 -->
<!-- Title: include/vehicles.h Pages: 1 -->
<!--zoomable 258 -->

<svg id="main" version="1.1" xmlns="http://www.w3.org/2000/svg" xmlns:xlink="http://www.w3.org/1999/xlink" xml:space="preserve" onload="init(evt)">
<style type="text/css"><![CDATA[
.node, .edge {opacity: 0.7;}
.node.selected, .edge.selected {opacity: 1;}
.edge:hover path { stroke: red; }
.edge:hover polygon { stroke: red; fill: red; }
]]></style>

<defs>
  <circle id="rim" cx="0" cy="0" r="7"/>
  <circle id="rim2" cx="0" cy="0" r="3.5"/>
  <g id="zoomPlus">
    <use xlink:href="#rim" fill="#404040"><set attributeName="fill" to="#808080" begin="zoomplus.mouseover" end="zoomplus.mouseout"/></use>
    <path d="M-4,0h8M0,-4v8" fill="none" stroke="white" stroke-width="1.5" pointer-events="none"/>
  </g>
  <g id="zoomMin">
    <use xlink:href="#rim" fill="#404040"><set attributeName="fill" to="#808080" begin="zoomminus.mouseover" end="zoomminus.mouseout"/></use>
    <path d="M-4,0h8" fill="none" stroke="white" stroke-width="1.5" pointer-events="none"/>
  </g>
  <g id="arrowUp" transform="translate(30 24)">
    <use xlink:href="#rim"/>
    <path pointer-events="none" fill="none" stroke="white" stroke-width="1.5" d="M0,-3.0v7 M-2.5,-0.5L0,-3.0L2.5,-0.5"/>
  </g>
  <g id="arrowRight" transform="rotate(90) translate(36 -43)">
    <use xlink:href="#rim"/>
    <path pointer-events="none" fill="none" stroke="white" stroke-width="1.5" d="M0,-3.0v7 M-2.5,-0.5L0,-3.0L2.5,-0.5"/>
  </g>
  <g id="arrowDown" transform="rotate(180) translate(-30 -48)">
    <use xlink:href="#rim"/>
    <path pointer-events="none" fill="none" stroke="white" stroke-width="1.5" d="M0,-3.0v7 M-2.5,-0.5L0,-3.0L2.5,-0.5"/>
  </g>
  <g id="arrowLeft" transform="rotate(270) translate(-36 17)">
    <use xlink:href="#rim"/>
    <path pointer-events="none" fill="none" stroke="white" stroke-width="1.5" d="M0,-3.0v7 M-2.5,-0.5L0,-3.0L2.5,-0.5"/>
  </g>
  <g id="resetDef">
    <use xlink:href="#rim2" fill="#404040"><set attributeName="fill" to="#808080" begin="reset.mouseover" end="reset.mouseout"/></use>
  </g>
</defs>
<script type="application/ecmascript">
var viewWidth = 2439;
var viewHeight = 258;
var sectionId = 'dynsection-1';
</script>
<script type="application/ecmascript" xlink:href="svg.min.js"/>
<svg id="graph" class="graph">
<g id="viewport">
<title>include/vehicles.h</title>
<!-- Node1 -->
<g id="Node000001" class="node">
<title>Node1</title>
<g id="a_Node000001"><a xlink:title=" ">
<polygon fill="#999999" stroke="#666666" points="973,-250 869,-250 869,-231 973,-231 973,-250"/>
<text text-anchor="middle" x="921" y="-238" font-family="Helvetica,sans-Serif" font-size="10.00">include/vehicles.h</text>
</a>
</g>
</g>
<!-- Node2 -->
<g id="Node000002" class="node">
<title>Node2</title>
<g id="a_Node000002"><a xlink:href="code__80005FD0_8c.html" target="_top" xlink:title=" ">
<polygon fill="white" stroke="#666666" points="120,-134.5 0,-134.5 0,-115.5 120,-115.5 120,-134.5"/>
<text text-anchor="middle" x="60" y="-122.5" font-family="Helvetica,sans-Serif" font-size="10.00">src/code_80005FD0.c</text>
</a>
</g>
</g>
<!-- Node1&#45;&gt;Node2 -->
<g id="edge1_Node000001_Node000002" class="edge">
<title>Node1&#45;&gt;Node2</title>
<g id="a_edge1_Node000001_Node000002"><a xlink:title=" ">
<path fill="none" stroke="#63b8ff" d="M858.78,-233.69C724.77,-220.74 399.13,-186.92 129,-140 119.61,-138.37 109.53,-136.43 100.06,-134.53"/>
<polygon fill="#63b8ff" stroke="#63b8ff" points="858.57,-237.19 868.86,-234.66 859.24,-230.22 858.57,-237.19"/>
</a>
</g>
</g>
<!-- Node3 -->
<g id="Node000003" class="node">
<title>Node3</title>
<g id="a_Node000003"><a xlink:href="code__80005FD0_8h.html" target="_top" xlink:title=" ">
<polygon fill="white" stroke="#666666" points="1220.5,-195 1099.5,-195 1099.5,-176 1220.5,-176 1220.5,-195"/>
<text text-anchor="middle" x="1160" y="-183" font-family="Helvetica,sans-Serif" font-size="10.00">src/code_80005FD0.h</text>
</a>
</g>
</g>
<!-- Node1&#45;&gt;Node3 -->
<g id="edge2_Node000001_Node000003" class="edge">
<title>Node1&#45;&gt;Node3</title>
<g id="a_edge2_Node000001_Node000003"><a xlink:title=" ">
<path fill="none" stroke="#63b8ff" d="M969.18,-228.82C1013.97,-218.88 1079.84,-204.28 1121.3,-195.08"/>
<polygon fill="#63b8ff" stroke="#63b8ff" points="968.4,-225.4 959.4,-230.98 969.92,-232.24 968.4,-225.4"/>
</a>
</g>
</g>
<!-- Node10 -->
<g id="Node000010" class="node">
<title>Node10</title>
<g id="a_Node000010"><a xlink:href="all__variables_8h.html" target="_top" xlink:title=" ">
<polygon fill="white" stroke="#666666" points="276,-134.5 138,-134.5 138,-115.5 276,-115.5 276,-134.5"/>
<text text-anchor="middle" x="207" y="-122.5" font-family="Helvetica,sans-Serif" font-size="10.00">src/debug/all_variables.h</text>
</a>
</g>
</g>
<!-- Node1&#45;&gt;Node10 -->
<g id="edge23_Node000001_Node000010" class="edge">
<title>Node1&#45;&gt;Node10</title>
<g id="a_edge23_Node000001_Node000010"><a xlink:title=" ">
<path fill="none" stroke="#63b8ff" d="M859.07,-230.28C745.26,-213.24 495.23,-175.31 285,-140 274.82,-138.29 263.92,-136.38 253.58,-134.54"/>
<polygon fill="#63b8ff" stroke="#63b8ff" points="858.59,-233.75 869,-231.77 859.63,-226.83 858.59,-233.75"/>
</a>
</g>
</g>
<!-- Node16 -->
<g id="Node000016" class="node">
<title>Node16</title>
<g id="a_Node000016"><a xlink:href="hud__renderer_8c.html" target="_top" xlink:title=" ">
<polygon fill="white" stroke="#666666" points="2431,-134.5 2325,-134.5 2325,-115.5 2431,-115.5 2431,-134.5"/>
<text text-anchor="middle" x="2378" y="-122.5" font-family="Helvetica,sans-Serif" font-size="10.00">src/hud_renderer.c</text>
</a>
</g>
</g>
<!-- Node1&#45;&gt;Node16 -->
<g id="edge24_Node000001_Node000016" class="edge">
<title>Node1&#45;&gt;Node16</title>
<g id="a_edge24_Node000001_Node000016"><a xlink:title=" ">
<path fill="none" stroke="#63b8ff" d="M983.39,-238.4C1180.2,-234.21 1805.12,-215.46 2316,-140 2325.28,-138.63 2335.23,-136.63 2344.39,-134.56"/>
<polygon fill="#63b8ff" stroke="#63b8ff" points="983.17,-234.9 973.24,-238.61 983.31,-241.9 983.17,-234.9"/>
</a>
</g>
</g>
<!-- Node3&#45;&gt;Node2 -->
<g id="edge5_Node000003_Node000002" class="edge">
<title>Node3&#45;&gt;Node2</title>
<g id="a_edge5_Node000003_Node000002"><a xlink:title=" ">
<path fill="none" stroke="#63b8ff" d="M1089.12,-185.26C921.5,-186.23 487.83,-183.87 129,-140 118.44,-138.71 107.09,-136.68 96.71,-134.56"/>
<polygon fill="#63b8ff" stroke="#63b8ff" points="1089.32,-188.76 1099.3,-185.2 1089.28,-181.76 1089.32,-188.76"/>
</a>
</g>
</g>
<!-- Node4 -->
<g id="Node000004" class="node">
<title>Node4</title>
<g id="a_Node000004"><a xlink:href="external_8c.html" target="_top" xlink:title=" ">
<polygon fill="white" stroke="#666666" points="1216.5,-134.5 1103.5,-134.5 1103.5,-115.5 1216.5,-115.5 1216.5,-134.5"/>
<text text-anchor="middle" x="1160" y="-122.5" font-family="Helvetica,sans-Serif" font-size="10.00">src/audio/external.c</text>
</a>
</g>
</g>
<!-- Node3&#45;&gt;Node4 -->
<g id="edge3_Node000003_Node000004" class="edge">
<title>Node3&#45;&gt;Node4</title>
<g id="a_edge3_Node000003_Node000004"><a xlink:title=" ">
<path fill="none" stroke="#63b8ff" d="M1160,-165.66C1160,-155.24 1160,-142.8 1160,-134.67"/>
<polygon fill="#63b8ff" stroke="#63b8ff" points="1156.5,-165.87 1160,-175.87 1163.5,-165.87 1156.5,-165.87"/>
</a>
</g>
</g>
<!-- Node5 -->
<g id="Node000005" class="node">
<title>Node5</title>
<g id="a_Node000005"><a xlink:href="camera_8c.html" target="_top" xlink:title=" ">
<polygon fill="white" stroke="#666666" points="1313.5,-134.5 1234.5,-134.5 1234.5,-115.5 1313.5,-115.5 1313.5,-134.5"/>
<text text-anchor="middle" x="1274" y="-122.5" font-family="Helvetica,sans-Serif" font-size="10.00">src/camera.c</text>
</a>
</g>
</g>
<!-- Node3&#45;&gt;Node5 -->
<g id="edge4_Node000003_Node000005" class="edge">
<title>Node3&#45;&gt;Node5</title>
<g id="a_edge4_Node000003_Node000005"><a xlink:title=" ">
<path fill="none" stroke="#63b8ff" d="M1185.87,-171.23C1207.69,-160.03 1238.31,-144.32 1257.11,-134.67"/>
<polygon fill="#63b8ff" stroke="#63b8ff" points="1184.12,-168.19 1176.82,-175.87 1187.32,-174.42 1184.12,-168.19"/>
</a>
</g>
</g>
<!-- Node6 -->
<g id="Node000006" class="node">
<title>Node6</title>
<g id="a_Node000006"><a xlink:href="code__80057C60_8c.html" target="_top" xlink:title=" ">
<polygon fill="white" stroke="#666666" points="1450.5,-134.5 1331.5,-134.5 1331.5,-115.5 1450.5,-115.5 1450.5,-134.5"/>
<text text-anchor="middle" x="1391" y="-122.5" font-family="Helvetica,sans-Serif" font-size="10.00">src/code_80057C60.c</text>
</a>
</g>
</g>
<!-- Node3&#45;&gt;Node6 -->
<g id="edge6_Node000003_Node000006" class="edge">
<title>Node3&#45;&gt;Node6</title>
<g id="a_edge6_Node000003_Node000006"><a xlink:title=" ">
<path fill="none" stroke="#63b8ff" d="M1203.29,-173.54C1247.94,-162.23 1316.63,-144.83 1357.37,-134.52"/>
<polygon fill="#63b8ff" stroke="#63b8ff" points="1202.42,-170.15 1193.59,-175.99 1204.14,-176.93 1202.42,-170.15"/>
</a>
</g>
</g>
<!-- Node7 -->
<g id="Node000007" class="node">
<title>Node7</title>
<g id="a_Node000007"><a xlink:href="code__8006E9C0_8c.html" target="_top" xlink:title=" ">
<polygon fill="white" stroke="#666666" points="1587.5,-134.5 1468.5,-134.5 1468.5,-115.5 1587.5,-115.5 1587.5,-134.5"/>
<text text-anchor="middle" x="1528" y="-122.5" font-family="Helvetica,sans-Serif" font-size="10.00">src/code_8006E9C0.c</text>
</a>
</g>
</g>
<!-- Node3&#45;&gt;Node7 -->
<g id="edge7_Node000003_Node000007" class="edge">
<title>Node3&#45;&gt;Node7</title>
<g id="a_edge7_Node000003_Node000007"><a xlink:title=" ">
<path fill="none" stroke="#63b8ff" d="M1230.8,-175.03C1291.49,-166.66 1381.19,-153.67 1459,-140 1468.27,-138.37 1478.21,-136.46 1487.57,-134.57"/>
<polygon fill="#63b8ff" stroke="#63b8ff" points="1230,-171.61 1220.57,-176.43 1230.95,-178.54 1230,-171.61"/>
</a>
</g>
</g>
<!-- Node8 -->
<g id="Node000008" class="node">
<title>Node8</title>
<g id="a_Node000008"><a xlink:href="code__80071F00_8c.html" target="_top" xlink:title=" ">
<polygon fill="white" stroke="#666666" points="1724.5,-134.5 1605.5,-134.5 1605.5,-115.5 1724.5,-115.5 1724.5,-134.5"/>
<text text-anchor="middle" x="1665" y="-122.5" font-family="Helvetica,sans-Serif" font-size="10.00">src/code_80071F00.c</text>
</a>
</g>
</g>
<!-- Node3&#45;&gt;Node8 -->
<g id="edge8_Node000003_Node000008" class="edge">
<title>Node3&#45;&gt;Node8</title>
<g id="a_edge8_Node000003_Node000008"><a xlink:title=" ">
<path fill="none" stroke="#63b8ff" d="M1230.76,-179.43C1317.24,-172.74 1467.88,-159.49 1596,-140 1605.91,-138.49 1616.55,-136.51 1626.44,-134.52"/>
<polygon fill="#63b8ff" stroke="#63b8ff" points="1230.24,-175.96 1220.54,-180.22 1230.78,-182.94 1230.24,-175.96"/>
</a>
</g>
</g>
<!-- Node9 -->
<g id="Node000009" class="node">
<title>Node9</title>
<g id="a_Node000009"><a xlink:href="code__80091750_8c.html" target="_top" xlink:title=" ">
<polygon fill="white" stroke="#666666" points="1861.5,-134.5 1742.5,-134.5 1742.5,-115.5 1861.5,-115.5 1861.5,-134.5"/>
<text text-anchor="middle" x="1802" y="-122.5" font-family="Helvetica,sans-Serif" font-size="10.00">src/code_80091750.c</text>
</a>
</g>
</g>
<!-- Node3&#45;&gt;Node9 -->
<g id="edge9_Node000003_Node000009" class="edge">
<title>Node3&#45;&gt;Node9</title>
<g id="a_edge9_Node000003_Node000009"><a xlink:title=" ">
<path fill="none" stroke="#63b8ff" d="M1230.78,-181.88C1339.45,-177.21 1553.75,-165.44 1734,-140 1744.03,-138.59 1754.79,-136.59 1764.74,-134.55"/>
<polygon fill="#63b8ff" stroke="#63b8ff" points="1230.44,-178.39 1220.6,-182.31 1230.74,-185.38 1230.44,-178.39"/>
</a>
</g>
</g>
<!-- Node3&#45;&gt;Node10 -->
<g id="edge10_Node000003_Node000010" class="edge">
<title>Node3&#45;&gt;Node10</title>
<g id="a_edge10_Node000003_Node000010"><a xlink:title=" ">
<path fill="none" stroke="#63b8ff" d="M1088.92,-183.93C939.57,-182.07 582.36,-174.11 285,-140 273.25,-138.65 260.59,-136.63 248.96,-134.54"/>
<polygon fill="#63b8ff" stroke="#63b8ff" points="1089.27,-187.44 1099.32,-184.06 1089.36,-180.44 1089.27,-187.44"/>
</a>
</g>
</g>
<!-- Node13 -->
<g id="Node000013" class="node">
<title>Node13</title>
<g id="a_Node000013"><a xlink:href="effects_8c.html" target="_top" xlink:title=" ">
<polygon fill="white" stroke="#666666" points="1954.5,-134.5 1879.5,-134.5 1879.5,-115.5 1954.5,-115.5 1954.5,-134.5"/>
<text text-anchor="middle" x="1917" y="-122.5" font-family="Helvetica,sans-Serif" font-size="10.00">src/effects.c</text>
</a>
</g>
</g>
<!-- Node3&#45;&gt;Node13 -->
<g id="edge13_Node000003_Node000013" class="edge">
<title>Node3&#45;&gt;Node13</title>
<g id="a_edge13_Node000003_Node000013"><a xlink:title=" ">
<path fill="none" stroke="#63b8ff" d="M1231.06,-182.16C1385.92,-176.71 1749.65,-161.95 1871,-140 1878.06,-138.72 1885.57,-136.72 1892.43,-134.63"/>
<polygon fill="#63b8ff" stroke="#63b8ff" points="1230.6,-178.67 1220.72,-182.52 1230.84,-185.67 1230.6,-178.67"/>
</a>
</g>
</g>
<!-- Node14 -->
<g id="Node000014" class="node">
<title>Node14</title>
<g id="a_Node000014"><a xlink:href="code__80281780_8c.html" target="_top" xlink:title=" ">
<polygon fill="white" stroke="#666666" points="2127.5,-134.5 1972.5,-134.5 1972.5,-115.5 2127.5,-115.5 2127.5,-134.5"/>
<text text-anchor="middle" x="2050" y="-122.5" font-family="Helvetica,sans-Serif" font-size="10.00">src/ending/code_80281780.c</text>
</a>
</g>
</g>
<!-- Node3&#45;&gt;Node14 -->
<g id="edge14_Node000003_Node000014" class="edge">
<title>Node3&#45;&gt;Node14</title>
<g id="a_edge14_Node000003_Node000014"><a xlink:title=" ">
<path fill="none" stroke="#63b8ff" d="M1230.88,-183.1C1371.21,-179.77 1694.19,-169.34 1964,-140 1976.78,-138.61 1990.56,-136.6 2003.26,-134.53"/>
<polygon fill="#63b8ff" stroke="#63b8ff" points="1230.61,-179.61 1220.69,-183.34 1230.77,-186.6 1230.61,-179.61"/>
</a>
</g>
</g>
<!-- Node15 -->
<g id="Node000015" class="node">
<title>Node15</title>
<g id="a_Node000015"><a xlink:href="podium__ceremony__actors_8c.html" target="_top" xlink:title=" ">
<polygon fill="white" stroke="#666666" points="2306.5,-140 2145.5,-140 2145.5,-110 2306.5,-110 2306.5,-140"/>
<text text-anchor="start" x="2153.5" y="-128" font-family="Helvetica,sans-Serif" font-size="10.00">src/ending/podium_ceremony</text>
<text text-anchor="middle" x="2226" y="-117" font-family="Helvetica,sans-Serif" font-size="10.00">_actors.c</text>
</a>
</g>
</g>
<!-- Node3&#45;&gt;Node15 -->
<g id="edge15_Node000003_Node000015" class="edge">
<title>Node3&#45;&gt;Node15</title>
<g id="a_edge15_Node000003_Node000015"><a xlink:title=" ">
<path fill="none" stroke="#63b8ff" d="M1231.04,-183.95C1392.44,-182.12 1798.96,-174.18 2137,-140 2139.65,-139.73 2142.33,-139.44 2145.04,-139.12"/>
<polygon fill="#63b8ff" stroke="#63b8ff" points="1230.73,-180.45 1220.77,-184.06 1230.8,-187.45 1230.73,-180.45"/>
</a>
</g>
</g>
<!-- Node3&#45;&gt;Node16 -->
<g id="edge16_Node000003_Node000016" class="edge">
<title>Node3&#45;&gt;Node16</title>
<g id="a_edge16_Node000003_Node000016"><a xlink:title=" ">
<path fill="none" stroke="#63b8ff" d="M1230.83,-183.48C1448.32,-180.07 2104.53,-167.71 2316,-140 2325.63,-138.74 2335.96,-136.69 2345.38,-134.54"/>
<polygon fill="#63b8ff" stroke="#63b8ff" points="1230.76,-179.98 1220.81,-183.63 1230.87,-186.98 1230.76,-179.98"/>
</a>
</g>
</g>
<!-- Node17 -->
<g id="Node000017" class="node">
<title>Node17</title>
<g id="a_Node000017"><a xlink:href="menus_8c.html" target="_top" xlink:title=" ">
<polygon fill="white" stroke="#666666" points="369.5,-134.5 294.5,-134.5 294.5,-115.5 369.5,-115.5 369.5,-134.5"/>
<text text-anchor="middle" x="332" y="-122.5" font-family="Helvetica,sans-Serif" font-size="10.00">src/menus.c</text>
</a>
</g>
</g>
<!-- Node3&#45;&gt;Node17 -->
<g id="edge17_Node000003_Node000017" class="edge">
<title>Node3&#45;&gt;Node17</title>
<g id="a_edge17_Node000003_Node000017"><a xlink:title=" ">
<path fill="none" stroke="#63b8ff" d="M1089.3,-182.64C923.5,-177.91 513.48,-164.11 378,-140 370.77,-138.71 363.07,-136.66 356.09,-134.51"/>
<polygon fill="#63b8ff" stroke="#63b8ff" points="1089.29,-186.14 1099.39,-182.92 1089.49,-179.14 1089.29,-186.14"/>
</a>
</g>
</g>
<!-- Node18 -->
<g id="Node000018" class="node">
<title>Node18</title>
<g id="a_Node000018"><a xlink:href="player__controller_8c.html" target="_top" xlink:title=" ">
<polygon fill="white" stroke="#666666" points="511,-134.5 387,-134.5 387,-115.5 511,-115.5 511,-134.5"/>
<text text-anchor="middle" x="449" y="-122.5" font-family="Helvetica,sans-Serif" font-size="10.00">src/player_controller.c</text>
</a>
</g>
</g>
<!-- Node3&#45;&gt;Node18 -->
<g id="edge18_Node000003_Node000018" class="edge">
<title>Node3&#45;&gt;Node18</title>
<g id="a_edge18_Node000003_Node000018"><a xlink:title=" ">
<path fill="none" stroke="#63b8ff" d="M1089.29,-182.48C971,-178.45 725.71,-167.32 520,-140 509.41,-138.59 498.03,-136.58 487.55,-134.51"/>
<polygon fill="#63b8ff" stroke="#63b8ff" points="1089.19,-185.98 1099.3,-182.81 1089.42,-178.98 1089.19,-185.98"/>
</a>
</g>
</g>
<!-- Node19 -->
<g id="Node000019" class="node">
<title>Node19</title>
<g id="a_Node000019"><a xlink:href="actors_8c.html" target="_top" xlink:title=" ">
<polygon fill="white" stroke="#666666" points="634.5,-134.5 529.5,-134.5 529.5,-115.5 634.5,-115.5 634.5,-134.5"/>
<text text-anchor="middle" x="582" y="-122.5" font-family="Helvetica,sans-Serif" font-size="10.00">src/racing/actors.c</text>
</a>
</g>
</g>
<!-- Node3&#45;&gt;Node19 -->
<g id="edge19_Node000003_Node000019" class="edge">
<title>Node3&#45;&gt;Node19</title>
<g id="a_edge19_Node000003_Node000019"><a xlink:title=" ">
<path fill="none" stroke="#63b8ff" d="M1089.04,-181.44C989.23,-176.44 801.9,-164.52 644,-140 634.84,-138.58 625.02,-136.58 615.95,-134.54"/>
<polygon fill="#63b8ff" stroke="#63b8ff" points="1089.15,-184.95 1099.31,-181.94 1089.49,-177.96 1089.15,-184.95"/>
</a>
</g>
</g>
<!-- Node20 -->
<g id="Node000020" class="node">
<title>Node20</title>
<g id="a_Node000020"><a xlink:href="actors__extended_8c.html" target="_top" xlink:title=" ">
<polygon fill="white" stroke="#666666" points="809,-134.5 653,-134.5 653,-115.5 809,-115.5 809,-134.5"/>
<text text-anchor="middle" x="731" y="-122.5" font-family="Helvetica,sans-Serif" font-size="10.00">src/racing/actors_extended.c</text>
</a>
</g>
</g>
<!-- Node3&#45;&gt;Node20 -->
<g id="edge20_Node000003_Node000020" class="edge">
<title>Node3&#45;&gt;Node20</title>
<g id="a_edge20_Node000003_Node000020"><a xlink:title=" ">
<path fill="none" stroke="#63b8ff" d="M1089.04,-175.9C1019.81,-167.36 911.56,-153.61 818,-140 806.49,-138.33 794.15,-136.41 782.48,-134.55"/>
<polygon fill="#63b8ff" stroke="#63b8ff" points="1089.03,-179.43 1099.38,-177.17 1089.88,-172.48 1089.03,-179.43"/>
</a>
</g>
</g>
<!-- Node21 -->
<g id="Node000021" class="node">
<title>Node21</title>
<g id="a_Node000021"><a xlink:href="race__logic_8c.html" target="_top" xlink:title=" ">
<polygon fill="white" stroke="#666666" points="952.5,-134.5 827.5,-134.5 827.5,-115.5 952.5,-115.5 952.5,-134.5"/>
<text text-anchor="middle" x="890" y="-122.5" font-family="Helvetica,sans-Serif" font-size="10.00">src/racing/race_logic.c</text>
</a>
</g>
</g>
<!-- Node3&#45;&gt;Node21 -->
<g id="edge21_Node000003_Node000021" class="edge">
<title>Node3&#45;&gt;Node21</title>
<g id="a_edge21_Node000003_Node000021"><a xlink:title=" ">
<path fill="none" stroke="#63b8ff" d="M1110.72,-173.82C1058.57,-162.52 977.32,-144.92 929.31,-134.52"/>
<polygon fill="#63b8ff" stroke="#63b8ff" points="1110.23,-177.3 1120.74,-175.99 1111.71,-170.46 1110.23,-177.3"/>
</a>
</g>
</g>
<!-- Node22 -->
<g id="Node000022" class="node">
<title>Node22</title>
<g id="a_Node000022"><a xlink:href="spawn__players_8c.html" target="_top" xlink:title=" ">
<polygon fill="white" stroke="#666666" points="1085.5,-134.5 970.5,-134.5 970.5,-115.5 1085.5,-115.5 1085.5,-134.5"/>
<text text-anchor="middle" x="1028" y="-122.5" font-family="Helvetica,sans-Serif" font-size="10.00">src/spawn_players.c</text>
</a>
</g>
</g>
<!-- Node3&#45;&gt;Node22 -->
<g id="edge22_Node000003_Node000022" class="edge">
<title>Node3&#45;&gt;Node22</title>
<g id="a_edge22_Node000003_Node000022"><a xlink:title=" ">
<path fill="none" stroke="#63b8ff" d="M1131.64,-171.93C1106.16,-160.64 1069.42,-144.36 1047.22,-134.52"/>
<polygon fill="#63b8ff" stroke="#63b8ff" points="1130.25,-175.14 1140.81,-175.99 1133.08,-168.74 1130.25,-175.14"/>
</a>
</g>
</g>
<!-- Node11 -->
<g id="Node000011" class="node">
<title>Node11</title>
<g id="a_Node000011"><a xlink:href="debug_8inc_8c.html" target="_top" xlink:title=" ">
<polygon fill="white" stroke="#666666" points="268,-74 146,-74 146,-55 268,-55 268,-74"/>
<text text-anchor="middle" x="207" y="-62" font-family="Helvetica,sans-Serif" font-size="10.00">src/debug/debug.inc.c</text>
</a>
</g>
</g>
<!-- Node10&#45;&gt;Node11 -->
<g id="edge11_Node000010_Node000011" class="edge">
<title>Node10&#45;&gt;Node11</title>
<g id="a_edge11_Node000010_Node000011"><a xlink:title=" ">
<path fill="none" stroke="#63b8ff" d="M207,-105.16C207,-94.74 207,-82.3 207,-74.17"/>
<polygon fill="#63b8ff" stroke="#63b8ff" points="203.5,-105.37 207,-115.37 210.5,-105.37 203.5,-105.37"/>
</a>
</g>
</g>
<!-- Node12 -->
<g id="Node000012" class="node">
<title>Node12</title>
<g id="a_Node000012"><a xlink:href="debug_8c.html" target="_top" xlink:title=" ">
<polygon fill="white" stroke="#666666" points="259.5,-19 154.5,-19 154.5,0 259.5,0 259.5,-19"/>
<text text-anchor="middle" x="207" y="-7" font-family="Helvetica,sans-Serif" font-size="10.00">src/debug/debug.c</text>
</a>
</g>
</g>
<!-- Node11&#45;&gt;Node12 -->
<g id="edge12_Node000011_Node000012" class="edge">
<title>Node11&#45;&gt;Node12</title>
<g id="a_edge12_Node000011_Node000012"><a xlink:title=" ">
<path fill="none" stroke="#63b8ff" d="M207,-44.66C207,-35.93 207,-25.99 207,-19.09"/>
<polygon fill="#63b8ff" stroke="#63b8ff" points="203.5,-44.75 207,-54.75 210.5,-44.75 203.5,-44.75"/>
</a>
</g>
</g>
</g>
</svg>

<g id="navigator" transform="translate(0 0)" fill="#404254">
  <rect fill="#f2f5e9" fill-opacity="0.5" stroke="#606060" stroke-width=".5" x="0" y="0" width="60" height="60"/>
  <use id="zoomplus" xlink:href="#zoomPlus" x="17" y="9" onmousedown="handleZoom(evt,'in')"/>
  <use id="zoomminus" xlink:href="#zoomMin" x="42" y="9" onmousedown="handleZoom(evt,'out')"/>
  <use id="reset" xlink:href="#resetDef" x="30" y="36" onmousedown="handleReset()"/>
   <use id="arrowup" xlink:href="#arrowUp" x="0" y="0" onmousedown="handlePan(0,-1)"/>
  <use id="arrowright" xlink:href="#arrowRight" x="0" y="0" onmousedown="handlePan(1,0)"/>
  <use id="arrowdown" xlink:href="#arrowDown" x="0" y="0" onmousedown="handlePan(0,1)"/>
  <use id="arrowleft" xlink:href="#arrowLeft" x="0" y="0" onmousedown="handlePan(-1,0)"/>
</g>
<svg viewBox="0 0 15 15" width="100%" height="30px" preserveAspectRatio="xMaxYMin meet">
 <g id="arrow_out" transform="scale(0.3 0.3)">
  <a xlink:href="vehicles_8h__dep__incl_org.svg" target="_base">
   <rect id="button" ry="5" rx="5" y="6" x="6" height="38" width="38"
        fill="#f2f5e9" fill-opacity="0.5" stroke="#606060" stroke-width="1.0"/>
   <path id="arrow"
     d="M 11.500037,31.436501 C 11.940474,20.09759 22.043105,11.32322 32.158766,21.979434 L 37.068811,17.246167 C 37.068811,17.246167 37.088388,32 37.088388,32 L 22.160133,31.978069 C 22.160133,31.978069 26.997745,27.140456 26.997745,27.140456 C 18.528582,18.264221 13.291696,25.230495 11.500037,31.436501 z"
     style="fill:#404040;"/>
  </a>
 </g>
</svg>

<style type='text/css'>
<![CDATA[
[data-mouse-over-selected='false'] { opacity: 0.7; }
[data-mouse-over-selected='true']  { opacity: 1.0; }
]]>
</style>
<script type="application/ecmascript"><![CDATA[
document.addEventListener('DOMContentLoaded', (event) => {
  highlightEdges();
  highlightAdjacentNodes();
});
]]></script>
</svg>
