<?xml version="1.0" encoding="UTF-8" standalone="no"?>
<!DOCTYPE svg PUBLIC "-//W3C//DTD SVG 1.1//EN"
 "http://www.w3.org/Graphics/SVG/1.1/DTD/svg11.dtd">
<!-- Generated by graphviz version 2.43.0 (0)
 -->
<!-- Title: courses/wario_stadium/course_textures.linkonly.c Pages: 1 -->
<!--zoomable 225 -->

<svg id="main" version="1.1" xmlns="http://www.w3.org/2000/svg" xmlns:xlink="http://www.w3.org/1999/xlink" xml:space="preserve" onload="init(evt)">
<style type="text/css"><![CDATA[
.node, .edge {opacity: 0.7;}
.node.selected, .edge.selected {opacity: 1;}
.edge:hover path { stroke: red; }
.edge:hover polygon { stroke: red; fill: red; }
]]></style>

<defs>
  <circle id="rim" cx="0" cy="0" r="7"/>
  <circle id="rim2" cx="0" cy="0" r="3.5"/>
  <g id="zoomPlus">
    <use xlink:href="#rim" fill="#404040"><set attributeName="fill" to="#808080" begin="zoomplus.mouseover" end="zoomplus.mouseout"/></use>
    <path d="M-4,0h8M0,-4v8" fill="none" stroke="white" stroke-width="1.5" pointer-events="none"/>
  </g>
  <g id="zoomMin">
    <use xlink:href="#rim" fill="#404040"><set attributeName="fill" to="#808080" begin="zoomminus.mouseover" end="zoomminus.mouseout"/></use>
    <path d="M-4,0h8" fill="none" stroke="white" stroke-width="1.5" pointer-events="none"/>
  </g>
  <g id="arrowUp" transform="translate(30 24)">
    <use xlink:href="#rim"/>
    <path pointer-events="none" fill="none" stroke="white" stroke-width="1.5" d="M0,-3.0v7 M-2.5,-0.5L0,-3.0L2.5,-0.5"/>
  </g>
  <g id="arrowRight" transform="rotate(90) translate(36 -43)">
    <use xlink:href="#rim"/>
    <path pointer-events="none" fill="none" stroke="white" stroke-width="1.5" d="M0,-3.0v7 M-2.5,-0.5L0,-3.0L2.5,-0.5"/>
  </g>
  <g id="arrowDown" transform="rotate(180) translate(-30 -48)">
    <use xlink:href="#rim"/>
    <path pointer-events="none" fill="none" stroke="white" stroke-width="1.5" d="M0,-3.0v7 M-2.5,-0.5L0,-3.0L2.5,-0.5"/>
  </g>
  <g id="arrowLeft" transform="rotate(270) translate(-36 17)">
    <use xlink:href="#rim"/>
    <path pointer-events="none" fill="none" stroke="white" stroke-width="1.5" d="M0,-3.0v7 M-2.5,-0.5L0,-3.0L2.5,-0.5"/>
  </g>
  <g id="resetDef">
    <use xlink:href="#rim2" fill="#404040"><set attributeName="fill" to="#808080" begin="reset.mouseover" end="reset.mouseout"/></use>
  </g>
</defs>
<script type="application/ecmascript">
var viewWidth = 3639;
var viewHeight = 225;
var sectionId = 'dynsection-0';
</script>
<script type="application/ecmascript" xlink:href="svg.min.js"/>
<svg id="graph" class="graph">
<g id="viewport">
<title>courses/wario_stadium/course_textures.linkonly.c</title>
<!-- Node1 -->
<g id="Node000001" class="node">
<title>Node1</title>
<g id="a_Node000001"><a xlink:title=" ">
<polygon fill="#999999" stroke="#666666" points="1864,-217 1718,-217 1718,-187 1864,-187 1864,-217"/>
<text text-anchor="start" x="1726" y="-205" font-family="Helvetica,sans-Serif" font-size="10.00">courses/wario_stadium</text>
<text text-anchor="middle" x="1791" y="-194" font-family="Helvetica,sans-Serif" font-size="10.00">/course_textures.linkonly.c</text>
</a>
</g>
</g>
<!-- Node2 -->
<g id="Node000002" class="node">
<title>Node2</title>
<g id="a_Node000002"><a xlink:href="wario__stadium_2course__textures_8linkonly_8h.html" target="_top" xlink:title=" ">
<polygon fill="white" stroke="#666666" points="146,-145.5 0,-145.5 0,-115.5 146,-115.5 146,-145.5"/>
<text text-anchor="start" x="8" y="-133.5" font-family="Helvetica,sans-Serif" font-size="10.00">courses/wario_stadium</text>
<text text-anchor="middle" x="73" y="-122.5" font-family="Helvetica,sans-Serif" font-size="10.00">/course_textures.linkonly.h</text>
</a>
</g>
</g>
<!-- Node1&#45;&gt;Node2 -->
<g id="edge1_Node000001_Node000002" class="edge">
<title>Node1&#45;&gt;Node2</title>
<g id="a_edge1_Node000001_Node000002"><a xlink:title=" ">
<path fill="none" stroke="#63b8ff" d="M1717.73,-200.71C1441.66,-199.3 464.31,-191.52 156,-151 149.39,-150.13 142.54,-148.97 135.74,-147.63"/>
<polygon fill="#63b8ff" stroke="#63b8ff" points="136.34,-144.18 125.84,-145.58 134.92,-151.04 136.34,-144.18"/>
</a>
</g>
</g>
<!-- Node5 -->
<g id="Node000005" class="node">
<title>Node5</title>
<g id="a_Node000005"><a xlink:title=" ">
<polygon fill="#e0e0e0" stroke="#999999" points="323.5,-145.5 164.5,-145.5 164.5,-115.5 323.5,-115.5 323.5,-145.5"/>
<text text-anchor="start" x="172.5" y="-133.5" font-family="Helvetica,sans-Serif" font-size="10.00">textures/standalone</text>
<text text-anchor="middle" x="244" y="-122.5" font-family="Helvetica,sans-Serif" font-size="10.00">/texture_67F15C.rgba16.inc.c</text>
</a>
</g>
</g>
<!-- Node1&#45;&gt;Node5 -->
<g id="edge5_Node000001_Node000005" class="edge">
<title>Node1&#45;&gt;Node5</title>
<g id="a_edge5_Node000001_Node000005"><a xlink:title=" ">
<path fill="none" stroke="#63b8ff" d="M1717.84,-200.27C1461.46,-197.44 604.49,-185.56 332,-151 324.85,-150.09 317.42,-148.88 310.05,-147.5"/>
<polygon fill="#63b8ff" stroke="#63b8ff" points="310.55,-144.03 300.06,-145.53 309.2,-150.9 310.55,-144.03"/>
</a>
</g>
</g>
<!-- Node6 -->
<g id="Node000006" class="node">
<title>Node6</title>
<g id="a_Node000006"><a xlink:title=" ">
<polygon fill="#e0e0e0" stroke="#999999" points="499,-145.5 341,-145.5 341,-115.5 499,-115.5 499,-145.5"/>
<text text-anchor="start" x="349" y="-133.5" font-family="Helvetica,sans-Serif" font-size="10.00">textures/standalone</text>
<text text-anchor="middle" x="420" y="-122.5" font-family="Helvetica,sans-Serif" font-size="10.00">/texture_67F450.rgba16.inc.c</text>
</a>
</g>
</g>
<!-- Node1&#45;&gt;Node6 -->
<g id="edge6_Node000001_Node000006" class="edge">
<title>Node1&#45;&gt;Node6</title>
<g id="a_edge6_Node000001_Node000006"><a xlink:title=" ">
<path fill="none" stroke="#63b8ff" d="M1717.89,-199.85C1482.42,-195.87 745.4,-181.27 509,-151 501.88,-150.09 494.49,-148.89 487.15,-147.53"/>
<polygon fill="#63b8ff" stroke="#63b8ff" points="487.68,-144.07 477.19,-145.59 486.34,-150.94 487.68,-144.07"/>
</a>
</g>
</g>
<!-- Node7 -->
<g id="Node000007" class="node">
<title>Node7</title>
<g id="a_Node000007"><a xlink:title=" ">
<polygon fill="#e0e0e0" stroke="#999999" points="678.5,-145.5 517.5,-145.5 517.5,-115.5 678.5,-115.5 678.5,-145.5"/>
<text text-anchor="start" x="525.5" y="-133.5" font-family="Helvetica,sans-Serif" font-size="10.00">textures/standalone</text>
<text text-anchor="middle" x="598" y="-122.5" font-family="Helvetica,sans-Serif" font-size="10.00">/sign_wario_face.rgba16.inc.c</text>
</a>
</g>
</g>
<!-- Node1&#45;&gt;Node7 -->
<g id="edge7_Node000001_Node000007" class="edge">
<title>Node1&#45;&gt;Node7</title>
<g id="a_edge7_Node000001_Node000007"><a xlink:title=" ">
<path fill="none" stroke="#63b8ff" d="M1717.82,-199.29C1504.88,-194.06 888.07,-177.02 688,-151 680.81,-150.06 673.34,-148.85 665.91,-147.48"/>
<polygon fill="#63b8ff" stroke="#63b8ff" points="666.33,-144 655.85,-145.53 665,-150.87 666.33,-144"/>
</a>
</g>
</g>
<!-- Node8 -->
<g id="Node000008" class="node">
<title>Node8</title>
<g id="a_Node000008"><a xlink:title=" ">
<polygon fill="#e0e0e0" stroke="#999999" points="857,-145.5 697,-145.5 697,-115.5 857,-115.5 857,-145.5"/>
<text text-anchor="start" x="705" y="-133.5" font-family="Helvetica,sans-Serif" font-size="10.00">textures/standalone</text>
<text text-anchor="middle" x="777" y="-122.5" font-family="Helvetica,sans-Serif" font-size="10.00">/texture_670AC8.rgba16.inc.c</text>
</a>
</g>
</g>
<!-- Node1&#45;&gt;Node8 -->
<g id="edge8_Node000001_Node000008" class="edge">
<title>Node1&#45;&gt;Node8</title>
<g id="a_edge8_Node000001_Node000008"><a xlink:title=" ">
<path fill="none" stroke="#63b8ff" d="M1717.77,-201.05C1560.88,-200.28 1180.94,-193.73 866,-151 859.15,-150.07 852.05,-148.89 844.99,-147.57"/>
<polygon fill="#63b8ff" stroke="#63b8ff" points="845.17,-144.04 834.69,-145.56 843.83,-150.91 845.17,-144.04"/>
</a>
</g>
</g>
<!-- Node9 -->
<g id="Node000009" class="node">
<title>Node9</title>
<g id="a_Node000009"><a xlink:title=" ">
<polygon fill="#e0e0e0" stroke="#999999" points="991,-151 875,-151 875,-110 991,-110 991,-151"/>
<text text-anchor="start" x="883" y="-139" font-family="Helvetica,sans-Serif" font-size="10.00">textures/standalone</text>
<text text-anchor="start" x="883" y="-128" font-family="Helvetica,sans-Serif" font-size="10.00">/checkerboard_black</text>
<text text-anchor="middle" x="933" y="-117" font-family="Helvetica,sans-Serif" font-size="10.00">_white.rgba16.inc.c</text>
</a>
</g>
</g>
<!-- Node1&#45;&gt;Node9 -->
<g id="edge9_Node000001_Node000009" class="edge">
<title>Node1&#45;&gt;Node9</title>
<g id="a_edge9_Node000001_Node000009"><a xlink:title=" ">
<path fill="none" stroke="#63b8ff" d="M1717.85,-201.72C1579.23,-201.93 1268.95,-196.83 1001.19,-151"/>
<polygon fill="#63b8ff" stroke="#63b8ff" points="1001.74,-147.54 991.29,-149.28 1000.54,-154.44 1001.74,-147.54"/>
</a>
</g>
</g>
<!-- Node10 -->
<g id="Node000010" class="node">
<title>Node10</title>
<g id="a_Node000010"><a xlink:title=" ">
<polygon fill="#e0e0e0" stroke="#999999" points="1169,-145.5 1009,-145.5 1009,-115.5 1169,-115.5 1169,-145.5"/>
<text text-anchor="start" x="1017" y="-133.5" font-family="Helvetica,sans-Serif" font-size="10.00">textures/standalone</text>
<text text-anchor="middle" x="1089" y="-122.5" font-family="Helvetica,sans-Serif" font-size="10.00">/texture_64C11C.rgba16.inc.c</text>
</a>
</g>
</g>
<!-- Node1&#45;&gt;Node10 -->
<g id="edge10_Node000001_Node000010" class="edge">
<title>Node1&#45;&gt;Node10</title>
<g id="a_edge10_Node000001_Node000010"><a xlink:title=" ">
<path fill="none" stroke="#63b8ff" d="M1717.98,-198.22C1602.72,-193.11 1371.78,-180 1178,-151 1171.38,-150.01 1164.51,-148.81 1157.67,-147.51"/>
<polygon fill="#63b8ff" stroke="#63b8ff" points="1158.17,-144.04 1147.68,-145.52 1156.81,-150.9 1158.17,-144.04"/>
</a>
</g>
</g>
<!-- Node11 -->
<g id="Node000011" class="node">
<title>Node11</title>
<g id="a_Node000011"><a xlink:title=" ">
<polygon fill="#e0e0e0" stroke="#999999" points="1347,-145.5 1187,-145.5 1187,-115.5 1347,-115.5 1347,-145.5"/>
<text text-anchor="start" x="1195" y="-133.5" font-family="Helvetica,sans-Serif" font-size="10.00">textures/standalone</text>
<text text-anchor="middle" x="1267" y="-122.5" font-family="Helvetica,sans-Serif" font-size="10.00">/texture_64C7B4.rgba16.inc.c</text>
</a>
</g>
</g>
<!-- Node1&#45;&gt;Node11 -->
<g id="edge11_Node000001_Node000011" class="edge">
<title>Node1&#45;&gt;Node11</title>
<g id="a_edge11_Node000001_Node000011"><a xlink:title=" ">
<path fill="none" stroke="#63b8ff" d="M1717.95,-194.88C1631.27,-187.09 1482.54,-172.08 1356,-151 1349.86,-149.98 1343.5,-148.81 1337.13,-147.56"/>
<polygon fill="#63b8ff" stroke="#63b8ff" points="1337.66,-144.09 1327.16,-145.55 1336.27,-150.96 1337.66,-144.09"/>
</a>
</g>
</g>
<!-- Node12 -->
<g id="Node000012" class="node">
<title>Node12</title>
<g id="a_Node000012"><a xlink:title=" ">
<polygon fill="#e0e0e0" stroke="#999999" points="1523,-145.5 1365,-145.5 1365,-115.5 1523,-115.5 1523,-145.5"/>
<text text-anchor="start" x="1373" y="-133.5" font-family="Helvetica,sans-Serif" font-size="10.00">textures/standalone</text>
<text text-anchor="middle" x="1444" y="-122.5" font-family="Helvetica,sans-Serif" font-size="10.00">/texture_668228.rgba16.inc.c</text>
</a>
</g>
</g>
<!-- Node1&#45;&gt;Node12 -->
<g id="edge12_Node000001_Node000012" class="edge">
<title>Node1&#45;&gt;Node12</title>
<g id="a_edge12_Node000001_Node000012"><a xlink:title=" ">
<path fill="none" stroke="#63b8ff" d="M1717.77,-187.42C1665.84,-177.65 1594.56,-163.97 1532,-151 1526.96,-149.95 1521.76,-148.86 1516.52,-147.74"/>
<polygon fill="#63b8ff" stroke="#63b8ff" points="1516.96,-144.25 1506.45,-145.56 1515.49,-151.09 1516.96,-144.25"/>
</a>
</g>
</g>
<!-- Node13 -->
<g id="Node000013" class="node">
<title>Node13</title>
<g id="a_Node000013"><a xlink:title=" ">
<polygon fill="#e0e0e0" stroke="#999999" points="1699,-145.5 1541,-145.5 1541,-115.5 1699,-115.5 1699,-145.5"/>
<text text-anchor="start" x="1549" y="-133.5" font-family="Helvetica,sans-Serif" font-size="10.00">textures/standalone</text>
<text text-anchor="middle" x="1620" y="-122.5" font-family="Helvetica,sans-Serif" font-size="10.00">/texture_668358.rgba16.inc.c</text>
</a>
</g>
</g>
<!-- Node1&#45;&gt;Node13 -->
<g id="edge13_Node000001_Node000013" class="edge">
<title>Node1&#45;&gt;Node13</title>
<g id="a_edge13_Node000001_Node000013"><a xlink:title=" ">
<path fill="none" stroke="#63b8ff" d="M1756.4,-186.94C1729.74,-176.1 1692.71,-161.05 1663.96,-149.37"/>
<polygon fill="#63b8ff" stroke="#63b8ff" points="1665.13,-146.07 1654.55,-145.54 1662.5,-152.55 1665.13,-146.07"/>
</a>
</g>
</g>
<!-- Node14 -->
<g id="Node000014" class="node">
<title>Node14</title>
<g id="a_Node000014"><a xlink:title=" ">
<polygon fill="#e0e0e0" stroke="#999999" points="1864.5,-145.5 1717.5,-145.5 1717.5,-115.5 1864.5,-115.5 1864.5,-145.5"/>
<text text-anchor="start" x="1725.5" y="-133.5" font-family="Helvetica,sans-Serif" font-size="10.00">textures/standalone</text>
<text text-anchor="middle" x="1791" y="-122.5" font-family="Helvetica,sans-Serif" font-size="10.00">/texture_66AEB8.ia16.inc.c</text>
</a>
</g>
</g>
<!-- Node1&#45;&gt;Node14 -->
<g id="edge14_Node000001_Node000014" class="edge">
<title>Node1&#45;&gt;Node14</title>
<g id="a_edge14_Node000001_Node000014"><a xlink:title=" ">
<path fill="none" stroke="#63b8ff" d="M1791,-186.94C1791,-177.99 1791,-166.16 1791,-155.73"/>
<polygon fill="#63b8ff" stroke="#63b8ff" points="1794.5,-155.54 1791,-145.54 1787.5,-155.54 1794.5,-155.54"/>
</a>
</g>
</g>
<!-- Node15 -->
<g id="Node000015" class="node">
<title>Node15</title>
<g id="a_Node000015"><a xlink:title=" ">
<polygon fill="#e0e0e0" stroke="#999999" points="2041.5,-145.5 1882.5,-145.5 1882.5,-115.5 2041.5,-115.5 2041.5,-145.5"/>
<text text-anchor="start" x="1890.5" y="-133.5" font-family="Helvetica,sans-Serif" font-size="10.00">textures/standalone</text>
<text text-anchor="middle" x="1962" y="-122.5" font-family="Helvetica,sans-Serif" font-size="10.00">/texture_677A40.rgba16.inc.c</text>
</a>
</g>
</g>
<!-- Node1&#45;&gt;Node15 -->
<g id="edge15_Node000001_Node000015" class="edge">
<title>Node1&#45;&gt;Node15</title>
<g id="a_edge15_Node000001_Node000015"><a xlink:title=" ">
<path fill="none" stroke="#63b8ff" d="M1825.6,-186.94C1852.26,-176.1 1889.29,-161.05 1918.04,-149.37"/>
<polygon fill="#63b8ff" stroke="#63b8ff" points="1919.5,-152.55 1927.45,-145.54 1916.87,-146.07 1919.5,-152.55"/>
</a>
</g>
</g>
<!-- Node16 -->
<g id="Node000016" class="node">
<title>Node16</title>
<g id="a_Node000016"><a xlink:title=" ">
<polygon fill="#e0e0e0" stroke="#999999" points="2217,-145.5 2059,-145.5 2059,-115.5 2217,-115.5 2217,-145.5"/>
<text text-anchor="start" x="2067" y="-133.5" font-family="Helvetica,sans-Serif" font-size="10.00">textures/standalone</text>
<text text-anchor="middle" x="2138" y="-122.5" font-family="Helvetica,sans-Serif" font-size="10.00">/texture_67E428.rgba16.inc.c</text>
</a>
</g>
</g>
<!-- Node1&#45;&gt;Node16 -->
<g id="edge16_Node000001_Node000016" class="edge">
<title>Node1&#45;&gt;Node16</title>
<g id="a_edge16_Node000001_Node000016"><a xlink:title=" ">
<path fill="none" stroke="#63b8ff" d="M1864.25,-187.53C1916.4,-177.79 1988.11,-164.09 2051,-151 2055.99,-149.96 2061.13,-148.87 2066.3,-147.75"/>
<polygon fill="#63b8ff" stroke="#63b8ff" points="2067.24,-151.13 2076.27,-145.58 2065.75,-144.29 2067.24,-151.13"/>
</a>
</g>
</g>
<!-- Node17 -->
<g id="Node000017" class="node">
<title>Node17</title>
<g id="a_Node000017"><a xlink:title=" ">
<polygon fill="#e0e0e0" stroke="#999999" points="2393.5,-145.5 2234.5,-145.5 2234.5,-115.5 2393.5,-115.5 2393.5,-145.5"/>
<text text-anchor="start" x="2242.5" y="-133.5" font-family="Helvetica,sans-Serif" font-size="10.00">textures/standalone</text>
<text text-anchor="middle" x="2314" y="-122.5" font-family="Helvetica,sans-Serif" font-size="10.00">/texture_643A34.rgba16.inc.c</text>
</a>
</g>
</g>
<!-- Node1&#45;&gt;Node17 -->
<g id="edge17_Node000001_Node000017" class="edge">
<title>Node1&#45;&gt;Node17</title>
<g id="a_edge17_Node000001_Node000017"><a xlink:title=" ">
<path fill="none" stroke="#63b8ff" d="M1864.06,-194.93C1950.75,-187.2 2099.49,-172.23 2226,-151 2232.08,-149.98 2238.37,-148.81 2244.66,-147.57"/>
<polygon fill="#63b8ff" stroke="#63b8ff" points="2245.42,-150.98 2254.52,-145.56 2244.02,-144.13 2245.42,-150.98"/>
</a>
</g>
</g>
<!-- Node18 -->
<g id="Node000018" class="node">
<title>Node18</title>
<g id="a_Node000018"><a xlink:title=" ">
<polygon fill="#e0e0e0" stroke="#999999" points="2570.5,-145.5 2411.5,-145.5 2411.5,-115.5 2570.5,-115.5 2570.5,-145.5"/>
<text text-anchor="start" x="2419.5" y="-133.5" font-family="Helvetica,sans-Serif" font-size="10.00">textures/standalone</text>
<text text-anchor="middle" x="2491" y="-122.5" font-family="Helvetica,sans-Serif" font-size="10.00">/texture_66EBF0.rgba16.inc.c</text>
</a>
</g>
</g>
<!-- Node1&#45;&gt;Node18 -->
<g id="edge18_Node000001_Node000018" class="edge">
<title>Node1&#45;&gt;Node18</title>
<g id="a_edge18_Node000001_Node000018"><a xlink:title=" ">
<path fill="none" stroke="#63b8ff" d="M1864.38,-198.24C1979.63,-193.19 2209.84,-180.15 2403,-151 2409.55,-150.01 2416.34,-148.82 2423.11,-147.51"/>
<polygon fill="#63b8ff" stroke="#63b8ff" points="2423.87,-150.93 2432.99,-145.53 2422.49,-144.07 2423.87,-150.93"/>
</a>
</g>
</g>
<!-- Node19 -->
<g id="Node000019" class="node">
<title>Node19</title>
<g id="a_Node000019"><a xlink:title=" ">
<polygon fill="#e0e0e0" stroke="#999999" points="2747.5,-145.5 2588.5,-145.5 2588.5,-115.5 2747.5,-115.5 2747.5,-145.5"/>
<text text-anchor="start" x="2596.5" y="-133.5" font-family="Helvetica,sans-Serif" font-size="10.00">textures/standalone</text>
<text text-anchor="middle" x="2668" y="-122.5" font-family="Helvetica,sans-Serif" font-size="10.00">/texture_68272C.rgba16.inc.c</text>
</a>
</g>
</g>
<!-- Node1&#45;&gt;Node19 -->
<g id="edge19_Node000001_Node000019" class="edge">
<title>Node1&#45;&gt;Node19</title>
<g id="a_edge19_Node000001_Node000019"><a xlink:title=" ">
<path fill="none" stroke="#63b8ff" d="M1864.26,-200.14C2004.09,-197.65 2318.4,-188.05 2580,-151 2586.66,-150.06 2593.57,-148.88 2600.45,-147.57"/>
<polygon fill="#63b8ff" stroke="#63b8ff" points="2601.36,-150.96 2610.48,-145.58 2599.99,-144.1 2601.36,-150.96"/>
</a>
</g>
</g>
<!-- Node20 -->
<g id="Node000020" class="node">
<title>Node20</title>
<g id="a_Node000020"><a xlink:title=" ">
<polygon fill="#e0e0e0" stroke="#999999" points="2923,-145.5 2765,-145.5 2765,-115.5 2923,-115.5 2923,-145.5"/>
<text text-anchor="start" x="2773" y="-133.5" font-family="Helvetica,sans-Serif" font-size="10.00">textures/standalone</text>
<text text-anchor="middle" x="2844" y="-122.5" font-family="Helvetica,sans-Serif" font-size="10.00">/texture_682928.rgba16.inc.c</text>
</a>
</g>
</g>
<!-- Node1&#45;&gt;Node20 -->
<g id="edge20_Node000001_Node000020" class="edge">
<title>Node1&#45;&gt;Node20</title>
<g id="a_edge20_Node000001_Node000020"><a xlink:title=" ">
<path fill="none" stroke="#63b8ff" d="M1864.1,-201.41C2025.84,-201.41 2425.9,-196.34 2757,-151 2763.7,-150.08 2770.64,-148.91 2777.55,-147.6"/>
<polygon fill="#63b8ff" stroke="#63b8ff" points="2778.5,-150.98 2787.62,-145.59 2777.13,-144.11 2778.5,-150.98"/>
</a>
</g>
</g>
<!-- Node21 -->
<g id="Node000021" class="node">
<title>Node21</title>
<g id="a_Node000021"><a xlink:title=" ">
<polygon fill="#e0e0e0" stroke="#999999" points="3099.5,-145.5 2940.5,-145.5 2940.5,-115.5 3099.5,-115.5 3099.5,-145.5"/>
<text text-anchor="start" x="2948.5" y="-133.5" font-family="Helvetica,sans-Serif" font-size="10.00">textures/standalone</text>
<text text-anchor="middle" x="3020" y="-122.5" font-family="Helvetica,sans-Serif" font-size="10.00">/texture_682B24.rgba16.inc.c</text>
</a>
</g>
</g>
<!-- Node1&#45;&gt;Node21 -->
<g id="edge21_Node000001_Node000021" class="edge">
<title>Node1&#45;&gt;Node21</title>
<g id="a_edge21_Node000001_Node000021"><a xlink:title=" ">
<path fill="none" stroke="#63b8ff" d="M1864.37,-199.46C2082.45,-194.61 2724.36,-178.34 2932,-151 2939.04,-150.07 2946.35,-148.86 2953.61,-147.5"/>
<polygon fill="#63b8ff" stroke="#63b8ff" points="2954.32,-150.92 2963.45,-145.55 2952.96,-144.06 2954.32,-150.92"/>
</a>
</g>
</g>
<!-- Node22 -->
<g id="Node000022" class="node">
<title>Node22</title>
<g id="a_Node000022"><a xlink:title=" ">
<polygon fill="#e0e0e0" stroke="#999999" points="3278,-145.5 3118,-145.5 3118,-115.5 3278,-115.5 3278,-145.5"/>
<text text-anchor="start" x="3126" y="-133.5" font-family="Helvetica,sans-Serif" font-size="10.00">textures/standalone</text>
<text text-anchor="middle" x="3198" y="-122.5" font-family="Helvetica,sans-Serif" font-size="10.00">/texture_682D20.rgba16.inc.c</text>
</a>
</g>
</g>
<!-- Node1&#45;&gt;Node22 -->
<g id="edge22_Node000001_Node000022" class="edge">
<title>Node1&#45;&gt;Node22</title>
<g id="a_edge22_Node000001_Node000022"><a xlink:title=" ">
<path fill="none" stroke="#63b8ff" d="M1864.05,-199.94C2103.81,-196.19 2865.24,-182.08 3109,-151 3116.31,-150.07 3123.91,-148.83 3131.44,-147.43"/>
<polygon fill="#63b8ff" stroke="#63b8ff" points="3132.15,-150.86 3141.29,-145.5 3130.8,-143.99 3132.15,-150.86"/>
</a>
</g>
</g>
<!-- Node23 -->
<g id="Node000023" class="node">
<title>Node23</title>
<g id="a_Node000023"><a xlink:title=" ">
<polygon fill="#e0e0e0" stroke="#999999" points="3455.5,-145.5 3296.5,-145.5 3296.5,-115.5 3455.5,-115.5 3455.5,-145.5"/>
<text text-anchor="start" x="3304.5" y="-133.5" font-family="Helvetica,sans-Serif" font-size="10.00">textures/standalone</text>
<text text-anchor="middle" x="3376" y="-122.5" font-family="Helvetica,sans-Serif" font-size="10.00">/texture_682F1C.rgba16.inc.c</text>
</a>
</g>
</g>
<!-- Node1&#45;&gt;Node23 -->
<g id="edge23_Node000001_Node000023" class="edge">
<title>Node1&#45;&gt;Node23</title>
<g id="a_edge23_Node000001_Node000023"><a xlink:title=" ">
<path fill="none" stroke="#63b8ff" d="M1864.2,-200.32C2124.82,-197.63 3006.91,-186.07 3287,-151 3294.31,-150.08 3301.91,-148.86 3309.45,-147.46"/>
<polygon fill="#63b8ff" stroke="#63b8ff" points="3310.15,-150.89 3319.29,-145.54 3308.81,-144.02 3310.15,-150.89"/>
</a>
</g>
</g>
<!-- Node24 -->
<g id="Node000024" class="node">
<title>Node24</title>
<g id="a_Node000024"><a xlink:title=" ">
<polygon fill="#e0e0e0" stroke="#999999" points="3631,-145.5 3473,-145.5 3473,-115.5 3631,-115.5 3631,-145.5"/>
<text text-anchor="start" x="3481" y="-133.5" font-family="Helvetica,sans-Serif" font-size="10.00">textures/standalone</text>
<text text-anchor="middle" x="3552" y="-122.5" font-family="Helvetica,sans-Serif" font-size="10.00">/texture_683118.rgba16.inc.c</text>
</a>
</g>
</g>
<!-- Node1&#45;&gt;Node24 -->
<g id="edge24_Node000001_Node000024" class="edge">
<title>Node1&#45;&gt;Node24</title>
<g id="a_edge24_Node000001_Node000024"><a xlink:title=" ">
<path fill="none" stroke="#63b8ff" d="M1864.08,-200.67C2144.04,-199.12 3148.39,-190.84 3465,-151 3472.07,-150.11 3479.42,-148.91 3486.71,-147.54"/>
<polygon fill="#63b8ff" stroke="#63b8ff" points="3487.46,-150.96 3496.58,-145.57 3486.09,-144.09 3487.46,-150.96"/>
</a>
</g>
</g>
<!-- Node3 -->
<g id="Node000003" class="node">
<title>Node3</title>
<g id="a_Node000003"><a xlink:href="ultratypes_8h.html" target="_top" xlink:title=" ">
<polygon fill="white" stroke="#666666" points="118.5,-74 27.5,-74 27.5,-55 118.5,-55 118.5,-74"/>
<text text-anchor="middle" x="73" y="-62" font-family="Helvetica,sans-Serif" font-size="10.00">PR/ultratypes.h</text>
</a>
</g>
</g>
<!-- Node2&#45;&gt;Node3 -->
<g id="edge2_Node000002_Node000003" class="edge">
<title>Node2&#45;&gt;Node3</title>
<g id="a_edge2_Node000002_Node000003"><a xlink:title=" ">
<path fill="none" stroke="#63b8ff" d="M73,-115.3C73,-106.2 73,-94.29 73,-84.4"/>
<polygon fill="#63b8ff" stroke="#63b8ff" points="76.5,-84.34 73,-74.34 69.5,-84.34 76.5,-84.34"/>
</a>
</g>
</g>
<!-- Node4 -->
<g id="Node000004" class="node">
<title>Node4</title>
<g id="a_Node000004"><a xlink:href="stddef_8h.html" target="_top" xlink:title=" ">
<polygon fill="white" stroke="#666666" points="101,-19 45,-19 45,0 101,0 101,-19"/>
<text text-anchor="middle" x="73" y="-7" font-family="Helvetica,sans-Serif" font-size="10.00">stddef.h</text>
</a>
</g>
</g>
<!-- Node3&#45;&gt;Node4 -->
<g id="edge3_Node000003_Node000004" class="edge">
<title>Node3&#45;&gt;Node4</title>
<g id="a_edge3_Node000003_Node000004"><a xlink:title=" ">
<path fill="none" stroke="#63b8ff" d="M67.83,-54.75C66.34,-47.8 65.9,-37.85 66.52,-29.13"/>
<polygon fill="#63b8ff" stroke="#63b8ff" points="70.01,-29.47 67.87,-19.09 63.07,-28.53 70.01,-29.47"/>
</a>
</g>
</g>
<!-- Node4&#45;&gt;Node3 -->
<g id="edge4_Node000004_Node000003" class="edge">
<title>Node4&#45;&gt;Node3</title>
<g id="a_edge4_Node000004_Node000003"><a xlink:title=" ">
<path fill="none" stroke="#63b8ff" d="M78.13,-19.09C79.64,-25.99 80.09,-35.93 79.49,-44.66"/>
<polygon fill="#63b8ff" stroke="#63b8ff" points="76,-44.38 78.17,-54.75 82.94,-45.29 76,-44.38"/>
</a>
</g>
</g>
</g>
</svg>

<g id="navigator" transform="translate(0 0)" fill="#404254">
  <rect fill="#f2f5e9" fill-opacity="0.5" stroke="#606060" stroke-width=".5" x="0" y="0" width="60" height="60"/>
  <use id="zoomplus" xlink:href="#zoomPlus" x="17" y="9" onmousedown="handleZoom(evt,'in')"/>
  <use id="zoomminus" xlink:href="#zoomMin" x="42" y="9" onmousedown="handleZoom(evt,'out')"/>
  <use id="reset" xlink:href="#resetDef" x="30" y="36" onmousedown="handleReset()"/>
   <use id="arrowup" xlink:href="#arrowUp" x="0" y="0" onmousedown="handlePan(0,-1)"/>
  <use id="arrowright" xlink:href="#arrowRight" x="0" y="0" onmousedown="handlePan(1,0)"/>
  <use id="arrowdown" xlink:href="#arrowDown" x="0" y="0" onmousedown="handlePan(0,1)"/>
  <use id="arrowleft" xlink:href="#arrowLeft" x="0" y="0" onmousedown="handlePan(-1,0)"/>
</g>
<svg viewBox="0 0 15 15" width="100%" height="30px" preserveAspectRatio="xMaxYMin meet">
 <g id="arrow_out" transform="scale(0.3 0.3)">
  <a xlink:href="wario__stadium_2course__textures_8linkonly_8c__incl_org.svg" target="_base">
   <rect id="button" ry="5" rx="5" y="6" x="6" height="38" width="38"
        fill="#f2f5e9" fill-opacity="0.5" stroke="#606060" stroke-width="1.0"/>
   <path id="arrow"
     d="M 11.500037,31.436501 C 11.940474,20.09759 22.043105,11.32322 32.158766,21.979434 L 37.068811,17.246167 C 37.068811,17.246167 37.088388,32 37.088388,32 L 22.160133,31.978069 C 22.160133,31.978069 26.997745,27.140456 26.997745,27.140456 C 18.528582,18.264221 13.291696,25.230495 11.500037,31.436501 z"
     style="fill:#404040;"/>
  </a>
 </g>
</svg>

<style type='text/css'>
<![CDATA[
[data-mouse-over-selected='false'] { opacity: 0.7; }
[data-mouse-over-selected='true']  { opacity: 1.0; }
]]>
</style>
<script type="application/ecmascript"><![CDATA[
document.addEventListener('DOMContentLoaded', (event) => {
  highlightEdges();
  highlightAdjacentNodes();
});
]]></script>
</svg>
