<?xml version="1.0" encoding="UTF-8" standalone="no"?>
<!DOCTYPE svg PUBLIC "-//W3C//DTD SVG 1.1//EN"
 "http://www.w3.org/Graphics/SVG/1.1/DTD/svg11.dtd">
<!-- Generated by graphviz version 2.43.0 (0)
 -->
<!-- Title: render_actor_yoshi_egg Pages: 1 -->
<svg width="737pt" height="262pt"
 viewBox="0.00 0.00 737.00 261.50" xmlns="http://www.w3.org/2000/svg" xmlns:xlink="http://www.w3.org/1999/xlink">
<g id="graph0" class="graph" transform="scale(1 1) rotate(0) translate(4 257.5)">
<title>render_actor_yoshi_egg</title>
<!-- Node1 -->
<g id="Node000001" class="node">
<title>Node1</title>
<g id="a_Node000001"><a xlink:title="Renders the Yoshi egg actor. Actor used in Yoshi Valley.">
<polygon fill="#999999" stroke="#666666" points="133,-177.5 0,-177.5 0,-158.5 133,-158.5 133,-177.5"/>
<text text-anchor="middle" x="66.5" y="-165.5" font-family="Helvetica,sans-Serif" font-size="10.00">render_actor_yoshi_egg</text>
</a>
</g>
</g>
<!-- Node2 -->
<g id="Node000002" class="node">
<title>Node2</title>
<g id="a_Node000002"><a xlink:href="actors_8c.html#a6fd7dc3bc34357287535b6f06ab7d85c" target="_top" xlink:title=" ">
<polygon fill="white" stroke="#666666" points="286.5,-253.5 194.5,-253.5 194.5,-234.5 286.5,-234.5 286.5,-253.5"/>
<text text-anchor="middle" x="240.5" y="-241.5" font-family="Helvetica,sans-Serif" font-size="10.00">func_802976D8</text>
</a>
</g>
</g>
<!-- Node1&#45;&gt;Node2 -->
<g id="edge1_Node000001_Node000002" class="edge">
<title>Node1&#45;&gt;Node2</title>
<g id="a_edge1_Node000001_Node000002"><a xlink:title=" ">
<path fill="none" stroke="#63b8ff" d="M84.38,-177.61C104.23,-188.68 138.37,-207.02 169,-220 178.46,-224.01 188.85,-227.84 198.67,-231.22"/>
<polygon fill="#63b8ff" stroke="#63b8ff" points="197.65,-234.58 208.25,-234.44 199.88,-227.94 197.65,-234.58"/>
</a>
</g>
</g>
<!-- Node3 -->
<g id="Node000003" class="node">
<title>Node3</title>
<g id="a_Node000003"><a xlink:href="actors_8c.html#ac46c5c4408bdcd2bfdeddd690b1ed203" target="_top" xlink:title=" ">
<polygon fill="white" stroke="#666666" points="286.5,-177.5 194.5,-177.5 194.5,-158.5 286.5,-158.5 286.5,-177.5"/>
<text text-anchor="middle" x="240.5" y="-165.5" font-family="Helvetica,sans-Serif" font-size="10.00">func_8029794C</text>
</a>
</g>
</g>
<!-- Node1&#45;&gt;Node3 -->
<g id="edge2_Node000001_Node000003" class="edge">
<title>Node1&#45;&gt;Node3</title>
<g id="a_edge2_Node000001_Node000003"><a xlink:title=" ">
<path fill="none" stroke="#63b8ff" d="M133.02,-168C149.84,-168 167.77,-168 184.03,-168"/>
<polygon fill="#63b8ff" stroke="#63b8ff" points="184.44,-171.5 194.44,-168 184.44,-164.5 184.44,-171.5"/>
</a>
</g>
</g>
<!-- Node4 -->
<g id="Node000004" class="node">
<title>Node4</title>
<g id="a_Node000004"><a xlink:href="math__util_8c.html#a7085bb4bb08bdc39c0fa0b98f25176ef" target="_top" xlink:title=" ">
<polygon fill="white" stroke="#666666" points="485.5,-215.5 357.5,-215.5 357.5,-196.5 485.5,-196.5 485.5,-215.5"/>
<text text-anchor="middle" x="421.5" y="-203.5" font-family="Helvetica,sans-Serif" font-size="10.00">mtxf_pos_rotation_xyz</text>
</a>
</g>
</g>
<!-- Node1&#45;&gt;Node4 -->
<g id="edge18_Node000001_Node000004" class="edge">
<title>Node1&#45;&gt;Node4</title>
<g id="a_edge18_Node000001_Node000004"><a xlink:title=" ">
<path fill="none" stroke="#63b8ff" d="M112.55,-177.53C130.1,-180.95 150.42,-184.57 169,-187 228.71,-194.82 296.85,-199.72 347.13,-202.58"/>
<polygon fill="#63b8ff" stroke="#63b8ff" points="347.08,-206.09 357.25,-203.15 347.46,-199.1 347.08,-206.09"/>
</a>
</g>
</g>
<!-- Node8 -->
<g id="Node000008" class="node">
<title>Node8</title>
<g id="a_Node000008"><a xlink:href="math__util_8c.html#aa23f6384122bc45f13a81ef0fa86c099" target="_top" xlink:title=" ">
<polygon fill="white" stroke="#666666" points="478,-141.5 365,-141.5 365,-122.5 478,-122.5 478,-141.5"/>
<text text-anchor="middle" x="421.5" y="-129.5" font-family="Helvetica,sans-Serif" font-size="10.00">render_set_position</text>
</a>
</g>
</g>
<!-- Node1&#45;&gt;Node8 -->
<g id="edge19_Node000001_Node000008" class="edge">
<title>Node1&#45;&gt;Node8</title>
<g id="a_edge19_Node000001_Node000008"><a xlink:title=" ">
<path fill="none" stroke="#63b8ff" d="M115.36,-158.46C132.25,-155.37 151.42,-152.18 169,-150 231.79,-142.21 303.85,-137.48 354.7,-134.83"/>
<polygon fill="#63b8ff" stroke="#63b8ff" points="355.09,-138.32 364.9,-134.32 354.73,-131.33 355.09,-138.32"/>
</a>
</g>
</g>
<!-- Node11 -->
<g id="Node000011" class="node">
<title>Node11</title>
<g id="a_Node000011"><a xlink:href="math__util_8c.html#a5e1d12b8745a8d5f8d73ab366328d3cd" target="_top" xlink:title=" ">
<polygon fill="white" stroke="#666666" points="312,-84.5 169,-84.5 169,-65.5 312,-65.5 312,-84.5"/>
<text text-anchor="middle" x="240.5" y="-72.5" font-family="Helvetica,sans-Serif" font-size="10.00">is_within_render_distance</text>
</a>
</g>
</g>
<!-- Node1&#45;&gt;Node11 -->
<g id="edge10_Node000001_Node000011" class="edge">
<title>Node1&#45;&gt;Node11</title>
<g id="a_edge10_Node000001_Node000011"><a xlink:title=" ">
<path fill="none" stroke="#63b8ff" d="M85.26,-158.4C115.59,-142 177.54,-108.5 213.01,-89.33"/>
<polygon fill="#63b8ff" stroke="#63b8ff" points="214.71,-92.39 221.84,-84.55 211.38,-86.23 214.71,-92.39"/>
</a>
</g>
</g>
<!-- Node3&#45;&gt;Node4 -->
<g id="edge3_Node000003_Node000004" class="edge">
<title>Node3&#45;&gt;Node4</title>
<g id="a_edge3_Node000003_Node000004"><a xlink:title=" ">
<path fill="none" stroke="#63b8ff" d="M286.67,-177.59C310.72,-182.69 340.47,-189.01 365.82,-194.39"/>
<polygon fill="#63b8ff" stroke="#63b8ff" points="365.15,-197.83 375.66,-196.48 366.6,-190.98 365.15,-197.83"/>
</a>
</g>
</g>
<!-- Node7 -->
<g id="Node000007" class="node">
<title>Node7</title>
<g id="a_Node000007"><a xlink:href="math__util_8c.html#aca95a220db79fe028b35270f35a4a7b3" target="_top" xlink:title=" ">
<polygon fill="white" stroke="#666666" points="457,-178.5 386,-178.5 386,-159.5 457,-159.5 457,-178.5"/>
<text text-anchor="middle" x="421.5" y="-166.5" font-family="Helvetica,sans-Serif" font-size="10.00">mtxf_scale</text>
</a>
</g>
</g>
<!-- Node3&#45;&gt;Node7 -->
<g id="edge6_Node000003_Node000007" class="edge">
<title>Node3&#45;&gt;Node7</title>
<g id="a_edge6_Node000003_Node000007"><a xlink:title=" ">
<path fill="none" stroke="#63b8ff" d="M286.67,-168.25C313.94,-168.4 348.57,-168.6 375.77,-168.75"/>
<polygon fill="#63b8ff" stroke="#63b8ff" points="375.78,-172.25 385.79,-168.81 375.81,-165.25 375.78,-172.25"/>
</a>
</g>
</g>
<!-- Node3&#45;&gt;Node8 -->
<g id="edge7_Node000003_Node000008" class="edge">
<title>Node3&#45;&gt;Node8</title>
<g id="a_edge7_Node000003_Node000008"><a xlink:title=" ">
<path fill="none" stroke="#63b8ff" d="M286.67,-158.92C309.88,-154.25 338.42,-148.51 363.16,-143.53"/>
<polygon fill="#63b8ff" stroke="#63b8ff" points="364.04,-146.92 373.16,-141.52 362.66,-140.06 364.04,-146.92"/>
</a>
</g>
</g>
<!-- Node5 -->
<g id="Node000005" class="node">
<title>Node5</title>
<g id="a_Node000005"><a xlink:href="math__util_8c.html#ae69cbf5c8d4b3b0dba2d7b4d4673689f" target="_top" xlink:title=" ">
<polygon fill="white" stroke="#666666" points="590,-215.5 552,-215.5 552,-196.5 590,-196.5 590,-215.5"/>
<text text-anchor="middle" x="571" y="-203.5" font-family="Helvetica,sans-Serif" font-size="10.00">coss</text>
</a>
</g>
</g>
<!-- Node4&#45;&gt;Node5 -->
<g id="edge4_Node000004_Node000005" class="edge">
<title>Node4&#45;&gt;Node5</title>
<g id="a_edge4_Node000004_Node000005"><a xlink:title=" ">
<path fill="none" stroke="#63b8ff" d="M485.91,-206C505.32,-206 525.71,-206 541.55,-206"/>
<polygon fill="#63b8ff" stroke="#63b8ff" points="541.72,-209.5 551.72,-206 541.72,-202.5 541.72,-209.5"/>
</a>
</g>
</g>
<!-- Node6 -->
<g id="Node000006" class="node">
<title>Node6</title>
<g id="a_Node000006"><a xlink:href="math__util_8c.html#a19ed3bd78fd2d3e2bd0a29f6caf48545" target="_top" xlink:title=" ">
<polygon fill="white" stroke="#666666" points="589,-178.5 553,-178.5 553,-159.5 589,-159.5 589,-178.5"/>
<text text-anchor="middle" x="571" y="-166.5" font-family="Helvetica,sans-Serif" font-size="10.00">sins</text>
</a>
</g>
</g>
<!-- Node4&#45;&gt;Node6 -->
<g id="edge5_Node000004_Node000006" class="edge">
<title>Node4&#45;&gt;Node6</title>
<g id="a_edge5_Node000004_Node000006"><a xlink:title=" ">
<path fill="none" stroke="#63b8ff" d="M461.26,-196.41C472.18,-193.7 484.06,-190.74 495,-188 510.78,-184.04 528.42,-179.58 542.62,-175.97"/>
<polygon fill="#63b8ff" stroke="#63b8ff" points="543.9,-179.26 552.73,-173.4 542.17,-172.47 543.9,-179.26"/>
</a>
</g>
</g>
<!-- Node9 -->
<g id="Node000009" class="node">
<title>Node9</title>
<g id="a_Node000009"><a xlink:href="math__util_8c.html#a32af0f217114736291c9ca6689138b81" target="_top" xlink:title=" ">
<polygon fill="white" stroke="#666666" points="611,-141.5 531,-141.5 531,-122.5 611,-122.5 611,-141.5"/>
<text text-anchor="middle" x="571" y="-129.5" font-family="Helvetica,sans-Serif" font-size="10.00">mtxf_to_mtx</text>
</a>
</g>
</g>
<!-- Node8&#45;&gt;Node9 -->
<g id="edge8_Node000008_Node000009" class="edge">
<title>Node8&#45;&gt;Node9</title>
<g id="a_edge8_Node000008_Node000009"><a xlink:title=" ">
<path fill="none" stroke="#63b8ff" d="M478.26,-132C492.18,-132 507,-132 520.58,-132"/>
<polygon fill="#63b8ff" stroke="#63b8ff" points="520.69,-135.5 530.69,-132 520.69,-128.5 520.69,-135.5"/>
</a>
</g>
</g>
<!-- Node10 -->
<g id="Node000010" class="node">
<title>Node10</title>
<g id="a_Node000010"><a xlink:href="guMtxF2L_8c.html#a40ab2d64c609839ff1e0ef0de2d0dcc4" target="_top" xlink:title=" ">
<polygon fill="white" stroke="#666666" points="720.5,-141.5 655.5,-141.5 655.5,-122.5 720.5,-122.5 720.5,-141.5"/>
<text text-anchor="middle" x="688" y="-129.5" font-family="Helvetica,sans-Serif" font-size="10.00">guMtxF2L</text>
</a>
</g>
</g>
<!-- Node9&#45;&gt;Node10 -->
<g id="edge9_Node000009_Node000010" class="edge">
<title>Node9&#45;&gt;Node10</title>
<g id="a_edge9_Node000009_Node000010"><a xlink:title=" ">
<path fill="none" stroke="#63b8ff" d="M611.25,-132C622.1,-132 633.92,-132 644.92,-132"/>
<polygon fill="#63b8ff" stroke="#63b8ff" points="645.16,-135.5 655.16,-132 645.16,-128.5 645.16,-135.5"/>
</a>
</g>
</g>
<!-- Node12 -->
<g id="Node000012" class="node">
<title>Node12</title>
<g id="a_Node000012"><a xlink:href="math__util_8c.html#a07a66adf3458c156c7961b983983627a" target="_top" xlink:title=" ">
<polygon fill="white" stroke="#666666" points="468,-67.5 375,-67.5 375,-48.5 468,-48.5 468,-67.5"/>
<text text-anchor="middle" x="421.5" y="-55.5" font-family="Helvetica,sans-Serif" font-size="10.00">func_802B7CA8</text>
</a>
</g>
</g>
<!-- Node11&#45;&gt;Node12 -->
<g id="edge11_Node000011_Node000012" class="edge">
<title>Node11&#45;&gt;Node12</title>
<g id="a_edge11_Node000011_Node000012"><a xlink:title=" ">
<path fill="none" stroke="#63b8ff" d="M312.25,-68.28C329.73,-66.62 348.2,-64.87 364.85,-63.29"/>
<polygon fill="#63b8ff" stroke="#63b8ff" points="365.33,-66.76 374.95,-62.33 364.67,-59.79 365.33,-66.76"/>
</a>
</g>
</g>
<!-- Node16 -->
<g id="Node000016" class="node">
<title>Node16</title>
<g id="a_Node000016"><a xlink:href="math__util_8c.html#a963f23fd2ffec93350816627af02b9da" target="_top" xlink:title=" ">
<polygon fill="white" stroke="#666666" points="495,-104.5 348,-104.5 348,-85.5 495,-85.5 495,-104.5"/>
<text text-anchor="middle" x="421.5" y="-92.5" font-family="Helvetica,sans-Serif" font-size="10.00">get_angle_between_points</text>
</a>
</g>
</g>
<!-- Node11&#45;&gt;Node16 -->
<g id="edge15_Node000011_Node000016" class="edge">
<title>Node11&#45;&gt;Node16</title>
<g id="a_edge15_Node000011_Node000016"><a xlink:title=" ">
<path fill="none" stroke="#63b8ff" d="M312.25,-82.9C320.67,-83.85 329.33,-84.81 337.91,-85.77"/>
<polygon fill="#63b8ff" stroke="#63b8ff" points="337.59,-89.26 347.92,-86.89 338.37,-82.3 337.59,-89.26"/>
</a>
</g>
</g>
<!-- Node17 -->
<g id="Node000017" class="node">
<title>Node17</title>
<g id="a_Node000017"><a xlink:href="math__util_8c.html#a3eb0db0895b2c11953df746ce49b782e" target="_top" xlink:title=" ">
<polygon fill="white" stroke="#666666" points="476.5,-30 366.5,-30 366.5,0 476.5,0 476.5,-30"/>
<text text-anchor="start" x="374.5" y="-18" font-family="Helvetica,sans-Serif" font-size="10.00">is_visible_between</text>
<text text-anchor="middle" x="421.5" y="-7" font-family="Helvetica,sans-Serif" font-size="10.00">_angle</text>
</a>
</g>
</g>
<!-- Node11&#45;&gt;Node17 -->
<g id="edge17_Node000011_Node000017" class="edge">
<title>Node11&#45;&gt;Node17</title>
<g id="a_edge17_Node000011_Node000017"><a xlink:title=" ">
<path fill="none" stroke="#63b8ff" d="M269.51,-65.48C290.98,-58.19 321.35,-47.92 348,-39 353.56,-37.14 359.36,-35.21 365.15,-33.28"/>
<polygon fill="#63b8ff" stroke="#63b8ff" points="366.46,-36.54 374.85,-30.06 364.26,-29.89 366.46,-36.54"/>
</a>
</g>
</g>
<!-- Node13 -->
<g id="Node000013" class="node">
<title>Node13</title>
<g id="a_Node000013"><a xlink:href="math__util_8c.html#aaa39a297477f56051975259f4bddd829" target="_top" xlink:title=" ">
<polygon fill="white" stroke="#666666" points="596,-104.5 546,-104.5 546,-85.5 596,-85.5 596,-104.5"/>
<text text-anchor="middle" x="571" y="-92.5" font-family="Helvetica,sans-Serif" font-size="10.00">atan2s</text>
</a>
</g>
</g>
<!-- Node12&#45;&gt;Node13 -->
<g id="edge12_Node000012_Node000013" class="edge">
<title>Node12&#45;&gt;Node13</title>
<g id="a_edge12_Node000012_Node000013"><a xlink:title=" ">
<path fill="none" stroke="#63b8ff" d="M461.26,-67.59C472.18,-70.3 484.06,-73.26 495,-76 508.36,-79.35 523.06,-83.07 535.88,-86.32"/>
<polygon fill="#63b8ff" stroke="#63b8ff" points="535.13,-89.74 545.69,-88.81 536.86,-82.96 535.13,-89.74"/>
</a>
</g>
</g>
<!-- Node15 -->
<g id="Node000015" class="node">
<title>Node15</title>
<g id="a_Node000015"><a xlink:href="math_8h.html#a37bde043e94a6f074c78f10518fb5d99" target="_top" xlink:title=" ">
<polygon fill="white" stroke="#666666" points="590.5,-67.5 551.5,-67.5 551.5,-48.5 590.5,-48.5 590.5,-67.5"/>
<text text-anchor="middle" x="571" y="-55.5" font-family="Helvetica,sans-Serif" font-size="10.00">sqrtf</text>
</a>
</g>
</g>
<!-- Node12&#45;&gt;Node15 -->
<g id="edge14_Node000012_Node000015" class="edge">
<title>Node12&#45;&gt;Node15</title>
<g id="a_edge14_Node000012_Node000015"><a xlink:title=" ">
<path fill="none" stroke="#63b8ff" d="M468.36,-58C492.13,-58 520.42,-58 541.12,-58"/>
<polygon fill="#63b8ff" stroke="#63b8ff" points="541.18,-61.5 551.18,-58 541.18,-54.5 541.18,-61.5"/>
</a>
</g>
</g>
<!-- Node14 -->
<g id="Node000014" class="node">
<title>Node14</title>
<g id="a_Node000014"><a xlink:href="math__util_8c.html#a0273b0ea0783a06996c28669a7438ed9" target="_top" xlink:title=" ">
<polygon fill="white" stroke="#666666" points="729,-104.5 647,-104.5 647,-85.5 729,-85.5 729,-104.5"/>
<text text-anchor="middle" x="688" y="-92.5" font-family="Helvetica,sans-Serif" font-size="10.00">atan2_lookup</text>
</a>
</g>
</g>
<!-- Node13&#45;&gt;Node14 -->
<g id="edge13_Node000013_Node000014" class="edge">
<title>Node13&#45;&gt;Node14</title>
<g id="a_edge13_Node000013_Node000014"><a xlink:title=" ">
<path fill="none" stroke="#63b8ff" d="M596.11,-95C607.87,-95 622.49,-95 636.54,-95"/>
<polygon fill="#63b8ff" stroke="#63b8ff" points="636.63,-98.5 646.63,-95 636.63,-91.5 636.63,-98.5"/>
</a>
</g>
</g>
<!-- Node16&#45;&gt;Node13 -->
<g id="edge16_Node000016_Node000013" class="edge">
<title>Node16&#45;&gt;Node13</title>
<g id="a_edge16_Node000016_Node000013"><a xlink:title=" ">
<path fill="none" stroke="#63b8ff" d="M495.39,-95C509.53,-95 523.72,-95 535.87,-95"/>
<polygon fill="#63b8ff" stroke="#63b8ff" points="535.97,-98.5 545.97,-95 535.97,-91.5 535.97,-98.5"/>
</a>
</g>
</g>
</g>
</svg>
